<svg version="1.1" xmlns="http://www.w3.org/2000/svg" xmlns:xlink="http://www.w3.org/1999/xlink" viewBox="0,0,1024,1024">
	<!-- Color names: teamapps-color-1 -->
	<desc>account_circle icon - Licensed under Apache License v2.0 (http://www.apache.org/licenses/LICENSE-2.0) - Created with Iconfu.com - Derivative work of Material icons (Copyright Google Inc.)</desc>
	<g fill="none" fill-rule="nonzero" style="mix-blend-mode: normal">
		<g color="#039be5" class="teamapps-color-1">
			<path d="M938.67,512c0,235.52 -191.15,426.67 -426.67,426.67c-235.52,0 -426.67,-191.15 -426.67,-426.67c0,-235.52 191.15,-426.67 426.67,-426.67c235.52,0 426.67,191.15 426.67,426.67zM768,681.81c-1.28,-84.91 -171.09,-131.41 -256,-131.41c-85.33,0 -254.72,46.5 -256,131.41c55.04,82.77 149.33,137.39 256,137.39c106.67,0 200.96,-54.62 256,-137.39zM384,341.33c0,70.83 57.17,128 128,128c70.83,0 128,-57.17 128,-128c0,-70.83 -57.17,-128 -128,-128c-70.83,0 -128,57.17 -128,128z" fill="currentColor"/>
		</g>
	</g>
</svg>