<svg version="1.1" xmlns="http://www.w3.org/2000/svg" xmlns:xlink="http://www.w3.org/1999/xlink" viewBox="0,0,1024,1024">
	<!-- Color names: teamapps-color-1 -->
	<desc>call_end icon - Licensed under Apache License v2.0 (http://www.apache.org/licenses/LICENSE-2.0) - Created with Iconfu.com - Derivative work of Material icons (Copyright Google Inc.)</desc>
	<g fill="none" fill-rule="nonzero" style="mix-blend-mode: normal">
		<g color="#039be5" class="teamapps-color-1">
			<path d="M512,384c-68.27,0 -134.4,10.67 -196.27,30.72v132.27c0,16.64 -9.81,31.57 -23.89,38.4c-41.81,20.91 -79.78,47.78 -113.49,78.93c-7.68,7.68 -18.35,11.95 -29.87,11.95c-11.95,0 -22.61,-4.7 -30.29,-12.38l-105.82,-105.81c-7.68,-7.25 -12.37,-17.92 -12.37,-29.87c0,-11.95 4.69,-22.61 12.37,-30.29c130.13,-123.31 305.92,-199.25 499.63,-199.25c193.71,0 369.5,75.94 499.63,199.25c7.68,7.68 12.37,18.34 12.37,30.29c0,11.95 -4.69,22.62 -12.37,30.3l-105.82,105.81c-7.68,7.68 -18.34,12.37 -30.29,12.37c-11.52,0 -22.19,-4.69 -29.87,-11.94c-33.71,-31.57 -72.11,-58.03 -113.92,-78.94c-14.08,-6.83 -23.89,-21.33 -23.89,-38.4v-132.26c-61.44,-20.48 -127.57,-31.15 -195.84,-31.15z" fill="currentColor"/>
		</g>
	</g>
</svg>