<svg version="1.1" xmlns="http://www.w3.org/2000/svg" xmlns:xlink="http://www.w3.org/1999/xlink" viewBox="0,0,1024,1024">
	<!-- Color names: teamapps-color-1 -->
	<desc>camera_rear icon - Licensed under Apache License v2.0 (http://www.apache.org/licenses/LICENSE-2.0) - Created with Iconfu.com - Derivative work of Material icons (Copyright Google Inc.)</desc>
	<g fill="none" fill-rule="nonzero" style="mix-blend-mode: normal">
		<g color="#039be5" class="teamapps-color-1">
			<path d="M810.67,85.33v597.34c0,46.93 -38.41,85.33 -85.34,85.33h-298.66l128,128l-128,128v-85.33h-213.34v-85.34h213.34v-85.33h-128c-46.93,0 -85.34,-38.4 -85.34,-85.33v-597.34c0,-46.93 38.41,-85.33 85.34,-85.33h426.66c46.93,0 85.34,38.4 85.34,85.33zM596.91,170.67c0,-46.93 -38.41,-85.34 -85.34,-85.34c-46.93,0 -84.9,38.41 -84.9,85.34c0,46.93 37.97,85.33 85.33,85.33c46.93,0 85.34,-38.4 84.91,-85.33zM810.67,853.33v85.34h-213.34v-85.34z" fill="currentColor"/>
		</g>
	</g>
</svg>