<svg version="1.1" xmlns="http://www.w3.org/2000/svg" xmlns:xlink="http://www.w3.org/1999/xlink" viewBox="0,0,1024,1024">
	<!-- Color names: teamapps-color-1 -->
	<desc>content_cut icon - Licensed under Apache License v2.0 (http://www.apache.org/licenses/LICENSE-2.0) - Created with Iconfu.com - Derivative work of Material icons (Copyright Google Inc.)</desc>
	<g fill="none" fill-rule="nonzero" style="mix-blend-mode: normal">
		<g color="#039be5" class="teamapps-color-1">
			<path d="M938.67,853.33v42.67h-128l-298.67,-298.67l-100.69,100.7c9.81,21.33 15.36,44.8 15.36,69.97c0,94.29 -76.38,170.67 -170.67,170.67c-94.29,0 -170.67,-76.38 -170.67,-170.67c0,-94.29 76.38,-170.67 170.67,-170.67c25.17,0 48.64,5.55 69.97,15.36l100.7,-100.69l-100.7,-100.69c-21.33,9.81 -44.8,15.36 -69.97,15.36c-94.29,0 -170.67,-76.38 -170.67,-170.67c0,-94.29 76.38,-170.67 170.67,-170.67c94.29,0 170.67,76.38 170.67,170.67c0,25.17 -5.55,48.64 -15.36,69.97zM938.67,128v42.67l-298.67,298.66l-85.33,-85.33l256,-256zM341.33,256c0,-47.36 -38.4,-85.33 -85.33,-85.33c-46.93,0 -85.33,37.97 -85.33,85.33c0,47.36 38.4,85.33 85.33,85.33c46.93,0 85.33,-37.97 85.33,-85.33zM341.33,768c0,-47.36 -38.4,-85.33 -85.33,-85.33c-46.93,0 -85.33,37.97 -85.33,85.33c0,47.36 38.4,85.33 85.33,85.33c46.93,0 85.33,-37.97 85.33,-85.33zM533.33,512c0,-11.95 -9.38,-21.33 -21.33,-21.33c-11.95,0 -21.33,9.38 -21.33,21.33c0,11.95 9.38,21.33 21.33,21.33c11.95,0 21.33,-9.38 21.33,-21.33z" fill="currentColor"/>
		</g>
	</g>
</svg>