<svg version="1.1" xmlns="http://www.w3.org/2000/svg" xmlns:xlink="http://www.w3.org/1999/xlink" viewBox="0,0,1024,1024">
	<!-- Color names: teamapps-color-1 -->
	<desc>face icon - Licensed under Apache License v2.0 (http://www.apache.org/licenses/LICENSE-2.0) - Created with Iconfu.com - Derivative work of Material icons (Copyright Google Inc.)</desc>
	<g fill="none" fill-rule="nonzero" style="mix-blend-mode: normal">
		<g color="#039be5" class="teamapps-color-1">
			<path d="M938.67,512c0,235.52 -191.15,426.67 -426.67,426.67c-235.52,0 -426.67,-191.15 -426.67,-426.67c0,-235.52 191.15,-426.67 426.67,-426.67c235.52,0 426.67,191.15 426.67,426.67zM853.33,512c0,-33.71 -5.12,-66.14 -14.08,-96.43c-30.72,7.25 -62.72,11.1 -96,11.1c-143.79,0 -270.93,-71.25 -348.16,-180.48c-41.81,101.97 -121.6,184.32 -222.29,229.12c-1.28,11.95 -2.13,24.32 -2.13,36.69c0,188.16 153.17,341.33 341.33,341.33c188.16,0 341.33,-153.17 341.33,-341.33zM437.33,554.67c0,29.44 -23.89,53.33 -53.33,53.33c-29.44,0 -53.33,-23.89 -53.33,-53.33c0,-29.44 23.89,-53.34 53.33,-53.34c29.44,0 53.33,23.9 53.33,53.34zM693.33,554.67c0,29.44 -23.89,53.33 -53.33,53.33c-29.44,0 -53.33,-23.89 -53.33,-53.33c0,-29.44 23.89,-53.34 53.33,-53.34c29.44,0 53.33,23.9 53.33,53.34z" fill="currentColor"/>
		</g>
	</g>
</svg>