<svg version="1.1" xmlns="http://www.w3.org/2000/svg" xmlns:xlink="http://www.w3.org/1999/xlink" viewBox="0,0,1024,1024">
	<!-- Color names: teamapps-color-1 -->
	<desc>fiber_new icon - Licensed under Apache License v2.0 (http://www.apache.org/licenses/LICENSE-2.0) - Created with Iconfu.com - Derivative work of Material icons (Copyright Google Inc.)</desc>
	<g fill="none" fill-rule="nonzero" style="mix-blend-mode: normal">
		<g color="#039be5" class="teamapps-color-1">
			<path d="M938.67,256v512c0,47.36 -37.98,85.33 -85.34,85.33h-682.66c-47.36,0 -85.34,-37.97 -85.34,-85.33l0.43,-512c0,-47.36 37.55,-85.33 84.91,-85.33h682.66c47.36,0 85.34,37.97 85.34,85.33zM874.67,384h-53.34v192h-47.78v-149.76h-53.34v150.19h-48.21v-192.43h-53.33v213.33c0,23.47 19.19,42.67 42.66,42.67h170.67c23.47,0 42.67,-19.2 42.67,-42.67zM362.67,384h-53.34v149.33l-106.66,-149.33h-53.34v256h53.34v-149.33l108.8,149.33h51.2zM576,384h-170.67v256h170.67v-53.33h-106.67v-47.36h106.67v-53.76h-106.67v-47.79h106.67z" fill="currentColor"/>
		</g>
	</g>
</svg>