<svg version="1.1" xmlns="http://www.w3.org/2000/svg" xmlns:xlink="http://www.w3.org/1999/xlink" viewBox="0,0,1024,1024">
	<!-- Color names: teamapps-color-1 -->
	<desc>forward_30 icon - Licensed under Apache License v2.0 (http://www.apache.org/licenses/LICENSE-2.0) - Created with Iconfu.com - Derivative work of Material icons (Copyright Google Inc.)</desc>
	<g fill="none" fill-rule="nonzero" style="mix-blend-mode: normal">
		<g color="#039be5" class="teamapps-color-1">
			<path d="M512,213.33v-170.66l213.33,213.33l-213.33,213.33v-170.66c-140.8,0 -256,115.2 -256,256c0,140.8 115.2,256 256,256c140.8,0 256,-115.2 256,-256h85.33c0,187.73 -153.6,341.33 -341.33,341.33c-187.73,0 -341.33,-153.6 -341.33,-341.33c0,-187.73 153.6,-341.34 341.33,-341.34zM652.8,605.87c0,12.8 0,25.6 -4.27,34.13l-12.8,25.6c0,0 -12.8,12.8 -21.33,12.8c-8.53,0 -17.07,4.27 -25.6,4.27c-8.53,0 -17.07,0 -25.6,-4.27c-8.53,-4.27 -12.8,-8.53 -21.33,-12.8c-8.53,-4.27 -8.53,-12.8 -12.8,-25.6c-4.27,-12.8 -4.27,-21.33 -4.27,-34.13v-29.87c0,-12.8 0,-25.6 4.27,-34.13l12.8,-25.6c0,0 12.8,-12.8 21.33,-12.8c8.53,0 17.07,-4.27 25.6,-4.27c8.53,0 17.07,0 25.6,4.27c8.53,4.27 12.8,8.53 21.33,12.8c8.53,4.27 8.53,12.8 12.8,25.6c4.27,12.8 4.27,21.33 4.27,34.13zM409.6,576h17.07c8.53,0 17.06,-4.26 21.33,-8.53c4.27,-4.27 8.53,-8.54 8.53,-17.07v-8.53c0,0 -4.26,-4.27 -4.26,-8.54c0,-4.27 -4.27,-4.26 -8.54,-4.26h-21.33c0,0 -4.26,4.26 -8.53,4.26c-4.27,0 -4.27,4.27 -4.27,8.54v8.53h-42.67c0,-8.53 0,-12.8 4.27,-21.33c4.27,-8.53 8.53,-12.8 12.8,-17.07c4.27,-4.27 12.8,-8.53 17.07,-8.53c4.27,0 17.06,-4.27 21.33,-4.27c8.53,0 17.07,0 25.6,4.27c8.53,4.27 12.8,4.26 21.33,8.53c8.53,4.27 8.53,8.54 12.8,17.07c4.27,8.53 4.27,12.8 4.27,21.33v12.8c0,0 -4.27,8.53 -4.27,12.8c0,4.27 -4.26,8.53 -8.53,8.53c-4.27,0 -8.53,4.27 -12.8,8.54c8.53,4.27 17.06,8.53 21.33,17.06c4.27,8.53 8.54,17.07 8.54,25.6c0,8.53 0,17.07 -4.27,21.34c-4.27,4.27 -8.53,12.79 -12.8,17.06c-4.27,4.27 -12.8,8.54 -21.33,8.54c-8.53,0 -17.07,4.26 -25.6,4.26c-8.53,0 -17.07,0.01 -21.34,-4.26c-4.27,-4.27 -12.8,-4.27 -21.33,-8.54c-8.53,-4.27 -8.53,-8.53 -12.8,-17.06c-4.27,-8.53 -4.27,-17.07 -4.27,-25.6h34.14v8.53c0,0 4.26,4.26 4.26,8.53c0,4.27 4.27,4.27 8.54,4.27h21.33c0,0 4.26,-4.27 8.53,-4.27c4.27,0 4.27,-4.26 4.27,-8.53v-21.33c0,0 -4.27,-4.27 -4.27,-8.54c0,-4.27 -4.26,-4.26 -8.53,-4.26h-25.6zM614.4,550.4c0,0 -4.27,-8.53 -4.27,-12.8c0,-4.27 -4.26,-4.26 -8.53,-8.53c-4.27,-4.27 -8.53,-4.27 -12.8,-4.27c-4.27,0 -8.53,0 -12.8,4.27l-8.53,8.53c0,0 -4.27,8.53 -4.27,12.8v85.33c0,0 4.27,8.53 4.27,12.8c0,4.27 4.26,4.27 8.53,8.54c4.27,4.27 8.53,4.26 12.8,4.26c4.27,0 8.53,0.01 12.8,-4.26l8.53,-8.54c0,0 4.27,-8.53 4.27,-12.8z" fill="currentColor"/>
		</g>
	</g>
</svg>