<svg version="1.1" xmlns="http://www.w3.org/2000/svg" xmlns:xlink="http://www.w3.org/1999/xlink" viewBox="0,0,1024,1024">
	<!-- Color names: teamapps-color-1 -->
	<desc>gesture icon - Licensed under Apache License v2.0 (http://www.apache.org/licenses/LICENSE-2.0) - Created with Iconfu.com - Derivative work of Material icons (Copyright Google Inc.)</desc>
	<g fill="none" fill-rule="nonzero" style="mix-blend-mode: normal">
		<g color="#039be5" class="teamapps-color-1">
			<path d="M121.17,221.01c9.39,-11.52 22.19,-24.32 37.55,-39.68c10.67,-10.67 59.73,-53.33 116.05,-53.33c37.12,0 107.1,29.44 107.1,122.03c0,58.03 -22.19,91.3 -55.47,139.94c-19.2,28.16 -64,103.68 -78.93,150.19c-15.36,46.51 -3.84,81.92 15.36,81.92c18.35,0 36.69,-23.04 47.36,-35.84c9.81,-10.24 72.95,-84.9 97.7,-116.05c32.43,-39.68 114.78,-121.18 210.78,-121.18c125.44,0 165.54,108.8 171.94,179.2h105.39v106.67h-104.96c-17.07,203.52 -130.56,260.27 -200.11,260.27c-75.52,0 -136.96,-59.31 -136.96,-131.84c0,-72.53 68.27,-201.81 229.55,-229.12c-4.69,-33.28 -5.54,-76.38 -75.09,-76.38c-53.33,0 -122.45,83.21 -174.08,146.78c-47.36,58.45 -84.91,104.95 -130.56,118.18c-38.4,11.52 -80.64,4.27 -112.64,-19.62c-36.69,-27.31 -57.18,-72.54 -57.18,-127.15c0,-103.25 111.36,-251.31 122.03,-269.23c12.8,-20.91 34.13,-56.32 12.8,-64.85c-13.23,-5.55 -43.09,21.76 -72.96,52.05zM683.09,642.99c-91.31,23.89 -122.45,92.16 -122.45,117.76c0,19.63 18.34,30.72 31.57,30.72c29.87,0 78.08,-33.71 90.88,-148.48z" fill="currentColor"/>
		</g>
	</g>
</svg>