<svg version="1.1" xmlns="http://www.w3.org/2000/svg" xmlns:xlink="http://www.w3.org/1999/xlink" viewBox="0,0,1024,1024">
	<!-- Color names: teamapps-color-1 -->
	<desc>group icon - Licensed under Apache License v2.0 (http://www.apache.org/licenses/LICENSE-2.0) - Created with Iconfu.com - Derivative work of Material icons (Copyright Google Inc.)</desc>
	<g fill="none" fill-rule="nonzero" style="mix-blend-mode: normal">
		<g color="#039be5" class="teamapps-color-1">
			<path d="M640,704v106.67h-597.33v-106.67c0,-99.41 199.25,-149.33 298.66,-149.33c99.41,0 298.67,49.92 298.67,149.33zM981.33,704v106.67h-256v-106.67c0,-63.15 -34.56,-111.36 -84.05,-147.2c14.93,-1.28 29.02,-2.13 41.39,-2.13c99.41,0 298.66,49.92 298.66,149.33zM554.67,341.33c0,-70.83 57.17,-128 128,-128c70.83,0 127.57,57.17 127.57,128c0,70.83 -56.74,128 -127.57,128c-70.83,0 -128,-57.17 -128,-128zM213.33,341.33c0,-70.83 57.17,-128 128,-128c70.83,0 127.58,57.17 127.58,128c0,70.83 -56.75,128 -127.58,128c-70.83,0 -128,-57.17 -128,-128z" fill="currentColor"/>
		</g>
	</g>
</svg>