<svg version="1.1" xmlns="http://www.w3.org/2000/svg" xmlns:xlink="http://www.w3.org/1999/xlink" viewBox="0,0,1024,1024">
	<!-- Color names: teamapps-color-1 -->
	<desc>help icon - Licensed under Apache License v2.0 (http://www.apache.org/licenses/LICENSE-2.0) - Created with Iconfu.com - Derivative work of Material icons (Copyright Google Inc.)</desc>
	<g fill="none" fill-rule="nonzero" style="mix-blend-mode: normal">
		<g color="#039be5" class="teamapps-color-1">
			<path d="M938.67,512c0,235.52 -191.15,426.67 -426.67,426.67c-235.52,0 -426.67,-191.15 -426.67,-426.67c0,-235.52 191.15,-426.67 426.67,-426.67c235.52,0 426.67,191.15 426.67,426.67zM682.67,384c0,-94.29 -76.38,-170.67 -170.67,-170.67c-94.29,0 -170.67,76.38 -170.67,170.67h85.34c0,-46.93 38.4,-85.33 85.33,-85.33c46.93,0 85.33,38.4 85.33,85.33c0,23.47 -9.38,44.8 -25.17,60.16l-52.91,53.76c-30.72,31.15 -49.92,73.82 -49.92,120.75v21.33h85.34c0,-64 19.2,-89.6 49.92,-120.75l38.4,-39.25c24.32,-24.32 39.68,-58.45 39.68,-96zM554.67,725.33h-85.34v85.34h85.34z" fill="currentColor"/>
		</g>
	</g>
</svg>