<svg version="1.1" xmlns="http://www.w3.org/2000/svg" xmlns:xlink="http://www.w3.org/1999/xlink" viewBox="0,0,1024,1024">
	<!-- Color names: teamapps-color-1 -->
	<desc>high_quality icon - Licensed under Apache License v2.0 (http://www.apache.org/licenses/LICENSE-2.0) - Created with Iconfu.com - Derivative work of Material icons (Copyright Google Inc.)</desc>
	<g fill="none" fill-rule="nonzero" style="mix-blend-mode: normal">
		<g color="#039be5" class="teamapps-color-1">
			<path d="M896,256v512c0,46.93 -38.4,85.33 -85.33,85.33h-597.34c-47.36,0 -85.33,-38.4 -85.33,-85.33v-512c0,-46.93 37.97,-85.33 85.33,-85.33h597.34c46.93,0 85.33,38.4 85.33,85.33zM768,426.67c0,-23.47 -19.2,-42.67 -42.67,-42.67h-128c-23.47,0 -42.66,19.2 -42.66,42.67v170.66c0,23.47 19.19,42.67 42.66,42.67h32v64h64v-64h32c23.47,0 42.67,-19.2 42.67,-42.67zM469.33,384h-64v106.67h-85.33v-106.67h-64v256h64v-85.33h85.33v85.33h64zM618.67,448h85.33v128h-85.33z" fill="currentColor"/>
		</g>
	</g>
</svg>