<svg version="1.1" xmlns="http://www.w3.org/2000/svg" xmlns:xlink="http://www.w3.org/1999/xlink" viewBox="0,0,1024,1024">
	<!-- Color names: teamapps-color-1 -->
	<desc>looks_two icon - Licensed under Apache License v2.0 (http://www.apache.org/licenses/LICENSE-2.0) - Created with Iconfu.com - Derivative work of Material icons (Copyright Google Inc.)</desc>
	<g fill="none" fill-rule="nonzero" style="mix-blend-mode: normal">
		<g color="#039be5" class="teamapps-color-1">
			<path d="M896,213.33v597.34c0,46.93 -38.4,85.33 -85.33,85.33h-597.34c-46.93,0 -85.33,-38.4 -85.33,-85.33v-597.34c0,-46.93 38.4,-85.33 85.33,-85.33h597.34c46.93,0 85.33,38.4 85.33,85.33zM640,384c0,-47.36 -38.4,-85.33 -85.33,-85.33h-170.67v85.33h170.67v85.33h-85.34c-46.93,0 -85.33,37.98 -85.33,85.34v170.66h256v-85.33h-170.67v-85.33h85.34c46.93,0 85.33,-37.98 85.33,-85.34z" fill="currentColor"/>
		</g>
	</g>
</svg>