<svg version="1.1" xmlns="http://www.w3.org/2000/svg" xmlns:xlink="http://www.w3.org/1999/xlink" viewBox="0,0,1024,1024">
	<!-- Color names: teamapps-color-1 -->
	<desc>looks_3 icon - Licensed under Apache License v2.0 (http://www.apache.org/licenses/LICENSE-2.0) - Created with Iconfu.com - Derivative work of Material icons (Copyright Google Inc.)</desc>
	<g fill="none" fill-rule="nonzero" style="mix-blend-mode: normal">
		<g color="#039be5" class="teamapps-color-1">
			<path d="M896.43,213.33v597.34c0,46.93 -38.41,85.33 -85.34,85.33h-597.33c-46.93,0 -85.33,-38.4 -85.33,-85.33v-597.34c0,-46.93 38.4,-85.33 85.33,-85.33h597.33c46.93,0 85.34,38.4 85.34,85.33zM640.43,384c0,-47.36 -38.41,-85.33 -85.34,-85.33h-170.66v85.33h170.66v85.33h-85.33v85.34h85.33v85.33h-170.66v85.33h170.66c46.93,0 85.34,-37.97 85.34,-85.33v-64c0,-35.41 -28.59,-64 -64,-64c35.41,0 64,-28.59 64,-64z" fill="currentColor"/>
		</g>
	</g>
</svg>