<svg version="1.1" xmlns="http://www.w3.org/2000/svg" xmlns:xlink="http://www.w3.org/1999/xlink" viewBox="0,0,1024,1024">
	<!-- Color names: teamapps-color-1 -->
	<desc>nfc icon - Licensed under Apache License v2.0 (http://www.apache.org/licenses/LICENSE-2.0) - Created with Iconfu.com - Derivative work of Material icons (Copyright Google Inc.)</desc>
	<g fill="none" fill-rule="nonzero" style="mix-blend-mode: normal">
		<g color="#039be5" class="teamapps-color-1">
			<path d="M938.67,170.67v682.66c0,46.93 -38.41,85.34 -85.34,85.34h-682.66c-46.93,0 -85.34,-38.41 -85.34,-85.34v-682.66c0,-46.93 38.41,-85.34 85.34,-85.34h682.66c46.93,0 85.34,38.41 85.34,85.34zM853.33,170.67h-682.66v682.66h682.66zM768,768h-512v-512h170.67v85.33h-85.34v341.34h341.34v-341.34h-128v97.28c25.6,14.51 42.66,41.82 42.66,73.39c0,46.93 -38.4,85.33 -85.33,85.33c-46.93,0 -85.33,-38.4 -85.33,-85.33c0,-31.57 17.06,-58.46 42.66,-73.39v-97.28c0,-46.93 38.41,-85.33 85.34,-85.33h213.33z" fill="currentColor"/>
		</g>
	</g>
</svg>