<svg version="1.1" xmlns="http://www.w3.org/2000/svg" xmlns:xlink="http://www.w3.org/1999/xlink" viewBox="0,0,1024,1024">
	<!-- Color names: teamapps-color-1 -->
	<desc>pets icon - Licensed under Apache License v2.0 (http://www.apache.org/licenses/LICENSE-2.0) - Created with Iconfu.com - Derivative work of Material icons (Copyright Google Inc.)</desc>
	<g fill="none" fill-rule="nonzero" style="mix-blend-mode: normal">
		<g color="#039be5" class="teamapps-color-1">
			<path d="M85.33,405.33c0,-58.91 47.76,-106.66 106.67,-106.66c58.91,0 106.67,47.75 106.67,106.66c0,58.91 -47.76,106.67 -106.67,106.67c-58.91,0 -106.67,-47.76 -106.67,-106.67z" fill="currentColor"/>
		</g>
		<g color="#039be5" class="teamapps-color-1">
			<path d="M277.33,234.67c0,-58.91 47.76,-106.67 106.67,-106.67c58.91,0 106.67,47.76 106.67,106.67c0,58.91 -47.76,106.66 -106.67,106.66c-58.91,0 -106.67,-47.75 -106.67,-106.66z" fill="currentColor"/>
		</g>
		<g color="#039be5" class="teamapps-color-1">
			<path d="M533.33,234.67c0,-58.91 47.76,-106.67 106.67,-106.67c58.91,0 106.67,47.76 106.67,106.67c0,58.91 -47.76,106.66 -106.67,106.66c-58.91,0 -106.67,-47.75 -106.67,-106.66z" fill="currentColor"/>
		</g>
		<g color="#039be5" class="teamapps-color-1">
			<path d="M725.33,405.33c0,-58.91 47.76,-106.66 106.67,-106.66c58.91,0 106.67,47.75 106.67,106.66c0,58.91 -47.76,106.67 -106.67,106.67c-58.91,0 -106.67,-47.76 -106.67,-106.67z" fill="currentColor"/>
		</g>
		<g color="#039be5" class="teamapps-color-1">
			<path d="M851.2,838.83c-12.37,43.09 -43.52,86.61 -99.41,98.98c-31.15,5.97 -130.57,-18.77 -236.38,-18.77h-7.68c-105.81,0 -205.22,25.17 -236.37,18.77c-55.89,-12.37 -87.04,-55.46 -99.41,-98.98c-12.8,-86.61 55.89,-148.49 111.78,-204.38c37.55,-43.52 68.7,-80.64 105.82,-124.16c20.05,-23.04 44.79,-46.08 74.66,-56.32c4.69,-1.71 9.39,-2.99 14.08,-3.84c11.09,-2.13 22.62,-2.13 33.71,-2.13c11.09,0 22.61,0 33.28,1.71c4.69,0.85 9.39,2.13 14.08,3.84c29.87,10.24 55.04,33.28 74.67,56.32c37.55,43.52 68.69,80.64 105.81,124.16c55.89,55.89 124.59,117.76 111.36,204.8z" fill="currentColor"/>
		</g>
	</g>
</svg>