<svg version="1.1" xmlns="http://www.w3.org/2000/svg" xmlns:xlink="http://www.w3.org/1999/xlink" viewBox="0,0,1024,1024">
	<!-- Color names: teamapps-color-1 -->
	<desc>phonelink_lock icon - Licensed under Apache License v2.0 (http://www.apache.org/licenses/LICENSE-2.0) - Created with Iconfu.com - Derivative work of Material icons (Copyright Google Inc.)</desc>
	<g fill="none" fill-rule="nonzero" style="mix-blend-mode: normal">
		<g color="#039be5" class="teamapps-color-1">
			<path d="M896,128v768c0,46.93 -38.4,85.33 -85.33,85.33h-426.67c-46.93,0 -85.33,-38.4 -85.33,-85.33v-128h85.33v85.33h426.67v-682.66h-426.67v85.33h-85.33v-128c0,-46.93 38.4,-85.33 85.33,-85.33h426.67c46.93,0 85.33,38.4 85.33,85.33zM512,524.8v149.33c0,25.6 -25.6,51.2 -55.47,51.2h-234.66c-25.6,0 -51.2,-25.59 -51.2,-55.46v-149.34c0,-25.6 25.6,-51.2 51.2,-51.2v-64c0,-59.73 59.73,-106.66 119.46,-106.66c59.73,0 119.47,46.93 119.47,106.66v64c25.6,0 51.2,25.6 51.2,55.47zM405.33,405.33c0,-34.13 -29.87,-55.46 -64,-55.46c-34.13,0 -64,21.33 -64,55.46v64h128z" fill="currentColor"/>
		</g>
	</g>
</svg>