<svg version="1.1" xmlns="http://www.w3.org/2000/svg" xmlns:xlink="http://www.w3.org/1999/xlink" viewBox="0,0,1024,1024">
	<!-- Color names: teamapps-color-1 -->
	<desc>pool icon - Licensed under Apache License v2.0 (http://www.apache.org/licenses/LICENSE-2.0) - Created with Iconfu.com - Derivative work of Material icons (Copyright Google Inc.)</desc>
	<g fill="none" fill-rule="nonzero" style="mix-blend-mode: normal">
		<g color="#039be5" class="teamapps-color-1">
			<path d="M320.85,496.64c-8.96,-5.12 -19.62,-11.52 -32.85,-16.64l138.67,-138.67l-42.67,-42.66c-47.36,-47.36 -93.02,-64.43 -170.67,-64v-106.67c106.67,-0.43 167.69,19.2 233.82,85.33l273.92,273.5c-6.4,3.41 -12.38,6.82 -17.5,9.81c-15.79,9.81 -25.59,15.36 -49.06,15.36c-23.47,0 -33.28,-5.97 -49.07,-15.36c-19.2,-11.52 -45.65,-27.31 -93.01,-27.31c-47.36,0 -73.81,15.79 -93.44,27.31c-15.79,9.81 -25.18,15.36 -49.07,15.36c-23.89,0 -33.28,-5.55 -49.07,-15.36zM938.67,896c-47.36,0 -73.82,-15.79 -93.02,-27.31c-15.79,-9.39 -25.59,-15.36 -49.06,-15.36c-23.89,0 -33.28,5.55 -49.07,15.36c-19.63,11.52 -45.65,27.31 -93.01,27.31c-47.36,0 -73.82,-15.79 -93.02,-27.31c-15.79,-9.39 -25.59,-15.36 -49.06,-15.36c-23.89,0 -33.28,5.55 -49.07,15.36c-19.63,11.52 -46.08,27.31 -93.44,27.31c-47.36,0 -73.81,-15.79 -93.01,-27.31c-15.79,-9.81 -25.6,-15.36 -49.07,-15.36c-23.47,0 -33.28,5.55 -49.07,15.36c-19.63,11.52 -46.08,27.31 -93.44,27.31v-85.33c23.89,0 33.28,-5.55 49.07,-15.36c19.63,-11.52 46.08,-27.31 93.44,-27.31c47.36,0 73.81,15.79 93.01,27.31c15.79,9.81 25.18,15.36 49.07,15.36c23.89,0 33.28,-5.55 49.07,-15.36c19.63,-11.52 46.08,-27.31 93.44,-27.31c47.36,0 73.81,15.79 93.01,27.31c15.79,9.39 25.6,15.36 49.07,15.36c23.47,0 33.27,-5.55 49.06,-15.36c19.2,-11.52 45.66,-27.31 93.02,-27.31c47.36,0 73.81,15.79 93.01,27.31c15.79,9.81 25.18,15.36 49.07,15.36zM845.65,676.69c-15.79,-9.39 -25.59,-15.36 -49.06,-15.36c-23.89,0 -33.28,5.55 -49.07,15.36c-19.2,11.52 -45.65,27.31 -93.01,27.31c-47.36,0 -73.82,-15.79 -93.02,-27.31c-15.79,-9.39 -25.59,-15.36 -49.06,-15.36c-23.89,0 -33.28,5.55 -49.07,15.36c-19.2,11.52 -45.65,27.31 -93.01,27.31c-47.36,0 -73.82,-15.79 -93.02,-27.31c-15.79,-9.39 -25.59,-15.36 -49.06,-15.36c-23.47,0 -33.28,5.55 -49.07,15.36c-20.05,11.52 -46.51,27.31 -93.87,27.31v-85.33c23.89,0 33.28,-5.55 49.07,-15.36c19.2,-11.52 45.65,-27.31 93.01,-27.31c47.36,0 73.82,15.79 93.02,27.31c15.79,9.39 25.59,15.36 49.06,15.36c23.89,0 33.28,-5.55 49.07,-15.36c19.2,-11.52 45.65,-27.31 93.01,-27.31c47.36,0 73.82,15.79 93.02,27.31c15.79,9.39 25.59,15.36 49.06,15.36c23.47,0 33.28,-5.55 49.07,-15.36c19.2,-11.52 45.65,-27.31 93.01,-27.31c47.36,0 73.82,15.79 93.02,27.31c15.79,9.39 25.59,15.36 49.06,15.36v85.33c-46.82,-0.19 -73.08,-15.86 -92.16,-27.31z" fill="currentColor"/>
		</g>
		<g color="#039be5" class="teamapps-color-1">
			<path d="M597.33,234.67c0,-58.91 47.76,-106.67 106.67,-106.67c58.91,0 106.67,47.76 106.67,106.67c0,58.91 -47.76,106.66 -106.67,106.66c-58.91,0 -106.67,-47.75 -106.67,-106.66z" fill="currentColor"/>
		</g>
	</g>
</svg>