<svg version="1.1" xmlns="http://www.w3.org/2000/svg" xmlns:xlink="http://www.w3.org/1999/xlink" viewBox="0,0,1024,1024">
	<!-- Color names: teamapps-color-1 -->
	<desc>replay_5 icon - Licensed under Apache License v2.0 (http://www.apache.org/licenses/LICENSE-2.0) - Created with Iconfu.com - Derivative work of Material icons (Copyright Google Inc.)</desc>
	<g fill="none" fill-rule="nonzero" style="mix-blend-mode: normal">
		<g color="#039be5" class="teamapps-color-1">
			<path d="M853.33,554.67c0,187.73 -153.6,341.33 -341.33,341.33c-187.73,0 -341.33,-153.6 -341.33,-341.33h85.33c0,140.8 115.2,256 256,256c140.8,0 256,-115.2 256,-256c0,-140.8 -115.2,-256 -256,-256v170.66l-213.33,-213.33l213.33,-213.33v170.66c187.73,0 341.33,153.61 341.33,341.34zM456.53,593.07l8.54,-93.87h102.4v29.87h-72.54l-4.26,38.4c0,0 4.26,0 4.26,-4.27c0,-4.27 4.27,0 4.27,-4.27c0,-4.27 4.26,0 8.53,0h8.54c8.53,0 17.06,0 21.33,4.27c4.27,4.27 12.8,8.53 17.07,12.8c4.27,4.27 8.53,12.8 12.8,21.33c4.27,8.53 4.26,17.07 4.26,25.6c0,8.53 0.01,17.07 -4.26,21.34c-4.27,4.27 -4.27,12.8 -12.8,21.33c-8.53,8.53 -12.8,8.53 -17.07,12.8c-4.27,4.27 -17.07,4.27 -25.6,4.27c-8.53,0 -17.06,0 -21.33,-4.27c-4.27,-4.27 -12.81,-4.26 -21.34,-8.53c-8.53,-4.27 -8.53,-8.54 -12.8,-17.07c-4.27,-8.53 -4.26,-12.8 -4.26,-21.33h34.13c0,8.53 4.26,12.79 8.53,17.06c4.27,4.27 8.54,4.27 17.07,4.27c4.27,0 8.53,0 12.8,-4.27l8.53,-8.53c0,0 4.27,-8.53 4.27,-12.8v-25.6l-4.27,-8.53l-8.53,-8.54c0,0 -8.53,-4.26 -12.8,-4.26h-8.53c0,0 -4.27,-0.01 -8.54,4.26c-4.27,4.27 -4.26,0 -4.26,4.27c0,4.27 -4.27,4.27 -4.27,4.27z" fill="currentColor"/>
		</g>
	</g>
</svg>