<svg version="1.1" xmlns="http://www.w3.org/2000/svg" xmlns:xlink="http://www.w3.org/1999/xlink" viewBox="0,0,1024,1024">
	<!-- Color names: teamapps-color-1 -->
	<desc>settings_input_antenna icon - Licensed under Apache License v2.0 (http://www.apache.org/licenses/LICENSE-2.0) - Created with Iconfu.com - Derivative work of Material icons (Copyright Google Inc.)</desc>
	<g fill="none" fill-rule="nonzero" style="mix-blend-mode: normal">
		<g color="#039be5" class="teamapps-color-1">
			<path d="M981.33,512h-85.33c0,-212.05 -171.95,-384 -384,-384c-212.05,0 -384,171.95 -384,384h-85.33c0,-258.99 210.34,-469.33 469.33,-469.33c258.99,0 469.33,210.34 469.33,469.33zM554.67,750.51l145.49,145.49l-60.16,60.16l-128,-128l-128,128l-60.16,-60.16l145.49,-145.49v-140.8c-37.55,-16.64 -64,-54.19 -64,-97.71c0,-58.88 47.79,-106.67 106.67,-106.67c58.88,0 106.67,47.79 106.67,106.67c0,43.95 -26.45,81.07 -64,97.71zM810.67,512h-85.34c0,-117.76 -95.57,-213.33 -213.33,-213.33c-117.76,0 -213.33,95.57 -213.33,213.33h-85.34c0,-165.12 133.55,-298.67 298.67,-298.67c165.12,0 298.67,133.55 298.67,298.67z" fill="currentColor"/>
		</g>
	</g>
</svg>