<svg version="1.1" xmlns="http://www.w3.org/2000/svg" xmlns:xlink="http://www.w3.org/1999/xlink" viewBox="0,0,1024,1024">
	<!-- Color names: teamapps-color-1 -->
	<desc>timeline icon - Licensed under Apache License v2.0 (http://www.apache.org/licenses/LICENSE-2.0) - Created with Iconfu.com - Derivative work of Material icons (Copyright Google Inc.)</desc>
	<g fill="none" fill-rule="nonzero" style="mix-blend-mode: normal">
		<g color="#039be5" class="teamapps-color-1">
			<path d="M981.33,341.33c0,46.93 -38.4,85.34 -85.33,85.34c-7.68,0 -14.93,-0.86 -21.76,-2.99l-151.89,151.47c2.13,6.83 2.98,14.5 2.98,22.18c0,46.93 -38.4,85.34 -85.33,85.34c-46.93,0 -85.33,-38.41 -85.33,-85.34c0,-7.68 0.85,-15.35 2.98,-22.18l-108.8,-108.8c-6.83,2.13 -14.5,2.98 -22.18,2.98c-7.68,0 -15.36,-0.85 -22.19,-2.98l-194.13,194.56c2.13,6.83 2.98,14.08 2.98,21.76c0,46.93 -38.4,85.33 -85.33,85.33c-46.93,0 -85.33,-38.4 -85.33,-85.33c0,-46.93 38.4,-85.34 85.33,-85.34c7.68,0 14.93,0.86 21.76,2.99l194.56,-194.13c-2.13,-6.83 -2.99,-14.51 -2.99,-22.19c0,-46.93 38.41,-85.33 85.34,-85.33c46.93,0 85.33,38.4 85.33,85.33c0,7.68 -0.86,15.36 -2.99,22.19l108.8,108.8c6.83,-2.13 14.51,-2.99 22.19,-2.99c7.68,0 15.36,0.86 22.19,2.99l151.46,-151.9c-2.13,-6.83 -2.98,-14.08 -2.98,-21.76c0,-46.93 38.4,-85.33 85.33,-85.33c46.93,0 85.33,38.4 85.33,85.33z" fill="currentColor"/>
		</g>
	</g>
</svg>