<svg version="1.1" xmlns="http://www.w3.org/2000/svg" xmlns:xlink="http://www.w3.org/1999/xlink" viewBox="0,0,1024,1024">
	<!-- Color names: teamapps-color-1 -->
	<desc>visibility_off icon - Licensed under Apache License v2.0 (http://www.apache.org/licenses/LICENSE-2.0) - Created with Iconfu.com - Derivative work of Material icons (Copyright Google Inc.)</desc>
	<g fill="none" fill-rule="nonzero" style="mix-blend-mode: normal">
		<g color="#039be5" class="teamapps-color-1">
			<path d="M139.52,128l756.48,756.48l-54.19,54.19l-125.01,-124.59l-17.92,-17.92c-57.6,23.04 -120.75,35.84 -186.88,35.84c-213.33,0 -395.52,-132.69 -469.33,-320c33.28,-84.48 88.74,-157.87 159.57,-212.91l-19.63,-19.62l-97.28,-97.28zM433.92,314.03l-92.16,-92.16c52.91,-19.2 110.08,-29.87 169.81,-29.87c213.33,0 395.53,132.69 469.34,320c-31.15,79.36 -81.92,148.91 -146.35,202.67l-124.59,-124.59c9.81,-24.32 15.36,-50.35 15.36,-78.08c0,-117.76 -95.57,-213.33 -213.33,-213.33c-27.73,0 -53.76,5.55 -78.08,15.36zM298.67,512c0,117.76 95.57,213.33 213.33,213.33c33.71,0 65.28,-8.53 93.87,-22.61l-66.14,-66.13c-8.96,2.13 -18.34,3.41 -27.73,3.41c-70.83,0 -128,-57.17 -128,-128c0,-9.39 1.28,-18.77 3.41,-27.73l-66.13,-66.14c-14.08,28.59 -22.61,60.16 -22.61,93.87zM512.43,384.43c70.83,0 128,57.17 128,128l-0.86,6.82l-134.4,-134.4z" fill="currentColor"/>
		</g>
	</g>
</svg>