<svg version="1.1" xmlns="http://www.w3.org/2000/svg" xmlns:xlink="http://www.w3.org/1999/xlink" viewBox="0,0,1024,1024">
	<!-- Color names: teamapps-color-1 -->
	<desc>watch icon - Licensed under Apache License v2.0 (http://www.apache.org/licenses/LICENSE-2.0) - Created with Iconfu.com - Derivative work of Material icons (Copyright Google Inc.)</desc>
	<g fill="none" fill-rule="nonzero" style="mix-blend-mode: normal">
		<g color="#039be5" class="teamapps-color-1">
			<path d="M723.63,779.52l-40.96,244.48h-341.34l-40.53,-244.48c-79.36,-62.29 -130.13,-158.72 -130.13,-267.52c0,-108.8 50.77,-205.23 130.13,-267.52l40.53,-244.48h341.34l40.96,244.48c78.93,62.29 129.7,159.15 129.7,267.52c0,108.37 -50.77,205.23 -129.7,267.52zM512,768c141.23,0 256,-114.77 256,-256c0,-141.23 -114.77,-256 -256,-256c-141.23,0 -256,114.77 -256,256c0,141.23 114.77,256 256,256z" fill="currentColor"/>
		</g>
	</g>
</svg>