<svg version="1.1" xmlns="http://www.w3.org/2000/svg" xmlns:xlink="http://www.w3.org/1999/xlink" viewBox="0,0,1024,1024">
	<!-- Color names: teamapps-color-1 -->
	<desc>android icon - Licensed under Apache License v2.0 (http://www.apache.org/licenses/LICENSE-2.0) - Created with Iconfu.com - Derivative work of Material icons (Copyright Google Inc.)</desc>
	<g fill="none" fill-rule="nonzero" style="mix-blend-mode: normal">
		<g color="#039be5" class="teamapps-color-1">
			<path d="M256,341.33h512v426.67c0,23.47 -19.2,42.67 -42.67,42.67h-42.66v149.33c0,35.41 -28.59,64 -64,64c-35.41,0 -64,-28.59 -64,-64v-149.33h-85.34v149.33c0,35.41 -28.59,64 -64,64c-35.41,0 -64,-28.59 -64,-64v-149.33h-42.66c-23.47,0 -42.67,-19.2 -42.67,-42.67zM768,298.67h-512c0,-84.91 41.38,-159.57 104.53,-206.08l-55.89,-55.9c-8.53,-8.53 -8.53,-21.76 0,-30.29c8.53,-8.53 21.76,-8.53 30.29,0l63.58,63.15c34.13,-17.07 72.53,-26.88 113.49,-26.88c40.53,0 78.93,9.81 112.64,26.88l63.15,-63.15c8.53,-8.53 21.76,-8.53 30.29,0c8.53,8.53 8.53,21.76 0,30.29l-55.47,55.47c64,46.51 105.39,121.6 105.39,206.51zM938.67,405.33v298.67c0,35.41 -28.59,64 -64,64c-35.41,0 -64,-28.59 -64,-64v-298.67c0,-35.41 28.59,-64 64,-64c35.41,0 64,28.59 64,64zM213.33,405.33v298.67c0,35.41 -28.59,64 -64,64c-35.41,0 -64,-28.59 -64,-64v-298.67c0,-35.41 28.59,-64 64,-64c35.41,0 64,28.59 64,64zM640,170.67h-42.67v42.66h42.67zM426.67,170.67h-42.67v42.66h42.67z" fill="currentColor"/>
		</g>
	</g>
</svg>