<svg version="1.1" xmlns="http://www.w3.org/2000/svg" xmlns:xlink="http://www.w3.org/1999/xlink" viewBox="0,0,1024,1024">
	<!-- Color names: teamapps-color-1 -->
	<desc>battery_unknown icon - Licensed under Apache License v2.0 (http://www.apache.org/licenses/LICENSE-2.0) - Created with Iconfu.com - Derivative work of Material icons (Copyright Google Inc.)</desc>
	<g fill="none" fill-rule="nonzero" style="mix-blend-mode: normal">
		<g color="#039be5" class="teamapps-color-1">
			<path d="M725.33,227.41v654.51c0,31.15 -25.6,56.75 -57.17,56.75h-312.75c-31.15,0 -56.74,-25.61 -56.74,-57.18v-654.08c0,-31.15 25.59,-56.74 56.74,-56.74h71.26v-85.34h170.66v85.34h71.26c31.15,0 56.74,25.59 56.74,56.74zM640,469.33c0,-70.83 -57.17,-128 -128,-128c-70.83,0 -128,57.17 -128,128h64c0,-35.41 28.59,-64 64,-64c35.41,0 64,28.59 64,64c0,17.49 -7.25,33.71 -18.77,45.23l-39.68,40.11c-20.05,20.48 -39.68,49.92 -39.68,85.33h68.26c0,-19.2 14.94,-47.79 35.42,-68.27c12.37,-12.37 28.58,-30.29 28.58,-30.29c18.35,-18.35 29.87,-43.95 29.87,-72.11zM552.53,684.8h-81.06v81.07h81.06z" fill="currentColor"/>
		</g>
	</g>
</svg>