<svg version="1.1" xmlns="http://www.w3.org/2000/svg" xmlns:xlink="http://www.w3.org/1999/xlink" viewBox="0,0,1024,1024">
	<!-- Color names: teamapps-color-1 -->
	<desc>blur_off icon - Licensed under Apache License v2.0 (http://www.apache.org/licenses/LICENSE-2.0) - Created with Iconfu.com - Derivative work of Material icons (Copyright Google Inc.)</desc>
	<g fill="none" fill-rule="nonzero" style="mix-blend-mode: normal">
		<g color="#039be5" class="teamapps-color-1">
			<path d="M160.85,170.67l692.48,692.48l-54.61,54.18l-161.28,-161.28c1.28,3.84 2.56,7.68 2.56,11.95c0,23.47 -19.2,42.67 -42.67,42.67c-23.47,0 -42.66,-19.2 -42.66,-42.67c0,-23.47 19.19,-42.67 42.66,-42.67c4.27,0 8.11,1.28 11.95,2.56l-119.89,-119.89c-4.69,30.29 -31.15,53.33 -62.72,53.33c-35.41,0 -64,-28.59 -64,-64c0,-31.57 23.04,-58.03 53.33,-62.72l-119.89,-119.89c1.28,3.84 2.56,7.68 2.56,11.95c0,23.47 -19.2,42.66 -42.67,42.66c-23.47,0 -42.67,-19.19 -42.67,-42.66c0,-23.47 19.2,-42.67 42.67,-42.67l11.95,2.13l-161.28,-161.28zM534.19,435.2l-0.86,-8.53c0,-35.41 28.59,-64 64,-64c35.41,0 64,28.59 64,64c0,35.41 -28.59,64 -64,64l-8.53,-0.86c-28.59,-3.84 -50.77,-26.02 -54.61,-54.61zM725.33,597.33c0,-23.47 19.2,-42.66 42.67,-42.66c23.47,0 42.67,19.19 42.67,42.66c0,23.47 -19.2,42.67 -42.67,42.67c-23.47,0 -42.67,-19.2 -42.67,-42.67zM554.67,256c0,-23.47 19.19,-42.67 42.66,-42.67c23.47,0 42.67,19.2 42.67,42.67c0,23.47 -19.2,42.67 -42.67,42.67c-23.47,0 -42.66,-19.2 -42.66,-42.67zM725.33,426.67c0,-23.47 19.2,-42.67 42.67,-42.67c23.47,0 42.67,19.2 42.67,42.67c0,23.47 -19.2,42.66 -42.67,42.66c-23.47,0 -42.67,-19.19 -42.67,-42.66zM725.33,256c0,-23.47 19.2,-42.67 42.67,-42.67c23.47,0 42.67,19.2 42.67,42.67c0,23.47 -19.2,42.67 -42.67,42.67c-23.47,0 -42.67,-19.2 -42.67,-42.67zM469.33,768c0,23.47 -19.19,42.67 -42.66,42.67c-23.47,0 -42.67,-19.2 -42.67,-42.67c0,-23.47 19.2,-42.67 42.67,-42.67c23.47,0 42.66,19.2 42.66,42.67zM298.67,597.33c0,23.47 -19.2,42.67 -42.67,42.67c-23.47,0 -42.67,-19.2 -42.67,-42.67c0,-23.47 19.2,-42.66 42.67,-42.66c23.47,0 42.67,19.19 42.67,42.66zM298.67,768c0,23.47 -19.2,42.67 -42.67,42.67c-23.47,0 -42.67,-19.2 -42.67,-42.67c0,-23.47 19.2,-42.67 42.67,-42.67c23.47,0 42.67,19.2 42.67,42.67zM384,256c0,-23.47 19.2,-42.67 42.67,-42.67c23.47,0 42.66,19.2 42.66,42.67c0,23.47 -19.19,42.67 -42.66,42.67c-23.47,0 -42.67,-19.2 -42.67,-42.67zM405.33,128c0,-11.95 9.39,-21.33 21.34,-21.33c11.95,0 21.33,9.38 21.33,21.33c0,11.95 -9.38,21.33 -21.33,21.33c-11.95,0 -21.34,-9.38 -21.34,-21.33zM149.33,426.67c0,11.95 -9.38,21.33 -21.33,21.33c-11.95,0 -21.33,-9.38 -21.33,-21.33c0,-11.95 9.38,-21.34 21.33,-21.34c11.95,0 21.33,9.39 21.33,21.34zM874.67,426.67c0,-11.95 9.38,-21.34 21.33,-21.34c11.95,0 21.33,9.39 21.33,21.34c0,11.95 -9.38,21.33 -21.33,21.33c-11.95,0 -21.33,-9.38 -21.33,-21.33zM448,896c0,11.95 -9.38,21.33 -21.33,21.33c-11.95,0 -21.34,-9.38 -21.34,-21.33c0,-11.95 9.39,-21.33 21.34,-21.33c11.95,0 21.33,9.38 21.33,21.33zM576,128c0,-11.95 9.38,-21.33 21.33,-21.33c11.95,0 21.34,9.38 21.34,21.33c0,11.95 -9.39,21.33 -21.34,21.33c-11.95,0 -21.33,-9.38 -21.33,-21.33zM149.33,597.33c0,11.95 -9.38,21.34 -21.33,21.34c-11.95,0 -21.33,-9.39 -21.33,-21.34c0,-11.95 9.38,-21.33 21.33,-21.33c11.95,0 21.33,9.38 21.33,21.33zM618.67,896c0,11.95 -9.39,21.33 -21.34,21.33c-11.95,0 -21.33,-9.38 -21.33,-21.33c0,-11.95 9.38,-21.33 21.33,-21.33c11.95,0 21.34,9.38 21.34,21.33zM917.33,597.33c0,11.95 -9.38,21.34 -21.33,21.34c-11.95,0 -21.33,-9.39 -21.33,-21.34c0,-11.95 9.38,-21.33 21.33,-21.33c11.95,0 21.33,9.38 21.33,21.33z" fill="currentColor"/>
		</g>
	</g>
</svg>