<svg version="1.1" xmlns="http://www.w3.org/2000/svg" xmlns:xlink="http://www.w3.org/1999/xlink" viewBox="0,0,1024,1024">
	<!-- Color names: teamapps-color-1 -->
	<desc>cake icon - Licensed under Apache License v2.0 (http://www.apache.org/licenses/LICENSE-2.0) - Created with Iconfu.com - Derivative work of Material icons (Copyright Google Inc.)</desc>
	<g fill="none" fill-rule="nonzero" style="mix-blend-mode: normal">
		<g color="#039be5" class="teamapps-color-1">
			<path d="M895.57,512v65.71c0,46.08 -37.54,83.62 -83.62,83.62c-22.19,0 -43.09,-8.53 -58.88,-24.32l-90.88,-90.88l-91.31,90.88c-31.57,31.57 -86.62,31.57 -118.19,0l-90.88,-90.88l-91.3,90.88c-15.36,15.79 -36.69,24.32 -58.88,24.32c-46.08,0 -83.63,-37.54 -83.63,-83.62v-65.71c0,-70.83 57.17,-128 128,-128h213.33v-85.33h85.34v85.33h213.33c70.83,0 128,57.17 127.57,128zM812.37,725.33c31.15,0 59.74,-9.81 83.63,-26.02v196.69c0,23.47 -19.2,42.67 -42.67,42.67h-682.66c-23.47,0 -42.67,-19.2 -42.67,-42.67v-196.69c23.89,16.21 52.48,26.02 83.63,26.02c39.25,0 76.37,-15.36 104.1,-43.09l46.51,-45.65l45.65,45.65c55.89,55.89 153.17,55.47 208.64,0l46.08,-45.65l45.66,45.65c27.73,27.73 64.85,43.09 104.1,43.09zM426.67,170.67c0,-16.21 4.26,-31.15 12.37,-43.95l72.96,-126.72l72.96,126.72c8.11,12.8 12.37,27.74 12.37,43.95c0,46.93 -37.97,85.33 -85.33,85.33c-46.93,0 -85.33,-38.4 -85.33,-85.33z" fill="currentColor"/>
		</g>
	</g>
</svg>