<svg version="1.1" xmlns="http://www.w3.org/2000/svg" xmlns:xlink="http://www.w3.org/1999/xlink" viewBox="0,0,1024,1024">
	<!-- Color names: teamapps-color-1 -->
	<desc>child_care icon - Licensed under Apache License v2.0 (http://www.apache.org/licenses/LICENSE-2.0) - Created with Iconfu.com - Derivative work of Material icons (Copyright Google Inc.)</desc>
	<g fill="none" fill-rule="nonzero" style="mix-blend-mode: normal">
		<g color="#039be5" class="teamapps-color-1">
			<path d="M565.33,448c0,-29.46 23.88,-53.33 53.34,-53.33c29.46,0 53.33,23.87 53.33,53.33c0,29.46 -23.87,53.33 -53.33,53.33c-29.46,0 -53.34,-23.87 -53.34,-53.33z" fill="currentColor"/>
		</g>
		<g color="#039be5" class="teamapps-color-1">
			<path d="M352,448c0,-29.46 23.87,-53.33 53.33,-53.33c29.46,0 53.34,23.87 53.34,53.33c0,29.46 -23.88,53.33 -53.34,53.33c-29.46,0 -53.33,-23.87 -53.33,-53.33z" fill="currentColor"/>
		</g>
		<g color="#039be5" class="teamapps-color-1">
			<path d="M859.31,675.41c-22.19,46.93 -54.19,89.18 -92.59,123.31c-67.84,60.59 -157.01,97.28 -254.72,97.28c-97.71,0 -186.88,-36.69 -254.29,-97.28c-38.4,-34.13 -70.4,-75.95 -92.59,-123.31c-61.87,-18.35 -109.22,-70.82 -119.89,-135.25c-1.71,-8.96 -2.56,-18.35 -2.56,-28.16c0,-9.81 0.85,-19.2 2.56,-28.16c10.67,-64.85 58.02,-116.9 119.89,-135.25c22.19,-47.36 54.19,-89.6 93.44,-124.16c67.41,-60.16 156.16,-96.43 253.44,-96.43c97.28,0 186.03,36.27 253.44,96.43c38.83,34.56 70.83,76.37 93.44,124.16c61.87,18.35 109.22,70.82 119.89,135.25c1.71,8.96 2.56,18.35 2.56,28.16c0,9.81 -0.85,19.2 -2.56,28.16c-10.67,64.85 -58.02,116.9 -119.46,135.25zM896,512c0,-46.93 -38.4,-85.33 -85.33,-85.33c-4.27,0 -8.11,0.85 -12.38,1.28c-8.53,-28.59 -20.9,-55.04 -36.69,-79.36c-53.33,-81.49 -145.07,-135.26 -249.6,-135.26c-104.53,0 -196.27,53.77 -249.6,135.26c-15.79,24.32 -28.16,50.77 -36.69,79.36c-4.27,-0.43 -8.11,-1.28 -12.38,-1.28c-46.93,0 -85.33,38.4 -85.33,85.33c0,46.93 38.4,85.33 85.33,85.33c4.27,0 8.11,-0.85 12.38,-1.28c8.53,28.59 20.9,55.04 36.69,79.36c53.33,81.49 145.07,135.26 249.6,135.26c104.53,0 196.27,-53.77 249.6,-135.26c15.79,-24.32 28.16,-50.77 36.69,-79.36c4.27,0.43 8.11,1.28 12.38,1.28c46.93,0 85.33,-38.4 85.33,-85.33zM704,597.33c-32.43,75.52 -106.24,128 -192,128c-85.76,0 -159.57,-52.48 -192,-128z" fill="currentColor"/>
		</g>
	</g>
</svg>