<svg version="1.1" xmlns="http://www.w3.org/2000/svg" xmlns:xlink="http://www.w3.org/1999/xlink" viewBox="0,0,1024,1024">
	<!-- Color names: teamapps-color-1 -->
	<desc>developer_board icon - Licensed under Apache License v2.0 (http://www.apache.org/licenses/LICENSE-2.0) - Created with Iconfu.com - Derivative work of Material icons (Copyright Google Inc.)</desc>
	<g fill="none" fill-rule="nonzero" style="mix-blend-mode: normal">
		<g color="#039be5" class="teamapps-color-1">
			<path d="M853.33,384v85.33h85.34v85.34h-85.34v85.33h85.34v85.33h-85.34v85.34c0,46.93 -38.4,85.33 -85.33,85.33h-597.33c-46.93,0 -85.34,-38.4 -85.34,-85.33v-597.34c0,-46.93 38.41,-85.33 85.34,-85.33h597.33c46.93,0 85.33,38.4 85.33,85.33v85.34h85.34v85.33zM768,213.33h-597.33v597.34h597.33zM256,298.67h213.33v213.33h-213.33zM512,469.33h170.67v256h-170.67zM256,554.67h213.33v170.66h-213.33zM512,298.67h170.67v128h-170.67z" fill="currentColor"/>
		</g>
	</g>
</svg>