<svg version="1.1" xmlns="http://www.w3.org/2000/svg" xmlns:xlink="http://www.w3.org/1999/xlink" viewBox="0,0,1024,1024">
	<!-- Color names: teamapps-color-1 -->
	<desc>do_not_disturb_off icon - Licensed under Apache License v2.0 (http://www.apache.org/licenses/LICENSE-2.0) - Created with Iconfu.com - Derivative work of Material icons (Copyright Google Inc.)</desc>
	<g fill="none" fill-rule="nonzero" style="mix-blend-mode: normal">
		<g color="#039be5" class="teamapps-color-1">
			<path d="M927.15,927.15l-54.19,54.18l-118.61,-118.61c-68.69,47.79 -152.32,75.95 -242.35,75.95c-235.52,0 -426.67,-191.15 -426.67,-426.67c0,-90.03 28.16,-173.66 75.95,-242.35l-118.61,-118.61l54.18,-54.19zM577.71,469.33l-308.06,-308.05c68.69,-47.79 152.32,-75.95 242.35,-75.95c235.52,0 426.67,191.15 426.67,426.67c0,90.03 -28.16,173.66 -75.95,242.35l-199.68,-199.68h62.29v-85.34zM446.29,554.67l-85.33,-85.34h-62.29v85.34z" fill="currentColor"/>
		</g>
	</g>
</svg>