<svg version="1.1" xmlns="http://www.w3.org/2000/svg" xmlns:xlink="http://www.w3.org/1999/xlink" viewBox="0,0,1024,1024">
	<!-- Color names: teamapps-color-1 -->
	<desc>leak_remove icon - Licensed under Apache License v2.0 (http://www.apache.org/licenses/LICENSE-2.0) - Created with Iconfu.com - Derivative work of Material icons (Copyright Google Inc.)</desc>
	<g fill="none" fill-rule="nonzero" style="mix-blend-mode: normal">
		<g color="#039be5" class="teamapps-color-1">
			<path d="M182.19,128l713.81,713.81l-54.19,54.19l-121.17,-121.17c-23.89,34.56 -37.97,75.94 -37.97,121.17h-85.34c0,-68.69 23.47,-131.84 62.3,-181.76l-61.02,-61.01c-54.19,66.13 -86.61,150.61 -86.61,242.77h-85.33c0,-115.63 42.24,-221.44 111.36,-303.79l-106.67,-106.66c-81.92,69.55 -187.73,111.78 -303.36,111.78v-85.33c92.16,0 176.64,-32.42 243.2,-86.61l-61.01,-61.02c-50.35,38.83 -113.5,62.3 -182.19,62.3v-85.34c45.23,0 86.61,-14.08 121.17,-37.97l-121.17,-121.17zM896,426.67v85.33c-64,0 -124.16,15.79 -177.49,43.52l-62.3,-62.29c69.97,-41.81 151.9,-66.56 239.79,-66.56zM530.77,367.79l-62.29,-62.3c27.73,-53.33 43.52,-113.49 43.52,-177.49h85.33c0,87.89 -24.75,169.82 -66.56,239.79zM782.51,619.52c34.99,-14.08 73.38,-22.19 113.49,-22.19v85.34c-15.79,0 -30.72,1.71 -45.23,5.12zM404.05,241.07l-67.84,-67.84c3.41,-14.51 5.12,-29.44 5.12,-45.23h85.34c0,40.11 -8.11,78.51 -22.62,113.07z" fill="currentColor"/>
		</g>
	</g>
</svg>