<svg version="1.1" xmlns="http://www.w3.org/2000/svg" xmlns:xlink="http://www.w3.org/1999/xlink" viewBox="0,0,1024,1024">
	<!-- Color names: teamapps-color-1 -->
	<desc>library_music icon - Licensed under Apache License v2.0 (http://www.apache.org/licenses/LICENSE-2.0) - Created with Iconfu.com - Derivative work of Material icons (Copyright Google Inc.)</desc>
	<g fill="none" fill-rule="nonzero" style="mix-blend-mode: normal">
		<g color="#039be5" class="teamapps-color-1">
			<path d="M938.67,170.67v512c0,46.93 -38.41,85.33 -85.34,85.33h-512c-46.93,0 -85.33,-38.4 -85.33,-85.33v-512c0,-46.93 38.4,-85.34 85.33,-85.34h512c46.93,0 85.34,38.41 85.34,85.34zM170.67,853.33h597.33v85.34h-597.33c-46.93,0 -85.34,-38.41 -85.34,-85.34v-597.33h85.34zM768,213.33h-170.67v235.1c-17.92,-13.65 -39.68,-21.76 -64,-21.76c-58.88,0 -106.66,47.78 -106.66,106.66c0,58.88 47.78,106.67 106.66,106.67c58.88,0 106.67,-47.79 106.67,-106.67v-234.66h128z" fill="currentColor"/>
		</g>
	</g>
</svg>