<svg version="1.1" xmlns="http://www.w3.org/2000/svg" xmlns:xlink="http://www.w3.org/1999/xlink" viewBox="0,0,1024,1024">
	<!-- Color names: teamapps-color-1 -->
	<desc>local_mall icon - Licensed under Apache License v2.0 (http://www.apache.org/licenses/LICENSE-2.0) - Created with Iconfu.com - Derivative work of Material icons (Copyright Google Inc.)</desc>
	<g fill="none" fill-rule="nonzero" style="mix-blend-mode: normal">
		<g color="#039be5" class="teamapps-color-1">
			<path d="M896,341.33v512c0,46.93 -38.4,85.34 -85.33,85.34h-597.34c-46.93,0 -85.33,-38.41 -85.33,-85.34l0.43,-512c0,-46.93 37.97,-85.33 84.9,-85.33h85.34c0,-117.76 95.57,-213.33 213.33,-213.33c117.76,0 213.33,95.57 213.33,213.33h85.34c46.93,0 85.33,38.4 85.33,85.33zM725.33,341.33h-85.33c0,70.83 -57.17,128 -128,128c-70.83,0 -128,-57.17 -128,-128h-85.33c0,117.76 95.57,213.34 213.33,213.34c117.76,0 213.33,-95.58 213.33,-213.34zM384,256h256c0,-70.83 -57.17,-128 -128,-128c-70.83,0 -128,57.17 -128,128z" fill="currentColor"/>
		</g>
	</g>
</svg>