<svg version="1.1" xmlns="http://www.w3.org/2000/svg" xmlns:xlink="http://www.w3.org/1999/xlink" viewBox="0,0,1024,1024">
	<!-- Color names: teamapps-color-1 -->
	<desc>no_encryption icon - Licensed under Apache License v2.0 (http://www.apache.org/licenses/LICENSE-2.0) - Created with Iconfu.com - Derivative work of Material icons (Copyright Google Inc.)</desc>
	<g fill="none" fill-rule="nonzero" style="mix-blend-mode: normal">
		<g color="#039be5" class="teamapps-color-1">
			<path d="M843.95,981.33l-47.79,-47.78c-8.96,2.99 -18.35,5.12 -28.16,5.12h-512c-46.93,0 -85.33,-38.41 -85.33,-85.34v-426.66c0,-32 17.92,-59.73 44.37,-74.24l-87.04,-87.04l52.05,-52.06l715.95,715.95zM379.73,308.91l-78.5,-78.51c12.8,-105.39 101.54,-187.73 210.77,-187.73c117.76,0 213.33,95.57 213.33,213.33v85.33h42.67c46.93,0 85.33,38.41 85.33,85.34v355.84l-441.17,-441.18h232.11v-85.33c0,-72.96 -59.31,-132.27 -132.27,-132.27c-72.96,0 -132.27,59.31 -132.27,132.27z" fill="currentColor"/>
		</g>
	</g>
</svg>