<svg version="1.1" xmlns="http://www.w3.org/2000/svg" xmlns:xlink="http://www.w3.org/1999/xlink" viewBox="0,0,1024,1024">
	<!-- Color names: teamapps-color-1 -->
	<desc>photo_size_select_large icon - Licensed under Apache License v2.0 (http://www.apache.org/licenses/LICENSE-2.0) - Created with Iconfu.com - Derivative work of Material icons (Copyright Google Inc.)</desc>
	<g fill="none" fill-rule="nonzero" style="mix-blend-mode: normal">
		<g color="#039be5" class="teamapps-color-1">
			<path d="M640,469.33v426.67h-512c-46.93,0 -85.33,-38.4 -85.33,-85.33v-341.34zM554.67,810.67l-136.96,-182.62l-106.67,137.39l-76.37,-91.73l-106.67,136.96zM725.33,810.67h85.34v85.33h-85.34zM42.67,298.67h85.33v85.33h-85.33zM554.67,128h85.33v85.33h-85.33zM725.33,128h85.34v85.33h-85.34zM128,213.33h-85.33c0,-42.67 42.66,-85.33 85.33,-85.33zM896,896v-85.33h85.33c0,42.67 -42.66,85.33 -85.33,85.33zM896,298.67h85.33v85.33h-85.33zM384,128h85.33v85.33h-85.33zM213.33,128h85.34v85.33h-85.34zM896,469.33h85.33v85.34h-85.33zM981.33,213.33h-85.33v-85.33c42.67,0 85.33,42.66 85.33,85.33zM896,640h85.33v85.33h-85.33z" fill="currentColor"/>
		</g>
	</g>
</svg>