<svg version="1.1" xmlns="http://www.w3.org/2000/svg" xmlns:xlink="http://www.w3.org/1999/xlink" viewBox="0,0,1024,1024">
	<!-- Color names: teamapps-color-1 -->
	<desc>rowing icon - Licensed under Apache License v2.0 (http://www.apache.org/licenses/LICENSE-2.0) - Created with Iconfu.com - Derivative work of Material icons (Copyright Google Inc.)</desc>
	<g fill="none" fill-rule="nonzero" style="mix-blend-mode: normal">
		<g color="#039be5" class="teamapps-color-1">
			<path d="M896,896.43l-128,127.57l-127.57,-128.43v-63.57l-302.94,-302.51c-13.23,2.13 -26.02,2.99 -38.82,2.99v-92.16c70.83,1.28 154.02,-37.12 199.25,-87.04l59.73,-66.13c8.11,-8.96 18.35,-16.22 29.44,-21.34c12.37,-5.97 26.45,-9.81 40.96,-9.81h1.28c52.91,0.43 96,43.52 96,96.43v245.33c0,35.84 -14.93,68.69 -39.25,92.16l-152.75,-152.75v-96.85c-26.88,22.19 -61.01,43.52 -97.7,59.31l268.37,268.37h64zM469.33,725.33h-85.33l-149.33,149.34l-64,-64l192,-192zM725.33,128c0,46.93 -38.4,85.33 -85.33,85.33c-46.93,0 -85.33,-38.4 -85.33,-85.33c0,-46.93 38.4,-85.33 85.33,-85.33c46.93,0 85.33,38.4 85.33,85.33z" fill="currentColor"/>
		</g>
	</g>
</svg>