<svg version="1.1" xmlns="http://www.w3.org/2000/svg" xmlns:xlink="http://www.w3.org/1999/xlink" viewBox="0,0,1024,1024">
	<!-- Color names: teamapps-color-1 -->
	<desc>speaker_group icon - Licensed under Apache License v2.0 (http://www.apache.org/licenses/LICENSE-2.0) - Created with Iconfu.com - Derivative work of Material icons (Copyright Google Inc.)</desc>
	<g fill="none" fill-rule="nonzero" style="mix-blend-mode: normal">
		<g color="#039be5" class="teamapps-color-1">
			<path d="M853.33,119.47v614.4c0,42.24 -34.56,76.8 -76.8,76.8l-358.4,-0.43c-42.24,0 -76.8,-34.13 -76.8,-76.37v-614.4c0,-42.24 34.56,-76.8 76.8,-76.8h358.4c42.24,0 76.8,34.56 76.8,76.8zM768,533.33c0,-94.29 -76.38,-170.66 -170.67,-170.66c-94.29,0 -170.66,76.37 -170.66,170.66c0,94.29 76.37,170.67 170.66,170.67c94.29,0 170.67,-76.38 170.67,-170.67zM512,213.33c0,47.36 38.4,85.34 85.33,85.34c46.93,0 85.34,-37.98 85.34,-85.34c0,-47.36 -38.41,-85.33 -85.34,-85.33c-46.93,0 -85.33,37.97 -85.33,85.33z" fill="currentColor"/>
		</g>
		<g color="#039be5" class="teamapps-color-1">
			<path d="M490.67,533.33c0,-58.91 47.75,-106.66 106.66,-106.66c58.91,0 106.67,47.75 106.67,106.66c0,58.91 -47.76,106.67 -106.67,106.67c-58.91,0 -106.66,-47.76 -106.66,-106.67z" fill="currentColor"/>
		</g>
		<g color="#039be5" class="teamapps-color-1">
			<path d="M256,896h426.67v85.33h-426.67c-47.36,0 -85.33,-38.4 -85.33,-85.33v-682.67h85.33z" fill="currentColor"/>
		</g>
	</g>
</svg>