<svg version="1.1" xmlns="http://www.w3.org/2000/svg" xmlns:xlink="http://www.w3.org/1999/xlink" viewBox="0,0,1024,1024">
	<!-- Color names: teamapps-color-1 -->
	<desc>sync_disabled icon - Licensed under Apache License v2.0 (http://www.apache.org/licenses/LICENSE-2.0) - Created with Iconfu.com - Derivative work of Material icons (Copyright Google Inc.)</desc>
	<g fill="none" fill-rule="nonzero" style="mix-blend-mode: normal">
		<g color="#039be5" class="teamapps-color-1">
			<path d="M176.64,176.64l670.29,671.15l-54.18,54.18l-100.7,-100.69c-29.01,17.92 -61.01,32 -95.14,40.96v-89.17c11.52,-3.84 22.18,-8.96 32.85,-14.51l-344.75,-344.75c-18.35,35.41 -29.01,75.52 -29.01,118.19c0,70.83 29.01,134.4 75.09,180.91l95.58,-95.58v256h-256l100.69,-100.69c-61.87,-61.44 -100.69,-146.35 -100.69,-240.64c0,-66.56 19.2,-128.43 52.05,-180.48l-100.69,-100.69zM752.64,271.36c61.87,61.44 100.69,146.35 100.69,240.64c0,66.56 -19.2,128.43 -52.05,180.48l-62.29,-62.29c18.35,-35.41 29.01,-75.52 29.01,-118.19c0,-70.83 -29.01,-134.4 -75.09,-180.91l-95.58,95.58v-256h256zM393.81,285.01l-62.29,-62.29c29.01,-17.92 61.02,-32 95.15,-40.96v89.17c-11.52,3.84 -22.19,8.96 -32.86,14.08z" fill="currentColor"/>
		</g>
	</g>
</svg>