<svg version="1.1" xmlns="http://www.w3.org/2000/svg" xmlns:xlink="http://www.w3.org/1999/xlink" viewBox="0,0,1024,1024">
	<!-- Color names: teamapps-color-1 -->
	<desc>thumb_down icon - Licensed under Apache License v2.0 (http://www.apache.org/licenses/LICENSE-2.0) - Created with Iconfu.com - Derivative work of Material icons (Copyright Google Inc.)</desc>
	<g fill="none" fill-rule="nonzero" style="mix-blend-mode: normal">
		<g color="#039be5" class="teamapps-color-1">
			<path d="M725.33,213.33v426.67c0,23.47 -9.38,44.8 -24.74,60.16l-281.18,281.17l-45.22,-44.8c-11.52,-11.52 -18.78,-27.73 -18.78,-45.22l1.28,-13.66l40.54,-194.98h-269.23c-46.93,0 -85.33,-38.41 -85.33,-85.34l0.42,-3.41l-0.42,-0.43v-81.49c0,-11.09 2.13,-21.34 5.97,-31.15l128.85,-300.8c12.8,-30.72 43.1,-52.05 78.51,-52.05h384c46.93,0 85.33,38.4 85.33,85.33zM981.33,128v512h-170.66v-512z" fill="currentColor"/>
		</g>
	</g>
</svg>