<svg version="1.1" xmlns="http://www.w3.org/2000/svg" xmlns:xlink="http://www.w3.org/1999/xlink" viewBox="0,0,1024,1024">
	<!-- Color names: teamapps-color-1 -->
	<desc>visibility icon - Licensed under Apache License v2.0 (http://www.apache.org/licenses/LICENSE-2.0) - Created with Iconfu.com - Derivative work of Material icons (Copyright Google Inc.)</desc>
	<g fill="none" fill-rule="nonzero" style="mix-blend-mode: normal">
		<g color="#039be5" class="teamapps-color-1">
			<path d="M981.33,512c-73.81,187.31 -256,320 -469.33,320c-213.33,0 -395.52,-132.69 -469.33,-320c73.81,-187.31 256,-320 469.33,-320c213.33,0 395.52,132.69 469.33,320zM725.33,512c0,-117.76 -95.57,-213.33 -213.33,-213.33c-117.76,0 -213.33,95.57 -213.33,213.33c0,117.76 95.57,213.33 213.33,213.33c117.76,0 213.33,-95.57 213.33,-213.33zM640,512c0,70.83 -57.17,128 -128,128c-70.83,0 -128,-57.17 -128,-128c0,-70.83 57.17,-128 128,-128c70.83,0 128,57.17 128,128z" fill="currentColor"/>
		</g>
	</g>
</svg>