<svg version="1.1" xmlns="http://www.w3.org/2000/svg" xmlns:xlink="http://www.w3.org/1999/xlink" viewBox="0,0,1024,1024">
	<!-- Color names: teamapps-color-1, teamapps-color-2, teamapps-color-3 -->
	<desc>access_alarms icon - Licensed under Apache License v2.0 (http://www.apache.org/licenses/LICENSE-2.0) - Created with Iconfu.com - Derivative work of Material icons (Copyright Google Inc.)</desc>
	<defs>
		<clipPath id="clip-3akLn1P6">
			<path d="M896,554.67c0,213.33 -170.67,384 -384,384c-213.33,0 -384,-170.67 -384,-384c0,-213.33 170.67,-384 384,-384c213.33,0 384,170.67 384,384zM810.67,554.67c0,-166.4 -132.27,-298.67 -298.67,-298.67c-166.4,0 -298.67,132.27 -298.67,298.67c0,166.4 132.27,298.66 298.67,298.66c166.4,0 298.67,-132.26 298.67,-298.66zM533.33,567.47l170.67,102.4l-34.13,51.2l-200.54,-123.74v-256h64zM883.2,307.2l-196.27,-166.4l55.47,-64l196.27,166.4zM140.8,307.2l-55.47,-64l196.27,-162.13l55.47,64z"/>
		</clipPath>
		<linearGradient x1="0" y1="1024" x2="1024" y2="0" id="color-rkmW4w2L" gradientUnits="userSpaceOnUse">
			<stop offset="0.2" stop-color="#000000"/>
			<stop offset="0.8" stop-color="#ffffff"/>
		</linearGradient>
		<radialGradient cx="0" cy="0" r="1448.15" id="color-U0rk3JaS" gradientUnits="userSpaceOnUse">
			<stop offset="0.07" stop-color="#ffffff"/>
			<stop offset="0.75" stop-color="#000000"/>
		</radialGradient>
		<filter id="filter-H3azl8H5" x="0%" y="0%" width="100%" height="100%" color-interpolation-filters="sRGB">
			<feColorMatrix values="1 0 0 0 0 0 1 0 0 0 0 0 1 0 0 0 0 0 0.05 0" in="SourceGraphic"/>
			<feOffset dy="20"/>
			<feGaussianBlur stdDeviation="11" result="blur0"/>
			<feColorMatrix values="1 0 0 0 0 0 1 0 0 0 0 0 1 0 0 0 0 0 0.07 0" in="SourceGraphic"/>
			<feOffset dy="30"/>
			<feGaussianBlur stdDeviation="20" result="blur1"/>
			<feMerge>
				<feMergeNode in="blur0"/>
				<feMergeNode in="blur1"/>
			</feMerge>
		</filter>
		<filter id="filter-sbtY234P" color-interpolation-filters="sRGB">
			<feOffset/>
		</filter>
		<mask id="mask-Dpk0zzQ5">
			<path d="M896,554.67c0,213.33 -170.67,384 -384,384c-213.33,0 -384,-170.67 -384,-384c0,-213.33 170.67,-384 384,-384c213.33,0 384,170.67 384,384zM810.67,554.67c0,-166.4 -132.27,-298.67 -298.67,-298.67c-166.4,0 -298.67,132.27 -298.67,298.67c0,166.4 132.27,298.66 298.67,298.66c166.4,0 298.67,-132.26 298.67,-298.66zM533.33,567.47l170.67,102.4l-34.13,51.2l-200.54,-123.74v-256h64zM883.2,307.2l-196.27,-166.4l55.47,-64l196.27,166.4zM140.8,307.2l-55.47,-64l196.27,-162.13l55.47,64z" fill="url(#color-U0rk3JaS)"/>
		</mask>
		<mask id="mask-dQIeY1M3">
			<path d="M896,554.67c0,213.33 -170.67,384 -384,384c-213.33,0 -384,-170.67 -384,-384c0,-213.33 170.67,-384 384,-384c213.33,0 384,170.67 384,384zM810.67,554.67c0,-166.4 -132.27,-298.67 -298.67,-298.67c-166.4,0 -298.67,132.27 -298.67,298.67c0,166.4 132.27,298.66 298.67,298.66c166.4,0 298.67,-132.26 298.67,-298.66zM533.33,567.47l170.67,102.4l-34.13,51.2l-200.54,-123.74v-256h64zM883.2,307.2l-196.27,-166.4l55.47,-64l196.27,166.4zM140.8,307.2l-55.47,-64l196.27,-162.13l55.47,64z" fill="#ffffff"/>
		</mask>
		<mask id="mask-pWiWOsDf">
			<rect fill="url(#color-rkmW4w2L)" x="85.33" y="76.8" width="853.34" height="861.87"/>
		</mask>
	</defs>
	<g fill="none" fill-rule="nonzero" style="mix-blend-mode: normal">
		<g mask="url(#mask-dQIeY1M3)">
			<g color="#ffc107" class="teamapps-color-2">
				<rect x="85.33" y="76.8" width="853.34" height="861.87" fill="currentColor"/>
			</g>
			<g color="#e65100" class="teamapps-color-3" mask="url(#mask-pWiWOsDf)">
				<rect x="85.33" y="76.8" width="853.34" height="861.87" fill="currentColor"/>
			</g>
		</g>
		<g filter="url(#filter-sbtY234P)" mask="url(#mask-Dpk0zzQ5)">
			<g color="#fff59d" class="teamapps-color-1">
				<rect x="85.33" y="76.8" width="853.34" height="861.87" fill="currentColor"/>
			</g>
		</g>
		<g clip-path="url(#clip-3akLn1P6)">
			<path d="M-7.67,981.67v-1047.87h1039.34v1047.87zM512,170.67c-213.33,0 -384,170.67 -384,384c0,213.33 170.67,384 384,384c213.33,0 384,-170.67 384,-384c0,-213.33 -170.67,-384 -384,-384zM512,853.33c-166.4,0 -298.67,-132.26 -298.67,-298.66c0,-166.4 132.27,-298.67 298.67,-298.67c166.4,0 298.67,132.27 298.67,298.67c0,166.4 -132.27,298.66 -298.67,298.66zM533.33,341.33h-64v256l200.54,123.74l34.13,-51.2l-170.67,-102.4zM938.67,243.2l-196.27,-166.4l-55.47,64l196.27,166.4zM337.07,145.07l-55.47,-64l-196.27,162.13l55.47,64z" fill="#000000" filter="url(#filter-H3azl8H5)"/>
		</g>
	</g>
</svg>