<svg version="1.1" xmlns="http://www.w3.org/2000/svg" xmlns:xlink="http://www.w3.org/1999/xlink" viewBox="0,0,1024,1024">
	<!-- Color names: teamapps-color-1, teamapps-color-2, teamapps-color-3 -->
	<desc>adb icon - Licensed under Apache License v2.0 (http://www.apache.org/licenses/LICENSE-2.0) - Created with Iconfu.com - Derivative work of Material icons (Copyright Google Inc.)</desc>
	<defs>
		<clipPath id="clip-Ommai6Ps">
			<path d="M213.33,512h597.34v170.67c0,165.12 -133.55,298.66 -298.67,298.66c-165.12,0 -298.67,-133.54 -298.67,-298.66zM810.67,426.67v42.66h-597.34v-42.66c0,-98.99 48.64,-186.03 122.88,-240.22l-89.6,-89.6l34.99,-35.41l98.56,98.56c39.68,-20.05 84.05,-32 131.84,-32c47.79,0 92.16,11.95 132.27,32l98.13,-98.56l34.99,35.41l-89.6,89.6c74.24,54.19 122.88,141.23 122.88,240.22zM682.67,341.33c0,-23.47 -19.2,-42.66 -42.67,-42.66c-23.47,0 -42.67,19.19 -42.67,42.66c0,23.47 19.2,42.67 42.67,42.67c23.47,0 42.67,-19.2 42.67,-42.67zM426.67,341.33c0,-23.47 -19.2,-42.66 -42.67,-42.66c-23.47,0 -42.67,19.19 -42.67,42.66c0,23.47 19.2,42.67 42.67,42.67c23.47,0 42.67,-19.2 42.67,-42.67z"/>
		</clipPath>
		<radialGradient cx="0" cy="0" r="1448.15" id="color-qwFkb1W2" gradientUnits="userSpaceOnUse">
			<stop offset="0.07" stop-color="#ffffff"/>
			<stop offset="0.75" stop-color="#000000"/>
		</radialGradient>
		<linearGradient x1="0" y1="1024" x2="1024" y2="0" id="color-V6kXNlXx" gradientUnits="userSpaceOnUse">
			<stop offset="0.2" stop-color="#000000"/>
			<stop offset="0.8" stop-color="#ffffff"/>
		</linearGradient>
		<filter id="filter-Hr5KPYB4" color-interpolation-filters="sRGB">
			<feOffset/>
		</filter>
		<filter id="filter-MFbgnS0s" x="0%" y="0%" width="100%" height="100%" color-interpolation-filters="sRGB">
			<feColorMatrix values="1 0 0 0 0 0 1 0 0 0 0 0 1 0 0 0 0 0 0.05 0" in="SourceGraphic"/>
			<feOffset dy="20"/>
			<feGaussianBlur stdDeviation="11" result="blur0"/>
			<feColorMatrix values="1 0 0 0 0 0 1 0 0 0 0 0 1 0 0 0 0 0 0.07 0" in="SourceGraphic"/>
			<feOffset dy="30"/>
			<feGaussianBlur stdDeviation="20" result="blur1"/>
			<feMerge>
				<feMergeNode in="blur0"/>
				<feMergeNode in="blur1"/>
			</feMerge>
		</filter>
		<mask id="mask-0gEalS2e">
			<rect fill="url(#color-V6kXNlXx)" x="213.33" y="61.44" width="597.34" height="919.89"/>
		</mask>
		<mask id="mask-aKykqnDl">
			<path d="M213.33,512h597.34v170.67c0,165.12 -133.55,298.66 -298.67,298.66c-165.12,0 -298.67,-133.54 -298.67,-298.66zM810.67,426.67v42.66h-597.34v-42.66c0,-98.99 48.64,-186.03 122.88,-240.22l-89.6,-89.6l34.99,-35.41l98.56,98.56c39.68,-20.05 84.05,-32 131.84,-32c47.79,0 92.16,11.95 132.27,32l98.13,-98.56l34.99,35.41l-89.6,89.6c74.24,54.19 122.88,141.23 122.88,240.22zM682.67,341.33c0,-23.47 -19.2,-42.66 -42.67,-42.66c-23.47,0 -42.67,19.19 -42.67,42.66c0,23.47 19.2,42.67 42.67,42.67c23.47,0 42.67,-19.2 42.67,-42.67zM426.67,341.33c0,-23.47 -19.2,-42.66 -42.67,-42.66c-23.47,0 -42.67,19.19 -42.67,42.66c0,23.47 19.2,42.67 42.67,42.67c23.47,0 42.67,-19.2 42.67,-42.67z" fill="#ffffff"/>
		</mask>
		<mask id="mask-hgxzbNd1">
			<path d="M213.33,512h597.34v170.67c0,165.12 -133.55,298.66 -298.67,298.66c-165.12,0 -298.67,-133.54 -298.67,-298.66zM810.67,426.67v42.66h-597.34v-42.66c0,-98.99 48.64,-186.03 122.88,-240.22l-89.6,-89.6l34.99,-35.41l98.56,98.56c39.68,-20.05 84.05,-32 131.84,-32c47.79,0 92.16,11.95 132.27,32l98.13,-98.56l34.99,35.41l-89.6,89.6c74.24,54.19 122.88,141.23 122.88,240.22zM682.67,341.33c0,-23.47 -19.2,-42.66 -42.67,-42.66c-23.47,0 -42.67,19.19 -42.67,42.66c0,23.47 19.2,42.67 42.67,42.67c23.47,0 42.67,-19.2 42.67,-42.67zM426.67,341.33c0,-23.47 -19.2,-42.66 -42.67,-42.66c-23.47,0 -42.67,19.19 -42.67,42.66c0,23.47 19.2,42.67 42.67,42.67c23.47,0 42.67,-19.2 42.67,-42.67z" fill="url(#color-qwFkb1W2)"/>
		</mask>
	</defs>
	<g fill="none" fill-rule="nonzero" style="mix-blend-mode: normal">
		<g mask="url(#mask-aKykqnDl)">
			<g color="#ffc107" class="teamapps-color-2">
				<rect x="213.33" y="61.44" width="597.34" height="919.89" fill="currentColor"/>
			</g>
			<g color="#e65100" class="teamapps-color-3" mask="url(#mask-0gEalS2e)">
				<rect x="213.33" y="61.44" width="597.34" height="919.89" fill="currentColor"/>
			</g>
		</g>
		<g filter="url(#filter-Hr5KPYB4)" mask="url(#mask-hgxzbNd1)">
			<g color="#fff59d" class="teamapps-color-1">
				<rect x="213.33" y="61.44" width="597.34" height="919.89" fill="currentColor"/>
			</g>
		</g>
		<g clip-path="url(#clip-Ommai6Ps)">
			<path d="M120.33,1024.33v-1105.89h783.34v1105.89zM213.33,682.67c0,165.12 133.55,298.66 298.67,298.66c165.12,0 298.67,-133.54 298.67,-298.66v-170.67h-597.34zM687.79,186.45l89.6,-89.6l-34.99,-35.41l-98.13,98.56c-40.11,-20.05 -84.48,-32 -132.27,-32c-47.79,0 -92.16,11.95 -131.84,32l-98.56,-98.56l-34.99,35.41l89.6,89.6c-74.24,54.19 -122.88,141.23 -122.88,240.22v42.66h597.34v-42.66c0,-98.99 -48.64,-186.03 -122.88,-240.22zM640,384c-23.47,0 -42.67,-19.2 -42.67,-42.67c0,-23.47 19.2,-42.66 42.67,-42.66c23.47,0 42.67,19.19 42.67,42.66c0,23.47 -19.2,42.67 -42.67,42.67zM384,384c-23.47,0 -42.67,-19.2 -42.67,-42.67c0,-23.47 19.2,-42.66 42.67,-42.66c23.47,0 42.67,19.19 42.67,42.66c0,23.47 -19.2,42.67 -42.67,42.67z" fill="#000000" filter="url(#filter-MFbgnS0s)"/>
		</g>
	</g>
</svg>