<svg version="1.1" xmlns="http://www.w3.org/2000/svg" xmlns:xlink="http://www.w3.org/1999/xlink" viewBox="0,0,1024,1024">
	<!-- Color names: teamapps-color-1, teamapps-color-2, teamapps-color-3 -->
	<desc>add_box icon - Licensed under Apache License v2.0 (http://www.apache.org/licenses/LICENSE-2.0) - Created with Iconfu.com - Derivative work of Material icons (Copyright Google Inc.)</desc>
	<defs>
		<clipPath id="clip-oW1fMW0A">
			<path d="M896,213.33v597.34c0,46.93 -38.4,85.33 -85.33,85.33h-597.34c-47.36,0 -85.33,-38.4 -85.33,-85.33v-597.34c0,-46.93 37.97,-85.33 85.33,-85.33h597.34c46.93,0 85.33,38.4 85.33,85.33zM725.33,469.33h-170.66v-170.66h-85.34v170.66h-170.66v85.34h170.66v170.66h85.34v-170.66h170.66z"/>
		</clipPath>
		<radialGradient cx="0" cy="0" r="1448.15" id="color-dtoaVn6J" gradientUnits="userSpaceOnUse">
			<stop offset="0.07" stop-color="#ffffff"/>
			<stop offset="0.75" stop-color="#000000"/>
		</radialGradient>
		<linearGradient x1="0" y1="1024" x2="1024" y2="0" id="color-IFuCrQ4e" gradientUnits="userSpaceOnUse">
			<stop offset="0.2" stop-color="#000000"/>
			<stop offset="0.8" stop-color="#ffffff"/>
		</linearGradient>
		<filter id="filter-K2I3vamg" x="0%" y="0%" width="100%" height="100%" color-interpolation-filters="sRGB">
			<feColorMatrix values="1 0 0 0 0 0 1 0 0 0 0 0 1 0 0 0 0 0 0.05 0" in="SourceGraphic"/>
			<feOffset dy="20"/>
			<feGaussianBlur stdDeviation="11" result="blur0"/>
			<feColorMatrix values="1 0 0 0 0 0 1 0 0 0 0 0 1 0 0 0 0 0 0.07 0" in="SourceGraphic"/>
			<feOffset dy="30"/>
			<feGaussianBlur stdDeviation="20" result="blur1"/>
			<feMerge>
				<feMergeNode in="blur0"/>
				<feMergeNode in="blur1"/>
			</feMerge>
		</filter>
		<filter id="filter-rXLRpHk8" color-interpolation-filters="sRGB">
			<feOffset/>
		</filter>
		<mask id="mask-18wC9R7Z">
			<rect fill="url(#color-IFuCrQ4e)" x="128" y="128" width="768" height="768"/>
		</mask>
		<mask id="mask-7L3hp1QW">
			<path d="M896,213.33v597.34c0,46.93 -38.4,85.33 -85.33,85.33h-597.34c-47.36,0 -85.33,-38.4 -85.33,-85.33v-597.34c0,-46.93 37.97,-85.33 85.33,-85.33h597.34c46.93,0 85.33,38.4 85.33,85.33zM725.33,469.33h-170.66v-170.66h-85.34v170.66h-170.66v85.34h170.66v170.66h85.34v-170.66h170.66z" fill="#ffffff"/>
		</mask>
		<mask id="mask-FFkF7vTO">
			<path d="M896,213.33v597.34c0,46.93 -38.4,85.33 -85.33,85.33h-597.34c-47.36,0 -85.33,-38.4 -85.33,-85.33v-597.34c0,-46.93 37.97,-85.33 85.33,-85.33h597.34c46.93,0 85.33,38.4 85.33,85.33zM725.33,469.33h-170.66v-170.66h-85.34v170.66h-170.66v85.34h170.66v170.66h85.34v-170.66h170.66z" fill="url(#color-dtoaVn6J)"/>
		</mask>
	</defs>
	<g fill="none" fill-rule="nonzero" style="mix-blend-mode: normal">
		<g mask="url(#mask-7L3hp1QW)">
			<g color="#ffc107" class="teamapps-color-2">
				<rect x="128" y="128" width="768" height="768" fill="currentColor"/>
			</g>
			<g color="#e65100" class="teamapps-color-3" mask="url(#mask-18wC9R7Z)">
				<rect x="128" y="128" width="768" height="768" fill="currentColor"/>
			</g>
		</g>
		<g filter="url(#filter-rXLRpHk8)" mask="url(#mask-FFkF7vTO)">
			<g color="#fff59d" class="teamapps-color-1">
				<rect x="128" y="128" width="768" height="768" fill="currentColor"/>
			</g>
		</g>
		<g clip-path="url(#clip-oW1fMW0A)">
			<path d="M35,939v-954h954v954zM810.67,128h-597.34c-47.36,0 -85.33,38.4 -85.33,85.33v597.34c0,46.93 37.97,85.33 85.33,85.33h597.34c46.93,0 85.33,-38.4 85.33,-85.33v-597.34c0,-46.93 -38.4,-85.33 -85.33,-85.33zM725.33,554.67h-170.66v170.66h-85.34v-170.66h-170.66v-85.34h170.66v-170.66h85.34v170.66h170.66z" fill="#000000" filter="url(#filter-K2I3vamg)"/>
		</g>
	</g>
</svg>