<svg version="1.1" xmlns="http://www.w3.org/2000/svg" xmlns:xlink="http://www.w3.org/1999/xlink" viewBox="0,0,1024,1024">
	<!-- Color names: teamapps-color-1, teamapps-color-2, teamapps-color-3 -->
	<desc>add_location icon - Licensed under Apache License v2.0 (http://www.apache.org/licenses/LICENSE-2.0) - Created with Iconfu.com - Derivative work of Material icons (Copyright Google Inc.)</desc>
	<defs>
		<clipPath id="clip-3CuiDmhm">
			<path d="M810.67,384c0,224 -298.67,554.67 -298.67,554.67c0,0 -298.67,-330.67 -298.67,-554.67c0,-164.69 133.98,-298.67 298.67,-298.67c164.69,0 298.67,133.98 298.67,298.67zM682.67,341.33h-128v-128h-85.34v128h-128v85.34h128v128h85.34v-128h128z"/>
		</clipPath>
		<linearGradient x1="0" y1="1024" x2="1024" y2="0" id="color-a5BQE92z" gradientUnits="userSpaceOnUse">
			<stop offset="0.2" stop-color="#000000"/>
			<stop offset="0.8" stop-color="#ffffff"/>
		</linearGradient>
		<radialGradient cx="0" cy="0" r="1448.15" id="color-AXBXzCiO" gradientUnits="userSpaceOnUse">
			<stop offset="0.07" stop-color="#ffffff"/>
			<stop offset="0.75" stop-color="#000000"/>
		</radialGradient>
		<filter id="filter-NqF5irOa" color-interpolation-filters="sRGB">
			<feOffset/>
		</filter>
		<filter id="filter-Yw1lV0lx" x="0%" y="0%" width="100%" height="100%" color-interpolation-filters="sRGB">
			<feColorMatrix values="1 0 0 0 0 0 1 0 0 0 0 0 1 0 0 0 0 0 0.05 0" in="SourceGraphic"/>
			<feOffset dy="20"/>
			<feGaussianBlur stdDeviation="11" result="blur0"/>
			<feColorMatrix values="1 0 0 0 0 0 1 0 0 0 0 0 1 0 0 0 0 0 0.07 0" in="SourceGraphic"/>
			<feOffset dy="30"/>
			<feGaussianBlur stdDeviation="20" result="blur1"/>
			<feMerge>
				<feMergeNode in="blur0"/>
				<feMergeNode in="blur1"/>
			</feMerge>
		</filter>
		<mask id="mask-e10h0b2w">
			<path d="M810.67,384c0,224 -298.67,554.67 -298.67,554.67c0,0 -298.67,-330.67 -298.67,-554.67c0,-164.69 133.98,-298.67 298.67,-298.67c164.69,0 298.67,133.98 298.67,298.67zM682.67,341.33h-128v-128h-85.34v128h-128v85.34h128v128h85.34v-128h128z" fill="#ffffff"/>
		</mask>
		<mask id="mask-EMhZffV3">
			<rect fill="url(#color-a5BQE92z)" x="213.33" y="85.33" width="597.34" height="853.34"/>
		</mask>
		<mask id="mask-SbOwrc49">
			<path d="M810.67,384c0,224 -298.67,554.67 -298.67,554.67c0,0 -298.67,-330.67 -298.67,-554.67c0,-164.69 133.98,-298.67 298.67,-298.67c164.69,0 298.67,133.98 298.67,298.67zM682.67,341.33h-128v-128h-85.34v128h-128v85.34h128v128h85.34v-128h128z" fill="url(#color-AXBXzCiO)"/>
		</mask>
	</defs>
	<g fill="none" fill-rule="nonzero" style="mix-blend-mode: normal">
		<g mask="url(#mask-e10h0b2w)">
			<g color="#ffc107" class="teamapps-color-2">
				<rect x="213.33" y="85.33" width="597.34" height="853.34" fill="currentColor"/>
			</g>
			<g color="#e65100" class="teamapps-color-3" mask="url(#mask-EMhZffV3)">
				<rect x="213.33" y="85.33" width="597.34" height="853.34" fill="currentColor"/>
			</g>
		</g>
		<g filter="url(#filter-NqF5irOa)" mask="url(#mask-SbOwrc49)">
			<g color="#fff59d" class="teamapps-color-1">
				<rect x="213.33" y="85.33" width="597.34" height="853.34" fill="currentColor"/>
			</g>
		</g>
		<g clip-path="url(#clip-3CuiDmhm)">
			<path d="M120.33,981.67v-1039.34h783.34v1039.34zM512,85.33c-164.69,0 -298.67,133.98 -298.67,298.67c0,224 298.67,554.67 298.67,554.67c0,0 298.67,-330.67 298.67,-554.67c0,-164.69 -133.98,-298.67 -298.67,-298.67zM682.67,426.67h-128v128h-85.34v-128h-128v-85.34h128v-128h85.34v128h128z" fill="#000000" filter="url(#filter-Yw1lV0lx)"/>
		</g>
	</g>
</svg>