<svg version="1.1" xmlns="http://www.w3.org/2000/svg" xmlns:xlink="http://www.w3.org/1999/xlink" viewBox="0,0,1024,1024">
	<!-- Color names: teamapps-color-1, teamapps-color-2, teamapps-color-3 -->
	<desc>airline_seat_recline_extra icon - Licensed under Apache License v2.0 (http://www.apache.org/licenses/LICENSE-2.0) - Created with Iconfu.com - Derivative work of Material icons (Copyright Google Inc.)</desc>
	<defs>
		<clipPath id="clip-STKq5Sgq">
			<path d="M938.67,832l-64,64l-162.99,-128h-292.27c-61.44,0 -113.91,-43.52 -125.86,-104.11l-57.6,-252.58c-8.96,-52.05 26.02,-101.97 78.5,-111.36h0.86c14.08,-2.56 28.59,-1.28 42.24,2.56c11.52,3.41 22.61,8.53 32.42,16.21l69.98,54.19c53.33,41.81 130.55,66.56 200.1,53.33v90.88c-79.79,13.65 -152.32,-14.08 -219.73,-52.05l43.95,174.93h208.21zM682.67,896h-301.23c-105.39,0 -194.99,-76.8 -211.2,-180.91l-84.91,-416.42h85.34l84.05,403.62c9.39,62.29 63.14,108.38 126.29,108.38h301.66zM228.27,240.64c-38.4,-27.31 -47.79,-80.21 -20.91,-119.04c26.88,-38.4 80.21,-47.79 119.04,-20.91c38.4,27.31 47.79,80.21 20.91,119.04c-27.31,38.4 -80.21,47.79 -119.04,20.91z"/>
		</clipPath>
		<radialGradient cx="0" cy="0" r="1448.15" id="color-lVH7xaQl" gradientUnits="userSpaceOnUse">
			<stop offset="0.07" stop-color="#ffffff"/>
			<stop offset="0.75" stop-color="#000000"/>
		</radialGradient>
		<linearGradient x1="0" y1="1024" x2="1024" y2="0" id="color-Sy0Y8EaI" gradientUnits="userSpaceOnUse">
			<stop offset="0.2" stop-color="#000000"/>
			<stop offset="0.8" stop-color="#ffffff"/>
		</linearGradient>
		<filter id="filter-7Z6kgjnE" x="0%" y="0%" width="100%" height="100%" color-interpolation-filters="sRGB">
			<feColorMatrix values="1 0 0 0 0 0 1 0 0 0 0 0 1 0 0 0 0 0 0.05 0" in="SourceGraphic"/>
			<feOffset dy="20"/>
			<feGaussianBlur stdDeviation="11" result="blur0"/>
			<feColorMatrix values="1 0 0 0 0 0 1 0 0 0 0 0 1 0 0 0 0 0 0.07 0" in="SourceGraphic"/>
			<feOffset dy="30"/>
			<feGaussianBlur stdDeviation="20" result="blur1"/>
			<feMerge>
				<feMergeNode in="blur0"/>
				<feMergeNode in="blur1"/>
			</feMerge>
		</filter>
		<filter id="filter-XkjrZgzM" color-interpolation-filters="sRGB">
			<feOffset/>
		</filter>
		<mask id="mask-01xbSDau">
			<rect fill="url(#color-Sy0Y8EaI)" x="85.33" y="85.36" width="853.34" height="810.64"/>
		</mask>
		<mask id="mask-HnxES6jp">
			<path d="M938.67,832l-64,64l-162.99,-128h-292.27c-61.44,0 -113.91,-43.52 -125.86,-104.11l-57.6,-252.58c-8.96,-52.05 26.02,-101.97 78.5,-111.36h0.86c14.08,-2.56 28.59,-1.28 42.24,2.56c11.52,3.41 22.61,8.53 32.42,16.21l69.98,54.19c53.33,41.81 130.55,66.56 200.1,53.33v90.88c-79.79,13.65 -152.32,-14.08 -219.73,-52.05l43.95,174.93h208.21zM682.67,896h-301.23c-105.39,0 -194.99,-76.8 -211.2,-180.91l-84.91,-416.42h85.34l84.05,403.62c9.39,62.29 63.14,108.38 126.29,108.38h301.66zM228.27,240.64c-38.4,-27.31 -47.79,-80.21 -20.91,-119.04c26.88,-38.4 80.21,-47.79 119.04,-20.91c38.4,27.31 47.79,80.21 20.91,119.04c-27.31,38.4 -80.21,47.79 -119.04,20.91z" fill="#ffffff"/>
		</mask>
		<mask id="mask-OB7RgcQs">
			<path d="M938.67,832l-64,64l-162.99,-128h-292.27c-61.44,0 -113.91,-43.52 -125.86,-104.11l-57.6,-252.58c-8.96,-52.05 26.02,-101.97 78.5,-111.36h0.86c14.08,-2.56 28.59,-1.28 42.24,2.56c11.52,3.41 22.61,8.53 32.42,16.21l69.98,54.19c53.33,41.81 130.55,66.56 200.1,53.33v90.88c-79.79,13.65 -152.32,-14.08 -219.73,-52.05l43.95,174.93h208.21zM682.67,896h-301.23c-105.39,0 -194.99,-76.8 -211.2,-180.91l-84.91,-416.42h85.34l84.05,403.62c9.39,62.29 63.14,108.38 126.29,108.38h301.66zM228.27,240.64c-38.4,-27.31 -47.79,-80.21 -20.91,-119.04c26.88,-38.4 80.21,-47.79 119.04,-20.91c38.4,27.31 47.79,80.21 20.91,119.04c-27.31,38.4 -80.21,47.79 -119.04,20.91z" fill="url(#color-lVH7xaQl)"/>
		</mask>
	</defs>
	<g fill="none" fill-rule="nonzero" style="mix-blend-mode: normal">
		<g mask="url(#mask-HnxES6jp)">
			<g color="#ffc107" class="teamapps-color-2">
				<rect x="85.33" y="85.36" width="853.34" height="810.64" fill="currentColor"/>
			</g>
			<g color="#e65100" class="teamapps-color-3" mask="url(#mask-01xbSDau)">
				<rect x="85.33" y="85.36" width="853.34" height="810.64" fill="currentColor"/>
			</g>
		</g>
		<g filter="url(#filter-XkjrZgzM)" mask="url(#mask-OB7RgcQs)">
			<g color="#fff59d" class="teamapps-color-1">
				<rect x="85.33" y="85.36" width="853.34" height="810.64" fill="currentColor"/>
			</g>
		</g>
		<g clip-path="url(#clip-STKq5Sgq)">
			<path d="M-7.67,939v-996.64h1039.34v996.64zM692.48,640h-208.21l-43.95,-174.93c67.41,37.97 139.94,65.7 219.73,52.05v-90.88c-69.55,13.23 -146.77,-11.52 -200.1,-53.33l-69.98,-54.19c-9.81,-7.68 -20.9,-12.8 -32.42,-16.21c-13.65,-3.84 -28.16,-5.12 -42.24,-2.56h-0.86c-52.48,9.39 -87.46,59.31 -78.5,111.36l57.6,252.58c11.95,60.59 64.42,104.11 125.86,104.11h292.27l162.99,128l64,-64zM682.67,810.67h-301.66c-63.15,0 -116.9,-46.09 -126.29,-108.38l-84.05,-403.62h-85.34l84.91,416.42c16.21,104.11 105.81,180.91 211.2,180.91h301.23zM347.31,219.73c26.88,-38.83 17.49,-91.73 -20.91,-119.04c-38.83,-26.88 -92.16,-17.49 -119.04,20.91c-26.88,38.83 -17.49,91.73 20.91,119.04c38.83,26.88 91.73,17.49 119.04,-20.91z" fill="#000000" filter="url(#filter-7Z6kgjnE)"/>
		</g>
	</g>
</svg>