<svg version="1.1" xmlns="http://www.w3.org/2000/svg" xmlns:xlink="http://www.w3.org/1999/xlink" viewBox="0,0,1024,1024">
	<!-- Color names: teamapps-color-1, teamapps-color-2, teamapps-color-3 -->
	<desc>android icon - Licensed under Apache License v2.0 (http://www.apache.org/licenses/LICENSE-2.0) - Created with Iconfu.com - Derivative work of Material icons (Copyright Google Inc.)</desc>
	<defs>
		<clipPath id="clip-XIbMpDog">
			<path d="M256,341.33h512v426.67c0,23.47 -19.2,42.67 -42.67,42.67h-42.66v149.33c0,35.41 -28.59,64 -64,64c-35.41,0 -64,-28.59 -64,-64v-149.33h-85.34v149.33c0,35.41 -28.59,64 -64,64c-35.41,0 -64,-28.59 -64,-64v-149.33h-42.66c-23.47,0 -42.67,-19.2 -42.67,-42.67zM768,298.67h-512c0,-84.91 41.38,-159.57 104.53,-206.08l-55.89,-55.9c-8.53,-8.53 -8.53,-21.76 0,-30.29c8.53,-8.53 21.76,-8.53 30.29,0l63.58,63.15c34.13,-17.07 72.53,-26.88 113.49,-26.88c40.53,0 78.93,9.81 112.64,26.88l63.15,-63.15c8.53,-8.53 21.76,-8.53 30.29,0c8.53,8.53 8.53,21.76 0,30.29l-55.47,55.47c64,46.51 105.39,121.6 105.39,206.51zM938.67,405.33v298.67c0,35.41 -28.59,64 -64,64c-35.41,0 -64,-28.59 -64,-64v-298.67c0,-35.41 28.59,-64 64,-64c35.41,0 64,28.59 64,64zM213.33,405.33v298.67c0,35.41 -28.59,64 -64,64c-35.41,0 -64,-28.59 -64,-64v-298.67c0,-35.41 28.59,-64 64,-64c35.41,0 64,28.59 64,64zM640,170.67h-42.67v42.66h42.67zM426.67,170.67h-42.67v42.66h42.67z"/>
		</clipPath>
		<radialGradient cx="0" cy="0" r="1448.15" id="color-H55FxhnW" gradientUnits="userSpaceOnUse">
			<stop offset="0.07" stop-color="#ffffff"/>
			<stop offset="0.75" stop-color="#000000"/>
		</radialGradient>
		<linearGradient x1="0" y1="1024" x2="1024" y2="0" id="color-X151AbSL" gradientUnits="userSpaceOnUse">
			<stop offset="0.2" stop-color="#000000"/>
			<stop offset="0.8" stop-color="#ffffff"/>
		</linearGradient>
		<filter id="filter-RJ00vZuV" x="0%" y="0%" width="100%" height="100%" color-interpolation-filters="sRGB">
			<feColorMatrix values="1 0 0 0 0 0 1 0 0 0 0 0 1 0 0 0 0 0 0.05 0" in="SourceGraphic"/>
			<feOffset dy="20"/>
			<feGaussianBlur stdDeviation="11" result="blur0"/>
			<feColorMatrix values="1 0 0 0 0 0 1 0 0 0 0 0 1 0 0 0 0 0 0.07 0" in="SourceGraphic"/>
			<feOffset dy="30"/>
			<feGaussianBlur stdDeviation="20" result="blur1"/>
			<feMerge>
				<feMergeNode in="blur0"/>
				<feMergeNode in="blur1"/>
			</feMerge>
		</filter>
		<filter id="filter-VSKPbm5T" color-interpolation-filters="sRGB">
			<feOffset/>
		</filter>
		<mask id="mask-Vi5fKXsj">
			<path d="M256,341.33h512v426.67c0,23.47 -19.2,42.67 -42.67,42.67h-42.66v149.33c0,35.41 -28.59,64 -64,64c-35.41,0 -64,-28.59 -64,-64v-149.33h-85.34v149.33c0,35.41 -28.59,64 -64,64c-35.41,0 -64,-28.59 -64,-64v-149.33h-42.66c-23.47,0 -42.67,-19.2 -42.67,-42.67zM768,298.67h-512c0,-84.91 41.38,-159.57 104.53,-206.08l-55.89,-55.9c-8.53,-8.53 -8.53,-21.76 0,-30.29c8.53,-8.53 21.76,-8.53 30.29,0l63.58,63.15c34.13,-17.07 72.53,-26.88 113.49,-26.88c40.53,0 78.93,9.81 112.64,26.88l63.15,-63.15c8.53,-8.53 21.76,-8.53 30.29,0c8.53,8.53 8.53,21.76 0,30.29l-55.47,55.47c64,46.51 105.39,121.6 105.39,206.51zM938.67,405.33v298.67c0,35.41 -28.59,64 -64,64c-35.41,0 -64,-28.59 -64,-64v-298.67c0,-35.41 28.59,-64 64,-64c35.41,0 64,28.59 64,64zM213.33,405.33v298.67c0,35.41 -28.59,64 -64,64c-35.41,0 -64,-28.59 -64,-64v-298.67c0,-35.41 28.59,-64 64,-64c35.41,0 64,28.59 64,64zM640,170.67h-42.67v42.66h42.67zM426.67,170.67h-42.67v42.66h42.67z" fill="url(#color-H55FxhnW)"/>
		</mask>
		<mask id="mask-WY1ZjJL4">
			<rect fill="url(#color-X151AbSL)" x="85.33" y="0" width="853.34" height="1024"/>
		</mask>
		<mask id="mask-Y0iJ2l24">
			<path d="M256,341.33h512v426.67c0,23.47 -19.2,42.67 -42.67,42.67h-42.66v149.33c0,35.41 -28.59,64 -64,64c-35.41,0 -64,-28.59 -64,-64v-149.33h-85.34v149.33c0,35.41 -28.59,64 -64,64c-35.41,0 -64,-28.59 -64,-64v-149.33h-42.66c-23.47,0 -42.67,-19.2 -42.67,-42.67zM768,298.67h-512c0,-84.91 41.38,-159.57 104.53,-206.08l-55.89,-55.9c-8.53,-8.53 -8.53,-21.76 0,-30.29c8.53,-8.53 21.76,-8.53 30.29,0l63.58,63.15c34.13,-17.07 72.53,-26.88 113.49,-26.88c40.53,0 78.93,9.81 112.64,26.88l63.15,-63.15c8.53,-8.53 21.76,-8.53 30.29,0c8.53,8.53 8.53,21.76 0,30.29l-55.47,55.47c64,46.51 105.39,121.6 105.39,206.51zM938.67,405.33v298.67c0,35.41 -28.59,64 -64,64c-35.41,0 -64,-28.59 -64,-64v-298.67c0,-35.41 28.59,-64 64,-64c35.41,0 64,28.59 64,64zM213.33,405.33v298.67c0,35.41 -28.59,64 -64,64c-35.41,0 -64,-28.59 -64,-64v-298.67c0,-35.41 28.59,-64 64,-64c35.41,0 64,28.59 64,64zM640,170.67h-42.67v42.66h42.67zM426.67,170.67h-42.67v42.66h42.67z" fill="#ffffff"/>
		</mask>
	</defs>
	<g fill="none" fill-rule="nonzero" style="mix-blend-mode: normal">
		<g mask="url(#mask-Y0iJ2l24)">
			<g color="#ffc107" class="teamapps-color-2">
				<rect x="85.33" y="0" width="853.34" height="1024" fill="currentColor"/>
			</g>
			<g color="#e65100" class="teamapps-color-3" mask="url(#mask-WY1ZjJL4)">
				<rect x="85.33" y="0" width="853.34" height="1024" fill="currentColor"/>
			</g>
		</g>
		<g filter="url(#filter-VSKPbm5T)" mask="url(#mask-Vi5fKXsj)">
			<g color="#fff59d" class="teamapps-color-1">
				<rect x="85.33" y="0" width="853.34" height="1024" fill="currentColor"/>
			</g>
		</g>
		<g clip-path="url(#clip-XIbMpDog)">
			<path d="M-7.67,1067v-1210h1039.34v1210zM256,768c0,23.47 19.2,42.67 42.67,42.67h42.66v149.33c0,35.41 28.59,64 64,64c35.41,0 64,-28.59 64,-64v-149.33h85.34v149.33c0,35.41 28.59,64 64,64c35.41,0 64,-28.59 64,-64v-149.33h42.66c23.47,0 42.67,-19.2 42.67,-42.67v-426.67h-512zM662.61,92.16l55.47,-55.47c8.53,-8.53 8.53,-21.76 0,-30.29c-8.53,-8.53 -21.76,-8.53 -30.29,0l-63.15,63.15c-33.71,-17.07 -72.11,-26.88 -112.64,-26.88c-40.96,0 -79.36,9.81 -113.49,26.88l-63.58,-63.15c-8.53,-8.53 -21.76,-8.53 -30.29,0c-8.53,8.53 -8.53,21.76 0,30.29l55.89,55.9c-63.15,46.51 -104.53,121.17 -104.53,206.08h512c0,-84.91 -41.39,-160 -105.39,-206.51zM874.67,341.33c-35.41,0 -64,28.59 -64,64v298.67c0,35.41 28.59,64 64,64c35.41,0 64,-28.59 64,-64v-298.67c0,-35.41 -28.59,-64 -64,-64zM149.33,341.33c-35.41,0 -64,28.59 -64,64v298.67c0,35.41 28.59,64 64,64c35.41,0 64,-28.59 64,-64v-298.67c0,-35.41 -28.59,-64 -64,-64zM640,213.33h-42.67v-42.66h42.67zM426.67,213.33h-42.67v-42.66h42.67z" fill="#000000" filter="url(#filter-RJ00vZuV)"/>
		</g>
	</g>
</svg>