<svg version="1.1" xmlns="http://www.w3.org/2000/svg" xmlns:xlink="http://www.w3.org/1999/xlink" viewBox="0,0,1024,1024">
	<!-- Color names: teamapps-color-1, teamapps-color-2, teamapps-color-3 -->
	<desc>archive icon - Licensed under Apache License v2.0 (http://www.apache.org/licenses/LICENSE-2.0) - Created with Iconfu.com - Derivative work of Material icons (Copyright Google Inc.)</desc>
	<defs>
		<clipPath id="clip-PA0lhpXG">
			<path d="M896,277.33v533.34c0,46.93 -38.4,85.33 -85.33,85.33h-597.34c-46.93,0 -85.33,-38.4 -85.33,-85.33v-533.34c0,-20.48 7.26,-39.67 19.63,-54.18l58.88,-71.68c11.95,-14.51 29.44,-23.47 49.49,-23.47h512c20.05,0 37.55,8.96 49.07,23.47l59.3,71.68c12.37,14.51 19.63,33.7 19.63,54.18zM746.67,512h-149.34v-85.33h-170.66v85.33h-149.34l234.67,234.67zM805.12,213.33l-40.11,-42.66h-512l-34.56,42.66z"/>
		</clipPath>
		<radialGradient cx="0" cy="0" r="1448.15" id="color-raJ8bDjh" gradientUnits="userSpaceOnUse">
			<stop offset="0.07" stop-color="#ffffff"/>
			<stop offset="0.75" stop-color="#000000"/>
		</radialGradient>
		<linearGradient x1="0" y1="1024" x2="1024" y2="0" id="color-T7X7Hxgg" gradientUnits="userSpaceOnUse">
			<stop offset="0.2" stop-color="#000000"/>
			<stop offset="0.8" stop-color="#ffffff"/>
		</linearGradient>
		<filter id="filter-Wz8hW6rh" color-interpolation-filters="sRGB">
			<feOffset/>
		</filter>
		<filter id="filter-X9qqJ2fu" x="0%" y="0%" width="100%" height="100%" color-interpolation-filters="sRGB">
			<feColorMatrix values="1 0 0 0 0 0 1 0 0 0 0 0 1 0 0 0 0 0 0.05 0" in="SourceGraphic"/>
			<feOffset dy="20"/>
			<feGaussianBlur stdDeviation="11" result="blur0"/>
			<feColorMatrix values="1 0 0 0 0 0 1 0 0 0 0 0 1 0 0 0 0 0 0.07 0" in="SourceGraphic"/>
			<feOffset dy="30"/>
			<feGaussianBlur stdDeviation="20" result="blur1"/>
			<feMerge>
				<feMergeNode in="blur0"/>
				<feMergeNode in="blur1"/>
			</feMerge>
		</filter>
		<mask id="mask-074VrNZT">
			<path d="M896,277.33v533.34c0,46.93 -38.4,85.33 -85.33,85.33h-597.34c-46.93,0 -85.33,-38.4 -85.33,-85.33v-533.34c0,-20.48 7.26,-39.67 19.63,-54.18l58.88,-71.68c11.95,-14.51 29.44,-23.47 49.49,-23.47h512c20.05,0 37.55,8.96 49.07,23.47l59.3,71.68c12.37,14.51 19.63,33.7 19.63,54.18zM746.67,512h-149.34v-85.33h-170.66v85.33h-149.34l234.67,234.67zM805.12,213.33l-40.11,-42.66h-512l-34.56,42.66z" fill="url(#color-raJ8bDjh)"/>
		</mask>
		<mask id="mask-EcHxFJQf">
			<rect fill="url(#color-T7X7Hxgg)" x="128" y="128" width="768" height="768"/>
		</mask>
		<mask id="mask-ffRw0xIQ">
			<path d="M896,277.33v533.34c0,46.93 -38.4,85.33 -85.33,85.33h-597.34c-46.93,0 -85.33,-38.4 -85.33,-85.33v-533.34c0,-20.48 7.26,-39.67 19.63,-54.18l58.88,-71.68c11.95,-14.51 29.44,-23.47 49.49,-23.47h512c20.05,0 37.55,8.96 49.07,23.47l59.3,71.68c12.37,14.51 19.63,33.7 19.63,54.18zM746.67,512h-149.34v-85.33h-170.66v85.33h-149.34l234.67,234.67zM805.12,213.33l-40.11,-42.66h-512l-34.56,42.66z" fill="#ffffff"/>
		</mask>
	</defs>
	<g fill="none" fill-rule="nonzero" style="mix-blend-mode: normal">
		<g mask="url(#mask-ffRw0xIQ)">
			<g color="#ffc107" class="teamapps-color-2">
				<rect x="128" y="128" width="768" height="768" fill="currentColor"/>
			</g>
			<g color="#e65100" class="teamapps-color-3" mask="url(#mask-EcHxFJQf)">
				<rect x="128" y="128" width="768" height="768" fill="currentColor"/>
			</g>
		</g>
		<g filter="url(#filter-Wz8hW6rh)" mask="url(#mask-074VrNZT)">
			<g color="#fff59d" class="teamapps-color-1">
				<rect x="128" y="128" width="768" height="768" fill="currentColor"/>
			</g>
		</g>
		<g clip-path="url(#clip-PA0lhpXG)">
			<path d="M35,939v-954h954v954zM876.37,223.15l-59.3,-71.68c-11.52,-14.51 -29.02,-23.47 -49.07,-23.47h-512c-20.05,0 -37.54,8.96 -49.49,23.47l-58.88,71.68c-12.37,14.51 -19.63,33.7 -19.63,54.18v533.34c0,46.93 38.4,85.33 85.33,85.33h597.34c46.93,0 85.33,-38.4 85.33,-85.33v-533.34c0,-20.48 -7.26,-39.67 -19.63,-54.18zM512,746.67l-234.67,-234.67h149.34v-85.33h170.66v85.33h149.34zM218.45,213.33l34.56,-42.66h512l40.11,42.66z" fill="#000000" filter="url(#filter-X9qqJ2fu)"/>
		</g>
	</g>
</svg>