<svg version="1.1" xmlns="http://www.w3.org/2000/svg" xmlns:xlink="http://www.w3.org/1999/xlink" viewBox="0,0,1024,1024">
	<!-- Color names: teamapps-color-1, teamapps-color-2, teamapps-color-3 -->
	<desc>assignment icon - Licensed under Apache License v2.0 (http://www.apache.org/licenses/LICENSE-2.0) - Created with Iconfu.com - Derivative work of Material icons (Copyright Google Inc.)</desc>
	<defs>
		<clipPath id="clip-UYqen2dU">
			<path d="M896,213.33v597.34c0,46.93 -38.4,85.33 -85.33,85.33h-597.34c-46.93,0 -85.33,-38.4 -85.33,-85.33v-597.34c0,-46.93 38.4,-85.33 85.33,-85.33h178.35c17.92,-49.49 64.85,-85.33 120.32,-85.33c55.47,0 102.4,35.84 120.32,85.33h178.35c46.93,0 85.33,38.4 85.33,85.33zM725.33,298.67h-426.66v85.33h426.66zM725.33,469.33h-426.66v85.34h426.66zM597.33,640h-298.66v85.33h298.66zM469.33,170.67c0,23.47 19.2,42.66 42.67,42.66c23.47,0 42.67,-19.19 42.67,-42.66c0,-23.47 -19.2,-42.67 -42.67,-42.67c-23.47,0 -42.67,19.2 -42.67,42.67z"/>
		</clipPath>
		<linearGradient x1="0" y1="1024" x2="1024" y2="0" id="color-6F0AH5Gn" gradientUnits="userSpaceOnUse">
			<stop offset="0.2" stop-color="#000000"/>
			<stop offset="0.8" stop-color="#ffffff"/>
		</linearGradient>
		<radialGradient cx="0" cy="0" r="1448.15" id="color-lsXFAmhO" gradientUnits="userSpaceOnUse">
			<stop offset="0.07" stop-color="#ffffff"/>
			<stop offset="0.75" stop-color="#000000"/>
		</radialGradient>
		<filter id="filter-8rziBdGQ" color-interpolation-filters="sRGB">
			<feOffset/>
		</filter>
		<filter id="filter-vcd6YBzQ" x="0%" y="0%" width="100%" height="100%" color-interpolation-filters="sRGB">
			<feColorMatrix values="1 0 0 0 0 0 1 0 0 0 0 0 1 0 0 0 0 0 0.05 0" in="SourceGraphic"/>
			<feOffset dy="20"/>
			<feGaussianBlur stdDeviation="11" result="blur0"/>
			<feColorMatrix values="1 0 0 0 0 0 1 0 0 0 0 0 1 0 0 0 0 0 0.07 0" in="SourceGraphic"/>
			<feOffset dy="30"/>
			<feGaussianBlur stdDeviation="20" result="blur1"/>
			<feMerge>
				<feMergeNode in="blur0"/>
				<feMergeNode in="blur1"/>
			</feMerge>
		</filter>
		<mask id="mask-a1j7Ldvs">
			<path d="M896,213.33v597.34c0,46.93 -38.4,85.33 -85.33,85.33h-597.34c-46.93,0 -85.33,-38.4 -85.33,-85.33v-597.34c0,-46.93 38.4,-85.33 85.33,-85.33h178.35c17.92,-49.49 64.85,-85.33 120.32,-85.33c55.47,0 102.4,35.84 120.32,85.33h178.35c46.93,0 85.33,38.4 85.33,85.33zM725.33,298.67h-426.66v85.33h426.66zM725.33,469.33h-426.66v85.34h426.66zM597.33,640h-298.66v85.33h298.66zM469.33,170.67c0,23.47 19.2,42.66 42.67,42.66c23.47,0 42.67,-19.19 42.67,-42.66c0,-23.47 -19.2,-42.67 -42.67,-42.67c-23.47,0 -42.67,19.2 -42.67,42.67z" fill="url(#color-lsXFAmhO)"/>
		</mask>
		<mask id="mask-feOC7QzW">
			<rect fill="url(#color-6F0AH5Gn)" x="128" y="42.67" width="768" height="853.33"/>
		</mask>
		<mask id="mask-sHKSXf6l">
			<path d="M896,213.33v597.34c0,46.93 -38.4,85.33 -85.33,85.33h-597.34c-46.93,0 -85.33,-38.4 -85.33,-85.33v-597.34c0,-46.93 38.4,-85.33 85.33,-85.33h178.35c17.92,-49.49 64.85,-85.33 120.32,-85.33c55.47,0 102.4,35.84 120.32,85.33h178.35c46.93,0 85.33,38.4 85.33,85.33zM725.33,298.67h-426.66v85.33h426.66zM725.33,469.33h-426.66v85.34h426.66zM597.33,640h-298.66v85.33h298.66zM469.33,170.67c0,23.47 19.2,42.66 42.67,42.66c23.47,0 42.67,-19.19 42.67,-42.66c0,-23.47 -19.2,-42.67 -42.67,-42.67c-23.47,0 -42.67,19.2 -42.67,42.67z" fill="#ffffff"/>
		</mask>
	</defs>
	<g fill="none" fill-rule="nonzero" style="mix-blend-mode: normal">
		<g mask="url(#mask-sHKSXf6l)">
			<g color="#ffc107" class="teamapps-color-2">
				<rect x="128" y="42.67" width="768" height="853.33" fill="currentColor"/>
			</g>
			<g color="#e65100" class="teamapps-color-3" mask="url(#mask-feOC7QzW)">
				<rect x="128" y="42.67" width="768" height="853.33" fill="currentColor"/>
			</g>
		</g>
		<g filter="url(#filter-8rziBdGQ)" mask="url(#mask-a1j7Ldvs)">
			<g color="#fff59d" class="teamapps-color-1">
				<rect x="128" y="42.67" width="768" height="853.33" fill="currentColor"/>
			</g>
		</g>
		<g clip-path="url(#clip-UYqen2dU)">
			<path d="M35,939v-1039.33h954v1039.33zM810.67,128h-178.35c-17.92,-49.49 -64.85,-85.33 -120.32,-85.33c-55.47,0 -102.4,35.84 -120.32,85.33h-178.35c-46.93,0 -85.33,38.4 -85.33,85.33v597.34c0,46.93 38.4,85.33 85.33,85.33h597.34c46.93,0 85.33,-38.4 85.33,-85.33v-597.34c0,-46.93 -38.4,-85.33 -85.33,-85.33zM725.33,384h-426.66v-85.33h426.66zM725.33,554.67h-426.66v-85.34h426.66zM597.33,725.33h-298.66v-85.33h298.66zM512,128c23.47,0 42.67,19.2 42.67,42.67c0,23.47 -19.2,42.66 -42.67,42.66c-23.47,0 -42.67,-19.19 -42.67,-42.66c0,-23.47 19.2,-42.67 42.67,-42.67z" fill="#000000" filter="url(#filter-vcd6YBzQ)"/>
		</g>
	</g>
</svg>