<svg version="1.1" xmlns="http://www.w3.org/2000/svg" xmlns:xlink="http://www.w3.org/1999/xlink" viewBox="0,0,1024,1024">
	<!-- Color names: teamapps-color-1, teamapps-color-2, teamapps-color-3 -->
	<desc>assistant_photo icon - Licensed under Apache License v2.0 (http://www.apache.org/licenses/LICENSE-2.0) - Created with Iconfu.com - Derivative work of Material icons (Copyright Google Inc.)</desc>
	<defs>
		<clipPath id="clip-on7i52gQ">
			<path d="M853.33,256v426.67h-298.66l-17.07,-85.34h-238.93v298.67h-85.34v-725.33h384l17.07,85.33z"/>
		</clipPath>
		<radialGradient cx="0" cy="0" r="1448.15" id="color-df9Hia7Z" gradientUnits="userSpaceOnUse">
			<stop offset="0.07" stop-color="#ffffff"/>
			<stop offset="0.75" stop-color="#000000"/>
		</radialGradient>
		<linearGradient x1="0" y1="1024" x2="1024" y2="0" id="color-MjSNo6Hb" gradientUnits="userSpaceOnUse">
			<stop offset="0.2" stop-color="#000000"/>
			<stop offset="0.8" stop-color="#ffffff"/>
		</linearGradient>
		<filter id="filter-JTaoDgOe" color-interpolation-filters="sRGB">
			<feOffset/>
		</filter>
		<filter id="filter-r9vvruDU" x="0%" y="0%" width="100%" height="100%" color-interpolation-filters="sRGB">
			<feColorMatrix values="1 0 0 0 0 0 1 0 0 0 0 0 1 0 0 0 0 0 0.05 0" in="SourceGraphic"/>
			<feOffset dy="20"/>
			<feGaussianBlur stdDeviation="11" result="blur0"/>
			<feColorMatrix values="1 0 0 0 0 0 1 0 0 0 0 0 1 0 0 0 0 0 0.07 0" in="SourceGraphic"/>
			<feOffset dy="30"/>
			<feGaussianBlur stdDeviation="20" result="blur1"/>
			<feMerge>
				<feMergeNode in="blur0"/>
				<feMergeNode in="blur1"/>
			</feMerge>
		</filter>
		<mask id="mask-E2tWLFOx">
			<path d="M853.33,256v426.67h-298.66l-17.07,-85.34h-238.93v298.67h-85.34v-725.33h384l17.07,85.33z" fill="url(#color-df9Hia7Z)"/>
		</mask>
		<mask id="mask-RjllGagO">
			<rect fill="url(#color-MjSNo6Hb)" x="213.33" y="170.67" width="640" height="725.33"/>
		</mask>
		<mask id="mask-y3eTc15O">
			<path d="M853.33,256v426.67h-298.66l-17.07,-85.34h-238.93v298.67h-85.34v-725.33h384l17.07,85.33z" fill="#ffffff"/>
		</mask>
	</defs>
	<g fill="none" fill-rule="nonzero" style="mix-blend-mode: normal">
		<g mask="url(#mask-y3eTc15O)">
			<g color="#ffc107" class="teamapps-color-2">
				<rect x="213.33" y="170.67" width="640" height="725.33" fill="currentColor"/>
			</g>
			<g color="#e65100" class="teamapps-color-3" mask="url(#mask-RjllGagO)">
				<rect x="213.33" y="170.67" width="640" height="725.33" fill="currentColor"/>
			</g>
		</g>
		<g filter="url(#filter-JTaoDgOe)" mask="url(#mask-E2tWLFOx)">
			<g color="#fff59d" class="teamapps-color-1">
				<rect x="213.33" y="170.67" width="640" height="725.33" fill="currentColor"/>
			</g>
		</g>
		<g clip-path="url(#clip-on7i52gQ)">
			<path d="M120.33,939v-911.33h826v911.33zM614.4,256l-17.07,-85.33h-384v725.33h85.34v-298.67h238.93l17.07,85.34h298.66v-426.67z" fill="#000000" filter="url(#filter-r9vvruDU)"/>
		</g>
	</g>
</svg>