<svg version="1.1" xmlns="http://www.w3.org/2000/svg" xmlns:xlink="http://www.w3.org/1999/xlink" viewBox="0,0,1024,1024">
	<!-- Color names: teamapps-color-1, teamapps-color-2, teamapps-color-3 -->
	<desc>attachment icon - Licensed under Apache License v2.0 (http://www.apache.org/licenses/LICENSE-2.0) - Created with Iconfu.com - Derivative work of Material icons (Copyright Google Inc.)</desc>
	<defs>
		<clipPath id="clip-ajzqRYAA">
			<path d="M85.33,533.33c0,-129.71 104.96,-234.66 234.67,-234.66h448c94.29,0 170.67,76.37 170.67,170.66c0,94.29 -76.38,170.67 -170.67,170.67h-362.67c-58.88,0 -106.66,-47.79 -106.66,-106.67c0,-58.88 47.78,-106.66 106.66,-106.66h320v85.33h-323.84c-23.47,0 -23.47,42.67 0,42.67h366.51c46.93,0 85.33,-38.41 85.33,-85.34c0,-46.93 -38.4,-85.33 -85.33,-85.33h-448c-82.35,0 -149.33,66.98 -149.33,149.33c0,82.35 66.98,149.34 149.33,149.34h405.33v85.33h-405.33c-129.71,0 -234.67,-104.96 -234.67,-234.67z"/>
		</clipPath>
		<linearGradient x1="0" y1="1024" x2="1024" y2="0" id="color-U9IgIQ2C" gradientUnits="userSpaceOnUse">
			<stop offset="0.2" stop-color="#000000"/>
			<stop offset="0.8" stop-color="#ffffff"/>
		</linearGradient>
		<radialGradient cx="0" cy="0" r="1448.15" id="color-ZYWlWFSk" gradientUnits="userSpaceOnUse">
			<stop offset="0.07" stop-color="#ffffff"/>
			<stop offset="0.75" stop-color="#000000"/>
		</radialGradient>
		<filter id="filter-RabrqNst" color-interpolation-filters="sRGB">
			<feOffset/>
		</filter>
		<filter id="filter-uAmCO8RH" x="0%" y="0%" width="100%" height="100%" color-interpolation-filters="sRGB">
			<feColorMatrix values="1 0 0 0 0 0 1 0 0 0 0 0 1 0 0 0 0 0 0.05 0" in="SourceGraphic"/>
			<feOffset dy="20"/>
			<feGaussianBlur stdDeviation="11" result="blur0"/>
			<feColorMatrix values="1 0 0 0 0 0 1 0 0 0 0 0 1 0 0 0 0 0 0.07 0" in="SourceGraphic"/>
			<feOffset dy="30"/>
			<feGaussianBlur stdDeviation="20" result="blur1"/>
			<feMerge>
				<feMergeNode in="blur0"/>
				<feMergeNode in="blur1"/>
			</feMerge>
		</filter>
		<mask id="mask-7SXp649G">
			<rect fill="url(#color-U9IgIQ2C)" x="85.33" y="298.67" width="853.34" height="469.33"/>
		</mask>
		<mask id="mask-n9PnshHs">
			<path d="M85.33,533.33c0,-129.71 104.96,-234.66 234.67,-234.66h448c94.29,0 170.67,76.37 170.67,170.66c0,94.29 -76.38,170.67 -170.67,170.67h-362.67c-58.88,0 -106.66,-47.79 -106.66,-106.67c0,-58.88 47.78,-106.66 106.66,-106.66h320v85.33h-323.84c-23.47,0 -23.47,42.67 0,42.67h366.51c46.93,0 85.33,-38.41 85.33,-85.34c0,-46.93 -38.4,-85.33 -85.33,-85.33h-448c-82.35,0 -149.33,66.98 -149.33,149.33c0,82.35 66.98,149.34 149.33,149.34h405.33v85.33h-405.33c-129.71,0 -234.67,-104.96 -234.67,-234.67z" fill="url(#color-ZYWlWFSk)"/>
		</mask>
		<mask id="mask-WqYesFHN">
			<path d="M85.33,533.33c0,-129.71 104.96,-234.66 234.67,-234.66h448c94.29,0 170.67,76.37 170.67,170.66c0,94.29 -76.38,170.67 -170.67,170.67h-362.67c-58.88,0 -106.66,-47.79 -106.66,-106.67c0,-58.88 47.78,-106.66 106.66,-106.66h320v85.33h-323.84c-23.47,0 -23.47,42.67 0,42.67h366.51c46.93,0 85.33,-38.41 85.33,-85.34c0,-46.93 -38.4,-85.33 -85.33,-85.33h-448c-82.35,0 -149.33,66.98 -149.33,149.33c0,82.35 66.98,149.34 149.33,149.34h405.33v85.33h-405.33c-129.71,0 -234.67,-104.96 -234.67,-234.67z" fill="#ffffff"/>
		</mask>
	</defs>
	<g fill="none" fill-rule="nonzero" style="mix-blend-mode: normal">
		<g mask="url(#mask-WqYesFHN)">
			<g color="#ffc107" class="teamapps-color-2">
				<rect x="85.33" y="298.67" width="853.34" height="469.33" fill="currentColor"/>
			</g>
			<g color="#e65100" class="teamapps-color-3" mask="url(#mask-7SXp649G)">
				<rect x="85.33" y="298.67" width="853.34" height="469.33" fill="currentColor"/>
			</g>
		</g>
		<g filter="url(#filter-RabrqNst)" mask="url(#mask-n9PnshHs)">
			<g color="#fff59d" class="teamapps-color-1">
				<rect x="85.33" y="298.67" width="853.34" height="469.33" fill="currentColor"/>
			</g>
		</g>
		<g clip-path="url(#clip-ajzqRYAA)">
			<path d="M-7.67,811v-655.33h1039.34v655.33zM320,768h405.33v-85.33h-405.33c-82.35,0 -149.33,-66.99 -149.33,-149.34c0,-82.35 66.98,-149.33 149.33,-149.33h448c46.93,0 85.33,38.4 85.33,85.33c0,46.93 -38.4,85.34 -85.33,85.34h-366.51c-23.47,0 -23.47,-42.67 0,-42.67h323.84v-85.33h-320c-58.88,0 -106.66,47.78 -106.66,106.66c0,58.88 47.78,106.67 106.66,106.67h362.67c94.29,0 170.67,-76.38 170.67,-170.67c0,-94.29 -76.38,-170.66 -170.67,-170.66h-448c-129.71,0 -234.67,104.95 -234.67,234.66c0,129.71 104.96,234.67 234.67,234.67z" fill="#000000" filter="url(#filter-uAmCO8RH)"/>
		</g>
	</g>
</svg>