<svg version="1.1" xmlns="http://www.w3.org/2000/svg" xmlns:xlink="http://www.w3.org/1999/xlink" viewBox="0,0,1024,1024">
	<!-- Color names: teamapps-color-1, teamapps-color-2, teamapps-color-3 -->
	<desc>blur_circular icon - Licensed under Apache License v2.0 (http://www.apache.org/licenses/LICENSE-2.0) - Created with Iconfu.com - Derivative work of Material icons (Copyright Google Inc.)</desc>
	<defs>
		<clipPath id="clip-mRe99DFl">
			<path d="M938.67,512c0,235.52 -191.15,426.67 -426.67,426.67c-235.52,0 -426.67,-191.15 -426.67,-426.67c0,-235.52 191.15,-426.67 426.67,-426.67c235.52,0 426.67,191.15 426.67,426.67zM853.33,512c0,-188.59 -152.74,-341.33 -341.33,-341.33c-188.59,0 -341.33,152.74 -341.33,341.33c0,188.59 152.74,341.33 341.33,341.33c188.59,0 341.33,-152.74 341.33,-341.33zM640,597.33c0,23.47 -19.2,42.67 -42.67,42.67c-23.47,0 -42.66,-19.2 -42.66,-42.67c0,-23.47 19.19,-42.66 42.66,-42.66c23.47,0 42.67,19.19 42.67,42.66zM469.33,597.33c0,23.47 -19.19,42.67 -42.66,42.67c-23.47,0 -42.67,-19.2 -42.67,-42.67c0,-23.47 19.2,-42.66 42.67,-42.66c23.47,0 42.66,19.19 42.66,42.66zM640,426.67c0,23.47 -19.2,42.66 -42.67,42.66c-23.47,0 -42.66,-19.19 -42.66,-42.66c0,-23.47 19.19,-42.67 42.66,-42.67c23.47,0 42.67,19.2 42.67,42.67zM469.33,426.67c0,23.47 -19.19,42.66 -42.66,42.66c-23.47,0 -42.67,-19.19 -42.67,-42.66c0,-23.47 19.2,-42.67 42.67,-42.67c23.47,0 42.66,19.2 42.66,42.67zM320,426.67c0,11.95 -9.38,21.33 -21.33,21.33c-11.95,0 -21.34,-9.38 -21.34,-21.33c0,-11.95 9.39,-21.34 21.34,-21.34c11.95,0 21.33,9.39 21.33,21.34zM405.33,298.67c0,-11.95 9.39,-21.34 21.34,-21.34c11.95,0 21.33,9.39 21.33,21.34c0,11.95 -9.38,21.33 -21.33,21.33c-11.95,0 -21.34,-9.38 -21.34,-21.33zM448,725.33c0,11.95 -9.38,21.34 -21.33,21.34c-11.95,0 -21.34,-9.39 -21.34,-21.34c0,-11.95 9.39,-21.33 21.34,-21.33c11.95,0 21.33,9.38 21.33,21.33zM320,597.33c0,11.95 -9.38,21.34 -21.33,21.34c-11.95,0 -21.34,-9.39 -21.34,-21.34c0,-11.95 9.39,-21.33 21.34,-21.33c11.95,0 21.33,9.38 21.33,21.33zM576,298.67c0,-11.95 9.38,-21.34 21.33,-21.34c11.95,0 21.34,9.39 21.34,21.34c0,11.95 -9.39,21.33 -21.34,21.33c-11.95,0 -21.33,-9.38 -21.33,-21.33zM746.67,426.67c0,11.95 -9.39,21.33 -21.34,21.33c-11.95,0 -21.33,-9.38 -21.33,-21.33c0,-11.95 9.38,-21.34 21.33,-21.34c11.95,0 21.34,9.39 21.34,21.34zM746.67,597.33c0,11.95 -9.39,21.34 -21.34,21.34c-11.95,0 -21.33,-9.39 -21.33,-21.34c0,-11.95 9.38,-21.33 21.33,-21.33c11.95,0 21.34,9.38 21.34,21.33zM618.67,725.33c0,11.95 -9.39,21.34 -21.34,21.34c-11.95,0 -21.33,-9.39 -21.33,-21.34c0,-11.95 9.38,-21.33 21.33,-21.33c11.95,0 21.34,9.38 21.34,21.33z"/>
		</clipPath>
		<radialGradient cx="0" cy="0" r="1448.15" id="color-8oaKpXJf" gradientUnits="userSpaceOnUse">
			<stop offset="0.07" stop-color="#ffffff"/>
			<stop offset="0.75" stop-color="#000000"/>
		</radialGradient>
		<linearGradient x1="0" y1="1024" x2="1024" y2="0" id="color-p3C3r28M" gradientUnits="userSpaceOnUse">
			<stop offset="0.2" stop-color="#000000"/>
			<stop offset="0.8" stop-color="#ffffff"/>
		</linearGradient>
		<filter id="filter-SkfOsQ9Z" x="0%" y="0%" width="100%" height="100%" color-interpolation-filters="sRGB">
			<feColorMatrix values="1 0 0 0 0 0 1 0 0 0 0 0 1 0 0 0 0 0 0.05 0" in="SourceGraphic"/>
			<feOffset dy="20"/>
			<feGaussianBlur stdDeviation="11" result="blur0"/>
			<feColorMatrix values="1 0 0 0 0 0 1 0 0 0 0 0 1 0 0 0 0 0 0.07 0" in="SourceGraphic"/>
			<feOffset dy="30"/>
			<feGaussianBlur stdDeviation="20" result="blur1"/>
			<feMerge>
				<feMergeNode in="blur0"/>
				<feMergeNode in="blur1"/>
			</feMerge>
		</filter>
		<filter id="filter-t5S3dl6X" color-interpolation-filters="sRGB">
			<feOffset/>
		</filter>
		<mask id="mask-kfXtJ3T1">
			<path d="M938.67,512c0,235.52 -191.15,426.67 -426.67,426.67c-235.52,0 -426.67,-191.15 -426.67,-426.67c0,-235.52 191.15,-426.67 426.67,-426.67c235.52,0 426.67,191.15 426.67,426.67zM853.33,512c0,-188.59 -152.74,-341.33 -341.33,-341.33c-188.59,0 -341.33,152.74 -341.33,341.33c0,188.59 152.74,341.33 341.33,341.33c188.59,0 341.33,-152.74 341.33,-341.33zM640,597.33c0,23.47 -19.2,42.67 -42.67,42.67c-23.47,0 -42.66,-19.2 -42.66,-42.67c0,-23.47 19.19,-42.66 42.66,-42.66c23.47,0 42.67,19.19 42.67,42.66zM469.33,597.33c0,23.47 -19.19,42.67 -42.66,42.67c-23.47,0 -42.67,-19.2 -42.67,-42.67c0,-23.47 19.2,-42.66 42.67,-42.66c23.47,0 42.66,19.19 42.66,42.66zM640,426.67c0,23.47 -19.2,42.66 -42.67,42.66c-23.47,0 -42.66,-19.19 -42.66,-42.66c0,-23.47 19.19,-42.67 42.66,-42.67c23.47,0 42.67,19.2 42.67,42.67zM469.33,426.67c0,23.47 -19.19,42.66 -42.66,42.66c-23.47,0 -42.67,-19.19 -42.67,-42.66c0,-23.47 19.2,-42.67 42.67,-42.67c23.47,0 42.66,19.2 42.66,42.67zM320,426.67c0,11.95 -9.38,21.33 -21.33,21.33c-11.95,0 -21.34,-9.38 -21.34,-21.33c0,-11.95 9.39,-21.34 21.34,-21.34c11.95,0 21.33,9.39 21.33,21.34zM405.33,298.67c0,-11.95 9.39,-21.34 21.34,-21.34c11.95,0 21.33,9.39 21.33,21.34c0,11.95 -9.38,21.33 -21.33,21.33c-11.95,0 -21.34,-9.38 -21.34,-21.33zM448,725.33c0,11.95 -9.38,21.34 -21.33,21.34c-11.95,0 -21.34,-9.39 -21.34,-21.34c0,-11.95 9.39,-21.33 21.34,-21.33c11.95,0 21.33,9.38 21.33,21.33zM320,597.33c0,11.95 -9.38,21.34 -21.33,21.34c-11.95,0 -21.34,-9.39 -21.34,-21.34c0,-11.95 9.39,-21.33 21.34,-21.33c11.95,0 21.33,9.38 21.33,21.33zM576,298.67c0,-11.95 9.38,-21.34 21.33,-21.34c11.95,0 21.34,9.39 21.34,21.34c0,11.95 -9.39,21.33 -21.34,21.33c-11.95,0 -21.33,-9.38 -21.33,-21.33zM746.67,426.67c0,11.95 -9.39,21.33 -21.34,21.33c-11.95,0 -21.33,-9.38 -21.33,-21.33c0,-11.95 9.38,-21.34 21.33,-21.34c11.95,0 21.34,9.39 21.34,21.34zM746.67,597.33c0,11.95 -9.39,21.34 -21.34,21.34c-11.95,0 -21.33,-9.39 -21.33,-21.34c0,-11.95 9.38,-21.33 21.33,-21.33c11.95,0 21.34,9.38 21.34,21.33zM618.67,725.33c0,11.95 -9.39,21.34 -21.34,21.34c-11.95,0 -21.33,-9.39 -21.33,-21.34c0,-11.95 9.38,-21.33 21.33,-21.33c11.95,0 21.34,9.38 21.34,21.33z" fill="#ffffff"/>
		</mask>
		<mask id="mask-L4IGdAR6">
			<path d="M938.67,512c0,235.52 -191.15,426.67 -426.67,426.67c-235.52,0 -426.67,-191.15 -426.67,-426.67c0,-235.52 191.15,-426.67 426.67,-426.67c235.52,0 426.67,191.15 426.67,426.67zM853.33,512c0,-188.59 -152.74,-341.33 -341.33,-341.33c-188.59,0 -341.33,152.74 -341.33,341.33c0,188.59 152.74,341.33 341.33,341.33c188.59,0 341.33,-152.74 341.33,-341.33zM640,597.33c0,23.47 -19.2,42.67 -42.67,42.67c-23.47,0 -42.66,-19.2 -42.66,-42.67c0,-23.47 19.19,-42.66 42.66,-42.66c23.47,0 42.67,19.19 42.67,42.66zM469.33,597.33c0,23.47 -19.19,42.67 -42.66,42.67c-23.47,0 -42.67,-19.2 -42.67,-42.67c0,-23.47 19.2,-42.66 42.67,-42.66c23.47,0 42.66,19.19 42.66,42.66zM640,426.67c0,23.47 -19.2,42.66 -42.67,42.66c-23.47,0 -42.66,-19.19 -42.66,-42.66c0,-23.47 19.19,-42.67 42.66,-42.67c23.47,0 42.67,19.2 42.67,42.67zM469.33,426.67c0,23.47 -19.19,42.66 -42.66,42.66c-23.47,0 -42.67,-19.19 -42.67,-42.66c0,-23.47 19.2,-42.67 42.67,-42.67c23.47,0 42.66,19.2 42.66,42.67zM320,426.67c0,11.95 -9.38,21.33 -21.33,21.33c-11.95,0 -21.34,-9.38 -21.34,-21.33c0,-11.95 9.39,-21.34 21.34,-21.34c11.95,0 21.33,9.39 21.33,21.34zM405.33,298.67c0,-11.95 9.39,-21.34 21.34,-21.34c11.95,0 21.33,9.39 21.33,21.34c0,11.95 -9.38,21.33 -21.33,21.33c-11.95,0 -21.34,-9.38 -21.34,-21.33zM448,725.33c0,11.95 -9.38,21.34 -21.33,21.34c-11.95,0 -21.34,-9.39 -21.34,-21.34c0,-11.95 9.39,-21.33 21.34,-21.33c11.95,0 21.33,9.38 21.33,21.33zM320,597.33c0,11.95 -9.38,21.34 -21.33,21.34c-11.95,0 -21.34,-9.39 -21.34,-21.34c0,-11.95 9.39,-21.33 21.34,-21.33c11.95,0 21.33,9.38 21.33,21.33zM576,298.67c0,-11.95 9.38,-21.34 21.33,-21.34c11.95,0 21.34,9.39 21.34,21.34c0,11.95 -9.39,21.33 -21.34,21.33c-11.95,0 -21.33,-9.38 -21.33,-21.33zM746.67,426.67c0,11.95 -9.39,21.33 -21.34,21.33c-11.95,0 -21.33,-9.38 -21.33,-21.33c0,-11.95 9.38,-21.34 21.33,-21.34c11.95,0 21.34,9.39 21.34,21.34zM746.67,597.33c0,11.95 -9.39,21.34 -21.34,21.34c-11.95,0 -21.33,-9.39 -21.33,-21.34c0,-11.95 9.38,-21.33 21.33,-21.33c11.95,0 21.34,9.38 21.34,21.33zM618.67,725.33c0,11.95 -9.39,21.34 -21.34,21.34c-11.95,0 -21.33,-9.39 -21.33,-21.34c0,-11.95 9.38,-21.33 21.33,-21.33c11.95,0 21.34,9.38 21.34,21.33z" fill="url(#color-8oaKpXJf)"/>
		</mask>
		<mask id="mask-QyqJ23fC">
			<rect fill="url(#color-p3C3r28M)" x="85.33" y="85.33" width="853.34" height="853.34"/>
		</mask>
	</defs>
	<g fill="none" fill-rule="nonzero" style="mix-blend-mode: normal">
		<g mask="url(#mask-kfXtJ3T1)">
			<g color="#ffc107" class="teamapps-color-2">
				<rect x="85.33" y="85.33" width="853.34" height="853.34" fill="currentColor"/>
			</g>
			<g color="#e65100" class="teamapps-color-3" mask="url(#mask-QyqJ23fC)">
				<rect x="85.33" y="85.33" width="853.34" height="853.34" fill="currentColor"/>
			</g>
		</g>
		<g filter="url(#filter-t5S3dl6X)" mask="url(#mask-L4IGdAR6)">
			<g color="#fff59d" class="teamapps-color-1">
				<rect x="85.33" y="85.33" width="853.34" height="853.34" fill="currentColor"/>
			</g>
		</g>
		<g clip-path="url(#clip-mRe99DFl)">
			<path d="M-7.67,981.67v-1039.34h1039.34v1039.34zM512,85.33c-235.52,0 -426.67,191.15 -426.67,426.67c0,235.52 191.15,426.67 426.67,426.67c235.52,0 426.67,-191.15 426.67,-426.67c0,-235.52 -191.15,-426.67 -426.67,-426.67zM512,853.33c-188.59,0 -341.33,-152.74 -341.33,-341.33c0,-188.59 152.74,-341.33 341.33,-341.33c188.59,0 341.33,152.74 341.33,341.33c0,188.59 -152.74,341.33 -341.33,341.33zM597.33,554.67c-23.47,0 -42.66,19.19 -42.66,42.66c0,23.47 19.19,42.67 42.66,42.67c23.47,0 42.67,-19.2 42.67,-42.67c0,-23.47 -19.2,-42.66 -42.67,-42.66zM426.67,554.67c-23.47,0 -42.67,19.19 -42.67,42.66c0,23.47 19.2,42.67 42.67,42.67c23.47,0 42.66,-19.2 42.66,-42.67c0,-23.47 -19.19,-42.66 -42.66,-42.66zM597.33,384c-23.47,0 -42.66,19.2 -42.66,42.67c0,23.47 19.19,42.66 42.66,42.66c23.47,0 42.67,-19.19 42.67,-42.66c0,-23.47 -19.2,-42.67 -42.67,-42.67zM426.67,384c-23.47,0 -42.67,19.2 -42.67,42.67c0,23.47 19.2,42.66 42.67,42.66c23.47,0 42.66,-19.19 42.66,-42.66c0,-23.47 -19.19,-42.67 -42.66,-42.67zM298.67,405.33c-11.95,0 -21.34,9.39 -21.34,21.34c0,11.95 9.39,21.33 21.34,21.33c11.95,0 21.33,-9.38 21.33,-21.33c0,-11.95 -9.38,-21.34 -21.33,-21.34zM426.67,320c11.95,0 21.33,-9.38 21.33,-21.33c0,-11.95 -9.38,-21.34 -21.33,-21.34c-11.95,0 -21.34,9.39 -21.34,21.34c0,11.95 9.39,21.33 21.34,21.33zM426.67,704c-11.95,0 -21.34,9.38 -21.34,21.33c0,11.95 9.39,21.34 21.34,21.34c11.95,0 21.33,-9.39 21.33,-21.34c0,-11.95 -9.38,-21.33 -21.33,-21.33zM298.67,576c-11.95,0 -21.34,9.38 -21.34,21.33c0,11.95 9.39,21.34 21.34,21.34c11.95,0 21.33,-9.39 21.33,-21.34c0,-11.95 -9.38,-21.33 -21.33,-21.33zM597.33,320c11.95,0 21.34,-9.38 21.34,-21.33c0,-11.95 -9.39,-21.34 -21.34,-21.34c-11.95,0 -21.33,9.39 -21.33,21.34c0,11.95 9.38,21.33 21.33,21.33zM725.33,405.33c-11.95,0 -21.33,9.39 -21.33,21.34c0,11.95 9.38,21.33 21.33,21.33c11.95,0 21.34,-9.38 21.34,-21.33c0,-11.95 -9.39,-21.34 -21.34,-21.34zM725.33,576c-11.95,0 -21.33,9.38 -21.33,21.33c0,11.95 9.38,21.34 21.33,21.34c11.95,0 21.34,-9.39 21.34,-21.34c0,-11.95 -9.39,-21.33 -21.34,-21.33zM597.33,704c-11.95,0 -21.33,9.38 -21.33,21.33c0,11.95 9.38,21.34 21.33,21.34c11.95,0 21.34,-9.39 21.34,-21.34c0,-11.95 -9.39,-21.33 -21.34,-21.33z" fill="#000000" filter="url(#filter-SkfOsQ9Z)"/>
		</g>
	</g>
</svg>