<svg version="1.1" xmlns="http://www.w3.org/2000/svg" xmlns:xlink="http://www.w3.org/1999/xlink" viewBox="0,0,1024,1024">
	<!-- Color names: teamapps-color-1, teamapps-color-2, teamapps-color-3 -->
	<desc>bookmark icon - Licensed under Apache License v2.0 (http://www.apache.org/licenses/LICENSE-2.0) - Created with Iconfu.com - Derivative work of Material icons (Copyright Google Inc.)</desc>
	<defs>
		<clipPath id="clip-NMInJ4nY">
			<path d="M810.67,213.33v682.67l-298.67,-128l-298.67,128l0.43,-682.67c0,-46.93 37.98,-85.33 84.91,-85.33h426.66c46.93,0 85.34,38.4 85.34,85.33z"/>
		</clipPath>
		<radialGradient cx="0" cy="0" r="1448.15" id="color-A2RBXYjf" gradientUnits="userSpaceOnUse">
			<stop offset="0.07" stop-color="#ffffff"/>
			<stop offset="0.75" stop-color="#000000"/>
		</radialGradient>
		<linearGradient x1="0" y1="1024" x2="1024" y2="0" id="color-fguEJUzt" gradientUnits="userSpaceOnUse">
			<stop offset="0.2" stop-color="#000000"/>
			<stop offset="0.8" stop-color="#ffffff"/>
		</linearGradient>
		<filter id="filter-5QXoAdTK" x="0%" y="0%" width="100%" height="100%" color-interpolation-filters="sRGB">
			<feColorMatrix values="1 0 0 0 0 0 1 0 0 0 0 0 1 0 0 0 0 0 0.05 0" in="SourceGraphic"/>
			<feOffset dy="20"/>
			<feGaussianBlur stdDeviation="11" result="blur0"/>
			<feColorMatrix values="1 0 0 0 0 0 1 0 0 0 0 0 1 0 0 0 0 0 0.07 0" in="SourceGraphic"/>
			<feOffset dy="30"/>
			<feGaussianBlur stdDeviation="20" result="blur1"/>
			<feMerge>
				<feMergeNode in="blur0"/>
				<feMergeNode in="blur1"/>
			</feMerge>
		</filter>
		<filter id="filter-vRWWzVLL" color-interpolation-filters="sRGB">
			<feOffset/>
		</filter>
		<mask id="mask-1DUFxnRI">
			<rect fill="url(#color-fguEJUzt)" x="213.33" y="128" width="597.34" height="768"/>
		</mask>
		<mask id="mask-73QTh4K4">
			<path d="M810.67,213.33v682.67l-298.67,-128l-298.67,128l0.43,-682.67c0,-46.93 37.98,-85.33 84.91,-85.33h426.66c46.93,0 85.34,38.4 85.34,85.33z" fill="url(#color-A2RBXYjf)"/>
		</mask>
		<mask id="mask-r7HSEo0E">
			<path d="M810.67,213.33v682.67l-298.67,-128l-298.67,128l0.43,-682.67c0,-46.93 37.98,-85.33 84.91,-85.33h426.66c46.93,0 85.34,38.4 85.34,85.33z" fill="#ffffff"/>
		</mask>
	</defs>
	<g fill="none" fill-rule="nonzero" style="mix-blend-mode: normal">
		<g mask="url(#mask-r7HSEo0E)">
			<g color="#ffc107" class="teamapps-color-2">
				<rect x="213.33" y="128" width="597.34" height="768" fill="currentColor"/>
			</g>
			<g color="#e65100" class="teamapps-color-3" mask="url(#mask-1DUFxnRI)">
				<rect x="213.33" y="128" width="597.34" height="768" fill="currentColor"/>
			</g>
		</g>
		<g filter="url(#filter-vRWWzVLL)" mask="url(#mask-73QTh4K4)">
			<g color="#fff59d" class="teamapps-color-1">
				<rect x="213.33" y="128" width="597.34" height="768" fill="currentColor"/>
			</g>
		</g>
		<g clip-path="url(#clip-NMInJ4nY)">
			<path d="M120.33,939v-954h783.34v954zM725.33,128h-426.66c-46.93,0 -84.91,38.4 -84.91,85.33l-0.43,682.67l298.67,-128l298.67,128v-682.67c0,-46.93 -38.41,-85.33 -85.34,-85.33z" fill="#000000" filter="url(#filter-5QXoAdTK)"/>
		</g>
	</g>
</svg>