<svg version="1.1" xmlns="http://www.w3.org/2000/svg" xmlns:xlink="http://www.w3.org/1999/xlink" viewBox="0,0,1024,1024">
	<!-- Color names: teamapps-color-1, teamapps-color-2, teamapps-color-3 -->
	<desc>business_center icon - Licensed under Apache License v2.0 (http://www.apache.org/licenses/LICENSE-2.0) - Created with Iconfu.com - Derivative work of Material icons (Copyright Google Inc.)</desc>
	<defs>
		<clipPath id="clip-9UAA53ut">
			<path d="M938.67,384v128c0,46.93 -38.41,85.33 -85.34,85.33h-256v-85.33h-170.66v85.33h-256c-47.36,0 -85.34,-37.97 -85.34,-85.33v-128c0,-46.93 38.41,-85.33 85.34,-85.33h170.24v-85.34l85.33,-85.33h170.67l85.33,85.33v85.34h171.09c46.93,0 85.34,38.4 85.34,85.33zM597.33,682.67v-42.67h298.67v170.67c0,47.36 -37.97,85.33 -85.33,85.33h-597.34c-47.36,0 -85.33,-37.97 -85.33,-85.33l0.43,-170.67h298.24v42.67zM597.33,213.33h-170.66v85.34h170.66z"/>
		</clipPath>
		<radialGradient cx="0" cy="0" r="1448.15" id="color-J92JrDax" gradientUnits="userSpaceOnUse">
			<stop offset="0.07" stop-color="#ffffff"/>
			<stop offset="0.75" stop-color="#000000"/>
		</radialGradient>
		<linearGradient x1="0" y1="1024" x2="1024" y2="0" id="color-qq2Ec9AJ" gradientUnits="userSpaceOnUse">
			<stop offset="0.2" stop-color="#000000"/>
			<stop offset="0.8" stop-color="#ffffff"/>
		</linearGradient>
		<filter id="filter-aLplcjRN" color-interpolation-filters="sRGB">
			<feOffset/>
		</filter>
		<filter id="filter-E94XkciC" x="0%" y="0%" width="100%" height="100%" color-interpolation-filters="sRGB">
			<feColorMatrix values="1 0 0 0 0 0 1 0 0 0 0 0 1 0 0 0 0 0 0.05 0" in="SourceGraphic"/>
			<feOffset dy="20"/>
			<feGaussianBlur stdDeviation="11" result="blur0"/>
			<feColorMatrix values="1 0 0 0 0 0 1 0 0 0 0 0 1 0 0 0 0 0 0.07 0" in="SourceGraphic"/>
			<feOffset dy="30"/>
			<feGaussianBlur stdDeviation="20" result="blur1"/>
			<feMerge>
				<feMergeNode in="blur0"/>
				<feMergeNode in="blur1"/>
			</feMerge>
		</filter>
		<mask id="mask-CYsW9cHY">
			<rect fill="url(#color-qq2Ec9AJ)" x="85.33" y="128" width="853.34" height="768"/>
		</mask>
		<mask id="mask-rg8WLGiY">
			<path d="M938.67,384v128c0,46.93 -38.41,85.33 -85.34,85.33h-256v-85.33h-170.66v85.33h-256c-47.36,0 -85.34,-37.97 -85.34,-85.33v-128c0,-46.93 38.41,-85.33 85.34,-85.33h170.24v-85.34l85.33,-85.33h170.67l85.33,85.33v85.34h171.09c46.93,0 85.34,38.4 85.34,85.33zM597.33,682.67v-42.67h298.67v170.67c0,47.36 -37.97,85.33 -85.33,85.33h-597.34c-47.36,0 -85.33,-37.97 -85.33,-85.33l0.43,-170.67h298.24v42.67zM597.33,213.33h-170.66v85.34h170.66z" fill="url(#color-J92JrDax)"/>
		</mask>
		<mask id="mask-Z1cKREPg">
			<path d="M938.67,384v128c0,46.93 -38.41,85.33 -85.34,85.33h-256v-85.33h-170.66v85.33h-256c-47.36,0 -85.34,-37.97 -85.34,-85.33v-128c0,-46.93 38.41,-85.33 85.34,-85.33h170.24v-85.34l85.33,-85.33h170.67l85.33,85.33v85.34h171.09c46.93,0 85.34,38.4 85.34,85.33zM597.33,682.67v-42.67h298.67v170.67c0,47.36 -37.97,85.33 -85.33,85.33h-597.34c-47.36,0 -85.33,-37.97 -85.33,-85.33l0.43,-170.67h298.24v42.67zM597.33,213.33h-170.66v85.34h170.66z" fill="#ffffff"/>
		</mask>
	</defs>
	<g fill="none" fill-rule="nonzero" style="mix-blend-mode: normal">
		<g mask="url(#mask-Z1cKREPg)">
			<g color="#ffc107" class="teamapps-color-2">
				<rect x="85.33" y="128" width="853.34" height="768" fill="currentColor"/>
			</g>
			<g color="#e65100" class="teamapps-color-3" mask="url(#mask-CYsW9cHY)">
				<rect x="85.33" y="128" width="853.34" height="768" fill="currentColor"/>
			</g>
		</g>
		<g filter="url(#filter-aLplcjRN)" mask="url(#mask-rg8WLGiY)">
			<g color="#fff59d" class="teamapps-color-1">
				<rect x="85.33" y="128" width="853.34" height="768" fill="currentColor"/>
			</g>
		</g>
		<g clip-path="url(#clip-9UAA53ut)">
			<path d="M-7.67,939v-954h1039.34v954zM853.33,298.67h-171.09v-85.34l-85.33,-85.33h-170.67l-85.33,85.33v85.34h-170.24c-46.93,0 -85.34,38.4 -85.34,85.33v128c0,47.36 37.98,85.33 85.34,85.33h256v-85.33h170.66v85.33h256c46.93,0 85.34,-38.4 85.34,-85.33v-128c0,-46.93 -38.41,-85.33 -85.34,-85.33zM426.67,682.67v-42.67h-298.24l-0.43,170.67c0,47.36 37.97,85.33 85.33,85.33h597.34c47.36,0 85.33,-37.97 85.33,-85.33v-170.67h-298.67v42.67zM597.33,298.67h-170.66v-85.34h170.66z" fill="#000000" filter="url(#filter-E94XkciC)"/>
		</g>
	</g>
</svg>