<svg version="1.1" xmlns="http://www.w3.org/2000/svg" xmlns:xlink="http://www.w3.org/1999/xlink" viewBox="0,0,1024,1024">
	<!-- Color names: teamapps-color-1, teamapps-color-2, teamapps-color-3 -->
	<desc>cake icon - Licensed under Apache License v2.0 (http://www.apache.org/licenses/LICENSE-2.0) - Created with Iconfu.com - Derivative work of Material icons (Copyright Google Inc.)</desc>
	<defs>
		<clipPath id="clip-ox8R6nac">
			<path d="M895.57,512v65.71c0,46.08 -37.54,83.62 -83.62,83.62c-22.19,0 -43.09,-8.53 -58.88,-24.32l-90.88,-90.88l-91.31,90.88c-31.57,31.57 -86.62,31.57 -118.19,0l-90.88,-90.88l-91.3,90.88c-15.36,15.79 -36.69,24.32 -58.88,24.32c-46.08,0 -83.63,-37.54 -83.63,-83.62v-65.71c0,-70.83 57.17,-128 128,-128h213.33v-85.33h85.34v85.33h213.33c70.83,0 128,57.17 127.57,128zM812.37,725.33c31.15,0 59.74,-9.81 83.63,-26.02v196.69c0,23.47 -19.2,42.67 -42.67,42.67h-682.66c-23.47,0 -42.67,-19.2 -42.67,-42.67v-196.69c23.89,16.21 52.48,26.02 83.63,26.02c39.25,0 76.37,-15.36 104.1,-43.09l46.51,-45.65l45.65,45.65c55.89,55.89 153.17,55.47 208.64,0l46.08,-45.65l45.66,45.65c27.73,27.73 64.85,43.09 104.1,43.09zM426.67,170.67c0,-16.21 4.26,-31.15 12.37,-43.95l72.96,-126.72l72.96,126.72c8.11,12.8 12.37,27.74 12.37,43.95c0,46.93 -37.97,85.33 -85.33,85.33c-46.93,0 -85.33,-38.4 -85.33,-85.33z"/>
		</clipPath>
		<linearGradient x1="0" y1="1024" x2="1024" y2="0" id="color-hAdwT4j0" gradientUnits="userSpaceOnUse">
			<stop offset="0.2" stop-color="#000000"/>
			<stop offset="0.8" stop-color="#ffffff"/>
		</linearGradient>
		<radialGradient cx="0" cy="0" r="1448.15" id="color-vFL8Ekgp" gradientUnits="userSpaceOnUse">
			<stop offset="0.07" stop-color="#ffffff"/>
			<stop offset="0.75" stop-color="#000000"/>
		</radialGradient>
		<filter id="filter-rqmEtOoI" x="0%" y="0%" width="100%" height="100%" color-interpolation-filters="sRGB">
			<feColorMatrix values="1 0 0 0 0 0 1 0 0 0 0 0 1 0 0 0 0 0 0.05 0" in="SourceGraphic"/>
			<feOffset dy="20"/>
			<feGaussianBlur stdDeviation="11" result="blur0"/>
			<feColorMatrix values="1 0 0 0 0 0 1 0 0 0 0 0 1 0 0 0 0 0 0.07 0" in="SourceGraphic"/>
			<feOffset dy="30"/>
			<feGaussianBlur stdDeviation="20" result="blur1"/>
			<feMerge>
				<feMergeNode in="blur0"/>
				<feMergeNode in="blur1"/>
			</feMerge>
		</filter>
		<filter id="filter-Zu2rfcI4" color-interpolation-filters="sRGB">
			<feOffset/>
		</filter>
		<mask id="mask-5xnEbVcx">
			<path d="M895.57,512v65.71c0,46.08 -37.54,83.62 -83.62,83.62c-22.19,0 -43.09,-8.53 -58.88,-24.32l-90.88,-90.88l-91.31,90.88c-31.57,31.57 -86.62,31.57 -118.19,0l-90.88,-90.88l-91.3,90.88c-15.36,15.79 -36.69,24.32 -58.88,24.32c-46.08,0 -83.63,-37.54 -83.63,-83.62v-65.71c0,-70.83 57.17,-128 128,-128h213.33v-85.33h85.34v85.33h213.33c70.83,0 128,57.17 127.57,128zM812.37,725.33c31.15,0 59.74,-9.81 83.63,-26.02v196.69c0,23.47 -19.2,42.67 -42.67,42.67h-682.66c-23.47,0 -42.67,-19.2 -42.67,-42.67v-196.69c23.89,16.21 52.48,26.02 83.63,26.02c39.25,0 76.37,-15.36 104.1,-43.09l46.51,-45.65l45.65,45.65c55.89,55.89 153.17,55.47 208.64,0l46.08,-45.65l45.66,45.65c27.73,27.73 64.85,43.09 104.1,43.09zM426.67,170.67c0,-16.21 4.26,-31.15 12.37,-43.95l72.96,-126.72l72.96,126.72c8.11,12.8 12.37,27.74 12.37,43.95c0,46.93 -37.97,85.33 -85.33,85.33c-46.93,0 -85.33,-38.4 -85.33,-85.33z" fill="url(#color-vFL8Ekgp)"/>
		</mask>
		<mask id="mask-gSeLOkGD">
			<rect fill="url(#color-hAdwT4j0)" x="128" y="0" width="768" height="938.67"/>
		</mask>
		<mask id="mask-sH6uOgid">
			<path d="M895.57,512v65.71c0,46.08 -37.54,83.62 -83.62,83.62c-22.19,0 -43.09,-8.53 -58.88,-24.32l-90.88,-90.88l-91.31,90.88c-31.57,31.57 -86.62,31.57 -118.19,0l-90.88,-90.88l-91.3,90.88c-15.36,15.79 -36.69,24.32 -58.88,24.32c-46.08,0 -83.63,-37.54 -83.63,-83.62v-65.71c0,-70.83 57.17,-128 128,-128h213.33v-85.33h85.34v85.33h213.33c70.83,0 128,57.17 127.57,128zM812.37,725.33c31.15,0 59.74,-9.81 83.63,-26.02v196.69c0,23.47 -19.2,42.67 -42.67,42.67h-682.66c-23.47,0 -42.67,-19.2 -42.67,-42.67v-196.69c23.89,16.21 52.48,26.02 83.63,26.02c39.25,0 76.37,-15.36 104.1,-43.09l46.51,-45.65l45.65,45.65c55.89,55.89 153.17,55.47 208.64,0l46.08,-45.65l45.66,45.65c27.73,27.73 64.85,43.09 104.1,43.09zM426.67,170.67c0,-16.21 4.26,-31.15 12.37,-43.95l72.96,-126.72l72.96,126.72c8.11,12.8 12.37,27.74 12.37,43.95c0,46.93 -37.97,85.33 -85.33,85.33c-46.93,0 -85.33,-38.4 -85.33,-85.33z" fill="#ffffff"/>
		</mask>
	</defs>
	<g fill="none" fill-rule="nonzero" style="mix-blend-mode: normal">
		<g mask="url(#mask-sH6uOgid)">
			<g color="#ffc107" class="teamapps-color-2">
				<rect x="128" y="0" width="768" height="938.67" fill="currentColor"/>
			</g>
			<g color="#e65100" class="teamapps-color-3" mask="url(#mask-gSeLOkGD)">
				<rect x="128" y="0" width="768" height="938.67" fill="currentColor"/>
			</g>
		</g>
		<g filter="url(#filter-Zu2rfcI4)" mask="url(#mask-5xnEbVcx)">
			<g color="#fff59d" class="teamapps-color-1">
				<rect x="128" y="0" width="768" height="938.67" fill="currentColor"/>
			</g>
		</g>
		<g clip-path="url(#clip-ox8R6nac)">
			<path d="M35,981.67v-1124.67h954v1124.67zM768,384h-213.33v-85.33h-85.34v85.33h-213.33c-70.83,0 -128,57.17 -128,128v65.71c0,46.08 37.55,83.62 83.63,83.62c22.19,0 43.52,-8.53 58.88,-24.32l91.3,-90.88l90.88,90.88c31.57,31.57 86.62,31.57 118.19,0l91.31,-90.88l90.88,90.88c15.79,15.79 36.69,24.32 58.88,24.32c46.08,0 83.62,-37.54 83.62,-83.62v-65.71c0.43,-70.83 -56.74,-128 -127.57,-128zM708.27,682.24l-45.66,-45.65l-46.08,45.65c-55.47,55.47 -152.75,55.89 -208.64,0l-45.65,-45.65l-46.51,45.65c-27.73,27.73 -64.85,43.09 -104.1,43.09c-31.15,0 -59.74,-9.81 -83.63,-26.02v196.69c0,23.47 19.2,42.67 42.67,42.67h682.66c23.47,0 42.67,-19.2 42.67,-42.67v-196.69c-23.89,16.21 -52.48,26.02 -83.63,26.02c-39.25,0 -76.37,-15.36 -104.1,-43.09zM512,256c47.36,0 85.33,-38.4 85.33,-85.33c0,-16.21 -4.26,-31.15 -12.37,-43.95l-72.96,-126.72l-72.96,126.72c-8.11,12.8 -12.37,27.74 -12.37,43.95c0,46.93 38.4,85.33 85.33,85.33z" fill="#000000" filter="url(#filter-rqmEtOoI)"/>
		</g>
	</g>
</svg>