<svg version="1.1" xmlns="http://www.w3.org/2000/svg" xmlns:xlink="http://www.w3.org/1999/xlink" viewBox="0,0,1024,1024">
	<!-- Color names: teamapps-color-1, teamapps-color-2, teamapps-color-3 -->
	<desc>call_missed icon - Licensed under Apache License v2.0 (http://www.apache.org/licenses/LICENSE-2.0) - Created with Iconfu.com - Derivative work of Material icons (Copyright Google Inc.)</desc>
	<defs>
		<clipPath id="clip-aggMmysQ">
			<path d="M896,358.83l-384,384l-298.67,-298.67v195.84h-85.33v-341.33h341.33v85.33h-195.84l238.51,238.51l323.84,-323.84z"/>
		</clipPath>
		<radialGradient cx="0" cy="0" r="1448.15" id="color-E9IgQuS1" gradientUnits="userSpaceOnUse">
			<stop offset="0.07" stop-color="#ffffff"/>
			<stop offset="0.75" stop-color="#000000"/>
		</radialGradient>
		<linearGradient x1="0" y1="1024" x2="1024" y2="0" id="color-GJPDT8vC" gradientUnits="userSpaceOnUse">
			<stop offset="0.2" stop-color="#000000"/>
			<stop offset="0.8" stop-color="#ffffff"/>
		</linearGradient>
		<filter id="filter-Fe7UH3x0" x="0%" y="0%" width="100%" height="100%" color-interpolation-filters="sRGB">
			<feColorMatrix values="1 0 0 0 0 0 1 0 0 0 0 0 1 0 0 0 0 0 0.05 0" in="SourceGraphic"/>
			<feOffset dy="20"/>
			<feGaussianBlur stdDeviation="11" result="blur0"/>
			<feColorMatrix values="1 0 0 0 0 0 1 0 0 0 0 0 1 0 0 0 0 0 0.07 0" in="SourceGraphic"/>
			<feOffset dy="30"/>
			<feGaussianBlur stdDeviation="20" result="blur1"/>
			<feMerge>
				<feMergeNode in="blur0"/>
				<feMergeNode in="blur1"/>
			</feMerge>
		</filter>
		<filter id="filter-n3ZpNTPz" color-interpolation-filters="sRGB">
			<feOffset/>
		</filter>
		<mask id="mask-90DMdEM8">
			<path d="M896,358.83l-384,384l-298.67,-298.67v195.84h-85.33v-341.33h341.33v85.33h-195.84l238.51,238.51l323.84,-323.84z" fill="#ffffff"/>
		</mask>
		<mask id="mask-NtpLRG9Z">
			<rect fill="url(#color-GJPDT8vC)" x="128" y="298.67" width="768" height="444.16"/>
		</mask>
		<mask id="mask-vGhwR6Vr">
			<path d="M896,358.83l-384,384l-298.67,-298.67v195.84h-85.33v-341.33h341.33v85.33h-195.84l238.51,238.51l323.84,-323.84z" fill="url(#color-E9IgQuS1)"/>
		</mask>
	</defs>
	<g fill="none" fill-rule="nonzero" style="mix-blend-mode: normal">
		<g mask="url(#mask-90DMdEM8)">
			<g color="#ffc107" class="teamapps-color-2">
				<rect x="128" y="298.67" width="768" height="444.16" fill="currentColor"/>
			</g>
			<g color="#e65100" class="teamapps-color-3" mask="url(#mask-NtpLRG9Z)">
				<rect x="128" y="298.67" width="768" height="444.16" fill="currentColor"/>
			</g>
		</g>
		<g filter="url(#filter-n3ZpNTPz)" mask="url(#mask-vGhwR6Vr)">
			<g color="#fff59d" class="teamapps-color-1">
				<rect x="128" y="298.67" width="768" height="444.16" fill="currentColor"/>
			</g>
		</g>
		<g clip-path="url(#clip-aggMmysQ)">
			<path d="M35,785.83v-630.16h954v630.16zM835.84,298.67l-323.84,323.84l-238.51,-238.51h195.84v-85.33h-341.33v341.33h85.33v-195.84l298.67,298.67l384,-384z" fill="#000000" filter="url(#filter-Fe7UH3x0)"/>
		</g>
	</g>
</svg>