<svg version="1.1" xmlns="http://www.w3.org/2000/svg" xmlns:xlink="http://www.w3.org/1999/xlink" viewBox="0,0,1024,1024">
	<!-- Color names: teamapps-color-1, teamapps-color-2, teamapps-color-3 -->
	<desc>clear icon - Licensed under Apache License v2.0 (http://www.apache.org/licenses/LICENSE-2.0) - Created with Iconfu.com - Derivative work of Material icons (Copyright Google Inc.)</desc>
	<defs>
		<clipPath id="clip-on3cxW3q">
			<path d="M572.16,512l238.51,238.51l-60.16,60.16l-238.51,-238.51l-238.51,238.51l-60.16,-60.16l238.51,-238.51l-238.51,-238.51l60.16,-60.16l238.51,238.51l238.51,-238.51l60.16,60.16z"/>
		</clipPath>
		<linearGradient x1="0" y1="1024" x2="1024" y2="0" id="color-8JPmcWNC" gradientUnits="userSpaceOnUse">
			<stop offset="0.2" stop-color="#000000"/>
			<stop offset="0.8" stop-color="#ffffff"/>
		</linearGradient>
		<radialGradient cx="0" cy="0" r="1448.15" id="color-wEPz8mUy" gradientUnits="userSpaceOnUse">
			<stop offset="0.07" stop-color="#ffffff"/>
			<stop offset="0.75" stop-color="#000000"/>
		</radialGradient>
		<filter id="filter-TmfMRgka" color-interpolation-filters="sRGB">
			<feOffset/>
		</filter>
		<filter id="filter-XrtdbagA" x="0%" y="0%" width="100%" height="100%" color-interpolation-filters="sRGB">
			<feColorMatrix values="1 0 0 0 0 0 1 0 0 0 0 0 1 0 0 0 0 0 0.05 0" in="SourceGraphic"/>
			<feOffset dy="20"/>
			<feGaussianBlur stdDeviation="11" result="blur0"/>
			<feColorMatrix values="1 0 0 0 0 0 1 0 0 0 0 0 1 0 0 0 0 0 0.07 0" in="SourceGraphic"/>
			<feOffset dy="30"/>
			<feGaussianBlur stdDeviation="20" result="blur1"/>
			<feMerge>
				<feMergeNode in="blur0"/>
				<feMergeNode in="blur1"/>
			</feMerge>
		</filter>
		<mask id="mask-0BPwIBAv">
			<path d="M572.16,512l238.51,238.51l-60.16,60.16l-238.51,-238.51l-238.51,238.51l-60.16,-60.16l238.51,-238.51l-238.51,-238.51l60.16,-60.16l238.51,238.51l238.51,-238.51l60.16,60.16z" fill="#ffffff"/>
		</mask>
		<mask id="mask-UwVgLG1P">
			<path d="M572.16,512l238.51,238.51l-60.16,60.16l-238.51,-238.51l-238.51,238.51l-60.16,-60.16l238.51,-238.51l-238.51,-238.51l60.16,-60.16l238.51,238.51l238.51,-238.51l60.16,60.16z" fill="url(#color-wEPz8mUy)"/>
		</mask>
		<mask id="mask-WXQ6GX0t">
			<rect fill="url(#color-8JPmcWNC)" x="213.33" y="213.33" width="597.34" height="597.34"/>
		</mask>
	</defs>
	<g fill="none" fill-rule="nonzero" style="mix-blend-mode: normal">
		<g mask="url(#mask-0BPwIBAv)">
			<g color="#ffc107" class="teamapps-color-2">
				<rect x="213.33" y="213.33" width="597.34" height="597.34" fill="currentColor"/>
			</g>
			<g color="#e65100" class="teamapps-color-3" mask="url(#mask-WXQ6GX0t)">
				<rect x="213.33" y="213.33" width="597.34" height="597.34" fill="currentColor"/>
			</g>
		</g>
		<g filter="url(#filter-TmfMRgka)" mask="url(#mask-UwVgLG1P)">
			<g color="#fff59d" class="teamapps-color-1">
				<rect x="213.33" y="213.33" width="597.34" height="597.34" fill="currentColor"/>
			</g>
		</g>
		<g clip-path="url(#clip-on3cxW3q)">
			<path d="M120.33,853.67v-783.34h783.34v783.34zM810.67,273.49l-60.16,-60.16l-238.51,238.51l-238.51,-238.51l-60.16,60.16l238.51,238.51l-238.51,238.51l60.16,60.16l238.51,-238.51l238.51,238.51l60.16,-60.16l-238.51,-238.51z" fill="#000000" filter="url(#filter-XrtdbagA)"/>
		</g>
	</g>
</svg>