<svg version="1.1" xmlns="http://www.w3.org/2000/svg" xmlns:xlink="http://www.w3.org/1999/xlink" viewBox="0,0,1024,1024">
	<!-- Color names: teamapps-color-1, teamapps-color-2, teamapps-color-3 -->
	<desc>compare icon - Licensed under Apache License v2.0 (http://www.apache.org/licenses/LICENSE-2.0) - Created with Iconfu.com - Derivative work of Material icons (Copyright Google Inc.)</desc>
	<defs>
		<clipPath id="clip-ElcW86KX">
			<path d="M426.67,42.67h85.33v938.66h-85.33v-85.33h-213.34c-46.93,0 -85.33,-38.4 -85.33,-85.33v-597.34c0,-46.93 38.4,-85.33 85.33,-85.33h213.34zM896,213.33v597.34c0,46.93 -38.4,85.33 -85.33,85.33h-213.34v-384l213.34,256v-554.67h-213.34v-85.33h213.34c46.93,0 85.33,38.4 85.33,85.33zM426.67,512l-213.34,256h213.34z"/>
		</clipPath>
		<linearGradient x1="0" y1="1024" x2="1024" y2="0" id="color-JrLjiGbT" gradientUnits="userSpaceOnUse">
			<stop offset="0.2" stop-color="#000000"/>
			<stop offset="0.8" stop-color="#ffffff"/>
		</linearGradient>
		<radialGradient cx="0" cy="0" r="1448.15" id="color-Ks6KQYBV" gradientUnits="userSpaceOnUse">
			<stop offset="0.07" stop-color="#ffffff"/>
			<stop offset="0.75" stop-color="#000000"/>
		</radialGradient>
		<filter id="filter-ScU9lesx" x="0%" y="0%" width="100%" height="100%" color-interpolation-filters="sRGB">
			<feColorMatrix values="1 0 0 0 0 0 1 0 0 0 0 0 1 0 0 0 0 0 0.05 0" in="SourceGraphic"/>
			<feOffset dy="20"/>
			<feGaussianBlur stdDeviation="11" result="blur0"/>
			<feColorMatrix values="1 0 0 0 0 0 1 0 0 0 0 0 1 0 0 0 0 0 0.07 0" in="SourceGraphic"/>
			<feOffset dy="30"/>
			<feGaussianBlur stdDeviation="20" result="blur1"/>
			<feMerge>
				<feMergeNode in="blur0"/>
				<feMergeNode in="blur1"/>
			</feMerge>
		</filter>
		<filter id="filter-XhILeYec" color-interpolation-filters="sRGB">
			<feOffset/>
		</filter>
		<mask id="mask-8y1TqRqH">
			<path d="M426.67,42.67h85.33v938.66h-85.33v-85.33h-213.34c-46.93,0 -85.33,-38.4 -85.33,-85.33v-597.34c0,-46.93 38.4,-85.33 85.33,-85.33h213.34zM896,213.33v597.34c0,46.93 -38.4,85.33 -85.33,85.33h-213.34v-384l213.34,256v-554.67h-213.34v-85.33h213.34c46.93,0 85.33,38.4 85.33,85.33zM426.67,512l-213.34,256h213.34z" fill="#ffffff"/>
		</mask>
		<mask id="mask-s2rx34ZH">
			<rect fill="url(#color-JrLjiGbT)" x="128" y="42.67" width="768" height="938.66"/>
		</mask>
		<mask id="mask-wG3IeXKV">
			<path d="M426.67,42.67h85.33v938.66h-85.33v-85.33h-213.34c-46.93,0 -85.33,-38.4 -85.33,-85.33v-597.34c0,-46.93 38.4,-85.33 85.33,-85.33h213.34zM896,213.33v597.34c0,46.93 -38.4,85.33 -85.33,85.33h-213.34v-384l213.34,256v-554.67h-213.34v-85.33h213.34c46.93,0 85.33,38.4 85.33,85.33zM426.67,512l-213.34,256h213.34z" fill="url(#color-Ks6KQYBV)"/>
		</mask>
	</defs>
	<g fill="none" fill-rule="nonzero" style="mix-blend-mode: normal">
		<g mask="url(#mask-8y1TqRqH)">
			<g color="#ffc107" class="teamapps-color-2">
				<rect x="128" y="42.67" width="768" height="938.66" fill="currentColor"/>
			</g>
			<g color="#e65100" class="teamapps-color-3" mask="url(#mask-s2rx34ZH)">
				<rect x="128" y="42.67" width="768" height="938.66" fill="currentColor"/>
			</g>
		</g>
		<g filter="url(#filter-XhILeYec)" mask="url(#mask-wG3IeXKV)">
			<g color="#fff59d" class="teamapps-color-1">
				<rect x="128" y="42.67" width="768" height="938.66" fill="currentColor"/>
			</g>
		</g>
		<g clip-path="url(#clip-ElcW86KX)">
			<path d="M35,1024.33v-1124.66h954v1124.66zM426.67,128h-213.34c-46.93,0 -85.33,38.4 -85.33,85.33v597.34c0,46.93 38.4,85.33 85.33,85.33h213.34v85.33h85.33v-938.66h-85.33zM810.67,128h-213.34v85.33h213.34v554.67l-213.34,-256v384h213.34c46.93,0 85.33,-38.4 85.33,-85.33v-597.34c0,-46.93 -38.4,-85.33 -85.33,-85.33zM426.67,768h-213.34l213.34,-256z" fill="#000000" filter="url(#filter-ScU9lesx)"/>
		</g>
	</g>
</svg>