<svg version="1.1" xmlns="http://www.w3.org/2000/svg" xmlns:xlink="http://www.w3.org/1999/xlink" viewBox="0,0,1024,1024">
	<!-- Color names: teamapps-color-1, teamapps-color-2, teamapps-color-3 -->
	<desc>computer icon - Licensed under Apache License v2.0 (http://www.apache.org/licenses/LICENSE-2.0) - Created with Iconfu.com - Derivative work of Material icons (Copyright Google Inc.)</desc>
	<defs>
		<clipPath id="clip-WCS9zeW5">
			<path d="M1024,768v85.33h-1024v-85.33h170.67c-46.93,0 -85.34,-38.4 -85.34,-85.33v-426.67c0,-46.93 38.41,-85.33 85.34,-85.33h682.66c46.93,0 85.34,38.4 85.34,85.33l-0.43,426.67c0,46.93 -37.98,85.33 -84.91,85.33zM170.67,682.67h682.66v-426.67h-682.66z"/>
		</clipPath>
		<radialGradient cx="0" cy="0" r="1448.15" id="color-cESlltxw" gradientUnits="userSpaceOnUse">
			<stop offset="0.07" stop-color="#ffffff"/>
			<stop offset="0.75" stop-color="#000000"/>
		</radialGradient>
		<linearGradient x1="0" y1="1024" x2="1024" y2="0" id="color-fwcivagK" gradientUnits="userSpaceOnUse">
			<stop offset="0.2" stop-color="#000000"/>
			<stop offset="0.8" stop-color="#ffffff"/>
		</linearGradient>
		<filter id="filter-5tZiK2YR" x="0%" y="0%" width="100%" height="100%" color-interpolation-filters="sRGB">
			<feColorMatrix values="1 0 0 0 0 0 1 0 0 0 0 0 1 0 0 0 0 0 0.05 0" in="SourceGraphic"/>
			<feOffset dy="20"/>
			<feGaussianBlur stdDeviation="11" result="blur0"/>
			<feColorMatrix values="1 0 0 0 0 0 1 0 0 0 0 0 1 0 0 0 0 0 0.07 0" in="SourceGraphic"/>
			<feOffset dy="30"/>
			<feGaussianBlur stdDeviation="20" result="blur1"/>
			<feMerge>
				<feMergeNode in="blur0"/>
				<feMergeNode in="blur1"/>
			</feMerge>
		</filter>
		<filter id="filter-6rU202pR" color-interpolation-filters="sRGB">
			<feOffset/>
		</filter>
		<mask id="mask-Njj2aiZf">
			<path d="M1024,768v85.33h-1024v-85.33h170.67c-46.93,0 -85.34,-38.4 -85.34,-85.33v-426.67c0,-46.93 38.41,-85.33 85.34,-85.33h682.66c46.93,0 85.34,38.4 85.34,85.33l-0.43,426.67c0,46.93 -37.98,85.33 -84.91,85.33zM170.67,682.67h682.66v-426.67h-682.66z" fill="#ffffff"/>
		</mask>
		<mask id="mask-pFpz7UAS">
			<path d="M1024,768v85.33h-1024v-85.33h170.67c-46.93,0 -85.34,-38.4 -85.34,-85.33v-426.67c0,-46.93 38.41,-85.33 85.34,-85.33h682.66c46.93,0 85.34,38.4 85.34,85.33l-0.43,426.67c0,46.93 -37.98,85.33 -84.91,85.33zM170.67,682.67h682.66v-426.67h-682.66z" fill="url(#color-cESlltxw)"/>
		</mask>
		<mask id="mask-vMQYODcH">
			<rect fill="url(#color-fwcivagK)" x="0" y="170.67" width="1024" height="682.66"/>
		</mask>
	</defs>
	<g fill="none" fill-rule="nonzero" style="mix-blend-mode: normal">
		<g mask="url(#mask-Njj2aiZf)">
			<g color="#ffc107" class="teamapps-color-2">
				<rect x="0" y="170.67" width="1024" height="682.66" fill="currentColor"/>
			</g>
			<g color="#e65100" class="teamapps-color-3" mask="url(#mask-vMQYODcH)">
				<rect x="0" y="170.67" width="1024" height="682.66" fill="currentColor"/>
			</g>
		</g>
		<g filter="url(#filter-6rU202pR)" mask="url(#mask-pFpz7UAS)">
			<g color="#fff59d" class="teamapps-color-1">
				<rect x="0" y="170.67" width="1024" height="682.66" fill="currentColor"/>
			</g>
		</g>
		<g clip-path="url(#clip-WCS9zeW5)">
			<path d="M-93,896.33v-868.66h1210v868.66zM853.33,768c46.93,0 84.91,-38.4 84.91,-85.33l0.43,-426.67c0,-46.93 -38.41,-85.33 -85.34,-85.33h-682.66c-46.93,0 -85.34,38.4 -85.34,85.33v426.67c0,46.93 38.41,85.33 85.34,85.33h-170.67v85.33h1024v-85.33zM170.67,256h682.66v426.67h-682.66z" fill="#000000" filter="url(#filter-5tZiK2YR)"/>
		</g>
	</g>
</svg>