<svg version="1.1" xmlns="http://www.w3.org/2000/svg" xmlns:xlink="http://www.w3.org/1999/xlink" viewBox="0,0,1024,1024">
	<!-- Color names: teamapps-color-1, teamapps-color-2, teamapps-color-3 -->
	<desc>crop_landscape icon - Licensed under Apache License v2.0 (http://www.apache.org/licenses/LICENSE-2.0) - Created with Iconfu.com - Derivative work of Material icons (Copyright Google Inc.)</desc>
	<defs>
		<clipPath id="clip-y7MUbmXj">
			<path d="M896,298.67v426.66c0,46.93 -38.4,85.34 -85.33,85.34h-597.34c-46.93,0 -85.33,-38.41 -85.33,-85.34v-426.66c0,-46.93 38.4,-85.34 85.33,-85.34h597.34c46.93,0 85.33,38.41 85.33,85.34zM810.67,298.67h-597.34v426.66h597.34z"/>
		</clipPath>
		<linearGradient x1="0" y1="1024" x2="1024" y2="0" id="color-OYs3xenU" gradientUnits="userSpaceOnUse">
			<stop offset="0.2" stop-color="#000000"/>
			<stop offset="0.8" stop-color="#ffffff"/>
		</linearGradient>
		<radialGradient cx="0" cy="0" r="1448.15" id="color-Sl6lJhE0" gradientUnits="userSpaceOnUse">
			<stop offset="0.07" stop-color="#ffffff"/>
			<stop offset="0.75" stop-color="#000000"/>
		</radialGradient>
		<filter id="filter-PjEc2jzJ" x="0%" y="0%" width="100%" height="100%" color-interpolation-filters="sRGB">
			<feColorMatrix values="1 0 0 0 0 0 1 0 0 0 0 0 1 0 0 0 0 0 0.05 0" in="SourceGraphic"/>
			<feOffset dy="20"/>
			<feGaussianBlur stdDeviation="11" result="blur0"/>
			<feColorMatrix values="1 0 0 0 0 0 1 0 0 0 0 0 1 0 0 0 0 0 0.07 0" in="SourceGraphic"/>
			<feOffset dy="30"/>
			<feGaussianBlur stdDeviation="20" result="blur1"/>
			<feMerge>
				<feMergeNode in="blur0"/>
				<feMergeNode in="blur1"/>
			</feMerge>
		</filter>
		<filter id="filter-Zv0gzZ6M" color-interpolation-filters="sRGB">
			<feOffset/>
		</filter>
		<mask id="mask-hOaRh5tw">
			<rect fill="url(#color-OYs3xenU)" x="128" y="213.33" width="768" height="597.34"/>
		</mask>
		<mask id="mask-vbVvjEC7">
			<path d="M896,298.67v426.66c0,46.93 -38.4,85.34 -85.33,85.34h-597.34c-46.93,0 -85.33,-38.41 -85.33,-85.34v-426.66c0,-46.93 38.4,-85.34 85.33,-85.34h597.34c46.93,0 85.33,38.41 85.33,85.34zM810.67,298.67h-597.34v426.66h597.34z" fill="#ffffff"/>
		</mask>
		<mask id="mask-Yha66X4p">
			<path d="M896,298.67v426.66c0,46.93 -38.4,85.34 -85.33,85.34h-597.34c-46.93,0 -85.33,-38.41 -85.33,-85.34v-426.66c0,-46.93 38.4,-85.34 85.33,-85.34h597.34c46.93,0 85.33,38.41 85.33,85.34zM810.67,298.67h-597.34v426.66h597.34z" fill="url(#color-Sl6lJhE0)"/>
		</mask>
	</defs>
	<g fill="none" fill-rule="nonzero" style="mix-blend-mode: normal">
		<g mask="url(#mask-vbVvjEC7)">
			<g color="#ffc107" class="teamapps-color-2">
				<rect x="128" y="213.33" width="768" height="597.34" fill="currentColor"/>
			</g>
			<g color="#e65100" class="teamapps-color-3" mask="url(#mask-hOaRh5tw)">
				<rect x="128" y="213.33" width="768" height="597.34" fill="currentColor"/>
			</g>
		</g>
		<g filter="url(#filter-Zv0gzZ6M)" mask="url(#mask-Yha66X4p)">
			<g color="#fff59d" class="teamapps-color-1">
				<rect x="128" y="213.33" width="768" height="597.34" fill="currentColor"/>
			</g>
		</g>
		<g clip-path="url(#clip-y7MUbmXj)">
			<path d="M35,853.67v-783.34h954v783.34zM810.67,213.33h-597.34c-46.93,0 -85.33,38.41 -85.33,85.34v426.66c0,46.93 38.4,85.34 85.33,85.34h597.34c46.93,0 85.33,-38.41 85.33,-85.34v-426.66c0,-46.93 -38.4,-85.34 -85.33,-85.34zM810.67,725.33h-597.34v-426.66h597.34z" fill="#000000" filter="url(#filter-PjEc2jzJ)"/>
		</g>
	</g>
</svg>