<svg version="1.1" xmlns="http://www.w3.org/2000/svg" xmlns:xlink="http://www.w3.org/1999/xlink" viewBox="0,0,1024,1024">
	<!-- Color names: teamapps-color-1, teamapps-color-2, teamapps-color-3 -->
	<desc>edit_location icon - Licensed under Apache License v2.0 (http://www.apache.org/licenses/LICENSE-2.0) - Created with Iconfu.com - Derivative work of Material icons (Copyright Google Inc.)</desc>
	<defs>
		<clipPath id="clip-C2uPE658">
			<path d="M810.67,384c0,224 -298.67,554.67 -298.67,554.67c0,0 -298.67,-330.67 -298.67,-554.67c0,-164.69 133.98,-298.67 298.67,-298.67c164.69,0 298.67,133.98 298.67,298.67zM587.95,369.07l-61.02,-61.02l-142.93,142.51v61.44h61.44zM635.31,299.09l-38.4,-38.4c-6.4,-6.4 -16.64,-6.4 -23.04,0l-29.87,29.87l61.44,61.44l29.87,-29.87c6.4,-6.4 6.4,-16.64 0,-23.04z"/>
		</clipPath>
		<radialGradient cx="0" cy="0" r="1448.15" id="color-szUYmJRv" gradientUnits="userSpaceOnUse">
			<stop offset="0.07" stop-color="#ffffff"/>
			<stop offset="0.75" stop-color="#000000"/>
		</radialGradient>
		<linearGradient x1="0" y1="1024" x2="1024" y2="0" id="color-WSxnQUvf" gradientUnits="userSpaceOnUse">
			<stop offset="0.2" stop-color="#000000"/>
			<stop offset="0.8" stop-color="#ffffff"/>
		</linearGradient>
		<filter id="filter-AkHpYdWN" color-interpolation-filters="sRGB">
			<feOffset/>
		</filter>
		<filter id="filter-SBQIk8Nz" x="0%" y="0%" width="100%" height="100%" color-interpolation-filters="sRGB">
			<feColorMatrix values="1 0 0 0 0 0 1 0 0 0 0 0 1 0 0 0 0 0 0.05 0" in="SourceGraphic"/>
			<feOffset dy="20"/>
			<feGaussianBlur stdDeviation="11" result="blur0"/>
			<feColorMatrix values="1 0 0 0 0 0 1 0 0 0 0 0 1 0 0 0 0 0 0.07 0" in="SourceGraphic"/>
			<feOffset dy="30"/>
			<feGaussianBlur stdDeviation="20" result="blur1"/>
			<feMerge>
				<feMergeNode in="blur0"/>
				<feMergeNode in="blur1"/>
			</feMerge>
		</filter>
		<mask id="mask-jwVIHgx7">
			<rect fill="url(#color-WSxnQUvf)" x="213.33" y="85.33" width="597.34" height="853.34"/>
		</mask>
		<mask id="mask-tm9HfcCI">
			<path d="M810.67,384c0,224 -298.67,554.67 -298.67,554.67c0,0 -298.67,-330.67 -298.67,-554.67c0,-164.69 133.98,-298.67 298.67,-298.67c164.69,0 298.67,133.98 298.67,298.67zM587.95,369.07l-61.02,-61.02l-142.93,142.51v61.44h61.44zM635.31,299.09l-38.4,-38.4c-6.4,-6.4 -16.64,-6.4 -23.04,0l-29.87,29.87l61.44,61.44l29.87,-29.87c6.4,-6.4 6.4,-16.64 0,-23.04z" fill="url(#color-szUYmJRv)"/>
		</mask>
		<mask id="mask-W6wNWsk0">
			<path d="M810.67,384c0,224 -298.67,554.67 -298.67,554.67c0,0 -298.67,-330.67 -298.67,-554.67c0,-164.69 133.98,-298.67 298.67,-298.67c164.69,0 298.67,133.98 298.67,298.67zM587.95,369.07l-61.02,-61.02l-142.93,142.51v61.44h61.44zM635.31,299.09l-38.4,-38.4c-6.4,-6.4 -16.64,-6.4 -23.04,0l-29.87,29.87l61.44,61.44l29.87,-29.87c6.4,-6.4 6.4,-16.64 0,-23.04z" fill="#ffffff"/>
		</mask>
	</defs>
	<g fill="none" fill-rule="nonzero" style="mix-blend-mode: normal">
		<g mask="url(#mask-W6wNWsk0)">
			<g color="#ffc107" class="teamapps-color-2">
				<rect x="213.33" y="85.33" width="597.34" height="853.34" fill="currentColor"/>
			</g>
			<g color="#e65100" class="teamapps-color-3" mask="url(#mask-jwVIHgx7)">
				<rect x="213.33" y="85.33" width="597.34" height="853.34" fill="currentColor"/>
			</g>
		</g>
		<g filter="url(#filter-AkHpYdWN)" mask="url(#mask-tm9HfcCI)">
			<g color="#fff59d" class="teamapps-color-1">
				<rect x="213.33" y="85.33" width="597.34" height="853.34" fill="currentColor"/>
			</g>
		</g>
		<g clip-path="url(#clip-C2uPE658)">
			<path d="M120.33,981.67v-1039.34h783.34v1039.34zM512,85.33c-164.69,0 -298.67,133.98 -298.67,298.67c0,224 298.67,554.67 298.67,554.67c0,0 298.67,-330.67 298.67,-554.67c0,-164.69 -133.98,-298.67 -298.67,-298.67zM445.44,512h-61.44v-61.44l142.93,-142.51l61.02,61.02zM635.31,322.13l-29.87,29.87l-61.44,-61.44l29.87,-29.87c6.4,-6.4 16.64,-6.4 23.04,0l38.4,38.4c6.4,6.4 6.4,16.64 0,23.04z" fill="#000000" filter="url(#filter-SBQIk8Nz)"/>
		</g>
	</g>
</svg>