<svg version="1.1" xmlns="http://www.w3.org/2000/svg" xmlns:xlink="http://www.w3.org/1999/xlink" viewBox="0,0,1024,1024">
	<!-- Color names: teamapps-color-1, teamapps-color-2, teamapps-color-3 -->
	<desc>event_note icon - Licensed under Apache License v2.0 (http://www.apache.org/licenses/LICENSE-2.0) - Created with Iconfu.com - Derivative work of Material icons (Copyright Google Inc.)</desc>
	<defs>
		<clipPath id="clip-EE1oD0by">
			<path d="M896,213.33v597.34c0,46.93 -38.4,85.33 -85.33,85.33h-597.34c-47.36,0 -85.33,-38.4 -85.33,-85.33l0.43,-597.34c0,-46.93 37.54,-85.33 84.9,-85.33h42.67v-85.33h85.33v85.33h341.34v-85.33h85.33v85.33h42.67c46.93,0 85.33,38.4 85.33,85.33zM810.67,341.33h-597.34v469.34h597.34zM725.33,512h-426.66v-85.33h426.66zM597.33,682.67h-298.66v-85.34h298.66z"/>
		</clipPath>
		<radialGradient cx="0" cy="0" r="1448.15" id="color-Gj8kGEQE" gradientUnits="userSpaceOnUse">
			<stop offset="0.07" stop-color="#ffffff"/>
			<stop offset="0.75" stop-color="#000000"/>
		</radialGradient>
		<linearGradient x1="0" y1="1024" x2="1024" y2="0" id="color-o23c9Tj1" gradientUnits="userSpaceOnUse">
			<stop offset="0.2" stop-color="#000000"/>
			<stop offset="0.8" stop-color="#ffffff"/>
		</linearGradient>
		<filter id="filter-F6yfDEl5" color-interpolation-filters="sRGB">
			<feOffset/>
		</filter>
		<filter id="filter-RPcJ9vVm" x="0%" y="0%" width="100%" height="100%" color-interpolation-filters="sRGB">
			<feColorMatrix values="1 0 0 0 0 0 1 0 0 0 0 0 1 0 0 0 0 0 0.05 0" in="SourceGraphic"/>
			<feOffset dy="20"/>
			<feGaussianBlur stdDeviation="11" result="blur0"/>
			<feColorMatrix values="1 0 0 0 0 0 1 0 0 0 0 0 1 0 0 0 0 0 0.07 0" in="SourceGraphic"/>
			<feOffset dy="30"/>
			<feGaussianBlur stdDeviation="20" result="blur1"/>
			<feMerge>
				<feMergeNode in="blur0"/>
				<feMergeNode in="blur1"/>
			</feMerge>
		</filter>
		<mask id="mask-eABv4dW3">
			<rect fill="url(#color-o23c9Tj1)" x="128" y="42.67" width="768" height="853.33"/>
		</mask>
		<mask id="mask-Gs4fmdUi">
			<path d="M896,213.33v597.34c0,46.93 -38.4,85.33 -85.33,85.33h-597.34c-47.36,0 -85.33,-38.4 -85.33,-85.33l0.43,-597.34c0,-46.93 37.54,-85.33 84.9,-85.33h42.67v-85.33h85.33v85.33h341.34v-85.33h85.33v85.33h42.67c46.93,0 85.33,38.4 85.33,85.33zM810.67,341.33h-597.34v469.34h597.34zM725.33,512h-426.66v-85.33h426.66zM597.33,682.67h-298.66v-85.34h298.66z" fill="url(#color-Gj8kGEQE)"/>
		</mask>
		<mask id="mask-UhcWh58S">
			<path d="M896,213.33v597.34c0,46.93 -38.4,85.33 -85.33,85.33h-597.34c-47.36,0 -85.33,-38.4 -85.33,-85.33l0.43,-597.34c0,-46.93 37.54,-85.33 84.9,-85.33h42.67v-85.33h85.33v85.33h341.34v-85.33h85.33v85.33h42.67c46.93,0 85.33,38.4 85.33,85.33zM810.67,341.33h-597.34v469.34h597.34zM725.33,512h-426.66v-85.33h426.66zM597.33,682.67h-298.66v-85.34h298.66z" fill="#ffffff"/>
		</mask>
	</defs>
	<g fill="none" fill-rule="nonzero" style="mix-blend-mode: normal">
		<g mask="url(#mask-UhcWh58S)">
			<g color="#ffc107" class="teamapps-color-2">
				<rect x="128" y="42.67" width="768" height="853.33" fill="currentColor"/>
			</g>
			<g color="#e65100" class="teamapps-color-3" mask="url(#mask-eABv4dW3)">
				<rect x="128" y="42.67" width="768" height="853.33" fill="currentColor"/>
			</g>
		</g>
		<g filter="url(#filter-F6yfDEl5)" mask="url(#mask-Gs4fmdUi)">
			<g color="#fff59d" class="teamapps-color-1">
				<rect x="128" y="42.67" width="768" height="853.33" fill="currentColor"/>
			</g>
		</g>
		<g clip-path="url(#clip-EE1oD0by)">
			<path d="M35,939v-1039.33h954v1039.33zM810.67,128h-42.67v-85.33h-85.33v85.33h-341.34v-85.33h-85.33v85.33h-42.67c-47.36,0 -84.9,38.4 -84.9,85.33l-0.43,597.34c0,46.93 37.97,85.33 85.33,85.33h597.34c46.93,0 85.33,-38.4 85.33,-85.33v-597.34c0,-46.93 -38.4,-85.33 -85.33,-85.33zM810.67,810.67h-597.34v-469.34h597.34zM725.33,426.67h-426.66v85.33h426.66zM597.33,597.33h-298.66v85.34h298.66z" fill="#000000" filter="url(#filter-RPcJ9vVm)"/>
		</g>
	</g>
</svg>