<svg version="1.1" xmlns="http://www.w3.org/2000/svg" xmlns:xlink="http://www.w3.org/1999/xlink" viewBox="0,0,1024,1024">
	<!-- Color names: teamapps-color-1, teamapps-color-2, teamapps-color-3 -->
	<desc>exposure_neg_1 icon - Licensed under Apache License v2.0 (http://www.apache.org/licenses/LICENSE-2.0) - Created with Iconfu.com - Derivative work of Material icons (Copyright Google Inc.)</desc>
	<defs>
		<clipPath id="clip-Lzn0ke50">
			<path d="M810.67,768h-85.34v-453.12l-128,43.52v-72.53l200.54,-72.54h12.8zM512,469.33v85.34h-341.33v-85.34z"/>
		</clipPath>
		<linearGradient x1="0" y1="1024" x2="1024" y2="0" id="color-8edb7tnA" gradientUnits="userSpaceOnUse">
			<stop offset="0.2" stop-color="#000000"/>
			<stop offset="0.8" stop-color="#ffffff"/>
		</linearGradient>
		<radialGradient cx="0" cy="0" r="1448.15" id="color-w7MGhEQP" gradientUnits="userSpaceOnUse">
			<stop offset="0.07" stop-color="#ffffff"/>
			<stop offset="0.75" stop-color="#000000"/>
		</radialGradient>
		<filter id="filter-OT9SrSII" color-interpolation-filters="sRGB">
			<feOffset/>
		</filter>
		<filter id="filter-y2it28R8" x="0%" y="0%" width="100%" height="100%" color-interpolation-filters="sRGB">
			<feColorMatrix values="1 0 0 0 0 0 1 0 0 0 0 0 1 0 0 0 0 0 0.05 0" in="SourceGraphic"/>
			<feOffset dy="20"/>
			<feGaussianBlur stdDeviation="11" result="blur0"/>
			<feColorMatrix values="1 0 0 0 0 0 1 0 0 0 0 0 1 0 0 0 0 0 0.07 0" in="SourceGraphic"/>
			<feOffset dy="30"/>
			<feGaussianBlur stdDeviation="20" result="blur1"/>
			<feMerge>
				<feMergeNode in="blur0"/>
				<feMergeNode in="blur1"/>
			</feMerge>
		</filter>
		<mask id="mask-KVotpxW0">
			<path d="M810.67,768h-85.34v-453.12l-128,43.52v-72.53l200.54,-72.54h12.8zM512,469.33v85.34h-341.33v-85.34z" fill="url(#color-w7MGhEQP)"/>
		</mask>
		<mask id="mask-Uq8csT0b">
			<rect fill="url(#color-8edb7tnA)" x="170.67" y="213.33" width="640" height="554.67"/>
		</mask>
		<mask id="mask-WQMs8ey5">
			<path d="M810.67,768h-85.34v-453.12l-128,43.52v-72.53l200.54,-72.54h12.8zM512,469.33v85.34h-341.33v-85.34z" fill="#ffffff"/>
		</mask>
	</defs>
	<g fill="none" fill-rule="nonzero" style="mix-blend-mode: normal">
		<g mask="url(#mask-WQMs8ey5)">
			<g color="#ffc107" class="teamapps-color-2">
				<rect x="170.67" y="213.33" width="640" height="554.67" fill="currentColor"/>
			</g>
			<g color="#e65100" class="teamapps-color-3" mask="url(#mask-Uq8csT0b)">
				<rect x="170.67" y="213.33" width="640" height="554.67" fill="currentColor"/>
			</g>
		</g>
		<g filter="url(#filter-OT9SrSII)" mask="url(#mask-KVotpxW0)">
			<g color="#fff59d" class="teamapps-color-1">
				<rect x="170.67" y="213.33" width="640" height="554.67" fill="currentColor"/>
			</g>
		</g>
		<g clip-path="url(#clip-Lzn0ke50)">
			<path d="M77.67,811v-740.67h826v740.67zM810.67,213.33h-12.8l-200.54,72.54v72.53l128,-43.52v453.12h85.34zM170.67,469.33v85.34h341.33v-85.34z" fill="#000000" filter="url(#filter-y2it28R8)"/>
		</g>
	</g>
</svg>