<svg version="1.1" xmlns="http://www.w3.org/2000/svg" xmlns:xlink="http://www.w3.org/1999/xlink" viewBox="0,0,1024,1024">
	<!-- Color names: teamapps-color-1, teamapps-color-2, teamapps-color-3 -->
	<desc>favorite_border icon - Licensed under Apache License v2.0 (http://www.apache.org/licenses/LICENSE-2.0) - Created with Iconfu.com - Derivative work of Material icons (Copyright Google Inc.)</desc>
	<defs>
		<clipPath id="clip-lys5ECNC">
			<path d="M938.67,362.67c0,161.28 -145.07,292.69 -364.8,491.94l-61.87,56.32l-61.87,-55.89c-219.73,-199.68 -364.8,-331.09 -364.8,-492.37c0,-131.41 103.26,-234.67 234.67,-234.67c74.24,0 145.49,34.56 192,89.17c46.51,-54.61 117.76,-89.17 192,-89.17c131.41,0 234.67,103.26 234.67,234.67zM853.33,362.67c0,-85.33 -64,-149.34 -149.33,-149.34c-65.71,0 -129.7,42.25 -151.89,100.7h-79.79c-22.61,-58.45 -86.61,-100.7 -152.32,-100.7c-85.33,0 -149.33,64.01 -149.33,149.34c0,123.31 133.97,244.91 337.06,428.8l4.27,4.26l4.27,-4.26c203.09,-183.89 337.06,-305.49 337.06,-428.8z"/>
		</clipPath>
		<linearGradient x1="0" y1="1024" x2="1024" y2="0" id="color-G4oxkRq2" gradientUnits="userSpaceOnUse">
			<stop offset="0.2" stop-color="#000000"/>
			<stop offset="0.8" stop-color="#ffffff"/>
		</linearGradient>
		<radialGradient cx="0" cy="0" r="1448.15" id="color-qt12Kkxo" gradientUnits="userSpaceOnUse">
			<stop offset="0.07" stop-color="#ffffff"/>
			<stop offset="0.75" stop-color="#000000"/>
		</radialGradient>
		<filter id="filter-1SFX1dhx" x="0%" y="0%" width="100%" height="100%" color-interpolation-filters="sRGB">
			<feColorMatrix values="1 0 0 0 0 0 1 0 0 0 0 0 1 0 0 0 0 0 0.05 0" in="SourceGraphic"/>
			<feOffset dy="20"/>
			<feGaussianBlur stdDeviation="11" result="blur0"/>
			<feColorMatrix values="1 0 0 0 0 0 1 0 0 0 0 0 1 0 0 0 0 0 0.07 0" in="SourceGraphic"/>
			<feOffset dy="30"/>
			<feGaussianBlur stdDeviation="20" result="blur1"/>
			<feMerge>
				<feMergeNode in="blur0"/>
				<feMergeNode in="blur1"/>
			</feMerge>
		</filter>
		<filter id="filter-GtxDShJg" color-interpolation-filters="sRGB">
			<feOffset/>
		</filter>
		<mask id="mask-iGWS0oX5">
			<path d="M938.67,362.67c0,161.28 -145.07,292.69 -364.8,491.94l-61.87,56.32l-61.87,-55.89c-219.73,-199.68 -364.8,-331.09 -364.8,-492.37c0,-131.41 103.26,-234.67 234.67,-234.67c74.24,0 145.49,34.56 192,89.17c46.51,-54.61 117.76,-89.17 192,-89.17c131.41,0 234.67,103.26 234.67,234.67zM853.33,362.67c0,-85.33 -64,-149.34 -149.33,-149.34c-65.71,0 -129.7,42.25 -151.89,100.7h-79.79c-22.61,-58.45 -86.61,-100.7 -152.32,-100.7c-85.33,0 -149.33,64.01 -149.33,149.34c0,123.31 133.97,244.91 337.06,428.8l4.27,4.26l4.27,-4.26c203.09,-183.89 337.06,-305.49 337.06,-428.8z" fill="#ffffff"/>
		</mask>
		<mask id="mask-nV3JXO7I">
			<path d="M938.67,362.67c0,161.28 -145.07,292.69 -364.8,491.94l-61.87,56.32l-61.87,-55.89c-219.73,-199.68 -364.8,-331.09 -364.8,-492.37c0,-131.41 103.26,-234.67 234.67,-234.67c74.24,0 145.49,34.56 192,89.17c46.51,-54.61 117.76,-89.17 192,-89.17c131.41,0 234.67,103.26 234.67,234.67zM853.33,362.67c0,-85.33 -64,-149.34 -149.33,-149.34c-65.71,0 -129.7,42.25 -151.89,100.7h-79.79c-22.61,-58.45 -86.61,-100.7 -152.32,-100.7c-85.33,0 -149.33,64.01 -149.33,149.34c0,123.31 133.97,244.91 337.06,428.8l4.27,4.26l4.27,-4.26c203.09,-183.89 337.06,-305.49 337.06,-428.8z" fill="url(#color-qt12Kkxo)"/>
		</mask>
		<mask id="mask-uwiom37h">
			<rect fill="url(#color-G4oxkRq2)" x="85.33" y="128" width="853.34" height="782.93"/>
		</mask>
	</defs>
	<g fill="none" fill-rule="nonzero" style="mix-blend-mode: normal">
		<g mask="url(#mask-iGWS0oX5)">
			<g color="#ffc107" class="teamapps-color-2">
				<rect x="85.33" y="128" width="853.34" height="782.93" fill="currentColor"/>
			</g>
			<g color="#e65100" class="teamapps-color-3" mask="url(#mask-uwiom37h)">
				<rect x="85.33" y="128" width="853.34" height="782.93" fill="currentColor"/>
			</g>
		</g>
		<g filter="url(#filter-GtxDShJg)" mask="url(#mask-nV3JXO7I)">
			<g color="#fff59d" class="teamapps-color-1">
				<rect x="85.33" y="128" width="853.34" height="782.93" fill="currentColor"/>
			</g>
		</g>
		<g clip-path="url(#clip-lys5ECNC)">
			<path d="M-7.67,953.93v-968.93h1039.34v968.93zM704,128c-74.24,0 -145.49,34.56 -192,89.17c-46.51,-54.61 -117.76,-89.17 -192,-89.17c-131.41,0 -234.67,103.26 -234.67,234.67c0,161.28 145.07,292.69 364.8,492.37l61.87,55.89l61.87,-56.32c219.73,-199.25 364.8,-330.66 364.8,-491.94c0,-131.41 -103.26,-234.67 -234.67,-234.67zM516.27,791.47l-4.27,4.26l-4.27,-4.26c-203.09,-183.89 -337.06,-305.49 -337.06,-428.8c0,-85.33 64,-149.34 149.33,-149.34c65.71,0 129.71,42.25 152.32,100.7h79.79c22.19,-58.45 86.18,-100.7 151.89,-100.7c85.33,0 149.33,64.01 149.33,149.34c0,123.31 -133.97,244.91 -337.06,428.8z" fill="#000000" filter="url(#filter-1SFX1dhx)"/>
		</g>
	</g>
</svg>