<svg version="1.1" xmlns="http://www.w3.org/2000/svg" xmlns:xlink="http://www.w3.org/1999/xlink" viewBox="0,0,1024,1024">
	<!-- Color names: teamapps-color-1, teamapps-color-2, teamapps-color-3 -->
	<desc>filter_vintage icon - Licensed under Apache License v2.0 (http://www.apache.org/licenses/LICENSE-2.0) - Created with Iconfu.com - Derivative work of Material icons (Copyright Google Inc.)</desc>
	<defs>
		<clipPath id="clip-euRkaz8w">
			<path d="M925.87,750.51c-76.8,43.95 -174.08,47.36 -256,0c-11.95,-6.83 -23.04,-14.51 -33.28,-23.04c2.13,13.23 3.41,26.88 3.41,40.53c0,94.72 -51.63,177.07 -128,221.44c-76.37,-44.37 -128,-126.72 -128,-221.44c0,-13.65 1.28,-27.31 3.41,-40.96c-10.24,8.11 -21.33,16.21 -33.28,23.04c-82.35,47.36 -179.63,43.95 -256,0c0.43,-88.32 46.08,-174.08 128,-221.44c11.95,-6.83 24.33,-12.38 36.7,-17.07c-12.37,-4.69 -24.75,-10.23 -36.7,-17.06c-82.35,-47.36 -128,-133.12 -128,-221.44c76.8,-43.95 174.08,-47.36 256,0c11.95,6.83 23.04,14.93 33.28,23.46c-2.13,-13.23 -3.41,-26.88 -3.41,-40.53c0,-94.72 51.63,-177.07 128,-221.44c76.37,44.37 128,126.72 128,221.44c0,13.65 -1.28,27.3 -3.41,40.53c10.24,-8.11 21.33,-16.21 33.28,-23.04c82.35,-47.36 179.63,-43.95 256,0c-0.43,88.32 -46.08,174.08 -128,221.44c-11.95,6.83 -24.33,12.38 -36.7,17.07c12.37,4.69 24.75,10.24 36.7,17.07c81.92,47.36 127.57,133.12 128,221.44zM682.67,512c0,-94.29 -76.38,-170.67 -170.67,-170.67c-94.29,0 -170.67,76.38 -170.67,170.67c0,94.29 76.38,170.67 170.67,170.67c94.29,0 170.67,-76.38 170.67,-170.67z"/>
		</clipPath>
		<radialGradient cx="0" cy="0" r="1448.15" id="color-2PP1FnAS" gradientUnits="userSpaceOnUse">
			<stop offset="0.07" stop-color="#ffffff"/>
			<stop offset="0.75" stop-color="#000000"/>
		</radialGradient>
		<linearGradient x1="0" y1="1024" x2="1024" y2="0" id="color-ioP8jeZr" gradientUnits="userSpaceOnUse">
			<stop offset="0.2" stop-color="#000000"/>
			<stop offset="0.8" stop-color="#ffffff"/>
		</linearGradient>
		<filter id="filter-Isuf6F7t" color-interpolation-filters="sRGB">
			<feOffset/>
		</filter>
		<filter id="filter-Jzx921NJ" x="0%" y="0%" width="100%" height="100%" color-interpolation-filters="sRGB">
			<feColorMatrix values="1 0 0 0 0 0 1 0 0 0 0 0 1 0 0 0 0 0 0.05 0" in="SourceGraphic"/>
			<feOffset dy="20"/>
			<feGaussianBlur stdDeviation="11" result="blur0"/>
			<feColorMatrix values="1 0 0 0 0 0 1 0 0 0 0 0 1 0 0 0 0 0 0.07 0" in="SourceGraphic"/>
			<feOffset dy="30"/>
			<feGaussianBlur stdDeviation="20" result="blur1"/>
			<feMerge>
				<feMergeNode in="blur0"/>
				<feMergeNode in="blur1"/>
			</feMerge>
		</filter>
		<mask id="mask-kuoo6VAA">
			<path d="M925.87,750.51c-76.8,43.95 -174.08,47.36 -256,0c-11.95,-6.83 -23.04,-14.51 -33.28,-23.04c2.13,13.23 3.41,26.88 3.41,40.53c0,94.72 -51.63,177.07 -128,221.44c-76.37,-44.37 -128,-126.72 -128,-221.44c0,-13.65 1.28,-27.31 3.41,-40.96c-10.24,8.11 -21.33,16.21 -33.28,23.04c-82.35,47.36 -179.63,43.95 -256,0c0.43,-88.32 46.08,-174.08 128,-221.44c11.95,-6.83 24.33,-12.38 36.7,-17.07c-12.37,-4.69 -24.75,-10.23 -36.7,-17.06c-82.35,-47.36 -128,-133.12 -128,-221.44c76.8,-43.95 174.08,-47.36 256,0c11.95,6.83 23.04,14.93 33.28,23.46c-2.13,-13.23 -3.41,-26.88 -3.41,-40.53c0,-94.72 51.63,-177.07 128,-221.44c76.37,44.37 128,126.72 128,221.44c0,13.65 -1.28,27.3 -3.41,40.53c10.24,-8.11 21.33,-16.21 33.28,-23.04c82.35,-47.36 179.63,-43.95 256,0c-0.43,88.32 -46.08,174.08 -128,221.44c-11.95,6.83 -24.33,12.38 -36.7,17.07c12.37,4.69 24.75,10.24 36.7,17.07c81.92,47.36 127.57,133.12 128,221.44zM682.67,512c0,-94.29 -76.38,-170.67 -170.67,-170.67c-94.29,0 -170.67,76.38 -170.67,170.67c0,94.29 76.38,170.67 170.67,170.67c94.29,0 170.67,-76.38 170.67,-170.67z" fill="#ffffff"/>
		</mask>
		<mask id="mask-q1WMZ5M1">
			<path d="M925.87,750.51c-76.8,43.95 -174.08,47.36 -256,0c-11.95,-6.83 -23.04,-14.51 -33.28,-23.04c2.13,13.23 3.41,26.88 3.41,40.53c0,94.72 -51.63,177.07 -128,221.44c-76.37,-44.37 -128,-126.72 -128,-221.44c0,-13.65 1.28,-27.31 3.41,-40.96c-10.24,8.11 -21.33,16.21 -33.28,23.04c-82.35,47.36 -179.63,43.95 -256,0c0.43,-88.32 46.08,-174.08 128,-221.44c11.95,-6.83 24.33,-12.38 36.7,-17.07c-12.37,-4.69 -24.75,-10.23 -36.7,-17.06c-82.35,-47.36 -128,-133.12 -128,-221.44c76.8,-43.95 174.08,-47.36 256,0c11.95,6.83 23.04,14.93 33.28,23.46c-2.13,-13.23 -3.41,-26.88 -3.41,-40.53c0,-94.72 51.63,-177.07 128,-221.44c76.37,44.37 128,126.72 128,221.44c0,13.65 -1.28,27.3 -3.41,40.53c10.24,-8.11 21.33,-16.21 33.28,-23.04c82.35,-47.36 179.63,-43.95 256,0c-0.43,88.32 -46.08,174.08 -128,221.44c-11.95,6.83 -24.33,12.38 -36.7,17.07c12.37,4.69 24.75,10.24 36.7,17.07c81.92,47.36 127.57,133.12 128,221.44zM682.67,512c0,-94.29 -76.38,-170.67 -170.67,-170.67c-94.29,0 -170.67,76.38 -170.67,170.67c0,94.29 76.38,170.67 170.67,170.67c94.29,0 170.67,-76.38 170.67,-170.67z" fill="url(#color-2PP1FnAS)"/>
		</mask>
		<mask id="mask-WewFabk9">
			<rect fill="url(#color-ioP8jeZr)" x="98.13" y="34.56" width="827.74" height="954.88"/>
		</mask>
	</defs>
	<g fill="none" fill-rule="nonzero" style="mix-blend-mode: normal">
		<g mask="url(#mask-kuoo6VAA)">
			<g color="#ffc107" class="teamapps-color-2">
				<rect x="98.13" y="34.56" width="827.74" height="954.88" fill="currentColor"/>
			</g>
			<g color="#e65100" class="teamapps-color-3" mask="url(#mask-WewFabk9)">
				<rect x="98.13" y="34.56" width="827.74" height="954.88" fill="currentColor"/>
			</g>
		</g>
		<g filter="url(#filter-Isuf6F7t)" mask="url(#mask-q1WMZ5M1)">
			<g color="#fff59d" class="teamapps-color-1">
				<rect x="98.13" y="34.56" width="827.74" height="954.88" fill="currentColor"/>
			</g>
		</g>
		<g clip-path="url(#clip-euRkaz8w)">
			<path d="M5.13,1032.44v-1140.88h1013.74v1140.88zM797.87,529.07c-11.95,-6.83 -24.33,-12.38 -36.7,-17.07c12.37,-4.69 24.75,-10.24 36.7,-17.07c81.92,-47.36 127.57,-133.12 128,-221.44c-76.37,-43.95 -173.65,-47.36 -256,0c-11.95,6.83 -23.04,14.93 -33.28,23.04c2.13,-13.23 3.41,-26.88 3.41,-40.53c0,-94.72 -51.63,-177.07 -128,-221.44c-76.37,44.37 -128,126.72 -128,221.44c0,13.65 1.28,27.3 3.41,40.53c-10.24,-8.53 -21.33,-16.63 -33.28,-23.46c-81.92,-47.36 -179.2,-43.95 -256,0c0,88.32 45.65,174.08 128,221.44c11.95,6.83 24.33,12.37 36.7,17.06c-12.37,4.69 -24.75,10.24 -36.7,17.07c-81.92,47.36 -127.57,133.12 -128,221.44c76.37,43.95 173.65,47.36 256,0c11.95,-6.83 23.04,-14.93 33.28,-23.04c-2.13,13.65 -3.41,27.31 -3.41,40.96c0,94.72 51.63,177.07 128,221.44c76.37,-44.37 128,-126.72 128,-221.44c0,-13.65 -1.28,-27.3 -3.41,-40.53c10.24,8.53 21.33,16.21 33.28,23.04c81.92,47.36 179.2,43.95 256,0c-0.43,-88.32 -46.08,-174.08 -128,-221.44zM512,682.67c-94.29,0 -170.67,-76.38 -170.67,-170.67c0,-94.29 76.38,-170.67 170.67,-170.67c94.29,0 170.67,76.38 170.67,170.67c0,94.29 -76.38,170.67 -170.67,170.67z" fill="#000000" filter="url(#filter-Jzx921NJ)"/>
		</g>
	</g>
</svg>