<svg version="1.1" xmlns="http://www.w3.org/2000/svg" xmlns:xlink="http://www.w3.org/1999/xlink" viewBox="0,0,1024,1024">
	<!-- Color names: teamapps-color-1, teamapps-color-2, teamapps-color-3 -->
	<desc>flash_auto icon - Licensed under Apache License v2.0 (http://www.apache.org/licenses/LICENSE-2.0) - Created with Iconfu.com - Derivative work of Material icons (Copyright Google Inc.)</desc>
	<defs>
		<clipPath id="clip-VK6xpMWa">
			<path d="M554.67,85.33l-170.67,384h170.67l-298.67,512v-384h-128v-512zM947.2,469.33h-81.07l-29.86,-85.33h-136.54l-29.86,85.33h-81.07l136.53,-384h85.34zM817.07,326.4l-49.07,-155.73l-49.07,155.73z"/>
		</clipPath>
		<linearGradient x1="0" y1="1024" x2="1024" y2="0" id="color-dFSM3cEj" gradientUnits="userSpaceOnUse">
			<stop offset="0.2" stop-color="#000000"/>
			<stop offset="0.8" stop-color="#ffffff"/>
		</linearGradient>
		<radialGradient cx="0" cy="0" r="1448.15" id="color-vFH1d348" gradientUnits="userSpaceOnUse">
			<stop offset="0.07" stop-color="#ffffff"/>
			<stop offset="0.75" stop-color="#000000"/>
		</radialGradient>
		<filter id="filter-a7V86rf9" x="0%" y="0%" width="100%" height="100%" color-interpolation-filters="sRGB">
			<feColorMatrix values="1 0 0 0 0 0 1 0 0 0 0 0 1 0 0 0 0 0 0.05 0" in="SourceGraphic"/>
			<feOffset dy="20"/>
			<feGaussianBlur stdDeviation="11" result="blur0"/>
			<feColorMatrix values="1 0 0 0 0 0 1 0 0 0 0 0 1 0 0 0 0 0 0.07 0" in="SourceGraphic"/>
			<feOffset dy="30"/>
			<feGaussianBlur stdDeviation="20" result="blur1"/>
			<feMerge>
				<feMergeNode in="blur0"/>
				<feMergeNode in="blur1"/>
			</feMerge>
		</filter>
		<filter id="filter-QddrLvxr" color-interpolation-filters="sRGB">
			<feOffset/>
		</filter>
		<mask id="mask-3skWG0Nh">
			<path d="M554.67,85.33l-170.67,384h170.67l-298.67,512v-384h-128v-512zM947.2,469.33h-81.07l-29.86,-85.33h-136.54l-29.86,85.33h-81.07l136.53,-384h85.34zM817.07,326.4l-49.07,-155.73l-49.07,155.73z" fill="url(#color-vFH1d348)"/>
		</mask>
		<mask id="mask-iO68bYFt">
			<path d="M554.67,85.33l-170.67,384h170.67l-298.67,512v-384h-128v-512zM947.2,469.33h-81.07l-29.86,-85.33h-136.54l-29.86,85.33h-81.07l136.53,-384h85.34zM817.07,326.4l-49.07,-155.73l-49.07,155.73z" fill="#ffffff"/>
		</mask>
		<mask id="mask-SfoM9imV">
			<rect fill="url(#color-dFSM3cEj)" x="128" y="85.33" width="819.2" height="896"/>
		</mask>
	</defs>
	<g fill="none" fill-rule="nonzero" style="mix-blend-mode: normal">
		<g mask="url(#mask-iO68bYFt)">
			<g color="#ffc107" class="teamapps-color-2">
				<rect x="128" y="85.33" width="819.2" height="896" fill="currentColor"/>
			</g>
			<g color="#e65100" class="teamapps-color-3" mask="url(#mask-SfoM9imV)">
				<rect x="128" y="85.33" width="819.2" height="896" fill="currentColor"/>
			</g>
		</g>
		<g filter="url(#filter-QddrLvxr)" mask="url(#mask-3skWG0Nh)">
			<g color="#fff59d" class="teamapps-color-1">
				<rect x="128" y="85.33" width="819.2" height="896" fill="currentColor"/>
			</g>
		</g>
		<g clip-path="url(#clip-VK6xpMWa)">
			<path d="M35,1024.33v-1082h1005.2v1082zM128,85.33v512h128v384l298.67,-512h-170.67l170.67,-384zM810.67,85.33h-85.34l-136.53,384h81.07l29.86,-85.33h136.54l29.86,85.33h81.07zM718.93,326.4l49.07,-155.73l49.07,155.73z" fill="#000000" filter="url(#filter-a7V86rf9)"/>
		</g>
	</g>
</svg>