<svg version="1.1" xmlns="http://www.w3.org/2000/svg" xmlns:xlink="http://www.w3.org/1999/xlink" viewBox="0,0,1024,1024">
	<!-- Color names: teamapps-color-1, teamapps-color-2, teamapps-color-3 -->
	<desc>flip_to_back icon - Licensed under Apache License v2.0 (http://www.apache.org/licenses/LICENSE-2.0) - Created with Iconfu.com - Derivative work of Material icons (Copyright Google Inc.)</desc>
	<defs>
		<clipPath id="clip-ojNi2aiH">
			<path d="M213.33,810.67h512v85.33h-512c-47.36,0 -85.33,-38.4 -85.33,-85.33v-512h85.33zM384,384h-85.33v-85.33h85.33zM810.67,298.67h85.33v85.33h-85.33zM384,554.67h-85.33v-85.34h85.33zM384,213.33h-85.33c0,-46.93 37.97,-85.33 85.33,-85.33zM896,213.33h-85.33v-85.33c46.93,0 85.33,38.4 85.33,85.33zM810.67,469.33h85.33v85.34h-85.33zM554.67,213.33h-85.34v-85.33h85.34zM298.67,640h85.33v85.33c-47.36,0 -85.33,-38.4 -85.33,-85.33zM810.67,640h85.33c0,46.93 -38.4,85.33 -85.33,85.33zM554.67,725.33h-85.34v-85.33h85.34zM640,128h85.33v85.33h-85.33zM640,640h85.33v85.33h-85.33z"/>
		</clipPath>
		<linearGradient x1="0" y1="1024" x2="1024" y2="0" id="color-eAgaSpqa" gradientUnits="userSpaceOnUse">
			<stop offset="0.2" stop-color="#000000"/>
			<stop offset="0.8" stop-color="#ffffff"/>
		</linearGradient>
		<radialGradient cx="0" cy="0" r="1448.15" id="color-PTwBdQt5" gradientUnits="userSpaceOnUse">
			<stop offset="0.07" stop-color="#ffffff"/>
			<stop offset="0.75" stop-color="#000000"/>
		</radialGradient>
		<filter id="filter-1mtPtkPm" color-interpolation-filters="sRGB">
			<feOffset/>
		</filter>
		<filter id="filter-YW986bzC" x="0%" y="0%" width="100%" height="100%" color-interpolation-filters="sRGB">
			<feColorMatrix values="1 0 0 0 0 0 1 0 0 0 0 0 1 0 0 0 0 0 0.05 0" in="SourceGraphic"/>
			<feOffset dy="20"/>
			<feGaussianBlur stdDeviation="11" result="blur0"/>
			<feColorMatrix values="1 0 0 0 0 0 1 0 0 0 0 0 1 0 0 0 0 0 0.07 0" in="SourceGraphic"/>
			<feOffset dy="30"/>
			<feGaussianBlur stdDeviation="20" result="blur1"/>
			<feMerge>
				<feMergeNode in="blur0"/>
				<feMergeNode in="blur1"/>
			</feMerge>
		</filter>
		<mask id="mask-eSmkYMtn">
			<path d="M213.33,810.67h512v85.33h-512c-47.36,0 -85.33,-38.4 -85.33,-85.33v-512h85.33zM384,384h-85.33v-85.33h85.33zM810.67,298.67h85.33v85.33h-85.33zM384,554.67h-85.33v-85.34h85.33zM384,213.33h-85.33c0,-46.93 37.97,-85.33 85.33,-85.33zM896,213.33h-85.33v-85.33c46.93,0 85.33,38.4 85.33,85.33zM810.67,469.33h85.33v85.34h-85.33zM554.67,213.33h-85.34v-85.33h85.34zM298.67,640h85.33v85.33c-47.36,0 -85.33,-38.4 -85.33,-85.33zM810.67,640h85.33c0,46.93 -38.4,85.33 -85.33,85.33zM554.67,725.33h-85.34v-85.33h85.34zM640,128h85.33v85.33h-85.33zM640,640h85.33v85.33h-85.33z" fill="url(#color-PTwBdQt5)"/>
		</mask>
		<mask id="mask-xpScIkPE">
			<path d="M213.33,810.67h512v85.33h-512c-47.36,0 -85.33,-38.4 -85.33,-85.33v-512h85.33zM384,384h-85.33v-85.33h85.33zM810.67,298.67h85.33v85.33h-85.33zM384,554.67h-85.33v-85.34h85.33zM384,213.33h-85.33c0,-46.93 37.97,-85.33 85.33,-85.33zM896,213.33h-85.33v-85.33c46.93,0 85.33,38.4 85.33,85.33zM810.67,469.33h85.33v85.34h-85.33zM554.67,213.33h-85.34v-85.33h85.34zM298.67,640h85.33v85.33c-47.36,0 -85.33,-38.4 -85.33,-85.33zM810.67,640h85.33c0,46.93 -38.4,85.33 -85.33,85.33zM554.67,725.33h-85.34v-85.33h85.34zM640,128h85.33v85.33h-85.33zM640,640h85.33v85.33h-85.33z" fill="#ffffff"/>
		</mask>
		<mask id="mask-Youzhy0H">
			<rect fill="url(#color-eAgaSpqa)" x="128" y="128" width="768" height="768"/>
		</mask>
	</defs>
	<g fill="none" fill-rule="nonzero" style="mix-blend-mode: normal">
		<g mask="url(#mask-xpScIkPE)">
			<g color="#ffc107" class="teamapps-color-2">
				<rect x="128" y="128" width="768" height="768" fill="currentColor"/>
			</g>
			<g color="#e65100" class="teamapps-color-3" mask="url(#mask-Youzhy0H)">
				<rect x="128" y="128" width="768" height="768" fill="currentColor"/>
			</g>
		</g>
		<g filter="url(#filter-1mtPtkPm)" mask="url(#mask-eSmkYMtn)">
			<g color="#fff59d" class="teamapps-color-1">
				<rect x="128" y="128" width="768" height="768" fill="currentColor"/>
			</g>
		</g>
		<g clip-path="url(#clip-ojNi2aiH)">
			<path d="M35,939v-954h954v954zM213.33,298.67h-85.33v512c0,46.93 37.97,85.33 85.33,85.33h512v-85.33h-512zM384,298.67h-85.33v85.33h85.33zM810.67,384h85.33v-85.33h-85.33zM384,469.33h-85.33v85.34h85.33zM384,128c-47.36,0 -85.33,38.4 -85.33,85.33h85.33zM810.67,128v85.33h85.33c0,-46.93 -38.4,-85.33 -85.33,-85.33zM810.67,554.67h85.33v-85.34h-85.33zM554.67,128h-85.34v85.33h85.34zM384,725.33v-85.33h-85.33c0,46.93 37.97,85.33 85.33,85.33zM810.67,725.33c46.93,0 85.33,-38.4 85.33,-85.33h-85.33zM554.67,640h-85.34v85.33h85.34zM640,213.33h85.33v-85.33h-85.33zM640,725.33h85.33v-85.33h-85.33z" fill="#000000" filter="url(#filter-YW986bzC)"/>
		</g>
	</g>
</svg>