<svg version="1.1" xmlns="http://www.w3.org/2000/svg" xmlns:xlink="http://www.w3.org/1999/xlink" viewBox="0,0,1024,1024">
	<!-- Color names: teamapps-color-1, teamapps-color-2, teamapps-color-3 -->
	<desc>font_download icon - Licensed under Apache License v2.0 (http://www.apache.org/licenses/LICENSE-2.0) - Created with Iconfu.com - Derivative work of Material icons (Copyright Google Inc.)</desc>
	<defs>
		<clipPath id="clip-MrLwDkaW">
			<path d="M938.67,170.67v682.66c0,46.93 -38.41,85.34 -85.34,85.34h-682.66c-46.93,0 -85.34,-38.41 -85.34,-85.34v-682.66c0,-46.93 38.41,-85.34 85.34,-85.34h682.66c46.93,0 85.34,38.41 85.34,85.34zM769.71,789.33l-218.03,-554.66h-79.36l-218.03,554.66h89.18l47.78,-128h240.64l48.64,128zM512,340.48l88.32,235.52h-176.64z"/>
		</clipPath>
		<linearGradient x1="0" y1="1024" x2="1024" y2="0" id="color-GMmRuTxH" gradientUnits="userSpaceOnUse">
			<stop offset="0.2" stop-color="#000000"/>
			<stop offset="0.8" stop-color="#ffffff"/>
		</linearGradient>
		<radialGradient cx="0" cy="0" r="1448.15" id="color-vAe8RgRg" gradientUnits="userSpaceOnUse">
			<stop offset="0.07" stop-color="#ffffff"/>
			<stop offset="0.75" stop-color="#000000"/>
		</radialGradient>
		<filter id="filter-ffkKDZwf" color-interpolation-filters="sRGB">
			<feOffset/>
		</filter>
		<filter id="filter-ukoQwHVx" x="0%" y="0%" width="100%" height="100%" color-interpolation-filters="sRGB">
			<feColorMatrix values="1 0 0 0 0 0 1 0 0 0 0 0 1 0 0 0 0 0 0.05 0" in="SourceGraphic"/>
			<feOffset dy="20"/>
			<feGaussianBlur stdDeviation="11" result="blur0"/>
			<feColorMatrix values="1 0 0 0 0 0 1 0 0 0 0 0 1 0 0 0 0 0 0.07 0" in="SourceGraphic"/>
			<feOffset dy="30"/>
			<feGaussianBlur stdDeviation="20" result="blur1"/>
			<feMerge>
				<feMergeNode in="blur0"/>
				<feMergeNode in="blur1"/>
			</feMerge>
		</filter>
		<mask id="mask-b3YxbpsE">
			<path d="M938.67,170.67v682.66c0,46.93 -38.41,85.34 -85.34,85.34h-682.66c-46.93,0 -85.34,-38.41 -85.34,-85.34v-682.66c0,-46.93 38.41,-85.34 85.34,-85.34h682.66c46.93,0 85.34,38.41 85.34,85.34zM769.71,789.33l-218.03,-554.66h-79.36l-218.03,554.66h89.18l47.78,-128h240.64l48.64,128zM512,340.48l88.32,235.52h-176.64z" fill="url(#color-vAe8RgRg)"/>
		</mask>
		<mask id="mask-vXkzyxpr">
			<rect fill="url(#color-GMmRuTxH)" x="85.33" y="85.33" width="853.34" height="853.34"/>
		</mask>
		<mask id="mask-xRVVvicW">
			<path d="M938.67,170.67v682.66c0,46.93 -38.41,85.34 -85.34,85.34h-682.66c-46.93,0 -85.34,-38.41 -85.34,-85.34v-682.66c0,-46.93 38.41,-85.34 85.34,-85.34h682.66c46.93,0 85.34,38.41 85.34,85.34zM769.71,789.33l-218.03,-554.66h-79.36l-218.03,554.66h89.18l47.78,-128h240.64l48.64,128zM512,340.48l88.32,235.52h-176.64z" fill="#ffffff"/>
		</mask>
	</defs>
	<g fill="none" fill-rule="nonzero" style="mix-blend-mode: normal">
		<g mask="url(#mask-xRVVvicW)">
			<g color="#ffc107" class="teamapps-color-2">
				<rect x="85.33" y="85.33" width="853.34" height="853.34" fill="currentColor"/>
			</g>
			<g color="#e65100" class="teamapps-color-3" mask="url(#mask-vXkzyxpr)">
				<rect x="85.33" y="85.33" width="853.34" height="853.34" fill="currentColor"/>
			</g>
		</g>
		<g filter="url(#filter-ffkKDZwf)" mask="url(#mask-b3YxbpsE)">
			<g color="#fff59d" class="teamapps-color-1">
				<rect x="85.33" y="85.33" width="853.34" height="853.34" fill="currentColor"/>
			</g>
		</g>
		<g clip-path="url(#clip-MrLwDkaW)">
			<path d="M-7.67,981.67v-1039.34h1039.34v1039.34zM853.33,85.33h-682.66c-46.93,0 -85.34,38.41 -85.34,85.34v682.66c0,46.93 38.41,85.34 85.34,85.34h682.66c46.93,0 85.34,-38.41 85.34,-85.34v-682.66c0,-46.93 -38.41,-85.34 -85.34,-85.34zM680.53,789.33l-48.64,-128h-240.64l-47.78,128h-89.18l218.03,-554.66h79.36l218.03,554.66zM423.68,576h176.64l-88.32,-235.52z" fill="#000000" filter="url(#filter-ukoQwHVx)"/>
		</g>
	</g>
</svg>