<svg version="1.1" xmlns="http://www.w3.org/2000/svg" xmlns:xlink="http://www.w3.org/1999/xlink" viewBox="0,0,1024,1024">
	<!-- Color names: teamapps-color-1, teamapps-color-2, teamapps-color-3 -->
	<desc>format_quote icon - Licensed under Apache License v2.0 (http://www.apache.org/licenses/LICENSE-2.0) - Created with Iconfu.com - Derivative work of Material icons (Copyright Google Inc.)</desc>
	<defs>
		<clipPath id="clip-5eKRnHOE">
			<path d="M341.33,554.67h-128v-256h256v256l-85.33,170.66h-128zM682.67,554.67h-128v-256h256v256l-85.34,170.66h-128z"/>
		</clipPath>
		<linearGradient x1="0" y1="1024" x2="1024" y2="0" id="color-dlgenplA" gradientUnits="userSpaceOnUse">
			<stop offset="0.2" stop-color="#000000"/>
			<stop offset="0.8" stop-color="#ffffff"/>
		</linearGradient>
		<radialGradient cx="0" cy="0" r="1448.15" id="color-MnoKlN5j" gradientUnits="userSpaceOnUse">
			<stop offset="0.07" stop-color="#ffffff"/>
			<stop offset="0.75" stop-color="#000000"/>
		</radialGradient>
		<filter id="filter-a4taqCeA" x="0%" y="0%" width="100%" height="100%" color-interpolation-filters="sRGB">
			<feColorMatrix values="1 0 0 0 0 0 1 0 0 0 0 0 1 0 0 0 0 0 0.05 0" in="SourceGraphic"/>
			<feOffset dy="20"/>
			<feGaussianBlur stdDeviation="11" result="blur0"/>
			<feColorMatrix values="1 0 0 0 0 0 1 0 0 0 0 0 1 0 0 0 0 0 0.07 0" in="SourceGraphic"/>
			<feOffset dy="30"/>
			<feGaussianBlur stdDeviation="20" result="blur1"/>
			<feMerge>
				<feMergeNode in="blur0"/>
				<feMergeNode in="blur1"/>
			</feMerge>
		</filter>
		<filter id="filter-GPzBR9ne" color-interpolation-filters="sRGB">
			<feOffset/>
		</filter>
		<mask id="mask-DfMVtuD0">
			<rect fill="url(#color-dlgenplA)" x="213.33" y="298.67" width="597.34" height="426.66"/>
		</mask>
		<mask id="mask-tqLf6NxF">
			<path d="M341.33,554.67h-128v-256h256v256l-85.33,170.66h-128zM682.67,554.67h-128v-256h256v256l-85.34,170.66h-128z" fill="url(#color-MnoKlN5j)"/>
		</mask>
		<mask id="mask-V1VbFjJH">
			<path d="M341.33,554.67h-128v-256h256v256l-85.33,170.66h-128zM682.67,554.67h-128v-256h256v256l-85.34,170.66h-128z" fill="#ffffff"/>
		</mask>
	</defs>
	<g fill="none" fill-rule="nonzero" style="mix-blend-mode: normal">
		<g mask="url(#mask-V1VbFjJH)">
			<g color="#ffc107" class="teamapps-color-2">
				<rect x="213.33" y="298.67" width="597.34" height="426.66" fill="currentColor"/>
			</g>
			<g color="#e65100" class="teamapps-color-3" mask="url(#mask-DfMVtuD0)">
				<rect x="213.33" y="298.67" width="597.34" height="426.66" fill="currentColor"/>
			</g>
		</g>
		<g filter="url(#filter-GPzBR9ne)" mask="url(#mask-tqLf6NxF)">
			<g color="#fff59d" class="teamapps-color-1">
				<rect x="213.33" y="298.67" width="597.34" height="426.66" fill="currentColor"/>
			</g>
		</g>
		<g clip-path="url(#clip-5eKRnHOE)">
			<path d="M120.33,768.33v-612.66h783.34v612.66zM256,725.33h128l85.33,-170.66v-256h-256v256h128zM597.33,725.33h128l85.34,-170.66v-256h-256v256h128z" fill="#000000" filter="url(#filter-a4taqCeA)"/>
		</g>
	</g>
</svg>