<svg version="1.1" xmlns="http://www.w3.org/2000/svg" xmlns:xlink="http://www.w3.org/1999/xlink" viewBox="0,0,1024,1024">
	<!-- Color names: teamapps-color-1, teamapps-color-2, teamapps-color-3 -->
	<desc>fullscreen_exit icon - Licensed under Apache License v2.0 (http://www.apache.org/licenses/LICENSE-2.0) - Created with Iconfu.com - Derivative work of Material icons (Copyright Google Inc.)</desc>
	<defs>
		<clipPath id="clip-6guIml7a">
			<path d="M597.33,597.33h213.34v85.34h-128v128h-85.34zM213.33,597.33h213.34v213.34h-85.34v-128h-128zM810.67,341.33v85.34h-213.34v-213.34h85.34v128zM341.33,213.33h85.34v213.34h-213.34v-85.34h128z"/>
		</clipPath>
		<radialGradient cx="0" cy="0" r="1448.15" id="color-BSWnfBpK" gradientUnits="userSpaceOnUse">
			<stop offset="0.07" stop-color="#ffffff"/>
			<stop offset="0.75" stop-color="#000000"/>
		</radialGradient>
		<linearGradient x1="0" y1="1024" x2="1024" y2="0" id="color-Q10yERBE" gradientUnits="userSpaceOnUse">
			<stop offset="0.2" stop-color="#000000"/>
			<stop offset="0.8" stop-color="#ffffff"/>
		</linearGradient>
		<filter id="filter-GkgJVhH0" x="0%" y="0%" width="100%" height="100%" color-interpolation-filters="sRGB">
			<feColorMatrix values="1 0 0 0 0 0 1 0 0 0 0 0 1 0 0 0 0 0 0.05 0" in="SourceGraphic"/>
			<feOffset dy="20"/>
			<feGaussianBlur stdDeviation="11" result="blur0"/>
			<feColorMatrix values="1 0 0 0 0 0 1 0 0 0 0 0 1 0 0 0 0 0 0.07 0" in="SourceGraphic"/>
			<feOffset dy="30"/>
			<feGaussianBlur stdDeviation="20" result="blur1"/>
			<feMerge>
				<feMergeNode in="blur0"/>
				<feMergeNode in="blur1"/>
			</feMerge>
		</filter>
		<filter id="filter-LeGDgIcg" color-interpolation-filters="sRGB">
			<feOffset/>
		</filter>
		<mask id="mask-F0qTdihv">
			<rect fill="url(#color-Q10yERBE)" x="213.33" y="213.33" width="597.34" height="597.34"/>
		</mask>
		<mask id="mask-gvBjhbro">
			<path d="M597.33,597.33h213.34v85.34h-128v128h-85.34zM213.33,597.33h213.34v213.34h-85.34v-128h-128zM810.67,341.33v85.34h-213.34v-213.34h85.34v128zM341.33,213.33h85.34v213.34h-213.34v-85.34h128z" fill="#ffffff"/>
		</mask>
		<mask id="mask-QF4J0LjY">
			<path d="M597.33,597.33h213.34v85.34h-128v128h-85.34zM213.33,597.33h213.34v213.34h-85.34v-128h-128zM810.67,341.33v85.34h-213.34v-213.34h85.34v128zM341.33,213.33h85.34v213.34h-213.34v-85.34h128z" fill="url(#color-BSWnfBpK)"/>
		</mask>
	</defs>
	<g fill="none" fill-rule="nonzero" style="mix-blend-mode: normal">
		<g mask="url(#mask-gvBjhbro)">
			<g color="#ffc107" class="teamapps-color-2">
				<rect x="213.33" y="213.33" width="597.34" height="597.34" fill="currentColor"/>
			</g>
			<g color="#e65100" class="teamapps-color-3" mask="url(#mask-F0qTdihv)">
				<rect x="213.33" y="213.33" width="597.34" height="597.34" fill="currentColor"/>
			</g>
		</g>
		<g filter="url(#filter-LeGDgIcg)" mask="url(#mask-QF4J0LjY)">
			<g color="#fff59d" class="teamapps-color-1">
				<rect x="213.33" y="213.33" width="597.34" height="597.34" fill="currentColor"/>
			</g>
		</g>
		<g clip-path="url(#clip-6guIml7a)">
			<path d="M120.33,853.67v-783.34h783.34v783.34zM597.33,810.67h85.34v-128h128v-85.34h-213.34zM213.33,682.67h128v128h85.34v-213.34h-213.34zM682.67,341.33v-128h-85.34v213.34h213.34v-85.34zM341.33,341.33h-128v85.34h213.34v-213.34h-85.34z" fill="#000000" filter="url(#filter-GkgJVhH0)"/>
		</g>
	</g>
</svg>