<svg version="1.1" xmlns="http://www.w3.org/2000/svg" xmlns:xlink="http://www.w3.org/1999/xlink" viewBox="0,0,1024,1024">
	<!-- Color names: teamapps-color-1, teamapps-color-2, teamapps-color-3 -->
	<desc>grid_off icon - Licensed under Apache License v2.0 (http://www.apache.org/licenses/LICENSE-2.0) - Created with Iconfu.com - Derivative work of Material icons (Copyright Google Inc.)</desc>
	<defs>
		<clipPath id="clip-cjJMEcEN">
			<path d="M969.81,969.81l-54.18,54.19l-85.34,-85.33h-659.62c-46.93,0 -85.34,-38.41 -85.34,-85.34v-659.2l-85.33,-85.33l54.19,-54.61zM279.47,170.67l-85.34,-85.34h659.2c46.93,0 85.34,38.41 85.34,85.34v659.2l-85.34,-85.34v-61.86h-61.86l-85.34,-85.34h147.2v-170.66h-170.66v147.2l-85.34,-85.34v-61.86h-61.86l-85.34,-85.34h147.2v-170.66h-170.66v147.2l-85.34,-85.34v-61.86zM682.67,341.33h170.66v-170.66h-170.66zM341.33,682.67h-170.66v170.66h170.66zM341.33,450.13l-23.46,-23.46h-147.2v170.66h170.66zM597.33,705.71l-23.46,-23.04h-147.2v170.66h170.66zM744.96,853.33l-62.29,-62.29v62.29zM170.67,341.33h61.86l-61.86,-61.86zM426.67,597.33h61.86l-61.86,-61.86z"/>
		</clipPath>
		<radialGradient cx="0" cy="0" r="1448.15" id="color-OaHTmojj" gradientUnits="userSpaceOnUse">
			<stop offset="0.07" stop-color="#ffffff"/>
			<stop offset="0.75" stop-color="#000000"/>
		</radialGradient>
		<linearGradient x1="0" y1="1024" x2="1024" y2="0" id="color-VD8a6Ayh" gradientUnits="userSpaceOnUse">
			<stop offset="0.2" stop-color="#000000"/>
			<stop offset="0.8" stop-color="#ffffff"/>
		</linearGradient>
		<filter id="filter-9xmRckFU" color-interpolation-filters="sRGB">
			<feOffset/>
		</filter>
		<filter id="filter-GFJJCYok" x="0%" y="0%" width="100%" height="100%" color-interpolation-filters="sRGB">
			<feColorMatrix values="1 0 0 0 0 0 1 0 0 0 0 0 1 0 0 0 0 0 0.05 0" in="SourceGraphic"/>
			<feOffset dy="20"/>
			<feGaussianBlur stdDeviation="11" result="blur0"/>
			<feColorMatrix values="1 0 0 0 0 0 1 0 0 0 0 0 1 0 0 0 0 0 0.07 0" in="SourceGraphic"/>
			<feOffset dy="30"/>
			<feGaussianBlur stdDeviation="20" result="blur1"/>
			<feMerge>
				<feMergeNode in="blur0"/>
				<feMergeNode in="blur1"/>
			</feMerge>
		</filter>
		<mask id="mask-cYyEZ8fm">
			<path d="M969.81,969.81l-54.18,54.19l-85.34,-85.33h-659.62c-46.93,0 -85.34,-38.41 -85.34,-85.34v-659.2l-85.33,-85.33l54.19,-54.61zM279.47,170.67l-85.34,-85.34h659.2c46.93,0 85.34,38.41 85.34,85.34v659.2l-85.34,-85.34v-61.86h-61.86l-85.34,-85.34h147.2v-170.66h-170.66v147.2l-85.34,-85.34v-61.86h-61.86l-85.34,-85.34h147.2v-170.66h-170.66v147.2l-85.34,-85.34v-61.86zM682.67,341.33h170.66v-170.66h-170.66zM341.33,682.67h-170.66v170.66h170.66zM341.33,450.13l-23.46,-23.46h-147.2v170.66h170.66zM597.33,705.71l-23.46,-23.04h-147.2v170.66h170.66zM744.96,853.33l-62.29,-62.29v62.29zM170.67,341.33h61.86l-61.86,-61.86zM426.67,597.33h61.86l-61.86,-61.86z" fill="#ffffff"/>
		</mask>
		<mask id="mask-Fx1V5uKF">
			<path d="M969.81,969.81l-54.18,54.19l-85.34,-85.33h-659.62c-46.93,0 -85.34,-38.41 -85.34,-85.34v-659.2l-85.33,-85.33l54.19,-54.61zM279.47,170.67l-85.34,-85.34h659.2c46.93,0 85.34,38.41 85.34,85.34v659.2l-85.34,-85.34v-61.86h-61.86l-85.34,-85.34h147.2v-170.66h-170.66v147.2l-85.34,-85.34v-61.86h-61.86l-85.34,-85.34h147.2v-170.66h-170.66v147.2l-85.34,-85.34v-61.86zM682.67,341.33h170.66v-170.66h-170.66zM341.33,682.67h-170.66v170.66h170.66zM341.33,450.13l-23.46,-23.46h-147.2v170.66h170.66zM597.33,705.71l-23.46,-23.04h-147.2v170.66h170.66zM744.96,853.33l-62.29,-62.29v62.29zM170.67,341.33h61.86l-61.86,-61.86zM426.67,597.33h61.86l-61.86,-61.86z" fill="url(#color-OaHTmojj)"/>
		</mask>
		<mask id="mask-MsSTeJHf">
			<rect fill="url(#color-VD8a6Ayh)" x="0" y="54.19" width="969.81" height="969.81"/>
		</mask>
	</defs>
	<g fill="none" fill-rule="nonzero" style="mix-blend-mode: normal">
		<g mask="url(#mask-cYyEZ8fm)">
			<g color="#ffc107" class="teamapps-color-2">
				<rect x="0" y="54.19" width="969.81" height="969.81" fill="currentColor"/>
			</g>
			<g color="#e65100" class="teamapps-color-3" mask="url(#mask-MsSTeJHf)">
				<rect x="0" y="54.19" width="969.81" height="969.81" fill="currentColor"/>
			</g>
		</g>
		<g filter="url(#filter-9xmRckFU)" mask="url(#mask-Fx1V5uKF)">
			<g color="#fff59d" class="teamapps-color-1">
				<rect x="0" y="54.19" width="969.81" height="969.81" fill="currentColor"/>
			</g>
		</g>
		<g clip-path="url(#clip-cjJMEcEN)">
			<path d="M-93,1067v-1155.81h1155.81v1155.81zM54.19,54.19l-54.19,54.61l85.33,85.33v659.2c0,46.93 38.41,85.34 85.34,85.34h659.62l85.34,85.33l54.18,-54.19zM341.33,170.67v61.86l85.34,85.34v-147.2h170.66v170.66h-147.2l85.34,85.34h61.86v61.86l85.34,85.34v-147.2h170.66v170.66h-147.2l85.34,85.34h61.86v61.86l85.34,85.34v-659.2c0,-46.93 -38.41,-85.34 -85.34,-85.34h-659.2l85.34,85.34zM682.67,170.67h170.66v170.66h-170.66zM341.33,853.33h-170.66v-170.66h170.66zM341.33,597.33h-170.66v-170.66h147.2l23.46,23.46zM597.33,853.33h-170.66v-170.66h147.2l23.46,23.04zM682.67,853.33v-62.29l62.29,62.29zM170.67,279.47l61.86,61.86h-61.86zM426.67,535.47l61.86,61.86h-61.86z" fill="#000000" filter="url(#filter-GFJJCYok)"/>
		</g>
	</g>
</svg>