<svg version="1.1" xmlns="http://www.w3.org/2000/svg" xmlns:xlink="http://www.w3.org/1999/xlink" viewBox="0,0,1024,1024">
	<!-- Color names: teamapps-color-1, teamapps-color-2, teamapps-color-3 -->
	<desc>image_aspect_ratio icon - Licensed under Apache License v2.0 (http://www.apache.org/licenses/LICENSE-2.0) - Created with Iconfu.com - Derivative work of Material icons (Copyright Google Inc.)</desc>
	<defs>
		<clipPath id="clip-Dekcu6WV">
			<path d="M938.67,256v512c0,46.93 -38.41,85.33 -85.34,85.33h-682.66c-46.93,0 -85.34,-38.4 -85.34,-85.33v-512c0,-46.93 38.41,-85.33 85.34,-85.33h682.66c46.93,0 85.34,38.4 85.34,85.33zM853.33,256h-682.66v512h682.66zM682.67,512h-85.34v-85.33h85.34zM682.67,682.67h-85.34v-85.34h85.34zM512,512h-85.33v-85.33h85.33zM341.33,512h-85.33v-85.33h85.33z"/>
		</clipPath>
		<radialGradient cx="0" cy="0" r="1448.15" id="color-10IzKNOq" gradientUnits="userSpaceOnUse">
			<stop offset="0.07" stop-color="#ffffff"/>
			<stop offset="0.75" stop-color="#000000"/>
		</radialGradient>
		<linearGradient x1="0" y1="1024" x2="1024" y2="0" id="color-iMOn4TKP" gradientUnits="userSpaceOnUse">
			<stop offset="0.2" stop-color="#000000"/>
			<stop offset="0.8" stop-color="#ffffff"/>
		</linearGradient>
		<filter id="filter-GLSpQK5h" x="0%" y="0%" width="100%" height="100%" color-interpolation-filters="sRGB">
			<feColorMatrix values="1 0 0 0 0 0 1 0 0 0 0 0 1 0 0 0 0 0 0.05 0" in="SourceGraphic"/>
			<feOffset dy="20"/>
			<feGaussianBlur stdDeviation="11" result="blur0"/>
			<feColorMatrix values="1 0 0 0 0 0 1 0 0 0 0 0 1 0 0 0 0 0 0.07 0" in="SourceGraphic"/>
			<feOffset dy="30"/>
			<feGaussianBlur stdDeviation="20" result="blur1"/>
			<feMerge>
				<feMergeNode in="blur0"/>
				<feMergeNode in="blur1"/>
			</feMerge>
		</filter>
		<filter id="filter-tOtOD4sN" color-interpolation-filters="sRGB">
			<feOffset/>
		</filter>
		<mask id="mask-noMBUH2i">
			<rect fill="url(#color-iMOn4TKP)" x="85.33" y="170.67" width="853.34" height="682.66"/>
		</mask>
		<mask id="mask-qBCu7r4g">
			<path d="M938.67,256v512c0,46.93 -38.41,85.33 -85.34,85.33h-682.66c-46.93,0 -85.34,-38.4 -85.34,-85.33v-512c0,-46.93 38.41,-85.33 85.34,-85.33h682.66c46.93,0 85.34,38.4 85.34,85.33zM853.33,256h-682.66v512h682.66zM682.67,512h-85.34v-85.33h85.34zM682.67,682.67h-85.34v-85.34h85.34zM512,512h-85.33v-85.33h85.33zM341.33,512h-85.33v-85.33h85.33z" fill="#ffffff"/>
		</mask>
		<mask id="mask-z20i4rbT">
			<path d="M938.67,256v512c0,46.93 -38.41,85.33 -85.34,85.33h-682.66c-46.93,0 -85.34,-38.4 -85.34,-85.33v-512c0,-46.93 38.41,-85.33 85.34,-85.33h682.66c46.93,0 85.34,38.4 85.34,85.33zM853.33,256h-682.66v512h682.66zM682.67,512h-85.34v-85.33h85.34zM682.67,682.67h-85.34v-85.34h85.34zM512,512h-85.33v-85.33h85.33zM341.33,512h-85.33v-85.33h85.33z" fill="url(#color-10IzKNOq)"/>
		</mask>
	</defs>
	<g fill="none" fill-rule="nonzero" style="mix-blend-mode: normal">
		<g mask="url(#mask-qBCu7r4g)">
			<g color="#ffc107" class="teamapps-color-2">
				<rect x="85.33" y="170.67" width="853.34" height="682.66" fill="currentColor"/>
			</g>
			<g color="#e65100" class="teamapps-color-3" mask="url(#mask-noMBUH2i)">
				<rect x="85.33" y="170.67" width="853.34" height="682.66" fill="currentColor"/>
			</g>
		</g>
		<g filter="url(#filter-tOtOD4sN)" mask="url(#mask-z20i4rbT)">
			<g color="#fff59d" class="teamapps-color-1">
				<rect x="85.33" y="170.67" width="853.34" height="682.66" fill="currentColor"/>
			</g>
		</g>
		<g clip-path="url(#clip-Dekcu6WV)">
			<path d="M-7.67,896.33v-868.66h1039.34v868.66zM853.33,170.67h-682.66c-46.93,0 -85.34,38.4 -85.34,85.33v512c0,46.93 38.41,85.33 85.34,85.33h682.66c46.93,0 85.34,-38.4 85.34,-85.33v-512c0,-46.93 -38.41,-85.33 -85.34,-85.33zM853.33,768h-682.66v-512h682.66zM682.67,426.67h-85.34v85.33h85.34zM682.67,597.33h-85.34v85.34h85.34zM512,426.67h-85.33v85.33h85.33zM341.33,426.67h-85.33v85.33h85.33z" fill="#000000" filter="url(#filter-GLSpQK5h)"/>
		</g>
	</g>
</svg>