<svg version="1.1" xmlns="http://www.w3.org/2000/svg" xmlns:xlink="http://www.w3.org/1999/xlink" viewBox="0,0,1024,1024">
	<!-- Color names: teamapps-color-1, teamapps-color-2, teamapps-color-3 -->
	<desc>insert_link icon - Licensed under Apache License v2.0 (http://www.apache.org/licenses/LICENSE-2.0) - Created with Iconfu.com - Derivative work of Material icons (Copyright Google Inc.)</desc>
	<defs>
		<clipPath id="clip-DR0tl5EX">
			<path d="M298.67,644.27h170.66v81.06h-170.66c-117.76,0 -213.34,-95.57 -213.34,-213.33c0,-117.76 95.58,-213.33 213.34,-213.33h170.66v81.06h-170.66c-72.96,0 -132.27,59.31 -132.27,132.27c0,72.96 59.31,132.27 132.27,132.27zM938.67,512c0,117.76 -95.58,213.33 -213.34,213.33h-170.66v-81.06h170.66c72.96,0 132.27,-59.31 132.27,-132.27c0,-72.96 -59.31,-132.27 -132.27,-132.27h-170.66v-81.06h170.66c117.76,0 213.34,95.57 213.34,213.33zM341.33,469.33h341.34v85.34h-341.34z"/>
		</clipPath>
		<linearGradient x1="0" y1="1024" x2="1024" y2="0" id="color-OBfqg7P8" gradientUnits="userSpaceOnUse">
			<stop offset="0.2" stop-color="#000000"/>
			<stop offset="0.8" stop-color="#ffffff"/>
		</linearGradient>
		<radialGradient cx="0" cy="0" r="1448.15" id="color-SIPmrEnZ" gradientUnits="userSpaceOnUse">
			<stop offset="0.07" stop-color="#ffffff"/>
			<stop offset="0.75" stop-color="#000000"/>
		</radialGradient>
		<filter id="filter-Oa9ciJ0l" color-interpolation-filters="sRGB">
			<feOffset/>
		</filter>
		<filter id="filter-VfP2ZsxQ" x="0%" y="0%" width="100%" height="100%" color-interpolation-filters="sRGB">
			<feColorMatrix values="1 0 0 0 0 0 1 0 0 0 0 0 1 0 0 0 0 0 0.05 0" in="SourceGraphic"/>
			<feOffset dy="20"/>
			<feGaussianBlur stdDeviation="11" result="blur0"/>
			<feColorMatrix values="1 0 0 0 0 0 1 0 0 0 0 0 1 0 0 0 0 0 0.07 0" in="SourceGraphic"/>
			<feOffset dy="30"/>
			<feGaussianBlur stdDeviation="20" result="blur1"/>
			<feMerge>
				<feMergeNode in="blur0"/>
				<feMergeNode in="blur1"/>
			</feMerge>
		</filter>
		<mask id="mask-Iyb3sOWU">
			<rect fill="url(#color-OBfqg7P8)" x="85.33" y="298.67" width="853.34" height="426.66"/>
		</mask>
		<mask id="mask-jpgzVuHV">
			<path d="M298.67,644.27h170.66v81.06h-170.66c-117.76,0 -213.34,-95.57 -213.34,-213.33c0,-117.76 95.58,-213.33 213.34,-213.33h170.66v81.06h-170.66c-72.96,0 -132.27,59.31 -132.27,132.27c0,72.96 59.31,132.27 132.27,132.27zM938.67,512c0,117.76 -95.58,213.33 -213.34,213.33h-170.66v-81.06h170.66c72.96,0 132.27,-59.31 132.27,-132.27c0,-72.96 -59.31,-132.27 -132.27,-132.27h-170.66v-81.06h170.66c117.76,0 213.34,95.57 213.34,213.33zM341.33,469.33h341.34v85.34h-341.34z" fill="url(#color-SIPmrEnZ)"/>
		</mask>
		<mask id="mask-lN0gHBEh">
			<path d="M298.67,644.27h170.66v81.06h-170.66c-117.76,0 -213.34,-95.57 -213.34,-213.33c0,-117.76 95.58,-213.33 213.34,-213.33h170.66v81.06h-170.66c-72.96,0 -132.27,59.31 -132.27,132.27c0,72.96 59.31,132.27 132.27,132.27zM938.67,512c0,117.76 -95.58,213.33 -213.34,213.33h-170.66v-81.06h170.66c72.96,0 132.27,-59.31 132.27,-132.27c0,-72.96 -59.31,-132.27 -132.27,-132.27h-170.66v-81.06h170.66c117.76,0 213.34,95.57 213.34,213.33zM341.33,469.33h341.34v85.34h-341.34z" fill="#ffffff"/>
		</mask>
	</defs>
	<g fill="none" fill-rule="nonzero" style="mix-blend-mode: normal">
		<g mask="url(#mask-lN0gHBEh)">
			<g color="#ffc107" class="teamapps-color-2">
				<rect x="85.33" y="298.67" width="853.34" height="426.66" fill="currentColor"/>
			</g>
			<g color="#e65100" class="teamapps-color-3" mask="url(#mask-Iyb3sOWU)">
				<rect x="85.33" y="298.67" width="853.34" height="426.66" fill="currentColor"/>
			</g>
		</g>
		<g filter="url(#filter-Oa9ciJ0l)" mask="url(#mask-jpgzVuHV)">
			<g color="#fff59d" class="teamapps-color-1">
				<rect x="85.33" y="298.67" width="853.34" height="426.66" fill="currentColor"/>
			</g>
		</g>
		<g clip-path="url(#clip-DR0tl5EX)">
			<path d="M-7.67,768.33v-612.66h1039.34v612.66zM166.4,512c0,-72.96 59.31,-132.27 132.27,-132.27h170.66v-81.06h-170.66c-117.76,0 -213.34,95.57 -213.34,213.33c0,117.76 95.58,213.33 213.34,213.33h170.66v-81.06h-170.66c-72.96,0 -132.27,-59.31 -132.27,-132.27zM725.33,298.67h-170.66v81.06h170.66c72.96,0 132.27,59.31 132.27,132.27c0,72.96 -59.31,132.27 -132.27,132.27h-170.66v81.06h170.66c117.76,0 213.34,-95.57 213.34,-213.33c0,-117.76 -95.58,-213.33 -213.34,-213.33zM341.33,554.67h341.34v-85.34h-341.34z" fill="#000000" filter="url(#filter-VfP2ZsxQ)"/>
		</g>
	</g>
</svg>