<svg version="1.1" xmlns="http://www.w3.org/2000/svg" xmlns:xlink="http://www.w3.org/1999/xlink" viewBox="0,0,1024,1024">
	<!-- Color names: teamapps-color-1, teamapps-color-2, teamapps-color-3 -->
	<desc>keyboard_capslock icon - Licensed under Apache License v2.0 (http://www.apache.org/licenses/LICENSE-2.0) - Created with Iconfu.com - Derivative work of Material icons (Copyright Google Inc.)</desc>
	<defs>
		<clipPath id="clip-yFgoUUxj">
			<path d="M316.16,554.67l-60.16,-60.16l256,-256l256,256l-60.16,60.16l-195.84,-195.84zM256,682.67h512v85.33h-512z"/>
		</clipPath>
		<linearGradient x1="0" y1="1024" x2="1024" y2="0" id="color-fGGCMeXX" gradientUnits="userSpaceOnUse">
			<stop offset="0.2" stop-color="#000000"/>
			<stop offset="0.8" stop-color="#ffffff"/>
		</linearGradient>
		<radialGradient cx="0" cy="0" r="1448.15" id="color-Zx6N3v6H" gradientUnits="userSpaceOnUse">
			<stop offset="0.07" stop-color="#ffffff"/>
			<stop offset="0.75" stop-color="#000000"/>
		</radialGradient>
		<filter id="filter-bA4KzxBW" x="0%" y="0%" width="100%" height="100%" color-interpolation-filters="sRGB">
			<feColorMatrix values="1 0 0 0 0 0 1 0 0 0 0 0 1 0 0 0 0 0 0.05 0" in="SourceGraphic"/>
			<feOffset dy="20"/>
			<feGaussianBlur stdDeviation="11" result="blur0"/>
			<feColorMatrix values="1 0 0 0 0 0 1 0 0 0 0 0 1 0 0 0 0 0 0.07 0" in="SourceGraphic"/>
			<feOffset dy="30"/>
			<feGaussianBlur stdDeviation="20" result="blur1"/>
			<feMerge>
				<feMergeNode in="blur0"/>
				<feMergeNode in="blur1"/>
			</feMerge>
		</filter>
		<filter id="filter-i8iYmK5d" color-interpolation-filters="sRGB">
			<feOffset/>
		</filter>
		<mask id="mask-CRLQ4IKJ">
			<path d="M316.16,554.67l-60.16,-60.16l256,-256l256,256l-60.16,60.16l-195.84,-195.84zM256,682.67h512v85.33h-512z" fill="url(#color-Zx6N3v6H)"/>
		</mask>
		<mask id="mask-EgWWoAOI">
			<path d="M316.16,554.67l-60.16,-60.16l256,-256l256,256l-60.16,60.16l-195.84,-195.84zM256,682.67h512v85.33h-512z" fill="#ffffff"/>
		</mask>
		<mask id="mask-XRVt4FAE">
			<rect fill="url(#color-fGGCMeXX)" x="256" y="238.51" width="512" height="529.49"/>
		</mask>
	</defs>
	<g fill="none" fill-rule="nonzero" style="mix-blend-mode: normal">
		<g mask="url(#mask-EgWWoAOI)">
			<g color="#ffc107" class="teamapps-color-2">
				<rect x="256" y="238.51" width="512" height="529.49" fill="currentColor"/>
			</g>
			<g color="#e65100" class="teamapps-color-3" mask="url(#mask-XRVt4FAE)">
				<rect x="256" y="238.51" width="512" height="529.49" fill="currentColor"/>
			</g>
		</g>
		<g filter="url(#filter-i8iYmK5d)" mask="url(#mask-CRLQ4IKJ)">
			<g color="#fff59d" class="teamapps-color-1">
				<rect x="256" y="238.51" width="512" height="529.49" fill="currentColor"/>
			</g>
		</g>
		<g clip-path="url(#clip-yFgoUUxj)">
			<path d="M163,811v-715.49h698v715.49zM512,358.83l195.84,195.84l60.16,-60.16l-256,-256l-256,256l60.16,60.16zM256,768h512v-85.33h-512z" fill="#000000" filter="url(#filter-bA4KzxBW)"/>
		</g>
	</g>
</svg>