<svg version="1.1" xmlns="http://www.w3.org/2000/svg" xmlns:xlink="http://www.w3.org/1999/xlink" viewBox="0,0,1024,1024">
	<!-- Color names: teamapps-color-1, teamapps-color-2, teamapps-color-3 -->
	<desc>label icon - Licensed under Apache License v2.0 (http://www.apache.org/licenses/LICENSE-2.0) - Created with Iconfu.com - Derivative work of Material icons (Copyright Google Inc.)</desc>
	<defs>
		<clipPath id="clip-ZlExe7ki">
			<path d="M938.67,512l-186.46,262.83c-15.36,21.76 -40.95,35.84 -69.54,35.84l-469.34,-0.43c-46.93,0 -85.33,-37.98 -85.33,-84.91v-426.66c0,-46.93 38.4,-84.91 85.33,-84.91l469.34,-0.43c28.59,0 54.18,14.08 69.54,35.84z"/>
		</clipPath>
		<radialGradient cx="0" cy="0" r="1448.15" id="color-kXAgwW4D" gradientUnits="userSpaceOnUse">
			<stop offset="0.07" stop-color="#ffffff"/>
			<stop offset="0.75" stop-color="#000000"/>
		</radialGradient>
		<linearGradient x1="0" y1="1024" x2="1024" y2="0" id="color-uX56mszm" gradientUnits="userSpaceOnUse">
			<stop offset="0.2" stop-color="#000000"/>
			<stop offset="0.8" stop-color="#ffffff"/>
		</linearGradient>
		<filter id="filter-I7PQjTqo" color-interpolation-filters="sRGB">
			<feOffset/>
		</filter>
		<filter id="filter-WyDhlnlZ" x="0%" y="0%" width="100%" height="100%" color-interpolation-filters="sRGB">
			<feColorMatrix values="1 0 0 0 0 0 1 0 0 0 0 0 1 0 0 0 0 0 0.05 0" in="SourceGraphic"/>
			<feOffset dy="20"/>
			<feGaussianBlur stdDeviation="11" result="blur0"/>
			<feColorMatrix values="1 0 0 0 0 0 1 0 0 0 0 0 1 0 0 0 0 0 0.07 0" in="SourceGraphic"/>
			<feOffset dy="30"/>
			<feGaussianBlur stdDeviation="20" result="blur1"/>
			<feMerge>
				<feMergeNode in="blur0"/>
				<feMergeNode in="blur1"/>
			</feMerge>
		</filter>
		<mask id="mask-M42iYjv7">
			<rect fill="url(#color-uX56mszm)" x="128" y="213.33" width="810.67" height="597.34"/>
		</mask>
		<mask id="mask-wuO86XJj">
			<path d="M938.67,512l-186.46,262.83c-15.36,21.76 -40.95,35.84 -69.54,35.84l-469.34,-0.43c-46.93,0 -85.33,-37.98 -85.33,-84.91v-426.66c0,-46.93 38.4,-84.91 85.33,-84.91l469.34,-0.43c28.59,0 54.18,14.08 69.54,35.84z" fill="url(#color-kXAgwW4D)"/>
		</mask>
		<mask id="mask-YDHiWXjM">
			<path d="M938.67,512l-186.46,262.83c-15.36,21.76 -40.95,35.84 -69.54,35.84l-469.34,-0.43c-46.93,0 -85.33,-37.98 -85.33,-84.91v-426.66c0,-46.93 38.4,-84.91 85.33,-84.91l469.34,-0.43c28.59,0 54.18,14.08 69.54,35.84z" fill="#ffffff"/>
		</mask>
	</defs>
	<g fill="none" fill-rule="nonzero" style="mix-blend-mode: normal">
		<g mask="url(#mask-YDHiWXjM)">
			<g color="#ffc107" class="teamapps-color-2">
				<rect x="128" y="213.33" width="810.67" height="597.34" fill="currentColor"/>
			</g>
			<g color="#e65100" class="teamapps-color-3" mask="url(#mask-M42iYjv7)">
				<rect x="128" y="213.33" width="810.67" height="597.34" fill="currentColor"/>
			</g>
		</g>
		<g filter="url(#filter-I7PQjTqo)" mask="url(#mask-wuO86XJj)">
			<g color="#fff59d" class="teamapps-color-1">
				<rect x="128" y="213.33" width="810.67" height="597.34" fill="currentColor"/>
			</g>
		</g>
		<g clip-path="url(#clip-ZlExe7ki)">
			<path d="M35,853.67v-783.34h996.67v783.34zM752.21,249.17c-15.36,-21.76 -40.95,-35.84 -69.54,-35.84l-469.34,0.43c-46.93,0 -85.33,37.98 -85.33,84.91v426.66c0,46.93 38.4,84.91 85.33,84.91l469.34,0.43c28.59,0 54.18,-14.08 69.54,-35.84l186.46,-262.83z" fill="#000000" filter="url(#filter-WyDhlnlZ)"/>
		</g>
	</g>
</svg>