<svg version="1.1" xmlns="http://www.w3.org/2000/svg" xmlns:xlink="http://www.w3.org/1999/xlink" viewBox="0,0,1024,1024">
	<!-- Color names: teamapps-color-1, teamapps-color-2, teamapps-color-3 -->
	<desc>library_music icon - Licensed under Apache License v2.0 (http://www.apache.org/licenses/LICENSE-2.0) - Created with Iconfu.com - Derivative work of Material icons (Copyright Google Inc.)</desc>
	<defs>
		<clipPath id="clip-YB6280lD">
			<path d="M938.67,170.67v512c0,46.93 -38.41,85.33 -85.34,85.33h-512c-46.93,0 -85.33,-38.4 -85.33,-85.33v-512c0,-46.93 38.4,-85.34 85.33,-85.34h512c46.93,0 85.34,38.41 85.34,85.34zM170.67,853.33h597.33v85.34h-597.33c-46.93,0 -85.34,-38.41 -85.34,-85.34v-597.33h85.34zM768,213.33h-170.67v235.1c-17.92,-13.65 -39.68,-21.76 -64,-21.76c-58.88,0 -106.66,47.78 -106.66,106.66c0,58.88 47.78,106.67 106.66,106.67c58.88,0 106.67,-47.79 106.67,-106.67v-234.66h128z"/>
		</clipPath>
		<linearGradient x1="0" y1="1024" x2="1024" y2="0" id="color-dZoAjK4M" gradientUnits="userSpaceOnUse">
			<stop offset="0.2" stop-color="#000000"/>
			<stop offset="0.8" stop-color="#ffffff"/>
		</linearGradient>
		<radialGradient cx="0" cy="0" r="1448.15" id="color-oyv02f4R" gradientUnits="userSpaceOnUse">
			<stop offset="0.07" stop-color="#ffffff"/>
			<stop offset="0.75" stop-color="#000000"/>
		</radialGradient>
		<filter id="filter-Dv9xQnpO" color-interpolation-filters="sRGB">
			<feOffset/>
		</filter>
		<filter id="filter-onrNkzy7" x="0%" y="0%" width="100%" height="100%" color-interpolation-filters="sRGB">
			<feColorMatrix values="1 0 0 0 0 0 1 0 0 0 0 0 1 0 0 0 0 0 0.05 0" in="SourceGraphic"/>
			<feOffset dy="20"/>
			<feGaussianBlur stdDeviation="11" result="blur0"/>
			<feColorMatrix values="1 0 0 0 0 0 1 0 0 0 0 0 1 0 0 0 0 0 0.07 0" in="SourceGraphic"/>
			<feOffset dy="30"/>
			<feGaussianBlur stdDeviation="20" result="blur1"/>
			<feMerge>
				<feMergeNode in="blur0"/>
				<feMergeNode in="blur1"/>
			</feMerge>
		</filter>
		<mask id="mask-gqal8AVs">
			<rect fill="url(#color-dZoAjK4M)" x="85.33" y="85.33" width="853.34" height="853.34"/>
		</mask>
		<mask id="mask-RFzzvsMK">
			<path d="M938.67,170.67v512c0,46.93 -38.41,85.33 -85.34,85.33h-512c-46.93,0 -85.33,-38.4 -85.33,-85.33v-512c0,-46.93 38.4,-85.34 85.33,-85.34h512c46.93,0 85.34,38.41 85.34,85.34zM170.67,853.33h597.33v85.34h-597.33c-46.93,0 -85.34,-38.41 -85.34,-85.34v-597.33h85.34zM768,213.33h-170.67v235.1c-17.92,-13.65 -39.68,-21.76 -64,-21.76c-58.88,0 -106.66,47.78 -106.66,106.66c0,58.88 47.78,106.67 106.66,106.67c58.88,0 106.67,-47.79 106.67,-106.67v-234.66h128z" fill="url(#color-oyv02f4R)"/>
		</mask>
		<mask id="mask-wAmOP6RJ">
			<path d="M938.67,170.67v512c0,46.93 -38.41,85.33 -85.34,85.33h-512c-46.93,0 -85.33,-38.4 -85.33,-85.33v-512c0,-46.93 38.4,-85.34 85.33,-85.34h512c46.93,0 85.34,38.41 85.34,85.34zM170.67,853.33h597.33v85.34h-597.33c-46.93,0 -85.34,-38.41 -85.34,-85.34v-597.33h85.34zM768,213.33h-170.67v235.1c-17.92,-13.65 -39.68,-21.76 -64,-21.76c-58.88,0 -106.66,47.78 -106.66,106.66c0,58.88 47.78,106.67 106.66,106.67c58.88,0 106.67,-47.79 106.67,-106.67v-234.66h128z" fill="#ffffff"/>
		</mask>
	</defs>
	<g fill="none" fill-rule="nonzero" style="mix-blend-mode: normal">
		<g mask="url(#mask-wAmOP6RJ)">
			<g color="#ffc107" class="teamapps-color-2">
				<rect x="85.33" y="85.33" width="853.34" height="853.34" fill="currentColor"/>
			</g>
			<g color="#e65100" class="teamapps-color-3" mask="url(#mask-gqal8AVs)">
				<rect x="85.33" y="85.33" width="853.34" height="853.34" fill="currentColor"/>
			</g>
		</g>
		<g filter="url(#filter-Dv9xQnpO)" mask="url(#mask-RFzzvsMK)">
			<g color="#fff59d" class="teamapps-color-1">
				<rect x="85.33" y="85.33" width="853.34" height="853.34" fill="currentColor"/>
			</g>
		</g>
		<g clip-path="url(#clip-YB6280lD)">
			<path d="M-7.67,981.67v-1039.34h1039.34v1039.34zM853.33,85.33h-512c-46.93,0 -85.33,38.41 -85.33,85.34v512c0,46.93 38.4,85.33 85.33,85.33h512c46.93,0 85.34,-38.4 85.34,-85.33v-512c0,-46.93 -38.41,-85.34 -85.34,-85.34zM170.67,256h-85.34v597.33c0,46.93 38.41,85.34 85.34,85.34h597.33v-85.34h-597.33zM768,298.67h-128v234.66c0,58.88 -47.79,106.67 -106.67,106.67c-58.88,0 -106.66,-47.79 -106.66,-106.67c0,-58.88 47.78,-106.66 106.66,-106.66c24.32,0 46.08,8.11 64,21.76v-235.1h170.67z" fill="#000000" filter="url(#filter-onrNkzy7)"/>
		</g>
	</g>
</svg>