<svg version="1.1" xmlns="http://www.w3.org/2000/svg" xmlns:xlink="http://www.w3.org/1999/xlink" viewBox="0,0,1024,1024">
	<!-- Color names: teamapps-color-1, teamapps-color-2, teamapps-color-3 -->
	<desc>local_atm icon - Licensed under Apache License v2.0 (http://www.apache.org/licenses/LICENSE-2.0) - Created with Iconfu.com - Derivative work of Material icons (Copyright Google Inc.)</desc>
	<defs>
		<clipPath id="clip-1SHUX9MY">
			<path d="M938.67,256v512c0,47.36 -37.98,85.33 -85.34,85.33h-682.66c-47.36,0 -85.34,-37.97 -85.34,-85.33l0.43,-512c0,-47.36 37.55,-85.33 84.91,-85.33h682.66c47.36,0 85.34,37.97 85.34,85.33zM853.33,256h-682.66v512h682.66zM469.33,682.67h-85.33v-85.34h170.67v-42.66h-128c-23.47,0 -42.67,-19.2 -42.67,-42.67v-128c0,-23.47 19.2,-42.67 42.67,-42.67h42.66v-42.66h85.34v42.66h85.33v85.34h-170.67v42.66h128c23.47,0 42.67,19.2 42.67,42.67v128c0,23.47 -19.2,42.67 -42.67,42.67h-42.66v42.66h-85.34z"/>
		</clipPath>
		<linearGradient x1="0" y1="1024" x2="1024" y2="0" id="color-GjrOcusF" gradientUnits="userSpaceOnUse">
			<stop offset="0.2" stop-color="#000000"/>
			<stop offset="0.8" stop-color="#ffffff"/>
		</linearGradient>
		<radialGradient cx="0" cy="0" r="1448.15" id="color-wQIETdrE" gradientUnits="userSpaceOnUse">
			<stop offset="0.07" stop-color="#ffffff"/>
			<stop offset="0.75" stop-color="#000000"/>
		</radialGradient>
		<filter id="filter-bDKN76vW" color-interpolation-filters="sRGB">
			<feOffset/>
		</filter>
		<filter id="filter-xKOj5fO7" x="0%" y="0%" width="100%" height="100%" color-interpolation-filters="sRGB">
			<feColorMatrix values="1 0 0 0 0 0 1 0 0 0 0 0 1 0 0 0 0 0 0.05 0" in="SourceGraphic"/>
			<feOffset dy="20"/>
			<feGaussianBlur stdDeviation="11" result="blur0"/>
			<feColorMatrix values="1 0 0 0 0 0 1 0 0 0 0 0 1 0 0 0 0 0 0.07 0" in="SourceGraphic"/>
			<feOffset dy="30"/>
			<feGaussianBlur stdDeviation="20" result="blur1"/>
			<feMerge>
				<feMergeNode in="blur0"/>
				<feMergeNode in="blur1"/>
			</feMerge>
		</filter>
		<mask id="mask-Blw50C7l">
			<path d="M938.67,256v512c0,47.36 -37.98,85.33 -85.34,85.33h-682.66c-47.36,0 -85.34,-37.97 -85.34,-85.33l0.43,-512c0,-47.36 37.55,-85.33 84.91,-85.33h682.66c47.36,0 85.34,37.97 85.34,85.33zM853.33,256h-682.66v512h682.66zM469.33,682.67h-85.33v-85.34h170.67v-42.66h-128c-23.47,0 -42.67,-19.2 -42.67,-42.67v-128c0,-23.47 19.2,-42.67 42.67,-42.67h42.66v-42.66h85.34v42.66h85.33v85.34h-170.67v42.66h128c23.47,0 42.67,19.2 42.67,42.67v128c0,23.47 -19.2,42.67 -42.67,42.67h-42.66v42.66h-85.34z" fill="#ffffff"/>
		</mask>
		<mask id="mask-UxVEZw3B">
			<rect fill="url(#color-GjrOcusF)" x="85.33" y="170.67" width="853.34" height="682.66"/>
		</mask>
		<mask id="mask-yKfXhgfX">
			<path d="M938.67,256v512c0,47.36 -37.98,85.33 -85.34,85.33h-682.66c-47.36,0 -85.34,-37.97 -85.34,-85.33l0.43,-512c0,-47.36 37.55,-85.33 84.91,-85.33h682.66c47.36,0 85.34,37.97 85.34,85.33zM853.33,256h-682.66v512h682.66zM469.33,682.67h-85.33v-85.34h170.67v-42.66h-128c-23.47,0 -42.67,-19.2 -42.67,-42.67v-128c0,-23.47 19.2,-42.67 42.67,-42.67h42.66v-42.66h85.34v42.66h85.33v85.34h-170.67v42.66h128c23.47,0 42.67,19.2 42.67,42.67v128c0,23.47 -19.2,42.67 -42.67,42.67h-42.66v42.66h-85.34z" fill="url(#color-wQIETdrE)"/>
		</mask>
	</defs>
	<g fill="none" fill-rule="nonzero" style="mix-blend-mode: normal">
		<g mask="url(#mask-Blw50C7l)">
			<g color="#ffc107" class="teamapps-color-2">
				<rect x="85.33" y="170.67" width="853.34" height="682.66" fill="currentColor"/>
			</g>
			<g color="#e65100" class="teamapps-color-3" mask="url(#mask-UxVEZw3B)">
				<rect x="85.33" y="170.67" width="853.34" height="682.66" fill="currentColor"/>
			</g>
		</g>
		<g filter="url(#filter-bDKN76vW)" mask="url(#mask-yKfXhgfX)">
			<g color="#fff59d" class="teamapps-color-1">
				<rect x="85.33" y="170.67" width="853.34" height="682.66" fill="currentColor"/>
			</g>
		</g>
		<g clip-path="url(#clip-1SHUX9MY)">
			<path d="M-7.67,896.33v-868.66h1039.34v868.66zM853.33,170.67h-682.66c-47.36,0 -84.91,37.97 -84.91,85.33l-0.43,512c0,47.36 37.98,85.33 85.34,85.33h682.66c47.36,0 85.34,-37.97 85.34,-85.33v-512c0,-47.36 -37.98,-85.33 -85.34,-85.33zM853.33,768h-682.66v-512h682.66zM469.33,725.33h85.34v-42.66h42.66c23.47,0 42.67,-19.2 42.67,-42.67v-128c0,-23.47 -19.2,-42.67 -42.67,-42.67h-128v-42.66h170.67v-85.34h-85.33v-42.66h-85.34v42.66h-42.66c-23.47,0 -42.67,19.2 -42.67,42.67v128c0,23.47 19.2,42.67 42.67,42.67h128v42.66h-170.67v85.34h85.33z" fill="#000000" filter="url(#filter-xKOj5fO7)"/>
		</g>
	</g>
</svg>