<svg version="1.1" xmlns="http://www.w3.org/2000/svg" xmlns:xlink="http://www.w3.org/1999/xlink" viewBox="0,0,1024,1024">
	<!-- Color names: teamapps-color-1, teamapps-color-2, teamapps-color-3 -->
	<desc>local_cafe icon - Licensed under Apache License v2.0 (http://www.apache.org/licenses/LICENSE-2.0) - Created with Iconfu.com - Derivative work of Material icons (Copyright Google Inc.)</desc>
	<defs>
		<clipPath id="clip-JXPhposi">
			<path d="M938.67,213.33v128c0,47.36 -37.98,85.34 -85.34,85.34h-85.33v128c0,94.29 -76.38,170.66 -170.67,170.66h-256c-94.29,0 -170.66,-76.37 -170.66,-170.66v-426.67h682.66c47.36,0 85.34,37.97 85.34,85.33zM85.33,810.67h768v85.33h-768zM853.33,213.33h-85.33v128h85.33z"/>
		</clipPath>
		<radialGradient cx="0" cy="0" r="1448.15" id="color-RaIw8DMR" gradientUnits="userSpaceOnUse">
			<stop offset="0.07" stop-color="#ffffff"/>
			<stop offset="0.75" stop-color="#000000"/>
		</radialGradient>
		<linearGradient x1="0" y1="1024" x2="1024" y2="0" id="color-yXyZcnQA" gradientUnits="userSpaceOnUse">
			<stop offset="0.2" stop-color="#000000"/>
			<stop offset="0.8" stop-color="#ffffff"/>
		</linearGradient>
		<filter id="filter-d7ojRXCQ" color-interpolation-filters="sRGB">
			<feOffset/>
		</filter>
		<filter id="filter-htlSKM7F" x="0%" y="0%" width="100%" height="100%" color-interpolation-filters="sRGB">
			<feColorMatrix values="1 0 0 0 0 0 1 0 0 0 0 0 1 0 0 0 0 0 0.05 0" in="SourceGraphic"/>
			<feOffset dy="20"/>
			<feGaussianBlur stdDeviation="11" result="blur0"/>
			<feColorMatrix values="1 0 0 0 0 0 1 0 0 0 0 0 1 0 0 0 0 0 0.07 0" in="SourceGraphic"/>
			<feOffset dy="30"/>
			<feGaussianBlur stdDeviation="20" result="blur1"/>
			<feMerge>
				<feMergeNode in="blur0"/>
				<feMergeNode in="blur1"/>
			</feMerge>
		</filter>
		<mask id="mask-8FESmlZg">
			<rect fill="url(#color-yXyZcnQA)" x="85.33" y="128" width="853.34" height="768"/>
		</mask>
		<mask id="mask-ac4xMWGw">
			<path d="M938.67,213.33v128c0,47.36 -37.98,85.34 -85.34,85.34h-85.33v128c0,94.29 -76.38,170.66 -170.67,170.66h-256c-94.29,0 -170.66,-76.37 -170.66,-170.66v-426.67h682.66c47.36,0 85.34,37.97 85.34,85.33zM85.33,810.67h768v85.33h-768zM853.33,213.33h-85.33v128h85.33z" fill="#ffffff"/>
		</mask>
		<mask id="mask-eyUS1fQz">
			<path d="M938.67,213.33v128c0,47.36 -37.98,85.34 -85.34,85.34h-85.33v128c0,94.29 -76.38,170.66 -170.67,170.66h-256c-94.29,0 -170.66,-76.37 -170.66,-170.66v-426.67h682.66c47.36,0 85.34,37.97 85.34,85.33zM85.33,810.67h768v85.33h-768zM853.33,213.33h-85.33v128h85.33z" fill="url(#color-RaIw8DMR)"/>
		</mask>
	</defs>
	<g fill="none" fill-rule="nonzero" style="mix-blend-mode: normal">
		<g mask="url(#mask-ac4xMWGw)">
			<g color="#ffc107" class="teamapps-color-2">
				<rect x="85.33" y="128" width="853.34" height="768" fill="currentColor"/>
			</g>
			<g color="#e65100" class="teamapps-color-3" mask="url(#mask-8FESmlZg)">
				<rect x="85.33" y="128" width="853.34" height="768" fill="currentColor"/>
			</g>
		</g>
		<g filter="url(#filter-d7ojRXCQ)" mask="url(#mask-eyUS1fQz)">
			<g color="#fff59d" class="teamapps-color-1">
				<rect x="85.33" y="128" width="853.34" height="768" fill="currentColor"/>
			</g>
		</g>
		<g clip-path="url(#clip-JXPhposi)">
			<path d="M-7.67,939v-954h1039.34v954zM853.33,128h-682.66v426.67c0,94.29 76.37,170.66 170.66,170.66h256c94.29,0 170.67,-76.37 170.67,-170.66v-128h85.33c47.36,0 85.34,-37.98 85.34,-85.34v-128c0,-47.36 -37.98,-85.33 -85.34,-85.33zM85.33,896h768v-85.33h-768zM853.33,341.33h-85.33v-128h85.33z" fill="#000000" filter="url(#filter-htlSKM7F)"/>
		</g>
	</g>
</svg>