<svg version="1.1" xmlns="http://www.w3.org/2000/svg" xmlns:xlink="http://www.w3.org/1999/xlink" viewBox="0,0,1024,1024">
	<!-- Color names: teamapps-color-1, teamapps-color-2, teamapps-color-3 -->
	<desc>local_gas_station icon - Licensed under Apache License v2.0 (http://www.apache.org/licenses/LICENSE-2.0) - Created with Iconfu.com - Derivative work of Material icons (Copyright Google Inc.)</desc>
	<defs>
		<clipPath id="clip-yKIYVZt7">
			<path d="M874.67,384v405.33c0,58.88 -47.79,106.67 -106.67,106.67c-58.88,0 -106.67,-47.79 -106.67,-106.67v-213.33h-64v320h-426.66v-682.67c0,-46.93 38.4,-85.33 85.33,-85.33h256c46.93,0 85.33,38.4 85.33,85.33v298.67h42.67c46.93,0 85.33,38.4 85.33,85.33v192c0,23.47 19.2,42.67 42.67,42.67c23.47,0 42.67,-19.2 42.67,-42.67v-307.62c-13.23,5.55 -27.31,8.96 -42.67,8.96c-58.88,0 -106.67,-47.79 -106.67,-106.67c0,-45.65 28.59,-84.05 68.7,-99.41l-90.03,-90.03l45.23,-45.23l158.72,158.72l-0.43,0.43c19.2,19.2 31.15,46.08 31.15,75.52zM512,213.33h-256v213.34h256zM810.67,384c0,-23.47 -19.2,-42.67 -42.67,-42.67c-23.47,0 -42.67,19.2 -42.67,42.67c0,23.47 19.2,42.67 42.67,42.67c23.47,0 42.67,-19.2 42.67,-42.67z"/>
		</clipPath>
		<radialGradient cx="0" cy="0" r="1448.15" id="color-GJxpft2s" gradientUnits="userSpaceOnUse">
			<stop offset="0.07" stop-color="#ffffff"/>
			<stop offset="0.75" stop-color="#000000"/>
		</radialGradient>
		<linearGradient x1="0" y1="1024" x2="1024" y2="0" id="color-Yc98vP3e" gradientUnits="userSpaceOnUse">
			<stop offset="0.2" stop-color="#000000"/>
			<stop offset="0.8" stop-color="#ffffff"/>
		</linearGradient>
		<filter id="filter-SnErpaDN" color-interpolation-filters="sRGB">
			<feOffset/>
		</filter>
		<filter id="filter-UEwnHyNp" x="0%" y="0%" width="100%" height="100%" color-interpolation-filters="sRGB">
			<feColorMatrix values="1 0 0 0 0 0 1 0 0 0 0 0 1 0 0 0 0 0 0.05 0" in="SourceGraphic"/>
			<feOffset dy="20"/>
			<feGaussianBlur stdDeviation="11" result="blur0"/>
			<feColorMatrix values="1 0 0 0 0 0 1 0 0 0 0 0 1 0 0 0 0 0 0.07 0" in="SourceGraphic"/>
			<feOffset dy="30"/>
			<feGaussianBlur stdDeviation="20" result="blur1"/>
			<feMerge>
				<feMergeNode in="blur0"/>
				<feMergeNode in="blur1"/>
			</feMerge>
		</filter>
		<mask id="mask-b0b8jiL4">
			<rect fill="url(#color-Yc98vP3e)" x="170.67" y="128" width="704" height="768"/>
		</mask>
		<mask id="mask-j2DKEM0Y">
			<path d="M874.67,384v405.33c0,58.88 -47.79,106.67 -106.67,106.67c-58.88,0 -106.67,-47.79 -106.67,-106.67v-213.33h-64v320h-426.66v-682.67c0,-46.93 38.4,-85.33 85.33,-85.33h256c46.93,0 85.33,38.4 85.33,85.33v298.67h42.67c46.93,0 85.33,38.4 85.33,85.33v192c0,23.47 19.2,42.67 42.67,42.67c23.47,0 42.67,-19.2 42.67,-42.67v-307.62c-13.23,5.55 -27.31,8.96 -42.67,8.96c-58.88,0 -106.67,-47.79 -106.67,-106.67c0,-45.65 28.59,-84.05 68.7,-99.41l-90.03,-90.03l45.23,-45.23l158.72,158.72l-0.43,0.43c19.2,19.2 31.15,46.08 31.15,75.52zM512,213.33h-256v213.34h256zM810.67,384c0,-23.47 -19.2,-42.67 -42.67,-42.67c-23.47,0 -42.67,19.2 -42.67,42.67c0,23.47 19.2,42.67 42.67,42.67c23.47,0 42.67,-19.2 42.67,-42.67z" fill="url(#color-GJxpft2s)"/>
		</mask>
		<mask id="mask-nmIBmnv5">
			<path d="M874.67,384v405.33c0,58.88 -47.79,106.67 -106.67,106.67c-58.88,0 -106.67,-47.79 -106.67,-106.67v-213.33h-64v320h-426.66v-682.67c0,-46.93 38.4,-85.33 85.33,-85.33h256c46.93,0 85.33,38.4 85.33,85.33v298.67h42.67c46.93,0 85.33,38.4 85.33,85.33v192c0,23.47 19.2,42.67 42.67,42.67c23.47,0 42.67,-19.2 42.67,-42.67v-307.62c-13.23,5.55 -27.31,8.96 -42.67,8.96c-58.88,0 -106.67,-47.79 -106.67,-106.67c0,-45.65 28.59,-84.05 68.7,-99.41l-90.03,-90.03l45.23,-45.23l158.72,158.72l-0.43,0.43c19.2,19.2 31.15,46.08 31.15,75.52zM512,213.33h-256v213.34h256zM810.67,384c0,-23.47 -19.2,-42.67 -42.67,-42.67c-23.47,0 -42.67,19.2 -42.67,42.67c0,23.47 19.2,42.67 42.67,42.67c23.47,0 42.67,-19.2 42.67,-42.67z" fill="#ffffff"/>
		</mask>
	</defs>
	<g fill="none" fill-rule="nonzero" style="mix-blend-mode: normal">
		<g mask="url(#mask-nmIBmnv5)">
			<g color="#ffc107" class="teamapps-color-2">
				<rect x="170.67" y="128" width="704" height="768" fill="currentColor"/>
			</g>
			<g color="#e65100" class="teamapps-color-3" mask="url(#mask-b0b8jiL4)">
				<rect x="170.67" y="128" width="704" height="768" fill="currentColor"/>
			</g>
		</g>
		<g filter="url(#filter-SnErpaDN)" mask="url(#mask-j2DKEM0Y)">
			<g color="#fff59d" class="teamapps-color-1">
				<rect x="170.67" y="128" width="704" height="768" fill="currentColor"/>
			</g>
		</g>
		<g clip-path="url(#clip-yKIYVZt7)">
			<path d="M77.67,939v-954h890v954zM843.52,308.48l0.43,-0.43l-158.72,-158.72l-45.23,45.23l90.03,90.03c-40.11,15.36 -68.7,53.76 -68.7,99.41c0,58.88 47.79,106.67 106.67,106.67c15.36,0 29.44,-3.41 42.67,-8.96v307.62c0,23.47 -19.2,42.67 -42.67,42.67c-23.47,0 -42.67,-19.2 -42.67,-42.67v-192c0,-46.93 -38.4,-85.33 -85.33,-85.33h-42.67v-298.67c0,-46.93 -38.4,-85.33 -85.33,-85.33h-256c-46.93,0 -85.33,38.4 -85.33,85.33v682.67h426.66v-320h64v213.33c0,58.88 47.79,106.67 106.67,106.67c58.88,0 106.67,-47.79 106.67,-106.67v-405.33c0,-29.44 -11.95,-56.32 -31.15,-75.52zM512,426.67h-256v-213.34h256zM768,426.67c-23.47,0 -42.67,-19.2 -42.67,-42.67c0,-23.47 19.2,-42.67 42.67,-42.67c23.47,0 42.67,19.2 42.67,42.67c0,23.47 -19.2,42.67 -42.67,42.67z" fill="#000000" filter="url(#filter-UEwnHyNp)"/>
		</g>
	</g>
</svg>