<svg version="1.1" xmlns="http://www.w3.org/2000/svg" xmlns:xlink="http://www.w3.org/1999/xlink" viewBox="0,0,1024,1024">
	<!-- Color names: teamapps-color-1, teamapps-color-2, teamapps-color-3 -->
	<desc>music_note icon - Licensed under Apache License v2.0 (http://www.apache.org/licenses/LICENSE-2.0) - Created with Iconfu.com - Derivative work of Material icons (Copyright Google Inc.)</desc>
	<defs>
		<clipPath id="clip-hl08gLuE">
			<path d="M768,128v170.67h-170.67v426.66c0,94.29 -76.37,170.67 -170.66,170.67c-94.29,0 -170.67,-76.38 -170.67,-170.67c0,-94.29 76.38,-170.66 170.67,-170.66c31.15,0 60.16,8.95 85.33,23.46v-450.13z"/>
		</clipPath>
		<radialGradient cx="0" cy="0" r="1448.15" id="color-767K6DWq" gradientUnits="userSpaceOnUse">
			<stop offset="0.07" stop-color="#ffffff"/>
			<stop offset="0.75" stop-color="#000000"/>
		</radialGradient>
		<linearGradient x1="0" y1="1024" x2="1024" y2="0" id="color-txdg4m3E" gradientUnits="userSpaceOnUse">
			<stop offset="0.2" stop-color="#000000"/>
			<stop offset="0.8" stop-color="#ffffff"/>
		</linearGradient>
		<filter id="filter-5JAdVlXV" x="0%" y="0%" width="100%" height="100%" color-interpolation-filters="sRGB">
			<feColorMatrix values="1 0 0 0 0 0 1 0 0 0 0 0 1 0 0 0 0 0 0.05 0" in="SourceGraphic"/>
			<feOffset dy="20"/>
			<feGaussianBlur stdDeviation="11" result="blur0"/>
			<feColorMatrix values="1 0 0 0 0 0 1 0 0 0 0 0 1 0 0 0 0 0 0.07 0" in="SourceGraphic"/>
			<feOffset dy="30"/>
			<feGaussianBlur stdDeviation="20" result="blur1"/>
			<feMerge>
				<feMergeNode in="blur0"/>
				<feMergeNode in="blur1"/>
			</feMerge>
		</filter>
		<filter id="filter-UuMwlFZ4" color-interpolation-filters="sRGB">
			<feOffset/>
		</filter>
		<mask id="mask-4StpANpg">
			<path d="M768,128v170.67h-170.67v426.66c0,94.29 -76.37,170.67 -170.66,170.67c-94.29,0 -170.67,-76.38 -170.67,-170.67c0,-94.29 76.38,-170.66 170.67,-170.66c31.15,0 60.16,8.95 85.33,23.46v-450.13z" fill="#ffffff"/>
		</mask>
		<mask id="mask-GiWbER7A">
			<path d="M768,128v170.67h-170.67v426.66c0,94.29 -76.37,170.67 -170.66,170.67c-94.29,0 -170.67,-76.38 -170.67,-170.67c0,-94.29 76.38,-170.66 170.67,-170.66c31.15,0 60.16,8.95 85.33,23.46v-450.13z" fill="url(#color-767K6DWq)"/>
		</mask>
		<mask id="mask-HfNdzfPJ">
			<rect fill="url(#color-txdg4m3E)" x="256" y="128" width="512" height="768"/>
		</mask>
	</defs>
	<g fill="none" fill-rule="nonzero" style="mix-blend-mode: normal">
		<g mask="url(#mask-4StpANpg)">
			<g color="#ffc107" class="teamapps-color-2">
				<rect x="256" y="128" width="512" height="768" fill="currentColor"/>
			</g>
			<g color="#e65100" class="teamapps-color-3" mask="url(#mask-HfNdzfPJ)">
				<rect x="256" y="128" width="512" height="768" fill="currentColor"/>
			</g>
		</g>
		<g filter="url(#filter-UuMwlFZ4)" mask="url(#mask-GiWbER7A)">
			<g color="#fff59d" class="teamapps-color-1">
				<rect x="256" y="128" width="512" height="768" fill="currentColor"/>
			</g>
		</g>
		<g clip-path="url(#clip-hl08gLuE)">
			<path d="M163,939v-954h698v954zM512,128v450.13c-25.17,-14.51 -54.18,-23.46 -85.33,-23.46c-94.29,0 -170.67,76.37 -170.67,170.66c0,94.29 76.38,170.67 170.67,170.67c94.29,0 170.66,-76.38 170.66,-170.67v-426.66h170.67v-170.67z" fill="#000000" filter="url(#filter-5JAdVlXV)"/>
		</g>
	</g>
</svg>