<svg version="1.1" xmlns="http://www.w3.org/2000/svg" xmlns:xlink="http://www.w3.org/1999/xlink" viewBox="0,0,1024,1024">
	<!-- Color names: teamapps-color-1, teamapps-color-2, teamapps-color-3 -->
	<desc>network_check icon - Licensed under Apache License v2.0 (http://www.apache.org/licenses/LICENSE-2.0) - Created with Iconfu.com - Derivative work of Material icons (Copyright Google Inc.)</desc>
	<defs>
		<clipPath id="clip-ZM4jTPHV">
			<path d="M699.73,234.67l-104.1,549.54l-0.43,1.28c-8.11,38.83 -42.67,67.84 -83.63,67.84c-47.36,0 -85.76,-38.4 -85.76,-85.76c0,-14.93 4.27,-28.59 11.1,-40.96l221.01,-497.06l2.99,-6.4c3.84,-5.97 10.24,-9.82 17.49,-9.82c11.95,0 21.33,9.39 21.33,21.34zM628.05,200.53l-50.77,114.35c-159.57,-19.63 -326.4,31.57 -449.28,154.45l-85.33,-85.33c159.57,-159.15 379.3,-220.16 585.38,-183.47zM525.23,431.79l-54.62,122.88c-62.72,8.96 -123.73,37.12 -171.94,85.33l-85.34,-85.33c85.76,-85.76 199.69,-126.29 311.9,-122.88zM720.21,352l22.62,-120.32c87.04,32 168.53,82.35 238.5,152.32l-85.33,85.33c-52.05,-52.05 -111.79,-90.88 -175.79,-117.33zM673.71,598.61l23.46,-124.58c40.96,20.05 79.37,46.51 113.5,80.64l-85.34,85.33c-16.21,-16.21 -33.7,-29.87 -51.62,-41.39z"/>
		</clipPath>
		<radialGradient cx="0" cy="0" r="1448.15" id="color-DJDIxhHi" gradientUnits="userSpaceOnUse">
			<stop offset="0.07" stop-color="#ffffff"/>
			<stop offset="0.75" stop-color="#000000"/>
		</radialGradient>
		<linearGradient x1="0" y1="1024" x2="1024" y2="0" id="color-iiwPoRPg" gradientUnits="userSpaceOnUse">
			<stop offset="0.2" stop-color="#000000"/>
			<stop offset="0.8" stop-color="#ffffff"/>
		</linearGradient>
		<filter id="filter-p7CkHKW2" x="0%" y="0%" width="100%" height="100%" color-interpolation-filters="sRGB">
			<feColorMatrix values="1 0 0 0 0 0 1 0 0 0 0 0 1 0 0 0 0 0 0.05 0" in="SourceGraphic"/>
			<feOffset dy="20"/>
			<feGaussianBlur stdDeviation="11" result="blur0"/>
			<feColorMatrix values="1 0 0 0 0 0 1 0 0 0 0 0 1 0 0 0 0 0 0.07 0" in="SourceGraphic"/>
			<feOffset dy="30"/>
			<feGaussianBlur stdDeviation="20" result="blur1"/>
			<feMerge>
				<feMergeNode in="blur0"/>
				<feMergeNode in="blur1"/>
			</feMerge>
		</filter>
		<filter id="filter-qKHFbeTB" color-interpolation-filters="sRGB">
			<feOffset/>
		</filter>
		<mask id="mask-1LfuQShd">
			<path d="M699.73,234.67l-104.1,549.54l-0.43,1.28c-8.11,38.83 -42.67,67.84 -83.63,67.84c-47.36,0 -85.76,-38.4 -85.76,-85.76c0,-14.93 4.27,-28.59 11.1,-40.96l221.01,-497.06l2.99,-6.4c3.84,-5.97 10.24,-9.82 17.49,-9.82c11.95,0 21.33,9.39 21.33,21.34zM628.05,200.53l-50.77,114.35c-159.57,-19.63 -326.4,31.57 -449.28,154.45l-85.33,-85.33c159.57,-159.15 379.3,-220.16 585.38,-183.47zM525.23,431.79l-54.62,122.88c-62.72,8.96 -123.73,37.12 -171.94,85.33l-85.34,-85.33c85.76,-85.76 199.69,-126.29 311.9,-122.88zM720.21,352l22.62,-120.32c87.04,32 168.53,82.35 238.5,152.32l-85.33,85.33c-52.05,-52.05 -111.79,-90.88 -175.79,-117.33zM673.71,598.61l23.46,-124.58c40.96,20.05 79.37,46.51 113.5,80.64l-85.34,85.33c-16.21,-16.21 -33.7,-29.87 -51.62,-41.39z" fill="url(#color-DJDIxhHi)"/>
		</mask>
		<mask id="mask-9lj2ODaq">
			<rect fill="url(#color-iiwPoRPg)" x="42.67" y="190.2" width="938.66" height="663.13"/>
		</mask>
		<mask id="mask-Pn4imxaB">
			<path d="M699.73,234.67l-104.1,549.54l-0.43,1.28c-8.11,38.83 -42.67,67.84 -83.63,67.84c-47.36,0 -85.76,-38.4 -85.76,-85.76c0,-14.93 4.27,-28.59 11.1,-40.96l221.01,-497.06l2.99,-6.4c3.84,-5.97 10.24,-9.82 17.49,-9.82c11.95,0 21.33,9.39 21.33,21.34zM628.05,200.53l-50.77,114.35c-159.57,-19.63 -326.4,31.57 -449.28,154.45l-85.33,-85.33c159.57,-159.15 379.3,-220.16 585.38,-183.47zM525.23,431.79l-54.62,122.88c-62.72,8.96 -123.73,37.12 -171.94,85.33l-85.34,-85.33c85.76,-85.76 199.69,-126.29 311.9,-122.88zM720.21,352l22.62,-120.32c87.04,32 168.53,82.35 238.5,152.32l-85.33,85.33c-52.05,-52.05 -111.79,-90.88 -175.79,-117.33zM673.71,598.61l23.46,-124.58c40.96,20.05 79.37,46.51 113.5,80.64l-85.34,85.33c-16.21,-16.21 -33.7,-29.87 -51.62,-41.39z" fill="#ffffff"/>
		</mask>
	</defs>
	<g fill="none" fill-rule="nonzero" style="mix-blend-mode: normal">
		<g mask="url(#mask-Pn4imxaB)">
			<g color="#ffc107" class="teamapps-color-2">
				<rect x="42.67" y="190.2" width="938.66" height="663.13" fill="currentColor"/>
			</g>
			<g color="#e65100" class="teamapps-color-3" mask="url(#mask-9lj2ODaq)">
				<rect x="42.67" y="190.2" width="938.66" height="663.13" fill="currentColor"/>
			</g>
		</g>
		<g filter="url(#filter-qKHFbeTB)" mask="url(#mask-1LfuQShd)">
			<g color="#fff59d" class="teamapps-color-1">
				<rect x="42.67" y="190.2" width="938.66" height="663.13" fill="currentColor"/>
			</g>
		</g>
		<g clip-path="url(#clip-ZM4jTPHV)">
			<path d="M-50.33,896.33v-849.13h1124.66v849.13zM678.4,213.33c-7.25,0 -13.65,3.85 -17.49,9.82l-2.99,6.4l-221.01,497.06c-6.83,12.37 -11.1,26.03 -11.1,40.96c0,47.36 38.4,85.76 85.76,85.76c40.96,0 75.52,-29.01 83.63,-67.84l0.43,-1.28l104.1,-549.54c0,-11.95 -9.38,-21.34 -21.33,-21.34zM42.67,384l85.33,85.33c122.88,-122.88 289.71,-174.08 449.28,-154.45l50.77,-114.35c-206.08,-36.69 -425.81,24.32 -585.38,183.47zM213.33,554.67l85.34,85.33c48.21,-48.21 109.22,-76.37 171.94,-85.33l54.62,-122.88c-112.21,-3.41 -226.14,37.12 -311.9,122.88zM896,469.33l85.33,-85.33c-69.97,-69.97 -151.46,-120.32 -238.5,-152.32l-22.62,120.32c64,26.45 123.74,65.28 175.79,117.33zM725.33,640l85.34,-85.33c-34.13,-34.13 -72.54,-60.59 -113.5,-80.64l-23.46,124.58c17.92,11.52 35.41,25.18 51.62,41.39z" fill="#000000" filter="url(#filter-p7CkHKW2)"/>
		</g>
	</g>
</svg>