<svg version="1.1" xmlns="http://www.w3.org/2000/svg" xmlns:xlink="http://www.w3.org/1999/xlink" viewBox="0,0,1024,1024">
	<!-- Color names: teamapps-color-1, teamapps-color-2, teamapps-color-3 -->
	<desc>offline_pin icon - Licensed under Apache License v2.0 (http://www.apache.org/licenses/LICENSE-2.0) - Created with Iconfu.com - Derivative work of Material icons (Copyright Google Inc.)</desc>
	<defs>
		<clipPath id="clip-xTg61JhP">
			<path d="M938.67,512c0,234.67 -192,426.67 -426.67,426.67c-234.67,0 -426.67,-192 -426.67,-426.67c0,-234.67 192,-426.67 426.67,-426.67c234.67,0 426.67,192 426.67,426.67zM725.33,311.47l-59.73,-59.74l-226.13,226.14l-81.07,-81.07l-59.73,59.73l140.8,140.8zM725.33,682.67h-426.66v85.33h426.66z"/>
		</clipPath>
		<radialGradient cx="0" cy="0" r="1448.15" id="color-O2NYxaoc" gradientUnits="userSpaceOnUse">
			<stop offset="0.07" stop-color="#ffffff"/>
			<stop offset="0.75" stop-color="#000000"/>
		</radialGradient>
		<linearGradient x1="0" y1="1024" x2="1024" y2="0" id="color-ruPL3bm6" gradientUnits="userSpaceOnUse">
			<stop offset="0.2" stop-color="#000000"/>
			<stop offset="0.8" stop-color="#ffffff"/>
		</linearGradient>
		<filter id="filter-36ZRmuup" color-interpolation-filters="sRGB">
			<feOffset/>
		</filter>
		<filter id="filter-HlgjDu2d" x="0%" y="0%" width="100%" height="100%" color-interpolation-filters="sRGB">
			<feColorMatrix values="1 0 0 0 0 0 1 0 0 0 0 0 1 0 0 0 0 0 0.05 0" in="SourceGraphic"/>
			<feOffset dy="20"/>
			<feGaussianBlur stdDeviation="11" result="blur0"/>
			<feColorMatrix values="1 0 0 0 0 0 1 0 0 0 0 0 1 0 0 0 0 0 0.07 0" in="SourceGraphic"/>
			<feOffset dy="30"/>
			<feGaussianBlur stdDeviation="20" result="blur1"/>
			<feMerge>
				<feMergeNode in="blur0"/>
				<feMergeNode in="blur1"/>
			</feMerge>
		</filter>
		<mask id="mask-bYtIiMUT">
			<rect fill="url(#color-ruPL3bm6)" x="85.33" y="85.33" width="853.34" height="853.34"/>
		</mask>
		<mask id="mask-PxDWfyAY">
			<path d="M938.67,512c0,234.67 -192,426.67 -426.67,426.67c-234.67,0 -426.67,-192 -426.67,-426.67c0,-234.67 192,-426.67 426.67,-426.67c234.67,0 426.67,192 426.67,426.67zM725.33,311.47l-59.73,-59.74l-226.13,226.14l-81.07,-81.07l-59.73,59.73l140.8,140.8zM725.33,682.67h-426.66v85.33h426.66z" fill="url(#color-O2NYxaoc)"/>
		</mask>
		<mask id="mask-Y8PrFjgD">
			<path d="M938.67,512c0,234.67 -192,426.67 -426.67,426.67c-234.67,0 -426.67,-192 -426.67,-426.67c0,-234.67 192,-426.67 426.67,-426.67c234.67,0 426.67,192 426.67,426.67zM725.33,311.47l-59.73,-59.74l-226.13,226.14l-81.07,-81.07l-59.73,59.73l140.8,140.8zM725.33,682.67h-426.66v85.33h426.66z" fill="#ffffff"/>
		</mask>
	</defs>
	<g fill="none" fill-rule="nonzero" style="mix-blend-mode: normal">
		<g mask="url(#mask-Y8PrFjgD)">
			<g color="#ffc107" class="teamapps-color-2">
				<rect x="85.33" y="85.33" width="853.34" height="853.34" fill="currentColor"/>
			</g>
			<g color="#e65100" class="teamapps-color-3" mask="url(#mask-bYtIiMUT)">
				<rect x="85.33" y="85.33" width="853.34" height="853.34" fill="currentColor"/>
			</g>
		</g>
		<g filter="url(#filter-36ZRmuup)" mask="url(#mask-PxDWfyAY)">
			<g color="#fff59d" class="teamapps-color-1">
				<rect x="85.33" y="85.33" width="853.34" height="853.34" fill="currentColor"/>
			</g>
		</g>
		<g clip-path="url(#clip-xTg61JhP)">
			<path d="M-7.67,981.67v-1039.34h1039.34v1039.34zM512,85.33c-234.67,0 -426.67,192 -426.67,426.67c0,234.67 192,426.67 426.67,426.67c234.67,0 426.67,-192 426.67,-426.67c0,-234.67 -192,-426.67 -426.67,-426.67zM439.47,597.33l-140.8,-140.8l59.73,-59.73l81.07,81.07l226.13,-226.14l59.73,59.74zM725.33,768h-426.66v-85.33h426.66z" fill="#000000" filter="url(#filter-HlgjDu2d)"/>
		</g>
	</g>
</svg>