<svg version="1.1" xmlns="http://www.w3.org/2000/svg" xmlns:xlink="http://www.w3.org/1999/xlink" viewBox="0,0,1024,1024">
	<!-- Color names: teamapps-color-1, teamapps-color-2, teamapps-color-3 -->
	<desc>pages icon - Licensed under Apache License v2.0 (http://www.apache.org/licenses/LICENSE-2.0) - Created with Iconfu.com - Derivative work of Material icons (Copyright Google Inc.)</desc>
	<defs>
		<clipPath id="clip-pc3krGMC">
			<path d="M682.67,554.67h213.33v256c0,46.93 -38.4,85.33 -85.33,85.33h-256v-213.33l170.66,42.66zM298.67,725.33l170.66,-42.66v213.33h-256c-46.93,0 -85.33,-38.4 -85.33,-85.33v-256h213.33zM896,213.33v256h-213.33l42.66,-170.66l-170.66,42.66v-213.33h256c46.93,0 85.33,38.4 85.33,85.33zM213.33,128h256v213.33l-170.66,-42.66l42.66,170.66h-213.33v-256c0,-46.93 38.4,-85.33 85.33,-85.33z"/>
		</clipPath>
		<radialGradient cx="0" cy="0" r="1448.15" id="color-AQ0DorWz" gradientUnits="userSpaceOnUse">
			<stop offset="0.07" stop-color="#ffffff"/>
			<stop offset="0.75" stop-color="#000000"/>
		</radialGradient>
		<linearGradient x1="0" y1="1024" x2="1024" y2="0" id="color-vhG4CAeb" gradientUnits="userSpaceOnUse">
			<stop offset="0.2" stop-color="#000000"/>
			<stop offset="0.8" stop-color="#ffffff"/>
		</linearGradient>
		<filter id="filter-2FCVUwHZ" x="0%" y="0%" width="100%" height="100%" color-interpolation-filters="sRGB">
			<feColorMatrix values="1 0 0 0 0 0 1 0 0 0 0 0 1 0 0 0 0 0 0.05 0" in="SourceGraphic"/>
			<feOffset dy="20"/>
			<feGaussianBlur stdDeviation="11" result="blur0"/>
			<feColorMatrix values="1 0 0 0 0 0 1 0 0 0 0 0 1 0 0 0 0 0 0.07 0" in="SourceGraphic"/>
			<feOffset dy="30"/>
			<feGaussianBlur stdDeviation="20" result="blur1"/>
			<feMerge>
				<feMergeNode in="blur0"/>
				<feMergeNode in="blur1"/>
			</feMerge>
		</filter>
		<filter id="filter-PxD5susK" color-interpolation-filters="sRGB">
			<feOffset/>
		</filter>
		<mask id="mask-6DIPgS8x">
			<path d="M682.67,554.67h213.33v256c0,46.93 -38.4,85.33 -85.33,85.33h-256v-213.33l170.66,42.66zM298.67,725.33l170.66,-42.66v213.33h-256c-46.93,0 -85.33,-38.4 -85.33,-85.33v-256h213.33zM896,213.33v256h-213.33l42.66,-170.66l-170.66,42.66v-213.33h256c46.93,0 85.33,38.4 85.33,85.33zM213.33,128h256v213.33l-170.66,-42.66l42.66,170.66h-213.33v-256c0,-46.93 38.4,-85.33 85.33,-85.33z" fill="url(#color-AQ0DorWz)"/>
		</mask>
		<mask id="mask-gatjHyjT">
			<rect fill="url(#color-vhG4CAeb)" x="128" y="128" width="768" height="768"/>
		</mask>
		<mask id="mask-XrWAbwLO">
			<path d="M682.67,554.67h213.33v256c0,46.93 -38.4,85.33 -85.33,85.33h-256v-213.33l170.66,42.66zM298.67,725.33l170.66,-42.66v213.33h-256c-46.93,0 -85.33,-38.4 -85.33,-85.33v-256h213.33zM896,213.33v256h-213.33l42.66,-170.66l-170.66,42.66v-213.33h256c46.93,0 85.33,38.4 85.33,85.33zM213.33,128h256v213.33l-170.66,-42.66l42.66,170.66h-213.33v-256c0,-46.93 38.4,-85.33 85.33,-85.33z" fill="#ffffff"/>
		</mask>
	</defs>
	<g fill="none" fill-rule="nonzero" style="mix-blend-mode: normal">
		<g mask="url(#mask-XrWAbwLO)">
			<g color="#ffc107" class="teamapps-color-2">
				<rect x="128" y="128" width="768" height="768" fill="currentColor"/>
			</g>
			<g color="#e65100" class="teamapps-color-3" mask="url(#mask-gatjHyjT)">
				<rect x="128" y="128" width="768" height="768" fill="currentColor"/>
			</g>
		</g>
		<g filter="url(#filter-PxD5susK)" mask="url(#mask-6DIPgS8x)">
			<g color="#fff59d" class="teamapps-color-1">
				<rect x="128" y="128" width="768" height="768" fill="currentColor"/>
			</g>
		</g>
		<g clip-path="url(#clip-pc3krGMC)">
			<path d="M35,939v-954h954v954zM725.33,725.33l-170.66,-42.66v213.33h256c46.93,0 85.33,-38.4 85.33,-85.33v-256h-213.33zM341.33,554.67h-213.33v256c0,46.93 38.4,85.33 85.33,85.33h256v-213.33l-170.66,42.66zM810.67,128h-256v213.33l170.66,-42.66l-42.66,170.66h213.33v-256c0,-46.93 -38.4,-85.33 -85.33,-85.33zM128,213.33v256h213.33l-42.66,-170.66l170.66,42.66v-213.33h-256c-46.93,0 -85.33,38.4 -85.33,85.33z" fill="#000000" filter="url(#filter-2FCVUwHZ)"/>
		</g>
	</g>
</svg>