<svg version="1.1" xmlns="http://www.w3.org/2000/svg" xmlns:xlink="http://www.w3.org/1999/xlink" viewBox="0,0,1024,1024">
	<!-- Color names: teamapps-color-1, teamapps-color-2, teamapps-color-3 -->
	<desc>panorama_horizontal icon - Licensed under Apache License v2.0 (http://www.apache.org/licenses/LICENSE-2.0) - Created with Iconfu.com - Derivative work of Material icons (Copyright Google Inc.)</desc>
	<defs>
		<clipPath id="clip-6FzZH6HX">
			<path d="M938.67,197.55v628.9c0,17.07 -10.24,26.88 -24.32,26.88c-4.27,0 -8.54,-0.85 -13.23,-2.56c-125.44,-46.51 -257.28,-69.97 -389.12,-69.97c-131.84,0 -263.68,23.04 -389.12,69.97c-4.69,1.71 -8.96,2.56 -13.23,2.56c-14.51,0 -24.32,-9.81 -24.32,-26.45v-629.33c0,-17.07 9.81,-26.88 24.32,-26.88c3.84,0 8.54,0.85 13.23,2.56c125.44,46.51 257.28,69.97 389.12,69.97c131.84,0 263.68,-23.04 389.12,-69.97c4.69,-1.71 8.96,-2.56 13.23,-2.56c14.08,0 24.32,9.81 24.32,26.88zM853.33,279.04c-110.93,33.28 -225.28,49.92 -341.33,49.49c-116.05,0 -230.4,-16.64 -341.33,-49.49v465.49c110.93,-32.85 225.28,-49.49 341.33,-49.49c116.05,0 230.4,16.64 341.33,49.49z"/>
		</clipPath>
		<radialGradient cx="0" cy="0" r="1448.15" id="color-040gx8eS" gradientUnits="userSpaceOnUse">
			<stop offset="0.07" stop-color="#ffffff"/>
			<stop offset="0.75" stop-color="#000000"/>
		</radialGradient>
		<linearGradient x1="0" y1="1024" x2="1024" y2="0" id="color-8CYcFk2k" gradientUnits="userSpaceOnUse">
			<stop offset="0.2" stop-color="#000000"/>
			<stop offset="0.8" stop-color="#ffffff"/>
		</linearGradient>
		<filter id="filter-E4Cr7Nfk" color-interpolation-filters="sRGB">
			<feOffset/>
		</filter>
		<filter id="filter-JYnGSS6l" x="0%" y="0%" width="100%" height="100%" color-interpolation-filters="sRGB">
			<feColorMatrix values="1 0 0 0 0 0 1 0 0 0 0 0 1 0 0 0 0 0 0.05 0" in="SourceGraphic"/>
			<feOffset dy="20"/>
			<feGaussianBlur stdDeviation="11" result="blur0"/>
			<feColorMatrix values="1 0 0 0 0 0 1 0 0 0 0 0 1 0 0 0 0 0 0.07 0" in="SourceGraphic"/>
			<feOffset dy="30"/>
			<feGaussianBlur stdDeviation="20" result="blur1"/>
			<feMerge>
				<feMergeNode in="blur0"/>
				<feMergeNode in="blur1"/>
			</feMerge>
		</filter>
		<mask id="mask-GgsfI6GY">
			<path d="M938.67,197.55v628.9c0,17.07 -10.24,26.88 -24.32,26.88c-4.27,0 -8.54,-0.85 -13.23,-2.56c-125.44,-46.51 -257.28,-69.97 -389.12,-69.97c-131.84,0 -263.68,23.04 -389.12,69.97c-4.69,1.71 -8.96,2.56 -13.23,2.56c-14.51,0 -24.32,-9.81 -24.32,-26.45v-629.33c0,-17.07 9.81,-26.88 24.32,-26.88c3.84,0 8.54,0.85 13.23,2.56c125.44,46.51 257.28,69.97 389.12,69.97c131.84,0 263.68,-23.04 389.12,-69.97c4.69,-1.71 8.96,-2.56 13.23,-2.56c14.08,0 24.32,9.81 24.32,26.88zM853.33,279.04c-110.93,33.28 -225.28,49.92 -341.33,49.49c-116.05,0 -230.4,-16.64 -341.33,-49.49v465.49c110.93,-32.85 225.28,-49.49 341.33,-49.49c116.05,0 230.4,16.64 341.33,49.49z" fill="#ffffff"/>
		</mask>
		<mask id="mask-gKmrWDR5">
			<rect fill="url(#color-8CYcFk2k)" x="85.33" y="170.67" width="853.34" height="682.66"/>
		</mask>
		<mask id="mask-Uw5jdjBU">
			<path d="M938.67,197.55v628.9c0,17.07 -10.24,26.88 -24.32,26.88c-4.27,0 -8.54,-0.85 -13.23,-2.56c-125.44,-46.51 -257.28,-69.97 -389.12,-69.97c-131.84,0 -263.68,23.04 -389.12,69.97c-4.69,1.71 -8.96,2.56 -13.23,2.56c-14.51,0 -24.32,-9.81 -24.32,-26.45v-629.33c0,-17.07 9.81,-26.88 24.32,-26.88c3.84,0 8.54,0.85 13.23,2.56c125.44,46.51 257.28,69.97 389.12,69.97c131.84,0 263.68,-23.04 389.12,-69.97c4.69,-1.71 8.96,-2.56 13.23,-2.56c14.08,0 24.32,9.81 24.32,26.88zM853.33,279.04c-110.93,33.28 -225.28,49.92 -341.33,49.49c-116.05,0 -230.4,-16.64 -341.33,-49.49v465.49c110.93,-32.85 225.28,-49.49 341.33,-49.49c116.05,0 230.4,16.64 341.33,49.49z" fill="url(#color-040gx8eS)"/>
		</mask>
	</defs>
	<g fill="none" fill-rule="nonzero" style="mix-blend-mode: normal">
		<g mask="url(#mask-GgsfI6GY)">
			<g color="#ffc107" class="teamapps-color-2">
				<rect x="85.33" y="170.67" width="853.34" height="682.66" fill="currentColor"/>
			</g>
			<g color="#e65100" class="teamapps-color-3" mask="url(#mask-gKmrWDR5)">
				<rect x="85.33" y="170.67" width="853.34" height="682.66" fill="currentColor"/>
			</g>
		</g>
		<g filter="url(#filter-E4Cr7Nfk)" mask="url(#mask-Uw5jdjBU)">
			<g color="#fff59d" class="teamapps-color-1">
				<rect x="85.33" y="170.67" width="853.34" height="682.66" fill="currentColor"/>
			</g>
		</g>
		<g clip-path="url(#clip-6FzZH6HX)">
			<path d="M-7.67,896.33v-868.66h1039.34v868.66zM914.35,170.67c-4.27,0 -8.54,0.85 -13.23,2.56c-125.44,46.93 -257.28,69.97 -389.12,69.97c-131.84,0 -263.68,-23.46 -389.12,-69.97c-4.69,-1.71 -9.39,-2.56 -13.23,-2.56c-14.51,0 -24.32,9.81 -24.32,26.88v629.33c0,16.64 9.81,26.45 24.32,26.45c4.27,0 8.54,-0.85 13.23,-2.56c125.44,-46.93 257.28,-69.97 389.12,-69.97c131.84,0 263.68,23.46 389.12,69.97c4.69,1.71 8.96,2.56 13.23,2.56c14.08,0 24.32,-9.81 24.32,-26.88v-628.9c0,-17.07 -10.24,-26.88 -24.32,-26.88zM853.33,744.53c-110.93,-32.85 -225.28,-49.49 -341.33,-49.49c-116.05,0 -230.4,16.64 -341.33,49.49v-465.49c110.93,32.85 225.28,49.49 341.33,49.49c116.05,0.43 230.4,-16.21 341.33,-49.49z" fill="#000000" filter="url(#filter-JYnGSS6l)"/>
		</g>
	</g>
</svg>