<svg version="1.1" xmlns="http://www.w3.org/2000/svg" xmlns:xlink="http://www.w3.org/1999/xlink" viewBox="0,0,1024,1024">
	<!-- Color names: teamapps-color-1, teamapps-color-2, teamapps-color-3 -->
	<desc>perm_camera_mic icon - Licensed under Apache License v2.0 (http://www.apache.org/licenses/LICENSE-2.0) - Created with Iconfu.com - Derivative work of Material icons (Copyright Google Inc.)</desc>
	<defs>
		<clipPath id="clip-43s6mWRO">
			<path d="M938.67,298.67v512c0,46.93 -38.41,85.33 -85.34,85.33h-298.66v-89.17c120.75,-20.48 213.33,-125.44 213.33,-252.16h-85.33c0,94.29 -76.38,170.66 -170.67,170.66c-94.29,0 -170.67,-76.37 -170.67,-170.66h-85.33c0,126.72 92.58,231.68 213.33,252.16v89.17h-298.66c-46.93,0 -85.34,-38.4 -85.34,-85.33v-512c0,-46.93 38.41,-85.34 85.34,-85.34h135.25l78.08,-85.33h256l78.08,85.33h135.25c46.93,0 85.34,38.41 85.34,85.34zM597.33,384c0,-46.93 -38.4,-85.33 -85.33,-85.33c-46.93,0 -85.33,38.4 -85.33,85.33v170.67c0,46.93 38.4,85.33 85.33,85.33c46.93,0 85.33,-38.4 85.33,-85.33z"/>
		</clipPath>
		<linearGradient x1="0" y1="1024" x2="1024" y2="0" id="color-UVls01qK" gradientUnits="userSpaceOnUse">
			<stop offset="0.2" stop-color="#000000"/>
			<stop offset="0.8" stop-color="#ffffff"/>
		</linearGradient>
		<radialGradient cx="0" cy="0" r="1448.15" id="color-xXtTjmBN" gradientUnits="userSpaceOnUse">
			<stop offset="0.07" stop-color="#ffffff"/>
			<stop offset="0.75" stop-color="#000000"/>
		</radialGradient>
		<filter id="filter-rDUZuMZ6" x="0%" y="0%" width="100%" height="100%" color-interpolation-filters="sRGB">
			<feColorMatrix values="1 0 0 0 0 0 1 0 0 0 0 0 1 0 0 0 0 0 0.05 0" in="SourceGraphic"/>
			<feOffset dy="20"/>
			<feGaussianBlur stdDeviation="11" result="blur0"/>
			<feColorMatrix values="1 0 0 0 0 0 1 0 0 0 0 0 1 0 0 0 0 0 0.07 0" in="SourceGraphic"/>
			<feOffset dy="30"/>
			<feGaussianBlur stdDeviation="20" result="blur1"/>
			<feMerge>
				<feMergeNode in="blur0"/>
				<feMergeNode in="blur1"/>
			</feMerge>
		</filter>
		<filter id="filter-SZVzi1TQ" color-interpolation-filters="sRGB">
			<feOffset/>
		</filter>
		<mask id="mask-dIxPxN12">
			<path d="M938.67,298.67v512c0,46.93 -38.41,85.33 -85.34,85.33h-298.66v-89.17c120.75,-20.48 213.33,-125.44 213.33,-252.16h-85.33c0,94.29 -76.38,170.66 -170.67,170.66c-94.29,0 -170.67,-76.37 -170.67,-170.66h-85.33c0,126.72 92.58,231.68 213.33,252.16v89.17h-298.66c-46.93,0 -85.34,-38.4 -85.34,-85.33v-512c0,-46.93 38.41,-85.34 85.34,-85.34h135.25l78.08,-85.33h256l78.08,85.33h135.25c46.93,0 85.34,38.41 85.34,85.34zM597.33,384c0,-46.93 -38.4,-85.33 -85.33,-85.33c-46.93,0 -85.33,38.4 -85.33,85.33v170.67c0,46.93 38.4,85.33 85.33,85.33c46.93,0 85.33,-38.4 85.33,-85.33z" fill="#ffffff"/>
		</mask>
		<mask id="mask-rLC2QCEc">
			<path d="M938.67,298.67v512c0,46.93 -38.41,85.33 -85.34,85.33h-298.66v-89.17c120.75,-20.48 213.33,-125.44 213.33,-252.16h-85.33c0,94.29 -76.38,170.66 -170.67,170.66c-94.29,0 -170.67,-76.37 -170.67,-170.66h-85.33c0,126.72 92.58,231.68 213.33,252.16v89.17h-298.66c-46.93,0 -85.34,-38.4 -85.34,-85.33v-512c0,-46.93 38.41,-85.34 85.34,-85.34h135.25l78.08,-85.33h256l78.08,85.33h135.25c46.93,0 85.34,38.41 85.34,85.34zM597.33,384c0,-46.93 -38.4,-85.33 -85.33,-85.33c-46.93,0 -85.33,38.4 -85.33,85.33v170.67c0,46.93 38.4,85.33 85.33,85.33c46.93,0 85.33,-38.4 85.33,-85.33z" fill="url(#color-xXtTjmBN)"/>
		</mask>
		<mask id="mask-yOQSQVI6">
			<rect fill="url(#color-UVls01qK)" x="85.33" y="128" width="853.34" height="768"/>
		</mask>
	</defs>
	<g fill="none" fill-rule="nonzero" style="mix-blend-mode: normal">
		<g mask="url(#mask-dIxPxN12)">
			<g color="#ffc107" class="teamapps-color-2">
				<rect x="85.33" y="128" width="853.34" height="768" fill="currentColor"/>
			</g>
			<g color="#e65100" class="teamapps-color-3" mask="url(#mask-yOQSQVI6)">
				<rect x="85.33" y="128" width="853.34" height="768" fill="currentColor"/>
			</g>
		</g>
		<g filter="url(#filter-SZVzi1TQ)" mask="url(#mask-rLC2QCEc)">
			<g color="#fff59d" class="teamapps-color-1">
				<rect x="85.33" y="128" width="853.34" height="768" fill="currentColor"/>
			</g>
		</g>
		<g clip-path="url(#clip-43s6mWRO)">
			<path d="M-7.67,939v-954h1039.34v954zM853.33,213.33h-135.25l-78.08,-85.33h-256l-78.08,85.33h-135.25c-46.93,0 -85.34,38.41 -85.34,85.34v512c0,46.93 38.41,85.33 85.34,85.33h298.66v-89.17c-120.75,-20.48 -213.33,-125.44 -213.33,-252.16h85.33c0,94.29 76.38,170.66 170.67,170.66c94.29,0 170.67,-76.37 170.67,-170.66h85.33c0,126.72 -92.58,231.68 -213.33,252.16v89.17h298.66c46.93,0 85.34,-38.4 85.34,-85.33v-512c0,-46.93 -38.41,-85.34 -85.34,-85.34zM597.33,554.67c0,46.93 -38.4,85.33 -85.33,85.33c-46.93,0 -85.33,-38.4 -85.33,-85.33v-170.67c0,-46.93 38.4,-85.33 85.33,-85.33c46.93,0 85.33,38.4 85.33,85.33z" fill="#000000" filter="url(#filter-rDUZuMZ6)"/>
		</g>
	</g>
</svg>