<svg version="1.1" xmlns="http://www.w3.org/2000/svg" xmlns:xlink="http://www.w3.org/1999/xlink" viewBox="0,0,1024,1024">
	<!-- Color names: teamapps-color-1, teamapps-color-2, teamapps-color-3 -->
	<desc>perm_data_setting icon - Licensed under Apache License v2.0 (http://www.apache.org/licenses/LICENSE-2.0) - Created with Iconfu.com - Derivative work of Material icons (Copyright Google Inc.)</desc>
	<defs>
		<clipPath id="clip-5p9vThxi">
			<path d="M490.24,810.67c0,14.51 1.28,28.58 2.99,42.66h-493.23l853.33,-853.33l-0.42,493.65c-14.08,-1.71 -28.16,-2.98 -42.67,-2.98c-176.64,0 -320,143.36 -320,320zM1014.19,866.99c3.84,3.41 5.12,8.96 2.56,13.65l-42.67,73.81c-2.99,4.69 -8.54,6.41 -13.23,4.7l-53.33,-21.34c-10.67,8.53 -23.04,15.36 -35.84,20.91l-8.11,56.32c-0.85,5.12 -5.54,8.96 -10.66,8.96h-85.34c-5.55,0 -9.81,-3.84 -10.66,-8.96l-8.11,-56.32c-13.23,-5.12 -25.18,-12.38 -36.27,-20.91l-52.9,21.34c-5.12,1.71 -10.67,-0.01 -13.23,-4.7l-42.67,-73.81c-2.56,-4.69 -1.28,-10.24 2.56,-13.65l45.23,-35.42c-0.85,-6.83 -1.28,-13.65 -1.28,-20.9c0,-7.25 0.43,-14.08 1.28,-20.91l-45.23,-35.41c-4.27,-3.41 -5.12,-8.97 -2.56,-13.66l42.67,-73.81c2.99,-4.69 8.54,-6.4 13.23,-4.69l52.9,21.33c11.09,-8.53 23.47,-15.36 36.27,-20.91l8.11,-56.32c0.85,-5.12 5.54,-8.96 10.66,-8.96h85.34c5.12,0 9.81,3.84 10.24,8.96l8.1,56.32c13.23,5.12 25.18,12.38 36.27,20.91l52.91,-21.33c5.12,-1.71 10.66,0 13.22,4.69l42.67,73.81c2.56,4.69 1.28,10.25 -2.56,13.66l-45.23,35.41c1.28,6.83 1.71,13.66 1.71,20.91c0,7.25 -0.86,14.07 -1.71,20.9zM874.24,810.67c0,-35.41 -28.59,-64 -64,-64c-35.41,0 -64,28.59 -64,64c0,35.41 28.59,64 64,64c35.41,0 64,-28.59 64,-64z"/>
		</clipPath>
		<linearGradient x1="0" y1="1024" x2="1024" y2="0" id="color-WuWNkJpG" gradientUnits="userSpaceOnUse">
			<stop offset="0.2" stop-color="#000000"/>
			<stop offset="0.8" stop-color="#ffffff"/>
		</linearGradient>
		<radialGradient cx="0" cy="0" r="1448.15" id="color-X03DPlDw" gradientUnits="userSpaceOnUse">
			<stop offset="0.07" stop-color="#ffffff"/>
			<stop offset="0.75" stop-color="#000000"/>
		</radialGradient>
		<filter id="filter-ck0ZjSUW" x="0%" y="0%" width="100%" height="100%" color-interpolation-filters="sRGB">
			<feColorMatrix values="1 0 0 0 0 0 1 0 0 0 0 0 1 0 0 0 0 0 0.05 0" in="SourceGraphic"/>
			<feOffset dy="20"/>
			<feGaussianBlur stdDeviation="11" result="blur0"/>
			<feColorMatrix values="1 0 0 0 0 0 1 0 0 0 0 0 1 0 0 0 0 0 0.07 0" in="SourceGraphic"/>
			<feOffset dy="30"/>
			<feGaussianBlur stdDeviation="20" result="blur1"/>
			<feMerge>
				<feMergeNode in="blur0"/>
				<feMergeNode in="blur1"/>
			</feMerge>
		</filter>
		<filter id="filter-s0AcA3XD" color-interpolation-filters="sRGB">
			<feOffset/>
		</filter>
		<mask id="mask-WaJ67lDt">
			<path d="M490.24,810.67c0,14.51 1.28,28.58 2.99,42.66h-493.23l853.33,-853.33l-0.42,493.65c-14.08,-1.71 -28.16,-2.98 -42.67,-2.98c-176.64,0 -320,143.36 -320,320zM1014.19,866.99c3.84,3.41 5.12,8.96 2.56,13.65l-42.67,73.81c-2.99,4.69 -8.54,6.41 -13.23,4.7l-53.33,-21.34c-10.67,8.53 -23.04,15.36 -35.84,20.91l-8.11,56.32c-0.85,5.12 -5.54,8.96 -10.66,8.96h-85.34c-5.55,0 -9.81,-3.84 -10.66,-8.96l-8.11,-56.32c-13.23,-5.12 -25.18,-12.38 -36.27,-20.91l-52.9,21.34c-5.12,1.71 -10.67,-0.01 -13.23,-4.7l-42.67,-73.81c-2.56,-4.69 -1.28,-10.24 2.56,-13.65l45.23,-35.42c-0.85,-6.83 -1.28,-13.65 -1.28,-20.9c0,-7.25 0.43,-14.08 1.28,-20.91l-45.23,-35.41c-4.27,-3.41 -5.12,-8.97 -2.56,-13.66l42.67,-73.81c2.99,-4.69 8.54,-6.4 13.23,-4.69l52.9,21.33c11.09,-8.53 23.47,-15.36 36.27,-20.91l8.11,-56.32c0.85,-5.12 5.54,-8.96 10.66,-8.96h85.34c5.12,0 9.81,3.84 10.24,8.96l8.1,56.32c13.23,5.12 25.18,12.38 36.27,20.91l52.91,-21.33c5.12,-1.71 10.66,0 13.22,4.69l42.67,73.81c2.56,4.69 1.28,10.25 -2.56,13.66l-45.23,35.41c1.28,6.83 1.71,13.66 1.71,20.91c0,7.25 -0.86,14.07 -1.71,20.9zM874.24,810.67c0,-35.41 -28.59,-64 -64,-64c-35.41,0 -64,28.59 -64,64c0,35.41 28.59,64 64,64c35.41,0 64,-28.59 64,-64z" fill="#ffffff"/>
		</mask>
		<mask id="mask-XU9WgQiI">
			<path d="M490.24,810.67c0,14.51 1.28,28.58 2.99,42.66h-493.23l853.33,-853.33l-0.42,493.65c-14.08,-1.71 -28.16,-2.98 -42.67,-2.98c-176.64,0 -320,143.36 -320,320zM1014.19,866.99c3.84,3.41 5.12,8.96 2.56,13.65l-42.67,73.81c-2.99,4.69 -8.54,6.41 -13.23,4.7l-53.33,-21.34c-10.67,8.53 -23.04,15.36 -35.84,20.91l-8.11,56.32c-0.85,5.12 -5.54,8.96 -10.66,8.96h-85.34c-5.55,0 -9.81,-3.84 -10.66,-8.96l-8.11,-56.32c-13.23,-5.12 -25.18,-12.38 -36.27,-20.91l-52.9,21.34c-5.12,1.71 -10.67,-0.01 -13.23,-4.7l-42.67,-73.81c-2.56,-4.69 -1.28,-10.24 2.56,-13.65l45.23,-35.42c-0.85,-6.83 -1.28,-13.65 -1.28,-20.9c0,-7.25 0.43,-14.08 1.28,-20.91l-45.23,-35.41c-4.27,-3.41 -5.12,-8.97 -2.56,-13.66l42.67,-73.81c2.99,-4.69 8.54,-6.4 13.23,-4.69l52.9,21.33c11.09,-8.53 23.47,-15.36 36.27,-20.91l8.11,-56.32c0.85,-5.12 5.54,-8.96 10.66,-8.96h85.34c5.12,0 9.81,3.84 10.24,8.96l8.1,56.32c13.23,5.12 25.18,12.38 36.27,20.91l52.91,-21.33c5.12,-1.71 10.66,0 13.22,4.69l42.67,73.81c2.56,4.69 1.28,10.25 -2.56,13.66l-45.23,35.41c1.28,6.83 1.71,13.66 1.71,20.91c0,7.25 -0.86,14.07 -1.71,20.9zM874.24,810.67c0,-35.41 -28.59,-64 -64,-64c-35.41,0 -64,28.59 -64,64c0,35.41 28.59,64 64,64c35.41,0 64,-28.59 64,-64z" fill="url(#color-X03DPlDw)"/>
		</mask>
		<mask id="mask-yYLhI5ps">
			<rect fill="url(#color-WuWNkJpG)" x="0" y="0" width="1018.08" height="1024"/>
		</mask>
	</defs>
	<g fill="none" fill-rule="nonzero" style="mix-blend-mode: normal">
		<g mask="url(#mask-WaJ67lDt)">
			<g color="#ffc107" class="teamapps-color-2">
				<rect x="0" y="0" width="1018.08" height="1024" fill="currentColor"/>
			</g>
			<g color="#e65100" class="teamapps-color-3" mask="url(#mask-yYLhI5ps)">
				<rect x="0" y="0" width="1018.08" height="1024" fill="currentColor"/>
			</g>
		</g>
		<g filter="url(#filter-s0AcA3XD)" mask="url(#mask-XU9WgQiI)">
			<g color="#fff59d" class="teamapps-color-1">
				<rect x="0" y="0" width="1018.08" height="1024" fill="currentColor"/>
			</g>
		</g>
		<g clip-path="url(#clip-5p9vThxi)">
			<path d="M-93,1067v-1210h1204.08v1210zM810.24,490.67c14.51,0 28.59,1.27 42.67,2.98l0.42,-493.65l-853.33,853.33h493.23c-1.71,-14.08 -2.99,-28.15 -2.99,-42.66c0,-176.64 143.36,-320 320,-320zM968.53,831.57c0.85,-6.83 1.71,-13.65 1.71,-20.9c0,-7.25 -0.43,-14.08 -1.71,-20.91l45.23,-35.41c3.84,-3.41 5.12,-8.97 2.56,-13.66l-42.67,-73.81c-2.56,-4.69 -8.1,-6.4 -13.22,-4.69l-52.91,21.33c-11.09,-8.53 -23.04,-15.79 -36.27,-20.91l-8.1,-56.32c-0.43,-5.12 -5.12,-8.96 -10.24,-8.96h-85.34c-5.12,0 -9.81,3.84 -10.66,8.96l-8.11,56.32c-12.8,5.55 -25.18,12.38 -36.27,20.91l-52.9,-21.33c-4.69,-1.71 -10.24,0 -13.23,4.69l-42.67,73.81c-2.56,4.69 -1.71,10.25 2.56,13.66l45.23,35.41c-0.85,6.83 -1.28,13.66 -1.28,20.91c0,7.25 0.43,14.07 1.28,20.9l-45.23,35.42c-3.84,3.41 -5.12,8.96 -2.56,13.65l42.67,73.81c2.56,4.69 8.11,6.41 13.23,4.7l52.9,-21.34c11.09,8.53 23.04,15.79 36.27,20.91l8.11,56.32c0.85,5.12 5.11,8.96 10.66,8.96h85.34c5.12,0 9.81,-3.84 10.66,-8.96l8.11,-56.32c12.8,-5.55 25.17,-12.38 35.84,-20.91l53.33,21.34c4.69,1.71 10.24,-0.01 13.23,-4.7l42.67,-73.81c2.56,-4.69 1.28,-10.24 -2.56,-13.65zM810.24,874.67c-35.41,0 -64,-28.59 -64,-64c0,-35.41 28.59,-64 64,-64c35.41,0 64,28.59 64,64c0,35.41 -28.59,64 -64,64z" fill="#000000" filter="url(#filter-ck0ZjSUW)"/>
		</g>
	</g>
</svg>