<svg version="1.1" xmlns="http://www.w3.org/2000/svg" xmlns:xlink="http://www.w3.org/1999/xlink" viewBox="0,0,1024,1024">
	<!-- Color names: teamapps-color-1, teamapps-color-2, teamapps-color-3 -->
	<desc>person_pin icon - Licensed under Apache License v2.0 (http://www.apache.org/licenses/LICENSE-2.0) - Created with Iconfu.com - Derivative work of Material icons (Copyright Google Inc.)</desc>
	<defs>
		<clipPath id="clip-CmPpQOEO">
			<path d="M896,170.67v597.33c0,46.93 -38.4,85.33 -85.33,85.33h-170.67l-128,128l-128,-128h-170.67c-47.36,0 -85.33,-38.4 -85.33,-85.33v-597.33c0,-46.93 37.97,-85.34 85.33,-85.34h597.34c46.93,0 85.33,38.41 85.33,85.34zM768,644.27c0,-85.33 -170.67,-132.27 -256,-132.27c-85.33,0 -256,46.94 -256,132.27v38.4h512zM396.8,341.33c0,63.57 51.63,115.2 115.2,115.2c63.57,0 115.2,-51.63 115.2,-115.2c0,-63.57 -51.63,-115.2 -115.2,-115.2c-63.57,0 -115.2,51.63 -115.2,115.2z"/>
		</clipPath>
		<radialGradient cx="0" cy="0" r="1448.15" id="color-F53qi7Sv" gradientUnits="userSpaceOnUse">
			<stop offset="0.07" stop-color="#ffffff"/>
			<stop offset="0.75" stop-color="#000000"/>
		</radialGradient>
		<linearGradient x1="0" y1="1024" x2="1024" y2="0" id="color-Labpcbfa" gradientUnits="userSpaceOnUse">
			<stop offset="0.2" stop-color="#000000"/>
			<stop offset="0.8" stop-color="#ffffff"/>
		</linearGradient>
		<filter id="filter-7hfDcs33" color-interpolation-filters="sRGB">
			<feOffset/>
		</filter>
		<filter id="filter-SrYh5RfN" x="0%" y="0%" width="100%" height="100%" color-interpolation-filters="sRGB">
			<feColorMatrix values="1 0 0 0 0 0 1 0 0 0 0 0 1 0 0 0 0 0 0.05 0" in="SourceGraphic"/>
			<feOffset dy="20"/>
			<feGaussianBlur stdDeviation="11" result="blur0"/>
			<feColorMatrix values="1 0 0 0 0 0 1 0 0 0 0 0 1 0 0 0 0 0 0.07 0" in="SourceGraphic"/>
			<feOffset dy="30"/>
			<feGaussianBlur stdDeviation="20" result="blur1"/>
			<feMerge>
				<feMergeNode in="blur0"/>
				<feMergeNode in="blur1"/>
			</feMerge>
		</filter>
		<mask id="mask-d55nUlzt">
			<path d="M896,170.67v597.33c0,46.93 -38.4,85.33 -85.33,85.33h-170.67l-128,128l-128,-128h-170.67c-47.36,0 -85.33,-38.4 -85.33,-85.33v-597.33c0,-46.93 37.97,-85.34 85.33,-85.34h597.34c46.93,0 85.33,38.41 85.33,85.34zM768,644.27c0,-85.33 -170.67,-132.27 -256,-132.27c-85.33,0 -256,46.94 -256,132.27v38.4h512zM396.8,341.33c0,63.57 51.63,115.2 115.2,115.2c63.57,0 115.2,-51.63 115.2,-115.2c0,-63.57 -51.63,-115.2 -115.2,-115.2c-63.57,0 -115.2,51.63 -115.2,115.2z" fill="#ffffff"/>
		</mask>
		<mask id="mask-MShTWl6i">
			<path d="M896,170.67v597.33c0,46.93 -38.4,85.33 -85.33,85.33h-170.67l-128,128l-128,-128h-170.67c-47.36,0 -85.33,-38.4 -85.33,-85.33v-597.33c0,-46.93 37.97,-85.34 85.33,-85.34h597.34c46.93,0 85.33,38.41 85.33,85.34zM768,644.27c0,-85.33 -170.67,-132.27 -256,-132.27c-85.33,0 -256,46.94 -256,132.27v38.4h512zM396.8,341.33c0,63.57 51.63,115.2 115.2,115.2c63.57,0 115.2,-51.63 115.2,-115.2c0,-63.57 -51.63,-115.2 -115.2,-115.2c-63.57,0 -115.2,51.63 -115.2,115.2z" fill="url(#color-F53qi7Sv)"/>
		</mask>
		<mask id="mask-X10sD7dY">
			<rect fill="url(#color-Labpcbfa)" x="128" y="85.33" width="768" height="896"/>
		</mask>
	</defs>
	<g fill="none" fill-rule="nonzero" style="mix-blend-mode: normal">
		<g mask="url(#mask-d55nUlzt)">
			<g color="#ffc107" class="teamapps-color-2">
				<rect x="128" y="85.33" width="768" height="896" fill="currentColor"/>
			</g>
			<g color="#e65100" class="teamapps-color-3" mask="url(#mask-X10sD7dY)">
				<rect x="128" y="85.33" width="768" height="896" fill="currentColor"/>
			</g>
		</g>
		<g filter="url(#filter-7hfDcs33)" mask="url(#mask-MShTWl6i)">
			<g color="#fff59d" class="teamapps-color-1">
				<rect x="128" y="85.33" width="768" height="896" fill="currentColor"/>
			</g>
		</g>
		<g clip-path="url(#clip-CmPpQOEO)">
			<path d="M35,1024.33v-1082h954v1082zM810.67,85.33h-597.34c-47.36,0 -85.33,38.41 -85.33,85.34v597.33c0,46.93 37.97,85.33 85.33,85.33h170.67l128,128l128,-128h170.67c46.93,0 85.33,-38.4 85.33,-85.33v-597.33c0,-46.93 -38.4,-85.34 -85.33,-85.34zM768,682.67h-512v-38.4c0,-85.33 170.67,-132.27 256,-132.27c85.33,0 256,46.94 256,132.27zM512,226.13c63.57,0 115.2,51.63 115.2,115.2c0,63.57 -51.63,115.2 -115.2,115.2c-63.57,0 -115.2,-51.63 -115.2,-115.2c0,-63.57 51.63,-115.2 115.2,-115.2z" fill="#000000" filter="url(#filter-SrYh5RfN)"/>
		</g>
	</g>
</svg>