<svg version="1.1" xmlns="http://www.w3.org/2000/svg" xmlns:xlink="http://www.w3.org/1999/xlink" viewBox="0,0,1024,1024">
	<!-- Color names: teamapps-color-1, teamapps-color-2, teamapps-color-3 -->
	<desc>person_pin_circle icon - Licensed under Apache License v2.0 (http://www.apache.org/licenses/LICENSE-2.0) - Created with Iconfu.com - Derivative work of Material icons (Copyright Google Inc.)</desc>
	<defs>
		<clipPath id="clip-eWR7Hu7G">
			<path d="M810.67,384c0,224 -298.67,554.67 -298.67,554.67c0,0 -298.67,-330.67 -298.67,-554.67c0,-164.69 133.98,-298.67 298.67,-298.67c164.69,0 298.67,133.98 298.67,298.67zM682.67,505.6c-0.85,-56.32 -113.92,-87.47 -170.67,-87.47c-56.75,0 -169.82,31.15 -170.67,87.47c36.69,55.47 99.42,91.73 170.67,91.73c71.25,0 133.98,-36.26 170.67,-91.73zM426.67,256c0,47.36 38.4,85.33 85.33,85.33c46.93,0 85.33,-37.97 85.33,-85.33c0,-46.93 -38.4,-85.33 -85.33,-85.33c-46.93,0 -85.33,38.4 -85.33,85.33z"/>
		</clipPath>
		<radialGradient cx="0" cy="0" r="1448.15" id="color-mfCzikHT" gradientUnits="userSpaceOnUse">
			<stop offset="0.07" stop-color="#ffffff"/>
			<stop offset="0.75" stop-color="#000000"/>
		</radialGradient>
		<linearGradient x1="0" y1="1024" x2="1024" y2="0" id="color-vbMPjOEl" gradientUnits="userSpaceOnUse">
			<stop offset="0.2" stop-color="#000000"/>
			<stop offset="0.8" stop-color="#ffffff"/>
		</linearGradient>
		<filter id="filter-2oqJK5Lv" x="0%" y="0%" width="100%" height="100%" color-interpolation-filters="sRGB">
			<feColorMatrix values="1 0 0 0 0 0 1 0 0 0 0 0 1 0 0 0 0 0 0.05 0" in="SourceGraphic"/>
			<feOffset dy="20"/>
			<feGaussianBlur stdDeviation="11" result="blur0"/>
			<feColorMatrix values="1 0 0 0 0 0 1 0 0 0 0 0 1 0 0 0 0 0 0.07 0" in="SourceGraphic"/>
			<feOffset dy="30"/>
			<feGaussianBlur stdDeviation="20" result="blur1"/>
			<feMerge>
				<feMergeNode in="blur0"/>
				<feMergeNode in="blur1"/>
			</feMerge>
		</filter>
		<filter id="filter-mej57M0x" color-interpolation-filters="sRGB">
			<feOffset/>
		</filter>
		<mask id="mask-EwmIZ091">
			<rect fill="url(#color-vbMPjOEl)" x="213.33" y="85.33" width="597.34" height="853.34"/>
		</mask>
		<mask id="mask-j9knWVdG">
			<path d="M810.67,384c0,224 -298.67,554.67 -298.67,554.67c0,0 -298.67,-330.67 -298.67,-554.67c0,-164.69 133.98,-298.67 298.67,-298.67c164.69,0 298.67,133.98 298.67,298.67zM682.67,505.6c-0.85,-56.32 -113.92,-87.47 -170.67,-87.47c-56.75,0 -169.82,31.15 -170.67,87.47c36.69,55.47 99.42,91.73 170.67,91.73c71.25,0 133.98,-36.26 170.67,-91.73zM426.67,256c0,47.36 38.4,85.33 85.33,85.33c46.93,0 85.33,-37.97 85.33,-85.33c0,-46.93 -38.4,-85.33 -85.33,-85.33c-46.93,0 -85.33,38.4 -85.33,85.33z" fill="#ffffff"/>
		</mask>
		<mask id="mask-rJ10e4ir">
			<path d="M810.67,384c0,224 -298.67,554.67 -298.67,554.67c0,0 -298.67,-330.67 -298.67,-554.67c0,-164.69 133.98,-298.67 298.67,-298.67c164.69,0 298.67,133.98 298.67,298.67zM682.67,505.6c-0.85,-56.32 -113.92,-87.47 -170.67,-87.47c-56.75,0 -169.82,31.15 -170.67,87.47c36.69,55.47 99.42,91.73 170.67,91.73c71.25,0 133.98,-36.26 170.67,-91.73zM426.67,256c0,47.36 38.4,85.33 85.33,85.33c46.93,0 85.33,-37.97 85.33,-85.33c0,-46.93 -38.4,-85.33 -85.33,-85.33c-46.93,0 -85.33,38.4 -85.33,85.33z" fill="url(#color-mfCzikHT)"/>
		</mask>
	</defs>
	<g fill="none" fill-rule="nonzero" style="mix-blend-mode: normal">
		<g mask="url(#mask-j9knWVdG)">
			<g color="#ffc107" class="teamapps-color-2">
				<rect x="213.33" y="85.33" width="597.34" height="853.34" fill="currentColor"/>
			</g>
			<g color="#e65100" class="teamapps-color-3" mask="url(#mask-EwmIZ091)">
				<rect x="213.33" y="85.33" width="597.34" height="853.34" fill="currentColor"/>
			</g>
		</g>
		<g filter="url(#filter-mej57M0x)" mask="url(#mask-rJ10e4ir)">
			<g color="#fff59d" class="teamapps-color-1">
				<rect x="213.33" y="85.33" width="597.34" height="853.34" fill="currentColor"/>
			</g>
		</g>
		<g clip-path="url(#clip-eWR7Hu7G)">
			<path d="M120.33,981.67v-1039.34h783.34v1039.34zM512,85.33c-164.69,0 -298.67,133.98 -298.67,298.67c0,224 298.67,554.67 298.67,554.67c0,0 298.67,-330.67 298.67,-554.67c0,-164.69 -133.98,-298.67 -298.67,-298.67zM512,597.33c-71.25,0 -133.98,-36.26 -170.67,-91.73c0.85,-56.32 113.92,-87.47 170.67,-87.47c56.75,0 169.82,31.15 170.67,87.47c-36.69,55.47 -99.42,91.73 -170.67,91.73zM512,170.67c46.93,0 85.33,38.4 85.33,85.33c0,47.36 -38.4,85.33 -85.33,85.33c-46.93,0 -85.33,-37.97 -85.33,-85.33c0,-46.93 38.4,-85.33 85.33,-85.33z" fill="#000000" filter="url(#filter-2oqJK5Lv)"/>
		</g>
	</g>
</svg>