<svg version="1.1" xmlns="http://www.w3.org/2000/svg" xmlns:xlink="http://www.w3.org/1999/xlink" viewBox="0,0,1024,1024">
	<!-- Color names: teamapps-color-1, teamapps-color-2, teamapps-color-3 -->
	<desc>photo_size_select_large icon - Licensed under Apache License v2.0 (http://www.apache.org/licenses/LICENSE-2.0) - Created with Iconfu.com - Derivative work of Material icons (Copyright Google Inc.)</desc>
	<defs>
		<clipPath id="clip-hmUnYbqc">
			<path d="M640,469.33v426.67h-512c-46.93,0 -85.33,-38.4 -85.33,-85.33v-341.34zM554.67,810.67l-136.96,-182.62l-106.67,137.39l-76.37,-91.73l-106.67,136.96zM725.33,810.67h85.34v85.33h-85.34zM42.67,298.67h85.33v85.33h-85.33zM554.67,128h85.33v85.33h-85.33zM725.33,128h85.34v85.33h-85.34zM128,213.33h-85.33c0,-42.67 42.66,-85.33 85.33,-85.33zM896,896v-85.33h85.33c0,42.67 -42.66,85.33 -85.33,85.33zM896,298.67h85.33v85.33h-85.33zM384,128h85.33v85.33h-85.33zM213.33,128h85.34v85.33h-85.34zM896,469.33h85.33v85.34h-85.33zM981.33,213.33h-85.33v-85.33c42.67,0 85.33,42.66 85.33,85.33zM896,640h85.33v85.33h-85.33z"/>
		</clipPath>
		<radialGradient cx="0" cy="0" r="1448.15" id="color-mFnF5yyl" gradientUnits="userSpaceOnUse">
			<stop offset="0.07" stop-color="#ffffff"/>
			<stop offset="0.75" stop-color="#000000"/>
		</radialGradient>
		<linearGradient x1="0" y1="1024" x2="1024" y2="0" id="color-StyuBcb4" gradientUnits="userSpaceOnUse">
			<stop offset="0.2" stop-color="#000000"/>
			<stop offset="0.8" stop-color="#ffffff"/>
		</linearGradient>
		<filter id="filter-hPOtEtiV" color-interpolation-filters="sRGB">
			<feOffset/>
		</filter>
		<filter id="filter-SwcaDkbz" x="0%" y="0%" width="100%" height="100%" color-interpolation-filters="sRGB">
			<feColorMatrix values="1 0 0 0 0 0 1 0 0 0 0 0 1 0 0 0 0 0 0.05 0" in="SourceGraphic"/>
			<feOffset dy="20"/>
			<feGaussianBlur stdDeviation="11" result="blur0"/>
			<feColorMatrix values="1 0 0 0 0 0 1 0 0 0 0 0 1 0 0 0 0 0 0.07 0" in="SourceGraphic"/>
			<feOffset dy="30"/>
			<feGaussianBlur stdDeviation="20" result="blur1"/>
			<feMerge>
				<feMergeNode in="blur0"/>
				<feMergeNode in="blur1"/>
			</feMerge>
		</filter>
		<mask id="mask-5XYTVKV5">
			<path d="M640,469.33v426.67h-512c-46.93,0 -85.33,-38.4 -85.33,-85.33v-341.34zM554.67,810.67l-136.96,-182.62l-106.67,137.39l-76.37,-91.73l-106.67,136.96zM725.33,810.67h85.34v85.33h-85.34zM42.67,298.67h85.33v85.33h-85.33zM554.67,128h85.33v85.33h-85.33zM725.33,128h85.34v85.33h-85.34zM128,213.33h-85.33c0,-42.67 42.66,-85.33 85.33,-85.33zM896,896v-85.33h85.33c0,42.67 -42.66,85.33 -85.33,85.33zM896,298.67h85.33v85.33h-85.33zM384,128h85.33v85.33h-85.33zM213.33,128h85.34v85.33h-85.34zM896,469.33h85.33v85.34h-85.33zM981.33,213.33h-85.33v-85.33c42.67,0 85.33,42.66 85.33,85.33zM896,640h85.33v85.33h-85.33z" fill="#ffffff"/>
		</mask>
		<mask id="mask-dm0c6VQc">
			<path d="M640,469.33v426.67h-512c-46.93,0 -85.33,-38.4 -85.33,-85.33v-341.34zM554.67,810.67l-136.96,-182.62l-106.67,137.39l-76.37,-91.73l-106.67,136.96zM725.33,810.67h85.34v85.33h-85.34zM42.67,298.67h85.33v85.33h-85.33zM554.67,128h85.33v85.33h-85.33zM725.33,128h85.34v85.33h-85.34zM128,213.33h-85.33c0,-42.67 42.66,-85.33 85.33,-85.33zM896,896v-85.33h85.33c0,42.67 -42.66,85.33 -85.33,85.33zM896,298.67h85.33v85.33h-85.33zM384,128h85.33v85.33h-85.33zM213.33,128h85.34v85.33h-85.34zM896,469.33h85.33v85.34h-85.33zM981.33,213.33h-85.33v-85.33c42.67,0 85.33,42.66 85.33,85.33zM896,640h85.33v85.33h-85.33z" fill="url(#color-mFnF5yyl)"/>
		</mask>
		<mask id="mask-lRSpMBfu">
			<rect fill="url(#color-StyuBcb4)" x="42.67" y="128" width="938.66" height="768"/>
		</mask>
	</defs>
	<g fill="none" fill-rule="nonzero" style="mix-blend-mode: normal">
		<g mask="url(#mask-5XYTVKV5)">
			<g color="#ffc107" class="teamapps-color-2">
				<rect x="42.67" y="128" width="938.66" height="768" fill="currentColor"/>
			</g>
			<g color="#e65100" class="teamapps-color-3" mask="url(#mask-lRSpMBfu)">
				<rect x="42.67" y="128" width="938.66" height="768" fill="currentColor"/>
			</g>
		</g>
		<g filter="url(#filter-hPOtEtiV)" mask="url(#mask-dm0c6VQc)">
			<g color="#fff59d" class="teamapps-color-1">
				<rect x="42.67" y="128" width="938.66" height="768" fill="currentColor"/>
			</g>
		</g>
		<g clip-path="url(#clip-hmUnYbqc)">
			<path d="M-50.33,939v-954h1124.66v954zM42.67,469.33v341.34c0,46.93 38.4,85.33 85.33,85.33h512v-426.67zM128,810.67l106.67,-136.96l76.37,91.73l106.67,-137.39l136.96,182.62zM725.33,896h85.34v-85.33h-85.34zM42.67,384h85.33v-85.33h-85.33zM554.67,213.33h85.33v-85.33h-85.33zM725.33,213.33h85.34v-85.33h-85.34zM128,128c-42.67,0 -85.33,42.66 -85.33,85.33h85.33zM981.33,810.67h-85.33v85.33c42.67,0 85.33,-42.66 85.33,-85.33zM896,384h85.33v-85.33h-85.33zM384,213.33h85.33v-85.33h-85.33zM213.33,213.33h85.34v-85.33h-85.34zM896,554.67h85.33v-85.34h-85.33zM896,128v85.33h85.33c0,-42.67 -42.66,-85.33 -85.33,-85.33zM896,725.33h85.33v-85.33h-85.33z" fill="#000000" filter="url(#filter-SwcaDkbz)"/>
		</g>
	</g>
</svg>