<svg version="1.1" xmlns="http://www.w3.org/2000/svg" xmlns:xlink="http://www.w3.org/1999/xlink" viewBox="0,0,1024,1024">
	<!-- Color names: teamapps-color-1, teamapps-color-2, teamapps-color-3 -->
	<desc>photo_album icon - Licensed under Apache License v2.0 (http://www.apache.org/licenses/LICENSE-2.0) - Created with Iconfu.com - Derivative work of Material icons (Copyright Google Inc.)</desc>
	<defs>
		<clipPath id="clip-Rp68ceuY">
			<path d="M853.33,170.67v682.66c0,46.93 -38.4,85.34 -85.33,85.34h-512c-46.93,0 -85.33,-38.41 -85.33,-85.34v-682.66c0,-46.93 38.4,-85.34 85.33,-85.34h512c46.93,0 85.33,38.41 85.33,85.34zM768,810.67l-164.69,-219.31l-128,164.69l-91.31,-110.08l-128,164.7zM256,512l106.67,-64l106.66,64v-341.33h-213.33z"/>
		</clipPath>
		<radialGradient cx="0" cy="0" r="1448.15" id="color-482W9tgW" gradientUnits="userSpaceOnUse">
			<stop offset="0.07" stop-color="#ffffff"/>
			<stop offset="0.75" stop-color="#000000"/>
		</radialGradient>
		<linearGradient x1="0" y1="1024" x2="1024" y2="0" id="color-xjdVQzOK" gradientUnits="userSpaceOnUse">
			<stop offset="0.2" stop-color="#000000"/>
			<stop offset="0.8" stop-color="#ffffff"/>
		</linearGradient>
		<filter id="filter-CYMWXa1i" x="0%" y="0%" width="100%" height="100%" color-interpolation-filters="sRGB">
			<feColorMatrix values="1 0 0 0 0 0 1 0 0 0 0 0 1 0 0 0 0 0 0.05 0" in="SourceGraphic"/>
			<feOffset dy="20"/>
			<feGaussianBlur stdDeviation="11" result="blur0"/>
			<feColorMatrix values="1 0 0 0 0 0 1 0 0 0 0 0 1 0 0 0 0 0 0.07 0" in="SourceGraphic"/>
			<feOffset dy="30"/>
			<feGaussianBlur stdDeviation="20" result="blur1"/>
			<feMerge>
				<feMergeNode in="blur0"/>
				<feMergeNode in="blur1"/>
			</feMerge>
		</filter>
		<filter id="filter-JmaLQWBC" color-interpolation-filters="sRGB">
			<feOffset/>
		</filter>
		<mask id="mask-2jWxGdwa">
			<path d="M853.33,170.67v682.66c0,46.93 -38.4,85.34 -85.33,85.34h-512c-46.93,0 -85.33,-38.41 -85.33,-85.34v-682.66c0,-46.93 38.4,-85.34 85.33,-85.34h512c46.93,0 85.33,38.41 85.33,85.34zM768,810.67l-164.69,-219.31l-128,164.69l-91.31,-110.08l-128,164.7zM256,512l106.67,-64l106.66,64v-341.33h-213.33z" fill="#ffffff"/>
		</mask>
		<mask id="mask-8cwFcg7U">
			<path d="M853.33,170.67v682.66c0,46.93 -38.4,85.34 -85.33,85.34h-512c-46.93,0 -85.33,-38.41 -85.33,-85.34v-682.66c0,-46.93 38.4,-85.34 85.33,-85.34h512c46.93,0 85.33,38.41 85.33,85.34zM768,810.67l-164.69,-219.31l-128,164.69l-91.31,-110.08l-128,164.7zM256,512l106.67,-64l106.66,64v-341.33h-213.33z" fill="url(#color-482W9tgW)"/>
		</mask>
		<mask id="mask-R77rIWPp">
			<rect fill="url(#color-xjdVQzOK)" x="170.67" y="85.33" width="682.66" height="853.34"/>
		</mask>
	</defs>
	<g fill="none" fill-rule="nonzero" style="mix-blend-mode: normal">
		<g mask="url(#mask-2jWxGdwa)">
			<g color="#ffc107" class="teamapps-color-2">
				<rect x="170.67" y="85.33" width="682.66" height="853.34" fill="currentColor"/>
			</g>
			<g color="#e65100" class="teamapps-color-3" mask="url(#mask-R77rIWPp)">
				<rect x="170.67" y="85.33" width="682.66" height="853.34" fill="currentColor"/>
			</g>
		</g>
		<g filter="url(#filter-JmaLQWBC)" mask="url(#mask-8cwFcg7U)">
			<g color="#fff59d" class="teamapps-color-1">
				<rect x="170.67" y="85.33" width="682.66" height="853.34" fill="currentColor"/>
			</g>
		</g>
		<g clip-path="url(#clip-Rp68ceuY)">
			<path d="M77.67,981.67v-1039.34h868.66v1039.34zM768,85.33h-512c-46.93,0 -85.33,38.41 -85.33,85.34v682.66c0,46.93 38.4,85.34 85.33,85.34h512c46.93,0 85.33,-38.41 85.33,-85.34v-682.66c0,-46.93 -38.4,-85.34 -85.33,-85.34zM256,810.67l128,-164.7l91.31,110.08l128,-164.69l164.69,219.31zM256,170.67h213.33v341.33l-106.66,-64l-106.67,64z" fill="#000000" filter="url(#filter-CYMWXa1i)"/>
		</g>
	</g>
</svg>