<svg version="1.1" xmlns="http://www.w3.org/2000/svg" xmlns:xlink="http://www.w3.org/1999/xlink" viewBox="0,0,1024,1024">
	<!-- Color names: teamapps-color-1, teamapps-color-2, teamapps-color-3 -->
	<desc>playlist_add_check icon - Licensed under Apache License v2.0 (http://www.apache.org/licenses/LICENSE-2.0) - Created with Iconfu.com - Derivative work of Material icons (Copyright Google Inc.)</desc>
	<defs>
		<clipPath id="clip-zh2FFY7j">
			<path d="M917.33,490.67l64,64l-298.24,298.66l-192.42,-192l64,-64l128.42,128zM597.33,512h-512v-85.33h512zM597.33,341.33h-512v-85.33h512zM85.33,597.33h341.34v85.34h-341.34z"/>
		</clipPath>
		<linearGradient x1="0" y1="1024" x2="1024" y2="0" id="color-n8Fjk70v" gradientUnits="userSpaceOnUse">
			<stop offset="0.2" stop-color="#000000"/>
			<stop offset="0.8" stop-color="#ffffff"/>
		</linearGradient>
		<radialGradient cx="0" cy="0" r="1448.15" id="color-zqI74TY2" gradientUnits="userSpaceOnUse">
			<stop offset="0.07" stop-color="#ffffff"/>
			<stop offset="0.75" stop-color="#000000"/>
		</radialGradient>
		<filter id="filter-CIOBv4TU" x="0%" y="0%" width="100%" height="100%" color-interpolation-filters="sRGB">
			<feColorMatrix values="1 0 0 0 0 0 1 0 0 0 0 0 1 0 0 0 0 0 0.05 0" in="SourceGraphic"/>
			<feOffset dy="20"/>
			<feGaussianBlur stdDeviation="11" result="blur0"/>
			<feColorMatrix values="1 0 0 0 0 0 1 0 0 0 0 0 1 0 0 0 0 0 0.07 0" in="SourceGraphic"/>
			<feOffset dy="30"/>
			<feGaussianBlur stdDeviation="20" result="blur1"/>
			<feMerge>
				<feMergeNode in="blur0"/>
				<feMergeNode in="blur1"/>
			</feMerge>
		</filter>
		<filter id="filter-xgyxk75X" color-interpolation-filters="sRGB">
			<feOffset/>
		</filter>
		<mask id="mask-LMb0YR2p">
			<path d="M917.33,490.67l64,64l-298.24,298.66l-192.42,-192l64,-64l128.42,128zM597.33,512h-512v-85.33h512zM597.33,341.33h-512v-85.33h512zM85.33,597.33h341.34v85.34h-341.34z" fill="url(#color-zqI74TY2)"/>
		</mask>
		<mask id="mask-VzEZfP9O">
			<rect fill="url(#color-n8Fjk70v)" x="85.33" y="256" width="896" height="597.33"/>
		</mask>
		<mask id="mask-yQVha9mJ">
			<path d="M917.33,490.67l64,64l-298.24,298.66l-192.42,-192l64,-64l128.42,128zM597.33,512h-512v-85.33h512zM597.33,341.33h-512v-85.33h512zM85.33,597.33h341.34v85.34h-341.34z" fill="#ffffff"/>
		</mask>
	</defs>
	<g fill="none" fill-rule="nonzero" style="mix-blend-mode: normal">
		<g mask="url(#mask-yQVha9mJ)">
			<g color="#ffc107" class="teamapps-color-2">
				<rect x="85.33" y="256" width="896" height="597.33" fill="currentColor"/>
			</g>
			<g color="#e65100" class="teamapps-color-3" mask="url(#mask-VzEZfP9O)">
				<rect x="85.33" y="256" width="896" height="597.33" fill="currentColor"/>
			</g>
		</g>
		<g filter="url(#filter-xgyxk75X)" mask="url(#mask-LMb0YR2p)">
			<g color="#fff59d" class="teamapps-color-1">
				<rect x="85.33" y="256" width="896" height="597.33" fill="currentColor"/>
			</g>
		</g>
		<g clip-path="url(#clip-zh2FFY7j)">
			<path d="M-7.67,896.33v-783.33h1082v783.33zM683.09,725.33l-128.42,-128l-64,64l192.42,192l298.24,-298.66l-64,-64zM597.33,426.67h-512v85.33h512zM597.33,256h-512v85.33h512zM85.33,682.67h341.34v-85.34h-341.34z" fill="#000000" filter="url(#filter-CIOBv4TU)"/>
		</g>
	</g>
</svg>