<svg version="1.1" xmlns="http://www.w3.org/2000/svg" xmlns:xlink="http://www.w3.org/1999/xlink" viewBox="0,0,1024,1024">
	<!-- Color names: teamapps-color-1, teamapps-color-2, teamapps-color-3 -->
	<desc>refresh icon - Licensed under Apache License v2.0 (http://www.apache.org/licenses/LICENSE-2.0) - Created with Iconfu.com - Derivative work of Material icons (Copyright Google Inc.)</desc>
	<defs>
		<clipPath id="clip-eBPFdO3b">
			<path d="M853.33,170.67v298.66h-298.66l137.38,-137.38c-46.08,-46.51 -109.22,-75.95 -180.05,-75.95c-141.23,0 -256,114.77 -256,256c0,141.23 114.77,256 256,256c111.36,0 206.08,-71.26 241.07,-170.67h88.74c-37.97,147.2 -170.66,256 -329.81,256c-188.59,0 -340.91,-152.74 -340.91,-341.33c0,-188.59 152.32,-341.33 340.91,-341.33c94.29,0 179.2,38.39 241.07,100.26z"/>
		</clipPath>
		<radialGradient cx="0" cy="0" r="1448.15" id="color-GMpijEwh" gradientUnits="userSpaceOnUse">
			<stop offset="0.07" stop-color="#ffffff"/>
			<stop offset="0.75" stop-color="#000000"/>
		</radialGradient>
		<linearGradient x1="0" y1="1024" x2="1024" y2="0" id="color-WYrFVfXm" gradientUnits="userSpaceOnUse">
			<stop offset="0.2" stop-color="#000000"/>
			<stop offset="0.8" stop-color="#ffffff"/>
		</linearGradient>
		<filter id="filter-H6w8T6yh" x="0%" y="0%" width="100%" height="100%" color-interpolation-filters="sRGB">
			<feColorMatrix values="1 0 0 0 0 0 1 0 0 0 0 0 1 0 0 0 0 0 0.05 0" in="SourceGraphic"/>
			<feOffset dy="20"/>
			<feGaussianBlur stdDeviation="11" result="blur0"/>
			<feColorMatrix values="1 0 0 0 0 0 1 0 0 0 0 0 1 0 0 0 0 0 0.07 0" in="SourceGraphic"/>
			<feOffset dy="30"/>
			<feGaussianBlur stdDeviation="20" result="blur1"/>
			<feMerge>
				<feMergeNode in="blur0"/>
				<feMergeNode in="blur1"/>
			</feMerge>
		</filter>
		<filter id="filter-whFY57Ms" color-interpolation-filters="sRGB">
			<feOffset/>
		</filter>
		<mask id="mask-G9qFsykF">
			<rect fill="url(#color-WYrFVfXm)" x="171.09" y="170.67" width="682.24" height="682.66"/>
		</mask>
		<mask id="mask-QzDBpCLW">
			<path d="M853.33,170.67v298.66h-298.66l137.38,-137.38c-46.08,-46.51 -109.22,-75.95 -180.05,-75.95c-141.23,0 -256,114.77 -256,256c0,141.23 114.77,256 256,256c111.36,0 206.08,-71.26 241.07,-170.67h88.74c-37.97,147.2 -170.66,256 -329.81,256c-188.59,0 -340.91,-152.74 -340.91,-341.33c0,-188.59 152.32,-341.33 340.91,-341.33c94.29,0 179.2,38.39 241.07,100.26z" fill="url(#color-GMpijEwh)"/>
		</mask>
		<mask id="mask-z9U5ZWj6">
			<path d="M853.33,170.67v298.66h-298.66l137.38,-137.38c-46.08,-46.51 -109.22,-75.95 -180.05,-75.95c-141.23,0 -256,114.77 -256,256c0,141.23 114.77,256 256,256c111.36,0 206.08,-71.26 241.07,-170.67h88.74c-37.97,147.2 -170.66,256 -329.81,256c-188.59,0 -340.91,-152.74 -340.91,-341.33c0,-188.59 152.32,-341.33 340.91,-341.33c94.29,0 179.2,38.39 241.07,100.26z" fill="#ffffff"/>
		</mask>
	</defs>
	<g fill="none" fill-rule="nonzero" style="mix-blend-mode: normal">
		<g mask="url(#mask-z9U5ZWj6)">
			<g color="#ffc107" class="teamapps-color-2">
				<rect x="171.09" y="170.67" width="682.24" height="682.66" fill="currentColor"/>
			</g>
			<g color="#e65100" class="teamapps-color-3" mask="url(#mask-G9qFsykF)">
				<rect x="171.09" y="170.67" width="682.24" height="682.66" fill="currentColor"/>
			</g>
		</g>
		<g filter="url(#filter-whFY57Ms)" mask="url(#mask-QzDBpCLW)">
			<g color="#fff59d" class="teamapps-color-1">
				<rect x="171.09" y="170.67" width="682.24" height="682.66" fill="currentColor"/>
			</g>
		</g>
		<g clip-path="url(#clip-eBPFdO3b)">
			<path d="M78.09,896.33v-868.66h868.24v868.66zM753.07,270.93c-61.87,-61.87 -146.78,-100.26 -241.07,-100.26c-188.59,0 -340.91,152.74 -340.91,341.33c0,188.59 152.32,341.33 340.91,341.33c159.15,0 291.84,-108.8 329.81,-256h-88.74c-34.99,99.41 -129.71,170.67 -241.07,170.67c-141.23,0 -256,-114.77 -256,-256c0,-141.23 114.77,-256 256,-256c70.83,0 133.97,29.44 180.05,75.95l-137.38,137.38h298.66v-298.66z" fill="#000000" filter="url(#filter-H6w8T6yh)"/>
		</g>
	</g>
</svg>