<svg version="1.1" xmlns="http://www.w3.org/2000/svg" xmlns:xlink="http://www.w3.org/1999/xlink" viewBox="0,0,1024,1024">
	<!-- Color names: teamapps-color-1, teamapps-color-2, teamapps-color-3 -->
	<desc>replay_10 icon - Licensed under Apache License v2.0 (http://www.apache.org/licenses/LICENSE-2.0) - Created with Iconfu.com - Derivative work of Material icons (Copyright Google Inc.)</desc>
	<defs>
		<clipPath id="clip-qRUO8RrO">
			<path d="M853.33,554.67c0,187.73 -153.6,341.33 -341.33,341.33c-187.73,0 -341.33,-153.6 -341.33,-341.33h85.33c0,140.8 115.2,256 256,256c140.8,0 256,-115.2 256,-256c0,-140.8 -115.2,-256 -256,-256v170.66l-213.33,-213.33l213.33,-213.33v170.66c187.73,0 341.33,153.61 341.33,341.34zM648.53,605.87c0,12.8 0.01,25.6 -4.26,34.13l-12.8,25.6c0,0 -12.81,12.8 -21.34,12.8c-8.53,0 -17.07,4.27 -25.6,4.27c-8.53,0 -17.07,0 -25.6,-4.27c-8.53,-4.27 -12.8,-8.53 -21.33,-12.8c-8.53,-4.27 -8.53,-12.8 -12.8,-25.6c-4.27,-12.8 -4.27,-21.33 -4.27,-34.13v-29.87c0,-12.8 0,-25.6 4.27,-34.13l12.8,-25.6c0,0 12.8,-12.8 21.33,-12.8c8.53,0 17.07,-4.27 25.6,-4.27c8.53,0 17.07,0 25.6,4.27c8.53,4.27 12.81,8.53 21.34,12.8c8.53,4.27 8.53,12.8 12.8,25.6c4.27,12.8 4.26,21.33 4.26,34.13zM465.07,682.67h-38.4v-140.8l-42.67,12.8v-29.87l76.8,-25.6h4.27zM610.13,550.4c0,0 -4.26,-8.53 -4.26,-12.8c0,-4.27 -4.27,-4.26 -8.54,-8.53c-4.27,-4.27 -8.53,-4.27 -12.8,-4.27c-4.27,0 -8.53,0 -12.8,4.27l-8.53,8.53c0,0 -4.27,8.53 -4.27,12.8v85.33c0,0 4.27,8.53 4.27,12.8c0,4.27 4.26,4.27 8.53,8.54c4.27,4.27 8.53,4.26 12.8,4.26c4.27,0 8.53,0.01 12.8,-4.26l8.54,-8.54c0,0 4.26,-8.53 4.26,-12.8z"/>
		</clipPath>
		<radialGradient cx="0" cy="0" r="1448.15" id="color-1Tr986CN" gradientUnits="userSpaceOnUse">
			<stop offset="0.07" stop-color="#ffffff"/>
			<stop offset="0.75" stop-color="#000000"/>
		</radialGradient>
		<linearGradient x1="0" y1="1024" x2="1024" y2="0" id="color-r1PjtVf3" gradientUnits="userSpaceOnUse">
			<stop offset="0.2" stop-color="#000000"/>
			<stop offset="0.8" stop-color="#ffffff"/>
		</linearGradient>
		<filter id="filter-bdJaGclx" x="0%" y="0%" width="100%" height="100%" color-interpolation-filters="sRGB">
			<feColorMatrix values="1 0 0 0 0 0 1 0 0 0 0 0 1 0 0 0 0 0 0.05 0" in="SourceGraphic"/>
			<feOffset dy="20"/>
			<feGaussianBlur stdDeviation="11" result="blur0"/>
			<feColorMatrix values="1 0 0 0 0 0 1 0 0 0 0 0 1 0 0 0 0 0 0.07 0" in="SourceGraphic"/>
			<feOffset dy="30"/>
			<feGaussianBlur stdDeviation="20" result="blur1"/>
			<feMerge>
				<feMergeNode in="blur0"/>
				<feMergeNode in="blur1"/>
			</feMerge>
		</filter>
		<filter id="filter-u6EbrIuP" color-interpolation-filters="sRGB">
			<feOffset/>
		</filter>
		<mask id="mask-ODlNLmPR">
			<path d="M853.33,554.67c0,187.73 -153.6,341.33 -341.33,341.33c-187.73,0 -341.33,-153.6 -341.33,-341.33h85.33c0,140.8 115.2,256 256,256c140.8,0 256,-115.2 256,-256c0,-140.8 -115.2,-256 -256,-256v170.66l-213.33,-213.33l213.33,-213.33v170.66c187.73,0 341.33,153.61 341.33,341.34zM648.53,605.87c0,12.8 0.01,25.6 -4.26,34.13l-12.8,25.6c0,0 -12.81,12.8 -21.34,12.8c-8.53,0 -17.07,4.27 -25.6,4.27c-8.53,0 -17.07,0 -25.6,-4.27c-8.53,-4.27 -12.8,-8.53 -21.33,-12.8c-8.53,-4.27 -8.53,-12.8 -12.8,-25.6c-4.27,-12.8 -4.27,-21.33 -4.27,-34.13v-29.87c0,-12.8 0,-25.6 4.27,-34.13l12.8,-25.6c0,0 12.8,-12.8 21.33,-12.8c8.53,0 17.07,-4.27 25.6,-4.27c8.53,0 17.07,0 25.6,4.27c8.53,4.27 12.81,8.53 21.34,12.8c8.53,4.27 8.53,12.8 12.8,25.6c4.27,12.8 4.26,21.33 4.26,34.13zM465.07,682.67h-38.4v-140.8l-42.67,12.8v-29.87l76.8,-25.6h4.27zM610.13,550.4c0,0 -4.26,-8.53 -4.26,-12.8c0,-4.27 -4.27,-4.26 -8.54,-8.53c-4.27,-4.27 -8.53,-4.27 -12.8,-4.27c-4.27,0 -8.53,0 -12.8,4.27l-8.53,8.53c0,0 -4.27,8.53 -4.27,12.8v85.33c0,0 4.27,8.53 4.27,12.8c0,4.27 4.26,4.27 8.53,8.54c4.27,4.27 8.53,4.26 12.8,4.26c4.27,0 8.53,0.01 12.8,-4.26l8.54,-8.54c0,0 4.26,-8.53 4.26,-12.8z" fill="#ffffff"/>
		</mask>
		<mask id="mask-SKGSZYNu">
			<path d="M853.33,554.67c0,187.73 -153.6,341.33 -341.33,341.33c-187.73,0 -341.33,-153.6 -341.33,-341.33h85.33c0,140.8 115.2,256 256,256c140.8,0 256,-115.2 256,-256c0,-140.8 -115.2,-256 -256,-256v170.66l-213.33,-213.33l213.33,-213.33v170.66c187.73,0 341.33,153.61 341.33,341.34zM648.53,605.87c0,12.8 0.01,25.6 -4.26,34.13l-12.8,25.6c0,0 -12.81,12.8 -21.34,12.8c-8.53,0 -17.07,4.27 -25.6,4.27c-8.53,0 -17.07,0 -25.6,-4.27c-8.53,-4.27 -12.8,-8.53 -21.33,-12.8c-8.53,-4.27 -8.53,-12.8 -12.8,-25.6c-4.27,-12.8 -4.27,-21.33 -4.27,-34.13v-29.87c0,-12.8 0,-25.6 4.27,-34.13l12.8,-25.6c0,0 12.8,-12.8 21.33,-12.8c8.53,0 17.07,-4.27 25.6,-4.27c8.53,0 17.07,0 25.6,4.27c8.53,4.27 12.81,8.53 21.34,12.8c8.53,4.27 8.53,12.8 12.8,25.6c4.27,12.8 4.26,21.33 4.26,34.13zM465.07,682.67h-38.4v-140.8l-42.67,12.8v-29.87l76.8,-25.6h4.27zM610.13,550.4c0,0 -4.26,-8.53 -4.26,-12.8c0,-4.27 -4.27,-4.26 -8.54,-8.53c-4.27,-4.27 -8.53,-4.27 -12.8,-4.27c-4.27,0 -8.53,0 -12.8,4.27l-8.53,8.53c0,0 -4.27,8.53 -4.27,12.8v85.33c0,0 4.27,8.53 4.27,12.8c0,4.27 4.26,4.27 8.53,8.54c4.27,4.27 8.53,4.26 12.8,4.26c4.27,0 8.53,0.01 12.8,-4.26l8.54,-8.54c0,0 4.26,-8.53 4.26,-12.8z" fill="url(#color-1Tr986CN)"/>
		</mask>
		<mask id="mask-VeWN7uFJ">
			<rect fill="url(#color-r1PjtVf3)" x="170.67" y="42.67" width="682.66" height="853.33"/>
		</mask>
	</defs>
	<g fill="none" fill-rule="nonzero" style="mix-blend-mode: normal">
		<g mask="url(#mask-ODlNLmPR)">
			<g color="#ffc107" class="teamapps-color-2">
				<rect x="170.67" y="42.67" width="682.66" height="853.33" fill="currentColor"/>
			</g>
			<g color="#e65100" class="teamapps-color-3" mask="url(#mask-VeWN7uFJ)">
				<rect x="170.67" y="42.67" width="682.66" height="853.33" fill="currentColor"/>
			</g>
		</g>
		<g filter="url(#filter-u6EbrIuP)" mask="url(#mask-SKGSZYNu)">
			<g color="#fff59d" class="teamapps-color-1">
				<rect x="170.67" y="42.67" width="682.66" height="853.33" fill="currentColor"/>
			</g>
		</g>
		<g clip-path="url(#clip-qRUO8RrO)">
			<path d="M77.67,939v-1039.33h868.66v1039.33zM512,213.33v-170.66l-213.33,213.33l213.33,213.33v-170.66c140.8,0 256,115.2 256,256c0,140.8 -115.2,256 -256,256c-140.8,0 -256,-115.2 -256,-256h-85.33c0,187.73 153.6,341.33 341.33,341.33c187.73,0 341.33,-153.6 341.33,-341.33c0,-187.73 -153.6,-341.34 -341.33,-341.34zM648.53,576c0,-12.8 0.01,-21.33 -4.26,-34.13c-4.27,-12.8 -4.27,-21.33 -12.8,-25.6c-8.53,-4.27 -12.81,-8.53 -21.34,-12.8c-8.53,-4.27 -17.07,-4.27 -25.6,-4.27c-8.53,0 -17.07,4.27 -25.6,4.27c-8.53,0 -21.33,12.8 -21.33,12.8l-12.8,25.6c-4.27,8.53 -4.27,21.33 -4.27,34.13v29.87c0,12.8 0,21.33 4.27,34.13c4.27,12.8 4.27,21.33 12.8,25.6c8.53,4.27 12.8,8.53 21.33,12.8c8.53,4.27 17.07,4.27 25.6,4.27c8.53,0 17.07,-4.27 25.6,-4.27c8.53,0 21.34,-12.8 21.34,-12.8l12.8,-25.6c4.27,-8.53 4.26,-21.33 4.26,-34.13zM465.07,499.2h-4.27l-76.8,25.6v29.87l42.67,-12.8v140.8h38.4zM610.13,635.73c0,4.27 -4.26,12.8 -4.26,12.8l-8.54,8.54c-4.27,4.27 -8.53,4.26 -12.8,4.26c-4.27,0 -8.53,0.01 -12.8,-4.26c-4.27,-4.27 -8.53,-4.27 -8.53,-8.54c0,-4.27 -4.27,-12.8 -4.27,-12.8v-85.33c0,-4.27 4.27,-12.8 4.27,-12.8l8.53,-8.53c4.27,-4.27 8.53,-4.27 12.8,-4.27c4.27,0 8.53,0 12.8,4.27c4.27,4.27 8.54,4.26 8.54,8.53c0,4.27 4.26,12.8 4.26,12.8z" fill="#000000" filter="url(#filter-bdJaGclx)"/>
		</g>
	</g>
</svg>