<svg version="1.1" xmlns="http://www.w3.org/2000/svg" xmlns:xlink="http://www.w3.org/1999/xlink" viewBox="0,0,1024,1024">
	<!-- Color names: teamapps-color-1, teamapps-color-2, teamapps-color-3 -->
	<desc>screen_lock_landscape icon - Licensed under Apache License v2.0 (http://www.apache.org/licenses/LICENSE-2.0) - Created with Iconfu.com - Derivative work of Material icons (Copyright Google Inc.)</desc>
	<defs>
		<clipPath id="clip-6OnICvLY">
			<path d="M981.33,298.67v426.66c0,46.93 -38.4,85.34 -85.33,85.34h-768c-46.93,0 -85.33,-38.41 -85.33,-85.34v-426.66c0,-46.93 38.4,-85.34 85.33,-85.34h768c46.93,0 85.33,38.41 85.33,85.34zM810.67,298.67h-597.34v426.66h597.34zM384,640v-128c0,-23.47 19.2,-42.67 42.67,-42.67v-42.66c0,-46.93 37.97,-85.34 85.33,-85.34c46.93,0 85.33,37.98 85.33,85.34v42.66c23.47,0 42.67,19.2 42.67,42.67v128c0,23.47 -19.2,42.67 -42.67,42.67h-170.66c-23.47,0 -42.67,-19.2 -42.67,-42.67zM460.8,469.33h102.4v-42.66c0,-28.16 -23.04,-51.2 -51.2,-51.2c-28.16,0 -51.2,23.04 -51.2,51.2z"/>
		</clipPath>
		<radialGradient cx="0" cy="0" r="1448.15" id="color-jfBCSzuH" gradientUnits="userSpaceOnUse">
			<stop offset="0.07" stop-color="#ffffff"/>
			<stop offset="0.75" stop-color="#000000"/>
		</radialGradient>
		<linearGradient x1="0" y1="1024" x2="1024" y2="0" id="color-taLyj5Kv" gradientUnits="userSpaceOnUse">
			<stop offset="0.2" stop-color="#000000"/>
			<stop offset="0.8" stop-color="#ffffff"/>
		</linearGradient>
		<filter id="filter-MbDuAad7" x="0%" y="0%" width="100%" height="100%" color-interpolation-filters="sRGB">
			<feColorMatrix values="1 0 0 0 0 0 1 0 0 0 0 0 1 0 0 0 0 0 0.05 0" in="SourceGraphic"/>
			<feOffset dy="20"/>
			<feGaussianBlur stdDeviation="11" result="blur0"/>
			<feColorMatrix values="1 0 0 0 0 0 1 0 0 0 0 0 1 0 0 0 0 0 0.07 0" in="SourceGraphic"/>
			<feOffset dy="30"/>
			<feGaussianBlur stdDeviation="20" result="blur1"/>
			<feMerge>
				<feMergeNode in="blur0"/>
				<feMergeNode in="blur1"/>
			</feMerge>
		</filter>
		<filter id="filter-YNDEHbac" color-interpolation-filters="sRGB">
			<feOffset/>
		</filter>
		<mask id="mask-3qyarg90">
			<path d="M981.33,298.67v426.66c0,46.93 -38.4,85.34 -85.33,85.34h-768c-46.93,0 -85.33,-38.41 -85.33,-85.34v-426.66c0,-46.93 38.4,-85.34 85.33,-85.34h768c46.93,0 85.33,38.41 85.33,85.34zM810.67,298.67h-597.34v426.66h597.34zM384,640v-128c0,-23.47 19.2,-42.67 42.67,-42.67v-42.66c0,-46.93 37.97,-85.34 85.33,-85.34c46.93,0 85.33,37.98 85.33,85.34v42.66c23.47,0 42.67,19.2 42.67,42.67v128c0,23.47 -19.2,42.67 -42.67,42.67h-170.66c-23.47,0 -42.67,-19.2 -42.67,-42.67zM460.8,469.33h102.4v-42.66c0,-28.16 -23.04,-51.2 -51.2,-51.2c-28.16,0 -51.2,23.04 -51.2,51.2z" fill="#ffffff"/>
		</mask>
		<mask id="mask-y8Alv6S3">
			<rect fill="url(#color-taLyj5Kv)" x="42.67" y="213.33" width="938.66" height="597.34"/>
		</mask>
		<mask id="mask-ZJjCLe8P">
			<path d="M981.33,298.67v426.66c0,46.93 -38.4,85.34 -85.33,85.34h-768c-46.93,0 -85.33,-38.41 -85.33,-85.34v-426.66c0,-46.93 38.4,-85.34 85.33,-85.34h768c46.93,0 85.33,38.41 85.33,85.34zM810.67,298.67h-597.34v426.66h597.34zM384,640v-128c0,-23.47 19.2,-42.67 42.67,-42.67v-42.66c0,-46.93 37.97,-85.34 85.33,-85.34c46.93,0 85.33,37.98 85.33,85.34v42.66c23.47,0 42.67,19.2 42.67,42.67v128c0,23.47 -19.2,42.67 -42.67,42.67h-170.66c-23.47,0 -42.67,-19.2 -42.67,-42.67zM460.8,469.33h102.4v-42.66c0,-28.16 -23.04,-51.2 -51.2,-51.2c-28.16,0 -51.2,23.04 -51.2,51.2z" fill="url(#color-jfBCSzuH)"/>
		</mask>
	</defs>
	<g fill="none" fill-rule="nonzero" style="mix-blend-mode: normal">
		<g mask="url(#mask-3qyarg90)">
			<g color="#ffc107" class="teamapps-color-2">
				<rect x="42.67" y="213.33" width="938.66" height="597.34" fill="currentColor"/>
			</g>
			<g color="#e65100" class="teamapps-color-3" mask="url(#mask-y8Alv6S3)">
				<rect x="42.67" y="213.33" width="938.66" height="597.34" fill="currentColor"/>
			</g>
		</g>
		<g filter="url(#filter-YNDEHbac)" mask="url(#mask-ZJjCLe8P)">
			<g color="#fff59d" class="teamapps-color-1">
				<rect x="42.67" y="213.33" width="938.66" height="597.34" fill="currentColor"/>
			</g>
		</g>
		<g clip-path="url(#clip-6OnICvLY)">
			<path d="M-50.33,853.67v-783.34h1124.66v783.34zM896,213.33h-768c-46.93,0 -85.33,38.41 -85.33,85.34v426.66c0,46.93 38.4,85.34 85.33,85.34h768c46.93,0 85.33,-38.41 85.33,-85.34v-426.66c0,-46.93 -38.4,-85.34 -85.33,-85.34zM810.67,725.33h-597.34v-426.66h597.34zM426.67,682.67h170.66c23.47,0 42.67,-19.2 42.67,-42.67v-128c0,-23.47 -19.2,-42.67 -42.67,-42.67v-42.66c0,-47.36 -38.4,-85.34 -85.33,-85.34c-47.36,0 -85.33,38.41 -85.33,85.34v42.66c-23.47,0 -42.67,19.2 -42.67,42.67v128c0,23.47 19.2,42.67 42.67,42.67zM460.8,426.67c0,-28.16 23.04,-51.2 51.2,-51.2c28.16,0 51.2,23.04 51.2,51.2v42.66h-102.4z" fill="#000000" filter="url(#filter-MbDuAad7)"/>
		</g>
	</g>
</svg>