<svg version="1.1" xmlns="http://www.w3.org/2000/svg" xmlns:xlink="http://www.w3.org/1999/xlink" viewBox="0,0,1024,1024">
	<!-- Color names: teamapps-color-1, teamapps-color-2, teamapps-color-3 -->
	<desc>settings icon - Licensed under Apache License v2.0 (http://www.apache.org/licenses/LICENSE-2.0) - Created with Iconfu.com - Derivative work of Material icons (Copyright Google Inc.)</desc>
	<defs>
		<clipPath id="clip-y8hK7B0H">
			<path d="M919.04,624.21c8.11,6.4 10.24,17.92 5.12,27.31l-85.33,147.63c-5.12,9.39 -16.22,13.22 -26.03,9.38l-106.24,-42.66c-22.19,16.64 -46.08,31.14 -72.11,41.81l-16.21,113.07c-1.28,10.24 -10.24,17.92 -20.91,17.92h-170.66c-10.67,0 -19.63,-7.68 -20.91,-17.92l-16.21,-113.07c-26.03,-10.67 -49.92,-24.74 -72.11,-41.81l-106.24,42.66c-9.39,3.41 -20.91,0.01 -26.03,-9.38l-85.33,-147.63c-5.12,-9.39 -2.99,-20.91 5.12,-27.31l90.03,-70.4c-1.71,-13.65 -2.99,-27.73 -2.99,-41.81c0,-14.08 1.28,-28.16 2.99,-41.81l-90.03,-70.4c-8.11,-6.4 -10.67,-17.92 -5.12,-27.31l85.33,-147.63c5.12,-9.39 16.22,-13.22 26.03,-9.38l106.24,42.66c22.19,-16.64 46.08,-31.14 72.11,-41.81l16.21,-113.07c1.28,-10.24 10.24,-17.92 20.91,-17.92h170.66c10.67,0 19.63,7.68 20.91,17.92l16.21,113.07c26.03,10.67 49.92,24.74 72.11,41.81l106.24,-42.66c9.39,-3.41 20.91,-0.01 26.03,9.38l85.33,147.63c5.12,9.39 2.99,20.91 -5.12,27.31l-90.03,70.4c1.71,13.65 2.99,27.3 2.99,41.81c0,14.51 -1.28,28.16 -2.99,41.81zM661.33,512c0,-82.35 -66.98,-149.33 -149.33,-149.33c-82.35,0 -149.33,66.98 -149.33,149.33c0,82.35 66.98,149.33 149.33,149.33c82.35,0 149.33,-66.98 149.33,-149.33z"/>
		</clipPath>
		<radialGradient cx="0" cy="0" r="1448.15" id="color-d73ogBSt" gradientUnits="userSpaceOnUse">
			<stop offset="0.07" stop-color="#ffffff"/>
			<stop offset="0.75" stop-color="#000000"/>
		</radialGradient>
		<linearGradient x1="0" y1="1024" x2="1024" y2="0" id="color-XhYeUGGC" gradientUnits="userSpaceOnUse">
			<stop offset="0.2" stop-color="#000000"/>
			<stop offset="0.8" stop-color="#ffffff"/>
		</linearGradient>
		<filter id="filter-EgAeOOZv" x="0%" y="0%" width="100%" height="100%" color-interpolation-filters="sRGB">
			<feColorMatrix values="1 0 0 0 0 0 1 0 0 0 0 0 1 0 0 0 0 0 0.05 0" in="SourceGraphic"/>
			<feOffset dy="20"/>
			<feGaussianBlur stdDeviation="11" result="blur0"/>
			<feColorMatrix values="1 0 0 0 0 0 1 0 0 0 0 0 1 0 0 0 0 0 0.07 0" in="SourceGraphic"/>
			<feOffset dy="30"/>
			<feGaussianBlur stdDeviation="20" result="blur1"/>
			<feMerge>
				<feMergeNode in="blur0"/>
				<feMergeNode in="blur1"/>
			</feMerge>
		</filter>
		<filter id="filter-NStm0jWg" color-interpolation-filters="sRGB">
			<feOffset/>
		</filter>
		<mask id="mask-7WjyZUXn">
			<rect fill="url(#color-XhYeUGGC)" x="96.88" y="85.33" width="830.05" height="853.34"/>
		</mask>
		<mask id="mask-a8GKNqi3">
			<path d="M919.04,624.21c8.11,6.4 10.24,17.92 5.12,27.31l-85.33,147.63c-5.12,9.39 -16.22,13.22 -26.03,9.38l-106.24,-42.66c-22.19,16.64 -46.08,31.14 -72.11,41.81l-16.21,113.07c-1.28,10.24 -10.24,17.92 -20.91,17.92h-170.66c-10.67,0 -19.63,-7.68 -20.91,-17.92l-16.21,-113.07c-26.03,-10.67 -49.92,-24.74 -72.11,-41.81l-106.24,42.66c-9.39,3.41 -20.91,0.01 -26.03,-9.38l-85.33,-147.63c-5.12,-9.39 -2.99,-20.91 5.12,-27.31l90.03,-70.4c-1.71,-13.65 -2.99,-27.73 -2.99,-41.81c0,-14.08 1.28,-28.16 2.99,-41.81l-90.03,-70.4c-8.11,-6.4 -10.67,-17.92 -5.12,-27.31l85.33,-147.63c5.12,-9.39 16.22,-13.22 26.03,-9.38l106.24,42.66c22.19,-16.64 46.08,-31.14 72.11,-41.81l16.21,-113.07c1.28,-10.24 10.24,-17.92 20.91,-17.92h170.66c10.67,0 19.63,7.68 20.91,17.92l16.21,113.07c26.03,10.67 49.92,24.74 72.11,41.81l106.24,-42.66c9.39,-3.41 20.91,-0.01 26.03,9.38l85.33,147.63c5.12,9.39 2.99,20.91 -5.12,27.31l-90.03,70.4c1.71,13.65 2.99,27.3 2.99,41.81c0,14.51 -1.28,28.16 -2.99,41.81zM661.33,512c0,-82.35 -66.98,-149.33 -149.33,-149.33c-82.35,0 -149.33,66.98 -149.33,149.33c0,82.35 66.98,149.33 149.33,149.33c82.35,0 149.33,-66.98 149.33,-149.33z" fill="#ffffff"/>
		</mask>
		<mask id="mask-JjigOsxj">
			<path d="M919.04,624.21c8.11,6.4 10.24,17.92 5.12,27.31l-85.33,147.63c-5.12,9.39 -16.22,13.22 -26.03,9.38l-106.24,-42.66c-22.19,16.64 -46.08,31.14 -72.11,41.81l-16.21,113.07c-1.28,10.24 -10.24,17.92 -20.91,17.92h-170.66c-10.67,0 -19.63,-7.68 -20.91,-17.92l-16.21,-113.07c-26.03,-10.67 -49.92,-24.74 -72.11,-41.81l-106.24,42.66c-9.39,3.41 -20.91,0.01 -26.03,-9.38l-85.33,-147.63c-5.12,-9.39 -2.99,-20.91 5.12,-27.31l90.03,-70.4c-1.71,-13.65 -2.99,-27.73 -2.99,-41.81c0,-14.08 1.28,-28.16 2.99,-41.81l-90.03,-70.4c-8.11,-6.4 -10.67,-17.92 -5.12,-27.31l85.33,-147.63c5.12,-9.39 16.22,-13.22 26.03,-9.38l106.24,42.66c22.19,-16.64 46.08,-31.14 72.11,-41.81l16.21,-113.07c1.28,-10.24 10.24,-17.92 20.91,-17.92h170.66c10.67,0 19.63,7.68 20.91,17.92l16.21,113.07c26.03,10.67 49.92,24.74 72.11,41.81l106.24,-42.66c9.39,-3.41 20.91,-0.01 26.03,9.38l85.33,147.63c5.12,9.39 2.99,20.91 -5.12,27.31l-90.03,70.4c1.71,13.65 2.99,27.3 2.99,41.81c0,14.51 -1.28,28.16 -2.99,41.81zM661.33,512c0,-82.35 -66.98,-149.33 -149.33,-149.33c-82.35,0 -149.33,66.98 -149.33,149.33c0,82.35 66.98,149.33 149.33,149.33c82.35,0 149.33,-66.98 149.33,-149.33z" fill="url(#color-d73ogBSt)"/>
		</mask>
	</defs>
	<g fill="none" fill-rule="nonzero" style="mix-blend-mode: normal">
		<g mask="url(#mask-a8GKNqi3)">
			<g color="#ffc107" class="teamapps-color-2">
				<rect x="96.88" y="85.33" width="830.05" height="853.34" fill="currentColor"/>
			</g>
			<g color="#e65100" class="teamapps-color-3" mask="url(#mask-7WjyZUXn)">
				<rect x="96.88" y="85.33" width="830.05" height="853.34" fill="currentColor"/>
			</g>
		</g>
		<g filter="url(#filter-NStm0jWg)" mask="url(#mask-JjigOsxj)">
			<g color="#fff59d" class="teamapps-color-1">
				<rect x="96.88" y="85.33" width="830.05" height="853.34" fill="currentColor"/>
			</g>
		</g>
		<g clip-path="url(#clip-y8hK7B0H)">
			<path d="M3.88,981.67v-1039.34h1016.05v1039.34zM829.01,553.81c1.71,-13.65 2.99,-27.3 2.99,-41.81c0,-14.51 -1.28,-28.16 -2.99,-41.81l90.03,-70.4c8.11,-6.4 10.24,-17.92 5.12,-27.31l-85.33,-147.63c-5.12,-9.39 -16.64,-12.79 -26.03,-9.38l-106.24,42.66c-22.19,-17.07 -46.08,-31.14 -72.11,-41.81l-16.21,-113.07c-1.28,-10.24 -10.24,-17.92 -20.91,-17.92h-170.66c-10.67,0 -19.63,7.68 -20.91,17.92l-16.21,113.07c-26.03,10.67 -49.92,25.17 -72.11,41.81l-106.24,-42.66c-9.81,-3.84 -20.91,-0.01 -26.03,9.38l-85.33,147.63c-5.55,9.39 -2.99,20.91 5.12,27.31l90.03,70.4c-1.71,13.65 -2.99,27.73 -2.99,41.81c0,14.08 1.28,28.16 2.99,41.81l-90.03,70.4c-8.11,6.4 -10.24,17.92 -5.12,27.31l85.33,147.63c5.12,9.39 16.64,12.79 26.03,9.38l106.24,-42.66c22.19,17.07 46.08,31.14 72.11,41.81l16.21,113.07c1.28,10.24 10.24,17.92 20.91,17.92h170.66c10.67,0 19.63,-7.68 20.91,-17.92l16.21,-113.07c26.03,-10.67 49.92,-25.17 72.11,-41.81l106.24,42.66c9.81,3.84 20.91,0.01 26.03,-9.38l85.33,-147.63c5.12,-9.39 2.99,-20.91 -5.12,-27.31zM512,661.33c-82.35,0 -149.33,-66.98 -149.33,-149.33c0,-82.35 66.98,-149.33 149.33,-149.33c82.35,0 149.33,66.98 149.33,149.33c0,82.35 -66.98,149.33 -149.33,149.33z" fill="#000000" filter="url(#filter-EgAeOOZv)"/>
		</g>
	</g>
</svg>