<svg version="1.1" xmlns="http://www.w3.org/2000/svg" xmlns:xlink="http://www.w3.org/1999/xlink" viewBox="0,0,1024,1024">
	<!-- Color names: teamapps-color-1, teamapps-color-2, teamapps-color-3 -->
	<desc>settings_ethernet icon - Licensed under Apache License v2.0 (http://www.apache.org/licenses/LICENSE-2.0) - Created with Iconfu.com - Derivative work of Material icons (Copyright Google Inc.)</desc>
	<defs>
		<clipPath id="clip-Z6iZWde2">
			<path d="M989.01,512l-230.82,278.19l-65.71,-54.62l185.6,-223.57l-185.6,-223.57l65.71,-54.62zM145.92,512l185.6,223.57l-65.71,54.62l-230.82,-278.19l230.82,-278.19l65.71,54.62zM298.67,469.33h85.33v85.34h-85.33zM469.33,469.33h85.34v85.34h-85.34zM725.33,554.67h-85.33v-85.34h85.33z"/>
		</clipPath>
		<radialGradient cx="0" cy="0" r="1448.15" id="color-42WyVQ7w" gradientUnits="userSpaceOnUse">
			<stop offset="0.07" stop-color="#ffffff"/>
			<stop offset="0.75" stop-color="#000000"/>
		</radialGradient>
		<linearGradient x1="0" y1="1024" x2="1024" y2="0" id="color-wgaji6m0" gradientUnits="userSpaceOnUse">
			<stop offset="0.2" stop-color="#000000"/>
			<stop offset="0.8" stop-color="#ffffff"/>
		</linearGradient>
		<filter id="filter-1O356vis" x="0%" y="0%" width="100%" height="100%" color-interpolation-filters="sRGB">
			<feColorMatrix values="1 0 0 0 0 0 1 0 0 0 0 0 1 0 0 0 0 0 0.05 0" in="SourceGraphic"/>
			<feOffset dy="20"/>
			<feGaussianBlur stdDeviation="11" result="blur0"/>
			<feColorMatrix values="1 0 0 0 0 0 1 0 0 0 0 0 1 0 0 0 0 0 0.07 0" in="SourceGraphic"/>
			<feOffset dy="30"/>
			<feGaussianBlur stdDeviation="20" result="blur1"/>
			<feMerge>
				<feMergeNode in="blur0"/>
				<feMergeNode in="blur1"/>
			</feMerge>
		</filter>
		<filter id="filter-yGm53hQQ" color-interpolation-filters="sRGB">
			<feOffset/>
		</filter>
		<mask id="mask-Czlfdpot">
			<rect fill="url(#color-wgaji6m0)" x="34.99" y="233.81" width="954.02" height="556.38"/>
		</mask>
		<mask id="mask-V84MgS0z">
			<path d="M989.01,512l-230.82,278.19l-65.71,-54.62l185.6,-223.57l-185.6,-223.57l65.71,-54.62zM145.92,512l185.6,223.57l-65.71,54.62l-230.82,-278.19l230.82,-278.19l65.71,54.62zM298.67,469.33h85.33v85.34h-85.33zM469.33,469.33h85.34v85.34h-85.34zM725.33,554.67h-85.33v-85.34h85.33z" fill="#ffffff"/>
		</mask>
		<mask id="mask-xuiYOtfC">
			<path d="M989.01,512l-230.82,278.19l-65.71,-54.62l185.6,-223.57l-185.6,-223.57l65.71,-54.62zM145.92,512l185.6,223.57l-65.71,54.62l-230.82,-278.19l230.82,-278.19l65.71,54.62zM298.67,469.33h85.33v85.34h-85.33zM469.33,469.33h85.34v85.34h-85.34zM725.33,554.67h-85.33v-85.34h85.33z" fill="url(#color-42WyVQ7w)"/>
		</mask>
	</defs>
	<g fill="none" fill-rule="nonzero" style="mix-blend-mode: normal">
		<g mask="url(#mask-V84MgS0z)">
			<g color="#ffc107" class="teamapps-color-2">
				<rect x="34.99" y="233.81" width="954.02" height="556.38" fill="currentColor"/>
			</g>
			<g color="#e65100" class="teamapps-color-3" mask="url(#mask-Czlfdpot)">
				<rect x="34.99" y="233.81" width="954.02" height="556.38" fill="currentColor"/>
			</g>
		</g>
		<g filter="url(#filter-yGm53hQQ)" mask="url(#mask-xuiYOtfC)">
			<g color="#fff59d" class="teamapps-color-1">
				<rect x="34.99" y="233.81" width="954.02" height="556.38" fill="currentColor"/>
			</g>
		</g>
		<g clip-path="url(#clip-Z6iZWde2)">
			<path d="M-58.01,833.19v-742.38h1140.02v742.38zM758.19,233.81l-65.71,54.62l185.6,223.57l-185.6,223.57l65.71,54.62l230.82,-278.19zM331.52,288.43l-65.71,-54.62l-230.82,278.19l230.82,278.19l65.71,-54.62l-185.6,-223.57zM298.67,554.67h85.33v-85.34h-85.33zM469.33,554.67h85.34v-85.34h-85.34zM725.33,469.33h-85.33v85.34h85.33z" fill="#000000" filter="url(#filter-1O356vis)"/>
		</g>
	</g>
</svg>