<svg version="1.1" xmlns="http://www.w3.org/2000/svg" xmlns:xlink="http://www.w3.org/1999/xlink" viewBox="0,0,1024,1024">
	<!-- Color names: teamapps-color-1, teamapps-color-2, teamapps-color-3 -->
	<desc>show_chart icon - Licensed under Apache License v2.0 (http://www.apache.org/licenses/LICENSE-2.0) - Created with Iconfu.com - Derivative work of Material icons (Copyright Google Inc.)</desc>
	<defs>
		<clipPath id="clip-6gsr2zGj">
			<path d="M85.33,724.91l320,-320.43l170.67,170.67l302.51,-340.06l60.16,60.16l-362.67,407.9l-170.67,-170.67l-256,256.43z"/>
		</clipPath>
		<linearGradient x1="0" y1="1024" x2="1024" y2="0" id="color-6UZV9sLR" gradientUnits="userSpaceOnUse">
			<stop offset="0.2" stop-color="#000000"/>
			<stop offset="0.8" stop-color="#ffffff"/>
		</linearGradient>
		<radialGradient cx="0" cy="0" r="1448.15" id="color-uTsZoBBf" gradientUnits="userSpaceOnUse">
			<stop offset="0.07" stop-color="#ffffff"/>
			<stop offset="0.75" stop-color="#000000"/>
		</radialGradient>
		<filter id="filter-JuWXtsot" color-interpolation-filters="sRGB">
			<feOffset/>
		</filter>
		<filter id="filter-MCYmSA5j" x="0%" y="0%" width="100%" height="100%" color-interpolation-filters="sRGB">
			<feColorMatrix values="1 0 0 0 0 0 1 0 0 0 0 0 1 0 0 0 0 0 0.05 0" in="SourceGraphic"/>
			<feOffset dy="20"/>
			<feGaussianBlur stdDeviation="11" result="blur0"/>
			<feColorMatrix values="1 0 0 0 0 0 1 0 0 0 0 0 1 0 0 0 0 0 0.07 0" in="SourceGraphic"/>
			<feOffset dy="30"/>
			<feGaussianBlur stdDeviation="20" result="blur1"/>
			<feMerge>
				<feMergeNode in="blur0"/>
				<feMergeNode in="blur1"/>
			</feMerge>
		</filter>
		<mask id="mask-bQwsPAv9">
			<path d="M85.33,724.91l320,-320.43l170.67,170.67l302.51,-340.06l60.16,60.16l-362.67,407.9l-170.67,-170.67l-256,256.43z" fill="url(#color-uTsZoBBf)"/>
		</mask>
		<mask id="mask-c4uhAu2T">
			<rect fill="url(#color-6UZV9sLR)" x="85.33" y="235.09" width="853.34" height="553.82"/>
		</mask>
		<mask id="mask-zdUI1O86">
			<path d="M85.33,724.91l320,-320.43l170.67,170.67l302.51,-340.06l60.16,60.16l-362.67,407.9l-170.67,-170.67l-256,256.43z" fill="#ffffff"/>
		</mask>
	</defs>
	<g fill="none" fill-rule="nonzero" style="mix-blend-mode: normal">
		<g mask="url(#mask-zdUI1O86)">
			<g color="#ffc107" class="teamapps-color-2">
				<rect x="85.33" y="235.09" width="853.34" height="553.82" fill="currentColor"/>
			</g>
			<g color="#e65100" class="teamapps-color-3" mask="url(#mask-c4uhAu2T)">
				<rect x="85.33" y="235.09" width="853.34" height="553.82" fill="currentColor"/>
			</g>
		</g>
		<g filter="url(#filter-JuWXtsot)" mask="url(#mask-bQwsPAv9)">
			<g color="#fff59d" class="teamapps-color-1">
				<rect x="85.33" y="235.09" width="853.34" height="553.82" fill="currentColor"/>
			</g>
		</g>
		<g clip-path="url(#clip-6gsr2zGj)">
			<path d="M-7.67,831.91v-739.82h1039.34v739.82zM149.33,788.91l256,-256.43l170.67,170.67l362.67,-407.9l-60.16,-60.16l-302.51,340.06l-170.67,-170.67l-320,320.43z" fill="#000000" filter="url(#filter-MCYmSA5j)"/>
		</g>
	</g>
</svg>