<svg version="1.1" xmlns="http://www.w3.org/2000/svg" xmlns:xlink="http://www.w3.org/1999/xlink" viewBox="0,0,1024,1024">
	<!-- Color names: teamapps-color-1, teamapps-color-2, teamapps-color-3 -->
	<desc>sim_card icon - Licensed under Apache License v2.0 (http://www.apache.org/licenses/LICENSE-2.0) - Created with Iconfu.com - Derivative work of Material icons (Copyright Google Inc.)</desc>
	<defs>
		<clipPath id="clip-nppKYo8R">
			<path d="M853.33,853.33c0,46.93 -37.97,85.34 -84.9,85.34h-512.43c-46.93,0 -85.33,-38.41 -85.33,-85.34v-512l256,-256h341.33c46.93,0 84.91,38.41 84.91,85.34zM384,469.33h-85.33v170.67h85.33zM554.67,640h-85.34v170.67h85.34zM725.33,469.33h-85.33v170.67h85.33zM384,725.33h-85.33v85.34h85.33zM725.33,725.33h-85.33v85.34h85.33zM554.67,469.33h-85.34v85.34h85.34z"/>
		</clipPath>
		<linearGradient x1="0" y1="1024" x2="1024" y2="0" id="color-6RJKl6yM" gradientUnits="userSpaceOnUse">
			<stop offset="0.2" stop-color="#000000"/>
			<stop offset="0.8" stop-color="#ffffff"/>
		</linearGradient>
		<radialGradient cx="0" cy="0" r="1448.15" id="color-d6AH6kmx" gradientUnits="userSpaceOnUse">
			<stop offset="0.07" stop-color="#ffffff"/>
			<stop offset="0.75" stop-color="#000000"/>
		</radialGradient>
		<filter id="filter-MYutDmXY" x="0%" y="0%" width="100%" height="100%" color-interpolation-filters="sRGB">
			<feColorMatrix values="1 0 0 0 0 0 1 0 0 0 0 0 1 0 0 0 0 0 0.05 0" in="SourceGraphic"/>
			<feOffset dy="20"/>
			<feGaussianBlur stdDeviation="11" result="blur0"/>
			<feColorMatrix values="1 0 0 0 0 0 1 0 0 0 0 0 1 0 0 0 0 0 0.07 0" in="SourceGraphic"/>
			<feOffset dy="30"/>
			<feGaussianBlur stdDeviation="20" result="blur1"/>
			<feMerge>
				<feMergeNode in="blur0"/>
				<feMergeNode in="blur1"/>
			</feMerge>
		</filter>
		<filter id="filter-snUn8gwr" color-interpolation-filters="sRGB">
			<feOffset/>
		</filter>
		<mask id="mask-0K7Lis5n">
			<path d="M853.33,853.33c0,46.93 -37.97,85.34 -84.9,85.34h-512.43c-46.93,0 -85.33,-38.41 -85.33,-85.34v-512l256,-256h341.33c46.93,0 84.91,38.41 84.91,85.34zM384,469.33h-85.33v170.67h85.33zM554.67,640h-85.34v170.67h85.34zM725.33,469.33h-85.33v170.67h85.33zM384,725.33h-85.33v85.34h85.33zM725.33,725.33h-85.33v85.34h85.33zM554.67,469.33h-85.34v85.34h85.34z" fill="#ffffff"/>
		</mask>
		<mask id="mask-lDcYpHnu">
			<path d="M853.33,853.33c0,46.93 -37.97,85.34 -84.9,85.34h-512.43c-46.93,0 -85.33,-38.41 -85.33,-85.34v-512l256,-256h341.33c46.93,0 84.91,38.41 84.91,85.34zM384,469.33h-85.33v170.67h85.33zM554.67,640h-85.34v170.67h85.34zM725.33,469.33h-85.33v170.67h85.33zM384,725.33h-85.33v85.34h85.33zM725.33,725.33h-85.33v85.34h85.33zM554.67,469.33h-85.34v85.34h85.34z" fill="url(#color-d6AH6kmx)"/>
		</mask>
		<mask id="mask-YMkQ4n14">
			<rect fill="url(#color-6RJKl6yM)" x="170.67" y="85.33" width="682.66" height="853.34"/>
		</mask>
	</defs>
	<g fill="none" fill-rule="nonzero" style="mix-blend-mode: normal">
		<g mask="url(#mask-0K7Lis5n)">
			<g color="#ffc107" class="teamapps-color-2">
				<rect x="170.67" y="85.33" width="682.66" height="853.34" fill="currentColor"/>
			</g>
			<g color="#e65100" class="teamapps-color-3" mask="url(#mask-YMkQ4n14)">
				<rect x="170.67" y="85.33" width="682.66" height="853.34" fill="currentColor"/>
			</g>
		</g>
		<g filter="url(#filter-snUn8gwr)" mask="url(#mask-lDcYpHnu)">
			<g color="#fff59d" class="teamapps-color-1">
				<rect x="170.67" y="85.33" width="682.66" height="853.34" fill="currentColor"/>
			</g>
		</g>
		<g clip-path="url(#clip-nppKYo8R)">
			<path d="M77.67,981.67v-1039.34h868.66v1039.34zM852.91,170.67c0,-46.93 -37.98,-85.34 -84.91,-85.34h-341.33l-256,256v512c0,46.93 38.4,85.34 85.33,85.34h512.43c46.93,0 84.9,-38.41 84.9,-85.34zM384,640h-85.33v-170.67h85.33zM554.67,810.67h-85.34v-170.67h85.34zM725.33,640h-85.33v-170.67h85.33zM384,810.67h-85.33v-85.34h85.33zM725.33,810.67h-85.33v-85.34h85.33zM554.67,554.67h-85.34v-85.34h85.34z" fill="#000000" filter="url(#filter-MYutDmXY)"/>
		</g>
	</g>
</svg>