<svg version="1.1" xmlns="http://www.w3.org/2000/svg" xmlns:xlink="http://www.w3.org/1999/xlink" viewBox="0,0,1024,1024">
	<!-- Color names: teamapps-color-1, teamapps-color-2, teamapps-color-3 -->
	<desc>straighten icon - Licensed under Apache License v2.0 (http://www.apache.org/licenses/LICENSE-2.0) - Created with Iconfu.com - Derivative work of Material icons (Copyright Google Inc.)</desc>
	<defs>
		<clipPath id="clip-VTTc9Y7O">
			<path d="M981.33,341.33v341.34c0,46.93 -38.4,85.33 -85.33,85.33h-768c-46.93,0 -85.33,-38.4 -85.33,-85.33v-341.34c0,-46.93 38.4,-85.33 85.33,-85.33h768c46.93,0 85.33,38.4 85.33,85.33zM896,341.33h-85.33v170.67h-85.34v-170.67h-85.33v170.67h-85.33v-170.67h-85.34v170.67h-85.33v-170.67h-85.33v170.67h-85.34v-170.67h-85.33v341.34h768z"/>
		</clipPath>
		<linearGradient x1="0" y1="1024" x2="1024" y2="0" id="color-CkMbhHBL" gradientUnits="userSpaceOnUse">
			<stop offset="0.2" stop-color="#000000"/>
			<stop offset="0.8" stop-color="#ffffff"/>
		</linearGradient>
		<radialGradient cx="0" cy="0" r="1448.15" id="color-pRlR4Zop" gradientUnits="userSpaceOnUse">
			<stop offset="0.07" stop-color="#ffffff"/>
			<stop offset="0.75" stop-color="#000000"/>
		</radialGradient>
		<filter id="filter-GDcKOKKJ" color-interpolation-filters="sRGB">
			<feOffset/>
		</filter>
		<filter id="filter-Y1ocP3AM" x="0%" y="0%" width="100%" height="100%" color-interpolation-filters="sRGB">
			<feColorMatrix values="1 0 0 0 0 0 1 0 0 0 0 0 1 0 0 0 0 0 0.05 0" in="SourceGraphic"/>
			<feOffset dy="20"/>
			<feGaussianBlur stdDeviation="11" result="blur0"/>
			<feColorMatrix values="1 0 0 0 0 0 1 0 0 0 0 0 1 0 0 0 0 0 0.07 0" in="SourceGraphic"/>
			<feOffset dy="30"/>
			<feGaussianBlur stdDeviation="20" result="blur1"/>
			<feMerge>
				<feMergeNode in="blur0"/>
				<feMergeNode in="blur1"/>
			</feMerge>
		</filter>
		<mask id="mask-Qm9YeKW5">
			<path d="M981.33,341.33v341.34c0,46.93 -38.4,85.33 -85.33,85.33h-768c-46.93,0 -85.33,-38.4 -85.33,-85.33v-341.34c0,-46.93 38.4,-85.33 85.33,-85.33h768c46.93,0 85.33,38.4 85.33,85.33zM896,341.33h-85.33v170.67h-85.34v-170.67h-85.33v170.67h-85.33v-170.67h-85.34v170.67h-85.33v-170.67h-85.33v170.67h-85.34v-170.67h-85.33v341.34h768z" fill="#ffffff"/>
		</mask>
		<mask id="mask-uN08N551">
			<path d="M981.33,341.33v341.34c0,46.93 -38.4,85.33 -85.33,85.33h-768c-46.93,0 -85.33,-38.4 -85.33,-85.33v-341.34c0,-46.93 38.4,-85.33 85.33,-85.33h768c46.93,0 85.33,38.4 85.33,85.33zM896,341.33h-85.33v170.67h-85.34v-170.67h-85.33v170.67h-85.33v-170.67h-85.34v170.67h-85.33v-170.67h-85.33v170.67h-85.34v-170.67h-85.33v341.34h768z" fill="url(#color-pRlR4Zop)"/>
		</mask>
		<mask id="mask-ziOLQNgB">
			<rect fill="url(#color-CkMbhHBL)" x="42.67" y="256" width="938.66" height="512"/>
		</mask>
	</defs>
	<g fill="none" fill-rule="nonzero" style="mix-blend-mode: normal">
		<g mask="url(#mask-Qm9YeKW5)">
			<g color="#ffc107" class="teamapps-color-2">
				<rect x="42.67" y="256" width="938.66" height="512" fill="currentColor"/>
			</g>
			<g color="#e65100" class="teamapps-color-3" mask="url(#mask-ziOLQNgB)">
				<rect x="42.67" y="256" width="938.66" height="512" fill="currentColor"/>
			</g>
		</g>
		<g filter="url(#filter-GDcKOKKJ)" mask="url(#mask-uN08N551)">
			<g color="#fff59d" class="teamapps-color-1">
				<rect x="42.67" y="256" width="938.66" height="512" fill="currentColor"/>
			</g>
		</g>
		<g clip-path="url(#clip-VTTc9Y7O)">
			<path d="M-50.33,811v-698h1124.66v698zM896,256h-768c-46.93,0 -85.33,38.4 -85.33,85.33v341.34c0,46.93 38.4,85.33 85.33,85.33h768c46.93,0 85.33,-38.4 85.33,-85.33v-341.34c0,-46.93 -38.4,-85.33 -85.33,-85.33zM896,682.67h-768v-341.34h85.33v170.67h85.34v-170.67h85.33v170.67h85.33v-170.67h85.34v170.67h85.33v-170.67h85.33v170.67h85.34v-170.67h85.33z" fill="#000000" filter="url(#filter-Y1ocP3AM)"/>
		</g>
	</g>
</svg>