<svg version="1.1" xmlns="http://www.w3.org/2000/svg" xmlns:xlink="http://www.w3.org/1999/xlink" viewBox="0,0,1024,1024">
	<!-- Color names: teamapps-color-1, teamapps-color-2, teamapps-color-3 -->
	<desc>timer_3 icon - Licensed under Apache License v2.0 (http://www.apache.org/licenses/LICENSE-2.0) - Created with Iconfu.com - Derivative work of Material icons (Copyright Google Inc.)</desc>
	<defs>
		<clipPath id="clip-VsHWa2EM">
			<path d="M510.29,585.81c2.99,11.95 4.7,24.33 4.7,36.7c0,23.47 -4.27,44.79 -12.8,63.14c-8.53,18.77 -20.48,34.14 -35.84,46.94c-14.93,12.8 -32.85,22.61 -53.76,29.01c-20.91,6.4 -43.1,9.81 -67.42,9.81c-22.19,0 -43.09,-2.99 -63.14,-8.96c-20.05,-5.97 -37.55,-14.93 -52.91,-26.88c-15.36,-11.95 -27.73,-26.88 -36.69,-44.8c-8.96,-17.92 -13.66,-38.39 -13.66,-61.86h84.91c0,11.09 2.13,21.33 5.97,30.72c3.84,9.39 9.39,17.06 16.64,23.89c7.25,6.83 15.79,11.95 26.03,15.36c10.24,3.84 21.76,5.55 34.13,5.55c26.03,0 46.94,-6.83 61.87,-20.91c14.93,-14.08 22.61,-34.14 22.61,-60.59c0,-14.08 -2.55,-26.88 -6.82,-37.12c-4.27,-10.67 -10.67,-19.19 -18.78,-26.02c-8.11,-6.83 -17.92,-11.53 -29.44,-14.94c-11.52,-2.99 -24.31,-4.69 -38.82,-4.69h-50.35v-66.99h49.92c14.51,0 27.3,-1.7 37.97,-5.54c10.67,-3.84 19.63,-8.96 26.88,-15.79c7.25,-6.83 12.81,-14.93 16.22,-24.32c3.41,-9.39 5.12,-20.05 5.12,-31.57c0,-24.32 -5.98,-43.09 -18.78,-56.32c-12.8,-13.23 -31.99,-20.06 -58.02,-20.06c-11.52,0 -21.76,1.71 -31.15,5.12c-9.39,3.41 -17.5,8.11 -24.75,14.08c-6.83,5.97 -12.37,13.66 -16.21,22.19c-3.84,8.53 -5.97,18.35 -5.97,29.44h-84.48c0,-19.63 3.84,-38.4 12.37,-55.04c7.68,-17.07 19.2,-31.58 33.28,-43.95c14.08,-12.37 31.15,-22.19 51.2,-29.44c19.63,-6.83 41.38,-10.24 64.85,-10.24c23.89,0 46.08,2.99 65.28,8.54c20.05,5.97 37.12,15.35 51.2,27.3c14.51,12.37 25.6,27.31 33.28,45.23c8.11,17.92 11.95,38.82 11.95,62.29c0,10.24 -1.28,20.91 -4.69,31.15c-2.99,10.67 -8.11,20.48 -14.51,30.29c-6.4,9.81 -14.51,18.78 -24.32,27.31c-9.81,8.53 -21.33,15.36 -34.13,21.33c15.79,5.55 29.01,12.37 39.68,20.48c11.09,8.11 19.62,17.5 26.45,27.74c6.83,10.67 11.52,21.75 14.93,32.42zM900.69,656.64c0,16.64 -3.41,31.58 -10.66,45.23c-7.25,13.65 -17.07,25.6 -30.3,35.41c-13.23,9.81 -29.01,17.49 -47.36,23.04c-18.35,5.55 -38.83,8.11 -61.44,8.11c-25.6,0 -47.78,-3.42 -67.41,-10.67c-19.63,-7.25 -35.84,-16.64 -49.07,-28.16c-13.23,-11.95 -23.03,-25.17 -29.86,-39.68c-6.83,-14.51 -10.24,-29.44 -10.24,-44.8h80.64c0.43,11.09 2.99,20.91 7.68,28.59c4.69,7.68 10.24,14.08 17.49,18.77c6.83,4.69 14.93,8.11 23.89,10.24c8.96,2.56 17.92,3.41 27.31,3.41c21.76,0 38.4,-3.84 49.92,-12.37c11.52,-8.53 17.07,-19.2 17.07,-32.85c0,-5.97 -0.86,-11.52 -2.99,-16.64c-2.13,-5.12 -5.97,-10.24 -11.52,-14.51c-5.97,-4.27 -14.08,-8.53 -24.32,-12.37c-10.24,-3.84 -23.89,-7.69 -40.53,-11.1c-19.63,-4.27 -37.98,-9.39 -54.19,-15.36c-16.21,-6.4 -30.29,-13.65 -41.81,-22.61c-11.52,-8.96 -20.91,-19.2 -27.31,-31.15c-6.4,-11.95 -9.81,-25.6 -9.81,-40.96c0,-15.36 2.98,-29.44 9.81,-43.09c6.83,-13.65 16.22,-25.6 28.59,-35.84c12.37,-10.24 27.73,-18.35 45.22,-24.32c17.49,-5.97 37.55,-8.96 59.31,-8.96c23.04,0 43.94,2.99 62.29,9.39c18.35,6.4 33.71,14.5 46.51,25.17c12.8,10.67 22.61,23.04 29.44,37.55c6.83,14.51 10.24,29.86 10.24,46.5h-83.2c0,-7.25 -1.71,-14.07 -4.27,-20.9c-2.99,-6.83 -6.82,-12.8 -12.37,-17.92c-5.55,-5.12 -12.37,-9.39 -20.48,-12.38c-8.11,-2.99 -17.49,-4.69 -28.16,-4.69c-10.24,0 -19.63,1.28 -27.31,3.84c-7.68,2.56 -14.08,5.97 -19.2,10.24c-5.12,3.84 -8.96,8.96 -11.52,14.51c-2.56,5.55 -3.84,11.09 -3.84,17.49c0,6.4 1.29,11.95 3.42,16.64c2.13,4.69 5.97,8.96 11.94,12.8c5.97,3.84 13.66,7.26 23.47,10.67c9.81,3.41 22.19,6.82 37.12,9.81c21.33,4.69 40.53,10.24 57.6,16.21c17.07,5.97 31.14,13.66 43.09,22.62c11.95,8.96 20.91,19.62 26.88,31.57c6.4,11.95 9.39,26.45 10.24,43.52z"/>
		</clipPath>
		<linearGradient x1="0" y1="1024" x2="1024" y2="0" id="color-7YPHVmmO" gradientUnits="userSpaceOnUse">
			<stop offset="0.2" stop-color="#000000"/>
			<stop offset="0.8" stop-color="#ffffff"/>
		</linearGradient>
		<radialGradient cx="0" cy="0" r="1448.15" id="color-SIyuitHQ" gradientUnits="userSpaceOnUse">
			<stop offset="0.07" stop-color="#ffffff"/>
			<stop offset="0.75" stop-color="#000000"/>
		</radialGradient>
		<filter id="filter-csMNoUP9" color-interpolation-filters="sRGB">
			<feOffset/>
		</filter>
		<filter id="filter-HGcER6gU" x="0%" y="0%" width="100%" height="100%" color-interpolation-filters="sRGB">
			<feColorMatrix values="1 0 0 0 0 0 1 0 0 0 0 0 1 0 0 0 0 0 0.05 0" in="SourceGraphic"/>
			<feOffset dy="20"/>
			<feGaussianBlur stdDeviation="11" result="blur0"/>
			<feColorMatrix values="1 0 0 0 0 0 1 0 0 0 0 0 1 0 0 0 0 0 0.07 0" in="SourceGraphic"/>
			<feOffset dy="30"/>
			<feGaussianBlur stdDeviation="20" result="blur1"/>
			<feMerge>
				<feMergeNode in="blur0"/>
				<feMergeNode in="blur1"/>
			</feMerge>
		</filter>
		<mask id="mask-ChAOOZmi">
			<path d="M510.29,585.81c2.99,11.95 4.7,24.33 4.7,36.7c0,23.47 -4.27,44.79 -12.8,63.14c-8.53,18.77 -20.48,34.14 -35.84,46.94c-14.93,12.8 -32.85,22.61 -53.76,29.01c-20.91,6.4 -43.1,9.81 -67.42,9.81c-22.19,0 -43.09,-2.99 -63.14,-8.96c-20.05,-5.97 -37.55,-14.93 -52.91,-26.88c-15.36,-11.95 -27.73,-26.88 -36.69,-44.8c-8.96,-17.92 -13.66,-38.39 -13.66,-61.86h84.91c0,11.09 2.13,21.33 5.97,30.72c3.84,9.39 9.39,17.06 16.64,23.89c7.25,6.83 15.79,11.95 26.03,15.36c10.24,3.84 21.76,5.55 34.13,5.55c26.03,0 46.94,-6.83 61.87,-20.91c14.93,-14.08 22.61,-34.14 22.61,-60.59c0,-14.08 -2.55,-26.88 -6.82,-37.12c-4.27,-10.67 -10.67,-19.19 -18.78,-26.02c-8.11,-6.83 -17.92,-11.53 -29.44,-14.94c-11.52,-2.99 -24.31,-4.69 -38.82,-4.69h-50.35v-66.99h49.92c14.51,0 27.3,-1.7 37.97,-5.54c10.67,-3.84 19.63,-8.96 26.88,-15.79c7.25,-6.83 12.81,-14.93 16.22,-24.32c3.41,-9.39 5.12,-20.05 5.12,-31.57c0,-24.32 -5.98,-43.09 -18.78,-56.32c-12.8,-13.23 -31.99,-20.06 -58.02,-20.06c-11.52,0 -21.76,1.71 -31.15,5.12c-9.39,3.41 -17.5,8.11 -24.75,14.08c-6.83,5.97 -12.37,13.66 -16.21,22.19c-3.84,8.53 -5.97,18.35 -5.97,29.44h-84.48c0,-19.63 3.84,-38.4 12.37,-55.04c7.68,-17.07 19.2,-31.58 33.28,-43.95c14.08,-12.37 31.15,-22.19 51.2,-29.44c19.63,-6.83 41.38,-10.24 64.85,-10.24c23.89,0 46.08,2.99 65.28,8.54c20.05,5.97 37.12,15.35 51.2,27.3c14.51,12.37 25.6,27.31 33.28,45.23c8.11,17.92 11.95,38.82 11.95,62.29c0,10.24 -1.28,20.91 -4.69,31.15c-2.99,10.67 -8.11,20.48 -14.51,30.29c-6.4,9.81 -14.51,18.78 -24.32,27.31c-9.81,8.53 -21.33,15.36 -34.13,21.33c15.79,5.55 29.01,12.37 39.68,20.48c11.09,8.11 19.62,17.5 26.45,27.74c6.83,10.67 11.52,21.75 14.93,32.42zM900.69,656.64c0,16.64 -3.41,31.58 -10.66,45.23c-7.25,13.65 -17.07,25.6 -30.3,35.41c-13.23,9.81 -29.01,17.49 -47.36,23.04c-18.35,5.55 -38.83,8.11 -61.44,8.11c-25.6,0 -47.78,-3.42 -67.41,-10.67c-19.63,-7.25 -35.84,-16.64 -49.07,-28.16c-13.23,-11.95 -23.03,-25.17 -29.86,-39.68c-6.83,-14.51 -10.24,-29.44 -10.24,-44.8h80.64c0.43,11.09 2.99,20.91 7.68,28.59c4.69,7.68 10.24,14.08 17.49,18.77c6.83,4.69 14.93,8.11 23.89,10.24c8.96,2.56 17.92,3.41 27.31,3.41c21.76,0 38.4,-3.84 49.92,-12.37c11.52,-8.53 17.07,-19.2 17.07,-32.85c0,-5.97 -0.86,-11.52 -2.99,-16.64c-2.13,-5.12 -5.97,-10.24 -11.52,-14.51c-5.97,-4.27 -14.08,-8.53 -24.32,-12.37c-10.24,-3.84 -23.89,-7.69 -40.53,-11.1c-19.63,-4.27 -37.98,-9.39 -54.19,-15.36c-16.21,-6.4 -30.29,-13.65 -41.81,-22.61c-11.52,-8.96 -20.91,-19.2 -27.31,-31.15c-6.4,-11.95 -9.81,-25.6 -9.81,-40.96c0,-15.36 2.98,-29.44 9.81,-43.09c6.83,-13.65 16.22,-25.6 28.59,-35.84c12.37,-10.24 27.73,-18.35 45.22,-24.32c17.49,-5.97 37.55,-8.96 59.31,-8.96c23.04,0 43.94,2.99 62.29,9.39c18.35,6.4 33.71,14.5 46.51,25.17c12.8,10.67 22.61,23.04 29.44,37.55c6.83,14.51 10.24,29.86 10.24,46.5h-83.2c0,-7.25 -1.71,-14.07 -4.27,-20.9c-2.99,-6.83 -6.82,-12.8 -12.37,-17.92c-5.55,-5.12 -12.37,-9.39 -20.48,-12.38c-8.11,-2.99 -17.49,-4.69 -28.16,-4.69c-10.24,0 -19.63,1.28 -27.31,3.84c-7.68,2.56 -14.08,5.97 -19.2,10.24c-5.12,3.84 -8.96,8.96 -11.52,14.51c-2.56,5.55 -3.84,11.09 -3.84,17.49c0,6.4 1.29,11.95 3.42,16.64c2.13,4.69 5.97,8.96 11.94,12.8c5.97,3.84 13.66,7.26 23.47,10.67c9.81,3.41 22.19,6.82 37.12,9.81c21.33,4.69 40.53,10.24 57.6,16.21c17.07,5.97 31.14,13.66 43.09,22.62c11.95,8.96 20.91,19.62 26.88,31.57c6.4,11.95 9.39,26.45 10.24,43.52z" fill="url(#color-SIyuitHQ)"/>
		</mask>
		<mask id="mask-r4HOTDQz">
			<rect fill="url(#color-7YPHVmmO)" x="178.77" y="251.73" width="721.92" height="519.68"/>
		</mask>
		<mask id="mask-xHfcZRhy">
			<path d="M510.29,585.81c2.99,11.95 4.7,24.33 4.7,36.7c0,23.47 -4.27,44.79 -12.8,63.14c-8.53,18.77 -20.48,34.14 -35.84,46.94c-14.93,12.8 -32.85,22.61 -53.76,29.01c-20.91,6.4 -43.1,9.81 -67.42,9.81c-22.19,0 -43.09,-2.99 -63.14,-8.96c-20.05,-5.97 -37.55,-14.93 -52.91,-26.88c-15.36,-11.95 -27.73,-26.88 -36.69,-44.8c-8.96,-17.92 -13.66,-38.39 -13.66,-61.86h84.91c0,11.09 2.13,21.33 5.97,30.72c3.84,9.39 9.39,17.06 16.64,23.89c7.25,6.83 15.79,11.95 26.03,15.36c10.24,3.84 21.76,5.55 34.13,5.55c26.03,0 46.94,-6.83 61.87,-20.91c14.93,-14.08 22.61,-34.14 22.61,-60.59c0,-14.08 -2.55,-26.88 -6.82,-37.12c-4.27,-10.67 -10.67,-19.19 -18.78,-26.02c-8.11,-6.83 -17.92,-11.53 -29.44,-14.94c-11.52,-2.99 -24.31,-4.69 -38.82,-4.69h-50.35v-66.99h49.92c14.51,0 27.3,-1.7 37.97,-5.54c10.67,-3.84 19.63,-8.96 26.88,-15.79c7.25,-6.83 12.81,-14.93 16.22,-24.32c3.41,-9.39 5.12,-20.05 5.12,-31.57c0,-24.32 -5.98,-43.09 -18.78,-56.32c-12.8,-13.23 -31.99,-20.06 -58.02,-20.06c-11.52,0 -21.76,1.71 -31.15,5.12c-9.39,3.41 -17.5,8.11 -24.75,14.08c-6.83,5.97 -12.37,13.66 -16.21,22.19c-3.84,8.53 -5.97,18.35 -5.97,29.44h-84.48c0,-19.63 3.84,-38.4 12.37,-55.04c7.68,-17.07 19.2,-31.58 33.28,-43.95c14.08,-12.37 31.15,-22.19 51.2,-29.44c19.63,-6.83 41.38,-10.24 64.85,-10.24c23.89,0 46.08,2.99 65.28,8.54c20.05,5.97 37.12,15.35 51.2,27.3c14.51,12.37 25.6,27.31 33.28,45.23c8.11,17.92 11.95,38.82 11.95,62.29c0,10.24 -1.28,20.91 -4.69,31.15c-2.99,10.67 -8.11,20.48 -14.51,30.29c-6.4,9.81 -14.51,18.78 -24.32,27.31c-9.81,8.53 -21.33,15.36 -34.13,21.33c15.79,5.55 29.01,12.37 39.68,20.48c11.09,8.11 19.62,17.5 26.45,27.74c6.83,10.67 11.52,21.75 14.93,32.42zM900.69,656.64c0,16.64 -3.41,31.58 -10.66,45.23c-7.25,13.65 -17.07,25.6 -30.3,35.41c-13.23,9.81 -29.01,17.49 -47.36,23.04c-18.35,5.55 -38.83,8.11 -61.44,8.11c-25.6,0 -47.78,-3.42 -67.41,-10.67c-19.63,-7.25 -35.84,-16.64 -49.07,-28.16c-13.23,-11.95 -23.03,-25.17 -29.86,-39.68c-6.83,-14.51 -10.24,-29.44 -10.24,-44.8h80.64c0.43,11.09 2.99,20.91 7.68,28.59c4.69,7.68 10.24,14.08 17.49,18.77c6.83,4.69 14.93,8.11 23.89,10.24c8.96,2.56 17.92,3.41 27.31,3.41c21.76,0 38.4,-3.84 49.92,-12.37c11.52,-8.53 17.07,-19.2 17.07,-32.85c0,-5.97 -0.86,-11.52 -2.99,-16.64c-2.13,-5.12 -5.97,-10.24 -11.52,-14.51c-5.97,-4.27 -14.08,-8.53 -24.32,-12.37c-10.24,-3.84 -23.89,-7.69 -40.53,-11.1c-19.63,-4.27 -37.98,-9.39 -54.19,-15.36c-16.21,-6.4 -30.29,-13.65 -41.81,-22.61c-11.52,-8.96 -20.91,-19.2 -27.31,-31.15c-6.4,-11.95 -9.81,-25.6 -9.81,-40.96c0,-15.36 2.98,-29.44 9.81,-43.09c6.83,-13.65 16.22,-25.6 28.59,-35.84c12.37,-10.24 27.73,-18.35 45.22,-24.32c17.49,-5.97 37.55,-8.96 59.31,-8.96c23.04,0 43.94,2.99 62.29,9.39c18.35,6.4 33.71,14.5 46.51,25.17c12.8,10.67 22.61,23.04 29.44,37.55c6.83,14.51 10.24,29.86 10.24,46.5h-83.2c0,-7.25 -1.71,-14.07 -4.27,-20.9c-2.99,-6.83 -6.82,-12.8 -12.37,-17.92c-5.55,-5.12 -12.37,-9.39 -20.48,-12.38c-8.11,-2.99 -17.49,-4.69 -28.16,-4.69c-10.24,0 -19.63,1.28 -27.31,3.84c-7.68,2.56 -14.08,5.97 -19.2,10.24c-5.12,3.84 -8.96,8.96 -11.52,14.51c-2.56,5.55 -3.84,11.09 -3.84,17.49c0,6.4 1.29,11.95 3.42,16.64c2.13,4.69 5.97,8.96 11.94,12.8c5.97,3.84 13.66,7.26 23.47,10.67c9.81,3.41 22.19,6.82 37.12,9.81c21.33,4.69 40.53,10.24 57.6,16.21c17.07,5.97 31.14,13.66 43.09,22.62c11.95,8.96 20.91,19.62 26.88,31.57c6.4,11.95 9.39,26.45 10.24,43.52z" fill="#ffffff"/>
		</mask>
	</defs>
	<g fill="none" fill-rule="nonzero" style="mix-blend-mode: normal">
		<g mask="url(#mask-xHfcZRhy)">
			<g color="#ffc107" class="teamapps-color-2">
				<rect x="178.77" y="251.73" width="721.92" height="519.68" fill="currentColor"/>
			</g>
			<g color="#e65100" class="teamapps-color-3" mask="url(#mask-r4HOTDQz)">
				<rect x="178.77" y="251.73" width="721.92" height="519.68" fill="currentColor"/>
			</g>
		</g>
		<g filter="url(#filter-csMNoUP9)" mask="url(#mask-ChAOOZmi)">
			<g color="#fff59d" class="teamapps-color-1">
				<rect x="178.77" y="251.73" width="721.92" height="519.68" fill="currentColor"/>
			</g>
		</g>
		<g clip-path="url(#clip-VsHWa2EM)">
			<path d="M85.77,814.41v-705.68h907.92v705.68zM495.36,553.39c-6.83,-10.24 -15.36,-19.63 -26.45,-27.74c-10.67,-8.11 -23.89,-14.93 -39.68,-20.48c12.8,-5.97 24.32,-12.8 34.13,-21.33c9.81,-8.53 17.92,-17.5 24.32,-27.31c6.4,-9.81 11.52,-19.62 14.51,-30.29c3.41,-10.24 4.69,-20.91 4.69,-31.15c0,-23.47 -3.84,-44.37 -11.95,-62.29c-7.68,-17.92 -18.77,-32.86 -33.28,-45.23c-14.08,-11.95 -31.15,-21.33 -51.2,-27.3c-19.2,-5.55 -41.39,-8.54 -65.28,-8.54c-23.47,0 -45.22,3.41 -64.85,10.24c-20.05,7.25 -37.12,17.07 -51.2,29.44c-14.08,12.37 -25.6,26.88 -33.28,43.95c-8.53,16.64 -12.37,35.41 -12.37,55.04h84.48c0,-11.09 2.13,-20.91 5.97,-29.44c3.84,-8.53 9.38,-16.22 16.21,-22.19c7.25,-5.97 15.36,-10.67 24.75,-14.08c9.39,-3.41 19.63,-5.12 31.15,-5.12c26.03,0 45.22,6.83 58.02,20.06c12.8,13.23 18.78,32 18.78,56.32c0,11.52 -1.71,22.18 -5.12,31.57c-3.41,9.39 -8.97,17.49 -16.22,24.32c-7.25,6.83 -16.21,11.95 -26.88,15.79c-10.67,3.84 -23.46,5.54 -37.97,5.54h-49.92v66.99h50.35c14.51,0 27.3,1.7 38.82,4.69c11.52,3.41 21.33,8.11 29.44,14.94c8.11,6.83 14.51,15.35 18.78,26.02c4.27,10.24 6.82,23.04 6.82,37.12c0,26.45 -7.68,46.51 -22.61,60.59c-14.93,14.08 -35.84,20.91 -61.87,20.91c-12.37,0 -23.89,-1.71 -34.13,-5.55c-10.24,-3.41 -18.78,-8.53 -26.03,-15.36c-7.25,-6.83 -12.8,-14.5 -16.64,-23.89c-3.84,-9.39 -5.97,-19.63 -5.97,-30.72h-84.91c0,23.47 4.7,43.94 13.66,61.86c8.96,17.92 21.33,32.85 36.69,44.8c15.36,11.95 32.86,20.91 52.91,26.88c20.05,5.97 40.95,8.96 63.14,8.96c24.32,0 46.51,-3.41 67.42,-9.81c20.91,-6.4 38.83,-16.21 53.76,-29.01c15.36,-12.8 27.31,-28.17 35.84,-46.94c8.53,-18.35 12.8,-39.67 12.8,-63.14c0,-12.37 -1.71,-24.75 -4.7,-36.7c-3.41,-10.67 -8.1,-21.75 -14.93,-32.42zM890.45,613.12c-5.97,-11.95 -14.93,-22.61 -26.88,-31.57c-11.95,-8.96 -26.02,-16.65 -43.09,-22.62c-17.07,-5.97 -36.27,-11.52 -57.6,-16.21c-14.93,-2.99 -27.31,-6.4 -37.12,-9.81c-9.81,-3.41 -17.5,-6.83 -23.47,-10.67c-5.97,-3.84 -9.81,-8.11 -11.94,-12.8c-2.13,-4.69 -3.42,-10.24 -3.42,-16.64c0,-6.4 1.28,-11.94 3.84,-17.49c2.56,-5.55 6.4,-10.67 11.52,-14.51c5.12,-4.27 11.52,-7.68 19.2,-10.24c7.68,-2.56 17.07,-3.84 27.31,-3.84c10.67,0 20.05,1.7 28.16,4.69c8.11,2.99 14.93,7.26 20.48,12.38c5.55,5.12 9.38,11.09 12.37,17.92c2.56,6.83 4.27,13.65 4.27,20.9h83.2c0,-16.64 -3.41,-31.99 -10.24,-46.5c-6.83,-14.51 -16.64,-26.88 -29.44,-37.55c-12.8,-10.67 -28.16,-18.77 -46.51,-25.17c-18.35,-6.4 -39.25,-9.39 -62.29,-9.39c-21.76,0 -41.82,2.99 -59.31,8.96c-17.49,5.97 -32.85,14.08 -45.22,24.32c-12.37,10.24 -21.76,22.19 -28.59,35.84c-6.83,13.65 -9.81,27.73 -9.81,43.09c0,15.36 3.41,29.01 9.81,40.96c6.4,11.95 15.79,22.19 27.31,31.15c11.52,8.96 25.6,16.21 41.81,22.61c16.21,5.97 34.56,11.09 54.19,15.36c16.64,3.41 30.29,7.26 40.53,11.1c10.24,3.84 18.35,8.1 24.32,12.37c5.55,4.27 9.39,9.39 11.52,14.51c2.13,5.12 2.99,10.67 2.99,16.64c0,13.65 -5.55,24.32 -17.07,32.85c-11.52,8.53 -28.16,12.37 -49.92,12.37c-9.39,0 -18.35,-0.85 -27.31,-3.41c-8.96,-2.13 -17.06,-5.55 -23.89,-10.24c-7.25,-4.69 -12.8,-11.09 -17.49,-18.77c-4.69,-7.68 -7.25,-17.5 -7.68,-28.59h-80.64c0,15.36 3.41,30.29 10.24,44.8c6.83,14.51 16.63,27.73 29.86,39.68c13.23,11.52 29.44,20.91 49.07,28.16c19.63,7.25 41.81,10.67 67.41,10.67c22.61,0 43.09,-2.56 61.44,-8.11c18.35,-5.55 34.13,-13.23 47.36,-23.04c13.23,-9.81 23.05,-21.76 30.3,-35.41c7.25,-13.65 10.66,-28.59 10.66,-45.23c-0.85,-17.07 -3.84,-31.57 -10.24,-43.52z" fill="#000000" filter="url(#filter-HGcER6gU)"/>
		</g>
	</g>
</svg>