<svg version="1.1" xmlns="http://www.w3.org/2000/svg" xmlns:xlink="http://www.w3.org/1999/xlink" viewBox="0,0,1024,1024">
	<!-- Color names: teamapps-color-1, teamapps-color-2, teamapps-color-3 -->
	<desc>timer_10 icon - Licensed under Apache License v2.0 (http://www.apache.org/licenses/LICENSE-2.0) - Created with Iconfu.com - Derivative work of Material icons (Copyright Google Inc.)</desc>
	<defs>
		<clipPath id="clip-fhmnicPh">
			<path d="M622.93,368.64c8.11,27.73 11.95,61.86 11.95,101.97v81.92c0,40.11 -4.27,74.25 -11.95,101.98c-7.68,28.16 -18.77,50.77 -33.28,68.26c-14.51,17.49 -31.57,30.3 -52.05,37.98c-20.05,8.11 -42.67,11.94 -67.84,11.94c-24.75,0 -47.36,-4.26 -67.84,-11.94c-20.48,-7.68 -37.97,-20.49 -52.48,-37.98c-14.93,-17.49 -26.02,-40.1 -34.13,-68.26c-8.11,-27.73 -11.95,-61.87 -11.95,-101.98v-81.92c0,-40.11 4.27,-74.24 11.95,-101.97c8.11,-28.16 19.19,-50.35 33.7,-67.84c14.51,-17.49 32,-29.87 52.48,-37.55c20.48,-7.68 43.09,-11.52 67.84,-11.52c24.75,0 47.79,3.84 67.84,11.52c20.48,7.68 37.97,20.48 52.48,37.55c14.51,17.07 25.6,39.68 33.28,67.84zM1024.85,656.64c0,16.64 -3.41,31.58 -10.66,45.23c-7.25,13.65 -17.07,25.6 -30.3,35.41c-13.23,9.81 -29.01,17.49 -47.36,23.04c-18.35,5.55 -38.83,8.11 -61.44,8.11c-25.6,0 -47.78,-3.42 -67.41,-10.67c-19.63,-7.25 -35.84,-16.64 -49.07,-28.16c-13.23,-11.95 -23.03,-25.17 -29.86,-39.68c-6.83,-14.51 -10.24,-29.44 -10.24,-44.8h80.64c0.43,11.09 2.99,20.91 7.68,28.59c4.69,7.68 10.24,14.08 17.49,18.77c6.83,4.69 14.93,8.11 23.89,10.24c8.96,2.56 17.92,3.41 27.31,3.41c21.76,0 38.4,-3.84 49.92,-12.37c11.52,-8.53 17.07,-19.2 17.07,-32.85c0,-5.97 -0.86,-11.52 -2.99,-16.64c-2.13,-5.12 -5.97,-10.24 -11.52,-14.51c-5.97,-4.27 -14.08,-8.53 -24.32,-12.37c-10.24,-3.84 -23.89,-7.69 -40.53,-11.1c-19.63,-4.27 -37.98,-9.39 -54.19,-15.36c-16.21,-6.4 -30.29,-13.65 -41.81,-22.61c-11.95,-8.96 -20.91,-19.2 -27.31,-31.15c-6.4,-11.52 -9.81,-25.6 -9.81,-40.96c0,-15.36 2.98,-29.44 9.81,-43.09c6.83,-13.65 16.22,-25.6 28.59,-35.84c12.37,-10.24 27.73,-18.35 45.22,-24.32c17.49,-5.97 37.55,-8.96 59.31,-8.96c23.04,0 43.94,2.99 62.29,9.39c18.35,6.4 33.71,14.5 46.51,25.17c12.8,10.67 22.61,23.04 29.44,37.55c6.83,14.51 10.24,29.86 10.24,46.5h-83.2c0,-7.25 -1.71,-14.07 -4.27,-20.9c-2.99,-6.83 -6.82,-12.8 -12.37,-17.92c-5.55,-5.12 -12.37,-9.39 -20.48,-12.38c-8.11,-2.99 -17.49,-4.69 -28.16,-4.69c-10.24,0 -19.63,1.28 -27.31,3.84c-7.68,2.56 -14.08,5.97 -19.2,10.24c-5.12,3.84 -8.96,8.96 -11.52,14.51c-2.56,5.55 -3.84,11.52 -3.84,17.49c0,6.4 1.29,11.95 3.42,16.64c2.13,4.69 5.97,8.96 11.94,12.8c5.97,3.84 13.66,7.26 23.47,10.67c9.81,3.41 22.19,6.82 37.12,9.81c21.33,4.69 40.53,10.24 57.6,16.21c17.07,5.97 31.14,13.66 43.09,22.62c11.95,8.96 20.91,19.62 26.88,31.57c6.4,11.95 9.39,26.45 10.24,43.52zM202.67,256h10.66v512h-85.33v-409.6l-128,42.67v-71.68zM550.83,564.05v-107.09c0,-25.6 -2.14,-47.36 -5.55,-64.85c-3.41,-17.49 -8.96,-31.57 -15.79,-42.24c-6.83,-11.09 -15.36,-18.78 -25.6,-23.47c-9.81,-4.69 -21.33,-7.25 -34.56,-7.25c-12.8,0 -24.32,2.56 -34.56,7.25c-10.24,5.12 -18.77,12.8 -25.6,23.47c-7.25,11.09 -12.37,25.17 -16.21,42.66c-3.84,17.49 -5.55,39.26 -5.55,64.86v106.66c0,25.6 1.71,47.36 5.55,65.28c3.84,17.92 9.38,32.43 16.21,43.52c6.83,11.09 15.36,19.2 25.6,24.32c10.24,5.12 22.19,7.68 34.99,7.68c13.23,0 25.18,-2.56 34.99,-7.68c9.81,-5.12 18.34,-13.23 25.17,-24.32c6.83,-11.09 11.95,-25.6 15.36,-43.52c3.41,-17.92 5.12,-39.68 5.12,-65.28z"/>
		</clipPath>
		<linearGradient x1="0" y1="1024" x2="1024" y2="0" id="color-S90Su2OJ" gradientUnits="userSpaceOnUse">
			<stop offset="0.2" stop-color="#000000"/>
			<stop offset="0.8" stop-color="#ffffff"/>
		</linearGradient>
		<radialGradient cx="0" cy="0" r="1448.15" id="color-wtqQGSFi" gradientUnits="userSpaceOnUse">
			<stop offset="0.07" stop-color="#ffffff"/>
			<stop offset="0.75" stop-color="#000000"/>
		</radialGradient>
		<filter id="filter-KJRY9DQ7" color-interpolation-filters="sRGB">
			<feOffset/>
		</filter>
		<filter id="filter-RS3aGXlq" x="0%" y="0%" width="100%" height="100%" color-interpolation-filters="sRGB">
			<feColorMatrix values="1 0 0 0 0 0 1 0 0 0 0 0 1 0 0 0 0 0 0.05 0" in="SourceGraphic"/>
			<feOffset dy="20"/>
			<feGaussianBlur stdDeviation="11" result="blur0"/>
			<feColorMatrix values="1 0 0 0 0 0 1 0 0 0 0 0 1 0 0 0 0 0 0.07 0" in="SourceGraphic"/>
			<feOffset dy="30"/>
			<feGaussianBlur stdDeviation="20" result="blur1"/>
			<feMerge>
				<feMergeNode in="blur0"/>
				<feMergeNode in="blur1"/>
			</feMerge>
		</filter>
		<mask id="mask-0vcnYx1y">
			<path d="M622.93,368.64c8.11,27.73 11.95,61.86 11.95,101.97v81.92c0,40.11 -4.27,74.25 -11.95,101.98c-7.68,28.16 -18.77,50.77 -33.28,68.26c-14.51,17.49 -31.57,30.3 -52.05,37.98c-20.05,8.11 -42.67,11.94 -67.84,11.94c-24.75,0 -47.36,-4.26 -67.84,-11.94c-20.48,-7.68 -37.97,-20.49 -52.48,-37.98c-14.93,-17.49 -26.02,-40.1 -34.13,-68.26c-8.11,-27.73 -11.95,-61.87 -11.95,-101.98v-81.92c0,-40.11 4.27,-74.24 11.95,-101.97c8.11,-28.16 19.19,-50.35 33.7,-67.84c14.51,-17.49 32,-29.87 52.48,-37.55c20.48,-7.68 43.09,-11.52 67.84,-11.52c24.75,0 47.79,3.84 67.84,11.52c20.48,7.68 37.97,20.48 52.48,37.55c14.51,17.07 25.6,39.68 33.28,67.84zM1024.85,656.64c0,16.64 -3.41,31.58 -10.66,45.23c-7.25,13.65 -17.07,25.6 -30.3,35.41c-13.23,9.81 -29.01,17.49 -47.36,23.04c-18.35,5.55 -38.83,8.11 -61.44,8.11c-25.6,0 -47.78,-3.42 -67.41,-10.67c-19.63,-7.25 -35.84,-16.64 -49.07,-28.16c-13.23,-11.95 -23.03,-25.17 -29.86,-39.68c-6.83,-14.51 -10.24,-29.44 -10.24,-44.8h80.64c0.43,11.09 2.99,20.91 7.68,28.59c4.69,7.68 10.24,14.08 17.49,18.77c6.83,4.69 14.93,8.11 23.89,10.24c8.96,2.56 17.92,3.41 27.31,3.41c21.76,0 38.4,-3.84 49.92,-12.37c11.52,-8.53 17.07,-19.2 17.07,-32.85c0,-5.97 -0.86,-11.52 -2.99,-16.64c-2.13,-5.12 -5.97,-10.24 -11.52,-14.51c-5.97,-4.27 -14.08,-8.53 -24.32,-12.37c-10.24,-3.84 -23.89,-7.69 -40.53,-11.1c-19.63,-4.27 -37.98,-9.39 -54.19,-15.36c-16.21,-6.4 -30.29,-13.65 -41.81,-22.61c-11.95,-8.96 -20.91,-19.2 -27.31,-31.15c-6.4,-11.52 -9.81,-25.6 -9.81,-40.96c0,-15.36 2.98,-29.44 9.81,-43.09c6.83,-13.65 16.22,-25.6 28.59,-35.84c12.37,-10.24 27.73,-18.35 45.22,-24.32c17.49,-5.97 37.55,-8.96 59.31,-8.96c23.04,0 43.94,2.99 62.29,9.39c18.35,6.4 33.71,14.5 46.51,25.17c12.8,10.67 22.61,23.04 29.44,37.55c6.83,14.51 10.24,29.86 10.24,46.5h-83.2c0,-7.25 -1.71,-14.07 -4.27,-20.9c-2.99,-6.83 -6.82,-12.8 -12.37,-17.92c-5.55,-5.12 -12.37,-9.39 -20.48,-12.38c-8.11,-2.99 -17.49,-4.69 -28.16,-4.69c-10.24,0 -19.63,1.28 -27.31,3.84c-7.68,2.56 -14.08,5.97 -19.2,10.24c-5.12,3.84 -8.96,8.96 -11.52,14.51c-2.56,5.55 -3.84,11.52 -3.84,17.49c0,6.4 1.29,11.95 3.42,16.64c2.13,4.69 5.97,8.96 11.94,12.8c5.97,3.84 13.66,7.26 23.47,10.67c9.81,3.41 22.19,6.82 37.12,9.81c21.33,4.69 40.53,10.24 57.6,16.21c17.07,5.97 31.14,13.66 43.09,22.62c11.95,8.96 20.91,19.62 26.88,31.57c6.4,11.95 9.39,26.45 10.24,43.52zM202.67,256h10.66v512h-85.33v-409.6l-128,42.67v-71.68zM550.83,564.05v-107.09c0,-25.6 -2.14,-47.36 -5.55,-64.85c-3.41,-17.49 -8.96,-31.57 -15.79,-42.24c-6.83,-11.09 -15.36,-18.78 -25.6,-23.47c-9.81,-4.69 -21.33,-7.25 -34.56,-7.25c-12.8,0 -24.32,2.56 -34.56,7.25c-10.24,5.12 -18.77,12.8 -25.6,23.47c-7.25,11.09 -12.37,25.17 -16.21,42.66c-3.84,17.49 -5.55,39.26 -5.55,64.86v106.66c0,25.6 1.71,47.36 5.55,65.28c3.84,17.92 9.38,32.43 16.21,43.52c6.83,11.09 15.36,19.2 25.6,24.32c10.24,5.12 22.19,7.68 34.99,7.68c13.23,0 25.18,-2.56 34.99,-7.68c9.81,-5.12 18.34,-13.23 25.17,-24.32c6.83,-11.09 11.95,-25.6 15.36,-43.52c3.41,-17.92 5.12,-39.68 5.12,-65.28z" fill="#ffffff"/>
		</mask>
		<mask id="mask-95nPTOkN">
			<path d="M622.93,368.64c8.11,27.73 11.95,61.86 11.95,101.97v81.92c0,40.11 -4.27,74.25 -11.95,101.98c-7.68,28.16 -18.77,50.77 -33.28,68.26c-14.51,17.49 -31.57,30.3 -52.05,37.98c-20.05,8.11 -42.67,11.94 -67.84,11.94c-24.75,0 -47.36,-4.26 -67.84,-11.94c-20.48,-7.68 -37.97,-20.49 -52.48,-37.98c-14.93,-17.49 -26.02,-40.1 -34.13,-68.26c-8.11,-27.73 -11.95,-61.87 -11.95,-101.98v-81.92c0,-40.11 4.27,-74.24 11.95,-101.97c8.11,-28.16 19.19,-50.35 33.7,-67.84c14.51,-17.49 32,-29.87 52.48,-37.55c20.48,-7.68 43.09,-11.52 67.84,-11.52c24.75,0 47.79,3.84 67.84,11.52c20.48,7.68 37.97,20.48 52.48,37.55c14.51,17.07 25.6,39.68 33.28,67.84zM1024.85,656.64c0,16.64 -3.41,31.58 -10.66,45.23c-7.25,13.65 -17.07,25.6 -30.3,35.41c-13.23,9.81 -29.01,17.49 -47.36,23.04c-18.35,5.55 -38.83,8.11 -61.44,8.11c-25.6,0 -47.78,-3.42 -67.41,-10.67c-19.63,-7.25 -35.84,-16.64 -49.07,-28.16c-13.23,-11.95 -23.03,-25.17 -29.86,-39.68c-6.83,-14.51 -10.24,-29.44 -10.24,-44.8h80.64c0.43,11.09 2.99,20.91 7.68,28.59c4.69,7.68 10.24,14.08 17.49,18.77c6.83,4.69 14.93,8.11 23.89,10.24c8.96,2.56 17.92,3.41 27.31,3.41c21.76,0 38.4,-3.84 49.92,-12.37c11.52,-8.53 17.07,-19.2 17.07,-32.85c0,-5.97 -0.86,-11.52 -2.99,-16.64c-2.13,-5.12 -5.97,-10.24 -11.52,-14.51c-5.97,-4.27 -14.08,-8.53 -24.32,-12.37c-10.24,-3.84 -23.89,-7.69 -40.53,-11.1c-19.63,-4.27 -37.98,-9.39 -54.19,-15.36c-16.21,-6.4 -30.29,-13.65 -41.81,-22.61c-11.95,-8.96 -20.91,-19.2 -27.31,-31.15c-6.4,-11.52 -9.81,-25.6 -9.81,-40.96c0,-15.36 2.98,-29.44 9.81,-43.09c6.83,-13.65 16.22,-25.6 28.59,-35.84c12.37,-10.24 27.73,-18.35 45.22,-24.32c17.49,-5.97 37.55,-8.96 59.31,-8.96c23.04,0 43.94,2.99 62.29,9.39c18.35,6.4 33.71,14.5 46.51,25.17c12.8,10.67 22.61,23.04 29.44,37.55c6.83,14.51 10.24,29.86 10.24,46.5h-83.2c0,-7.25 -1.71,-14.07 -4.27,-20.9c-2.99,-6.83 -6.82,-12.8 -12.37,-17.92c-5.55,-5.12 -12.37,-9.39 -20.48,-12.38c-8.11,-2.99 -17.49,-4.69 -28.16,-4.69c-10.24,0 -19.63,1.28 -27.31,3.84c-7.68,2.56 -14.08,5.97 -19.2,10.24c-5.12,3.84 -8.96,8.96 -11.52,14.51c-2.56,5.55 -3.84,11.52 -3.84,17.49c0,6.4 1.29,11.95 3.42,16.64c2.13,4.69 5.97,8.96 11.94,12.8c5.97,3.84 13.66,7.26 23.47,10.67c9.81,3.41 22.19,6.82 37.12,9.81c21.33,4.69 40.53,10.24 57.6,16.21c17.07,5.97 31.14,13.66 43.09,22.62c11.95,8.96 20.91,19.62 26.88,31.57c6.4,11.95 9.39,26.45 10.24,43.52zM202.67,256h10.66v512h-85.33v-409.6l-128,42.67v-71.68zM550.83,564.05v-107.09c0,-25.6 -2.14,-47.36 -5.55,-64.85c-3.41,-17.49 -8.96,-31.57 -15.79,-42.24c-6.83,-11.09 -15.36,-18.78 -25.6,-23.47c-9.81,-4.69 -21.33,-7.25 -34.56,-7.25c-12.8,0 -24.32,2.56 -34.56,7.25c-10.24,5.12 -18.77,12.8 -25.6,23.47c-7.25,11.09 -12.37,25.17 -16.21,42.66c-3.84,17.49 -5.55,39.26 -5.55,64.86v106.66c0,25.6 1.71,47.36 5.55,65.28c3.84,17.92 9.38,32.43 16.21,43.52c6.83,11.09 15.36,19.2 25.6,24.32c10.24,5.12 22.19,7.68 34.99,7.68c13.23,0 25.18,-2.56 34.99,-7.68c9.81,-5.12 18.34,-13.23 25.17,-24.32c6.83,-11.09 11.95,-25.6 15.36,-43.52c3.41,-17.92 5.12,-39.68 5.12,-65.28z" fill="url(#color-wtqQGSFi)"/>
		</mask>
		<mask id="mask-y34pg5q3">
			<rect fill="url(#color-S90Su2OJ)" x="0" y="251.73" width="1024.85" height="520.96"/>
		</mask>
	</defs>
	<g fill="none" fill-rule="nonzero" style="mix-blend-mode: normal">
		<g mask="url(#mask-0vcnYx1y)">
			<g color="#ffc107" class="teamapps-color-2">
				<rect x="0" y="251.73" width="1024.85" height="520.96" fill="currentColor"/>
			</g>
			<g color="#e65100" class="teamapps-color-3" mask="url(#mask-y34pg5q3)">
				<rect x="0" y="251.73" width="1024.85" height="520.96" fill="currentColor"/>
			</g>
		</g>
		<g filter="url(#filter-KJRY9DQ7)" mask="url(#mask-95nPTOkN)">
			<g color="#fff59d" class="teamapps-color-1">
				<rect x="0" y="251.73" width="1024.85" height="520.96" fill="currentColor"/>
			</g>
		</g>
		<g clip-path="url(#clip-fhmnicPh)">
			<path d="M-93,815.69v-706.96h1210.85v706.96zM589.65,300.8c-14.51,-17.07 -32,-29.87 -52.48,-37.55c-20.05,-7.68 -43.09,-11.52 -67.84,-11.52c-24.75,0 -47.36,3.84 -67.84,11.52c-20.48,7.68 -37.97,20.06 -52.48,37.55c-14.51,17.49 -25.59,39.68 -33.7,67.84c-7.68,27.73 -11.95,61.86 -11.95,101.97v81.92c0,40.11 3.84,74.25 11.95,101.98c8.11,28.16 19.2,50.77 34.13,68.26c14.51,17.49 32,30.3 52.48,37.98c20.48,7.68 43.09,11.94 67.84,11.94c25.17,0 47.79,-3.83 67.84,-11.94c20.48,-7.68 37.54,-20.49 52.05,-37.98c14.51,-17.49 25.6,-40.1 33.28,-68.26c7.68,-27.73 11.95,-61.87 11.95,-101.98v-81.92c0,-40.11 -3.84,-74.24 -11.95,-101.97c-7.68,-28.16 -18.77,-50.77 -33.28,-67.84zM1014.61,613.12c-5.97,-11.95 -14.93,-22.61 -26.88,-31.57c-11.95,-8.96 -26.02,-16.65 -43.09,-22.62c-17.07,-5.97 -36.27,-11.52 -57.6,-16.21c-14.93,-2.99 -27.31,-6.4 -37.12,-9.81c-9.81,-3.41 -17.5,-6.83 -23.47,-10.67c-5.97,-3.84 -9.81,-8.11 -11.94,-12.8c-2.13,-4.69 -3.42,-10.24 -3.42,-16.64c0,-5.97 1.28,-11.94 3.84,-17.49c2.56,-5.55 6.4,-10.67 11.52,-14.51c5.12,-4.27 11.52,-7.68 19.2,-10.24c7.68,-2.56 17.07,-3.84 27.31,-3.84c10.67,0 20.05,1.7 28.16,4.69c8.11,2.99 14.93,7.26 20.48,12.38c5.55,5.12 9.38,11.09 12.37,17.92c2.56,6.83 4.27,13.65 4.27,20.9h83.2c0,-16.64 -3.41,-31.99 -10.24,-46.5c-6.83,-14.51 -16.64,-26.88 -29.44,-37.55c-12.8,-10.67 -28.16,-18.77 -46.51,-25.17c-18.35,-6.4 -39.25,-9.39 -62.29,-9.39c-21.76,0 -41.82,2.99 -59.31,8.96c-17.49,5.97 -32.85,14.08 -45.22,24.32c-12.37,10.24 -21.76,22.19 -28.59,35.84c-6.83,13.65 -9.81,27.73 -9.81,43.09c0,15.36 3.41,29.44 9.81,40.96c6.4,11.95 15.36,22.19 27.31,31.15c11.52,8.96 25.6,16.21 41.81,22.61c16.21,5.97 34.56,11.09 54.19,15.36c16.64,3.41 30.29,7.26 40.53,11.1c10.24,3.84 18.35,8.1 24.32,12.37c5.55,4.27 9.39,9.39 11.52,14.51c2.13,5.12 2.99,10.67 2.99,16.64c0,13.65 -5.55,24.32 -17.07,32.85c-11.52,8.53 -28.16,12.37 -49.92,12.37c-9.39,0 -18.35,-0.85 -27.31,-3.41c-8.96,-2.13 -17.06,-5.55 -23.89,-10.24c-7.25,-4.69 -12.8,-11.09 -17.49,-18.77c-4.69,-7.68 -7.25,-17.5 -7.68,-28.59h-80.64c0,15.36 3.41,30.29 10.24,44.8c6.83,14.51 16.63,27.73 29.86,39.68c13.23,11.52 29.44,20.91 49.07,28.16c19.63,7.25 41.81,10.67 67.41,10.67c22.61,0 43.09,-2.56 61.44,-8.11c18.35,-5.55 34.13,-13.23 47.36,-23.04c13.23,-9.81 23.05,-21.76 30.3,-35.41c7.25,-13.65 10.66,-28.59 10.66,-45.23c-0.85,-17.07 -3.84,-31.57 -10.24,-43.52zM0,329.39v71.68l128,-42.67v409.6h85.33v-512h-10.66zM550.4,564.05c0,25.6 -1.71,47.36 -5.12,65.28c-3.41,17.92 -8.53,32.43 -15.36,43.52c-6.83,11.09 -15.36,19.2 -25.17,24.32c-9.81,5.12 -21.76,7.68 -34.99,7.68c-12.8,0 -24.75,-2.56 -34.99,-7.68c-10.24,-5.12 -18.77,-13.23 -25.6,-24.32c-6.83,-11.09 -12.37,-25.6 -16.21,-43.52c-3.84,-17.92 -5.55,-39.68 -5.55,-65.28v-106.66c0,-25.6 1.71,-47.37 5.55,-64.86c3.84,-17.49 8.96,-31.57 16.21,-42.66c6.83,-10.67 15.36,-18.35 25.6,-23.47c10.24,-4.69 21.76,-7.25 34.56,-7.25c13.23,0 24.75,2.56 34.56,7.25c10.24,4.69 18.77,12.38 25.6,23.47c6.83,10.67 12.38,24.75 15.79,42.24c3.41,17.49 5.55,39.25 5.55,64.85v107.09z" fill="#000000" filter="url(#filter-RS3aGXlq)"/>
		</g>
	</g>
</svg>