<svg version="1.1" xmlns="http://www.w3.org/2000/svg" xmlns:xlink="http://www.w3.org/1999/xlink" viewBox="0,0,1024,1024">
	<!-- Color names: teamapps-color-1, teamapps-color-2, teamapps-color-3 -->
	<desc>trending_down icon - Licensed under Apache License v2.0 (http://www.apache.org/licenses/LICENSE-2.0) - Created with Iconfu.com - Derivative work of Material icons (Copyright Google Inc.)</desc>
	<defs>
		<clipPath id="clip-rRsdYcgv">
			<path d="M682.67,768l97.7,-97.71l-208.21,-208.21l-170.67,170.67l-316.16,-316.59l60.16,-60.16l256,256l170.67,-170.67l268.8,268.38l97.71,-97.71v256z"/>
		</clipPath>
		<radialGradient cx="0" cy="0" r="1448.15" id="color-F1riyFan" gradientUnits="userSpaceOnUse">
			<stop offset="0.07" stop-color="#ffffff"/>
			<stop offset="0.75" stop-color="#000000"/>
		</radialGradient>
		<linearGradient x1="0" y1="1024" x2="1024" y2="0" id="color-NCgmxNar" gradientUnits="userSpaceOnUse">
			<stop offset="0.2" stop-color="#000000"/>
			<stop offset="0.8" stop-color="#ffffff"/>
		</linearGradient>
		<filter id="filter-1ix437bY" x="0%" y="0%" width="100%" height="100%" color-interpolation-filters="sRGB">
			<feColorMatrix values="1 0 0 0 0 0 1 0 0 0 0 0 1 0 0 0 0 0 0.05 0" in="SourceGraphic"/>
			<feOffset dy="20"/>
			<feGaussianBlur stdDeviation="11" result="blur0"/>
			<feColorMatrix values="1 0 0 0 0 0 1 0 0 0 0 0 1 0 0 0 0 0 0.07 0" in="SourceGraphic"/>
			<feOffset dy="30"/>
			<feGaussianBlur stdDeviation="20" result="blur1"/>
			<feMerge>
				<feMergeNode in="blur0"/>
				<feMergeNode in="blur1"/>
			</feMerge>
		</filter>
		<filter id="filter-TaouhRaP" color-interpolation-filters="sRGB">
			<feOffset/>
		</filter>
		<mask id="mask-eYH1gLNq">
			<path d="M682.67,768l97.7,-97.71l-208.21,-208.21l-170.67,170.67l-316.16,-316.59l60.16,-60.16l256,256l170.67,-170.67l268.8,268.38l97.71,-97.71v256z" fill="#ffffff"/>
		</mask>
		<mask id="mask-i7GcAPS7">
			<path d="M682.67,768l97.7,-97.71l-208.21,-208.21l-170.67,170.67l-316.16,-316.59l60.16,-60.16l256,256l170.67,-170.67l268.8,268.38l97.71,-97.71v256z" fill="url(#color-F1riyFan)"/>
		</mask>
		<mask id="mask-rjScb4eg">
			<rect fill="url(#color-NCgmxNar)" x="85.33" y="256" width="853.34" height="512"/>
		</mask>
	</defs>
	<g fill="none" fill-rule="nonzero" style="mix-blend-mode: normal">
		<g mask="url(#mask-eYH1gLNq)">
			<g color="#ffc107" class="teamapps-color-2">
				<rect x="85.33" y="256" width="853.34" height="512" fill="currentColor"/>
			</g>
			<g color="#e65100" class="teamapps-color-3" mask="url(#mask-rjScb4eg)">
				<rect x="85.33" y="256" width="853.34" height="512" fill="currentColor"/>
			</g>
		</g>
		<g filter="url(#filter-TaouhRaP)" mask="url(#mask-i7GcAPS7)">
			<g color="#fff59d" class="teamapps-color-1">
				<rect x="85.33" y="256" width="853.34" height="512" fill="currentColor"/>
			</g>
		</g>
		<g clip-path="url(#clip-rRsdYcgv)">
			<path d="M-7.67,811v-698h1039.34v698zM938.67,768v-256l-97.71,97.71l-268.8,-268.38l-170.67,170.67l-256,-256l-60.16,60.16l316.16,316.59l170.67,-170.67l208.21,208.21l-97.7,97.71z" fill="#000000" filter="url(#filter-1ix437bY)"/>
		</g>
	</g>
</svg>