<svg version="1.1" xmlns="http://www.w3.org/2000/svg" xmlns:xlink="http://www.w3.org/1999/xlink" viewBox="0,0,1024,1024">
	<!-- Color names: teamapps-color-1, teamapps-color-2, teamapps-color-3 -->
	<desc>vertical_align_top icon - Licensed under Apache License v2.0 (http://www.apache.org/licenses/LICENSE-2.0) - Created with Iconfu.com - Derivative work of Material icons (Copyright Google Inc.)</desc>
	<defs>
		<clipPath id="clip-ZV3wf3qz">
			<path d="M512,298.67l170.67,170.66h-128v426.67h-85.34v-426.67h-128zM853.33,128v85.33h-682.66v-85.33z"/>
		</clipPath>
		<linearGradient x1="0" y1="1024" x2="1024" y2="0" id="color-A8fWhAGl" gradientUnits="userSpaceOnUse">
			<stop offset="0.2" stop-color="#000000"/>
			<stop offset="0.8" stop-color="#ffffff"/>
		</linearGradient>
		<radialGradient cx="0" cy="0" r="1448.15" id="color-nIftHHSg" gradientUnits="userSpaceOnUse">
			<stop offset="0.07" stop-color="#ffffff"/>
			<stop offset="0.75" stop-color="#000000"/>
		</radialGradient>
		<filter id="filter-P7WHkT9t" x="0%" y="0%" width="100%" height="100%" color-interpolation-filters="sRGB">
			<feColorMatrix values="1 0 0 0 0 0 1 0 0 0 0 0 1 0 0 0 0 0 0.05 0" in="SourceGraphic"/>
			<feOffset dy="20"/>
			<feGaussianBlur stdDeviation="11" result="blur0"/>
			<feColorMatrix values="1 0 0 0 0 0 1 0 0 0 0 0 1 0 0 0 0 0 0.07 0" in="SourceGraphic"/>
			<feOffset dy="30"/>
			<feGaussianBlur stdDeviation="20" result="blur1"/>
			<feMerge>
				<feMergeNode in="blur0"/>
				<feMergeNode in="blur1"/>
			</feMerge>
		</filter>
		<filter id="filter-Y9FHQlVa" color-interpolation-filters="sRGB">
			<feOffset/>
		</filter>
		<mask id="mask-1rrYd7ty">
			<rect fill="url(#color-A8fWhAGl)" x="170.67" y="128" width="682.66" height="768"/>
		</mask>
		<mask id="mask-4M2iKt6c">
			<path d="M512,298.67l170.67,170.66h-128v426.67h-85.34v-426.67h-128zM853.33,128v85.33h-682.66v-85.33z" fill="url(#color-nIftHHSg)"/>
		</mask>
		<mask id="mask-kfgbXvTh">
			<path d="M512,298.67l170.67,170.66h-128v426.67h-85.34v-426.67h-128zM853.33,128v85.33h-682.66v-85.33z" fill="#ffffff"/>
		</mask>
	</defs>
	<g fill="none" fill-rule="nonzero" style="mix-blend-mode: normal">
		<g mask="url(#mask-kfgbXvTh)">
			<g color="#ffc107" class="teamapps-color-2">
				<rect x="170.67" y="128" width="682.66" height="768" fill="currentColor"/>
			</g>
			<g color="#e65100" class="teamapps-color-3" mask="url(#mask-1rrYd7ty)">
				<rect x="170.67" y="128" width="682.66" height="768" fill="currentColor"/>
			</g>
		</g>
		<g filter="url(#filter-Y9FHQlVa)" mask="url(#mask-4M2iKt6c)">
			<g color="#fff59d" class="teamapps-color-1">
				<rect x="170.67" y="128" width="682.66" height="768" fill="currentColor"/>
			</g>
		</g>
		<g clip-path="url(#clip-ZV3wf3qz)">
			<path d="M77.67,939v-954h868.66v954zM341.33,469.33h128v426.67h85.34v-426.67h128l-170.67,-170.66zM170.67,128v85.33h682.66v-85.33z" fill="#000000" filter="url(#filter-P7WHkT9t)"/>
		</g>
	</g>
</svg>