<svg version="1.1" xmlns="http://www.w3.org/2000/svg" xmlns:xlink="http://www.w3.org/1999/xlink" viewBox="0,0,1024,1024">
	<!-- Color names: teamapps-color-1, teamapps-color-2, teamapps-color-3 -->
	<desc>visibility icon - Licensed under Apache License v2.0 (http://www.apache.org/licenses/LICENSE-2.0) - Created with Iconfu.com - Derivative work of Material icons (Copyright Google Inc.)</desc>
	<defs>
		<clipPath id="clip-9NFk7cj5">
			<path d="M981.33,512c-73.81,187.31 -256,320 -469.33,320c-213.33,0 -395.52,-132.69 -469.33,-320c73.81,-187.31 256,-320 469.33,-320c213.33,0 395.52,132.69 469.33,320zM725.33,512c0,-117.76 -95.57,-213.33 -213.33,-213.33c-117.76,0 -213.33,95.57 -213.33,213.33c0,117.76 95.57,213.33 213.33,213.33c117.76,0 213.33,-95.57 213.33,-213.33zM640,512c0,70.83 -57.17,128 -128,128c-70.83,0 -128,-57.17 -128,-128c0,-70.83 57.17,-128 128,-128c70.83,0 128,57.17 128,128z"/>
		</clipPath>
		<radialGradient cx="0" cy="0" r="1448.15" id="color-AcCn0HVC" gradientUnits="userSpaceOnUse">
			<stop offset="0.07" stop-color="#ffffff"/>
			<stop offset="0.75" stop-color="#000000"/>
		</radialGradient>
		<linearGradient x1="0" y1="1024" x2="1024" y2="0" id="color-l1XT7JuX" gradientUnits="userSpaceOnUse">
			<stop offset="0.2" stop-color="#000000"/>
			<stop offset="0.8" stop-color="#ffffff"/>
		</linearGradient>
		<filter id="filter-jxSyt5Qm" color-interpolation-filters="sRGB">
			<feOffset/>
		</filter>
		<filter id="filter-KQATPWP9" x="0%" y="0%" width="100%" height="100%" color-interpolation-filters="sRGB">
			<feColorMatrix values="1 0 0 0 0 0 1 0 0 0 0 0 1 0 0 0 0 0 0.05 0" in="SourceGraphic"/>
			<feOffset dy="20"/>
			<feGaussianBlur stdDeviation="11" result="blur0"/>
			<feColorMatrix values="1 0 0 0 0 0 1 0 0 0 0 0 1 0 0 0 0 0 0.07 0" in="SourceGraphic"/>
			<feOffset dy="30"/>
			<feGaussianBlur stdDeviation="20" result="blur1"/>
			<feMerge>
				<feMergeNode in="blur0"/>
				<feMergeNode in="blur1"/>
			</feMerge>
		</filter>
		<mask id="mask-0ZKWN76F">
			<rect fill="url(#color-l1XT7JuX)" x="42.67" y="192" width="938.66" height="640"/>
		</mask>
		<mask id="mask-5T5qoQtT">
			<path d="M981.33,512c-73.81,187.31 -256,320 -469.33,320c-213.33,0 -395.52,-132.69 -469.33,-320c73.81,-187.31 256,-320 469.33,-320c213.33,0 395.52,132.69 469.33,320zM725.33,512c0,-117.76 -95.57,-213.33 -213.33,-213.33c-117.76,0 -213.33,95.57 -213.33,213.33c0,117.76 95.57,213.33 213.33,213.33c117.76,0 213.33,-95.57 213.33,-213.33zM640,512c0,70.83 -57.17,128 -128,128c-70.83,0 -128,-57.17 -128,-128c0,-70.83 57.17,-128 128,-128c70.83,0 128,57.17 128,128z" fill="#ffffff"/>
		</mask>
		<mask id="mask-bbeIYwoC">
			<path d="M981.33,512c-73.81,187.31 -256,320 -469.33,320c-213.33,0 -395.52,-132.69 -469.33,-320c73.81,-187.31 256,-320 469.33,-320c213.33,0 395.52,132.69 469.33,320zM725.33,512c0,-117.76 -95.57,-213.33 -213.33,-213.33c-117.76,0 -213.33,95.57 -213.33,213.33c0,117.76 95.57,213.33 213.33,213.33c117.76,0 213.33,-95.57 213.33,-213.33zM640,512c0,70.83 -57.17,128 -128,128c-70.83,0 -128,-57.17 -128,-128c0,-70.83 57.17,-128 128,-128c70.83,0 128,57.17 128,128z" fill="url(#color-AcCn0HVC)"/>
		</mask>
	</defs>
	<g fill="none" fill-rule="nonzero" style="mix-blend-mode: normal">
		<g mask="url(#mask-5T5qoQtT)">
			<g color="#ffc107" class="teamapps-color-2">
				<rect x="42.67" y="192" width="938.66" height="640" fill="currentColor"/>
			</g>
			<g color="#e65100" class="teamapps-color-3" mask="url(#mask-0ZKWN76F)">
				<rect x="42.67" y="192" width="938.66" height="640" fill="currentColor"/>
			</g>
		</g>
		<g filter="url(#filter-jxSyt5Qm)" mask="url(#mask-bbeIYwoC)">
			<g color="#fff59d" class="teamapps-color-1">
				<rect x="42.67" y="192" width="938.66" height="640" fill="currentColor"/>
			</g>
		</g>
		<g clip-path="url(#clip-9NFk7cj5)">
			<path d="M-50.33,875v-826h1124.66v826zM512,192c-213.33,0 -395.52,132.69 -469.33,320c73.81,187.31 256,320 469.33,320c213.33,0 395.52,-132.69 469.33,-320c-73.81,-187.31 -256,-320 -469.33,-320zM512,725.33c-117.76,0 -213.33,-95.57 -213.33,-213.33c0,-117.76 95.57,-213.33 213.33,-213.33c117.76,0 213.33,95.57 213.33,213.33c0,117.76 -95.57,213.33 -213.33,213.33zM512,384c-70.83,0 -128,57.17 -128,128c0,70.83 57.17,128 128,128c70.83,0 128,-57.17 128,-128c0,-70.83 -57.17,-128 -128,-128z" fill="#000000" filter="url(#filter-KQATPWP9)"/>
		</g>
	</g>
</svg>