<svg version="1.1" xmlns="http://www.w3.org/2000/svg" xmlns:xlink="http://www.w3.org/1999/xlink" viewBox="0,0,1024,1024">
	<!-- Color names: teamapps-color-1, teamapps-color-2, teamapps-color-3 -->
	<desc>volume_up icon - Licensed under Apache License v2.0 (http://www.apache.org/licenses/LICENSE-2.0) - Created with Iconfu.com - Derivative work of Material icons (Copyright Google Inc.)</desc>
	<defs>
		<clipPath id="clip-NYNSCJSB">
			<path d="M298.67,384l213.33,-213.33v682.66l-213.33,-213.33h-170.67v-256zM896,512c0,182.61 -127.58,335.36 -298.67,374.19v-87.9c123.31,-36.69 213.34,-151.04 213.34,-286.29c0,-135.25 -90.03,-249.6 -213.34,-286.29v-87.9c171.09,38.83 298.67,191.58 298.67,374.19zM597.33,683.52v-343.47c63.15,31.57 106.67,96.43 106.67,171.95c0,75.52 -43.52,140.37 -106.67,171.52z"/>
		</clipPath>
		<radialGradient cx="0" cy="0" r="1448.15" id="color-8mcT0Twb" gradientUnits="userSpaceOnUse">
			<stop offset="0.07" stop-color="#ffffff"/>
			<stop offset="0.75" stop-color="#000000"/>
		</radialGradient>
		<linearGradient x1="0" y1="1024" x2="1024" y2="0" id="color-ucKpK7W8" gradientUnits="userSpaceOnUse">
			<stop offset="0.2" stop-color="#000000"/>
			<stop offset="0.8" stop-color="#ffffff"/>
		</linearGradient>
		<filter id="filter-6DZq7ci1" color-interpolation-filters="sRGB">
			<feOffset/>
		</filter>
		<filter id="filter-o11EiBNz" x="0%" y="0%" width="100%" height="100%" color-interpolation-filters="sRGB">
			<feColorMatrix values="1 0 0 0 0 0 1 0 0 0 0 0 1 0 0 0 0 0 0.05 0" in="SourceGraphic"/>
			<feOffset dy="20"/>
			<feGaussianBlur stdDeviation="11" result="blur0"/>
			<feColorMatrix values="1 0 0 0 0 0 1 0 0 0 0 0 1 0 0 0 0 0 0.07 0" in="SourceGraphic"/>
			<feOffset dy="30"/>
			<feGaussianBlur stdDeviation="20" result="blur1"/>
			<feMerge>
				<feMergeNode in="blur0"/>
				<feMergeNode in="blur1"/>
			</feMerge>
		</filter>
		<mask id="mask-0OsiJQb7">
			<rect fill="url(#color-ucKpK7W8)" x="128" y="137.81" width="768" height="748.38"/>
		</mask>
		<mask id="mask-9NAhMVci">
			<path d="M298.67,384l213.33,-213.33v682.66l-213.33,-213.33h-170.67v-256zM896,512c0,182.61 -127.58,335.36 -298.67,374.19v-87.9c123.31,-36.69 213.34,-151.04 213.34,-286.29c0,-135.25 -90.03,-249.6 -213.34,-286.29v-87.9c171.09,38.83 298.67,191.58 298.67,374.19zM597.33,683.52v-343.47c63.15,31.57 106.67,96.43 106.67,171.95c0,75.52 -43.52,140.37 -106.67,171.52z" fill="url(#color-8mcT0Twb)"/>
		</mask>
		<mask id="mask-u1toaw7e">
			<path d="M298.67,384l213.33,-213.33v682.66l-213.33,-213.33h-170.67v-256zM896,512c0,182.61 -127.58,335.36 -298.67,374.19v-87.9c123.31,-36.69 213.34,-151.04 213.34,-286.29c0,-135.25 -90.03,-249.6 -213.34,-286.29v-87.9c171.09,38.83 298.67,191.58 298.67,374.19zM597.33,683.52v-343.47c63.15,31.57 106.67,96.43 106.67,171.95c0,75.52 -43.52,140.37 -106.67,171.52z" fill="#ffffff"/>
		</mask>
	</defs>
	<g fill="none" fill-rule="nonzero" style="mix-blend-mode: normal">
		<g mask="url(#mask-u1toaw7e)">
			<g color="#ffc107" class="teamapps-color-2">
				<rect x="128" y="137.81" width="768" height="748.38" fill="currentColor"/>
			</g>
			<g color="#e65100" class="teamapps-color-3" mask="url(#mask-0OsiJQb7)">
				<rect x="128" y="137.81" width="768" height="748.38" fill="currentColor"/>
			</g>
		</g>
		<g filter="url(#filter-6DZq7ci1)" mask="url(#mask-9NAhMVci)">
			<g color="#fff59d" class="teamapps-color-1">
				<rect x="128" y="137.81" width="768" height="748.38" fill="currentColor"/>
			</g>
		</g>
		<g clip-path="url(#clip-NYNSCJSB)">
			<path d="M35,929.19v-934.38h954v934.38zM128,384v256h170.67l213.33,213.33v-682.66l-213.33,213.33zM597.33,137.81v87.9c123.31,36.69 213.34,151.04 213.34,286.29c0,135.25 -90.03,249.6 -213.34,286.29v87.9c171.09,-38.83 298.67,-191.58 298.67,-374.19c0,-182.61 -127.58,-335.36 -298.67,-374.19zM704,512c0,-75.52 -43.52,-140.38 -106.67,-171.95v343.47c63.15,-31.15 106.67,-96 106.67,-171.52z" fill="#000000" filter="url(#filter-o11EiBNz)"/>
		</g>
	</g>
</svg>