<svg version="1.1" xmlns="http://www.w3.org/2000/svg" xmlns:xlink="http://www.w3.org/1999/xlink" viewBox="0,0,1024,1024">
	<!-- Color names: teamapps-color-1, teamapps-color-2, teamapps-color-3 -->
	<desc>vpn_key icon - Licensed under Apache License v2.0 (http://www.apache.org/licenses/LICENSE-2.0) - Created with Iconfu.com - Derivative work of Material icons (Copyright Google Inc.)</desc>
	<defs>
		<clipPath id="clip-V67IwkT4">
			<path d="M981.33,426.67v170.66h-85.33v170.67h-170.67v-170.67h-185.6c-34.99,99.41 -129.7,170.67 -241.06,170.67c-141.23,0 -256,-114.77 -256,-256c0,-141.23 114.77,-256 256,-256c111.36,0 206.07,71.26 241.06,170.67zM384,512c0,-46.93 -38.4,-85.33 -85.33,-85.33c-46.93,0 -85.34,38.4 -85.34,85.33c0,46.93 38.41,85.33 85.34,85.33c46.93,0 85.33,-38.4 85.33,-85.33z"/>
		</clipPath>
		<linearGradient x1="0" y1="1024" x2="1024" y2="0" id="color-xIuP2Bzq" gradientUnits="userSpaceOnUse">
			<stop offset="0.2" stop-color="#000000"/>
			<stop offset="0.8" stop-color="#ffffff"/>
		</linearGradient>
		<radialGradient cx="0" cy="0" r="1448.15" id="color-zE3MFzF8" gradientUnits="userSpaceOnUse">
			<stop offset="0.07" stop-color="#ffffff"/>
			<stop offset="0.75" stop-color="#000000"/>
		</radialGradient>
		<filter id="filter-68Sj9y3L" x="0%" y="0%" width="100%" height="100%" color-interpolation-filters="sRGB">
			<feColorMatrix values="1 0 0 0 0 0 1 0 0 0 0 0 1 0 0 0 0 0 0.05 0" in="SourceGraphic"/>
			<feOffset dy="20"/>
			<feGaussianBlur stdDeviation="11" result="blur0"/>
			<feColorMatrix values="1 0 0 0 0 0 1 0 0 0 0 0 1 0 0 0 0 0 0.07 0" in="SourceGraphic"/>
			<feOffset dy="30"/>
			<feGaussianBlur stdDeviation="20" result="blur1"/>
			<feMerge>
				<feMergeNode in="blur0"/>
				<feMergeNode in="blur1"/>
			</feMerge>
		</filter>
		<filter id="filter-Mbdsibz9" color-interpolation-filters="sRGB">
			<feOffset/>
		</filter>
		<mask id="mask-5JOQfC7E">
			<rect fill="url(#color-xIuP2Bzq)" x="42.67" y="256" width="938.66" height="512"/>
		</mask>
		<mask id="mask-i0Kxb2ag">
			<path d="M981.33,426.67v170.66h-85.33v170.67h-170.67v-170.67h-185.6c-34.99,99.41 -129.7,170.67 -241.06,170.67c-141.23,0 -256,-114.77 -256,-256c0,-141.23 114.77,-256 256,-256c111.36,0 206.07,71.26 241.06,170.67zM384,512c0,-46.93 -38.4,-85.33 -85.33,-85.33c-46.93,0 -85.34,38.4 -85.34,85.33c0,46.93 38.41,85.33 85.34,85.33c46.93,0 85.33,-38.4 85.33,-85.33z" fill="#ffffff"/>
		</mask>
		<mask id="mask-xedpjpMc">
			<path d="M981.33,426.67v170.66h-85.33v170.67h-170.67v-170.67h-185.6c-34.99,99.41 -129.7,170.67 -241.06,170.67c-141.23,0 -256,-114.77 -256,-256c0,-141.23 114.77,-256 256,-256c111.36,0 206.07,71.26 241.06,170.67zM384,512c0,-46.93 -38.4,-85.33 -85.33,-85.33c-46.93,0 -85.34,38.4 -85.34,85.33c0,46.93 38.41,85.33 85.34,85.33c46.93,0 85.33,-38.4 85.33,-85.33z" fill="url(#color-zE3MFzF8)"/>
		</mask>
	</defs>
	<g fill="none" fill-rule="nonzero" style="mix-blend-mode: normal">
		<g mask="url(#mask-i0Kxb2ag)">
			<g color="#ffc107" class="teamapps-color-2">
				<rect x="42.67" y="256" width="938.66" height="512" fill="currentColor"/>
			</g>
			<g color="#e65100" class="teamapps-color-3" mask="url(#mask-5JOQfC7E)">
				<rect x="42.67" y="256" width="938.66" height="512" fill="currentColor"/>
			</g>
		</g>
		<g filter="url(#filter-Mbdsibz9)" mask="url(#mask-xedpjpMc)">
			<g color="#fff59d" class="teamapps-color-1">
				<rect x="42.67" y="256" width="938.66" height="512" fill="currentColor"/>
			</g>
		</g>
		<g clip-path="url(#clip-V67IwkT4)">
			<path d="M-50.33,811v-698h1124.66v698zM539.73,426.67c-34.99,-99.41 -129.7,-170.67 -241.06,-170.67c-141.23,0 -256,114.77 -256,256c0,141.23 114.77,256 256,256c111.36,0 206.07,-71.26 241.06,-170.67h185.6v170.67h170.67v-170.67h85.33v-170.66zM298.67,597.33c-46.93,0 -85.34,-38.4 -85.34,-85.33c0,-46.93 38.41,-85.33 85.34,-85.33c46.93,0 85.33,38.4 85.33,85.33c0,46.93 -38.4,85.33 -85.33,85.33z" fill="#000000" filter="url(#filter-68Sj9y3L)"/>
		</g>
	</g>
</svg>