<svg version="1.1" xmlns="http://www.w3.org/2000/svg" xmlns:xlink="http://www.w3.org/1999/xlink" viewBox="0,0,1024,1024">
	<!-- Color names: teamapps-color-1, teamapps-color-2, teamapps-color-3 -->
	<desc>warning icon - Licensed under Apache License v2.0 (http://www.apache.org/licenses/LICENSE-2.0) - Created with Iconfu.com - Derivative work of Material icons (Copyright Google Inc.)</desc>
	<defs>
		<clipPath id="clip-Y2kFc1Ra">
			<path d="M512,85.33l469.33,810.67h-938.66zM554.67,426.67h-85.34v170.66h85.34zM554.67,682.67h-85.34v85.33h85.34z"/>
		</clipPath>
		<linearGradient x1="0" y1="1024" x2="1024" y2="0" id="color-afkbxjlH" gradientUnits="userSpaceOnUse">
			<stop offset="0.2" stop-color="#000000"/>
			<stop offset="0.8" stop-color="#ffffff"/>
		</linearGradient>
		<radialGradient cx="0" cy="0" r="1448.15" id="color-E6ahhDtb" gradientUnits="userSpaceOnUse">
			<stop offset="0.07" stop-color="#ffffff"/>
			<stop offset="0.75" stop-color="#000000"/>
		</radialGradient>
		<filter id="filter-xGzJXVQR" x="0%" y="0%" width="100%" height="100%" color-interpolation-filters="sRGB">
			<feColorMatrix values="1 0 0 0 0 0 1 0 0 0 0 0 1 0 0 0 0 0 0.05 0" in="SourceGraphic"/>
			<feOffset dy="20"/>
			<feGaussianBlur stdDeviation="11" result="blur0"/>
			<feColorMatrix values="1 0 0 0 0 0 1 0 0 0 0 0 1 0 0 0 0 0 0.07 0" in="SourceGraphic"/>
			<feOffset dy="30"/>
			<feGaussianBlur stdDeviation="20" result="blur1"/>
			<feMerge>
				<feMergeNode in="blur0"/>
				<feMergeNode in="blur1"/>
			</feMerge>
		</filter>
		<filter id="filter-Zrl4WWlX" color-interpolation-filters="sRGB">
			<feOffset/>
		</filter>
		<mask id="mask-HsbA3rmE">
			<path d="M512,85.33l469.33,810.67h-938.66zM554.67,426.67h-85.34v170.66h85.34zM554.67,682.67h-85.34v85.33h85.34z" fill="url(#color-E6ahhDtb)"/>
		</mask>
		<mask id="mask-LSyKamp3">
			<path d="M512,85.33l469.33,810.67h-938.66zM554.67,426.67h-85.34v170.66h85.34zM554.67,682.67h-85.34v85.33h85.34z" fill="#ffffff"/>
		</mask>
		<mask id="mask-TcGSgArA">
			<rect fill="url(#color-afkbxjlH)" x="42.67" y="85.33" width="938.66" height="810.67"/>
		</mask>
	</defs>
	<g fill="none" fill-rule="nonzero" style="mix-blend-mode: normal">
		<g mask="url(#mask-LSyKamp3)">
			<g color="#ffc107" class="teamapps-color-2">
				<rect x="42.67" y="85.33" width="938.66" height="810.67" fill="currentColor"/>
			</g>
			<g color="#e65100" class="teamapps-color-3" mask="url(#mask-TcGSgArA)">
				<rect x="42.67" y="85.33" width="938.66" height="810.67" fill="currentColor"/>
			</g>
		</g>
		<g filter="url(#filter-Zrl4WWlX)" mask="url(#mask-HsbA3rmE)">
			<g color="#fff59d" class="teamapps-color-1">
				<rect x="42.67" y="85.33" width="938.66" height="810.67" fill="currentColor"/>
			</g>
		</g>
		<g clip-path="url(#clip-Y2kFc1Ra)">
			<path d="M-50.33,939v-996.67h1124.66v996.67zM42.67,896h938.66l-469.33,-810.67zM554.67,597.33h-85.34v-170.66h85.34zM554.67,768h-85.34v-85.33h85.34z" fill="#000000" filter="url(#filter-xGzJXVQR)"/>
		</g>
	</g>
</svg>