<svg version="1.1" xmlns="http://www.w3.org/2000/svg" xmlns:xlink="http://www.w3.org/1999/xlink" viewBox="0,0,1024,1024">
	<!-- Color names: teamapps-color-1, teamapps-color-2, teamapps-color-3 -->
	<desc>wb_sunny icon - Licensed under Apache License v2.0 (http://www.apache.org/licenses/LICENSE-2.0) - Created with Iconfu.com - Derivative work of Material icons (Copyright Google Inc.)</desc>
	<defs>
		<clipPath id="clip-u6BEXWJg">
			<path d="M768,490.67c0,141.23 -114.77,256 -256,256c-141.23,0 -256,-114.77 -256,-256c0,-141.23 114.77,-256 256,-256c141.23,0 256,114.77 256,256zM227.84,714.24l60.16,60.16l-76.37,76.8l-60.16,-60.16zM227.84,266.67l-76.37,-76.38l60.16,-60.16l76.8,76.38zM796.16,266.67l-60.16,-60.16l76.37,-76.38l60.16,60.16zM795.31,715.09l76.8,76.38l-60.16,60.16l-76.38,-76.8zM170.67,533.33h-128v-85.33h128zM981.33,448v85.33h-128v-85.33zM554.67,149.33h-85.34v-125.86h85.34zM469.33,832h85.34v125.87h-85.34z"/>
		</clipPath>
		<radialGradient cx="0" cy="0" r="1448.15" id="color-icq0Gn02" gradientUnits="userSpaceOnUse">
			<stop offset="0.07" stop-color="#ffffff"/>
			<stop offset="0.75" stop-color="#000000"/>
		</radialGradient>
		<linearGradient x1="0" y1="1024" x2="1024" y2="0" id="color-scQIh6E6" gradientUnits="userSpaceOnUse">
			<stop offset="0.2" stop-color="#000000"/>
			<stop offset="0.8" stop-color="#ffffff"/>
		</linearGradient>
		<filter id="filter-UQksQ8Um" color-interpolation-filters="sRGB">
			<feOffset/>
		</filter>
		<filter id="filter-WT2xzJIi" x="0%" y="0%" width="100%" height="100%" color-interpolation-filters="sRGB">
			<feColorMatrix values="1 0 0 0 0 0 1 0 0 0 0 0 1 0 0 0 0 0 0.05 0" in="SourceGraphic"/>
			<feOffset dy="20"/>
			<feGaussianBlur stdDeviation="11" result="blur0"/>
			<feColorMatrix values="1 0 0 0 0 0 1 0 0 0 0 0 1 0 0 0 0 0 0.07 0" in="SourceGraphic"/>
			<feOffset dy="30"/>
			<feGaussianBlur stdDeviation="20" result="blur1"/>
			<feMerge>
				<feMergeNode in="blur0"/>
				<feMergeNode in="blur1"/>
			</feMerge>
		</filter>
		<mask id="mask-fu43j6D3">
			<path d="M768,490.67c0,141.23 -114.77,256 -256,256c-141.23,0 -256,-114.77 -256,-256c0,-141.23 114.77,-256 256,-256c141.23,0 256,114.77 256,256zM227.84,714.24l60.16,60.16l-76.37,76.8l-60.16,-60.16zM227.84,266.67l-76.37,-76.38l60.16,-60.16l76.8,76.38zM796.16,266.67l-60.16,-60.16l76.37,-76.38l60.16,60.16zM795.31,715.09l76.8,76.38l-60.16,60.16l-76.38,-76.8zM170.67,533.33h-128v-85.33h128zM981.33,448v85.33h-128v-85.33zM554.67,149.33h-85.34v-125.86h85.34zM469.33,832h85.34v125.87h-85.34z" fill="url(#color-icq0Gn02)"/>
		</mask>
		<mask id="mask-L2MXic9y">
			<path d="M768,490.67c0,141.23 -114.77,256 -256,256c-141.23,0 -256,-114.77 -256,-256c0,-141.23 114.77,-256 256,-256c141.23,0 256,114.77 256,256zM227.84,714.24l60.16,60.16l-76.37,76.8l-60.16,-60.16zM227.84,266.67l-76.37,-76.38l60.16,-60.16l76.8,76.38zM796.16,266.67l-60.16,-60.16l76.37,-76.38l60.16,60.16zM795.31,715.09l76.8,76.38l-60.16,60.16l-76.38,-76.8zM170.67,533.33h-128v-85.33h128zM981.33,448v85.33h-128v-85.33zM554.67,149.33h-85.34v-125.86h85.34zM469.33,832h85.34v125.87h-85.34z" fill="#ffffff"/>
		</mask>
		<mask id="mask-xTLZNsqi">
			<rect fill="url(#color-scQIh6E6)" x="42.67" y="23.47" width="938.66" height="934.4"/>
		</mask>
	</defs>
	<g fill="none" fill-rule="nonzero" style="mix-blend-mode: normal">
		<g mask="url(#mask-L2MXic9y)">
			<g color="#ffc107" class="teamapps-color-2">
				<rect x="42.67" y="23.47" width="938.66" height="934.4" fill="currentColor"/>
			</g>
			<g color="#e65100" class="teamapps-color-3" mask="url(#mask-xTLZNsqi)">
				<rect x="42.67" y="23.47" width="938.66" height="934.4" fill="currentColor"/>
			</g>
		</g>
		<g filter="url(#filter-UQksQ8Um)" mask="url(#mask-fu43j6D3)">
			<g color="#fff59d" class="teamapps-color-1">
				<rect x="42.67" y="23.47" width="938.66" height="934.4" fill="currentColor"/>
			</g>
		</g>
		<g clip-path="url(#clip-u6BEXWJg)">
			<path d="M-50.33,1000.87v-1120.4h1124.66v1120.4zM512,234.67c-141.23,0 -256,114.77 -256,256c0,141.23 114.77,256 256,256c141.23,0 256,-114.77 256,-256c0,-141.23 -114.77,-256 -256,-256zM151.47,791.04l60.16,60.16l76.37,-76.8l-60.16,-60.16zM288.43,206.51l-76.8,-76.38l-60.16,60.16l76.37,76.38zM872.53,190.29l-60.16,-60.16l-76.37,76.38l60.16,60.16zM735.57,774.83l76.38,76.8l60.16,-60.16l-76.8,-76.38zM170.67,448h-128v85.33h128zM853.33,448v85.33h128v-85.33zM554.67,23.47h-85.34v125.86h85.34zM469.33,957.87h85.34v-125.87h-85.34z" fill="#000000" filter="url(#filter-WT2xzJIi)"/>
		</g>
	</g>
</svg>