<svg version="1.1" xmlns="http://www.w3.org/2000/svg" xmlns:xlink="http://www.w3.org/1999/xlink" viewBox="0,0,1024,1024">
	<!-- Color names: teamapps-color-1, teamapps-color-2, teamapps-color-3 -->
	<desc>wrap_text icon - Licensed under Apache License v2.0 (http://www.apache.org/licenses/LICENSE-2.0) - Created with Iconfu.com - Derivative work of Material icons (Copyright Google Inc.)</desc>
	<defs>
		<clipPath id="clip-YPWRkK6I">
			<path d="M896,640c0,94.29 -76.38,170.67 -170.67,170.67h-85.33v85.33l-128,-128l128,-128v85.33h96c46.93,0 85.33,-38.4 85.33,-85.33c0,-46.93 -38.4,-85.33 -85.33,-85.33h-565.33v-85.34h554.66c94.29,0 170.67,76.38 170.67,170.67zM853.33,298.67h-682.66v-85.34h682.66zM170.67,725.33h256v85.34h-256z"/>
		</clipPath>
		<radialGradient cx="0" cy="0" r="1448.15" id="color-46HR57j5" gradientUnits="userSpaceOnUse">
			<stop offset="0.07" stop-color="#ffffff"/>
			<stop offset="0.75" stop-color="#000000"/>
		</radialGradient>
		<linearGradient x1="0" y1="1024" x2="1024" y2="0" id="color-ync4muUP" gradientUnits="userSpaceOnUse">
			<stop offset="0.2" stop-color="#000000"/>
			<stop offset="0.8" stop-color="#ffffff"/>
		</linearGradient>
		<filter id="filter-LRZzp7Nj" x="0%" y="0%" width="100%" height="100%" color-interpolation-filters="sRGB">
			<feColorMatrix values="1 0 0 0 0 0 1 0 0 0 0 0 1 0 0 0 0 0 0.05 0" in="SourceGraphic"/>
			<feOffset dy="20"/>
			<feGaussianBlur stdDeviation="11" result="blur0"/>
			<feColorMatrix values="1 0 0 0 0 0 1 0 0 0 0 0 1 0 0 0 0 0 0.07 0" in="SourceGraphic"/>
			<feOffset dy="30"/>
			<feGaussianBlur stdDeviation="20" result="blur1"/>
			<feMerge>
				<feMergeNode in="blur0"/>
				<feMergeNode in="blur1"/>
			</feMerge>
		</filter>
		<filter id="filter-oF0XLHQF" color-interpolation-filters="sRGB">
			<feOffset/>
		</filter>
		<mask id="mask-2xdEeOXE">
			<path d="M896,640c0,94.29 -76.38,170.67 -170.67,170.67h-85.33v85.33l-128,-128l128,-128v85.33h96c46.93,0 85.33,-38.4 85.33,-85.33c0,-46.93 -38.4,-85.33 -85.33,-85.33h-565.33v-85.34h554.66c94.29,0 170.67,76.38 170.67,170.67zM853.33,298.67h-682.66v-85.34h682.66zM170.67,725.33h256v85.34h-256z" fill="#ffffff"/>
		</mask>
		<mask id="mask-fA0JcRg8">
			<rect fill="url(#color-ync4muUP)" x="170.67" y="213.33" width="725.33" height="682.67"/>
		</mask>
		<mask id="mask-wwrXmuyM">
			<path d="M896,640c0,94.29 -76.38,170.67 -170.67,170.67h-85.33v85.33l-128,-128l128,-128v85.33h96c46.93,0 85.33,-38.4 85.33,-85.33c0,-46.93 -38.4,-85.33 -85.33,-85.33h-565.33v-85.34h554.66c94.29,0 170.67,76.38 170.67,170.67zM853.33,298.67h-682.66v-85.34h682.66zM170.67,725.33h256v85.34h-256z" fill="url(#color-46HR57j5)"/>
		</mask>
	</defs>
	<g fill="none" fill-rule="nonzero" style="mix-blend-mode: normal">
		<g mask="url(#mask-2xdEeOXE)">
			<g color="#ffc107" class="teamapps-color-2">
				<rect x="170.67" y="213.33" width="725.33" height="682.67" fill="currentColor"/>
			</g>
			<g color="#e65100" class="teamapps-color-3" mask="url(#mask-fA0JcRg8)">
				<rect x="170.67" y="213.33" width="725.33" height="682.67" fill="currentColor"/>
			</g>
		</g>
		<g filter="url(#filter-oF0XLHQF)" mask="url(#mask-wwrXmuyM)">
			<g color="#fff59d" class="teamapps-color-1">
				<rect x="170.67" y="213.33" width="725.33" height="682.67" fill="currentColor"/>
			</g>
		</g>
		<g clip-path="url(#clip-YPWRkK6I)">
			<path d="M77.67,939v-868.67h911.33v868.67zM725.33,469.33h-554.66v85.34h565.33c46.93,0 85.33,38.4 85.33,85.33c0,46.93 -38.4,85.33 -85.33,85.33h-96v-85.33l-128,128l128,128v-85.33h85.33c94.29,0 170.67,-76.38 170.67,-170.67c0,-94.29 -76.38,-170.67 -170.67,-170.67zM853.33,213.33h-682.66v85.34h682.66zM170.67,810.67h256v-85.34h-256z" fill="#000000" filter="url(#filter-LRZzp7Nj)"/>
		</g>
	</g>
</svg>