<svg version="1.1" xmlns="http://www.w3.org/2000/svg" xmlns:xlink="http://www.w3.org/1999/xlink" viewBox="0,0,1024,1024">
	<!-- Color names: teamapps-color-1 -->
	<desc>adjust icon - Licensed under Apache License v2.0 (http://www.apache.org/licenses/LICENSE-2.0) - Created with Iconfu.com - Derivative work of Material icons (Copyright Google Inc.)</desc>
	<g fill="none" fill-rule="nonzero" style="mix-blend-mode: normal">
		<g color="#039be5" class="teamapps-color-1">
			<path d="M938.67,512c0,235.09 -191.58,426.67 -426.67,426.67c-235.09,0 -426.67,-191.58 -426.67,-426.67c0,-235.09 191.58,-426.67 426.67,-426.67c235.09,0 426.67,191.58 426.67,426.67zM853.33,512c0,-188.16 -153.17,-341.33 -341.33,-341.33c-188.16,0 -341.33,153.17 -341.33,341.33c0,188.16 153.17,341.33 341.33,341.33c188.16,0 341.33,-153.17 341.33,-341.33zM640,512c0,70.83 -57.17,128 -128,128c-70.83,0 -128,-57.17 -128,-128c0,-70.83 57.17,-128 128,-128c70.83,0 128,57.17 128,128z" fill="currentColor"/>
		</g>
	</g>
</svg>