<svg version="1.1" xmlns="http://www.w3.org/2000/svg" xmlns:xlink="http://www.w3.org/1999/xlink" viewBox="0,0,1024,1024">
	<!-- Color names: teamapps-color-1 -->
	<desc>airline_seat_legroom_extra icon - Licensed under Apache License v2.0 (http://www.apache.org/licenses/LICENSE-2.0) - Created with Iconfu.com - Derivative work of Material icons (Copyright Google Inc.)</desc>
	<g fill="none" fill-rule="nonzero" style="mix-blend-mode: normal">
		<g color="#039be5" class="teamapps-color-1">
			<path d="M944.21,823.47l-158.72,72.53l-145.49,-298.67h-298.67c-70.83,0 -128,-57.17 -128,-128v-341.33h256v256l149.76,0.43c32.43,0 61.87,18.77 76.38,47.78l145.49,297.82l46.51,-21.34c31.57,-14.51 70.4,-3.84 86.61,26.88c17.07,32.43 2.98,72.54 -29.87,87.9zM298.67,640h256v85.33h-256c-117.76,0 -213.34,-95.57 -213.34,-213.33v-384h85.34v384c0,70.83 57.17,128 128,128z" fill="currentColor"/>
		</g>
	</g>
</svg>