<svg version="1.1" xmlns="http://www.w3.org/2000/svg" xmlns:xlink="http://www.w3.org/1999/xlink" viewBox="0,0,1024,1024">
	<!-- Color names: teamapps-color-1 -->
	<desc>airport_shuttle icon - Licensed under Apache License v2.0 (http://www.apache.org/licenses/LICENSE-2.0) - Created with Iconfu.com - Derivative work of Material icons (Copyright Google Inc.)</desc>
	<g fill="none" fill-rule="nonzero" style="mix-blend-mode: normal">
		<g color="#039be5" class="teamapps-color-1">
			<path d="M981.33,469.33v213.34h-106.66c0,70.4 -57.17,128 -128,128c-70.83,0 -128,-57.6 -128,-128h-234.67c0,70.4 -57.17,128 -128,128c-70.83,0 -128,-57.6 -128,-128h-85.33v-384c0,-47.36 38.4,-85.34 85.33,-85.34h597.33zM853.33,469.33l-170.66,-170.66h-42.67v170.66zM298.67,469.33v-170.66h-170.67v170.66zM554.67,298.67h-170.67v170.66h170.67zM320,682.67c0,-35.41 -28.59,-64 -64,-64c-35.41,0 -64,28.59 -64,64c0,35.41 28.59,64 64,64c35.41,0 64,-28.59 64,-64zM810.67,682.67c0,-35.41 -28.59,-64 -64,-64c-35.41,0 -64,28.59 -64,64c0,35.41 28.59,64 64,64c35.41,0 64,-28.59 64,-64z" fill="currentColor"/>
		</g>
	</g>
</svg>