<svg version="1.1" xmlns="http://www.w3.org/2000/svg" xmlns:xlink="http://www.w3.org/1999/xlink" viewBox="0,0,1024,1024">
	<!-- Color names: teamapps-color-1 -->
	<desc>border_horizontal icon - Licensed under Apache License v2.0 (http://www.apache.org/licenses/LICENSE-2.0) - Created with Iconfu.com - Derivative work of Material icons (Copyright Google Inc.)</desc>
	<g fill="none" fill-rule="nonzero" style="mix-blend-mode: normal">
		<g color="#039be5" class="teamapps-color-1">
			<path d="M128,469.33h768v85.34h-768zM298.67,810.67h85.33v85.33h-85.33zM810.67,298.67h85.33v85.33h-85.33zM810.67,810.67h85.33v85.33h-85.33zM128,810.67h85.33v85.33h-85.33zM213.33,384h-85.33v-85.33h85.33zM384,213.33h-85.33v-85.33h85.33zM554.67,384h-85.34v-85.33h85.34zM469.33,810.67h85.34v85.33h-85.34zM896,128v85.33h-85.33v-85.33zM213.33,213.33h-85.33v-85.33h85.33zM554.67,213.33h-85.34v-85.33h85.34zM810.67,640h85.33v85.33h-85.33zM640,810.67h85.33v85.33h-85.33zM128,640h85.33v85.33h-85.33zM725.33,213.33h-85.33v-85.33h85.33zM469.33,640h85.34v85.33h-85.34z" fill="currentColor"/>
		</g>
	</g>
</svg>