<svg version="1.1" xmlns="http://www.w3.org/2000/svg" xmlns:xlink="http://www.w3.org/1999/xlink" viewBox="0,0,1024,1024">
	<!-- Color names: teamapps-color-1 -->
	<desc>business_center icon - Licensed under Apache License v2.0 (http://www.apache.org/licenses/LICENSE-2.0) - Created with Iconfu.com - Derivative work of Material icons (Copyright Google Inc.)</desc>
	<g fill="none" fill-rule="nonzero" style="mix-blend-mode: normal">
		<g color="#039be5" class="teamapps-color-1">
			<path d="M938.67,384v128c0,46.93 -38.41,85.33 -85.34,85.33h-256v-85.33h-170.66v85.33h-256c-47.36,0 -85.34,-37.97 -85.34,-85.33v-128c0,-46.93 38.41,-85.33 85.34,-85.33h170.24v-85.34l85.33,-85.33h170.67l85.33,85.33v85.34h171.09c46.93,0 85.34,38.4 85.34,85.33zM597.33,682.67v-42.67h298.67v170.67c0,47.36 -37.97,85.33 -85.33,85.33h-597.34c-47.36,0 -85.33,-37.97 -85.33,-85.33l0.43,-170.67h298.24v42.67zM597.33,213.33h-170.66v85.34h170.66z" fill="currentColor"/>
		</g>
	</g>
</svg>