<svg version="1.1" xmlns="http://www.w3.org/2000/svg" xmlns:xlink="http://www.w3.org/1999/xlink" viewBox="0,0,1024,1024">
	<!-- Color names: teamapps-color-1 -->
	<desc>confirmation_number icon - Licensed under Apache License v2.0 (http://www.apache.org/licenses/LICENSE-2.0) - Created with Iconfu.com - Derivative work of Material icons (Copyright Google Inc.)</desc>
	<g fill="none" fill-rule="nonzero" style="mix-blend-mode: normal">
		<g color="#039be5" class="teamapps-color-1">
			<path d="M853.33,512c0,46.93 38.41,85.33 85.34,85.33v170.67c0,46.93 -38.41,85.33 -85.34,85.33h-682.66c-46.93,0 -85.34,-38.4 -85.34,-85.33v-170.67c47.36,0 85.34,-38.4 85.34,-85.33c0,-46.93 -37.98,-85.33 -84.91,-85.33v-170.67c0,-47.36 37.98,-85.33 84.91,-85.33h682.66c46.93,0 85.34,37.97 85.34,85.33v170.67c-46.93,0 -85.34,38.4 -85.34,85.33zM554.67,661.33h-85.34v85.34h85.34zM554.67,469.33h-85.34v85.34h85.34zM554.67,277.33h-85.34v85.34h85.34z" fill="currentColor"/>
		</g>
	</g>
</svg>