<svg version="1.1" xmlns="http://www.w3.org/2000/svg" xmlns:xlink="http://www.w3.org/1999/xlink" viewBox="0,0,1024,1024">
	<!-- Color names: teamapps-color-1 -->
	<desc>contact_phone icon - Licensed under Apache License v2.0 (http://www.apache.org/licenses/LICENSE-2.0) - Created with Iconfu.com - Derivative work of Material icons (Copyright Google Inc.)</desc>
	<g fill="none" fill-rule="nonzero" style="mix-blend-mode: normal">
		<g color="#039be5" class="teamapps-color-1">
			<path d="M1024,213.33l-0.43,597.34c0,46.93 -37.97,85.33 -84.9,85.33h-853.34c-46.93,0 -85.33,-38.4 -85.33,-85.33v-597.34c0,-46.93 38.4,-85.33 85.33,-85.33h853.34c46.93,0 85.33,38.4 85.33,85.33zM746.67,512c0,-29.87 5.54,-58.45 14.93,-85.33h69.97l64.43,-85.34l-84.91,-84.9c-55.89,41.81 -97.28,101.12 -116.48,170.24c-7.68,27.31 -11.94,55.89 -11.94,85.33c0,29.44 4.26,58.02 11.94,85.33c19.2,68.69 60.59,128.43 116.48,170.24l84.91,-84.9l-64.43,-85.34h-69.97c-9.39,-26.88 -14.93,-55.46 -14.93,-85.33zM597.33,725.33c0,-85.33 -170.67,-132.26 -256,-132.26c-85.33,0 -256,46.93 -256,132.26v42.67h512zM213.33,384c0,70.83 57.17,128 128,128c70.83,0 128,-57.17 128,-128c0,-70.83 -57.17,-128 -128,-128c-70.83,0 -128,57.17 -128,128z" fill="currentColor"/>
		</g>
	</g>
</svg>