<svg version="1.1" xmlns="http://www.w3.org/2000/svg" xmlns:xlink="http://www.w3.org/1999/xlink" viewBox="0,0,1024,1024">
	<!-- Color names: teamapps-color-1 -->
	<desc>dialer_sip icon - Licensed under Apache License v2.0 (http://www.apache.org/licenses/LICENSE-2.0) - Created with Iconfu.com - Derivative work of Material icons (Copyright Google Inc.)</desc>
	<g fill="none" fill-rule="nonzero" style="mix-blend-mode: normal">
		<g color="#039be5" class="teamapps-color-1">
			<path d="M896,704v149.33c0,23.47 -19.2,42.67 -42.67,42.67c-400.64,0 -725.33,-324.69 -725.33,-725.33c0,-23.47 19.2,-42.67 42.67,-42.67h149.33c23.47,0 42.67,19.2 42.67,42.67c0,53.33 8.53,104.53 24.32,152.32c4.69,14.93 1.28,31.57 -10.24,42.66l-93.87,94.3c61.44,121.17 160.42,219.73 281.17,281.17l93.87,-93.87c11.52,-11.52 28.16,-14.93 43.09,-10.24c47.79,15.79 98.99,24.32 152.32,24.32c23.47,0 42.67,19.2 42.67,42.67zM640,341.33h-128v-42.66h85.33v-42.67h-85.33v-128h128v42.67h-85.33v42.66h85.33zM896,128v128h-85.33v85.33h-42.67v-213.33zM725.33,341.33h-42.66v-213.33h42.66zM853.33,170.67h-42.66v42.66h42.66z" fill="currentColor"/>
		</g>
	</g>
</svg>