<svg version="1.1" xmlns="http://www.w3.org/2000/svg" xmlns:xlink="http://www.w3.org/1999/xlink" viewBox="0,0,1024,1024">
	<!-- Color names: teamapps-color-1 -->
	<desc>dns icon - Licensed under Apache License v2.0 (http://www.apache.org/licenses/LICENSE-2.0) - Created with Iconfu.com - Derivative work of Material icons (Copyright Google Inc.)</desc>
	<g fill="none" fill-rule="nonzero" style="mix-blend-mode: normal">
		<g color="#039be5" class="teamapps-color-1">
			<path d="M896,597.33v256c0,23.47 -19.2,42.67 -42.67,42.67h-682.66c-23.47,0 -42.67,-19.2 -42.67,-42.67v-256c0,-23.47 19.2,-42.66 42.67,-42.66h682.66c23.47,0 42.67,19.19 42.67,42.66zM896,170.67v256c0,23.47 -19.2,42.66 -42.67,42.66h-682.66c-23.47,0 -42.67,-19.19 -42.67,-42.66v-256c0,-23.47 19.2,-42.67 42.67,-42.67h682.66c23.47,0 42.67,19.2 42.67,42.67zM384,298.67c0,-46.93 -38.4,-85.34 -85.33,-85.34c-46.93,0 -85.34,38.41 -85.34,85.34c0,46.93 38.41,85.33 85.34,85.33c46.93,0 85.33,-38.4 85.33,-85.33zM384,725.33c0,-46.93 -38.4,-85.33 -85.33,-85.33c-46.93,0 -85.34,38.4 -85.34,85.33c0,46.93 38.41,85.34 85.34,85.34c46.93,0 85.33,-38.41 85.33,-85.34z" fill="currentColor"/>
		</g>
	</g>
</svg>