<svg version="1.1" xmlns="http://www.w3.org/2000/svg" xmlns:xlink="http://www.w3.org/1999/xlink" viewBox="0,0,1024,1024">
	<!-- Color names: teamapps-color-1 -->
	<desc>euro_symbol icon - Licensed under Apache License v2.0 (http://www.apache.org/licenses/LICENSE-2.0) - Created with Iconfu.com - Derivative work of Material icons (Copyright Google Inc.)</desc>
	<g fill="none" fill-rule="nonzero" style="mix-blend-mode: normal">
		<g color="#039be5" class="teamapps-color-1">
			<path d="M820.05,722.35l75.95,75.52c-67.84,61.01 -157.44,98.13 -256,98.13c-167.25,0 -308.9,-107.09 -361.81,-256h-150.19v-85.33h130.56c-1.71,-14.08 -2.56,-28.16 -2.56,-42.67c0,-14.51 0.85,-28.59 2.56,-42.67h-130.56v-85.33h150.19c52.91,-148.91 194.56,-256 361.81,-256c98.13,0 188.16,37.12 256,98.13l-75.52,75.52c-48.64,-41.81 -111.79,-66.98 -180.48,-66.98c-106.67,0 -199.68,60.58 -245.76,149.33h245.76v85.33h-273.92c-2.13,14.08 -3.41,28.16 -3.41,42.67c0,14.51 1.28,28.59 3.41,42.67h273.92v85.33h-245.76c46.08,88.75 138.67,149.33 245.76,149.33c69.12,0 131.84,-25.17 180.05,-66.98z" fill="currentColor"/>
		</g>
	</g>
</svg>