<svg version="1.1" xmlns="http://www.w3.org/2000/svg" xmlns:xlink="http://www.w3.org/1999/xlink" viewBox="0,0,1024,1024">
	<!-- Color names: teamapps-color-1 -->
	<desc>filter_vintage icon - Licensed under Apache License v2.0 (http://www.apache.org/licenses/LICENSE-2.0) - Created with Iconfu.com - Derivative work of Material icons (Copyright Google Inc.)</desc>
	<g fill="none" fill-rule="nonzero" style="mix-blend-mode: normal">
		<g color="#039be5" class="teamapps-color-1">
			<path d="M925.87,750.51c-76.8,43.95 -174.08,47.36 -256,0c-11.95,-6.83 -23.04,-14.51 -33.28,-23.04c2.13,13.23 3.41,26.88 3.41,40.53c0,94.72 -51.63,177.07 -128,221.44c-76.37,-44.37 -128,-126.72 -128,-221.44c0,-13.65 1.28,-27.31 3.41,-40.96c-10.24,8.11 -21.33,16.21 -33.28,23.04c-82.35,47.36 -179.63,43.95 -256,0c0.43,-88.32 46.08,-174.08 128,-221.44c11.95,-6.83 24.33,-12.38 36.7,-17.07c-12.37,-4.69 -24.75,-10.23 -36.7,-17.06c-82.35,-47.36 -128,-133.12 -128,-221.44c76.8,-43.95 174.08,-47.36 256,0c11.95,6.83 23.04,14.93 33.28,23.46c-2.13,-13.23 -3.41,-26.88 -3.41,-40.53c0,-94.72 51.63,-177.07 128,-221.44c76.37,44.37 128,126.72 128,221.44c0,13.65 -1.28,27.3 -3.41,40.53c10.24,-8.11 21.33,-16.21 33.28,-23.04c82.35,-47.36 179.63,-43.95 256,0c-0.43,88.32 -46.08,174.08 -128,221.44c-11.95,6.83 -24.33,12.38 -36.7,17.07c12.37,4.69 24.75,10.24 36.7,17.07c81.92,47.36 127.57,133.12 128,221.44zM682.67,512c0,-94.29 -76.38,-170.67 -170.67,-170.67c-94.29,0 -170.67,76.38 -170.67,170.67c0,94.29 76.38,170.67 170.67,170.67c94.29,0 170.67,-76.38 170.67,-170.67z" fill="currentColor"/>
		</g>
	</g>
</svg>