<svg version="1.1" xmlns="http://www.w3.org/2000/svg" xmlns:xlink="http://www.w3.org/1999/xlink" viewBox="0,0,1024,1024">
	<!-- Color names: teamapps-color-1 -->
	<desc>filter_tilt_shift icon - Licensed under Apache License v2.0 (http://www.apache.org/licenses/LICENSE-2.0) - Created with Iconfu.com - Derivative work of Material icons (Copyright Google Inc.)</desc>
	<g fill="none" fill-rule="nonzero" style="mix-blend-mode: normal">
		<g color="#039be5" class="teamapps-color-1">
			<path d="M512,640c-70.83,0 -128,-57.17 -128,-128c0,-70.83 57.17,-128 128,-128c70.83,0 128,57.17 128,128c0,70.83 -57.17,128 -128,128zM781.23,302.93l61.01,-60.58c51.63,63.15 85.76,141.22 94.29,226.98h-86.18c-7.68,-62.29 -32.43,-119.04 -69.12,-166.4zM850.35,555.09h86.18c-8.53,85.33 -42.66,163.84 -94.29,226.99l-61.01,-61.01c36.69,-47.36 61.44,-104.11 69.12,-165.98zM720.64,781.23l61.01,61.01c-63.15,51.63 -141.22,85.76 -226.98,94.29v-86.18c62.29,-7.68 119.04,-32.43 165.97,-69.12zM302.93,781.23c47.36,36.69 104.11,61.44 166.4,69.12v86.18c-85.33,-8.53 -163.83,-42.66 -226.98,-94.29zM302.93,242.77l-60.58,-61.01c63.15,-51.63 141.22,-85.76 226.98,-94.29v86.18c-62.29,7.68 -119.04,32.43 -166.4,69.12zM721.07,242.77c-47.36,-36.69 -104.11,-61.44 -166.4,-69.12v-86.18c85.76,8.53 163.83,42.66 226.98,94.29zM173.65,469.33h-86.18c8.53,-85.76 42.66,-163.83 94.29,-226.98l61.01,60.58c-36.69,47.36 -61.44,104.11 -69.12,166.4zM242.77,720.64l-61.01,61.01c-51.63,-63.15 -85.76,-141.22 -94.29,-226.98h86.18c7.68,62.29 32.43,119.04 69.12,165.97z" fill="currentColor"/>
		</g>
	</g>
</svg>