<svg version="1.1" xmlns="http://www.w3.org/2000/svg" xmlns:xlink="http://www.w3.org/1999/xlink" viewBox="0,0,1024,1024">
	<!-- Color names: teamapps-color-1 -->
	<desc>flare icon - Licensed under Apache License v2.0 (http://www.apache.org/licenses/LICENSE-2.0) - Created with Iconfu.com - Derivative work of Material icons (Copyright Google Inc.)</desc>
	<g fill="none" fill-rule="nonzero" style="mix-blend-mode: normal">
		<g color="#039be5" class="teamapps-color-1">
			<path d="M640,512c0,70.83 -57.17,128 -128,128c-70.83,0 -128,-57.17 -128,-128c0,-70.83 57.17,-128 128,-128c70.83,0 128,57.17 128,128zM331.09,632.75l60.16,60.16l-90.45,90.45l-60.16,-60.16zM331.09,391.25l-90.45,-90.45l60.16,-60.16l90.45,90.45zM692.91,391.25l-60.16,-60.16l90.45,-90.45l60.16,60.16zM692.91,632.75l90.45,90.45l-60.16,60.16l-90.45,-90.45zM981.33,469.33v85.34h-256v-85.34zM469.33,725.33h85.34v256h-85.34zM298.67,554.67h-256v-85.34h256zM554.67,298.67h-85.34v-256h85.34z" fill="currentColor"/>
		</g>
	</g>
</svg>