<svg version="1.1" xmlns="http://www.w3.org/2000/svg" xmlns:xlink="http://www.w3.org/1999/xlink" viewBox="0,0,1024,1024">
	<!-- Color names: teamapps-color-1 -->
	<desc>g_translate icon - Licensed under Apache License v2.0 (http://www.apache.org/licenses/LICENSE-2.0) - Created with Iconfu.com - Derivative work of Material icons (Copyright Google Inc.)</desc>
	<g fill="none" fill-rule="nonzero" style="mix-blend-mode: normal">
		<g color="#039be5" class="teamapps-color-1">
			<path d="M938.67,298.67v554.66c0,46.93 -38.41,85.34 -85.34,85.34h-341.33l-42.67,-128h-298.66c-46.93,0 -85.34,-38.41 -85.34,-85.34v-554.66c0,-46.93 38.41,-85.34 85.34,-85.34h256l37.54,128h389.12c46.93,0 85.34,38.41 85.34,85.34zM896,298.67c0,-23.47 -19.2,-42.67 -42.67,-42.67h-376.32l50.35,172.37h83.63v-44.37h44.37v44.37h155.31v44.38h-54.19c-13.65,53.76 -43.52,105.81 -81.92,149.76l115.63,114.34l-31.15,31.15l-114.35,-114.77l-39.25,39.25l34.56,118.19l-85.33,85.33h298.66c23.47,0 42.67,-19.2 42.67,-42.67zM473.17,451.84c0,-8.96 -0.42,-17.07 -2.13,-26.03l-0.43,-2.98h-168.53v66.13h94.29c-6.83,25.17 -32,62.29 -90.45,62.29c-55.89,0 -101.55,-46.5 -101.55,-103.25c0,-56.75 45.66,-103.25 101.55,-103.25c31.57,0 52.48,13.65 64.85,25.17l2.56,2.13l52.48,-50.34l-2.98,-2.56c-32,-29.87 -72.54,-45.66 -116.91,-45.66c-96.43,0 -174.51,78.08 -174.51,174.51c0,96.43 78.51,174.51 174.51,174.51c98.56,0 167.25,-70.4 167.25,-170.67zM644.27,589.65c52.05,-61.01 66.56,-116.9 66.56,-116.9h-170.24l13.22,44.37h42.24c10.24,20.05 26.03,46.08 48.22,72.53zM590.93,644.69l23.04,-22.61c-19.2,-22.19 -36.69,-46.93 -50.77,-72.53z" fill="currentColor"/>
		</g>
	</g>
</svg>