<svg version="1.1" xmlns="http://www.w3.org/2000/svg" xmlns:xlink="http://www.w3.org/1999/xlink" viewBox="0,0,1024,1024">
	<!-- Color names: teamapps-color-1 -->
	<desc>hdr_strong icon - Licensed under Apache License v2.0 (http://www.apache.org/licenses/LICENSE-2.0) - Created with Iconfu.com - Derivative work of Material icons (Copyright Google Inc.)</desc>
	<g fill="none" fill-rule="nonzero" style="mix-blend-mode: normal">
		<g color="#039be5" class="teamapps-color-1">
			<path d="M981.33,512c0,141.23 -114.77,256 -256,256c-141.23,0 -256,-114.77 -256,-256c0,-141.23 114.77,-256 256,-256c141.23,0 256,114.77 256,256zM384,512c0,94.29 -76.38,170.67 -170.67,170.67c-94.29,0 -170.66,-76.38 -170.66,-170.67c0,-94.29 76.37,-170.67 170.66,-170.67c94.29,0 170.67,76.38 170.67,170.67zM298.67,512c0,-46.93 -38.41,-85.33 -85.34,-85.33c-46.93,0 -85.33,38.4 -85.33,85.33c0,46.93 38.4,85.33 85.33,85.33c46.93,0 85.34,-38.4 85.34,-85.33z" fill="currentColor"/>
		</g>
	</g>
</svg>