<svg version="1.1" xmlns="http://www.w3.org/2000/svg" xmlns:xlink="http://www.w3.org/1999/xlink" viewBox="0,0,1024,1024">
	<!-- Color names: teamapps-color-1 -->
	<desc>hot_tub icon - Licensed under Apache License v2.0 (http://www.apache.org/licenses/LICENSE-2.0) - Created with Iconfu.com - Derivative work of Material icons (Copyright Google Inc.)</desc>
	<g fill="none" fill-rule="nonzero" style="mix-blend-mode: normal">
		<g color="#039be5" class="teamapps-color-1">
			<path d="M213.33,256c0,-47.13 38.21,-85.33 85.34,-85.33c47.13,0 85.33,38.2 85.33,85.33c0,47.13 -38.2,85.33 -85.33,85.33c-47.13,0 -85.34,-38.2 -85.34,-85.33z" fill="currentColor"/>
		</g>
		<g color="#039be5" class="teamapps-color-1">
			<path d="M938.67,512v341.33c0,46.93 -38.41,85.34 -85.34,85.34h-682.66c-46.93,0 -85.34,-38.41 -85.34,-85.34v-341.33h128v-32c0,-52.91 43.09,-96 96,-96h1.28c14.51,0 28.59,3.84 40.96,9.81c11.09,5.12 21.33,12.38 29.44,21.34l59.74,66.13c9.81,11.09 21.75,21.33 34.98,30.72zM851.2,408.32l-2.56,18.35h-81.49l4.69,-25.18c6.4,-33.71 -4.27,-67.41 -28.59,-93.86l-2.98,-2.56c-43.95,-43.09 -64,-100.69 -55.47,-158.72l2.56,-18.35h80.64l-3.84,25.17c-6.4,33.71 4.27,67.42 28.59,93.87l2.98,2.99c43.95,42.67 64.43,100.26 55.47,158.29zM680.53,408.32l-2.56,18.35h-81.49l4.69,-25.18c6.4,-33.71 -4.26,-67.41 -28.58,-93.86l-2.99,-2.56c-43.95,-43.09 -64,-100.69 -55.47,-158.72l2.56,-18.35h80.64l-3.84,25.17c-6.4,33.71 4.27,67.42 28.59,93.87l2.99,2.99c43.95,42.67 64.42,100.26 55.46,158.29zM640,597.33h-85.33v256h85.33zM810.67,597.33h-85.34v256h85.34zM298.67,597.33h-85.34v256h85.34zM469.33,597.33h-85.33v256h85.33z" fill="currentColor"/>
		</g>
	</g>
</svg>