<svg version="1.1" xmlns="http://www.w3.org/2000/svg" xmlns:xlink="http://www.w3.org/1999/xlink" viewBox="0,0,1024,1024">
	<!-- Color names: teamapps-color-1 -->
	<desc>linear_scale icon - Licensed under Apache License v2.0 (http://www.apache.org/licenses/LICENSE-2.0) - Created with Iconfu.com - Derivative work of Material icons (Copyright Google Inc.)</desc>
	<g fill="none" fill-rule="nonzero" style="mix-blend-mode: normal">
		<g color="#039be5" class="teamapps-color-1">
			<path d="M938.67,512c0,58.88 -47.79,106.67 -106.67,106.67c-43.95,0 -81.07,-26.45 -97.71,-64h-124.58c-16.64,37.55 -53.76,64 -97.71,64c-43.95,0 -81.07,-26.45 -97.71,-64h-124.58c-16.64,37.55 -53.76,64 -97.71,64c-58.88,0 -106.67,-47.79 -106.67,-106.67c0,-58.88 47.79,-106.67 106.67,-106.67c43.95,0 81.07,26.45 97.71,64h124.58c16.64,-37.55 53.76,-64 97.71,-64c43.95,0 81.07,26.45 97.71,64h124.58c16.64,-37.55 53.76,-64 97.71,-64c58.88,0 106.67,47.79 106.67,106.67z" fill="currentColor"/>
		</g>
	</g>
</svg>