<svg version="1.1" xmlns="http://www.w3.org/2000/svg" xmlns:xlink="http://www.w3.org/1999/xlink" viewBox="0,0,1024,1024">
	<!-- Color names: teamapps-color-1 -->
	<desc>local_laundry_service icon - Licensed under Apache License v2.0 (http://www.apache.org/licenses/LICENSE-2.0) - Created with Iconfu.com - Derivative work of Material icons (Copyright Google Inc.)</desc>
	<g fill="none" fill-rule="nonzero" style="mix-blend-mode: normal">
		<g color="#039be5" class="teamapps-color-1">
			<path d="M853.33,170.67v682.66c0,47.36 -37.97,85.34 -85.33,85.34h-512c-47.36,0 -85.33,-37.98 -85.33,-85.34v-682.66c0,-47.36 37.97,-85.34 85.33,-85.34l512,0.43c47.36,0 85.33,37.55 85.33,84.91zM768,597.33c0,-141.23 -114.77,-256 -256,-256c-141.23,0 -256,114.77 -256,256c0,141.23 114.77,256 256,256c141.23,0 256,-114.77 256,-256zM632.75,476.59c66.56,66.56 66.56,174.93 0,241.49c-66.56,66.56 -174.94,66.56 -241.5,0zM384,213.33c0,23.47 19.2,42.67 42.67,42.67c23.47,0 42.66,-19.2 42.66,-42.67c0,-23.47 -19.19,-42.66 -42.66,-42.66c-23.47,0 -42.67,19.19 -42.67,42.66zM256,213.33c0,23.47 19.2,42.67 42.67,42.67c23.47,0 42.66,-19.2 42.66,-42.67c0,-23.47 -19.19,-42.66 -42.66,-42.66c-23.47,0 -42.67,19.19 -42.67,42.66z" fill="currentColor"/>
		</g>
	</g>
</svg>