<svg version="1.1" xmlns="http://www.w3.org/2000/svg" xmlns:xlink="http://www.w3.org/1999/xlink" viewBox="0,0,1024,1024">
	<!-- Color names: teamapps-color-1 -->
	<desc>local_florist icon - Licensed under Apache License v2.0 (http://www.apache.org/licenses/LICENSE-2.0) - Created with Iconfu.com - Derivative work of Material icons (Copyright Google Inc.)</desc>
	<g fill="none" fill-rule="nonzero" style="mix-blend-mode: normal">
		<g color="#039be5" class="teamapps-color-1">
			<path d="M299.95,341.33c-35.84,-17.07 -61.02,-53.33 -61.02,-96c0,-58.88 47.79,-106.66 106.67,-106.66c22.61,0 43.52,6.82 60.59,18.77l-0.86,-8.11c0,-58.88 47.79,-106.66 106.67,-106.66c58.88,0 106.67,47.78 106.67,106.66l-0.86,8.11c17.49,-11.95 37.98,-18.77 60.59,-18.77c58.88,0 106.67,47.78 106.67,106.66c0,42.67 -25.18,78.93 -61.02,96c35.84,17.07 61.02,53.33 61.02,96c0,58.88 -47.79,106.67 -106.67,106.67c-22.61,0 -43.52,-6.82 -60.59,-18.77l0.86,8.1c0,58.88 -47.79,106.67 -106.67,106.67c-58.88,0 -106.67,-47.79 -106.67,-106.67l0.86,-8.1c-17.49,11.95 -37.98,18.77 -60.59,18.77c-58.88,0 -106.67,-47.79 -106.67,-106.67c0,-42.67 25.18,-78.93 61.02,-96zM896,554.67c0,212.05 -171.95,384 -384,384c-212.05,0 -384,-171.95 -384,-384c212.05,0 384,171.95 384,384c0,-212.05 171.95,-384 384,-384zM405.33,341.33c0,58.88 47.79,106.67 106.67,106.67c58.88,0 106.67,-47.79 106.67,-106.67c0,-58.88 -47.79,-106.66 -106.67,-106.66c-58.88,0 -106.67,47.78 -106.67,106.66z" fill="currentColor"/>
		</g>
	</g>
</svg>