<svg version="1.1" xmlns="http://www.w3.org/2000/svg" xmlns:xlink="http://www.w3.org/1999/xlink" viewBox="0,0,1024,1024">
	<!-- Color names: teamapps-color-1 -->
	<desc>local_see icon - Licensed under Apache License v2.0 (http://www.apache.org/licenses/LICENSE-2.0) - Created with Iconfu.com - Derivative work of Material icons (Copyright Google Inc.)</desc>
	<g fill="none" fill-rule="nonzero" style="mix-blend-mode: normal">
		<g color="#039be5" class="teamapps-color-1">
			<path d="M375.47,512c0,-75.41 61.12,-136.53 136.53,-136.53c75.41,0 136.53,61.12 136.53,136.53c0,75.41 -61.12,136.53 -136.53,136.53c-75.41,0 -136.53,-61.12 -136.53,-136.53z" fill="currentColor"/>
		</g>
		<g color="#039be5" class="teamapps-color-1">
			<path d="M640,85.33l78.08,85.34h135.25c46.93,0 85.34,38.4 85.34,85.33v512c0,46.93 -38.41,85.33 -85.34,85.33h-682.66c-46.93,0 -85.34,-38.4 -85.34,-85.33v-512c0,-46.93 38.41,-85.33 85.34,-85.33h135.25l78.08,-85.34zM725.33,512c0,-117.76 -95.57,-213.33 -213.33,-213.33c-117.76,0 -213.33,95.57 -213.33,213.33c0,117.76 95.57,213.33 213.33,213.33c117.76,0 213.33,-95.57 213.33,-213.33z" fill="currentColor"/>
		</g>
	</g>
</svg>