<svg version="1.1" xmlns="http://www.w3.org/2000/svg" xmlns:xlink="http://www.w3.org/1999/xlink" viewBox="0,0,1024,1024">
	<!-- Color names: teamapps-color-1 -->
	<desc>nature_people icon - Licensed under Apache License v2.0 (http://www.apache.org/licenses/LICENSE-2.0) - Created with Iconfu.com - Derivative work of Material icons (Copyright Google Inc.)</desc>
	<g fill="none" fill-rule="nonzero" style="mix-blend-mode: normal">
		<g color="#039be5" class="teamapps-color-1">
			<path d="M682.67,687.79v165.54h128v85.34h-682.67v-213.34h-42.67v-170.66c0,-23.47 19.2,-42.67 42.67,-42.67h128c23.47,0 42.67,19.2 42.67,42.67v170.66h-42.67v128h341.33v-168.1c-141.23,-23.47 -248.74,-145.93 -248.74,-293.98c0,-165.12 133.54,-298.66 298.66,-298.66c165.12,0 298.67,133.54 298.67,298.66c0,153.17 -115.2,279.05 -263.25,296.54zM128,405.33c0,-35.41 28.59,-64 64,-64c35.41,0 64,28.59 64,64c0,35.41 -28.59,64 -64,64c-35.41,0 -64,-28.59 -64,-64z" fill="currentColor"/>
		</g>
	</g>
</svg>