<svg version="1.1" xmlns="http://www.w3.org/2000/svg" xmlns:xlink="http://www.w3.org/1999/xlink" viewBox="0,0,1024,1024">
	<!-- Color names: teamapps-color-1 -->
	<desc>pan_tool icon - Licensed under Apache License v2.0 (http://www.apache.org/licenses/LICENSE-2.0) - Created with Iconfu.com - Derivative work of Material icons (Copyright Google Inc.)</desc>
	<g fill="none" fill-rule="nonzero" style="mix-blend-mode: normal">
		<g color="#039be5" class="teamapps-color-1">
			<path d="M981.33,234.67v618.66c0,93.87 -76.79,170.67 -170.66,170.67h-311.47c-46.08,0 -89.6,-18.34 -121.6,-50.77l-334.93,-340.48c0,0 53.75,-52.49 55.46,-53.34c9.39,-8.11 20.91,-12.37 33.71,-12.37c9.39,0 17.92,2.56 25.6,6.83c1.71,0.43 183.89,104.96 183.89,104.96v-508.16c0,-35.41 28.59,-64 64,-64c35.41,0 64,28.59 64,64v298.66h42.67v-405.33c0,-35.41 28.59,-64 64,-64c35.41,0 64,28.59 64,64v405.33h42.67v-362.66c0,-35.41 28.59,-64 64,-64c35.41,0 64,28.59 64,64v362.66h42.66v-234.66c0,-35.41 28.59,-64 64,-64c35.41,0 64,28.59 64,64z" fill="currentColor"/>
		</g>
	</g>
</svg>