<svg version="1.1" xmlns="http://www.w3.org/2000/svg" xmlns:xlink="http://www.w3.org/1999/xlink" viewBox="0,0,1024,1024">
	<!-- Color names: teamapps-color-1 -->
	<desc>person_pin icon - Licensed under Apache License v2.0 (http://www.apache.org/licenses/LICENSE-2.0) - Created with Iconfu.com - Derivative work of Material icons (Copyright Google Inc.)</desc>
	<g fill="none" fill-rule="nonzero" style="mix-blend-mode: normal">
		<g color="#039be5" class="teamapps-color-1">
			<path d="M896,170.67v597.33c0,46.93 -38.4,85.33 -85.33,85.33h-170.67l-128,128l-128,-128h-170.67c-47.36,0 -85.33,-38.4 -85.33,-85.33v-597.33c0,-46.93 37.97,-85.34 85.33,-85.34h597.34c46.93,0 85.33,38.41 85.33,85.34zM768,644.27c0,-85.33 -170.67,-132.27 -256,-132.27c-85.33,0 -256,46.94 -256,132.27v38.4h512zM396.8,341.33c0,63.57 51.63,115.2 115.2,115.2c63.57,0 115.2,-51.63 115.2,-115.2c0,-63.57 -51.63,-115.2 -115.2,-115.2c-63.57,0 -115.2,51.63 -115.2,115.2z" fill="currentColor"/>
		</g>
	</g>
</svg>