<svg version="1.1" xmlns="http://www.w3.org/2000/svg" xmlns:xlink="http://www.w3.org/1999/xlink" viewBox="0,0,1024,1024">
	<!-- Color names: teamapps-color-1 -->
	<desc>photo_filter icon - Licensed under Apache License v2.0 (http://www.apache.org/licenses/LICENSE-2.0) - Created with Iconfu.com - Derivative work of Material icons (Copyright Google Inc.)</desc>
	<g fill="none" fill-rule="nonzero" style="mix-blend-mode: normal">
		<g color="#039be5" class="teamapps-color-1">
			<path d="M896.85,426.67v384c0,46.93 -38.4,85.33 -85.33,85.33h-597.33c-46.93,0 -85.34,-38.4 -85.34,-85.33v-597.34c0,-46.93 38.41,-85.33 85.34,-85.33h383.14v85.33h-384v597.34h598.19v-384zM682.67,512l-117.34,53.33l-53.33,117.34l-53.33,-117.34l-117.34,-53.33l117.34,-53.33l53.33,-117.34l53.33,117.34zM685.23,338.77l-87.9,-40.1l87.9,-40.11l40.1,-87.89l40.11,87.89l87.89,40.11l-87.89,40.1l-40.11,87.9z" fill="currentColor"/>
		</g>
	</g>
</svg>