<svg version="1.1" xmlns="http://www.w3.org/2000/svg" xmlns:xlink="http://www.w3.org/1999/xlink" viewBox="0,0,1024,1024">
	<!-- Color names: teamapps-color-1 -->
	<desc>radio icon - Licensed under Apache License v2.0 (http://www.apache.org/licenses/LICENSE-2.0) - Created with Iconfu.com - Derivative work of Material icons (Copyright Google Inc.)</desc>
	<g fill="none" fill-rule="nonzero" style="mix-blend-mode: normal">
		<g color="#039be5" class="teamapps-color-1">
			<path d="M677.55,42.67l29.01,70.82l-352.43,142.51h499.2c47.36,0 85.34,37.97 85.34,85.33v512c0,46.93 -37.98,85.34 -85.34,85.34h-682.66c-47.36,0 -85.34,-38.41 -85.34,-85.34v-512c0,-35.41 21.76,-66.98 52.91,-78.93zM853.33,341.33h-682.66v170.67h512v-85.33h85.33v85.33h85.33zM426.67,725.33c0,-70.83 -57.17,-128 -128,-128c-70.83,0 -128,57.17 -128,128c0,70.83 57.17,128 128,128c70.83,0 128,-57.17 128,-128z" fill="currentColor"/>
		</g>
	</g>
</svg>