<svg version="1.1" xmlns="http://www.w3.org/2000/svg" xmlns:xlink="http://www.w3.org/1999/xlink" viewBox="0,0,1024,1024">
	<!-- Color names: teamapps-color-1 -->
	<desc>sentiment_very_dissatisfied icon - Licensed under Apache License v2.0 (http://www.apache.org/licenses/LICENSE-2.0) - Created with Iconfu.com - Derivative work of Material icons (Copyright Google Inc.)</desc>
	<g fill="none" fill-rule="nonzero" style="mix-blend-mode: normal">
		<g color="#039be5" class="teamapps-color-1">
			<path d="M938.67,512c0,235.95 -191.58,426.67 -427.1,426.67c-235.52,0 -426.24,-190.72 -426.24,-426.67c0,-235.95 190.72,-426.67 426.24,-426.67c235.95,0 427.1,190.72 427.1,426.67zM853.33,512c0,-188.59 -152.74,-341.33 -341.33,-341.33c-188.59,0 -341.33,152.74 -341.33,341.33c0,188.59 152.74,341.33 341.33,341.33c188.59,0 341.33,-152.74 341.33,-341.33zM730.03,746.67h-436.06c34.13,-87.04 118.62,-149.34 218.03,-149.34c99.41,0 183.9,62.3 218.03,149.34zM288.43,466.77l45.22,-45.22l-45.22,-45.23l45.22,-45.23l45.23,45.23l45.23,-45.23l45.22,45.23l-45.22,45.23l45.22,45.22l-45.22,45.23l-45.23,-45.23l-45.23,45.23zM735.57,376.32l-45.22,45.23l45.22,45.22l-45.22,45.23l-45.23,-45.23l-45.23,45.23l-45.22,-45.23l45.22,-45.22l-45.22,-45.23l45.22,-45.23l45.23,45.23l45.23,-45.23z" fill="currentColor"/>
		</g>
	</g>
</svg>