<svg version="1.1" xmlns="http://www.w3.org/2000/svg" xmlns:xlink="http://www.w3.org/1999/xlink" viewBox="0,0,1024,1024">
	<!-- Color names: teamapps-color-1 -->
	<desc>settings_brightness icon - Licensed under Apache License v2.0 (http://www.apache.org/licenses/LICENSE-2.0) - Created with Iconfu.com - Derivative work of Material icons (Copyright Google Inc.)</desc>
	<g fill="none" fill-rule="nonzero" style="mix-blend-mode: normal">
		<g color="#039be5" class="teamapps-color-1">
			<path d="M981.33,213.33v597.34c0,46.93 -38.4,85.33 -85.33,85.33h-768c-46.93,0 -85.33,-38.4 -85.33,-85.33v-597.34c0,-46.93 38.4,-85.33 85.33,-85.33h768c46.93,0 85.33,38.4 85.33,85.33zM896,212.91h-768v598.18h768zM341.33,576l-64,-64l64,-64v-106.67h106.67l64,-64l64,64h106.67v106.67l64,64l-64,64v106.67h-106.67l-64,64l-64,-64h-106.67zM512,640c70.83,0 128,-57.17 128,-128c0,-70.83 -57.17,-128 -128,-128z" fill="currentColor"/>
		</g>
	</g>
</svg>