<svg version="1.1" xmlns="http://www.w3.org/2000/svg" xmlns:xlink="http://www.w3.org/1999/xlink" viewBox="0,0,1024,1024">
	<!-- Color names: teamapps-color-1 -->
	<desc>strikethrough_s icon - Licensed under Apache License v2.0 (http://www.apache.org/licenses/LICENSE-2.0) - Created with Iconfu.com - Derivative work of Material icons (Copyright Google Inc.)</desc>
	<g fill="none" fill-rule="nonzero" style="mix-blend-mode: normal">
		<g color="#039be5" class="teamapps-color-1">
			<path d="M896,512.85h-165.12c2.56,4.27 5.12,9.39 7.25,14.08c8.96,20.05 13.23,43.1 13.23,68.7c0,27.31 -5.54,51.63 -16.21,72.96c-10.67,21.33 -26.03,39.67 -45.66,54.18c-19.63,14.51 -43.52,25.6 -71.25,33.71c-27.73,8.11 -58.88,11.95 -93.01,11.95c-20.48,0 -40.96,-2.14 -61.44,-5.55c-20.48,-3.84 -40.11,-9.39 -58.88,-16.64c-18.77,-7.25 -36.27,-16.64 -52.06,-27.73c-16.21,-11.09 -29.86,-24.33 -41.81,-39.26c-11.95,-15.36 -20.9,-32.42 -27.73,-51.62c-6.83,-19.2 -10.24,-43.95 -10.24,-67.42h126.72c0,19.2 4.69,38.4 10.66,51.63c5.97,13.23 14.51,23.89 25.18,32c10.67,8.11 23.89,14.08 38.82,17.92c14.93,3.84 32,5.55 50.35,5.55c16.21,0 30.72,-2.14 43.09,-5.55c12.37,-3.84 22.19,-8.53 30.3,-14.93c8.11,-6.4 14.08,-14.09 17.92,-22.62c3.84,-8.96 5.97,-18.35 5.97,-28.16c0,-11.09 -1.7,-20.91 -4.69,-29.44c-3.41,-8.96 -9.39,-17.07 -18.35,-24.32c-8.96,-7.25 -21.33,-14.51 -37.12,-21.76c-6.4,-2.56 -15.79,-5.54 -23.47,-8.53h-410.45v-85.33h768zM308.91,373.33c-11.09,-20.48 -16.64,-43.94 -16.64,-71.25c0,-26.03 5.54,-49.49 17.06,-71.25c11.09,-21.33 26.88,-39.68 47.36,-55.04c20.48,-14.93 44.81,-26.89 72.54,-35.42c28.16,-8.11 59.3,-12.37 93.01,-12.37c34.56,0 65.7,4.7 94.29,14.51c28.16,9.39 52.48,23.03 72.11,40.1c20.05,17.07 35.41,37.55 46.08,61.02c10.67,23.47 16.21,49.06 16.21,77.22h-128.42c0,-13.23 -2.13,-25.17 -6.4,-36.26c-3.84,-11.52 -10.25,-20.91 -18.78,-29.02c-8.53,-8.11 -19.2,-14.08 -32,-18.77c-12.8,-4.27 -28.15,-6.83 -45.22,-6.83c-16.64,0 -31.58,1.71 -43.95,5.55c-12.37,3.84 -22.61,8.96 -30.72,15.36c-8.11,6.83 -14.5,14.51 -18.77,23.47c-4.27,8.96 -6.4,18.35 -6.4,28.16c0,20.48 10.66,37.54 31.57,51.62c16.21,10.67 32.85,20.48 60.16,29.87h-196.69c-2.13,-3.41 -4.69,-7.26 -6.4,-10.67z" fill="currentColor"/>
		</g>
	</g>
</svg>