<svg version="1.1" xmlns="http://www.w3.org/2000/svg" xmlns:xlink="http://www.w3.org/1999/xlink" viewBox="0,0,1024,1024">
	<!-- Color names: teamapps-color-1 -->
	<desc>tablet_mac icon - Licensed under Apache License v2.0 (http://www.apache.org/licenses/LICENSE-2.0) - Created with Iconfu.com - Derivative work of Material icons (Copyright Google Inc.)</desc>
	<g fill="none" fill-rule="nonzero" style="mix-blend-mode: normal">
		<g color="#039be5" class="teamapps-color-1">
			<path d="M896,106.67v810.66c0,58.88 -47.79,106.67 -106.67,106.67h-597.33c-58.88,0 -106.67,-47.79 -106.67,-106.67v-810.66c0,-58.88 47.79,-106.67 106.67,-106.67h597.33c58.88,0 106.67,47.79 106.67,106.67zM810.67,128h-640v682.67h640zM554.67,917.33c0,-35.41 -28.59,-64 -64,-64c-35.41,0 -64,28.59 -64,64c0,35.41 28.59,64 64,64c35.41,0 64,-28.59 64,-64z" fill="currentColor"/>
		</g>
	</g>
</svg>