<svg version="1.1" xmlns="http://www.w3.org/2000/svg" xmlns:xlink="http://www.w3.org/1999/xlink" viewBox="0,0,1024,1024">
	<!-- Color names: teamapps-color-1 -->
	<desc>track_changes icon - Licensed under Apache License v2.0 (http://www.apache.org/licenses/LICENSE-2.0) - Created with Iconfu.com - Derivative work of Material icons (Copyright Google Inc.)</desc>
	<g fill="none" fill-rule="nonzero" style="mix-blend-mode: normal">
		<g color="#039be5" class="teamapps-color-1">
			<path d="M938.67,512c0,235.52 -191.15,426.67 -426.67,426.67c-235.52,0 -426.67,-191.15 -426.67,-426.67c0,-235.52 191.15,-426.67 426.67,-426.67h42.67v353.28c25.6,14.51 42.66,41.82 42.66,73.39c0,46.93 -38.4,85.33 -85.33,85.33c-46.93,0 -85.33,-38.4 -85.33,-85.33c0,-31.57 17.06,-58.46 42.66,-73.39v-91.3c-73.39,19.2 -128,85.33 -128,164.69c0,94.29 76.38,170.67 170.67,170.67c94.29,0 170.67,-76.38 170.67,-170.67c0,-46.93 -19.2,-89.6 -49.92,-120.75l60.16,-60.16c46.51,46.08 75.09,110.08 75.09,180.91c0,141.23 -114.77,256 -256,256c-141.23,0 -256,-114.77 -256,-256c0,-126.72 92.16,-231.68 213.33,-252.16v-86.19c-168.53,20.91 -298.66,164.27 -298.66,338.35c0,188.59 152.74,341.33 341.33,341.33c188.59,0 341.33,-152.74 341.33,-341.33c0,-94.29 -38.4,-179.62 -99.84,-241.49l60.16,-60.16c77.23,77.23 125.02,183.89 125.02,301.65z" fill="currentColor"/>
		</g>
	</g>
</svg>