<svg version="1.1" xmlns="http://www.w3.org/2000/svg" xmlns:xlink="http://www.w3.org/1999/xlink" viewBox="0,0,1024,1024">
	<!-- Color names: teamapps-color-1 -->
	<desc>videogame_asset icon - Licensed under Apache License v2.0 (http://www.apache.org/licenses/LICENSE-2.0) - Created with Iconfu.com - Derivative work of Material icons (Copyright Google Inc.)</desc>
	<g fill="none" fill-rule="nonzero" style="mix-blend-mode: normal">
		<g color="#039be5" class="teamapps-color-1">
			<path d="M981.33,341.33v341.34c0,46.93 -38.4,85.33 -85.33,85.33h-768c-46.93,0 -85.33,-38.4 -85.33,-85.33v-341.34c0,-46.93 38.4,-85.33 85.33,-85.33h768c46.93,0 85.33,38.4 85.33,85.33zM469.33,469.33h-128v-128h-85.33v128h-128v85.34h128v128h85.33v-128h128zM725.33,576c0,-35.41 -28.59,-64 -64,-64c-35.41,0 -64,28.59 -64,64c0,35.41 28.59,64 64,64c35.41,0 64,-28.59 64,-64zM896,448c0,-35.41 -28.59,-64 -64,-64c-35.41,0 -64,28.59 -64,64c0,35.41 28.59,64 64,64c35.41,0 64,-28.59 64,-64z" fill="currentColor"/>
		</g>
	</g>
</svg>