<svg version="1.1" xmlns="http://www.w3.org/2000/svg" xmlns:xlink="http://www.w3.org/1999/xlink" viewBox="0,0,1024,1024">
	<!-- Color names: teamapps-color-1 -->
	<desc>weekend icon - Licensed under Apache License v2.0 (http://www.apache.org/licenses/LICENSE-2.0) - Created with Iconfu.com - Derivative work of Material icons (Copyright Google Inc.)</desc>
	<g fill="none" fill-rule="nonzero" style="mix-blend-mode: normal">
		<g color="#039be5" class="teamapps-color-1">
			<path d="M981.33,512v213.33c0,46.93 -38.4,85.34 -85.33,85.34h-768c-46.93,0 -85.33,-38.41 -85.33,-85.34v-213.33c0,-46.93 38.4,-85.33 85.33,-85.33c46.93,0 85.33,38.4 85.33,85.33v128h597.34v-128c0,-46.93 38.4,-85.33 85.33,-85.33c46.93,0 85.33,38.4 85.33,85.33zM853.33,298.67v91.73c-49.49,17.92 -85.33,64.85 -85.33,120.32v86.61h-512v-86.61c0,-55.89 -35.84,-102.83 -85.33,-120.32v-91.73c0,-46.93 38.4,-85.34 85.33,-85.34h512c46.93,0 85.33,38.41 85.33,85.34z" fill="currentColor"/>
		</g>
	</g>
</svg>