<svg version="1.1" xmlns="http://www.w3.org/2000/svg" xmlns:xlink="http://www.w3.org/1999/xlink" viewBox="0,0,1024,1024">
	<!-- Color names: teamapps-color-1 -->
	<desc>access_alarms icon - Licensed under Apache License v2.0 (http://www.apache.org/licenses/LICENSE-2.0) - Created with Iconfu.com - Derivative work of Material icons (Copyright Google Inc.)</desc>
	<defs>
		<clipPath id="clip-TnkfrnOk">
			<path d="M39.26,81.67h945.47v942.33h-945.47z"/>
		</clipPath>
		<filter id="filter-h5cFHmMK" x="-13%" y="-6%" width="143%" height="141%" color-interpolation-filters="sRGB">
			<feColorMatrix values="1 0 0 0 0 0 1 0 0 0 0 0 1 0 0 0 0 0 0.2 0" in="SourceGraphic"/>
			<feOffset dy="20"/>
			<feGaussianBlur stdDeviation="11" result="blur0"/>
			<feColorMatrix values="1 0 0 0 0 0 1 0 0 0 0 0 1 0 0 0 0 0 0.3 0" in="SourceGraphic"/>
			<feOffset dy="30"/>
			<feGaussianBlur stdDeviation="20" result="blur1"/>
			<feMerge>
				<feMergeNode in="blur0"/>
				<feMergeNode in="blur1"/>
			</feMerge>
		</filter>
	</defs>
	<g fill="none" fill-rule="nonzero" style="mix-blend-mode: normal">
		<g clip-path="url(#clip-TnkfrnOk)">
			<path d="M853.76,549.98c0,189.86 -151.9,341.76 -341.76,341.76c-189.86,0 -341.76,-151.9 -341.76,-341.76c0,-189.86 151.9,-341.76 341.76,-341.76c189.86,0 341.76,151.9 341.76,341.76zM777.82,549.98c0,-148.1 -117.72,-265.82 -265.82,-265.82c-148.1,0 -265.82,117.72 -265.82,265.82c0,148.1 117.72,265.81 265.82,265.81c148.1,0 265.82,-117.71 265.82,-265.81zM530.98,561.37l151.9,91.14l-30.38,45.57l-178.48,-110.13v-227.84h56.96zM842.37,329.73l-174.68,-148.1l49.37,-56.96l174.68,148.1zM181.63,329.73l-49.37,-56.96l174.68,-144.3l49.37,56.96z" fill="#000000" filter="url(#filter-h5cFHmMK)"/>
		</g>
		<g>
			<g color="#039be5" class="teamapps-color-1">
				<path d="M853.76,549.98c0,189.86 -151.9,341.76 -341.76,341.76c-189.86,0 -341.76,-151.9 -341.76,-341.76c0,-189.86 151.9,-341.76 341.76,-341.76c189.86,0 341.76,151.9 341.76,341.76zM777.82,549.98c0,-148.1 -117.72,-265.82 -265.82,-265.82c-148.1,0 -265.82,117.72 -265.82,265.82c0,148.1 117.72,265.81 265.82,265.81c148.1,0 265.82,-117.71 265.82,-265.81zM530.98,561.37l151.9,91.14l-30.38,45.57l-178.48,-110.13v-227.84h56.96zM842.37,329.73l-174.68,-148.1l49.37,-56.96l174.68,148.1zM181.63,329.73l-49.37,-56.96l174.68,-144.3l49.37,56.96z" fill="currentColor"/>
			</g>
		</g>
	</g>
</svg>