<svg version="1.1" xmlns="http://www.w3.org/2000/svg" xmlns:xlink="http://www.w3.org/1999/xlink" viewBox="0,0,1024,1024">
	<!-- Color names: teamapps-color-1 -->
	<desc>add_to_queue icon - Licensed under Apache License v2.0 (http://www.apache.org/licenses/LICENSE-2.0) - Created with Iconfu.com - Derivative work of Material icons (Copyright Google Inc.)</desc>
	<defs>
		<filter id="filter-9kXPtK2k" x="-12%" y="-7%" width="135%" height="153%" color-interpolation-filters="sRGB">
			<feColorMatrix values="1 0 0 0 0 0 1 0 0 0 0 0 1 0 0 0 0 0 0.2 0" in="SourceGraphic"/>
			<feOffset dy="20"/>
			<feGaussianBlur stdDeviation="11" result="blur0"/>
			<feColorMatrix values="1 0 0 0 0 0 1 0 0 0 0 0 1 0 0 0 0 0 0.3 0" in="SourceGraphic"/>
			<feOffset dy="30"/>
			<feGaussianBlur stdDeviation="20" result="blur1"/>
			<feMerge>
				<feMergeNode in="blur0"/>
				<feMergeNode in="blur1"/>
			</feMerge>
		</filter>
	</defs>
	<g fill="none" fill-rule="nonzero" style="mix-blend-mode: normal">
		<path d="M929.7,246.18l-0.37,455.68c0,41.77 -33.8,75.95 -75.57,75.95h-189.86v75.94h-303.79v-75.94h-189.86c-42.15,0 -75.94,-34.18 -75.94,-75.95v-455.68c0,-42.15 33.79,-75.94 75.94,-75.94h683.52c41.77,0 75.94,33.79 75.94,75.94zM853.76,246.18h-683.52v455.68h683.52zM663.9,436.06v75.94h-113.92v113.92h-75.95v-113.92h-113.92v-75.94h113.92v-113.92h75.95v113.92z" fill="#000000" filter="url(#filter-9kXPtK2k)"/>
		<g>
			<g color="#039be5" class="teamapps-color-1">
				<path d="M929.7,246.18l-0.37,455.68c0,41.77 -33.8,75.95 -75.57,75.95h-189.86v75.94h-303.79v-75.94h-189.86c-42.15,0 -75.94,-34.18 -75.94,-75.95v-455.68c0,-42.15 33.79,-75.94 75.94,-75.94h683.52c41.77,0 75.94,33.79 75.94,75.94zM853.76,246.18h-683.52v455.68h683.52zM663.9,436.06v75.94h-113.92v113.92h-75.95v-113.92h-113.92v-75.94h113.92v-113.92h75.95v113.92z" fill="currentColor"/>
			</g>
		</g>
	</g>
</svg>