<svg version="1.1" xmlns="http://www.w3.org/2000/svg" xmlns:xlink="http://www.w3.org/1999/xlink" viewBox="0,0,1024,1024">
	<!-- Color names: teamapps-color-1 -->
	<desc>add_location icon - Licensed under Apache License v2.0 (http://www.apache.org/licenses/LICENSE-2.0) - Created with Iconfu.com - Derivative work of Material icons (Copyright Google Inc.)</desc>
	<defs>
		<clipPath id="clip-3ziKkA9I">
			<path d="M153.18,89.26h717.63v934.74h-717.63z"/>
		</clipPath>
		<filter id="filter-DYEWgRle" x="-18%" y="-6%" width="182%" height="143%" color-interpolation-filters="sRGB">
			<feColorMatrix values="1 0 0 0 0 0 1 0 0 0 0 0 1 0 0 0 0 0 0.2 0" in="SourceGraphic"/>
			<feOffset dy="20"/>
			<feGaussianBlur stdDeviation="11" result="blur0"/>
			<feColorMatrix values="1 0 0 0 0 0 1 0 0 0 0 0 1 0 0 0 0 0 0.3 0" in="SourceGraphic"/>
			<feOffset dy="30"/>
			<feGaussianBlur stdDeviation="20" result="blur1"/>
			<feMerge>
				<feMergeNode in="blur0"/>
				<feMergeNode in="blur1"/>
			</feMerge>
		</filter>
	</defs>
	<g fill="none" fill-rule="nonzero" style="mix-blend-mode: normal">
		<g clip-path="url(#clip-3ziKkA9I)">
			<path d="M777.82,398.08c0,199.36 -265.82,493.66 -265.82,493.66c0,0 -265.82,-294.3 -265.82,-493.66c0,-146.57 119.24,-265.82 265.82,-265.82c146.57,0 265.82,119.24 265.82,265.82zM663.9,360.1h-113.92v-113.92h-75.95v113.92h-113.92v75.95h113.92v113.92h75.95v-113.92h113.92z" fill="#000000" filter="url(#filter-DYEWgRle)"/>
		</g>
		<g>
			<g color="#039be5" class="teamapps-color-1">
				<path d="M777.82,398.08c0,199.36 -265.82,493.66 -265.82,493.66c0,0 -265.82,-294.3 -265.82,-493.66c0,-146.57 119.24,-265.82 265.82,-265.82c146.57,0 265.82,119.24 265.82,265.82zM663.9,360.1h-113.92v-113.92h-75.95v113.92h-113.92v75.95h113.92v113.92h75.95v-113.92h113.92z" fill="currentColor"/>
			</g>
		</g>
	</g>
</svg>