<svg version="1.1" xmlns="http://www.w3.org/2000/svg" xmlns:xlink="http://www.w3.org/1999/xlink" viewBox="0,0,1024,1024">
	<!-- Color names: teamapps-color-1 -->
	<desc>airline_seat_legroom_extra icon - Licensed under Apache License v2.0 (http://www.apache.org/licenses/LICENSE-2.0) - Created with Iconfu.com - Derivative work of Material icons (Copyright Google Inc.)</desc>
	<defs>
		<filter id="filter-TUkEuAMi" x="-12%" y="-7%" width="141%" height="153%" color-interpolation-filters="sRGB">
			<feColorMatrix values="1 0 0 0 0 0 1 0 0 0 0 0 1 0 0 0 0 0 0.2 0" in="SourceGraphic"/>
			<feOffset dy="20"/>
			<feGaussianBlur stdDeviation="11" result="blur0"/>
			<feColorMatrix values="1 0 0 0 0 0 1 0 0 0 0 0 1 0 0 0 0 0 0.3 0" in="SourceGraphic"/>
			<feOffset dy="30"/>
			<feGaussianBlur stdDeviation="20" result="blur1"/>
			<feMerge>
				<feMergeNode in="blur0"/>
				<feMergeNode in="blur1"/>
			</feMerge>
		</filter>
	</defs>
	<g fill="none" fill-rule="nonzero" style="mix-blend-mode: normal">
		<path d="M896.67,789.21l-141.26,64.55l-129.49,-265.82h-265.82c-63.04,0 -113.92,-50.88 -113.92,-113.92v-303.78h227.84v227.84l133.29,0.38c28.86,0 55.06,16.71 67.98,42.52l129.49,265.06l41.39,-18.99c28.1,-12.91 62.66,-3.42 77.08,23.92c15.19,28.86 2.65,64.56 -26.58,78.23zM322.14,625.92h227.84v75.94h-227.84c-104.81,0 -189.87,-85.06 -189.87,-189.86v-341.76h75.95v341.76c0,63.04 50.88,113.92 113.92,113.92z" fill="#000000" filter="url(#filter-TUkEuAMi)"/>
		<g>
			<g color="#039be5" class="teamapps-color-1">
				<path d="M896.67,789.21l-141.26,64.55l-129.49,-265.82h-265.82c-63.04,0 -113.92,-50.88 -113.92,-113.92v-303.78h227.84v227.84l133.29,0.38c28.86,0 55.06,16.71 67.98,42.52l129.49,265.06l41.39,-18.99c28.1,-12.91 62.66,-3.42 77.08,23.92c15.19,28.86 2.65,64.56 -26.58,78.23zM322.14,625.92h227.84v75.94h-227.84c-104.81,0 -189.87,-85.06 -189.87,-189.86v-341.76h75.95v341.76c0,63.04 50.88,113.92 113.92,113.92z" fill="currentColor"/>
			</g>
		</g>
	</g>
</svg>