<svg version="1.1" xmlns="http://www.w3.org/2000/svg" xmlns:xlink="http://www.w3.org/1999/xlink" viewBox="0,0,1024,1024">
	<!-- Color names: teamapps-color-1 -->
	<desc>airport_shuttle icon - Licensed under Apache License v2.0 (http://www.apache.org/licenses/LICENSE-2.0) - Created with Iconfu.com - Derivative work of Material icons (Copyright Google Inc.)</desc>
	<defs>
		<filter id="filter-8repJE6b" x="-12%" y="-9%" width="135%" height="183%" color-interpolation-filters="sRGB">
			<feColorMatrix values="1 0 0 0 0 0 1 0 0 0 0 0 1 0 0 0 0 0 0.2 0" in="SourceGraphic"/>
			<feOffset dy="20"/>
			<feGaussianBlur stdDeviation="11" result="blur0"/>
			<feColorMatrix values="1 0 0 0 0 0 1 0 0 0 0 0 1 0 0 0 0 0 0.3 0" in="SourceGraphic"/>
			<feOffset dy="30"/>
			<feGaussianBlur stdDeviation="20" result="blur1"/>
			<feMerge>
				<feMergeNode in="blur0"/>
				<feMergeNode in="blur1"/>
			</feMerge>
		</filter>
	</defs>
	<g fill="none" fill-rule="nonzero" style="mix-blend-mode: normal">
		<path d="M929.7,474.02v189.87h-94.93c0,62.66 -50.88,113.92 -113.92,113.92c-63.04,0 -113.92,-51.26 -113.92,-113.92h-208.86c0,62.66 -50.88,113.92 -113.92,113.92c-63.04,0 -113.92,-51.26 -113.92,-113.92h-75.94v-341.76c0,-42.15 34.18,-75.95 75.94,-75.95h531.62zM815.78,474.02l-151.89,-151.89h-37.98v151.89zM322.14,474.02v-151.89h-151.9v151.89zM549.98,322.14h-151.9v151.89h151.9zM341.12,663.9c0,-31.51 -25.45,-56.96 -56.96,-56.96c-31.51,0 -56.96,25.45 -56.96,56.96c0,31.51 25.45,56.96 56.96,56.96c31.51,0 56.96,-25.45 56.96,-56.96zM777.82,663.9c0,-31.51 -25.45,-56.96 -56.96,-56.96c-31.51,0 -56.96,25.45 -56.96,56.96c0,31.51 25.45,56.96 56.96,56.96c31.51,0 56.96,-25.45 56.96,-56.96z" fill="#000000" filter="url(#filter-8repJE6b)"/>
		<g>
			<g color="#039be5" class="teamapps-color-1">
				<path d="M929.7,474.02v189.87h-94.93c0,62.66 -50.88,113.92 -113.92,113.92c-63.04,0 -113.92,-51.26 -113.92,-113.92h-208.86c0,62.66 -50.88,113.92 -113.92,113.92c-63.04,0 -113.92,-51.26 -113.92,-113.92h-75.94v-341.76c0,-42.15 34.18,-75.95 75.94,-75.95h531.62zM815.78,474.02l-151.89,-151.89h-37.98v151.89zM322.14,474.02v-151.89h-151.9v151.89zM549.98,322.14h-151.9v151.89h151.9zM341.12,663.9c0,-31.51 -25.45,-56.96 -56.96,-56.96c-31.51,0 -56.96,25.45 -56.96,56.96c0,31.51 25.45,56.96 56.96,56.96c31.51,0 56.96,-25.45 56.96,-56.96zM777.82,663.9c0,-31.51 -25.45,-56.96 -56.96,-56.96c-31.51,0 -56.96,25.45 -56.96,56.96c0,31.51 25.45,56.96 56.96,56.96c31.51,0 56.96,-25.45 56.96,-56.96z" fill="currentColor"/>
			</g>
		</g>
	</g>
</svg>