<svg version="1.1" xmlns="http://www.w3.org/2000/svg" xmlns:xlink="http://www.w3.org/1999/xlink" viewBox="0,0,1024,1024">
	<!-- Color names: teamapps-color-1 -->
	<desc>beach_access icon - Licensed under Apache License v2.0 (http://www.apache.org/licenses/LICENSE-2.0) - Created with Iconfu.com - Derivative work of Material icons (Copyright Google Inc.)</desc>
	<defs>
		<filter id="filter-altj8Mw7" x="-14%" y="-7%" width="153%" height="153%" color-interpolation-filters="sRGB">
			<feColorMatrix values="1 0 0 0 0 0 1 0 0 0 0 0 1 0 0 0 0 0 0.2 0" in="SourceGraphic"/>
			<feOffset dy="20"/>
			<feGaussianBlur stdDeviation="11" result="blur0"/>
			<feColorMatrix values="1 0 0 0 0 0 1 0 0 0 0 0 1 0 0 0 0 0 0.3 0" in="SourceGraphic"/>
			<feOffset dy="30"/>
			<feGaussianBlur stdDeviation="20" result="blur1"/>
			<feMerge>
				<feMergeNode in="blur0"/>
				<feMergeNode in="blur1"/>
			</feMerge>
		</filter>
	</defs>
	<g fill="none" fill-rule="nonzero" style="mix-blend-mode: normal">
		<path d="M663.51,445.93l-217.59,217.59c-118.86,-119.23 -177.72,-266.19 -163.29,-380.49l0.38,-0.38c114.3,-14.43 261.63,44.43 380.49,163.29zM391.63,717.81l-108.61,108.61c-149.99,-149.99 -150.37,-393.02 -0.76,-543.02c-49.37,149.24 -9.5,315.55 109.36,434.41zM283.4,282.26c149.99,-149.62 393.02,-149.24 543.02,0.76l-108.61,108.61c-118.86,-118.86 -285.17,-158.73 -434.41,-109.36zM554.8,609.21l54.3,-54.31l244.55,244.66l-54.18,54.19z" fill="#000000" filter="url(#filter-altj8Mw7)"/>
		<g>
			<g color="#039be5" class="teamapps-color-1">
				<path d="M663.51,445.93l-217.59,217.59c-118.86,-119.23 -177.72,-266.19 -163.29,-380.49l0.38,-0.38c114.3,-14.43 261.63,44.43 380.49,163.29zM391.63,717.81l-108.61,108.61c-149.99,-149.99 -150.37,-393.02 -0.76,-543.02c-49.37,149.24 -9.5,315.55 109.36,434.41zM283.4,282.26c149.99,-149.62 393.02,-149.24 543.02,0.76l-108.61,108.61c-118.86,-118.86 -285.17,-158.73 -434.41,-109.36zM554.8,609.21l54.3,-54.31l244.55,244.66l-54.18,54.19z" fill="currentColor"/>
			</g>
		</g>
	</g>
</svg>