<svg version="1.1" xmlns="http://www.w3.org/2000/svg" xmlns:xlink="http://www.w3.org/1999/xlink" viewBox="0,0,1024,1024">
	<!-- Color names: teamapps-color-1 -->
	<desc>blur_on icon - Licensed under Apache License v2.0 (http://www.apache.org/licenses/LICENSE-2.0) - Created with Iconfu.com - Derivative work of Material icons (Copyright Google Inc.)</desc>
	<defs>
		<filter id="filter-6WcIihhQ" x="-13%" y="-6%" width="147%" height="147%" color-interpolation-filters="sRGB">
			<feColorMatrix values="1 0 0 0 0 0 1 0 0 0 0 0 1 0 0 0 0 0 0.2 0" in="SourceGraphic"/>
			<feOffset dy="20"/>
			<feGaussianBlur stdDeviation="11" result="blur0"/>
			<feColorMatrix values="1 0 0 0 0 0 1 0 0 0 0 0 1 0 0 0 0 0 0.3 0" in="SourceGraphic"/>
			<feOffset dy="30"/>
			<feGaussianBlur stdDeviation="20" result="blur1"/>
			<feMerge>
				<feMergeNode in="blur0"/>
				<feMergeNode in="blur1"/>
			</feMerge>
		</filter>
	</defs>
	<g fill="none" fill-rule="nonzero" style="mix-blend-mode: normal">
		<path d="M493.02,587.94c0,31.51 -25.45,56.96 -56.96,56.96c-31.51,0 -56.96,-25.45 -56.96,-56.96c0,-31.51 25.45,-56.96 56.96,-56.96c31.51,0 56.96,25.45 56.96,56.96zM493.02,436.06c0,31.51 -25.45,56.96 -56.96,56.96c-31.51,0 -56.96,-25.45 -56.96,-56.96c0,-31.51 25.45,-56.96 56.96,-56.96c31.51,0 56.96,25.45 56.96,56.96zM644.9,587.94c0,31.51 -25.45,56.96 -56.96,56.96c-31.51,0 -56.96,-25.45 -56.96,-56.96c0,-31.51 25.45,-56.96 56.96,-56.96c31.51,0 56.96,25.45 56.96,56.96zM644.9,436.06c0,31.51 -25.45,56.96 -56.96,56.96c-31.51,0 -56.96,-25.45 -56.96,-56.96c0,-31.51 25.45,-56.96 56.96,-56.96c31.51,0 56.96,25.45 56.96,56.96zM777.82,587.94c0,20.89 -17.09,37.98 -37.98,37.98c-20.89,0 -37.98,-17.09 -37.98,-37.98c0,-20.89 17.09,-37.97 37.98,-37.97c20.89,0 37.98,17.08 37.98,37.97zM777.82,739.84c0,20.89 -17.09,37.98 -37.98,37.98c-20.89,0 -37.98,-17.09 -37.98,-37.98c0,-20.89 17.09,-37.98 37.98,-37.98c20.89,0 37.98,17.09 37.98,37.98zM625.92,739.84c0,20.89 -17.09,37.98 -37.98,37.98c-20.89,0 -37.97,-17.09 -37.97,-37.98c0,-20.89 17.08,-37.98 37.97,-37.98c20.89,0 37.98,17.09 37.98,37.98zM322.14,587.94c0,20.89 -17.09,37.98 -37.98,37.98c-20.89,0 -37.98,-17.09 -37.98,-37.98c0,-20.89 17.09,-37.97 37.98,-37.97c20.89,0 37.98,17.08 37.98,37.97zM322.14,739.84c0,20.89 -17.09,37.98 -37.98,37.98c-20.89,0 -37.98,-17.09 -37.98,-37.98c0,-20.89 17.09,-37.98 37.98,-37.98c20.89,0 37.98,17.09 37.98,37.98zM549.98,284.16c0,-20.89 17.08,-37.98 37.97,-37.98c20.89,0 37.98,17.09 37.98,37.98c0,20.89 -17.09,37.98 -37.98,37.98c-20.89,0 -37.97,-17.09 -37.97,-37.98zM777.82,436.06c0,20.89 -17.09,37.97 -37.98,37.97c-20.89,0 -37.98,-17.08 -37.98,-37.97c0,-20.89 17.09,-37.98 37.98,-37.98c20.89,0 37.98,17.09 37.98,37.98zM777.82,284.16c0,20.89 -17.09,37.98 -37.98,37.98c-20.89,0 -37.98,-17.09 -37.98,-37.98c0,-20.89 17.09,-37.98 37.98,-37.98c20.89,0 37.98,17.09 37.98,37.98zM474.02,739.84c0,20.89 -17.08,37.98 -37.97,37.98c-20.89,0 -37.98,-17.09 -37.98,-37.98c0,-20.89 17.09,-37.98 37.98,-37.98c20.89,0 37.97,17.09 37.97,37.98zM322.14,436.06c0,20.89 -17.09,37.97 -37.98,37.97c-20.89,0 -37.98,-17.08 -37.98,-37.97c0,-20.89 17.09,-37.98 37.98,-37.98c20.89,0 37.98,17.09 37.98,37.98zM322.14,284.16c0,20.89 -17.09,37.98 -37.98,37.98c-20.89,0 -37.98,-17.09 -37.98,-37.98c0,-20.89 17.09,-37.98 37.98,-37.98c20.89,0 37.98,17.09 37.98,37.98zM398.08,284.16c0,-20.89 17.09,-37.98 37.98,-37.98c20.89,0 37.97,17.09 37.97,37.98c0,20.89 -17.08,37.98 -37.97,37.98c-20.89,0 -37.98,-17.09 -37.98,-37.98zM189.22,436.06c0,10.64 -8.35,18.98 -18.98,18.98c-10.64,0 -18.98,-8.35 -18.98,-18.98c0,-10.64 8.35,-18.99 18.98,-18.99c10.64,0 18.98,8.36 18.98,18.99zM417.06,170.24c0,-10.64 8.36,-18.98 18.99,-18.98c10.64,0 18.98,8.35 18.98,18.98c0,10.64 -8.35,18.98 -18.98,18.98c-10.64,0 -18.99,-8.35 -18.99,-18.98zM834.78,436.06c0,-10.64 8.35,-18.99 18.98,-18.99c10.64,0 18.98,8.36 18.98,18.99c0,10.64 -8.35,18.98 -18.98,18.98c-10.64,0 -18.98,-8.35 -18.98,-18.98zM455.04,853.76c0,10.64 -8.35,18.98 -18.98,18.98c-10.64,0 -18.99,-8.35 -18.99,-18.98c0,-10.64 8.36,-18.98 18.99,-18.98c10.64,0 18.98,8.35 18.98,18.98zM568.96,170.24c0,-10.64 8.35,-18.98 18.98,-18.98c10.64,0 18.99,8.35 18.99,18.98c0,10.64 -8.36,18.98 -18.99,18.98c-10.64,0 -18.98,-8.35 -18.98,-18.98zM189.22,587.94c0,10.64 -8.35,18.99 -18.98,18.99c-10.64,0 -18.98,-8.36 -18.98,-18.99c0,-10.64 8.35,-18.98 18.98,-18.98c10.64,0 18.98,8.35 18.98,18.98zM872.74,587.94c0,10.64 -8.35,18.99 -18.98,18.99c-10.64,0 -18.98,-8.36 -18.98,-18.99c0,-10.64 8.35,-18.98 18.98,-18.98c10.64,0 18.98,8.35 18.98,18.98zM606.94,853.76c0,10.64 -8.36,18.98 -18.99,18.98c-10.64,0 -18.98,-8.35 -18.98,-18.98c0,-10.64 8.35,-18.98 18.98,-18.98c10.64,0 18.99,8.35 18.99,18.98z" fill="#000000" filter="url(#filter-6WcIihhQ)"/>
		<g>
			<g color="#039be5" class="teamapps-color-1">
				<path d="M493.02,587.94c0,31.51 -25.45,56.96 -56.96,56.96c-31.51,0 -56.96,-25.45 -56.96,-56.96c0,-31.51 25.45,-56.96 56.96,-56.96c31.51,0 56.96,25.45 56.96,56.96zM493.02,436.06c0,31.51 -25.45,56.96 -56.96,56.96c-31.51,0 -56.96,-25.45 -56.96,-56.96c0,-31.51 25.45,-56.96 56.96,-56.96c31.51,0 56.96,25.45 56.96,56.96zM644.9,587.94c0,31.51 -25.45,56.96 -56.96,56.96c-31.51,0 -56.96,-25.45 -56.96,-56.96c0,-31.51 25.45,-56.96 56.96,-56.96c31.51,0 56.96,25.45 56.96,56.96zM644.9,436.06c0,31.51 -25.45,56.96 -56.96,56.96c-31.51,0 -56.96,-25.45 -56.96,-56.96c0,-31.51 25.45,-56.96 56.96,-56.96c31.51,0 56.96,25.45 56.96,56.96zM777.82,587.94c0,20.89 -17.09,37.98 -37.98,37.98c-20.89,0 -37.98,-17.09 -37.98,-37.98c0,-20.89 17.09,-37.97 37.98,-37.97c20.89,0 37.98,17.08 37.98,37.97zM777.82,739.84c0,20.89 -17.09,37.98 -37.98,37.98c-20.89,0 -37.98,-17.09 -37.98,-37.98c0,-20.89 17.09,-37.98 37.98,-37.98c20.89,0 37.98,17.09 37.98,37.98zM625.92,739.84c0,20.89 -17.09,37.98 -37.98,37.98c-20.89,0 -37.97,-17.09 -37.97,-37.98c0,-20.89 17.08,-37.98 37.97,-37.98c20.89,0 37.98,17.09 37.98,37.98zM322.14,587.94c0,20.89 -17.09,37.98 -37.98,37.98c-20.89,0 -37.98,-17.09 -37.98,-37.98c0,-20.89 17.09,-37.97 37.98,-37.97c20.89,0 37.98,17.08 37.98,37.97zM322.14,739.84c0,20.89 -17.09,37.98 -37.98,37.98c-20.89,0 -37.98,-17.09 -37.98,-37.98c0,-20.89 17.09,-37.98 37.98,-37.98c20.89,0 37.98,17.09 37.98,37.98zM549.98,284.16c0,-20.89 17.08,-37.98 37.97,-37.98c20.89,0 37.98,17.09 37.98,37.98c0,20.89 -17.09,37.98 -37.98,37.98c-20.89,0 -37.97,-17.09 -37.97,-37.98zM777.82,436.06c0,20.89 -17.09,37.97 -37.98,37.97c-20.89,0 -37.98,-17.08 -37.98,-37.97c0,-20.89 17.09,-37.98 37.98,-37.98c20.89,0 37.98,17.09 37.98,37.98zM777.82,284.16c0,20.89 -17.09,37.98 -37.98,37.98c-20.89,0 -37.98,-17.09 -37.98,-37.98c0,-20.89 17.09,-37.98 37.98,-37.98c20.89,0 37.98,17.09 37.98,37.98zM474.02,739.84c0,20.89 -17.08,37.98 -37.97,37.98c-20.89,0 -37.98,-17.09 -37.98,-37.98c0,-20.89 17.09,-37.98 37.98,-37.98c20.89,0 37.97,17.09 37.97,37.98zM322.14,436.06c0,20.89 -17.09,37.97 -37.98,37.97c-20.89,0 -37.98,-17.08 -37.98,-37.97c0,-20.89 17.09,-37.98 37.98,-37.98c20.89,0 37.98,17.09 37.98,37.98zM322.14,284.16c0,20.89 -17.09,37.98 -37.98,37.98c-20.89,0 -37.98,-17.09 -37.98,-37.98c0,-20.89 17.09,-37.98 37.98,-37.98c20.89,0 37.98,17.09 37.98,37.98zM398.08,284.16c0,-20.89 17.09,-37.98 37.98,-37.98c20.89,0 37.97,17.09 37.97,37.98c0,20.89 -17.08,37.98 -37.97,37.98c-20.89,0 -37.98,-17.09 -37.98,-37.98zM189.22,436.06c0,10.64 -8.35,18.98 -18.98,18.98c-10.64,0 -18.98,-8.35 -18.98,-18.98c0,-10.64 8.35,-18.99 18.98,-18.99c10.64,0 18.98,8.36 18.98,18.99zM417.06,170.24c0,-10.64 8.36,-18.98 18.99,-18.98c10.64,0 18.98,8.35 18.98,18.98c0,10.64 -8.35,18.98 -18.98,18.98c-10.64,0 -18.99,-8.35 -18.99,-18.98zM834.78,436.06c0,-10.64 8.35,-18.99 18.98,-18.99c10.64,0 18.98,8.36 18.98,18.99c0,10.64 -8.35,18.98 -18.98,18.98c-10.64,0 -18.98,-8.35 -18.98,-18.98zM455.04,853.76c0,10.64 -8.35,18.98 -18.98,18.98c-10.64,0 -18.99,-8.35 -18.99,-18.98c0,-10.64 8.36,-18.98 18.99,-18.98c10.64,0 18.98,8.35 18.98,18.98zM568.96,170.24c0,-10.64 8.35,-18.98 18.98,-18.98c10.64,0 18.99,8.35 18.99,18.98c0,10.64 -8.36,18.98 -18.99,18.98c-10.64,0 -18.98,-8.35 -18.98,-18.98zM189.22,587.94c0,10.64 -8.35,18.99 -18.98,18.99c-10.64,0 -18.98,-8.36 -18.98,-18.99c0,-10.64 8.35,-18.98 18.98,-18.98c10.64,0 18.98,8.35 18.98,18.98zM872.74,587.94c0,10.64 -8.35,18.99 -18.98,18.99c-10.64,0 -18.98,-8.36 -18.98,-18.99c0,-10.64 8.35,-18.98 18.98,-18.98c10.64,0 18.98,8.35 18.98,18.98zM606.94,853.76c0,10.64 -8.36,18.98 -18.99,18.98c-10.64,0 -18.98,-8.35 -18.98,-18.98c0,-10.64 8.35,-18.98 18.98,-18.98c10.64,0 18.99,8.35 18.99,18.98z" fill="currentColor"/>
			</g>
		</g>
	</g>
</svg>