<svg version="1.1" xmlns="http://www.w3.org/2000/svg" xmlns:xlink="http://www.w3.org/1999/xlink" viewBox="0,0,1024,1024">
	<!-- Color names: teamapps-color-1 -->
	<desc>border_outer icon - Licensed under Apache License v2.0 (http://www.apache.org/licenses/LICENSE-2.0) - Created with Iconfu.com - Derivative work of Material icons (Copyright Google Inc.)</desc>
	<defs>
		<filter id="filter-s9CNjiF9" x="-14%" y="-7%" width="153%" height="153%" color-interpolation-filters="sRGB">
			<feColorMatrix values="1 0 0 0 0 0 1 0 0 0 0 0 1 0 0 0 0 0 0.2 0" in="SourceGraphic"/>
			<feOffset dy="20"/>
			<feGaussianBlur stdDeviation="11" result="blur0"/>
			<feColorMatrix values="1 0 0 0 0 0 1 0 0 0 0 0 1 0 0 0 0 0 0.3 0" in="SourceGraphic"/>
			<feOffset dy="30"/>
			<feGaussianBlur stdDeviation="20" result="blur1"/>
			<feMerge>
				<feMergeNode in="blur0"/>
				<feMergeNode in="blur1"/>
			</feMerge>
		</filter>
	</defs>
	<g fill="none" fill-rule="nonzero" style="mix-blend-mode: normal">
		<path d="M853.76,170.24v683.52h-683.52v-683.52zM777.82,246.18h-531.63v531.63h531.63zM549.98,398.08h-75.95v-75.94h75.95zM398.08,549.98h-75.94v-75.95h75.94zM549.98,549.98h-75.95v-75.95h75.95zM701.86,549.98h-75.94v-75.95h75.94zM549.98,701.86h-75.95v-75.94h75.95z" fill="#000000" filter="url(#filter-s9CNjiF9)"/>
		<g>
			<g color="#039be5" class="teamapps-color-1">
				<path d="M853.76,170.24v683.52h-683.52v-683.52zM777.82,246.18h-531.63v531.63h531.63zM549.98,398.08h-75.95v-75.94h75.95zM398.08,549.98h-75.94v-75.95h75.94zM549.98,549.98h-75.95v-75.95h75.95zM701.86,549.98h-75.94v-75.95h75.94zM549.98,701.86h-75.95v-75.94h75.95z" fill="currentColor"/>
			</g>
		</g>
	</g>
</svg>