<svg version="1.1" xmlns="http://www.w3.org/2000/svg" xmlns:xlink="http://www.w3.org/1999/xlink" viewBox="0,0,1024,1024">
	<!-- Color names: teamapps-color-1 -->
	<desc>brightness_2 icon - Licensed under Apache License v2.0 (http://www.apache.org/licenses/LICENSE-2.0) - Created with Iconfu.com - Derivative work of Material icons (Copyright Google Inc.)</desc>
	<defs>
		<clipPath id="clip-mUUidCEc">
			<path d="M153.18,89.26h755.6v934.74h-755.6z"/>
		</clipPath>
		<filter id="filter-hCVxH0V7" x="-17%" y="-6%" width="177%" height="143%" color-interpolation-filters="sRGB">
			<feColorMatrix values="1 0 0 0 0 0 1 0 0 0 0 0 1 0 0 0 0 0 0.2 0" in="SourceGraphic"/>
			<feOffset dy="20"/>
			<feGaussianBlur stdDeviation="11" result="blur0"/>
			<feColorMatrix values="1 0 0 0 0 0 1 0 0 0 0 0 1 0 0 0 0 0 0.3 0" in="SourceGraphic"/>
			<feOffset dy="30"/>
			<feGaussianBlur stdDeviation="20" result="blur1"/>
			<feMerge>
				<feMergeNode in="blur0"/>
				<feMergeNode in="blur1"/>
			</feMerge>
		</filter>
	</defs>
	<g fill="none" fill-rule="nonzero" style="mix-blend-mode: normal">
		<g clip-path="url(#clip-mUUidCEc)">
			<path d="M815.78,512c0,209.61 -170.11,379.74 -379.73,379.74c-69.11,0 -134.05,-18.98 -189.87,-51.26c113.54,-65.69 189.87,-187.97 189.87,-328.47c0,-140.5 -76.34,-262.78 -189.87,-328.47c55.82,-32.28 120.76,-51.26 189.87,-51.26c209.61,0 379.73,170.12 379.73,379.74z" fill="#000000" filter="url(#filter-hCVxH0V7)"/>
		</g>
		<g>
			<g color="#039be5" class="teamapps-color-1">
				<path d="M815.78,512c0,209.61 -170.11,379.74 -379.73,379.74c-69.11,0 -134.05,-18.98 -189.87,-51.26c113.54,-65.69 189.87,-187.97 189.87,-328.47c0,-140.5 -76.34,-262.78 -189.87,-328.47c55.82,-32.28 120.76,-51.26 189.87,-51.26c209.61,0 379.73,170.12 379.73,379.74z" fill="currentColor"/>
			</g>
		</g>
	</g>
</svg>