<svg version="1.1" xmlns="http://www.w3.org/2000/svg" xmlns:xlink="http://www.w3.org/1999/xlink" viewBox="0,0,1024,1024">
	<!-- Color names: teamapps-color-1 -->
	<desc>brightness_4 icon - Licensed under Apache License v2.0 (http://www.apache.org/licenses/LICENSE-2.0) - Created with Iconfu.com - Derivative work of Material icons (Copyright Google Inc.)</desc>
	<defs>
		<clipPath id="clip-Fl0R0Ul0">
			<path d="M0,1024v-984.48h1024v984.48z"/>
		</clipPath>
		<filter id="filter-8zoi5MxA" x="-11%" y="-6%" width="132%" height="133%" color-interpolation-filters="sRGB">
			<feColorMatrix values="1 0 0 0 0 0 1 0 0 0 0 0 1 0 0 0 0 0 0.2 0" in="SourceGraphic"/>
			<feOffset dy="20"/>
			<feGaussianBlur stdDeviation="11" result="blur0"/>
			<feColorMatrix values="1 0 0 0 0 0 1 0 0 0 0 0 1 0 0 0 0 0 0.3 0" in="SourceGraphic"/>
			<feOffset dy="30"/>
			<feGaussianBlur stdDeviation="20" result="blur1"/>
			<feMerge>
				<feMergeNode in="blur0"/>
				<feMergeNode in="blur1"/>
			</feMerge>
		</filter>
	</defs>
	<g fill="none" fill-rule="nonzero" style="mix-blend-mode: normal">
		<g clip-path="url(#clip-Fl0R0Ul0)">
			<path d="M941.48,512l-125.69,125.69v178.09h-178.09l-125.69,125.69l-125.69,-125.69h-178.09v-178.09l-125.69,-125.69l125.69,-125.69v-178.09h178.09l125.69,-125.69l125.69,125.69h178.09v178.09zM739.84,512c0,-125.69 -102.15,-227.84 -227.84,-227.84c-33.79,0 -66.07,7.6 -94.94,20.89c78.22,36.07 132.91,115.06 132.91,206.95c0,91.89 -54.69,170.88 -132.91,206.95c28.86,13.29 61.14,20.89 94.94,20.89c125.69,0 227.84,-102.15 227.84,-227.84z" fill="#000000" filter="url(#filter-8zoi5MxA)"/>
		</g>
		<g>
			<g color="#039be5" class="teamapps-color-1">
				<path d="M941.48,512l-125.69,125.69v178.09h-178.09l-125.69,125.69l-125.69,-125.69h-178.09v-178.09l-125.69,-125.69l125.69,-125.69v-178.09h178.09l125.69,-125.69l125.69,125.69h178.09v178.09zM739.84,512c0,-125.69 -102.15,-227.84 -227.84,-227.84c-33.79,0 -66.07,7.6 -94.94,20.89c78.22,36.07 132.91,115.06 132.91,206.95c0,91.89 -54.69,170.88 -132.91,206.95c28.86,13.29 61.14,20.89 94.94,20.89c125.69,0 227.84,-102.15 227.84,-227.84z" fill="currentColor"/>
			</g>
		</g>
	</g>
</svg>