<svg version="1.1" xmlns="http://www.w3.org/2000/svg" xmlns:xlink="http://www.w3.org/1999/xlink" viewBox="0,0,1024,1024">
	<!-- Color names: teamapps-color-1 -->
	<desc>bubble_chart icon - Licensed under Apache License v2.0 (http://www.apache.org/licenses/LICENSE-2.0) - Created with Iconfu.com - Derivative work of Material icons (Copyright Google Inc.)</desc>
	<defs>
		<filter id="filter-jYiVbFXj" x="-16%" y="-8%" width="166%" height="166%" color-interpolation-filters="sRGB">
			<feColorMatrix values="1 0 0 0 0 0 1 0 0 0 0 0 1 0 0 0 0 0 0.2 0" in="SourceGraphic"/>
			<feOffset dy="20"/>
			<feGaussianBlur stdDeviation="11" result="blur0"/>
			<feColorMatrix values="1 0 0 0 0 0 1 0 0 0 0 0 1 0 0 0 0 0 0.3 0" in="SourceGraphic"/>
			<feOffset dy="30"/>
			<feGaussianBlur stdDeviation="20" result="blur1"/>
			<feMerge>
				<feMergeNode in="blur0"/>
				<feMergeNode in="blur1"/>
			</feMerge>
		</filter>
	</defs>
	<g fill="none" fill-rule="nonzero" style="mix-blend-mode: normal">
		<path d="M208.22,603.14c0,-67.11 54.4,-121.51 121.51,-121.51c67.11,0 121.51,54.4 121.51,121.51c0,67.11 -54.4,121.51 -121.51,121.51c-67.11,0 -121.51,-54.4 -121.51,-121.51zM542.38,739.84c0,-41.95 34.01,-75.94 75.95,-75.94c41.95,0 75.94,34 75.94,75.94c0,41.95 -34,75.94 -75.94,75.94c-41.95,0 -75.95,-34 -75.95,-75.94zM451.24,390.49c0,-100.67 81.6,-182.27 182.27,-182.27c100.67,0 182.27,81.6 182.27,182.27c0,100.67 -81.6,182.27 -182.27,182.27c-100.67,0 -182.27,-81.6 -182.27,-182.27z" fill="#000000" filter="url(#filter-jYiVbFXj)"/>
		<g>
			<g color="#039be5" class="teamapps-color-1">
				<path d="M208.22,603.14c0,-67.11 54.4,-121.51 121.51,-121.51c67.11,0 121.51,54.4 121.51,121.51c0,67.11 -54.4,121.51 -121.51,121.51c-67.11,0 -121.51,-54.4 -121.51,-121.51z" fill="currentColor"/>
			</g>
			<g color="#039be5" class="teamapps-color-1">
				<path d="M542.38,739.84c0,-41.95 34.01,-75.94 75.95,-75.94c41.95,0 75.94,34 75.94,75.94c0,41.95 -34,75.94 -75.94,75.94c-41.95,0 -75.95,-34 -75.95,-75.94z" fill="currentColor"/>
			</g>
			<g color="#039be5" class="teamapps-color-1">
				<path d="M451.24,390.49c0,-100.67 81.6,-182.27 182.27,-182.27c100.67,0 182.27,81.6 182.27,182.27c0,100.67 -81.6,182.27 -182.27,182.27c-100.67,0 -182.27,-81.6 -182.27,-182.27z" fill="currentColor"/>
			</g>
		</g>
	</g>
</svg>