<svg version="1.1" xmlns="http://www.w3.org/2000/svg" xmlns:xlink="http://www.w3.org/1999/xlink" viewBox="0,0,1024,1024">
	<!-- Color names: teamapps-color-1 -->
	<desc>casino icon - Licensed under Apache License v2.0 (http://www.apache.org/licenses/LICENSE-2.0) - Created with Iconfu.com - Derivative work of Material icons (Copyright Google Inc.)</desc>
	<defs>
		<filter id="filter-mQVdNtl4" x="-14%" y="-7%" width="153%" height="153%" color-interpolation-filters="sRGB">
			<feColorMatrix values="1 0 0 0 0 0 1 0 0 0 0 0 1 0 0 0 0 0 0.2 0" in="SourceGraphic"/>
			<feOffset dy="20"/>
			<feGaussianBlur stdDeviation="11" result="blur0"/>
			<feColorMatrix values="1 0 0 0 0 0 1 0 0 0 0 0 1 0 0 0 0 0 0.3 0" in="SourceGraphic"/>
			<feOffset dy="30"/>
			<feGaussianBlur stdDeviation="20" result="blur1"/>
			<feMerge>
				<feMergeNode in="blur0"/>
				<feMergeNode in="blur1"/>
			</feMerge>
		</filter>
	</defs>
	<g fill="none" fill-rule="nonzero" style="mix-blend-mode: normal">
		<path d="M853.76,246.18v531.63c0,41.77 -34.18,75.94 -75.94,75.94h-531.63c-41.77,0 -75.94,-34.18 -75.94,-75.94v-531.63c0,-41.77 34.18,-75.94 75.94,-75.94h531.63c41.77,0 75.94,34.18 75.94,75.94zM398.08,682.88c0,-31.51 -25.45,-56.96 -56.96,-56.96c-31.51,0 -56.96,25.45 -56.96,56.96c0,31.51 25.45,56.96 56.96,56.96c31.51,0 56.96,-25.45 56.96,-56.96zM398.08,341.12c0,-31.51 -25.45,-56.96 -56.96,-56.96c-31.51,0 -56.96,25.45 -56.96,56.96c0,31.51 25.45,56.96 56.96,56.96c31.51,0 56.96,-25.45 56.96,-56.96zM568.96,512c0,-31.51 -25.45,-56.96 -56.96,-56.96c-31.51,0 -56.96,25.45 -56.96,56.96c0,31.51 25.45,56.96 56.96,56.96c31.51,0 56.96,-25.45 56.96,-56.96zM739.84,682.88c0,-31.51 -25.45,-56.96 -56.96,-56.96c-31.51,0 -56.96,25.45 -56.96,56.96c0,31.51 25.45,56.96 56.96,56.96c31.51,0 56.96,-25.45 56.96,-56.96zM739.84,341.12c0,-31.51 -25.45,-56.96 -56.96,-56.96c-31.51,0 -56.96,25.45 -56.96,56.96c0,31.51 25.45,56.96 56.96,56.96c31.51,0 56.96,-25.45 56.96,-56.96z" fill="#000000" filter="url(#filter-mQVdNtl4)"/>
		<g>
			<g color="#039be5" class="teamapps-color-1">
				<path d="M853.76,246.18v531.63c0,41.77 -34.18,75.94 -75.94,75.94h-531.63c-41.77,0 -75.94,-34.18 -75.94,-75.94v-531.63c0,-41.77 34.18,-75.94 75.94,-75.94h531.63c41.77,0 75.94,34.18 75.94,75.94zM398.08,682.88c0,-31.51 -25.45,-56.96 -56.96,-56.96c-31.51,0 -56.96,25.45 -56.96,56.96c0,31.51 25.45,56.96 56.96,56.96c31.51,0 56.96,-25.45 56.96,-56.96zM398.08,341.12c0,-31.51 -25.45,-56.96 -56.96,-56.96c-31.51,0 -56.96,25.45 -56.96,56.96c0,31.51 25.45,56.96 56.96,56.96c31.51,0 56.96,-25.45 56.96,-56.96zM568.96,512c0,-31.51 -25.45,-56.96 -56.96,-56.96c-31.51,0 -56.96,25.45 -56.96,56.96c0,31.51 25.45,56.96 56.96,56.96c31.51,0 56.96,-25.45 56.96,-56.96zM739.84,682.88c0,-31.51 -25.45,-56.96 -56.96,-56.96c-31.51,0 -56.96,25.45 -56.96,56.96c0,31.51 25.45,56.96 56.96,56.96c31.51,0 56.96,-25.45 56.96,-56.96zM739.84,341.12c0,-31.51 -25.45,-56.96 -56.96,-56.96c-31.51,0 -56.96,25.45 -56.96,56.96c0,31.51 25.45,56.96 56.96,56.96c31.51,0 56.96,-25.45 56.96,-56.96z" fill="currentColor"/>
			</g>
		</g>
	</g>
</svg>