<svg version="1.1" xmlns="http://www.w3.org/2000/svg" xmlns:xlink="http://www.w3.org/1999/xlink" viewBox="0,0,1024,1024">
	<!-- Color names: teamapps-color-1 -->
	<desc>check_box icon - Licensed under Apache License v2.0 (http://www.apache.org/licenses/LICENSE-2.0) - Created with Iconfu.com - Derivative work of Material icons (Copyright Google Inc.)</desc>
	<defs>
		<filter id="filter-g9wFyxpl" x="-14%" y="-7%" width="153%" height="153%" color-interpolation-filters="sRGB">
			<feColorMatrix values="1 0 0 0 0 0 1 0 0 0 0 0 1 0 0 0 0 0 0.2 0" in="SourceGraphic"/>
			<feOffset dy="20"/>
			<feGaussianBlur stdDeviation="11" result="blur0"/>
			<feColorMatrix values="1 0 0 0 0 0 1 0 0 0 0 0 1 0 0 0 0 0 0.3 0" in="SourceGraphic"/>
			<feOffset dy="30"/>
			<feGaussianBlur stdDeviation="20" result="blur1"/>
			<feMerge>
				<feMergeNode in="blur0"/>
				<feMergeNode in="blur1"/>
			</feMerge>
		</filter>
	</defs>
	<g fill="none" fill-rule="nonzero" style="mix-blend-mode: normal">
		<path d="M853.76,246.18v531.63c0,41.77 -33.79,75.94 -75.94,75.94h-531.63c-42.15,0 -75.94,-34.18 -75.94,-75.94v-531.63c0,-41.77 33.79,-75.94 75.94,-75.94h531.63c42.15,0 75.94,34.18 75.94,75.94zM777.82,360.1l-53.54,-53.92l-288.22,288.22l-136.33,-135.95l-53.54,53.54l189.87,189.86z" fill="#000000" filter="url(#filter-g9wFyxpl)"/>
		<g>
			<g color="#039be5" class="teamapps-color-1">
				<path d="M853.76,246.18v531.63c0,41.77 -33.79,75.94 -75.94,75.94h-531.63c-42.15,0 -75.94,-34.18 -75.94,-75.94v-531.63c0,-41.77 33.79,-75.94 75.94,-75.94h531.63c42.15,0 75.94,34.18 75.94,75.94zM777.82,360.1l-53.54,-53.92l-288.22,288.22l-136.33,-135.95l-53.54,53.54l189.87,189.86z" fill="currentColor"/>
			</g>
		</g>
	</g>
</svg>