<svg version="1.1" xmlns="http://www.w3.org/2000/svg" xmlns:xlink="http://www.w3.org/1999/xlink" viewBox="0,0,1024,1024">
	<!-- Color names: teamapps-color-1 -->
	<desc>closed_caption icon - Licensed under Apache License v2.0 (http://www.apache.org/licenses/LICENSE-2.0) - Created with Iconfu.com - Derivative work of Material icons (Copyright Google Inc.)</desc>
	<defs>
		<filter id="filter-93fEc4z1" x="-14%" y="-8%" width="153%" height="166%" color-interpolation-filters="sRGB">
			<feColorMatrix values="1 0 0 0 0 0 1 0 0 0 0 0 1 0 0 0 0 0 0.2 0" in="SourceGraphic"/>
			<feOffset dy="20"/>
			<feGaussianBlur stdDeviation="11" result="blur0"/>
			<feColorMatrix values="1 0 0 0 0 0 1 0 0 0 0 0 1 0 0 0 0 0 0.3 0" in="SourceGraphic"/>
			<feOffset dy="30"/>
			<feGaussianBlur stdDeviation="20" result="blur1"/>
			<feMerge>
				<feMergeNode in="blur0"/>
				<feMergeNode in="blur1"/>
			</feMerge>
		</filter>
	</defs>
	<g fill="none" fill-rule="nonzero" style="mix-blend-mode: normal">
		<path d="M853.76,284.16v455.68c0,41.77 -34.18,75.94 -75.94,75.94h-531.63c-42.15,0 -75.94,-34.18 -75.94,-75.94v-455.68c0,-41.77 33.79,-75.94 75.94,-75.94h531.63c41.77,0 75.94,34.18 75.94,75.94zM739.84,436.06c0,-20.89 -17.09,-37.98 -37.98,-37.98h-113.92c-20.89,0 -37.97,17.09 -37.97,37.98v151.89c0,20.89 17.08,37.98 37.97,37.98h113.92c20.89,0 37.98,-17.09 37.98,-37.98v-37.97h-56.96v18.98h-75.94v-113.92h75.94v18.98h56.96zM474.02,436.06c0,-20.89 -17.08,-37.98 -37.97,-37.98h-113.92c-20.89,0 -37.98,17.09 -37.98,37.98v151.89c0,20.89 17.09,37.98 37.98,37.98h113.92c20.89,0 37.97,-17.09 37.97,-37.98v-37.97h-56.96v18.98h-75.94v-113.92h75.94v18.98h56.96z" fill="#000000" filter="url(#filter-93fEc4z1)"/>
		<g>
			<g color="#039be5" class="teamapps-color-1">
				<path d="M853.76,284.16v455.68c0,41.77 -34.18,75.94 -75.94,75.94h-531.63c-42.15,0 -75.94,-34.18 -75.94,-75.94v-455.68c0,-41.77 33.79,-75.94 75.94,-75.94h531.63c41.77,0 75.94,34.18 75.94,75.94zM739.84,436.06c0,-20.89 -17.09,-37.98 -37.98,-37.98h-113.92c-20.89,0 -37.97,17.09 -37.97,37.98v151.89c0,20.89 17.08,37.98 37.97,37.98h113.92c20.89,0 37.98,-17.09 37.98,-37.98v-37.97h-56.96v18.98h-75.94v-113.92h75.94v18.98h56.96zM474.02,436.06c0,-20.89 -17.08,-37.98 -37.97,-37.98h-113.92c-20.89,0 -37.98,17.09 -37.98,37.98v151.89c0,20.89 17.09,37.98 37.98,37.98h113.92c20.89,0 37.97,-17.09 37.97,-37.98v-37.97h-56.96v18.98h-75.94v-113.92h75.94v18.98h56.96z" fill="currentColor"/>
			</g>
		</g>
	</g>
</svg>