<svg version="1.1" xmlns="http://www.w3.org/2000/svg" xmlns:xlink="http://www.w3.org/1999/xlink" viewBox="0,0,1024,1024">
	<!-- Color names: teamapps-color-1 -->
	<desc>comment icon - Licensed under Apache License v2.0 (http://www.apache.org/licenses/LICENSE-2.0) - Created with Iconfu.com - Derivative work of Material icons (Copyright Google Inc.)</desc>
	<defs>
		<clipPath id="clip-e8AEHeph">
			<path d="M39.26,89.26h945.47v934.74h-945.47z"/>
		</clipPath>
		<filter id="filter-4zbErrGJ" x="-13%" y="-6%" width="143%" height="143%" color-interpolation-filters="sRGB">
			<feColorMatrix values="1 0 0 0 0 0 1 0 0 0 0 0 1 0 0 0 0 0 0.2 0" in="SourceGraphic"/>
			<feOffset dy="20"/>
			<feGaussianBlur stdDeviation="11" result="blur0"/>
			<feColorMatrix values="1 0 0 0 0 0 1 0 0 0 0 0 1 0 0 0 0 0 0.3 0" in="SourceGraphic"/>
			<feOffset dy="30"/>
			<feGaussianBlur stdDeviation="20" result="blur1"/>
			<feMerge>
				<feMergeNode in="blur0"/>
				<feMergeNode in="blur1"/>
			</feMerge>
		</filter>
	</defs>
	<g fill="none" fill-rule="nonzero" style="mix-blend-mode: normal">
		<g clip-path="url(#clip-e8AEHeph)">
			<path d="M891.74,891.74l-151.9,-151.9h-531.62c-41.77,0 -75.95,-34.18 -75.95,-75.94v-455.68c0,-41.77 34.18,-75.95 75.95,-75.95h607.57c41.77,0 75.57,34.18 75.57,75.95zM739.84,398.08h-455.68v75.94h455.68zM739.84,284.16h-455.68v75.94h455.68zM739.84,512h-455.68v75.94h455.68z" fill="#000000" filter="url(#filter-4zbErrGJ)"/>
		</g>
		<g>
			<g color="#039be5" class="teamapps-color-1">
				<path d="M891.74,891.74l-151.9,-151.9h-531.62c-41.77,0 -75.95,-34.18 -75.95,-75.94v-455.68c0,-41.77 34.18,-75.95 75.95,-75.95h607.57c41.77,0 75.57,34.18 75.57,75.95zM739.84,398.08h-455.68v75.94h455.68zM739.84,284.16h-455.68v75.94h455.68zM739.84,512h-455.68v75.94h455.68z" fill="currentColor"/>
			</g>
		</g>
	</g>
</svg>