<svg version="1.1" xmlns="http://www.w3.org/2000/svg" xmlns:xlink="http://www.w3.org/1999/xlink" viewBox="0,0,1024,1024">
	<!-- Color names: teamapps-color-1 -->
	<desc>contact_mail icon - Licensed under Apache License v2.0 (http://www.apache.org/licenses/LICENSE-2.0) - Created with Iconfu.com - Derivative work of Material icons (Copyright Google Inc.)</desc>
	<defs>
		<clipPath id="clip-R7Lyd8Vk">
			<path d="M0,127.24h1024v869.52h-1024z"/>
		</clipPath>
		<filter id="filter-6hvnUyBJ" x="-11%" y="-7%" width="128%" height="153%" color-interpolation-filters="sRGB">
			<feColorMatrix values="1 0 0 0 0 0 1 0 0 0 0 0 1 0 0 0 0 0 0.2 0" in="SourceGraphic"/>
			<feOffset dy="20"/>
			<feGaussianBlur stdDeviation="11" result="blur0"/>
			<feColorMatrix values="1 0 0 0 0 0 1 0 0 0 0 0 1 0 0 0 0 0 0.3 0" in="SourceGraphic"/>
			<feOffset dy="30"/>
			<feGaussianBlur stdDeviation="20" result="blur1"/>
			<feMerge>
				<feMergeNode in="blur0"/>
				<feMergeNode in="blur1"/>
			</feMerge>
		</filter>
	</defs>
	<g fill="none" fill-rule="nonzero" style="mix-blend-mode: normal">
		<g clip-path="url(#clip-R7Lyd8Vk)">
			<path d="M967.68,246.18l-0.38,531.63c0,41.77 -33.79,75.94 -75.56,75.94h-759.47c-41.77,0 -75.94,-34.18 -75.94,-75.94v-531.63c0,-41.77 34.18,-75.94 75.94,-75.94h759.47c41.77,0 75.94,34.18 75.94,75.94zM587.94,701.86c0,-75.94 -151.9,-117.71 -227.84,-117.71c-75.94,0 -227.84,41.77 -227.84,117.71v37.98h455.68zM891.74,284.16h-303.79v227.84h303.79zM246.18,398.08c0,63.04 50.88,113.92 113.92,113.92c63.04,0 113.92,-50.88 113.92,-113.92c0,-63.04 -50.88,-113.92 -113.92,-113.92c-63.04,0 -113.92,50.88 -113.92,113.92zM739.84,436.06l-113.92,-75.95v-37.97l113.92,75.94l113.92,-75.94v37.97z" fill="#000000" filter="url(#filter-6hvnUyBJ)"/>
		</g>
		<g>
			<g color="#039be5" class="teamapps-color-1">
				<path d="M967.68,246.18l-0.38,531.63c0,41.77 -33.79,75.94 -75.56,75.94h-759.47c-41.77,0 -75.94,-34.18 -75.94,-75.94v-531.63c0,-41.77 34.18,-75.94 75.94,-75.94h759.47c41.77,0 75.94,34.18 75.94,75.94zM587.94,701.86c0,-75.94 -151.9,-117.71 -227.84,-117.71c-75.94,0 -227.84,41.77 -227.84,117.71v37.98h455.68zM891.74,284.16h-303.79v227.84h303.79zM246.18,398.08c0,63.04 50.88,113.92 113.92,113.92c63.04,0 113.92,-50.88 113.92,-113.92c0,-63.04 -50.88,-113.92 -113.92,-113.92c-63.04,0 -113.92,50.88 -113.92,113.92zM739.84,436.06l-113.92,-75.95v-37.97l113.92,75.94l113.92,-75.94v37.97z" fill="currentColor"/>
			</g>
		</g>
	</g>
</svg>