<svg version="1.1" xmlns="http://www.w3.org/2000/svg" xmlns:xlink="http://www.w3.org/1999/xlink" viewBox="0,0,1024,1024">
	<!-- Color names: teamapps-color-1 -->
	<desc>crop_landscape icon - Licensed under Apache License v2.0 (http://www.apache.org/licenses/LICENSE-2.0) - Created with Iconfu.com - Derivative work of Material icons (Copyright Google Inc.)</desc>
	<defs>
		<filter id="filter-0n1EjLDU" x="-14%" y="-9%" width="153%" height="183%" color-interpolation-filters="sRGB">
			<feColorMatrix values="1 0 0 0 0 0 1 0 0 0 0 0 1 0 0 0 0 0 0.2 0" in="SourceGraphic"/>
			<feOffset dy="20"/>
			<feGaussianBlur stdDeviation="11" result="blur0"/>
			<feColorMatrix values="1 0 0 0 0 0 1 0 0 0 0 0 1 0 0 0 0 0 0.3 0" in="SourceGraphic"/>
			<feOffset dy="30"/>
			<feGaussianBlur stdDeviation="20" result="blur1"/>
			<feMerge>
				<feMergeNode in="blur0"/>
				<feMergeNode in="blur1"/>
			</feMerge>
		</filter>
	</defs>
	<g fill="none" fill-rule="nonzero" style="mix-blend-mode: normal">
		<path d="M853.76,322.14v379.73c0,41.77 -34.18,75.95 -75.94,75.95h-531.63c-41.77,0 -75.94,-34.18 -75.94,-75.95v-379.73c0,-41.77 34.18,-75.95 75.94,-75.95h531.63c41.77,0 75.94,34.18 75.94,75.95zM777.82,322.14h-531.63v379.73h531.63z" fill="#000000" filter="url(#filter-0n1EjLDU)"/>
		<g>
			<g color="#039be5" class="teamapps-color-1">
				<path d="M853.76,322.14v379.73c0,41.77 -34.18,75.95 -75.94,75.95h-531.63c-41.77,0 -75.94,-34.18 -75.94,-75.95v-379.73c0,-41.77 34.18,-75.95 75.94,-75.95h531.63c41.77,0 75.94,34.18 75.94,75.95zM777.82,322.14h-531.63v379.73h531.63z" fill="currentColor"/>
			</g>
		</g>
	</g>
</svg>