<svg version="1.1" xmlns="http://www.w3.org/2000/svg" xmlns:xlink="http://www.w3.org/1999/xlink" viewBox="0,0,1024,1024">
	<!-- Color names: teamapps-color-1 -->
	<desc>dialer_sip icon - Licensed under Apache License v2.0 (http://www.apache.org/licenses/LICENSE-2.0) - Created with Iconfu.com - Derivative work of Material icons (Copyright Google Inc.)</desc>
	<defs>
		<filter id="filter-UNrku2R0" x="-14%" y="-7%" width="153%" height="153%" color-interpolation-filters="sRGB">
			<feColorMatrix values="1 0 0 0 0 0 1 0 0 0 0 0 1 0 0 0 0 0 0.2 0" in="SourceGraphic"/>
			<feOffset dy="20"/>
			<feGaussianBlur stdDeviation="11" result="blur0"/>
			<feColorMatrix values="1 0 0 0 0 0 1 0 0 0 0 0 1 0 0 0 0 0 0.3 0" in="SourceGraphic"/>
			<feOffset dy="30"/>
			<feGaussianBlur stdDeviation="20" result="blur1"/>
			<feMerge>
				<feMergeNode in="blur0"/>
				<feMergeNode in="blur1"/>
			</feMerge>
		</filter>
	</defs>
	<g fill="none" fill-rule="nonzero" style="mix-blend-mode: normal">
		<path d="M853.76,682.88v132.9c0,20.89 -17.09,37.98 -37.98,37.98c-356.57,0 -645.54,-288.97 -645.54,-645.54c0,-20.89 17.09,-37.98 37.98,-37.98h132.9c20.89,0 37.98,17.09 37.98,37.98c0,47.46 7.59,93.03 21.64,135.56c4.17,13.29 1.14,28.1 -9.11,37.97l-83.54,83.93c54.68,107.84 142.77,195.56 250.24,250.24l83.54,-83.54c10.25,-10.25 25.06,-13.29 38.35,-9.11c42.53,14.05 88.1,21.64 135.56,21.64c20.89,0 37.98,17.09 37.98,37.98zM625.92,360.1h-113.92v-37.97h75.94v-37.98h-75.94v-113.92h113.92v37.98h-75.94v37.97h75.94zM853.76,170.24v113.92h-75.94v75.94h-37.98v-189.86zM701.86,360.1h-37.97v-189.86h37.97zM815.78,208.22h-37.97v37.97h37.97z" fill="#000000" filter="url(#filter-UNrku2R0)"/>
		<g>
			<g color="#039be5" class="teamapps-color-1">
				<path d="M853.76,682.88v132.9c0,20.89 -17.09,37.98 -37.98,37.98c-356.57,0 -645.54,-288.97 -645.54,-645.54c0,-20.89 17.09,-37.98 37.98,-37.98h132.9c20.89,0 37.98,17.09 37.98,37.98c0,47.46 7.59,93.03 21.64,135.56c4.17,13.29 1.14,28.1 -9.11,37.97l-83.54,83.93c54.68,107.84 142.77,195.56 250.24,250.24l83.54,-83.54c10.25,-10.25 25.06,-13.29 38.35,-9.11c42.53,14.05 88.1,21.64 135.56,21.64c20.89,0 37.98,17.09 37.98,37.98zM625.92,360.1h-113.92v-37.97h75.94v-37.98h-75.94v-113.92h113.92v37.98h-75.94v37.97h75.94zM853.76,170.24v113.92h-75.94v75.94h-37.98v-189.86zM701.86,360.1h-37.97v-189.86h37.97zM815.78,208.22h-37.97v37.97h37.97z" fill="currentColor"/>
			</g>
		</g>
	</g>
</svg>