<svg version="1.1" xmlns="http://www.w3.org/2000/svg" xmlns:xlink="http://www.w3.org/1999/xlink" viewBox="0,0,1024,1024">
	<!-- Color names: teamapps-color-1 -->
	<desc>directions_railway icon - Licensed under Apache License v2.0 (http://www.apache.org/licenses/LICENSE-2.0) - Created with Iconfu.com - Derivative work of Material icons (Copyright Google Inc.)</desc>
	<defs>
		<filter id="filter-vRBJsEsE" x="-16%" y="-6%" width="166%" height="138%" color-interpolation-filters="sRGB">
			<feColorMatrix values="1 0 0 0 0 0 1 0 0 0 0 0 1 0 0 0 0 0 0.2 0" in="SourceGraphic"/>
			<feOffset dy="20"/>
			<feGaussianBlur stdDeviation="11" result="blur0"/>
			<feColorMatrix values="1 0 0 0 0 0 1 0 0 0 0 0 1 0 0 0 0 0 0.3 0" in="SourceGraphic"/>
			<feOffset dy="30"/>
			<feGaussianBlur stdDeviation="20" result="blur1"/>
			<feMerge>
				<feMergeNode in="blur0"/>
				<feMergeNode in="blur1"/>
			</feMerge>
		</filter>
	</defs>
	<g fill="none" fill-rule="nonzero" style="mix-blend-mode: normal">
		<path d="M208.22,246.18c0,-132.9 135.94,-151.89 303.78,-151.89c167.85,0 303.78,18.98 303.78,151.89v398.72c0,73.29 -59.61,132.91 -132.9,132.91l56.96,56.96v18.98h-455.68v-18.98l56.96,-56.96c-73.29,0 -132.9,-59.62 -132.9,-132.91zM739.84,246.18h-455.68v189.87h455.68zM587.94,625.92c0,-41.77 -34.18,-75.94 -75.94,-75.94c-41.77,0 -75.94,34.18 -75.94,75.94c0,41.77 34.18,75.94 75.94,75.94c41.77,0 75.94,-34.18 75.94,-75.94z" fill="#000000" filter="url(#filter-vRBJsEsE)"/>
		<g>
			<g color="#039be5" class="teamapps-color-1">
				<path d="M208.22,246.18c0,-132.9 135.94,-151.89 303.78,-151.89c167.85,0 303.78,18.98 303.78,151.89v398.72c0,73.29 -59.61,132.91 -132.9,132.91l56.96,56.96v18.98h-455.68v-18.98l56.96,-56.96c-73.29,0 -132.9,-59.62 -132.9,-132.91zM739.84,246.18h-455.68v189.87h455.68zM587.94,625.92c0,-41.77 -34.18,-75.94 -75.94,-75.94c-41.77,0 -75.94,34.18 -75.94,75.94c0,41.77 34.18,75.94 75.94,75.94c41.77,0 75.94,-34.18 75.94,-75.94z" fill="currentColor"/>
			</g>
		</g>
	</g>
</svg>