<svg version="1.1" xmlns="http://www.w3.org/2000/svg" xmlns:xlink="http://www.w3.org/1999/xlink" viewBox="0,0,1024,1024">
	<!-- Color names: teamapps-color-1 -->
	<desc>dock icon - Licensed under Apache License v2.0 (http://www.apache.org/licenses/LICENSE-2.0) - Created with Iconfu.com - Derivative work of Material icons (Copyright Google Inc.)</desc>
	<defs>
		<clipPath id="clip-mgQmCoed">
			<path d="M191.16,51.3h641.68v972.7h-641.68z"/>
		</clipPath>
		<filter id="filter-iRCOqiB4" x="-21%" y="-6%" width="204%" height="135%" color-interpolation-filters="sRGB">
			<feColorMatrix values="1 0 0 0 0 0 1 0 0 0 0 0 1 0 0 0 0 0 0.2 0" in="SourceGraphic"/>
			<feOffset dy="20"/>
			<feGaussianBlur stdDeviation="11" result="blur0"/>
			<feColorMatrix values="1 0 0 0 0 0 1 0 0 0 0 0 1 0 0 0 0 0 0.3 0" in="SourceGraphic"/>
			<feOffset dy="30"/>
			<feGaussianBlur stdDeviation="20" result="blur1"/>
			<feMerge>
				<feMergeNode in="blur0"/>
				<feMergeNode in="blur1"/>
			</feMerge>
		</filter>
	</defs>
	<g fill="none" fill-rule="nonzero" style="mix-blend-mode: normal">
		<g clip-path="url(#clip-mgQmCoed)">
			<path d="M739.84,170.24v531.62c0,41.77 -34.18,75.95 -75.94,75.95h-303.79c-41.77,0 -75.94,-34.18 -75.94,-75.95v-531.62c0,-41.77 34.18,-75.94 75.94,-75.94l303.79,0.37c41.77,0 75.94,33.8 75.94,75.57zM663.9,246.18h-303.79v379.74h303.79zM360.1,853.76h303.79v75.94h-303.79z" fill="#000000" filter="url(#filter-iRCOqiB4)"/>
		</g>
		<g>
			<g color="#039be5" class="teamapps-color-1">
				<path d="M739.84,170.24v531.62c0,41.77 -34.18,75.95 -75.94,75.95h-303.79c-41.77,0 -75.94,-34.18 -75.94,-75.95v-531.62c0,-41.77 34.18,-75.94 75.94,-75.94l303.79,0.37c41.77,0 75.94,33.8 75.94,75.57zM663.9,246.18h-303.79v379.74h303.79zM360.1,853.76h303.79v75.94h-303.79z" fill="currentColor"/>
			</g>
		</g>
	</g>
</svg>