<svg version="1.1" xmlns="http://www.w3.org/2000/svg" xmlns:xlink="http://www.w3.org/1999/xlink" viewBox="0,0,1024,1024">
	<!-- Color names: teamapps-color-1 -->
	<desc>exposure_zero icon - Licensed under Apache License v2.0 (http://www.apache.org/licenses/LICENSE-2.0) - Created with Iconfu.com - Derivative work of Material icons (Copyright Google Inc.)</desc>
	<defs>
		<filter id="filter-yWulhW4C" x="-30%" y="-9%" width="273%" height="188%" color-interpolation-filters="sRGB">
			<feColorMatrix values="1 0 0 0 0 0 1 0 0 0 0 0 1 0 0 0 0 0 0.2 0" in="SourceGraphic"/>
			<feOffset dy="20"/>
			<feGaussianBlur stdDeviation="11" result="blur0"/>
			<feColorMatrix values="1 0 0 0 0 0 1 0 0 0 0 0 1 0 0 0 0 0 0.3 0" in="SourceGraphic"/>
			<feOffset dy="30"/>
			<feGaussianBlur stdDeviation="20" result="blur1"/>
			<feMerge>
				<feMergeNode in="blur0"/>
				<feMergeNode in="blur1"/>
			</feMerge>
		</filter>
	</defs>
	<g fill="none" fill-rule="nonzero" style="mix-blend-mode: normal">
		<path d="M669.21,530.98c0,37.98 -3.8,70.25 -11.39,96.83c-7.59,26.58 -18.23,48.23 -31.51,64.56c-13.67,16.71 -30,28.48 -49.37,36.07c-19.37,7.59 -40.63,11.39 -64.55,11.39c-23.54,0 -44.81,-3.8 -64.18,-11.39c-19.37,-7.59 -36.07,-19.37 -49.74,-36.07c-13.67,-16.71 -24.69,-38.36 -32.28,-64.56c-7.59,-26.58 -11.39,-58.86 -11.39,-96.83v-77.47c0,-37.98 3.8,-70.25 11.39,-96.83c7.59,-26.58 18.23,-47.84 31.9,-64.17c13.67,-16.33 30.38,-28.1 49.74,-35.32c18.98,-7.22 40.64,-11.02 64.18,-11.02c23.92,0 45.19,3.8 64.55,11.02c19.37,7.22 36.08,18.98 49.75,35.32c13.67,16.33 24.31,37.58 31.9,64.17c7.59,26.58 11.39,58.48 11.39,96.83v77.47zM589.08,441.37c0,-24.31 -1.9,-44.81 -4.93,-61.52c-3.42,-16.71 -8.36,-30 -15.19,-40.25c-6.45,-10.25 -14.81,-17.46 -24.31,-22.02c-9.5,-4.94 -20.51,-7.22 -32.65,-7.22c-12.15,0 -23.16,2.28 -32.65,6.84c-9.5,4.56 -17.85,11.77 -24.31,22.03c-6.45,10.25 -11.77,23.54 -15.19,40.25c-3.42,16.71 -4.93,37.21 -4.93,61.52v101.39c0,24.31 1.9,44.81 5.31,61.52c3.42,17.09 8.74,30.76 15.19,41.39c6.45,10.64 14.8,18.23 24.3,23.17c9.5,4.94 20.51,7.21 33.04,7.21c12.53,0 23.54,-2.27 33.04,-7.21c9.5,-4.94 17.47,-12.53 23.92,-23.17c6.45,-10.64 11.39,-24.31 14.81,-41.39c3.42,-17.09 4.94,-37.59 4.94,-61.52v-101.01z" fill="#000000" filter="url(#filter-yWulhW4C)"/>
		<g>
			<g color="#039be5" class="teamapps-color-1">
				<path d="M669.21,530.98c0,37.98 -3.8,70.25 -11.39,96.83c-7.59,26.58 -18.23,48.23 -31.51,64.56c-13.67,16.71 -30,28.48 -49.37,36.07c-19.37,7.59 -40.63,11.39 -64.55,11.39c-23.54,0 -44.81,-3.8 -64.18,-11.39c-19.37,-7.59 -36.07,-19.37 -49.74,-36.07c-13.67,-16.71 -24.69,-38.36 -32.28,-64.56c-7.59,-26.58 -11.39,-58.86 -11.39,-96.83v-77.47c0,-37.98 3.8,-70.25 11.39,-96.83c7.59,-26.58 18.23,-47.84 31.9,-64.17c13.67,-16.33 30.38,-28.1 49.74,-35.32c18.98,-7.22 40.64,-11.02 64.18,-11.02c23.92,0 45.19,3.8 64.55,11.02c19.37,7.22 36.08,18.98 49.75,35.32c13.67,16.33 24.31,37.58 31.9,64.17c7.59,26.58 11.39,58.48 11.39,96.83v77.47zM589.08,441.37c0,-24.31 -1.9,-44.81 -4.93,-61.52c-3.42,-16.71 -8.36,-30 -15.19,-40.25c-6.45,-10.25 -14.81,-17.46 -24.31,-22.02c-9.5,-4.94 -20.51,-7.22 -32.65,-7.22c-12.15,0 -23.16,2.28 -32.65,6.84c-9.5,4.56 -17.85,11.77 -24.31,22.03c-6.45,10.25 -11.77,23.54 -15.19,40.25c-3.42,16.71 -4.93,37.21 -4.93,61.52v101.39c0,24.31 1.9,44.81 5.31,61.52c3.42,17.09 8.74,30.76 15.19,41.39c6.45,10.64 14.8,18.23 24.3,23.17c9.5,4.94 20.51,7.21 33.04,7.21c12.53,0 23.54,-2.27 33.04,-7.21c9.5,-4.94 17.47,-12.53 23.92,-23.17c6.45,-10.64 11.39,-24.31 14.81,-41.39c3.42,-17.09 4.94,-37.59 4.94,-61.52v-101.01z" fill="currentColor"/>
			</g>
		</g>
	</g>
</svg>