<svg version="1.1" xmlns="http://www.w3.org/2000/svg" xmlns:xlink="http://www.w3.org/1999/xlink" viewBox="0,0,1024,1024">
	<!-- Color names: teamapps-color-1 -->
	<desc>exposure_plus_2 icon - Licensed under Apache License v2.0 (http://www.apache.org/licenses/LICENSE-2.0) - Created with Iconfu.com - Derivative work of Material icons (Copyright Google Inc.)</desc>
	<defs>
		<filter id="filter-0voOXWTe" x="-13%" y="-9%" width="143%" height="188%" color-interpolation-filters="sRGB">
			<feColorMatrix values="1 0 0 0 0 0 1 0 0 0 0 0 1 0 0 0 0 0 0.2 0" in="SourceGraphic"/>
			<feOffset dy="20"/>
			<feGaussianBlur stdDeviation="11" result="blur0"/>
			<feColorMatrix values="1 0 0 0 0 0 1 0 0 0 0 0 1 0 0 0 0 0 0.3 0" in="SourceGraphic"/>
			<feOffset dy="30"/>
			<feGaussianBlur stdDeviation="20" result="blur1"/>
			<feMerge>
				<feMergeNode in="blur0"/>
				<feMergeNode in="blur1"/>
			</feMerge>
		</filter>
	</defs>
	<g fill="none" fill-rule="nonzero" style="mix-blend-mode: normal">
		<path d="M891.74,674.91v64.93h-327.72v-56.58l158.35,-172.78c13.67,-14.43 24.69,-27.71 33.42,-39.11c9.11,-11.39 15.95,-22.03 21.26,-31.52c5.31,-9.5 8.74,-18.22 11.02,-26.58c1.9,-8.36 3.03,-16.33 3.03,-24.69c0,-11.01 -1.9,-21.26 -4.94,-30.76c-3.42,-9.5 -7.97,-17.84 -14.04,-24.68c-6.08,-6.84 -13.68,-12.53 -22.41,-16.33c-8.73,-3.8 -18.98,-5.7 -30.76,-5.7c-13.67,0 -26.2,2.28 -36.45,6.84c-10.25,4.56 -18.98,10.64 -25.82,18.61c-6.45,7.97 -11.77,17.47 -15.19,28.48c-3.03,10.25 -4.55,21.26 -4.93,33.04h-81.27c0.38,-20.12 3.8,-39.12 10.64,-56.96c7.22,-18.98 17.84,-35.32 31.9,-49.37c13.67,-14.05 31.13,-25.44 51.64,-33.41c20.51,-7.97 44.05,-12.16 70.26,-12.16c24.31,0 45.94,3.03 65.31,9.11c18.61,6.45 34.93,15.19 47.85,26.97c12.91,11.39 22.78,25.45 29.62,42.15c6.84,16.71 10.25,35.32 10.25,55.44c0,14.81 -2.27,30 -7.21,44.81c-4.94,14.81 -11.77,29.62 -20.51,44.43c-8.73,14.81 -18.99,29.62 -31.14,44.43c-12.15,14.81 -25.06,29.99 -39.49,44.8l-108.61,116.58zM360.1,474.02h151.9v75.95h-151.9v151.89h-75.94v-151.89h-151.9v-75.95h151.9v-151.89h75.94z" fill="#000000" filter="url(#filter-0voOXWTe)"/>
		<g>
			<g color="#039be5" class="teamapps-color-1">
				<path d="M891.74,674.91v64.93h-327.72v-56.58l158.35,-172.78c13.67,-14.43 24.69,-27.71 33.42,-39.11c9.11,-11.39 15.95,-22.03 21.26,-31.52c5.31,-9.5 8.74,-18.22 11.02,-26.58c1.9,-8.36 3.03,-16.33 3.03,-24.69c0,-11.01 -1.9,-21.26 -4.94,-30.76c-3.42,-9.5 -7.97,-17.84 -14.04,-24.68c-6.08,-6.84 -13.68,-12.53 -22.41,-16.33c-8.73,-3.8 -18.98,-5.7 -30.76,-5.7c-13.67,0 -26.2,2.28 -36.45,6.84c-10.25,4.56 -18.98,10.64 -25.82,18.61c-6.45,7.97 -11.77,17.47 -15.19,28.48c-3.03,10.25 -4.55,21.26 -4.93,33.04h-81.27c0.38,-20.12 3.8,-39.12 10.64,-56.96c7.22,-18.98 17.84,-35.32 31.9,-49.37c13.67,-14.05 31.13,-25.44 51.64,-33.41c20.51,-7.97 44.05,-12.16 70.26,-12.16c24.31,0 45.94,3.03 65.31,9.11c18.61,6.45 34.93,15.19 47.85,26.97c12.91,11.39 22.78,25.45 29.62,42.15c6.84,16.71 10.25,35.32 10.25,55.44c0,14.81 -2.27,30 -7.21,44.81c-4.94,14.81 -11.77,29.62 -20.51,44.43c-8.73,14.81 -18.99,29.62 -31.14,44.43c-12.15,14.81 -25.06,29.99 -39.49,44.8l-108.61,116.58zM360.1,474.02h151.9v75.95h-151.9v151.89h-75.94v-151.89h-151.9v-75.95h151.9v-151.89h75.94z" fill="currentColor"/>
			</g>
		</g>
	</g>
</svg>