<svg version="1.1" xmlns="http://www.w3.org/2000/svg" xmlns:xlink="http://www.w3.org/1999/xlink" viewBox="0,0,1024,1024">
	<!-- Color names: teamapps-color-1 -->
	<desc>filter_4 icon - Licensed under Apache License v2.0 (http://www.apache.org/licenses/LICENSE-2.0) - Created with Iconfu.com - Derivative work of Material icons (Copyright Google Inc.)</desc>
	<defs>
		<clipPath id="clip-3kLzbOoY">
			<path d="M1.3,51.3h1021.41v972.7h-1021.41z"/>
		</clipPath>
		<filter id="filter-9aC1PbV4" x="-12%" y="-6%" width="135%" height="135%" color-interpolation-filters="sRGB">
			<feColorMatrix values="1 0 0 0 0 0 1 0 0 0 0 0 1 0 0 0 0 0 0.2 0" in="SourceGraphic"/>
			<feOffset dy="20"/>
			<feGaussianBlur stdDeviation="11" result="blur0"/>
			<feColorMatrix values="1 0 0 0 0 0 1 0 0 0 0 0 1 0 0 0 0 0 0.3 0" in="SourceGraphic"/>
			<feOffset dy="30"/>
			<feGaussianBlur stdDeviation="20" result="blur1"/>
			<feMerge>
				<feMergeNode in="blur0"/>
				<feMergeNode in="blur1"/>
			</feMerge>
		</filter>
	</defs>
	<g fill="none" fill-rule="nonzero" style="mix-blend-mode: normal">
		<g clip-path="url(#clip-3kLzbOoY)">
			<path d="M170.24,853.76h607.58v75.94h-607.58c-41.77,0 -75.94,-34.18 -75.94,-75.94v-607.58h75.94zM929.7,170.24v531.62c0,41.77 -34.18,75.95 -75.94,75.95h-531.62c-41.77,0 -75.95,-34.18 -75.95,-75.95v-531.62c0,-41.77 34.18,-75.94 75.95,-75.94h531.62c41.77,0 75.94,34.18 75.94,75.94zM853.76,170.24h-531.62v531.62h531.62zM625.92,474.02h-151.9v-227.84h75.95v151.9h75.94v-151.9h75.94v379.74h-75.94z" fill="#000000" filter="url(#filter-9aC1PbV4)"/>
		</g>
		<g>
			<g color="#039be5" class="teamapps-color-1">
				<path d="M170.24,853.76h607.58v75.94h-607.58c-41.77,0 -75.94,-34.18 -75.94,-75.94v-607.58h75.94zM929.7,170.24v531.62c0,41.77 -34.18,75.95 -75.94,75.95h-531.62c-41.77,0 -75.95,-34.18 -75.95,-75.95v-531.62c0,-41.77 34.18,-75.94 75.95,-75.94h531.62c41.77,0 75.94,34.18 75.94,75.94zM853.76,170.24h-531.62v531.62h531.62zM625.92,474.02h-151.9v-227.84h75.95v151.9h75.94v-151.9h75.94v379.74h-75.94z" fill="currentColor"/>
			</g>
		</g>
	</g>
</svg>