<svg version="1.1" xmlns="http://www.w3.org/2000/svg" xmlns:xlink="http://www.w3.org/1999/xlink" viewBox="0,0,1024,1024">
	<!-- Color names: teamapps-color-1 -->
	<desc>flash_auto icon - Licensed under Apache License v2.0 (http://www.apache.org/licenses/LICENSE-2.0) - Created with Iconfu.com - Derivative work of Material icons (Copyright Google Inc.)</desc>
	<defs>
		<clipPath id="clip-4rKOc1Id">
			<path d="M77.24,89.26h915.09v934.74h-915.09z"/>
		</clipPath>
		<filter id="filter-9gpD9ICc" x="-13%" y="-6%" width="150%" height="141%" color-interpolation-filters="sRGB">
			<feColorMatrix values="1 0 0 0 0 0 1 0 0 0 0 0 1 0 0 0 0 0 0.2 0" in="SourceGraphic"/>
			<feOffset dy="20"/>
			<feGaussianBlur stdDeviation="11" result="blur0"/>
			<feColorMatrix values="1 0 0 0 0 0 1 0 0 0 0 0 1 0 0 0 0 0 0.3 0" in="SourceGraphic"/>
			<feOffset dy="30"/>
			<feGaussianBlur stdDeviation="20" result="blur1"/>
			<feMerge>
				<feMergeNode in="blur0"/>
				<feMergeNode in="blur1"/>
			</feMerge>
		</filter>
	</defs>
	<g fill="none" fill-rule="nonzero" style="mix-blend-mode: normal">
		<g clip-path="url(#clip-4rKOc1Id)">
			<path d="M549.98,132.26l-151.9,341.76h151.9l-265.82,455.68v-341.76h-113.92v-455.68zM899.33,474.02h-72.15l-26.58,-75.94h-121.52l-26.58,75.94h-72.15l121.51,-341.76h75.95zM783.51,346.82l-43.67,-138.6l-43.67,138.6z" fill="#000000" filter="url(#filter-9gpD9ICc)"/>
		</g>
		<g>
			<g color="#039be5" class="teamapps-color-1">
				<path d="M549.98,132.26l-151.9,341.76h151.9l-265.82,455.68v-341.76h-113.92v-455.68zM899.33,474.02h-72.15l-26.58,-75.94h-121.52l-26.58,75.94h-72.15l121.51,-341.76h75.95zM783.51,346.82l-43.67,-138.6l-43.67,138.6z" fill="currentColor"/>
			</g>
		</g>
	</g>
</svg>