<svg version="1.1" xmlns="http://www.w3.org/2000/svg" xmlns:xlink="http://www.w3.org/1999/xlink" viewBox="0,0,1024,1024">
	<!-- Color names: teamapps-color-1 -->
	<desc>format_bold icon - Licensed under Apache License v2.0 (http://www.apache.org/licenses/LICENSE-2.0) - Created with Iconfu.com - Derivative work of Material icons (Copyright Google Inc.)</desc>
	<defs>
		<filter id="filter-5Xy1zkHD" x="-23%" y="-9%" width="225%" height="176%" color-interpolation-filters="sRGB">
			<feColorMatrix values="1 0 0 0 0 0 1 0 0 0 0 0 1 0 0 0 0 0 0.2 0" in="SourceGraphic"/>
			<feOffset dy="20"/>
			<feGaussianBlur stdDeviation="11" result="blur0"/>
			<feColorMatrix values="1 0 0 0 0 0 1 0 0 0 0 0 1 0 0 0 0 0 0.3 0" in="SourceGraphic"/>
			<feOffset dy="30"/>
			<feGaussianBlur stdDeviation="20" result="blur1"/>
			<feMerge>
				<feMergeNode in="blur0"/>
				<feMergeNode in="blur1"/>
			</feMerge>
		</filter>
	</defs>
	<g fill="none" fill-rule="nonzero" style="mix-blend-mode: normal">
		<path d="M730.34,595.92c0,79.36 -61.52,143.92 -140.88,143.92h-267.33v-531.62h237.33c85.44,0 151.9,66.06 151.9,151.89c0,38.73 -25.82,80.5 -62.66,105.95c48.99,22.78 81.64,72.15 81.64,129.87zM625.92,587.94c0,-31.51 -25.45,-56.96 -56.96,-56.96h-132.9v113.92h132.9c31.51,0 56.96,-25.45 56.96,-56.96zM436.06,417.06h113.92c31.51,0 56.96,-25.45 56.96,-56.96c0,-31.51 -25.45,-56.96 -56.96,-56.96h-113.92z" fill="#000000" filter="url(#filter-5Xy1zkHD)"/>
		<g>
			<g color="#039be5" class="teamapps-color-1">
				<path d="M730.34,595.92c0,79.36 -61.52,143.92 -140.88,143.92h-267.33v-531.62h237.33c85.44,0 151.9,66.06 151.9,151.89c0,38.73 -25.82,80.5 -62.66,105.95c48.99,22.78 81.64,72.15 81.64,129.87zM625.92,587.94c0,-31.51 -25.45,-56.96 -56.96,-56.96h-132.9v113.92h132.9c31.51,0 56.96,-25.45 56.96,-56.96zM436.06,417.06h113.92c31.51,0 56.96,-25.45 56.96,-56.96c0,-31.51 -25.45,-56.96 -56.96,-56.96h-113.92z" fill="currentColor"/>
			</g>
		</g>
	</g>
</svg>