<svg version="1.1" xmlns="http://www.w3.org/2000/svg" xmlns:xlink="http://www.w3.org/1999/xlink" viewBox="0,0,1024,1024">
	<!-- Color names: teamapps-color-1 -->
	<desc>format_list_bulleted icon - Licensed under Apache License v2.0 (http://www.apache.org/licenses/LICENSE-2.0) - Created with Iconfu.com - Derivative work of Material icons (Copyright Google Inc.)</desc>
	<defs>
		<filter id="filter-h0S4Vm4J" x="-14%" y="-8%" width="149%" height="173%" color-interpolation-filters="sRGB">
			<feColorMatrix values="1 0 0 0 0 0 1 0 0 0 0 0 1 0 0 0 0 0 0.2 0" in="SourceGraphic"/>
			<feOffset dy="20"/>
			<feGaussianBlur stdDeviation="11" result="blur0"/>
			<feColorMatrix values="1 0 0 0 0 0 1 0 0 0 0 0 1 0 0 0 0 0 0.3 0" in="SourceGraphic"/>
			<feOffset dy="30"/>
			<feGaussianBlur stdDeviation="20" result="blur1"/>
			<feMerge>
				<feMergeNode in="blur0"/>
				<feMergeNode in="blur1"/>
			</feMerge>
		</filter>
	</defs>
	<g fill="none" fill-rule="nonzero" style="mix-blend-mode: normal">
		<path d="M322.14,701.86h531.62v75.95h-531.62zM322.14,474.02h531.62v75.95h-531.62zM853.76,246.18v75.95h-531.62v-75.95zM265.18,512c0,31.51 -25.45,56.96 -56.96,56.96c-31.51,0 -56.96,-25.45 -56.96,-56.96c0,-31.51 25.45,-56.96 56.96,-56.96c31.51,0 56.96,25.45 56.96,56.96zM265.18,284.16c0,31.51 -25.45,56.96 -56.96,56.96c-31.51,0 -56.96,-25.45 -56.96,-56.96c0,-31.51 25.45,-56.96 56.96,-56.96c31.51,0 56.96,25.45 56.96,56.96zM265.18,739.84c0,31.14 -25.82,56.96 -56.96,56.96c-31.14,0 -56.96,-25.82 -56.96,-56.96c0,-31.14 25.45,-56.96 56.96,-56.96c31.51,0 56.96,25.82 56.96,56.96z" fill="#000000" filter="url(#filter-h0S4Vm4J)"/>
		<g>
			<g color="#039be5" class="teamapps-color-1">
				<path d="M322.14,701.86h531.62v75.95h-531.62zM322.14,474.02h531.62v75.95h-531.62zM853.76,246.18v75.95h-531.62v-75.95zM265.18,512c0,31.51 -25.45,56.96 -56.96,56.96c-31.51,0 -56.96,-25.45 -56.96,-56.96c0,-31.51 25.45,-56.96 56.96,-56.96c31.51,0 56.96,25.45 56.96,56.96zM265.18,284.16c0,31.51 -25.45,56.96 -56.96,56.96c-31.51,0 -56.96,-25.45 -56.96,-56.96c0,-31.51 25.45,-56.96 56.96,-56.96c31.51,0 56.96,25.45 56.96,56.96zM265.18,739.84c0,31.14 -25.82,56.96 -56.96,56.96c-31.14,0 -56.96,-25.82 -56.96,-56.96c0,-31.14 25.45,-56.96 56.96,-56.96c31.51,0 56.96,25.82 56.96,56.96z" fill="currentColor"/>
			</g>
		</g>
	</g>
</svg>