<svg version="1.1" xmlns="http://www.w3.org/2000/svg" xmlns:xlink="http://www.w3.org/1999/xlink" viewBox="0,0,1024,1024">
	<!-- Color names: teamapps-color-1 -->
	<desc>forward_10 icon - Licensed under Apache License v2.0 (http://www.apache.org/licenses/LICENSE-2.0) - Created with Iconfu.com - Derivative work of Material icons (Copyright Google Inc.)</desc>
	<defs>
		<filter id="filter-RE15xTCM" x="-16%" y="-6%" width="166%" height="138%" color-interpolation-filters="sRGB">
			<feColorMatrix values="1 0 0 0 0 0 1 0 0 0 0 0 1 0 0 0 0 0 0.2 0" in="SourceGraphic"/>
			<feOffset dy="20"/>
			<feGaussianBlur stdDeviation="11" result="blur0"/>
			<feColorMatrix values="1 0 0 0 0 0 1 0 0 0 0 0 1 0 0 0 0 0 0.3 0" in="SourceGraphic"/>
			<feOffset dy="30"/>
			<feGaussianBlur stdDeviation="20" result="blur1"/>
			<feMerge>
				<feMergeNode in="blur0"/>
				<feMergeNode in="blur1"/>
			</feMerge>
		</filter>
	</defs>
	<g fill="none" fill-rule="nonzero" style="mix-blend-mode: normal">
		<path d="M512,246.18v-151.89l189.86,189.86l-189.86,189.86v-151.89c-125.31,0 -227.84,102.53 -227.84,227.84c0,125.31 102.53,227.84 227.84,227.84c125.31,0 227.84,-102.53 227.84,-227.84h75.94c0,167.08 -136.7,303.78 -303.78,303.78c-167.08,0 -303.78,-136.7 -303.78,-303.78c0,-167.08 136.7,-303.79 303.78,-303.79zM629.72,595.54c0,11.39 0,22.78 -3.8,30.38l-11.39,22.78c0,0 -11.39,11.39 -18.98,11.39c-7.59,0 -15.19,3.8 -22.78,3.8c-7.59,0 -15.19,0 -22.78,-3.8c-7.59,-3.8 -11.4,-7.59 -18.99,-11.39c-7.59,-3.8 -7.59,-11.39 -11.39,-22.78c-3.8,-11.39 -3.79,-18.98 -3.79,-30.38v-26.58c0,-11.39 -0.01,-22.78 3.79,-30.38l11.39,-22.78c0,0 11.4,-11.39 18.99,-11.39c7.59,0 15.19,-3.8 22.78,-3.8c7.59,0 15.19,0 22.78,3.8c7.59,3.8 11.39,7.59 18.98,11.39c7.59,3.8 7.59,11.39 11.39,22.78c3.8,11.39 3.8,18.98 3.8,30.38zM436.06,663.9v-125.31l-37.98,11.39v-26.58l68.35,-22.78h3.8v163.29zM599.34,546.18c0,0 -3.79,-7.59 -3.79,-11.39c0,-3.8 -3.8,-3.79 -7.6,-7.59c-3.8,-3.8 -7.59,-3.8 -11.39,-3.8c-3.8,0 -7.59,0 -11.39,3.8l-7.59,7.59c0,0 -3.8,7.59 -3.8,11.39v75.94c0,0 3.8,7.59 3.8,11.39c0,3.8 3.79,3.8 7.59,7.6c3.8,3.8 7.59,3.79 11.39,3.79c3.8,0 7.59,0.01 11.39,-3.79l7.6,-7.6c0,0 3.79,-7.59 3.79,-11.39z" fill="#000000" filter="url(#filter-RE15xTCM)"/>
		<g>
			<g color="#039be5" class="teamapps-color-1">
				<path d="M512,246.18v-151.89l189.86,189.86l-189.86,189.86v-151.89c-125.31,0 -227.84,102.53 -227.84,227.84c0,125.31 102.53,227.84 227.84,227.84c125.31,0 227.84,-102.53 227.84,-227.84h75.94c0,167.08 -136.7,303.78 -303.78,303.78c-167.08,0 -303.78,-136.7 -303.78,-303.78c0,-167.08 136.7,-303.79 303.78,-303.79zM629.72,595.54c0,11.39 0,22.78 -3.8,30.38l-11.39,22.78c0,0 -11.39,11.39 -18.98,11.39c-7.59,0 -15.19,3.8 -22.78,3.8c-7.59,0 -15.19,0 -22.78,-3.8c-7.59,-3.8 -11.4,-7.59 -18.99,-11.39c-7.59,-3.8 -7.59,-11.39 -11.39,-22.78c-3.8,-11.39 -3.79,-18.98 -3.79,-30.38v-26.58c0,-11.39 -0.01,-22.78 3.79,-30.38l11.39,-22.78c0,0 11.4,-11.39 18.99,-11.39c7.59,0 15.19,-3.8 22.78,-3.8c7.59,0 15.19,0 22.78,3.8c7.59,3.8 11.39,7.59 18.98,11.39c7.59,3.8 7.59,11.39 11.39,22.78c3.8,11.39 3.8,18.98 3.8,30.38zM436.06,663.9v-125.31l-37.98,11.39v-26.58l68.35,-22.78h3.8v163.29zM599.34,546.18c0,0 -3.79,-7.59 -3.79,-11.39c0,-3.8 -3.8,-3.79 -7.6,-7.59c-3.8,-3.8 -7.59,-3.8 -11.39,-3.8c-3.8,0 -7.59,0 -11.39,3.8l-7.59,7.59c0,0 -3.8,7.59 -3.8,11.39v75.94c0,0 3.8,7.59 3.8,11.39c0,3.8 3.79,3.8 7.59,7.6c3.8,3.8 7.59,3.79 11.39,3.79c3.8,0 7.59,0.01 11.39,-3.79l7.6,-7.6c0,0 3.79,-7.59 3.79,-11.39z" fill="currentColor"/>
			</g>
		</g>
	</g>
</svg>