<svg version="1.1" xmlns="http://www.w3.org/2000/svg" xmlns:xlink="http://www.w3.org/1999/xlink" viewBox="0,0,1024,1024">
	<!-- Color names: teamapps-color-1 -->
	<desc>gesture icon - Licensed under Apache License v2.0 (http://www.apache.org/licenses/LICENSE-2.0) - Created with Iconfu.com - Derivative work of Material icons (Copyright Google Inc.)</desc>
	<defs>
		<filter id="filter-9L8EDXbf" x="-14%" y="-7%" width="152%" height="153%" color-interpolation-filters="sRGB">
			<feColorMatrix values="1 0 0 0 0 0 1 0 0 0 0 0 1 0 0 0 0 0 0.2 0" in="SourceGraphic"/>
			<feOffset dy="20"/>
			<feGaussianBlur stdDeviation="11" result="blur0"/>
			<feColorMatrix values="1 0 0 0 0 0 1 0 0 0 0 0 1 0 0 0 0 0 0.3 0" in="SourceGraphic"/>
			<feOffset dy="30"/>
			<feGaussianBlur stdDeviation="20" result="blur1"/>
			<feMerge>
				<feMergeNode in="blur0"/>
				<feMergeNode in="blur1"/>
			</feMerge>
		</filter>
	</defs>
	<g fill="none" fill-rule="nonzero" style="mix-blend-mode: normal">
		<path d="M164.16,253.02c8.36,-10.25 19.75,-21.64 33.42,-35.32c9.5,-9.5 53.16,-47.46 103.28,-47.46c33.04,0 95.32,26.2 95.32,108.61c0,51.65 -19.75,81.26 -49.37,124.55c-17.09,25.06 -56.96,92.28 -70.25,133.67c-13.67,41.39 -3.42,72.91 13.67,72.91c16.33,0 32.65,-20.51 42.15,-31.9c8.73,-9.11 64.93,-75.56 86.95,-103.28c28.86,-35.32 102.15,-107.85 187.59,-107.85c111.64,0 147.33,96.83 153.03,159.49h93.8v94.94h-93.41c-15.19,181.13 -116.2,231.64 -178.1,231.64c-67.21,0 -121.89,-52.79 -121.89,-117.34c0,-64.55 60.76,-179.61 204.3,-203.92c-4.17,-29.62 -4.93,-67.98 -66.83,-67.98c-47.46,0 -108.98,74.06 -154.93,130.63c-42.15,52.02 -75.57,93.41 -116.2,105.18c-34.18,10.25 -71.77,3.8 -100.25,-17.46c-32.65,-24.31 -50.89,-64.56 -50.89,-113.16c0,-91.89 99.11,-223.67 108.61,-239.61c11.39,-18.61 30.38,-50.12 11.39,-57.72c-11.77,-4.94 -38.35,19.37 -64.93,46.32zM664.27,628.58c-81.27,21.26 -108.98,82.02 -108.98,104.81c0,17.47 16.32,27.34 28.1,27.34c26.58,0 69.49,-30 80.88,-132.15z" fill="#000000" filter="url(#filter-9L8EDXbf)"/>
		<g>
			<g color="#039be5" class="teamapps-color-1">
				<path d="M164.16,253.02c8.36,-10.25 19.75,-21.64 33.42,-35.32c9.5,-9.5 53.16,-47.46 103.28,-47.46c33.04,0 95.32,26.2 95.32,108.61c0,51.65 -19.75,81.26 -49.37,124.55c-17.09,25.06 -56.96,92.28 -70.25,133.67c-13.67,41.39 -3.42,72.91 13.67,72.91c16.33,0 32.65,-20.51 42.15,-31.9c8.73,-9.11 64.93,-75.56 86.95,-103.28c28.86,-35.32 102.15,-107.85 187.59,-107.85c111.64,0 147.33,96.83 153.03,159.49h93.8v94.94h-93.41c-15.19,181.13 -116.2,231.64 -178.1,231.64c-67.21,0 -121.89,-52.79 -121.89,-117.34c0,-64.55 60.76,-179.61 204.3,-203.92c-4.17,-29.62 -4.93,-67.98 -66.83,-67.98c-47.46,0 -108.98,74.06 -154.93,130.63c-42.15,52.02 -75.57,93.41 -116.2,105.18c-34.18,10.25 -71.77,3.8 -100.25,-17.46c-32.65,-24.31 -50.89,-64.56 -50.89,-113.16c0,-91.89 99.11,-223.67 108.61,-239.61c11.39,-18.61 30.38,-50.12 11.39,-57.72c-11.77,-4.94 -38.35,19.37 -64.93,46.32zM664.27,628.58c-81.27,21.26 -108.98,82.02 -108.98,104.81c0,17.47 16.32,27.34 28.1,27.34c26.58,0 69.49,-30 80.88,-132.15z" fill="currentColor"/>
			</g>
		</g>
	</g>
</svg>