<svg version="1.1" xmlns="http://www.w3.org/2000/svg" xmlns:xlink="http://www.w3.org/1999/xlink" viewBox="0,0,1024,1024">
	<!-- Color names: teamapps-color-1 -->
	<desc>gif icon - Licensed under Apache License v2.0 (http://www.apache.org/licenses/LICENSE-2.0) - Created with Iconfu.com - Derivative work of Material icons (Copyright Google Inc.)</desc>
	<defs>
		<filter id="filter-Qpi3lfIg" x="-18%" y="-19%" width="182%" height="357%" color-interpolation-filters="sRGB">
			<feColorMatrix values="1 0 0 0 0 0 1 0 0 0 0 0 1 0 0 0 0 0 0.2 0" in="SourceGraphic"/>
			<feOffset dy="20"/>
			<feGaussianBlur stdDeviation="11" result="blur0"/>
			<feColorMatrix values="1 0 0 0 0 0 1 0 0 0 0 0 1 0 0 0 0 0 0.3 0" in="SourceGraphic"/>
			<feOffset dy="30"/>
			<feGaussianBlur stdDeviation="20" result="blur1"/>
			<feMerge>
				<feMergeNode in="blur0"/>
				<feMergeNode in="blur1"/>
			</feMerge>
		</filter>
	</defs>
	<g fill="none" fill-rule="nonzero" style="mix-blend-mode: normal">
		<path d="M436.06,436.06v18.98h-132.91v113.92h75.95v-56.96h56.96v75.94c0,18.98 -15.19,37.98 -37.98,37.98h-113.92c-22.78,0 -37.98,-18.99 -37.98,-37.98v-151.89c0,-18.98 15.19,-37.98 37.98,-37.98h113.92c22.78,0 37.98,18.99 37.98,37.98zM663.9,455.04v37.98h75.94v56.96h-75.94v75.94h-56.96v-227.84h170.88v56.96zM493.02,398.08h56.96v227.84h-56.96z" fill="#000000" filter="url(#filter-Qpi3lfIg)"/>
		<g>
			<g color="#039be5" class="teamapps-color-1">
				<path d="M436.06,436.06v18.98h-132.91v113.92h75.95v-56.96h56.96v75.94c0,18.98 -15.19,37.98 -37.98,37.98h-113.92c-22.78,0 -37.98,-18.99 -37.98,-37.98v-151.89c0,-18.98 15.19,-37.98 37.98,-37.98h113.92c22.78,0 37.98,18.99 37.98,37.98zM663.9,455.04v37.98h75.94v56.96h-75.94v75.94h-56.96v-227.84h170.88v56.96zM493.02,398.08h56.96v227.84h-56.96z" fill="currentColor"/>
			</g>
		</g>
	</g>
</svg>