<svg version="1.1" xmlns="http://www.w3.org/2000/svg" xmlns:xlink="http://www.w3.org/1999/xlink" viewBox="0,0,1024,1024">
	<!-- Color names: teamapps-color-1 -->
	<desc>gradient icon - Licensed under Apache License v2.0 (http://www.apache.org/licenses/LICENSE-2.0) - Created with Iconfu.com - Derivative work of Material icons (Copyright Google Inc.)</desc>
	<defs>
		<filter id="filter-Gp48RQLp" x="-14%" y="-7%" width="153%" height="153%" color-interpolation-filters="sRGB">
			<feColorMatrix values="1 0 0 0 0 0 1 0 0 0 0 0 1 0 0 0 0 0 0.2 0" in="SourceGraphic"/>
			<feOffset dy="20"/>
			<feGaussianBlur stdDeviation="11" result="blur0"/>
			<feColorMatrix values="1 0 0 0 0 0 1 0 0 0 0 0 1 0 0 0 0 0 0.3 0" in="SourceGraphic"/>
			<feOffset dy="30"/>
			<feGaussianBlur stdDeviation="20" result="blur1"/>
			<feMerge>
				<feMergeNode in="blur0"/>
				<feMergeNode in="blur1"/>
			</feMerge>
		</filter>
	</defs>
	<g fill="none" fill-rule="nonzero" style="mix-blend-mode: normal">
		<path d="M853.76,246.18v531.63c0,41.77 -34.18,75.94 -75.94,75.94h-531.63c-41.77,0 -75.94,-34.18 -75.94,-75.94v-531.63c0,-41.77 34.18,-75.94 75.94,-75.94h531.63c41.77,0 75.94,34.18 75.94,75.94zM777.82,246.18h-531.63v227.84h75.95v-75.94h75.94v75.94h75.94v-75.94h75.95v75.94h75.94v-75.94h75.94v75.94h75.95zM246.18,549.98v75.94h75.95v-75.94zM398.08,625.92h75.94v-75.94h-75.94zM549.98,625.92h75.94v-75.94h-75.94zM701.86,625.92h75.95v-75.94h-75.95zM398.08,663.9h-75.94v75.94h75.94zM549.98,663.9h-75.95v75.94h75.95zM701.86,663.9h-75.94v75.94h75.94zM322.14,474.02v75.95h75.94v-75.95zM474.02,549.98h75.95v-75.95h-75.95zM625.92,549.98h75.94v-75.95h-75.94z" fill="#000000" filter="url(#filter-Gp48RQLp)"/>
		<g>
			<g color="#039be5" class="teamapps-color-1">
				<path d="M853.76,246.18v531.63c0,41.77 -34.18,75.94 -75.94,75.94h-531.63c-41.77,0 -75.94,-34.18 -75.94,-75.94v-531.63c0,-41.77 34.18,-75.94 75.94,-75.94h531.63c41.77,0 75.94,34.18 75.94,75.94zM777.82,246.18h-531.63v227.84h75.95v-75.94h75.94v75.94h75.94v-75.94h75.95v75.94h75.94v-75.94h75.94v75.94h75.95zM246.18,549.98v75.94h75.95v-75.94zM398.08,625.92h75.94v-75.94h-75.94zM549.98,625.92h75.94v-75.94h-75.94zM701.86,625.92h75.95v-75.94h-75.95zM398.08,663.9h-75.94v75.94h75.94zM549.98,663.9h-75.95v75.94h75.95zM701.86,663.9h-75.94v75.94h75.94zM322.14,474.02v75.95h75.94v-75.95zM474.02,549.98h75.95v-75.95h-75.95zM625.92,549.98h75.94v-75.95h-75.94z" fill="currentColor"/>
			</g>
		</g>
	</g>
</svg>