<svg version="1.1" xmlns="http://www.w3.org/2000/svg" xmlns:xlink="http://www.w3.org/1999/xlink" viewBox="0,0,1024,1024">
	<!-- Color names: teamapps-color-1 -->
	<desc>hdr_on icon - Licensed under Apache License v2.0 (http://www.apache.org/licenses/LICENSE-2.0) - Created with Iconfu.com - Derivative work of Material icons (Copyright Google Inc.)</desc>
	<defs>
		<filter id="filter-OeARObhu" x="-14%" y="-19%" width="153%" height="357%" color-interpolation-filters="sRGB">
			<feColorMatrix values="1 0 0 0 0 0 1 0 0 0 0 0 1 0 0 0 0 0 0.2 0" in="SourceGraphic"/>
			<feOffset dy="20"/>
			<feGaussianBlur stdDeviation="11" result="blur0"/>
			<feColorMatrix values="1 0 0 0 0 0 1 0 0 0 0 0 1 0 0 0 0 0 0.3 0" in="SourceGraphic"/>
			<feOffset dy="30"/>
			<feGaussianBlur stdDeviation="20" result="blur1"/>
			<feMerge>
				<feMergeNode in="blur0"/>
				<feMergeNode in="blur1"/>
			</feMerge>
		</filter>
	</defs>
	<g fill="none" fill-rule="nonzero" style="mix-blend-mode: normal">
		<path d="M819.58,546.18l34.18,79.74h-56.96l-34.18,-75.94h-41.77v75.94h-56.96v-227.84h132.9c30.38,0 56.96,26.58 56.96,56.96v37.98c0,22.78 -15.19,41.77 -34.18,53.16zM303.14,398.08h56.96v227.84h-56.96v-94.94h-75.94v94.94h-56.96v-227.84h56.96v75.94h75.94zM606.94,455.04v113.92c0,30.38 -26.58,56.96 -56.96,56.96h-132.91v-227.84h132.91c30.38,0 56.96,26.58 56.96,56.96zM549.98,455.04h-75.95v113.92h75.95zM796.8,455.04h-75.94v37.98h75.94z" fill="#000000" filter="url(#filter-OeARObhu)"/>
		<g>
			<g color="#039be5" class="teamapps-color-1">
				<path d="M819.58,546.18l34.18,79.74h-56.96l-34.18,-75.94h-41.77v75.94h-56.96v-227.84h132.9c30.38,0 56.96,26.58 56.96,56.96v37.98c0,22.78 -15.19,41.77 -34.18,53.16zM303.14,398.08h56.96v227.84h-56.96v-94.94h-75.94v94.94h-56.96v-227.84h56.96v75.94h75.94zM606.94,455.04v113.92c0,30.38 -26.58,56.96 -56.96,56.96h-132.91v-227.84h132.91c30.38,0 56.96,26.58 56.96,56.96zM549.98,455.04h-75.95v113.92h75.95zM796.8,455.04h-75.94v37.98h75.94z" fill="currentColor"/>
			</g>
		</g>
	</g>
</svg>