<svg version="1.1" xmlns="http://www.w3.org/2000/svg" xmlns:xlink="http://www.w3.org/1999/xlink" viewBox="0,0,1024,1024">
	<!-- Color names: teamapps-color-1 -->
	<desc>headset_mic icon - Licensed under Apache License v2.0 (http://www.apache.org/licenses/LICENSE-2.0) - Created with Iconfu.com - Derivative work of Material icons (Copyright Google Inc.)</desc>
	<defs>
		<clipPath id="clip-VaKv7hK1">
			<path d="M77.24,51.3h869.52v972.7h-869.52z"/>
		</clipPath>
		<filter id="filter-6bcc5Mrn" x="-14%" y="-6%" width="153%" height="135%" color-interpolation-filters="sRGB">
			<feColorMatrix values="1 0 0 0 0 0 1 0 0 0 0 0 1 0 0 0 0 0 0.2 0" in="SourceGraphic"/>
			<feOffset dy="20"/>
			<feGaussianBlur stdDeviation="11" result="blur0"/>
			<feColorMatrix values="1 0 0 0 0 0 1 0 0 0 0 0 1 0 0 0 0 0 0.3 0" in="SourceGraphic"/>
			<feOffset dy="30"/>
			<feGaussianBlur stdDeviation="20" result="blur1"/>
			<feMerge>
				<feMergeNode in="blur0"/>
				<feMergeNode in="blur1"/>
			</feMerge>
		</filter>
	</defs>
	<g fill="none" fill-rule="nonzero" style="mix-blend-mode: normal">
		<g clip-path="url(#clip-VaKv7hK1)">
			<path d="M853.76,436.06v379.73c0,63.04 -50.88,113.92 -113.92,113.92h-227.84v-75.94h265.82v-37.98h-151.9v-303.78h151.9v-75.94c0,-146.96 -118.86,-265.82 -265.82,-265.82c-146.96,0 -265.82,118.86 -265.82,265.82v75.94h151.9v303.78h-113.92c-63.04,0 -113.92,-50.88 -113.92,-113.92v-265.81c0,-188.72 153.04,-341.76 341.76,-341.76c188.72,0 341.76,153.04 341.76,341.76z" fill="#000000" filter="url(#filter-6bcc5Mrn)"/>
		</g>
		<g>
			<g color="#039be5" class="teamapps-color-1">
				<path d="M853.76,436.06v379.73c0,63.04 -50.88,113.92 -113.92,113.92h-227.84v-75.94h265.82v-37.98h-151.9v-303.78h151.9v-75.94c0,-146.96 -118.86,-265.82 -265.82,-265.82c-146.96,0 -265.82,118.86 -265.82,265.82v75.94h151.9v303.78h-113.92c-63.04,0 -113.92,-50.88 -113.92,-113.92v-265.81c0,-188.72 153.04,-341.76 341.76,-341.76c188.72,0 341.76,153.04 341.76,341.76z" fill="currentColor"/>
			</g>
		</g>
	</g>
</svg>