<svg version="1.1" xmlns="http://www.w3.org/2000/svg" xmlns:xlink="http://www.w3.org/1999/xlink" viewBox="0,0,1024,1024">
	<!-- Color names: teamapps-color-1 -->
	<desc>help_outline icon - Licensed under Apache License v2.0 (http://www.apache.org/licenses/LICENSE-2.0) - Created with Iconfu.com - Derivative work of Material icons (Copyright Google Inc.)</desc>
	<defs>
		<clipPath id="clip-TWMvbXON">
			<path d="M39.26,89.26h945.47v934.74h-945.47z"/>
		</clipPath>
		<filter id="filter-xWHxqNBI" x="-13%" y="-6%" width="143%" height="143%" color-interpolation-filters="sRGB">
			<feColorMatrix values="1 0 0 0 0 0 1 0 0 0 0 0 1 0 0 0 0 0 0.2 0" in="SourceGraphic"/>
			<feOffset dy="20"/>
			<feGaussianBlur stdDeviation="11" result="blur0"/>
			<feColorMatrix values="1 0 0 0 0 0 1 0 0 0 0 0 1 0 0 0 0 0 0.3 0" in="SourceGraphic"/>
			<feOffset dy="30"/>
			<feGaussianBlur stdDeviation="20" result="blur1"/>
			<feMerge>
				<feMergeNode in="blur0"/>
				<feMergeNode in="blur1"/>
			</feMerge>
		</filter>
	</defs>
	<g fill="none" fill-rule="nonzero" style="mix-blend-mode: normal">
		<g clip-path="url(#clip-TWMvbXON)">
			<path d="M891.74,512c0,209.61 -170.12,379.74 -379.74,379.74c-209.61,0 -379.74,-170.12 -379.74,-379.74c0,-209.61 170.12,-379.74 379.74,-379.74c209.61,0 379.74,170.12 379.74,379.74zM815.78,512c0,-167.46 -136.32,-303.78 -303.78,-303.78c-167.46,0 -303.78,136.32 -303.78,303.78c0,167.46 136.32,303.78 303.78,303.78c167.46,0 303.78,-136.32 303.78,-303.78zM663.9,436.06c0,94.94 -113.92,104.42 -113.92,189.86h-75.95c0,-123.42 113.92,-113.92 113.92,-189.86c0,-41.77 -34.18,-75.95 -75.94,-75.95c-41.77,0 -75.94,34.18 -75.94,75.95h-75.95c0,-83.92 67.98,-151.9 151.9,-151.9c83.92,0 151.9,67.98 151.9,151.9zM474.02,663.9h75.95v75.94h-75.95z" fill="#000000" filter="url(#filter-xWHxqNBI)"/>
		</g>
		<g>
			<g color="#039be5" class="teamapps-color-1">
				<path d="M891.74,512c0,209.61 -170.12,379.74 -379.74,379.74c-209.61,0 -379.74,-170.12 -379.74,-379.74c0,-209.61 170.12,-379.74 379.74,-379.74c209.61,0 379.74,170.12 379.74,379.74zM815.78,512c0,-167.46 -136.32,-303.78 -303.78,-303.78c-167.46,0 -303.78,136.32 -303.78,303.78c0,167.46 136.32,303.78 303.78,303.78c167.46,0 303.78,-136.32 303.78,-303.78zM663.9,436.06c0,94.94 -113.92,104.42 -113.92,189.86h-75.95c0,-123.42 113.92,-113.92 113.92,-189.86c0,-41.77 -34.18,-75.95 -75.94,-75.95c-41.77,0 -75.94,34.18 -75.94,75.95h-75.95c0,-83.92 67.98,-151.9 151.9,-151.9c83.92,0 151.9,67.98 151.9,151.9zM474.02,663.9h75.95v75.94h-75.95z" fill="currentColor"/>
			</g>
		</g>
	</g>
</svg>