<svg version="1.1" xmlns="http://www.w3.org/2000/svg" xmlns:xlink="http://www.w3.org/1999/xlink" viewBox="0,0,1024,1024">
	<!-- Color names: teamapps-color-1 -->
	<desc>insert_invitation icon - Licensed under Apache License v2.0 (http://www.apache.org/licenses/LICENSE-2.0) - Created with Iconfu.com - Derivative work of Material icons (Copyright Google Inc.)</desc>
	<defs>
		<filter id="filter-B94w7PqS" x="-14%" y="-6%" width="153%" height="138%" color-interpolation-filters="sRGB">
			<feColorMatrix values="1 0 0 0 0 0 1 0 0 0 0 0 1 0 0 0 0 0 0.2 0" in="SourceGraphic"/>
			<feOffset dy="20"/>
			<feGaussianBlur stdDeviation="11" result="blur0"/>
			<feColorMatrix values="1 0 0 0 0 0 1 0 0 0 0 0 1 0 0 0 0 0 0.3 0" in="SourceGraphic"/>
			<feOffset dy="30"/>
			<feGaussianBlur stdDeviation="20" result="blur1"/>
			<feMerge>
				<feMergeNode in="blur0"/>
				<feMergeNode in="blur1"/>
			</feMerge>
		</filter>
	</defs>
	<g fill="none" fill-rule="nonzero" style="mix-blend-mode: normal">
		<path d="M739.84,94.3v75.94h37.98c41.77,0 75.94,34.18 75.94,75.94v531.63c0,41.77 -34.18,75.94 -75.94,75.94h-531.63c-42.15,0 -75.94,-34.18 -75.94,-75.94l0.38,-531.63c0,-41.77 33.41,-75.94 75.56,-75.94h37.98v-75.94h75.94v75.94h303.79v-75.94zM777.82,360.1h-531.63v417.71h531.63zM701.86,701.86h-189.86v-189.86h189.86z" fill="#000000" filter="url(#filter-B94w7PqS)"/>
		<g>
			<g color="#039be5" class="teamapps-color-1">
				<path d="M739.84,94.3v75.94h37.98c41.77,0 75.94,34.18 75.94,75.94v531.63c0,41.77 -34.18,75.94 -75.94,75.94h-531.63c-42.15,0 -75.94,-34.18 -75.94,-75.94l0.38,-531.63c0,-41.77 33.41,-75.94 75.56,-75.94h37.98v-75.94h75.94v75.94h303.79v-75.94zM777.82,360.1h-531.63v417.71h531.63zM701.86,701.86h-189.86v-189.86h189.86z" fill="currentColor"/>
			</g>
		</g>
	</g>
</svg>