<svg version="1.1" xmlns="http://www.w3.org/2000/svg" xmlns:xlink="http://www.w3.org/1999/xlink" viewBox="0,0,1024,1024">
	<!-- Color names: teamapps-color-1 -->
	<desc>invert_colors icon - Licensed under Apache License v2.0 (http://www.apache.org/licenses/LICENSE-2.0) - Created with Iconfu.com - Derivative work of Material icons (Copyright Google Inc.)</desc>
	<defs>
		<filter id="filter-n45V9NI6" x="-16%" y="-6%" width="166%" height="145%" color-interpolation-filters="sRGB">
			<feColorMatrix values="1 0 0 0 0 0 1 0 0 0 0 0 1 0 0 0 0 0 0.2 0" in="SourceGraphic"/>
			<feOffset dy="20"/>
			<feGaussianBlur stdDeviation="11" result="blur0"/>
			<feColorMatrix values="1 0 0 0 0 0 1 0 0 0 0 0 1 0 0 0 0 0 0.3 0" in="SourceGraphic"/>
			<feOffset dy="30"/>
			<feGaussianBlur stdDeviation="20" result="blur1"/>
			<feMerge>
				<feMergeNode in="blur0"/>
				<feMergeNode in="blur1"/>
			</feMerge>
		</filter>
	</defs>
	<g fill="none" fill-rule="nonzero" style="mix-blend-mode: normal">
		<path d="M726.93,786.93c-59.24,59.24 -137.08,88.86 -214.93,88.86c-77.85,0 -155.69,-29.62 -214.93,-88.86c-118.48,-118.48 -118.48,-311 0,-429.48l214.93,-214.93l214.93,214.94c118.48,118.48 118.48,311 0,429.48zM512,249.98l-161.01,161.38c-43.29,42.91 -66.83,100.25 -66.83,161.01c0,60.76 23.54,117.72 66.83,161.01c42.91,43.29 100.25,66.83 161.01,66.83z" fill="#000000" filter="url(#filter-n45V9NI6)"/>
		<g>
			<g color="#039be5" class="teamapps-color-1">
				<path d="M726.93,786.93c-59.24,59.24 -137.08,88.86 -214.93,88.86c-77.85,0 -155.69,-29.62 -214.93,-88.86c-118.48,-118.48 -118.48,-311 0,-429.48l214.93,-214.93l214.93,214.94c118.48,118.48 118.48,311 0,429.48zM512,249.98l-161.01,161.38c-43.29,42.91 -66.83,100.25 -66.83,161.01c0,60.76 23.54,117.72 66.83,161.01c42.91,43.29 100.25,66.83 161.01,66.83z" fill="currentColor"/>
			</g>
		</g>
	</g>
</svg>