<svg version="1.1" xmlns="http://www.w3.org/2000/svg" xmlns:xlink="http://www.w3.org/1999/xlink" viewBox="0,0,1024,1024">
	<!-- Color names: teamapps-color-1 -->
	<desc>leak_remove icon - Licensed under Apache License v2.0 (http://www.apache.org/licenses/LICENSE-2.0) - Created with Iconfu.com - Derivative work of Material icons (Copyright Google Inc.)</desc>
	<defs>
		<filter id="filter-P77NQokc" x="-14%" y="-7%" width="153%" height="153%" color-interpolation-filters="sRGB">
			<feColorMatrix values="1 0 0 0 0 0 1 0 0 0 0 0 1 0 0 0 0 0 0.2 0" in="SourceGraphic"/>
			<feOffset dy="20"/>
			<feGaussianBlur stdDeviation="11" result="blur0"/>
			<feColorMatrix values="1 0 0 0 0 0 1 0 0 0 0 0 1 0 0 0 0 0 0.3 0" in="SourceGraphic"/>
			<feOffset dy="30"/>
			<feGaussianBlur stdDeviation="20" result="blur1"/>
			<feMerge>
				<feMergeNode in="blur0"/>
				<feMergeNode in="blur1"/>
			</feMerge>
		</filter>
	</defs>
	<g fill="none" fill-rule="nonzero" style="mix-blend-mode: normal">
		<path d="M218.47,170.24l635.29,635.29l-48.23,48.23l-107.84,-107.84c-21.26,30.76 -33.79,67.59 -33.79,107.84h-75.95c0,-61.13 20.89,-117.34 55.45,-161.77l-54.31,-54.3c-48.23,58.86 -77.08,134.04 -77.08,216.07h-75.94c0,-102.91 37.59,-197.08 99.11,-270.37l-94.94,-94.93c-72.91,61.9 -167.08,99.48 -269.99,99.48v-75.94c82.02,0 157.21,-28.85 216.45,-77.08l-54.3,-54.31c-44.81,34.56 -101.01,55.45 -162.15,55.45v-75.95c40.25,0 77.08,-12.53 107.84,-33.79l-107.84,-107.84zM853.76,436.06v75.94c-56.96,0 -110.5,14.05 -157.97,38.73l-55.45,-55.44c62.27,-37.21 135.19,-59.24 213.41,-59.24zM528.71,383.65l-55.44,-55.45c24.68,-47.46 38.73,-101.01 38.73,-157.97h75.94c0,78.22 -22.03,151.14 -59.24,213.41zM752.75,607.69c31.14,-12.53 65.31,-19.75 101.01,-19.75v75.95c-14.05,0 -27.34,1.52 -40.25,4.56zM415.92,270.87l-60.38,-60.38c3.03,-12.91 4.56,-26.2 4.56,-40.25h75.95c0,35.7 -7.22,69.87 -20.13,100.63z" fill="#000000" filter="url(#filter-P77NQokc)"/>
		<g>
			<g color="#039be5" class="teamapps-color-1">
				<path d="M218.47,170.24l635.29,635.29l-48.23,48.23l-107.84,-107.84c-21.26,30.76 -33.79,67.59 -33.79,107.84h-75.95c0,-61.13 20.89,-117.34 55.45,-161.77l-54.31,-54.3c-48.23,58.86 -77.08,134.04 -77.08,216.07h-75.94c0,-102.91 37.59,-197.08 99.11,-270.37l-94.94,-94.93c-72.91,61.9 -167.08,99.48 -269.99,99.48v-75.94c82.02,0 157.21,-28.85 216.45,-77.08l-54.3,-54.31c-44.81,34.56 -101.01,55.45 -162.15,55.45v-75.95c40.25,0 77.08,-12.53 107.84,-33.79l-107.84,-107.84zM853.76,436.06v75.94c-56.96,0 -110.5,14.05 -157.97,38.73l-55.45,-55.44c62.27,-37.21 135.19,-59.24 213.41,-59.24zM528.71,383.65l-55.44,-55.45c24.68,-47.46 38.73,-101.01 38.73,-157.97h75.94c0,78.22 -22.03,151.14 -59.24,213.41zM752.75,607.69c31.14,-12.53 65.31,-19.75 101.01,-19.75v75.95c-14.05,0 -27.34,1.52 -40.25,4.56zM415.92,270.87l-60.38,-60.38c3.03,-12.91 4.56,-26.2 4.56,-40.25h75.95c0,35.7 -7.22,69.87 -20.13,100.63z" fill="currentColor"/>
			</g>
		</g>
	</g>
</svg>