<svg version="1.1" xmlns="http://www.w3.org/2000/svg" xmlns:xlink="http://www.w3.org/1999/xlink" viewBox="0,0,1024,1024">
	<!-- Color names: teamapps-color-1 -->
	<desc>lightbulb_outline icon - Licensed under Apache License v2.0 (http://www.apache.org/licenses/LICENSE-2.0) - Created with Iconfu.com - Derivative work of Material icons (Copyright Google Inc.)</desc>
	<defs>
		<clipPath id="clip-tDHllJhg">
			<path d="M153.18,89.26h717.63v934.74h-717.63z"/>
		</clipPath>
		<filter id="filter-wuVWPs3s" x="-18%" y="-6%" width="182%" height="143%" color-interpolation-filters="sRGB">
			<feColorMatrix values="1 0 0 0 0 0 1 0 0 0 0 0 1 0 0 0 0 0 0.2 0" in="SourceGraphic"/>
			<feOffset dy="20"/>
			<feGaussianBlur stdDeviation="11" result="blur0"/>
			<feColorMatrix values="1 0 0 0 0 0 1 0 0 0 0 0 1 0 0 0 0 0 0.3 0" in="SourceGraphic"/>
			<feOffset dy="30"/>
			<feGaussianBlur stdDeviation="20" result="blur1"/>
			<feMerge>
				<feMergeNode in="blur0"/>
				<feMergeNode in="blur1"/>
			</feMerge>
		</filter>
	</defs>
	<g fill="none" fill-rule="nonzero" style="mix-blend-mode: normal">
		<g clip-path="url(#clip-tDHllJhg)">
			<path d="M777.82,398.08c0,90.38 -45.19,169.74 -113.92,217.97v85.81c0,20.89 -17.09,37.98 -37.98,37.98h-227.84c-20.89,0 -37.98,-17.09 -37.98,-37.98v-85.81c-68.73,-48.23 -113.92,-127.59 -113.92,-217.97c0,-146.57 119.24,-265.82 265.82,-265.82c146.57,0 265.82,119.24 265.82,265.82zM701.86,398.08c0,-104.81 -85.06,-189.86 -189.86,-189.86c-104.81,0 -189.86,85.06 -189.86,189.86c0,61.9 30.38,119.99 81.64,155.69l32.28,22.78v87.34h151.89v-87.34l32.28,-22.78c51.26,-35.7 81.64,-93.79 81.64,-155.69zM398.08,815.78h227.84v37.98c0,20.89 -17.09,37.98 -37.98,37.98h-151.89c-20.89,0 -37.98,-17.09 -37.98,-37.98z" fill="#000000" filter="url(#filter-wuVWPs3s)"/>
		</g>
		<g>
			<g color="#039be5" class="teamapps-color-1">
				<path d="M777.82,398.08c0,90.38 -45.19,169.74 -113.92,217.97v85.81c0,20.89 -17.09,37.98 -37.98,37.98h-227.84c-20.89,0 -37.98,-17.09 -37.98,-37.98v-85.81c-68.73,-48.23 -113.92,-127.59 -113.92,-217.97c0,-146.57 119.24,-265.82 265.82,-265.82c146.57,0 265.82,119.24 265.82,265.82zM701.86,398.08c0,-104.81 -85.06,-189.86 -189.86,-189.86c-104.81,0 -189.86,85.06 -189.86,189.86c0,61.9 30.38,119.99 81.64,155.69l32.28,22.78v87.34h151.89v-87.34l32.28,-22.78c51.26,-35.7 81.64,-93.79 81.64,-155.69zM398.08,815.78h227.84v37.98c0,20.89 -17.09,37.98 -37.98,37.98h-151.89c-20.89,0 -37.98,-17.09 -37.98,-37.98z" fill="currentColor"/>
			</g>
		</g>
	</g>
</svg>