<svg version="1.1" xmlns="http://www.w3.org/2000/svg" xmlns:xlink="http://www.w3.org/1999/xlink" viewBox="0,0,1024,1024">
	<!-- Color names: teamapps-color-1 -->
	<desc>local_library icon - Licensed under Apache License v2.0 (http://www.apache.org/licenses/LICENSE-2.0) - Created with Iconfu.com - Derivative work of Material icons (Copyright Google Inc.)</desc>
	<defs>
		<clipPath id="clip-qRfDLwnM">
			<path d="M77.24,89.26h869.52v934.74h-869.52z"/>
		</clipPath>
		<filter id="filter-4zuB8qZc" x="-14%" y="-6%" width="153%" height="142%" color-interpolation-filters="sRGB">
			<feColorMatrix values="1 0 0 0 0 0 1 0 0 0 0 0 1 0 0 0 0 0 0.2 0" in="SourceGraphic"/>
			<feOffset dy="20"/>
			<feGaussianBlur stdDeviation="11" result="blur0"/>
			<feColorMatrix values="1 0 0 0 0 0 1 0 0 0 0 0 1 0 0 0 0 0 0.3 0" in="SourceGraphic"/>
			<feOffset dy="30"/>
			<feGaussianBlur stdDeviation="20" result="blur1"/>
			<feMerge>
				<feMergeNode in="blur0"/>
				<feMergeNode in="blur1"/>
			</feMerge>
		</filter>
	</defs>
	<g fill="none" fill-rule="nonzero" style="mix-blend-mode: normal">
		<g clip-path="url(#clip-qRfDLwnM)">
			<path d="M853.76,360.1v417.71c-132.15,0 -252.15,51.64 -341.76,134.8c-89.61,-83.54 -209.61,-134.8 -341.76,-134.8v-417.71c132.15,0 252.15,51.26 341.76,134.81c89.61,-83.54 209.61,-134.81 341.76,-134.81zM398.08,246.18c0,-63.04 50.88,-113.92 113.92,-113.92c63.04,0 113.92,50.88 113.92,113.92c0,63.04 -50.88,113.92 -113.92,113.92c-63.04,0 -113.92,-50.88 -113.92,-113.92z" fill="#000000" filter="url(#filter-4zuB8qZc)"/>
		</g>
		<g>
			<g color="#039be5" class="teamapps-color-1">
				<path d="M853.76,360.1v417.71c-132.15,0 -252.15,51.64 -341.76,134.8c-89.61,-83.54 -209.61,-134.8 -341.76,-134.8v-417.71c132.15,0 252.15,51.26 341.76,134.81c89.61,-83.54 209.61,-134.81 341.76,-134.81zM398.08,246.18c0,-63.04 50.88,-113.92 113.92,-113.92c63.04,0 113.92,50.88 113.92,113.92c0,63.04 -50.88,113.92 -113.92,113.92c-63.04,0 -113.92,-50.88 -113.92,-113.92z" fill="currentColor"/>
			</g>
		</g>
	</g>
</svg>