<svg version="1.1" xmlns="http://www.w3.org/2000/svg" xmlns:xlink="http://www.w3.org/1999/xlink" viewBox="0,0,1024,1024">
	<!-- Color names: teamapps-color-1 -->
	<desc>more_horiz icon - Licensed under Apache License v2.0 (http://www.apache.org/licenses/LICENSE-2.0) - Created with Iconfu.com - Derivative work of Material icons (Copyright Google Inc.)</desc>
	<defs>
		<filter id="filter-J1HPhDO3" x="-16%" y="-29%" width="166%" height="511%" color-interpolation-filters="sRGB">
			<feColorMatrix values="1 0 0 0 0 0 1 0 0 0 0 0 1 0 0 0 0 0 0.2 0" in="SourceGraphic"/>
			<feOffset dy="20"/>
			<feGaussianBlur stdDeviation="11" result="blur0"/>
			<feColorMatrix values="1 0 0 0 0 0 1 0 0 0 0 0 1 0 0 0 0 0 0.3 0" in="SourceGraphic"/>
			<feOffset dy="30"/>
			<feGaussianBlur stdDeviation="20" result="blur1"/>
			<feMerge>
				<feMergeNode in="blur0"/>
				<feMergeNode in="blur1"/>
			</feMerge>
		</filter>
	</defs>
	<g fill="none" fill-rule="nonzero" style="mix-blend-mode: normal">
		<path d="M360.1,512c0,41.77 -34.18,75.94 -75.94,75.94c-41.77,0 -75.94,-34.18 -75.94,-75.94c0,-41.77 34.18,-75.94 75.94,-75.94c41.77,0 75.94,34.18 75.94,75.94zM815.78,512c0,41.77 -34.18,75.94 -75.94,75.94c-41.77,0 -75.94,-34.18 -75.94,-75.94c0,-41.77 34.18,-75.94 75.94,-75.94c41.77,0 75.94,34.18 75.94,75.94zM587.94,512c0,41.77 -34.18,75.94 -75.94,75.94c-41.77,0 -75.94,-34.18 -75.94,-75.94c0,-41.77 34.18,-75.94 75.94,-75.94c41.77,0 75.94,34.18 75.94,75.94z" fill="#000000" filter="url(#filter-J1HPhDO3)"/>
		<g>
			<g color="#039be5" class="teamapps-color-1">
				<path d="M360.1,512c0,41.77 -34.18,75.94 -75.94,75.94c-41.77,0 -75.94,-34.18 -75.94,-75.94c0,-41.77 34.18,-75.94 75.94,-75.94c41.77,0 75.94,34.18 75.94,75.94zM815.78,512c0,41.77 -34.18,75.94 -75.94,75.94c-41.77,0 -75.94,-34.18 -75.94,-75.94c0,-41.77 34.18,-75.94 75.94,-75.94c41.77,0 75.94,34.18 75.94,75.94zM587.94,512c0,41.77 -34.18,75.94 -75.94,75.94c-41.77,0 -75.94,-34.18 -75.94,-75.94c0,-41.77 34.18,-75.94 75.94,-75.94c41.77,0 75.94,34.18 75.94,75.94z" fill="currentColor"/>
			</g>
		</g>
	</g>
</svg>