<svg version="1.1" xmlns="http://www.w3.org/2000/svg" xmlns:xlink="http://www.w3.org/1999/xlink" viewBox="0,0,1024,1024">
	<!-- Color names: teamapps-color-1 -->
	<desc>note icon - Licensed under Apache License v2.0 (http://www.apache.org/licenses/LICENSE-2.0) - Created with Iconfu.com - Derivative work of Material icons (Copyright Google Inc.)</desc>
	<defs>
		<filter id="filter-7ls7Kkcc" x="-13%" y="-8%" width="143%" height="166%" color-interpolation-filters="sRGB">
			<feColorMatrix values="1 0 0 0 0 0 1 0 0 0 0 0 1 0 0 0 0 0 0.2 0" in="SourceGraphic"/>
			<feOffset dy="20"/>
			<feGaussianBlur stdDeviation="11" result="blur0"/>
			<feColorMatrix values="1 0 0 0 0 0 1 0 0 0 0 0 1 0 0 0 0 0 0.3 0" in="SourceGraphic"/>
			<feOffset dy="30"/>
			<feGaussianBlur stdDeviation="20" result="blur1"/>
			<feMerge>
				<feMergeNode in="blur0"/>
				<feMergeNode in="blur1"/>
			</feMerge>
		</filter>
	</defs>
	<g fill="none" fill-rule="nonzero" style="mix-blend-mode: normal">
		<path d="M891.74,739.84c0,41.77 -34.18,75.57 -75.95,75.57l-607.57,0.37c-41.77,0 -75.95,-33.79 -75.95,-75.56v-456.06c0,-41.77 34.18,-75.94 75.95,-75.94h455.68l227.84,227.84zM625.92,474.02h208.86l-208.86,-208.85z" fill="#000000" filter="url(#filter-7ls7Kkcc)"/>
		<g>
			<g color="#039be5" class="teamapps-color-1">
				<path d="M891.74,739.84c0,41.77 -34.18,75.57 -75.95,75.57l-607.57,0.37c-41.77,0 -75.95,-33.79 -75.95,-75.56v-456.06c0,-41.77 34.18,-75.94 75.95,-75.94h455.68l227.84,227.84zM625.92,474.02h208.86l-208.86,-208.85z" fill="currentColor"/>
			</g>
		</g>
	</g>
</svg>