<svg version="1.1" xmlns="http://www.w3.org/2000/svg" xmlns:xlink="http://www.w3.org/1999/xlink" viewBox="0,0,1024,1024">
	<!-- Color names: teamapps-color-1 -->
	<desc>notifications_paused icon - Licensed under Apache License v2.0 (http://www.apache.org/licenses/LICENSE-2.0) - Created with Iconfu.com - Derivative work of Material icons (Copyright Google Inc.)</desc>
	<defs>
		<clipPath id="clip-dRwADLsc">
			<path d="M115.22,108.26h793.57v915.74h-793.57z"/>
		</clipPath>
		<filter id="filter-54qRDtGW" x="-16%" y="-6%" width="166%" height="146%" color-interpolation-filters="sRGB">
			<feColorMatrix values="1 0 0 0 0 0 1 0 0 0 0 0 1 0 0 0 0 0 0.2 0" in="SourceGraphic"/>
			<feOffset dy="20"/>
			<feGaussianBlur stdDeviation="11" result="blur0"/>
			<feColorMatrix values="1 0 0 0 0 0 1 0 0 0 0 0 1 0 0 0 0 0 0.3 0" in="SourceGraphic"/>
			<feOffset dy="30"/>
			<feGaussianBlur stdDeviation="20" result="blur1"/>
			<feMerge>
				<feMergeNode in="blur0"/>
				<feMergeNode in="blur1"/>
			</feMerge>
		</filter>
	</defs>
	<g fill="none" fill-rule="nonzero" style="mix-blend-mode: normal">
		<g clip-path="url(#clip-dRwADLsc)">
			<path d="M815.78,739.84v37.98h-607.57v-37.98l75.94,-75.94v-189.87c0,-116.58 61.9,-214.17 170.88,-239.99v-25.82c0,-31.51 25.45,-56.96 56.96,-56.96c31.51,0 56.96,25.45 56.96,56.96v25.82c108.61,25.82 170.88,123.41 170.88,239.99v189.87zM606.94,360.1h-189.87v68.35h106.33l-106.33,129.11v68.35h189.87v-68.35h-106.33l106.33,-129.11zM436.06,815.78h151.89c0,41.77 -34.18,75.95 -75.94,75.95c-42.15,0 -75.94,-34.18 -75.94,-75.95z" fill="#000000" filter="url(#filter-54qRDtGW)"/>
		</g>
		<g>
			<g color="#039be5" class="teamapps-color-1">
				<path d="M815.78,739.84v37.98h-607.57v-37.98l75.94,-75.94v-189.87c0,-116.58 61.9,-214.17 170.88,-239.99v-25.82c0,-31.51 25.45,-56.96 56.96,-56.96c31.51,0 56.96,25.45 56.96,56.96v25.82c108.61,25.82 170.88,123.41 170.88,239.99v189.87zM606.94,360.1h-189.87v68.35h106.33l-106.33,129.11v68.35h189.87v-68.35h-106.33l106.33,-129.11zM436.06,815.78h151.89c0,41.77 -34.18,75.95 -75.94,75.95c-42.15,0 -75.94,-34.18 -75.94,-75.95z" fill="currentColor"/>
			</g>
		</g>
	</g>
</svg>