<svg version="1.1" xmlns="http://www.w3.org/2000/svg" xmlns:xlink="http://www.w3.org/1999/xlink" viewBox="0,0,1024,1024">
	<!-- Color names: teamapps-color-1 -->
	<desc>open_with icon - Licensed under Apache License v2.0 (http://www.apache.org/licenses/LICENSE-2.0) - Created with Iconfu.com - Derivative work of Material icons (Copyright Google Inc.)</desc>
	<defs>
		<clipPath id="clip-kq0AgOLX">
			<path d="M1.3,51.3h1021.41v972.7h-1021.41z"/>
		</clipPath>
		<filter id="filter-FzVY59Er" x="-12%" y="-6%" width="135%" height="135%" color-interpolation-filters="sRGB">
			<feColorMatrix values="1 0 0 0 0 0 1 0 0 0 0 0 1 0 0 0 0 0 0.2 0" in="SourceGraphic"/>
			<feOffset dy="20"/>
			<feGaussianBlur stdDeviation="11" result="blur0"/>
			<feColorMatrix values="1 0 0 0 0 0 1 0 0 0 0 0 1 0 0 0 0 0 0.3 0" in="SourceGraphic"/>
			<feOffset dy="30"/>
			<feGaussianBlur stdDeviation="20" result="blur1"/>
			<feMerge>
				<feMergeNode in="blur0"/>
				<feMergeNode in="blur1"/>
			</feMerge>
		</filter>
	</defs>
	<g fill="none" fill-rule="nonzero" style="mix-blend-mode: normal">
		<g clip-path="url(#clip-kq0AgOLX)">
			<path d="M436.06,284.16h-113.92l189.86,-189.86l189.86,189.86h-113.92v113.92h-151.89zM398.08,587.94h-113.92v113.92l-189.86,-189.86l189.86,-189.86v113.92h113.92zM739.84,701.86v-113.92h-113.92v-151.89h113.92v-113.92l189.86,189.86zM587.94,739.84h113.92l-189.86,189.86l-189.86,-189.86h113.92v-113.92h151.89z" fill="#000000" filter="url(#filter-FzVY59Er)"/>
		</g>
		<g>
			<g color="#039be5" class="teamapps-color-1">
				<path d="M436.06,284.16h-113.92l189.86,-189.86l189.86,189.86h-113.92v113.92h-151.89zM398.08,587.94h-113.92v113.92l-189.86,-189.86l189.86,-189.86v113.92h113.92zM739.84,701.86v-113.92h-113.92v-151.89h113.92v-113.92l189.86,189.86zM587.94,739.84h113.92l-189.86,189.86l-189.86,-189.86h113.92v-113.92h151.89z" fill="currentColor"/>
			</g>
		</g>
	</g>
</svg>