<svg version="1.1" xmlns="http://www.w3.org/2000/svg" xmlns:xlink="http://www.w3.org/1999/xlink" viewBox="0,0,1024,1024">
	<!-- Color names: teamapps-color-1 -->
	<desc>panorama icon - Licensed under Apache License v2.0 (http://www.apache.org/licenses/LICENSE-2.0) - Created with Iconfu.com - Derivative work of Material icons (Copyright Google Inc.)</desc>
	<defs>
		<filter id="filter-HyptddtU" x="-12%" y="-8%" width="135%" height="166%" color-interpolation-filters="sRGB">
			<feColorMatrix values="1 0 0 0 0 0 1 0 0 0 0 0 1 0 0 0 0 0 0.2 0" in="SourceGraphic"/>
			<feOffset dy="20"/>
			<feGaussianBlur stdDeviation="11" result="blur0"/>
			<feColorMatrix values="1 0 0 0 0 0 1 0 0 0 0 0 1 0 0 0 0 0 0.3 0" in="SourceGraphic"/>
			<feOffset dy="30"/>
			<feGaussianBlur stdDeviation="20" result="blur1"/>
			<feMerge>
				<feMergeNode in="blur0"/>
				<feMergeNode in="blur1"/>
			</feMerge>
		</filter>
	</defs>
	<g fill="none" fill-rule="nonzero" style="mix-blend-mode: normal">
		<path d="M853.76,815.78h-683.52c-41.77,0 -75.94,-34.18 -75.94,-75.94v-455.68c0,-41.77 34.18,-75.94 75.94,-75.94h683.52c41.77,0 75.94,34.18 75.94,75.94v455.68c0,41.77 -34.18,75.94 -75.94,75.94zM246.18,701.86h531.63l-170.88,-227.84l-132.91,171.26l-94.93,-114.3z" fill="#000000" filter="url(#filter-HyptddtU)"/>
		<g>
			<g color="#039be5" class="teamapps-color-1">
				<path d="M853.76,815.78h-683.52c-41.77,0 -75.94,-34.18 -75.94,-75.94v-455.68c0,-41.77 34.18,-75.94 75.94,-75.94h683.52c41.77,0 75.94,34.18 75.94,75.94v455.68c0,41.77 -34.18,75.94 -75.94,75.94zM246.18,701.86h531.63l-170.88,-227.84l-132.91,171.26l-94.93,-114.3z" fill="currentColor"/>
			</g>
		</g>
	</g>
</svg>