<svg version="1.1" xmlns="http://www.w3.org/2000/svg" xmlns:xlink="http://www.w3.org/1999/xlink" viewBox="0,0,1024,1024">
	<!-- Color names: teamapps-color-1 -->
	<desc>panorama_wide_angle icon - Licensed under Apache License v2.0 (http://www.apache.org/licenses/LICENSE-2.0) - Created with Iconfu.com - Derivative work of Material icons (Copyright Google Inc.)</desc>
	<defs>
		<filter id="filter-dIcTqIKH" x="-13%" y="-8%" width="143%" height="166%" color-interpolation-filters="sRGB">
			<feColorMatrix values="1 0 0 0 0 0 1 0 0 0 0 0 1 0 0 0 0 0 0.2 0" in="SourceGraphic"/>
			<feOffset dy="20"/>
			<feGaussianBlur stdDeviation="11" result="blur0"/>
			<feColorMatrix values="1 0 0 0 0 0 1 0 0 0 0 0 1 0 0 0 0 0 0.3 0" in="SourceGraphic"/>
			<feOffset dy="30"/>
			<feGaussianBlur stdDeviation="20" result="blur1"/>
			<feMerge>
				<feMergeNode in="blur0"/>
				<feMergeNode in="blur1"/>
			</feMerge>
		</filter>
	</defs>
	<g fill="none" fill-rule="nonzero" style="mix-blend-mode: normal">
		<path d="M813.89,235.93l35.32,6.08l9.5,33.79c22.03,78.6 33.04,157.59 33.04,236.2c0,78.6 -11.01,157.58 -33.04,236.57l-9.5,33.8l-35.32,6.07c-103.67,18.23 -198.22,27.34 -301.89,27.34c-103.67,0 -198.22,-9.1 -301.89,-27.71l-35.32,-6.08l-9.5,-33.79c-22.03,-78.6 -33.04,-157.59 -33.04,-236.2c0,-78.6 11.01,-157.59 33.04,-236.2l9.5,-34.18l35.32,-6.07c103.67,-18.23 198.22,-27.34 301.89,-27.34c103.67,0 198.22,9.1 301.89,27.71zM512,284.16c-93.03,0 -178.85,7.6 -276.83,24.31c-17.84,67.6 -26.96,135.94 -26.96,203.53c0,67.6 9.11,135.94 26.96,203.53c97.97,16.71 183.79,24.31 276.83,24.31c93.03,0 178.85,-7.6 276.83,-24.31c17.84,-67.6 26.96,-135.94 26.96,-203.53c0,-67.6 -9.11,-135.94 -26.96,-203.53c-97.97,-16.71 -183.79,-24.31 -276.83,-24.31z" fill="#000000" filter="url(#filter-dIcTqIKH)"/>
		<g>
			<g color="#039be5" class="teamapps-color-1">
				<path d="M813.89,235.93l35.32,6.08l9.5,33.79c22.03,78.6 33.04,157.59 33.04,236.2c0,78.6 -11.01,157.58 -33.04,236.57l-9.5,33.8l-35.32,6.07c-103.67,18.23 -198.22,27.34 -301.89,27.34c-103.67,0 -198.22,-9.1 -301.89,-27.71l-35.32,-6.08l-9.5,-33.79c-22.03,-78.6 -33.04,-157.59 -33.04,-236.2c0,-78.6 11.01,-157.59 33.04,-236.2l9.5,-34.18l35.32,-6.07c103.67,-18.23 198.22,-27.34 301.89,-27.34c103.67,0 198.22,9.1 301.89,27.71zM512,284.16c-93.03,0 -178.85,7.6 -276.83,24.31c-17.84,67.6 -26.96,135.94 -26.96,203.53c0,67.6 9.11,135.94 26.96,203.53c97.97,16.71 183.79,24.31 276.83,24.31c93.03,0 178.85,-7.6 276.83,-24.31c17.84,-67.6 26.96,-135.94 26.96,-203.53c0,-67.6 -9.11,-135.94 -26.96,-203.53c-97.97,-16.71 -183.79,-24.31 -276.83,-24.31z" fill="currentColor"/>
			</g>
		</g>
	</g>
</svg>