<svg version="1.1" xmlns="http://www.w3.org/2000/svg" xmlns:xlink="http://www.w3.org/1999/xlink" viewBox="0,0,1024,1024">
	<!-- Color names: teamapps-color-1 -->
	<desc>perm_camera_mic icon - Licensed under Apache License v2.0 (http://www.apache.org/licenses/LICENSE-2.0) - Created with Iconfu.com - Derivative work of Material icons (Copyright Google Inc.)</desc>
	<defs>
		<filter id="filter-vmZg4Rdv" x="-13%" y="-7%" width="143%" height="153%" color-interpolation-filters="sRGB">
			<feColorMatrix values="1 0 0 0 0 0 1 0 0 0 0 0 1 0 0 0 0 0 0.2 0" in="SourceGraphic"/>
			<feOffset dy="20"/>
			<feGaussianBlur stdDeviation="11" result="blur0"/>
			<feColorMatrix values="1 0 0 0 0 0 1 0 0 0 0 0 1 0 0 0 0 0 0.3 0" in="SourceGraphic"/>
			<feOffset dy="30"/>
			<feGaussianBlur stdDeviation="20" result="blur1"/>
			<feMerge>
				<feMergeNode in="blur0"/>
				<feMergeNode in="blur1"/>
			</feMerge>
		</filter>
	</defs>
	<g fill="none" fill-rule="nonzero" style="mix-blend-mode: normal">
		<path d="M891.74,322.14v455.68c0,41.77 -34.18,75.94 -75.95,75.94h-265.81v-79.36c107.47,-18.23 189.86,-111.64 189.86,-224.42h-75.94c0,83.92 -67.98,151.89 -151.9,151.89c-83.92,0 -151.9,-67.97 -151.9,-151.89h-75.94c0,112.78 82.4,206.2 189.86,224.42v79.36h-265.81c-41.77,0 -75.95,-34.18 -75.95,-75.94v-455.68c0,-41.77 34.18,-75.95 75.95,-75.95h120.37l69.49,-75.94h227.84l69.49,75.94h120.37c41.77,0 75.95,34.18 75.95,75.95zM587.94,398.08c0,-41.77 -34.18,-75.94 -75.94,-75.94c-41.77,0 -75.94,34.18 -75.94,75.94v151.9c0,41.77 34.18,75.94 75.94,75.94c41.77,0 75.94,-34.18 75.94,-75.94z" fill="#000000" filter="url(#filter-vmZg4Rdv)"/>
		<g>
			<g color="#039be5" class="teamapps-color-1">
				<path d="M891.74,322.14v455.68c0,41.77 -34.18,75.94 -75.95,75.94h-265.81v-79.36c107.47,-18.23 189.86,-111.64 189.86,-224.42h-75.94c0,83.92 -67.98,151.89 -151.9,151.89c-83.92,0 -151.9,-67.97 -151.9,-151.89h-75.94c0,112.78 82.4,206.2 189.86,224.42v79.36h-265.81c-41.77,0 -75.95,-34.18 -75.95,-75.94v-455.68c0,-41.77 34.18,-75.95 75.95,-75.95h120.37l69.49,-75.94h227.84l69.49,75.94h120.37c41.77,0 75.95,34.18 75.95,75.95zM587.94,398.08c0,-41.77 -34.18,-75.94 -75.94,-75.94c-41.77,0 -75.94,34.18 -75.94,75.94v151.9c0,41.77 34.18,75.94 75.94,75.94c41.77,0 75.94,-34.18 75.94,-75.94z" fill="currentColor"/>
			</g>
		</g>
	</g>
</svg>