<svg version="1.1" xmlns="http://www.w3.org/2000/svg" xmlns:xlink="http://www.w3.org/1999/xlink" viewBox="0,0,1024,1024">
	<!-- Color names: teamapps-color-1 -->
	<desc>pets icon - Licensed under Apache License v2.0 (http://www.apache.org/licenses/LICENSE-2.0) - Created with Iconfu.com - Derivative work of Material icons (Copyright Google Inc.)</desc>
	<defs>
		<clipPath id="clip-73nKI1p9">
			<path d="M39.26,127.24h945.47v896.76h-945.47z"/>
		</clipPath>
		<filter id="filter-TrKu61f4" x="-13%" y="-6%" width="143%" height="150%" color-interpolation-filters="sRGB">
			<feColorMatrix values="1 0 0 0 0 0 1 0 0 0 0 0 1 0 0 0 0 0 0.2 0" in="SourceGraphic"/>
			<feOffset dy="20"/>
			<feGaussianBlur stdDeviation="11" result="blur0"/>
			<feColorMatrix values="1 0 0 0 0 0 1 0 0 0 0 0 1 0 0 0 0 0 0.3 0" in="SourceGraphic"/>
			<feOffset dy="30"/>
			<feGaussianBlur stdDeviation="20" result="blur1"/>
			<feMerge>
				<feMergeNode in="blur0"/>
				<feMergeNode in="blur1"/>
			</feMerge>
		</filter>
	</defs>
	<g fill="none" fill-rule="nonzero" style="mix-blend-mode: normal">
		<g clip-path="url(#clip-73nKI1p9)">
			<path d="M132.26,417.06c0,-52.43 42.51,-94.93 94.94,-94.93c52.43,0 94.94,42.5 94.94,94.93c0,52.43 -42.51,94.94 -94.94,94.94c-52.43,0 -94.94,-42.51 -94.94,-94.94zM303.14,265.18c0,-52.43 42.51,-94.94 94.94,-94.94c52.43,0 94.94,42.51 94.94,94.94c0,52.43 -42.51,94.93 -94.94,94.93c-52.43,0 -94.94,-42.5 -94.94,-94.93zM530.98,265.18c0,-52.43 42.51,-94.94 94.94,-94.94c52.43,0 94.94,42.51 94.94,94.94c0,52.43 -42.51,94.93 -94.94,94.93c-52.43,0 -94.94,-42.5 -94.94,-94.93zM701.86,417.06c0,-52.43 42.51,-94.93 94.94,-94.93c52.43,0 94.94,42.5 94.94,94.93c0,52.43 -42.51,94.94 -94.94,94.94c-52.43,0 -94.94,-42.51 -94.94,-94.94zM813.89,802.88c-11.01,38.35 -38.73,77.08 -88.47,88.09c-27.72,5.31 -116.21,-16.71 -210.38,-16.71h-6.84c-94.17,0 -182.65,22.4 -210.37,16.71c-49.74,-11.01 -77.47,-49.36 -88.47,-88.09c-11.39,-77.08 49.74,-132.16 99.48,-181.9c33.42,-38.73 61.14,-71.77 94.18,-110.5c17.84,-20.51 39.86,-41.01 66.45,-50.12c4.17,-1.52 8.36,-2.66 12.53,-3.42c9.87,-1.9 20.13,-1.9 30,-1.9c9.87,0 20.12,0 29.62,1.52c4.17,0.76 8.36,1.9 12.53,3.42c26.58,9.11 48.99,29.62 66.46,50.12c33.42,38.73 61.13,71.77 94.17,110.5c49.74,49.74 110.89,104.81 99.11,182.27z" fill="#000000" filter="url(#filter-TrKu61f4)"/>
		</g>
		<g>
			<g color="#039be5" class="teamapps-color-1">
				<path d="M132.26,417.06c0,-52.43 42.51,-94.93 94.94,-94.93c52.43,0 94.94,42.5 94.94,94.93c0,52.43 -42.51,94.94 -94.94,94.94c-52.43,0 -94.94,-42.51 -94.94,-94.94z" fill="currentColor"/>
			</g>
			<g color="#039be5" class="teamapps-color-1">
				<path d="M303.14,265.18c0,-52.43 42.51,-94.94 94.94,-94.94c52.43,0 94.94,42.51 94.94,94.94c0,52.43 -42.51,94.93 -94.94,94.93c-52.43,0 -94.94,-42.5 -94.94,-94.93z" fill="currentColor"/>
			</g>
			<g color="#039be5" class="teamapps-color-1">
				<path d="M530.98,265.18c0,-52.43 42.51,-94.94 94.94,-94.94c52.43,0 94.94,42.51 94.94,94.94c0,52.43 -42.51,94.93 -94.94,94.93c-52.43,0 -94.94,-42.5 -94.94,-94.93z" fill="currentColor"/>
			</g>
			<g color="#039be5" class="teamapps-color-1">
				<path d="M701.86,417.06c0,-52.43 42.51,-94.93 94.94,-94.93c52.43,0 94.94,42.5 94.94,94.93c0,52.43 -42.51,94.94 -94.94,94.94c-52.43,0 -94.94,-42.51 -94.94,-94.94z" fill="currentColor"/>
			</g>
			<g color="#039be5" class="teamapps-color-1">
				<path d="M813.89,802.88c-11.01,38.35 -38.73,77.08 -88.47,88.09c-27.72,5.31 -116.21,-16.71 -210.38,-16.71h-6.84c-94.17,0 -182.65,22.4 -210.37,16.71c-49.74,-11.01 -77.47,-49.36 -88.47,-88.09c-11.39,-77.08 49.74,-132.16 99.48,-181.9c33.42,-38.73 61.14,-71.77 94.18,-110.5c17.84,-20.51 39.86,-41.01 66.45,-50.12c4.17,-1.52 8.36,-2.66 12.53,-3.42c9.87,-1.9 20.13,-1.9 30,-1.9c9.87,0 20.12,0 29.62,1.52c4.17,0.76 8.36,1.9 12.53,3.42c26.58,9.11 48.99,29.62 66.46,50.12c33.42,38.73 61.13,71.77 94.17,110.5c49.74,49.74 110.89,104.81 99.11,182.27z" fill="currentColor"/>
			</g>
		</g>
	</g>
</svg>