<svg version="1.1" xmlns="http://www.w3.org/2000/svg" xmlns:xlink="http://www.w3.org/1999/xlink" viewBox="0,0,1024,1024">
	<!-- Color names: teamapps-color-1 -->
	<desc>phonelink_ring icon - Licensed under Apache License v2.0 (http://www.apache.org/licenses/LICENSE-2.0) - Created with Iconfu.com - Derivative work of Material icons (Copyright Google Inc.)</desc>
	<defs>
		<clipPath id="clip-TvMqbuKH">
			<path d="M39.26,51.3h944.52l0,972.7h-944.52z"/>
		</clipPath>
		<filter id="filter-BukItMbH" x="-13%" y="-6%" width="143%" height="135%" color-interpolation-filters="sRGB">
			<feColorMatrix values="1 0 0 0 0 0 1 0 0 0 0 0 1 0 0 0 0 0 0.2 0" in="SourceGraphic"/>
			<feOffset dy="20"/>
			<feGaussianBlur stdDeviation="11" result="blur0"/>
			<feColorMatrix values="1 0 0 0 0 0 1 0 0 0 0 0 1 0 0 0 0 0 0.3 0" in="SourceGraphic"/>
			<feOffset dy="30"/>
			<feGaussianBlur stdDeviation="20" result="blur1"/>
			<feMerge>
				<feMergeNode in="blur0"/>
				<feMergeNode in="blur1"/>
			</feMerge>
		</filter>
	</defs>
	<g fill="none" fill-rule="nonzero" style="mix-blend-mode: normal">
		<g clip-path="url(#clip-TvMqbuKH)">
			<path d="M663.9,170.24v683.52c0,41.77 -34.18,75.94 -75.95,75.94h-379.73c-41.77,0 -75.95,-34.18 -75.95,-75.94v-683.52c0,-41.77 34.18,-75.94 75.95,-75.94h379.73c41.77,0 75.95,34.18 75.95,75.94zM587.94,208.22h-379.73v607.57h379.73zM819.58,671.49l-37.98,-37.98c68.35,-72.15 68.35,-178.47 0,-246.82l37.98,-37.98c94.94,91.14 94.94,235.44 0,322.78zM739.84,591.74l-37.98,-37.98c18.98,-26.58 18.98,-60.75 0,-87.34l37.98,-37.98c45.57,49.37 45.57,117.72 0,163.29z" fill="#000000" filter="url(#filter-BukItMbH)"/>
		</g>
		<g>
			<g color="#039be5" class="teamapps-color-1">
				<path d="M663.9,170.24v683.52c0,41.77 -34.18,75.94 -75.95,75.94h-379.73c-41.77,0 -75.95,-34.18 -75.95,-75.94v-683.52c0,-41.77 34.18,-75.94 75.95,-75.94h379.73c41.77,0 75.95,34.18 75.95,75.94zM587.94,208.22h-379.73v607.57h379.73zM819.58,671.49l-37.98,-37.98c68.35,-72.15 68.35,-178.47 0,-246.82l37.98,-37.98c94.94,91.14 94.94,235.44 0,322.78zM739.84,591.74l-37.98,-37.98c18.98,-26.58 18.98,-60.75 0,-87.34l37.98,-37.98c45.57,49.37 45.57,117.72 0,163.29z" fill="currentColor"/>
			</g>
		</g>
	</g>
</svg>