<svg version="1.1" xmlns="http://www.w3.org/2000/svg" xmlns:xlink="http://www.w3.org/1999/xlink" viewBox="0,0,1024,1024">
	<!-- Color names: teamapps-color-1 -->
	<desc>phonelink icon - Licensed under Apache License v2.0 (http://www.apache.org/licenses/LICENSE-2.0) - Created with Iconfu.com - Derivative work of Material icons (Copyright Google Inc.)</desc>
	<defs>
		<clipPath id="clip-8Ikpa406">
			<path d="M0,165.22h1024v793.57h-1024z"/>
		</clipPath>
		<filter id="filter-4JSTkyck" x="-11%" y="-8%" width="128%" height="166%" color-interpolation-filters="sRGB">
			<feColorMatrix values="1 0 0 0 0 0 1 0 0 0 0 0 1 0 0 0 0 0 0.2 0" in="SourceGraphic"/>
			<feOffset dy="20"/>
			<feGaussianBlur stdDeviation="11" result="blur0"/>
			<feColorMatrix values="1 0 0 0 0 0 1 0 0 0 0 0 1 0 0 0 0 0 0.3 0" in="SourceGraphic"/>
			<feOffset dy="30"/>
			<feGaussianBlur stdDeviation="20" result="blur1"/>
			<feMerge>
				<feMergeNode in="blur0"/>
				<feMergeNode in="blur1"/>
			</feMerge>
		</filter>
	</defs>
	<g fill="none" fill-rule="nonzero" style="mix-blend-mode: normal">
		<g clip-path="url(#clip-8Ikpa406)">
			<path d="M208.22,701.86h379.73v113.92h-531.62v-113.92h75.94v-417.7c0,-41.77 34.18,-75.94 75.95,-75.94h683.52v75.94h-683.52zM967.68,398.08v379.74c0,20.89 -17.09,37.97 -37.98,37.97h-227.84c-20.89,0 -37.97,-17.08 -37.97,-37.97v-379.74c0,-20.89 17.08,-37.98 37.97,-37.98h227.84c20.89,0 37.98,17.09 37.98,37.98zM891.74,436.06h-151.9v265.81h151.9z" fill="#000000" filter="url(#filter-4JSTkyck)"/>
		</g>
		<g>
			<g color="#039be5" class="teamapps-color-1">
				<path d="M208.22,701.86h379.73v113.92h-531.62v-113.92h75.94v-417.7c0,-41.77 34.18,-75.94 75.95,-75.94h683.52v75.94h-683.52zM967.68,398.08v379.74c0,20.89 -17.09,37.97 -37.98,37.97h-227.84c-20.89,0 -37.97,-17.08 -37.97,-37.97v-379.74c0,-20.89 17.08,-37.98 37.97,-37.98h227.84c20.89,0 37.98,17.09 37.98,37.98zM891.74,436.06h-151.9v265.81h151.9z" fill="currentColor"/>
			</g>
		</g>
	</g>
</svg>