<svg version="1.1" xmlns="http://www.w3.org/2000/svg" xmlns:xlink="http://www.w3.org/1999/xlink" viewBox="0,0,1024,1024">
	<!-- Color names: teamapps-color-1 -->
	<desc>phone_locked icon - Licensed under Apache License v2.0 (http://www.apache.org/licenses/LICENSE-2.0) - Created with Iconfu.com - Derivative work of Material icons (Copyright Google Inc.)</desc>
	<defs>
		<filter id="filter-8zemuA5E" x="-14%" y="-6%" width="153%" height="138%" color-interpolation-filters="sRGB">
			<feColorMatrix values="1 0 0 0 0 0 1 0 0 0 0 0 1 0 0 0 0 0 0.2 0" in="SourceGraphic"/>
			<feOffset dy="20"/>
			<feGaussianBlur stdDeviation="11" result="blur0"/>
			<feColorMatrix values="1 0 0 0 0 0 1 0 0 0 0 0 1 0 0 0 0 0 0.3 0" in="SourceGraphic"/>
			<feOffset dy="30"/>
			<feGaussianBlur stdDeviation="20" result="blur1"/>
			<feMerge>
				<feMergeNode in="blur0"/>
				<feMergeNode in="blur1"/>
			</feMerge>
		</filter>
	</defs>
	<g fill="none" fill-rule="nonzero" style="mix-blend-mode: normal">
		<path d="M853.76,682.88v132.9c0,20.89 -17.09,37.98 -37.98,37.98c-356.57,0 -645.54,-288.97 -645.54,-645.54c0,-20.89 17.09,-37.98 37.98,-37.98h132.9c20.89,0 37.98,17.09 37.98,37.98c0,47.46 7.59,93.03 21.64,135.56c4.17,13.29 1.14,28.1 -9.5,37.97l-83.54,83.93c54.68,107.84 142.78,195.56 250.25,250.24l83.54,-83.54c10.64,-10.25 25.45,-13.29 38.73,-9.11c42.53,14.05 88.1,21.64 135.56,21.64c20.89,0 37.98,17.09 37.98,37.98zM853.76,246.18v151.9c0,20.89 -17.09,37.98 -37.98,37.98h-189.86c-20.89,0 -37.98,-17.09 -37.98,-37.98v-151.9c0,-20.89 17.09,-37.97 37.98,-37.97v-18.99c0,-52.4 42.53,-94.93 94.94,-94.93c52.4,0 94.93,42.52 94.93,94.93v18.99c20.89,0 37.98,17.08 37.98,37.97zM785.41,189.22c0,-35.7 -28.85,-64.55 -64.55,-64.55c-35.7,0 -64.56,28.85 -64.56,64.55v18.99h129.11z" fill="#000000" filter="url(#filter-8zemuA5E)"/>
		<g>
			<g color="#039be5" class="teamapps-color-1">
				<path d="M853.76,682.88v132.9c0,20.89 -17.09,37.98 -37.98,37.98c-356.57,0 -645.54,-288.97 -645.54,-645.54c0,-20.89 17.09,-37.98 37.98,-37.98h132.9c20.89,0 37.98,17.09 37.98,37.98c0,47.46 7.59,93.03 21.64,135.56c4.17,13.29 1.14,28.1 -9.5,37.97l-83.54,83.93c54.68,107.84 142.78,195.56 250.25,250.24l83.54,-83.54c10.64,-10.25 25.45,-13.29 38.73,-9.11c42.53,14.05 88.1,21.64 135.56,21.64c20.89,0 37.98,17.09 37.98,37.98zM853.76,246.18v151.9c0,20.89 -17.09,37.98 -37.98,37.98h-189.86c-20.89,0 -37.98,-17.09 -37.98,-37.98v-151.9c0,-20.89 17.09,-37.97 37.98,-37.97v-18.99c0,-52.4 42.53,-94.93 94.94,-94.93c52.4,0 94.93,42.52 94.93,94.93v18.99c20.89,0 37.98,17.08 37.98,37.97zM785.41,189.22c0,-35.7 -28.85,-64.55 -64.55,-64.55c-35.7,0 -64.56,28.85 -64.56,64.55v18.99h129.11z" fill="currentColor"/>
			</g>
		</g>
	</g>
</svg>