<svg version="1.1" xmlns="http://www.w3.org/2000/svg" xmlns:xlink="http://www.w3.org/1999/xlink" viewBox="0,0,1024,1024">
	<!-- Color names: teamapps-color-1 -->
	<desc>photo_size_select_actual icon - Licensed under Apache License v2.0 (http://www.apache.org/licenses/LICENSE-2.0) - Created with Iconfu.com - Derivative work of Material icons (Copyright Google Inc.)</desc>
	<defs>
		<filter id="filter-F2hxjDea" x="-12%" y="-7%" width="135%" height="153%" color-interpolation-filters="sRGB">
			<feColorMatrix values="1 0 0 0 0 0 1 0 0 0 0 0 1 0 0 0 0 0 0.2 0" in="SourceGraphic"/>
			<feOffset dy="20"/>
			<feGaussianBlur stdDeviation="11" result="blur0"/>
			<feColorMatrix values="1 0 0 0 0 0 1 0 0 0 0 0 1 0 0 0 0 0 0.3 0" in="SourceGraphic"/>
			<feOffset dy="30"/>
			<feGaussianBlur stdDeviation="20" result="blur1"/>
			<feMerge>
				<feMergeNode in="blur0"/>
				<feMergeNode in="blur1"/>
			</feMerge>
		</filter>
	</defs>
	<g fill="none" fill-rule="nonzero" style="mix-blend-mode: normal">
		<path d="M929.7,246.18v531.63c0,37.98 -37.97,75.94 -75.94,75.94h-683.52c-41.77,0 -75.94,-34.18 -75.94,-75.94v-531.63c0,-37.98 37.97,-75.94 75.94,-75.94h683.52c37.98,0 75.94,37.97 75.94,75.94zM777.82,701.86l-170.88,-227.84l-132.91,171.26l-94.93,-114.3l-132.91,170.88z" fill="#000000" filter="url(#filter-F2hxjDea)"/>
		<g>
			<g color="#039be5" class="teamapps-color-1">
				<path d="M929.7,246.18v531.63c0,37.98 -37.97,75.94 -75.94,75.94h-683.52c-41.77,0 -75.94,-34.18 -75.94,-75.94v-531.63c0,-37.98 37.97,-75.94 75.94,-75.94h683.52c37.98,0 75.94,37.97 75.94,75.94zM777.82,701.86l-170.88,-227.84l-132.91,171.26l-94.93,-114.3l-132.91,170.88z" fill="currentColor"/>
			</g>
		</g>
	</g>
</svg>