<svg version="1.1" xmlns="http://www.w3.org/2000/svg" xmlns:xlink="http://www.w3.org/1999/xlink" viewBox="0,0,1024,1024">
	<!-- Color names: teamapps-color-1 -->
	<desc>play_for_work icon - Licensed under Apache License v2.0 (http://www.apache.org/licenses/LICENSE-2.0) - Created with Iconfu.com - Derivative work of Material icons (Copyright Google Inc.)</desc>
	<defs>
		<filter id="filter-l38VP41H" x="-21%" y="-8%" width="204%" height="177%" color-interpolation-filters="sRGB">
			<feColorMatrix values="1 0 0 0 0 0 1 0 0 0 0 0 1 0 0 0 0 0 0.2 0" in="SourceGraphic"/>
			<feOffset dy="20"/>
			<feGaussianBlur stdDeviation="11" result="blur0"/>
			<feColorMatrix values="1 0 0 0 0 0 1 0 0 0 0 0 1 0 0 0 0 0 0.3 0" in="SourceGraphic"/>
			<feOffset dy="30"/>
			<feGaussianBlur stdDeviation="20" result="blur1"/>
			<feMerge>
				<feMergeNode in="blur0"/>
				<feMergeNode in="blur1"/>
			</feMerge>
		</filter>
	</defs>
	<g fill="none" fill-rule="nonzero" style="mix-blend-mode: normal">
		<path d="M549.98,246.18v212.27h132.9l-170.88,170.88l-170.88,-170.88h132.9v-212.27zM360.1,587.94c0,83.92 67.98,151.9 151.9,151.9c83.92,0 151.9,-67.98 151.9,-151.9h75.94c0,125.69 -102.15,227.84 -227.84,227.84c-125.69,0 -227.84,-102.15 -227.84,-227.84z" fill="#000000" filter="url(#filter-l38VP41H)"/>
		<g>
			<g color="#039be5" class="teamapps-color-1">
				<path d="M549.98,246.18v212.27h132.9l-170.88,170.88l-170.88,-170.88h132.9v-212.27zM360.1,587.94c0,83.92 67.98,151.9 151.9,151.9c83.92,0 151.9,-67.98 151.9,-151.9h75.94c0,125.69 -102.15,227.84 -227.84,227.84c-125.69,0 -227.84,-102.15 -227.84,-227.84z" fill="currentColor"/>
			</g>
		</g>
	</g>
</svg>