<svg version="1.1" xmlns="http://www.w3.org/2000/svg" xmlns:xlink="http://www.w3.org/1999/xlink" viewBox="0,0,1024,1024">
	<!-- Color names: teamapps-color-1 -->
	<desc>pregnant_woman icon - Licensed under Apache License v2.0 (http://www.apache.org/licenses/LICENSE-2.0) - Created with Iconfu.com - Derivative work of Material icons (Copyright Google Inc.)</desc>
	<defs>
		<clipPath id="clip-XPm1zPy9">
			<path d="M267.1,89.26h489.79v934.74h-489.79z"/>
		</clipPath>
		<filter id="filter-4yu1PdLr" x="-31%" y="-6%" width="281%" height="143%" color-interpolation-filters="sRGB">
			<feColorMatrix values="1 0 0 0 0 0 1 0 0 0 0 0 1 0 0 0 0 0 0.2 0" in="SourceGraphic"/>
			<feOffset dy="20"/>
			<feGaussianBlur stdDeviation="11" result="blur0"/>
			<feColorMatrix values="1 0 0 0 0 0 1 0 0 0 0 0 1 0 0 0 0 0 0.3 0" in="SourceGraphic"/>
			<feOffset dy="30"/>
			<feGaussianBlur stdDeviation="20" result="blur1"/>
			<feMerge>
				<feMergeNode in="blur0"/>
				<feMergeNode in="blur1"/>
			</feMerge>
		</filter>
	</defs>
	<g fill="none" fill-rule="nonzero" style="mix-blend-mode: normal">
		<g clip-path="url(#clip-XPm1zPy9)">
			<path d="M663.9,701.86h-113.92v189.87h-113.92v-189.87h-75.95v-265.81c0,-63.04 50.88,-113.92 113.92,-113.92c63.04,0 113.92,50.88 113.92,113.92c44.43,18.61 75.57,63.04 75.95,113.92zM398.08,208.22c0,-42.15 33.79,-75.95 75.94,-75.95c42.15,0 75.95,33.8 75.95,75.95c0,42.15 -33.8,75.94 -75.95,75.94c-42.15,0 -75.94,-33.79 -75.94,-75.94z" fill="#000000" filter="url(#filter-4yu1PdLr)"/>
		</g>
		<g>
			<g color="#039be5" class="teamapps-color-1">
				<path d="M663.9,701.86h-113.92v189.87h-113.92v-189.87h-75.95v-265.81c0,-63.04 50.88,-113.92 113.92,-113.92c63.04,0 113.92,50.88 113.92,113.92c44.43,18.61 75.57,63.04 75.95,113.92zM398.08,208.22c0,-42.15 33.79,-75.95 75.94,-75.95c42.15,0 75.95,33.8 75.95,75.95c0,42.15 -33.8,75.94 -75.95,75.94c-42.15,0 -75.94,-33.79 -75.94,-75.94z" fill="currentColor"/>
			</g>
		</g>
	</g>
</svg>