<svg version="1.1" xmlns="http://www.w3.org/2000/svg" xmlns:xlink="http://www.w3.org/1999/xlink" viewBox="0,0,1024,1024">
	<!-- Color names: teamapps-color-1 -->
	<desc>rate_review icon - Licensed under Apache License v2.0 (http://www.apache.org/licenses/LICENSE-2.0) - Created with Iconfu.com - Derivative work of Material icons (Copyright Google Inc.)</desc>
	<defs>
		<clipPath id="clip-2cZHe1Cl">
			<path d="M39.26,89.26h945.47v934.74h-945.47z"/>
		</clipPath>
		<filter id="filter-43cWY3xF" x="-13%" y="-6%" width="143%" height="143%" color-interpolation-filters="sRGB">
			<feColorMatrix values="1 0 0 0 0 0 1 0 0 0 0 0 1 0 0 0 0 0 0.2 0" in="SourceGraphic"/>
			<feOffset dy="20"/>
			<feGaussianBlur stdDeviation="11" result="blur0"/>
			<feColorMatrix values="1 0 0 0 0 0 1 0 0 0 0 0 1 0 0 0 0 0 0.3 0" in="SourceGraphic"/>
			<feOffset dy="30"/>
			<feGaussianBlur stdDeviation="20" result="blur1"/>
			<feMerge>
				<feMergeNode in="blur0"/>
				<feMergeNode in="blur1"/>
			</feMerge>
		</filter>
	</defs>
	<g fill="none" fill-rule="nonzero" style="mix-blend-mode: normal">
		<g clip-path="url(#clip-2cZHe1Cl)">
			<path d="M891.74,208.22v455.68c0,41.77 -34.18,75.94 -75.95,75.94h-531.62l-151.9,151.9l0.38,-683.52c0,-41.77 33.8,-75.95 75.57,-75.95h607.57c41.77,0 75.95,34.18 75.95,75.95zM377.96,587.94l261.63,-260.88c7.59,-7.59 7.59,-19.37 0,-26.96l-67.21,-67.21c-7.59,-7.59 -19.37,-7.59 -26.96,0l-261.26,261.26v93.79zM739.84,512h-208.86l-75.94,75.94h284.8z" fill="#000000" filter="url(#filter-43cWY3xF)"/>
		</g>
		<g>
			<g color="#039be5" class="teamapps-color-1">
				<path d="M891.74,208.22v455.68c0,41.77 -34.18,75.94 -75.95,75.94h-531.62l-151.9,151.9l0.38,-683.52c0,-41.77 33.8,-75.95 75.57,-75.95h607.57c41.77,0 75.95,34.18 75.95,75.95zM377.96,587.94l261.63,-260.88c7.59,-7.59 7.59,-19.37 0,-26.96l-67.21,-67.21c-7.59,-7.59 -19.37,-7.59 -26.96,0l-261.26,261.26v93.79zM739.84,512h-208.86l-75.94,75.94h284.8z" fill="currentColor"/>
			</g>
		</g>
	</g>
</svg>