<svg version="1.1" xmlns="http://www.w3.org/2000/svg" xmlns:xlink="http://www.w3.org/1999/xlink" viewBox="0,0,1024,1024">
	<!-- Color names: teamapps-color-1 -->
	<desc>repeat_one icon - Licensed under Apache License v2.0 (http://www.apache.org/licenses/LICENSE-2.0) - Created with Iconfu.com - Derivative work of Material icons (Copyright Google Inc.)</desc>
	<defs>
		<clipPath id="clip-lU4eDPRD">
			<path d="M77.24,89.26h869.52v934.74h-869.52z"/>
		</clipPath>
		<filter id="filter-Hz5kyDEM" x="-14%" y="-6%" width="153%" height="143%" color-interpolation-filters="sRGB">
			<feColorMatrix values="1 0 0 0 0 0 1 0 0 0 0 0 1 0 0 0 0 0 0.2 0" in="SourceGraphic"/>
			<feOffset dy="20"/>
			<feGaussianBlur stdDeviation="11" result="blur0"/>
			<feColorMatrix values="1 0 0 0 0 0 1 0 0 0 0 0 1 0 0 0 0 0 0.3 0" in="SourceGraphic"/>
			<feOffset dy="30"/>
			<feGaussianBlur stdDeviation="20" result="blur1"/>
			<feMerge>
				<feMergeNode in="blur0"/>
				<feMergeNode in="blur1"/>
			</feMerge>
		</filter>
	</defs>
	<g fill="none" fill-rule="nonzero" style="mix-blend-mode: normal">
		<g clip-path="url(#clip-lU4eDPRD)">
			<path d="M322.14,474.02h-75.95v-227.84h455.68v-113.92l151.9,151.9l-151.9,151.9v-113.92h-379.73zM701.86,549.98h75.95v227.84h-455.68v113.92l-151.9,-151.9l151.9,-151.9v113.92h379.73zM493.02,625.92v-151.9h-56.96v-37.97l75.94,-37.98h37.98v227.84z" fill="#000000" filter="url(#filter-Hz5kyDEM)"/>
		</g>
		<g>
			<g color="#039be5" class="teamapps-color-1">
				<path d="M322.14,474.02h-75.95v-227.84h455.68v-113.92l151.9,151.9l-151.9,151.9v-113.92h-379.73zM701.86,549.98h75.95v227.84h-455.68v113.92l-151.9,-151.9l151.9,-151.9v113.92h379.73zM493.02,625.92v-151.9h-56.96v-37.97l75.94,-37.98h37.98v227.84z" fill="currentColor"/>
			</g>
		</g>
	</g>
</svg>