<svg version="1.1" xmlns="http://www.w3.org/2000/svg" xmlns:xlink="http://www.w3.org/1999/xlink" viewBox="0,0,1024,1024">
	<!-- Color names: teamapps-color-1 -->
	<desc>replay icon - Licensed under Apache License v2.0 (http://www.apache.org/licenses/LICENSE-2.0) - Created with Iconfu.com - Derivative work of Material icons (Copyright Google Inc.)</desc>
	<defs>
		<filter id="filter-4U20XSeC" x="-16%" y="-6%" width="166%" height="138%" color-interpolation-filters="sRGB">
			<feColorMatrix values="1 0 0 0 0 0 1 0 0 0 0 0 1 0 0 0 0 0 0.2 0" in="SourceGraphic"/>
			<feOffset dy="20"/>
			<feGaussianBlur stdDeviation="11" result="blur0"/>
			<feColorMatrix values="1 0 0 0 0 0 1 0 0 0 0 0 1 0 0 0 0 0 0.3 0" in="SourceGraphic"/>
			<feOffset dy="30"/>
			<feGaussianBlur stdDeviation="20" result="blur1"/>
			<feMerge>
				<feMergeNode in="blur0"/>
				<feMergeNode in="blur1"/>
			</feMerge>
		</filter>
	</defs>
	<g fill="none" fill-rule="nonzero" style="mix-blend-mode: normal">
		<path d="M815.78,549.98c0,167.85 -135.94,303.78 -303.78,303.78c-167.85,0 -303.78,-135.94 -303.78,-303.78h75.94c0,125.69 102.15,227.84 227.84,227.84c125.69,0 227.84,-102.15 227.84,-227.84c0,-125.69 -102.15,-227.84 -227.84,-227.84v151.89l-189.86,-189.86l189.86,-189.86v151.89c167.85,0 303.78,135.95 303.78,303.79z" fill="#000000" filter="url(#filter-4U20XSeC)"/>
		<g>
			<g color="#039be5" class="teamapps-color-1">
				<path d="M815.78,549.98c0,167.85 -135.94,303.78 -303.78,303.78c-167.85,0 -303.78,-135.94 -303.78,-303.78h75.94c0,125.69 102.15,227.84 227.84,227.84c125.69,0 227.84,-102.15 227.84,-227.84c0,-125.69 -102.15,-227.84 -227.84,-227.84v151.89l-189.86,-189.86l189.86,-189.86v151.89c167.85,0 303.78,135.95 303.78,303.79z" fill="currentColor"/>
			</g>
		</g>
	</g>
</svg>