<svg version="1.1" xmlns="http://www.w3.org/2000/svg" xmlns:xlink="http://www.w3.org/1999/xlink" viewBox="0,0,1024,1024">
	<!-- Color names: teamapps-color-1 -->
	<desc>restore_page icon - Licensed under Apache License v2.0 (http://www.apache.org/licenses/LICENSE-2.0) - Created with Iconfu.com - Derivative work of Material icons (Copyright Google Inc.)</desc>
	<defs>
		<clipPath id="clip-fjI6u9yX">
			<path d="M115.22,89.26h793.57v934.74h-793.57z"/>
		</clipPath>
		<filter id="filter-GYS12H0D" x="-16%" y="-6%" width="166%" height="143%" color-interpolation-filters="sRGB">
			<feColorMatrix values="1 0 0 0 0 0 1 0 0 0 0 0 1 0 0 0 0 0 0.2 0" in="SourceGraphic"/>
			<feOffset dy="20"/>
			<feGaussianBlur stdDeviation="11" result="blur0"/>
			<feColorMatrix values="1 0 0 0 0 0 1 0 0 0 0 0 1 0 0 0 0 0 0.3 0" in="SourceGraphic"/>
			<feOffset dy="30"/>
			<feGaussianBlur stdDeviation="20" result="blur1"/>
			<feMerge>
				<feMergeNode in="blur0"/>
				<feMergeNode in="blur1"/>
			</feMerge>
		</filter>
	</defs>
	<g fill="none" fill-rule="nonzero" style="mix-blend-mode: normal">
		<g clip-path="url(#clip-fjI6u9yX)">
			<path d="M815.78,360.1v455.68c0,41.77 -34.18,75.95 -75.94,75.95h-456.06c-41.77,0 -75.56,-34.18 -75.56,-75.95l0.37,-607.57c0,-41.77 33.8,-75.95 75.57,-75.95h303.78zM701.86,549.98c0,-104.81 -85.06,-189.87 -189.86,-189.87c-67.21,0 -125.69,34.94 -159.49,87.34l-49.37,-49.37v151.9h151.9l-60.76,-60.76c22.03,-42.53 66.46,-72.15 117.72,-72.15c73.29,0 132.9,59.62 132.9,132.91c0,73.29 -59.61,132.9 -132.9,132.9c-45.19,0 -85.06,-22.78 -108.98,-56.96h-64.93c29.24,66.83 96.07,113.92 173.91,113.92c104.81,0 189.86,-85.06 189.86,-189.86z" fill="#000000" filter="url(#filter-GYS12H0D)"/>
		</g>
		<g>
			<g color="#039be5" class="teamapps-color-1">
				<path d="M815.78,360.1v455.68c0,41.77 -34.18,75.95 -75.94,75.95h-456.06c-41.77,0 -75.56,-34.18 -75.56,-75.95l0.37,-607.57c0,-41.77 33.8,-75.95 75.57,-75.95h303.78zM701.86,549.98c0,-104.81 -85.06,-189.87 -189.86,-189.87c-67.21,0 -125.69,34.94 -159.49,87.34l-49.37,-49.37v151.9h151.9l-60.76,-60.76c22.03,-42.53 66.46,-72.15 117.72,-72.15c73.29,0 132.9,59.62 132.9,132.91c0,73.29 -59.61,132.9 -132.9,132.9c-45.19,0 -85.06,-22.78 -108.98,-56.96h-64.93c29.24,66.83 96.07,113.92 173.91,113.92c104.81,0 189.86,-85.06 189.86,-189.86z" fill="currentColor"/>
			</g>
		</g>
	</g>
</svg>