<svg version="1.1" xmlns="http://www.w3.org/2000/svg" xmlns:xlink="http://www.w3.org/1999/xlink" viewBox="0,0,1024,1024">
	<!-- Color names: teamapps-color-1 -->
	<desc>settings_cell icon - Licensed under Apache License v2.0 (http://www.apache.org/licenses/LICENSE-2.0) - Created with Iconfu.com - Derivative work of Material icons (Copyright Google Inc.)</desc>
	<defs>
		<clipPath id="clip-vN3DRSKl">
			<path d="M191.16,13.32h641.68v1010.68h-641.68z"/>
		</clipPath>
		<filter id="filter-ZbOpB2R4" x="-21%" y="-5%" width="204%" height="127%" color-interpolation-filters="sRGB">
			<feColorMatrix values="1 0 0 0 0 0 1 0 0 0 0 0 1 0 0 0 0 0 0.2 0" in="SourceGraphic"/>
			<feOffset dy="20"/>
			<feGaussianBlur stdDeviation="11" result="blur0"/>
			<feColorMatrix values="1 0 0 0 0 0 1 0 0 0 0 0 1 0 0 0 0 0 0.3 0" in="SourceGraphic"/>
			<feOffset dy="30"/>
			<feGaussianBlur stdDeviation="20" result="blur1"/>
			<feMerge>
				<feMergeNode in="blur0"/>
				<feMergeNode in="blur1"/>
			</feMerge>
		</filter>
	</defs>
	<g fill="none" fill-rule="nonzero" style="mix-blend-mode: normal">
		<g clip-path="url(#clip-vN3DRSKl)">
			<path d="M739.84,132.26v607.58c0,41.77 -34.18,75.94 -75.94,75.94h-303.79c-41.77,0 -75.94,-34.18 -75.94,-75.94v-607.58c0,-41.77 34.18,-75.94 75.94,-75.94l303.79,0.38c41.77,0 75.94,33.79 75.94,75.56zM663.9,208.22h-303.79v455.68h303.79zM322.14,891.74h75.94v75.94h-75.94zM474.02,891.74h75.95v75.94h-75.95zM625.92,891.74h75.94v75.94h-75.94z" fill="#000000" filter="url(#filter-ZbOpB2R4)"/>
		</g>
		<g>
			<g color="#039be5" class="teamapps-color-1">
				<path d="M739.84,132.26v607.58c0,41.77 -34.18,75.94 -75.94,75.94h-303.79c-41.77,0 -75.94,-34.18 -75.94,-75.94v-607.58c0,-41.77 34.18,-75.94 75.94,-75.94l303.79,0.38c41.77,0 75.94,33.79 75.94,75.56zM663.9,208.22h-303.79v455.68h303.79zM322.14,891.74h75.94v75.94h-75.94zM474.02,891.74h75.95v75.94h-75.95zM625.92,891.74h75.94v75.94h-75.94z" fill="currentColor"/>
			</g>
		</g>
	</g>
</svg>