<svg version="1.1" xmlns="http://www.w3.org/2000/svg" xmlns:xlink="http://www.w3.org/1999/xlink" viewBox="0,0,1024,1024">
	<!-- Color names: teamapps-color-1 -->
	<desc>settings_voice icon - Licensed under Apache License v2.0 (http://www.apache.org/licenses/LICENSE-2.0) - Created with Iconfu.com - Derivative work of Material icons (Copyright Google Inc.)</desc>
	<defs>
		<clipPath id="clip-IFWBIXsl">
			<path d="M153.18,51.3h717.63v972.7h-717.63z"/>
		</clipPath>
		<filter id="filter-xWuSIzEp" x="-18%" y="-5%" width="182%" height="133%" color-interpolation-filters="sRGB">
			<feColorMatrix values="1 0 0 0 0 0 1 0 0 0 0 0 1 0 0 0 0 0 0.2 0" in="SourceGraphic"/>
			<feOffset dy="20"/>
			<feGaussianBlur stdDeviation="11" result="blur0"/>
			<feColorMatrix values="1 0 0 0 0 0 1 0 0 0 0 0 1 0 0 0 0 0 0.3 0" in="SourceGraphic"/>
			<feOffset dy="30"/>
			<feGaussianBlur stdDeviation="20" result="blur1"/>
			<feMerge>
				<feMergeNode in="blur0"/>
				<feMergeNode in="blur1"/>
			</feMerge>
		</filter>
	</defs>
	<g fill="none" fill-rule="nonzero" style="mix-blend-mode: normal">
		<g clip-path="url(#clip-IFWBIXsl)">
			<path d="M549.98,691.24v124.55h-75.95v-124.55c-124.56,-18.61 -227.84,-125.69 -227.84,-255.18h64.56c0,113.92 96.45,193.66 201.26,193.66c104.81,0 201.26,-79.74 201.26,-193.66h64.56c0,129.49 -103.28,236.57 -227.84,255.18zM398.08,436.06v-227.84c0,-63.04 50.88,-113.92 113.92,-113.92c63.04,0 113.92,50.88 113.92,113.92l-0.38,227.84c0,63.04 -50.5,113.92 -113.54,113.92c-63.04,0 -113.92,-50.88 -113.92,-113.92zM322.14,891.74h75.94v75.94h-75.94zM474.02,891.74h75.95v75.94h-75.95zM625.92,891.74h75.94v75.94h-75.94z" fill="#000000" filter="url(#filter-xWuSIzEp)"/>
		</g>
		<g>
			<g color="#039be5" class="teamapps-color-1">
				<path d="M549.98,691.24v124.55h-75.95v-124.55c-124.56,-18.61 -227.84,-125.69 -227.84,-255.18h64.56c0,113.92 96.45,193.66 201.26,193.66c104.81,0 201.26,-79.74 201.26,-193.66h64.56c0,129.49 -103.28,236.57 -227.84,255.18zM398.08,436.06v-227.84c0,-63.04 50.88,-113.92 113.92,-113.92c63.04,0 113.92,50.88 113.92,113.92l-0.38,227.84c0,63.04 -50.5,113.92 -113.54,113.92c-63.04,0 -113.92,-50.88 -113.92,-113.92zM322.14,891.74h75.94v75.94h-75.94zM474.02,891.74h75.95v75.94h-75.95zM625.92,891.74h75.94v75.94h-75.94z" fill="currentColor"/>
			</g>
		</g>
	</g>
</svg>