<svg version="1.1" xmlns="http://www.w3.org/2000/svg" xmlns:xlink="http://www.w3.org/1999/xlink" viewBox="0,0,1024,1024">
	<!-- Color names: teamapps-color-1 -->
	<desc>signal_cellular_no_sim icon - Licensed under Apache License v2.0 (http://www.apache.org/licenses/LICENSE-2.0) - Created with Iconfu.com - Derivative work of Material icons (Copyright Google Inc.)</desc>
	<defs>
		<clipPath id="clip-r0Gec6zx">
			<path d="M53.7,127.24h897.62v896.76h-897.62z"/>
		</clipPath>
		<filter id="filter-Cq6qWpgj" x="-14%" y="-6%" width="148%" height="149%" color-interpolation-filters="sRGB">
			<feColorMatrix values="1 0 0 0 0 0 1 0 0 0 0 0 1 0 0 0 0 0 0.2 0" in="SourceGraphic"/>
			<feOffset dy="20"/>
			<feGaussianBlur stdDeviation="11" result="blur0"/>
			<feColorMatrix values="1 0 0 0 0 0 1 0 0 0 0 0 1 0 0 0 0 0 0.3 0" in="SourceGraphic"/>
			<feOffset dy="30"/>
			<feGaussianBlur stdDeviation="20" result="blur1"/>
			<feMerge>
				<feMergeNode in="blur0"/>
				<feMergeNode in="blur1"/>
			</feMerge>
		</filter>
	</defs>
	<g fill="none" fill-rule="nonzero" style="mix-blend-mode: normal">
		<g clip-path="url(#clip-r0Gec6zx)">
			<path d="M858.32,867.05l-48.23,48.23l-71.39,-71.39c-11.01,6.08 -23.17,9.87 -36.45,9.87h-380.11c-41.77,0 -75.95,-34.18 -75.95,-75.94v-426.44l-99.48,-99.49l48.22,-48.22zM777.82,689.72l-430.62,-430.62l88.86,-88.86h265.81c41.77,0 75.57,34.18 75.57,75.94z" fill="#000000" filter="url(#filter-Cq6qWpgj)"/>
		</g>
		<g>
			<g color="#039be5" class="teamapps-color-1">
				<path d="M858.32,867.05l-48.23,48.23l-71.39,-71.39c-11.01,6.08 -23.17,9.87 -36.45,9.87h-380.11c-41.77,0 -75.95,-34.18 -75.95,-75.94v-426.44l-99.48,-99.49l48.22,-48.22zM777.82,689.72l-430.62,-430.62l88.86,-88.86h265.81c41.77,0 75.57,34.18 75.57,75.94z" fill="currentColor"/>
			</g>
		</g>
	</g>
</svg>