<svg version="1.1" xmlns="http://www.w3.org/2000/svg" xmlns:xlink="http://www.w3.org/1999/xlink" viewBox="0,0,1024,1024">
	<!-- Color names: teamapps-color-1 -->
	<desc>sim_card icon - Licensed under Apache License v2.0 (http://www.apache.org/licenses/LICENSE-2.0) - Created with Iconfu.com - Derivative work of Material icons (Copyright Google Inc.)</desc>
	<defs>
		<clipPath id="clip-CTOiWWIe">
			<path d="M115.22,89.26h793.57v934.74h-793.57z"/>
		</clipPath>
		<filter id="filter-2Ai306Se" x="-16%" y="-6%" width="166%" height="143%" color-interpolation-filters="sRGB">
			<feColorMatrix values="1 0 0 0 0 0 1 0 0 0 0 0 1 0 0 0 0 0 0.2 0" in="SourceGraphic"/>
			<feOffset dy="20"/>
			<feGaussianBlur stdDeviation="11" result="blur0"/>
			<feColorMatrix values="1 0 0 0 0 0 1 0 0 0 0 0 1 0 0 0 0 0 0.3 0" in="SourceGraphic"/>
			<feOffset dy="30"/>
			<feGaussianBlur stdDeviation="20" result="blur1"/>
			<feMerge>
				<feMergeNode in="blur0"/>
				<feMergeNode in="blur1"/>
			</feMerge>
		</filter>
	</defs>
	<g fill="none" fill-rule="nonzero" style="mix-blend-mode: normal">
		<g clip-path="url(#clip-CTOiWWIe)">
			<path d="M815.78,815.78c0,41.77 -33.79,75.95 -75.56,75.95h-456.06c-41.77,0 -75.94,-34.18 -75.94,-75.95v-455.68l227.84,-227.84h303.78c41.77,0 75.57,34.18 75.57,75.95zM398.08,474.02h-75.94v151.9h75.94zM549.98,625.92h-75.95v151.9h75.95zM701.86,474.02h-75.94v151.9h75.94zM398.08,701.86h-75.94v75.95h75.94zM701.86,701.86h-75.94v75.95h75.94zM549.98,474.02h-75.95v75.95h75.95z" fill="#000000" filter="url(#filter-2Ai306Se)"/>
		</g>
		<g>
			<g color="#039be5" class="teamapps-color-1">
				<path d="M815.78,815.78c0,41.77 -33.79,75.95 -75.56,75.95h-456.06c-41.77,0 -75.94,-34.18 -75.94,-75.95v-455.68l227.84,-227.84h303.78c41.77,0 75.57,34.18 75.57,75.95zM398.08,474.02h-75.94v151.9h75.94zM549.98,625.92h-75.95v151.9h75.95zM701.86,474.02h-75.94v151.9h75.94zM398.08,701.86h-75.94v75.95h75.94zM701.86,701.86h-75.94v75.95h75.94zM549.98,474.02h-75.95v75.95h75.95z" fill="currentColor"/>
			</g>
		</g>
	</g>
</svg>