<svg version="1.1" xmlns="http://www.w3.org/2000/svg" xmlns:xlink="http://www.w3.org/1999/xlink" viewBox="0,0,1024,1024">
	<!-- Color names: teamapps-color-1 -->
	<desc>snooze icon - Licensed under Apache License v2.0 (http://www.apache.org/licenses/LICENSE-2.0) - Created with Iconfu.com - Derivative work of Material icons (Copyright Google Inc.)</desc>
	<defs>
		<clipPath id="clip-0hOQdbF5">
			<path d="M39.26,83.95h945.47v940.05h-945.47z"/>
		</clipPath>
		<filter id="filter-UUI8eTUi" x="-13%" y="-6%" width="143%" height="142%" color-interpolation-filters="sRGB">
			<feColorMatrix values="1 0 0 0 0 0 1 0 0 0 0 0 1 0 0 0 0 0 0.2 0" in="SourceGraphic"/>
			<feOffset dy="20"/>
			<feGaussianBlur stdDeviation="11" result="blur0"/>
			<feColorMatrix values="1 0 0 0 0 0 1 0 0 0 0 0 1 0 0 0 0 0 0.3 0" in="SourceGraphic"/>
			<feOffset dy="30"/>
			<feGaussianBlur stdDeviation="20" result="blur1"/>
			<feMerge>
				<feMergeNode in="blur0"/>
				<feMergeNode in="blur1"/>
			</feMerge>
		</filter>
	</defs>
	<g fill="none" fill-rule="nonzero" style="mix-blend-mode: normal">
		<g clip-path="url(#clip-0hOQdbF5)">
			<path d="M853.76,549.98c0,188.72 -153.04,341.76 -341.76,341.76c-189.11,0 -341.76,-153.04 -341.76,-341.76c0,-188.72 153.04,-341.76 341.76,-341.76c188.72,0 341.76,153.04 341.76,341.76zM777.82,549.98c0,-146.96 -118.86,-265.82 -265.82,-265.82c-146.96,0 -265.82,118.86 -265.82,265.82c0,146.96 118.86,265.81 265.82,265.81c146.96,0 265.82,-118.85 265.82,-265.81zM398.08,398.08h227.84v68.35l-137.84,159.49h137.84v75.94h-227.84v-68.35l137.84,-159.49h-137.84zM842.75,331.62l-174.68,-146.57l48.99,-58.1l174.68,146.57zM181.25,331.25l-48.99,-58.1l174.68,-146.2l48.6,58.1z" fill="#000000" filter="url(#filter-UUI8eTUi)"/>
		</g>
		<g>
			<g color="#039be5" class="teamapps-color-1">
				<path d="M853.76,549.98c0,188.72 -153.04,341.76 -341.76,341.76c-189.11,0 -341.76,-153.04 -341.76,-341.76c0,-188.72 153.04,-341.76 341.76,-341.76c188.72,0 341.76,153.04 341.76,341.76zM777.82,549.98c0,-146.96 -118.86,-265.82 -265.82,-265.82c-146.96,0 -265.82,118.86 -265.82,265.82c0,146.96 118.86,265.81 265.82,265.81c146.96,0 265.82,-118.85 265.82,-265.81zM398.08,398.08h227.84v68.35l-137.84,159.49h137.84v75.94h-227.84v-68.35l137.84,-159.49h-137.84zM842.75,331.62l-174.68,-146.57l48.99,-58.1l174.68,146.57zM181.25,331.25l-48.99,-58.1l174.68,-146.2l48.6,58.1z" fill="currentColor"/>
			</g>
		</g>
	</g>
</svg>