<svg version="1.1" xmlns="http://www.w3.org/2000/svg" xmlns:xlink="http://www.w3.org/1999/xlink" viewBox="0,0,1024,1024">
	<!-- Color names: teamapps-color-1 -->
	<desc>surround_sound icon - Licensed under Apache License v2.0 (http://www.apache.org/licenses/LICENSE-2.0) - Created with Iconfu.com - Derivative work of Material icons (Copyright Google Inc.)</desc>
	<defs>
		<filter id="filter-pk7clZw8" x="-13%" y="-8%" width="143%" height="166%" color-interpolation-filters="sRGB">
			<feColorMatrix values="1 0 0 0 0 0 1 0 0 0 0 0 1 0 0 0 0 0 0.2 0" in="SourceGraphic"/>
			<feOffset dy="20"/>
			<feGaussianBlur stdDeviation="11" result="blur0"/>
			<feColorMatrix values="1 0 0 0 0 0 1 0 0 0 0 0 1 0 0 0 0 0 0.3 0" in="SourceGraphic"/>
			<feOffset dy="30"/>
			<feGaussianBlur stdDeviation="20" result="blur1"/>
			<feMerge>
				<feMergeNode in="blur0"/>
				<feMergeNode in="blur1"/>
			</feMerge>
		</filter>
	</defs>
	<g fill="none" fill-rule="nonzero" style="mix-blend-mode: normal">
		<path d="M891.74,284.16v455.68c0,41.77 -34.18,75.94 -75.95,75.94h-607.57c-41.77,0 -75.95,-34.18 -75.95,-75.94v-455.68c0,-41.77 34.18,-75.94 75.95,-75.94h607.57c41.77,0 75.95,34.18 75.95,75.94zM663.9,512c0,-83.92 -67.98,-151.9 -151.9,-151.9c-83.92,0 -151.9,67.98 -151.9,151.9c0,83.92 67.98,151.9 151.9,151.9c83.92,0 151.9,-67.98 151.9,-151.9zM815.78,512c0,-77.85 -29.61,-155.7 -89.23,-214.55l-53.54,53.54c44.43,44.43 66.83,102.53 66.83,161.01c0,58.48 -22.41,116.57 -66.46,161.38l53.54,53.54c59.24,-59.24 88.86,-137.08 88.86,-214.93zM284.16,512c0,-58.48 22.41,-116.57 66.46,-161.38l-53.54,-53.54c-59.24,59.24 -88.86,137.08 -88.86,214.93c0,77.85 29.61,155.7 89.23,214.55l53.54,-53.54c-44.43,-44.43 -66.83,-102.53 -66.83,-161.01zM587.94,512c0,41.77 -34.18,75.94 -75.94,75.94c-41.77,0 -75.94,-34.18 -75.94,-75.94c0,-41.77 34.18,-75.94 75.94,-75.94c41.77,0 75.94,34.18 75.94,75.94z" fill="#000000" filter="url(#filter-pk7clZw8)"/>
		<g>
			<g color="#039be5" class="teamapps-color-1">
				<path d="M891.74,284.16v455.68c0,41.77 -34.18,75.94 -75.95,75.94h-607.57c-41.77,0 -75.95,-34.18 -75.95,-75.94v-455.68c0,-41.77 34.18,-75.94 75.95,-75.94h607.57c41.77,0 75.95,34.18 75.95,75.94zM663.9,512c0,-83.92 -67.98,-151.9 -151.9,-151.9c-83.92,0 -151.9,67.98 -151.9,151.9c0,83.92 67.98,151.9 151.9,151.9c83.92,0 151.9,-67.98 151.9,-151.9zM815.78,512c0,-77.85 -29.61,-155.7 -89.23,-214.55l-53.54,53.54c44.43,44.43 66.83,102.53 66.83,161.01c0,58.48 -22.41,116.57 -66.46,161.38l53.54,53.54c59.24,-59.24 88.86,-137.08 88.86,-214.93zM284.16,512c0,-58.48 22.41,-116.57 66.46,-161.38l-53.54,-53.54c-59.24,59.24 -88.86,137.08 -88.86,214.93c0,77.85 29.61,155.7 89.23,214.55l53.54,-53.54c-44.43,-44.43 -66.83,-102.53 -66.83,-161.01zM587.94,512c0,41.77 -34.18,75.94 -75.94,75.94c-41.77,0 -75.94,-34.18 -75.94,-75.94c0,-41.77 34.18,-75.94 75.94,-75.94c41.77,0 75.94,34.18 75.94,75.94z" fill="currentColor"/>
			</g>
		</g>
	</g>
</svg>