<svg version="1.1" xmlns="http://www.w3.org/2000/svg" xmlns:xlink="http://www.w3.org/1999/xlink" viewBox="0,0,1024,1024">
	<!-- Color names: teamapps-color-1 -->
	<desc>swap_calls icon - Licensed under Apache License v2.0 (http://www.apache.org/licenses/LICENSE-2.0) - Created with Iconfu.com - Derivative work of Material icons (Copyright Google Inc.)</desc>
	<defs>
		<filter id="filter-7k3mOVKf" x="-13%" y="-8%" width="143%" height="170%" color-interpolation-filters="sRGB">
			<feColorMatrix values="1 0 0 0 0 0 1 0 0 0 0 0 1 0 0 0 0 0 0.2 0" in="SourceGraphic"/>
			<feOffset dy="20"/>
			<feGaussianBlur stdDeviation="11" result="blur0"/>
			<feColorMatrix values="1 0 0 0 0 0 1 0 0 0 0 0 1 0 0 0 0 0 0.3 0" in="SourceGraphic"/>
			<feOffset dy="30"/>
			<feGaussianBlur stdDeviation="20" result="blur1"/>
			<feMerge>
				<feMergeNode in="blur0"/>
				<feMergeNode in="blur1"/>
			</feMerge>
		</filter>
	</defs>
	<g fill="none" fill-rule="nonzero" style="mix-blend-mode: normal">
		<path d="M891.74,360.1h-113.92v265.82c0,83.92 -67.98,151.9 -151.9,151.9c-83.92,0 -151.9,-67.98 -151.9,-151.9v-265.82c0,-41.77 -34.18,-75.94 -75.94,-75.94c-41.77,0 -75.94,34.18 -75.94,75.94v265.82h113.92l-151.9,151.9l-151.9,-151.9h113.92v-265.82c0,-83.92 67.98,-151.89 151.9,-151.89c83.92,0 151.9,67.97 151.9,151.89v265.82c0,41.77 34.18,75.94 75.94,75.94c41.77,0 75.94,-34.18 75.94,-75.94v-265.82h-113.92l151.9,-151.89z" fill="#000000" filter="url(#filter-7k3mOVKf)"/>
		<g>
			<g color="#039be5" class="teamapps-color-1">
				<path d="M891.74,360.1h-113.92v265.82c0,83.92 -67.98,151.9 -151.9,151.9c-83.92,0 -151.9,-67.98 -151.9,-151.9v-265.82c0,-41.77 -34.18,-75.94 -75.94,-75.94c-41.77,0 -75.94,34.18 -75.94,75.94v265.82h113.92l-151.9,151.9l-151.9,-151.9h113.92v-265.82c0,-83.92 67.98,-151.89 151.9,-151.89c83.92,0 151.9,67.97 151.9,151.89v265.82c0,41.77 34.18,75.94 75.94,75.94c41.77,0 75.94,-34.18 75.94,-75.94v-265.82h-113.92l151.9,-151.89z" fill="currentColor"/>
			</g>
		</g>
	</g>
</svg>