<svg version="1.1" xmlns="http://www.w3.org/2000/svg" xmlns:xlink="http://www.w3.org/1999/xlink" viewBox="0,0,1024,1024">
	<!-- Color names: teamapps-color-1 -->
	<desc>switch_video icon - Licensed under Apache License v2.0 (http://www.apache.org/licenses/LICENSE-2.0) - Created with Iconfu.com - Derivative work of Material icons (Copyright Google Inc.)</desc>
	<defs>
		<filter id="filter-uOLXWD4L" x="-13%" y="-9%" width="143%" height="183%" color-interpolation-filters="sRGB">
			<feColorMatrix values="1 0 0 0 0 0 1 0 0 0 0 0 1 0 0 0 0 0 0.2 0" in="SourceGraphic"/>
			<feOffset dy="20"/>
			<feGaussianBlur stdDeviation="11" result="blur0"/>
			<feColorMatrix values="1 0 0 0 0 0 1 0 0 0 0 0 1 0 0 0 0 0 0.3 0" in="SourceGraphic"/>
			<feOffset dy="30"/>
			<feGaussianBlur stdDeviation="20" result="blur1"/>
			<feMerge>
				<feMergeNode in="blur0"/>
				<feMergeNode in="blur1"/>
			</feMerge>
		</filter>
	</defs>
	<g fill="none" fill-rule="nonzero" style="mix-blend-mode: normal">
		<path d="M891.74,265.18v493.65l-151.9,-151.89v132.9c0,20.89 -17.09,37.98 -37.98,37.98h-531.62c-20.89,0 -37.98,-17.09 -37.98,-37.98v-455.68c0,-20.89 17.09,-37.98 37.98,-37.98h531.62c20.89,0 37.98,17.09 37.98,37.98v132.9zM682.88,512l-132.9,-132.9v94.93h-227.84v-94.93l-132.91,132.9l132.91,132.9v-94.93h227.84v94.93z" fill="#000000" filter="url(#filter-uOLXWD4L)"/>
		<g>
			<g color="#039be5" class="teamapps-color-1">
				<path d="M891.74,265.18v493.65l-151.9,-151.89v132.9c0,20.89 -17.09,37.98 -37.98,37.98h-531.62c-20.89,0 -37.98,-17.09 -37.98,-37.98v-455.68c0,-20.89 17.09,-37.98 37.98,-37.98h531.62c20.89,0 37.98,17.09 37.98,37.98v132.9zM682.88,512l-132.9,-132.9v94.93h-227.84v-94.93l-132.91,132.9l132.91,132.9v-94.93h227.84v94.93z" fill="currentColor"/>
			</g>
		</g>
	</g>
</svg>