<svg version="1.1" xmlns="http://www.w3.org/2000/svg" xmlns:xlink="http://www.w3.org/1999/xlink" viewBox="0,0,1024,1024">
	<!-- Color names: teamapps-color-1 -->
	<desc>theaters icon - Licensed under Apache License v2.0 (http://www.apache.org/licenses/LICENSE-2.0) - Created with Iconfu.com - Derivative work of Material icons (Copyright Google Inc.)</desc>
	<defs>
		<filter id="filter-3V0Ott7Y" x="-16%" y="-7%" width="166%" height="153%" color-interpolation-filters="sRGB">
			<feColorMatrix values="1 0 0 0 0 0 1 0 0 0 0 0 1 0 0 0 0 0 0.2 0" in="SourceGraphic"/>
			<feOffset dy="20"/>
			<feGaussianBlur stdDeviation="11" result="blur0"/>
			<feColorMatrix values="1 0 0 0 0 0 1 0 0 0 0 0 1 0 0 0 0 0 0.3 0" in="SourceGraphic"/>
			<feOffset dy="30"/>
			<feGaussianBlur stdDeviation="20" result="blur1"/>
			<feMerge>
				<feMergeNode in="blur0"/>
				<feMergeNode in="blur1"/>
			</feMerge>
		</filter>
	</defs>
	<g fill="none" fill-rule="nonzero" style="mix-blend-mode: normal">
		<path d="M815.78,170.24v683.52h-75.94v-75.94h-75.94v75.94h-303.79v-75.94h-75.94v75.94h-75.94v-683.52h75.94v75.94h75.94v-75.94h303.79v75.94h75.94v-75.94zM739.84,322.14h-75.94v75.94h75.94zM360.1,322.14h-75.94v75.94h75.94zM739.84,474.02h-75.94v75.95h75.94zM360.1,474.02h-75.94v75.95h75.94zM739.84,625.92h-75.94v75.94h75.94zM360.1,625.92h-75.94v75.94h75.94z" fill="#000000" filter="url(#filter-3V0Ott7Y)"/>
		<g>
			<g color="#039be5" class="teamapps-color-1">
				<path d="M815.78,170.24v683.52h-75.94v-75.94h-75.94v75.94h-303.79v-75.94h-75.94v75.94h-75.94v-683.52h75.94v75.94h75.94v-75.94h303.79v75.94h75.94v-75.94zM739.84,322.14h-75.94v75.94h75.94zM360.1,322.14h-75.94v75.94h75.94zM739.84,474.02h-75.94v75.95h75.94zM360.1,474.02h-75.94v75.95h75.94zM739.84,625.92h-75.94v75.94h75.94zM360.1,625.92h-75.94v75.94h75.94z" fill="currentColor"/>
			</g>
		</g>
	</g>
</svg>