<svg version="1.1" xmlns="http://www.w3.org/2000/svg" xmlns:xlink="http://www.w3.org/1999/xlink" viewBox="0,0,1024,1024">
	<!-- Color names: teamapps-color-1 -->
	<desc>timer icon - Licensed under Apache License v2.0 (http://www.apache.org/licenses/LICENSE-2.0) - Created with Iconfu.com - Derivative work of Material icons (Copyright Google Inc.)</desc>
	<defs>
		<clipPath id="clip-MqX2DYBb">
			<path d="M77.24,51.3h869.52v972.7h-869.52z"/>
		</clipPath>
		<filter id="filter-lplk1Mw3" x="-14%" y="-6%" width="153%" height="136%" color-interpolation-filters="sRGB">
			<feColorMatrix values="1 0 0 0 0 0 1 0 0 0 0 0 1 0 0 0 0 0 0.2 0" in="SourceGraphic"/>
			<feOffset dy="20"/>
			<feGaussianBlur stdDeviation="11" result="blur0"/>
			<feColorMatrix values="1 0 0 0 0 0 1 0 0 0 0 0 1 0 0 0 0 0 0.3 0" in="SourceGraphic"/>
			<feOffset dy="30"/>
			<feGaussianBlur stdDeviation="20" result="blur1"/>
			<feMerge>
				<feMergeNode in="blur0"/>
				<feMergeNode in="blur1"/>
			</feMerge>
		</filter>
	</defs>
	<g fill="none" fill-rule="nonzero" style="mix-blend-mode: normal">
		<g clip-path="url(#clip-MqX2DYBb)">
			<path d="M853.76,549.98c0,188.72 -152.65,341.76 -341.76,341.76c-189.11,0 -341.76,-153.04 -341.76,-341.76c0,-188.72 153.04,-341.76 341.76,-341.76c80.5,0 154.56,28.1 213.41,75.19l53.92,-53.93c19.37,15.95 37.21,34.18 53.54,53.54l-53.92,53.93c46.71,58.48 74.8,132.53 74.8,213.03zM777.82,549.98c0,-146.96 -118.86,-265.82 -265.82,-265.82c-146.96,0 -265.82,118.86 -265.82,265.82c0,146.96 118.86,265.81 265.82,265.81c146.96,0 265.82,-118.85 265.82,-265.81zM625.92,170.24h-227.84v-75.94h227.84zM474.02,360.1h75.95v227.84h-75.95z" fill="#000000" filter="url(#filter-lplk1Mw3)"/>
		</g>
		<g>
			<g color="#039be5" class="teamapps-color-1">
				<path d="M853.76,549.98c0,188.72 -152.65,341.76 -341.76,341.76c-189.11,0 -341.76,-153.04 -341.76,-341.76c0,-188.72 153.04,-341.76 341.76,-341.76c80.5,0 154.56,28.1 213.41,75.19l53.92,-53.93c19.37,15.95 37.21,34.18 53.54,53.54l-53.92,53.93c46.71,58.48 74.8,132.53 74.8,213.03zM777.82,549.98c0,-146.96 -118.86,-265.82 -265.82,-265.82c-146.96,0 -265.82,118.86 -265.82,265.82c0,146.96 118.86,265.81 265.82,265.81c146.96,0 265.82,-118.85 265.82,-265.81zM625.92,170.24h-227.84v-75.94h227.84zM474.02,360.1h75.95v227.84h-75.95z" fill="currentColor"/>
			</g>
		</g>
	</g>
</svg>