<svg version="1.1" xmlns="http://www.w3.org/2000/svg" xmlns:xlink="http://www.w3.org/1999/xlink" viewBox="0,0,1024,1024">
	<!-- Color names: teamapps-color-1 -->
	<desc>track_changes icon - Licensed under Apache License v2.0 (http://www.apache.org/licenses/LICENSE-2.0) - Created with Iconfu.com - Derivative work of Material icons (Copyright Google Inc.)</desc>
	<defs>
		<clipPath id="clip-fA4Ii3LF">
			<path d="M39.26,89.26h945.47v934.74h-945.47z"/>
		</clipPath>
		<filter id="filter-vISUpfTZ" x="-13%" y="-6%" width="143%" height="143%" color-interpolation-filters="sRGB">
			<feColorMatrix values="1 0 0 0 0 0 1 0 0 0 0 0 1 0 0 0 0 0 0.2 0" in="SourceGraphic"/>
			<feOffset dy="20"/>
			<feGaussianBlur stdDeviation="11" result="blur0"/>
			<feColorMatrix values="1 0 0 0 0 0 1 0 0 0 0 0 1 0 0 0 0 0 0.3 0" in="SourceGraphic"/>
			<feOffset dy="30"/>
			<feGaussianBlur stdDeviation="20" result="blur1"/>
			<feMerge>
				<feMergeNode in="blur0"/>
				<feMergeNode in="blur1"/>
			</feMerge>
		</filter>
	</defs>
	<g fill="none" fill-rule="nonzero" style="mix-blend-mode: normal">
		<g clip-path="url(#clip-fA4Ii3LF)">
			<path d="M891.74,512c0,209.61 -170.12,379.74 -379.74,379.74c-209.61,0 -379.74,-170.12 -379.74,-379.74c0,-209.61 170.12,-379.74 379.74,-379.74h37.98v314.42c22.78,12.91 37.97,37.22 37.97,65.32c0,41.77 -34.18,75.94 -75.94,75.94c-41.77,0 -75.94,-34.18 -75.94,-75.94c0,-28.1 15.18,-52.03 37.97,-65.32v-81.26c-65.32,17.09 -113.92,75.94 -113.92,146.57c0,83.92 67.98,151.9 151.9,151.9c83.92,0 151.9,-67.98 151.9,-151.9c0,-41.77 -17.09,-79.74 -44.43,-107.47l53.54,-53.54c41.39,41.01 66.83,97.97 66.83,161.01c0,125.69 -102.15,227.84 -227.84,227.84c-125.69,0 -227.84,-102.15 -227.84,-227.84c0,-112.78 82.02,-206.2 189.86,-224.42v-76.71c-149.99,18.61 -265.81,146.2 -265.81,301.13c0,167.85 135.94,303.78 303.78,303.78c167.85,0 303.78,-135.94 303.78,-303.78c0,-83.92 -34.18,-159.86 -88.86,-214.93l53.54,-53.54c68.73,68.73 111.27,163.66 111.27,268.47z" fill="#000000" filter="url(#filter-vISUpfTZ)"/>
		</g>
		<g>
			<g color="#039be5" class="teamapps-color-1">
				<path d="M891.74,512c0,209.61 -170.12,379.74 -379.74,379.74c-209.61,0 -379.74,-170.12 -379.74,-379.74c0,-209.61 170.12,-379.74 379.74,-379.74h37.98v314.42c22.78,12.91 37.97,37.22 37.97,65.32c0,41.77 -34.18,75.94 -75.94,75.94c-41.77,0 -75.94,-34.18 -75.94,-75.94c0,-28.1 15.18,-52.03 37.97,-65.32v-81.26c-65.32,17.09 -113.92,75.94 -113.92,146.57c0,83.92 67.98,151.9 151.9,151.9c83.92,0 151.9,-67.98 151.9,-151.9c0,-41.77 -17.09,-79.74 -44.43,-107.47l53.54,-53.54c41.39,41.01 66.83,97.97 66.83,161.01c0,125.69 -102.15,227.84 -227.84,227.84c-125.69,0 -227.84,-102.15 -227.84,-227.84c0,-112.78 82.02,-206.2 189.86,-224.42v-76.71c-149.99,18.61 -265.81,146.2 -265.81,301.13c0,167.85 135.94,303.78 303.78,303.78c167.85,0 303.78,-135.94 303.78,-303.78c0,-83.92 -34.18,-159.86 -88.86,-214.93l53.54,-53.54c68.73,68.73 111.27,163.66 111.27,268.47z" fill="currentColor"/>
			</g>
		</g>
	</g>
</svg>