<svg version="1.1" xmlns="http://www.w3.org/2000/svg" xmlns:xlink="http://www.w3.org/1999/xlink" viewBox="0,0,1024,1024">
	<!-- Color names: teamapps-color-1 -->
	<desc>train icon - Licensed under Apache License v2.0 (http://www.apache.org/licenses/LICENSE-2.0) - Created with Iconfu.com - Derivative work of Material icons (Copyright Google Inc.)</desc>
	<defs>
		<filter id="filter-1IocwUXg" x="-16%" y="-6%" width="166%" height="145%" color-interpolation-filters="sRGB">
			<feColorMatrix values="1 0 0 0 0 0 1 0 0 0 0 0 1 0 0 0 0 0 0.2 0" in="SourceGraphic"/>
			<feOffset dy="20"/>
			<feGaussianBlur stdDeviation="11" result="blur0"/>
			<feColorMatrix values="1 0 0 0 0 0 1 0 0 0 0 0 1 0 0 0 0 0 0.3 0" in="SourceGraphic"/>
			<feOffset dy="30"/>
			<feGaussianBlur stdDeviation="20" result="blur1"/>
			<feMerge>
				<feMergeNode in="blur0"/>
				<feMergeNode in="blur1"/>
			</feMerge>
		</filter>
	</defs>
	<g fill="none" fill-rule="nonzero" style="mix-blend-mode: normal">
		<path d="M815.78,284.16v360.74c0,73.29 -59.61,132.91 -132.9,132.91l56.96,56.96v18.98h-75.94l-75.95,-75.94h-143.16l-75.94,75.94h-84.68v-18.98l56.96,-56.96c-73.29,0 -132.9,-59.62 -132.9,-132.91v-360.74c0,-132.9 151.89,-151.9 303.78,-151.9c167.85,0 303.78,18.99 303.78,151.9zM739.84,436.06v-151.9h-189.86v151.9zM474.02,284.16h-189.86v151.9h189.86zM398.08,644.9c0,-31.51 -25.45,-56.96 -56.96,-56.96c-31.51,0 -56.96,25.45 -56.96,56.96c0,31.51 25.45,56.96 56.96,56.96c31.51,0 56.96,-25.45 56.96,-56.96zM739.84,644.9c0,-31.51 -25.45,-56.96 -56.96,-56.96c-31.51,0 -56.96,25.45 -56.96,56.96c0,31.51 25.45,56.96 56.96,56.96c31.51,0 56.96,-25.45 56.96,-56.96z" fill="#000000" filter="url(#filter-1IocwUXg)"/>
		<g>
			<g color="#039be5" class="teamapps-color-1">
				<path d="M815.78,284.16v360.74c0,73.29 -59.61,132.91 -132.9,132.91l56.96,56.96v18.98h-75.94l-75.95,-75.94h-143.16l-75.94,75.94h-84.68v-18.98l56.96,-56.96c-73.29,0 -132.9,-59.62 -132.9,-132.91v-360.74c0,-132.9 151.89,-151.9 303.78,-151.9c167.85,0 303.78,18.99 303.78,151.9zM739.84,436.06v-151.9h-189.86v151.9zM474.02,284.16h-189.86v151.9h189.86zM398.08,644.9c0,-31.51 -25.45,-56.96 -56.96,-56.96c-31.51,0 -56.96,25.45 -56.96,56.96c0,31.51 25.45,56.96 56.96,56.96c31.51,0 56.96,-25.45 56.96,-56.96zM739.84,644.9c0,-31.51 -25.45,-56.96 -56.96,-56.96c-31.51,0 -56.96,25.45 -56.96,56.96c0,31.51 25.45,56.96 56.96,56.96c31.51,0 56.96,-25.45 56.96,-56.96z" fill="currentColor"/>
			</g>
		</g>
	</g>
</svg>