<svg version="1.1" xmlns="http://www.w3.org/2000/svg" xmlns:xlink="http://www.w3.org/1999/xlink" viewBox="0,0,1024,1024">
	<!-- Color names: teamapps-color-1 -->
	<desc>update icon - Licensed under Apache License v2.0 (http://www.apache.org/licenses/LICENSE-2.0) - Created with Iconfu.com - Derivative work of Material icons (Copyright Google Inc.)</desc>
	<defs>
		<filter id="filter-t00IiRG3" x="-14%" y="-7%" width="153%" height="153%" color-interpolation-filters="sRGB">
			<feColorMatrix values="1 0 0 0 0 0 1 0 0 0 0 0 1 0 0 0 0 0 0.2 0" in="SourceGraphic"/>
			<feOffset dy="20"/>
			<feGaussianBlur stdDeviation="11" result="blur0"/>
			<feColorMatrix values="1 0 0 0 0 0 1 0 0 0 0 0 1 0 0 0 0 0 0.3 0" in="SourceGraphic"/>
			<feOffset dy="30"/>
			<feGaussianBlur stdDeviation="20" result="blur1"/>
			<feMerge>
				<feMergeNode in="blur0"/>
				<feMergeNode in="blur1"/>
			</feMerge>
		</filter>
	</defs>
	<g fill="none" fill-rule="nonzero" style="mix-blend-mode: normal">
		<path d="M853.76,440.61h-257.46l104.05,-107.08c-103.67,-102.53 -271.51,-106.33 -375.18,-3.8c-103.67,102.91 -103.67,268.85 0,371.76c103.67,102.91 271.51,102.91 375.18,0c51.65,-50.88 77.47,-110.5 77.47,-185.69h75.94c0,75.19 -33.42,172.78 -100.25,238.85c-133.29,132.15 -349.73,132.15 -483.02,0c-132.9,-131.76 -134.04,-345.94 -0.76,-477.71c133.29,-131.76 347.07,-131.76 480.36,0l103.67,-106.7zM530.98,360.1v161.39l132.91,78.98l-27.34,45.95l-162.53,-96.45v-189.87z" fill="#000000" filter="url(#filter-t00IiRG3)"/>
		<g>
			<g color="#039be5" class="teamapps-color-1">
				<path d="M853.76,440.61h-257.46l104.05,-107.08c-103.67,-102.53 -271.51,-106.33 -375.18,-3.8c-103.67,102.91 -103.67,268.85 0,371.76c103.67,102.91 271.51,102.91 375.18,0c51.65,-50.88 77.47,-110.5 77.47,-185.69h75.94c0,75.19 -33.42,172.78 -100.25,238.85c-133.29,132.15 -349.73,132.15 -483.02,0c-132.9,-131.76 -134.04,-345.94 -0.76,-477.71c133.29,-131.76 347.07,-131.76 480.36,0l103.67,-106.7zM530.98,360.1v161.39l132.91,78.98l-27.34,45.95l-162.53,-96.45v-189.87z" fill="currentColor"/>
			</g>
		</g>
	</g>
</svg>