<svg version="1.1" xmlns="http://www.w3.org/2000/svg" xmlns:xlink="http://www.w3.org/1999/xlink" viewBox="0,0,1024,1024">
	<!-- Color names: teamapps-color-1 -->
	<desc>verified_user icon - Licensed under Apache License v2.0 (http://www.apache.org/licenses/LICENSE-2.0) - Created with Iconfu.com - Derivative work of Material icons (Copyright Google Inc.)</desc>
	<defs>
		<clipPath id="clip-uLnRwdvx">
			<path d="M77.24,51.3h869.52v972.7h-869.52z"/>
		</clipPath>
		<filter id="filter-45PvQb0f" x="-14%" y="-6%" width="153%" height="135%" color-interpolation-filters="sRGB">
			<feColorMatrix values="1 0 0 0 0 0 1 0 0 0 0 0 1 0 0 0 0 0 0.2 0" in="SourceGraphic"/>
			<feOffset dy="20"/>
			<feGaussianBlur stdDeviation="11" result="blur0"/>
			<feColorMatrix values="1 0 0 0 0 0 1 0 0 0 0 0 1 0 0 0 0 0 0.3 0" in="SourceGraphic"/>
			<feOffset dy="30"/>
			<feGaussianBlur stdDeviation="20" result="blur1"/>
			<feMerge>
				<feMergeNode in="blur0"/>
				<feMergeNode in="blur1"/>
			</feMerge>
		</filter>
	</defs>
	<g fill="none" fill-rule="nonzero" style="mix-blend-mode: normal">
		<g clip-path="url(#clip-uLnRwdvx)">
			<path d="M853.76,246.18v227.84c0,210.75 -145.82,407.83 -341.76,455.68c-195.94,-47.85 -341.76,-244.93 -341.76,-455.68v-227.84l341.76,-151.89zM739.84,398.08l-53.54,-53.93l-250.24,250.25l-98.35,-97.97l-53.54,53.54l151.9,151.89z" fill="#000000" filter="url(#filter-45PvQb0f)"/>
		</g>
		<g>
			<g color="#039be5" class="teamapps-color-1">
				<path d="M853.76,246.18v227.84c0,210.75 -145.82,407.83 -341.76,455.68c-195.94,-47.85 -341.76,-244.93 -341.76,-455.68v-227.84l341.76,-151.89zM739.84,398.08l-53.54,-53.93l-250.24,250.25l-98.35,-97.97l-53.54,53.54l151.9,151.89z" fill="currentColor"/>
			</g>
		</g>
	</g>
</svg>