<svg version="1.1" xmlns="http://www.w3.org/2000/svg" xmlns:xlink="http://www.w3.org/1999/xlink" viewBox="0,0,1024,1024">
	<!-- Color names: teamapps-color-1 -->
	<desc>view_agenda icon - Licensed under Apache License v2.0 (http://www.apache.org/licenses/LICENSE-2.0) - Created with Iconfu.com - Derivative work of Material icons (Copyright Google Inc.)</desc>
	<defs>
		<filter id="filter-ZCELDUU7" x="-13%" y="-7%" width="145%" height="153%" color-interpolation-filters="sRGB">
			<feColorMatrix values="1 0 0 0 0 0 1 0 0 0 0 0 1 0 0 0 0 0 0.2 0" in="SourceGraphic"/>
			<feOffset dy="20"/>
			<feGaussianBlur stdDeviation="11" result="blur0"/>
			<feColorMatrix values="1 0 0 0 0 0 1 0 0 0 0 0 1 0 0 0 0 0 0.3 0" in="SourceGraphic"/>
			<feOffset dy="30"/>
			<feGaussianBlur stdDeviation="20" result="blur1"/>
			<feMerge>
				<feMergeNode in="blur0"/>
				<feMergeNode in="blur1"/>
			</feMerge>
		</filter>
	</defs>
	<g fill="none" fill-rule="nonzero" style="mix-blend-mode: normal">
		<path d="M853.76,587.94v227.84c0,20.89 -17.09,37.98 -37.98,37.98h-645.54c-20.89,0 -37.98,-17.09 -37.98,-37.98v-227.84c0,-20.89 17.09,-37.97 37.98,-37.97h645.54c20.89,0 37.98,17.08 37.98,37.97zM853.76,208.22v227.84c0,20.89 -17.09,37.97 -37.98,37.97h-645.54c-20.89,0 -37.98,-17.08 -37.98,-37.97v-227.84c0,-20.89 17.09,-37.98 37.98,-37.98h645.54c20.89,0 37.98,17.09 37.98,37.98z" fill="#000000" filter="url(#filter-ZCELDUU7)"/>
		<g>
			<g color="#039be5" class="teamapps-color-1">
				<path d="M853.76,587.94v227.84c0,20.89 -17.09,37.98 -37.98,37.98h-645.54c-20.89,0 -37.98,-17.09 -37.98,-37.98v-227.84c0,-20.89 17.09,-37.97 37.98,-37.97h645.54c20.89,0 37.98,17.08 37.98,37.97zM853.76,208.22v227.84c0,20.89 -17.09,37.97 -37.98,37.97h-645.54c-20.89,0 -37.98,-17.08 -37.98,-37.97v-227.84c0,-20.89 17.09,-37.98 37.98,-37.98h645.54c20.89,0 37.98,17.09 37.98,37.98z" fill="currentColor"/>
			</g>
		</g>
	</g>
</svg>