<svg version="1.1" xmlns="http://www.w3.org/2000/svg" xmlns:xlink="http://www.w3.org/1999/xlink" viewBox="0,0,1024,1024">
	<!-- Color names: teamapps-color-1 -->
	<desc>visibility_off icon - Licensed under Apache License v2.0 (http://www.apache.org/licenses/LICENSE-2.0) - Created with Iconfu.com - Derivative work of Material icons (Copyright Google Inc.)</desc>
	<defs>
		<clipPath id="clip-D2WBLHmb">
			<path d="M1.3,127.24h1021.03v896.76h-1021.03z"/>
		</clipPath>
		<filter id="filter-qf5o6mW9" x="-12%" y="-6%" width="135%" height="150%" color-interpolation-filters="sRGB">
			<feColorMatrix values="1 0 0 0 0 0 1 0 0 0 0 0 1 0 0 0 0 0 0.2 0" in="SourceGraphic"/>
			<feOffset dy="20"/>
			<feGaussianBlur stdDeviation="11" result="blur0"/>
			<feColorMatrix values="1 0 0 0 0 0 1 0 0 0 0 0 1 0 0 0 0 0 0.3 0" in="SourceGraphic"/>
			<feOffset dy="30"/>
			<feGaussianBlur stdDeviation="20" result="blur1"/>
			<feMerge>
				<feMergeNode in="blur0"/>
				<feMergeNode in="blur1"/>
			</feMerge>
		</filter>
	</defs>
	<g fill="none" fill-rule="nonzero" style="mix-blend-mode: normal">
		<g clip-path="url(#clip-D2WBLHmb)">
			<path d="M180.49,170.24l673.27,673.27l-48.23,48.23l-111.26,-110.89l-15.95,-15.95c-51.26,20.51 -107.47,31.9 -166.32,31.9c-189.86,0 -352.01,-118.09 -417.7,-284.8c29.62,-75.19 78.98,-140.5 142.02,-189.49l-104.05,-104.04zM442.51,335.81l-82.02,-82.02c47.09,-17.09 97.97,-26.58 151.13,-26.58c189.86,0 352.02,118.09 417.71,284.8c-27.72,70.63 -72.91,132.53 -130.25,180.38l-110.89,-110.89c8.73,-21.64 13.67,-44.81 13.67,-69.49c0,-104.81 -85.06,-189.86 -189.86,-189.86c-24.68,0 -47.85,4.94 -69.49,13.67zM322.14,512c0,104.81 85.06,189.86 189.86,189.86c30,0 58.1,-7.59 83.54,-20.12l-58.86,-58.86c-7.97,1.9 -16.32,3.03 -24.68,3.03c-63.04,0 -113.92,-50.88 -113.92,-113.92c0,-8.36 1.14,-16.71 3.03,-24.68l-58.86,-58.86c-12.53,25.45 -20.12,53.54 -20.12,83.54zM512.38,398.46c63.04,0 113.92,50.88 113.92,113.92l-0.77,6.07l-119.62,-119.62z" fill="#000000" filter="url(#filter-qf5o6mW9)"/>
		</g>
		<g>
			<g color="#039be5" class="teamapps-color-1">
				<path d="M180.49,170.24l673.27,673.27l-48.23,48.23l-111.26,-110.89l-15.95,-15.95c-51.26,20.51 -107.47,31.9 -166.32,31.9c-189.86,0 -352.01,-118.09 -417.7,-284.8c29.62,-75.19 78.98,-140.5 142.02,-189.49l-17.47,-17.46l-86.58,-86.58zM442.51,335.81l-82.02,-82.02c47.09,-17.09 97.97,-26.58 151.13,-26.58c189.86,0 352.02,118.09 417.71,284.8c-27.72,70.63 -72.91,132.53 -130.25,180.38l-110.89,-110.89c8.73,-21.64 13.67,-44.81 13.67,-69.49c0,-104.81 -85.06,-189.86 -189.86,-189.86c-24.68,0 -47.85,4.94 -69.49,13.67zM322.14,512c0,104.81 85.06,189.86 189.86,189.86c30,0 58.1,-7.59 83.54,-20.12l-58.86,-58.86c-7.97,1.9 -16.32,3.03 -24.68,3.03c-63.04,0 -113.92,-50.88 -113.92,-113.92c0,-8.36 1.14,-16.71 3.03,-24.68l-58.86,-58.86c-12.53,25.45 -20.12,53.54 -20.12,83.54zM512.38,398.46c63.04,0 113.92,50.88 113.92,113.92l-0.77,6.07l-119.62,-119.62z" fill="currentColor"/>
			</g>
		</g>
	</g>
</svg>