<svg version="1.1" xmlns="http://www.w3.org/2000/svg" xmlns:xlink="http://www.w3.org/1999/xlink" viewBox="0,0,1024,1024">
	<!-- Color names: teamapps-color-1 -->
	<desc>watch_later icon - Licensed under Apache License v2.0 (http://www.apache.org/licenses/LICENSE-2.0) - Created with Iconfu.com - Derivative work of Material icons (Copyright Google Inc.)</desc>
	<defs>
		<clipPath id="clip-Kg1wBU13">
			<path d="M39.26,89.26h945.47v934.74h-945.47z"/>
		</clipPath>
		<filter id="filter-eKfqbERF" x="-13%" y="-6%" width="143%" height="143%" color-interpolation-filters="sRGB">
			<feColorMatrix values="1 0 0 0 0 0 1 0 0 0 0 0 1 0 0 0 0 0 0.2 0" in="SourceGraphic"/>
			<feOffset dy="20"/>
			<feGaussianBlur stdDeviation="11" result="blur0"/>
			<feColorMatrix values="1 0 0 0 0 0 1 0 0 0 0 0 1 0 0 0 0 0 0.3 0" in="SourceGraphic"/>
			<feOffset dy="30"/>
			<feGaussianBlur stdDeviation="20" result="blur1"/>
			<feMerge>
				<feMergeNode in="blur0"/>
				<feMergeNode in="blur1"/>
			</feMerge>
		</filter>
	</defs>
	<g fill="none" fill-rule="nonzero" style="mix-blend-mode: normal">
		<g clip-path="url(#clip-Kg1wBU13)">
			<path d="M891.74,512c0,208.86 -170.88,379.74 -379.74,379.74c-208.86,0 -379.74,-170.88 -379.74,-379.74c0,-208.86 170.88,-379.74 379.74,-379.74c208.86,0 379.74,170.88 379.74,379.74zM701.86,622.12l-170.88,-102.53v-197.46h-56.96v227.84l197.46,121.51z" fill="#000000" filter="url(#filter-eKfqbERF)"/>
		</g>
		<g>
			<g color="#039be5" class="teamapps-color-1">
				<path d="M891.74,512c0,208.86 -170.88,379.74 -379.74,379.74c-208.86,0 -379.74,-170.88 -379.74,-379.74c0,-208.86 170.88,-379.74 379.74,-379.74c208.86,0 379.74,170.88 379.74,379.74zM701.86,622.12l-170.88,-102.53v-197.46h-56.96v227.84l197.46,121.51z" fill="currentColor"/>
			</g>
		</g>
	</g>
</svg>