<svg version="1.1" xmlns="http://www.w3.org/2000/svg" xmlns:xlink="http://www.w3.org/1999/xlink" viewBox="0,0,1024,1024">
	<!-- Color names: teamapps-color-1 -->
	<desc>wifi_tethering icon - Licensed under Apache License v2.0 (http://www.apache.org/licenses/LICENSE-2.0) - Created with Iconfu.com - Derivative work of Material icons (Copyright Google Inc.)</desc>
	<defs>
		<filter id="filter-7pk1oXoE" x="-13%" y="-7%" width="143%" height="152%" color-interpolation-filters="sRGB">
			<feColorMatrix values="1 0 0 0 0 0 1 0 0 0 0 0 1 0 0 0 0 0 0.2 0" in="SourceGraphic"/>
			<feOffset dy="20"/>
			<feGaussianBlur stdDeviation="11" result="blur0"/>
			<feColorMatrix values="1 0 0 0 0 0 1 0 0 0 0 0 1 0 0 0 0 0 0.3 0" in="SourceGraphic"/>
			<feOffset dy="30"/>
			<feGaussianBlur stdDeviation="20" result="blur1"/>
			<feMerge>
				<feMergeNode in="blur0"/>
				<feMergeNode in="blur1"/>
			</feMerge>
		</filter>
	</defs>
	<g fill="none" fill-rule="nonzero" style="mix-blend-mode: normal">
		<path d="M891.74,549.98c0,140.5 -76.34,262.77 -189.87,328.46l-37.97,-65.69c90.75,-52.79 151.89,-150.37 151.89,-262.77c0,-167.85 -135.94,-303.79 -303.78,-303.79c-167.85,0 -303.78,135.95 -303.78,303.79c0,112.4 61.13,209.99 151.51,262.77l-37.98,65.69c-113.16,-65.69 -189.49,-187.96 -189.49,-328.46c0,-209.61 170.12,-379.74 379.74,-379.74c209.61,0 379.74,170.12 379.74,379.74zM625.92,747.06l-37.98,-66.07c45.19,-26.58 75.95,-74.8 75.95,-131.01c0,-83.92 -67.98,-151.9 -151.9,-151.9c-83.92,0 -151.9,67.98 -151.9,151.9c0,56.2 30.77,104.42 75.95,131.01l-37.98,66.07c-67.97,-39.49 -113.92,-112.78 -113.92,-197.08c0,-125.69 102.15,-227.84 227.84,-227.84c125.69,0 227.84,102.15 227.84,227.84c0,84.3 -45.95,157.59 -113.92,197.08zM587.94,549.98c0,41.77 -34.18,75.94 -75.94,75.94c-41.77,0 -75.94,-34.18 -75.94,-75.94c0,-41.77 34.18,-75.95 75.94,-75.95c41.77,0 75.94,34.18 75.94,75.95z" fill="#000000" filter="url(#filter-7pk1oXoE)"/>
		<g>
			<g color="#039be5" class="teamapps-color-1">
				<path d="M891.74,549.98c0,140.5 -76.34,262.77 -189.87,328.46l-37.97,-65.69c90.75,-52.79 151.89,-150.37 151.89,-262.77c0,-167.85 -135.94,-303.79 -303.78,-303.79c-167.85,0 -303.78,135.95 -303.78,303.79c0,112.4 61.13,209.99 151.51,262.77l-37.98,65.69c-113.16,-65.69 -189.49,-187.96 -189.49,-328.46c0,-209.61 170.12,-379.74 379.74,-379.74c209.61,0 379.74,170.12 379.74,379.74zM625.92,747.06l-37.98,-66.07c45.19,-26.58 75.95,-74.8 75.95,-131.01c0,-83.92 -67.98,-151.9 -151.9,-151.9c-83.92,0 -151.9,67.98 -151.9,151.9c0,56.2 30.77,104.42 75.95,131.01l-37.98,66.07c-67.97,-39.49 -113.92,-112.78 -113.92,-197.08c0,-125.69 102.15,-227.84 227.84,-227.84c125.69,0 227.84,102.15 227.84,227.84c0,84.3 -45.95,157.59 -113.92,197.08zM587.94,549.98c0,41.77 -34.18,75.94 -75.94,75.94c-41.77,0 -75.94,-34.18 -75.94,-75.94c0,-41.77 34.18,-75.95 75.94,-75.95c41.77,0 75.94,34.18 75.94,75.95z" fill="currentColor"/>
			</g>
		</g>
	</g>
</svg>