<svg version="1.1" xmlns="http://www.w3.org/2000/svg" xmlns:xlink="http://www.w3.org/1999/xlink" viewBox="0,0,1024,1024">
	<!-- Color names: teamapps-color-1 -->
	<desc>work icon - Licensed under Apache License v2.0 (http://www.apache.org/licenses/LICENSE-2.0) - Created with Iconfu.com - Derivative work of Material icons (Copyright Google Inc.)</desc>
	<defs>
		<filter id="filter-JX4UmAvM" x="-13%" y="-6%" width="143%" height="145%" color-interpolation-filters="sRGB">
			<feColorMatrix values="1 0 0 0 0 0 1 0 0 0 0 0 1 0 0 0 0 0 0.2 0" in="SourceGraphic"/>
			<feOffset dy="20"/>
			<feGaussianBlur stdDeviation="11" result="blur0"/>
			<feColorMatrix values="1 0 0 0 0 0 1 0 0 0 0 0 1 0 0 0 0 0 0.3 0" in="SourceGraphic"/>
			<feOffset dy="30"/>
			<feGaussianBlur stdDeviation="20" result="blur1"/>
			<feMerge>
				<feMergeNode in="blur0"/>
				<feMergeNode in="blur1"/>
			</feMerge>
		</filter>
	</defs>
	<g fill="none" fill-rule="nonzero" style="mix-blend-mode: normal">
		<path d="M891.74,360.1v417.71c0,42.15 -33.8,75.94 -75.95,75.94h-607.57c-42.15,0 -75.95,-33.79 -75.95,-75.94l0.38,-417.71c0,-42.15 33.42,-75.94 75.57,-75.94h151.89v-75.94c0,-42.15 33.8,-75.95 75.95,-75.95h151.89c42.15,0 75.95,33.8 75.95,75.95v75.94h151.89c42.15,0 75.95,33.79 75.95,75.94zM587.94,208.22h-151.89v75.94h151.89z" fill="#000000" filter="url(#filter-JX4UmAvM)"/>
		<g>
			<g color="#039be5" class="teamapps-color-1">
				<path d="M891.74,360.1v417.71c0,42.15 -33.8,75.94 -75.95,75.94h-607.57c-42.15,0 -75.95,-33.79 -75.95,-75.94l0.38,-417.71c0,-42.15 33.42,-75.94 75.57,-75.94h151.89v-75.94c0,-42.15 33.8,-75.95 75.95,-75.95h151.89c42.15,0 75.95,33.8 75.95,75.95v75.94h151.89c42.15,0 75.95,33.79 75.95,75.94zM587.94,208.22h-151.89v75.94h151.89z" fill="currentColor"/>
			</g>
		</g>
	</g>
</svg>