<svg version="1.1" xmlns="http://www.w3.org/2000/svg" xmlns:xlink="http://www.w3.org/1999/xlink" viewBox="0,0,1024,1024">
	<!-- Color names: teamapps-color-1 -->
	<desc>youtube_searched_for icon - Licensed under Apache License v2.0 (http://www.apache.org/licenses/LICENSE-2.0) - Created with Iconfu.com - Derivative work of Material icons (Copyright Google Inc.)</desc>
	<defs>
		<filter id="filter-oUWt3Yhy" x="-13%" y="-7%" width="143%" height="155%" color-interpolation-filters="sRGB">
			<feColorMatrix values="1 0 0 0 0 0 1 0 0 0 0 0 1 0 0 0 0 0 0.2 0" in="SourceGraphic"/>
			<feOffset dy="20"/>
			<feGaussianBlur stdDeviation="11" result="blur0"/>
			<feColorMatrix values="1 0 0 0 0 0 1 0 0 0 0 0 1 0 0 0 0 0 0.3 0" in="SourceGraphic"/>
			<feOffset dy="30"/>
			<feGaussianBlur stdDeviation="20" result="blur1"/>
			<feMerge>
				<feMergeNode in="blur0"/>
				<feMergeNode in="blur1"/>
			</feMerge>
		</filter>
	</defs>
	<g fill="none" fill-rule="nonzero" style="mix-blend-mode: normal">
		<path d="M891.74,777.82l-56.59,56.19l-190.25,-189.48v-30l-10.25,-10.25c-43.29,37.21 -99.11,59.62 -160.24,59.62c-45.95,0 -88.47,-12.53 -125.31,-34.18l56.2,-56.2c21.26,9.11 44.43,14.43 69.11,14.43c94.17,0 170.88,-76.71 170.88,-170.88c0,-94.55 -76.71,-170.88 -170.88,-170.88c-94.17,0 -170.88,75.94 -170.88,170.88h132.53l-157.98,151.9l-145.82,-151.9h95.32c0,-132.9 110.5,-246.82 246.82,-246.82c136.32,0 246.82,110.5 246.82,246.82c0,61.52 -22.4,117.34 -59.61,160.63l10.25,10.25h30.38z" fill="#000000" filter="url(#filter-oUWt3Yhy)"/>
		<g>
			<g color="#039be5" class="teamapps-color-1">
				<path d="M891.74,777.82l-56.59,56.19l-190.25,-189.48v-30l-10.25,-10.25c-43.29,37.21 -99.11,59.62 -160.24,59.62c-45.95,0 -88.47,-12.53 -125.31,-34.18l56.2,-56.2c21.26,9.11 44.43,14.43 69.11,14.43c94.17,0 170.88,-76.71 170.88,-170.88c0,-94.55 -76.71,-170.88 -170.88,-170.88c-94.17,0 -170.88,75.94 -170.88,170.88h132.53l-157.98,151.9l-145.82,-151.9h95.32c0,-132.9 110.5,-246.82 246.82,-246.82c136.32,0 246.82,110.5 246.82,246.82c0,61.52 -22.4,117.34 -59.61,160.63l10.25,10.25h30.38z" fill="currentColor"/>
			</g>
		</g>
	</g>
</svg>