<svg version="1.1" xmlns="http://www.w3.org/2000/svg" xmlns:xlink="http://www.w3.org/1999/xlink" viewBox="0,0,1024,1024">
	<!-- Color names: teamapps-color-1, teamapps-color-2, teamapps-color-3 -->
	<desc>access_alarms icon - Licensed under Apache License v2.0 (http://www.apache.org/licenses/LICENSE-2.0) - Created with Iconfu.com - Derivative work of Material icons (Copyright Google Inc.)</desc>
	<defs>
		<radialGradient cx="0" cy="0" r="1448.15" id="color-1lDNC6fM" gradientUnits="userSpaceOnUse">
			<stop offset="0.08" stop-color="#ffffff"/>
			<stop offset="1" stop-color="#000000"/>
		</radialGradient>
		<linearGradient x1="0" y1="1024" x2="1024" y2="0" id="color-FlHw7hJ1" gradientUnits="userSpaceOnUse">
			<stop offset="0.2" stop-color="#000000"/>
			<stop offset="0.8" stop-color="#ffffff"/>
		</linearGradient>
		<filter id="filter-jxso3T1M" color-interpolation-filters="sRGB">
			<feOffset/>
		</filter>
		<mask id="mask-3o4YglRT">
			<path d="M902.4,552.54c0,216.8 -173.6,390.4 -390.4,390.4c-216.8,0 -390.4,-173.6 -390.4,-390.4c0,-88.53 28.95,-169.86 77.96,-235.1l-23.9,19.74c-10.72,8.85 -26.54,7.54 -35.65,-2.97l-52.7,-60.8c-9.42,-10.86 -8.04,-27.35 3.04,-36.5l186.46,-154.02c10.72,-8.85 26.54,-7.54 35.65,2.97l52.7,60.8c9.42,10.86 8.04,27.35 -3.04,36.5l-22.36,18.47c51.86,-25.31 110.28,-39.49 172.24,-39.49c66.16,0 128.3,16.17 182.71,44.79l-33.08,-28.04c-10.87,-9.21 -12.12,-25.53 -2.79,-36.29l52.7,-60.8c9.19,-10.6 25.2,-11.83 35.9,-2.76l186.46,158.08c10.87,9.21 12.12,25.53 2.79,36.29l-52.7,60.8c-9.19,10.6 -25.2,11.83 -35.9,2.76l-24.73,-20.97c49.67,65.48 79.05,147.36 79.05,236.54zM770.14,552.54c0,-143.94 -114.19,-258.14 -258.14,-258.14c-143.94,0 -258.14,114.19 -258.14,258.14c0,143.94 114.19,258.13 258.14,258.13c143.94,0 258.14,-114.19 258.14,-258.13zM557.86,550.2l149.71,89.82c12.53,7.52 16.24,23.99 8.13,36.15l-32.42,48.64c-7.65,11.47 -23.01,14.83 -34.74,7.59l-190.51,-117.55c-7.56,-4.66 -12.16,-12.91 -12.16,-21.79v-243.2c0,-14.14 11.46,-25.6 25.6,-25.6h60.8c14.14,0 25.6,11.46 25.6,25.6zM512,187.74c-202.66,0 -364.8,162.14 -364.8,364.8c0,202.66 162.14,364.8 364.8,364.8c202.66,0 364.8,-162.14 364.8,-364.8c0,-202.66 -162.14,-364.8 -364.8,-364.8zM512,836.26c-158.08,0 -283.74,-125.65 -283.74,-283.73c0,-158.08 125.66,-283.74 283.74,-283.74c158.08,0 283.74,125.66 283.74,283.74c0,158.08 -125.66,283.73 -283.74,283.73zM532.26,349.86h-60.8v243.2l190.51,117.55l32.42,-48.64l-162.14,-97.28zM917.34,256.64l-186.46,-158.08l-52.7,60.8l186.46,158.08zM345.82,163.42l-52.7,-60.8l-186.46,154.02l52.7,60.8z" fill="#ffffff"/>
		</mask>
		<mask id="mask-D2EEyPwf">
			<rect fill="url(#color-FlHw7hJ1)" x="81.06" y="72.96" width="861.87" height="869.98"/>
		</mask>
		<mask id="mask-T7Qg5Z3Y">
			<path d="M902.4,552.54c0,216.8 -173.6,390.4 -390.4,390.4c-216.8,0 -390.4,-173.6 -390.4,-390.4c0,-88.53 28.95,-169.86 77.96,-235.1l-23.9,19.74c-10.72,8.85 -26.54,7.54 -35.65,-2.97l-52.7,-60.8c-9.42,-10.86 -8.04,-27.35 3.04,-36.5l186.46,-154.02c10.72,-8.85 26.54,-7.54 35.65,2.97l52.7,60.8c9.42,10.86 8.04,27.35 -3.04,36.5l-22.36,18.47c51.86,-25.31 110.28,-39.49 172.24,-39.49c66.16,0 128.3,16.17 182.71,44.79l-33.08,-28.04c-10.87,-9.21 -12.12,-25.53 -2.79,-36.29l52.7,-60.8c9.19,-10.6 25.2,-11.83 35.9,-2.76l186.46,158.08c10.87,9.21 12.12,25.53 2.79,36.29l-52.7,60.8c-9.19,10.6 -25.2,11.83 -35.9,2.76l-24.73,-20.97c49.67,65.48 79.05,147.36 79.05,236.54zM770.14,552.54c0,-143.94 -114.19,-258.14 -258.14,-258.14c-143.94,0 -258.14,114.19 -258.14,258.14c0,143.94 114.19,258.13 258.14,258.13c143.94,0 258.14,-114.19 258.14,-258.13zM557.86,550.2l149.71,89.82c12.53,7.52 16.24,23.99 8.13,36.15l-32.42,48.64c-7.65,11.47 -23.01,14.83 -34.74,7.59l-190.51,-117.55c-7.56,-4.66 -12.16,-12.91 -12.16,-21.79v-243.2c0,-14.14 11.46,-25.6 25.6,-25.6h60.8c14.14,0 25.6,11.46 25.6,25.6zM512,187.74c-202.66,0 -364.8,162.14 -364.8,364.8c0,202.66 162.14,364.8 364.8,364.8c202.66,0 364.8,-162.14 364.8,-364.8c0,-202.66 -162.14,-364.8 -364.8,-364.8zM512,836.26c-158.08,0 -283.74,-125.65 -283.74,-283.73c0,-158.08 125.66,-283.74 283.74,-283.74c158.08,0 283.74,125.66 283.74,283.74c0,158.08 -125.66,283.73 -283.74,283.73zM532.26,349.86h-60.8v243.2l190.51,117.55l32.42,-48.64l-162.14,-97.28zM917.34,256.64l-186.46,-158.08l-52.7,60.8l186.46,158.08zM345.82,163.42l-52.7,-60.8l-186.46,154.02l52.7,60.8z" fill="url(#color-1lDNC6fM)"/>
		</mask>
	</defs>
	<g fill="none" fill-rule="nonzero" style="mix-blend-mode: normal">
		<g mask="url(#mask-3o4YglRT)">
			<g color="#ff0000" class="teamapps-color-2">
				<rect x="81.06" y="72.96" width="861.87" height="869.98" fill="currentColor"/>
			</g>
			<g color="#bc13e0" class="teamapps-color-3" mask="url(#mask-D2EEyPwf)">
				<rect x="81.06" y="72.96" width="861.87" height="869.98" fill="currentColor"/>
			</g>
		</g>
		<g filter="url(#filter-jxso3T1M)" mask="url(#mask-T7Qg5Z3Y)">
			<g color="#fff961" class="teamapps-color-1">
				<rect x="81.06" y="72.96" width="861.87" height="869.98" fill="currentColor"/>
			</g>
		</g>
	</g>
</svg>