<svg version="1.1" xmlns="http://www.w3.org/2000/svg" xmlns:xlink="http://www.w3.org/1999/xlink" viewBox="0,0,1024,1024">
	<!-- Color names: teamapps-color-1, teamapps-color-2, teamapps-color-3 -->
	<desc>attach_file icon - Licensed under Apache License v2.0 (http://www.apache.org/licenses/LICENSE-2.0) - Created with Iconfu.com - Derivative work of Material icons (Copyright Google Inc.)</desc>
	<defs>
		<radialGradient cx="0" cy="0" r="1448.15" id="color-RzgRnKl5" gradientUnits="userSpaceOnUse">
			<stop offset="0.08" stop-color="#ffffff"/>
			<stop offset="1" stop-color="#000000"/>
		</radialGradient>
		<linearGradient x1="0" y1="1024" x2="1024" y2="0" id="color-Z84pNdKF" gradientUnits="userSpaceOnUse">
			<stop offset="0.2" stop-color="#000000"/>
			<stop offset="0.8" stop-color="#ffffff"/>
		</linearGradient>
		<filter id="filter-9ssi63OO" color-interpolation-filters="sRGB">
			<feOffset/>
		</filter>
		<mask id="mask-08BrOOop">
			<path d="M780.8,268.8v466.14c0,137.36 -111.17,248.53 -248.54,248.53c-137.36,0 -248.53,-111.16 -248.53,-248.53v-506.67c0,-103.71 84.01,-187.73 187.73,-187.73c103.71,0 187.74,84.01 187.74,187.73v425.6c0,70.07 -56.86,126.94 -126.94,126.94c-70.08,0 -126.93,-56.87 -126.93,-126.94v-385.06c0,-14.14 11.46,-25.6 25.6,-25.6h60.8c14.14,0 25.6,11.46 25.6,25.6v385.06c0,8.17 6.78,14.94 14.93,14.94c8.16,0 14.94,-6.78 14.94,-14.94v-425.6c0,-41.79 -33.94,-75.73 -75.74,-75.73c-41.8,0 -75.73,33.93 -75.73,75.73v506.67c0,75.44 61.09,136.53 136.53,136.53c75.44,0 136.54,-61.09 136.54,-136.53v-466.14c0,-14.14 11.46,-25.6 25.6,-25.6h60.8c14.14,0 25.6,11.46 25.6,25.6zM694.4,268.8v466.14c0,89.58 -72.56,162.13 -162.14,162.13c-89.58,0 -162.13,-72.55 -162.13,-162.13v-506.67c0,-55.94 45.39,-101.33 101.33,-101.33c55.94,0 101.34,45.39 101.34,101.33v425.6c0,22.3 -18.24,40.54 -40.54,40.54c-22.3,0 -40.53,-18.24 -40.53,-40.54v-385.06h-60.8v385.06c0,55.94 45.39,101.34 101.33,101.34c55.94,0 101.34,-45.4 101.34,-101.34v-425.6c0,-89.58 -72.56,-162.13 -162.14,-162.13c-89.58,0 -162.13,72.55 -162.13,162.13v506.67c0,123.22 99.7,222.93 222.93,222.93c123.22,0 222.94,-99.7 222.94,-222.93v-466.14z" fill="#ffffff"/>
		</mask>
		<mask id="mask-5Q0Xqwiv">
			<rect fill="url(#color-Z84pNdKF)" x="283.74" y="40.54" width="497.06" height="942.93"/>
		</mask>
		<mask id="mask-5Sy4pQW1">
			<path d="M780.8,268.8v466.14c0,137.36 -111.17,248.53 -248.54,248.53c-137.36,0 -248.53,-111.16 -248.53,-248.53v-506.67c0,-103.71 84.01,-187.73 187.73,-187.73c103.71,0 187.74,84.01 187.74,187.73v425.6c0,70.07 -56.86,126.94 -126.94,126.94c-70.08,0 -126.93,-56.87 -126.93,-126.94v-385.06c0,-14.14 11.46,-25.6 25.6,-25.6h60.8c14.14,0 25.6,11.46 25.6,25.6v385.06c0,8.17 6.78,14.94 14.93,14.94c8.16,0 14.94,-6.78 14.94,-14.94v-425.6c0,-41.79 -33.94,-75.73 -75.74,-75.73c-41.8,0 -75.73,33.93 -75.73,75.73v506.67c0,75.44 61.09,136.53 136.53,136.53c75.44,0 136.54,-61.09 136.54,-136.53v-466.14c0,-14.14 11.46,-25.6 25.6,-25.6h60.8c14.14,0 25.6,11.46 25.6,25.6zM694.4,268.8v466.14c0,89.58 -72.56,162.13 -162.14,162.13c-89.58,0 -162.13,-72.55 -162.13,-162.13v-506.67c0,-55.94 45.39,-101.33 101.33,-101.33c55.94,0 101.34,45.39 101.34,101.33v425.6c0,22.3 -18.24,40.54 -40.54,40.54c-22.3,0 -40.53,-18.24 -40.53,-40.54v-385.06h-60.8v385.06c0,55.94 45.39,101.34 101.33,101.34c55.94,0 101.34,-45.4 101.34,-101.34v-425.6c0,-89.58 -72.56,-162.13 -162.14,-162.13c-89.58,0 -162.13,72.55 -162.13,162.13v506.67c0,123.22 99.7,222.93 222.93,222.93c123.22,0 222.94,-99.7 222.94,-222.93v-466.14z" fill="url(#color-RzgRnKl5)"/>
		</mask>
	</defs>
	<g fill="none" fill-rule="nonzero" style="mix-blend-mode: normal">
		<g mask="url(#mask-08BrOOop)">
			<g color="#ff0000" class="teamapps-color-2">
				<rect x="283.74" y="40.54" width="497.06" height="942.93" fill="currentColor"/>
			</g>
			<g color="#bc13e0" class="teamapps-color-3" mask="url(#mask-5Q0Xqwiv)">
				<rect x="283.74" y="40.54" width="497.06" height="942.93" fill="currentColor"/>
			</g>
		</g>
		<g filter="url(#filter-9ssi63OO)" mask="url(#mask-5Sy4pQW1)">
			<g color="#fff961" class="teamapps-color-1">
				<rect x="283.74" y="40.54" width="497.06" height="942.93" fill="currentColor"/>
			</g>
		</g>
	</g>
</svg>