<svg version="1.1" xmlns="http://www.w3.org/2000/svg" xmlns:xlink="http://www.w3.org/1999/xlink" viewBox="0,0,1024,1024">
	<!-- Color names: teamapps-color-1, teamapps-color-2, teamapps-color-3 -->
	<desc>call_missed icon - Licensed under Apache License v2.0 (http://www.apache.org/licenses/LICENSE-2.0) - Created with Iconfu.com - Derivative work of Material icons (Copyright Google Inc.)</desc>
	<defs>
		<radialGradient cx="0" cy="0" r="1448.15" id="color-FT4jvxFP" gradientUnits="userSpaceOnUse">
			<stop offset="0.08" stop-color="#ffffff"/>
			<stop offset="1" stop-color="#000000"/>
		</radialGradient>
		<linearGradient x1="0" y1="1024" x2="1024" y2="0" id="color-v9KEgDzx" gradientUnits="userSpaceOnUse">
			<stop offset="0.2" stop-color="#000000"/>
			<stop offset="0.8" stop-color="#ffffff"/>
		</linearGradient>
		<filter id="filter-ukzQlZvG" color-interpolation-filters="sRGB">
			<feOffset/>
		</filter>
		<mask id="mask-GWyG5zfo">
			<rect fill="url(#color-v9KEgDzx)" x="121.6" y="283.74" width="780.8" height="473.15"/>
		</mask>
		<mask id="mask-HwXICDRc">
			<path d="M894.9,384.59l-364.8,364.8c-10,10 -26.21,10 -36.2,0l-240.03,-240.03v124.24c0,14.14 -11.46,25.6 -25.6,25.6h-81.06c-14.14,0 -25.6,-11.46 -25.6,-25.6v-324.26c0,-14.14 11.46,-25.6 25.6,-25.6h324.26c14.14,0 25.6,11.46 25.6,25.6v81.06c0,14.14 -11.46,25.6 -25.6,25.6h-124.24l164.78,164.78l289.55,-289.55c10,-10 26.21,-10 36.2,0l57.15,57.15c10,10 10,26.21 0,36.2zM819.65,309.34l-307.65,307.65l-226.58,-226.58h186.05v-81.06h-324.26v324.26h81.06v-186.05l283.74,283.74l364.8,-364.8z" fill="url(#color-FT4jvxFP)"/>
		</mask>
		<mask id="mask-tOx5wP81">
			<path d="M894.9,384.59l-364.8,364.8c-10,10 -26.21,10 -36.2,0l-240.03,-240.03v124.24c0,14.14 -11.46,25.6 -25.6,25.6h-81.06c-14.14,0 -25.6,-11.46 -25.6,-25.6v-324.26c0,-14.14 11.46,-25.6 25.6,-25.6h324.26c14.14,0 25.6,11.46 25.6,25.6v81.06c0,14.14 -11.46,25.6 -25.6,25.6h-124.24l164.78,164.78l289.55,-289.55c10,-10 26.21,-10 36.2,0l57.15,57.15c10,10 10,26.21 0,36.2zM819.65,309.34l-307.65,307.65l-226.58,-226.58h186.05v-81.06h-324.26v324.26h81.06v-186.05l283.74,283.74l364.8,-364.8z" fill="#ffffff"/>
		</mask>
	</defs>
	<g fill="none" fill-rule="nonzero" style="mix-blend-mode: normal">
		<g mask="url(#mask-tOx5wP81)">
			<g color="#ff0000" class="teamapps-color-2">
				<rect x="121.6" y="283.74" width="780.8" height="473.15" fill="currentColor"/>
			</g>
			<g color="#bc13e0" class="teamapps-color-3" mask="url(#mask-GWyG5zfo)">
				<rect x="121.6" y="283.74" width="780.8" height="473.15" fill="currentColor"/>
			</g>
		</g>
		<g filter="url(#filter-ukzQlZvG)" mask="url(#mask-HwXICDRc)">
			<g color="#fff961" class="teamapps-color-1">
				<rect x="121.6" y="283.74" width="780.8" height="473.15" fill="currentColor"/>
			</g>
		</g>
	</g>
</svg>