<svg version="1.1" xmlns="http://www.w3.org/2000/svg" xmlns:xlink="http://www.w3.org/1999/xlink" viewBox="0,0,1024,1024">
	<!-- Color names: teamapps-color-1, teamapps-color-2, teamapps-color-3 -->
	<desc>camera icon - Licensed under Apache License v2.0 (http://www.apache.org/licenses/LICENSE-2.0) - Created with Iconfu.com - Derivative work of Material icons (Copyright Google Inc.)</desc>
	<defs>
		<radialGradient cx="0" cy="0" r="1448.15" id="color-Nrwe9RCp" gradientUnits="userSpaceOnUse">
			<stop offset="0.08" stop-color="#ffffff"/>
			<stop offset="1" stop-color="#000000"/>
		</radialGradient>
		<linearGradient x1="0" y1="1024" x2="1024" y2="0" id="color-vyz46HFk" gradientUnits="userSpaceOnUse">
			<stop offset="0.2" stop-color="#000000"/>
			<stop offset="0.8" stop-color="#ffffff"/>
		</linearGradient>
		<filter id="filter-rQtPDacD" color-interpolation-filters="sRGB">
			<feOffset/>
		</filter>
		<mask id="mask-72iGRMfx">
			<path d="M642,555.96l148.35,257.39c6.27,10.88 3.72,24.71 -6.02,32.64c-74.08,60.29 -168.89,96.94 -272.33,96.94c-32.47,0 -63.47,-3.9 -93.32,-10.3c-8.01,-1.72 -14.71,-7.16 -18.03,-14.64c-3.32,-7.48 -2.87,-16.11 1.23,-23.2l195.78,-338.86c4.58,-7.92 13.03,-12.8 22.18,-12.79c9.15,0 17.6,4.89 22.17,12.82zM382,468.04l-148.35,-257.39c-6.27,-10.88 -3.72,-24.71 6.02,-32.64c74.08,-60.29 168.89,-96.94 272.33,-96.94c32.47,0 63.47,3.9 93.32,10.3c8.01,1.72 14.71,7.16 18.03,14.64c3.32,7.48 2.87,16.11 -1.23,23.2l-195.78,338.87c-4.58,7.92 -13.03,12.8 -22.18,12.79c-9.15,0 -17.6,-4.89 -22.17,-12.82zM942.94,512c0,112.51 -43.15,214.28 -113.78,290.95c-5.52,5.99 -13.56,9 -21.65,8.1c-8.09,-0.9 -15.28,-5.59 -19.35,-12.65l-204.7,-354.66c-4.57,-7.92 -4.57,-17.68 0,-25.6c0.43,-0.74 0.89,-1.45 1.38,-2.13h-77.7c-9.15,0 -17.6,-4.88 -22.17,-12.8c-4.57,-7.92 -4.57,-17.68 0,-25.6l148.35,-256.98c6.28,-10.87 19.51,-15.59 31.24,-11.14c122.79,46.53 218.88,147.32 258.55,273.23c2.45,7.78 1.05,16.26 -3.77,22.83c-0.36,0.49 -0.73,0.96 -1.12,1.42c8.09,3.04 14.34,10.07 16.12,18.95c5.59,27.91 8.61,56.35 8.61,86.09zM89.67,598.09c-5.59,-27.91 -8.61,-56.35 -8.61,-86.09c0,-112.57 43.59,-214.3 113.73,-290.89c5.51,-6.02 13.56,-9.05 21.66,-8.16c8.11,0.89 15.31,5.59 19.39,12.65l204.7,354.66c4.57,7.92 4.57,17.68 0,25.6c-0.43,0.74 -0.89,1.45 -1.38,2.13h77.7c9.15,0 17.6,4.88 22.17,12.8c4.57,7.92 4.57,17.68 0,25.6l-148.35,256.98c-6.28,10.87 -19.51,15.59 -31.24,11.14c-122.79,-46.53 -218.88,-147.32 -258.55,-273.23c-2.45,-7.78 -1.05,-16.26 3.77,-22.83c0.36,-0.49 0.73,-0.96 1.12,-1.42c-8.09,-3.04 -14.34,-10.07 -16.12,-18.95zM582.12,633.6l-158.08,274.01c28.38,6.08 57.56,9.73 87.96,9.73c97.28,0 186.45,-34.46 256.17,-91.2l-148.35,-257.39zM406.62,451.2l193.34,-334.81c-28.38,-6.08 -57.56,-9.73 -87.96,-9.73c-97.28,0 -186.45,34.46 -256.17,91.2l148.35,257.39zM909.22,430.94h-303.59l11.75,20.26l192.94,334.4c66.47,-72.15 107.01,-167.81 107.01,-273.6c0,-27.97 -2.84,-54.72 -8.11,-81.06zM371.75,512l-158.08,-273.6c-66.07,72.15 -107.01,167.81 -107.01,273.6c0,27.97 2.84,54.72 8.11,81.06h303.59zM898.69,390.4c-37.29,-118.36 -127.68,-213.21 -243.2,-256.98l-148.35,256.98zM125.31,633.6c37.29,118.36 127.68,213.21 243.2,256.98l148.35,-256.98z" fill="#ffffff"/>
		</mask>
		<mask id="mask-Al38jLzV">
			<path d="M642,555.96l148.35,257.39c6.27,10.88 3.72,24.71 -6.02,32.64c-74.08,60.29 -168.89,96.94 -272.33,96.94c-32.47,0 -63.47,-3.9 -93.32,-10.3c-8.01,-1.72 -14.71,-7.16 -18.03,-14.64c-3.32,-7.48 -2.87,-16.11 1.23,-23.2l195.78,-338.86c4.58,-7.92 13.03,-12.8 22.18,-12.79c9.15,0 17.6,4.89 22.17,12.82zM382,468.04l-148.35,-257.39c-6.27,-10.88 -3.72,-24.71 6.02,-32.64c74.08,-60.29 168.89,-96.94 272.33,-96.94c32.47,0 63.47,3.9 93.32,10.3c8.01,1.72 14.71,7.16 18.03,14.64c3.32,7.48 2.87,16.11 -1.23,23.2l-195.78,338.87c-4.58,7.92 -13.03,12.8 -22.18,12.79c-9.15,0 -17.6,-4.89 -22.17,-12.82zM942.94,512c0,112.51 -43.15,214.28 -113.78,290.95c-5.52,5.99 -13.56,9 -21.65,8.1c-8.09,-0.9 -15.28,-5.59 -19.35,-12.65l-204.7,-354.66c-4.57,-7.92 -4.57,-17.68 0,-25.6c0.43,-0.74 0.89,-1.45 1.38,-2.13h-77.7c-9.15,0 -17.6,-4.88 -22.17,-12.8c-4.57,-7.92 -4.57,-17.68 0,-25.6l148.35,-256.98c6.28,-10.87 19.51,-15.59 31.24,-11.14c122.79,46.53 218.88,147.32 258.55,273.23c2.45,7.78 1.05,16.26 -3.77,22.83c-0.36,0.49 -0.73,0.96 -1.12,1.42c8.09,3.04 14.34,10.07 16.12,18.95c5.59,27.91 8.61,56.35 8.61,86.09zM89.67,598.09c-5.59,-27.91 -8.61,-56.35 -8.61,-86.09c0,-112.57 43.59,-214.3 113.73,-290.89c5.51,-6.02 13.56,-9.05 21.66,-8.16c8.11,0.89 15.31,5.59 19.39,12.65l204.7,354.66c4.57,7.92 4.57,17.68 0,25.6c-0.43,0.74 -0.89,1.45 -1.38,2.13h77.7c9.15,0 17.6,4.88 22.17,12.8c4.57,7.92 4.57,17.68 0,25.6l-148.35,256.98c-6.28,10.87 -19.51,15.59 -31.24,11.14c-122.79,-46.53 -218.88,-147.32 -258.55,-273.23c-2.45,-7.78 -1.05,-16.26 3.77,-22.83c0.36,-0.49 0.73,-0.96 1.12,-1.42c-8.09,-3.04 -14.34,-10.07 -16.12,-18.95zM582.12,633.6l-158.08,274.01c28.38,6.08 57.56,9.73 87.96,9.73c97.28,0 186.45,-34.46 256.17,-91.2l-148.35,-257.39zM406.62,451.2l193.34,-334.81c-28.38,-6.08 -57.56,-9.73 -87.96,-9.73c-97.28,0 -186.45,34.46 -256.17,91.2l148.35,257.39zM909.22,430.94h-303.59l11.75,20.26l192.94,334.4c66.47,-72.15 107.01,-167.81 107.01,-273.6c0,-27.97 -2.84,-54.72 -8.11,-81.06zM371.75,512l-158.08,-273.6c-66.07,72.15 -107.01,167.81 -107.01,273.6c0,27.97 2.84,54.72 8.11,81.06h303.59zM898.69,390.4c-37.29,-118.36 -127.68,-213.21 -243.2,-256.98l-148.35,256.98zM125.31,633.6c37.29,118.36 127.68,213.21 243.2,256.98l148.35,-256.98z" fill="url(#color-Nrwe9RCp)"/>
		</mask>
		<mask id="mask-VF2P6CEx">
			<rect fill="url(#color-vyz46HFk)" x="81.06" y="81.06" width="861.87" height="861.87"/>
		</mask>
	</defs>
	<g fill="none" fill-rule="nonzero" style="mix-blend-mode: normal">
		<g mask="url(#mask-72iGRMfx)">
			<g color="#ff0000" class="teamapps-color-2">
				<rect x="81.06" y="81.06" width="861.87" height="861.87" fill="currentColor"/>
			</g>
			<g color="#bc13e0" class="teamapps-color-3" mask="url(#mask-VF2P6CEx)">
				<rect x="81.06" y="81.06" width="861.87" height="861.87" fill="currentColor"/>
			</g>
		</g>
		<g filter="url(#filter-rQtPDacD)" mask="url(#mask-Al38jLzV)">
			<g color="#fff961" class="teamapps-color-1">
				<rect x="81.06" y="81.06" width="861.87" height="861.87" fill="currentColor"/>
			</g>
		</g>
	</g>
</svg>