<svg version="1.1" xmlns="http://www.w3.org/2000/svg" xmlns:xlink="http://www.w3.org/1999/xlink" viewBox="0,0,1024,1024">
	<!-- Color names: teamapps-color-1, teamapps-color-2, teamapps-color-3 -->
	<desc>camera_front icon - Licensed under Apache License v2.0 (http://www.apache.org/licenses/LICENSE-2.0) - Created with Iconfu.com - Derivative work of Material icons (Copyright Google Inc.)</desc>
	<defs>
		<linearGradient x1="0" y1="1024" x2="1024" y2="0" id="color-28lX2T7g" gradientUnits="userSpaceOnUse">
			<stop offset="0.2" stop-color="#000000"/>
			<stop offset="0.8" stop-color="#ffffff"/>
		</linearGradient>
		<radialGradient cx="0" cy="0" r="1448.15" id="color-arxJqVXd" gradientUnits="userSpaceOnUse">
			<stop offset="0.08" stop-color="#ffffff"/>
			<stop offset="1" stop-color="#000000"/>
		</radialGradient>
		<filter id="filter-dwmdrmkp" color-interpolation-filters="sRGB">
			<feOffset/>
		</filter>
		<mask id="mask-OX4pHhT8">
			<rect fill="url(#color-28lX2T7g)" x="202.66" y="0" width="618.67" height="1024"/>
		</mask>
		<mask id="mask-SLLYC4IP">
			<path d="M821.34,106.66v567.47c0,58.73 -47.95,106.66 -106.67,106.66h-221.92l74.72,74.72v-19.26c0,-14.14 11.46,-25.6 25.6,-25.6h202.67c14.14,0 25.6,11.46 25.6,25.6v81.07c0,14.14 -11.46,25.6 -25.6,25.6h-202.67c-14.14,0 -25.6,-11.46 -25.6,-25.6v-19.26l-118.43,118.43c-7.32,7.32 -18.33,9.51 -27.9,5.55c-9.57,-3.96 -15.8,-13.3 -15.8,-23.65v-55.46h-177.07c-14.14,0 -25.6,-11.46 -25.6,-25.6v-81.07c0,-14.14 11.46,-25.6 25.6,-25.6h177.07v-29.86h-96c-58.72,0 -106.67,-47.94 -106.67,-106.66v-567.47c0,-58.73 47.95,-106.66 106.67,-106.66h405.33c58.72,0 106.67,47.94 106.67,106.66zM512,405.34c42.83,0 124.05,13.61 177.06,47.72v-320.8h-354.13v320.8c53.01,-34.11 134.23,-47.72 177.06,-47.72zM405.74,268.8c0,-58.55 47.38,-106.66 106.26,-106.66c58.72,0 106.66,47.94 106.66,106.66c0,58.72 -47.94,106.66 -106.66,106.66c-58.89,0 -106.26,-48.11 -106.26,-106.66zM714.66,25.6h-405.33c-44.58,0 -81.07,36.48 -81.07,81.06v567.47c0,44.58 36.49,81.06 81.07,81.06h121.6v81.06h-202.67v81.07h202.67v81.06l121.6,-121.6l-121.6,-121.6h283.73c44.58,0 81.07,-36.48 81.07,-81.06v-567.47c0,-44.58 -36.49,-81.06 -81.07,-81.06zM309.34,106.66h405.33v425.6c0,-67.69 -134.98,-101.33 -202.66,-101.33c-67.69,0 -202.66,33.64 -202.66,101.33zM512,349.86c44.58,0 81.06,-36.48 81.06,-81.06c0,-44.58 -36.48,-81.06 -81.06,-81.06c-44.58,0 -80.66,36.48 -80.66,81.06c0,44.58 36.08,81.06 80.66,81.06zM593.06,836.26v81.07h202.67v-81.07z" fill="url(#color-arxJqVXd)"/>
		</mask>
		<mask id="mask-U3Th9BBe">
			<path d="M821.34,106.66v567.47c0,58.73 -47.95,106.66 -106.67,106.66h-221.92l74.72,74.72v-19.26c0,-14.14 11.46,-25.6 25.6,-25.6h202.67c14.14,0 25.6,11.46 25.6,25.6v81.07c0,14.14 -11.46,25.6 -25.6,25.6h-202.67c-14.14,0 -25.6,-11.46 -25.6,-25.6v-19.26l-118.43,118.43c-7.32,7.32 -18.33,9.51 -27.9,5.55c-9.57,-3.96 -15.8,-13.3 -15.8,-23.65v-55.46h-177.07c-14.14,0 -25.6,-11.46 -25.6,-25.6v-81.07c0,-14.14 11.46,-25.6 25.6,-25.6h177.07v-29.86h-96c-58.72,0 -106.67,-47.94 -106.67,-106.66v-567.47c0,-58.73 47.95,-106.66 106.67,-106.66h405.33c58.72,0 106.67,47.94 106.67,106.66zM512,405.34c42.83,0 124.05,13.61 177.06,47.72v-320.8h-354.13v320.8c53.01,-34.11 134.23,-47.72 177.06,-47.72zM405.74,268.8c0,-58.55 47.38,-106.66 106.26,-106.66c58.72,0 106.66,47.94 106.66,106.66c0,58.72 -47.94,106.66 -106.66,106.66c-58.89,0 -106.26,-48.11 -106.26,-106.66zM714.66,25.6h-405.33c-44.58,0 -81.07,36.48 -81.07,81.06v567.47c0,44.58 36.49,81.06 81.07,81.06h121.6v81.06h-202.67v81.07h202.67v81.06l121.6,-121.6l-121.6,-121.6h283.73c44.58,0 81.07,-36.48 81.07,-81.06v-567.47c0,-44.58 -36.49,-81.06 -81.07,-81.06zM309.34,106.66h405.33v425.6c0,-67.69 -134.98,-101.33 -202.66,-101.33c-67.69,0 -202.66,33.64 -202.66,101.33zM512,349.86c44.58,0 81.06,-36.48 81.06,-81.06c0,-44.58 -36.48,-81.06 -81.06,-81.06c-44.58,0 -80.66,36.48 -80.66,81.06c0,44.58 36.08,81.06 80.66,81.06zM593.06,836.26v81.07h202.67v-81.07z" fill="#ffffff"/>
		</mask>
	</defs>
	<g fill="none" fill-rule="nonzero" style="mix-blend-mode: normal">
		<g mask="url(#mask-U3Th9BBe)">
			<g color="#ff0000" class="teamapps-color-2">
				<rect x="202.66" y="0" width="618.67" height="1024" fill="currentColor"/>
			</g>
			<g color="#bc13e0" class="teamapps-color-3" mask="url(#mask-OX4pHhT8)">
				<rect x="202.66" y="0" width="618.67" height="1024" fill="currentColor"/>
			</g>
		</g>
		<g filter="url(#filter-dwmdrmkp)" mask="url(#mask-SLLYC4IP)">
			<g color="#fff961" class="teamapps-color-1">
				<rect x="202.66" y="0" width="618.67" height="1024" fill="currentColor"/>
			</g>
		</g>
	</g>
</svg>