<svg version="1.1" xmlns="http://www.w3.org/2000/svg" xmlns:xlink="http://www.w3.org/1999/xlink" viewBox="0,0,1024,1024">
	<!-- Color names: teamapps-color-1, teamapps-color-2, teamapps-color-3 -->
	<desc>contact_phone icon - Licensed under Apache License v2.0 (http://www.apache.org/licenses/LICENSE-2.0) - Created with Iconfu.com - Derivative work of Material icons (Copyright Google Inc.)</desc>
	<defs>
		<linearGradient x1="0" y1="1024" x2="1024" y2="0" id="color-EQIddfSd" gradientUnits="userSpaceOnUse">
			<stop offset="0.2" stop-color="#000000"/>
			<stop offset="0.8" stop-color="#ffffff"/>
		</linearGradient>
		<radialGradient cx="0" cy="0" r="1448.15" id="color-JsHdEdkt" gradientUnits="userSpaceOnUse">
			<stop offset="0.08" stop-color="#ffffff"/>
			<stop offset="1" stop-color="#000000"/>
		</radialGradient>
		<filter id="filter-CTb1wGwH" color-interpolation-filters="sRGB">
			<feOffset/>
		</filter>
		<mask id="mask-4v15VBcN">
			<path d="M1023.59,795.75c-0.01,58.54 -47.37,106.65 -106.25,106.65h-810.67c-58.72,0 -106.66,-47.94 -106.66,-106.66v-567.47c0,-58.72 47.94,-106.66 106.66,-106.66h810.67c58.72,0 106.66,47.94 106.66,106.66zM709.34,512c0,-31.58 5.86,-61.58 15.62,-89.51c3.59,-10.28 13.28,-17.16 24.17,-17.16h53.72l40.1,-53.12l-48.61,-48.61c-39.95,35.12 -69.52,81.36 -84.19,134.18c-6.7,23.83 -10.41,48.73 -10.41,74.21c0,25.48 3.69,50.3 10.39,74.13c14.68,52.53 44.28,99.07 84.22,134.25l48.6,-48.6l-40.1,-53.12h-53.72c-10.88,0 -20.58,-6.88 -24.17,-17.16c-9.75,-27.92 -15.62,-57.93 -15.62,-89.51zM567.46,714.66c0,-52.28 -128.91,-100.05 -217.6,-100.05c-88.69,0 -217.6,47.76 -217.6,100.05v14.94h435.2zM253.86,390.4c0,53.15 42.85,96 96,96c53.15,0 96,-42.85 96,-96c0,-53.15 -42.85,-96 -96,-96c-53.15,0 -96,42.85 -96,96zM917.34,147.2h-810.67c-44.58,0 -81.06,36.48 -81.06,81.06v567.47c0,44.58 36.48,81.06 81.06,81.06h810.67c44.58,0 80.65,-36.48 80.65,-81.06l0.41,-567.47c0,-44.58 -36.48,-81.06 -81.06,-81.06zM749.12,593.06h66.47l61.21,81.07l-80.66,80.66c-53.1,-39.72 -92.42,-96.47 -110.66,-161.73c-7.3,-25.94 -11.34,-53.1 -11.34,-81.06c0,-27.97 4.05,-55.12 11.34,-81.06c18.24,-65.66 57.56,-122.01 110.66,-161.73l80.66,80.65l-61.21,81.07h-66.47c-8.92,25.54 -14.18,52.69 -14.18,81.06c0,28.38 5.26,55.53 14.18,81.06zM593.06,755.2h-486.4v-40.54c0,-81.06 162.14,-125.65 243.2,-125.65c81.06,0 243.2,44.58 243.2,125.65zM349.86,268.8c67.29,0 121.6,54.31 121.6,121.6c0,67.29 -54.31,121.6 -121.6,121.6c-67.29,0 -121.6,-54.31 -121.6,-121.6c0,-67.29 54.31,-121.6 121.6,-121.6z" fill="url(#color-JsHdEdkt)"/>
		</mask>
		<mask id="mask-LNzbnJUU">
			<path d="M1023.59,795.75c-0.01,58.54 -47.37,106.65 -106.25,106.65h-810.67c-58.72,0 -106.66,-47.94 -106.66,-106.66v-567.47c0,-58.72 47.94,-106.66 106.66,-106.66h810.67c58.72,0 106.66,47.94 106.66,106.66zM709.34,512c0,-31.58 5.86,-61.58 15.62,-89.51c3.59,-10.28 13.28,-17.16 24.17,-17.16h53.72l40.1,-53.12l-48.61,-48.61c-39.95,35.12 -69.52,81.36 -84.19,134.18c-6.7,23.83 -10.41,48.73 -10.41,74.21c0,25.48 3.69,50.3 10.39,74.13c14.68,52.53 44.28,99.07 84.22,134.25l48.6,-48.6l-40.1,-53.12h-53.72c-10.88,0 -20.58,-6.88 -24.17,-17.16c-9.75,-27.92 -15.62,-57.93 -15.62,-89.51zM567.46,714.66c0,-52.28 -128.91,-100.05 -217.6,-100.05c-88.69,0 -217.6,47.76 -217.6,100.05v14.94h435.2zM253.86,390.4c0,53.15 42.85,96 96,96c53.15,0 96,-42.85 96,-96c0,-53.15 -42.85,-96 -96,-96c-53.15,0 -96,42.85 -96,96zM917.34,147.2h-810.67c-44.58,0 -81.06,36.48 -81.06,81.06v567.47c0,44.58 36.48,81.06 81.06,81.06h810.67c44.58,0 80.65,-36.48 80.65,-81.06l0.41,-567.47c0,-44.58 -36.48,-81.06 -81.06,-81.06zM749.12,593.06h66.47l61.21,81.07l-80.66,80.66c-53.1,-39.72 -92.42,-96.47 -110.66,-161.73c-7.3,-25.94 -11.34,-53.1 -11.34,-81.06c0,-27.97 4.05,-55.12 11.34,-81.06c18.24,-65.66 57.56,-122.01 110.66,-161.73l80.66,80.65l-61.21,81.07h-66.47c-8.92,25.54 -14.18,52.69 -14.18,81.06c0,28.38 5.26,55.53 14.18,81.06zM593.06,755.2h-486.4v-40.54c0,-81.06 162.14,-125.65 243.2,-125.65c81.06,0 243.2,44.58 243.2,125.65zM349.86,268.8c67.29,0 121.6,54.31 121.6,121.6c0,67.29 -54.31,121.6 -121.6,121.6c-67.29,0 -121.6,-54.31 -121.6,-121.6c0,-67.29 54.31,-121.6 121.6,-121.6z" fill="#ffffff"/>
		</mask>
		<mask id="mask-sM9GaGI7">
			<rect fill="url(#color-EQIddfSd)" x="0" y="121.6" width="1024" height="780.8"/>
		</mask>
	</defs>
	<g fill="none" fill-rule="nonzero" style="mix-blend-mode: normal">
		<g mask="url(#mask-LNzbnJUU)">
			<g color="#ff0000" class="teamapps-color-2">
				<rect x="0" y="121.6" width="1024" height="780.8" fill="currentColor"/>
			</g>
			<g color="#bc13e0" class="teamapps-color-3" mask="url(#mask-sM9GaGI7)">
				<rect x="0" y="121.6" width="1024" height="780.8" fill="currentColor"/>
			</g>
		</g>
		<g filter="url(#filter-CTb1wGwH)" mask="url(#mask-4v15VBcN)">
			<g color="#fff961" class="teamapps-color-1">
				<rect x="0" y="121.6" width="1024" height="780.8" fill="currentColor"/>
			</g>
		</g>
	</g>
</svg>