<svg version="1.1" xmlns="http://www.w3.org/2000/svg" xmlns:xlink="http://www.w3.org/1999/xlink" viewBox="0,0,1024,1024">
	<!-- Color names: teamapps-color-1, teamapps-color-2, teamapps-color-3 -->
	<desc>content_paste icon - Licensed under Apache License v2.0 (http://www.apache.org/licenses/LICENSE-2.0) - Created with Iconfu.com - Derivative work of Material icons (Copyright Google Inc.)</desc>
	<defs>
		<linearGradient x1="0" y1="1024" x2="1024" y2="0" id="color-TIaJQg6l" gradientUnits="userSpaceOnUse">
			<stop offset="0.2" stop-color="#000000"/>
			<stop offset="0.8" stop-color="#ffffff"/>
		</linearGradient>
		<radialGradient cx="0" cy="0" r="1448.15" id="color-XlkAaRq3" gradientUnits="userSpaceOnUse">
			<stop offset="0.08" stop-color="#ffffff"/>
			<stop offset="1" stop-color="#000000"/>
		</radialGradient>
		<filter id="filter-7uPUJi2h" color-interpolation-filters="sRGB">
			<feOffset/>
		</filter>
		<mask id="mask-1hwooSis">
			<path d="M902.4,187.74v648.53c0,58.72 -47.94,106.67 -106.66,106.67h-567.47c-58.73,0 -106.66,-47.95 -106.66,-106.67v-648.53c0,-58.72 47.94,-106.67 106.66,-106.67h152.68c24.28,-47.7 73.51,-81.06 131.05,-81.06c57.54,0 106.77,33.36 131.05,81.06h152.68c58.73,0 106.66,47.95 106.66,106.67zM740.26,213.34v96c0,14.14 -11.46,25.6 -25.6,25.6h-405.33c-14.14,0 -25.6,-11.46 -25.6,-25.6v-96h-29.87v597.33h516.27v-597.33zM497.06,147.2c0,8.16 6.78,14.94 14.94,14.94c8.16,0 14.94,-6.78 14.94,-14.94c0,-8.16 -6.78,-14.94 -14.94,-14.94c-8.16,0 -14.94,6.78 -14.94,14.94zM795.74,106.66h-169.43c-17.02,-47.02 -61.61,-81.06 -114.3,-81.06c-52.7,0 -97.28,34.05 -114.3,81.06h-169.43c-44.58,0 -81.06,36.49 -81.06,81.07v648.53c0,44.58 36.48,81.07 81.06,81.07h567.47c44.58,0 81.06,-36.49 81.06,-81.07v-648.53c0,-44.58 -36.48,-81.07 -81.06,-81.07zM795.74,836.26h-567.47v-648.53h81.07v121.6h405.33v-121.6h81.07zM512,106.66c22.3,0 40.54,18.24 40.54,40.54c0,22.3 -18.24,40.54 -40.54,40.54c-22.3,0 -40.54,-18.24 -40.54,-40.54c0,-22.3 18.24,-40.54 40.54,-40.54z" fill="#ffffff"/>
		</mask>
		<mask id="mask-Ivk5SduL">
			<rect fill="url(#color-TIaJQg6l)" x="121.6" y="0" width="780.8" height="942.94"/>
		</mask>
		<mask id="mask-xuW3TmwK">
			<path d="M902.4,187.74v648.53c0,58.72 -47.94,106.67 -106.66,106.67h-567.47c-58.73,0 -106.66,-47.95 -106.66,-106.67v-648.53c0,-58.72 47.94,-106.67 106.66,-106.67h152.68c24.28,-47.7 73.51,-81.06 131.05,-81.06c57.54,0 106.77,33.36 131.05,81.06h152.68c58.73,0 106.66,47.95 106.66,106.67zM740.26,213.34v96c0,14.14 -11.46,25.6 -25.6,25.6h-405.33c-14.14,0 -25.6,-11.46 -25.6,-25.6v-96h-29.87v597.33h516.27v-597.33zM497.06,147.2c0,8.16 6.78,14.94 14.94,14.94c8.16,0 14.94,-6.78 14.94,-14.94c0,-8.16 -6.78,-14.94 -14.94,-14.94c-8.16,0 -14.94,6.78 -14.94,14.94zM795.74,106.66h-169.43c-17.02,-47.02 -61.61,-81.06 -114.3,-81.06c-52.7,0 -97.28,34.05 -114.3,81.06h-169.43c-44.58,0 -81.06,36.49 -81.06,81.07v648.53c0,44.58 36.48,81.07 81.06,81.07h567.47c44.58,0 81.06,-36.49 81.06,-81.07v-648.53c0,-44.58 -36.48,-81.07 -81.06,-81.07zM795.74,836.26h-567.47v-648.53h81.07v121.6h405.33v-121.6h81.07zM512,106.66c22.3,0 40.54,18.24 40.54,40.54c0,22.3 -18.24,40.54 -40.54,40.54c-22.3,0 -40.54,-18.24 -40.54,-40.54c0,-22.3 18.24,-40.54 40.54,-40.54z" fill="url(#color-XlkAaRq3)"/>
		</mask>
	</defs>
	<g fill="none" fill-rule="nonzero" style="mix-blend-mode: normal">
		<g mask="url(#mask-1hwooSis)">
			<g color="#ff0000" class="teamapps-color-2">
				<rect x="121.6" y="0" width="780.8" height="942.94" fill="currentColor"/>
			</g>
			<g color="#bc13e0" class="teamapps-color-3" mask="url(#mask-Ivk5SduL)">
				<rect x="121.6" y="0" width="780.8" height="942.94" fill="currentColor"/>
			</g>
		</g>
		<g filter="url(#filter-7uPUJi2h)" mask="url(#mask-xuW3TmwK)">
			<g color="#fff961" class="teamapps-color-1">
				<rect x="121.6" y="0" width="780.8" height="942.94" fill="currentColor"/>
			</g>
		</g>
	</g>
</svg>