<svg version="1.1" xmlns="http://www.w3.org/2000/svg" xmlns:xlink="http://www.w3.org/1999/xlink" viewBox="0,0,1024,1024">
	<!-- Color names: teamapps-color-1, teamapps-color-2, teamapps-color-3 -->
	<desc>devices_other icon - Licensed under Apache License v2.0 (http://www.apache.org/licenses/LICENSE-2.0) - Created with Iconfu.com - Derivative work of Material icons (Copyright Google Inc.)</desc>
	<defs>
		<linearGradient x1="0" y1="1024" x2="1024" y2="0" id="color-1Cc6hUYk" gradientUnits="userSpaceOnUse">
			<stop offset="0.2" stop-color="#000000"/>
			<stop offset="0.8" stop-color="#ffffff"/>
		</linearGradient>
		<radialGradient cx="0" cy="0" r="1448.15" id="color-RmvP0Rdn" gradientUnits="userSpaceOnUse">
			<stop offset="0.08" stop-color="#ffffff"/>
			<stop offset="1" stop-color="#000000"/>
		</radialGradient>
		<filter id="filter-mDtBA5ZH" color-interpolation-filters="sRGB">
			<feOffset/>
		</filter>
		<mask id="mask-7nrLg6va">
			<rect fill="url(#color-1Cc6hUYk)" x="40.54" y="162.14" width="942.93" height="699.73"/>
		</mask>
		<mask id="mask-etZADbIv">
			<path d="M309.34,729.6c14.14,0 25.6,11.46 25.6,25.6v81.06c0,14.14 -11.46,25.6 -25.6,25.6h-162.14c-58.72,0 -106.66,-47.94 -106.66,-106.66v-486.4c0,-58.72 47.94,-106.66 106.66,-106.66h729.6c14.14,0 25.6,11.46 25.6,25.6v81.06c0,14.14 -11.46,25.6 -25.6,25.6h-704v435.2zM983.46,390.4v405.34c0,34.4 -31.73,66.13 -66.13,66.13h-243.2c-34.39,0 -66.14,-31.72 -66.14,-66.13v-67.04c-7.03,17.28 -17.27,32.91 -29.86,46.19v61.38c0,14.14 -11.46,25.6 -25.6,25.6h-162.14c-14.14,0 -25.6,-11.46 -25.6,-25.6v-61.37c-24.84,-26.13 -40.54,-61.21 -40.54,-100.76c0,-39.56 15.7,-74.63 40.54,-100.76v-61.38c0,-14.14 11.46,-25.6 25.6,-25.6h162.14c14.14,0 25.6,11.46 25.6,25.6v61.39c12.6,13.28 22.83,28.91 29.86,46.19v-229.18c0,-34.4 31.73,-66.14 66.14,-66.14h243.2c34.41,0 66.13,31.74 66.13,66.14zM740.26,456.54v273.06h110.94v-273.06zM506.66,674.14c0,-19.5 -15.7,-35.2 -35.2,-35.2c-19.5,0 -35.2,15.7 -35.2,35.2c0,19.5 15.7,35.2 35.2,35.2c19.5,0 35.2,-15.7 35.2,-35.2zM147.2,268.8h729.6v-81.06h-729.6c-44.58,0 -81.06,36.48 -81.06,81.06v486.4c0,44.58 36.48,81.06 81.06,81.06h162.14v-81.06h-162.14zM917.34,349.86h-243.2c-20.26,0 -40.54,20.27 -40.54,40.54v405.34c0,20.26 20.27,40.53 40.54,40.53h243.2c20.26,0 40.53,-20.26 40.53,-40.53v-405.34c0,-20.26 -20.26,-40.54 -40.53,-40.54zM552.54,512h-162.14v72.15c-24.73,22.3 -40.54,53.91 -40.54,89.98c0,36.07 15.81,67.69 40.54,89.98v72.14h162.14v-72.14c24.73,-22.3 40.53,-54.31 40.53,-89.98c0,-35.67 -15.8,-67.69 -40.53,-89.98zM876.8,755.2h-162.14v-324.26h162.14zM471.46,734.94c-33.64,0 -60.8,-27.16 -60.8,-60.8c0,-33.64 27.16,-60.8 60.8,-60.8c33.64,0 60.8,27.16 60.8,60.8c0,33.64 -27.16,60.8 -60.8,60.8z" fill="url(#color-RmvP0Rdn)"/>
		</mask>
		<mask id="mask-HUvY7WHk">
			<path d="M309.34,729.6c14.14,0 25.6,11.46 25.6,25.6v81.06c0,14.14 -11.46,25.6 -25.6,25.6h-162.14c-58.72,0 -106.66,-47.94 -106.66,-106.66v-486.4c0,-58.72 47.94,-106.66 106.66,-106.66h729.6c14.14,0 25.6,11.46 25.6,25.6v81.06c0,14.14 -11.46,25.6 -25.6,25.6h-704v435.2zM983.46,390.4v405.34c0,34.4 -31.73,66.13 -66.13,66.13h-243.2c-34.39,0 -66.14,-31.72 -66.14,-66.13v-67.04c-7.03,17.28 -17.27,32.91 -29.86,46.19v61.38c0,14.14 -11.46,25.6 -25.6,25.6h-162.14c-14.14,0 -25.6,-11.46 -25.6,-25.6v-61.37c-24.84,-26.13 -40.54,-61.21 -40.54,-100.76c0,-39.56 15.7,-74.63 40.54,-100.76v-61.38c0,-14.14 11.46,-25.6 25.6,-25.6h162.14c14.14,0 25.6,11.46 25.6,25.6v61.39c12.6,13.28 22.83,28.91 29.86,46.19v-229.18c0,-34.4 31.73,-66.14 66.14,-66.14h243.2c34.41,0 66.13,31.74 66.13,66.14zM740.26,456.54v273.06h110.94v-273.06zM506.66,674.14c0,-19.5 -15.7,-35.2 -35.2,-35.2c-19.5,0 -35.2,15.7 -35.2,35.2c0,19.5 15.7,35.2 35.2,35.2c19.5,0 35.2,-15.7 35.2,-35.2zM147.2,268.8h729.6v-81.06h-729.6c-44.58,0 -81.06,36.48 -81.06,81.06v486.4c0,44.58 36.48,81.06 81.06,81.06h162.14v-81.06h-162.14zM917.34,349.86h-243.2c-20.26,0 -40.54,20.27 -40.54,40.54v405.34c0,20.26 20.27,40.53 40.54,40.53h243.2c20.26,0 40.53,-20.26 40.53,-40.53v-405.34c0,-20.26 -20.26,-40.54 -40.53,-40.54zM552.54,512h-162.14v72.15c-24.73,22.3 -40.54,53.91 -40.54,89.98c0,36.07 15.81,67.69 40.54,89.98v72.14h162.14v-72.14c24.73,-22.3 40.53,-54.31 40.53,-89.98c0,-35.67 -15.8,-67.69 -40.53,-89.98zM876.8,755.2h-162.14v-324.26h162.14zM471.46,734.94c-33.64,0 -60.8,-27.16 -60.8,-60.8c0,-33.64 27.16,-60.8 60.8,-60.8c33.64,0 60.8,27.16 60.8,60.8c0,33.64 -27.16,60.8 -60.8,60.8z" fill="#ffffff"/>
		</mask>
	</defs>
	<g fill="none" fill-rule="nonzero" style="mix-blend-mode: normal">
		<g mask="url(#mask-HUvY7WHk)">
			<g color="#ff0000" class="teamapps-color-2">
				<rect x="40.54" y="162.14" width="942.93" height="699.73" fill="currentColor"/>
			</g>
			<g color="#bc13e0" class="teamapps-color-3" mask="url(#mask-7nrLg6va)">
				<rect x="40.54" y="162.14" width="942.93" height="699.73" fill="currentColor"/>
			</g>
		</g>
		<g filter="url(#filter-mDtBA5ZH)" mask="url(#mask-etZADbIv)">
			<g color="#fff961" class="teamapps-color-1">
				<rect x="40.54" y="162.14" width="942.93" height="699.73" fill="currentColor"/>
			</g>
		</g>
	</g>
</svg>