<svg version="1.1" xmlns="http://www.w3.org/2000/svg" xmlns:xlink="http://www.w3.org/1999/xlink" viewBox="0,0,1024,1024">
	<!-- Color names: teamapps-color-1, teamapps-color-2, teamapps-color-3 -->
	<desc>device_hub icon - Licensed under Apache License v2.0 (http://www.apache.org/licenses/LICENSE-2.0) - Created with Iconfu.com - Derivative work of Material icons (Copyright Google Inc.)</desc>
	<defs>
		<radialGradient cx="0" cy="0" r="1448.15" id="color-JF45k0JS" gradientUnits="userSpaceOnUse">
			<stop offset="0.08" stop-color="#ffffff"/>
			<stop offset="1" stop-color="#000000"/>
		</radialGradient>
		<linearGradient x1="0" y1="1024" x2="1024" y2="0" id="color-sjr2qLzh" gradientUnits="userSpaceOnUse">
			<stop offset="0.2" stop-color="#000000"/>
			<stop offset="0.8" stop-color="#ffffff"/>
		</linearGradient>
		<filter id="filter-OUL95k9z" color-interpolation-filters="sRGB">
			<feOffset/>
		</filter>
		<mask id="mask-Gc5nKZRl">
			<path d="M902.4,674.14v202.66c0,14.14 -11.46,25.6 -25.6,25.6h-202.66c-14.14,0 -25.6,-11.46 -25.6,-25.6v-113.38l-136.54,-143.36l-136.54,143.36v113.38c0,14.14 -11.46,25.6 -25.6,25.6h-202.66c-14.14,0 -25.6,-11.46 -25.6,-25.6v-202.66c0,-14.14 11.46,-25.6 25.6,-25.6h151.53l147.13,-147.14v-101.54c-47.7,-24.28 -81.06,-73.51 -81.06,-131.05c0,-81.43 65.77,-147.2 147.2,-147.2c81.43,0 147.2,65.77 147.2,147.2c0,57.54 -33.36,106.77 -81.06,131.05v101.54l147.13,147.14h151.53c14.14,0 25.6,11.46 25.6,25.6zM714.66,674.14l-162.13,-162.14v-128.9c47.02,-17.02 81.06,-61.61 81.06,-114.3c0,-67.29 -54.31,-121.6 -121.6,-121.6c-67.29,0 -121.6,54.31 -121.6,121.6c0,52.7 34.05,97.28 81.06,114.3v128.9l-162.13,162.14h-162.14v202.66h202.66v-123.62l162.14,-170.24l162.14,170.24v123.62h202.66v-202.66z" fill="url(#color-JF45k0JS)"/>
		</mask>
		<mask id="mask-jcxz6ZWt">
			<rect fill="url(#color-sjr2qLzh)" x="121.6" y="121.6" width="780.8" height="780.8"/>
		</mask>
		<mask id="mask-lXtkiDcP">
			<path d="M902.4,674.14v202.66c0,14.14 -11.46,25.6 -25.6,25.6h-202.66c-14.14,0 -25.6,-11.46 -25.6,-25.6v-113.38l-136.54,-143.36l-136.54,143.36v113.38c0,14.14 -11.46,25.6 -25.6,25.6h-202.66c-14.14,0 -25.6,-11.46 -25.6,-25.6v-202.66c0,-14.14 11.46,-25.6 25.6,-25.6h151.53l147.13,-147.14v-101.54c-47.7,-24.28 -81.06,-73.51 -81.06,-131.05c0,-81.43 65.77,-147.2 147.2,-147.2c81.43,0 147.2,65.77 147.2,147.2c0,57.54 -33.36,106.77 -81.06,131.05v101.54l147.13,147.14h151.53c14.14,0 25.6,11.46 25.6,25.6zM714.66,674.14l-162.13,-162.14v-128.9c47.02,-17.02 81.06,-61.61 81.06,-114.3c0,-67.29 -54.31,-121.6 -121.6,-121.6c-67.29,0 -121.6,54.31 -121.6,121.6c0,52.7 34.05,97.28 81.06,114.3v128.9l-162.13,162.14h-162.14v202.66h202.66v-123.62l162.14,-170.24l162.14,170.24v123.62h202.66v-202.66z" fill="#ffffff"/>
		</mask>
	</defs>
	<g fill="none" fill-rule="nonzero" style="mix-blend-mode: normal">
		<g mask="url(#mask-lXtkiDcP)">
			<g color="#ff0000" class="teamapps-color-2">
				<rect x="121.6" y="121.6" width="780.8" height="780.8" fill="currentColor"/>
			</g>
			<g color="#bc13e0" class="teamapps-color-3" mask="url(#mask-jcxz6ZWt)">
				<rect x="121.6" y="121.6" width="780.8" height="780.8" fill="currentColor"/>
			</g>
		</g>
		<g filter="url(#filter-OUL95k9z)" mask="url(#mask-Gc5nKZRl)">
			<g color="#fff961" class="teamapps-color-1">
				<rect x="121.6" y="121.6" width="780.8" height="780.8" fill="currentColor"/>
			</g>
		</g>
	</g>
</svg>