<svg version="1.1" xmlns="http://www.w3.org/2000/svg" xmlns:xlink="http://www.w3.org/1999/xlink" viewBox="0,0,1024,1024">
	<!-- Color names: teamapps-color-1, teamapps-color-2, teamapps-color-3 -->
	<desc>event_seat icon - Licensed under Apache License v2.0 (http://www.apache.org/licenses/LICENSE-2.0) - Created with Iconfu.com - Derivative work of Material icons (Copyright Google Inc.)</desc>
	<defs>
		<linearGradient x1="0" y1="1024" x2="1024" y2="0" id="color-hUAailT7" gradientUnits="userSpaceOnUse">
			<stop offset="0.2" stop-color="#000000"/>
			<stop offset="0.8" stop-color="#ffffff"/>
		</linearGradient>
		<radialGradient cx="0" cy="0" r="1448.15" id="color-SinQtZ3d" gradientUnits="userSpaceOnUse">
			<stop offset="0.08" stop-color="#ffffff"/>
			<stop offset="1" stop-color="#000000"/>
		</radialGradient>
		<filter id="filter-5d7mJohu" color-interpolation-filters="sRGB">
			<feOffset/>
		</filter>
		<mask id="mask-08W2rBqg">
			<path d="M714.66,578.14h-405.33c-14.14,0 -25.6,-11.46 -25.6,-25.6v-324.27c0,-58.72 47.94,-106.66 106.66,-106.66h243.2c58.72,0 106.66,47.94 106.66,106.66v324.27c0,14.14 -11.46,25.6 -25.6,25.6zM187.74,608h648.53c14.14,0 25.6,11.46 25.6,25.6v243.2c0,14.14 -11.46,25.6 -25.6,25.6h-121.6c-14.14,0 -25.6,-11.46 -25.6,-25.6v-96h-354.13v96c0,14.14 -11.46,25.6 -25.6,25.6h-121.6c-14.14,0 -25.6,-11.46 -25.6,-25.6v-243.2c0,-14.14 11.46,-25.6 25.6,-25.6zM106.66,405.34h121.6c14.14,0 25.6,11.46 25.6,25.6v121.6c0,14.14 -11.46,25.6 -25.6,25.6h-121.6c-14.14,0 -25.6,-11.46 -25.6,-25.6v-121.6c0,-14.14 11.46,-25.6 25.6,-25.6zM795.74,405.34h121.6c14.14,0 25.6,11.46 25.6,25.6v121.6c0,14.14 -11.46,25.6 -25.6,25.6h-121.6c-14.14,0 -25.6,-11.46 -25.6,-25.6v-121.6c0,-14.14 11.46,-25.6 25.6,-25.6zM714.66,228.26c0,-44.58 -36.48,-81.06 -81.06,-81.06h-243.2c-44.58,0 -81.06,36.48 -81.06,81.06v324.27h405.33zM187.74,876.8h121.6v-121.6h405.33v121.6h121.6v-243.2h-648.53zM795.74,552.54h121.6v-121.6h-121.6zM106.66,552.54h121.6v-121.6h-121.6z" fill="url(#color-SinQtZ3d)"/>
		</mask>
		<mask id="mask-RdgOGJSG">
			<rect fill="url(#color-hUAailT7)" x="81.06" y="121.6" width="861.87" height="780.8"/>
		</mask>
		<mask id="mask-z4x3ZYrI">
			<path d="M714.66,578.14h-405.33c-14.14,0 -25.6,-11.46 -25.6,-25.6v-324.27c0,-58.72 47.94,-106.66 106.66,-106.66h243.2c58.72,0 106.66,47.94 106.66,106.66v324.27c0,14.14 -11.46,25.6 -25.6,25.6zM187.74,608h648.53c14.14,0 25.6,11.46 25.6,25.6v243.2c0,14.14 -11.46,25.6 -25.6,25.6h-121.6c-14.14,0 -25.6,-11.46 -25.6,-25.6v-96h-354.13v96c0,14.14 -11.46,25.6 -25.6,25.6h-121.6c-14.14,0 -25.6,-11.46 -25.6,-25.6v-243.2c0,-14.14 11.46,-25.6 25.6,-25.6zM106.66,405.34h121.6c14.14,0 25.6,11.46 25.6,25.6v121.6c0,14.14 -11.46,25.6 -25.6,25.6h-121.6c-14.14,0 -25.6,-11.46 -25.6,-25.6v-121.6c0,-14.14 11.46,-25.6 25.6,-25.6zM795.74,405.34h121.6c14.14,0 25.6,11.46 25.6,25.6v121.6c0,14.14 -11.46,25.6 -25.6,25.6h-121.6c-14.14,0 -25.6,-11.46 -25.6,-25.6v-121.6c0,-14.14 11.46,-25.6 25.6,-25.6zM714.66,228.26c0,-44.58 -36.48,-81.06 -81.06,-81.06h-243.2c-44.58,0 -81.06,36.48 -81.06,81.06v324.27h405.33zM187.74,876.8h121.6v-121.6h405.33v121.6h121.6v-243.2h-648.53zM795.74,552.54h121.6v-121.6h-121.6zM106.66,552.54h121.6v-121.6h-121.6z" fill="#ffffff"/>
		</mask>
	</defs>
	<g fill="none" fill-rule="nonzero" style="mix-blend-mode: normal">
		<g mask="url(#mask-z4x3ZYrI)">
			<g color="#ff0000" class="teamapps-color-2">
				<rect x="81.06" y="121.6" width="861.87" height="780.8" fill="currentColor"/>
			</g>
			<g color="#bc13e0" class="teamapps-color-3" mask="url(#mask-RdgOGJSG)">
				<rect x="81.06" y="121.6" width="861.87" height="780.8" fill="currentColor"/>
			</g>
		</g>
		<g filter="url(#filter-5d7mJohu)" mask="url(#mask-08W2rBqg)">
			<g color="#fff961" class="teamapps-color-1">
				<rect x="81.06" y="121.6" width="861.87" height="780.8" fill="currentColor"/>
			</g>
		</g>
	</g>
</svg>