<svg version="1.1" xmlns="http://www.w3.org/2000/svg" xmlns:xlink="http://www.w3.org/1999/xlink" viewBox="0,0,1024,1024">
	<!-- Color names: teamapps-color-1, teamapps-color-2, teamapps-color-3 -->
	<desc>exposure_neg_2 icon - Licensed under Apache License v2.0 (http://www.apache.org/licenses/LICENSE-2.0) - Created with Iconfu.com - Derivative work of Material icons (Copyright Google Inc.)</desc>
	<defs>
		<radialGradient cx="0" cy="0" r="1448.15" id="color-ivYTKU37" gradientUnits="userSpaceOnUse">
			<stop offset="0.08" stop-color="#ffffff"/>
			<stop offset="1" stop-color="#000000"/>
		</radialGradient>
		<linearGradient x1="0" y1="1024" x2="1024" y2="0" id="color-UHK0qirV" gradientUnits="userSpaceOnUse">
			<stop offset="0.2" stop-color="#000000"/>
			<stop offset="0.8" stop-color="#ffffff"/>
		</linearGradient>
		<filter id="filter-OmC9eoSl" color-interpolation-filters="sRGB">
			<feOffset/>
		</filter>
		<mask id="mask-7Fj3NelZ">
			<path d="M902.4,685.89v69.31c0,14.14 -11.46,25.6 -25.6,25.6h-349.8c-14.14,0 -25.6,-11.46 -25.6,-25.6v-60.39c0,-6.4 2.4,-12.58 6.73,-17.3l169.11,-184.53c0.07,-0.07 0.13,-0.14 0.2,-0.21c13.91,-14.68 25.09,-28.17 33.93,-39.71c0.07,-0.1 0.15,-0.19 0.23,-0.29c8.77,-10.96 15.4,-21.26 20.46,-30.29c4.54,-8.11 7.36,-15.32 9.25,-22.08c1.65,-7.39 2.48,-13.78 2.48,-20.14c0,-8.6 -1.45,-16.76 -3.91,-24.6c-2.8,-7.65 -6.14,-13.35 -9.89,-17.57c-4.17,-4.69 -9.28,-8.48 -15,-10.97c-5.42,-2.36 -12.75,-3.95 -22.61,-3.95c-11.94,0 -21.6,2.02 -28.51,5.09c-8,3.55 -13.94,7.86 -18.3,12.87c-4.8,6.01 -8.77,13.13 -11.37,21.43c-2.46,8.36 -3.83,17.82 -4.18,28.67c-0.45,13.81 -11.77,24.77 -25.59,24.77h-86.74c-14.33,0 -25.87,-11.76 -25.6,-26.09c0.46,-24.1 4.57,-47.34 13.03,-69.45c8.97,-23.58 22.25,-44.02 39.74,-61.54c17.37,-17.82 39.16,-31.86 64.08,-41.54c25.25,-9.82 53.59,-14.72 84.26,-14.72c28.07,0 53.82,3.5 77.39,10.9c0.24,0.08 0.48,0.15 0.72,0.24c22.07,7.65 42.77,18.45 59.78,33.91c16.81,14.87 29.53,33.13 38.22,54.36c8.7,21.27 12.85,44.48 12.85,68.87c0,18.42 -2.83,37.38 -9.02,55.93c-5.9,17.68 -13.98,35.12 -24.12,52.33c-9.99,16.95 -21.7,33.84 -35.5,50.66c-13.09,15.96 -27.34,32.73 -43.41,49.24l-75.63,81.18h182.34c14.14,0 25.6,11.46 25.6,25.6zM456.54,471.46v81.07c0,14.14 -11.46,25.6 -25.6,25.6h-324.27c-14.14,0 -25.6,-11.46 -25.6,-25.6v-81.07c0,-14.14 11.46,-25.6 25.6,-25.6h324.27c14.14,0 25.6,11.46 25.6,25.6zM635.62,685.89l115.93,-124.44c15.4,-15.81 29.18,-32.01 42.15,-47.82c12.97,-15.81 23.92,-31.62 33.24,-47.42c9.32,-15.81 16.62,-31.62 21.89,-47.42c5.27,-15.81 7.7,-32.02 7.7,-47.83c0,-21.48 -3.65,-41.34 -10.94,-59.18c-7.3,-17.83 -17.83,-32.83 -31.62,-44.99c-13.78,-12.57 -31.21,-21.9 -51.07,-28.78c-20.67,-6.49 -43.78,-9.73 -69.72,-9.73c-27.97,0 -53.1,4.47 -74.98,12.98c-21.89,8.51 -40.54,20.66 -55.13,35.66c-15,15 -26.34,32.43 -34.05,52.7c-7.3,19.05 -10.94,39.32 -11.35,60.8h86.74c0.41,-12.57 2.03,-24.32 5.27,-35.26c3.65,-11.75 9.32,-21.89 16.21,-30.4c7.3,-8.51 16.63,-15 27.57,-19.86c10.94,-4.86 24.32,-7.3 38.91,-7.3c12.57,0 23.51,2.02 32.83,6.08c9.32,4.06 17.42,10.14 23.91,17.43c6.49,7.3 11.35,16.21 15,26.34c3.24,10.14 5.26,21.08 5.26,32.83c0,8.92 -1.22,17.43 -3.24,26.35c-2.43,8.92 -6.08,18.23 -11.75,28.37c-5.67,10.14 -12.98,21.49 -22.71,33.65c-9.32,12.16 -21.07,26.34 -35.66,41.74l-169.02,184.43v60.39h349.8v-69.31zM106.66,471.46v81.07h324.27v-81.07z" fill="url(#color-ivYTKU37)"/>
		</mask>
		<mask id="mask-r0goRnii">
			<rect fill="url(#color-UHK0qirV)" x="81.06" y="202.66" width="821.34" height="578.14"/>
		</mask>
		<mask id="mask-YUY96zYM">
			<path d="M902.4,685.89v69.31c0,14.14 -11.46,25.6 -25.6,25.6h-349.8c-14.14,0 -25.6,-11.46 -25.6,-25.6v-60.39c0,-6.4 2.4,-12.58 6.73,-17.3l169.11,-184.53c0.07,-0.07 0.13,-0.14 0.2,-0.21c13.91,-14.68 25.09,-28.17 33.93,-39.71c0.07,-0.1 0.15,-0.19 0.23,-0.29c8.77,-10.96 15.4,-21.26 20.46,-30.29c4.54,-8.11 7.36,-15.32 9.25,-22.08c1.65,-7.39 2.48,-13.78 2.48,-20.14c0,-8.6 -1.45,-16.76 -3.91,-24.6c-2.8,-7.65 -6.14,-13.35 -9.89,-17.57c-4.17,-4.69 -9.28,-8.48 -15,-10.97c-5.42,-2.36 -12.75,-3.95 -22.61,-3.95c-11.94,0 -21.6,2.02 -28.51,5.09c-8,3.55 -13.94,7.86 -18.3,12.87c-4.8,6.01 -8.77,13.13 -11.37,21.43c-2.46,8.36 -3.83,17.82 -4.18,28.67c-0.45,13.81 -11.77,24.77 -25.59,24.77h-86.74c-14.33,0 -25.87,-11.76 -25.6,-26.09c0.46,-24.1 4.57,-47.34 13.03,-69.45c8.97,-23.58 22.25,-44.02 39.74,-61.54c17.37,-17.82 39.16,-31.86 64.08,-41.54c25.25,-9.82 53.59,-14.72 84.26,-14.72c28.07,0 53.82,3.5 77.39,10.9c0.24,0.08 0.48,0.15 0.72,0.24c22.07,7.65 42.77,18.45 59.78,33.91c16.81,14.87 29.53,33.13 38.22,54.36c8.7,21.27 12.85,44.48 12.85,68.87c0,18.42 -2.83,37.38 -9.02,55.93c-5.9,17.68 -13.98,35.12 -24.12,52.33c-9.99,16.95 -21.7,33.84 -35.5,50.66c-13.09,15.96 -27.34,32.73 -43.41,49.24l-75.63,81.18h182.34c14.14,0 25.6,11.46 25.6,25.6zM456.54,471.46v81.07c0,14.14 -11.46,25.6 -25.6,25.6h-324.27c-14.14,0 -25.6,-11.46 -25.6,-25.6v-81.07c0,-14.14 11.46,-25.6 25.6,-25.6h324.27c14.14,0 25.6,11.46 25.6,25.6zM635.62,685.89l115.93,-124.44c15.4,-15.81 29.18,-32.01 42.15,-47.82c12.97,-15.81 23.92,-31.62 33.24,-47.42c9.32,-15.81 16.62,-31.62 21.89,-47.42c5.27,-15.81 7.7,-32.02 7.7,-47.83c0,-21.48 -3.65,-41.34 -10.94,-59.18c-7.3,-17.83 -17.83,-32.83 -31.62,-44.99c-13.78,-12.57 -31.21,-21.9 -51.07,-28.78c-20.67,-6.49 -43.78,-9.73 -69.72,-9.73c-27.97,0 -53.1,4.47 -74.98,12.98c-21.89,8.51 -40.54,20.66 -55.13,35.66c-15,15 -26.34,32.43 -34.05,52.7c-7.3,19.05 -10.94,39.32 -11.35,60.8h86.74c0.41,-12.57 2.03,-24.32 5.27,-35.26c3.65,-11.75 9.32,-21.89 16.21,-30.4c7.3,-8.51 16.63,-15 27.57,-19.86c10.94,-4.86 24.32,-7.3 38.91,-7.3c12.57,0 23.51,2.02 32.83,6.08c9.32,4.06 17.42,10.14 23.91,17.43c6.49,7.3 11.35,16.21 15,26.34c3.24,10.14 5.26,21.08 5.26,32.83c0,8.92 -1.22,17.43 -3.24,26.35c-2.43,8.92 -6.08,18.23 -11.75,28.37c-5.67,10.14 -12.98,21.49 -22.71,33.65c-9.32,12.16 -21.07,26.34 -35.66,41.74l-169.02,184.43v60.39h349.8v-69.31zM106.66,471.46v81.07h324.27v-81.07z" fill="#ffffff"/>
		</mask>
	</defs>
	<g fill="none" fill-rule="nonzero" style="mix-blend-mode: normal">
		<g mask="url(#mask-YUY96zYM)">
			<g color="#ff0000" class="teamapps-color-2">
				<rect x="81.06" y="202.66" width="821.34" height="578.14" fill="currentColor"/>
			</g>
			<g color="#bc13e0" class="teamapps-color-3" mask="url(#mask-r0goRnii)">
				<rect x="81.06" y="202.66" width="821.34" height="578.14" fill="currentColor"/>
			</g>
		</g>
		<g filter="url(#filter-OmC9eoSl)" mask="url(#mask-7Fj3NelZ)">
			<g color="#fff961" class="teamapps-color-1">
				<rect x="81.06" y="202.66" width="821.34" height="578.14" fill="currentColor"/>
			</g>
		</g>
	</g>
</svg>