<svg version="1.1" xmlns="http://www.w3.org/2000/svg" xmlns:xlink="http://www.w3.org/1999/xlink" viewBox="0,0,1024,1024">
	<!-- Color names: teamapps-color-1, teamapps-color-2, teamapps-color-3 -->
	<desc>fast_rewind icon - Licensed under Apache License v2.0 (http://www.apache.org/licenses/LICENSE-2.0) - Created with Iconfu.com - Derivative work of Material icons (Copyright Google Inc.)</desc>
	<defs>
		<linearGradient x1="0" y1="1024" x2="1024" y2="0" id="color-bORwCx8L" gradientUnits="userSpaceOnUse">
			<stop offset="0.2" stop-color="#000000"/>
			<stop offset="0.8" stop-color="#ffffff"/>
		</linearGradient>
		<radialGradient cx="0" cy="0" r="1448.15" id="color-Rwyf93HU" gradientUnits="userSpaceOnUse">
			<stop offset="0.08" stop-color="#ffffff"/>
			<stop offset="1" stop-color="#000000"/>
		</radialGradient>
		<filter id="filter-8TWbTsCQ" color-interpolation-filters="sRGB">
			<feOffset/>
		</filter>
		<mask id="mask-do6S0aU9">
			<rect fill="url(#color-bORwCx8L)" x="101.34" y="243.2" width="760.53" height="537.6"/>
		</mask>
		<mask id="mask-GEOTV76Q">
			<path d="M112.17,491.09l344.53,-243.2c7.81,-5.52 18.05,-6.22 26.54,-1.82c8.49,4.4 13.82,13.17 13.82,22.73v208.1l324.44,-229.02c7.81,-5.52 18.05,-6.22 26.54,-1.82c8.49,4.4 13.82,13.17 13.82,22.73v486.4c0,9.56 -5.33,18.33 -13.82,22.73c-8.49,4.4 -18.73,3.7 -26.54,-1.82l-324.44,-229.02v208.1c0,9.56 -5.33,18.33 -13.82,22.73c-8.49,4.4 -18.73,3.7 -26.54,-1.82l-344.53,-243.2c-6.8,-4.8 -10.84,-12.6 -10.84,-20.91c0,-8.32 4.04,-16.12 10.84,-20.91zM471.46,755.2v-486.4l-344.53,243.2zM491.74,512l344.53,243.2v-486.4z" fill="#ffffff"/>
		</mask>
		<mask id="mask-svSwQjce">
			<path d="M112.17,491.09l344.53,-243.2c7.81,-5.52 18.05,-6.22 26.54,-1.82c8.49,4.4 13.82,13.17 13.82,22.73v208.1l324.44,-229.02c7.81,-5.52 18.05,-6.22 26.54,-1.82c8.49,4.4 13.82,13.17 13.82,22.73v486.4c0,9.56 -5.33,18.33 -13.82,22.73c-8.49,4.4 -18.73,3.7 -26.54,-1.82l-324.44,-229.02v208.1c0,9.56 -5.33,18.33 -13.82,22.73c-8.49,4.4 -18.73,3.7 -26.54,-1.82l-344.53,-243.2c-6.8,-4.8 -10.84,-12.6 -10.84,-20.91c0,-8.32 4.04,-16.12 10.84,-20.91zM471.46,755.2v-486.4l-344.53,243.2zM491.74,512l344.53,243.2v-486.4z" fill="url(#color-Rwyf93HU)"/>
		</mask>
	</defs>
	<g fill="none" fill-rule="nonzero" style="mix-blend-mode: normal">
		<g mask="url(#mask-GEOTV76Q)">
			<g color="#ff0000" class="teamapps-color-2">
				<rect x="101.34" y="243.2" width="760.53" height="537.6" fill="currentColor"/>
			</g>
			<g color="#bc13e0" class="teamapps-color-3" mask="url(#mask-do6S0aU9)">
				<rect x="101.34" y="243.2" width="760.53" height="537.6" fill="currentColor"/>
			</g>
		</g>
		<g filter="url(#filter-8TWbTsCQ)" mask="url(#mask-svSwQjce)">
			<g color="#fff961" class="teamapps-color-1">
				<rect x="101.34" y="243.2" width="760.53" height="537.6" fill="currentColor"/>
			</g>
		</g>
	</g>
</svg>