<svg version="1.1" xmlns="http://www.w3.org/2000/svg" xmlns:xlink="http://www.w3.org/1999/xlink" viewBox="0,0,1024,1024">
	<!-- Color names: teamapps-color-1, teamapps-color-2, teamapps-color-3 -->
	<desc>find_replace icon - Licensed under Apache License v2.0 (http://www.apache.org/licenses/LICENSE-2.0) - Created with Iconfu.com - Derivative work of Material icons (Copyright Google Inc.)</desc>
	<defs>
		<radialGradient cx="0" cy="0" r="1448.15" id="color-K6OyFppA" gradientUnits="userSpaceOnUse">
			<stop offset="0.08" stop-color="#ffffff"/>
			<stop offset="1" stop-color="#000000"/>
		</radialGradient>
		<linearGradient x1="0" y1="1024" x2="1024" y2="0" id="color-Yua50cFD" gradientUnits="userSpaceOnUse">
			<stop offset="0.2" stop-color="#000000"/>
			<stop offset="0.8" stop-color="#ffffff"/>
		</linearGradient>
		<filter id="filter-AZULhUPQ" color-interpolation-filters="sRGB">
			<feOffset/>
		</filter>
		<mask id="mask-jNU0i36I">
			<path d="M914.77,854.37l-60.4,60.4c-9.99,9.99 -26.19,10 -36.19,0.02l-182.02,-181.65c-47.64,30.02 -104.09,47.67 -164.7,47.67c-76.09,0 -145.89,-27.47 -199.89,-73.24l-65.73,65.74c-7.32,7.32 -18.33,9.51 -27.9,5.55c-9.57,-3.96 -15.8,-13.3 -15.8,-23.65v-243.2c0,-14.14 11.46,-25.6 25.6,-25.6h243.2c10.35,0 19.69,6.24 23.65,15.8c3.96,9.57 1.77,20.58 -5.55,27.9l-83.46,83.45c29.67,21.97 66.27,34.98 105.88,34.98c85.69,0 157.24,-60.92 173.52,-141.6c2.41,-11.95 12.91,-20.54 25.09,-20.54h81.88c7.39,0 14.43,3.2 19.29,8.77c4.86,5.57 7.08,12.97 6.07,20.3c-6.04,44.17 -21.71,85.03 -44.19,120.69l181.65,182.02c9.98,10 9.97,26.2 -0.02,36.19zM272.86,456.54h-81.88c-7.43,0 -14.49,-3.23 -19.35,-8.84c-4.86,-5.62 -7.05,-13.07 -5.98,-20.42c21.64,-149.72 149.74,-265.14 305.82,-265.14c76.09,0 145.89,27.46 199.9,73.23l65.74,-65.73c7.32,-7.32 18.33,-9.51 27.9,-5.55c9.57,3.96 15.8,13.3 15.8,23.65v243.2c0,14.14 -11.46,25.6 -25.6,25.6h-243.2c-10.35,0 -19.69,-6.24 -23.65,-15.8c-3.96,-9.57 -1.77,-20.58 5.55,-27.9l83.45,-83.46c-29.67,-21.96 -66.27,-34.98 -105.89,-34.98c-85.69,0 -157.23,60.92 -173.51,141.6c-2.41,11.95 -12.91,20.54 -25.09,20.54zM700.07,639.27c26.75,-36.48 45.4,-79.85 51.89,-127.27h-81.88c-18.65,92.42 -100.53,162.14 -198.62,162.14c-55.94,0 -106.6,-22.7 -143.49,-59.18l102.96,-102.95h-243.2v243.2l83.09,-83.1c51.48,51.48 122.41,83.1 200.64,83.1c62.82,0 120.79,-20.67 167.81,-55.13l196.99,196.59l60.4,-60.4zM471.46,268.8c55.94,0 106.6,22.7 143.49,59.18l-102.95,102.96h243.2v-243.2l-83.1,83.09c-51.48,-51.48 -122.41,-83.09 -200.64,-83.09c-143.08,0 -260.62,105.79 -280.49,243.2h81.88c18.65,-92.42 100.52,-162.14 198.61,-162.14z" fill="url(#color-K6OyFppA)"/>
		</mask>
		<mask id="mask-mVUlGxIj">
			<rect fill="url(#color-Yua50cFD)" x="162.14" y="162.14" width="760.13" height="760.13"/>
		</mask>
		<mask id="mask-ppC32kJD">
			<path d="M914.77,854.37l-60.4,60.4c-9.99,9.99 -26.19,10 -36.19,0.02l-182.02,-181.65c-47.64,30.02 -104.09,47.67 -164.7,47.67c-76.09,0 -145.89,-27.47 -199.89,-73.24l-65.73,65.74c-7.32,7.32 -18.33,9.51 -27.9,5.55c-9.57,-3.96 -15.8,-13.3 -15.8,-23.65v-243.2c0,-14.14 11.46,-25.6 25.6,-25.6h243.2c10.35,0 19.69,6.24 23.65,15.8c3.96,9.57 1.77,20.58 -5.55,27.9l-83.46,83.45c29.67,21.97 66.27,34.98 105.88,34.98c85.69,0 157.24,-60.92 173.52,-141.6c2.41,-11.95 12.91,-20.54 25.09,-20.54h81.88c7.39,0 14.43,3.2 19.29,8.77c4.86,5.57 7.08,12.97 6.07,20.3c-6.04,44.17 -21.71,85.03 -44.19,120.69l181.65,182.02c9.98,10 9.97,26.2 -0.02,36.19zM272.86,456.54h-81.88c-7.43,0 -14.49,-3.23 -19.35,-8.84c-4.86,-5.62 -7.05,-13.07 -5.98,-20.42c21.64,-149.72 149.74,-265.14 305.82,-265.14c76.09,0 145.89,27.46 199.9,73.23l65.74,-65.73c7.32,-7.32 18.33,-9.51 27.9,-5.55c9.57,3.96 15.8,13.3 15.8,23.65v243.2c0,14.14 -11.46,25.6 -25.6,25.6h-243.2c-10.35,0 -19.69,-6.24 -23.65,-15.8c-3.96,-9.57 -1.77,-20.58 5.55,-27.9l83.45,-83.46c-29.67,-21.96 -66.27,-34.98 -105.89,-34.98c-85.69,0 -157.23,60.92 -173.51,141.6c-2.41,11.95 -12.91,20.54 -25.09,20.54zM700.07,639.27c26.75,-36.48 45.4,-79.85 51.89,-127.27h-81.88c-18.65,92.42 -100.53,162.14 -198.62,162.14c-55.94,0 -106.6,-22.7 -143.49,-59.18l102.96,-102.95h-243.2v243.2l83.09,-83.1c51.48,51.48 122.41,83.1 200.64,83.1c62.82,0 120.79,-20.67 167.81,-55.13l196.99,196.59l60.4,-60.4zM471.46,268.8c55.94,0 106.6,22.7 143.49,59.18l-102.95,102.96h243.2v-243.2l-83.1,83.09c-51.48,-51.48 -122.41,-83.09 -200.64,-83.09c-143.08,0 -260.62,105.79 -280.49,243.2h81.88c18.65,-92.42 100.52,-162.14 198.61,-162.14z" fill="#ffffff"/>
		</mask>
	</defs>
	<g fill="none" fill-rule="nonzero" style="mix-blend-mode: normal">
		<g mask="url(#mask-ppC32kJD)">
			<g color="#ff0000" class="teamapps-color-2">
				<rect x="162.14" y="162.14" width="760.13" height="760.13" fill="currentColor"/>
			</g>
			<g color="#bc13e0" class="teamapps-color-3" mask="url(#mask-mVUlGxIj)">
				<rect x="162.14" y="162.14" width="760.13" height="760.13" fill="currentColor"/>
			</g>
		</g>
		<g filter="url(#filter-AZULhUPQ)" mask="url(#mask-jNU0i36I)">
			<g color="#fff961" class="teamapps-color-1">
				<rect x="162.14" y="162.14" width="760.13" height="760.13" fill="currentColor"/>
			</g>
		</g>
	</g>
</svg>