<svg version="1.1" xmlns="http://www.w3.org/2000/svg" xmlns:xlink="http://www.w3.org/1999/xlink" viewBox="0,0,1024,1024">
	<!-- Color names: teamapps-color-1, teamapps-color-2, teamapps-color-3 -->
	<desc>history icon - Licensed under Apache License v2.0 (http://www.apache.org/licenses/LICENSE-2.0) - Created with Iconfu.com - Derivative work of Material icons (Copyright Google Inc.)</desc>
	<defs>
		<linearGradient x1="0" y1="1024" x2="1024" y2="0" id="color-rmD1rUPn" gradientUnits="userSpaceOnUse">
			<stop offset="0.2" stop-color="#000000"/>
			<stop offset="0.8" stop-color="#ffffff"/>
		</linearGradient>
		<radialGradient cx="0" cy="0" r="1448.15" id="color-x7YWVIjS" gradientUnits="userSpaceOnUse">
			<stop offset="0.08" stop-color="#ffffff"/>
			<stop offset="1" stop-color="#000000"/>
		</radialGradient>
		<filter id="filter-B25i0ns2" color-interpolation-filters="sRGB">
			<feOffset/>
		</filter>
		<mask id="mask-bEfe3kfU">
			<path d="M942.94,512c0,215.59 -174.81,390.4 -390.4,390.4c-108.03,0 -205.25,-43.86 -275.89,-114.51c-10,-10 -10,-26.2 0,-36.2l57.55,-57.56c10.03,-10.03 26.29,-10 36.28,0.07c46.48,46.85 110.95,75.93 182.07,75.93c142.72,0 258.13,-115.41 258.13,-258.14c0,-142.73 -115.4,-258.14 -258.13,-258.14c-134.09,0 -244.07,101.87 -256.89,232.54h94.75c10.36,0 19.7,6.24 23.66,15.82c3.96,9.57 1.76,20.59 -5.58,27.91l-163.75,163.35c-5.82,5.81 -14.08,8.47 -22.2,7.14c-8.12,-1.32 -15.1,-6.46 -18.78,-13.82l-0.98,-1.97l-154.73,-154.73c-7.32,-7.32 -9.51,-18.33 -5.55,-27.9c3.96,-9.57 13.3,-15.8 23.65,-15.8h96.83c13.19,-203.66 182.59,-364.8 389.57,-364.8c215.59,0 390.4,174.81 390.4,390.4zM598.4,349.86v157.71l129.34,76.86c12.16,7.23 16.15,22.94 8.92,35.1l-29.18,49.05c-7.22,12.14 -22.92,16.13 -35.07,8.93l-173.48,-102.95c-7.77,-4.61 -12.54,-12.98 -12.54,-22.02v-202.67c0,-14.14 11.46,-25.6 25.6,-25.6h60.8c14.14,0 25.6,11.46 25.6,25.6zM552.54,147.2c-201.45,0 -364.8,163.35 -364.8,364.8h-121.6l157.67,157.67l2.84,5.68l163.75,-163.35h-121.6c0,-156.86 126.87,-283.74 283.74,-283.74c156.86,0 283.73,126.87 283.73,283.74c0,156.86 -126.86,283.74 -283.73,283.74c-78.23,0 -149.17,-32.02 -200.24,-83.5l-57.55,57.56c66.07,66.07 156.86,107.01 257.79,107.01c201.45,0 364.8,-163.35 364.8,-364.8c0,-201.45 -163.35,-364.8 -364.8,-364.8zM512,349.86v202.67l173.48,102.95l29.18,-49.05l-141.86,-84.3v-172.27z" fill="url(#color-x7YWVIjS)"/>
		</mask>
		<mask id="mask-l1DRbNS7">
			<path d="M942.94,512c0,215.59 -174.81,390.4 -390.4,390.4c-108.03,0 -205.25,-43.86 -275.89,-114.51c-10,-10 -10,-26.2 0,-36.2l57.55,-57.56c10.03,-10.03 26.29,-10 36.28,0.07c46.48,46.85 110.95,75.93 182.07,75.93c142.72,0 258.13,-115.41 258.13,-258.14c0,-142.73 -115.4,-258.14 -258.13,-258.14c-134.09,0 -244.07,101.87 -256.89,232.54h94.75c10.36,0 19.7,6.24 23.66,15.82c3.96,9.57 1.76,20.59 -5.58,27.91l-163.75,163.35c-5.82,5.81 -14.08,8.47 -22.2,7.14c-8.12,-1.32 -15.1,-6.46 -18.78,-13.82l-0.98,-1.97l-154.73,-154.73c-7.32,-7.32 -9.51,-18.33 -5.55,-27.9c3.96,-9.57 13.3,-15.8 23.65,-15.8h96.83c13.19,-203.66 182.59,-364.8 389.57,-364.8c215.59,0 390.4,174.81 390.4,390.4zM598.4,349.86v157.71l129.34,76.86c12.16,7.23 16.15,22.94 8.92,35.1l-29.18,49.05c-7.22,12.14 -22.92,16.13 -35.07,8.93l-173.48,-102.95c-7.77,-4.61 -12.54,-12.98 -12.54,-22.02v-202.67c0,-14.14 11.46,-25.6 25.6,-25.6h60.8c14.14,0 25.6,11.46 25.6,25.6zM552.54,147.2c-201.45,0 -364.8,163.35 -364.8,364.8h-121.6l157.67,157.67l2.84,5.68l163.75,-163.35h-121.6c0,-156.86 126.87,-283.74 283.74,-283.74c156.86,0 283.73,126.87 283.73,283.74c0,156.86 -126.86,283.74 -283.73,283.74c-78.23,0 -149.17,-32.02 -200.24,-83.5l-57.55,57.56c66.07,66.07 156.86,107.01 257.79,107.01c201.45,0 364.8,-163.35 364.8,-364.8c0,-201.45 -163.35,-364.8 -364.8,-364.8zM512,349.86v202.67l173.48,102.95l29.18,-49.05l-141.86,-84.3v-172.27z" fill="#ffffff"/>
		</mask>
		<mask id="mask-SRpfiDaP">
			<rect fill="url(#color-rmD1rUPn)" x="40.54" y="121.6" width="902.4" height="780.8"/>
		</mask>
	</defs>
	<g fill="none" fill-rule="nonzero" style="mix-blend-mode: normal">
		<g mask="url(#mask-l1DRbNS7)">
			<g color="#ff0000" class="teamapps-color-2">
				<rect x="40.54" y="121.6" width="902.4" height="780.8" fill="currentColor"/>
			</g>
			<g color="#bc13e0" class="teamapps-color-3" mask="url(#mask-SRpfiDaP)">
				<rect x="40.54" y="121.6" width="902.4" height="780.8" fill="currentColor"/>
			</g>
		</g>
		<g filter="url(#filter-B25i0ns2)" mask="url(#mask-bEfe3kfU)">
			<g color="#fff961" class="teamapps-color-1">
				<rect x="40.54" y="121.6" width="902.4" height="780.8" fill="currentColor"/>
			</g>
		</g>
	</g>
</svg>