<svg version="1.1" xmlns="http://www.w3.org/2000/svg" xmlns:xlink="http://www.w3.org/1999/xlink" viewBox="0,0,1024,1024">
	<!-- Color names: teamapps-color-1, teamapps-color-2, teamapps-color-3 -->
	<desc>important_devices icon - Licensed under Apache License v2.0 (http://www.apache.org/licenses/LICENSE-2.0) - Created with Iconfu.com - Derivative work of Material icons (Copyright Google Inc.)</desc>
	<defs>
		<radialGradient cx="0" cy="0" r="1448.15" id="color-eWYpBugv" gradientUnits="userSpaceOnUse">
			<stop offset="0.08" stop-color="#ffffff"/>
			<stop offset="1" stop-color="#000000"/>
		</radialGradient>
		<linearGradient x1="0" y1="1024" x2="1024" y2="0" id="color-tHPeP3m5" gradientUnits="userSpaceOnUse">
			<stop offset="0.2" stop-color="#000000"/>
			<stop offset="0.8" stop-color="#ffffff"/>
		</linearGradient>
		<filter id="filter-bsLI2IvD" color-interpolation-filters="sRGB">
			<feOffset/>
		</filter>
		<mask id="mask-dI8LuOpN">
			<path d="M942.94,187.74v202.66c0,14.14 -11.46,25.6 -25.6,25.6h-81.07c-14.14,0 -25.6,-11.46 -25.6,-25.6v-177.06h-678.4v435.2h501.34c14.14,0 25.6,11.46 25.6,25.6v81.06c0,14.14 -11.46,25.6 -25.6,25.6h-55.46v29.86h55.46c14.14,0 25.6,11.46 25.6,25.6v81.07c0,14.14 -11.46,25.6 -25.6,25.6h-324.26c-14.14,0 -25.6,-11.46 -25.6,-25.6v-81.07c0,-14.14 11.46,-25.6 25.6,-25.6h55.46v-29.86h-258.14c-59.22,0 -106.66,-48.03 -106.66,-106.66v-486.4c0,-59.13 47.53,-106.67 106.66,-106.67h729.6c58.64,0 106.67,47.46 106.67,106.67zM1024,512v364.8c0,36.43 -29.7,66.14 -66.14,66.14h-202.66c-36.43,0 -66.14,-29.7 -66.14,-66.14v-364.8c0,-36.43 29.7,-66.14 66.14,-66.14l202.7,0.41c36.08,0.01 66.1,28.96 66.1,65.73zM648.45,411.25l-84.85,60.46l32.34,100.11c3.41,10.55 -0.36,22.1 -9.35,28.6c-8.98,6.5 -21.13,6.49 -30.09,-0.04l-85.04,-61.97l-85.03,61.97c-8.96,6.53 -21.11,6.55 -30.09,0.05c-8.98,-6.5 -12.76,-18.05 -9.35,-28.6l32.33,-100.11l-84.84,-60.46c-9.07,-6.46 -12.92,-18.04 -9.53,-28.65c3.39,-10.6 13.25,-17.8 24.38,-17.8h104.19l33.58,-103.87c3.42,-10.57 13.25,-17.72 24.36,-17.73c11.1,0 20.94,7.16 24.36,17.72l33.59,103.88h104.19c11.13,0 20.99,7.2 24.38,17.8c3.39,10.61 -0.46,22.19 -9.53,28.65zM780.8,578.14v232.53h151.46v-232.53zM836.26,106.66h-729.6c-44.99,0 -81.06,36.08 -81.06,81.07v486.4c0,44.58 36.07,81.06 81.06,81.06h283.74v81.06h-81.06v81.07h324.26v-81.07h-81.06v-81.06h81.06v-81.06h-526.94v-486.4h729.6v202.66h81.07v-202.66c0,-44.99 -36.49,-81.07 -81.07,-81.07zM957.86,471.87l-202.66,-0.41c-22.3,0 -40.54,18.24 -40.54,40.54v364.8c0,22.3 18.24,40.54 40.54,40.54h202.66c22.3,0 40.54,-18.24 40.54,-40.54v-364.8c0,-22.3 -18.24,-40.13 -40.54,-40.13zM510.78,390.4l-39.32,-121.6l-39.31,121.6h-122.82l100.11,71.34l-38.09,117.95l100.11,-72.96l100.12,72.96l-38.1,-117.95l100.12,-71.34zM957.86,836.26h-202.66v-283.73h202.66z" fill="#ffffff"/>
		</mask>
		<mask id="mask-TXUmwlFy">
			<path d="M942.94,187.74v202.66c0,14.14 -11.46,25.6 -25.6,25.6h-81.07c-14.14,0 -25.6,-11.46 -25.6,-25.6v-177.06h-678.4v435.2h501.34c14.14,0 25.6,11.46 25.6,25.6v81.06c0,14.14 -11.46,25.6 -25.6,25.6h-55.46v29.86h55.46c14.14,0 25.6,11.46 25.6,25.6v81.07c0,14.14 -11.46,25.6 -25.6,25.6h-324.26c-14.14,0 -25.6,-11.46 -25.6,-25.6v-81.07c0,-14.14 11.46,-25.6 25.6,-25.6h55.46v-29.86h-258.14c-59.22,0 -106.66,-48.03 -106.66,-106.66v-486.4c0,-59.13 47.53,-106.67 106.66,-106.67h729.6c58.64,0 106.67,47.46 106.67,106.67zM1024,512v364.8c0,36.43 -29.7,66.14 -66.14,66.14h-202.66c-36.43,0 -66.14,-29.7 -66.14,-66.14v-364.8c0,-36.43 29.7,-66.14 66.14,-66.14l202.7,0.41c36.08,0.01 66.1,28.96 66.1,65.73zM648.45,411.25l-84.85,60.46l32.34,100.11c3.41,10.55 -0.36,22.1 -9.35,28.6c-8.98,6.5 -21.13,6.49 -30.09,-0.04l-85.04,-61.97l-85.03,61.97c-8.96,6.53 -21.11,6.55 -30.09,0.05c-8.98,-6.5 -12.76,-18.05 -9.35,-28.6l32.33,-100.11l-84.84,-60.46c-9.07,-6.46 -12.92,-18.04 -9.53,-28.65c3.39,-10.6 13.25,-17.8 24.38,-17.8h104.19l33.58,-103.87c3.42,-10.57 13.25,-17.72 24.36,-17.73c11.1,0 20.94,7.16 24.36,17.72l33.59,103.88h104.19c11.13,0 20.99,7.2 24.38,17.8c3.39,10.61 -0.46,22.19 -9.53,28.65zM780.8,578.14v232.53h151.46v-232.53zM836.26,106.66h-729.6c-44.99,0 -81.06,36.08 -81.06,81.07v486.4c0,44.58 36.07,81.06 81.06,81.06h283.74v81.06h-81.06v81.07h324.26v-81.07h-81.06v-81.06h81.06v-81.06h-526.94v-486.4h729.6v202.66h81.07v-202.66c0,-44.99 -36.49,-81.07 -81.07,-81.07zM957.86,471.87l-202.66,-0.41c-22.3,0 -40.54,18.24 -40.54,40.54v364.8c0,22.3 18.24,40.54 40.54,40.54h202.66c22.3,0 40.54,-18.24 40.54,-40.54v-364.8c0,-22.3 -18.24,-40.13 -40.54,-40.13zM510.78,390.4l-39.32,-121.6l-39.31,121.6h-122.82l100.11,71.34l-38.09,117.95l100.11,-72.96l100.12,72.96l-38.1,-117.95l100.12,-71.34zM957.86,836.26h-202.66v-283.73h202.66z" fill="url(#color-eWYpBugv)"/>
		</mask>
		<mask id="mask-whzoFJkH">
			<rect fill="url(#color-tHPeP3m5)" x="0" y="81.06" width="1024" height="861.87"/>
		</mask>
	</defs>
	<g fill="none" fill-rule="nonzero" style="mix-blend-mode: normal">
		<g mask="url(#mask-dI8LuOpN)">
			<g color="#ff0000" class="teamapps-color-2">
				<rect x="0" y="81.06" width="1024" height="861.87" fill="currentColor"/>
			</g>
			<g color="#bc13e0" class="teamapps-color-3" mask="url(#mask-whzoFJkH)">
				<rect x="0" y="81.06" width="1024" height="861.87" fill="currentColor"/>
			</g>
		</g>
		<g filter="url(#filter-bsLI2IvD)" mask="url(#mask-TXUmwlFy)">
			<g color="#fff961" class="teamapps-color-1">
				<rect x="0" y="81.06" width="1024" height="861.87" fill="currentColor"/>
			</g>
		</g>
	</g>
</svg>