<svg version="1.1" xmlns="http://www.w3.org/2000/svg" xmlns:xlink="http://www.w3.org/1999/xlink" viewBox="0,0,1024,1024">
	<!-- Color names: teamapps-color-1, teamapps-color-2, teamapps-color-3 -->
	<desc>layers_clear icon - Licensed under Apache License v2.0 (http://www.apache.org/licenses/LICENSE-2.0) - Created with Iconfu.com - Derivative work of Material icons (Copyright Google Inc.)</desc>
	<defs>
		<radialGradient cx="0" cy="0" r="1448.15" id="color-cMDwc5jh" gradientUnits="userSpaceOnUse">
			<stop offset="0.08" stop-color="#ffffff"/>
			<stop offset="1" stop-color="#000000"/>
		</radialGradient>
		<linearGradient x1="0" y1="1024" x2="1024" y2="0" id="color-ZmymSEmL" gradientUnits="userSpaceOnUse">
			<stop offset="0.2" stop-color="#000000"/>
			<stop offset="0.8" stop-color="#ffffff"/>
		</linearGradient>
		<filter id="filter-lFEfSSPS" color-interpolation-filters="sRGB">
			<feOffset/>
		</filter>
		<mask id="mask-4RqU7K0U">
			<path d="M935.44,843.42l-51.48,51.48c-10,10 -26.21,10 -36.2,0l-137.24,-137.24l-182.8,142.18c-9.24,7.19 -22.19,7.19 -31.43,0l-364.8,-283.74c-6.25,-4.86 -9.89,-12.33 -9.88,-20.25c0.01,-7.91 3.68,-15.38 9.94,-20.22l66.07,-51.07c9.24,-7.14 22.15,-7.13 31.37,0.04l283.03,220.05l104.44,-81.07l-21.47,-21.47l-67.29,52.23c-9.24,7.18 -22.18,7.17 -31.41,-0.02l-364.8,-283.74c-6.23,-4.85 -9.88,-12.3 -9.88,-20.19c0,-7.9 3.63,-15.35 9.86,-20.2l107.67,-83.93l-150.57,-150.57c-10,-10 -10,-26.21 0,-36.21l51.48,-51.47c10,-10 26.21,-10 36.2,0l759.19,759.18c10,10 10,26.21 0,36.2zM694.94,536.17l-319,-319.4c-5.18,-5.19 -7.89,-12.35 -7.44,-19.67c0.45,-7.32 4.02,-14.09 9.8,-18.6l117.95,-92.02c9.24,-7.21 22.21,-7.22 31.46,-0.02l364.8,283.74c6.24,4.86 9.89,12.32 9.88,20.23c-0.01,7.91 -3.67,15.37 -9.92,20.21l-66.42,51.44l-97.22,76.16c-10.19,7.99 -24.75,7.1 -33.9,-2.06zM754.94,554.98l48.24,-37.29c10.19,-7.88 24.65,-6.96 33.76,2.15l57.96,57.96c5.2,5.2 7.91,12.39 7.45,19.73c-0.47,7.34 -4.07,14.13 -9.89,18.63l-48.23,37.29c-10.19,7.88 -24.65,6.96 -33.76,-2.15l-57.97,-57.96c-5.2,-5.2 -7.92,-12.39 -7.45,-19.73c0.47,-7.34 4.07,-14.13 9.89,-18.63zM158.14,66.14l-51.48,51.47l171.06,171.06l-130.52,101.74l66.07,51.48l298.73,232.26l85.12,-66.07l57.96,57.96l-143.08,111.06l-298.73,-232.26l-66.07,51.07l364.8,283.74l200.64,-156.06l153.22,153.22l51.48,-51.48zM810.33,441.88l66.47,-51.48l-364.8,-283.74l-117.95,92.02l319,319.4zM828.57,633.19l48.23,-37.29l-57.96,-57.96l-48.24,37.29z" fill="url(#color-cMDwc5jh)"/>
		</mask>
		<mask id="mask-AacTsbsB">
			<path d="M935.44,843.42l-51.48,51.48c-10,10 -26.21,10 -36.2,0l-137.24,-137.24l-182.8,142.18c-9.24,7.19 -22.19,7.19 -31.43,0l-364.8,-283.74c-6.25,-4.86 -9.89,-12.33 -9.88,-20.25c0.01,-7.91 3.68,-15.38 9.94,-20.22l66.07,-51.07c9.24,-7.14 22.15,-7.13 31.37,0.04l283.03,220.05l104.44,-81.07l-21.47,-21.47l-67.29,52.23c-9.24,7.18 -22.18,7.17 -31.41,-0.02l-364.8,-283.74c-6.23,-4.85 -9.88,-12.3 -9.88,-20.19c0,-7.9 3.63,-15.35 9.86,-20.2l107.67,-83.93l-150.57,-150.57c-10,-10 -10,-26.21 0,-36.21l51.48,-51.47c10,-10 26.21,-10 36.2,0l759.19,759.18c10,10 10,26.21 0,36.2zM694.94,536.17l-319,-319.4c-5.18,-5.19 -7.89,-12.35 -7.44,-19.67c0.45,-7.32 4.02,-14.09 9.8,-18.6l117.95,-92.02c9.24,-7.21 22.21,-7.22 31.46,-0.02l364.8,283.74c6.24,4.86 9.89,12.32 9.88,20.23c-0.01,7.91 -3.67,15.37 -9.92,20.21l-66.42,51.44l-97.22,76.16c-10.19,7.99 -24.75,7.1 -33.9,-2.06zM754.94,554.98l48.24,-37.29c10.19,-7.88 24.65,-6.96 33.76,2.15l57.96,57.96c5.2,5.2 7.91,12.39 7.45,19.73c-0.47,7.34 -4.07,14.13 -9.89,18.63l-48.23,37.29c-10.19,7.88 -24.65,6.96 -33.76,-2.15l-57.97,-57.96c-5.2,-5.2 -7.92,-12.39 -7.45,-19.73c0.47,-7.34 4.07,-14.13 9.89,-18.63zM158.14,66.14l-51.48,51.47l171.06,171.06l-130.52,101.74l66.07,51.48l298.73,232.26l85.12,-66.07l57.96,57.96l-143.08,111.06l-298.73,-232.26l-66.07,51.07l364.8,283.74l200.64,-156.06l153.22,153.22l51.48,-51.48zM810.33,441.88l66.47,-51.48l-364.8,-283.74l-117.95,92.02l319,319.4zM828.57,633.19l48.23,-37.29l-57.96,-57.96l-48.24,37.29z" fill="#ffffff"/>
		</mask>
		<mask id="mask-QYGzh0wN">
			<rect fill="url(#color-ZmymSEmL)" x="81.06" y="40.54" width="861.87" height="864.7"/>
		</mask>
	</defs>
	<g fill="none" fill-rule="nonzero" style="mix-blend-mode: normal">
		<g mask="url(#mask-AacTsbsB)">
			<g color="#ff0000" class="teamapps-color-2">
				<rect x="81.06" y="40.54" width="861.87" height="864.7" fill="currentColor"/>
			</g>
			<g color="#bc13e0" class="teamapps-color-3" mask="url(#mask-QYGzh0wN)">
				<rect x="81.06" y="40.54" width="861.87" height="864.7" fill="currentColor"/>
			</g>
		</g>
		<g filter="url(#filter-lFEfSSPS)" mask="url(#mask-4RqU7K0U)">
			<g color="#fff961" class="teamapps-color-1">
				<rect x="81.06" y="40.54" width="861.87" height="864.7" fill="currentColor"/>
			</g>
		</g>
	</g>
</svg>