<svg version="1.1" xmlns="http://www.w3.org/2000/svg" xmlns:xlink="http://www.w3.org/1999/xlink" viewBox="0,0,1024,1024">
	<!-- Color names: teamapps-color-1, teamapps-color-2, teamapps-color-3 -->
	<desc>library_music icon - Licensed under Apache License v2.0 (http://www.apache.org/licenses/LICENSE-2.0) - Created with Iconfu.com - Derivative work of Material icons (Copyright Google Inc.)</desc>
	<defs>
		<linearGradient x1="0" y1="1024" x2="1024" y2="0" id="color-1Gi2yfPD" gradientUnits="userSpaceOnUse">
			<stop offset="0.2" stop-color="#000000"/>
			<stop offset="0.8" stop-color="#ffffff"/>
		</linearGradient>
		<radialGradient cx="0" cy="0" r="1448.15" id="color-yMT6u31N" gradientUnits="userSpaceOnUse">
			<stop offset="0.08" stop-color="#ffffff"/>
			<stop offset="1" stop-color="#000000"/>
		</radialGradient>
		<filter id="filter-EklapoWr" color-interpolation-filters="sRGB">
			<feOffset/>
		</filter>
		<mask id="mask-0ZQpUVxh">
			<path d="M942.94,187.74v486.4c0,58.73 -47.95,106.66 -106.67,106.66h-486.4c-58.72,0 -106.66,-47.94 -106.66,-106.66v-486.4c0,-58.72 47.94,-106.67 106.66,-106.67h486.4c58.72,0 106.67,47.95 106.67,106.67zM755.2,810.66c14.14,0 25.6,11.46 25.6,25.6v81.07c0,14.14 -11.46,25.6 -25.6,25.6h-567.46c-58.72,0 -106.67,-47.95 -106.67,-106.67v-567.46c0,-14.14 11.46,-25.6 25.6,-25.6h81.07c14.14,0 25.6,11.46 25.6,25.6v541.86zM604.43,474.55c-8.72,4.32 -19.13,3.32 -26.88,-2.57c-12.85,-9.79 -28.13,-15.44 -45.29,-15.44c-41.8,0 -75.73,33.93 -75.73,75.73c0,41.8 33.93,75.74 75.73,75.74c41.8,0 75.74,-33.94 75.74,-75.74v-59.86c-1.12,0.8 -2.31,1.52 -3.57,2.15zM618.66,253.86v34.68c4.2,-3.03 9.36,-4.81 14.94,-4.81h96v-29.87zM836.26,106.66h-486.4c-44.58,0 -81.06,36.49 -81.06,81.07v486.4c0,44.58 36.48,81.06 81.06,81.06h486.4c44.58,0 81.07,-36.48 81.07,-81.06v-486.4c0,-44.58 -36.49,-81.07 -81.07,-81.07zM187.74,268.8h-81.07v567.46c0,44.58 36.49,81.07 81.07,81.07h567.46v-81.07h-567.46zM755.2,309.34h-121.6v222.93c0,55.94 -45.4,101.34 -101.34,101.34c-55.94,0 -101.33,-45.4 -101.33,-101.34c0,-55.94 45.39,-101.33 101.33,-101.33c23.1,0 43.78,7.7 60.8,20.67v-223.34h162.14z" fill="#ffffff"/>
		</mask>
		<mask id="mask-9WFOHUgK">
			<path d="M942.94,187.74v486.4c0,58.73 -47.95,106.66 -106.67,106.66h-486.4c-58.72,0 -106.66,-47.94 -106.66,-106.66v-486.4c0,-58.72 47.94,-106.67 106.66,-106.67h486.4c58.72,0 106.67,47.95 106.67,106.67zM755.2,810.66c14.14,0 25.6,11.46 25.6,25.6v81.07c0,14.14 -11.46,25.6 -25.6,25.6h-567.46c-58.72,0 -106.67,-47.95 -106.67,-106.67v-567.46c0,-14.14 11.46,-25.6 25.6,-25.6h81.07c14.14,0 25.6,11.46 25.6,25.6v541.86zM604.43,474.55c-8.72,4.32 -19.13,3.32 -26.88,-2.57c-12.85,-9.79 -28.13,-15.44 -45.29,-15.44c-41.8,0 -75.73,33.93 -75.73,75.73c0,41.8 33.93,75.74 75.73,75.74c41.8,0 75.74,-33.94 75.74,-75.74v-59.86c-1.12,0.8 -2.31,1.52 -3.57,2.15zM618.66,253.86v34.68c4.2,-3.03 9.36,-4.81 14.94,-4.81h96v-29.87zM836.26,106.66h-486.4c-44.58,0 -81.06,36.49 -81.06,81.07v486.4c0,44.58 36.48,81.06 81.06,81.06h486.4c44.58,0 81.07,-36.48 81.07,-81.06v-486.4c0,-44.58 -36.49,-81.07 -81.07,-81.07zM187.74,268.8h-81.07v567.46c0,44.58 36.49,81.07 81.07,81.07h567.46v-81.07h-567.46zM755.2,309.34h-121.6v222.93c0,55.94 -45.4,101.34 -101.34,101.34c-55.94,0 -101.33,-45.4 -101.33,-101.34c0,-55.94 45.39,-101.33 101.33,-101.33c23.1,0 43.78,7.7 60.8,20.67v-223.34h162.14z" fill="url(#color-yMT6u31N)"/>
		</mask>
		<mask id="mask-acUdow1V">
			<rect fill="url(#color-1Gi2yfPD)" x="81.06" y="81.06" width="861.87" height="861.87"/>
		</mask>
	</defs>
	<g fill="none" fill-rule="nonzero" style="mix-blend-mode: normal">
		<g mask="url(#mask-0ZQpUVxh)">
			<g color="#ff0000" class="teamapps-color-2">
				<rect x="81.06" y="81.06" width="861.87" height="861.87" fill="currentColor"/>
			</g>
			<g color="#bc13e0" class="teamapps-color-3" mask="url(#mask-acUdow1V)">
				<rect x="81.06" y="81.06" width="861.87" height="861.87" fill="currentColor"/>
			</g>
		</g>
		<g filter="url(#filter-EklapoWr)" mask="url(#mask-9WFOHUgK)">
			<g color="#fff961" class="teamapps-color-1">
				<rect x="81.06" y="81.06" width="861.87" height="861.87" fill="currentColor"/>
			</g>
		</g>
	</g>
</svg>