<svg version="1.1" xmlns="http://www.w3.org/2000/svg" xmlns:xlink="http://www.w3.org/1999/xlink" viewBox="0,0,1024,1024">
	<!-- Color names: teamapps-color-1, teamapps-color-2, teamapps-color-3 -->
	<desc>lightbulb_outline icon - Licensed under Apache License v2.0 (http://www.apache.org/licenses/LICENSE-2.0) - Created with Iconfu.com - Derivative work of Material icons (Copyright Google Inc.)</desc>
	<defs>
		<radialGradient cx="0" cy="0" r="1448.15" id="color-UwcMc3E5" gradientUnits="userSpaceOnUse">
			<stop offset="0.08" stop-color="#ffffff"/>
			<stop offset="1" stop-color="#000000"/>
		</radialGradient>
		<linearGradient x1="0" y1="1024" x2="1024" y2="0" id="color-Vl1hUqtt" gradientUnits="userSpaceOnUse">
			<stop offset="0.2" stop-color="#000000"/>
			<stop offset="0.8" stop-color="#ffffff"/>
		</linearGradient>
		<filter id="filter-30cAcODK" color-interpolation-filters="sRGB">
			<feOffset/>
		</filter>
		<mask id="mask-ayWpFara">
			<path d="M821.34,390.4c0,100.4 -47.92,189.05 -121.6,245.62v78.64c0,36.43 -29.7,66.14 -66.14,66.14h-243.2c-36.43,0 -66.14,-29.7 -66.14,-66.14v-78.64c-73.68,-56.57 -121.6,-145.22 -121.6,-245.62c0,-170.59 138.74,-309.34 309.34,-309.34c170.59,0 309.34,138.74 309.34,309.34zM689.06,390.4c0,-97.73 -79.33,-177.06 -177.06,-177.06c-97.73,0 -177.06,79.33 -177.06,177.06c0,57.64 28.28,111.83 76.17,145.18l34.59,24.41c6.8,4.8 10.84,12.6 10.84,20.92v67.63h110.93v-67.63c0,-8.32 4.04,-16.12 10.84,-20.92l34.5,-24.35c47.89,-33.35 76.26,-87.6 76.26,-145.24zM390.4,810.66h243.2c14.14,0 25.6,11.46 25.6,25.6v40.54c0,36.43 -29.7,66.14 -66.14,66.14h-162.13c-36.43,0 -66.14,-29.7 -66.14,-66.14v-40.54c0,-14.14 11.46,-25.6 25.6,-25.6zM512,106.66c-156.46,0 -283.74,127.28 -283.74,283.74c0,96.47 48.23,181.18 121.6,232.66v91.6c0,22.3 18.24,40.54 40.54,40.54h243.2c22.3,0 40.54,-18.24 40.54,-40.54v-91.6c73.37,-51.48 121.6,-136.19 121.6,-232.66c0,-156.46 -127.28,-283.74 -283.74,-283.74zM627.52,556.58l-34.46,24.32v93.23h-162.13v-93.23l-34.46,-24.32c-54.72,-38.1 -87.14,-100.11 -87.14,-166.18c0,-111.87 90.79,-202.66 202.66,-202.66c111.87,0 202.66,90.79 202.66,202.66c0,66.07 -32.42,128.08 -87.14,166.18zM390.4,876.8c0,22.3 18.24,40.54 40.54,40.54h162.13c22.3,0 40.54,-18.24 40.54,-40.54v-40.54h-243.2z" fill="url(#color-UwcMc3E5)"/>
		</mask>
		<mask id="mask-LXRQbPCf">
			<rect fill="url(#color-Vl1hUqtt)" x="202.66" y="81.06" width="618.67" height="861.87"/>
		</mask>
		<mask id="mask-QDZiv4rJ">
			<path d="M821.34,390.4c0,100.4 -47.92,189.05 -121.6,245.62v78.64c0,36.43 -29.7,66.14 -66.14,66.14h-243.2c-36.43,0 -66.14,-29.7 -66.14,-66.14v-78.64c-73.68,-56.57 -121.6,-145.22 -121.6,-245.62c0,-170.59 138.74,-309.34 309.34,-309.34c170.59,0 309.34,138.74 309.34,309.34zM689.06,390.4c0,-97.73 -79.33,-177.06 -177.06,-177.06c-97.73,0 -177.06,79.33 -177.06,177.06c0,57.64 28.28,111.83 76.17,145.18l34.59,24.41c6.8,4.8 10.84,12.6 10.84,20.92v67.63h110.93v-67.63c0,-8.32 4.04,-16.12 10.84,-20.92l34.5,-24.35c47.89,-33.35 76.26,-87.6 76.26,-145.24zM390.4,810.66h243.2c14.14,0 25.6,11.46 25.6,25.6v40.54c0,36.43 -29.7,66.14 -66.14,66.14h-162.13c-36.43,0 -66.14,-29.7 -66.14,-66.14v-40.54c0,-14.14 11.46,-25.6 25.6,-25.6zM512,106.66c-156.46,0 -283.74,127.28 -283.74,283.74c0,96.47 48.23,181.18 121.6,232.66v91.6c0,22.3 18.24,40.54 40.54,40.54h243.2c22.3,0 40.54,-18.24 40.54,-40.54v-91.6c73.37,-51.48 121.6,-136.19 121.6,-232.66c0,-156.46 -127.28,-283.74 -283.74,-283.74zM627.52,556.58l-34.46,24.32v93.23h-162.13v-93.23l-34.46,-24.32c-54.72,-38.1 -87.14,-100.11 -87.14,-166.18c0,-111.87 90.79,-202.66 202.66,-202.66c111.87,0 202.66,90.79 202.66,202.66c0,66.07 -32.42,128.08 -87.14,166.18zM390.4,876.8c0,22.3 18.24,40.54 40.54,40.54h162.13c22.3,0 40.54,-18.24 40.54,-40.54v-40.54h-243.2z" fill="#ffffff"/>
		</mask>
	</defs>
	<g fill="none" fill-rule="nonzero" style="mix-blend-mode: normal">
		<g mask="url(#mask-QDZiv4rJ)">
			<g color="#ff0000" class="teamapps-color-2">
				<rect x="202.66" y="81.06" width="618.67" height="861.87" fill="currentColor"/>
			</g>
			<g color="#bc13e0" class="teamapps-color-3" mask="url(#mask-LXRQbPCf)">
				<rect x="202.66" y="81.06" width="618.67" height="861.87" fill="currentColor"/>
			</g>
		</g>
		<g filter="url(#filter-30cAcODK)" mask="url(#mask-ayWpFara)">
			<g color="#fff961" class="teamapps-color-1">
				<rect x="202.66" y="81.06" width="618.67" height="861.87" fill="currentColor"/>
			</g>
		</g>
	</g>
</svg>