<svg version="1.1" xmlns="http://www.w3.org/2000/svg" xmlns:xlink="http://www.w3.org/1999/xlink" viewBox="0,0,1024,1024">
	<!-- Color names: teamapps-color-1, teamapps-color-2, teamapps-color-3 -->
	<desc>location_searching icon - Licensed under Apache License v2.0 (http://www.apache.org/licenses/LICENSE-2.0) - Created with Iconfu.com - Derivative work of Material icons (Copyright Google Inc.)</desc>
	<defs>
		<radialGradient cx="0" cy="0" r="1448.15" id="color-DqF4YAKF" gradientUnits="userSpaceOnUse">
			<stop offset="0.08" stop-color="#ffffff"/>
			<stop offset="1" stop-color="#000000"/>
		</radialGradient>
		<linearGradient x1="0" y1="1024" x2="1024" y2="0" id="color-wDbn2ycU" gradientUnits="userSpaceOnUse">
			<stop offset="0.2" stop-color="#000000"/>
			<stop offset="0.8" stop-color="#ffffff"/>
		</linearGradient>
		<filter id="filter-S0hhdI44" color-interpolation-filters="sRGB">
			<feOffset/>
		</filter>
		<mask id="mask-erqqTRfQ">
			<path d="M983.46,471.46v81.07c0,14.14 -11.46,25.6 -25.6,25.6h-61.25c-27.72,162.57 -155.91,290.76 -318.48,318.48v61.25c0,14.14 -11.46,25.6 -25.6,25.6h-81.07c-14.14,0 -25.6,-11.46 -25.6,-25.6v-61.25c-162.57,-27.72 -290.76,-155.91 -318.48,-318.48h-61.25c-14.14,0 -25.6,-11.46 -25.6,-25.6v-81.07c0,-14.14 11.46,-25.6 25.6,-25.6h61.25c27.72,-162.57 155.91,-290.76 318.48,-318.48v-61.25c0,-14.14 11.46,-25.6 25.6,-25.6h81.07c14.14,0 25.6,11.46 25.6,25.6v61.25c162.57,27.72 290.76,155.91 318.48,318.48h61.25c14.14,0 25.6,11.46 25.6,25.6zM770.14,512c0,-142.73 -115.41,-258.14 -258.14,-258.14c-142.73,0 -258.14,115.41 -258.14,258.14c0,142.73 115.41,258.14 258.14,258.14c142.73,0 258.14,-115.41 258.14,-258.14zM874.37,471.46c-18.65,-169.02 -152.81,-303.18 -321.83,-321.83v-83.5h-81.07v83.5c-169.02,18.65 -303.18,152.81 -321.83,321.83h-83.5v81.07h83.5c18.65,169.02 152.81,303.18 321.83,321.83v83.5h81.07v-83.5c169.02,-18.65 303.18,-152.81 321.83,-321.83h83.5v-81.07zM512,795.74c-156.86,0 -283.74,-126.87 -283.74,-283.74c0,-156.86 126.87,-283.74 283.74,-283.74c156.86,0 283.74,126.87 283.74,283.74c0,156.86 -126.87,283.74 -283.74,283.74z" fill="#ffffff"/>
		</mask>
		<mask id="mask-gP9Ozy86">
			<path d="M983.46,471.46v81.07c0,14.14 -11.46,25.6 -25.6,25.6h-61.25c-27.72,162.57 -155.91,290.76 -318.48,318.48v61.25c0,14.14 -11.46,25.6 -25.6,25.6h-81.07c-14.14,0 -25.6,-11.46 -25.6,-25.6v-61.25c-162.57,-27.72 -290.76,-155.91 -318.48,-318.48h-61.25c-14.14,0 -25.6,-11.46 -25.6,-25.6v-81.07c0,-14.14 11.46,-25.6 25.6,-25.6h61.25c27.72,-162.57 155.91,-290.76 318.48,-318.48v-61.25c0,-14.14 11.46,-25.6 25.6,-25.6h81.07c14.14,0 25.6,11.46 25.6,25.6v61.25c162.57,27.72 290.76,155.91 318.48,318.48h61.25c14.14,0 25.6,11.46 25.6,25.6zM770.14,512c0,-142.73 -115.41,-258.14 -258.14,-258.14c-142.73,0 -258.14,115.41 -258.14,258.14c0,142.73 115.41,258.14 258.14,258.14c142.73,0 258.14,-115.41 258.14,-258.14zM874.37,471.46c-18.65,-169.02 -152.81,-303.18 -321.83,-321.83v-83.5h-81.07v83.5c-169.02,18.65 -303.18,152.81 -321.83,321.83h-83.5v81.07h83.5c18.65,169.02 152.81,303.18 321.83,321.83v83.5h81.07v-83.5c169.02,-18.65 303.18,-152.81 321.83,-321.83h83.5v-81.07zM512,795.74c-156.86,0 -283.74,-126.87 -283.74,-283.74c0,-156.86 126.87,-283.74 283.74,-283.74c156.86,0 283.74,126.87 283.74,283.74c0,156.86 -126.87,283.74 -283.74,283.74z" fill="url(#color-DqF4YAKF)"/>
		</mask>
		<mask id="mask-PUJ5AKro">
			<rect fill="url(#color-wDbn2ycU)" x="40.54" y="40.54" width="942.93" height="942.93"/>
		</mask>
	</defs>
	<g fill="none" fill-rule="nonzero" style="mix-blend-mode: normal">
		<g mask="url(#mask-erqqTRfQ)">
			<g color="#ff0000" class="teamapps-color-2">
				<rect x="40.54" y="40.54" width="942.93" height="942.93" fill="currentColor"/>
			</g>
			<g color="#bc13e0" class="teamapps-color-3" mask="url(#mask-PUJ5AKro)">
				<rect x="40.54" y="40.54" width="942.93" height="942.93" fill="currentColor"/>
			</g>
		</g>
		<g filter="url(#filter-S0hhdI44)" mask="url(#mask-gP9Ozy86)">
			<g color="#fff961" class="teamapps-color-1">
				<rect x="40.54" y="40.54" width="942.93" height="942.93" fill="currentColor"/>
			</g>
		</g>
	</g>
</svg>