<svg version="1.1" xmlns="http://www.w3.org/2000/svg" xmlns:xlink="http://www.w3.org/1999/xlink" viewBox="0,0,1024,1024">
	<!-- Color names: teamapps-color-1, teamapps-color-2, teamapps-color-3 -->
	<desc>local_gas_station icon - Licensed under Apache License v2.0 (http://www.apache.org/licenses/LICENSE-2.0) - Created with Iconfu.com - Derivative work of Material icons (Copyright Google Inc.)</desc>
	<defs>
		<radialGradient cx="0" cy="0" r="1448.15" id="color-mg1b4pS5" gradientUnits="userSpaceOnUse">
			<stop offset="0.08" stop-color="#ffffff"/>
			<stop offset="1" stop-color="#000000"/>
		</radialGradient>
		<linearGradient x1="0" y1="1024" x2="1024" y2="0" id="color-zW7QpHdw" gradientUnits="userSpaceOnUse">
			<stop offset="0.2" stop-color="#000000"/>
			<stop offset="0.8" stop-color="#ffffff"/>
		</linearGradient>
		<filter id="filter-7LAl6QJc" color-interpolation-filters="sRGB">
			<feOffset/>
		</filter>
		<mask id="mask-FR1StZZ8">
			<rect fill="url(#color-zW7QpHdw)" x="162.14" y="121.6" width="720" height="780.8"/>
		</mask>
		<mask id="mask-iZUZIfII">
			<path d="M882.14,390.4v385.06c0,70.07 -56.86,126.94 -126.94,126.94c-70.07,0 -126.94,-56.86 -126.94,-126.94v-177.06h-9.6v278.4c0,14.14 -11.46,25.6 -25.6,25.6h-405.33c-14.14,0 -25.6,-11.46 -25.6,-25.6v-648.54c0,-58.72 47.94,-106.66 106.66,-106.66h243.2c47.06,0 87.2,30.79 101.28,73.25c0.67,-0.88 1.41,-1.72 2.21,-2.52l42.97,-42.97c10,-10 26.21,-10 36.2,0l150.78,150.78c1.47,1.47 2.72,3.08 3.77,4.79c20.43,22.5 32.91,52.67 32.91,85.46zM618.66,486.4h14.94c58.72,0 106.66,47.94 106.66,106.66v182.4c0,8.16 6.78,14.94 14.94,14.94c8.16,0 14.94,-6.78 14.94,-14.94v-259.03c-4.85,0.59 -9.83,0.91 -14.94,0.91c-70.07,0 -126.94,-56.86 -126.94,-126.94c0,-40.94 19.32,-76.93 49.1,-100l-58.7,-58.7zM294.4,253.86v151.47h192v-151.47zM770.14,390.4c0,-8.16 -6.78,-14.94 -14.94,-14.94c-8.16,0 -14.94,6.78 -14.94,14.94c0,8.16 6.78,14.94 14.94,14.94c8.16,0 14.94,-6.78 14.94,-14.94zM826.94,318.66l0.41,-0.41l-150.78,-150.78l-42.97,42.97l85.53,85.53c-38.1,14.59 -65.26,51.07 -65.26,94.44c0,55.94 45.4,101.34 101.34,101.34c14.59,0 27.97,-3.24 40.54,-8.51v292.24c0,22.3 -18.24,40.54 -40.54,40.54c-22.3,0 -40.54,-18.24 -40.54,-40.54v-182.4c0,-44.58 -36.48,-81.06 -81.06,-81.06h-40.54v-283.74c0,-44.58 -36.48,-81.06 -81.06,-81.06h-243.2c-44.58,0 -81.06,36.48 -81.06,81.06v648.54h405.33v-304h60.8v202.66c0,55.94 45.4,101.34 101.34,101.34c55.94,0 101.34,-45.4 101.34,-101.34v-385.06c0,-27.97 -11.35,-53.5 -29.59,-71.74zM512,430.94h-243.2v-202.67h243.2zM755.2,430.94c-22.3,0 -40.54,-18.24 -40.54,-40.54c0,-22.3 18.24,-40.54 40.54,-40.54c22.3,0 40.54,18.24 40.54,40.54c0,22.3 -18.24,40.54 -40.54,40.54z" fill="#ffffff"/>
		</mask>
		<mask id="mask-RvpRNKKY">
			<path d="M882.14,390.4v385.06c0,70.07 -56.86,126.94 -126.94,126.94c-70.07,0 -126.94,-56.86 -126.94,-126.94v-177.06h-9.6v278.4c0,14.14 -11.46,25.6 -25.6,25.6h-405.33c-14.14,0 -25.6,-11.46 -25.6,-25.6v-648.54c0,-58.72 47.94,-106.66 106.66,-106.66h243.2c47.06,0 87.2,30.79 101.28,73.25c0.67,-0.88 1.41,-1.72 2.21,-2.52l42.97,-42.97c10,-10 26.21,-10 36.2,0l150.78,150.78c1.47,1.47 2.72,3.08 3.77,4.79c20.43,22.5 32.91,52.67 32.91,85.46zM618.66,486.4h14.94c58.72,0 106.66,47.94 106.66,106.66v182.4c0,8.16 6.78,14.94 14.94,14.94c8.16,0 14.94,-6.78 14.94,-14.94v-259.03c-4.85,0.59 -9.83,0.91 -14.94,0.91c-70.07,0 -126.94,-56.86 -126.94,-126.94c0,-40.94 19.32,-76.93 49.1,-100l-58.7,-58.7zM294.4,253.86v151.47h192v-151.47zM770.14,390.4c0,-8.16 -6.78,-14.94 -14.94,-14.94c-8.16,0 -14.94,6.78 -14.94,14.94c0,8.16 6.78,14.94 14.94,14.94c8.16,0 14.94,-6.78 14.94,-14.94zM826.94,318.66l0.41,-0.41l-150.78,-150.78l-42.97,42.97l85.53,85.53c-38.1,14.59 -65.26,51.07 -65.26,94.44c0,55.94 45.4,101.34 101.34,101.34c14.59,0 27.97,-3.24 40.54,-8.51v292.24c0,22.3 -18.24,40.54 -40.54,40.54c-22.3,0 -40.54,-18.24 -40.54,-40.54v-182.4c0,-44.58 -36.48,-81.06 -81.06,-81.06h-40.54v-283.74c0,-44.58 -36.48,-81.06 -81.06,-81.06h-243.2c-44.58,0 -81.06,36.48 -81.06,81.06v648.54h405.33v-304h60.8v202.66c0,55.94 45.4,101.34 101.34,101.34c55.94,0 101.34,-45.4 101.34,-101.34v-385.06c0,-27.97 -11.35,-53.5 -29.59,-71.74zM512,430.94h-243.2v-202.67h243.2zM755.2,430.94c-22.3,0 -40.54,-18.24 -40.54,-40.54c0,-22.3 18.24,-40.54 40.54,-40.54c22.3,0 40.54,18.24 40.54,40.54c0,22.3 -18.24,40.54 -40.54,40.54z" fill="url(#color-mg1b4pS5)"/>
		</mask>
	</defs>
	<g fill="none" fill-rule="nonzero" style="mix-blend-mode: normal">
		<g mask="url(#mask-iZUZIfII)">
			<g color="#ff0000" class="teamapps-color-2">
				<rect x="162.14" y="121.6" width="720" height="780.8" fill="currentColor"/>
			</g>
			<g color="#bc13e0" class="teamapps-color-3" mask="url(#mask-FR1StZZ8)">
				<rect x="162.14" y="121.6" width="720" height="780.8" fill="currentColor"/>
			</g>
		</g>
		<g filter="url(#filter-7LAl6QJc)" mask="url(#mask-RvpRNKKY)">
			<g color="#fff961" class="teamapps-color-1">
				<rect x="162.14" y="121.6" width="720" height="780.8" fill="currentColor"/>
			</g>
		</g>
	</g>
</svg>