<svg version="1.1" xmlns="http://www.w3.org/2000/svg" xmlns:xlink="http://www.w3.org/1999/xlink" viewBox="0,0,1024,1024">
	<!-- Color names: teamapps-color-1, teamapps-color-2, teamapps-color-3 -->
	<desc>markunread_mailbox icon - Licensed under Apache License v2.0 (http://www.apache.org/licenses/LICENSE-2.0) - Created with Iconfu.com - Derivative work of Material icons (Copyright Google Inc.)</desc>
	<defs>
		<radialGradient cx="0" cy="0" r="1448.15" id="color-81GuNfhp" gradientUnits="userSpaceOnUse">
			<stop offset="0.08" stop-color="#ffffff"/>
			<stop offset="1" stop-color="#000000"/>
		</radialGradient>
		<linearGradient x1="0" y1="1024" x2="1024" y2="0" id="color-Uyaemwr2" gradientUnits="userSpaceOnUse">
			<stop offset="0.2" stop-color="#000000"/>
			<stop offset="0.8" stop-color="#ffffff"/>
		</linearGradient>
		<filter id="filter-fxVYrDzw" color-interpolation-filters="sRGB">
			<feOffset/>
		</filter>
		<mask id="mask-4dFJj0Iw">
			<path d="M942.94,349.86v486.4c0,58.72 -47.95,106.67 -106.67,106.67h-648.53c-58.72,0 -106.67,-47.95 -106.67,-106.67v-486.4c0,-58.73 47.95,-106.66 106.67,-106.66h55.46v-217.6c0,-14.14 11.46,-25.6 25.6,-25.6h324.26c14.14,0 25.6,11.46 25.6,25.6v162.14c0,14.14 -11.46,25.6 -25.6,25.6h-217.6v273.06h29.87v-217.6c0,-14.14 11.46,-25.6 25.6,-25.6h405.33c58.72,0 106.67,47.94 106.67,106.66zM836.26,268.8h-405.33v243.2h-81.07v-324.26h243.2v-162.14h-324.26v243.2h-81.06c-44.58,0 -81.07,36.48 -81.07,81.06v486.4c0,44.58 36.49,81.07 81.07,81.07h648.53c44.58,0 81.07,-36.49 81.07,-81.07v-486.4c0,-44.58 -36.49,-81.06 -81.07,-81.06z" fill="#ffffff"/>
		</mask>
		<mask id="mask-OQQXPjk9">
			<rect fill="url(#color-Uyaemwr2)" x="81.06" y="0" width="861.87" height="942.94"/>
		</mask>
		<mask id="mask-VFnYLHUs">
			<path d="M942.94,349.86v486.4c0,58.72 -47.95,106.67 -106.67,106.67h-648.53c-58.72,0 -106.67,-47.95 -106.67,-106.67v-486.4c0,-58.73 47.95,-106.66 106.67,-106.66h55.46v-217.6c0,-14.14 11.46,-25.6 25.6,-25.6h324.26c14.14,0 25.6,11.46 25.6,25.6v162.14c0,14.14 -11.46,25.6 -25.6,25.6h-217.6v273.06h29.87v-217.6c0,-14.14 11.46,-25.6 25.6,-25.6h405.33c58.72,0 106.67,47.94 106.67,106.66zM836.26,268.8h-405.33v243.2h-81.07v-324.26h243.2v-162.14h-324.26v243.2h-81.06c-44.58,0 -81.07,36.48 -81.07,81.06v486.4c0,44.58 36.49,81.07 81.07,81.07h648.53c44.58,0 81.07,-36.49 81.07,-81.07v-486.4c0,-44.58 -36.49,-81.06 -81.07,-81.06z" fill="url(#color-81GuNfhp)"/>
		</mask>
	</defs>
	<g fill="none" fill-rule="nonzero" style="mix-blend-mode: normal">
		<g mask="url(#mask-4dFJj0Iw)">
			<g color="#ff0000" class="teamapps-color-2">
				<rect x="81.06" y="0" width="861.87" height="942.94" fill="currentColor"/>
			</g>
			<g color="#bc13e0" class="teamapps-color-3" mask="url(#mask-OQQXPjk9)">
				<rect x="81.06" y="0" width="861.87" height="942.94" fill="currentColor"/>
			</g>
		</g>
		<g filter="url(#filter-fxVYrDzw)" mask="url(#mask-VFnYLHUs)">
			<g color="#fff961" class="teamapps-color-1">
				<rect x="81.06" y="0" width="861.87" height="942.94" fill="currentColor"/>
			</g>
		</g>
	</g>
</svg>