<svg version="1.1" xmlns="http://www.w3.org/2000/svg" xmlns:xlink="http://www.w3.org/1999/xlink" viewBox="0,0,1024,1024">
	<!-- Color names: teamapps-color-1, teamapps-color-2, teamapps-color-3 -->
	<desc>memory icon - Licensed under Apache License v2.0 (http://www.apache.org/licenses/LICENSE-2.0) - Created with Iconfu.com - Derivative work of Material icons (Copyright Google Inc.)</desc>
	<defs>
		<radialGradient cx="0" cy="0" r="1448.15" id="color-2F7MK9OY" gradientUnits="userSpaceOnUse">
			<stop offset="0.08" stop-color="#ffffff"/>
			<stop offset="1" stop-color="#000000"/>
		</radialGradient>
		<linearGradient x1="0" y1="1024" x2="1024" y2="0" id="color-R78YiB14" gradientUnits="userSpaceOnUse">
			<stop offset="0.2" stop-color="#000000"/>
			<stop offset="0.8" stop-color="#ffffff"/>
		</linearGradient>
		<filter id="filter-yaM5YC0I" color-interpolation-filters="sRGB">
			<feOffset/>
		</filter>
		<mask id="mask-cMqRmewN">
			<path d="M821.34,497.06v29.87h55.46c14.14,0 25.6,11.46 25.6,25.6v81.06c0,14.14 -11.46,25.6 -25.6,25.6h-55.46v55.46c0,58.72 -47.95,106.67 -106.67,106.67h-55.46v55.46c0,14.14 -11.46,25.6 -25.6,25.6h-81.06c-14.14,0 -25.6,-11.46 -25.6,-25.6v-55.46h-29.87v55.46c0,14.14 -11.46,25.6 -25.6,25.6h-81.06c-14.14,0 -25.6,-11.46 -25.6,-25.6v-55.46h-55.46c-58.72,0 -106.67,-47.95 -106.67,-106.67v-55.46h-55.46c-14.14,0 -25.6,-11.46 -25.6,-25.6v-81.06c0,-14.14 11.46,-25.6 25.6,-25.6h55.46v-29.87h-55.46c-14.14,0 -25.6,-11.46 -25.6,-25.6v-81.06c0,-14.14 11.46,-25.6 25.6,-25.6h55.46v-55.46c0,-58.72 47.95,-106.67 106.67,-106.67h55.46v-55.46c0,-14.14 11.46,-25.6 25.6,-25.6h81.06c14.14,0 25.6,11.46 25.6,25.6v55.46h29.87v-55.46c0,-14.14 11.46,-25.6 25.6,-25.6h81.06c14.14,0 25.6,11.46 25.6,25.6v55.46h55.46c58.72,0 106.67,47.95 106.67,106.67v55.46h55.46c14.14,0 25.6,11.46 25.6,25.6v81.06c0,14.14 -11.46,25.6 -25.6,25.6zM334.94,334.94v354.13h354.13v-354.13zM633.6,659.2h-243.2c-14.14,0 -25.6,-11.46 -25.6,-25.6v-243.2c0,-14.14 11.46,-25.6 25.6,-25.6h243.2c14.14,0 25.6,11.46 25.6,25.6v243.2c0,14.14 -11.46,25.6 -25.6,25.6zM497.06,497.06v29.87h29.87v-29.87zM876.8,471.46v-81.06h-81.06v-81.06c0,-44.58 -36.49,-81.07 -81.07,-81.07h-81.06v-81.06h-81.06v81.06h-81.07v-81.06h-81.06v81.06h-81.06c-44.58,0 -81.07,36.49 -81.07,81.07v81.06h-81.06v81.06h81.06v81.07h-81.06v81.06h81.06v81.06c0,44.58 36.49,81.07 81.07,81.07h81.06v81.06h81.06v-81.06h81.07v81.06h81.06v-81.06h81.06c44.58,0 81.07,-36.49 81.07,-81.07v-81.06h81.06v-81.06h-81.06v-81.07zM714.66,714.66h-405.33v-405.33h405.33zM633.6,390.4h-243.2v243.2h243.2zM552.54,552.54h-81.07v-81.07h81.07z" fill="#ffffff"/>
		</mask>
		<mask id="mask-F7Rt9bCi">
			<path d="M821.34,497.06v29.87h55.46c14.14,0 25.6,11.46 25.6,25.6v81.06c0,14.14 -11.46,25.6 -25.6,25.6h-55.46v55.46c0,58.72 -47.95,106.67 -106.67,106.67h-55.46v55.46c0,14.14 -11.46,25.6 -25.6,25.6h-81.06c-14.14,0 -25.6,-11.46 -25.6,-25.6v-55.46h-29.87v55.46c0,14.14 -11.46,25.6 -25.6,25.6h-81.06c-14.14,0 -25.6,-11.46 -25.6,-25.6v-55.46h-55.46c-58.72,0 -106.67,-47.95 -106.67,-106.67v-55.46h-55.46c-14.14,0 -25.6,-11.46 -25.6,-25.6v-81.06c0,-14.14 11.46,-25.6 25.6,-25.6h55.46v-29.87h-55.46c-14.14,0 -25.6,-11.46 -25.6,-25.6v-81.06c0,-14.14 11.46,-25.6 25.6,-25.6h55.46v-55.46c0,-58.72 47.95,-106.67 106.67,-106.67h55.46v-55.46c0,-14.14 11.46,-25.6 25.6,-25.6h81.06c14.14,0 25.6,11.46 25.6,25.6v55.46h29.87v-55.46c0,-14.14 11.46,-25.6 25.6,-25.6h81.06c14.14,0 25.6,11.46 25.6,25.6v55.46h55.46c58.72,0 106.67,47.95 106.67,106.67v55.46h55.46c14.14,0 25.6,11.46 25.6,25.6v81.06c0,14.14 -11.46,25.6 -25.6,25.6zM334.94,334.94v354.13h354.13v-354.13zM633.6,659.2h-243.2c-14.14,0 -25.6,-11.46 -25.6,-25.6v-243.2c0,-14.14 11.46,-25.6 25.6,-25.6h243.2c14.14,0 25.6,11.46 25.6,25.6v243.2c0,14.14 -11.46,25.6 -25.6,25.6zM497.06,497.06v29.87h29.87v-29.87zM876.8,471.46v-81.06h-81.06v-81.06c0,-44.58 -36.49,-81.07 -81.07,-81.07h-81.06v-81.06h-81.06v81.06h-81.07v-81.06h-81.06v81.06h-81.06c-44.58,0 -81.07,36.49 -81.07,81.07v81.06h-81.06v81.06h81.06v81.07h-81.06v81.06h81.06v81.06c0,44.58 36.49,81.07 81.07,81.07h81.06v81.06h81.06v-81.06h81.07v81.06h81.06v-81.06h81.06c44.58,0 81.07,-36.49 81.07,-81.07v-81.06h81.06v-81.06h-81.06v-81.07zM714.66,714.66h-405.33v-405.33h405.33zM633.6,390.4h-243.2v243.2h243.2zM552.54,552.54h-81.07v-81.07h81.07z" fill="url(#color-2F7MK9OY)"/>
		</mask>
		<mask id="mask-izPqNHKv">
			<rect fill="url(#color-R78YiB14)" x="121.6" y="121.6" width="780.8" height="780.8"/>
		</mask>
	</defs>
	<g fill="none" fill-rule="nonzero" style="mix-blend-mode: normal">
		<g mask="url(#mask-cMqRmewN)">
			<g color="#ff0000" class="teamapps-color-2">
				<rect x="121.6" y="121.6" width="780.8" height="780.8" fill="currentColor"/>
			</g>
			<g color="#bc13e0" class="teamapps-color-3" mask="url(#mask-izPqNHKv)">
				<rect x="121.6" y="121.6" width="780.8" height="780.8" fill="currentColor"/>
			</g>
		</g>
		<g filter="url(#filter-yaM5YC0I)" mask="url(#mask-F7Rt9bCi)">
			<g color="#fff961" class="teamapps-color-1">
				<rect x="121.6" y="121.6" width="780.8" height="780.8" fill="currentColor"/>
			</g>
		</g>
	</g>
</svg>