<svg version="1.1" xmlns="http://www.w3.org/2000/svg" xmlns:xlink="http://www.w3.org/1999/xlink" viewBox="0,0,1024,1024">
	<!-- Color names: teamapps-color-1, teamapps-color-2, teamapps-color-3 -->
	<desc>money_off icon - Licensed under Apache License v2.0 (http://www.apache.org/licenses/LICENSE-2.0) - Created with Iconfu.com - Derivative work of Material icons (Copyright Google Inc.)</desc>
	<defs>
		<radialGradient cx="0" cy="0" r="1448.15" id="color-1yC1vZm4" gradientUnits="userSpaceOnUse">
			<stop offset="0.08" stop-color="#ffffff"/>
			<stop offset="1" stop-color="#000000"/>
		</radialGradient>
		<linearGradient x1="0" y1="1024" x2="1024" y2="0" id="color-9P7B1xWy" gradientUnits="userSpaceOnUse">
			<stop offset="0.2" stop-color="#000000"/>
			<stop offset="0.8" stop-color="#ffffff"/>
		</linearGradient>
		<filter id="filter-GGB823Il" color-interpolation-filters="sRGB">
			<feOffset/>
		</filter>
		<mask id="mask-wiOaqaTo">
			<rect fill="url(#color-9P7B1xWy)" x="164.57" y="121.6" width="694.86" height="780.8"/>
		</mask>
		<mask id="mask-Wt7dxDVv">
			<path d="M851.94,800.86l-51.47,51.48c-10,10 -26.21,10 -36.21,0l-73.97,-73.97c-21.2,14.47 -45.67,24.9 -71.63,31.75v66.68c0,14.14 -11.46,25.6 -25.6,25.6h-121.6c-14.14,0 -25.6,-11.46 -25.6,-25.6v-68.02c-76.49,-22.3 -143.86,-77.79 -149.12,-173.78c-0.8,-14.67 10.87,-27 25.56,-27h89.18c13.22,0 24.26,10.06 25.49,23.23c2.96,31.78 21.9,61.89 95.29,61.89c29.96,0 48.97,-5.55 60.99,-12.19l-118.74,-118.74c-91.11,-28.28 -164.86,-76.93 -170.2,-170.2l-132.24,-132.25c-10,-10 -10,-26.21 0,-36.2l51.47,-51.47c10,-10 26.21,-10 36.21,0.01l592.19,592.59c9.99,10 9.99,26.2 0,36.2zM452.96,334.33l-59.58,-59.58c-5.73,-5.73 -8.41,-13.85 -7.22,-21.87c1.19,-8.02 6.12,-15 13.27,-18.82c14.59,-7.78 30.19,-14.1 46.43,-19.01v-67.84c0,-14.14 11.46,-25.6 25.6,-25.6h121.6c14.14,0 25.6,11.46 25.6,25.6v69.56c83.78,28.33 127.05,97.91 130.09,172.6c0.59,14.54 -11.03,26.64 -25.58,26.64h-89.58c-13.66,0 -24.92,-10.73 -25.57,-24.37c-1.75,-36.54 -16.79,-60.75 -75.77,-60.75c-21.47,0 -38.33,3.58 -51.4,8.99c-9.57,3.97 -20.58,1.78 -27.9,-5.55zM241.64,190.17l-51.47,51.47l139.43,139.44c0,84.31 63.23,130.1 158.49,158.48l142.27,142.27c-13.78,19.46 -42.57,36.89 -98.1,36.89c-83.5,0 -116.33,-37.29 -120.78,-85.12h-89.18c4.86,88.77 71.34,138.62 149.16,155.24v87.96h121.6v-87.14c38.91,-7.3 73.78,-22.3 99.31,-45.4l89.98,89.98l51.47,-51.48zM532.26,305.28c72.15,0 98.9,34.46 101.34,85.12h89.58c-2.84,-69.72 -45.4,-133.76 -130.11,-154.43v-88.77h-121.6v87.55c-21.48,4.86 -41.74,12.16 -59.98,21.89l59.58,59.58c16.62,-6.89 36.88,-10.94 61.2,-10.94z" fill="url(#color-1yC1vZm4)"/>
		</mask>
		<mask id="mask-x8IQ9iWQ">
			<path d="M851.94,800.86l-51.47,51.48c-10,10 -26.21,10 -36.21,0l-73.97,-73.97c-21.2,14.47 -45.67,24.9 -71.63,31.75v66.68c0,14.14 -11.46,25.6 -25.6,25.6h-121.6c-14.14,0 -25.6,-11.46 -25.6,-25.6v-68.02c-76.49,-22.3 -143.86,-77.79 -149.12,-173.78c-0.8,-14.67 10.87,-27 25.56,-27h89.18c13.22,0 24.26,10.06 25.49,23.23c2.96,31.78 21.9,61.89 95.29,61.89c29.96,0 48.97,-5.55 60.99,-12.19l-118.74,-118.74c-91.11,-28.28 -164.86,-76.93 -170.2,-170.2l-132.24,-132.25c-10,-10 -10,-26.21 0,-36.2l51.47,-51.47c10,-10 26.21,-10 36.21,0.01l592.19,592.59c9.99,10 9.99,26.2 0,36.2zM452.96,334.33l-59.58,-59.58c-5.73,-5.73 -8.41,-13.85 -7.22,-21.87c1.19,-8.02 6.12,-15 13.27,-18.82c14.59,-7.78 30.19,-14.1 46.43,-19.01v-67.84c0,-14.14 11.46,-25.6 25.6,-25.6h121.6c14.14,0 25.6,11.46 25.6,25.6v69.56c83.78,28.33 127.05,97.91 130.09,172.6c0.59,14.54 -11.03,26.64 -25.58,26.64h-89.58c-13.66,0 -24.92,-10.73 -25.57,-24.37c-1.75,-36.54 -16.79,-60.75 -75.77,-60.75c-21.47,0 -38.33,3.58 -51.4,8.99c-9.57,3.97 -20.58,1.78 -27.9,-5.55zM241.64,190.17l-51.47,51.47l139.43,139.44c0,84.31 63.23,130.1 158.49,158.48l142.27,142.27c-13.78,19.46 -42.57,36.89 -98.1,36.89c-83.5,0 -116.33,-37.29 -120.78,-85.12h-89.18c4.86,88.77 71.34,138.62 149.16,155.24v87.96h121.6v-87.14c38.91,-7.3 73.78,-22.3 99.31,-45.4l89.98,89.98l51.47,-51.48zM532.26,305.28c72.15,0 98.9,34.46 101.34,85.12h89.58c-2.84,-69.72 -45.4,-133.76 -130.11,-154.43v-88.77h-121.6v87.55c-21.48,4.86 -41.74,12.16 -59.98,21.89l59.58,59.58c16.62,-6.89 36.88,-10.94 61.2,-10.94z" fill="#ffffff"/>
		</mask>
	</defs>
	<g fill="none" fill-rule="nonzero" style="mix-blend-mode: normal">
		<g mask="url(#mask-x8IQ9iWQ)">
			<g color="#ff0000" class="teamapps-color-2">
				<rect x="164.57" y="121.6" width="694.86" height="780.8" fill="currentColor"/>
			</g>
			<g color="#bc13e0" class="teamapps-color-3" mask="url(#mask-wiOaqaTo)">
				<rect x="164.57" y="121.6" width="694.86" height="780.8" fill="currentColor"/>
			</g>
		</g>
		<g filter="url(#filter-GGB823Il)" mask="url(#mask-Wt7dxDVv)">
			<g color="#fff961" class="teamapps-color-1">
				<rect x="164.57" y="121.6" width="694.86" height="780.8" fill="currentColor"/>
			</g>
		</g>
	</g>
</svg>