<svg version="1.1" xmlns="http://www.w3.org/2000/svg" xmlns:xlink="http://www.w3.org/1999/xlink" viewBox="0,0,1024,1024">
	<!-- Color names: teamapps-color-1, teamapps-color-2, teamapps-color-3 -->
	<desc>motorcycle icon - Licensed under Apache License v2.0 (http://www.apache.org/licenses/LICENSE-2.0) - Created with Iconfu.com - Derivative work of Material icons (Copyright Google Inc.)</desc>
	<defs>
		<radialGradient cx="0" cy="0" r="1448.15" id="color-2l34aoXY" gradientUnits="userSpaceOnUse">
			<stop offset="0.08" stop-color="#ffffff"/>
			<stop offset="1" stop-color="#000000"/>
		</radialGradient>
		<linearGradient x1="0" y1="1024" x2="1024" y2="0" id="color-k7QxvIHi" gradientUnits="userSpaceOnUse">
			<stop offset="0.2" stop-color="#000000"/>
			<stop offset="0.8" stop-color="#ffffff"/>
		</linearGradient>
		<filter id="filter-04ek6S7p" color-interpolation-filters="sRGB">
			<feOffset/>
		</filter>
		<mask id="mask-4S53uhUt">
			<rect fill="url(#color-k7QxvIHi)" x="0" y="202.66" width="1024" height="618.67"/>
		</mask>
		<mask id="mask-KkQXrd3n">
			<path d="M1024,593.06c0,127.63 -100.63,228.27 -228.26,228.27c-126.63,0 -226.68,-99.06 -228.25,-225.25l-55.62,55.62c-4.8,4.8 -11.31,7.5 -18.1,7.5h-46.79c-27.78,94.86 -114.17,162.14 -218.71,162.14c-127.64,0 -228.26,-100.64 -228.26,-228.27c0,-127.63 100.63,-228.26 228.26,-228.26h407.98l-29.86,-29.86h-134.92c-14.14,0 -25.6,-11.46 -25.6,-25.6v-81.07c0,-14.14 11.46,-25.6 25.6,-25.6h178.75c6.79,0 13.3,2.7 18.1,7.5l156.88,156.88c113.65,13.53 198.81,108.66 198.81,226.02zM891.74,593.06c0,-53.15 -42.85,-96 -96,-96c-53.15,0 -96,42.85 -96,96c0,53.15 42.85,96 96,96c53.15,0 96,-42.85 96,-96zM202.66,633.6v-81.06c0,-14.14 11.46,-25.6 25.6,-25.6h68.67c-17.69,-18.36 -42.29,-29.87 -68.67,-29.87c-51.93,0 -96,44.07 -96,96c0,51.93 44.07,96 96,96c26.38,0 50.98,-11.51 68.67,-29.86h-68.67c-14.14,0 -25.6,-11.46 -25.6,-25.6zM813.57,391.62l-163.35,-163.35h-178.75v81.07h145.52l81.06,81.06h-469.78c-113.5,0 -202.66,89.17 -202.66,202.66c0,113.5 89.17,202.67 202.66,202.67c99.71,0 180.38,-68.5 198.62,-162.14h66.88l112.28,-112.28c-8.51,21.89 -12.98,46.21 -12.98,71.74c0,113.5 89.18,202.67 202.67,202.67c113.5,0 202.66,-89.18 202.66,-202.67c0,-107.42 -79.85,-193.34 -184.83,-201.45zM795.74,714.66c-67.29,0 -121.6,-54.31 -121.6,-121.6c0,-67.29 54.31,-121.6 121.6,-121.6c67.29,0 121.6,54.31 121.6,121.6c0,67.29 -54.31,121.6 -121.6,121.6zM342.57,633.6c-17.02,46.62 -62.42,81.06 -114.3,81.06c-66.07,0 -121.6,-55.53 -121.6,-121.6c0,-66.07 55.53,-121.6 121.6,-121.6c51.88,0 97.28,34.46 114.3,81.07h-114.3v81.06z" fill="#ffffff"/>
		</mask>
		<mask id="mask-PckTBZG3">
			<path d="M1024,593.06c0,127.63 -100.63,228.27 -228.26,228.27c-126.63,0 -226.68,-99.06 -228.25,-225.25l-55.62,55.62c-4.8,4.8 -11.31,7.5 -18.1,7.5h-46.79c-27.78,94.86 -114.17,162.14 -218.71,162.14c-127.64,0 -228.26,-100.64 -228.26,-228.27c0,-127.63 100.63,-228.26 228.26,-228.26h407.98l-29.86,-29.86h-134.92c-14.14,0 -25.6,-11.46 -25.6,-25.6v-81.07c0,-14.14 11.46,-25.6 25.6,-25.6h178.75c6.79,0 13.3,2.7 18.1,7.5l156.88,156.88c113.65,13.53 198.81,108.66 198.81,226.02zM891.74,593.06c0,-53.15 -42.85,-96 -96,-96c-53.15,0 -96,42.85 -96,96c0,53.15 42.85,96 96,96c53.15,0 96,-42.85 96,-96zM202.66,633.6v-81.06c0,-14.14 11.46,-25.6 25.6,-25.6h68.67c-17.69,-18.36 -42.29,-29.87 -68.67,-29.87c-51.93,0 -96,44.07 -96,96c0,51.93 44.07,96 96,96c26.38,0 50.98,-11.51 68.67,-29.86h-68.67c-14.14,0 -25.6,-11.46 -25.6,-25.6zM813.57,391.62l-163.35,-163.35h-178.75v81.07h145.52l81.06,81.06h-469.78c-113.5,0 -202.66,89.17 -202.66,202.66c0,113.5 89.17,202.67 202.66,202.67c99.71,0 180.38,-68.5 198.62,-162.14h66.88l112.28,-112.28c-8.51,21.89 -12.98,46.21 -12.98,71.74c0,113.5 89.18,202.67 202.67,202.67c113.5,0 202.66,-89.18 202.66,-202.67c0,-107.42 -79.85,-193.34 -184.83,-201.45zM795.74,714.66c-67.29,0 -121.6,-54.31 -121.6,-121.6c0,-67.29 54.31,-121.6 121.6,-121.6c67.29,0 121.6,54.31 121.6,121.6c0,67.29 -54.31,121.6 -121.6,121.6zM342.57,633.6c-17.02,46.62 -62.42,81.06 -114.3,81.06c-66.07,0 -121.6,-55.53 -121.6,-121.6c0,-66.07 55.53,-121.6 121.6,-121.6c51.88,0 97.28,34.46 114.3,81.07h-114.3v81.06z" fill="url(#color-2l34aoXY)"/>
		</mask>
	</defs>
	<g fill="none" fill-rule="nonzero" style="mix-blend-mode: normal">
		<g mask="url(#mask-KkQXrd3n)">
			<g color="#ff0000" class="teamapps-color-2">
				<rect x="0" y="202.66" width="1024" height="618.67" fill="currentColor"/>
			</g>
			<g color="#bc13e0" class="teamapps-color-3" mask="url(#mask-4S53uhUt)">
				<rect x="0" y="202.66" width="1024" height="618.67" fill="currentColor"/>
			</g>
		</g>
		<g filter="url(#filter-04ek6S7p)" mask="url(#mask-PckTBZG3)">
			<g color="#fff961" class="teamapps-color-1">
				<rect x="0" y="202.66" width="1024" height="618.67" fill="currentColor"/>
			</g>
		</g>
	</g>
</svg>