<svg version="1.1" xmlns="http://www.w3.org/2000/svg" xmlns:xlink="http://www.w3.org/1999/xlink" viewBox="0,0,1024,1024">
	<!-- Color names: teamapps-color-1, teamapps-color-2, teamapps-color-3 -->
	<desc>playlist_add_check icon - Licensed under Apache License v2.0 (http://www.apache.org/licenses/LICENSE-2.0) - Created with Iconfu.com - Derivative work of Material icons (Copyright Google Inc.)</desc>
	<defs>
		<radialGradient cx="0" cy="0" r="1448.15" id="color-9BQ5g2ve" gradientUnits="userSpaceOnUse">
			<stop offset="0.08" stop-color="#ffffff"/>
			<stop offset="1" stop-color="#000000"/>
		</radialGradient>
		<linearGradient x1="0" y1="1024" x2="1024" y2="0" id="color-vAbuF675" gradientUnits="userSpaceOnUse">
			<stop offset="0.2" stop-color="#000000"/>
			<stop offset="0.8" stop-color="#ffffff"/>
		</linearGradient>
		<filter id="filter-QPnT2rnJ" color-interpolation-filters="sRGB">
			<feOffset/>
		</filter>
		<mask id="mask-HTl7LUV5">
			<path d="M915.17,473.63l60.8,60.8c9.99,9.99 10,26.19 0.01,36.19l-283.33,283.73c-9.99,10 -26.19,10.02 -36.2,0.03l-182.8,-182.4c-10.02,-9.99 -10.02,-26.22 -0.02,-36.22l60.8,-60.8c9.99,-9.99 26.17,-10 36.17,-0.03l103.88,103.54l204.46,-204.82c9.99,-10.01 26.22,-10.02 36.22,-0.02zM593.06,537.6h-486.4c-14.14,0 -25.6,-11.46 -25.6,-25.6v-81.06c0,-14.14 11.46,-25.6 25.6,-25.6h486.4c14.14,0 25.6,11.46 25.6,25.6v81.06c0,14.14 -11.46,25.6 -25.6,25.6zM593.06,375.46h-486.4c-14.14,0 -25.6,-11.46 -25.6,-25.6v-81.06c0,-14.14 11.46,-25.6 25.6,-25.6h486.4c14.14,0 25.6,11.46 25.6,25.6v81.06c0,14.14 -11.46,25.6 -25.6,25.6zM106.66,567.46h324.27c14.14,0 25.6,11.46 25.6,25.6v81.07c0,14.14 -11.46,25.6 -25.6,25.6h-324.27c-14.14,0 -25.6,-11.46 -25.6,-25.6v-81.07c0,-14.14 11.46,-25.6 25.6,-25.6zM674.54,714.66l-122,-121.6l-60.8,60.8l182.8,182.4l283.33,-283.73l-60.8,-60.8zM593.06,430.94h-486.4v81.06h486.4zM593.06,268.8h-486.4v81.06h486.4zM106.66,674.14h324.27v-81.07h-324.27z" fill="url(#color-9BQ5g2ve)"/>
		</mask>
		<mask id="mask-l2ZNc8QO">
			<path d="M915.17,473.63l60.8,60.8c9.99,9.99 10,26.19 0.01,36.19l-283.33,283.73c-9.99,10 -26.19,10.02 -36.2,0.03l-182.8,-182.4c-10.02,-9.99 -10.02,-26.22 -0.02,-36.22l60.8,-60.8c9.99,-9.99 26.17,-10 36.17,-0.03l103.88,103.54l204.46,-204.82c9.99,-10.01 26.22,-10.02 36.22,-0.02zM593.06,537.6h-486.4c-14.14,0 -25.6,-11.46 -25.6,-25.6v-81.06c0,-14.14 11.46,-25.6 25.6,-25.6h486.4c14.14,0 25.6,11.46 25.6,25.6v81.06c0,14.14 -11.46,25.6 -25.6,25.6zM593.06,375.46h-486.4c-14.14,0 -25.6,-11.46 -25.6,-25.6v-81.06c0,-14.14 11.46,-25.6 25.6,-25.6h486.4c14.14,0 25.6,11.46 25.6,25.6v81.06c0,14.14 -11.46,25.6 -25.6,25.6zM106.66,567.46h324.27c14.14,0 25.6,11.46 25.6,25.6v81.07c0,14.14 -11.46,25.6 -25.6,25.6h-324.27c-14.14,0 -25.6,-11.46 -25.6,-25.6v-81.07c0,-14.14 11.46,-25.6 25.6,-25.6zM674.54,714.66l-122,-121.6l-60.8,60.8l182.8,182.4l283.33,-283.73l-60.8,-60.8zM593.06,430.94h-486.4v81.06h486.4zM593.06,268.8h-486.4v81.06h486.4zM106.66,674.14h324.27v-81.07h-324.27z" fill="#ffffff"/>
		</mask>
		<mask id="mask-rqAcRUts">
			<rect fill="url(#color-vAbuF675)" x="81.06" y="243.2" width="902.4" height="618.66"/>
		</mask>
	</defs>
	<g fill="none" fill-rule="nonzero" style="mix-blend-mode: normal">
		<g mask="url(#mask-l2ZNc8QO)">
			<g color="#ff0000" class="teamapps-color-2">
				<rect x="81.06" y="243.2" width="902.4" height="618.66" fill="currentColor"/>
			</g>
			<g color="#bc13e0" class="teamapps-color-3" mask="url(#mask-rqAcRUts)">
				<rect x="81.06" y="243.2" width="902.4" height="618.66" fill="currentColor"/>
			</g>
		</g>
		<g filter="url(#filter-QPnT2rnJ)" mask="url(#mask-HTl7LUV5)">
			<g color="#fff961" class="teamapps-color-1">
				<rect x="81.06" y="243.2" width="902.4" height="618.66" fill="currentColor"/>
			</g>
		</g>
	</g>
</svg>