<svg version="1.1" xmlns="http://www.w3.org/2000/svg" xmlns:xlink="http://www.w3.org/1999/xlink" viewBox="0,0,1024,1024">
	<!-- Color names: teamapps-color-1, teamapps-color-2, teamapps-color-3 -->
	<desc>recent_actors icon - Licensed under Apache License v2.0 (http://www.apache.org/licenses/LICENSE-2.0) - Created with Iconfu.com - Derivative work of Material icons (Copyright Google Inc.)</desc>
	<defs>
		<linearGradient x1="0" y1="1024" x2="1024" y2="0" id="color-94CQeUkV" gradientUnits="userSpaceOnUse">
			<stop offset="0.2" stop-color="#000000"/>
			<stop offset="0.8" stop-color="#ffffff"/>
		</linearGradient>
		<radialGradient cx="0" cy="0" r="1448.15" id="color-zrKohK9F" gradientUnits="userSpaceOnUse">
			<stop offset="0.08" stop-color="#ffffff"/>
			<stop offset="1" stop-color="#000000"/>
		</radialGradient>
		<filter id="filter-6t98Iybs" color-interpolation-filters="sRGB">
			<feOffset/>
		</filter>
		<mask id="mask-8kvakwKN">
			<path d="M659.2,268.8v486.4c0,36.43 -29.7,66.14 -66.14,66.14h-486.4c-36.44,0 -66.13,-29.71 -66.13,-66.14v-486.4c0,-36.43 29.68,-66.14 66.13,-66.14h486.4c36.43,0 66.14,29.7 66.14,66.14zM714.66,202.66h81.07c14.14,0 25.6,11.46 25.6,25.6v567.47c0,14.14 -11.46,25.6 -25.6,25.6h-81.07c-14.14,0 -25.6,-11.46 -25.6,-25.6v-567.47c0,-14.14 11.46,-25.6 25.6,-25.6zM983.46,228.26v567.47c0,14.14 -11.46,25.6 -25.6,25.6h-81.06c-14.14,0 -25.6,-11.46 -25.6,-25.6v-567.47c0,-14.14 11.46,-25.6 25.6,-25.6h81.06c14.14,0 25.6,11.46 25.6,25.6zM506.66,684.26c0,-31.58 -87.3,-65.6 -156.8,-65.6c-69.5,0 -156.8,34.02 -156.8,65.6v4.8h313.6zM284.26,430.94c0,36.13 29.47,65.6 65.6,65.6c36.13,0 65.6,-29.47 65.6,-65.6c0,-36.13 -29.47,-65.6 -65.6,-65.6c-36.13,0 -65.6,29.47 -65.6,65.6zM593.06,228.26h-486.4c-22.3,0 -40.53,18.24 -40.53,40.54v486.4c0,22.3 18.23,40.54 40.53,40.54h486.4c22.3,0 40.54,-18.24 40.54,-40.54v-486.4c0,-22.3 -18.24,-40.54 -40.54,-40.54zM714.66,795.74h81.07v-567.47h-81.07zM876.8,228.26v567.47h81.06v-567.47zM532.26,714.66h-364.8v-30.4c0,-60.8 121.6,-91.2 182.4,-91.2c60.8,0 182.4,30.4 182.4,91.2zM349.86,339.74c50.26,0 91.2,40.94 91.2,91.2c0,50.26 -40.94,91.2 -91.2,91.2c-50.26,0 -91.2,-40.94 -91.2,-91.2c0,-50.26 40.94,-91.2 91.2,-91.2z" fill="url(#color-zrKohK9F)"/>
		</mask>
		<mask id="mask-q6VOtUns">
			<rect fill="url(#color-94CQeUkV)" x="40.54" y="202.66" width="942.93" height="618.67"/>
		</mask>
		<mask id="mask-yrVRTosX">
			<path d="M659.2,268.8v486.4c0,36.43 -29.7,66.14 -66.14,66.14h-486.4c-36.44,0 -66.13,-29.71 -66.13,-66.14v-486.4c0,-36.43 29.68,-66.14 66.13,-66.14h486.4c36.43,0 66.14,29.7 66.14,66.14zM714.66,202.66h81.07c14.14,0 25.6,11.46 25.6,25.6v567.47c0,14.14 -11.46,25.6 -25.6,25.6h-81.07c-14.14,0 -25.6,-11.46 -25.6,-25.6v-567.47c0,-14.14 11.46,-25.6 25.6,-25.6zM983.46,228.26v567.47c0,14.14 -11.46,25.6 -25.6,25.6h-81.06c-14.14,0 -25.6,-11.46 -25.6,-25.6v-567.47c0,-14.14 11.46,-25.6 25.6,-25.6h81.06c14.14,0 25.6,11.46 25.6,25.6zM506.66,684.26c0,-31.58 -87.3,-65.6 -156.8,-65.6c-69.5,0 -156.8,34.02 -156.8,65.6v4.8h313.6zM284.26,430.94c0,36.13 29.47,65.6 65.6,65.6c36.13,0 65.6,-29.47 65.6,-65.6c0,-36.13 -29.47,-65.6 -65.6,-65.6c-36.13,0 -65.6,29.47 -65.6,65.6zM593.06,228.26h-486.4c-22.3,0 -40.53,18.24 -40.53,40.54v486.4c0,22.3 18.23,40.54 40.53,40.54h486.4c22.3,0 40.54,-18.24 40.54,-40.54v-486.4c0,-22.3 -18.24,-40.54 -40.54,-40.54zM714.66,795.74h81.07v-567.47h-81.07zM876.8,228.26v567.47h81.06v-567.47zM532.26,714.66h-364.8v-30.4c0,-60.8 121.6,-91.2 182.4,-91.2c60.8,0 182.4,30.4 182.4,91.2zM349.86,339.74c50.26,0 91.2,40.94 91.2,91.2c0,50.26 -40.94,91.2 -91.2,91.2c-50.26,0 -91.2,-40.94 -91.2,-91.2c0,-50.26 40.94,-91.2 91.2,-91.2z" fill="#ffffff"/>
		</mask>
	</defs>
	<g fill="none" fill-rule="nonzero" style="mix-blend-mode: normal">
		<g mask="url(#mask-yrVRTosX)">
			<g color="#ff0000" class="teamapps-color-2">
				<rect x="40.54" y="202.66" width="942.93" height="618.67" fill="currentColor"/>
			</g>
			<g color="#bc13e0" class="teamapps-color-3" mask="url(#mask-q6VOtUns)">
				<rect x="40.54" y="202.66" width="942.93" height="618.67" fill="currentColor"/>
			</g>
		</g>
		<g filter="url(#filter-6t98Iybs)" mask="url(#mask-8kvakwKN)">
			<g color="#fff961" class="teamapps-color-1">
				<rect x="40.54" y="202.66" width="942.93" height="618.67" fill="currentColor"/>
			</g>
		</g>
	</g>
</svg>