<svg version="1.1" xmlns="http://www.w3.org/2000/svg" xmlns:xlink="http://www.w3.org/1999/xlink" viewBox="0,0,1024,1024">
	<!-- Color names: teamapps-color-1, teamapps-color-2, teamapps-color-3 -->
	<desc>search icon - Licensed under Apache License v2.0 (http://www.apache.org/licenses/LICENSE-2.0) - Created with Iconfu.com - Derivative work of Material icons (Copyright Google Inc.)</desc>
	<defs>
		<linearGradient x1="0" y1="1024" x2="1024" y2="0" id="color-DgzbWM4a" gradientUnits="userSpaceOnUse">
			<stop offset="0.2" stop-color="#000000"/>
			<stop offset="0.8" stop-color="#ffffff"/>
		</linearGradient>
		<radialGradient cx="0" cy="0" r="1448.15" id="color-IPOtLVmE" gradientUnits="userSpaceOnUse">
			<stop offset="0.08" stop-color="#ffffff"/>
			<stop offset="1" stop-color="#000000"/>
		</radialGradient>
		<filter id="filter-GvlJgfpr" color-interpolation-filters="sRGB">
			<feOffset/>
		</filter>
		<mask id="mask-0hijtVHD">
			<rect fill="url(#color-DgzbWM4a)" x="121.6" y="121.6" width="760.13" height="760.13"/>
		</mask>
		<mask id="mask-5juLKvkh">
			<path d="M874.23,813.84l-60.39,60.39c-9.99,9.99 -26.19,10 -36.19,0.02l-202.67,-202.26c-4.81,-4.8 -7.52,-11.32 -7.52,-18.12v-0.49c-45.26,29.34 -99.17,46.36 -156.8,46.36c-159.65,0 -289.06,-129.42 -289.06,-289.07c0,-159.65 129.41,-289.06 289.06,-289.06c159.65,0 289.07,129.41 289.07,289.06c0,57.63 -17.02,111.54 -46.36,156.8h0.49c6.8,0 13.32,2.7 18.12,7.52l202.26,202.67c9.98,10 9.97,26.2 -0.02,36.19zM567.46,410.66c0,-86.79 -70.01,-156.8 -156.8,-156.8c-86.79,0 -156.8,70.01 -156.8,156.8c0,86.79 70.01,156.8 156.8,156.8c86.79,0 156.8,-70.01 156.8,-156.8zM653.86,593.06h-32.02l-11.35,-10.94c39.72,-46.21 63.64,-106.2 63.64,-171.46c0,-145.51 -117.96,-263.46 -263.47,-263.46c-145.51,0 -263.46,117.95 -263.46,263.46c0,145.51 117.95,263.47 263.46,263.47c65.26,0 125.25,-23.92 171.46,-63.64l10.94,11.35v32.02l202.67,202.26l60.39,-60.39zM410.66,593.06c-100.93,0 -182.4,-81.47 -182.4,-182.4c0,-100.93 81.47,-182.4 182.4,-182.4c100.93,0 182.4,81.47 182.4,182.4c0,100.93 -81.47,182.4 -182.4,182.4z" fill="#ffffff"/>
		</mask>
		<mask id="mask-JFzuJibr">
			<path d="M874.23,813.84l-60.39,60.39c-9.99,9.99 -26.19,10 -36.19,0.02l-202.67,-202.26c-4.81,-4.8 -7.52,-11.32 -7.52,-18.12v-0.49c-45.26,29.34 -99.17,46.36 -156.8,46.36c-159.65,0 -289.06,-129.42 -289.06,-289.07c0,-159.65 129.41,-289.06 289.06,-289.06c159.65,0 289.07,129.41 289.07,289.06c0,57.63 -17.02,111.54 -46.36,156.8h0.49c6.8,0 13.32,2.7 18.12,7.52l202.26,202.67c9.98,10 9.97,26.2 -0.02,36.19zM567.46,410.66c0,-86.79 -70.01,-156.8 -156.8,-156.8c-86.79,0 -156.8,70.01 -156.8,156.8c0,86.79 70.01,156.8 156.8,156.8c86.79,0 156.8,-70.01 156.8,-156.8zM653.86,593.06h-32.02l-11.35,-10.94c39.72,-46.21 63.64,-106.2 63.64,-171.46c0,-145.51 -117.96,-263.46 -263.47,-263.46c-145.51,0 -263.46,117.95 -263.46,263.46c0,145.51 117.95,263.47 263.46,263.47c65.26,0 125.25,-23.92 171.46,-63.64l10.94,11.35v32.02l202.67,202.26l60.39,-60.39zM410.66,593.06c-100.93,0 -182.4,-81.47 -182.4,-182.4c0,-100.93 81.47,-182.4 182.4,-182.4c100.93,0 182.4,81.47 182.4,182.4c0,100.93 -81.47,182.4 -182.4,182.4z" fill="url(#color-IPOtLVmE)"/>
		</mask>
	</defs>
	<g fill="none" fill-rule="nonzero" style="mix-blend-mode: normal">
		<g mask="url(#mask-5juLKvkh)">
			<g color="#ff0000" class="teamapps-color-2">
				<rect x="121.6" y="121.6" width="760.13" height="760.13" fill="currentColor"/>
			</g>
			<g color="#bc13e0" class="teamapps-color-3" mask="url(#mask-0hijtVHD)">
				<rect x="121.6" y="121.6" width="760.13" height="760.13" fill="currentColor"/>
			</g>
		</g>
		<g filter="url(#filter-GvlJgfpr)" mask="url(#mask-JFzuJibr)">
			<g color="#fff961" class="teamapps-color-1">
				<rect x="121.6" y="121.6" width="760.13" height="760.13" fill="currentColor"/>
			</g>
		</g>
	</g>
</svg>