<svg version="1.1" xmlns="http://www.w3.org/2000/svg" xmlns:xlink="http://www.w3.org/1999/xlink" viewBox="0,0,1024,1024">
	<!-- Color names: teamapps-color-1, teamapps-color-2, teamapps-color-3 -->
	<desc>settings_brightness icon - Licensed under Apache License v2.0 (http://www.apache.org/licenses/LICENSE-2.0) - Created with Iconfu.com - Derivative work of Material icons (Copyright Google Inc.)</desc>
	<defs>
		<linearGradient x1="0" y1="1024" x2="1024" y2="0" id="color-kepENl8I" gradientUnits="userSpaceOnUse">
			<stop offset="0.2" stop-color="#000000"/>
			<stop offset="0.8" stop-color="#ffffff"/>
		</linearGradient>
		<radialGradient cx="0" cy="0" r="1448.15" id="color-uWZagfLr" gradientUnits="userSpaceOnUse">
			<stop offset="0.08" stop-color="#ffffff"/>
			<stop offset="1" stop-color="#000000"/>
		</radialGradient>
		<filter id="filter-coygkhPO" color-interpolation-filters="sRGB">
			<feOffset/>
		</filter>
		<mask id="mask-3iUBr12E">
			<rect fill="url(#color-kepENl8I)" x="40.54" y="121.6" width="942.93" height="780.8"/>
		</mask>
		<mask id="mask-l4WMgjIW">
			<path d="M983.46,228.26v567.47c0,58.72 -47.94,106.66 -106.66,106.66h-729.6c-58.72,0 -106.66,-47.94 -106.66,-106.66v-567.47c0,-58.72 47.94,-106.66 106.66,-106.66h729.6c58.72,0 106.66,47.94 106.66,106.66zM172.8,253.46v517.07h678.4v-517.07zM270.96,530.1c-10,-10 -10,-26.21 0,-36.2l53.3,-53.3v-90.73c0,-14.14 11.46,-25.6 25.6,-25.6h90.73l53.3,-53.3c10,-10 26.21,-10 36.2,0l53.3,53.3h90.73c14.14,0 25.6,11.46 25.6,25.6v90.73l53.3,53.3c10,10 10,26.21 0,36.2l-53.3,53.3v90.73c0,14.14 -11.46,25.6 -25.6,25.6h-90.73l-53.3,53.3c-10,10 -26.21,10 -36.2,0l-53.3,-53.3h-90.73c-14.14,0 -25.6,-11.46 -25.6,-25.6v-90.73zM608,512c0,-44.28 -29.75,-81.42 -70.4,-92.57v185.15c40.65,-11.16 70.4,-48.29 70.4,-92.57zM876.8,147.2h-729.6c-44.58,0 -81.06,36.48 -81.06,81.06v567.47c0,44.58 36.48,81.06 81.06,81.06h729.6c44.58,0 81.06,-36.48 81.06,-81.06v-567.47c0,-44.58 -36.48,-81.06 -81.06,-81.06zM876.8,796.14h-729.6v-568.27h729.6zM349.86,674.14h101.34l60.8,60.8l60.8,-60.8h101.34v-101.34l60.8,-60.8l-60.8,-60.8v-101.34h-101.34l-60.8,-60.8l-60.8,60.8h-101.34v101.34l-60.8,60.8l60.8,60.8zM512,390.4c67.29,0 121.6,54.31 121.6,121.6c0,67.29 -54.31,121.6 -121.6,121.6z" fill="url(#color-uWZagfLr)"/>
		</mask>
		<mask id="mask-ZnDIC2t3">
			<path d="M983.46,228.26v567.47c0,58.72 -47.94,106.66 -106.66,106.66h-729.6c-58.72,0 -106.66,-47.94 -106.66,-106.66v-567.47c0,-58.72 47.94,-106.66 106.66,-106.66h729.6c58.72,0 106.66,47.94 106.66,106.66zM172.8,253.46v517.07h678.4v-517.07zM270.96,530.1c-10,-10 -10,-26.21 0,-36.2l53.3,-53.3v-90.73c0,-14.14 11.46,-25.6 25.6,-25.6h90.73l53.3,-53.3c10,-10 26.21,-10 36.2,0l53.3,53.3h90.73c14.14,0 25.6,11.46 25.6,25.6v90.73l53.3,53.3c10,10 10,26.21 0,36.2l-53.3,53.3v90.73c0,14.14 -11.46,25.6 -25.6,25.6h-90.73l-53.3,53.3c-10,10 -26.21,10 -36.2,0l-53.3,-53.3h-90.73c-14.14,0 -25.6,-11.46 -25.6,-25.6v-90.73zM608,512c0,-44.28 -29.75,-81.42 -70.4,-92.57v185.15c40.65,-11.16 70.4,-48.29 70.4,-92.57zM876.8,147.2h-729.6c-44.58,0 -81.06,36.48 -81.06,81.06v567.47c0,44.58 36.48,81.06 81.06,81.06h729.6c44.58,0 81.06,-36.48 81.06,-81.06v-567.47c0,-44.58 -36.48,-81.06 -81.06,-81.06zM876.8,796.14h-729.6v-568.27h729.6zM349.86,674.14h101.34l60.8,60.8l60.8,-60.8h101.34v-101.34l60.8,-60.8l-60.8,-60.8v-101.34h-101.34l-60.8,-60.8l-60.8,60.8h-101.34v101.34l-60.8,60.8l60.8,60.8zM512,390.4c67.29,0 121.6,54.31 121.6,121.6c0,67.29 -54.31,121.6 -121.6,121.6z" fill="#ffffff"/>
		</mask>
	</defs>
	<g fill="none" fill-rule="nonzero" style="mix-blend-mode: normal">
		<g mask="url(#mask-ZnDIC2t3)">
			<g color="#ff0000" class="teamapps-color-2">
				<rect x="40.54" y="121.6" width="942.93" height="780.8" fill="currentColor"/>
			</g>
			<g color="#bc13e0" class="teamapps-color-3" mask="url(#mask-3iUBr12E)">
				<rect x="40.54" y="121.6" width="942.93" height="780.8" fill="currentColor"/>
			</g>
		</g>
		<g filter="url(#filter-coygkhPO)" mask="url(#mask-l4WMgjIW)">
			<g color="#fff961" class="teamapps-color-1">
				<rect x="40.54" y="121.6" width="942.93" height="780.8" fill="currentColor"/>
			</g>
		</g>
	</g>
</svg>