<svg version="1.1" xmlns="http://www.w3.org/2000/svg" xmlns:xlink="http://www.w3.org/1999/xlink" viewBox="0,0,1024,1024">
	<!-- Color names: teamapps-color-1, teamapps-color-2, teamapps-color-3 -->
	<desc>shop icon - Licensed under Apache License v2.0 (http://www.apache.org/licenses/LICENSE-2.0) - Created with Iconfu.com - Derivative work of Material icons (Copyright Google Inc.)</desc>
	<defs>
		<linearGradient x1="0" y1="1024" x2="1024" y2="0" id="color-FC0wrlCV" gradientUnits="userSpaceOnUse">
			<stop offset="0.2" stop-color="#000000"/>
			<stop offset="0.8" stop-color="#ffffff"/>
		</linearGradient>
		<radialGradient cx="0" cy="0" r="1448.15" id="color-ONAYTa0C" gradientUnits="userSpaceOnUse">
			<stop offset="0.08" stop-color="#ffffff"/>
			<stop offset="1" stop-color="#000000"/>
		</radialGradient>
		<filter id="filter-CaibnJ0M" color-interpolation-filters="sRGB">
			<feOffset/>
		</filter>
		<mask id="mask-dBL5GqOT">
			<path d="M942.94,268.8v526.94c0,59.13 -47.55,106.66 -106.67,106.66h-648.53c-59.13,0 -106.67,-47.53 -106.67,-106.66v-526.94c0,-14.14 11.46,-25.6 25.6,-25.6h217.6v-55.46c0,-59.13 47.54,-106.67 106.67,-106.67h162.13c59.13,0 106.67,47.54 106.67,106.67v55.46h217.6c14.14,0 25.6,11.46 25.6,25.6zM416,433.07v274.3l228.58,-152.39zM456.54,213.34v29.86h110.93v-29.86zM674.14,268.8v-81.06c0,-44.99 -36.08,-81.07 -81.07,-81.07h-162.13c-44.99,0 -81.07,36.08 -81.07,81.07v81.06h-243.2v526.94c0,44.99 36.08,81.06 81.07,81.06h648.53c44.99,0 81.07,-36.07 81.07,-81.06v-526.94zM390.4,755.2v-364.8l304,162.14zM430.94,187.74h162.13v81.06h-162.13z" fill="#ffffff"/>
		</mask>
		<mask id="mask-F1QJHC5L">
			<path d="M942.94,268.8v526.94c0,59.13 -47.55,106.66 -106.67,106.66h-648.53c-59.13,0 -106.67,-47.53 -106.67,-106.66v-526.94c0,-14.14 11.46,-25.6 25.6,-25.6h217.6v-55.46c0,-59.13 47.54,-106.67 106.67,-106.67h162.13c59.13,0 106.67,47.54 106.67,106.67v55.46h217.6c14.14,0 25.6,11.46 25.6,25.6zM416,433.07v274.3l228.58,-152.39zM456.54,213.34v29.86h110.93v-29.86zM674.14,268.8v-81.06c0,-44.99 -36.08,-81.07 -81.07,-81.07h-162.13c-44.99,0 -81.07,36.08 -81.07,81.07v81.06h-243.2v526.94c0,44.99 36.08,81.06 81.07,81.06h648.53c44.99,0 81.07,-36.07 81.07,-81.06v-526.94zM390.4,755.2v-364.8l304,162.14zM430.94,187.74h162.13v81.06h-162.13z" fill="url(#color-ONAYTa0C)"/>
		</mask>
		<mask id="mask-ukyRguwN">
			<rect fill="url(#color-FC0wrlCV)" x="81.06" y="81.06" width="861.87" height="821.34"/>
		</mask>
	</defs>
	<g fill="none" fill-rule="nonzero" style="mix-blend-mode: normal">
		<g mask="url(#mask-dBL5GqOT)">
			<g color="#ff0000" class="teamapps-color-2">
				<rect x="81.06" y="81.06" width="861.87" height="821.34" fill="currentColor"/>
			</g>
			<g color="#bc13e0" class="teamapps-color-3" mask="url(#mask-ukyRguwN)">
				<rect x="81.06" y="81.06" width="861.87" height="821.34" fill="currentColor"/>
			</g>
		</g>
		<g filter="url(#filter-CaibnJ0M)" mask="url(#mask-F1QJHC5L)">
			<g color="#fff961" class="teamapps-color-1">
				<rect x="81.06" y="81.06" width="861.87" height="821.34" fill="currentColor"/>
			</g>
		</g>
	</g>
</svg>