<svg version="1.1" xmlns="http://www.w3.org/2000/svg" xmlns:xlink="http://www.w3.org/1999/xlink" viewBox="0,0,1024,1024">
	<!-- Color names: teamapps-color-1, teamapps-color-2, teamapps-color-3 -->
	<desc>smoking_rooms icon - Licensed under Apache License v2.0 (http://www.apache.org/licenses/LICENSE-2.0) - Created with Iconfu.com - Derivative work of Material icons (Copyright Google Inc.)</desc>
	<defs>
		<radialGradient cx="0" cy="0" r="1448.15" id="color-1gOaJDsF" gradientUnits="userSpaceOnUse">
			<stop offset="0.08" stop-color="#ffffff"/>
			<stop offset="1" stop-color="#000000"/>
		</radialGradient>
		<linearGradient x1="0" y1="1024" x2="1024" y2="0" id="color-Vu1d3mVi" gradientUnits="userSpaceOnUse">
			<stop offset="0.2" stop-color="#000000"/>
			<stop offset="0.8" stop-color="#ffffff"/>
		</linearGradient>
		<filter id="filter-OPhVbcAH" color-interpolation-filters="sRGB">
			<feOffset/>
		</filter>
		<mask id="mask-as39j3Pu">
			<path d="M729.6,633.6v-52.7c0,-38.13 -24.99,-57.49 -54.25,-57.49h-62.02c-89.12,0 -161.39,-72.27 -161.39,-161.39c0,-89.12 72.27,-161.38 161.39,-161.38c14.14,0 25.6,11.46 25.6,25.6v60.8c0,14.14 -11.46,25.6 -25.6,25.6c-29.06,0 -49.39,19.92 -49.39,45.34c0,29.76 24.62,55.46 49.39,55.46h62.02c61.3,0 118.75,31.48 147.35,81.66c-19.01,-53.37 -68.89,-91.26 -128.3,-91.26c-14.14,0 -25.6,-11.46 -25.6,-25.6v-60.8c0,-14.14 11.46,-25.6 25.6,-25.6c27.21,0 49.38,-22.18 49.38,-49.38c0,-27.21 -22.18,-49.39 -49.38,-49.39c-14.14,0 -25.6,-11.46 -25.6,-25.6v-60.8c0,-14.14 11.46,-25.6 25.6,-25.6c89.12,0 161.38,72.27 161.38,161.39c0,32.93 -9.9,63.53 -26.97,89.09c68.96,44.7 114.12,122.78 114.12,211.26v90.79c0,8.25 -3.9,15.59 -9.96,20.27c6.06,4.68 9.96,12.02 9.96,20.27v121.6c0,14.14 -11.46,25.6 -25.6,25.6h-60.8c-8.25,0 -15.59,-3.9 -20.27,-9.96c-4.68,6.06 -12.02,9.96 -20.27,9.96h-60.8c-8.25,0 -15.59,-3.9 -20.27,-9.96c-4.68,6.06 -12.02,9.96 -20.27,9.96h-608c-14.14,0 -25.6,-11.46 -25.6,-25.6v-121.6c0,-14.14 11.46,-25.6 25.6,-25.6h608c8.25,0 15.59,3.9 20.27,9.96c1.34,-1.73 2.9,-3.29 4.63,-4.63c-6.06,-4.68 -9.96,-12.02 -9.96,-20.27zM836.27,649.24c-1.34,1.73 -2.9,3.29 -4.63,4.63c1.73,1.34 3.29,2.9 4.63,4.63c1.34,-1.73 2.9,-3.29 4.63,-4.63c-1.73,-1.34 -3.29,-2.9 -4.63,-4.63zM675.35,439.04h-62.02c-41.34,0 -74.99,-39.72 -74.99,-81.06c0,-41.34 33.65,-70.94 74.99,-70.94v-60.8c-74.98,0 -135.79,60.8 -135.79,135.78c0,74.98 60.81,135.79 135.79,135.79h62.02c42.56,0 79.85,29.99 79.85,83.09v52.7h60.8v-66.47c0,-73.37 -64.85,-128.09 -140.65,-128.09zM789.66,338.92c25.13,-24.73 40.53,-58.77 40.53,-96.46c0,-74.98 -60.8,-135.79 -135.78,-135.79v60.8c41.34,0 74.98,33.65 74.98,74.99c0,41.34 -33.64,74.98 -74.98,74.98v60.8c90.79,0 162.14,74.18 162.14,164.97v90.39h60.8v-90.79c0,-89.98 -51.88,-167.82 -127.68,-203.89zM106.66,795.74h608v-121.6h-608zM856.54,795.74h60.8v-121.6h-60.8zM755.2,795.74h60.8v-121.6h-60.8z" fill="#ffffff"/>
		</mask>
		<mask id="mask-Eug7EEMT">
			<rect fill="url(#color-Vu1d3mVi)" x="81.06" y="81.06" width="861.87" height="740.27"/>
		</mask>
		<mask id="mask-y2XzEacs">
			<path d="M729.6,633.6v-52.7c0,-38.13 -24.99,-57.49 -54.25,-57.49h-62.02c-89.12,0 -161.39,-72.27 -161.39,-161.39c0,-89.12 72.27,-161.38 161.39,-161.38c14.14,0 25.6,11.46 25.6,25.6v60.8c0,14.14 -11.46,25.6 -25.6,25.6c-29.06,0 -49.39,19.92 -49.39,45.34c0,29.76 24.62,55.46 49.39,55.46h62.02c61.3,0 118.75,31.48 147.35,81.66c-19.01,-53.37 -68.89,-91.26 -128.3,-91.26c-14.14,0 -25.6,-11.46 -25.6,-25.6v-60.8c0,-14.14 11.46,-25.6 25.6,-25.6c27.21,0 49.38,-22.18 49.38,-49.38c0,-27.21 -22.18,-49.39 -49.38,-49.39c-14.14,0 -25.6,-11.46 -25.6,-25.6v-60.8c0,-14.14 11.46,-25.6 25.6,-25.6c89.12,0 161.38,72.27 161.38,161.39c0,32.93 -9.9,63.53 -26.97,89.09c68.96,44.7 114.12,122.78 114.12,211.26v90.79c0,8.25 -3.9,15.59 -9.96,20.27c6.06,4.68 9.96,12.02 9.96,20.27v121.6c0,14.14 -11.46,25.6 -25.6,25.6h-60.8c-8.25,0 -15.59,-3.9 -20.27,-9.96c-4.68,6.06 -12.02,9.96 -20.27,9.96h-60.8c-8.25,0 -15.59,-3.9 -20.27,-9.96c-4.68,6.06 -12.02,9.96 -20.27,9.96h-608c-14.14,0 -25.6,-11.46 -25.6,-25.6v-121.6c0,-14.14 11.46,-25.6 25.6,-25.6h608c8.25,0 15.59,3.9 20.27,9.96c1.34,-1.73 2.9,-3.29 4.63,-4.63c-6.06,-4.68 -9.96,-12.02 -9.96,-20.27zM836.27,649.24c-1.34,1.73 -2.9,3.29 -4.63,4.63c1.73,1.34 3.29,2.9 4.63,4.63c1.34,-1.73 2.9,-3.29 4.63,-4.63c-1.73,-1.34 -3.29,-2.9 -4.63,-4.63zM675.35,439.04h-62.02c-41.34,0 -74.99,-39.72 -74.99,-81.06c0,-41.34 33.65,-70.94 74.99,-70.94v-60.8c-74.98,0 -135.79,60.8 -135.79,135.78c0,74.98 60.81,135.79 135.79,135.79h62.02c42.56,0 79.85,29.99 79.85,83.09v52.7h60.8v-66.47c0,-73.37 -64.85,-128.09 -140.65,-128.09zM789.66,338.92c25.13,-24.73 40.53,-58.77 40.53,-96.46c0,-74.98 -60.8,-135.79 -135.78,-135.79v60.8c41.34,0 74.98,33.65 74.98,74.99c0,41.34 -33.64,74.98 -74.98,74.98v60.8c90.79,0 162.14,74.18 162.14,164.97v90.39h60.8v-90.79c0,-89.98 -51.88,-167.82 -127.68,-203.89zM106.66,795.74h608v-121.6h-608zM856.54,795.74h60.8v-121.6h-60.8zM755.2,795.74h60.8v-121.6h-60.8z" fill="url(#color-1gOaJDsF)"/>
		</mask>
	</defs>
	<g fill="none" fill-rule="nonzero" style="mix-blend-mode: normal">
		<g mask="url(#mask-as39j3Pu)">
			<g color="#ff0000" class="teamapps-color-2">
				<rect x="81.06" y="81.06" width="861.87" height="740.27" fill="currentColor"/>
			</g>
			<g color="#bc13e0" class="teamapps-color-3" mask="url(#mask-Eug7EEMT)">
				<rect x="81.06" y="81.06" width="861.87" height="740.27" fill="currentColor"/>
			</g>
		</g>
		<g filter="url(#filter-OPhVbcAH)" mask="url(#mask-y2XzEacs)">
			<g color="#fff961" class="teamapps-color-1">
				<rect x="81.06" y="81.06" width="861.87" height="740.27" fill="currentColor"/>
			</g>
		</g>
	</g>
</svg>