<svg version="1.1" xmlns="http://www.w3.org/2000/svg" xmlns:xlink="http://www.w3.org/1999/xlink" viewBox="0,0,1024,1024">
	<!-- Color names: teamapps-color-1, teamapps-color-2, teamapps-color-3 -->
	<desc>subdirectory_arrow_right icon - Licensed under Apache License v2.0 (http://www.apache.org/licenses/LICENSE-2.0) - Created with Iconfu.com - Derivative work of Material icons (Copyright Google Inc.)</desc>
	<defs>
		<linearGradient x1="0" y1="1024" x2="1024" y2="0" id="color-Q6muQp7I" gradientUnits="userSpaceOnUse">
			<stop offset="0.2" stop-color="#000000"/>
			<stop offset="0.8" stop-color="#ffffff"/>
		</linearGradient>
		<radialGradient cx="0" cy="0" r="1448.15" id="color-umtTZAaz" gradientUnits="userSpaceOnUse">
			<stop offset="0.08" stop-color="#ffffff"/>
			<stop offset="1" stop-color="#000000"/>
		</radialGradient>
		<filter id="filter-RUah5nc0" color-interpolation-filters="sRGB">
			<feOffset/>
		</filter>
		<mask id="mask-53t1MRok">
			<path d="M813.84,651.7l-243.2,243.2c-10,10 -26.21,10 -36.2,0l-57.56,-57.56c-10.01,-10.01 -10,-26.24 0.03,-36.23l101.66,-101.38h-390.82c-14.14,0 -25.6,-11.46 -25.6,-25.6v-486.4c0,-14.14 11.46,-25.6 25.6,-25.6h81.06c14.14,0 25.6,11.46 25.6,25.6v379.73h284.16l-101.66,-101.38c-10.02,-9.99 -10.03,-26.22 -0.03,-36.23l57.56,-57.56c10,-10 26.21,-10 36.2,0l243.2,243.2c10,10 10,26.21 0,36.2zM552.54,390.4l-57.56,57.56l145.51,145.1h-371.69v-405.33h-81.06v486.4h452.75l-145.51,145.1l57.56,57.56l243.2,-243.2z" fill="url(#color-umtTZAaz)"/>
		</mask>
		<mask id="mask-FuJ028B1">
			<path d="M813.84,651.7l-243.2,243.2c-10,10 -26.21,10 -36.2,0l-57.56,-57.56c-10.01,-10.01 -10,-26.24 0.03,-36.23l101.66,-101.38h-390.82c-14.14,0 -25.6,-11.46 -25.6,-25.6v-486.4c0,-14.14 11.46,-25.6 25.6,-25.6h81.06c14.14,0 25.6,11.46 25.6,25.6v379.73h284.16l-101.66,-101.38c-10.02,-9.99 -10.03,-26.22 -0.03,-36.23l57.56,-57.56c10,-10 26.21,-10 36.2,0l243.2,243.2c10,10 10,26.21 0,36.2zM552.54,390.4l-57.56,57.56l145.51,145.1h-371.69v-405.33h-81.06v486.4h452.75l-145.51,145.1l57.56,57.56l243.2,-243.2z" fill="#ffffff"/>
		</mask>
		<mask id="mask-SeilnPvT">
			<rect fill="url(#color-Q6muQp7I)" x="162.14" y="162.14" width="659.2" height="740.26"/>
		</mask>
	</defs>
	<g fill="none" fill-rule="nonzero" style="mix-blend-mode: normal">
		<g mask="url(#mask-FuJ028B1)">
			<g color="#ff0000" class="teamapps-color-2">
				<rect x="162.14" y="162.14" width="659.2" height="740.26" fill="currentColor"/>
			</g>
			<g color="#bc13e0" class="teamapps-color-3" mask="url(#mask-SeilnPvT)">
				<rect x="162.14" y="162.14" width="659.2" height="740.26" fill="currentColor"/>
			</g>
		</g>
		<g filter="url(#filter-RUah5nc0)" mask="url(#mask-53t1MRok)">
			<g color="#fff961" class="teamapps-color-1">
				<rect x="162.14" y="162.14" width="659.2" height="740.26" fill="currentColor"/>
			</g>
		</g>
	</g>
</svg>