<svg version="1.1" xmlns="http://www.w3.org/2000/svg" xmlns:xlink="http://www.w3.org/1999/xlink" viewBox="0,0,1024,1024">
	<!-- Color names: teamapps-color-1, teamapps-color-2, teamapps-color-3 -->
	<desc>timer_10 icon - Licensed under Apache License v2.0 (http://www.apache.org/licenses/LICENSE-2.0) - Created with Iconfu.com - Derivative work of Material icons (Copyright Google Inc.)</desc>
	<defs>
		<linearGradient x1="0" y1="1024" x2="1024" y2="0" id="color-KaH1dH8r" gradientUnits="userSpaceOnUse">
			<stop offset="0.2" stop-color="#000000"/>
			<stop offset="0.8" stop-color="#ffffff"/>
		</linearGradient>
		<radialGradient cx="0" cy="0" r="1448.15" id="color-UmIJA8Ih" gradientUnits="userSpaceOnUse">
			<stop offset="0.08" stop-color="#ffffff"/>
			<stop offset="1" stop-color="#000000"/>
		</radialGradient>
		<filter id="filter-791zKVZe" color-interpolation-filters="sRGB">
			<feOffset/>
		</filter>
		<mask id="mask-5K9ceyrJ">
			<rect fill="url(#color-KaH1dH8r)" x="0" y="239.14" width="1024.81" height="546.11"/>
		</mask>
		<mask id="mask-fGX5Mu6s">
			<path d="M642.02,368.85c8.58,29.43 12.32,64.4 12.32,103.83v77.82c0,39.79 -4.22,74.59 -12.27,103.67c-8.01,29.36 -19.96,54.36 -36.6,74.41c-16.21,19.53 -35.87,34.53 -59.85,43.59c-22.62,9.09 -47.38,13.09 -73.75,13.09c-26.51,0 -51.04,-4.57 -73.44,-12.97c-23.88,-8.95 -44.06,-23.85 -60.46,-43.57c-17.15,-20.14 -29.06,-45.17 -37.42,-74.2c-8.61,-29.47 -12.37,-64.51 -12.37,-104.02v-77.82c0,-39.81 4.23,-74.62 12.28,-103.7c8.42,-29.25 20.42,-53.99 36.98,-73.96c16.6,-20.01 36.9,-34.42 60.57,-43.3c22.68,-8.51 47.25,-12.57 73.44,-12.57c26.05,0 51.09,4.03 73.52,12.61c23.86,8.96 43.96,23.83 60.29,43.03c16.79,19.76 28.75,44.84 36.75,74.07zM1024.81,649.41c0,19.47 -4.04,37.88 -13.12,54.98c-8.55,16.09 -20.31,30.45 -36.15,42.19c-15.28,11.33 -33.03,19.84 -52.83,25.83c-20.37,6.16 -42.42,8.8 -65.78,8.8c-26.58,0 -50.78,-3.55 -72.91,-11.72c-21.12,-7.8 -39.32,-18.19 -54.56,-31.46c-0.08,-0.07 -0.16,-0.14 -0.24,-0.21c-14.93,-13.49 -26.46,-28.85 -34.48,-45.89c-8.02,-17.04 -12.17,-34.94 -12.17,-53.46c0,-14.14 11.46,-25.6 25.6,-25.6h76.61c13.75,0 25.05,10.87 25.58,24.61c0.29,7.4 1.95,12.17 3.56,14.81c3.06,5.01 5.86,7.86 8.67,9.68c0.2,0.13 0.39,0.26 0.59,0.39c3.51,2.41 8.19,4.51 14.12,5.93c0.37,0.09 0.74,0.19 1.11,0.29c5.55,1.58 11.54,2.25 18.91,2.25c18.4,0 27.68,-3.38 32.19,-6.73c4.81,-3.56 5.85,-6.25 5.85,-10.63c0,-3.23 -0.47,-4.99 -0.88,-5.97c-0.17,-0.42 -0.84,-1.65 -2.61,-3.08c-3.46,-2.41 -8.93,-5.37 -16.79,-8.32c-8.14,-3.05 -19.75,-6.38 -34.65,-9.44c-0.07,-0.01 -0.14,-0.03 -0.21,-0.04c-19.5,-4.24 -38.21,-9.43 -54.98,-15.6c-0.13,-0.05 -0.25,-0.1 -0.38,-0.15c-16.59,-6.55 -32.51,-14.53 -46.03,-25.01c-13.91,-10.47 -24.92,-22.88 -32.88,-37.68c-8.42,-15.24 -12.44,-32.95 -12.44,-51.17c0,-18.14 3.58,-35.5 12.03,-52.39c8.08,-16.15 19.24,-30.31 33.73,-42.31c14.62,-12.1 32.11,-21.16 51.01,-27.61c19.75,-6.74 41.67,-9.88 64.61,-9.88c24.02,0 46.85,3.11 67.61,10.35c19.58,6.83 37.08,15.86 52.15,28.42c14.8,12.34 26.54,27.01 34.74,44.43c8.13,17.28 12.17,35.6 12.17,55.08c0,14.14 -11.46,25.6 -25.6,25.6h-75.66c3.81,1.22 7.53,2.47 11.16,3.74c18.62,6.51 34.33,15.04 47.84,25.17c14.2,10.64 25.34,23.68 32.92,38.71c8.43,15.89 11.66,33.75 12.56,51.83c0.02,0.42 0.03,0.85 0.03,1.27zM891.33,503.08c0,-2.64 -0.57,-5.77 -2.18,-10.2c-1.68,-3.67 -3.38,-6.01 -5.39,-7.86c-2.77,-2.55 -6.35,-4.86 -10.95,-6.56c-4.61,-1.7 -10.5,-2.88 -17.9,-2.88c-7.8,0 -13.84,1 -17.85,2.33c-4.91,1.64 -8,3.48 -9.94,5.1c-0.34,0.28 -0.68,0.56 -1.04,0.82c-1.04,0.78 -2.17,2.09 -3.06,4.03c-0.86,1.87 -1.29,3.88 -1.29,5.89c0,2.3 0.4,3.87 0.82,4.89c0.35,0.37 0.98,0.88 2.02,1.55c3.24,2.09 8.41,4.55 16.85,7.49c8.06,2.8 18.67,5.75 31.89,8.4l27.31,6.74c-5.68,-4.7 -9.3,-11.8 -9.3,-19.74zM218.14,243.2h10.13c14.14,0 25.6,11.46 25.6,25.6v486.4c0,14.14 -11.46,25.6 -25.6,25.6h-81.06c-14.14,0 -25.6,-11.46 -25.6,-25.6v-353.6l-87.9,29.3c-7.81,2.6 -16.39,1.29 -23.06,-3.52c-6.68,-4.81 -10.63,-12.54 -10.63,-20.77v-68.1c0,-10.78 6.75,-20.4 16.88,-24.07l192.54,-69.72c2.79,-1.01 5.74,-1.53 8.72,-1.53zM523.29,459.71c0,-22.95 -1.92,-41.96 -4.8,-56.71c-2.75,-14.12 -7.02,-24.33 -11.43,-31.23c-0.05,-0.09 -0.11,-0.17 -0.16,-0.26c-4.16,-6.76 -8.67,-10.46 -13.26,-12.56c-0.09,-0.04 -0.18,-0.08 -0.26,-0.12c-5.5,-2.63 -12.72,-4.44 -21.91,-4.44c-8.47,0 -15.63,1.64 -21.76,4.38c-5.21,2.68 -9.78,6.69 -13.83,13.01c-4.55,6.96 -8.67,17.23 -11.96,32.22c-3.09,14.08 -4.68,32.72 -4.68,56.13v101.33c0,23.36 1.58,42.06 4.7,56.65c3.21,15 7.6,25.86 12.17,33.28c4.35,7.06 9.08,11.18 13.97,13.63c5.66,2.83 12.99,4.59 21.79,4.59c9.39,0 16.49,-1.83 21.4,-4.39c4.73,-2.47 9.58,-6.73 13.96,-13.83c4.34,-7.05 8.37,-17.6 11.24,-32.7c2.85,-14.96 4.41,-33.93 4.41,-57.23c0,-1.55 0.14,-3.07 0.41,-4.56zM585.77,311.36c-13.78,-16.22 -30.4,-28.38 -49.86,-35.67c-19.05,-7.3 -40.94,-10.94 -64.45,-10.94c-23.51,0 -44.99,3.65 -64.45,10.94c-19.46,7.3 -36.07,19.06 -49.86,35.67c-13.78,16.62 -24.31,37.7 -32.01,64.45c-7.3,26.34 -11.35,58.77 -11.35,96.87v77.82c0,38.1 3.65,70.54 11.35,96.88c7.7,26.75 18.24,48.23 32.42,64.85c13.78,16.62 30.4,28.78 49.86,36.08c19.46,7.3 40.94,11.34 64.45,11.34c23.91,0 45.4,-3.64 64.45,-11.34c19.46,-7.3 35.66,-19.47 49.45,-36.08c13.78,-16.62 24.32,-38.1 31.62,-64.85c7.3,-26.34 11.35,-58.78 11.35,-96.88v-77.82c0,-38.1 -3.65,-70.53 -11.35,-96.87c-7.3,-26.75 -17.83,-48.23 -31.62,-64.45zM989.48,608.06c-5.67,-11.35 -14.18,-21.48 -25.54,-29.99c-11.35,-8.51 -24.72,-15.82 -40.94,-21.49c-16.22,-5.67 -34.46,-10.94 -54.72,-15.4c-14.18,-2.84 -25.94,-6.08 -35.26,-9.32c-9.32,-3.24 -16.62,-6.49 -22.3,-10.14c-5.67,-3.65 -9.32,-7.7 -11.34,-12.16c-2.02,-4.46 -3.25,-9.73 -3.25,-15.81c0,-5.67 1.22,-11.34 3.65,-16.62c2.43,-5.27 6.08,-10.14 10.94,-13.78c4.86,-4.06 10.94,-7.3 18.24,-9.73c7.3,-2.43 16.22,-3.65 25.94,-3.65c10.14,0 19.05,1.62 26.75,4.46c7.7,2.84 14.18,6.9 19.46,11.76c5.27,4.86 8.91,10.54 11.75,17.02c2.43,6.49 4.06,12.97 4.06,19.86h79.04c0,-15.81 -3.24,-30.39 -9.73,-44.18c-6.49,-13.78 -15.81,-25.54 -27.97,-35.67c-12.16,-10.14 -26.75,-17.83 -44.18,-23.91c-17.43,-6.08 -37.29,-8.92 -59.18,-8.92c-20.67,0 -39.73,2.84 -56.34,8.51c-16.62,5.67 -31.21,13.38 -42.96,23.1c-11.75,9.73 -20.67,21.08 -27.16,34.05c-6.49,12.97 -9.32,26.34 -9.32,40.94c0,14.59 3.24,27.97 9.32,38.91c6.08,11.35 14.59,21.08 25.94,29.59c10.94,8.51 24.32,15.4 39.72,21.48c15.4,5.67 32.83,10.54 51.48,14.59c15.81,3.24 28.78,6.9 38.5,10.54c9.73,3.65 17.43,7.69 23.1,11.75c5.27,4.06 8.92,8.92 10.94,13.78c2.02,4.86 2.84,10.14 2.84,15.81c0,12.97 -5.27,23.1 -16.22,31.21c-10.94,8.1 -26.75,11.75 -47.42,11.75c-8.92,0 -17.43,-0.81 -25.94,-3.24c-8.51,-2.02 -16.21,-5.27 -22.7,-9.73c-6.89,-4.46 -12.16,-10.54 -16.62,-17.83c-4.46,-7.3 -6.89,-16.62 -7.3,-27.16h-76.61c0,14.59 3.24,28.78 9.73,42.56c6.49,13.78 15.8,26.34 28.37,37.7c12.57,10.94 27.97,19.86 46.62,26.75c18.65,6.89 39.72,10.14 64.04,10.14c21.48,0 40.94,-2.43 58.37,-7.7c17.43,-5.27 32.42,-12.57 44.99,-21.89c12.57,-9.32 21.9,-20.67 28.79,-33.64c6.89,-12.97 10.13,-27.16 10.13,-42.97c-0.81,-16.22 -3.65,-29.99 -9.73,-41.34zM25.6,338.52v68.1l121.6,-40.54v389.12h81.06v-486.4h-10.13zM548.48,561.45c0,24.32 -1.62,44.99 -4.86,62.02c-3.24,17.02 -8.1,30.81 -14.59,41.34c-6.49,10.54 -14.59,18.24 -23.91,23.1c-9.32,4.86 -20.67,7.3 -33.24,7.3c-12.16,0 -23.51,-2.43 -33.24,-7.3c-9.73,-4.86 -17.83,-12.57 -24.32,-23.1c-6.49,-10.54 -11.75,-24.32 -15.4,-41.34c-3.65,-17.02 -5.27,-37.7 -5.27,-62.02v-101.33c0,-24.32 1.62,-45 5.27,-61.62c3.65,-16.62 8.51,-29.99 15.4,-40.53c6.49,-10.14 14.59,-17.43 24.32,-22.3c9.73,-4.46 20.67,-6.89 32.83,-6.89c12.57,0 23.51,2.43 32.83,6.89c9.73,4.46 17.83,11.76 24.32,22.3c6.49,10.14 11.76,23.51 15,40.13c3.24,16.62 5.27,37.29 5.27,61.61v101.74z" fill="#ffffff"/>
		</mask>
		<mask id="mask-XVM2ZNqQ">
			<path d="M642.02,368.85c8.58,29.43 12.32,64.4 12.32,103.83v77.82c0,39.79 -4.22,74.59 -12.27,103.67c-8.01,29.36 -19.96,54.36 -36.6,74.41c-16.21,19.53 -35.87,34.53 -59.85,43.59c-22.62,9.09 -47.38,13.09 -73.75,13.09c-26.51,0 -51.04,-4.57 -73.44,-12.97c-23.88,-8.95 -44.06,-23.85 -60.46,-43.57c-17.15,-20.14 -29.06,-45.17 -37.42,-74.2c-8.61,-29.47 -12.37,-64.51 -12.37,-104.02v-77.82c0,-39.81 4.23,-74.62 12.28,-103.7c8.42,-29.25 20.42,-53.99 36.98,-73.96c16.6,-20.01 36.9,-34.42 60.57,-43.3c22.68,-8.51 47.25,-12.57 73.44,-12.57c26.05,0 51.09,4.03 73.52,12.61c23.86,8.96 43.96,23.83 60.29,43.03c16.79,19.76 28.75,44.84 36.75,74.07zM1024.81,649.41c0,19.47 -4.04,37.88 -13.12,54.98c-8.55,16.09 -20.31,30.45 -36.15,42.19c-15.28,11.33 -33.03,19.84 -52.83,25.83c-20.37,6.16 -42.42,8.8 -65.78,8.8c-26.58,0 -50.78,-3.55 -72.91,-11.72c-21.12,-7.8 -39.32,-18.19 -54.56,-31.46c-0.08,-0.07 -0.16,-0.14 -0.24,-0.21c-14.93,-13.49 -26.46,-28.85 -34.48,-45.89c-8.02,-17.04 -12.17,-34.94 -12.17,-53.46c0,-14.14 11.46,-25.6 25.6,-25.6h76.61c13.75,0 25.05,10.87 25.58,24.61c0.29,7.4 1.95,12.17 3.56,14.81c3.06,5.01 5.86,7.86 8.67,9.68c0.2,0.13 0.39,0.26 0.59,0.39c3.51,2.41 8.19,4.51 14.12,5.93c0.37,0.09 0.74,0.19 1.11,0.29c5.55,1.58 11.54,2.25 18.91,2.25c18.4,0 27.68,-3.38 32.19,-6.73c4.81,-3.56 5.85,-6.25 5.85,-10.63c0,-3.23 -0.47,-4.99 -0.88,-5.97c-0.17,-0.42 -0.84,-1.65 -2.61,-3.08c-3.46,-2.41 -8.93,-5.37 -16.79,-8.32c-8.14,-3.05 -19.75,-6.38 -34.65,-9.44c-0.07,-0.01 -0.14,-0.03 -0.21,-0.04c-19.5,-4.24 -38.21,-9.43 -54.98,-15.6c-0.13,-0.05 -0.25,-0.1 -0.38,-0.15c-16.59,-6.55 -32.51,-14.53 -46.03,-25.01c-13.91,-10.47 -24.92,-22.88 -32.88,-37.68c-8.42,-15.24 -12.44,-32.95 -12.44,-51.17c0,-18.14 3.58,-35.5 12.03,-52.39c8.08,-16.15 19.24,-30.31 33.73,-42.31c14.62,-12.1 32.11,-21.16 51.01,-27.61c19.75,-6.74 41.67,-9.88 64.61,-9.88c24.02,0 46.85,3.11 67.61,10.35c19.58,6.83 37.08,15.86 52.15,28.42c14.8,12.34 26.54,27.01 34.74,44.43c8.13,17.28 12.17,35.6 12.17,55.08c0,14.14 -11.46,25.6 -25.6,25.6h-75.66c3.81,1.22 7.53,2.47 11.16,3.74c18.62,6.51 34.33,15.04 47.84,25.17c14.2,10.64 25.34,23.68 32.92,38.71c8.43,15.89 11.66,33.75 12.56,51.83c0.02,0.42 0.03,0.85 0.03,1.27zM891.33,503.08c0,-2.64 -0.57,-5.77 -2.18,-10.2c-1.68,-3.67 -3.38,-6.01 -5.39,-7.86c-2.77,-2.55 -6.35,-4.86 -10.95,-6.56c-4.61,-1.7 -10.5,-2.88 -17.9,-2.88c-7.8,0 -13.84,1 -17.85,2.33c-4.91,1.64 -8,3.48 -9.94,5.1c-0.34,0.28 -0.68,0.56 -1.04,0.82c-1.04,0.78 -2.17,2.09 -3.06,4.03c-0.86,1.87 -1.29,3.88 -1.29,5.89c0,2.3 0.4,3.87 0.82,4.89c0.35,0.37 0.98,0.88 2.02,1.55c3.24,2.09 8.41,4.55 16.85,7.49c8.06,2.8 18.67,5.75 31.89,8.4l27.31,6.74c-5.68,-4.7 -9.3,-11.8 -9.3,-19.74zM218.14,243.2h10.13c14.14,0 25.6,11.46 25.6,25.6v486.4c0,14.14 -11.46,25.6 -25.6,25.6h-81.06c-14.14,0 -25.6,-11.46 -25.6,-25.6v-353.6l-87.9,29.3c-7.81,2.6 -16.39,1.29 -23.06,-3.52c-6.68,-4.81 -10.63,-12.54 -10.63,-20.77v-68.1c0,-10.78 6.75,-20.4 16.88,-24.07l192.54,-69.72c2.79,-1.01 5.74,-1.53 8.72,-1.53zM523.29,459.71c0,-22.95 -1.92,-41.96 -4.8,-56.71c-2.75,-14.12 -7.02,-24.33 -11.43,-31.23c-0.05,-0.09 -0.11,-0.17 -0.16,-0.26c-4.16,-6.76 -8.67,-10.46 -13.26,-12.56c-0.09,-0.04 -0.18,-0.08 -0.26,-0.12c-5.5,-2.63 -12.72,-4.44 -21.91,-4.44c-8.47,0 -15.63,1.64 -21.76,4.38c-5.21,2.68 -9.78,6.69 -13.83,13.01c-4.55,6.96 -8.67,17.23 -11.96,32.22c-3.09,14.08 -4.68,32.72 -4.68,56.13v101.33c0,23.36 1.58,42.06 4.7,56.65c3.21,15 7.6,25.86 12.17,33.28c4.35,7.06 9.08,11.18 13.97,13.63c5.66,2.83 12.99,4.59 21.79,4.59c9.39,0 16.49,-1.83 21.4,-4.39c4.73,-2.47 9.58,-6.73 13.96,-13.83c4.34,-7.05 8.37,-17.6 11.24,-32.7c2.85,-14.96 4.41,-33.93 4.41,-57.23c0,-1.55 0.14,-3.07 0.41,-4.56zM585.77,311.36c-13.78,-16.22 -30.4,-28.38 -49.86,-35.67c-19.05,-7.3 -40.94,-10.94 -64.45,-10.94c-23.51,0 -44.99,3.65 -64.45,10.94c-19.46,7.3 -36.07,19.06 -49.86,35.67c-13.78,16.62 -24.31,37.7 -32.01,64.45c-7.3,26.34 -11.35,58.77 -11.35,96.87v77.82c0,38.1 3.65,70.54 11.35,96.88c7.7,26.75 18.24,48.23 32.42,64.85c13.78,16.62 30.4,28.78 49.86,36.08c19.46,7.3 40.94,11.34 64.45,11.34c23.91,0 45.4,-3.64 64.45,-11.34c19.46,-7.3 35.66,-19.47 49.45,-36.08c13.78,-16.62 24.32,-38.1 31.62,-64.85c7.3,-26.34 11.35,-58.78 11.35,-96.88v-77.82c0,-38.1 -3.65,-70.53 -11.35,-96.87c-7.3,-26.75 -17.83,-48.23 -31.62,-64.45zM989.48,608.06c-5.67,-11.35 -14.18,-21.48 -25.54,-29.99c-11.35,-8.51 -24.72,-15.82 -40.94,-21.49c-16.22,-5.67 -34.46,-10.94 -54.72,-15.4c-14.18,-2.84 -25.94,-6.08 -35.26,-9.32c-9.32,-3.24 -16.62,-6.49 -22.3,-10.14c-5.67,-3.65 -9.32,-7.7 -11.34,-12.16c-2.02,-4.46 -3.25,-9.73 -3.25,-15.81c0,-5.67 1.22,-11.34 3.65,-16.62c2.43,-5.27 6.08,-10.14 10.94,-13.78c4.86,-4.06 10.94,-7.3 18.24,-9.73c7.3,-2.43 16.22,-3.65 25.94,-3.65c10.14,0 19.05,1.62 26.75,4.46c7.7,2.84 14.18,6.9 19.46,11.76c5.27,4.86 8.91,10.54 11.75,17.02c2.43,6.49 4.06,12.97 4.06,19.86h79.04c0,-15.81 -3.24,-30.39 -9.73,-44.18c-6.49,-13.78 -15.81,-25.54 -27.97,-35.67c-12.16,-10.14 -26.75,-17.83 -44.18,-23.91c-17.43,-6.08 -37.29,-8.92 -59.18,-8.92c-20.67,0 -39.73,2.84 -56.34,8.51c-16.62,5.67 -31.21,13.38 -42.96,23.1c-11.75,9.73 -20.67,21.08 -27.16,34.05c-6.49,12.97 -9.32,26.34 -9.32,40.94c0,14.59 3.24,27.97 9.32,38.91c6.08,11.35 14.59,21.08 25.94,29.59c10.94,8.51 24.32,15.4 39.72,21.48c15.4,5.67 32.83,10.54 51.48,14.59c15.81,3.24 28.78,6.9 38.5,10.54c9.73,3.65 17.43,7.69 23.1,11.75c5.27,4.06 8.92,8.92 10.94,13.78c2.02,4.86 2.84,10.14 2.84,15.81c0,12.97 -5.27,23.1 -16.22,31.21c-10.94,8.1 -26.75,11.75 -47.42,11.75c-8.92,0 -17.43,-0.81 -25.94,-3.24c-8.51,-2.02 -16.21,-5.27 -22.7,-9.73c-6.89,-4.46 -12.16,-10.54 -16.62,-17.83c-4.46,-7.3 -6.89,-16.62 -7.3,-27.16h-76.61c0,14.59 3.24,28.78 9.73,42.56c6.49,13.78 15.8,26.34 28.37,37.7c12.57,10.94 27.97,19.86 46.62,26.75c18.65,6.89 39.72,10.14 64.04,10.14c21.48,0 40.94,-2.43 58.37,-7.7c17.43,-5.27 32.42,-12.57 44.99,-21.89c12.57,-9.32 21.9,-20.67 28.79,-33.64c6.89,-12.97 10.13,-27.16 10.13,-42.97c-0.81,-16.22 -3.65,-29.99 -9.73,-41.34zM25.6,338.52v68.1l121.6,-40.54v389.12h81.06v-486.4h-10.13zM548.48,561.45c0,24.32 -1.62,44.99 -4.86,62.02c-3.24,17.02 -8.1,30.81 -14.59,41.34c-6.49,10.54 -14.59,18.24 -23.91,23.1c-9.32,4.86 -20.67,7.3 -33.24,7.3c-12.16,0 -23.51,-2.43 -33.24,-7.3c-9.73,-4.86 -17.83,-12.57 -24.32,-23.1c-6.49,-10.54 -11.75,-24.32 -15.4,-41.34c-3.65,-17.02 -5.27,-37.7 -5.27,-62.02v-101.33c0,-24.32 1.62,-45 5.27,-61.62c3.65,-16.62 8.51,-29.99 15.4,-40.53c6.49,-10.14 14.59,-17.43 24.32,-22.3c9.73,-4.46 20.67,-6.89 32.83,-6.89c12.57,0 23.51,2.43 32.83,6.89c9.73,4.46 17.83,11.76 24.32,22.3c6.49,10.14 11.76,23.51 15,40.13c3.24,16.62 5.27,37.29 5.27,61.61v101.74z" fill="url(#color-UmIJA8Ih)"/>
		</mask>
	</defs>
	<g fill="none" fill-rule="nonzero" style="mix-blend-mode: normal">
		<g mask="url(#mask-fGX5Mu6s)">
			<g color="#ff0000" class="teamapps-color-2">
				<rect x="0" y="239.14" width="1024.81" height="546.11" fill="currentColor"/>
			</g>
			<g color="#bc13e0" class="teamapps-color-3" mask="url(#mask-5K9ceyrJ)">
				<rect x="0" y="239.14" width="1024.81" height="546.11" fill="currentColor"/>
			</g>
		</g>
		<g filter="url(#filter-791zKVZe)" mask="url(#mask-XVM2ZNqQ)">
			<g color="#fff961" class="teamapps-color-1">
				<rect x="0" y="239.14" width="1024.81" height="546.11" fill="currentColor"/>
			</g>
		</g>
	</g>
</svg>