<svg version="1.1" xmlns="http://www.w3.org/2000/svg" xmlns:xlink="http://www.w3.org/1999/xlink" viewBox="0,0,1024,1024">
	<!-- Color names: teamapps-color-1, teamapps-color-2, teamapps-color-3 -->
	<desc>trending_up icon - Licensed under Apache License v2.0 (http://www.apache.org/licenses/LICENSE-2.0) - Created with Iconfu.com - Derivative work of Material icons (Copyright Google Inc.)</desc>
	<defs>
		<radialGradient cx="0" cy="0" r="1448.15" id="color-bhtFf8TA" gradientUnits="userSpaceOnUse">
			<stop offset="0.08" stop-color="#ffffff"/>
			<stop offset="1" stop-color="#000000"/>
		</radialGradient>
		<linearGradient x1="0" y1="1024" x2="1024" y2="0" id="color-N0hTmwRI" gradientUnits="userSpaceOnUse">
			<stop offset="0.2" stop-color="#000000"/>
			<stop offset="0.8" stop-color="#ffffff"/>
		</linearGradient>
		<filter id="filter-fffhk2qI" color-interpolation-filters="sRGB">
			<feOffset/>
		</filter>
		<mask id="mask-CTWypdHj">
			<rect fill="url(#color-N0hTmwRI)" x="81.06" y="243.2" width="861.87" height="537.6"/>
		</mask>
		<mask id="mask-EZzoy3Oz">
			<path d="M942.94,268.8v243.2c0,10.35 -6.24,19.69 -15.8,23.65c-9.57,3.96 -20.58,1.77 -27.9,-5.55l-74.74,-74.74l-237.26,236.89c-10,9.98 -26.2,9.98 -36.19,-0.01l-144.03,-144.03l-225.1,225.1c-10,10 -26.21,10 -36.2,0l-57.15,-57.15c-9.99,-9.99 -10,-26.19 -0.01,-36.19l300.35,-300.76c10,-10.01 26.21,-10.01 36.22,-0.01l144.03,144.03l161.6,-161.6l-74.71,-74.72c-7.32,-7.32 -9.51,-18.33 -5.55,-27.9c3.96,-9.57 13.3,-15.8 23.65,-15.8h243.2c14.14,0 25.6,11.46 25.6,25.6zM674.14,268.8l92.82,92.82l-197.8,197.8l-162.14,-162.14l-300.35,300.76l57.15,57.15l243.2,-243.2l162.14,162.14l255.36,-254.96l92.82,92.82v-243.2z" fill="#ffffff"/>
		</mask>
		<mask id="mask-m8B5RZsO">
			<path d="M942.94,268.8v243.2c0,10.35 -6.24,19.69 -15.8,23.65c-9.57,3.96 -20.58,1.77 -27.9,-5.55l-74.74,-74.74l-237.26,236.89c-10,9.98 -26.2,9.98 -36.19,-0.01l-144.03,-144.03l-225.1,225.1c-10,10 -26.21,10 -36.2,0l-57.15,-57.15c-9.99,-9.99 -10,-26.19 -0.01,-36.19l300.35,-300.76c10,-10.01 26.21,-10.01 36.22,-0.01l144.03,144.03l161.6,-161.6l-74.71,-74.72c-7.32,-7.32 -9.51,-18.33 -5.55,-27.9c3.96,-9.57 13.3,-15.8 23.65,-15.8h243.2c14.14,0 25.6,11.46 25.6,25.6zM674.14,268.8l92.82,92.82l-197.8,197.8l-162.14,-162.14l-300.35,300.76l57.15,57.15l243.2,-243.2l162.14,162.14l255.36,-254.96l92.82,92.82v-243.2z" fill="url(#color-bhtFf8TA)"/>
		</mask>
	</defs>
	<g fill="none" fill-rule="nonzero" style="mix-blend-mode: normal">
		<g mask="url(#mask-EZzoy3Oz)">
			<g color="#ff0000" class="teamapps-color-2">
				<rect x="81.06" y="243.2" width="861.87" height="537.6" fill="currentColor"/>
			</g>
			<g color="#bc13e0" class="teamapps-color-3" mask="url(#mask-CTWypdHj)">
				<rect x="81.06" y="243.2" width="861.87" height="537.6" fill="currentColor"/>
			</g>
		</g>
		<g filter="url(#filter-fffhk2qI)" mask="url(#mask-m8B5RZsO)">
			<g color="#fff961" class="teamapps-color-1">
				<rect x="81.06" y="243.2" width="861.87" height="537.6" fill="currentColor"/>
			</g>
		</g>
	</g>
</svg>