<svg version="1.1" xmlns="http://www.w3.org/2000/svg" xmlns:xlink="http://www.w3.org/1999/xlink" viewBox="0,0,1024,1024">
	<!-- Color names: teamapps-color-1 -->
	<desc>3d_rotation icon - Licensed under Apache License v2.0 (http://www.apache.org/licenses/LICENSE-2.0) - Created with Iconfu.com - Derivative work of Material icons (Copyright Google Inc.)</desc>
	<g fill="none" fill-rule="nonzero" style="mix-blend-mode: normal">
		<g color="#039be5" class="teamapps-color-1">
			<path d="M440.65,769.96l141.91,141.91c18.22,18.22 23.96,45.47 14.65,69.49c-9.32,24.02 -31.93,40.27 -57.67,41.44l-26.87,1.17c-0.22,0.01 -0.45,0.01 -0.67,0.01c-268.48,0 -488.16,-206.58 -509.92,-469.38c-3.14,-37.9 26.77,-70.39 64.8,-70.39h55.87c33.51,0 61.53,25.47 64.73,58.83c9.68,101.1 65.54,188.81 146.47,241.54l14.92,-14.8c25.42,-25.23 66.46,-25.15 91.78,0.17zM956.74,539.41h-55.87c-33.58,0 -61.63,-25.57 -64.74,-59c-9.38,-100.83 -65.02,-188.25 -145.98,-241.21l-14.83,14.83c-25.39,25.39 -66.56,25.39 -91.96,0l-141.91,-141.91c-18.22,-18.22 -23.96,-45.47 -14.65,-69.49c9.32,-24.02 31.93,-40.27 57.67,-41.44l26.87,-1.17c0.22,-0.01 0.45,-0.01 0.67,-0.01c268.43,0 488.21,206.55 509.55,469.11c3.08,37.86 -26.82,70.29 -64.81,70.29zM799.39,504.92v14.9c0,28.46 -4.44,55.38 -13.56,80.59c-0.04,0.12 -0.09,0.24 -0.13,0.37c-9.31,25.21 -23.38,48 -41.9,67.11c-19.07,19.67 -41.6,33.77 -65.74,43.42c-25.54,10.22 -52.91,14.71 -80.4,14.71h-85.67c-18.84,0 -35.8,-8.02 -47.65,-20.79c-9.15,4.97 -18.79,9.01 -28.75,12.15c-18.9,6.06 -38.71,8.64 -58.06,8.64c-18.7,0 -37.19,-2.7 -55.12,-8.53c-18.97,-5.67 -35.63,-14.42 -50.19,-25.34c-0.82,-0.62 -1.63,-1.25 -2.42,-1.9c-14.94,-12.35 -27.72,-27.67 -37.17,-45.9c-10.87,-20.97 -15.11,-43.53 -15.11,-65.3c0,-34.85 27.41,-63.29 61.85,-64.95l0,-6.99c-33.2,-2.93 -59.23,-30.81 -59.23,-64.77c0,-20.33 4.02,-40.13 12.69,-58.91c0.29,-0.62 0.58,-1.23 0.89,-1.84c8.56,-17.11 19.89,-31.74 33.51,-44.07c0.33,-0.3 0.66,-0.59 0.99,-0.88c15.12,-13.06 32.48,-22.42 49.7,-28.73c0.19,-0.07 0.38,-0.14 0.57,-0.2c19.56,-6.94 39.42,-9.73 59.05,-9.73c19.72,0 38.5,2.68 56.12,7.8c0.82,0.24 1.64,0.49 2.45,0.76c8.82,2.94 18.49,6.91 28.12,12.36c11.87,-12.85 28.88,-20.92 47.78,-20.92h87.9c27.21,0 54.12,4.52 79.25,15c24.67,10.13 46.25,24.9 64.29,43.51c18.59,19.18 32.42,41.77 41.97,66.7c0.13,0.33 0.25,0.67 0.37,1.01c9.1,25.16 13.61,52.21 13.61,80.73zM359.68,780.69l-23.56,23.38c-90.4,-54.3 -153.38,-149.3 -163.93,-259.55c-2.44,-25.48 -23.84,-44.93 -49.44,-44.93h-55.87c-29.04,0 -51.89,24.82 -49.49,53.76c21.11,254.93 234.21,455.29 494.61,455.29c0.63,0 1.25,-0.01 1.88,-0.04l24.96,-1.13c19.66,-0.89 36.93,-13.31 44.05,-31.65c7.12,-18.35 2.73,-39.16 -11.19,-53.08l-141.91,-141.91c-19.34,-19.34 -50.69,-19.4 -70.1,-0.13zM1006.24,470.36c-20.7,-254.65 -233.88,-455 -494.24,-455c-0.63,0 -1.25,0.01 -1.88,0.04l-24.96,1.13c-19.66,0.89 -36.93,13.31 -44.05,31.65c-7.12,18.35 -2.73,39.16 11.19,53.08l141.91,141.91c19.39,19.4 50.84,19.4 70.24,0l23.49,-23.49c90.44,54.56 153.24,149.27 163.48,259.3c2.38,25.54 23.8,45.06 49.45,45.06h55.87c29.02,0 51.85,-24.77 49.5,-53.69zM771.34,429.42c-0.09,-0.25 -0.18,-0.49 -0.27,-0.74c-8.88,-23.18 -21.64,-43.95 -38.66,-61.5c-16.59,-17.12 -36.42,-30.68 -59.13,-40.01c-22.98,-9.58 -47.85,-13.83 -73.38,-13.83h-87.9c-18.99,0 -35.5,10.66 -43.85,26.33c-12.03,-8.81 -25.11,-14.62 -36.91,-18.56c-0.62,-0.21 -1.24,-0.4 -1.87,-0.58c-16.19,-4.7 -33.52,-7.19 -51.84,-7.19c-18.15,0 -36.24,2.58 -53.92,8.85c-0.14,0.05 -0.28,0.1 -0.41,0.15c-15.79,5.78 -31.46,14.28 -44.94,25.93c-0.24,0.21 -0.49,0.43 -0.73,0.64c-12.25,11.09 -22.4,24.2 -30.08,39.55c-0.23,0.47 -0.46,0.94 -0.68,1.41c-7.68,16.63 -11.28,34.21 -11.28,52.47c0,27.43 22.24,49.66 49.66,49.66h9.56l0.02,37.38h-12.19c-27.43,0 -49.66,22.24 -49.66,49.66c0,19.79 3.86,39.84 13.39,58.23c8.44,16.29 19.88,30.02 33.32,41.13c0.6,0.5 1.22,0.98 1.85,1.45c13.23,9.93 28.33,17.84 45.55,22.96c16.33,5.33 33.28,7.83 50.55,7.83c18.04,0 36.24,-2.41 53.41,-7.92c13.38,-4.21 26.03,-10.18 37.47,-17.93c8.43,15.4 24.79,25.85 43.59,25.85h85.67c25.84,0 51.23,-4.22 74.69,-13.61c22.4,-8.96 43.04,-21.93 60.42,-39.85c16.96,-17.49 29.91,-38.43 38.52,-61.74c0.03,-0.09 0.07,-0.18 0.1,-0.27c8.46,-23.39 12.64,-48.53 12.64,-75.37v-14.9c0,-26.89 -4.25,-52.15 -12.69,-75.5zM394.67,815.94l141.91,141.91l-24.58,1.12c-234.29,0 -426.12,-180.27 -445.12,-409.73h55.87c13.41,140.06 100.57,258.5 222.37,315.86zM956.74,474.38h-55.87c-13.03,-140.06 -100.19,-258.14 -222,-315.87l-49.54,49.54l-141.91,-141.91l24.58,-1.12c234.29,0 426.12,180.28 444.74,409.36zM724.69,446.45c6.33,17.5 9.68,36.87 9.68,58.47v14.9c0,21.61 -3.35,40.98 -9.68,58.48c-6.33,17.14 -15.65,32.03 -27.57,44.32c-11.92,12.29 -26.44,21.61 -43.2,28.31c-16.76,6.7 -35.76,10.06 -56.25,10.06h-85.67v-297.99h87.9c20.11,0 38.37,3.35 54.39,10.06c16.39,6.7 30.55,16.39 42.46,28.69c11.92,12.29 21.23,27.19 27.94,44.7zM413.67,609.96c8.56,-7.82 13.03,-19.37 13.03,-34.64c0,-8.2 -1.11,-15.27 -3.72,-21.23c-2.61,-5.96 -6.34,-10.8 -10.81,-14.89c-4.47,-3.73 -10.06,-6.71 -16.76,-8.57c-6.7,-1.86 -14.15,-2.6 -22.35,-2.6h-28.68v-38.37h28.68c8.2,0 15.64,-1.12 21.61,-3.35c5.96,-2.23 11.17,-5.21 15.27,-8.94c4.09,-3.73 7.46,-8.2 9.31,-13.78c1.86,-5.59 2.98,-11.54 2.98,-18.25c0,-13.78 -3.72,-24.59 -10.8,-32.04c-7.08,-7.82 -18.25,-11.54 -33.15,-11.54c-6.7,0 -12.29,1.12 -17.88,2.98c-5.59,1.86 -10.07,4.85 -14.16,8.2c-4.09,3.35 -7.07,7.81 -9.31,12.66c-2.23,4.85 -3.35,10.43 -3.35,16.76h-48.43c0,-11.55 2.23,-21.97 6.7,-31.65c4.85,-9.68 11.17,-17.88 19,-24.96c8.2,-7.08 18.25,-12.67 29.43,-16.76c11.55,-4.09 23.83,-5.96 37.24,-5.96c13.78,0 26.44,1.87 37.99,5.22c11.17,3.73 21.24,8.93 28.69,16.01c8.2,6.7 14.53,15.27 19,25.7c4.47,10.43 6.7,22.35 6.7,35.76c0,5.96 -0.75,11.92 -2.61,17.88c-1.86,5.96 -4.47,11.55 -8.2,17.14c-3.73,5.59 -8.19,10.8 -13.78,15.64c-5.59,4.85 -11.93,8.94 -19.37,12.29c8.94,2.98 16.39,6.7 22.72,11.55c5.96,4.85 11.17,10.05 14.89,16.01c4.09,5.96 6.71,12.29 8.57,19c1.86,6.7 2.6,13.78 2.6,20.86c0,13.41 -2.6,25.33 -7.45,36.12c-4.85,10.8 -11.93,19.74 -20.49,26.82c-8.56,7.08 -19,12.67 -30.91,16.39c-11.55,3.73 -24.58,5.59 -38.37,5.59c-12.67,0 -24.58,-1.86 -35.76,-5.59c-11.55,-3.35 -21.6,-8.57 -30.54,-15.28c-8.56,-7.08 -15.65,-15.64 -20.86,-25.7c-5.21,-10.06 -7.82,-21.97 -7.82,-35.38h48.43c0,6.33 1.12,12.29 3.35,17.5c2.23,5.59 5.59,10.06 9.68,13.78c4.09,4.09 8.94,6.7 14.9,8.94c5.59,1.86 12.29,2.98 19.37,2.98c14.9,0 26.82,-3.73 35.38,-12.29zM682.23,504.55c0,-32.41 -7.08,-56.99 -21.23,-74.13c-13.78,-17.14 -34.27,-25.7 -61.09,-25.7h-36.12v214.92h33.89c13.78,0 26.08,-2.23 36.88,-6.7c10.43,-4.47 19.37,-11.18 26.45,-19.75c7.08,-8.56 12.28,-19.36 16.01,-31.65c3.35,-12.67 5.22,-26.45 5.22,-42.1z" fill="currentColor"/>
		</g>
	</g>
</svg>