<svg version="1.1" xmlns="http://www.w3.org/2000/svg" xmlns:xlink="http://www.w3.org/1999/xlink" viewBox="0,0,1024,1024">
	<!-- Color names: teamapps-color-1 -->
	<desc>accessible icon - Licensed under Apache License v2.0 (http://www.apache.org/licenses/LICENSE-2.0) - Created with Iconfu.com - Derivative work of Material icons (Copyright Google Inc.)</desc>
	<g fill="none" fill-rule="nonzero" style="mix-blend-mode: normal">
		<g color="#039be5" class="teamapps-color-1">
			<path d="M837.76,679.62v204.87c0,35.91 -29.11,65.02 -65.02,65.02h-74.5c-35.91,0 -65.02,-29.11 -65.02,-65.02v-28.62c-46.03,57.08 -116.6,93.65 -195.71,93.65c-138.72,0 -251.27,-112.55 -251.27,-251.27c0,-116.32 79.04,-214.17 186.25,-242.76v-51.87c0,-35.25 13.1,-69.71 36.11,-95.92c-22.43,-24.75 -36.11,-57.62 -36.11,-93.67c0,-77.05 62.45,-139.53 139.52,-139.53c77.07,0 139.52,62.48 139.52,139.53c0,34.99 -12.9,66.99 -34.17,91.47l52,57.46c25.46,28.03 65.94,47.25 102.55,46.78c36.24,-0.47 65.87,28.78 65.87,65.02v74.5c0,20.75 -9.72,39.2 -24.8,51.09c15.62,22.52 24.8,49.86 24.8,79.28zM789.81,595.9c19.01,-6.96 32.59,-25.21 32.59,-46.65v-74.5c0,-27.68 -22.63,-50.02 -50.31,-49.66c-41.5,0.54 -86.06,-20.91 -114.14,-51.83l-47.93,-53.13c-4.64,-5.17 -9.63,-9.8 -14.87,-13.91c25.18,-22.72 41,-55.61 41,-92.2c0,-68.57 -55.58,-124.17 -124.16,-124.17c-68.58,0 -124.16,55.6 -124.16,124.17c0,37.29 16.44,70.74 42.46,93.5c-26.8,24.18 -42.46,59.68 -42.46,96.09v63.97c-106.39,22.72 -186.25,117.37 -186.25,230.65c0,130.23 105.68,235.91 235.91,235.91c92.38,0 172.37,-53.11 211.07,-130.4v80.74c0,27.43 22.24,49.66 49.66,49.66h74.5c27.43,0 49.66,-22.24 49.66,-49.66v-204.87c0,-32.21 -12.37,-61.61 -32.59,-83.71zM437.51,214.02c0,-41.14 33.35,-74.5 74.49,-74.5c41.14,0 74.49,33.36 74.49,74.5c0,41.14 -33.35,74.49 -74.49,74.49c-41.14,0 -74.49,-33.35 -74.49,-74.49zM586.49,476.62v128.51h111.74c40.97,0 74.5,33.52 74.5,74.49v204.87h-74.5v-186.25h-186.24c-40.97,0 -74.49,-33.52 -74.49,-74.49v-220.14c0,-39.11 28.3,-73.75 67.41,-77.1c16.39,-1.49 31.3,2.23 44.33,9.68h0.37c0.38,0 0.38,0.38 0.75,0.38c8.56,4.09 16.39,9.68 22.72,16.76l48.05,53.26c36.5,40.23 94.24,68.91 151.61,68.16v74.5c-65.19,-0.38 -138.2,-32.78 -186.25,-72.63zM620.02,735.49c-17.14,84.93 -92.37,148.99 -182.51,148.99c-102.8,0 -186.25,-83.44 -186.25,-186.25c0,-90.14 64.07,-165.37 148.99,-182.51v77.1c-43.2,15.64 -74.49,56.61 -74.49,105.41c0,61.83 49.91,111.74 111.74,111.74c48.79,0 90.14,-31.29 105.41,-74.49z" fill="currentColor"/>
		</g>
	</g>
</svg>