<svg version="1.1" xmlns="http://www.w3.org/2000/svg" xmlns:xlink="http://www.w3.org/1999/xlink" viewBox="0,0,1024,1024">
	<!-- Color names: teamapps-color-1 -->
	<desc>account_circle icon - Licensed under Apache License v2.0 (http://www.apache.org/licenses/LICENSE-2.0) - Created with Iconfu.com - Derivative work of Material icons (Copyright Google Inc.)</desc>
	<g fill="none" fill-rule="nonzero" style="mix-blend-mode: normal">
		<g color="#039be5" class="teamapps-color-1">
			<path d="M949.51,512c0,241.52 -195.99,437.51 -437.51,437.51c-241.52,0 -437.51,-195.99 -437.51,-437.51c0,-241.52 195.99,-437.51 437.51,-437.51c241.52,0 437.51,195.99 437.51,437.51zM512,89.85c-233.04,0 -422.15,189.11 -422.15,422.15c0,233.04 189.11,422.15 422.15,422.15c233.04,0 422.15,-189.11 422.15,-422.15c0,-233.04 -189.11,-422.15 -422.15,-422.15zM884.48,512c0,205.61 -166.87,372.48 -372.48,372.48c-205.61,0 -372.48,-166.87 -372.48,-372.48c0,-205.61 166.87,-372.48 372.48,-372.48c205.61,0 372.48,166.87 372.48,372.48zM735.49,660.24c-1.12,-74.13 -149.36,-114.72 -223.49,-114.72c-74.49,0 -222.37,40.59 -223.49,114.72c48.05,72.26 130.37,119.94 223.49,119.94c93.12,0 175.44,-47.68 223.49,-119.94zM400.26,363.01c0,61.83 49.91,111.74 111.74,111.74c61.83,0 111.74,-49.91 111.74,-111.74c0,-61.83 -49.91,-111.74 -111.74,-111.74c-61.83,0 -111.74,49.91 -111.74,111.74z" fill="currentColor"/>
		</g>
	</g>
</svg>