<svg version="1.1" xmlns="http://www.w3.org/2000/svg" xmlns:xlink="http://www.w3.org/1999/xlink" viewBox="0,0,1024,1024">
	<!-- Color names: teamapps-color-1 -->
	<desc>account_balance_wallet icon - Licensed under Apache License v2.0 (http://www.apache.org/licenses/LICENSE-2.0) - Created with Iconfu.com - Derivative work of Material icons (Copyright Google Inc.)</desc>
	<g fill="none" fill-rule="nonzero" style="mix-blend-mode: normal">
		<g color="#039be5" class="teamapps-color-1">
			<path d="M912.26,735.49v37.25c0,76.88 -62.64,139.52 -139.52,139.52h-521.48c-77.48,0 -139.52,-62.86 -139.52,-139.52v-521.48c0,-76.66 62.04,-139.52 139.52,-139.52h521.48c76.88,0 139.52,62.64 139.52,139.52v37.25c0,5.12 -0.59,10.11 -1.72,14.9c22.94,10.04 38.97,32.93 38.97,59.59v297.99c0,26.66 -16.03,49.55 -38.97,59.59c1.13,4.79 1.72,9.78 1.72,14.9zM890.07,710.35c24.8,-2.78 44.07,-23.81 44.07,-49.35v-297.99c0,-25.54 -19.28,-46.58 -44.07,-49.35c4.34,-7.37 6.82,-15.97 6.82,-25.14v-37.25c0,-68.4 -55.76,-124.16 -124.16,-124.16h-521.48c-68.94,0 -124.16,55.93 -124.16,124.16v521.48c0,68.23 55.22,124.16 124.16,124.16h521.48c68.4,0 124.16,-55.76 124.16,-124.16v-37.25c0,-9.17 -2.49,-17.77 -6.82,-25.14zM847.23,735.49v37.25c0,40.97 -33.52,74.49 -74.49,74.49h-521.48c-41.35,0 -74.49,-33.52 -74.49,-74.49v-521.48c0,-40.97 33.15,-74.49 74.49,-74.49h521.48c40.97,0 74.49,33.52 74.49,74.49v37.25h-335.23c-41.35,0 -74.49,33.52 -74.49,74.49v297.99c0,40.97 33.15,74.49 74.49,74.49zM512,363.01h372.48v297.99h-372.48zM716.87,512c0,-30.91 -24.96,-55.87 -55.87,-55.87c-30.91,0 -55.87,24.96 -55.87,55.87c0,30.91 24.96,55.87 55.87,55.87c30.91,0 55.87,-24.96 55.87,-55.87z" fill="currentColor"/>
		</g>
	</g>
</svg>