<svg version="1.1" xmlns="http://www.w3.org/2000/svg" xmlns:xlink="http://www.w3.org/1999/xlink" viewBox="0,0,1024,1024">
	<!-- Color names: teamapps-color-1 -->
	<desc>add_to_queue icon - Licensed under Apache License v2.0 (http://www.apache.org/licenses/LICENSE-2.0) - Created with Iconfu.com - Derivative work of Material icons (Copyright Google Inc.)</desc>
	<g fill="none" fill-rule="nonzero" style="mix-blend-mode: normal">
		<g color="#039be5" class="teamapps-color-1">
			<path d="M986.38,698.29c-0.03,76.41 -61.84,139.47 -139.15,139.47h-121.21v9.47c0,35.91 -29.11,65.02 -65.02,65.02h-297.99c-35.91,0 -65.02,-29.11 -65.02,-65.02v-9.47h-121.21c-77.49,0 -139.52,-62.88 -139.52,-139.53v-446.98c0,-77.26 62.26,-139.52 139.52,-139.52h670.46c76.66,0 139.52,62.04 139.52,139.52zM971.39,251.26c0,-68.94 -55.93,-124.16 -124.16,-124.16h-670.46c-68.77,0 -124.16,55.38 -124.16,124.16v446.98c0,68.22 55.21,124.17 124.16,124.17h136.57v24.83c0,27.43 22.24,49.66 49.66,49.66h297.99c27.43,0 49.66,-22.24 49.66,-49.66v-24.83h136.57c68.72,0 123.77,-56.08 123.79,-124.13zM921.73,251.26l-0.37,446.98c0,40.97 -33.16,74.5 -74.13,74.5h-186.24v74.49h-297.99v-74.49h-186.24c-41.35,0 -74.49,-33.53 -74.49,-74.5v-446.98c0,-41.35 33.15,-74.49 74.49,-74.49h670.46c40.97,0 74.49,33.15 74.49,74.49zM847.23,251.26h-670.46v446.98h670.46zM660.99,437.51v74.49h-111.74v111.74h-74.5v-111.74h-111.74v-74.49h111.74v-111.74h74.5v111.74z" fill="currentColor"/>
		</g>
	</g>
</svg>