<svg version="1.1" xmlns="http://www.w3.org/2000/svg" xmlns:xlink="http://www.w3.org/1999/xlink" viewBox="0,0,1024,1024">
	<!-- Color names: teamapps-color-1 -->
	<desc>add_a_photo icon - Licensed under Apache License v2.0 (http://www.apache.org/licenses/LICENSE-2.0) - Created with Iconfu.com - Derivative work of Material icons (Copyright Google Inc.)</desc>
	<g fill="none" fill-rule="nonzero" style="mix-blend-mode: normal">
		<g color="#039be5" class="teamapps-color-1">
			<path d="M400.26,148.99h260.74c18.25,0 35.65,7.67 47.97,21.13l48.83,53.36h89.43c76.88,0 139.52,62.64 139.52,139.52v446.98c0,76.87 -62.63,139.53 -139.52,139.53h-595.97c-76.89,0 -139.52,-62.65 -139.52,-139.53v-372.47c0,-6.45 0.94,-12.71 2.71,-18.63c-1.77,-5.92 -2.71,-12.17 -2.71,-18.63v-46.72h-46.72c-35.91,0 -65.02,-29.11 -65.02,-65.02v-74.49c0,-35.91 29.11,-65.02 65.02,-65.02h46.72v-46.72c0,-35.91 29.11,-65.02 65.02,-65.02h74.49c35.91,0 65.02,29.11 65.02,65.02v46.72h46.72c6.45,0 12.71,0.94 18.63,2.71c5.92,-1.77 12.17,-2.71 18.63,-2.71zM381.63,167.97c-5.75,-2.33 -12.04,-3.61 -18.63,-3.61h-62.08v-62.08c0,-27.43 -22.24,-49.66 -49.66,-49.66h-74.49c-27.43,0 -49.66,22.24 -49.66,49.66v62.08h-62.08c-27.43,0 -49.66,22.24 -49.66,49.66v74.49c0,27.43 22.24,49.66 49.66,49.66h62.08v62.08c0,6.59 1.28,12.87 3.61,18.63c-2.33,5.75 -3.61,12.04 -3.61,18.63v372.47c0,68.39 55.75,124.17 124.16,124.17h595.97c68.41,0 124.16,-55.78 124.16,-124.17v-446.98c0,-68.4 -55.76,-124.16 -124.16,-124.16h-96.2l-53.4,-58.36c-9.41,-10.28 -22.7,-16.14 -36.64,-16.14h-260.74c-6.59,0 -12.87,1.28 -18.63,3.61zM288.51,437.51v-111.74h111.74v-111.74h260.74l68.16,74.49h118.07c40.97,0 74.49,33.52 74.49,74.49v446.98c0,40.97 -33.52,74.5 -74.49,74.5h-595.97c-40.97,0 -74.49,-33.53 -74.49,-74.5v-372.47zM549.25,772.74c102.8,0 186.24,-83.44 186.24,-186.25c0,-102.8 -83.43,-186.24 -186.24,-186.24c-102.8,0 -186.25,83.43 -186.25,186.24c0,102.8 83.44,186.25 186.25,186.25zM176.77,214.02v-111.74h74.49v111.74h111.74v74.49h-111.74v111.74h-74.49v-111.74h-111.74v-74.49zM549.25,467.3c65.93,0 119.19,53.26 119.19,119.19c0,65.93 -53.26,119.2 -119.19,119.2c-65.93,0 -119.2,-53.27 -119.2,-119.2c0,-65.93 53.27,-119.19 119.2,-119.19z" fill="currentColor"/>
		</g>
	</g>
</svg>