<svg version="1.1" xmlns="http://www.w3.org/2000/svg" xmlns:xlink="http://www.w3.org/1999/xlink" viewBox="0,0,1024,1024">
	<!-- Color names: teamapps-color-1 -->
	<desc>airline_seat_flat_angled icon - Licensed under Apache License v2.0 (http://www.apache.org/licenses/LICENSE-2.0) - Created with Iconfu.com - Derivative work of Material icons (Copyright Google Inc.)</desc>
	<g fill="none" fill-rule="nonzero" style="mix-blend-mode: normal">
		<g color="#039be5" class="teamapps-color-1">
			<path d="M826.12,344.31c111.76,40.45 169.91,163.38 128.72,275.37l-25.67,70.32c-2.27,6.23 -5.42,11.92 -9.24,16.98c-0.42,5.91 -1.67,11.85 -3.79,17.66l-25.7,70.4c-12.28,33.64 -49.45,51.02 -83.14,38.87l-88.26,-31.83c-10.72,21.16 -32.67,35.69 -58.04,35.69h-297.99c-35.91,0 -65.02,-29.11 -65.02,-65.02v-122.67l-199.11,-71.68c-33.9,-12.2 -51.41,-49.64 -39.06,-83.48l25.7,-70.4c5.93,-16.24 17.66,-28.68 31.97,-35.84c-20.86,-80.19 16.95,-166.5 94.56,-203.52c81.02,-38.84 176.53,-10.72 224.41,62.14c17.15,-19.38 45,-27.4 70.8,-18.08zM436.39,279.17l-2.21,-4.82c-38.72,-80.12 -134.97,-113.96 -215.51,-75.34c-75.14,35.84 -109.46,122.37 -82.2,199.18c-16.24,3.4 -30.41,14.86 -36.52,31.59l-25.7,70.4c-9.44,25.85 3.94,54.44 29.83,63.76l209.27,75.34v133.46c0,27.43 22.24,49.66 49.66,49.66h297.99c24.13,0 44.23,-17.2 48.73,-40.01l102.78,37.07c25.73,9.28 54.12,-3.99 63.5,-29.69l25.7,-70.4c2.18,-5.98 3.15,-12.11 3.01,-18.12c4.27,-4.66 7.72,-10.22 10.02,-16.52l25.68,-70.34c38.24,-103.91 -15.68,-218.05 -119.52,-255.64l-318.85,-115.1c-25.69,-9.28 -54.06,3.94 -63.48,29.58zM146.6,446.81l708.46,255.53l-25.7,70.4l-168.36,-60.72v60.72h-297.99v-168.37l-242.11,-87.16zM893.79,597.3l-25.7,70.4l-460.39,-166.5l77.48,-210.83l318.85,115.1c78.22,28.31 118.44,113.99 89.76,191.83zM187.94,392.81c-26.82,-55.87 -3.35,-122.55 52.14,-148.99c55.87,-26.82 122.55,-3.35 149.37,52.14c26.44,55.5 2.98,122.18 -52.52,148.99c-55.87,26.82 -122.55,3.35 -148.99,-52.14z" fill="currentColor"/>
		</g>
	</g>
</svg>