<svg version="1.1" xmlns="http://www.w3.org/2000/svg" xmlns:xlink="http://www.w3.org/1999/xlink" viewBox="0,0,1024,1024">
	<!-- Color names: teamapps-color-1 -->
	<desc>airline_seat_legroom_extra icon - Licensed under Apache License v2.0 (http://www.apache.org/licenses/LICENSE-2.0) - Created with Iconfu.com - Derivative work of Material icons (Copyright Google Inc.)</desc>
	<g fill="none" fill-rule="nonzero" style="mix-blend-mode: normal">
		<g color="#039be5" class="teamapps-color-1">
			<path d="M692.3,875.71l-79.57,-163.34c-6.45,29.12 -32.43,50.89 -63.48,50.89h-223.49c-138.71,0 -251.27,-112.54 -251.27,-251.26v-335.23c0,-35.91 29.11,-65.02 65.02,-65.02h74.5c6.45,0 12.71,0.94 18.62,2.71c5.91,-1.77 12.17,-2.71 18.62,-2.71h223.49c35.91,0 65.02,29.11 65.02,65.02v158.65l65.84,0.19c53.72,0.03 101.41,31.07 124.71,77.65l100.06,204.82c51.76,-14.72 113.54,3.84 142.52,58.76c32.58,61.89 5.5,137.21 -56.04,165.99l-139.08,63.56c-32.09,14.67 -70.03,1.06 -85.48,-30.67zM771.4,892.4l138.96,-63.5c53.79,-25.15 77.36,-90.96 48.96,-144.9c-27.34,-51.82 -88.85,-66.93 -136.76,-46.95l-105.97,-216.92c-20.79,-41.57 -63.31,-69.13 -111.02,-69.16l-81.16,-0.23v-173.97c0,-27.43 -22.24,-49.66 -49.66,-49.66h-223.49c-6.58,0 -12.87,1.28 -18.62,3.61c-5.75,-2.33 -12.04,-3.61 -18.62,-3.61h-74.5c-27.43,0 -49.66,22.24 -49.66,49.66v335.23c0,130.24 105.68,235.9 235.91,235.9h223.49c27.43,0 49.66,-22.24 49.66,-49.66v-49.31l107.19,220.05c11.8,24.23 40.78,34.62 65.29,23.42zM889.32,783.91l-138.56,63.32l-127.01,-260.74h-260.74c-61.83,0 -111.74,-49.91 -111.74,-111.74v-297.98h223.49v223.49l130.74,0.38c28.31,0 54.01,16.39 66.68,41.71l127.01,260l40.6,-18.63c27.56,-12.67 61.46,-3.35 75.61,23.47c14.9,28.31 2.6,63.33 -26.08,76.74zM325.76,623.74h223.49v74.49h-223.49c-102.8,0 -186.25,-83.43 -186.25,-186.24v-335.23h74.5v335.23c0,61.83 49.91,111.74 111.74,111.74z" fill="currentColor"/>
		</g>
	</g>
</svg>