<svg version="1.1" xmlns="http://www.w3.org/2000/svg" xmlns:xlink="http://www.w3.org/1999/xlink" viewBox="0,0,1024,1024">
	<!-- Color names: teamapps-color-1 -->
	<desc>all_out icon - Licensed under Apache License v2.0 (http://www.apache.org/licenses/LICENSE-2.0) - Created with Iconfu.com - Derivative work of Material icons (Copyright Google Inc.)</desc>
	<g fill="none" fill-rule="nonzero" style="mix-blend-mode: normal">
		<g color="#039be5" class="teamapps-color-1">
			<path d="M433.8,832.14c-0.75,2.93 -1.72,5.83 -2.9,8.68c-10.06,24.3 -33.77,40.14 -60.07,40.14h-148.99c-35.91,0 -65.02,-29.11 -65.02,-65.02v-148.99c0,-26.3 15.84,-50.01 40.14,-60.07c2.85,-1.18 5.75,-2.15 8.68,-2.9c-15.31,-56.24 -15.31,-115.79 0,-172.03c-2.93,-0.75 -5.83,-1.72 -8.68,-2.9c-24.3,-10.06 -40.14,-33.77 -40.14,-60.07v-148.99c0,-35.91 29.11,-65.02 65.02,-65.02h148.99c26.3,0 50.01,15.84 60.07,40.14c1.18,2.85 2.15,5.76 2.9,8.69c56.24,-15.31 115.79,-15.31 172.04,0c0.76,-2.93 1.72,-5.84 2.9,-8.69c10.06,-24.3 33.77,-40.14 60.07,-40.14h148.99c35.91,0 65.02,29.11 65.02,65.02v148.99c0,26.3 -15.84,50.01 -40.14,60.07c-2.87,1.19 -5.78,2.16 -8.73,2.91c15.35,56.25 15.38,115.79 0.07,172.02c2.92,0.75 5.82,1.72 8.66,2.89c24.3,10.06 40.14,33.77 40.14,60.07v148.99c0,35.91 -29.11,65.02 -65.02,65.02h-148.99c-26.3,0 -50.01,-15.84 -60.07,-40.14c-1.18,-2.85 -2.15,-5.75 -2.9,-8.68c-56.24,15.31 -115.8,15.31 -172.04,0zM619.31,812c-0.61,7.67 0.55,15.54 3.62,22.95c7.69,18.56 25.8,30.66 45.88,30.66h148.99c27.43,0 49.66,-22.24 49.66,-49.66v-148.99c0,-20.09 -12.1,-38.2 -30.66,-45.88c-7.41,-3.07 -15.26,-4.23 -22.92,-3.63c21.69,-64.4 21.65,-134.53 -0.09,-198.97c7.69,0.62 15.58,-0.54 23.02,-3.62c18.56,-7.69 30.66,-25.8 30.66,-45.88v-148.99c0,-27.43 -22.24,-49.66 -49.66,-49.66h-148.99c-20.09,0 -38.2,12.1 -45.88,30.66c-3.07,7.42 -4.24,15.28 -3.62,22.96c-64.41,-21.69 -134.57,-21.69 -198.98,0c0.61,-7.68 -0.55,-15.54 -3.62,-22.96c-7.69,-18.56 -25.8,-30.66 -45.88,-30.66h-148.99c-27.43,0 -49.66,22.24 -49.66,49.66v148.99c0,20.09 12.1,38.2 30.66,45.88c7.41,3.07 15.28,4.24 22.95,3.62c-21.69,64.41 -21.69,134.56 0,198.97c-7.67,-0.61 -15.53,0.55 -22.95,3.62c-18.56,7.69 -30.66,25.8 -30.66,45.88v148.99c0,27.43 22.24,49.66 49.66,49.66h148.99c20.09,0 38.2,-12.1 45.88,-30.66c3.07,-7.41 4.24,-15.28 3.62,-22.95c64.41,21.69 134.56,21.69 198.97,0zM704.2,702.34c-101.69,101.69 -267.07,101.69 -368.76,0c-101.69,-101.69 -101.69,-267.07 0,-368.76c101.69,-101.69 267.07,-101.69 368.76,0c101.69,102.06 101.69,267.07 0,368.76zM663.23,374.55c-79.34,-79.34 -207.48,-79.34 -286.82,0c-79.34,79.34 -79.34,207.47 0,286.81c79.34,79.34 207.48,79.34 286.82,0c79.34,-79.34 79.34,-207.47 0,-286.81zM221.84,815.94v-148.99l148.99,148.99zM221.84,219.97h148.99l-148.99,148.99zM817.8,219.97v148.99l-148.99,-148.99zM817.8,815.94h-148.99l148.99,-148.99z" fill="currentColor"/>
		</g>
	</g>
</svg>