<svg version="1.1" xmlns="http://www.w3.org/2000/svg" xmlns:xlink="http://www.w3.org/1999/xlink" viewBox="0,0,1024,1024">
	<!-- Color names: teamapps-color-1 -->
	<desc>android icon - Licensed under Apache License v2.0 (http://www.apache.org/licenses/LICENSE-2.0) - Created with Iconfu.com - Derivative work of Material icons (Copyright Google Inc.)</desc>
	<g fill="none" fill-rule="nonzero" style="mix-blend-mode: normal">
		<g color="#039be5" class="teamapps-color-1">
			<path d="M726.02,833.93v69.18c0,66.82 -54.07,120.9 -120.9,120.9c-37.49,0 -70.97,-17.03 -93.12,-43.75c-22.15,26.72 -55.63,43.75 -93.12,43.75c-66.82,0 -120.9,-54.07 -120.9,-120.9v-69.18c-23.86,-6.74 -44.18,-21.93 -57.53,-42.08c-13.94,5.59 -29.15,8.67 -45.06,8.67c-66.82,0 -120.9,-54.07 -120.9,-120.9v-260.74c0,-66.82 54.07,-120.9 120.9,-120.9c10.02,0 19.77,1.22 29.11,3.52c4.94,-59.13 27.74,-112.94 62.68,-156.29l-2.19,-2.19c-32.84,-32.84 -32.83,-85.56 0,-118.4c32.8,-32.8 85.45,-32.84 118.3,-0.1l25.32,25.15c26.32,-8.04 54.29,-12.43 83.38,-12.43c28.68,0 56.44,4.34 82.56,12.31l24.93,-24.93c32.84,-32.84 85.56,-32.84 118.4,0c32.84,32.84 32.84,85.56 0,118.4l-1.58,1.58c35.37,43.56 58.26,97.66 63.2,156.89c9.33,-2.3 19.08,-3.52 29.11,-3.52c66.82,0 120.9,54.07 120.9,120.9v260.74c0,66.82 -54.07,120.9 -120.9,120.9c-15.91,0 -31.12,-3.07 -45.06,-8.67c-13.35,20.15 -33.66,35.34 -57.53,42.08zM777.19,771.82c15.21,8.49 32.75,13.33 51.43,13.33c58.34,0 105.54,-47.19 105.54,-105.54v-260.74c0,-58.34 -47.19,-105.54 -105.54,-105.54c-15.5,0 -30.22,3.33 -43.48,9.32c-0.77,-68.77 -27.01,-131.36 -69.73,-178.87l11.62,-11.62c26.84,-26.84 26.84,-69.84 0,-96.68c-26.84,-26.84 -69.84,-26.84 -96.68,0l-31.58,31.58c-27.19,-9.33 -56.43,-14.46 -86.77,-14.46c-30.75,0 -60.17,5.18 -87.56,14.57l-31.98,-31.76c-26.85,-26.77 -69.79,-26.74 -96.6,0.08c-26.84,26.84 -26.85,69.83 0,96.68l12.19,12.19c-42.21,47.32 -68.41,109.57 -69.18,178.31c-13.25,-5.99 -27.97,-9.32 -43.48,-9.32c-58.34,0 -105.54,47.19 -105.54,105.54v260.74c0,58.34 47.19,105.54 105.54,105.54c18.68,0 36.21,-4.84 51.43,-13.33c12.12,26.23 36.94,45.44 66.53,49.7v81.59c0,58.34 47.19,105.54 105.54,105.54c40.35,0 75.36,-22.57 93.12,-55.79c17.76,33.22 52.78,55.79 93.12,55.79c58.34,0 105.54,-47.19 105.54,-105.54v-81.59c29.58,-4.25 54.4,-23.46 66.53,-49.7zM288.51,363.01h446.98v372.48c0,20.49 -16.76,37.25 -37.25,37.25h-37.24v130.37c0,30.91 -24.96,55.87 -55.87,55.87c-30.91,0 -55.87,-24.96 -55.87,-55.87v-130.37h-74.5v130.37c0,30.91 -24.96,55.87 -55.87,55.87c-30.91,0 -55.87,-24.96 -55.87,-55.87v-130.37h-37.24c-20.49,0 -37.25,-16.76 -37.25,-37.25zM735.49,325.76h-446.98c0,-74.13 36.12,-139.3 91.25,-179.91l-48.79,-48.8c-7.45,-7.45 -7.45,-19 0,-26.44c7.45,-7.45 19,-7.45 26.44,0l55.51,55.13c29.8,-14.9 63.32,-23.47 99.08,-23.47c35.38,0 68.91,8.56 98.33,23.47l55.13,-55.13c7.45,-7.45 19,-7.45 26.44,0c7.45,7.45 7.45,19 0,26.44l-48.43,48.43c55.87,40.6 92.01,106.16 92.01,180.28zM884.48,418.88v260.74c0,30.91 -24.96,55.87 -55.87,55.87c-30.91,0 -55.87,-24.96 -55.87,-55.87v-260.74c0,-30.91 24.96,-55.87 55.87,-55.87c30.91,0 55.87,24.96 55.87,55.87zM251.26,418.88v260.74c0,30.91 -24.96,55.87 -55.87,55.87c-30.91,0 -55.87,-24.96 -55.87,-55.87v-260.74c0,-30.91 24.96,-55.87 55.87,-55.87c30.91,0 55.87,24.96 55.87,55.87zM623.74,214.02h-37.25v37.24h37.25zM437.51,214.02h-37.25v37.24h37.25z" fill="currentColor"/>
		</g>
	</g>
</svg>