<svg version="1.1" xmlns="http://www.w3.org/2000/svg" xmlns:xlink="http://www.w3.org/1999/xlink" viewBox="0,0,1024,1024">
	<!-- Color names: teamapps-color-1 -->
	<desc>arrow_upward icon - Licensed under Apache License v2.0 (http://www.apache.org/licenses/LICENSE-2.0) - Created with Iconfu.com - Derivative work of Material icons (Copyright Google Inc.)</desc>
	<g fill="none" fill-rule="nonzero" style="mix-blend-mode: normal">
		<g color="#039be5" class="teamapps-color-1">
			<path d="M557.98,168.04l297.98,297.98c25.39,25.39 25.39,66.56 0,91.95l-52.89,52.9c-25.41,25.41 -66.61,25.4 -92,-0.04l-96.8,-96.97v296.12c0,35.91 -29.11,65.02 -65.02,65.02h-74.5c-35.91,0 -65.02,-29.11 -65.02,-65.02v-296.52l-97.25,97.08c-25.4,25.36 -66.54,25.34 -91.92,-0.04l-52.52,-52.52c-25.39,-25.39 -25.39,-66.56 0,-91.96l297.98,-297.98c25.39,-25.39 66.56,-25.39 91.96,0zM476.88,178.9l-297.98,297.98c-19.4,19.39 -19.4,50.84 0,70.24l52.52,52.52c19.38,19.38 50.8,19.4 70.2,0.03l123.46,-123.24v333.56c0,27.43 22.24,49.66 49.66,49.66h74.5c27.43,0 49.66,-22.24 49.66,-49.66v-333.25l123.03,123.25c19.39,19.43 50.86,19.44 70.27,0.03l52.89,-52.9c19.39,-19.4 19.39,-50.84 0,-70.23l-297.98,-297.98c-19.39,-19.4 -50.84,-19.4 -70.24,0zM512,214.02l297.98,297.98l-52.89,52.9l-207.84,-208.22v453.31h-74.5v-453.31l-208.21,207.84l-52.52,-52.52z" fill="currentColor"/>
		</g>
	</g>
</svg>