<svg version="1.1" xmlns="http://www.w3.org/2000/svg" xmlns:xlink="http://www.w3.org/1999/xlink" viewBox="0,0,1024,1024">
	<!-- Color names: teamapps-color-1 -->
	<desc>attachment icon - Licensed under Apache License v2.0 (http://www.apache.org/licenses/LICENSE-2.0) - Created with Iconfu.com - Derivative work of Material icons (Copyright Google Inc.)</desc>
	<g fill="none" fill-rule="nonzero" style="mix-blend-mode: normal">
		<g color="#039be5" class="teamapps-color-1">
			<path d="M74.49,530.62c0,-149.15 120.75,-269.88 269.89,-269.88h391.1c118.22,0 214.02,95.78 214.02,214.01c0,108.82 -81.14,198.62 -186.25,212.23v48.51c0,35.91 -29.11,65.02 -65.02,65.02h-353.85c-149.15,0 -269.89,-120.74 -269.89,-269.89zM344.38,785.15h353.85c27.43,0 49.66,-22.24 49.66,-49.66v-62.46c103.96,-6.4 186.25,-92.7 186.25,-198.28c0,-109.75 -88.92,-198.65 -198.66,-198.65h-391.1c-140.66,0 -254.53,113.85 -254.53,254.52c0,140.67 113.87,254.53 254.53,254.53zM139.52,530.62c0,-113.24 91.63,-204.86 204.87,-204.86h391.1c82.32,0 148.99,66.67 148.99,148.99c0,82.32 -66.68,148.99 -148.99,148.99h-316.61c-51.4,0 -93.11,-41.72 -93.11,-93.12c0,-51.4 41.71,-93.11 93.11,-93.11h279.36v74.49h-282.71c-20.49,0 -20.49,37.25 0,37.25h319.96c40.97,0 74.49,-33.53 74.49,-74.5c0,-40.97 -33.52,-74.49 -74.49,-74.49h-391.1c-71.89,0 -130.37,58.47 -130.37,130.37c0,71.89 58.47,130.37 130.37,130.37h353.85v74.49h-353.85c-113.24,0 -204.87,-91.63 -204.87,-204.87z" fill="currentColor"/>
		</g>
	</g>
</svg>