<svg version="1.1" xmlns="http://www.w3.org/2000/svg" xmlns:xlink="http://www.w3.org/1999/xlink" viewBox="0,0,1024,1024">
	<!-- Color names: teamapps-color-1 -->
	<desc>autorenew icon - Licensed under Apache License v2.0 (http://www.apache.org/licenses/LICENSE-2.0) - Created with Iconfu.com - Derivative work of Material icons (Copyright Google Inc.)</desc>
	<g fill="none" fill-rule="nonzero" style="mix-blend-mode: normal">
		<g color="#039be5" class="teamapps-color-1">
			<path d="M875.01,512c0,178.36 -128.47,326.56 -297.98,357.2v52.53c0,26.3 -15.84,50.01 -40.14,60.07c-24.3,10.06 -52.27,4.5 -70.86,-14.09l-148.99,-148.99c-25.39,-25.39 -25.4,-66.57 0,-91.96l148.99,-148.99c18.6,-18.6 46.56,-24.16 70.86,-14.1c24.3,10.06 40.14,33.77 40.14,60.07v32.77c55.06,-24.87 93.44,-80.33 93.44,-144.51c0,-26.28 -6.75,-51.39 -18.66,-74.13c-13.19,-25.19 -8.48,-56.04 11.63,-76.15l54.39,-54.38c13.96,-13.96 33.5,-20.82 53.12,-18.65c19.62,2.17 37.19,13.14 47.76,29.81c35.35,55.75 56.29,122.13 56.29,193.5zM353.54,512c0,26.88 6.65,51.98 18.21,73.3c13.72,25.31 9.17,56.62 -11.19,76.98l-54.39,54.38c-13.96,13.96 -33.5,20.82 -53.12,18.65c-19.62,-2.17 -37.19,-13.14 -47.76,-29.81c-35.35,-55.75 -56.29,-122.13 -56.29,-193.5c0,-178.36 128.47,-326.56 297.98,-357.2v-52.53c0,-26.3 15.84,-50.01 40.14,-60.07c24.3,-10.06 52.27,-4.5 70.86,14.09l148.99,148.99c25.39,25.39 25.4,66.57 0,91.96l-148.99,148.99c-18.6,18.6 -46.56,24.16 -70.86,14.1c-24.3,-10.06 -40.14,-33.77 -40.14,-60.07v-32.77c-55.06,24.87 -93.44,80.33 -93.44,144.51zM805.74,326.73c-8.07,-12.73 -21.5,-21.11 -36.48,-22.77c-14.99,-1.66 -29.91,3.58 -40.58,14.24l-54.39,54.38c-15.36,15.36 -18.96,38.92 -8.88,58.16c12.97,24.76 20.41,52.3 20.41,81.26c0,78.61 -52.43,145.19 -124.16,166.6v-54.86c0,-20.09 -12.1,-38.2 -30.66,-45.88c-18.56,-7.69 -39.92,-3.44 -54.12,10.77l-148.99,148.99c-19.4,19.4 -19.39,50.84 0,70.24l148.99,148.99c14.2,14.2 35.57,18.45 54.12,10.76c18.56,-7.69 30.66,-25.8 30.66,-45.88v-65.6c168.53,-24.09 297.98,-168.92 297.98,-344.13c0,-68.33 -20.04,-131.87 -53.9,-185.27zM462.34,345.4v54.86c0,20.09 12.1,38.2 30.66,45.88c18.56,7.69 39.92,3.44 54.12,-10.77l148.99,-148.99c19.4,-19.4 19.39,-50.84 0,-70.24l-148.99,-148.99c-14.2,-14.2 -35.57,-18.45 -54.12,-10.76c-18.56,7.69 -30.66,25.8 -30.66,45.88v65.6c-168.53,24.09 -297.98,168.92 -297.98,344.13c0,68.33 20.04,131.87 53.9,185.27c8.07,12.73 21.5,21.11 36.48,22.77c14.99,1.66 29.91,-3.58 40.58,-14.24l54.39,-54.38c15.55,-15.55 19.02,-39.46 8.54,-58.79c-12.79,-23.59 -20.07,-51.21 -20.07,-80.62c0,-78.61 52.43,-145.19 124.16,-166.6zM288.51,512c0,37.62 9.31,73.38 26.08,104.3l-54.39,54.38c-29.05,-45.82 -46.18,-100.19 -46.18,-158.68c0,-164.64 133.34,-297.98 297.98,-297.98v-111.74l148.99,148.99l-148.99,148.99v-111.74c-123.29,0 -223.49,100.19 -223.49,223.49zM809.98,512c0,164.64 -133.34,297.98 -297.98,297.98v111.74l-148.99,-148.99l148.99,-148.99v111.74c123.29,0 223.49,-100.19 223.49,-223.49c0,-37.62 -9.69,-73.01 -26.08,-104.3l54.39,-54.38c29.05,45.82 46.18,100.19 46.18,158.68z" fill="currentColor"/>
		</g>
	</g>
</svg>