<svg version="1.1" xmlns="http://www.w3.org/2000/svg" xmlns:xlink="http://www.w3.org/1999/xlink" viewBox="0,0,1024,1024">
	<!-- Color names: teamapps-color-1 -->
	<desc>backspace icon - Licensed under Apache License v2.0 (http://www.apache.org/licenses/LICENSE-2.0) - Created with Iconfu.com - Derivative work of Material icons (Copyright Google Inc.)</desc>
	<g fill="none" fill-rule="nonzero" style="mix-blend-mode: normal">
		<g color="#039be5" class="teamapps-color-1">
			<path d="M1024,251.26v521.48c0,76.88 -62.64,139.52 -139.52,139.52h-558.72c-51.41,0 -90.04,-27.83 -113.01,-61.63l-201.82,-302.54c-14.57,-21.84 -14.58,-50.29 -0.02,-72.14l201.76,-302.82c23.38,-34.42 62.31,-61.38 113.09,-61.38h558.72c76.88,0 139.52,62.64 139.52,139.52zM884.48,127.1h-558.72c-44.83,0 -79.26,23.56 -100.31,54.54c-0.07,0.1 -0.14,0.21 -0.21,0.31l-201.55,302.51c-11.12,16.69 -11.11,38.42 0.02,55.1l201.75,302.43c20.73,30.51 54.99,54.9 100.31,54.9h558.72c68.4,0 124.16,-55.76 124.16,-124.16v-521.48c0,-68.4 -55.76,-124.16 -124.16,-124.16zM958.98,251.26v521.48c0,40.97 -33.52,74.49 -74.49,74.49h-558.72c-25.7,0 -45.82,-13.41 -59.22,-33.15l-201.51,-302.08l201.51,-302.45c13.41,-19.74 33.52,-32.78 59.22,-32.78h558.72c40.97,0 74.49,33.52 74.49,74.49zM639.01,512l133.73,-133.72l-52.52,-52.52l-133.73,133.72l-133.72,-133.72l-52.52,52.52l133.72,133.72l-133.72,133.72l52.52,52.52l133.72,-133.72l133.73,133.72l52.52,-52.52z" fill="currentColor"/>
		</g>
	</g>
</svg>