<svg version="1.1" xmlns="http://www.w3.org/2000/svg" xmlns:xlink="http://www.w3.org/1999/xlink" viewBox="0,0,1024,1024">
	<!-- Color names: teamapps-color-1 -->
	<desc>blur_circular icon - Licensed under Apache License v2.0 (http://www.apache.org/licenses/LICENSE-2.0) - Created with Iconfu.com - Derivative work of Material icons (Copyright Google Inc.)</desc>
	<g fill="none" fill-rule="nonzero" style="mix-blend-mode: normal">
		<g color="#039be5" class="teamapps-color-1">
			<path d="M949.51,512c0,241.52 -195.99,437.51 -437.51,437.51c-241.52,0 -437.51,-195.99 -437.51,-437.51c0,-241.52 195.99,-437.51 437.51,-437.51c241.52,0 437.51,195.99 437.51,437.51zM512,89.85c-233.04,0 -422.15,189.11 -422.15,422.15c0,233.04 189.11,422.15 422.15,422.15c233.04,0 422.15,-189.11 422.15,-422.15c0,-233.04 -189.11,-422.15 -422.15,-422.15zM884.48,512c0,205.61 -166.87,372.48 -372.48,372.48c-205.61,0 -372.48,-166.87 -372.48,-372.48c0,-205.61 166.87,-372.48 372.48,-372.48c205.61,0 372.48,166.87 372.48,372.48zM809.98,512c0,-164.64 -133.34,-297.98 -297.98,-297.98c-164.64,0 -297.98,133.34 -297.98,297.98c0,164.64 133.34,297.98 297.98,297.98c164.64,0 297.98,-133.34 297.98,-297.98zM623.74,586.49c0,20.49 -16.76,37.25 -37.25,37.25c-20.49,0 -37.24,-16.76 -37.24,-37.25c0,-20.49 16.75,-37.24 37.24,-37.24c20.49,0 37.25,16.75 37.25,37.24zM474.75,586.49c0,20.49 -16.75,37.25 -37.24,37.25c-20.49,0 -37.25,-16.76 -37.25,-37.25c0,-20.49 16.76,-37.24 37.25,-37.24c20.49,0 37.24,16.75 37.24,37.24zM623.74,437.51c0,20.49 -16.76,37.24 -37.25,37.24c-20.49,0 -37.24,-16.75 -37.24,-37.24c0,-20.49 16.75,-37.25 37.24,-37.25c20.49,0 37.25,16.76 37.25,37.25zM474.75,437.51c0,20.49 -16.75,37.24 -37.24,37.24c-20.49,0 -37.25,-16.75 -37.25,-37.24c0,-20.49 16.76,-37.25 37.25,-37.25c20.49,0 37.24,16.76 37.24,37.25zM344.38,437.51c0,10.43 -8.19,18.62 -18.62,18.62c-10.43,0 -18.63,-8.19 -18.63,-18.62c0,-10.43 8.2,-18.63 18.63,-18.63c10.43,0 18.62,8.2 18.62,18.63zM418.88,325.76c0,-10.43 8.2,-18.63 18.63,-18.63c10.43,0 18.62,8.2 18.62,18.63c0,10.43 -8.19,18.62 -18.62,18.62c-10.43,0 -18.63,-8.19 -18.63,-18.62zM456.13,698.24c0,10.43 -8.19,18.63 -18.62,18.63c-10.43,0 -18.63,-8.2 -18.63,-18.63c0,-10.43 8.2,-18.62 18.63,-18.62c10.43,0 18.62,8.19 18.62,18.62zM344.38,586.49c0,10.43 -8.19,18.63 -18.62,18.63c-10.43,0 -18.63,-8.2 -18.63,-18.63c0,-10.43 8.2,-18.62 18.63,-18.62c10.43,0 18.62,8.19 18.62,18.62zM567.87,325.76c0,-10.43 8.19,-18.63 18.62,-18.63c10.43,0 18.63,8.2 18.63,18.63c0,10.43 -8.2,18.62 -18.63,18.62c-10.43,0 -18.62,-8.19 -18.62,-18.62zM716.87,437.51c0,10.43 -8.2,18.62 -18.63,18.62c-10.43,0 -18.62,-8.19 -18.62,-18.62c0,-10.43 8.19,-18.63 18.62,-18.63c10.43,0 18.63,8.2 18.63,18.63zM716.87,586.49c0,10.43 -8.2,18.63 -18.63,18.63c-10.43,0 -18.62,-8.2 -18.62,-18.63c0,-10.43 8.19,-18.62 18.62,-18.62c10.43,0 18.63,8.19 18.63,18.62zM605.12,698.24c0,10.43 -8.2,18.63 -18.63,18.63c-10.43,0 -18.62,-8.2 -18.62,-18.63c0,-10.43 8.19,-18.62 18.62,-18.62c10.43,0 18.63,8.19 18.63,18.62z" fill="currentColor"/>
		</g>
	</g>
</svg>