<svg version="1.1" xmlns="http://www.w3.org/2000/svg" xmlns:xlink="http://www.w3.org/1999/xlink" viewBox="0,0,1024,1024">
	<!-- Color names: teamapps-color-1 -->
	<desc>brightness_3 icon - Licensed under Apache License v2.0 (http://www.apache.org/licenses/LICENSE-2.0) - Created with Iconfu.com - Derivative work of Material icons (Copyright Google Inc.)</desc>
	<g fill="none" fill-rule="nonzero" style="mix-blend-mode: normal">
		<g color="#039be5" class="teamapps-color-1">
			<path d="M837.76,512c0,241.52 -195.99,437.51 -437.51,437.51c-45.83,0 -89.68,-7 -131.33,-20.16c-27.08,-8.55 -45.48,-33.69 -45.44,-62.09c0.04,-28.4 18.51,-53.49 45.61,-61.97c124.8,-39.04 215.13,-155.58 215.13,-293.29c0,-137.7 -90.33,-254.25 -215.13,-293.29c-27.11,-8.48 -45.57,-33.57 -45.61,-61.97c-0.04,-28.4 18.36,-53.54 45.44,-62.09c41.65,-13.15 85.5,-20.16 131.33,-20.16c241.52,0 437.51,195.99 437.51,437.51zM400.26,89.85c-44.24,0 -86.53,6.76 -126.7,19.44c-20.68,6.53 -34.74,25.73 -34.71,47.43c0.03,21.69 14.13,40.86 34.84,47.33c131.05,40.99 225.9,163.36 225.9,307.95c0,144.59 -94.85,266.95 -225.9,307.95c-20.7,6.48 -34.81,25.64 -34.84,47.33c-0.03,21.69 14.02,40.89 34.71,47.43c40.17,12.69 82.46,19.44 126.7,19.44c233.04,0 422.15,-189.11 422.15,-422.15c0,-233.04 -189.11,-422.15 -422.15,-422.15zM772.74,512c0,205.61 -166.87,372.48 -372.48,372.48c-39.11,0 -76.36,-5.96 -111.74,-17.14c151.23,-47.31 260.74,-188.47 260.74,-355.35c0,-166.87 -109.51,-308.04 -260.74,-355.35c35.38,-11.17 72.63,-17.14 111.74,-17.14c205.61,0 372.48,166.87 372.48,372.48z" fill="currentColor"/>
		</g>
	</g>
</svg>