<svg version="1.1" xmlns="http://www.w3.org/2000/svg" xmlns:xlink="http://www.w3.org/1999/xlink" viewBox="0,0,1024,1024">
	<!-- Color names: teamapps-color-1 -->
	<desc>broken_image icon - Licensed under Apache License v2.0 (http://www.apache.org/licenses/LICENSE-2.0) - Created with Iconfu.com - Derivative work of Material icons (Copyright Google Inc.)</desc>
	<g fill="none" fill-rule="nonzero" style="mix-blend-mode: normal">
		<g color="#039be5" class="teamapps-color-1">
			<path d="M912.26,251.26v245.47c0,20.97 -10.07,40.29 -26.46,52.36l7.49,7.52c12.15,12.19 18.97,28.69 18.97,45.9v170.23c0,76.88 -62.64,139.52 -139.52,139.52h-521.48c-76.88,0 -139.52,-62.64 -139.52,-139.52v-245.09c0,-20.97 10.07,-40.29 26.46,-52.36l-7.49,-7.52c-12.15,-12.19 -18.97,-28.7 -18.97,-45.9v-170.6c0,-76.88 62.64,-139.52 139.52,-139.52h521.48c76.88,0 139.52,62.64 139.52,139.52zM772.74,127.1h-521.48c-68.4,0 -124.16,55.76 -124.16,124.16v170.6c0,13.14 5.21,25.75 14.49,35.06l22.6,22.67c-2.18,0.57 -4.34,1.3 -6.47,2.18c-18.54,7.7 -30.62,25.8 -30.62,45.87v245.09c0,68.4 55.76,124.16 124.16,124.16h521.48c68.4,0 124.16,-55.76 124.16,-124.16v-170.23c0,-13.14 -5.21,-25.75 -14.49,-35.06l-22.6,-22.68c2.16,-0.57 4.29,-1.28 6.39,-2.15c18.58,-7.68 30.7,-25.8 30.7,-45.9v-245.47c0,-68.4 -55.76,-124.16 -124.16,-124.16zM847.23,251.26v245.47l-111.74,-112.12l-148.99,149.36l-148.99,-148.99l-148.99,148.99l-111.74,-112.11v-170.6c0,-40.97 33.52,-74.49 74.49,-74.49h521.48c40.97,0 74.49,33.52 74.49,74.49zM735.49,490.39l111.74,112.12v170.23c0,40.97 -33.52,74.49 -74.49,74.49h-521.48c-40.97,0 -74.49,-33.52 -74.49,-74.49v-245.09l111.74,111.37l148.99,-148.99l148.99,148.99z" fill="currentColor"/>
		</g>
	</g>
</svg>