<svg version="1.1" xmlns="http://www.w3.org/2000/svg" xmlns:xlink="http://www.w3.org/1999/xlink" viewBox="0,0,1024,1024">
	<!-- Color names: teamapps-color-1 -->
	<desc>bubble_chart icon - Licensed under Apache License v2.0 (http://www.apache.org/licenses/LICENSE-2.0) - Created with Iconfu.com - Derivative work of Material icons (Copyright Google Inc.)</desc>
	<g fill="none" fill-rule="nonzero" style="mix-blend-mode: normal">
		<g color="#039be5" class="teamapps-color-1">
			<path d="M387.38,392.81c0,-134.66 109.16,-243.81 243.81,-243.81c134.66,0 243.81,109.16 243.81,243.81c0,109.77 -72.53,202.58 -172.28,233.15c32.32,25.54 53.09,65.1 53.09,109.53c0,77.06 -62.46,139.52 -139.52,139.52c-77.05,0 -139.53,-62.45 -139.53,-139.52c0,-6.98 0.51,-13.83 1.5,-20.53c-33.72,43.02 -86.16,70.65 -145.06,70.65c-101.74,0 -184.21,-82.47 -184.21,-184.21c0,-101.74 82.47,-184.21 184.21,-184.21c19.66,0 38.62,3.08 56.41,8.8c-1.48,-10.85 -2.24,-21.93 -2.24,-33.17zM517.29,608.44c-0.43,11.38 -1.89,22.5 -4.29,33.26c7.89,-8.68 16.85,-16.36 26.69,-22.83c-7.67,-3.11 -15.14,-6.59 -22.4,-10.43zM410.24,451.09c-23.09,-11.86 -49.28,-18.55 -77.03,-18.55c-93.26,0 -168.85,75.59 -168.85,168.85c0,93.26 75.59,168.85 168.85,168.85c93.26,0 168.85,-75.59 168.85,-168.85c0,-7.11 -0.44,-14.11 -1.29,-20.99c24.19,16.85 51.8,29.14 81.57,35.63c-52.07,14.77 -90.21,62.65 -90.21,119.46c0,68.58 55.6,124.16 124.17,124.16c68.57,0 124.16,-55.58 124.16,-124.16c0,-53.02 -33.23,-98.28 -80.01,-116.08c112.36,-14.36 199.2,-110.34 199.2,-226.6c0,-126.17 -102.28,-228.45 -228.45,-228.45c-126.17,0 -228.45,102.28 -228.45,228.45c0,20.14 2.61,39.68 7.5,58.28zM214.02,601.4c0,-65.83 53.36,-119.19 119.19,-119.19c65.83,0 119.19,53.36 119.19,119.19c0,65.83 -53.36,119.19 -119.19,119.19c-65.83,0 -119.19,-53.36 -119.19,-119.19zM541.8,735.49c0,-41.14 33.36,-74.49 74.5,-74.49c41.14,0 74.49,33.35 74.49,74.49c0,41.14 -33.35,74.49 -74.49,74.49c-41.14,0 -74.5,-33.35 -74.5,-74.49zM452.4,392.81c0,-98.75 80.05,-178.79 178.79,-178.79c98.75,0 178.79,80.05 178.79,178.79c0,98.75 -80.05,178.79 -178.79,178.79c-98.75,0 -178.79,-80.05 -178.79,-178.79z" fill="currentColor"/>
		</g>
	</g>
</svg>