<svg version="1.1" xmlns="http://www.w3.org/2000/svg" xmlns:xlink="http://www.w3.org/1999/xlink" viewBox="0,0,1024,1024">
	<!-- Color names: teamapps-color-1 -->
	<desc>business_center icon - Licensed under Apache License v2.0 (http://www.apache.org/licenses/LICENSE-2.0) - Created with Iconfu.com - Derivative work of Material icons (Copyright Google Inc.)</desc>
	<g fill="none" fill-rule="nonzero" style="mix-blend-mode: normal">
		<g color="#039be5" class="teamapps-color-1">
			<path d="M949.51,400.26v111.74c0,37.48 -14.9,71.57 -39.02,96.64c1.16,4.86 1.77,9.92 1.77,15.11v148.99c0,77.26 -62.26,139.52 -139.52,139.52h-521.48c-77.26,0 -139.52,-62.26 -139.52,-139.52l0.38,-149.16c0.01,-4.94 0.58,-9.76 1.64,-14.4c-24.32,-25.09 -39.27,-59.36 -39.27,-97.18v-111.74c0,-76.89 62.65,-139.52 139.53,-139.52h83.6v-9.48c0,-17.25 6.85,-33.78 19.05,-45.98l74.49,-74.49c12.19,-12.19 28.73,-19.05 45.98,-19.05h148.99c17.25,0 33.78,6.85 45.98,19.05l74.49,74.49c12.19,12.19 19.05,28.73 19.05,45.98v9.48h84.34c76.87,0 139.53,62.63 139.53,139.52zM809.98,276.1h-99.7v-24.84c0,-13.17 -5.23,-25.8 -14.55,-35.12l-74.49,-74.49c-9.31,-9.31 -21.95,-14.55 -35.12,-14.55h-148.99c-13.17,0 -25.8,5.23 -35.12,14.55l-74.49,74.49c-9.31,9.31 -14.55,21.95 -14.55,35.12v24.84h-98.96c-68.39,0 -124.17,55.75 -124.17,124.16v111.74c0,36.93 15.97,70 41.41,92.7c-2.42,5.83 -3.76,12.22 -3.78,18.92l-0.38,149.12c0,68.77 55.38,124.16 124.16,124.16h521.48c68.77,0 124.16,-55.38 124.16,-124.16v-148.99c0,-6.91 -1.41,-13.5 -3.97,-19.48c25.28,-22.75 41.22,-55.7 41.22,-92.27v-111.74c0,-68.41 -55.78,-124.16 -124.17,-124.16zM884.48,400.26v111.74c0,40.97 -33.53,74.49 -74.5,74.49h-223.49v-74.49h-148.99v74.49h-223.49c-41.35,0 -74.5,-33.15 -74.5,-74.49v-111.74c0,-40.97 33.53,-74.49 74.5,-74.49h148.62v-74.5l74.49,-74.49h148.99l74.49,74.49v74.5h149.36c40.97,0 74.5,33.52 74.5,74.49zM586.49,660.99v-37.25h260.74v148.99c0,41.35 -33.15,74.49 -74.49,74.49h-521.48c-41.35,0 -74.49,-33.15 -74.49,-74.49l0.38,-148.99h260.36v37.25zM586.49,251.26h-148.99v74.5h148.99z" fill="currentColor"/>
		</g>
	</g>
</svg>