<svg version="1.1" xmlns="http://www.w3.org/2000/svg" xmlns:xlink="http://www.w3.org/1999/xlink" viewBox="0,0,1024,1024">
	<!-- Color names: teamapps-color-1 -->
	<desc>camera icon - Licensed under Apache License v2.0 (http://www.apache.org/licenses/LICENSE-2.0) - Created with Iconfu.com - Derivative work of Material icons (Copyright Google Inc.)</desc>
	<g fill="none" fill-rule="nonzero" style="mix-blend-mode: normal">
		<g color="#039be5" class="teamapps-color-1">
			<path d="M235.55,172.89c75.13,-61.15 171.43,-98.4 276.45,-98.4c33.2,0 64.62,3.99 94.45,10.38c11,2.36 21.04,7.49 29.27,14.71c10.26,-1.3 20.95,-0.16 31.18,3.71c124.61,47.22 222.16,149.48 262.47,277.42c2.32,7.38 3.28,15 2.94,22.53c4.01,6.46 6.93,13.71 8.49,21.5c5.64,28.2 8.72,57.05 8.72,87.25c0,114.27 -43.9,217.72 -115.54,295.48c-7.28,7.9 -16.29,13.76 -26.15,17.25c-3.99,10.03 -10.51,19.17 -19.37,26.38c-75.13,61.15 -171.43,98.4 -276.45,98.4c-33.2,0 -64.62,-3.99 -94.45,-10.38c-11,-2.36 -21.04,-7.49 -29.27,-14.71c-10.26,1.3 -20.95,0.16 -31.18,-3.71c-124.61,-47.22 -222.16,-149.48 -262.47,-277.42c-2.32,-7.38 -3.28,-15 -2.94,-22.53c-4.01,-6.46 -6.93,-13.71 -8.49,-21.5c-5.64,-28.2 -8.72,-57.05 -8.72,-87.25c0,-114.43 44.37,-217.77 115.4,-295.34c7.3,-7.98 16.36,-13.89 26.28,-17.39c3.99,-10.03 10.51,-19.17 19.37,-26.38zM228.28,211.84c-10.28,2.02 -19.8,7.27 -27.05,15.19c-68.6,74.91 -111.37,174.6 -111.37,284.96c0,29.14 2.97,56.99 8.42,84.24c1.53,7.62 4.75,14.54 9.23,20.4c-1.05,7.28 -0.49,14.81 1.78,22.03c38.88,123.41 133.01,222.1 253.26,267.67c10.19,3.86 20.96,4.16 30.83,1.43c7,8.21 16.58,14.02 27.39,16.34c28.94,6.2 59.28,10.04 91.24,10.04c101.33,0 194.24,-35.93 266.75,-94.95c8.76,-7.13 14.52,-16.71 16.97,-27.04c10.23,-2.01 19.71,-7.22 26.95,-15.08c69.15,-75.06 111.47,-174.83 111.47,-285.07c0,-29.14 -2.97,-56.99 -8.42,-84.24c-1.53,-7.62 -4.75,-14.54 -9.23,-20.4c1.05,-7.29 0.49,-14.81 -1.78,-22.03c-38.88,-123.41 -133.01,-222.1 -253.26,-267.67c-10.19,-3.86 -20.96,-4.16 -30.83,-1.43c-7,-8.21 -16.58,-14.02 -27.39,-16.34c-28.94,-6.2 -59.28,-10.04 -91.24,-10.04c-101.33,0 -194.24,35.93 -266.75,94.95c-8.76,7.13 -14.52,16.71 -16.97,27.04zM611.08,564.14l136.33,236.53c-64.07,52.14 -146.01,83.81 -235.4,83.81c-27.94,0 -54.75,-3.35 -80.83,-8.94l145.27,-251.8zM412.92,459.86l-136.33,-236.53c64.07,-52.14 146.01,-83.81 235.4,-83.81c27.94,0 54.75,3.35 80.83,8.94l-177.67,307.67zM884.48,512c0,97.22 -37.25,185.12 -98.33,251.42l-177.31,-307.3l-10.8,-18.62h278.98c4.85,24.21 7.46,48.79 7.46,74.49zM425.96,586.49h-278.98c-4.85,-24.21 -7.46,-48.79 -7.46,-74.49c0,-97.22 37.62,-185.12 98.33,-251.42l145.27,251.42zM507.53,400.26l136.33,-236.16c106.16,40.23 189.22,127.39 223.49,236.16zM516.47,623.74l-136.33,236.16c-106.16,-40.23 -189.22,-127.39 -223.49,-236.16z" fill="currentColor"/>
		</g>
	</g>
</svg>