<svg version="1.1" xmlns="http://www.w3.org/2000/svg" xmlns:xlink="http://www.w3.org/1999/xlink" viewBox="0,0,1024,1024">
	<!-- Color names: teamapps-color-1 -->
	<desc>clear_all icon - Licensed under Apache License v2.0 (http://www.apache.org/licenses/LICENSE-2.0) - Created with Iconfu.com - Derivative work of Material icons (Copyright Google Inc.)</desc>
	<g fill="none" fill-rule="nonzero" style="mix-blend-mode: normal">
		<g color="#039be5" class="teamapps-color-1">
			<path d="M251.26,409.73h10.16c-0.45,-3.09 -0.69,-6.26 -0.69,-9.47v-74.49c0,-35.91 29.11,-65.02 65.02,-65.02h521.47c35.91,0 65.02,29.11 65.02,65.02v74.49c0,35.91 -29.11,65.02 -65.02,65.02h-10.16c0.45,3.09 0.69,6.26 0.69,9.47v74.5c0,35.91 -29.11,65.02 -65.02,65.02h-10.16c0.45,3.09 0.69,6.26 0.69,9.47v74.49c0,35.91 -29.11,65.02 -65.02,65.02h-521.47c-35.91,0 -65.02,-29.11 -65.02,-65.02v-74.49c0,-35.91 29.11,-65.02 65.02,-65.02h10.16c-0.45,-3.09 -0.69,-6.26 -0.69,-9.47v-74.5c0,-35.91 29.11,-65.02 65.02,-65.02zM201.6,474.75v74.5c0,9.04 2.42,17.52 6.64,24.83h-31.47c-27.43,0 -49.66,22.24 -49.66,49.66v74.49c0,27.43 22.24,49.66 49.66,49.66h521.47c27.43,0 49.66,-22.24 49.66,-49.66v-74.49c0,-9.04 -2.42,-17.52 -6.64,-24.83h31.48c27.43,0 49.66,-22.24 49.66,-49.66v-74.5c0,-9.04 -2.42,-17.52 -6.64,-24.83h31.47c27.43,0 49.66,-22.24 49.66,-49.66v-74.49c0,-27.43 -22.24,-49.66 -49.66,-49.66h-521.47c-27.43,0 -49.66,22.24 -49.66,49.66v74.49c0,9.04 2.42,17.52 6.64,24.83h-31.48c-27.43,0 -49.66,22.24 -49.66,49.66zM847.23,325.76v74.49h-521.47v-74.49zM251.26,474.75h521.48v74.5h-521.48zM176.77,623.74h521.47v74.49h-521.47z" fill="currentColor"/>
		</g>
	</g>
</svg>