<svg version="1.1" xmlns="http://www.w3.org/2000/svg" xmlns:xlink="http://www.w3.org/1999/xlink" viewBox="0,0,1024,1024">
	<!-- Color names: teamapps-color-1 -->
	<desc>clear icon - Licensed under Apache License v2.0 (http://www.apache.org/licenses/LICENSE-2.0) - Created with Iconfu.com - Derivative work of Material icons (Copyright Google Inc.)</desc>
	<g fill="none" fill-rule="nonzero" style="mix-blend-mode: normal">
		<g color="#039be5" class="teamapps-color-1">
			<path d="M656.48,512l162.24,162.24c25.39,25.39 25.39,66.56 0,91.96l-52.52,52.52c-25.39,25.39 -66.56,25.39 -91.96,0l-162.24,-162.24l-162.24,162.24c-25.39,25.39 -66.56,25.39 -91.96,0l-52.52,-52.52c-25.39,-25.39 -25.39,-66.56 0,-91.96l162.24,-162.24l-162.24,-162.24c-25.39,-25.39 -25.39,-66.56 0,-91.96l52.52,-52.52c25.39,-25.39 66.56,-25.39 91.96,0l162.24,162.24l162.24,-162.24c25.39,-25.39 66.56,-25.39 91.96,0l52.52,52.52c25.39,25.39 25.39,66.56 0,91.96zM807.86,338.9c19.39,-19.39 19.39,-50.84 0,-70.24l-52.52,-52.52c-19.39,-19.4 -50.84,-19.4 -70.24,0l-173.1,173.1l-173.1,-173.1c-19.39,-19.4 -50.84,-19.4 -70.24,0l-52.52,52.52c-19.4,19.39 -19.4,50.84 0,70.24l173.1,173.1l-173.1,173.1c-19.4,19.39 -19.4,50.84 0,70.24l52.52,52.52c19.39,19.39 50.84,19.39 70.24,0l173.1,-173.1l173.1,173.1c19.39,19.39 50.84,19.39 70.24,0l52.52,-52.52c19.39,-19.39 19.39,-50.84 0,-70.24l-173.1,-173.1zM564.52,512l208.22,208.22l-52.52,52.52l-208.22,-208.22l-208.22,208.22l-52.52,-52.52l208.22,-208.22l-208.22,-208.22l52.52,-52.52l208.22,208.22l208.22,-208.22l52.52,52.52z" fill="currentColor"/>
		</g>
	</g>
</svg>