<svg version="1.1" xmlns="http://www.w3.org/2000/svg" xmlns:xlink="http://www.w3.org/1999/xlink" viewBox="0,0,1024,1024">
	<!-- Color names: teamapps-color-1 -->
	<desc>contacts icon - Licensed under Apache License v2.0 (http://www.apache.org/licenses/LICENSE-2.0) - Created with Iconfu.com - Derivative work of Material icons (Copyright Google Inc.)</desc>
	<g fill="none" fill-rule="nonzero" style="mix-blend-mode: normal">
		<g color="#039be5" class="teamapps-color-1">
			<path d="M949.51,288.51v446.98c0,55.2 -32.28,102.99 -78.84,125.6c2.8,7.27 4.34,15.16 4.34,23.4v74.49c0,35.91 -29.11,65.02 -65.02,65.02h-595.96c-35.91,0 -65.02,-29.11 -65.02,-65.02v-74.49c0,-8.24 1.54,-16.13 4.34,-23.4c-46.56,-22.61 -78.84,-70.39 -78.84,-125.6v-446.98c0,-55.2 32.28,-102.99 78.84,-125.6c-2.8,-7.27 -4.34,-15.16 -4.34,-23.4v-74.49c0,-35.91 29.11,-65.02 65.02,-65.02h595.96c35.91,0 65.02,29.11 65.02,65.02v74.49c0,8.24 -1.54,16.13 -4.34,23.4c46.56,22.61 78.84,70.39 78.84,125.6zM848.75,170.56c6.82,-8.5 10.9,-19.3 10.9,-31.05v-74.49c0,-27.43 -22.24,-49.66 -49.66,-49.66h-595.96c-27.43,0 -49.66,22.24 -49.66,49.66v74.49c0,11.75 4.08,22.54 10.9,31.05c-49.51,16.34 -85.4,63.07 -85.4,117.95v446.98c0,54.88 35.89,101.61 85.4,117.95c-6.82,8.5 -10.9,19.3 -10.9,31.05v74.49c0,27.43 22.24,49.66 49.66,49.66h595.96c27.43,0 49.66,-22.24 49.66,-49.66v-74.49c0,-11.75 -4.08,-22.54 -10.9,-31.05c49.51,-16.34 85.4,-63.07 85.4,-117.95v-446.98c0,-54.88 -35.89,-101.61 -85.4,-117.95zM884.48,288.51v446.98c0,40.97 -33.53,74.49 -74.5,74.49h-595.96c-40.97,0 -74.5,-33.52 -74.5,-74.49v-446.98c0,-40.97 33.53,-74.49 74.5,-74.49h595.96c40.97,0 74.5,33.52 74.5,74.49zM698.24,642.37c0,-62.2 -124.04,-93.11 -186.24,-93.11c-62.2,0 -186.24,30.91 -186.24,93.11v55.87h372.47zM214.02,884.48h595.96v74.49h-595.96zM809.98,139.52h-595.96v-74.49h595.96zM428.19,400.26c0,46.19 37.62,83.81 83.81,83.81c46.19,0 83.81,-37.62 83.81,-83.81c0,-46.19 -37.62,-83.81 -83.81,-83.81c-46.19,0 -83.81,37.62 -83.81,83.81z" fill="currentColor"/>
		</g>
	</g>
</svg>