<svg version="1.1" xmlns="http://www.w3.org/2000/svg" xmlns:xlink="http://www.w3.org/1999/xlink" viewBox="0,0,1024,1024">
	<!-- Color names: teamapps-color-1 -->
	<desc>crop icon - Licensed under Apache License v2.0 (http://www.apache.org/licenses/LICENSE-2.0) - Created with Iconfu.com - Derivative work of Material icons (Copyright Google Inc.)</desc>
	<g fill="none" fill-rule="nonzero" style="mix-blend-mode: normal">
		<g color="#039be5" class="teamapps-color-1">
			<path d="M986.75,698.24v74.5c0,35.91 -29.11,65.02 -65.02,65.02h-83.96v83.96c0,35.91 -29.11,65.02 -65.02,65.02h-74.5c-35.91,0 -65.02,-29.11 -65.02,-65.02v-83.96h-307.45c-76.88,0 -139.53,-62.64 -139.53,-139.53v-307.45h-83.96c-35.91,0 -65.02,-29.11 -65.02,-65.02v-74.5c0,-35.91 29.11,-65.02 65.02,-65.02h83.96v-83.96c0,-35.91 29.11,-65.02 65.02,-65.02h74.5c35.91,0 65.02,29.11 65.02,65.02v84.65c3.09,-0.45 6.26,-0.69 9.47,-0.69h297.98c76.88,0 139.53,62.64 139.53,139.53v297.98c0,3.21 -0.23,6.37 -0.69,9.47h84.65c35.91,0 65.02,29.11 65.02,65.02zM921.73,648.57h-105.96c4.22,-7.3 6.64,-15.78 6.64,-24.83v-297.98c0,-68.4 -55.77,-124.17 -124.17,-124.17h-297.98c-9.04,0 -17.52,2.42 -24.83,6.64v-105.96c0,-27.43 -22.24,-49.66 -49.66,-49.66h-74.5c-27.43,0 -49.66,22.24 -49.66,49.66v99.32h-99.32c-27.43,0 -49.66,22.24 -49.66,49.66v74.5c0,27.43 22.24,49.66 49.66,49.66h99.32v322.81c0,68.4 55.77,124.17 124.17,124.17h322.81v99.32c0,27.43 22.24,49.66 49.66,49.66h74.5c27.43,0 49.66,-22.24 49.66,-49.66v-99.32h99.32c27.43,0 49.66,-22.24 49.66,-49.66v-74.5c0,-27.43 -22.24,-49.66 -49.66,-49.66zM921.73,698.24v74.5h-148.99v148.99h-74.5v-148.99h-372.47c-40.97,0 -74.5,-33.53 -74.5,-74.5v-372.47h-148.99v-74.5h148.99v-148.99h74.5v595.96zM698.24,325.76h-297.98v-74.5h297.98c40.97,0 74.5,33.53 74.5,74.5v297.98h-74.5z" fill="currentColor"/>
		</g>
	</g>
</svg>