<svg version="1.1" xmlns="http://www.w3.org/2000/svg" xmlns:xlink="http://www.w3.org/1999/xlink" viewBox="0,0,1024,1024">
	<!-- Color names: teamapps-color-1 -->
	<desc>crop_portrait icon - Licensed under Apache License v2.0 (http://www.apache.org/licenses/LICENSE-2.0) - Created with Iconfu.com - Derivative work of Material icons (Copyright Google Inc.)</desc>
	<g fill="none" fill-rule="nonzero" style="mix-blend-mode: normal">
		<g color="#039be5" class="teamapps-color-1">
			<path d="M837.76,251.26v521.48c0,76.89 -62.65,139.52 -139.53,139.52h-372.47c-76.87,0 -139.53,-62.63 -139.53,-139.52v-521.48c0,-76.89 62.65,-139.52 139.53,-139.52h372.47c76.87,0 139.53,62.63 139.53,139.52zM698.24,127.1h-372.47c-68.39,0 -124.17,55.75 -124.17,124.16v521.48c0,68.41 55.78,124.16 124.17,124.16h372.47c68.39,0 124.17,-55.75 124.17,-124.16v-521.48c0,-68.41 -55.78,-124.16 -124.17,-124.16zM772.74,251.26v521.48c0,40.97 -33.53,74.49 -74.5,74.49h-372.47c-40.97,0 -74.5,-33.52 -74.5,-74.49v-521.48c0,-40.97 33.53,-74.49 74.5,-74.49h372.47c40.97,0 74.5,33.52 74.5,74.49zM698.24,251.26h-372.47v521.48h372.47z" fill="currentColor"/>
		</g>
	</g>
</svg>