<svg version="1.1" xmlns="http://www.w3.org/2000/svg" xmlns:xlink="http://www.w3.org/1999/xlink" viewBox="0,0,1024,1024">
	<!-- Color names: teamapps-color-1 -->
	<desc>delete_sweep icon - Licensed under Apache License v2.0 (http://www.apache.org/licenses/LICENSE-2.0) - Created with Iconfu.com - Derivative work of Material icons (Copyright Google Inc.)</desc>
	<g fill="none" fill-rule="nonzero" style="mix-blend-mode: normal">
		<g color="#039be5" class="teamapps-color-1">
			<path d="M474.75,875.01h-223.49c-76.88,0 -139.52,-62.64 -139.52,-139.52v-350.92c-22.01,-10.41 -37.25,-32.81 -37.25,-58.81v-74.5c0,-35.91 29.11,-65.02 65.02,-65.02h84.81l18.21,-18.2c12.19,-12.19 28.73,-19.04 45.97,-19.04h148.99c17.25,0 33.78,6.85 45.98,19.05l18.2,18.2h84.81c35.91,0 65.02,29.11 65.02,65.02v46.72h232.97c35.91,0 65.02,29.11 65.02,65.02v74.5c0,26.66 -16.03,49.55 -38.97,59.59c1.13,4.79 1.72,9.78 1.72,14.9v74.49c0,35.91 -29.11,65.02 -65.02,65.02h-10.16c0.45,3.1 0.69,6.26 0.69,9.48v74.49c0,35.91 -29.11,65.02 -65.02,65.02h-148.99c-8.23,0 -16.13,-1.54 -23.39,-4.34c-22.61,46.57 -70.41,78.83 -125.6,78.83zM592.7,774.26c8.5,6.82 19.3,10.89 31.04,10.89h148.99c27.43,0 49.66,-22.24 49.66,-49.66v-74.49c0,-9.05 -2.42,-17.53 -6.65,-24.84h31.48c27.43,0 49.66,-22.24 49.66,-49.66v-74.49c0,-9.17 -2.49,-17.77 -6.82,-25.14c24.8,-2.78 44.07,-23.81 44.07,-49.35v-74.5c0,-27.43 -22.24,-49.66 -49.66,-49.66h-248.33v-62.08c0,-27.43 -22.24,-49.66 -49.66,-49.66h-91.17l-22.7,-22.7c-9.31,-9.31 -21.95,-14.55 -35.12,-14.55h-148.99c-13.17,0 -25.8,5.23 -35.11,14.54l-22.71,22.7h-91.18c-27.43,0 -49.66,22.24 -49.66,49.66v74.5c0,23.14 15.83,42.59 37.25,48.1v361.62c0,68.4 55.76,124.16 124.16,124.16h223.49c54.86,0 101.61,-35.88 117.95,-85.39zM176.77,363.01h372.48v372.48c0,40.97 -33.53,74.49 -74.5,74.49h-223.49c-40.97,0 -74.49,-33.52 -74.49,-74.49zM586.49,325.76h-446.98v-74.5h111.74l37.25,-37.24h148.99l37.24,37.24h111.74zM623.74,363.01h260.74v74.5h-260.74zM623.74,512h223.49v74.49h-223.49zM623.74,660.99h148.99v74.49h-148.99z" fill="currentColor"/>
		</g>
	</g>
</svg>