<svg version="1.1" xmlns="http://www.w3.org/2000/svg" xmlns:xlink="http://www.w3.org/1999/xlink" viewBox="0,0,1024,1024">
	<!-- Color names: teamapps-color-1 -->
	<desc>device_hub icon - Licensed under Apache License v2.0 (http://www.apache.org/licenses/LICENSE-2.0) - Created with Iconfu.com - Derivative work of Material icons (Copyright Google Inc.)</desc>
	<g fill="none" fill-rule="nonzero" style="mix-blend-mode: normal">
		<g color="#039be5" class="teamapps-color-1">
			<path d="M912.26,660.99v186.24c0,35.91 -29.11,65.02 -65.02,65.02h-186.24c-35.91,0 -65.02,-29.11 -65.02,-65.02v-87.59l-83.97,-88.17l-83.97,88.17v87.59c0,35.91 -29.11,65.02 -65.02,65.02h-186.24c-35.91,0 -65.02,-29.11 -65.02,-65.02v-186.24c0,-35.91 29.11,-65.02 65.02,-65.02h122.06l110.9,-110.9v-52.89c-44.6,-31.78 -74.49,-83.84 -74.49,-143.66c0,-97.75 79.02,-176.77 176.77,-176.77c97.75,0 176.77,79.02 176.77,176.77c0,59.82 -29.9,111.89 -74.49,143.66v52.89l110.9,110.9h122.06c35.91,0 65.02,29.11 65.02,65.02zM847.23,611.33h-128.42l-119.89,-119.9v-67.4c44.37,-28.54 74.49,-78.16 74.49,-135.52c0,-89.26 -72.14,-161.41 -161.41,-161.41c-89.26,0 -161.41,72.14 -161.41,161.41c0,57.36 30.12,106.98 74.49,135.52v67.4l-119.89,119.9h-128.42c-27.43,0 -49.66,22.24 -49.66,49.66v186.24c0,27.43 22.24,49.66 49.66,49.66h186.24c27.43,0 49.66,-22.24 49.66,-49.66v-93.74l99.33,-104.3l99.33,104.3v93.74c0,27.43 22.24,49.66 49.66,49.66h186.24c27.43,0 49.66,-22.24 49.66,-49.66v-186.24c0,-27.43 -22.24,-49.66 -49.66,-49.66zM847.23,660.99v186.24h-186.24v-113.6l-148.99,-156.44l-148.99,156.44v113.6h-186.24v-186.24h148.99l148.99,-148.99v-118.45c-43.2,-15.64 -74.49,-56.61 -74.49,-105.04c0,-61.83 49.91,-111.74 111.74,-111.74c61.83,0 111.74,49.91 111.74,111.74c0,48.43 -31.29,89.4 -74.49,105.04v118.45l148.99,148.99z" fill="currentColor"/>
		</g>
	</g>
</svg>