<svg version="1.1" xmlns="http://www.w3.org/2000/svg" xmlns:xlink="http://www.w3.org/1999/xlink" viewBox="0,0,1024,1024">
	<!-- Color names: teamapps-color-1 -->
	<desc>directions_railway icon - Licensed under Apache License v2.0 (http://www.apache.org/licenses/LICENSE-2.0) - Created with Iconfu.com - Derivative work of Material icons (Copyright Google Inc.)</desc>
	<g fill="none" fill-rule="nonzero" style="mix-blend-mode: normal">
		<g color="#039be5" class="teamapps-color-1">
			<path d="M148.99,251.26c0,-205.43 222.61,-214.01 363.01,-214.01c140.39,0 363.01,8.58 363.01,214.01v391.1c0,65.08 -31.91,122.74 -80.84,158.24c4.14,8.67 6.34,18.22 6.34,28.01v18.62c0,35.91 -29.11,65.02 -65.02,65.02h-446.98c-35.91,0 -65.02,-29.11 -65.02,-65.02v-18.62c0,-9.79 2.21,-19.34 6.34,-28.01c-48.92,-35.49 -80.84,-93.15 -80.84,-158.24zM164.35,642.37c0,65.12 34.67,122.21 86.54,153.82c-7.74,8.98 -12.04,20.48 -12.04,32.42v18.62c0,27.43 22.24,49.66 49.66,49.66h446.98c27.43,0 49.66,-22.24 49.66,-49.66v-18.62c0,-11.94 -4.3,-23.44 -12.04,-32.42c51.86,-31.62 86.54,-88.7 86.54,-153.82v-391.1c0,-187.64 -201.37,-198.65 -347.65,-198.65c-146.27,0 -347.65,11.01 -347.65,198.65zM214.02,251.26c0,-130.37 133.34,-148.99 297.98,-148.99c164.64,0 297.98,18.62 297.98,148.99v391.1c0,71.89 -58.47,130.37 -130.37,130.37l55.87,55.87v18.62h-446.98v-18.62l55.87,-55.87c-71.89,0 -130.37,-58.48 -130.37,-130.37zM735.49,251.26h-446.98v186.25h446.98zM586.49,623.74c0,-40.97 -33.52,-74.49 -74.49,-74.49c-40.97,0 -74.49,33.52 -74.49,74.49c0,40.97 33.52,74.49 74.49,74.49c40.97,0 74.49,-33.52 74.49,-74.49z" fill="currentColor"/>
		</g>
	</g>
</svg>