<svg version="1.1" xmlns="http://www.w3.org/2000/svg" xmlns:xlink="http://www.w3.org/1999/xlink" viewBox="0,0,1024,1024">
	<!-- Color names: teamapps-color-1 -->
	<desc>dns icon - Licensed under Apache License v2.0 (http://www.apache.org/licenses/LICENSE-2.0) - Created with Iconfu.com - Derivative work of Material icons (Copyright Google Inc.)</desc>
	<g fill="none" fill-rule="nonzero" style="mix-blend-mode: normal">
		<g color="#039be5" class="teamapps-color-1">
			<path d="M912.26,214.02v223.49c0,29.37 -12.44,55.85 -32.27,74.49c19.82,18.64 32.27,45.12 32.27,74.49v223.49c0,56.4 -45.87,102.27 -102.27,102.27h-595.96c-56.4,0 -102.27,-45.87 -102.27,-102.27v-223.49c0,-29.37 12.44,-55.85 32.27,-74.49c-19.82,-18.64 -32.27,-45.12 -32.27,-74.49v-223.49c0,-56.4 45.87,-102.27 102.27,-102.27h595.96c56.4,0 102.27,45.87 102.27,102.27zM809.98,127.1h-595.96c-47.92,0 -86.91,39 -86.91,86.91v223.49c0,31.58 16.94,59.28 42.19,74.49c-25.26,15.22 -42.19,42.91 -42.19,74.49v223.49c0,47.92 39,86.91 86.91,86.91h595.96c47.92,0 86.91,-39 86.91,-86.91v-223.49c0,-31.58 -16.94,-59.28 -42.19,-74.49c25.26,-15.22 42.19,-42.91 42.19,-74.49v-223.49c0,-47.92 -39,-86.91 -86.91,-86.91zM847.23,586.49v223.49c0,20.49 -16.76,37.25 -37.25,37.25h-595.96c-20.49,0 -37.25,-16.76 -37.25,-37.25v-223.49c0,-20.49 16.76,-37.24 37.25,-37.24h595.96c20.49,0 37.25,16.75 37.25,37.24zM847.23,214.02v223.49c0,20.49 -16.76,37.24 -37.25,37.24h-595.96c-20.49,0 -37.25,-16.75 -37.25,-37.24v-223.49c0,-20.49 16.76,-37.25 37.25,-37.25h595.96c20.49,0 37.25,16.76 37.25,37.25zM400.26,325.76c0,-40.97 -33.52,-74.5 -74.49,-74.5c-40.97,0 -74.5,33.53 -74.5,74.5c0,40.97 33.53,74.49 74.5,74.49c40.97,0 74.49,-33.52 74.49,-74.49zM400.26,698.24c0,-40.97 -33.52,-74.49 -74.49,-74.49c-40.97,0 -74.5,33.52 -74.5,74.49c0,40.97 33.53,74.5 74.5,74.5c40.97,0 74.49,-33.53 74.49,-74.5z" fill="currentColor"/>
		</g>
	</g>
</svg>