<svg version="1.1" xmlns="http://www.w3.org/2000/svg" xmlns:xlink="http://www.w3.org/1999/xlink" viewBox="0,0,1024,1024">
	<!-- Color names: teamapps-color-1 -->
	<desc>domain icon - Licensed under Apache License v2.0 (http://www.apache.org/licenses/LICENSE-2.0) - Created with Iconfu.com - Derivative work of Material icons (Copyright Google Inc.)</desc>
	<g fill="none" fill-rule="nonzero" style="mix-blend-mode: normal">
		<g color="#039be5" class="teamapps-color-1">
			<path d="M949.51,325.76v521.47c0,35.91 -29.11,65.02 -65.02,65.02h-744.97c-35.91,0 -65.02,-29.11 -65.02,-65.02v-670.46c0,-35.91 29.11,-65.02 65.02,-65.02h372.48c35.91,0 65.02,29.11 65.02,65.02v83.97h307.46c35.91,0 65.02,29.11 65.02,65.02zM884.48,276.1h-322.82v-99.33c0,-27.43 -22.24,-49.66 -49.66,-49.66h-372.48c-27.43,0 -49.66,22.24 -49.66,49.66v670.46c0,27.43 22.24,49.66 49.66,49.66h744.97c27.43,0 49.66,-22.24 49.66,-49.66v-521.47c0,-27.43 -22.24,-49.66 -49.66,-49.66zM884.48,325.76v521.47h-744.97v-670.46h372.48v148.99zM809.98,400.26h-297.98v74.49h74.49v74.5h-74.49v74.49h74.49v74.49h-74.49v74.5h297.98zM288.51,698.24h-74.49v74.5h74.49zM288.51,549.25h-74.49v74.49h74.49zM437.51,698.24h-74.5v74.5h74.5zM437.51,549.25h-74.5v74.49h74.5zM735.49,549.25h-74.49v-74.5h74.49zM288.51,400.26h-74.49v74.49h74.49zM288.51,251.26h-74.49v74.5h74.49zM437.51,400.26h-74.5v74.49h74.5zM437.51,251.26h-74.5v74.5h74.5zM735.49,698.24h-74.49v-74.49h74.49z" fill="currentColor"/>
		</g>
	</g>
</svg>