<svg version="1.1" xmlns="http://www.w3.org/2000/svg" xmlns:xlink="http://www.w3.org/1999/xlink" viewBox="0,0,1024,1024">
	<!-- Color names: teamapps-color-1 -->
	<desc>edit_location icon - Licensed under Apache License v2.0 (http://www.apache.org/licenses/LICENSE-2.0) - Created with Iconfu.com - Derivative work of Material icons (Copyright Google Inc.)</desc>
	<g fill="none" fill-rule="nonzero" style="mix-blend-mode: normal">
		<g color="#039be5" class="teamapps-color-1">
			<path d="M837.76,400.26c0,220.57 -277.51,527.81 -277.51,527.81c-12.33,13.65 -29.86,21.44 -48.25,21.44c-18.39,0 -35.93,-7.79 -48.25,-21.44c0,0 -277.51,-307.24 -277.51,-527.81c0,-179.69 146.08,-325.76 325.76,-325.76c179.69,0 325.76,146.08 325.76,325.76zM512,89.85c-171.2,0 -310.4,139.2 -310.4,310.4c0,214.66 273.55,517.52 273.55,517.52c9.42,10.43 22.81,16.37 36.86,16.37c14.05,0 27.44,-5.95 36.86,-16.37c0,0 273.55,-302.86 273.55,-517.52c0,-171.2 -139.2,-310.4 -310.4,-310.4zM772.74,400.26c0,195.55 -260.74,484.23 -260.74,484.23c0,0 -260.74,-288.67 -260.74,-484.23c0,-143.77 116.96,-260.74 260.74,-260.74c143.77,0 260.74,116.96 260.74,260.74zM578.3,387.22l-53.27,-53.27l-124.78,124.41v53.64h53.64zM619.65,326.13l-33.52,-33.52c-5.59,-5.59 -14.53,-5.59 -20.11,0l-26.08,26.08l53.64,53.64l26.08,-26.08c5.59,-5.59 5.59,-14.53 0,-20.11z" fill="currentColor"/>
		</g>
	</g>
</svg>