<svg version="1.1" xmlns="http://www.w3.org/2000/svg" xmlns:xlink="http://www.w3.org/1999/xlink" viewBox="0,0,1024,1024">
	<!-- Color names: teamapps-color-1 -->
	<desc>exit_to_app icon - Licensed under Apache License v2.0 (http://www.apache.org/licenses/LICENSE-2.0) - Created with Iconfu.com - Derivative work of Material icons (Copyright Google Inc.)</desc>
	<g fill="none" fill-rule="nonzero" style="mix-blend-mode: normal">
		<g color="#039be5" class="teamapps-color-1">
			<path d="M912.26,251.26v521.48c0,76.88 -62.64,139.52 -139.52,139.52h-521.48c-77.48,0 -139.52,-62.86 -139.52,-139.52v-148.99c0,-13.85 4.34,-26.7 11.72,-37.25c-7.38,-10.55 -11.72,-23.4 -11.72,-37.25v-74.5c0,-13.85 4.34,-26.7 11.72,-37.25c-7.38,-10.55 -11.72,-23.4 -11.72,-37.25v-148.99c0,-76.66 62.04,-139.52 139.52,-139.52h521.48c76.88,0 139.52,62.64 139.52,139.52zM772.74,127.1h-521.48c-68.94,0 -124.16,55.93 -124.16,124.16v148.99c0,14.83 6.5,28.15 16.81,37.25c-10.31,9.1 -16.81,22.41 -16.81,37.25v74.5c0,14.83 6.5,28.15 16.81,37.25c-10.31,9.1 -16.81,22.41 -16.81,37.25v148.99c0,68.23 55.22,124.16 124.16,124.16h521.48c68.4,0 124.16,-55.76 124.16,-124.16v-521.48c0,-68.4 -55.76,-124.16 -124.16,-124.16zM847.23,251.26v521.48c0,40.97 -33.52,74.49 -74.49,74.49h-521.48c-41.35,0 -74.49,-33.52 -74.49,-74.49v-148.99h74.49v148.99h521.48v-521.48h-521.48v148.99h-74.49v-148.99c0,-40.97 33.15,-74.49 74.49,-74.49h521.48c40.97,0 74.49,33.52 74.49,74.49zM536.96,549.25h-360.19v-74.5h360.19l-96.1,-96.47l52.52,-52.52l186.24,186.24l-186.24,186.24l-52.52,-52.52z" fill="currentColor"/>
		</g>
	</g>
</svg>