<svg version="1.1" xmlns="http://www.w3.org/2000/svg" xmlns:xlink="http://www.w3.org/1999/xlink" viewBox="0,0,1024,1024">
	<!-- Color names: teamapps-color-1 -->
	<desc>exposure_neg_1 icon - Licensed under Apache License v2.0 (http://www.apache.org/licenses/LICENSE-2.0) - Created with Iconfu.com - Derivative work of Material icons (Copyright Google Inc.)</desc>
	<g fill="none" fill-rule="nonzero" style="mix-blend-mode: normal">
		<g color="#039be5" class="teamapps-color-1">
			<path d="M772.74,800.51h-74.5c-35.91,0 -65.02,-29.11 -65.02,-65.02v-304.79l-25.79,8.77c-13.28,4.51 -27.47,4.56 -40.51,0.44c6.4,10.07 10.11,22.02 10.11,34.83v74.5c0,35.91 -29.11,65.02 -65.02,65.02h-297.98c-35.91,0 -65.02,-29.11 -65.02,-65.02v-74.5c0,-35.91 29.11,-65.02 65.02,-65.02h297.98c6.82,0 13.4,1.05 19.58,3c-6.51,-10.27 -10.11,-22.32 -10.11,-34.82v-63.32c0,-27.38 17.16,-51.83 42.91,-61.15l175.07,-63.33c7.09,-2.57 14.58,-3.88 22.12,-3.88h11.17c35.91,0 65.02,29.11 65.02,65.02v484.23c0,35.91 -29.11,65.02 -65.02,65.02zM822.4,735.49v-484.23c0,-27.43 -22.24,-49.66 -49.66,-49.66h-11.17c-5.76,0 -11.48,1 -16.89,2.96l-175.07,63.33c-19.67,7.11 -32.77,25.79 -32.77,46.7v63.32c0,16.02 7.72,31.05 20.75,40.38c13.02,9.33 29.74,11.8 44.91,6.64l46.09,-15.67v326.23c0,27.43 22.24,49.66 49.66,49.66h74.5c27.43,0 49.66,-22.24 49.66,-49.66zM512,425.09h-297.98c-27.43,0 -49.66,22.24 -49.66,49.66v74.5c0,27.43 22.24,49.66 49.66,49.66h297.98c27.43,0 49.66,-22.24 49.66,-49.66v-74.5c0,-27.43 -22.24,-49.66 -49.66,-49.66zM772.74,735.49h-74.5v-395.57l-111.74,37.99v-63.32l175.07,-63.33h11.17zM512,474.75v74.5h-297.98v-74.5z" fill="currentColor"/>
		</g>
	</g>
</svg>