<svg version="1.1" xmlns="http://www.w3.org/2000/svg" xmlns:xlink="http://www.w3.org/1999/xlink" viewBox="0,0,1024,1024">
	<!-- Color names: teamapps-color-1 -->
	<desc>favorite_border icon - Licensed under Apache License v2.0 (http://www.apache.org/licenses/LICENSE-2.0) - Created with Iconfu.com - Derivative work of Material icons (Copyright Google Inc.)</desc>
	<g fill="none" fill-rule="nonzero" style="mix-blend-mode: normal">
		<g color="#039be5" class="teamapps-color-1">
			<path d="M949.51,381.63c0,176.58 -158.56,313.27 -339.77,477.59l-53.97,49.13c-24.74,22.52 -62.53,22.59 -87.36,0.17l-54.03,-48.81c-181.2,-164.66 -339.89,-301.51 -339.89,-478.07c0,-150.63 119.26,-269.89 269.89,-269.89c61.19,0 119.96,20.46 167.62,55.01c47.65,-34.55 106.43,-55.01 167.62,-55.01c150.63,0 269.89,119.26 269.89,269.89zM679.62,127.1c-61.69,0 -120.95,22.04 -167.62,58.91c-46.66,-36.87 -105.93,-58.91 -167.62,-58.91c-142.15,0 -254.53,112.38 -254.53,254.53c0,168.13 151.18,299.78 334.83,466.68l54.03,48.81c18.96,17.13 47.83,17.07 66.72,-0.13l53.98,-49.14c183.66,-166.54 334.74,-298.08 334.74,-466.22c0,-142.15 -112.38,-254.53 -254.53,-254.53zM884.48,381.63c0,140.8 -126.65,255.52 -318.47,429.46l-54.01,49.17l-54.01,-48.79c-191.82,-174.32 -318.47,-289.04 -318.47,-429.84c0,-114.72 90.15,-204.87 204.87,-204.87c64.81,0 127.01,30.17 167.62,77.85c40.6,-47.67 102.8,-77.85 167.62,-77.85c114.72,0 204.87,90.15 204.87,204.87zM809.98,381.63c0,-74.49 -55.87,-130.37 -130.37,-130.37c-57.36,0 -113.23,36.88 -132.6,87.91h-69.66c-19.74,-51.03 -75.61,-87.91 -132.98,-87.91c-74.49,0 -130.37,55.88 -130.37,130.37c0,107.65 116.96,213.81 294.25,374.34l3.73,3.72l3.73,-3.72c177.3,-160.54 294.25,-266.69 294.25,-374.34z" fill="currentColor"/>
		</g>
	</g>
</svg>