<svg version="1.1" xmlns="http://www.w3.org/2000/svg" xmlns:xlink="http://www.w3.org/1999/xlink" viewBox="0,0,1024,1024">
	<!-- Color names: teamapps-color-1 -->
	<desc>fiber_smart_record icon - Licensed under Apache License v2.0 (http://www.apache.org/licenses/LICENSE-2.0) - Created with Iconfu.com - Derivative work of Material icons (Copyright Google Inc.)</desc>
	<g fill="none" fill-rule="nonzero" style="mix-blend-mode: normal">
		<g color="#039be5" class="teamapps-color-1">
			<path d="M37.25,512c0,-200.48 162.52,-363.01 363.01,-363.01c88.66,0 169.92,31.8 232.96,84.6v-9.89c0,-20.11 9.3,-39.09 25.2,-51.4c15.9,-12.32 36.6,-16.58 56.07,-11.56c156.38,40.34 272.27,181.81 272.27,351.26c0,169.45 -115.89,310.92 -272.27,351.26c-19.47,5.02 -40.17,0.75 -56.07,-11.56c-15.9,-12.32 -25.2,-31.29 -25.2,-51.4v-9.89c-63.03,52.8 -144.29,84.6 -232.96,84.6c-200.48,0 -363.01,-162.52 -363.01,-363.01zM400.26,859.65c97.27,0 185.22,-39.95 248.32,-104.34v45c0,15.36 7.11,29.85 19.25,39.26c12.14,9.41 27.95,12.67 42.82,8.83c149.8,-38.64 260.75,-174.15 260.75,-336.39c0,-162.24 -110.94,-297.75 -260.75,-336.39c-14.87,-3.84 -30.68,-0.58 -42.82,8.83c-12.14,9.41 -19.25,23.9 -19.25,39.26v45c-63.1,-64.39 -151.04,-104.34 -248.32,-104.34c-192,0 -347.65,155.65 -347.65,347.65c0,192 155.65,347.65 347.65,347.65zM102.27,512c0,-164.57 133.41,-297.98 297.98,-297.98c164.57,0 297.98,133.41 297.98,297.98c0,164.57 -133.41,297.98 -297.98,297.98c-164.57,0 -297.98,-133.41 -297.98,-297.98zM921.73,512c0,138.94 -94.98,255.15 -223.49,288.3v-77.85c86.78,-30.55 148.99,-113.24 148.99,-210.45c0,-97.22 -62.21,-179.91 -148.99,-210.45v-77.85c128.51,33.15 223.49,149.36 223.49,288.3z" fill="currentColor"/>
		</g>
	</g>
</svg>