<svg version="1.1" xmlns="http://www.w3.org/2000/svg" xmlns:xlink="http://www.w3.org/1999/xlink" viewBox="0,0,1024,1024">
	<!-- Color names: teamapps-color-1 -->
	<desc>file_download icon - Licensed under Apache License v2.0 (http://www.apache.org/licenses/LICENSE-2.0) - Created with Iconfu.com - Derivative work of Material icons (Copyright Google Inc.)</desc>
	<g fill="none" fill-rule="nonzero" style="mix-blend-mode: normal">
		<g color="#039be5" class="teamapps-color-1">
			<path d="M205.28,446.23c-18.6,-18.6 -24.16,-46.56 -14.1,-70.86c10.06,-24.3 33.77,-40.14 60.07,-40.14h83.97v-158.46c0,-35.91 29.11,-65.02 65.02,-65.02h223.49c35.91,0 65.02,29.11 65.02,65.02v158.46h83.97c26.3,0 50.01,15.84 60.07,40.14c10.06,24.3 4.5,52.27 -14.1,70.86l-224.23,224.23h178.25c35.91,0 65.02,29.11 65.02,65.02v74.49c0,35.91 -29.11,65.02 -65.02,65.02h-521.48c-35.91,0 -65.02,-29.11 -65.02,-65.02v-74.49c0,-35.91 29.11,-65.02 65.02,-65.02h178.25zM466.59,685.82h-215.33c-27.43,0 -49.66,22.24 -49.66,49.66v74.49c0,27.43 22.24,49.66 49.66,49.66h521.48c27.43,0 49.66,-22.24 49.66,-49.66v-74.49c0,-27.43 -22.24,-49.66 -49.66,-49.66h-215.33l250.45,-250.45c14.2,-14.2 18.45,-35.57 10.77,-54.12c-7.69,-18.56 -25.8,-30.66 -45.88,-30.66h-99.33v-173.82c0,-27.43 -22.24,-49.66 -49.66,-49.66h-223.49c-27.43,0 -49.66,22.24 -49.66,49.66v173.82h-99.33c-20.09,0 -38.2,12.1 -45.88,30.66c-7.69,18.56 -3.44,39.92 10.77,54.12zM512,660.99l-260.74,-260.74h148.99v-223.49h223.49v223.49h148.99zM772.74,735.49v74.49h-521.48v-74.49z" fill="currentColor"/>
		</g>
	</g>
</svg>