<svg version="1.1" xmlns="http://www.w3.org/2000/svg" xmlns:xlink="http://www.w3.org/1999/xlink" viewBox="0,0,1024,1024">
	<!-- Color names: teamapps-color-1 -->
	<desc>filter_tilt_shift icon - Licensed under Apache License v2.0 (http://www.apache.org/licenses/LICENSE-2.0) - Created with Iconfu.com - Derivative work of Material icons (Copyright Google Inc.)</desc>
	<g fill="none" fill-rule="nonzero" style="mix-blend-mode: normal">
		<g color="#039be5" class="teamapps-color-1">
			<path d="M947.32,556.09c-8.77,87.7 -43.82,168.21 -96.68,232.85c-9.95,12.18 -23.92,20.26 -39.25,22.91c-2.73,15.15 -10.78,28.93 -22.83,38.79c-64.6,52.81 -144.72,87.91 -232.88,96.68c-15.54,1.55 -31.03,-2.56 -43.69,-11.41c-12.67,8.85 -28.16,12.96 -43.72,11.4c-87.7,-8.77 -168.2,-43.83 -232.84,-96.68c-12.16,-9.94 -20.24,-23.88 -22.9,-39.18c-15.3,-2.67 -29.24,-10.74 -39.18,-22.9c-52.81,-64.6 -87.91,-144.72 -96.68,-232.88c-1.55,-15.54 2.56,-31.03 11.41,-43.69c-8.85,-12.66 -12.95,-28.14 -11.41,-43.69c8.77,-88.16 43.87,-168.28 96.68,-232.88c9.94,-12.16 23.88,-20.24 39.18,-22.9c2.67,-15.3 10.74,-29.24 22.9,-39.18c64.6,-52.81 144.72,-87.91 232.88,-96.68c15.54,-1.55 31.03,2.56 43.69,11.41c12.66,-8.85 28.14,-12.95 43.69,-11.41c88.16,8.77 168.28,43.87 232.88,96.68c12.16,9.94 20.24,23.88 22.9,39.18c15.3,2.67 29.24,10.74 39.18,22.9c52.81,64.6 87.91,144.72 96.68,232.88c1.55,15.62 -2.6,31.18 -11.54,43.87c8.94,12.7 13.1,28.27 11.53,43.9zM915.25,512.18c1.46,-1.28 2.86,-2.64 4.18,-4.1c9.41,-10.4 13.99,-24.29 12.61,-38.25c-8.46,-85.02 -42.3,-162.31 -93.29,-224.67c-8.86,-10.84 -21.89,-17.44 -35.88,-18.16c-1.98,-0.1 -3.96,-0.09 -5.91,0.05c0.13,-1.96 0.15,-3.93 0.05,-5.91c-0.72,-13.99 -7.32,-27.01 -18.16,-35.88c-62.36,-50.99 -139.65,-84.83 -224.67,-93.29c-13.96,-1.39 -27.85,3.19 -38.25,12.61c-1.39,1.25 -2.69,2.58 -3.92,3.97c-1.22,-1.39 -2.53,-2.71 -3.92,-3.97c-10.4,-9.41 -24.29,-13.99 -38.25,-12.61c-85.02,8.46 -162.31,42.3 -224.67,93.29c-10.84,8.86 -17.44,21.89 -18.16,35.88c-0.1,1.98 -0.09,3.96 0.05,5.91c-1.96,-0.13 -3.93,-0.15 -5.91,-0.05c-13.99,0.72 -27.01,7.32 -35.88,18.16c-50.99,62.36 -84.83,139.65 -93.29,224.67c-1.39,13.96 3.19,27.85 12.61,38.25c1.25,1.39 2.58,2.69 3.97,3.92c-1.39,1.22 -2.71,2.53 -3.97,3.92c-9.41,10.4 -13.99,24.29 -12.61,38.25c8.46,85.02 42.3,162.31 93.29,224.67c8.88,10.87 21.95,17.47 35.97,18.17c1.95,0.1 3.9,0.08 5.83,-0.05c-0.13,1.96 -0.15,3.93 -0.05,5.91c0.72,13.99 7.32,27.01 18.16,35.88c62.4,51.01 140.07,84.83 224.65,93.28c13.96,1.4 27.86,-3.18 38.27,-12.59c1.39,-1.26 2.7,-2.59 3.93,-3.98c1.22,1.39 2.53,2.71 3.92,3.97c10.4,9.41 24.29,13.99 38.25,12.61c85.02,-8.46 162.31,-42.3 224.67,-93.29c10.87,-8.88 17.47,-21.95 18.17,-35.97c0.09,-1.83 0.08,-3.64 -0.03,-5.45c1.92,0.13 3.86,0.15 5.8,0.05c14.02,-0.7 27.08,-7.3 35.97,-18.17c51.01,-62.4 84.83,-140.08 93.28,-224.66c1.4,-13.96 -3.18,-27.86 -12.59,-38.27c-1.32,-1.46 -2.72,-2.83 -4.19,-4.11zM512,623.74c-61.83,0 -111.74,-49.91 -111.74,-111.74c0,-61.83 49.91,-111.74 111.74,-111.74c61.83,0 111.74,49.91 111.74,111.74c0,61.83 -49.91,111.74 -111.74,111.74zM747.04,329.48l53.26,-52.89c45.07,55.13 74.87,123.29 82.32,198.15h-75.24c-6.7,-54.38 -28.31,-103.92 -60.34,-145.27zM807.38,549.62h75.24c-7.45,74.49 -37.24,143.03 -82.32,198.16l-53.26,-53.26c32.03,-41.35 53.64,-90.89 60.34,-144.9zM694.14,747.04l53.26,53.26c-55.13,45.07 -123.29,74.87 -198.15,82.32v-75.24c54.38,-6.7 103.92,-28.31 144.89,-60.34zM329.48,747.04c41.35,32.03 90.89,53.64 145.27,60.34v75.24c-74.49,-7.45 -143.02,-37.24 -198.15,-82.32zM329.48,276.96l-52.89,-53.26c55.13,-45.07 123.29,-74.87 198.15,-82.32v75.24c-54.38,6.7 -103.92,28.31 -145.27,60.34zM694.52,276.96c-41.35,-32.03 -90.89,-53.64 -145.27,-60.34v-75.24c74.87,7.45 143.02,37.24 198.15,82.32zM216.62,474.75h-75.24c7.45,-74.87 37.24,-143.02 82.32,-198.15l53.26,52.89c-32.03,41.35 -53.64,90.89 -60.34,145.27zM276.96,694.14l-53.26,53.26c-45.07,-55.13 -74.87,-123.29 -82.32,-198.15h75.24c6.7,54.38 28.31,103.92 60.34,144.89z" fill="currentColor"/>
		</g>
	</g>
</svg>