<svg version="1.1" xmlns="http://www.w3.org/2000/svg" xmlns:xlink="http://www.w3.org/1999/xlink" viewBox="0,0,1024,1024">
	<!-- Color names: teamapps-color-1 -->
	<desc>find_in_page icon - Licensed under Apache License v2.0 (http://www.apache.org/licenses/LICENSE-2.0) - Created with Iconfu.com - Derivative work of Material icons (Copyright Google Inc.)</desc>
	<g fill="none" fill-rule="nonzero" style="mix-blend-mode: normal">
		<g color="#039be5" class="teamapps-color-1">
			<path d="M844.65,874.5c-1.43,18.9 -11.04,36.24 -26.32,47.47c-22.61,16.63 -50.78,27.54 -82.84,27.54h-447.35c-77.34,0 -139.14,-63.11 -139.14,-139.53l0.37,-595.99c0.01,-76.43 61.83,-139.5 139.15,-139.5h297.98c17.25,0 33.78,6.85 45.98,19.05l223.49,223.49c12.19,12.19 19.05,28.73 19.05,45.98v431.71c0,23.56 -12.71,45.04 -32.82,56.49c2.2,7.47 3.07,15.35 2.46,23.29zM821.74,842.97c2.44,-0.59 4.85,-1.38 7.22,-2.36c18.57,-7.68 30.69,-25.8 30.69,-45.9v-431.71c0,-13.17 -5.23,-25.8 -14.55,-35.12l-223.49,-223.49c-9.31,-9.31 -21.95,-14.55 -35.12,-14.55h-297.98c-68.72,0 -123.78,56.09 -123.79,124.15l-0.37,595.98c0,68.06 55.04,124.17 123.78,124.17h447.35c28.44,0 53.48,-9.65 73.74,-24.56c11.66,-8.58 19.01,-21.82 20.1,-36.26c0.82,-10.77 -1.9,-21.41 -7.59,-30.37zM667.32,651.68c19.37,-29.43 30.91,-64.44 30.91,-102.43c0,-102.8 -83.43,-186.25 -186.24,-186.25c-102.8,0 -186.24,83.44 -186.24,186.25c0,102.8 83.43,186.24 186.24,186.24c37.99,0 73.01,-11.54 102.8,-30.91l165.01,165.01c-12.67,9.31 -27.56,14.9 -44.32,14.9h-447.35c-40.97,0 -74.12,-33.53 -74.12,-74.5l0.37,-595.96c0,-40.97 33.16,-74.5 74.13,-74.5h297.98l223.49,223.49v431.71zM512,437.51c61.83,0 111.74,49.91 111.74,111.74c0,61.83 -49.91,111.74 -111.74,111.74c-61.83,0 -111.74,-49.91 -111.74,-111.74c0,-61.83 49.91,-111.74 111.74,-111.74z" fill="currentColor"/>
		</g>
	</g>
</svg>