<svg version="1.1" xmlns="http://www.w3.org/2000/svg" xmlns:xlink="http://www.w3.org/1999/xlink" viewBox="0,0,1024,1024">
	<!-- Color names: teamapps-color-1 -->
	<desc>find_replace icon - Licensed under Apache License v2.0 (http://www.apache.org/licenses/LICENSE-2.0) - Created with Iconfu.com - Derivative work of Material icons (Copyright Google Inc.)</desc>
	<g fill="none" fill-rule="nonzero" style="mix-blend-mode: normal">
		<g color="#039be5" class="teamapps-color-1">
			<path d="M911.47,855.96l-55.51,55.51c-25.38,25.38 -66.51,25.4 -91.91,0.05l-145.08,-144.78c-43.4,21.51 -92.37,33.78 -144.22,33.78c-66.32,0 -128.17,-19.85 -179.76,-54.04l-34.99,34.99c-18.6,18.6 -46.56,24.16 -70.86,14.1c-24.3,-10.06 -40.14,-33.77 -40.14,-60.08v-223.49c0,-14.8 4.96,-28.45 13.28,-39.38c-8.39,-13.08 -11.88,-28.84 -9.63,-44.42c22.77,-157.54 157.59,-279.21 322.11,-279.21c66.32,0 128.17,19.84 179.77,54.03l35,-34.99c18.6,-18.6 46.56,-24.16 70.86,-14.09c24.3,10.06 40.14,33.77 40.14,60.07v223.49c0,14.8 -4.96,28.45 -13.28,39.38c8.3,12.94 11.81,28.5 9.7,43.93c-4.79,35.04 -15.3,68.04 -30.21,98.16l144.79,145.08c25.35,25.4 25.33,66.54 -0.05,91.91zM900.64,774.9l-152.71,-153.02c16.88,-31.27 28.71,-66.02 33.79,-103.15c1.94,-14.21 -2.35,-28.57 -11.78,-39.38c-1,-1.15 -2.05,-2.24 -3.14,-3.28c11.2,-9.11 18.36,-23 18.36,-38.56v-223.49c0,-20.09 -12.1,-38.2 -30.66,-45.88c-18.56,-7.69 -39.92,-3.44 -54.12,10.76l-44.06,44.05c-51.13,-36.92 -113.89,-58.6 -181.57,-58.6c-156.71,0 -285.2,115.89 -306.91,266.05c-2.06,14.26 2.17,28.72 11.61,39.61c1.04,1.2 2.13,2.34 3.26,3.43c-11.2,9.11 -18.36,23 -18.36,38.56v223.49c0,20.09 12.1,38.2 30.66,45.88c18.56,7.69 39.92,3.44 54.12,-10.77l44.05,-44.05c51.12,36.92 113.88,58.6 181.56,58.6c53.31,0 103.41,-13.61 147.13,-37.22l153.02,152.71c19.4,19.36 50.82,19.35 70.2,-0.04l55.51,-55.51c19.38,-19.38 19.4,-50.8 0.04,-70.2zM865.49,809.98l-55.51,55.51l-181.03,-180.66c-43.2,31.66 -96.48,50.66 -154.21,50.66c-71.89,0 -137.07,-29.05 -184.38,-76.36l-76.35,76.36v-223.49h223.49l-94.62,94.61c33.9,33.52 80.46,54.39 131.86,54.39c90.14,0 165.38,-64.07 182.52,-148.99h75.24c-5.96,43.58 -23.1,83.43 -47.68,116.96zM292.24,437.51h-75.24c18.25,-126.27 126.27,-223.49 257.75,-223.49c71.89,0 137.07,29.04 184.38,76.35l76.36,-76.35v223.49h-223.49l94.61,-94.62c-33.9,-33.52 -80.46,-54.38 -131.86,-54.38c-90.14,0 -165.37,64.07 -182.51,148.99z" fill="currentColor"/>
		</g>
	</g>
</svg>