<svg version="1.1" xmlns="http://www.w3.org/2000/svg" xmlns:xlink="http://www.w3.org/1999/xlink" viewBox="0,0,1024,1024">
	<!-- Color names: teamapps-color-1 -->
	<desc>flight_land icon - Licensed under Apache License v2.0 (http://www.apache.org/licenses/LICENSE-2.0) - Created with Iconfu.com - Derivative work of Material icons (Copyright Google Inc.)</desc>
	<g fill="none" fill-rule="nonzero" style="mix-blend-mode: normal">
		<g color="#039be5" class="teamapps-color-1">
			<path d="M103.18,490.03v-192.58c0,-20.23 9.41,-39.3 25.47,-51.61c16.05,-12.31 36.92,-16.44 56.45,-11.19l54,14.53c19.75,5.31 35.85,19.61 43.46,38.6l22.53,56.21l71.86,19.23v-223.7c0,-20.18 9.37,-39.21 25.35,-51.52c15.99,-12.31 36.78,-16.5 56.29,-11.35l71.88,19c21.75,5.75 38.98,22.33 45.56,43.84l92.25,301.5l163.41,43.7c64.23,17.67 101.97,83.6 85.13,147.74c-0.06,0.22 -0.11,0.43 -0.17,0.65c-9.14,33.24 -31.25,59.45 -59.37,74.63h8.56c35.91,0 65.02,29.11 65.02,65.02v74.49c0,35.91 -29.11,65.02 -65.02,65.02h-707.71c-35.91,0 -65.02,-29.11 -65.02,-65.02v-74.49c0,-35.91 29.11,-65.02 65.02,-65.02h571.1l-320.46,-85.59l-257.49,-69.31c-28.39,-7.64 -48.12,-33.39 -48.12,-62.79zM155.29,537.98l257.47,69.31l360.02,96.15c56.11,14.73 113.65,-18.42 129.06,-74.44c0.04,-0.16 0.09,-0.31 0.13,-0.47c14.71,-56.03 -18.25,-113.6 -74.35,-129.03l-171.53,-45.87l-94.75,-309.65c-5.03,-16.43 -18.19,-29.09 -34.8,-33.48l-71.88,-19c-14.9,-3.94 -30.78,-0.74 -42.99,8.67c-12.21,9.4 -19.36,23.94 -19.36,39.35v243.71l-98.61,-26.39l-25.39,-63.35c-5.81,-14.5 -18.11,-25.42 -33.2,-29.48l-54,-14.53c-14.92,-4.01 -30.85,-0.86 -43.12,8.54c-12.26,9.4 -19.45,23.97 -19.45,39.42v192.58c0,22.46 15.07,42.12 36.75,47.96zM108.48,772.74v74.49c0,27.43 22.24,49.66 49.66,49.66h707.71c27.43,0 49.66,-22.24 49.66,-49.66v-74.49c0,-27.43 -22.24,-49.66 -49.66,-49.66h-707.71c-27.43,0 -49.66,22.24 -49.66,49.66zM227.79,506.04l-59.59,-16.01v-192.58l54,14.53l34.64,86.42l185.13,49.53v-308.41l71.88,19l102.8,335.98l197.79,52.89c29.8,8.2 47.31,38.74 39.49,68.54c-8.2,29.8 -38.74,47.31 -68.54,39.49l-197.79,-52.9l-162.03,-43.2zM158.15,772.74h707.71v74.49h-707.71z" fill="currentColor"/>
		</g>
	</g>
</svg>