<svg version="1.1" xmlns="http://www.w3.org/2000/svg" xmlns:xlink="http://www.w3.org/1999/xlink" viewBox="0,0,1024,1024">
	<!-- Color names: teamapps-color-1 -->
	<desc>flight_takeoff icon - Licensed under Apache License v2.0 (http://www.apache.org/licenses/LICENSE-2.0) - Created with Iconfu.com - Derivative work of Material icons (Copyright Google Inc.)</desc>
	<g fill="none" fill-rule="nonzero" style="mix-blend-mode: normal">
		<g color="#039be5" class="teamapps-color-1">
			<path d="M865.85,707.71c35.91,0 65.02,29.11 65.02,65.02v74.49c0,35.91 -29.11,65.02 -65.02,65.02h-707.71c-35.91,0 -65.02,-29.11 -65.02,-65.02v-74.49c0,-35.91 29.11,-65.02 65.02,-65.02h29.95c-5.64,-4.76 -10.54,-10.54 -14.4,-17.22l-96.47,-167.24c-10.09,-17.5 -11.48,-38.69 -3.76,-57.36c7.72,-18.66 23.68,-32.68 43.19,-37.93l54,-14.53c19.74,-5.31 40.83,-1.03 56.94,11.56l47.84,37.4l71.91,-19.25l-111.82,-193.66c-10.13,-17.54 -11.5,-38.8 -3.72,-57.5c7.78,-18.7 23.84,-32.71 43.42,-37.88l71.89,-19c21.59,-5.71 44.6,0.07 60.94,15.3l230.67,214.96l162.82,-43.54c64.69,-17.64 131.43,21.08 148.41,85.74c16.96,64.59 -21.3,129.89 -84.99,147.97l-569.12,152.16zM860.79,540.78c55.78,-15.83 89.12,-72.94 74.33,-129.29c-14.81,-56.43 -73.1,-90.23 -129.54,-74.81l-171.07,45.75l-236.89,-220.76c-12.48,-11.63 -30.05,-16.04 -46.55,-11.68l-71.89,19c-14.96,3.95 -27.22,14.65 -33.16,28.93c-5.94,14.28 -4.89,30.52 2.84,43.92l121.83,211l-98.66,26.4l-53.88,-42.12c-12.3,-9.62 -28.41,-12.89 -43.49,-8.83l-54,14.53c-14.9,4.01 -27.09,14.71 -32.99,28.97c-5.9,14.26 -4.84,30.44 2.87,43.81l96.47,167.24c11.23,19.47 34.14,28.97 55.85,23.16zM108.48,772.74v74.49c0,27.43 22.24,49.66 49.66,49.66h707.71c27.43,0 49.66,-22.24 49.66,-49.66v-74.49c0,-27.43 -22.24,-49.66 -49.66,-49.66h-707.71c-27.43,0 -49.66,22.24 -49.66,49.66zM847.23,493l-197.79,52.9l-162.03,43.2l-197.79,52.9l-59.6,16.01l-28.68,-49.53l-67.79,-117.71l54,-14.53l73.38,57.36l185.12,-49.54l-154.21,-267.07l71.89,-19l257.01,239.51l197.79,-52.9c29.8,-8.2 60.71,9.69 68.53,39.49c7.82,29.8 -9.68,60.34 -39.85,68.91zM158.15,772.74h707.71v74.49h-707.71z" fill="currentColor"/>
		</g>
	</g>
</svg>