<svg version="1.1" xmlns="http://www.w3.org/2000/svg" xmlns:xlink="http://www.w3.org/1999/xlink" viewBox="0,0,1024,1024">
	<!-- Color names: teamapps-color-1 -->
	<desc>flip icon - Licensed under Apache License v2.0 (http://www.apache.org/licenses/LICENSE-2.0) - Created with Iconfu.com - Derivative work of Material icons (Copyright Google Inc.)</desc>
	<g fill="none" fill-rule="nonzero" style="mix-blend-mode: normal">
		<g color="#039be5" class="teamapps-color-1">
			<path d="M251.26,111.74h148.99c3.21,0 6.37,0.23 9.47,0.69v-10.16c0,-35.91 29.11,-65.02 65.02,-65.02h74.5c35.91,0 65.02,29.11 65.02,65.02v10.16c3.09,-0.45 6.26,-0.69 9.47,-0.69h74.49c13.85,0 26.7,4.34 37.25,11.72c10.55,-7.38 23.4,-11.72 37.25,-11.72c76.88,0 139.52,62.64 139.52,139.52c0,13.85 -4.34,26.7 -11.72,37.25c7.38,10.55 11.72,23.4 11.72,37.25v74.49c0,13.85 -4.34,26.7 -11.72,37.25c7.38,10.55 11.72,23.4 11.72,37.25v74.5c0,13.85 -4.34,26.7 -11.72,37.25c7.38,10.55 11.72,23.4 11.72,37.25v74.49c0,13.85 -4.34,26.7 -11.72,37.25c7.38,10.55 11.72,23.4 11.72,37.25c0,76.88 -62.64,139.52 -139.52,139.52c-13.85,0 -26.7,-4.34 -37.25,-11.72c-10.55,7.38 -23.4,11.72 -37.25,11.72h-74.49c-3.21,0 -6.37,-0.23 -9.47,-0.69v10.16c0,35.91 -29.11,65.02 -65.02,65.02h-74.5c-35.91,0 -65.02,-29.11 -65.02,-65.02v-10.16c-3.09,0.45 -6.26,0.69 -9.47,0.69h-148.99c-76.88,0 -139.52,-62.64 -139.52,-139.52v-521.48c0,-76.88 62.64,-139.52 139.52,-139.52zM127.1,251.26v521.48c0,68.4 55.76,124.16 124.16,124.16h148.99c9.04,0 17.52,-2.42 24.83,-6.64v31.47c0,27.43 22.24,49.66 49.66,49.66h74.5c27.43,0 49.66,-22.24 49.66,-49.66v-31.47c7.3,4.22 15.78,6.64 24.83,6.64h74.49c14.83,0 28.15,-6.5 37.25,-16.82c9.1,10.31 22.42,16.82 37.25,16.82c68.4,0 124.16,-55.76 124.16,-124.16c0,-14.83 -6.5,-28.15 -16.82,-37.25c10.31,-9.1 16.82,-22.42 16.82,-37.25v-74.49c0,-14.83 -6.5,-28.15 -16.81,-37.25c10.31,-9.1 16.81,-22.41 16.81,-37.25v-74.5c0,-14.83 -6.5,-28.15 -16.81,-37.25c10.31,-9.1 16.81,-22.41 16.81,-37.25v-74.49c0,-14.83 -6.5,-28.15 -16.82,-37.25c10.31,-9.1 16.82,-22.42 16.82,-37.25c0,-68.4 -55.76,-124.16 -124.16,-124.16c-14.83,0 -28.15,6.5 -37.25,16.82c-9.1,-10.31 -22.42,-16.82 -37.25,-16.82h-74.49c-9.04,0 -17.52,2.42 -24.83,6.64v-31.47c0,-27.43 -22.24,-49.66 -49.66,-49.66h-74.5c-27.43,0 -49.66,22.24 -49.66,49.66v31.47c-7.3,-4.22 -15.78,-6.64 -24.83,-6.64h-148.99c-68.4,0 -124.16,55.76 -124.16,124.16zM251.26,176.77h148.99v74.49h-148.99v521.48h148.99v74.49h-148.99c-40.97,0 -74.49,-33.52 -74.49,-74.49v-521.48c0,-40.97 33.52,-74.49 74.49,-74.49zM474.75,102.27h74.5v819.45h-74.5zM772.74,325.76h74.49v74.49h-74.49zM772.74,772.74h74.49c0,40.97 -33.52,74.49 -74.49,74.49zM847.23,251.26h-74.49v-74.49c40.97,0 74.49,33.52 74.49,74.49zM772.74,474.75h74.49v74.5h-74.49zM623.74,772.74h74.49v74.49h-74.49zM772.74,623.74h74.49v74.49h-74.49zM623.74,176.77h74.49v74.49h-74.49z" fill="currentColor"/>
		</g>
	</g>
</svg>