<svg version="1.1" xmlns="http://www.w3.org/2000/svg" xmlns:xlink="http://www.w3.org/1999/xlink" viewBox="0,0,1024,1024">
	<!-- Color names: teamapps-color-1 -->
	<desc>format_textdirection_l_to_r icon - Licensed under Apache License v2.0 (http://www.apache.org/licenses/LICENSE-2.0) - Created with Iconfu.com - Derivative work of Material icons (Copyright Google Inc.)</desc>
	<g fill="none" fill-rule="nonzero" style="mix-blend-mode: normal">
		<g color="#039be5" class="teamapps-color-1">
			<path d="M186.24,288.51c0,-118.23 95.79,-214.02 214.02,-214.02h297.98c35.91,0 65.02,29.11 65.02,65.02v74.5c0,35.91 -29.11,65.02 -65.02,65.02h-9.47v243.12c20.04,-2.95 40.69,3.6 55.45,18.35l148.99,148.99c25.39,25.39 25.39,66.56 0,91.96l-148.99,148.99c-18.6,18.6 -46.56,24.16 -70.86,14.1c-24.3,-10.06 -40.14,-33.77 -40.14,-60.07v-46.72h-381.95c-35.91,0 -65.02,-29.11 -65.02,-65.02v-74.5c0,-35.91 29.11,-65.02 65.02,-65.02h84.66c-0.45,-3.09 -0.69,-6.26 -0.69,-9.47v-131.27c-86.42,-27.52 -148.99,-108.39 -148.99,-203.96zM350.59,480.91v142.83c0,9.04 2.42,17.52 6.64,24.83h-105.97c-27.43,0 -49.66,22.24 -49.66,49.66v74.5c0,27.43 22.24,49.66 49.66,49.66h397.31v62.08c0,20.09 12.1,38.2 30.66,45.88c18.56,7.69 39.92,3.44 54.12,-10.77l148.99,-148.99c19.39,-19.39 19.39,-50.84 0,-70.24l-148.99,-148.99c-14.2,-14.2 -35.57,-18.45 -54.12,-10.77c-2.02,0.84 -3.96,1.8 -5.82,2.87v-279.8h24.83c27.43,0 49.66,-22.24 49.66,-49.66v-74.5c0,-27.43 -22.24,-49.66 -49.66,-49.66h-297.98c-109.74,0 -198.66,88.92 -198.66,198.66c0,92.59 63.28,170.35 148.99,192.4zM251.26,288.51c0,-82.32 66.68,-148.99 148.99,-148.99h297.98v74.5h-74.49v409.73h-74.49v-409.73h-74.5v409.73h-74.49v-186.24c-82.32,0 -148.99,-66.68 -148.99,-148.99zM698.24,884.48v-111.74h-446.98v-74.5h446.98v-111.74l148.99,148.99z" fill="currentColor"/>
		</g>
	</g>
</svg>