<svg version="1.1" xmlns="http://www.w3.org/2000/svg" xmlns:xlink="http://www.w3.org/1999/xlink" viewBox="0,0,1024,1024">
	<!-- Color names: teamapps-color-1 -->
	<desc>format_line_spacing icon - Licensed under Apache License v2.0 (http://www.apache.org/licenses/LICENSE-2.0) - Created with Iconfu.com - Derivative work of Material icons (Copyright Google Inc.)</desc>
	<g fill="none" fill-rule="nonzero" style="mix-blend-mode: normal">
		<g color="#039be5" class="teamapps-color-1">
			<path d="M353.54,633.21h28.1c9.86,0 19.37,2.23 27.92,6.3c8.48,-4.04 17.96,-6.3 27.95,-6.3h446.98c35.91,0 65.02,29.11 65.02,65.02v74.5c0,35.91 -29.11,65.02 -65.02,65.02h-446.98c-27.98,0 -51.82,-17.66 -60.99,-42.45l-79.27,79.27c-25.39,25.39 -66.57,25.39 -91.96,0l-130.37,-130.37c-18.6,-18.6 -24.16,-46.56 -14.09,-70.86c10.06,-24.3 33.77,-40.14 60.07,-40.14h28.1v-242.43h-28.1c-26.3,0 -50.01,-15.84 -60.07,-40.14c-10.06,-24.3 -4.5,-52.26 14.09,-70.86l130.37,-130.37c25.39,-25.39 66.57,-25.4 91.96,0l79.27,79.27c9.18,-24.78 33.02,-42.45 60.99,-42.45h446.98c35.91,0 65.02,29.11 65.02,65.02v74.5c0,35.91 -29.11,65.02 -65.02,65.02h-446.98c-9.98,0 -19.47,-2.26 -27.95,-6.3c-8.55,4.07 -18.06,6.3 -27.92,6.3h-28.1zM437.51,409.73h446.98c35.91,0 65.02,29.11 65.02,65.02v74.5c0,35.91 -29.11,65.02 -65.02,65.02h-446.98c-35.91,0 -65.02,-29.11 -65.02,-65.02v-74.5c0,-35.91 29.11,-65.02 65.02,-65.02zM338.18,375.43h43.46c10.19,0 19.86,-3.11 27.93,-8.6c7.96,5.43 17.58,8.6 27.94,8.6h446.98c27.43,0 49.66,-22.24 49.66,-49.66v-74.5c0,-27.43 -22.24,-49.66 -49.66,-49.66h-446.98c-27.43,0 -49.66,22.24 -49.66,49.66v10.47l-101.46,-101.46c-19.4,-19.4 -50.84,-19.39 -70.24,0l-130.37,130.37c-14.2,14.2 -18.45,35.57 -10.76,54.12c7.69,18.56 25.8,30.66 45.88,30.66h43.46v273.15h-43.46c-20.09,0 -38.2,12.1 -45.88,30.66c-7.69,18.56 -3.44,39.92 10.76,54.12l130.37,130.37c19.39,19.4 50.84,19.4 70.24,0l101.46,-101.46v10.47c0,27.43 22.24,49.66 49.66,49.66h446.98c27.43,0 49.66,-22.24 49.66,-49.66v-74.5c0,-27.43 -22.24,-49.66 -49.66,-49.66h-446.98c-10.36,0 -19.98,3.17 -27.94,8.6c-8.07,-5.49 -17.75,-8.6 -27.93,-8.6h-43.46zM387.84,474.75v74.5c0,27.43 22.24,49.66 49.66,49.66h446.98c27.43,0 49.66,-22.24 49.66,-49.66v-74.5c0,-27.43 -22.24,-49.66 -49.66,-49.66h-446.98c-27.43,0 -49.66,22.24 -49.66,49.66zM288.51,698.24h93.12l-130.37,130.37l-130.37,-130.37h93.12v-372.47h-93.12l130.37,-130.37l130.37,130.37h-93.12zM437.51,698.24h446.98v74.5h-446.98zM884.48,251.26v74.5h-446.98v-74.5zM437.51,474.75h446.98v74.5h-446.98z" fill="currentColor"/>
		</g>
	</g>
</svg>