<svg version="1.1" xmlns="http://www.w3.org/2000/svg" xmlns:xlink="http://www.w3.org/1999/xlink" viewBox="0,0,1024,1024">
	<!-- Color names: teamapps-color-1 -->
	<desc>format_indent_increase icon - Licensed under Apache License v2.0 (http://www.apache.org/licenses/LICENSE-2.0) - Created with Iconfu.com - Derivative work of Material icons (Copyright Google Inc.)</desc>
	<g fill="none" fill-rule="nonzero" style="mix-blend-mode: normal">
		<g color="#039be5" class="teamapps-color-1">
			<path d="M111.74,251.26v-74.49c0,-35.91 29.11,-65.02 65.02,-65.02h670.46c35.91,0 65.02,29.11 65.02,65.02v74.49c0,13.85 -4.34,26.7 -11.72,37.25c7.38,10.55 11.72,23.4 11.72,37.25v74.49c0,13.85 -4.34,26.7 -11.72,37.25c7.38,10.55 11.72,23.4 11.72,37.25v74.5c0,13.85 -4.34,26.7 -11.72,37.25c7.38,10.55 11.72,23.4 11.72,37.25v74.49c0,13.85 -4.34,26.7 -11.72,37.25c7.38,10.55 11.72,23.4 11.72,37.25v74.49c0,35.91 -29.11,65.02 -65.02,65.02h-670.46c-35.91,0 -65.02,-29.11 -65.02,-65.02v-74.49c0,-23.76 12.74,-44.53 31.75,-55.88c-19.49,-11.6 -31.75,-32.73 -31.75,-55.87v-297.99c0,-23.14 12.26,-44.27 31.75,-55.87c-19.01,-11.35 -31.75,-32.12 -31.75,-55.88zM409.73,698.24v-74.49c0,-13.85 4.34,-26.7 11.72,-37.25c-7.38,-10.55 -11.72,-23.4 -11.72,-37.25v-74.5c0,-13.85 4.34,-26.7 11.72,-37.25c-7.38,-10.55 -11.72,-23.4 -11.72,-37.25v-74.49c0,-3.22 0.23,-6.38 0.69,-9.48h-188.42l149.75,149.74c25.39,25.39 25.39,66.56 0,91.96l-149.75,149.74h188.42c-0.45,-3.1 -0.69,-6.26 -0.69,-9.48zM127.1,772.74v74.49c0,27.43 22.24,49.66 49.66,49.66h670.46c27.43,0 49.66,-22.24 49.66,-49.66v-74.49c0,-14.83 -6.5,-28.15 -16.82,-37.25c10.31,-9.1 16.82,-22.42 16.82,-37.25v-74.49c0,-14.83 -6.5,-28.15 -16.81,-37.25c10.31,-9.1 16.81,-22.41 16.81,-37.25v-74.5c0,-14.83 -6.5,-28.15 -16.81,-37.25c10.31,-9.1 16.81,-22.41 16.81,-37.25v-74.49c0,-14.83 -6.5,-28.15 -16.82,-37.25c10.31,-9.1 16.82,-22.42 16.82,-37.25v-74.49c0,-27.43 -22.24,-49.66 -49.66,-49.66h-670.46c-27.43,0 -49.66,22.24 -49.66,49.66v74.49c0,27.43 22.24,49.66 49.66,49.66h254.96c-4.23,7.31 -6.65,15.79 -6.65,24.84v74.49c0,14.83 6.5,28.15 16.81,37.25c-10.31,9.1 -16.81,22.41 -16.81,37.25v74.5c0,14.83 6.5,28.15 16.81,37.25c-10.31,9.1 -16.81,22.41 -16.81,37.25v74.49c0,9.05 2.42,17.53 6.65,24.84h-254.96c-27.43,0 -49.66,22.24 -49.66,49.66zM360.88,476.88l-148.99,-148.99c-14.2,-14.2 -35.57,-18.45 -54.12,-10.77c-18.56,7.69 -30.66,25.8 -30.66,45.88v297.99c0,20.09 12.1,38.2 30.66,45.88c18.56,7.69 39.92,3.44 54.12,-10.77l148.99,-148.99c19.39,-19.39 19.39,-50.84 0,-70.24zM176.77,772.74h670.46v74.49h-670.46zM847.23,176.77v74.49h-670.46v-74.49zM325.76,512l-148.99,148.99v-297.99zM474.75,325.76h372.48v74.49h-372.48zM474.75,474.75h372.48v74.5h-372.48zM474.75,623.74h372.48v74.49h-372.48z" fill="currentColor"/>
		</g>
	</g>
</svg>