<svg version="1.1" xmlns="http://www.w3.org/2000/svg" xmlns:xlink="http://www.w3.org/1999/xlink" viewBox="0,0,1024,1024">
	<!-- Color names: teamapps-color-1 -->
	<desc>forward icon - Licensed under Apache License v2.0 (http://www.apache.org/licenses/LICENSE-2.0) - Created with Iconfu.com - Derivative work of Material icons (Copyright Google Inc.)</desc>
	<g fill="none" fill-rule="nonzero" style="mix-blend-mode: normal">
		<g color="#039be5" class="teamapps-color-1">
			<path d="M446.98,214.02c0,-26.3 15.84,-50.01 40.14,-60.07c24.3,-10.06 52.27,-4.5 70.86,14.1l297.98,297.98c25.39,25.39 25.39,66.56 0,91.96l-297.98,297.98c-18.6,18.6 -46.56,24.16 -70.86,14.1c-24.3,-10.06 -40.14,-33.77 -40.14,-60.07v-83.96h-232.96c-35.91,0 -65.02,-29.11 -65.02,-65.02v-297.99c0,-35.91 29.11,-65.02 65.02,-65.02h232.96zM462.34,313.34h-248.32c-27.43,0 -49.66,22.24 -49.66,49.66v297.99c0,27.43 22.24,49.66 49.66,49.66h248.32v99.32c0,20.09 12.1,38.2 30.66,45.88c18.56,7.69 39.92,3.44 54.12,-10.77l297.98,-297.98c19.39,-19.39 19.39,-50.84 0,-70.24l-297.98,-297.98c-14.2,-14.2 -35.57,-18.45 -54.12,-10.77c-18.56,7.69 -30.66,25.8 -30.66,45.88zM512,363.01v-148.99l297.98,297.98l-297.98,297.98v-148.99h-297.98v-297.99z" fill="currentColor"/>
		</g>
	</g>
</svg>