<svg version="1.1" xmlns="http://www.w3.org/2000/svg" xmlns:xlink="http://www.w3.org/1999/xlink" viewBox="0,0,1024,1024">
	<!-- Color names: teamapps-color-1 -->
	<desc>forward_5 icon - Licensed under Apache License v2.0 (http://www.apache.org/licenses/LICENSE-2.0) - Created with Iconfu.com - Derivative work of Material icons (Copyright Google Inc.)</desc>
	<g fill="none" fill-rule="nonzero" style="mix-blend-mode: normal">
		<g color="#039be5" class="teamapps-color-1">
			<path d="M446.98,102.27c0,-26.3 15.84,-50.01 40.14,-60.07c24.3,-10.06 52.27,-4.5 70.86,14.1l186.24,186.24c25.39,25.39 25.39,66.56 0,91.96l-129.92,129.92c7.03,10.39 11.15,22.93 11.15,36.42v26.08c0,10.72 -2.6,20.86 -7.22,29.8c0.13,0.27 0.25,0.5 0.34,0.69c11.52,23.02 10.6,45.45 10.6,51.46c0,9.24 1.85,33.43 -15.5,56.3c-1.13,2.47 -2.72,5.67 -4.82,9.22c37.41,-29.09 61.62,-74.48 61.62,-125.12c0,-35.91 29.11,-65.02 65.02,-65.02h74.49c35.91,0 65.02,29.11 65.02,65.02c0,199.8 -163.21,363.01 -363.01,363.01c-199.8,0 -363.01,-163.21 -363.01,-363.01c0,-177.66 128.99,-326.3 297.98,-357.15zM391.1,616.3c0,-10.95 2.72,-21.3 7.52,-30.38c-0.14,-2.99 -0.08,-6.01 0.19,-9.03l7.46,-81.95c2.28,-25.06 18.57,-45.71 40.7,-54.53v-35.54c-54.97,25.01 -93.44,80.57 -93.44,144.38c0,43.64 17.98,83.39 46.91,112.16c-9.27,-19.74 -9.34,-34.77 -9.34,-45.12zM462.34,205.16c-167.98,24.27 -297.98,169.62 -297.98,344.09c0,191.32 156.33,347.65 347.65,347.65c191.32,0 347.65,-156.33 347.65,-347.65c0,-27.43 -22.24,-49.66 -49.66,-49.66h-74.49c-27.43,0 -49.66,22.24 -49.66,49.66c0,95.49 -78.33,173.82 -173.82,173.82c-95.49,0 -173.82,-78.33 -173.82,-173.82c0,-78.24 52.61,-145 124.16,-166.53v69.21c-21.68,3.84 -38.71,21.77 -40.77,44.4l-7.46,81.95c-0.34,3.75 -0.25,7.48 0.24,11.15c-4.99,7.75 -7.89,16.97 -7.89,26.88c0,9.97 0.06,22.94 8.89,40.68c0.7,1.66 8.06,24.55 33.44,37.26c5.77,2.89 11.3,4.74 14.94,5.83c17.31,11.83 34.89,10.6 44.53,10.6c6.3,0 25.2,0.71 44.54,-8.96c0.71,-0.31 16.7,-5.63 31.56,-20.49c8.87,-8.87 13.93,-19.12 16.02,-24.01c14.86,-18.52 13.42,-38.03 13.42,-48.35c0,-6.25 0.73,-25.2 -8.97,-44.58c-0.71,-1.42 -2.14,-4.45 -4.17,-8.25c5.93,-8.18 9.42,-18.24 9.42,-29.11v-26.08c0,-14.8 -6.47,-28.09 -16.74,-37.19l140.01,-140.01c19.39,-19.39 19.39,-50.84 0,-70.24l-186.24,-186.24c-14.2,-14.2 -35.57,-18.45 -54.12,-10.77c-18.56,7.69 -30.66,25.8 -30.66,45.88zM512,251.26v-148.99l186.24,186.24l-186.24,186.24v-148.99c-122.92,0 -223.49,100.57 -223.49,223.49c0,122.92 100.57,223.49 223.49,223.49c122.92,0 223.49,-100.57 223.49,-223.49h74.49c0,163.89 -134.09,297.98 -297.98,297.98c-163.89,0 -297.98,-134.09 -297.98,-297.98c0,-163.89 134.09,-297.99 297.98,-297.99zM463.57,582.77l7.46,-81.95h89.4v26.08h-63.33l-3.72,33.52c0,0 3.72,0 3.72,-3.73c0,-3.73 3.73,0 3.73,-3.73c0,-3.73 3.72,0 7.45,0h7.46c7.45,0 14.89,0 18.62,3.73c3.73,3.73 11.17,7.45 14.9,11.17c3.73,3.73 7.45,11.17 11.17,18.62c3.73,7.45 3.72,14.9 3.72,22.35c0,7.45 0.01,14.9 -3.72,18.63c-3.73,3.73 -3.73,11.17 -11.17,18.62c-7.45,7.45 -11.18,7.45 -18.63,11.17c-7.45,3.73 -14.9,3.73 -22.35,3.73c-7.45,0 -14.89,0 -18.62,-3.73c-3.73,-3.73 -11.17,-3.72 -18.62,-7.45c-7.45,-3.73 -7.45,-7.46 -11.17,-14.9c-3.73,-7.45 -3.73,-11.17 -3.73,-18.62h29.8c0,7.45 3.73,11.17 7.46,14.89c3.73,3.73 7.45,3.73 14.89,3.73c3.73,0 7.45,0 11.17,-3.73l7.46,-7.45c0,0 3.72,-7.45 3.72,-11.17v-22.35l-3.72,-7.45l-7.46,-7.46c0,0 -7.45,-3.72 -11.17,-3.72h-7.45c0,0 -3.72,-0.01 -7.45,3.72c-3.73,3.73 -3.73,0 -3.73,3.73c0,3.73 -3.73,3.73 -3.73,3.73z" fill="currentColor"/>
		</g>
	</g>
</svg>