<svg version="1.1" xmlns="http://www.w3.org/2000/svg" xmlns:xlink="http://www.w3.org/1999/xlink" viewBox="0,0,1024,1024">
	<!-- Color names: teamapps-color-1 -->
	<desc>gesture icon - Licensed under Apache License v2.0 (http://www.apache.org/licenses/LICENSE-2.0) - Created with Iconfu.com - Derivative work of Material icons (Copyright Google Inc.)</desc>
	<g fill="none" fill-rule="nonzero" style="mix-blend-mode: normal">
		<g color="#039be5" class="teamapps-color-1">
			<path d="M120.4,216.88c10.74,-13.18 24.61,-26.94 37.2,-39.54c11.22,-11.22 70.38,-65.6 147.29,-65.6c58,0 158.52,45.3 158.52,171.56c0,29.61 -5.1,54.45 -13.17,76.43c40.98,-29.36 94.19,-55.04 154.88,-55.04c124.97,0 181.18,86.25 203.02,156.44h39.09c35.91,0 65.02,29.11 65.02,65.02v93.12c0,35.91 -29.11,65.02 -65.02,65.02h-35.33c-33.64,162.18 -141.76,227.22 -230.99,227.22c-98.18,0 -182.41,-76.55 -184.55,-176.23c-14.59,9.92 -30.44,18.03 -47.72,23.08c-52.87,15.77 -111.03,5.91 -155.64,-27.39c-51.63,-38.47 -76.04,-99.21 -76.04,-163.11c0,-67.82 39.81,-147.5 71.95,-201.44l-63.54,-61.96c-24.07,-23.52 -26.22,-61.51 -4.96,-87.59zM136.1,293.49l65.19,63.69c2.35,2.3 4.87,4.31 7.52,6.05c-33.18,53.91 -76.49,136.83 -76.49,204.64c0,60.08 22.88,115.79 69.87,150.8c40.66,30.36 93.79,39.38 142.1,24.97c26.14,-7.63 49.27,-23.3 70.17,-42.39c-1.86,10.48 -2.78,20.6 -2.78,30.14c0,92.5 77.66,164.76 169.23,164.76c83.26,0 188.93,-62.24 218.31,-227.22h48.02c27.43,0 49.66,-22.24 49.66,-49.66v-93.12c0,-27.43 -22.24,-49.66 -49.66,-49.66h-50.64c-18.36,-68.77 -69.72,-156.44 -191.47,-156.44c-101.73,0 -182.83,77.92 -216.44,116.86c0.8,-1.2 1.56,-2.34 2.28,-3.4c29.04,-42.44 57.1,-82.8 57.1,-150.21c0,-115.38 -91.03,-156.2 -143.16,-156.2c-70.36,0 -125.66,50.34 -136.43,61.1c-12.78,12.78 -26.01,25.93 -36.16,38.38c-16.24,19.92 -14.59,48.94 3.79,66.9zM170.81,257.97c8.2,-10.06 19.37,-21.23 32.78,-34.64c9.31,-9.31 52.14,-46.56 101.31,-46.56c32.41,0 93.5,25.7 93.5,106.53c0,50.66 -19.37,79.7 -48.43,122.17c-16.76,24.58 -55.87,90.51 -68.91,131.12c-13.41,40.6 -3.35,71.52 13.41,71.52c16.02,0 32.03,-20.11 41.35,-31.29c8.56,-8.94 63.69,-74.12 85.29,-101.31c28.31,-34.64 100.2,-105.79 184.01,-105.79c109.51,0 144.52,94.98 150.1,156.44h92.01v93.12h-91.63c-14.9,177.67 -113.98,227.22 -174.7,227.22c-65.93,0 -119.57,-51.78 -119.57,-115.1c0,-63.32 59.6,-176.18 200.4,-200.02c-4.09,-29.05 -4.84,-66.68 -65.55,-66.68c-46.56,0 -106.9,72.64 -151.97,128.14c-41.35,51.03 -74.13,91.62 -113.98,103.17c-33.52,10.06 -70.4,3.73 -98.33,-17.13c-32.03,-23.84 -49.92,-63.33 -49.92,-111c0,-90.14 97.22,-219.39 106.53,-235.04c11.17,-18.25 29.8,-49.17 11.17,-56.61c-11.55,-4.85 -37.62,19 -63.69,45.44zM661.36,626.35c-79.71,20.86 -106.9,80.46 -106.9,102.8c0,17.14 16.01,26.82 27.56,26.82c26.08,0 68.16,-29.43 79.34,-129.62z" fill="currentColor"/>
		</g>
	</g>
</svg>