<svg version="1.1" xmlns="http://www.w3.org/2000/svg" xmlns:xlink="http://www.w3.org/1999/xlink" viewBox="0,0,1024,1024">
	<!-- Color names: teamapps-color-1 -->
	<desc>gif icon - Licensed under Apache License v2.0 (http://www.apache.org/licenses/LICENSE-2.0) - Created with Iconfu.com - Derivative work of Material icons (Copyright Google Inc.)</desc>
	<g fill="none" fill-rule="nonzero" style="mix-blend-mode: normal">
		<g color="#039be5" class="teamapps-color-1">
			<path d="M400.26,688.77h-111.74c-62.76,0 -102.27,-52.42 -102.27,-102.27v-148.99c0,-49.86 39.51,-102.27 102.27,-102.27h111.74c19.84,0 37.57,5.33 52.46,14.28c11.13,-8.93 25.28,-14.28 40.66,-14.28h55.87c9.98,0 19.46,2.26 27.94,6.29c8.47,-4.04 17.96,-6.29 27.94,-6.29h167.62c35.91,0 65.02,29.11 65.02,65.02v55.87c0,25.99 -15.24,48.4 -37.25,58.81v34.32c0,35.91 -29.11,65.02 -65.02,65.02h-9.47v9.47c0,35.91 -29.11,65.02 -65.02,65.02h-55.87c-9.98,0 -19.46,-2.26 -27.94,-6.29c-8.47,4.04 -17.96,6.29 -27.94,6.29h-55.87c-15.39,0 -29.54,-5.36 -40.66,-14.28c-14.89,8.96 -32.62,14.28 -52.46,14.28zM454.43,654.57c9.1,11.48 23.16,18.84 38.94,18.84h55.87c10.36,0 19.98,-3.17 27.94,-8.6c7.96,5.42 17.58,8.6 27.94,8.6h55.87c27.43,0 49.66,-22.24 49.66,-49.66v-24.83h24.83c27.43,0 49.66,-22.24 49.66,-49.66v-45.02c21.42,-5.51 37.25,-24.96 37.25,-48.1v-55.87c0,-27.43 -22.24,-49.66 -49.66,-49.66h-167.62c-10.36,0 -19.98,3.17 -27.94,8.6c-7.96,-5.42 -17.58,-8.6 -27.94,-8.6h-55.87c-15.78,0 -29.85,7.36 -38.94,18.84c-14.23,-11.53 -32.62,-18.84 -54.18,-18.84h-111.74c-53.09,0 -86.91,44.3 -86.91,86.91v148.99c0,42.62 33.83,86.91 86.91,86.91h111.74c21.56,0 39.95,-7.31 54.18,-18.84zM437.51,437.51v18.62h-130.37v111.74h74.5v-55.87h55.87v74.49c0,18.62 -14.9,37.25 -37.25,37.25h-111.74c-22.35,0 -37.25,-18.63 -37.25,-37.25v-148.99c0,-18.62 14.9,-37.25 37.25,-37.25h111.74c22.35,0 37.25,18.63 37.25,37.25zM660.99,456.13v37.25h74.49v55.87h-74.49v74.49h-55.87v-223.49h167.62v55.87zM493.38,400.26h55.87v223.49h-55.87z" fill="currentColor"/>
		</g>
	</g>
</svg>