<svg version="1.1" xmlns="http://www.w3.org/2000/svg" xmlns:xlink="http://www.w3.org/1999/xlink" viewBox="0,0,1024,1024">
	<!-- Color names: teamapps-color-1 -->
	<desc>golf_course icon - Licensed under Apache License v2.0 (http://www.apache.org/licenses/LICENSE-2.0) - Created with Iconfu.com - Derivative work of Material icons (Copyright Google Inc.)</desc>
	<g fill="none" fill-rule="nonzero" style="mix-blend-mode: normal">
		<g color="#039be5" class="teamapps-color-1">
			<path d="M539.77,439.34v238.68c49.57,7.55 108.36,22.82 146.42,53.68c20.78,-36.55 60.08,-61.24 105.17,-61.24c66.77,0 120.9,54.12 120.9,120.9c0,66.77 -54.12,120.9 -120.9,120.9c-35.34,0 -67.14,-15.17 -89.23,-39.32c-54.38,62.75 -188.45,76.57 -264.62,76.57c-91.32,0 -288.51,-20.72 -288.51,-139.53c0,-90.04 115.99,-118.81 164.29,-128.25c7.32,-1.43 14.74,-1.58 21.94,-0.52v-541.7c0,-22.44 11.57,-43.3 30.62,-55.18c19.04,-11.88 42.87,-13.09 63.02,-3.22l297.98,146.02c22.12,10.84 36.21,33.24 36.41,57.87c0.2,24.63 -13.54,47.26 -35.48,58.45zM720.8,329.78c16.76,-8.55 27.25,-25.83 27.1,-44.64c-0.15,-18.81 -10.92,-35.92 -27.81,-44.2l-297.98,-146.02c-15.39,-7.54 -33.59,-6.61 -48.13,2.46c-14.55,9.07 -23.39,25 -23.39,42.14v563.02c-10.31,-5.95 -22.5,-8.05 -34.36,-5.73c-52.68,10.3 -151.88,37.91 -151.88,113.18c0,100.4 174.21,124.17 273.15,124.17c85.47,0 227.08,-17.73 264.08,-87.27c18.61,30.02 51.85,50.02 89.77,50.02c58.29,0 105.54,-47.25 105.54,-105.54c0,-58.29 -47.25,-105.54 -105.54,-105.54c-46.6,0 -86.14,30.2 -100.13,72.09c-34.12,-40.34 -106.88,-58.76 -166.82,-66.55v-261.43zM735.49,791.36c0,-30.86 25.01,-55.87 55.87,-55.87c30.86,0 55.87,25.01 55.87,55.87c0,30.86 -25.01,55.87 -55.87,55.87c-30.86,0 -55.87,-25.01 -55.87,-55.87zM474.75,399.51v337.09c105.78,5.96 186.25,36.5 186.25,73.38c0,40.97 -100.19,74.5 -223.49,74.5c-123.29,0 -223.49,-33.53 -223.49,-74.5c0,-27.56 45.07,-51.4 111.74,-64.44v64.44h74.49v-670.46l297.98,146.02z" fill="currentColor"/>
		</g>
	</g>
</svg>