<svg version="1.1" xmlns="http://www.w3.org/2000/svg" xmlns:xlink="http://www.w3.org/1999/xlink" viewBox="0,0,1024,1024">
	<!-- Color names: teamapps-color-1 -->
	<desc>gps_off icon - Licensed under Apache License v2.0 (http://www.apache.org/licenses/LICENSE-2.0) - Created with Iconfu.com - Derivative work of Material icons (Copyright Google Inc.)</desc>
	<g fill="none" fill-rule="nonzero" style="mix-blend-mode: normal">
		<g color="#039be5" class="teamapps-color-1">
			<path d="M270.05,130.79l39.71,39.71c4.86,-5.15 10.6,-9.54 17.03,-12.92c26.07,-13.71 53.79,-24.73 82.93,-32.48v-22.83c0,-35.91 29.11,-65.02 65.02,-65.02h74.5c35.91,0 65.02,29.11 65.02,65.02v22.85c138.83,36.57 248.03,145.77 284.6,284.6h22.85c35.91,0 65.02,29.11 65.02,65.02v74.5c0,35.91 -29.11,65.02 -65.02,65.02h-22.73c-7.76,28.96 -18.64,56.51 -32.09,82.34c-3.48,6.68 -8.04,12.61 -13.42,17.61l39.72,39.72c25.39,25.39 25.39,66.56 0,91.96l-47.31,47.31c-25.39,25.39 -66.56,25.39 -91.96,0l-37.51,-37.51c-31.5,18.79 -65.8,33.4 -102.16,43.06v22.97c0,35.91 -29.11,65.02 -65.02,65.02h-74.5c-35.91,0 -65.02,-29.11 -65.02,-65.02v-22.85c-138.83,-36.57 -248.03,-145.77 -284.6,-284.6h-22.85c-35.91,0 -65.02,-29.11 -65.02,-65.02v-74.5c0,-35.91 29.11,-65.02 65.02,-65.02h22.81c9.64,-36.46 24.36,-70.76 43.18,-102.2l-37.47,-37.47c-25.39,-25.39 -25.39,-66.56 0,-91.96l47.31,-47.31c25.39,-25.39 66.56,-25.39 91.96,0zM188.96,141.65l-47.31,47.31c-19.39,19.4 -19.39,50.84 0,70.24l46.08,46.08c-23.17,36.16 -40.62,76.52 -50.62,119.82h-34.83c-27.43,0 -49.66,22.24 -49.66,49.66v74.5c0,27.43 22.24,49.66 49.66,49.66h34.87c32.93,142.74 145.19,255 287.94,287.94v34.87c0,27.43 22.24,49.66 49.66,49.66h74.5c27.43,0 49.66,-22.24 49.66,-49.66v-34.97c43.2,-10.06 83.56,-27.35 119.79,-50.51l46.1,46.1c19.39,19.39 50.84,19.39 70.24,0l47.31,-47.31c19.39,-19.39 19.39,-50.84 0,-70.24l-52.87,-52.87c10.12,-4.52 18.57,-12.36 23.81,-22.41c14.7,-28.23 26.2,-58.58 33.74,-90.61h34.7c27.43,0 49.66,-22.24 49.66,-49.66v-74.5c0,-27.43 -22.24,-49.66 -49.66,-49.66h-34.87c-32.93,-142.74 -145.19,-255 -287.94,-287.94v-34.87c0,-27.43 -22.24,-49.66 -49.66,-49.66h-74.5c-27.43,0 -49.66,22.24 -49.66,49.66v34.83c-32.17,7.47 -62.65,19.09 -91.14,34.07c-9.81,5.16 -17.49,13.37 -22.01,23.21l-52.74,-52.74c-19.4,-19.39 -50.84,-19.39 -70.24,0zM224.08,176.77l623.16,623.16l-47.31,47.31l-75.99,-75.99c-48.79,39.85 -108.76,66.3 -174.69,73.75v76.73h-74.5v-76.73c-155.32,-17.14 -278.61,-140.42 -295.75,-295.75h-76.73v-74.5h76.73c7.08,-65.93 33.9,-125.9 73.75,-174.69l-75.99,-75.99zM921.73,474.75v74.5h-76.35c-4.85,42.09 -17.51,81.57 -36.13,117.33l-55.87,-55.87c12.29,-30.17 19.37,-63.69 19.37,-98.71c0,-144.15 -116.59,-260.74 -260.74,-260.74c-35.02,0 -68.53,7.08 -99.08,19.75l-55.87,-55.87c36.13,-19 75.61,-31.66 117.7,-36.13v-76.73h74.5v76.73c155.32,17.14 278.61,140.42 295.75,295.75zM305.65,352.95c-33.9,43.96 -54.39,99.09 -54.39,159.05c0,144.15 116.59,260.74 260.74,260.74c59.97,0 115.1,-20.49 159.05,-54.39z" fill="currentColor"/>
		</g>
	</g>
</svg>