<svg version="1.1" xmlns="http://www.w3.org/2000/svg" xmlns:xlink="http://www.w3.org/1999/xlink" viewBox="0,0,1024,1024">
	<!-- Color names: teamapps-color-1 -->
	<desc>graphic_eq icon - Licensed under Apache License v2.0 (http://www.apache.org/licenses/LICENSE-2.0) - Created with Iconfu.com - Derivative work of Material icons (Copyright Google Inc.)</desc>
	<g fill="none" fill-rule="nonzero" style="mix-blend-mode: normal">
		<g color="#039be5" class="teamapps-color-1">
			<path d="M474.75,74.49h74.5c35.91,0 65.02,29.11 65.02,65.02v84.66c3.09,-0.45 6.26,-0.69 9.47,-0.69h74.49c35.91,0 65.02,29.11 65.02,65.02v84.66c3.1,-0.45 6.26,-0.69 9.48,-0.69h74.49c35.91,0 65.02,29.11 65.02,65.02v148.99c0,35.91 -29.11,65.02 -65.02,65.02h-74.49c-3.22,0 -6.38,-0.23 -9.48,-0.69v84.66c0,35.91 -29.11,65.02 -65.02,65.02h-74.49c-3.21,0 -6.37,-0.23 -9.47,-0.69v84.66c0,35.91 -29.11,65.02 -65.02,65.02h-74.5c-35.91,0 -65.02,-29.11 -65.02,-65.02v-84.66c-3.09,0.45 -6.26,0.69 -9.47,0.69h-74.49c-35.91,0 -65.02,-29.11 -65.02,-65.02v-84.66c-3.1,0.45 -6.26,0.69 -9.48,0.69h-74.49c-35.91,0 -65.02,-29.11 -65.02,-65.02v-148.99c0,-35.91 29.11,-65.02 65.02,-65.02h74.49c3.22,0 6.38,0.23 9.48,0.69v-84.66c0,-35.91 29.11,-65.02 65.02,-65.02h74.49c3.21,0 6.37,0.23 9.47,0.69v-84.66c0,-35.91 29.11,-65.02 65.02,-65.02zM425.09,139.52v105.97c-7.3,-4.22 -15.78,-6.64 -24.83,-6.64h-74.49c-27.43,0 -49.66,22.24 -49.66,49.66v105.98c-7.31,-4.23 -15.79,-6.65 -24.84,-6.65h-74.49c-27.43,0 -49.66,22.24 -49.66,49.66v148.99c0,27.43 22.24,49.66 49.66,49.66h74.49c9.05,0 17.53,-2.42 24.84,-6.65v105.98c0,27.43 22.24,49.66 49.66,49.66h74.49c9.04,0 17.52,-2.42 24.83,-6.64v105.97c0,27.43 22.24,49.66 49.66,49.66h74.5c27.43,0 49.66,-22.24 49.66,-49.66v-105.97c7.3,4.22 15.78,6.64 24.83,6.64h74.49c27.43,0 49.66,-22.24 49.66,-49.66v-105.98c7.31,4.23 15.79,6.65 24.84,6.65h74.49c27.43,0 49.66,-22.24 49.66,-49.66v-148.99c0,-27.43 -22.24,-49.66 -49.66,-49.66h-74.49c-9.05,0 -17.53,2.42 -24.84,6.65v-105.98c0,-27.43 -22.24,-49.66 -49.66,-49.66h-74.49c-9.04,0 -17.52,2.42 -24.83,6.64v-105.97c0,-27.43 -22.24,-49.66 -49.66,-49.66h-74.5c-27.43,0 -49.66,22.24 -49.66,49.66zM474.75,139.52h74.5v744.97h-74.5zM325.76,288.51h74.49v446.98h-74.49zM623.74,288.51h74.49v446.98h-74.49zM847.23,437.51v148.99h-74.49v-148.99zM176.77,437.51h74.49v148.99h-74.49z" fill="currentColor"/>
		</g>
	</g>
</svg>