<svg version="1.1" xmlns="http://www.w3.org/2000/svg" xmlns:xlink="http://www.w3.org/1999/xlink" viewBox="0,0,1024,1024">
	<!-- Color names: teamapps-color-1 -->
	<desc>group_add icon - Licensed under Apache License v2.0 (http://www.apache.org/licenses/LICENSE-2.0) - Created with Iconfu.com - Derivative work of Material icons (Copyright Google Inc.)</desc>
	<g fill="none" fill-rule="nonzero" style="mix-blend-mode: normal">
		<g color="#039be5" class="teamapps-color-1">
			<path d="M251.26,688.77h-74.49c-35.91,0 -65.02,-29.11 -65.02,-65.02v-46.72h-46.72c-35.91,0 -65.02,-29.11 -65.02,-65.02v-74.49c0,-35.91 29.11,-65.02 65.02,-65.02h46.72v-46.72c0,-35.91 29.11,-65.02 65.02,-65.02h74.49c35.91,0 65.02,29.11 65.02,65.02v46.72h46.72c3.32,0 6.58,0.25 9.77,0.73c-0.19,-3.38 -0.29,-6.78 -0.29,-10.21c0,-97.75 79.02,-176.77 176.77,-176.77c37.35,0 71.9,11.53 100.33,31.22c7.98,-10.64 19.14,-18.71 32.12,-22.88c16.92,-5.44 35.19,-8.34 53.79,-8.34c98.04,0 176.39,79.32 176.39,176.77c0,55.14 -25.09,104.47 -64.62,136.91c69.31,18.11 176.74,62.22 176.74,161.08v74.49c0,35.91 -29.11,65.02 -65.02,65.02h-111.74c-13.85,0 -26.7,-4.34 -37.25,-11.72c-10.55,7.38 -23.4,11.72 -37.25,11.72h-446.98c-35.91,0 -65.02,-29.11 -65.02,-65.02v-47.41c-3.1,0.45 -6.26,0.69 -9.48,0.69zM276.1,666.76v68.73c0,27.43 22.24,49.66 49.66,49.66h446.98c14.83,0 28.15,-6.5 37.25,-16.81c9.1,10.31 22.41,16.81 37.25,16.81h111.74c27.43,0 49.66,-22.24 49.66,-49.66v-74.49c0,-103.13 -136.12,-142.21 -200.15,-153.98c52.41,-26.66 88.03,-81.19 88.03,-144.01c0,-89.04 -71.55,-161.41 -161.03,-161.41c-17.02,0 -33.7,2.66 -49.09,7.6c-15.03,4.83 -26.87,16.52 -31.89,31.49c-28.15,-24.35 -64.88,-39.09 -105.25,-39.09c-89.26,0 -161.41,72.14 -161.41,161.41c0,11.57 1.21,22.85 3.52,33.72c-8.04,-5.6 -17.81,-8.88 -28.35,-8.88h-62.08v-62.08c0,-27.43 -22.24,-49.66 -49.66,-49.66h-74.49c-27.43,0 -49.66,22.24 -49.66,49.66v62.08h-62.08c-27.43,0 -49.66,22.24 -49.66,49.66v74.49c0,27.43 22.24,49.66 49.66,49.66h62.08v62.08c0,27.43 22.24,49.66 49.66,49.66h74.49c9.05,0 17.53,-2.42 24.84,-6.65zM363.01,512h-111.74v111.74h-74.49v-111.74h-111.74v-74.49h111.74v-111.74h74.49v111.74h111.74zM772.74,660.99v74.49h-446.98v-74.49c0,-74.49 148.99,-111.74 223.49,-111.74c74.49,0 223.49,37.25 223.49,111.74zM437.51,363.01c0,-61.83 49.91,-111.74 111.74,-111.74c61.83,0 111.37,49.91 111.37,111.74c0,61.83 -49.53,111.74 -111.37,111.74c-61.83,0 -111.74,-49.91 -111.74,-111.74zM701.59,469.54c20.86,-30.55 33.52,-66.68 33.52,-106.53c0,-39.85 -12.29,-76.35 -33.52,-106.52c10.43,-3.35 21.98,-5.22 33.9,-5.22c61.83,0 111.37,49.91 111.37,111.74c0,61.83 -49.53,111.74 -111.37,111.74c-11.92,0 -23.47,-1.86 -33.9,-5.21zM958.98,660.99v74.49h-111.74v-74.49c0,-43.96 -20.49,-78.6 -51.4,-105.79c74.87,13.03 163.15,48.43 163.15,105.79z" fill="currentColor"/>
		</g>
	</g>
</svg>