<svg version="1.1" xmlns="http://www.w3.org/2000/svg" xmlns:xlink="http://www.w3.org/1999/xlink" viewBox="0,0,1024,1024">
	<!-- Color names: teamapps-color-1 -->
	<desc>hdr_off icon - Licensed under Apache License v2.0 (http://www.apache.org/licenses/LICENSE-2.0) - Created with Iconfu.com - Derivative work of Material icons (Copyright Google Inc.)</desc>
	<g fill="none" fill-rule="nonzero" style="mix-blend-mode: normal">
		<g color="#039be5" class="teamapps-color-1">
			<path d="M915.56,911.83l-40.97,40.98c-25.39,25.4 -66.57,25.4 -91.96,0l-264.04,-264.04h-99.71c-9.98,0 -19.46,-2.26 -27.94,-6.29c-8.47,4.04 -17.96,6.29 -27.94,6.29h-55.87c-13.85,0 -26.7,-4.34 -37.25,-11.72c-10.55,7.38 -23.4,11.72 -37.25,11.72h-55.87c-35.91,0 -65.02,-29.11 -65.02,-65.02v-223.49c0,-32.23 23.44,-58.98 54.21,-64.13l-94.76,-94.76c-26.25,-26.25 -25.23,-69.13 2.25,-94.1l40.98,-37.24c25.68,-23.34 65.17,-22.4 89.71,2.14l235.76,235.76c10.95,-8.07 24.39,-12.69 38.59,-12.69h70.77c23.89,0 46.33,7.3 65.19,19.63c11.8,-12.1 28.29,-19.63 46.56,-19.63h130.37c65.71,0 120.9,55.19 120.9,120.9v37.25c0,24.46 -7.8,48.3 -20.96,68.12l15.7,36.63c8.61,20.09 6.55,43.16 -5.48,61.41c-12.03,18.25 -32.43,29.23 -54.28,29.23h-55.87c-2.89,0 -5.75,-0.19 -8.57,-0.57l132.58,131.48c25.57,25.36 25.66,66.67 0.2,92.14zM904.55,830.59l-164.35,-162.99c5.28,-2.81 9.99,-6.55 13.91,-11c9.28,10.51 22.76,16.81 37.25,16.81h55.87c16.69,0 32.27,-8.39 41.46,-22.32c9.19,-13.94 10.76,-31.56 4.19,-46.9l-19.11,-44.58c14.45,-18.66 23.12,-42.23 23.12,-66.22v-37.25c0,-57.22 -48.31,-105.54 -105.54,-105.54h-130.37c-18.75,0 -35.08,10.39 -43.53,25.73c-18.55,-15.96 -42.48,-25.73 -68.22,-25.73h-70.77c-15.39,0 -29.61,7.1 -38.88,18.76l-246.33,-246.33c-18.74,-18.74 -48.9,-19.46 -68.52,-1.64l-40.98,37.24c-20.99,19.07 -21.77,51.82 -1.72,71.87l120.09,120.09h-25.37c-27.43,0 -49.66,22.24 -49.66,49.66v223.49c0,27.43 22.24,49.66 49.66,49.66h55.87c14.83,0 28.15,-6.5 37.25,-16.81c9.1,10.31 22.41,16.81 37.25,16.81h55.87c10.36,0 19.98,-3.17 27.94,-8.6c7.96,5.42 17.58,8.6 27.94,8.6h106.07l268.54,268.54c19.4,19.4 50.84,19.39 70.24,0l40.97,-40.98c19.45,-19.45 19.38,-51.01 -0.15,-70.38zM869.58,865.85l-40.97,40.98l-283.09,-283.09h-126.65v-126.65l-55.87,-55.87v182.52h-55.87v-93.12h-74.49v93.12h-55.87v-223.49h55.87v74.49h74.49v-74.49h14.9l-204.87,-204.87l40.98,-37.24l260.73,260.73zM701.96,623.74l-40.97,-40.97v-182.52h130.37c29.8,0 55.87,26.08 55.87,55.87v37.25c0,22.35 -14.9,44.7 -33.52,52.14l33.52,78.22h-55.87l-33.52,-74.49h-40.97v74.49zM534.35,456.13l-55.87,-55.87h70.77c29.8,0 55.87,26.08 55.87,55.87v70.77l-55.87,-55.87v-14.9zM716.87,493.38h74.49v-37.25h-74.49z" fill="currentColor"/>
		</g>
	</g>
</svg>