<svg version="1.1" xmlns="http://www.w3.org/2000/svg" xmlns:xlink="http://www.w3.org/1999/xlink" viewBox="0,0,1024,1024">
	<!-- Color names: teamapps-color-1 -->
	<desc>hdr_strong icon - Licensed under Apache License v2.0 (http://www.apache.org/licenses/LICENSE-2.0) - Created with Iconfu.com - Derivative work of Material icons (Copyright Google Inc.)</desc>
	<g fill="none" fill-rule="nonzero" style="mix-blend-mode: normal">
		<g color="#039be5" class="teamapps-color-1">
			<path d="M986.75,512c0,159.21 -129.31,288.51 -288.51,288.51c-119.02,0 -221.29,-72.26 -265.36,-175.21c-37.8,60.47 -104.98,100.72 -181.61,100.72c-118.23,0 -214.01,-95.8 -214.01,-214.02c0,-118.22 95.78,-214.02 214.01,-214.02c76.63,0 143.82,40.25 181.61,100.72c44.07,-102.95 146.34,-175.21 265.36,-175.21c159.21,0 288.51,129.31 288.51,288.51zM698.24,238.85c-124.85,0 -230.29,84.01 -262.81,198.51c-29.5,-72.74 -100.83,-124.02 -184.17,-124.02c-109.75,0 -198.65,88.92 -198.65,198.66c0,109.74 88.9,198.66 198.65,198.66c83.34,0 154.67,-51.28 184.17,-124.02c32.52,114.51 137.96,198.51 262.81,198.51c150.72,0 273.15,-122.43 273.15,-273.15c0,-150.72 -122.43,-273.15 -273.15,-273.15zM921.73,512c0,123.29 -100.19,223.49 -223.49,223.49c-123.29,0 -223.49,-100.19 -223.49,-223.49c0,-123.29 100.19,-223.49 223.49,-223.49c123.29,0 223.49,100.19 223.49,223.49zM400.26,512c0,82.32 -66.68,148.99 -148.99,148.99c-82.32,0 -148.99,-66.68 -148.99,-148.99c0,-82.32 66.67,-148.99 148.99,-148.99c82.32,0 148.99,66.68 148.99,148.99zM325.76,512c0,-40.97 -33.53,-74.49 -74.5,-74.49c-40.97,0 -74.49,33.52 -74.49,74.49c0,40.97 33.52,74.49 74.49,74.49c40.97,0 74.5,-33.52 74.5,-74.49z" fill="currentColor"/>
		</g>
	</g>
</svg>