<svg version="1.1" xmlns="http://www.w3.org/2000/svg" xmlns:xlink="http://www.w3.org/1999/xlink" viewBox="0,0,1024,1024">
	<!-- Color names: teamapps-color-1 -->
	<desc>highlight_off icon - Licensed under Apache License v2.0 (http://www.apache.org/licenses/LICENSE-2.0) - Created with Iconfu.com - Derivative work of Material icons (Copyright Google Inc.)</desc>
	<g fill="none" fill-rule="nonzero" style="mix-blend-mode: normal">
		<g color="#039be5" class="teamapps-color-1">
			<path d="M949.51,512c0,241.9 -195.61,437.51 -437.51,437.51c-241.9,0 -437.51,-195.61 -437.51,-437.51c0,-241.9 195.61,-437.51 437.51,-437.51c241.9,0 437.51,195.61 437.51,437.51zM512,89.85c-233.41,0 -422.15,188.73 -422.15,422.15c0,233.41 188.73,422.15 422.15,422.15c233.41,0 422.15,-188.73 422.15,-422.15c0,-233.41 -188.73,-422.15 -422.15,-422.15zM884.48,512c0,205.98 -166.5,372.48 -372.48,372.48c-205.98,0 -372.48,-166.5 -372.48,-372.48c0,-205.98 166.5,-372.48 372.48,-372.48c205.98,0 372.48,166.5 372.48,372.48zM809.98,512c0,-164.26 -133.72,-297.98 -297.98,-297.98c-164.26,0 -297.98,133.72 -297.98,297.98c0,164.26 133.72,297.98 297.98,297.98c164.26,0 297.98,-133.72 297.98,-297.98zM660.99,415.52l-96.48,96.48l96.48,96.48l-52.52,52.52l-96.48,-96.48l-96.48,96.48l-52.52,-52.52l96.48,-96.48l-96.48,-96.48l52.52,-52.52l96.48,96.48l96.48,-96.48z" fill="currentColor"/>
		</g>
	</g>
</svg>