<svg version="1.1" xmlns="http://www.w3.org/2000/svg" xmlns:xlink="http://www.w3.org/1999/xlink" viewBox="0,0,1024,1024">
	<!-- Color names: teamapps-color-1 -->
	<desc>hot_tub icon - Licensed under Apache License v2.0 (http://www.apache.org/licenses/LICENSE-2.0) - Created with Iconfu.com - Derivative work of Material icons (Copyright Google Inc.)</desc>
	<g fill="none" fill-rule="nonzero" style="mix-blend-mode: normal">
		<g color="#039be5" class="teamapps-color-1">
			<path d="M949.51,512v297.98c0,76.88 -62.64,139.53 -139.53,139.53h-595.96c-76.88,0 -139.53,-62.64 -139.53,-139.53v-297.98c0,-35.91 29.11,-65.02 65.02,-65.02h51.4c6.07,-23.6 17.79,-44.93 33.6,-62.47c-23.7,-24.99 -38.27,-58.8 -38.27,-95.99c0,-77.07 62.48,-139.52 139.53,-139.52c52.05,0 97.44,28.5 121.42,70.75c-0.22,-11.95 0.54,-24.03 2.3,-36.16l2.2,-15.8c4.48,-32.13 31.96,-56.04 64.4,-56.04h70.4c14.31,0 28.09,4.72 39.3,13.22c10.97,-8.32 24.63,-13.22 39.3,-13.22h70.4c18.96,0 36.97,8.27 49.32,22.65c12.35,14.38 17.81,33.44 14.96,52.18l-3.66,23.77c-0.03,0.18 -0.06,0.35 -0.09,0.53c-1.36,7.19 0.21,15.91 8.25,25.04l1.14,1.14c52.02,50.75 78.08,121.32 67.06,193.85l-2.24,16.08h14.27c35.91,0 65.02,29.11 65.02,65.02zM436.03,374l9.83,9.82l52.53,58.15c1.4,1.58 3.02,3.27 4.83,5h18.19c-1.03,-7.02 -0.92,-14.24 0.41,-21.38l4.1,-22.01c1.32,-6.95 -0.08,-15.33 -7.09,-23.91l-2.08,-1.9c-22.65,-22.2 -40.26,-48.02 -52.1,-76.02c-2.55,27.07 -12.85,51.91 -28.63,72.25zM884.48,462.34h-35.58c3.12,-5.4 5.26,-11.46 6.17,-17.97l2.19,-15.69c10.27,-67.36 -13.86,-133.15 -62.66,-180.71l-1.52,-1.53c-11.19,-12.5 -14.49,-26.09 -12.15,-38.43c0.09,-0.49 0.18,-0.98 0.25,-1.48l3.4,-22.27c2.18,-14.31 -1.99,-28.87 -11.42,-39.85c-9.43,-10.98 -23.19,-17.3 -37.67,-17.3h-70.4c-15.86,0 -30.16,7.48 -39.3,19.29c-0.52,-0.68 -1.06,-1.34 -1.62,-1.99c-9.43,-10.98 -23.19,-17.3 -37.67,-17.3h-70.4c-24.78,0 -45.76,18.26 -49.19,42.8l-2.21,15.85c-9.8,67.12 13.77,132.96 62.82,181.06l2.44,2.22c10.34,12.16 13.34,25.41 11.07,37.37l-4.1,22.01c-2.18,11.73 -0.06,23.75 5.81,33.92h-45.43c-4,-3.44 -7.46,-6.84 -10.37,-10.12c-0.1,-0.11 -0.19,-0.22 -0.29,-0.32l-52.19,-57.77c-6.24,-6.9 -13.19,-12.96 -20.55,-18.17c22.26,-22.44 36.01,-53.33 36.01,-87.44c0,-68.57 -55.58,-124.16 -124.16,-124.16c-68.57,0 -124.17,55.58 -124.17,124.16c0,38.5 17.52,72.89 45.02,95.67c-22.46,19.91 -38.17,47.26 -43.25,78.16h-63.85c-27.43,0 -49.66,22.24 -49.66,49.66v297.98c0,68.4 55.77,124.17 124.17,124.17h595.96c68.4,0 124.17,-55.77 124.17,-124.17v-297.98c0,-27.43 -22.24,-49.66 -49.66,-49.66zM251.26,288.51c0,-41.14 33.36,-74.49 74.5,-74.49c41.14,0 74.49,33.35 74.49,74.49c0,41.14 -33.35,74.49 -74.49,74.49c-41.14,0 -74.5,-33.35 -74.5,-74.49zM884.48,512v297.98c0,40.97 -33.53,74.5 -74.5,74.5h-595.96c-40.97,0 -74.5,-33.53 -74.5,-74.5v-297.98h111.74v-27.94c0,-46.19 37.62,-83.81 83.81,-83.81h1.12c12.67,0 24.96,3.35 35.76,8.56c9.68,4.47 18.62,10.81 25.7,18.63l52.15,57.73c8.56,9.68 18.99,18.62 30.54,26.82zM808.12,421.49l-2.23,16.02h-71.14l4.09,-21.98c5.59,-29.43 -3.73,-58.85 -24.96,-81.94l-2.6,-2.23c-38.37,-37.62 -55.87,-87.9 -48.43,-138.56l2.23,-16.02h70.4l-3.35,21.97c-5.59,29.43 3.73,58.86 24.96,81.95l2.6,2.61c38.37,37.25 56.25,87.53 48.43,138.19zM659.13,421.49l-2.23,16.02h-71.14l4.09,-21.98c5.59,-29.43 -3.72,-58.85 -24.95,-81.94l-2.61,-2.23c-38.37,-37.62 -55.87,-87.9 -48.43,-138.56l2.23,-16.02h70.4l-3.35,21.97c-5.59,29.43 3.73,58.86 24.96,81.95l2.61,2.61c38.37,37.25 56.24,87.53 48.42,138.19zM623.74,586.49h-74.49v223.49h74.49zM772.74,586.49h-74.5v223.49h74.5zM325.76,586.49h-74.5v223.49h74.5zM474.75,586.49h-74.49v223.49h74.49z" fill="currentColor"/>
		</g>
	</g>
</svg>