<svg version="1.1" xmlns="http://www.w3.org/2000/svg" xmlns:xlink="http://www.w3.org/1999/xlink" viewBox="0,0,1024,1024">
	<!-- Color names: teamapps-color-1 -->
	<desc>hourglass_full icon - Licensed under Apache License v2.0 (http://www.apache.org/licenses/LICENSE-2.0) - Created with Iconfu.com - Derivative work of Material icons (Copyright Google Inc.)</desc>
	<g fill="none" fill-rule="nonzero" style="mix-blend-mode: normal">
		<g color="#039be5" class="teamapps-color-1">
			<path d="M800.51,362.85c0.13,16.74 -6.23,33.72 -19.1,46.56l-102.9,102.64l102.96,102.96c12.84,12.84 19.17,29.79 19.04,46.49l0,222.97c0,35.91 -29.11,65.02 -65.02,65.02h-446.98c-35.91,0 -65.02,-29.11 -65.02,-65.02l0,-222.97c-0.13,-16.7 6.21,-33.66 19.04,-46.49l102.96,-102.96l-102.9,-102.64c-12.87,-12.84 -19.24,-29.83 -19.1,-46.56l0,-223.34c0,-35.91 29.11,-65.02 65.02,-65.02h446.98c35.91,0 65.02,29.11 65.02,65.02zM785.15,139.52c0,-27.43 -22.24,-49.66 -49.66,-49.66h-446.98c-27.43,0 -49.66,22.24 -49.66,49.66l0,223.4c-0.12,12.81 4.75,25.81 14.59,35.62l113.79,113.5l-113.83,113.83c-9.81,9.81 -14.66,22.78 -14.54,35.57l0,223.04c0,27.43 22.24,49.66 49.66,49.66h446.98c27.43,0 49.66,-22.24 49.66,-49.66l0,-223.04c0.11,-12.79 -4.73,-25.75 -14.54,-35.57l-113.83,-113.83l113.79,-113.5c9.84,-9.82 14.71,-22.81 14.59,-35.62zM735.49,139.52v223.49h-0.38l0.38,0.38l-148.99,148.62l148.99,148.99l-0.38,0.37h0.38v223.12h-446.98v-223.12h0.38l-0.38,-0.37l148.99,-148.99l-148.99,-148.62l0.38,-0.38h-0.38v-223.49z" fill="currentColor"/>
		</g>
	</g>
</svg>