<svg version="1.1" xmlns="http://www.w3.org/2000/svg" xmlns:xlink="http://www.w3.org/1999/xlink" viewBox="0,0,1024,1024">
	<!-- Color names: teamapps-color-1 -->
	<desc>import_contacts icon - Licensed under Apache License v2.0 (http://www.apache.org/licenses/LICENSE-2.0) - Created with Iconfu.com - Derivative work of Material icons (Copyright Google Inc.)</desc>
	<g fill="none" fill-rule="nonzero" style="mix-blend-mode: normal">
		<g color="#039be5" class="teamapps-color-1">
			<path d="M986.75,288.51v543.82c0,45.18 -38.38,83.65 -83.65,83.65c-7.29,0 -21.17,-0.14 -38.34,-8.71c-0.56,-0.28 -1.13,-0.57 -1.68,-0.87c-39.83,-21.34 -91.66,-31.4 -146.22,-31.4c-52.62,0 -131.56,21.53 -170.22,45.87c-22.91,14.43 -52.37,13.15 -73.94,-3.22c-37.61,-28.53 -99.01,-42.65 -165.57,-42.65c-43.98,0 -106.98,14.45 -148.72,34.54c-3.75,1.8 -7.68,3.19 -11.73,4.14l-3.29,0.77c-4.29,1.31 -12.46,3.38 -22.5,3.38c-45.23,0 -83.65,-38.42 -83.65,-83.65v-545.69c0,-20.34 9.52,-39.51 25.73,-51.81c70.42,-53.42 165.45,-69.09 244.15,-69.09c65.16,0 140.92,10.73 204.87,44.25c63.94,-33.52 139.71,-44.25 204.87,-44.25c48.75,0 100.99,6.21 149.92,21.63c0.3,0.09 0.6,0.19 0.89,0.29c32.14,10.72 63.4,24.71 93.06,46.96c16.37,12.28 26.01,31.55 26.01,52.02zM951.52,248.78c-27.94,-20.95 -57.56,-34.29 -88.71,-44.67c-0.22,-0.07 -0.43,-0.14 -0.65,-0.21c-47.14,-14.86 -97.77,-20.92 -145.3,-20.92c-66.32,0 -142.58,11.41 -204.87,46.36c-62.29,-34.96 -138.55,-46.36 -204.87,-46.36c-77.27,0 -168.33,15.49 -234.87,65.97c-12.38,9.39 -19.65,24.03 -19.65,39.57v545.69c0,36.74 31.54,68.29 68.29,68.29c8.37,0 15.19,-1.83 18.48,-2.86l3.81,-0.89c2.96,-0.69 5.83,-1.71 8.57,-3.03c43.75,-21.06 109.03,-36.06 155.38,-36.06c68,0 133.37,14.31 174.85,45.78c16.48,12.5 38.98,13.48 56.48,2.46c41.41,-26.07 123.25,-48.23 178.4,-48.23c56.19,0 110.73,10.33 153.47,33.22c0.42,0.23 0.85,0.45 1.28,0.66c14,6.99 25.06,7.09 31.48,7.09c36.78,0 68.29,-31.58 68.29,-68.29v-543.82c0,-15.63 -7.36,-30.35 -19.87,-39.73zM921.73,288.51v543.82c0,9.31 -9.31,18.63 -18.62,18.63c-3.73,0 -5.59,-0.01 -9.31,-1.87c-52.14,-27.94 -115.46,-39.11 -176.92,-39.11c-63.32,0 -154.58,24.21 -204.87,55.87c-54.01,-40.97 -132.23,-55.87 -204.87,-55.87c-54.01,0 -126.64,16.77 -176.92,40.98c-3.73,0 -5.59,1.86 -9.31,1.86c-9.31,0 -18.62,-9.31 -18.62,-18.62v-545.69c54.01,-40.97 132.22,-55.87 204.86,-55.87c72.63,0 150.85,14.9 204.87,55.87c54.01,-40.97 132.23,-55.87 204.87,-55.87c43.58,0 89.02,5.59 130.37,18.62c27.94,9.31 52.14,20.49 74.49,37.25zM847.23,325.76c-40.97,-13.03 -85.67,-18.63 -130.37,-18.63c-63.32,0 -154.58,24.21 -204.87,55.87v428.35c50.28,-31.66 141.55,-55.87 204.87,-55.87c44.7,0 89.4,5.59 130.37,18.62z" fill="currentColor"/>
		</g>
	</g>
</svg>