<svg version="1.1" xmlns="http://www.w3.org/2000/svg" xmlns:xlink="http://www.w3.org/1999/xlink" viewBox="0,0,1024,1024">
	<!-- Color names: teamapps-color-1 -->
	<desc>important_devices icon - Licensed under Apache License v2.0 (http://www.apache.org/licenses/LICENSE-2.0) - Created with Iconfu.com - Derivative work of Material icons (Copyright Google Inc.)</desc>
	<g fill="none" fill-rule="nonzero" style="mix-blend-mode: normal">
		<g color="#039be5" class="teamapps-color-1">
			<path d="M949.51,214.02v186.24c0,4.55 -0.47,9 -1.36,13.29c43.14,11.5 75.86,50.53 75.86,98.45v335.23c0,56.4 -45.87,102.27 -102.27,102.27h-186.24c-23.81,0 -45.74,-8.19 -63.12,-21.85c-11.9,13.39 -29.27,21.85 -48.62,21.85h-297.98c-35.91,0 -65.02,-29.11 -65.02,-65.02v-74.5c0,-3.21 0.23,-6.37 0.69,-9.47h-121.91c-77.48,0 -139.52,-62.86 -139.52,-139.52v-446.98c0,-77.25 62.25,-139.53 139.52,-139.53h670.46c76.66,0 139.53,62.04 139.53,139.53zM809.98,89.85h-670.46c-68.78,0 -124.16,55.4 -124.16,124.17v446.98c0,68.23 55.22,124.16 124.16,124.16h143.22c-4.22,7.3 -6.64,15.78 -6.64,24.83v74.5c0,27.43 22.24,49.66 49.66,49.66h297.98c20.59,0 38.25,-12.53 45.78,-30.38c15.95,18.59 39.61,30.38 65.96,30.38h186.24c47.92,0 86.91,-39 86.91,-86.91v-335.23c0,-46.7 -36.64,-83.59 -81.45,-86.37c4.42,-7.43 6.96,-16.1 6.96,-25.37v-186.24c0,-68.94 -55.93,-124.17 -124.17,-124.17zM884.48,214.02v186.24h-74.5v-186.24h-670.46v446.98h484.23v74.49h-74.49v74.49h74.49v74.5h-297.98v-74.5h74.49v-74.49h-260.74c-41.35,0 -74.49,-33.52 -74.49,-74.49v-446.98c0,-41.35 33.15,-74.5 74.49,-74.5h670.46c40.97,0 74.5,33.16 74.5,74.5zM958.98,512v335.23c0,20.49 -16.76,37.25 -37.25,37.25h-186.24c-20.49,0 -37.25,-16.76 -37.25,-37.25v-335.23c0,-20.49 16.76,-37.25 37.25,-37.25l186.24,0.38c20.49,0 37.25,16.39 37.25,36.88zM623.74,400.26l-92.01,65.55l35.02,108.39l-92.01,-67.05l-92,67.05l35.01,-108.39l-92,-65.55h112.86l36.12,-111.74l36.13,111.74zM921.73,549.25h-186.24v260.73h186.24z" fill="currentColor"/>
		</g>
	</g>
</svg>