<svg version="1.1" xmlns="http://www.w3.org/2000/svg" xmlns:xlink="http://www.w3.org/1999/xlink" viewBox="0,0,1024,1024">
	<!-- Color names: teamapps-color-1 -->
	<desc>inbox icon - Licensed under Apache License v2.0 (http://www.apache.org/licenses/LICENSE-2.0) - Created with Iconfu.com - Derivative work of Material icons (Copyright Google Inc.)</desc>
	<g fill="none" fill-rule="nonzero" style="mix-blend-mode: normal">
		<g color="#039be5" class="teamapps-color-1">
			<path d="M912.26,251.26v521.48c0,76.88 -62.64,139.52 -139.52,139.52h-521.84c-77.92,0 -139.15,-63.3 -139.15,-139.52l0.38,-521.51c0.01,-76.35 60.64,-139.48 138.78,-139.48h521.84c76.66,0 139.52,62.04 139.52,139.52zM772.74,127.1h-521.84c-69.43,0 -123.41,56.03 -123.42,124.13l-0.38,521.5c0,67.9 54.52,124.16 123.79,124.16h521.84c68.4,0 124.16,-55.76 124.16,-124.16v-521.48c0,-68.94 -55.93,-124.16 -124.16,-124.16zM847.23,251.26v521.48c0,40.97 -33.52,74.49 -74.49,74.49h-521.84c-41.35,0 -74.13,-33.52 -74.13,-74.49l0.38,-521.48c0,-41.35 32.41,-74.49 73.75,-74.49h521.84c40.97,0 74.49,33.15 74.49,74.49zM772.74,251.26h-521.84v372.48h149.36c0,61.83 50.28,111.74 111.74,111.74c61.46,0 111.74,-49.91 111.74,-111.74h148.99z" fill="currentColor"/>
		</g>
	</g>
</svg>