<svg version="1.1" xmlns="http://www.w3.org/2000/svg" xmlns:xlink="http://www.w3.org/1999/xlink" viewBox="0,0,1024,1024">
	<!-- Color names: teamapps-color-1 -->
	<desc>input icon - Licensed under Apache License v2.0 (http://www.apache.org/licenses/LICENSE-2.0) - Created with Iconfu.com - Derivative work of Material icons (Copyright Google Inc.)</desc>
	<g fill="none" fill-rule="nonzero" style="mix-blend-mode: normal">
		<g color="#039be5" class="teamapps-color-1">
			<path d="M986.75,251.64v521.47c0,77.77 -63.53,138.78 -139.52,138.78h-670.46c-75.99,0 -139.52,-61 -139.52,-138.78v-149.36c0,-13.85 4.34,-26.7 11.72,-37.25c-7.38,-10.55 -11.72,-23.4 -11.72,-37.25v-74.5c0,-13.85 4.34,-26.7 11.72,-37.25c-7.38,-10.55 -11.72,-23.4 -11.72,-37.25v-148.62c0,-76.88 62.64,-139.52 139.52,-139.52h670.46c76.66,0 139.52,62.04 139.52,139.52zM847.23,127.48h-670.46c-68.4,0 -124.16,55.76 -124.16,124.16v148.62c0,14.83 6.5,28.15 16.81,37.25c-10.31,9.1 -16.81,22.41 -16.81,37.25v74.5c0,14.83 6.5,28.15 16.81,37.25c-10.31,9.1 -16.81,22.41 -16.81,37.25v149.36c0,69.06 56.42,123.42 124.16,123.42h670.46c67.73,0 124.16,-54.36 124.16,-123.42v-521.47c0,-68.94 -55.93,-124.16 -124.16,-124.16zM921.73,251.64v521.47c0,40.97 -33.52,73.75 -74.49,73.75h-670.46c-40.97,0 -74.49,-32.78 -74.49,-73.75v-149.36h74.49v149.74h670.46v-522.59h-670.46v149.36h-74.49v-148.62c0,-40.97 33.52,-74.49 74.49,-74.49h670.46c40.97,0 74.49,33.15 74.49,74.49zM474.75,549.25h-372.47v-74.5h372.47v-111.74l148.99,148.99l-148.99,148.99z" fill="currentColor"/>
		</g>
	</g>
</svg>