<svg version="1.1" xmlns="http://www.w3.org/2000/svg" xmlns:xlink="http://www.w3.org/1999/xlink" viewBox="0,0,1024,1024">
	<!-- Color names: teamapps-color-1 -->
	<desc>insert_comment icon - Licensed under Apache License v2.0 (http://www.apache.org/licenses/LICENSE-2.0) - Created with Iconfu.com - Derivative work of Material icons (Copyright Google Inc.)</desc>
	<g fill="none" fill-rule="nonzero" style="mix-blend-mode: normal">
		<g color="#039be5" class="teamapps-color-1">
			<path d="M949.51,214.02v670.46c0,26.3 -15.84,50.01 -40.14,60.07c-24.3,10.06 -52.27,4.5 -70.86,-14.1l-129.95,-129.95h-494.54c-76.87,0 -139.53,-62.63 -139.53,-139.52v-446.98c0,-76.88 62.64,-139.53 139.53,-139.53h595.96c76.88,0 139.53,62.64 139.53,139.53zM809.98,89.85h-595.96c-68.4,0 -124.17,55.77 -124.17,124.17v446.98c0,68.41 55.78,124.16 124.17,124.16h500.9l134.45,134.45c14.2,14.2 35.57,18.45 54.12,10.77c18.56,-7.69 30.66,-25.8 30.66,-45.88v-670.46c0,-68.4 -55.77,-124.17 -124.17,-124.17zM884.48,214.02v670.46l-148.99,-148.99h-521.47c-40.97,0 -74.5,-33.52 -74.5,-74.49v-446.98c0,-40.97 33.53,-74.5 74.5,-74.5h595.96c40.97,0 74.5,33.53 74.5,74.5zM735.49,400.26h-446.98v74.49h446.98zM735.49,288.51h-446.98v74.49h446.98zM735.49,512h-446.98v74.49h446.98z" fill="currentColor"/>
		</g>
	</g>
</svg>