<svg version="1.1" xmlns="http://www.w3.org/2000/svg" xmlns:xlink="http://www.w3.org/1999/xlink" viewBox="0,0,1024,1024">
	<!-- Color names: teamapps-color-1 -->
	<desc>invert_colors icon - Licensed under Apache License v2.0 (http://www.apache.org/licenses/LICENSE-2.0) - Created with Iconfu.com - Derivative work of Material icons (Copyright Google Inc.)</desc>
	<g fill="none" fill-rule="nonzero" style="mix-blend-mode: normal">
		<g color="#039be5" class="teamapps-color-1">
			<path d="M768.8,827.66c-70.84,70.84 -163.97,106.21 -256.8,106.21c-92.83,0 -185.96,-35.37 -256.8,-106.21c-141.61,-141.61 -141.61,-371.63 0,-513.23l210.82,-210.83c25.39,-25.39 66.57,-25.39 91.96,0l210.82,210.83c141.61,141.61 141.61,371.62 0,513.23zM757.94,325.29l-210.82,-210.83c-19.4,-19.4 -50.84,-19.4 -70.24,0l-210.82,210.83c-135.61,135.61 -135.61,355.9 0,491.51c67.83,67.83 157,101.71 245.94,101.71c88.94,0 178.11,-33.88 245.94,-101.71c135.61,-135.61 135.61,-355.9 0,-491.51zM722.82,781.68c-58.11,58.11 -134.46,87.16 -210.82,87.16c-76.36,0 -152.71,-29.05 -210.82,-87.16c-116.21,-116.21 -116.21,-305.06 0,-421.27l210.82,-210.83l210.82,210.83c116.21,116.21 116.21,305.06 0,421.27zM512,254.99l-157.93,158.3c-42.46,42.09 -65.55,98.33 -65.55,157.93c0,59.6 23.09,115.47 65.55,157.93c42.09,42.46 98.33,65.55 157.93,65.55z" fill="currentColor"/>
		</g>
	</g>
</svg>