<svg version="1.1" xmlns="http://www.w3.org/2000/svg" xmlns:xlink="http://www.w3.org/1999/xlink" viewBox="0,0,1024,1024">
	<!-- Color names: teamapps-color-1 -->
	<desc>keyboard icon - Licensed under Apache License v2.0 (http://www.apache.org/licenses/LICENSE-2.0) - Created with Iconfu.com - Derivative work of Material icons (Copyright Google Inc.)</desc>
	<g fill="none" fill-rule="nonzero" style="mix-blend-mode: normal">
		<g color="#039be5" class="teamapps-color-1">
			<path d="M949.51,325.76v372.47c0,76.88 -62.64,139.53 -139.53,139.53h-595.96c-76.88,0 -139.53,-62.64 -139.53,-139.53l0.38,-372.52c0.01,-76.43 61.84,-139.48 139.15,-139.48h595.96c76.88,0 139.53,62.64 139.53,139.53zM809.98,201.6h-595.96c-68.72,0 -123.78,56.08 -123.79,124.13l-0.38,372.51c0,68.4 55.77,124.17 124.17,124.17h595.96c68.4,0 124.17,-55.77 124.17,-124.17v-372.47c0,-68.4 -55.77,-124.17 -124.17,-124.17zM884.48,325.76v372.47c0,40.97 -33.53,74.5 -74.5,74.5h-595.96c-40.97,0 -74.5,-33.53 -74.5,-74.5l0.38,-372.47c0,-40.97 33.16,-74.5 74.13,-74.5h595.96c40.97,0 74.5,33.53 74.5,74.5zM660.99,623.74h-297.99v74.49h297.99zM660.99,474.75h-74.5v74.5h74.5zM660.99,363.01h-74.5v74.5h74.5zM772.74,474.75h-74.5v74.5h74.5zM772.74,363.01h-74.5v74.5h74.5zM474.75,437.51h74.5v-74.5h-74.5zM474.75,549.25h74.5v-74.5h-74.5zM363.01,437.51h74.5v-74.5h-74.5zM363.01,549.25h74.5v-74.5h-74.5zM325.76,474.75h-74.5v74.5h74.5zM325.76,363.01h-74.5v74.5h74.5z" fill="currentColor"/>
		</g>
	</g>
</svg>