<svg version="1.1" xmlns="http://www.w3.org/2000/svg" xmlns:xlink="http://www.w3.org/1999/xlink" viewBox="0,0,1024,1024">
	<!-- Color names: teamapps-color-1 -->
	<desc>kitchen icon - Licensed under Apache License v2.0 (http://www.apache.org/licenses/LICENSE-2.0) - Created with Iconfu.com - Derivative work of Material icons (Copyright Google Inc.)</desc>
	<g fill="none" fill-rule="nonzero" style="mix-blend-mode: normal">
		<g color="#039be5" class="teamapps-color-1">
			<path d="M875.01,214.02v595.96c0,76.87 -62.63,139.53 -139.52,139.53h-446.98c-76.89,0 -139.52,-62.65 -139.52,-139.53v-595.96c0,-77.47 62.85,-139.53 139.52,-139.53l447.01,0.38c76.21,0.02 139.48,61.25 139.48,139.15zM735.51,90.23l-447,-0.38c-68.24,0 -124.16,55.23 -124.16,124.17v595.96c0,68.39 55.75,124.17 124.16,124.17h446.98c68.41,0 124.16,-55.78 124.16,-124.17v-595.96c0,-69.26 -56.23,-123.78 -124.13,-123.79zM809.98,214.02v595.96c0,40.97 -33.52,74.5 -74.49,74.5h-446.98c-40.97,0 -74.49,-33.53 -74.49,-74.5v-595.96c0,-41.35 33.52,-74.5 74.49,-74.5l446.98,0.38c40.97,0 74.49,32.78 74.49,74.13zM735.49,474.01h-446.98v335.97h446.98zM735.49,214.02h-446.98v186.24h446.98zM363.01,512h74.5v186.24h-74.5zM363.01,251.26h74.5v111.74h-74.5z" fill="currentColor"/>
		</g>
	</g>
</svg>