<svg version="1.1" xmlns="http://www.w3.org/2000/svg" xmlns:xlink="http://www.w3.org/1999/xlink" viewBox="0,0,1024,1024">
	<!-- Color names: teamapps-color-1 -->
	<desc>layers_clear icon - Licensed under Apache License v2.0 (http://www.apache.org/licenses/LICENSE-2.0) - Created with Iconfu.com - Derivative work of Material icons (Copyright Google Inc.)</desc>
	<g fill="none" fill-rule="nonzero" style="mix-blend-mode: normal">
		<g color="#039be5" class="teamapps-color-1">
			<path d="M930.46,845.9l-47.31,47.31c-25.39,25.39 -66.56,25.39 -91.96,0l-100.21,-100.21l-139.07,108.17c-23.48,18.26 -56.36,18.26 -79.84,0l-335.23,-260.74c-15.87,-12.34 -25.13,-31.32 -25.1,-51.42c0.03,-20.1 9.35,-39.06 25.26,-51.35l55.48,-42.81l-55.63,-43.27c-15.83,-12.31 -25.09,-31.24 -25.1,-51.29c-0.01,-20.05 9.23,-38.99 25.05,-51.32l61.91,-48.25l-105.16,-105.16c-25.4,-25.4 -25.39,-66.57 0,-91.96l47.31,-47.3c25.39,-25.39 66.56,-25.39 91.95,0l123.34,123.34c2.29,-2.45 4.79,-4.73 7.47,-6.83l108.39,-84.56c23.48,-18.32 56.41,-18.34 79.92,-0.06l335.23,260.74c15.86,12.33 25.12,31.3 25.1,51.39c-0.02,20.09 -9.33,39.04 -25.21,51.34l-48.06,37.25l54.23,54.21c13.21,13.21 20.1,31.47 18.91,50.11c-1.19,18.65 -10.34,35.88 -25.12,47.31l-39.47,30.47l82.93,82.93c25.39,25.39 25.39,66.56 0,91.96zM919.6,764.81l-96.19,-96.19c3.45,-1.56 6.77,-3.55 9.88,-5.95l44.32,-34.27c11.29,-8.73 18.28,-21.89 19.19,-36.13c0.91,-14.24 -4.35,-28.19 -14.45,-38.28l-53.26,-53.26c-4.81,-4.81 -10.4,-8.45 -16.38,-10.88l64.93,-50.32c12.13,-9.4 19.24,-23.87 19.25,-39.21c0.02,-15.34 -7.06,-29.83 -19.17,-39.25l-335.23,-260.74c-17.96,-13.97 -43.1,-13.95 -61.04,0.04l-108.39,84.56c-6.41,5 -11.41,11.43 -14.69,18.66l-136.43,-136.43c-19.39,-19.39 -50.84,-19.39 -70.23,0l-47.31,47.3c-19.4,19.39 -19.4,50.84 0,70.24l117.45,117.45l-75.62,58.94c-12.08,9.42 -19.14,23.88 -19.13,39.2c0.01,15.32 7.08,29.77 19.17,39.18l72.76,56.6c-4.2,1.68 -8.22,3.95 -11.93,6.82l-60.72,46.93c-12.15,9.39 -19.27,23.87 -19.29,39.22c-0.02,15.35 7.05,29.85 19.17,39.28l335.23,260.74c17.93,13.95 43.05,13.95 60.98,0l149.77,-116.49l109.8,109.8c19.39,19.39 50.84,19.39 70.24,0l47.31,-47.31c19.4,-19.4 19.39,-50.84 0,-70.24zM884.48,799.92l-47.31,47.31l-140.8,-140.8l-184.38,143.41l-335.23,-260.74l60.72,-46.93l274.51,213.43l131.48,-102.06l-53.26,-53.26l-78.22,60.72l-274.51,-213.43l-60.72,-47.31l119.94,-93.49l-157.19,-157.19l47.31,-47.3zM696.75,517.59l-293.14,-293.51l108.39,-84.56l335.23,260.74l-61.08,47.31zM749.64,570.11l44.33,-34.27l53.26,53.26l-44.32,34.27z" fill="currentColor"/>
		</g>
	</g>
</svg>