<svg version="1.1" xmlns="http://www.w3.org/2000/svg" xmlns:xlink="http://www.w3.org/1999/xlink" viewBox="0,0,1024,1024">
	<!-- Color names: teamapps-color-1 -->
	<desc>local_shipping icon - Licensed under Apache License v2.0 (http://www.apache.org/licenses/LICENSE-2.0) - Created with Iconfu.com - Derivative work of Material icons (Copyright Google Inc.)</desc>
	<g fill="none" fill-rule="nonzero" style="mix-blend-mode: normal">
		<g color="#039be5" class="teamapps-color-1">
			<path d="M986.75,512v186.24c0,35.91 -29.11,65.02 -65.02,65.02h-21.79c-25.87,65.51 -89.67,111.74 -164.45,111.74c-74.78,0 -138.58,-46.24 -164.45,-111.74h-118.08c-25.87,65.51 -89.67,111.74 -164.45,111.74c-74.78,0 -138.58,-46.24 -164.45,-111.74h-21.79c-35.91,0 -65.02,-29.11 -65.02,-65.02v-409.73c0,-76.88 62.64,-139.52 139.52,-139.52h521.47c35.91,0 65.02,29.11 65.02,65.02v83.96h46.72c20.47,0 39.74,9.64 52.02,26.01l111.74,148.99c8.44,11.26 13,24.94 13,39.01zM961.46,482.2l-111.74,-148.99c-9.38,-12.51 -24.1,-19.87 -39.73,-19.87h-62.08v-99.32c0,-27.43 -22.24,-49.66 -49.66,-49.66h-521.47c-68.4,0 -124.16,55.76 -124.16,124.16v409.73c0,27.43 22.24,49.66 49.66,49.66h32.59c20.91,64.92 81.72,111.74 153.64,111.74c71.92,0 132.73,-46.83 153.64,-111.74h139.69c20.91,64.92 81.72,111.74 153.64,111.74c71.92,0 132.73,-46.83 153.64,-111.74h32.59c27.43,0 49.66,-22.24 49.66,-49.66v-186.24c0,-10.75 -3.49,-21.2 -9.93,-29.8zM921.73,512v186.24h-74.49c0,61.83 -49.91,111.74 -111.74,111.74c-61.83,0 -111.74,-49.91 -111.74,-111.74h-223.49c0,61.83 -49.91,111.74 -111.74,111.74c-61.83,0 -111.74,-49.91 -111.74,-111.74h-74.49v-409.73c0,-40.97 33.52,-74.49 74.49,-74.49h521.47v148.99h111.74zM698.24,418.88v93.12h166.13l-73.01,-93.12zM344.38,698.24c0,-30.91 -24.96,-55.87 -55.87,-55.87c-30.91,0 -55.87,24.96 -55.87,55.87c0,30.91 24.96,55.87 55.87,55.87c30.91,0 55.87,-24.96 55.87,-55.87zM791.36,698.24c0,-30.91 -24.96,-55.87 -55.87,-55.87c-30.91,0 -55.87,24.96 -55.87,55.87c0,30.91 24.96,55.87 55.87,55.87c30.91,0 55.87,-24.96 55.87,-55.87z" fill="currentColor"/>
		</g>
	</g>
</svg>