<svg version="1.1" xmlns="http://www.w3.org/2000/svg" xmlns:xlink="http://www.w3.org/1999/xlink" viewBox="0,0,1024,1024">
	<!-- Color names: teamapps-color-1 -->
	<desc>local_hotel icon - Licensed under Apache License v2.0 (http://www.apache.org/licenses/LICENSE-2.0) - Created with Iconfu.com - Derivative work of Material icons (Copyright Google Inc.)</desc>
	<g fill="none" fill-rule="nonzero" style="mix-blend-mode: normal">
		<g color="#039be5" class="teamapps-color-1">
			<path d="M986.75,474.75v335.23c0,35.91 -29.11,65.02 -65.02,65.02h-74.49c-35.91,0 -65.02,-29.11 -65.02,-65.02v-46.72h-540.42v46.72c0,35.91 -29.11,65.02 -65.02,65.02h-74.49c-35.91,0 -65.02,-29.11 -65.02,-65.02v-558.72c0,-35.91 29.11,-65.02 65.02,-65.02h74.49c35.91,0 65.02,29.11 65.02,65.02v30.61c24.98,-13.48 53.59,-21.13 83.97,-21.13c35.2,0 68.01,10.26 95.55,27.96c11.73,-16.89 31.28,-27.96 53.43,-27.96h297.99c118.23,0 214.01,95.78 214.01,214.01zM772.74,276.1h-297.99c-22.57,0 -41.63,15.06 -47.67,35.68c-27.68,-22.32 -62.92,-35.68 -101.32,-35.68c-37.49,0 -71.96,12.72 -99.33,34.1v-58.94c0,-27.43 -22.24,-49.66 -49.66,-49.66h-74.49c-27.43,0 -49.66,22.24 -49.66,49.66v558.72c0,27.43 22.24,49.66 49.66,49.66h74.49c27.43,0 49.66,-22.24 49.66,-49.66v-62.08h571.14v62.08c0,27.43 22.24,49.66 49.66,49.66h74.49c27.43,0 49.66,-22.24 49.66,-49.66v-335.23c0,-109.74 -88.91,-198.65 -198.65,-198.65zM921.73,474.75v335.23h-74.49v-111.74h-670.46v111.74h-74.49v-558.72h74.49v335.23h297.98v-260.73h297.99c82.32,0 148.99,66.67 148.99,148.99zM214.02,437.51c0,-61.83 49.91,-111.74 111.74,-111.74c61.83,0 111.74,49.91 111.74,111.74c0,61.83 -49.91,111.74 -111.74,111.74c-61.83,0 -111.74,-49.91 -111.74,-111.74z" fill="currentColor"/>
		</g>
	</g>
</svg>