<svg version="1.1" xmlns="http://www.w3.org/2000/svg" xmlns:xlink="http://www.w3.org/1999/xlink" viewBox="0,0,1024,1024">
	<!-- Color names: teamapps-color-1 -->
	<desc>local_phone icon - Licensed under Apache License v2.0 (http://www.apache.org/licenses/LICENSE-2.0) - Created with Iconfu.com - Derivative work of Material icons (Copyright Google Inc.)</desc>
	<g fill="none" fill-rule="nonzero" style="mix-blend-mode: normal">
		<g color="#039be5" class="teamapps-color-1">
			<path d="M392.62,477.87c39.14,61.63 91.73,114.1 153.57,153.44l46.84,-46.85c27.44,-27.44 68.13,-36.94 104.62,-24.62c35.08,11.56 73.18,17.87 112.33,17.87c56.4,0 102.27,45.87 102.27,102.27v129.99c0,56.4 -45.87,102.27 -102.27,102.27c-385.67,0 -698.24,-312.57 -698.24,-698.24c0,-56.4 45.87,-102.27 102.27,-102.27h130.37c56.4,0 102.27,45.87 102.27,102.27c0,39.58 6.33,77.4 17.95,112.58c0.09,0.27 0.17,0.53 0.26,0.8c10.97,34.91 3.12,75.11 -25.34,103.57zM428.67,420.1c24.18,-24.18 30.89,-58.34 21.54,-88.11c-0.06,-0.2 -0.12,-0.39 -0.19,-0.58c-12.13,-36.72 -18.72,-76.16 -18.72,-117.39c0,-47.92 -39,-86.91 -86.91,-86.91h-130.37c-47.92,0 -86.91,39 -86.91,86.91c0,377.19 305.69,682.88 682.88,682.88c47.92,0 86.91,-39 86.91,-86.91v-129.99c0,-47.92 -39,-86.91 -86.91,-86.91c-40.81,0 -80.55,-6.57 -117.19,-18.66c-30.95,-10.47 -65.55,-2.43 -88.89,20.91l-55.45,55.45c-71.82,-43.32 -132.22,-103.56 -175.29,-175.18zM311.6,466.93c53.64,105.41 140.06,191.46 245.47,245.47l81.94,-81.95c10.06,-10.06 24.96,-13.41 37.99,-8.94c41.72,13.78 86.78,21.23 132.98,21.23c20.49,0 37.25,16.76 37.25,37.25v129.99c0,20.49 -16.76,37.25 -37.25,37.25c-349.76,0 -633.21,-283.45 -633.21,-633.21c0,-20.49 16.76,-37.25 37.25,-37.25h130.37c20.49,0 37.25,16.76 37.25,37.25c0,46.56 7.45,91.25 21.23,132.98c4.09,13.03 1.12,27.56 -9.31,37.99z" fill="currentColor"/>
		</g>
	</g>
</svg>