<svg version="1.1" xmlns="http://www.w3.org/2000/svg" xmlns:xlink="http://www.w3.org/1999/xlink" viewBox="0,0,1024,1024">
	<!-- Color names: teamapps-color-1 -->
	<desc>looks_3 icon - Licensed under Apache License v2.0 (http://www.apache.org/licenses/LICENSE-2.0) - Created with Iconfu.com - Derivative work of Material icons (Copyright Google Inc.)</desc>
	<g fill="none" fill-rule="nonzero" style="mix-blend-mode: normal">
		<g color="#039be5" class="teamapps-color-1">
			<path d="M912.63,251.26v521.48c0,76.89 -62.65,139.52 -139.53,139.52h-521.47c-76.88,0 -139.52,-62.64 -139.52,-139.52v-521.48c0,-76.88 62.64,-139.52 139.52,-139.52h521.47c76.87,0 139.53,62.63 139.53,139.52zM773.11,127.1h-521.47c-68.4,0 -124.16,55.76 -124.16,124.16v521.48c0,68.4 55.76,124.16 124.16,124.16h521.47c68.39,0 124.17,-55.75 124.17,-124.16v-521.48c0,-68.41 -55.78,-124.16 -124.17,-124.16zM847.61,251.26v521.48c0,40.97 -33.53,74.49 -74.5,74.49h-521.47c-40.97,0 -74.49,-33.52 -74.49,-74.49v-521.48c0,-40.97 33.52,-74.49 74.49,-74.49h521.47c40.97,0 74.5,33.52 74.5,74.49zM624.12,400.26c0,-41.35 -33.53,-74.49 -74.5,-74.49h-148.99v74.49h148.99v74.49h-74.49v74.5h74.49v74.49h-148.99v74.49h148.99c40.97,0 74.5,-33.15 74.5,-74.49v-55.87c0,-30.91 -24.96,-55.87 -55.87,-55.87c30.91,0 55.87,-24.96 55.87,-55.87z" fill="currentColor"/>
		</g>
	</g>
</svg>