<svg version="1.1" xmlns="http://www.w3.org/2000/svg" xmlns:xlink="http://www.w3.org/1999/xlink" viewBox="0,0,1024,1024">
	<!-- Color names: teamapps-color-1 -->
	<desc>low_priority icon - Licensed under Apache License v2.0 (http://www.apache.org/licenses/LICENSE-2.0) - Created with Iconfu.com - Derivative work of Material icons (Copyright Google Inc.)</desc>
	<g fill="none" fill-rule="nonzero" style="mix-blend-mode: normal">
		<g color="#039be5" class="teamapps-color-1">
			<path d="M381.63,186.24h130.37c13.85,0 26.7,4.34 37.25,11.72c10.55,-7.38 23.4,-11.72 37.25,-11.72h297.99c35.91,0 65.02,29.11 65.02,65.02v74.5c0,35.91 -29.11,65.02 -65.02,65.02h-297.99c-13.85,0 -26.7,-4.34 -37.25,-11.72c-10.55,7.38 -23.4,11.72 -37.25,11.72h-130.37c-56.46,0 -102.59,46.13 -102.59,102.59c0,39.75 22.89,74.45 56.21,91.46c0.65,-25.63 16.33,-48.56 40.12,-58.42c24.3,-10.06 52.27,-4.5 70.86,14.1l85.46,85.46c11.55,-18.04 31.76,-30.01 54.8,-30.01h297.99c35.91,0 65.02,29.11 65.02,65.02v74.49c0,35.91 -29.11,65.02 -65.02,65.02h-297.99c-23.03,0 -43.25,-11.97 -54.8,-30.01l-85.46,85.46c-18.6,18.6 -46.56,24.16 -70.86,14.1c-24.3,-10.06 -40.14,-33.77 -40.14,-60.07v-12.97c-147.35,-22.46 -260.74,-150.12 -260.74,-303.63c0,-169.26 137.88,-307.14 307.14,-307.14zM586.49,391.1h297.99c35.91,0 65.02,29.11 65.02,65.02v74.49c0,35.91 -29.11,65.02 -65.02,65.02h-297.99c-35.91,0 -65.02,-29.11 -65.02,-65.02v-74.49c0,-35.91 29.11,-65.02 65.02,-65.02zM89.85,493.38c0,150.3 114.48,274.56 260.74,290.13v26.47c0,20.09 12.1,38.2 30.66,45.88c18.56,7.69 39.92,3.44 54.12,-10.77l102.03,-102.03c3.65,23.83 24.24,42.08 49.09,42.08h297.99c27.43,0 49.66,-22.24 49.66,-49.66v-74.49c0,-27.43 -22.24,-49.66 -49.66,-49.66h-297.99c-24.85,0 -45.43,18.25 -49.09,42.08l-102.03,-102.03c-14.2,-14.2 -35.57,-18.45 -54.12,-10.77c-18.56,7.69 -30.66,25.8 -30.66,45.88v20.68c-49.98,-13.69 -86.91,-59.58 -86.91,-113.79c0,-64.94 53.01,-117.95 117.95,-117.95h130.37c14.83,0 28.15,-6.5 37.25,-16.81c9.1,10.31 22.41,16.81 37.25,16.81h297.99c27.43,0 49.66,-22.24 49.66,-49.66v-74.5c0,-27.43 -22.24,-49.66 -49.66,-49.66h-297.99c-14.83,0 -28.15,6.5 -37.25,16.81c-9.1,-10.31 -22.41,-16.81 -37.25,-16.81h-130.37c-160.78,0 -291.78,131 -291.78,291.78zM536.83,456.13v74.49c0,27.43 22.24,49.66 49.66,49.66h297.99c27.43,0 49.66,-22.24 49.66,-49.66v-74.49c0,-27.43 -22.24,-49.66 -49.66,-49.66h-297.99c-27.43,0 -49.66,22.24 -49.66,49.66zM381.63,251.26h130.37v74.5h-130.37c-92.37,0 -167.62,75.24 -167.62,167.62c0,92.37 75.24,167.62 167.62,167.62h18.62v-74.5l111.74,111.74l-111.74,111.74v-74.49h-18.62c-133.35,0 -242.12,-108.76 -242.12,-242.11c0,-133.35 108.77,-242.12 242.12,-242.12zM586.49,660.99h297.99v74.49h-297.99zM586.49,251.26h297.99v74.5h-297.99zM586.49,456.13h297.99v74.49h-297.99z" fill="currentColor"/>
		</g>
	</g>
</svg>