<svg version="1.1" xmlns="http://www.w3.org/2000/svg" xmlns:xlink="http://www.w3.org/1999/xlink" viewBox="0,0,1024,1024">
	<!-- Color names: teamapps-color-1 -->
	<desc>map icon - Licensed under Apache License v2.0 (http://www.apache.org/licenses/LICENSE-2.0) - Created with Iconfu.com - Derivative work of Material icons (Copyright Google Inc.)</desc>
	<g fill="none" fill-rule="nonzero" style="mix-blend-mode: normal">
		<g color="#039be5" class="teamapps-color-1">
			<path d="M912.26,195.39v563.19c0,40.24 -27.16,69.27 -57.74,79.52l-210.01,70.75c-13.72,4.62 -28.58,4.53 -42.24,-0.25l-200.88,-70.31l-177.98,68.86c-3.59,1.39 -7.3,2.41 -11.09,3.05l-7.44,1.25c-3.13,0.53 -6.31,0.79 -9.48,0.79c-46.34,0 -83.65,-37.3 -83.65,-83.65v-563.19c0,-40.24 27.16,-69.27 57.74,-79.52l210.01,-70.75c13.72,-4.62 28.58,-4.53 42.24,0.25l200.88,70.31l177.98,-68.86c3.59,-1.39 7.3,-2.41 11.09,-3.05l7.44,-1.25c3.13,-0.53 6.31,-0.79 9.48,-0.79c46.34,0 83.65,37.3 83.65,83.65zM828.61,127.1c-2.32,0 -4.64,0.19 -6.93,0.58l-7.44,1.25c-2.77,0.47 -5.48,1.21 -8.1,2.23l-183.26,70.9l-206.22,-72.18c-10.43,-3.65 -21.79,-3.72 -32.26,-0.19l-210.03,70.76c-25.29,8.48 -47.26,32.28 -47.26,64.96v563.19c0,37.86 30.42,68.29 68.29,68.29c2.32,0 4.64,-0.19 6.93,-0.58l7.44,-1.25c2.77,-0.47 5.48,-1.21 8.1,-2.23l183.26,-70.9l206.22,72.18c10.43,3.65 21.79,3.72 32.26,0.19l210.03,-70.76c25.29,-8.48 47.26,-32.28 47.26,-64.96v-563.19c0,-37.86 -30.42,-68.29 -68.29,-68.29zM847.23,195.39v563.19c0,8.56 -5.59,15.27 -13.41,17.88l-210.08,70.77l-223.49,-78.22l-198.9,77.1l-5.96,1.12c-10.43,0 -18.62,-8.19 -18.62,-18.62v-563.19c0,-8.56 5.59,-15.27 13.41,-17.88l210.08,-70.77l223.49,78.22l198.9,-77.1l5.96,-1.12c10.43,0 18.62,8.19 18.62,18.62zM623.74,329.86l-223.49,-78.6v442.88l223.49,78.6z" fill="currentColor"/>
		</g>
	</g>
</svg>