<svg version="1.1" xmlns="http://www.w3.org/2000/svg" xmlns:xlink="http://www.w3.org/1999/xlink" viewBox="0,0,1024,1024">
	<!-- Color names: teamapps-color-1 -->
	<desc>money_off icon - Licensed under Apache License v2.0 (http://www.apache.org/licenses/LICENSE-2.0) - Created with Iconfu.com - Derivative work of Material icons (Copyright Google Inc.)</desc>
	<g fill="none" fill-rule="nonzero" style="mix-blend-mode: normal">
		<g color="#039be5" class="teamapps-color-1">
			<path d="M853.73,806.79l-47.3,47.31c-25.39,25.4 -66.57,25.4 -91.96,0l-45.6,-45.6c-5.7,2.73 -11.49,5.24 -17.35,7.53v31.2c0,35.91 -29.11,65.02 -65.02,65.02h-111.74c-35.91,0 -65.02,-29.11 -65.02,-65.02v-33.24c-69.92,-29.25 -131.63,-89.19 -136.97,-186.69c-2.04,-37.25 27.62,-68.58 64.93,-68.58h38.85c-48.04,-29.76 -86.34,-73.39 -95.23,-138.16l-111.02,-111.03c-25.39,-25.39 -25.39,-66.56 0,-91.96l47.3,-47.3c25.4,-25.4 66.58,-25.39 91.97,0.02l62.59,62.63c4.82,-5.16 10.51,-9.55 16.89,-12.96c6.75,-3.6 13.66,-6.9 20.7,-9.9v-33.3c0,-35.91 29.11,-65.02 65.02,-65.02h111.74c35.91,0 65.02,29.11 65.02,65.02v36.17c76.26,37.19 116.43,109.11 119.51,184.68c1.5,36.92 -28.02,67.67 -64.97,67.67h-82.32c-8.45,0 -16.54,-1.62 -23.96,-4.56l253.96,254.13c25.38,25.39 25.37,66.55 -0.01,91.94zM558.79,403.37c-0.31,-6.39 -1.2,-9.81 -1.81,-11.43l-0.13,-0.69c-1.47,-1.06 -7.37,-4.19 -26.23,-4.19c-1.51,0 -2.97,0.03 -4.38,0.07l37.02,37.05c-2.56,-6.48 -4.12,-13.48 -4.47,-20.81zM485.57,624.82c0.92,1.89 2.59,3.87 5.66,5.66zM842.88,725.71l-348.07,-348.3c8.3,-3.21 19.91,-5.71 35.81,-5.71c25.45,0 34.11,5.88 36.69,8.28c2.33,2.18 6.1,7.49 6.83,22.66c1.27,26.47 23.1,47.28 49.61,47.28h82.32c28.22,0 50.77,-23.49 49.62,-51.69c-2.98,-73.23 -43.17,-142.29 -119.52,-175.47v-46c0,-27.43 -22.24,-49.66 -49.66,-49.66h-111.74c-27.43,0 -49.66,22.24 -49.66,49.66v43.66c-9.89,3.78 -19.53,8.13 -28.83,13.09c-9.79,5.22 -17.42,13.49 -21.89,23.37l-75.69,-75.74c-19.39,-19.41 -50.85,-19.41 -70.25,-0.01l-47.3,47.3c-19.39,19.39 -19.4,50.84 0,70.23l114.76,114.76c10.27,93.55 86.44,141.29 167.68,167.67l71.15,71.15c-1.33,0.03 -2.7,0.04 -4.1,0.04c-57.09,0 -60.35,-20.31 -61.54,-33.16c-2.38,-25.53 -23.81,-45.06 -49.45,-45.06h-81.95c-28.5,0 -51.15,23.93 -49.59,52.38c5.17,94.4 67.07,150.97 137,177.09v43.68c0,27.43 22.24,49.66 49.66,49.66h111.74c27.43,0 49.66,-22.24 49.66,-49.66v-41.91c12.3,-4.25 24.27,-9.4 35.69,-15.57l53.48,53.48c19.4,19.4 50.84,19.39 70.24,0l47.3,-47.31c19.39,-19.39 19.39,-50.82 0.01,-70.22zM807.75,760.81l-47.3,47.31l-82.69,-82.69c-23.47,21.23 -55.51,35.02 -91.26,41.72v80.08h-111.74v-80.83c-71.52,-15.27 -132.6,-61.08 -137.07,-142.66h81.95c4.09,43.96 34.27,78.22 110.99,78.22c51.03,0 77.48,-16.02 90.15,-33.9l-130.74,-130.74c-87.54,-26.08 -145.64,-68.16 -145.64,-145.63l-128.13,-128.14l47.3,-47.3zM474.38,332.09l-54.75,-54.75c16.76,-8.94 35.38,-15.64 55.12,-20.11v-80.46h111.74v81.57c77.85,19 116.96,77.85 119.57,141.91h-82.32c-2.23,-46.56 -26.82,-78.22 -93.12,-78.22c-22.35,0 -40.97,3.73 -56.24,10.06z" fill="currentColor"/>
		</g>
	</g>
</svg>