<svg version="1.1" xmlns="http://www.w3.org/2000/svg" xmlns:xlink="http://www.w3.org/1999/xlink" viewBox="0,0,1024,1024">
	<!-- Color names: teamapps-color-1 -->
	<desc>movie_creation icon - Licensed under Apache License v2.0 (http://www.apache.org/licenses/LICENSE-2.0) - Created with Iconfu.com - Derivative work of Material icons (Copyright Google Inc.)</desc>
	<g fill="none" fill-rule="nonzero" style="mix-blend-mode: normal">
		<g color="#039be5" class="teamapps-color-1">
			<path d="M949.51,214.02v521.47c0,76.89 -62.65,139.52 -139.53,139.52h-595.96c-76.87,0 -139.53,-62.63 -139.53,-139.52l0.38,-447.01c0.01,-76.44 61.84,-139.48 139.15,-139.48h37.24c23.03,0 44.21,12.17 55.87,31.76c0.18,-0.31 0.37,-0.61 0.56,-0.92c11.85,-19.17 32.78,-30.84 55.31,-30.84h74.5c23.03,0 44.21,12.17 55.87,31.76c0.18,-0.31 0.37,-0.62 0.56,-0.92c11.85,-19.17 32.78,-30.84 55.31,-30.84h74.49c23.03,0 44.21,12.17 55.87,31.76c0.18,-0.31 0.37,-0.62 0.56,-0.92c11.85,-19.17 32.78,-30.84 55.31,-30.84h148.99c35.91,0 65.02,29.11 65.02,65.02zM884.48,164.35h-148.99c-17.21,0 -33.2,8.91 -42.25,23.55c-9.05,14.64 -9.87,32.93 -2.17,48.32l38.56,77.11h-0.69l-60.77,-121.53c-8.41,-16.83 -25.61,-27.45 -44.42,-27.45h-74.49c-17.21,0 -33.2,8.91 -42.25,23.55c-9.05,14.64 -9.87,32.93 -2.17,48.32l38.56,77.11h-0.69l-60.77,-121.53c-8.41,-16.83 -25.61,-27.45 -44.42,-27.45h-74.5c-17.21,0 -33.2,8.91 -42.25,23.56c-9.05,14.64 -9.87,32.93 -2.17,48.32l38.56,77.11h-0.69l-60.77,-121.53c-8.41,-16.82 -25.61,-27.45 -44.42,-27.45h-37.24c-68.71,0 -123.78,56.06 -123.79,124.13l-0.38,447c0,68.41 55.78,124.16 124.17,124.16h595.96c68.39,0 124.17,-55.75 124.17,-124.16v-521.47c0,-27.43 -22.24,-49.66 -49.66,-49.66zM884.48,214.02v521.47c0,40.97 -33.53,74.49 -74.5,74.49h-595.96c-40.97,0 -74.5,-33.52 -74.5,-74.49l0.38,-446.98c0,-40.97 33.16,-74.49 74.13,-74.49h37.24l74.5,148.99h111.74l-74.5,-148.99h74.5l74.49,148.99h111.74l-74.49,-148.99h74.49l74.49,148.99h111.74l-74.49,-148.99z" fill="currentColor"/>
		</g>
	</g>
</svg>