<svg version="1.1" xmlns="http://www.w3.org/2000/svg" xmlns:xlink="http://www.w3.org/1999/xlink" viewBox="0,0,1024,1024">
	<!-- Color names: teamapps-color-1 -->
	<desc>my_location icon - Licensed under Apache License v2.0 (http://www.apache.org/licenses/LICENSE-2.0) - Created with Iconfu.com - Derivative work of Material icons (Copyright Google Inc.)</desc>
	<g fill="none" fill-rule="nonzero" style="mix-blend-mode: normal">
		<g color="#039be5" class="teamapps-color-1">
			<path d="M986.75,474.75v74.5c0,35.91 -29.11,65.02 -65.02,65.02h-22.85c-36.57,138.83 -145.77,248.03 -284.6,284.6v22.85c0,35.91 -29.11,65.02 -65.02,65.02h-74.5c-35.91,0 -65.02,-29.11 -65.02,-65.02v-22.85c-138.83,-36.57 -248.03,-145.77 -284.6,-284.6h-22.85c-35.91,0 -65.02,-29.11 -65.02,-65.02v-74.5c0,-35.91 29.11,-65.02 65.02,-65.02h22.85c36.57,-138.83 145.77,-248.03 284.6,-284.6v-22.85c0,-35.91 29.11,-65.02 65.02,-65.02h74.5c35.91,0 65.02,29.11 65.02,65.02v22.85c138.83,36.57 248.03,145.77 284.6,284.6h22.85c35.91,0 65.02,29.11 65.02,65.02zM921.73,425.09h-34.87c-32.93,-142.74 -145.19,-255 -287.94,-287.94v-34.87c0,-27.43 -22.24,-49.66 -49.66,-49.66h-74.5c-27.43,0 -49.66,22.24 -49.66,49.66v34.87c-142.74,32.93 -255,145.19 -287.94,287.94h-34.87c-27.43,0 -49.66,22.24 -49.66,49.66v74.5c0,27.43 22.24,49.66 49.66,49.66h34.87c32.93,142.74 145.19,255 287.94,287.94v34.87c0,27.43 22.24,49.66 49.66,49.66h74.5c27.43,0 49.66,-22.24 49.66,-49.66v-34.87c142.74,-32.93 255,-145.19 287.94,-287.94h34.87c27.43,0 49.66,-22.24 49.66,-49.66v-74.5c0,-27.43 -22.24,-49.66 -49.66,-49.66zM921.73,474.75v74.5h-76.73c-17.14,155.32 -140.42,278.61 -295.75,295.75v76.73h-74.5v-76.73c-155.32,-17.14 -278.61,-140.42 -295.75,-295.75h-76.73v-74.5h76.73c17.14,-155.32 140.42,-278.61 295.75,-295.75v-76.73h74.5v76.73c155.32,17.14 278.61,140.42 295.75,295.75zM772.74,512c0,-144.15 -116.59,-260.74 -260.74,-260.74c-144.15,0 -260.74,116.59 -260.74,260.74c0,144.15 116.59,260.74 260.74,260.74c144.15,0 260.74,-116.59 260.74,-260.74zM660.99,512c0,82.32 -66.68,148.99 -148.99,148.99c-82.32,0 -148.99,-66.68 -148.99,-148.99c0,-82.32 66.68,-148.99 148.99,-148.99c82.32,0 148.99,66.68 148.99,148.99z" fill="currentColor"/>
		</g>
	</g>
</svg>