<svg version="1.1" xmlns="http://www.w3.org/2000/svg" xmlns:xlink="http://www.w3.org/1999/xlink" viewBox="0,0,1024,1024">
	<!-- Color names: teamapps-color-1 -->
	<desc>nature icon - Licensed under Apache License v2.0 (http://www.apache.org/licenses/LICENSE-2.0) - Created with Iconfu.com - Derivative work of Material icons (Copyright Google Inc.)</desc>
	<g fill="none" fill-rule="nonzero" style="mix-blend-mode: normal">
		<g color="#039be5" class="teamapps-color-1">
			<path d="M772.74,744.96c35.91,0 65.02,29.11 65.02,65.02v74.5c0,35.91 -29.11,65.02 -65.02,65.02h-521.48c-35.91,0 -65.02,-29.11 -65.02,-65.02v-74.5c0,-35.91 29.11,-65.02 65.02,-65.02h158.46v-31.54c-126.52,-44.5 -217.15,-164.86 -217.15,-306.83c0,-180.06 145.69,-325.75 325.75,-325.75c180.06,0 325.76,145.69 325.76,325.75c0,146.75 -96.9,270.42 -229.82,311.34v27.03zM598.91,760.32v-53.95c132.21,-35.46 229.82,-156.01 229.82,-299.78c0,-171.58 -138.83,-310.39 -310.4,-310.39c-171.58,0 -310.39,138.82 -310.39,310.39c0,139.06 91.25,256.38 217.15,295.75v57.98h-173.82c-27.43,0 -49.66,22.24 -49.66,49.66v74.5c0,27.43 22.24,49.66 49.66,49.66h521.48c27.43,0 49.66,-22.24 49.66,-49.66v-74.5c0,-27.43 -22.24,-49.66 -49.66,-49.66zM549.25,809.98h223.49v74.5h-521.48v-74.5h223.49v-146.75c-123.29,-20.49 -217.15,-127.4 -217.15,-256.64c0,-144.15 116.58,-260.73 260.73,-260.73c144.15,0 260.74,116.58 260.74,260.73c0,133.72 -100.57,243.61 -229.82,258.88z" fill="currentColor"/>
		</g>
	</g>
</svg>