<svg version="1.1" xmlns="http://www.w3.org/2000/svg" xmlns:xlink="http://www.w3.org/1999/xlink" viewBox="0,0,1024,1024">
	<!-- Color names: teamapps-color-1 -->
	<desc>nature_people icon - Licensed under Apache License v2.0 (http://www.apache.org/licenses/LICENSE-2.0) - Created with Iconfu.com - Derivative work of Material icons (Copyright Google Inc.)</desc>
	<g fill="none" fill-rule="nonzero" style="mix-blend-mode: normal">
		<g color="#039be5" class="teamapps-color-1">
			<path d="M726.02,717.93v27.03h46.72c35.91,0 65.02,29.11 65.02,65.02v74.5c0,35.91 -29.11,65.02 -65.02,65.02h-595.97c-35.91,0 -65.02,-29.11 -65.02,-65.02v-127.44c-22.01,-10.41 -37.25,-32.81 -37.25,-58.81v-148.99c0,-35.63 18.3,-67.01 45.92,-85.31c-5.59,-13.94 -8.67,-29.15 -8.67,-45.06c0,-66.82 54.07,-120.9 120.9,-120.9c31.15,0 59.53,11.76 80.95,31.06c34.75,-142.56 163.15,-248.21 316.49,-248.21c180.06,0 325.76,145.69 325.76,325.75c0,146.75 -96.9,270.42 -229.82,311.34zM940.48,406.59c0,-171.58 -138.83,-310.39 -310.4,-310.39c-157.01,0 -286.58,116.24 -307.46,267.46c-18.56,-30.2 -51.89,-50.31 -89.98,-50.31c-58.34,0 -105.54,47.19 -105.54,105.54c0,18.68 4.84,36.21 13.33,51.43c-29.83,13.79 -50.58,43.99 -50.58,78.95v148.99c0,23.14 15.83,42.59 37.25,48.1v138.15c0,27.43 22.24,49.66 49.66,49.66h595.97c27.43,0 49.66,-22.24 49.66,-49.66v-74.5c0,-27.43 -22.24,-49.66 -49.66,-49.66h-62.08v-53.95c132.21,-35.46 229.82,-156.01 229.82,-299.78zM660.99,665.46v144.52h111.74v74.5h-595.97v-186.25h-37.25v-148.99c0,-20.49 16.76,-37.25 37.25,-37.25h111.74c20.49,0 37.25,16.76 37.25,37.25v148.99h-37.25v111.74h297.98v-146.75c-123.29,-20.49 -217.15,-127.4 -217.15,-256.64c0,-144.15 116.58,-260.73 260.73,-260.73c144.15,0 260.74,116.58 260.74,260.73c0,133.72 -100.57,243.61 -229.82,258.88zM176.77,418.88c0,-30.91 24.96,-55.87 55.87,-55.87c30.91,0 55.87,24.96 55.87,55.87c0,30.91 -24.96,55.87 -55.87,55.87c-30.91,0 -55.87,-24.96 -55.87,-55.87z" fill="currentColor"/>
		</g>
	</g>
</svg>