<svg version="1.1" xmlns="http://www.w3.org/2000/svg" xmlns:xlink="http://www.w3.org/1999/xlink" viewBox="0,0,1024,1024">
	<!-- Color names: teamapps-color-1 -->
	<desc>network_locked icon - Licensed under Apache License v2.0 (http://www.apache.org/licenses/LICENSE-2.0) - Created with Iconfu.com - Derivative work of Material icons (Copyright Google Inc.)</desc>
	<g fill="none" fill-rule="nonzero" style="mix-blend-mode: normal">
		<g color="#039be5" class="teamapps-color-1">
			<path d="M586.49,875.01h-484.22c-26.3,0 -50.01,-15.84 -60.07,-40.14c-10.06,-24.3 -4.5,-52.27 14.1,-70.86l707.71,-707.71c18.6,-18.6 46.56,-24.16 70.86,-14.1c24.3,10.06 40.14,33.77 40.14,60.07v337.09c0,9.73 -2.18,19.22 -6.25,27.82c48.16,27.09 80.76,78.7 80.76,137.93v14.24c22.68,18.72 37.24,47.08 37.24,78.87v148.99c0,56.38 -45.84,102.27 -102.27,102.27h-186.25c-47.27,0 -87.1,-32.21 -98.79,-75.8c-4.19,0.85 -8.53,1.29 -12.96,1.29zM611.51,852.89c2.93,45.28 40.69,81.26 86.72,81.26h186.25c47.93,0 86.91,-39.01 86.91,-86.91v-148.99c0,-29.52 -14.76,-55.57 -37.24,-71.27v-21.85c0,-59.38 -36.29,-110.32 -87.88,-131.84c8.56,-9.16 13.38,-21.27 13.38,-33.91v-337.09c0,-20.09 -12.1,-38.2 -30.66,-45.88c-18.56,-7.69 -39.92,-3.44 -54.12,10.77l-707.71,707.71c-14.2,14.2 -18.45,35.57 -10.77,54.12c7.69,18.56 25.8,30.66 45.88,30.66h484.22c9.12,0 17.67,-2.46 25.02,-6.75zM623.74,605.12v10.06c-22.72,20.49 -37.25,49.91 -37.25,83.06v111.74h-484.22l707.71,-707.71v337.09c-6.33,-0.74 -12.29,-1.86 -18.62,-1.86c-92.37,0 -167.62,75.24 -167.62,167.62zM921.73,698.24v148.99c0,20.49 -16.75,37.25 -37.24,37.25h-186.25c-20.49,0 -37.24,-16.76 -37.24,-37.25v-148.99c0,-20.49 16.75,-37.24 37.24,-37.24v-55.87c0,-51.4 41.72,-93.12 93.12,-93.12c51.4,0 93.12,41.72 93.12,93.12v55.87c20.49,0 37.24,16.75 37.24,37.24zM847.23,605.12c0,-30.91 -24.96,-55.87 -55.87,-55.87c-30.91,0 -55.87,24.96 -55.87,55.87v55.87h111.74z" fill="currentColor"/>
		</g>
	</g>
</svg>