<svg version="1.1" xmlns="http://www.w3.org/2000/svg" xmlns:xlink="http://www.w3.org/1999/xlink" viewBox="0,0,1024,1024">
	<!-- Color names: teamapps-color-1 -->
	<desc>new_releases icon - Licensed under Apache License v2.0 (http://www.apache.org/licenses/LICENSE-2.0) - Created with Iconfu.com - Derivative work of Material icons (Copyright Google Inc.)</desc>
	<g fill="none" fill-rule="nonzero" style="mix-blend-mode: normal">
		<g color="#039be5" class="teamapps-color-1">
			<path d="M898.17,637.42l10.09,109.23c3,32.48 -18.53,62.16 -50.35,69.39l-107.23,24.35l-56.13,94.45c-16.67,28.06 -51.56,39.4 -81.55,26.53l-100.9,-43.33l-100.93,43.64c-30.01,12.98 -64.99,1.65 -81.7,-26.46l-56.13,-94.45l-107.23,-24.36c-31.8,-7.23 -53.34,-36.89 -50.34,-69.37l10.09,-109.6l-72.44,-82.53c-21.51,-24.51 -21.54,-61.15 -0.08,-85.7l72.51,-82.92l-10.09,-109.29c-3.01,-32.55 18.62,-62.27 50.51,-69.43l107.12,-24.04l56.08,-94.36c16.67,-28.06 51.56,-39.4 81.55,-26.53l100.99,43.36l100.99,-43.36c29.99,-12.88 64.88,-1.53 81.55,26.53l56.13,94.45l107.23,24.35c31.81,7.23 53.35,36.9 50.35,69.39l-10.09,109.23l72.43,82.53c21.54,24.54 21.54,61.25 0,85.78zM959.05,544.76c16.45,-18.74 16.45,-46.78 0,-65.52l-76.79,-87.49l10.69,-115.81c2.29,-24.81 -14.16,-47.48 -38.45,-53l-113.66,-25.81l-59.5,-100.12c-12.74,-21.43 -39.38,-30.1 -62.29,-20.26l-107.05,45.97l-107.05,-45.97c-22.91,-9.83 -49.55,-1.17 -62.29,20.26l-59.46,100.05l-113.58,25.48c-24.36,5.47 -40.88,28.17 -38.58,53.03l10.7,115.85l-76.85,87.88c-16.39,18.75 -16.37,46.74 0.06,65.45l76.79,87.5l-10.7,116.18c-2.28,24.81 14.16,47.47 38.45,52.98l113.66,25.82l59.5,100.12c12.76,21.47 39.48,30.12 62.4,20.21l107,-46.26l106.98,45.94c22.91,9.83 49.55,1.17 62.29,-20.26l59.5,-100.12l113.66,-25.81c24.3,-5.52 40.75,-28.19 38.45,-53l-10.69,-115.81zM830.85,615.55l12.66,137.08l-134.46,30.54l-70.4,118.45l-126.65,-54.38l-126.65,54.75l-70.4,-118.45l-134.46,-30.55l12.66,-137.45l-90.88,-103.55l90.88,-103.92l-12.66,-137.07l134.46,-30.17l70.4,-118.45l126.65,54.38l126.65,-54.38l70.4,118.45l134.46,30.54l-12.66,137.08l90.88,103.55zM549.25,325.76h-74.5v223.49h74.5zM549.25,623.74h-74.5v74.49h74.5z" fill="currentColor"/>
		</g>
	</g>
</svg>