<svg version="1.1" xmlns="http://www.w3.org/2000/svg" xmlns:xlink="http://www.w3.org/1999/xlink" viewBox="0,0,1024,1024">
	<!-- Color names: teamapps-color-1 -->
	<desc>nfc icon - Licensed under Apache License v2.0 (http://www.apache.org/licenses/LICENSE-2.0) - Created with Iconfu.com - Derivative work of Material icons (Copyright Google Inc.)</desc>
	<g fill="none" fill-rule="nonzero" style="mix-blend-mode: normal">
		<g color="#039be5" class="teamapps-color-1">
			<path d="M949.51,214.02v595.96c0,76.88 -62.64,139.53 -139.53,139.53h-595.96c-76.88,0 -139.53,-62.64 -139.53,-139.53v-595.96c0,-76.88 62.64,-139.53 139.53,-139.53h595.96c76.88,0 139.53,62.64 139.53,139.53zM809.98,89.85h-595.96c-68.4,0 -124.17,55.77 -124.17,124.17v595.96c0,68.4 55.77,124.17 124.17,124.17h595.96c68.4,0 124.17,-55.77 124.17,-124.17v-595.96c0,-68.4 -55.77,-124.17 -124.17,-124.17zM884.48,214.02v595.96c0,40.97 -33.53,74.5 -74.5,74.5h-595.96c-40.97,0 -74.5,-33.53 -74.5,-74.5v-595.96c0,-40.97 33.53,-74.5 74.5,-74.5h595.96c40.97,0 74.5,33.53 74.5,74.5zM809.98,214.02h-595.96v595.96h595.96zM735.49,735.49h-446.98v-446.98h148.99v74.49h-74.5v297.99h297.99v-297.99h-111.74v84.93c22.35,12.67 37.24,36.51 37.24,64.07c0,40.97 -33.52,74.49 -74.49,74.49c-40.97,0 -74.49,-33.52 -74.49,-74.49c0,-27.56 14.89,-51.04 37.24,-64.07v-84.93c0,-40.97 33.53,-74.49 74.5,-74.49h186.24z" fill="currentColor"/>
		</g>
	</g>
</svg>