<svg version="1.1" xmlns="http://www.w3.org/2000/svg" xmlns:xlink="http://www.w3.org/1999/xlink" viewBox="0,0,1024,1024">
	<!-- Color names: teamapps-color-1 -->
	<desc>pages icon - Licensed under Apache License v2.0 (http://www.apache.org/licenses/LICENSE-2.0) - Created with Iconfu.com - Derivative work of Material icons (Copyright Google Inc.)</desc>
	<g fill="none" fill-rule="nonzero" style="mix-blend-mode: normal">
		<g color="#039be5" class="teamapps-color-1">
			<path d="M912.26,549.25v223.49c0,76.88 -62.64,139.52 -139.52,139.52h-223.49c-13.85,0 -26.7,-4.34 -37.25,-11.72c-10.55,7.38 -23.4,11.72 -37.25,11.72h-223.49c-76.88,0 -139.52,-62.64 -139.52,-139.52v-223.49c0,-13.85 4.34,-26.7 11.72,-37.25c-7.38,-10.55 -11.72,-23.4 -11.72,-37.25v-223.49c0,-76.88 62.64,-139.52 139.52,-139.52h223.49c13.85,0 26.7,4.34 37.25,11.72c10.55,-7.38 23.4,-11.72 37.25,-11.72h223.49c76.88,0 139.52,62.64 139.52,139.52v223.49c0,13.85 -4.34,26.7 -11.72,37.25c7.38,10.55 11.72,23.4 11.72,37.25zM880.08,512c10.31,-9.1 16.82,-22.42 16.82,-37.25v-223.49c0,-68.4 -55.76,-124.16 -124.16,-124.16h-223.49c-14.83,0 -28.15,6.5 -37.25,16.82c-9.1,-10.31 -22.42,-16.82 -37.25,-16.82h-223.49c-68.4,0 -124.16,55.76 -124.16,124.16v223.49c0,14.83 6.5,28.15 16.82,37.25c-10.31,9.1 -16.82,22.42 -16.82,37.25v223.49c0,68.4 55.76,124.16 124.16,124.16h223.49c14.83,0 28.15,-6.5 37.25,-16.82c9.1,10.31 22.42,16.82 37.25,16.82h223.49c68.4,0 124.16,-55.76 124.16,-124.16v-223.49c0,-14.83 -6.5,-28.15 -16.82,-37.25zM660.99,549.25h186.24v223.49c0,40.97 -33.52,74.49 -74.49,74.49h-223.49v-186.24l148.99,37.24zM325.76,698.24l148.99,-37.24v186.24h-223.49c-40.97,0 -74.49,-33.52 -74.49,-74.49v-223.49h186.24zM847.23,251.26v223.49h-186.24l37.24,-148.99l-148.99,37.24v-186.24h223.49c40.97,0 74.49,33.52 74.49,74.49zM251.26,176.77h223.49v186.24l-148.99,-37.24l37.24,148.99h-186.24v-223.49c0,-40.97 33.52,-74.49 74.49,-74.49z" fill="currentColor"/>
		</g>
	</g>
</svg>