<svg version="1.1" xmlns="http://www.w3.org/2000/svg" xmlns:xlink="http://www.w3.org/1999/xlink" viewBox="0,0,1024,1024">
	<!-- Color names: teamapps-color-1 -->
	<desc>panorama_vertical icon - Licensed under Apache License v2.0 (http://www.apache.org/licenses/LICENSE-2.0) - Created with Iconfu.com - Derivative work of Material icons (Copyright Google Inc.)</desc>
	<g fill="none" fill-rule="nonzero" style="mix-blend-mode: normal">
		<g color="#039be5" class="teamapps-color-1">
			<path d="M875.38,863.25c0,53.01 -43.05,86.26 -88.49,86.26h-549.41c-46.64,0 -88.49,-34.01 -88.49,-86.26c0,-11.51 2.27,-23.79 7.22,-35.68c37.54,-101.81 56.47,-208.72 56.47,-315.57c0,-107.38 -19.12,-214.75 -57.34,-316.92c-0.06,-0.15 -0.11,-0.3 -0.17,-0.45c-3.5,-9.61 -6.19,-21.01 -6.19,-33.89c0,-53.44 42.74,-86.26 88.49,-86.26h549.03c45.75,0 88.49,32.81 88.49,86.26c0,12.07 -2.49,23.72 -6.17,33.82c-0.04,0.1 -0.07,0.19 -0.11,0.29c-37.92,102.27 -57.04,209.75 -57.04,317.14c0,107.52 18.79,214.89 56.96,316.92c0.06,0.15 0.11,0.3 0.17,0.45c3.58,9.82 5.4,18.99 6.24,27.37c0.22,2.16 0.33,4.34 0.33,6.52zM859.77,858.28c-0.73,-7.28 -2.3,-15.18 -5.39,-23.65c-0.04,-0.11 -0.08,-0.22 -0.12,-0.33c-38.83,-103.8 -57.94,-212.99 -57.94,-322.3c0,-109.21 19.45,-218.5 58,-322.48c0.03,-0.07 0.05,-0.14 0.08,-0.21c3.17,-8.68 5.24,-18.56 5.24,-28.56c0,-43.64 -34.48,-70.9 -73.13,-70.9h-549.03c-38.65,0 -73.13,27.25 -73.13,70.9c0,10.71 2.23,20.31 5.26,28.62c0.04,0.11 0.08,0.22 0.12,0.33c38.87,103.9 58.31,213.1 58.31,322.3c0,108.77 -19.29,217.59 -57.54,321.2c-4.24,10.07 -6.16,20.44 -6.16,30.06c0,42.66 33.84,70.9 73.13,70.9h549.41c38.32,0 73.13,-27.67 73.13,-70.9c0,-1.66 -0.08,-3.32 -0.25,-4.98zM810.36,863.25c0,12.29 -8.94,21.23 -23.47,21.23h-549.41c-14.9,0 -23.47,-8.94 -23.47,-21.23c0,-3.35 0.74,-7.46 2.6,-11.55c40.6,-109.51 61.09,-224.61 61.09,-339.7c0,-115.1 -20.49,-230.19 -61.46,-339.7c-1.49,-4.09 -2.23,-7.82 -2.23,-11.55c0,-12.67 8.56,-21.23 23.47,-21.23h549.03c14.9,0 23.47,8.56 23.47,21.23c0,3.35 -0.74,7.46 -2.23,11.55c-40.6,109.51 -61.08,224.61 -61.08,339.7c0,115.1 20.11,230.19 61.08,339.7c1.49,4.09 2.23,7.82 2.61,11.55zM715,809.98c-28.68,-96.84 -43.2,-196.67 -43.2,-297.98c0,-101.31 14.53,-201.14 43.2,-297.98h-406.37c28.68,96.84 43.2,196.67 43.2,297.98c0,101.31 -14.53,201.14 -43.2,297.98z" fill="currentColor"/>
		</g>
	</g>
</svg>