<svg version="1.1" xmlns="http://www.w3.org/2000/svg" xmlns:xlink="http://www.w3.org/1999/xlink" viewBox="0,0,1024,1024">
	<!-- Color names: teamapps-color-1 -->
	<desc>payment icon - Licensed under Apache License v2.0 (http://www.apache.org/licenses/LICENSE-2.0) - Created with Iconfu.com - Derivative work of Material icons (Copyright Google Inc.)</desc>
	<g fill="none" fill-rule="nonzero" style="mix-blend-mode: normal">
		<g color="#039be5" class="teamapps-color-1">
			<path d="M949.51,288.51v446.98c0,77.27 -62.28,139.52 -139.53,139.52h-595.96c-77.25,0 -139.53,-62.25 -139.53,-139.52l0.38,-447.01c0.01,-76.81 61.47,-139.48 139.15,-139.48h595.96c77.25,0 139.53,62.25 139.53,139.52zM809.98,164.35h-595.96c-69.09,0 -123.78,55.69 -123.79,124.13l-0.38,447c0,68.78 55.4,124.16 124.17,124.16h595.96c68.77,0 124.17,-55.38 124.17,-124.16v-446.98c0,-68.78 -55.4,-124.16 -124.17,-124.16zM884.48,288.51v446.98c0,41.35 -33.16,74.49 -74.5,74.49h-595.96c-41.35,0 -74.5,-33.15 -74.5,-74.49l0.38,-446.98c0,-41.35 32.78,-74.49 74.13,-74.49h595.96c41.35,0 74.5,33.15 74.5,74.49zM809.98,512h-595.96v223.49h595.96zM809.98,288.51h-595.96v74.49h595.96z" fill="currentColor"/>
		</g>
	</g>
</svg>