<svg version="1.1" xmlns="http://www.w3.org/2000/svg" xmlns:xlink="http://www.w3.org/1999/xlink" viewBox="0,0,1024,1024">
	<!-- Color names: teamapps-color-1 -->
	<desc>perm_phone_msg icon - Licensed under Apache License v2.0 (http://www.apache.org/licenses/LICENSE-2.0) - Created with Iconfu.com - Derivative work of Material icons (Copyright Google Inc.)</desc>
	<g fill="none" fill-rule="nonzero" style="mix-blend-mode: normal">
		<g color="#039be5" class="teamapps-color-1">
			<path d="M912.26,679.62v130.37c0,56.4 -45.87,102.27 -102.27,102.27c-385.67,0 -698.24,-312.57 -698.24,-698.24c0,-56.4 45.87,-102.27 102.27,-102.27h130.37c56.4,0 102.27,45.87 102.27,102.27c0,5.14 0.11,10.24 0.32,15.31v-52.56c0,-35.91 29.11,-65.02 65.02,-65.02h335.23c35.91,0 65.02,29.11 65.02,65.02v260.74c0,35.91 -29.11,65.02 -65.02,65.02h-196.55l-92.7,92.7c-10.33,10.33 -23.55,16.64 -37.43,18.48c8.33,6.03 16.85,11.81 25.55,17.32l47.78,-47.77c28.18,-27.16 67.7,-35.13 102.61,-24.16c0.27,0.08 0.53,0.17 0.8,0.26c35.19,11.63 73.12,17.98 112.69,17.98c56.4,0 102.27,45.87 102.27,102.27zM439.28,430.85l-46.72,46.93c15.99,25.19 34.23,48.84 54.42,70.68v-126.03c-2.37,2.91 -4.94,5.72 -7.7,8.43zM809.98,592.7c-41.22,0 -80.77,-6.62 -117.51,-18.76c-0.19,-0.06 -0.39,-0.13 -0.58,-0.19c-29.75,-9.35 -63.37,-2.55 -87.35,20.57l-56.16,56.16c-71.78,-43.08 -132.19,-103.29 -175.26,-174.94l55.35,-55.59c24.73,-24.18 30.96,-58.64 21.75,-87.94c-0.06,-0.2 -0.12,-0.39 -0.19,-0.58c-12.13,-36.72 -18.72,-76.16 -18.72,-117.39c0,-47.92 -39,-86.91 -86.91,-86.91h-130.37c-47.92,0 -86.91,39 -86.91,86.91c0,377.19 305.69,682.88 682.88,682.88c47.92,0 86.91,-39 86.91,-86.91v-130.37c0,-47.92 -39,-86.91 -86.91,-86.91zM847.23,127.1h-335.23c-27.43,0 -49.66,22.24 -49.66,49.66v372.48c0,20.09 12.1,38.2 30.66,45.88c18.56,7.69 39.92,3.44 54.12,-10.77l97.2,-97.2h202.92c27.43,0 49.66,-22.24 49.66,-49.66v-260.74c0,-27.43 -22.24,-49.66 -49.66,-49.66zM847.23,679.62v130.37c0,20.49 -16.76,37.25 -37.25,37.25c-349.76,0 -633.21,-283.45 -633.21,-633.21c0,-20.49 16.76,-37.25 37.25,-37.25h130.37c20.49,0 37.25,16.76 37.25,37.25c0,46.56 7.45,91.25 21.23,132.98c4.09,13.03 1.12,27.56 -9.31,37.62l-81.95,82.32c53.64,105.41 140.06,191.46 245.47,245.09l81.94,-81.95c10.43,-10.06 24.96,-13.03 37.99,-8.94c41.72,13.78 86.42,21.23 132.98,21.23c20.49,0 37.25,16.76 37.25,37.25zM847.23,176.77v260.74h-223.49l-111.74,111.74v-372.48z" fill="currentColor"/>
		</g>
	</g>
</svg>