<svg version="1.1" xmlns="http://www.w3.org/2000/svg" xmlns:xlink="http://www.w3.org/1999/xlink" viewBox="0,0,1024,1024">
	<!-- Color names: teamapps-color-1 -->
	<desc>person icon - Licensed under Apache License v2.0 (http://www.apache.org/licenses/LICENSE-2.0) - Created with Iconfu.com - Derivative work of Material icons (Copyright Google Inc.)</desc>
	<g fill="none" fill-rule="nonzero" style="mix-blend-mode: normal">
		<g color="#039be5" class="teamapps-color-1">
			<path d="M875.01,735.49v74.49c0,35.91 -29.11,65.02 -65.02,65.02h-595.96c-35.91,0 -65.02,-29.11 -65.02,-65.02v-74.49c0,-118.68 134.69,-174.59 238.84,-198.13c-54.37,-38.79 -89.85,-102.41 -89.85,-174.35c0,-118.23 95.8,-214.01 214.02,-214.01c118.22,0 214.02,95.78 214.02,214.01c0,71.94 -35.48,135.56 -89.85,174.35c104.15,23.54 238.84,79.46 238.84,198.13zM592.82,544.55c69.45,-30.95 117.84,-100.58 117.84,-181.54c0,-109.75 -88.92,-198.65 -198.66,-198.65c-109.74,0 -198.66,88.9 -198.66,198.65c0,80.96 48.39,150.59 117.84,181.54c-109.94,18.09 -266.83,71.09 -266.83,190.94v74.49c0,27.43 22.24,49.66 49.66,49.66h595.96c27.43,0 49.66,-22.24 49.66,-49.66v-74.49c0,-119.85 -156.89,-172.85 -266.83,-190.94zM809.98,735.49v74.49h-595.96v-74.49c0,-99.08 198.53,-148.99 297.98,-148.99c99.45,0 297.98,49.92 297.98,148.99zM363.01,363.01c0,-82.32 66.68,-148.99 148.99,-148.99c82.32,0 148.99,66.67 148.99,148.99c0,82.32 -66.68,148.99 -148.99,148.99c-82.32,0 -148.99,-66.68 -148.99,-148.99z" fill="currentColor"/>
		</g>
	</g>
</svg>