<svg version="1.1" xmlns="http://www.w3.org/2000/svg" xmlns:xlink="http://www.w3.org/1999/xlink" viewBox="0,0,1024,1024">
	<!-- Color names: teamapps-color-1 -->
	<desc>phone_locked icon - Licensed under Apache License v2.0 (http://www.apache.org/licenses/LICENSE-2.0) - Created with Iconfu.com - Derivative work of Material icons (Copyright Google Inc.)</desc>
	<g fill="none" fill-rule="nonzero" style="mix-blend-mode: normal">
		<g color="#039be5" class="teamapps-color-1">
			<path d="M912.26,679.62v130.37c0,56.4 -45.87,102.27 -102.27,102.27c-385.67,0 -698.24,-312.57 -698.24,-698.24c0,-56.4 45.87,-102.27 102.27,-102.27h130.37c56.4,0 102.27,45.87 102.27,102.27c0,39.58 6.33,77.4 17.95,112.58c0.09,0.27 0.17,0.53 0.26,0.8c10.57,33.66 4.04,74.71 -25.91,103.4l-46.45,46.67c39.15,61.88 91.77,114.39 153.61,153.57l47.78,-47.77c28.18,-27.16 67.7,-35.13 102.61,-24.16c0.27,0.08 0.53,0.17 0.8,0.26c35.19,11.63 73.12,17.98 112.69,17.98c56.4,0 102.27,45.87 102.27,102.27zM912.26,251.26v148.99c0,56.4 -45.87,102.27 -102.27,102.27h-186.24c-56.4,0 -102.27,-45.87 -102.27,-102.27v-148.99c0,-32.68 15.38,-61.72 39.15,-80.4c11.8,-75.68 77.28,-133.61 156.25,-133.61c78.98,0 144.44,57.93 156.24,133.61c23.76,18.68 39.15,47.72 39.15,80.4zM809.98,592.7c-41.22,0 -80.77,-6.62 -117.51,-18.76c-0.19,-0.06 -0.39,-0.13 -0.58,-0.19c-29.75,-9.35 -63.37,-2.55 -87.35,20.57l-56.16,56.16c-71.81,-43.1 -132.23,-103.37 -175.31,-175.27l55.13,-55.38c25.33,-24.17 31.07,-58.98 22.01,-87.83c-0.06,-0.2 -0.12,-0.39 -0.19,-0.58c-12.13,-36.72 -18.72,-76.16 -18.72,-117.39c0,-47.92 -39,-86.91 -86.91,-86.91h-130.37c-47.92,0 -86.91,39 -86.91,86.91c0,377.19 305.69,682.88 682.88,682.88c47.92,0 86.91,-39 86.91,-86.91v-130.37c0,-47.92 -39,-86.91 -86.91,-86.91zM858.76,179.38c-7.96,-71.3 -68.47,-126.77 -141.89,-126.77c-73.41,0 -133.93,55.46 -141.9,126.77c-22.98,15.63 -38.14,41.97 -38.14,71.88v148.99c0,47.92 39,86.91 86.91,86.91h186.24c47.92,0 86.91,-39 86.91,-86.91v-148.99c0,-29.91 -15.16,-56.25 -38.14,-71.88zM847.23,679.62v130.37c0,20.49 -16.76,37.25 -37.25,37.25c-349.76,0 -633.21,-283.45 -633.21,-633.21c0,-20.49 16.76,-37.25 37.25,-37.25h130.37c20.49,0 37.25,16.76 37.25,37.25c0,46.56 7.45,91.25 21.23,132.98c4.09,13.03 1.12,27.56 -9.31,37.24l-81.95,82.32c53.64,105.78 140.06,191.82 245.47,245.46l81.94,-81.95c10.43,-10.06 24.96,-13.03 37.99,-8.94c41.72,13.78 86.42,21.23 132.98,21.23c20.49,0 37.25,16.76 37.25,37.25zM847.23,251.26v148.99c0,20.49 -16.76,37.25 -37.25,37.25h-186.24c-20.49,0 -37.25,-16.76 -37.25,-37.25v-148.99c0,-20.49 16.76,-37.24 37.25,-37.24v-18.63c0,-51.4 41.72,-93.11 93.12,-93.11c51.4,0 93.11,41.71 93.11,93.11v18.63c20.49,0 37.25,16.75 37.25,37.24zM780.19,195.39c0,-35.02 -28.3,-63.32 -63.32,-63.32c-35.02,0 -63.33,28.3 -63.33,63.32v18.63h126.65z" fill="currentColor"/>
		</g>
	</g>
</svg>