<svg version="1.1" xmlns="http://www.w3.org/2000/svg" xmlns:xlink="http://www.w3.org/1999/xlink" viewBox="0,0,1024,1024">
	<!-- Color names: teamapps-color-1 -->
	<desc>phonelink_off icon - Licensed under Apache License v2.0 (http://www.apache.org/licenses/LICENSE-2.0) - Created with Iconfu.com - Derivative work of Material icons (Copyright Google Inc.)</desc>
	<g fill="none" fill-rule="nonzero" style="mix-blend-mode: normal">
		<g color="#039be5" class="teamapps-color-1">
			<path d="M906.25,896.18l-47.3,47.31c-25.39,25.4 -66.57,25.4 -91.96,0l-68.49,-68.49h-633.47c-35.91,0 -65.02,-29.11 -65.02,-65.02v-111.74c0,-35.91 29.11,-65.02 65.02,-65.02h9.47v-344.7c0,-11.53 1.46,-22.71 4.15,-33.35l-35.39,-35.38c-25.4,-25.39 -25.4,-66.57 0,-91.96l47.31,-47.31c25.39,-25.39 66.56,-25.39 91.96,0l89.07,89.07c12.07,-12.89 29.14,-20.58 47.47,-20.58h565.42c35.91,0 65.02,29.11 65.02,65.02v74.49c0,4.43 -0.44,8.76 -1.29,12.95c43.6,11.7 75.79,51.54 75.79,98.79v372.48c0,56.42 -45.9,102.27 -102.27,102.27l-1.32,-0.03c-3.18,7.72 -7.9,14.96 -14.16,21.21zM909.1,859.29l12.63,0.35c47.9,0 86.91,-38.97 86.91,-86.91v-372.48c0,-46.01 -35.96,-83.8 -81.24,-86.73c4.29,-7.35 6.75,-15.89 6.75,-25.01v-74.49c0,-27.43 -22.24,-49.66 -49.66,-49.66h-565.42c-19.55,0 -37.22,11.46 -45.24,29.17l-102.16,-102.16c-19.4,-19.39 -50.84,-19.39 -70.24,0l-47.31,47.31c-19.4,19.4 -19.39,50.84 0,70.24l41.81,41.8c-3.91,11.85 -6.07,24.55 -6.07,37.8v360.06h-24.83c-27.43,0 -49.66,22.24 -49.66,49.66v111.74c0,27.43 22.24,49.66 49.66,49.66h639.84l72.99,72.99c19.4,19.4 50.84,19.39 70.24,0l47.3,-47.31c7.38,-7.38 11.95,-16.5 13.71,-26.03zM860.27,850.21l-47.3,47.31l-87.54,-87.54h-660.41v-111.74h74.49v-409.73c0,-17.88 6.71,-34.27 17.51,-46.93l-67.8,-67.79l47.31,-47.31zM214.02,698.24h399.67l-399.67,-399.67zM958.98,400.26v372.48c0,20.49 -16.76,37.24 -37.25,37.24h-6.7l-111.74,-111.74h81.21v-260.73h-148.99v192.94l-74.49,-74.49v-155.7c0,-20.49 16.75,-37.25 37.24,-37.25h223.49c20.49,0 37.25,16.76 37.25,37.25zM393.55,288.51l-74.49,-74.49h565.42v74.49z" fill="currentColor"/>
		</g>
	</g>
</svg>