<svg version="1.1" xmlns="http://www.w3.org/2000/svg" xmlns:xlink="http://www.w3.org/1999/xlink" viewBox="0,0,1024,1024">
	<!-- Color names: teamapps-color-1 -->
	<desc>photo_camera icon - Licensed under Apache License v2.0 (http://www.apache.org/licenses/LICENSE-2.0) - Created with Iconfu.com - Derivative work of Material icons (Copyright Google Inc.)</desc>
	<g fill="none" fill-rule="nonzero" style="mix-blend-mode: normal">
		<g color="#039be5" class="teamapps-color-1">
			<path d="M671.72,95.62l48.83,53.37h89.43c76.87,0 139.53,62.63 139.53,139.52v446.98c0,76.89 -62.65,139.52 -139.53,139.52h-595.96c-76.87,0 -139.53,-62.63 -139.53,-139.52v-446.98c0,-76.89 62.65,-139.52 139.53,-139.52h89.43l48.83,-53.37c12.32,-13.46 29.73,-21.13 47.97,-21.13h223.49c18.25,0 35.66,7.67 47.97,21.13zM623.74,89.85h-223.49c-13.94,0 -27.23,5.86 -36.64,16.14l-53.4,58.36h-96.2c-68.39,0 -124.17,55.75 -124.17,124.16v446.98c0,68.41 55.78,124.16 124.17,124.16h595.96c68.39,0 124.17,-55.75 124.17,-124.16v-446.98c0,-68.41 -55.78,-124.16 -124.17,-124.16h-96.2l-53.4,-58.36c-9.41,-10.28 -22.7,-16.14 -36.64,-16.14zM392.81,512c0,-65.83 53.36,-119.19 119.19,-119.19c65.83,0 119.19,53.36 119.19,119.19c0,65.83 -53.36,119.19 -119.19,119.19c-65.83,0 -119.19,-53.36 -119.19,-119.19zM623.74,139.52l68.16,74.5h118.07c40.97,0 74.5,33.52 74.5,74.49v446.98c0,40.97 -33.53,74.49 -74.5,74.49h-595.96c-40.97,0 -74.5,-33.52 -74.5,-74.49v-446.98c0,-40.97 33.53,-74.49 74.5,-74.49h118.07l68.16,-74.5zM698.24,512c0,-102.8 -83.43,-186.24 -186.24,-186.24c-102.8,0 -186.24,83.43 -186.24,186.24c0,102.8 83.43,186.24 186.24,186.24c102.8,0 186.24,-83.43 186.24,-186.24z" fill="currentColor"/>
		</g>
	</g>
</svg>