<svg version="1.1" xmlns="http://www.w3.org/2000/svg" xmlns:xlink="http://www.w3.org/1999/xlink" viewBox="0,0,1024,1024">
	<!-- Color names: teamapps-color-1 -->
	<desc>photo_filter icon - Licensed under Apache License v2.0 (http://www.apache.org/licenses/LICENSE-2.0) - Created with Iconfu.com - Derivative work of Material icons (Copyright Google Inc.)</desc>
	<g fill="none" fill-rule="nonzero" style="mix-blend-mode: normal">
		<g color="#039be5" class="teamapps-color-1">
			<path d="M913,437.51v335.23c0,76.88 -62.64,139.52 -139.52,139.52h-521.47c-76.87,0 -139.53,-62.63 -139.53,-139.52v-521.48c0,-76.89 62.65,-139.52 139.53,-139.52h334.48c33.37,0 60.86,25.13 64.59,57.5c12.07,-12.71 29.01,-20.24 47.15,-20.24c25.46,0 48.59,14.86 59.16,38.03l24.94,54.65l54.65,24.94c23.17,10.57 38.03,33.69 38.03,59.16c0,18.1 -7.51,35.01 -20.17,47.07c32.69,3.43 58.16,31.07 58.16,64.67zM847.97,387.84h-54.41l37.03,-16.9c17.69,-8.07 29.05,-25.73 29.05,-45.18c0,-19.45 -11.35,-37.11 -29.04,-45.18l-59.86,-27.32l-27.32,-59.86c-8.07,-17.69 -25.73,-29.05 -45.18,-29.04c-19.45,0 -37.11,11.35 -45.18,29.05l-16.9,37.03v-53.67c0,-27.43 -22.24,-49.66 -49.66,-49.66h-334.48c-68.39,0 -124.17,55.75 -124.17,124.16v521.48c0,68.41 55.78,124.16 124.17,124.16h521.47c68.4,0 124.16,-55.76 124.16,-124.16v-335.23c0,-27.43 -22.24,-49.66 -49.66,-49.66zM847.97,437.51v335.23c0,40.97 -33.52,74.49 -74.49,74.49h-521.47c-40.97,0 -74.5,-33.52 -74.5,-74.49v-521.48c0,-40.97 33.53,-74.49 74.5,-74.49h334.48v74.49h-335.23v521.48h522.22v-335.23zM660.99,512l-102.44,46.56l-46.56,102.44l-46.56,-102.44l-102.44,-46.56l102.44,-46.56l46.56,-102.44l46.56,102.44zM663.23,360.77l-76.74,-35.01l76.74,-35.02l35.01,-76.73l35.02,76.73l76.73,35.02l-76.73,35.01l-35.02,76.74z" fill="currentColor"/>
		</g>
	</g>
</svg>