<svg version="1.1" xmlns="http://www.w3.org/2000/svg" xmlns:xlink="http://www.w3.org/1999/xlink" viewBox="0,0,1024,1024">
	<!-- Color names: teamapps-color-1 -->
	<desc>polymer icon - Licensed under Apache License v2.0 (http://www.apache.org/licenses/LICENSE-2.0) - Created with Iconfu.com - Derivative work of Material icons (Copyright Google Inc.)</desc>
	<g fill="none" fill-rule="nonzero" style="mix-blend-mode: normal">
		<g color="#039be5" class="teamapps-color-1">
			<path d="M997.03,543.88l-167.62,297.98c-11.52,20.47 -33.18,33.15 -56.67,33.15h-148.99c-23.1,0 -44.47,-12.26 -56.13,-32.2c-11.66,-19.94 -11.87,-44.57 -0.54,-64.71l149.66,-266.07l-25.46,-45.17l-235.87,377.57c-11.88,19.02 -32.72,30.57 -55.15,30.57h-148.99c-23.49,0 -45.16,-12.67 -56.67,-33.15l-167.62,-297.98c-11.13,-19.79 -11.13,-43.96 0,-63.76l167.62,-297.98c11.52,-20.47 33.18,-33.15 56.67,-33.15h148.99c23.1,0 44.47,12.26 56.13,32.2c11.66,19.94 11.87,44.57 0.54,64.71l-149.66,266.07l25.46,45.17l235.87,-377.57c11.88,-19.02 32.72,-30.57 55.15,-30.57h148.99c23.49,0 45.16,12.67 56.67,33.15l167.62,297.98c11.13,19.79 11.13,43.96 0,63.76zM983.64,487.65l-167.62,-297.98c-8.8,-15.64 -25.34,-25.32 -43.29,-25.32h-148.99c-17.13,0 -33.05,8.83 -42.12,23.35l-249.57,399.51l-42.41,-75.24l153.91,-273.61c8.65,-15.38 8.49,-34.19 -0.42,-49.42c-8.91,-15.23 -25.23,-24.59 -42.87,-24.59h-148.99c-17.94,0 -34.49,9.68 -43.29,25.32l-167.62,297.98c-8.5,15.12 -8.5,33.58 0,48.7l167.62,297.98c8.8,15.64 25.34,25.32 43.29,25.32h148.99c17.13,0 33.05,-8.83 42.12,-23.35l249.57,-399.51l42.41,75.24l-153.91,273.61c-8.65,15.38 -8.49,34.19 0.42,49.42c8.91,15.23 25.23,24.59 42.87,24.59h148.99c17.94,0 34.49,-9.68 43.29,-25.32l167.62,-297.98c8.5,-15.12 8.5,-33.58 0,-48.7zM940.35,512l-167.62,297.98h-148.99l167.62,-297.98l-97.22,-172.46l-293.89,470.44h-148.99l-167.62,-297.98l167.62,-297.98h148.99l-167.62,297.98l97.22,172.46l293.89,-470.44h148.99z" fill="currentColor"/>
		</g>
	</g>
</svg>