<svg version="1.1" xmlns="http://www.w3.org/2000/svg" xmlns:xlink="http://www.w3.org/1999/xlink" viewBox="0,0,1024,1024">
	<!-- Color names: teamapps-color-1 -->
	<desc>power_settings_new icon - Licensed under Apache License v2.0 (http://www.apache.org/licenses/LICENSE-2.0) - Created with Iconfu.com - Derivative work of Material icons (Copyright Google Inc.)</desc>
	<g fill="none" fill-rule="nonzero" style="mix-blend-mode: normal">
		<g color="#039be5" class="teamapps-color-1">
			<path d="M912.26,512c0,221.03 -179.22,400.26 -400.26,400.26c-221.03,0 -400.26,-179.22 -400.26,-400.26c0,-122.1 54.94,-230.76 140.97,-303.93c25.81,-21.95 64.15,-20.41 88.11,3.55l52.52,52.52c7.76,7.76 13.34,17.26 16.39,27.57v-114.94c0,-35.91 29.11,-65.02 65.02,-65.02h74.5c35.91,0 65.02,29.11 65.02,65.02v114.08c3.12,-9.83 8.56,-18.9 16.01,-26.35l52.9,-52.89c23.96,-23.95 62.3,-25.5 88.1,-3.55c86.03,73.17 140.97,181.84 140.97,303.93zM388.45,360.52c-44.07,35.93 -72.16,90.38 -72.16,151.48c0,108.24 87.48,195.71 195.71,195.71c108.24,0 195.71,-87.48 195.71,-195.71c0,-61.11 -28.09,-115.38 -72.19,-150.84c-10.08,-8.1 -17.41,-18.94 -21.25,-31.04v219.13c0,35.91 -29.11,65.02 -65.02,65.02h-74.5c-35.91,0 -65.02,-29.11 -65.02,-65.02v-220.72c-3.68,12.45 -11.03,23.64 -21.28,31.99zM761.34,219.77c-19.71,-16.77 -48.99,-15.59 -67.29,2.71l-52.9,52.89c-9.98,9.97 -15.24,23.72 -14.48,37.81c0.76,14.09 7.48,27.18 18.47,36.02c47.59,38.26 77.93,96.87 77.93,162.81c0,116.72 -94.35,211.07 -211.07,211.07c-116.72,0 -211.07,-94.35 -211.07,-211.07c0,-65.93 30.34,-124.68 77.82,-163.39c10.89,-8.88 17.51,-21.95 18.22,-35.98c0.71,-14.03 -4.55,-27.7 -14.48,-37.64l-52.52,-52.52c-18.3,-18.3 -47.58,-19.48 -67.29,-2.71c-82.78,70.41 -135.56,174.87 -135.56,292.23c0,212.55 172.35,384.9 384.9,384.9c212.55,0 384.9,-172.35 384.9,-384.9c0,-117.36 -52.78,-221.82 -135.56,-292.23zM598.91,549.25v-372.48c0,-27.43 -22.24,-49.66 -49.66,-49.66h-74.5c-27.43,0 -49.66,22.24 -49.66,49.66v372.48c0,27.43 22.24,49.66 49.66,49.66h74.5c27.43,0 49.66,-22.24 49.66,-49.66zM847.23,512c0,185.12 -150.11,335.23 -335.23,335.23c-185.12,0 -335.23,-150.11 -335.23,-335.23c0,-102.06 45.82,-192.94 118.07,-254.4l52.52,52.52c-58.48,47.67 -96.1,120.31 -96.1,201.88c0,144.15 116.59,260.74 260.74,260.74c144.15,0 260.74,-116.59 260.74,-260.74c0,-81.57 -37.63,-154.21 -96.48,-201.51l52.9,-52.89c72.26,61.46 118.07,152.34 118.07,254.4zM549.25,549.25h-74.5v-372.48h74.5z" fill="currentColor"/>
		</g>
	</g>
</svg>