<svg version="1.1" xmlns="http://www.w3.org/2000/svg" xmlns:xlink="http://www.w3.org/1999/xlink" viewBox="0,0,1024,1024">
	<!-- Color names: teamapps-color-1 -->
	<desc>print icon - Licensed under Apache License v2.0 (http://www.apache.org/licenses/LICENSE-2.0) - Created with Iconfu.com - Derivative work of Material icons (Copyright Google Inc.)</desc>
	<g fill="none" fill-rule="nonzero" style="mix-blend-mode: normal">
		<g color="#039be5" class="teamapps-color-1">
			<path d="M949.51,474.75v223.49c0,35.91 -29.11,65.02 -65.02,65.02h-83.97v83.97c0,35.91 -29.11,65.02 -65.02,65.02h-446.98c-35.91,0 -65.02,-29.11 -65.02,-65.02v-83.97h-83.97c-35.91,0 -65.02,-29.11 -65.02,-65.02v-223.49c0,-88.29 64.47,-161.3 148.99,-174.6v-123.38c0,-35.91 29.11,-65.02 65.02,-65.02h446.98c35.91,0 65.02,29.11 65.02,65.02v123.38c84.53,13.3 148.99,86.31 148.99,174.6zM785.15,313.81v-137.04c0,-27.43 -22.24,-49.66 -49.66,-49.66h-446.98c-27.43,0 -49.66,22.24 -49.66,49.66v137.04c-83.44,6.32 -148.99,75.85 -148.99,160.94v223.49c0,27.43 22.24,49.66 49.66,49.66h99.33v99.33c0,27.43 22.24,49.66 49.66,49.66h446.98c27.43,0 49.66,-22.24 49.66,-49.66v-99.33h99.33c27.43,0 49.66,-22.24 49.66,-49.66v-223.49c0,-85.09 -65.55,-154.62 -148.99,-160.94zM884.48,474.75v223.49h-148.99v148.99h-446.98v-148.99h-148.99v-223.49c0,-61.83 49.91,-111.74 111.74,-111.74h521.48c61.83,0 111.74,49.91 111.74,111.74zM735.49,325.76h-446.98v-148.99h446.98zM660.99,586.49h-297.99v186.25h297.99zM809.98,474.75c0,-20.49 -16.75,-37.24 -37.24,-37.24c-20.49,0 -37.25,16.75 -37.25,37.24c0,20.49 16.76,37.25 37.25,37.25c20.49,0 37.24,-16.76 37.24,-37.25z" fill="currentColor"/>
		</g>
	</g>
</svg>