<svg version="1.1" xmlns="http://www.w3.org/2000/svg" xmlns:xlink="http://www.w3.org/1999/xlink" viewBox="0,0,1024,1024">
	<!-- Color names: teamapps-color-1 -->
	<desc>record_voice_over icon - Licensed under Apache License v2.0 (http://www.apache.org/licenses/LICENSE-2.0) - Created with Iconfu.com - Derivative work of Material icons (Copyright Google Inc.)</desc>
	<g fill="none" fill-rule="nonzero" style="mix-blend-mode: normal">
		<g color="#039be5" class="teamapps-color-1">
			<path d="M763.26,772.74v74.49c0,35.91 -29.11,65.02 -65.02,65.02h-595.96c-35.91,0 -65.02,-29.11 -65.02,-65.02v-74.49c0,-118.68 134.7,-174.6 238.85,-198.14c-54.38,-38.79 -89.87,-102.41 -89.87,-174.35c0,-118.2 95.82,-214.02 214.02,-214.02c74.96,0 140.89,38.54 179.11,96.83l63.82,-64.23c12.12,-12.2 27.84,-18.54 43.67,-19.14c0.14,-16.47 6.51,-32.9 19.04,-45.44l60.72,-60.72c25.71,-25.71 67.51,-25.34 92.76,0.82c169.53,175.6 170.32,441.95 -0.86,612.68c-25.4,25.34 -66.53,25.31 -91.9,-0.06l-60.72,-60.72c-12.61,-12.61 -19,-29.2 -19.04,-45.81c-15.86,-0.59 -31.57,-6.97 -43.67,-19.14l-63.67,-64.08c-14.64,22.39 -33.35,41.86 -55.1,57.38c104.15,23.54 238.85,79.45 238.85,198.14zM481.06,581.79c42.84,-19.1 77.68,-52.92 98.08,-95.03c2.28,7.63 6.42,14.79 12.36,20.76l62.58,62.95c13.88,13.97 34.01,17.95 51.45,11.94c-6.87,17.84 -3.01,38.73 11.23,52.98l60.72,60.72c19.38,19.38 50.79,19.4 70.19,0.05c165.05,-164.63 164.55,-421.38 0.66,-591.14c-19.29,-19.98 -51.21,-20.26 -70.85,-0.62l-60.72,60.72c-14.16,14.16 -18.03,34.83 -11.4,52.55c-17.36,-5.91 -37.4,-1.97 -51.28,12l-62.58,62.95c-6,6.03 -10.16,13.28 -12.43,21c-32.19,-66.3 -100.16,-112.01 -178.82,-112.01c-109.72,0 -198.66,88.94 -198.66,198.66c0,80.94 48.41,150.58 117.86,181.54c-109.94,18.09 -266.84,71.09 -266.84,190.95v74.49c0,27.43 22.24,49.66 49.66,49.66h595.96c27.43,0 49.66,-22.24 49.66,-49.66v-74.49c0,-119.85 -156.91,-172.86 -266.84,-190.95zM251.26,400.26c0,-82.29 66.71,-148.99 148.99,-148.99c82.29,0 148.99,66.71 148.99,148.99c0,82.29 -66.71,148.99 -148.99,148.99c-82.29,0 -148.99,-66.71 -148.99,-148.99zM698.24,772.74v74.49h-595.96v-74.49c0,-99.08 198.53,-148.99 297.98,-148.99c99.45,0 297.98,49.92 297.98,148.99zM812.59,660.99l-60.72,-60.72c103.18,-118.45 103.18,-287.56 0,-400.04l60.72,-60.72c145.64,150.85 145.27,376.59 0,521.48zM689.3,535.47l-62.58,-62.95c31.29,-43.96 31.29,-100.94 0,-144.89l62.58,-62.95c75.24,81.95 75.24,195.55 0,270.8z" fill="currentColor"/>
		</g>
	</g>
</svg>