<svg version="1.1" xmlns="http://www.w3.org/2000/svg" xmlns:xlink="http://www.w3.org/1999/xlink" viewBox="0,0,1024,1024">
	<!-- Color names: teamapps-color-1 -->
	<desc>redo icon - Licensed under Apache License v2.0 (http://www.apache.org/licenses/LICENSE-2.0) - Created with Iconfu.com - Derivative work of Material icons (Copyright Google Inc.)</desc>
	<g fill="none" fill-rule="nonzero" style="mix-blend-mode: normal">
		<g color="#039be5" class="teamapps-color-1">
			<path d="M949.51,325.76v335.23c0,35.91 -29.11,65.02 -65.02,65.02h-335.23c-26.3,0 -50.01,-15.84 -60.07,-40.14c-10.06,-24.3 -4.5,-52.26 14.09,-70.86l76.72,-76.73c-26.86,-11.04 -56.06,-17.14 -86.61,-17.14c-103.25,0 -190.71,67.15 -221.32,160.17c-11.24,34.14 -48.04,52.69 -82.17,41.41l-87.9,-29.05c-34.07,-11.26 -52.58,-48 -41.35,-82.08c59.86,-181.76 230.46,-313.62 432.75,-313.62c93.22,0 179.28,28.22 251.11,75.82l94.02,-94.02c18.6,-18.6 46.56,-24.16 70.86,-14.1c24.3,10.06 40.14,33.77 40.14,60.07zM903.49,279.88c-18.56,-7.69 -39.92,-3.44 -54.12,10.77l-103.02,103.02c-71.45,-50.28 -158.4,-80.33 -252.96,-80.33c-195.41,0 -360.3,127.37 -418.16,303.06c-8.57,26.03 5.56,54.09 31.59,62.69l87.9,29.05c26.07,8.62 54.18,-5.55 62.76,-31.63c32.63,-99.12 125.82,-170.73 235.91,-170.73c40.6,0 78.95,10.1 112.99,27.84l-92.24,92.24c-14.2,14.2 -18.45,35.57 -10.76,54.12c7.69,18.56 25.8,30.66 45.88,30.66h335.23c27.43,0 49.66,-22.24 49.66,-49.66v-335.23c0,-20.09 -12.1,-38.2 -30.66,-45.88zM884.48,325.76v335.23h-335.23l134.83,-134.84c-51.78,-43.2 -118.07,-70.02 -190.71,-70.02c-132.23,0 -243.98,86.04 -283.09,204.87l-87.9,-29.05c51.4,-156.07 197.79,-268.94 370.99,-268.94c98.71,0 188.11,36.88 257.01,96.85z" fill="currentColor"/>
		</g>
	</g>
</svg>