<svg version="1.1" xmlns="http://www.w3.org/2000/svg" xmlns:xlink="http://www.w3.org/1999/xlink" viewBox="0,0,1024,1024">
	<!-- Color names: teamapps-color-1 -->
	<desc>refresh icon - Licensed under Apache License v2.0 (http://www.apache.org/licenses/LICENSE-2.0) - Created with Iconfu.com - Derivative work of Material icons (Copyright Google Inc.)</desc>
	<g fill="none" fill-rule="nonzero" style="mix-blend-mode: normal">
		<g color="#039be5" class="teamapps-color-1">
			<path d="M875.01,214.02v260.73c0,25.99 -15.25,48.42 -37.29,58.83c5.09,3.64 9.69,8.03 13.61,13.09c12.32,15.9 16.58,36.6 11.56,56.07c-40.31,156.29 -181.34,272.27 -350.89,272.27c-200.66,0 -362.64,-162.56 -362.64,-363.01c0,-200.44 161.98,-363.01 362.64,-363.01c76.84,0 147.87,24.01 206.36,64.68l45.64,-45.64c18.6,-18.6 46.56,-24.16 70.86,-14.1c24.3,10.06 40.14,33.77 40.14,60.07zM549.25,539.77c-26.3,0 -50.01,-15.84 -60.07,-40.14c-10.06,-24.3 -4.5,-52.27 14.1,-70.86l64.69,-64.69c-17.36,-6.82 -36.17,-10.55 -55.96,-10.55c-87.38,0 -158.46,71.08 -158.46,158.46c0,87.38 71.08,158.46 158.46,158.46c68.78,0 127.45,-43.99 149.12,-105.56c3.43,-9.74 9.01,-18.27 16.11,-25.13zM828.99,168.14c-18.56,-7.69 -39.92,-3.44 -54.12,10.77l-54.89,54.89c-57.92,-43.49 -129.78,-69.44 -207.97,-69.44c-192.15,0 -347.28,155.66 -347.28,347.65c0,191.99 155.13,347.65 347.28,347.65c162.31,0 297.39,-111.02 336.01,-260.75c3.84,-14.87 0.58,-30.68 -8.83,-42.82c-9.41,-12.14 -23.9,-19.25 -39.26,-19.25h-77.47c-21.07,0 -39.85,13.3 -46.85,33.18c-23.77,67.53 -88.12,115.82 -163.61,115.82c-95.87,0 -173.82,-77.96 -173.82,-173.82c0,-95.87 77.96,-173.82 173.82,-173.82c29.86,0 57.76,7.74 82.22,21.37l-80.08,80.08c-14.2,14.2 -18.45,35.57 -10.77,54.12c7.69,18.56 25.8,30.66 45.88,30.66h260.73c27.43,0 49.66,-22.24 49.66,-49.66v-260.73c0,-20.09 -12.1,-38.2 -30.66,-45.88zM809.98,214.02v260.73h-260.73l119.93,-119.93c-40.23,-40.6 -95.35,-66.3 -157.18,-66.3c-123.29,0 -223.49,100.19 -223.49,223.49c0,123.29 100.19,223.49 223.49,223.49c97.22,0 179.91,-62.21 210.45,-148.99h77.47c-33.15,128.51 -148.99,223.49 -287.92,223.49c-164.64,0 -297.61,-133.34 -297.61,-297.98c0,-164.64 132.98,-297.98 297.61,-297.98c82.32,0 156.44,33.51 210.45,87.53z" fill="currentColor"/>
		</g>
	</g>
</svg>