<svg version="1.1" xmlns="http://www.w3.org/2000/svg" xmlns:xlink="http://www.w3.org/1999/xlink" viewBox="0,0,1024,1024">
	<!-- Color names: teamapps-color-1 -->
	<desc>repeat_one icon - Licensed under Apache License v2.0 (http://www.apache.org/licenses/LICENSE-2.0) - Created with Iconfu.com - Derivative work of Material icons (Copyright Google Inc.)</desc>
	<g fill="none" fill-rule="nonzero" style="mix-blend-mode: normal">
		<g color="#039be5" class="teamapps-color-1">
			<path d="M251.26,539.77c-35.91,0 -65.02,-29.11 -65.02,-65.02v-223.49c0,-35.91 29.11,-65.02 65.02,-65.02h381.95v-46.72c0,-26.3 15.84,-50.01 40.14,-60.07c24.3,-10.06 52.27,-4.5 70.86,14.1l148.99,148.99c25.39,25.39 25.39,66.56 0,91.96l-149.75,149.74h29.28c35.91,0 65.02,29.11 65.02,65.02v223.49c0,35.91 -29.11,65.02 -65.02,65.02h-381.95v46.72c0,26.3 -15.84,50.01 -40.14,60.07c-24.3,10.06 -52.27,4.5 -70.86,-14.1l-148.99,-148.99c-25.39,-25.39 -25.39,-66.56 0,-91.96l149.75,-149.74zM633.21,437.51v-46.72h-19.62c0.45,3.09 0.69,6.26 0.69,9.47v223.49c0,3.21 -0.23,6.37 -0.69,9.47h19.62v-83.96c0,-23.76 12.74,-44.53 31.75,-55.88c-19.49,-11.6 -31.75,-32.73 -31.75,-55.87zM390.79,586.49v46.72h38.25c-0.45,-3.09 -0.69,-6.26 -0.69,-9.47v-84.61c-19.88,-2.8 -36.86,-14.58 -46.72,-31.1c-5.54,9.28 -13.32,17.06 -22.6,22.6c19.49,11.6 31.75,32.73 31.75,55.87zM390.79,390.79v1.49c0.49,-0.5 0.99,-1 1.49,-1.49zM375.43,474.75v-99.32h75.18l-35.32,17.66c-16.82,8.41 -27.45,25.61 -27.45,44.42v37.24c0,27.43 22.24,49.66 49.66,49.66h6.21v99.33c0,9.04 2.42,17.52 6.64,24.83h-74.93v-62.08c0,-20.09 -12.1,-38.2 -30.66,-45.88c-18.56,-7.69 -39.92,-3.44 -54.12,10.77l-148.99,148.99c-19.39,19.39 -19.39,50.84 0,70.24l148.99,148.99c14.2,14.2 35.57,18.45 54.12,10.77c18.56,-7.69 30.66,-25.8 30.66,-45.88v-62.08h397.31c27.43,0 49.66,-22.24 49.66,-49.66v-223.49c0,-27.43 -22.24,-49.66 -49.66,-49.66h-74.5c-27.43,0 -49.66,22.24 -49.66,49.66v99.32h-56.3c4.22,-7.3 6.64,-15.78 6.64,-24.83v-223.49c0,-9.04 -2.42,-17.52 -6.64,-24.83h56.3v62.08c0,20.09 12.1,38.2 30.66,45.88c18.56,7.69 39.92,3.44 54.12,-10.77l148.99,-148.99c19.39,-19.39 19.39,-50.84 0,-70.24l-148.99,-148.99c-14.2,-14.2 -35.57,-18.45 -54.12,-10.77c-18.56,7.69 -30.66,25.8 -30.66,45.88v62.08h-397.31c-27.43,0 -49.66,22.24 -49.66,49.66v223.49c0,27.43 22.24,49.66 49.66,49.66h74.5c27.43,0 49.66,-22.24 49.66,-49.66zM325.76,474.75h-74.5v-223.49h446.98v-111.74l148.99,148.99l-148.99,148.99v-111.74h-372.47zM698.24,549.25h74.5v223.49h-446.98v111.74l-148.99,-148.99l148.99,-148.99v111.74h372.47zM493.38,623.74v-148.99h-55.87v-37.24l74.49,-37.25h37.25v223.49z" fill="currentColor"/>
		</g>
	</g>
</svg>