<svg version="1.1" xmlns="http://www.w3.org/2000/svg" xmlns:xlink="http://www.w3.org/1999/xlink" viewBox="0,0,1024,1024">
	<!-- Color names: teamapps-color-1 -->
	<desc>replay_30 icon - Licensed under Apache License v2.0 (http://www.apache.org/licenses/LICENSE-2.0) - Created with Iconfu.com - Derivative work of Material icons (Copyright Google Inc.)</desc>
	<g fill="none" fill-rule="nonzero" style="mix-blend-mode: normal">
		<g color="#039be5" class="teamapps-color-1">
			<path d="M875.01,549.25c0,199.8 -163.21,363.01 -363.01,363.01c-199.8,0 -363.01,-163.21 -363.01,-363.01c0,-35.91 29.11,-65.02 65.02,-65.02h74.49c15.86,0 30.39,5.68 41.67,15.11c0.25,-0.51 0.5,-1.02 0.76,-1.54c8.49,-16.97 18.2,-26.63 23.34,-31.77c7.26,-7.26 19.74,-16.48 35.13,-21.9l-109.63,-109.63c-25.39,-25.39 -25.39,-66.56 0,-91.96l186.24,-186.24c18.6,-18.6 46.56,-24.16 70.86,-14.1c24.3,10.06 40.14,33.77 40.14,60.07v89.83c168.99,30.84 297.98,179.49 297.98,357.15zM561.66,205.16v-102.88c0,-20.09 -12.1,-38.2 -30.66,-45.88c-18.56,-7.69 -39.92,-3.44 -54.12,10.77l-186.24,186.24c-19.39,19.39 -19.39,50.84 0,70.24l129.27,129.27l-8.98,2.16c-19.81,1.51 -37.24,13.28 -45.79,21.83c-4.79,4.79 -13.1,13.06 -20.47,27.79c-6.01,12.01 -8,21.84 -8.66,30.04c-6.22,-20.33 -25.13,-35.12 -47.5,-35.12h-74.49c-27.43,0 -49.66,22.24 -49.66,49.66c0,191.32 156.33,347.65 347.65,347.65c191.32,0 347.65,-156.33 347.65,-347.65c0,-174.47 -130,-319.83 -297.98,-344.09zM809.98,549.25c0,163.89 -134.09,297.98 -297.98,297.98c-163.89,0 -297.98,-134.09 -297.98,-297.98h74.49c0,122.92 100.57,223.49 223.49,223.49c122.92,0 223.49,-100.57 223.49,-223.49c0,-122.92 -100.57,-223.49 -223.49,-223.49v148.99l-186.24,-186.24l186.24,-186.24v148.99c163.89,0 297.98,134.1 297.98,297.99zM634.92,593.95c0,11.17 0,22.35 -3.73,29.8l-11.17,22.35c0,0 -11.17,11.17 -18.62,11.17c-7.45,0 -14.9,3.73 -22.35,3.73c-7.45,0 -14.9,0 -22.35,-3.73c-7.45,-3.73 -11.17,-7.45 -18.62,-11.17c-7.45,-3.73 -7.45,-11.17 -11.17,-22.35c-3.73,-11.17 -3.73,-18.62 -3.73,-29.8v-26.08c0,-11.17 0,-22.35 3.73,-29.8l11.17,-22.35c0,0 11.17,-11.17 18.62,-11.17c7.45,0 14.9,-3.73 22.35,-3.73c7.45,0 14.9,0 22.35,3.73c7.45,3.73 11.17,7.45 18.62,11.17c7.45,3.73 7.45,11.17 11.17,22.35c3.73,11.17 3.73,18.62 3.73,29.8zM422.6,567.87h14.9c7.45,0 14.89,-3.72 18.62,-7.45c3.73,-3.73 7.45,-7.46 7.45,-14.9v-7.45c0,0 -3.72,-3.73 -3.72,-7.46c0,-3.73 -3.73,-3.72 -7.46,-3.72h-18.62c0,0 -3.72,3.72 -7.45,3.72c-3.73,0 -3.73,3.73 -3.73,7.46v7.45h-37.25c0,-7.45 0,-11.17 3.73,-18.62c3.73,-7.45 7.45,-11.17 11.17,-14.9c3.73,-3.73 11.17,-7.45 14.9,-7.45c3.73,0 14.89,-3.73 18.62,-3.73c7.45,0 14.9,0 22.35,3.73c7.45,3.73 11.17,3.72 18.62,7.45c7.45,3.73 7.45,7.46 11.17,14.9c3.73,7.45 3.73,11.17 3.73,18.62v11.17c0,0 -3.73,7.45 -3.73,11.17c0,3.73 -3.72,7.45 -7.45,7.45c-3.73,0 -7.45,3.73 -11.17,7.46c7.45,3.73 14.89,7.45 18.62,14.89c3.73,7.45 7.46,14.9 7.46,22.35c0,7.45 0,14.9 -3.73,18.63c-3.73,3.73 -7.45,11.17 -11.17,14.89c-3.73,3.73 -11.17,7.46 -18.62,7.46c-7.45,0 -14.9,3.72 -22.35,3.72c-7.45,0 -14.9,0.01 -18.63,-3.72c-3.73,-3.73 -11.17,-3.73 -18.62,-7.46c-7.45,-3.73 -7.45,-7.45 -11.17,-14.89c-3.73,-7.45 -3.73,-14.9 -3.73,-22.35h29.8v7.45c0,0 3.72,3.72 3.72,7.45c0,3.73 3.73,3.73 7.46,3.73h18.62c0,0 3.72,-3.73 7.45,-3.73c3.73,0 3.73,-3.72 3.73,-7.45v-18.62c0,0 -3.73,-3.73 -3.73,-7.46c0,-3.73 -3.72,-3.72 -7.45,-3.72h-22.35zM605.12,545.52c0,-3.73 -3.73,-7.45 -3.73,-11.17c0,-3.73 -3.72,-3.72 -7.45,-7.45c-3.73,-3.73 -7.45,-3.73 -11.17,-3.73c-3.73,0 -7.45,0 -11.17,3.73l-7.46,7.45c0,0 -3.72,7.45 -3.72,11.17v74.49c0,0 3.72,7.45 3.72,11.17c0,3.73 3.73,3.73 7.46,7.46c3.73,3.73 7.45,3.72 11.17,3.72c3.73,0 7.45,0.01 11.17,-3.72l7.45,-7.46c0,0 3.73,-7.45 3.73,-11.17z" fill="currentColor"/>
		</g>
	</g>
</svg>