<svg version="1.1" xmlns="http://www.w3.org/2000/svg" xmlns:xlink="http://www.w3.org/1999/xlink" viewBox="0,0,1024,1024">
	<!-- Color names: teamapps-color-1 -->
	<desc>restaurant_menu icon - Licensed under Apache License v2.0 (http://www.apache.org/licenses/LICENSE-2.0) - Created with Iconfu.com - Derivative work of Material icons (Copyright Google Inc.)</desc>
	<g fill="none" fill-rule="nonzero" style="mix-blend-mode: normal">
		<g color="#039be5" class="teamapps-color-1">
			<path d="M866.77,759.53c25.39,25.39 25.39,66.56 0,91.96l-52.52,52.52c-25.39,25.39 -66.56,25.39 -91.96,0l-210.36,-210.35l-210.66,210.05c-25.4,25.33 -66.52,25.3 -91.89,-0.07l-52.52,-52.52c-25.39,-25.39 -25.39,-66.56 0,-91.96l157.57,-157.58l-149.9,-149.54c-83.22,-83.76 -83.44,-219.05 0.15,-302.64c25.38,-25.38 66.53,-25.4 91.93,-0.03l232.93,232.64c1.12,-65.61 31.95,-132.38 82.26,-182.69c84.34,-83.9 229.24,-120.84 319.92,-30.17c91.09,91.09 53.83,235.92 -30.17,319.92c-50.38,50.38 -117.27,81.23 -182.98,82.27zM637.89,552.39c72.64,14.48 154.04,-15.42 212.79,-74.17c81.11,-81.11 112.57,-215.8 30.17,-298.19c-81.99,-81.99 -216.73,-50.86 -298.19,30.17c-58.64,58.64 -88.54,139.84 -74.26,212.37l-262.65,-262.32c-19.4,-19.37 -50.83,-19.36 -70.21,0.02c-77.57,77.57 -77.4,203.16 -0.11,280.95l156.22,155.85l4.8,4.22l-168.74,168.74c-19.39,19.4 -19.39,50.84 0,70.24l52.52,52.52c19.38,19.38 50.78,19.4 70.18,0.05l221.52,-220.88l221.2,221.19c19.4,19.39 50.84,19.39 70.23,0l52.52,-52.52c19.4,-19.4 19.39,-50.84 0,-70.24zM564.52,549.25l256.27,256.26l-52.52,52.52l-256.27,-256.26l-256.64,255.89l-52.52,-52.52l363.53,-363.54c-26.44,-56.99 -7.82,-137.07 51.4,-196.29c71.52,-71.14 173.58,-84.55 227.96,-30.17c54.75,54.75 40.97,156.82 -30.17,227.96c-59.22,59.22 -139.3,77.85 -196.29,51.4zM210.67,406.22c-58.11,-58.48 -58.11,-152.72 0,-210.83l261.48,261.11l-105.41,105.41z" fill="currentColor"/>
		</g>
	</g>
</svg>