<svg version="1.1" xmlns="http://www.w3.org/2000/svg" xmlns:xlink="http://www.w3.org/1999/xlink" viewBox="0,0,1024,1024">
	<!-- Color names: teamapps-color-1 -->
	<desc>restaurant icon - Licensed under Apache License v2.0 (http://www.apache.org/licenses/LICENSE-2.0) - Created with Iconfu.com - Derivative work of Material icons (Copyright Google Inc.)</desc>
	<g fill="none" fill-rule="nonzero" style="mix-blend-mode: normal">
		<g color="#039be5" class="teamapps-color-1">
			<path d="M474.75,74.49h74.5c35.91,0 65.02,29.11 65.02,65.02v74.5c38.72,-78.29 133.53,-139.53 232.96,-139.53c35.91,0 65.02,29.11 65.02,65.02v744.97c0,35.91 -29.11,65.02 -65.02,65.02h-93.12c-35.91,0 -65.02,-29.11 -65.02,-65.02v-232.97h-28.09c-35.91,0 -65.02,-29.11 -65.02,-65.02v-99.75c-23.37,52.43 -67.32,93.49 -121.38,113.45v284.29c0,35.91 -29.11,65.02 -65.02,65.02h-93.12c-35.91,0 -65.02,-29.11 -65.02,-65.02v-284.29c-81.25,-29.99 -139.68,-107.7 -139.68,-199.93v-260.74c0,-35.91 29.11,-65.02 65.02,-65.02h74.49c13.85,0 26.7,4.34 37.25,11.72c10.55,-7.38 23.4,-11.72 37.25,-11.72h74.49c13.85,0 26.7,4.34 37.25,11.72c10.55,-7.38 23.4,-11.72 37.25,-11.72zM437.5,106.66c-9.1,-10.31 -22.41,-16.81 -37.25,-16.81h-74.49c-14.83,0 -28.15,6.5 -37.25,16.82c-9.1,-10.31 -22.42,-16.82 -37.25,-16.82h-74.49c-27.43,0 -49.66,22.24 -49.66,49.66v260.74c0,89.27 59.02,163.96 139.68,188.93v295.3c0,27.43 22.24,49.66 49.66,49.66h93.12c27.43,0 49.66,-22.24 49.66,-49.66v-295.3c80.66,-24.96 139.68,-99.65 139.68,-188.93v-260.74c0,-27.43 -22.24,-49.66 -49.66,-49.66h-74.5c-14.83,0 -28.15,6.5 -37.25,16.81zM847.23,89.85c-122.97,0 -235.9,98.94 -235.9,198.66v297.98c0,27.43 22.24,49.66 49.66,49.66h43.45v248.33c0,27.43 22.24,49.66 49.66,49.66h93.12c27.43,0 49.66,-22.24 49.66,-49.66v-744.97c0,-27.43 -22.24,-49.66 -49.66,-49.66zM474.75,139.52h74.5v260.74c0,78.96 -61.83,143.03 -139.68,147.88v336.35h-93.12v-336.35c-77.85,-4.85 -139.68,-68.91 -139.68,-147.88v-260.74h74.49v260.74h74.5v-260.74h74.49v260.74h74.49zM847.23,139.52v744.97h-93.12v-297.99h-93.11v-297.98c0,-65.55 83.43,-148.99 186.24,-148.99z" fill="currentColor"/>
		</g>
	</g>
</svg>