<svg version="1.1" xmlns="http://www.w3.org/2000/svg" xmlns:xlink="http://www.w3.org/1999/xlink" viewBox="0,0,1024,1024">
	<!-- Color names: teamapps-color-1 -->
	<desc>ring_volume icon - Licensed under Apache License v2.0 (http://www.apache.org/licenses/LICENSE-2.0) - Created with Iconfu.com - Derivative work of Material icons (Copyright Google Inc.)</desc>
	<g fill="none" fill-rule="nonzero" style="mix-blend-mode: normal">
		<g color="#039be5" class="teamapps-color-1">
			<path d="M1024,712.02c0,27.87 -11.08,53.66 -29.84,72.42l-92.38,92.38c-18.76,18.76 -44.55,29.84 -72.42,29.84c-25.61,0 -51.3,-9.38 -70.87,-28.31c-25.01,-23 -52.84,-42.59 -83.12,-57.77c-34.07,-16.74 -57.04,-52.12 -57.04,-91.8v-65.81c-34.2,-7.52 -69.82,-11.46 -106.32,-11.46c-36.57,0 -72.18,3.96 -106.32,11.58v66.06c0,40.38 -23.25,75.13 -56.89,91.73c-30.74,15.57 -58.97,35.09 -83.55,58.1c-17.97,16.91 -42.93,28.06 -70.59,28.06c-27.91,0 -53.69,-11.12 -72.42,-29.85l-92.38,-92.37c-18.76,-18.76 -29.84,-44.55 -29.84,-72.42c0,-27.86 11.07,-53.66 29.84,-72.43c0.41,-0.41 0.83,-0.82 1.25,-1.22c69.09,-65.47 151.63,-117.1 243.09,-150.22c-6.23,-3.13 -12.06,-7.33 -17.21,-12.59c-2.17,-2.22 -107.32,-109.37 -125.3,-125.81c-11.44,-8.62 -19.92,-20.94 -23.72,-35.25c-5.95,-22.4 0.48,-46.28 16.87,-62.66l52.9,-52.89c25.42,-25.41 66.64,-25.38 92.02,0.07l132.23,132.6c4.71,4.73 8.55,10 11.51,15.61c-2.43,-6.83 -3.76,-14.18 -3.76,-21.84v-186.25c0,-35.91 29.11,-65.02 65.02,-65.02h74.5c35.91,0 65.02,29.11 65.02,65.02v186.25c0,7.66 -1.32,15.01 -3.76,21.84c2.98,-5.66 6.86,-10.98 11.64,-15.74l132.61,-132.23c25.4,-25.33 66.52,-25.3 91.89,0.07l52.52,52.52c16.39,16.39 22.82,40.26 16.87,62.66c-3.8,14.31 -12.28,26.63 -23.72,35.25c-17.97,16.44 -123.15,123.62 -125.3,125.81c-5.15,5.26 -10.98,9.45 -17.21,12.59c91.46,33.12 174,84.75 243.09,150.22c0.42,0.4 0.84,0.81 1.25,1.22c18.52,18.52 29.84,44.22 29.84,72.06zM401.91,423.89l-39.07,39.07c48.06,-10.46 97.96,-15.98 149.15,-15.98c51.19,0 101.1,5.52 149.15,15.98l-39.07,-39.07c-18.35,-18.35 -23.44,-44.94 -15.27,-67.86c-10.89,20.67 -32.58,34.76 -57.57,34.76h-74.5c-24.99,0 -46.68,-14.09 -57.57,-34.76c8.17,22.92 3.08,49.51 -15.27,67.86zM983.29,650.83c-0.31,-0.31 -0.63,-0.63 -0.96,-0.93c-122.43,-116.01 -287.98,-187.56 -470.34,-187.56c-182.36,0 -347.91,71.55 -470.34,187.56c-0.32,0.31 -0.64,0.62 -0.96,0.93c-15.92,15.92 -25.35,37.83 -25.35,61.57c0,23.75 9.43,45.65 25.35,61.56l92.38,92.37c15.89,15.89 37.78,25.35 61.56,25.35c23.5,0 44.77,-9.48 60.08,-23.9c25.72,-24.08 55.19,-44.44 87.2,-60.64c28.62,-14.09 48.4,-43.63 48.4,-77.99v-78.2c38.89,-9.74 79.7,-14.8 121.68,-14.8c41.91,0 82.72,5.04 121.68,14.63v78c0,33.74 19.57,63.85 48.51,78.04c31.73,15.89 60.8,36.38 86.84,60.36c16.53,16.06 38.37,24.12 60.32,24.12c23.75,0 45.65,-9.43 61.56,-25.35l92.38,-92.38c15.91,-15.91 25.35,-37.81 25.35,-61.56c0,-23.63 -9.62,-45.47 -25.35,-61.19zM122.8,310.93c2.96,11.15 9.64,20.71 18.65,27.32c16.77,15.1 124.62,125.02 126.5,126.94c19.34,19.73 51.05,19.89 70.59,0.35l52.52,-52.52c19.38,-19.38 19.4,-50.78 0.05,-70.19l-132.23,-132.6c-19.39,-19.44 -50.87,-19.46 -70.28,-0.05l-52.9,52.89c-12.52,12.52 -17.43,30.75 -12.89,47.86zM756.05,465.19c1.87,-1.91 109.73,-111.84 126.5,-126.94c9.01,-6.6 15.69,-16.17 18.64,-27.32c4.54,-17.11 -0.37,-35.34 -12.88,-47.86l-52.52,-52.52c-19.38,-19.38 -50.78,-19.4 -70.19,-0.05l-132.61,132.23c-19.44,19.39 -19.46,50.87 -0.05,70.29l52.52,52.52c19.53,19.53 51.25,19.37 70.59,-0.35zM598.91,325.76v-186.25c0,-27.43 -22.24,-49.66 -49.66,-49.66h-74.5c-27.43,0 -49.66,22.24 -49.66,49.66v186.25c0,27.43 22.24,49.66 49.66,49.66h74.5c27.43,0 49.66,-22.24 49.66,-49.66zM958.98,712.02c0,10.43 -4.09,19.74 -10.8,26.44l-92.38,92.38c-6.7,6.7 -16.01,10.8 -26.44,10.8c-10.06,0 -19.37,-3.73 -26.08,-10.43c-29.43,-27.19 -62.58,-50.65 -99.08,-68.91c-12.29,-5.96 -20.86,-19 -20.86,-33.52v-115.47c-54.01,-17.5 -111.74,-26.82 -171.34,-26.82c-59.6,0 -117.33,9.31 -171.34,27.19v115.47c0,14.9 -8.56,27.56 -20.86,33.52c-36.13,18.25 -69.65,41.35 -99.08,68.91c-6.7,6.33 -16.02,10.43 -26.08,10.43c-10.43,0 -19.74,-4.1 -26.44,-10.81l-92.38,-92.37c-6.7,-6.7 -10.8,-16.01 -10.8,-26.44c0,-10.43 4.09,-19.75 10.8,-26.45c113.6,-107.65 267.07,-173.95 436.18,-173.95c169.11,0 322.57,66.3 436.18,173.95c6.7,6.7 10.8,16.02 10.8,26.08zM170.81,298.19l52.9,-52.89l132.23,132.6l-52.52,52.52c0,0 -128.51,-131.12 -132.61,-132.23zM720.59,430.43l-52.52,-52.52l132.61,-132.23l52.52,52.52c-4.09,1.12 -132.61,132.23 -132.61,132.23zM549.25,325.76h-74.5v-186.25h74.5z" fill="currentColor"/>
		</g>
	</g>
</svg>