<svg version="1.1" xmlns="http://www.w3.org/2000/svg" xmlns:xlink="http://www.w3.org/1999/xlink" viewBox="0,0,1024,1024">
	<!-- Color names: teamapps-color-1 -->
	<desc>rowing icon - Licensed under Apache License v2.0 (http://www.apache.org/licenses/LICENSE-2.0) - Created with Iconfu.com - Derivative work of Material icons (Copyright Google Inc.)</desc>
	<g fill="none" fill-rule="nonzero" style="mix-blend-mode: normal">
		<g color="#039be5" class="teamapps-color-1">
			<path d="M893.13,893.66l-111.74,111.37c-25.47,25.38 -66.7,25.28 -92.03,-0.23l-111.37,-112.12c-12.1,-12.18 -18.89,-28.65 -18.89,-45.82v-28.54l-59.91,-59.82c-7.62,3.09 -15.89,4.76 -24.44,4.76h-47.56l-111.32,111.33c-25.39,25.39 -66.57,25.4 -91.96,0l-55.87,-55.87c-25.39,-25.39 -25.39,-66.56 0,-91.96l135.69,-135.69c-25.07,-9.03 -42.99,-33.01 -42.99,-61.19v-80.46c0,-36.37 29.83,-65.67 66.2,-65.01c42.15,0.76 97.05,-24.26 124.57,-54.61l52.14,-57.73c3.16,-3.49 6.47,-6.78 9.9,-9.87c-18.35,-23.61 -29.32,-53.28 -29.32,-85.43c0,-76.88 62.64,-139.52 139.52,-139.52c76.88,0 139.52,62.64 139.52,139.52c0,37.21 -14.68,71.07 -38.49,96.09c23.87,26.39 38.49,61.39 38.49,99.84v214.17c0,30.22 -7.68,58.86 -21.24,83.92c14.88,1.5 28.87,8.1 39.52,18.79l111.74,112.12c25.35,25.44 25.28,66.61 -0.15,91.96zM882.41,812.55l-111.74,-112.12c-9.32,-9.35 -21.98,-14.61 -35.18,-14.61h-21.55c21.32,-27.45 33.96,-61.91 33.96,-98.96v-214.17c0,-39.91 -17.55,-75.67 -45.27,-100.17c27.62,-22.8 45.27,-57.28 45.27,-95.76c0,-68.4 -55.76,-124.16 -124.16,-124.16c-68.4,0 -124.16,55.76 -124.16,124.16c0,34.02 13.8,64.92 36.08,87.38c-7.4,5.23 -14.37,11.31 -20.64,18.23l-52.15,57.74c-30.34,33.47 -89.43,60.5 -136.22,59.65c-27.78,-0.5 -50.56,21.88 -50.56,49.66v80.46c0,27.43 22.24,49.66 49.66,49.66c3.78,0 7.59,-0.07 11.44,-0.23l-158.3,158.3c-19.4,19.39 -19.4,50.84 0,70.24l55.87,55.87c19.4,19.4 50.84,19.39 70.24,0l115.82,-115.83h53.92c9.94,0 19.4,-2.96 27.35,-8.21l72.36,72.26v34.9c0,13.11 5.19,25.7 14.43,35l111.37,112.12c19.35,19.48 50.84,19.56 70.29,0.18l111.74,-111.37c19.43,-19.36 19.48,-50.81 0.12,-70.24zM847.23,847.61l-111.74,111.37l-111.37,-112.12v-55.5l-264.47,-264.09c-11.55,1.86 -22.72,2.61 -33.89,2.61v-80.46c61.83,1.12 134.46,-32.41 173.95,-75.99l52.14,-57.73c7.08,-7.82 16.02,-14.16 25.7,-18.63c10.8,-5.21 23.09,-8.56 35.76,-8.56h1.12c46.19,0.38 83.81,37.99 83.81,84.18v214.17c0,31.29 -13.03,59.97 -34.27,80.46l-133.35,-133.35v-84.55c-23.47,19.37 -53.26,37.99 -85.29,51.78l234.29,234.29h55.87zM474.75,698.24h-74.49l-130.37,130.37l-55.87,-55.87l167.62,-167.62zM698.24,176.77c0,40.97 -33.52,74.49 -74.49,74.49c-40.97,0 -74.49,-33.52 -74.49,-74.49c0,-40.97 33.52,-74.49 74.49,-74.49c40.97,0 74.49,33.52 74.49,74.49z" fill="currentColor"/>
		</g>
	</g>
</svg>