<svg version="1.1" xmlns="http://www.w3.org/2000/svg" xmlns:xlink="http://www.w3.org/1999/xlink" viewBox="0,0,1024,1024">
	<!-- Color names: teamapps-color-1 -->
	<desc>rss_feed icon - Licensed under Apache License v2.0 (http://www.apache.org/licenses/LICENSE-2.0) - Created with Iconfu.com - Derivative work of Material icons (Copyright Google Inc.)</desc>
	<g fill="none" fill-rule="nonzero" style="mix-blend-mode: normal">
		<g color="#039be5" class="teamapps-color-1">
			<path d="M793.59,875.01h-105.41c-21.69,0 -40.89,-10.62 -52.7,-26.93c-11.81,16.31 -31.01,26.93 -52.7,26.93h-105.41c-33.89,0 -61.73,-25.93 -64.75,-59.03c-26.64,35.81 -69.29,59.03 -117.39,59.03c-80.76,0 -146.22,-65.46 -146.22,-146.22c0,-48.1 23.22,-90.75 59.03,-117.39c-33.1,-3.02 -59.03,-30.86 -59.03,-64.75v-105.41c0,-21.69 10.62,-40.89 26.93,-52.7c-16.31,-11.81 -26.93,-31.01 -26.93,-52.7v-105.41c0,-35.91 29.11,-65.02 65.02,-65.02c355.87,0 644.6,288.72 644.6,644.6c0,35.91 -29.11,65.02 -65.02,65.02zM843.26,809.98c0,-347.39 -281.85,-629.24 -629.24,-629.24c-27.43,0 -49.66,22.24 -49.66,49.66v105.41c0,27.43 22.24,49.66 49.66,49.66c234.43,0 424.5,190.07 424.5,424.5c0,27.43 22.24,49.66 49.66,49.66h105.41c27.43,0 49.66,-22.24 49.66,-49.66zM632.44,809.98c0,-231.18 -187.24,-418.42 -418.42,-418.42c-27.43,0 -49.66,22.24 -49.66,49.66v105.41c0,27.43 22.24,49.66 49.66,49.66c16.81,0 33.18,1.95 48.88,5.64c-56.64,14.39 -98.54,65.72 -98.54,126.84c0,72.27 58.59,130.86 130.86,130.86c61.12,0 112.45,-41.9 126.84,-98.54c3.69,15.7 5.64,32.07 5.64,48.88c0,27.43 22.24,49.66 49.66,49.66h105.41c27.43,0 49.66,-22.24 49.66,-49.66zM214.02,728.78c0,-44.85 36.35,-81.2 81.2,-81.2c44.85,0 81.2,36.35 81.2,81.2c0,44.85 -36.35,81.2 -81.2,81.2c-44.85,0 -81.2,-36.35 -81.2,-81.2zM793.59,809.98h-105.41c0,-261.86 -212.3,-474.16 -474.16,-474.16v-105.41c319.96,0 579.58,259.61 579.58,579.58zM582.77,809.98h-105.41c0,-145.27 -118.07,-263.34 -263.34,-263.34v-105.41c203.75,0 368.76,165.01 368.76,368.76z" fill="currentColor"/>
		</g>
	</g>
</svg>