<svg version="1.1" xmlns="http://www.w3.org/2000/svg" xmlns:xlink="http://www.w3.org/1999/xlink" viewBox="0,0,1024,1024">
	<!-- Color names: teamapps-color-1 -->
	<desc>settings_bluetooth icon - Licensed under Apache License v2.0 (http://www.apache.org/licenses/LICENSE-2.0) - Created with Iconfu.com - Derivative work of Material icons (Copyright Google Inc.)</desc>
	<g fill="none" fill-rule="nonzero" style="mix-blend-mode: normal">
		<g color="#039be5" class="teamapps-color-1">
			<path d="M656.59,437.51l114.03,113.76c25.44,25.39 25.47,66.6 0.05,92.01l-186.41,186.4c0.76,0.48 1.5,0.98 2.24,1.5c10.55,-7.38 23.4,-11.72 37.25,-11.72h74.49c35.91,0 65.02,29.11 65.02,65.02v74.49c0,35.91 -29.11,65.02 -65.02,65.02h-74.49c-13.85,0 -26.7,-4.34 -37.25,-11.72c-10.55,7.38 -23.4,11.72 -37.25,11.72h-74.5c-13.85,0 -26.7,-4.34 -37.25,-11.72c-10.55,7.38 -23.4,11.72 -37.25,11.72h-74.49c-35.91,0 -65.02,-29.11 -65.02,-65.02v-74.49c0,-35.91 29.11,-65.02 65.02,-65.02h74.49c3.5,0 6.93,0.28 10.28,0.81c-0.53,-3.35 -0.81,-6.79 -0.81,-10.29v-125.73l-59.97,59.97c-25.39,25.39 -66.56,25.39 -91.96,0l-52.52,-52.52c-25.39,-25.39 -25.39,-66.57 0,-91.96l162.24,-162.23l-162.24,-162.24c-25.39,-25.39 -25.39,-66.56 0,-91.96l52.52,-52.52c25.39,-25.39 66.56,-25.39 91.96,0l59.97,59.97v-125.73c0,-35.91 29.11,-65.02 65.02,-65.02h37.25c17.25,0 33.78,6.85 45.98,19.05l212.69,212.69c25.41,25.41 25.39,66.63 -0.05,92.01zM759.77,312.87c19.43,-19.39 19.45,-50.87 0.04,-70.28l-212.69,-212.69c-9.31,-9.31 -21.95,-14.55 -35.12,-14.55h-37.25c-27.43,0 -49.66,22.24 -49.66,49.66v162.81l-86.19,-86.19c-19.39,-19.39 -50.84,-19.39 -70.24,0l-52.52,52.52c-19.4,19.4 -19.4,50.84 0,70.24l173.1,173.1l-173.1,173.09c-19.4,19.39 -19.4,50.84 0,70.24l52.52,52.52c19.39,19.39 50.84,19.39 70.24,0l86.19,-86.19v162.81c0,14.83 6.5,28.15 16.82,37.25c-1.56,1.37 -3.03,2.84 -4.4,4.4c-9.1,-10.31 -22.41,-16.81 -37.25,-16.81h-74.49c-27.43,0 -49.66,22.24 -49.66,49.66v74.49c0,27.43 22.24,49.66 49.66,49.66h74.49c14.83,0 28.15,-6.5 37.25,-16.81c9.1,10.31 22.41,16.81 37.25,16.81h74.5c14.83,0 28.15,-6.5 37.25,-16.81c9.1,10.31 22.41,16.81 37.25,16.81h74.49c27.43,0 49.66,-22.24 49.66,-49.66v-74.49c0,-27.43 -22.24,-49.66 -49.66,-49.66h-74.49c-14.83,0 -28.15,6.5 -37.25,16.81c-7.52,-8.52 -17.92,-14.44 -29.67,-16.24l202.98,-202.97c19.41,-19.41 19.39,-50.89 -0.04,-70.28l-124.93,-124.63zM564.52,437.51l160.17,159.79l-212.69,212.68h-37.25v-282.71l-170.97,170.97l-52.52,-52.52l208.22,-208.21l-208.22,-208.22l52.52,-52.52l170.97,170.97v-282.71h37.25l212.69,212.69zM549.25,527.27v140.06l70.02,-70.02zM549.25,347.74l70.02,-70.02l-70.02,-70.03zM325.76,884.48h74.49v74.49h-74.49zM474.75,884.48h74.5v74.49h-74.5zM623.74,884.48h74.49v74.49h-74.49z" fill="currentColor"/>
		</g>
	</g>
</svg>