<svg version="1.1" xmlns="http://www.w3.org/2000/svg" xmlns:xlink="http://www.w3.org/1999/xlink" viewBox="0,0,1024,1024">
	<!-- Color names: teamapps-color-1 -->
	<desc>settings_power icon - Licensed under Apache License v2.0 (http://www.apache.org/licenses/LICENSE-2.0) - Created with Iconfu.com - Derivative work of Material icons (Copyright Google Inc.)</desc>
	<g fill="none" fill-rule="nonzero" style="mix-blend-mode: normal">
		<g color="#039be5" class="teamapps-color-1">
			<path d="M875.01,474.75c0,160.66 -104.25,296.88 -248.84,344.71h72.07c35.91,0 65.02,29.11 65.02,65.02v74.49c0,35.91 -29.11,65.02 -65.02,65.02h-74.49c-13.85,0 -26.7,-4.34 -37.25,-11.72c-10.55,7.38 -23.4,11.72 -37.25,11.72h-74.5c-13.85,0 -26.7,-4.34 -37.25,-11.72c-10.55,7.38 -23.4,11.72 -37.25,11.72h-74.49c-35.91,0 -65.02,-29.11 -65.02,-65.02v-74.49c0,-35.91 29.11,-65.02 65.02,-65.02h72.07c-144.58,-47.83 -248.84,-184.05 -248.84,-344.71c0,-123.54 61.87,-232.54 156.14,-297.81c25.84,-17.89 60.77,-14.74 82.99,7.48l21.6,21.6v-66.51c0,-35.91 29.11,-65.02 65.02,-65.02h74.5c35.91,0 65.02,29.11 65.02,65.02v66.51l21.6,-21.6c22.22,-22.22 57.15,-25.37 82.99,-7.48c94.28,65.27 156.14,174.26 156.14,297.81zM585.3,830.36c0.4,0.27 0.8,0.54 1.19,0.82c0.76,-0.53 1.54,-1.05 2.33,-1.56c-1.17,0.25 -2.35,0.5 -3.52,0.74zM438.7,830.36c-1.18,-0.24 -2.35,-0.49 -3.52,-0.74c0.79,0.5 1.56,1.02 2.33,1.56c0.39,-0.28 0.79,-0.55 1.19,-0.82zM710.12,189.57c-19.73,-13.66 -46.41,-11.26 -63.39,5.72l-47.82,47.82v-103.59c0,-27.43 -22.24,-49.66 -49.66,-49.66h-74.5c-27.43,0 -49.66,22.24 -49.66,49.66v103.59l-47.82,-47.82c-16.97,-16.97 -43.65,-19.38 -63.39,-5.72c-90.31,62.52 -149.53,166.89 -149.53,285.18c0,192.07 155.58,347.65 347.65,347.65c192.07,0 347.65,-155.59 347.65,-347.65c0,-118.29 -59.22,-222.66 -149.53,-285.18zM437.5,851.63c-9.1,-10.31 -22.41,-16.81 -37.25,-16.81h-74.49c-27.43,0 -49.66,22.24 -49.66,49.66v74.49c0,27.43 22.24,49.66 49.66,49.66h74.49c14.83,0 28.15,-6.5 37.25,-16.81c9.1,10.31 22.41,16.81 37.25,16.81h74.5c14.83,0 28.15,-6.5 37.25,-16.81c9.1,10.31 22.41,16.81 37.25,16.81h74.49c27.43,0 49.66,-22.24 49.66,-49.66v-74.49c0,-27.43 -22.24,-49.66 -49.66,-49.66h-74.49c-14.83,0 -28.15,6.5 -37.25,16.81c-9.1,-10.31 -22.41,-16.81 -37.25,-16.81h-74.5c-14.83,0 -28.15,6.5 -37.25,16.81zM809.98,474.75c0,164.64 -133.34,297.99 -297.98,297.99c-164.64,0 -297.98,-133.35 -297.98,-297.99c0,-101.31 50.65,-190.71 128.13,-244.34l53.64,53.64c-64.07,39.49 -107.27,109.88 -107.27,190.71c0,123.29 100.19,223.49 223.49,223.49c123.29,0 223.49,-100.19 223.49,-223.49c0,-80.83 -43.21,-151.22 -107.65,-190.33l54.01,-54.01c77.48,53.64 128.13,143.03 128.13,244.34zM549.25,512h-74.5v-372.48h74.5zM325.76,884.48h74.49v74.49h-74.49zM474.75,884.48h74.5v74.49h-74.5zM623.74,884.48h74.49v74.49h-74.49z" fill="currentColor"/>
		</g>
	</g>
</svg>