<svg version="1.1" xmlns="http://www.w3.org/2000/svg" xmlns:xlink="http://www.w3.org/1999/xlink" viewBox="0,0,1024,1024">
	<!-- Color names: teamapps-color-1 -->
	<desc>settings_voice icon - Licensed under Apache License v2.0 (http://www.apache.org/licenses/LICENSE-2.0) - Created with Iconfu.com - Derivative work of Material icons (Copyright Google Inc.)</desc>
	<g fill="none" fill-rule="nonzero" style="mix-blend-mode: normal">
		<g color="#039be5" class="teamapps-color-1">
			<path d="M614.27,738.76v71.22c0,3.5 -0.28,6.93 -0.81,10.29c3.35,-0.53 6.78,-0.81 10.28,-0.81h74.49c35.91,0 65.02,29.11 65.02,65.02v74.49c0,35.91 -29.11,65.02 -65.02,65.02h-74.49c-13.85,0 -26.7,-4.34 -37.25,-11.72c-10.55,7.38 -23.4,11.72 -37.25,11.72h-74.5c-13.85,0 -26.7,-4.34 -37.25,-11.72c-10.55,7.38 -23.4,11.72 -37.25,11.72h-74.49c-35.91,0 -65.02,-29.11 -65.02,-65.02v-74.49c0,-35.91 29.11,-65.02 65.02,-65.02h74.49c3.5,0 6.93,0.28 10.28,0.81c-0.53,-3.35 -0.81,-6.79 -0.81,-10.29v-71.22c-125.14,-42.05 -223.49,-158.98 -223.49,-301.26c0,-35.91 29.11,-65.02 65.02,-65.02h63.33c7.21,0 14.15,1.18 20.64,3.35v-161.81c0,-97.75 79.02,-176.77 176.77,-176.77c97.75,0 176.77,79.02 176.77,176.77l-0.27,161.9c6.57,-2.23 13.61,-3.44 20.92,-3.44h63.33c35.91,0 65.02,29.11 65.02,65.02c0,142.27 -98.35,259.21 -223.49,301.26zM822.4,437.51c0,-27.43 -22.24,-49.66 -49.66,-49.66h-63.33c-14.34,0 -27.26,6.08 -36.32,15.79l0.32,-189.62c0,-89.26 -72.14,-161.41 -161.41,-161.41c-89.26,0 -161.41,72.14 -161.41,161.41v189.28c-9.05,-9.52 -21.83,-15.45 -36,-15.45h-63.33c-27.43,0 -49.66,22.24 -49.66,49.66c0,138.8 98.86,252.95 223.49,290.01v82.46c0,14.83 6.5,28.15 16.82,37.25c-1.56,1.37 -3.03,2.84 -4.4,4.4c-9.1,-10.31 -22.41,-16.81 -37.25,-16.81h-74.49c-27.43,0 -49.66,22.24 -49.66,49.66v74.49c0,27.43 22.24,49.66 49.66,49.66h74.49c14.83,0 28.15,-6.5 37.25,-16.81c9.1,10.31 22.41,16.81 37.25,16.81h74.5c14.83,0 28.15,-6.5 37.25,-16.81c9.1,10.31 22.41,16.81 37.25,16.81h74.49c27.43,0 49.66,-22.24 49.66,-49.66v-74.49c0,-27.43 -22.24,-49.66 -49.66,-49.66h-74.49c-14.83,0 -28.15,6.5 -37.25,16.81c-1.37,-1.56 -2.84,-3.03 -4.4,-4.4c10.31,-9.1 16.82,-22.42 16.82,-37.25v-82.46c124.63,-37.06 223.49,-151.21 223.49,-290.01zM549.25,687.81v122.17h-74.5v-122.17c-122.18,-18.25 -223.49,-123.29 -223.49,-250.31h63.33c0,111.74 94.61,189.96 197.41,189.96c102.8,0 197.41,-78.22 197.41,-189.96h63.33c0,127.01 -101.31,232.05 -223.49,250.31zM400.26,437.51v-223.49c0,-61.83 49.91,-111.74 111.74,-111.74c61.83,0 111.74,49.91 111.74,111.74l-0.38,223.49c0,61.83 -49.53,111.74 -111.37,111.74c-61.83,0 -111.74,-49.91 -111.74,-111.74zM325.76,884.48h74.49v74.49h-74.49zM474.75,884.48h74.5v74.49h-74.5zM623.74,884.48h74.49v74.49h-74.49z" fill="currentColor"/>
		</g>
	</g>
</svg>