<svg version="1.1" xmlns="http://www.w3.org/2000/svg" xmlns:xlink="http://www.w3.org/1999/xlink" viewBox="0,0,1024,1024">
	<!-- Color names: teamapps-color-1 -->
	<desc>settings_input_svideo icon - Licensed under Apache License v2.0 (http://www.apache.org/licenses/LICENSE-2.0) - Created with Iconfu.com - Derivative work of Material icons (Copyright Google Inc.)</desc>
	<g fill="none" fill-rule="nonzero" style="mix-blend-mode: normal">
		<g color="#039be5" class="teamapps-color-1">
			<path d="M986.75,512c0,262.01 -212.74,474.75 -474.75,474.75c-262.01,0 -474.75,-212.74 -474.75,-474.75c0,-262.01 212.74,-474.75 474.75,-474.75c262.01,0 474.75,212.74 474.75,474.75zM512,52.61c-253.53,0 -459.39,205.86 -459.39,459.39c0,253.53 205.86,459.39 459.39,459.39c253.53,0 459.39,-205.86 459.39,-459.39c0,-253.53 -205.86,-459.39 -459.39,-459.39zM921.73,512c0,226.1 -183.63,409.73 -409.73,409.73c-226.1,0 -409.73,-183.63 -409.73,-409.73c0,-226.1 183.63,-409.73 409.73,-409.73c226.1,0 409.73,183.63 409.73,409.73zM847.23,512c0,-184.75 -150.48,-335.23 -335.23,-335.23c-184.75,0 -335.23,150.48 -335.23,335.23c0,184.75 150.48,335.23 335.23,335.23c184.75,0 335.23,-150.48 335.23,-335.23zM567.87,363.01h-111.74c-30.91,0 -55.87,-24.96 -55.87,-55.87c0,-30.91 24.96,-55.87 55.87,-55.87h111.74c30.91,0 55.87,24.96 55.87,55.87c0,30.91 -24.96,55.87 -55.87,55.87zM307.13,549.25c-30.91,0 -55.87,-24.96 -55.87,-55.87c0,-30.91 24.96,-55.87 55.87,-55.87c30.91,0 55.87,24.96 55.87,55.87c0,30.91 -24.96,55.87 -55.87,55.87zM437.51,679.62c0,30.91 -24.96,55.87 -55.87,55.87c-30.91,0 -55.87,-24.96 -55.87,-55.87c0,-30.91 24.96,-55.87 55.87,-55.87c30.91,0 55.87,24.96 55.87,55.87zM772.74,493.38c0,30.91 -24.96,55.87 -55.87,55.87c-30.91,0 -55.87,-24.96 -55.87,-55.87c0,-30.91 24.96,-55.87 55.87,-55.87c30.91,0 55.87,24.96 55.87,55.87zM698.24,679.62c0,30.91 -24.96,55.87 -55.87,55.87c-30.91,0 -55.87,-24.96 -55.87,-55.87c0,-30.91 24.96,-55.87 55.87,-55.87c30.91,0 55.87,24.96 55.87,55.87z" fill="currentColor"/>
		</g>
	</g>
</svg>