<svg version="1.1" xmlns="http://www.w3.org/2000/svg" xmlns:xlink="http://www.w3.org/1999/xlink" viewBox="0,0,1024,1024">
	<!-- Color names: teamapps-color-1 -->
	<desc>slow_motion_video icon - Licensed under Apache License v2.0 (http://www.apache.org/licenses/LICENSE-2.0) - Created with Iconfu.com - Derivative work of Material icons (Copyright Google Inc.)</desc>
	<g fill="none" fill-rule="nonzero" style="mix-blend-mode: normal">
		<g color="#039be5" class="teamapps-color-1">
			<path d="M949.51,512c0,225.83 -171.5,412.09 -391.58,435.28c-16.05,1.69 -32.06,-2.65 -44.99,-12.03c-12.83,9.31 -28.71,13.66 -44.65,12.07c-87.7,-8.77 -168.2,-43.83 -232.84,-96.68c-12.16,-9.94 -20.24,-23.88 -22.9,-39.18c-15.3,-2.67 -29.24,-10.74 -39.18,-22.9c-52.81,-64.6 -87.91,-144.72 -96.68,-232.88c-1.55,-15.54 2.56,-31.03 11.41,-43.69c-8.85,-12.66 -12.95,-28.14 -11.41,-43.69c8.77,-88.16 43.87,-168.28 96.68,-232.88c9.94,-12.16 23.88,-20.24 39.18,-22.9c2.67,-15.3 10.74,-29.24 22.9,-39.18c64.6,-52.81 144.72,-87.91 232.88,-96.68c15.93,-1.58 31.79,2.77 44.62,12.07c12.93,-9.38 28.95,-13.72 44.99,-12.03c220.09,23.19 391.58,209.45 391.58,435.28zM556.31,91.99c-14,-1.47 -27.97,3.06 -38.43,12.48c-1.78,1.61 -3.44,3.33 -4.95,5.15c-1.49,-1.79 -3.1,-3.47 -4.85,-5.05c-10.4,-9.41 -24.29,-13.99 -38.25,-12.61c-85.02,8.46 -162.31,42.3 -224.67,93.29c-10.84,8.86 -17.44,21.89 -18.16,35.88c-0.1,1.98 -0.09,3.96 0.05,5.91c-1.96,-0.13 -3.93,-0.15 -5.91,-0.05c-13.99,0.72 -27.01,7.32 -35.88,18.16c-50.99,62.36 -84.83,139.65 -93.29,224.67c-1.39,13.96 3.19,27.85 12.61,38.25c1.25,1.39 2.58,2.69 3.97,3.92c-1.39,1.22 -2.71,2.53 -3.97,3.92c-9.41,10.4 -13.99,24.29 -12.61,38.25c8.46,85.02 42.3,162.31 93.29,224.67c8.88,10.87 21.95,17.47 35.97,18.17c1.95,0.1 3.9,0.08 5.83,-0.05c-0.13,1.96 -0.15,3.93 -0.05,5.91c0.72,13.99 7.32,27.01 18.16,35.88c62.4,51.01 140.07,84.83 224.65,93.28c13.96,1.4 27.86,-3.18 38.27,-12.59c1.75,-1.58 3.37,-3.27 4.86,-5.06c1.52,1.82 3.17,3.54 4.95,5.15c10.46,9.42 24.43,13.95 38.43,12.48c212.36,-22.37 377.83,-202.12 377.83,-420.01c0,-217.89 -165.48,-397.63 -377.83,-420.01zM884.48,512c0,192.2 -146.02,350.88 -333.37,370.61v-75.24c146.01,-19.37 258.87,-144.53 258.87,-295.38c0,-150.85 -112.86,-276.01 -258.87,-295.38v-75.24c187.35,19.74 333.37,178.42 333.37,370.61zM437.51,679.62v-335.23l223.49,167.62zM329.48,747.04c41.35,32.03 90.89,53.64 145.27,60.34v75.24c-74.49,-7.45 -143.02,-37.24 -198.15,-82.32zM329.48,276.96l-52.89,-53.26c55.13,-45.07 123.29,-74.87 198.15,-82.32v75.24c-54.38,6.7 -103.92,28.31 -145.27,60.34zM216.62,474.75h-75.24c7.45,-74.87 37.24,-143.02 82.32,-198.15l53.26,52.89c-32.03,41.35 -53.64,90.89 -60.34,145.27zM276.96,694.14l-53.26,53.26c-45.07,-55.13 -74.87,-123.29 -82.32,-198.15h75.24c6.7,54.38 28.31,103.92 60.34,144.89z" fill="currentColor"/>
		</g>
	</g>
</svg>