<svg version="1.1" xmlns="http://www.w3.org/2000/svg" xmlns:xlink="http://www.w3.org/1999/xlink" viewBox="0,0,1024,1024">
	<!-- Color names: teamapps-color-1 -->
	<desc>smoking_rooms icon - Licensed under Apache License v2.0 (http://www.apache.org/licenses/LICENSE-2.0) - Created with Iconfu.com - Derivative work of Material icons (Copyright Google Inc.)</desc>
	<g fill="none" fill-rule="nonzero" style="mix-blend-mode: normal">
		<g color="#039be5" class="teamapps-color-1">
			<path d="M698.24,837.76h-558.72c-35.91,0 -65.02,-29.11 -65.02,-65.02v-111.74c0,-35.91 29.11,-65.02 65.02,-65.02h530.95v-20.65c0,-6.75 -1.52,-9.06 -2.29,-9.82c-0.76,-0.75 -2.29,-1.51 -6.06,-1.51h-56.99c-104.82,0 -189.81,-84.99 -189.81,-189.81c0,-104.82 85,-189.8 189.81,-189.8c3.21,0 6.37,0.23 9.47,0.69v-45.55c0,-35.91 29.11,-65.02 65.02,-65.02c104.82,0 189.8,85 189.8,189.81c0,24.66 -4.73,48.25 -13.36,69.91c57.48,50.02 93.45,124.02 93.45,206.1v83.43c0,6.45 -0.94,12.71 -2.71,18.63c1.77,5.92 2.71,12.17 2.71,18.63v111.74c0,35.91 -29.11,65.02 -65.02,65.02h-55.87c-6.45,0 -12.71,-0.94 -18.63,-2.71c-5.92,1.77 -12.17,2.71 -18.63,2.71h-55.87c-6.45,0 -12.71,-0.94 -18.63,-2.71c-5.92,1.77 -12.17,2.71 -18.63,2.71zM716.86,818.79c5.75,2.33 12.04,3.61 18.63,3.61h55.87c6.59,0 12.87,-1.28 18.63,-3.61c5.75,2.33 12.04,3.61 18.63,3.61h55.87c27.43,0 49.66,-22.24 49.66,-49.66v-111.74c0,-6.59 -1.28,-12.87 -3.61,-18.63c2.33,-5.75 3.61,-12.04 3.61,-18.63v-83.43c0,-81.53 -37.56,-154.54 -96.77,-201.67c10.7,-22.56 16.68,-47.76 16.68,-74.34c0,-96.33 -78.1,-174.45 -174.44,-174.45c-27.43,0 -49.66,22.24 -49.66,49.66v55.87c0,4.08 0.49,8.05 1.42,11.85c-7.62,-4.75 -16.61,-7.5 -26.25,-7.5c-96.33,0 -174.45,78.1 -174.45,174.44c0,96.33 78.12,174.45 174.45,174.45h56.99c13.29,0 23.71,6.91 23.71,26.69v36.01h-546.31c-27.43,0 -49.66,22.24 -49.66,49.66v111.74c0,27.43 22.24,49.66 49.66,49.66h558.72c6.59,0 12.87,-1.28 18.63,-3.61zM791.36,562.66v61.08h-55.87v-48.43c0,-48.79 -34.27,-76.35 -73.38,-76.35h-56.99c-68.91,0 -124.79,-55.88 -124.79,-124.79c0,-68.91 55.88,-124.78 124.79,-124.78v55.87c-37.99,0 -68.91,27.19 -68.91,65.19c0,37.99 30.92,74.49 68.91,74.49h56.99c69.66,0 129.25,50.28 129.25,117.71zM884.48,540.31v83.43h-55.87v-83.07c0,-83.43 -65.56,-151.6 -148.99,-151.6v-55.87c37.99,0 68.91,-30.91 68.91,-68.91c0,-37.99 -30.91,-68.91 -68.91,-68.91v-55.87c68.91,0 124.78,55.88 124.78,124.79c0,34.64 -14.15,65.92 -37.24,88.64c69.66,33.15 117.33,104.67 117.33,187.36zM139.52,660.99h558.72v111.74h-558.72zM828.61,660.99h55.87v111.74h-55.87zM735.49,660.99h55.87v111.74h-55.87z" fill="currentColor"/>
		</g>
	</g>
</svg>