<svg version="1.1" xmlns="http://www.w3.org/2000/svg" xmlns:xlink="http://www.w3.org/1999/xlink" viewBox="0,0,1024,1024">
	<!-- Color names: teamapps-color-1 -->
	<desc>speaker icon - Licensed under Apache License v2.0 (http://www.apache.org/licenses/LICENSE-2.0) - Created with Iconfu.com - Derivative work of Material icons (Copyright Google Inc.)</desc>
	<g fill="none" fill-rule="nonzero" style="mix-blend-mode: normal">
		<g color="#039be5" class="teamapps-color-1">
			<path d="M837.76,214.02v595.96c0,76.88 -62.64,139.53 -139.53,139.53l-372.54,-0.38c-76.4,-0.04 -139.46,-61.84 -139.46,-139.15v-595.96c0,-76.88 62.64,-139.53 139.53,-139.53h372.47c76.88,0 139.53,62.64 139.53,139.53zM698.24,89.85h-372.47c-68.4,0 -124.17,55.77 -124.17,124.17v595.96c0,68.72 56.07,123.76 124.12,123.79l372.52,0.38c68.4,0 124.17,-55.77 124.17,-124.17v-595.96c0,-68.4 -55.77,-124.17 -124.17,-124.17zM772.74,214.02v595.96c0,40.97 -33.53,74.5 -74.5,74.5l-372.47,-0.38c-40.97,0 -74.5,-33.16 -74.5,-74.13v-595.96c0,-40.97 33.53,-74.5 74.5,-74.5h372.47c40.97,0 74.5,33.53 74.5,74.5zM698.24,623.74c0,-102.8 -83.43,-186.24 -186.24,-186.24c-102.8,0 -186.24,83.43 -186.24,186.24c0,102.8 83.43,186.24 186.24,186.24c102.8,0 186.24,-83.43 186.24,-186.24zM623.74,623.74c0,61.83 -49.91,111.74 -111.74,111.74c-61.83,0 -111.74,-49.91 -111.74,-111.74c0,-61.83 49.91,-111.74 111.74,-111.74c61.83,0 111.74,49.91 111.74,111.74zM437.51,288.51c0,40.97 33.15,74.49 74.49,74.49c40.97,0 74.49,-33.52 74.49,-74.49c0,-40.97 -33.52,-74.49 -74.49,-74.49c-41.35,0 -74.49,33.52 -74.49,74.49z" fill="currentColor"/>
		</g>
	</g>
</svg>