<svg version="1.1" xmlns="http://www.w3.org/2000/svg" xmlns:xlink="http://www.w3.org/1999/xlink" viewBox="0,0,1024,1024">
	<!-- Color names: teamapps-color-1 -->
	<desc>stop icon - Licensed under Apache License v2.0 (http://www.apache.org/licenses/LICENSE-2.0) - Created with Iconfu.com - Derivative work of Material icons (Copyright Google Inc.)</desc>
	<g fill="none" fill-rule="nonzero" style="mix-blend-mode: normal">
		<g color="#039be5" class="teamapps-color-1">
			<path d="M288.51,223.49h446.98c35.91,0 65.02,29.11 65.02,65.02v446.98c0,35.91 -29.11,65.02 -65.02,65.02h-446.98c-35.91,0 -65.02,-29.11 -65.02,-65.02v-446.98c0,-35.91 29.11,-65.02 65.02,-65.02zM238.85,288.51v446.98c0,27.43 22.24,49.66 49.66,49.66h446.98c27.43,0 49.66,-22.24 49.66,-49.66v-446.98c0,-27.43 -22.24,-49.66 -49.66,-49.66h-446.98c-27.43,0 -49.66,22.24 -49.66,49.66zM288.51,288.51h446.98v446.98h-446.98z" fill="currentColor"/>
		</g>
	</g>
</svg>