<svg version="1.1" xmlns="http://www.w3.org/2000/svg" xmlns:xlink="http://www.w3.org/1999/xlink" viewBox="0,0,1024,1024">
	<!-- Color names: teamapps-color-1 -->
	<desc>straighten icon - Licensed under Apache License v2.0 (http://www.apache.org/licenses/LICENSE-2.0) - Created with Iconfu.com - Derivative work of Material icons (Copyright Google Inc.)</desc>
	<g fill="none" fill-rule="nonzero" style="mix-blend-mode: normal">
		<g color="#039be5" class="teamapps-color-1">
			<path d="M986.75,363.01v297.99c0,76.88 -62.64,139.52 -139.52,139.52h-670.46c-76.88,0 -139.52,-62.64 -139.52,-139.52v-297.99c0,-76.88 62.64,-139.52 139.52,-139.52h670.46c76.88,0 139.52,62.64 139.52,139.52zM847.23,238.85h-670.46c-68.4,0 -124.16,55.76 -124.16,124.16v297.99c0,68.4 55.76,124.16 124.16,124.16h670.46c68.4,0 124.16,-55.76 124.16,-124.16v-297.99c0,-68.4 -55.76,-124.16 -124.16,-124.16zM921.73,363.01v297.99c0,40.97 -33.52,74.49 -74.49,74.49h-670.46c-40.97,0 -74.49,-33.52 -74.49,-74.49v-297.99c0,-40.97 33.52,-74.49 74.49,-74.49h670.46c40.97,0 74.49,33.52 74.49,74.49zM847.23,363.01h-74.49v148.99h-74.5v-148.99h-74.49v148.99h-74.49v-148.99h-74.5v148.99h-74.49v-148.99h-74.49v148.99h-74.5v-148.99h-74.49v297.99h670.46z" fill="currentColor"/>
		</g>
	</g>
</svg>