<svg version="1.1" xmlns="http://www.w3.org/2000/svg" xmlns:xlink="http://www.w3.org/1999/xlink" viewBox="0,0,1024,1024">
	<!-- Color names: teamapps-color-1 -->
	<desc>subdirectory_arrow_right icon - Licensed under Apache License v2.0 (http://www.apache.org/licenses/LICENSE-2.0) - Created with Iconfu.com - Derivative work of Material icons (Copyright Google Inc.)</desc>
	<g fill="none" fill-rule="nonzero" style="mix-blend-mode: normal">
		<g color="#039be5" class="teamapps-color-1">
			<path d="M818.72,669.72l-223.49,223.49c-25.39,25.39 -66.56,25.39 -91.96,0l-52.9,-52.9c-25.42,-25.42 -25.39,-66.64 0.06,-92.02l22.34,-22.27h-258.76c-35.91,0 -65.02,-29.11 -65.02,-65.02v-446.98c0,-35.91 29.11,-65.02 65.02,-65.02h74.49c35.91,0 65.02,29.11 65.02,65.02v307.45h119.24l-22.34,-22.27c-25.45,-25.38 -25.48,-66.6 -0.06,-92.02l52.9,-52.9c25.39,-25.39 66.56,-25.39 91.96,0l223.49,223.49c25.39,25.39 25.39,66.56 0,91.96zM807.86,588.63l-223.49,-223.49c-19.39,-19.39 -50.84,-19.39 -70.24,0l-52.9,52.9c-19.41,19.41 -19.39,50.9 0.05,70.28l48.65,48.51h-171.76v-322.81c0,-27.43 -22.24,-49.66 -49.66,-49.66h-74.49c-27.43,0 -49.66,22.24 -49.66,49.66v446.98c0,27.43 22.24,49.66 49.66,49.66h295.92l-48.65,48.51c-19.44,19.39 -19.46,50.87 -0.05,70.28l52.9,52.9c19.39,19.39 50.84,19.39 70.24,0l223.49,-223.49c19.39,-19.39 19.39,-50.84 0,-70.24zM772.74,623.74l-223.49,223.49l-52.9,-52.9l133.72,-133.34h-416.05v-446.98h74.49v372.47h341.56l-133.72,-133.34l52.9,-52.9z" fill="currentColor"/>
		</g>
	</g>
</svg>