<svg version="1.1" xmlns="http://www.w3.org/2000/svg" xmlns:xlink="http://www.w3.org/1999/xlink" viewBox="0,0,1024,1024">
	<!-- Color names: teamapps-color-1 -->
	<desc>supervisor_account icon - Licensed under Apache License v2.0 (http://www.apache.org/licenses/LICENSE-2.0) - Created with Iconfu.com - Derivative work of Material icons (Copyright Google Inc.)</desc>
	<g fill="none" fill-rule="nonzero" style="mix-blend-mode: normal">
		<g color="#039be5" class="teamapps-color-1">
			<path d="M400.26,837.76h-260.74c-35.91,0 -65.02,-29.11 -65.02,-65.02v-93.12c0,-108.99 120.38,-159.39 212.71,-180.64c-38.94,-32.4 -63.71,-81.25 -63.71,-135.97c0,-97.75 79.02,-176.77 176.77,-176.77c78.41,0 144.24,50.74 167.45,120.93c28.62,-28.66 68.2,-46.43 111.91,-46.43c87.66,0 157.77,71.17 157.77,158.14c0,46.72 -20.23,88.86 -52.52,117.87c73.14,18.98 164.63,61.56 164.63,152.19v83.81c0,35.91 -29.11,65.02 -65.02,65.02h-409.73c-13.85,0 -26.7,-4.34 -37.25,-11.72c-10.55,7.38 -23.4,11.72 -37.25,11.72zM437.5,805.59c9.1,10.31 22.41,16.81 37.25,16.81h409.73c27.43,0 49.66,-22.24 49.66,-49.66v-83.81c0,-90.99 -107.9,-130.11 -186.26,-144.66c44.3,-24.28 74.14,-71.45 74.14,-125.39c0,-78.57 -63.32,-142.78 -142.41,-142.78c-50.17,0 -94.31,25.9 -119.78,65.05c-10.58,-78.73 -77.54,-139.56 -159.58,-139.56c-89.26,0 -161.41,72.14 -161.41,161.41c0,62.77 35.67,117.07 87.88,143.78c-97.34,16.32 -236.88,63.54 -236.88,172.84v93.12c0,27.43 22.24,49.66 49.66,49.66h260.74c14.83,0 28.15,-6.5 37.25,-16.81zM488.53,559.67c-75.99,42.09 -88.28,97.59 -88.28,129.26v83.81h-260.74v-93.12c0,-86.78 173.95,-130.37 260.74,-130.37c24.58,0 55.87,3.72 88.28,10.42zM884.48,688.93v83.81h-409.73v-83.81c0,-68.16 136.7,-102.44 204.87,-102.44c68.16,0 204.87,34.27 204.87,102.44zM288.51,363.01c0,-61.83 49.91,-111.74 111.74,-111.74c61.83,0 111.37,49.91 111.37,111.74c0,61.83 -49.53,111.74 -111.37,111.74c-61.83,0 -111.74,-49.91 -111.74,-111.74zM586.49,418.88c0,-51.4 41.72,-93.11 93.12,-93.11c51.4,0 92.75,41.71 92.75,93.11c0,51.4 -41.35,93.12 -92.75,93.12c-51.4,0 -93.12,-41.72 -93.12,-93.12z" fill="currentColor"/>
		</g>
	</g>
</svg>