<svg version="1.1" xmlns="http://www.w3.org/2000/svg" xmlns:xlink="http://www.w3.org/1999/xlink" viewBox="0,0,1024,1024">
	<!-- Color names: teamapps-color-1 -->
	<desc>system_update_alt icon - Licensed under Apache License v2.0 (http://www.apache.org/licenses/LICENSE-2.0) - Created with Iconfu.com - Derivative work of Material icons (Copyright Google Inc.)</desc>
	<g fill="none" fill-rule="nonzero" style="mix-blend-mode: normal">
		<g color="#039be5" class="teamapps-color-1">
			<path d="M986.75,269.89v521.47c0,76.88 -62.64,139.52 -139.52,139.52h-670.46c-76.88,0 -139.52,-62.64 -139.52,-139.52v-521.47c0,-76.87 62.63,-139.53 139.52,-139.53h223.49c13.85,0 26.7,4.34 37.25,11.72c10.55,-7.38 23.4,-11.72 37.25,-11.72h74.5c13.85,0 26.7,4.34 37.25,11.72c10.55,-7.38 23.4,-11.72 37.25,-11.72h223.49c76.89,0 139.52,62.65 139.52,139.53zM847.23,145.73h-223.49c-14.83,0 -28.15,6.5 -37.25,16.81c-9.1,-10.31 -22.41,-16.81 -37.25,-16.81h-74.5c-14.83,0 -28.15,6.5 -37.25,16.81c-9.1,-10.31 -22.41,-16.81 -37.25,-16.81h-223.49c-68.41,0 -124.16,55.78 -124.16,124.17v521.47c0,68.4 55.76,124.16 124.16,124.16h670.46c68.4,0 124.16,-55.76 124.16,-124.16v-521.47c0,-68.39 -55.75,-124.17 -124.16,-124.17zM921.73,269.89v521.47c0,40.97 -33.52,74.49 -74.49,74.49h-670.46c-40.97,0 -74.49,-33.52 -74.49,-74.49v-521.47c0,-40.97 33.52,-74.5 74.49,-74.5h223.49v74.13h-223.49v522.59h670.46v-522.59h-223.49v-74.13h223.49c40.97,0 74.49,33.53 74.49,74.5zM363.01,530.62h111.74v-335.23h74.5v335.23h111.74l-148.99,148.99z" fill="currentColor"/>
		</g>
	</g>
</svg>