<svg version="1.1" xmlns="http://www.w3.org/2000/svg" xmlns:xlink="http://www.w3.org/1999/xlink" viewBox="0,0,1024,1024">
	<!-- Color names: teamapps-color-1 -->
	<desc>tablet icon - Licensed under Apache License v2.0 (http://www.apache.org/licenses/LICENSE-2.0) - Created with Iconfu.com - Derivative work of Material icons (Copyright Google Inc.)</desc>
	<g fill="none" fill-rule="nonzero" style="mix-blend-mode: normal">
		<g color="#039be5" class="teamapps-color-1">
			<path d="M986.38,735.54c-0.03,76.42 -61.85,139.46 -139.15,139.46h-670.46c-76.88,0 -139.52,-62.64 -139.52,-139.52v-446.98c0,-76.88 62.64,-139.52 139.52,-139.52h670.46c76.88,0 139.52,62.64 139.52,139.52zM971.39,288.51c0,-68.4 -55.76,-124.16 -124.16,-124.16h-670.46c-68.4,0 -124.16,55.76 -124.16,124.16v446.98c0,68.4 55.76,124.16 124.16,124.16h670.46c68.71,0 123.77,-56.06 123.79,-124.12zM921.73,288.51l-0.37,446.98c0,40.97 -33.16,74.49 -74.13,74.49h-670.46c-40.97,0 -74.49,-33.52 -74.49,-74.49v-446.98c0,-40.97 33.52,-74.49 74.49,-74.49h670.46c40.97,0 74.49,33.52 74.49,74.49zM772.74,288.51h-521.48v446.98h521.48z" fill="currentColor"/>
		</g>
	</g>
</svg>