<svg version="1.1" xmlns="http://www.w3.org/2000/svg" xmlns:xlink="http://www.w3.org/1999/xlink" viewBox="0,0,1024,1024">
	<!-- Color names: teamapps-color-1 -->
	<desc>terrain icon - Licensed under Apache License v2.0 (http://www.apache.org/licenses/LICENSE-2.0) - Created with Iconfu.com - Derivative work of Material icons (Copyright Google Inc.)</desc>
	<g fill="none" fill-rule="nonzero" style="mix-blend-mode: normal">
		<g color="#039be5" class="teamapps-color-1">
			<path d="M921.73,800.51h-819.45c-24.63,0 -47.14,-13.92 -58.16,-35.94c-11.01,-22.03 -8.64,-48.39 6.14,-68.09l223.49,-297.98c12.28,-16.38 31.56,-26.01 52.03,-26.01c20.47,0 39.75,9.65 52.02,26.03c0,0 8.64,11.53 22.45,29.95l134.23,-178.97c12.28,-16.37 31.55,-26.01 52.02,-26.01c20.47,0 39.74,9.64 52.02,26.01l335.23,446.98c14.78,19.7 17.15,46.06 6.14,68.09c-11.01,22.03 -33.53,35.94 -58.16,35.94zM966.15,757.7c8.41,-16.83 6.6,-36.96 -4.69,-52.01l-335.23,-446.98c-9.38,-12.51 -24.1,-19.87 -39.73,-19.87c-15.63,0 -30.35,7.36 -39.73,19.87l-139.68,186.24c-2.43,3.24 -4.41,6.7 -5.95,10.31c-21.27,-28.37 -35.62,-47.53 -35.62,-47.53c-9.38,-12.51 -24.1,-19.88 -39.73,-19.88c-15.64,0 -30.36,7.36 -39.74,19.87l-223.49,297.98c-11.29,15.05 -13.1,35.18 -4.69,52.01c8.41,16.83 25.61,27.45 44.42,27.45h819.45c18.81,0 36.01,-10.63 44.42,-27.45zM921.73,735.49h-819.45l223.49,-297.98c0,0 104.66,139.68 167.62,223.49l59.59,-44.7l-106.16,-141.55l139.68,-186.24z" fill="currentColor"/>
		</g>
	</g>
</svg>