<svg version="1.1" xmlns="http://www.w3.org/2000/svg" xmlns:xlink="http://www.w3.org/1999/xlink" viewBox="0,0,1024,1024">
	<!-- Color names: teamapps-color-1 -->
	<desc>thumb_down icon - Licensed under Apache License v2.0 (http://www.apache.org/licenses/LICENSE-2.0) - Created with Iconfu.com - Derivative work of Material icons (Copyright Google Inc.)</desc>
	<g fill="none" fill-rule="nonzero" style="mix-blend-mode: normal">
		<g color="#039be5" class="teamapps-color-1">
			<path d="M477.15,967.7c-25.31,25.31 -66.31,25.4 -91.74,0.21l-39.5,-39.14c-21.67,-21.67 -35.63,-52.32 -35.63,-85.64l1.37,-17.67c0.2,-2.15 0.53,-4.46 0.97,-6.6l19.28,-92.86h-155.13c-76.89,0 -139.52,-62.65 -139.52,-139.53l0,-74.4c0,-18.36 3.59,-35.42 9.69,-50.99l113.16,-264.25c21.13,-50.34 70.82,-85.11 128.42,-85.11h335.23c35.05,0 67.14,13.03 91.65,34.45c10.95,-20.45 32.49,-34.45 57.34,-34.45h148.99c35.91,0 65.02,29.11 65.02,65.02v446.98c0,35.91 -29.11,65.02 -65.02,65.02h-148.99c-8.2,0 -16.06,-1.52 -23.31,-4.31c-6.78,14.05 -15.86,26.82 -26.82,37.78zM741.74,662.55c8.5,6.8 19.27,10.86 31,10.86h148.99c27.43,0 49.66,-22.24 49.66,-49.66v-446.98c0,-27.43 -22.24,-49.66 -49.66,-49.66h-148.99c-27.43,0 -49.66,22.37 -49.66,49.8c-22.68,-30.21 -58.78,-49.8 -99.33,-49.8h-335.23c-51.29,0 -95.49,30.96 -114.28,75.75l-113,263.85c-5.44,13.91 -8.63,29.07 -8.63,45.39l0,74.4c0,68.39 55.75,124.17 124.16,124.17h174l-23.11,111.34c-0.32,1.55 -0.56,3.12 -0.7,4.7l-1.32,16.44c0,29.03 12.13,55.79 31.08,74.73l39.5,39.14c19.42,19.24 50.74,19.17 70.07,-0.16l245.47,-245.46c13.57,-13.57 23.91,-30.28 29.98,-48.84zM698.24,251.26v372.48c0,20.49 -8.19,39.11 -21.6,52.52l-245.47,245.46l-39.48,-39.11c-10.06,-10.06 -16.39,-24.21 -16.39,-39.48l1.12,-11.93l35.39,-170.22h-235.04c-40.97,0 -74.49,-33.53 -74.49,-74.5l0.37,-2.98l-0.37,-0.38v-71.14c0,-9.68 1.86,-18.63 5.21,-27.19l112.49,-262.6c11.17,-26.82 37.63,-45.44 68.54,-45.44h335.23c40.97,0 74.49,33.52 74.49,74.49zM921.73,176.77v446.98h-148.99v-446.98z" fill="currentColor"/>
		</g>
	</g>
</svg>