<svg version="1.1" xmlns="http://www.w3.org/2000/svg" xmlns:xlink="http://www.w3.org/1999/xlink" viewBox="0,0,1024,1024">
	<!-- Color names: teamapps-color-1 -->
	<desc>toc icon - Licensed under Apache License v2.0 (http://www.apache.org/licenses/LICENSE-2.0) - Created with Iconfu.com - Derivative work of Material icons (Copyright Google Inc.)</desc>
	<g fill="none" fill-rule="nonzero" style="mix-blend-mode: normal">
		<g color="#039be5" class="teamapps-color-1">
			<path d="M698.24,763.26h-521.47c-35.91,0 -65.02,-29.11 -65.02,-65.02v-74.49c0,-13.85 4.34,-26.7 11.72,-37.25c-7.38,-10.55 -11.72,-23.4 -11.72,-37.25v-74.5c0,-13.85 4.34,-26.7 11.72,-37.25c-7.38,-10.55 -11.72,-23.4 -11.72,-37.25v-74.49c0,-35.91 29.11,-65.02 65.02,-65.02h521.47c13.85,0 26.7,4.34 37.25,11.72c10.55,-7.38 23.4,-11.72 37.25,-11.72h74.49c35.91,0 65.02,29.11 65.02,65.02v74.49c0,13.85 -4.34,26.7 -11.72,37.25c7.38,10.55 11.72,23.4 11.72,37.25v74.5c0,13.85 -4.34,26.7 -11.72,37.25c7.38,10.55 11.72,23.4 11.72,37.25v74.49c0,35.91 -29.11,65.02 -65.02,65.02h-74.49c-13.85,0 -26.7,-4.34 -37.25,-11.72c-10.55,7.38 -23.4,11.72 -37.25,11.72zM735.49,731.08c9.1,10.31 22.42,16.82 37.25,16.82h74.49c27.43,0 49.66,-22.24 49.66,-49.66v-74.49c0,-14.83 -6.5,-28.15 -16.81,-37.25c10.31,-9.1 16.81,-22.41 16.81,-37.25v-74.5c0,-14.83 -6.5,-28.15 -16.81,-37.25c10.31,-9.1 16.81,-22.41 16.81,-37.25v-74.49c0,-27.43 -22.24,-49.66 -49.66,-49.66h-74.49c-14.83,0 -28.15,6.5 -37.25,16.82c-9.1,-10.31 -22.42,-16.82 -37.25,-16.82h-521.47c-27.43,0 -49.66,22.24 -49.66,49.66v74.49c0,14.83 6.5,28.15 16.81,37.25c-10.31,9.1 -16.81,22.41 -16.81,37.25v74.5c0,14.83 6.5,28.15 16.81,37.25c-10.31,9.1 -16.81,22.41 -16.81,37.25v74.49c0,27.43 22.24,49.66 49.66,49.66h521.47c14.83,0 28.15,-6.5 37.25,-16.82zM176.77,325.76h521.47v74.49h-521.47zM176.77,474.75h521.47v74.5h-521.47zM176.77,623.74h521.47v74.49h-521.47zM847.23,325.76v74.49h-74.49v-74.49zM772.74,474.75h74.49v74.5h-74.49zM772.74,623.74h74.49v74.49h-74.49z" fill="currentColor"/>
		</g>
	</g>
</svg>