<svg version="1.1" xmlns="http://www.w3.org/2000/svg" xmlns:xlink="http://www.w3.org/1999/xlink" viewBox="0,0,1024,1024">
	<!-- Color names: teamapps-color-1 -->
	<desc>track_changes icon - Licensed under Apache License v2.0 (http://www.apache.org/licenses/LICENSE-2.0) - Created with Iconfu.com - Derivative work of Material icons (Copyright Google Inc.)</desc>
	<g fill="none" fill-rule="nonzero" style="mix-blend-mode: normal">
		<g color="#039be5" class="teamapps-color-1">
			<path d="M949.51,512c0,241.52 -195.99,437.51 -437.51,437.51c-241.52,0 -437.51,-195.99 -437.51,-437.51c0,-241.52 195.99,-437.51 437.51,-437.51h37.25c35.91,0 65.02,29.11 65.02,65.02v178.25l9.68,-9.68c9.84,-9.84 22.06,-15.87 34.81,-18.08c2.21,-12.74 8.24,-24.97 18.08,-34.81l52.52,-52.52c25.39,-25.39 66.56,-25.39 91.96,0c79.1,79.1 128.19,188.55 128.19,309.32zM810.46,213.54c-19.39,-19.4 -50.84,-19.4 -70.24,0l-52.52,52.52c-10.54,10.54 -15.36,24.65 -14.43,38.45c-13.8,-0.92 -27.91,3.89 -38.45,14.43l-35.9,35.9v-215.33c0,-27.43 -22.24,-49.66 -49.66,-49.66h-37.25c-233.04,0 -422.15,189.11 -422.15,422.15c0,233.04 189.11,422.15 422.15,422.15c233.04,0 422.15,-189.11 422.15,-422.15c0,-116.52 -47.35,-222.12 -123.69,-298.46zM884.48,512c0,205.61 -166.87,372.48 -372.48,372.48c-205.61,0 -372.48,-166.87 -372.48,-372.48c0,-205.61 166.87,-372.48 372.48,-372.48h37.25v308.41c22.35,12.67 37.24,36.51 37.24,64.07c0,40.97 -33.52,74.49 -74.49,74.49c-40.97,0 -74.49,-33.52 -74.49,-74.49c0,-27.56 14.89,-51.04 37.24,-64.07v-79.7c-64.07,16.76 -111.74,74.49 -111.74,143.77c0,82.32 66.68,148.99 148.99,148.99c82.32,0 148.99,-66.68 148.99,-148.99c0,-40.97 -16.76,-78.22 -43.58,-105.41l52.52,-52.52c40.6,40.23 65.55,96.1 65.55,157.93c0,123.29 -100.19,223.49 -223.49,223.49c-123.29,0 -223.49,-100.19 -223.49,-223.49c0,-110.63 80.46,-202.26 186.24,-220.14v-75.24c-147.13,18.25 -260.73,143.41 -260.73,295.38c0,164.64 133.34,297.98 297.98,297.98c164.64,0 297.98,-133.34 297.98,-297.98c0,-82.32 -33.52,-156.81 -87.16,-210.82l52.52,-52.52c67.42,67.42 109.14,160.54 109.14,263.34z" fill="currentColor"/>
		</g>
	</g>
</svg>