<svg version="1.1" xmlns="http://www.w3.org/2000/svg" xmlns:xlink="http://www.w3.org/1999/xlink" viewBox="0,0,1024,1024">
	<!-- Color names: teamapps-color-1 -->
	<desc>unarchive icon - Licensed under Apache License v2.0 (http://www.apache.org/licenses/LICENSE-2.0) - Created with Iconfu.com - Derivative work of Material icons (Copyright Google Inc.)</desc>
	<g fill="none" fill-rule="nonzero" style="mix-blend-mode: normal">
		<g color="#039be5" class="teamapps-color-1">
			<path d="M912.26,307.13v465.61c0,76.88 -62.64,139.52 -139.52,139.52h-521.48c-77.48,0 -139.52,-62.86 -139.52,-139.52v-465.61c0,-33.89 11.94,-64.84 32.09,-89.16l51.47,-61.85c22.19,-27.53 55.85,-44.38 93.2,-44.38h446.98c37.76,0 70.77,17.13 92.78,43.06l52.73,63.73c19.1,23.87 31.26,54.71 31.26,88.6zM869.16,228.32c-0.14,-0.18 -0.28,-0.35 -0.43,-0.53l-52.18,-63.05c-19.28,-22.72 -48.1,-37.64 -81.07,-37.64h-446.98c-32.67,0 -61.99,14.73 -81.32,38.75l-51.53,61.92c-17.94,21.65 -28.56,49.16 -28.56,79.36v465.61c0,68.23 55.22,124.16 124.16,124.16h521.48c68.4,0 124.16,-55.76 124.16,-124.16v-465.61c0,-30.19 -10.67,-57.49 -27.73,-78.81zM847.23,307.13v465.61c0,40.97 -33.52,74.49 -74.49,74.49h-521.48c-41.35,0 -74.49,-33.52 -74.49,-74.49v-465.61c0,-18.25 6.34,-34.64 17.14,-47.67l51.77,-62.2c10.06,-12.67 25.33,-20.49 42.84,-20.49h446.98c17.5,0 32.77,7.82 43.2,20.11l51.78,62.58c10.43,13.03 16.76,29.42 16.76,47.67zM307.13,623.74h130.37v74.49h148.99v-74.49h130.37l-204.87,-204.87zM767.89,251.26l-34.64,-37.24h-446.98l-30.55,37.24z" fill="currentColor"/>
		</g>
	</g>
</svg>