<svg version="1.1" xmlns="http://www.w3.org/2000/svg" xmlns:xlink="http://www.w3.org/1999/xlink" viewBox="0,0,1024,1024">
	<!-- Color names: teamapps-color-1 -->
	<desc>undo icon - Licensed under Apache License v2.0 (http://www.apache.org/licenses/LICENSE-2.0) - Created with Iconfu.com - Derivative work of Material icons (Copyright Google Inc.)</desc>
	<g fill="none" fill-rule="nonzero" style="mix-blend-mode: normal">
		<g color="#039be5" class="teamapps-color-1">
			<path d="M922.31,693.71l-88.28,29.05c-34.11,11.23 -70.86,-7.32 -82.09,-41.44c-30.6,-92.97 -118.4,-160.17 -221.32,-160.17c-30.72,0 -59.87,6.09 -86.65,17.1l76.76,76.76c18.6,18.6 24.16,46.56 14.09,70.86c-10.06,24.3 -33.77,40.14 -60.07,40.14h-335.23c-35.91,0 -65.02,-29.11 -65.02,-65.02v-335.23c0,-26.3 15.84,-50.01 40.14,-60.07c24.3,-10.06 52.27,-4.5 70.86,14.1l94.02,94.02c71.83,-47.6 157.89,-75.82 251.11,-75.82c202.31,0 372.83,131.87 433.08,313.49c11.33,34.14 -7.22,70.99 -41.39,82.24zM949.12,616.3c-58.25,-175.58 -223.07,-302.96 -418.5,-302.96c-94.57,0 -181.51,30.05 -252.96,80.33l-103.02,-103.02c-14.2,-14.2 -35.57,-18.45 -54.12,-10.77c-18.56,7.69 -30.66,25.8 -30.66,45.88v335.23c0,27.43 22.24,49.66 49.66,49.66h335.23c20.09,0 38.2,-12.1 45.88,-30.66c7.69,-18.56 3.44,-39.92 -10.76,-54.12l-92.26,-92.27c33.95,-17.73 72.19,-27.82 113.02,-27.82c109.75,0 203.3,71.64 235.91,170.73c8.58,26.05 36.65,40.22 62.7,31.65l88.28,-29.05c26.1,-8.59 40.26,-36.74 31.61,-62.81zM901.99,631.94l-88.28,29.05c-39.11,-118.82 -151.23,-204.87 -283.09,-204.87c-73.01,0 -138.93,26.82 -190.71,70.02l134.83,134.84h-335.23v-335.23l134.09,134.09c68.91,-59.97 158.3,-96.85 257.01,-96.85c173.2,0 319.59,112.87 371.37,268.94z" fill="currentColor"/>
		</g>
	</g>
</svg>