<svg version="1.1" xmlns="http://www.w3.org/2000/svg" xmlns:xlink="http://www.w3.org/1999/xlink" viewBox="0,0,1024,1024">
	<!-- Color names: teamapps-color-1 -->
	<desc>unfold_more icon - Licensed under Apache License v2.0 (http://www.apache.org/licenses/LICENSE-2.0) - Created with Iconfu.com - Derivative work of Material icons (Copyright Google Inc.)</desc>
	<g fill="none" fill-rule="nonzero" style="mix-blend-mode: normal">
		<g color="#039be5" class="teamapps-color-1">
			<path d="M675.89,577.6l52.9,52.52c25.55,25.37 25.62,66.66 0.16,92.12l-170.97,170.97c-25.41,25.41 -66.62,25.39 -92.01,-0.05l-170.59,-170.97c-25.35,-25.4 -25.32,-66.53 0.05,-91.91l52.52,-52.52c25.39,-25.39 66.56,-25.39 91.96,0l72.09,72.09l72.09,-72.09c25.33,-25.33 66.37,-25.4 91.79,-0.16zM348.11,446.4l-52.9,-52.52c-25.55,-25.37 -25.62,-66.66 -0.16,-92.12l170.97,-170.97c25.41,-25.41 66.62,-25.39 92.01,0.05l170.59,170.97c25.35,25.4 25.32,66.53 -0.05,91.91l-52.52,52.52c-25.39,25.39 -66.56,25.39 -91.96,0l-72.09,-72.09l-72.09,72.09c-25.33,25.33 -66.37,25.4 -91.79,0.16zM594.96,588.63l-82.96,82.96l-82.96,-82.96c-19.39,-19.39 -50.84,-19.39 -70.24,0l-52.52,52.52c-19.38,19.38 -19.4,50.8 -0.04,70.2l170.59,170.97c19.39,19.43 50.86,19.45 70.27,0.04l170.97,-170.97c19.44,-19.44 19.39,-50.99 -0.13,-70.36l-52.9,-52.52c-19.41,-19.28 -50.76,-19.22 -70.11,0.12zM429.04,435.37l82.96,-82.96l82.96,82.96c19.39,19.39 50.84,19.39 70.24,0l52.52,-52.52c19.38,-19.38 19.4,-50.8 0.04,-70.2l-170.59,-170.97c-19.39,-19.43 -50.86,-19.45 -70.27,-0.04l-170.97,170.97c-19.44,19.44 -19.39,50.99 0.13,70.36l52.9,52.52c19.41,19.28 50.76,19.22 70.11,-0.12zM630.07,623.74l52.9,52.52l-170.97,170.97l-170.59,-170.97l52.52,-52.52l118.07,118.07zM393.93,400.26l-52.9,-52.52l170.97,-170.97l170.59,170.97l-52.52,52.52l-118.07,-118.07z" fill="currentColor"/>
		</g>
	</g>
</svg>