<svg version="1.1" xmlns="http://www.w3.org/2000/svg" xmlns:xlink="http://www.w3.org/1999/xlink" viewBox="0,0,1024,1024">
	<!-- Color names: teamapps-color-1 -->
	<desc>update icon - Licensed under Apache License v2.0 (http://www.apache.org/licenses/LICENSE-2.0) - Created with Iconfu.com - Derivative work of Material icons (Copyright Google Inc.)</desc>
	<g fill="none" fill-rule="nonzero" style="mix-blend-mode: normal">
		<g color="#039be5" class="teamapps-color-1">
			<path d="M912.26,515.73c0,89.45 -38.59,202.37 -117.64,280.53c-156.09,154.69 -409.23,154.67 -565.29,-0.06c-155.74,-154.41 -157.44,-406.02 -0.68,-561c140.19,-138.59 356.53,-152.7 512.25,-42.29l59.7,-61.44c18.45,-18.99 46.56,-24.89 71.09,-14.94c24.53,9.95 40.57,33.78 40.57,60.25v265.21c0,13.69 -4.24,26.4 -11.46,36.88c7.22,10.48 11.46,23.19 11.46,36.88zM880.5,478.85c10.07,-9.09 16.4,-22.24 16.4,-36.88v-265.21c0,-20.22 -12.26,-38.42 -30.99,-46.02c-18.73,-7.6 -40.21,-3.09 -54.29,11.41l-69.02,71.04c-150.37,-114.51 -365.13,-103.53 -503.15,32.91c-150.62,148.9 -149.06,390.7 0.69,539.17c150.08,148.8 393.57,148.82 543.68,0.05c75.86,-75 113.08,-183.86 113.08,-269.6c0,-14.63 -6.33,-27.79 -16.4,-36.88zM847.23,441.98h-252.54l102.06,-105.04c-101.69,-100.57 -266.33,-104.3 -368.01,-3.73c-101.69,100.94 -101.69,263.72 0,364.66c101.69,100.94 266.33,100.94 368.01,0c50.66,-49.91 75.99,-108.39 75.99,-182.14h74.49c0,73.75 -32.78,169.48 -98.33,234.29c-130.74,129.62 -343.05,129.62 -473.79,0c-130.37,-129.25 -131.48,-339.34 -0.74,-468.58c130.74,-129.25 340.44,-129.25 471.18,0l101.69,-104.66zM530.62,363.01v158.31l130.37,77.47l-26.82,45.07l-159.43,-94.61v-186.25z" fill="currentColor"/>
		</g>
	</g>
</svg>