<svg version="1.1" xmlns="http://www.w3.org/2000/svg" xmlns:xlink="http://www.w3.org/1999/xlink" viewBox="0,0,1024,1024">
	<!-- Color names: teamapps-color-1 -->
	<desc>vertical_align_bottom icon - Licensed under Apache License v2.0 (http://www.apache.org/licenses/LICENSE-2.0) - Created with Iconfu.com - Derivative work of Material icons (Copyright Google Inc.)</desc>
	<g fill="none" fill-rule="nonzero" style="mix-blend-mode: normal">
		<g color="#039be5" class="teamapps-color-1">
			<path d="M317.03,595.23c-18.6,-18.6 -24.16,-46.56 -14.1,-70.86c10.06,-24.3 33.77,-40.14 60.07,-40.14h46.72v-307.46c0,-35.91 29.11,-65.02 65.02,-65.02h74.5c35.91,0 65.02,29.11 65.02,65.02v307.46h46.72c26.3,0 50.01,15.84 60.07,40.14c10.06,24.3 4.5,52.27 -14.1,70.86l-112.49,112.48h215.5c35.91,0 65.02,29.11 65.02,65.02v74.49c0,35.91 -29.11,65.02 -65.02,65.02h-595.96c-35.91,0 -65.02,-29.11 -65.02,-65.02v-74.49c0,-35.91 29.11,-65.02 65.02,-65.02h215.5zM466.6,723.07h-252.58c-27.43,0 -49.66,22.24 -49.66,49.66v74.49c0,27.43 22.24,49.66 49.66,49.66h595.96c27.43,0 49.66,-22.24 49.66,-49.66v-74.49c0,-27.43 -22.24,-49.66 -49.66,-49.66h-252.58l138.71,-138.71c14.2,-14.2 18.45,-35.57 10.77,-54.12c-7.69,-18.56 -25.8,-30.66 -45.88,-30.66h-62.08v-322.82c0,-27.43 -22.24,-49.66 -49.66,-49.66h-74.5c-27.43,0 -49.66,22.24 -49.66,49.66v322.82h-62.08c-20.09,0 -38.2,12.1 -45.88,30.66c-7.69,18.56 -3.44,39.92 10.77,54.12zM512,698.24l-148.99,-148.99h111.74v-372.48h74.5v372.48h111.74zM809.98,772.74v74.49h-595.96v-74.49z" fill="currentColor"/>
		</g>
	</g>
</svg>