<svg version="1.1" xmlns="http://www.w3.org/2000/svg" xmlns:xlink="http://www.w3.org/1999/xlink" viewBox="0,0,1024,1024">
	<!-- Color names: teamapps-color-1 -->
	<desc>vertical_align_center icon - Licensed under Apache License v2.0 (http://www.apache.org/licenses/LICENSE-2.0) - Created with Iconfu.com - Derivative work of Material icons (Copyright Google Inc.)</desc>
	<g fill="none" fill-rule="nonzero" style="mix-blend-mode: normal">
		<g color="#039be5" class="teamapps-color-1">
			<path d="M706.97,726.76c18.6,18.6 24.16,46.56 14.1,70.86c-10.06,24.3 -33.77,40.14 -60.07,40.14h-46.72v83.96c0,35.91 -29.11,65.02 -65.02,65.02h-74.5c-35.91,0 -65.02,-29.11 -65.02,-65.02v-83.96h-46.72c-26.3,0 -50.01,-15.84 -60.07,-40.14c-10.06,-24.3 -4.5,-52.27 14.1,-70.86l112.49,-112.49h-215.49c-35.91,0 -65.02,-29.11 -65.02,-65.02v-74.5c0,-35.91 29.11,-65.02 65.02,-65.02h215.49l-112.49,-112.49c-18.6,-18.6 -24.16,-46.56 -14.1,-70.86c10.06,-24.3 33.77,-40.14 60.07,-40.14h46.72v-83.96c0,-35.91 29.11,-65.02 65.02,-65.02h74.5c35.91,0 65.02,29.11 65.02,65.02v83.96h46.72c26.3,0 50.01,15.84 60.07,40.14c10.06,24.3 4.5,52.27 -14.1,70.86l-112.49,112.49h215.49c35.91,0 65.02,29.11 65.02,65.02v74.5c0,35.91 -29.11,65.02 -65.02,65.02h-215.49zM557.41,598.91h252.57c27.43,0 49.66,-22.24 49.66,-49.66v-74.5c0,-27.43 -22.24,-49.66 -49.66,-49.66h-252.57l138.71,-138.71c14.2,-14.2 18.45,-35.57 10.77,-54.12c-7.69,-18.56 -25.8,-30.66 -45.88,-30.66h-62.08v-99.32c0,-27.43 -22.24,-49.66 -49.66,-49.66h-74.5c-27.43,0 -49.66,22.24 -49.66,49.66v99.32h-62.08c-20.09,0 -38.2,12.1 -45.88,30.66c-7.69,18.56 -3.44,39.92 10.77,54.12l138.71,138.71h-252.57c-27.43,0 -49.66,22.24 -49.66,49.66v74.5c0,27.43 22.24,49.66 49.66,49.66h252.57l-138.71,138.71c-14.2,14.2 -18.45,35.57 -10.77,54.12c7.69,18.56 25.8,30.66 45.88,30.66h62.08v99.32c0,27.43 22.24,49.66 49.66,49.66h74.5c27.43,0 49.66,-22.24 49.66,-49.66v-99.32h62.08c20.09,0 38.2,-12.1 45.88,-30.66c7.69,-18.56 3.44,-39.92 -10.77,-54.12zM512,400.26l-148.99,-148.99h111.74v-148.99h74.5v148.99h111.74zM512,623.74l148.99,148.99h-111.74v148.99h-74.5v-148.99h-111.74zM809.98,474.75v74.5h-595.96v-74.5z" fill="currentColor"/>
		</g>
	</g>
</svg>