<svg version="1.1" xmlns="http://www.w3.org/2000/svg" xmlns:xlink="http://www.w3.org/1999/xlink" viewBox="0,0,1024,1024">
	<!-- Color names: teamapps-color-1 -->
	<desc>vibration icon - Licensed under Apache License v2.0 (http://www.apache.org/licenses/LICENSE-2.0) - Created with Iconfu.com - Derivative work of Material icons (Copyright Google Inc.)</desc>
	<g fill="none" fill-rule="nonzero" style="mix-blend-mode: normal">
		<g color="#039be5" class="teamapps-color-1">
			<path d="M800.51,232.64v28.1h46.72c35.91,0 65.02,29.11 65.02,65.02v9.47h46.72c35.91,0 65.02,29.11 65.02,65.02v223.49c0,35.91 -29.11,65.02 -65.02,65.02h-46.72v9.47c0,35.91 -29.11,65.02 -65.02,65.02h-46.72v28.1c0,66.82 -54.07,120.9 -120.9,120.9h-335.23c-66.82,0 -120.9,-54.07 -120.9,-120.9v-28.1h-46.72c-35.91,0 -65.02,-29.11 -65.02,-65.02v-9.47h-46.72c-35.91,0 -65.02,-29.11 -65.02,-65.02v-223.49c0,-35.91 29.11,-65.02 65.02,-65.02h46.72v-9.47c0,-35.91 29.11,-65.02 65.02,-65.02h46.72v-28.1c0,-66.82 54.07,-120.9 120.9,-120.9h335.23c66.82,0 120.9,54.07 120.9,120.9zM679.62,127.1h-335.23c-58.34,0 -105.54,47.19 -105.54,105.54v43.46h-62.08c-27.43,0 -49.66,22.24 -49.66,49.66v24.83h-62.08c-27.43,0 -49.66,22.24 -49.66,49.66v223.49c0,27.43 22.24,49.66 49.66,49.66h62.08v24.83c0,27.43 22.24,49.66 49.66,49.66h62.08v43.46c0,58.34 47.19,105.54 105.54,105.54h335.23c58.34,0 105.54,-47.19 105.54,-105.54v-43.46h62.08c27.43,0 49.66,-22.24 49.66,-49.66v-24.83h62.08c27.43,0 49.66,-22.24 49.66,-49.66v-223.49c0,-27.43 -22.24,-49.66 -49.66,-49.66h-62.08v-24.83c0,-27.43 -22.24,-49.66 -49.66,-49.66h-62.08v-43.46c0,-58.34 -47.19,-105.54 -105.54,-105.54zM735.49,232.64v558.72c0,30.91 -24.96,55.87 -55.87,55.87h-335.23c-30.91,0 -55.87,-24.96 -55.87,-55.87v-558.72c0,-30.91 24.96,-55.87 55.87,-55.87h335.23c30.91,0 55.87,24.96 55.87,55.87zM660.99,251.26h-297.99v521.48h297.99zM772.74,325.76h74.49v372.47h-74.49zM176.77,325.76h74.49v372.47h-74.49zM958.98,400.26v223.49h-74.49v-223.49zM65.02,400.26h74.49v223.49h-74.49z" fill="currentColor"/>
		</g>
	</g>
</svg>