<svg version="1.1" xmlns="http://www.w3.org/2000/svg" xmlns:xlink="http://www.w3.org/1999/xlink" viewBox="0,0,1024,1024">
	<!-- Color names: teamapps-color-1 -->
	<desc>videocam icon - Licensed under Apache License v2.0 (http://www.apache.org/licenses/LICENSE-2.0) - Created with Iconfu.com - Derivative work of Material icons (Copyright Google Inc.)</desc>
	<g fill="none" fill-rule="nonzero" style="mix-blend-mode: normal">
		<g color="#039be5" class="teamapps-color-1">
			<path d="M912.26,307.13v409.73c0,26.3 -15.84,50.01 -40.14,60.07c-24.3,10.06 -52.27,4.5 -70.86,-14.1l-40.79,-40.79c-10.76,44.94 -51.24,78.46 -99.47,78.46h-446.98c-56.4,0 -102.27,-45.87 -102.27,-102.27v-372.47c0,-56.4 45.87,-102.27 102.27,-102.27h446.98c48.22,0 88.71,33.52 99.47,78.46l40.79,-40.79c18.6,-18.6 46.56,-24.16 70.86,-14.1c24.3,10.06 40.14,33.77 40.14,60.07zM866.24,261.25c-18.56,-7.69 -39.92,-3.44 -54.12,10.77l-64.21,64.21v-10.47c0,-47.9 -38.97,-86.91 -86.91,-86.91h-446.98c-47.92,0 -86.91,39 -86.91,86.91v372.47c0,47.92 39,86.91 86.91,86.91h446.98c47.93,0 86.91,-39.01 86.91,-86.91v-10.47l64.21,64.21c14.2,14.2 35.57,18.45 54.12,10.77c18.56,-7.69 30.66,-25.8 30.66,-45.88v-409.73c0,-20.09 -12.1,-38.2 -30.66,-45.88zM847.23,307.13v409.73l-148.99,-148.99v130.37c0,20.49 -16.75,37.25 -37.24,37.25h-446.98c-20.49,0 -37.25,-16.76 -37.25,-37.25v-372.47c0,-20.49 16.76,-37.25 37.25,-37.25h446.98c20.49,0 37.24,16.76 37.24,37.25v130.37z" fill="currentColor"/>
		</g>
	</g>
</svg>