<svg version="1.1" xmlns="http://www.w3.org/2000/svg" xmlns:xlink="http://www.w3.org/1999/xlink" viewBox="0,0,1024,1024">
	<!-- Color names: teamapps-color-1 -->
	<desc>videocam_off icon - Licensed under Apache License v2.0 (http://www.apache.org/licenses/LICENSE-2.0) - Created with Iconfu.com - Derivative work of Material icons (Copyright Google Inc.)</desc>
	<g fill="none" fill-rule="nonzero" style="mix-blend-mode: normal">
		<g color="#039be5" class="teamapps-color-1">
			<path d="M893.21,845.9l-47.31,47.31c-25.37,25.37 -66.48,25.4 -91.89,0.07l-93.11,-92.82l-446.89,0.05c-56.4,0 -102.27,-45.87 -102.27,-102.27v-372.47c0,-21.18 6.48,-40.88 17.54,-57.22l-35.74,-35.74c-25.39,-25.39 -25.39,-66.56 0,-91.96l47.31,-47.31c25.39,-25.39 66.56,-25.39 91.96,0l150.53,150.53c12.07,-12.89 29.14,-20.58 47.47,-20.58h230.19c48.22,0 88.71,33.52 99.47,78.46l40.79,-40.79c18.6,-18.6 46.56,-24.16 70.86,-14.1c24.3,10.06 40.14,33.77 40.14,60.07v397.81c0,18.33 -7.69,35.4 -20.58,47.47l1.54,1.54c25.39,25.39 25.39,66.56 0,91.96zM882.35,764.81l-14.63,-14.63c17.72,-8.02 29.17,-25.69 29.17,-45.24v-397.81c0,-20.09 -12.1,-38.2 -30.66,-45.88c-18.56,-7.69 -39.92,-3.44 -54.12,10.77l-64.21,64.21v-10.47c0,-47.9 -38.97,-86.91 -86.91,-86.91h-230.19c-19.55,0 -37.22,11.46 -45.24,29.17l-163.62,-163.62c-19.4,-19.39 -50.84,-19.39 -70.24,0l-47.31,47.31c-19.39,19.4 -19.39,50.84 0,70.24l45.36,45.36c-14.07,15.45 -22.66,35.97 -22.66,58.46v372.47c0,47.92 39,86.91 86.91,86.91h446.98c2.07,0 4.1,-0.08 6.08,-0.23l97.78,97.48c19.4,19.34 50.81,19.32 70.18,-0.05l47.31,-47.31c19.39,-19.39 19.39,-50.84 0,-70.24zM847.23,799.92l-47.31,47.31l-118.82,-118.45c-5.59,3.73 -12.29,6.7 -20.11,6.7h-446.98c-20.49,0 -37.25,-16.76 -37.25,-37.25v-372.47c0,-20.49 16.76,-37.25 37.25,-37.25h27.19l-101.69,-101.69l47.31,-47.31zM847.23,704.94l-416.43,-416.43h230.19c20.49,0 37.24,16.76 37.24,37.25v130.37l148.99,-148.99z" fill="currentColor"/>
		</g>
	</g>
</svg>