<svg version="1.1" xmlns="http://www.w3.org/2000/svg" xmlns:xlink="http://www.w3.org/1999/xlink" viewBox="0,0,1024,1024">
	<!-- Color names: teamapps-color-1 -->
	<desc>view_quilt icon - Licensed under Apache License v2.0 (http://www.apache.org/licenses/LICENSE-2.0) - Created with Iconfu.com - Derivative work of Material icons (Copyright Google Inc.)</desc>
	<g fill="none" fill-rule="nonzero" style="mix-blend-mode: normal">
		<g color="#039be5" class="teamapps-color-1">
			<path d="M912.26,251.26v223.49c0,6.45 -0.94,12.71 -2.71,18.63c1.77,5.92 2.71,12.17 2.71,18.63v223.49c0,35.91 -29.11,65.02 -65.02,65.02h-186.24c-6.45,0 -12.71,-0.94 -18.63,-2.71c-5.92,1.77 -12.17,2.71 -18.63,2.71h-186.24c-6.45,0 -12.71,-0.94 -18.63,-2.71c-5.92,1.77 -12.17,2.71 -18.63,2.71h-186.24c-35.91,0 -65.02,-29.11 -65.02,-65.02v-484.23c0,-35.91 29.11,-65.02 65.02,-65.02h186.24c6.45,0 12.71,0.94 18.63,2.71c5.92,-1.77 12.17,-2.71 18.63,-2.71h409.73c35.91,0 65.02,29.11 65.02,65.02zM847.23,201.6h-409.73c-6.59,0 -12.87,1.28 -18.63,3.61c-5.75,-2.33 -12.04,-3.61 -18.63,-3.61h-186.24c-27.43,0 -49.66,22.24 -49.66,49.66v484.23c0,27.43 22.24,49.66 49.66,49.66h186.24c6.59,0 12.87,-1.28 18.63,-3.61c5.75,2.33 12.04,3.61 18.63,3.61h186.24c6.59,0 12.87,-1.28 18.63,-3.61c5.75,2.33 12.04,3.61 18.63,3.61h186.24c27.43,0 49.66,-22.24 49.66,-49.66v-223.49c0,-6.59 -1.28,-12.87 -3.61,-18.63c2.33,-5.75 3.61,-12.04 3.61,-18.63v-223.49c0,-27.43 -22.24,-49.66 -49.66,-49.66zM847.23,251.26v223.49h-409.73v-223.49zM214.02,251.26h186.24v484.23h-186.24zM437.51,512h186.24v223.49h-186.24zM660.99,512h186.24v223.49h-186.24z" fill="currentColor"/>
		</g>
	</g>
</svg>