<svg version="1.1" xmlns="http://www.w3.org/2000/svg" xmlns:xlink="http://www.w3.org/1999/xlink" viewBox="0,0,1024,1024">
	<!-- Color names: teamapps-color-1 -->
	<desc>volume_down icon - Licensed under Apache License v2.0 (http://www.apache.org/licenses/LICENSE-2.0) - Created with Iconfu.com - Derivative work of Material icons (Copyright Google Inc.)</desc>
	<g fill="none" fill-rule="nonzero" style="mix-blend-mode: normal">
		<g color="#039be5" class="teamapps-color-1">
			<path d="M540.51,168.04c18.6,-18.6 46.56,-24.16 70.86,-14.1c24.3,10.06 40.14,33.77 40.14,60.07v83.54c12.98,-1.91 26.45,0.12 38.55,6.17c76.09,38.04 129.06,116.54 129.06,208.27c0,91.68 -52.95,170.35 -129.37,208.05c-12.03,5.93 -25.38,7.91 -38.24,6.01v83.91c0,26.3 -15.84,50.01 -40.14,60.07c-24.3,10.06 -52.27,4.5 -70.86,-14.1l-167.19,-167.19h-122.06c-35.91,0 -65.02,-29.11 -65.02,-65.02v-223.49c0,-35.91 29.11,-65.02 65.02,-65.02h122.06zM379.68,350.59h-128.42c-27.43,0 -49.66,22.24 -49.66,49.66v223.49c0,27.43 22.24,49.66 49.66,49.66h128.42l171.69,171.69c14.2,14.2 35.57,18.45 54.12,10.77c18.56,-7.69 30.66,-25.8 30.66,-45.88v-105.24c14.33,8.28 31.9,8.89 46.81,1.53c71.4,-35.22 120.81,-108.69 120.81,-194.28c0,-85.64 -49.43,-158.97 -120.57,-194.53c-14.95,-7.47 -32.63,-6.91 -47.05,1.42v-104.86c0,-20.09 -12.1,-38.2 -30.66,-45.88c-18.56,-7.69 -39.92,-3.44 -54.12,10.77zM400.26,400.26l186.24,-186.24v595.96l-186.24,-186.24h-148.99v-223.49zM660.99,661.74v-299.85c55.13,27.56 93.11,84.18 93.11,150.11c0,65.93 -37.98,122.54 -93.11,149.74z" fill="currentColor"/>
		</g>
	</g>
</svg>