<svg version="1.1" xmlns="http://www.w3.org/2000/svg" xmlns:xlink="http://www.w3.org/1999/xlink" viewBox="0,0,1024,1024">
	<!-- Color names: teamapps-color-1 -->
	<desc>wb_iridescent icon - Licensed under Apache License v2.0 (http://www.apache.org/licenses/LICENSE-2.0) - Created with Iconfu.com - Derivative work of Material icons (Copyright Google Inc.)</desc>
	<g fill="none" fill-rule="nonzero" style="mix-blend-mode: normal">
		<g color="#039be5" class="teamapps-color-1">
			<path d="M661.57,291.29c-25.39,-25.39 -25.39,-66.56 0,-91.95l66.67,-66.68c25.33,-25.33 66.38,-25.41 91.8,-0.17l52.9,52.52c25.6,25.42 25.61,66.81 0.04,92.25l-56.64,56.14c13.15,11.89 21.43,29.09 21.43,48.25v223.49c0,19.25 -8.36,36.52 -21.62,48.42l56.45,55.95c25.51,25.37 25.57,66.64 0.13,92.08l-52.89,52.9c-25.44,25.45 -66.71,25.39 -92.09,-0.12l-66.68,-67.05c-25.27,-25.41 -25.22,-66.49 0.13,-91.83l25.32,-25.32h-349.04l24.95,24.95c25.34,25.34 25.4,66.41 0.13,91.83l-66.67,67.05c-25.44,25.58 -66.83,25.56 -92.25,-0.03l-52.52,-52.9c-25.24,-25.42 -25.17,-66.46 0.16,-91.79l56.21,-56.04c-13.04,-11.88 -21.25,-29.02 -21.25,-48.08v-223.49c0,-19.17 8.3,-36.39 21.47,-48.28l-56.43,-56.23c-25.39,-25.39 -25.39,-66.56 0,-91.95l52.52,-52.52c25.39,-25.39 66.57,-25.39 91.96,0l66.67,66.68c25.39,25.39 25.39,66.56 0,91.95l-25.32,25.32h349.8zM409.73,901.24v-109.88c0,-35.91 29.11,-65.02 65.02,-65.02h74.5c35.91,0 65.02,29.11 65.02,65.02v109.88c0,35.91 -29.11,65.02 -65.02,65.02h-74.5c-35.91,0 -65.02,-29.11 -65.02,-65.02zM614.27,85.51v109.88c0,35.91 -29.11,65.02 -65.02,65.02h-74.5c-35.91,0 -65.02,-29.11 -65.02,-65.02v-109.88c0,-35.91 29.11,-65.02 65.02,-65.02h74.5c35.91,0 65.02,29.11 65.02,65.02zM300.02,331.97l51.55,-51.55c19.39,-19.39 19.4,-50.84 0,-70.23l-66.67,-66.68c-19.39,-19.4 -50.84,-19.4 -70.24,0l-52.52,52.52c-19.39,19.39 -19.4,50.84 0,70.23l69.84,69.59c-17.85,7.53 -30.38,25.19 -30.38,45.78v223.49c0,20.48 12.39,38.06 30.09,45.66l-69.54,69.33c-19.35,19.35 -19.4,50.7 -0.12,70.11l52.52,52.9c19.41,19.55 51.03,19.56 70.46,0.03l66.67,-67.05c19.3,-19.41 19.26,-50.78 -0.1,-70.14l-51.17,-51.17h423.21l-51.55,51.55c-19.36,19.36 -19.4,50.73 -0.1,70.14l66.68,67.05c19.38,19.49 50.9,19.53 70.33,0.09l52.89,-52.9c19.43,-19.43 19.39,-50.95 -0.1,-70.33l-69.99,-69.38c17.98,-7.47 30.63,-25.2 30.63,-45.89v-223.49c0,-20.59 -12.53,-38.25 -30.38,-45.78l70.12,-69.49c19.53,-19.43 19.52,-51.04 -0.03,-70.46l-52.9,-52.52c-19.42,-19.28 -50.77,-19.22 -70.11,0.13l-66.67,66.68c-19.39,19.4 -19.39,50.84 0,70.23l51.55,51.55zM474.75,950.91h74.5c27.43,0 49.66,-22.24 49.66,-49.66v-109.88c0,-27.43 -22.24,-49.66 -49.66,-49.66h-74.5c-27.43,0 -49.66,22.24 -49.66,49.66v109.88c0,27.43 22.24,49.66 49.66,49.66zM549.25,35.85h-74.5c-27.43,0 -49.66,22.24 -49.66,49.66v109.88c0,27.43 22.24,49.66 49.66,49.66h74.5c27.43,0 49.66,-22.24 49.66,-49.66v-109.88c0,-27.43 -22.24,-49.66 -49.66,-49.66zM251.26,381.63h521.48v223.49h-521.48zM773.86,808.5l-66.68,-67.05l52.52,-52.52l67.05,66.67zM197.26,755.23l66.67,-66.67l52.52,52.52l-66.67,67.05zM827.12,231.15l-67.05,66.68l-52.52,-52.52l66.67,-66.68zM249.78,178.63l66.67,66.68l-52.52,52.52l-66.67,-66.68zM549.25,85.51v109.88h-74.5v-109.88zM474.75,901.24v-109.88h74.5v109.88z" fill="currentColor"/>
		</g>
	</g>
</svg>