<svg version="1.1" xmlns="http://www.w3.org/2000/svg" xmlns:xlink="http://www.w3.org/1999/xlink" viewBox="0,0,1024,1024">
	<!-- Color names: teamapps-color-1 -->
	<desc>wb_incandescent icon - Licensed under Apache License v2.0 (http://www.apache.org/licenses/LICENSE-2.0) - Created with Iconfu.com - Derivative work of Material icons (Copyright Google Inc.)</desc>
	<g fill="none" fill-rule="nonzero" style="mix-blend-mode: normal">
		<g color="#039be5" class="teamapps-color-1">
			<path d="M768.77,624.96c13.31,1.94 26.14,8.02 36.41,18.23l67.05,66.68c25.51,25.37 25.57,66.64 0.13,92.08l-52.52,52.52c-25.44,25.44 -66.71,25.39 -92.08,-0.13l-66.68,-67.05c-10.3,-10.36 -16.39,-23.32 -18.28,-36.75c-10.94,5.58 -22.29,10.49 -33.99,14.66c3.52,8.01 5.48,16.86 5.48,26.15v109.88c0,35.91 -29.11,65.02 -65.02,65.02h-74.5c-35.91,0 -65.02,-29.11 -65.02,-65.02v-109.88c0,-9.29 1.96,-18.14 5.48,-26.15c-11.84,-4.22 -23.32,-9.2 -34.39,-14.86c-1.92,13.36 -8,26.26 -18.25,36.58l-66.67,67.05c-25.37,25.52 -66.64,25.57 -92.09,0.13l-52.52,-52.52c-25.34,-25.34 -25.4,-66.41 -0.13,-91.83l66.67,-67.05c10.4,-10.46 23.47,-16.63 37.01,-18.54c-5.58,-10.95 -10.49,-22.3 -14.66,-34c-8.01,3.52 -16.85,5.47 -26.14,5.47h-111.74c-35.91,0 -65.02,-29.11 -65.02,-65.02v-74.49c0,-35.91 29.11,-65.02 65.02,-65.02h111.74c9.3,0 18.16,1.96 26.18,5.49c18.72,-52.35 52.13,-97.58 95.04,-130.92v-144.77c0,-35.91 29.11,-65.02 65.02,-65.02h223.49c35.91,0 65.02,29.11 65.02,65.02v144.77c42.91,33.35 76.32,78.57 95.04,130.92c8.01,-3.53 16.87,-5.49 26.18,-5.49h111.74c35.91,0 65.02,29.11 65.02,65.02v74.49c0,35.91 -29.11,65.02 -65.02,65.02h-111.74c-9.29,0 -18.14,-1.96 -26.14,-5.47c-4.27,11.98 -9.32,23.6 -15.07,34.79zM775.32,566.19c8.95,8.72 21.18,14.1 34.66,14.1h111.74c27.43,0 49.66,-22.24 49.66,-49.66v-74.49c0,-27.43 -22.24,-49.66 -49.66,-49.66h-111.74c-13.49,0 -25.73,5.38 -34.68,14.11c-16.61,-59.96 -53.21,-111.49 -101.9,-147.26v-152.42c0,-27.43 -22.24,-49.66 -49.66,-49.66h-223.49c-27.43,0 -49.66,22.24 -49.66,49.66v152.42c-48.68,35.77 -85.28,87.3 -101.9,147.26c-8.95,-8.73 -21.19,-14.11 -34.68,-14.11h-111.74c-27.43,0 -49.66,22.24 -49.66,49.66v74.49c0,27.43 22.24,49.66 49.66,49.66h111.74c13.48,0 25.71,-5.37 34.66,-14.1c7.61,27.54 19.44,53.34 34.73,76.67c-18.14,-7.73 -39.94,-4.17 -54.7,10.68l-66.67,67.05c-19.3,19.41 -19.26,50.78 0.1,70.14l52.52,52.52c19.43,19.43 50.96,19.39 70.33,-0.1l66.67,-67.05c14.64,-14.72 18.15,-36.31 10.55,-54.33c23.4,15.39 49.31,27.28 76.96,34.93c-8.72,8.95 -14.1,21.18 -14.1,34.66v109.88c0,27.43 22.24,49.66 49.66,49.66h74.5c27.43,0 49.66,-22.24 49.66,-49.66v-109.88c0,-13.49 -5.37,-25.72 -14.1,-34.66c27.54,-7.61 53.34,-19.44 76.67,-34.73c-7.69,18.06 -4.2,39.74 10.48,54.51l66.68,67.05c19.38,19.49 50.9,19.53 70.33,0.1l52.52,-52.52c19.43,-19.43 19.39,-50.95 -0.1,-70.33l-67.05,-66.68c-14.67,-14.59 -36.17,-18.13 -54.16,-10.63c15.49,-23.48 27.45,-49.49 35.13,-77.27zM735.49,493.38c0,123.29 -100.19,223.49 -223.49,223.49c-123.29,0 -223.49,-100.19 -223.49,-223.49c0,-82.69 45.07,-154.58 111.74,-193.32v-179.17h223.49v179.17c66.67,38.74 111.74,110.63 111.74,193.32zM263.93,688.56l52.52,52.52l-66.67,67.05l-52.52,-52.52zM759.33,689.3l67.05,66.68l-52.52,52.52l-66.68,-67.05zM214.02,530.62h-111.74v-74.49h111.74zM921.73,456.13v74.49h-111.74v-74.49zM474.75,791.36h74.5v109.88h-74.5z" fill="currentColor"/>
		</g>
	</g>
</svg>