<svg version="1.1" xmlns="http://www.w3.org/2000/svg" xmlns:xlink="http://www.w3.org/1999/xlink" viewBox="0,0,1024,1024">
	<!-- Color names: teamapps-color-1 -->
	<desc>wrap_text icon - Licensed under Apache License v2.0 (http://www.apache.org/licenses/LICENSE-2.0) - Created with Iconfu.com - Derivative work of Material icons (Copyright Google Inc.)</desc>
	<g fill="none" fill-rule="nonzero" style="mix-blend-mode: normal">
		<g color="#039be5" class="teamapps-color-1">
			<path d="M912.26,623.74c0,118.23 -95.79,214.02 -214.02,214.02h-9.47v9.47c0,26.3 -15.84,50.01 -40.14,60.07c-24.3,10.06 -52.27,4.5 -70.86,-14.1l-85.46,-85.46c-11.55,18.04 -31.77,30.01 -54.8,30.01h-223.49c-35.91,0 -65.02,-29.11 -65.02,-65.02v-74.5c0,-35.91 29.11,-65.02 65.02,-65.02h223.49c23.03,0 43.25,11.97 54.8,30.01l48.95,-48.95h-327.24c-35.91,0 -65.02,-29.11 -65.02,-65.02v-74.5c0,-35.91 29.11,-65.02 65.02,-65.02h484.22c118.23,0 214.02,95.79 214.02,214.02zM809.98,390.79h-595.96c-35.91,0 -65.02,-29.11 -65.02,-65.02v-74.5c0,-35.91 29.11,-65.02 65.02,-65.02h595.96c35.91,0 65.02,29.11 65.02,65.02v74.5c0,35.91 -29.11,65.02 -65.02,65.02zM698.24,425.09h-484.22c-27.43,0 -49.66,22.24 -49.66,49.66v74.5c0,27.43 22.24,49.66 49.66,49.66h364.32l-91.74,91.74c-3.65,-23.83 -24.24,-42.08 -49.09,-42.08h-223.49c-27.43,0 -49.66,22.24 -49.66,49.66v74.5c0,27.43 22.24,49.66 49.66,49.66h223.49c24.85,0 45.44,-18.25 49.09,-42.08l102.03,102.03c14.2,14.2 35.57,18.45 54.12,10.77c18.56,-7.69 30.66,-25.8 30.66,-45.88v-24.83h24.83c109.74,0 198.66,-88.92 198.66,-198.66c0,-109.74 -88.92,-198.66 -198.66,-198.66zM859.65,325.76v-74.5c0,-27.43 -22.24,-49.66 -49.66,-49.66h-595.96c-27.43,0 -49.66,22.24 -49.66,49.66v74.5c0,27.43 22.24,49.66 49.66,49.66h595.96c27.43,0 49.66,-22.24 49.66,-49.66zM847.23,623.74c0,82.32 -66.68,148.99 -148.99,148.99h-74.49v74.49l-111.74,-111.74l111.74,-111.74v74.49h83.81c40.97,0 74.49,-33.52 74.49,-74.49c0,-40.97 -33.52,-74.49 -74.49,-74.49h-493.53v-74.5h484.22c82.32,0 148.99,66.68 148.99,148.99zM809.98,325.76h-595.96v-74.5h595.96zM214.02,698.24h223.49v74.5h-223.49z" fill="currentColor"/>
		</g>
	</g>
</svg>