<svg version="1.1" xmlns="http://www.w3.org/2000/svg" xmlns:xlink="http://www.w3.org/1999/xlink" viewBox="0,0,1024,1024">
	<!-- Color names: teamapps-color-1 -->
	<desc>youtube_searched_for icon - Licensed under Apache License v2.0 (http://www.apache.org/licenses/LICENSE-2.0) - Created with Iconfu.com - Derivative work of Material icons (Copyright Google Inc.)</desc>
	<g fill="none" fill-rule="nonzero" style="mix-blend-mode: normal">
		<g color="#039be5" class="teamapps-color-1">
			<path d="M930.3,818.88l-55.51,55.12c-25.38,25.21 -66.36,25.18 -91.71,-0.07l-177.76,-177.04c-39.54,18.68 -83.66,29.13 -130.21,29.13c-57.17,0 -110.2,-15.65 -155.86,-42.48c-17.35,-10.2 -29.01,-27.86 -31.56,-47.82c-0.13,-1 -0.23,-2 -0.31,-3c-18.65,1.38 -37.77,-5.25 -51.75,-19.81l-143.03,-148.99c-18.05,-18.8 -23.13,-46.55 -12.91,-70.53c10.22,-23.97 33.76,-39.53 59.82,-39.53h35.6c30.15,-135.9 152.47,-242.11 300,-242.11c169.63,0 307.13,137.5 307.13,307.13c0,46.65 -10.4,90.78 -29.01,130.31l177.26,177.62c25.41,25.46 25.32,66.72 -0.21,92.07zM919.64,737.66l-185.03,-185.4c20.64,-39.93 32.29,-85.22 32.29,-133.38c0,-161.15 -130.63,-291.77 -291.77,-291.77c-144.32,0 -263.51,107.2 -287.41,242.11h-48.2c-19.9,0 -37.88,11.88 -45.69,30.19c-7.8,18.31 -3.92,39.51 9.86,53.87l143.03,148.99c15.49,16.13 39.25,19.54 58.22,9.95c-2.22,6.86 -2.94,14.21 -2,21.55c1.95,15.25 10.85,28.74 24.1,36.52c43.41,25.51 93.76,40.37 148.08,40.37c48.03,0 93.31,-11.71 133.25,-32.42l185.55,184.81c19.36,19.28 50.66,19.3 70.04,0.05l55.51,-55.12c19.5,-19.36 19.57,-50.87 0.16,-70.32zM884.48,772.74l-55.51,55.12l-186.61,-185.86v-29.43l-10.06,-10.06c-42.46,36.5 -97.22,58.48 -157.18,58.48c-45.07,0 -86.78,-12.29 -122.92,-33.52l55.13,-55.13c20.86,8.94 43.58,14.15 67.79,14.15c92.37,0 167.62,-75.24 167.62,-167.62c0,-92.75 -75.24,-167.62 -167.62,-167.62c-92.37,0 -167.62,74.49 -167.62,167.62h130l-154.96,148.99l-143.03,-148.99h93.5c0,-130.37 108.39,-242.11 242.11,-242.11c133.72,0 242.11,108.39 242.11,242.11c0,60.34 -21.97,115.1 -58.47,157.56l10.06,10.06h29.8z" fill="currentColor"/>
		</g>
	</g>
</svg>