<svg version="1.1" xmlns="http://www.w3.org/2000/svg" xmlns:xlink="http://www.w3.org/1999/xlink" viewBox="0,0,1024,1024">
	<!-- Color names: teamapps-color-1, teamapps-color-2, teamapps-color-3 -->
	<desc>alarm_off icon - Licensed under Apache License v2.0 (http://www.apache.org/licenses/LICENSE-2.0) - Created with Iconfu.com - Derivative work of Material icons (Copyright Google Inc.)</desc>
	<defs>
		<linearGradient x1="0" y1="1024" x2="1024" y2="0" id="color-jQFSg7kT" gradientUnits="userSpaceOnUse">
			<stop offset="0.2" stop-color="#000000"/>
			<stop offset="0.8" stop-color="#ffffff"/>
		</linearGradient>
		<radialGradient cx="0" cy="0" r="1448.15" id="color-lvyct121" gradientUnits="userSpaceOnUse">
			<stop offset="0.08" stop-color="#ffffff"/>
			<stop offset="1" stop-color="#000000"/>
		</radialGradient>
		<filter id="filter-ASYX17eZ" color-interpolation-filters="sRGB">
			<feOffset/>
		</filter>
		<mask id="mask-5T5jQKTy">
			<rect fill="url(#color-jQFSg7kT)" x="66.88" y="75.39" width="876.06" height="867.55"/>
		</mask>
		<mask id="mask-hbYX2oIo">
			<path d="M201.42,140.09l708.07,707.66c10,10 10,26.21 0.01,36.21l-51.48,51.48c-10,10 -26.21,10 -36.2,0l-72.82,-72.83c-65.74,50.35 -147.95,80.33 -236.99,80.33c-216.01,0 -390.4,-174.83 -390.4,-390.4c0,-87.7 29.09,-168.77 78.07,-234.01l-24.18,20.47c-10.16,8.61 -25.23,7.98 -34.64,-1.44l-57.55,-57.55c-5.08,-5.08 -7.79,-12.05 -7.47,-19.23c0.32,-7.17 3.63,-13.89 9.13,-18.5l23.56,-19.74l-34.14,-34.14c-9.97,-9.97 -10,-26.13 -0.07,-36.13l51.48,-51.88c10.02,-10.1 26.36,-10.09 36.37,0.02zM396.62,304.33l-61.61,-61.62c-5.85,-5.85 -8.51,-14.17 -7.15,-22.33c1.37,-8.16 6.59,-15.16 14.03,-18.78c51.55,-25.13 108.88,-39.47 170.11,-39.47c62.9,0 122.34,14.88 174.97,41.32l-24.83,-20.84c-10.85,-9.1 -12.25,-25.29 -3.12,-36.11l52.29,-62.02c9.1,-10.79 25.21,-12.18 36.03,-3.11l186.46,156.46c10.85,9.1 12.25,25.29 3.12,36.11l-52.29,62.02c-9.1,10.79 -25.21,12.18 -36.03,3.11l-23.41,-19.65c48.51,65.06 77.22,145.73 77.22,233.11c0,61.23 -14.35,118.56 -39.48,170.11c-3.63,7.44 -10.62,12.66 -18.78,14.03c-8.16,1.37 -16.48,-1.3 -22.33,-7.15l-61.61,-61.61c-7.01,-7.01 -9.34,-17.44 -5.98,-26.77c10.05,-27.92 15.92,-57.82 15.92,-88.61c0,-142.73 -115.41,-258.14 -258.14,-258.14c-30.79,0 -60.69,5.87 -88.61,15.92c-9.33,3.36 -19.76,1.03 -26.77,-5.99zM296.42,410.45c-26.8,40.73 -42.56,89.6 -42.56,142.09c0,142.72 115.41,258.13 258.14,258.13c52.49,0 101.35,-15.75 142.08,-42.55zM297.71,205.43l-57.55,-57.56c-5.1,-5.1 -7.81,-12.12 -7.47,-19.32c0.34,-7.2 3.71,-13.93 9.27,-18.52l34.86,-28.78c10.18,-8.4 25.07,-7.69 34.4,1.64l57.56,57.56c5.1,5.1 7.81,12.12 7.47,19.32c-0.34,7.21 -3.71,13.93 -9.28,18.52l-34.87,28.78c-10.18,8.4 -25.07,7.69 -34.4,-1.64zM143.96,118.42l-51.48,51.88l53.91,53.91l-44.99,37.7l57.55,57.55l44.99,-38.1l32.43,32.42c-55.53,64.04 -89.18,147.54 -89.18,238.74c0,201.45 162.94,364.8 364.8,364.8c91.2,0 174.71,-33.65 238.74,-89.18l89.17,89.18l51.48,-51.48l-708.12,-707.71zM512,268.8c156.86,0 283.74,126.87 283.74,283.74c0,34.05 -6.49,66.88 -17.43,97.28l61.61,61.61c23.51,-48.23 36.89,-101.74 36.89,-158.89c0,-201.45 -163.35,-364.8 -364.8,-364.8c-57.15,0 -110.66,13.37 -158.89,36.88l61.61,61.62c30.4,-10.94 63.23,-17.43 97.28,-17.43zM693.18,771.01c-49.05,40.54 -112.28,65.26 -181.18,65.26c-156.86,0 -283.74,-126.86 -283.74,-283.73c0,-68.9 24.73,-132.14 65.27,-181.18zM917.34,257.45l-186.46,-156.46l-52.29,62.02l186.46,156.46zM350.68,158.55l-57.56,-57.56l-34.86,28.78l57.55,57.56z" fill="#ffffff"/>
		</mask>
		<mask id="mask-JXOBL5EH">
			<path d="M201.42,140.09l708.07,707.66c10,10 10,26.21 0.01,36.21l-51.48,51.48c-10,10 -26.21,10 -36.2,0l-72.82,-72.83c-65.74,50.35 -147.95,80.33 -236.99,80.33c-216.01,0 -390.4,-174.83 -390.4,-390.4c0,-87.7 29.09,-168.77 78.07,-234.01l-24.18,20.47c-10.16,8.61 -25.23,7.98 -34.64,-1.44l-57.55,-57.55c-5.08,-5.08 -7.79,-12.05 -7.47,-19.23c0.32,-7.17 3.63,-13.89 9.13,-18.5l23.56,-19.74l-34.14,-34.14c-9.97,-9.97 -10,-26.13 -0.07,-36.13l51.48,-51.88c10.02,-10.1 26.36,-10.09 36.37,0.02zM396.62,304.33l-61.61,-61.62c-5.85,-5.85 -8.51,-14.17 -7.15,-22.33c1.37,-8.16 6.59,-15.16 14.03,-18.78c51.55,-25.13 108.88,-39.47 170.11,-39.47c62.9,0 122.34,14.88 174.97,41.32l-24.83,-20.84c-10.85,-9.1 -12.25,-25.29 -3.12,-36.11l52.29,-62.02c9.1,-10.79 25.21,-12.18 36.03,-3.11l186.46,156.46c10.85,9.1 12.25,25.29 3.12,36.11l-52.29,62.02c-9.1,10.79 -25.21,12.18 -36.03,3.11l-23.41,-19.65c48.51,65.06 77.22,145.73 77.22,233.11c0,61.23 -14.35,118.56 -39.48,170.11c-3.63,7.44 -10.62,12.66 -18.78,14.03c-8.16,1.37 -16.48,-1.3 -22.33,-7.15l-61.61,-61.61c-7.01,-7.01 -9.34,-17.44 -5.98,-26.77c10.05,-27.92 15.92,-57.82 15.92,-88.61c0,-142.73 -115.41,-258.14 -258.14,-258.14c-30.79,0 -60.69,5.87 -88.61,15.92c-9.33,3.36 -19.76,1.03 -26.77,-5.99zM296.42,410.45c-26.8,40.73 -42.56,89.6 -42.56,142.09c0,142.72 115.41,258.13 258.14,258.13c52.49,0 101.35,-15.75 142.08,-42.55zM297.71,205.43l-57.55,-57.56c-5.1,-5.1 -7.81,-12.12 -7.47,-19.32c0.34,-7.2 3.71,-13.93 9.27,-18.52l34.86,-28.78c10.18,-8.4 25.07,-7.69 34.4,1.64l57.56,57.56c5.1,5.1 7.81,12.12 7.47,19.32c-0.34,7.21 -3.71,13.93 -9.28,18.52l-34.87,28.78c-10.18,8.4 -25.07,7.69 -34.4,-1.64zM143.96,118.42l-51.48,51.88l53.91,53.91l-44.99,37.7l57.55,57.55l44.99,-38.1l32.43,32.42c-55.53,64.04 -89.18,147.54 -89.18,238.74c0,201.45 162.94,364.8 364.8,364.8c91.2,0 174.71,-33.65 238.74,-89.18l89.17,89.18l51.48,-51.48l-708.12,-707.71zM512,268.8c156.86,0 283.74,126.87 283.74,283.74c0,34.05 -6.49,66.88 -17.43,97.28l61.61,61.61c23.51,-48.23 36.89,-101.74 36.89,-158.89c0,-201.45 -163.35,-364.8 -364.8,-364.8c-57.15,0 -110.66,13.37 -158.89,36.88l61.61,61.62c30.4,-10.94 63.23,-17.43 97.28,-17.43zM693.18,771.01c-49.05,40.54 -112.28,65.26 -181.18,65.26c-156.86,0 -283.74,-126.86 -283.74,-283.73c0,-68.9 24.73,-132.14 65.27,-181.18zM917.34,257.45l-186.46,-156.46l-52.29,62.02l186.46,156.46zM350.68,158.55l-57.56,-57.56l-34.86,28.78l57.55,57.56z" fill="url(#color-lvyct121)"/>
		</mask>
	</defs>
	<g fill="none" fill-rule="nonzero" style="mix-blend-mode: normal">
		<g mask="url(#mask-hbYX2oIo)">
			<g color="#ff0000" class="teamapps-color-2">
				<rect x="66.88" y="75.39" width="876.06" height="867.55" fill="currentColor"/>
			</g>
			<g color="#bc13e0" class="teamapps-color-3" mask="url(#mask-5T5jQKTy)">
				<rect x="66.88" y="75.39" width="876.06" height="867.55" fill="currentColor"/>
			</g>
		</g>
		<g filter="url(#filter-ASYX17eZ)" mask="url(#mask-JXOBL5EH)">
			<g color="#fff961" class="teamapps-color-1">
				<rect x="66.88" y="75.39" width="876.06" height="867.55" fill="currentColor"/>
			</g>
		</g>
	</g>
</svg>