<svg version="1.1" xmlns="http://www.w3.org/2000/svg" xmlns:xlink="http://www.w3.org/1999/xlink" viewBox="0,0,1024,1024">
	<!-- Color names: teamapps-color-1, teamapps-color-2, teamapps-color-3 -->
	<desc>arrow_drop_up icon - Licensed under Apache License v2.0 (http://www.apache.org/licenses/LICENSE-2.0) - Created with Iconfu.com - Derivative work of Material icons (Copyright Google Inc.)</desc>
	<defs>
		<linearGradient x1="0" y1="1024" x2="1024" y2="0" id="color-0EJwH7yw" gradientUnits="userSpaceOnUse">
			<stop offset="0.2" stop-color="#000000"/>
			<stop offset="0.8" stop-color="#ffffff"/>
		</linearGradient>
		<radialGradient cx="0" cy="0" r="1448.15" id="color-PmeVC6h9" gradientUnits="userSpaceOnUse">
			<stop offset="0.08" stop-color="#ffffff"/>
			<stop offset="1" stop-color="#000000"/>
		</radialGradient>
		<filter id="filter-czC1ngJt" color-interpolation-filters="sRGB">
			<feOffset/>
		</filter>
		<mask id="mask-FtmLRPny">
			<path d="M291.23,574.96l202.66,-202.66c10,-10 26.21,-10 36.2,0l202.66,202.66c7.32,7.32 9.51,18.33 5.55,27.9c-3.96,9.57 -13.3,15.8 -23.65,15.8h-405.33c-10.35,0 -19.69,-6.24 -23.65,-15.8c-3.96,-9.57 -1.77,-20.58 5.55,-27.9zM714.66,593.06l-202.66,-202.66l-202.66,202.66z" fill="#ffffff"/>
		</mask>
		<mask id="mask-tZgMQSUD">
			<path d="M291.23,574.96l202.66,-202.66c10,-10 26.21,-10 36.2,0l202.66,202.66c7.32,7.32 9.51,18.33 5.55,27.9c-3.96,9.57 -13.3,15.8 -23.65,15.8h-405.33c-10.35,0 -19.69,-6.24 -23.65,-15.8c-3.96,-9.57 -1.77,-20.58 5.55,-27.9zM714.66,593.06l-202.66,-202.66l-202.66,202.66z" fill="url(#color-PmeVC6h9)"/>
		</mask>
		<mask id="mask-xzSl28hV">
			<rect fill="url(#color-0EJwH7yw)" x="283.74" y="364.8" width="456.53" height="253.86"/>
		</mask>
	</defs>
	<g fill="none" fill-rule="nonzero" style="mix-blend-mode: normal">
		<g mask="url(#mask-FtmLRPny)">
			<g color="#ff0000" class="teamapps-color-2">
				<rect x="283.74" y="364.8" width="456.53" height="253.86" fill="currentColor"/>
			</g>
			<g color="#bc13e0" class="teamapps-color-3" mask="url(#mask-xzSl28hV)">
				<rect x="283.74" y="364.8" width="456.53" height="253.86" fill="currentColor"/>
			</g>
		</g>
		<g filter="url(#filter-czC1ngJt)" mask="url(#mask-tZgMQSUD)">
			<g color="#fff961" class="teamapps-color-1">
				<rect x="283.74" y="364.8" width="456.53" height="253.86" fill="currentColor"/>
			</g>
		</g>
	</g>
</svg>