<svg version="1.1" xmlns="http://www.w3.org/2000/svg" xmlns:xlink="http://www.w3.org/1999/xlink" viewBox="0,0,1024,1024">
	<!-- Color names: teamapps-color-1, teamapps-color-2, teamapps-color-3 -->
	<desc>assignment_turned_in icon - Licensed under Apache License v2.0 (http://www.apache.org/licenses/LICENSE-2.0) - Created with Iconfu.com - Derivative work of Material icons (Copyright Google Inc.)</desc>
	<defs>
		<radialGradient cx="0" cy="0" r="1448.15" id="color-ikZ7CtDP" gradientUnits="userSpaceOnUse">
			<stop offset="0.08" stop-color="#ffffff"/>
			<stop offset="1" stop-color="#000000"/>
		</radialGradient>
		<linearGradient x1="0" y1="1024" x2="1024" y2="0" id="color-LdZkVwzZ" gradientUnits="userSpaceOnUse">
			<stop offset="0.2" stop-color="#000000"/>
			<stop offset="0.8" stop-color="#ffffff"/>
		</linearGradient>
		<filter id="filter-50E6mJaT" color-interpolation-filters="sRGB">
			<feOffset/>
		</filter>
		<mask id="mask-7nRm4ev7">
			<rect fill="url(#color-LdZkVwzZ)" x="121.6" y="40.54" width="780.8" height="861.86"/>
		</mask>
		<mask id="mask-qA8DJBEu">
			<path d="M902.4,228.26v567.47c0,58.72 -47.94,106.66 -106.66,106.66h-567.47c-58.72,0 -106.66,-47.94 -106.66,-106.66v-567.47c0,-58.72 47.94,-106.66 106.66,-106.66h152.68c24.28,-47.7 73.51,-81.06 131.05,-81.06c57.54,0 106.77,33.36 131.05,81.06h152.68c58.72,0 106.66,47.94 106.66,106.66zM697.98,369.11l-248.94,248.95c-9.98,9.98 -26.17,10 -36.17,0.04l-86.88,-86.54l-20.98,20.98l125.93,125.92l288.12,-288.12zM497.06,187.74c0,8.15 6.77,14.93 14.94,14.93c8.17,0 14.94,-6.78 14.94,-14.93c0,-8.16 -6.78,-14.94 -14.94,-14.94c-8.16,0 -14.94,6.78 -14.94,14.94zM795.74,147.2h-169.43c-17.02,-47.02 -61.61,-81.06 -114.3,-81.06c-52.7,0 -97.28,34.05 -114.3,81.06h-169.43c-44.58,0 -81.06,36.48 -81.06,81.06v567.47c0,44.58 36.48,81.06 81.06,81.06h567.47c44.58,0 81.06,-36.48 81.06,-81.06v-567.47c0,-44.58 -36.48,-81.06 -81.06,-81.06zM430.94,714.66l-162.14,-162.13l57.15,-57.15l104.98,104.58l267.11,-267.12l57.15,57.56zM512,147.2c22.3,0 40.54,18.24 40.54,40.54c0,22.3 -18.24,40.53 -40.54,40.53c-22.3,0 -40.54,-18.23 -40.54,-40.53c0,-22.3 18.24,-40.54 40.54,-40.54z" fill="#ffffff"/>
		</mask>
		<mask id="mask-VutGtJiV">
			<path d="M902.4,228.26v567.47c0,58.72 -47.94,106.66 -106.66,106.66h-567.47c-58.72,0 -106.66,-47.94 -106.66,-106.66v-567.47c0,-58.72 47.94,-106.66 106.66,-106.66h152.68c24.28,-47.7 73.51,-81.06 131.05,-81.06c57.54,0 106.77,33.36 131.05,81.06h152.68c58.72,0 106.66,47.94 106.66,106.66zM697.98,369.11l-248.94,248.95c-9.98,9.98 -26.17,10 -36.17,0.04l-86.88,-86.54l-20.98,20.98l125.93,125.92l288.12,-288.12zM497.06,187.74c0,8.15 6.77,14.93 14.94,14.93c8.17,0 14.94,-6.78 14.94,-14.93c0,-8.16 -6.78,-14.94 -14.94,-14.94c-8.16,0 -14.94,6.78 -14.94,14.94zM795.74,147.2h-169.43c-17.02,-47.02 -61.61,-81.06 -114.3,-81.06c-52.7,0 -97.28,34.05 -114.3,81.06h-169.43c-44.58,0 -81.06,36.48 -81.06,81.06v567.47c0,44.58 36.48,81.06 81.06,81.06h567.47c44.58,0 81.06,-36.48 81.06,-81.06v-567.47c0,-44.58 -36.48,-81.06 -81.06,-81.06zM430.94,714.66l-162.14,-162.13l57.15,-57.15l104.98,104.58l267.11,-267.12l57.15,57.56zM512,147.2c22.3,0 40.54,18.24 40.54,40.54c0,22.3 -18.24,40.53 -40.54,40.53c-22.3,0 -40.54,-18.23 -40.54,-40.53c0,-22.3 18.24,-40.54 40.54,-40.54z" fill="url(#color-ikZ7CtDP)"/>
		</mask>
	</defs>
	<g fill="none" fill-rule="nonzero" style="mix-blend-mode: normal">
		<g mask="url(#mask-qA8DJBEu)">
			<g color="#ff0000" class="teamapps-color-2">
				<rect x="121.6" y="40.54" width="780.8" height="861.86" fill="currentColor"/>
			</g>
			<g color="#bc13e0" class="teamapps-color-3" mask="url(#mask-7nRm4ev7)">
				<rect x="121.6" y="40.54" width="780.8" height="861.86" fill="currentColor"/>
			</g>
		</g>
		<g filter="url(#filter-50E6mJaT)" mask="url(#mask-VutGtJiV)">
			<g color="#fff961" class="teamapps-color-1">
				<rect x="121.6" y="40.54" width="780.8" height="861.86" fill="currentColor"/>
			</g>
		</g>
	</g>
</svg>