<svg version="1.1" xmlns="http://www.w3.org/2000/svg" xmlns:xlink="http://www.w3.org/1999/xlink" viewBox="0,0,1024,1024">
	<!-- Color names: teamapps-color-1, teamapps-color-2, teamapps-color-3 -->
	<desc>border_all icon - Licensed under Apache License v2.0 (http://www.apache.org/licenses/LICENSE-2.0) - Created with Iconfu.com - Derivative work of Material icons (Copyright Google Inc.)</desc>
	<defs>
		<radialGradient cx="0" cy="0" r="1448.15" id="color-60NHIiAX" gradientUnits="userSpaceOnUse">
			<stop offset="0.08" stop-color="#ffffff"/>
			<stop offset="1" stop-color="#000000"/>
		</radialGradient>
		<linearGradient x1="0" y1="1024" x2="1024" y2="0" id="color-baw9CcpI" gradientUnits="userSpaceOnUse">
			<stop offset="0.2" stop-color="#000000"/>
			<stop offset="0.8" stop-color="#ffffff"/>
		</linearGradient>
		<filter id="filter-GBzceMi6" color-interpolation-filters="sRGB">
			<feOffset/>
		</filter>
		<mask id="mask-7LxPjYCs">
			<path d="M902.4,147.2v729.6c0,14.14 -11.46,25.6 -25.6,25.6h-729.6c-14.14,0 -25.6,-11.46 -25.6,-25.6v-729.6c0,-14.14 11.46,-25.6 25.6,-25.6h729.6c14.14,0 25.6,11.46 25.6,25.6zM445.86,578.14h-192v192h192zM578.14,578.14v192h192v-192zM578.14,253.86v192h192v-192zM253.86,253.86v192h192v-192zM147.2,147.2v729.6h729.6v-729.6zM471.46,795.74h-243.2v-243.2h243.2zM471.46,471.46h-243.2v-243.2h243.2zM795.74,795.74h-243.2v-243.2h243.2zM795.74,471.46h-243.2v-243.2h243.2z" fill="url(#color-60NHIiAX)"/>
		</mask>
		<mask id="mask-FuLMp8yY">
			<path d="M902.4,147.2v729.6c0,14.14 -11.46,25.6 -25.6,25.6h-729.6c-14.14,0 -25.6,-11.46 -25.6,-25.6v-729.6c0,-14.14 11.46,-25.6 25.6,-25.6h729.6c14.14,0 25.6,11.46 25.6,25.6zM445.86,578.14h-192v192h192zM578.14,578.14v192h192v-192zM578.14,253.86v192h192v-192zM253.86,253.86v192h192v-192zM147.2,147.2v729.6h729.6v-729.6zM471.46,795.74h-243.2v-243.2h243.2zM471.46,471.46h-243.2v-243.2h243.2zM795.74,795.74h-243.2v-243.2h243.2zM795.74,471.46h-243.2v-243.2h243.2z" fill="#ffffff"/>
		</mask>
		<mask id="mask-G5cTZfIS">
			<rect fill="url(#color-baw9CcpI)" x="121.6" y="121.6" width="780.8" height="780.8"/>
		</mask>
	</defs>
	<g fill="none" fill-rule="nonzero" style="mix-blend-mode: normal">
		<g mask="url(#mask-FuLMp8yY)">
			<g color="#ff0000" class="teamapps-color-2">
				<rect x="121.6" y="121.6" width="780.8" height="780.8" fill="currentColor"/>
			</g>
			<g color="#bc13e0" class="teamapps-color-3" mask="url(#mask-G5cTZfIS)">
				<rect x="121.6" y="121.6" width="780.8" height="780.8" fill="currentColor"/>
			</g>
		</g>
		<g filter="url(#filter-GBzceMi6)" mask="url(#mask-7LxPjYCs)">
			<g color="#fff961" class="teamapps-color-1">
				<rect x="121.6" y="121.6" width="780.8" height="780.8" fill="currentColor"/>
			</g>
		</g>
	</g>
</svg>