<svg version="1.1" xmlns="http://www.w3.org/2000/svg" xmlns:xlink="http://www.w3.org/1999/xlink" viewBox="0,0,1024,1024">
	<!-- Color names: teamapps-color-1, teamapps-color-2, teamapps-color-3 -->
	<desc>brightness_1 icon - Licensed under Apache License v2.0 (http://www.apache.org/licenses/LICENSE-2.0) - Created with Iconfu.com - Derivative work of Material icons (Copyright Google Inc.)</desc>
	<defs>
		<radialGradient cx="0" cy="0" r="1448.15" id="color-6bDFX85t" gradientUnits="userSpaceOnUse">
			<stop offset="0.08" stop-color="#ffffff"/>
			<stop offset="1" stop-color="#000000"/>
		</radialGradient>
		<linearGradient x1="0" y1="1024" x2="1024" y2="0" id="color-pXe21Jkk" gradientUnits="userSpaceOnUse">
			<stop offset="0.2" stop-color="#000000"/>
			<stop offset="0.8" stop-color="#ffffff"/>
		</linearGradient>
		<filter id="filter-NZYYN0Ju" color-interpolation-filters="sRGB">
			<feOffset/>
		</filter>
		<mask id="mask-CqrZIaMP">
			<path d="M81.06,512c0,-238 192.94,-430.94 430.94,-430.94c238,0 430.94,192.94 430.94,430.94c0,238 -192.94,430.94 -430.94,430.94c-238,0 -430.94,-192.94 -430.94,-430.94zM512,917.34c223.86,0 405.34,-181.48 405.34,-405.34c0,-223.86 -181.48,-405.34 -405.34,-405.34c-223.86,0 -405.34,181.48 -405.34,405.34c0,223.86 181.48,405.34 405.34,405.34z" fill="#ffffff"/>
		</mask>
		<mask id="mask-JwvKSA4m">
			<rect fill="url(#color-pXe21Jkk)" x="81.06" y="81.06" width="861.87" height="861.87"/>
		</mask>
		<mask id="mask-SzyaECqs">
			<path d="M81.06,512c0,-238 192.94,-430.94 430.94,-430.94c238,0 430.94,192.94 430.94,430.94c0,238 -192.94,430.94 -430.94,430.94c-238,0 -430.94,-192.94 -430.94,-430.94zM512,917.34c223.86,0 405.34,-181.48 405.34,-405.34c0,-223.86 -181.48,-405.34 -405.34,-405.34c-223.86,0 -405.34,181.48 -405.34,405.34c0,223.86 181.48,405.34 405.34,405.34z" fill="url(#color-6bDFX85t)"/>
		</mask>
	</defs>
	<g fill="none" fill-rule="nonzero" style="mix-blend-mode: normal">
		<g mask="url(#mask-CqrZIaMP)">
			<g color="#ff0000" class="teamapps-color-2">
				<rect x="81.06" y="81.06" width="861.87" height="861.87" fill="currentColor"/>
			</g>
			<g color="#bc13e0" class="teamapps-color-3" mask="url(#mask-JwvKSA4m)">
				<rect x="81.06" y="81.06" width="861.87" height="861.87" fill="currentColor"/>
			</g>
		</g>
		<g filter="url(#filter-NZYYN0Ju)" mask="url(#mask-SzyaECqs)">
			<g color="#fff961" class="teamapps-color-1">
				<rect x="81.06" y="81.06" width="861.87" height="861.87" fill="currentColor"/>
			</g>
		</g>
	</g>
</svg>