<svg version="1.1" xmlns="http://www.w3.org/2000/svg" xmlns:xlink="http://www.w3.org/1999/xlink" viewBox="0,0,1024,1024">
	<!-- Color names: teamapps-color-1, teamapps-color-2, teamapps-color-3 -->
	<desc>card_membership icon - Licensed under Apache License v2.0 (http://www.apache.org/licenses/LICENSE-2.0) - Created with Iconfu.com - Derivative work of Material icons (Copyright Google Inc.)</desc>
	<defs>
		<linearGradient x1="0" y1="1024" x2="1024" y2="0" id="color-1kNKyy9s" gradientUnits="userSpaceOnUse">
			<stop offset="0.2" stop-color="#000000"/>
			<stop offset="0.8" stop-color="#ffffff"/>
		</linearGradient>
		<radialGradient cx="0" cy="0" r="1448.15" id="color-3DWzB4Co" gradientUnits="userSpaceOnUse">
			<stop offset="0.08" stop-color="#ffffff"/>
			<stop offset="1" stop-color="#000000"/>
		</radialGradient>
		<filter id="filter-sA2zZRlI" color-interpolation-filters="sRGB">
			<feOffset/>
		</filter>
		<mask id="mask-7I1gIFfa">
			<rect fill="url(#color-1kNKyy9s)" x="81.06" y="81.06" width="861.87" height="861.87"/>
		</mask>
		<mask id="mask-DM1omh8I">
			<path d="M942.94,187.74v445.86c0,59.13 -47.55,106.66 -106.67,106.66h-136.53v177.07c0,8.87 -4.59,17.11 -12.14,21.78c-7.55,4.66 -16.97,5.09 -24.91,1.12l-150.69,-75.35l-150.69,75.35c-7.94,3.97 -17.36,3.54 -24.91,-1.12c-7.55,-4.66 -12.14,-12.9 -12.14,-21.78v-177.07h-136.53c-59.13,0 -106.67,-47.53 -106.67,-106.66v-445.86c0,-59.13 47.54,-106.67 106.67,-106.67h648.53c59.13,0 106.67,47.54 106.67,106.67zM213.34,213.34v192h597.33v-192zM810.66,578.14h-597.33v29.86h597.33zM836.26,106.66h-648.53c-44.99,0 -81.07,36.08 -81.07,81.07v445.86c0,44.99 36.08,81.06 81.07,81.06h162.13v202.67l162.14,-81.07l162.14,81.07v-202.67h162.13c44.99,0 81.07,-36.07 81.07,-81.06v-445.86c0,-44.99 -36.08,-81.07 -81.07,-81.07zM836.26,430.94h-648.53v-243.2h648.53zM836.26,633.6h-648.53v-81.06h648.53z" fill="#ffffff"/>
		</mask>
		<mask id="mask-oL2Km4Yy">
			<path d="M942.94,187.74v445.86c0,59.13 -47.55,106.66 -106.67,106.66h-136.53v177.07c0,8.87 -4.59,17.11 -12.14,21.78c-7.55,4.66 -16.97,5.09 -24.91,1.12l-150.69,-75.35l-150.69,75.35c-7.94,3.97 -17.36,3.54 -24.91,-1.12c-7.55,-4.66 -12.14,-12.9 -12.14,-21.78v-177.07h-136.53c-59.13,0 -106.67,-47.53 -106.67,-106.66v-445.86c0,-59.13 47.54,-106.67 106.67,-106.67h648.53c59.13,0 106.67,47.54 106.67,106.67zM213.34,213.34v192h597.33v-192zM810.66,578.14h-597.33v29.86h597.33zM836.26,106.66h-648.53c-44.99,0 -81.07,36.08 -81.07,81.07v445.86c0,44.99 36.08,81.06 81.07,81.06h162.13v202.67l162.14,-81.07l162.14,81.07v-202.67h162.13c44.99,0 81.07,-36.07 81.07,-81.06v-445.86c0,-44.99 -36.08,-81.07 -81.07,-81.07zM836.26,430.94h-648.53v-243.2h648.53zM836.26,633.6h-648.53v-81.06h648.53z" fill="url(#color-3DWzB4Co)"/>
		</mask>
	</defs>
	<g fill="none" fill-rule="nonzero" style="mix-blend-mode: normal">
		<g mask="url(#mask-DM1omh8I)">
			<g color="#ff0000" class="teamapps-color-2">
				<rect x="81.06" y="81.06" width="861.87" height="861.87" fill="currentColor"/>
			</g>
			<g color="#bc13e0" class="teamapps-color-3" mask="url(#mask-7I1gIFfa)">
				<rect x="81.06" y="81.06" width="861.87" height="861.87" fill="currentColor"/>
			</g>
		</g>
		<g filter="url(#filter-sA2zZRlI)" mask="url(#mask-oL2Km4Yy)">
			<g color="#fff961" class="teamapps-color-1">
				<rect x="81.06" y="81.06" width="861.87" height="861.87" fill="currentColor"/>
			</g>
		</g>
	</g>
</svg>