<svg version="1.1" xmlns="http://www.w3.org/2000/svg" xmlns:xlink="http://www.w3.org/1999/xlink" viewBox="0,0,1024,1024">
	<!-- Color names: teamapps-color-1, teamapps-color-2, teamapps-color-3 -->
	<desc>chat icon - Licensed under Apache License v2.0 (http://www.apache.org/licenses/LICENSE-2.0) - Created with Iconfu.com - Derivative work of Material icons (Copyright Google Inc.)</desc>
	<defs>
		<linearGradient x1="0" y1="1024" x2="1024" y2="0" id="color-wPQPbkie" gradientUnits="userSpaceOnUse">
			<stop offset="0.2" stop-color="#000000"/>
			<stop offset="0.8" stop-color="#ffffff"/>
		</linearGradient>
		<radialGradient cx="0" cy="0" r="1448.15" id="color-ZVKBqcsL" gradientUnits="userSpaceOnUse">
			<stop offset="0.08" stop-color="#ffffff"/>
			<stop offset="1" stop-color="#000000"/>
		</radialGradient>
		<filter id="filter-zyjGL8Ww" color-interpolation-filters="sRGB">
			<feOffset/>
		</filter>
		<mask id="mask-40A7xmYz">
			<path d="M942.94,187.74v486.4c0,58.73 -47.95,106.66 -106.67,106.66h-556.86l-154.64,154.64c-7.32,7.32 -18.34,9.51 -27.91,5.55c-9.57,-3.97 -15.8,-13.31 -15.8,-23.66l0.41,-729.6c0,-58.55 47.37,-106.66 106.26,-106.66h648.53c58.72,0 106.67,47.95 106.67,106.67zM729.6,416h-435.2v29.86h435.2zM729.6,294.4h-435.2v29.86h435.2zM567.46,537.6h-273.06v29.86h273.06zM836.26,106.66h-648.53c-44.58,0 -80.66,36.49 -80.66,81.07l-0.41,729.6l162.14,-162.14h567.46c44.58,0 81.07,-36.48 81.07,-81.06v-486.4c0,-44.58 -36.49,-81.07 -81.07,-81.07zM268.8,390.4h486.4v81.06h-486.4zM755.2,349.86h-486.4v-81.06h486.4zM593.06,593.06h-324.26v-81.06h324.26z" fill="url(#color-ZVKBqcsL)"/>
		</mask>
		<mask id="mask-6qZH6fmZ">
			<rect fill="url(#color-wPQPbkie)" x="81.06" y="81.06" width="861.87" height="861.87"/>
		</mask>
		<mask id="mask-aS85Qh6k">
			<path d="M942.94,187.74v486.4c0,58.73 -47.95,106.66 -106.67,106.66h-556.86l-154.64,154.64c-7.32,7.32 -18.34,9.51 -27.91,5.55c-9.57,-3.97 -15.8,-13.31 -15.8,-23.66l0.41,-729.6c0,-58.55 47.37,-106.66 106.26,-106.66h648.53c58.72,0 106.67,47.95 106.67,106.67zM729.6,416h-435.2v29.86h435.2zM729.6,294.4h-435.2v29.86h435.2zM567.46,537.6h-273.06v29.86h273.06zM836.26,106.66h-648.53c-44.58,0 -80.66,36.49 -80.66,81.07l-0.41,729.6l162.14,-162.14h567.46c44.58,0 81.07,-36.48 81.07,-81.06v-486.4c0,-44.58 -36.49,-81.07 -81.07,-81.07zM268.8,390.4h486.4v81.06h-486.4zM755.2,349.86h-486.4v-81.06h486.4zM593.06,593.06h-324.26v-81.06h324.26z" fill="#ffffff"/>
		</mask>
	</defs>
	<g fill="none" fill-rule="nonzero" style="mix-blend-mode: normal">
		<g mask="url(#mask-aS85Qh6k)">
			<g color="#ff0000" class="teamapps-color-2">
				<rect x="81.06" y="81.06" width="861.87" height="861.87" fill="currentColor"/>
			</g>
			<g color="#bc13e0" class="teamapps-color-3" mask="url(#mask-6qZH6fmZ)">
				<rect x="81.06" y="81.06" width="861.87" height="861.87" fill="currentColor"/>
			</g>
		</g>
		<g filter="url(#filter-zyjGL8Ww)" mask="url(#mask-40A7xmYz)">
			<g color="#fff961" class="teamapps-color-1">
				<rect x="81.06" y="81.06" width="861.87" height="861.87" fill="currentColor"/>
			</g>
		</g>
	</g>
</svg>