<svg version="1.1" xmlns="http://www.w3.org/2000/svg" xmlns:xlink="http://www.w3.org/1999/xlink" viewBox="0,0,1024,1024">
	<!-- Color names: teamapps-color-1, teamapps-color-2, teamapps-color-3 -->
	<desc>child_friendly icon - Licensed under Apache License v2.0 (http://www.apache.org/licenses/LICENSE-2.0) - Created with Iconfu.com - Derivative work of Material icons (Copyright Google Inc.)</desc>
	<defs>
		<linearGradient x1="0" y1="1024" x2="1024" y2="0" id="color-0NMj9teu" gradientUnits="userSpaceOnUse">
			<stop offset="0.2" stop-color="#000000"/>
			<stop offset="0.8" stop-color="#ffffff"/>
		</linearGradient>
		<radialGradient cx="0" cy="0" r="1448.15" id="color-xWVaar0z" gradientUnits="userSpaceOnUse">
			<stop offset="0.08" stop-color="#ffffff"/>
			<stop offset="1" stop-color="#000000"/>
		</radialGradient>
		<filter id="filter-BOTimxz0" color-interpolation-filters="sRGB">
			<feOffset/>
		</filter>
		<mask id="mask-BwsL7HlU">
			<path d="M882.14,775.46c0,92.37 -75.1,167.47 -167.47,167.47c-76.46,0 -141.07,-51.27 -160.95,-121.6h-42.9c-19.88,70.34 -84.5,121.6 -160.96,121.6c-92.37,0 -167.46,-75.1 -167.46,-167.47c0,-54.56 26.06,-103.17 66.66,-133.71c-18.81,-37.89 -53.95,-112.98 -68.73,-144.69h-73.66c-14.14,0 -25.6,-11.46 -25.6,-25.6v-81.06c0,-14.14 11.46,-25.6 25.6,-25.6h141.46c9.88,0 18.88,5.69 23.12,14.62l31.56,66.45h228.92c-3.02,-4.2 -4.8,-9.36 -4.8,-14.93v-324.27c0,-14.14 11.46,-25.6 25.6,-25.6c193.3,0 349.86,156.57 349.86,349.87c0,8.25 -3.9,15.58 -9.95,20.26c6.05,4.68 9.95,12.02 9.95,20.26c0,72.48 -22.35,139.99 -60.3,195.8c24.8,29.07 40.03,66.79 40.03,108.2zM385.06,775.46c0,-19.5 -15.7,-35.2 -35.2,-35.2c-19.5,0 -35.2,15.7 -35.2,35.2c0,19.5 15.7,35.2 35.2,35.2c19.5,0 35.2,-15.7 35.2,-35.2zM749.86,775.46c0,-19.5 -15.7,-35.2 -35.2,-35.2c-19.5,0 -35.2,15.7 -35.2,35.2c0,19.5 15.7,35.2 35.2,35.2c19.5,0 35.2,-15.7 35.2,-35.2zM808.7,669.67c42.56,-54.72 68.1,-123.62 68.1,-198.21h-590.17l-38.5,-81.06h-141.46v81.06h89.98c0,0 76.62,164.98 85.94,179.16c-44.58,23.91 -74.58,70.93 -74.58,124.84c0,78.23 63.63,141.87 141.86,141.87c71.34,0 130.52,-52.7 140.25,-121.6h84.31c9.73,68.9 68.9,121.6 140.24,121.6c78.23,0 141.87,-63.64 141.87,-141.87c0,-42.15 -18.65,-79.85 -47.83,-105.79zM552.54,106.66v324.27h324.26c0,-179.16 -145.1,-324.27 -324.26,-324.27zM349.86,836.26c-33.64,0 -60.8,-27.16 -60.8,-60.8c0,-33.64 27.16,-60.8 60.8,-60.8c33.64,0 60.8,27.16 60.8,60.8c0,33.64 -27.16,60.8 -60.8,60.8zM714.66,836.26c-33.64,0 -60.8,-27.16 -60.8,-60.8c0,-33.64 27.16,-60.8 60.8,-60.8c33.64,0 60.8,27.16 60.8,60.8c0,33.64 -27.16,60.8 -60.8,60.8z" fill="url(#color-xWVaar0z)"/>
		</mask>
		<mask id="mask-UxnKGr8t">
			<path d="M882.14,775.46c0,92.37 -75.1,167.47 -167.47,167.47c-76.46,0 -141.07,-51.27 -160.95,-121.6h-42.9c-19.88,70.34 -84.5,121.6 -160.96,121.6c-92.37,0 -167.46,-75.1 -167.46,-167.47c0,-54.56 26.06,-103.17 66.66,-133.71c-18.81,-37.89 -53.95,-112.98 -68.73,-144.69h-73.66c-14.14,0 -25.6,-11.46 -25.6,-25.6v-81.06c0,-14.14 11.46,-25.6 25.6,-25.6h141.46c9.88,0 18.88,5.69 23.12,14.62l31.56,66.45h228.92c-3.02,-4.2 -4.8,-9.36 -4.8,-14.93v-324.27c0,-14.14 11.46,-25.6 25.6,-25.6c193.3,0 349.86,156.57 349.86,349.87c0,8.25 -3.9,15.58 -9.95,20.26c6.05,4.68 9.95,12.02 9.95,20.26c0,72.48 -22.35,139.99 -60.3,195.8c24.8,29.07 40.03,66.79 40.03,108.2zM385.06,775.46c0,-19.5 -15.7,-35.2 -35.2,-35.2c-19.5,0 -35.2,15.7 -35.2,35.2c0,19.5 15.7,35.2 35.2,35.2c19.5,0 35.2,-15.7 35.2,-35.2zM749.86,775.46c0,-19.5 -15.7,-35.2 -35.2,-35.2c-19.5,0 -35.2,15.7 -35.2,35.2c0,19.5 15.7,35.2 35.2,35.2c19.5,0 35.2,-15.7 35.2,-35.2zM808.7,669.67c42.56,-54.72 68.1,-123.62 68.1,-198.21h-590.17l-38.5,-81.06h-141.46v81.06h89.98c0,0 76.62,164.98 85.94,179.16c-44.58,23.91 -74.58,70.93 -74.58,124.84c0,78.23 63.63,141.87 141.86,141.87c71.34,0 130.52,-52.7 140.25,-121.6h84.31c9.73,68.9 68.9,121.6 140.24,121.6c78.23,0 141.87,-63.64 141.87,-141.87c0,-42.15 -18.65,-79.85 -47.83,-105.79zM552.54,106.66v324.27h324.26c0,-179.16 -145.1,-324.27 -324.26,-324.27zM349.86,836.26c-33.64,0 -60.8,-27.16 -60.8,-60.8c0,-33.64 27.16,-60.8 60.8,-60.8c33.64,0 60.8,27.16 60.8,60.8c0,33.64 -27.16,60.8 -60.8,60.8zM714.66,836.26c-33.64,0 -60.8,-27.16 -60.8,-60.8c0,-33.64 27.16,-60.8 60.8,-60.8c33.64,0 60.8,27.16 60.8,60.8c0,33.64 -27.16,60.8 -60.8,60.8z" fill="#ffffff"/>
		</mask>
		<mask id="mask-W8QxHeRR">
			<rect fill="url(#color-0NMj9teu)" x="81.06" y="81.06" width="821.34" height="861.87"/>
		</mask>
	</defs>
	<g fill="none" fill-rule="nonzero" style="mix-blend-mode: normal">
		<g mask="url(#mask-UxnKGr8t)">
			<g color="#ff0000" class="teamapps-color-2">
				<rect x="81.06" y="81.06" width="821.34" height="861.87" fill="currentColor"/>
			</g>
			<g color="#bc13e0" class="teamapps-color-3" mask="url(#mask-W8QxHeRR)">
				<rect x="81.06" y="81.06" width="821.34" height="861.87" fill="currentColor"/>
			</g>
		</g>
		<g filter="url(#filter-BOTimxz0)" mask="url(#mask-BwsL7HlU)">
			<g color="#fff961" class="teamapps-color-1">
				<rect x="81.06" y="81.06" width="821.34" height="861.87" fill="currentColor"/>
			</g>
		</g>
	</g>
</svg>