<svg version="1.1" xmlns="http://www.w3.org/2000/svg" xmlns:xlink="http://www.w3.org/1999/xlink" viewBox="0,0,1024,1024">
	<!-- Color names: teamapps-color-1, teamapps-color-2, teamapps-color-3 -->
	<desc>comment icon - Licensed under Apache License v2.0 (http://www.apache.org/licenses/LICENSE-2.0) - Created with Iconfu.com - Derivative work of Material icons (Copyright Google Inc.)</desc>
	<defs>
		<radialGradient cx="0" cy="0" r="1448.15" id="color-eBIq6hIP" gradientUnits="userSpaceOnUse">
			<stop offset="0.08" stop-color="#ffffff"/>
			<stop offset="1" stop-color="#000000"/>
		</radialGradient>
		<linearGradient x1="0" y1="1024" x2="1024" y2="0" id="color-SSD2UgJ1" gradientUnits="userSpaceOnUse">
			<stop offset="0.2" stop-color="#000000"/>
			<stop offset="0.8" stop-color="#ffffff"/>
		</linearGradient>
		<filter id="filter-3QOee9QJ" color-interpolation-filters="sRGB">
			<feOffset/>
		</filter>
		<mask id="mask-dmz3X41A">
			<rect fill="url(#color-SSD2UgJ1)" x="81.06" y="81.06" width="861.87" height="861.87"/>
		</mask>
		<mask id="mask-goZFL4W4">
			<path d="M899.23,935.44l-154.64,-154.64h-556.86c-58.72,0 -106.67,-47.94 -106.67,-106.66v-486.4c0,-58.72 47.95,-106.67 106.67,-106.67h648.53c58.89,0 106.26,48.12 106.26,106.67l0.41,729.59c0.01,10.36 -6.23,19.7 -15.8,23.66c-9.57,3.97 -20.58,1.78 -27.91,-5.55zM729.6,537.6h-435.2v29.86h435.2zM729.6,416h-435.2v29.86h435.2zM729.6,294.4h-435.2v29.86h435.2zM916.93,187.74c0,-44.58 -36.08,-81.07 -80.66,-81.07h-648.53c-44.58,0 -81.07,36.49 -81.07,81.07v486.4c0,44.58 36.49,81.06 81.07,81.06h567.46l162.14,162.14zM755.2,471.46h-486.4v-81.06h486.4zM755.2,349.86h-486.4v-81.06h486.4zM755.2,593.06h-486.4v-81.06h486.4z" fill="url(#color-eBIq6hIP)"/>
		</mask>
		<mask id="mask-hXKSfFY5">
			<path d="M899.23,935.44l-154.64,-154.64h-556.86c-58.72,0 -106.67,-47.94 -106.67,-106.66v-486.4c0,-58.72 47.95,-106.67 106.67,-106.67h648.53c58.89,0 106.26,48.12 106.26,106.67l0.41,729.59c0.01,10.36 -6.23,19.7 -15.8,23.66c-9.57,3.97 -20.58,1.78 -27.91,-5.55zM729.6,537.6h-435.2v29.86h435.2zM729.6,416h-435.2v29.86h435.2zM729.6,294.4h-435.2v29.86h435.2zM916.93,187.74c0,-44.58 -36.08,-81.07 -80.66,-81.07h-648.53c-44.58,0 -81.07,36.49 -81.07,81.07v486.4c0,44.58 36.49,81.06 81.07,81.06h567.46l162.14,162.14zM755.2,471.46h-486.4v-81.06h486.4zM755.2,349.86h-486.4v-81.06h486.4zM755.2,593.06h-486.4v-81.06h486.4z" fill="#ffffff"/>
		</mask>
	</defs>
	<g fill="none" fill-rule="nonzero" style="mix-blend-mode: normal">
		<g mask="url(#mask-hXKSfFY5)">
			<g color="#ff0000" class="teamapps-color-2">
				<rect x="81.06" y="81.06" width="861.87" height="861.87" fill="currentColor"/>
			</g>
			<g color="#bc13e0" class="teamapps-color-3" mask="url(#mask-dmz3X41A)">
				<rect x="81.06" y="81.06" width="861.87" height="861.87" fill="currentColor"/>
			</g>
		</g>
		<g filter="url(#filter-3QOee9QJ)" mask="url(#mask-goZFL4W4)">
			<g color="#fff961" class="teamapps-color-1">
				<rect x="81.06" y="81.06" width="861.87" height="861.87" fill="currentColor"/>
			</g>
		</g>
	</g>
</svg>