<svg version="1.1" xmlns="http://www.w3.org/2000/svg" xmlns:xlink="http://www.w3.org/1999/xlink" viewBox="0,0,1024,1024">
	<!-- Color names: teamapps-color-1, teamapps-color-2, teamapps-color-3 -->
	<desc>content_copy icon - Licensed under Apache License v2.0 (http://www.apache.org/licenses/LICENSE-2.0) - Created with Iconfu.com - Derivative work of Material icons (Copyright Google Inc.)</desc>
	<defs>
		<linearGradient x1="0" y1="1024" x2="1024" y2="0" id="color-rkgauASp" gradientUnits="userSpaceOnUse">
			<stop offset="0.2" stop-color="#000000"/>
			<stop offset="0.8" stop-color="#ffffff"/>
		</linearGradient>
		<radialGradient cx="0" cy="0" r="1448.15" id="color-zLRAqQOu" gradientUnits="userSpaceOnUse">
			<stop offset="0.08" stop-color="#ffffff"/>
			<stop offset="1" stop-color="#000000"/>
		</radialGradient>
		<filter id="filter-fxTKDjaT" color-interpolation-filters="sRGB">
			<feOffset/>
		</filter>
		<mask id="mask-1ny5t30s">
			<path d="M902.4,309.34v567.46c0,58.72 -47.94,106.66 -106.66,106.66h-445.87c-58.72,0 -106.66,-47.94 -106.66,-106.66v-567.46c0,-58.72 47.94,-106.67 106.66,-106.67h445.87c58.73,0 106.66,47.95 106.66,106.67zM674.14,172.8h-460.8v541.86c0,14.14 -11.46,25.6 -25.6,25.6h-81.07c-14.14,0 -25.6,-11.46 -25.6,-25.6v-567.46c0,-58.73 47.95,-106.66 106.67,-106.66h486.4c14.14,0 25.6,11.46 25.6,25.6v81.06c0,14.14 -11.46,25.6 -25.6,25.6zM375.46,334.94v516.26h394.67v-516.26zM795.74,228.26h-445.87c-44.58,0 -81.06,36.49 -81.06,81.07v567.46c0,44.58 36.48,81.06 81.06,81.06h445.87c44.58,0 81.06,-36.48 81.06,-81.06v-567.46c0,-44.58 -36.48,-81.07 -81.06,-81.07zM674.14,66.14h-486.4c-44.58,0 -81.07,36.48 -81.07,81.06v567.46h81.07v-567.46h486.4zM795.74,876.8h-445.87v-567.46h445.87z" fill="#ffffff"/>
		</mask>
		<mask id="mask-h6UNResJ">
			<path d="M902.4,309.34v567.46c0,58.72 -47.94,106.66 -106.66,106.66h-445.87c-58.72,0 -106.66,-47.94 -106.66,-106.66v-567.46c0,-58.72 47.94,-106.67 106.66,-106.67h445.87c58.73,0 106.66,47.95 106.66,106.67zM674.14,172.8h-460.8v541.86c0,14.14 -11.46,25.6 -25.6,25.6h-81.07c-14.14,0 -25.6,-11.46 -25.6,-25.6v-567.46c0,-58.73 47.95,-106.66 106.67,-106.66h486.4c14.14,0 25.6,11.46 25.6,25.6v81.06c0,14.14 -11.46,25.6 -25.6,25.6zM375.46,334.94v516.26h394.67v-516.26zM795.74,228.26h-445.87c-44.58,0 -81.06,36.49 -81.06,81.07v567.46c0,44.58 36.48,81.06 81.06,81.06h445.87c44.58,0 81.06,-36.48 81.06,-81.06v-567.46c0,-44.58 -36.48,-81.07 -81.06,-81.07zM674.14,66.14h-486.4c-44.58,0 -81.07,36.48 -81.07,81.06v567.46h81.07v-567.46h486.4zM795.74,876.8h-445.87v-567.46h445.87z" fill="url(#color-zLRAqQOu)"/>
		</mask>
		<mask id="mask-Vti81xeC">
			<rect fill="url(#color-rkgauASp)" x="81.06" y="40.54" width="821.34" height="942.93"/>
		</mask>
	</defs>
	<g fill="none" fill-rule="nonzero" style="mix-blend-mode: normal">
		<g mask="url(#mask-1ny5t30s)">
			<g color="#ff0000" class="teamapps-color-2">
				<rect x="81.06" y="40.54" width="821.34" height="942.93" fill="currentColor"/>
			</g>
			<g color="#bc13e0" class="teamapps-color-3" mask="url(#mask-Vti81xeC)">
				<rect x="81.06" y="40.54" width="821.34" height="942.93" fill="currentColor"/>
			</g>
		</g>
		<g filter="url(#filter-fxTKDjaT)" mask="url(#mask-h6UNResJ)">
			<g color="#fff961" class="teamapps-color-1">
				<rect x="81.06" y="40.54" width="821.34" height="942.93" fill="currentColor"/>
			</g>
		</g>
	</g>
</svg>