<svg version="1.1" xmlns="http://www.w3.org/2000/svg" xmlns:xlink="http://www.w3.org/1999/xlink" viewBox="0,0,1024,1024">
	<!-- Color names: teamapps-color-1, teamapps-color-2, teamapps-color-3 -->
	<desc>control_point_duplicate icon - Licensed under Apache License v2.0 (http://www.apache.org/licenses/LICENSE-2.0) - Created with Iconfu.com - Derivative work of Material icons (Copyright Google Inc.)</desc>
	<defs>
		<linearGradient x1="0" y1="1024" x2="1024" y2="0" id="color-jV2a3ZMY" gradientUnits="userSpaceOnUse">
			<stop offset="0.2" stop-color="#000000"/>
			<stop offset="0.8" stop-color="#ffffff"/>
		</linearGradient>
		<radialGradient cx="0" cy="0" r="1448.15" id="color-sQs8yWFK" gradientUnits="userSpaceOnUse">
			<stop offset="0.08" stop-color="#ffffff"/>
			<stop offset="1" stop-color="#000000"/>
		</radialGradient>
		<filter id="filter-TUCbuHmw" color-interpolation-filters="sRGB">
			<feOffset/>
		</filter>
		<mask id="mask-1PvK3ZSQ">
			<rect fill="url(#color-jV2a3ZMY)" x="0" y="121.6" width="1024" height="780.8"/>
		</mask>
		<mask id="mask-bLqKy5uN">
			<path d="M1024,512c0,215.19 -175.21,390.4 -390.4,390.4c-215.19,0 -390.4,-175.21 -390.4,-390.4c0,-215.19 175.21,-390.4 390.4,-390.4c215.19,0 390.4,175.21 390.4,390.4zM891.74,512c0,-142.32 -115.82,-258.14 -258.14,-258.14c-142.32,0 -258.14,115.82 -258.14,258.14c0,142.32 115.82,258.14 258.14,258.14c142.32,0 258.14,-115.82 258.14,-258.14zM294.81,768.17v87.55c0,8.32 -4.04,16.12 -10.84,20.91c-6.8,4.8 -15.5,5.99 -23.33,3.21c-151.24,-53.74 -260.64,-198.07 -260.64,-367.84c0,-169.77 109.39,-314.1 260.64,-367.84c7.84,-2.78 16.54,-1.59 23.33,3.21c6.8,4.8 10.84,12.6 10.84,20.91v87.55c0,9.9 -5.71,18.91 -14.66,23.15c-87.47,41.34 -147.88,130.23 -147.88,233.02c0,102.8 60.41,191.68 147.88,233.02c8.95,4.23 14.66,13.24 14.66,23.15zM699.74,445.86h96c14.14,0 25.6,11.46 25.6,25.6v81.07c0,14.14 -11.46,25.6 -25.6,25.6h-96v96c0,14.14 -11.46,25.6 -25.6,25.6h-81.07c-14.14,0 -25.6,-11.46 -25.6,-25.6v-96h-96c-14.14,0 -25.6,-11.46 -25.6,-25.6v-81.07c0,-14.14 11.46,-25.6 25.6,-25.6h96v-96c0,-14.14 11.46,-25.6 25.6,-25.6h81.07c14.14,0 25.6,11.46 25.6,25.6zM633.6,147.2c-201.05,0 -364.8,163.75 -364.8,364.8c0,201.05 163.75,364.8 364.8,364.8c201.05,0 364.8,-163.75 364.8,-364.8c0,-201.05 -163.75,-364.8 -364.8,-364.8zM633.6,795.74c-156.46,0 -283.74,-127.28 -283.74,-283.74c0,-156.46 127.28,-283.74 283.74,-283.74c156.46,0 283.74,127.28 283.74,283.74c0,156.46 -127.28,283.74 -283.74,283.74zM106.66,512c0,-113.09 66.48,-210.77 162.55,-256.17v-87.55c-141.46,50.26 -243.61,185.23 -243.61,343.72c0,158.49 102.14,293.46 243.61,343.72v-87.55c-96.06,-45.4 -162.55,-143.08 -162.55,-256.17zM674.14,349.86h-81.07v121.6h-121.6v81.07h121.6v121.6h81.07v-121.6h121.6v-81.07h-121.6z" fill="url(#color-sQs8yWFK)"/>
		</mask>
		<mask id="mask-zk9hUNiO">
			<path d="M1024,512c0,215.19 -175.21,390.4 -390.4,390.4c-215.19,0 -390.4,-175.21 -390.4,-390.4c0,-215.19 175.21,-390.4 390.4,-390.4c215.19,0 390.4,175.21 390.4,390.4zM891.74,512c0,-142.32 -115.82,-258.14 -258.14,-258.14c-142.32,0 -258.14,115.82 -258.14,258.14c0,142.32 115.82,258.14 258.14,258.14c142.32,0 258.14,-115.82 258.14,-258.14zM294.81,768.17v87.55c0,8.32 -4.04,16.12 -10.84,20.91c-6.8,4.8 -15.5,5.99 -23.33,3.21c-151.24,-53.74 -260.64,-198.07 -260.64,-367.84c0,-169.77 109.39,-314.1 260.64,-367.84c7.84,-2.78 16.54,-1.59 23.33,3.21c6.8,4.8 10.84,12.6 10.84,20.91v87.55c0,9.9 -5.71,18.91 -14.66,23.15c-87.47,41.34 -147.88,130.23 -147.88,233.02c0,102.8 60.41,191.68 147.88,233.02c8.95,4.23 14.66,13.24 14.66,23.15zM699.74,445.86h96c14.14,0 25.6,11.46 25.6,25.6v81.07c0,14.14 -11.46,25.6 -25.6,25.6h-96v96c0,14.14 -11.46,25.6 -25.6,25.6h-81.07c-14.14,0 -25.6,-11.46 -25.6,-25.6v-96h-96c-14.14,0 -25.6,-11.46 -25.6,-25.6v-81.07c0,-14.14 11.46,-25.6 25.6,-25.6h96v-96c0,-14.14 11.46,-25.6 25.6,-25.6h81.07c14.14,0 25.6,11.46 25.6,25.6zM633.6,147.2c-201.05,0 -364.8,163.75 -364.8,364.8c0,201.05 163.75,364.8 364.8,364.8c201.05,0 364.8,-163.75 364.8,-364.8c0,-201.05 -163.75,-364.8 -364.8,-364.8zM633.6,795.74c-156.46,0 -283.74,-127.28 -283.74,-283.74c0,-156.46 127.28,-283.74 283.74,-283.74c156.46,0 283.74,127.28 283.74,283.74c0,156.46 -127.28,283.74 -283.74,283.74zM106.66,512c0,-113.09 66.48,-210.77 162.55,-256.17v-87.55c-141.46,50.26 -243.61,185.23 -243.61,343.72c0,158.49 102.14,293.46 243.61,343.72v-87.55c-96.06,-45.4 -162.55,-143.08 -162.55,-256.17zM674.14,349.86h-81.07v121.6h-121.6v81.07h121.6v121.6h81.07v-121.6h121.6v-81.07h-121.6z" fill="#ffffff"/>
		</mask>
	</defs>
	<g fill="none" fill-rule="nonzero" style="mix-blend-mode: normal">
		<g mask="url(#mask-zk9hUNiO)">
			<g color="#ff0000" class="teamapps-color-2">
				<rect x="0" y="121.6" width="1024" height="780.8" fill="currentColor"/>
			</g>
			<g color="#bc13e0" class="teamapps-color-3" mask="url(#mask-1PvK3ZSQ)">
				<rect x="0" y="121.6" width="1024" height="780.8" fill="currentColor"/>
			</g>
		</g>
		<g filter="url(#filter-TUCbuHmw)" mask="url(#mask-bLqKy5uN)">
			<g color="#fff961" class="teamapps-color-1">
				<rect x="0" y="121.6" width="1024" height="780.8" fill="currentColor"/>
			</g>
		</g>
	</g>
</svg>