<svg version="1.1" xmlns="http://www.w3.org/2000/svg" xmlns:xlink="http://www.w3.org/1999/xlink" viewBox="0,0,1024,1024">
	<!-- Color names: teamapps-color-1, teamapps-color-2, teamapps-color-3 -->
	<desc>create_new_folder icon - Licensed under Apache License v2.0 (http://www.apache.org/licenses/LICENSE-2.0) - Created with Iconfu.com - Derivative work of Material icons (Copyright Google Inc.)</desc>
	<defs>
		<linearGradient x1="0" y1="1024" x2="1024" y2="0" id="color-7qXfcr2L" gradientUnits="userSpaceOnUse">
			<stop offset="0.2" stop-color="#000000"/>
			<stop offset="0.8" stop-color="#ffffff"/>
		</linearGradient>
		<radialGradient cx="0" cy="0" r="1448.15" id="color-wBW7cqj1" gradientUnits="userSpaceOnUse">
			<stop offset="0.08" stop-color="#ffffff"/>
			<stop offset="1" stop-color="#000000"/>
		</radialGradient>
		<filter id="filter-a3ydj9dl" color-interpolation-filters="sRGB">
			<feOffset/>
		</filter>
		<mask id="mask-3fIbpoh1">
			<path d="M942.94,349.86v405.34c0,59.13 -47.55,106.66 -106.67,106.66h-648.53c-59.13,0 -106.67,-47.53 -106.67,-106.66l0.41,-486.42c0,-58.96 46.97,-106.64 106.26,-106.64h243.2c6.79,0 13.3,2.7 18.1,7.5l73.57,73.57h313.66c59.13,0 106.67,47.53 106.67,106.66zM770.14,537.6h-96c-14.14,0 -25.6,-11.46 -25.6,-25.6v-96h-29.87v96c0,14.14 -11.46,25.6 -25.6,25.6h-96v29.86h96c14.14,0 25.6,11.46 25.6,25.6v96h29.87v-96c0,-14.14 11.46,-25.6 25.6,-25.6h96zM836.26,268.8h-324.26l-81.06,-81.06h-243.2c-44.99,0 -80.66,36.07 -80.66,81.06l-0.41,486.4c0,44.99 36.08,81.06 81.07,81.06h648.53c44.99,0 81.07,-36.07 81.07,-81.06v-405.34c0,-44.99 -36.08,-81.06 -81.07,-81.06zM795.74,593.06h-121.6v121.6h-81.07v-121.6h-121.6v-81.06h121.6v-121.6h81.07v121.6h121.6z" fill="#ffffff"/>
		</mask>
		<mask id="mask-I8KxYtmW">
			<path d="M942.94,349.86v405.34c0,59.13 -47.55,106.66 -106.67,106.66h-648.53c-59.13,0 -106.67,-47.53 -106.67,-106.66l0.41,-486.42c0,-58.96 46.97,-106.64 106.26,-106.64h243.2c6.79,0 13.3,2.7 18.1,7.5l73.57,73.57h313.66c59.13,0 106.67,47.53 106.67,106.66zM770.14,537.6h-96c-14.14,0 -25.6,-11.46 -25.6,-25.6v-96h-29.87v96c0,14.14 -11.46,25.6 -25.6,25.6h-96v29.86h96c14.14,0 25.6,11.46 25.6,25.6v96h29.87v-96c0,-14.14 11.46,-25.6 25.6,-25.6h96zM836.26,268.8h-324.26l-81.06,-81.06h-243.2c-44.99,0 -80.66,36.07 -80.66,81.06l-0.41,486.4c0,44.99 36.08,81.06 81.07,81.06h648.53c44.99,0 81.07,-36.07 81.07,-81.06v-405.34c0,-44.99 -36.08,-81.06 -81.07,-81.06zM795.74,593.06h-121.6v121.6h-81.07v-121.6h-121.6v-81.06h121.6v-121.6h81.07v121.6h121.6z" fill="url(#color-wBW7cqj1)"/>
		</mask>
		<mask id="mask-ttXPx1nE">
			<rect fill="url(#color-7qXfcr2L)" x="81.06" y="162.14" width="861.87" height="699.73"/>
		</mask>
	</defs>
	<g fill="none" fill-rule="nonzero" style="mix-blend-mode: normal">
		<g mask="url(#mask-3fIbpoh1)">
			<g color="#ff0000" class="teamapps-color-2">
				<rect x="81.06" y="162.14" width="861.87" height="699.73" fill="currentColor"/>
			</g>
			<g color="#bc13e0" class="teamapps-color-3" mask="url(#mask-ttXPx1nE)">
				<rect x="81.06" y="162.14" width="861.87" height="699.73" fill="currentColor"/>
			</g>
		</g>
		<g filter="url(#filter-a3ydj9dl)" mask="url(#mask-I8KxYtmW)">
			<g color="#fff961" class="teamapps-color-1">
				<rect x="81.06" y="162.14" width="861.87" height="699.73" fill="currentColor"/>
			</g>
		</g>
	</g>
</svg>