<svg version="1.1" xmlns="http://www.w3.org/2000/svg" xmlns:xlink="http://www.w3.org/1999/xlink" viewBox="0,0,1024,1024">
	<!-- Color names: teamapps-color-1, teamapps-color-2, teamapps-color-3 -->
	<desc>crop_original icon - Licensed under Apache License v2.0 (http://www.apache.org/licenses/LICENSE-2.0) - Created with Iconfu.com - Derivative work of Material icons (Copyright Google Inc.)</desc>
	<defs>
		<radialGradient cx="0" cy="0" r="1448.15" id="color-7yNkYdnW" gradientUnits="userSpaceOnUse">
			<stop offset="0.08" stop-color="#ffffff"/>
			<stop offset="1" stop-color="#000000"/>
		</radialGradient>
		<linearGradient x1="0" y1="1024" x2="1024" y2="0" id="color-l3SrenNY" gradientUnits="userSpaceOnUse">
			<stop offset="0.2" stop-color="#000000"/>
			<stop offset="0.8" stop-color="#ffffff"/>
		</linearGradient>
		<filter id="filter-6enTkWCL" color-interpolation-filters="sRGB">
			<feOffset/>
		</filter>
		<mask id="mask-DwWKGoAh">
			<path d="M902.4,228.26v567.47c0,58.72 -47.94,106.66 -106.66,106.66h-567.47c-58.72,0 -106.66,-47.94 -106.66,-106.66v-567.47c0,-58.72 47.94,-106.66 106.66,-106.66h567.47c58.72,0 106.66,47.94 106.66,106.66zM253.86,253.86v516.27h516.27v-516.27zM734.94,740.26h-445.87c-9.78,0 -18.71,-5.57 -23,-14.36c-4.29,-8.79 -3.2,-19.26 2.81,-26.97l111.47,-143.08c4.76,-6.12 12.04,-9.74 19.8,-9.86c7.75,-0.12 15.14,3.28 20.09,9.24l59.08,71.14l91.92,-118.32c4.89,-6.3 12.44,-9.96 20.42,-9.89c7.98,0.06 15.47,3.84 20.26,10.22l143.49,190.91c5.83,7.76 6.77,18.14 2.44,26.82c-4.33,8.68 -13.2,14.16 -22.9,14.16zM795.74,147.2h-567.47c-44.58,0 -81.06,36.48 -81.06,81.06v567.47c0,44.58 36.48,81.06 81.06,81.06h567.47c44.58,0 81.06,-36.48 81.06,-81.06v-567.47c0,-44.58 -36.48,-81.06 -81.06,-81.06zM795.74,795.74h-567.47v-567.47h567.47zM591.45,523.75l-111.47,143.49l-79.44,-95.66l-111.47,143.08h445.87z" fill="url(#color-7yNkYdnW)"/>
		</mask>
		<mask id="mask-upkd1J7C">
			<rect fill="url(#color-l3SrenNY)" x="121.6" y="121.6" width="780.8" height="780.8"/>
		</mask>
		<mask id="mask-vA9qDXtY">
			<path d="M902.4,228.26v567.47c0,58.72 -47.94,106.66 -106.66,106.66h-567.47c-58.72,0 -106.66,-47.94 -106.66,-106.66v-567.47c0,-58.72 47.94,-106.66 106.66,-106.66h567.47c58.72,0 106.66,47.94 106.66,106.66zM253.86,253.86v516.27h516.27v-516.27zM734.94,740.26h-445.87c-9.78,0 -18.71,-5.57 -23,-14.36c-4.29,-8.79 -3.2,-19.26 2.81,-26.97l111.47,-143.08c4.76,-6.12 12.04,-9.74 19.8,-9.86c7.75,-0.12 15.14,3.28 20.09,9.24l59.08,71.14l91.92,-118.32c4.89,-6.3 12.44,-9.96 20.42,-9.89c7.98,0.06 15.47,3.84 20.26,10.22l143.49,190.91c5.83,7.76 6.77,18.14 2.44,26.82c-4.33,8.68 -13.2,14.16 -22.9,14.16zM795.74,147.2h-567.47c-44.58,0 -81.06,36.48 -81.06,81.06v567.47c0,44.58 36.48,81.06 81.06,81.06h567.47c44.58,0 81.06,-36.48 81.06,-81.06v-567.47c0,-44.58 -36.48,-81.06 -81.06,-81.06zM795.74,795.74h-567.47v-567.47h567.47zM591.45,523.75l-111.47,143.49l-79.44,-95.66l-111.47,143.08h445.87z" fill="#ffffff"/>
		</mask>
	</defs>
	<g fill="none" fill-rule="nonzero" style="mix-blend-mode: normal">
		<g mask="url(#mask-vA9qDXtY)">
			<g color="#ff0000" class="teamapps-color-2">
				<rect x="121.6" y="121.6" width="780.8" height="780.8" fill="currentColor"/>
			</g>
			<g color="#bc13e0" class="teamapps-color-3" mask="url(#mask-upkd1J7C)">
				<rect x="121.6" y="121.6" width="780.8" height="780.8" fill="currentColor"/>
			</g>
		</g>
		<g filter="url(#filter-6enTkWCL)" mask="url(#mask-DwWKGoAh)">
			<g color="#fff961" class="teamapps-color-1">
				<rect x="121.6" y="121.6" width="780.8" height="780.8" fill="currentColor"/>
			</g>
		</g>
	</g>
</svg>