<svg version="1.1" xmlns="http://www.w3.org/2000/svg" xmlns:xlink="http://www.w3.org/1999/xlink" viewBox="0,0,1024,1024">
	<!-- Color names: teamapps-color-1, teamapps-color-2, teamapps-color-3 -->
	<desc>crop_landscape icon - Licensed under Apache License v2.0 (http://www.apache.org/licenses/LICENSE-2.0) - Created with Iconfu.com - Derivative work of Material icons (Copyright Google Inc.)</desc>
	<defs>
		<linearGradient x1="0" y1="1024" x2="1024" y2="0" id="color-no8wL3Du" gradientUnits="userSpaceOnUse">
			<stop offset="0.2" stop-color="#000000"/>
			<stop offset="0.8" stop-color="#ffffff"/>
		</linearGradient>
		<radialGradient cx="0" cy="0" r="1448.15" id="color-Te1chNMC" gradientUnits="userSpaceOnUse">
			<stop offset="0.08" stop-color="#ffffff"/>
			<stop offset="1" stop-color="#000000"/>
		</radialGradient>
		<filter id="filter-gcQQjz7y" color-interpolation-filters="sRGB">
			<feOffset/>
		</filter>
		<mask id="mask-8Jt9GYyv">
			<rect fill="url(#color-no8wL3Du)" x="121.6" y="202.66" width="780.8" height="618.67"/>
		</mask>
		<mask id="mask-aBFBN9QP">
			<path d="M902.4,309.34v405.33c0,58.72 -47.94,106.67 -106.66,106.67h-567.47c-58.73,0 -106.66,-47.95 -106.66,-106.67v-405.33c0,-58.72 47.94,-106.67 106.66,-106.67h567.47c58.73,0 106.66,47.95 106.66,106.67zM253.86,334.94v354.13h516.27v-354.13zM795.74,228.26h-567.47c-44.58,0 -81.06,36.49 -81.06,81.07v405.33c0,44.58 36.48,81.07 81.06,81.07h567.47c44.58,0 81.06,-36.49 81.06,-81.07v-405.33c0,-44.58 -36.48,-81.07 -81.06,-81.07zM795.74,714.66h-567.47v-405.33h567.47z" fill="#ffffff"/>
		</mask>
		<mask id="mask-nYW4w1lx">
			<path d="M902.4,309.34v405.33c0,58.72 -47.94,106.67 -106.66,106.67h-567.47c-58.73,0 -106.66,-47.95 -106.66,-106.67v-405.33c0,-58.72 47.94,-106.67 106.66,-106.67h567.47c58.73,0 106.66,47.95 106.66,106.67zM253.86,334.94v354.13h516.27v-354.13zM795.74,228.26h-567.47c-44.58,0 -81.06,36.49 -81.06,81.07v405.33c0,44.58 36.48,81.07 81.06,81.07h567.47c44.58,0 81.06,-36.49 81.06,-81.07v-405.33c0,-44.58 -36.48,-81.07 -81.06,-81.07zM795.74,714.66h-567.47v-405.33h567.47z" fill="url(#color-Te1chNMC)"/>
		</mask>
	</defs>
	<g fill="none" fill-rule="nonzero" style="mix-blend-mode: normal">
		<g mask="url(#mask-aBFBN9QP)">
			<g color="#ff0000" class="teamapps-color-2">
				<rect x="121.6" y="202.66" width="780.8" height="618.67" fill="currentColor"/>
			</g>
			<g color="#bc13e0" class="teamapps-color-3" mask="url(#mask-8Jt9GYyv)">
				<rect x="121.6" y="202.66" width="780.8" height="618.67" fill="currentColor"/>
			</g>
		</g>
		<g filter="url(#filter-gcQQjz7y)" mask="url(#mask-nYW4w1lx)">
			<g color="#fff961" class="teamapps-color-1">
				<rect x="121.6" y="202.66" width="780.8" height="618.67" fill="currentColor"/>
			</g>
		</g>
	</g>
</svg>