<svg version="1.1" xmlns="http://www.w3.org/2000/svg" xmlns:xlink="http://www.w3.org/1999/xlink" viewBox="0,0,1024,1024">
	<!-- Color names: teamapps-color-1, teamapps-color-2, teamapps-color-3 -->
	<desc>crop_din icon - Licensed under Apache License v2.0 (http://www.apache.org/licenses/LICENSE-2.0) - Created with Iconfu.com - Derivative work of Material icons (Copyright Google Inc.)</desc>
	<defs>
		<linearGradient x1="0" y1="1024" x2="1024" y2="0" id="color-k4lbBpa3" gradientUnits="userSpaceOnUse">
			<stop offset="0.2" stop-color="#000000"/>
			<stop offset="0.8" stop-color="#ffffff"/>
		</linearGradient>
		<radialGradient cx="0" cy="0" r="1448.15" id="color-ormaxpEp" gradientUnits="userSpaceOnUse">
			<stop offset="0.08" stop-color="#ffffff"/>
			<stop offset="1" stop-color="#000000"/>
		</radialGradient>
		<filter id="filter-FqVmWBkl" color-interpolation-filters="sRGB">
			<feOffset/>
		</filter>
		<mask id="mask-DIs0pCNI">
			<rect fill="url(#color-k4lbBpa3)" x="121.6" y="121.6" width="780.8" height="780.8"/>
		</mask>
		<mask id="mask-RjBelEhG">
			<path d="M902.4,228.26v567.47c0,58.72 -47.94,106.66 -106.66,106.66h-567.47c-58.72,0 -106.66,-47.94 -106.66,-106.66v-567.47c0,-58.72 47.94,-106.66 106.66,-106.66h567.47c58.72,0 106.66,47.94 106.66,106.66zM253.86,253.86v516.27h516.27v-516.27zM795.74,147.2h-567.47c-44.58,0 -81.06,36.48 -81.06,81.06v567.47c0,44.58 36.48,81.06 81.06,81.06h567.47c44.58,0 81.06,-36.48 81.06,-81.06v-567.47c0,-44.58 -36.48,-81.06 -81.06,-81.06zM795.74,795.74h-567.47v-567.47h567.47z" fill="#ffffff"/>
		</mask>
		<mask id="mask-ZtHQ5s3e">
			<path d="M902.4,228.26v567.47c0,58.72 -47.94,106.66 -106.66,106.66h-567.47c-58.72,0 -106.66,-47.94 -106.66,-106.66v-567.47c0,-58.72 47.94,-106.66 106.66,-106.66h567.47c58.72,0 106.66,47.94 106.66,106.66zM253.86,253.86v516.27h516.27v-516.27zM795.74,147.2h-567.47c-44.58,0 -81.06,36.48 -81.06,81.06v567.47c0,44.58 36.48,81.06 81.06,81.06h567.47c44.58,0 81.06,-36.48 81.06,-81.06v-567.47c0,-44.58 -36.48,-81.06 -81.06,-81.06zM795.74,795.74h-567.47v-567.47h567.47z" fill="url(#color-ormaxpEp)"/>
		</mask>
	</defs>
	<g fill="none" fill-rule="nonzero" style="mix-blend-mode: normal">
		<g mask="url(#mask-RjBelEhG)">
			<g color="#ff0000" class="teamapps-color-2">
				<rect x="121.6" y="121.6" width="780.8" height="780.8" fill="currentColor"/>
			</g>
			<g color="#bc13e0" class="teamapps-color-3" mask="url(#mask-DIs0pCNI)">
				<rect x="121.6" y="121.6" width="780.8" height="780.8" fill="currentColor"/>
			</g>
		</g>
		<g filter="url(#filter-FqVmWBkl)" mask="url(#mask-ZtHQ5s3e)">
			<g color="#fff961" class="teamapps-color-1">
				<rect x="121.6" y="121.6" width="780.8" height="780.8" fill="currentColor"/>
			</g>
		</g>
	</g>
</svg>