<svg version="1.1" xmlns="http://www.w3.org/2000/svg" xmlns:xlink="http://www.w3.org/1999/xlink" viewBox="0,0,1024,1024">
	<!-- Color names: teamapps-color-1, teamapps-color-2, teamapps-color-3 -->
	<desc>date_range icon - Licensed under Apache License v2.0 (http://www.apache.org/licenses/LICENSE-2.0) - Created with Iconfu.com - Derivative work of Material icons (Copyright Google Inc.)</desc>
	<defs>
		<radialGradient cx="0" cy="0" r="1448.15" id="color-84ajZBdn" gradientUnits="userSpaceOnUse">
			<stop offset="0.08" stop-color="#ffffff"/>
			<stop offset="1" stop-color="#000000"/>
		</radialGradient>
		<linearGradient x1="0" y1="1024" x2="1024" y2="0" id="color-ohIBygbS" gradientUnits="userSpaceOnUse">
			<stop offset="0.2" stop-color="#000000"/>
			<stop offset="0.8" stop-color="#ffffff"/>
		</linearGradient>
		<filter id="filter-o5rkgsK7" color-interpolation-filters="sRGB">
			<feOffset/>
		</filter>
		<mask id="mask-7Prmzniz">
			<rect fill="url(#color-ohIBygbS)" x="121.6" y="81.06" width="780.8" height="861.87"/>
		</mask>
		<mask id="mask-F3Ybr1La">
			<path d="M902.4,268.8v567.46c0,58.72 -47.94,106.67 -106.66,106.67h-567.47c-59.22,0 -106.66,-48.04 -106.66,-106.67l0.41,-567.48c0,-58.47 46.87,-106.65 106.25,-106.65h14.94v-55.47c0,-14.14 11.46,-25.6 25.6,-25.6h81.06c14.14,0 25.6,11.46 25.6,25.6v55.47h273.07v-55.47c0,-14.14 11.46,-25.6 25.6,-25.6h81.06c14.14,0 25.6,11.46 25.6,25.6v55.47h14.94c58.72,0 106.66,47.94 106.66,106.66zM253.86,416v394.66h516.27v-394.66zM552.54,578.14h-81.07c-14.14,0 -25.6,-11.46 -25.6,-25.6v-81.07c0,-14.14 11.46,-25.6 25.6,-25.6h81.07c14.14,0 25.6,11.46 25.6,25.6v81.07c0,14.14 -11.46,25.6 -25.6,25.6zM390.4,578.14h-81.06c-14.14,0 -25.6,-11.46 -25.6,-25.6v-81.07c0,-14.14 11.46,-25.6 25.6,-25.6h81.06c14.14,0 25.6,11.46 25.6,25.6v81.07c0,14.14 -11.46,25.6 -25.6,25.6zM714.66,578.14h-81.06c-14.14,0 -25.6,-11.46 -25.6,-25.6v-81.07c0,-14.14 11.46,-25.6 25.6,-25.6h81.06c14.14,0 25.6,11.46 25.6,25.6v81.07c0,14.14 -11.46,25.6 -25.6,25.6zM795.74,187.74h-40.54v-81.07h-81.06v81.07h-324.27v-81.07h-81.06v81.07h-40.54c-44.99,0 -80.65,36.48 -80.65,81.06l-0.41,567.46c0,44.58 36.07,81.07 81.06,81.07h567.47c44.58,0 81.06,-36.49 81.06,-81.07v-567.46c0,-44.58 -36.48,-81.06 -81.06,-81.06zM795.74,836.26h-567.47v-445.86h567.47zM390.4,471.46h-81.06v81.07h81.06zM552.54,471.46h-81.07v81.07h81.07zM714.66,471.46h-81.06v81.07h81.06z" fill="url(#color-84ajZBdn)"/>
		</mask>
		<mask id="mask-qcF0u4TF">
			<path d="M902.4,268.8v567.46c0,58.72 -47.94,106.67 -106.66,106.67h-567.47c-59.22,0 -106.66,-48.04 -106.66,-106.67l0.41,-567.48c0,-58.47 46.87,-106.65 106.25,-106.65h14.94v-55.47c0,-14.14 11.46,-25.6 25.6,-25.6h81.06c14.14,0 25.6,11.46 25.6,25.6v55.47h273.07v-55.47c0,-14.14 11.46,-25.6 25.6,-25.6h81.06c14.14,0 25.6,11.46 25.6,25.6v55.47h14.94c58.72,0 106.66,47.94 106.66,106.66zM253.86,416v394.66h516.27v-394.66zM552.54,578.14h-81.07c-14.14,0 -25.6,-11.46 -25.6,-25.6v-81.07c0,-14.14 11.46,-25.6 25.6,-25.6h81.07c14.14,0 25.6,11.46 25.6,25.6v81.07c0,14.14 -11.46,25.6 -25.6,25.6zM390.4,578.14h-81.06c-14.14,0 -25.6,-11.46 -25.6,-25.6v-81.07c0,-14.14 11.46,-25.6 25.6,-25.6h81.06c14.14,0 25.6,11.46 25.6,25.6v81.07c0,14.14 -11.46,25.6 -25.6,25.6zM714.66,578.14h-81.06c-14.14,0 -25.6,-11.46 -25.6,-25.6v-81.07c0,-14.14 11.46,-25.6 25.6,-25.6h81.06c14.14,0 25.6,11.46 25.6,25.6v81.07c0,14.14 -11.46,25.6 -25.6,25.6zM795.74,187.74h-40.54v-81.07h-81.06v81.07h-324.27v-81.07h-81.06v81.07h-40.54c-44.99,0 -80.65,36.48 -80.65,81.06l-0.41,567.46c0,44.58 36.07,81.07 81.06,81.07h567.47c44.58,0 81.06,-36.49 81.06,-81.07v-567.46c0,-44.58 -36.48,-81.06 -81.06,-81.06zM795.74,836.26h-567.47v-445.86h567.47zM390.4,471.46h-81.06v81.07h81.06zM552.54,471.46h-81.07v81.07h81.07zM714.66,471.46h-81.06v81.07h81.06z" fill="#ffffff"/>
		</mask>
	</defs>
	<g fill="none" fill-rule="nonzero" style="mix-blend-mode: normal">
		<g mask="url(#mask-qcF0u4TF)">
			<g color="#ff0000" class="teamapps-color-2">
				<rect x="121.6" y="81.06" width="780.8" height="861.87" fill="currentColor"/>
			</g>
			<g color="#bc13e0" class="teamapps-color-3" mask="url(#mask-7Prmzniz)">
				<rect x="121.6" y="81.06" width="780.8" height="861.87" fill="currentColor"/>
			</g>
		</g>
		<g filter="url(#filter-o5rkgsK7)" mask="url(#mask-F3Ybr1La)">
			<g color="#fff961" class="teamapps-color-1">
				<rect x="121.6" y="81.06" width="780.8" height="861.87" fill="currentColor"/>
			</g>
		</g>
	</g>
</svg>