<svg version="1.1" xmlns="http://www.w3.org/2000/svg" xmlns:xlink="http://www.w3.org/1999/xlink" viewBox="0,0,1024,1024">
	<!-- Color names: teamapps-color-1, teamapps-color-2, teamapps-color-3 -->
	<desc>delete icon - Licensed under Apache License v2.0 (http://www.apache.org/licenses/LICENSE-2.0) - Created with Iconfu.com - Derivative work of Material icons (Copyright Google Inc.)</desc>
	<defs>
		<linearGradient x1="0" y1="1024" x2="1024" y2="0" id="color-OQrH2WfF" gradientUnits="userSpaceOnUse">
			<stop offset="0.2" stop-color="#000000"/>
			<stop offset="0.8" stop-color="#ffffff"/>
		</linearGradient>
		<radialGradient cx="0" cy="0" r="1448.15" id="color-ruatg36J" gradientUnits="userSpaceOnUse">
			<stop offset="0.08" stop-color="#ffffff"/>
			<stop offset="1" stop-color="#000000"/>
		</radialGradient>
		<filter id="filter-ZVNmIjTe" color-interpolation-filters="sRGB">
			<feOffset/>
		</filter>
		<mask id="mask-ckEzVrzl">
			<rect fill="url(#color-OQrH2WfF)" x="202.66" y="121.6" width="618.67" height="780.8"/>
		</mask>
		<mask id="mask-cMGdx1eQ">
			<path d="M780.8,309.34v486.4c0,58.72 -47.94,106.66 -106.66,106.66h-324.27c-58.72,0 -106.66,-47.94 -106.66,-106.66v-486.4c0,-5.57 1.78,-10.73 4.81,-14.94h-19.74c-14.14,0 -25.6,-11.46 -25.6,-25.6v-81.06c0,-14.14 11.46,-25.6 25.6,-25.6h131.27l33.03,-33.04c4.8,-4.8 11.31,-7.5 18.1,-7.5h202.67c6.79,0 13.3,2.7 18.1,7.5l33.03,33.04h131.27c14.14,0 25.6,11.46 25.6,25.6v81.06c0,14.14 -11.46,25.6 -25.6,25.6h-19.74c3.03,4.2 4.81,9.36 4.81,14.94zM268.8,795.74c0,44.58 36.48,81.06 81.06,81.06h324.27c44.58,0 81.06,-36.48 81.06,-81.06v-486.4h-486.4zM795.74,187.74h-141.87l-40.53,-40.54h-202.67l-40.53,40.54h-141.87v81.06h567.47z" fill="url(#color-ruatg36J)"/>
		</mask>
		<mask id="mask-j0pMbYKD">
			<path d="M780.8,309.34v486.4c0,58.72 -47.94,106.66 -106.66,106.66h-324.27c-58.72,0 -106.66,-47.94 -106.66,-106.66v-486.4c0,-5.57 1.78,-10.73 4.81,-14.94h-19.74c-14.14,0 -25.6,-11.46 -25.6,-25.6v-81.06c0,-14.14 11.46,-25.6 25.6,-25.6h131.27l33.03,-33.04c4.8,-4.8 11.31,-7.5 18.1,-7.5h202.67c6.79,0 13.3,2.7 18.1,7.5l33.03,33.04h131.27c14.14,0 25.6,11.46 25.6,25.6v81.06c0,14.14 -11.46,25.6 -25.6,25.6h-19.74c3.03,4.2 4.81,9.36 4.81,14.94zM268.8,795.74c0,44.58 36.48,81.06 81.06,81.06h324.27c44.58,0 81.06,-36.48 81.06,-81.06v-486.4h-486.4zM795.74,187.74h-141.87l-40.53,-40.54h-202.67l-40.53,40.54h-141.87v81.06h567.47z" fill="#ffffff"/>
		</mask>
	</defs>
	<g fill="none" fill-rule="nonzero" style="mix-blend-mode: normal">
		<g mask="url(#mask-j0pMbYKD)">
			<g color="#ff0000" class="teamapps-color-2">
				<rect x="202.66" y="121.6" width="618.67" height="780.8" fill="currentColor"/>
			</g>
			<g color="#bc13e0" class="teamapps-color-3" mask="url(#mask-ckEzVrzl)">
				<rect x="202.66" y="121.6" width="618.67" height="780.8" fill="currentColor"/>
			</g>
		</g>
		<g filter="url(#filter-ZVNmIjTe)" mask="url(#mask-cMGdx1eQ)">
			<g color="#fff961" class="teamapps-color-1">
				<rect x="202.66" y="121.6" width="618.67" height="780.8" fill="currentColor"/>
			</g>
		</g>
	</g>
</svg>