<svg version="1.1" xmlns="http://www.w3.org/2000/svg" xmlns:xlink="http://www.w3.org/1999/xlink" viewBox="0,0,1024,1024">
	<!-- Color names: teamapps-color-1, teamapps-color-2, teamapps-color-3 -->
	<desc>directions_bike icon - Licensed under Apache License v2.0 (http://www.apache.org/licenses/LICENSE-2.0) - Created with Iconfu.com - Derivative work of Material icons (Copyright Google Inc.)</desc>
	<defs>
		<linearGradient x1="0" y1="1024" x2="1024" y2="0" id="color-HOLcjvft" gradientUnits="userSpaceOnUse">
			<stop offset="0.2" stop-color="#000000"/>
			<stop offset="0.8" stop-color="#ffffff"/>
		</linearGradient>
		<radialGradient cx="0" cy="0" r="1448.15" id="color-IsmqPUgd" gradientUnits="userSpaceOnUse">
			<stop offset="0.08" stop-color="#ffffff"/>
			<stop offset="1" stop-color="#000000"/>
		</radialGradient>
		<filter id="filter-Rd0czUm5" color-interpolation-filters="sRGB">
			<feOffset/>
		</filter>
		<mask id="mask-4EhzzLJ9">
			<path d="M578.14,544.42v100.02c23.95,-76.1 86.08,-134 164.79,-152.11c-66.81,-11.41 -122.98,-42.91 -167.96,-87.9l-14.32,-14.32l-61.47,61.47l71.87,75.13c4.56,4.76 7.1,11.1 7.1,17.7zM578.14,795.74c0,14.14 -11.46,25.6 -25.6,25.6h-81.07c-14.14,0 -25.6,-11.46 -25.6,-25.6v-10.86c-29.09,92.45 -114.55,158.06 -217.6,158.06c-127.64,0 -228.26,-100.64 -228.26,-228.27c0,-127.63 100.63,-228.26 228.26,-228.26c44.87,0 86.41,12.44 121.41,34.11l-24.11,-21.1c-23.93,-18.43 -33.72,-47.23 -33.72,-76.59c0,-27.27 10.95,-53.98 31.82,-74.85l112.33,-112.33c18.46,-23.39 46.95,-32.98 76.01,-32.98c16.1,0 30.77,2.87 44.52,8.32c-5.98,-13.3 -9.32,-28.04 -9.32,-43.52c0,-58.72 47.94,-106.66 106.66,-106.66c58.72,0 106.67,47.94 106.67,106.66c0,58.72 -47.95,106.67 -106.67,106.67c-7.35,0 -14.53,-0.75 -21.47,-2.18l39.57,39.54c32.21,32.21 74.52,53.3 127.82,53.3c14.14,0 25.6,11.46 25.6,25.6v81.06c0,6.11 -2.14,11.73 -5.72,16.13c116.06,11.67 204.34,107.52 204.34,227.07c0,127.63 -100.63,228.27 -228.26,228.27c-103.05,0 -188.51,-65.61 -217.6,-158.06zM445.86,604.68l-40.84,-35.74c18.06,21.99 32.04,47.52 40.84,75.5zM912,714.66c0,-62.88 -53.39,-116.26 -116.26,-116.26c-62.88,0 -116.27,53.39 -116.27,116.26c0,62.88 53.39,116.27 116.27,116.27c62.88,0 116.26,-53.39 116.26,-116.27zM344.54,714.66c0,-62.88 -53.39,-116.26 -116.27,-116.26c-62.88,0 -116.26,53.39 -116.26,116.26c0,62.88 53.39,116.27 116.26,116.27c62.88,0 116.27,-53.39 116.27,-116.27zM463.36,451.2l97.28,-97.28l32.42,32.42c52.7,52.7 121.6,85.12 206.72,85.12v-81.06c-60.8,0 -109.44,-24.32 -145.92,-60.8l-77.01,-77.02c-20.26,-16.22 -40.54,-24.32 -64.86,-24.32c-24.32,0 -44.58,8.1 -56.74,24.32l-113.5,113.5c-16.22,16.22 -24.32,36.48 -24.32,56.74c0,24.32 8.1,44.59 24.32,56.75l129.7,113.49v202.67h81.07v-251.31zM795.74,512c-113.5,0 -202.67,89.17 -202.67,202.66c0,113.5 89.18,202.67 202.67,202.67c113.5,0 202.66,-89.18 202.66,-202.67c0,-113.5 -89.17,-202.66 -202.66,-202.66zM228.26,512c-113.5,0 -202.66,89.17 -202.66,202.66c0,113.5 89.17,202.67 202.66,202.67c113.5,0 202.67,-89.18 202.67,-202.67c0,-113.5 -89.18,-202.66 -202.67,-202.66zM795.74,856.54c-77.02,0 -141.87,-64.86 -141.87,-141.87c0,-77.02 64.86,-141.86 141.87,-141.86c77.02,0 141.86,64.85 141.86,141.86c0,77.02 -64.85,141.87 -141.86,141.87zM228.26,856.54c-77.02,0 -141.86,-64.86 -141.86,-141.87c0,-77.02 64.85,-141.86 141.86,-141.86c77.02,0 141.87,64.85 141.87,141.86c0,77.02 -64.86,141.87 -141.87,141.87zM653.86,248.54c44.58,0 81.07,-36.49 81.07,-81.07c0,-44.58 -36.49,-81.06 -81.07,-81.06c-44.58,0 -81.06,36.48 -81.06,81.06c0,44.58 36.48,81.07 81.06,81.07z" fill="#ffffff"/>
		</mask>
		<mask id="mask-qXkDf9HU">
			<path d="M578.14,544.42v100.02c23.95,-76.1 86.08,-134 164.79,-152.11c-66.81,-11.41 -122.98,-42.91 -167.96,-87.9l-14.32,-14.32l-61.47,61.47l71.87,75.13c4.56,4.76 7.1,11.1 7.1,17.7zM578.14,795.74c0,14.14 -11.46,25.6 -25.6,25.6h-81.07c-14.14,0 -25.6,-11.46 -25.6,-25.6v-10.86c-29.09,92.45 -114.55,158.06 -217.6,158.06c-127.64,0 -228.26,-100.64 -228.26,-228.27c0,-127.63 100.63,-228.26 228.26,-228.26c44.87,0 86.41,12.44 121.41,34.11l-24.11,-21.1c-23.93,-18.43 -33.72,-47.23 -33.72,-76.59c0,-27.27 10.95,-53.98 31.82,-74.85l112.33,-112.33c18.46,-23.39 46.95,-32.98 76.01,-32.98c16.1,0 30.77,2.87 44.52,8.32c-5.98,-13.3 -9.32,-28.04 -9.32,-43.52c0,-58.72 47.94,-106.66 106.66,-106.66c58.72,0 106.67,47.94 106.67,106.66c0,58.72 -47.95,106.67 -106.67,106.67c-7.35,0 -14.53,-0.75 -21.47,-2.18l39.57,39.54c32.21,32.21 74.52,53.3 127.82,53.3c14.14,0 25.6,11.46 25.6,25.6v81.06c0,6.11 -2.14,11.73 -5.72,16.13c116.06,11.67 204.34,107.52 204.34,227.07c0,127.63 -100.63,228.27 -228.26,228.27c-103.05,0 -188.51,-65.61 -217.6,-158.06zM445.86,604.68l-40.84,-35.74c18.06,21.99 32.04,47.52 40.84,75.5zM912,714.66c0,-62.88 -53.39,-116.26 -116.26,-116.26c-62.88,0 -116.27,53.39 -116.27,116.26c0,62.88 53.39,116.27 116.27,116.27c62.88,0 116.26,-53.39 116.26,-116.27zM344.54,714.66c0,-62.88 -53.39,-116.26 -116.27,-116.26c-62.88,0 -116.26,53.39 -116.26,116.26c0,62.88 53.39,116.27 116.26,116.27c62.88,0 116.27,-53.39 116.27,-116.27zM463.36,451.2l97.28,-97.28l32.42,32.42c52.7,52.7 121.6,85.12 206.72,85.12v-81.06c-60.8,0 -109.44,-24.32 -145.92,-60.8l-77.01,-77.02c-20.26,-16.22 -40.54,-24.32 -64.86,-24.32c-24.32,0 -44.58,8.1 -56.74,24.32l-113.5,113.5c-16.22,16.22 -24.32,36.48 -24.32,56.74c0,24.32 8.1,44.59 24.32,56.75l129.7,113.49v202.67h81.07v-251.31zM795.74,512c-113.5,0 -202.67,89.17 -202.67,202.66c0,113.5 89.18,202.67 202.67,202.67c113.5,0 202.66,-89.18 202.66,-202.67c0,-113.5 -89.17,-202.66 -202.66,-202.66zM228.26,512c-113.5,0 -202.66,89.17 -202.66,202.66c0,113.5 89.17,202.67 202.66,202.67c113.5,0 202.67,-89.18 202.67,-202.67c0,-113.5 -89.18,-202.66 -202.67,-202.66zM795.74,856.54c-77.02,0 -141.87,-64.86 -141.87,-141.87c0,-77.02 64.86,-141.86 141.87,-141.86c77.02,0 141.86,64.85 141.86,141.86c0,77.02 -64.85,141.87 -141.86,141.87zM228.26,856.54c-77.02,0 -141.86,-64.86 -141.86,-141.87c0,-77.02 64.85,-141.86 141.86,-141.86c77.02,0 141.87,64.85 141.87,141.86c0,77.02 -64.86,141.87 -141.87,141.87zM653.86,248.54c44.58,0 81.07,-36.49 81.07,-81.07c0,-44.58 -36.49,-81.06 -81.07,-81.06c-44.58,0 -81.06,36.48 -81.06,81.06c0,44.58 36.48,81.07 81.06,81.07z" fill="url(#color-IsmqPUgd)"/>
		</mask>
		<mask id="mask-Ugr5Hkg7">
			<rect fill="url(#color-HOLcjvft)" x="0" y="60.8" width="1024" height="882.14"/>
		</mask>
	</defs>
	<g fill="none" fill-rule="nonzero" style="mix-blend-mode: normal">
		<g mask="url(#mask-4EhzzLJ9)">
			<g color="#ff0000" class="teamapps-color-2">
				<rect x="0" y="60.8" width="1024" height="882.14" fill="currentColor"/>
			</g>
			<g color="#bc13e0" class="teamapps-color-3" mask="url(#mask-Ugr5Hkg7)">
				<rect x="0" y="60.8" width="1024" height="882.14" fill="currentColor"/>
			</g>
		</g>
		<g filter="url(#filter-Rd0czUm5)" mask="url(#mask-qXkDf9HU)">
			<g color="#fff961" class="teamapps-color-1">
				<rect x="0" y="60.8" width="1024" height="882.14" fill="currentColor"/>
			</g>
		</g>
	</g>
</svg>