<svg version="1.1" xmlns="http://www.w3.org/2000/svg" xmlns:xlink="http://www.w3.org/1999/xlink" viewBox="0,0,1024,1024">
	<!-- Color names: teamapps-color-1, teamapps-color-2, teamapps-color-3 -->
	<desc>directions_walk icon - Licensed under Apache License v2.0 (http://www.apache.org/licenses/LICENSE-2.0) - Created with Iconfu.com - Derivative work of Material icons (Copyright Google Inc.)</desc>
	<defs>
		<linearGradient x1="0" y1="1024" x2="1024" y2="0" id="color-7mxvl7od" gradientUnits="userSpaceOnUse">
			<stop offset="0.2" stop-color="#000000"/>
			<stop offset="0.8" stop-color="#ffffff"/>
		</linearGradient>
		<radialGradient cx="0" cy="0" r="1448.15" id="color-LxsooMhx" gradientUnits="userSpaceOnUse">
			<stop offset="0.08" stop-color="#ffffff"/>
			<stop offset="1" stop-color="#000000"/>
		</radialGradient>
		<filter id="filter-cGEHguAe" color-interpolation-filters="sRGB">
			<feOffset/>
		</filter>
		<mask id="mask-5NHasfEX">
			<path d="M375.46,432.23v61.18l13.16,-66.3zM349.86,578.14h-81.06c-14.14,0 -25.6,-11.46 -25.6,-25.6v-190.51c0,-10.28 6.15,-19.57 15.63,-23.58l210.78,-89.17c3.16,-1.34 6.55,-2.02 9.97,-2.02c3.23,0 5.99,-0.49 11.19,-1.53c2.25,-0.45 4.98,-1.01 8.13,-1.49c-20.17,-19.43 -32.76,-46.69 -32.76,-76.77c0,-58.72 47.94,-106.66 106.66,-106.66c58.72,0 106.66,47.94 106.66,106.66c0,54.86 -41.85,100.33 -95.24,106.06c6.76,6.52 12.78,13.81 17.98,21.61l40.94,65.48c0.18,0.29 0.35,0.58 0.52,0.87c27.81,48.66 84.12,84.38 152.07,84.38c14.14,0 25.6,11.46 25.6,25.6v81.07c0,14.14 -11.46,25.6 -25.6,25.6c-78.84,0 -151.78,-29.12 -207.1,-75.57l-12.29,61.43l74.91,71.34c5.07,4.83 7.95,11.53 7.95,18.54v304c0,14.14 -11.46,25.6 -25.6,25.6h-81.06c-14.14,0 -25.6,-11.46 -25.6,-25.6v-232.23l-44.46,-42.34l-63.04,280.19c-2.63,11.68 -13,19.98 -24.98,19.98h-85.12c-7.66,0 -14.92,-3.43 -19.79,-9.36c-4.86,-5.92 -6.82,-13.71 -5.32,-21.23l74.74,-376.41c-2.83,1.08 -5.9,1.67 -9.11,1.67zM309.34,957.86h85.12l72.96,-324.26l85.12,81.06v243.2h81.06v-304l-85.12,-81.06l24.32,-121.6c52.7,60.8 133.76,101.34 222.94,101.34v-81.07c-77.02,0 -141.87,-40.54 -174.3,-97.28l-40.54,-64.85c-16.22,-24.32 -40.53,-40.54 -68.9,-40.54c-12.16,0 -20.26,4.06 -32.42,4.06l-210.78,89.17v190.51h81.06v-137.82l72.96,-28.38zM572.8,248.54c44.58,0 81.06,-36.49 81.06,-81.07c0,-44.58 -36.48,-81.06 -81.06,-81.06c-44.58,0 -81.06,36.48 -81.06,81.06c0,44.58 36.48,81.07 81.06,81.07z" fill="#ffffff"/>
		</mask>
		<mask id="mask-S9EST8Vj">
			<path d="M375.46,432.23v61.18l13.16,-66.3zM349.86,578.14h-81.06c-14.14,0 -25.6,-11.46 -25.6,-25.6v-190.51c0,-10.28 6.15,-19.57 15.63,-23.58l210.78,-89.17c3.16,-1.34 6.55,-2.02 9.97,-2.02c3.23,0 5.99,-0.49 11.19,-1.53c2.25,-0.45 4.98,-1.01 8.13,-1.49c-20.17,-19.43 -32.76,-46.69 -32.76,-76.77c0,-58.72 47.94,-106.66 106.66,-106.66c58.72,0 106.66,47.94 106.66,106.66c0,54.86 -41.85,100.33 -95.24,106.06c6.76,6.52 12.78,13.81 17.98,21.61l40.94,65.48c0.18,0.29 0.35,0.58 0.52,0.87c27.81,48.66 84.12,84.38 152.07,84.38c14.14,0 25.6,11.46 25.6,25.6v81.07c0,14.14 -11.46,25.6 -25.6,25.6c-78.84,0 -151.78,-29.12 -207.1,-75.57l-12.29,61.43l74.91,71.34c5.07,4.83 7.95,11.53 7.95,18.54v304c0,14.14 -11.46,25.6 -25.6,25.6h-81.06c-14.14,0 -25.6,-11.46 -25.6,-25.6v-232.23l-44.46,-42.34l-63.04,280.19c-2.63,11.68 -13,19.98 -24.98,19.98h-85.12c-7.66,0 -14.92,-3.43 -19.79,-9.36c-4.86,-5.92 -6.82,-13.71 -5.32,-21.23l74.74,-376.41c-2.83,1.08 -5.9,1.67 -9.11,1.67zM309.34,957.86h85.12l72.96,-324.26l85.12,81.06v243.2h81.06v-304l-85.12,-81.06l24.32,-121.6c52.7,60.8 133.76,101.34 222.94,101.34v-81.07c-77.02,0 -141.87,-40.54 -174.3,-97.28l-40.54,-64.85c-16.22,-24.32 -40.53,-40.54 -68.9,-40.54c-12.16,0 -20.26,4.06 -32.42,4.06l-210.78,89.17v190.51h81.06v-137.82l72.96,-28.38zM572.8,248.54c44.58,0 81.06,-36.49 81.06,-81.07c0,-44.58 -36.48,-81.06 -81.06,-81.06c-44.58,0 -81.06,36.48 -81.06,81.06c0,44.58 36.48,81.07 81.06,81.07z" fill="url(#color-LxsooMhx)"/>
		</mask>
		<mask id="mask-yHwND0j9">
			<rect fill="url(#color-7mxvl7od)" x="243.2" y="60.8" width="578.14" height="922.66"/>
		</mask>
	</defs>
	<g fill="none" fill-rule="nonzero" style="mix-blend-mode: normal">
		<g mask="url(#mask-5NHasfEX)">
			<g color="#ff0000" class="teamapps-color-2">
				<rect x="243.2" y="60.8" width="578.14" height="922.66" fill="currentColor"/>
			</g>
			<g color="#bc13e0" class="teamapps-color-3" mask="url(#mask-yHwND0j9)">
				<rect x="243.2" y="60.8" width="578.14" height="922.66" fill="currentColor"/>
			</g>
		</g>
		<g filter="url(#filter-cGEHguAe)" mask="url(#mask-S9EST8Vj)">
			<g color="#fff961" class="teamapps-color-1">
				<rect x="243.2" y="60.8" width="578.14" height="922.66" fill="currentColor"/>
			</g>
		</g>
	</g>
</svg>