<svg version="1.1" xmlns="http://www.w3.org/2000/svg" xmlns:xlink="http://www.w3.org/1999/xlink" viewBox="0,0,1024,1024">
	<!-- Color names: teamapps-color-1, teamapps-color-2, teamapps-color-3 -->
	<desc>dock icon - Licensed under Apache License v2.0 (http://www.apache.org/licenses/LICENSE-2.0) - Created with Iconfu.com - Derivative work of Material icons (Copyright Google Inc.)</desc>
	<defs>
		<radialGradient cx="0" cy="0" r="1448.15" id="color-FoECKk3F" gradientUnits="userSpaceOnUse">
			<stop offset="0.08" stop-color="#ffffff"/>
			<stop offset="1" stop-color="#000000"/>
		</radialGradient>
		<linearGradient x1="0" y1="1024" x2="1024" y2="0" id="color-o6lnfef0" gradientUnits="userSpaceOnUse">
			<stop offset="0.2" stop-color="#000000"/>
			<stop offset="0.8" stop-color="#ffffff"/>
		</linearGradient>
		<filter id="filter-oYHlfwDI" color-interpolation-filters="sRGB">
			<feOffset/>
		</filter>
		<mask id="mask-9i79wtsa">
			<path d="M780.8,147.2v567.46c0,58.72 -47.94,106.67 -106.66,106.67h-324.27c-58.73,0 -106.66,-47.95 -106.66,-106.67v-567.46c0,-58.72 47.94,-106.66 106.66,-106.66l324.3,0.4c58.54,0.02 106.63,47.39 106.63,106.26zM375.46,253.86v354.14h273.07v-354.14zM349.86,851.2h324.27c14.14,0 25.6,11.46 25.6,25.6v81.06c0,14.14 -11.46,25.6 -25.6,25.6h-324.27c-14.14,0 -25.6,-11.46 -25.6,-25.6v-81.06c0,-14.14 11.46,-25.6 25.6,-25.6zM674.14,66.54l-324.27,-0.4c-44.58,0 -81.06,36.48 -81.06,81.06v567.46c0,44.58 36.48,81.07 81.06,81.07h324.27c44.58,0 81.06,-36.49 81.06,-81.07v-567.46c0,-44.58 -36.48,-80.66 -81.06,-80.66zM674.14,633.6h-324.27v-405.34h324.27zM349.86,957.86h324.27v-81.06h-324.27z" fill="#ffffff"/>
		</mask>
		<mask id="mask-Gb9kh25C">
			<path d="M780.8,147.2v567.46c0,58.72 -47.94,106.67 -106.66,106.67h-324.27c-58.73,0 -106.66,-47.95 -106.66,-106.67v-567.46c0,-58.72 47.94,-106.66 106.66,-106.66l324.3,0.4c58.54,0.02 106.63,47.39 106.63,106.26zM375.46,253.86v354.14h273.07v-354.14zM349.86,851.2h324.27c14.14,0 25.6,11.46 25.6,25.6v81.06c0,14.14 -11.46,25.6 -25.6,25.6h-324.27c-14.14,0 -25.6,-11.46 -25.6,-25.6v-81.06c0,-14.14 11.46,-25.6 25.6,-25.6zM674.14,66.54l-324.27,-0.4c-44.58,0 -81.06,36.48 -81.06,81.06v567.46c0,44.58 36.48,81.07 81.06,81.07h324.27c44.58,0 81.06,-36.49 81.06,-81.07v-567.46c0,-44.58 -36.48,-80.66 -81.06,-80.66zM674.14,633.6h-324.27v-405.34h324.27zM349.86,957.86h324.27v-81.06h-324.27z" fill="url(#color-FoECKk3F)"/>
		</mask>
		<mask id="mask-mKqzLMoo">
			<rect fill="url(#color-o6lnfef0)" x="243.2" y="40.54" width="537.6" height="942.93"/>
		</mask>
	</defs>
	<g fill="none" fill-rule="nonzero" style="mix-blend-mode: normal">
		<g mask="url(#mask-9i79wtsa)">
			<g color="#ff0000" class="teamapps-color-2">
				<rect x="243.2" y="40.54" width="537.6" height="942.93" fill="currentColor"/>
			</g>
			<g color="#bc13e0" class="teamapps-color-3" mask="url(#mask-mKqzLMoo)">
				<rect x="243.2" y="40.54" width="537.6" height="942.93" fill="currentColor"/>
			</g>
		</g>
		<g filter="url(#filter-oYHlfwDI)" mask="url(#mask-Gb9kh25C)">
			<g color="#fff961" class="teamapps-color-1">
				<rect x="243.2" y="40.54" width="537.6" height="942.93" fill="currentColor"/>
			</g>
		</g>
	</g>
</svg>