<svg version="1.1" xmlns="http://www.w3.org/2000/svg" xmlns:xlink="http://www.w3.org/1999/xlink" viewBox="0,0,1024,1024">
	<!-- Color names: teamapps-color-1, teamapps-color-2, teamapps-color-3 -->
	<desc>drag_handle icon - Licensed under Apache License v2.0 (http://www.apache.org/licenses/LICENSE-2.0) - Created with Iconfu.com - Derivative work of Material icons (Copyright Google Inc.)</desc>
	<defs>
		<linearGradient x1="0" y1="1024" x2="1024" y2="0" id="color-nVcjKGtg" gradientUnits="userSpaceOnUse">
			<stop offset="0.2" stop-color="#000000"/>
			<stop offset="0.8" stop-color="#ffffff"/>
		</linearGradient>
		<radialGradient cx="0" cy="0" r="1448.15" id="color-WBOi9MiT" gradientUnits="userSpaceOnUse">
			<stop offset="0.08" stop-color="#ffffff"/>
			<stop offset="1" stop-color="#000000"/>
		</radialGradient>
		<filter id="filter-MQUaN6mg" color-interpolation-filters="sRGB">
			<feOffset/>
		</filter>
		<mask id="mask-cf1bp4LS">
			<rect fill="url(#color-nVcjKGtg)" x="162.14" y="364.8" width="699.73" height="294.4"/>
		</mask>
		<mask id="mask-dVPq4yPl">
			<path d="M187.74,526.94h648.53c14.14,0 25.6,11.46 25.6,25.6v81.06c0,14.14 -11.46,25.6 -25.6,25.6h-648.53c-14.14,0 -25.6,-11.46 -25.6,-25.6v-81.06c0,-14.14 11.46,-25.6 25.6,-25.6zM836.26,497.06h-648.53c-14.14,0 -25.6,-11.46 -25.6,-25.6v-81.06c0,-14.14 11.46,-25.6 25.6,-25.6h648.53c14.14,0 25.6,11.46 25.6,25.6v81.06c0,14.14 -11.46,25.6 -25.6,25.6zM187.74,633.6h648.53v-81.06h-648.53zM836.26,390.4h-648.53v81.06h648.53z" fill="#ffffff"/>
		</mask>
		<mask id="mask-x4P3UjfD">
			<path d="M187.74,526.94h648.53c14.14,0 25.6,11.46 25.6,25.6v81.06c0,14.14 -11.46,25.6 -25.6,25.6h-648.53c-14.14,0 -25.6,-11.46 -25.6,-25.6v-81.06c0,-14.14 11.46,-25.6 25.6,-25.6zM836.26,497.06h-648.53c-14.14,0 -25.6,-11.46 -25.6,-25.6v-81.06c0,-14.14 11.46,-25.6 25.6,-25.6h648.53c14.14,0 25.6,11.46 25.6,25.6v81.06c0,14.14 -11.46,25.6 -25.6,25.6zM187.74,633.6h648.53v-81.06h-648.53zM836.26,390.4h-648.53v81.06h648.53z" fill="url(#color-WBOi9MiT)"/>
		</mask>
	</defs>
	<g fill="none" fill-rule="nonzero" style="mix-blend-mode: normal">
		<g mask="url(#mask-dVPq4yPl)">
			<g color="#ff0000" class="teamapps-color-2">
				<rect x="162.14" y="364.8" width="699.73" height="294.4" fill="currentColor"/>
			</g>
			<g color="#bc13e0" class="teamapps-color-3" mask="url(#mask-cf1bp4LS)">
				<rect x="162.14" y="364.8" width="699.73" height="294.4" fill="currentColor"/>
			</g>
		</g>
		<g filter="url(#filter-MQUaN6mg)" mask="url(#mask-x4P3UjfD)">
			<g color="#fff961" class="teamapps-color-1">
				<rect x="162.14" y="364.8" width="699.73" height="294.4" fill="currentColor"/>
			</g>
		</g>
	</g>
</svg>