<svg version="1.1" xmlns="http://www.w3.org/2000/svg" xmlns:xlink="http://www.w3.org/1999/xlink" viewBox="0,0,1024,1024">
	<!-- Color names: teamapps-color-1, teamapps-color-2, teamapps-color-3 -->
	<desc>dvr icon - Licensed under Apache License v2.0 (http://www.apache.org/licenses/LICENSE-2.0) - Created with Iconfu.com - Derivative work of Material icons (Copyright Google Inc.)</desc>
	<defs>
		<linearGradient x1="0" y1="1024" x2="1024" y2="0" id="color-KyOEOuJ4" gradientUnits="userSpaceOnUse">
			<stop offset="0.2" stop-color="#000000"/>
			<stop offset="0.8" stop-color="#ffffff"/>
		</linearGradient>
		<radialGradient cx="0" cy="0" r="1448.15" id="color-Q9IwilHH" gradientUnits="userSpaceOnUse">
			<stop offset="0.08" stop-color="#ffffff"/>
			<stop offset="1" stop-color="#000000"/>
		</radialGradient>
		<filter id="filter-w46CbjMu" color-interpolation-filters="sRGB">
			<feOffset/>
		</filter>
		<mask id="mask-9e6nZQGV">
			<path d="M983.06,714.68c-0.01,58.54 -47.38,106.65 -106.26,106.65h-177.06v55.46c0,14.14 -11.46,25.6 -25.6,25.6h-324.27c-14.14,0 -25.6,-11.46 -25.6,-25.6v-55.46h-177.06c-58.73,0 -106.66,-47.95 -106.66,-106.67v-486.4c0,-58.72 47.94,-106.66 106.66,-106.66h729.6c58.72,0 106.66,47.94 106.66,106.66zM172.8,253.86v435.2h678.4v-435.2zM795.74,456.54h-445.87c-8.25,0 -15.58,-3.9 -20.26,-9.95c-4.68,6.05 -12.02,9.95 -20.26,9.95h-81.07c-14.14,0 -25.6,-11.46 -25.6,-25.6v-81.07c0,-14.14 11.46,-25.6 25.6,-25.6h81.07c8.25,0 15.58,3.9 20.26,9.95c4.68,-6.05 12.02,-9.95 20.26,-9.95h445.87c14.14,0 25.6,11.46 25.6,25.6v81.07c0,14.14 -11.46,25.6 -25.6,25.6zM795.74,618.66h-445.87c-8.25,0 -15.58,-3.9 -20.26,-9.95c-4.68,6.05 -12.02,9.95 -20.26,9.95h-81.07c-14.14,0 -25.6,-11.46 -25.6,-25.6v-81.06c0,-14.14 11.46,-25.6 25.6,-25.6h81.07c8.25,0 15.58,3.9 20.26,9.95c4.68,-6.05 12.02,-9.95 20.26,-9.95h445.87c14.14,0 25.6,11.46 25.6,25.6v81.06c0,14.14 -11.46,25.6 -25.6,25.6zM876.8,147.2h-729.6c-44.58,0 -81.06,36.48 -81.06,81.06v486.4c0,44.58 36.48,81.07 81.06,81.07h202.66v81.06h324.27v-81.06h202.66c44.58,0 80.66,-36.49 80.66,-81.07l0.4,-486.4c0,-44.58 -36.48,-81.06 -81.06,-81.06zM876.8,714.66h-729.6v-486.4h729.6zM795.74,349.86h-445.87v81.07h445.87zM795.74,512h-445.87v81.06h445.87zM309.34,349.86h-81.07v81.07h81.07zM309.34,512h-81.07v81.06h81.07z" fill="url(#color-Q9IwilHH)"/>
		</mask>
		<mask id="mask-pb82UGxH">
			<rect fill="url(#color-KyOEOuJ4)" x="40.54" y="121.6" width="942.93" height="780.8"/>
		</mask>
		<mask id="mask-rvKLUdEZ">
			<path d="M983.06,714.68c-0.01,58.54 -47.38,106.65 -106.26,106.65h-177.06v55.46c0,14.14 -11.46,25.6 -25.6,25.6h-324.27c-14.14,0 -25.6,-11.46 -25.6,-25.6v-55.46h-177.06c-58.73,0 -106.66,-47.95 -106.66,-106.67v-486.4c0,-58.72 47.94,-106.66 106.66,-106.66h729.6c58.72,0 106.66,47.94 106.66,106.66zM172.8,253.86v435.2h678.4v-435.2zM795.74,456.54h-445.87c-8.25,0 -15.58,-3.9 -20.26,-9.95c-4.68,6.05 -12.02,9.95 -20.26,9.95h-81.07c-14.14,0 -25.6,-11.46 -25.6,-25.6v-81.07c0,-14.14 11.46,-25.6 25.6,-25.6h81.07c8.25,0 15.58,3.9 20.26,9.95c4.68,-6.05 12.02,-9.95 20.26,-9.95h445.87c14.14,0 25.6,11.46 25.6,25.6v81.07c0,14.14 -11.46,25.6 -25.6,25.6zM795.74,618.66h-445.87c-8.25,0 -15.58,-3.9 -20.26,-9.95c-4.68,6.05 -12.02,9.95 -20.26,9.95h-81.07c-14.14,0 -25.6,-11.46 -25.6,-25.6v-81.06c0,-14.14 11.46,-25.6 25.6,-25.6h81.07c8.25,0 15.58,3.9 20.26,9.95c4.68,-6.05 12.02,-9.95 20.26,-9.95h445.87c14.14,0 25.6,11.46 25.6,25.6v81.06c0,14.14 -11.46,25.6 -25.6,25.6zM876.8,147.2h-729.6c-44.58,0 -81.06,36.48 -81.06,81.06v486.4c0,44.58 36.48,81.07 81.06,81.07h202.66v81.06h324.27v-81.06h202.66c44.58,0 80.66,-36.49 80.66,-81.07l0.4,-486.4c0,-44.58 -36.48,-81.06 -81.06,-81.06zM876.8,714.66h-729.6v-486.4h729.6zM795.74,349.86h-445.87v81.07h445.87zM795.74,512h-445.87v81.06h445.87zM309.34,349.86h-81.07v81.07h81.07zM309.34,512h-81.07v81.06h81.07z" fill="#ffffff"/>
		</mask>
	</defs>
	<g fill="none" fill-rule="nonzero" style="mix-blend-mode: normal">
		<g mask="url(#mask-rvKLUdEZ)">
			<g color="#ff0000" class="teamapps-color-2">
				<rect x="40.54" y="121.6" width="942.93" height="780.8" fill="currentColor"/>
			</g>
			<g color="#bc13e0" class="teamapps-color-3" mask="url(#mask-pb82UGxH)">
				<rect x="40.54" y="121.6" width="942.93" height="780.8" fill="currentColor"/>
			</g>
		</g>
		<g filter="url(#filter-w46CbjMu)" mask="url(#mask-9e6nZQGV)">
			<g color="#fff961" class="teamapps-color-1">
				<rect x="40.54" y="121.6" width="942.93" height="780.8" fill="currentColor"/>
			</g>
		</g>
	</g>
</svg>