<svg version="1.1" xmlns="http://www.w3.org/2000/svg" xmlns:xlink="http://www.w3.org/1999/xlink" viewBox="0,0,1024,1024">
	<!-- Color names: teamapps-color-1, teamapps-color-2, teamapps-color-3 -->
	<desc>enhanced_encryption icon - Licensed under Apache License v2.0 (http://www.apache.org/licenses/LICENSE-2.0) - Created with Iconfu.com - Derivative work of Material icons (Copyright Google Inc.)</desc>
	<defs>
		<radialGradient cx="0" cy="0" r="1448.15" id="color-3GmFmxrJ" gradientUnits="userSpaceOnUse">
			<stop offset="0.08" stop-color="#ffffff"/>
			<stop offset="1" stop-color="#000000"/>
		</radialGradient>
		<linearGradient x1="0" y1="1024" x2="1024" y2="0" id="color-m2q2F4d0" gradientUnits="userSpaceOnUse">
			<stop offset="0.2" stop-color="#000000"/>
			<stop offset="0.8" stop-color="#ffffff"/>
		</linearGradient>
		<filter id="filter-L8libjKK" color-interpolation-filters="sRGB">
			<feOffset/>
		</filter>
		<mask id="mask-IqtjUBTG">
			<path d="M861.86,430.94v405.33c0,58.72 -47.94,106.67 -106.66,106.67h-486.4c-58.73,0 -106.66,-47.95 -106.66,-106.67v-405.33c0,-58.72 47.94,-106.67 106.66,-106.67h14.94v-55.46c0,-126.01 102.25,-228.26 228.26,-228.26c126.01,0 228.26,102.25 228.26,228.26v55.46h14.94c58.73,0 106.66,47.95 106.66,106.67zM648.54,618.66h-96c-14.14,0 -25.6,-11.46 -25.6,-25.6v-96h-29.87v96c0,14.14 -11.46,25.6 -25.6,25.6h-96v29.87h96c14.14,0 25.6,11.46 25.6,25.6v96h29.87v-96c0,-14.14 11.46,-25.6 25.6,-25.6h96zM612.06,268.8c0,-55.17 -44.88,-100.06 -100.06,-100.06c-55.17,0 -100.06,44.88 -100.06,100.06v55.46h200.11zM755.2,349.86h-40.54v-81.06c0,-111.87 -90.79,-202.66 -202.66,-202.66c-111.87,0 -202.66,90.79 -202.66,202.66v81.06h-40.54c-44.58,0 -81.06,36.49 -81.06,81.07v405.33c0,44.58 36.48,81.07 81.06,81.07h486.4c44.58,0 81.06,-36.49 81.06,-81.07v-405.33c0,-44.58 -36.48,-81.07 -81.06,-81.07zM674.14,674.14h-121.6v121.6h-81.07v-121.6h-121.6v-81.07h121.6v-121.6h81.07v121.6h121.6zM386.34,268.8c0,-69.31 56.34,-125.66 125.66,-125.66c69.31,0 125.66,56.34 125.66,125.66v81.06h-251.31z" fill="#ffffff"/>
		</mask>
		<mask id="mask-vCtobWQi">
			<path d="M861.86,430.94v405.33c0,58.72 -47.94,106.67 -106.66,106.67h-486.4c-58.73,0 -106.66,-47.95 -106.66,-106.67v-405.33c0,-58.72 47.94,-106.67 106.66,-106.67h14.94v-55.46c0,-126.01 102.25,-228.26 228.26,-228.26c126.01,0 228.26,102.25 228.26,228.26v55.46h14.94c58.73,0 106.66,47.95 106.66,106.67zM648.54,618.66h-96c-14.14,0 -25.6,-11.46 -25.6,-25.6v-96h-29.87v96c0,14.14 -11.46,25.6 -25.6,25.6h-96v29.87h96c14.14,0 25.6,11.46 25.6,25.6v96h29.87v-96c0,-14.14 11.46,-25.6 25.6,-25.6h96zM612.06,268.8c0,-55.17 -44.88,-100.06 -100.06,-100.06c-55.17,0 -100.06,44.88 -100.06,100.06v55.46h200.11zM755.2,349.86h-40.54v-81.06c0,-111.87 -90.79,-202.66 -202.66,-202.66c-111.87,0 -202.66,90.79 -202.66,202.66v81.06h-40.54c-44.58,0 -81.06,36.49 -81.06,81.07v405.33c0,44.58 36.48,81.07 81.06,81.07h486.4c44.58,0 81.06,-36.49 81.06,-81.07v-405.33c0,-44.58 -36.48,-81.07 -81.06,-81.07zM674.14,674.14h-121.6v121.6h-81.07v-121.6h-121.6v-81.07h121.6v-121.6h81.07v121.6h121.6zM386.34,268.8c0,-69.31 56.34,-125.66 125.66,-125.66c69.31,0 125.66,56.34 125.66,125.66v81.06h-251.31z" fill="url(#color-3GmFmxrJ)"/>
		</mask>
		<mask id="mask-YLHBLHop">
			<rect fill="url(#color-m2q2F4d0)" x="162.14" y="40.54" width="699.73" height="902.4"/>
		</mask>
	</defs>
	<g fill="none" fill-rule="nonzero" style="mix-blend-mode: normal">
		<g mask="url(#mask-IqtjUBTG)">
			<g color="#ff0000" class="teamapps-color-2">
				<rect x="162.14" y="40.54" width="699.73" height="902.4" fill="currentColor"/>
			</g>
			<g color="#bc13e0" class="teamapps-color-3" mask="url(#mask-YLHBLHop)">
				<rect x="162.14" y="40.54" width="699.73" height="902.4" fill="currentColor"/>
			</g>
		</g>
		<g filter="url(#filter-L8libjKK)" mask="url(#mask-vCtobWQi)">
			<g color="#fff961" class="teamapps-color-1">
				<rect x="162.14" y="40.54" width="699.73" height="902.4" fill="currentColor"/>
			</g>
		</g>
	</g>
</svg>