<svg version="1.1" xmlns="http://www.w3.org/2000/svg" xmlns:xlink="http://www.w3.org/1999/xlink" viewBox="0,0,1024,1024">
	<!-- Color names: teamapps-color-1, teamapps-color-2, teamapps-color-3 -->
	<desc>expand_less icon - Licensed under Apache License v2.0 (http://www.apache.org/licenses/LICENSE-2.0) - Created with Iconfu.com - Derivative work of Material icons (Copyright Google Inc.)</desc>
	<defs>
		<radialGradient cx="0" cy="0" r="1448.15" id="color-8yJjwa7U" gradientUnits="userSpaceOnUse">
			<stop offset="0.08" stop-color="#ffffff"/>
			<stop offset="1" stop-color="#000000"/>
		</radialGradient>
		<linearGradient x1="0" y1="1024" x2="1024" y2="0" id="color-Kcx4OYAj" gradientUnits="userSpaceOnUse">
			<stop offset="0.2" stop-color="#000000"/>
			<stop offset="0.8" stop-color="#ffffff"/>
		</linearGradient>
		<filter id="filter-werMdq7f" color-interpolation-filters="sRGB">
			<feOffset/>
		</filter>
		<mask id="mask-94eluDZ7">
			<path d="M773.3,611.17l-57.15,57.15c-9.99,9.99 -26.18,10 -36.18,0.02l-167.97,-167.6l-167.97,167.6c-10,9.98 -26.19,9.97 -36.18,-0.02l-57.15,-57.15c-10,-10 -10,-26.21 0,-36.2l243.2,-243.2c10,-10 26.21,-10 36.2,0l243.2,243.2c10,10 10,26.21 0,36.2zM512,349.86l-243.2,243.2l57.15,57.15l186.05,-185.64l186.05,185.64l57.15,-57.15z" fill="url(#color-8yJjwa7U)"/>
		</mask>
		<mask id="mask-ARwJzvdG">
			<rect fill="url(#color-Kcx4OYAj)" x="243.2" y="324.26" width="537.6" height="351.55"/>
		</mask>
		<mask id="mask-QyLi7FiN">
			<path d="M773.3,611.17l-57.15,57.15c-9.99,9.99 -26.18,10 -36.18,0.02l-167.97,-167.6l-167.97,167.6c-10,9.98 -26.19,9.97 -36.18,-0.02l-57.15,-57.15c-10,-10 -10,-26.21 0,-36.2l243.2,-243.2c10,-10 26.21,-10 36.2,0l243.2,243.2c10,10 10,26.21 0,36.2zM512,349.86l-243.2,243.2l57.15,57.15l186.05,-185.64l186.05,185.64l57.15,-57.15z" fill="#ffffff"/>
		</mask>
	</defs>
	<g fill="none" fill-rule="nonzero" style="mix-blend-mode: normal">
		<g mask="url(#mask-QyLi7FiN)">
			<g color="#ff0000" class="teamapps-color-2">
				<rect x="243.2" y="324.26" width="537.6" height="351.55" fill="currentColor"/>
			</g>
			<g color="#bc13e0" class="teamapps-color-3" mask="url(#mask-ARwJzvdG)">
				<rect x="243.2" y="324.26" width="537.6" height="351.55" fill="currentColor"/>
			</g>
		</g>
		<g filter="url(#filter-werMdq7f)" mask="url(#mask-94eluDZ7)">
			<g color="#fff961" class="teamapps-color-1">
				<rect x="243.2" y="324.26" width="537.6" height="351.55" fill="currentColor"/>
			</g>
		</g>
	</g>
</svg>