<svg version="1.1" xmlns="http://www.w3.org/2000/svg" xmlns:xlink="http://www.w3.org/1999/xlink" viewBox="0,0,1024,1024">
	<!-- Color names: teamapps-color-1, teamapps-color-2, teamapps-color-3 -->
	<desc>exposure_plus_1 icon - Licensed under Apache License v2.0 (http://www.apache.org/licenses/LICENSE-2.0) - Created with Iconfu.com - Derivative work of Material icons (Copyright Google Inc.)</desc>
	<defs>
		<radialGradient cx="0" cy="0" r="1448.15" id="color-86SfAQ8O" gradientUnits="userSpaceOnUse">
			<stop offset="0.08" stop-color="#ffffff"/>
			<stop offset="1" stop-color="#000000"/>
		</radialGradient>
		<linearGradient x1="0" y1="1024" x2="1024" y2="0" id="color-dLrElwF7" gradientUnits="userSpaceOnUse">
			<stop offset="0.2" stop-color="#000000"/>
			<stop offset="0.8" stop-color="#ffffff"/>
		</linearGradient>
		<filter id="filter-Izkw7wZD" color-interpolation-filters="sRGB">
			<feOffset/>
		</filter>
		<mask id="mask-PQB7I0Zz">
			<path d="M593.06,445.86c14.14,0 25.6,11.46 25.6,25.6v81.07c0,14.14 -11.46,25.6 -25.6,25.6h-136.53v136.53c0,14.14 -11.46,25.6 -25.6,25.6h-81.07c-14.14,0 -25.6,-11.46 -25.6,-25.6v-136.53h-136.53c-14.14,0 -25.6,-11.46 -25.6,-25.6v-81.07c0,-14.14 11.46,-25.6 25.6,-25.6h136.53v-136.53c0,-14.14 11.46,-25.6 25.6,-25.6h81.07c14.14,0 25.6,11.46 25.6,25.6v136.53zM836.26,780.8h-81.06c-14.14,0 -25.6,-11.46 -25.6,-25.6v-394.72l-87.76,29.84c-7.82,2.66 -16.44,1.38 -23.15,-3.42c-6.71,-4.81 -10.69,-12.56 -10.69,-20.81v-68.9c0,-10.78 6.75,-20.41 16.89,-24.07l190.5,-68.91c2.79,-1.01 5.74,-1.53 8.71,-1.53h12.16c14.14,0 25.6,11.46 25.6,25.6v526.94c0,14.14 -11.46,25.6 -25.6,25.6zM430.94,309.34h-81.07v162.13h-162.13v81.07h162.13v162.13h81.07v-162.13h162.13v-81.07h-162.13zM836.26,228.26h-12.16l-190.5,68.91v68.9l121.6,-41.34v430.46h81.06z" fill="#ffffff"/>
		</mask>
		<mask id="mask-qnnMmMYW">
			<rect fill="url(#color-dLrElwF7)" x="162.14" y="202.66" width="699.73" height="578.14"/>
		</mask>
		<mask id="mask-sAKfnaP6">
			<path d="M593.06,445.86c14.14,0 25.6,11.46 25.6,25.6v81.07c0,14.14 -11.46,25.6 -25.6,25.6h-136.53v136.53c0,14.14 -11.46,25.6 -25.6,25.6h-81.07c-14.14,0 -25.6,-11.46 -25.6,-25.6v-136.53h-136.53c-14.14,0 -25.6,-11.46 -25.6,-25.6v-81.07c0,-14.14 11.46,-25.6 25.6,-25.6h136.53v-136.53c0,-14.14 11.46,-25.6 25.6,-25.6h81.07c14.14,0 25.6,11.46 25.6,25.6v136.53zM836.26,780.8h-81.06c-14.14,0 -25.6,-11.46 -25.6,-25.6v-394.72l-87.76,29.84c-7.82,2.66 -16.44,1.38 -23.15,-3.42c-6.71,-4.81 -10.69,-12.56 -10.69,-20.81v-68.9c0,-10.78 6.75,-20.41 16.89,-24.07l190.5,-68.91c2.79,-1.01 5.74,-1.53 8.71,-1.53h12.16c14.14,0 25.6,11.46 25.6,25.6v526.94c0,14.14 -11.46,25.6 -25.6,25.6zM430.94,309.34h-81.07v162.13h-162.13v81.07h162.13v162.13h81.07v-162.13h162.13v-81.07h-162.13zM836.26,228.26h-12.16l-190.5,68.91v68.9l121.6,-41.34v430.46h81.06z" fill="url(#color-86SfAQ8O)"/>
		</mask>
	</defs>
	<g fill="none" fill-rule="nonzero" style="mix-blend-mode: normal">
		<g mask="url(#mask-PQB7I0Zz)">
			<g color="#ff0000" class="teamapps-color-2">
				<rect x="162.14" y="202.66" width="699.73" height="578.14" fill="currentColor"/>
			</g>
			<g color="#bc13e0" class="teamapps-color-3" mask="url(#mask-qnnMmMYW)">
				<rect x="162.14" y="202.66" width="699.73" height="578.14" fill="currentColor"/>
			</g>
		</g>
		<g filter="url(#filter-Izkw7wZD)" mask="url(#mask-sAKfnaP6)">
			<g color="#fff961" class="teamapps-color-1">
				<rect x="162.14" y="202.66" width="699.73" height="578.14" fill="currentColor"/>
			</g>
		</g>
	</g>
</svg>