<svg version="1.1" xmlns="http://www.w3.org/2000/svg" xmlns:xlink="http://www.w3.org/1999/xlink" viewBox="0,0,1024,1024">
	<!-- Color names: teamapps-color-1, teamapps-color-2, teamapps-color-3 -->
	<desc>fiber_new icon - Licensed under Apache License v2.0 (http://www.apache.org/licenses/LICENSE-2.0) - Created with Iconfu.com - Derivative work of Material icons (Copyright Google Inc.)</desc>
	<defs>
		<linearGradient x1="0" y1="1024" x2="1024" y2="0" id="color-91mLi9Zz" gradientUnits="userSpaceOnUse">
			<stop offset="0.2" stop-color="#000000"/>
			<stop offset="0.8" stop-color="#ffffff"/>
		</linearGradient>
		<radialGradient cx="0" cy="0" r="1448.15" id="color-UIGwZm5v" gradientUnits="userSpaceOnUse">
			<stop offset="0.08" stop-color="#ffffff"/>
			<stop offset="1" stop-color="#000000"/>
		</radialGradient>
		<filter id="filter-nSdiLTvY" color-interpolation-filters="sRGB">
			<feOffset/>
		</filter>
		<mask id="mask-67Af6AKu">
			<rect fill="url(#color-91mLi9Zz)" x="81.06" y="162.14" width="861.87" height="699.73"/>
		</mask>
		<mask id="mask-IDw1FGCN">
			<path d="M942.94,268.8v486.4c0,59.13 -47.55,106.66 -106.67,106.66h-648.53c-59.13,0 -106.67,-47.53 -106.67,-106.66l0.41,-486.42c0,-58.96 46.97,-106.64 106.26,-106.64h648.53c59.13,0 106.67,47.53 106.67,106.66zM805.86,598.4h-45.39c-12.82,0 -23.44,-9.42 -25.31,-21.71c-1.7,12.49 -12.41,22.12 -25.37,22.12h-45.8c-12.34,0 -22.65,-8.74 -25.06,-20.36v14.62c0,8.17 6.78,14.94 14.93,14.94h162.14c8.16,0 14.94,-6.78 14.94,-14.94v-15.07c-2.4,11.65 -12.71,20.41 -25.07,20.41zM327.28,556.64c-10.6,3.4 -22.18,-0.44 -28.64,-9.5l-93.67,-131.14h-11.9v70.56c1.83,-8.87 8.28,-16.28 17.15,-19.17c10.54,-3.43 22.09,0.31 28.62,9.27l95.69,131.34h10.02v-70.56c-1.84,8.91 -8.34,16.35 -17.26,19.2zM436.26,416v192h29.96c-11.63,-2.42 -20.36,-12.72 -20.36,-25.06v-44.99c0,-13.53 10.49,-24.6 23.78,-25.54c-13.29,-0.94 -23.78,-12.01 -23.78,-25.54v-45.4c0,-13.27 10.1,-24.18 23.02,-25.47zM836.26,187.74h-648.53c-44.99,0 -80.66,36.07 -80.66,81.06l-0.41,486.4c0,44.99 36.08,81.06 81.07,81.06h648.53c44.99,0 81.07,-36.07 81.07,-81.06v-486.4c0,-44.99 -36.08,-81.06 -81.07,-81.06zM856.54,593.06c0,22.3 -18.24,40.54 -40.54,40.54h-162.14c-22.3,0 -40.53,-18.24 -40.53,-40.54v-202.66h50.66v182.81h45.8v-142.68h50.67v142.27h45.39v-182.4h50.67zM370.14,633.6h-48.64l-103.36,-141.86v141.86h-50.67v-243.2h50.67l101.33,141.86v-141.86h50.67zM572.8,441.47h-101.34v45.4h101.34v51.07h-101.34v44.99h101.34v50.66h-162.14v-243.2h162.14z" fill="url(#color-UIGwZm5v)"/>
		</mask>
		<mask id="mask-U981xKwv">
			<path d="M942.94,268.8v486.4c0,59.13 -47.55,106.66 -106.67,106.66h-648.53c-59.13,0 -106.67,-47.53 -106.67,-106.66l0.41,-486.42c0,-58.96 46.97,-106.64 106.26,-106.64h648.53c59.13,0 106.67,47.53 106.67,106.66zM805.86,598.4h-45.39c-12.82,0 -23.44,-9.42 -25.31,-21.71c-1.7,12.49 -12.41,22.12 -25.37,22.12h-45.8c-12.34,0 -22.65,-8.74 -25.06,-20.36v14.62c0,8.17 6.78,14.94 14.93,14.94h162.14c8.16,0 14.94,-6.78 14.94,-14.94v-15.07c-2.4,11.65 -12.71,20.41 -25.07,20.41zM327.28,556.64c-10.6,3.4 -22.18,-0.44 -28.64,-9.5l-93.67,-131.14h-11.9v70.56c1.83,-8.87 8.28,-16.28 17.15,-19.17c10.54,-3.43 22.09,0.31 28.62,9.27l95.69,131.34h10.02v-70.56c-1.84,8.91 -8.34,16.35 -17.26,19.2zM436.26,416v192h29.96c-11.63,-2.42 -20.36,-12.72 -20.36,-25.06v-44.99c0,-13.53 10.49,-24.6 23.78,-25.54c-13.29,-0.94 -23.78,-12.01 -23.78,-25.54v-45.4c0,-13.27 10.1,-24.18 23.02,-25.47zM836.26,187.74h-648.53c-44.99,0 -80.66,36.07 -80.66,81.06l-0.41,486.4c0,44.99 36.08,81.06 81.07,81.06h648.53c44.99,0 81.07,-36.07 81.07,-81.06v-486.4c0,-44.99 -36.08,-81.06 -81.07,-81.06zM856.54,593.06c0,22.3 -18.24,40.54 -40.54,40.54h-162.14c-22.3,0 -40.53,-18.24 -40.53,-40.54v-202.66h50.66v182.81h45.8v-142.68h50.67v142.27h45.39v-182.4h50.67zM370.14,633.6h-48.64l-103.36,-141.86v141.86h-50.67v-243.2h50.67l101.33,141.86v-141.86h50.67zM572.8,441.47h-101.34v45.4h101.34v51.07h-101.34v44.99h101.34v50.66h-162.14v-243.2h162.14z" fill="#ffffff"/>
		</mask>
	</defs>
	<g fill="none" fill-rule="nonzero" style="mix-blend-mode: normal">
		<g mask="url(#mask-U981xKwv)">
			<g color="#ff0000" class="teamapps-color-2">
				<rect x="81.06" y="162.14" width="861.87" height="699.73" fill="currentColor"/>
			</g>
			<g color="#bc13e0" class="teamapps-color-3" mask="url(#mask-67Af6AKu)">
				<rect x="81.06" y="162.14" width="861.87" height="699.73" fill="currentColor"/>
			</g>
		</g>
		<g filter="url(#filter-nSdiLTvY)" mask="url(#mask-IDw1FGCN)">
			<g color="#fff961" class="teamapps-color-1">
				<rect x="81.06" y="162.14" width="861.87" height="699.73" fill="currentColor"/>
			</g>
		</g>
	</g>
</svg>