<svg version="1.1" xmlns="http://www.w3.org/2000/svg" xmlns:xlink="http://www.w3.org/1999/xlink" viewBox="0,0,1024,1024">
	<!-- Color names: teamapps-color-1, teamapps-color-2, teamapps-color-3 -->
	<desc>filter_3 icon - Licensed under Apache License v2.0 (http://www.apache.org/licenses/LICENSE-2.0) - Created with Iconfu.com - Derivative work of Material icons (Copyright Google Inc.)</desc>
	<defs>
		<linearGradient x1="0" y1="1024" x2="1024" y2="0" id="color-pbG9FBof" gradientUnits="userSpaceOnUse">
			<stop offset="0.2" stop-color="#000000"/>
			<stop offset="0.8" stop-color="#ffffff"/>
		</linearGradient>
		<radialGradient cx="0" cy="0" r="1448.15" id="color-qj8dZAlE" gradientUnits="userSpaceOnUse">
			<stop offset="0.08" stop-color="#ffffff"/>
			<stop offset="1" stop-color="#000000"/>
		</radialGradient>
		<filter id="filter-5oNFnQyj" color-interpolation-filters="sRGB">
			<feOffset/>
		</filter>
		<mask id="mask-4kjrN9Sr">
			<path d="M983.46,147.2v567.46c0,58.72 -47.94,106.67 -106.66,106.67h-567.46c-58.72,0 -106.67,-47.95 -106.67,-106.67v-567.46c0,-58.73 47.95,-106.66 106.67,-106.66h567.46c58.72,0 106.66,47.94 106.66,106.66zM795.74,851.2c14.14,0 25.6,11.46 25.6,25.6v81.06c0,14.14 -11.46,25.6 -25.6,25.6h-648.54c-58.72,0 -106.66,-47.94 -106.66,-106.66v-648.54c0,-14.14 11.46,-25.6 25.6,-25.6h81.06c14.14,0 25.6,11.46 25.6,25.6v622.94zM334.94,172.8v516.26h516.26v-516.26zM633.6,659.2h-162.14c-14.14,0 -25.6,-11.46 -25.6,-25.6v-81.06c0,-14.14 11.46,-25.6 25.6,-25.6h136.54v-29.87h-55.46c-14.14,0 -25.6,-11.46 -25.6,-25.6v-81.06c0,-14.14 11.46,-25.6 25.6,-25.6h55.46v-29.86h-136.54c-14.14,0 -25.6,-11.46 -25.6,-25.6v-81.07c0,-14.14 11.46,-25.6 25.6,-25.6h162.14c58.64,0 106.66,47.46 106.66,106.67v60.8c0,23.73 -9.53,45.2 -24.97,60.8c15.44,15.6 24.97,37.07 24.97,60.8v60.8c0,59.22 -48.03,106.66 -106.66,106.66zM876.8,66.14h-567.46c-44.58,0 -81.07,36.48 -81.07,81.06v567.46c0,44.58 36.49,81.07 81.07,81.07h567.46c44.58,0 81.06,-36.49 81.06,-81.07v-567.46c0,-44.58 -36.48,-81.06 -81.06,-81.06zM147.2,228.26h-81.06v648.54c0,44.58 36.48,81.06 81.06,81.06h648.54v-81.06h-648.54zM876.8,714.66h-567.46v-567.46h567.46zM714.66,552.54v-60.8c0,-33.64 -27.16,-60.8 -60.8,-60.8c33.64,0 60.8,-27.16 60.8,-60.8v-60.8c0,-44.99 -36.48,-81.07 -81.06,-81.07h-162.14v81.07h162.14v81.06h-81.06v81.06h81.06v81.07h-162.14v81.06h162.14c44.58,0 81.06,-36.07 81.06,-81.06z" fill="#ffffff"/>
		</mask>
		<mask id="mask-NoXRBiU1">
			<rect fill="url(#color-pbG9FBof)" x="40.54" y="40.54" width="942.93" height="942.93"/>
		</mask>
		<mask id="mask-XgvV0KCl">
			<path d="M983.46,147.2v567.46c0,58.72 -47.94,106.67 -106.66,106.67h-567.46c-58.72,0 -106.67,-47.95 -106.67,-106.67v-567.46c0,-58.73 47.95,-106.66 106.67,-106.66h567.46c58.72,0 106.66,47.94 106.66,106.66zM795.74,851.2c14.14,0 25.6,11.46 25.6,25.6v81.06c0,14.14 -11.46,25.6 -25.6,25.6h-648.54c-58.72,0 -106.66,-47.94 -106.66,-106.66v-648.54c0,-14.14 11.46,-25.6 25.6,-25.6h81.06c14.14,0 25.6,11.46 25.6,25.6v622.94zM334.94,172.8v516.26h516.26v-516.26zM633.6,659.2h-162.14c-14.14,0 -25.6,-11.46 -25.6,-25.6v-81.06c0,-14.14 11.46,-25.6 25.6,-25.6h136.54v-29.87h-55.46c-14.14,0 -25.6,-11.46 -25.6,-25.6v-81.06c0,-14.14 11.46,-25.6 25.6,-25.6h55.46v-29.86h-136.54c-14.14,0 -25.6,-11.46 -25.6,-25.6v-81.07c0,-14.14 11.46,-25.6 25.6,-25.6h162.14c58.64,0 106.66,47.46 106.66,106.67v60.8c0,23.73 -9.53,45.2 -24.97,60.8c15.44,15.6 24.97,37.07 24.97,60.8v60.8c0,59.22 -48.03,106.66 -106.66,106.66zM876.8,66.14h-567.46c-44.58,0 -81.07,36.48 -81.07,81.06v567.46c0,44.58 36.49,81.07 81.07,81.07h567.46c44.58,0 81.06,-36.49 81.06,-81.07v-567.46c0,-44.58 -36.48,-81.06 -81.06,-81.06zM147.2,228.26h-81.06v648.54c0,44.58 36.48,81.06 81.06,81.06h648.54v-81.06h-648.54zM876.8,714.66h-567.46v-567.46h567.46zM714.66,552.54v-60.8c0,-33.64 -27.16,-60.8 -60.8,-60.8c33.64,0 60.8,-27.16 60.8,-60.8v-60.8c0,-44.99 -36.48,-81.07 -81.06,-81.07h-162.14v81.07h162.14v81.06h-81.06v81.06h81.06v81.07h-162.14v81.06h162.14c44.58,0 81.06,-36.07 81.06,-81.06z" fill="url(#color-qj8dZAlE)"/>
		</mask>
	</defs>
	<g fill="none" fill-rule="nonzero" style="mix-blend-mode: normal">
		<g mask="url(#mask-4kjrN9Sr)">
			<g color="#ff0000" class="teamapps-color-2">
				<rect x="40.54" y="40.54" width="942.93" height="942.93" fill="currentColor"/>
			</g>
			<g color="#bc13e0" class="teamapps-color-3" mask="url(#mask-NoXRBiU1)">
				<rect x="40.54" y="40.54" width="942.93" height="942.93" fill="currentColor"/>
			</g>
		</g>
		<g filter="url(#filter-5oNFnQyj)" mask="url(#mask-XgvV0KCl)">
			<g color="#fff961" class="teamapps-color-1">
				<rect x="40.54" y="40.54" width="942.93" height="942.93" fill="currentColor"/>
			</g>
		</g>
	</g>
</svg>