<svg version="1.1" xmlns="http://www.w3.org/2000/svg" xmlns:xlink="http://www.w3.org/1999/xlink" viewBox="0,0,1024,1024">
	<!-- Color names: teamapps-color-1, teamapps-color-2, teamapps-color-3 -->
	<desc>filter_drama icon - Licensed under Apache License v2.0 (http://www.apache.org/licenses/LICENSE-2.0) - Created with Iconfu.com - Derivative work of Material icons (Copyright Google Inc.)</desc>
	<defs>
		<radialGradient cx="0" cy="0" r="1448.15" id="color-0TXgYQls" gradientUnits="userSpaceOnUse">
			<stop offset="0.08" stop-color="#ffffff"/>
			<stop offset="1" stop-color="#000000"/>
		</radialGradient>
		<linearGradient x1="0" y1="1024" x2="1024" y2="0" id="color-tGw7Odcr" gradientUnits="userSpaceOnUse">
			<stop offset="0.2" stop-color="#000000"/>
			<stop offset="0.8" stop-color="#ffffff"/>
		</linearGradient>
		<filter id="filter-A2J2E9Rg" color-interpolation-filters="sRGB">
			<feOffset/>
		</filter>
		<mask id="mask-LI9pKkuc">
			<path d="M1024,633.6c0,126.01 -102.25,228.26 -228.26,228.26h-526.94c-148.31,0 -268.8,-120.49 -268.8,-268.8c0,-134.26 98.35,-245.01 226.63,-265.25c56.75,-98.88 163.08,-165.68 285.37,-165.68c153.45,0 282.19,104.72 318.84,247.01c109.33,16.8 193.16,110.32 193.16,224.46zM891.74,633.6c0,-52.74 -43.26,-96 -96,-96h-60.8c-14.14,0 -25.6,-11.46 -25.6,-25.6v-20.26c0,-108.68 -88.66,-197.34 -197.34,-197.34c-51.62,0 -98.55,20.21 -133.92,53.17c94.05,41.82 159.52,135.89 159.52,245.5c0,14.14 -11.46,25.6 -25.6,25.6h-81.06c-14.14,0 -25.6,-11.46 -25.6,-25.6c0,-75.44 -61.1,-136.53 -136.54,-136.53c-75.44,0 -136.54,61.09 -136.54,136.53c0,75.44 61.1,136.54 136.54,136.54h526.94c52.74,0 96,-43.26 96,-96zM809.92,432.55c-27.56,-139.84 -150.38,-244.81 -297.92,-244.81c-117.14,0 -218.48,66.47 -269.14,163.75c-122.01,12.97 -217.26,115.92 -217.26,241.58c0,134.17 109.03,243.2 243.2,243.2h526.94c111.87,0 202.66,-90.79 202.66,-202.66c0,-107.01 -83.1,-193.75 -188.48,-201.05zM795.74,755.2h-526.94c-89.58,0 -162.14,-72.56 -162.14,-162.14c0,-89.58 72.56,-162.13 162.14,-162.13c89.58,0 162.14,72.55 162.14,162.13h81.06c0,-111.87 -75.39,-205.9 -178.34,-234.28c40.94,-54.31 105.38,-89.98 178.34,-89.98c122.82,0 222.94,100.12 222.94,222.94v20.26h60.8c66.88,0 121.6,54.72 121.6,121.6c0,66.88 -54.72,121.6 -121.6,121.6z" fill="url(#color-0TXgYQls)"/>
		</mask>
		<mask id="mask-qg3jefdI">
			<path d="M1024,633.6c0,126.01 -102.25,228.26 -228.26,228.26h-526.94c-148.31,0 -268.8,-120.49 -268.8,-268.8c0,-134.26 98.35,-245.01 226.63,-265.25c56.75,-98.88 163.08,-165.68 285.37,-165.68c153.45,0 282.19,104.72 318.84,247.01c109.33,16.8 193.16,110.32 193.16,224.46zM891.74,633.6c0,-52.74 -43.26,-96 -96,-96h-60.8c-14.14,0 -25.6,-11.46 -25.6,-25.6v-20.26c0,-108.68 -88.66,-197.34 -197.34,-197.34c-51.62,0 -98.55,20.21 -133.92,53.17c94.05,41.82 159.52,135.89 159.52,245.5c0,14.14 -11.46,25.6 -25.6,25.6h-81.06c-14.14,0 -25.6,-11.46 -25.6,-25.6c0,-75.44 -61.1,-136.53 -136.54,-136.53c-75.44,0 -136.54,61.09 -136.54,136.53c0,75.44 61.1,136.54 136.54,136.54h526.94c52.74,0 96,-43.26 96,-96zM809.92,432.55c-27.56,-139.84 -150.38,-244.81 -297.92,-244.81c-117.14,0 -218.48,66.47 -269.14,163.75c-122.01,12.97 -217.26,115.92 -217.26,241.58c0,134.17 109.03,243.2 243.2,243.2h526.94c111.87,0 202.66,-90.79 202.66,-202.66c0,-107.01 -83.1,-193.75 -188.48,-201.05zM795.74,755.2h-526.94c-89.58,0 -162.14,-72.56 -162.14,-162.14c0,-89.58 72.56,-162.13 162.14,-162.13c89.58,0 162.14,72.55 162.14,162.13h81.06c0,-111.87 -75.39,-205.9 -178.34,-234.28c40.94,-54.31 105.38,-89.98 178.34,-89.98c122.82,0 222.94,100.12 222.94,222.94v20.26h60.8c66.88,0 121.6,54.72 121.6,121.6c0,66.88 -54.72,121.6 -121.6,121.6z" fill="#ffffff"/>
		</mask>
		<mask id="mask-s7jfOJVs">
			<rect fill="url(#color-tGw7Odcr)" x="0" y="162.14" width="1024" height="699.73"/>
		</mask>
	</defs>
	<g fill="none" fill-rule="nonzero" style="mix-blend-mode: normal">
		<g mask="url(#mask-qg3jefdI)">
			<g color="#ff0000" class="teamapps-color-2">
				<rect x="0" y="162.14" width="1024" height="699.73" fill="currentColor"/>
			</g>
			<g color="#bc13e0" class="teamapps-color-3" mask="url(#mask-s7jfOJVs)">
				<rect x="0" y="162.14" width="1024" height="699.73" fill="currentColor"/>
			</g>
		</g>
		<g filter="url(#filter-A2J2E9Rg)" mask="url(#mask-LI9pKkuc)">
			<g color="#fff961" class="teamapps-color-1">
				<rect x="0" y="162.14" width="1024" height="699.73" fill="currentColor"/>
			</g>
		</g>
	</g>
</svg>