<svg version="1.1" xmlns="http://www.w3.org/2000/svg" xmlns:xlink="http://www.w3.org/1999/xlink" viewBox="0,0,1024,1024">
	<!-- Color names: teamapps-color-1, teamapps-color-2, teamapps-color-3 -->
	<desc>filter_1 icon - Licensed under Apache License v2.0 (http://www.apache.org/licenses/LICENSE-2.0) - Created with Iconfu.com - Derivative work of Material icons (Copyright Google Inc.)</desc>
	<defs>
		<radialGradient cx="0" cy="0" r="1448.15" id="color-4ZROF8IB" gradientUnits="userSpaceOnUse">
			<stop offset="0.08" stop-color="#ffffff"/>
			<stop offset="1" stop-color="#000000"/>
		</radialGradient>
		<linearGradient x1="0" y1="1024" x2="1024" y2="0" id="color-UsR14BSp" gradientUnits="userSpaceOnUse">
			<stop offset="0.2" stop-color="#000000"/>
			<stop offset="0.8" stop-color="#ffffff"/>
		</linearGradient>
		<filter id="filter-2rKPfJTO" color-interpolation-filters="sRGB">
			<feOffset/>
		</filter>
		<mask id="mask-cd6ChzqV">
			<path d="M983.46,147.2v567.46c0,58.72 -47.94,106.67 -106.66,106.67h-567.46c-58.72,0 -106.67,-47.95 -106.67,-106.67v-567.46c0,-58.73 47.95,-106.66 106.67,-106.66h567.46c58.72,0 106.66,47.94 106.66,106.66zM795.74,851.2c14.14,0 25.6,11.46 25.6,25.6v81.06c0,14.14 -11.46,25.6 -25.6,25.6h-648.54c-58.72,0 -106.66,-47.94 -106.66,-106.66v-648.54c0,-14.14 11.46,-25.6 25.6,-25.6h81.06c14.14,0 25.6,11.46 25.6,25.6v622.94zM334.94,172.8v516.26h516.26v-516.26zM512,334.94c-14.14,0 -25.6,-11.46 -25.6,-25.6v-81.07c0,-14.14 11.46,-25.6 25.6,-25.6h162.14c14.14,0 25.6,11.46 25.6,25.6v405.34c0,14.14 -11.46,25.6 -25.6,25.6h-81.07c-14.14,0 -25.6,-11.46 -25.6,-25.6v-298.66zM147.2,228.26h-81.06v648.54c0,44.58 36.48,81.06 81.06,81.06h648.54v-81.06h-648.54zM876.8,66.14h-567.46c-44.58,0 -81.07,36.48 -81.07,81.06v567.46c0,44.58 36.49,81.07 81.07,81.07h567.46c44.58,0 81.06,-36.49 81.06,-81.07v-567.46c0,-44.58 -36.48,-81.06 -81.06,-81.06zM876.8,714.66h-567.46v-567.46h567.46zM593.06,633.6h81.07v-405.34h-162.14v81.07h81.06z" fill="url(#color-4ZROF8IB)"/>
		</mask>
		<mask id="mask-LO0iprZT">
			<path d="M983.46,147.2v567.46c0,58.72 -47.94,106.67 -106.66,106.67h-567.46c-58.72,0 -106.67,-47.95 -106.67,-106.67v-567.46c0,-58.73 47.95,-106.66 106.67,-106.66h567.46c58.72,0 106.66,47.94 106.66,106.66zM795.74,851.2c14.14,0 25.6,11.46 25.6,25.6v81.06c0,14.14 -11.46,25.6 -25.6,25.6h-648.54c-58.72,0 -106.66,-47.94 -106.66,-106.66v-648.54c0,-14.14 11.46,-25.6 25.6,-25.6h81.06c14.14,0 25.6,11.46 25.6,25.6v622.94zM334.94,172.8v516.26h516.26v-516.26zM512,334.94c-14.14,0 -25.6,-11.46 -25.6,-25.6v-81.07c0,-14.14 11.46,-25.6 25.6,-25.6h162.14c14.14,0 25.6,11.46 25.6,25.6v405.34c0,14.14 -11.46,25.6 -25.6,25.6h-81.07c-14.14,0 -25.6,-11.46 -25.6,-25.6v-298.66zM147.2,228.26h-81.06v648.54c0,44.58 36.48,81.06 81.06,81.06h648.54v-81.06h-648.54zM876.8,66.14h-567.46c-44.58,0 -81.07,36.48 -81.07,81.06v567.46c0,44.58 36.49,81.07 81.07,81.07h567.46c44.58,0 81.06,-36.49 81.06,-81.07v-567.46c0,-44.58 -36.48,-81.06 -81.06,-81.06zM876.8,714.66h-567.46v-567.46h567.46zM593.06,633.6h81.07v-405.34h-162.14v81.07h81.06z" fill="#ffffff"/>
		</mask>
		<mask id="mask-ZG2ops9h">
			<rect fill="url(#color-UsR14BSp)" x="40.54" y="40.54" width="942.93" height="942.93"/>
		</mask>
	</defs>
	<g fill="none" fill-rule="nonzero" style="mix-blend-mode: normal">
		<g mask="url(#mask-LO0iprZT)">
			<g color="#ff0000" class="teamapps-color-2">
				<rect x="40.54" y="40.54" width="942.93" height="942.93" fill="currentColor"/>
			</g>
			<g color="#bc13e0" class="teamapps-color-3" mask="url(#mask-ZG2ops9h)">
				<rect x="40.54" y="40.54" width="942.93" height="942.93" fill="currentColor"/>
			</g>
		</g>
		<g filter="url(#filter-2rKPfJTO)" mask="url(#mask-cd6ChzqV)">
			<g color="#fff961" class="teamapps-color-1">
				<rect x="40.54" y="40.54" width="942.93" height="942.93" fill="currentColor"/>
			</g>
		</g>
	</g>
</svg>