<svg version="1.1" xmlns="http://www.w3.org/2000/svg" xmlns:xlink="http://www.w3.org/1999/xlink" viewBox="0,0,1024,1024">
	<!-- Color names: teamapps-color-1, teamapps-color-2, teamapps-color-3 -->
	<desc>fingerprint icon - Licensed under Apache License v2.0 (http://www.apache.org/licenses/LICENSE-2.0) - Created with Iconfu.com - Derivative work of Material icons (Copyright Google Inc.)</desc>
	<defs>
		<radialGradient cx="0" cy="0" r="1448.15" id="color-G3H4N8MN" gradientUnits="userSpaceOnUse">
			<stop offset="0.08" stop-color="#ffffff"/>
			<stop offset="1" stop-color="#000000"/>
		</radialGradient>
		<linearGradient x1="0" y1="1024" x2="1024" y2="0" id="color-Ybd3XhCm" gradientUnits="userSpaceOnUse">
			<stop offset="0.2" stop-color="#000000"/>
			<stop offset="0.8" stop-color="#ffffff"/>
		</linearGradient>
		<filter id="filter-0JjauFja" color-interpolation-filters="sRGB">
			<feOffset/>
		</filter>
		<mask id="mask-2T2V0al7">
			<rect fill="url(#color-Ybd3XhCm)" x="121.52" y="81.06" width="780.6" height="861.87"/>
		</mask>
		<mask id="mask-J1vuMGvq">
			<path d="M629.95,942.94c-4.95,0 -9.52,-1.09 -11.52,-1.59c-0.13,-0.03 -0.27,-0.07 -0.4,-0.11c-68.33,-18.9 -114.57,-44.95 -162.07,-91.57c-61.59,-61.16 -95.62,-142.79 -95.62,-229.85c0,-80.91 68.53,-144.77 150.44,-144.77c81.91,0 150.44,63.86 150.44,144.77c0,27.64 24.59,53.04 58.71,53.04c34.12,0 58.71,-25.4 58.71,-53.04c0,-137.25 -118.82,-251.24 -268.27,-251.24c-105.88,0 -201.91,58.94 -244.82,148.78c-13.9,28.86 -21.42,63.55 -21.42,102.45c0,29.56 2.6,76.14 25.5,137.26c8.91,23.36 -2.47,50.34 -26.9,59.06c-23.98,8.97 -50.3,-3.77 -58.76,-26.96c-20.87,-55.81 -31.17,-111.5 -31.17,-169.36c0,-51.93 9.97,-99.93 30.03,-142.29c58.39,-122.47 187.28,-201.09 327.53,-201.09c197.27,0 360,152.48 360,342.98c0,80.91 -68.53,144.77 -150.44,144.77c-81.91,0 -150.44,-63.86 -150.44,-144.77c0,-27.64 -24.59,-53.04 -58.71,-53.04c-34.12,0 -58.71,25.4 -58.71,53.04c0,62.57 24.08,120.85 68.23,164.62c35.13,34.77 68.03,53.73 121.19,68.45c25.08,6.65 38.33,32.19 32.39,55.49c-4.97,21.44 -24.29,34.96 -43.93,34.96zM420.8,934.42c-11.35,0 -23.61,-4.26 -32.66,-13.95c-36.36,-36.38 -56.94,-60.96 -85.36,-112.27c-30.4,-54.22 -45.8,-119.45 -45.8,-188.38c0,-135.69 115.61,-244.07 255.02,-244.07c139.4,0 255.02,108.38 255.02,244.07c0,25.47 -20.36,45.87 -45.86,45.87c-25.51,0 -45.86,-20.4 -45.86,-45.87c0,-82.55 -71.81,-152.34 -163.29,-152.34c-91.47,0 -163.29,69.79 -163.29,152.34c0,54.7 12.17,104.13 34.39,143.47c24.46,43.95 40.73,62.1 70.92,92.69c0.08,0.08 0.15,0.16 0.23,0.24c17.02,17.9 17.29,46.1 0.1,64.17c-0.42,0.45 -0.86,0.88 -1.32,1.29c-8.86,8.07 -20.19,12.75 -32.23,12.75zM167.46,445.18c-9.28,0 -18.24,-2.81 -25.95,-7.95c-0.1,-0.07 -0.2,-0.13 -0.29,-0.2c-21.25,-14.79 -25.72,-43.51 -11.38,-64.1c42.45,-60.03 96.76,-107.55 161.3,-140.68c134.6,-69.44 306.25,-69.86 441.31,-0.4c64.43,33.07 118.61,79.94 161.08,139.56c14.77,20.45 10.09,49.62 -11.03,64.32c-20.44,14.23 -49,10.13 -63.9,-11.09c-34.15,-47.78 -77.22,-85.12 -128.16,-111.15c-109.01,-55.84 -249.06,-55.82 -357.6,0.35c-51.09,26.3 -94.07,63.82 -128.18,111.32c-8.86,14.25 -23.96,20.04 -37.21,20.04zM711.42,859.43c-52.58,0 -100.36,-13.29 -140.08,-40.52c-67.08,-45.5 -107.64,-119.74 -107.64,-199.1c0,-25.49 20.37,-45.86 45.86,-45.86c25.49,0 45.86,20.37 45.86,45.86c0,48.29 24.67,94.38 67.32,123.06c23.83,16.11 52.31,24.42 88.67,24.42c8.12,0 22.8,-1.06 37.64,-3.66c25.16,-4.57 48.73,12.34 53.21,37.25c4.6,25.13 -12.23,48.69 -37.1,53.24c-25.22,4.85 -47.19,5.3 -53.75,5.3zM747.5,232.38c-7.22,0 -14.66,-1.74 -21.43,-5.48c-74.34,-38.28 -137.54,-54.11 -213.65,-54.11c-76.09,0 -148.04,18.03 -213.44,53.99c-22.49,12.19 -49.72,3.43 -62.01,-17.64c-0.13,-0.23 -0.26,-0.46 -0.39,-0.7c-11.91,-21.98 -3.92,-50.17 18.41,-62.27c79.16,-42.98 166.04,-65.11 257.43,-65.11c90.74,0 170.12,20.18 256.13,64.46c22.55,11.73 31.38,39.34 19.51,61.73c-7.98,15.62 -23.55,25.13 -40.55,25.13zM649,901.93c2.84,-10.54 -3.24,-21.88 -14.18,-24.72c-57.15,-15.81 -94.04,-36.89 -132.54,-74.99c-49.05,-48.64 -75.8,-113.49 -75.8,-182.8c0,-43.37 37.7,-78.64 84.31,-78.64c46.62,0 84.31,35.27 84.31,78.64c0,65.66 55.94,119.17 124.84,119.17c68.9,0 124.84,-53.5 124.84,-119.17c0,-175.1 -149.98,-317.38 -334.4,-317.38c-130.92,0 -250.49,73.36 -304.4,186.45c-18.24,38.5 -27.57,82.69 -27.57,131.33c0,54.72 9.73,107.42 29.59,160.51c3.65,10.14 15.41,15.82 25.94,11.76c10.54,-3.65 15.81,-15.41 11.75,-25.94c-24.32,-64.86 -27.16,-114.71 -27.16,-146.33c0,-42.15 8.11,-80.65 23.92,-113.49c47.42,-99.3 152.81,-163.35 267.92,-163.35c162.14,0 293.87,124.03 293.87,276.84c0,43.37 -37.7,78.64 -84.31,78.64c-46.62,0 -84.31,-35.27 -84.31,-78.64c0,-65.66 -55.94,-119.17 -124.84,-119.17c-68.9,0 -124.84,53.5 -124.84,119.17c0,80.26 31.21,155.24 87.95,211.58c44.18,43.37 86.34,67.29 150.78,85.12c1.62,0.41 3.65,0.82 5.27,0.82c8.51,0 17.02,-6.09 19.05,-15.41zM435.8,902.74c7.7,-8.1 7.7,-20.68 0,-28.78c-31.21,-31.62 -49.05,-51.47 -74.99,-98.09c-24.73,-43.78 -37.7,-97.69 -37.7,-156.06c0,-98.09 84.72,-177.94 188.89,-177.94c104.17,0 188.89,79.85 188.89,177.94c0,11.35 8.91,20.27 20.26,20.27c11.35,0 20.26,-8.92 20.26,-20.27c0,-120.38 -102.95,-218.47 -229.42,-218.47c-126.46,0 -229.42,98.09 -229.42,218.47c0,65.26 14.59,126.06 42.56,175.92c27.16,49.05 46.21,71.74 81.47,107.01c3.65,4.06 8.91,6.08 14.18,6.08c5.27,0 10.55,-2.02 15,-6.08zM183.27,411.07c36.48,-51.07 82.69,-91.6 137.82,-119.98c115.93,-59.99 264.69,-59.99 381.02,-0.41c54.72,27.97 100.93,68.1 137.41,119.17c6.49,9.32 19.05,11.35 28.37,4.86c9.32,-6.49 11.35,-19.46 4.86,-28.38c-40.13,-56.34 -91.2,-100.52 -152,-131.73c-127.68,-65.66 -290.62,-65.27 -417.9,0.4c-60.8,31.21 -111.87,75.8 -152,132.54c-6.49,9.32 -4.46,21.89 4.86,28.38c3.65,2.43 7.7,3.65 11.75,3.65c6.49,0 12.57,-2.84 15.81,-8.51zM760.47,828.97c11.35,-2.02 18.64,-12.56 16.62,-23.5c-2.02,-11.35 -12.57,-18.65 -23.51,-16.62c-16.22,2.84 -32.42,4.06 -42.15,4.06c-40.54,0 -74.18,-9.32 -102.95,-28.78c-49.45,-33.24 -78.64,-87.15 -78.64,-144.3c0,-11.35 -8.91,-20.26 -20.26,-20.26c-11.35,0 -20.26,8.91 -20.26,20.26c0,70.53 36.07,137.01 96.46,177.94c34.86,23.91 77.42,36.07 125.66,36.07c5.67,0 25.94,-0.41 49.05,-4.86zM765.34,195.43c5.27,-9.73 1.62,-21.88 -8.51,-27.15c-82.69,-42.56 -158.08,-61.62 -244.42,-61.62c-87.14,0 -169.84,21.08 -245.23,62.02c-9.73,5.27 -13.38,17.84 -8.1,27.57c5.67,9.73 17.83,13.38 27.56,8.1c69.31,-38.1 145.52,-57.15 225.78,-57.15c80.66,0 147.94,17.02 225.77,57.15c2.84,1.62 6.08,2.43 9.32,2.43c7.3,0 14.19,-4.06 17.84,-11.35z" fill="#ffffff"/>
		</mask>
		<mask id="mask-s3hj4G1z">
			<path d="M629.95,942.94c-4.95,0 -9.52,-1.09 -11.52,-1.59c-0.13,-0.03 -0.27,-0.07 -0.4,-0.11c-68.33,-18.9 -114.57,-44.95 -162.07,-91.57c-61.59,-61.16 -95.62,-142.79 -95.62,-229.85c0,-80.91 68.53,-144.77 150.44,-144.77c81.91,0 150.44,63.86 150.44,144.77c0,27.64 24.59,53.04 58.71,53.04c34.12,0 58.71,-25.4 58.71,-53.04c0,-137.25 -118.82,-251.24 -268.27,-251.24c-105.88,0 -201.91,58.94 -244.82,148.78c-13.9,28.86 -21.42,63.55 -21.42,102.45c0,29.56 2.6,76.14 25.5,137.26c8.91,23.36 -2.47,50.34 -26.9,59.06c-23.98,8.97 -50.3,-3.77 -58.76,-26.96c-20.87,-55.81 -31.17,-111.5 -31.17,-169.36c0,-51.93 9.97,-99.93 30.03,-142.29c58.39,-122.47 187.28,-201.09 327.53,-201.09c197.27,0 360,152.48 360,342.98c0,80.91 -68.53,144.77 -150.44,144.77c-81.91,0 -150.44,-63.86 -150.44,-144.77c0,-27.64 -24.59,-53.04 -58.71,-53.04c-34.12,0 -58.71,25.4 -58.71,53.04c0,62.57 24.08,120.85 68.23,164.62c35.13,34.77 68.03,53.73 121.19,68.45c25.08,6.65 38.33,32.19 32.39,55.49c-4.97,21.44 -24.29,34.96 -43.93,34.96zM420.8,934.42c-11.35,0 -23.61,-4.26 -32.66,-13.95c-36.36,-36.38 -56.94,-60.96 -85.36,-112.27c-30.4,-54.22 -45.8,-119.45 -45.8,-188.38c0,-135.69 115.61,-244.07 255.02,-244.07c139.4,0 255.02,108.38 255.02,244.07c0,25.47 -20.36,45.87 -45.86,45.87c-25.51,0 -45.86,-20.4 -45.86,-45.87c0,-82.55 -71.81,-152.34 -163.29,-152.34c-91.47,0 -163.29,69.79 -163.29,152.34c0,54.7 12.17,104.13 34.39,143.47c24.46,43.95 40.73,62.1 70.92,92.69c0.08,0.08 0.15,0.16 0.23,0.24c17.02,17.9 17.29,46.1 0.1,64.17c-0.42,0.45 -0.86,0.88 -1.32,1.29c-8.86,8.07 -20.19,12.75 -32.23,12.75zM167.46,445.18c-9.28,0 -18.24,-2.81 -25.95,-7.95c-0.1,-0.07 -0.2,-0.13 -0.29,-0.2c-21.25,-14.79 -25.72,-43.51 -11.38,-64.1c42.45,-60.03 96.76,-107.55 161.3,-140.68c134.6,-69.44 306.25,-69.86 441.31,-0.4c64.43,33.07 118.61,79.94 161.08,139.56c14.77,20.45 10.09,49.62 -11.03,64.32c-20.44,14.23 -49,10.13 -63.9,-11.09c-34.15,-47.78 -77.22,-85.12 -128.16,-111.15c-109.01,-55.84 -249.06,-55.82 -357.6,0.35c-51.09,26.3 -94.07,63.82 -128.18,111.32c-8.86,14.25 -23.96,20.04 -37.21,20.04zM711.42,859.43c-52.58,0 -100.36,-13.29 -140.08,-40.52c-67.08,-45.5 -107.64,-119.74 -107.64,-199.1c0,-25.49 20.37,-45.86 45.86,-45.86c25.49,0 45.86,20.37 45.86,45.86c0,48.29 24.67,94.38 67.32,123.06c23.83,16.11 52.31,24.42 88.67,24.42c8.12,0 22.8,-1.06 37.64,-3.66c25.16,-4.57 48.73,12.34 53.21,37.25c4.6,25.13 -12.23,48.69 -37.1,53.24c-25.22,4.85 -47.19,5.3 -53.75,5.3zM747.5,232.38c-7.22,0 -14.66,-1.74 -21.43,-5.48c-74.34,-38.28 -137.54,-54.11 -213.65,-54.11c-76.09,0 -148.04,18.03 -213.44,53.99c-22.49,12.19 -49.72,3.43 -62.01,-17.64c-0.13,-0.23 -0.26,-0.46 -0.39,-0.7c-11.91,-21.98 -3.92,-50.17 18.41,-62.27c79.16,-42.98 166.04,-65.11 257.43,-65.11c90.74,0 170.12,20.18 256.13,64.46c22.55,11.73 31.38,39.34 19.51,61.73c-7.98,15.62 -23.55,25.13 -40.55,25.13zM649,901.93c2.84,-10.54 -3.24,-21.88 -14.18,-24.72c-57.15,-15.81 -94.04,-36.89 -132.54,-74.99c-49.05,-48.64 -75.8,-113.49 -75.8,-182.8c0,-43.37 37.7,-78.64 84.31,-78.64c46.62,0 84.31,35.27 84.31,78.64c0,65.66 55.94,119.17 124.84,119.17c68.9,0 124.84,-53.5 124.84,-119.17c0,-175.1 -149.98,-317.38 -334.4,-317.38c-130.92,0 -250.49,73.36 -304.4,186.45c-18.24,38.5 -27.57,82.69 -27.57,131.33c0,54.72 9.73,107.42 29.59,160.51c3.65,10.14 15.41,15.82 25.94,11.76c10.54,-3.65 15.81,-15.41 11.75,-25.94c-24.32,-64.86 -27.16,-114.71 -27.16,-146.33c0,-42.15 8.11,-80.65 23.92,-113.49c47.42,-99.3 152.81,-163.35 267.92,-163.35c162.14,0 293.87,124.03 293.87,276.84c0,43.37 -37.7,78.64 -84.31,78.64c-46.62,0 -84.31,-35.27 -84.31,-78.64c0,-65.66 -55.94,-119.17 -124.84,-119.17c-68.9,0 -124.84,53.5 -124.84,119.17c0,80.26 31.21,155.24 87.95,211.58c44.18,43.37 86.34,67.29 150.78,85.12c1.62,0.41 3.65,0.82 5.27,0.82c8.51,0 17.02,-6.09 19.05,-15.41zM435.8,902.74c7.7,-8.1 7.7,-20.68 0,-28.78c-31.21,-31.62 -49.05,-51.47 -74.99,-98.09c-24.73,-43.78 -37.7,-97.69 -37.7,-156.06c0,-98.09 84.72,-177.94 188.89,-177.94c104.17,0 188.89,79.85 188.89,177.94c0,11.35 8.91,20.27 20.26,20.27c11.35,0 20.26,-8.92 20.26,-20.27c0,-120.38 -102.95,-218.47 -229.42,-218.47c-126.46,0 -229.42,98.09 -229.42,218.47c0,65.26 14.59,126.06 42.56,175.92c27.16,49.05 46.21,71.74 81.47,107.01c3.65,4.06 8.91,6.08 14.18,6.08c5.27,0 10.55,-2.02 15,-6.08zM183.27,411.07c36.48,-51.07 82.69,-91.6 137.82,-119.98c115.93,-59.99 264.69,-59.99 381.02,-0.41c54.72,27.97 100.93,68.1 137.41,119.17c6.49,9.32 19.05,11.35 28.37,4.86c9.32,-6.49 11.35,-19.46 4.86,-28.38c-40.13,-56.34 -91.2,-100.52 -152,-131.73c-127.68,-65.66 -290.62,-65.27 -417.9,0.4c-60.8,31.21 -111.87,75.8 -152,132.54c-6.49,9.32 -4.46,21.89 4.86,28.38c3.65,2.43 7.7,3.65 11.75,3.65c6.49,0 12.57,-2.84 15.81,-8.51zM760.47,828.97c11.35,-2.02 18.64,-12.56 16.62,-23.5c-2.02,-11.35 -12.57,-18.65 -23.51,-16.62c-16.22,2.84 -32.42,4.06 -42.15,4.06c-40.54,0 -74.18,-9.32 -102.95,-28.78c-49.45,-33.24 -78.64,-87.15 -78.64,-144.3c0,-11.35 -8.91,-20.26 -20.26,-20.26c-11.35,0 -20.26,8.91 -20.26,20.26c0,70.53 36.07,137.01 96.46,177.94c34.86,23.91 77.42,36.07 125.66,36.07c5.67,0 25.94,-0.41 49.05,-4.86zM765.34,195.43c5.27,-9.73 1.62,-21.88 -8.51,-27.15c-82.69,-42.56 -158.08,-61.62 -244.42,-61.62c-87.14,0 -169.84,21.08 -245.23,62.02c-9.73,5.27 -13.38,17.84 -8.1,27.57c5.67,9.73 17.83,13.38 27.56,8.1c69.31,-38.1 145.52,-57.15 225.78,-57.15c80.66,0 147.94,17.02 225.77,57.15c2.84,1.62 6.08,2.43 9.32,2.43c7.3,0 14.19,-4.06 17.84,-11.35z" fill="url(#color-G3H4N8MN)"/>
		</mask>
	</defs>
	<g fill="none" fill-rule="nonzero" style="mix-blend-mode: normal">
		<g mask="url(#mask-J1vuMGvq)">
			<g color="#ff0000" class="teamapps-color-2">
				<rect x="121.52" y="81.06" width="780.6" height="861.87" fill="currentColor"/>
			</g>
			<g color="#bc13e0" class="teamapps-color-3" mask="url(#mask-2T2V0al7)">
				<rect x="121.52" y="81.06" width="780.6" height="861.87" fill="currentColor"/>
			</g>
		</g>
		<g filter="url(#filter-0JjauFja)" mask="url(#mask-s3hj4G1z)">
			<g color="#fff961" class="teamapps-color-1">
				<rect x="121.52" y="81.06" width="780.6" height="861.87" fill="currentColor"/>
			</g>
		</g>
	</g>
</svg>