<svg version="1.1" xmlns="http://www.w3.org/2000/svg" xmlns:xlink="http://www.w3.org/1999/xlink" viewBox="0,0,1024,1024">
	<!-- Color names: teamapps-color-1, teamapps-color-2, teamapps-color-3 -->
	<desc>flip_to_back icon - Licensed under Apache License v2.0 (http://www.apache.org/licenses/LICENSE-2.0) - Created with Iconfu.com - Derivative work of Material icons (Copyright Google Inc.)</desc>
	<defs>
		<radialGradient cx="0" cy="0" r="1448.15" id="color-3ZnvHm1P" gradientUnits="userSpaceOnUse">
			<stop offset="0.08" stop-color="#ffffff"/>
			<stop offset="1" stop-color="#000000"/>
		</radialGradient>
		<linearGradient x1="0" y1="1024" x2="1024" y2="0" id="color-fM8YDyFU" gradientUnits="userSpaceOnUse">
			<stop offset="0.2" stop-color="#000000"/>
			<stop offset="0.8" stop-color="#ffffff"/>
		</linearGradient>
		<filter id="filter-jFucwTQM" color-interpolation-filters="sRGB">
			<feOffset/>
		</filter>
		<mask id="mask-ckoCxVxe">
			<rect fill="url(#color-fM8YDyFU)" x="121.6" y="121.6" width="780.8" height="780.8"/>
		</mask>
		<mask id="mask-i5KQA7Lg">
			<path d="M714.66,770.14c14.14,0 25.6,11.46 25.6,25.6v81.06c0,14.14 -11.46,25.6 -25.6,25.6h-486.4c-59.22,0 -106.66,-48.03 -106.66,-106.66v-486.4c0,-14.14 11.46,-25.6 25.6,-25.6h81.06c14.14,0 25.6,11.46 25.6,25.6v460.8zM552.54,253.86h-81.07c-14.14,0 -25.6,-11.46 -25.6,-25.6v-81.06c0,-14.14 11.46,-25.6 25.6,-25.6h81.07c14.14,0 25.6,11.46 25.6,25.6v81.06c0,14.14 -11.46,25.6 -25.6,25.6zM390.4,578.14h-81.06c-14.14,0 -25.6,-11.46 -25.6,-25.6v-81.07c0,-14.14 11.46,-25.6 25.6,-25.6h81.06c14.14,0 25.6,11.46 25.6,25.6v81.07c0,14.14 -11.46,25.6 -25.6,25.6zM552.54,740.26h-81.07c-14.14,0 -25.6,-11.46 -25.6,-25.6v-81.06c0,-14.14 11.46,-25.6 25.6,-25.6h81.07c14.14,0 25.6,11.46 25.6,25.6v81.06c0,14.14 -11.46,25.6 -25.6,25.6zM795.74,445.86h81.06c14.14,0 25.6,11.46 25.6,25.6v81.07c0,14.14 -11.46,25.6 -25.6,25.6h-81.06c-14.14,0 -25.6,-11.46 -25.6,-25.6v-81.07c0,-14.14 11.46,-25.6 25.6,-25.6zM390.4,253.86h-81.06c-14.14,0 -25.6,-11.46 -25.6,-25.6c0,-58.64 47.45,-106.66 106.66,-106.66c14.14,0 25.6,11.46 25.6,25.6v81.06c0,14.14 -11.46,25.6 -25.6,25.6zM876.8,253.86h-81.06c-14.14,0 -25.6,-11.46 -25.6,-25.6v-81.06c0,-14.14 11.46,-25.6 25.6,-25.6c58.72,0 106.66,47.94 106.66,106.66c0,14.14 -11.46,25.6 -25.6,25.6zM390.4,416h-81.06c-14.14,0 -25.6,-11.46 -25.6,-25.6v-81.06c0,-14.14 11.46,-25.6 25.6,-25.6h81.06c14.14,0 25.6,11.46 25.6,25.6v81.06c0,14.14 -11.46,25.6 -25.6,25.6zM795.74,283.74h81.06c14.14,0 25.6,11.46 25.6,25.6v81.06c0,14.14 -11.46,25.6 -25.6,25.6h-81.06c-14.14,0 -25.6,-11.46 -25.6,-25.6v-81.06c0,-14.14 11.46,-25.6 25.6,-25.6zM309.34,608h81.06c14.14,0 25.6,11.46 25.6,25.6v81.06c0,14.14 -11.46,25.6 -25.6,25.6c-59.22,0 -106.66,-48.03 -106.66,-106.66c0,-14.14 11.46,-25.6 25.6,-25.6zM795.74,608h81.06c14.14,0 25.6,11.46 25.6,25.6c0,58.72 -47.94,106.66 -106.66,106.66c-14.14,0 -25.6,-11.46 -25.6,-25.6v-81.06c0,-14.14 11.46,-25.6 25.6,-25.6zM633.6,121.6h81.06c14.14,0 25.6,11.46 25.6,25.6v81.06c0,14.14 -11.46,25.6 -25.6,25.6h-81.06c-14.14,0 -25.6,-11.46 -25.6,-25.6v-81.06c0,-14.14 11.46,-25.6 25.6,-25.6zM633.6,608h81.06c14.14,0 25.6,11.46 25.6,25.6v81.06c0,14.14 -11.46,25.6 -25.6,25.6h-81.06c-14.14,0 -25.6,-11.46 -25.6,-25.6v-81.06c0,-14.14 11.46,-25.6 25.6,-25.6zM228.26,309.34h-81.06v486.4c0,44.58 36.07,81.06 81.06,81.06h486.4v-81.06h-486.4zM390.4,309.34h-81.06v81.06h81.06zM795.74,390.4h81.06v-81.06h-81.06zM390.4,471.46h-81.06v81.07h81.06zM390.4,147.2c-44.99,0 -81.06,36.48 -81.06,81.06h81.06zM795.74,147.2v81.06h81.06c0,-44.58 -36.48,-81.06 -81.06,-81.06zM795.74,552.54h81.06v-81.07h-81.06zM552.54,147.2h-81.07v81.06h81.07zM390.4,714.66v-81.06h-81.06c0,44.58 36.07,81.06 81.06,81.06zM795.74,714.66c44.58,0 81.06,-36.48 81.06,-81.06h-81.06zM552.54,633.6h-81.07v81.06h81.07zM633.6,228.26h81.06v-81.06h-81.06zM633.6,714.66h81.06v-81.06h-81.06z" fill="#ffffff"/>
		</mask>
		<mask id="mask-tzwIMfRH">
			<path d="M714.66,770.14c14.14,0 25.6,11.46 25.6,25.6v81.06c0,14.14 -11.46,25.6 -25.6,25.6h-486.4c-59.22,0 -106.66,-48.03 -106.66,-106.66v-486.4c0,-14.14 11.46,-25.6 25.6,-25.6h81.06c14.14,0 25.6,11.46 25.6,25.6v460.8zM552.54,253.86h-81.07c-14.14,0 -25.6,-11.46 -25.6,-25.6v-81.06c0,-14.14 11.46,-25.6 25.6,-25.6h81.07c14.14,0 25.6,11.46 25.6,25.6v81.06c0,14.14 -11.46,25.6 -25.6,25.6zM390.4,578.14h-81.06c-14.14,0 -25.6,-11.46 -25.6,-25.6v-81.07c0,-14.14 11.46,-25.6 25.6,-25.6h81.06c14.14,0 25.6,11.46 25.6,25.6v81.07c0,14.14 -11.46,25.6 -25.6,25.6zM552.54,740.26h-81.07c-14.14,0 -25.6,-11.46 -25.6,-25.6v-81.06c0,-14.14 11.46,-25.6 25.6,-25.6h81.07c14.14,0 25.6,11.46 25.6,25.6v81.06c0,14.14 -11.46,25.6 -25.6,25.6zM795.74,445.86h81.06c14.14,0 25.6,11.46 25.6,25.6v81.07c0,14.14 -11.46,25.6 -25.6,25.6h-81.06c-14.14,0 -25.6,-11.46 -25.6,-25.6v-81.07c0,-14.14 11.46,-25.6 25.6,-25.6zM390.4,253.86h-81.06c-14.14,0 -25.6,-11.46 -25.6,-25.6c0,-58.64 47.45,-106.66 106.66,-106.66c14.14,0 25.6,11.46 25.6,25.6v81.06c0,14.14 -11.46,25.6 -25.6,25.6zM876.8,253.86h-81.06c-14.14,0 -25.6,-11.46 -25.6,-25.6v-81.06c0,-14.14 11.46,-25.6 25.6,-25.6c58.72,0 106.66,47.94 106.66,106.66c0,14.14 -11.46,25.6 -25.6,25.6zM390.4,416h-81.06c-14.14,0 -25.6,-11.46 -25.6,-25.6v-81.06c0,-14.14 11.46,-25.6 25.6,-25.6h81.06c14.14,0 25.6,11.46 25.6,25.6v81.06c0,14.14 -11.46,25.6 -25.6,25.6zM795.74,283.74h81.06c14.14,0 25.6,11.46 25.6,25.6v81.06c0,14.14 -11.46,25.6 -25.6,25.6h-81.06c-14.14,0 -25.6,-11.46 -25.6,-25.6v-81.06c0,-14.14 11.46,-25.6 25.6,-25.6zM309.34,608h81.06c14.14,0 25.6,11.46 25.6,25.6v81.06c0,14.14 -11.46,25.6 -25.6,25.6c-59.22,0 -106.66,-48.03 -106.66,-106.66c0,-14.14 11.46,-25.6 25.6,-25.6zM795.74,608h81.06c14.14,0 25.6,11.46 25.6,25.6c0,58.72 -47.94,106.66 -106.66,106.66c-14.14,0 -25.6,-11.46 -25.6,-25.6v-81.06c0,-14.14 11.46,-25.6 25.6,-25.6zM633.6,121.6h81.06c14.14,0 25.6,11.46 25.6,25.6v81.06c0,14.14 -11.46,25.6 -25.6,25.6h-81.06c-14.14,0 -25.6,-11.46 -25.6,-25.6v-81.06c0,-14.14 11.46,-25.6 25.6,-25.6zM633.6,608h81.06c14.14,0 25.6,11.46 25.6,25.6v81.06c0,14.14 -11.46,25.6 -25.6,25.6h-81.06c-14.14,0 -25.6,-11.46 -25.6,-25.6v-81.06c0,-14.14 11.46,-25.6 25.6,-25.6zM228.26,309.34h-81.06v486.4c0,44.58 36.07,81.06 81.06,81.06h486.4v-81.06h-486.4zM390.4,309.34h-81.06v81.06h81.06zM795.74,390.4h81.06v-81.06h-81.06zM390.4,471.46h-81.06v81.07h81.06zM390.4,147.2c-44.99,0 -81.06,36.48 -81.06,81.06h81.06zM795.74,147.2v81.06h81.06c0,-44.58 -36.48,-81.06 -81.06,-81.06zM795.74,552.54h81.06v-81.07h-81.06zM552.54,147.2h-81.07v81.06h81.07zM390.4,714.66v-81.06h-81.06c0,44.58 36.07,81.06 81.06,81.06zM795.74,714.66c44.58,0 81.06,-36.48 81.06,-81.06h-81.06zM552.54,633.6h-81.07v81.06h81.07zM633.6,228.26h81.06v-81.06h-81.06zM633.6,714.66h81.06v-81.06h-81.06z" fill="url(#color-3ZnvHm1P)"/>
		</mask>
	</defs>
	<g fill="none" fill-rule="nonzero" style="mix-blend-mode: normal">
		<g mask="url(#mask-i5KQA7Lg)">
			<g color="#ff0000" class="teamapps-color-2">
				<rect x="121.6" y="121.6" width="780.8" height="780.8" fill="currentColor"/>
			</g>
			<g color="#bc13e0" class="teamapps-color-3" mask="url(#mask-ckoCxVxe)">
				<rect x="121.6" y="121.6" width="780.8" height="780.8" fill="currentColor"/>
			</g>
		</g>
		<g filter="url(#filter-jFucwTQM)" mask="url(#mask-tzwIMfRH)">
			<g color="#fff961" class="teamapps-color-1">
				<rect x="121.6" y="121.6" width="780.8" height="780.8" fill="currentColor"/>
			</g>
		</g>
	</g>
</svg>