<svg version="1.1" xmlns="http://www.w3.org/2000/svg" xmlns:xlink="http://www.w3.org/1999/xlink" viewBox="0,0,1024,1024">
	<!-- Color names: teamapps-color-1, teamapps-color-2, teamapps-color-3 -->
	<desc>format_align_center icon - Licensed under Apache License v2.0 (http://www.apache.org/licenses/LICENSE-2.0) - Created with Iconfu.com - Derivative work of Material icons (Copyright Google Inc.)</desc>
	<defs>
		<radialGradient cx="0" cy="0" r="1448.15" id="color-ATqyCvq4" gradientUnits="userSpaceOnUse">
			<stop offset="0.08" stop-color="#ffffff"/>
			<stop offset="1" stop-color="#000000"/>
		</radialGradient>
		<linearGradient x1="0" y1="1024" x2="1024" y2="0" id="color-DsYTaTBj" gradientUnits="userSpaceOnUse">
			<stop offset="0.2" stop-color="#000000"/>
			<stop offset="0.8" stop-color="#ffffff"/>
		</linearGradient>
		<filter id="filter-dxzprgdQ" color-interpolation-filters="sRGB">
			<feOffset/>
		</filter>
		<mask id="mask-Av8q6oVJ">
			<rect fill="url(#color-DsYTaTBj)" x="121.6" y="121.6" width="780.8" height="780.8"/>
		</mask>
		<mask id="mask-jwvLclss">
			<path d="M147.2,445.86h729.6c14.14,0 25.6,11.46 25.6,25.6v81.07c0,14.14 -11.46,25.6 -25.6,25.6h-729.6c-14.14,0 -25.6,-11.46 -25.6,-25.6v-81.07c0,-14.14 11.46,-25.6 25.6,-25.6zM902.4,147.2v81.06c0,14.14 -11.46,25.6 -25.6,25.6h-729.6c-14.14,0 -25.6,-11.46 -25.6,-25.6v-81.06c0,-14.14 11.46,-25.6 25.6,-25.6h729.6c14.14,0 25.6,11.46 25.6,25.6zM147.2,770.14h729.6c14.14,0 25.6,11.46 25.6,25.6v81.06c0,14.14 -11.46,25.6 -25.6,25.6h-729.6c-14.14,0 -25.6,-11.46 -25.6,-25.6v-81.06c0,-14.14 11.46,-25.6 25.6,-25.6zM740.26,309.34v81.06c0,14.14 -11.46,25.6 -25.6,25.6h-405.33c-14.14,0 -25.6,-11.46 -25.6,-25.6v-81.06c0,-14.14 11.46,-25.6 25.6,-25.6h405.33c14.14,0 25.6,11.46 25.6,25.6zM740.26,633.6v81.06c0,14.14 -11.46,25.6 -25.6,25.6h-405.33c-14.14,0 -25.6,-11.46 -25.6,-25.6v-81.06c0,-14.14 11.46,-25.6 25.6,-25.6h405.33c14.14,0 25.6,11.46 25.6,25.6zM147.2,876.8h729.6v-81.06h-729.6zM147.2,552.54h729.6v-81.07h-729.6zM147.2,147.2v81.06h729.6v-81.06zM309.34,309.34v81.06h405.33v-81.06zM309.34,633.6v81.06h405.33v-81.06z" fill="#ffffff"/>
		</mask>
		<mask id="mask-NSmNWp7N">
			<path d="M147.2,445.86h729.6c14.14,0 25.6,11.46 25.6,25.6v81.07c0,14.14 -11.46,25.6 -25.6,25.6h-729.6c-14.14,0 -25.6,-11.46 -25.6,-25.6v-81.07c0,-14.14 11.46,-25.6 25.6,-25.6zM902.4,147.2v81.06c0,14.14 -11.46,25.6 -25.6,25.6h-729.6c-14.14,0 -25.6,-11.46 -25.6,-25.6v-81.06c0,-14.14 11.46,-25.6 25.6,-25.6h729.6c14.14,0 25.6,11.46 25.6,25.6zM147.2,770.14h729.6c14.14,0 25.6,11.46 25.6,25.6v81.06c0,14.14 -11.46,25.6 -25.6,25.6h-729.6c-14.14,0 -25.6,-11.46 -25.6,-25.6v-81.06c0,-14.14 11.46,-25.6 25.6,-25.6zM740.26,309.34v81.06c0,14.14 -11.46,25.6 -25.6,25.6h-405.33c-14.14,0 -25.6,-11.46 -25.6,-25.6v-81.06c0,-14.14 11.46,-25.6 25.6,-25.6h405.33c14.14,0 25.6,11.46 25.6,25.6zM740.26,633.6v81.06c0,14.14 -11.46,25.6 -25.6,25.6h-405.33c-14.14,0 -25.6,-11.46 -25.6,-25.6v-81.06c0,-14.14 11.46,-25.6 25.6,-25.6h405.33c14.14,0 25.6,11.46 25.6,25.6zM147.2,876.8h729.6v-81.06h-729.6zM147.2,552.54h729.6v-81.07h-729.6zM147.2,147.2v81.06h729.6v-81.06zM309.34,309.34v81.06h405.33v-81.06zM309.34,633.6v81.06h405.33v-81.06z" fill="url(#color-ATqyCvq4)"/>
		</mask>
	</defs>
	<g fill="none" fill-rule="nonzero" style="mix-blend-mode: normal">
		<g mask="url(#mask-jwvLclss)">
			<g color="#ff0000" class="teamapps-color-2">
				<rect x="121.6" y="121.6" width="780.8" height="780.8" fill="currentColor"/>
			</g>
			<g color="#bc13e0" class="teamapps-color-3" mask="url(#mask-Av8q6oVJ)">
				<rect x="121.6" y="121.6" width="780.8" height="780.8" fill="currentColor"/>
			</g>
		</g>
		<g filter="url(#filter-dxzprgdQ)" mask="url(#mask-NSmNWp7N)">
			<g color="#fff961" class="teamapps-color-1">
				<rect x="121.6" y="121.6" width="780.8" height="780.8" fill="currentColor"/>
			</g>
		</g>
	</g>
</svg>