<svg version="1.1" xmlns="http://www.w3.org/2000/svg" xmlns:xlink="http://www.w3.org/1999/xlink" viewBox="0,0,1024,1024">
	<!-- Color names: teamapps-color-1, teamapps-color-2, teamapps-color-3 -->
	<desc>format_list_bulleted icon - Licensed under Apache License v2.0 (http://www.apache.org/licenses/LICENSE-2.0) - Created with Iconfu.com - Derivative work of Material icons (Copyright Google Inc.)</desc>
	<defs>
		<linearGradient x1="0" y1="1024" x2="1024" y2="0" id="color-EOO3BMDV" gradientUnits="userSpaceOnUse">
			<stop offset="0.2" stop-color="#000000"/>
			<stop offset="0.8" stop-color="#ffffff"/>
		</linearGradient>
		<radialGradient cx="0" cy="0" r="1448.15" id="color-oHPRDj7Y" gradientUnits="userSpaceOnUse">
			<stop offset="0.08" stop-color="#ffffff"/>
			<stop offset="1" stop-color="#000000"/>
		</radialGradient>
		<filter id="filter-Ve0LiSnM" color-interpolation-filters="sRGB">
			<feOffset/>
		</filter>
		<mask id="mask-a1B9w2Zh">
			<path d="M309.34,689.06h567.46c14.14,0 25.6,11.46 25.6,25.6v81.07c0,14.14 -11.46,25.6 -25.6,25.6h-567.46c-14.14,0 -25.6,-11.46 -25.6,-25.6v-81.07c0,-14.14 11.46,-25.6 25.6,-25.6zM902.4,228.26v81.07c0,14.14 -11.46,25.6 -25.6,25.6h-567.46c-14.14,0 -25.6,-11.46 -25.6,-25.6v-81.07c0,-14.14 11.46,-25.6 25.6,-25.6h567.46c14.14,0 25.6,11.46 25.6,25.6zM309.34,445.86h567.46c14.14,0 25.6,11.46 25.6,25.6v81.07c0,14.14 -11.46,25.6 -25.6,25.6h-567.46c-14.14,0 -25.6,-11.46 -25.6,-25.6v-81.07c0,-14.14 11.46,-25.6 25.6,-25.6zM274.14,268.8c0,47.78 -38.62,86.4 -86.4,86.4c-47.78,0 -86.4,-38.62 -86.4,-86.4c0,-47.78 38.62,-86.4 86.4,-86.4c47.78,0 86.4,38.62 86.4,86.4zM274.14,755.2c0,47.38 -39.02,86.4 -86.4,86.4c-47.38,0 -86.4,-39.02 -86.4,-86.4c0,-47.27 38.51,-86.4 86.4,-86.4c47.89,0 86.4,39.13 86.4,86.4zM274.14,512c0,47.78 -38.62,86.4 -86.4,86.4c-47.78,0 -86.4,-38.62 -86.4,-86.4c0,-47.78 38.62,-86.4 86.4,-86.4c47.78,0 86.4,38.62 86.4,86.4zM309.34,795.74h567.46v-81.07h-567.46zM309.34,552.54h567.46v-81.07h-567.46zM309.34,228.26v81.07h567.46v-81.07zM187.74,451.2c-33.64,0 -60.8,27.16 -60.8,60.8c0,33.64 27.16,60.8 60.8,60.8c33.64,0 60.8,-27.16 60.8,-60.8c0,-33.64 -27.16,-60.8 -60.8,-60.8zM187.74,208c-33.64,0 -60.8,27.16 -60.8,60.8c0,33.64 27.16,60.8 60.8,60.8c33.64,0 60.8,-27.16 60.8,-60.8c0,-33.64 -27.16,-60.8 -60.8,-60.8zM187.74,694.4c-33.64,0 -60.8,27.56 -60.8,60.8c0,33.24 27.56,60.8 60.8,60.8c33.24,0 60.8,-27.56 60.8,-60.8c0,-33.24 -27.16,-60.8 -60.8,-60.8z" fill="#ffffff"/>
		</mask>
		<mask id="mask-AMP6gCGR">
			<rect fill="url(#color-EOO3BMDV)" x="101.34" y="182.4" width="801.06" height="659.2"/>
		</mask>
		<mask id="mask-oexXCxhm">
			<path d="M309.34,689.06h567.46c14.14,0 25.6,11.46 25.6,25.6v81.07c0,14.14 -11.46,25.6 -25.6,25.6h-567.46c-14.14,0 -25.6,-11.46 -25.6,-25.6v-81.07c0,-14.14 11.46,-25.6 25.6,-25.6zM902.4,228.26v81.07c0,14.14 -11.46,25.6 -25.6,25.6h-567.46c-14.14,0 -25.6,-11.46 -25.6,-25.6v-81.07c0,-14.14 11.46,-25.6 25.6,-25.6h567.46c14.14,0 25.6,11.46 25.6,25.6zM309.34,445.86h567.46c14.14,0 25.6,11.46 25.6,25.6v81.07c0,14.14 -11.46,25.6 -25.6,25.6h-567.46c-14.14,0 -25.6,-11.46 -25.6,-25.6v-81.07c0,-14.14 11.46,-25.6 25.6,-25.6zM274.14,268.8c0,47.78 -38.62,86.4 -86.4,86.4c-47.78,0 -86.4,-38.62 -86.4,-86.4c0,-47.78 38.62,-86.4 86.4,-86.4c47.78,0 86.4,38.62 86.4,86.4zM274.14,755.2c0,47.38 -39.02,86.4 -86.4,86.4c-47.38,0 -86.4,-39.02 -86.4,-86.4c0,-47.27 38.51,-86.4 86.4,-86.4c47.89,0 86.4,39.13 86.4,86.4zM274.14,512c0,47.78 -38.62,86.4 -86.4,86.4c-47.78,0 -86.4,-38.62 -86.4,-86.4c0,-47.78 38.62,-86.4 86.4,-86.4c47.78,0 86.4,38.62 86.4,86.4zM309.34,795.74h567.46v-81.07h-567.46zM309.34,552.54h567.46v-81.07h-567.46zM309.34,228.26v81.07h567.46v-81.07zM187.74,451.2c-33.64,0 -60.8,27.16 -60.8,60.8c0,33.64 27.16,60.8 60.8,60.8c33.64,0 60.8,-27.16 60.8,-60.8c0,-33.64 -27.16,-60.8 -60.8,-60.8zM187.74,208c-33.64,0 -60.8,27.16 -60.8,60.8c0,33.64 27.16,60.8 60.8,60.8c33.64,0 60.8,-27.16 60.8,-60.8c0,-33.64 -27.16,-60.8 -60.8,-60.8zM187.74,694.4c-33.64,0 -60.8,27.56 -60.8,60.8c0,33.24 27.56,60.8 60.8,60.8c33.24,0 60.8,-27.56 60.8,-60.8c0,-33.24 -27.16,-60.8 -60.8,-60.8z" fill="url(#color-oHPRDj7Y)"/>
		</mask>
	</defs>
	<g fill="none" fill-rule="nonzero" style="mix-blend-mode: normal">
		<g mask="url(#mask-a1B9w2Zh)">
			<g color="#ff0000" class="teamapps-color-2">
				<rect x="101.34" y="182.4" width="801.06" height="659.2" fill="currentColor"/>
			</g>
			<g color="#bc13e0" class="teamapps-color-3" mask="url(#mask-AMP6gCGR)">
				<rect x="101.34" y="182.4" width="801.06" height="659.2" fill="currentColor"/>
			</g>
		</g>
		<g filter="url(#filter-Ve0LiSnM)" mask="url(#mask-oexXCxhm)">
			<g color="#fff961" class="teamapps-color-1">
				<rect x="101.34" y="182.4" width="801.06" height="659.2" fill="currentColor"/>
			</g>
		</g>
	</g>
</svg>