<svg version="1.1" xmlns="http://www.w3.org/2000/svg" xmlns:xlink="http://www.w3.org/1999/xlink" viewBox="0,0,1024,1024">
	<!-- Color names: teamapps-color-1, teamapps-color-2, teamapps-color-3 -->
	<desc>format_textdirection_l_to_r icon - Licensed under Apache License v2.0 (http://www.apache.org/licenses/LICENSE-2.0) - Created with Iconfu.com - Derivative work of Material icons (Copyright Google Inc.)</desc>
	<defs>
		<radialGradient cx="0" cy="0" r="1448.15" id="color-IapAw2DQ" gradientUnits="userSpaceOnUse">
			<stop offset="0.08" stop-color="#ffffff"/>
			<stop offset="1" stop-color="#000000"/>
		</radialGradient>
		<linearGradient x1="0" y1="1024" x2="1024" y2="0" id="color-qYJhtauc" gradientUnits="userSpaceOnUse">
			<stop offset="0.2" stop-color="#000000"/>
			<stop offset="0.8" stop-color="#ffffff"/>
		</linearGradient>
		<filter id="filter-BkKjq6Th" color-interpolation-filters="sRGB">
			<feOffset/>
		</filter>
		<mask id="mask-jzPvGCWQ">
			<path d="M202.66,268.8c0,-103.71 84.02,-187.74 187.74,-187.74h324.26c14.14,0 25.6,11.46 25.6,25.6v81.07c0,14.14 -11.46,25.6 -25.6,25.6h-55.46v420.26c0,14.14 -11.46,25.6 -25.6,25.6h-81.06c-14.14,0 -25.6,-11.46 -25.6,-25.6v-420.26h-29.87v420.26c0,14.14 -11.46,25.6 -25.6,25.6h-81.06c-14.14,0 -25.6,-11.46 -25.6,-25.6v-178.79c-91.6,-12.48 -162.14,-90.98 -162.14,-186.01zM689.06,917.34v-96h-460.8c-14.14,0 -25.6,-11.46 -25.6,-25.6v-81.07c0,-14.14 11.46,-25.6 25.6,-25.6h460.8v-96c0,-10.35 6.24,-19.69 15.8,-23.65c9.57,-3.96 20.58,-1.77 27.9,5.55l162.14,162.14c10,10 10,26.21 0,36.2l-162.14,162.14c-7.32,7.32 -18.33,9.51 -27.9,5.55c-9.57,-3.96 -15.8,-13.3 -15.8,-23.65zM390.4,430.94v202.66h81.06v-445.86h81.07v445.86h81.06v-445.86h81.06v-81.07h-324.26c-89.58,0 -162.14,72.56 -162.14,162.14c0,89.58 72.56,162.14 162.14,162.14zM876.8,755.2l-162.14,-162.14v121.6h-486.4v81.07h486.4v121.6z" fill="#ffffff"/>
		</mask>
		<mask id="mask-T79WfZZ3">
			<rect fill="url(#color-qYJhtauc)" x="202.66" y="81.06" width="699.74" height="861.87"/>
		</mask>
		<mask id="mask-U2RZ58FP">
			<path d="M202.66,268.8c0,-103.71 84.02,-187.74 187.74,-187.74h324.26c14.14,0 25.6,11.46 25.6,25.6v81.07c0,14.14 -11.46,25.6 -25.6,25.6h-55.46v420.26c0,14.14 -11.46,25.6 -25.6,25.6h-81.06c-14.14,0 -25.6,-11.46 -25.6,-25.6v-420.26h-29.87v420.26c0,14.14 -11.46,25.6 -25.6,25.6h-81.06c-14.14,0 -25.6,-11.46 -25.6,-25.6v-178.79c-91.6,-12.48 -162.14,-90.98 -162.14,-186.01zM689.06,917.34v-96h-460.8c-14.14,0 -25.6,-11.46 -25.6,-25.6v-81.07c0,-14.14 11.46,-25.6 25.6,-25.6h460.8v-96c0,-10.35 6.24,-19.69 15.8,-23.65c9.57,-3.96 20.58,-1.77 27.9,5.55l162.14,162.14c10,10 10,26.21 0,36.2l-162.14,162.14c-7.32,7.32 -18.33,9.51 -27.9,5.55c-9.57,-3.96 -15.8,-13.3 -15.8,-23.65zM390.4,430.94v202.66h81.06v-445.86h81.07v445.86h81.06v-445.86h81.06v-81.07h-324.26c-89.58,0 -162.14,72.56 -162.14,162.14c0,89.58 72.56,162.14 162.14,162.14zM876.8,755.2l-162.14,-162.14v121.6h-486.4v81.07h486.4v121.6z" fill="url(#color-IapAw2DQ)"/>
		</mask>
	</defs>
	<g fill="none" fill-rule="nonzero" style="mix-blend-mode: normal">
		<g mask="url(#mask-jzPvGCWQ)">
			<g color="#ff0000" class="teamapps-color-2">
				<rect x="202.66" y="81.06" width="699.74" height="861.87" fill="currentColor"/>
			</g>
			<g color="#bc13e0" class="teamapps-color-3" mask="url(#mask-T79WfZZ3)">
				<rect x="202.66" y="81.06" width="699.74" height="861.87" fill="currentColor"/>
			</g>
		</g>
		<g filter="url(#filter-BkKjq6Th)" mask="url(#mask-U2RZ58FP)">
			<g color="#fff961" class="teamapps-color-1">
				<rect x="202.66" y="81.06" width="699.74" height="861.87" fill="currentColor"/>
			</g>
		</g>
	</g>
</svg>