<svg version="1.1" xmlns="http://www.w3.org/2000/svg" xmlns:xlink="http://www.w3.org/1999/xlink" viewBox="0,0,1024,1024">
	<!-- Color names: teamapps-color-1, teamapps-color-2, teamapps-color-3 -->
	<desc>forward_5 icon - Licensed under Apache License v2.0 (http://www.apache.org/licenses/LICENSE-2.0) - Created with Iconfu.com - Derivative work of Material icons (Copyright Google Inc.)</desc>
	<defs>
		<radialGradient cx="0" cy="0" r="1448.15" id="color-4b8Vg2Bw" gradientUnits="userSpaceOnUse">
			<stop offset="0.08" stop-color="#ffffff"/>
			<stop offset="1" stop-color="#000000"/>
		</radialGradient>
		<linearGradient x1="0" y1="1024" x2="1024" y2="0" id="color-eyiZEpbK" gradientUnits="userSpaceOnUse">
			<stop offset="0.2" stop-color="#000000"/>
			<stop offset="0.8" stop-color="#ffffff"/>
		</linearGradient>
		<filter id="filter-o8WJwg1q" color-interpolation-filters="sRGB">
			<feOffset/>
		</filter>
		<mask id="mask-Ei4aZudd">
			<path d="M486.4,66.14c0,-10.35 6.24,-19.69 15.8,-23.65c9.57,-3.96 20.58,-1.77 27.9,5.55l202.66,202.66c10,10 10,26.21 0,36.2l-187.34,187.34h19.27c14.14,0 25.6,11.46 25.6,25.6v28.38c0,12.57 -9.06,23.03 -21.01,25.19c0.46,0.42 0.91,0.85 1.35,1.29c7.72,7.72 13.79,20.6 16.95,26.91c7.14,14.26 6.76,28.31 6.76,35.78c0,3.07 1.58,22.71 -9.47,36.09c-0.1,0.23 -0.21,0.5 -0.34,0.82c-1.77,4.28 -5.31,13.15 -13.89,21.73c-12.01,12.01 -23.45,15.22 -26.92,16.95c-14.25,7.13 -28.28,6.76 -35.78,6.76c-3.06,0 -22.07,1.51 -35.43,-8.95c-0.42,-0.12 -0.97,-0.28 -1.69,-0.48c-3.02,-0.85 -8.83,-2.41 -14.87,-5.44c-17.89,-8.95 -22.16,-24.78 -23.59,-27.65c-6.74,-13.45 -6.76,-22.3 -6.76,-31.72c0,-9.38 5.04,-17.58 12.57,-22.04c-3.33,-4.88 -4.9,-10.8 -4.36,-16.76l8.11,-89.18c1.2,-13.19 12.25,-23.28 25.49,-23.28h19.13l-0.15,-137.79c-107.69,12.78 -192,105.13 -192,216.09c0,119.62 97.98,217.6 217.6,217.6c119.62,0 217.6,-97.98 217.6,-217.6c0,-14.14 11.46,-25.6 25.6,-25.6h81.06c14.14,0 25.6,11.46 25.6,25.6c0,192.48 -157.38,349.86 -349.86,349.86c-192.48,0 -349.86,-157.38 -349.86,-349.86c0,-183.88 143.62,-335.72 324.26,-348.94zM502.35,608.04c1.73,1.86 3.19,3.97 4.32,6.29v-10.55c-1.33,1.61 -2.78,3.03 -4.32,4.26zM187.74,552.54c0,178.34 145.92,324.26 324.26,324.26c178.34,0 324.26,-145.92 324.26,-324.26h-81.06c0,133.76 -109.44,243.2 -243.2,243.2c-133.76,0 -243.2,-109.44 -243.2,-243.2c0,-133.76 109.44,-243.2 243.2,-243.2v162.13l202.66,-202.66l-202.66,-202.66v162.13c-178.34,0 -324.26,145.93 -324.26,324.27zM483.62,589.02c0,0 4.06,0 4.06,-4.06c0,-4.06 0,0 4.06,-4.06c4.06,-4.06 8.1,-4.05 8.1,-4.05h8.1c4.06,0 12.16,4.05 12.16,4.05l8.11,8.11l4.05,8.1v24.32c0,4.06 -4.05,12.16 -4.05,12.16l-8.11,8.1c-4.06,4.06 -8.1,4.06 -12.16,4.06c-8.1,0 -12.15,0 -16.21,-4.06c-4.06,-4.06 -8.11,-8.1 -8.11,-16.21h-32.42c0,8.1 0,12.16 4.06,20.26c4.06,8.1 4.06,12.16 12.16,16.22c8.1,4.06 16.21,4.05 20.26,8.1c4.06,4.06 12.16,4.06 20.26,4.06c8.1,0 16.22,0 24.32,-4.06c8.1,-4.06 12.17,-4.06 20.27,-12.16c8.1,-8.1 8.1,-16.21 12.16,-20.26c4.06,-4.06 4.05,-12.17 4.05,-20.27c0,-8.1 0.01,-16.22 -4.05,-24.32c-4.06,-8.1 -8.1,-16.21 -12.16,-20.26c-4.06,-4.06 -12.16,-8.1 -16.22,-12.16c-4.06,-4.06 -12.16,-4.06 -20.26,-4.06h-8.11c-4.06,0 -8.1,-4.06 -8.1,0c0,4.06 -4.06,0 -4.06,4.06c0,4.06 -4.05,4.06 -4.05,4.06l4.05,-36.48h68.91v-28.38h-97.28l-8.11,89.18z" fill="#ffffff"/>
		</mask>
		<mask id="mask-q3IG6WqD">
			<rect fill="url(#color-eyiZEpbK)" x="162.14" y="40.54" width="699.73" height="861.86"/>
		</mask>
		<mask id="mask-rI3g5ZyV">
			<path d="M486.4,66.14c0,-10.35 6.24,-19.69 15.8,-23.65c9.57,-3.96 20.58,-1.77 27.9,5.55l202.66,202.66c10,10 10,26.21 0,36.2l-187.34,187.34h19.27c14.14,0 25.6,11.46 25.6,25.6v28.38c0,12.57 -9.06,23.03 -21.01,25.19c0.46,0.42 0.91,0.85 1.35,1.29c7.72,7.72 13.79,20.6 16.95,26.91c7.14,14.26 6.76,28.31 6.76,35.78c0,3.07 1.58,22.71 -9.47,36.09c-0.1,0.23 -0.21,0.5 -0.34,0.82c-1.77,4.28 -5.31,13.15 -13.89,21.73c-12.01,12.01 -23.45,15.22 -26.92,16.95c-14.25,7.13 -28.28,6.76 -35.78,6.76c-3.06,0 -22.07,1.51 -35.43,-8.95c-0.42,-0.12 -0.97,-0.28 -1.69,-0.48c-3.02,-0.85 -8.83,-2.41 -14.87,-5.44c-17.89,-8.95 -22.16,-24.78 -23.59,-27.65c-6.74,-13.45 -6.76,-22.3 -6.76,-31.72c0,-9.38 5.04,-17.58 12.57,-22.04c-3.33,-4.88 -4.9,-10.8 -4.36,-16.76l8.11,-89.18c1.2,-13.19 12.25,-23.28 25.49,-23.28h19.13l-0.15,-137.79c-107.69,12.78 -192,105.13 -192,216.09c0,119.62 97.98,217.6 217.6,217.6c119.62,0 217.6,-97.98 217.6,-217.6c0,-14.14 11.46,-25.6 25.6,-25.6h81.06c14.14,0 25.6,11.46 25.6,25.6c0,192.48 -157.38,349.86 -349.86,349.86c-192.48,0 -349.86,-157.38 -349.86,-349.86c0,-183.88 143.62,-335.72 324.26,-348.94zM502.35,608.04c1.73,1.86 3.19,3.97 4.32,6.29v-10.55c-1.33,1.61 -2.78,3.03 -4.32,4.26zM187.74,552.54c0,178.34 145.92,324.26 324.26,324.26c178.34,0 324.26,-145.92 324.26,-324.26h-81.06c0,133.76 -109.44,243.2 -243.2,243.2c-133.76,0 -243.2,-109.44 -243.2,-243.2c0,-133.76 109.44,-243.2 243.2,-243.2v162.13l202.66,-202.66l-202.66,-202.66v162.13c-178.34,0 -324.26,145.93 -324.26,324.27zM483.62,589.02c0,0 4.06,0 4.06,-4.06c0,-4.06 0,0 4.06,-4.06c4.06,-4.06 8.1,-4.05 8.1,-4.05h8.1c4.06,0 12.16,4.05 12.16,4.05l8.11,8.11l4.05,8.1v24.32c0,4.06 -4.05,12.16 -4.05,12.16l-8.11,8.1c-4.06,4.06 -8.1,4.06 -12.16,4.06c-8.1,0 -12.15,0 -16.21,-4.06c-4.06,-4.06 -8.11,-8.1 -8.11,-16.21h-32.42c0,8.1 0,12.16 4.06,20.26c4.06,8.1 4.06,12.16 12.16,16.22c8.1,4.06 16.21,4.05 20.26,8.1c4.06,4.06 12.16,4.06 20.26,4.06c8.1,0 16.22,0 24.32,-4.06c8.1,-4.06 12.17,-4.06 20.27,-12.16c8.1,-8.1 8.1,-16.21 12.16,-20.26c4.06,-4.06 4.05,-12.17 4.05,-20.27c0,-8.1 0.01,-16.22 -4.05,-24.32c-4.06,-8.1 -8.1,-16.21 -12.16,-20.26c-4.06,-4.06 -12.16,-8.1 -16.22,-12.16c-4.06,-4.06 -12.16,-4.06 -20.26,-4.06h-8.11c-4.06,0 -8.1,-4.06 -8.1,0c0,4.06 -4.06,0 -4.06,4.06c0,4.06 -4.05,4.06 -4.05,4.06l4.05,-36.48h68.91v-28.38h-97.28l-8.11,89.18z" fill="url(#color-4b8Vg2Bw)"/>
		</mask>
	</defs>
	<g fill="none" fill-rule="nonzero" style="mix-blend-mode: normal">
		<g mask="url(#mask-Ei4aZudd)">
			<g color="#ff0000" class="teamapps-color-2">
				<rect x="162.14" y="40.54" width="699.73" height="861.86" fill="currentColor"/>
			</g>
			<g color="#bc13e0" class="teamapps-color-3" mask="url(#mask-q3IG6WqD)">
				<rect x="162.14" y="40.54" width="699.73" height="861.86" fill="currentColor"/>
			</g>
		</g>
		<g filter="url(#filter-o8WJwg1q)" mask="url(#mask-rI3g5ZyV)">
			<g color="#fff961" class="teamapps-color-1">
				<rect x="162.14" y="40.54" width="699.73" height="861.86" fill="currentColor"/>
			</g>
		</g>
	</g>
</svg>