<svg version="1.1" xmlns="http://www.w3.org/2000/svg" xmlns:xlink="http://www.w3.org/1999/xlink" viewBox="0,0,1024,1024">
	<!-- Color names: teamapps-color-1, teamapps-color-2, teamapps-color-3 -->
	<desc>grid_off icon - Licensed under Apache License v2.0 (http://www.apache.org/licenses/LICENSE-2.0) - Created with Iconfu.com - Derivative work of Material icons (Copyright Google Inc.)</desc>
	<defs>
		<radialGradient cx="0" cy="0" r="1448.15" id="color-j4yUyQXM" gradientUnits="userSpaceOnUse">
			<stop offset="0.08" stop-color="#ffffff"/>
			<stop offset="1" stop-color="#000000"/>
		</radialGradient>
		<linearGradient x1="0" y1="1024" x2="1024" y2="0" id="color-nLY8sXUn" gradientUnits="userSpaceOnUse">
			<stop offset="0.2" stop-color="#000000"/>
			<stop offset="0.8" stop-color="#ffffff"/>
		</linearGradient>
		<filter id="filter-c14pnQSa" color-interpolation-filters="sRGB">
			<feOffset/>
		</filter>
		<mask id="mask-Kvfnljna">
			<rect fill="url(#color-nLY8sXUn)" x="0" y="51.48" width="972.52" height="972.52"/>
		</mask>
		<mask id="mask-szwuamWd">
			<path d="M965.02,965.02l-51.47,51.48c-10,10 -26.21,10 -36.2,0l-73.58,-73.57h-616.04c-58.72,0 -106.67,-47.95 -106.67,-106.67v-615.64l-73.57,-73.57c-9.97,-9.97 -10,-26.13 -0.07,-36.13l51.48,-51.88c9.99,-10.06 26.25,-10.09 36.27,-0.07l869.84,869.84c10,10 10,26.2 0,36.2zM272.99,205.84l-81.07,-81.07c-7.32,-7.32 -9.51,-18.33 -5.55,-27.9c3.96,-9.57 13.3,-15.8 23.65,-15.8h626.24c58.72,0 106.67,47.95 106.67,106.67v626.24c0,10.35 -6.24,19.69 -15.8,23.65c-9.57,3.96 -20.58,1.77 -27.9,-5.55l-81.07,-81.07c-4.8,-4.8 -7.5,-11.31 -7.5,-18.1v-33.17h-33.17c-6.79,0 -13.3,-2.7 -18.1,-7.5l-81.07,-81.07c-4.13,-4.13 -6.62,-9.43 -7.31,-14.98c-5.55,-0.68 -10.85,-3.18 -14.98,-7.31l-81.07,-81.07c-4.8,-4.8 -7.5,-11.31 -7.5,-18.1v-33.17h-33.17c-6.79,0 -13.3,-2.7 -18.1,-7.5l-81.07,-81.07c-4.13,-4.13 -6.62,-9.43 -7.31,-14.98c-5.55,-0.68 -10.85,-3.18 -14.98,-7.31l-81.07,-81.07c-4.8,-4.8 -7.5,-11.31 -7.5,-18.1v-33.17h-33.17c-6.79,0 -13.3,-2.7 -18.1,-7.5zM699.74,456.54v110.93h110.93v-110.93zM456.54,213.34v110.93h110.93v-110.93zM560.31,699.74h-103.77v110.93h110.93v-103.9zM316.97,456.54h-103.64v110.93h110.93v-103.64zM324.26,699.74h-110.93v110.93h110.93zM699.74,324.26h110.93v-110.93h-110.93zM77.08,77.08l-51.48,51.88l81.06,81.06v626.24c0,44.58 36.49,81.07 81.07,81.07h626.64l81.07,81.06l51.47,-51.48zM349.86,187.74v58.77l81.07,81.07v-139.84h162.13v162.13h-139.84l81.07,81.07h58.77v58.77l81.07,81.07v-139.84h162.13v162.13h-139.84l81.07,81.07h58.77v58.77l81.07,81.07v-626.24c0,-44.58 -36.49,-81.07 -81.07,-81.07h-626.24l81.07,81.07zM674.14,187.74h162.13v162.13h-162.13zM349.86,836.26h-162.13v-162.13h162.13zM349.86,593.06h-162.13v-162.13h139.84l22.29,22.29zM593.06,836.26h-162.13v-162.13h139.84l22.29,21.89zM674.14,836.26v-59.18l59.18,59.18zM187.74,291.1l58.77,58.77h-58.77zM430.94,534.3l58.77,58.77h-58.77z" fill="url(#color-j4yUyQXM)"/>
		</mask>
		<mask id="mask-vtM9yRPE">
			<path d="M965.02,965.02l-51.47,51.48c-10,10 -26.21,10 -36.2,0l-73.58,-73.57h-616.04c-58.72,0 -106.67,-47.95 -106.67,-106.67v-615.64l-73.57,-73.57c-9.97,-9.97 -10,-26.13 -0.07,-36.13l51.48,-51.88c9.99,-10.06 26.25,-10.09 36.27,-0.07l869.84,869.84c10,10 10,26.2 0,36.2zM272.99,205.84l-81.07,-81.07c-7.32,-7.32 -9.51,-18.33 -5.55,-27.9c3.96,-9.57 13.3,-15.8 23.65,-15.8h626.24c58.72,0 106.67,47.95 106.67,106.67v626.24c0,10.35 -6.24,19.69 -15.8,23.65c-9.57,3.96 -20.58,1.77 -27.9,-5.55l-81.07,-81.07c-4.8,-4.8 -7.5,-11.31 -7.5,-18.1v-33.17h-33.17c-6.79,0 -13.3,-2.7 -18.1,-7.5l-81.07,-81.07c-4.13,-4.13 -6.62,-9.43 -7.31,-14.98c-5.55,-0.68 -10.85,-3.18 -14.98,-7.31l-81.07,-81.07c-4.8,-4.8 -7.5,-11.31 -7.5,-18.1v-33.17h-33.17c-6.79,0 -13.3,-2.7 -18.1,-7.5l-81.07,-81.07c-4.13,-4.13 -6.62,-9.43 -7.31,-14.98c-5.55,-0.68 -10.85,-3.18 -14.98,-7.31l-81.07,-81.07c-4.8,-4.8 -7.5,-11.31 -7.5,-18.1v-33.17h-33.17c-6.79,0 -13.3,-2.7 -18.1,-7.5zM699.74,456.54v110.93h110.93v-110.93zM456.54,213.34v110.93h110.93v-110.93zM560.31,699.74h-103.77v110.93h110.93v-103.9zM316.97,456.54h-103.64v110.93h110.93v-103.64zM324.26,699.74h-110.93v110.93h110.93zM699.74,324.26h110.93v-110.93h-110.93zM77.08,77.08l-51.48,51.88l81.06,81.06v626.24c0,44.58 36.49,81.07 81.07,81.07h626.64l81.07,81.06l51.47,-51.48zM349.86,187.74v58.77l81.07,81.07v-139.84h162.13v162.13h-139.84l81.07,81.07h58.77v58.77l81.07,81.07v-139.84h162.13v162.13h-139.84l81.07,81.07h58.77v58.77l81.07,81.07v-626.24c0,-44.58 -36.49,-81.07 -81.07,-81.07h-626.24l81.07,81.07zM674.14,187.74h162.13v162.13h-162.13zM349.86,836.26h-162.13v-162.13h162.13zM349.86,593.06h-162.13v-162.13h139.84l22.29,22.29zM593.06,836.26h-162.13v-162.13h139.84l22.29,21.89zM674.14,836.26v-59.18l59.18,59.18zM187.74,291.1l58.77,58.77h-58.77zM430.94,534.3l58.77,58.77h-58.77z" fill="#ffffff"/>
		</mask>
	</defs>
	<g fill="none" fill-rule="nonzero" style="mix-blend-mode: normal">
		<g mask="url(#mask-vtM9yRPE)">
			<g color="#ff0000" class="teamapps-color-2">
				<rect x="0" y="51.48" width="972.52" height="972.52" fill="currentColor"/>
			</g>
			<g color="#bc13e0" class="teamapps-color-3" mask="url(#mask-Kvfnljna)">
				<rect x="0" y="51.48" width="972.52" height="972.52" fill="currentColor"/>
			</g>
		</g>
		<g filter="url(#filter-c14pnQSa)" mask="url(#mask-szwuamWd)">
			<g color="#fff961" class="teamapps-color-1">
				<rect x="0" y="51.48" width="972.52" height="972.52" fill="currentColor"/>
			</g>
		</g>
	</g>
</svg>