<svg version="1.1" xmlns="http://www.w3.org/2000/svg" xmlns:xlink="http://www.w3.org/1999/xlink" viewBox="0,0,1024,1024">
	<!-- Color names: teamapps-color-1, teamapps-color-2, teamapps-color-3 -->
	<desc>group icon - Licensed under Apache License v2.0 (http://www.apache.org/licenses/LICENSE-2.0) - Created with Iconfu.com - Derivative work of Material icons (Copyright Google Inc.)</desc>
	<defs>
		<linearGradient x1="0" y1="1024" x2="1024" y2="0" id="color-v4tRSQ9O" gradientUnits="userSpaceOnUse">
			<stop offset="0.2" stop-color="#000000"/>
			<stop offset="0.8" stop-color="#ffffff"/>
		</linearGradient>
		<radialGradient cx="0" cy="0" r="1448.15" id="color-Xeuzx7H9" gradientUnits="userSpaceOnUse">
			<stop offset="0.08" stop-color="#ffffff"/>
			<stop offset="1" stop-color="#000000"/>
		</radialGradient>
		<filter id="filter-Et6Nv9EY" color-interpolation-filters="sRGB">
			<feOffset/>
		</filter>
		<mask id="mask-2wiujg5y">
			<path d="M659.2,694.4v101.34c0,14.14 -11.46,25.6 -25.6,25.6h-567.46c-14.14,0 -25.6,-11.46 -25.6,-25.6v-101.34c0,-123.71 223.71,-167.46 309.33,-167.46c85.62,0 309.34,43.76 309.34,167.46zM983.46,694.4v101.34c0,14.14 -11.46,25.6 -25.6,25.6h-243.2c-14.14,0 -25.6,-11.46 -25.6,-25.6v-101.34c0,-49.18 -26.46,-88.11 -69.26,-119.11c-8.66,-6.27 -12.51,-17.27 -9.65,-27.58c2.86,-10.31 11.82,-17.75 22.48,-18.66c14.49,-1.24 28.7,-2.12 41.51,-2.12c85.62,0 309.33,43.76 309.33,167.46zM202.66,349.86c0,-81.43 65.77,-147.2 147.2,-147.2c81.54,0 146.8,65.88 146.8,147.2c0,81.32 -65.26,147.2 -146.8,147.2c-81.43,0 -147.2,-65.77 -147.2,-147.2zM526.94,349.86c0,-81.43 65.77,-147.2 147.2,-147.2c81.54,0 146.79,65.89 146.79,147.2c0,81.31 -65.25,147.2 -146.79,147.2c-81.43,0 -147.2,-65.77 -147.2,-147.2zM349.86,552.54c-94.44,0 -283.73,47.42 -283.73,141.86v101.34h567.46v-101.34c0,-94.44 -189.3,-141.86 -283.74,-141.86zM674.14,552.54c-11.75,0 -25.14,0.81 -39.32,2.02c47.02,34.05 79.85,79.85 79.85,139.84v101.34h243.2v-101.34c0,-94.44 -189.29,-141.86 -283.73,-141.86zM674.14,471.46c67.29,0 121.19,-54.31 121.19,-121.6c0,-67.29 -53.9,-121.6 -121.19,-121.6c-67.29,0 -121.6,54.31 -121.6,121.6c0,67.29 54.31,121.6 121.6,121.6zM349.86,471.46c67.29,0 121.2,-54.31 121.2,-121.6c0,-67.29 -53.91,-121.6 -121.2,-121.6c-67.29,0 -121.6,54.31 -121.6,121.6c0,67.29 54.31,121.6 121.6,121.6z" fill="#ffffff"/>
		</mask>
		<mask id="mask-axCgU4JO">
			<rect fill="url(#color-v4tRSQ9O)" x="40.54" y="202.66" width="942.93" height="618.67"/>
		</mask>
		<mask id="mask-WQul2x6t">
			<path d="M659.2,694.4v101.34c0,14.14 -11.46,25.6 -25.6,25.6h-567.46c-14.14,0 -25.6,-11.46 -25.6,-25.6v-101.34c0,-123.71 223.71,-167.46 309.33,-167.46c85.62,0 309.34,43.76 309.34,167.46zM983.46,694.4v101.34c0,14.14 -11.46,25.6 -25.6,25.6h-243.2c-14.14,0 -25.6,-11.46 -25.6,-25.6v-101.34c0,-49.18 -26.46,-88.11 -69.26,-119.11c-8.66,-6.27 -12.51,-17.27 -9.65,-27.58c2.86,-10.31 11.82,-17.75 22.48,-18.66c14.49,-1.24 28.7,-2.12 41.51,-2.12c85.62,0 309.33,43.76 309.33,167.46zM202.66,349.86c0,-81.43 65.77,-147.2 147.2,-147.2c81.54,0 146.8,65.88 146.8,147.2c0,81.32 -65.26,147.2 -146.8,147.2c-81.43,0 -147.2,-65.77 -147.2,-147.2zM526.94,349.86c0,-81.43 65.77,-147.2 147.2,-147.2c81.54,0 146.79,65.89 146.79,147.2c0,81.31 -65.25,147.2 -146.79,147.2c-81.43,0 -147.2,-65.77 -147.2,-147.2zM349.86,552.54c-94.44,0 -283.73,47.42 -283.73,141.86v101.34h567.46v-101.34c0,-94.44 -189.3,-141.86 -283.74,-141.86zM674.14,552.54c-11.75,0 -25.14,0.81 -39.32,2.02c47.02,34.05 79.85,79.85 79.85,139.84v101.34h243.2v-101.34c0,-94.44 -189.29,-141.86 -283.73,-141.86zM674.14,471.46c67.29,0 121.19,-54.31 121.19,-121.6c0,-67.29 -53.9,-121.6 -121.19,-121.6c-67.29,0 -121.6,54.31 -121.6,121.6c0,67.29 54.31,121.6 121.6,121.6zM349.86,471.46c67.29,0 121.2,-54.31 121.2,-121.6c0,-67.29 -53.91,-121.6 -121.2,-121.6c-67.29,0 -121.6,54.31 -121.6,121.6c0,67.29 54.31,121.6 121.6,121.6z" fill="url(#color-Xeuzx7H9)"/>
		</mask>
	</defs>
	<g fill="none" fill-rule="nonzero" style="mix-blend-mode: normal">
		<g mask="url(#mask-2wiujg5y)">
			<g color="#ff0000" class="teamapps-color-2">
				<rect x="40.54" y="202.66" width="942.93" height="618.67" fill="currentColor"/>
			</g>
			<g color="#bc13e0" class="teamapps-color-3" mask="url(#mask-axCgU4JO)">
				<rect x="40.54" y="202.66" width="942.93" height="618.67" fill="currentColor"/>
			</g>
		</g>
		<g filter="url(#filter-Et6Nv9EY)" mask="url(#mask-WQul2x6t)">
			<g color="#fff961" class="teamapps-color-1">
				<rect x="40.54" y="202.66" width="942.93" height="618.67" fill="currentColor"/>
			</g>
		</g>
	</g>
</svg>