<svg version="1.1" xmlns="http://www.w3.org/2000/svg" xmlns:xlink="http://www.w3.org/1999/xlink" viewBox="0,0,1024,1024">
	<!-- Color names: teamapps-color-1, teamapps-color-2, teamapps-color-3 -->
	<desc>hdr_weak icon - Licensed under Apache License v2.0 (http://www.apache.org/licenses/LICENSE-2.0) - Created with Iconfu.com - Derivative work of Material icons (Copyright Google Inc.)</desc>
	<defs>
		<radialGradient cx="0" cy="0" r="1448.15" id="color-OWXKH5ib" gradientUnits="userSpaceOnUse">
			<stop offset="0.08" stop-color="#ffffff"/>
			<stop offset="1" stop-color="#000000"/>
		</radialGradient>
		<linearGradient x1="0" y1="1024" x2="1024" y2="0" id="color-YEUo58Fv" gradientUnits="userSpaceOnUse">
			<stop offset="0.2" stop-color="#000000"/>
			<stop offset="0.8" stop-color="#ffffff"/>
		</linearGradient>
		<filter id="filter-d0GzkvKf" color-interpolation-filters="sRGB">
			<feOffset/>
		</filter>
		<mask id="mask-c0X6ECqN">
			<path d="M983.46,512c0,148.31 -120.49,268.8 -268.8,268.8c-148.31,0 -268.8,-120.49 -268.8,-268.8c0,-148.31 120.49,-268.8 268.8,-268.8c148.31,0 268.8,120.49 268.8,268.8zM416,512c0,103.71 -84.02,187.74 -187.74,187.74c-103.72,0 -187.73,-84.02 -187.73,-187.74c0,-103.71 84.01,-187.74 187.73,-187.74c103.71,0 187.74,84.02 187.74,187.74zM851.2,512c0,-75.44 -61.1,-136.54 -136.54,-136.54c-75.44,0 -136.53,61.1 -136.53,136.54c0,75.44 61.09,136.54 136.53,136.54c75.44,0 136.54,-61.1 136.54,-136.54zM714.66,268.8c-134.17,0 -243.2,109.03 -243.2,243.2c0,134.17 109.03,243.2 243.2,243.2c134.17,0 243.2,-109.03 243.2,-243.2c0,-134.17 -109.03,-243.2 -243.2,-243.2zM714.66,674.14c-89.58,0 -162.13,-72.56 -162.13,-162.14c0,-89.58 72.55,-162.14 162.13,-162.14c89.58,0 162.14,72.56 162.14,162.14c0,89.58 -72.56,162.14 -162.14,162.14zM228.26,349.86c-89.58,0 -162.13,72.56 -162.13,162.14c0,89.58 72.55,162.14 162.13,162.14c89.58,0 162.14,-72.56 162.14,-162.14c0,-89.58 -72.56,-162.14 -162.14,-162.14z" fill="#ffffff"/>
		</mask>
		<mask id="mask-eBLEHNfD">
			<path d="M983.46,512c0,148.31 -120.49,268.8 -268.8,268.8c-148.31,0 -268.8,-120.49 -268.8,-268.8c0,-148.31 120.49,-268.8 268.8,-268.8c148.31,0 268.8,120.49 268.8,268.8zM416,512c0,103.71 -84.02,187.74 -187.74,187.74c-103.72,0 -187.73,-84.02 -187.73,-187.74c0,-103.71 84.01,-187.74 187.73,-187.74c103.71,0 187.74,84.02 187.74,187.74zM851.2,512c0,-75.44 -61.1,-136.54 -136.54,-136.54c-75.44,0 -136.53,61.1 -136.53,136.54c0,75.44 61.09,136.54 136.53,136.54c75.44,0 136.54,-61.1 136.54,-136.54zM714.66,268.8c-134.17,0 -243.2,109.03 -243.2,243.2c0,134.17 109.03,243.2 243.2,243.2c134.17,0 243.2,-109.03 243.2,-243.2c0,-134.17 -109.03,-243.2 -243.2,-243.2zM714.66,674.14c-89.58,0 -162.13,-72.56 -162.13,-162.14c0,-89.58 72.55,-162.14 162.13,-162.14c89.58,0 162.14,72.56 162.14,162.14c0,89.58 -72.56,162.14 -162.14,162.14zM228.26,349.86c-89.58,0 -162.13,72.56 -162.13,162.14c0,89.58 72.55,162.14 162.13,162.14c89.58,0 162.14,-72.56 162.14,-162.14c0,-89.58 -72.56,-162.14 -162.14,-162.14z" fill="url(#color-OWXKH5ib)"/>
		</mask>
		<mask id="mask-z4D3AfCQ">
			<rect fill="url(#color-YEUo58Fv)" x="40.54" y="243.2" width="942.93" height="537.6"/>
		</mask>
	</defs>
	<g fill="none" fill-rule="nonzero" style="mix-blend-mode: normal">
		<g mask="url(#mask-c0X6ECqN)">
			<g color="#ff0000" class="teamapps-color-2">
				<rect x="40.54" y="243.2" width="942.93" height="537.6" fill="currentColor"/>
			</g>
			<g color="#bc13e0" class="teamapps-color-3" mask="url(#mask-z4D3AfCQ)">
				<rect x="40.54" y="243.2" width="942.93" height="537.6" fill="currentColor"/>
			</g>
		</g>
		<g filter="url(#filter-d0GzkvKf)" mask="url(#mask-eBLEHNfD)">
			<g color="#fff961" class="teamapps-color-1">
				<rect x="40.54" y="243.2" width="942.93" height="537.6" fill="currentColor"/>
			</g>
		</g>
	</g>
</svg>