<svg version="1.1" xmlns="http://www.w3.org/2000/svg" xmlns:xlink="http://www.w3.org/1999/xlink" viewBox="0,0,1024,1024">
	<!-- Color names: teamapps-color-1, teamapps-color-2, teamapps-color-3 -->
	<desc>help icon - Licensed under Apache License v2.0 (http://www.apache.org/licenses/LICENSE-2.0) - Created with Iconfu.com - Derivative work of Material icons (Copyright Google Inc.)</desc>
	<defs>
		<radialGradient cx="0" cy="0" r="1448.15" id="color-cpFjYVuH" gradientUnits="userSpaceOnUse">
			<stop offset="0.08" stop-color="#ffffff"/>
			<stop offset="1" stop-color="#000000"/>
		</radialGradient>
		<linearGradient x1="0" y1="1024" x2="1024" y2="0" id="color-rpAp4qFe" gradientUnits="userSpaceOnUse">
			<stop offset="0.2" stop-color="#000000"/>
			<stop offset="0.8" stop-color="#ffffff"/>
		</linearGradient>
		<filter id="filter-lZBfBkQC" color-interpolation-filters="sRGB">
			<feOffset/>
		</filter>
		<mask id="mask-dDRpakmA">
			<path d="M942.94,512c0,237.88 -193.05,430.94 -430.94,430.94c-237.88,0 -430.94,-193.05 -430.94,-430.94c0,-237.88 193.05,-430.94 430.94,-430.94c237.88,0 430.94,193.05 430.94,430.94zM648.54,390.4c0,-75.44 -61.1,-136.54 -136.54,-136.54c-66.69,0 -122.17,47.75 -134.14,110.94h30.6c11.53,-46.43 53.62,-81.06 103.54,-81.06c58.72,0 106.66,47.94 106.66,106.66c0,29.16 -11.66,55.93 -31.45,75.29l-50.1,50.91c-23.57,23.9 -38.57,56.04 -39.95,91.4h30.91c4.96,-52 25.66,-78.69 53.62,-107.05l36.64,-37.45c18.5,-18.5 30.2,-44.49 30.2,-73.1zM497.06,740.26v29.87h29.87v-29.87zM512,106.66c-223.74,0 -405.34,181.59 -405.34,405.34c0,223.74 181.59,405.34 405.34,405.34c223.74,0 405.34,-181.59 405.34,-405.34c0,-223.74 -181.59,-405.34 -405.34,-405.34zM636.44,481.6l-36.48,37.29c-29.18,29.59 -47.42,53.91 -47.42,114.71h-81.07v-20.26c0,-44.58 18.24,-85.12 47.42,-114.71l50.26,-51.07c15,-14.59 23.91,-34.86 23.91,-57.15c0,-44.58 -36.48,-81.06 -81.06,-81.06c-44.58,0 -81.06,36.48 -81.06,81.06h-81.07c0,-89.58 72.56,-162.14 162.14,-162.14c89.58,0 162.14,72.56 162.14,162.14c0,35.67 -14.59,68.1 -37.7,91.2zM552.54,795.74h-81.07v-81.07h81.07z" fill="#ffffff"/>
		</mask>
		<mask id="mask-FVWPSsHR">
			<path d="M942.94,512c0,237.88 -193.05,430.94 -430.94,430.94c-237.88,0 -430.94,-193.05 -430.94,-430.94c0,-237.88 193.05,-430.94 430.94,-430.94c237.88,0 430.94,193.05 430.94,430.94zM648.54,390.4c0,-75.44 -61.1,-136.54 -136.54,-136.54c-66.69,0 -122.17,47.75 -134.14,110.94h30.6c11.53,-46.43 53.62,-81.06 103.54,-81.06c58.72,0 106.66,47.94 106.66,106.66c0,29.16 -11.66,55.93 -31.45,75.29l-50.1,50.91c-23.57,23.9 -38.57,56.04 -39.95,91.4h30.91c4.96,-52 25.66,-78.69 53.62,-107.05l36.64,-37.45c18.5,-18.5 30.2,-44.49 30.2,-73.1zM497.06,740.26v29.87h29.87v-29.87zM512,106.66c-223.74,0 -405.34,181.59 -405.34,405.34c0,223.74 181.59,405.34 405.34,405.34c223.74,0 405.34,-181.59 405.34,-405.34c0,-223.74 -181.59,-405.34 -405.34,-405.34zM636.44,481.6l-36.48,37.29c-29.18,29.59 -47.42,53.91 -47.42,114.71h-81.07v-20.26c0,-44.58 18.24,-85.12 47.42,-114.71l50.26,-51.07c15,-14.59 23.91,-34.86 23.91,-57.15c0,-44.58 -36.48,-81.06 -81.06,-81.06c-44.58,0 -81.06,36.48 -81.06,81.06h-81.07c0,-89.58 72.56,-162.14 162.14,-162.14c89.58,0 162.14,72.56 162.14,162.14c0,35.67 -14.59,68.1 -37.7,91.2zM552.54,795.74h-81.07v-81.07h81.07z" fill="url(#color-cpFjYVuH)"/>
		</mask>
		<mask id="mask-gWNvZbsf">
			<rect fill="url(#color-rpAp4qFe)" x="81.06" y="81.06" width="861.87" height="861.87"/>
		</mask>
	</defs>
	<g fill="none" fill-rule="nonzero" style="mix-blend-mode: normal">
		<g mask="url(#mask-dDRpakmA)">
			<g color="#ff0000" class="teamapps-color-2">
				<rect x="81.06" y="81.06" width="861.87" height="861.87" fill="currentColor"/>
			</g>
			<g color="#bc13e0" class="teamapps-color-3" mask="url(#mask-gWNvZbsf)">
				<rect x="81.06" y="81.06" width="861.87" height="861.87" fill="currentColor"/>
			</g>
		</g>
		<g filter="url(#filter-lZBfBkQC)" mask="url(#mask-FVWPSsHR)">
			<g color="#fff961" class="teamapps-color-1">
				<rect x="81.06" y="81.06" width="861.87" height="861.87" fill="currentColor"/>
			</g>
		</g>
	</g>
</svg>