<svg version="1.1" xmlns="http://www.w3.org/2000/svg" xmlns:xlink="http://www.w3.org/1999/xlink" viewBox="0,0,1024,1024">
	<!-- Color names: teamapps-color-1, teamapps-color-2, teamapps-color-3 -->
	<desc>hotel icon - Licensed under Apache License v2.0 (http://www.apache.org/licenses/LICENSE-2.0) - Created with Iconfu.com - Derivative work of Material icons (Copyright Google Inc.)</desc>
	<defs>
		<radialGradient cx="0" cy="0" r="1448.15" id="color-0GVPzKsd" gradientUnits="userSpaceOnUse">
			<stop offset="0.08" stop-color="#ffffff"/>
			<stop offset="1" stop-color="#000000"/>
		</radialGradient>
		<linearGradient x1="0" y1="1024" x2="1024" y2="0" id="color-H3WI2q6F" gradientUnits="userSpaceOnUse">
			<stop offset="0.2" stop-color="#000000"/>
			<stop offset="0.8" stop-color="#ffffff"/>
		</linearGradient>
		<filter id="filter-DnWj52Nb" color-interpolation-filters="sRGB">
			<feOffset/>
		</filter>
		<mask id="mask-7ze6MPu9">
			<rect fill="url(#color-H3WI2q6F)" x="40.54" y="202.66" width="942.93" height="659.2"/>
		</mask>
		<mask id="mask-CfkhilXh">
			<path d="M983.46,471.46v364.8c0,14.14 -11.46,25.6 -25.6,25.6h-81.06c-14.14,0 -25.6,-11.46 -25.6,-25.6v-96h-678.4v96c0,14.14 -11.46,25.6 -25.6,25.6h-81.06c-14.14,0 -25.6,-11.46 -25.6,-25.6v-608c0,-14.14 11.46,-25.6 25.6,-25.6h81.06c14.14,0 25.6,11.46 25.6,25.6v147.47c21.79,-53.99 74.64,-91.99 136.54,-91.99c61.88,0 114.73,37.99 136.53,91.97v-66.37c0,-14.14 11.46,-25.6 25.6,-25.6h324.27c103.71,0 187.73,84.01 187.73,187.73zM172.8,567.46h81.31c-36.94,-14.92 -66.39,-44.38 -81.31,-81.32zM445.86,567.46v-81.3c-14.92,36.93 -44.36,66.38 -81.3,81.3zM795.74,309.34h-324.27v283.73h-324.26v-364.8h-81.06v608h81.06v-121.6h729.6v121.6h81.06v-364.8c0,-89.58 -72.55,-162.13 -162.13,-162.13zM309.34,552.54c67.29,0 121.6,-54.31 121.6,-121.6c0,-67.29 -54.31,-121.6 -121.6,-121.6c-67.29,0 -121.6,54.31 -121.6,121.6c0,67.29 54.31,121.6 121.6,121.6z" fill="url(#color-0GVPzKsd)"/>
		</mask>
		<mask id="mask-Emi4TOjq">
			<path d="M983.46,471.46v364.8c0,14.14 -11.46,25.6 -25.6,25.6h-81.06c-14.14,0 -25.6,-11.46 -25.6,-25.6v-96h-678.4v96c0,14.14 -11.46,25.6 -25.6,25.6h-81.06c-14.14,0 -25.6,-11.46 -25.6,-25.6v-608c0,-14.14 11.46,-25.6 25.6,-25.6h81.06c14.14,0 25.6,11.46 25.6,25.6v147.47c21.79,-53.99 74.64,-91.99 136.54,-91.99c61.88,0 114.73,37.99 136.53,91.97v-66.37c0,-14.14 11.46,-25.6 25.6,-25.6h324.27c103.71,0 187.73,84.01 187.73,187.73zM172.8,567.46h81.31c-36.94,-14.92 -66.39,-44.38 -81.31,-81.32zM445.86,567.46v-81.3c-14.92,36.93 -44.36,66.38 -81.3,81.3zM795.74,309.34h-324.27v283.73h-324.26v-364.8h-81.06v608h81.06v-121.6h729.6v121.6h81.06v-364.8c0,-89.58 -72.55,-162.13 -162.13,-162.13zM309.34,552.54c67.29,0 121.6,-54.31 121.6,-121.6c0,-67.29 -54.31,-121.6 -121.6,-121.6c-67.29,0 -121.6,54.31 -121.6,121.6c0,67.29 54.31,121.6 121.6,121.6z" fill="#ffffff"/>
		</mask>
	</defs>
	<g fill="none" fill-rule="nonzero" style="mix-blend-mode: normal">
		<g mask="url(#mask-Emi4TOjq)">
			<g color="#ff0000" class="teamapps-color-2">
				<rect x="40.54" y="202.66" width="942.93" height="659.2" fill="currentColor"/>
			</g>
			<g color="#bc13e0" class="teamapps-color-3" mask="url(#mask-7ze6MPu9)">
				<rect x="40.54" y="202.66" width="942.93" height="659.2" fill="currentColor"/>
			</g>
		</g>
		<g filter="url(#filter-DnWj52Nb)" mask="url(#mask-CfkhilXh)">
			<g color="#fff961" class="teamapps-color-1">
				<rect x="40.54" y="202.66" width="942.93" height="659.2" fill="currentColor"/>
			</g>
		</g>
	</g>
</svg>