<svg version="1.1" xmlns="http://www.w3.org/2000/svg" xmlns:xlink="http://www.w3.org/1999/xlink" viewBox="0,0,1024,1024">
	<!-- Color names: teamapps-color-1, teamapps-color-2, teamapps-color-3 -->
	<desc>image_aspect_ratio icon - Licensed under Apache License v2.0 (http://www.apache.org/licenses/LICENSE-2.0) - Created with Iconfu.com - Derivative work of Material icons (Copyright Google Inc.)</desc>
	<defs>
		<radialGradient cx="0" cy="0" r="1448.15" id="color-ly3JfyKK" gradientUnits="userSpaceOnUse">
			<stop offset="0.08" stop-color="#ffffff"/>
			<stop offset="1" stop-color="#000000"/>
		</radialGradient>
		<linearGradient x1="0" y1="1024" x2="1024" y2="0" id="color-m8rwykld" gradientUnits="userSpaceOnUse">
			<stop offset="0.2" stop-color="#000000"/>
			<stop offset="0.8" stop-color="#ffffff"/>
		</linearGradient>
		<filter id="filter-KlJHe7xG" color-interpolation-filters="sRGB">
			<feOffset/>
		</filter>
		<mask id="mask-IKlsYTpY">
			<rect fill="url(#color-m8rwykld)" x="81.06" y="162.14" width="861.87" height="699.73"/>
		</mask>
		<mask id="mask-S4JQLQVA">
			<path d="M942.94,268.8v486.4c0,58.73 -47.95,106.66 -106.67,106.66h-648.53c-58.72,0 -106.67,-47.94 -106.67,-106.66v-486.4c0,-58.73 47.95,-106.66 106.67,-106.66h648.53c58.72,0 106.67,47.94 106.67,106.66zM213.34,294.4v435.2h597.33v-435.2zM674.14,699.74h-81.07c-14.14,0 -25.6,-11.46 -25.6,-25.6v-81.07c0,-14.14 11.46,-25.6 25.6,-25.6h81.07c14.14,0 25.6,11.46 25.6,25.6v81.07c0,14.14 -11.46,25.6 -25.6,25.6zM674.14,537.6h-81.07c-14.14,0 -25.6,-11.46 -25.6,-25.6v-81.06c0,-14.14 11.46,-25.6 25.6,-25.6h81.07c14.14,0 25.6,11.46 25.6,25.6v81.06c0,14.14 -11.46,25.6 -25.6,25.6zM512,537.6h-81.06c-14.14,0 -25.6,-11.46 -25.6,-25.6v-81.06c0,-14.14 11.46,-25.6 25.6,-25.6h81.06c14.14,0 25.6,11.46 25.6,25.6v81.06c0,14.14 -11.46,25.6 -25.6,25.6zM349.86,537.6h-81.06c-14.14,0 -25.6,-11.46 -25.6,-25.6v-81.06c0,-14.14 11.46,-25.6 25.6,-25.6h81.06c14.14,0 25.6,11.46 25.6,25.6v81.06c0,14.14 -11.46,25.6 -25.6,25.6zM836.26,187.74h-648.53c-44.58,0 -81.07,36.48 -81.07,81.06v486.4c0,44.58 36.49,81.06 81.07,81.06h648.53c44.58,0 81.07,-36.48 81.07,-81.06v-486.4c0,-44.58 -36.49,-81.06 -81.07,-81.06zM836.26,755.2h-648.53v-486.4h648.53zM674.14,430.94h-81.07v81.06h81.07zM674.14,593.06h-81.07v81.07h81.07zM512,430.94h-81.06v81.06h81.06zM349.86,430.94h-81.06v81.06h81.06z" fill="url(#color-ly3JfyKK)"/>
		</mask>
		<mask id="mask-ukH0ywRU">
			<path d="M942.94,268.8v486.4c0,58.73 -47.95,106.66 -106.67,106.66h-648.53c-58.72,0 -106.67,-47.94 -106.67,-106.66v-486.4c0,-58.73 47.95,-106.66 106.67,-106.66h648.53c58.72,0 106.67,47.94 106.67,106.66zM213.34,294.4v435.2h597.33v-435.2zM674.14,699.74h-81.07c-14.14,0 -25.6,-11.46 -25.6,-25.6v-81.07c0,-14.14 11.46,-25.6 25.6,-25.6h81.07c14.14,0 25.6,11.46 25.6,25.6v81.07c0,14.14 -11.46,25.6 -25.6,25.6zM674.14,537.6h-81.07c-14.14,0 -25.6,-11.46 -25.6,-25.6v-81.06c0,-14.14 11.46,-25.6 25.6,-25.6h81.07c14.14,0 25.6,11.46 25.6,25.6v81.06c0,14.14 -11.46,25.6 -25.6,25.6zM512,537.6h-81.06c-14.14,0 -25.6,-11.46 -25.6,-25.6v-81.06c0,-14.14 11.46,-25.6 25.6,-25.6h81.06c14.14,0 25.6,11.46 25.6,25.6v81.06c0,14.14 -11.46,25.6 -25.6,25.6zM349.86,537.6h-81.06c-14.14,0 -25.6,-11.46 -25.6,-25.6v-81.06c0,-14.14 11.46,-25.6 25.6,-25.6h81.06c14.14,0 25.6,11.46 25.6,25.6v81.06c0,14.14 -11.46,25.6 -25.6,25.6zM836.26,187.74h-648.53c-44.58,0 -81.07,36.48 -81.07,81.06v486.4c0,44.58 36.49,81.06 81.07,81.06h648.53c44.58,0 81.07,-36.48 81.07,-81.06v-486.4c0,-44.58 -36.49,-81.06 -81.07,-81.06zM836.26,755.2h-648.53v-486.4h648.53zM674.14,430.94h-81.07v81.06h81.07zM674.14,593.06h-81.07v81.07h81.07zM512,430.94h-81.06v81.06h81.06zM349.86,430.94h-81.06v81.06h81.06z" fill="#ffffff"/>
		</mask>
	</defs>
	<g fill="none" fill-rule="nonzero" style="mix-blend-mode: normal">
		<g mask="url(#mask-ukH0ywRU)">
			<g color="#ff0000" class="teamapps-color-2">
				<rect x="81.06" y="162.14" width="861.87" height="699.73" fill="currentColor"/>
			</g>
			<g color="#bc13e0" class="teamapps-color-3" mask="url(#mask-IKlsYTpY)">
				<rect x="81.06" y="162.14" width="861.87" height="699.73" fill="currentColor"/>
			</g>
		</g>
		<g filter="url(#filter-KlJHe7xG)" mask="url(#mask-S4JQLQVA)">
			<g color="#fff961" class="teamapps-color-1">
				<rect x="81.06" y="162.14" width="861.87" height="699.73" fill="currentColor"/>
			</g>
		</g>
	</g>
</svg>