<svg version="1.1" xmlns="http://www.w3.org/2000/svg" xmlns:xlink="http://www.w3.org/1999/xlink" viewBox="0,0,1024,1024">
	<!-- Color names: teamapps-color-1, teamapps-color-2, teamapps-color-3 -->
	<desc>inbox icon - Licensed under Apache License v2.0 (http://www.apache.org/licenses/LICENSE-2.0) - Created with Iconfu.com - Derivative work of Material icons (Copyright Google Inc.)</desc>
	<defs>
		<linearGradient x1="0" y1="1024" x2="1024" y2="0" id="color-M2ccCxdf" gradientUnits="userSpaceOnUse">
			<stop offset="0.2" stop-color="#000000"/>
			<stop offset="0.8" stop-color="#ffffff"/>
		</linearGradient>
		<radialGradient cx="0" cy="0" r="1448.15" id="color-SYYSV8kP" gradientUnits="userSpaceOnUse">
			<stop offset="0.08" stop-color="#ffffff"/>
			<stop offset="1" stop-color="#000000"/>
		</radialGradient>
		<filter id="filter-Hr5tt3O8" color-interpolation-filters="sRGB">
			<feOffset/>
		</filter>
		<mask id="mask-LhagfjhJ">
			<rect fill="url(#color-M2ccCxdf)" x="121.6" y="121.6" width="780.8" height="780.8"/>
		</mask>
		<mask id="mask-qwFjDsQO">
			<path d="M902.4,228.26v567.47c0,58.72 -47.94,106.66 -106.66,106.66h-567.87c-59.38,0 -106.26,-48.2 -106.26,-106.66l0.41,-567.49c0,-58.79 46.39,-106.65 105.86,-106.65h567.87c58.64,0 106.66,47.45 106.66,106.66zM253.46,253.86v354.14h136.94c14.14,0 25.6,11.46 25.6,25.6c0,53.09 43.2,96 96,96c52.8,0 96,-42.91 96,-96c0,-14.14 11.46,-25.6 25.6,-25.6h136.54v-354.14zM795.74,147.2h-567.87c-44.99,0 -80.26,36.07 -80.26,81.06l-0.41,567.47c0,44.58 35.67,81.06 80.66,81.06h567.87c44.58,0 81.06,-36.48 81.06,-81.06v-567.47c0,-44.99 -36.48,-81.06 -81.06,-81.06zM795.74,633.6h-162.14c0,67.29 -54.72,121.6 -121.6,121.6c-66.88,0 -121.6,-54.31 -121.6,-121.6h-162.54v-405.34h567.87z" fill="url(#color-SYYSV8kP)"/>
		</mask>
		<mask id="mask-RFdIYikR">
			<path d="M902.4,228.26v567.47c0,58.72 -47.94,106.66 -106.66,106.66h-567.87c-59.38,0 -106.26,-48.2 -106.26,-106.66l0.41,-567.49c0,-58.79 46.39,-106.65 105.86,-106.65h567.87c58.64,0 106.66,47.45 106.66,106.66zM253.46,253.86v354.14h136.94c14.14,0 25.6,11.46 25.6,25.6c0,53.09 43.2,96 96,96c52.8,0 96,-42.91 96,-96c0,-14.14 11.46,-25.6 25.6,-25.6h136.54v-354.14zM795.74,147.2h-567.87c-44.99,0 -80.26,36.07 -80.26,81.06l-0.41,567.47c0,44.58 35.67,81.06 80.66,81.06h567.87c44.58,0 81.06,-36.48 81.06,-81.06v-567.47c0,-44.99 -36.48,-81.06 -81.06,-81.06zM795.74,633.6h-162.14c0,67.29 -54.72,121.6 -121.6,121.6c-66.88,0 -121.6,-54.31 -121.6,-121.6h-162.54v-405.34h567.87z" fill="#ffffff"/>
		</mask>
	</defs>
	<g fill="none" fill-rule="nonzero" style="mix-blend-mode: normal">
		<g mask="url(#mask-RFdIYikR)">
			<g color="#ff0000" class="teamapps-color-2">
				<rect x="121.6" y="121.6" width="780.8" height="780.8" fill="currentColor"/>
			</g>
			<g color="#bc13e0" class="teamapps-color-3" mask="url(#mask-LhagfjhJ)">
				<rect x="121.6" y="121.6" width="780.8" height="780.8" fill="currentColor"/>
			</g>
		</g>
		<g filter="url(#filter-Hr5tt3O8)" mask="url(#mask-qwFjDsQO)">
			<g color="#fff961" class="teamapps-color-1">
				<rect x="121.6" y="121.6" width="780.8" height="780.8" fill="currentColor"/>
			</g>
		</g>
	</g>
</svg>