<svg version="1.1" xmlns="http://www.w3.org/2000/svg" xmlns:xlink="http://www.w3.org/1999/xlink" viewBox="0,0,1024,1024">
	<!-- Color names: teamapps-color-1, teamapps-color-2, teamapps-color-3 -->
	<desc>invert_colors_off icon - Licensed under Apache License v2.0 (http://www.apache.org/licenses/LICENSE-2.0) - Created with Iconfu.com - Derivative work of Material icons (Copyright Google Inc.)</desc>
	<defs>
		<linearGradient x1="0" y1="1024" x2="1024" y2="0" id="color-qfvwQq7G" gradientUnits="userSpaceOnUse">
			<stop offset="0.2" stop-color="#000000"/>
			<stop offset="0.8" stop-color="#ffffff"/>
		</linearGradient>
		<radialGradient cx="0" cy="0" r="1448.15" id="color-SVw5h3pz" gradientUnits="userSpaceOnUse">
			<stop offset="0.08" stop-color="#ffffff"/>
			<stop offset="1" stop-color="#000000"/>
		</radialGradient>
		<filter id="filter-tysDZoAk" color-interpolation-filters="sRGB">
			<feOffset/>
		</filter>
		<mask id="mask-e9sebp62">
			<rect fill="url(#color-qfvwQq7G)" x="121.6" y="92.01" width="780.8" height="871.19"/>
		</mask>
		<mask id="mask-KTP8JRIP">
			<path d="M894.9,904.22l-51.48,51.48c-10,10 -26.21,10 -36.2,0l-93.64,-93.64c-60.19,42.7 -130.78,63.85 -201.58,63.85c-89.58,0 -179.27,-34.1 -247.52,-102.35c-122.06,-122.47 -135.08,-312.56 -38.48,-449.08l-96.9,-96.9c-10,-10 -10,-26.21 0,-36.2l51.48,-51.48c9.99,-9.99 26.18,-10 36.18,-0.02l169.04,168.63l144.31,144.72l350.86,350.46l14.18,14.59c9.76,10.04 9.64,26.05 -0.26,35.95zM401.07,342.84l-57.15,-57.15c-10,-10 -10,-26.21 0,-36.2l149.98,-149.98c10,-10 26.23,-10 36.22,0.02l229.02,229.43c106.74,106.75 129.84,264.66 69.96,394.04c-3.51,7.59 -10.52,12.99 -18.76,14.45c-8.24,1.46 -16.67,-1.2 -22.59,-7.12l-293.86,-294.27c-4.79,-4.8 -7.49,-11.31 -7.49,-18.09v-124.03l-49.16,48.95c-10,9.96 -26.18,9.94 -36.16,-0.04zM321.98,470.81c-17.92,31.87 -27.58,67.94 -27.58,105.63c0,58.05 22.42,112.35 63.84,153.76c34.86,35.18 79.74,56.75 128.16,62.37v-157.68zM862.62,871.53l-95.26,-95.25l-255.36,-254.96l-144.3,-144.7l-57.56,-57.15l-111.46,-111.46l-51.48,51.48l112.68,112.68c-103.36,127.27 -95.66,314.55 22.7,433.3c63.23,63.23 146.32,94.85 229.42,94.85c72.55,0 144.7,-23.92 203.88,-72.15l109.44,109.44l51.48,-51.48zM512,232.32v185.64l293.86,294.27c55.53,-119.98 34.06,-266.29 -64.85,-365.2l-229.02,-229.42l-149.98,149.98l57.15,57.15zM512,819.65c-64.86,0 -126.06,-25.13 -171.86,-71.34c-46.21,-46.21 -71.34,-107.01 -71.34,-171.86c0,-53.5 17.43,-104.17 49.05,-145.92l194.15,193.75z" fill="url(#color-SVw5h3pz)"/>
		</mask>
		<mask id="mask-LBpiIW36">
			<path d="M894.9,904.22l-51.48,51.48c-10,10 -26.21,10 -36.2,0l-93.64,-93.64c-60.19,42.7 -130.78,63.85 -201.58,63.85c-89.58,0 -179.27,-34.1 -247.52,-102.35c-122.06,-122.47 -135.08,-312.56 -38.48,-449.08l-96.9,-96.9c-10,-10 -10,-26.21 0,-36.2l51.48,-51.48c9.99,-9.99 26.18,-10 36.18,-0.02l169.04,168.63l144.31,144.72l350.86,350.46l14.18,14.59c9.76,10.04 9.64,26.05 -0.26,35.95zM401.07,342.84l-57.15,-57.15c-10,-10 -10,-26.21 0,-36.2l149.98,-149.98c10,-10 26.23,-10 36.22,0.02l229.02,229.43c106.74,106.75 129.84,264.66 69.96,394.04c-3.51,7.59 -10.52,12.99 -18.76,14.45c-8.24,1.46 -16.67,-1.2 -22.59,-7.12l-293.86,-294.27c-4.79,-4.8 -7.49,-11.31 -7.49,-18.09v-124.03l-49.16,48.95c-10,9.96 -26.18,9.94 -36.16,-0.04zM321.98,470.81c-17.92,31.87 -27.58,67.94 -27.58,105.63c0,58.05 22.42,112.35 63.84,153.76c34.86,35.18 79.74,56.75 128.16,62.37v-157.68zM862.62,871.53l-95.26,-95.25l-255.36,-254.96l-144.3,-144.7l-57.56,-57.15l-111.46,-111.46l-51.48,51.48l112.68,112.68c-103.36,127.27 -95.66,314.55 22.7,433.3c63.23,63.23 146.32,94.85 229.42,94.85c72.55,0 144.7,-23.92 203.88,-72.15l109.44,109.44l51.48,-51.48zM512,232.32v185.64l293.86,294.27c55.53,-119.98 34.06,-266.29 -64.85,-365.2l-229.02,-229.42l-149.98,149.98l57.15,57.15zM512,819.65c-64.86,0 -126.06,-25.13 -171.86,-71.34c-46.21,-46.21 -71.34,-107.01 -71.34,-171.86c0,-53.5 17.43,-104.17 49.05,-145.92l194.15,193.75z" fill="#ffffff"/>
		</mask>
	</defs>
	<g fill="none" fill-rule="nonzero" style="mix-blend-mode: normal">
		<g mask="url(#mask-LBpiIW36)">
			<g color="#ff0000" class="teamapps-color-2">
				<rect x="121.6" y="92.01" width="780.8" height="871.19" fill="currentColor"/>
			</g>
			<g color="#bc13e0" class="teamapps-color-3" mask="url(#mask-e9sebp62)">
				<rect x="121.6" y="92.01" width="780.8" height="871.19" fill="currentColor"/>
			</g>
		</g>
		<g filter="url(#filter-tysDZoAk)" mask="url(#mask-KTP8JRIP)">
			<g color="#fff961" class="teamapps-color-1">
				<rect x="121.6" y="92.01" width="780.8" height="871.19" fill="currentColor"/>
			</g>
		</g>
	</g>
</svg>