<svg version="1.1" xmlns="http://www.w3.org/2000/svg" xmlns:xlink="http://www.w3.org/1999/xlink" viewBox="0,0,1024,1024">
	<!-- Color names: teamapps-color-1, teamapps-color-2, teamapps-color-3 -->
	<desc>laptop_chromebook icon - Licensed under Apache License v2.0 (http://www.apache.org/licenses/LICENSE-2.0) - Created with Iconfu.com - Derivative work of Material icons (Copyright Google Inc.)</desc>
	<defs>
		<linearGradient x1="0" y1="1024" x2="1024" y2="0" id="color-AcnXD0Uz" gradientUnits="userSpaceOnUse">
			<stop offset="0.2" stop-color="#000000"/>
			<stop offset="0.8" stop-color="#ffffff"/>
		</linearGradient>
		<radialGradient cx="0" cy="0" r="1448.15" id="color-hqcTsIvL" gradientUnits="userSpaceOnUse">
			<stop offset="0.08" stop-color="#ffffff"/>
			<stop offset="1" stop-color="#000000"/>
		</radialGradient>
		<filter id="filter-TjfoAl3o" color-interpolation-filters="sRGB">
			<feOffset/>
		</filter>
		<mask id="mask-apDU7WGD">
			<path d="M1024,755.2v81.06c0,14.14 -11.46,25.6 -25.6,25.6h-972.8c-14.14,0 -25.6,-11.46 -25.6,-25.6v-81.06c0,-14.14 11.46,-25.6 25.6,-25.6h55.46v-582.4c0,-14.14 11.46,-25.6 25.6,-25.6h810.67c14.14,0 25.6,11.46 25.6,25.6v582.4h55.46c14.14,0 25.6,11.46 25.6,25.6zM213.34,253.86v354.14h597.33v-354.14zM917.34,755.2v-608h-810.67v608h-81.06v81.06h972.8v-81.06zM836.26,633.6h-648.53v-405.34h648.53zM593.06,755.2h-162.13v-40.54h162.13z" fill="url(#color-hqcTsIvL)"/>
		</mask>
		<mask id="mask-cdA2IMLt">
			<path d="M1024,755.2v81.06c0,14.14 -11.46,25.6 -25.6,25.6h-972.8c-14.14,0 -25.6,-11.46 -25.6,-25.6v-81.06c0,-14.14 11.46,-25.6 25.6,-25.6h55.46v-582.4c0,-14.14 11.46,-25.6 25.6,-25.6h810.67c14.14,0 25.6,11.46 25.6,25.6v582.4h55.46c14.14,0 25.6,11.46 25.6,25.6zM213.34,253.86v354.14h597.33v-354.14zM917.34,755.2v-608h-810.67v608h-81.06v81.06h972.8v-81.06zM836.26,633.6h-648.53v-405.34h648.53zM593.06,755.2h-162.13v-40.54h162.13z" fill="#ffffff"/>
		</mask>
		<mask id="mask-FIxVAgg9">
			<rect fill="url(#color-AcnXD0Uz)" x="0" y="121.6" width="1024" height="740.26"/>
		</mask>
	</defs>
	<g fill="none" fill-rule="nonzero" style="mix-blend-mode: normal">
		<g mask="url(#mask-cdA2IMLt)">
			<g color="#ff0000" class="teamapps-color-2">
				<rect x="0" y="121.6" width="1024" height="740.26" fill="currentColor"/>
			</g>
			<g color="#bc13e0" class="teamapps-color-3" mask="url(#mask-FIxVAgg9)">
				<rect x="0" y="121.6" width="1024" height="740.26" fill="currentColor"/>
			</g>
		</g>
		<g filter="url(#filter-TjfoAl3o)" mask="url(#mask-apDU7WGD)">
			<g color="#fff961" class="teamapps-color-1">
				<rect x="0" y="121.6" width="1024" height="740.26" fill="currentColor"/>
			</g>
		</g>
	</g>
</svg>