<svg version="1.1" xmlns="http://www.w3.org/2000/svg" xmlns:xlink="http://www.w3.org/1999/xlink" viewBox="0,0,1024,1024">
	<!-- Color names: teamapps-color-1, teamapps-color-2, teamapps-color-3 -->
	<desc>leak_add icon - Licensed under Apache License v2.0 (http://www.apache.org/licenses/LICENSE-2.0) - Created with Iconfu.com - Derivative work of Material icons (Copyright Google Inc.)</desc>
	<defs>
		<linearGradient x1="0" y1="1024" x2="1024" y2="0" id="color-fWsLQFML" gradientUnits="userSpaceOnUse">
			<stop offset="0.2" stop-color="#000000"/>
			<stop offset="0.8" stop-color="#ffffff"/>
		</linearGradient>
		<radialGradient cx="0" cy="0" r="1448.15" id="color-GTTzdQjD" gradientUnits="userSpaceOnUse">
			<stop offset="0.08" stop-color="#ffffff"/>
			<stop offset="1" stop-color="#000000"/>
		</radialGradient>
		<filter id="filter-IJW0LnPN" color-interpolation-filters="sRGB">
			<feOffset/>
		</filter>
		<mask id="mask-rI1DyLIn">
			<rect fill="url(#color-fWsLQFML)" x="121.6" y="121.6" width="780.8" height="780.8"/>
		</mask>
		<mask id="mask-rJbOKfY7">
			<path d="M121.6,593.06v-81.06c0,-14.14 11.46,-25.6 25.6,-25.6c187.31,0 339.2,-151.89 339.2,-339.2c0,-14.14 11.46,-25.6 25.6,-25.6h81.06c14.14,0 25.6,11.46 25.6,25.6c0,260.16 -210.87,471.46 -471.46,471.46c-14.14,0 -25.6,-11.46 -25.6,-25.6zM902.4,430.94v81.06c0,14.14 -11.46,25.6 -25.6,25.6c-187.31,0 -339.2,151.89 -339.2,339.2c0,14.14 -11.46,25.6 -25.6,25.6h-81.06c-14.14,0 -25.6,-11.46 -25.6,-25.6c0,-260.18 211.28,-471.46 471.46,-471.46c14.14,0 25.6,11.46 25.6,25.6zM121.6,430.94v-81.07c0,-14.14 11.46,-25.6 25.6,-25.6c97.73,0 177.06,-79.33 177.06,-177.06c0,-14.14 11.46,-25.6 25.6,-25.6h81.07c14.14,0 25.6,11.46 25.6,25.6c0,171 -138.33,309.34 -309.34,309.34c-14.14,0 -25.6,-11.46 -25.6,-25.6zM902.4,593.06v81.07c0,14.14 -11.46,25.6 -25.6,25.6c-97.73,0 -177.06,79.33 -177.06,177.06c0,14.14 -11.46,25.6 -25.6,25.6h-81.07c-14.14,0 -25.6,-11.46 -25.6,-25.6c0,-171 138.33,-309.34 309.34,-309.34c14.14,0 25.6,11.46 25.6,25.6zM902.4,755.2v121.6c0,14.14 -11.46,25.6 -25.6,25.6h-121.6c-14.14,0 -25.6,-11.46 -25.6,-25.6c0,-81.43 65.77,-147.2 147.2,-147.2c14.14,0 25.6,11.46 25.6,25.6zM121.6,268.8v-121.6c0,-14.14 11.46,-25.6 25.6,-25.6h121.6c14.14,0 25.6,11.46 25.6,25.6c0,81.43 -65.77,147.2 -147.2,147.2c-14.14,0 -25.6,-11.46 -25.6,-25.6zM430.94,876.8h81.06c0,-201.45 163.35,-364.8 364.8,-364.8v-81.06c-246.04,0 -445.86,199.82 -445.86,445.86zM593.06,147.2h-81.06c0,201.45 -163.35,364.8 -364.8,364.8v81.06c246.44,0 445.86,-199.82 445.86,-445.86zM593.06,876.8h81.07c0,-111.87 90.79,-202.66 202.66,-202.66v-81.07c-156.86,0 -283.74,126.87 -283.74,283.74zM430.94,147.2h-81.07c0,111.87 -90.79,202.66 -202.66,202.66v81.07c156.86,0 283.74,-126.87 283.74,-283.74zM268.8,147.2h-121.6v121.6c67.29,0 121.6,-54.31 121.6,-121.6zM755.2,876.8h121.6v-121.6c-67.29,0 -121.6,54.31 -121.6,121.6z" fill="#ffffff"/>
		</mask>
		<mask id="mask-xapnWktr">
			<path d="M121.6,593.06v-81.06c0,-14.14 11.46,-25.6 25.6,-25.6c187.31,0 339.2,-151.89 339.2,-339.2c0,-14.14 11.46,-25.6 25.6,-25.6h81.06c14.14,0 25.6,11.46 25.6,25.6c0,260.16 -210.87,471.46 -471.46,471.46c-14.14,0 -25.6,-11.46 -25.6,-25.6zM902.4,430.94v81.06c0,14.14 -11.46,25.6 -25.6,25.6c-187.31,0 -339.2,151.89 -339.2,339.2c0,14.14 -11.46,25.6 -25.6,25.6h-81.06c-14.14,0 -25.6,-11.46 -25.6,-25.6c0,-260.18 211.28,-471.46 471.46,-471.46c14.14,0 25.6,11.46 25.6,25.6zM121.6,430.94v-81.07c0,-14.14 11.46,-25.6 25.6,-25.6c97.73,0 177.06,-79.33 177.06,-177.06c0,-14.14 11.46,-25.6 25.6,-25.6h81.07c14.14,0 25.6,11.46 25.6,25.6c0,171 -138.33,309.34 -309.34,309.34c-14.14,0 -25.6,-11.46 -25.6,-25.6zM902.4,593.06v81.07c0,14.14 -11.46,25.6 -25.6,25.6c-97.73,0 -177.06,79.33 -177.06,177.06c0,14.14 -11.46,25.6 -25.6,25.6h-81.07c-14.14,0 -25.6,-11.46 -25.6,-25.6c0,-171 138.33,-309.34 309.34,-309.34c14.14,0 25.6,11.46 25.6,25.6zM902.4,755.2v121.6c0,14.14 -11.46,25.6 -25.6,25.6h-121.6c-14.14,0 -25.6,-11.46 -25.6,-25.6c0,-81.43 65.77,-147.2 147.2,-147.2c14.14,0 25.6,11.46 25.6,25.6zM121.6,268.8v-121.6c0,-14.14 11.46,-25.6 25.6,-25.6h121.6c14.14,0 25.6,11.46 25.6,25.6c0,81.43 -65.77,147.2 -147.2,147.2c-14.14,0 -25.6,-11.46 -25.6,-25.6zM430.94,876.8h81.06c0,-201.45 163.35,-364.8 364.8,-364.8v-81.06c-246.04,0 -445.86,199.82 -445.86,445.86zM593.06,147.2h-81.06c0,201.45 -163.35,364.8 -364.8,364.8v81.06c246.44,0 445.86,-199.82 445.86,-445.86zM593.06,876.8h81.07c0,-111.87 90.79,-202.66 202.66,-202.66v-81.07c-156.86,0 -283.74,126.87 -283.74,283.74zM430.94,147.2h-81.07c0,111.87 -90.79,202.66 -202.66,202.66v81.07c156.86,0 283.74,-126.87 283.74,-283.74zM268.8,147.2h-121.6v121.6c67.29,0 121.6,-54.31 121.6,-121.6zM755.2,876.8h121.6v-121.6c-67.29,0 -121.6,54.31 -121.6,121.6z" fill="url(#color-GTTzdQjD)"/>
		</mask>
	</defs>
	<g fill="none" fill-rule="nonzero" style="mix-blend-mode: normal">
		<g mask="url(#mask-rJbOKfY7)">
			<g color="#ff0000" class="teamapps-color-2">
				<rect x="121.6" y="121.6" width="780.8" height="780.8" fill="currentColor"/>
			</g>
			<g color="#bc13e0" class="teamapps-color-3" mask="url(#mask-rI1DyLIn)">
				<rect x="121.6" y="121.6" width="780.8" height="780.8" fill="currentColor"/>
			</g>
		</g>
		<g filter="url(#filter-IJW0LnPN)" mask="url(#mask-xapnWktr)">
			<g color="#fff961" class="teamapps-color-1">
				<rect x="121.6" y="121.6" width="780.8" height="780.8" fill="currentColor"/>
			</g>
		</g>
	</g>
</svg>