<svg version="1.1" xmlns="http://www.w3.org/2000/svg" xmlns:xlink="http://www.w3.org/1999/xlink" viewBox="0,0,1024,1024">
	<!-- Color names: teamapps-color-1, teamapps-color-2, teamapps-color-3 -->
	<desc>location_off icon - Licensed under Apache License v2.0 (http://www.apache.org/licenses/LICENSE-2.0) - Created with Iconfu.com - Derivative work of Material icons (Copyright Google Inc.)</desc>
	<defs>
		<radialGradient cx="0" cy="0" r="1448.15" id="color-4zJoFdXZ" gradientUnits="userSpaceOnUse">
			<stop offset="0.08" stop-color="#ffffff"/>
			<stop offset="1" stop-color="#000000"/>
		</radialGradient>
		<linearGradient x1="0" y1="1024" x2="1024" y2="0" id="color-JgwyBhGR" gradientUnits="userSpaceOnUse">
			<stop offset="0.2" stop-color="#000000"/>
			<stop offset="0.8" stop-color="#ffffff"/>
		</linearGradient>
		<filter id="filter-FG6VqIAR" color-interpolation-filters="sRGB">
			<feOffset/>
		</filter>
		<mask id="mask-0M7Pcwqz">
			<path d="M854.37,843.42l-51.47,51.48c-10,10 -26.21,10 -36.2,0l-114.17,-114.17c-63.65,89.64 -121.19,153.4 -121.51,153.75c-4.85,5.38 -11.76,8.45 -19,8.45c-7.24,0 -14.15,-3.07 -19,-8.44c0,0 -290.34,-321.45 -290.34,-544.1c0,-18.7 1.95,-36.93 5.1,-54.41l-119.21,-119.21c-10,-10 -10,-26.21 0,-36.2l51.48,-51.48c10,-10 26.21,-10 36.2,0l678.12,678.12c10,10 10,26.2 0,36.2zM418.92,341.21l-129.3,-129.29c-9.89,-9.89 -10.01,-25.88 -0.28,-35.92c56.4,-58.16 135.06,-94.93 222.67,-94.93c171,0 309.34,138.33 309.34,309.34c0,74.44 -31.58,157.58 -71.86,234.05c-3.79,7.2 -10.78,12.16 -18.82,13.38c-8.04,1.22 -16.18,-1.46 -21.93,-7.21l-147.14,-147.14c-10.29,-10.29 -9.94,-27.08 0.77,-36.94c15.59,-14.35 25.38,-34.08 25.38,-56.15c0,-41.8 -33.94,-75.74 -75.74,-75.74c-22.25,0 -41.74,9.51 -55.81,25.41c-9.78,11.05 -26.84,11.57 -37.28,1.14zM158.14,147.2l-51.48,51.48l128.9,128.9c-4.46,20.26 -7.3,41.34 -7.3,62.82c0,212.8 283.74,526.94 283.74,526.94c0,0 67.69,-74.98 137,-176.32l135.79,135.78l51.47,-51.48zM512,289.06c55.94,0 101.34,45.4 101.34,101.34c0,29.99 -13.39,56.34 -33.65,74.98l147.14,147.14c39.72,-75.39 68.91,-154.02 68.91,-222.12c0,-156.86 -126.87,-283.74 -283.74,-283.74c-80.26,0 -152.41,33.65 -204.29,87.15l129.3,129.29c18.65,-21.08 44.99,-34.05 74.98,-34.05z" fill="url(#color-4zJoFdXZ)"/>
		</mask>
		<mask id="mask-YA3d8Uam">
			<rect fill="url(#color-JgwyBhGR)" x="81.06" y="81.06" width="780.8" height="861.87"/>
		</mask>
		<mask id="mask-Z4sKQwIA">
			<path d="M854.37,843.42l-51.47,51.48c-10,10 -26.21,10 -36.2,0l-114.17,-114.17c-63.65,89.64 -121.19,153.4 -121.51,153.75c-4.85,5.38 -11.76,8.45 -19,8.45c-7.24,0 -14.15,-3.07 -19,-8.44c0,0 -290.34,-321.45 -290.34,-544.1c0,-18.7 1.95,-36.93 5.1,-54.41l-119.21,-119.21c-10,-10 -10,-26.21 0,-36.2l51.48,-51.48c10,-10 26.21,-10 36.2,0l678.12,678.12c10,10 10,26.2 0,36.2zM418.92,341.21l-129.3,-129.29c-9.89,-9.89 -10.01,-25.88 -0.28,-35.92c56.4,-58.16 135.06,-94.93 222.67,-94.93c171,0 309.34,138.33 309.34,309.34c0,74.44 -31.58,157.58 -71.86,234.05c-3.79,7.2 -10.78,12.16 -18.82,13.38c-8.04,1.22 -16.18,-1.46 -21.93,-7.21l-147.14,-147.14c-10.29,-10.29 -9.94,-27.08 0.77,-36.94c15.59,-14.35 25.38,-34.08 25.38,-56.15c0,-41.8 -33.94,-75.74 -75.74,-75.74c-22.25,0 -41.74,9.51 -55.81,25.41c-9.78,11.05 -26.84,11.57 -37.28,1.14zM158.14,147.2l-51.48,51.48l128.9,128.9c-4.46,20.26 -7.3,41.34 -7.3,62.82c0,212.8 283.74,526.94 283.74,526.94c0,0 67.69,-74.98 137,-176.32l135.79,135.78l51.47,-51.48zM512,289.06c55.94,0 101.34,45.4 101.34,101.34c0,29.99 -13.39,56.34 -33.65,74.98l147.14,147.14c39.72,-75.39 68.91,-154.02 68.91,-222.12c0,-156.86 -126.87,-283.74 -283.74,-283.74c-80.26,0 -152.41,33.65 -204.29,87.15l129.3,129.29c18.65,-21.08 44.99,-34.05 74.98,-34.05z" fill="#ffffff"/>
		</mask>
	</defs>
	<g fill="none" fill-rule="nonzero" style="mix-blend-mode: normal">
		<g mask="url(#mask-Z4sKQwIA)">
			<g color="#ff0000" class="teamapps-color-2">
				<rect x="81.06" y="81.06" width="780.8" height="861.87" fill="currentColor"/>
			</g>
			<g color="#bc13e0" class="teamapps-color-3" mask="url(#mask-YA3d8Uam)">
				<rect x="81.06" y="81.06" width="780.8" height="861.87" fill="currentColor"/>
			</g>
		</g>
		<g filter="url(#filter-FG6VqIAR)" mask="url(#mask-0M7Pcwqz)">
			<g color="#fff961" class="teamapps-color-1">
				<rect x="81.06" y="81.06" width="780.8" height="861.87" fill="currentColor"/>
			</g>
		</g>
	</g>
</svg>