<svg version="1.1" xmlns="http://www.w3.org/2000/svg" xmlns:xlink="http://www.w3.org/1999/xlink" viewBox="0,0,1024,1024">
	<!-- Color names: teamapps-color-1, teamapps-color-2, teamapps-color-3 -->
	<desc>local_cafe icon - Licensed under Apache License v2.0 (http://www.apache.org/licenses/LICENSE-2.0) - Created with Iconfu.com - Derivative work of Material icons (Copyright Google Inc.)</desc>
	<defs>
		<linearGradient x1="0" y1="1024" x2="1024" y2="0" id="color-qYepFHcj" gradientUnits="userSpaceOnUse">
			<stop offset="0.2" stop-color="#000000"/>
			<stop offset="0.8" stop-color="#ffffff"/>
		</linearGradient>
		<radialGradient cx="0" cy="0" r="1448.15" id="color-y2nlNuiK" gradientUnits="userSpaceOnUse">
			<stop offset="0.08" stop-color="#ffffff"/>
			<stop offset="1" stop-color="#000000"/>
		</radialGradient>
		<filter id="filter-BtVVGR6C" color-interpolation-filters="sRGB">
			<feOffset/>
		</filter>
		<mask id="mask-aJxOsaUB">
			<rect fill="url(#color-qYepFHcj)" x="81.06" y="121.6" width="861.87" height="780.8"/>
		</mask>
		<mask id="mask-D2F6uPlY">
			<path d="M942.94,228.26v121.6c0,59.13 -47.54,106.67 -106.67,106.67h-55.46v96c0,103.72 -84.02,187.73 -187.74,187.73h-243.2c-103.71,0 -187.73,-84.01 -187.73,-187.73v-405.34c0,-14.14 11.46,-25.6 25.6,-25.6h648.53c59.13,0 106.67,47.53 106.67,106.66zM106.66,770.14h729.6c14.14,0 25.6,11.46 25.6,25.6v81.06c0,14.14 -11.46,25.6 -25.6,25.6h-729.6c-14.14,0 -25.6,-11.46 -25.6,-25.6v-81.06c0,-14.14 11.46,-25.6 25.6,-25.6zM780.8,253.86v70.4h29.86v-70.4zM836.26,147.2h-648.53v405.34c0,89.58 72.55,162.13 162.13,162.13h243.2c89.58,0 162.14,-72.55 162.14,-162.13v-121.6h81.06c44.99,0 81.07,-36.08 81.07,-81.07v-121.6c0,-44.99 -36.08,-81.06 -81.07,-81.06zM106.66,876.8h729.6v-81.06h-729.6zM836.26,349.86h-81.06v-121.6h81.06z" fill="#ffffff"/>
		</mask>
		<mask id="mask-SjVrpvcf">
			<path d="M942.94,228.26v121.6c0,59.13 -47.54,106.67 -106.67,106.67h-55.46v96c0,103.72 -84.02,187.73 -187.74,187.73h-243.2c-103.71,0 -187.73,-84.01 -187.73,-187.73v-405.34c0,-14.14 11.46,-25.6 25.6,-25.6h648.53c59.13,0 106.67,47.53 106.67,106.66zM106.66,770.14h729.6c14.14,0 25.6,11.46 25.6,25.6v81.06c0,14.14 -11.46,25.6 -25.6,25.6h-729.6c-14.14,0 -25.6,-11.46 -25.6,-25.6v-81.06c0,-14.14 11.46,-25.6 25.6,-25.6zM780.8,253.86v70.4h29.86v-70.4zM836.26,147.2h-648.53v405.34c0,89.58 72.55,162.13 162.13,162.13h243.2c89.58,0 162.14,-72.55 162.14,-162.13v-121.6h81.06c44.99,0 81.07,-36.08 81.07,-81.07v-121.6c0,-44.99 -36.08,-81.06 -81.07,-81.06zM106.66,876.8h729.6v-81.06h-729.6zM836.26,349.86h-81.06v-121.6h81.06z" fill="url(#color-y2nlNuiK)"/>
		</mask>
	</defs>
	<g fill="none" fill-rule="nonzero" style="mix-blend-mode: normal">
		<g mask="url(#mask-D2F6uPlY)">
			<g color="#ff0000" class="teamapps-color-2">
				<rect x="81.06" y="121.6" width="861.87" height="780.8" fill="currentColor"/>
			</g>
			<g color="#bc13e0" class="teamapps-color-3" mask="url(#mask-aJxOsaUB)">
				<rect x="81.06" y="121.6" width="861.87" height="780.8" fill="currentColor"/>
			</g>
		</g>
		<g filter="url(#filter-BtVVGR6C)" mask="url(#mask-SjVrpvcf)">
			<g color="#fff961" class="teamapps-color-1">
				<rect x="81.06" y="121.6" width="861.87" height="780.8" fill="currentColor"/>
			</g>
		</g>
	</g>
</svg>