<svg version="1.1" xmlns="http://www.w3.org/2000/svg" xmlns:xlink="http://www.w3.org/1999/xlink" viewBox="0,0,1024,1024">
	<!-- Color names: teamapps-color-1, teamapps-color-2, teamapps-color-3 -->
	<desc>local_movies icon - Licensed under Apache License v2.0 (http://www.apache.org/licenses/LICENSE-2.0) - Created with Iconfu.com - Derivative work of Material icons (Copyright Google Inc.)</desc>
	<defs>
		<linearGradient x1="0" y1="1024" x2="1024" y2="0" id="color-SfiQ9uC9" gradientUnits="userSpaceOnUse">
			<stop offset="0.2" stop-color="#000000"/>
			<stop offset="0.8" stop-color="#ffffff"/>
		</linearGradient>
		<radialGradient cx="0" cy="0" r="1448.15" id="color-tCCrADOE" gradientUnits="userSpaceOnUse">
			<stop offset="0.08" stop-color="#ffffff"/>
			<stop offset="1" stop-color="#000000"/>
		</radialGradient>
		<filter id="filter-hHMs9wrr" color-interpolation-filters="sRGB">
			<feOffset/>
		</filter>
		<mask id="mask-A2DHtiPL">
			<path d="M861.86,147.2v729.6c0,14.14 -11.46,25.6 -25.6,25.6h-81.06c-14.14,0 -25.6,-11.46 -25.6,-25.6v-55.46h-29.86v55.46c0,14.14 -11.46,25.6 -25.6,25.6h-324.27c-14.14,0 -25.6,-11.46 -25.6,-25.6v-55.46h-29.86v55.46c0,14.14 -11.46,25.6 -25.6,25.6h-81.06c-14.14,0 -25.6,-11.46 -25.6,-25.6v-729.6c0,-14.14 11.46,-25.6 25.6,-25.6h81.06c14.14,0 25.6,11.46 25.6,25.6v55.46h29.86v-55.46c0,-14.14 11.46,-25.6 25.6,-25.6h324.27c14.14,0 25.6,11.46 25.6,25.6v55.46h29.86v-55.46c0,-14.14 11.46,-25.6 25.6,-25.6h81.06c14.14,0 25.6,11.46 25.6,25.6zM699.74,497.06v29.87h29.86v-29.87zM294.4,497.06v29.87h29.86v-29.87zM699.74,334.94v29.86h29.86v-29.86zM294.4,334.94v29.86h29.86v-29.86zM294.4,659.2v29.86h29.86v-29.86zM699.74,659.2v29.86h29.86v-29.86zM755.2,147.2v81.06h-81.06v-81.06h-324.27v81.06h-81.06v-81.06h-81.06v729.6h81.06v-81.06h81.06v81.06h324.27v-81.06h81.06v81.06h81.06v-729.6zM755.2,390.4h-81.06v-81.06h81.06zM349.86,390.4h-81.06v-81.06h81.06zM755.2,552.54h-81.06v-81.07h81.06zM349.86,552.54h-81.06v-81.07h81.06zM755.2,714.66h-81.06v-81.06h81.06zM349.86,714.66h-81.06v-81.06h81.06z" fill="url(#color-tCCrADOE)"/>
		</mask>
		<mask id="mask-ugmem9Sz">
			<path d="M861.86,147.2v729.6c0,14.14 -11.46,25.6 -25.6,25.6h-81.06c-14.14,0 -25.6,-11.46 -25.6,-25.6v-55.46h-29.86v55.46c0,14.14 -11.46,25.6 -25.6,25.6h-324.27c-14.14,0 -25.6,-11.46 -25.6,-25.6v-55.46h-29.86v55.46c0,14.14 -11.46,25.6 -25.6,25.6h-81.06c-14.14,0 -25.6,-11.46 -25.6,-25.6v-729.6c0,-14.14 11.46,-25.6 25.6,-25.6h81.06c14.14,0 25.6,11.46 25.6,25.6v55.46h29.86v-55.46c0,-14.14 11.46,-25.6 25.6,-25.6h324.27c14.14,0 25.6,11.46 25.6,25.6v55.46h29.86v-55.46c0,-14.14 11.46,-25.6 25.6,-25.6h81.06c14.14,0 25.6,11.46 25.6,25.6zM699.74,497.06v29.87h29.86v-29.87zM294.4,497.06v29.87h29.86v-29.87zM699.74,334.94v29.86h29.86v-29.86zM294.4,334.94v29.86h29.86v-29.86zM294.4,659.2v29.86h29.86v-29.86zM699.74,659.2v29.86h29.86v-29.86zM755.2,147.2v81.06h-81.06v-81.06h-324.27v81.06h-81.06v-81.06h-81.06v729.6h81.06v-81.06h81.06v81.06h324.27v-81.06h81.06v81.06h81.06v-729.6zM755.2,390.4h-81.06v-81.06h81.06zM349.86,390.4h-81.06v-81.06h81.06zM755.2,552.54h-81.06v-81.07h81.06zM349.86,552.54h-81.06v-81.07h81.06zM755.2,714.66h-81.06v-81.06h81.06zM349.86,714.66h-81.06v-81.06h81.06z" fill="#ffffff"/>
		</mask>
		<mask id="mask-ZjS7DVWt">
			<rect fill="url(#color-SfiQ9uC9)" x="162.14" y="121.6" width="699.73" height="780.8"/>
		</mask>
	</defs>
	<g fill="none" fill-rule="nonzero" style="mix-blend-mode: normal">
		<g mask="url(#mask-ugmem9Sz)">
			<g color="#ff0000" class="teamapps-color-2">
				<rect x="162.14" y="121.6" width="699.73" height="780.8" fill="currentColor"/>
			</g>
			<g color="#bc13e0" class="teamapps-color-3" mask="url(#mask-ZjS7DVWt)">
				<rect x="162.14" y="121.6" width="699.73" height="780.8" fill="currentColor"/>
			</g>
		</g>
		<g filter="url(#filter-hHMs9wrr)" mask="url(#mask-A2DHtiPL)">
			<g color="#fff961" class="teamapps-color-1">
				<rect x="162.14" y="121.6" width="699.73" height="780.8" fill="currentColor"/>
			</g>
		</g>
	</g>
</svg>