<svg version="1.1" xmlns="http://www.w3.org/2000/svg" xmlns:xlink="http://www.w3.org/1999/xlink" viewBox="0,0,1024,1024">
	<!-- Color names: teamapps-color-1, teamapps-color-2, teamapps-color-3 -->
	<desc>location_city icon - Licensed under Apache License v2.0 (http://www.apache.org/licenses/LICENSE-2.0) - Created with Iconfu.com - Derivative work of Material icons (Copyright Google Inc.)</desc>
	<defs>
		<linearGradient x1="0" y1="1024" x2="1024" y2="0" id="color-5sIU9U0H" gradientUnits="userSpaceOnUse">
			<stop offset="0.2" stop-color="#000000"/>
			<stop offset="0.8" stop-color="#ffffff"/>
		</linearGradient>
		<radialGradient cx="0" cy="0" r="1448.15" id="color-brnxtPuO" gradientUnits="userSpaceOnUse">
			<stop offset="0.08" stop-color="#ffffff"/>
			<stop offset="1" stop-color="#000000"/>
		</radialGradient>
		<filter id="filter-zVTeNB6w" color-interpolation-filters="sRGB">
			<feOffset/>
		</filter>
		<mask id="mask-Tl6xWhUY">
			<path d="M902.4,471.46v405.34c0,14.14 -11.46,25.6 -25.6,25.6h-729.6c-14.14,0 -25.6,-11.46 -25.6,-25.6v-567.46c0,-14.14 11.46,-25.6 25.6,-25.6h217.6v-55.47c0,-6.79 2.7,-13.3 7.5,-18.1l121.6,-121.6c10,-10 26.21,-10 36.2,0l121.6,121.6c4.8,4.8 7.5,11.31 7.5,18.1v217.6h217.6c14.14,0 25.6,11.46 25.6,25.6zM740.26,740.26v29.87h29.87v-29.87zM283.74,740.26h-29.87v29.87h29.87zM497.06,740.26v29.87h29.87v-29.87zM497.06,253.86v29.87h29.87v-29.87zM740.26,578.14v29.86h29.87v-29.86zM253.86,578.14v29.86h29.87v-29.86zM497.06,578.14v29.86h29.87v-29.86zM253.86,416v29.86h29.87v-29.86zM497.06,416v29.86h29.87v-29.86zM633.6,471.46v-243.2l-121.6,-121.6l-121.6,121.6v81.07h-243.2v567.46h729.6v-405.34zM795.74,795.74h-81.07v-81.07h81.07zM795.74,633.6h-81.07v-81.06h81.07zM309.34,795.74h-81.07v-81.07h81.07zM309.34,633.6h-81.07v-81.06h81.07zM552.54,795.74h-81.07v-81.07h81.07zM552.54,633.6h-81.07v-81.06h81.07zM309.34,471.46h-81.07v-81.06h81.07zM552.54,471.46h-81.07v-81.06h81.07zM552.54,309.34h-81.07v-81.07h81.07z" fill="url(#color-brnxtPuO)"/>
		</mask>
		<mask id="mask-vJl7H0AY">
			<path d="M902.4,471.46v405.34c0,14.14 -11.46,25.6 -25.6,25.6h-729.6c-14.14,0 -25.6,-11.46 -25.6,-25.6v-567.46c0,-14.14 11.46,-25.6 25.6,-25.6h217.6v-55.47c0,-6.79 2.7,-13.3 7.5,-18.1l121.6,-121.6c10,-10 26.21,-10 36.2,0l121.6,121.6c4.8,4.8 7.5,11.31 7.5,18.1v217.6h217.6c14.14,0 25.6,11.46 25.6,25.6zM740.26,740.26v29.87h29.87v-29.87zM283.74,740.26h-29.87v29.87h29.87zM497.06,740.26v29.87h29.87v-29.87zM497.06,253.86v29.87h29.87v-29.87zM740.26,578.14v29.86h29.87v-29.86zM253.86,578.14v29.86h29.87v-29.86zM497.06,578.14v29.86h29.87v-29.86zM253.86,416v29.86h29.87v-29.86zM497.06,416v29.86h29.87v-29.86zM633.6,471.46v-243.2l-121.6,-121.6l-121.6,121.6v81.07h-243.2v567.46h729.6v-405.34zM795.74,795.74h-81.07v-81.07h81.07zM795.74,633.6h-81.07v-81.06h81.07zM309.34,795.74h-81.07v-81.07h81.07zM309.34,633.6h-81.07v-81.06h81.07zM552.54,795.74h-81.07v-81.07h81.07zM552.54,633.6h-81.07v-81.06h81.07zM309.34,471.46h-81.07v-81.06h81.07zM552.54,471.46h-81.07v-81.06h81.07zM552.54,309.34h-81.07v-81.07h81.07z" fill="#ffffff"/>
		</mask>
		<mask id="mask-WwoH0ydk">
			<rect fill="url(#color-5sIU9U0H)" x="121.6" y="81.06" width="780.8" height="821.34"/>
		</mask>
	</defs>
	<g fill="none" fill-rule="nonzero" style="mix-blend-mode: normal">
		<g mask="url(#mask-vJl7H0AY)">
			<g color="#ff0000" class="teamapps-color-2">
				<rect x="121.6" y="81.06" width="780.8" height="821.34" fill="currentColor"/>
			</g>
			<g color="#bc13e0" class="teamapps-color-3" mask="url(#mask-WwoH0ydk)">
				<rect x="121.6" y="81.06" width="780.8" height="821.34" fill="currentColor"/>
			</g>
		</g>
		<g filter="url(#filter-zVTeNB6w)" mask="url(#mask-Tl6xWhUY)">
			<g color="#fff961" class="teamapps-color-1">
				<rect x="121.6" y="81.06" width="780.8" height="821.34" fill="currentColor"/>
			</g>
		</g>
	</g>
</svg>