<svg version="1.1" xmlns="http://www.w3.org/2000/svg" xmlns:xlink="http://www.w3.org/1999/xlink" viewBox="0,0,1024,1024">
	<!-- Color names: teamapps-color-1, teamapps-color-2, teamapps-color-3 -->
	<desc>local_play icon - Licensed under Apache License v2.0 (http://www.apache.org/licenses/LICENSE-2.0) - Created with Iconfu.com - Derivative work of Material icons (Copyright Google Inc.)</desc>
	<defs>
		<linearGradient x1="0" y1="1024" x2="1024" y2="0" id="color-E8sqzzqV" gradientUnits="userSpaceOnUse">
			<stop offset="0.2" stop-color="#000000"/>
			<stop offset="0.8" stop-color="#ffffff"/>
		</linearGradient>
		<radialGradient cx="0" cy="0" r="1448.15" id="color-XLBvmwwx" gradientUnits="userSpaceOnUse">
			<stop offset="0.08" stop-color="#ffffff"/>
			<stop offset="1" stop-color="#000000"/>
		</radialGradient>
		<filter id="filter-GSGy7btS" color-interpolation-filters="sRGB">
			<feOffset/>
		</filter>
		<mask id="mask-dG3nyGWH">
			<path d="M942.94,593.06v162.14c0,58.73 -47.95,106.66 -106.67,106.66h-648.53c-58.72,0 -106.67,-47.94 -106.67,-106.66v-162.14c0,-14.14 11.46,-25.6 25.6,-25.6c30.78,0 55.47,-24.94 55.47,-55.46c0,-30.61 -24.78,-55.46 -55.06,-55.46c-14.14,0 -25.6,-11.46 -25.6,-25.6v-162.14c0,-58.55 47.38,-106.66 106.26,-106.66h648.53c58.72,0 106.67,47.94 106.67,106.66v162.14c0,14.14 -11.46,25.6 -25.6,25.6c-30.45,0 -55.47,25.02 -55.47,55.46c0,30.44 25.02,55.46 55.47,55.46c14.14,0 25.6,11.46 25.6,25.6zM596.72,520.15l82.58,-67.52l-106.39,-6.27c-9.98,-0.59 -18.71,-6.94 -22.34,-16.26l-38.68,-99.2l-38.89,98.87c-3.65,9.28 -12.36,15.6 -22.32,16.18l-106.39,6.28l82.58,67.52c7.75,6.34 11.1,16.62 8.56,26.31l-27.12,103.48l89.86,-57.73c8.43,-5.42 19.24,-5.42 27.67,0l89.62,57.58l-27.28,-102.84c-2.57,-9.71 0.76,-20.02 8.54,-26.38zM836.26,512c0,-44.58 36.49,-81.06 81.07,-81.06v-162.14c0,-44.58 -36.49,-81.06 -81.07,-81.06h-648.53c-44.58,0 -80.66,36.48 -80.66,81.06v162.14c44.58,0 80.66,36.48 80.66,81.06c0,44.58 -36.08,81.06 -81.07,81.06v162.14c0,44.58 36.49,81.06 81.07,81.06h648.53c44.58,0 81.07,-36.48 81.07,-81.06v-162.14c-44.58,0 -81.07,-36.48 -81.07,-81.06zM657.11,706.56l-145.11,-93.22l-145.11,93.22l43.78,-167l-133.35,-109.03l171.86,-10.14l62.82,-159.69l62.42,160.1l171.86,10.14l-133.35,109.03z" fill="#ffffff"/>
		</mask>
		<mask id="mask-MXUC5IdB">
			<rect fill="url(#color-E8sqzzqV)" x="81.06" y="162.14" width="861.87" height="699.73"/>
		</mask>
		<mask id="mask-OKal1v80">
			<path d="M942.94,593.06v162.14c0,58.73 -47.95,106.66 -106.67,106.66h-648.53c-58.72,0 -106.67,-47.94 -106.67,-106.66v-162.14c0,-14.14 11.46,-25.6 25.6,-25.6c30.78,0 55.47,-24.94 55.47,-55.46c0,-30.61 -24.78,-55.46 -55.06,-55.46c-14.14,0 -25.6,-11.46 -25.6,-25.6v-162.14c0,-58.55 47.38,-106.66 106.26,-106.66h648.53c58.72,0 106.67,47.94 106.67,106.66v162.14c0,14.14 -11.46,25.6 -25.6,25.6c-30.45,0 -55.47,25.02 -55.47,55.46c0,30.44 25.02,55.46 55.47,55.46c14.14,0 25.6,11.46 25.6,25.6zM596.72,520.15l82.58,-67.52l-106.39,-6.27c-9.98,-0.59 -18.71,-6.94 -22.34,-16.26l-38.68,-99.2l-38.89,98.87c-3.65,9.28 -12.36,15.6 -22.32,16.18l-106.39,6.28l82.58,67.52c7.75,6.34 11.1,16.62 8.56,26.31l-27.12,103.48l89.86,-57.73c8.43,-5.42 19.24,-5.42 27.67,0l89.62,57.58l-27.28,-102.84c-2.57,-9.71 0.76,-20.02 8.54,-26.38zM836.26,512c0,-44.58 36.49,-81.06 81.07,-81.06v-162.14c0,-44.58 -36.49,-81.06 -81.07,-81.06h-648.53c-44.58,0 -80.66,36.48 -80.66,81.06v162.14c44.58,0 80.66,36.48 80.66,81.06c0,44.58 -36.08,81.06 -81.07,81.06v162.14c0,44.58 36.49,81.06 81.07,81.06h648.53c44.58,0 81.07,-36.48 81.07,-81.06v-162.14c-44.58,0 -81.07,-36.48 -81.07,-81.06zM657.11,706.56l-145.11,-93.22l-145.11,93.22l43.78,-167l-133.35,-109.03l171.86,-10.14l62.82,-159.69l62.42,160.1l171.86,10.14l-133.35,109.03z" fill="url(#color-XLBvmwwx)"/>
		</mask>
	</defs>
	<g fill="none" fill-rule="nonzero" style="mix-blend-mode: normal">
		<g mask="url(#mask-dG3nyGWH)">
			<g color="#ff0000" class="teamapps-color-2">
				<rect x="81.06" y="162.14" width="861.87" height="699.73" fill="currentColor"/>
			</g>
			<g color="#bc13e0" class="teamapps-color-3" mask="url(#mask-MXUC5IdB)">
				<rect x="81.06" y="162.14" width="861.87" height="699.73" fill="currentColor"/>
			</g>
		</g>
		<g filter="url(#filter-GSGy7btS)" mask="url(#mask-OKal1v80)">
			<g color="#fff961" class="teamapps-color-1">
				<rect x="81.06" y="162.14" width="861.87" height="699.73" fill="currentColor"/>
			</g>
		</g>
	</g>
</svg>