<svg version="1.1" xmlns="http://www.w3.org/2000/svg" xmlns:xlink="http://www.w3.org/1999/xlink" viewBox="0,0,1024,1024">
	<!-- Color names: teamapps-color-1, teamapps-color-2, teamapps-color-3 -->
	<desc>loyalty icon - Licensed under Apache License v2.0 (http://www.apache.org/licenses/LICENSE-2.0) - Created with Iconfu.com - Derivative work of Material icons (Copyright Google Inc.)</desc>
	<defs>
		<linearGradient x1="0" y1="1024" x2="1024" y2="0" id="color-VQIPOZtS" gradientUnits="userSpaceOnUse">
			<stop offset="0.2" stop-color="#000000"/>
			<stop offset="0.8" stop-color="#ffffff"/>
		</linearGradient>
		<radialGradient cx="0" cy="0" r="1448.15" id="color-XIQNR5kX" gradientUnits="userSpaceOnUse">
			<stop offset="0.08" stop-color="#ffffff"/>
			<stop offset="1" stop-color="#000000"/>
		</radialGradient>
		<filter id="filter-aAcil9uW" color-interpolation-filters="sRGB">
			<feOffset/>
		</filter>
		<mask id="mask-RyX6oyia">
			<rect fill="url(#color-VQIPOZtS)" x="81.06" y="81.06" width="861.87" height="861.87"/>
		</mask>
		<mask id="mask-WnXQIA0M">
			<path d="M942.94,552.54c0,29.2 -11.71,56.01 -31.54,75.37l-283.49,283.49c-19.36,19.83 -46.17,31.54 -75.37,31.54c-29.23,0 -55.97,-11.72 -75.25,-31.01l-364.8,-364.8c-19.63,-19.63 -31.42,-46.33 -31.42,-75.66v-283.73c0,-58.72 47.95,-106.67 106.67,-106.67h283.73c29.23,0 55.97,11.72 75.25,31.01l364.8,364.8c19.15,19.15 31.42,46.24 31.42,75.66zM729.6,572.8c0,-41.8 -33.94,-75.74 -75.74,-75.74c-20.97,0 -40.05,8.51 -53.64,22.09l-29.58,29.59c-9.95,9.95 -26.06,10.01 -36.08,0.13l-29.69,-29.29c-0.08,-0.07 -0.15,-0.15 -0.22,-0.22c-13.52,-13.82 -32.5,-22.3 -53.44,-22.3c-41.8,0 -75.74,33.94 -75.74,75.74c0,20.77 8.36,39.56 22.2,53.75l154.87,154.87l154.97,-154.98c13.59,-13.59 22.09,-32.67 22.09,-53.64zM283.74,248.54c0,-19.5 -15.7,-35.2 -35.2,-35.2c-19.5,0 -35.2,15.7 -35.2,35.2c0,19.5 15.7,35.2 35.2,35.2c19.5,0 35.2,-15.7 35.2,-35.2zM893.42,494.98l-364.8,-364.8c-14.59,-14.59 -34.86,-23.51 -57.15,-23.51h-283.73c-44.58,0 -81.07,36.49 -81.07,81.07v283.73c0,22.3 8.92,42.56 23.92,57.56l364.8,364.8c14.59,14.59 34.86,23.51 57.15,23.51c22.3,0 42.56,-8.92 57.15,-23.92l283.73,-283.73c15,-14.59 23.92,-34.86 23.92,-57.15c0,-22.3 -9.33,-42.97 -23.92,-57.56zM725.61,644.54l-173.07,173.08l-173.08,-173.08c-18.24,-18.65 -29.59,-43.78 -29.59,-71.74c0,-55.94 45.4,-101.34 101.34,-101.34c27.97,0 53.5,11.35 71.74,30l29.59,29.18l29.58,-29.59c18.24,-18.24 43.78,-29.59 71.74,-29.59c55.94,0 101.34,45.4 101.34,101.34c0,27.97 -11.35,53.5 -29.59,71.74zM248.54,309.34c-33.64,0 -60.8,-27.16 -60.8,-60.8c0,-33.64 27.16,-60.8 60.8,-60.8c33.64,0 60.8,27.16 60.8,60.8c0,33.64 -27.16,60.8 -60.8,60.8z" fill="#ffffff"/>
		</mask>
		<mask id="mask-XQ3J60SS">
			<path d="M942.94,552.54c0,29.2 -11.71,56.01 -31.54,75.37l-283.49,283.49c-19.36,19.83 -46.17,31.54 -75.37,31.54c-29.23,0 -55.97,-11.72 -75.25,-31.01l-364.8,-364.8c-19.63,-19.63 -31.42,-46.33 -31.42,-75.66v-283.73c0,-58.72 47.95,-106.67 106.67,-106.67h283.73c29.23,0 55.97,11.72 75.25,31.01l364.8,364.8c19.15,19.15 31.42,46.24 31.42,75.66zM729.6,572.8c0,-41.8 -33.94,-75.74 -75.74,-75.74c-20.97,0 -40.05,8.51 -53.64,22.09l-29.58,29.59c-9.95,9.95 -26.06,10.01 -36.08,0.13l-29.69,-29.29c-0.08,-0.07 -0.15,-0.15 -0.22,-0.22c-13.52,-13.82 -32.5,-22.3 -53.44,-22.3c-41.8,0 -75.74,33.94 -75.74,75.74c0,20.77 8.36,39.56 22.2,53.75l154.87,154.87l154.97,-154.98c13.59,-13.59 22.09,-32.67 22.09,-53.64zM283.74,248.54c0,-19.5 -15.7,-35.2 -35.2,-35.2c-19.5,0 -35.2,15.7 -35.2,35.2c0,19.5 15.7,35.2 35.2,35.2c19.5,0 35.2,-15.7 35.2,-35.2zM893.42,494.98l-364.8,-364.8c-14.59,-14.59 -34.86,-23.51 -57.15,-23.51h-283.73c-44.58,0 -81.07,36.49 -81.07,81.07v283.73c0,22.3 8.92,42.56 23.92,57.56l364.8,364.8c14.59,14.59 34.86,23.51 57.15,23.51c22.3,0 42.56,-8.92 57.15,-23.92l283.73,-283.73c15,-14.59 23.92,-34.86 23.92,-57.15c0,-22.3 -9.33,-42.97 -23.92,-57.56zM725.61,644.54l-173.07,173.08l-173.08,-173.08c-18.24,-18.65 -29.59,-43.78 -29.59,-71.74c0,-55.94 45.4,-101.34 101.34,-101.34c27.97,0 53.5,11.35 71.74,30l29.59,29.18l29.58,-29.59c18.24,-18.24 43.78,-29.59 71.74,-29.59c55.94,0 101.34,45.4 101.34,101.34c0,27.97 -11.35,53.5 -29.59,71.74zM248.54,309.34c-33.64,0 -60.8,-27.16 -60.8,-60.8c0,-33.64 27.16,-60.8 60.8,-60.8c33.64,0 60.8,27.16 60.8,60.8c0,33.64 -27.16,60.8 -60.8,60.8z" fill="url(#color-XIQNR5kX)"/>
		</mask>
	</defs>
	<g fill="none" fill-rule="nonzero" style="mix-blend-mode: normal">
		<g mask="url(#mask-WnXQIA0M)">
			<g color="#ff0000" class="teamapps-color-2">
				<rect x="81.06" y="81.06" width="861.87" height="861.87" fill="currentColor"/>
			</g>
			<g color="#bc13e0" class="teamapps-color-3" mask="url(#mask-RyX6oyia)">
				<rect x="81.06" y="81.06" width="861.87" height="861.87" fill="currentColor"/>
			</g>
		</g>
		<g filter="url(#filter-aAcil9uW)" mask="url(#mask-XQ3J60SS)">
			<g color="#fff961" class="teamapps-color-1">
				<rect x="81.06" y="81.06" width="861.87" height="861.87" fill="currentColor"/>
			</g>
		</g>
	</g>
</svg>