<svg version="1.1" xmlns="http://www.w3.org/2000/svg" xmlns:xlink="http://www.w3.org/1999/xlink" viewBox="0,0,1024,1024">
	<!-- Color names: teamapps-color-1, teamapps-color-2, teamapps-color-3 -->
	<desc>mood_bad icon - Licensed under Apache License v2.0 (http://www.apache.org/licenses/LICENSE-2.0) - Created with Iconfu.com - Derivative work of Material icons (Copyright Google Inc.)</desc>
	<defs>
		<linearGradient x1="0" y1="1024" x2="1024" y2="0" id="color-4hjdKyzj" gradientUnits="userSpaceOnUse">
			<stop offset="0.2" stop-color="#000000"/>
			<stop offset="0.8" stop-color="#ffffff"/>
		</linearGradient>
		<radialGradient cx="0" cy="0" r="1448.15" id="color-ta0V18AA" gradientUnits="userSpaceOnUse">
			<stop offset="0.08" stop-color="#ffffff"/>
			<stop offset="1" stop-color="#000000"/>
		</radialGradient>
		<filter id="filter-rOcFcmgr" color-interpolation-filters="sRGB">
			<feOffset/>
		</filter>
		<mask id="mask-Coyn3Ezb">
			<path d="M942.94,512c0,237.9 -193.07,430.94 -431.34,430.94c-237.92,0 -430.53,-193.09 -430.53,-430.94c0,-237.85 192.61,-430.94 430.53,-430.94c238.27,0 431.35,193.04 431.35,430.94zM810.66,512c0,-165.02 -133.64,-298.66 -298.66,-298.66c-165.02,0 -298.66,133.64 -298.66,298.66c0,75.78 28.18,144.94 74.64,197.58c39.76,-83.59 124.79,-142.12 224.03,-142.12c99.24,0 184.27,58.53 224.03,142.12c46.46,-52.64 74.64,-121.8 74.64,-197.58zM512,810.66c61.33,0 118.33,-18.46 165.74,-50.13h-331.48c47.41,31.67 104.41,50.13 165.74,50.13zM283.74,410.66c0,-47.78 38.62,-86.4 86.4,-86.4c47.78,0 86.4,38.62 86.4,86.4c0,47.78 -38.62,86.4 -86.4,86.4c-47.78,0 -86.4,-38.62 -86.4,-86.4zM567.46,410.66c0,-47.78 38.62,-86.4 86.4,-86.4c47.78,0 86.4,38.62 86.4,86.4c0,47.78 -38.62,86.4 -86.4,86.4c-47.78,0 -86.4,-38.62 -86.4,-86.4zM511.59,106.66c-223.74,0 -404.93,181.59 -404.93,405.34c0,223.74 181.18,405.34 404.93,405.34c224.15,0 405.75,-181.59 405.75,-405.34c0,-223.74 -181.59,-405.34 -405.74,-405.34zM512,836.26c-179.16,0 -324.26,-145.1 -324.26,-324.26c0,-179.16 145.1,-324.26 324.26,-324.26c179.16,0 324.26,145.1 324.26,324.26c0,179.16 -145.1,324.26 -324.26,324.26zM512,593.06c-94.44,0 -174.7,59.19 -207.13,141.87h414.26c-32.42,-82.69 -112.69,-141.87 -207.13,-141.87zM653.86,471.46c33.64,0 60.8,-27.16 60.8,-60.8c0,-33.64 -27.16,-60.8 -60.8,-60.8c-33.64,0 -60.8,27.16 -60.8,60.8c0,33.64 27.16,60.8 60.8,60.8zM370.14,471.46c33.64,0 60.8,-27.16 60.8,-60.8c0,-33.64 -27.16,-60.8 -60.8,-60.8c-33.64,0 -60.8,27.16 -60.8,60.8c0,33.64 27.16,60.8 60.8,60.8z" fill="#ffffff"/>
		</mask>
		<mask id="mask-qnBz6xIe">
			<rect fill="url(#color-4hjdKyzj)" x="81.06" y="81.06" width="861.87" height="861.87"/>
		</mask>
		<mask id="mask-qsRUaFoc">
			<path d="M942.94,512c0,237.9 -193.07,430.94 -431.34,430.94c-237.92,0 -430.53,-193.09 -430.53,-430.94c0,-237.85 192.61,-430.94 430.53,-430.94c238.27,0 431.35,193.04 431.35,430.94zM810.66,512c0,-165.02 -133.64,-298.66 -298.66,-298.66c-165.02,0 -298.66,133.64 -298.66,298.66c0,75.78 28.18,144.94 74.64,197.58c39.76,-83.59 124.79,-142.12 224.03,-142.12c99.24,0 184.27,58.53 224.03,142.12c46.46,-52.64 74.64,-121.8 74.64,-197.58zM512,810.66c61.33,0 118.33,-18.46 165.74,-50.13h-331.48c47.41,31.67 104.41,50.13 165.74,50.13zM283.74,410.66c0,-47.78 38.62,-86.4 86.4,-86.4c47.78,0 86.4,38.62 86.4,86.4c0,47.78 -38.62,86.4 -86.4,86.4c-47.78,0 -86.4,-38.62 -86.4,-86.4zM567.46,410.66c0,-47.78 38.62,-86.4 86.4,-86.4c47.78,0 86.4,38.62 86.4,86.4c0,47.78 -38.62,86.4 -86.4,86.4c-47.78,0 -86.4,-38.62 -86.4,-86.4zM511.59,106.66c-223.74,0 -404.93,181.59 -404.93,405.34c0,223.74 181.18,405.34 404.93,405.34c224.15,0 405.75,-181.59 405.75,-405.34c0,-223.74 -181.59,-405.34 -405.74,-405.34zM512,836.26c-179.16,0 -324.26,-145.1 -324.26,-324.26c0,-179.16 145.1,-324.26 324.26,-324.26c179.16,0 324.26,145.1 324.26,324.26c0,179.16 -145.1,324.26 -324.26,324.26zM512,593.06c-94.44,0 -174.7,59.19 -207.13,141.87h414.26c-32.42,-82.69 -112.69,-141.87 -207.13,-141.87zM653.86,471.46c33.64,0 60.8,-27.16 60.8,-60.8c0,-33.64 -27.16,-60.8 -60.8,-60.8c-33.64,0 -60.8,27.16 -60.8,60.8c0,33.64 27.16,60.8 60.8,60.8zM370.14,471.46c33.64,0 60.8,-27.16 60.8,-60.8c0,-33.64 -27.16,-60.8 -60.8,-60.8c-33.64,0 -60.8,27.16 -60.8,60.8c0,33.64 27.16,60.8 60.8,60.8z" fill="url(#color-ta0V18AA)"/>
		</mask>
	</defs>
	<g fill="none" fill-rule="nonzero" style="mix-blend-mode: normal">
		<g mask="url(#mask-Coyn3Ezb)">
			<g color="#ff0000" class="teamapps-color-2">
				<rect x="81.06" y="81.06" width="861.87" height="861.87" fill="currentColor"/>
			</g>
			<g color="#bc13e0" class="teamapps-color-3" mask="url(#mask-qnBz6xIe)">
				<rect x="81.06" y="81.06" width="861.87" height="861.87" fill="currentColor"/>
			</g>
		</g>
		<g filter="url(#filter-rOcFcmgr)" mask="url(#mask-qsRUaFoc)">
			<g color="#fff961" class="teamapps-color-1">
				<rect x="81.06" y="81.06" width="861.87" height="861.87" fill="currentColor"/>
			</g>
		</g>
	</g>
</svg>