<svg version="1.1" xmlns="http://www.w3.org/2000/svg" xmlns:xlink="http://www.w3.org/1999/xlink" viewBox="0,0,1024,1024">
	<!-- Color names: teamapps-color-1, teamapps-color-2, teamapps-color-3 -->
	<desc>nature icon - Licensed under Apache License v2.0 (http://www.apache.org/licenses/LICENSE-2.0) - Created with Iconfu.com - Derivative work of Material icons (Copyright Google Inc.)</desc>
	<defs>
		<radialGradient cx="0" cy="0" r="1448.15" id="color-7VN6qw6T" gradientUnits="userSpaceOnUse">
			<stop offset="0.08" stop-color="#ffffff"/>
			<stop offset="1" stop-color="#000000"/>
		</radialGradient>
		<linearGradient x1="0" y1="1024" x2="1024" y2="0" id="color-jVzz3JaN" gradientUnits="userSpaceOnUse">
			<stop offset="0.2" stop-color="#000000"/>
			<stop offset="0.8" stop-color="#ffffff"/>
		</linearGradient>
		<filter id="filter-U1Qk6C9L" color-interpolation-filters="sRGB">
			<feOffset/>
		</filter>
		<mask id="mask-lJsHuABK">
			<path d="M795.74,810.66c14.14,0 25.6,11.46 25.6,25.6v81.07c0,14.14 -11.46,25.6 -25.6,25.6h-567.47c-14.14,0 -25.6,-11.46 -25.6,-25.6v-81.07c0,-14.14 11.46,-25.6 25.6,-25.6h217.6v-113.18c-135.63,-32.56 -236.3,-154.39 -236.3,-300.19c0,-171 138.32,-309.33 309.33,-309.33c171,0 309.34,138.32 309.34,309.33c0,150.79 -107.77,276 -250.09,303.61v109.76zM552.54,679c140.65,-16.62 250.09,-136.2 250.09,-281.71c0,-156.86 -126.87,-283.73 -283.74,-283.73c-156.86,0 -283.73,126.86 -283.73,283.73c0,140.65 102.13,256.98 236.3,279.28v159.7h-243.2v81.07h567.47v-81.07h-243.2z" fill="#ffffff"/>
		</mask>
		<mask id="mask-o4sZCk7Q">
			<rect fill="url(#color-jVzz3JaN)" x="202.66" y="87.96" width="625.56" height="854.98"/>
		</mask>
		<mask id="mask-qtEdVGGT">
			<path d="M795.74,810.66c14.14,0 25.6,11.46 25.6,25.6v81.07c0,14.14 -11.46,25.6 -25.6,25.6h-567.47c-14.14,0 -25.6,-11.46 -25.6,-25.6v-81.07c0,-14.14 11.46,-25.6 25.6,-25.6h217.6v-113.18c-135.63,-32.56 -236.3,-154.39 -236.3,-300.19c0,-171 138.32,-309.33 309.33,-309.33c171,0 309.34,138.32 309.34,309.33c0,150.79 -107.77,276 -250.09,303.61v109.76zM552.54,679c140.65,-16.62 250.09,-136.2 250.09,-281.71c0,-156.86 -126.87,-283.73 -283.74,-283.73c-156.86,0 -283.73,126.86 -283.73,283.73c0,140.65 102.13,256.98 236.3,279.28v159.7h-243.2v81.07h567.47v-81.07h-243.2z" fill="url(#color-7VN6qw6T)"/>
		</mask>
	</defs>
	<g fill="none" fill-rule="nonzero" style="mix-blend-mode: normal">
		<g mask="url(#mask-lJsHuABK)">
			<g color="#ff0000" class="teamapps-color-2">
				<rect x="202.66" y="87.96" width="625.56" height="854.98" fill="currentColor"/>
			</g>
			<g color="#bc13e0" class="teamapps-color-3" mask="url(#mask-o4sZCk7Q)">
				<rect x="202.66" y="87.96" width="625.56" height="854.98" fill="currentColor"/>
			</g>
		</g>
		<g filter="url(#filter-U1Qk6C9L)" mask="url(#mask-qtEdVGGT)">
			<g color="#fff961" class="teamapps-color-1">
				<rect x="202.66" y="87.96" width="625.56" height="854.98" fill="currentColor"/>
			</g>
		</g>
	</g>
</svg>