<svg version="1.1" xmlns="http://www.w3.org/2000/svg" xmlns:xlink="http://www.w3.org/1999/xlink" viewBox="0,0,1024,1024">
	<!-- Color names: teamapps-color-1, teamapps-color-2, teamapps-color-3 -->
	<desc>notifications_off icon - Licensed under Apache License v2.0 (http://www.apache.org/licenses/LICENSE-2.0) - Created with Iconfu.com - Derivative work of Material icons (Copyright Google Inc.)</desc>
	<defs>
		<linearGradient x1="0" y1="1024" x2="1024" y2="0" id="color-QxZHIOVy" gradientUnits="userSpaceOnUse">
			<stop offset="0.2" stop-color="#000000"/>
			<stop offset="0.8" stop-color="#ffffff"/>
		</linearGradient>
		<radialGradient cx="0" cy="0" r="1448.15" id="color-Y3iABERY" gradientUnits="userSpaceOnUse">
			<stop offset="0.08" stop-color="#ffffff"/>
			<stop offset="1" stop-color="#000000"/>
		</radialGradient>
		<filter id="filter-xQHNGNo5" color-interpolation-filters="sRGB">
			<feOffset/>
		</filter>
		<mask id="mask-5bRak3O0">
			<path d="M894.9,843.02l-51.48,51.47c-10,10 -26.21,10 -36.2,0l-73.57,-73.57h-120.09c3.2,4.27 5.1,9.58 5.1,15.34c0,59.13 -47.53,106.67 -106.66,106.67c-59.13,0 -106.66,-47.55 -106.66,-106.67c0,-5.75 1.9,-11.06 5.1,-15.34h-222.7c-14.14,0 -25.6,-11.46 -25.6,-25.6v-40.54c0,-6.79 2.7,-13.3 7.5,-18.1l73.57,-73.57v-192.06c0,-47.99 9.33,-93.47 27.19,-133.66l-100.76,-100.77c-10,-10 -10,-26.21 0,-36.2l51.47,-51.47c10.11,-10.11 26.54,-9.98 36.49,0.29l637.59,657.85c9.74,10.04 9.61,26.04 -0.28,35.93zM367.23,237.99c0,-11.45 7.09,-19.79 14.79,-23.46c0.35,-0.17 0.7,-0.33 1.05,-0.47c8.76,-4.36 18.45,-8.98 28.4,-12.87l1.65,-0.58c3.49,-1.4 7.86,-3.14 12.48,-4.59v-8.28c0,-47.78 38.62,-86.4 86.4,-86.4c47.78,0 86.4,38.62 86.4,86.4v8.12c117.69,37.55 182.4,148.76 182.4,275.61v149.17c0,10.48 -6.39,19.9 -16.13,23.78c-9.74,3.88 -20.85,1.43 -28.06,-6.18l-362.37,-382.64c-4.5,-4.75 -7.01,-11.05 -7.01,-17.6zM836.26,783.17l-492.88,-508.7l-104.18,-107.41l-51.47,51.47l113.49,113.5v0.41c-21.08,40.13 -32.42,87.55 -32.42,138.62v202.66l-81.06,81.06v40.54h556.52l81.06,81.06l51.48,-51.47zM755.2,620.63v-149.17c0,-124.84 -66.47,-228.61 -182.4,-256.17v-27.56c0,-33.64 -27.16,-60.8 -60.8,-60.8c-33.64,0 -60.8,27.16 -60.8,60.8v27.56c-6.08,1.22 -11.75,3.24 -17.02,4.86c-4.06,1.22 -8.1,2.83 -12.16,4.46h-0.41c-0.41,0 -0.4,0 -0.81,0.41c-9.32,3.65 -18.64,8.11 -27.56,12.57c0,0 -0.41,-0.01 -0.41,0.4zM512,917.34c44.99,0 81.06,-36.08 81.06,-81.07h-162.13c0,44.99 36.07,81.07 81.06,81.07z" fill="url(#color-Y3iABERY)"/>
		</mask>
		<mask id="mask-a4E1S7xs">
			<rect fill="url(#color-QxZHIOVy)" x="162.14" y="101.34" width="740.26" height="841.6"/>
		</mask>
		<mask id="mask-z91qnioN">
			<path d="M894.9,843.02l-51.48,51.47c-10,10 -26.21,10 -36.2,0l-73.57,-73.57h-120.09c3.2,4.27 5.1,9.58 5.1,15.34c0,59.13 -47.53,106.67 -106.66,106.67c-59.13,0 -106.66,-47.55 -106.66,-106.67c0,-5.75 1.9,-11.06 5.1,-15.34h-222.7c-14.14,0 -25.6,-11.46 -25.6,-25.6v-40.54c0,-6.79 2.7,-13.3 7.5,-18.1l73.57,-73.57v-192.06c0,-47.99 9.33,-93.47 27.19,-133.66l-100.76,-100.77c-10,-10 -10,-26.21 0,-36.2l51.47,-51.47c10.11,-10.11 26.54,-9.98 36.49,0.29l637.59,657.85c9.74,10.04 9.61,26.04 -0.28,35.93zM367.23,237.99c0,-11.45 7.09,-19.79 14.79,-23.46c0.35,-0.17 0.7,-0.33 1.05,-0.47c8.76,-4.36 18.45,-8.98 28.4,-12.87l1.65,-0.58c3.49,-1.4 7.86,-3.14 12.48,-4.59v-8.28c0,-47.78 38.62,-86.4 86.4,-86.4c47.78,0 86.4,38.62 86.4,86.4v8.12c117.69,37.55 182.4,148.76 182.4,275.61v149.17c0,10.48 -6.39,19.9 -16.13,23.78c-9.74,3.88 -20.85,1.43 -28.06,-6.18l-362.37,-382.64c-4.5,-4.75 -7.01,-11.05 -7.01,-17.6zM836.26,783.17l-492.88,-508.7l-104.18,-107.41l-51.47,51.47l113.49,113.5v0.41c-21.08,40.13 -32.42,87.55 -32.42,138.62v202.66l-81.06,81.06v40.54h556.52l81.06,81.06l51.48,-51.47zM755.2,620.63v-149.17c0,-124.84 -66.47,-228.61 -182.4,-256.17v-27.56c0,-33.64 -27.16,-60.8 -60.8,-60.8c-33.64,0 -60.8,27.16 -60.8,60.8v27.56c-6.08,1.22 -11.75,3.24 -17.02,4.86c-4.06,1.22 -8.1,2.83 -12.16,4.46h-0.41c-0.41,0 -0.4,0 -0.81,0.41c-9.32,3.65 -18.64,8.11 -27.56,12.57c0,0 -0.41,-0.01 -0.41,0.4zM512,917.34c44.99,0 81.06,-36.08 81.06,-81.07h-162.13c0,44.99 36.07,81.07 81.06,81.07z" fill="#ffffff"/>
		</mask>
	</defs>
	<g fill="none" fill-rule="nonzero" style="mix-blend-mode: normal">
		<g mask="url(#mask-z91qnioN)">
			<g color="#ff0000" class="teamapps-color-2">
				<rect x="162.14" y="101.34" width="740.26" height="841.6" fill="currentColor"/>
			</g>
			<g color="#bc13e0" class="teamapps-color-3" mask="url(#mask-a4E1S7xs)">
				<rect x="162.14" y="101.34" width="740.26" height="841.6" fill="currentColor"/>
			</g>
		</g>
		<g filter="url(#filter-xQHNGNo5)" mask="url(#mask-5bRak3O0)">
			<g color="#fff961" class="teamapps-color-1">
				<rect x="162.14" y="101.34" width="740.26" height="841.6" fill="currentColor"/>
			</g>
		</g>
	</g>
</svg>