<svg version="1.1" xmlns="http://www.w3.org/2000/svg" xmlns:xlink="http://www.w3.org/1999/xlink" viewBox="0,0,1024,1024">
	<!-- Color names: teamapps-color-1, teamapps-color-2, teamapps-color-3 -->
	<desc>opacity icon - Licensed under Apache License v2.0 (http://www.apache.org/licenses/LICENSE-2.0) - Created with Iconfu.com - Derivative work of Material icons (Copyright Google Inc.)</desc>
	<defs>
		<linearGradient x1="0" y1="1024" x2="1024" y2="0" id="color-7Dghp3q9" gradientUnits="userSpaceOnUse">
			<stop offset="0.2" stop-color="#000000"/>
			<stop offset="0.8" stop-color="#ffffff"/>
		</linearGradient>
		<radialGradient cx="0" cy="0" r="1448.15" id="color-fuoHtnji" gradientUnits="userSpaceOnUse">
			<stop offset="0.08" stop-color="#ffffff"/>
			<stop offset="1" stop-color="#000000"/>
		</radialGradient>
		<filter id="filter-9ySQJ4rD" color-interpolation-filters="sRGB">
			<feOffset/>
		</filter>
		<mask id="mask-mrnGu8M0">
			<path d="M861.86,578.47c0,87.43 -34.02,179.6 -102.35,247.93c-68.19,68.19 -157.85,102.75 -247.52,102.75c-89.67,0 -179.33,-34.57 -247.52,-102.75c-68.32,-68.32 -102.35,-160.5 -102.35,-247.93c0,-87.53 34.09,-178.45 102.35,-246.71l229.43,-229.02c9.99,-9.98 26.18,-9.98 36.17,0l229.42,229.01c68.26,68.26 102.36,159.19 102.36,246.72zM511.89,275.9l-153.74,157c-36.42,36.1 -57.78,75.22 -62.67,134.56h433.03c-4.89,-58.84 -26.15,-96.65 -62.59,-132.46zM741.42,349.86l-229.42,-229.01l-229.42,229.01c-63.23,63.23 -94.85,147.54 -94.85,228.61c0,81.06 31.62,166.59 94.85,229.82c63.23,63.23 146.32,95.26 229.42,95.26c83.1,0 166.18,-32.02 229.42,-95.26c63.23,-63.23 94.85,-148.76 94.85,-229.82c0,-81.06 -31.62,-165.38 -94.85,-228.61zM268.8,593.06c0.41,-81.06 25.13,-132.54 71.34,-178.34l171.86,-175.51l171.86,177.54c46.21,45.4 70.93,95.26 71.34,176.32z" fill="url(#color-fuoHtnji)"/>
		</mask>
		<mask id="mask-sOdbkKt7">
			<rect fill="url(#color-7Dghp3q9)" x="162.14" y="95.26" width="699.73" height="833.9"/>
		</mask>
		<mask id="mask-ZVTDF1LP">
			<path d="M861.86,578.47c0,87.43 -34.02,179.6 -102.35,247.93c-68.19,68.19 -157.85,102.75 -247.52,102.75c-89.67,0 -179.33,-34.57 -247.52,-102.75c-68.32,-68.32 -102.35,-160.5 -102.35,-247.93c0,-87.53 34.09,-178.45 102.35,-246.71l229.43,-229.02c9.99,-9.98 26.18,-9.98 36.17,0l229.42,229.01c68.26,68.26 102.36,159.19 102.36,246.72zM511.89,275.9l-153.74,157c-36.42,36.1 -57.78,75.22 -62.67,134.56h433.03c-4.89,-58.84 -26.15,-96.65 -62.59,-132.46zM741.42,349.86l-229.42,-229.01l-229.42,229.01c-63.23,63.23 -94.85,147.54 -94.85,228.61c0,81.06 31.62,166.59 94.85,229.82c63.23,63.23 146.32,95.26 229.42,95.26c83.1,0 166.18,-32.02 229.42,-95.26c63.23,-63.23 94.85,-148.76 94.85,-229.82c0,-81.06 -31.62,-165.38 -94.85,-228.61zM268.8,593.06c0.41,-81.06 25.13,-132.54 71.34,-178.34l171.86,-175.51l171.86,177.54c46.21,45.4 70.93,95.26 71.34,176.32z" fill="#ffffff"/>
		</mask>
	</defs>
	<g fill="none" fill-rule="nonzero" style="mix-blend-mode: normal">
		<g mask="url(#mask-ZVTDF1LP)">
			<g color="#ff0000" class="teamapps-color-2">
				<rect x="162.14" y="95.26" width="699.73" height="833.9" fill="currentColor"/>
			</g>
			<g color="#bc13e0" class="teamapps-color-3" mask="url(#mask-sOdbkKt7)">
				<rect x="162.14" y="95.26" width="699.73" height="833.9" fill="currentColor"/>
			</g>
		</g>
		<g filter="url(#filter-9ySQJ4rD)" mask="url(#mask-mrnGu8M0)">
			<g color="#fff961" class="teamapps-color-1">
				<rect x="162.14" y="95.26" width="699.73" height="833.9" fill="currentColor"/>
			</g>
		</g>
	</g>
</svg>