<svg version="1.1" xmlns="http://www.w3.org/2000/svg" xmlns:xlink="http://www.w3.org/1999/xlink" viewBox="0,0,1024,1024">
	<!-- Color names: teamapps-color-1, teamapps-color-2, teamapps-color-3 -->
	<desc>pan_tool icon - Licensed under Apache License v2.0 (http://www.apache.org/licenses/LICENSE-2.0) - Created with Iconfu.com - Derivative work of Material icons (Copyright Google Inc.)</desc>
	<defs>
		<radialGradient cx="0" cy="0" r="1448.15" id="color-13u8erUl" gradientUnits="userSpaceOnUse">
			<stop offset="0.08" stop-color="#ffffff"/>
			<stop offset="1" stop-color="#000000"/>
		</radialGradient>
		<linearGradient x1="0" y1="1024" x2="1024" y2="0" id="color-y6QBZdkA" gradientUnits="userSpaceOnUse">
			<stop offset="0.2" stop-color="#000000"/>
			<stop offset="0.8" stop-color="#ffffff"/>
		</linearGradient>
		<filter id="filter-jBRgM12k" color-interpolation-filters="sRGB">
			<feOffset/>
		</filter>
		<mask id="mask-t8kMB9Gf">
			<rect fill="url(#color-y6QBZdkA)" x="40.54" y="0" width="942.93" height="1024"/>
		</mask>
		<mask id="mask-tTUXj0TX">
			<path d="M983.46,248.54v587.73c0,103.31 -84.41,187.74 -187.73,187.74h-295.9c-50.64,0 -98.54,-20.18 -133.74,-55.85l-318.21,-323.48c-9.94,-10.11 -9.78,-26.36 0.36,-36.27c0.01,-0.01 12.8,-12.5 25.81,-25.1l28.03,-26.63c13.68,-11.81 30.6,-17.98 48.76,-17.98c13.78,0 26.13,3.8 36.76,9.71l88.23,50.16c17.04,9.75 34.04,19.49 48.42,27.73v-438.56c0,-47.78 38.62,-86.4 86.4,-86.4c32.66,0 61.05,18.05 75.74,44.74v-59.67c0,-47.78 38.62,-86.4 86.4,-86.4c47.41,0 85.8,38.02 86.39,85.29c14.69,-26.69 43.08,-44.75 75.74,-44.75c47.78,0 86.4,38.62 86.4,86.4v79.92c14.69,-26.68 43.07,-44.72 75.73,-44.72c47.78,0 86.4,38.62 86.4,86.4zM897.06,187.74c-33.64,0 -60.8,27.16 -60.8,60.8v222.93h-40.53v-344.53c0,-33.64 -27.16,-60.8 -60.8,-60.8c-33.64,0 -60.8,27.16 -60.8,60.8v344.53h-40.54v-385.06c0,-33.64 -27.16,-60.8 -60.8,-60.8c-33.64,0 -60.8,27.16 -60.8,60.8v385.06h-40.54v-283.73c0,-33.64 -27.16,-60.8 -60.8,-60.8c-33.64,0 -60.8,27.16 -60.8,60.8v482.75c0,0 -173.07,-99.3 -174.7,-99.71c-7.3,-4.06 -15.4,-6.49 -24.32,-6.49c-12.16,0 -23.1,4.05 -32.02,11.75c-1.62,0.81 -52.69,50.67 -52.69,50.67l318.18,323.46c30.4,30.81 71.74,48.23 115.52,48.23h295.9c89.18,0 162.13,-72.96 162.13,-162.14v-587.73c0,-33.64 -27.16,-60.8 -60.8,-60.8z" fill="url(#color-13u8erUl)"/>
		</mask>
		<mask id="mask-URpIoOda">
			<path d="M983.46,248.54v587.73c0,103.31 -84.41,187.74 -187.73,187.74h-295.9c-50.64,0 -98.54,-20.18 -133.74,-55.85l-318.21,-323.48c-9.94,-10.11 -9.78,-26.36 0.36,-36.27c0.01,-0.01 12.8,-12.5 25.81,-25.1l28.03,-26.63c13.68,-11.81 30.6,-17.98 48.76,-17.98c13.78,0 26.13,3.8 36.76,9.71l88.23,50.16c17.04,9.75 34.04,19.49 48.42,27.73v-438.56c0,-47.78 38.62,-86.4 86.4,-86.4c32.66,0 61.05,18.05 75.74,44.74v-59.67c0,-47.78 38.62,-86.4 86.4,-86.4c47.41,0 85.8,38.02 86.39,85.29c14.69,-26.69 43.08,-44.75 75.74,-44.75c47.78,0 86.4,38.62 86.4,86.4v79.92c14.69,-26.68 43.07,-44.72 75.73,-44.72c47.78,0 86.4,38.62 86.4,86.4zM897.06,187.74c-33.64,0 -60.8,27.16 -60.8,60.8v222.93h-40.53v-344.53c0,-33.64 -27.16,-60.8 -60.8,-60.8c-33.64,0 -60.8,27.16 -60.8,60.8v344.53h-40.54v-385.06c0,-33.64 -27.16,-60.8 -60.8,-60.8c-33.64,0 -60.8,27.16 -60.8,60.8v385.06h-40.54v-283.73c0,-33.64 -27.16,-60.8 -60.8,-60.8c-33.64,0 -60.8,27.16 -60.8,60.8v482.75c0,0 -173.07,-99.3 -174.7,-99.71c-7.3,-4.06 -15.4,-6.49 -24.32,-6.49c-12.16,0 -23.1,4.05 -32.02,11.75c-1.62,0.81 -52.69,50.67 -52.69,50.67l318.18,323.46c30.4,30.81 71.74,48.23 115.52,48.23h295.9c89.18,0 162.13,-72.96 162.13,-162.14v-587.73c0,-33.64 -27.16,-60.8 -60.8,-60.8z" fill="#ffffff"/>
		</mask>
	</defs>
	<g fill="none" fill-rule="nonzero" style="mix-blend-mode: normal">
		<g mask="url(#mask-URpIoOda)">
			<g color="#ff0000" class="teamapps-color-2">
				<rect x="40.54" y="0" width="942.93" height="1024" fill="currentColor"/>
			</g>
			<g color="#bc13e0" class="teamapps-color-3" mask="url(#mask-t8kMB9Gf)">
				<rect x="40.54" y="0" width="942.93" height="1024" fill="currentColor"/>
			</g>
		</g>
		<g filter="url(#filter-jBRgM12k)" mask="url(#mask-tTUXj0TX)">
			<g color="#fff961" class="teamapps-color-1">
				<rect x="40.54" y="0" width="942.93" height="1024" fill="currentColor"/>
			</g>
		</g>
	</g>
</svg>