<svg version="1.1" xmlns="http://www.w3.org/2000/svg" xmlns:xlink="http://www.w3.org/1999/xlink" viewBox="0,0,1024,1024">
	<!-- Color names: teamapps-color-1, teamapps-color-2, teamapps-color-3 -->
	<desc>perm_device_information icon - Licensed under Apache License v2.0 (http://www.apache.org/licenses/LICENSE-2.0) - Created with Iconfu.com - Derivative work of Material icons (Copyright Google Inc.)</desc>
	<defs>
		<radialGradient cx="0" cy="0" r="1448.15" id="color-9N5YoEwx" gradientUnits="userSpaceOnUse">
			<stop offset="0.08" stop-color="#ffffff"/>
			<stop offset="1" stop-color="#000000"/>
		</radialGradient>
		<linearGradient x1="0" y1="1024" x2="1024" y2="0" id="color-xrzW4187" gradientUnits="userSpaceOnUse">
			<stop offset="0.2" stop-color="#000000"/>
			<stop offset="0.8" stop-color="#ffffff"/>
		</linearGradient>
		<filter id="filter-qcyLCj19" color-interpolation-filters="sRGB">
			<feOffset/>
		</filter>
		<mask id="mask-Gbown5D8">
			<path d="M821.34,147.2v729.6c0,58.73 -47.95,106.66 -106.67,106.66h-405.33c-58.72,0 -106.67,-47.94 -106.67,-106.66v-729.6c0,-58.73 47.95,-106.66 106.67,-106.66l405.35,0.4c58.54,0.01 106.65,47.38 106.65,106.26zM334.94,253.86v516.27h354.13v-516.27zM552.54,740.26h-81.07c-14.14,0 -25.6,-11.46 -25.6,-25.6v-243.2c0,-14.14 11.46,-25.6 25.6,-25.6h81.07c14.14,0 25.6,11.46 25.6,25.6v243.2c0,14.14 -11.46,25.6 -25.6,25.6zM552.54,416h-81.07c-14.14,0 -25.6,-11.46 -25.6,-25.6v-81.06c0,-14.14 11.46,-25.6 25.6,-25.6h81.07c14.14,0 25.6,11.46 25.6,25.6v81.06c0,14.14 -11.46,25.6 -25.6,25.6zM714.66,66.54l-405.33,-0.4c-44.58,0 -81.07,36.48 -81.07,81.06v729.6c0,44.58 36.49,81.06 81.07,81.06h405.33c44.58,0 81.07,-36.48 81.07,-81.06v-729.6c0,-44.58 -36.49,-80.66 -81.07,-80.66zM714.66,795.74h-405.33v-567.47h405.33zM552.54,471.46h-81.07v243.2h81.07zM552.54,309.34h-81.07v81.06h81.07z" fill="url(#color-9N5YoEwx)"/>
		</mask>
		<mask id="mask-HPYQZjn4">
			<path d="M821.34,147.2v729.6c0,58.73 -47.95,106.66 -106.67,106.66h-405.33c-58.72,0 -106.67,-47.94 -106.67,-106.66v-729.6c0,-58.73 47.95,-106.66 106.67,-106.66l405.35,0.4c58.54,0.01 106.65,47.38 106.65,106.26zM334.94,253.86v516.27h354.13v-516.27zM552.54,740.26h-81.07c-14.14,0 -25.6,-11.46 -25.6,-25.6v-243.2c0,-14.14 11.46,-25.6 25.6,-25.6h81.07c14.14,0 25.6,11.46 25.6,25.6v243.2c0,14.14 -11.46,25.6 -25.6,25.6zM552.54,416h-81.07c-14.14,0 -25.6,-11.46 -25.6,-25.6v-81.06c0,-14.14 11.46,-25.6 25.6,-25.6h81.07c14.14,0 25.6,11.46 25.6,25.6v81.06c0,14.14 -11.46,25.6 -25.6,25.6zM714.66,66.54l-405.33,-0.4c-44.58,0 -81.07,36.48 -81.07,81.06v729.6c0,44.58 36.49,81.06 81.07,81.06h405.33c44.58,0 81.07,-36.48 81.07,-81.06v-729.6c0,-44.58 -36.49,-80.66 -81.07,-80.66zM714.66,795.74h-405.33v-567.47h405.33zM552.54,471.46h-81.07v243.2h81.07zM552.54,309.34h-81.07v81.06h81.07z" fill="#ffffff"/>
		</mask>
		<mask id="mask-PqtI1TfV">
			<rect fill="url(#color-xrzW4187)" x="202.66" y="40.54" width="618.67" height="942.93"/>
		</mask>
	</defs>
	<g fill="none" fill-rule="nonzero" style="mix-blend-mode: normal">
		<g mask="url(#mask-HPYQZjn4)">
			<g color="#ff0000" class="teamapps-color-2">
				<rect x="202.66" y="40.54" width="618.67" height="942.93" fill="currentColor"/>
			</g>
			<g color="#bc13e0" class="teamapps-color-3" mask="url(#mask-PqtI1TfV)">
				<rect x="202.66" y="40.54" width="618.67" height="942.93" fill="currentColor"/>
			</g>
		</g>
		<g filter="url(#filter-qcyLCj19)" mask="url(#mask-Gbown5D8)">
			<g color="#fff961" class="teamapps-color-1">
				<rect x="202.66" y="40.54" width="618.67" height="942.93" fill="currentColor"/>
			</g>
		</g>
	</g>
</svg>