<svg version="1.1" xmlns="http://www.w3.org/2000/svg" xmlns:xlink="http://www.w3.org/1999/xlink" viewBox="0,0,1024,1024">
	<!-- Color names: teamapps-color-1, teamapps-color-2, teamapps-color-3 -->
	<desc>phone_in_talk icon - Licensed under Apache License v2.0 (http://www.apache.org/licenses/LICENSE-2.0) - Created with Iconfu.com - Derivative work of Material icons (Copyright Google Inc.)</desc>
	<defs>
		<radialGradient cx="0" cy="0" r="1448.15" id="color-o5HX9xai" gradientUnits="userSpaceOnUse">
			<stop offset="0.08" stop-color="#ffffff"/>
			<stop offset="1" stop-color="#000000"/>
		</radialGradient>
		<linearGradient x1="0" y1="1024" x2="1024" y2="0" id="color-pjFYWEvh" gradientUnits="userSpaceOnUse">
			<stop offset="0.2" stop-color="#000000"/>
			<stop offset="0.8" stop-color="#ffffff"/>
		</linearGradient>
		<filter id="filter-SoKPI4aA" color-interpolation-filters="sRGB">
			<feOffset/>
		</filter>
		<mask id="mask-AlNptb9k">
			<rect fill="url(#color-pjFYWEvh)" x="121.6" y="121.6" width="780.8" height="780.8"/>
		</mask>
		<mask id="mask-DL0fyFSx">
			<path d="M902.4,694.4v141.86c0,36.43 -29.7,66.14 -66.14,66.14c-394.75,0 -714.66,-319.92 -714.66,-714.66c0,-36.43 29.7,-66.14 66.14,-66.14h141.86c36.43,0 66.14,29.7 66.14,66.14c0,47.92 7.66,93.85 21.81,136.67c0.03,0.08 0.05,0.16 0.08,0.25c7.02,22.36 2.36,48.69 -16.69,66.69l-75.58,75.93c53.35,97.36 133.83,177.57 230.96,230.93l76.14,-76.14c18.33,-17.67 43.98,-22.88 66.78,-15.72c0.08,0.03 0.16,0.05 0.25,0.08c42.83,14.15 88.87,21.85 136.78,21.85c36.43,0 66.14,29.7 66.14,66.14zM486.4,228.26v-81.06c0,-14.14 11.46,-25.6 25.6,-25.6c215.59,0 390.4,174.81 390.4,390.4c0,14.14 -11.46,25.6 -25.6,25.6h-81.06c-14.14,0 -25.6,-11.46 -25.6,-25.6c0,-142.73 -115.41,-258.14 -258.14,-258.14c-14.14,0 -25.6,-11.46 -25.6,-25.6zM486.4,390.4v-81.06c0,-14.14 11.46,-25.6 25.6,-25.6c126.01,0 228.26,102.25 228.26,228.26c0,14.14 -11.46,25.6 -25.6,25.6h-81.06c-14.14,0 -25.6,-11.46 -25.6,-25.6c0,-53.15 -42.85,-96 -96,-96c-14.14,0 -25.6,-11.46 -25.6,-25.6zM836.26,653.86c-50.66,0 -99.3,-8.1 -144.7,-23.1c-14.18,-4.46 -29.99,-1.22 -41.34,9.73l-89.17,89.18c-114.71,-58.37 -208.75,-152 -267.12,-267.11l89.18,-89.59c11.35,-10.54 14.59,-26.34 10.14,-40.53c-15,-45.4 -23.1,-94.04 -23.1,-144.7c0,-22.3 -18.24,-40.54 -40.54,-40.54h-141.86c-22.3,0 -40.54,18.24 -40.54,40.54c0,380.61 308.46,689.06 689.06,689.06c22.3,0 40.54,-18.24 40.54,-40.54v-141.86c0,-22.3 -18.24,-40.54 -40.54,-40.54zM795.74,512h81.06c0,-201.45 -163.35,-364.8 -364.8,-364.8v81.06c156.86,0 283.74,126.87 283.74,283.74zM633.6,512h81.06c0,-111.87 -90.79,-202.66 -202.66,-202.66v81.06c67.29,0 121.6,54.31 121.6,121.6z" fill="url(#color-o5HX9xai)"/>
		</mask>
		<mask id="mask-eoGBwgR2">
			<path d="M902.4,694.4v141.86c0,36.43 -29.7,66.14 -66.14,66.14c-394.75,0 -714.66,-319.92 -714.66,-714.66c0,-36.43 29.7,-66.14 66.14,-66.14h141.86c36.43,0 66.14,29.7 66.14,66.14c0,47.92 7.66,93.85 21.81,136.67c0.03,0.08 0.05,0.16 0.08,0.25c7.02,22.36 2.36,48.69 -16.69,66.69l-75.58,75.93c53.35,97.36 133.83,177.57 230.96,230.93l76.14,-76.14c18.33,-17.67 43.98,-22.88 66.78,-15.72c0.08,0.03 0.16,0.05 0.25,0.08c42.83,14.15 88.87,21.85 136.78,21.85c36.43,0 66.14,29.7 66.14,66.14zM486.4,228.26v-81.06c0,-14.14 11.46,-25.6 25.6,-25.6c215.59,0 390.4,174.81 390.4,390.4c0,14.14 -11.46,25.6 -25.6,25.6h-81.06c-14.14,0 -25.6,-11.46 -25.6,-25.6c0,-142.73 -115.41,-258.14 -258.14,-258.14c-14.14,0 -25.6,-11.46 -25.6,-25.6zM486.4,390.4v-81.06c0,-14.14 11.46,-25.6 25.6,-25.6c126.01,0 228.26,102.25 228.26,228.26c0,14.14 -11.46,25.6 -25.6,25.6h-81.06c-14.14,0 -25.6,-11.46 -25.6,-25.6c0,-53.15 -42.85,-96 -96,-96c-14.14,0 -25.6,-11.46 -25.6,-25.6zM836.26,653.86c-50.66,0 -99.3,-8.1 -144.7,-23.1c-14.18,-4.46 -29.99,-1.22 -41.34,9.73l-89.17,89.18c-114.71,-58.37 -208.75,-152 -267.12,-267.11l89.18,-89.59c11.35,-10.54 14.59,-26.34 10.14,-40.53c-15,-45.4 -23.1,-94.04 -23.1,-144.7c0,-22.3 -18.24,-40.54 -40.54,-40.54h-141.86c-22.3,0 -40.54,18.24 -40.54,40.54c0,380.61 308.46,689.06 689.06,689.06c22.3,0 40.54,-18.24 40.54,-40.54v-141.86c0,-22.3 -18.24,-40.54 -40.54,-40.54zM795.74,512h81.06c0,-201.45 -163.35,-364.8 -364.8,-364.8v81.06c156.86,0 283.74,126.87 283.74,283.74zM633.6,512h81.06c0,-111.87 -90.79,-202.66 -202.66,-202.66v81.06c67.29,0 121.6,54.31 121.6,121.6z" fill="#ffffff"/>
		</mask>
	</defs>
	<g fill="none" fill-rule="nonzero" style="mix-blend-mode: normal">
		<g mask="url(#mask-eoGBwgR2)">
			<g color="#ff0000" class="teamapps-color-2">
				<rect x="121.6" y="121.6" width="780.8" height="780.8" fill="currentColor"/>
			</g>
			<g color="#bc13e0" class="teamapps-color-3" mask="url(#mask-AlNptb9k)">
				<rect x="121.6" y="121.6" width="780.8" height="780.8" fill="currentColor"/>
			</g>
		</g>
		<g filter="url(#filter-SoKPI4aA)" mask="url(#mask-DL0fyFSx)">
			<g color="#fff961" class="teamapps-color-1">
				<rect x="121.6" y="121.6" width="780.8" height="780.8" fill="currentColor"/>
			</g>
		</g>
	</g>
</svg>