<svg version="1.1" xmlns="http://www.w3.org/2000/svg" xmlns:xlink="http://www.w3.org/1999/xlink" viewBox="0,0,1024,1024">
	<!-- Color names: teamapps-color-1, teamapps-color-2, teamapps-color-3 -->
	<desc>phonelink_off icon - Licensed under Apache License v2.0 (http://www.apache.org/licenses/LICENSE-2.0) - Created with Iconfu.com - Derivative work of Material icons (Copyright Google Inc.)</desc>
	<defs>
		<radialGradient cx="0" cy="0" r="1448.15" id="color-a2YM5d5c" gradientUnits="userSpaceOnUse">
			<stop offset="0.08" stop-color="#ffffff"/>
			<stop offset="1" stop-color="#000000"/>
		</radialGradient>
		<linearGradient x1="0" y1="1024" x2="1024" y2="0" id="color-eyypSvca" gradientUnits="userSpaceOnUse">
			<stop offset="0.2" stop-color="#000000"/>
			<stop offset="0.8" stop-color="#ffffff"/>
		</linearGradient>
		<filter id="filter-u04TPF2U" color-interpolation-filters="sRGB">
			<feOffset/>
		</filter>
		<mask id="mask-8cHR52X2">
			<path d="M909.09,898.14l-51.47,51.48c-10,10 -26.21,10 -36.21,0l-87.76,-87.76h-708.05c-14.14,0 -25.6,-11.46 -25.6,-25.6v-121.6c0,-14.14 11.46,-25.6 25.6,-25.6h55.46v-420.26c0,-17.28 4.32,-33.52 11.75,-47.77l-58.97,-58.96c-10,-10 -10,-26.21 0,-36.21l51.48,-51.48c10,-10 26.21,-10 36.2,0l787.56,787.56c10,10 10,26.2 0,36.2zM1024,390.4v405.34c0,36.44 -29.71,66.13 -66.14,66.13h-7.3c-6.79,0 -13.3,-2.7 -18.1,-7.5l-121.6,-121.6c-7.32,-7.32 -9.51,-18.33 -5.55,-27.9c3.96,-9.57 13.3,-15.8 23.65,-15.8h62.77v-232.53h-110.94v184.36c0,10.35 -6.24,19.69 -15.8,23.65c-9.57,3.96 -20.58,1.77 -27.9,-5.55l-81.06,-81.06c-4.8,-4.8 -7.5,-11.31 -7.5,-18.1v-169.43c0,-36.43 29.68,-66.14 66.13,-66.14h243.2c36.43,0 66.14,29.7 66.14,66.14zM213.34,341.55v347.52h347.52zM365,286.9l-81.06,-81.06c-7.32,-7.32 -9.51,-18.33 -5.55,-27.9c3.96,-9.57 13.3,-15.8 23.65,-15.8h615.3c14.14,0 25.6,11.46 25.6,25.6v81.06c0,14.14 -11.46,25.6 -25.6,25.6h-534.23c-6.79,0 -13.3,-2.7 -18.1,-7.5zM103.42,92.48l-51.48,51.48l73.78,73.77c-11.75,13.78 -19.06,31.62 -19.06,51.07v445.86h-81.06v121.6h718.66l95.26,95.26l51.47,-51.48zM187.74,279.74l434.92,434.92h-434.92zM957.86,349.86h-243.2c-22.3,0 -40.53,18.24 -40.53,40.54v169.43l81.06,81.06v-209.96h162.14v283.73h-88.37l121.6,121.6h7.3c22.3,0 40.54,-18.23 40.54,-40.53v-405.34c0,-22.3 -18.24,-40.54 -40.54,-40.54zM917.34,268.8v-81.06h-615.3l81.06,81.06z" fill="url(#color-a2YM5d5c)"/>
		</mask>
		<mask id="mask-JDW3euBo">
			<rect fill="url(#color-eyypSvca)" x="0" y="66.88" width="1024" height="890.24"/>
		</mask>
		<mask id="mask-RptVabgL">
			<path d="M909.09,898.14l-51.47,51.48c-10,10 -26.21,10 -36.21,0l-87.76,-87.76h-708.05c-14.14,0 -25.6,-11.46 -25.6,-25.6v-121.6c0,-14.14 11.46,-25.6 25.6,-25.6h55.46v-420.26c0,-17.28 4.32,-33.52 11.75,-47.77l-58.97,-58.96c-10,-10 -10,-26.21 0,-36.21l51.48,-51.48c10,-10 26.21,-10 36.2,0l787.56,787.56c10,10 10,26.2 0,36.2zM1024,390.4v405.34c0,36.44 -29.71,66.13 -66.14,66.13h-7.3c-6.79,0 -13.3,-2.7 -18.1,-7.5l-121.6,-121.6c-7.32,-7.32 -9.51,-18.33 -5.55,-27.9c3.96,-9.57 13.3,-15.8 23.65,-15.8h62.77v-232.53h-110.94v184.36c0,10.35 -6.24,19.69 -15.8,23.65c-9.57,3.96 -20.58,1.77 -27.9,-5.55l-81.06,-81.06c-4.8,-4.8 -7.5,-11.31 -7.5,-18.1v-169.43c0,-36.43 29.68,-66.14 66.13,-66.14h243.2c36.43,0 66.14,29.7 66.14,66.14zM213.34,341.55v347.52h347.52zM365,286.9l-81.06,-81.06c-7.32,-7.32 -9.51,-18.33 -5.55,-27.9c3.96,-9.57 13.3,-15.8 23.65,-15.8h615.3c14.14,0 25.6,11.46 25.6,25.6v81.06c0,14.14 -11.46,25.6 -25.6,25.6h-534.23c-6.79,0 -13.3,-2.7 -18.1,-7.5zM103.42,92.48l-51.48,51.48l73.78,73.77c-11.75,13.78 -19.06,31.62 -19.06,51.07v445.86h-81.06v121.6h718.66l95.26,95.26l51.47,-51.48zM187.74,279.74l434.92,434.92h-434.92zM957.86,349.86h-243.2c-22.3,0 -40.53,18.24 -40.53,40.54v169.43l81.06,81.06v-209.96h162.14v283.73h-88.37l121.6,121.6h7.3c22.3,0 40.54,-18.23 40.54,-40.53v-405.34c0,-22.3 -18.24,-40.54 -40.54,-40.54zM917.34,268.8v-81.06h-615.3l81.06,81.06z" fill="#ffffff"/>
		</mask>
	</defs>
	<g fill="none" fill-rule="nonzero" style="mix-blend-mode: normal">
		<g mask="url(#mask-RptVabgL)">
			<g color="#ff0000" class="teamapps-color-2">
				<rect x="0" y="66.88" width="1024" height="890.24" fill="currentColor"/>
			</g>
			<g color="#bc13e0" class="teamapps-color-3" mask="url(#mask-JDW3euBo)">
				<rect x="0" y="66.88" width="1024" height="890.24" fill="currentColor"/>
			</g>
		</g>
		<g filter="url(#filter-u04TPF2U)" mask="url(#mask-8cHR52X2)">
			<g color="#fff961" class="teamapps-color-1">
				<rect x="0" y="66.88" width="1024" height="890.24" fill="currentColor"/>
			</g>
		</g>
	</g>
</svg>