<svg version="1.1" xmlns="http://www.w3.org/2000/svg" xmlns:xlink="http://www.w3.org/1999/xlink" viewBox="0,0,1024,1024">
	<!-- Color names: teamapps-color-1, teamapps-color-2, teamapps-color-3 -->
	<desc>picture_in_picture icon - Licensed under Apache License v2.0 (http://www.apache.org/licenses/LICENSE-2.0) - Created with Iconfu.com - Derivative work of Material icons (Copyright Google Inc.)</desc>
	<defs>
		<linearGradient x1="0" y1="1024" x2="1024" y2="0" id="color-fZYpupTf" gradientUnits="userSpaceOnUse">
			<stop offset="0.2" stop-color="#000000"/>
			<stop offset="0.8" stop-color="#ffffff"/>
		</linearGradient>
		<radialGradient cx="0" cy="0" r="1448.15" id="color-ZJ5x8r0x" gradientUnits="userSpaceOnUse">
			<stop offset="0.08" stop-color="#ffffff"/>
			<stop offset="1" stop-color="#000000"/>
		</radialGradient>
		<filter id="filter-tY69r6qj" color-interpolation-filters="sRGB">
			<feOffset/>
		</filter>
		<mask id="mask-bPfkA6XA">
			<path d="M983.46,228.26v567.47c0,59.06 -48.28,105.86 -106.66,105.86h-729.6c-58.38,0 -106.66,-46.8 -106.66,-105.86v-567.47c0,-58.72 47.94,-106.66 106.66,-106.66h729.6c58.72,0 106.66,47.94 106.66,106.66zM172.8,253.06v517.48h678.4v-517.48zM795.74,578.14h-324.27c-14.14,0 -25.6,-11.46 -25.6,-25.6v-243.2c0,-14.14 11.46,-25.6 25.6,-25.6h324.27c14.14,0 25.6,11.46 25.6,25.6v243.2c0,14.14 -11.46,25.6 -25.6,25.6zM876.8,147.2h-729.6c-44.58,0 -81.06,36.48 -81.06,81.06v567.47c0,44.58 36.48,80.26 81.06,80.26h729.6c44.58,0 81.06,-35.67 81.06,-80.26v-567.47c0,-44.58 -36.48,-81.06 -81.06,-81.06zM876.8,796.14h-729.6v-568.68h729.6zM795.74,309.34h-324.27v243.2h324.27z" fill="url(#color-ZJ5x8r0x)"/>
		</mask>
		<mask id="mask-CWaHor6h">
			<path d="M983.46,228.26v567.47c0,59.06 -48.28,105.86 -106.66,105.86h-729.6c-58.38,0 -106.66,-46.8 -106.66,-105.86v-567.47c0,-58.72 47.94,-106.66 106.66,-106.66h729.6c58.72,0 106.66,47.94 106.66,106.66zM172.8,253.06v517.48h678.4v-517.48zM795.74,578.14h-324.27c-14.14,0 -25.6,-11.46 -25.6,-25.6v-243.2c0,-14.14 11.46,-25.6 25.6,-25.6h324.27c14.14,0 25.6,11.46 25.6,25.6v243.2c0,14.14 -11.46,25.6 -25.6,25.6zM876.8,147.2h-729.6c-44.58,0 -81.06,36.48 -81.06,81.06v567.47c0,44.58 36.48,80.26 81.06,80.26h729.6c44.58,0 81.06,-35.67 81.06,-80.26v-567.47c0,-44.58 -36.48,-81.06 -81.06,-81.06zM876.8,796.14h-729.6v-568.68h729.6zM795.74,309.34h-324.27v243.2h324.27z" fill="#ffffff"/>
		</mask>
		<mask id="mask-TgExZAub">
			<rect fill="url(#color-fZYpupTf)" x="40.54" y="121.6" width="942.93" height="779.99"/>
		</mask>
	</defs>
	<g fill="none" fill-rule="nonzero" style="mix-blend-mode: normal">
		<g mask="url(#mask-CWaHor6h)">
			<g color="#ff0000" class="teamapps-color-2">
				<rect x="40.54" y="121.6" width="942.93" height="779.99" fill="currentColor"/>
			</g>
			<g color="#bc13e0" class="teamapps-color-3" mask="url(#mask-TgExZAub)">
				<rect x="40.54" y="121.6" width="942.93" height="779.99" fill="currentColor"/>
			</g>
		</g>
		<g filter="url(#filter-tY69r6qj)" mask="url(#mask-bPfkA6XA)">
			<g color="#fff961" class="teamapps-color-1">
				<rect x="40.54" y="121.6" width="942.93" height="779.99" fill="currentColor"/>
			</g>
		</g>
	</g>
</svg>