<svg version="1.1" xmlns="http://www.w3.org/2000/svg" xmlns:xlink="http://www.w3.org/1999/xlink" viewBox="0,0,1024,1024">
	<!-- Color names: teamapps-color-1, teamapps-color-2, teamapps-color-3 -->
	<desc>picture_in_picture_alt icon - Licensed under Apache License v2.0 (http://www.apache.org/licenses/LICENSE-2.0) - Created with Iconfu.com - Derivative work of Material icons (Copyright Google Inc.)</desc>
	<defs>
		<radialGradient cx="0" cy="0" r="1448.15" id="color-2tMGAHNV" gradientUnits="userSpaceOnUse">
			<stop offset="0.08" stop-color="#ffffff"/>
			<stop offset="1" stop-color="#000000"/>
		</radialGradient>
		<linearGradient x1="0" y1="1024" x2="1024" y2="0" id="color-Pm6W2gT2" gradientUnits="userSpaceOnUse">
			<stop offset="0.2" stop-color="#000000"/>
			<stop offset="0.8" stop-color="#ffffff"/>
		</linearGradient>
		<filter id="filter-EPiLzIrG" color-interpolation-filters="sRGB">
			<feOffset/>
		</filter>
		<mask id="mask-BJb2zGEq">
			<path d="M876.8,902.4h-729.6c-58.72,0 -106.66,-47.94 -106.66,-106.66v-568.28c0,-59.06 48.28,-105.86 106.66,-105.86h729.6c58.38,0 106.66,46.8 106.66,105.86v568.28c0,58.72 -47.94,106.66 -106.66,106.66zM172.8,252.65v518.3h678.4v-518.3zM795.74,740.26h-324.27c-14.14,0 -25.6,-11.46 -25.6,-25.6v-243.2c0,-14.14 11.46,-25.6 25.6,-25.6h324.27c14.14,0 25.6,11.46 25.6,25.6v243.2c0,14.14 -11.46,25.6 -25.6,25.6zM957.86,795.74v-568.28c0,-44.58 -36.48,-80.26 -81.06,-80.26h-729.6c-44.58,0 -81.06,35.67 -81.06,80.26v568.28c0,44.58 36.48,81.06 81.06,81.06h729.6c44.58,0 81.06,-36.48 81.06,-81.06zM876.8,796.54h-729.6v-569.5h729.6zM795.74,471.46h-324.27v243.2h324.27z" fill="#ffffff"/>
		</mask>
		<mask id="mask-uHf9oOaH">
			<rect fill="url(#color-Pm6W2gT2)" x="40.54" y="121.6" width="942.93" height="780.8"/>
		</mask>
		<mask id="mask-XMdz6pJh">
			<path d="M876.8,902.4h-729.6c-58.72,0 -106.66,-47.94 -106.66,-106.66v-568.28c0,-59.06 48.28,-105.86 106.66,-105.86h729.6c58.38,0 106.66,46.8 106.66,105.86v568.28c0,58.72 -47.94,106.66 -106.66,106.66zM172.8,252.65v518.3h678.4v-518.3zM795.74,740.26h-324.27c-14.14,0 -25.6,-11.46 -25.6,-25.6v-243.2c0,-14.14 11.46,-25.6 25.6,-25.6h324.27c14.14,0 25.6,11.46 25.6,25.6v243.2c0,14.14 -11.46,25.6 -25.6,25.6zM957.86,795.74v-568.28c0,-44.58 -36.48,-80.26 -81.06,-80.26h-729.6c-44.58,0 -81.06,35.67 -81.06,80.26v568.28c0,44.58 36.48,81.06 81.06,81.06h729.6c44.58,0 81.06,-36.48 81.06,-81.06zM876.8,796.54h-729.6v-569.5h729.6zM795.74,471.46h-324.27v243.2h324.27z" fill="url(#color-2tMGAHNV)"/>
		</mask>
	</defs>
	<g fill="none" fill-rule="nonzero" style="mix-blend-mode: normal">
		<g mask="url(#mask-BJb2zGEq)">
			<g color="#ff0000" class="teamapps-color-2">
				<rect x="40.54" y="121.6" width="942.93" height="780.8" fill="currentColor"/>
			</g>
			<g color="#bc13e0" class="teamapps-color-3" mask="url(#mask-uHf9oOaH)">
				<rect x="40.54" y="121.6" width="942.93" height="780.8" fill="currentColor"/>
			</g>
		</g>
		<g filter="url(#filter-EPiLzIrG)" mask="url(#mask-XMdz6pJh)">
			<g color="#fff961" class="teamapps-color-1">
				<rect x="40.54" y="121.6" width="942.93" height="780.8" fill="currentColor"/>
			</g>
		</g>
	</g>
</svg>