<svg version="1.1" xmlns="http://www.w3.org/2000/svg" xmlns:xlink="http://www.w3.org/1999/xlink" viewBox="0,0,1024,1024">
	<!-- Color names: teamapps-color-1, teamapps-color-2, teamapps-color-3 -->
	<desc>pool icon - Licensed under Apache License v2.0 (http://www.apache.org/licenses/LICENSE-2.0) - Created with Iconfu.com - Derivative work of Material icons (Copyright Google Inc.)</desc>
	<defs>
		<linearGradient x1="0" y1="1024" x2="1024" y2="0" id="color-1OSiHcpP" gradientUnits="userSpaceOnUse">
			<stop offset="0.2" stop-color="#000000"/>
			<stop offset="0.8" stop-color="#ffffff"/>
		</linearGradient>
		<radialGradient cx="0" cy="0" r="1448.15" id="color-6SiJCXIR" gradientUnits="userSpaceOnUse">
			<stop offset="0.08" stop-color="#ffffff"/>
			<stop offset="1" stop-color="#000000"/>
		</radialGradient>
		<filter id="filter-rusBGk1X" color-interpolation-filters="sRGB">
			<feOffset/>
		</filter>
		<mask id="mask-62mqqlPs">
			<path d="M317.3,519.4c-8.88,-5.08 -17.1,-9.97 -27.34,-13.93c-8.07,-3.12 -14.02,-10.12 -15.81,-18.59c-1.79,-8.47 0.82,-17.27 6.95,-23.39l113.63,-113.63l-22.43,-22.43c-39.37,-39.37 -75.76,-53.68 -143.89,-53.3c-14.19,0.08 -25.74,-11.41 -25.74,-25.6v-101.34c0,-14.1 11.4,-25.54 25.5,-25.6c106.26,-0.43 171.49,19.71 240.33,88.56l260.21,259.81c5.74,5.73 8.43,13.85 7.23,21.88c-1.19,8.03 -6.12,15.01 -13.28,18.83c-5.56,2.96 -10.83,5.96 -15.46,8.66c-16.81,10.43 -30.93,18.26 -59.81,18.26c-29.3,0 -43.5,-8.55 -59.7,-18.19c-16.89,-10.13 -37.25,-22.35 -75.27,-22.35c-37.83,0 -58.09,12.02 -75.53,22.26c-16.74,10.39 -30.49,18.28 -59.85,18.28c-29.28,0 -43.04,-7.84 -59.73,-18.2zM917.34,902.4c-51.91,0 -81.9,-17.81 -101.5,-29.57c-13.77,-8.19 -18.21,-10.97 -33.48,-10.97c-15.86,0 -19.96,2.57 -33.11,10.74c-0.18,0.11 -0.37,0.22 -0.55,0.33c-19.7,11.56 -49.31,29.47 -101.32,29.47c-51.91,0 -81.9,-17.81 -101.5,-29.57c-13.77,-8.19 -18.21,-10.97 -33.48,-10.97c-15.86,0 -19.96,2.57 -33.11,10.74c-0.18,0.11 -0.37,0.22 -0.55,0.33c-19.79,11.61 -49.77,29.47 -101.73,29.47c-51.95,0 -81.93,-17.84 -101.53,-29.59c-0.08,-0.05 -0.16,-0.09 -0.23,-0.14c-13.09,-8.13 -17.7,-10.8 -33.21,-10.8c-15.53,0 -20.04,2.62 -33.11,10.74c-0.18,0.11 -0.37,0.22 -0.55,0.33c-19.79,11.61 -49.77,29.47 -101.73,29.47c-14.14,0 -25.6,-11.46 -25.6,-25.6v-81.06c0,-14.14 11.46,-25.6 25.6,-25.6c15.86,0 19.96,-2.57 33.11,-10.74c0.18,-0.11 0.37,-0.22 0.55,-0.33c19.79,-11.61 49.77,-29.47 101.73,-29.47c51.95,0 81.93,17.84 101.53,29.59c0.08,0.05 0.16,0.09 0.23,0.14c13.17,8.18 17.37,10.8 33.21,10.8c15.86,0 19.96,-2.57 33.11,-10.74c0.18,-0.11 0.37,-0.22 0.55,-0.33c19.79,-11.61 49.77,-29.47 101.73,-29.47c51.91,0 81.89,17.81 101.49,29.57c13.77,8.19 18.22,10.97 33.49,10.97c15.52,0 20.03,-2.62 33.1,-10.74c0.08,-0.05 0.15,-0.1 0.23,-0.14c19.59,-11.75 49.69,-29.66 101.65,-29.66c51.95,0 81.93,17.84 101.53,29.59c0.08,0.05 0.16,0.09 0.23,0.14c13.17,8.18 17.37,10.8 33.21,10.8c14.14,0 25.6,11.46 25.6,25.6v81.06c0,14.14 -11.46,25.6 -25.6,25.6zM815.84,690.43c-13.77,-8.19 -18.21,-10.97 -33.48,-10.97c-15.86,0 -19.96,2.57 -33.11,10.74c-0.08,0.05 -0.15,0.1 -0.23,0.14c-19.59,11.75 -49.68,29.66 -101.64,29.66c-51.91,0 -81.9,-17.81 -101.5,-29.57c-13.77,-8.19 -18.21,-10.97 -33.48,-10.97c-15.86,0 -19.96,2.57 -33.11,10.74c-0.08,0.05 -0.15,0.1 -0.23,0.14c-19.59,11.75 -49.68,29.66 -101.64,29.66c-51.91,0 -81.9,-17.81 -101.5,-29.57c-13.77,-8.19 -18.21,-10.97 -33.48,-10.97c-15.53,0 -20.04,2.62 -33.11,10.74c-0.25,0.15 -0.5,0.31 -0.76,0.45c-19.99,11.48 -49.99,29.35 -101.93,29.35c-14.14,0 -25.6,-11.46 -25.6,-25.6v-81.06c0,-14.14 11.46,-25.6 25.6,-25.6c15.86,0 19.96,-2.57 33.11,-10.74c0.08,-0.05 0.15,-0.1 0.23,-0.14c19.59,-11.75 49.68,-29.66 101.64,-29.66c51.91,0 81.9,17.81 101.5,29.57c13.77,8.19 18.21,10.97 33.48,10.97c15.86,0 19.96,-2.57 33.11,-10.74c0.08,-0.05 0.15,-0.1 0.23,-0.14c19.59,-11.75 49.68,-29.66 101.64,-29.66c51.91,0 81.9,17.81 101.5,29.57c13.77,8.19 18.21,10.97 33.48,10.97c15.53,0 20.04,-2.62 33.11,-10.74c0.08,-0.05 0.15,-0.1 0.23,-0.14c19.59,-11.75 49.68,-29.66 101.64,-29.66c51.91,0 81.9,17.81 101.5,29.57c13.77,8.19 18.21,10.97 33.48,10.97c14.14,0 25.6,11.46 25.6,25.6v81.06c0,14.18 -11.52,25.66 -25.7,25.6c-51.36,-0.21 -81.12,-17.89 -100.58,-29.57zM567.46,248.54c0,-70.1 56.83,-126.94 126.94,-126.94c70.1,0 126.94,56.83 126.94,126.94c0,70.11 -56.84,126.93 -126.94,126.93c-70.1,0 -126.94,-56.82 -126.94,-126.93zM377.02,512c22.7,0 31.62,-5.27 46.62,-14.59c18.65,-10.94 43.78,-25.94 88.77,-25.94c44.99,0 70.12,15 88.36,25.94c15,8.92 24.32,14.59 46.62,14.59c22.3,0 31.61,-5.27 46.61,-14.59c4.86,-2.84 10.54,-6.08 16.63,-9.32l-260.22,-259.83c-62.82,-62.82 -120.79,-81.47 -222.13,-81.06v101.34c73.77,-0.41 117.14,15.81 162.14,60.8l40.54,40.53l-131.74,131.74c12.57,4.86 22.7,10.94 31.21,15.81c15,9.32 23.92,14.59 46.62,14.59zM917.34,795.74c-22.7,0 -31.62,-5.27 -46.62,-14.59c-18.24,-10.94 -43.37,-25.94 -88.36,-25.94c-44.99,0 -70.13,15 -88.37,25.94c-15,9.32 -24.31,14.59 -46.61,14.59c-22.3,0 -31.62,-5.67 -46.62,-14.59c-18.24,-10.94 -43.37,-25.94 -88.36,-25.94c-44.99,0 -70.12,15 -88.77,25.94c-15,9.32 -23.92,14.59 -46.62,14.59c-22.7,0 -31.62,-5.27 -46.62,-14.59c-18.24,-10.94 -43.37,-25.94 -88.36,-25.94c-44.99,0 -70.12,15 -88.77,25.94c-15,9.32 -23.92,14.59 -46.62,14.59v81.06c44.99,0 70.12,-15 88.77,-25.94c15,-9.32 24.32,-14.59 46.62,-14.59c22.3,0 31.62,5.27 46.62,14.59c18.24,10.94 43.37,25.94 88.36,25.94c44.99,0 70.12,-15 88.77,-25.94c15,-9.32 23.92,-14.59 46.62,-14.59c22.3,0 31.61,5.67 46.61,14.59c18.24,10.94 43.38,25.94 88.37,25.94c44.99,0 69.71,-15 88.36,-25.94c15,-9.32 23.92,-14.59 46.62,-14.59c22.3,0 31.61,5.67 46.61,14.59c18.24,10.94 43.38,25.94 88.37,25.94zM916.52,694.4v-81.06c-22.3,0 -31.61,-5.67 -46.61,-14.59c-18.24,-10.94 -43.38,-25.94 -88.37,-25.94c-44.99,0 -70.12,15 -88.36,25.94c-15,9.32 -24.32,14.59 -46.62,14.59c-22.3,0 -31.61,-5.67 -46.61,-14.59c-18.24,-10.94 -43.38,-25.94 -88.37,-25.94c-44.99,0 -70.12,15 -88.36,25.94c-15,9.32 -23.92,14.59 -46.62,14.59c-22.3,0 -31.61,-5.67 -46.61,-14.59c-18.24,-10.94 -43.38,-25.94 -88.37,-25.94c-44.99,0 -70.12,15 -88.36,25.94c-15,9.32 -23.92,14.59 -46.62,14.59v81.06c44.99,0 70.13,-15 89.18,-25.94c15,-9.32 24.32,-14.59 46.62,-14.59c22.3,0 31.61,5.67 46.61,14.59c18.24,10.94 43.38,25.94 88.37,25.94c44.99,0 70.12,-15 88.36,-25.94c15,-9.32 23.92,-14.59 46.62,-14.59c22.3,0 31.61,5.67 46.61,14.59c18.24,10.94 43.38,25.94 88.37,25.94c44.99,0 70.12,-15 88.36,-25.94c15,-9.32 23.92,-14.59 46.62,-14.59c22.3,0 31.61,5.67 46.61,14.59c18.13,10.88 43.07,25.76 87.55,25.94zM694.4,349.86c55.96,0 101.34,-45.36 101.34,-101.33c0,-55.96 -45.37,-101.34 -101.34,-101.34c-55.96,0 -101.34,45.37 -101.34,101.34c0,55.96 45.37,101.33 101.34,101.33z" fill="#ffffff"/>
		</mask>
		<mask id="mask-6ep4Zixd">
			<rect fill="url(#color-1OSiHcpP)" x="81.06" y="121.59" width="861.87" height="780.81"/>
		</mask>
		<mask id="mask-GMMEnPkf">
			<path d="M317.3,519.4c-8.88,-5.08 -17.1,-9.97 -27.34,-13.93c-8.07,-3.12 -14.02,-10.12 -15.81,-18.59c-1.79,-8.47 0.82,-17.27 6.95,-23.39l113.63,-113.63l-22.43,-22.43c-39.37,-39.37 -75.76,-53.68 -143.89,-53.3c-14.19,0.08 -25.74,-11.41 -25.74,-25.6v-101.34c0,-14.1 11.4,-25.54 25.5,-25.6c106.26,-0.43 171.49,19.71 240.33,88.56l260.21,259.81c5.74,5.73 8.43,13.85 7.23,21.88c-1.19,8.03 -6.12,15.01 -13.28,18.83c-5.56,2.96 -10.83,5.96 -15.46,8.66c-16.81,10.43 -30.93,18.26 -59.81,18.26c-29.3,0 -43.5,-8.55 -59.7,-18.19c-16.89,-10.13 -37.25,-22.35 -75.27,-22.35c-37.83,0 -58.09,12.02 -75.53,22.26c-16.74,10.39 -30.49,18.28 -59.85,18.28c-29.28,0 -43.04,-7.84 -59.73,-18.2zM917.34,902.4c-51.91,0 -81.9,-17.81 -101.5,-29.57c-13.77,-8.19 -18.21,-10.97 -33.48,-10.97c-15.86,0 -19.96,2.57 -33.11,10.74c-0.18,0.11 -0.37,0.22 -0.55,0.33c-19.7,11.56 -49.31,29.47 -101.32,29.47c-51.91,0 -81.9,-17.81 -101.5,-29.57c-13.77,-8.19 -18.21,-10.97 -33.48,-10.97c-15.86,0 -19.96,2.57 -33.11,10.74c-0.18,0.11 -0.37,0.22 -0.55,0.33c-19.79,11.61 -49.77,29.47 -101.73,29.47c-51.95,0 -81.93,-17.84 -101.53,-29.59c-0.08,-0.05 -0.16,-0.09 -0.23,-0.14c-13.09,-8.13 -17.7,-10.8 -33.21,-10.8c-15.53,0 -20.04,2.62 -33.11,10.74c-0.18,0.11 -0.37,0.22 -0.55,0.33c-19.79,11.61 -49.77,29.47 -101.73,29.47c-14.14,0 -25.6,-11.46 -25.6,-25.6v-81.06c0,-14.14 11.46,-25.6 25.6,-25.6c15.86,0 19.96,-2.57 33.11,-10.74c0.18,-0.11 0.37,-0.22 0.55,-0.33c19.79,-11.61 49.77,-29.47 101.73,-29.47c51.95,0 81.93,17.84 101.53,29.59c0.08,0.05 0.16,0.09 0.23,0.14c13.17,8.18 17.37,10.8 33.21,10.8c15.86,0 19.96,-2.57 33.11,-10.74c0.18,-0.11 0.37,-0.22 0.55,-0.33c19.79,-11.61 49.77,-29.47 101.73,-29.47c51.91,0 81.89,17.81 101.49,29.57c13.77,8.19 18.22,10.97 33.49,10.97c15.52,0 20.03,-2.62 33.1,-10.74c0.08,-0.05 0.15,-0.1 0.23,-0.14c19.59,-11.75 49.69,-29.66 101.65,-29.66c51.95,0 81.93,17.84 101.53,29.59c0.08,0.05 0.16,0.09 0.23,0.14c13.17,8.18 17.37,10.8 33.21,10.8c14.14,0 25.6,11.46 25.6,25.6v81.06c0,14.14 -11.46,25.6 -25.6,25.6zM815.84,690.43c-13.77,-8.19 -18.21,-10.97 -33.48,-10.97c-15.86,0 -19.96,2.57 -33.11,10.74c-0.08,0.05 -0.15,0.1 -0.23,0.14c-19.59,11.75 -49.68,29.66 -101.64,29.66c-51.91,0 -81.9,-17.81 -101.5,-29.57c-13.77,-8.19 -18.21,-10.97 -33.48,-10.97c-15.86,0 -19.96,2.57 -33.11,10.74c-0.08,0.05 -0.15,0.1 -0.23,0.14c-19.59,11.75 -49.68,29.66 -101.64,29.66c-51.91,0 -81.9,-17.81 -101.5,-29.57c-13.77,-8.19 -18.21,-10.97 -33.48,-10.97c-15.53,0 -20.04,2.62 -33.11,10.74c-0.25,0.15 -0.5,0.31 -0.76,0.45c-19.99,11.48 -49.99,29.35 -101.93,29.35c-14.14,0 -25.6,-11.46 -25.6,-25.6v-81.06c0,-14.14 11.46,-25.6 25.6,-25.6c15.86,0 19.96,-2.57 33.11,-10.74c0.08,-0.05 0.15,-0.1 0.23,-0.14c19.59,-11.75 49.68,-29.66 101.64,-29.66c51.91,0 81.9,17.81 101.5,29.57c13.77,8.19 18.21,10.97 33.48,10.97c15.86,0 19.96,-2.57 33.11,-10.74c0.08,-0.05 0.15,-0.1 0.23,-0.14c19.59,-11.75 49.68,-29.66 101.64,-29.66c51.91,0 81.9,17.81 101.5,29.57c13.77,8.19 18.21,10.97 33.48,10.97c15.53,0 20.04,-2.62 33.11,-10.74c0.08,-0.05 0.15,-0.1 0.23,-0.14c19.59,-11.75 49.68,-29.66 101.64,-29.66c51.91,0 81.9,17.81 101.5,29.57c13.77,8.19 18.21,10.97 33.48,10.97c14.14,0 25.6,11.46 25.6,25.6v81.06c0,14.18 -11.52,25.66 -25.7,25.6c-51.36,-0.21 -81.12,-17.89 -100.58,-29.57zM567.46,248.54c0,-70.1 56.83,-126.94 126.94,-126.94c70.1,0 126.94,56.83 126.94,126.94c0,70.11 -56.84,126.93 -126.94,126.93c-70.1,0 -126.94,-56.82 -126.94,-126.93zM377.02,512c22.7,0 31.62,-5.27 46.62,-14.59c18.65,-10.94 43.78,-25.94 88.77,-25.94c44.99,0 70.12,15 88.36,25.94c15,8.92 24.32,14.59 46.62,14.59c22.3,0 31.61,-5.27 46.61,-14.59c4.86,-2.84 10.54,-6.08 16.63,-9.32l-260.22,-259.83c-62.82,-62.82 -120.79,-81.47 -222.13,-81.06v101.34c73.77,-0.41 117.14,15.81 162.14,60.8l40.54,40.53l-131.74,131.74c12.57,4.86 22.7,10.94 31.21,15.81c15,9.32 23.92,14.59 46.62,14.59zM917.34,795.74c-22.7,0 -31.62,-5.27 -46.62,-14.59c-18.24,-10.94 -43.37,-25.94 -88.36,-25.94c-44.99,0 -70.13,15 -88.37,25.94c-15,9.32 -24.31,14.59 -46.61,14.59c-22.3,0 -31.62,-5.67 -46.62,-14.59c-18.24,-10.94 -43.37,-25.94 -88.36,-25.94c-44.99,0 -70.12,15 -88.77,25.94c-15,9.32 -23.92,14.59 -46.62,14.59c-22.7,0 -31.62,-5.27 -46.62,-14.59c-18.24,-10.94 -43.37,-25.94 -88.36,-25.94c-44.99,0 -70.12,15 -88.77,25.94c-15,9.32 -23.92,14.59 -46.62,14.59v81.06c44.99,0 70.12,-15 88.77,-25.94c15,-9.32 24.32,-14.59 46.62,-14.59c22.3,0 31.62,5.27 46.62,14.59c18.24,10.94 43.37,25.94 88.36,25.94c44.99,0 70.12,-15 88.77,-25.94c15,-9.32 23.92,-14.59 46.62,-14.59c22.3,0 31.61,5.67 46.61,14.59c18.24,10.94 43.38,25.94 88.37,25.94c44.99,0 69.71,-15 88.36,-25.94c15,-9.32 23.92,-14.59 46.62,-14.59c22.3,0 31.61,5.67 46.61,14.59c18.24,10.94 43.38,25.94 88.37,25.94zM916.52,694.4v-81.06c-22.3,0 -31.61,-5.67 -46.61,-14.59c-18.24,-10.94 -43.38,-25.94 -88.37,-25.94c-44.99,0 -70.12,15 -88.36,25.94c-15,9.32 -24.32,14.59 -46.62,14.59c-22.3,0 -31.61,-5.67 -46.61,-14.59c-18.24,-10.94 -43.38,-25.94 -88.37,-25.94c-44.99,0 -70.12,15 -88.36,25.94c-15,9.32 -23.92,14.59 -46.62,14.59c-22.3,0 -31.61,-5.67 -46.61,-14.59c-18.24,-10.94 -43.38,-25.94 -88.37,-25.94c-44.99,0 -70.12,15 -88.36,25.94c-15,9.32 -23.92,14.59 -46.62,14.59v81.06c44.99,0 70.13,-15 89.18,-25.94c15,-9.32 24.32,-14.59 46.62,-14.59c22.3,0 31.61,5.67 46.61,14.59c18.24,10.94 43.38,25.94 88.37,25.94c44.99,0 70.12,-15 88.36,-25.94c15,-9.32 23.92,-14.59 46.62,-14.59c22.3,0 31.61,5.67 46.61,14.59c18.24,10.94 43.38,25.94 88.37,25.94c44.99,0 70.12,-15 88.36,-25.94c15,-9.32 23.92,-14.59 46.62,-14.59c22.3,0 31.61,5.67 46.61,14.59c18.13,10.88 43.07,25.76 87.55,25.94zM694.4,349.86c55.96,0 101.34,-45.36 101.34,-101.33c0,-55.96 -45.37,-101.34 -101.34,-101.34c-55.96,0 -101.34,45.37 -101.34,101.34c0,55.96 45.37,101.33 101.34,101.33z" fill="url(#color-6SiJCXIR)"/>
		</mask>
	</defs>
	<g fill="none" fill-rule="nonzero" style="mix-blend-mode: normal">
		<g mask="url(#mask-62mqqlPs)">
			<g color="#ff0000" class="teamapps-color-2">
				<rect x="81.06" y="121.59" width="861.87" height="780.81" fill="currentColor"/>
			</g>
			<g color="#bc13e0" class="teamapps-color-3" mask="url(#mask-6ep4Zixd)">
				<rect x="81.06" y="121.59" width="861.87" height="780.81" fill="currentColor"/>
			</g>
		</g>
		<g filter="url(#filter-rusBGk1X)" mask="url(#mask-GMMEnPkf)">
			<g color="#fff961" class="teamapps-color-1">
				<rect x="81.06" y="121.59" width="861.87" height="780.81" fill="currentColor"/>
			</g>
		</g>
	</g>
</svg>