<svg version="1.1" xmlns="http://www.w3.org/2000/svg" xmlns:xlink="http://www.w3.org/1999/xlink" viewBox="0,0,1024,1024">
	<!-- Color names: teamapps-color-1, teamapps-color-2, teamapps-color-3 -->
	<desc>queue_play_next icon - Licensed under Apache License v2.0 (http://www.apache.org/licenses/LICENSE-2.0) - Created with Iconfu.com - Derivative work of Material icons (Copyright Google Inc.)</desc>
	<defs>
		<linearGradient x1="0" y1="1024" x2="1024" y2="0" id="color-LEdnbchA" gradientUnits="userSpaceOnUse">
			<stop offset="0.2" stop-color="#000000"/>
			<stop offset="0.8" stop-color="#ffffff"/>
		</linearGradient>
		<radialGradient cx="0" cy="0" r="1448.15" id="color-lnshqNCM" gradientUnits="userSpaceOnUse">
			<stop offset="0.08" stop-color="#ffffff"/>
			<stop offset="1" stop-color="#000000"/>
		</radialGradient>
		<filter id="filter-POfNfd5O" color-interpolation-filters="sRGB">
			<feOffset/>
		</filter>
		<mask id="mask-0UTX37jx">
			<path d="M983.46,228.26v324.27c0,14.14 -11.46,25.6 -25.6,25.6h-81.06c-14.14,0 -25.6,-11.46 -25.6,-25.6v-298.67h-678.4v435.2h582.4c14.14,0 25.6,11.46 25.6,25.6v81.07c0,14.14 -11.46,25.6 -25.6,25.6h-55.46v55.46c0,14.14 -11.46,25.6 -25.6,25.6h-324.27c-14.14,0 -25.6,-11.46 -25.6,-25.6v-55.46h-177.06c-59.22,0 -106.66,-48.04 -106.66,-106.67v-486.4c0,-59.13 47.53,-106.66 106.66,-106.66h729.6c58.64,0 106.66,47.45 106.66,106.66zM699.74,430.94v81.06c0,14.14 -11.46,25.6 -25.6,25.6h-96v96c0,14.14 -11.46,25.6 -25.6,25.6h-81.07c-14.14,0 -25.6,-11.46 -25.6,-25.6v-96h-96c-14.14,0 -25.6,-11.46 -25.6,-25.6v-81.06c0,-14.14 11.46,-25.6 25.6,-25.6h96v-96c0,-14.14 11.46,-25.6 25.6,-25.6h81.07c14.14,0 25.6,11.46 25.6,25.6v96h96c14.14,0 25.6,11.46 25.6,25.6zM1016.5,773.3l-182.4,182.4c-10,10 -26.21,10 -36.2,0l-60.8,-60.8c-10,-10 -10,-26.21 0,-36.2l103.5,-103.5l-103.5,-103.5c-10,-10 -10,-26.21 0,-36.2l60.8,-60.8c10,-10 26.21,-10 36.2,0l182.4,182.4c10,10 10,26.21 0,36.2zM876.8,147.2h-729.6c-44.99,0 -81.06,36.07 -81.06,81.06v486.4c0,44.58 36.07,81.07 81.06,81.07h202.66v81.06h324.27v-81.06h81.06v-81.07h-608v-486.4h729.6v324.27h81.06v-324.27c0,-44.99 -36.48,-81.06 -81.06,-81.06zM552.54,430.94v-121.6h-81.07v121.6h-121.6v81.06h121.6v121.6h81.07v-121.6h121.6v-81.06zM816,572.8l-60.8,60.8l121.6,121.6l-121.6,121.6l60.8,60.8l182.4,-182.4z" fill="url(#color-lnshqNCM)"/>
		</mask>
		<mask id="mask-FUqzFsnM">
			<rect fill="url(#color-LEdnbchA)" x="40.54" y="121.6" width="983.46" height="841.6"/>
		</mask>
		<mask id="mask-zw7M4vvD">
			<path d="M983.46,228.26v324.27c0,14.14 -11.46,25.6 -25.6,25.6h-81.06c-14.14,0 -25.6,-11.46 -25.6,-25.6v-298.67h-678.4v435.2h582.4c14.14,0 25.6,11.46 25.6,25.6v81.07c0,14.14 -11.46,25.6 -25.6,25.6h-55.46v55.46c0,14.14 -11.46,25.6 -25.6,25.6h-324.27c-14.14,0 -25.6,-11.46 -25.6,-25.6v-55.46h-177.06c-59.22,0 -106.66,-48.04 -106.66,-106.67v-486.4c0,-59.13 47.53,-106.66 106.66,-106.66h729.6c58.64,0 106.66,47.45 106.66,106.66zM699.74,430.94v81.06c0,14.14 -11.46,25.6 -25.6,25.6h-96v96c0,14.14 -11.46,25.6 -25.6,25.6h-81.07c-14.14,0 -25.6,-11.46 -25.6,-25.6v-96h-96c-14.14,0 -25.6,-11.46 -25.6,-25.6v-81.06c0,-14.14 11.46,-25.6 25.6,-25.6h96v-96c0,-14.14 11.46,-25.6 25.6,-25.6h81.07c14.14,0 25.6,11.46 25.6,25.6v96h96c14.14,0 25.6,11.46 25.6,25.6zM1016.5,773.3l-182.4,182.4c-10,10 -26.21,10 -36.2,0l-60.8,-60.8c-10,-10 -10,-26.21 0,-36.2l103.5,-103.5l-103.5,-103.5c-10,-10 -10,-26.21 0,-36.2l60.8,-60.8c10,-10 26.21,-10 36.2,0l182.4,182.4c10,10 10,26.21 0,36.2zM876.8,147.2h-729.6c-44.99,0 -81.06,36.07 -81.06,81.06v486.4c0,44.58 36.07,81.07 81.06,81.07h202.66v81.06h324.27v-81.06h81.06v-81.07h-608v-486.4h729.6v324.27h81.06v-324.27c0,-44.99 -36.48,-81.06 -81.06,-81.06zM552.54,430.94v-121.6h-81.07v121.6h-121.6v81.06h121.6v121.6h81.07v-121.6h121.6v-81.06zM816,572.8l-60.8,60.8l121.6,121.6l-121.6,121.6l60.8,60.8l182.4,-182.4z" fill="#ffffff"/>
		</mask>
	</defs>
	<g fill="none" fill-rule="nonzero" style="mix-blend-mode: normal">
		<g mask="url(#mask-zw7M4vvD)">
			<g color="#ff0000" class="teamapps-color-2">
				<rect x="40.54" y="121.6" width="983.46" height="841.6" fill="currentColor"/>
			</g>
			<g color="#bc13e0" class="teamapps-color-3" mask="url(#mask-FUqzFsnM)">
				<rect x="40.54" y="121.6" width="983.46" height="841.6" fill="currentColor"/>
			</g>
		</g>
		<g filter="url(#filter-POfNfd5O)" mask="url(#mask-0UTX37jx)">
			<g color="#fff961" class="teamapps-color-1">
				<rect x="40.54" y="121.6" width="983.46" height="841.6" fill="currentColor"/>
			</g>
		</g>
	</g>
</svg>