<svg version="1.1" xmlns="http://www.w3.org/2000/svg" xmlns:xlink="http://www.w3.org/1999/xlink" viewBox="0,0,1024,1024">
	<!-- Color names: teamapps-color-1, teamapps-color-2, teamapps-color-3 -->
	<desc>redeem icon - Licensed under Apache License v2.0 (http://www.apache.org/licenses/LICENSE-2.0) - Created with Iconfu.com - Derivative work of Material icons (Copyright Google Inc.)</desc>
	<defs>
		<radialGradient cx="0" cy="0" r="1448.15" id="color-IePL7CLJ" gradientUnits="userSpaceOnUse">
			<stop offset="0.08" stop-color="#ffffff"/>
			<stop offset="1" stop-color="#000000"/>
		</radialGradient>
		<linearGradient x1="0" y1="1024" x2="1024" y2="0" id="color-tbHN0ud6" gradientUnits="userSpaceOnUse">
			<stop offset="0.2" stop-color="#000000"/>
			<stop offset="0.8" stop-color="#ffffff"/>
		</linearGradient>
		<filter id="filter-YnBiBZRK" color-interpolation-filters="sRGB">
			<feOffset/>
		</filter>
		<mask id="mask-E2761mrm">
			<path d="M942.94,349.86v445.87c0,59.13 -47.55,106.66 -106.67,106.66h-648.53c-59.13,0 -106.67,-47.53 -106.67,-106.66l0.41,-445.9c0,-58.96 46.97,-106.64 106.26,-106.64h56.29c-0.54,-4.89 -0.83,-9.88 -0.83,-14.94c0,-81.43 65.77,-147.2 147.2,-147.2c51.12,0 95.32,26.08 121.73,64.39c26.46,-38.52 70.54,-64.39 121.47,-64.39c81.43,0 147.2,65.77 147.2,147.2c0,5.06 -0.29,10.05 -0.83,14.94h56.29c59.13,0 106.67,47.53 106.67,106.66zM680.94,375.46l54.35,73.95c8.42,11.46 5.89,27.59 -5.64,35.91l-65.66,47.42c-11.4,8.23 -27.3,5.73 -35.62,-5.6l-116.37,-158.38l-116.37,158.38c-8.32,11.33 -24.22,13.83 -35.62,5.6l-65.66,-47.42c-11.53,-8.33 -14.06,-24.45 -5.64,-35.91l54.35,-73.95h-129.72v192h597.33v-192zM810.66,740.26h-597.33v29.87h597.33zM375.46,228.26c0,8.16 6.78,14.94 14.94,14.94c8.16,0 14.94,-6.78 14.94,-14.94c0,-8.15 -6.77,-14.93 -14.94,-14.93c-8.17,0 -14.94,6.78 -14.94,14.93zM618.66,228.26c0,8.16 6.78,14.94 14.94,14.94c8.16,0 14.94,-6.78 14.94,-14.94c0,-8.15 -6.77,-14.93 -14.94,-14.93c-8.17,0 -14.94,6.78 -14.94,14.93zM836.26,268.8h-88.36c4.46,-12.57 7.3,-26.35 7.3,-40.54c0,-67.29 -54.31,-121.6 -121.6,-121.6c-42.56,0 -79.45,21.89 -101.34,54.72l-20.26,27.16l-20.26,-27.56c-21.89,-32.42 -58.78,-54.32 -101.34,-54.32c-67.29,0 -121.6,54.31 -121.6,121.6c0,14.18 2.84,27.97 7.3,40.54h-88.36c-44.99,0 -80.66,36.07 -80.66,81.06l-0.41,445.87c0,44.99 36.08,81.06 81.07,81.06h648.53c44.99,0 81.07,-36.07 81.07,-81.06v-445.87c0,-44.99 -36.08,-81.06 -81.07,-81.06zM836.26,593.06h-648.53v-243.2h205.9l-84.3,114.71l65.66,47.42l96.46,-131.33l40.54,-55.13l40.54,55.13l96.46,131.33l65.66,-47.42l-84.3,-114.71h205.9zM836.26,795.74h-648.53v-81.07h648.53zM633.6,187.74c22.3,0 40.54,18.23 40.54,40.53c0,22.3 -18.24,40.54 -40.54,40.54c-22.3,0 -40.54,-18.24 -40.54,-40.54c0,-22.3 18.24,-40.53 40.54,-40.53zM390.4,187.74c22.3,0 40.54,18.23 40.54,40.53c0,22.3 -18.24,40.54 -40.54,40.54c-22.3,0 -40.54,-18.24 -40.54,-40.54c0,-22.3 18.24,-40.53 40.54,-40.53z" fill="url(#color-IePL7CLJ)"/>
		</mask>
		<mask id="mask-RZK6Slfp">
			<path d="M942.94,349.86v445.87c0,59.13 -47.55,106.66 -106.67,106.66h-648.53c-59.13,0 -106.67,-47.53 -106.67,-106.66l0.41,-445.9c0,-58.96 46.97,-106.64 106.26,-106.64h56.29c-0.54,-4.89 -0.83,-9.88 -0.83,-14.94c0,-81.43 65.77,-147.2 147.2,-147.2c51.12,0 95.32,26.08 121.73,64.39c26.46,-38.52 70.54,-64.39 121.47,-64.39c81.43,0 147.2,65.77 147.2,147.2c0,5.06 -0.29,10.05 -0.83,14.94h56.29c59.13,0 106.67,47.53 106.67,106.66zM680.94,375.46l54.35,73.95c8.42,11.46 5.89,27.59 -5.64,35.91l-65.66,47.42c-11.4,8.23 -27.3,5.73 -35.62,-5.6l-116.37,-158.38l-116.37,158.38c-8.32,11.33 -24.22,13.83 -35.62,5.6l-65.66,-47.42c-11.53,-8.33 -14.06,-24.45 -5.64,-35.91l54.35,-73.95h-129.72v192h597.33v-192zM810.66,740.26h-597.33v29.87h597.33zM375.46,228.26c0,8.16 6.78,14.94 14.94,14.94c8.16,0 14.94,-6.78 14.94,-14.94c0,-8.15 -6.77,-14.93 -14.94,-14.93c-8.17,0 -14.94,6.78 -14.94,14.93zM618.66,228.26c0,8.16 6.78,14.94 14.94,14.94c8.16,0 14.94,-6.78 14.94,-14.94c0,-8.15 -6.77,-14.93 -14.94,-14.93c-8.17,0 -14.94,6.78 -14.94,14.93zM836.26,268.8h-88.36c4.46,-12.57 7.3,-26.35 7.3,-40.54c0,-67.29 -54.31,-121.6 -121.6,-121.6c-42.56,0 -79.45,21.89 -101.34,54.72l-20.26,27.16l-20.26,-27.56c-21.89,-32.42 -58.78,-54.32 -101.34,-54.32c-67.29,0 -121.6,54.31 -121.6,121.6c0,14.18 2.84,27.97 7.3,40.54h-88.36c-44.99,0 -80.66,36.07 -80.66,81.06l-0.41,445.87c0,44.99 36.08,81.06 81.07,81.06h648.53c44.99,0 81.07,-36.07 81.07,-81.06v-445.87c0,-44.99 -36.08,-81.06 -81.07,-81.06zM836.26,593.06h-648.53v-243.2h205.9l-84.3,114.71l65.66,47.42l96.46,-131.33l40.54,-55.13l40.54,55.13l96.46,131.33l65.66,-47.42l-84.3,-114.71h205.9zM836.26,795.74h-648.53v-81.07h648.53zM633.6,187.74c22.3,0 40.54,18.23 40.54,40.53c0,22.3 -18.24,40.54 -40.54,40.54c-22.3,0 -40.54,-18.24 -40.54,-40.54c0,-22.3 18.24,-40.53 40.54,-40.53zM390.4,187.74c22.3,0 40.54,18.23 40.54,40.53c0,22.3 -18.24,40.54 -40.54,40.54c-22.3,0 -40.54,-18.24 -40.54,-40.54c0,-22.3 18.24,-40.53 40.54,-40.53z" fill="#ffffff"/>
		</mask>
		<mask id="mask-TGG6f6lo">
			<rect fill="url(#color-tbHN0ud6)" x="81.06" y="81.06" width="861.87" height="821.34"/>
		</mask>
	</defs>
	<g fill="none" fill-rule="nonzero" style="mix-blend-mode: normal">
		<g mask="url(#mask-RZK6Slfp)">
			<g color="#ff0000" class="teamapps-color-2">
				<rect x="81.06" y="81.06" width="861.87" height="821.34" fill="currentColor"/>
			</g>
			<g color="#bc13e0" class="teamapps-color-3" mask="url(#mask-TGG6f6lo)">
				<rect x="81.06" y="81.06" width="861.87" height="821.34" fill="currentColor"/>
			</g>
		</g>
		<g filter="url(#filter-YnBiBZRK)" mask="url(#mask-E2761mrm)">
			<g color="#fff961" class="teamapps-color-1">
				<rect x="81.06" y="81.06" width="861.87" height="821.34" fill="currentColor"/>
			</g>
		</g>
	</g>
</svg>