<svg version="1.1" xmlns="http://www.w3.org/2000/svg" xmlns:xlink="http://www.w3.org/1999/xlink" viewBox="0,0,1024,1024">
	<!-- Color names: teamapps-color-1, teamapps-color-2, teamapps-color-3 -->
	<desc>repeat icon - Licensed under Apache License v2.0 (http://www.apache.org/licenses/LICENSE-2.0) - Created with Iconfu.com - Derivative work of Material icons (Copyright Google Inc.)</desc>
	<defs>
		<radialGradient cx="0" cy="0" r="1448.15" id="color-0Q92YUP7" gradientUnits="userSpaceOnUse">
			<stop offset="0.08" stop-color="#ffffff"/>
			<stop offset="1" stop-color="#000000"/>
		</radialGradient>
		<linearGradient x1="0" y1="1024" x2="1024" y2="0" id="color-NgJOI165" gradientUnits="userSpaceOnUse">
			<stop offset="0.2" stop-color="#000000"/>
			<stop offset="0.8" stop-color="#ffffff"/>
		</linearGradient>
		<filter id="filter-AzzQyH8L" color-interpolation-filters="sRGB">
			<feOffset/>
		</filter>
		<mask id="mask-HgP9GWdh">
			<path d="M309.34,497.06h-81.07c-14.14,0 -25.6,-11.46 -25.6,-25.6v-243.2c0,-14.14 11.46,-25.6 25.6,-25.6h460.8v-96c0,-10.35 6.24,-19.69 15.8,-23.65c9.57,-3.96 20.58,-1.77 27.9,5.55l162.14,162.14c10,10 10,26.21 0,36.2l-162.14,162.14c-7.32,7.32 -18.33,9.51 -27.9,5.55c-9.57,-3.96 -15.8,-13.3 -15.8,-23.65v-96h-354.13v136.53c0,14.14 -11.46,25.6 -25.6,25.6zM714.66,526.94h81.07c14.14,0 25.6,11.46 25.6,25.6v243.2c0,14.14 -11.46,25.6 -25.6,25.6h-460.8v96c0,10.35 -6.24,19.69 -15.8,23.65c-9.57,3.96 -20.58,1.77 -27.9,-5.55l-162.14,-162.14c-10,-10 -10,-26.21 0,-36.2l162.14,-162.14c7.32,-7.32 18.33,-9.51 27.9,-5.55c9.57,3.96 15.8,13.3 15.8,23.65v96h354.13v-136.53c0,-14.14 11.46,-25.6 25.6,-25.6zM309.34,309.34h405.33v121.6l162.14,-162.14l-162.14,-162.14v121.6h-486.4v243.2h81.07zM714.66,714.66h-405.33v-121.6l-162.14,162.14l162.14,162.14v-121.6h486.4v-243.2h-81.07z" fill="#ffffff"/>
		</mask>
		<mask id="mask-nu81mqu1">
			<path d="M309.34,497.06h-81.07c-14.14,0 -25.6,-11.46 -25.6,-25.6v-243.2c0,-14.14 11.46,-25.6 25.6,-25.6h460.8v-96c0,-10.35 6.24,-19.69 15.8,-23.65c9.57,-3.96 20.58,-1.77 27.9,5.55l162.14,162.14c10,10 10,26.21 0,36.2l-162.14,162.14c-7.32,7.32 -18.33,9.51 -27.9,5.55c-9.57,-3.96 -15.8,-13.3 -15.8,-23.65v-96h-354.13v136.53c0,14.14 -11.46,25.6 -25.6,25.6zM714.66,526.94h81.07c14.14,0 25.6,11.46 25.6,25.6v243.2c0,14.14 -11.46,25.6 -25.6,25.6h-460.8v96c0,10.35 -6.24,19.69 -15.8,23.65c-9.57,3.96 -20.58,1.77 -27.9,-5.55l-162.14,-162.14c-10,-10 -10,-26.21 0,-36.2l162.14,-162.14c7.32,-7.32 18.33,-9.51 27.9,-5.55c9.57,3.96 15.8,13.3 15.8,23.65v96h354.13v-136.53c0,-14.14 11.46,-25.6 25.6,-25.6zM309.34,309.34h405.33v121.6l162.14,-162.14l-162.14,-162.14v121.6h-486.4v243.2h81.07zM714.66,714.66h-405.33v-121.6l-162.14,162.14l162.14,162.14v-121.6h486.4v-243.2h-81.07z" fill="url(#color-0Q92YUP7)"/>
		</mask>
		<mask id="mask-pHLUuApA">
			<rect fill="url(#color-NgJOI165)" x="121.6" y="81.06" width="780.8" height="861.87"/>
		</mask>
	</defs>
	<g fill="none" fill-rule="nonzero" style="mix-blend-mode: normal">
		<g mask="url(#mask-HgP9GWdh)">
			<g color="#ff0000" class="teamapps-color-2">
				<rect x="121.6" y="81.06" width="780.8" height="861.87" fill="currentColor"/>
			</g>
			<g color="#bc13e0" class="teamapps-color-3" mask="url(#mask-pHLUuApA)">
				<rect x="121.6" y="81.06" width="780.8" height="861.87" fill="currentColor"/>
			</g>
		</g>
		<g filter="url(#filter-AzzQyH8L)" mask="url(#mask-nu81mqu1)">
			<g color="#fff961" class="teamapps-color-1">
				<rect x="121.6" y="81.06" width="780.8" height="861.87" fill="currentColor"/>
			</g>
		</g>
	</g>
</svg>