<svg version="1.1" xmlns="http://www.w3.org/2000/svg" xmlns:xlink="http://www.w3.org/1999/xlink" viewBox="0,0,1024,1024">
	<!-- Color names: teamapps-color-1, teamapps-color-2, teamapps-color-3 -->
	<desc>replay_10 icon - Licensed under Apache License v2.0 (http://www.apache.org/licenses/LICENSE-2.0) - Created with Iconfu.com - Derivative work of Material icons (Copyright Google Inc.)</desc>
	<defs>
		<linearGradient x1="0" y1="1024" x2="1024" y2="0" id="color-9MKQgFdI" gradientUnits="userSpaceOnUse">
			<stop offset="0.2" stop-color="#000000"/>
			<stop offset="0.8" stop-color="#ffffff"/>
		</linearGradient>
		<radialGradient cx="0" cy="0" r="1448.15" id="color-AMSGCITm" gradientUnits="userSpaceOnUse">
			<stop offset="0.08" stop-color="#ffffff"/>
			<stop offset="1" stop-color="#000000"/>
		</radialGradient>
		<filter id="filter-64TJMsez" color-interpolation-filters="sRGB">
			<feOffset/>
		</filter>
		<mask id="mask-1YpvRCIX">
			<path d="M861.86,552.54c0,192.48 -157.38,349.86 -349.86,349.86c-192.48,0 -349.86,-157.38 -349.86,-349.86c0,-14.14 11.46,-25.6 25.6,-25.6h81.06c14.14,0 25.6,11.46 25.6,25.6c0,119.62 97.98,217.6 217.6,217.6c119.62,0 217.6,-97.98 217.6,-217.6c0,-110.96 -84.31,-203.31 -192,-216.09v135.02c0,5.6 -1.83,10.91 -5.02,15.22c6.93,-4.39 15.56,-8.39 24,-8.39c0.39,0 1.34,-0.11 5.95,-1.26c3.49,-0.87 10.63,-2.79 18.37,-2.79c7.5,0 21.53,-0.37 35.78,6.76c5.61,2.81 9.82,5.64 12.87,7.66c3.05,2.03 4.92,3.25 7.41,4.5c20.6,10.31 24.27,36.98 24.98,39.11c5.47,16.41 5.36,28.14 5.36,40.52v28.38c0,9.79 0.62,29.14 -6.76,43.88l-12.15,24.31c-1.23,2.46 -2.85,4.71 -4.8,6.66c0,0 -19.67,19.65 -38.37,19.65c-0.39,0 -1.35,0.11 -5.95,1.26c-3.49,0.87 -10.63,2.79 -18.37,2.79c-7.5,0 -21.53,0.37 -35.78,-6.76c-5.62,-2.81 -9.83,-5.64 -12.87,-7.67c-3.05,-2.03 -4.91,-3.25 -7.39,-4.49c-20.6,-10.31 -24.27,-36.98 -24.98,-39.11c-5.47,-16.4 -5.37,-28.12 -5.37,-40.52v-28.38c0,-9.81 -0.61,-29.15 6.76,-43.88l12.15,-24.31c1.23,-2.46 2.85,-4.71 4.8,-6.65c0,0 0.98,-0.98 2.7,-2.5c-9.36,3.48 -19.92,1.21 -27.02,-5.89l-202.66,-202.66c-10,-10 -10,-26.21 0,-36.2l202.66,-202.66c7.32,-7.32 18.33,-9.51 27.9,-5.55c9.57,3.96 15.8,13.3 15.8,23.65v137.46c180.64,13.22 324.26,165.06 324.26,348.94zM467.42,699.74h-36.48c-14.14,0 -25.6,-11.46 -25.6,-25.6v-99.35l-7.58,2.27c-7.75,2.33 -16.14,0.85 -22.64,-3.98c-6.49,-4.83 -10.32,-12.45 -10.32,-20.54v-28.38c0,-11.02 7.05,-20.8 17.5,-24.29l72.96,-24.32c2.61,-0.87 5.34,-1.31 8.1,-1.31h4.06c14.14,0 25.6,11.46 25.6,25.6v174.3c0,14.14 -11.46,25.6 -25.6,25.6zM512,228.26v-162.13l-202.66,202.66l202.66,202.66v-162.13c133.76,0 243.2,109.44 243.2,243.2c0,133.76 -109.44,243.2 -243.2,243.2c-133.76,0 -243.2,-109.44 -243.2,-243.2h-81.06c0,178.34 145.92,324.26 324.26,324.26c178.34,0 324.26,-145.92 324.26,-324.26c0,-178.34 -145.92,-324.27 -324.26,-324.27zM641.7,572.8c0,-12.16 0.01,-20.26 -4.05,-32.42c-4.06,-12.16 -4.06,-20.26 -12.16,-24.32c-8.1,-4.06 -12.17,-8.1 -20.27,-12.16c-8.1,-4.06 -16.22,-4.06 -24.32,-4.06c-8.1,0 -16.22,4.06 -24.32,4.06c-8.1,0 -20.26,12.16 -20.26,12.16l-12.16,24.32c-4.06,8.1 -4.06,20.26 -4.06,32.42v28.38c0,12.16 0,20.26 4.06,32.42c4.06,12.16 4.06,20.26 12.16,24.32c8.1,4.06 12.16,8.1 20.26,12.16c8.1,4.06 16.22,4.06 24.32,4.06c8.1,0 16.22,-4.06 24.32,-4.06c8.1,0 20.27,-12.16 20.27,-12.16l12.16,-24.32c4.06,-8.1 4.05,-20.26 4.05,-32.42zM467.42,499.84h-4.06l-72.96,24.32v28.38l40.54,-12.16v133.76h36.48zM605.22,629.54c0,4.06 -4.05,12.16 -4.05,12.16l-8.11,8.11c-4.06,4.06 -8.1,4.05 -12.16,4.05c-4.06,0 -8.1,0.01 -12.16,-4.05c-4.06,-4.06 -8.1,-4.06 -8.1,-8.11c0,-4.06 -4.06,-12.16 -4.06,-12.16v-81.06c0,-4.06 4.06,-12.16 4.06,-12.16l8.1,-8.1c4.06,-4.06 8.1,-4.06 12.16,-4.06c4.06,0 8.1,0 12.16,4.06c4.06,4.06 8.11,4.05 8.11,8.1c0,4.06 4.05,12.16 4.05,12.16z" fill="#ffffff"/>
		</mask>
		<mask id="mask-2UKIJlX1">
			<rect fill="url(#color-9MKQgFdI)" x="162.14" y="40.54" width="699.73" height="861.86"/>
		</mask>
		<mask id="mask-R59ncKVy">
			<path d="M861.86,552.54c0,192.48 -157.38,349.86 -349.86,349.86c-192.48,0 -349.86,-157.38 -349.86,-349.86c0,-14.14 11.46,-25.6 25.6,-25.6h81.06c14.14,0 25.6,11.46 25.6,25.6c0,119.62 97.98,217.6 217.6,217.6c119.62,0 217.6,-97.98 217.6,-217.6c0,-110.96 -84.31,-203.31 -192,-216.09v135.02c0,5.6 -1.83,10.91 -5.02,15.22c6.93,-4.39 15.56,-8.39 24,-8.39c0.39,0 1.34,-0.11 5.95,-1.26c3.49,-0.87 10.63,-2.79 18.37,-2.79c7.5,0 21.53,-0.37 35.78,6.76c5.61,2.81 9.82,5.64 12.87,7.66c3.05,2.03 4.92,3.25 7.41,4.5c20.6,10.31 24.27,36.98 24.98,39.11c5.47,16.41 5.36,28.14 5.36,40.52v28.38c0,9.79 0.62,29.14 -6.76,43.88l-12.15,24.31c-1.23,2.46 -2.85,4.71 -4.8,6.66c0,0 -19.67,19.65 -38.37,19.65c-0.39,0 -1.35,0.11 -5.95,1.26c-3.49,0.87 -10.63,2.79 -18.37,2.79c-7.5,0 -21.53,0.37 -35.78,-6.76c-5.62,-2.81 -9.83,-5.64 -12.87,-7.67c-3.05,-2.03 -4.91,-3.25 -7.39,-4.49c-20.6,-10.31 -24.27,-36.98 -24.98,-39.11c-5.47,-16.4 -5.37,-28.12 -5.37,-40.52v-28.38c0,-9.81 -0.61,-29.15 6.76,-43.88l12.15,-24.31c1.23,-2.46 2.85,-4.71 4.8,-6.65c0,0 0.98,-0.98 2.7,-2.5c-9.36,3.48 -19.92,1.21 -27.02,-5.89l-202.66,-202.66c-10,-10 -10,-26.21 0,-36.2l202.66,-202.66c7.32,-7.32 18.33,-9.51 27.9,-5.55c9.57,3.96 15.8,13.3 15.8,23.65v137.46c180.64,13.22 324.26,165.06 324.26,348.94zM467.42,699.74h-36.48c-14.14,0 -25.6,-11.46 -25.6,-25.6v-99.35l-7.58,2.27c-7.75,2.33 -16.14,0.85 -22.64,-3.98c-6.49,-4.83 -10.32,-12.45 -10.32,-20.54v-28.38c0,-11.02 7.05,-20.8 17.5,-24.29l72.96,-24.32c2.61,-0.87 5.34,-1.31 8.1,-1.31h4.06c14.14,0 25.6,11.46 25.6,25.6v174.3c0,14.14 -11.46,25.6 -25.6,25.6zM512,228.26v-162.13l-202.66,202.66l202.66,202.66v-162.13c133.76,0 243.2,109.44 243.2,243.2c0,133.76 -109.44,243.2 -243.2,243.2c-133.76,0 -243.2,-109.44 -243.2,-243.2h-81.06c0,178.34 145.92,324.26 324.26,324.26c178.34,0 324.26,-145.92 324.26,-324.26c0,-178.34 -145.92,-324.27 -324.26,-324.27zM641.7,572.8c0,-12.16 0.01,-20.26 -4.05,-32.42c-4.06,-12.16 -4.06,-20.26 -12.16,-24.32c-8.1,-4.06 -12.17,-8.1 -20.27,-12.16c-8.1,-4.06 -16.22,-4.06 -24.32,-4.06c-8.1,0 -16.22,4.06 -24.32,4.06c-8.1,0 -20.26,12.16 -20.26,12.16l-12.16,24.32c-4.06,8.1 -4.06,20.26 -4.06,32.42v28.38c0,12.16 0,20.26 4.06,32.42c4.06,12.16 4.06,20.26 12.16,24.32c8.1,4.06 12.16,8.1 20.26,12.16c8.1,4.06 16.22,4.06 24.32,4.06c8.1,0 16.22,-4.06 24.32,-4.06c8.1,0 20.27,-12.16 20.27,-12.16l12.16,-24.32c4.06,-8.1 4.05,-20.26 4.05,-32.42zM467.42,499.84h-4.06l-72.96,24.32v28.38l40.54,-12.16v133.76h36.48zM605.22,629.54c0,4.06 -4.05,12.16 -4.05,12.16l-8.11,8.11c-4.06,4.06 -8.1,4.05 -12.16,4.05c-4.06,0 -8.1,0.01 -12.16,-4.05c-4.06,-4.06 -8.1,-4.06 -8.1,-8.11c0,-4.06 -4.06,-12.16 -4.06,-12.16v-81.06c0,-4.06 4.06,-12.16 4.06,-12.16l8.1,-8.1c4.06,-4.06 8.1,-4.06 12.16,-4.06c4.06,0 8.1,0 12.16,4.06c4.06,4.06 8.11,4.05 8.11,8.1c0,4.06 4.05,12.16 4.05,12.16z" fill="url(#color-AMSGCITm)"/>
		</mask>
	</defs>
	<g fill="none" fill-rule="nonzero" style="mix-blend-mode: normal">
		<g mask="url(#mask-1YpvRCIX)">
			<g color="#ff0000" class="teamapps-color-2">
				<rect x="162.14" y="40.54" width="699.73" height="861.86" fill="currentColor"/>
			</g>
			<g color="#bc13e0" class="teamapps-color-3" mask="url(#mask-2UKIJlX1)">
				<rect x="162.14" y="40.54" width="699.73" height="861.86" fill="currentColor"/>
			</g>
		</g>
		<g filter="url(#filter-64TJMsez)" mask="url(#mask-R59ncKVy)">
			<g color="#fff961" class="teamapps-color-1">
				<rect x="162.14" y="40.54" width="699.73" height="861.86" fill="currentColor"/>
			</g>
		</g>
	</g>
</svg>