<svg version="1.1" xmlns="http://www.w3.org/2000/svg" xmlns:xlink="http://www.w3.org/1999/xlink" viewBox="0,0,1024,1024">
	<!-- Color names: teamapps-color-1, teamapps-color-2, teamapps-color-3 -->
	<desc>rotate_90_degrees_ccw icon - Licensed under Apache License v2.0 (http://www.apache.org/licenses/LICENSE-2.0) - Created with Iconfu.com - Derivative work of Material icons (Copyright Google Inc.)</desc>
	<defs>
		<linearGradient x1="0" y1="1024" x2="1024" y2="0" id="color-oVFBO7i1" gradientUnits="userSpaceOnUse">
			<stop offset="0.2" stop-color="#000000"/>
			<stop offset="0.8" stop-color="#ffffff"/>
		</linearGradient>
		<radialGradient cx="0" cy="0" r="1448.15" id="color-TYwXBE9v" gradientUnits="userSpaceOnUse">
			<stop offset="0.08" stop-color="#ffffff"/>
			<stop offset="1" stop-color="#000000"/>
		</radialGradient>
		<filter id="filter-ZN1UiOOT" color-interpolation-filters="sRGB">
			<feOffset/>
		</filter>
		<mask id="mask-7fyapewg">
			<path d="M828.44,828.42c-75.95,76.36 -176.2,114.52 -275.91,114.52c-64.75,0 -129.37,-16.52 -187.82,-48.55c-7.07,-3.87 -11.9,-10.85 -13.04,-18.83c-1.14,-7.98 1.54,-16.03 7.24,-21.73l60.39,-60.39c7.49,-7.49 18.82,-9.59 28.5,-5.29c33.29,14.8 69.08,22.51 104.72,22.51c66.06,0 132.02,-25.07 182.54,-75.59c100.66,-100.66 100.66,-264.42 0,-365.08c-43.99,-43.99 -99.68,-68.68 -156.94,-74.34v104.47c0,10.35 -6.24,19.69 -15.8,23.65c-9.57,3.96 -20.58,1.77 -27.9,-5.55l-171.86,-171.86c-10,-10 -10,-26.21 0,-36.2l171.86,-171.85c7.32,-7.32 18.33,-9.51 27.9,-5.55c9.57,3.96 15.8,13.3 15.8,23.65v106.57c91.09,5.97 180.85,43.86 250.31,113.68c152.66,152.27 152.66,399.5 0,551.76zM604.67,566.6l-263.06,262.66c-9.99,9.98 -26.18,9.98 -36.18,0l-263.06,-262.66c-10.01,-9.99 -10.02,-26.2 -0.03,-36.2l262.66,-263.06c9.99,-10.01 26.2,-10.02 36.2,-0.03l263.47,263.06c10.02,10 10.02,26.23 0,36.23zM323.5,436.36l-112.15,112.15l111.79,112.1l112.15,-112.15zM810.33,294.74c-70.94,-71.34 -164.57,-107.01 -257.79,-107.01v-131.33l-171.86,171.86l171.86,171.86v-131.33c72.55,0 145.11,27.57 200.64,83.1c110.66,110.66 110.66,290.62 0,401.28c-55.53,55.53 -128.09,83.09 -200.64,83.09c-39.32,0 -78.64,-8.5 -115.12,-24.72l-60.39,60.39c54.72,29.99 115.12,45.4 175.51,45.4c93.22,0 186.86,-35.67 257.79,-107.01c142.68,-142.27 142.68,-373.31 0,-515.58zM323.11,285.42l-262.66,263.06l263.06,262.66l263.06,-262.66zM175.17,548.48l148.35,-148.35l147.94,148.35l-148.35,148.35z" fill="#ffffff"/>
		</mask>
		<mask id="mask-EA8bybBw">
			<path d="M828.44,828.42c-75.95,76.36 -176.2,114.52 -275.91,114.52c-64.75,0 -129.37,-16.52 -187.82,-48.55c-7.07,-3.87 -11.9,-10.85 -13.04,-18.83c-1.14,-7.98 1.54,-16.03 7.24,-21.73l60.39,-60.39c7.49,-7.49 18.82,-9.59 28.5,-5.29c33.29,14.8 69.08,22.51 104.72,22.51c66.06,0 132.02,-25.07 182.54,-75.59c100.66,-100.66 100.66,-264.42 0,-365.08c-43.99,-43.99 -99.68,-68.68 -156.94,-74.34v104.47c0,10.35 -6.24,19.69 -15.8,23.65c-9.57,3.96 -20.58,1.77 -27.9,-5.55l-171.86,-171.86c-10,-10 -10,-26.21 0,-36.2l171.86,-171.85c7.32,-7.32 18.33,-9.51 27.9,-5.55c9.57,3.96 15.8,13.3 15.8,23.65v106.57c91.09,5.97 180.85,43.86 250.31,113.68c152.66,152.27 152.66,399.5 0,551.76zM604.67,566.6l-263.06,262.66c-9.99,9.98 -26.18,9.98 -36.18,0l-263.06,-262.66c-10.01,-9.99 -10.02,-26.2 -0.03,-36.2l262.66,-263.06c9.99,-10.01 26.2,-10.02 36.2,-0.03l263.47,263.06c10.02,10 10.02,26.23 0,36.23zM323.5,436.36l-112.15,112.15l111.79,112.1l112.15,-112.15zM810.33,294.74c-70.94,-71.34 -164.57,-107.01 -257.79,-107.01v-131.33l-171.86,171.86l171.86,171.86v-131.33c72.55,0 145.11,27.57 200.64,83.1c110.66,110.66 110.66,290.62 0,401.28c-55.53,55.53 -128.09,83.09 -200.64,83.09c-39.32,0 -78.64,-8.5 -115.12,-24.72l-60.39,60.39c54.72,29.99 115.12,45.4 175.51,45.4c93.22,0 186.86,-35.67 257.79,-107.01c142.68,-142.27 142.68,-373.31 0,-515.58zM323.11,285.42l-262.66,263.06l263.06,262.66l263.06,-262.66zM175.17,548.48l148.35,-148.35l147.94,148.35l-148.35,148.35z" fill="url(#color-TYwXBE9v)"/>
		</mask>
		<mask id="mask-zCfM18yI">
			<rect fill="url(#color-oVFBO7i1)" x="34.86" y="30.81" width="908.08" height="912.13"/>
		</mask>
	</defs>
	<g fill="none" fill-rule="nonzero" style="mix-blend-mode: normal">
		<g mask="url(#mask-7fyapewg)">
			<g color="#ff0000" class="teamapps-color-2">
				<rect x="34.86" y="30.81" width="908.08" height="912.13" fill="currentColor"/>
			</g>
			<g color="#bc13e0" class="teamapps-color-3" mask="url(#mask-zCfM18yI)">
				<rect x="34.86" y="30.81" width="908.08" height="912.13" fill="currentColor"/>
			</g>
		</g>
		<g filter="url(#filter-ZN1UiOOT)" mask="url(#mask-EA8bybBw)">
			<g color="#fff961" class="teamapps-color-1">
				<rect x="34.86" y="30.81" width="908.08" height="912.13" fill="currentColor"/>
			</g>
		</g>
	</g>
</svg>