<svg version="1.1" xmlns="http://www.w3.org/2000/svg" xmlns:xlink="http://www.w3.org/1999/xlink" viewBox="0,0,1024,1024">
	<!-- Color names: teamapps-color-1, teamapps-color-2, teamapps-color-3 -->
	<desc>save icon - Licensed under Apache License v2.0 (http://www.apache.org/licenses/LICENSE-2.0) - Created with Iconfu.com - Derivative work of Material icons (Copyright Google Inc.)</desc>
	<defs>
		<linearGradient x1="0" y1="1024" x2="1024" y2="0" id="color-NRMW4DAE" gradientUnits="userSpaceOnUse">
			<stop offset="0.2" stop-color="#000000"/>
			<stop offset="0.8" stop-color="#ffffff"/>
		</linearGradient>
		<radialGradient cx="0" cy="0" r="1448.15" id="color-YRd0uy3H" gradientUnits="userSpaceOnUse">
			<stop offset="0.08" stop-color="#ffffff"/>
			<stop offset="1" stop-color="#000000"/>
		</radialGradient>
		<filter id="filter-8JhqPtO4" color-interpolation-filters="sRGB">
			<feOffset/>
		</filter>
		<mask id="mask-6td0kN5z">
			<rect fill="url(#color-NRMW4DAE)" x="121.6" y="121.6" width="780.8" height="780.8"/>
		</mask>
		<mask id="mask-fGvMnXxm">
			<path d="M902.4,309.34v486.4c0,58.72 -47.94,106.66 -106.66,106.66h-567.47c-59.22,0 -106.66,-48.03 -106.66,-106.66v-567.47c0,-58.64 47.45,-106.66 106.66,-106.66h486.4c6.79,0 13.3,2.7 18.1,7.5l162.14,162.14c4.8,4.8 7.5,11.31 7.5,18.1zM253.86,253.86v110.94h354.14v-110.94zM608,674.14c0,-53.15 -42.85,-96 -96,-96c-53.15,0 -96,42.85 -96,96c0,53.15 42.85,96 96,96c53.15,0 96,-42.85 96,-96zM714.66,147.2h-486.4c-44.99,0 -81.06,36.48 -81.06,81.06v567.47c0,44.58 36.07,81.06 81.06,81.06h567.47c44.58,0 81.06,-36.48 81.06,-81.06v-486.4zM633.6,390.4h-405.34v-162.14h405.34zM512,795.74c-67.29,0 -121.6,-54.31 -121.6,-121.6c0,-67.29 54.31,-121.6 121.6,-121.6c67.29,0 121.6,54.31 121.6,121.6c0,67.29 -54.31,121.6 -121.6,121.6z" fill="url(#color-YRd0uy3H)"/>
		</mask>
		<mask id="mask-m8tDGrzM">
			<path d="M902.4,309.34v486.4c0,58.72 -47.94,106.66 -106.66,106.66h-567.47c-59.22,0 -106.66,-48.03 -106.66,-106.66v-567.47c0,-58.64 47.45,-106.66 106.66,-106.66h486.4c6.79,0 13.3,2.7 18.1,7.5l162.14,162.14c4.8,4.8 7.5,11.31 7.5,18.1zM253.86,253.86v110.94h354.14v-110.94zM608,674.14c0,-53.15 -42.85,-96 -96,-96c-53.15,0 -96,42.85 -96,96c0,53.15 42.85,96 96,96c53.15,0 96,-42.85 96,-96zM714.66,147.2h-486.4c-44.99,0 -81.06,36.48 -81.06,81.06v567.47c0,44.58 36.07,81.06 81.06,81.06h567.47c44.58,0 81.06,-36.48 81.06,-81.06v-486.4zM633.6,390.4h-405.34v-162.14h405.34zM512,795.74c-67.29,0 -121.6,-54.31 -121.6,-121.6c0,-67.29 54.31,-121.6 121.6,-121.6c67.29,0 121.6,54.31 121.6,121.6c0,67.29 -54.31,121.6 -121.6,121.6z" fill="#ffffff"/>
		</mask>
	</defs>
	<g fill="none" fill-rule="nonzero" style="mix-blend-mode: normal">
		<g mask="url(#mask-m8tDGrzM)">
			<g color="#ff0000" class="teamapps-color-2">
				<rect x="121.6" y="121.6" width="780.8" height="780.8" fill="currentColor"/>
			</g>
			<g color="#bc13e0" class="teamapps-color-3" mask="url(#mask-6td0kN5z)">
				<rect x="121.6" y="121.6" width="780.8" height="780.8" fill="currentColor"/>
			</g>
		</g>
		<g filter="url(#filter-8JhqPtO4)" mask="url(#mask-fGvMnXxm)">
			<g color="#fff961" class="teamapps-color-1">
				<rect x="121.6" y="121.6" width="780.8" height="780.8" fill="currentColor"/>
			</g>
		</g>
	</g>
</svg>