<svg version="1.1" xmlns="http://www.w3.org/2000/svg" xmlns:xlink="http://www.w3.org/1999/xlink" viewBox="0,0,1024,1024">
	<!-- Color names: teamapps-color-1, teamapps-color-2, teamapps-color-3 -->
	<desc>settings icon - Licensed under Apache License v2.0 (http://www.apache.org/licenses/LICENSE-2.0) - Created with Iconfu.com - Derivative work of Material icons (Copyright Google Inc.)</desc>
	<defs>
		<linearGradient x1="0" y1="1024" x2="1024" y2="0" id="color-HFXYUPct" gradientUnits="userSpaceOnUse">
			<stop offset="0.2" stop-color="#000000"/>
			<stop offset="0.8" stop-color="#ffffff"/>
		</linearGradient>
		<radialGradient cx="0" cy="0" r="1448.15" id="color-PEinSF27" gradientUnits="userSpaceOnUse">
			<stop offset="0.08" stop-color="#ffffff"/>
			<stop offset="1" stop-color="#000000"/>
		</radialGradient>
		<filter id="filter-6Z0tMtMt" color-interpolation-filters="sRGB">
			<feOffset/>
		</filter>
		<mask id="mask-85VQrN5S">
			<path d="M914.55,598.5c18.12,14.3 21.93,39.13 11.48,58.3l-81.25,140.58c-11.29,20.31 -35.47,28.33 -56.35,20.16l-88.04,-35.35c-15.23,10.59 -31.44,20.25 -48.73,28.4l-13.36,93.18c-3.03,23.08 -22.98,39.17 -45.23,39.17h-162.13c-22.25,0 -42.2,-16.09 -45.23,-39.17l-13.35,-93.14c-17.22,-8.04 -33.47,-17.55 -48.87,-28.38l-88.5,35.52c-19.2,6.97 -44.02,0.74 -55.76,-20.38l-81.25,-140.58c-10.45,-19.17 -6.64,-44 11.48,-58.3l74.38,-58.16c-0.86,-9.17 -1.43,-18.69 -1.43,-28.34c0,-9.66 0.57,-19.17 1.43,-28.34l-74.38,-58.16c-17.32,-13.67 -23.07,-38.57 -11.12,-58.94l80.89,-139.94c11.29,-20.31 35.47,-28.33 56.35,-20.16l88.04,35.35c15.23,-10.59 31.44,-20.25 48.73,-28.4l13.36,-93.18c3.03,-23.08 22.98,-39.17 45.23,-39.17h162.13c22.25,0 42.2,16.09 45.23,39.17l13.35,93.14c17.22,8.04 33.47,17.55 48.87,28.38l88.5,-35.52c19.2,-6.97 44.02,-0.74 55.76,20.38l81.25,140.58c10.45,19.17 6.64,44 -11.48,58.3l-74.37,58.15c0.86,9.06 1.42,18.46 1.42,28.35c0,9.89 -0.57,19.29 -1.42,28.35zM628.26,512c0,-64.09 -52.17,-116.26 -116.26,-116.26c-64.09,0 -116.26,52.17 -116.26,116.26c0,64.09 52.17,116.26 116.26,116.26c64.09,0 116.26,-52.17 116.26,-116.26zM813.16,551.72c1.62,-12.97 2.84,-25.94 2.84,-39.72c0,-13.78 -1.22,-26.75 -2.84,-39.72l85.53,-66.88c7.7,-6.08 9.73,-17.02 4.86,-25.94l-81.06,-140.25c-4.86,-8.92 -15.81,-12.15 -24.73,-8.91l-100.93,40.53c-21.08,-16.22 -43.78,-29.58 -68.5,-39.72l-15.4,-107.42c-1.22,-9.73 -9.73,-17.02 -19.86,-17.02h-162.13c-10.14,0 -18.65,7.3 -19.86,17.02l-15.4,107.42c-24.73,10.14 -47.42,23.91 -68.5,39.72l-100.93,-40.53c-9.32,-3.65 -19.86,-0.01 -24.73,8.91l-81.06,140.25c-5.27,8.92 -2.84,19.86 4.86,25.94l85.53,66.88c-1.62,12.97 -2.84,26.34 -2.84,39.72c0,13.38 1.22,26.75 2.84,39.72l-85.53,66.88c-7.7,6.08 -9.73,17.02 -4.86,25.94l81.06,140.25c4.86,8.92 15.81,12.15 24.73,8.91l100.93,-40.53c21.08,16.22 43.78,29.58 68.5,39.72l15.4,107.42c1.22,9.73 9.73,17.02 19.86,17.02h162.13c10.14,0 18.65,-7.3 19.86,-17.02l15.4,-107.42c24.73,-10.14 47.42,-23.91 68.5,-39.72l100.93,40.53c9.32,3.65 19.86,0.01 24.73,-8.91l81.06,-140.25c4.86,-8.92 2.84,-19.86 -4.86,-25.94zM512,653.86c-78.23,0 -141.86,-63.63 -141.86,-141.86c0,-78.23 63.63,-141.86 141.86,-141.86c78.23,0 141.86,63.63 141.86,141.86c0,78.23 -63.63,141.86 -141.86,141.86z" fill="url(#color-PEinSF27)"/>
		</mask>
		<mask id="mask-lMJvenw7">
			<path d="M914.55,598.5c18.12,14.3 21.93,39.13 11.48,58.3l-81.25,140.58c-11.29,20.31 -35.47,28.33 -56.35,20.16l-88.04,-35.35c-15.23,10.59 -31.44,20.25 -48.73,28.4l-13.36,93.18c-3.03,23.08 -22.98,39.17 -45.23,39.17h-162.13c-22.25,0 -42.2,-16.09 -45.23,-39.17l-13.35,-93.14c-17.22,-8.04 -33.47,-17.55 -48.87,-28.38l-88.5,35.52c-19.2,6.97 -44.02,0.74 -55.76,-20.38l-81.25,-140.58c-10.45,-19.17 -6.64,-44 11.48,-58.3l74.38,-58.16c-0.86,-9.17 -1.43,-18.69 -1.43,-28.34c0,-9.66 0.57,-19.17 1.43,-28.34l-74.38,-58.16c-17.32,-13.67 -23.07,-38.57 -11.12,-58.94l80.89,-139.94c11.29,-20.31 35.47,-28.33 56.35,-20.16l88.04,35.35c15.23,-10.59 31.44,-20.25 48.73,-28.4l13.36,-93.18c3.03,-23.08 22.98,-39.17 45.23,-39.17h162.13c22.25,0 42.2,16.09 45.23,39.17l13.35,93.14c17.22,8.04 33.47,17.55 48.87,28.38l88.5,-35.52c19.2,-6.97 44.02,-0.74 55.76,20.38l81.25,140.58c10.45,19.17 6.64,44 -11.48,58.3l-74.37,58.15c0.86,9.06 1.42,18.46 1.42,28.35c0,9.89 -0.57,19.29 -1.42,28.35zM628.26,512c0,-64.09 -52.17,-116.26 -116.26,-116.26c-64.09,0 -116.26,52.17 -116.26,116.26c0,64.09 52.17,116.26 116.26,116.26c64.09,0 116.26,-52.17 116.26,-116.26zM813.16,551.72c1.62,-12.97 2.84,-25.94 2.84,-39.72c0,-13.78 -1.22,-26.75 -2.84,-39.72l85.53,-66.88c7.7,-6.08 9.73,-17.02 4.86,-25.94l-81.06,-140.25c-4.86,-8.92 -15.81,-12.15 -24.73,-8.91l-100.93,40.53c-21.08,-16.22 -43.78,-29.58 -68.5,-39.72l-15.4,-107.42c-1.22,-9.73 -9.73,-17.02 -19.86,-17.02h-162.13c-10.14,0 -18.65,7.3 -19.86,17.02l-15.4,107.42c-24.73,10.14 -47.42,23.91 -68.5,39.72l-100.93,-40.53c-9.32,-3.65 -19.86,-0.01 -24.73,8.91l-81.06,140.25c-5.27,8.92 -2.84,19.86 4.86,25.94l85.53,66.88c-1.62,12.97 -2.84,26.34 -2.84,39.72c0,13.38 1.22,26.75 2.84,39.72l-85.53,66.88c-7.7,6.08 -9.73,17.02 -4.86,25.94l81.06,140.25c4.86,8.92 15.81,12.15 24.73,8.91l100.93,-40.53c21.08,16.22 43.78,29.58 68.5,39.72l15.4,107.42c1.22,9.73 9.73,17.02 19.86,17.02h162.13c10.14,0 18.65,-7.3 19.86,-17.02l15.4,-107.42c24.73,-10.14 47.42,-23.91 68.5,-39.72l100.93,40.53c9.32,3.65 19.86,0.01 24.73,-8.91l81.06,-140.25c4.86,-8.92 2.84,-19.86 -4.86,-25.94zM512,653.86c-78.23,0 -141.86,-63.63 -141.86,-141.86c0,-78.23 63.63,-141.86 141.86,-141.86c78.23,0 141.86,63.63 141.86,141.86c0,78.23 -63.63,141.86 -141.86,141.86z" fill="#ffffff"/>
		</mask>
		<mask id="mask-YPWMDHP6">
			<rect fill="url(#color-HFXYUPct)" x="92.02" y="81.06" width="839.75" height="861.87"/>
		</mask>
	</defs>
	<g fill="none" fill-rule="nonzero" style="mix-blend-mode: normal">
		<g mask="url(#mask-lMJvenw7)">
			<g color="#ff0000" class="teamapps-color-2">
				<rect x="92.02" y="81.06" width="839.75" height="861.87" fill="currentColor"/>
			</g>
			<g color="#bc13e0" class="teamapps-color-3" mask="url(#mask-YPWMDHP6)">
				<rect x="92.02" y="81.06" width="839.75" height="861.87" fill="currentColor"/>
			</g>
		</g>
		<g filter="url(#filter-6Z0tMtMt)" mask="url(#mask-85VQrN5S)">
			<g color="#fff961" class="teamapps-color-1">
				<rect x="92.02" y="81.06" width="839.75" height="861.87" fill="currentColor"/>
			</g>
		</g>
	</g>
</svg>