<svg version="1.1" xmlns="http://www.w3.org/2000/svg" xmlns:xlink="http://www.w3.org/1999/xlink" viewBox="0,0,1024,1024">
	<!-- Color names: teamapps-color-1, teamapps-color-2, teamapps-color-3 -->
	<desc>settings_input_component icon - Licensed under Apache License v2.0 (http://www.apache.org/licenses/LICENSE-2.0) - Created with Iconfu.com - Derivative work of Material icons (Copyright Google Inc.)</desc>
	<defs>
		<linearGradient x1="0" y1="1024" x2="1024" y2="0" id="color-0PGT4F5f" gradientUnits="userSpaceOnUse">
			<stop offset="0.2" stop-color="#000000"/>
			<stop offset="0.8" stop-color="#ffffff"/>
		</linearGradient>
		<radialGradient cx="0" cy="0" r="1448.15" id="color-tXT38Cyy" gradientUnits="userSpaceOnUse">
			<stop offset="0.08" stop-color="#ffffff"/>
			<stop offset="1" stop-color="#000000"/>
		</radialGradient>
		<filter id="filter-FoeFMW6P" color-interpolation-filters="sRGB">
			<feOffset/>
		</filter>
		<mask id="mask-0K8vthnr">
			<path d="M983.46,268.8v243.2c0,14.14 -11.46,25.6 -25.6,25.6h-243.2c-14.14,0 -25.6,-11.46 -25.6,-25.6v-243.2c0,-14.14 11.46,-25.6 25.6,-25.6h55.47v-136.54c0,-36.43 29.69,-66.13 66.13,-66.13c36.43,0 66.14,29.68 66.14,66.13v136.54h55.46c14.14,0 25.6,11.46 25.6,25.6zM578.14,243.2h55.46c14.14,0 25.6,11.46 25.6,25.6v243.2c0,14.14 -11.46,25.6 -25.6,25.6h-243.2c-14.14,0 -25.6,-11.46 -25.6,-25.6v-243.2c0,-14.14 11.46,-25.6 25.6,-25.6h55.46v-136.54c0,-36.44 29.71,-66.13 66.14,-66.13c36.43,0 66.14,29.68 66.14,66.13zM253.86,243.2h55.47c14.14,0 25.6,11.46 25.6,25.6v243.2c0,14.14 -11.46,25.6 -25.6,25.6h-243.2c-14.14,0 -25.6,-11.46 -25.6,-25.6v-243.2c0,-14.14 11.46,-25.6 25.6,-25.6h55.46v-136.54c0,-36.44 29.71,-66.13 66.14,-66.13c36.43,0 66.13,29.69 66.13,66.13zM714.66,567.46h243.2c14.14,0 25.6,11.46 25.6,25.6v81.07c0,57.77 -33.25,107.12 -81.06,131.17v152.56c0,14.14 -11.46,25.6 -25.6,25.6h-81.06c-14.14,0 -25.6,-11.46 -25.6,-25.6v-152.67c-47.7,-24.28 -81.07,-73.51 -81.07,-131.05v-81.07c0,-14.14 11.46,-25.6 25.6,-25.6zM390.4,567.46h243.2c14.14,0 25.6,11.46 25.6,25.6v81.07c0,57.77 -33.25,107.12 -81.06,131.17v152.56c0,14.14 -11.46,25.6 -25.6,25.6h-81.07c-14.14,0 -25.6,-11.46 -25.6,-25.6v-152.67c-47.7,-24.28 -81.06,-73.51 -81.06,-131.05v-81.07c0,-14.14 11.46,-25.6 25.6,-25.6zM66.14,567.46h243.2c14.14,0 25.6,11.46 25.6,25.6v81.07c0,57.54 -33.37,106.77 -81.07,131.05v152.67c0,14.14 -11.46,25.6 -25.6,25.6h-81.06c-14.14,0 -25.6,-11.46 -25.6,-25.6v-152.67c-47.7,-24.28 -81.06,-73.51 -81.06,-131.05v-81.07c0,-14.14 11.46,-25.6 25.6,-25.6zM876.8,268.8v-162.14c0,-22.3 -18.24,-40.53 -40.54,-40.53c-22.3,0 -40.53,18.23 -40.53,40.53v162.14h-81.07v243.2h243.2v-243.2zM552.54,106.66c0,-22.3 -18.24,-40.53 -40.54,-40.53c-22.3,0 -40.54,18.23 -40.54,40.53v162.14h-81.06v243.2h243.2v-243.2h-81.06zM228.26,106.66c0,-22.3 -18.23,-40.53 -40.53,-40.53c-22.3,0 -40.54,18.23 -40.54,40.53v162.14h-81.06v243.2h243.2v-243.2h-81.07zM390.4,674.14c0,52.7 34.05,97.28 81.06,114.3v169.42h81.07v-169.42c47.02,-16.62 81.06,-61.21 81.06,-114.3v-81.07h-243.2zM714.66,674.14c0,52.7 34.06,97.28 81.07,114.3v169.42h81.06v-169.42c47.02,-16.62 81.06,-61.21 81.06,-114.3v-81.07h-243.2zM66.14,674.14c0,52.7 34.05,97.28 81.06,114.3v169.42h81.06v-169.42c47.02,-17.02 81.07,-61.61 81.07,-114.3v-81.07h-243.2z" fill="url(#color-tXT38Cyy)"/>
		</mask>
		<mask id="mask-Dq6pu8CN">
			<rect fill="url(#color-0PGT4F5f)" x="40.54" y="40.54" width="942.93" height="942.93"/>
		</mask>
		<mask id="mask-yLPQssdO">
			<path d="M983.46,268.8v243.2c0,14.14 -11.46,25.6 -25.6,25.6h-243.2c-14.14,0 -25.6,-11.46 -25.6,-25.6v-243.2c0,-14.14 11.46,-25.6 25.6,-25.6h55.47v-136.54c0,-36.43 29.69,-66.13 66.13,-66.13c36.43,0 66.14,29.68 66.14,66.13v136.54h55.46c14.14,0 25.6,11.46 25.6,25.6zM578.14,243.2h55.46c14.14,0 25.6,11.46 25.6,25.6v243.2c0,14.14 -11.46,25.6 -25.6,25.6h-243.2c-14.14,0 -25.6,-11.46 -25.6,-25.6v-243.2c0,-14.14 11.46,-25.6 25.6,-25.6h55.46v-136.54c0,-36.44 29.71,-66.13 66.14,-66.13c36.43,0 66.14,29.68 66.14,66.13zM253.86,243.2h55.47c14.14,0 25.6,11.46 25.6,25.6v243.2c0,14.14 -11.46,25.6 -25.6,25.6h-243.2c-14.14,0 -25.6,-11.46 -25.6,-25.6v-243.2c0,-14.14 11.46,-25.6 25.6,-25.6h55.46v-136.54c0,-36.44 29.71,-66.13 66.14,-66.13c36.43,0 66.13,29.69 66.13,66.13zM714.66,567.46h243.2c14.14,0 25.6,11.46 25.6,25.6v81.07c0,57.77 -33.25,107.12 -81.06,131.17v152.56c0,14.14 -11.46,25.6 -25.6,25.6h-81.06c-14.14,0 -25.6,-11.46 -25.6,-25.6v-152.67c-47.7,-24.28 -81.07,-73.51 -81.07,-131.05v-81.07c0,-14.14 11.46,-25.6 25.6,-25.6zM390.4,567.46h243.2c14.14,0 25.6,11.46 25.6,25.6v81.07c0,57.77 -33.25,107.12 -81.06,131.17v152.56c0,14.14 -11.46,25.6 -25.6,25.6h-81.07c-14.14,0 -25.6,-11.46 -25.6,-25.6v-152.67c-47.7,-24.28 -81.06,-73.51 -81.06,-131.05v-81.07c0,-14.14 11.46,-25.6 25.6,-25.6zM66.14,567.46h243.2c14.14,0 25.6,11.46 25.6,25.6v81.07c0,57.54 -33.37,106.77 -81.07,131.05v152.67c0,14.14 -11.46,25.6 -25.6,25.6h-81.06c-14.14,0 -25.6,-11.46 -25.6,-25.6v-152.67c-47.7,-24.28 -81.06,-73.51 -81.06,-131.05v-81.07c0,-14.14 11.46,-25.6 25.6,-25.6zM876.8,268.8v-162.14c0,-22.3 -18.24,-40.53 -40.54,-40.53c-22.3,0 -40.53,18.23 -40.53,40.53v162.14h-81.07v243.2h243.2v-243.2zM552.54,106.66c0,-22.3 -18.24,-40.53 -40.54,-40.53c-22.3,0 -40.54,18.23 -40.54,40.53v162.14h-81.06v243.2h243.2v-243.2h-81.06zM228.26,106.66c0,-22.3 -18.23,-40.53 -40.53,-40.53c-22.3,0 -40.54,18.23 -40.54,40.53v162.14h-81.06v243.2h243.2v-243.2h-81.07zM390.4,674.14c0,52.7 34.05,97.28 81.06,114.3v169.42h81.07v-169.42c47.02,-16.62 81.06,-61.21 81.06,-114.3v-81.07h-243.2zM714.66,674.14c0,52.7 34.06,97.28 81.07,114.3v169.42h81.06v-169.42c47.02,-16.62 81.06,-61.21 81.06,-114.3v-81.07h-243.2zM66.14,674.14c0,52.7 34.05,97.28 81.06,114.3v169.42h81.06v-169.42c47.02,-17.02 81.07,-61.61 81.07,-114.3v-81.07h-243.2z" fill="#ffffff"/>
		</mask>
	</defs>
	<g fill="none" fill-rule="nonzero" style="mix-blend-mode: normal">
		<g mask="url(#mask-yLPQssdO)">
			<g color="#ff0000" class="teamapps-color-2">
				<rect x="40.54" y="40.54" width="942.93" height="942.93" fill="currentColor"/>
			</g>
			<g color="#bc13e0" class="teamapps-color-3" mask="url(#mask-Dq6pu8CN)">
				<rect x="40.54" y="40.54" width="942.93" height="942.93" fill="currentColor"/>
			</g>
		</g>
		<g filter="url(#filter-FoeFMW6P)" mask="url(#mask-0K8vthnr)">
			<g color="#fff961" class="teamapps-color-1">
				<rect x="40.54" y="40.54" width="942.93" height="942.93" fill="currentColor"/>
			</g>
		</g>
	</g>
</svg>