<svg version="1.1" xmlns="http://www.w3.org/2000/svg" xmlns:xlink="http://www.w3.org/1999/xlink" viewBox="0,0,1024,1024">
	<!-- Color names: teamapps-color-1, teamapps-color-2, teamapps-color-3 -->
	<desc>signal_cellular_off icon - Licensed under Apache License v2.0 (http://www.apache.org/licenses/LICENSE-2.0) - Created with Iconfu.com - Derivative work of Material icons (Copyright Google Inc.)</desc>
	<defs>
		<radialGradient cx="0" cy="0" r="1448.15" id="color-8wBOXrCH" gradientUnits="userSpaceOnUse">
			<stop offset="0.08" stop-color="#ffffff"/>
			<stop offset="1" stop-color="#000000"/>
		</radialGradient>
		<linearGradient x1="0" y1="1024" x2="1024" y2="0" id="color-meofQapD" gradientUnits="userSpaceOnUse">
			<stop offset="0.2" stop-color="#000000"/>
			<stop offset="0.8" stop-color="#ffffff"/>
		</linearGradient>
		<filter id="filter-qs3mKPKa" color-interpolation-filters="sRGB">
			<feOffset/>
		</filter>
		<mask id="mask-JxeXQaRx">
			<path d="M935.44,924.5l-51.48,51.47c-10,10 -26.21,10 -36.2,0l-73.57,-73.57h-708.05c-10.35,0 -19.68,-6.23 -23.65,-15.8c-3.96,-9.56 -1.78,-20.57 5.54,-27.9l341.04,-341.43l-239.7,-239.7c-10,-10 -10,-26.21 0,-36.2l51.48,-51.48c10,-10 26.21,-10 36.2,0l698.39,698.39c10,10 10,26.21 0,36.21zM858.7,780.6l-348.18,-348.18c-10,-10 -10,-26.21 0,-36.2l348.18,-348.17c7.32,-7.32 18.33,-9.51 27.9,-5.55c9.57,3.96 15.8,13.3 15.8,23.65v696.36c0,10.35 -6.24,19.69 -15.8,23.65c-9.57,3.96 -20.58,1.77 -27.9,-5.55zM218.94,208l-51.48,51.48l257.79,257.79l-359.12,359.53h718.66l81.06,81.06l51.48,-51.47zM876.8,66.14l-348.18,348.18l348.18,348.18z" fill="#ffffff"/>
		</mask>
		<mask id="mask-l4kt4Ux1">
			<path d="M935.44,924.5l-51.48,51.47c-10,10 -26.21,10 -36.2,0l-73.57,-73.57h-708.05c-10.35,0 -19.68,-6.23 -23.65,-15.8c-3.96,-9.56 -1.78,-20.57 5.54,-27.9l341.04,-341.43l-239.7,-239.7c-10,-10 -10,-26.21 0,-36.2l51.48,-51.48c10,-10 26.21,-10 36.2,0l698.39,698.39c10,10 10,26.21 0,36.21zM858.7,780.6l-348.18,-348.18c-10,-10 -10,-26.21 0,-36.2l348.18,-348.17c7.32,-7.32 18.33,-9.51 27.9,-5.55c9.57,3.96 15.8,13.3 15.8,23.65v696.36c0,10.35 -6.24,19.69 -15.8,23.65c-9.57,3.96 -20.58,1.77 -27.9,-5.55zM218.94,208l-51.48,51.48l257.79,257.79l-359.12,359.53h718.66l81.06,81.06l51.48,-51.47zM876.8,66.14l-348.18,348.18l348.18,348.18z" fill="url(#color-8wBOXrCH)"/>
		</mask>
		<mask id="mask-W6qJuY1W">
			<rect fill="url(#color-meofQapD)" x="40.54" y="40.54" width="902.4" height="942.93"/>
		</mask>
	</defs>
	<g fill="none" fill-rule="nonzero" style="mix-blend-mode: normal">
		<g mask="url(#mask-JxeXQaRx)">
			<g color="#ff0000" class="teamapps-color-2">
				<rect x="40.54" y="40.54" width="902.4" height="942.93" fill="currentColor"/>
			</g>
			<g color="#bc13e0" class="teamapps-color-3" mask="url(#mask-W6qJuY1W)">
				<rect x="40.54" y="40.54" width="902.4" height="942.93" fill="currentColor"/>
			</g>
		</g>
		<g filter="url(#filter-qs3mKPKa)" mask="url(#mask-l4kt4Ux1)">
			<g color="#fff961" class="teamapps-color-1">
				<rect x="40.54" y="40.54" width="902.4" height="942.93" fill="currentColor"/>
			</g>
		</g>
	</g>
</svg>