<svg version="1.1" xmlns="http://www.w3.org/2000/svg" xmlns:xlink="http://www.w3.org/1999/xlink" viewBox="0,0,1024,1024">
	<!-- Color names: teamapps-color-1, teamapps-color-2, teamapps-color-3 -->
	<desc>skip_previous icon - Licensed under Apache License v2.0 (http://www.apache.org/licenses/LICENSE-2.0) - Created with Iconfu.com - Derivative work of Material icons (Copyright Google Inc.)</desc>
	<defs>
		<linearGradient x1="0" y1="1024" x2="1024" y2="0" id="color-eqweCsh3" gradientUnits="userSpaceOnUse">
			<stop offset="0.2" stop-color="#000000"/>
			<stop offset="0.8" stop-color="#ffffff"/>
		</linearGradient>
		<radialGradient cx="0" cy="0" r="1448.15" id="color-Ua9W3PZp" gradientUnits="userSpaceOnUse">
			<stop offset="0.08" stop-color="#ffffff"/>
			<stop offset="1" stop-color="#000000"/>
		</radialGradient>
		<filter id="filter-UPzCe1dY" color-interpolation-filters="sRGB">
			<feOffset/>
		</filter>
		<mask id="mask-iozkjkYt">
			<rect fill="url(#color-eqweCsh3)" x="243.2" y="243.2" width="537.6" height="537.6"/>
		</mask>
		<mask id="mask-jQ0rObV4">
			<path d="M780.8,268.8v486.4c0,9.56 -5.33,18.33 -13.82,22.73c-8.49,4.4 -18.73,3.7 -26.54,-1.82l-344.54,-243.2c-6.8,-4.8 -10.84,-12.6 -10.84,-20.91c0,-8.32 4.04,-16.12 10.84,-20.91l344.54,-243.2c7.81,-5.52 18.05,-6.22 26.54,-1.82c8.49,4.4 13.82,13.17 13.82,22.73zM268.8,243.2h81.06c14.14,0 25.6,11.46 25.6,25.6v486.4c0,14.14 -11.46,25.6 -25.6,25.6h-81.06c-14.14,0 -25.6,-11.46 -25.6,-25.6v-486.4c0,-14.14 11.46,-25.6 25.6,-25.6zM410.66,512l344.54,243.2v-486.4zM268.8,755.2h81.06v-486.4h-81.06z" fill="#ffffff"/>
		</mask>
		<mask id="mask-Ncq71NH3">
			<path d="M780.8,268.8v486.4c0,9.56 -5.33,18.33 -13.82,22.73c-8.49,4.4 -18.73,3.7 -26.54,-1.82l-344.54,-243.2c-6.8,-4.8 -10.84,-12.6 -10.84,-20.91c0,-8.32 4.04,-16.12 10.84,-20.91l344.54,-243.2c7.81,-5.52 18.05,-6.22 26.54,-1.82c8.49,4.4 13.82,13.17 13.82,22.73zM268.8,243.2h81.06c14.14,0 25.6,11.46 25.6,25.6v486.4c0,14.14 -11.46,25.6 -25.6,25.6h-81.06c-14.14,0 -25.6,-11.46 -25.6,-25.6v-486.4c0,-14.14 11.46,-25.6 25.6,-25.6zM410.66,512l344.54,243.2v-486.4zM268.8,755.2h81.06v-486.4h-81.06z" fill="url(#color-Ua9W3PZp)"/>
		</mask>
	</defs>
	<g fill="none" fill-rule="nonzero" style="mix-blend-mode: normal">
		<g mask="url(#mask-jQ0rObV4)">
			<g color="#ff0000" class="teamapps-color-2">
				<rect x="243.2" y="243.2" width="537.6" height="537.6" fill="currentColor"/>
			</g>
			<g color="#bc13e0" class="teamapps-color-3" mask="url(#mask-iozkjkYt)">
				<rect x="243.2" y="243.2" width="537.6" height="537.6" fill="currentColor"/>
			</g>
		</g>
		<g filter="url(#filter-UPzCe1dY)" mask="url(#mask-Ncq71NH3)">
			<g color="#fff961" class="teamapps-color-1">
				<rect x="243.2" y="243.2" width="537.6" height="537.6" fill="currentColor"/>
			</g>
		</g>
	</g>
</svg>