<svg version="1.1" xmlns="http://www.w3.org/2000/svg" xmlns:xlink="http://www.w3.org/1999/xlink" viewBox="0,0,1024,1024">
	<!-- Color names: teamapps-color-1, teamapps-color-2, teamapps-color-3 -->
	<desc>snooze icon - Licensed under Apache License v2.0 (http://www.apache.org/licenses/LICENSE-2.0) - Created with Iconfu.com - Derivative work of Material icons (Copyright Google Inc.)</desc>
	<defs>
		<linearGradient x1="0" y1="1024" x2="1024" y2="0" id="color-GvY14RRH" gradientUnits="userSpaceOnUse">
			<stop offset="0.2" stop-color="#000000"/>
			<stop offset="0.8" stop-color="#ffffff"/>
		</linearGradient>
		<radialGradient cx="0" cy="0" r="1448.15" id="color-yjZj21HT" gradientUnits="userSpaceOnUse">
			<stop offset="0.08" stop-color="#ffffff"/>
			<stop offset="1" stop-color="#000000"/>
		</radialGradient>
		<filter id="filter-Pb0K2Rev" color-interpolation-filters="sRGB">
			<feOffset/>
		</filter>
		<mask id="mask-hbmt42zK">
			<path d="M902.4,552.54c0,215.59 -174.81,390.4 -390.4,390.4c-216.01,0 -390.4,-174.83 -390.4,-390.4c0,-87.85 29.03,-168.92 78.01,-234.16l-24.21,20.3c-10.81,9.07 -26.93,7.68 -36.02,-3.11l-52.29,-62.02c-9.14,-10.84 -7.73,-27.04 3.14,-36.13l186.46,-156.06c10.84,-9.08 26.99,-7.64 36.07,3.21l51.88,62.02c9.06,10.83 7.64,26.96 -3.18,36.04l-25.47,21.36c52.89,-26.77 112.69,-41.85 176.02,-41.85c62.9,0 122.34,14.88 174.97,41.32l-24.83,-20.84c-10.85,-9.1 -12.25,-25.29 -3.12,-36.11l52.29,-62.02c9.1,-10.79 25.21,-12.18 36.03,-3.11l186.46,156.46c10.85,9.1 12.25,25.29 3.12,36.11l-52.29,62.02c-9.1,10.79 -25.21,12.18 -36.03,3.11l-23.41,-19.65c48.51,65.06 77.22,145.73 77.22,233.11zM770.14,552.54c0,-142.73 -115.41,-258.14 -258.14,-258.14c-142.73,0 -258.14,115.41 -258.14,258.14c0,142.72 115.41,258.13 258.14,258.13c142.73,0 258.14,-115.4 258.14,-258.13zM390.4,364.8h243.2c14.14,0 25.6,11.46 25.6,25.6v72.96c0,6.15 -2.21,12.09 -6.23,16.74l-110.54,127.9h91.17c14.14,0 25.6,11.46 25.6,25.6v81.06c0,14.14 -11.46,25.6 -25.6,25.6h-243.2c-14.14,0 -25.6,-11.46 -25.6,-25.6v-72.96c0,-6.15 2.21,-12.09 6.23,-16.74l110.54,-127.9h-91.17c-14.14,0 -25.6,-11.46 -25.6,-25.6v-81.06c0,-14.14 11.46,-25.6 25.6,-25.6zM512,187.74c-201.45,0 -364.8,163.35 -364.8,364.8c0,201.45 162.94,364.8 364.8,364.8c201.45,0 364.8,-163.35 364.8,-364.8c0,-201.45 -163.35,-364.8 -364.8,-364.8zM512,836.26c-156.86,0 -283.74,-126.86 -283.74,-283.73c0,-156.86 126.87,-283.74 283.74,-283.74c156.86,0 283.74,126.87 283.74,283.74c0,156.86 -126.87,283.73 -283.74,283.73zM390.4,471.46h147.14l-147.14,170.24v72.96h243.2v-81.06h-147.14l147.14,-170.24v-72.96h-243.2zM917.34,257.45l-186.46,-156.46l-52.29,62.02l186.46,156.46zM345,163.01l-51.88,-62.02l-186.46,156.06l52.29,62.02z" fill="#ffffff"/>
		</mask>
		<mask id="mask-IBTKXQ3t">
			<rect fill="url(#color-GvY14RRH)" x="81.06" y="75.39" width="861.87" height="867.55"/>
		</mask>
		<mask id="mask-xNkFdlT3">
			<path d="M902.4,552.54c0,215.59 -174.81,390.4 -390.4,390.4c-216.01,0 -390.4,-174.83 -390.4,-390.4c0,-87.85 29.03,-168.92 78.01,-234.16l-24.21,20.3c-10.81,9.07 -26.93,7.68 -36.02,-3.11l-52.29,-62.02c-9.14,-10.84 -7.73,-27.04 3.14,-36.13l186.46,-156.06c10.84,-9.08 26.99,-7.64 36.07,3.21l51.88,62.02c9.06,10.83 7.64,26.96 -3.18,36.04l-25.47,21.36c52.89,-26.77 112.69,-41.85 176.02,-41.85c62.9,0 122.34,14.88 174.97,41.32l-24.83,-20.84c-10.85,-9.1 -12.25,-25.29 -3.12,-36.11l52.29,-62.02c9.1,-10.79 25.21,-12.18 36.03,-3.11l186.46,156.46c10.85,9.1 12.25,25.29 3.12,36.11l-52.29,62.02c-9.1,10.79 -25.21,12.18 -36.03,3.11l-23.41,-19.65c48.51,65.06 77.22,145.73 77.22,233.11zM770.14,552.54c0,-142.73 -115.41,-258.14 -258.14,-258.14c-142.73,0 -258.14,115.41 -258.14,258.14c0,142.72 115.41,258.13 258.14,258.13c142.73,0 258.14,-115.4 258.14,-258.13zM390.4,364.8h243.2c14.14,0 25.6,11.46 25.6,25.6v72.96c0,6.15 -2.21,12.09 -6.23,16.74l-110.54,127.9h91.17c14.14,0 25.6,11.46 25.6,25.6v81.06c0,14.14 -11.46,25.6 -25.6,25.6h-243.2c-14.14,0 -25.6,-11.46 -25.6,-25.6v-72.96c0,-6.15 2.21,-12.09 6.23,-16.74l110.54,-127.9h-91.17c-14.14,0 -25.6,-11.46 -25.6,-25.6v-81.06c0,-14.14 11.46,-25.6 25.6,-25.6zM512,187.74c-201.45,0 -364.8,163.35 -364.8,364.8c0,201.45 162.94,364.8 364.8,364.8c201.45,0 364.8,-163.35 364.8,-364.8c0,-201.45 -163.35,-364.8 -364.8,-364.8zM512,836.26c-156.86,0 -283.74,-126.86 -283.74,-283.73c0,-156.86 126.87,-283.74 283.74,-283.74c156.86,0 283.74,126.87 283.74,283.74c0,156.86 -126.87,283.73 -283.74,283.73zM390.4,471.46h147.14l-147.14,170.24v72.96h243.2v-81.06h-147.14l147.14,-170.24v-72.96h-243.2zM917.34,257.45l-186.46,-156.46l-52.29,62.02l186.46,156.46zM345,163.01l-51.88,-62.02l-186.46,156.06l52.29,62.02z" fill="url(#color-yjZj21HT)"/>
		</mask>
	</defs>
	<g fill="none" fill-rule="nonzero" style="mix-blend-mode: normal">
		<g mask="url(#mask-hbmt42zK)">
			<g color="#ff0000" class="teamapps-color-2">
				<rect x="81.06" y="75.39" width="861.87" height="867.55" fill="currentColor"/>
			</g>
			<g color="#bc13e0" class="teamapps-color-3" mask="url(#mask-IBTKXQ3t)">
				<rect x="81.06" y="75.39" width="861.87" height="867.55" fill="currentColor"/>
			</g>
		</g>
		<g filter="url(#filter-Pb0K2Rev)" mask="url(#mask-xNkFdlT3)">
			<g color="#fff961" class="teamapps-color-1">
				<rect x="81.06" y="75.39" width="861.87" height="867.55" fill="currentColor"/>
			</g>
		</g>
	</g>
</svg>