<svg version="1.1" xmlns="http://www.w3.org/2000/svg" xmlns:xlink="http://www.w3.org/1999/xlink" viewBox="0,0,1024,1024">
	<!-- Color names: teamapps-color-1, teamapps-color-2, teamapps-color-3 -->
	<desc>speaker_notes_off icon - Licensed under Apache License v2.0 (http://www.apache.org/licenses/LICENSE-2.0) - Created with Iconfu.com - Derivative work of Material icons (Copyright Google Inc.)</desc>
	<defs>
		<radialGradient cx="0" cy="0" r="1448.15" id="color-ItFh6Q7B" gradientUnits="userSpaceOnUse">
			<stop offset="0.08" stop-color="#ffffff"/>
			<stop offset="1" stop-color="#000000"/>
		</radialGradient>
		<linearGradient x1="0" y1="1024" x2="1024" y2="0" id="color-y75STLao" gradientUnits="userSpaceOnUse">
			<stop offset="0.2" stop-color="#000000"/>
			<stop offset="0.8" stop-color="#ffffff"/>
		</linearGradient>
		<filter id="filter-3G7B5Mzl" color-interpolation-filters="sRGB">
			<feOffset/>
		</filter>
		<mask id="mask-DLJLWWkK">
			<path d="M935.44,954.08l-51.48,51.48c-10,10 -26.21,10 -36.2,0l-224.76,-224.76h-343.59l-154.64,154.64c-7.32,7.32 -18.34,9.51 -27.91,5.55c-9.57,-3.97 -15.8,-13.31 -15.8,-23.66l0.4,-678.05l-73.97,-73.97c-10,-10 -10,-26.21 0,-36.2l51.48,-51.48c10,-10 26.21,-10 36.2,0l840.26,840.26c10,10 10,26.21 0,36.2zM942.94,187.74v486.4c0,57.85 -46.06,104.11 -102.87,106.24c-7.12,0.27 -14.02,-2.44 -19.06,-7.48l-283.33,-283.33c-7.32,-7.32 -9.51,-18.33 -5.55,-27.9c3.96,-9.57 13.3,-15.8 23.65,-15.8h173.82v-29.86h-254.89c-6.79,0 -13.3,-2.7 -18.1,-7.5l-42.08,-42.23l-241.65,-241.51c-7.32,-7.32 -9.51,-18.33 -5.55,-27.9c3.96,-9.57 13.3,-15.8 23.65,-15.8h645.29c58.72,0 106.67,47.95 106.67,106.67zM729.6,294.4h-273.06v29.86h273.06zM294.4,537.6v29.86h29.86v-29.86zM77.08,95.72l-51.48,51.48l81.47,81.47l-0.41,688.66l162.14,-162.14h364.8l232.26,232.26l51.48,-51.48zM836.26,106.66h-645.29l239.96,239.96v-77.82h324.26v81.06h-321.02l40.54,40.54h280.49v81.06h-199.42l283.33,283.33c43.37,-1.62 78.23,-36.88 78.23,-80.66v-486.4c0,-44.58 -36.49,-81.07 -81.07,-81.07zM268.8,471.46v-81.06l81.06,81.06zM349.86,593.06h-81.06v-81.06h81.06z" fill="#ffffff"/>
		</mask>
		<mask id="mask-phhEiUja">
			<path d="M935.44,954.08l-51.48,51.48c-10,10 -26.21,10 -36.2,0l-224.76,-224.76h-343.59l-154.64,154.64c-7.32,7.32 -18.34,9.51 -27.91,5.55c-9.57,-3.97 -15.8,-13.31 -15.8,-23.66l0.4,-678.05l-73.97,-73.97c-10,-10 -10,-26.21 0,-36.2l51.48,-51.48c10,-10 26.21,-10 36.2,0l840.26,840.26c10,10 10,26.21 0,36.2zM942.94,187.74v486.4c0,57.85 -46.06,104.11 -102.87,106.24c-7.12,0.27 -14.02,-2.44 -19.06,-7.48l-283.33,-283.33c-7.32,-7.32 -9.51,-18.33 -5.55,-27.9c3.96,-9.57 13.3,-15.8 23.65,-15.8h173.82v-29.86h-254.89c-6.79,0 -13.3,-2.7 -18.1,-7.5l-42.08,-42.23l-241.65,-241.51c-7.32,-7.32 -9.51,-18.33 -5.55,-27.9c3.96,-9.57 13.3,-15.8 23.65,-15.8h645.29c58.72,0 106.67,47.95 106.67,106.67zM729.6,294.4h-273.06v29.86h273.06zM294.4,537.6v29.86h29.86v-29.86zM77.08,95.72l-51.48,51.48l81.47,81.47l-0.41,688.66l162.14,-162.14h364.8l232.26,232.26l51.48,-51.48zM836.26,106.66h-645.29l239.96,239.96v-77.82h324.26v81.06h-321.02l40.54,40.54h280.49v81.06h-199.42l283.33,283.33c43.37,-1.62 78.23,-36.88 78.23,-80.66v-486.4c0,-44.58 -36.49,-81.07 -81.07,-81.07zM268.8,471.46v-81.06l81.06,81.06zM349.86,593.06h-81.06v-81.06h81.06z" fill="url(#color-ItFh6Q7B)"/>
		</mask>
		<mask id="mask-TxprN0Y6">
			<rect fill="url(#color-y75STLao)" x="0" y="70.12" width="942.94" height="942.94"/>
		</mask>
	</defs>
	<g fill="none" fill-rule="nonzero" style="mix-blend-mode: normal">
		<g mask="url(#mask-DLJLWWkK)">
			<g color="#ff0000" class="teamapps-color-2">
				<rect x="0" y="70.12" width="942.94" height="942.94" fill="currentColor"/>
			</g>
			<g color="#bc13e0" class="teamapps-color-3" mask="url(#mask-TxprN0Y6)">
				<rect x="0" y="70.12" width="942.94" height="942.94" fill="currentColor"/>
			</g>
		</g>
		<g filter="url(#filter-3G7B5Mzl)" mask="url(#mask-phhEiUja)">
			<g color="#fff961" class="teamapps-color-1">
				<rect x="0" y="70.12" width="942.94" height="942.94" fill="currentColor"/>
			</g>
		</g>
	</g>
</svg>