<svg version="1.1" xmlns="http://www.w3.org/2000/svg" xmlns:xlink="http://www.w3.org/1999/xlink" viewBox="0,0,1024,1024">
	<!-- Color names: teamapps-color-1, teamapps-color-2, teamapps-color-3 -->
	<desc>speaker_notes icon - Licensed under Apache License v2.0 (http://www.apache.org/licenses/LICENSE-2.0) - Created with Iconfu.com - Derivative work of Material icons (Copyright Google Inc.)</desc>
	<defs>
		<linearGradient x1="0" y1="1024" x2="1024" y2="0" id="color-81aQCSHB" gradientUnits="userSpaceOnUse">
			<stop offset="0.2" stop-color="#000000"/>
			<stop offset="0.8" stop-color="#ffffff"/>
		</linearGradient>
		<radialGradient cx="0" cy="0" r="1448.15" id="color-hX4VNhBX" gradientUnits="userSpaceOnUse">
			<stop offset="0.08" stop-color="#ffffff"/>
			<stop offset="1" stop-color="#000000"/>
		</radialGradient>
		<filter id="filter-54ZXNuaB" color-interpolation-filters="sRGB">
			<feOffset/>
		</filter>
		<mask id="mask-1pcE2plf">
			<path d="M942.94,187.74v486.4c0,58.73 -47.95,106.66 -106.67,106.66h-556.86l-154.64,154.64c-7.32,7.32 -18.34,9.51 -27.91,5.55c-9.57,-3.97 -15.8,-13.31 -15.8,-23.66l0.41,-729.6c0,-58.55 47.37,-106.66 106.26,-106.66h648.53c58.72,0 106.67,47.95 106.67,106.67zM729.6,416h-273.06v29.86h273.06zM729.6,294.4h-273.06v29.86h273.06zM608,537.6h-151.46v29.86h151.46zM294.4,537.6v29.86h29.86v-29.86zM294.4,416v29.86h29.86v-29.86zM294.4,294.4v29.86h29.86v-29.86zM836.26,106.66h-648.53c-44.58,0 -80.66,36.49 -80.66,81.07l-0.41,729.6l162.14,-162.14h567.46c44.58,0 81.07,-36.48 81.07,-81.06v-486.4c0,-44.58 -36.49,-81.07 -81.07,-81.07zM755.2,471.46h-324.26v-81.06h324.26zM755.2,349.86h-324.26v-81.06h324.26zM633.6,593.06h-202.66v-81.06h202.66zM349.86,471.46h-81.06v-81.06h81.06zM349.86,349.86h-81.06v-81.06h81.06zM349.86,593.06h-81.06v-81.06h81.06z" fill="url(#color-hX4VNhBX)"/>
		</mask>
		<mask id="mask-K5RS92Fq">
			<rect fill="url(#color-81aQCSHB)" x="81.06" y="81.06" width="861.87" height="861.87"/>
		</mask>
		<mask id="mask-kPJy50ZO">
			<path d="M942.94,187.74v486.4c0,58.73 -47.95,106.66 -106.67,106.66h-556.86l-154.64,154.64c-7.32,7.32 -18.34,9.51 -27.91,5.55c-9.57,-3.97 -15.8,-13.31 -15.8,-23.66l0.41,-729.6c0,-58.55 47.37,-106.66 106.26,-106.66h648.53c58.72,0 106.67,47.95 106.67,106.67zM729.6,416h-273.06v29.86h273.06zM729.6,294.4h-273.06v29.86h273.06zM608,537.6h-151.46v29.86h151.46zM294.4,537.6v29.86h29.86v-29.86zM294.4,416v29.86h29.86v-29.86zM294.4,294.4v29.86h29.86v-29.86zM836.26,106.66h-648.53c-44.58,0 -80.66,36.49 -80.66,81.07l-0.41,729.6l162.14,-162.14h567.46c44.58,0 81.07,-36.48 81.07,-81.06v-486.4c0,-44.58 -36.49,-81.07 -81.07,-81.07zM755.2,471.46h-324.26v-81.06h324.26zM755.2,349.86h-324.26v-81.06h324.26zM633.6,593.06h-202.66v-81.06h202.66zM349.86,471.46h-81.06v-81.06h81.06zM349.86,349.86h-81.06v-81.06h81.06zM349.86,593.06h-81.06v-81.06h81.06z" fill="#ffffff"/>
		</mask>
	</defs>
	<g fill="none" fill-rule="nonzero" style="mix-blend-mode: normal">
		<g mask="url(#mask-kPJy50ZO)">
			<g color="#ff0000" class="teamapps-color-2">
				<rect x="81.06" y="81.06" width="861.87" height="861.87" fill="currentColor"/>
			</g>
			<g color="#bc13e0" class="teamapps-color-3" mask="url(#mask-K5RS92Fq)">
				<rect x="81.06" y="81.06" width="861.87" height="861.87" fill="currentColor"/>
			</g>
		</g>
		<g filter="url(#filter-54ZXNuaB)" mask="url(#mask-1pcE2plf)">
			<g color="#fff961" class="teamapps-color-1">
				<rect x="81.06" y="81.06" width="861.87" height="861.87" fill="currentColor"/>
			</g>
		</g>
	</g>
</svg>