<svg version="1.1" xmlns="http://www.w3.org/2000/svg" xmlns:xlink="http://www.w3.org/1999/xlink" viewBox="0,0,1024,1024">
	<!-- Color names: teamapps-color-1, teamapps-color-2, teamapps-color-3 -->
	<desc>stars icon - Licensed under Apache License v2.0 (http://www.apache.org/licenses/LICENSE-2.0) - Created with Iconfu.com - Derivative work of Material icons (Copyright Google Inc.)</desc>
	<defs>
		<radialGradient cx="0" cy="0" r="1448.15" id="color-sbTD9LYX" gradientUnits="userSpaceOnUse">
			<stop offset="0.08" stop-color="#ffffff"/>
			<stop offset="1" stop-color="#000000"/>
		</radialGradient>
		<linearGradient x1="0" y1="1024" x2="1024" y2="0" id="color-TCkhCRGw" gradientUnits="userSpaceOnUse">
			<stop offset="0.2" stop-color="#000000"/>
			<stop offset="0.8" stop-color="#ffffff"/>
		</linearGradient>
		<filter id="filter-IdqkCOwu" color-interpolation-filters="sRGB">
			<feOffset/>
		</filter>
		<mask id="mask-kOE7tlKU">
			<path d="M942.94,512c0,237.9 -193.07,430.94 -431.34,430.94c-237.92,0 -430.53,-193.09 -430.53,-430.94c0,-237.85 192.61,-430.94 430.53,-430.94c238.27,0 431.35,193.04 431.35,430.94zM621.3,540.48l105.35,-91.23l-139,-11.87c-9.46,-0.81 -17.69,-6.78 -21.39,-15.52l-54.23,-127.94l-54.27,128.33c-3.7,8.75 -11.94,14.73 -21.4,15.54l-138.99,11.87l105.34,91.22c7.18,6.22 10.33,15.91 8.18,25.16l-31.66,135.96l119.56,-72.08c8.13,-4.9 18.3,-4.9 26.43,0l119.6,72.1l-31.69,-136.39c-2.15,-9.25 1,-18.93 8.18,-25.15zM511.59,106.66c-223.74,0 -404.93,181.59 -404.93,405.34c0,223.74 181.18,405.34 404.93,405.34c224.15,0 405.75,-181.59 405.75,-405.34c0,-223.74 -181.59,-405.34 -405.74,-405.34zM683.46,755.2l-171.46,-103.36l-171.46,103.36l45.4,-194.97l-151.19,-130.92l199.42,-17.02l77.82,-184.02l77.82,183.62l199.42,17.02l-151.19,130.93z" fill="#ffffff"/>
		</mask>
		<mask id="mask-tF8HF1NB">
			<path d="M942.94,512c0,237.9 -193.07,430.94 -431.34,430.94c-237.92,0 -430.53,-193.09 -430.53,-430.94c0,-237.85 192.61,-430.94 430.53,-430.94c238.27,0 431.35,193.04 431.35,430.94zM621.3,540.48l105.35,-91.23l-139,-11.87c-9.46,-0.81 -17.69,-6.78 -21.39,-15.52l-54.23,-127.94l-54.27,128.33c-3.7,8.75 -11.94,14.73 -21.4,15.54l-138.99,11.87l105.34,91.22c7.18,6.22 10.33,15.91 8.18,25.16l-31.66,135.96l119.56,-72.08c8.13,-4.9 18.3,-4.9 26.43,0l119.6,72.1l-31.69,-136.39c-2.15,-9.25 1,-18.93 8.18,-25.15zM511.59,106.66c-223.74,0 -404.93,181.59 -404.93,405.34c0,223.74 181.18,405.34 404.93,405.34c224.15,0 405.75,-181.59 405.75,-405.34c0,-223.74 -181.59,-405.34 -405.74,-405.34zM683.46,755.2l-171.46,-103.36l-171.46,103.36l45.4,-194.97l-151.19,-130.92l199.42,-17.02l77.82,-184.02l77.82,183.62l199.42,17.02l-151.19,130.93z" fill="url(#color-sbTD9LYX)"/>
		</mask>
		<mask id="mask-VpzTAhiY">
			<rect fill="url(#color-TCkhCRGw)" x="81.06" y="81.06" width="861.87" height="861.87"/>
		</mask>
	</defs>
	<g fill="none" fill-rule="nonzero" style="mix-blend-mode: normal">
		<g mask="url(#mask-kOE7tlKU)">
			<g color="#ff0000" class="teamapps-color-2">
				<rect x="81.06" y="81.06" width="861.87" height="861.87" fill="currentColor"/>
			</g>
			<g color="#bc13e0" class="teamapps-color-3" mask="url(#mask-VpzTAhiY)">
				<rect x="81.06" y="81.06" width="861.87" height="861.87" fill="currentColor"/>
			</g>
		</g>
		<g filter="url(#filter-IdqkCOwu)" mask="url(#mask-tF8HF1NB)">
			<g color="#fff961" class="teamapps-color-1">
				<rect x="81.06" y="81.06" width="861.87" height="861.87" fill="currentColor"/>
			</g>
		</g>
	</g>
</svg>