<svg version="1.1" xmlns="http://www.w3.org/2000/svg" xmlns:xlink="http://www.w3.org/1999/xlink" viewBox="0,0,1024,1024">
	<!-- Color names: teamapps-color-1, teamapps-color-2, teamapps-color-3 -->
	<desc>stay_current_portrait icon - Licensed under Apache License v2.0 (http://www.apache.org/licenses/LICENSE-2.0) - Created with Iconfu.com - Derivative work of Material icons (Copyright Google Inc.)</desc>
	<defs>
		<radialGradient cx="0" cy="0" r="1448.15" id="color-4NuLfrAU" gradientUnits="userSpaceOnUse">
			<stop offset="0.08" stop-color="#ffffff"/>
			<stop offset="1" stop-color="#000000"/>
		</radialGradient>
		<linearGradient x1="0" y1="1024" x2="1024" y2="0" id="color-BV65kkAM" gradientUnits="userSpaceOnUse">
			<stop offset="0.2" stop-color="#000000"/>
			<stop offset="0.8" stop-color="#ffffff"/>
		</linearGradient>
		<filter id="filter-PRwcdw7I" color-interpolation-filters="sRGB">
			<feOffset/>
		</filter>
		<mask id="mask-czqxwquQ">
			<path d="M821.34,147.2v729.6c0,58.73 -47.95,106.66 -106.67,106.66h-405.33c-58.89,0 -106.26,-48.11 -106.26,-106.66v-729.6c0,-58.55 47.38,-106.66 106.26,-106.66l405.35,0.4c58.54,0.01 106.65,47.38 106.65,106.26zM334.94,253.86v516.27h354.13v-516.27zM714.66,66.54l-405.33,-0.4c-44.58,0 -80.66,36.48 -80.66,81.06v729.6c0,44.58 36.08,81.06 80.66,81.06h405.33c44.58,0 81.07,-36.48 81.07,-81.06v-729.6c0,-44.58 -36.49,-80.66 -81.07,-80.66zM714.66,795.74h-405.33v-567.47h405.33z" fill="url(#color-4NuLfrAU)"/>
		</mask>
		<mask id="mask-E5TF1bFL">
			<rect fill="url(#color-BV65kkAM)" x="203.07" y="40.54" width="618.26" height="942.93"/>
		</mask>
		<mask id="mask-IFLv5r26">
			<path d="M821.34,147.2v729.6c0,58.73 -47.95,106.66 -106.67,106.66h-405.33c-58.89,0 -106.26,-48.11 -106.26,-106.66v-729.6c0,-58.55 47.38,-106.66 106.26,-106.66l405.35,0.4c58.54,0.01 106.65,47.38 106.65,106.26zM334.94,253.86v516.27h354.13v-516.27zM714.66,66.54l-405.33,-0.4c-44.58,0 -80.66,36.48 -80.66,81.06v729.6c0,44.58 36.08,81.06 80.66,81.06h405.33c44.58,0 81.07,-36.48 81.07,-81.06v-729.6c0,-44.58 -36.49,-80.66 -81.07,-80.66zM714.66,795.74h-405.33v-567.47h405.33z" fill="#ffffff"/>
		</mask>
	</defs>
	<g fill="none" fill-rule="nonzero" style="mix-blend-mode: normal">
		<g mask="url(#mask-IFLv5r26)">
			<g color="#ff0000" class="teamapps-color-2">
				<rect x="203.07" y="40.54" width="618.26" height="942.93" fill="currentColor"/>
			</g>
			<g color="#bc13e0" class="teamapps-color-3" mask="url(#mask-E5TF1bFL)">
				<rect x="203.07" y="40.54" width="618.26" height="942.93" fill="currentColor"/>
			</g>
		</g>
		<g filter="url(#filter-PRwcdw7I)" mask="url(#mask-czqxwquQ)">
			<g color="#fff961" class="teamapps-color-1">
				<rect x="203.07" y="40.54" width="618.26" height="942.93" fill="currentColor"/>
			</g>
		</g>
	</g>
</svg>