<svg version="1.1" xmlns="http://www.w3.org/2000/svg" xmlns:xlink="http://www.w3.org/1999/xlink" viewBox="0,0,1024,1024">
	<!-- Color names: teamapps-color-1, teamapps-color-2, teamapps-color-3 -->
	<desc>subscriptions icon - Licensed under Apache License v2.0 (http://www.apache.org/licenses/LICENSE-2.0) - Created with Iconfu.com - Derivative work of Material icons (Copyright Google Inc.)</desc>
	<defs>
		<radialGradient cx="0" cy="0" r="1448.15" id="color-jSAC9EWV" gradientUnits="userSpaceOnUse">
			<stop offset="0.08" stop-color="#ffffff"/>
			<stop offset="1" stop-color="#000000"/>
		</radialGradient>
		<linearGradient x1="0" y1="1024" x2="1024" y2="0" id="color-nNuehRVp" gradientUnits="userSpaceOnUse">
			<stop offset="0.2" stop-color="#000000"/>
			<stop offset="0.8" stop-color="#ffffff"/>
		</linearGradient>
		<filter id="filter-32qFOEcH" color-interpolation-filters="sRGB">
			<feOffset/>
		</filter>
		<mask id="mask-9ccB6bsy">
			<rect fill="url(#color-nNuehRVp)" x="81.06" y="81.06" width="861.87" height="861.87"/>
		</mask>
		<mask id="mask-k2mmbxWh">
			<path d="M942.94,512v324.26c0,58.72 -47.95,106.67 -106.67,106.67h-648.53c-58.72,0 -106.67,-47.95 -106.67,-106.67v-324.26c0,-58.73 47.95,-106.66 106.67,-106.66h648.53c58.72,0 106.67,47.94 106.67,106.66zM836.26,375.46h-648.53c-14.14,0 -25.6,-11.46 -25.6,-25.6v-81.06c0,-14.14 11.46,-25.6 25.6,-25.6h648.53c14.14,0 25.6,11.46 25.6,25.6v81.06c0,14.14 -11.46,25.6 -25.6,25.6zM456.54,584.7v178.53l164.04,-89.13zM755.2,213.34h-486.4c-14.14,0 -25.6,-11.46 -25.6,-25.6v-81.07c0,-14.14 11.46,-25.6 25.6,-25.6h486.4c14.14,0 25.6,11.46 25.6,25.6v81.07c0,14.14 -11.46,25.6 -25.6,25.6zM836.26,430.94h-648.53c-44.58,0 -81.07,36.48 -81.07,81.06v324.26c0,44.58 36.49,81.07 81.07,81.07h648.53c44.58,0 81.07,-36.49 81.07,-81.07v-324.26c0,-44.58 -36.49,-81.06 -81.07,-81.06zM430.94,806.27v-264.68l243.2,132.54zM836.26,268.8h-648.53v81.06h648.53zM755.2,106.66h-486.4v81.07h486.4z" fill="#ffffff"/>
		</mask>
		<mask id="mask-Q7RdfrQW">
			<path d="M942.94,512v324.26c0,58.72 -47.95,106.67 -106.67,106.67h-648.53c-58.72,0 -106.67,-47.95 -106.67,-106.67v-324.26c0,-58.73 47.95,-106.66 106.67,-106.66h648.53c58.72,0 106.67,47.94 106.67,106.66zM836.26,375.46h-648.53c-14.14,0 -25.6,-11.46 -25.6,-25.6v-81.06c0,-14.14 11.46,-25.6 25.6,-25.6h648.53c14.14,0 25.6,11.46 25.6,25.6v81.06c0,14.14 -11.46,25.6 -25.6,25.6zM456.54,584.7v178.53l164.04,-89.13zM755.2,213.34h-486.4c-14.14,0 -25.6,-11.46 -25.6,-25.6v-81.07c0,-14.14 11.46,-25.6 25.6,-25.6h486.4c14.14,0 25.6,11.46 25.6,25.6v81.07c0,14.14 -11.46,25.6 -25.6,25.6zM836.26,430.94h-648.53c-44.58,0 -81.07,36.48 -81.07,81.06v324.26c0,44.58 36.49,81.07 81.07,81.07h648.53c44.58,0 81.07,-36.49 81.07,-81.07v-324.26c0,-44.58 -36.49,-81.06 -81.07,-81.06zM430.94,806.27v-264.68l243.2,132.54zM836.26,268.8h-648.53v81.06h648.53zM755.2,106.66h-486.4v81.07h486.4z" fill="url(#color-jSAC9EWV)"/>
		</mask>
	</defs>
	<g fill="none" fill-rule="nonzero" style="mix-blend-mode: normal">
		<g mask="url(#mask-k2mmbxWh)">
			<g color="#ff0000" class="teamapps-color-2">
				<rect x="81.06" y="81.06" width="861.87" height="861.87" fill="currentColor"/>
			</g>
			<g color="#bc13e0" class="teamapps-color-3" mask="url(#mask-9ccB6bsy)">
				<rect x="81.06" y="81.06" width="861.87" height="861.87" fill="currentColor"/>
			</g>
		</g>
		<g filter="url(#filter-32qFOEcH)" mask="url(#mask-Q7RdfrQW)">
			<g color="#fff961" class="teamapps-color-1">
				<rect x="81.06" y="81.06" width="861.87" height="861.87" fill="currentColor"/>
			</g>
		</g>
	</g>
</svg>