<svg version="1.1" xmlns="http://www.w3.org/2000/svg" xmlns:xlink="http://www.w3.org/1999/xlink" viewBox="0,0,1024,1024">
	<!-- Color names: teamapps-color-1, teamapps-color-2, teamapps-color-3 -->
	<desc>subway icon - Licensed under Apache License v2.0 (http://www.apache.org/licenses/LICENSE-2.0) - Created with Iconfu.com - Derivative work of Material icons (Copyright Google Inc.)</desc>
	<defs>
		<radialGradient cx="0" cy="0" r="1448.15" id="color-6iYmYEYc" gradientUnits="userSpaceOnUse">
			<stop offset="0.08" stop-color="#ffffff"/>
			<stop offset="1" stop-color="#000000"/>
		</radialGradient>
		<linearGradient x1="0" y1="1024" x2="1024" y2="0" id="color-a4vM1gby" gradientUnits="userSpaceOnUse">
			<stop offset="0.2" stop-color="#000000"/>
			<stop offset="0.8" stop-color="#ffffff"/>
		</linearGradient>
		<filter id="filter-IQ7EzLW8" color-interpolation-filters="sRGB">
			<feOffset/>
		</filter>
		<mask id="mask-avc7TpHq">
			<path d="M942.94,384.73v532.61c0,14.14 -11.46,25.6 -25.6,25.6h-810.67c-14.14,0 -25.6,-11.46 -25.6,-25.6v-532.61c0,-124.69 68.71,-223.57 186.5,-269.47c77.91,-30.71 169.02,-34.2 244.44,-34.2c75.42,0 166.53,3.49 244.44,34.2c117.79,45.9 186.5,144.78 186.5,269.47zM512,294.4c-117.92,0 -199.08,15.37 -214.81,73.68c3.71,-2.09 7.99,-3.28 12.55,-3.28h405.34c4.35,0 8.44,1.08 12.02,2.99c-13.99,-58.02 -86.55,-73.39 -215.1,-73.39zM294.4,669.27c0,44.23 36.37,80.59 80.6,80.59c10.35,0 19.69,6.24 23.65,15.8c3.96,9.57 1.77,20.58 -5.55,27.9l-17.1,17.1h10.68l53.3,-53.3c4.8,-4.8 11.31,-7.5 18.1,-7.5h114.71c6.79,0 13.3,2.7 18.1,7.5l53.3,53.3h3.54l-17.17,-17.02c-7.37,-7.3 -9.6,-18.33 -5.65,-27.93c3.95,-9.59 13.3,-15.86 23.67,-15.86c44.76,0 81,-36.08 81,-80.59v-55.13c-4.13,2.85 -9.13,4.52 -14.53,4.52h-25.19c18.13,11.8 30.12,32.24 30.12,55.47c0,36.53 -29.62,66.13 -66.14,66.13c-36.52,0 -66.13,-29.61 -66.13,-66.13c0,-23.23 11.98,-43.68 30.11,-55.47h-211.69c18.13,11.8 30.11,32.24 30.11,55.47c0,36.52 -29.61,66.13 -66.13,66.13c-36.51,0 -66.14,-29.6 -66.14,-66.13c0,-23.24 11.99,-43.68 30.12,-55.47h-24.38c-5.75,0 -11.06,-1.9 -15.34,-5.1zM653.86,714.66c22.38,0 40.54,-18.15 40.54,-40.53c0,-22.38 -18.15,-40.54 -40.54,-40.54c-22.38,0 -40.53,18.15 -40.53,40.54c0,22.38 18.15,40.53 40.53,40.53zM370.14,714.66c22.38,0 40.53,-18.15 40.53,-40.53c0,-22.38 -18.14,-40.54 -40.53,-40.54c-22.38,0 -40.54,18.15 -40.54,40.54c0,22.38 18.15,40.53 40.54,40.53zM747.1,139.1c-72.96,-28.78 -159.7,-32.43 -235.1,-32.43c-75.39,0 -162.14,3.66 -235.1,32.43c-108.22,42.15 -170.24,131.74 -170.24,245.63v532.61h810.67v-532.61c0,-113.9 -62.02,-203.48 -170.24,-245.63zM755.2,669.27c0,58.78 -47.82,106.19 -106.6,106.19l45.8,45.4v15.4h-60.8l-60.8,-60.8h-114.71l-60.8,60.8h-67.69v-15.4l45.4,-45.4c-58.37,0 -106.2,-47.82 -106.2,-106.19v-278.87c0,-106.6 121.6,-121.6 243.2,-121.6c134.57,0 243.2,15.4 243.2,121.6zM309.74,593.06h405.34v-202.66h-405.34z" fill="#ffffff"/>
		</mask>
		<mask id="mask-Np39s7U4">
			<path d="M942.94,384.73v532.61c0,14.14 -11.46,25.6 -25.6,25.6h-810.67c-14.14,0 -25.6,-11.46 -25.6,-25.6v-532.61c0,-124.69 68.71,-223.57 186.5,-269.47c77.91,-30.71 169.02,-34.2 244.44,-34.2c75.42,0 166.53,3.49 244.44,34.2c117.79,45.9 186.5,144.78 186.5,269.47zM512,294.4c-117.92,0 -199.08,15.37 -214.81,73.68c3.71,-2.09 7.99,-3.28 12.55,-3.28h405.34c4.35,0 8.44,1.08 12.02,2.99c-13.99,-58.02 -86.55,-73.39 -215.1,-73.39zM294.4,669.27c0,44.23 36.37,80.59 80.6,80.59c10.35,0 19.69,6.24 23.65,15.8c3.96,9.57 1.77,20.58 -5.55,27.9l-17.1,17.1h10.68l53.3,-53.3c4.8,-4.8 11.31,-7.5 18.1,-7.5h114.71c6.79,0 13.3,2.7 18.1,7.5l53.3,53.3h3.54l-17.17,-17.02c-7.37,-7.3 -9.6,-18.33 -5.65,-27.93c3.95,-9.59 13.3,-15.86 23.67,-15.86c44.76,0 81,-36.08 81,-80.59v-55.13c-4.13,2.85 -9.13,4.52 -14.53,4.52h-25.19c18.13,11.8 30.12,32.24 30.12,55.47c0,36.53 -29.62,66.13 -66.14,66.13c-36.52,0 -66.13,-29.61 -66.13,-66.13c0,-23.23 11.98,-43.68 30.11,-55.47h-211.69c18.13,11.8 30.11,32.24 30.11,55.47c0,36.52 -29.61,66.13 -66.13,66.13c-36.51,0 -66.14,-29.6 -66.14,-66.13c0,-23.24 11.99,-43.68 30.12,-55.47h-24.38c-5.75,0 -11.06,-1.9 -15.34,-5.1zM653.86,714.66c22.38,0 40.54,-18.15 40.54,-40.53c0,-22.38 -18.15,-40.54 -40.54,-40.54c-22.38,0 -40.53,18.15 -40.53,40.54c0,22.38 18.15,40.53 40.53,40.53zM370.14,714.66c22.38,0 40.53,-18.15 40.53,-40.53c0,-22.38 -18.14,-40.54 -40.53,-40.54c-22.38,0 -40.54,18.15 -40.54,40.54c0,22.38 18.15,40.53 40.54,40.53zM747.1,139.1c-72.96,-28.78 -159.7,-32.43 -235.1,-32.43c-75.39,0 -162.14,3.66 -235.1,32.43c-108.22,42.15 -170.24,131.74 -170.24,245.63v532.61h810.67v-532.61c0,-113.9 -62.02,-203.48 -170.24,-245.63zM755.2,669.27c0,58.78 -47.82,106.19 -106.6,106.19l45.8,45.4v15.4h-60.8l-60.8,-60.8h-114.71l-60.8,60.8h-67.69v-15.4l45.4,-45.4c-58.37,0 -106.2,-47.82 -106.2,-106.19v-278.87c0,-106.6 121.6,-121.6 243.2,-121.6c134.57,0 243.2,15.4 243.2,121.6zM309.74,593.06h405.34v-202.66h-405.34z" fill="url(#color-6iYmYEYc)"/>
		</mask>
		<mask id="mask-uqlGkyKK">
			<rect fill="url(#color-a4vM1gby)" x="81.06" y="81.06" width="861.87" height="861.87"/>
		</mask>
	</defs>
	<g fill="none" fill-rule="nonzero" style="mix-blend-mode: normal">
		<g mask="url(#mask-avc7TpHq)">
			<g color="#ff0000" class="teamapps-color-2">
				<rect x="81.06" y="81.06" width="861.87" height="861.87" fill="currentColor"/>
			</g>
			<g color="#bc13e0" class="teamapps-color-3" mask="url(#mask-uqlGkyKK)">
				<rect x="81.06" y="81.06" width="861.87" height="861.87" fill="currentColor"/>
			</g>
		</g>
		<g filter="url(#filter-IQ7EzLW8)" mask="url(#mask-Np39s7U4)">
			<g color="#fff961" class="teamapps-color-1">
				<rect x="81.06" y="81.06" width="861.87" height="861.87" fill="currentColor"/>
			</g>
		</g>
	</g>
</svg>