<svg version="1.1" xmlns="http://www.w3.org/2000/svg" xmlns:xlink="http://www.w3.org/1999/xlink" viewBox="0,0,1024,1024">
	<!-- Color names: teamapps-color-1, teamapps-color-2, teamapps-color-3 -->
	<desc>swap_calls icon - Licensed under Apache License v2.0 (http://www.apache.org/licenses/LICENSE-2.0) - Created with Iconfu.com - Derivative work of Material icons (Copyright Google Inc.)</desc>
	<defs>
		<radialGradient cx="0" cy="0" r="1448.15" id="color-rGCi7peK" gradientUnits="userSpaceOnUse">
			<stop offset="0.08" stop-color="#ffffff"/>
			<stop offset="1" stop-color="#000000"/>
		</radialGradient>
		<linearGradient x1="0" y1="1024" x2="1024" y2="0" id="color-WnWUKXRT" gradientUnits="userSpaceOnUse">
			<stop offset="0.2" stop-color="#000000"/>
			<stop offset="0.8" stop-color="#ffffff"/>
		</linearGradient>
		<filter id="filter-6p0KsxHf" color-interpolation-filters="sRGB">
			<feOffset/>
		</filter>
		<mask id="mask-itFeA7Cm">
			<path d="M917.34,375.46h-96v258.14c0,103.71 -84.02,187.74 -187.74,187.74c-96.89,0 -176.59,-73.33 -186.66,-167.53l-160.04,160.04c-10,10 -26.21,10 -36.2,0l-162.14,-162.14c-7.32,-7.32 -9.51,-18.33 -5.55,-27.9c3.96,-9.57 13.3,-15.8 23.65,-15.8h96v-258.14c0,-103.72 84.02,-187.73 187.74,-187.73c96.89,0 176.59,73.32 186.66,167.52l160.04,-160.03c10,-10 26.21,-10 36.2,0l162.14,162.13c7.32,7.32 9.51,18.33 5.55,27.9c-3.96,9.57 -13.3,15.8 -23.65,15.8zM445.86,349.86c0,-30.45 -25.02,-55.46 -55.46,-55.46c-30.45,0 -55.46,25.02 -55.46,55.46v258.14h96c5.48,0 10.67,1.74 14.93,4.8zM578.14,633.6c0,30.45 25.02,55.46 55.46,55.46c30.45,0 55.46,-25.02 55.46,-55.46v-258.14h-96c-5.48,0 -10.67,-1.74 -14.93,-4.8zM755.2,187.74l-162.14,162.13h121.6v283.74c0,44.58 -36.48,81.06 -81.06,81.06c-44.58,0 -81.06,-36.48 -81.06,-81.06v-283.74c0,-89.58 -72.56,-162.13 -162.14,-162.13c-89.58,0 -162.14,72.55 -162.14,162.13v283.74h-121.6l162.14,162.14l162.14,-162.14h-121.6v-283.74c0,-44.58 36.48,-81.06 81.06,-81.06c44.58,0 81.06,36.48 81.06,81.06v283.74c0,89.58 72.56,162.14 162.14,162.14c89.58,0 162.14,-72.56 162.14,-162.14v-283.74h121.6z" fill="#ffffff"/>
		</mask>
		<mask id="mask-KYJbWGs5">
			<path d="M917.34,375.46h-96v258.14c0,103.71 -84.02,187.74 -187.74,187.74c-96.89,0 -176.59,-73.33 -186.66,-167.53l-160.04,160.04c-10,10 -26.21,10 -36.2,0l-162.14,-162.14c-7.32,-7.32 -9.51,-18.33 -5.55,-27.9c3.96,-9.57 13.3,-15.8 23.65,-15.8h96v-258.14c0,-103.72 84.02,-187.73 187.74,-187.73c96.89,0 176.59,73.32 186.66,167.52l160.04,-160.03c10,-10 26.21,-10 36.2,0l162.14,162.13c7.32,7.32 9.51,18.33 5.55,27.9c-3.96,9.57 -13.3,15.8 -23.65,15.8zM445.86,349.86c0,-30.45 -25.02,-55.46 -55.46,-55.46c-30.45,0 -55.46,25.02 -55.46,55.46v258.14h96c5.48,0 10.67,1.74 14.93,4.8zM578.14,633.6c0,30.45 25.02,55.46 55.46,55.46c30.45,0 55.46,-25.02 55.46,-55.46v-258.14h-96c-5.48,0 -10.67,-1.74 -14.93,-4.8zM755.2,187.74l-162.14,162.13h121.6v283.74c0,44.58 -36.48,81.06 -81.06,81.06c-44.58,0 -81.06,-36.48 -81.06,-81.06v-283.74c0,-89.58 -72.56,-162.13 -162.14,-162.13c-89.58,0 -162.14,72.55 -162.14,162.13v283.74h-121.6l162.14,162.14l162.14,-162.14h-121.6v-283.74c0,-44.58 36.48,-81.06 81.06,-81.06c44.58,0 81.06,36.48 81.06,81.06v283.74c0,89.58 72.56,162.14 162.14,162.14c89.58,0 162.14,-72.56 162.14,-162.14v-283.74h121.6z" fill="url(#color-rGCi7peK)"/>
		</mask>
		<mask id="mask-Zuq8CHdU">
			<rect fill="url(#color-WnWUKXRT)" x="81.06" y="162.14" width="861.87" height="659.2"/>
		</mask>
	</defs>
	<g fill="none" fill-rule="nonzero" style="mix-blend-mode: normal">
		<g mask="url(#mask-itFeA7Cm)">
			<g color="#ff0000" class="teamapps-color-2">
				<rect x="81.06" y="162.14" width="861.87" height="659.2" fill="currentColor"/>
			</g>
			<g color="#bc13e0" class="teamapps-color-3" mask="url(#mask-Zuq8CHdU)">
				<rect x="81.06" y="162.14" width="861.87" height="659.2" fill="currentColor"/>
			</g>
		</g>
		<g filter="url(#filter-6p0KsxHf)" mask="url(#mask-KYJbWGs5)">
			<g color="#fff961" class="teamapps-color-1">
				<rect x="81.06" y="162.14" width="861.87" height="659.2" fill="currentColor"/>
			</g>
		</g>
	</g>
</svg>