<svg version="1.1" xmlns="http://www.w3.org/2000/svg" xmlns:xlink="http://www.w3.org/1999/xlink" viewBox="0,0,1024,1024">
	<!-- Color names: teamapps-color-1, teamapps-color-2, teamapps-color-3 -->
	<desc>sync_problem icon - Licensed under Apache License v2.0 (http://www.apache.org/licenses/LICENSE-2.0) - Created with Iconfu.com - Derivative work of Material icons (Copyright Google Inc.)</desc>
	<defs>
		<radialGradient cx="0" cy="0" r="1448.15" id="color-VzEGxQMf" gradientUnits="userSpaceOnUse">
			<stop offset="0.08" stop-color="#ffffff"/>
			<stop offset="1" stop-color="#000000"/>
		</radialGradient>
		<linearGradient x1="0" y1="1024" x2="1024" y2="0" id="color-ZftdeT6z" gradientUnits="userSpaceOnUse">
			<stop offset="0.2" stop-color="#000000"/>
			<stop offset="0.8" stop-color="#ffffff"/>
		</linearGradient>
		<filter id="filter-DRZQe0cZ" color-interpolation-filters="sRGB">
			<feOffset/>
		</filter>
		<mask id="mask-4vXXJqi1">
			<rect fill="url(#color-ZftdeT6z)" x="121.6" y="162.14" width="780.8" height="699.73"/>
		</mask>
		<mask id="mask-C9mxUlCX">
			<path d="M416,198.27v84.71c0,10.86 -6.85,20.54 -17.1,24.15c-84.52,29.75 -145.04,110.28 -145.04,204.87c0,50.86 17.61,97.37 46.86,134.54l71.57,-71.58c7.32,-7.32 18.33,-9.51 27.9,-5.55c9.57,3.96 15.8,13.3 15.8,23.65v243.2c0,14.14 -11.46,25.6 -25.6,25.6h-243.2c-10.35,0 -19.69,-6.24 -23.65,-15.8c-3.96,-9.57 -1.77,-20.58 5.55,-27.9l78.15,-78.15c-53.06,-60.94 -85.65,-140.52 -85.65,-228.01c0,-163.2 111.59,-299.61 262.41,-338.52c7.67,-1.98 15.82,-0.3 22.07,4.55c6.26,4.85 9.92,12.32 9.92,20.24zM816.75,283.99c53.06,60.94 85.65,140.52 85.65,228.01c0,163.2 -111.59,299.61 -262.41,338.52c-7.67,1.98 -15.82,0.3 -22.07,-4.55c-6.26,-4.85 -9.92,-12.32 -9.92,-20.24v-84.71c0,-10.86 6.85,-20.54 17.1,-24.15c84.52,-29.75 145.04,-110.28 145.04,-204.87c0,-50.86 -17.61,-97.37 -46.86,-134.54l-71.57,71.58c-7.32,7.32 -18.33,9.51 -27.9,5.55c-9.57,-3.96 -15.8,-13.3 -15.8,-23.65v-243.2c0,-14.14 11.46,-25.6 25.6,-25.6h243.2c10.35,0 19.69,6.24 23.65,15.8c3.96,9.57 1.77,20.58 -5.55,27.9zM471.46,283.74h81.07c14.14,0 25.6,11.46 25.6,25.6v243.2c0,14.14 -11.46,25.6 -25.6,25.6h-81.07c-14.14,0 -25.6,-11.46 -25.6,-25.6v-243.2c0,-14.14 11.46,-25.6 25.6,-25.6zM471.46,608h81.07c14.14,0 25.6,11.46 25.6,25.6v81.06c0,14.14 -11.46,25.6 -25.6,25.6h-81.07c-14.14,0 -25.6,-11.46 -25.6,-25.6v-81.06c0,-14.14 11.46,-25.6 25.6,-25.6zM147.2,512c0,89.58 36.88,170.24 95.66,228.61l-95.66,95.66h243.2v-243.2l-90.79,90.8c-43.78,-44.18 -71.34,-104.58 -71.34,-171.86c0,-105.79 67.7,-195.78 162.14,-229.02v-84.71c-139.84,36.07 -243.2,162.54 -243.2,313.73zM876.8,187.74h-243.2v243.2l90.79,-90.8c43.78,44.18 71.35,104.58 71.35,171.86c0,105.79 -67.7,195.78 -162.14,229.02v84.71c139.84,-36.07 243.2,-162.54 243.2,-313.73c0,-89.58 -36.88,-170.24 -95.66,-228.61zM471.46,552.54h81.07v-243.2h-81.07zM471.46,714.66h81.07v-81.06h-81.07z" fill="url(#color-VzEGxQMf)"/>
		</mask>
		<mask id="mask-CrtDtR1i">
			<path d="M416,198.27v84.71c0,10.86 -6.85,20.54 -17.1,24.15c-84.52,29.75 -145.04,110.28 -145.04,204.87c0,50.86 17.61,97.37 46.86,134.54l71.57,-71.58c7.32,-7.32 18.33,-9.51 27.9,-5.55c9.57,3.96 15.8,13.3 15.8,23.65v243.2c0,14.14 -11.46,25.6 -25.6,25.6h-243.2c-10.35,0 -19.69,-6.24 -23.65,-15.8c-3.96,-9.57 -1.77,-20.58 5.55,-27.9l78.15,-78.15c-53.06,-60.94 -85.65,-140.52 -85.65,-228.01c0,-163.2 111.59,-299.61 262.41,-338.52c7.67,-1.98 15.82,-0.3 22.07,4.55c6.26,4.85 9.92,12.32 9.92,20.24zM816.75,283.99c53.06,60.94 85.65,140.52 85.65,228.01c0,163.2 -111.59,299.61 -262.41,338.52c-7.67,1.98 -15.82,0.3 -22.07,-4.55c-6.26,-4.85 -9.92,-12.32 -9.92,-20.24v-84.71c0,-10.86 6.85,-20.54 17.1,-24.15c84.52,-29.75 145.04,-110.28 145.04,-204.87c0,-50.86 -17.61,-97.37 -46.86,-134.54l-71.57,71.58c-7.32,7.32 -18.33,9.51 -27.9,5.55c-9.57,-3.96 -15.8,-13.3 -15.8,-23.65v-243.2c0,-14.14 11.46,-25.6 25.6,-25.6h243.2c10.35,0 19.69,6.24 23.65,15.8c3.96,9.57 1.77,20.58 -5.55,27.9zM471.46,283.74h81.07c14.14,0 25.6,11.46 25.6,25.6v243.2c0,14.14 -11.46,25.6 -25.6,25.6h-81.07c-14.14,0 -25.6,-11.46 -25.6,-25.6v-243.2c0,-14.14 11.46,-25.6 25.6,-25.6zM471.46,608h81.07c14.14,0 25.6,11.46 25.6,25.6v81.06c0,14.14 -11.46,25.6 -25.6,25.6h-81.07c-14.14,0 -25.6,-11.46 -25.6,-25.6v-81.06c0,-14.14 11.46,-25.6 25.6,-25.6zM147.2,512c0,89.58 36.88,170.24 95.66,228.61l-95.66,95.66h243.2v-243.2l-90.79,90.8c-43.78,-44.18 -71.34,-104.58 -71.34,-171.86c0,-105.79 67.7,-195.78 162.14,-229.02v-84.71c-139.84,36.07 -243.2,162.54 -243.2,313.73zM876.8,187.74h-243.2v243.2l90.79,-90.8c43.78,44.18 71.35,104.58 71.35,171.86c0,105.79 -67.7,195.78 -162.14,229.02v84.71c139.84,-36.07 243.2,-162.54 243.2,-313.73c0,-89.58 -36.88,-170.24 -95.66,-228.61zM471.46,552.54h81.07v-243.2h-81.07zM471.46,714.66h81.07v-81.06h-81.07z" fill="#ffffff"/>
		</mask>
	</defs>
	<g fill="none" fill-rule="nonzero" style="mix-blend-mode: normal">
		<g mask="url(#mask-CrtDtR1i)">
			<g color="#ff0000" class="teamapps-color-2">
				<rect x="121.6" y="162.14" width="780.8" height="699.73" fill="currentColor"/>
			</g>
			<g color="#bc13e0" class="teamapps-color-3" mask="url(#mask-4vXXJqi1)">
				<rect x="121.6" y="162.14" width="780.8" height="699.73" fill="currentColor"/>
			</g>
		</g>
		<g filter="url(#filter-DRZQe0cZ)" mask="url(#mask-C9mxUlCX)">
			<g color="#fff961" class="teamapps-color-1">
				<rect x="121.6" y="162.14" width="780.8" height="699.73" fill="currentColor"/>
			</g>
		</g>
	</g>
</svg>