<svg version="1.1" xmlns="http://www.w3.org/2000/svg" xmlns:xlink="http://www.w3.org/1999/xlink" viewBox="0,0,1024,1024">
	<!-- Color names: teamapps-color-1, teamapps-color-2, teamapps-color-3 -->
	<desc>sync_disabled icon - Licensed under Apache License v2.0 (http://www.apache.org/licenses/LICENSE-2.0) - Created with Iconfu.com - Derivative work of Material icons (Copyright Google Inc.)</desc>
	<defs>
		<linearGradient x1="0" y1="1024" x2="1024" y2="0" id="color-1izaGvdo" gradientUnits="userSpaceOnUse">
			<stop offset="0.2" stop-color="#000000"/>
			<stop offset="0.8" stop-color="#ffffff"/>
		</linearGradient>
		<radialGradient cx="0" cy="0" r="1448.15" id="color-YeoT5T2u" gradientUnits="userSpaceOnUse">
			<stop offset="0.08" stop-color="#ffffff"/>
			<stop offset="1" stop-color="#000000"/>
		</radialGradient>
		<filter id="filter-KzSqFTlf" color-interpolation-filters="sRGB">
			<feOffset/>
		</filter>
		<mask id="mask-9Sip0gvD">
			<rect fill="url(#color-1izaGvdo)" x="115.93" y="162.14" width="745.94" height="745.94"/>
		</mask>
		<mask id="mask-R7PakMCT">
			<path d="M211.52,175.32l636.78,637.59c9.99,10 9.98,26.2 -0.01,36.19l-51.47,51.47c-10,10 -26.21,10 -36.2,0l-81.75,-81.75c-24.8,13.47 -51.51,24.26 -79.69,31.66c-7.68,2.02 -15.85,0.36 -22.14,-4.49c-6.28,-4.85 -9.96,-12.33 -9.96,-20.27v-84.71c0,-9.12 4.83,-17.4 12.43,-21.96l-122.96,-122.96v240.16c0,14.14 -11.46,25.6 -25.6,25.6h-243.2c-10.35,0 -19.69,-6.24 -23.65,-15.8c-3.96,-9.57 -1.77,-20.58 5.55,-27.9l78.15,-78.15c-53.06,-60.94 -85.65,-140.52 -85.65,-228.01c0,-60.82 15.65,-117.87 42.92,-167.38l-81.63,-81.63c-10.02,-10.02 -9.99,-26.29 0.07,-36.27l51.88,-51.48c10.01,-9.94 26.18,-9.9 36.15,0.08zM305.14,444.71c-6.94,21.21 -10.74,43.8 -10.74,67.29c0,50.86 17.6,97.37 46.85,134.54l71.58,-71.58c4.19,-4.19 9.58,-6.7 15.23,-7.34zM776.22,283.99c53.06,60.94 85.65,140.52 85.65,228.01c0,68.22 -19.69,131.72 -53.4,185.12c-4.15,6.58 -11.07,10.92 -18.81,11.78c-7.73,0.86 -15.44,-1.84 -20.94,-7.34l-59.18,-59.18c-7.89,-7.89 -9.76,-19.98 -4.63,-29.88c15.65,-30.2 24.69,-64.29 24.69,-100.5c0,-50.86 -17.6,-97.37 -46.85,-134.54l-71.58,71.58c-7.32,7.32 -18.33,9.51 -27.9,5.55c-9.57,-3.96 -15.8,-13.3 -15.8,-23.65v-243.2c0,-14.14 11.46,-25.6 25.6,-25.6h243.2c10.35,0 19.69,6.24 23.65,15.8c3.96,9.57 1.77,20.58 -5.55,27.9zM381.62,314.46l-59.18,-59.18c-5.53,-5.53 -8.23,-13.29 -7.33,-21.07c0.91,-7.77 5.32,-14.7 11.97,-18.82c29.61,-18.29 62.36,-32.71 97.35,-41.89c7.68,-2.02 15.85,-0.36 22.14,4.49c6.28,4.85 9.96,12.33 9.96,20.27v84.71c0,11.02 -7.05,20.8 -17.5,24.29c-9.17,3.06 -17.88,7.2 -28.24,12.17c-9.8,4.7 -21.49,2.71 -29.18,-4.98zM141.53,244.89l95.66,95.66c-31.21,49.45 -49.45,108.22 -49.45,171.46c0,89.58 36.88,170.24 95.66,228.61l-95.66,95.66h243.2v-243.2l-90.8,90.8c-43.78,-44.18 -71.34,-104.58 -71.34,-171.86c0,-40.54 10.13,-78.64 27.56,-112.28l327.51,327.51c-10.14,5.27 -20.26,10.14 -31.21,13.78v84.71c32.42,-8.51 62.82,-21.89 90.38,-38.91l95.66,95.66l51.47,-51.47l-636.78,-637.59zM836.26,187.74h-243.2v243.2l90.8,-90.8c43.78,44.18 71.34,104.58 71.34,171.86c0,40.54 -10.13,78.64 -27.56,112.28l59.18,59.18c31.21,-49.45 49.45,-108.22 49.45,-171.46c0,-89.58 -36.88,-170.24 -95.66,-228.61zM430.94,282.98v-84.71c-32.42,8.51 -62.83,21.89 -90.39,38.91l59.18,59.18c10.14,-4.86 20.27,-9.73 31.22,-13.38z" fill="#ffffff"/>
		</mask>
		<mask id="mask-TNSAa8Uy">
			<path d="M211.52,175.32l636.78,637.59c9.99,10 9.98,26.2 -0.01,36.19l-51.47,51.47c-10,10 -26.21,10 -36.2,0l-81.75,-81.75c-24.8,13.47 -51.51,24.26 -79.69,31.66c-7.68,2.02 -15.85,0.36 -22.14,-4.49c-6.28,-4.85 -9.96,-12.33 -9.96,-20.27v-84.71c0,-9.12 4.83,-17.4 12.43,-21.96l-122.96,-122.96v240.16c0,14.14 -11.46,25.6 -25.6,25.6h-243.2c-10.35,0 -19.69,-6.24 -23.65,-15.8c-3.96,-9.57 -1.77,-20.58 5.55,-27.9l78.15,-78.15c-53.06,-60.94 -85.65,-140.52 -85.65,-228.01c0,-60.82 15.65,-117.87 42.92,-167.38l-81.63,-81.63c-10.02,-10.02 -9.99,-26.29 0.07,-36.27l51.88,-51.48c10.01,-9.94 26.18,-9.9 36.15,0.08zM305.14,444.71c-6.94,21.21 -10.74,43.8 -10.74,67.29c0,50.86 17.6,97.37 46.85,134.54l71.58,-71.58c4.19,-4.19 9.58,-6.7 15.23,-7.34zM776.22,283.99c53.06,60.94 85.65,140.52 85.65,228.01c0,68.22 -19.69,131.72 -53.4,185.12c-4.15,6.58 -11.07,10.92 -18.81,11.78c-7.73,0.86 -15.44,-1.84 -20.94,-7.34l-59.18,-59.18c-7.89,-7.89 -9.76,-19.98 -4.63,-29.88c15.65,-30.2 24.69,-64.29 24.69,-100.5c0,-50.86 -17.6,-97.37 -46.85,-134.54l-71.58,71.58c-7.32,7.32 -18.33,9.51 -27.9,5.55c-9.57,-3.96 -15.8,-13.3 -15.8,-23.65v-243.2c0,-14.14 11.46,-25.6 25.6,-25.6h243.2c10.35,0 19.69,6.24 23.65,15.8c3.96,9.57 1.77,20.58 -5.55,27.9zM381.62,314.46l-59.18,-59.18c-5.53,-5.53 -8.23,-13.29 -7.33,-21.07c0.91,-7.77 5.32,-14.7 11.97,-18.82c29.61,-18.29 62.36,-32.71 97.35,-41.89c7.68,-2.02 15.85,-0.36 22.14,4.49c6.28,4.85 9.96,12.33 9.96,20.27v84.71c0,11.02 -7.05,20.8 -17.5,24.29c-9.17,3.06 -17.88,7.2 -28.24,12.17c-9.8,4.7 -21.49,2.71 -29.18,-4.98zM141.53,244.89l95.66,95.66c-31.21,49.45 -49.45,108.22 -49.45,171.46c0,89.58 36.88,170.24 95.66,228.61l-95.66,95.66h243.2v-243.2l-90.8,90.8c-43.78,-44.18 -71.34,-104.58 -71.34,-171.86c0,-40.54 10.13,-78.64 27.56,-112.28l327.51,327.51c-10.14,5.27 -20.26,10.14 -31.21,13.78v84.71c32.42,-8.51 62.82,-21.89 90.38,-38.91l95.66,95.66l51.47,-51.47l-636.78,-637.59zM836.26,187.74h-243.2v243.2l90.8,-90.8c43.78,44.18 71.34,104.58 71.34,171.86c0,40.54 -10.13,78.64 -27.56,112.28l59.18,59.18c31.21,-49.45 49.45,-108.22 49.45,-171.46c0,-89.58 -36.88,-170.24 -95.66,-228.61zM430.94,282.98v-84.71c-32.42,8.51 -62.83,21.89 -90.39,38.91l59.18,59.18c10.14,-4.86 20.27,-9.73 31.22,-13.38z" fill="url(#color-YeoT5T2u)"/>
		</mask>
	</defs>
	<g fill="none" fill-rule="nonzero" style="mix-blend-mode: normal">
		<g mask="url(#mask-R7PakMCT)">
			<g color="#ff0000" class="teamapps-color-2">
				<rect x="115.93" y="162.14" width="745.94" height="745.94" fill="currentColor"/>
			</g>
			<g color="#bc13e0" class="teamapps-color-3" mask="url(#mask-9Sip0gvD)">
				<rect x="115.93" y="162.14" width="745.94" height="745.94" fill="currentColor"/>
			</g>
		</g>
		<g filter="url(#filter-KzSqFTlf)" mask="url(#mask-TNSAa8Uy)">
			<g color="#fff961" class="teamapps-color-1">
				<rect x="115.93" y="162.14" width="745.94" height="745.94" fill="currentColor"/>
			</g>
		</g>
	</g>
</svg>