<svg version="1.1" xmlns="http://www.w3.org/2000/svg" xmlns:xlink="http://www.w3.org/1999/xlink" viewBox="0,0,1024,1024">
	<!-- Color names: teamapps-color-1, teamapps-color-2, teamapps-color-3 -->
	<desc>thumbs_up_down icon - Licensed under Apache License v2.0 (http://www.apache.org/licenses/LICENSE-2.0) - Created with Iconfu.com - Derivative work of Material icons (Copyright Google Inc.)</desc>
	<defs>
		<linearGradient x1="0" y1="1024" x2="1024" y2="0" id="color-a84DHam5" gradientUnits="userSpaceOnUse">
			<stop offset="0.2" stop-color="#000000"/>
			<stop offset="0.8" stop-color="#ffffff"/>
		</linearGradient>
		<radialGradient cx="0" cy="0" r="1448.15" id="color-MPi2vPZz" gradientUnits="userSpaceOnUse">
			<stop offset="0.08" stop-color="#ffffff"/>
			<stop offset="1" stop-color="#000000"/>
		</radialGradient>
		<filter id="filter-hjHx61h3" color-interpolation-filters="sRGB">
			<feOffset/>
		</filter>
		<mask id="mask-DlmLYuHP">
			<rect fill="url(#color-a84DHam5)" x="0" y="0" width="1024" height="1024"/>
		</mask>
		<mask id="mask-mRdUstqB">
			<path d="M1024,491.74v263.46c0,23.69 -9.79,45.53 -25.33,61.07l-200.24,200.23c-9.95,9.95 -26.07,10 -36.09,0.11l-32.19,-31.79c-0.13,-0.13 -0.25,-0.26 -0.38,-0.39c-12.05,-12.66 -20.43,-30.13 -20.43,-50.08l0.89,-11.8l20.82,-101.22h-178.51c-36.43,0 -66.14,-29.7 -66.14,-66.14v-50.66c0,-11.19 2.33,-22.21 6.39,-32.06l91.73,-214.72c13.15,-30.32 43.6,-52.42 79.48,-52.42h273.6c47.78,0 86.4,38.62 86.4,86.4zM537.6,319.46c0,11.19 -2.33,22.21 -6.39,32.06l-91.73,214.72c-13.15,30.32 -43.6,52.42 -79.48,52.42h-273.6c-47.78,0 -86.4,-38.62 -86.4,-86.4v-263.46c0,-23.69 9.79,-45.53 25.33,-61.07l200.24,-200.23c10,-10 26.21,-10 36.21,0l32.15,32.17c0.1,0.1 0.2,0.2 0.3,0.31c12.05,12.66 20.43,30.13 20.43,50.08l-0.9,11.48l-20.81,101.14h178.51c36.43,0 66.14,29.7 66.14,66.14zM937.6,430.94h-273.6c-25.13,0 -46.62,15.4 -55.94,36.88l-91.61,214.42c-2.84,6.89 -4.46,14.59 -4.46,22.3v50.66c0,22.3 18.24,40.54 40.54,40.54h209.96l-26.75,128.9l-0.81,9.73c0,12.57 5.27,23.91 13.38,32.42l32.01,31.62l200.24,-200.23c10.94,-10.94 17.83,-26.35 17.83,-42.97v-263.46c0,-33.64 -27.16,-60.8 -60.8,-60.8zM512,268.8c0,-22.3 -18.24,-40.54 -40.54,-40.54h-209.96l26.75,-128.9l0.81,-9.32c0,-12.57 -5.27,-23.91 -13.38,-32.42l-32.01,-32.02l-200.24,200.23c-10.94,10.94 -17.83,26.35 -17.83,42.97v263.46c0,33.64 27.16,60.8 60.8,60.8h273.6c25.13,0 46.62,-15.4 55.94,-36.88l91.61,-214.42c2.84,-6.89 4.46,-14.59 4.46,-22.3z" fill="url(#color-MPi2vPZz)"/>
		</mask>
		<mask id="mask-v3YvwtGs">
			<path d="M1024,491.74v263.46c0,23.69 -9.79,45.53 -25.33,61.07l-200.24,200.23c-9.95,9.95 -26.07,10 -36.09,0.11l-32.19,-31.79c-0.13,-0.13 -0.25,-0.26 -0.38,-0.39c-12.05,-12.66 -20.43,-30.13 -20.43,-50.08l0.89,-11.8l20.82,-101.22h-178.51c-36.43,0 -66.14,-29.7 -66.14,-66.14v-50.66c0,-11.19 2.33,-22.21 6.39,-32.06l91.73,-214.72c13.15,-30.32 43.6,-52.42 79.48,-52.42h273.6c47.78,0 86.4,38.62 86.4,86.4zM537.6,319.46c0,11.19 -2.33,22.21 -6.39,32.06l-91.73,214.72c-13.15,30.32 -43.6,52.42 -79.48,52.42h-273.6c-47.78,0 -86.4,-38.62 -86.4,-86.4v-263.46c0,-23.69 9.79,-45.53 25.33,-61.07l200.24,-200.23c10,-10 26.21,-10 36.21,0l32.15,32.17c0.1,0.1 0.2,0.2 0.3,0.31c12.05,12.66 20.43,30.13 20.43,50.08l-0.9,11.48l-20.81,101.14h178.51c36.43,0 66.14,29.7 66.14,66.14zM937.6,430.94h-273.6c-25.13,0 -46.62,15.4 -55.94,36.88l-91.61,214.42c-2.84,6.89 -4.46,14.59 -4.46,22.3v50.66c0,22.3 18.24,40.54 40.54,40.54h209.96l-26.75,128.9l-0.81,9.73c0,12.57 5.27,23.91 13.38,32.42l32.01,31.62l200.24,-200.23c10.94,-10.94 17.83,-26.35 17.83,-42.97v-263.46c0,-33.64 -27.16,-60.8 -60.8,-60.8zM512,268.8c0,-22.3 -18.24,-40.54 -40.54,-40.54h-209.96l26.75,-128.9l0.81,-9.32c0,-12.57 -5.27,-23.91 -13.38,-32.42l-32.01,-32.02l-200.24,200.23c-10.94,10.94 -17.83,26.35 -17.83,42.97v263.46c0,33.64 27.16,60.8 60.8,60.8h273.6c25.13,0 46.62,-15.4 55.94,-36.88l91.61,-214.42c2.84,-6.89 4.46,-14.59 4.46,-22.3z" fill="#ffffff"/>
		</mask>
	</defs>
	<g fill="none" fill-rule="nonzero" style="mix-blend-mode: normal">
		<g mask="url(#mask-v3YvwtGs)">
			<g color="#ff0000" class="teamapps-color-2">
				<rect x="0" y="0" width="1024" height="1024" fill="currentColor"/>
			</g>
			<g color="#bc13e0" class="teamapps-color-3" mask="url(#mask-DlmLYuHP)">
				<rect x="0" y="0" width="1024" height="1024" fill="currentColor"/>
			</g>
		</g>
		<g filter="url(#filter-hjHx61h3)" mask="url(#mask-mRdUstqB)">
			<g color="#fff961" class="teamapps-color-1">
				<rect x="0" y="0" width="1024" height="1024" fill="currentColor"/>
			</g>
		</g>
	</g>
</svg>