<svg version="1.1" xmlns="http://www.w3.org/2000/svg" xmlns:xlink="http://www.w3.org/1999/xlink" viewBox="0,0,1024,1024">
	<!-- Color names: teamapps-color-1, teamapps-color-2, teamapps-color-3 -->
	<desc>time_to_leave icon - Licensed under Apache License v2.0 (http://www.apache.org/licenses/LICENSE-2.0) - Created with Iconfu.com - Derivative work of Material icons (Copyright Google Inc.)</desc>
	<defs>
		<linearGradient x1="0" y1="1024" x2="1024" y2="0" id="color-oLA9F0yV" gradientUnits="userSpaceOnUse">
			<stop offset="0.2" stop-color="#000000"/>
			<stop offset="0.8" stop-color="#ffffff"/>
		</linearGradient>
		<radialGradient cx="0" cy="0" r="1448.15" id="color-RfaRalde" gradientUnits="userSpaceOnUse">
			<stop offset="0.08" stop-color="#ffffff"/>
			<stop offset="1" stop-color="#000000"/>
		</radialGradient>
		<filter id="filter-pXZCcIe0" color-interpolation-filters="sRGB">
			<feOffset/>
		</filter>
		<mask id="mask-FOTGOrb0">
			<path d="M902.4,471.46v324.27c0,36.44 -29.71,66.13 -66.14,66.13h-40.53c-36.43,0 -66.14,-29.68 -66.14,-66.13v-14.94h-435.2v14.94c0,36.44 -29.71,66.13 -66.14,66.13h-40.53c-36.43,0 -66.14,-29.68 -66.14,-66.13v-324.27c0,-2.86 0.48,-5.7 1.42,-8.4l84.33,-242.85c11.95,-33.57 43.57,-58.08 81.71,-58.08h445.87c37.84,0 70.16,24.11 81.76,58.22l84.28,242.71c0.94,2.7 1.42,5.54 1.42,8.4zM716.49,274.14h-408.97l-43.73,131.2h496.44zM770.14,572.8c0,-19.5 -15.7,-35.2 -35.2,-35.2c-19.5,0 -35.2,15.7 -35.2,35.2c0,19.5 15.7,35.2 35.2,35.2c19.5,0 35.2,-15.7 35.2,-35.2zM324.26,572.8c0,-19.5 -15.7,-35.2 -35.2,-35.2c-19.5,0 -35.2,15.7 -35.2,35.2c0,19.5 15.7,35.2 35.2,35.2c19.5,0 35.2,-15.7 35.2,-35.2zM792.49,228.67c-8.1,-23.91 -30.8,-40.94 -57.55,-40.94h-445.87c-26.75,0 -49.04,17.02 -57.55,40.94l-84.31,242.79v324.27c0,22.3 18.24,40.53 40.54,40.53h40.53c22.3,0 40.54,-18.23 40.54,-40.53v-40.54h486.4v40.54c0,22.3 18.24,40.53 40.54,40.53h40.53c22.3,0 40.54,-18.23 40.54,-40.53v-324.27zM228.26,430.94l60.8,-182.4h445.87l60.8,182.4zM289.06,633.6c-33.64,0 -60.8,-27.16 -60.8,-60.8c0,-33.64 27.16,-60.8 60.8,-60.8c33.64,0 60.8,27.16 60.8,60.8c0,33.64 -27.16,60.8 -60.8,60.8zM734.94,633.6c-33.64,0 -60.8,-27.16 -60.8,-60.8c0,-33.64 27.16,-60.8 60.8,-60.8c33.64,0 60.8,27.16 60.8,60.8c0,33.64 -27.16,60.8 -60.8,60.8z" fill="#ffffff"/>
		</mask>
		<mask id="mask-MxDVfKq4">
			<path d="M902.4,471.46v324.27c0,36.44 -29.71,66.13 -66.14,66.13h-40.53c-36.43,0 -66.14,-29.68 -66.14,-66.13v-14.94h-435.2v14.94c0,36.44 -29.71,66.13 -66.14,66.13h-40.53c-36.43,0 -66.14,-29.68 -66.14,-66.13v-324.27c0,-2.86 0.48,-5.7 1.42,-8.4l84.33,-242.85c11.95,-33.57 43.57,-58.08 81.71,-58.08h445.87c37.84,0 70.16,24.11 81.76,58.22l84.28,242.71c0.94,2.7 1.42,5.54 1.42,8.4zM716.49,274.14h-408.97l-43.73,131.2h496.44zM770.14,572.8c0,-19.5 -15.7,-35.2 -35.2,-35.2c-19.5,0 -35.2,15.7 -35.2,35.2c0,19.5 15.7,35.2 35.2,35.2c19.5,0 35.2,-15.7 35.2,-35.2zM324.26,572.8c0,-19.5 -15.7,-35.2 -35.2,-35.2c-19.5,0 -35.2,15.7 -35.2,35.2c0,19.5 15.7,35.2 35.2,35.2c19.5,0 35.2,-15.7 35.2,-35.2zM792.49,228.67c-8.1,-23.91 -30.8,-40.94 -57.55,-40.94h-445.87c-26.75,0 -49.04,17.02 -57.55,40.94l-84.31,242.79v324.27c0,22.3 18.24,40.53 40.54,40.53h40.53c22.3,0 40.54,-18.23 40.54,-40.53v-40.54h486.4v40.54c0,22.3 18.24,40.53 40.54,40.53h40.53c22.3,0 40.54,-18.23 40.54,-40.53v-324.27zM228.26,430.94l60.8,-182.4h445.87l60.8,182.4zM289.06,633.6c-33.64,0 -60.8,-27.16 -60.8,-60.8c0,-33.64 27.16,-60.8 60.8,-60.8c33.64,0 60.8,27.16 60.8,60.8c0,33.64 -27.16,60.8 -60.8,60.8zM734.94,633.6c-33.64,0 -60.8,-27.16 -60.8,-60.8c0,-33.64 27.16,-60.8 60.8,-60.8c33.64,0 60.8,27.16 60.8,60.8c0,33.64 -27.16,60.8 -60.8,60.8z" fill="url(#color-RfaRalde)"/>
		</mask>
		<mask id="mask-zhTBXKe8">
			<rect fill="url(#color-oLA9F0yV)" x="121.6" y="162.14" width="780.8" height="699.73"/>
		</mask>
	</defs>
	<g fill="none" fill-rule="nonzero" style="mix-blend-mode: normal">
		<g mask="url(#mask-FOTGOrb0)">
			<g color="#ff0000" class="teamapps-color-2">
				<rect x="121.6" y="162.14" width="780.8" height="699.73" fill="currentColor"/>
			</g>
			<g color="#bc13e0" class="teamapps-color-3" mask="url(#mask-zhTBXKe8)">
				<rect x="121.6" y="162.14" width="780.8" height="699.73" fill="currentColor"/>
			</g>
		</g>
		<g filter="url(#filter-pXZCcIe0)" mask="url(#mask-MxDVfKq4)">
			<g color="#fff961" class="teamapps-color-1">
				<rect x="121.6" y="162.14" width="780.8" height="699.73" fill="currentColor"/>
			</g>
		</g>
	</g>
</svg>