<svg version="1.1" xmlns="http://www.w3.org/2000/svg" xmlns:xlink="http://www.w3.org/1999/xlink" viewBox="0,0,1024,1024">
	<!-- Color names: teamapps-color-1, teamapps-color-2, teamapps-color-3 -->
	<desc>track_changes icon - Licensed under Apache License v2.0 (http://www.apache.org/licenses/LICENSE-2.0) - Created with Iconfu.com - Derivative work of Material icons (Copyright Google Inc.)</desc>
	<defs>
		<radialGradient cx="0" cy="0" r="1448.15" id="color-5ozcYgPa" gradientUnits="userSpaceOnUse">
			<stop offset="0.08" stop-color="#ffffff"/>
			<stop offset="1" stop-color="#000000"/>
		</radialGradient>
		<linearGradient x1="0" y1="1024" x2="1024" y2="0" id="color-W9HkaNTC" gradientUnits="userSpaceOnUse">
			<stop offset="0.2" stop-color="#000000"/>
			<stop offset="0.8" stop-color="#ffffff"/>
		</linearGradient>
		<filter id="filter-f13FBHFf" color-interpolation-filters="sRGB">
			<feOffset/>
		</filter>
		<mask id="mask-Ch1ePdiB">
			<path d="M942.94,512c0,237.88 -193.05,430.94 -430.94,430.94c-237.88,0 -430.94,-193.05 -430.94,-430.94c0,-237.88 193.05,-430.94 430.94,-430.94h40.54c14.14,0 25.6,11.46 25.6,25.6v322.02c24.75,19.34 40.53,49.41 40.53,83.31c0,58.72 -47.94,106.66 -106.66,106.66c-58.72,0 -106.66,-47.94 -106.66,-106.66c0,-34.12 15.95,-63.81 40.53,-83.19v-35.64c-42,23.32 -70.4,67.73 -70.4,118.82c0,75.44 61.1,136.54 136.54,136.54c75.44,0 136.54,-61.1 136.54,-136.54c0,-37.46 -15.31,-71.64 -40.05,-96.74c-9.88,-10.02 -9.82,-26.13 0.13,-36.08l57.15,-57.15c9.96,-9.96 26.11,-10 36.12,-0.08c48.89,48.44 78.92,115.73 78.92,190.05c0,148.31 -120.49,268.8 -268.8,268.8c-148.31,0 -268.8,-120.49 -268.8,-268.8c0,-125.59 86.16,-230.73 202.66,-260.29v-30.73c-133.24,29.98 -232.53,148.79 -232.53,291.02c0,165.02 133.64,298.66 298.66,298.66c165.02,0 298.66,-133.64 298.66,-298.66c0,-82.48 -33.57,-157.15 -87.41,-211.38c-9.94,-10.01 -9.91,-26.17 0.06,-36.14l57.15,-57.15c10,-10 26.21,-10 36.2,0c77.97,77.97 126.27,185.73 126.27,304.67zM798.57,225.43l-57.15,57.15c58.37,58.78 94.85,139.84 94.85,229.42c0,179.16 -145.1,324.26 -324.26,324.26c-179.16,0 -324.26,-145.1 -324.26,-324.26c0,-165.38 123.62,-301.57 283.73,-321.43v81.88c-115.11,19.46 -202.66,119.17 -202.66,239.55c0,134.17 109.03,243.2 243.2,243.2c134.17,0 243.2,-109.03 243.2,-243.2c0,-67.29 -27.15,-128.09 -71.34,-171.86l-57.15,57.15c29.18,29.59 47.42,70.13 47.42,114.71c0,89.58 -72.56,162.14 -162.14,162.14c-89.58,0 -162.14,-72.56 -162.14,-162.14c0,-75.39 51.88,-138.22 121.6,-156.46v86.73c-24.32,14.18 -40.53,39.73 -40.53,69.72c0,44.58 36.48,81.06 81.06,81.06c44.58,0 81.06,-36.48 81.06,-81.06c0,-29.99 -16.21,-55.94 -40.53,-69.72v-335.62h-40.54c-223.74,0 -405.34,181.59 -405.34,405.34c0,223.74 181.59,405.34 405.34,405.34c223.74,0 405.34,-181.59 405.34,-405.34c0,-111.87 -45.4,-213.2 -118.77,-286.57z" fill="url(#color-5ozcYgPa)"/>
		</mask>
		<mask id="mask-oUKJRYl0">
			<rect fill="url(#color-W9HkaNTC)" x="81.06" y="81.06" width="861.87" height="861.87"/>
		</mask>
		<mask id="mask-R3r2IKE7">
			<path d="M942.94,512c0,237.88 -193.05,430.94 -430.94,430.94c-237.88,0 -430.94,-193.05 -430.94,-430.94c0,-237.88 193.05,-430.94 430.94,-430.94h40.54c14.14,0 25.6,11.46 25.6,25.6v322.02c24.75,19.34 40.53,49.41 40.53,83.31c0,58.72 -47.94,106.66 -106.66,106.66c-58.72,0 -106.66,-47.94 -106.66,-106.66c0,-34.12 15.95,-63.81 40.53,-83.19v-35.64c-42,23.32 -70.4,67.73 -70.4,118.82c0,75.44 61.1,136.54 136.54,136.54c75.44,0 136.54,-61.1 136.54,-136.54c0,-37.46 -15.31,-71.64 -40.05,-96.74c-9.88,-10.02 -9.82,-26.13 0.13,-36.08l57.15,-57.15c9.96,-9.96 26.11,-10 36.12,-0.08c48.89,48.44 78.92,115.73 78.92,190.05c0,148.31 -120.49,268.8 -268.8,268.8c-148.31,0 -268.8,-120.49 -268.8,-268.8c0,-125.59 86.16,-230.73 202.66,-260.29v-30.73c-133.24,29.98 -232.53,148.79 -232.53,291.02c0,165.02 133.64,298.66 298.66,298.66c165.02,0 298.66,-133.64 298.66,-298.66c0,-82.48 -33.57,-157.15 -87.41,-211.38c-9.94,-10.01 -9.91,-26.17 0.06,-36.14l57.15,-57.15c10,-10 26.21,-10 36.2,0c77.97,77.97 126.27,185.73 126.27,304.67zM798.57,225.43l-57.15,57.15c58.37,58.78 94.85,139.84 94.85,229.42c0,179.16 -145.1,324.26 -324.26,324.26c-179.16,0 -324.26,-145.1 -324.26,-324.26c0,-165.38 123.62,-301.57 283.73,-321.43v81.88c-115.11,19.46 -202.66,119.17 -202.66,239.55c0,134.17 109.03,243.2 243.2,243.2c134.17,0 243.2,-109.03 243.2,-243.2c0,-67.29 -27.15,-128.09 -71.34,-171.86l-57.15,57.15c29.18,29.59 47.42,70.13 47.42,114.71c0,89.58 -72.56,162.14 -162.14,162.14c-89.58,0 -162.14,-72.56 -162.14,-162.14c0,-75.39 51.88,-138.22 121.6,-156.46v86.73c-24.32,14.18 -40.53,39.73 -40.53,69.72c0,44.58 36.48,81.06 81.06,81.06c44.58,0 81.06,-36.48 81.06,-81.06c0,-29.99 -16.21,-55.94 -40.53,-69.72v-335.62h-40.54c-223.74,0 -405.34,181.59 -405.34,405.34c0,223.74 181.59,405.34 405.34,405.34c223.74,0 405.34,-181.59 405.34,-405.34c0,-111.87 -45.4,-213.2 -118.77,-286.57z" fill="#ffffff"/>
		</mask>
	</defs>
	<g fill="none" fill-rule="nonzero" style="mix-blend-mode: normal">
		<g mask="url(#mask-R3r2IKE7)">
			<g color="#ff0000" class="teamapps-color-2">
				<rect x="81.06" y="81.06" width="861.87" height="861.87" fill="currentColor"/>
			</g>
			<g color="#bc13e0" class="teamapps-color-3" mask="url(#mask-oUKJRYl0)">
				<rect x="81.06" y="81.06" width="861.87" height="861.87" fill="currentColor"/>
			</g>
		</g>
		<g filter="url(#filter-f13FBHFf)" mask="url(#mask-Ch1ePdiB)">
			<g color="#fff961" class="teamapps-color-1">
				<rect x="81.06" y="81.06" width="861.87" height="861.87" fill="currentColor"/>
			</g>
		</g>
	</g>
</svg>