<svg version="1.1" xmlns="http://www.w3.org/2000/svg" xmlns:xlink="http://www.w3.org/1999/xlink" viewBox="0,0,1024,1024">
	<!-- Color names: teamapps-color-1, teamapps-color-2, teamapps-color-3 -->
	<desc>tune icon - Licensed under Apache License v2.0 (http://www.apache.org/licenses/LICENSE-2.0) - Created with Iconfu.com - Derivative work of Material icons (Copyright Google Inc.)</desc>
	<defs>
		<radialGradient cx="0" cy="0" r="1448.15" id="color-1bv6nyCO" gradientUnits="userSpaceOnUse">
			<stop offset="0.08" stop-color="#ffffff"/>
			<stop offset="1" stop-color="#000000"/>
		</radialGradient>
		<linearGradient x1="0" y1="1024" x2="1024" y2="0" id="color-3TscBIdC" gradientUnits="userSpaceOnUse">
			<stop offset="0.2" stop-color="#000000"/>
			<stop offset="0.8" stop-color="#ffffff"/>
		</linearGradient>
		<filter id="filter-xdeAo8ZU" color-interpolation-filters="sRGB">
			<feOffset/>
		</filter>
		<mask id="mask-dhBHkC7I">
			<path d="M445.86,876.8v-243.2c0,-14.14 11.46,-25.6 25.6,-25.6h81.07c14.14,0 25.6,11.46 25.6,25.6v55.46h298.66c14.14,0 25.6,11.46 25.6,25.6v81.07c0,14.14 -11.46,25.6 -25.6,25.6h-298.66v55.46c0,14.14 -11.46,25.6 -25.6,25.6h-81.07c-14.14,0 -25.6,-11.46 -25.6,-25.6zM416,390.4v243.2c0,14.14 -11.46,25.6 -25.6,25.6h-81.06c-14.14,0 -25.6,-11.46 -25.6,-25.6v-55.46h-136.54c-14.14,0 -25.6,-11.46 -25.6,-25.6v-81.07c0,-14.14 11.46,-25.6 25.6,-25.6h136.54v-55.46c0,-14.14 11.46,-25.6 25.6,-25.6h81.06c14.14,0 25.6,11.46 25.6,25.6zM633.6,121.6h81.06c14.14,0 25.6,11.46 25.6,25.6v55.46h136.54c14.14,0 25.6,11.46 25.6,25.6v81.07c0,14.14 -11.46,25.6 -25.6,25.6h-136.54v55.46c0,14.14 -11.46,25.6 -25.6,25.6h-81.06c-14.14,0 -25.6,-11.46 -25.6,-25.6v-243.2c0,-14.14 11.46,-25.6 25.6,-25.6zM578.14,228.26v81.07c0,14.14 -11.46,25.6 -25.6,25.6h-405.34c-14.14,0 -25.6,-11.46 -25.6,-25.6v-81.07c0,-14.14 11.46,-25.6 25.6,-25.6h405.34c14.14,0 25.6,11.46 25.6,25.6zM445.86,552.54v-81.07c0,-14.14 11.46,-25.6 25.6,-25.6h405.34c14.14,0 25.6,11.46 25.6,25.6v81.07c0,14.14 -11.46,25.6 -25.6,25.6h-405.34c-14.14,0 -25.6,-11.46 -25.6,-25.6zM416,714.66v81.07c0,14.14 -11.46,25.6 -25.6,25.6h-243.2c-14.14,0 -25.6,-11.46 -25.6,-25.6v-81.07c0,-14.14 11.46,-25.6 25.6,-25.6h243.2c14.14,0 25.6,11.46 25.6,25.6zM552.54,876.8v-81.06h324.26v-81.07h-324.26v-81.06h-81.07v243.2zM309.34,390.4v81.06h-162.14v81.07h162.14v81.06h81.06v-243.2zM633.6,390.4h81.06v-81.06h162.14v-81.07h-162.14v-81.06h-81.06zM876.8,552.54v-81.07h-405.34v81.07zM147.2,228.26v81.07h405.34v-81.07zM147.2,714.66v81.07h243.2v-81.07z" fill="url(#color-1bv6nyCO)"/>
		</mask>
		<mask id="mask-qVLcnR3g">
			<path d="M445.86,876.8v-243.2c0,-14.14 11.46,-25.6 25.6,-25.6h81.07c14.14,0 25.6,11.46 25.6,25.6v55.46h298.66c14.14,0 25.6,11.46 25.6,25.6v81.07c0,14.14 -11.46,25.6 -25.6,25.6h-298.66v55.46c0,14.14 -11.46,25.6 -25.6,25.6h-81.07c-14.14,0 -25.6,-11.46 -25.6,-25.6zM416,390.4v243.2c0,14.14 -11.46,25.6 -25.6,25.6h-81.06c-14.14,0 -25.6,-11.46 -25.6,-25.6v-55.46h-136.54c-14.14,0 -25.6,-11.46 -25.6,-25.6v-81.07c0,-14.14 11.46,-25.6 25.6,-25.6h136.54v-55.46c0,-14.14 11.46,-25.6 25.6,-25.6h81.06c14.14,0 25.6,11.46 25.6,25.6zM633.6,121.6h81.06c14.14,0 25.6,11.46 25.6,25.6v55.46h136.54c14.14,0 25.6,11.46 25.6,25.6v81.07c0,14.14 -11.46,25.6 -25.6,25.6h-136.54v55.46c0,14.14 -11.46,25.6 -25.6,25.6h-81.06c-14.14,0 -25.6,-11.46 -25.6,-25.6v-243.2c0,-14.14 11.46,-25.6 25.6,-25.6zM578.14,228.26v81.07c0,14.14 -11.46,25.6 -25.6,25.6h-405.34c-14.14,0 -25.6,-11.46 -25.6,-25.6v-81.07c0,-14.14 11.46,-25.6 25.6,-25.6h405.34c14.14,0 25.6,11.46 25.6,25.6zM445.86,552.54v-81.07c0,-14.14 11.46,-25.6 25.6,-25.6h405.34c14.14,0 25.6,11.46 25.6,25.6v81.07c0,14.14 -11.46,25.6 -25.6,25.6h-405.34c-14.14,0 -25.6,-11.46 -25.6,-25.6zM416,714.66v81.07c0,14.14 -11.46,25.6 -25.6,25.6h-243.2c-14.14,0 -25.6,-11.46 -25.6,-25.6v-81.07c0,-14.14 11.46,-25.6 25.6,-25.6h243.2c14.14,0 25.6,11.46 25.6,25.6zM552.54,876.8v-81.06h324.26v-81.07h-324.26v-81.06h-81.07v243.2zM309.34,390.4v81.06h-162.14v81.07h162.14v81.06h81.06v-243.2zM633.6,390.4h81.06v-81.06h162.14v-81.07h-162.14v-81.06h-81.06zM876.8,552.54v-81.07h-405.34v81.07zM147.2,228.26v81.07h405.34v-81.07zM147.2,714.66v81.07h243.2v-81.07z" fill="#ffffff"/>
		</mask>
		<mask id="mask-w4dtEVLw">
			<rect fill="url(#color-3TscBIdC)" x="121.6" y="121.6" width="780.8" height="780.8"/>
		</mask>
	</defs>
	<g fill="none" fill-rule="nonzero" style="mix-blend-mode: normal">
		<g mask="url(#mask-qVLcnR3g)">
			<g color="#ff0000" class="teamapps-color-2">
				<rect x="121.6" y="121.6" width="780.8" height="780.8" fill="currentColor"/>
			</g>
			<g color="#bc13e0" class="teamapps-color-3" mask="url(#mask-w4dtEVLw)">
				<rect x="121.6" y="121.6" width="780.8" height="780.8" fill="currentColor"/>
			</g>
		</g>
		<g filter="url(#filter-xdeAo8ZU)" mask="url(#mask-dhBHkC7I)">
			<g color="#fff961" class="teamapps-color-1">
				<rect x="121.6" y="121.6" width="780.8" height="780.8" fill="currentColor"/>
			</g>
		</g>
	</g>
</svg>