<svg version="1.1" xmlns="http://www.w3.org/2000/svg" xmlns:xlink="http://www.w3.org/1999/xlink" viewBox="0,0,1024,1024">
	<!-- Color names: teamapps-color-1, teamapps-color-2, teamapps-color-3 -->
	<desc>usb icon - Licensed under Apache License v2.0 (http://www.apache.org/licenses/LICENSE-2.0) - Created with Iconfu.com - Derivative work of Material icons (Copyright Google Inc.)</desc>
	<defs>
		<linearGradient x1="0" y1="1024" x2="1024" y2="0" id="color-eQWR7Z2l" gradientUnits="userSpaceOnUse">
			<stop offset="0.2" stop-color="#000000"/>
			<stop offset="0.8" stop-color="#ffffff"/>
		</linearGradient>
		<radialGradient cx="0" cy="0" r="1448.15" id="color-Rj78WuuA" gradientUnits="userSpaceOnUse">
			<stop offset="0.08" stop-color="#ffffff"/>
			<stop offset="1" stop-color="#000000"/>
		</radialGradient>
		<filter id="filter-yycLb50M" color-interpolation-filters="sRGB">
			<feOffset/>
		</filter>
		<mask id="mask-j6sbE5Ph">
			<path d="M821.34,309.34v162.13c0,14.14 -11.46,25.6 -25.6,25.6h-14.94v55.47c0,59.13 -47.53,106.66 -106.66,106.66h-96v83.74c29.13,20.69 48.64,54.47 48.64,93.32c0,63.66 -51.67,114.78 -114.78,114.78c-63.11,0 -114.78,-51.11 -114.78,-114.78c0,-38.85 19.51,-72.63 48.64,-93.32v-83.74h-96c-59.13,0 -106.66,-47.53 -106.66,-106.66v-69.67c-28.6,-20.35 -48.64,-53.33 -48.64,-92.46c0,-63.19 51.59,-114.78 114.78,-114.78c63.19,0 114.77,51.59 114.77,114.78c0,39.14 -20.04,72.12 -48.64,92.46v44.07h70.4v-273.07h-55.46c-9.7,0 -18.56,-5.48 -22.9,-14.15c-4.34,-8.67 -3.4,-19.05 2.42,-26.81l121.6,-162.13c4.83,-6.45 12.42,-10.24 20.48,-10.24c8.06,0 15.65,3.79 20.48,10.24l121.6,162.13c5.82,7.76 6.75,18.14 2.42,26.81c-4.34,8.67 -13.2,14.15 -22.9,14.15h-55.46v273.07h70.4v-29.87h-14.94c-14.14,0 -25.6,-11.46 -25.6,-25.6v-162.13c0,-14.14 11.46,-25.6 25.6,-25.6h162.14c14.14,0 25.6,11.46 25.6,25.6zM633.6,309.34v162.13h40.54v81.07h-121.6v-324.27h81.06l-121.6,-162.13l-121.6,162.13h81.06v324.27h-121.6v-83.9c28.38,-15 48.64,-43.78 48.64,-78.23c0,-49.05 -40.12,-89.18 -89.17,-89.18c-49.05,0 -89.18,40.13 -89.18,89.18c0,34.46 20.26,63.23 48.64,78.23v83.9c0,44.99 36.07,81.06 81.06,81.06h121.6v123.62c-28.78,15 -48.64,44.58 -48.64,79.04c0,49.45 40.13,89.18 89.18,89.18c49.05,0 89.18,-39.73 89.18,-89.18c0,-34.46 -19.86,-64.04 -48.64,-79.04v-123.62h121.6c44.99,0 81.06,-36.07 81.06,-81.06v-81.07h40.54v-162.13z" fill="url(#color-Rj78WuuA)"/>
		</mask>
		<mask id="mask-O1vgp3A4">
			<path d="M821.34,309.34v162.13c0,14.14 -11.46,25.6 -25.6,25.6h-14.94v55.47c0,59.13 -47.53,106.66 -106.66,106.66h-96v83.74c29.13,20.69 48.64,54.47 48.64,93.32c0,63.66 -51.67,114.78 -114.78,114.78c-63.11,0 -114.78,-51.11 -114.78,-114.78c0,-38.85 19.51,-72.63 48.64,-93.32v-83.74h-96c-59.13,0 -106.66,-47.53 -106.66,-106.66v-69.67c-28.6,-20.35 -48.64,-53.33 -48.64,-92.46c0,-63.19 51.59,-114.78 114.78,-114.78c63.19,0 114.77,51.59 114.77,114.78c0,39.14 -20.04,72.12 -48.64,92.46v44.07h70.4v-273.07h-55.46c-9.7,0 -18.56,-5.48 -22.9,-14.15c-4.34,-8.67 -3.4,-19.05 2.42,-26.81l121.6,-162.13c4.83,-6.45 12.42,-10.24 20.48,-10.24c8.06,0 15.65,3.79 20.48,10.24l121.6,162.13c5.82,7.76 6.75,18.14 2.42,26.81c-4.34,8.67 -13.2,14.15 -22.9,14.15h-55.46v273.07h70.4v-29.87h-14.94c-14.14,0 -25.6,-11.46 -25.6,-25.6v-162.13c0,-14.14 11.46,-25.6 25.6,-25.6h162.14c14.14,0 25.6,11.46 25.6,25.6zM633.6,309.34v162.13h40.54v81.07h-121.6v-324.27h81.06l-121.6,-162.13l-121.6,162.13h81.06v324.27h-121.6v-83.9c28.38,-15 48.64,-43.78 48.64,-78.23c0,-49.05 -40.12,-89.18 -89.17,-89.18c-49.05,0 -89.18,40.13 -89.18,89.18c0,34.46 20.26,63.23 48.64,78.23v83.9c0,44.99 36.07,81.06 81.06,81.06h121.6v123.62c-28.78,15 -48.64,44.58 -48.64,79.04c0,49.45 40.13,89.18 89.18,89.18c49.05,0 89.18,-39.73 89.18,-89.18c0,-34.46 -19.86,-64.04 -48.64,-79.04v-123.62h121.6c44.99,0 81.06,-36.07 81.06,-81.06v-81.07h40.54v-162.13z" fill="#ffffff"/>
		</mask>
		<mask id="mask-yrHlJtpT">
			<rect fill="url(#color-eQWR7Z2l)" x="194.56" y="40.54" width="626.78" height="910.5"/>
		</mask>
	</defs>
	<g fill="none" fill-rule="nonzero" style="mix-blend-mode: normal">
		<g mask="url(#mask-O1vgp3A4)">
			<g color="#ff0000" class="teamapps-color-2">
				<rect x="194.56" y="40.54" width="626.78" height="910.5" fill="currentColor"/>
			</g>
			<g color="#bc13e0" class="teamapps-color-3" mask="url(#mask-yrHlJtpT)">
				<rect x="194.56" y="40.54" width="626.78" height="910.5" fill="currentColor"/>
			</g>
		</g>
		<g filter="url(#filter-yycLb50M)" mask="url(#mask-j6sbE5Ph)">
			<g color="#fff961" class="teamapps-color-1">
				<rect x="194.56" y="40.54" width="626.78" height="910.5" fill="currentColor"/>
			</g>
		</g>
	</g>
</svg>