<svg version="1.1" xmlns="http://www.w3.org/2000/svg" xmlns:xlink="http://www.w3.org/1999/xlink" viewBox="0,0,1024,1024">
	<!-- Color names: teamapps-color-1, teamapps-color-2, teamapps-color-3 -->
	<desc>vertical_align_bottom icon - Licensed under Apache License v2.0 (http://www.apache.org/licenses/LICENSE-2.0) - Created with Iconfu.com - Derivative work of Material icons (Copyright Google Inc.)</desc>
	<defs>
		<linearGradient x1="0" y1="1024" x2="1024" y2="0" id="color-CY7mVj1z" gradientUnits="userSpaceOnUse">
			<stop offset="0.2" stop-color="#000000"/>
			<stop offset="0.8" stop-color="#ffffff"/>
		</linearGradient>
		<radialGradient cx="0" cy="0" r="1448.15" id="color-uRkyzBuv" gradientUnits="userSpaceOnUse">
			<stop offset="0.08" stop-color="#ffffff"/>
			<stop offset="1" stop-color="#000000"/>
		</radialGradient>
		<filter id="filter-kiE1EUhx" color-interpolation-filters="sRGB">
			<feOffset/>
		</filter>
		<mask id="mask-7zDmmnqy">
			<rect fill="url(#color-CY7mVj1z)" x="162.14" y="121.6" width="699.73" height="780.8"/>
		</mask>
		<mask id="mask-ndLmKsta">
			<path d="M493.9,732.77l-162.14,-162.13c-7.32,-7.32 -9.51,-18.33 -5.55,-27.9c3.96,-9.57 13.3,-15.8 23.65,-15.8h96v-379.74c0,-14.14 11.46,-25.6 25.6,-25.6h81.07c14.14,0 25.6,11.46 25.6,25.6v379.74h96c10.35,0 19.69,6.24 23.65,15.8c3.96,9.57 1.77,20.58 -5.55,27.9l-162.14,162.13c-10,10 -26.21,10 -36.2,0zM861.86,795.74v81.06c0,14.14 -11.46,25.6 -25.6,25.6h-648.53c-14.14,0 -25.6,-11.46 -25.6,-25.6v-81.06c0,-14.14 11.46,-25.6 25.6,-25.6h648.53c14.14,0 25.6,11.46 25.6,25.6zM674.14,552.54h-121.6v-405.34h-81.07v405.34h-121.6l162.14,162.13zM187.74,795.74v81.06h648.53v-81.06z" fill="url(#color-uRkyzBuv)"/>
		</mask>
		<mask id="mask-OMyz3jJp">
			<path d="M493.9,732.77l-162.14,-162.13c-7.32,-7.32 -9.51,-18.33 -5.55,-27.9c3.96,-9.57 13.3,-15.8 23.65,-15.8h96v-379.74c0,-14.14 11.46,-25.6 25.6,-25.6h81.07c14.14,0 25.6,11.46 25.6,25.6v379.74h96c10.35,0 19.69,6.24 23.65,15.8c3.96,9.57 1.77,20.58 -5.55,27.9l-162.14,162.13c-10,10 -26.21,10 -36.2,0zM861.86,795.74v81.06c0,14.14 -11.46,25.6 -25.6,25.6h-648.53c-14.14,0 -25.6,-11.46 -25.6,-25.6v-81.06c0,-14.14 11.46,-25.6 25.6,-25.6h648.53c14.14,0 25.6,11.46 25.6,25.6zM674.14,552.54h-121.6v-405.34h-81.07v405.34h-121.6l162.14,162.13zM187.74,795.74v81.06h648.53v-81.06z" fill="#ffffff"/>
		</mask>
	</defs>
	<g fill="none" fill-rule="nonzero" style="mix-blend-mode: normal">
		<g mask="url(#mask-OMyz3jJp)">
			<g color="#ff0000" class="teamapps-color-2">
				<rect x="162.14" y="121.6" width="699.73" height="780.8" fill="currentColor"/>
			</g>
			<g color="#bc13e0" class="teamapps-color-3" mask="url(#mask-7zDmmnqy)">
				<rect x="162.14" y="121.6" width="699.73" height="780.8" fill="currentColor"/>
			</g>
		</g>
		<g filter="url(#filter-kiE1EUhx)" mask="url(#mask-ndLmKsta)">
			<g color="#fff961" class="teamapps-color-1">
				<rect x="162.14" y="121.6" width="699.73" height="780.8" fill="currentColor"/>
			</g>
		</g>
	</g>
</svg>