<svg version="1.1" xmlns="http://www.w3.org/2000/svg" xmlns:xlink="http://www.w3.org/1999/xlink" viewBox="0,0,1024,1024">
	<!-- Color names: teamapps-color-1, teamapps-color-2, teamapps-color-3 -->
	<desc>videocam icon - Licensed under Apache License v2.0 (http://www.apache.org/licenses/LICENSE-2.0) - Created with Iconfu.com - Derivative work of Material icons (Copyright Google Inc.)</desc>
	<defs>
		<linearGradient x1="0" y1="1024" x2="1024" y2="0" id="color-vHQgaK5Y" gradientUnits="userSpaceOnUse">
			<stop offset="0.2" stop-color="#000000"/>
			<stop offset="0.8" stop-color="#ffffff"/>
		</linearGradient>
		<radialGradient cx="0" cy="0" r="1448.15" id="color-WLuuIvOM" gradientUnits="userSpaceOnUse">
			<stop offset="0.08" stop-color="#ffffff"/>
			<stop offset="1" stop-color="#000000"/>
		</radialGradient>
		<filter id="filter-q2SLgNAU" color-interpolation-filters="sRGB">
			<feOffset/>
		</filter>
		<mask id="mask-28dH9E4D">
			<path d="M902.4,289.06v445.87c0,10.35 -6.24,19.69 -15.8,23.65c-9.57,3.96 -20.58,1.77 -27.9,-5.55l-118.43,-118.43v80.06c0,36.43 -29.68,66.14 -66.13,66.14h-486.4c-36.43,0 -66.14,-29.7 -66.14,-66.14v-405.33c0,-36.43 29.7,-66.14 66.14,-66.14h486.4c36.44,0 66.13,29.71 66.13,66.14v80.06l118.43,-118.43c7.32,-7.32 18.33,-9.51 27.9,-5.55c9.57,3.96 15.8,13.3 15.8,23.65zM714.66,451.2v-141.86c0,-22.3 -18.23,-40.54 -40.53,-40.54h-486.4c-22.3,0 -40.54,18.24 -40.54,40.54v405.33c0,22.3 18.24,40.54 40.54,40.54h486.4c22.3,0 40.53,-18.24 40.53,-40.54v-141.86l162.14,162.14v-445.87z" fill="url(#color-WLuuIvOM)"/>
		</mask>
		<mask id="mask-Cct9Bh5B">
			<rect fill="url(#color-vHQgaK5Y)" x="121.6" y="243.2" width="780.8" height="537.6"/>
		</mask>
		<mask id="mask-HlPF88zT">
			<path d="M902.4,289.06v445.87c0,10.35 -6.24,19.69 -15.8,23.65c-9.57,3.96 -20.58,1.77 -27.9,-5.55l-118.43,-118.43v80.06c0,36.43 -29.68,66.14 -66.13,66.14h-486.4c-36.43,0 -66.14,-29.7 -66.14,-66.14v-405.33c0,-36.43 29.7,-66.14 66.14,-66.14h486.4c36.44,0 66.13,29.71 66.13,66.14v80.06l118.43,-118.43c7.32,-7.32 18.33,-9.51 27.9,-5.55c9.57,3.96 15.8,13.3 15.8,23.65zM714.66,451.2v-141.86c0,-22.3 -18.23,-40.54 -40.53,-40.54h-486.4c-22.3,0 -40.54,18.24 -40.54,40.54v405.33c0,22.3 18.24,40.54 40.54,40.54h486.4c22.3,0 40.53,-18.24 40.53,-40.54v-141.86l162.14,162.14v-445.87z" fill="#ffffff"/>
		</mask>
	</defs>
	<g fill="none" fill-rule="nonzero" style="mix-blend-mode: normal">
		<g mask="url(#mask-HlPF88zT)">
			<g color="#ff0000" class="teamapps-color-2">
				<rect x="121.6" y="243.2" width="780.8" height="537.6" fill="currentColor"/>
			</g>
			<g color="#bc13e0" class="teamapps-color-3" mask="url(#mask-Cct9Bh5B)">
				<rect x="121.6" y="243.2" width="780.8" height="537.6" fill="currentColor"/>
			</g>
		</g>
		<g filter="url(#filter-q2SLgNAU)" mask="url(#mask-28dH9E4D)">
			<g color="#fff961" class="teamapps-color-1">
				<rect x="121.6" y="243.2" width="780.8" height="537.6" fill="currentColor"/>
			</g>
		</g>
	</g>
</svg>