<svg version="1.1" xmlns="http://www.w3.org/2000/svg" xmlns:xlink="http://www.w3.org/1999/xlink" viewBox="0,0,1024,1024">
	<!-- Color names: teamapps-color-1, teamapps-color-2, teamapps-color-3 -->
	<desc>videogame_asset icon - Licensed under Apache License v2.0 (http://www.apache.org/licenses/LICENSE-2.0) - Created with Iconfu.com - Derivative work of Material icons (Copyright Google Inc.)</desc>
	<defs>
		<linearGradient x1="0" y1="1024" x2="1024" y2="0" id="color-5XQGjWyw" gradientUnits="userSpaceOnUse">
			<stop offset="0.2" stop-color="#000000"/>
			<stop offset="0.8" stop-color="#ffffff"/>
		</linearGradient>
		<radialGradient cx="0" cy="0" r="1448.15" id="color-YDHzOHXM" gradientUnits="userSpaceOnUse">
			<stop offset="0.08" stop-color="#ffffff"/>
			<stop offset="1" stop-color="#000000"/>
		</radialGradient>
		<filter id="filter-3XnNatHh" color-interpolation-filters="sRGB">
			<feOffset/>
		</filter>
		<mask id="mask-5U0YGXxD">
			<path d="M983.46,349.86v324.27c0,58.72 -47.94,106.66 -106.66,106.66h-729.6c-58.72,0 -106.66,-47.94 -106.66,-106.66v-324.27c0,-58.72 47.94,-106.66 106.66,-106.66h729.6c58.72,0 106.66,47.94 106.66,106.66zM445.86,497.06h-96c-14.14,0 -25.6,-11.46 -25.6,-25.6v-96h-29.86v96c0,14.14 -11.46,25.6 -25.6,25.6h-96v29.87h96c14.14,0 25.6,11.46 25.6,25.6v96h29.86v-96c0,-14.14 11.46,-25.6 25.6,-25.6h96zM851.2,451.2c0,-19.5 -15.7,-35.2 -35.2,-35.2c-19.5,0 -35.2,15.7 -35.2,35.2c0,19.5 15.7,35.2 35.2,35.2c19.5,0 35.2,-15.7 35.2,-35.2zM689.06,572.8c0,-19.5 -15.7,-35.2 -35.2,-35.2c-19.5,0 -35.2,15.7 -35.2,35.2c0,19.5 15.7,35.2 35.2,35.2c19.5,0 35.2,-15.7 35.2,-35.2zM876.8,268.8h-729.6c-44.58,0 -81.06,36.48 -81.06,81.06v324.27c0,44.58 36.48,81.06 81.06,81.06h729.6c44.58,0 81.06,-36.48 81.06,-81.06v-324.27c0,-44.58 -36.48,-81.06 -81.06,-81.06zM471.46,552.54h-121.6v121.6h-81.06v-121.6h-121.6v-81.07h121.6v-121.6h81.06v121.6h121.6zM653.86,633.6c-33.64,0 -60.8,-27.16 -60.8,-60.8c0,-33.64 27.16,-60.8 60.8,-60.8c33.64,0 60.8,27.16 60.8,60.8c0,33.64 -27.16,60.8 -60.8,60.8zM816,512c-33.64,0 -60.8,-27.16 -60.8,-60.8c0,-33.64 27.16,-60.8 60.8,-60.8c33.64,0 60.8,27.16 60.8,60.8c0,33.64 -27.16,60.8 -60.8,60.8z" fill="#ffffff"/>
		</mask>
		<mask id="mask-aUVQDVly">
			<path d="M983.46,349.86v324.27c0,58.72 -47.94,106.66 -106.66,106.66h-729.6c-58.72,0 -106.66,-47.94 -106.66,-106.66v-324.27c0,-58.72 47.94,-106.66 106.66,-106.66h729.6c58.72,0 106.66,47.94 106.66,106.66zM445.86,497.06h-96c-14.14,0 -25.6,-11.46 -25.6,-25.6v-96h-29.86v96c0,14.14 -11.46,25.6 -25.6,25.6h-96v29.87h96c14.14,0 25.6,11.46 25.6,25.6v96h29.86v-96c0,-14.14 11.46,-25.6 25.6,-25.6h96zM851.2,451.2c0,-19.5 -15.7,-35.2 -35.2,-35.2c-19.5,0 -35.2,15.7 -35.2,35.2c0,19.5 15.7,35.2 35.2,35.2c19.5,0 35.2,-15.7 35.2,-35.2zM689.06,572.8c0,-19.5 -15.7,-35.2 -35.2,-35.2c-19.5,0 -35.2,15.7 -35.2,35.2c0,19.5 15.7,35.2 35.2,35.2c19.5,0 35.2,-15.7 35.2,-35.2zM876.8,268.8h-729.6c-44.58,0 -81.06,36.48 -81.06,81.06v324.27c0,44.58 36.48,81.06 81.06,81.06h729.6c44.58,0 81.06,-36.48 81.06,-81.06v-324.27c0,-44.58 -36.48,-81.06 -81.06,-81.06zM471.46,552.54h-121.6v121.6h-81.06v-121.6h-121.6v-81.07h121.6v-121.6h81.06v121.6h121.6zM653.86,633.6c-33.64,0 -60.8,-27.16 -60.8,-60.8c0,-33.64 27.16,-60.8 60.8,-60.8c33.64,0 60.8,27.16 60.8,60.8c0,33.64 -27.16,60.8 -60.8,60.8zM816,512c-33.64,0 -60.8,-27.16 -60.8,-60.8c0,-33.64 27.16,-60.8 60.8,-60.8c33.64,0 60.8,27.16 60.8,60.8c0,33.64 -27.16,60.8 -60.8,60.8z" fill="url(#color-YDHzOHXM)"/>
		</mask>
		<mask id="mask-Mi07khzy">
			<rect fill="url(#color-5XQGjWyw)" x="40.54" y="243.2" width="942.93" height="537.6"/>
		</mask>
	</defs>
	<g fill="none" fill-rule="nonzero" style="mix-blend-mode: normal">
		<g mask="url(#mask-5U0YGXxD)">
			<g color="#ff0000" class="teamapps-color-2">
				<rect x="40.54" y="243.2" width="942.93" height="537.6" fill="currentColor"/>
			</g>
			<g color="#bc13e0" class="teamapps-color-3" mask="url(#mask-Mi07khzy)">
				<rect x="40.54" y="243.2" width="942.93" height="537.6" fill="currentColor"/>
			</g>
		</g>
		<g filter="url(#filter-3XnNatHh)" mask="url(#mask-aUVQDVly)">
			<g color="#fff961" class="teamapps-color-1">
				<rect x="40.54" y="243.2" width="942.93" height="537.6" fill="currentColor"/>
			</g>
		</g>
	</g>
</svg>