<svg version="1.1" xmlns="http://www.w3.org/2000/svg" xmlns:xlink="http://www.w3.org/1999/xlink" viewBox="0,0,1024,1024">
	<!-- Color names: teamapps-color-1, teamapps-color-2, teamapps-color-3 -->
	<desc>view_quilt icon - Licensed under Apache License v2.0 (http://www.apache.org/licenses/LICENSE-2.0) - Created with Iconfu.com - Derivative work of Material icons (Copyright Google Inc.)</desc>
	<defs>
		<linearGradient x1="0" y1="1024" x2="1024" y2="0" id="color-WGpmxHIn" gradientUnits="userSpaceOnUse">
			<stop offset="0.2" stop-color="#000000"/>
			<stop offset="0.8" stop-color="#ffffff"/>
		</linearGradient>
		<radialGradient cx="0" cy="0" r="1448.15" id="color-ycia5jJh" gradientUnits="userSpaceOnUse">
			<stop offset="0.08" stop-color="#ffffff"/>
			<stop offset="1" stop-color="#000000"/>
		</radialGradient>
		<filter id="filter-6cz16mEo" color-interpolation-filters="sRGB">
			<feOffset/>
		</filter>
		<mask id="mask-cd607nDp">
			<rect fill="url(#color-WGpmxHIn)" x="162.14" y="202.66" width="740.26" height="578.14"/>
		</mask>
		<mask id="mask-J1FISSMS">
			<path d="M902.4,228.26v243.2c0,8.25 -3.9,15.59 -9.96,20.27c6.06,4.68 9.96,12.02 9.96,20.27v243.2c0,14.14 -11.46,25.6 -25.6,25.6h-202.66c-8.25,0 -15.59,-3.9 -20.27,-9.96c-4.68,6.06 -12.02,9.96 -20.27,9.96h-202.66c-8.25,0 -15.59,-3.9 -20.27,-9.96c-4.68,6.06 -12.02,9.96 -20.27,9.96h-202.66c-14.14,0 -25.6,-11.46 -25.6,-25.6v-526.94c0,-14.14 11.46,-25.6 25.6,-25.6h202.66c8.25,0 15.59,3.9 20.27,9.96c4.68,-6.06 12.02,-9.96 20.27,-9.96h445.86c14.14,0 25.6,11.46 25.6,25.6zM430.94,228.26v243.2h445.86v-243.2zM187.74,755.2h202.66v-526.94h-202.66zM430.94,755.2h202.66v-243.2h-202.66zM674.14,755.2h202.66v-243.2h-202.66z" fill="url(#color-ycia5jJh)"/>
		</mask>
		<mask id="mask-sCv9xB0u">
			<path d="M902.4,228.26v243.2c0,8.25 -3.9,15.59 -9.96,20.27c6.06,4.68 9.96,12.02 9.96,20.27v243.2c0,14.14 -11.46,25.6 -25.6,25.6h-202.66c-8.25,0 -15.59,-3.9 -20.27,-9.96c-4.68,6.06 -12.02,9.96 -20.27,9.96h-202.66c-8.25,0 -15.59,-3.9 -20.27,-9.96c-4.68,6.06 -12.02,9.96 -20.27,9.96h-202.66c-14.14,0 -25.6,-11.46 -25.6,-25.6v-526.94c0,-14.14 11.46,-25.6 25.6,-25.6h202.66c8.25,0 15.59,3.9 20.27,9.96c4.68,-6.06 12.02,-9.96 20.27,-9.96h445.86c14.14,0 25.6,11.46 25.6,25.6zM430.94,228.26v243.2h445.86v-243.2zM187.74,755.2h202.66v-526.94h-202.66zM430.94,755.2h202.66v-243.2h-202.66zM674.14,755.2h202.66v-243.2h-202.66z" fill="#ffffff"/>
		</mask>
	</defs>
	<g fill="none" fill-rule="nonzero" style="mix-blend-mode: normal">
		<g mask="url(#mask-sCv9xB0u)">
			<g color="#ff0000" class="teamapps-color-2">
				<rect x="162.14" y="202.66" width="740.26" height="578.14" fill="currentColor"/>
			</g>
			<g color="#bc13e0" class="teamapps-color-3" mask="url(#mask-cd607nDp)">
				<rect x="162.14" y="202.66" width="740.26" height="578.14" fill="currentColor"/>
			</g>
		</g>
		<g filter="url(#filter-6cz16mEo)" mask="url(#mask-J1FISSMS)">
			<g color="#fff961" class="teamapps-color-1">
				<rect x="162.14" y="202.66" width="740.26" height="578.14" fill="currentColor"/>
			</g>
		</g>
	</g>
</svg>