<svg version="1.1" xmlns="http://www.w3.org/2000/svg" xmlns:xlink="http://www.w3.org/1999/xlink" viewBox="0,0,1024,1024">
	<!-- Color names: teamapps-color-1, teamapps-color-2, teamapps-color-3 -->
	<desc>view_compact icon - Licensed under Apache License v2.0 (http://www.apache.org/licenses/LICENSE-2.0) - Created with Iconfu.com - Derivative work of Material icons (Copyright Google Inc.)</desc>
	<defs>
		<linearGradient x1="0" y1="1024" x2="1024" y2="0" id="color-0LAyeKRx" gradientUnits="userSpaceOnUse">
			<stop offset="0.2" stop-color="#000000"/>
			<stop offset="0.8" stop-color="#ffffff"/>
		</linearGradient>
		<radialGradient cx="0" cy="0" r="1448.15" id="color-YcmO2zfQ" gradientUnits="userSpaceOnUse">
			<stop offset="0.08" stop-color="#ffffff"/>
			<stop offset="1" stop-color="#000000"/>
		</radialGradient>
		<filter id="filter-G1BwCdwS" color-interpolation-filters="sRGB">
			<feOffset/>
		</filter>
		<mask id="mask-8P0u8cfp">
			<path d="M942.94,228.26v243.2c0,8.25 -3.9,15.59 -9.96,20.27c6.06,4.68 9.96,12.02 9.96,20.27v283.74c0,14.14 -11.46,25.6 -25.6,25.6h-486.4c-8.25,0 -15.59,-3.9 -20.27,-9.96c-4.68,6.06 -12.02,9.96 -20.27,9.96h-243.2c-14.14,0 -25.6,-11.46 -25.6,-25.6v-283.74c0,-8.25 3.9,-15.59 9.96,-20.27c-6.06,-4.68 -9.96,-12.02 -9.96,-20.27v-243.2c0,-14.14 11.46,-25.6 25.6,-25.6h770.14c14.14,0 25.6,11.46 25.6,25.6zM147.2,228.26v243.2h770.14v-243.2zM430.94,795.74h486.4v-283.74h-486.4zM147.2,795.74h243.2v-283.74h-243.2z" fill="#ffffff"/>
		</mask>
		<mask id="mask-ozGFFw9q">
			<rect fill="url(#color-0LAyeKRx)" x="121.6" y="202.66" width="821.34" height="618.67"/>
		</mask>
		<mask id="mask-uakqWfpN">
			<path d="M942.94,228.26v243.2c0,8.25 -3.9,15.59 -9.96,20.27c6.06,4.68 9.96,12.02 9.96,20.27v283.74c0,14.14 -11.46,25.6 -25.6,25.6h-486.4c-8.25,0 -15.59,-3.9 -20.27,-9.96c-4.68,6.06 -12.02,9.96 -20.27,9.96h-243.2c-14.14,0 -25.6,-11.46 -25.6,-25.6v-283.74c0,-8.25 3.9,-15.59 9.96,-20.27c-6.06,-4.68 -9.96,-12.02 -9.96,-20.27v-243.2c0,-14.14 11.46,-25.6 25.6,-25.6h770.14c14.14,0 25.6,11.46 25.6,25.6zM147.2,228.26v243.2h770.14v-243.2zM430.94,795.74h486.4v-283.74h-486.4zM147.2,795.74h243.2v-283.74h-243.2z" fill="url(#color-YcmO2zfQ)"/>
		</mask>
	</defs>
	<g fill="none" fill-rule="nonzero" style="mix-blend-mode: normal">
		<g mask="url(#mask-8P0u8cfp)">
			<g color="#ff0000" class="teamapps-color-2">
				<rect x="121.6" y="202.66" width="821.34" height="618.67" fill="currentColor"/>
			</g>
			<g color="#bc13e0" class="teamapps-color-3" mask="url(#mask-ozGFFw9q)">
				<rect x="121.6" y="202.66" width="821.34" height="618.67" fill="currentColor"/>
			</g>
		</g>
		<g filter="url(#filter-G1BwCdwS)" mask="url(#mask-uakqWfpN)">
			<g color="#fff961" class="teamapps-color-1">
				<rect x="121.6" y="202.66" width="821.34" height="618.67" fill="currentColor"/>
			</g>
		</g>
	</g>
</svg>