<svg version="1.1" xmlns="http://www.w3.org/2000/svg" xmlns:xlink="http://www.w3.org/1999/xlink" viewBox="0,0,1024,1024">
	<!-- Color names: teamapps-color-1, teamapps-color-2, teamapps-color-3 -->
	<desc>volume_off icon - Licensed under Apache License v2.0 (http://www.apache.org/licenses/LICENSE-2.0) - Created with Iconfu.com - Derivative work of Material icons (Copyright Google Inc.)</desc>
	<defs>
		<linearGradient x1="0" y1="1024" x2="1024" y2="0" id="color-nSHiHbcO" gradientUnits="userSpaceOnUse">
			<stop offset="0.2" stop-color="#000000"/>
			<stop offset="0.8" stop-color="#ffffff"/>
		</linearGradient>
		<radialGradient cx="0" cy="0" r="1448.15" id="color-pt0VEkGl" gradientUnits="userSpaceOnUse">
			<stop offset="0.08" stop-color="#ffffff"/>
			<stop offset="1" stop-color="#000000"/>
		</radialGradient>
		<filter id="filter-zzeuFHMa" color-interpolation-filters="sRGB">
			<feOffset/>
		</filter>
		<mask id="mask-C24ASDdI">
			<path d="M894.9,843.42l-51.48,51.48c-10.01,10.01 -26.26,9.99 -36.25,-0.04l-66.84,-67.17c-41.66,30.08 -89.44,52.63 -141.66,64.36c-7.59,1.7 -15.54,-0.13 -21.61,-4.99c-6.07,-4.86 -9.6,-12.21 -9.6,-19.99v-83.5c0,-11.29 7.4,-21.25 18.21,-24.51c20.89,-6.3 40.52,-15.4 58.89,-26.81l-106.97,-106.97v210.98c0,10.35 -6.24,19.69 -15.8,23.65c-9.57,3.96 -20.58,1.77 -27.9,-5.55l-195.17,-195.17h-151.53c-14.14,0 -25.6,-11.46 -25.6,-25.6v-243.2c0,-14.14 11.46,-25.6 25.6,-25.6h129.92l-148.02,-148.02c-10,-10 -10,-26.21 0,-36.2l51.48,-51.48c10,-10 26.21,-10 36.2,0l678.12,678.12c10,10 10,26.21 0,36.2zM567.46,240.02v-83.5c0,-7.79 3.54,-15.15 9.63,-20.01c6.08,-4.86 14.05,-6.68 21.64,-4.96c173.92,39.47 303.67,194.73 303.67,380.45c0,65.07 -16.07,126.34 -44.75,180.24c-3.81,7.16 -10.8,12.09 -18.82,13.29c-8.03,1.2 -16.14,-1.48 -21.88,-7.22l-61.2,-61.21c-7.32,-7.32 -9.51,-18.34 -5.54,-27.91c12.64,-30.48 19.94,-62.82 19.94,-97.2c0,-116.85 -77.79,-215.72 -184.37,-247.44c-10.86,-3.23 -18.3,-13.21 -18.3,-24.54zM674.28,555.64l-99.31,-99.3c-4.8,-4.8 -7.5,-11.31 -7.5,-18.1v-89.59c0,-8.87 4.59,-17.11 12.14,-21.78c7.55,-4.66 16.97,-5.09 24.91,-1.12c68.24,34.12 115.49,104.35 115.49,186.25c0,10.47 -0.95,20.28 -2.31,29.33c-1.43,9.56 -8.13,17.49 -17.31,20.52c-9.18,3.02 -19.28,0.62 -26.11,-6.21zM493.9,375.26l-84.71,-84.71c-10,-10 -10,-26.21 0,-36.2l84.71,-84.71c7.32,-7.32 18.33,-9.51 27.9,-5.55c9.57,3.96 15.8,13.3 15.8,23.65v169.42c0,10.35 -6.24,19.69 -15.8,23.65c-9.57,3.96 -20.58,1.77 -27.9,-5.55zM198.68,147.2l-51.48,51.48l191.72,191.72h-191.72v243.2h162.14l202.66,202.66v-272.78l172.26,172.26c-27.16,21.08 -57.56,37.7 -91.2,47.83v83.5c55.94,-12.57 106.6,-38.51 149.57,-73.37l82.69,83.1l51.48,-51.48zM795.74,512c0,38.1 -8.1,73.77 -21.89,107.01l61.2,61.21c26.75,-50.26 41.75,-107.42 41.75,-168.22c0,-173.48 -121.2,-318.59 -283.74,-355.48v83.51c117.14,34.86 202.67,143.49 202.67,271.98zM694.4,512c0,-71.74 -41.34,-133.36 -101.34,-163.35v89.59l99.31,99.3c1.22,-8.1 2.02,-16.62 2.02,-25.54zM512,187.74l-84.71,84.71l84.71,84.71z" fill="url(#color-pt0VEkGl)"/>
		</mask>
		<mask id="mask-SGaku2HS">
			<rect fill="url(#color-nSHiHbcO)" x="121.6" y="121.6" width="780.8" height="780.8"/>
		</mask>
		<mask id="mask-XfeSr8Gh">
			<path d="M894.9,843.42l-51.48,51.48c-10.01,10.01 -26.26,9.99 -36.25,-0.04l-66.84,-67.17c-41.66,30.08 -89.44,52.63 -141.66,64.36c-7.59,1.7 -15.54,-0.13 -21.61,-4.99c-6.07,-4.86 -9.6,-12.21 -9.6,-19.99v-83.5c0,-11.29 7.4,-21.25 18.21,-24.51c20.89,-6.3 40.52,-15.4 58.89,-26.81l-106.97,-106.97v210.98c0,10.35 -6.24,19.69 -15.8,23.65c-9.57,3.96 -20.58,1.77 -27.9,-5.55l-195.17,-195.17h-151.53c-14.14,0 -25.6,-11.46 -25.6,-25.6v-243.2c0,-14.14 11.46,-25.6 25.6,-25.6h129.92l-148.02,-148.02c-10,-10 -10,-26.21 0,-36.2l51.48,-51.48c10,-10 26.21,-10 36.2,0l678.12,678.12c10,10 10,26.21 0,36.2zM567.46,240.02v-83.5c0,-7.79 3.54,-15.15 9.63,-20.01c6.08,-4.86 14.05,-6.68 21.64,-4.96c173.92,39.47 303.67,194.73 303.67,380.45c0,65.07 -16.07,126.34 -44.75,180.24c-3.81,7.16 -10.8,12.09 -18.82,13.29c-8.03,1.2 -16.14,-1.48 -21.88,-7.22l-61.2,-61.21c-7.32,-7.32 -9.51,-18.34 -5.54,-27.91c12.64,-30.48 19.94,-62.82 19.94,-97.2c0,-116.85 -77.79,-215.72 -184.37,-247.44c-10.86,-3.23 -18.3,-13.21 -18.3,-24.54zM674.28,555.64l-99.31,-99.3c-4.8,-4.8 -7.5,-11.31 -7.5,-18.1v-89.59c0,-8.87 4.59,-17.11 12.14,-21.78c7.55,-4.66 16.97,-5.09 24.91,-1.12c68.24,34.12 115.49,104.35 115.49,186.25c0,10.47 -0.95,20.28 -2.31,29.33c-1.43,9.56 -8.13,17.49 -17.31,20.52c-9.18,3.02 -19.28,0.62 -26.11,-6.21zM493.9,375.26l-84.71,-84.71c-10,-10 -10,-26.21 0,-36.2l84.71,-84.71c7.32,-7.32 18.33,-9.51 27.9,-5.55c9.57,3.96 15.8,13.3 15.8,23.65v169.42c0,10.35 -6.24,19.69 -15.8,23.65c-9.57,3.96 -20.58,1.77 -27.9,-5.55zM198.68,147.2l-51.48,51.48l191.72,191.72h-191.72v243.2h162.14l202.66,202.66v-272.78l172.26,172.26c-27.16,21.08 -57.56,37.7 -91.2,47.83v83.5c55.94,-12.57 106.6,-38.51 149.57,-73.37l82.69,83.1l51.48,-51.48zM795.74,512c0,38.1 -8.1,73.77 -21.89,107.01l61.2,61.21c26.75,-50.26 41.75,-107.42 41.75,-168.22c0,-173.48 -121.2,-318.59 -283.74,-355.48v83.51c117.14,34.86 202.67,143.49 202.67,271.98zM694.4,512c0,-71.74 -41.34,-133.36 -101.34,-163.35v89.59l99.31,99.3c1.22,-8.1 2.02,-16.62 2.02,-25.54zM512,187.74l-84.71,84.71l84.71,84.71z" fill="#ffffff"/>
		</mask>
	</defs>
	<g fill="none" fill-rule="nonzero" style="mix-blend-mode: normal">
		<g mask="url(#mask-XfeSr8Gh)">
			<g color="#ff0000" class="teamapps-color-2">
				<rect x="121.6" y="121.6" width="780.8" height="780.8" fill="currentColor"/>
			</g>
			<g color="#bc13e0" class="teamapps-color-3" mask="url(#mask-SGaku2HS)">
				<rect x="121.6" y="121.6" width="780.8" height="780.8" fill="currentColor"/>
			</g>
		</g>
		<g filter="url(#filter-zzeuFHMa)" mask="url(#mask-C24ASDdI)">
			<g color="#fff961" class="teamapps-color-1">
				<rect x="121.6" y="121.6" width="780.8" height="780.8" fill="currentColor"/>
			</g>
		</g>
	</g>
</svg>