<svg version="1.1" xmlns="http://www.w3.org/2000/svg" xmlns:xlink="http://www.w3.org/1999/xlink" viewBox="0,0,1024,1024">
	<!-- Color names: teamapps-color-1, teamapps-color-2, teamapps-color-3 -->
	<desc>vpn_lock icon - Licensed under Apache License v2.0 (http://www.apache.org/licenses/LICENSE-2.0) - Created with Iconfu.com - Derivative work of Material icons (Copyright Google Inc.)</desc>
	<defs>
		<radialGradient cx="0" cy="0" r="1448.15" id="color-6MXBM6d5" gradientUnits="userSpaceOnUse">
			<stop offset="0.08" stop-color="#ffffff"/>
			<stop offset="1" stop-color="#000000"/>
		</radialGradient>
		<linearGradient x1="0" y1="1024" x2="1024" y2="0" id="color-WcswqzqA" gradientUnits="userSpaceOnUse">
			<stop offset="0.2" stop-color="#000000"/>
			<stop offset="0.8" stop-color="#ffffff"/>
		</linearGradient>
		<filter id="filter-c20YPMlC" color-interpolation-filters="sRGB">
			<feOffset/>
		</filter>
		<mask id="mask-2JNW92Gs">
			<path d="M900.27,509.68c1.26,13.88 2.13,28.07 2.13,42.85c0,237.88 -193.05,430.93 -430.94,430.93c-237.88,0 -430.93,-193.04 -430.93,-430.93c0,-237.88 193.04,-430.94 430.93,-430.94c45.21,0 88.34,6.9 129.31,19.84c10.65,3.36 17.89,13.24 17.89,24.41v102.95c0,58.72 -47.94,106.66 -106.66,106.66h-55.46v55.47c0,36.44 -29.71,66.13 -66.14,66.13h-55.46v29.87h217.6c36.43,0 66.13,29.69 66.13,66.13v96h14.94c32.57,0 61.26,14.31 80.65,36.94c35.12,-48.87 55.89,-108.69 55.89,-173.47c0,-11.99 -1.41,-23.84 -3.06,-37.45c-0.88,-7.27 1.39,-14.58 6.25,-20.06c4.86,-5.48 11.83,-8.62 19.16,-8.62h82.29c13.24,0 24.3,10.1 25.49,23.28zM983.46,228.26v162.14c0,36.43 -29.68,66.14 -66.13,66.14h-202.67c-36.44,0 -66.13,-29.71 -66.13,-66.14v-162.14c0,-27.39 16.76,-50.93 40.53,-60.96c0.08,-70.01 56.92,-126.77 126.94,-126.77c70.02,0 126.85,56.76 126.94,126.77c23.77,10.03 40.53,33.57 40.53,60.96zM405.34,818.22c-46.44,-11.53 -81.07,-53.63 -81.07,-103.55v-29.92l-150.82,-150.83c-0.42,6.15 -0.64,12.36 -0.64,18.62c0,142.23 99.3,261.04 232.54,291.01zM816,124.16c-22.16,0 -40.37,16.54 -42.98,37.98h85.96c-2.61,-21.44 -20.82,-37.98 -42.98,-37.98zM792.49,512c1.62,13.38 3.25,26.75 3.25,40.54c0,84.31 -32.42,160.91 -85.12,218.47c-10.54,-32.83 -40.54,-56.34 -77.02,-56.34h-40.54v-121.6c0,-22.3 -18.23,-40.53 -40.53,-40.53h-243.2v-81.07h81.06c22.3,0 40.54,-18.23 40.54,-40.53v-81.07h81.06c44.58,0 81.06,-36.48 81.06,-81.06v-102.95c-38.5,-12.16 -79.04,-18.65 -121.6,-18.65c-223.74,0 -405.33,181.59 -405.33,405.34c0,223.74 181.58,405.33 405.33,405.33c223.74,0 405.34,-181.58 405.34,-405.33c0,-13.78 -0.81,-27.16 -2.02,-40.54zM430.94,873.96c-160.1,-19.86 -283.74,-156.05 -283.74,-321.42c0,-25.13 3.24,-49.05 8.51,-72.56l194.15,194.16v40.53c0,44.58 36.49,81.07 81.07,81.07zM917.34,187.74v-20.27c0,-55.94 -45.4,-101.33 -101.34,-101.33c-55.94,0 -101.34,45.39 -101.34,101.33v20.27c-22.3,0 -40.53,18.23 -40.53,40.53v162.14c0,22.3 18.23,40.54 40.53,40.54h202.67c22.3,0 40.53,-18.24 40.53,-40.54v-162.14c0,-22.3 -18.23,-40.53 -40.53,-40.53zM884.9,187.74h-137.81v-20.27c0,-38.1 30.8,-68.9 68.9,-68.9c38.1,0 68.9,30.8 68.9,68.9z" fill="url(#color-6MXBM6d5)"/>
		</mask>
		<mask id="mask-mkMFC2HU">
			<rect fill="url(#color-WcswqzqA)" x="40.54" y="40.54" width="942.93" height="942.93"/>
		</mask>
		<mask id="mask-NDpxdIzK">
			<path d="M900.27,509.68c1.26,13.88 2.13,28.07 2.13,42.85c0,237.88 -193.05,430.93 -430.94,430.93c-237.88,0 -430.93,-193.04 -430.93,-430.93c0,-237.88 193.04,-430.94 430.93,-430.94c45.21,0 88.34,6.9 129.31,19.84c10.65,3.36 17.89,13.24 17.89,24.41v102.95c0,58.72 -47.94,106.66 -106.66,106.66h-55.46v55.47c0,36.44 -29.71,66.13 -66.14,66.13h-55.46v29.87h217.6c36.43,0 66.13,29.69 66.13,66.13v96h14.94c32.57,0 61.26,14.31 80.65,36.94c35.12,-48.87 55.89,-108.69 55.89,-173.47c0,-11.99 -1.41,-23.84 -3.06,-37.45c-0.88,-7.27 1.39,-14.58 6.25,-20.06c4.86,-5.48 11.83,-8.62 19.16,-8.62h82.29c13.24,0 24.3,10.1 25.49,23.28zM983.46,228.26v162.14c0,36.43 -29.68,66.14 -66.13,66.14h-202.67c-36.44,0 -66.13,-29.71 -66.13,-66.14v-162.14c0,-27.39 16.76,-50.93 40.53,-60.96c0.08,-70.01 56.92,-126.77 126.94,-126.77c70.02,0 126.85,56.76 126.94,126.77c23.77,10.03 40.53,33.57 40.53,60.96zM405.34,818.22c-46.44,-11.53 -81.07,-53.63 -81.07,-103.55v-29.92l-150.82,-150.83c-0.42,6.15 -0.64,12.36 -0.64,18.62c0,142.23 99.3,261.04 232.54,291.01zM816,124.16c-22.16,0 -40.37,16.54 -42.98,37.98h85.96c-2.61,-21.44 -20.82,-37.98 -42.98,-37.98zM792.49,512c1.62,13.38 3.25,26.75 3.25,40.54c0,84.31 -32.42,160.91 -85.12,218.47c-10.54,-32.83 -40.54,-56.34 -77.02,-56.34h-40.54v-121.6c0,-22.3 -18.23,-40.53 -40.53,-40.53h-243.2v-81.07h81.06c22.3,0 40.54,-18.23 40.54,-40.53v-81.07h81.06c44.58,0 81.06,-36.48 81.06,-81.06v-102.95c-38.5,-12.16 -79.04,-18.65 -121.6,-18.65c-223.74,0 -405.33,181.59 -405.33,405.34c0,223.74 181.58,405.33 405.33,405.33c223.74,0 405.34,-181.58 405.34,-405.33c0,-13.78 -0.81,-27.16 -2.02,-40.54zM430.94,873.96c-160.1,-19.86 -283.74,-156.05 -283.74,-321.42c0,-25.13 3.24,-49.05 8.51,-72.56l194.15,194.16v40.53c0,44.58 36.49,81.07 81.07,81.07zM917.34,187.74v-20.27c0,-55.94 -45.4,-101.33 -101.34,-101.33c-55.94,0 -101.34,45.39 -101.34,101.33v20.27c-22.3,0 -40.53,18.23 -40.53,40.53v162.14c0,22.3 18.23,40.54 40.53,40.54h202.67c22.3,0 40.53,-18.24 40.53,-40.54v-162.14c0,-22.3 -18.23,-40.53 -40.53,-40.53zM884.9,187.74h-137.81v-20.27c0,-38.1 30.8,-68.9 68.9,-68.9c38.1,0 68.9,30.8 68.9,68.9z" fill="#ffffff"/>
		</mask>
	</defs>
	<g fill="none" fill-rule="nonzero" style="mix-blend-mode: normal">
		<g mask="url(#mask-NDpxdIzK)">
			<g color="#ff0000" class="teamapps-color-2">
				<rect x="40.54" y="40.54" width="942.93" height="942.93" fill="currentColor"/>
			</g>
			<g color="#bc13e0" class="teamapps-color-3" mask="url(#mask-mkMFC2HU)">
				<rect x="40.54" y="40.54" width="942.93" height="942.93" fill="currentColor"/>
			</g>
		</g>
		<g filter="url(#filter-c20YPMlC)" mask="url(#mask-2JNW92Gs)">
			<g color="#fff961" class="teamapps-color-1">
				<rect x="40.54" y="40.54" width="942.93" height="942.93" fill="currentColor"/>
			</g>
		</g>
	</g>
</svg>