<svg version="1.1" xmlns="http://www.w3.org/2000/svg" xmlns:xlink="http://www.w3.org/1999/xlink" viewBox="0,0,1024,1024">
	<!-- Color names: teamapps-color-1, teamapps-color-2, teamapps-color-3 -->
	<desc>wb_auto icon - Licensed under Apache License v2.0 (http://www.apache.org/licenses/LICENSE-2.0) - Created with Iconfu.com - Derivative work of Material icons (Copyright Google Inc.)</desc>
	<defs>
		<linearGradient x1="0" y1="1024" x2="1024" y2="0" id="color-6jZ7ON7G" gradientUnits="userSpaceOnUse">
			<stop offset="0.2" stop-color="#000000"/>
			<stop offset="0.8" stop-color="#ffffff"/>
		</linearGradient>
		<radialGradient cx="0" cy="0" r="1448.15" id="color-FOhk8j1T" gradientUnits="userSpaceOnUse">
			<stop offset="0.08" stop-color="#ffffff"/>
			<stop offset="1" stop-color="#000000"/>
		</radialGradient>
		<filter id="filter-7ZeOLKei" color-interpolation-filters="sRGB">
			<feOffset/>
		</filter>
		<mask id="mask-28FBdaDC">
			<path d="M1015.26,315.02l-83.1,364.8c-2.65,11.65 -13.01,19.91 -24.96,19.91h-70.94c-11.78,0 -22.05,-8.04 -24.86,-19.49l-35.94,-146.16l-35.94,146.16c-2.81,11.44 -13.08,19.49 -24.86,19.49h-69.99c-61.97,97.21 -170.81,162.13 -294.81,162.13c-193.3,0 -349.86,-156.56 -349.86,-349.86c0,-193.3 156.56,-349.86 349.86,-349.86c106.2,0 200.73,47.17 264.92,121.6h18.82c12.27,0 22.82,8.71 25.14,20.76l26.5,137.77l32.89,-138.83c2.73,-11.55 13.05,-19.7 24.91,-19.7h64.86c11.85,0 22.15,8.13 24.9,19.66l33.12,138.87l26.28,-137.73c2.3,-12.07 12.86,-20.8 25.15,-20.8h72.96c7.79,0 15.15,3.55 20.01,9.63c4.86,6.09 6.68,14.06 4.95,21.65zM327.4,334.94l-111.51,313.6h22.58l22.38,-63.93c3.59,-10.27 13.28,-17.14 24.16,-17.14h129.7c10.88,0 20.57,6.88 24.16,17.14l22.38,63.93h22.57l-111.5,-313.6zM374.28,382.71l46.62,147.94c2.45,7.78 1.05,16.26 -3.77,22.83c-4.82,6.58 -12.49,10.46 -20.64,10.46h-93.22c-8.15,0 -15.82,-3.88 -20.64,-10.46c-4.82,-6.58 -6.22,-15.05 -3.77,-22.83l46.61,-147.94c3.36,-10.66 13.24,-17.91 24.42,-17.91c11.17,0 21.06,7.25 24.42,17.91zM917.34,309.34l-48.64,254.95l-60.8,-254.95h-64.86l-60.39,254.95l-49.05,-254.95h-30.81c-59.58,-74.18 -150.38,-121.6 -252.93,-121.6c-179.16,0 -324.26,145.1 -324.26,324.26c0,179.16 145.1,324.26 324.26,324.26c126.87,0 236.72,-73.36 289.82,-179.56l4.06,17.43h70.93l60.8,-247.26l60.8,247.26h70.94l83.1,-364.8zM443.1,674.14l-28.38,-81.07h-129.7l-28.38,81.07h-77.02l129.71,-364.8h81.06l129.7,364.8zM303.26,538.34h93.22l-46.62,-147.94z" fill="url(#color-FOhk8j1T)"/>
		</mask>
		<mask id="mask-nAOilCu1">
			<path d="M1015.26,315.02l-83.1,364.8c-2.65,11.65 -13.01,19.91 -24.96,19.91h-70.94c-11.78,0 -22.05,-8.04 -24.86,-19.49l-35.94,-146.16l-35.94,146.16c-2.81,11.44 -13.08,19.49 -24.86,19.49h-69.99c-61.97,97.21 -170.81,162.13 -294.81,162.13c-193.3,0 -349.86,-156.56 -349.86,-349.86c0,-193.3 156.56,-349.86 349.86,-349.86c106.2,0 200.73,47.17 264.92,121.6h18.82c12.27,0 22.82,8.71 25.14,20.76l26.5,137.77l32.89,-138.83c2.73,-11.55 13.05,-19.7 24.91,-19.7h64.86c11.85,0 22.15,8.13 24.9,19.66l33.12,138.87l26.28,-137.73c2.3,-12.07 12.86,-20.8 25.15,-20.8h72.96c7.79,0 15.15,3.55 20.01,9.63c4.86,6.09 6.68,14.06 4.95,21.65zM327.4,334.94l-111.51,313.6h22.58l22.38,-63.93c3.59,-10.27 13.28,-17.14 24.16,-17.14h129.7c10.88,0 20.57,6.88 24.16,17.14l22.38,63.93h22.57l-111.5,-313.6zM374.28,382.71l46.62,147.94c2.45,7.78 1.05,16.26 -3.77,22.83c-4.82,6.58 -12.49,10.46 -20.64,10.46h-93.22c-8.15,0 -15.82,-3.88 -20.64,-10.46c-4.82,-6.58 -6.22,-15.05 -3.77,-22.83l46.61,-147.94c3.36,-10.66 13.24,-17.91 24.42,-17.91c11.17,0 21.06,7.25 24.42,17.91zM917.34,309.34l-48.64,254.95l-60.8,-254.95h-64.86l-60.39,254.95l-49.05,-254.95h-30.81c-59.58,-74.18 -150.38,-121.6 -252.93,-121.6c-179.16,0 -324.26,145.1 -324.26,324.26c0,179.16 145.1,324.26 324.26,324.26c126.87,0 236.72,-73.36 289.82,-179.56l4.06,17.43h70.93l60.8,-247.26l60.8,247.26h70.94l83.1,-364.8zM443.1,674.14l-28.38,-81.07h-129.7l-28.38,81.07h-77.02l129.71,-364.8h81.06l129.7,364.8zM303.26,538.34h93.22l-46.62,-147.94z" fill="#ffffff"/>
		</mask>
		<mask id="mask-V4e8XzuY">
			<rect fill="url(#color-6jZ7ON7G)" x="0" y="162.14" width="1015.9" height="699.73"/>
		</mask>
	</defs>
	<g fill="none" fill-rule="nonzero" style="mix-blend-mode: normal">
		<g mask="url(#mask-nAOilCu1)">
			<g color="#ff0000" class="teamapps-color-2">
				<rect x="0" y="162.14" width="1015.9" height="699.73" fill="currentColor"/>
			</g>
			<g color="#bc13e0" class="teamapps-color-3" mask="url(#mask-V4e8XzuY)">
				<rect x="0" y="162.14" width="1015.9" height="699.73" fill="currentColor"/>
			</g>
		</g>
		<g filter="url(#filter-7ZeOLKei)" mask="url(#mask-28FBdaDC)">
			<g color="#fff961" class="teamapps-color-1">
				<rect x="0" y="162.14" width="1015.9" height="699.73" fill="currentColor"/>
			</g>
		</g>
	</g>
</svg>