<svg version="1.1" xmlns="http://www.w3.org/2000/svg" xmlns:xlink="http://www.w3.org/1999/xlink" viewBox="0,0,1024,1024">
	<!-- Color names: teamapps-color-1, teamapps-color-2, teamapps-color-3 -->
	<desc>wb_incandescent icon - Licensed under Apache License v2.0 (http://www.apache.org/licenses/LICENSE-2.0) - Created with Iconfu.com - Derivative work of Material icons (Copyright Google Inc.)</desc>
	<defs>
		<linearGradient x1="0" y1="1024" x2="1024" y2="0" id="color-HcONNTmJ" gradientUnits="userSpaceOnUse">
			<stop offset="0.2" stop-color="#000000"/>
			<stop offset="0.8" stop-color="#ffffff"/>
		</linearGradient>
		<radialGradient cx="0" cy="0" r="1448.15" id="color-n8La1ycJ" gradientUnits="userSpaceOnUse">
			<stop offset="0.08" stop-color="#ffffff"/>
			<stop offset="1" stop-color="#000000"/>
		</radialGradient>
		<filter id="filter-JTiwqqLT" color-interpolation-filters="sRGB">
			<feOffset/>
		</filter>
		<mask id="mask-l7FkKu3K">
			<path d="M780.8,491.74c0,148.31 -120.49,268.8 -268.8,268.8c-148.31,0 -268.8,-120.49 -268.8,-268.8c0,-94.19 48.6,-176.63 121.6,-224.62v-180.71c0,-14.14 11.46,-25.6 25.6,-25.6h243.2c14.14,0 25.6,11.46 25.6,25.6v180.71c73,47.99 121.6,130.44 121.6,224.62zM260.15,686.03l57.15,57.15c9.98,9.98 10,26.15 0.05,36.15l-72.55,72.96c-9.99,10.05 -26.24,10.07 -36.25,0.05l-57.15,-57.15c-9.98,-9.98 -10,-26.15 -0.05,-36.15l72.55,-72.96c9.99,-10.05 26.24,-10.07 36.25,-0.05zM799.2,686.78l72.96,72.56c10.04,9.99 10.07,26.24 0.05,36.25l-57.15,57.15c-10.02,10.02 -26.26,9.99 -36.25,-0.05l-72.56,-72.96c-9.95,-10.01 -9.93,-26.18 0.05,-36.15l56.75,-56.75c9.98,-9.98 26.15,-10 36.15,-0.05zM983.46,451.2v81.06c0,14.14 -11.46,25.6 -25.6,25.6h-121.6c-14.14,0 -25.6,-11.46 -25.6,-25.6v-81.06c0,-14.14 11.46,-25.6 25.6,-25.6h121.6c14.14,0 25.6,11.46 25.6,25.6zM187.74,557.86h-121.6c-14.14,0 -25.6,-11.46 -25.6,-25.6v-81.06c0,-14.14 11.46,-25.6 25.6,-25.6h121.6c14.14,0 25.6,11.46 25.6,25.6v81.06c0,14.14 -11.46,25.6 -25.6,25.6zM471.46,790.4h81.07c14.14,0 25.6,11.46 25.6,25.6v119.58c0,14.14 -11.46,25.6 -25.6,25.6h-81.07c-14.14,0 -25.6,-11.46 -25.6,-25.6v-119.58c0,-14.14 11.46,-25.6 25.6,-25.6zM633.6,281.37v-194.97h-243.2v194.97c-72.55,42.15 -121.6,120.38 -121.6,210.37c0,134.17 109.03,243.2 243.2,243.2c134.17,0 243.2,-109.03 243.2,-243.2c0,-89.98 -49.05,-168.22 -121.6,-210.37zM169.5,777.09l57.15,57.15l72.55,-72.96l-57.15,-57.15zM724.39,761.69l72.56,72.96l57.15,-57.15l-72.96,-72.56zM187.74,451.2h-121.6v81.06h121.6zM836.26,451.2v81.06h121.6v-81.06zM471.46,935.58h81.07v-119.58h-81.07z" fill="url(#color-n8La1ycJ)"/>
		</mask>
		<mask id="mask-xhmP6Q0y">
			<path d="M780.8,491.74c0,148.31 -120.49,268.8 -268.8,268.8c-148.31,0 -268.8,-120.49 -268.8,-268.8c0,-94.19 48.6,-176.63 121.6,-224.62v-180.71c0,-14.14 11.46,-25.6 25.6,-25.6h243.2c14.14,0 25.6,11.46 25.6,25.6v180.71c73,47.99 121.6,130.44 121.6,224.62zM260.15,686.03l57.15,57.15c9.98,9.98 10,26.15 0.05,36.15l-72.55,72.96c-9.99,10.05 -26.24,10.07 -36.25,0.05l-57.15,-57.15c-9.98,-9.98 -10,-26.15 -0.05,-36.15l72.55,-72.96c9.99,-10.05 26.24,-10.07 36.25,-0.05zM799.2,686.78l72.96,72.56c10.04,9.99 10.07,26.24 0.05,36.25l-57.15,57.15c-10.02,10.02 -26.26,9.99 -36.25,-0.05l-72.56,-72.96c-9.95,-10.01 -9.93,-26.18 0.05,-36.15l56.75,-56.75c9.98,-9.98 26.15,-10 36.15,-0.05zM983.46,451.2v81.06c0,14.14 -11.46,25.6 -25.6,25.6h-121.6c-14.14,0 -25.6,-11.46 -25.6,-25.6v-81.06c0,-14.14 11.46,-25.6 25.6,-25.6h121.6c14.14,0 25.6,11.46 25.6,25.6zM187.74,557.86h-121.6c-14.14,0 -25.6,-11.46 -25.6,-25.6v-81.06c0,-14.14 11.46,-25.6 25.6,-25.6h121.6c14.14,0 25.6,11.46 25.6,25.6v81.06c0,14.14 -11.46,25.6 -25.6,25.6zM471.46,790.4h81.07c14.14,0 25.6,11.46 25.6,25.6v119.58c0,14.14 -11.46,25.6 -25.6,25.6h-81.07c-14.14,0 -25.6,-11.46 -25.6,-25.6v-119.58c0,-14.14 11.46,-25.6 25.6,-25.6zM633.6,281.37v-194.97h-243.2v194.97c-72.55,42.15 -121.6,120.38 -121.6,210.37c0,134.17 109.03,243.2 243.2,243.2c134.17,0 243.2,-109.03 243.2,-243.2c0,-89.98 -49.05,-168.22 -121.6,-210.37zM169.5,777.09l57.15,57.15l72.55,-72.96l-57.15,-57.15zM724.39,761.69l72.56,72.96l57.15,-57.15l-72.96,-72.56zM187.74,451.2h-121.6v81.06h121.6zM836.26,451.2v81.06h121.6v-81.06zM471.46,935.58h81.07v-119.58h-81.07z" fill="#ffffff"/>
		</mask>
		<mask id="mask-ZzdewbvG">
			<rect fill="url(#color-HcONNTmJ)" x="40.54" y="60.8" width="942.93" height="900.38"/>
		</mask>
	</defs>
	<g fill="none" fill-rule="nonzero" style="mix-blend-mode: normal">
		<g mask="url(#mask-xhmP6Q0y)">
			<g color="#ff0000" class="teamapps-color-2">
				<rect x="40.54" y="60.8" width="942.93" height="900.38" fill="currentColor"/>
			</g>
			<g color="#bc13e0" class="teamapps-color-3" mask="url(#mask-ZzdewbvG)">
				<rect x="40.54" y="60.8" width="942.93" height="900.38" fill="currentColor"/>
			</g>
		</g>
		<g filter="url(#filter-JTiwqqLT)" mask="url(#mask-l7FkKu3K)">
			<g color="#fff961" class="teamapps-color-1">
				<rect x="40.54" y="60.8" width="942.93" height="900.38" fill="currentColor"/>
			</g>
		</g>
	</g>
</svg>