<svg version="1.1" xmlns="http://www.w3.org/2000/svg" xmlns:xlink="http://www.w3.org/1999/xlink" viewBox="0,0,1024,1024">
	<!-- Color names: teamapps-color-1, teamapps-color-2, teamapps-color-3 -->
	<desc>web_asset icon - Licensed under Apache License v2.0 (http://www.apache.org/licenses/LICENSE-2.0) - Created with Iconfu.com - Derivative work of Material icons (Copyright Google Inc.)</desc>
	<defs>
		<radialGradient cx="0" cy="0" r="1448.15" id="color-03mifnDM" gradientUnits="userSpaceOnUse">
			<stop offset="0.08" stop-color="#ffffff"/>
			<stop offset="1" stop-color="#000000"/>
		</radialGradient>
		<linearGradient x1="0" y1="1024" x2="1024" y2="0" id="color-w0lBH8lP" gradientUnits="userSpaceOnUse">
			<stop offset="0.2" stop-color="#000000"/>
			<stop offset="0.8" stop-color="#ffffff"/>
		</linearGradient>
		<filter id="filter-DcNKMhtk" color-interpolation-filters="sRGB">
			<feOffset/>
		</filter>
		<mask id="mask-7ia4aZj4">
			<rect fill="url(#color-w0lBH8lP)" x="121.6" y="162.14" width="780.8" height="699.73"/>
		</mask>
		<mask id="mask-CFQ7fx1m">
			<path d="M902.4,268.8v486.4c0,58.72 -47.94,106.66 -106.66,106.66h-567.47c-59.22,0 -106.66,-48.03 -106.66,-106.66v-486.4c0,-58.64 47.45,-106.66 106.66,-106.66h567.47c59.22,0 106.66,48.03 106.66,106.66zM253.86,375.46v354.14h516.27v-354.14zM795.74,187.74h-567.47c-44.99,0 -81.06,36.48 -81.06,81.06v486.4c0,44.58 36.07,81.06 81.06,81.06h567.47c44.58,0 81.06,-36.48 81.06,-81.06v-486.4c0,-44.58 -36.07,-81.06 -81.06,-81.06zM795.74,755.2h-567.47v-405.34h567.47z" fill="url(#color-03mifnDM)"/>
		</mask>
		<mask id="mask-pzngYg4q">
			<path d="M902.4,268.8v486.4c0,58.72 -47.94,106.66 -106.66,106.66h-567.47c-59.22,0 -106.66,-48.03 -106.66,-106.66v-486.4c0,-58.64 47.45,-106.66 106.66,-106.66h567.47c59.22,0 106.66,48.03 106.66,106.66zM253.86,375.46v354.14h516.27v-354.14zM795.74,187.74h-567.47c-44.99,0 -81.06,36.48 -81.06,81.06v486.4c0,44.58 36.07,81.06 81.06,81.06h567.47c44.58,0 81.06,-36.48 81.06,-81.06v-486.4c0,-44.58 -36.07,-81.06 -81.06,-81.06zM795.74,755.2h-567.47v-405.34h567.47z" fill="#ffffff"/>
		</mask>
	</defs>
	<g fill="none" fill-rule="nonzero" style="mix-blend-mode: normal">
		<g mask="url(#mask-pzngYg4q)">
			<g color="#ff0000" class="teamapps-color-2">
				<rect x="121.6" y="162.14" width="780.8" height="699.73" fill="currentColor"/>
			</g>
			<g color="#bc13e0" class="teamapps-color-3" mask="url(#mask-7ia4aZj4)">
				<rect x="121.6" y="162.14" width="780.8" height="699.73" fill="currentColor"/>
			</g>
		</g>
		<g filter="url(#filter-DcNKMhtk)" mask="url(#mask-CFQ7fx1m)">
			<g color="#fff961" class="teamapps-color-1">
				<rect x="121.6" y="162.14" width="780.8" height="699.73" fill="currentColor"/>
			</g>
		</g>
	</g>
</svg>