<svg version="1.1" xmlns="http://www.w3.org/2000/svg" xmlns:xlink="http://www.w3.org/1999/xlink" viewBox="0,0,1024,1024">
	<!-- Color names: teamapps-color-1, teamapps-color-2, teamapps-color-3 -->
	<desc>wifi_tethering icon - Licensed under Apache License v2.0 (http://www.apache.org/licenses/LICENSE-2.0) - Created with Iconfu.com - Derivative work of Material icons (Copyright Google Inc.)</desc>
	<defs>
		<linearGradient x1="0" y1="1024" x2="1024" y2="0" id="color-s0K1rWLV" gradientUnits="userSpaceOnUse">
			<stop offset="0.2" stop-color="#000000"/>
			<stop offset="0.8" stop-color="#ffffff"/>
		</linearGradient>
		<radialGradient cx="0" cy="0" r="1448.15" id="color-yJ1lpXRe" gradientUnits="userSpaceOnUse">
			<stop offset="0.08" stop-color="#ffffff"/>
			<stop offset="1" stop-color="#000000"/>
		</radialGradient>
		<filter id="filter-NtdRRjBC" color-interpolation-filters="sRGB">
			<feOffset/>
		</filter>
		<mask id="mask-1sW6RUYx">
			<path d="M942.94,552.54c0,159.52 -86.71,298.28 -215.45,372.77c-12.24,7.08 -27.91,2.9 -34.98,-9.35l-40.53,-70.12c-7.06,-12.22 -2.9,-27.84 9.29,-34.94c89.4,-52 149.4,-147.96 149.4,-258.36c0,-165.02 -133.64,-298.67 -298.66,-298.67c-165.02,0 -298.66,133.65 -298.66,298.67c0,110.41 60.01,206.39 149.04,258.38c12.17,7.11 16.31,22.72 9.25,34.92l-40.54,70.12c-7.09,12.26 -22.77,16.43 -35.02,9.33c-128.32,-74.49 -215.01,-213.24 -215.01,-372.75c0,-237.88 193.05,-430.94 430.94,-430.94c237.88,0 430.94,193.05 430.94,430.94zM611.4,775.66l-40.54,-70.53c-6.99,-12.17 -2.88,-27.7 9.21,-34.82c41.02,-24.13 68.45,-67.53 68.45,-117.78c0,-75.44 -61.1,-136.54 -136.54,-136.54c-75.44,0 -136.54,61.1 -136.54,136.54c0,50.24 27.44,93.64 68.45,117.78c12.1,7.12 16.21,22.65 9.21,34.82l-40.54,70.53c-7.07,12.3 -22.79,16.5 -35.06,9.38c-80.03,-46.5 -134.34,-132.94 -134.34,-232.5c0,-148.31 120.49,-268.8 268.8,-268.8c148.31,0 268.8,120.49 268.8,268.8c0,99.56 -54.31,186.01 -134.34,232.5c-12.27,7.13 -27.99,2.92 -35.06,-9.38zM618.66,552.54c0,58.72 -47.94,106.66 -106.66,106.66c-58.72,0 -106.66,-47.94 -106.66,-106.66c0,-58.72 47.94,-106.67 106.66,-106.67c58.73,0 106.66,47.95 106.66,106.67zM512,147.2c-223.74,0 -405.34,181.59 -405.34,405.34c0,149.98 81.47,280.49 202.26,350.61l40.54,-70.12c-96.47,-56.34 -161.73,-160.51 -161.73,-280.49c0,-179.16 145.1,-324.27 324.26,-324.27c179.16,0 324.26,145.11 324.26,324.27c0,119.98 -65.26,224.14 -162.13,280.49l40.53,70.12c121.19,-70.12 202.67,-200.63 202.67,-350.61c0,-223.74 -181.59,-405.34 -405.34,-405.34zM755.2,552.54c0,-134.17 -109.03,-243.2 -243.2,-243.2c-134.17,0 -243.2,109.03 -243.2,243.2c0,89.98 49.05,168.22 121.6,210.37l40.54,-70.53c-48.23,-28.38 -81.07,-79.85 -81.07,-139.84c0,-89.58 72.56,-162.14 162.14,-162.14c89.58,0 162.14,72.56 162.14,162.14c0,59.99 -32.84,111.46 -81.07,139.84l40.54,70.53c72.55,-42.15 121.6,-120.38 121.6,-210.37zM512,471.46c-44.58,0 -81.06,36.49 -81.06,81.07c0,44.58 36.48,81.06 81.06,81.06c44.58,0 81.06,-36.48 81.06,-81.06c0,-44.58 -36.48,-81.07 -81.06,-81.07z" fill="#ffffff"/>
		</mask>
		<mask id="mask-gdvXuXD0">
			<rect fill="url(#color-s0K1rWLV)" x="81.06" y="121.6" width="861.87" height="807.15"/>
		</mask>
		<mask id="mask-MmDsRvll">
			<path d="M942.94,552.54c0,159.52 -86.71,298.28 -215.45,372.77c-12.24,7.08 -27.91,2.9 -34.98,-9.35l-40.53,-70.12c-7.06,-12.22 -2.9,-27.84 9.29,-34.94c89.4,-52 149.4,-147.96 149.4,-258.36c0,-165.02 -133.64,-298.67 -298.66,-298.67c-165.02,0 -298.66,133.65 -298.66,298.67c0,110.41 60.01,206.39 149.04,258.38c12.17,7.11 16.31,22.72 9.25,34.92l-40.54,70.12c-7.09,12.26 -22.77,16.43 -35.02,9.33c-128.32,-74.49 -215.01,-213.24 -215.01,-372.75c0,-237.88 193.05,-430.94 430.94,-430.94c237.88,0 430.94,193.05 430.94,430.94zM611.4,775.66l-40.54,-70.53c-6.99,-12.17 -2.88,-27.7 9.21,-34.82c41.02,-24.13 68.45,-67.53 68.45,-117.78c0,-75.44 -61.1,-136.54 -136.54,-136.54c-75.44,0 -136.54,61.1 -136.54,136.54c0,50.24 27.44,93.64 68.45,117.78c12.1,7.12 16.21,22.65 9.21,34.82l-40.54,70.53c-7.07,12.3 -22.79,16.5 -35.06,9.38c-80.03,-46.5 -134.34,-132.94 -134.34,-232.5c0,-148.31 120.49,-268.8 268.8,-268.8c148.31,0 268.8,120.49 268.8,268.8c0,99.56 -54.31,186.01 -134.34,232.5c-12.27,7.13 -27.99,2.92 -35.06,-9.38zM618.66,552.54c0,58.72 -47.94,106.66 -106.66,106.66c-58.72,0 -106.66,-47.94 -106.66,-106.66c0,-58.72 47.94,-106.67 106.66,-106.67c58.73,0 106.66,47.95 106.66,106.67zM512,147.2c-223.74,0 -405.34,181.59 -405.34,405.34c0,149.98 81.47,280.49 202.26,350.61l40.54,-70.12c-96.47,-56.34 -161.73,-160.51 -161.73,-280.49c0,-179.16 145.1,-324.27 324.26,-324.27c179.16,0 324.26,145.11 324.26,324.27c0,119.98 -65.26,224.14 -162.13,280.49l40.53,70.12c121.19,-70.12 202.67,-200.63 202.67,-350.61c0,-223.74 -181.59,-405.34 -405.34,-405.34zM755.2,552.54c0,-134.17 -109.03,-243.2 -243.2,-243.2c-134.17,0 -243.2,109.03 -243.2,243.2c0,89.98 49.05,168.22 121.6,210.37l40.54,-70.53c-48.23,-28.38 -81.07,-79.85 -81.07,-139.84c0,-89.58 72.56,-162.14 162.14,-162.14c89.58,0 162.14,72.56 162.14,162.14c0,59.99 -32.84,111.46 -81.07,139.84l40.54,70.53c72.55,-42.15 121.6,-120.38 121.6,-210.37zM512,471.46c-44.58,0 -81.06,36.49 -81.06,81.07c0,44.58 36.48,81.06 81.06,81.06c44.58,0 81.06,-36.48 81.06,-81.06c0,-44.58 -36.48,-81.07 -81.06,-81.07z" fill="url(#color-yJ1lpXRe)"/>
		</mask>
	</defs>
	<g fill="none" fill-rule="nonzero" style="mix-blend-mode: normal">
		<g mask="url(#mask-1sW6RUYx)">
			<g color="#ff0000" class="teamapps-color-2">
				<rect x="81.06" y="121.6" width="861.87" height="807.15" fill="currentColor"/>
			</g>
			<g color="#bc13e0" class="teamapps-color-3" mask="url(#mask-gdvXuXD0)">
				<rect x="81.06" y="121.6" width="861.87" height="807.15" fill="currentColor"/>
			</g>
		</g>
		<g filter="url(#filter-NtdRRjBC)" mask="url(#mask-MmDsRvll)">
			<g color="#fff961" class="teamapps-color-1">
				<rect x="81.06" y="121.6" width="861.87" height="807.15" fill="currentColor"/>
			</g>
		</g>
	</g>
</svg>