<svg version="1.1" xmlns="http://www.w3.org/2000/svg" xmlns:xlink="http://www.w3.org/1999/xlink" viewBox="0,0,1024,1024">
	<!-- Color names: teamapps-color-1 -->
	<desc>add_shopping_cart icon - Licensed under Apache License v2.0 (http://www.apache.org/licenses/LICENSE-2.0) - Created with Iconfu.com - Derivative work of Material icons (Copyright Google Inc.)</desc>
	<defs>
		<clipPath id="clip-90mPw7fA">
			<path d="M1.3,51.3h951.54v972.7h-951.54z"/>
		</clipPath>
		<filter id="filter-aj4hXOz8" x="-13%" y="-6%" width="138%" height="136%" color-interpolation-filters="sRGB">
			<feColorMatrix values="1 0 0 0 0 0 1 0 0 0 0 0 1 0 0 0 0 0 0.2 0" in="SourceGraphic"/>
			<feOffset dy="20"/>
			<feGaussianBlur stdDeviation="11" result="blur0"/>
			<feColorMatrix values="1 0 0 0 0 0 1 0 0 0 0 0 1 0 0 0 0 0 0.3 0" in="SourceGraphic"/>
			<feOffset dy="30"/>
			<feGaussianBlur stdDeviation="20" result="blur1"/>
			<feMerge>
				<feMergeNode in="blur0"/>
				<feMergeNode in="blur1"/>
			</feMerge>
		</filter>
	</defs>
	<g fill="none" fill-rule="nonzero" style="mix-blend-mode: normal">
		<g clip-path="url(#clip-90mPw7fA)">
			<path d="M338.09,625.92h439.73v75.94h-455.68c-41.77,0 -75.95,-34.18 -75.95,-75.94c0,-13.29 3.42,-25.82 9.5,-36.45l51.26,-93.03l-136.7,-288.22h-75.94v-75.95h124.17l35.69,75.95l36.08,75.94l85.06,179.61l4.94,10.25h266.57l104.81,-189.86l41.77,-75.94h0.38l66.07,36.45l-146.58,266.19c-12.91,23.54 -37.97,39.12 -66.45,39.12h-282.9l-34.18,61.89l-1.14,4.56c0,5.31 4.56,9.5 9.5,9.5zM474.02,284.16h-113.92v-75.94h113.92v-113.92h75.95v113.92h113.92v75.94h-113.92v113.92h-75.95zM398.08,815.78c0,41.77 -34.18,75.95 -75.94,75.95c-41.77,0 -75.57,-34.18 -75.57,-75.95c0,-41.77 33.8,-75.94 75.57,-75.94c41.77,0 75.94,34.18 75.94,75.94zM777.82,815.78c0,41.77 -34.18,75.95 -75.95,75.95c-41.77,0 -75.56,-34.18 -75.56,-75.95c0,-41.77 33.79,-75.94 75.56,-75.94c41.77,0 75.95,34.18 75.95,75.94z" fill="#000000" filter="url(#filter-aj4hXOz8)"/>
		</g>
		<g>
			<g color="#039be5" class="teamapps-color-1">
				<path d="M338.09,625.92h439.73v75.94h-455.68c-41.77,0 -75.95,-34.18 -75.95,-75.94c0,-13.29 3.42,-25.82 9.5,-36.45l51.26,-93.03l-136.7,-288.22h-75.94v-75.95h124.17l35.69,75.95l36.08,75.94l85.06,179.61l4.94,10.25h266.57l104.81,-189.86l41.77,-75.94h0.38l66.07,36.45l-146.58,266.19c-12.91,23.54 -37.97,39.12 -66.45,39.12h-282.9l-34.18,61.89l-1.14,4.56c0,5.31 4.56,9.5 9.5,9.5zM474.02,284.16h-113.92v-75.94h113.92v-113.92h75.95v113.92h113.92v75.94h-113.92v113.92h-75.95zM398.08,815.78c0,41.77 -34.18,75.95 -75.94,75.95c-41.77,0 -75.57,-34.18 -75.57,-75.95c0,-41.77 33.8,-75.94 75.57,-75.94c41.77,0 75.94,34.18 75.94,75.94zM777.82,815.78c0,41.77 -34.18,75.95 -75.95,75.95c-41.77,0 -75.56,-34.18 -75.56,-75.95c0,-41.77 33.79,-75.94 75.56,-75.94c41.77,0 75.95,34.18 75.95,75.94z" fill="currentColor"/>
			</g>
		</g>
	</g>
</svg>