<svg version="1.1" xmlns="http://www.w3.org/2000/svg" xmlns:xlink="http://www.w3.org/1999/xlink" viewBox="0,0,1024,1024">
	<!-- Color names: teamapps-color-1 -->
	<desc>airline_seat_legroom_normal icon - Licensed under Apache License v2.0 (http://www.apache.org/licenses/LICENSE-2.0) - Created with Iconfu.com - Derivative work of Material icons (Copyright Google Inc.)</desc>
	<defs>
		<filter id="filter-fnbHG9T0" x="-13%" y="-7%" width="150%" height="153%" color-interpolation-filters="sRGB">
			<feColorMatrix values="1 0 0 0 0 0 1 0 0 0 0 0 1 0 0 0 0 0 0.2 0" in="SourceGraphic"/>
			<feOffset dy="20"/>
			<feGaussianBlur stdDeviation="11" result="blur0"/>
			<feColorMatrix values="1 0 0 0 0 0 1 0 0 0 0 0 1 0 0 0 0 0 0.3 0" in="SourceGraphic"/>
			<feOffset dy="30"/>
			<feGaussianBlur stdDeviation="20" result="blur1"/>
			<feMerge>
				<feMergeNode in="blur0"/>
				<feMergeNode in="blur1"/>
			</feMerge>
		</filter>
	</defs>
	<g fill="none" fill-rule="nonzero" style="mix-blend-mode: normal">
		<path d="M891.74,796.8c0,31.51 -25.45,56.96 -56.96,56.96h-170.88v-265.82h-265.82c-62.66,0 -113.92,-51.26 -113.92,-113.92v-303.78h227.84v227.84h189.86c41.77,0 75.95,34.18 75.95,75.94v265.82h56.96c31.51,0 56.96,25.45 56.96,56.96zM360.1,625.92h227.84v75.94h-227.84c-104.81,0 -189.86,-85.06 -189.86,-189.86v-341.76h75.94v341.76c0,63.04 50.88,113.92 113.92,113.92z" fill="#000000" filter="url(#filter-fnbHG9T0)"/>
		<g>
			<g color="#039be5" class="teamapps-color-1">
				<path d="M891.74,796.8c0,31.51 -25.45,56.96 -56.96,56.96h-170.88v-265.82h-265.82c-62.66,0 -113.92,-51.26 -113.92,-113.92v-303.78h227.84v227.84h189.86c41.77,0 75.95,34.18 75.95,75.94v265.82h56.96c31.51,0 56.96,25.45 56.96,56.96zM360.1,625.92h227.84v75.94h-227.84c-104.81,0 -189.86,-85.06 -189.86,-189.86v-341.76h75.94v341.76c0,63.04 50.88,113.92 113.92,113.92z" fill="currentColor"/>
			</g>
		</g>
	</g>
</svg>