<svg version="1.1" xmlns="http://www.w3.org/2000/svg" xmlns:xlink="http://www.w3.org/1999/xlink" viewBox="0,0,1024,1024">
	<!-- Color names: teamapps-color-1 -->
	<desc>bluetooth_connected icon - Licensed under Apache License v2.0 (http://www.apache.org/licenses/LICENSE-2.0) - Created with Iconfu.com - Derivative work of Material icons (Copyright Google Inc.)</desc>
	<defs>
		<clipPath id="clip-YGpftN0q">
			<path d="M77.24,89.26h869.52v934.74h-869.52z"/>
		</clipPath>
		<filter id="filter-qJyeNYBY" x="-14%" y="-6%" width="153%" height="143%" color-interpolation-filters="sRGB">
			<feColorMatrix values="1 0 0 0 0 0 1 0 0 0 0 0 1 0 0 0 0 0 0.2 0" in="SourceGraphic"/>
			<feOffset dy="20"/>
			<feGaussianBlur stdDeviation="11" result="blur0"/>
			<feColorMatrix values="1 0 0 0 0 0 1 0 0 0 0 0 1 0 0 0 0 0 0.3 0" in="SourceGraphic"/>
			<feOffset dy="30"/>
			<feGaussianBlur stdDeviation="20" result="blur1"/>
			<feMerge>
				<feMergeNode in="blur0"/>
				<feMergeNode in="blur1"/>
			</feMerge>
		</filter>
	</defs>
	<g fill="none" fill-rule="nonzero" style="mix-blend-mode: normal">
		<g clip-path="url(#clip-YGpftN0q)">
			<path d="M565.54,512l163.29,162.91l-216.83,216.83h-37.98v-288.22l-174.3,174.3l-53.54,-53.54l212.27,-212.27l-212.27,-212.27l53.54,-53.54l174.3,174.3v-288.22h37.98l216.83,216.83zM853.76,512l-75.94,75.94l-75.95,-75.94l75.95,-75.94zM246.18,587.94l-75.94,-75.94l75.94,-75.94l75.95,75.94zM549.98,420.48l71.39,-71.39l-71.39,-71.39zM549.98,603.52v142.77l71.39,-71.39z" fill="#000000" filter="url(#filter-qJyeNYBY)"/>
		</g>
		<g>
			<g color="#039be5" class="teamapps-color-1">
				<path d="M565.54,512l163.29,162.91l-216.83,216.83h-37.98v-288.22l-174.3,174.3l-53.54,-53.54l212.27,-212.27l-212.27,-212.27l53.54,-53.54l174.3,174.3v-288.22h37.98l216.83,216.83zM853.76,512l-75.94,75.94l-75.95,-75.94l75.95,-75.94zM246.18,587.94l-75.94,-75.94l75.94,-75.94l75.95,75.94zM549.98,420.48l71.39,-71.39l-71.39,-71.39zM549.98,603.52v142.77l71.39,-71.39z" fill="currentColor"/>
			</g>
		</g>
	</g>
</svg>