<svg version="1.1" xmlns="http://www.w3.org/2000/svg" xmlns:xlink="http://www.w3.org/1999/xlink" viewBox="0,0,1024,1024">
	<!-- Color names: teamapps-color-1 -->
	<desc>content_copy icon - Licensed under Apache License v2.0 (http://www.apache.org/licenses/LICENSE-2.0) - Created with Iconfu.com - Derivative work of Material icons (Copyright Google Inc.)</desc>
	<defs>
		<clipPath id="clip-5K6uso6W">
			<path d="M39.26,51.3h907.5v972.7h-907.5z"/>
		</clipPath>
		<filter id="filter-KiwnY6QD" x="-13%" y="-6%" width="145%" height="135%" color-interpolation-filters="sRGB">
			<feColorMatrix values="1 0 0 0 0 0 1 0 0 0 0 0 1 0 0 0 0 0 0.2 0" in="SourceGraphic"/>
			<feOffset dy="20"/>
			<feGaussianBlur stdDeviation="11" result="blur0"/>
			<feColorMatrix values="1 0 0 0 0 0 1 0 0 0 0 0 1 0 0 0 0 0 0.3 0" in="SourceGraphic"/>
			<feOffset dy="30"/>
			<feGaussianBlur stdDeviation="20" result="blur1"/>
			<feMerge>
				<feMergeNode in="blur0"/>
				<feMergeNode in="blur1"/>
			</feMerge>
		</filter>
	</defs>
	<g fill="none" fill-rule="nonzero" style="mix-blend-mode: normal">
		<g clip-path="url(#clip-5K6uso6W)">
			<path d="M853.76,322.14v531.62c0,41.77 -34.18,75.94 -75.94,75.94h-417.71c-41.77,0 -75.94,-34.18 -75.94,-75.94v-531.62c0,-41.77 34.18,-75.95 75.94,-75.95h417.71c41.77,0 75.94,34.18 75.94,75.95zM663.9,170.24h-455.68v531.62h-75.95v-531.62c0,-41.77 34.18,-75.94 75.95,-75.94h455.68zM777.82,322.14h-417.71v531.62h417.71z" fill="#000000" filter="url(#filter-KiwnY6QD)"/>
		</g>
		<g>
			<g color="#039be5" class="teamapps-color-1">
				<path d="M853.76,322.14v531.62c0,41.77 -34.18,75.94 -75.94,75.94h-417.71c-41.77,0 -75.94,-34.18 -75.94,-75.94v-531.62c0,-41.77 34.18,-75.95 75.94,-75.95h417.71c41.77,0 75.94,34.18 75.94,75.95zM663.9,170.24h-455.68v531.62h-75.95v-531.62c0,-41.77 34.18,-75.94 75.95,-75.94h455.68zM777.82,322.14h-417.71v531.62h417.71z" fill="currentColor"/>
			</g>
		</g>
	</g>
</svg>