<svg version="1.1" xmlns="http://www.w3.org/2000/svg" xmlns:xlink="http://www.w3.org/1999/xlink" viewBox="0,0,1024,1024">
	<!-- Color names: teamapps-color-1 -->
	<desc>crop_free icon - Licensed under Apache License v2.0 (http://www.apache.org/licenses/LICENSE-2.0) - Created with Iconfu.com - Derivative work of Material icons (Copyright Google Inc.)</desc>
	<defs>
		<filter id="filter-MWnR4dNk" x="-14%" y="-7%" width="153%" height="153%" color-interpolation-filters="sRGB">
			<feColorMatrix values="1 0 0 0 0 0 1 0 0 0 0 0 1 0 0 0 0 0 0.2 0" in="SourceGraphic"/>
			<feOffset dy="20"/>
			<feGaussianBlur stdDeviation="11" result="blur0"/>
			<feColorMatrix values="1 0 0 0 0 0 1 0 0 0 0 0 1 0 0 0 0 0 0.3 0" in="SourceGraphic"/>
			<feOffset dy="30"/>
			<feGaussianBlur stdDeviation="20" result="blur1"/>
			<feMerge>
				<feMergeNode in="blur0"/>
				<feMergeNode in="blur1"/>
			</feMerge>
		</filter>
	</defs>
	<g fill="none" fill-rule="nonzero" style="mix-blend-mode: normal">
		<path d="M246.18,170.24h151.9v75.94h-151.9v151.9h-75.94v-151.9c0,-41.77 34.18,-75.94 75.94,-75.94zM246.18,777.82h151.9v75.94h-151.9c-41.77,0 -75.94,-34.18 -75.94,-75.94v-151.9h75.94zM777.82,625.92h75.94v151.9c0,41.77 -34.18,75.94 -75.94,75.94h-151.9v-75.94h151.9zM853.76,246.18v151.9h-75.94v-151.9h-151.9v-75.94h151.9c41.77,0 75.94,34.18 75.94,75.94z" fill="#000000" filter="url(#filter-MWnR4dNk)"/>
		<g>
			<g color="#039be5" class="teamapps-color-1">
				<path d="M246.18,170.24h151.9v75.94h-151.9v151.9h-75.94v-151.9c0,-41.77 34.18,-75.94 75.94,-75.94zM246.18,777.82h151.9v75.94h-151.9c-41.77,0 -75.94,-34.18 -75.94,-75.94v-151.9h75.94zM777.82,625.92h75.94v151.9c0,41.77 -34.18,75.94 -75.94,75.94h-151.9v-75.94h151.9zM853.76,246.18v151.9h-75.94v-151.9h-151.9v-75.94h151.9c41.77,0 75.94,34.18 75.94,75.94z" fill="currentColor"/>
			</g>
		</g>
	</g>
</svg>