<svg version="1.1" xmlns="http://www.w3.org/2000/svg" xmlns:xlink="http://www.w3.org/1999/xlink" viewBox="0,0,1024,1024">
	<!-- Color names: teamapps-color-1 -->
	<desc>crop_3_2 icon - Licensed under Apache License v2.0 (http://www.apache.org/licenses/LICENSE-2.0) - Created with Iconfu.com - Derivative work of Material icons (Copyright Google Inc.)</desc>
	<defs>
		<filter id="filter-NtuVQ8BH" x="-14%" y="-8%" width="153%" height="166%" color-interpolation-filters="sRGB">
			<feColorMatrix values="1 0 0 0 0 0 1 0 0 0 0 0 1 0 0 0 0 0 0.2 0" in="SourceGraphic"/>
			<feOffset dy="20"/>
			<feGaussianBlur stdDeviation="11" result="blur0"/>
			<feColorMatrix values="1 0 0 0 0 0 1 0 0 0 0 0 1 0 0 0 0 0 0.3 0" in="SourceGraphic"/>
			<feOffset dy="30"/>
			<feGaussianBlur stdDeviation="20" result="blur1"/>
			<feMerge>
				<feMergeNode in="blur0"/>
				<feMergeNode in="blur1"/>
			</feMerge>
		</filter>
	</defs>
	<g fill="none" fill-rule="nonzero" style="mix-blend-mode: normal">
		<path d="M853.76,284.16v455.68c0,41.77 -34.18,75.94 -75.94,75.94h-531.63c-41.77,0 -75.94,-34.18 -75.94,-75.94v-455.68c0,-41.77 34.18,-75.94 75.94,-75.94h531.63c41.77,0 75.94,34.18 75.94,75.94zM777.82,284.16h-531.63v455.68h531.63z" fill="#000000" filter="url(#filter-NtuVQ8BH)"/>
		<g>
			<g color="#039be5" class="teamapps-color-1">
				<path d="M853.76,284.16v455.68c0,41.77 -34.18,75.94 -75.94,75.94h-531.63c-41.77,0 -75.94,-34.18 -75.94,-75.94v-455.68c0,-41.77 34.18,-75.94 75.94,-75.94h531.63c41.77,0 75.94,34.18 75.94,75.94zM777.82,284.16h-531.63v455.68h531.63z" fill="currentColor"/>
			</g>
		</g>
	</g>
</svg>