<svg version="1.1" xmlns="http://www.w3.org/2000/svg" xmlns:xlink="http://www.w3.org/1999/xlink" viewBox="0,0,1024,1024">
	<!-- Color names: teamapps-color-1 -->
	<desc>filter_vintage icon - Licensed under Apache License v2.0 (http://www.apache.org/licenses/LICENSE-2.0) - Created with Iconfu.com - Derivative work of Material icons (Copyright Google Inc.)</desc>
	<defs>
		<clipPath id="clip-eVZzBpE7">
			<path d="M50.66,44.08h922.69v979.92h-922.69z"/>
		</clipPath>
		<filter id="filter-tVJru9Po" x="-13%" y="-6%" width="146%" height="134%" color-interpolation-filters="sRGB">
			<feColorMatrix values="1 0 0 0 0 0 1 0 0 0 0 0 1 0 0 0 0 0 0.2 0" in="SourceGraphic"/>
			<feOffset dy="20"/>
			<feGaussianBlur stdDeviation="11" result="blur0"/>
			<feColorMatrix values="1 0 0 0 0 0 1 0 0 0 0 0 1 0 0 0 0 0 0.3 0" in="SourceGraphic"/>
			<feOffset dy="30"/>
			<feGaussianBlur stdDeviation="20" result="blur1"/>
			<feMerge>
				<feMergeNode in="blur0"/>
				<feMergeNode in="blur1"/>
			</feMerge>
		</filter>
	</defs>
	<g fill="none" fill-rule="nonzero" style="mix-blend-mode: normal">
		<g clip-path="url(#clip-eVZzBpE7)">
			<path d="M880.34,724.27c-68.35,39.12 -154.93,42.15 -227.84,0c-10.64,-6.08 -20.51,-12.91 -29.62,-20.51c1.9,11.77 3.03,23.92 3.03,36.07c0,84.3 -45.95,157.59 -113.92,197.08c-67.97,-39.49 -113.92,-112.78 -113.92,-197.08c0,-12.15 1.14,-24.31 3.03,-36.45c-9.11,7.22 -18.98,14.43 -29.62,20.51c-73.29,42.15 -159.87,39.12 -227.84,0c0.38,-78.6 41.01,-154.93 113.92,-197.08c10.64,-6.08 21.65,-11.02 32.66,-15.19c-11.01,-4.17 -22.03,-9.1 -32.66,-15.18c-73.29,-42.15 -113.92,-118.48 -113.92,-197.08c68.35,-39.12 154.93,-42.15 227.84,0c10.64,6.08 20.51,13.29 29.62,20.88c-1.9,-11.77 -3.03,-23.92 -3.03,-36.07c0,-84.3 45.95,-157.59 113.92,-197.08c67.97,39.49 113.92,112.78 113.92,197.08c0,12.15 -1.14,24.3 -3.03,36.07c9.11,-7.22 18.98,-14.43 29.62,-20.51c73.29,-42.15 159.87,-39.12 227.84,0c-0.38,78.6 -41.01,154.93 -113.92,197.08c-10.64,6.08 -21.65,11.02 -32.66,15.19c11.01,4.17 22.03,9.11 32.66,15.19c72.91,42.15 113.54,118.48 113.92,197.08zM663.9,512c0,-83.92 -67.98,-151.9 -151.9,-151.9c-83.92,0 -151.9,67.98 -151.9,151.9c0,83.92 67.98,151.9 151.9,151.9c83.92,0 151.9,-67.98 151.9,-151.9z" fill="#000000" filter="url(#filter-tVJru9Po)"/>
		</g>
		<g>
			<g color="#039be5" class="teamapps-color-1">
				<path d="M880.34,724.27c-68.35,39.12 -154.93,42.15 -227.84,0c-10.64,-6.08 -20.51,-12.91 -29.62,-20.51c1.9,11.77 3.03,23.92 3.03,36.07c0,84.3 -45.95,157.59 -113.92,197.08c-67.97,-39.49 -113.92,-112.78 -113.92,-197.08c0,-12.15 1.14,-24.31 3.03,-36.45c-9.11,7.22 -18.98,14.43 -29.62,20.51c-73.29,42.15 -159.87,39.12 -227.84,0c0.38,-78.6 41.01,-154.93 113.92,-197.08c10.64,-6.08 21.65,-11.02 32.66,-15.19c-11.01,-4.17 -22.03,-9.1 -32.66,-15.18c-73.29,-42.15 -113.92,-118.48 -113.92,-197.08c68.35,-39.12 154.93,-42.15 227.84,0c10.64,6.08 20.51,13.29 29.62,20.88c-1.9,-11.77 -3.03,-23.92 -3.03,-36.07c0,-84.3 45.95,-157.59 113.92,-197.08c67.97,39.49 113.92,112.78 113.92,197.08c0,12.15 -1.14,24.3 -3.03,36.07c9.11,-7.22 18.98,-14.43 29.62,-20.51c73.29,-42.15 159.87,-39.12 227.84,0c-0.38,78.6 -41.01,154.93 -113.92,197.08c-10.64,6.08 -21.65,11.02 -32.66,15.19c11.01,4.17 22.03,9.11 32.66,15.19c72.91,42.15 113.54,118.48 113.92,197.08zM663.9,512c0,-83.92 -67.98,-151.9 -151.9,-151.9c-83.92,0 -151.9,67.98 -151.9,151.9c0,83.92 67.98,151.9 151.9,151.9c83.92,0 151.9,-67.98 151.9,-151.9z" fill="currentColor"/>
			</g>
		</g>
	</g>
</svg>