<svg version="1.1" xmlns="http://www.w3.org/2000/svg" xmlns:xlink="http://www.w3.org/1999/xlink" viewBox="0,0,1024,1024">
	<!-- Color names: teamapps-color-1 -->
	<desc>format_color_fill icon - Licensed under Apache License v2.0 (http://www.apache.org/licenses/LICENSE-2.0) - Created with Iconfu.com - Derivative work of Material icons (Copyright Google Inc.)</desc>
	<defs>
		<clipPath id="clip-LN2BU4f9">
			<path d="M0,1024v-1010.68h1024v1010.68z"/>
		</clipPath>
		<filter id="filter-xpE32lW5" x="-11%" y="-5%" width="128%" height="127%" color-interpolation-filters="sRGB">
			<feColorMatrix values="1 0 0 0 0 0 1 0 0 0 0 0 1 0 0 0 0 0 0.2 0" in="SourceGraphic"/>
			<feOffset dy="20"/>
			<feGaussianBlur stdDeviation="11" result="blur0"/>
			<feColorMatrix values="1 0 0 0 0 0 1 0 0 0 0 0 1 0 0 0 0 0 0.3 0" in="SourceGraphic"/>
			<feOffset dy="30"/>
			<feGaussianBlur stdDeviation="20" result="blur1"/>
			<feMerge>
				<feMergeNode in="blur0"/>
				<feMergeNode in="blur1"/>
			</feMerge>
		</filter>
	</defs>
	<g fill="none" fill-rule="nonzero" style="mix-blend-mode: normal">
		<g clip-path="url(#clip-LN2BU4f9)">
			<path d="M685.16,476.3l-208.86,208.86c-11.01,11.01 -25.82,16.71 -40.25,16.71c-14.43,0 -29.25,-5.7 -40.25,-16.71l-208.86,-208.86c-22.4,-22.03 -22.4,-58.1 0,-80.5l195.57,-195.56l-90.38,-90.38l53.54,-53.54l339.48,339.48c22.4,22.4 22.4,58.47 0,80.5zM617.95,436.06l-181.89,-181.9l-181.9,181.9zM853.76,625.92c0,41.77 -34.18,75.94 -75.94,75.94c-41.77,0 -75.95,-34.18 -75.95,-75.94c0,-50.51 75.95,-132.9 75.95,-132.9c0,0 75.94,82.4 75.94,132.9zM56.32,815.78h911.36v151.9h-911.36z" fill="#000000" filter="url(#filter-xpE32lW5)"/>
		</g>
		<g>
			<g color="#039be5" class="teamapps-color-1">
				<path d="M685.16,476.3l-208.86,208.86c-11.01,11.01 -25.82,16.71 -40.25,16.71c-14.43,0 -29.25,-5.7 -40.25,-16.71l-208.86,-208.86c-22.4,-22.03 -22.4,-58.1 0,-80.5l195.57,-195.56l-90.38,-90.38l53.54,-53.54l339.48,339.48c22.4,22.4 22.4,58.47 0,80.5zM617.95,436.06l-181.89,-181.9l-181.9,181.9zM853.76,625.92c0,41.77 -34.18,75.94 -75.94,75.94c-41.77,0 -75.95,-34.18 -75.95,-75.94c0,-50.51 75.95,-132.9 75.95,-132.9c0,0 75.94,82.4 75.94,132.9z" fill="currentColor"/>
			</g>
			<g color="#039be5" class="teamapps-color-1">
				<path d="M56.32,815.78h911.36v151.9h-911.36z" fill="currentColor"/>
			</g>
		</g>
	</g>
</svg>