<svg version="1.1" xmlns="http://www.w3.org/2000/svg" xmlns:xlink="http://www.w3.org/1999/xlink" viewBox="0,0,1024,1024">
	<!-- Color names: teamapps-color-1 -->
	<desc>gamepad icon - Licensed under Apache License v2.0 (http://www.apache.org/licenses/LICENSE-2.0) - Created with Iconfu.com - Derivative work of Material icons (Copyright Google Inc.)</desc>
	<defs>
		<clipPath id="clip-06ZPXoj8">
			<path d="M39.26,89.26h945.47v934.74h-945.47z"/>
		</clipPath>
		<filter id="filter-RyJBAlhq" x="-13%" y="-6%" width="143%" height="143%" color-interpolation-filters="sRGB">
			<feColorMatrix values="1 0 0 0 0 0 1 0 0 0 0 0 1 0 0 0 0 0 0.2 0" in="SourceGraphic"/>
			<feOffset dy="20"/>
			<feGaussianBlur stdDeviation="11" result="blur0"/>
			<feColorMatrix values="1 0 0 0 0 0 1 0 0 0 0 0 1 0 0 0 0 0 0.3 0" in="SourceGraphic"/>
			<feOffset dy="30"/>
			<feGaussianBlur stdDeviation="20" result="blur1"/>
			<feMerge>
				<feMergeNode in="blur0"/>
				<feMergeNode in="blur1"/>
			</feMerge>
		</filter>
	</defs>
	<g fill="none" fill-rule="nonzero" style="mix-blend-mode: normal">
		<g clip-path="url(#clip-06ZPXoj8)">
			<path d="M512,455.04l-113.92,-113.92v-208.86h227.84v208.86zM455.04,512l-113.92,113.92h-208.86v-227.84h208.86zM512,568.96l113.92,113.92v208.86h-227.84v-208.86zM891.74,398.08v227.84h-208.86l-113.92,-113.92l113.92,-113.92z" fill="#000000" filter="url(#filter-RyJBAlhq)"/>
		</g>
		<g>
			<g color="#039be5" class="teamapps-color-1">
				<path d="M512,455.04l-113.92,-113.92v-208.86h227.84v208.86zM455.04,512l-113.92,113.92h-208.86v-227.84h208.86zM512,568.96l113.92,113.92v208.86h-227.84v-208.86zM891.74,398.08v227.84h-208.86l-113.92,-113.92l113.92,-113.92z" fill="currentColor"/>
			</g>
		</g>
	</g>
</svg>