<svg version="1.1" xmlns="http://www.w3.org/2000/svg" xmlns:xlink="http://www.w3.org/1999/xlink" viewBox="0,0,1024,1024">
	<!-- Color names: teamapps-color-1 -->
	<desc>grid_off icon - Licensed under Apache License v2.0 (http://www.apache.org/licenses/LICENSE-2.0) - Created with Iconfu.com - Derivative work of Material icons (Copyright Google Inc.)</desc>
	<defs>
		<clipPath id="clip-KeB7NDxZ">
			<path d="M1012.45,61.55v962.45h-1012.45v-962.45z"/>
		</clipPath>
		<filter id="filter-wLk9wFHv" x="-11%" y="-5%" width="129%" height="134%" color-interpolation-filters="sRGB">
			<feColorMatrix values="1 0 0 0 0 0 1 0 0 0 0 0 1 0 0 0 0 0 0.2 0" in="SourceGraphic"/>
			<feOffset dy="20"/>
			<feGaussianBlur stdDeviation="11" result="blur0"/>
			<feColorMatrix values="1 0 0 0 0 0 1 0 0 0 0 0 1 0 0 0 0 0 0.3 0" in="SourceGraphic"/>
			<feOffset dy="30"/>
			<feGaussianBlur stdDeviation="20" result="blur1"/>
			<feMerge>
				<feMergeNode in="blur0"/>
				<feMergeNode in="blur1"/>
			</feMerge>
		</filter>
	</defs>
	<g fill="none" fill-rule="nonzero" style="mix-blend-mode: normal">
		<g clip-path="url(#clip-KeB7NDxZ)">
			<path d="M919.45,919.45l-48.22,48.23l-75.95,-75.94h-587.06c-41.77,0 -75.95,-34.18 -75.95,-75.95v-586.69l-75.94,-75.94l48.23,-48.6zM305.05,208.22l-75.95,-75.95h586.69c41.77,0 75.95,34.18 75.95,75.95v586.69l-75.95,-75.95v-55.06h-55.06l-75.95,-75.95h131.01v-151.89h-151.89v131.01l-75.95,-75.95v-55.06h-55.06l-75.95,-75.95h131.01v-151.89h-151.89v131.01l-75.95,-75.95v-55.06zM663.9,360.1h151.89v-151.89h-151.89zM360.1,663.9h-151.89v151.89h151.89zM360.1,456.94l-20.88,-20.88h-131.01v151.89h151.89zM587.94,684.4l-20.88,-20.51h-131.01v151.89h151.89zM719.33,815.78l-55.44,-55.44v55.44zM208.22,360.1h55.06l-55.06,-55.06zM436.06,587.94h55.06l-55.06,-55.06z" fill="#000000" filter="url(#filter-wLk9wFHv)"/>
		</g>
		<g>
			<g color="#039be5" class="teamapps-color-1">
				<path d="M919.45,919.45l-48.22,48.23l-75.95,-75.94h-587.06c-41.77,0 -75.95,-34.18 -75.95,-75.95v-586.69l-75.94,-75.94l48.23,-48.6zM305.05,208.22l-75.95,-75.95h586.69c41.77,0 75.95,34.18 75.95,75.95v586.69l-75.95,-75.95v-55.06h-55.06l-75.95,-75.95h131.01v-151.89h-151.89v131.01l-75.95,-75.95v-55.06h-55.06l-75.95,-75.95h131.01v-151.89h-151.89v131.01l-75.95,-75.95v-55.06zM663.9,360.1h151.89v-151.89h-151.89zM360.1,663.9h-151.89v151.89h151.89zM360.1,456.94l-20.88,-20.88h-131.01v151.89h151.89zM587.94,684.4l-20.88,-20.51h-131.01v151.89h151.89zM719.33,815.78l-55.44,-55.44v55.44zM208.22,360.1h55.06l-55.06,-55.06zM436.06,587.94h55.06l-55.06,-55.06z" fill="currentColor"/>
			</g>
		</g>
	</g>
</svg>