<svg version="1.1" xmlns="http://www.w3.org/2000/svg" xmlns:xlink="http://www.w3.org/1999/xlink" viewBox="0,0,1024,1024">
	<!-- Color names: teamapps-color-1 -->
	<desc>location_searching icon - Licensed under Apache License v2.0 (http://www.apache.org/licenses/LICENSE-2.0) - Created with Iconfu.com - Derivative work of Material icons (Copyright Google Inc.)</desc>
	<defs>
		<clipPath id="clip-qCEFFIhb">
			<path d="M1.3,51.3h1021.41v972.7h-1021.41z"/>
		</clipPath>
		<filter id="filter-y2qA5Gs0" x="-12%" y="-6%" width="135%" height="135%" color-interpolation-filters="sRGB">
			<feColorMatrix values="1 0 0 0 0 0 1 0 0 0 0 0 1 0 0 0 0 0 0.2 0" in="SourceGraphic"/>
			<feOffset dy="20"/>
			<feGaussianBlur stdDeviation="11" result="blur0"/>
			<feColorMatrix values="1 0 0 0 0 0 1 0 0 0 0 0 1 0 0 0 0 0 0.3 0" in="SourceGraphic"/>
			<feOffset dy="30"/>
			<feGaussianBlur stdDeviation="20" result="blur1"/>
			<feMerge>
				<feMergeNode in="blur0"/>
				<feMergeNode in="blur1"/>
			</feMerge>
		</filter>
	</defs>
	<g fill="none" fill-rule="nonzero" style="mix-blend-mode: normal">
		<g clip-path="url(#clip-qCEFFIhb)">
			<path d="M929.7,474.02v75.95h-78.22c-17.47,158.35 -143.16,284.03 -301.51,301.51v78.22h-75.95v-78.22c-158.35,-17.47 -284.03,-143.16 -301.51,-301.51h-78.22v-75.95h78.22c17.47,-158.35 143.16,-284.03 301.51,-301.51v-78.22h75.95v78.22c158.35,17.47 284.03,143.16 301.51,301.51zM777.82,512c0,-146.96 -118.86,-265.82 -265.82,-265.82c-146.96,0 -265.82,118.86 -265.82,265.82c0,146.96 118.86,265.82 265.82,265.82c146.96,0 265.82,-118.86 265.82,-265.82z" fill="#000000" filter="url(#filter-y2qA5Gs0)"/>
		</g>
		<g>
			<g color="#039be5" class="teamapps-color-1">
				<path d="M929.7,474.02v75.95h-78.22c-17.47,158.35 -143.16,284.03 -301.51,301.51v78.22h-75.95v-78.22c-158.35,-17.47 -284.03,-143.16 -301.51,-301.51h-78.22v-75.95h78.22c17.47,-158.35 143.16,-284.03 301.51,-301.51v-78.22h75.95v78.22c158.35,17.47 284.03,143.16 301.51,301.51zM777.82,512c0,-146.96 -118.86,-265.82 -265.82,-265.82c-146.96,0 -265.82,118.86 -265.82,265.82c0,146.96 118.86,265.82 265.82,265.82c146.96,0 265.82,-118.86 265.82,-265.82z" fill="currentColor"/>
			</g>
		</g>
	</g>
</svg>