<svg version="1.1" xmlns="http://www.w3.org/2000/svg" xmlns:xlink="http://www.w3.org/1999/xlink" viewBox="0,0,1024,1024">
	<!-- Color names: teamapps-color-1 -->
	<desc>local_shipping icon - Licensed under Apache License v2.0 (http://www.apache.org/licenses/LICENSE-2.0) - Created with Iconfu.com - Derivative work of Material icons (Copyright Google Inc.)</desc>
	<defs>
		<filter id="filter-qQVrNlaG" x="-12%" y="-8%" width="135%" height="166%" color-interpolation-filters="sRGB">
			<feColorMatrix values="1 0 0 0 0 0 1 0 0 0 0 0 1 0 0 0 0 0 0.2 0" in="SourceGraphic"/>
			<feOffset dy="20"/>
			<feGaussianBlur stdDeviation="11" result="blur0"/>
			<feColorMatrix values="1 0 0 0 0 0 1 0 0 0 0 0 1 0 0 0 0 0 0.3 0" in="SourceGraphic"/>
			<feOffset dy="30"/>
			<feGaussianBlur stdDeviation="20" result="blur1"/>
			<feMerge>
				<feMergeNode in="blur0"/>
				<feMergeNode in="blur1"/>
			</feMerge>
		</filter>
	</defs>
	<g fill="none" fill-rule="nonzero" style="mix-blend-mode: normal">
		<path d="M929.7,512v189.86h-75.94c0,63.04 -50.88,113.92 -113.92,113.92c-63.04,0 -113.92,-50.88 -113.92,-113.92h-227.84c0,63.04 -50.88,113.92 -113.92,113.92c-63.04,0 -113.92,-50.88 -113.92,-113.92h-75.94v-417.7c0,-41.77 34.18,-75.94 75.94,-75.94h531.62v151.89h113.92zM701.86,417.06v94.94h169.37l-74.43,-94.94zM341.12,701.86c0,-31.51 -25.45,-56.96 -56.96,-56.96c-31.51,0 -56.96,25.45 -56.96,56.96c0,31.51 25.45,56.96 56.96,56.96c31.51,0 56.96,-25.45 56.96,-56.96zM796.8,701.86c0,-31.51 -25.45,-56.96 -56.96,-56.96c-31.51,0 -56.96,25.45 -56.96,56.96c0,31.51 25.45,56.96 56.96,56.96c31.51,0 56.96,-25.45 56.96,-56.96z" fill="#000000" filter="url(#filter-qQVrNlaG)"/>
		<g>
			<g color="#039be5" class="teamapps-color-1">
				<path d="M929.7,512v189.86h-75.94c0,63.04 -50.88,113.92 -113.92,113.92c-63.04,0 -113.92,-50.88 -113.92,-113.92h-227.84c0,63.04 -50.88,113.92 -113.92,113.92c-63.04,0 -113.92,-50.88 -113.92,-113.92h-75.94v-417.7c0,-41.77 34.18,-75.94 75.94,-75.94h531.62v151.89h113.92zM701.86,417.06v94.94h169.37l-74.43,-94.94zM341.12,701.86c0,-31.51 -25.45,-56.96 -56.96,-56.96c-31.51,0 -56.96,25.45 -56.96,56.96c0,31.51 25.45,56.96 56.96,56.96c31.51,0 56.96,-25.45 56.96,-56.96zM796.8,701.86c0,-31.51 -25.45,-56.96 -56.96,-56.96c-31.51,0 -56.96,25.45 -56.96,56.96c0,31.51 25.45,56.96 56.96,56.96c31.51,0 56.96,-25.45 56.96,-56.96z" fill="currentColor"/>
			</g>
		</g>
	</g>
</svg>