<svg version="1.1" xmlns="http://www.w3.org/2000/svg" xmlns:xlink="http://www.w3.org/1999/xlink" viewBox="0,0,1024,1024">
	<!-- Color names: teamapps-color-1 -->
	<desc>notifications_off icon - Licensed under Apache License v2.0 (http://www.apache.org/licenses/LICENSE-2.0) - Created with Iconfu.com - Derivative work of Material icons (Copyright Google Inc.)</desc>
	<defs>
		<clipPath id="clip-qbVcNiLz">
			<path d="M115.22,108.26h831.54v915.74h-831.54z"/>
		</clipPath>
		<filter id="filter-UFdHss1j" x="-15%" y="-6%" width="162%" height="146%" color-interpolation-filters="sRGB">
			<feColorMatrix values="1 0 0 0 0 0 1 0 0 0 0 0 1 0 0 0 0 0 0.2 0" in="SourceGraphic"/>
			<feOffset dy="20"/>
			<feGaussianBlur stdDeviation="11" result="blur0"/>
			<feColorMatrix values="1 0 0 0 0 0 1 0 0 0 0 0 1 0 0 0 0 0 0.3 0" in="SourceGraphic"/>
			<feOffset dy="30"/>
			<feGaussianBlur stdDeviation="20" result="blur1"/>
			<feMerge>
				<feMergeNode in="blur0"/>
				<feMergeNode in="blur1"/>
			</feMerge>
		</filter>
	</defs>
	<g fill="none" fill-rule="nonzero" style="mix-blend-mode: normal">
		<g clip-path="url(#clip-qbVcNiLz)">
			<path d="M853.76,805.16l-48.23,48.22l-75.94,-75.94h-521.37v-37.98l75.94,-75.94v-189.86c0,-47.85 10.63,-92.28 30.38,-129.87v-0.38l-106.32,-106.33l48.22,-48.22l97.6,100.62l461.75,476.57zM400.36,255.3c0,-0.38 0.38,-0.37 0.38,-0.37c8.36,-4.17 17.09,-8.36 25.82,-11.77c0.38,-0.38 0.37,-0.38 0.76,-0.38h0.38c3.8,-1.52 7.59,-3.03 11.39,-4.17c4.94,-1.52 10.25,-3.42 15.95,-4.56v-25.82c0,-31.51 25.45,-56.96 56.96,-56.96c31.51,0 56.96,25.45 56.96,56.96v25.82c108.61,25.82 170.88,123.03 170.88,239.99v139.75zM436.06,815.78h151.89c0,42.15 -33.79,75.95 -75.94,75.95c-42.15,0 -75.94,-33.8 -75.94,-75.95z" fill="#000000" filter="url(#filter-UFdHss1j)"/>
		</g>
		<g>
			<g color="#039be5" class="teamapps-color-1">
				<path d="M853.76,805.16l-48.23,48.22l-75.94,-75.94h-521.37v-37.98l75.94,-75.94v-189.86c0,-47.85 10.63,-92.28 30.38,-129.87v-0.38l-106.32,-106.33l48.22,-48.22l97.6,100.62l461.75,476.57zM400.36,255.3c0,-0.38 0.38,-0.37 0.38,-0.37c8.36,-4.17 17.09,-8.36 25.82,-11.77c0.38,-0.38 0.37,-0.38 0.76,-0.38h0.38c3.8,-1.52 7.59,-3.03 11.39,-4.17c4.94,-1.52 10.25,-3.42 15.95,-4.56v-25.82c0,-31.51 25.45,-56.96 56.96,-56.96c31.51,0 56.96,25.45 56.96,56.96v25.82c108.61,25.82 170.88,123.03 170.88,239.99v139.75zM436.06,815.78h151.89c0,42.15 -33.79,75.95 -75.94,75.95c-42.15,0 -75.94,-33.8 -75.94,-75.95z" fill="currentColor"/>
			</g>
		</g>
	</g>
</svg>