<svg version="1.1" xmlns="http://www.w3.org/2000/svg" xmlns:xlink="http://www.w3.org/1999/xlink" viewBox="0,0,1024,1024">
	<!-- Color names: teamapps-color-1 -->
	<desc>phone_android icon - Licensed under Apache License v2.0 (http://www.apache.org/licenses/LICENSE-2.0) - Created with Iconfu.com - Derivative work of Material icons (Copyright Google Inc.)</desc>
	<defs>
		<clipPath id="clip-SKj5uN0Y">
			<path d="M153.18,51.3h717.63v972.7h-717.63z"/>
		</clipPath>
		<filter id="filter-Uh5jWFvY" x="-18%" y="-6%" width="182%" height="135%" color-interpolation-filters="sRGB">
			<feColorMatrix values="1 0 0 0 0 0 1 0 0 0 0 0 1 0 0 0 0 0 0.2 0" in="SourceGraphic"/>
			<feOffset dy="20"/>
			<feGaussianBlur stdDeviation="11" result="blur0"/>
			<feColorMatrix values="1 0 0 0 0 0 1 0 0 0 0 0 1 0 0 0 0 0 0.3 0" in="SourceGraphic"/>
			<feOffset dy="30"/>
			<feGaussianBlur stdDeviation="20" result="blur1"/>
			<feMerge>
				<feMergeNode in="blur0"/>
				<feMergeNode in="blur1"/>
			</feMerge>
		</filter>
	</defs>
	<g fill="none" fill-rule="nonzero" style="mix-blend-mode: normal">
		<g clip-path="url(#clip-SKj5uN0Y)">
			<path d="M777.82,208.22v607.57c0,63.04 -50.88,113.92 -113.92,113.92h-303.79c-63.04,0 -113.92,-50.88 -113.92,-113.92v-607.57c0,-63.04 50.88,-113.92 113.92,-113.92h303.79c63.04,0 113.92,50.88 113.92,113.92zM711.36,208.22h-398.72v531.62h398.72zM587.94,815.78h-151.89v37.98h151.89z" fill="#000000" filter="url(#filter-Uh5jWFvY)"/>
		</g>
		<g>
			<g color="#039be5" class="teamapps-color-1">
				<path d="M777.82,208.22v607.57c0,63.04 -50.88,113.92 -113.92,113.92h-303.79c-63.04,0 -113.92,-50.88 -113.92,-113.92v-607.57c0,-63.04 50.88,-113.92 113.92,-113.92h303.79c63.04,0 113.92,50.88 113.92,113.92zM711.36,208.22h-398.72v531.62h398.72zM587.94,815.78h-151.89v37.98h151.89z" fill="currentColor"/>
			</g>
		</g>
	</g>
</svg>