<svg version="1.1" xmlns="http://www.w3.org/2000/svg" xmlns:xlink="http://www.w3.org/1999/xlink" viewBox="0,0,1024,1024">
	<!-- Color names: teamapps-color-1 -->
	<desc>settings_remote icon - Licensed under Apache License v2.0 (http://www.apache.org/licenses/LICENSE-2.0) - Created with Iconfu.com - Derivative work of Material icons (Copyright Google Inc.)</desc>
	<defs>
		<clipPath id="clip-HAPci4DR">
			<path d="M123.56,13.32h776.49v1010.68h-776.49z"/>
		</clipPath>
		<filter id="filter-iNykWVUS" x="-16%" y="-5%" width="169%" height="128%" color-interpolation-filters="sRGB">
			<feColorMatrix values="1 0 0 0 0 0 1 0 0 0 0 0 1 0 0 0 0 0 0.2 0" in="SourceGraphic"/>
			<feOffset dy="20"/>
			<feGaussianBlur stdDeviation="11" result="blur0"/>
			<feColorMatrix values="1 0 0 0 0 0 1 0 0 0 0 0 1 0 0 0 0 0 0.3 0" in="SourceGraphic"/>
			<feOffset dy="30"/>
			<feGaussianBlur stdDeviation="20" result="blur1"/>
			<feMerge>
				<feMergeNode in="blur0"/>
				<feMergeNode in="blur1"/>
			</feMerge>
		</filter>
	</defs>
	<g fill="none" fill-rule="nonzero" style="mix-blend-mode: normal">
		<g clip-path="url(#clip-HAPci4DR)">
			<path d="M663.9,436.06v455.68c0,20.89 -17.09,37.97 -37.98,37.97h-227.84c-20.89,0 -37.98,-17.08 -37.98,-37.97v-455.68c0,-20.89 17.09,-37.98 37.98,-37.98h227.84c20.89,0 37.98,17.09 37.98,37.98zM807.05,178.97l-53.54,53.54c-61.52,-61.9 -146.96,-100.25 -241.51,-100.25c-94.55,0 -179.99,38.36 -241.89,99.88l-53.54,-53.54c75.57,-75.57 179.99,-122.28 295.44,-122.28c115.44,0 219.87,46.71 295.05,122.65zM512,208.22c73.29,0 139.74,29.61 187.97,77.84l-53.54,53.54c-34.56,-34.18 -82.02,-55.44 -134.43,-55.44c-52.4,0 -99.87,21.26 -134.43,55.44l-53.54,-53.54c48.23,-48.23 114.68,-77.84 187.97,-77.84zM587.94,549.98c0,-41.77 -34.18,-75.95 -75.94,-75.95c-41.77,0 -75.94,34.18 -75.94,75.95c0,41.77 34.18,75.94 75.94,75.94c41.77,0 75.94,-34.18 75.94,-75.94z" fill="#000000" filter="url(#filter-iNykWVUS)"/>
		</g>
		<g>
			<g color="#039be5" class="teamapps-color-1">
				<path d="M663.9,436.06v455.68c0,20.89 -17.09,37.97 -37.98,37.97h-227.84c-20.89,0 -37.98,-17.08 -37.98,-37.97v-455.68c0,-20.89 17.09,-37.98 37.98,-37.98h227.84c20.89,0 37.98,17.09 37.98,37.98zM807.05,178.97l-53.54,53.54c-61.52,-61.9 -146.96,-100.25 -241.51,-100.25c-94.55,0 -179.99,38.36 -241.89,99.88l-53.54,-53.54c75.57,-75.57 179.99,-122.28 295.44,-122.28c115.44,0 219.87,46.71 295.05,122.65zM512,208.22c73.29,0 139.74,29.61 187.97,77.84l-53.54,53.54c-34.56,-34.18 -82.02,-55.44 -134.43,-55.44c-52.4,0 -99.87,21.26 -134.43,55.44l-53.54,-53.54c48.23,-48.23 114.68,-77.84 187.97,-77.84zM587.94,549.98c0,-41.77 -34.18,-75.95 -75.94,-75.95c-41.77,0 -75.94,34.18 -75.94,75.95c0,41.77 34.18,75.94 75.94,75.94c41.77,0 75.94,-34.18 75.94,-75.94z" fill="currentColor"/>
			</g>
		</g>
	</g>
</svg>