<svg version="1.1" xmlns="http://www.w3.org/2000/svg" xmlns:xlink="http://www.w3.org/1999/xlink" viewBox="0,0,1024,1024">
	<!-- Color names: teamapps-color-1 -->
	<desc>speaker_group icon - Licensed under Apache License v2.0 (http://www.apache.org/licenses/LICENSE-2.0) - Created with Iconfu.com - Derivative work of Material icons (Copyright Google Inc.)</desc>
	<defs>
		<clipPath id="clip-X3mXJOfm">
			<path d="M115.22,51.3h793.57v972.7h-793.57z"/>
		</clipPath>
		<filter id="filter-7M446RPk" x="-16%" y="-6%" width="166%" height="135%" color-interpolation-filters="sRGB">
			<feColorMatrix values="1 0 0 0 0 0 1 0 0 0 0 0 1 0 0 0 0 0 0.2 0" in="SourceGraphic"/>
			<feOffset dy="20"/>
			<feGaussianBlur stdDeviation="11" result="blur0"/>
			<feColorMatrix values="1 0 0 0 0 0 1 0 0 0 0 0 1 0 0 0 0 0 0.3 0" in="SourceGraphic"/>
			<feOffset dy="30"/>
			<feGaussianBlur stdDeviation="20" result="blur1"/>
			<feMerge>
				<feMergeNode in="blur0"/>
				<feMergeNode in="blur1"/>
			</feMerge>
		</filter>
	</defs>
	<g fill="none" fill-rule="nonzero" style="mix-blend-mode: normal">
		<g clip-path="url(#clip-X3mXJOfm)">
			<path d="M815.78,162.65v546.82c0,37.59 -30.76,68.35 -68.35,68.35l-318.98,-0.38c-37.59,0 -68.35,-30.38 -68.35,-67.97v-546.82c0,-37.59 30.76,-68.35 68.35,-68.35h318.98c37.59,0 68.35,30.76 68.35,68.35zM739.84,530.98c0,-83.92 -67.98,-151.89 -151.9,-151.89c-83.92,0 -151.89,67.97 -151.89,151.89c0,83.92 67.97,151.9 151.89,151.9c83.92,0 151.9,-67.98 151.9,-151.9zM512,246.18c0,42.15 34.18,75.95 75.94,75.95c41.77,0 75.95,-33.8 75.95,-75.95c0,-42.15 -34.18,-75.94 -75.95,-75.94c-41.77,0 -75.94,33.79 -75.94,75.94zM493.02,530.98c0,-52.43 42.5,-94.93 94.93,-94.93c52.43,0 94.94,42.5 94.94,94.93c0,52.43 -42.51,94.94 -94.94,94.94c-52.43,0 -94.93,-42.51 -94.93,-94.94zM284.16,853.76h379.74v75.94h-379.74c-42.15,0 -75.94,-34.18 -75.94,-75.94v-607.58h75.94z" fill="#000000" filter="url(#filter-7M446RPk)"/>
		</g>
		<g>
			<g color="#039be5" class="teamapps-color-1">
				<path d="M815.78,162.65v546.82c0,37.59 -30.76,68.35 -68.35,68.35l-318.98,-0.38c-37.59,0 -68.35,-30.38 -68.35,-67.97v-546.82c0,-37.59 30.76,-68.35 68.35,-68.35h318.98c37.59,0 68.35,30.76 68.35,68.35zM739.84,530.98c0,-83.92 -67.98,-151.89 -151.9,-151.89c-83.92,0 -151.89,67.97 -151.89,151.89c0,83.92 67.97,151.9 151.89,151.9c83.92,0 151.9,-67.98 151.9,-151.9zM512,246.18c0,42.15 34.18,75.95 75.94,75.95c41.77,0 75.95,-33.8 75.95,-75.95c0,-42.15 -34.18,-75.94 -75.95,-75.94c-41.77,0 -75.94,33.79 -75.94,75.94z" fill="currentColor"/>
			</g>
			<g color="#039be5" class="teamapps-color-1">
				<path d="M493.02,530.98c0,-52.43 42.5,-94.93 94.93,-94.93c52.43,0 94.94,42.5 94.94,94.93c0,52.43 -42.51,94.94 -94.94,94.94c-52.43,0 -94.93,-42.51 -94.93,-94.94z" fill="currentColor"/>
			</g>
			<g color="#039be5" class="teamapps-color-1">
				<path d="M284.16,853.76h379.74v75.94h-379.74c-42.15,0 -75.94,-34.18 -75.94,-75.94v-607.58h75.94z" fill="currentColor"/>
			</g>
		</g>
	</g>
</svg>