<svg version="1.1" xmlns="http://www.w3.org/2000/svg" xmlns:xlink="http://www.w3.org/1999/xlink" viewBox="0,0,1024,1024">
	<!-- Color names: teamapps-color-1 -->
	<desc>tonality icon - Licensed under Apache License v2.0 (http://www.apache.org/licenses/LICENSE-2.0) - Created with Iconfu.com - Derivative work of Material icons (Copyright Google Inc.)</desc>
	<defs>
		<clipPath id="clip-OS8LifJS">
			<path d="M39.26,89.26h945.47v934.74h-945.47z"/>
		</clipPath>
		<filter id="filter-GpsY68QB" x="-13%" y="-6%" width="143%" height="143%" color-interpolation-filters="sRGB">
			<feColorMatrix values="1 0 0 0 0 0 1 0 0 0 0 0 1 0 0 0 0 0 0.2 0" in="SourceGraphic"/>
			<feOffset dy="20"/>
			<feGaussianBlur stdDeviation="11" result="blur0"/>
			<feColorMatrix values="1 0 0 0 0 0 1 0 0 0 0 0 1 0 0 0 0 0 0.3 0" in="SourceGraphic"/>
			<feOffset dy="30"/>
			<feGaussianBlur stdDeviation="20" result="blur1"/>
			<feMerge>
				<feMergeNode in="blur0"/>
				<feMergeNode in="blur1"/>
			</feMerge>
		</filter>
	</defs>
	<g fill="none" fill-rule="nonzero" style="mix-blend-mode: normal">
		<g clip-path="url(#clip-OS8LifJS)">
			<path d="M891.74,512c0,209.61 -170.12,379.74 -379.74,379.74c-209.61,0 -379.74,-170.12 -379.74,-379.74c0,-209.61 170.12,-379.74 379.74,-379.74c209.61,0 379.74,170.12 379.74,379.74zM474.02,210.87c-149.99,18.61 -265.81,146.2 -265.81,301.13c0,154.93 116.19,282.52 265.81,301.13zM549.98,474.02h263.16c-1.52,-12.91 -4.18,-25.44 -7.22,-37.97h-255.94zM813.13,549.98h-263.16v37.97h255.94c3.03,-12.53 5.7,-25.05 7.22,-37.97zM549.98,360.1h224.8c-7.59,-13.29 -16.32,-26.19 -25.82,-37.97h-198.98zM774.77,663.9h-224.8v37.97h198.98c9.5,-11.77 18.23,-24.68 25.82,-37.97zM549.98,246.18h108.98c-33.04,-18.23 -69.87,-30.38 -108.98,-35.32zM658.96,777.82h-108.98v35.32c39.12,-4.94 75.94,-17.09 108.98,-35.32z" fill="#000000" filter="url(#filter-GpsY68QB)"/>
		</g>
		<g>
			<g color="#039be5" class="teamapps-color-1">
				<path d="M891.74,512c0,209.61 -170.12,379.74 -379.74,379.74c-209.61,0 -379.74,-170.12 -379.74,-379.74c0,-209.61 170.12,-379.74 379.74,-379.74c209.61,0 379.74,170.12 379.74,379.74zM474.02,210.87c-149.99,18.61 -265.81,146.2 -265.81,301.13c0,154.93 116.19,282.52 265.81,301.13zM549.98,474.02h263.16c-1.52,-12.91 -4.18,-25.44 -7.22,-37.97h-255.94zM813.13,549.98h-263.16v37.97h255.94c3.03,-12.53 5.7,-25.05 7.22,-37.97zM549.98,360.1h224.8c-7.59,-13.29 -16.32,-26.19 -25.82,-37.97h-198.98zM774.77,663.9h-224.8v37.97h198.98c9.5,-11.77 18.23,-24.68 25.82,-37.97zM549.98,246.18h108.98c-33.04,-18.23 -69.87,-30.38 -108.98,-35.32zM658.96,777.82h-108.98v35.32c39.12,-4.94 75.94,-17.09 108.98,-35.32z" fill="currentColor"/>
			</g>
		</g>
	</g>
</svg>