<svg version="1.1" xmlns="http://www.w3.org/2000/svg" xmlns:xlink="http://www.w3.org/1999/xlink" viewBox="0,0,1024,1024">
	<!-- Color names: teamapps-color-1 -->
	<desc>video_library icon - Licensed under Apache License v2.0 (http://www.apache.org/licenses/LICENSE-2.0) - Created with Iconfu.com - Derivative work of Material icons (Copyright Google Inc.)</desc>
	<defs>
		<clipPath id="clip-J7Nj0kHn">
			<path d="M39.26,89.26h945.47v934.74h-945.47z"/>
		</clipPath>
		<filter id="filter-xTGFV7JR" x="-13%" y="-6%" width="143%" height="143%" color-interpolation-filters="sRGB">
			<feColorMatrix values="1 0 0 0 0 0 1 0 0 0 0 0 1 0 0 0 0 0 0.2 0" in="SourceGraphic"/>
			<feOffset dy="20"/>
			<feGaussianBlur stdDeviation="11" result="blur0"/>
			<feColorMatrix values="1 0 0 0 0 0 1 0 0 0 0 0 1 0 0 0 0 0 0.3 0" in="SourceGraphic"/>
			<feOffset dy="30"/>
			<feGaussianBlur stdDeviation="20" result="blur1"/>
			<feMerge>
				<feMergeNode in="blur0"/>
				<feMergeNode in="blur1"/>
			</feMerge>
		</filter>
	</defs>
	<g fill="none" fill-rule="nonzero" style="mix-blend-mode: normal">
		<g clip-path="url(#clip-J7Nj0kHn)">
			<path d="M208.22,815.78h531.62v75.95h-531.62c-41.77,0 -75.95,-34.18 -75.95,-75.95v-531.62h75.95zM891.74,208.22v455.68c0,41.77 -34.18,75.94 -75.95,75.94h-455.68c-41.77,0 -75.94,-34.18 -75.94,-75.94v-455.68c0,-41.77 34.18,-75.95 75.94,-75.95h455.68c41.77,0 75.95,34.18 75.95,75.95zM739.84,436.06l-227.84,-170.88v341.76z" fill="#000000" filter="url(#filter-xTGFV7JR)"/>
		</g>
		<g>
			<g color="#039be5" class="teamapps-color-1">
				<path d="M208.22,815.78h531.62v75.95h-531.62c-41.77,0 -75.95,-34.18 -75.95,-75.95v-531.62h75.95zM891.74,208.22v455.68c0,41.77 -34.18,75.94 -75.95,75.94h-455.68c-41.77,0 -75.94,-34.18 -75.94,-75.94v-455.68c0,-41.77 34.18,-75.95 75.94,-75.95h455.68c41.77,0 75.95,34.18 75.95,75.95zM739.84,436.06l-227.84,-170.88v341.76z" fill="currentColor"/>
			</g>
		</g>
	</g>
</svg>