<svg version="1.1" xmlns="http://www.w3.org/2000/svg" xmlns:xlink="http://www.w3.org/1999/xlink" viewBox="0,0,1024,1024">
	<!-- Color names: teamapps-color-1 -->
	<desc>vpn_lock icon - Licensed under Apache License v2.0 (http://www.apache.org/licenses/LICENSE-2.0) - Created with Iconfu.com - Derivative work of Material icons (Copyright Google Inc.)</desc>
	<defs>
		<clipPath id="clip-fcKc4Ooc">
			<path d="M1.3,51.3h1021.41v972.7h-1021.41z"/>
		</clipPath>
		<filter id="filter-zqCHIDCG" x="-12%" y="-6%" width="135%" height="135%" color-interpolation-filters="sRGB">
			<feColorMatrix values="1 0 0 0 0 0 1 0 0 0 0 0 1 0 0 0 0 0 0.2 0" in="SourceGraphic"/>
			<feOffset dy="20"/>
			<feGaussianBlur stdDeviation="11" result="blur0"/>
			<feColorMatrix values="1 0 0 0 0 0 1 0 0 0 0 0 1 0 0 0 0 0 0.3 0" in="SourceGraphic"/>
			<feOffset dy="30"/>
			<feGaussianBlur stdDeviation="20" result="blur1"/>
			<feMerge>
				<feMergeNode in="blur0"/>
				<feMergeNode in="blur1"/>
			</feMerge>
		</filter>
	</defs>
	<g fill="none" fill-rule="nonzero" style="mix-blend-mode: normal">
		<g clip-path="url(#clip-fcKc4Ooc)">
			<path d="M851.86,512c1.14,12.53 1.9,25.06 1.9,37.98c0,209.61 -170.12,379.73 -379.74,379.73c-209.61,0 -379.73,-170.11 -379.73,-379.73c0,-209.61 170.11,-379.74 379.73,-379.74c39.87,0 77.85,6.08 113.92,17.47v96.45c0,41.77 -34.18,75.94 -75.94,75.94h-75.94v75.95c0,20.89 -17.09,37.97 -37.98,37.97h-75.94v75.95h227.84c20.89,0 37.97,17.08 37.97,37.97v113.92h37.98c34.18,0 62.28,22.03 72.15,52.79c49.37,-53.93 79.74,-125.69 79.74,-204.67c0,-12.91 -1.52,-25.45 -3.04,-37.98zM436.06,777.82c-41.77,0 -75.95,-34.18 -75.95,-75.95v-37.97l-181.89,-181.9c-4.94,22.03 -7.97,44.44 -7.97,67.98c0,154.93 115.82,282.51 265.82,301.12zM929.7,246.18v151.9c0,20.89 -17.08,37.98 -37.97,37.98h-189.87c-20.89,0 -37.97,-17.09 -37.97,-37.98v-151.9c0,-20.89 17.08,-37.97 37.97,-37.97v-18.99c0,-52.4 42.53,-94.93 94.94,-94.93c52.4,0 94.94,42.52 94.94,94.93v18.99c20.89,0 37.97,17.08 37.97,37.97zM861.35,189.22c0,-35.7 -28.85,-64.55 -64.55,-64.55c-35.7,0 -64.55,28.85 -64.55,64.55v18.99h129.1z" fill="#000000" filter="url(#filter-zqCHIDCG)"/>
		</g>
		<g>
			<g color="#039be5" class="teamapps-color-1">
				<path d="M851.86,512c1.14,12.53 1.9,25.06 1.9,37.98c0,209.61 -170.12,379.73 -379.74,379.73c-209.61,0 -379.73,-170.11 -379.73,-379.73c0,-209.61 170.11,-379.74 379.73,-379.74c39.87,0 77.85,6.08 113.92,17.47v96.45c0,41.77 -34.18,75.94 -75.94,75.94h-75.94v75.95c0,20.89 -17.09,37.97 -37.98,37.97h-75.94v75.95h227.84c20.89,0 37.97,17.08 37.97,37.97v113.92h37.98c34.18,0 62.28,22.03 72.15,52.79c49.37,-53.93 79.74,-125.69 79.74,-204.67c0,-12.91 -1.52,-25.45 -3.04,-37.98zM436.06,777.82c-41.77,0 -75.95,-34.18 -75.95,-75.95v-37.97l-181.89,-181.9c-4.94,22.03 -7.97,44.44 -7.97,67.98c0,154.93 115.82,282.51 265.82,301.12zM929.7,246.18v151.9c0,20.89 -17.08,37.98 -37.97,37.98h-189.87c-20.89,0 -37.97,-17.09 -37.97,-37.98v-151.9c0,-20.89 17.08,-37.97 37.97,-37.97v-18.99c0,-52.4 42.53,-94.93 94.94,-94.93c52.4,0 94.94,42.52 94.94,94.93v18.99c20.89,0 37.97,17.08 37.97,37.97zM861.35,189.22c0,-35.7 -28.85,-64.55 -64.55,-64.55c-35.7,0 -64.55,28.85 -64.55,64.55v18.99h129.1z" fill="currentColor"/>
			</g>
		</g>
	</g>
</svg>