<svg version="1.1" xmlns="http://www.w3.org/2000/svg" xmlns:xlink="http://www.w3.org/1999/xlink" viewBox="0,0,1024,1024">
	<!-- Color names: teamapps-color-1 -->
	<desc>wb_iridescent icon - Licensed under Apache License v2.0 (http://www.apache.org/licenses/LICENSE-2.0) - Created with Iconfu.com - Derivative work of Material icons (Copyright Google Inc.)</desc>
	<defs>
		<clipPath id="clip-9ix9xp5C">
			<path d="M98.13,34.21h828.13v989.79h-828.13z"/>
		</clipPath>
		<filter id="filter-7duNLasM" x="-15%" y="-6%" width="160%" height="133%" color-interpolation-filters="sRGB">
			<feColorMatrix values="1 0 0 0 0 0 1 0 0 0 0 0 1 0 0 0 0 0 0.2 0" in="SourceGraphic"/>
			<feOffset dy="20"/>
			<feGaussianBlur stdDeviation="11" result="blur0"/>
			<feColorMatrix values="1 0 0 0 0 0 1 0 0 0 0 0 1 0 0 0 0 0 0.3 0" in="SourceGraphic"/>
			<feOffset dy="30"/>
			<feGaussianBlur stdDeviation="20" result="blur1"/>
			<feMerge>
				<feMergeNode in="blur0"/>
				<feMergeNode in="blur1"/>
			</feMerge>
		</filter>
	</defs>
	<g fill="none" fill-rule="nonzero" style="mix-blend-mode: normal">
		<g clip-path="url(#clip-9ix9xp5C)">
			<path d="M246.18,379.1h531.63v227.84h-531.63zM778.96,814.27l-67.98,-68.35l53.54,-53.54l68.35,67.97zM191.13,759.96l67.97,-67.97l53.54,53.54l-67.97,68.35zM833.25,225.68l-68.35,67.98l-53.54,-53.54l67.97,-67.98zM244.67,172.14l67.97,67.98l-53.54,53.54l-67.97,-67.98zM549.98,77.21v112.02h-75.95v-112.02zM474.02,908.82v-112.02h75.95v112.02z" fill="#000000" filter="url(#filter-7duNLasM)"/>
		</g>
		<g>
			<g color="#039be5" class="teamapps-color-1">
				<path d="M246.18,379.1h531.63v227.84h-531.63zM778.96,814.27l-67.98,-68.35l53.54,-53.54l68.35,67.97zM191.13,759.96l67.97,-67.97l53.54,53.54l-67.97,68.35zM833.25,225.68l-68.35,67.98l-53.54,-53.54l67.97,-67.98zM244.67,172.14l67.97,67.98l-53.54,53.54l-67.97,-67.98zM549.98,77.21v112.02h-75.95v-112.02zM474.02,908.82v-112.02h75.95v112.02z" fill="currentColor"/>
			</g>
		</g>
	</g>
</svg>