<svg version="1.1" xmlns="http://www.w3.org/2000/svg" xmlns:xlink="http://www.w3.org/1999/xlink" viewBox="0,0,1024,1024">
	<!-- Color names: teamapps-color-1 -->
	<desc>wb_incandescent icon - Licensed under Apache License v2.0 (http://www.apache.org/licenses/LICENSE-2.0) - Created with Iconfu.com - Derivative work of Material icons (Copyright Google Inc.)</desc>
	<defs>
		<clipPath id="clip-CDmPjeP3">
			<path d="M1.3,70.28h1021.41v953.72h-1021.41z"/>
		</clipPath>
		<filter id="filter-peiQGjU2" x="-12%" y="-6%" width="135%" height="139%" color-interpolation-filters="sRGB">
			<feColorMatrix values="1 0 0 0 0 0 1 0 0 0 0 0 1 0 0 0 0 0 0.2 0" in="SourceGraphic"/>
			<feOffset dy="20"/>
			<feGaussianBlur stdDeviation="11" result="blur0"/>
			<feColorMatrix values="1 0 0 0 0 0 1 0 0 0 0 0 1 0 0 0 0 0 0.3 0" in="SourceGraphic"/>
			<feOffset dy="30"/>
			<feGaussianBlur stdDeviation="20" result="blur1"/>
			<feMerge>
				<feMergeNode in="blur0"/>
				<feMergeNode in="blur1"/>
			</feMerge>
		</filter>
	</defs>
	<g fill="none" fill-rule="nonzero" style="mix-blend-mode: normal">
		<g clip-path="url(#clip-CDmPjeP3)">
			<path d="M739.84,493.02c0,125.69 -102.15,227.84 -227.84,227.84c-125.69,0 -227.84,-102.15 -227.84,-227.84c0,-84.3 45.95,-157.59 113.92,-197.08v-182.65h227.84v182.65c67.97,39.49 113.92,112.78 113.92,197.08zM259.1,691.99l53.54,53.54l-67.97,68.35l-53.54,-53.54zM764.15,692.75l68.35,67.98l-53.54,53.54l-67.98,-68.35zM208.22,530.98h-113.92v-75.94h113.92zM929.7,455.04v75.94h-113.92v-75.94zM474.02,796.8h75.95v112.02h-75.95z" fill="#000000" filter="url(#filter-peiQGjU2)"/>
		</g>
		<g>
			<g color="#039be5" class="teamapps-color-1">
				<path d="M739.84,493.02c0,125.69 -102.15,227.84 -227.84,227.84c-125.69,0 -227.84,-102.15 -227.84,-227.84c0,-84.3 45.95,-157.59 113.92,-197.08v-182.65h227.84v182.65c67.97,39.49 113.92,112.78 113.92,197.08zM259.1,691.99l53.54,53.54l-67.97,68.35l-53.54,-53.54zM764.15,692.75l68.35,67.98l-53.54,53.54l-67.98,-68.35zM208.22,530.98h-113.92v-75.94h113.92zM929.7,455.04v75.94h-113.92v-75.94zM474.02,796.8h75.95v112.02h-75.95z" fill="currentColor"/>
			</g>
		</g>
	</g>
</svg>