<svg version="1.1" xmlns="http://www.w3.org/2000/svg" xmlns:xlink="http://www.w3.org/1999/xlink" viewBox="0,0,1024,1024">
	<!-- Color names: teamapps-color-1 -->
	<desc>account_box icon - Licensed under Apache License v2.0 (http://www.apache.org/licenses/LICENSE-2.0) - Created with Iconfu.com - Derivative work of Material icons (Copyright Google Inc.)</desc>
	<g fill="none" fill-rule="nonzero" style="mix-blend-mode: normal">
		<g color="#039be5" class="teamapps-color-1">
			<path d="M249.17,112.64h525.66c75.23,0 136.53,61.3 136.53,136.53v525.66c0,75.23 -61.3,136.53 -136.53,136.53h-525.66c-75.82,0 -136.53,-61.51 -136.53,-136.53v-525.66c0,-75.02 60.71,-136.53 136.53,-136.53zM512,644.78c-46.29,0 -97.03,15.07 -129.77,31.06h259.54c-32.74,-15.98 -83.48,-31.06 -129.77,-31.06zM512,348.16c-28.4,0 -51.2,22.8 -51.2,51.2c0,28.4 22.8,51.2 51.2,51.2c28.4,0 51.2,-22.8 51.2,-51.2c0,-28.4 -22.8,-51.2 -51.2,-51.2zM174.08,249.17v525.66c0,41.3 33.41,75.09 75.09,75.09h525.66c41.3,0 75.09,-33.79 75.09,-75.09v-525.66c0,-41.3 -33.79,-75.09 -75.09,-75.09h-525.66c-41.68,0 -75.09,33.79 -75.09,75.09zM286.72,699.73c0,-75.09 150.19,-116.39 225.28,-116.39c75.09,0 225.28,41.3 225.28,116.39v37.55h-450.56zM624.64,399.36c0,62.33 -50.31,112.64 -112.64,112.64c-62.33,0 -112.64,-50.31 -112.64,-112.64c0,-62.33 50.31,-112.64 112.64,-112.64c62.33,0 112.64,50.31 112.64,112.64z" fill="currentColor"/>
		</g>
	</g>
</svg>