<svg version="1.1" xmlns="http://www.w3.org/2000/svg" xmlns:xlink="http://www.w3.org/1999/xlink" viewBox="0,0,1024,1024">
	<!-- Color names: teamapps-color-1 -->
	<desc>adb icon - Licensed under Apache License v2.0 (http://www.apache.org/licenses/LICENSE-2.0) - Created with Iconfu.com - Derivative work of Material icons (Copyright Google Inc.)</desc>
	<g fill="none" fill-rule="nonzero" style="mix-blend-mode: normal">
		<g color="#039be5" class="teamapps-color-1">
			<path d="M836.27,512v150.19c0,179.24 -145.03,324.26 -324.27,324.26c-179.24,0 -324.27,-145.02 -324.27,-324.26v-150.19c0,-6.55 1.02,-12.86 2.92,-18.77c-1.9,-5.92 -2.92,-12.23 -2.92,-18.77v-37.54c0,-82.1 30.78,-156.53 80.86,-213.21l-33.58,-33.58c-23.89,-23.89 -24.01,-62.59 -0.26,-86.63l30.79,-31.16c23.95,-24.24 63.05,-24.36 87.15,-0.26l57.6,57.6c31.64,-10.84 65.72,-17.02 101.71,-17.02c36.08,0 70.2,6.22 101.93,17.05l57.28,-57.54c24.08,-24.18 63.25,-24.11 87.24,0.16l30.79,31.16c23.75,24.03 23.63,62.74 -0.26,86.63l-33.58,33.58c50.08,56.69 80.86,131.11 80.86,213.21v37.54c0,6.55 -1.02,12.86 -2.92,18.77c1.9,5.92 2.92,12.23 2.92,18.77zM249.17,662.19c0,145.31 117.52,262.82 262.83,262.82c145.31,0 262.83,-117.52 262.83,-262.82v-150.19h-525.66zM666.7,225.52l78.85,-78.85l-30.79,-31.16l-86.35,86.73c-35.3,-17.64 -74.34,-28.16 -116.4,-28.16c-42.06,0 -81.1,10.52 -116.02,28.16l-86.73,-86.73l-30.79,31.16l78.85,78.85c-65.33,47.69 -108.13,124.28 -108.13,211.39v37.54h525.66v-37.54c0,-87.11 -42.8,-163.71 -108.13,-211.39zM624.64,399.36c-20.65,0 -37.55,-16.9 -37.55,-37.55c0,-20.65 16.9,-37.54 37.55,-37.54c20.65,0 37.55,16.89 37.55,37.54c0,20.65 -16.9,37.55 -37.55,37.55zM399.36,399.36c-20.65,0 -37.55,-16.9 -37.55,-37.55c0,-20.65 16.9,-37.54 37.55,-37.54c20.65,0 37.55,16.89 37.55,37.54c0,20.65 -16.9,37.55 -37.55,37.55z" fill="currentColor"/>
		</g>
	</g>
</svg>