<svg version="1.1" xmlns="http://www.w3.org/2000/svg" xmlns:xlink="http://www.w3.org/1999/xlink" viewBox="0,0,1024,1024">
	<!-- Color names: teamapps-color-1 -->
	<desc>airline_seat_flat_angled icon - Licensed under Apache License v2.0 (http://www.apache.org/licenses/LICENSE-2.0) - Created with Iconfu.com - Derivative work of Material icons (Copyright Google Inc.)</desc>
	<g fill="none" fill-rule="nonzero" style="mix-blend-mode: normal">
		<g color="#039be5" class="teamapps-color-1">
			<path d="M505.83,230.8l321.41,116.02c110.55,40.01 168.03,161.59 127.3,272.31l-25.88,70.89c-2.3,6.31 -5.53,12.01 -9.48,17.01c-0.31,5.97 -1.5,12 -3.66,17.91l-25.91,70.96c-11.6,31.79 -46.73,48.21 -78.56,36.73l-92.48,-33.35c-9.45,21.77 -31.14,37 -56.39,37h-300.38c-33.93,0 -61.44,-27.51 -61.44,-61.44v-126.54l-203.42,-73.23c-32.03,-11.53 -48.58,-46.9 -36.9,-78.88l25.91,-70.96c6.01,-16.46 18.33,-28.81 33.23,-35.28c-22.47,-79.89 14.75,-166.74 92.21,-203.7c81.53,-39.09 178,-9.32 224.05,65.96c15.71,-21.4 44.17,-30.85 70.38,-21.39zM117.76,517.25l244.05,87.86v169.72h300.38v-61.2l169.71,61.2l25.91,-70.96l-714.14,-257.58zM806.37,404.61l-321.4,-116.02l-78.1,212.52l464.08,167.83l25.91,-70.96c28.91,-78.47 -11.63,-164.83 -90.48,-193.37zM335.53,444.42c55.94,-27.03 79.6,-94.25 52.94,-150.19c-27.03,-55.94 -94.25,-79.6 -150.57,-52.56c-55.94,26.66 -79.6,93.87 -52.56,150.19c26.66,55.94 93.87,79.6 150.19,52.56z" fill="currentColor"/>
		</g>
	</g>
</svg>