<svg version="1.1" xmlns="http://www.w3.org/2000/svg" xmlns:xlink="http://www.w3.org/1999/xlink" viewBox="0,0,1024,1024">
	<!-- Color names: teamapps-color-1 -->
	<desc>brightness_7 icon - Licensed under Apache License v2.0 (http://www.apache.org/licenses/LICENSE-2.0) - Created with Iconfu.com - Derivative work of Material icons (Copyright Google Inc.)</desc>
	<g fill="none" fill-rule="nonzero" style="mix-blend-mode: normal">
		<g color="#039be5" class="teamapps-color-1">
			<path d="M980.1,555.44l-106.29,106.29v150.64c0,33.93 -27.51,61.44 -61.44,61.44h-150.64l-106.29,106.29c-23.99,23.99 -62.9,23.99 -86.89,0l-106.29,-106.29h-150.64c-33.93,0 -61.44,-27.51 -61.44,-61.44v-150.64l-106.29,-106.29c-23.99,-23.99 -23.99,-62.9 0,-86.89l106.29,-106.29v-150.64c0,-33.93 27.51,-61.44 61.44,-61.44h150.64l106.29,-106.29c23.99,-23.99 62.9,-23.99 86.89,0l106.29,106.29h150.64c33.93,0 61.44,27.51 61.44,61.44v150.64l106.29,106.29c23.99,23.99 23.99,62.9 0,86.89zM812.37,387.72v-176.09h-176.09l-124.28,-124.28l-124.28,124.28h-176.09v176.09l-124.28,124.28l124.28,124.28v176.09h176.09l124.28,124.28l124.28,-124.28h176.09v-176.09l124.28,-124.28zM512,737.28c-124.28,0 -225.28,-101 -225.28,-225.28c0,-124.28 101,-225.28 225.28,-225.28c124.28,0 225.28,101 225.28,225.28c0,124.28 -101,225.28 -225.28,225.28zM512,361.81c-82.98,0 -150.19,67.21 -150.19,150.19c0,82.98 67.21,150.19 150.19,150.19c82.98,0 150.19,-67.21 150.19,-150.19c0,-82.98 -67.21,-150.19 -150.19,-150.19z" fill="currentColor"/>
		</g>
	</g>
</svg>