<svg version="1.1" xmlns="http://www.w3.org/2000/svg" xmlns:xlink="http://www.w3.org/1999/xlink" viewBox="0,0,1024,1024">
	<!-- Color names: teamapps-color-1 -->
	<desc>camera_rear icon - Licensed under Apache License v2.0 (http://www.apache.org/licenses/LICENSE-2.0) - Created with Iconfu.com - Derivative work of Material icons (Copyright Google Inc.)</desc>
	<g fill="none" fill-rule="nonzero" style="mix-blend-mode: normal">
		<g color="#039be5" class="teamapps-color-1">
			<path d="M836.27,136.53v525.66c0,36.21 -14.2,69.19 -37.32,93.66c21.94,9.38 37.32,31.15 37.32,56.52v75.1c0,33.93 -27.51,61.44 -61.44,61.44h-187.74c-13.96,0 -26.83,-4.65 -37.15,-12.5l-69.59,69.59c-17.57,17.57 -44,22.83 -66.96,13.32c-22.96,-9.51 -37.93,-31.91 -37.93,-56.76v-13.65h-126.3c-33.93,0 -61.44,-27.51 -61.44,-61.44v-75.1c0,-25.37 15.38,-47.15 37.32,-56.52c-23.12,-24.47 -37.32,-57.45 -37.32,-93.66v-525.66c0,-75.24 61.32,-136.53 136.54,-136.53h375.46c75.22,0 136.54,61.29 136.54,136.53zM511.62,197.97c-6.97,0 -13.27,5.89 -13.27,13.66c0,7.56 6.1,13.65 13.65,13.65c7.48,0 13.35,-6.27 13.28,-13.09c0,-0.16 0,-0.33 0,-0.49c0,-7.44 -6.37,-13.73 -13.66,-13.73zM699.73,61.44h-375.46c-41.3,0 -75.1,33.79 -75.1,75.09v525.66c0,41.3 33.8,75.09 75.1,75.09h112.64v75.09h-187.74v75.1h187.74v75.09l112.64,-112.64l-112.64,-112.64h262.82c41.3,0 75.1,-33.79 75.1,-75.09v-525.66c0,-41.3 -33.8,-75.09 -75.1,-75.09zM512,286.72c-41.68,0 -75.09,-33.79 -75.09,-75.09c0,-41.3 33.41,-75.1 74.71,-75.1c41.3,0 75.1,33.8 75.1,75.1c0.38,41.3 -33.42,75.09 -74.72,75.09zM587.09,812.37v75.1h187.74v-75.1z" fill="currentColor"/>
		</g>
	</g>
</svg>