<svg version="1.1" xmlns="http://www.w3.org/2000/svg" xmlns:xlink="http://www.w3.org/1999/xlink" viewBox="0,0,1024,1024">
	<!-- Color names: teamapps-color-1 -->
	<desc>cloud_queue icon - Licensed under Apache License v2.0 (http://www.apache.org/licenses/LICENSE-2.0) - Created with Iconfu.com - Derivative work of Material icons (Copyright Google Inc.)</desc>
	<g fill="none" fill-rule="nonzero" style="mix-blend-mode: normal">
		<g color="#039be5" class="teamapps-color-1">
			<path d="M1024,624.64c0,137.56 -111.61,249.17 -249.17,249.17h-488.11c-158.21,0 -286.72,-128.51 -286.72,-286.72c0,-136.55 95.58,-251.01 223.79,-279.62c60.96,-94.49 167.23,-157.29 288.21,-157.29c151.39,0 279.61,97.91 325.1,234.15c107.29,27.46 186.9,123.99 186.9,240.3zM826.03,624.64c0,-28.4 -22.8,-51.2 -51.2,-51.2h-56.32c-33.93,0 -61.44,-27.51 -61.44,-61.44v-18.77c0,-80.21 -64.86,-145.07 -145.07,-145.07c-66.25,0 -122.04,44.36 -139.55,105.63c-7.54,26.38 -31.64,44.56 -59.08,44.56h-26.66c-49.05,0 -88.75,39.7 -88.75,88.74c0,49.04 39.71,88.75 88.75,88.75h488.11c28.4,0 51.2,-22.8 51.2,-51.2zM787.97,438.41c-25.53,-129.54 -139.3,-226.78 -275.97,-226.78c-108.51,0 -202.75,61.57 -249.68,151.69c-113.02,12.01 -200.88,107.76 -200.88,223.78c0,124.28 101,225.28 225.28,225.28h488.11c103.63,0 187.73,-84.1 187.73,-187.73c0,-99.12 -76.97,-179.48 -174.59,-186.23zM774.83,737.28h-488.11c-82.98,0 -150.19,-67.21 -150.19,-150.19c0,-82.98 67.21,-150.18 150.19,-150.18h26.66c24.78,-86.73 104.01,-150.19 198.62,-150.19c114.14,0 206.51,92.36 206.51,206.51v18.77h56.32c62.33,0 112.64,50.31 112.64,112.64c0,62.33 -50.31,112.64 -112.64,112.64z" fill="currentColor"/>
		</g>
	</g>
</svg>