<svg version="1.1" xmlns="http://www.w3.org/2000/svg" xmlns:xlink="http://www.w3.org/1999/xlink" viewBox="0,0,1024,1024">
	<!-- Color names: teamapps-color-1 -->
	<desc>cloud_off icon - Licensed under Apache License v2.0 (http://www.apache.org/licenses/LICENSE-2.0) - Created with Iconfu.com - Derivative work of Material icons (Copyright Google Inc.)</desc>
	<g fill="none" fill-rule="nonzero" style="mix-blend-mode: normal">
		<g color="#039be5" class="teamapps-color-1">
			<path d="M265.21,168.18l48.58,48.58c4.1,-5.03 9.01,-9.44 14.6,-13.01c53.05,-33.84 115.88,-53.57 183.6,-53.57c151.39,0 279.61,97.91 325.1,234.15c107.29,27.46 186.9,123.99 186.9,240.3c0,84.17 -42.16,157.81 -104.88,202.75c-2.64,1.89 -5.38,3.55 -8.21,4.97c2.19,18.1 -3.66,36.98 -17.55,50.87l-47.69,47.69c-23.99,23.99 -62.9,23.99 -86.89,0l-57.09,-57.1h-414.97c-158.21,0 -286.72,-128.51 -286.72,-286.72c0,-112.52 64.85,-209.32 158.79,-256.29l-28.07,-27.97c-24.07,-23.98 -24.1,-62.95 -0.07,-86.97l47.69,-47.68c23.99,-23.99 62.89,-23.99 86.89,0zM799.11,669.28c16.37,-9.07 26.92,-26.06 26.92,-44.64c0,-28.4 -22.8,-51.2 -51.2,-51.2h-56.32c-33.93,0 -61.44,-27.51 -61.44,-61.44v-18.77c0,-80.21 -64.86,-145.07 -145.07,-145.07c-19.71,0 -38.53,4 -55.64,11.17l324.9,324.9c4.88,-6 10.91,-11.1 17.86,-14.94zM286.72,498.35c-49.05,0 -88.75,39.7 -88.75,88.74c0,49.04 39.71,88.75 88.75,88.75h217l-177.5,-177.49zM174.08,259.31l103.25,102.88c-119.78,5.25 -215.89,103.63 -215.89,224.9c0,124.28 101,225.28 225.28,225.28h440.42l75.09,75.1l47.69,-47.69l-628.15,-628.15zM787.97,438.41c-25.53,-129.54 -139.3,-226.78 -275.97,-226.78c-55.57,0 -107.01,16.15 -150.56,43.93l54.82,54.82c28.54,-15.02 61.2,-23.65 95.74,-23.65c114.14,0 206.51,92.36 206.51,206.51v18.77h56.32c62.33,0 112.64,50.31 112.64,112.64c0,42.42 -24.03,79.23 -58.57,98.38l54.44,54.44c47.69,-34.17 79.23,-89.73 79.23,-152.81c0,-99.12 -76.97,-179.48 -174.59,-186.23zM351.67,436.91l300.38,300.37h-365.33c-82.98,0 -150.19,-67.21 -150.19,-150.19c0,-82.98 67.21,-150.18 150.19,-150.18z" fill="currentColor"/>
		</g>
	</g>
</svg>