<svg version="1.1" xmlns="http://www.w3.org/2000/svg" xmlns:xlink="http://www.w3.org/1999/xlink" viewBox="0,0,1024,1024">
	<!-- Color names: teamapps-color-1 -->
	<desc>collections_bookmark icon - Licensed under Apache License v2.0 (http://www.apache.org/licenses/LICENSE-2.0) - Created with Iconfu.com - Derivative work of Material icons (Copyright Google Inc.)</desc>
	<g fill="none" fill-rule="nonzero" style="mix-blend-mode: normal">
		<g color="#039be5" class="teamapps-color-1">
			<path d="M798.72,812.37v75.1c0,33.93 -27.51,61.44 -61.44,61.44h-525.65c-75.23,0 -136.54,-61.31 -136.54,-136.54v-525.65c0,-33.93 27.51,-61.44 61.44,-61.44h75.1c4.69,0 9.26,0.53 13.65,1.52v-15.17c0,-75.22 61.29,-136.54 136.53,-136.54h450.56c75.23,0 136.54,61.31 136.54,136.54v450.56c0,75.24 -61.32,136.53 -136.54,136.53h-15.17c1,4.39 1.52,8.96 1.52,13.65zM686.08,273.07v130.42l0.82,-0.49c19.46,-11.67 43.77,-11.67 63.22,0l0.81,0.49v-130.41zM211.63,286.72h-75.1v525.65c0,41.3 33.8,75.1 75.1,75.1h525.65v-75.1h-525.65zM812.37,136.53h-450.56c-41.3,0 -75.09,33.8 -75.09,75.1v450.56c0,41.3 33.79,75.09 75.09,75.09h450.56c41.3,0 75.1,-33.79 75.1,-75.09v-450.56c0,-41.3 -33.8,-75.1 -75.1,-75.1zM812.37,512l-93.86,-56.32l-93.87,56.32v-300.37h187.73z" fill="currentColor"/>
		</g>
	</g>
</svg>