<svg version="1.1" xmlns="http://www.w3.org/2000/svg" xmlns:xlink="http://www.w3.org/1999/xlink" viewBox="0,0,1024,1024">
	<!-- Color names: teamapps-color-1 -->
	<desc>colorize icon - Licensed under Apache License v2.0 (http://www.apache.org/licenses/LICENSE-2.0) - Created with Iconfu.com - Derivative work of Material icons (Copyright Google Inc.)</desc>
	<g fill="none" fill-rule="nonzero" style="mix-blend-mode: normal">
		<g color="#039be5" class="teamapps-color-1">
			<path d="M882.1,369.59l-73.7,73.7l28.64,28.64c23.99,23.99 23.99,62.9 0,86.89l-52.94,52.94c-23.99,23.99 -62.9,23.99 -86.89,0l-9.87,-9.87l-291.47,291.47c-11.52,11.52 -27.15,18 -43.45,18h-178.35c-33.93,0 -61.44,-27.51 -61.44,-61.44v-178.35c0,-16.3 6.47,-31.92 18,-43.45l291.47,-291.47l-9.87,-9.87c-23.99,-23.99 -23.99,-62.9 0,-86.89l52.94,-52.94c23.9,-23.9 62.63,-24.01 86.66,-0.23l29.02,28.72l73.93,-73.93c38.64,-38.64 101.19,-38.64 139.83,0l87.86,87.86c39.06,39.06 38.21,101.62 -0.38,140.21zM839.03,272.82l-87.86,-87.86c-14.64,-14.64 -38.3,-14.64 -52.94,0l-117.15,117.15l-72.47,-71.71l-52.94,52.94l53.32,53.32l-334.92,334.91v178.35h178.35l334.91,-334.92l53.32,53.32l52.94,-52.94l-72.09,-72.09l117.15,-117.15c15.02,-15.02 15.02,-38.68 0.38,-53.32zM321.26,774.83l-72.09,-72.09l302.63,-302.63l72.09,72.09z" fill="currentColor"/>
		</g>
	</g>
</svg>