<svg version="1.1" xmlns="http://www.w3.org/2000/svg" xmlns:xlink="http://www.w3.org/1999/xlink" viewBox="0,0,1024,1024">
	<!-- Color names: teamapps-color-1 -->
	<desc>disc_full icon - Licensed under Apache License v2.0 (http://www.apache.org/licenses/LICENSE-2.0) - Created with Iconfu.com - Derivative work of Material icons (Copyright Google Inc.)</desc>
	<g fill="none" fill-rule="nonzero" style="mix-blend-mode: normal">
		<g color="#039be5" class="teamapps-color-1">
			<path d="M436.91,873.81c-199.89,0 -361.82,-161.92 -361.82,-361.81c0,-199.89 161.93,-361.81 361.82,-361.81c134.4,0 251.63,73.2 314.02,181.91v-7.83c0,-33.93 27.51,-61.44 61.44,-61.44h75.1c33.93,0 61.44,27.51 61.44,61.44v187.73c0,14.14 -4.78,27.16 -12.8,37.55c8.03,10.38 12.8,23.41 12.8,37.55v75.1c0,33.93 -27.51,61.44 -61.44,61.44h-75.1c-26.08,0 -48.37,-16.25 -57.28,-39.18c-61.25,112.81 -180.74,189.36 -318.18,189.36zM450.56,512c0,-7.37 -6.28,-13.65 -13.65,-13.65c-7.38,0 -13.66,6.29 -13.66,13.65c0,7.36 6.28,13.65 13.66,13.65c7.37,0 13.65,-6.28 13.65,-13.65zM436.91,211.63c-165.96,0 -300.38,134.41 -300.38,300.37c0,165.96 134.42,300.37 300.38,300.37c165.96,0 300.37,-134.41 300.37,-300.37c0,-165.96 -134.41,-300.37 -300.37,-300.37zM436.91,587.09c-41.3,0 -75.1,-33.79 -75.1,-75.09c0,-41.3 33.8,-75.09 75.1,-75.09c41.3,0 75.09,33.79 75.09,75.09c0,41.3 -33.79,75.09 -75.09,75.09zM812.37,324.27v187.73h75.1v-187.73zM812.37,662.19h75.1v-75.1h-75.1z" fill="currentColor"/>
		</g>
	</g>
</svg>