<svg version="1.1" xmlns="http://www.w3.org/2000/svg" xmlns:xlink="http://www.w3.org/1999/xlink" viewBox="0,0,1024,1024">
	<!-- Color names: teamapps-color-1 -->
	<desc>do_not_disturb_alt icon - Licensed under Apache License v2.0 (http://www.apache.org/licenses/LICENSE-2.0) - Created with Iconfu.com - Derivative work of Material icons (Copyright Google Inc.)</desc>
	<g fill="none" fill-rule="nonzero" style="mix-blend-mode: normal">
		<g color="#039be5" class="teamapps-color-1">
			<path d="M948.91,512c0,240.44 -196.47,436.91 -436.91,436.91c-240.44,0 -436.91,-196.47 -436.91,-436.91c0,-240.44 196.47,-436.91 436.91,-436.91c240.44,0 436.91,196.47 436.91,436.91zM750.93,512c0,-29.25 -5.29,-57.56 -15.43,-84.05l-307.54,307.54c26.49,10.14 54.8,15.43 84.05,15.43c131.27,0 238.93,-107.66 238.93,-238.93zM512,273.07c-131.27,0 -238.93,107.66 -238.93,238.93c0,29.25 5.29,57.56 15.43,84.05l307.54,-307.54c-26.49,-10.14 -54.8,-15.43 -84.05,-15.43zM512,136.53c-206.51,0 -375.47,168.96 -375.47,375.47c0,206.51 168.96,375.47 375.47,375.47c206.51,0 375.47,-168.96 375.47,-375.47c0,-206.51 -168.96,-375.47 -375.47,-375.47zM211.63,512c0,-165.2 135.17,-300.37 300.37,-300.37c67.58,0 131.42,22.53 183.98,63.83l-420.53,420.53c-41.3,-52.56 -63.83,-116.4 -63.83,-183.98zM512,812.37c-67.58,0 -131.42,-22.53 -183.98,-63.83l420.53,-420.53c41.3,52.56 63.83,116.4 63.83,183.98c0,165.2 -135.17,300.37 -300.37,300.37z" fill="currentColor"/>
		</g>
	</g>
</svg>