<svg version="1.1" xmlns="http://www.w3.org/2000/svg" xmlns:xlink="http://www.w3.org/1999/xlink" viewBox="0,0,1024,1024">
	<!-- Color names: teamapps-color-1 -->
	<desc>error icon - Licensed under Apache License v2.0 (http://www.apache.org/licenses/LICENSE-2.0) - Created with Iconfu.com - Derivative work of Material icons (Copyright Google Inc.)</desc>
	<g fill="none" fill-rule="nonzero" style="mix-blend-mode: normal">
		<g color="#039be5" class="teamapps-color-1">
			<path d="M948.91,512c0,241.19 -195.72,436.91 -436.91,436.91c-241.19,0 -436.91,-195.72 -436.91,-436.91c0,-241.19 195.72,-436.91 436.91,-436.91c241.19,0 436.91,195.72 436.91,436.91zM512,136.53c-207.26,0 -375.47,168.21 -375.47,375.47c0,207.26 168.21,375.47 375.47,375.47c207.26,0 375.47,-168.21 375.47,-375.47c0,-207.26 -168.21,-375.47 -375.47,-375.47zM549.55,549.55h-75.1v-225.28h75.1zM549.55,699.73h-75.1v-75.09h75.1z" fill="currentColor"/>
		</g>
	</g>
</svg>