<svg version="1.1" xmlns="http://www.w3.org/2000/svg" xmlns:xlink="http://www.w3.org/1999/xlink" viewBox="0,0,1024,1024">
	<!-- Color names: teamapps-color-1 -->
	<desc>exposure_zero icon - Licensed under Apache License v2.0 (http://www.apache.org/licenses/LICENSE-2.0) - Created with Iconfu.com - Derivative work of Material icons (Copyright Google Inc.)</desc>
	<g fill="none" fill-rule="nonzero" style="mix-blend-mode: normal">
		<g color="#039be5" class="teamapps-color-1">
			<path d="M715.26,643.39c-9.16,32.08 -22.92,61.57 -42.58,85.74c-20.17,24.65 -45.07,42.73 -74.05,54.09c-27.16,10.65 -55.92,15.5 -86.25,15.5c-30.02,0 -58.77,-4.87 -85.88,-15.5c-28.54,-11.19 -53.84,-28.95 -74.31,-53.96c-19.71,-24.08 -34.02,-53.32 -43.38,-85.65c-0.02,-0.07 -0.04,-0.13 -0.06,-0.2c-9.53,-33.38 -13.63,-71.34 -13.63,-112.64v-76.6c0,-41.3 4.09,-79.23 13.63,-112.62c9.25,-32.38 23.17,-61.72 43.5,-86.01c20.25,-24.19 45.51,-42.09 74.65,-52.98c26.5,-10.05 55.36,-14.83 85.11,-14.83c30.35,0 58.71,4.86 85.28,14.76c29.21,10.89 54.55,28.8 74.85,53.05c20.33,24.29 34.26,53.63 43.5,86.01c9.53,33.36 13.63,70.91 13.63,112.62v76.6c0,2.42 -0.14,4.81 -0.42,7.18c-0.45,38.5 -4.6,73.98 -13.58,105.43zM526.78,442.16c0,-20.55 -1.58,-36.87 -3.76,-49.16c-2.4,-11.42 -4.96,-16.1 -5.81,-17.38l-0.93,-1.17c-0.86,-0.25 -2.29,-0.37 -4.27,-0.37l-4.68,0.42c-1.79,3.02 -4.44,8.86 -6.47,18.79c-2.22,10.85 -3.63,26.56 -3.63,48.51v100.25c0,21.06 1.66,37.04 4.01,48.51c0.02,0.08 0.03,0.15 0.05,0.23c2.23,11.16 5.25,17.75 7.31,21.14c0.05,0.08 0.09,0.15 0.14,0.22c0.94,0.16 2.28,0.24 4.02,0.24c1.51,0 2.71,-0.06 3.62,-0.18c0.06,-0.09 0.11,-0.18 0.17,-0.28c1.6,-2.64 4.47,-8.85 6.92,-21.11c2.29,-11.47 3.69,-27.35 3.69,-48.78v-93.06c-0.25,-2.25 -0.38,-4.52 -0.38,-6.81zM667.82,530.77v-76.6c0,-37.92 -3.76,-69.46 -11.26,-95.74c-7.51,-26.29 -18.02,-47.3 -31.54,-63.45c-13.52,-16.15 -30.04,-27.78 -49.19,-34.92c-19.15,-7.14 -40.17,-10.89 -63.83,-10.89c-23.28,0 -44.69,3.76 -63.46,10.89c-19.15,7.14 -35.67,18.77 -49.18,34.92c-13.52,16.15 -24.03,37.16 -31.54,63.45c-7.51,26.29 -11.26,58.19 -11.26,95.74v76.6c0,37.55 3.76,69.46 11.26,95.74c7.51,25.91 18.4,47.32 31.92,63.84c13.52,16.52 30.03,28.16 49.18,35.67c19.15,7.51 40.18,11.26 63.46,11.26c23.65,0 44.68,-3.76 63.83,-11.26c19.15,-7.51 35.3,-19.15 48.81,-35.67c13.14,-16.15 23.65,-37.55 31.16,-63.84c7.51,-26.29 11.26,-58.19 11.26,-95.74zM588.6,442.16v99.87c0,23.65 -1.5,43.93 -4.88,60.83c-3.38,16.9 -8.26,30.41 -14.64,40.93c-6.38,10.52 -14.26,18.02 -23.65,22.91c-9.39,4.88 -20.28,7.13 -32.67,7.13c-12.39,0 -23.28,-2.24 -32.67,-7.13c-9.39,-4.88 -17.64,-12.39 -24.02,-22.91c-6.38,-10.52 -11.64,-24.03 -15.02,-40.93c-3.38,-16.52 -5.25,-36.79 -5.25,-60.83v-100.25c0,-24.03 1.5,-44.31 4.88,-60.83c3.38,-16.52 8.64,-29.66 15.02,-39.79c6.38,-10.14 14.64,-17.27 24.03,-21.78c9.39,-4.51 20.28,-6.76 32.29,-6.76c12.01,0 22.9,2.25 32.29,7.14c9.39,4.51 17.65,11.63 24.03,21.77c6.76,10.14 11.64,23.28 15.02,39.8c3,16.52 4.88,36.79 4.88,60.83z" fill="currentColor"/>
		</g>
	</g>
</svg>