<svg version="1.1" xmlns="http://www.w3.org/2000/svg" xmlns:xlink="http://www.w3.org/1999/xlink" viewBox="0,0,1024,1024">
	<!-- Color names: teamapps-color-1 -->
	<desc>extension icon - Licensed under Apache License v2.0 (http://www.apache.org/licenses/LICENSE-2.0) - Created with Iconfu.com - Derivative work of Material icons (Copyright Google Inc.)</desc>
	<g fill="none" fill-rule="nonzero" style="mix-blend-mode: normal">
		<g color="#039be5" class="teamapps-color-1">
			<path d="M986.45,568.32c0,84.03 -66.8,152.52 -150.18,155.23v88.82c0,75.23 -61.31,136.54 -136.54,136.54h-142.67c-33.93,0 -61.44,-27.51 -61.44,-61.44v-56.32c0,-22.01 -17.93,-39.94 -39.94,-39.94c-22.01,0 -39.94,17.93 -39.94,39.94v56.32c0,33.93 -27.51,61.44 -61.44,61.44h-142.67c-75.23,0 -136.54,-61.31 -136.54,-136.54v-142.67c0,-33.93 27.51,-61.44 61.44,-61.44h56.32c22.01,0 39.94,-17.93 39.94,-39.94c0,-22.01 -17.93,-39.94 -39.94,-39.94h-55.94c-33.93,0 -61.44,-27.51 -61.44,-61.44v-142.67c0,-74.82 60.52,-136.54 136.16,-136.54h88.82c2.7,-83.39 71.2,-150.18 155.23,-150.18c84.03,0 152.52,66.8 155.23,150.18h88.82c75.23,0 136.54,61.31 136.54,136.54v88.82c83.39,2.7 150.18,71.2 150.18,155.23zM831.15,474.45h-56.32v-150.18c0,-41.3 -33.8,-75.1 -75.1,-75.1h-150.18v-56.32c0,-51.81 -42.06,-93.86 -93.87,-93.86c-51.81,0 -93.87,42.05 -93.87,93.86v56.32h-150.18c-41.3,0 -74.72,33.8 -74.72,75.1v142.67h55.94c55.94,0 101.38,45.43 101.38,101.38c0,55.94 -45.43,101.38 -101.38,101.38h-56.32v142.67c0,41.3 33.8,75.1 75.1,75.1h142.67v-56.32c0,-55.94 45.43,-101.38 101.38,-101.38c55.94,0 101.38,45.43 101.38,101.38v56.32h142.67c41.3,0 75.1,-33.8 75.1,-75.1v-150.18h56.32c51.81,0 93.86,-42.06 93.86,-93.87c0,-51.81 -42.05,-93.87 -93.86,-93.87z" fill="currentColor"/>
		</g>
	</g>
</svg>