<svg version="1.1" xmlns="http://www.w3.org/2000/svg" xmlns:xlink="http://www.w3.org/1999/xlink" viewBox="0,0,1024,1024">
	<!-- Color names: teamapps-color-1 -->
	<desc>flip_to_back icon - Licensed under Apache License v2.0 (http://www.apache.org/licenses/LICENSE-2.0) - Created with Iconfu.com - Derivative work of Material icons (Copyright Google Inc.)</desc>
	<g fill="none" fill-rule="nonzero" style="mix-blend-mode: normal">
		<g color="#039be5" class="teamapps-color-1">
			<path d="M713.39,549.55v-75.1c0,-14.14 4.78,-27.16 12.8,-37.55c-8.03,-10.38 -12.8,-23.41 -12.8,-37.55v-75.09c0,-5.42 0.7,-10.67 2.02,-15.68c-5,1.32 -10.26,2.02 -15.68,2.02h-75.09c-14.14,0 -27.16,-4.78 -37.55,-12.8c-10.38,8.03 -23.41,12.8 -37.55,12.8h-75.1c-5.41,0 -10.67,-0.7 -15.67,-2.02c1.32,5 2.02,10.26 2.02,15.67v75.09c0,14.14 -4.78,27.16 -12.8,37.55c8.03,10.38 12.8,23.41 12.8,37.55v75.1c0,5.41 -0.7,10.66 -2.02,15.67c5,-1.31 10.25,-2.02 15.67,-2.02h75.1c14.14,0 27.16,4.78 37.55,12.8c10.38,-8.03 23.41,-12.8 37.55,-12.8h75.09c5.42,0 10.67,0.7 15.67,2.02c-1.32,-5 -2.02,-10.25 -2.02,-15.67zM474.45,112.64h75.1c14.14,0 27.16,4.78 37.55,12.8c10.38,-8.03 23.41,-12.8 37.55,-12.8h75.09c14.14,0 27.17,4.78 37.55,12.81c10.38,-8.03 23.41,-12.81 37.55,-12.81c75.23,0 136.53,61.3 136.53,136.53c0,14.14 -4.78,27.17 -12.81,37.55c8.03,10.38 12.81,23.41 12.81,37.55v75.09c0,14.14 -4.78,27.16 -12.8,37.55c8.03,10.38 12.8,23.41 12.8,37.55v75.1c0,14.14 -4.78,27.16 -12.8,37.55c8.03,10.38 12.8,23.41 12.8,37.55c0,75.23 -61.3,136.53 -136.53,136.53c-5.42,0 -10.67,-0.7 -15.68,-2.02c1.32,5 2.02,10.26 2.02,15.68v75.09c0,33.93 -27.51,61.44 -61.44,61.44h-450.56c-75.82,0 -136.53,-61.51 -136.53,-136.53v-450.56c0,-33.93 27.51,-61.44 61.44,-61.44h75.09c5.42,0 10.67,0.7 15.68,2.02c-1.32,-5 -2.02,-10.26 -2.02,-15.68c0,-75.02 60.71,-136.53 136.53,-136.53c14.14,0 27.16,4.78 37.55,12.8c10.38,-8.03 23.41,-12.8 37.55,-12.8zM249.17,324.27h-75.09v450.56c0,41.3 33.41,75.09 75.09,75.09h450.56v-75.09h-450.56zM399.36,324.27h-75.09v75.09h75.09zM774.83,399.36h75.09v-75.09h-75.09zM399.36,474.45h-75.09v75.1h75.09zM399.36,174.08c-41.68,0 -75.09,33.79 -75.09,75.09h75.09zM774.83,174.08v75.09h75.09c0,-41.3 -33.79,-75.09 -75.09,-75.09zM774.83,549.55h75.09v-75.1h-75.09zM549.55,174.08h-75.1v75.09h75.1zM399.36,699.73v-75.09h-75.09c0,41.3 33.41,75.09 75.09,75.09zM774.83,699.73c41.3,0 75.09,-33.79 75.09,-75.09h-75.09zM549.55,624.64h-75.1v75.09h75.1zM624.64,249.17h75.09v-75.09h-75.09zM624.64,699.73h75.09v-75.09h-75.09z" fill="currentColor"/>
		</g>
	</g>
</svg>