<svg version="1.1" xmlns="http://www.w3.org/2000/svg" xmlns:xlink="http://www.w3.org/1999/xlink" viewBox="0,0,1024,1024">
	<!-- Color names: teamapps-color-1 -->
	<desc>format_color_reset icon - Licensed under Apache License v2.0 (http://www.apache.org/licenses/LICENSE-2.0) - Created with Iconfu.com - Derivative work of Material icons (Copyright Google Inc.)</desc>
	<g fill="none" fill-rule="nonzero" style="mix-blend-mode: normal">
		<g color="#039be5" class="teamapps-color-1">
			<path d="M850.56,850.56l-47.69,47.69c-23.99,23.99 -62.9,23.99 -86.89,0l-62.16,-62.16c-41.72,23.88 -90.06,37.73 -141.82,37.73c-158.21,0 -286.72,-128.51 -286.72,-286.72c0,-46.84 15.71,-96.66 36.47,-142.7l-93.57,-93.57c-23.93,-23.93 -24,-62.69 -0.18,-86.71l47.68,-48.07c23.96,-24.16 63,-24.24 87.06,-0.18l58.98,58.98c53.48,-76.3 103.48,-133.09 104.16,-133.87c11.66,-13.24 28.44,-20.82 46.08,-20.83c17.64,-0.01 34.43,7.56 46.1,20.79c0,0 240.65,272.73 240.65,446.15c0,21.43 -2.38,42.27 -6.62,62.07c-2.98,13.91 -10.62,26.09 -21.28,34.77l79.74,79.74c23.99,23.99 23.99,62.9 0,86.89zM259.31,259.31l-47.68,48.07l124.65,124.65c-28.91,54.45 -49.56,109.63 -49.56,155.06c0,124.28 101,225.28 225.28,225.28c57.07,0 108.88,-21.4 148.68,-56.32l98.74,98.75l47.69,-47.69zM737.28,587.09c0,-150.19 -225.28,-405.5 -225.28,-405.5c0,0 -49.94,56.7 -102.5,132.17l322.53,322.53c3.38,-15.77 5.25,-32.3 5.25,-49.19z" fill="currentColor"/>
		</g>
	</g>
</svg>