<svg version="1.1" xmlns="http://www.w3.org/2000/svg" xmlns:xlink="http://www.w3.org/1999/xlink" viewBox="0,0,1024,1024">
	<!-- Color names: teamapps-color-1 -->
	<desc>format_list_numbered icon - Licensed under Apache License v2.0 (http://www.apache.org/licenses/LICENSE-2.0) - Created with Iconfu.com - Derivative work of Material icons (Copyright Google Inc.)</desc>
	<g fill="none" fill-rule="nonzero" style="mix-blend-mode: normal">
		<g color="#039be5" class="teamapps-color-1">
			<path d="M911.36,249.17v75.1c0,33.93 -27.51,61.44 -61.44,61.44h-525.65c-21.37,0 -40.19,-10.91 -51.2,-27.47v3.57c0,6.07 -0.88,11.94 -2.52,17.48c16.74,6.21 30.03,19.51 36.24,36.24c5.54,-1.64 11.41,-2.52 17.48,-2.52h525.65c33.93,0 61.44,27.51 61.44,61.44v75.1c0,33.93 -27.51,61.44 -61.44,61.44h-525.65c-6.07,0 -11.94,-0.88 -17.48,-2.52c-2.18,5.87 -5.22,11.31 -8.99,16.17c3.76,4.86 6.81,10.31 8.99,16.17c5.54,-1.64 11.41,-2.52 17.48,-2.52h525.65c33.93,0 61.44,27.51 61.44,61.44v75.1c0,33.93 -27.51,61.44 -61.44,61.44h-525.65c-6.07,0 -11.94,-0.88 -17.48,-2.52c-8.68,23.39 -31.2,40.06 -57.62,40.06h-112.64c-33.93,0 -61.44,-27.51 -61.44,-61.44v-37.54c0,-14.14 4.78,-27.17 12.81,-37.55c-8.03,-10.38 -12.81,-23.41 -12.81,-37.55v-37.54c0,-14.14 4.78,-27.17 12.81,-37.55c-8.03,-10.38 -12.81,-23.41 -12.81,-37.55v-33.79c0,-14.42 5.07,-28.37 14.32,-39.42c-8.94,-10.67 -14.32,-24.42 -14.32,-39.43v-37.54c0,-26.42 16.67,-48.94 40.07,-57.62c-1.64,-5.54 -2.52,-11.41 -2.52,-17.48v-56.02c-22.06,-9.32 -37.55,-31.16 -37.55,-56.62v-37.54c0,-33.93 27.51,-61.44 61.44,-61.44h75.1c33.93,0 61.44,27.51 61.44,61.44v3.57c11.01,-16.55 29.83,-27.47 51.2,-27.47h525.65c33.93,0 61.44,27.51 61.44,61.44zM324.27,774.83h525.65v-75.1h-525.65zM324.27,249.17v75.1h525.65v-75.1zM324.27,549.55h525.65v-75.1h-525.65zM136.53,699.73h75.1v18.78h-37.55v37.54h37.55v18.78h-75.1v37.54h112.64v-150.18h-112.64zM136.53,474.45h67.58l-67.58,78.85v33.79h112.64v-37.54h-67.58l67.58,-78.85v-33.79h-112.64zM174.08,361.81h37.55v-150.18h-75.1v37.54h37.55z" fill="currentColor"/>
		</g>
	</g>
</svg>