<svg version="1.1" xmlns="http://www.w3.org/2000/svg" xmlns:xlink="http://www.w3.org/1999/xlink" viewBox="0,0,1024,1024">
	<!-- Color names: teamapps-color-1 -->
	<desc>forward icon - Licensed under Apache License v2.0 (http://www.apache.org/licenses/LICENSE-2.0) - Created with Iconfu.com - Derivative work of Material icons (Copyright Google Inc.)</desc>
	<g fill="none" fill-rule="nonzero" style="mix-blend-mode: normal">
		<g color="#039be5" class="teamapps-color-1">
			<path d="M450.56,211.63c0,-24.85 14.97,-47.25 37.93,-56.76c22.96,-9.51 49.38,-4.25 66.96,13.32l300.37,300.37c23.99,23.99 23.99,62.9 0,86.89l-300.37,300.37c-17.57,17.57 -44,22.83 -66.96,13.32c-22.96,-9.51 -37.93,-31.91 -37.93,-56.76v-88.74h-238.93c-33.93,0 -61.44,-27.51 -61.44,-61.44v-300.38c0,-33.93 27.51,-61.44 61.44,-61.44h238.93zM211.63,361.81v300.38h300.37v150.18l300.37,-300.37l-300.37,-300.37v150.18z" fill="currentColor"/>
		</g>
	</g>
</svg>