<svg version="1.1" xmlns="http://www.w3.org/2000/svg" xmlns:xlink="http://www.w3.org/1999/xlink" viewBox="0,0,1024,1024">
	<!-- Color names: teamapps-color-1 -->
	<desc>gif icon - Licensed under Apache License v2.0 (http://www.apache.org/licenses/LICENSE-2.0) - Created with Iconfu.com - Derivative work of Material icons (Copyright Google Inc.)</desc>
	<g fill="none" fill-rule="nonzero" style="mix-blend-mode: normal">
		<g color="#039be5" class="teamapps-color-1">
			<path d="M399.36,686.08h-112.64c-60.56,0 -98.99,-50.54 -98.99,-98.99v-150.18c0,-48.45 38.43,-98.99 98.99,-98.99h112.64c20.5,0 38.47,5.79 53.26,15.33c10.83,-9.54 25.04,-15.33 40.61,-15.33h56.32c10.15,0 19.72,2.46 28.16,6.82c8.44,-4.36 18.01,-6.82 28.16,-6.82h168.96c33.93,0 61.44,27.51 61.44,61.44v56.32c0,25.46 -15.48,47.3 -37.55,56.62v37.25c0,33.93 -27.51,61.44 -61.44,61.44h-13.65v13.65c0,33.93 -27.51,61.44 -61.44,61.44h-56.32c-10.15,0 -19.72,-2.46 -28.16,-6.82c-8.44,4.36 -18.01,6.82 -28.16,6.82h-56.32c-15.57,0 -29.78,-5.79 -40.61,-15.33c-14.8,9.54 -32.76,15.33 -53.26,15.33zM399.36,399.36h-112.64c-22.53,0 -37.55,18.78 -37.55,37.55v150.18c0,18.77 15.02,37.55 37.55,37.55h112.64c22.53,0 37.55,-18.78 37.55,-37.55v-75.09h-56.32v56.32h-75.1v-112.64h131.42v-18.77c0,-18.77 -15.02,-37.55 -37.55,-37.55zM774.83,455.68v-56.32h-168.96v225.28h56.32v-75.09h75.09v-56.32h-75.09v-37.55zM493.23,624.64h56.32v-225.28h-56.32z" fill="currentColor"/>
		</g>
	</g>
</svg>