<svg version="1.1" xmlns="http://www.w3.org/2000/svg" xmlns:xlink="http://www.w3.org/1999/xlink" viewBox="0,0,1024,1024">
	<!-- Color names: teamapps-color-1 -->
	<desc>hd icon - Licensed under Apache License v2.0 (http://www.apache.org/licenses/LICENSE-2.0) - Created with Iconfu.com - Derivative work of Material icons (Copyright Google Inc.)</desc>
	<g fill="none" fill-rule="nonzero" style="mix-blend-mode: normal">
		<g color="#039be5" class="teamapps-color-1">
			<path d="M911.36,249.17v525.66c0,75.23 -61.3,136.53 -136.53,136.53h-525.66c-75.82,0 -136.53,-61.51 -136.53,-136.53v-525.66c0,-75.02 60.71,-136.53 136.53,-136.53h525.66c75.23,0 136.53,61.3 136.53,136.53zM774.83,174.08h-525.66c-41.68,0 -75.09,33.79 -75.09,75.09v525.66c0,41.3 33.41,75.09 75.09,75.09h525.66c41.3,0 75.09,-33.79 75.09,-75.09v-525.66c0,-41.3 -33.79,-75.09 -75.09,-75.09zM549.55,399.36h150.18c20.65,0 37.55,16.9 37.55,37.55v150.18c0,20.65 -16.9,37.55 -37.55,37.55h-150.18zM474.45,624.64h-56.32v-75.09h-75.09v75.09h-56.32v-225.28h56.32v93.87h75.09v-93.87h56.32zM605.87,568.32h75.09v-112.64h-75.09z" fill="currentColor"/>
		</g>
	</g>
</svg>