<svg version="1.1" xmlns="http://www.w3.org/2000/svg" xmlns:xlink="http://www.w3.org/1999/xlink" viewBox="0,0,1024,1024">
	<!-- Color names: teamapps-color-1 -->
	<desc>highlight icon - Licensed under Apache License v2.0 (http://www.apache.org/licenses/LICENSE-2.0) - Created with Iconfu.com - Derivative work of Material icons (Copyright Google Inc.)</desc>
	<g fill="none" fill-rule="nonzero" style="mix-blend-mode: normal">
		<g color="#039be5" class="teamapps-color-1">
			<path d="M644.18,337.92c-12.61,-23.3 -9.06,-53.03 10.64,-72.71l79.71,-79.6c24,-23.96 62.88,-23.95 86.86,0.03l53.09,53.09c24,24 23.99,62.91 -0.01,86.9l-75.75,75.71v185.75c0,16.29 -6.47,31.92 -18,43.44l-94.64,94.64v162.29c0,33.93 -27.51,61.44 -61.44,61.44h-225.28c-33.93,0 -61.44,-27.51 -61.44,-61.44v-162.29l-94.64,-94.64c-11.52,-11.52 -18,-27.15 -18,-43.44v-185.67l-75.89,-75.96c-23.97,-23.99 -23.97,-62.86 0,-86.85l53.09,-53.13c24,-24.02 62.93,-24.02 86.93,0l79.6,79.68c19.7,19.71 23.21,49.48 10.53,72.78zM474.45,75.09h75.1c33.93,0 61.44,27.51 61.44,61.44v112.64c0,33.93 -27.51,61.44 -61.44,61.44h-75.1c-33.93,0 -61.44,-27.51 -61.44,-61.44v-112.64c0,-33.93 27.51,-61.44 61.44,-61.44zM286.72,587.09l112.64,112.64v187.74h225.28v-187.74l112.64,-112.64v-187.73h-450.56zM751.36,361.81l79.68,-79.63l-53.09,-53.09l-79.71,79.6zM272.46,361.7l53.09,-53.13l-79.6,-79.68l-53.09,53.13zM474.45,249.17h75.1v-112.64h-75.1z" fill="currentColor"/>
		</g>
	</g>
</svg>