<svg version="1.1" xmlns="http://www.w3.org/2000/svg" xmlns:xlink="http://www.w3.org/1999/xlink" viewBox="0,0,1024,1024">
	<!-- Color names: teamapps-color-1 -->
	<desc>history icon - Licensed under Apache License v2.0 (http://www.apache.org/licenses/LICENSE-2.0) - Created with Iconfu.com - Derivative work of Material icons (Copyright Google Inc.)</desc>
	<g fill="none" fill-rule="nonzero" style="mix-blend-mode: normal">
		<g color="#039be5" class="teamapps-color-1">
			<path d="M948.91,512c0,220.54 -178.82,399.36 -399.36,399.36c-110.55,0 -210.07,-44.94 -282.24,-117.12c-18.92,-18.92 -22.92,-47.12 -12,-69.96c-5.76,0.72 -11.65,0.63 -17.52,-0.32c-17.96,-2.93 -33.61,-13.64 -42.86,-29.12l-139.39,-139.39c-17.57,-17.57 -22.83,-44 -13.32,-66.96c9.51,-22.96 31.91,-37.93 56.76,-37.93h55.9c29.57,-191.38 195.02,-337.92 394.66,-337.92c220.54,0 399.36,178.82 399.36,399.36zM407.68,654.21c36.28,36.57 86.49,59.18 141.87,59.18c30.74,0 59.86,-6.86 85.9,-19.13l-154.81,-91.87c-18.65,-11.07 -30.08,-31.15 -30.08,-52.84v-3.58c-2.25,3.39 -4.85,6.58 -7.81,9.53l-80.77,80.58c16.49,-0.56 33.16,5.49 45.7,18.13zM750.93,512c0,-88.64 -57.01,-163.75 -136.44,-190.72c9.5,10.82 15.27,25 15.27,40.53v124.62l101.36,60.23c5.53,3.29 10.36,7.31 14.43,11.86c3.52,-14.93 5.38,-30.51 5.38,-46.52zM357.67,450.56h41.69c20.84,0 39.96,10.53 51.2,27.47v-116.22c0,-10.6 2.69,-20.58 7.41,-29.28c-47.4,24.19 -83.89,66.6 -100.31,118.03zM549.55,174.08c-186.6,0 -337.92,151.32 -337.92,337.92h-112.64l146.05,146.05l2.63,5.26l151.69,-151.32h-112.64c0,-145.31 117.52,-262.83 262.83,-262.83c145.31,0 262.82,117.52 262.82,262.83c0,145.31 -117.52,262.83 -262.82,262.83c-72.47,0 -138.18,-29.66 -185.49,-77.35l-53.31,53.32c61.2,61.2 145.31,99.12 238.8,99.12c186.6,0 337.92,-151.32 337.92,-337.92c0,-186.6 -151.32,-337.92 -337.92,-337.92zM512,361.81v187.74l160.7,95.37l27.03,-45.43l-131.41,-78.09v-159.58z" fill="currentColor"/>
		</g>
	</g>
</svg>