<svg version="1.1" xmlns="http://www.w3.org/2000/svg" xmlns:xlink="http://www.w3.org/1999/xlink" viewBox="0,0,1024,1024">
	<!-- Color names: teamapps-color-1 -->
	<desc>keyboard icon - Licensed under Apache License v2.0 (http://www.apache.org/licenses/LICENSE-2.0) - Created with Iconfu.com - Derivative work of Material icons (Copyright Google Inc.)</desc>
	<g fill="none" fill-rule="nonzero" style="mix-blend-mode: normal">
		<g color="#039be5" class="teamapps-color-1">
			<path d="M948.91,324.27v375.46c0,75.23 -61.31,136.54 -136.54,136.54h-600.74c-75.23,0 -136.54,-61.31 -136.54,-136.54l0.38,-375.5c0.02,-74.81 60.53,-136.5 136.16,-136.5h600.74c75.23,0 136.54,61.31 136.54,136.54zM812.37,249.17h-600.74c-41.3,0 -74.72,33.8 -74.72,75.1l-0.38,375.46c0,41.3 33.8,75.1 75.1,75.1h600.74c41.3,0 75.1,-33.8 75.1,-75.1v-375.46c0,-41.3 -33.8,-75.1 -75.1,-75.1zM662.19,699.73h-300.38v-75.09h300.38zM662.19,549.55h-75.1v-75.1h75.1zM662.19,436.91h-75.1v-75.1h75.1zM774.83,549.55h-75.1v-75.1h75.1zM774.83,436.91h-75.1v-75.1h75.1zM474.45,361.81h75.1v75.1h-75.1zM474.45,474.45h75.1v75.1h-75.1zM361.81,361.81h75.1v75.1h-75.1zM361.81,474.45h75.1v75.1h-75.1zM324.27,549.55h-75.1v-75.1h75.1zM324.27,436.91h-75.1v-75.1h75.1z" fill="currentColor"/>
		</g>
	</g>
</svg>