<svg version="1.1" xmlns="http://www.w3.org/2000/svg" xmlns:xlink="http://www.w3.org/1999/xlink" viewBox="0,0,1024,1024">
	<!-- Color names: teamapps-color-1 -->
	<desc>leak_remove icon - Licensed under Apache License v2.0 (http://www.apache.org/licenses/LICENSE-2.0) - Created with Iconfu.com - Derivative work of Material icons (Copyright Google Inc.)</desc>
	<g fill="none" fill-rule="nonzero" style="mix-blend-mode: normal">
		<g color="#039be5" class="teamapps-color-1">
			<path d="M265.21,130.64l35.65,35.65c3.83,-30.25 29.66,-53.64 60.95,-53.64h75.1c14.14,0 27.16,4.78 37.55,12.8c10.38,-8.03 23.41,-12.8 37.55,-12.8h75.09c33.93,0 61.44,27.51 61.44,61.44c0,89.05 -25.11,171.97 -67.27,242.53c-3.72,6.22 -8.46,11.66 -13.95,16.13l23.95,23.95c4.47,-5.49 9.9,-10.23 16.13,-13.95c70.56,-42.17 153.48,-67.27 242.53,-67.27c33.93,0 61.44,27.51 61.44,61.44v75.09c0,14.14 -4.78,27.16 -12.8,37.55c8.03,10.38 12.8,23.41 12.8,37.55v75.1c0,31.29 -23.39,57.12 -53.64,60.95l35.65,35.65c23.99,23.99 23.99,62.9 0,86.89l-47.69,47.69c-23.99,23.99 -62.9,23.99 -86.89,0l-35.65,-35.65c-3.83,30.25 -29.66,53.64 -60.95,53.64h-75.1c-14.14,0 -27.16,-4.78 -37.55,-12.8c-10.38,8.03 -23.41,12.8 -37.55,12.8h-75.09c-33.93,0 -61.44,-27.51 -61.44,-61.44c0,-96.62 29.18,-186.36 78.51,-261.36l-18.75,-18.75c-74.87,49.6 -164.63,78.72 -261.16,78.72c-33.93,0 -61.44,-27.51 -61.44,-61.44v-75.09c0,-14.14 4.78,-27.16 12.8,-37.55c-8.03,-10.38 -12.8,-23.41 -12.8,-37.55v-75.1c0,-31.29 23.39,-57.12 53.64,-60.95l-35.65,-35.65c-23.99,-23.99 -23.99,-62.9 0,-86.89l47.69,-47.69c23.99,-23.99 62.9,-23.99 86.89,0zM174.08,221.77l106.63,106.63c-30.41,21.02 -66.83,33.41 -106.63,33.41v75.1c60.45,0 116.02,-20.65 160.33,-54.82l53.69,53.7c-58.57,47.69 -132.92,76.22 -214.02,76.22v75.09c101.75,0 194.87,-37.16 266.96,-98.37l93.87,93.86c-60.83,72.47 -98,165.58 -98,267.34h75.09c0,-81.1 28.53,-155.44 76.22,-213.64l53.7,53.69c-34.17,43.93 -54.82,99.5 -54.82,159.95h75.1c0,-39.8 12.39,-76.22 33.41,-106.63l106.63,106.63l47.69,-47.69l-628.15,-628.15zM638.9,495.48l54.82,54.82c46.93,-24.4 99.87,-38.3 156.19,-38.3v-75.09c-77.34,0 -149.44,21.78 -211.02,58.57zM587.09,174.08h-75.09c0,56.32 -13.9,109.26 -38.3,156.19l54.82,54.82c36.79,-61.57 58.57,-133.67 58.57,-211.02zM810.12,666.7c12.77,-3 25.91,-4.51 39.8,-4.51v-75.1c-35.3,0 -69.08,7.14 -99.87,19.53zM436.91,174.08h-75.1c0,13.9 -1.5,27.03 -4.51,39.8l59.7,59.7c12.77,-30.41 19.91,-64.2 19.91,-99.5z" fill="currentColor"/>
		</g>
	</g>
</svg>