<svg version="1.1" xmlns="http://www.w3.org/2000/svg" xmlns:xlink="http://www.w3.org/1999/xlink" viewBox="0,0,1024,1024">
	<!-- Color names: teamapps-color-1 -->
	<desc>local_mall icon - Licensed under Apache License v2.0 (http://www.apache.org/licenses/LICENSE-2.0) - Created with Iconfu.com - Derivative work of Material icons (Copyright Google Inc.)</desc>
	<g fill="none" fill-rule="nonzero" style="mix-blend-mode: normal">
		<g color="#039be5" class="teamapps-color-1">
			<path d="M911.36,361.81v450.56c0,75.22 -61.29,136.54 -136.53,136.54h-525.66c-75.24,0 -136.53,-61.32 -136.53,-136.54l0.38,-450.59c0.01,-74.81 60.52,-136.5 136.15,-136.5h21.3c27.39,-107.88 125.16,-187.73 241.53,-187.73c116.36,0 214.14,79.85 241.53,187.73h21.3c75.23,0 136.53,61.3 136.53,136.53zM774.83,286.72h-75.1c0,-103.63 -84.1,-187.73 -187.73,-187.73c-103.63,0 -187.73,84.1 -187.73,187.73h-75.1c-41.3,0 -74.71,33.79 -74.71,75.09l-0.38,450.56c0,41.3 33.79,75.1 75.09,75.1h525.66c41.3,0 75.09,-33.8 75.09,-75.1v-450.56c0,-41.3 -33.79,-75.09 -75.09,-75.09zM512,549.55c-103.63,0 -187.73,-84.11 -187.73,-187.74h75.09c0,62.33 50.31,112.64 112.64,112.64c62.33,0 112.64,-50.31 112.64,-112.64h75.09c0,103.63 -84.1,187.74 -187.73,187.74zM512,174.08c62.33,0 112.64,50.31 112.64,112.64h-225.28c0,-62.33 50.31,-112.64 112.64,-112.64z" fill="currentColor"/>
		</g>
	</g>
</svg>