<svg version="1.1" xmlns="http://www.w3.org/2000/svg" xmlns:xlink="http://www.w3.org/1999/xlink" viewBox="0,0,1024,1024">
	<!-- Color names: teamapps-color-1 -->
	<desc>local_phone icon - Licensed under Apache License v2.0 (http://www.apache.org/licenses/LICENSE-2.0) - Created with Iconfu.com - Derivative work of Material icons (Copyright Google Inc.)</desc>
	<g fill="none" fill-rule="nonzero" style="mix-blend-mode: normal">
		<g color="#039be5" class="teamapps-color-1">
			<path d="M386.44,477.02c40.54,64.77 95.63,119.73 160.61,160.48l49.54,-49.54c26.57,-26.57 65.95,-35.75 101.25,-23.83c35.78,11.79 74.62,18.22 114.53,18.22c54.59,0 98.99,44.4 98.99,98.99v131.03c0,54.59 -44.4,98.99 -98.99,98.99c-386.5,0 -699.73,-313.23 -699.73,-699.73c0,-54.59 44.4,-98.99 98.99,-98.99h131.41c54.59,0 98.99,44.4 98.99,98.99c0,40.34 6.45,78.89 18.3,114.77c0.08,0.25 0.16,0.5 0.24,0.75c10.63,33.83 3.01,72.74 -24.52,100.27zM392.6,383.97c10.52,-10.52 13.52,-25.16 9.39,-38.3c-13.9,-42.06 -21.4,-87.11 -21.4,-134.04c0,-20.65 -16.9,-37.55 -37.55,-37.55h-131.41c-20.65,0 -37.55,16.9 -37.55,37.55c0,352.56 285.73,638.29 638.29,638.29c20.65,0 37.55,-16.9 37.55,-37.55v-131.03c0,-20.65 -16.9,-37.55 -37.55,-37.55c-46.56,0 -91.99,-7.51 -134.04,-21.4c-13.14,-4.51 -28.16,-1.13 -38.3,9.01l-82.6,82.61c-106.26,-54.45 -193.37,-141.18 -247.44,-247.44z" fill="currentColor"/>
		</g>
	</g>
</svg>