<svg version="1.1" xmlns="http://www.w3.org/2000/svg" xmlns:xlink="http://www.w3.org/1999/xlink" viewBox="0,0,1024,1024">
	<!-- Color names: teamapps-color-1 -->
	<desc>monochrome_photos icon - Licensed under Apache License v2.0 (http://www.apache.org/licenses/LICENSE-2.0) - Created with Iconfu.com - Derivative work of Material icons (Copyright Google Inc.)</desc>
	<g fill="none" fill-rule="nonzero" style="mix-blend-mode: normal">
		<g color="#039be5" class="teamapps-color-1">
			<path d="M948.91,324.27v450.56c0,75.24 -61.32,136.53 -136.54,136.53h-600.74c-75.22,0 -136.54,-61.29 -136.54,-136.53v-450.56c0,-75.23 61.31,-136.54 136.54,-136.54h92.78l49.28,-54.75c11.65,-12.95 28.25,-20.34 45.67,-20.34h225.28c17.42,0 34.02,7.39 45.67,20.34l49.28,54.75h92.78c75.23,0 136.54,61.31 136.54,136.54zM700.74,713.39h50.19v-92c-10.13,34.48 -27.42,65.7 -50.19,92zM700.74,385.71c22.78,26.3 40.06,57.52 50.19,92v-92zM812.37,249.17h-120.15l-67.58,-75.09h-225.28l-67.58,75.09h-120.15c-41.3,0 -75.1,33.8 -75.1,75.1v450.56c0,41.3 33.8,75.09 75.1,75.09h600.74c41.3,0 75.1,-33.79 75.1,-75.09v-450.56c0,-41.3 -33.8,-75.1 -75.1,-75.1zM812.37,774.83h-300.37v-37.55c105.13,0 187.73,-82.6 187.73,-187.73c0,-105.13 -82.6,-187.74 -187.73,-187.74v-37.54h300.37zM512,361.81v67.58c-67.58,0 -120.15,52.57 -120.15,120.16c0,67.58 52.56,120.15 120.15,120.15v67.58c-105.13,0 -187.73,-82.6 -187.73,-187.73c0,-105.13 82.6,-187.74 187.73,-187.74zM512,669.7v-240.3c67.58,0 120.15,52.57 120.15,120.16c0,67.58 -52.56,120.15 -120.15,120.15z" fill="currentColor"/>
		</g>
	</g>
</svg>