<svg version="1.1" xmlns="http://www.w3.org/2000/svg" xmlns:xlink="http://www.w3.org/1999/xlink" viewBox="0,0,1024,1024">
	<!-- Color names: teamapps-color-1 -->
	<desc>panorama_vertical icon - Licensed under Apache License v2.0 (http://www.apache.org/licenses/LICENSE-2.0) - Created with Iconfu.com - Derivative work of Material icons (Copyright Google Inc.)</desc>
	<g fill="none" fill-rule="nonzero" style="mix-blend-mode: normal">
		<g color="#039be5" class="teamapps-color-1">
			<path d="M874.19,866.07c0,50.66 -41.03,82.84 -85.09,82.84h-553.81c-45.19,0 -85.09,-32.87 -85.09,-82.84c0,-11.09 2.19,-22.96 7,-34.47c38.03,-103.11 57.21,-211.38 57.21,-319.6c0,-108.73 -19.36,-217.45 -58.06,-320.9c-0.05,-0.14 -0.1,-0.28 -0.16,-0.42c-3.41,-9.34 -5.99,-20.35 -5.99,-32.75c0,-51.1 40.71,-82.84 85.09,-82.84h553.43c44.39,0 85.09,31.75 85.09,82.84c0,11.61 -2.39,22.88 -5.97,32.69c-0.03,0.09 -0.07,0.18 -0.1,0.27c-38.39,103.55 -57.76,212.37 -57.76,321.11c0,108.86 19.02,217.58 57.68,320.9c0.05,0.14 0.1,0.28 0.16,0.42c3.48,9.54 5.24,18.44 6.06,26.6c0.21,2.05 0.31,4.1 0.31,6.16zM611.64,512c0,-80.74 8.65,-160.62 25.79,-238.93h-251.23c17.14,78.31 25.79,158.19 25.79,238.93c0,80.74 -8.65,160.62 -25.79,238.93h251.23c-17.14,-78.31 -25.79,-158.19 -25.79,-238.93zM810.12,854.43c-41.3,-110.39 -61.57,-226.41 -61.57,-342.43c0,-116.02 20.64,-232.04 61.57,-342.43c1.5,-4.13 2.25,-8.26 2.25,-11.64c0,-12.77 -8.63,-21.4 -23.65,-21.4h-553.43c-15.02,0 -23.65,8.63 -23.65,21.4c0,3.76 0.75,7.52 2.25,11.64c41.3,110.39 61.95,226.41 61.95,342.43c0,116.02 -20.65,232.04 -61.58,342.43c-1.87,4.13 -2.62,8.26 -2.62,11.64c0,12.39 8.63,21.4 23.65,21.4h553.81c14.64,0 23.65,-9.01 23.65,-21.4c-0.38,-3.76 -1.13,-7.52 -2.63,-11.64zM307,812.37c28.91,-97.62 43.55,-198.25 43.55,-300.37c0,-102.12 -14.64,-202.75 -43.55,-300.37h409.63c-28.91,97.62 -43.55,198.25 -43.55,300.37c0,102.12 14.64,202.75 43.55,300.37z" fill="currentColor"/>
		</g>
	</g>
</svg>