<svg version="1.1" xmlns="http://www.w3.org/2000/svg" xmlns:xlink="http://www.w3.org/1999/xlink" viewBox="0,0,1024,1024">
	<!-- Color names: teamapps-color-1 -->
	<desc>pause_circle_outline icon - Licensed under Apache License v2.0 (http://www.apache.org/licenses/LICENSE-2.0) - Created with Iconfu.com - Derivative work of Material icons (Copyright Google Inc.)</desc>
	<g fill="none" fill-rule="nonzero" style="mix-blend-mode: normal">
		<g color="#039be5" class="teamapps-color-1">
			<path d="M948.91,512c0,241.19 -195.72,436.91 -436.91,436.91c-241.19,0 -436.91,-195.72 -436.91,-436.91c0,-241.19 195.72,-436.91 436.91,-436.91c241.19,0 436.91,195.72 436.91,436.91zM750.93,512c0,-64.11 -25.44,-122.45 -66.75,-165.42c1.24,4.87 1.9,9.98 1.9,15.23v300.38c0,5.26 -0.66,10.36 -1.9,15.23c41.31,-42.98 66.75,-101.31 66.75,-165.42zM512,273.07c-39.93,0 -77.63,9.87 -110.76,27.3h73.21c14.14,0 27.17,4.78 37.55,12.81c10.38,-8.03 23.41,-12.81 37.55,-12.81h73.21c-33.14,-17.43 -70.83,-27.3 -110.76,-27.3zM273.07,512c0,64.11 25.44,122.45 66.75,165.42c-1.24,-4.87 -1.9,-9.98 -1.9,-15.23v-300.38c0,-5.26 0.66,-10.36 1.9,-15.23c-41.31,42.98 -66.75,101.31 -66.75,165.42zM512,750.93c39.93,0 77.63,-9.87 110.76,-27.3h-73.21c-14.14,0 -27.17,-4.78 -37.55,-12.81c-10.38,8.03 -23.41,12.81 -37.55,12.81h-73.21c33.14,17.43 70.83,27.3 110.76,27.3zM512,136.53c-207.26,0 -375.47,168.21 -375.47,375.47c0,207.26 168.21,375.47 375.47,375.47c207.26,0 375.47,-168.21 375.47,-375.47c0,-207.26 -168.21,-375.47 -375.47,-375.47zM512,812.37c-165.58,0 -300.37,-134.79 -300.37,-300.37c0,-165.58 134.79,-300.37 300.37,-300.37c165.58,0 300.37,134.79 300.37,300.37c0,165.58 -134.79,300.37 -300.37,300.37zM549.55,662.19h75.09v-300.38h-75.09zM399.36,662.19h75.09v-300.38h-75.09z" fill="currentColor"/>
		</g>
	</g>
</svg>