<svg version="1.1" xmlns="http://www.w3.org/2000/svg" xmlns:xlink="http://www.w3.org/1999/xlink" viewBox="0,0,1024,1024">
	<!-- Color names: teamapps-color-1 -->
	<desc>perm_data_setting icon - Licensed under Apache License v2.0 (http://www.apache.org/licenses/LICENSE-2.0) - Created with Iconfu.com - Derivative work of Material icons (Copyright Google Inc.)</desc>
	<g fill="none" fill-rule="nonzero" style="mix-blend-mode: normal">
		<g color="#039be5" class="teamapps-color-1">
			<path d="M554.33,778.32l4.3,-3.48l-1.99,-1.56c-0.79,-0.63 -1.56,-1.27 -2.32,-1.93zM495.48,873.81h-434.04c-24.85,0 -47.25,-14.97 -56.76,-37.93c-9.51,-22.96 -4.25,-49.38 13.32,-66.96l750.93,-750.93c17.58,-17.58 44.02,-22.83 66.98,-13.31c22.96,9.52 37.92,31.95 37.9,56.81l-0.37,434.41c-0.01,16.68 -6.81,32.6 -18.75,44.13c14.14,10.53 24.79,26.57 27.27,47.18l0.09,0.62l5.1,-1.95c27.29,-9.12 65.33,-1.94 84.51,32.03l38.07,65.89c17.28,31.65 7.27,67.28 -15.39,87.4l-4.28,3.48l4.66,3.76c22.64,20.1 32.67,55.72 15.39,87.39l-38.29,66.26c-0.44,0.77 -0.91,1.53 -1.38,2.28c-17.96,28.17 -53.02,40.31 -84.5,28.83l-3.52,-1.38l-0.43,2.9c-5.82,35.08 -36.39,59.26 -69.99,59.26h-75.1c-35.62,0 -64.44,-25.8 -69.99,-59.26l-0.43,-2.92l-5.1,1.95c-27.37,9.14 -65.37,1.87 -84.51,-32.04l-38.07,-65.89c-1.24,-2.26 -2.33,-4.55 -3.29,-6.85c-11.07,9.5 -25.25,14.82 -40.02,14.82zM666.48,587.83l0.43,-2.92c0.14,-0.82 0.29,-1.64 0.45,-2.45c-2,1.12 -3.98,2.26 -5.94,3.44zM774.45,493.23c12.77,0 25.16,1.12 37.55,2.62l0.37,-434.41l-750.93,750.93h434.04c-1.5,-12.39 -2.63,-24.77 -2.63,-37.54c0,-155.44 126.16,-281.6 281.6,-281.6zM913.75,793.22c0.75,-6.01 1.5,-12.01 1.5,-18.39c0,-6.38 -0.38,-12.39 -1.5,-18.4l39.8,-31.16c3.38,-3 4.51,-7.89 2.25,-12.02l-37.55,-64.95c-2.25,-4.13 -7.13,-5.63 -11.63,-4.13l-46.56,18.77c-9.76,-7.51 -20.28,-13.9 -31.92,-18.4l-7.13,-49.56c-0.38,-4.51 -4.51,-7.88 -9.01,-7.88h-75.1c-4.51,0 -8.63,3.38 -9.38,7.88l-7.14,49.56c-11.26,4.88 -22.16,10.89 -31.92,18.4l-46.55,-18.77c-4.13,-1.5 -9.01,0 -11.64,4.13l-37.55,64.95c-2.25,4.13 -1.5,9.02 2.25,12.02l39.8,31.16c-0.75,6.01 -1.13,12.02 -1.13,18.4c0,6.38 0.38,12.38 1.13,18.39l-39.8,31.17c-3.38,3 -4.51,7.88 -2.25,12.01l37.55,64.95c2.25,4.13 7.14,5.64 11.64,4.14l46.55,-18.78c9.76,7.51 20.28,13.9 31.92,18.4l7.14,49.56c0.75,4.51 4.5,7.88 9.38,7.88h75.1c4.51,0 8.63,-3.38 9.38,-7.88l7.14,-49.56c11.26,-4.88 22.15,-10.89 31.54,-18.4l46.93,18.78c4.13,1.5 9.01,-0.01 11.64,-4.14l37.55,-64.95c2.25,-4.13 1.13,-9.01 -2.25,-12.01zM774.45,831.15c-31.16,0 -56.32,-25.16 -56.32,-56.32c0,-31.16 25.16,-56.32 56.32,-56.32c31.16,0 56.32,25.16 56.32,56.32c0,31.16 -25.16,56.32 -56.32,56.32z" fill="currentColor"/>
		</g>
	</g>
</svg>