<svg version="1.1" xmlns="http://www.w3.org/2000/svg" xmlns:xlink="http://www.w3.org/1999/xlink" viewBox="0,0,1024,1024">
	<!-- Color names: teamapps-color-1 -->
	<desc>play_for_work icon - Licensed under Apache License v2.0 (http://www.apache.org/licenses/LICENSE-2.0) - Created with Iconfu.com - Derivative work of Material icons (Copyright Google Inc.)</desc>
	<g fill="none" fill-rule="nonzero" style="mix-blend-mode: normal">
		<g color="#039be5" class="teamapps-color-1">
			<path d="M610.99,249.17v148.45h69.97c24.85,0 47.25,14.97 56.76,37.93c9.51,22.96 4.25,49.38 -13.32,66.96l-23.15,23.15h36.02c33.93,0 61.44,27.51 61.44,61.44c0,158.21 -128.51,286.72 -286.72,286.72c-158.21,0 -286.72,-128.51 -286.72,-286.72c0,-33.93 27.51,-61.44 61.44,-61.44h36.02l-23.15,-23.15c-17.57,-17.57 -22.83,-44 -13.32,-66.96c9.51,-22.96 31.91,-37.93 56.76,-37.93h69.97v-148.45c0,-33.93 27.51,-61.44 61.44,-61.44h75.1c33.93,0 61.44,27.51 61.44,61.44zM474.45,249.17v209.89h-131.41l168.96,168.96l168.96,-168.96h-131.41v-209.89zM286.72,587.09c0,124.28 101,225.28 225.28,225.28c124.28,0 225.28,-101 225.28,-225.28h-75.09c0,82.98 -67.21,150.19 -150.19,150.19c-82.98,0 -150.19,-67.21 -150.19,-150.19z" fill="currentColor"/>
		</g>
	</g>
</svg>