<svg version="1.1" xmlns="http://www.w3.org/2000/svg" xmlns:xlink="http://www.w3.org/1999/xlink" viewBox="0,0,1024,1024">
	<!-- Color names: teamapps-color-1 -->
	<desc>playlist_add icon - Licensed under Apache License v2.0 (http://www.apache.org/licenses/LICENSE-2.0) - Created with Iconfu.com - Derivative work of Material icons (Copyright Google Inc.)</desc>
	<g fill="none" fill-rule="nonzero" style="mix-blend-mode: normal">
		<g color="#039be5" class="teamapps-color-1">
			<path d="M948.91,587.09v75.1c0,33.93 -27.51,61.44 -61.44,61.44h-88.75v88.74c0,33.93 -27.51,61.44 -61.44,61.44h-75.09c-33.93,0 -61.44,-27.51 -61.44,-61.44v-88.74h-88.75c-14.14,0 -27.16,-4.78 -37.55,-12.8c-10.38,8.03 -23.41,12.8 -37.55,12.8h-300.38c-33.93,0 -61.44,-27.51 -61.44,-61.44v-75.1c0,-14.14 4.78,-27.16 12.8,-37.55c-8.03,-10.38 -12.8,-23.41 -12.8,-37.55v-75.09c0,-14.14 4.78,-27.17 12.81,-37.55c-8.03,-10.38 -12.81,-23.41 -12.81,-37.55v-75.09c0,-33.93 27.51,-61.44 61.44,-61.44h450.56c33.93,0 61.44,27.51 61.44,61.44v75.09c0,5.42 -0.7,10.67 -2.02,15.68c5,-1.32 10.26,-2.02 15.68,-2.02h75.09c33.93,0 61.44,27.51 61.44,61.44v88.74h88.75c33.93,0 61.44,27.51 61.44,61.44zM737.28,587.09v-150.18h-75.09v150.18h-150.19v75.1h150.19v150.18h75.09v-150.18h150.19v-75.1zM587.09,436.91h-450.56v75.09h450.56zM587.09,286.72h-450.56v75.09h450.56zM136.53,662.19h300.38v-75.1h-300.38z" fill="currentColor"/>
		</g>
	</g>
</svg>