<svg version="1.1" xmlns="http://www.w3.org/2000/svg" xmlns:xlink="http://www.w3.org/1999/xlink" viewBox="0,0,1024,1024">
	<!-- Color names: teamapps-color-1 -->
	<desc>plus_one icon - Licensed under Apache License v2.0 (http://www.apache.org/licenses/LICENSE-2.0) - Created with Iconfu.com - Derivative work of Material icons (Copyright Google Inc.)</desc>
	<g fill="none" fill-rule="nonzero" style="mix-blend-mode: normal">
		<g color="#039be5" class="teamapps-color-1">
			<path d="M587.09,450.56c21.37,0 40.19,10.91 51.2,27.47v-63.79l-20.37,4.07c-18.05,3.61 -36.77,-1.06 -51,-12.73c-14.24,-11.67 -22.49,-29.11 -22.49,-47.52v-68.34c0,-28.41 19.48,-53.11 47.1,-59.74l168.96,-40.55c18.3,-4.39 37.6,-0.16 52.38,11.5c14.78,11.65 23.4,29.43 23.4,48.25v488.11c0,33.93 -27.51,61.44 -61.44,61.44h-75.1c-33.93,0 -61.44,-27.51 -61.44,-61.44v-116.22c-11.01,16.55 -29.83,27.47 -51.2,27.47h-88.74v88.75c0,33.93 -27.51,61.44 -61.44,61.44h-75.1c-33.93,0 -61.44,-27.51 -61.44,-61.44v-88.75h-88.74c-33.93,0 -61.44,-27.51 -61.44,-61.44v-75.09c0,-33.93 27.51,-61.44 61.44,-61.44h88.74v-88.75c0,-33.93 27.51,-61.44 61.44,-61.44h75.1c33.93,0 61.44,27.51 61.44,61.44v88.75zM436.91,361.81h-75.1v150.19h-150.18v75.09h150.18v150.19h75.1v-150.19h150.18v-75.09h-150.18zM605.87,289.72v68.34l93.86,-18.78v398h75.1v-488.11z" fill="currentColor"/>
		</g>
	</g>
</svg>