<svg version="1.1" xmlns="http://www.w3.org/2000/svg" xmlns:xlink="http://www.w3.org/1999/xlink" viewBox="0,0,1024,1024">
	<!-- Color names: teamapps-color-1 -->
	<desc>pool icon - Licensed under Apache License v2.0 (http://www.apache.org/licenses/LICENSE-2.0) - Created with Iconfu.com - Derivative work of Material icons (Copyright Google Inc.)</desc>
	<g fill="none" fill-rule="nonzero" style="mix-blend-mode: normal">
		<g color="#039be5" class="teamapps-color-1">
			<path d="M254.77,496.53c-4.29,-20.33 1.98,-41.45 16.67,-56.14l78.48,-78.48c-25.7,-23.83 -49.53,-32.81 -100.4,-32.53c-34.06,0.19 -61.78,-27.37 -61.78,-61.44v-93.87c0,-33.84 27.36,-61.3 61.19,-61.44c105.67,-0.43 176.8,20.43 249.45,93.09l30.52,30.47c14.65,-70.55 77.17,-123.56 152.06,-123.56c85.77,0 155.31,69.54 155.31,155.31c0,74.82 -52.91,137.27 -123.33,152.01l26.46,26.42c13.78,13.76 20.22,33.24 17.36,52.51c-0.41,2.75 -1,5.45 -1.77,8.09c2.2,-0.06 4.43,-0.09 6.69,-0.09c58.27,0 93.19,20.62 113.36,32.73c5.6,3.33 7.36,4.3 8.17,4.69c0.74,0.09 1.88,0.13 3.5,0.13c33.93,0 61.44,27.51 61.44,61.44v75.09c0,18.65 -8.31,35.35 -21.41,46.61c13.55,11.27 22.17,28.26 22.17,47.25v75.09c0,33.93 -27.51,61.44 -61.44,61.44c-58.27,0 -93.19,-20.62 -113.36,-32.73c-5.6,-3.33 -7.36,-4.3 -8.17,-4.69l-6.72,-0.34l-8.86,5.27c-19.8,11.62 -54.43,32.48 -112.95,32.48c-58.27,0 -93.19,-20.62 -113.36,-32.73c-5.6,-3.33 -7.36,-4.3 -8.17,-4.69l-6.72,-0.34l-8.86,5.27c-20.02,11.75 -54.95,32.48 -113.32,32.48c-58.38,0 -93.31,-20.7 -113.46,-32.79l-7.74,-4.62l-7.14,-0.26l-8.77,5.18c-20.02,11.75 -54.95,32.48 -113.32,32.48c-33.93,0 -61.44,-27.51 -61.44,-61.44v-75.09c0,-18.82 8.46,-35.66 21.79,-46.93c-13.33,-11.27 -21.79,-28.11 -21.79,-46.93v-75.09c0,-33.93 27.51,-61.44 61.44,-61.44l3.22,0.21l8.25,-4.9c19.7,-11.82 53.71,-31.99 109.94,-32.83c-1.35,-3.33 -2.41,-6.8 -3.17,-10.37zM386.97,512c21.02,0 29.29,-4.88 43.18,-13.52c17.27,-10.14 40.55,-24.03 82.23,-24.03c41.68,0 64.95,13.9 81.85,24.03c13.9,8.26 22.53,13.52 43.18,13.52c20.65,0 29.28,-4.88 43.17,-13.52c4.51,-2.63 9.77,-5.63 15.4,-8.63l-241.05,-240.68c-58.19,-58.19 -111.89,-75.47 -205.76,-75.09v93.87c68.33,-0.38 108.51,14.64 150.19,56.32l37.55,37.54l-122.03,122.03c11.64,4.51 21.02,10.14 28.91,14.64c13.9,8.63 22.16,13.52 43.18,13.52zM887.47,774.83c-21.02,0 -29.29,-4.88 -43.18,-13.52c-16.9,-10.14 -40.17,-24.03 -81.85,-24.03c-41.68,0 -64.96,13.9 -81.86,24.03c-13.9,8.63 -22.52,13.52 -43.17,13.52c-20.65,0 -29.29,-5.25 -43.18,-13.52c-16.9,-10.14 -40.17,-24.03 -81.85,-24.03c-41.68,0 -64.95,13.9 -82.23,24.03c-13.9,8.63 -22.16,13.52 -43.18,13.52c-21.02,0 -29.29,-4.88 -43.18,-13.52c-16.9,-10.14 -40.17,-24.03 -81.85,-24.03c-41.68,0 -64.95,13.9 -82.23,24.03c-13.9,8.63 -22.16,13.52 -43.18,13.52v75.09c41.68,0 64.95,-13.9 82.23,-24.03c13.9,-8.63 22.53,-13.52 43.18,-13.52c20.65,0 29.29,4.88 43.18,13.52c16.9,10.14 40.17,24.03 81.85,24.03c41.68,0 64.95,-13.9 82.23,-24.03c13.9,-8.63 22.16,-13.52 43.18,-13.52c20.65,0 29.28,5.25 43.17,13.52c16.9,10.14 40.18,24.03 81.86,24.03c41.68,0 64.57,-13.9 81.85,-24.03c13.9,-8.63 22.16,-13.52 43.18,-13.52c20.65,0 29.28,5.25 43.17,13.52c16.9,10.14 40.18,24.03 81.86,24.03zM886.71,680.96v-75.09c-20.65,0 -29.28,-5.25 -43.17,-13.52c-16.9,-10.14 -40.18,-24.03 -81.86,-24.03c-41.68,0 -64.95,13.9 -81.85,24.03c-13.9,8.63 -22.53,13.52 -43.18,13.52c-20.65,0 -29.28,-5.25 -43.17,-13.52c-16.9,-10.14 -40.18,-24.03 -81.86,-24.03c-41.68,0 -64.95,13.9 -81.85,24.03c-13.9,8.63 -22.16,13.52 -43.18,13.52c-20.65,0 -29.28,-5.25 -43.17,-13.52c-16.9,-10.14 -40.18,-24.03 -81.86,-24.03c-41.68,0 -64.95,13.9 -81.85,24.03c-13.9,8.63 -22.16,13.52 -43.18,13.52v75.09c41.68,0 64.96,-13.9 82.61,-24.03c13.9,-8.63 22.53,-13.52 43.18,-13.52c20.65,0 29.28,5.25 43.17,13.52c16.9,10.14 40.18,24.03 81.86,24.03c41.68,0 64.95,-13.9 81.85,-24.03c13.9,-8.63 22.16,-13.52 43.18,-13.52c20.65,0 29.28,5.25 43.17,13.52c16.9,10.14 40.18,24.03 81.86,24.03c41.68,0 64.95,-13.9 81.85,-24.03c13.9,-8.63 22.16,-13.52 43.18,-13.52c20.65,0 29.28,5.25 43.17,13.52c16.79,10.08 39.9,23.87 81.1,24.03zM680.96,361.81c51.84,0 93.87,-42.02 93.87,-93.86c0,-51.84 -42.03,-93.87 -93.87,-93.87c-51.84,0 -93.87,42.03 -93.87,93.87c0,51.84 42.03,93.86 93.87,93.86z" fill="currentColor"/>
		</g>
	</g>
</svg>