<svg version="1.1" xmlns="http://www.w3.org/2000/svg" xmlns:xlink="http://www.w3.org/1999/xlink" viewBox="0,0,1024,1024">
	<!-- Color names: teamapps-color-1 -->
	<desc>power_input icon - Licensed under Apache License v2.0 (http://www.apache.org/licenses/LICENSE-2.0) - Created with Iconfu.com - Derivative work of Material icons (Copyright Google Inc.)</desc>
	<g fill="none" fill-rule="nonzero" style="mix-blend-mode: normal">
		<g color="#039be5" class="teamapps-color-1">
			<path d="M911.36,399.36v75.09c0,14.14 -4.78,27.17 -12.81,37.55c8.03,10.38 12.81,23.41 12.81,37.55v75.09c0,33.93 -27.51,61.44 -61.44,61.44h-187.73c-14.14,0 -27.17,-4.78 -37.55,-12.81c-10.38,8.03 -23.41,12.81 -37.55,12.81h-187.73c-14.14,0 -27.16,-4.78 -37.55,-12.8c-10.38,8.03 -23.41,12.8 -37.55,12.8h-187.74c-33.93,0 -61.44,-27.51 -61.44,-61.44v-75.09c0,-14.14 4.78,-27.17 12.81,-37.55c-8.03,-10.38 -12.81,-23.41 -12.81,-37.55v-75.09c0,-33.93 27.51,-61.44 61.44,-61.44h713.39c33.93,0 61.44,27.51 61.44,61.44zM136.53,399.36v75.09h713.39v-75.09zM662.19,624.64h187.73v-75.09h-187.73zM136.53,624.64h187.74v-75.09h-187.74zM399.36,624.64h187.73v-75.09h-187.73z" fill="currentColor"/>
		</g>
	</g>
</svg>