<svg version="1.1" xmlns="http://www.w3.org/2000/svg" xmlns:xlink="http://www.w3.org/1999/xlink" viewBox="0,0,1024,1024">
	<!-- Color names: teamapps-color-1 -->
	<desc>screen_lock_rotation icon - Licensed under Apache License v2.0 (http://www.apache.org/licenses/LICENSE-2.0) - Created with Iconfu.com - Derivative work of Material icons (Copyright Google Inc.)</desc>
	<g fill="none" fill-rule="nonzero" style="mix-blend-mode: normal">
		<g color="#039be5" class="teamapps-color-1">
			<path d="M977.84,663.96l-238.65,238.65c-28.91,29.25 -69.09,39.91 -106.34,32.47c-0.69,3.74 -1.74,7.44 -3.15,11.07c-8.81,22.68 -30.17,38.02 -54.48,39.12l-25.16,1.14c-0.8,0.04 -1.61,0.05 -2.41,0.05c-268.47,0 -488.15,-206.58 -509.91,-469.38c-2.96,-35.81 25.3,-66.51 61.23,-66.51h21.38c-45.59,-46.16 -44.64,-120.09 0.88,-165.61l238.65,-238.65c46.08,-46.63 120.79,-46.01 166.64,-0.15l77.45,77.45c14.64,-70.55 77.17,-123.61 152.06,-123.61c78.11,0 142.79,57.72 153.69,132.82c23.77,18.07 39.17,46.62 39.17,78.81v150.18c0,29.26 -12.75,55.59 -33,73.72l61.78,61.78c46.63,46.09 46.01,120.79 0.15,166.64zM478.69,277.97l-35.4,-35.4l-125.62,125.63l338.13,338.13l125.63,-125.62l-39.91,-39.91c-21.81,-21.81 -23.8,-55.95 -5.95,-80h-73.39c-54.59,0 -98.99,-44.4 -98.99,-98.99v-81.58c-24.12,21.71 -61.29,20.95 -84.51,-2.26zM368.6,754.37l17.35,-17.35c3.6,-3.6 7.53,-6.66 11.7,-9.18l-172.77,-172.77c20.86,83.35 73.16,154.27 143.72,199.3zM934.4,540.91l-96.49,-96.49l-52.94,52.94l83.35,83.35l-212.52,212.51l-425.02,-425.02l212.51,-212.52l78.85,78.85l52.94,-52.94l-91.99,-91.99c-22.15,-22.15 -57.82,-22.15 -79.6,0l-238.8,238.8c-22.15,22.15 -22.15,57.82 0,79.6l451.32,451.32c22.15,22.15 57.82,22.15 79.6,0l238.8,-238.8c22.15,-22.15 22.15,-57.82 0,-79.6zM379.46,830.39c-122.78,-57.82 -210.64,-177.21 -224.15,-318.39h-56.32c19.15,231.29 212.51,413.01 448.68,413.01l24.78,-1.13l-143.05,-143.42zM662.19,399.36h187.73c20.65,0 37.55,-16.9 37.55,-37.55v-150.18c0,-20.65 -16.9,-37.55 -37.55,-37.55v-18.77c0,-51.81 -42.06,-93.87 -93.87,-93.87c-51.81,0 -93.86,42.06 -93.86,93.87v18.77c-20.65,0 -37.55,16.9 -37.55,37.55v150.18c0,20.65 16.9,37.55 37.55,37.55zM692.22,155.31c0,-35.3 28.53,-63.84 63.83,-63.84c35.3,0 63.84,28.54 63.84,63.84v18.77h-127.66z" fill="currentColor"/>
		</g>
	</g>
</svg>