<svg version="1.1" xmlns="http://www.w3.org/2000/svg" xmlns:xlink="http://www.w3.org/1999/xlink" viewBox="0,0,1024,1024">
	<!-- Color names: teamapps-color-1 -->
	<desc>settings_input_antenna icon - Licensed under Apache License v2.0 (http://www.apache.org/licenses/LICENSE-2.0) - Created with Iconfu.com - Derivative work of Material icons (Copyright Google Inc.)</desc>
	<g fill="none" fill-rule="nonzero" style="mix-blend-mode: normal">
		<g color="#039be5" class="teamapps-color-1">
			<path d="M925.01,573.44h-75.09c-14.14,0 -27.16,-4.78 -37.55,-12.8c-10.38,8.03 -23.41,12.8 -37.55,12.8h-75.1c-15.11,0 -28.94,-5.45 -39.64,-14.5c-9.16,28.87 -26.52,53.88 -49.1,72.58v64.92l110.04,110.04c23.99,23.99 23.99,62.9 0,86.89l-52.94,52.94c-23.99,23.99 -62.9,23.99 -86.89,0l-69.2,-69.2l-69.2,69.2c-23.99,23.99 -62.9,23.99 -86.89,0l-52.94,-52.94c-23.99,-23.99 -23.99,-62.9 0,-86.89l110.04,-110.04v-64.97c-22.57,-18.75 -39.9,-43.8 -49.06,-72.56c-10.71,9.07 -24.56,14.53 -39.68,14.53h-75.1c-14.14,0 -27.16,-4.78 -37.55,-12.8c-10.38,8.03 -23.41,12.8 -37.55,12.8h-75.09c-33.93,0 -61.44,-27.51 -61.44,-61.44c0,-261.84 212.61,-474.45 474.45,-474.45c261.84,0 474.45,212.61 474.45,474.45c0,33.93 -27.51,61.44 -61.44,61.44zM512,98.99c-227.91,0 -413.01,185.1 -413.01,413.01h75.09c0,-186.6 151.32,-337.92 337.92,-337.92c186.6,0 337.92,151.32 337.92,337.92h75.09c0,-227.91 -185.1,-413.01 -413.01,-413.01zM549.55,597.98c33.04,-14.64 56.32,-47.31 56.32,-85.98c0,-51.81 -42.06,-93.87 -93.87,-93.87c-51.81,0 -93.87,42.06 -93.87,93.87c0,38.3 23.28,71.34 56.32,85.98v123.9l-128.03,128.03l52.94,52.94l112.64,-112.64l112.64,112.64l52.94,-52.94l-128.03,-128.03zM512,249.17c-145.31,0 -262.83,117.52 -262.83,262.83h75.1c0,-103.63 84.1,-187.73 187.73,-187.73c103.63,0 187.73,84.1 187.73,187.73h75.1c0,-145.31 -117.52,-262.83 -262.83,-262.83z" fill="currentColor"/>
		</g>
	</g>
</svg>