<svg version="1.1" xmlns="http://www.w3.org/2000/svg" xmlns:xlink="http://www.w3.org/1999/xlink" viewBox="0,0,1024,1024">
	<!-- Color names: teamapps-color-1 -->
	<desc>star_border icon - Licensed under Apache License v2.0 (http://www.apache.org/licenses/LICENSE-2.0) - Created with Iconfu.com - Derivative work of Material icons (Copyright Google Inc.)</desc>
	<g fill="none" fill-rule="nonzero" style="mix-blend-mode: normal">
		<g color="#039be5" class="teamapps-color-1">
			<path d="M751.04,608.12l52.85,227.92c5.58,24.05 -3.78,49.1 -23.76,63.6c-19.98,14.5 -46.7,15.63 -67.84,2.88l-200.29,-120.89l-200.29,120.89c-21.15,12.77 -47.89,11.62 -67.87,-2.9c-19.98,-14.52 -29.32,-39.6 -23.71,-63.66l53.15,-227.84l-176.98,-153.31c-18.67,-16.18 -25.84,-41.96 -18.2,-65.45c7.64,-23.49 28.61,-40.12 53.23,-42.21l233.05,-19.77l91.05,-214.82c9.62,-22.71 31.89,-37.46 56.55,-37.46c24.66,-0.01 46.94,14.73 56.57,37.43l91.06,214.53l233.13,20.1c24.59,2.12 45.52,18.75 53.15,42.21c7.63,23.47 0.48,49.23 -18.16,65.4zM556.18,578.54c-5.19,-22.2 2.35,-45.45 19.57,-60.39l15.05,-13.05l-19.9,-1.73c-22.67,-1.97 -42.4,-16.3 -51.27,-37.26l-7.53,-17.79l-7.31,17.34c-8.86,20.99 -28.6,35.36 -51.3,37.33l-19.91,1.73l15.05,13.06c17.22,14.94 24.76,38.19 19.57,60.39l-4.4,18.82l16.44,-9.93c19.54,-11.8 44.02,-11.79 63.55,0.03l16.75,10.13zM887.47,408.37l-269.97,-23.28l-105.5,-248.56l-105.5,248.93l-269.97,22.91l205,177.59l-61.57,263.96l232.04,-140.05l232.04,140.05l-61.2,-263.96zM512,639.66l-141.18,85.23l37.55,-160.7l-124.65,-108.13l164.45,-14.27l63.83,-151.31l64.2,151.69l164.45,14.26l-124.65,108.13l37.54,160.71z" fill="currentColor"/>
		</g>
	</g>
</svg>