<svg version="1.1" xmlns="http://www.w3.org/2000/svg" xmlns:xlink="http://www.w3.org/1999/xlink" viewBox="0,0,1024,1024">
	<!-- Color names: teamapps-color-1 -->
	<desc>style icon - Licensed under Apache License v2.0 (http://www.apache.org/licenses/LICENSE-2.0) - Created with Iconfu.com - Derivative work of Material icons (Copyright Google Inc.)</desc>
	<g fill="none" fill-rule="nonzero" style="mix-blend-mode: normal">
		<g color="#039be5" class="teamapps-color-1">
			<path d="M871.13,814.72l-276.99,114.77c-16.54,6.62 -34.04,10.03 -51.74,10.03c-0.23,0 -0.46,0 -0.69,0c-28.34,-0.37 -56.34,-9.6 -79.48,-26.43c-11.47,16.54 -30.32,26.43 -50.49,26.43h-54.45c-50.02,0 -93.88,-27.1 -117.66,-67.37c-16.92,10.73 -38.05,12.55 -56.59,4.8l-50.31,-21.02c-69.06,-28.78 -102.11,-108.26 -74.25,-177.6l91.49,-220.65c11.23,-27.07 40.01,-42.45 68.75,-36.72c8.02,1.6 15.41,4.71 21.9,9.01l-9.86,-23.8c-7.4,-17.59 -11.02,-36.45 -10.35,-55.67c1.48,-51.91 32.58,-101.12 84.12,-122.43l276.52,-114.44c18.89,-7.94 37.42,-10.38 53.33,-10.38c0.53,0 1.06,0.01 1.59,0.02c51.66,1.34 101.66,32.15 123.15,84.13l186.22,449.39c28.94,69.71 -4.97,149.37 -74.22,177.93zM271.51,504.44l-3.32,-8.01v8.7zM888.6,660.31l-186.23,-449.43c-11.64,-28.16 -39.05,-45.43 -67.96,-46.18c-9.76,0 -19.9,1.5 -29.66,5.63l-276.72,114.52c-28.16,11.64 -45.43,38.68 -46.18,67.58c-0.38,10.14 1.5,20.28 5.63,30.03l186.23,449.43c11.64,28.54 39.42,45.8 68.71,46.18c9.76,0 19.52,-1.87 28.91,-5.63l276.35,-114.51c38.3,-15.77 56.7,-59.71 40.93,-97.63zM282.21,802.99c0,41.3 33.79,75.09 75.09,75.09h54.45l-129.54,-313.14zM156.44,799.23l50.31,21.02v-339.05l-91.24,220.03c-15.39,38.3 3.01,82.23 40.93,98zM357.3,389.97c-20.65,0 -37.54,-16.89 -37.54,-37.54c0,-20.65 16.89,-37.55 37.54,-37.55c20.65,0 37.55,16.9 37.55,37.55c0,20.65 -16.9,37.54 -37.55,37.54z" fill="currentColor"/>
		</g>
	</g>
</svg>