<svg version="1.1" xmlns="http://www.w3.org/2000/svg" xmlns:xlink="http://www.w3.org/1999/xlink" viewBox="0,0,1024,1024">
	<!-- Color names: teamapps-color-1 -->
	<desc>sync_disabled icon - Licensed under Apache License v2.0 (http://www.apache.org/licenses/LICENSE-2.0) - Created with Iconfu.com - Derivative work of Material icons (Copyright Google Inc.)</desc>
	<g fill="none" fill-rule="nonzero" style="mix-blend-mode: normal">
		<g color="#039be5" class="teamapps-color-1">
			<path d="M260.36,173.47l45.15,45.21c4.29,-5.27 9.46,-9.86 15.38,-13.51c30.46,-18.82 64.23,-33.7 100.42,-43.2c18.42,-4.84 38.05,-0.86 53.13,10.78c15.08,11.63 23.91,29.6 23.91,48.65v78.47c0,26.45 -16.92,49.92 -42.01,58.29c-2.64,0.88 -5.29,1.92 -8.31,3.23l77.66,77.76l-0.04,-227.51c0,-33.93 27.51,-61.44 61.44,-61.44h225.28c24.85,0 47.25,14.97 56.76,37.93c9.51,22.96 4.25,49.38 -13.32,66.96l-48.71,48.71c41.77,58.6 66.71,130.37 66.71,208.21c0,70.56 -20.39,136.32 -55.29,191.61c-3.69,5.84 -8.28,10.95 -13.55,15.17l45.24,45.3c23.97,24 23.96,62.88 -0.03,86.86l-47.68,47.68c-23.99,23.99 -62.89,23.99 -86.89,0l-56.61,-56.6c-18.08,8.1 -37.03,14.85 -56.69,20.02c-18.42,4.84 -38.05,0.86 -53.13,-10.78c-15.08,-11.63 -23.91,-29.6 -23.91,-48.65v-78.47c0,-4.96 0.6,-9.82 1.73,-14.5l-28.66,-28.66v131.39c0,33.93 -27.51,61.44 -61.44,61.44h-225.28c-24.85,0 -47.25,-14.97 -56.76,-37.93c-9.51,-22.96 -4.25,-49.38 13.32,-66.96l48.71,-48.71c-41.77,-58.6 -66.71,-130.37 -66.71,-208.21c0,-52.64 11.35,-102.61 31.61,-147.57l-56.42,-56.42c-24.06,-24.06 -23.98,-63.09 0.17,-87.06l48.06,-47.69c24.03,-23.85 62.83,-23.76 86.75,0.2zM349.38,532.02c1.89,15.38 5.94,30.09 11.84,43.87l16.02,-16.02zM675.84,512c0,-22.67 -4.64,-44.22 -13.06,-63.89l-32.24,32.24c-12.32,12.32 -28.98,18.58 -45.75,17.95l77.84,77.94c8.49,-19.88 13.22,-41.53 13.22,-64.25zM168.83,264.57l88.61,88.61c-28.91,45.8 -45.8,100.25 -45.8,158.82c0,82.98 34.16,157.7 88.61,211.76l-88.61,88.61h225.28v-225.28l-84.11,84.11c-40.55,-40.93 -66.08,-96.87 -66.08,-159.2c0,-37.55 9.38,-72.85 25.53,-104.01l303.38,303.38c-9.39,4.88 -18.77,9.39 -28.91,12.77v78.47c30.03,-7.88 58.19,-20.28 83.72,-36.04l88.62,88.61l47.68,-47.68l-589.86,-590.61zM812.37,211.63h-225.28v225.28l84.11,-84.11c40.55,40.93 66.08,96.87 66.08,159.2c0,37.55 -9.38,72.85 -25.53,104.01l54.82,54.82c28.91,-45.8 45.8,-100.25 45.8,-158.82c0,-82.98 -34.16,-157.7 -88.61,-211.76zM436.91,299.86v-78.47c-30.03,7.88 -58.2,20.28 -83.73,36.04l54.82,54.82c9.39,-4.51 18.78,-9.01 28.92,-12.39z" fill="currentColor"/>
		</g>
	</g>
</svg>