<svg version="1.1" xmlns="http://www.w3.org/2000/svg" xmlns:xlink="http://www.w3.org/1999/xlink" viewBox="0,0,1024,1024">
	<!-- Color names: teamapps-color-1 -->
	<desc>timelapse icon - Licensed under Apache License v2.0 (http://www.apache.org/licenses/LICENSE-2.0) - Created with Iconfu.com - Derivative work of Material icons (Copyright Google Inc.)</desc>
	<g fill="none" fill-rule="nonzero" style="mix-blend-mode: normal">
		<g color="#039be5" class="teamapps-color-1">
			<path d="M948.91,512c0,241.19 -195.72,436.91 -436.91,436.91c-241.19,0 -436.91,-195.72 -436.91,-436.91c0,-241.19 195.72,-436.91 436.91,-436.91c241.19,0 436.91,195.72 436.91,436.91zM273.07,512c0,43.8 11.77,84.84 32.31,120.12c1.24,-1.5 2.57,-2.96 3.97,-4.37l141.21,-141.21v-199.83c0,-1.94 0.09,-3.86 0.27,-5.76c-102.36,27 -177.76,120.16 -177.76,231.04zM512,136.53c-207.26,0 -375.47,168.21 -375.47,375.47c0,207.26 168.21,375.47 375.47,375.47c207.26,0 375.47,-168.21 375.47,-375.47c0,-207.26 -168.21,-375.47 -375.47,-375.47zM512,812.37c-165.96,0 -300.37,-134.41 -300.37,-300.37c0,-165.96 134.41,-300.37 300.37,-300.37c165.96,0 300.37,134.41 300.37,300.37c0,165.96 -134.41,300.37 -300.37,300.37zM671.2,352.8c-43.93,-43.93 -101.38,-66.08 -159.2,-66.08v225.28l-159.2,159.2c87.86,87.86 230.53,87.86 318.77,0c87.86,-87.86 87.87,-230.54 -0.37,-318.4z" fill="currentColor"/>
		</g>
	</g>
</svg>