<svg version="1.1" xmlns="http://www.w3.org/2000/svg" xmlns:xlink="http://www.w3.org/1999/xlink" viewBox="0,0,1024,1024">
	<!-- Color names: teamapps-color-1 -->
	<desc>transform icon - Licensed under Apache License v2.0 (http://www.apache.org/licenses/LICENSE-2.0) - Created with Iconfu.com - Derivative work of Material icons (Copyright Google Inc.)</desc>
	<g fill="none" fill-rule="nonzero" style="mix-blend-mode: normal">
		<g color="#039be5" class="teamapps-color-1">
			<path d="M855.82,855.82l-112.64,112.64c-23.99,23.99 -62.9,23.99 -86.89,0l-112.64,-112.64c-15.1,-15.1 -21.11,-36.74 -16.46,-57.1h-165.37c-75.23,0 -136.53,-61.3 -136.53,-136.53v-238.94h-88.75c-33.93,0 -61.44,-27.51 -61.44,-61.44v-75.09c0,-33.93 27.51,-61.44 61.44,-61.44h15.19c-4.64,-20.36 1.36,-42 16.46,-57.1l112.64,-112.64c23.99,-23.99 62.9,-23.99 86.89,0l112.64,112.64c15.1,15.1 21.11,36.74 16.46,57.1h165.37c75.23,0 136.53,61.3 136.53,136.53v225.28c0,4.69 -0.53,9.27 -1.52,13.66h90.27c33.93,0 61.44,27.51 61.44,61.44v75.09c0,33.93 -27.51,61.44 -61.44,61.44h-15.19c4.64,20.36 -1.36,42 -16.46,57.1zM423.25,600.75h179.02c-1,-4.39 -1.52,-8.96 -1.52,-13.66v-163.84h-163.84c-4.69,0 -9.27,-0.53 -13.66,-1.52zM887.47,737.28v-75.09h-525.66v-450.56h75.1l-112.64,-112.64l-112.64,112.64h75.09v75.09h-150.19v75.09h150.19v300.38c0,41.3 33.79,75.09 75.09,75.09h300.38v75.09h-75.1l112.64,112.64l112.64,-112.64h-75.09v-75.09zM436.91,361.81h225.28v225.28h75.09v-225.28c0,-41.3 -33.79,-75.09 -75.09,-75.09h-225.28z" fill="currentColor"/>
		</g>
	</g>
</svg>