<svg version="1.1" xmlns="http://www.w3.org/2000/svg" xmlns:xlink="http://www.w3.org/1999/xlink" viewBox="0,0,1024,1024">
	<!-- Color names: teamapps-color-1 -->
	<desc>tune icon - Licensed under Apache License v2.0 (http://www.apache.org/licenses/LICENSE-2.0) - Created with Iconfu.com - Derivative work of Material icons (Copyright Google Inc.)</desc>
	<g fill="none" fill-rule="nonzero" style="mix-blend-mode: normal">
		<g color="#039be5" class="teamapps-color-1">
			<path d="M413.01,849.92v-15.17c-4.39,1 -8.96,1.52 -13.65,1.52h-225.28c-33.93,0 -61.44,-27.51 -61.44,-61.44v-75.1c0,-33.93 27.51,-61.44 61.44,-61.44h90.27c-1,-4.39 -1.52,-8.96 -1.52,-13.65v-13.65h-88.75c-33.93,0 -61.44,-27.51 -61.44,-61.44v-75.1c0,-33.93 27.51,-61.44 61.44,-61.44h88.75v-13.65c0,-4.69 0.53,-9.26 1.52,-13.65h-90.27c-33.93,0 -61.44,-27.51 -61.44,-61.44v-75.1c0,-33.93 27.51,-61.44 61.44,-61.44h375.47c4.69,0 9.26,0.53 13.65,1.52v-15.17c0,-33.93 27.51,-61.44 61.44,-61.44h75.09c33.93,0 61.44,27.51 61.44,61.44v13.65h88.75c33.93,0 61.44,27.51 61.44,61.44v75.1c0,33.93 -27.51,61.44 -61.44,61.44h-88.75v13.65c0,4.69 -0.53,9.26 -1.52,13.65h90.27c33.93,0 61.44,27.51 61.44,61.44v75.1c0,33.93 -27.51,61.44 -61.44,61.44h-240.45c1,4.39 1.52,8.96 1.52,13.65v13.65h238.93c33.93,0 61.44,27.51 61.44,61.44v75.1c0,33.93 -27.51,61.44 -61.44,61.44h-238.93v13.65c0,33.93 -27.51,61.44 -61.44,61.44h-75.1c-33.93,0 -61.44,-27.51 -61.44,-61.44zM563.2,399.36v-15.17c-4.39,1 -8.96,1.52 -13.65,1.52h-90.27c1,4.39 1.52,8.96 1.52,13.65v15.17c4.39,-1 8.96,-1.52 13.65,-1.52h90.27c-1,-4.39 -1.52,-8.96 -1.52,-13.65zM549.55,849.92v-75.09h300.37v-75.1h-300.37v-75.09h-75.1v225.28zM324.27,399.36v75.09h-150.19v75.1h150.19v75.09h75.09v-225.28zM624.64,399.36h75.09v-75.09h150.19v-75.1h-150.19v-75.09h-75.09zM849.92,549.55v-75.1h-375.47v75.1zM174.08,249.17v75.1h375.47v-75.1zM174.08,699.73v75.1h225.28v-75.1z" fill="currentColor"/>
		</g>
	</g>
</svg>