<svg version="1.1" xmlns="http://www.w3.org/2000/svg" xmlns:xlink="http://www.w3.org/1999/xlink" viewBox="0,0,1024,1024">
	<!-- Color names: teamapps-color-1 -->
	<desc>view_array icon - Licensed under Apache License v2.0 (http://www.apache.org/licenses/LICENSE-2.0) - Created with Iconfu.com - Derivative work of Material icons (Copyright Google Inc.)</desc>
	<g fill="none" fill-rule="nonzero" style="mix-blend-mode: normal">
		<g color="#039be5" class="teamapps-color-1">
			<path d="M361.81,187.73h337.92c6.55,0 12.86,1.02 18.77,2.92c5.92,-1.9 12.23,-2.92 18.77,-2.92h112.64c33.93,0 61.44,27.51 61.44,61.44v488.11c0,33.93 -27.51,61.44 -61.44,61.44h-112.64c-6.55,0 -12.86,-1.02 -18.77,-2.92c-5.92,1.9 -12.23,2.92 -18.77,2.92h-337.92c-6.55,0 -12.85,-1.02 -18.77,-2.92c-5.92,1.9 -12.22,2.92 -18.77,2.92h-112.64c-33.93,0 -61.44,-27.51 -61.44,-61.44v-488.11c0,-33.93 27.51,-61.44 61.44,-61.44h112.64c6.55,0 12.85,1.02 18.77,2.92c5.92,-1.9 12.22,-2.92 18.77,-2.92zM361.81,737.28h337.92v-488.11h-337.92zM737.28,249.17v488.11h112.64v-488.11zM211.63,737.28h112.64v-488.11h-112.64z" fill="currentColor"/>
		</g>
	</g>
</svg>