<svg version="1.1" xmlns="http://www.w3.org/2000/svg" xmlns:xlink="http://www.w3.org/1999/xlink" viewBox="0,0,1024,1024">
	<!-- Color names: teamapps-color-1 -->
	<desc>voicemail icon - Licensed under Apache License v2.0 (http://www.apache.org/licenses/LICENSE-2.0) - Created with Iconfu.com - Derivative work of Material icons (Copyright Google Inc.)</desc>
	<g fill="none" fill-rule="nonzero" style="mix-blend-mode: normal">
		<g color="#039be5" class="teamapps-color-1">
			<path d="M1024,493.23c0,148.08 -119.88,267.94 -267.95,267.94h-488.1c-148.07,0 -267.95,-119.86 -267.95,-267.94c0,-148.08 119.87,-267.95 267.95,-267.95c108.54,0 201.92,64.41 244.05,157.12c42.13,-92.71 135.51,-157.12 244.05,-157.12c148.08,0 267.95,119.87 267.95,267.95zM337.92,493.23c0,-38.54 -31.44,-69.98 -69.97,-69.98c-38.54,0 -69.98,31.44 -69.98,69.98c0,38.53 31.44,69.97 69.98,69.97c38.54,0 69.97,-31.43 69.97,-69.97zM826.03,493.23c0,-38.54 -31.44,-69.98 -69.98,-69.98c-38.53,0 -69.97,31.44 -69.97,69.98c0,38.54 31.43,69.97 69.97,69.97c38.54,0 69.98,-31.44 69.98,-69.97zM756.05,286.72c-114.14,0 -206.5,92.36 -206.5,206.51c0,49.94 17.64,95.74 47.31,131.41h-169.72c29.66,-35.67 47.31,-81.47 47.31,-131.41c0,-114.14 -92.36,-206.51 -206.5,-206.51c-114.14,0 -206.51,92.36 -206.51,206.51c0,114.14 92.36,206.5 206.51,206.5h488.1c114.14,0 206.51,-92.36 206.51,-206.5c0,-114.14 -92.36,-206.51 -206.51,-206.51zM267.95,624.64c-72.47,0 -131.42,-58.94 -131.42,-131.41c0,-72.47 58.95,-131.42 131.42,-131.42c72.47,0 131.41,58.95 131.41,131.42c0,72.47 -58.94,131.41 -131.41,131.41zM756.05,624.64c-72.47,0 -131.41,-58.94 -131.41,-131.41c0,-72.47 58.94,-131.42 131.41,-131.42c72.47,0 131.42,58.95 131.42,131.42c0,72.47 -58.95,131.41 -131.42,131.41z" fill="currentColor"/>
		</g>
	</g>
</svg>