<svg version="1.1" xmlns="http://www.w3.org/2000/svg" xmlns:xlink="http://www.w3.org/1999/xlink" viewBox="0,0,1024,1024">
	<!-- Color names: teamapps-color-1 -->
	<desc>web icon - Licensed under Apache License v2.0 (http://www.apache.org/licenses/LICENSE-2.0) - Created with Iconfu.com - Derivative work of Material icons (Copyright Google Inc.)</desc>
	<g fill="none" fill-rule="nonzero" style="mix-blend-mode: normal">
		<g color="#039be5" class="teamapps-color-1">
			<path d="M948.91,286.72v450.56c0,75.24 -61.32,136.53 -136.54,136.53h-600.74c-75.22,0 -136.54,-61.29 -136.54,-136.53l0.38,-450.59c0.01,-74.82 60.54,-136.5 136.16,-136.5h600.74c75.22,0 136.54,61.29 136.54,136.53zM563.2,460.8h-290.13v27.31h290.13zM563.2,648.53h-290.13v27.31h290.13zM723.63,460.8v215.04h27.3v-215.04zM812.37,211.63h-600.74c-41.3,0 -74.72,33.79 -74.72,75.09l-0.38,450.56c0,41.3 33.8,75.09 75.1,75.09h600.74c41.3,0 75.1,-33.79 75.1,-75.09v-450.56c0,-41.3 -33.8,-75.09 -75.1,-75.09zM624.64,737.28h-413.01v-150.19h413.01zM624.64,549.55h-413.01v-150.19h413.01zM812.37,737.28h-150.18v-337.92h150.18z" fill="currentColor"/>
		</g>
	</g>
</svg>