<svg version="1.1" xmlns="http://www.w3.org/2000/svg" xmlns:xlink="http://www.w3.org/1999/xlink" viewBox="0,0,1024,1024">
	<!-- Color names: teamapps-color-1 -->
	<desc>wifi_tethering icon - Licensed under Apache License v2.0 (http://www.apache.org/licenses/LICENSE-2.0) - Created with Iconfu.com - Derivative work of Material icons (Copyright Google Inc.)</desc>
	<g fill="none" fill-rule="nonzero" style="mix-blend-mode: normal">
		<g color="#039be5" class="teamapps-color-1">
			<path d="M948.91,549.55c0,161.83 -88.02,302.51 -218.41,377.95c-29.38,17 -66.98,6.95 -83.96,-22.44l-37.54,-64.95c-7.07,-12.23 -9.45,-25.87 -7.71,-38.87c-12.17,-4.99 -22.85,-13.92 -29.91,-26.22l-37.55,-65.33c-4.44,-7.72 -7.01,-16.01 -7.86,-24.33c-4.59,0.47 -9.25,0.71 -13.96,0.71c-4.71,0 -9.37,-0.24 -13.96,-0.71c-0.85,8.33 -3.43,16.61 -7.86,24.33l-37.55,65.33c-7.14,12.41 -17.94,21.39 -30.26,26.36c1.71,12.95 -0.69,26.55 -7.73,38.73l-37.55,64.95c-17,29.41 -54.65,39.44 -84.04,22.39c-129.97,-75.45 -217.96,-216.11 -217.96,-377.91c0,-241.19 195.72,-436.91 436.91,-436.91c241.19,0 436.91,195.72 436.91,436.91zM512,174.08c-207.26,0 -375.47,168.21 -375.47,375.47c0,138.93 75.47,259.82 187.36,324.77l37.55,-64.95c-89.36,-52.19 -149.81,-148.68 -149.81,-259.82c0,-165.96 134.41,-300.38 300.37,-300.38c165.96,0 300.37,134.42 300.37,300.38c0,111.14 -60.45,207.63 -150.18,259.82l37.54,64.95c112.26,-64.95 187.74,-185.85 187.74,-324.77c0,-207.26 -168.21,-375.47 -375.47,-375.47zM737.28,549.55c0,-124.28 -101,-225.28 -225.28,-225.28c-124.28,0 -225.28,101 -225.28,225.28c0,83.35 45.43,155.82 112.64,194.87l37.55,-65.33c-44.68,-26.29 -75.1,-73.96 -75.1,-129.54c0,-82.98 67.21,-150.19 150.19,-150.19c82.98,0 150.19,67.21 150.19,150.19c0,55.57 -30.42,103.25 -75.1,129.54l37.55,65.33c67.21,-39.05 112.64,-111.51 112.64,-194.87zM512,474.45c-41.3,0 -75.09,33.8 -75.09,75.1c0,41.3 33.79,75.09 75.09,75.09c41.3,0 75.09,-33.79 75.09,-75.09c0,-41.3 -33.79,-75.1 -75.09,-75.1z" fill="currentColor"/>
		</g>
	</g>
</svg>