<svg version="1.1" xmlns="http://www.w3.org/2000/svg" xmlns:xlink="http://www.w3.org/1999/xlink" viewBox="0,0,1024,1024">
	<!-- Color names: teamapps-color-1, teamapps-effect-color-1 -->
	<desc>access_alarms icon - Licensed under Apache License v2.0 (http://www.apache.org/licenses/LICENSE-2.0) - Created with Iconfu.com - Derivative work of Material icons (Copyright Google Inc.)</desc>
	<defs>
		<clipPath id="clip-RH4QHPgH">
			<path d="M60.37,53.69h963.63v970.31h-963.63z"/>
		</clipPath>
		<filter id="filter-JOtOFbLi" x="-8%" y="-8%" width="140%" height="139%" color-interpolation-filters="sRGB">
			<feColorMatrix values="1 0 0 0 0 0 1 0 0 0 0 0 1 0 0 0 0 0 0.17 0" in="SourceGraphic"/>
			<feOffset dx="14.14" dy="14.14"/>
			<feGaussianBlur stdDeviation="11" result="blur0"/>
			<feColorMatrix values="1 0 0 0 0 0 1 0 0 0 0 0 1 0 0 0 0 0 0.25 0" in="SourceGraphic"/>
			<feOffset dx="21.21" dy="21.21"/>
			<feGaussianBlur stdDeviation="20" result="blur1"/>
			<feMerge>
				<feMergeNode in="blur0"/>
				<feMergeNode in="blur1"/>
			</feMerge>
		</filter>
	</defs>
	<g fill="none" fill-rule="nonzero" style="mix-blend-mode: normal">
		<g clip-path="url(#clip-RH4QHPgH)">
			<path d="M872.58,545.41c0,200.12 -160.45,360.58 -360.58,360.58c-200.12,0 -360.58,-160.45 -360.58,-360.58c0,-52.82 11.18,-102.88 31.32,-147.96c-2.35,-1.99 -4.58,-4.18 -6.66,-6.58l-43.43,-50.11c-22.03,-25.42 -18.82,-63.99 7.12,-85.42l153.68,-126.95c25.08,-20.72 62.11,-17.63 83.42,6.95l43.43,50.11c2.56,2.95 4.77,6.08 6.65,9.33c27.24,-6.51 55.72,-9.96 85.05,-9.96c28.75,0 56.69,3.31 83.45,9.58c2.18,-4.33 4.93,-8.46 8.26,-12.3l43.43,-50.11c21.5,-24.81 58.97,-27.69 84.01,-6.46l153.68,130.29c25.43,21.56 28.36,59.73 6.53,84.93l-43.43,50.11c-2.08,2.4 -4.31,4.59 -6.66,6.58c20.14,45.07 31.32,95.13 31.32,147.96z" fill="#000000" filter="url(#filter-JOtOFbLi)"/>
		</g>
		<g color="#ffffff" class="teamapps-effect-color-1">
			<path d="M872.58,545.41c0,200.12 -160.45,360.58 -360.58,360.58c-200.12,0 -360.58,-160.45 -360.58,-360.58c0,-52.82 11.18,-102.88 31.32,-147.96c-2.35,-1.99 -4.58,-4.18 -6.66,-6.58l-43.43,-50.11c-22.03,-25.42 -18.82,-63.99 7.12,-85.42l153.68,-126.95c25.08,-20.72 62.11,-17.63 83.42,6.95l43.43,50.11c2.56,2.95 4.77,6.08 6.65,9.33c27.24,-6.51 55.72,-9.96 85.05,-9.96c28.75,0 56.69,3.31 83.45,9.58c2.18,-4.33 4.93,-8.46 8.26,-12.3l43.43,-50.11c21.5,-24.81 58.97,-27.69 84.01,-6.46l153.68,130.29c25.43,21.56 28.36,59.73 6.53,84.93l-43.43,50.11c-2.08,2.4 -4.31,4.59 -6.66,6.58c20.14,45.07 31.32,95.13 31.32,147.96z" fill="currentColor"/>
		</g>
		<g>
			<g color="#1565c0" class="teamapps-color-1">
				<path d="M812.67,545.41c0,167.04 -133.63,300.67 -300.67,300.67c-167.04,0 -300.67,-133.63 -300.67,-300.67c0,-167.04 133.63,-300.67 300.67,-300.67c167.04,0 300.67,133.63 300.67,300.67zM745.86,545.41c0,-130.29 -103.57,-233.86 -233.86,-233.86c-130.29,0 -233.86,103.57 -233.86,233.86c0,130.29 103.57,233.85 233.86,233.85c130.29,0 233.86,-103.56 233.86,-233.85zM528.7,555.43l133.63,80.18l-26.72,40.09l-157.02,-96.89v-200.45h50.11zM802.65,351.64l-153.68,-130.29l43.43,-50.11l153.68,130.29zM221.35,351.64l-43.43,-50.11l153.68,-126.95l43.43,50.11z" fill="currentColor"/>
			</g>
		</g>
	</g>
</svg>