<svg version="1.1" xmlns="http://www.w3.org/2000/svg" xmlns:xlink="http://www.w3.org/1999/xlink" viewBox="0,0,1024,1024">
	<!-- Color names: teamapps-color-1, teamapps-effect-color-1 -->
	<desc>airline_seat_legroom_normal icon - Licensed under Apache License v2.0 (http://www.apache.org/licenses/LICENSE-2.0) - Created with Iconfu.com - Derivative work of Material icons (Copyright Google Inc.)</desc>
	<defs>
		<clipPath id="clip-n0vtsJq6">
			<path d="M93.78,1000.93v-907.15h930.22v907.15z"/>
		</clipPath>
		<filter id="filter-ZyT97AX3" x="-8%" y="-8%" width="146%" height="147%" color-interpolation-filters="sRGB">
			<feColorMatrix values="1 0 0 0 0 0 1 0 0 0 0 0 1 0 0 0 0 0 0.17 0" in="SourceGraphic"/>
			<feOffset dx="14.14" dy="14.14"/>
			<feGaussianBlur stdDeviation="11" result="blur0"/>
			<feColorMatrix values="1 0 0 0 0 0 1 0 0 0 0 0 1 0 0 0 0 0 0.25 0" in="SourceGraphic"/>
			<feOffset dx="21.21" dy="21.21"/>
			<feGaussianBlur stdDeviation="20" result="blur1"/>
			<feMerge>
				<feMergeNode in="blur0"/>
				<feMergeNode in="blur1"/>
			</feMerge>
		</filter>
	</defs>
	<g fill="none" fill-rule="nonzero" style="mix-blend-mode: normal">
		<g clip-path="url(#clip-n0vtsJq6)">
			<path d="M905.99,762.56c0,60.81 -49.21,110.02 -110.02,110.02h-150.34c-33.08,0 -59.9,-26.82 -59.9,-59.9v-74.13c-2.27,0.26 -4.58,0.4 -6.92,0.4h-200.45c-125.29,0 -226.94,-101.65 -226.94,-226.94v-300.67c0,-33.08 26.82,-59.9 59.9,-59.9h66.81c5.8,0 11.4,0.82 16.71,2.36c5.3,-1.54 10.91,-2.36 16.71,-2.36h200.45c33.08,0 59.9,26.82 59.9,59.9v140.54h107.13c69.82,0 126.73,56.88 126.73,126.72v174.38c56.21,4.95 100.22,52.08 100.22,109.59z" fill="#000000" filter="url(#filter-ZyT97AX3)"/>
		</g>
		<g color="#ffffff" class="teamapps-effect-color-1">
			<path d="M905.99,762.56c0,60.81 -49.21,110.02 -110.02,110.02h-150.34c-33.08,0 -59.9,-26.82 -59.9,-59.9v-74.13c-2.27,0.26 -4.58,0.4 -6.92,0.4h-200.45c-125.29,0 -226.94,-101.65 -226.94,-226.94v-300.67c0,-33.08 26.82,-59.9 59.9,-59.9h66.81c5.8,0 11.4,0.82 16.71,2.36c5.3,-1.54 10.91,-2.36 16.71,-2.36h200.45c33.08,0 59.9,26.82 59.9,59.9v140.54h107.13c69.82,0 126.73,56.88 126.73,126.72v174.38c56.21,4.95 100.22,52.08 100.22,109.59z" fill="currentColor"/>
		</g>
		<g>
			<g color="#1565c0" class="teamapps-color-1">
				<path d="M846.08,762.56c0,27.73 -22.39,50.11 -50.11,50.11h-150.34v-233.86h-233.86c-55.12,0 -100.22,-45.1 -100.22,-100.22v-267.26h200.45v200.45h167.04c36.75,0 66.82,30.07 66.82,66.81v233.86h50.11c27.73,0 50.11,22.39 50.11,50.11zM378.37,612.22h200.45v66.81h-200.45c-92.21,0 -167.04,-74.83 -167.04,-167.04v-300.67h66.81v300.67c0,55.46 44.76,100.22 100.22,100.22z" fill="currentColor"/>
			</g>
		</g>
	</g>
</svg>