<svg version="1.1" xmlns="http://www.w3.org/2000/svg" xmlns:xlink="http://www.w3.org/1999/xlink" viewBox="0,0,1024,1024">
	<!-- Color names: teamapps-color-1, teamapps-effect-color-1 -->
	<desc>autorenew icon - Licensed under Apache License v2.0 (http://www.apache.org/licenses/LICENSE-2.0) - Created with Iconfu.com - Derivative work of Material icons (Copyright Google Inc.)</desc>
	<defs>
		<clipPath id="clip-cUlCkHYY">
			<path d="M127.19,26.96h840.33v997.04h-840.33z"/>
		</clipPath>
		<filter id="filter-AtJshHrv" x="-9%" y="-7%" width="157%" height="132%" color-interpolation-filters="sRGB">
			<feColorMatrix values="1 0 0 0 0 0 1 0 0 0 0 0 1 0 0 0 0 0 0.17 0" in="SourceGraphic"/>
			<feOffset dx="14.14" dy="14.14"/>
			<feGaussianBlur stdDeviation="11" result="blur0"/>
			<feColorMatrix values="1 0 0 0 0 0 1 0 0 0 0 0 1 0 0 0 0 0 0.25 0" in="SourceGraphic"/>
			<feOffset dx="21.21" dy="21.21"/>
			<feGaussianBlur stdDeviation="20" result="blur1"/>
			<feMerge>
				<feMergeNode in="blur0"/>
				<feMergeNode in="blur1"/>
			</feMerge>
		</filter>
	</defs>
	<g fill="none" fill-rule="nonzero" style="mix-blend-mode: normal">
		<g clip-path="url(#clip-cUlCkHYY)">
			<path d="M839.17,512c0,160.29 -115.13,293.56 -267.26,321.7v45.79c0,24.23 -14.59,46.07 -36.98,55.34c-22.38,9.27 -48.15,4.15 -65.28,-12.98l-133.63,-133.63c-23.4,-23.39 -23.4,-61.32 0,-84.72l133.63,-133.63c17.13,-17.13 42.9,-22.26 65.28,-12.99c22.38,9.27 36.98,31.12 36.98,55.34v26.91c47.62,-22.53 80.64,-71.06 80.64,-127.14c0,-23.3 -5.98,-45.57 -16.55,-65.75c-12.16,-23.21 -7.82,-51.63 10.71,-70.15l48.78,-48.77c12.86,-12.86 30.87,-19.18 48.94,-17.18c18.08,2 34.26,12.1 44,27.46c31.86,50.24 50.74,110.07 50.74,174.4zM371.46,512c0,23.84 5.9,46.1 16.15,64.99c12.64,23.31 8.45,52.16 -10.31,70.92l-48.78,48.77c-12.86,12.86 -30.87,19.18 -48.94,17.18c-18.08,-2 -34.26,-12.1 -44,-27.46c-31.86,-50.24 -50.74,-110.07 -50.74,-174.4c0,-160.29 115.13,-293.56 267.26,-321.7v-45.79c0,-24.23 14.59,-46.07 36.98,-55.34c22.38,-9.27 48.15,-4.15 65.28,12.98l133.63,133.63c23.4,23.39 23.4,61.32 0,84.72l-133.63,133.63c-17.13,17.13 -42.9,22.26 -65.28,12.99c-22.38,-9.27 -36.98,-31.12 -36.98,-55.34v-26.91c-47.62,22.53 -80.64,71.06 -80.64,127.14z" fill="#000000" filter="url(#filter-AtJshHrv)"/>
		</g>
		<g color="#ffffff" class="teamapps-effect-color-1">
			<path d="M839.17,512c0,160.29 -115.13,293.56 -267.26,321.7v45.79c0,24.23 -14.59,46.07 -36.98,55.34c-22.38,9.27 -48.15,4.15 -65.28,-12.98l-133.63,-133.63c-23.4,-23.39 -23.4,-61.32 0,-84.72l133.63,-133.63c17.13,-17.13 42.9,-22.26 65.28,-12.99c22.38,9.27 36.98,31.12 36.98,55.34v26.91c47.62,-22.53 80.64,-71.06 80.64,-127.14c0,-23.3 -5.98,-45.57 -16.55,-65.75c-12.16,-23.21 -7.82,-51.63 10.71,-70.15l48.78,-48.77c12.86,-12.86 30.87,-19.18 48.94,-17.18c18.08,2 34.26,12.1 44,27.46c31.86,50.24 50.74,110.07 50.74,174.4zM371.46,512c0,23.84 5.9,46.1 16.15,64.99c12.64,23.31 8.45,52.16 -10.31,70.92l-48.78,48.77c-12.86,12.86 -30.87,19.18 -48.94,17.18c-18.08,-2 -34.26,-12.1 -44,-27.46c-31.86,-50.24 -50.74,-110.07 -50.74,-174.4c0,-160.29 115.13,-293.56 267.26,-321.7v-45.79c0,-24.23 14.59,-46.07 36.98,-55.34c22.38,-9.27 48.15,-4.15 65.28,12.98l133.63,133.63c23.4,23.39 23.4,61.32 0,84.72l-133.63,133.63c-17.13,17.13 -42.9,22.26 -65.28,12.99c-22.38,-9.27 -36.98,-31.12 -36.98,-55.34v-26.91c-47.62,22.53 -80.64,71.06 -80.64,127.14z" fill="currentColor"/>
		</g>
		<g>
			<g color="#1565c0" class="teamapps-color-1">
				<path d="M311.55,512c0,33.74 8.35,65.82 23.39,93.55l-48.78,48.77c-26.06,-41.09 -41.42,-89.86 -41.42,-142.32c0,-147.67 119.6,-267.26 267.26,-267.26v-100.22l133.63,133.63l-133.63,133.63v-100.22c-110.58,0 -200.45,89.86 -200.45,200.45zM779.26,512c0,147.67 -119.6,267.26 -267.26,267.26v100.22l-133.63,-133.63l133.63,-133.63v100.22c110.58,0 200.45,-89.86 200.45,-200.45c0,-33.74 -8.69,-65.48 -23.39,-93.55l48.78,-48.77c26.06,41.09 41.42,89.86 41.42,142.32z" fill="currentColor"/>
			</g>
		</g>
	</g>
</svg>