<svg version="1.1" xmlns="http://www.w3.org/2000/svg" xmlns:xlink="http://www.w3.org/1999/xlink" viewBox="0,0,1024,1024">
	<!-- Color names: teamapps-color-1, teamapps-effect-color-1 -->
	<desc>blur_linear icon - Licensed under Apache License v2.0 (http://www.apache.org/licenses/LICENSE-2.0) - Created with Iconfu.com - Derivative work of Material icons (Copyright Google Inc.)</desc>
	<defs>
		<filter id="filter-Vu4LMltu" x="-8%" y="-8%" width="147%" height="147%" color-interpolation-filters="sRGB">
			<feColorMatrix values="1 0 0 0 0 0 1 0 0 0 0 0 1 0 0 0 0 0 0.17 0" in="SourceGraphic"/>
			<feOffset dx="14.14" dy="14.14"/>
			<feGaussianBlur stdDeviation="11" result="blur0"/>
			<feColorMatrix values="1 0 0 0 0 0 1 0 0 0 0 0 1 0 0 0 0 0 0.25 0" in="SourceGraphic"/>
			<feOffset dx="21.21" dy="21.21"/>
			<feGaussianBlur stdDeviation="20" result="blur1"/>
			<feMerge>
				<feMergeNode in="blur0"/>
				<feMergeNode in="blur1"/>
			</feMerge>
		</filter>
	</defs>
	<g fill="none" fill-rule="nonzero" style="mix-blend-mode: normal">
		<path d="M812.67,685.95c33.08,0 59.9,26.82 59.9,59.9v66.81c0,33.08 -26.82,59.9 -59.9,59.9h-601.34c-33.08,0 -59.9,-26.82 -59.9,-59.9v-66.81c0,-21.49 11.32,-40.34 28.32,-50.91c-7.44,-14.83 -11.62,-31.58 -11.62,-49.31c0,-25.14 8.41,-48.3 22.58,-66.82c-14.17,-18.52 -22.58,-41.68 -22.58,-66.82c0,-25.14 8.41,-48.3 22.58,-66.82c-14.17,-18.52 -22.58,-41.68 -22.58,-66.82c0,-17.73 4.19,-34.48 11.62,-49.31c-17,-10.57 -28.32,-29.42 -28.32,-50.91v-66.81c0,-33.08 26.82,-59.9 59.9,-59.9h601.34c33.08,0 59.9,26.82 59.9,59.9v66.81c0,33.08 -26.82,59.9 -59.9,59.9h-68.41c7.22,11.69 11.39,25.5 11.39,40.32c0,28.75 -15.69,53.71 -39,66.82c23.31,13.1 39,38.04 39,66.81c0,28.77 -15.7,53.72 -39,66.81c23.32,13.11 39,38.07 39,66.82c0,14.82 -4.17,28.63 -11.39,40.32z" fill="#000000" filter="url(#filter-Vu4LMltu)"/>
		<g color="#ffffff" class="teamapps-effect-color-1">
			<path d="M812.67,685.95c33.08,0 59.9,26.82 59.9,59.9v66.81c0,33.08 -26.82,59.9 -59.9,59.9h-601.34c-33.08,0 -59.9,-26.82 -59.9,-59.9v-66.81c0,-21.49 11.32,-40.34 28.32,-50.91c-7.44,-14.83 -11.62,-31.58 -11.62,-49.31c0,-25.14 8.41,-48.3 22.58,-66.82c-14.17,-18.52 -22.58,-41.68 -22.58,-66.82c0,-25.14 8.41,-48.3 22.58,-66.82c-14.17,-18.52 -22.58,-41.68 -22.58,-66.82c0,-17.73 4.19,-34.48 11.62,-49.31c-17,-10.57 -28.32,-29.42 -28.32,-50.91v-66.81c0,-33.08 26.82,-59.9 59.9,-59.9h601.34c33.08,0 59.9,26.82 59.9,59.9v66.81c0,33.08 -26.82,59.9 -59.9,59.9h-68.41c7.22,11.69 11.39,25.5 11.39,40.32c0,28.75 -15.69,53.71 -39,66.82c23.31,13.1 39,38.04 39,66.81c0,28.77 -15.7,53.72 -39,66.81c23.32,13.11 39,38.07 39,66.82c0,14.82 -4.17,28.63 -11.39,40.32z" fill="currentColor"/>
		</g>
		<g>
			<g color="#1565c0" class="teamapps-color-1">
				<path d="M211.33,745.86h601.34v66.81h-601.34zM812.67,211.33v66.81h-601.34v-66.81zM228.03,645.63c0,-27.73 22.39,-50.11 50.11,-50.11c27.73,0 50.11,22.39 50.11,50.11c0,27.73 -22.39,50.11 -50.11,50.11c-27.73,0 -50.11,-22.39 -50.11,-50.11zM228.03,378.37c0,-27.73 22.39,-50.11 50.11,-50.11c27.73,0 50.11,22.39 50.11,50.11c0,27.73 -22.39,50.11 -50.11,50.11c-27.73,0 -50.11,-22.39 -50.11,-50.11zM228.03,512c0,-27.73 22.39,-50.11 50.11,-50.11c27.73,0 50.11,22.39 50.11,50.11c0,27.73 -22.39,50.11 -50.11,50.11c-27.73,0 -50.11,-22.39 -50.11,-50.11zM378.37,378.37c0,-18.38 15.03,-33.4 33.41,-33.4c18.38,0 33.41,15.03 33.41,33.4c0,18.38 -15.03,33.41 -33.41,33.41c-18.38,0 -33.41,-15.03 -33.41,-33.41zM378.37,512c0,-18.38 15.03,-33.41 33.41,-33.41c18.38,0 33.41,15.03 33.41,33.41c0,18.38 -15.03,33.41 -33.41,33.41c-18.38,0 -33.41,-15.03 -33.41,-33.41zM512,378.37c0,-18.38 15.03,-33.4 33.41,-33.4c18.38,0 33.4,15.03 33.4,33.4c0,18.38 -15.03,33.41 -33.4,33.41c-18.38,0 -33.41,-15.03 -33.41,-33.41zM378.37,645.63c0,-18.38 15.03,-33.41 33.41,-33.41c18.38,0 33.41,15.03 33.41,33.41c0,18.38 -15.03,33.4 -33.41,33.4c-18.38,0 -33.41,-15.03 -33.41,-33.4zM512,512c0,-18.38 15.03,-33.41 33.41,-33.41c18.38,0 33.4,15.03 33.4,33.41c0,18.38 -15.03,33.41 -33.4,33.41c-18.38,0 -33.41,-15.03 -33.41,-33.41zM512,645.63c0,-18.38 15.03,-33.41 33.41,-33.41c18.38,0 33.4,15.03 33.4,33.41c0,18.38 -15.03,33.4 -33.4,33.4c-18.38,0 -33.41,-15.03 -33.41,-33.4zM662.34,645.63c0,-9.36 7.34,-16.71 16.7,-16.71c9.36,0 16.71,7.35 16.71,16.71c0,9.36 -7.35,16.7 -16.71,16.7c-9.36,0 -16.7,-7.34 -16.7,-16.7zM662.34,378.37c0,-9.36 7.34,-16.7 16.7,-16.7c9.36,0 16.71,7.34 16.71,16.7c0,9.36 -7.35,16.71 -16.71,16.71c-9.36,0 -16.7,-7.35 -16.7,-16.71zM662.34,512c0,-9.36 7.34,-16.7 16.7,-16.7c9.36,0 16.71,7.34 16.71,16.7c0,9.36 -7.35,16.7 -16.71,16.7c-9.36,0 -16.7,-7.34 -16.7,-16.7z" fill="currentColor"/>
			</g>
		</g>
	</g>
</svg>