<svg version="1.1" xmlns="http://www.w3.org/2000/svg" xmlns:xlink="http://www.w3.org/1999/xlink" viewBox="0,0,1024,1024">
	<!-- Color names: teamapps-color-1, teamapps-effect-color-1 -->
	<desc>call_end icon - Licensed under Apache License v2.0 (http://www.apache.org/licenses/LICENSE-2.0) - Created with Iconfu.com - Derivative work of Material icons (Copyright Google Inc.)</desc>
	<defs>
		<clipPath id="clip-wZE6aplb">
			<path d="M0,227.41h1024v601.8h-1024z"/>
		</clipPath>
		<filter id="filter-RHTJeUuq" x="-7%" y="-14%" width="127%" height="214%" color-interpolation-filters="sRGB">
			<feColorMatrix values="1 0 0 0 0 0 1 0 0 0 0 0 1 0 0 0 0 0 0.17 0" in="SourceGraphic"/>
			<feOffset dx="14.14" dy="14.14"/>
			<feGaussianBlur stdDeviation="11" result="blur0"/>
			<feColorMatrix values="1 0 0 0 0 0 1 0 0 0 0 0 1 0 0 0 0 0 0.25 0" in="SourceGraphic"/>
			<feOffset dx="21.21" dy="21.21"/>
			<feGaussianBlur stdDeviation="20" result="blur1"/>
			<feMerge>
				<feMergeNode in="blur0"/>
				<feMergeNode in="blur1"/>
			</feMerge>
		</filter>
	</defs>
	<g fill="none" fill-rule="nonzero" style="mix-blend-mode: normal">
		<g clip-path="url(#clip-wZE6aplb)">
			<path d="M512,471.68c-32.18,0 -63.59,3.43 -93.78,9.97v57.75c0,36.2 -20.95,68.48 -52.04,83.76c-27.01,13.54 -51.84,31.01 -74.17,51.55c-17.86,17.27 -41.3,25.83 -64.65,25.83c-25.46,0 -48.98,-10.14 -66.08,-27.24l-82.41,-82.4c-18.05,-17.46 -27.68,-41.49 -27.68,-66.19c0,-25.42 10.11,-48.95 27.23,-66.08c0.38,-0.38 0.76,-0.75 1.15,-1.12c112.54,-106.64 264.76,-172.43 432.41,-172.43c167.66,0 319.88,65.8 432.41,172.43c0.39,0.37 0.77,0.74 1.15,1.12c17.12,17.12 27.23,40.65 27.23,66.08c0,25.41 -10.1,48.95 -27.23,66.08l-82.86,82.85c-17.12,17.12 -40.65,27.23 -66.07,27.23c-25.19,0 -47.98,-10.14 -64.4,-25.59c-21.93,-20.53 -47.09,-37.92 -74.76,-51.78c-30.78,-15.12 -52.04,-46.88 -52.04,-83.76v-58.02c-29.92,-6.6 -61.25,-10.03 -93.44,-10.03z" fill="#000000" filter="url(#filter-RHTJeUuq)"/>
		</g>
		<g color="#ffffff" class="teamapps-effect-color-1">
			<path d="M512,471.68c-32.18,0 -63.59,3.43 -93.78,9.97v57.75c0,36.2 -20.95,68.48 -52.04,83.76c-27.01,13.54 -51.84,31.01 -74.17,51.55c-17.86,17.27 -41.3,25.83 -64.65,25.83c-25.46,0 -48.98,-10.14 -66.08,-27.24l-82.41,-82.4c-18.05,-17.46 -27.68,-41.49 -27.68,-66.19c0,-25.42 10.11,-48.95 27.23,-66.08c0.38,-0.38 0.76,-0.75 1.15,-1.12c112.54,-106.64 264.76,-172.43 432.41,-172.43c167.66,0 319.88,65.8 432.41,172.43c0.39,0.37 0.77,0.74 1.15,1.12c17.12,17.12 27.23,40.65 27.23,66.08c0,25.41 -10.1,48.95 -27.23,66.08l-82.86,82.85c-17.12,17.12 -40.65,27.23 -66.07,27.23c-25.19,0 -47.98,-10.14 -64.4,-25.59c-21.93,-20.53 -47.09,-37.92 -74.76,-51.78c-30.78,-15.12 -52.04,-46.88 -52.04,-83.76v-58.02c-29.92,-6.6 -61.25,-10.03 -93.44,-10.03z" fill="currentColor"/>
		</g>
		<g>
			<g color="#1565c0" class="teamapps-color-1">
				<path d="M512,411.78c-53.46,0 -105.24,8.35 -153.68,24.05v103.57c0,13.03 -7.68,24.72 -18.71,30.07c-32.74,16.37 -62.47,37.41 -88.86,61.8c-6.01,6.01 -14.37,9.36 -23.39,9.36c-9.36,0 -17.7,-3.68 -23.72,-9.69l-82.86,-82.85c-6.01,-5.68 -9.69,-14.03 -9.69,-23.39c0,-9.36 3.67,-17.7 9.69,-23.72c101.89,-96.55 239.54,-156.01 391.21,-156.01c151.67,0 289.32,59.46 391.21,156.01c6.01,6.01 9.69,14.36 9.69,23.72c0,9.36 -3.67,17.71 -9.69,23.72l-82.86,82.85c-6.01,6.01 -14.36,9.69 -23.72,9.69c-9.02,0 -17.37,-3.67 -23.39,-9.35c-26.39,-24.72 -56.46,-45.44 -89.2,-61.81c-11.02,-5.35 -18.71,-16.7 -18.71,-30.07v-103.56c-48.11,-16.04 -99.89,-24.39 -153.34,-24.39z" fill="currentColor"/>
			</g>
		</g>
	</g>
</svg>