<svg version="1.1" xmlns="http://www.w3.org/2000/svg" xmlns:xlink="http://www.w3.org/1999/xlink" viewBox="0,0,1024,1024">
	<!-- Color names: teamapps-color-1, teamapps-effect-color-1 -->
	<desc>check icon - Licensed under Apache License v2.0 (http://www.apache.org/licenses/LICENSE-2.0) - Created with Iconfu.com - Derivative work of Material icons (Copyright Google Inc.)</desc>
	<defs>
		<filter id="filter-Ccous2qC" x="-9%" y="-11%" width="151%" height="176%" color-interpolation-filters="sRGB">
			<feColorMatrix values="1 0 0 0 0 0 1 0 0 0 0 0 1 0 0 0 0 0 0.17 0" in="SourceGraphic"/>
			<feOffset dx="14.14" dy="14.14"/>
			<feGaussianBlur stdDeviation="11" result="blur0"/>
			<feColorMatrix values="1 0 0 0 0 0 1 0 0 0 0 0 1 0 0 0 0 0 0.25 0" in="SourceGraphic"/>
			<feOffset dx="21.21" dy="21.21"/>
			<feGaussianBlur stdDeviation="20" result="blur1"/>
			<feMerge>
				<feMergeNode in="blur0"/>
				<feMergeNode in="blur1"/>
			</feMerge>
		</filter>
	</defs>
	<g fill="none" fill-rule="nonzero" style="mix-blend-mode: normal">
		<path d="M807.93,255.5l47.11,47.11c23.39,23.39 23.39,61.32 0,84.72l-400.9,400.9c-23.39,23.39 -61.32,23.39 -84.72,0l-186.75,-186.75c-23.45,-23.45 -23.39,-61.5 0.15,-84.87l47.44,-47.11c23.42,-23.25 61.23,-23.18 84.57,0.15l96.97,96.97l311.43,-311.14c23.4,-23.37 61.31,-23.37 84.7,0.02z" fill="#000000" filter="url(#filter-Ccous2qC)"/>
		<g color="#ffffff" class="teamapps-effect-color-1">
			<path d="M807.93,255.5l47.11,47.11c23.39,23.39 23.39,61.32 0,84.72l-400.9,400.9c-23.39,23.39 -61.32,23.39 -84.72,0l-186.75,-186.75c-23.45,-23.45 -23.39,-61.5 0.15,-84.87l47.44,-47.11c23.42,-23.25 61.23,-23.18 84.57,0.15l96.97,96.97l311.43,-311.14c23.4,-23.37 61.31,-23.37 84.7,0.02z" fill="currentColor"/>
		</g>
		<g>
			<g color="#1565c0" class="teamapps-color-1">
				<path d="M765.57,297.86l47.11,47.11l-400.9,400.9l-186.75,-186.75l47.44,-47.11l139.31,139.31z" fill="currentColor"/>
			</g>
		</g>
	</g>
</svg>