<svg version="1.1" xmlns="http://www.w3.org/2000/svg" xmlns:xlink="http://www.w3.org/1999/xlink" viewBox="0,0,1024,1024">
	<!-- Color names: teamapps-color-1, teamapps-effect-color-1 -->
	<desc>child_care icon - Licensed under Apache License v2.0 (http://www.apache.org/licenses/LICENSE-2.0) - Created with Iconfu.com - Derivative work of Material icons (Copyright Google Inc.)</desc>
	<defs>
		<clipPath id="clip-okQvOxx2">
			<path d="M26.97,1000.93v-907.15h997.03v907.15z"/>
		</clipPath>
		<filter id="filter-KvkOuOxP" x="-7%" y="-8%" width="132%" height="147%" color-interpolation-filters="sRGB">
			<feColorMatrix values="1 0 0 0 0 0 1 0 0 0 0 0 1 0 0 0 0 0 0.17 0" in="SourceGraphic"/>
			<feOffset dx="14.14" dy="14.14"/>
			<feGaussianBlur stdDeviation="11" result="blur0"/>
			<feColorMatrix values="1 0 0 0 0 0 1 0 0 0 0 0 1 0 0 0 0 0 0.25 0" in="SourceGraphic"/>
			<feOffset dx="21.21" dy="21.21"/>
			<feGaussianBlur stdDeviation="20" result="blur1"/>
			<feMerge>
				<feMergeNode in="blur0"/>
				<feMergeNode in="blur1"/>
			</feMerge>
		</filter>
	</defs>
	<g fill="none" fill-rule="nonzero" style="mix-blend-mode: normal">
		<g clip-path="url(#clip-okQvOxx2)">
			<path d="M826.66,687.69c-19.82,35.28 -45.54,67.02 -75.37,93.54c-63.64,56.82 -147.5,91.35 -239.3,91.35c-91.73,0 -175.64,-34.49 -239.03,-91.41c-29.7,-26.42 -55.46,-57.92 -75.36,-93.47c-56.99,-26.21 -99.25,-79.26 -110.07,-143.15c-2,-10.77 -2.93,-21.65 -2.93,-32.55c0,-10.89 0.92,-21.76 2.92,-32.51c10.83,-64.29 53.17,-117.07 110.07,-143.19c19.88,-35.58 45.76,-67.45 76.21,-94.29c63.38,-56.5 146.89,-90.58 238.18,-90.58c91.36,0 174.93,34.14 238.33,90.71c30.05,26.75 55.88,58.35 75.98,94.13c57.03,26.2 99.32,79.27 110.15,143.19c2,10.77 2.93,21.65 2.93,32.55c0,10.89 -0.92,21.76 -2.92,32.51c-10.83,64.25 -53.13,117.04 -109.8,143.17z" fill="#000000" filter="url(#filter-KvkOuOxP)"/>
		</g>
		<g color="#ffffff" class="teamapps-effect-color-1">
			<path d="M826.66,687.69c-19.82,35.28 -45.54,67.02 -75.37,93.54c-63.64,56.82 -147.5,91.35 -239.3,91.35c-91.73,0 -175.64,-34.49 -239.03,-91.41c-29.7,-26.42 -55.46,-57.92 -75.36,-93.47c-56.99,-26.21 -99.25,-79.26 -110.07,-143.15c-2,-10.77 -2.93,-21.65 -2.93,-32.55c0,-10.89 0.92,-21.76 2.92,-32.51c10.83,-64.29 53.17,-117.07 110.07,-143.19c19.88,-35.58 45.76,-67.45 76.21,-94.29c63.38,-56.5 146.89,-90.58 238.18,-90.58c91.36,0 174.93,34.14 238.33,90.71c30.05,26.75 55.88,58.35 75.98,94.13c57.03,26.2 99.32,79.27 110.15,143.19c2,10.77 2.93,21.65 2.93,32.55c0,10.89 -0.92,21.76 -2.92,32.51c-10.83,64.25 -53.13,117.04 -109.8,143.17z" fill="currentColor"/>
		</g>
		<g>
			<g color="#1565c0" class="teamapps-color-1">
				<path d="M553.76,461.89c0,-23.07 18.7,-41.76 41.77,-41.76c23.07,0 41.76,18.69 41.76,41.76c0,23.07 -18.69,41.76 -41.76,41.76c-23.07,0 -41.77,-18.69 -41.77,-41.76z" fill="currentColor"/>
			</g>
			<g color="#1565c0" class="teamapps-color-1">
				<path d="M386.72,461.89c0,-23.07 18.69,-41.76 41.76,-41.76c23.07,0 41.77,18.69 41.77,41.76c0,23.07 -18.7,41.76 -41.77,41.76c-23.07,0 -41.76,-18.69 -41.76,-41.76z" fill="currentColor"/>
			</g>
			<g color="#1565c0" class="teamapps-color-1">
				<path d="M783.94,639.95c-17.37,36.75 -42.43,69.83 -72.5,96.55c-53.12,47.44 -122.94,76.17 -199.45,76.17c-76.51,0 -146.33,-28.73 -199.11,-76.17c-30.07,-26.72 -55.12,-59.47 -72.5,-96.55c-48.44,-14.37 -85.52,-55.45 -93.87,-105.9c-1.34,-7.02 -2,-14.37 -2,-22.05c0,-7.68 0.67,-15.03 2,-22.05c8.35,-50.78 45.43,-91.53 93.87,-105.9c17.37,-37.08 42.43,-70.16 73.16,-97.22c52.78,-47.11 122.27,-75.5 198.44,-75.5c76.17,0 145.66,28.4 198.44,75.5c30.4,27.06 55.46,59.8 73.16,97.22c48.44,14.37 85.52,55.45 93.87,105.9c1.34,7.02 2,14.37 2,22.05c0,7.68 -0.67,15.03 -2,22.05c-8.35,50.78 -45.43,91.53 -93.54,105.9zM812.67,512c0,-36.75 -30.07,-66.81 -66.81,-66.81c-3.34,0 -6.35,0.67 -9.69,1c-6.68,-22.39 -16.36,-43.1 -28.73,-62.14c-41.76,-63.81 -113.59,-105.91 -195.44,-105.91c-81.85,0 -153.68,42.1 -195.44,105.91c-12.36,19.04 -22.05,39.75 -28.73,62.14c-3.34,-0.34 -6.35,-1 -9.69,-1c-36.75,0 -66.81,30.07 -66.81,66.81c0,36.75 30.07,66.81 66.81,66.81c3.34,0 6.35,-0.67 9.69,-1c6.68,22.39 16.36,43.1 28.73,62.14c41.76,63.81 113.59,105.91 195.44,105.91c81.85,0 153.68,-42.1 195.44,-105.91c12.36,-19.04 22.05,-39.75 28.73,-62.14c3.34,0.34 6.35,1 9.69,1c36.75,0 66.81,-30.07 66.81,-66.81zM662.34,578.81c-25.39,59.13 -83.19,100.22 -150.34,100.22c-67.15,0 -124.94,-41.09 -150.34,-100.22z" fill="currentColor"/>
			</g>
		</g>
	</g>
</svg>