<svg version="1.1" xmlns="http://www.w3.org/2000/svg" xmlns:xlink="http://www.w3.org/1999/xlink" viewBox="0,0,1024,1024">
	<!-- Color names: teamapps-color-1, teamapps-effect-color-1 -->
	<desc>cloud_download icon - Licensed under Apache License v2.0 (http://www.apache.org/licenses/LICENSE-2.0) - Created with Iconfu.com - Derivative work of Material icons (Copyright Google Inc.)</desc>
	<defs>
		<clipPath id="clip-MGRxNKth">
			<path d="M0,127.19h1024v840.33h-1024z"/>
		</clipPath>
		<filter id="filter-qalaoddH" x="-7%" y="-9%" width="127%" height="157%" color-interpolation-filters="sRGB">
			<feColorMatrix values="1 0 0 0 0 0 1 0 0 0 0 0 1 0 0 0 0 0 0.17 0" in="SourceGraphic"/>
			<feOffset dx="14.14" dy="14.14"/>
			<feGaussianBlur stdDeviation="11" result="blur0"/>
			<feColorMatrix values="1 0 0 0 0 0 1 0 0 0 0 0 1 0 0 0 0 0 0.25 0" in="SourceGraphic"/>
			<feOffset dx="21.21" dy="21.21"/>
			<feGaussianBlur stdDeviation="20" result="blur1"/>
			<feMerge>
				<feMergeNode in="blur0"/>
				<feMergeNode in="blur1"/>
			</feMerge>
		</filter>
	</defs>
	<g fill="none" fill-rule="nonzero" style="mix-blend-mode: normal">
		<g clip-path="url(#clip-MGRxNKth)">
			<path d="M972.8,612.22c0,125.29 -101.65,226.94 -226.94,226.94h-434.31c-143.67,0 -260.35,-116.68 -260.35,-260.35c0,-123.26 85.75,-226.68 201.12,-253.43c55.34,-84.5 150.95,-140.55 259.68,-140.55c136.02,0 251.37,87.33 293.32,209.23c96.31,25.94 167.48,113.2 167.48,218.16z" fill="#000000" filter="url(#filter-qalaoddH)"/>
		</g>
		<g color="#ffffff" class="teamapps-effect-color-1">
			<path d="M972.8,612.22c0,125.29 -101.65,226.94 -226.94,226.94h-434.31c-143.67,0 -260.35,-116.68 -260.35,-260.35c0,-123.26 85.75,-226.68 201.12,-253.43c55.34,-84.5 150.95,-140.55 259.68,-140.55c136.02,0 251.37,87.33 293.32,209.23c96.31,25.94 167.48,113.2 167.48,218.16z" fill="currentColor"/>
		</g>
		<g>
			<g color="#1565c0" class="teamapps-color-1">
				<path d="M912.9,612.22c0,92.21 -74.83,167.04 -167.04,167.04h-434.31c-110.58,0 -200.45,-89.86 -200.45,-200.45c0,-103.23 78.17,-188.42 178.74,-199.11c41.76,-80.18 125.61,-134.97 222.16,-134.97c121.61,0 222.83,86.52 245.55,201.78c86.86,6.01 155.35,77.51 155.35,165.71zM578.81,545.41v-133.63h-133.63v133.63h-100.22l167.04,167.04l167.04,-167.04z" fill="currentColor"/>
			</g>
		</g>
	</g>
</svg>