<svg version="1.1" xmlns="http://www.w3.org/2000/svg" xmlns:xlink="http://www.w3.org/1999/xlink" viewBox="0,0,1024,1024">
	<!-- Color names: teamapps-color-1, teamapps-effect-color-1 -->
	<desc>crop_rotate icon - Licensed under Apache License v2.0 (http://www.apache.org/licenses/LICENSE-2.0) - Created with Iconfu.com - Derivative work of Material icons (Copyright Google Inc.)</desc>
	<defs>
		<clipPath id="clip-pIZEpXxv">
			<path d="M0,1024v-1024h1024v1024z"/>
		</clipPath>
		<filter id="filter-otkK9oR8" x="-7%" y="-7%" width="127%" height="127%" color-interpolation-filters="sRGB">
			<feColorMatrix values="1 0 0 0 0 0 1 0 0 0 0 0 1 0 0 0 0 0 0.17 0" in="SourceGraphic"/>
			<feOffset dx="14.14" dy="14.14"/>
			<feGaussianBlur stdDeviation="11" result="blur0"/>
			<feColorMatrix values="1 0 0 0 0 0 1 0 0 0 0 0 1 0 0 0 0 0 0.25 0" in="SourceGraphic"/>
			<feOffset dx="21.21" dy="21.21"/>
			<feGaussianBlur stdDeviation="20" result="blur1"/>
			<feMerge>
				<feMergeNode in="blur0"/>
				<feMergeNode in="blur1"/>
			</feMerge>
		</filter>
	</defs>
	<g fill="none" fill-rule="nonzero" style="mix-blend-mode: normal">
		<g clip-path="url(#clip-pIZEpXxv)">
			<path d="M839.17,645.63v66.81c0,33.08 -26.82,59.9 -59.9,59.9h-6.91v6.91c0,33.08 -26.82,59.9 -59.9,59.9h-66.81c-33.08,0 -59.9,-26.82 -59.9,-59.9v-6.91h-107.92l96.98,97.24c16.75,16.79 22.01,41.88 13.43,63.99c-8.59,22.11 -29.41,37.07 -53.1,38.15c-3.56,0.16 -15.49,1.06 -24.79,1.06c-241.63,0 -439.35,-185.92 -458.93,-422.45c-2.89,-34.91 24.67,-64.85 59.7,-64.85h50.11c30.87,0 56.69,23.46 59.63,54.19c3.59,37.48 14.3,72.89 30.8,104.88v-206.31h-6.91c-33.08,0 -59.9,-26.82 -59.9,-59.9v-66.81c0,-33.08 26.82,-59.9 59.9,-59.9h6.91v-6.91c0,-33.08 26.82,-59.9 59.9,-59.9h66.81c33.08,0 59.9,26.82 59.9,59.9v7.3c2.27,-0.26 4.58,-0.4 6.92,-0.4h100.92l-96.85,-96.85c-16.44,-16.44 -21.88,-40.9 -13.96,-62.76c7.92,-21.86 27.77,-37.16 50.92,-39.26c6.74,-0.61 16.56,-1.58 27.45,-1.58c241.63,0 439.35,185.92 458.93,422.45c2.89,34.91 -24.67,64.85 -59.7,64.85h-50.11c-30.87,0 -56.69,-23.46 -59.63,-54.19c-3.59,-37.49 -14.3,-72.9 -30.8,-104.87v199.38c0,2.34 -0.13,4.65 -0.4,6.92h7.3c33.08,0 59.9,26.82 59.9,59.9z" fill="#000000" filter="url(#filter-otkK9oR8)"/>
		</g>
		<g color="#ffffff" class="teamapps-effect-color-1">
			<path d="M839.17,645.63v66.81c0,33.08 -26.82,59.9 -59.9,59.9h-6.91v6.91c0,33.08 -26.82,59.9 -59.9,59.9h-66.81c-33.08,0 -59.9,-26.82 -59.9,-59.9v-6.91h-107.92l96.98,97.24c16.75,16.79 22.01,41.88 13.43,63.99c-8.59,22.11 -29.41,37.07 -53.1,38.15c-3.56,0.16 -15.49,1.06 -24.79,1.06c-241.63,0 -439.35,-185.92 -458.93,-422.45c-2.89,-34.91 24.67,-64.85 59.7,-64.85h50.11c30.87,0 56.69,23.46 59.63,54.19c3.59,37.48 14.3,72.89 30.8,104.88v-206.31h-6.91c-33.08,0 -59.9,-26.82 -59.9,-59.9v-66.81c0,-33.08 26.82,-59.9 59.9,-59.9h6.91v-6.91c0,-33.08 26.82,-59.9 59.9,-59.9h66.81c33.08,0 59.9,26.82 59.9,59.9v7.3c2.27,-0.26 4.58,-0.4 6.92,-0.4h100.92l-96.85,-96.85c-16.44,-16.44 -21.88,-40.9 -13.96,-62.76c7.92,-21.86 27.77,-37.16 50.92,-39.26c6.74,-0.61 16.56,-1.58 27.45,-1.58c241.63,0 439.35,185.92 458.93,422.45c2.89,34.91 -24.67,64.85 -59.7,64.85h-50.11c-30.87,0 -56.69,-23.46 -59.63,-54.19c-3.59,-37.49 -14.3,-72.9 -30.8,-104.87v199.38c0,2.34 -0.13,4.65 -0.4,6.92h7.3c33.08,0 59.9,26.82 59.9,59.9z" fill="currentColor"/>
		</g>
		<g>
			<g color="#1565c0" class="teamapps-color-1">
				<path d="M779.26,645.63v66.81h-66.81v66.81h-66.81v-66.81h-267.27c-37.08,0 -66.81,-30.07 -66.81,-66.81v-267.27h-66.81v-66.81h66.81v-66.81h66.81v400.9zM405.1,784.27l127.28,127.62c-7.35,0.34 -14.37,1 -22.05,1c-210.13,0 -382.19,-161.69 -399.23,-367.49h50.11c12.03,125.62 90.2,231.52 199.45,283.63zM912.9,478.59h-50.11c-12.03,-125.62 -90.2,-231.52 -199.45,-283.3l-44.44,44.44l-127.28,-127.28c7.35,-0.67 14.37,-1.34 22.05,-1.34c210.13,0 382.19,161.69 399.23,367.49zM645.63,378.37h-200.45v-66.81h200.45c36.75,0 66.81,29.73 66.81,66.81v200.45h-66.81z" fill="currentColor"/>
			</g>
		</g>
	</g>
</svg>