<svg version="1.1" xmlns="http://www.w3.org/2000/svg" xmlns:xlink="http://www.w3.org/1999/xlink" viewBox="0,0,1024,1024">
	<!-- Color names: teamapps-color-1, teamapps-effect-color-1 -->
	<desc>disc_full icon - Licensed under Apache License v2.0 (http://www.apache.org/licenses/LICENSE-2.0) - Created with Iconfu.com - Derivative work of Material icons (Copyright Google Inc.)</desc>
	<defs>
		<clipPath id="clip-SqZ3hj98">
			<path d="M60.37,967.52v-840.33h963.63v840.33z"/>
		</clipPath>
		<filter id="filter-05EXiOuQ" x="-8%" y="-9%" width="140%" height="157%" color-interpolation-filters="sRGB">
			<feColorMatrix values="1 0 0 0 0 0 1 0 0 0 0 0 1 0 0 0 0 0 0.17 0" in="SourceGraphic"/>
			<feOffset dx="14.14" dy="14.14"/>
			<feGaussianBlur stdDeviation="11" result="blur0"/>
			<feColorMatrix values="1 0 0 0 0 0 1 0 0 0 0 0 1 0 0 0 0 0 0.25 0" in="SourceGraphic"/>
			<feOffset dx="21.21" dy="21.21"/>
			<feGaussianBlur stdDeviation="20" result="blur1"/>
			<feMerge>
				<feMergeNode in="blur0"/>
				<feMergeNode in="blur1"/>
			</feMerge>
		</filter>
	</defs>
	<g fill="none" fill-rule="nonzero" style="mix-blend-mode: normal">
		<g clip-path="url(#clip-SqZ3hj98)">
			<path d="M445.19,839.17c-180.75,0 -327.17,-146.41 -327.17,-327.17c0,-180.75 146.43,-327.17 327.17,-327.17c115.4,0 216.8,59.68 275.04,149.88c4.86,-28.2 29.44,-49.65 59.03,-49.65h66.82c33.08,0 59.9,26.82 59.9,59.9v167.04c0,12.37 -3.75,23.86 -10.17,33.41c6.42,9.54 10.17,21.04 10.17,33.41v66.82c0,33.08 -26.82,59.9 -59.9,59.9h-66.82c-21.73,0 -40.76,-11.57 -51.26,-28.9c-56.7,97.22 -162.1,162.52 -282.81,162.52z" fill="#000000" filter="url(#filter-05EXiOuQ)"/>
		</g>
		<g color="#ffffff" class="teamapps-effect-color-1">
			<path d="M445.19,839.17c-180.75,0 -327.17,-146.41 -327.17,-327.17c0,-180.75 146.43,-327.17 327.17,-327.17c115.4,0 216.8,59.68 275.04,149.88c4.86,-28.2 29.44,-49.65 59.03,-49.65h66.82c33.08,0 59.9,26.82 59.9,59.9v167.04c0,12.37 -3.75,23.86 -10.17,33.41c6.42,9.54 10.17,21.04 10.17,33.41v66.82c0,33.08 -26.82,59.9 -59.9,59.9h-66.82c-21.73,0 -40.76,-11.57 -51.26,-28.9c-56.7,97.22 -162.1,162.52 -282.81,162.52z" fill="currentColor"/>
		</g>
		<g>
			<g color="#1565c0" class="teamapps-color-1">
				<path d="M712.45,512c0,147.67 -119.6,267.26 -267.26,267.26c-147.67,0 -267.27,-119.6 -267.27,-267.26c0,-147.67 119.6,-267.26 267.27,-267.26c147.67,0 267.26,119.6 267.26,267.26zM512,512c0,-36.75 -30.07,-66.81 -66.81,-66.81c-36.75,0 -66.82,30.07 -66.82,66.81c0,36.75 30.08,66.81 66.82,66.81c36.75,0 66.81,-30.07 66.81,-66.81zM846.08,344.96v167.04h-66.82v-167.04zM779.26,578.81h66.82v66.82h-66.82z" fill="currentColor"/>
			</g>
		</g>
	</g>
</svg>