<svg version="1.1" xmlns="http://www.w3.org/2000/svg" xmlns:xlink="http://www.w3.org/1999/xlink" viewBox="0,0,1024,1024">
	<!-- Color names: teamapps-color-1, teamapps-effect-color-1 -->
	<desc>fiber_new icon - Licensed under Apache License v2.0 (http://www.apache.org/licenses/LICENSE-2.0) - Created with Iconfu.com - Derivative work of Material icons (Copyright Google Inc.)</desc>
	<defs>
		<clipPath id="clip-UW4RTtWd">
			<path d="M60.37,967.52v-840.33h963.63v840.33z"/>
		</clipPath>
		<filter id="filter-DLZjHPW2" x="-8%" y="-9%" width="140%" height="157%" color-interpolation-filters="sRGB">
			<feColorMatrix values="1 0 0 0 0 0 1 0 0 0 0 0 1 0 0 0 0 0 0.17 0" in="SourceGraphic"/>
			<feOffset dx="14.14" dy="14.14"/>
			<feGaussianBlur stdDeviation="11" result="blur0"/>
			<feColorMatrix values="1 0 0 0 0 0 1 0 0 0 0 0 1 0 0 0 0 0 0.25 0" in="SourceGraphic"/>
			<feOffset dx="21.21" dy="21.21"/>
			<feGaussianBlur stdDeviation="20" result="blur1"/>
			<feMerge>
				<feMergeNode in="blur0"/>
				<feMergeNode in="blur1"/>
			</feMerge>
		</filter>
	</defs>
	<g fill="none" fill-rule="nonzero" style="mix-blend-mode: normal">
		<g clip-path="url(#clip-UW4RTtWd)">
			<path d="M905.99,311.55v400.9c0,70.18 -56.57,126.72 -126.73,126.72h-534.52c-70.16,0 -126.73,-56.54 -126.73,-126.72l0.34,-400.93c0.01,-69.76 55.84,-126.69 126.39,-126.69h534.52c70.16,0 126.73,56.54 126.73,126.72z" fill="#000000" filter="url(#filter-DLZjHPW2)"/>
		</g>
		<g color="#ffffff" class="teamapps-effect-color-1">
			<path d="M905.99,311.55v400.9c0,70.18 -56.57,126.72 -126.73,126.72h-534.52c-70.16,0 -126.73,-56.54 -126.73,-126.72l0.34,-400.93c0.01,-69.76 55.84,-126.69 126.39,-126.69h534.52c70.16,0 126.73,56.54 126.73,126.72z" fill="currentColor"/>
		</g>
		<g>
			<g color="#1565c0" class="teamapps-color-1">
				<path d="M846.08,311.55v400.9c0,37.08 -29.74,66.81 -66.82,66.81h-534.52c-37.08,0 -66.82,-29.73 -66.82,-66.81l0.34,-400.9c0,-37.08 29.4,-66.81 66.48,-66.81h534.52c37.08,0 66.82,29.73 66.82,66.81zM795.97,411.78h-41.77v150.34h-37.41v-117.26h-41.77v117.6h-37.75v-150.67h-41.76v167.04c0,18.38 15.03,33.41 33.4,33.41h133.63c18.38,0 33.41,-15.03 33.41,-33.41zM395.07,411.78h-41.77v116.93l-83.51,-116.93h-41.77v200.45h41.77v-116.93l85.19,116.93h40.09zM562.11,411.78h-133.63v200.45h133.63v-41.76h-83.52v-37.08h83.52v-42.09h-83.52v-37.42h83.52z" fill="currentColor"/>
			</g>
		</g>
	</g>
</svg>