<svg version="1.1" xmlns="http://www.w3.org/2000/svg" xmlns:xlink="http://www.w3.org/1999/xlink" viewBox="0,0,1024,1024">
	<!-- Color names: teamapps-color-1, teamapps-effect-color-1 -->
	<desc>fingerprint icon - Licensed under Apache License v2.0 (http://www.apache.org/licenses/LICENSE-2.0) - Created with Iconfu.com - Derivative work of Material icons (Copyright Google Inc.)</desc>
	<defs>
		<clipPath id="clip-81esEdfc">
			<path d="M93.73,60.37h906.97v963.63h-906.97z"/>
		</clipPath>
		<filter id="filter-WcjFxiMn" x="-8%" y="-8%" width="147%" height="140%" color-interpolation-filters="sRGB">
			<feColorMatrix values="1 0 0 0 0 0 1 0 0 0 0 0 1 0 0 0 0 0 0.17 0" in="SourceGraphic"/>
			<feOffset dx="14.14" dy="14.14"/>
			<feGaussianBlur stdDeviation="11" result="blur0"/>
			<feColorMatrix values="1 0 0 0 0 0 1 0 0 0 0 0 1 0 0 0 0 0 0.25 0" in="SourceGraphic"/>
			<feOffset dx="21.21" dy="21.21"/>
			<feGaussianBlur stdDeviation="20" result="blur1"/>
			<feMerge>
				<feMergeNode in="blur0"/>
				<feMergeNode in="blur1"/>
			</feMerge>
		</filter>
	</defs>
	<g fill="none" fill-rule="nonzero" style="mix-blend-mode: normal">
		<g clip-path="url(#clip-81esEdfc)">
			<path d="M609.22,905.99c-9.1,0 -16.74,-1.92 -18.95,-2.48c-0.4,-0.1 -0.79,-0.2 -1.18,-0.31c-34.14,-9.45 -62.83,-21.13 -89.07,-36.92c-2.2,3.15 -4.67,6.18 -7.4,9.06c-0.99,1.04 -2.02,2.05 -3.09,3.02c-13.99,12.73 -32.49,20.62 -52.69,20.62c-18.51,0 -39.13,-6.86 -54.76,-23.26c-27.26,-27.31 -45.33,-48.18 -65.96,-82.53c-3.96,2.31 -8.21,4.31 -12.73,5.94c-40.13,14.84 -83.87,-6.35 -98.14,-45.2c-18.73,-50.14 -28.1,-100.6 -28.1,-153.05c0,-39.37 6.24,-77.09 19.23,-111.96c-3.92,-1.77 -7.69,-3.86 -11.26,-6.24c-0.29,-0.19 -0.58,-0.39 -0.87,-0.59c-35.5,-24.72 -42.86,-72.71 -19.08,-106.87c0.07,-0.1 0.15,-0.21 0.22,-0.31c24.82,-35.09 54.17,-65.55 87.67,-90.86l-2.19,-3.74c-19.88,-36.68 -6.73,-83.58 30.78,-103.92c70.95,-38.52 148.93,-58.36 230.69,-58.36c81.46,0 152.94,18.35 228.86,57.43c0.07,0.03 0.13,0.07 0.2,0.1c37.37,19.44 52.35,65.5 32.54,103.2c-0.91,1.77 -1.88,3.49 -2.91,5.16c33.15,24.99 62.28,54.97 86.98,89.62c24.69,34.32 16.82,82.9 -18.46,107.46c-4.49,3.13 -9.23,5.72 -14.13,7.78c13.41,34.66 20.76,72.28 20.76,111.77c0,51.47 -24.83,95.88 -62.44,124.42c2.6,5.71 4.53,11.81 5.69,18.23c7.7,42.22 -20.64,81.36 -61.59,88.95c-17.36,3.33 -32.99,4.48 -42.87,4.86c-0.36,3.53 -0.97,7.05 -1.84,10.54c-8.55,36.08 -40.9,58.46 -73.91,58.46z" fill="#000000" filter="url(#filter-WcjFxiMn)"/>
		</g>
		<g color="#ffffff" class="teamapps-effect-color-1">
			<path d="M609.22,905.99c-9.1,0 -16.74,-1.92 -18.95,-2.48c-0.4,-0.1 -0.79,-0.2 -1.18,-0.31c-34.14,-9.45 -62.83,-21.13 -89.07,-36.92c-2.2,3.15 -4.67,6.18 -7.4,9.06c-0.99,1.04 -2.02,2.05 -3.09,3.02c-13.99,12.73 -32.49,20.62 -52.69,20.62c-18.51,0 -39.13,-6.86 -54.76,-23.26c-27.26,-27.31 -45.33,-48.18 -65.96,-82.53c-3.96,2.31 -8.21,4.31 -12.73,5.94c-40.13,14.84 -83.87,-6.35 -98.14,-45.2c-18.73,-50.14 -28.1,-100.6 -28.1,-153.05c0,-39.37 6.24,-77.09 19.23,-111.96c-3.92,-1.77 -7.69,-3.86 -11.26,-6.24c-0.29,-0.19 -0.58,-0.39 -0.87,-0.59c-35.5,-24.72 -42.86,-72.71 -19.08,-106.87c0.07,-0.1 0.15,-0.21 0.22,-0.31c24.82,-35.09 54.17,-65.55 87.67,-90.86l-2.19,-3.74c-19.88,-36.68 -6.73,-83.58 30.78,-103.92c70.95,-38.52 148.93,-58.36 230.69,-58.36c81.46,0 152.94,18.35 228.86,57.43c0.07,0.03 0.13,0.07 0.2,0.1c37.37,19.44 52.35,65.5 32.54,103.2c-0.91,1.77 -1.88,3.49 -2.91,5.16c33.15,24.99 62.28,54.97 86.98,89.62c24.69,34.32 16.82,82.9 -18.46,107.46c-4.49,3.13 -9.23,5.72 -14.13,7.78c13.41,34.66 20.76,72.28 20.76,111.77c0,51.47 -24.83,95.88 -62.44,124.42c2.6,5.71 4.53,11.81 5.69,18.23c7.7,42.22 -20.64,81.36 -61.59,88.95c-17.36,3.33 -32.99,4.48 -42.87,4.86c-0.36,3.53 -0.97,7.05 -1.84,10.54c-8.55,36.08 -40.9,58.46 -73.91,58.46z" fill="currentColor"/>
		</g>
		<g>
			<g color="#1565c0" class="teamapps-color-1">
				<path d="M609.22,846.08c-1.34,0 -3.01,-0.34 -4.35,-0.67c-53.12,-14.7 -87.86,-34.41 -124.28,-70.16c-46.77,-46.44 -72.49,-108.24 -72.49,-174.39c0,-54.12 46.1,-98.22 102.89,-98.22c56.79,0 102.89,44.1 102.89,98.22c0,35.74 31.07,64.82 69.49,64.82c38.42,0 69.49,-29.07 69.49,-64.82c0,-125.95 -108.58,-228.17 -242.21,-228.17c-94.88,0 -181.73,52.79 -220.82,134.64c-13.03,27.06 -19.72,58.8 -19.72,93.54c0,26.06 2.34,67.15 22.39,120.61c3.34,8.68 -1,18.38 -9.69,21.38c-8.68,3.34 -18.38,-1.34 -21.38,-9.69c-16.37,-43.76 -24.39,-87.19 -24.39,-132.3c0,-40.09 7.69,-76.51 22.72,-108.24c44.44,-93.21 142.98,-153.67 250.89,-153.67c152,0 275.62,117.26 275.62,261.58c0,54.12 -46.1,98.22 -102.89,98.22c-56.79,0 -102.89,-44.1 -102.89,-98.22c0,-35.74 -31.07,-64.82 -69.49,-64.82c-38.42,0 -69.49,29.07 -69.49,64.82c0,57.13 22.05,110.58 62.48,150.66c31.73,31.41 62.14,48.78 109.24,61.81c9.02,2.34 14.03,11.69 11.69,20.37c-1.67,7.68 -8.68,12.7 -15.7,12.7zM436.83,839.07c-4.35,0 -8.68,-1.67 -11.69,-5.01c-29.06,-29.06 -44.76,-47.77 -67.15,-88.2c-23.05,-41.09 -35.08,-91.21 -35.08,-145c0,-99.22 84.85,-180.07 189.09,-180.07c104.23,0 189.09,80.84 189.09,180.07c0,9.36 -7.34,16.71 -16.7,16.71c-9.36,0 -16.7,-7.35 -16.7,-16.71c0,-80.84 -69.83,-146.66 -155.68,-146.66c-85.86,0 -155.68,65.81 -155.68,146.66c0,48.11 10.69,92.54 31.07,128.62c21.38,38.42 36.09,54.79 61.81,80.84c6.35,6.68 6.35,17.05 0,23.72c-3.67,3.34 -8.02,5.01 -12.36,5.01zM228.03,435.83c-3.34,0 -6.68,-1 -9.69,-3.01c-7.68,-5.35 -9.36,-15.71 -4.01,-23.39c33.07,-46.77 75.17,-83.52 125.28,-109.24c104.9,-54.12 239.2,-54.45 344.43,-0.33c50.11,25.72 92.21,62.13 125.28,108.57c5.35,7.35 3.67,18.04 -4.01,23.39c-7.68,5.35 -18.03,3.67 -23.38,-4.01c-30.07,-42.09 -68.15,-75.17 -113.25,-98.22c-95.88,-49.11 -218.49,-49.11 -314.04,0.34c-45.44,23.39 -83.52,56.79 -113.59,98.89c-2.67,4.67 -7.68,7.02 -13.03,7.02zM676.37,777.26c-39.75,0 -74.84,-10.02 -103.57,-29.73c-49.78,-33.74 -79.51,-88.53 -79.51,-146.66c0,-9.36 7.34,-16.7 16.7,-16.7c9.36,0 16.7,7.34 16.7,16.7c0,47.11 24.06,91.54 64.82,118.94c23.72,16.04 51.44,23.72 84.85,23.72c8.02,0 21.38,-1 34.74,-3.34c9.02,-1.67 17.71,4.35 19.38,13.7c1.67,9.02 -4.34,17.7 -13.69,19.37c-19.04,3.67 -35.75,4.01 -40.43,4.01zM706.1,260.44c-2.67,0 -5.34,-0.67 -7.68,-2c-64.14,-33.07 -119.6,-47.11 -186.08,-47.11c-66.15,0 -128.96,15.7 -186.09,47.11c-8.02,4.35 -18.04,1.34 -22.71,-6.68c-4.35,-8.02 -1.34,-18.38 6.68,-22.72c62.14,-33.74 130.3,-51.11 202.12,-51.11c71.16,0 133.3,15.71 201.45,50.79c8.35,4.35 11.36,14.36 7.02,22.38c-3.01,6.01 -8.69,9.36 -14.7,9.36z" fill="currentColor"/>
			</g>
		</g>
	</g>
</svg>