<svg version="1.1" xmlns="http://www.w3.org/2000/svg" xmlns:xlink="http://www.w3.org/1999/xlink" viewBox="0,0,1024,1024">
	<!-- Color names: teamapps-color-1, teamapps-effect-color-1 -->
	<desc>format_italic icon - Licensed under Apache License v2.0 (http://www.apache.org/licenses/LICENSE-2.0) - Created with Iconfu.com - Derivative work of Material icons (Copyright Google Inc.)</desc>
	<defs>
		<filter id="filter-oNT4cWg7" x="-12%" y="-10%" width="185%" height="164%" color-interpolation-filters="sRGB">
			<feColorMatrix values="1 0 0 0 0 0 1 0 0 0 0 0 1 0 0 0 0 0 0.17 0" in="SourceGraphic"/>
			<feOffset dx="14.14" dy="14.14"/>
			<feGaussianBlur stdDeviation="11" result="blur0"/>
			<feColorMatrix values="1 0 0 0 0 0 1 0 0 0 0 0 1 0 0 0 0 0 0.25 0" in="SourceGraphic"/>
			<feOffset dx="21.21" dy="21.21"/>
			<feGaussianBlur stdDeviation="20" result="blur1"/>
			<feMerge>
				<feMergeNode in="blur0"/>
				<feMergeNode in="blur1"/>
			</feMerge>
		</filter>
	</defs>
	<g fill="none" fill-rule="nonzero" style="mix-blend-mode: normal">
		<path d="M772.35,244.74v100.22c0,33.08 -26.82,59.9 -59.9,59.9h-53.67l-63.96,149.62c25.31,7 43.9,30.2 43.9,57.74v100.22c0,33.08 -26.82,59.9 -59.9,59.9h-267.26c-33.08,0 -59.9,-26.82 -59.9,-59.9v-100.22c0,-33.08 26.82,-59.9 59.9,-59.9h53.67l63.96,-149.62c-25.31,-7 -43.9,-30.2 -43.9,-57.74v-100.22c0,-33.08 26.82,-59.9 59.9,-59.9h267.26c33.08,0 59.9,26.82 59.9,59.9z" fill="#000000" filter="url(#filter-oNT4cWg7)"/>
		<g color="#ffffff" class="teamapps-effect-color-1">
			<path d="M772.35,244.74v100.22c0,33.08 -26.82,59.9 -59.9,59.9h-53.67l-63.96,149.62c25.31,7 43.9,30.2 43.9,57.74v100.22c0,33.08 -26.82,59.9 -59.9,59.9h-267.26c-33.08,0 -59.9,-26.82 -59.9,-59.9v-100.22c0,-33.08 26.82,-59.9 59.9,-59.9h53.67l63.96,-149.62c-25.31,-7 -43.9,-30.2 -43.9,-57.74v-100.22c0,-33.08 26.82,-59.9 59.9,-59.9h267.26c33.08,0 59.9,26.82 59.9,59.9z" fill="currentColor"/>
		</g>
		<g>
			<g color="#1565c0" class="teamapps-color-1">
				<path d="M712.45,244.74v100.22h-93.21l-114.26,267.26h73.83v100.22h-267.26v-100.22h93.21l114.26,-267.26h-73.83v-100.22z" fill="currentColor"/>
			</g>
		</g>
	</g>
</svg>