<svg version="1.1" xmlns="http://www.w3.org/2000/svg" xmlns:xlink="http://www.w3.org/1999/xlink" viewBox="0,0,1024,1024">
	<!-- Color names: teamapps-color-1, teamapps-effect-color-1 -->
	<desc>get_app icon - Licensed under Apache License v2.0 (http://www.apache.org/licenses/LICENSE-2.0) - Created with Iconfu.com - Derivative work of Material icons (Copyright Google Inc.)</desc>
	<defs>
		<filter id="filter-7wgPvKFM" x="-10%" y="-9%" width="169%" height="150%" color-interpolation-filters="sRGB">
			<feColorMatrix values="1 0 0 0 0 0 1 0 0 0 0 0 1 0 0 0 0 0 0.17 0" in="SourceGraphic"/>
			<feOffset dx="14.14" dy="14.14"/>
			<feGaussianBlur stdDeviation="11" result="blur0"/>
			<feColorMatrix values="1 0 0 0 0 0 1 0 0 0 0 0 1 0 0 0 0 0 0.25 0" in="SourceGraphic"/>
			<feOffset dx="21.21" dy="21.21"/>
			<feGaussianBlur stdDeviation="20" result="blur1"/>
			<feMerge>
				<feMergeNode in="blur0"/>
				<feMergeNode in="blur1"/>
			</feMerge>
		</filter>
	</defs>
	<g fill="none" fill-rule="nonzero" style="mix-blend-mode: normal">
		<path d="M235.78,454.13c-17.13,-17.13 -22.26,-42.9 -12.99,-65.28c9.27,-22.38 31.12,-36.98 55.34,-36.98h73.73v-140.54c0,-33.08 26.82,-59.9 59.9,-59.9h200.45c33.08,0 59.9,26.82 59.9,59.9v140.54h73.73c24.23,0 46.07,14.6 55.34,36.98c9.27,22.38 4.15,48.15 -12.99,65.28l-198.41,198.41h156.05c33.08,0 59.9,26.82 59.9,59.9v66.81c0,33.08 -26.82,59.9 -59.9,59.9h-467.72c-33.08,0 -59.9,-26.82 -59.9,-59.9v-66.81c0,-33.08 26.82,-59.9 59.9,-59.9h156.05z" fill="#000000" filter="url(#filter-7wgPvKFM)"/>
		<g color="#ffffff" class="teamapps-effect-color-1">
			<path d="M235.78,454.13c-17.13,-17.13 -22.26,-42.9 -12.99,-65.28c9.27,-22.38 31.12,-36.98 55.34,-36.98h73.73v-140.54c0,-33.08 26.82,-59.9 59.9,-59.9h200.45c33.08,0 59.9,26.82 59.9,59.9v140.54h73.73c24.23,0 46.07,14.6 55.34,36.98c9.27,22.38 4.15,48.15 -12.99,65.28l-198.41,198.41h156.05c33.08,0 59.9,26.82 59.9,59.9v66.81c0,33.08 -26.82,59.9 -59.9,59.9h-467.72c-33.08,0 -59.9,-26.82 -59.9,-59.9v-66.81c0,-33.08 26.82,-59.9 59.9,-59.9h156.05z" fill="currentColor"/>
		</g>
		<g>
			<g color="#1565c0" class="teamapps-color-1">
				<path d="M512,645.63l-233.86,-233.86h133.63v-200.45h200.45v200.45h133.63zM745.86,712.45v66.81h-467.72v-66.81z" fill="currentColor"/>
			</g>
		</g>
	</g>
</svg>