<svg version="1.1" xmlns="http://www.w3.org/2000/svg" xmlns:xlink="http://www.w3.org/1999/xlink" viewBox="0,0,1024,1024">
	<!-- Color names: teamapps-color-1, teamapps-effect-color-1 -->
	<desc>gif icon - Licensed under Apache License v2.0 (http://www.apache.org/licenses/LICENSE-2.0) - Created with Iconfu.com - Derivative work of Material icons (Copyright Google Inc.)</desc>
	<defs>
		<filter id="filter-IUTkq7es" x="-10%" y="-18%" width="169%" height="268%" color-interpolation-filters="sRGB">
			<feColorMatrix values="1 0 0 0 0 0 1 0 0 0 0 0 1 0 0 0 0 0 0.17 0" in="SourceGraphic"/>
			<feOffset dx="14.14" dy="14.14"/>
			<feGaussianBlur stdDeviation="11" result="blur0"/>
			<feColorMatrix values="1 0 0 0 0 0 1 0 0 0 0 0 1 0 0 0 0 0 0.25 0" in="SourceGraphic"/>
			<feOffset dx="21.21" dy="21.21"/>
			<feGaussianBlur stdDeviation="20" result="blur1"/>
			<feMerge>
				<feMergeNode in="blur0"/>
				<feMergeNode in="blur1"/>
			</feMerge>
		</filter>
	</defs>
	<g fill="none" fill-rule="nonzero" style="mix-blend-mode: normal">
		<path d="M411.78,672.13h-100.22c-57.15,0 -93.31,-47.69 -93.31,-93.31v-133.63c0,-45.62 36.17,-93.31 93.31,-93.31h100.22c17.85,0 33.66,4.66 46.96,12.45c10.12,-7.81 22.8,-12.45 36.56,-12.45h50.11c8.95,0 17.43,1.96 25.06,5.48c7.62,-3.52 16.11,-5.48 25.06,-5.48h150.34c33.08,0 59.9,26.82 59.9,59.9v50.11c0,23.57 -13.62,43.96 -33.41,53.74v29.78c0,33.08 -26.82,59.9 -59.9,59.9h-6.91v6.91c0,33.08 -26.82,59.9 -59.9,59.9h-50.11c-8.95,0 -17.43,-1.96 -25.06,-5.48c-7.62,3.52 -16.11,5.48 -25.06,5.48h-50.11c-13.77,0 -26.45,-4.64 -36.56,-12.45c-13.3,7.79 -29.1,12.45 -46.96,12.45z" fill="#000000" filter="url(#filter-IUTkq7es)"/>
		<g color="#ffffff" class="teamapps-effect-color-1">
			<path d="M411.78,672.13h-100.22c-57.15,0 -93.31,-47.69 -93.31,-93.31v-133.63c0,-45.62 36.17,-93.31 93.31,-93.31h100.22c17.85,0 33.66,4.66 46.96,12.45c10.12,-7.81 22.8,-12.45 36.56,-12.45h50.11c8.95,0 17.43,1.96 25.06,5.48c7.62,-3.52 16.11,-5.48 25.06,-5.48h150.34c33.08,0 59.9,26.82 59.9,59.9v50.11c0,23.57 -13.62,43.96 -33.41,53.74v29.78c0,33.08 -26.82,59.9 -59.9,59.9h-6.91v6.91c0,33.08 -26.82,59.9 -59.9,59.9h-50.11c-8.95,0 -17.43,-1.96 -25.06,-5.48c-7.62,3.52 -16.11,5.48 -25.06,5.48h-50.11c-13.77,0 -26.45,-4.64 -36.56,-12.45c-13.3,7.79 -29.1,12.45 -46.96,12.45z" fill="currentColor"/>
		</g>
		<g>
			<g color="#1565c0" class="teamapps-color-1">
				<path d="M445.19,445.19v16.7h-116.93v100.22h66.82v-50.11h50.11v66.81c0,16.7 -13.37,33.41 -33.41,33.41h-100.22c-20.04,0 -33.41,-16.71 -33.41,-33.41v-133.63c0,-16.7 13.37,-33.41 33.41,-33.41h100.22c20.04,0 33.41,16.71 33.41,33.41zM645.63,461.89v33.41h66.81v50.11h-66.81v66.81h-50.11v-200.45h150.34v50.11zM495.3,411.78h50.11v200.45h-50.11z" fill="currentColor"/>
			</g>
		</g>
	</g>
</svg>