<svg version="1.1" xmlns="http://www.w3.org/2000/svg" xmlns:xlink="http://www.w3.org/1999/xlink" viewBox="0,0,1024,1024">
	<!-- Color names: teamapps-color-1, teamapps-effect-color-1 -->
	<desc>group_add icon - Licensed under Apache License v2.0 (http://www.apache.org/licenses/LICENSE-2.0) - Created with Iconfu.com - Derivative work of Material icons (Copyright Google Inc.)</desc>
	<defs>
		<clipPath id="clip-8fhS6gxh">
			<path d="M0,160.59h1024v740.11h-1024z"/>
		</clipPath>
		<filter id="filter-NkO7JoDu" x="-7%" y="-11%" width="127%" height="174%" color-interpolation-filters="sRGB">
			<feColorMatrix values="1 0 0 0 0 0 1 0 0 0 0 0 1 0 0 0 0 0 0.17 0" in="SourceGraphic"/>
			<feOffset dx="14.14" dy="14.14"/>
			<feGaussianBlur stdDeviation="11" result="blur0"/>
			<feColorMatrix values="1 0 0 0 0 0 1 0 0 0 0 0 1 0 0 0 0 0 0.25 0" in="SourceGraphic"/>
			<feOffset dx="21.21" dy="21.21"/>
			<feGaussianBlur stdDeviation="20" result="blur1"/>
			<feMerge>
				<feMergeNode in="blur0"/>
				<feMergeNode in="blur1"/>
			</feMerge>
		</filter>
	</defs>
	<g fill="none" fill-rule="nonzero" style="mix-blend-mode: normal">
		<g clip-path="url(#clip-8fhS6gxh)">
			<path d="M278.14,672.13h-66.81c-33.08,0 -59.9,-26.82 -59.9,-59.9v-40.32h-40.32c-33.08,0 -59.9,-26.82 -59.9,-59.9v-66.81c0,-33.08 26.82,-59.9 59.9,-59.9h40.32v-40.32c0,-33.08 26.82,-59.9 59.9,-59.9h66.81c33.08,0 59.9,26.82 59.9,59.9v40.32h40.32c2.4,0 4.76,0.14 7.08,0.41c-0.11,-2.43 -0.16,-4.87 -0.16,-7.33c0,-88.54 71.58,-160.13 160.13,-160.13c33.33,0 64.15,10.12 89.65,27.43c7.28,-9.2 17.2,-16.19 28.66,-19.87c15.34,-4.93 31.88,-7.55 48.73,-7.55c88.81,0 159.79,71.85 159.79,160.13c0,48.84 -21.73,92.65 -56.18,122.05c63.43,17.04 156.74,57.22 156.74,145.22v66.81c0,33.08 -26.82,59.9 -59.9,59.9h-100.22c-12.37,0 -23.86,-3.75 -33.41,-10.17c-9.54,6.42 -21.04,10.17 -33.41,10.17h-400.9c-33.08,0 -59.9,-26.82 -59.9,-59.9v-40.72c-2.27,0.26 -4.58,0.4 -6.92,0.4z" fill="#000000" filter="url(#filter-NkO7JoDu)"/>
		</g>
		<g color="#ffffff" class="teamapps-effect-color-1">
			<path d="M278.14,672.13h-66.81c-33.08,0 -59.9,-26.82 -59.9,-59.9v-40.32h-40.32c-33.08,0 -59.9,-26.82 -59.9,-59.9v-66.81c0,-33.08 26.82,-59.9 59.9,-59.9h40.32v-40.32c0,-33.08 26.82,-59.9 59.9,-59.9h66.81c33.08,0 59.9,26.82 59.9,59.9v40.32h40.32c2.4,0 4.76,0.14 7.08,0.41c-0.11,-2.43 -0.16,-4.87 -0.16,-7.33c0,-88.54 71.58,-160.13 160.13,-160.13c33.33,0 64.15,10.12 89.65,27.43c7.28,-9.2 17.2,-16.19 28.66,-19.87c15.34,-4.93 31.88,-7.55 48.73,-7.55c88.81,0 159.79,71.85 159.79,160.13c0,48.84 -21.73,92.65 -56.18,122.05c63.43,17.04 156.74,57.22 156.74,145.22v66.81c0,33.08 -26.82,59.9 -59.9,59.9h-100.22c-12.37,0 -23.86,-3.75 -33.41,-10.17c-9.54,6.42 -21.04,10.17 -33.41,10.17h-400.9c-33.08,0 -59.9,-26.82 -59.9,-59.9v-40.72c-2.27,0.26 -4.58,0.4 -6.92,0.4z" fill="currentColor"/>
		</g>
		<g>
			<g color="#1565c0" class="teamapps-color-1">
				<path d="M378.37,512h-100.22v100.22h-66.81v-100.22h-100.22v-66.81h100.22v-100.22h66.81v100.22h100.22zM745.86,645.63v66.81h-400.9v-66.81c0,-66.81 133.63,-100.22 200.45,-100.22c66.81,0 200.45,33.41 200.45,100.22zM445.19,378.37c0,-55.46 44.76,-100.22 100.22,-100.22c55.46,0 99.89,44.76 99.89,100.22c0,55.46 -44.43,100.22 -99.89,100.22c-55.46,0 -100.22,-44.76 -100.22,-100.22zM682.04,473.91c18.71,-27.4 30.07,-59.81 30.07,-95.55c0,-35.74 -11.02,-68.48 -30.07,-95.54c9.36,-3.01 19.72,-4.68 30.4,-4.68c55.46,0 99.89,44.76 99.89,100.22c0,55.46 -44.43,100.22 -99.89,100.22c-10.69,0 -21.05,-1.67 -30.4,-4.67zM912.9,645.63v66.81h-100.22v-66.81c0,-39.42 -18.38,-70.49 -46.1,-94.88c67.15,11.69 146.33,43.43 146.33,94.88z" fill="currentColor"/>
			</g>
		</g>
	</g>
</svg>