<svg version="1.1" xmlns="http://www.w3.org/2000/svg" xmlns:xlink="http://www.w3.org/1999/xlink" viewBox="0,0,1024,1024">
	<!-- Color names: teamapps-color-1, teamapps-effect-color-1 -->
	<desc>hdr_strong icon - Licensed under Apache License v2.0 (http://www.apache.org/licenses/LICENSE-2.0) - Created with Iconfu.com - Derivative work of Material icons (Copyright Google Inc.)</desc>
	<defs>
		<clipPath id="clip-88zPpJ4s">
			<path d="M26.97,900.71v-706.7h997.03v706.7z"/>
		</clipPath>
		<filter id="filter-MtlW9Qu4" x="-7%" y="-12%" width="132%" height="185%" color-interpolation-filters="sRGB">
			<feColorMatrix values="1 0 0 0 0 0 1 0 0 0 0 0 1 0 0 0 0 0 0.17 0" in="SourceGraphic"/>
			<feOffset dx="14.14" dy="14.14"/>
			<feGaussianBlur stdDeviation="11" result="blur0"/>
			<feColorMatrix values="1 0 0 0 0 0 1 0 0 0 0 0 1 0 0 0 0 0 0.25 0" in="SourceGraphic"/>
			<feOffset dx="21.21" dy="21.21"/>
			<feGaussianBlur stdDeviation="20" result="blur1"/>
			<feMerge>
				<feMergeNode in="blur0"/>
				<feMergeNode in="blur1"/>
			</feMerge>
		</filter>
	</defs>
	<g fill="none" fill-rule="nonzero" style="mix-blend-mode: normal">
		<g clip-path="url(#clip-88zPpJ4s)">
			<path d="M939.39,512c0,143.67 -116.68,260.35 -260.35,260.35c-106.32,0 -197.86,-63.9 -238.27,-155.36c-34.47,53.29 -94.42,88.54 -162.62,88.54c-106.92,0 -193.53,-86.63 -193.53,-193.54c0,-106.91 86.61,-193.54 193.53,-193.54c68.21,0 128.16,35.26 162.62,88.54c40.41,-91.45 131.95,-155.36 238.27,-155.36c143.67,0 260.35,116.68 260.35,260.35z" fill="#000000" filter="url(#filter-MtlW9Qu4)"/>
		</g>
		<g color="#ffffff" class="teamapps-effect-color-1">
			<path d="M939.39,512c0,143.67 -116.68,260.35 -260.35,260.35c-106.32,0 -197.86,-63.9 -238.27,-155.36c-34.47,53.29 -94.42,88.54 -162.62,88.54c-106.92,0 -193.53,-86.63 -193.53,-193.54c0,-106.91 86.61,-193.54 193.53,-193.54c68.21,0 128.16,35.26 162.62,88.54c40.41,-91.45 131.95,-155.36 238.27,-155.36c143.67,0 260.35,116.68 260.35,260.35z" fill="currentColor"/>
		</g>
		<g>
			<g color="#1565c0" class="teamapps-color-1">
				<path d="M879.49,512c0,110.58 -89.86,200.45 -200.45,200.45c-110.58,0 -200.45,-89.86 -200.45,-200.45c0,-110.58 89.86,-200.45 200.45,-200.45c110.58,0 200.45,89.86 200.45,200.45zM411.78,512c0,73.83 -59.81,133.63 -133.63,133.63c-73.83,0 -133.63,-59.81 -133.63,-133.63c0,-73.83 59.8,-133.63 133.63,-133.63c73.83,0 133.63,59.81 133.63,133.63zM344.96,512c0,-36.75 -30.08,-66.81 -66.82,-66.81c-36.75,0 -66.81,30.07 -66.81,66.81c0,36.75 30.07,66.81 66.81,66.81c36.75,0 66.82,-30.07 66.82,-66.81z" fill="currentColor"/>
			</g>
		</g>
	</g>
</svg>