<svg version="1.1" xmlns="http://www.w3.org/2000/svg" xmlns:xlink="http://www.w3.org/1999/xlink" viewBox="0,0,1024,1024">
	<!-- Color names: teamapps-color-1, teamapps-effect-color-1 -->
	<desc>keyboard_arrow_down icon - Licensed under Apache License v2.0 (http://www.apache.org/licenses/LICENSE-2.0) - Created with Iconfu.com - Derivative work of Material icons (Copyright Google Inc.)</desc>
	<defs>
		<filter id="filter-C8aQyuei" x="-12%" y="-16%" width="185%" height="237%" color-interpolation-filters="sRGB">
			<feColorMatrix values="1 0 0 0 0 0 1 0 0 0 0 0 1 0 0 0 0 0 0.17 0" in="SourceGraphic"/>
			<feOffset dx="14.14" dy="14.14"/>
			<feGaussianBlur stdDeviation="11" result="blur0"/>
			<feColorMatrix values="1 0 0 0 0 0 1 0 0 0 0 0 1 0 0 0 0 0 0.25 0" in="SourceGraphic"/>
			<feOffset dx="21.21" dy="21.21"/>
			<feGaussianBlur stdDeviation="20" result="blur1"/>
			<feMerge>
				<feMergeNode in="blur0"/>
				<feMergeNode in="blur1"/>
			</feMerge>
		</filter>
	</defs>
	<g fill="none" fill-rule="nonzero" style="mix-blend-mode: normal">
		<path d="M400.97,330.62l111.03,110.79l111.03,-110.79c23.4,-23.35 61.29,-23.33 84.67,0.05l47.11,47.11c23.39,23.39 23.39,61.32 0,84.72l-200.45,200.45c-23.39,23.39 -61.32,23.39 -84.72,0l-200.45,-200.45c-23.39,-23.39 -23.39,-61.32 0,-84.72l47.11,-47.11c23.38,-23.38 61.27,-23.4 84.67,-0.05z" fill="#000000" filter="url(#filter-C8aQyuei)"/>
		<g color="#ffffff" class="teamapps-effect-color-1">
			<path d="M400.97,330.62l111.03,110.79l111.03,-110.79c23.4,-23.35 61.29,-23.33 84.67,0.05l47.11,47.11c23.39,23.39 23.39,61.32 0,84.72l-200.45,200.45c-23.39,23.39 -61.32,23.39 -84.72,0l-200.45,-200.45c-23.39,-23.39 -23.39,-61.32 0,-84.72l47.11,-47.11c23.38,-23.38 61.27,-23.4 84.67,-0.05z" fill="currentColor"/>
		</g>
		<g>
			<g color="#1565c0" class="teamapps-color-1">
				<path d="M358.66,373.03l153.34,153.01l153.34,-153.01l47.11,47.11l-200.45,200.45l-200.45,-200.45z" fill="currentColor"/>
			</g>
		</g>
	</g>
</svg>