<svg version="1.1" xmlns="http://www.w3.org/2000/svg" xmlns:xlink="http://www.w3.org/1999/xlink" viewBox="0,0,1024,1024">
	<!-- Color names: teamapps-color-1, teamapps-effect-color-1 -->
	<desc>keyboard_return icon - Licensed under Apache License v2.0 (http://www.apache.org/licenses/LICENSE-2.0) - Created with Iconfu.com - Derivative work of Material icons (Copyright Google Inc.)</desc>
	<defs>
		<filter id="filter-Bn0q7LM9" x="-8%" y="-12%" width="141%" height="185%" color-interpolation-filters="sRGB">
			<feColorMatrix values="1 0 0 0 0 0 1 0 0 0 0 0 1 0 0 0 0 0 0.17 0" in="SourceGraphic"/>
			<feOffset dx="14.14" dy="14.14"/>
			<feGaussianBlur stdDeviation="11" result="blur0"/>
			<feColorMatrix values="1 0 0 0 0 0 1 0 0 0 0 0 1 0 0 0 0 0 0.25 0" in="SourceGraphic"/>
			<feOffset dx="21.21" dy="21.21"/>
			<feGaussianBlur stdDeviation="20" result="blur1"/>
			<feMerge>
				<feMergeNode in="blur0"/>
				<feMergeNode in="blur1"/>
			</feMerge>
		</filter>
	</defs>
	<g fill="none" fill-rule="nonzero" style="mix-blend-mode: normal">
		<path d="M872.58,344.96v200.45c0,33.08 -26.82,59.9 -59.9,59.9h-362.46l17.68,17.73c23.34,23.4 23.31,61.29 -0.06,84.66l-47.11,47.11c-23.39,23.39 -61.32,23.39 -84.72,0l-200.45,-200.45c-23.39,-23.39 -23.39,-61.32 0,-84.72l200.45,-200.45c23.39,-23.39 61.32,-23.39 84.72,0l47.11,47.11c23.37,23.37 23.4,61.25 0.06,84.66l-17.68,17.73h235.75v-73.72c0,-33.08 26.82,-59.9 59.9,-59.9h66.81c33.08,0 59.9,26.82 59.9,59.9z" fill="#000000" filter="url(#filter-Bn0q7LM9)"/>
		<g color="#ffffff" class="teamapps-effect-color-1">
			<path d="M872.58,344.96v200.45c0,33.08 -26.82,59.9 -59.9,59.9h-362.46l17.68,17.73c23.34,23.4 23.31,61.29 -0.06,84.66l-47.11,47.11c-23.39,23.39 -61.32,23.39 -84.72,0l-200.45,-200.45c-23.39,-23.39 -23.39,-61.32 0,-84.72l200.45,-200.45c23.39,-23.39 61.32,-23.39 84.72,0l47.11,47.11c23.37,23.37 23.4,61.25 0.06,84.66l-17.68,17.73h235.75v-73.72c0,-33.08 26.82,-59.9 59.9,-59.9h66.81c33.08,0 59.9,26.82 59.9,59.9z" fill="currentColor"/>
		</g>
		<g>
			<g color="#1565c0" class="teamapps-color-1">
				<path d="M812.67,344.96v200.45h-506.8l119.6,119.93l-47.11,47.11l-200.45,-200.45l200.45,-200.45l47.11,47.11l-119.6,119.93h439.98v-133.63z" fill="currentColor"/>
			</g>
		</g>
	</g>
</svg>