<svg version="1.1" xmlns="http://www.w3.org/2000/svg" xmlns:xlink="http://www.w3.org/1999/xlink" viewBox="0,0,1024,1024">
	<!-- Color names: teamapps-color-1, teamapps-effect-color-1 -->
	<desc>leak_remove icon - Licensed under Apache License v2.0 (http://www.apache.org/licenses/LICENSE-2.0) - Created with Iconfu.com - Derivative work of Material icons (Copyright Google Inc.)</desc>
	<defs>
		<filter id="filter-8G1Q8EHR" x="-8%" y="-8%" width="147%" height="147%" color-interpolation-filters="sRGB">
			<feColorMatrix values="1 0 0 0 0 0 1 0 0 0 0 0 1 0 0 0 0 0 0.17 0" in="SourceGraphic"/>
			<feOffset dx="14.14" dy="14.14"/>
			<feGaussianBlur stdDeviation="11" result="blur0"/>
			<feColorMatrix values="1 0 0 0 0 0 1 0 0 0 0 0 1 0 0 0 0 0 0.25 0" in="SourceGraphic"/>
			<feOffset dx="21.21" dy="21.21"/>
			<feGaussianBlur stdDeviation="20" result="blur1"/>
			<feMerge>
				<feMergeNode in="blur0"/>
				<feMergeNode in="blur1"/>
			</feMerge>
		</filter>
	</defs>
	<g fill="none" fill-rule="nonzero" style="mix-blend-mode: normal">
		<path d="M296.12,168.97l24.92,24.92c7.47,-24.58 30.31,-42.47 57.33,-42.47h66.82c12.37,0 23.86,3.75 33.41,10.17c9.54,-6.42 21.04,-10.17 33.41,-10.17h66.81c33.08,0 59.9,26.82 59.9,59.9c0,80.23 -22.62,154.93 -60.6,218.48c-2.62,4.38 -5.75,8.35 -9.3,11.86l13.5,13.5c3.51,-3.55 7.49,-6.68 11.86,-9.3c63.55,-37.98 138.25,-60.6 218.48,-60.6c33.08,0 59.9,26.82 59.9,59.9v66.81c0,12.37 -3.75,23.86 -10.17,33.41c6.42,9.54 10.17,21.04 10.17,33.41v66.82c0,27.02 -17.89,49.86 -42.47,57.33l24.92,24.92c23.39,23.39 23.39,61.32 0,84.72l-42.43,42.43c-23.39,23.39 -61.32,23.39 -84.72,0l-24.92,-24.92c-7.47,24.58 -30.31,42.47 -57.33,42.47h-66.82c-12.37,0 -23.86,-3.75 -33.41,-10.17c-9.54,6.42 -21.04,10.17 -33.41,10.17h-66.81c-33.08,0 -59.9,-26.82 -59.9,-59.9c0,-85.51 25.38,-165.04 68.39,-231.85l-10.67,-10.67c-66.71,43.24 -146.25,68.57 -231.68,68.57c-33.08,0 -59.9,-26.82 -59.9,-59.9v-66.81c0,-12.37 3.75,-23.86 10.17,-33.41c-6.42,-9.54 -10.17,-21.04 -10.17,-33.41v-66.82c0,-27.02 17.89,-49.86 42.47,-57.33l-24.92,-24.92c-23.39,-23.39 -23.39,-61.32 0,-84.72l42.43,-42.43c23.39,-23.39 61.32,-23.39 84.72,0z" fill="#000000" filter="url(#filter-8G1Q8EHR)"/>
		<g color="#ffffff" class="teamapps-effect-color-1">
			<path d="M296.12,168.97l24.92,24.92c7.47,-24.58 30.31,-42.47 57.33,-42.47h66.82c12.37,0 23.86,3.75 33.41,10.17c9.54,-6.42 21.04,-10.17 33.41,-10.17h66.81c33.08,0 59.9,26.82 59.9,59.9c0,80.23 -22.62,154.93 -60.6,218.48c-2.62,4.38 -5.75,8.35 -9.3,11.86l13.5,13.5c3.51,-3.55 7.49,-6.68 11.86,-9.3c63.55,-37.98 138.25,-60.6 218.48,-60.6c33.08,0 59.9,26.82 59.9,59.9v66.81c0,12.37 -3.75,23.86 -10.17,33.41c6.42,9.54 10.17,21.04 10.17,33.41v66.82c0,27.02 -17.89,49.86 -42.47,57.33l24.92,24.92c23.39,23.39 23.39,61.32 0,84.72l-42.43,42.43c-23.39,23.39 -61.32,23.39 -84.72,0l-24.92,-24.92c-7.47,24.58 -30.31,42.47 -57.33,42.47h-66.82c-12.37,0 -23.86,-3.75 -33.41,-10.17c-9.54,6.42 -21.04,10.17 -33.41,10.17h-66.81c-33.08,0 -59.9,-26.82 -59.9,-59.9c0,-85.51 25.38,-165.04 68.39,-231.85l-10.67,-10.67c-66.71,43.24 -146.25,68.57 -231.68,68.57c-33.08,0 -59.9,-26.82 -59.9,-59.9v-66.81c0,-12.37 3.75,-23.86 10.17,-33.41c-6.42,-9.54 -10.17,-21.04 -10.17,-33.41v-66.82c0,-27.02 17.89,-49.86 42.47,-57.33l-24.92,-24.92c-23.39,-23.39 -23.39,-61.32 0,-84.72l42.43,-42.43c23.39,-23.39 61.32,-23.39 84.72,0z" fill="currentColor"/>
		</g>
		<g>
			<g color="#1565c0" class="teamapps-color-1">
				<path d="M253.76,211.33l558.91,558.91l-42.43,42.43l-94.88,-94.88c-18.71,27.06 -29.73,59.46 -29.73,94.88h-66.82c0,-53.78 18.38,-103.23 48.78,-142.32l-47.78,-47.77c-42.43,51.78 -67.82,117.93 -67.82,190.09h-66.81c0,-90.54 33.07,-173.39 87.19,-237.87l-83.52,-83.51c-64.14,54.46 -146.99,87.52 -237.53,87.52v-66.81c72.16,0 138.31,-25.38 190.43,-67.82l-47.77,-47.78c-39.42,30.4 -88.87,48.78 -142.65,48.78v-66.82c35.42,0 67.82,-11.02 94.88,-29.73l-94.88,-94.88zM812.67,445.19v66.81c-50.11,0 -97.22,12.36 -138.97,34.08l-48.78,-48.77c54.79,-32.74 118.94,-52.12 187.76,-52.12zM526.7,399.08l-48.77,-48.78c21.71,-41.76 34.08,-88.86 34.08,-138.97h66.81c0,68.82 -19.38,132.97 -52.12,187.76zM723.81,596.19c27.4,-11.02 57.46,-17.37 88.86,-17.37v66.82c-12.36,0 -24.05,1.34 -35.42,4.01zM427.48,299.86l-53.12,-53.12c2.67,-11.36 4.01,-23.05 4.01,-35.42h66.82c0,31.41 -6.35,61.47 -17.71,88.53z" fill="currentColor"/>
			</g>
		</g>
	</g>
</svg>