<svg version="1.1" xmlns="http://www.w3.org/2000/svg" xmlns:xlink="http://www.w3.org/1999/xlink" viewBox="0,0,1024,1024">
	<!-- Color names: teamapps-color-1, teamapps-effect-color-1 -->
	<desc>local_car_wash icon - Licensed under Apache License v2.0 (http://www.apache.org/licenses/LICENSE-2.0) - Created with Iconfu.com - Derivative work of Material icons (Copyright Google Inc.)</desc>
	<defs>
		<clipPath id="clip-JLprVRQF">
			<path d="M93.78,20.28h907.15v1003.72h-907.15z"/>
		</clipPath>
		<filter id="filter-oFoNILux" x="-8%" y="-7%" width="147%" height="131%" color-interpolation-filters="sRGB">
			<feColorMatrix values="1 0 0 0 0 0 1 0 0 0 0 0 1 0 0 0 0 0 0.17 0" in="SourceGraphic"/>
			<feOffset dx="14.14" dy="14.14"/>
			<feGaussianBlur stdDeviation="11" result="blur0"/>
			<feColorMatrix values="1 0 0 0 0 0 1 0 0 0 0 0 1 0 0 0 0 0 0.25 0" in="SourceGraphic"/>
			<feOffset dx="21.21" dy="21.21"/>
			<feGaussianBlur stdDeviation="20" result="blur1"/>
			<feMerge>
				<feMergeNode in="blur0"/>
				<feMergeNode in="blur1"/>
			</feMerge>
		</filter>
	</defs>
	<g fill="none" fill-rule="nonzero" style="mix-blend-mode: normal">
		<g clip-path="url(#clip-JLprVRQF)">
			<path d="M872.58,578.81v267.27c0,51.48 -41.87,93.31 -93.31,93.31h-33.4c-42.25,0 -78.04,-28.21 -89.49,-66.81h-288.74c-11.44,38.6 -47.24,66.81 -89.49,66.81h-33.4c-51.44,0 -93.31,-41.83 -93.31,-93.31v-267.27c0,-6.69 1.12,-13.33 3.31,-19.65l69.51,-200.17c0.04,-0.13 0.09,-0.25 0.13,-0.38c7.82,-21.97 22.39,-40.96 41.42,-54.14c-19.11,-19.79 -30.86,-46.73 -30.86,-76.44c0,-56.06 65.1,-129.84 65.1,-129.84c11.37,-12.89 27.73,-20.27 44.92,-20.27c17.19,0 33.55,7.38 44.92,20.27c0,0 20.58,23.33 38.6,53.71c18.02,-30.39 38.6,-53.71 38.6,-53.71c11.37,-12.89 27.73,-20.27 44.92,-20.27c17.19,0 33.55,7.38 44.92,20.27c0,0 20.58,23.33 38.6,53.71c18.02,-30.39 38.6,-53.71 38.6,-53.71c11.37,-12.89 27.73,-20.27 44.92,-20.27c17.19,0 33.55,7.38 44.92,20.27c0,0 65.1,73.78 65.1,129.84c0,29.69 -11.73,56.61 -30.81,76.4c19.11,13.16 33.88,32.24 41.59,54.8l69.43,199.94c2.19,6.32 3.31,12.96 3.31,19.65z" fill="#000000" filter="url(#filter-oFoNILux)"/>
		</g>
		<g color="#ffffff" class="teamapps-effect-color-1">
			<path d="M872.58,578.81v267.27c0,51.48 -41.87,93.31 -93.31,93.31h-33.4c-42.25,0 -78.04,-28.21 -89.49,-66.81h-288.74c-11.44,38.6 -47.24,66.81 -89.49,66.81h-33.4c-51.44,0 -93.31,-41.83 -93.31,-93.31v-267.27c0,-6.69 1.12,-13.33 3.31,-19.65l69.51,-200.17c0.04,-0.13 0.09,-0.25 0.13,-0.38c7.82,-21.97 22.39,-40.96 41.42,-54.14c-19.11,-19.79 -30.86,-46.73 -30.86,-76.44c0,-56.06 65.1,-129.84 65.1,-129.84c11.37,-12.89 27.73,-20.27 44.92,-20.27c17.19,0 33.55,7.38 44.92,20.27c0,0 20.58,23.33 38.6,53.71c18.02,-30.39 38.6,-53.71 38.6,-53.71c11.37,-12.89 27.73,-20.27 44.92,-20.27c17.19,0 33.55,7.38 44.92,20.27c0,0 20.58,23.33 38.6,53.71c18.02,-30.39 38.6,-53.71 38.6,-53.71c11.37,-12.89 27.73,-20.27 44.92,-20.27c17.19,0 33.55,7.38 44.92,20.27c0,0 65.1,73.78 65.1,129.84c0,29.69 -11.73,56.61 -30.81,76.4c19.11,13.16 33.88,32.24 41.59,54.8l69.43,199.94c2.19,6.32 3.31,12.96 3.31,19.65z" fill="currentColor"/>
		</g>
		<g>
			<g color="#1565c0" class="teamapps-color-1">
				<path d="M812.67,578.81v267.27c0,18.38 -15.03,33.4 -33.41,33.4h-33.4c-18.38,0 -33.41,-15.03 -33.41,-33.4v-33.41h-400.9v33.41c0,18.38 -15.03,33.4 -33.41,33.4h-33.4c-18.38,0 -33.41,-15.03 -33.41,-33.4v-267.27l69.49,-200.11c7.02,-19.71 25.38,-33.74 47.43,-33.74h367.49c22.05,0 40.76,14.03 47.43,33.74zM745.86,545.41l-50.11,-150.34h-367.49l-50.11,150.34zM628.93,228.03c0,-33.41 50.11,-90.2 50.11,-90.2c0,0 50.11,56.79 50.11,90.2c0,27.73 -22.39,50.11 -50.11,50.11c-27.73,0 -50.11,-22.39 -50.11,-50.11zM461.89,228.03c0,-33.41 50.11,-90.2 50.11,-90.2c0,0 50.11,56.79 50.11,90.2c0,27.73 -22.39,50.11 -50.11,50.11c-27.73,0 -50.11,-22.39 -50.11,-50.11zM294.85,228.03c0,-33.41 50.11,-90.2 50.11,-90.2c0,0 50.11,56.79 50.11,90.2c0,27.73 -22.39,50.11 -50.11,50.11c-27.73,0 -50.11,-22.39 -50.11,-50.11zM378.37,662.34c0,-27.73 -22.39,-50.11 -50.11,-50.11c-27.73,0 -50.11,22.39 -50.11,50.11c0,27.73 22.39,50.11 50.11,50.11c27.73,0 50.11,-22.39 50.11,-50.11zM745.86,662.34c0,-27.73 -22.39,-50.11 -50.11,-50.11c-27.73,0 -50.11,22.39 -50.11,50.11c0,27.73 22.39,50.11 50.11,50.11c27.73,0 50.11,-22.39 50.11,-50.11z" fill="currentColor"/>
			</g>
		</g>
	</g>
</svg>