<svg version="1.1" xmlns="http://www.w3.org/2000/svg" xmlns:xlink="http://www.w3.org/1999/xlink" viewBox="0,0,1024,1024">
	<!-- Color names: teamapps-color-1, teamapps-effect-color-1 -->
	<desc>merge_type icon - Licensed under Apache License v2.0 (http://www.apache.org/licenses/LICENSE-2.0) - Created with Iconfu.com - Derivative work of Material icons (Copyright Google Inc.)</desc>
	<defs>
		<filter id="filter-Vv9GIhYo" x="-11%" y="-9%" width="178%" height="153%" color-interpolation-filters="sRGB">
			<feColorMatrix values="1 0 0 0 0 0 1 0 0 0 0 0 1 0 0 0 0 0 0.17 0" in="SourceGraphic"/>
			<feOffset dx="14.14" dy="14.14"/>
			<feGaussianBlur stdDeviation="11" result="blur0"/>
			<feColorMatrix values="1 0 0 0 0 0 1 0 0 0 0 0 1 0 0 0 0 0 0.25 0" in="SourceGraphic"/>
			<feOffset dx="21.21" dy="21.21"/>
			<feGaussianBlur stdDeviation="20" result="blur1"/>
			<feMerge>
				<feMergeNode in="blur0"/>
				<feMergeNode in="blur1"/>
			</feMerge>
		</filter>
	</defs>
	<g fill="none" fill-rule="nonzero" style="mix-blend-mode: normal">
		<path d="M554.36,185.67l150.34,150.34c17.13,17.13 22.26,42.9 12.99,65.28c-9.27,22.38 -31.12,36.98 -55.34,36.98h-57.02v134.16c17.54,-2.03 35.81,3.69 49.27,17.15l113.92,113.93c23.39,23.39 23.39,61.32 0,84.72l-47.11,47.11c-23.39,23.39 -61.32,23.39 -84.72,0l-113.92,-113.93c-3.72,-3.72 -6.84,-7.8 -9.38,-12.13l-126.06,126.06c-23.39,23.39 -61.32,23.39 -84.72,0l-47.11,-47.11c-23.39,-23.39 -23.39,-61.32 0,-84.72l163.19,-163.19v-102.04h-57.02c-24.23,0 -46.07,-14.6 -55.34,-36.98c-9.27,-22.38 -4.15,-48.15 12.99,-65.28l150.34,-150.34c23.39,-23.39 61.32,-23.39 84.72,0z" fill="#000000" filter="url(#filter-Vv9GIhYo)"/>
		<g color="#ffffff" class="teamapps-effect-color-1">
			<path d="M554.36,185.67l150.34,150.34c17.13,17.13 22.26,42.9 12.99,65.28c-9.27,22.38 -31.12,36.98 -55.34,36.98h-57.02v134.16c17.54,-2.03 35.81,3.69 49.27,17.15l113.92,113.93c23.39,23.39 23.39,61.32 0,84.72l-47.11,47.11c-23.39,23.39 -61.32,23.39 -84.72,0l-113.92,-113.93c-3.72,-3.72 -6.84,-7.8 -9.38,-12.13l-126.06,126.06c-23.39,23.39 -61.32,23.39 -84.72,0l-47.11,-47.11c-23.39,-23.39 -23.39,-61.32 0,-84.72l163.19,-163.19v-102.04h-57.02c-24.23,0 -46.07,-14.6 -55.34,-36.98c-9.27,-22.38 -4.15,-48.15 12.99,-65.28l150.34,-150.34c23.39,-23.39 61.32,-23.39 84.72,0z" fill="currentColor"/>
		</g>
		<g>
			<g color="#1565c0" class="teamapps-color-1">
				<path d="M512,228.03l150.34,150.34h-116.93v214.15l-200.45,200.45l-47.11,-47.11l180.73,-180.74v-186.75h-116.93zM565.12,679.04l47.11,-47.11l113.92,113.93l-47.11,47.11z" fill="currentColor"/>
			</g>
		</g>
	</g>
</svg>