<svg version="1.1" xmlns="http://www.w3.org/2000/svg" xmlns:xlink="http://www.w3.org/1999/xlink" viewBox="0,0,1024,1024">
	<!-- Color names: teamapps-color-1, teamapps-effect-color-1 -->
	<desc>motorcycle icon - Licensed under Apache License v2.0 (http://www.apache.org/licenses/LICENSE-2.0) - Created with Iconfu.com - Derivative work of Material icons (Copyright Google Inc.)</desc>
	<defs>
		<clipPath id="clip-dA7Xhyjp">
			<path d="M0,160.59h1024v773.53h-1024z"/>
		</clipPath>
		<filter id="filter-UlJMhIUw" x="-7%" y="-10%" width="127%" height="169%" color-interpolation-filters="sRGB">
			<feColorMatrix values="1 0 0 0 0 0 1 0 0 0 0 0 1 0 0 0 0 0 0.17 0" in="SourceGraphic"/>
			<feOffset dx="14.14" dy="14.14"/>
			<feGaussianBlur stdDeviation="11" result="blur0"/>
			<feColorMatrix values="1 0 0 0 0 0 1 0 0 0 0 0 1 0 0 0 0 0 0.25 0" in="SourceGraphic"/>
			<feOffset dx="21.21" dy="21.21"/>
			<feGaussianBlur stdDeviation="20" result="blur1"/>
			<feMerge>
				<feMergeNode in="blur0"/>
				<feMergeNode in="blur1"/>
			</feMerge>
		</filter>
	</defs>
	<g fill="none" fill-rule="nonzero" style="mix-blend-mode: normal">
		<g clip-path="url(#clip-dA7Xhyjp)">
			<path d="M972.8,578.81c0,126.63 -100.31,226.95 -226.94,226.95c-98.02,0 -180.27,-60.11 -212.44,-146c-10.4,7.98 -23.2,12.37 -36.45,12.37h-11.52c-35.18,79.57 -114.26,133.63 -207.31,133.63c-126.63,0 -226.94,-100.32 -226.94,-226.95c0,-126.63 100.31,-226.94 226.94,-226.94h140.94c-0.26,-2.27 -0.39,-4.57 -0.39,-6.91v-66.82c0,-33.08 26.82,-59.9 59.9,-59.9h147.33c15.89,0 31.12,6.31 42.36,17.55l120.28,120.28c106.3,19.26 184.24,111.26 184.24,222.75z" fill="#000000" filter="url(#filter-UlJMhIUw)"/>
		</g>
		<g color="#ffffff" class="teamapps-effect-color-1">
			<path d="M972.8,578.81c0,126.63 -100.31,226.95 -226.94,226.95c-98.02,0 -180.27,-60.11 -212.44,-146c-10.4,7.98 -23.2,12.37 -36.45,12.37h-11.52c-35.18,79.57 -114.26,133.63 -207.31,133.63c-126.63,0 -226.94,-100.32 -226.94,-226.95c0,-126.63 100.31,-226.94 226.94,-226.94h140.94c-0.26,-2.27 -0.39,-4.57 -0.39,-6.91v-66.82c0,-33.08 26.82,-59.9 59.9,-59.9h147.33c15.89,0 31.12,6.31 42.36,17.55l120.28,120.28c106.3,19.26 184.24,111.26 184.24,222.75z" fill="currentColor"/>
		</g>
		<g>
			<g color="#1565c0" class="teamapps-color-1">
				<path d="M912.9,578.81c0,93.55 -73.49,167.05 -167.04,167.05c-93.55,0 -167.05,-73.5 -167.05,-167.05c0,-21.05 3.68,-41.09 10.7,-59.13l-92.54,92.54h-55.12c-15.03,77.17 -81.52,133.63 -163.7,133.63c-93.55,0 -167.04,-73.5 -167.04,-167.05c0,-93.55 73.49,-167.04 167.04,-167.04h387.2l-66.81,-66.81h-119.94v-66.82h147.33l134.64,134.64c86.53,6.68 152.34,77.5 152.34,166.04zM846.08,578.81c0,-55.46 -44.76,-100.22 -100.22,-100.22c-55.46,0 -100.22,44.76 -100.22,100.22c0,55.46 44.76,100.22 100.22,100.22c55.46,0 100.22,-44.76 100.22,-100.22zM278.14,612.22v-66.81h94.21c-14.03,-38.42 -51.45,-66.82 -94.21,-66.82c-54.46,0 -100.22,45.77 -100.22,100.22c0,54.46 45.77,100.22 100.22,100.22c42.76,0 80.18,-28.39 94.21,-66.81z" fill="currentColor"/>
			</g>
		</g>
	</g>
</svg>