<svg version="1.1" xmlns="http://www.w3.org/2000/svg" xmlns:xlink="http://www.w3.org/1999/xlink" viewBox="0,0,1024,1024">
	<!-- Color names: teamapps-color-1, teamapps-effect-color-1 -->
	<desc>person_pin icon - Licensed under Apache License v2.0 (http://www.apache.org/licenses/LICENSE-2.0) - Created with Iconfu.com - Derivative work of Material icons (Copyright Google Inc.)</desc>
	<defs>
		<clipPath id="clip-mWCSoCOH">
			<path d="M93.78,60.37h907.15v963.63h-907.15z"/>
		</clipPath>
		<filter id="filter-X6q9fUA7" x="-8%" y="-8%" width="147%" height="138%" color-interpolation-filters="sRGB">
			<feColorMatrix values="1 0 0 0 0 0 1 0 0 0 0 0 1 0 0 0 0 0 0.17 0" in="SourceGraphic"/>
			<feOffset dx="14.14" dy="14.14"/>
			<feGaussianBlur stdDeviation="11" result="blur0"/>
			<feColorMatrix values="1 0 0 0 0 0 1 0 0 0 0 0 1 0 0 0 0 0 0.25 0" in="SourceGraphic"/>
			<feOffset dx="21.21" dy="21.21"/>
			<feGaussianBlur stdDeviation="20" result="blur1"/>
			<feMerge>
				<feMergeNode in="blur0"/>
				<feMergeNode in="blur1"/>
			</feMerge>
		</filter>
	</defs>
	<g fill="none" fill-rule="nonzero" style="mix-blend-mode: normal">
		<g clip-path="url(#clip-mWCSoCOH)">
			<path d="M872.58,244.74v467.71c0,69.83 -56.89,126.72 -126.72,126.72h-108.82l-82.68,82.68c-23.39,23.39 -61.32,23.39 -84.72,0l-82.68,-82.68h-108.82c-70.37,0 -126.72,-57.09 -126.72,-126.72v-467.71c0,-69.62 56.34,-126.73 126.72,-126.73h467.72c69.84,0 126.72,56.9 126.72,126.73z" fill="#000000" filter="url(#filter-X6q9fUA7)"/>
		</g>
		<g color="#ffffff" class="teamapps-effect-color-1">
			<path d="M872.58,244.74v467.71c0,69.83 -56.89,126.72 -126.72,126.72h-108.82l-82.68,82.68c-23.39,23.39 -61.32,23.39 -84.72,0l-82.68,-82.68h-108.82c-70.37,0 -126.72,-57.09 -126.72,-126.72v-467.71c0,-69.62 56.34,-126.73 126.72,-126.73h467.72c69.84,0 126.72,56.9 126.72,126.73z" fill="currentColor"/>
		</g>
		<g>
			<g color="#1565c0" class="teamapps-color-1">
				<path d="M812.67,244.74v467.71c0,36.75 -30.07,66.81 -66.81,66.81h-133.63l-100.22,100.22l-100.22,-100.22h-133.63c-37.08,0 -66.81,-30.07 -66.81,-66.81v-467.71c0,-36.75 29.73,-66.82 66.81,-66.82h467.72c36.75,0 66.81,30.08 66.81,66.82zM712.45,615.57c0,-66.81 -133.63,-103.57 -200.45,-103.57c-66.81,0 -200.45,36.75 -200.45,103.57v30.07h400.9zM421.8,378.37c0,49.78 40.43,90.2 90.2,90.2c49.78,0 90.2,-40.43 90.2,-90.2c0,-49.78 -40.43,-90.2 -90.2,-90.2c-49.78,0 -90.2,40.43 -90.2,90.2z" fill="currentColor"/>
			</g>
		</g>
	</g>
</svg>