<svg version="1.1" xmlns="http://www.w3.org/2000/svg" xmlns:xlink="http://www.w3.org/1999/xlink" viewBox="0,0,1024,1024">
	<!-- Color names: teamapps-color-1, teamapps-effect-color-1 -->
	<desc>recent_actors icon - Licensed under Apache License v2.0 (http://www.apache.org/licenses/LICENSE-2.0) - Created with Iconfu.com - Derivative work of Material icons (Copyright Google Inc.)</desc>
	<defs>
		<clipPath id="clip-t0eSYAK9">
			<path d="M26.97,934.12v-773.53h997.03v773.53z"/>
		</clipPath>
		<filter id="filter-30fzqOlW" x="-7%" y="-10%" width="132%" height="169%" color-interpolation-filters="sRGB">
			<feColorMatrix values="1 0 0 0 0 0 1 0 0 0 0 0 1 0 0 0 0 0 0.17 0" in="SourceGraphic"/>
			<feOffset dx="14.14" dy="14.14"/>
			<feGaussianBlur stdDeviation="11" result="blur0"/>
			<feColorMatrix values="1 0 0 0 0 0 1 0 0 0 0 0 1 0 0 0 0 0 0.25 0" in="SourceGraphic"/>
			<feOffset dx="21.21" dy="21.21"/>
			<feGaussianBlur stdDeviation="20" result="blur1"/>
			<feMerge>
				<feMergeNode in="blur0"/>
				<feMergeNode in="blur1"/>
			</feMerge>
		</filter>
	</defs>
	<g fill="none" fill-rule="nonzero" style="mix-blend-mode: normal">
		<g clip-path="url(#clip-t0eSYAK9)">
			<path d="M578.81,805.76h-400.9c-51.48,0 -93.31,-41.87 -93.31,-93.31v-400.9c0,-51.44 41.83,-93.31 93.31,-93.31h400.9c21.19,0 40.75,7.09 56.43,19.03c10.93,-11.71 26.51,-19.03 43.8,-19.03h66.82c12.37,0 23.86,3.75 33.41,10.17c9.54,-6.42 21.04,-10.17 33.41,-10.17h66.81c33.08,0 59.9,26.82 59.9,59.9v467.72c0,33.08 -26.82,59.9 -59.9,59.9h-66.81c-12.37,0 -23.86,-3.75 -33.41,-10.17c-9.54,6.42 -21.04,10.17 -33.41,10.17h-66.82c-17.29,0 -32.86,-7.32 -43.8,-19.03c-15.68,11.94 -35.24,19.03 -56.43,19.03z" fill="#000000" filter="url(#filter-30fzqOlW)"/>
		</g>
		<g color="#ffffff" class="teamapps-effect-color-1">
			<path d="M578.81,805.76h-400.9c-51.48,0 -93.31,-41.87 -93.31,-93.31v-400.9c0,-51.44 41.83,-93.31 93.31,-93.31h400.9c21.19,0 40.75,7.09 56.43,19.03c10.93,-11.71 26.51,-19.03 43.8,-19.03h66.82c12.37,0 23.86,3.75 33.41,10.17c9.54,-6.42 21.04,-10.17 33.41,-10.17h66.81c33.08,0 59.9,26.82 59.9,59.9v467.72c0,33.08 -26.82,59.9 -59.9,59.9h-66.81c-12.37,0 -23.86,-3.75 -33.41,-10.17c-9.54,6.42 -21.04,10.17 -33.41,10.17h-66.82c-17.29,0 -32.86,-7.32 -43.8,-19.03c-15.68,11.94 -35.24,19.03 -56.43,19.03z" fill="currentColor"/>
		</g>
		<g>
			<g color="#1565c0" class="teamapps-color-1">
				<path d="M612.22,311.55v400.9c0,18.38 -15.03,33.41 -33.41,33.41h-400.9c-18.38,0 -33.4,-15.03 -33.4,-33.41v-400.9c0,-18.38 15.03,-33.41 33.4,-33.41h400.9c18.38,0 33.41,15.03 33.41,33.41zM679.04,278.14h66.82v467.72h-66.82zM879.49,278.14v467.72h-66.81v-467.72zM528.7,653.98c0,-50.11 -100.22,-75.17 -150.34,-75.17c-50.11,0 -150.34,25.06 -150.34,75.17v25.06h300.67zM303.2,445.19c0,41.43 33.74,75.17 75.17,75.17c41.43,0 75.17,-33.74 75.17,-75.17c0,-41.43 -33.74,-75.17 -75.17,-75.17c-41.43,0 -75.17,33.74 -75.17,75.17z" fill="currentColor"/>
			</g>
		</g>
	</g>
</svg>