<svg version="1.1" xmlns="http://www.w3.org/2000/svg" xmlns:xlink="http://www.w3.org/1999/xlink" viewBox="0,0,1024,1024">
	<!-- Color names: teamapps-color-1, teamapps-effect-color-1 -->
	<desc>repeat_one icon - Licensed under Apache License v2.0 (http://www.apache.org/licenses/LICENSE-2.0) - Created with Iconfu.com - Derivative work of Material icons (Copyright Google Inc.)</desc>
	<defs>
		<clipPath id="clip-LuwOKAIw">
			<path d="M93.78,60.37h907.15v963.63h-907.15z"/>
		</clipPath>
		<filter id="filter-m6AgA69i" x="-8%" y="-8%" width="147%" height="140%" color-interpolation-filters="sRGB">
			<feColorMatrix values="1 0 0 0 0 0 1 0 0 0 0 0 1 0 0 0 0 0 0.17 0" in="SourceGraphic"/>
			<feOffset dx="14.14" dy="14.14"/>
			<feGaussianBlur stdDeviation="11" result="blur0"/>
			<feColorMatrix values="1 0 0 0 0 0 1 0 0 0 0 0 1 0 0 0 0 0 0.25 0" in="SourceGraphic"/>
			<feOffset dx="21.21" dy="21.21"/>
			<feGaussianBlur stdDeviation="20" result="blur1"/>
			<feMerge>
				<feMergeNode in="blur0"/>
				<feMergeNode in="blur1"/>
			</feMerge>
		</filter>
	</defs>
	<g fill="none" fill-rule="nonzero" style="mix-blend-mode: normal">
		<g clip-path="url(#clip-LuwOKAIw)">
			<path d="M278.14,538.49c-33.08,0 -59.9,-26.82 -59.9,-59.9v-200.45c0,-33.08 26.82,-59.9 59.9,-59.9h340.99v-40.32c0,-24.23 14.6,-46.07 36.98,-55.34c22.38,-9.27 48.15,-4.15 65.28,12.99l133.63,133.63c23.39,23.39 23.39,61.32 0,84.72l-131.6,131.6h22.42c33.08,0 59.9,26.82 59.9,59.9v200.45c0,33.08 -26.82,59.9 -59.9,59.9h-340.99v40.32c0,24.23 -14.6,46.07 -36.98,55.34c-22.38,9.27 -48.15,4.15 -65.28,-12.99l-133.63,-133.63c-23.39,-23.39 -23.39,-61.32 0,-84.72l131.6,-131.6z" fill="#000000" filter="url(#filter-m6AgA69i)"/>
		</g>
		<g color="#ffffff" class="teamapps-effect-color-1">
			<path d="M278.14,538.49c-33.08,0 -59.9,-26.82 -59.9,-59.9v-200.45c0,-33.08 26.82,-59.9 59.9,-59.9h340.99v-40.32c0,-24.23 14.6,-46.07 36.98,-55.34c22.38,-9.27 48.15,-4.15 65.28,12.99l133.63,133.63c23.39,23.39 23.39,61.32 0,84.72l-131.6,131.6h22.42c33.08,0 59.9,26.82 59.9,59.9v200.45c0,33.08 -26.82,59.9 -59.9,59.9h-340.99v40.32c0,24.23 -14.6,46.07 -36.98,55.34c-22.38,9.27 -48.15,4.15 -65.28,-12.99l-133.63,-133.63c-23.39,-23.39 -23.39,-61.32 0,-84.72l131.6,-131.6z" fill="currentColor"/>
		</g>
		<g>
			<g color="#1565c0" class="teamapps-color-1">
				<path d="M344.96,478.59h-66.82v-200.45h400.9v-100.22l133.63,133.63l-133.63,133.63v-100.22h-334.07zM679.04,545.41h66.82v200.45h-400.9v100.22l-133.63,-133.63l133.63,-133.63v100.22h334.07zM495.3,612.22v-133.63h-50.11v-33.4l66.81,-33.41h33.41v200.45z" fill="currentColor"/>
			</g>
		</g>
	</g>
</svg>