<svg version="1.1" xmlns="http://www.w3.org/2000/svg" xmlns:xlink="http://www.w3.org/1999/xlink" viewBox="0,0,1024,1024">
	<!-- Color names: teamapps-color-1, teamapps-effect-color-1 -->
	<desc>rotate_right icon - Licensed under Apache License v2.0 (http://www.apache.org/licenses/LICENSE-2.0) - Created with Iconfu.com - Derivative work of Material icons (Copyright Google Inc.)</desc>
	<defs>
		<filter id="filter-fxpWxGaR" x="-9%" y="-8%" width="158%" height="137%" color-interpolation-filters="sRGB">
			<feColorMatrix values="1 0 0 0 0 0 1 0 0 0 0 0 1 0 0 0 0 0 0.17 0" in="SourceGraphic"/>
			<feOffset dx="14.14" dy="14.14"/>
			<feGaussianBlur stdDeviation="11" result="blur0"/>
			<feColorMatrix values="1 0 0 0 0 0 1 0 0 0 0 0 1 0 0 0 0 0 0.25 0" in="SourceGraphic"/>
			<feOffset dx="21.21" dy="21.21"/>
			<feGaussianBlur stdDeviation="20" result="blur1"/>
			<feMerge>
				<feMergeNode in="blur0"/>
				<feMergeNode in="blur1"/>
			</feMerge>
		</filter>
	</defs>
	<g fill="none" fill-rule="nonzero" style="mix-blend-mode: normal">
		<path d="M836.39,552.68c-7.01,57.38 -29.69,112.28 -66.25,159.41c-8.89,11.45 -21.56,19.22 -35.61,22.02c-2.73,14.21 -10.54,27.05 -22.11,36.02c-47.43,36.8 -102.74,58.95 -159.75,65.92c-14.27,1.74 -28.6,-1.71 -40.43,-9.57c-11.95,8.12 -26.53,11.7 -41.04,9.9c-161.57,-20.05 -286.38,-157.45 -286.38,-324.38c0,-148.35 98.81,-273.29 233.85,-313.4v-54.09c0,-24.23 14.59,-46.07 36.98,-55.34c22.38,-9.27 48.15,-4.15 65.28,12.98l152.01,152c12.13,12.13 17.97,28.16 17.52,44.04c10.63,-6.82 23.26,-10.16 36.08,-9.35c17.16,1.08 33.03,9.48 43.57,23.06c36.57,47.13 59.24,102.03 66.25,159.41c1.76,14.38 -1.76,28.8 -9.74,40.68c7.98,11.88 11.5,26.3 9.74,40.68z" fill="#000000" filter="url(#filter-fxpWxGaR)"/>
		<g color="#ffffff" class="teamapps-effect-color-1">
			<path d="M836.39,552.68c-7.01,57.38 -29.69,112.28 -66.25,159.41c-8.89,11.45 -21.56,19.22 -35.61,22.02c-2.73,14.21 -10.54,27.05 -22.11,36.02c-47.43,36.8 -102.74,58.95 -159.75,65.92c-14.27,1.74 -28.6,-1.71 -40.43,-9.57c-11.95,8.12 -26.53,11.7 -41.04,9.9c-161.57,-20.05 -286.38,-157.45 -286.38,-324.38c0,-148.35 98.81,-273.29 233.85,-313.4v-54.09c0,-24.23 14.59,-46.07 36.98,-55.34c22.38,-9.27 48.15,-4.15 65.28,12.98l152.01,152c12.13,12.13 17.97,28.16 17.52,44.04c10.63,-6.82 23.26,-10.16 36.08,-9.35c17.16,1.08 33.03,9.48 43.57,23.06c36.57,47.13 59.24,102.03 66.25,159.41c1.76,14.38 -1.76,28.8 -9.74,40.68c7.98,11.88 11.5,26.3 9.74,40.68z" fill="currentColor"/>
		</g>
		<g>
			<g color="#1565c0" class="teamapps-color-1">
				<path d="M478.59,445.19v-130.63c-94.88,16.04 -167.04,98.22 -167.04,197.44c0,99.22 72.16,181.41 167.04,197.44v67.49c-131.96,-16.37 -233.85,-128.62 -233.85,-264.93c0,-136.3 102.22,-248.56 233.85,-264.93v-102.56l152.01,152zM627.59,674.7l48.11,48.11c-38.75,30.07 -83.85,48.11 -130.29,53.78v-67.49c29.06,-4.67 57.13,-16.36 82.18,-34.41zM709.44,545.41h67.49c-5.68,46.44 -24.05,91.2 -54.12,129.95l-47.44,-47.11c18.04,-25.39 29.4,-53.78 34.08,-82.85zM709.44,478.59c-4.67,-29.06 -16.04,-57.46 -34.08,-82.51l47.44,-47.44c30.07,38.75 48.44,83.51 54.12,129.95z" fill="currentColor"/>
			</g>
		</g>
	</g>
</svg>