<svg version="1.1" xmlns="http://www.w3.org/2000/svg" xmlns:xlink="http://www.w3.org/1999/xlink" viewBox="0,0,1024,1024">
	<!-- Color names: teamapps-color-1, teamapps-effect-color-1 -->
	<desc>settings_input_antenna icon - Licensed under Apache License v2.0 (http://www.apache.org/licenses/LICENSE-2.0) - Created with Iconfu.com - Derivative work of Material icons (Copyright Google Inc.)</desc>
	<defs>
		<clipPath id="clip-ngqo8Per">
			<path d="M26.97,26.97h997.03v997.03h-997.03z"/>
		</clipPath>
		<filter id="filter-S6cTy0YA" x="-7%" y="-7%" width="132%" height="133%" color-interpolation-filters="sRGB">
			<feColorMatrix values="1 0 0 0 0 0 1 0 0 0 0 0 1 0 0 0 0 0 0.17 0" in="SourceGraphic"/>
			<feOffset dx="14.14" dy="14.14"/>
			<feGaussianBlur stdDeviation="11" result="blur0"/>
			<feColorMatrix values="1 0 0 0 0 0 1 0 0 0 0 0 1 0 0 0 0 0 0.25 0" in="SourceGraphic"/>
			<feOffset dx="21.21" dy="21.21"/>
			<feGaussianBlur stdDeviation="20" result="blur1"/>
			<feMerge>
				<feMergeNode in="blur0"/>
				<feMergeNode in="blur1"/>
			</feMerge>
		</filter>
	</defs>
	<g fill="none" fill-rule="nonzero" style="mix-blend-mode: normal">
		<g clip-path="url(#clip-ngqo8Per)">
			<path d="M879.49,571.9h-66.81c-12.37,0 -23.86,-3.75 -33.41,-10.17c-9.54,6.42 -21.04,10.17 -33.41,10.17h-66.82c-12.05,0 -23.26,-3.56 -32.66,-9.68c-8.61,22.97 -22.93,43 -41.07,58.55v53.16l96.37,96.37c23.39,23.39 23.39,61.32 0,84.72l-47.11,47.11c-23.39,23.39 -61.32,23.39 -84.72,0l-57.87,-57.87l-57.87,57.87c-23.39,23.39 -61.32,23.39 -84.72,0l-47.11,-47.11c-23.39,-23.39 -23.39,-61.32 0,-84.72l96.37,-96.37v-53.21c-18.12,-15.58 -32.41,-35.64 -41.02,-58.53c-9.4,6.14 -20.64,9.71 -32.7,9.71h-66.82c-12.37,0 -23.86,-3.75 -33.41,-10.17c-9.54,6.42 -21.04,10.17 -33.41,10.17h-66.81c-33.08,0 -59.9,-26.82 -59.9,-59.9c0,-235.87 191.52,-427.39 427.39,-427.39c235.87,0 427.39,191.52 427.39,427.39c0,33.08 -26.82,59.9 -59.9,59.9z" fill="#000000" filter="url(#filter-S6cTy0YA)"/>
		</g>
		<g color="#ffffff" class="teamapps-effect-color-1">
			<path d="M879.49,571.9h-66.81c-12.37,0 -23.86,-3.75 -33.41,-10.17c-9.54,6.42 -21.04,10.17 -33.41,10.17h-66.82c-12.05,0 -23.26,-3.56 -32.66,-9.68c-8.61,22.97 -22.93,43 -41.07,58.55v53.16l96.37,96.37c23.39,23.39 23.39,61.32 0,84.72l-47.11,47.11c-23.39,23.39 -61.32,23.39 -84.72,0l-57.87,-57.87l-57.87,57.87c-23.39,23.39 -61.32,23.39 -84.72,0l-47.11,-47.11c-23.39,-23.39 -23.39,-61.32 0,-84.72l96.37,-96.37v-53.21c-18.12,-15.58 -32.41,-35.64 -41.02,-58.53c-9.4,6.14 -20.64,9.71 -32.7,9.71h-66.82c-12.37,0 -23.86,-3.75 -33.41,-10.17c-9.54,6.42 -21.04,10.17 -33.41,10.17h-66.81c-33.08,0 -59.9,-26.82 -59.9,-59.9c0,-235.87 191.52,-427.39 427.39,-427.39c235.87,0 427.39,191.52 427.39,427.39c0,33.08 -26.82,59.9 -59.9,59.9z" fill="currentColor"/>
		</g>
		<g>
			<g color="#1565c0" class="teamapps-color-1">
				<path d="M879.49,512h-66.81c0,-166.04 -134.64,-300.67 -300.67,-300.67c-166.04,0 -300.67,134.64 -300.67,300.67h-66.81c0,-202.79 164.7,-367.49 367.49,-367.49c202.79,0 367.49,164.7 367.49,367.49zM545.41,698.75l113.92,113.92l-47.11,47.11l-100.22,-100.22l-100.22,100.22l-47.11,-47.11l113.92,-113.92v-110.25c-29.4,-13.03 -50.11,-42.43 -50.11,-76.51c0,-46.1 37.42,-83.52 83.52,-83.52c46.1,0 83.52,37.42 83.52,83.52c0,34.41 -20.71,63.48 -50.11,76.51zM745.86,512h-66.82c0,-92.21 -74.83,-167.04 -167.04,-167.04c-92.21,0 -167.04,74.83 -167.04,167.04h-66.82c0,-129.29 104.57,-233.86 233.86,-233.86c129.29,0 233.86,104.57 233.86,233.86z" fill="currentColor"/>
			</g>
		</g>
	</g>
</svg>