<svg version="1.1" xmlns="http://www.w3.org/2000/svg" xmlns:xlink="http://www.w3.org/1999/xlink" viewBox="0,0,1024,1024">
	<!-- Color names: teamapps-color-1, teamapps-effect-color-1 -->
	<desc>shopping_basket icon - Licensed under Apache License v2.0 (http://www.apache.org/licenses/LICENSE-2.0) - Created with Iconfu.com - Derivative work of Material icons (Copyright Google Inc.)</desc>
	<defs>
		<clipPath id="clip-AMD7R2b3">
			<path d="M26.97,1000.93v-939.89h997.03v939.89z"/>
		</clipPath>
		<filter id="filter-7gc8DG0T" x="-7%" y="-8%" width="132%" height="141%" color-interpolation-filters="sRGB">
			<feColorMatrix values="1 0 0 0 0 0 1 0 0 0 0 0 1 0 0 0 0 0 0.17 0" in="SourceGraphic"/>
			<feOffset dx="14.14" dy="14.14"/>
			<feGaussianBlur stdDeviation="11" result="blur0"/>
			<feColorMatrix values="1 0 0 0 0 0 1 0 0 0 0 0 1 0 0 0 0 0 0.25 0" in="SourceGraphic"/>
			<feOffset dx="21.21" dy="21.21"/>
			<feGaussianBlur stdDeviation="20" result="blur1"/>
			<feMerge>
				<feMergeNode in="blur0"/>
				<feMergeNode in="blur1"/>
			</feMerge>
		</filter>
	</defs>
	<g fill="none" fill-rule="nonzero" style="mix-blend-mode: normal">
		<g clip-path="url(#clip-AMD7R2b3)">
			<path d="M846.08,351.87c51.48,0 93.31,41.87 93.31,93.31l-1.34,15.38c-0.29,2.78 -0.81,5.53 -1.55,8.22l-85.25,311.48c-15.06,52.72 -63.53,92.3 -122.1,92.3h-434.3c-58.37,0 -107.29,-39.39 -121.92,-92.86l-84.56,-308.59c-3.05,-10 -3.76,-19.02 -3.76,-25.94c0,-51.44 41.83,-93.31 93.31,-93.31h128.02l128.42,-192.05c19.16,-28.99 50.2,-41.13 77.64,-41.13c27.31,0 58.09,12 77.29,40.3l128.79,192.89z" fill="#000000" filter="url(#filter-7gc8DG0T)"/>
		</g>
		<g color="#ffffff" class="teamapps-effect-color-1">
			<path d="M846.08,351.87c51.48,0 93.31,41.87 93.31,93.31l-1.34,15.38c-0.29,2.78 -0.81,5.53 -1.55,8.22l-85.25,311.48c-15.06,52.72 -63.53,92.3 -122.1,92.3h-434.3c-58.37,0 -107.29,-39.39 -121.92,-92.86l-84.56,-308.59c-3.05,-10 -3.76,-19.02 -3.76,-25.94c0,-51.44 41.83,-93.31 93.31,-93.31h128.02l128.42,-192.05c19.16,-28.99 50.2,-41.13 77.64,-41.13c27.31,0 58.09,12 77.29,40.3l128.79,192.89z" fill="currentColor"/>
		</g>
		<g>
			<g color="#1565c0" class="teamapps-color-1">
				<path d="M846.08,411.78c18.38,0 33.4,15.03 33.4,33.41l-1,9.02l-84.85,309.69c-8.02,28.06 -33.75,48.77 -64.48,48.77h-434.3c-30.73,0 -56.46,-20.71 -64.14,-48.77l-84.86,-309.69c-1,-3.01 -1.33,-6.01 -1.33,-9.02c0,-18.38 15.03,-33.41 33.4,-33.41h160.03l146.33,-218.83c6.35,-9.69 17.04,-14.36 27.73,-14.36c10.69,0 21.38,4.67 27.73,14.03l146.33,219.15zM612.22,411.78l-100.22,-146.99l-100.22,146.99zM578.81,612.22c0,-36.75 -30.07,-66.81 -66.81,-66.81c-36.75,0 -66.81,30.07 -66.81,66.81c0,36.75 30.07,66.81 66.81,66.81c36.75,0 66.81,-30.07 66.81,-66.81z" fill="currentColor"/>
			</g>
		</g>
	</g>
</svg>