<svg version="1.1" xmlns="http://www.w3.org/2000/svg" xmlns:xlink="http://www.w3.org/1999/xlink" viewBox="0,0,1024,1024">
	<!-- Color names: teamapps-color-1, teamapps-effect-color-1 -->
	<desc>shuffle icon - Licensed under Apache License v2.0 (http://www.apache.org/licenses/LICENSE-2.0) - Created with Iconfu.com - Derivative work of Material icons (Copyright Google Inc.)</desc>
	<defs>
		<filter id="filter-l7ANIbqN" x="-9%" y="-9%" width="157%" height="157%" color-interpolation-filters="sRGB">
			<feColorMatrix values="1 0 0 0 0 0 1 0 0 0 0 0 1 0 0 0 0 0 0.17 0" in="SourceGraphic"/>
			<feOffset dx="14.14" dy="14.14"/>
			<feGaussianBlur stdDeviation="11" result="blur0"/>
			<feColorMatrix values="1 0 0 0 0 0 1 0 0 0 0 0 1 0 0 0 0 0 0.25 0" in="SourceGraphic"/>
			<feOffset dx="21.21" dy="21.21"/>
			<feGaussianBlur stdDeviation="20" result="blur1"/>
			<feMerge>
				<feMergeNode in="blur0"/>
				<feMergeNode in="blur1"/>
			</feMerge>
		</filter>
	</defs>
	<g fill="none" fill-rule="nonzero" style="mix-blend-mode: normal">
		<path d="M839.17,244.74v183.74c0,24.23 -14.6,46.07 -36.98,55.34c-22.38,9.27 -48.15,4.15 -65.28,-12.99l-25.81,-25.81l-67.25,67.2c1.75,1.4 3.44,2.91 5.06,4.53l62.2,62.21l25.79,-25.79c17.13,-17.13 42.9,-22.26 65.28,-12.99c22.38,9.27 36.98,31.12 36.98,55.34v183.74c0,33.08 -26.82,59.9 -59.9,59.9h-183.74c-24.23,0 -46.07,-14.6 -55.34,-36.98c-9.27,-22.38 -4.15,-48.15 12.99,-65.28l26.12,-26.12l-62.21,-62.21c-1.64,-1.64 -3.16,-3.35 -4.57,-5.12l-178.33,178.19c-23.4,23.38 -61.31,23.37 -84.7,-0.02l-47.11,-47.11c-23.39,-23.39 -23.39,-61.3 -0.02,-84.7l178.04,-178.18c-1.84,-1.45 -3.61,-3.02 -5.31,-4.72l-172.71,-172.71c-23.39,-23.39 -23.39,-61.32 0,-84.72l47.11,-47.11c23.38,-23.38 61.28,-23.4 84.68,-0.04l173.05,172.71c1.64,1.63 3.16,3.34 4.57,5.1l67.2,-67.25l-25.81,-25.81c-17.13,-17.13 -22.26,-42.9 -12.99,-65.28c9.27,-22.38 31.12,-36.98 55.34,-36.98h183.74c33.08,0 59.9,26.82 59.9,59.9z" fill="#000000" filter="url(#filter-l7ANIbqN)"/>
		<g color="#ffffff" class="teamapps-effect-color-1">
			<path d="M839.17,244.74v183.74c0,24.23 -14.6,46.07 -36.98,55.34c-22.38,9.27 -48.15,4.15 -65.28,-12.99l-25.81,-25.81l-67.25,67.2c1.75,1.4 3.44,2.91 5.06,4.53l62.2,62.21l25.79,-25.79c17.13,-17.13 42.9,-22.26 65.28,-12.99c22.38,9.27 36.98,31.12 36.98,55.34v183.74c0,33.08 -26.82,59.9 -59.9,59.9h-183.74c-24.23,0 -46.07,-14.6 -55.34,-36.98c-9.27,-22.38 -4.15,-48.15 12.99,-65.28l26.12,-26.12l-62.21,-62.21c-1.64,-1.64 -3.16,-3.35 -4.57,-5.12l-178.33,178.19c-23.4,23.38 -61.31,23.37 -84.7,-0.02l-47.11,-47.11c-23.39,-23.39 -23.39,-61.3 -0.02,-84.7l178.04,-178.18c-1.84,-1.45 -3.61,-3.02 -5.31,-4.72l-172.71,-172.71c-23.39,-23.39 -23.39,-61.32 0,-84.72l47.11,-47.11c23.38,-23.38 61.28,-23.4 84.68,-0.04l173.05,172.71c1.64,1.63 3.16,3.34 4.57,5.1l67.2,-67.25l-25.81,-25.81c-17.13,-17.13 -22.26,-42.9 -12.99,-65.28c9.27,-22.38 31.12,-36.98 55.34,-36.98h183.74c33.08,0 59.9,26.82 59.9,59.9z" fill="currentColor"/>
		</g>
		<g>
			<g color="#1565c0" class="teamapps-color-1">
				<path d="M779.26,244.74v183.74l-68.15,-68.15l-419.27,418.94l-47.11,-47.11l418.94,-419.27l-68.15,-68.15zM417.45,464.56l-172.71,-172.71l47.11,-47.11l173.05,172.71zM711.11,663.67l68.15,-68.15v183.74h-183.74l68.48,-68.48l-104.56,-104.57l47.11,-47.11z" fill="currentColor"/>
			</g>
		</g>
	</g>
</svg>