<svg version="1.1" xmlns="http://www.w3.org/2000/svg" xmlns:xlink="http://www.w3.org/1999/xlink" viewBox="0,0,1024,1024">
	<!-- Color names: teamapps-color-1, teamapps-effect-color-1 -->
	<desc>system_update_alt icon - Licensed under Apache License v2.0 (http://www.apache.org/licenses/LICENSE-2.0) - Created with Iconfu.com - Derivative work of Material icons (Copyright Google Inc.)</desc>
	<defs>
		<clipPath id="clip-fhqO5vZu">
			<path d="M26.97,1017.63v-907.15h997.03v907.15z"/>
		</clipPath>
		<filter id="filter-DeDa2Fbk" x="-7%" y="-8%" width="132%" height="150%" color-interpolation-filters="sRGB">
			<feColorMatrix values="1 0 0 0 0 0 1 0 0 0 0 0 1 0 0 0 0 0 0.17 0" in="SourceGraphic"/>
			<feOffset dx="14.14" dy="14.14"/>
			<feGaussianBlur stdDeviation="11" result="blur0"/>
			<feColorMatrix values="1 0 0 0 0 0 1 0 0 0 0 0 1 0 0 0 0 0 0.25 0" in="SourceGraphic"/>
			<feOffset dx="21.21" dy="21.21"/>
			<feGaussianBlur stdDeviation="20" result="blur1"/>
			<feMerge>
				<feMergeNode in="blur0"/>
				<feMergeNode in="blur1"/>
			</feMerge>
		</filter>
	</defs>
	<g fill="none" fill-rule="nonzero" style="mix-blend-mode: normal">
		<g clip-path="url(#clip-fhqO5vZu)">
			<path d="M939.39,294.85v467.71c0,69.83 -56.89,126.72 -126.72,126.72h-601.34c-69.83,0 -126.72,-56.89 -126.72,-126.72v-467.71c0,-69.82 56.88,-126.73 126.72,-126.73h200.45c12.37,0 23.86,3.75 33.41,10.17c9.54,-6.42 21.04,-10.17 33.41,-10.17h66.82c12.37,0 23.86,3.75 33.41,10.17c9.54,-6.42 21.04,-10.17 33.41,-10.17h200.45c69.84,0 126.72,56.9 126.72,126.73z" fill="#000000" filter="url(#filter-DeDa2Fbk)"/>
		</g>
		<g color="#ffffff" class="teamapps-effect-color-1">
			<path d="M939.39,294.85v467.71c0,69.83 -56.89,126.72 -126.72,126.72h-601.34c-69.83,0 -126.72,-56.89 -126.72,-126.72v-467.71c0,-69.82 56.88,-126.73 126.72,-126.73h200.45c12.37,0 23.86,3.75 33.41,10.17c9.54,-6.42 21.04,-10.17 33.41,-10.17h66.82c12.37,0 23.86,3.75 33.41,10.17c9.54,-6.42 21.04,-10.17 33.41,-10.17h200.45c69.84,0 126.72,56.9 126.72,126.73z" fill="currentColor"/>
		</g>
		<g>
			<g color="#1565c0" class="teamapps-color-1">
				<path d="M879.49,294.85v467.71c0,36.75 -30.07,66.81 -66.81,66.81h-601.34c-36.75,0 -66.81,-30.07 -66.81,-66.81v-467.71c0,-36.75 30.07,-66.82 66.81,-66.82h200.45v66.48h-200.45v468.71h601.34v-468.71h-200.45v-66.48h200.45c36.75,0 66.81,30.08 66.81,66.82zM378.37,528.7h100.22v-300.67h66.82v300.67h100.22l-133.63,133.63z" fill="currentColor"/>
			</g>
		</g>
	</g>
</svg>