<svg version="1.1" xmlns="http://www.w3.org/2000/svg" xmlns:xlink="http://www.w3.org/1999/xlink" viewBox="0,0,1024,1024">
	<!-- Color names: teamapps-color-1, teamapps-effect-color-1 -->
	<desc>view_compact icon - Licensed under Apache License v2.0 (http://www.apache.org/licenses/LICENSE-2.0) - Created with Iconfu.com - Derivative work of Material icons (Copyright Google Inc.)</desc>
	<defs>
		<clipPath id="clip-8nAfs8cg">
			<path d="M93.78,934.12v-773.53h930.22v773.53z"/>
		</clipPath>
		<filter id="filter-KICYC9OB" x="-8%" y="-10%" width="146%" height="169%" color-interpolation-filters="sRGB">
			<feColorMatrix values="1 0 0 0 0 0 1 0 0 0 0 0 1 0 0 0 0 0 0.17 0" in="SourceGraphic"/>
			<feOffset dx="14.14" dy="14.14"/>
			<feGaussianBlur stdDeviation="11" result="blur0"/>
			<feColorMatrix values="1 0 0 0 0 0 1 0 0 0 0 0 1 0 0 0 0 0 0.25 0" in="SourceGraphic"/>
			<feOffset dx="21.21" dy="21.21"/>
			<feGaussianBlur stdDeviation="20" result="blur1"/>
			<feMerge>
				<feMergeNode in="blur0"/>
				<feMergeNode in="blur1"/>
			</feMerge>
		</filter>
	</defs>
	<g fill="none" fill-rule="nonzero" style="mix-blend-mode: normal">
		<g clip-path="url(#clip-8nAfs8cg)">
			<path d="M905.99,278.14v200.45c0,5.8 -0.82,11.4 -2.36,16.71c1.54,5.3 2.36,10.91 2.36,16.71v233.86c0,33.08 -26.82,59.9 -59.9,59.9h-400.9c-5.8,0 -11.4,-0.82 -16.71,-2.36c-5.3,1.54 -10.91,2.36 -16.71,2.36h-200.45c-33.08,0 -59.9,-26.82 -59.9,-59.9v-233.86c0,-5.8 0.82,-11.4 2.36,-16.71c-1.54,-5.3 -2.36,-10.91 -2.36,-16.71v-200.45c0,-33.08 26.82,-59.9 59.9,-59.9h634.75c33.08,0 59.9,26.82 59.9,59.9z" fill="#000000" filter="url(#filter-KICYC9OB)"/>
		</g>
		<g color="#ffffff" class="teamapps-effect-color-1">
			<path d="M905.99,278.14v200.45c0,5.8 -0.82,11.4 -2.36,16.71c1.54,5.3 2.36,10.91 2.36,16.71v233.86c0,33.08 -26.82,59.9 -59.9,59.9h-400.9c-5.8,0 -11.4,-0.82 -16.71,-2.36c-5.3,1.54 -10.91,2.36 -16.71,2.36h-200.45c-33.08,0 -59.9,-26.82 -59.9,-59.9v-233.86c0,-5.8 0.82,-11.4 2.36,-16.71c-1.54,-5.3 -2.36,-10.91 -2.36,-16.71v-200.45c0,-33.08 26.82,-59.9 59.9,-59.9h634.75c33.08,0 59.9,26.82 59.9,59.9z" fill="currentColor"/>
		</g>
		<g>
			<g color="#1565c0" class="teamapps-color-1">
				<path d="M846.08,278.14v200.45h-634.75v-200.45zM445.19,512h400.9v233.86h-400.9zM211.33,512h200.45v233.86h-200.45z" fill="currentColor"/>
			</g>
		</g>
	</g>
</svg>