<svg version="1.1" xmlns="http://www.w3.org/2000/svg" xmlns:xlink="http://www.w3.org/1999/xlink" viewBox="0,0,1024,1024">
	<!-- Color names: teamapps-color-1, teamapps-effect-color-1 -->
	<desc>visibility icon - Licensed under Apache License v2.0 (http://www.apache.org/licenses/LICENSE-2.0) - Created with Iconfu.com - Derivative work of Material icons (Copyright Google Inc.)</desc>
	<defs>
		<clipPath id="clip-NaLwiaSb">
			<path d="M26.97,950.82v-806.93h997.03v806.93z"/>
		</clipPath>
		<filter id="filter-1gbtFAny" x="-7%" y="-10%" width="132%" height="164%" color-interpolation-filters="sRGB">
			<feColorMatrix values="1 0 0 0 0 0 1 0 0 0 0 0 1 0 0 0 0 0 0.17 0" in="SourceGraphic"/>
			<feOffset dx="14.14" dy="14.14"/>
			<feGaussianBlur stdDeviation="11" result="blur0"/>
			<feColorMatrix values="1 0 0 0 0 0 1 0 0 0 0 0 1 0 0 0 0 0 0.25 0" in="SourceGraphic"/>
			<feOffset dx="21.21" dy="21.21"/>
			<feGaussianBlur stdDeviation="20" result="blur1"/>
			<feMerge>
				<feMergeNode in="blur0"/>
				<feMergeNode in="blur1"/>
			</feMerge>
		</filter>
	</defs>
	<g fill="none" fill-rule="nonzero" style="mix-blend-mode: normal">
		<g clip-path="url(#clip-NaLwiaSb)">
			<path d="M935.22,533.96c-66.47,168.69 -230.66,288.5 -423.22,288.5c-192.56,0 -356.74,-119.81 -423.22,-288.5c-5.56,-14.11 -5.56,-29.81 0,-43.92c66.47,-168.69 230.66,-288.5 423.22,-288.5c192.56,0 356.74,119.81 423.22,288.5c5.56,14.11 5.56,29.81 0,43.92z" fill="#000000" filter="url(#filter-1gbtFAny)"/>
		</g>
		<g color="#ffffff" class="teamapps-effect-color-1">
			<path d="M935.22,533.96c-66.47,168.69 -230.66,288.5 -423.22,288.5c-192.56,0 -356.74,-119.81 -423.22,-288.5c-5.56,-14.11 -5.56,-29.81 0,-43.92c66.47,-168.69 230.66,-288.5 423.22,-288.5c192.56,0 356.74,119.81 423.22,288.5c5.56,14.11 5.56,29.81 0,43.92z" fill="currentColor"/>
		</g>
		<g>
			<g color="#1565c0" class="teamapps-color-1">
				<path d="M879.49,512c-57.79,146.66 -200.45,250.56 -367.49,250.56c-167.04,0 -309.69,-103.9 -367.49,-250.56c57.79,-146.66 200.45,-250.56 367.49,-250.56c167.04,0 309.69,103.9 367.49,250.56zM679.04,512c0,-92.21 -74.83,-167.04 -167.04,-167.04c-92.21,0 -167.04,74.83 -167.04,167.04c0,92.21 74.83,167.04 167.04,167.04c92.21,0 167.04,-74.83 167.04,-167.04zM612.22,512c0,55.46 -44.76,100.22 -100.22,100.22c-55.46,0 -100.22,-44.76 -100.22,-100.22c0,-55.46 44.76,-100.22 100.22,-100.22c55.46,0 100.22,44.76 100.22,100.22z" fill="currentColor"/>
			</g>
		</g>
	</g>
</svg>