<svg version="1.1" xmlns="http://www.w3.org/2000/svg" xmlns:xlink="http://www.w3.org/1999/xlink" viewBox="0,0,1024,1024">
	<!-- Color names: teamapps-color-1, teamapps-effect-color-1 -->
	<desc>visibility_off icon - Licensed under Apache License v2.0 (http://www.apache.org/licenses/LICENSE-2.0) - Created with Iconfu.com - Derivative work of Material icons (Copyright Google Inc.)</desc>
	<defs>
		<clipPath id="clip-UequQ0sB">
			<path d="M26.97,93.78h997.03v930.22h-997.03z"/>
		</clipPath>
		<filter id="filter-BsInpFew" x="-7%" y="-8%" width="132%" height="146%" color-interpolation-filters="sRGB">
			<feColorMatrix values="1 0 0 0 0 0 1 0 0 0 0 0 1 0 0 0 0 0 0.17 0" in="SourceGraphic"/>
			<feOffset dx="14.14" dy="14.14"/>
			<feGaussianBlur stdDeviation="11" result="blur0"/>
			<feColorMatrix values="1 0 0 0 0 0 1 0 0 0 0 0 1 0 0 0 0 0 0.25 0" in="SourceGraphic"/>
			<feOffset dx="21.21" dy="21.21"/>
			<feGaussianBlur stdDeviation="20" result="blur1"/>
			<feMerge>
				<feMergeNode in="blur0"/>
				<feMergeNode in="blur1"/>
			</feMerge>
		</filter>
	</defs>
	<g fill="none" fill-rule="nonzero" style="mix-blend-mode: normal">
		<g clip-path="url(#clip-UequQ0sB)">
			<path d="M262.71,168.97l73.57,73.57c6.12,-6.14 13.59,-10.97 21.99,-14.02c47.77,-17.34 99.44,-26.98 153.4,-26.98c192.56,0 356.75,119.81 423.23,288.5c5.55,14.09 5.56,29.75 0.03,43.85c-27.47,69.98 -71.79,131.42 -127.92,179.37l48.03,48.03c23.39,23.39 23.39,61.32 0,84.72l-42.43,42.43c-23.37,23.37 -61.25,23.4 -84.65,0.06l-85.37,-85.12c-41.33,12.39 -85.21,19.08 -130.57,19.08c-192.56,0 -356.74,-119.81 -423.22,-288.5c-5.56,-14.11 -5.56,-29.81 0,-43.92c21.67,-55 53.73,-104.75 93.88,-146.83l-47.09,-47.09c-23.4,-23.39 -23.4,-61.32 0,-84.72l42.43,-42.43c23.39,-23.39 61.32,-23.39 84.72,0z" fill="#000000" filter="url(#filter-BsInpFew)"/>
		</g>
		<g color="#ffffff" class="teamapps-effect-color-1">
			<path d="M262.71,168.97l73.57,73.57c6.12,-6.14 13.59,-10.97 21.99,-14.02c47.77,-17.34 99.44,-26.98 153.4,-26.98c192.56,0 356.75,119.81 423.23,288.5c5.55,14.09 5.56,29.75 0.03,43.85c-27.47,69.98 -71.79,131.42 -127.92,179.37l48.03,48.03c23.39,23.39 23.39,61.32 0,84.72l-42.43,42.43c-23.37,23.37 -61.25,23.4 -84.65,0.06l-85.37,-85.12c-41.33,12.39 -85.21,19.08 -130.57,19.08c-192.56,0 -356.74,-119.81 -423.22,-288.5c-5.56,-14.11 -5.56,-29.81 0,-43.92c21.67,-55 53.73,-104.75 93.88,-146.83l-47.09,-47.09c-23.4,-23.39 -23.4,-61.32 0,-84.72l42.43,-42.43c23.39,-23.39 61.32,-23.39 84.72,0z" fill="currentColor"/>
		</g>
		<g>
			<g color="#1565c0" class="teamapps-color-1">
				<path d="M220.35,211.33l592.32,592.32l-42.43,42.43l-97.88,-97.55l-14.03,-14.03c-45.1,18.04 -94.55,28.06 -146.33,28.06c-167.04,0 -309.69,-103.9 -367.49,-250.56c26.06,-66.15 69.48,-123.61 124.94,-166.71l-15.37,-15.36l-76.17,-76.17zM450.86,356.99l-72.16,-72.16c41.43,-15.03 86.19,-23.39 132.96,-23.39c167.04,0 309.7,103.9 367.49,250.56c-24.39,62.14 -64.14,116.6 -114.59,158.69l-97.55,-97.55c7.68,-19.04 12.03,-39.42 12.03,-61.14c0,-92.21 -74.83,-167.04 -167.04,-167.04c-21.71,0 -42.09,4.35 -61.14,12.03zM344.96,512c0,92.21 74.83,167.04 167.04,167.04c26.39,0 51.11,-6.68 73.5,-17.7l-51.79,-51.78c-7.02,1.67 -14.36,2.67 -21.71,2.67c-55.46,0 -100.22,-44.76 -100.22,-100.22c0,-7.35 1,-14.7 2.67,-21.71l-51.78,-51.79c-11.02,22.39 -17.7,47.11 -17.7,73.5zM512.34,412.11c55.46,0 100.22,44.76 100.22,100.22l-0.67,5.34l-105.24,-105.24z" fill="currentColor"/>
			</g>
		</g>
	</g>
</svg>