<svg version="1.1" xmlns="http://www.w3.org/2000/svg" xmlns:xlink="http://www.w3.org/1999/xlink" viewBox="0,0,1024,1024">
	<!-- Color names: teamapps-color-1, teamapps-effect-color-1 -->
	<desc>volume_mute icon - Licensed under Apache License v2.0 (http://www.apache.org/licenses/LICENSE-2.0) - Created with Iconfu.com - Derivative work of Material icons (Copyright Google Inc.)</desc>
	<defs>
		<filter id="filter-CVZetUlT" x="-14%" y="-9%" width="213%" height="157%" color-interpolation-filters="sRGB">
			<feColorMatrix values="1 0 0 0 0 0 1 0 0 0 0 0 1 0 0 0 0 0 0.17 0" in="SourceGraphic"/>
			<feOffset dx="14.14" dy="14.14"/>
			<feGaussianBlur stdDeviation="11" result="blur0"/>
			<feColorMatrix values="1 0 0 0 0 0 1 0 0 0 0 0 1 0 0 0 0 0 0.25 0" in="SourceGraphic"/>
			<feOffset dx="21.21" dy="21.21"/>
			<feGaussianBlur stdDeviation="20" result="blur1"/>
			<feMerge>
				<feMergeNode in="blur0"/>
				<feMergeNode in="blur1"/>
			</feMerge>
		</filter>
	</defs>
	<g fill="none" fill-rule="nonzero" style="mix-blend-mode: normal">
		<path d="M603.28,202.38c17.13,-17.13 42.9,-22.26 65.28,-12.98c22.38,9.27 36.98,31.12 36.98,55.34v534.52c0,24.23 -14.59,46.07 -36.98,55.34c-22.38,9.27 -48.15,4.15 -65.28,-12.98l-149.5,-149.49h-108.81c-33.08,0 -59.9,-26.82 -59.9,-59.9v-200.45c0,-33.08 26.82,-59.9 59.9,-59.9h108.81z" fill="#000000" filter="url(#filter-CVZetUlT)"/>
		<g color="#ffffff" class="teamapps-effect-color-1">
			<path d="M603.28,202.38c17.13,-17.13 42.9,-22.26 65.28,-12.98c22.38,9.27 36.98,31.12 36.98,55.34v534.52c0,24.23 -14.59,46.07 -36.98,55.34c-22.38,9.27 -48.15,4.15 -65.28,-12.98l-149.5,-149.49h-108.81c-33.08,0 -59.9,-26.82 -59.9,-59.9v-200.45c0,-33.08 26.82,-59.9 59.9,-59.9h108.81z" fill="currentColor"/>
		</g>
		<g>
			<g color="#1565c0" class="teamapps-color-1">
				<path d="M478.59,411.78l167.05,-167.04v534.52l-167.05,-167.04h-133.63v-200.45z" fill="currentColor"/>
			</g>
		</g>
	</g>
</svg>