<svg version="1.1" xmlns="http://www.w3.org/2000/svg" xmlns:xlink="http://www.w3.org/1999/xlink" viewBox="0,0,1024,1024">
	<!-- Color names: teamapps-color-1, teamapps-color-2, teamapps-color-3 -->
	<desc>airline_seat_recline_extra icon - Licensed under Apache License v2.0 (http://www.apache.org/licenses/LICENSE-2.0) - Created with Iconfu.com - Derivative work of Material icons (Copyright Google Inc.)</desc>
	<defs>
		<radialGradient cx="0" cy="0" r="1448.15" id="color-dBpkFTuC" gradientUnits="userSpaceOnUse">
			<stop offset="0.08" stop-color="#ffffff"/>
			<stop offset="1" stop-color="#000000"/>
		</radialGradient>
		<linearGradient x1="0" y1="1024" x2="1024" y2="0" id="color-KmIAaAjU" gradientUnits="userSpaceOnUse">
			<stop offset="0.2" stop-color="#000000"/>
			<stop offset="0.8" stop-color="#ffffff"/>
		</linearGradient>
		<filter id="filter-yvcVpjKi" color-interpolation-filters="sRGB">
			<feOffset/>
		</filter>
		<mask id="mask-FIPuVLJc">
			<path d="M935.44,834.1l-60.8,60.8c-9.16,9.16 -23.72,10.03 -33.91,2.03l-143.85,-112.97c1.83,3.52 2.86,7.53 2.86,11.77v81.06c0,14.14 -11.46,25.6 -25.6,25.6h-286.17c-112.54,0 -208.25,-81.87 -225.84,-192.92l-80.55,-395.03c-1.54,-7.53 0.39,-15.35 5.26,-21.31c4.86,-5.95 12.14,-9.41 19.83,-9.41h81.07c12.13,0 22.59,8.51 25.06,20.38l13.92,66.85c8.89,-33.44 32.4,-61.87 64.48,-76.65c-21.81,0.48 -43.96,-5.67 -63.31,-19.07c-0.06,-0.04 -0.12,-0.09 -0.18,-0.13c-47.84,-34.03 -59.71,-100.11 -26.16,-148.58c33.7,-48.14 100.36,-59.81 148.71,-26.34c0.06,0.04 0.12,0.09 0.18,0.13c47.84,34.03 59.71,100.11 26.16,148.58c-0.04,0.06 -0.09,0.12 -0.13,0.18c-10.93,15.37 -25.18,27.03 -41.09,34.67c12.78,-0.48 25.27,1.33 36.83,4.58c0.08,0.02 0.15,0.04 0.23,0.07c13.28,3.93 26.98,10.1 39.36,19.77l66.55,51.54c45.95,36.02 111.97,56.61 169.52,45.66c7.49,-1.43 15.23,0.56 21.11,5.43c5.88,4.86 9.28,12.09 9.28,19.72v86.34c0,12.47 -8.99,23.13 -21.28,25.23c-63.45,10.85 -121.69,-3.22 -174.57,-26.56l23.23,92.46h177.84c5.7,0 11.25,1.91 15.74,5.41l233.88,182.4c5.79,4.51 9.36,11.29 9.81,18.61c0.45,7.32 -2.26,14.49 -7.45,19.68zM359.77,766.04c-24.79,-12.06 -45.81,-30.94 -60.54,-54.48c11.01,26.24 33.33,46.25 60.54,54.48zM683.46,633.6h-197.8l-41.75,-166.18c64.04,36.07 132.94,62.42 208.74,49.45v-86.34c-66.07,12.57 -139.43,-10.94 -190.1,-50.66l-66.48,-51.48c-9.32,-7.3 -19.86,-12.16 -30.8,-15.4c-12.97,-3.65 -26.75,-4.86 -40.13,-2.43h-0.82c-49.86,8.92 -83.09,56.34 -74.57,105.79l54.72,239.95c11.35,57.56 61.2,98.9 119.57,98.9h277.66l154.84,121.6l60.8,-60.8zM674.14,795.74h-286.58c-59.99,0 -111.05,-43.79 -119.98,-102.96l-79.85,-383.44h-81.07l80.66,395.6c15.4,98.9 100.52,171.86 200.64,171.86h286.17zM355.54,234.34c25.54,-36.89 16.62,-87.14 -19.86,-113.09c-36.89,-25.54 -87.55,-16.62 -113.09,19.86c-25.54,36.89 -16.62,87.14 19.86,113.09c36.89,25.54 87.14,16.62 113.09,-19.86z" fill="#ffffff"/>
		</mask>
		<mask id="mask-I51x091H">
			<rect fill="url(#color-KmIAaAjU)" x="81.06" y="81.13" width="861.87" height="821.27"/>
		</mask>
		<mask id="mask-KRulo4mL">
			<path d="M935.44,834.1l-60.8,60.8c-9.16,9.16 -23.72,10.03 -33.91,2.03l-143.85,-112.97c1.83,3.52 2.86,7.53 2.86,11.77v81.06c0,14.14 -11.46,25.6 -25.6,25.6h-286.17c-112.54,0 -208.25,-81.87 -225.84,-192.92l-80.55,-395.03c-1.54,-7.53 0.39,-15.35 5.26,-21.31c4.86,-5.95 12.14,-9.41 19.83,-9.41h81.07c12.13,0 22.59,8.51 25.06,20.38l13.92,66.85c8.89,-33.44 32.4,-61.87 64.48,-76.65c-21.81,0.48 -43.96,-5.67 -63.31,-19.07c-0.06,-0.04 -0.12,-0.09 -0.18,-0.13c-47.84,-34.03 -59.71,-100.11 -26.16,-148.58c33.7,-48.14 100.36,-59.81 148.71,-26.34c0.06,0.04 0.12,0.09 0.18,0.13c47.84,34.03 59.71,100.11 26.16,148.58c-0.04,0.06 -0.09,0.12 -0.13,0.18c-10.93,15.37 -25.18,27.03 -41.09,34.67c12.78,-0.48 25.27,1.33 36.83,4.58c0.08,0.02 0.15,0.04 0.23,0.07c13.28,3.93 26.98,10.1 39.36,19.77l66.55,51.54c45.95,36.02 111.97,56.61 169.52,45.66c7.49,-1.43 15.23,0.56 21.11,5.43c5.88,4.86 9.28,12.09 9.28,19.72v86.34c0,12.47 -8.99,23.13 -21.28,25.23c-63.45,10.85 -121.69,-3.22 -174.57,-26.56l23.23,92.46h177.84c5.7,0 11.25,1.91 15.74,5.41l233.88,182.4c5.79,4.51 9.36,11.29 9.81,18.61c0.45,7.32 -2.26,14.49 -7.45,19.68zM359.77,766.04c-24.79,-12.06 -45.81,-30.94 -60.54,-54.48c11.01,26.24 33.33,46.25 60.54,54.48zM683.46,633.6h-197.8l-41.75,-166.18c64.04,36.07 132.94,62.42 208.74,49.45v-86.34c-66.07,12.57 -139.43,-10.94 -190.1,-50.66l-66.48,-51.48c-9.32,-7.3 -19.86,-12.16 -30.8,-15.4c-12.97,-3.65 -26.75,-4.86 -40.13,-2.43h-0.82c-49.86,8.92 -83.09,56.34 -74.57,105.79l54.72,239.95c11.35,57.56 61.2,98.9 119.57,98.9h277.66l154.84,121.6l60.8,-60.8zM674.14,795.74h-286.58c-59.99,0 -111.05,-43.79 -119.98,-102.96l-79.85,-383.44h-81.07l80.66,395.6c15.4,98.9 100.52,171.86 200.64,171.86h286.17zM355.54,234.34c25.54,-36.89 16.62,-87.14 -19.86,-113.09c-36.89,-25.54 -87.55,-16.62 -113.09,19.86c-25.54,36.89 -16.62,87.14 19.86,113.09c36.89,25.54 87.14,16.62 113.09,-19.86z" fill="url(#color-dBpkFTuC)"/>
		</mask>
	</defs>
	<g fill="none" fill-rule="nonzero" style="mix-blend-mode: normal">
		<g mask="url(#mask-FIPuVLJc)">
			<g color="#ff0000" class="teamapps-color-2">
				<rect x="81.06" y="81.13" width="861.87" height="821.27" fill="currentColor"/>
			</g>
			<g color="#bc13e0" class="teamapps-color-3" mask="url(#mask-I51x091H)">
				<rect x="81.06" y="81.13" width="861.87" height="821.27" fill="currentColor"/>
			</g>
		</g>
		<g filter="url(#filter-yvcVpjKi)" mask="url(#mask-KRulo4mL)">
			<g color="#fff961" class="teamapps-color-1">
				<rect x="81.06" y="81.13" width="861.87" height="821.27" fill="currentColor"/>
			</g>
		</g>
	</g>
</svg>