<svg version="1.1" xmlns="http://www.w3.org/2000/svg" xmlns:xlink="http://www.w3.org/1999/xlink" viewBox="0,0,1024,1024">
	<!-- Color names: teamapps-color-1, teamapps-color-2, teamapps-color-3 -->
	<desc>airplanemode_inactive icon - Licensed under Apache License v2.0 (http://www.apache.org/licenses/LICENSE-2.0) - Created with Iconfu.com - Derivative work of Material icons (Copyright Google Inc.)</desc>
	<defs>
		<linearGradient x1="0" y1="1024" x2="1024" y2="0" id="color-AI4ON94o" gradientUnits="userSpaceOnUse">
			<stop offset="0.2" stop-color="#000000"/>
			<stop offset="0.8" stop-color="#ffffff"/>
		</linearGradient>
		<radialGradient cx="0" cy="0" r="1448.15" id="color-WUIGvcr1" gradientUnits="userSpaceOnUse">
			<stop offset="0.08" stop-color="#ffffff"/>
			<stop offset="1" stop-color="#000000"/>
		</radialGradient>
		<filter id="filter-aEAnm3lw" color-interpolation-filters="sRGB">
			<feOffset/>
		</filter>
		<mask id="mask-XcZmkU4f">
			<path d="M216.78,169.63l637.58,637.58c10,10 10,26.2 0,36.2l-51.47,51.48c-10,10 -26.21,10 -36.21,0l-188.55,-188.55v76.59l70.82,53.12c6.45,4.83 10.24,12.42 10.24,20.48v60.8c0,8.03 -3.77,15.6 -10.18,20.44c-6.41,4.84 -14.73,6.38 -22.45,4.18l-134.83,-38.53l-134.84,38.53c-7.72,2.21 -16.04,0.66 -22.45,-4.18c-6.41,-4.84 -10.18,-12.4 -10.18,-20.44v-60.8c0,-8.06 3.79,-15.65 10.24,-20.48l70.83,-53.12v-175.31l-291.04,90.95c-7.77,2.43 -16.24,1.01 -22.8,-3.81c-6.56,-4.82 -10.44,-12.48 -10.44,-20.63v-81.07c0,-8.83 4.55,-17.04 12.04,-21.72l215.49,-134.54l-179.5,-179.5c-10,-10 -10,-26.21 0,-36.21l51.48,-51.47c10,-10 26.21,-10 36.2,0zM902.4,593.06v81.07c0,8.14 -3.87,15.8 -10.43,20.62c-6.56,4.82 -15.02,6.24 -22.8,3.81l-128.49,-40.13c-3.95,-1.23 -7.54,-3.41 -10.47,-6.33l-317.38,-317.38c-4.8,-4.8 -7.5,-11.31 -7.5,-18.1v-149.17c0,-47.78 38.62,-86.4 86.4,-86.4c47.78,0 86.4,38.62 86.4,86.4v208.75l312.23,195.14c7.49,4.68 12.03,12.88 12.03,21.71zM147.2,239.21l202.26,202.26l-242.8,151.59v81.07l324.27,-101.34v222.94l-81.07,60.8v60.8l141.87,-40.54l141.86,40.54v-60.8l-81.06,-60.8v-151.19l232.26,232.26l51.47,-51.48l-637.58,-637.58zM552.54,390.4v-222.94c0,-33.64 -27.16,-60.8 -60.8,-60.8c-33.64,0 -60.8,27.16 -60.8,60.8v149.17l317.38,317.38l128.49,40.13v-81.07z" fill="#ffffff"/>
		</mask>
		<mask id="mask-zdKA9Bul">
			<rect fill="url(#color-AI4ON94o)" x="81.06" y="81.06" width="821.34" height="861.87"/>
		</mask>
		<mask id="mask-ziWVgZI0">
			<path d="M216.78,169.63l637.58,637.58c10,10 10,26.2 0,36.2l-51.47,51.48c-10,10 -26.21,10 -36.21,0l-188.55,-188.55v76.59l70.82,53.12c6.45,4.83 10.24,12.42 10.24,20.48v60.8c0,8.03 -3.77,15.6 -10.18,20.44c-6.41,4.84 -14.73,6.38 -22.45,4.18l-134.83,-38.53l-134.84,38.53c-7.72,2.21 -16.04,0.66 -22.45,-4.18c-6.41,-4.84 -10.18,-12.4 -10.18,-20.44v-60.8c0,-8.06 3.79,-15.65 10.24,-20.48l70.83,-53.12v-175.31l-291.04,90.95c-7.77,2.43 -16.24,1.01 -22.8,-3.81c-6.56,-4.82 -10.44,-12.48 -10.44,-20.63v-81.07c0,-8.83 4.55,-17.04 12.04,-21.72l215.49,-134.54l-179.5,-179.5c-10,-10 -10,-26.21 0,-36.21l51.48,-51.47c10,-10 26.21,-10 36.2,0zM902.4,593.06v81.07c0,8.14 -3.87,15.8 -10.43,20.62c-6.56,4.82 -15.02,6.24 -22.8,3.81l-128.49,-40.13c-3.95,-1.23 -7.54,-3.41 -10.47,-6.33l-317.38,-317.38c-4.8,-4.8 -7.5,-11.31 -7.5,-18.1v-149.17c0,-47.78 38.62,-86.4 86.4,-86.4c47.78,0 86.4,38.62 86.4,86.4v208.75l312.23,195.14c7.49,4.68 12.03,12.88 12.03,21.71zM147.2,239.21l202.26,202.26l-242.8,151.59v81.07l324.27,-101.34v222.94l-81.07,60.8v60.8l141.87,-40.54l141.86,40.54v-60.8l-81.06,-60.8v-151.19l232.26,232.26l51.47,-51.48l-637.58,-637.58zM552.54,390.4v-222.94c0,-33.64 -27.16,-60.8 -60.8,-60.8c-33.64,0 -60.8,27.16 -60.8,60.8v149.17l317.38,317.38l128.49,40.13v-81.07z" fill="url(#color-WUIGvcr1)"/>
		</mask>
	</defs>
	<g fill="none" fill-rule="nonzero" style="mix-blend-mode: normal">
		<g mask="url(#mask-XcZmkU4f)">
			<g color="#ff0000" class="teamapps-color-2">
				<rect x="81.06" y="81.06" width="821.34" height="861.87" fill="currentColor"/>
			</g>
			<g color="#bc13e0" class="teamapps-color-3" mask="url(#mask-zdKA9Bul)">
				<rect x="81.06" y="81.06" width="821.34" height="861.87" fill="currentColor"/>
			</g>
		</g>
		<g filter="url(#filter-aEAnm3lw)" mask="url(#mask-ziWVgZI0)">
			<g color="#fff961" class="teamapps-color-1">
				<rect x="81.06" y="81.06" width="821.34" height="861.87" fill="currentColor"/>
			</g>
		</g>
	</g>
</svg>