<svg version="1.1" xmlns="http://www.w3.org/2000/svg" xmlns:xlink="http://www.w3.org/1999/xlink" viewBox="0,0,1024,1024">
	<!-- Color names: teamapps-color-1, teamapps-color-2, teamapps-color-3 -->
	<desc>android icon - Licensed under Apache License v2.0 (http://www.apache.org/licenses/LICENSE-2.0) - Created with Iconfu.com - Derivative work of Material icons (Copyright Google Inc.)</desc>
	<defs>
		<radialGradient cx="0" cy="0" r="1448.15" id="color-IPcT53Z3" gradientUnits="userSpaceOnUse">
			<stop offset="0.08" stop-color="#ffffff"/>
			<stop offset="1" stop-color="#000000"/>
		</radialGradient>
		<linearGradient x1="0" y1="1024" x2="1024" y2="0" id="color-VflbBxwK" gradientUnits="userSpaceOnUse">
			<stop offset="0.2" stop-color="#000000"/>
			<stop offset="0.8" stop-color="#ffffff"/>
		</linearGradient>
		<filter id="filter-NFZkA6jf" color-interpolation-filters="sRGB">
			<feOffset/>
		</filter>
		<mask id="mask-HEFZCvfB">
			<path d="M780.8,349.86v19.14c14.69,-26.69 43.07,-44.74 75.74,-44.74c47.78,0 86.4,38.62 86.4,86.4v283.74c0,47.78 -38.62,86.4 -86.4,86.4c-32.66,0 -61.05,-18.05 -75.74,-44.74v19.14c0,36.43 -29.7,66.14 -66.14,66.14h-14.93v116.26c0,47.78 -38.62,86.4 -86.4,86.4c-47.78,0 -86.4,-38.62 -86.4,-86.4v-116.26h-29.87v116.26c0,47.78 -38.62,86.4 -86.4,86.4c-47.78,0 -86.4,-38.62 -86.4,-86.4v-116.26h-14.93c-36.43,0 -66.14,-29.7 -66.14,-66.14v-19.14c-14.69,26.69 -43.07,44.74 -75.74,44.74c-47.78,0 -86.4,-38.62 -86.4,-86.4v-283.74c0,-47.78 38.62,-86.4 86.4,-86.4c32.66,0 61.05,18.05 75.74,44.74v-19.14c0,-8.25 3.9,-15.58 9.95,-20.26c-6.05,-4.68 -9.95,-12.02 -9.95,-20.26c0,-78.51 33.71,-148.66 86.9,-197.58l-33.19,-33.2c-18.1,-18.1 -18.1,-46.88 0,-64.98c18.09,-18.09 46.84,-18.1 64.94,-0.04l47.81,47.48c31.44,-13.11 65.94,-20.49 102.34,-20.49c35.97,0 70.35,7.34 101.52,20.42l47.38,-47.38c18.1,-18.1 46.88,-18.1 64.98,0c18.1,18.1 18.1,46.88 0,64.98l-32.68,32.68c53.87,49.04 87.6,119.58 87.6,198.1c0,8.25 -3.9,15.58 -9.95,20.26c6.05,4.68 9.95,12.02 9.95,20.26zM268.8,755.2c0,22.3 18.24,40.54 40.54,40.54h40.53v141.86c0,33.64 27.16,60.8 60.8,60.8c33.64,0 60.8,-27.16 60.8,-60.8v-141.86h81.07v141.86c0,33.64 27.16,60.8 60.8,60.8c33.64,0 60.8,-27.16 60.8,-60.8v-141.86h40.53c22.3,0 40.54,-18.24 40.54,-40.54v-405.34h-486.4zM655.08,113.15l52.7,-52.7c8.1,-8.1 8.1,-20.67 0,-28.78c-8.1,-8.1 -20.67,-8.1 -28.78,0l-59.99,59.99c-32.02,-16.22 -68.5,-25.54 -107.01,-25.54c-38.91,0 -75.39,9.32 -107.82,25.54l-60.4,-59.99c-8.1,-8.1 -20.67,-8.1 -28.78,0c-8.1,8.1 -8.1,20.67 0,28.78l53.1,53.11c-59.99,44.18 -99.3,115.11 -99.3,195.78h486.4c0,-80.66 -39.32,-152 -100.12,-196.18zM856.54,349.86c-33.64,0 -60.8,27.16 -60.8,60.8v283.74c0,33.64 27.16,60.8 60.8,60.8c33.64,0 60.8,-27.16 60.8,-60.8v-283.74c0,-33.64 -27.16,-60.8 -60.8,-60.8zM167.46,349.86c-33.64,0 -60.8,27.16 -60.8,60.8v283.74c0,33.64 27.16,60.8 60.8,60.8c33.64,0 60.8,-27.16 60.8,-60.8v-283.74c0,-33.64 -27.16,-60.8 -60.8,-60.8zM633.6,228.26h-40.54v-40.53h40.54zM430.94,228.26h-40.54v-40.53h40.54z" fill="url(#color-IPcT53Z3)"/>
		</mask>
		<mask id="mask-yPdsajoX">
			<path d="M780.8,349.86v19.14c14.69,-26.69 43.07,-44.74 75.74,-44.74c47.78,0 86.4,38.62 86.4,86.4v283.74c0,47.78 -38.62,86.4 -86.4,86.4c-32.66,0 -61.05,-18.05 -75.74,-44.74v19.14c0,36.43 -29.7,66.14 -66.14,66.14h-14.93v116.26c0,47.78 -38.62,86.4 -86.4,86.4c-47.78,0 -86.4,-38.62 -86.4,-86.4v-116.26h-29.87v116.26c0,47.78 -38.62,86.4 -86.4,86.4c-47.78,0 -86.4,-38.62 -86.4,-86.4v-116.26h-14.93c-36.43,0 -66.14,-29.7 -66.14,-66.14v-19.14c-14.69,26.69 -43.07,44.74 -75.74,44.74c-47.78,0 -86.4,-38.62 -86.4,-86.4v-283.74c0,-47.78 38.62,-86.4 86.4,-86.4c32.66,0 61.05,18.05 75.74,44.74v-19.14c0,-8.25 3.9,-15.58 9.95,-20.26c-6.05,-4.68 -9.95,-12.02 -9.95,-20.26c0,-78.51 33.71,-148.66 86.9,-197.58l-33.19,-33.2c-18.1,-18.1 -18.1,-46.88 0,-64.98c18.09,-18.09 46.84,-18.1 64.94,-0.04l47.81,47.48c31.44,-13.11 65.94,-20.49 102.34,-20.49c35.97,0 70.35,7.34 101.52,20.42l47.38,-47.38c18.1,-18.1 46.88,-18.1 64.98,0c18.1,18.1 18.1,46.88 0,64.98l-32.68,32.68c53.87,49.04 87.6,119.58 87.6,198.1c0,8.25 -3.9,15.58 -9.95,20.26c6.05,4.68 9.95,12.02 9.95,20.26zM268.8,755.2c0,22.3 18.24,40.54 40.54,40.54h40.53v141.86c0,33.64 27.16,60.8 60.8,60.8c33.64,0 60.8,-27.16 60.8,-60.8v-141.86h81.07v141.86c0,33.64 27.16,60.8 60.8,60.8c33.64,0 60.8,-27.16 60.8,-60.8v-141.86h40.53c22.3,0 40.54,-18.24 40.54,-40.54v-405.34h-486.4zM655.08,113.15l52.7,-52.7c8.1,-8.1 8.1,-20.67 0,-28.78c-8.1,-8.1 -20.67,-8.1 -28.78,0l-59.99,59.99c-32.02,-16.22 -68.5,-25.54 -107.01,-25.54c-38.91,0 -75.39,9.32 -107.82,25.54l-60.4,-59.99c-8.1,-8.1 -20.67,-8.1 -28.78,0c-8.1,8.1 -8.1,20.67 0,28.78l53.1,53.11c-59.99,44.18 -99.3,115.11 -99.3,195.78h486.4c0,-80.66 -39.32,-152 -100.12,-196.18zM856.54,349.86c-33.64,0 -60.8,27.16 -60.8,60.8v283.74c0,33.64 27.16,60.8 60.8,60.8c33.64,0 60.8,-27.16 60.8,-60.8v-283.74c0,-33.64 -27.16,-60.8 -60.8,-60.8zM167.46,349.86c-33.64,0 -60.8,27.16 -60.8,60.8v283.74c0,33.64 27.16,60.8 60.8,60.8c33.64,0 60.8,-27.16 60.8,-60.8v-283.74c0,-33.64 -27.16,-60.8 -60.8,-60.8zM633.6,228.26h-40.54v-40.53h40.54zM430.94,228.26h-40.54v-40.53h40.54z" fill="#ffffff"/>
		</mask>
		<mask id="mask-zsjb2hf0">
			<rect fill="url(#color-VflbBxwK)" x="81.06" y="0" width="861.87" height="1024"/>
		</mask>
	</defs>
	<g fill="none" fill-rule="nonzero" style="mix-blend-mode: normal">
		<g mask="url(#mask-yPdsajoX)">
			<g color="#ff0000" class="teamapps-color-2">
				<rect x="81.06" y="0" width="861.87" height="1024" fill="currentColor"/>
			</g>
			<g color="#bc13e0" class="teamapps-color-3" mask="url(#mask-zsjb2hf0)">
				<rect x="81.06" y="0" width="861.87" height="1024" fill="currentColor"/>
			</g>
		</g>
		<g filter="url(#filter-NFZkA6jf)" mask="url(#mask-HEFZCvfB)">
			<g color="#fff961" class="teamapps-color-1">
				<rect x="81.06" y="0" width="861.87" height="1024" fill="currentColor"/>
			</g>
		</g>
	</g>
</svg>