<svg version="1.1" xmlns="http://www.w3.org/2000/svg" xmlns:xlink="http://www.w3.org/1999/xlink" viewBox="0,0,1024,1024">
	<!-- Color names: teamapps-color-1, teamapps-color-2, teamapps-color-3 -->
	<desc>assignment_ind icon - Licensed under Apache License v2.0 (http://www.apache.org/licenses/LICENSE-2.0) - Created with Iconfu.com - Derivative work of Material icons (Copyright Google Inc.)</desc>
	<defs>
		<radialGradient cx="0" cy="0" r="1448.15" id="color-8sEzqoEi" gradientUnits="userSpaceOnUse">
			<stop offset="0.08" stop-color="#ffffff"/>
			<stop offset="1" stop-color="#000000"/>
		</radialGradient>
		<linearGradient x1="0" y1="1024" x2="1024" y2="0" id="color-FEHthPw1" gradientUnits="userSpaceOnUse">
			<stop offset="0.2" stop-color="#000000"/>
			<stop offset="0.8" stop-color="#ffffff"/>
		</linearGradient>
		<filter id="filter-PywDEEQJ" color-interpolation-filters="sRGB">
			<feOffset/>
		</filter>
		<mask id="mask-ltDUuJS4">
			<path d="M902.4,228.26v567.47c0,58.72 -47.94,106.66 -106.66,106.66h-567.47c-58.72,0 -106.66,-47.94 -106.66,-106.66v-567.47c0,-58.72 47.94,-106.66 106.66,-106.66h152.68c24.28,-47.7 73.51,-81.06 131.05,-81.06c57.54,0 106.77,33.36 131.05,81.06h152.68c58.72,0 106.66,47.94 106.66,106.66zM729.6,738.98c0,-52.28 -128.91,-100.05 -217.6,-100.05c-88.69,0 -217.6,47.76 -217.6,100.05v31.15h435.2zM416,430.94c0,53.15 42.85,96 96,96c53.15,0 96,-42.85 96,-96c0,-53.15 -42.85,-96 -96,-96c-53.15,0 -96,42.85 -96,96zM497.06,187.74c0,8.15 6.77,14.93 14.94,14.93c8.17,0 14.94,-6.78 14.94,-14.93c0,-8.16 -6.78,-14.94 -14.94,-14.94c-8.16,0 -14.94,6.78 -14.94,14.94zM795.74,147.2h-169.43c-17.02,-47.02 -61.61,-81.06 -114.3,-81.06c-52.7,0 -97.28,34.05 -114.3,81.06h-169.43c-44.58,0 -81.06,36.48 -81.06,81.06v567.47c0,44.58 36.48,81.06 81.06,81.06h567.47c44.58,0 81.06,-36.48 81.06,-81.06v-567.47c0,-44.58 -36.48,-81.06 -81.06,-81.06zM755.2,795.74h-486.4v-56.75c0,-81.06 162.14,-125.65 243.2,-125.65c81.06,0 243.2,44.58 243.2,125.65zM512,309.34c67.29,0 121.6,54.31 121.6,121.6c0,67.29 -54.31,121.6 -121.6,121.6c-67.29,0 -121.6,-54.31 -121.6,-121.6c0,-67.29 54.31,-121.6 121.6,-121.6zM512,147.2c22.3,0 40.54,18.24 40.54,40.54c0,22.3 -18.24,40.53 -40.54,40.53c-22.3,0 -40.54,-18.23 -40.54,-40.53c0,-22.3 18.24,-40.54 40.54,-40.54z" fill="url(#color-8sEzqoEi)"/>
		</mask>
		<mask id="mask-Nt0N6Ezp">
			<path d="M902.4,228.26v567.47c0,58.72 -47.94,106.66 -106.66,106.66h-567.47c-58.72,0 -106.66,-47.94 -106.66,-106.66v-567.47c0,-58.72 47.94,-106.66 106.66,-106.66h152.68c24.28,-47.7 73.51,-81.06 131.05,-81.06c57.54,0 106.77,33.36 131.05,81.06h152.68c58.72,0 106.66,47.94 106.66,106.66zM729.6,738.98c0,-52.28 -128.91,-100.05 -217.6,-100.05c-88.69,0 -217.6,47.76 -217.6,100.05v31.15h435.2zM416,430.94c0,53.15 42.85,96 96,96c53.15,0 96,-42.85 96,-96c0,-53.15 -42.85,-96 -96,-96c-53.15,0 -96,42.85 -96,96zM497.06,187.74c0,8.15 6.77,14.93 14.94,14.93c8.17,0 14.94,-6.78 14.94,-14.93c0,-8.16 -6.78,-14.94 -14.94,-14.94c-8.16,0 -14.94,6.78 -14.94,14.94zM795.74,147.2h-169.43c-17.02,-47.02 -61.61,-81.06 -114.3,-81.06c-52.7,0 -97.28,34.05 -114.3,81.06h-169.43c-44.58,0 -81.06,36.48 -81.06,81.06v567.47c0,44.58 36.48,81.06 81.06,81.06h567.47c44.58,0 81.06,-36.48 81.06,-81.06v-567.47c0,-44.58 -36.48,-81.06 -81.06,-81.06zM755.2,795.74h-486.4v-56.75c0,-81.06 162.14,-125.65 243.2,-125.65c81.06,0 243.2,44.58 243.2,125.65zM512,309.34c67.29,0 121.6,54.31 121.6,121.6c0,67.29 -54.31,121.6 -121.6,121.6c-67.29,0 -121.6,-54.31 -121.6,-121.6c0,-67.29 54.31,-121.6 121.6,-121.6zM512,147.2c22.3,0 40.54,18.24 40.54,40.54c0,22.3 -18.24,40.53 -40.54,40.53c-22.3,0 -40.54,-18.23 -40.54,-40.53c0,-22.3 18.24,-40.54 40.54,-40.54z" fill="#ffffff"/>
		</mask>
		<mask id="mask-QWevOdoz">
			<rect fill="url(#color-FEHthPw1)" x="121.6" y="40.54" width="780.8" height="861.86"/>
		</mask>
	</defs>
	<g fill="none" fill-rule="nonzero" style="mix-blend-mode: normal">
		<g mask="url(#mask-Nt0N6Ezp)">
			<g color="#ff0000" class="teamapps-color-2">
				<rect x="121.6" y="40.54" width="780.8" height="861.86" fill="currentColor"/>
			</g>
			<g color="#bc13e0" class="teamapps-color-3" mask="url(#mask-QWevOdoz)">
				<rect x="121.6" y="40.54" width="780.8" height="861.86" fill="currentColor"/>
			</g>
		</g>
		<g filter="url(#filter-PywDEEQJ)" mask="url(#mask-ltDUuJS4)">
			<g color="#fff961" class="teamapps-color-1">
				<rect x="121.6" y="40.54" width="780.8" height="861.86" fill="currentColor"/>
			</g>
		</g>
	</g>
</svg>