<svg version="1.1" xmlns="http://www.w3.org/2000/svg" xmlns:xlink="http://www.w3.org/1999/xlink" viewBox="0,0,1024,1024">
	<!-- Color names: teamapps-color-1, teamapps-color-2, teamapps-color-3 -->
	<desc>av_timer icon - Licensed under Apache License v2.0 (http://www.apache.org/licenses/LICENSE-2.0) - Created with Iconfu.com - Derivative work of Material icons (Copyright Google Inc.)</desc>
	<defs>
		<linearGradient x1="0" y1="1024" x2="1024" y2="0" id="color-rvsgmld6" gradientUnits="userSpaceOnUse">
			<stop offset="0.2" stop-color="#000000"/>
			<stop offset="0.8" stop-color="#ffffff"/>
		</linearGradient>
		<radialGradient cx="0" cy="0" r="1448.15" id="color-TVPFTwov" gradientUnits="userSpaceOnUse">
			<stop offset="0.08" stop-color="#ffffff"/>
			<stop offset="1" stop-color="#000000"/>
		</radialGradient>
		<filter id="filter-Udh05KjC" color-interpolation-filters="sRGB">
			<feOffset/>
		</filter>
		<mask id="mask-DsOilsr1">
			<path d="M512,121.6c215.59,0 390.4,174.81 390.4,390.4c0,215.59 -174.81,390.4 -390.4,390.4c-216.01,0 -390.4,-174.83 -390.4,-390.4c0,-126.09 59.82,-237.42 152.27,-308.65c2.6,-3.11 5.95,-5.63 9.86,-7.25c9.57,-3.96 20.58,-1.77 27.9,5.55l275.62,275.63c10,10 10,26.21 0,36.2l-57.15,57.15c-10,10 -26.21,10 -36.2,0l-198.64,-198.65c-19.26,29.51 -32.56,63.29 -38.26,99.66c12.11,-15.67 31.08,-25.78 52.35,-25.78c36.44,0 66.13,29.71 66.13,66.14c0,36.43 -29.68,66.14 -66.13,66.14c-21.27,0 -40.24,-10.12 -52.35,-25.79c17.27,110.37 104.3,197.39 214.66,214.66c-15.67,-12.11 -25.79,-31.08 -25.79,-52.35c0,-36.44 29.71,-66.13 66.14,-66.13c36.43,0 66.14,29.68 66.14,66.13c0,21.27 -10.12,40.24 -25.79,52.35c110.37,-17.27 197.39,-104.3 214.66,-214.66c-12.11,15.67 -31.08,25.79 -52.35,25.79c-36.44,0 -66.13,-29.71 -66.13,-66.14c0,-36.43 29.68,-66.14 66.13,-66.14c21.26,0 40.22,10.11 52.33,25.77c-15.94,-101.42 -91.02,-182.89 -188.86,-208.81v46.52c0,14.14 -11.46,25.6 -25.6,25.6h-81.07c-14.14,0 -25.6,-11.46 -25.6,-25.6v-162.14c0,-14.14 11.46,-25.6 25.6,-25.6zM471.46,147.2v162.14h81.07v-77.82c137.41,19.86 243.2,137.41 243.2,280.49c0,156.86 -126.87,283.74 -283.74,283.74c-156.86,0 -283.74,-126.87 -283.74,-283.74c0,-68.1 23.92,-130.52 64.05,-179.16l219.69,219.7l57.15,-57.15l-275.62,-275.63v0.82c-88.77,66.47 -146.33,171.86 -146.33,291.43c0,201.45 162.94,364.8 364.8,364.8c201.45,0 364.8,-163.35 364.8,-364.8c0,-201.45 -163.35,-364.8 -364.8,-364.8zM471.46,714.66c0,22.3 18.24,40.54 40.54,40.54c22.3,0 40.54,-18.24 40.54,-40.54c0,-22.3 -18.24,-40.53 -40.54,-40.53c-22.3,0 -40.54,18.23 -40.54,40.53zM755.2,512c0,-22.3 -18.24,-40.54 -40.54,-40.54c-22.3,0 -40.53,18.24 -40.53,40.54c0,22.3 18.23,40.54 40.53,40.54c22.3,0 40.54,-18.24 40.54,-40.54zM268.8,512c0,22.3 18.24,40.54 40.54,40.54c22.3,0 40.53,-18.24 40.53,-40.54c0,-22.3 -18.23,-40.54 -40.53,-40.54c-22.3,0 -40.54,18.24 -40.54,40.54z" fill="url(#color-TVPFTwov)"/>
		</mask>
		<mask id="mask-N8vGKlNX">
			<rect fill="url(#color-rvsgmld6)" x="121.6" y="121.6" width="780.8" height="780.8"/>
		</mask>
		<mask id="mask-RFNGY7BO">
			<path d="M512,121.6c215.59,0 390.4,174.81 390.4,390.4c0,215.59 -174.81,390.4 -390.4,390.4c-216.01,0 -390.4,-174.83 -390.4,-390.4c0,-126.09 59.82,-237.42 152.27,-308.65c2.6,-3.11 5.95,-5.63 9.86,-7.25c9.57,-3.96 20.58,-1.77 27.9,5.55l275.62,275.63c10,10 10,26.21 0,36.2l-57.15,57.15c-10,10 -26.21,10 -36.2,0l-198.64,-198.65c-19.26,29.51 -32.56,63.29 -38.26,99.66c12.11,-15.67 31.08,-25.78 52.35,-25.78c36.44,0 66.13,29.71 66.13,66.14c0,36.43 -29.68,66.14 -66.13,66.14c-21.27,0 -40.24,-10.12 -52.35,-25.79c17.27,110.37 104.3,197.39 214.66,214.66c-15.67,-12.11 -25.79,-31.08 -25.79,-52.35c0,-36.44 29.71,-66.13 66.14,-66.13c36.43,0 66.14,29.68 66.14,66.13c0,21.27 -10.12,40.24 -25.79,52.35c110.37,-17.27 197.39,-104.3 214.66,-214.66c-12.11,15.67 -31.08,25.79 -52.35,25.79c-36.44,0 -66.13,-29.71 -66.13,-66.14c0,-36.43 29.68,-66.14 66.13,-66.14c21.26,0 40.22,10.11 52.33,25.77c-15.94,-101.42 -91.02,-182.89 -188.86,-208.81v46.52c0,14.14 -11.46,25.6 -25.6,25.6h-81.07c-14.14,0 -25.6,-11.46 -25.6,-25.6v-162.14c0,-14.14 11.46,-25.6 25.6,-25.6zM471.46,147.2v162.14h81.07v-77.82c137.41,19.86 243.2,137.41 243.2,280.49c0,156.86 -126.87,283.74 -283.74,283.74c-156.86,0 -283.74,-126.87 -283.74,-283.74c0,-68.1 23.92,-130.52 64.05,-179.16l219.69,219.7l57.15,-57.15l-275.62,-275.63v0.82c-88.77,66.47 -146.33,171.86 -146.33,291.43c0,201.45 162.94,364.8 364.8,364.8c201.45,0 364.8,-163.35 364.8,-364.8c0,-201.45 -163.35,-364.8 -364.8,-364.8zM471.46,714.66c0,22.3 18.24,40.54 40.54,40.54c22.3,0 40.54,-18.24 40.54,-40.54c0,-22.3 -18.24,-40.53 -40.54,-40.53c-22.3,0 -40.54,18.23 -40.54,40.53zM755.2,512c0,-22.3 -18.24,-40.54 -40.54,-40.54c-22.3,0 -40.53,18.24 -40.53,40.54c0,22.3 18.23,40.54 40.53,40.54c22.3,0 40.54,-18.24 40.54,-40.54zM268.8,512c0,22.3 18.24,40.54 40.54,40.54c22.3,0 40.53,-18.24 40.53,-40.54c0,-22.3 -18.23,-40.54 -40.53,-40.54c-22.3,0 -40.54,18.24 -40.54,40.54z" fill="#ffffff"/>
		</mask>
	</defs>
	<g fill="none" fill-rule="nonzero" style="mix-blend-mode: normal">
		<g mask="url(#mask-RFNGY7BO)">
			<g color="#ff0000" class="teamapps-color-2">
				<rect x="121.6" y="121.6" width="780.8" height="780.8" fill="currentColor"/>
			</g>
			<g color="#bc13e0" class="teamapps-color-3" mask="url(#mask-N8vGKlNX)">
				<rect x="121.6" y="121.6" width="780.8" height="780.8" fill="currentColor"/>
			</g>
		</g>
		<g filter="url(#filter-Udh05KjC)" mask="url(#mask-DsOilsr1)">
			<g color="#fff961" class="teamapps-color-1">
				<rect x="121.6" y="121.6" width="780.8" height="780.8" fill="currentColor"/>
			</g>
		</g>
	</g>
</svg>