<svg version="1.1" xmlns="http://www.w3.org/2000/svg" xmlns:xlink="http://www.w3.org/1999/xlink" viewBox="0,0,1024,1024">
	<!-- Color names: teamapps-color-1, teamapps-color-2, teamapps-color-3 -->
	<desc>beach_access icon - Licensed under Apache License v2.0 (http://www.apache.org/licenses/LICENSE-2.0) - Created with Iconfu.com - Derivative work of Material icons (Copyright Google Inc.)</desc>
	<defs>
		<linearGradient x1="0" y1="1024" x2="1024" y2="0" id="color-G2NgvF7a" gradientUnits="userSpaceOnUse">
			<stop offset="0.2" stop-color="#000000"/>
			<stop offset="0.8" stop-color="#ffffff"/>
		</linearGradient>
		<radialGradient cx="0" cy="0" r="1448.15" id="color-niT91bmP" gradientUnits="userSpaceOnUse">
			<stop offset="0.08" stop-color="#ffffff"/>
			<stop offset="1" stop-color="#000000"/>
		</radialGradient>
		<filter id="filter-IbaMrgwL" color-interpolation-filters="sRGB">
			<feOffset/>
		</filter>
		<mask id="mask-3WLiK9FO">
			<path d="M691.83,459.57l-72.84,72.84c5.4,0.71 10.62,3.14 14.76,7.28l261.03,261.15c9.99,10 9.99,26.2 0,36.2l-57.84,57.85c-10,10 -26.2,10 -36.2,0.01l-261.15,-261.03c-4.15,-4.15 -6.58,-9.37 -7.29,-14.77l-72.73,72.73c-10.01,10.01 -26.24,10 -36.23,-0.03c-66.01,-66.21 -115.84,-140.81 -146.9,-215.41c15,86.29 57.24,169.26 125.17,237.19c10,10 10,26.21 0,36.2l-115.93,115.93c-10,10 -26.21,10 -36.2,0c-170.04,-170.04 -170.54,-445.6 -0.89,-615.74l0.6,-0.61l0.72,-0.71c170.13,-169.71 445.74,-169.23 615.8,0.83c10,10 10,26.21 0,36.2l-115.93,115.93c-10,10 -26.21,10 -36.2,0c-67.87,-67.87 -150.74,-110.09 -236.94,-125.13c74.62,31.06 149.18,80.88 215.18,146.88c10,10 10,26.21 0,36.2zM267.58,267.18l-0.41,0.41c-15.4,122.01 47.42,278.87 174.3,406.14l232.26,-232.26c-126.87,-126.87 -284.14,-189.7 -406.14,-174.3zM266.78,267.99c-159.7,160.1 -159.3,419.52 0.81,579.62l115.93,-115.93c-126.87,-126.87 -169.43,-304.4 -116.74,-463.69zM731.69,383.51l115.93,-115.93c-160.1,-160.1 -419.52,-160.51 -579.62,-0.81c159.3,-52.7 336.82,-10.14 463.7,116.74zM818.84,876.8l57.84,-57.85l-261.03,-261.16l-57.96,57.97z" fill="url(#color-niT91bmP)"/>
		</mask>
		<mask id="mask-J3jdykRt">
			<path d="M691.83,459.57l-72.84,72.84c5.4,0.71 10.62,3.14 14.76,7.28l261.03,261.15c9.99,10 9.99,26.2 0,36.2l-57.84,57.85c-10,10 -26.2,10 -36.2,0.01l-261.15,-261.03c-4.15,-4.15 -6.58,-9.37 -7.29,-14.77l-72.73,72.73c-10.01,10.01 -26.24,10 -36.23,-0.03c-66.01,-66.21 -115.84,-140.81 -146.9,-215.41c15,86.29 57.24,169.26 125.17,237.19c10,10 10,26.21 0,36.2l-115.93,115.93c-10,10 -26.21,10 -36.2,0c-170.04,-170.04 -170.54,-445.6 -0.89,-615.74l0.6,-0.61l0.72,-0.71c170.13,-169.71 445.74,-169.23 615.8,0.83c10,10 10,26.21 0,36.2l-115.93,115.93c-10,10 -26.21,10 -36.2,0c-67.87,-67.87 -150.74,-110.09 -236.94,-125.13c74.62,31.06 149.18,80.88 215.18,146.88c10,10 10,26.21 0,36.2zM267.58,267.18l-0.41,0.41c-15.4,122.01 47.42,278.87 174.3,406.14l232.26,-232.26c-126.87,-126.87 -284.14,-189.7 -406.14,-174.3zM266.78,267.99c-159.7,160.1 -159.3,419.52 0.81,579.62l115.93,-115.93c-126.87,-126.87 -169.43,-304.4 -116.74,-463.69zM731.69,383.51l115.93,-115.93c-160.1,-160.1 -419.52,-160.51 -579.62,-0.81c159.3,-52.7 336.82,-10.14 463.7,116.74zM818.84,876.8l57.84,-57.85l-261.03,-261.16l-57.96,57.97z" fill="#ffffff"/>
		</mask>
		<mask id="mask-P2ryql7R">
			<rect fill="url(#color-G2NgvF7a)" x="121.65" y="121.65" width="780.62" height="780.75"/>
		</mask>
	</defs>
	<g fill="none" fill-rule="nonzero" style="mix-blend-mode: normal">
		<g mask="url(#mask-J3jdykRt)">
			<g color="#ff0000" class="teamapps-color-2">
				<rect x="121.65" y="121.65" width="780.62" height="780.75" fill="currentColor"/>
			</g>
			<g color="#bc13e0" class="teamapps-color-3" mask="url(#mask-P2ryql7R)">
				<rect x="121.65" y="121.65" width="780.62" height="780.75" fill="currentColor"/>
			</g>
		</g>
		<g filter="url(#filter-IbaMrgwL)" mask="url(#mask-3WLiK9FO)">
			<g color="#fff961" class="teamapps-color-1">
				<rect x="121.65" y="121.65" width="780.62" height="780.75" fill="currentColor"/>
			</g>
		</g>
	</g>
</svg>