<svg version="1.1" xmlns="http://www.w3.org/2000/svg" xmlns:xlink="http://www.w3.org/1999/xlink" viewBox="0,0,1024,1024">
	<!-- Color names: teamapps-color-1, teamapps-color-2, teamapps-color-3 -->
	<desc>business_center icon - Licensed under Apache License v2.0 (http://www.apache.org/licenses/LICENSE-2.0) - Created with Iconfu.com - Derivative work of Material icons (Copyright Google Inc.)</desc>
	<defs>
		<linearGradient x1="0" y1="1024" x2="1024" y2="0" id="color-a1FgIXPL" gradientUnits="userSpaceOnUse">
			<stop offset="0.2" stop-color="#000000"/>
			<stop offset="0.8" stop-color="#ffffff"/>
		</linearGradient>
		<radialGradient cx="0" cy="0" r="1448.15" id="color-xNxamm4U" gradientUnits="userSpaceOnUse">
			<stop offset="0.08" stop-color="#ffffff"/>
			<stop offset="1" stop-color="#000000"/>
		</radialGradient>
		<filter id="filter-zyoAjfZV" color-interpolation-filters="sRGB">
			<feOffset/>
		</filter>
		<mask id="mask-M9DgBJOp">
			<path d="M942.94,390.4v121.6c0,42.5 -25.11,79.35 -61.25,96.47c11.8,2.28 20.71,12.67 20.71,25.13v162.14c0,59.13 -47.53,106.66 -106.66,106.66h-567.47c-59.13,0 -106.66,-47.53 -106.66,-106.66l0.41,-162.2c0.03,-12.26 8.68,-22.49 20.2,-24.97c-36.21,-17.01 -61.15,-53.75 -61.15,-96.57v-121.6c0,-58.73 47.95,-106.66 106.67,-106.66h136.13v-55.47c0,-6.79 2.7,-13.3 7.5,-18.1l81.06,-81.06c4.8,-4.8 11.31,-7.5 18.1,-7.5h162.14c6.79,0 13.3,2.7 18.1,7.5l81.06,81.06c4.8,4.8 7.5,11.31 7.5,18.1v55.47h136.94c58.72,0 106.67,47.94 106.67,106.66zM567.46,593.06v-55.46h-110.93v55.46c0,8.25 -3.9,15.59 -9.96,20.27c6.06,4.68 9.96,12.02 9.96,20.27v14.94h110.93v-14.94c0,-8.25 3.9,-15.59 9.96,-20.27c-6.06,-4.68 -9.96,-12.02 -9.96,-20.27zM456.54,253.86v29.87h110.93v-29.87zM836.26,309.34h-162.54v-81.07l-81.06,-81.06h-162.14l-81.06,81.06v81.07h-161.73c-44.58,0 -81.07,36.48 -81.07,81.06v121.6c0,44.99 36.08,81.06 81.07,81.06h243.2v-81.06h162.13v81.06h243.2c44.58,0 81.07,-36.48 81.07,-81.06v-121.6c0,-44.58 -36.49,-81.06 -81.07,-81.06zM430.94,674.14v-40.54h-283.33l-0.41,162.14c0,44.99 36.07,81.06 81.06,81.06h567.47c44.99,0 81.06,-36.07 81.06,-81.06v-162.14h-283.74v40.54zM593.06,309.34h-162.13v-81.07h162.13z" fill="#ffffff"/>
		</mask>
		<mask id="mask-PXtQCWS5">
			<rect fill="url(#color-a1FgIXPL)" x="81.06" y="121.6" width="861.87" height="780.8"/>
		</mask>
		<mask id="mask-UK8iZQHj">
			<path d="M942.94,390.4v121.6c0,42.5 -25.11,79.35 -61.25,96.47c11.8,2.28 20.71,12.67 20.71,25.13v162.14c0,59.13 -47.53,106.66 -106.66,106.66h-567.47c-59.13,0 -106.66,-47.53 -106.66,-106.66l0.41,-162.2c0.03,-12.26 8.68,-22.49 20.2,-24.97c-36.21,-17.01 -61.15,-53.75 -61.15,-96.57v-121.6c0,-58.73 47.95,-106.66 106.67,-106.66h136.13v-55.47c0,-6.79 2.7,-13.3 7.5,-18.1l81.06,-81.06c4.8,-4.8 11.31,-7.5 18.1,-7.5h162.14c6.79,0 13.3,2.7 18.1,7.5l81.06,81.06c4.8,4.8 7.5,11.31 7.5,18.1v55.47h136.94c58.72,0 106.67,47.94 106.67,106.66zM567.46,593.06v-55.46h-110.93v55.46c0,8.25 -3.9,15.59 -9.96,20.27c6.06,4.68 9.96,12.02 9.96,20.27v14.94h110.93v-14.94c0,-8.25 3.9,-15.59 9.96,-20.27c-6.06,-4.68 -9.96,-12.02 -9.96,-20.27zM456.54,253.86v29.87h110.93v-29.87zM836.26,309.34h-162.54v-81.07l-81.06,-81.06h-162.14l-81.06,81.06v81.07h-161.73c-44.58,0 -81.07,36.48 -81.07,81.06v121.6c0,44.99 36.08,81.06 81.07,81.06h243.2v-81.06h162.13v81.06h243.2c44.58,0 81.07,-36.48 81.07,-81.06v-121.6c0,-44.58 -36.49,-81.06 -81.07,-81.06zM430.94,674.14v-40.54h-283.33l-0.41,162.14c0,44.99 36.07,81.06 81.06,81.06h567.47c44.99,0 81.06,-36.07 81.06,-81.06v-162.14h-283.74v40.54zM593.06,309.34h-162.13v-81.07h162.13z" fill="url(#color-xNxamm4U)"/>
		</mask>
	</defs>
	<g fill="none" fill-rule="nonzero" style="mix-blend-mode: normal">
		<g mask="url(#mask-M9DgBJOp)">
			<g color="#ff0000" class="teamapps-color-2">
				<rect x="81.06" y="121.6" width="861.87" height="780.8" fill="currentColor"/>
			</g>
			<g color="#bc13e0" class="teamapps-color-3" mask="url(#mask-PXtQCWS5)">
				<rect x="81.06" y="121.6" width="861.87" height="780.8" fill="currentColor"/>
			</g>
		</g>
		<g filter="url(#filter-zyoAjfZV)" mask="url(#mask-UK8iZQHj)">
			<g color="#fff961" class="teamapps-color-1">
				<rect x="81.06" y="121.6" width="861.87" height="780.8" fill="currentColor"/>
			</g>
		</g>
	</g>
</svg>