<svg version="1.1" xmlns="http://www.w3.org/2000/svg" xmlns:xlink="http://www.w3.org/1999/xlink" viewBox="0,0,1024,1024">
	<!-- Color names: teamapps-color-1, teamapps-color-2, teamapps-color-3 -->
	<desc>card_travel icon - Licensed under Apache License v2.0 (http://www.apache.org/licenses/LICENSE-2.0) - Created with Iconfu.com - Derivative work of Material icons (Copyright Google Inc.)</desc>
	<defs>
		<radialGradient cx="0" cy="0" r="1448.15" id="color-9lpxNJo8" gradientUnits="userSpaceOnUse">
			<stop offset="0.08" stop-color="#ffffff"/>
			<stop offset="1" stop-color="#000000"/>
		</radialGradient>
		<linearGradient x1="0" y1="1024" x2="1024" y2="0" id="color-zDLqXqCJ" gradientUnits="userSpaceOnUse">
			<stop offset="0.2" stop-color="#000000"/>
			<stop offset="0.8" stop-color="#ffffff"/>
		</linearGradient>
		<filter id="filter-pdodD0gj" color-interpolation-filters="sRGB">
			<feOffset/>
		</filter>
		<mask id="mask-PL55Mjrn">
			<rect fill="url(#color-zDLqXqCJ)" x="81.06" y="81.06" width="861.87" height="821.34"/>
		</mask>
		<mask id="mask-psiIBFOr">
			<path d="M942.94,349.86v445.87c0,59.13 -47.55,106.66 -106.67,106.66h-648.53c-59.13,0 -106.67,-47.53 -106.67,-106.66v-445.87c0,-59.13 47.55,-106.66 106.67,-106.66h96v-55.46c0,-59.13 47.53,-106.67 106.66,-106.67h243.2c59.13,0 106.66,47.55 106.66,106.67v55.46h96c59.13,0 106.67,47.53 106.67,106.66zM740.26,375.46v55.47c0,14.14 -11.46,25.6 -25.6,25.6h-81.06c-14.14,0 -25.6,-11.46 -25.6,-25.6v-55.47h-192v55.47c0,14.14 -11.46,25.6 -25.6,25.6h-81.06c-14.14,0 -25.6,-11.46 -25.6,-25.6v-55.47h-70.4v192h597.33v-192zM810.66,740.26h-597.33v29.87h597.33zM608,213.34h-192v29.86h192zM836.26,268.8h-121.6v-81.06c0,-44.99 -36.07,-81.07 -81.06,-81.07h-243.2c-44.99,0 -81.06,36.08 -81.06,81.07v81.06h-121.6c-44.99,0 -81.07,36.07 -81.07,81.06v445.87c0,44.99 36.08,81.06 81.07,81.06h648.53c44.99,0 81.07,-36.07 81.07,-81.06v-445.87c0,-44.99 -36.08,-81.06 -81.07,-81.06zM836.26,593.06h-648.53v-243.2h121.6v81.07h81.06v-81.07h243.2v81.07h81.06v-81.07h121.6zM836.26,795.74h-648.53v-81.07h648.53zM390.4,187.74h243.2v81.06h-243.2z" fill="#ffffff"/>
		</mask>
		<mask id="mask-xqefHI06">
			<path d="M942.94,349.86v445.87c0,59.13 -47.55,106.66 -106.67,106.66h-648.53c-59.13,0 -106.67,-47.53 -106.67,-106.66v-445.87c0,-59.13 47.55,-106.66 106.67,-106.66h96v-55.46c0,-59.13 47.53,-106.67 106.66,-106.67h243.2c59.13,0 106.66,47.55 106.66,106.67v55.46h96c59.13,0 106.67,47.53 106.67,106.66zM740.26,375.46v55.47c0,14.14 -11.46,25.6 -25.6,25.6h-81.06c-14.14,0 -25.6,-11.46 -25.6,-25.6v-55.47h-192v55.47c0,14.14 -11.46,25.6 -25.6,25.6h-81.06c-14.14,0 -25.6,-11.46 -25.6,-25.6v-55.47h-70.4v192h597.33v-192zM810.66,740.26h-597.33v29.87h597.33zM608,213.34h-192v29.86h192zM836.26,268.8h-121.6v-81.06c0,-44.99 -36.07,-81.07 -81.06,-81.07h-243.2c-44.99,0 -81.06,36.08 -81.06,81.07v81.06h-121.6c-44.99,0 -81.07,36.07 -81.07,81.06v445.87c0,44.99 36.08,81.06 81.07,81.06h648.53c44.99,0 81.07,-36.07 81.07,-81.06v-445.87c0,-44.99 -36.08,-81.06 -81.07,-81.06zM836.26,593.06h-648.53v-243.2h121.6v81.07h81.06v-81.07h243.2v81.07h81.06v-81.07h121.6zM836.26,795.74h-648.53v-81.07h648.53zM390.4,187.74h243.2v81.06h-243.2z" fill="url(#color-9lpxNJo8)"/>
		</mask>
	</defs>
	<g fill="none" fill-rule="nonzero" style="mix-blend-mode: normal">
		<g mask="url(#mask-psiIBFOr)">
			<g color="#ff0000" class="teamapps-color-2">
				<rect x="81.06" y="81.06" width="861.87" height="821.34" fill="currentColor"/>
			</g>
			<g color="#bc13e0" class="teamapps-color-3" mask="url(#mask-PL55Mjrn)">
				<rect x="81.06" y="81.06" width="861.87" height="821.34" fill="currentColor"/>
			</g>
		</g>
		<g filter="url(#filter-pdodD0gj)" mask="url(#mask-xqefHI06)">
			<g color="#fff961" class="teamapps-color-1">
				<rect x="81.06" y="81.06" width="861.87" height="821.34" fill="currentColor"/>
			</g>
		</g>
	</g>
</svg>