<svg version="1.1" xmlns="http://www.w3.org/2000/svg" xmlns:xlink="http://www.w3.org/1999/xlink" viewBox="0,0,1024,1024">
	<!-- Color names: teamapps-color-1, teamapps-color-2, teamapps-color-3 -->
	<desc>cast icon - Licensed under Apache License v2.0 (http://www.apache.org/licenses/LICENSE-2.0) - Created with Iconfu.com - Derivative work of Material icons (Copyright Google Inc.)</desc>
	<defs>
		<radialGradient cx="0" cy="0" r="1448.15" id="color-q15z7ibY" gradientUnits="userSpaceOnUse">
			<stop offset="0.08" stop-color="#ffffff"/>
			<stop offset="1" stop-color="#000000"/>
		</radialGradient>
		<linearGradient x1="0" y1="1024" x2="1024" y2="0" id="color-zLLFYkW4" gradientUnits="userSpaceOnUse">
			<stop offset="0.2" stop-color="#000000"/>
			<stop offset="0.8" stop-color="#ffffff"/>
		</linearGradient>
		<filter id="filter-jyxI2MJt" color-interpolation-filters="sRGB">
			<feOffset/>
		</filter>
		<mask id="mask-biksP6nG">
			<path d="M983.46,228.26v567.47c0,58.72 -47.94,106.66 -106.66,106.66h-283.74c-14.14,0 -25.6,-11.46 -25.6,-25.6v-81.06c0,-14.14 11.46,-25.6 25.6,-25.6h258.14v-516.27h-678.4v96c0,14.14 -11.46,25.6 -25.6,25.6h-81.06c-14.14,0 -25.6,-11.46 -25.6,-25.6v-121.6c0,-58.72 47.94,-106.66 106.66,-106.66h729.6c58.72,0 106.66,47.94 106.66,106.66zM512,902.4h-81.06c-14.14,0 -25.6,-11.46 -25.6,-25.6c0,-187.31 -151.89,-339.2 -339.2,-339.2c-14.14,0 -25.6,-11.46 -25.6,-25.6v-81.06c0,-14.14 11.46,-25.6 25.6,-25.6c260.16,0 471.46,210.87 471.46,471.46c0,14.14 -11.46,25.6 -25.6,25.6zM349.86,902.4h-81.06c-14.14,0 -25.6,-11.46 -25.6,-25.6c0,-97.73 -79.33,-177.06 -177.06,-177.06c-14.14,0 -25.6,-11.46 -25.6,-25.6v-81.07c0,-14.14 11.46,-25.6 25.6,-25.6c171,0 309.33,138.34 309.33,309.34c0,14.14 -11.46,25.6 -25.6,25.6zM187.74,902.4h-121.6c-14.14,0 -25.6,-11.46 -25.6,-25.6v-121.6c0,-14.14 11.46,-25.6 25.6,-25.6c81.43,0 147.2,65.77 147.2,147.2c0,14.14 -11.46,25.6 -25.6,25.6zM876.8,147.2h-729.6c-44.58,0 -81.06,36.48 -81.06,81.06v121.6h81.06v-121.6h729.6v567.47h-283.74v81.06h283.74c44.58,0 81.06,-36.48 81.06,-81.06v-567.47c0,-44.58 -36.48,-81.06 -81.06,-81.06zM66.14,430.94v81.06c201.45,0 364.8,163.35 364.8,364.8h81.06c0,-246.44 -199.82,-445.86 -445.86,-445.86zM66.14,593.06v81.07c111.87,0 202.66,90.79 202.66,202.66h81.06c0,-156.86 -126.86,-283.74 -283.73,-283.74zM66.14,755.2v121.6h121.6c0,-67.29 -54.31,-121.6 -121.6,-121.6z" fill="#ffffff"/>
		</mask>
		<mask id="mask-BPTemayf">
			<rect fill="url(#color-zLLFYkW4)" x="40.54" y="121.6" width="942.93" height="780.8"/>
		</mask>
		<mask id="mask-mZpY97lk">
			<path d="M983.46,228.26v567.47c0,58.72 -47.94,106.66 -106.66,106.66h-283.74c-14.14,0 -25.6,-11.46 -25.6,-25.6v-81.06c0,-14.14 11.46,-25.6 25.6,-25.6h258.14v-516.27h-678.4v96c0,14.14 -11.46,25.6 -25.6,25.6h-81.06c-14.14,0 -25.6,-11.46 -25.6,-25.6v-121.6c0,-58.72 47.94,-106.66 106.66,-106.66h729.6c58.72,0 106.66,47.94 106.66,106.66zM512,902.4h-81.06c-14.14,0 -25.6,-11.46 -25.6,-25.6c0,-187.31 -151.89,-339.2 -339.2,-339.2c-14.14,0 -25.6,-11.46 -25.6,-25.6v-81.06c0,-14.14 11.46,-25.6 25.6,-25.6c260.16,0 471.46,210.87 471.46,471.46c0,14.14 -11.46,25.6 -25.6,25.6zM349.86,902.4h-81.06c-14.14,0 -25.6,-11.46 -25.6,-25.6c0,-97.73 -79.33,-177.06 -177.06,-177.06c-14.14,0 -25.6,-11.46 -25.6,-25.6v-81.07c0,-14.14 11.46,-25.6 25.6,-25.6c171,0 309.33,138.34 309.33,309.34c0,14.14 -11.46,25.6 -25.6,25.6zM187.74,902.4h-121.6c-14.14,0 -25.6,-11.46 -25.6,-25.6v-121.6c0,-14.14 11.46,-25.6 25.6,-25.6c81.43,0 147.2,65.77 147.2,147.2c0,14.14 -11.46,25.6 -25.6,25.6zM876.8,147.2h-729.6c-44.58,0 -81.06,36.48 -81.06,81.06v121.6h81.06v-121.6h729.6v567.47h-283.74v81.06h283.74c44.58,0 81.06,-36.48 81.06,-81.06v-567.47c0,-44.58 -36.48,-81.06 -81.06,-81.06zM66.14,430.94v81.06c201.45,0 364.8,163.35 364.8,364.8h81.06c0,-246.44 -199.82,-445.86 -445.86,-445.86zM66.14,593.06v81.07c111.87,0 202.66,90.79 202.66,202.66h81.06c0,-156.86 -126.86,-283.74 -283.73,-283.74zM66.14,755.2v121.6h121.6c0,-67.29 -54.31,-121.6 -121.6,-121.6z" fill="url(#color-q15z7ibY)"/>
		</mask>
	</defs>
	<g fill="none" fill-rule="nonzero" style="mix-blend-mode: normal">
		<g mask="url(#mask-biksP6nG)">
			<g color="#ff0000" class="teamapps-color-2">
				<rect x="40.54" y="121.6" width="942.93" height="780.8" fill="currentColor"/>
			</g>
			<g color="#bc13e0" class="teamapps-color-3" mask="url(#mask-BPTemayf)">
				<rect x="40.54" y="121.6" width="942.93" height="780.8" fill="currentColor"/>
			</g>
		</g>
		<g filter="url(#filter-jyxI2MJt)" mask="url(#mask-mZpY97lk)">
			<g color="#fff961" class="teamapps-color-1">
				<rect x="40.54" y="121.6" width="942.93" height="780.8" fill="currentColor"/>
			</g>
		</g>
	</g>
</svg>