<svg version="1.1" xmlns="http://www.w3.org/2000/svg" xmlns:xlink="http://www.w3.org/1999/xlink" viewBox="0,0,1024,1024">
	<!-- Color names: teamapps-color-1, teamapps-color-2, teamapps-color-3 -->
	<desc>cloud_circle icon - Licensed under Apache License v2.0 (http://www.apache.org/licenses/LICENSE-2.0) - Created with Iconfu.com - Derivative work of Material icons (Copyright Google Inc.)</desc>
	<defs>
		<radialGradient cx="0" cy="0" r="1448.15" id="color-bCgb7aTK" gradientUnits="userSpaceOnUse">
			<stop offset="0.08" stop-color="#ffffff"/>
			<stop offset="1" stop-color="#000000"/>
		</radialGradient>
		<linearGradient x1="0" y1="1024" x2="1024" y2="0" id="color-ohbbZe90" gradientUnits="userSpaceOnUse">
			<stop offset="0.2" stop-color="#000000"/>
			<stop offset="0.8" stop-color="#ffffff"/>
		</linearGradient>
		<filter id="filter-4Grl6nuS" color-interpolation-filters="sRGB">
			<feOffset/>
		</filter>
		<mask id="mask-8mvrEBjr">
			<path d="M942.94,512c0,237.88 -193.05,430.94 -430.94,430.94c-237.88,0 -430.94,-193.05 -430.94,-430.94c0,-237.88 193.05,-430.94 430.94,-430.94c237.88,0 430.94,193.05 430.94,430.94zM770.14,572.8c0,-41.8 -33.94,-75.74 -75.74,-75.74h-20.26c-14.14,0 -25.6,-11.46 -25.6,-25.6c0,-75.44 -61.1,-136.53 -136.54,-136.53c-63.68,0 -116.6,43.54 -131.65,102.71c-3.05,12 -14.25,20.1 -26.6,19.23l-4.73,-0.33c-52.76,0.45 -95.15,43.13 -95.15,96c0,53.15 42.85,96 96,96h344.54c41.8,0 75.74,-33.94 75.74,-75.74zM512,106.66c-223.74,0 -405.34,181.59 -405.34,405.34c0,223.74 181.59,405.34 405.34,405.34c223.74,0 405.34,-181.59 405.34,-405.34c0,-223.74 -181.59,-405.34 -405.34,-405.34zM694.4,674.14h-344.54c-67.29,0 -121.6,-54.31 -121.6,-121.6c0,-67.29 54.31,-121.6 121.6,-121.6l5.68,0.4c17.83,-70.12 80.65,-122 156.46,-122c89.58,0 162.14,72.55 162.14,162.13h20.26c55.94,0 101.34,45.4 101.34,101.34c0,55.94 -45.4,101.34 -101.34,101.34z" fill="#ffffff"/>
		</mask>
		<mask id="mask-fRyo7ZGi">
			<path d="M942.94,512c0,237.88 -193.05,430.94 -430.94,430.94c-237.88,0 -430.94,-193.05 -430.94,-430.94c0,-237.88 193.05,-430.94 430.94,-430.94c237.88,0 430.94,193.05 430.94,430.94zM770.14,572.8c0,-41.8 -33.94,-75.74 -75.74,-75.74h-20.26c-14.14,0 -25.6,-11.46 -25.6,-25.6c0,-75.44 -61.1,-136.53 -136.54,-136.53c-63.68,0 -116.6,43.54 -131.65,102.71c-3.05,12 -14.25,20.1 -26.6,19.23l-4.73,-0.33c-52.76,0.45 -95.15,43.13 -95.15,96c0,53.15 42.85,96 96,96h344.54c41.8,0 75.74,-33.94 75.74,-75.74zM512,106.66c-223.74,0 -405.34,181.59 -405.34,405.34c0,223.74 181.59,405.34 405.34,405.34c223.74,0 405.34,-181.59 405.34,-405.34c0,-223.74 -181.59,-405.34 -405.34,-405.34zM694.4,674.14h-344.54c-67.29,0 -121.6,-54.31 -121.6,-121.6c0,-67.29 54.31,-121.6 121.6,-121.6l5.68,0.4c17.83,-70.12 80.65,-122 156.46,-122c89.58,0 162.14,72.55 162.14,162.13h20.26c55.94,0 101.34,45.4 101.34,101.34c0,55.94 -45.4,101.34 -101.34,101.34z" fill="url(#color-bCgb7aTK)"/>
		</mask>
		<mask id="mask-UhzCvHgX">
			<rect fill="url(#color-ohbbZe90)" x="81.06" y="81.06" width="861.87" height="861.87"/>
		</mask>
	</defs>
	<g fill="none" fill-rule="nonzero" style="mix-blend-mode: normal">
		<g mask="url(#mask-8mvrEBjr)">
			<g color="#ff0000" class="teamapps-color-2">
				<rect x="81.06" y="81.06" width="861.87" height="861.87" fill="currentColor"/>
			</g>
			<g color="#bc13e0" class="teamapps-color-3" mask="url(#mask-UhzCvHgX)">
				<rect x="81.06" y="81.06" width="861.87" height="861.87" fill="currentColor"/>
			</g>
		</g>
		<g filter="url(#filter-4Grl6nuS)" mask="url(#mask-fRyo7ZGi)">
			<g color="#fff961" class="teamapps-color-1">
				<rect x="81.06" y="81.06" width="861.87" height="861.87" fill="currentColor"/>
			</g>
		</g>
	</g>
</svg>