<svg version="1.1" xmlns="http://www.w3.org/2000/svg" xmlns:xlink="http://www.w3.org/1999/xlink" viewBox="0,0,1024,1024">
	<!-- Color names: teamapps-color-1, teamapps-color-2, teamapps-color-3 -->
	<desc>collections icon - Licensed under Apache License v2.0 (http://www.apache.org/licenses/LICENSE-2.0) - Created with Iconfu.com - Derivative work of Material icons (Copyright Google Inc.)</desc>
	<defs>
		<radialGradient cx="0" cy="0" r="1448.15" id="color-5MnTvo1g" gradientUnits="userSpaceOnUse">
			<stop offset="0.08" stop-color="#ffffff"/>
			<stop offset="1" stop-color="#000000"/>
		</radialGradient>
		<linearGradient x1="0" y1="1024" x2="1024" y2="0" id="color-zF09ZPwC" gradientUnits="userSpaceOnUse">
			<stop offset="0.2" stop-color="#000000"/>
			<stop offset="0.8" stop-color="#ffffff"/>
		</linearGradient>
		<filter id="filter-X5zfS9oC" color-interpolation-filters="sRGB">
			<feOffset/>
		</filter>
		<mask id="mask-gRwUKE6k">
			<path d="M836.26,780.8h-486.4c-58.72,0 -106.66,-47.94 -106.66,-106.66v-486.4c0,-58.72 47.94,-106.67 106.66,-106.67h486.4c58.72,0 106.67,47.95 106.67,106.67v486.4c0,58.73 -47.95,106.66 -106.67,106.66zM213.34,268.8v541.86h541.86c14.14,0 25.6,11.46 25.6,25.6v81.07c0,14.14 -11.46,25.6 -25.6,25.6h-567.46c-58.72,0 -106.67,-47.95 -106.67,-106.67v-567.46c0,-14.14 11.46,-25.6 25.6,-25.6h81.07c14.14,0 25.6,11.46 25.6,25.6zM674.13,512.44l-100.39,125.41c-4.95,6.18 -12.48,9.73 -20.4,9.6c-7.92,-0.13 -15.33,-3.91 -20.08,-10.25l-61.81,-82.51l-70.39,93.85h381.94zM917.34,674.14v-486.4c0,-44.58 -36.49,-81.07 -81.07,-81.07h-486.4c-44.58,0 -81.06,36.49 -81.06,81.07v486.4c0,44.58 36.48,81.06 81.06,81.06h486.4c44.58,0 81.07,-36.48 81.07,-81.06zM106.66,268.8v567.46c0,44.58 36.49,81.07 81.07,81.07h567.46v-81.07h-567.46v-567.46zM471.46,512l82.29,109.85l120.38,-150.38l162.13,202.67h-486.4z" fill="url(#color-5MnTvo1g)"/>
		</mask>
		<mask id="mask-ob1wl4wU">
			<rect fill="url(#color-zF09ZPwC)" x="81.06" y="81.06" width="861.87" height="861.87"/>
		</mask>
		<mask id="mask-pKCjgZpA">
			<path d="M836.26,780.8h-486.4c-58.72,0 -106.66,-47.94 -106.66,-106.66v-486.4c0,-58.72 47.94,-106.67 106.66,-106.67h486.4c58.72,0 106.67,47.95 106.67,106.67v486.4c0,58.73 -47.95,106.66 -106.67,106.66zM213.34,268.8v541.86h541.86c14.14,0 25.6,11.46 25.6,25.6v81.07c0,14.14 -11.46,25.6 -25.6,25.6h-567.46c-58.72,0 -106.67,-47.95 -106.67,-106.67v-567.46c0,-14.14 11.46,-25.6 25.6,-25.6h81.07c14.14,0 25.6,11.46 25.6,25.6zM674.13,512.44l-100.39,125.41c-4.95,6.18 -12.48,9.73 -20.4,9.6c-7.92,-0.13 -15.33,-3.91 -20.08,-10.25l-61.81,-82.51l-70.39,93.85h381.94zM917.34,674.14v-486.4c0,-44.58 -36.49,-81.07 -81.07,-81.07h-486.4c-44.58,0 -81.06,36.49 -81.06,81.07v486.4c0,44.58 36.48,81.06 81.06,81.06h486.4c44.58,0 81.07,-36.48 81.07,-81.06zM106.66,268.8v567.46c0,44.58 36.49,81.07 81.07,81.07h567.46v-81.07h-567.46v-567.46zM471.46,512l82.29,109.85l120.38,-150.38l162.13,202.67h-486.4z" fill="#ffffff"/>
		</mask>
	</defs>
	<g fill="none" fill-rule="nonzero" style="mix-blend-mode: normal">
		<g mask="url(#mask-pKCjgZpA)">
			<g color="#ff0000" class="teamapps-color-2">
				<rect x="81.06" y="81.06" width="861.87" height="861.87" fill="currentColor"/>
			</g>
			<g color="#bc13e0" class="teamapps-color-3" mask="url(#mask-ob1wl4wU)">
				<rect x="81.06" y="81.06" width="861.87" height="861.87" fill="currentColor"/>
			</g>
		</g>
		<g filter="url(#filter-X5zfS9oC)" mask="url(#mask-gRwUKE6k)">
			<g color="#fff961" class="teamapps-color-1">
				<rect x="81.06" y="81.06" width="861.87" height="861.87" fill="currentColor"/>
			</g>
		</g>
	</g>
</svg>