<svg version="1.1" xmlns="http://www.w3.org/2000/svg" xmlns:xlink="http://www.w3.org/1999/xlink" viewBox="0,0,1024,1024">
	<!-- Color names: teamapps-color-1, teamapps-color-2, teamapps-color-3 -->
	<desc>confirmation_number icon - Licensed under Apache License v2.0 (http://www.apache.org/licenses/LICENSE-2.0) - Created with Iconfu.com - Derivative work of Material icons (Copyright Google Inc.)</desc>
	<defs>
		<radialGradient cx="0" cy="0" r="1448.15" id="color-QO559cYj" gradientUnits="userSpaceOnUse">
			<stop offset="0.08" stop-color="#ffffff"/>
			<stop offset="1" stop-color="#000000"/>
		</radialGradient>
		<linearGradient x1="0" y1="1024" x2="1024" y2="0" id="color-RjxAXs2a" gradientUnits="userSpaceOnUse">
			<stop offset="0.2" stop-color="#000000"/>
			<stop offset="0.8" stop-color="#ffffff"/>
		</linearGradient>
		<filter id="filter-LaTyCMW6" color-interpolation-filters="sRGB">
			<feOffset/>
		</filter>
		<mask id="mask-AwPRd2hY">
			<rect fill="url(#color-RjxAXs2a)" x="81.06" y="162.14" width="861.87" height="699.73"/>
		</mask>
		<mask id="mask-mCqF4xBb">
			<path d="M861.86,512c0,30.44 25.02,55.46 55.47,55.46c14.14,0 25.6,11.46 25.6,25.6v162.14c0,58.73 -47.95,106.66 -106.67,106.66h-648.53c-58.72,0 -106.67,-47.94 -106.67,-106.66v-162.14c0,-14.14 11.46,-25.6 25.6,-25.6c30.78,0 55.47,-24.94 55.47,-55.46c0,-30.61 -24.78,-55.46 -55.06,-55.46c-14.14,0 -25.6,-11.46 -25.6,-25.6v-162.14c0,-59.05 47.46,-106.66 106.26,-106.66h648.53c58.63,0 106.67,47.44 106.67,106.66v162.14c0,14.14 -11.46,25.6 -25.6,25.6c-30.45,0 -55.47,25.02 -55.47,55.46zM497.06,679.46v29.87h29.87v-29.87zM497.06,314.66v29.87h29.87v-29.87zM497.06,497.06v29.87h29.87v-29.87zM917.34,430.94v-162.14c0,-44.99 -36.49,-81.06 -81.07,-81.06h-648.53c-44.58,0 -80.66,36.07 -80.66,81.06v162.14c44.58,0 80.66,36.48 80.66,81.06c0,44.58 -36.08,81.06 -81.07,81.06v162.14c0,44.58 36.49,81.06 81.07,81.06h648.53c44.58,0 81.07,-36.48 81.07,-81.06v-162.14c-44.58,0 -81.07,-36.48 -81.07,-81.06c0,-44.58 36.49,-81.06 81.07,-81.06zM552.54,734.94h-81.07v-81.07h81.07zM552.54,552.54h-81.07v-81.07h81.07zM552.54,370.14h-81.07v-81.07h81.07z" fill="#ffffff"/>
		</mask>
		<mask id="mask-s5uqJv04">
			<path d="M861.86,512c0,30.44 25.02,55.46 55.47,55.46c14.14,0 25.6,11.46 25.6,25.6v162.14c0,58.73 -47.95,106.66 -106.67,106.66h-648.53c-58.72,0 -106.67,-47.94 -106.67,-106.66v-162.14c0,-14.14 11.46,-25.6 25.6,-25.6c30.78,0 55.47,-24.94 55.47,-55.46c0,-30.61 -24.78,-55.46 -55.06,-55.46c-14.14,0 -25.6,-11.46 -25.6,-25.6v-162.14c0,-59.05 47.46,-106.66 106.26,-106.66h648.53c58.63,0 106.67,47.44 106.67,106.66v162.14c0,14.14 -11.46,25.6 -25.6,25.6c-30.45,0 -55.47,25.02 -55.47,55.46zM497.06,679.46v29.87h29.87v-29.87zM497.06,314.66v29.87h29.87v-29.87zM497.06,497.06v29.87h29.87v-29.87zM917.34,430.94v-162.14c0,-44.99 -36.49,-81.06 -81.07,-81.06h-648.53c-44.58,0 -80.66,36.07 -80.66,81.06v162.14c44.58,0 80.66,36.48 80.66,81.06c0,44.58 -36.08,81.06 -81.07,81.06v162.14c0,44.58 36.49,81.06 81.07,81.06h648.53c44.58,0 81.07,-36.48 81.07,-81.06v-162.14c-44.58,0 -81.07,-36.48 -81.07,-81.06c0,-44.58 36.49,-81.06 81.07,-81.06zM552.54,734.94h-81.07v-81.07h81.07zM552.54,552.54h-81.07v-81.07h81.07zM552.54,370.14h-81.07v-81.07h81.07z" fill="url(#color-QO559cYj)"/>
		</mask>
	</defs>
	<g fill="none" fill-rule="nonzero" style="mix-blend-mode: normal">
		<g mask="url(#mask-mCqF4xBb)">
			<g color="#ff0000" class="teamapps-color-2">
				<rect x="81.06" y="162.14" width="861.87" height="699.73" fill="currentColor"/>
			</g>
			<g color="#bc13e0" class="teamapps-color-3" mask="url(#mask-AwPRd2hY)">
				<rect x="81.06" y="162.14" width="861.87" height="699.73" fill="currentColor"/>
			</g>
		</g>
		<g filter="url(#filter-LaTyCMW6)" mask="url(#mask-s5uqJv04)">
			<g color="#fff961" class="teamapps-color-1">
				<rect x="81.06" y="162.14" width="861.87" height="699.73" fill="currentColor"/>
			</g>
		</g>
	</g>
</svg>