<svg version="1.1" xmlns="http://www.w3.org/2000/svg" xmlns:xlink="http://www.w3.org/1999/xlink" viewBox="0,0,1024,1024">
	<!-- Color names: teamapps-color-1, teamapps-color-2, teamapps-color-3 -->
	<desc>copyright icon - Licensed under Apache License v2.0 (http://www.apache.org/licenses/LICENSE-2.0) - Created with Iconfu.com - Derivative work of Material icons (Copyright Google Inc.)</desc>
	<defs>
		<radialGradient cx="0" cy="0" r="1448.15" id="color-opyHDVzf" gradientUnits="userSpaceOnUse">
			<stop offset="0.08" stop-color="#ffffff"/>
			<stop offset="1" stop-color="#000000"/>
		</radialGradient>
		<linearGradient x1="0" y1="1024" x2="1024" y2="0" id="color-oTxsftYC" gradientUnits="userSpaceOnUse">
			<stop offset="0.2" stop-color="#000000"/>
			<stop offset="0.8" stop-color="#ffffff"/>
		</linearGradient>
		<filter id="filter-1Uz6Acfi" color-interpolation-filters="sRGB">
			<feOffset/>
		</filter>
		<mask id="mask-CNBfojJy">
			<path d="M942.94,512c0,237.88 -193.05,430.94 -430.94,430.94c-237.88,0 -430.94,-193.05 -430.94,-430.94c0,-237.88 193.05,-430.94 430.94,-430.94c237.88,0 430.94,193.05 430.94,430.94zM810.66,512c0,-164.61 -134.05,-298.66 -298.66,-298.66c-164.61,0 -298.66,134.05 -298.66,298.66c0,164.61 134.05,298.66 298.66,298.66c164.61,0 298.66,-134.05 298.66,-298.66zM456.54,506.73v10.94c0,11.87 1.08,24.36 2.95,36.71c1.54,10.18 4.95,19.42 9.19,27c3.53,6.31 8.63,11.75 15.37,16.07c3.77,2.46 10.59,4.83 22.05,5.26c7.43,-0.39 12.02,-1.09 15.69,-2.45c0.09,-0.03 0.18,-0.06 0.27,-0.1c5.11,-1.79 9.29,-4.26 12.89,-7.39c3.72,-3.22 6.42,-6.67 8.47,-10.76c2.03,-4.06 3.17,-8.27 3.41,-13.29c0.65,-13.65 11.91,-24.37 25.57,-24.37h72.56c14.38,0 25.95,11.85 25.59,26.23c-0.52,20.97 -6.16,40.05 -14.85,57.44c-8.96,17.91 -21.29,33.08 -36.09,45.96c-15.07,13.12 -32.42,23.18 -51.79,30.27c-19.47,7.12 -40.29,10.88 -62.3,10.88c-29.48,0 -56.31,-5.45 -79.57,-16.11c-22.92,-10.51 -42.17,-25.39 -57.55,-43.66c-15.38,-18.27 -26.76,-39.75 -33.79,-64.12c-6.74,-23.35 -10.33,-47.63 -10.33,-73.58v-10.94c0,-26.24 4.08,-50.52 10.73,-73.57c7.04,-24.41 18.41,-45.76 33.59,-64.27c15.64,-19.07 34.99,-33.42 57.37,-44.14c23.73,-11.36 50.81,-16.3 79.96,-16.3c23.01,0 44.88,3.16 65.46,11.01c19.81,7.55 37.32,18.14 52.13,31.96c15.02,14.02 26.25,30.8 34.37,49.42c8.34,19.15 12.54,39.76 13.46,61.43c0.62,14.55 -11.01,26.68 -25.58,26.68h-72.55c-13.68,0 -24.95,-10.76 -25.57,-24.43c-0.31,-6.73 -1.5,-12.26 -3.45,-16.61c-2.83,-6.29 -5.88,-11.02 -9.15,-14.53c-2.83,-3.04 -7.02,-6.04 -12.56,-8.57c-4.05,-1.66 -9.08,-2.78 -15.56,-3.14c-11.7,0.42 -18.59,2.64 -22.98,5.35c-6.68,4.3 -11.74,9.72 -15.25,15.99c-4.34,7.75 -7.68,16.59 -9.19,26.59c-1.87,12.35 -2.95,24.43 -2.95,37.11zM512,106.66c-223.74,0 -405.34,181.59 -405.34,405.34c0,223.74 181.59,405.34 405.34,405.34c223.74,0 405.34,-181.59 405.34,-405.34c0,-223.74 -181.59,-405.34 -405.34,-405.34zM512,836.26c-178.75,0 -324.26,-145.51 -324.26,-324.26c0,-178.75 145.51,-324.26 324.26,-324.26c178.75,0 324.26,145.51 324.26,324.26c0,178.75 -145.51,324.26 -324.26,324.26zM434.18,465.79c2.02,-13.38 6.49,-25.13 12.16,-35.26c5.67,-10.14 13.77,-18.64 23.91,-25.13c9.73,-6.08 21.89,-8.92 36.89,-9.33c9.32,0.41 17.83,2.03 25.54,5.27c8.1,3.65 15.41,8.51 21.08,14.59c5.67,6.08 10.13,13.38 13.77,21.48c3.65,8.1 5.27,17.02 5.68,25.94h72.55c-0.81,-19.05 -4.46,-36.48 -11.35,-52.29c-6.89,-15.81 -16.21,-29.58 -28.37,-40.94c-12.16,-11.35 -26.75,-20.26 -43.78,-26.75c-17.02,-6.49 -35.67,-9.33 -56.34,-9.33c-26.34,0 -49.45,4.46 -68.9,13.78c-19.46,9.32 -35.67,21.48 -48.64,37.29c-12.97,15.81 -22.71,34.05 -28.79,55.13c-6.08,21.08 -9.73,42.96 -9.73,66.47v10.94c0,23.51 3.25,45.4 9.33,66.48c6.08,21.08 15.81,39.32 28.78,54.72c12.97,15.4 29.18,27.96 48.64,36.88c19.46,8.92 42.56,13.78 68.9,13.78c19.05,0 36.89,-3.24 53.5,-9.32c16.62,-6.08 31.21,-14.59 43.78,-25.54c12.57,-10.94 22.7,-23.51 30,-38.1c7.3,-14.59 11.75,-30 12.16,-46.62h-72.56c-0.41,8.51 -2.43,16.22 -6.08,23.51c-3.65,7.3 -8.51,13.38 -14.59,18.65c-6.08,5.27 -12.97,9.32 -21.07,12.16c-7.7,2.84 -15.81,3.64 -24.32,4.05c-14.59,-0.41 -26.76,-3.24 -36.08,-9.32c-10.14,-6.49 -18.24,-14.99 -23.91,-25.13c-5.67,-10.14 -10.14,-22.3 -12.16,-35.67c-2.02,-13.38 -3.24,-27.16 -3.24,-40.54v-10.94c0,-14.18 1.22,-27.56 3.24,-40.94z" fill="url(#color-opyHDVzf)"/>
		</mask>
		<mask id="mask-NKoHnGdg">
			<rect fill="url(#color-oTxsftYC)" x="81.06" y="81.06" width="861.87" height="861.87"/>
		</mask>
		<mask id="mask-pmdWAGKL">
			<path d="M942.94,512c0,237.88 -193.05,430.94 -430.94,430.94c-237.88,0 -430.94,-193.05 -430.94,-430.94c0,-237.88 193.05,-430.94 430.94,-430.94c237.88,0 430.94,193.05 430.94,430.94zM810.66,512c0,-164.61 -134.05,-298.66 -298.66,-298.66c-164.61,0 -298.66,134.05 -298.66,298.66c0,164.61 134.05,298.66 298.66,298.66c164.61,0 298.66,-134.05 298.66,-298.66zM456.54,506.73v10.94c0,11.87 1.08,24.36 2.95,36.71c1.54,10.18 4.95,19.42 9.19,27c3.53,6.31 8.63,11.75 15.37,16.07c3.77,2.46 10.59,4.83 22.05,5.26c7.43,-0.39 12.02,-1.09 15.69,-2.45c0.09,-0.03 0.18,-0.06 0.27,-0.1c5.11,-1.79 9.29,-4.26 12.89,-7.39c3.72,-3.22 6.42,-6.67 8.47,-10.76c2.03,-4.06 3.17,-8.27 3.41,-13.29c0.65,-13.65 11.91,-24.37 25.57,-24.37h72.56c14.38,0 25.95,11.85 25.59,26.23c-0.52,20.97 -6.16,40.05 -14.85,57.44c-8.96,17.91 -21.29,33.08 -36.09,45.96c-15.07,13.12 -32.42,23.18 -51.79,30.27c-19.47,7.12 -40.29,10.88 -62.3,10.88c-29.48,0 -56.31,-5.45 -79.57,-16.11c-22.92,-10.51 -42.17,-25.39 -57.55,-43.66c-15.38,-18.27 -26.76,-39.75 -33.79,-64.12c-6.74,-23.35 -10.33,-47.63 -10.33,-73.58v-10.94c0,-26.24 4.08,-50.52 10.73,-73.57c7.04,-24.41 18.41,-45.76 33.59,-64.27c15.64,-19.07 34.99,-33.42 57.37,-44.14c23.73,-11.36 50.81,-16.3 79.96,-16.3c23.01,0 44.88,3.16 65.46,11.01c19.81,7.55 37.32,18.14 52.13,31.96c15.02,14.02 26.25,30.8 34.37,49.42c8.34,19.15 12.54,39.76 13.46,61.43c0.62,14.55 -11.01,26.68 -25.58,26.68h-72.55c-13.68,0 -24.95,-10.76 -25.57,-24.43c-0.31,-6.73 -1.5,-12.26 -3.45,-16.61c-2.83,-6.29 -5.88,-11.02 -9.15,-14.53c-2.83,-3.04 -7.02,-6.04 -12.56,-8.57c-4.05,-1.66 -9.08,-2.78 -15.56,-3.14c-11.7,0.42 -18.59,2.64 -22.98,5.35c-6.68,4.3 -11.74,9.72 -15.25,15.99c-4.34,7.75 -7.68,16.59 -9.19,26.59c-1.87,12.35 -2.95,24.43 -2.95,37.11zM512,106.66c-223.74,0 -405.34,181.59 -405.34,405.34c0,223.74 181.59,405.34 405.34,405.34c223.74,0 405.34,-181.59 405.34,-405.34c0,-223.74 -181.59,-405.34 -405.34,-405.34zM512,836.26c-178.75,0 -324.26,-145.51 -324.26,-324.26c0,-178.75 145.51,-324.26 324.26,-324.26c178.75,0 324.26,145.51 324.26,324.26c0,178.75 -145.51,324.26 -324.26,324.26zM434.18,465.79c2.02,-13.38 6.49,-25.13 12.16,-35.26c5.67,-10.14 13.77,-18.64 23.91,-25.13c9.73,-6.08 21.89,-8.92 36.89,-9.33c9.32,0.41 17.83,2.03 25.54,5.27c8.1,3.65 15.41,8.51 21.08,14.59c5.67,6.08 10.13,13.38 13.77,21.48c3.65,8.1 5.27,17.02 5.68,25.94h72.55c-0.81,-19.05 -4.46,-36.48 -11.35,-52.29c-6.89,-15.81 -16.21,-29.58 -28.37,-40.94c-12.16,-11.35 -26.75,-20.26 -43.78,-26.75c-17.02,-6.49 -35.67,-9.33 -56.34,-9.33c-26.34,0 -49.45,4.46 -68.9,13.78c-19.46,9.32 -35.67,21.48 -48.64,37.29c-12.97,15.81 -22.71,34.05 -28.79,55.13c-6.08,21.08 -9.73,42.96 -9.73,66.47v10.94c0,23.51 3.25,45.4 9.33,66.48c6.08,21.08 15.81,39.32 28.78,54.72c12.97,15.4 29.18,27.96 48.64,36.88c19.46,8.92 42.56,13.78 68.9,13.78c19.05,0 36.89,-3.24 53.5,-9.32c16.62,-6.08 31.21,-14.59 43.78,-25.54c12.57,-10.94 22.7,-23.51 30,-38.1c7.3,-14.59 11.75,-30 12.16,-46.62h-72.56c-0.41,8.51 -2.43,16.22 -6.08,23.51c-3.65,7.3 -8.51,13.38 -14.59,18.65c-6.08,5.27 -12.97,9.32 -21.07,12.16c-7.7,2.84 -15.81,3.64 -24.32,4.05c-14.59,-0.41 -26.76,-3.24 -36.08,-9.32c-10.14,-6.49 -18.24,-14.99 -23.91,-25.13c-5.67,-10.14 -10.14,-22.3 -12.16,-35.67c-2.02,-13.38 -3.24,-27.16 -3.24,-40.54v-10.94c0,-14.18 1.22,-27.56 3.24,-40.94z" fill="#ffffff"/>
		</mask>
	</defs>
	<g fill="none" fill-rule="nonzero" style="mix-blend-mode: normal">
		<g mask="url(#mask-pmdWAGKL)">
			<g color="#ff0000" class="teamapps-color-2">
				<rect x="81.06" y="81.06" width="861.87" height="861.87" fill="currentColor"/>
			</g>
			<g color="#bc13e0" class="teamapps-color-3" mask="url(#mask-NKoHnGdg)">
				<rect x="81.06" y="81.06" width="861.87" height="861.87" fill="currentColor"/>
			</g>
		</g>
		<g filter="url(#filter-1Uz6Acfi)" mask="url(#mask-CNBfojJy)">
			<g color="#fff961" class="teamapps-color-1">
				<rect x="81.06" y="81.06" width="861.87" height="861.87" fill="currentColor"/>
			</g>
		</g>
	</g>
</svg>