<svg version="1.1" xmlns="http://www.w3.org/2000/svg" xmlns:xlink="http://www.w3.org/1999/xlink" viewBox="0,0,1024,1024">
	<!-- Color names: teamapps-color-1, teamapps-color-2, teamapps-color-3 -->
	<desc>crop_7_5 icon - Licensed under Apache License v2.0 (http://www.apache.org/licenses/LICENSE-2.0) - Created with Iconfu.com - Derivative work of Material icons (Copyright Google Inc.)</desc>
	<defs>
		<radialGradient cx="0" cy="0" r="1448.15" id="color-0qL9alKc" gradientUnits="userSpaceOnUse">
			<stop offset="0.08" stop-color="#ffffff"/>
			<stop offset="1" stop-color="#000000"/>
		</radialGradient>
		<linearGradient x1="0" y1="1024" x2="1024" y2="0" id="color-l5KhjFLE" gradientUnits="userSpaceOnUse">
			<stop offset="0.2" stop-color="#000000"/>
			<stop offset="0.8" stop-color="#ffffff"/>
		</linearGradient>
		<filter id="filter-3hFTPBMe" color-interpolation-filters="sRGB">
			<feOffset/>
		</filter>
		<mask id="mask-C0Gqw0nD">
			<path d="M902.4,390.4v243.2c0,58.72 -47.94,106.66 -106.66,106.66h-567.47c-58.72,0 -106.66,-47.94 -106.66,-106.66v-243.2c0,-58.72 47.94,-106.66 106.66,-106.66h567.47c58.72,0 106.66,47.94 106.66,106.66zM770.14,416h-516.27v192h516.27zM795.74,309.34h-567.47c-44.58,0 -81.06,36.48 -81.06,81.06v243.2c0,44.58 36.48,81.06 81.06,81.06h567.47c44.58,0 81.06,-36.48 81.06,-81.06v-243.2c0,-44.58 -36.48,-81.06 -81.06,-81.06zM795.74,633.6h-567.47v-243.2h567.47z" fill="#ffffff"/>
		</mask>
		<mask id="mask-F7p0mVlW">
			<rect fill="url(#color-l5KhjFLE)" x="121.6" y="283.74" width="780.8" height="456.53"/>
		</mask>
		<mask id="mask-Oljis6BI">
			<path d="M902.4,390.4v243.2c0,58.72 -47.94,106.66 -106.66,106.66h-567.47c-58.72,0 -106.66,-47.94 -106.66,-106.66v-243.2c0,-58.72 47.94,-106.66 106.66,-106.66h567.47c58.72,0 106.66,47.94 106.66,106.66zM770.14,416h-516.27v192h516.27zM795.74,309.34h-567.47c-44.58,0 -81.06,36.48 -81.06,81.06v243.2c0,44.58 36.48,81.06 81.06,81.06h567.47c44.58,0 81.06,-36.48 81.06,-81.06v-243.2c0,-44.58 -36.48,-81.06 -81.06,-81.06zM795.74,633.6h-567.47v-243.2h567.47z" fill="url(#color-0qL9alKc)"/>
		</mask>
	</defs>
	<g fill="none" fill-rule="nonzero" style="mix-blend-mode: normal">
		<g mask="url(#mask-C0Gqw0nD)">
			<g color="#ff0000" class="teamapps-color-2">
				<rect x="121.6" y="283.74" width="780.8" height="456.53" fill="currentColor"/>
			</g>
			<g color="#bc13e0" class="teamapps-color-3" mask="url(#mask-F7p0mVlW)">
				<rect x="121.6" y="283.74" width="780.8" height="456.53" fill="currentColor"/>
			</g>
		</g>
		<g filter="url(#filter-3hFTPBMe)" mask="url(#mask-Oljis6BI)">
			<g color="#fff961" class="teamapps-color-1">
				<rect x="121.6" y="283.74" width="780.8" height="456.53" fill="currentColor"/>
			</g>
		</g>
	</g>
</svg>