<svg version="1.1" xmlns="http://www.w3.org/2000/svg" xmlns:xlink="http://www.w3.org/1999/xlink" viewBox="0,0,1024,1024">
	<!-- Color names: teamapps-color-1, teamapps-color-2, teamapps-color-3 -->
	<desc>delete_forever icon - Licensed under Apache License v2.0 (http://www.apache.org/licenses/LICENSE-2.0) - Created with Iconfu.com - Derivative work of Material icons (Copyright Google Inc.)</desc>
	<defs>
		<linearGradient x1="0" y1="1024" x2="1024" y2="0" id="color-JuniSLua" gradientUnits="userSpaceOnUse">
			<stop offset="0.2" stop-color="#000000"/>
			<stop offset="0.8" stop-color="#ffffff"/>
		</linearGradient>
		<radialGradient cx="0" cy="0" r="1448.15" id="color-tztuCPta" gradientUnits="userSpaceOnUse">
			<stop offset="0.08" stop-color="#ffffff"/>
			<stop offset="1" stop-color="#000000"/>
		</radialGradient>
		<filter id="filter-23Sn0Ras" color-interpolation-filters="sRGB">
			<feOffset/>
		</filter>
		<mask id="mask-0eqHl2YI">
			<path d="M780.8,309.34v486.4c0,58.72 -47.94,106.66 -106.66,106.66h-324.27c-58.72,0 -106.66,-47.94 -106.66,-106.66v-486.4c0,-5.57 1.78,-10.73 4.81,-14.94h-19.74c-14.14,0 -25.6,-11.46 -25.6,-25.6v-81.06c0,-14.14 11.46,-25.6 25.6,-25.6h131.27l33.03,-33.04c4.8,-4.8 11.31,-7.5 18.1,-7.5h202.67c6.79,0 13.3,2.7 18.1,7.5l33.03,33.04h131.27c14.14,0 25.6,11.46 25.6,25.6v81.06c0,14.14 -11.46,25.6 -25.6,25.6h-19.74c3.03,4.2 4.81,9.36 4.81,14.94zM472.95,611.16l-67.83,67.84l20.95,20.95l67.83,-67.83c10,-10 26.21,-10 36.21,0l67.83,67.83l20.95,-20.95l-67.83,-67.84c-10,-10 -10,-26.21 0,-36.2l67.83,-67.83l-20.95,-20.95l-67.83,67.83c-9.98,9.98 -26.16,10 -36.16,0.04l-68.23,-67.91l-20.95,20.95l68.15,67.83c10.04,9.99 10.06,26.23 0.04,36.25zM268.8,795.74c0,44.58 36.48,81.06 81.06,81.06h324.27c44.58,0 81.06,-36.48 81.06,-81.06v-486.4h-486.4zM368.51,507.14l57.15,-57.15l86.34,85.93l85.93,-85.93l57.15,57.15l-85.93,85.93l85.93,85.94l-57.15,57.15l-85.93,-85.94l-85.93,85.94l-57.15,-57.15l85.93,-85.94zM653.86,187.74l-40.53,-40.54h-202.67l-40.53,40.54h-141.87v81.06h567.47v-81.06z" fill="url(#color-tztuCPta)"/>
		</mask>
		<mask id="mask-hTjNUXrJ">
			<path d="M780.8,309.34v486.4c0,58.72 -47.94,106.66 -106.66,106.66h-324.27c-58.72,0 -106.66,-47.94 -106.66,-106.66v-486.4c0,-5.57 1.78,-10.73 4.81,-14.94h-19.74c-14.14,0 -25.6,-11.46 -25.6,-25.6v-81.06c0,-14.14 11.46,-25.6 25.6,-25.6h131.27l33.03,-33.04c4.8,-4.8 11.31,-7.5 18.1,-7.5h202.67c6.79,0 13.3,2.7 18.1,7.5l33.03,33.04h131.27c14.14,0 25.6,11.46 25.6,25.6v81.06c0,14.14 -11.46,25.6 -25.6,25.6h-19.74c3.03,4.2 4.81,9.36 4.81,14.94zM472.95,611.16l-67.83,67.84l20.95,20.95l67.83,-67.83c10,-10 26.21,-10 36.21,0l67.83,67.83l20.95,-20.95l-67.83,-67.84c-10,-10 -10,-26.21 0,-36.2l67.83,-67.83l-20.95,-20.95l-67.83,67.83c-9.98,9.98 -26.16,10 -36.16,0.04l-68.23,-67.91l-20.95,20.95l68.15,67.83c10.04,9.99 10.06,26.23 0.04,36.25zM268.8,795.74c0,44.58 36.48,81.06 81.06,81.06h324.27c44.58,0 81.06,-36.48 81.06,-81.06v-486.4h-486.4zM368.51,507.14l57.15,-57.15l86.34,85.93l85.93,-85.93l57.15,57.15l-85.93,85.93l85.93,85.94l-57.15,57.15l-85.93,-85.94l-85.93,85.94l-57.15,-57.15l85.93,-85.94zM653.86,187.74l-40.53,-40.54h-202.67l-40.53,40.54h-141.87v81.06h567.47v-81.06z" fill="#ffffff"/>
		</mask>
		<mask id="mask-Z2bXvvZC">
			<rect fill="url(#color-JuniSLua)" x="202.66" y="121.6" width="618.67" height="780.8"/>
		</mask>
	</defs>
	<g fill="none" fill-rule="nonzero" style="mix-blend-mode: normal">
		<g mask="url(#mask-hTjNUXrJ)">
			<g color="#ff0000" class="teamapps-color-2">
				<rect x="202.66" y="121.6" width="618.67" height="780.8" fill="currentColor"/>
			</g>
			<g color="#bc13e0" class="teamapps-color-3" mask="url(#mask-Z2bXvvZC)">
				<rect x="202.66" y="121.6" width="618.67" height="780.8" fill="currentColor"/>
			</g>
		</g>
		<g filter="url(#filter-23Sn0Ras)" mask="url(#mask-0eqHl2YI)">
			<g color="#fff961" class="teamapps-color-1">
				<rect x="202.66" y="121.6" width="618.67" height="780.8" fill="currentColor"/>
			</g>
		</g>
	</g>
</svg>