<svg version="1.1" xmlns="http://www.w3.org/2000/svg" xmlns:xlink="http://www.w3.org/1999/xlink" viewBox="0,0,1024,1024">
	<!-- Color names: teamapps-color-1, teamapps-color-2, teamapps-color-3 -->
	<desc>exposure_plus_2 icon - Licensed under Apache License v2.0 (http://www.apache.org/licenses/LICENSE-2.0) - Created with Iconfu.com - Derivative work of Material icons (Copyright Google Inc.)</desc>
	<defs>
		<linearGradient x1="0" y1="1024" x2="1024" y2="0" id="color-AR2FPrem" gradientUnits="userSpaceOnUse">
			<stop offset="0.2" stop-color="#000000"/>
			<stop offset="0.8" stop-color="#ffffff"/>
		</linearGradient>
		<radialGradient cx="0" cy="0" r="1448.15" id="color-XwRdiOv0" gradientUnits="userSpaceOnUse">
			<stop offset="0.08" stop-color="#ffffff"/>
			<stop offset="1" stop-color="#000000"/>
		</radialGradient>
		<filter id="filter-k2hgAu7B" color-interpolation-filters="sRGB">
			<feOffset/>
		</filter>
		<mask id="mask-DVjWJN8S">
			<path d="M942.94,685.89v69.31c0,14.14 -11.46,25.6 -25.6,25.6h-349.81c-14.14,0 -25.6,-11.46 -25.6,-25.6v-60.39c0,-6.4 2.4,-12.58 6.73,-17.3l169.11,-184.53c0.07,-0.07 0.13,-0.14 0.2,-0.21c13.91,-14.68 25.1,-28.18 33.94,-39.71c0.07,-0.1 0.15,-0.19 0.23,-0.29c8.76,-10.95 15.39,-21.25 20.45,-30.29c4.54,-8.12 7.38,-15.33 9.26,-22.08c1.65,-7.39 2.48,-13.78 2.48,-20.14c0,-8.59 -1.45,-16.75 -3.92,-24.6c-2.8,-7.66 -6.14,-13.36 -9.88,-17.57c-4.16,-4.68 -9.28,-8.48 -15.01,-10.97c-5.42,-2.36 -12.75,-3.95 -22.61,-3.95c-11.94,0 -21.6,2.02 -28.51,5.09c-7.99,3.55 -13.92,7.86 -18.29,12.87c-4.81,6.02 -8.78,13.14 -11.38,21.43c-2.45,8.35 -3.82,17.81 -4.18,28.67c-0.45,13.81 -11.77,24.77 -25.59,24.77h-86.74c-14.33,0 -25.87,-11.76 -25.6,-26.09c0.46,-24.1 4.57,-47.34 13.03,-69.45c8.97,-23.58 22.25,-44.02 39.74,-61.54c17.37,-17.81 39.15,-31.85 64.07,-41.54c25.25,-9.82 53.6,-14.72 84.27,-14.72c28.07,0 53.81,3.5 77.38,10.9c0.24,0.08 0.48,0.15 0.72,0.24c22.07,7.65 42.77,18.45 59.78,33.91c16.81,14.87 29.53,33.13 38.22,54.36c8.7,21.27 12.85,44.48 12.85,68.87c0,18.41 -2.82,37.37 -9.01,55.93c-5.9,17.68 -13.98,35.12 -24.12,52.33c-9.99,16.95 -21.7,33.84 -35.5,50.66c-13.09,15.96 -27.34,32.73 -43.41,49.24l-75.63,81.18h182.34c14.14,0 25.6,11.46 25.6,25.6zM512,445.86c14.14,0 25.6,11.46 25.6,25.6v81.07c0,14.14 -11.46,25.6 -25.6,25.6h-136.54v136.53c0,14.14 -11.46,25.6 -25.6,25.6h-81.06c-14.14,0 -25.6,-11.46 -25.6,-25.6v-136.53h-136.54c-14.14,0 -25.6,-11.46 -25.6,-25.6v-81.07c0,-14.14 11.46,-25.6 25.6,-25.6h136.54v-136.53c0,-14.14 11.46,-25.6 25.6,-25.6h81.06c14.14,0 25.6,11.46 25.6,25.6v136.53zM676.16,685.89l115.93,-124.44c15.4,-15.81 29.18,-32.01 42.15,-47.82c12.97,-15.81 23.92,-31.62 33.24,-47.42c9.32,-15.81 16.62,-31.62 21.89,-47.42c5.27,-15.81 7.69,-32.02 7.69,-47.83c0,-21.48 -3.65,-41.34 -10.94,-59.18c-7.3,-17.83 -17.83,-32.83 -31.62,-44.99c-13.78,-12.57 -31.21,-21.9 -51.07,-28.78c-20.67,-6.49 -43.77,-9.73 -69.71,-9.73c-27.97,0 -53.11,4.47 -74.99,12.98c-21.89,8.51 -40.53,20.66 -55.12,35.66c-15,15 -26.34,32.43 -34.05,52.7c-7.3,19.05 -10.94,39.32 -11.35,60.8h86.74c0.41,-12.57 2.02,-24.32 5.26,-35.26c3.65,-11.75 9.33,-21.89 16.22,-30.4c7.3,-8.51 16.62,-15 27.56,-19.86c10.94,-4.86 24.32,-7.3 38.91,-7.3c12.57,0 23.51,2.02 32.83,6.08c9.32,4.06 17.43,10.14 23.92,17.43c6.49,7.3 11.34,16.21 14.99,26.34c3.24,10.14 5.27,21.08 5.27,32.83c0,8.92 -1.22,17.43 -3.24,26.35c-2.43,8.92 -6.09,18.23 -11.76,28.37c-5.67,10.14 -12.97,21.49 -22.7,33.65c-9.32,12.16 -21.08,26.34 -35.67,41.74l-169.02,184.43v60.39h349.81v-69.31zM349.86,309.34h-81.06v162.13h-162.14v81.07h162.14v162.13h81.06v-162.13h162.14v-81.07h-162.14z" fill="#ffffff"/>
		</mask>
		<mask id="mask-niQvm0fV">
			<rect fill="url(#color-AR2FPrem)" x="81.06" y="202.66" width="861.87" height="578.14"/>
		</mask>
		<mask id="mask-qmjwDaG3">
			<path d="M942.94,685.89v69.31c0,14.14 -11.46,25.6 -25.6,25.6h-349.81c-14.14,0 -25.6,-11.46 -25.6,-25.6v-60.39c0,-6.4 2.4,-12.58 6.73,-17.3l169.11,-184.53c0.07,-0.07 0.13,-0.14 0.2,-0.21c13.91,-14.68 25.1,-28.18 33.94,-39.71c0.07,-0.1 0.15,-0.19 0.23,-0.29c8.76,-10.95 15.39,-21.25 20.45,-30.29c4.54,-8.12 7.38,-15.33 9.26,-22.08c1.65,-7.39 2.48,-13.78 2.48,-20.14c0,-8.59 -1.45,-16.75 -3.92,-24.6c-2.8,-7.66 -6.14,-13.36 -9.88,-17.57c-4.16,-4.68 -9.28,-8.48 -15.01,-10.97c-5.42,-2.36 -12.75,-3.95 -22.61,-3.95c-11.94,0 -21.6,2.02 -28.51,5.09c-7.99,3.55 -13.92,7.86 -18.29,12.87c-4.81,6.02 -8.78,13.14 -11.38,21.43c-2.45,8.35 -3.82,17.81 -4.18,28.67c-0.45,13.81 -11.77,24.77 -25.59,24.77h-86.74c-14.33,0 -25.87,-11.76 -25.6,-26.09c0.46,-24.1 4.57,-47.34 13.03,-69.45c8.97,-23.58 22.25,-44.02 39.74,-61.54c17.37,-17.81 39.15,-31.85 64.07,-41.54c25.25,-9.82 53.6,-14.72 84.27,-14.72c28.07,0 53.81,3.5 77.38,10.9c0.24,0.08 0.48,0.15 0.72,0.24c22.07,7.65 42.77,18.45 59.78,33.91c16.81,14.87 29.53,33.13 38.22,54.36c8.7,21.27 12.85,44.48 12.85,68.87c0,18.41 -2.82,37.37 -9.01,55.93c-5.9,17.68 -13.98,35.12 -24.12,52.33c-9.99,16.95 -21.7,33.84 -35.5,50.66c-13.09,15.96 -27.34,32.73 -43.41,49.24l-75.63,81.18h182.34c14.14,0 25.6,11.46 25.6,25.6zM512,445.86c14.14,0 25.6,11.46 25.6,25.6v81.07c0,14.14 -11.46,25.6 -25.6,25.6h-136.54v136.53c0,14.14 -11.46,25.6 -25.6,25.6h-81.06c-14.14,0 -25.6,-11.46 -25.6,-25.6v-136.53h-136.54c-14.14,0 -25.6,-11.46 -25.6,-25.6v-81.07c0,-14.14 11.46,-25.6 25.6,-25.6h136.54v-136.53c0,-14.14 11.46,-25.6 25.6,-25.6h81.06c14.14,0 25.6,11.46 25.6,25.6v136.53zM676.16,685.89l115.93,-124.44c15.4,-15.81 29.18,-32.01 42.15,-47.82c12.97,-15.81 23.92,-31.62 33.24,-47.42c9.32,-15.81 16.62,-31.62 21.89,-47.42c5.27,-15.81 7.69,-32.02 7.69,-47.83c0,-21.48 -3.65,-41.34 -10.94,-59.18c-7.3,-17.83 -17.83,-32.83 -31.62,-44.99c-13.78,-12.57 -31.21,-21.9 -51.07,-28.78c-20.67,-6.49 -43.77,-9.73 -69.71,-9.73c-27.97,0 -53.11,4.47 -74.99,12.98c-21.89,8.51 -40.53,20.66 -55.12,35.66c-15,15 -26.34,32.43 -34.05,52.7c-7.3,19.05 -10.94,39.32 -11.35,60.8h86.74c0.41,-12.57 2.02,-24.32 5.26,-35.26c3.65,-11.75 9.33,-21.89 16.22,-30.4c7.3,-8.51 16.62,-15 27.56,-19.86c10.94,-4.86 24.32,-7.3 38.91,-7.3c12.57,0 23.51,2.02 32.83,6.08c9.32,4.06 17.43,10.14 23.92,17.43c6.49,7.3 11.34,16.21 14.99,26.34c3.24,10.14 5.27,21.08 5.27,32.83c0,8.92 -1.22,17.43 -3.24,26.35c-2.43,8.92 -6.09,18.23 -11.76,28.37c-5.67,10.14 -12.97,21.49 -22.7,33.65c-9.32,12.16 -21.08,26.34 -35.67,41.74l-169.02,184.43v60.39h349.81v-69.31zM349.86,309.34h-81.06v162.13h-162.14v81.07h162.14v162.13h81.06v-162.13h162.14v-81.07h-162.14z" fill="url(#color-XwRdiOv0)"/>
		</mask>
	</defs>
	<g fill="none" fill-rule="nonzero" style="mix-blend-mode: normal">
		<g mask="url(#mask-DVjWJN8S)">
			<g color="#ff0000" class="teamapps-color-2">
				<rect x="81.06" y="202.66" width="861.87" height="578.14" fill="currentColor"/>
			</g>
			<g color="#bc13e0" class="teamapps-color-3" mask="url(#mask-niQvm0fV)">
				<rect x="81.06" y="202.66" width="861.87" height="578.14" fill="currentColor"/>
			</g>
		</g>
		<g filter="url(#filter-k2hgAu7B)" mask="url(#mask-qmjwDaG3)">
			<g color="#fff961" class="teamapps-color-1">
				<rect x="81.06" y="202.66" width="861.87" height="578.14" fill="currentColor"/>
			</g>
		</g>
	</g>
</svg>