<svg version="1.1" xmlns="http://www.w3.org/2000/svg" xmlns:xlink="http://www.w3.org/1999/xlink" viewBox="0,0,1024,1024">
	<!-- Color names: teamapps-color-1, teamapps-color-2, teamapps-color-3 -->
	<desc>format_color_fill icon - Licensed under Apache License v2.0 (http://www.apache.org/licenses/LICENSE-2.0) - Created with Iconfu.com - Derivative work of Material icons (Copyright Google Inc.)</desc>
	<defs>
		<linearGradient x1="0" y1="1024" x2="1024" y2="0" id="color-oFEvfRuj" gradientUnits="userSpaceOnUse">
			<stop offset="0.2" stop-color="#000000"/>
			<stop offset="0.8" stop-color="#ffffff"/>
		</linearGradient>
		<radialGradient cx="0" cy="0" r="1448.15" id="color-Rp3Zxmx3" gradientUnits="userSpaceOnUse">
			<stop offset="0.08" stop-color="#ffffff"/>
			<stop offset="1" stop-color="#000000"/>
		</radialGradient>
		<filter id="filter-ehd7oW9w" color-interpolation-filters="sRGB">
			<feOffset/>
		</filter>
		<mask id="mask-9sLSmMbe">
			<path d="M714.86,492.07l-222.87,222.87c-16.72,16.72 -39.11,25.33 -61.06,25.33c-21.95,0 -44.35,-8.61 -61.07,-25.33l-222.87,-222.87c-34.12,-33.64 -33.86,-88.41 -0.07,-122.2l190.65,-190.64l-78.37,-78.37c-10,-10 -10,-26.21 0,-36.2l57.15,-57.15c10,-10 26.21,-10 36.2,0l362.37,362.37c33.79,33.79 34.05,88.56 -0.07,122.2zM25.6,810.66h972.8c14.14,0 25.6,11.46 25.6,25.6v162.14c0,14.14 -11.46,25.6 -25.6,25.6h-972.8c-14.14,0 -25.6,-11.46 -25.6,-25.6v-162.14c0,-14.14 11.46,-25.6 25.6,-25.6zM430.94,272.98l-132.36,132.36h264.71zM902.4,633.6c0,58.72 -47.94,106.66 -106.66,106.66c-58.72,0 -106.67,-47.94 -106.67,-106.66c0,-63.91 87.85,-159.21 87.85,-159.21c10.14,-11 27.51,-11 37.65,0c0,0 87.84,95.3 87.84,159.21zM696.83,387.97l-362.37,-362.37l-57.15,57.15l96.47,96.47l-208.75,208.74c-23.91,23.91 -23.91,62.42 0,85.93l222.94,222.94c11.75,11.75 27.57,17.83 42.97,17.83c15.4,0 31.21,-6.08 42.96,-17.83l222.94,-222.94c23.91,-23.51 23.91,-62.02 0,-85.93zM236.78,430.94l194.16,-194.16l194.15,194.16zM795.74,491.74c0,0 -81.07,87.95 -81.07,141.86c0,44.58 36.49,81.06 81.07,81.06c44.58,0 81.06,-36.48 81.06,-81.06c0,-53.91 -81.06,-141.86 -81.06,-141.86zM25.6,998.4h972.8v-162.14h-972.8z" fill="url(#color-Rp3Zxmx3)"/>
		</mask>
		<mask id="mask-S0Vr4dPl">
			<path d="M714.86,492.07l-222.87,222.87c-16.72,16.72 -39.11,25.33 -61.06,25.33c-21.95,0 -44.35,-8.61 -61.07,-25.33l-222.87,-222.87c-34.12,-33.64 -33.86,-88.41 -0.07,-122.2l190.65,-190.64l-78.37,-78.37c-10,-10 -10,-26.21 0,-36.2l57.15,-57.15c10,-10 26.21,-10 36.2,0l362.37,362.37c33.79,33.79 34.05,88.56 -0.07,122.2zM25.6,810.66h972.8c14.14,0 25.6,11.46 25.6,25.6v162.14c0,14.14 -11.46,25.6 -25.6,25.6h-972.8c-14.14,0 -25.6,-11.46 -25.6,-25.6v-162.14c0,-14.14 11.46,-25.6 25.6,-25.6zM430.94,272.98l-132.36,132.36h264.71zM902.4,633.6c0,58.72 -47.94,106.66 -106.66,106.66c-58.72,0 -106.67,-47.94 -106.67,-106.66c0,-63.91 87.85,-159.21 87.85,-159.21c10.14,-11 27.51,-11 37.65,0c0,0 87.84,95.3 87.84,159.21zM696.83,387.97l-362.37,-362.37l-57.15,57.15l96.47,96.47l-208.75,208.74c-23.91,23.91 -23.91,62.42 0,85.93l222.94,222.94c11.75,11.75 27.57,17.83 42.97,17.83c15.4,0 31.21,-6.08 42.96,-17.83l222.94,-222.94c23.91,-23.51 23.91,-62.02 0,-85.93zM236.78,430.94l194.16,-194.16l194.15,194.16zM795.74,491.74c0,0 -81.07,87.95 -81.07,141.86c0,44.58 36.49,81.06 81.07,81.06c44.58,0 81.06,-36.48 81.06,-81.06c0,-53.91 -81.06,-141.86 -81.06,-141.86zM25.6,998.4h972.8v-162.14h-972.8z" fill="#ffffff"/>
		</mask>
		<mask id="mask-yYVjSltw">
			<rect fill="url(#color-oFEvfRuj)" x="0" y="0" width="1024" height="1024"/>
		</mask>
	</defs>
	<g fill="none" fill-rule="nonzero" style="mix-blend-mode: normal">
		<g mask="url(#mask-S0Vr4dPl)">
			<g color="#ff0000" class="teamapps-color-2">
				<rect x="0" y="0" width="1024" height="1024" fill="currentColor"/>
			</g>
			<g color="#bc13e0" class="teamapps-color-3" mask="url(#mask-yYVjSltw)">
				<rect x="0" y="0" width="1024" height="1024" fill="currentColor"/>
			</g>
		</g>
		<g filter="url(#filter-ehd7oW9w)" mask="url(#mask-9sLSmMbe)">
			<g color="#fff961" class="teamapps-color-1">
				<rect x="0" y="0" width="1024" height="1024" fill="currentColor"/>
			</g>
		</g>
	</g>
</svg>