<svg version="1.1" xmlns="http://www.w3.org/2000/svg" xmlns:xlink="http://www.w3.org/1999/xlink" viewBox="0,0,1024,1024">
	<!-- Color names: teamapps-color-1, teamapps-color-2, teamapps-color-3 -->
	<desc>headset_mic icon - Licensed under Apache License v2.0 (http://www.apache.org/licenses/LICENSE-2.0) - Created with Iconfu.com - Derivative work of Material icons (Copyright Google Inc.)</desc>
	<defs>
		<linearGradient x1="0" y1="1024" x2="1024" y2="0" id="color-YB4IXYTA" gradientUnits="userSpaceOnUse">
			<stop offset="0.2" stop-color="#000000"/>
			<stop offset="0.8" stop-color="#ffffff"/>
		</linearGradient>
		<radialGradient cx="0" cy="0" r="1448.15" id="color-Zr71UHWb" gradientUnits="userSpaceOnUse">
			<stop offset="0.08" stop-color="#ffffff"/>
			<stop offset="1" stop-color="#000000"/>
		</radialGradient>
		<filter id="filter-fslXkWVJ" color-interpolation-filters="sRGB">
			<feOffset/>
		</filter>
		<mask id="mask-AE1Ky2vV">
			<path d="M902.4,430.94v405.33c0,81.43 -65.77,147.2 -147.2,147.2h-243.2c-14.14,0 -25.6,-11.46 -25.6,-25.6v-81.06c0,-14.14 11.46,-25.6 25.6,-25.6h100.81c-3.03,-4.2 -4.81,-9.36 -4.81,-14.94v-324.26c0,-14.14 11.46,-25.6 25.6,-25.6h136.54v-55.46c0,-142.73 -115.41,-258.14 -258.14,-258.14c-142.73,0 -258.14,115.41 -258.14,258.14v55.46h136.54c14.14,0 25.6,11.46 25.6,25.6v324.26c0,14.14 -11.46,25.6 -25.6,25.6h-121.6c-81.43,0 -147.2,-65.77 -147.2,-147.2v-283.73c0,-215.59 174.81,-390.4 390.4,-390.4c215.59,0 390.4,174.81 390.4,390.4zM512,66.14c-201.45,0 -364.8,163.35 -364.8,364.8v283.73c0,67.29 54.31,121.6 121.6,121.6h121.6v-324.26h-162.14v-81.06c0,-156.86 126.87,-283.74 283.74,-283.74c156.86,0 283.74,126.87 283.74,283.74v81.06h-162.14v324.26h162.14v40.54h-283.74v81.06h243.2c67.29,0 121.6,-54.31 121.6,-121.6v-405.33c0,-201.45 -163.35,-364.8 -364.8,-364.8z" fill="url(#color-Zr71UHWb)"/>
		</mask>
		<mask id="mask-GMyf5YcV">
			<path d="M902.4,430.94v405.33c0,81.43 -65.77,147.2 -147.2,147.2h-243.2c-14.14,0 -25.6,-11.46 -25.6,-25.6v-81.06c0,-14.14 11.46,-25.6 25.6,-25.6h100.81c-3.03,-4.2 -4.81,-9.36 -4.81,-14.94v-324.26c0,-14.14 11.46,-25.6 25.6,-25.6h136.54v-55.46c0,-142.73 -115.41,-258.14 -258.14,-258.14c-142.73,0 -258.14,115.41 -258.14,258.14v55.46h136.54c14.14,0 25.6,11.46 25.6,25.6v324.26c0,14.14 -11.46,25.6 -25.6,25.6h-121.6c-81.43,0 -147.2,-65.77 -147.2,-147.2v-283.73c0,-215.59 174.81,-390.4 390.4,-390.4c215.59,0 390.4,174.81 390.4,390.4zM512,66.14c-201.45,0 -364.8,163.35 -364.8,364.8v283.73c0,67.29 54.31,121.6 121.6,121.6h121.6v-324.26h-162.14v-81.06c0,-156.86 126.87,-283.74 283.74,-283.74c156.86,0 283.74,126.87 283.74,283.74v81.06h-162.14v324.26h162.14v40.54h-283.74v81.06h243.2c67.29,0 121.6,-54.31 121.6,-121.6v-405.33c0,-201.45 -163.35,-364.8 -364.8,-364.8z" fill="#ffffff"/>
		</mask>
		<mask id="mask-i7hOW313">
			<rect fill="url(#color-YB4IXYTA)" x="121.6" y="40.54" width="780.8" height="942.93"/>
		</mask>
	</defs>
	<g fill="none" fill-rule="nonzero" style="mix-blend-mode: normal">
		<g mask="url(#mask-GMyf5YcV)">
			<g color="#ff0000" class="teamapps-color-2">
				<rect x="121.6" y="40.54" width="780.8" height="942.93" fill="currentColor"/>
			</g>
			<g color="#bc13e0" class="teamapps-color-3" mask="url(#mask-i7hOW313)">
				<rect x="121.6" y="40.54" width="780.8" height="942.93" fill="currentColor"/>
			</g>
		</g>
		<g filter="url(#filter-fslXkWVJ)" mask="url(#mask-AE1Ky2vV)">
			<g color="#fff961" class="teamapps-color-1">
				<rect x="121.6" y="40.54" width="780.8" height="942.93" fill="currentColor"/>
			</g>
		</g>
	</g>
</svg>