<svg version="1.1" xmlns="http://www.w3.org/2000/svg" xmlns:xlink="http://www.w3.org/1999/xlink" viewBox="0,0,1024,1024">
	<!-- Color names: teamapps-color-1, teamapps-color-2, teamapps-color-3 -->
	<desc>hot_tub icon - Licensed under Apache License v2.0 (http://www.apache.org/licenses/LICENSE-2.0) - Created with Iconfu.com - Derivative work of Material icons (Copyright Google Inc.)</desc>
	<defs>
		<radialGradient cx="0" cy="0" r="1448.15" id="color-b5M57G4s" gradientUnits="userSpaceOnUse">
			<stop offset="0.08" stop-color="#ffffff"/>
			<stop offset="1" stop-color="#000000"/>
		</radialGradient>
		<linearGradient x1="0" y1="1024" x2="1024" y2="0" id="color-QAAAWm15" gradientUnits="userSpaceOnUse">
			<stop offset="0.2" stop-color="#000000"/>
			<stop offset="0.8" stop-color="#ffffff"/>
		</linearGradient>
		<filter id="filter-yzOeeFQp" color-interpolation-filters="sRGB">
			<feOffset/>
		</filter>
		<mask id="mask-5xytKh4B">
			<path d="M942.94,512v324.26c0,58.72 -47.95,106.67 -106.67,106.67h-648.53c-58.72,0 -106.67,-47.95 -106.67,-106.67v-324.26c0,-14.14 11.46,-25.6 25.6,-25.6h96v-4.8c0,-50.72 32.5,-94 77.78,-110.1c-44.87,-12.6 -77.78,-53.8 -77.78,-102.7c0,-58.92 47.76,-106.66 106.67,-106.66c58.91,0 106.66,47.75 106.66,106.66c0,45.32 -28.26,84.04 -68.13,99.49c8.03,2.05 15.63,4.91 22.65,8.28c13.29,6.17 25.84,15 36.02,26.24l56.77,62.84c6.23,7.04 13.95,14.09 22.64,20.74h431.39c14.14,0 25.6,11.46 25.6,25.6zM697.43,417.22l-2.41,17.25c-1.76,12.65 -12.58,22.06 -25.35,22.06h-77.42c-7.61,0 -14.83,-3.39 -19.69,-9.24c-4.86,-5.85 -6.87,-13.57 -5.48,-21.05l4.46,-23.95c4.35,-22.92 -2.43,-46.53 -19.89,-66.09l-2.86,-2.52c-47.26,-46.34 -69.44,-109.08 -60.12,-172.69l2.42,-17.34c1.76,-12.65 12.58,-22.06 25.35,-22.06h76.61c7.46,0 14.56,3.26 19.42,8.92c4.86,5.66 7.01,13.16 5.89,20.54l-3.7,24.2c-0.03,0.21 -0.07,0.42 -0.11,0.62c-4.4,23.18 2.6,47.01 20.51,66.7l2.31,2.31c47.15,45.85 69.82,108.57 60.04,172.32zM859.57,417.22l-2.41,17.25c-1.76,12.65 -12.58,22.06 -25.35,22.06h-77.42c-7.61,0 -14.83,-3.39 -19.69,-9.24c-4.86,-5.85 -6.87,-13.57 -5.48,-21.05l4.46,-23.95c4.35,-22.92 -2.43,-46.54 -19.92,-66.1l-2.84,-2.5c-47.26,-46.34 -69.44,-109.08 -60.12,-172.69l2.42,-17.34c1.76,-12.65 12.58,-22.06 25.35,-22.06h76.61c7.46,0 14.56,3.26 19.42,8.92c4.86,5.66 7.01,13.16 5.89,20.54l-3.7,24.2c-0.03,0.21 -0.07,0.42 -0.11,0.62c-4.4,23.18 2.6,47.03 20.53,66.72l2.3,2.31c47.13,45.85 69.82,108.56 60.04,172.31zM740.26,618.66v192h29.87v-192zM253.86,618.66v192h29.87v-192zM578.14,618.66v192h29.86v-192zM416,618.66v192h29.86v-192zM309.34,349.86c44.77,0 81.06,-36.29 81.06,-81.06c0,-44.77 -36.29,-81.06 -81.06,-81.06c-44.77,0 -81.07,36.29 -81.07,81.06c0,44.77 36.3,81.06 81.07,81.06zM477.54,512c-12.57,-8.92 -23.91,-18.65 -33.23,-29.18l-56.75,-62.82c-7.7,-8.51 -17.43,-15.41 -27.97,-20.27c-11.75,-5.67 -25.13,-9.32 -38.91,-9.32h-1.22c-50.26,0 -91.2,40.94 -91.2,91.2v30.4h-121.6v324.26c0,44.58 36.49,81.07 81.07,81.07h648.53c44.58,0 81.07,-36.49 81.07,-81.07v-324.26zM781.54,263.13l-2.83,-2.84c-23.1,-25.13 -33.24,-57.15 -27.16,-89.18l3.65,-23.91h-76.61l-2.43,17.43c-8.1,55.13 10.94,109.85 52.7,150.78l2.83,2.43c23.1,25.13 33.24,57.14 27.16,89.17l-4.46,23.92h77.42l2.43,-17.43c8.51,-55.13 -10.94,-109.84 -52.7,-150.38zM619.42,263.13l-2.84,-2.84c-23.1,-25.13 -33.24,-57.15 -27.16,-89.18l3.65,-23.91h-76.61l-2.43,17.43c-8.1,55.13 10.94,109.85 52.7,150.78l2.84,2.43c23.1,25.13 33.23,57.14 27.15,89.17l-4.46,23.92h77.42l2.43,-17.43c8.51,-55.13 -10.93,-109.84 -52.69,-150.38zM633.6,836.26h-81.06v-243.2h81.06zM795.74,836.26h-81.07v-243.2h81.07zM309.34,836.26h-81.07v-243.2h81.07zM471.46,836.26h-81.06v-243.2h81.06z" fill="url(#color-b5M57G4s)"/>
		</mask>
		<mask id="mask-XS9Gg9L6">
			<rect fill="url(#color-QAAAWm15)" x="81.06" y="121.6" width="861.87" height="821.34"/>
		</mask>
		<mask id="mask-Z9UiFrzH">
			<path d="M942.94,512v324.26c0,58.72 -47.95,106.67 -106.67,106.67h-648.53c-58.72,0 -106.67,-47.95 -106.67,-106.67v-324.26c0,-14.14 11.46,-25.6 25.6,-25.6h96v-4.8c0,-50.72 32.5,-94 77.78,-110.1c-44.87,-12.6 -77.78,-53.8 -77.78,-102.7c0,-58.92 47.76,-106.66 106.67,-106.66c58.91,0 106.66,47.75 106.66,106.66c0,45.32 -28.26,84.04 -68.13,99.49c8.03,2.05 15.63,4.91 22.65,8.28c13.29,6.17 25.84,15 36.02,26.24l56.77,62.84c6.23,7.04 13.95,14.09 22.64,20.74h431.39c14.14,0 25.6,11.46 25.6,25.6zM697.43,417.22l-2.41,17.25c-1.76,12.65 -12.58,22.06 -25.35,22.06h-77.42c-7.61,0 -14.83,-3.39 -19.69,-9.24c-4.86,-5.85 -6.87,-13.57 -5.48,-21.05l4.46,-23.95c4.35,-22.92 -2.43,-46.53 -19.89,-66.09l-2.86,-2.52c-47.26,-46.34 -69.44,-109.08 -60.12,-172.69l2.42,-17.34c1.76,-12.65 12.58,-22.06 25.35,-22.06h76.61c7.46,0 14.56,3.26 19.42,8.92c4.86,5.66 7.01,13.16 5.89,20.54l-3.7,24.2c-0.03,0.21 -0.07,0.42 -0.11,0.62c-4.4,23.18 2.6,47.01 20.51,66.7l2.31,2.31c47.15,45.85 69.82,108.57 60.04,172.32zM859.57,417.22l-2.41,17.25c-1.76,12.65 -12.58,22.06 -25.35,22.06h-77.42c-7.61,0 -14.83,-3.39 -19.69,-9.24c-4.86,-5.85 -6.87,-13.57 -5.48,-21.05l4.46,-23.95c4.35,-22.92 -2.43,-46.54 -19.92,-66.1l-2.84,-2.5c-47.26,-46.34 -69.44,-109.08 -60.12,-172.69l2.42,-17.34c1.76,-12.65 12.58,-22.06 25.35,-22.06h76.61c7.46,0 14.56,3.26 19.42,8.92c4.86,5.66 7.01,13.16 5.89,20.54l-3.7,24.2c-0.03,0.21 -0.07,0.42 -0.11,0.62c-4.4,23.18 2.6,47.03 20.53,66.72l2.3,2.31c47.13,45.85 69.82,108.56 60.04,172.31zM740.26,618.66v192h29.87v-192zM253.86,618.66v192h29.87v-192zM578.14,618.66v192h29.86v-192zM416,618.66v192h29.86v-192zM309.34,349.86c44.77,0 81.06,-36.29 81.06,-81.06c0,-44.77 -36.29,-81.06 -81.06,-81.06c-44.77,0 -81.07,36.29 -81.07,81.06c0,44.77 36.3,81.06 81.07,81.06zM477.54,512c-12.57,-8.92 -23.91,-18.65 -33.23,-29.18l-56.75,-62.82c-7.7,-8.51 -17.43,-15.41 -27.97,-20.27c-11.75,-5.67 -25.13,-9.32 -38.91,-9.32h-1.22c-50.26,0 -91.2,40.94 -91.2,91.2v30.4h-121.6v324.26c0,44.58 36.49,81.07 81.07,81.07h648.53c44.58,0 81.07,-36.49 81.07,-81.07v-324.26zM781.54,263.13l-2.83,-2.84c-23.1,-25.13 -33.24,-57.15 -27.16,-89.18l3.65,-23.91h-76.61l-2.43,17.43c-8.1,55.13 10.94,109.85 52.7,150.78l2.83,2.43c23.1,25.13 33.24,57.14 27.16,89.17l-4.46,23.92h77.42l2.43,-17.43c8.51,-55.13 -10.94,-109.84 -52.7,-150.38zM619.42,263.13l-2.84,-2.84c-23.1,-25.13 -33.24,-57.15 -27.16,-89.18l3.65,-23.91h-76.61l-2.43,17.43c-8.1,55.13 10.94,109.85 52.7,150.78l2.84,2.43c23.1,25.13 33.23,57.14 27.15,89.17l-4.46,23.92h77.42l2.43,-17.43c8.51,-55.13 -10.93,-109.84 -52.69,-150.38zM633.6,836.26h-81.06v-243.2h81.06zM795.74,836.26h-81.07v-243.2h81.07zM309.34,836.26h-81.07v-243.2h81.07zM471.46,836.26h-81.06v-243.2h81.06z" fill="#ffffff"/>
		</mask>
	</defs>
	<g fill="none" fill-rule="nonzero" style="mix-blend-mode: normal">
		<g mask="url(#mask-Z9UiFrzH)">
			<g color="#ff0000" class="teamapps-color-2">
				<rect x="81.06" y="121.6" width="861.87" height="821.34" fill="currentColor"/>
			</g>
			<g color="#bc13e0" class="teamapps-color-3" mask="url(#mask-XS9Gg9L6)">
				<rect x="81.06" y="121.6" width="861.87" height="821.34" fill="currentColor"/>
			</g>
		</g>
		<g filter="url(#filter-yzOeeFQp)" mask="url(#mask-5xytKh4B)">
			<g color="#fff961" class="teamapps-color-1">
				<rect x="81.06" y="121.6" width="861.87" height="821.34" fill="currentColor"/>
			</g>
		</g>
	</g>
</svg>