<svg version="1.1" xmlns="http://www.w3.org/2000/svg" xmlns:xlink="http://www.w3.org/1999/xlink" viewBox="0,0,1024,1024">
	<!-- Color names: teamapps-color-1, teamapps-color-2, teamapps-color-3 -->
	<desc>keyboard_return icon - Licensed under Apache License v2.0 (http://www.apache.org/licenses/LICENSE-2.0) - Created with Iconfu.com - Derivative work of Material icons (Copyright Google Inc.)</desc>
	<defs>
		<linearGradient x1="0" y1="1024" x2="1024" y2="0" id="color-LtxdzQDA" gradientUnits="userSpaceOnUse">
			<stop offset="0.2" stop-color="#000000"/>
			<stop offset="0.8" stop-color="#ffffff"/>
		</linearGradient>
		<radialGradient cx="0" cy="0" r="1448.15" id="color-WsGb3XrY" gradientUnits="userSpaceOnUse">
			<stop offset="0.08" stop-color="#ffffff"/>
			<stop offset="1" stop-color="#000000"/>
		</radialGradient>
		<filter id="filter-AY30Ca5W" color-interpolation-filters="sRGB">
			<feOffset/>
		</filter>
		<mask id="mask-DHKz9DBO">
			<path d="M902.4,309.34v243.2c0,14.14 -11.46,25.6 -25.6,25.6h-553.21l101.55,101.84c9.97,10 9.96,26.19 -0.03,36.18l-57.15,57.15c-10,10 -26.21,10 -36.2,0l-243.2,-243.2c-10,-10 -10,-26.21 0,-36.2l243.2,-243.2c10,-10 26.21,-10 36.2,0l57.15,57.15c9.99,9.99 10,26.18 0.03,36.18l-101.55,101.84h446.54v-136.53c0,-14.14 11.46,-25.6 25.6,-25.6h81.06c14.14,0 25.6,11.46 25.6,25.6zM795.74,309.34v162.13h-533.82l145.1,-145.51l-57.15,-57.15l-243.2,243.2l243.2,243.2l57.15,-57.15l-145.1,-145.51h614.89v-243.2z" fill="#ffffff"/>
		</mask>
		<mask id="mask-mMsHrtO6">
			<rect fill="url(#color-LtxdzQDA)" x="81.06" y="243.2" width="821.34" height="537.6"/>
		</mask>
		<mask id="mask-vqeqX44F">
			<path d="M902.4,309.34v243.2c0,14.14 -11.46,25.6 -25.6,25.6h-553.21l101.55,101.84c9.97,10 9.96,26.19 -0.03,36.18l-57.15,57.15c-10,10 -26.21,10 -36.2,0l-243.2,-243.2c-10,-10 -10,-26.21 0,-36.2l243.2,-243.2c10,-10 26.21,-10 36.2,0l57.15,57.15c9.99,9.99 10,26.18 0.03,36.18l-101.55,101.84h446.54v-136.53c0,-14.14 11.46,-25.6 25.6,-25.6h81.06c14.14,0 25.6,11.46 25.6,25.6zM795.74,309.34v162.13h-533.82l145.1,-145.51l-57.15,-57.15l-243.2,243.2l243.2,243.2l57.15,-57.15l-145.1,-145.51h614.89v-243.2z" fill="url(#color-WsGb3XrY)"/>
		</mask>
	</defs>
	<g fill="none" fill-rule="nonzero" style="mix-blend-mode: normal">
		<g mask="url(#mask-DHKz9DBO)">
			<g color="#ff0000" class="teamapps-color-2">
				<rect x="81.06" y="243.2" width="821.34" height="537.6" fill="currentColor"/>
			</g>
			<g color="#bc13e0" class="teamapps-color-3" mask="url(#mask-mMsHrtO6)">
				<rect x="81.06" y="243.2" width="821.34" height="537.6" fill="currentColor"/>
			</g>
		</g>
		<g filter="url(#filter-AY30Ca5W)" mask="url(#mask-vqeqX44F)">
			<g color="#fff961" class="teamapps-color-1">
				<rect x="81.06" y="243.2" width="821.34" height="537.6" fill="currentColor"/>
			</g>
		</g>
	</g>
</svg>