<svg version="1.1" xmlns="http://www.w3.org/2000/svg" xmlns:xlink="http://www.w3.org/1999/xlink" viewBox="0,0,1024,1024">
	<!-- Color names: teamapps-color-1, teamapps-color-2, teamapps-color-3 -->
	<desc>list icon - Licensed under Apache License v2.0 (http://www.apache.org/licenses/LICENSE-2.0) - Created with Iconfu.com - Derivative work of Material icons (Copyright Google Inc.)</desc>
	<defs>
		<radialGradient cx="0" cy="0" r="1448.15" id="color-iMcA3jAe" gradientUnits="userSpaceOnUse">
			<stop offset="0.08" stop-color="#ffffff"/>
			<stop offset="1" stop-color="#000000"/>
		</radialGradient>
		<linearGradient x1="0" y1="1024" x2="1024" y2="0" id="color-ZzoC4QDj" gradientUnits="userSpaceOnUse">
			<stop offset="0.2" stop-color="#000000"/>
			<stop offset="0.8" stop-color="#ffffff"/>
		</linearGradient>
		<filter id="filter-C9K6xX02" color-interpolation-filters="sRGB">
			<feOffset/>
		</filter>
		<mask id="mask-bv2rvYGl">
			<rect fill="url(#color-ZzoC4QDj)" x="121.6" y="283.74" width="780.8" height="456.53"/>
		</mask>
		<mask id="mask-j6o6JG9x">
			<path d="M309.34,445.86h567.46c14.14,0 25.6,11.46 25.6,25.6v81.07c0,14.14 -11.46,25.6 -25.6,25.6h-567.46c-14.14,0 -25.6,-11.46 -25.6,-25.6v-81.07c0,-14.14 11.46,-25.6 25.6,-25.6zM902.4,309.34v81.06c0,14.14 -11.46,25.6 -25.6,25.6h-567.46c-14.14,0 -25.6,-11.46 -25.6,-25.6v-81.06c0,-14.14 11.46,-25.6 25.6,-25.6h567.46c14.14,0 25.6,11.46 25.6,25.6zM309.34,608h567.46c14.14,0 25.6,11.46 25.6,25.6v81.06c0,14.14 -11.46,25.6 -25.6,25.6h-567.46c-14.14,0 -25.6,-11.46 -25.6,-25.6v-81.06c0,-14.14 11.46,-25.6 25.6,-25.6zM147.2,445.86h81.06c14.14,0 25.6,11.46 25.6,25.6v81.07c0,14.14 -11.46,25.6 -25.6,25.6h-81.06c-14.14,0 -25.6,-11.46 -25.6,-25.6v-81.07c0,-14.14 11.46,-25.6 25.6,-25.6zM147.2,283.74h81.06c14.14,0 25.6,11.46 25.6,25.6v81.06c0,14.14 -11.46,25.6 -25.6,25.6h-81.06c-14.14,0 -25.6,-11.46 -25.6,-25.6v-81.06c0,-14.14 11.46,-25.6 25.6,-25.6zM147.2,608h81.06c14.14,0 25.6,11.46 25.6,25.6v81.06c0,14.14 -11.46,25.6 -25.6,25.6h-81.06c-14.14,0 -25.6,-11.46 -25.6,-25.6v-81.06c0,-14.14 11.46,-25.6 25.6,-25.6zM309.34,309.34v81.06h567.46v-81.06zM309.34,552.54h567.46v-81.07h-567.46zM309.34,714.66h567.46v-81.06h-567.46zM147.2,390.4h81.06v-81.06h-81.06zM147.2,552.54h81.06v-81.07h-81.06zM147.2,714.66h81.06v-81.06h-81.06z" fill="#ffffff"/>
		</mask>
		<mask id="mask-L1GxcYbc">
			<path d="M309.34,445.86h567.46c14.14,0 25.6,11.46 25.6,25.6v81.07c0,14.14 -11.46,25.6 -25.6,25.6h-567.46c-14.14,0 -25.6,-11.46 -25.6,-25.6v-81.07c0,-14.14 11.46,-25.6 25.6,-25.6zM902.4,309.34v81.06c0,14.14 -11.46,25.6 -25.6,25.6h-567.46c-14.14,0 -25.6,-11.46 -25.6,-25.6v-81.06c0,-14.14 11.46,-25.6 25.6,-25.6h567.46c14.14,0 25.6,11.46 25.6,25.6zM309.34,608h567.46c14.14,0 25.6,11.46 25.6,25.6v81.06c0,14.14 -11.46,25.6 -25.6,25.6h-567.46c-14.14,0 -25.6,-11.46 -25.6,-25.6v-81.06c0,-14.14 11.46,-25.6 25.6,-25.6zM147.2,445.86h81.06c14.14,0 25.6,11.46 25.6,25.6v81.07c0,14.14 -11.46,25.6 -25.6,25.6h-81.06c-14.14,0 -25.6,-11.46 -25.6,-25.6v-81.07c0,-14.14 11.46,-25.6 25.6,-25.6zM147.2,283.74h81.06c14.14,0 25.6,11.46 25.6,25.6v81.06c0,14.14 -11.46,25.6 -25.6,25.6h-81.06c-14.14,0 -25.6,-11.46 -25.6,-25.6v-81.06c0,-14.14 11.46,-25.6 25.6,-25.6zM147.2,608h81.06c14.14,0 25.6,11.46 25.6,25.6v81.06c0,14.14 -11.46,25.6 -25.6,25.6h-81.06c-14.14,0 -25.6,-11.46 -25.6,-25.6v-81.06c0,-14.14 11.46,-25.6 25.6,-25.6zM309.34,309.34v81.06h567.46v-81.06zM309.34,552.54h567.46v-81.07h-567.46zM309.34,714.66h567.46v-81.06h-567.46zM147.2,390.4h81.06v-81.06h-81.06zM147.2,552.54h81.06v-81.07h-81.06zM147.2,714.66h81.06v-81.06h-81.06z" fill="url(#color-iMcA3jAe)"/>
		</mask>
	</defs>
	<g fill="none" fill-rule="nonzero" style="mix-blend-mode: normal">
		<g mask="url(#mask-j6o6JG9x)">
			<g color="#ff0000" class="teamapps-color-2">
				<rect x="121.6" y="283.74" width="780.8" height="456.53" fill="currentColor"/>
			</g>
			<g color="#bc13e0" class="teamapps-color-3" mask="url(#mask-bv2rvYGl)">
				<rect x="121.6" y="283.74" width="780.8" height="456.53" fill="currentColor"/>
			</g>
		</g>
		<g filter="url(#filter-C9K6xX02)" mask="url(#mask-L1GxcYbc)">
			<g color="#fff961" class="teamapps-color-1">
				<rect x="121.6" y="283.74" width="780.8" height="456.53" fill="currentColor"/>
			</g>
		</g>
	</g>
</svg>