<svg version="1.1" xmlns="http://www.w3.org/2000/svg" xmlns:xlink="http://www.w3.org/1999/xlink" viewBox="0,0,1024,1024">
	<!-- Color names: teamapps-color-1, teamapps-color-2, teamapps-color-3 -->
	<desc>local_taxi icon - Licensed under Apache License v2.0 (http://www.apache.org/licenses/LICENSE-2.0) - Created with Iconfu.com - Derivative work of Material icons (Copyright Google Inc.)</desc>
	<defs>
		<radialGradient cx="0" cy="0" r="1448.15" id="color-c39TGMEp" gradientUnits="userSpaceOnUse">
			<stop offset="0.08" stop-color="#ffffff"/>
			<stop offset="1" stop-color="#000000"/>
		</radialGradient>
		<linearGradient x1="0" y1="1024" x2="1024" y2="0" id="color-Mb3MMiem" gradientUnits="userSpaceOnUse">
			<stop offset="0.2" stop-color="#000000"/>
			<stop offset="0.8" stop-color="#ffffff"/>
		</linearGradient>
		<filter id="filter-koeDj08k" color-interpolation-filters="sRGB">
			<feOffset/>
		</filter>
		<mask id="mask-aALqlowG">
			<path d="M902.4,512v324.26c0,36.43 -29.7,66.14 -66.14,66.14h-40.53c-36.43,0 -66.14,-29.7 -66.14,-66.14v-14.93h-435.2v14.93c0,36.43 -29.7,66.14 -66.14,66.14h-40.53c-36.43,0 -66.14,-29.7 -66.14,-66.14v-324.26c0,-2.86 0.48,-5.7 1.42,-8.4l84.33,-242.85c11.95,-33.56 43.56,-58.09 81.71,-58.09h75.74v-55.46c0,-14.14 11.46,-25.6 25.6,-25.6h243.2c14.14,0 25.6,11.46 25.6,25.6v55.46h75.74c37.84,0 70.16,24.13 81.76,58.23l84.28,242.71c0.94,2.7 1.42,5.54 1.42,8.4zM716.49,314.66h-408.97l-43.73,131.2h496.44zM770.14,613.34c0,-19.5 -15.7,-35.2 -35.2,-35.2c-19.5,0 -35.2,15.7 -35.2,35.2c0,19.5 15.7,35.2 35.2,35.2c19.5,0 35.2,-15.7 35.2,-35.2zM324.26,613.34c0,-19.5 -15.7,-35.2 -35.2,-35.2c-19.5,0 -35.2,15.7 -35.2,35.2c0,19.5 15.7,35.2 35.2,35.2c19.5,0 35.2,-15.7 35.2,-35.2zM792.49,269.21c-8.1,-23.91 -30.8,-40.95 -57.55,-40.95h-101.34v-81.06h-243.2v81.06h-101.34c-26.75,0 -49.04,17.03 -57.55,40.95l-84.31,242.79v324.26c0,22.3 18.24,40.54 40.54,40.54h40.53c22.3,0 40.54,-18.24 40.54,-40.54v-40.53h486.4v40.53c0,22.3 18.24,40.54 40.54,40.54h40.53c22.3,0 40.54,-18.24 40.54,-40.54v-324.26zM228.26,471.46l60.8,-182.4h445.87l60.8,182.4zM289.06,674.14c-33.64,0 -60.8,-27.16 -60.8,-60.8c0,-33.64 27.16,-60.8 60.8,-60.8c33.64,0 60.8,27.16 60.8,60.8c0,33.64 -27.16,60.8 -60.8,60.8zM734.94,674.14c-33.64,0 -60.8,-27.16 -60.8,-60.8c0,-33.64 27.16,-60.8 60.8,-60.8c33.64,0 60.8,27.16 60.8,60.8c0,33.64 -27.16,60.8 -60.8,60.8z" fill="#ffffff"/>
		</mask>
		<mask id="mask-L2rcvmm6">
			<path d="M902.4,512v324.26c0,36.43 -29.7,66.14 -66.14,66.14h-40.53c-36.43,0 -66.14,-29.7 -66.14,-66.14v-14.93h-435.2v14.93c0,36.43 -29.7,66.14 -66.14,66.14h-40.53c-36.43,0 -66.14,-29.7 -66.14,-66.14v-324.26c0,-2.86 0.48,-5.7 1.42,-8.4l84.33,-242.85c11.95,-33.56 43.56,-58.09 81.71,-58.09h75.74v-55.46c0,-14.14 11.46,-25.6 25.6,-25.6h243.2c14.14,0 25.6,11.46 25.6,25.6v55.46h75.74c37.84,0 70.16,24.13 81.76,58.23l84.28,242.71c0.94,2.7 1.42,5.54 1.42,8.4zM716.49,314.66h-408.97l-43.73,131.2h496.44zM770.14,613.34c0,-19.5 -15.7,-35.2 -35.2,-35.2c-19.5,0 -35.2,15.7 -35.2,35.2c0,19.5 15.7,35.2 35.2,35.2c19.5,0 35.2,-15.7 35.2,-35.2zM324.26,613.34c0,-19.5 -15.7,-35.2 -35.2,-35.2c-19.5,0 -35.2,15.7 -35.2,35.2c0,19.5 15.7,35.2 35.2,35.2c19.5,0 35.2,-15.7 35.2,-35.2zM792.49,269.21c-8.1,-23.91 -30.8,-40.95 -57.55,-40.95h-101.34v-81.06h-243.2v81.06h-101.34c-26.75,0 -49.04,17.03 -57.55,40.95l-84.31,242.79v324.26c0,22.3 18.24,40.54 40.54,40.54h40.53c22.3,0 40.54,-18.24 40.54,-40.54v-40.53h486.4v40.53c0,22.3 18.24,40.54 40.54,40.54h40.53c22.3,0 40.54,-18.24 40.54,-40.54v-324.26zM228.26,471.46l60.8,-182.4h445.87l60.8,182.4zM289.06,674.14c-33.64,0 -60.8,-27.16 -60.8,-60.8c0,-33.64 27.16,-60.8 60.8,-60.8c33.64,0 60.8,27.16 60.8,60.8c0,33.64 -27.16,60.8 -60.8,60.8zM734.94,674.14c-33.64,0 -60.8,-27.16 -60.8,-60.8c0,-33.64 27.16,-60.8 60.8,-60.8c33.64,0 60.8,27.16 60.8,60.8c0,33.64 -27.16,60.8 -60.8,60.8z" fill="url(#color-c39TGMEp)"/>
		</mask>
		<mask id="mask-udgxKlhW">
			<rect fill="url(#color-Mb3MMiem)" x="121.6" y="121.6" width="780.8" height="780.8"/>
		</mask>
	</defs>
	<g fill="none" fill-rule="nonzero" style="mix-blend-mode: normal">
		<g mask="url(#mask-aALqlowG)">
			<g color="#ff0000" class="teamapps-color-2">
				<rect x="121.6" y="121.6" width="780.8" height="780.8" fill="currentColor"/>
			</g>
			<g color="#bc13e0" class="teamapps-color-3" mask="url(#mask-udgxKlhW)">
				<rect x="121.6" y="121.6" width="780.8" height="780.8" fill="currentColor"/>
			</g>
		</g>
		<g filter="url(#filter-koeDj08k)" mask="url(#mask-L2rcvmm6)">
			<g color="#fff961" class="teamapps-color-1">
				<rect x="121.6" y="121.6" width="780.8" height="780.8" fill="currentColor"/>
			</g>
		</g>
	</g>
</svg>