<svg version="1.1" xmlns="http://www.w3.org/2000/svg" xmlns:xlink="http://www.w3.org/1999/xlink" viewBox="0,0,1024,1024">
	<!-- Color names: teamapps-color-1, teamapps-color-2, teamapps-color-3 -->
	<desc>local_laundry_service icon - Licensed under Apache License v2.0 (http://www.apache.org/licenses/LICENSE-2.0) - Created with Iconfu.com - Derivative work of Material icons (Copyright Google Inc.)</desc>
	<defs>
		<radialGradient cx="0" cy="0" r="1448.15" id="color-bG6QzMKg" gradientUnits="userSpaceOnUse">
			<stop offset="0.08" stop-color="#ffffff"/>
			<stop offset="1" stop-color="#000000"/>
		</radialGradient>
		<linearGradient x1="0" y1="1024" x2="1024" y2="0" id="color-LnI7P5Wx" gradientUnits="userSpaceOnUse">
			<stop offset="0.2" stop-color="#000000"/>
			<stop offset="0.8" stop-color="#ffffff"/>
		</linearGradient>
		<filter id="filter-pHc0IpXY" color-interpolation-filters="sRGB">
			<feOffset/>
		</filter>
		<mask id="mask-3zGViaQ4">
			<path d="M861.86,187.74v648.53c0,59.13 -47.53,106.67 -106.66,106.67h-486.4c-59.13,0 -106.66,-47.55 -106.66,-106.67v-648.53c0,-59.13 47.53,-106.67 106.66,-106.67l486.42,0.41c58.96,0 106.64,46.97 106.64,106.26zM729.6,593.06c0,-120.03 -97.57,-217.6 -217.6,-217.6c-120.03,0 -217.6,97.57 -217.6,217.6c0,120.03 97.57,217.6 217.6,217.6c120.03,0 217.6,-97.57 217.6,-217.6zM644.81,460.26c73.23,73.23 73.23,192.39 0,265.62c-73.23,73.23 -192.4,73.23 -265.63,0c-10,-10 -10,-26.21 0,-36.2l229.43,-229.42c10,-10 26.21,-10 36.2,0zM416,228.26c0,8.16 6.78,14.94 14.94,14.94c8.15,0 14.93,-6.77 14.93,-14.94c0,-8.16 -6.77,-14.93 -14.93,-14.93c-8.17,0 -14.94,6.78 -14.94,14.93zM294.4,228.26c0,8.16 6.78,14.94 14.94,14.94c8.15,0 14.93,-6.77 14.93,-14.94c0,-8.16 -6.77,-14.93 -14.93,-14.93c-8.17,0 -14.94,6.78 -14.94,14.93zM755.2,107.07l-486.4,-0.41c-44.99,0 -81.06,36.08 -81.06,81.07v648.53c0,44.99 36.07,81.07 81.06,81.07h486.4c44.99,0 81.06,-36.08 81.06,-81.07v-648.53c0,-44.99 -36.07,-80.66 -81.06,-80.66zM512,836.26c-134.17,0 -243.2,-109.03 -243.2,-243.2c0,-134.17 109.03,-243.2 243.2,-243.2c134.17,0 243.2,109.03 243.2,243.2c0,134.17 -109.03,243.2 -243.2,243.2zM397.29,707.78c63.23,63.23 166.19,63.23 229.42,0c63.23,-63.23 63.23,-166.18 0,-229.42zM430.94,187.74c22.3,0 40.53,18.23 40.53,40.53c0,22.3 -18.23,40.54 -40.53,40.54c-22.3,0 -40.54,-18.24 -40.54,-40.54c0,-22.3 18.24,-40.53 40.54,-40.53zM309.34,187.74c22.3,0 40.53,18.23 40.53,40.53c0,22.3 -18.23,40.54 -40.53,40.54c-22.3,0 -40.54,-18.24 -40.54,-40.54c0,-22.3 18.24,-40.53 40.54,-40.53z" fill="url(#color-bG6QzMKg)"/>
		</mask>
		<mask id="mask-9fiN41cn">
			<rect fill="url(#color-LnI7P5Wx)" x="162.14" y="81.06" width="699.73" height="861.87"/>
		</mask>
		<mask id="mask-ZjJQVonP">
			<path d="M861.86,187.74v648.53c0,59.13 -47.53,106.67 -106.66,106.67h-486.4c-59.13,0 -106.66,-47.55 -106.66,-106.67v-648.53c0,-59.13 47.53,-106.67 106.66,-106.67l486.42,0.41c58.96,0 106.64,46.97 106.64,106.26zM729.6,593.06c0,-120.03 -97.57,-217.6 -217.6,-217.6c-120.03,0 -217.6,97.57 -217.6,217.6c0,120.03 97.57,217.6 217.6,217.6c120.03,0 217.6,-97.57 217.6,-217.6zM644.81,460.26c73.23,73.23 73.23,192.39 0,265.62c-73.23,73.23 -192.4,73.23 -265.63,0c-10,-10 -10,-26.21 0,-36.2l229.43,-229.42c10,-10 26.21,-10 36.2,0zM416,228.26c0,8.16 6.78,14.94 14.94,14.94c8.15,0 14.93,-6.77 14.93,-14.94c0,-8.16 -6.77,-14.93 -14.93,-14.93c-8.17,0 -14.94,6.78 -14.94,14.93zM294.4,228.26c0,8.16 6.78,14.94 14.94,14.94c8.15,0 14.93,-6.77 14.93,-14.94c0,-8.16 -6.77,-14.93 -14.93,-14.93c-8.17,0 -14.94,6.78 -14.94,14.93zM755.2,107.07l-486.4,-0.41c-44.99,0 -81.06,36.08 -81.06,81.07v648.53c0,44.99 36.07,81.07 81.06,81.07h486.4c44.99,0 81.06,-36.08 81.06,-81.07v-648.53c0,-44.99 -36.07,-80.66 -81.06,-80.66zM512,836.26c-134.17,0 -243.2,-109.03 -243.2,-243.2c0,-134.17 109.03,-243.2 243.2,-243.2c134.17,0 243.2,109.03 243.2,243.2c0,134.17 -109.03,243.2 -243.2,243.2zM397.29,707.78c63.23,63.23 166.19,63.23 229.42,0c63.23,-63.23 63.23,-166.18 0,-229.42zM430.94,187.74c22.3,0 40.53,18.23 40.53,40.53c0,22.3 -18.23,40.54 -40.53,40.54c-22.3,0 -40.54,-18.24 -40.54,-40.54c0,-22.3 18.24,-40.53 40.54,-40.53zM309.34,187.74c22.3,0 40.53,18.23 40.53,40.53c0,22.3 -18.23,40.54 -40.53,40.54c-22.3,0 -40.54,-18.24 -40.54,-40.54c0,-22.3 18.24,-40.53 40.54,-40.53z" fill="#ffffff"/>
		</mask>
	</defs>
	<g fill="none" fill-rule="nonzero" style="mix-blend-mode: normal">
		<g mask="url(#mask-ZjJQVonP)">
			<g color="#ff0000" class="teamapps-color-2">
				<rect x="162.14" y="81.06" width="699.73" height="861.87" fill="currentColor"/>
			</g>
			<g color="#bc13e0" class="teamapps-color-3" mask="url(#mask-9fiN41cn)">
				<rect x="162.14" y="81.06" width="699.73" height="861.87" fill="currentColor"/>
			</g>
		</g>
		<g filter="url(#filter-pHc0IpXY)" mask="url(#mask-3zGViaQ4)">
			<g color="#fff961" class="teamapps-color-1">
				<rect x="162.14" y="81.06" width="699.73" height="861.87" fill="currentColor"/>
			</g>
		</g>
	</g>
</svg>