<svg version="1.1" xmlns="http://www.w3.org/2000/svg" xmlns:xlink="http://www.w3.org/1999/xlink" viewBox="0,0,1024,1024">
	<!-- Color names: teamapps-color-1, teamapps-color-2, teamapps-color-3 -->
	<desc>looks_6 icon - Licensed under Apache License v2.0 (http://www.apache.org/licenses/LICENSE-2.0) - Created with Iconfu.com - Derivative work of Material icons (Copyright Google Inc.)</desc>
	<defs>
		<radialGradient cx="0" cy="0" r="1448.15" id="color-WcQ1lRF8" gradientUnits="userSpaceOnUse">
			<stop offset="0.08" stop-color="#ffffff"/>
			<stop offset="1" stop-color="#000000"/>
		</radialGradient>
		<linearGradient x1="0" y1="1024" x2="1024" y2="0" id="color-zx1tG58J" gradientUnits="userSpaceOnUse">
			<stop offset="0.2" stop-color="#000000"/>
			<stop offset="0.8" stop-color="#ffffff"/>
		</linearGradient>
		<filter id="filter-9w9rOEDa" color-interpolation-filters="sRGB">
			<feOffset/>
		</filter>
		<mask id="mask-Awkebzv9">
			<rect fill="url(#color-zx1tG58J)" x="121.6" y="121.6" width="780.8" height="780.8"/>
		</mask>
		<mask id="mask-N4CvcbQI">
			<path d="M902.4,228.26v567.47c0,58.72 -47.94,106.66 -106.66,106.66h-567.47c-58.72,0 -106.66,-47.94 -106.66,-106.66v-567.47c0,-58.72 47.94,-106.66 106.66,-106.66h567.47c58.72,0 106.66,47.94 106.66,106.66zM608,334.94h-136.54c-30.53,0 -55.46,24.69 -55.46,55.46v243.2c0,30.77 24.94,55.46 55.46,55.46h81.07c30.53,0 55.46,-24.69 55.46,-55.46v-81.06c0,-30.78 -24.94,-55.47 -55.46,-55.47h-81.07c-14.14,0 -25.6,-11.46 -25.6,-25.6v-81.06c0,-14.14 11.46,-25.6 25.6,-25.6h136.54zM471.46,526.94h81.07c14.14,0 25.6,11.46 25.6,25.6v81.06c0,14.14 -11.46,25.6 -25.6,25.6h-81.07c-14.14,0 -25.6,-11.46 -25.6,-25.6v-81.06c0,-14.14 11.46,-25.6 25.6,-25.6zM795.74,147.2h-567.47c-44.58,0 -81.06,36.48 -81.06,81.06v567.47c0,44.58 36.48,81.06 81.06,81.06h567.47c44.58,0 81.06,-36.48 81.06,-81.06v-567.47c0,-44.58 -36.48,-81.06 -81.06,-81.06zM633.6,390.4h-162.14v81.06h81.07c44.58,0 81.06,36.08 81.06,81.07v81.06c0,44.99 -36.48,81.06 -81.06,81.06h-81.07c-44.58,0 -81.06,-36.07 -81.06,-81.06v-243.2c0,-44.99 36.48,-81.06 81.06,-81.06h162.14zM471.46,633.6h81.07v-81.06h-81.07z" fill="url(#color-WcQ1lRF8)"/>
		</mask>
		<mask id="mask-Zmj42FEA">
			<path d="M902.4,228.26v567.47c0,58.72 -47.94,106.66 -106.66,106.66h-567.47c-58.72,0 -106.66,-47.94 -106.66,-106.66v-567.47c0,-58.72 47.94,-106.66 106.66,-106.66h567.47c58.72,0 106.66,47.94 106.66,106.66zM608,334.94h-136.54c-30.53,0 -55.46,24.69 -55.46,55.46v243.2c0,30.77 24.94,55.46 55.46,55.46h81.07c30.53,0 55.46,-24.69 55.46,-55.46v-81.06c0,-30.78 -24.94,-55.47 -55.46,-55.47h-81.07c-14.14,0 -25.6,-11.46 -25.6,-25.6v-81.06c0,-14.14 11.46,-25.6 25.6,-25.6h136.54zM471.46,526.94h81.07c14.14,0 25.6,11.46 25.6,25.6v81.06c0,14.14 -11.46,25.6 -25.6,25.6h-81.07c-14.14,0 -25.6,-11.46 -25.6,-25.6v-81.06c0,-14.14 11.46,-25.6 25.6,-25.6zM795.74,147.2h-567.47c-44.58,0 -81.06,36.48 -81.06,81.06v567.47c0,44.58 36.48,81.06 81.06,81.06h567.47c44.58,0 81.06,-36.48 81.06,-81.06v-567.47c0,-44.58 -36.48,-81.06 -81.06,-81.06zM633.6,390.4h-162.14v81.06h81.07c44.58,0 81.06,36.08 81.06,81.07v81.06c0,44.99 -36.48,81.06 -81.06,81.06h-81.07c-44.58,0 -81.06,-36.07 -81.06,-81.06v-243.2c0,-44.99 36.48,-81.06 81.06,-81.06h162.14zM471.46,633.6h81.07v-81.06h-81.07z" fill="#ffffff"/>
		</mask>
	</defs>
	<g fill="none" fill-rule="nonzero" style="mix-blend-mode: normal">
		<g mask="url(#mask-Zmj42FEA)">
			<g color="#ff0000" class="teamapps-color-2">
				<rect x="121.6" y="121.6" width="780.8" height="780.8" fill="currentColor"/>
			</g>
			<g color="#bc13e0" class="teamapps-color-3" mask="url(#mask-Awkebzv9)">
				<rect x="121.6" y="121.6" width="780.8" height="780.8" fill="currentColor"/>
			</g>
		</g>
		<g filter="url(#filter-9w9rOEDa)" mask="url(#mask-N4CvcbQI)">
			<g color="#fff961" class="teamapps-color-1">
				<rect x="121.6" y="121.6" width="780.8" height="780.8" fill="currentColor"/>
			</g>
		</g>
	</g>
</svg>