<svg version="1.1" xmlns="http://www.w3.org/2000/svg" xmlns:xlink="http://www.w3.org/1999/xlink" viewBox="0,0,1024,1024">
	<!-- Color names: teamapps-color-1, teamapps-color-2, teamapps-color-3 -->
	<desc>loupe icon - Licensed under Apache License v2.0 (http://www.apache.org/licenses/LICENSE-2.0) - Created with Iconfu.com - Derivative work of Material icons (Copyright Google Inc.)</desc>
	<defs>
		<radialGradient cx="0" cy="0" r="1448.15" id="color-psIrPMzk" gradientUnits="userSpaceOnUse">
			<stop offset="0.08" stop-color="#ffffff"/>
			<stop offset="1" stop-color="#000000"/>
		</radialGradient>
		<linearGradient x1="0" y1="1024" x2="1024" y2="0" id="color-PUM0vZqz" gradientUnits="userSpaceOnUse">
			<stop offset="0.2" stop-color="#000000"/>
			<stop offset="0.8" stop-color="#ffffff"/>
		</linearGradient>
		<filter id="filter-F2rurx9t" color-interpolation-filters="sRGB">
			<feOffset/>
		</filter>
		<mask id="mask-0u6XUlsG">
			<path d="M942.94,512v324.26c0,58.72 -47.95,106.67 -106.67,106.67h-324.26c-237.47,0 -430.94,-193.46 -430.94,-430.94c0,-237.47 193.46,-430.94 430.94,-430.94c237.47,0 430.94,193.46 430.94,430.94zM810.66,512c0,-164.61 -134.05,-298.66 -298.66,-298.66c-164.61,0 -298.66,134.05 -298.66,298.66c0,164.61 134.05,298.66 298.66,298.66c164.61,0 298.66,-134.05 298.66,-298.66zM578.14,445.86h136.53c14.14,0 25.6,11.46 25.6,25.6v81.07c0,14.14 -11.46,25.6 -25.6,25.6h-136.53v136.53c0,14.14 -11.46,25.6 -25.6,25.6h-81.07c-14.14,0 -25.6,-11.46 -25.6,-25.6v-136.53h-136.53c-14.14,0 -25.6,-11.46 -25.6,-25.6v-81.07c0,-14.14 11.46,-25.6 25.6,-25.6h136.53v-136.53c0,-14.14 11.46,-25.6 25.6,-25.6h81.07c14.14,0 25.6,11.46 25.6,25.6zM512,106.66c-223.34,0 -405.34,182 -405.34,405.34c0,223.34 182,405.34 405.34,405.34h324.26c44.58,0 81.07,-36.49 81.07,-81.07v-324.26c0,-223.34 -182,-405.34 -405.34,-405.34zM512,836.26c-178.75,0 -324.26,-145.51 -324.26,-324.26c0,-178.75 145.51,-324.26 324.26,-324.26c178.75,0 324.26,145.51 324.26,324.26c0,178.75 -145.51,324.26 -324.26,324.26zM552.54,309.34h-81.07v162.13h-162.13v81.07h162.13v162.13h81.07v-162.13h162.13v-81.07h-162.13z" fill="url(#color-psIrPMzk)"/>
		</mask>
		<mask id="mask-EA4R2O8A">
			<rect fill="url(#color-PUM0vZqz)" x="81.06" y="81.06" width="861.87" height="861.87"/>
		</mask>
		<mask id="mask-yL6turM8">
			<path d="M942.94,512v324.26c0,58.72 -47.95,106.67 -106.67,106.67h-324.26c-237.47,0 -430.94,-193.46 -430.94,-430.94c0,-237.47 193.46,-430.94 430.94,-430.94c237.47,0 430.94,193.46 430.94,430.94zM810.66,512c0,-164.61 -134.05,-298.66 -298.66,-298.66c-164.61,0 -298.66,134.05 -298.66,298.66c0,164.61 134.05,298.66 298.66,298.66c164.61,0 298.66,-134.05 298.66,-298.66zM578.14,445.86h136.53c14.14,0 25.6,11.46 25.6,25.6v81.07c0,14.14 -11.46,25.6 -25.6,25.6h-136.53v136.53c0,14.14 -11.46,25.6 -25.6,25.6h-81.07c-14.14,0 -25.6,-11.46 -25.6,-25.6v-136.53h-136.53c-14.14,0 -25.6,-11.46 -25.6,-25.6v-81.07c0,-14.14 11.46,-25.6 25.6,-25.6h136.53v-136.53c0,-14.14 11.46,-25.6 25.6,-25.6h81.07c14.14,0 25.6,11.46 25.6,25.6zM512,106.66c-223.34,0 -405.34,182 -405.34,405.34c0,223.34 182,405.34 405.34,405.34h324.26c44.58,0 81.07,-36.49 81.07,-81.07v-324.26c0,-223.34 -182,-405.34 -405.34,-405.34zM512,836.26c-178.75,0 -324.26,-145.51 -324.26,-324.26c0,-178.75 145.51,-324.26 324.26,-324.26c178.75,0 324.26,145.51 324.26,324.26c0,178.75 -145.51,324.26 -324.26,324.26zM552.54,309.34h-81.07v162.13h-162.13v81.07h162.13v162.13h81.07v-162.13h162.13v-81.07h-162.13z" fill="#ffffff"/>
		</mask>
	</defs>
	<g fill="none" fill-rule="nonzero" style="mix-blend-mode: normal">
		<g mask="url(#mask-yL6turM8)">
			<g color="#ff0000" class="teamapps-color-2">
				<rect x="81.06" y="81.06" width="861.87" height="861.87" fill="currentColor"/>
			</g>
			<g color="#bc13e0" class="teamapps-color-3" mask="url(#mask-EA4R2O8A)">
				<rect x="81.06" y="81.06" width="861.87" height="861.87" fill="currentColor"/>
			</g>
		</g>
		<g filter="url(#filter-F2rurx9t)" mask="url(#mask-0u6XUlsG)">
			<g color="#fff961" class="teamapps-color-1">
				<rect x="81.06" y="81.06" width="861.87" height="861.87" fill="currentColor"/>
			</g>
		</g>
	</g>
</svg>