<svg version="1.1" xmlns="http://www.w3.org/2000/svg" xmlns:xlink="http://www.w3.org/1999/xlink" viewBox="0,0,1024,1024">
	<!-- Color names: teamapps-color-1, teamapps-color-2, teamapps-color-3 -->
	<desc>navigate_next icon - Licensed under Apache License v2.0 (http://www.apache.org/licenses/LICENSE-2.0) - Created with Iconfu.com - Derivative work of Material icons (Copyright Google Inc.)</desc>
	<defs>
		<radialGradient cx="0" cy="0" r="1448.15" id="color-AbtcliZu" gradientUnits="userSpaceOnUse">
			<stop offset="0.08" stop-color="#ffffff"/>
			<stop offset="1" stop-color="#000000"/>
		</radialGradient>
		<linearGradient x1="0" y1="1024" x2="1024" y2="0" id="color-SoFFAKcm" gradientUnits="userSpaceOnUse">
			<stop offset="0.2" stop-color="#000000"/>
			<stop offset="0.8" stop-color="#ffffff"/>
		</linearGradient>
		<filter id="filter-b4R74hmN" color-interpolation-filters="sRGB">
			<feOffset/>
		</filter>
		<mask id="mask-c3zlY4du">
			<path d="M692.24,530.1l-243.2,243.2c-10,10 -26.21,10 -36.2,0l-57.15,-57.15c-9.99,-9.99 -10,-26.18 -0.02,-36.18l167.6,-167.97l-167.6,-167.97c-9.98,-10 -9.97,-26.19 0.02,-36.18l57.15,-57.15c10,-10 26.21,-10 36.2,0l243.2,243.2c10,10 10,26.21 0,36.2zM430.94,268.8l-57.15,57.15l185.64,186.05l-185.64,186.05l57.15,57.15l243.2,-243.2z" fill="#ffffff"/>
		</mask>
		<mask id="mask-LcQhEXmy">
			<path d="M692.24,530.1l-243.2,243.2c-10,10 -26.21,10 -36.2,0l-57.15,-57.15c-9.99,-9.99 -10,-26.18 -0.02,-36.18l167.6,-167.97l-167.6,-167.97c-9.98,-10 -9.97,-26.19 0.02,-36.18l57.15,-57.15c10,-10 26.21,-10 36.2,0l243.2,243.2c10,10 10,26.21 0,36.2zM430.94,268.8l-57.15,57.15l185.64,186.05l-185.64,186.05l57.15,57.15l243.2,-243.2z" fill="url(#color-AbtcliZu)"/>
		</mask>
		<mask id="mask-o14iSeM7">
			<rect fill="url(#color-SoFFAKcm)" x="348.18" y="243.2" width="351.55" height="537.6"/>
		</mask>
	</defs>
	<g fill="none" fill-rule="nonzero" style="mix-blend-mode: normal">
		<g mask="url(#mask-c3zlY4du)">
			<g color="#ff0000" class="teamapps-color-2">
				<rect x="348.18" y="243.2" width="351.55" height="537.6" fill="currentColor"/>
			</g>
			<g color="#bc13e0" class="teamapps-color-3" mask="url(#mask-o14iSeM7)">
				<rect x="348.18" y="243.2" width="351.55" height="537.6" fill="currentColor"/>
			</g>
		</g>
		<g filter="url(#filter-b4R74hmN)" mask="url(#mask-LcQhEXmy)">
			<g color="#fff961" class="teamapps-color-1">
				<rect x="348.18" y="243.2" width="351.55" height="537.6" fill="currentColor"/>
			</g>
		</g>
	</g>
</svg>