<svg version="1.1" xmlns="http://www.w3.org/2000/svg" xmlns:xlink="http://www.w3.org/1999/xlink" viewBox="0,0,1024,1024">
	<!-- Color names: teamapps-color-1, teamapps-color-2, teamapps-color-3 -->
	<desc>open_with icon - Licensed under Apache License v2.0 (http://www.apache.org/licenses/LICENSE-2.0) - Created with Iconfu.com - Derivative work of Material icons (Copyright Google Inc.)</desc>
	<defs>
		<linearGradient x1="0" y1="1024" x2="1024" y2="0" id="color-ihjTwEfK" gradientUnits="userSpaceOnUse">
			<stop offset="0.2" stop-color="#000000"/>
			<stop offset="0.8" stop-color="#ffffff"/>
		</linearGradient>
		<radialGradient cx="0" cy="0" r="1448.15" id="color-JIlgdRwj" gradientUnits="userSpaceOnUse">
			<stop offset="0.08" stop-color="#ffffff"/>
			<stop offset="1" stop-color="#000000"/>
		</radialGradient>
		<filter id="filter-9RGoByf7" color-interpolation-filters="sRGB">
			<feOffset/>
		</filter>
		<mask id="mask-CgWbRgph">
			<path d="M714.66,729.6c10.35,0 19.69,6.24 23.65,15.8c3.96,9.57 1.77,20.58 -5.55,27.9l-202.66,202.66c-10,10 -26.21,10 -36.2,0l-202.66,-202.66c-7.32,-7.32 -9.51,-18.33 -5.55,-27.9c3.96,-9.57 13.3,-15.8 23.65,-15.8h96v-96c0,-14.14 11.46,-25.6 25.6,-25.6h162.13c14.14,0 25.6,11.46 25.6,25.6v96zM729.6,714.66v-96h-96c-14.14,0 -25.6,-11.46 -25.6,-25.6v-162.13c0,-14.14 11.46,-25.6 25.6,-25.6h96v-96c0,-10.35 6.24,-19.69 15.8,-23.65c9.57,-3.96 20.58,-1.77 27.9,5.55l202.66,202.66c10,10 10,26.21 0,36.2l-202.66,202.66c-7.32,7.32 -18.33,9.51 -27.9,5.55c-9.57,-3.96 -15.8,-13.3 -15.8,-23.65zM309.34,294.4c-10.35,0 -19.69,-6.24 -23.65,-15.8c-3.96,-9.57 -1.77,-20.58 5.55,-27.9l202.66,-202.66c10,-10 26.21,-10 36.2,0l202.66,202.66c7.32,7.32 9.51,18.33 5.55,27.9c-3.96,9.57 -13.3,15.8 -23.65,15.8h-96v96c0,14.14 -11.46,25.6 -25.6,25.6h-162.13c-14.14,0 -25.6,-11.46 -25.6,-25.6v-96zM390.4,618.66h-96v96c0,10.35 -6.24,19.69 -15.8,23.65c-9.57,3.96 -20.58,1.77 -27.9,-5.55l-202.66,-202.66c-10,-10 -10,-26.21 0,-36.2l202.66,-202.66c7.32,-7.32 18.33,-9.51 27.9,-5.55c9.57,3.96 15.8,13.3 15.8,23.65v96h96c14.14,0 25.6,11.46 25.6,25.6v162.13c0,14.14 -11.46,25.6 -25.6,25.6zM430.94,390.4h162.13v-121.6h121.6l-202.66,-202.66l-202.66,202.66h121.6zM390.4,430.94h-121.6v-121.6l-202.66,202.66l202.66,202.66v-121.6h121.6zM957.86,512l-202.66,-202.66v121.6h-121.6v162.13h121.6v121.6zM593.06,633.6h-162.13v121.6h-121.6l202.66,202.66l202.66,-202.66h-121.6z" fill="#ffffff"/>
		</mask>
		<mask id="mask-d5gPctDa">
			<path d="M714.66,729.6c10.35,0 19.69,6.24 23.65,15.8c3.96,9.57 1.77,20.58 -5.55,27.9l-202.66,202.66c-10,10 -26.21,10 -36.2,0l-202.66,-202.66c-7.32,-7.32 -9.51,-18.33 -5.55,-27.9c3.96,-9.57 13.3,-15.8 23.65,-15.8h96v-96c0,-14.14 11.46,-25.6 25.6,-25.6h162.13c14.14,0 25.6,11.46 25.6,25.6v96zM729.6,714.66v-96h-96c-14.14,0 -25.6,-11.46 -25.6,-25.6v-162.13c0,-14.14 11.46,-25.6 25.6,-25.6h96v-96c0,-10.35 6.24,-19.69 15.8,-23.65c9.57,-3.96 20.58,-1.77 27.9,5.55l202.66,202.66c10,10 10,26.21 0,36.2l-202.66,202.66c-7.32,7.32 -18.33,9.51 -27.9,5.55c-9.57,-3.96 -15.8,-13.3 -15.8,-23.65zM309.34,294.4c-10.35,0 -19.69,-6.24 -23.65,-15.8c-3.96,-9.57 -1.77,-20.58 5.55,-27.9l202.66,-202.66c10,-10 26.21,-10 36.2,0l202.66,202.66c7.32,7.32 9.51,18.33 5.55,27.9c-3.96,9.57 -13.3,15.8 -23.65,15.8h-96v96c0,14.14 -11.46,25.6 -25.6,25.6h-162.13c-14.14,0 -25.6,-11.46 -25.6,-25.6v-96zM390.4,618.66h-96v96c0,10.35 -6.24,19.69 -15.8,23.65c-9.57,3.96 -20.58,1.77 -27.9,-5.55l-202.66,-202.66c-10,-10 -10,-26.21 0,-36.2l202.66,-202.66c7.32,-7.32 18.33,-9.51 27.9,-5.55c9.57,3.96 15.8,13.3 15.8,23.65v96h96c14.14,0 25.6,11.46 25.6,25.6v162.13c0,14.14 -11.46,25.6 -25.6,25.6zM430.94,390.4h162.13v-121.6h121.6l-202.66,-202.66l-202.66,202.66h121.6zM390.4,430.94h-121.6v-121.6l-202.66,202.66l202.66,202.66v-121.6h121.6zM957.86,512l-202.66,-202.66v121.6h-121.6v162.13h121.6v121.6zM593.06,633.6h-162.13v121.6h-121.6l202.66,202.66l202.66,-202.66h-121.6z" fill="url(#color-JIlgdRwj)"/>
		</mask>
		<mask id="mask-fMvexKUk">
			<rect fill="url(#color-ihjTwEfK)" x="40.54" y="40.54" width="942.93" height="942.93"/>
		</mask>
	</defs>
	<g fill="none" fill-rule="nonzero" style="mix-blend-mode: normal">
		<g mask="url(#mask-CgWbRgph)">
			<g color="#ff0000" class="teamapps-color-2">
				<rect x="40.54" y="40.54" width="942.93" height="942.93" fill="currentColor"/>
			</g>
			<g color="#bc13e0" class="teamapps-color-3" mask="url(#mask-fMvexKUk)">
				<rect x="40.54" y="40.54" width="942.93" height="942.93" fill="currentColor"/>
			</g>
		</g>
		<g filter="url(#filter-9RGoByf7)" mask="url(#mask-d5gPctDa)">
			<g color="#fff961" class="teamapps-color-1">
				<rect x="40.54" y="40.54" width="942.93" height="942.93" fill="currentColor"/>
			</g>
		</g>
	</g>
</svg>