<svg version="1.1" xmlns="http://www.w3.org/2000/svg" xmlns:xlink="http://www.w3.org/1999/xlink" viewBox="0,0,1024,1024">
	<!-- Color names: teamapps-color-1, teamapps-color-2, teamapps-color-3 -->
	<desc>pages icon - Licensed under Apache License v2.0 (http://www.apache.org/licenses/LICENSE-2.0) - Created with Iconfu.com - Derivative work of Material icons (Copyright Google Inc.)</desc>
	<defs>
		<radialGradient cx="0" cy="0" r="1448.15" id="color-0wpIdX1T" gradientUnits="userSpaceOnUse">
			<stop offset="0.08" stop-color="#ffffff"/>
			<stop offset="1" stop-color="#000000"/>
		</radialGradient>
		<linearGradient x1="0" y1="1024" x2="1024" y2="0" id="color-ENrrK3V5" gradientUnits="userSpaceOnUse">
			<stop offset="0.2" stop-color="#000000"/>
			<stop offset="0.8" stop-color="#ffffff"/>
		</linearGradient>
		<filter id="filter-6OETMhg5" color-interpolation-filters="sRGB">
			<feOffset/>
		</filter>
		<mask id="mask-9s9RTOGZ">
			<path d="M674.14,526.94h202.66c14.14,0 25.6,11.46 25.6,25.6v243.2c0,58.72 -47.94,106.66 -106.66,106.66h-243.2c-14.14,0 -25.6,-11.46 -25.6,-25.6v-202.66c0,-7.88 3.63,-15.33 9.85,-20.18c6.21,-4.85 14.32,-6.57 21.96,-4.66l120.74,30.18l-30.18,-120.74c-1.91,-7.65 -0.19,-15.75 4.66,-21.96c4.85,-6.21 12.29,-9.85 20.18,-9.85zM465.26,649.3c7.65,-1.91 15.75,-0.19 21.96,4.66c6.21,4.85 9.85,12.29 9.85,20.18v202.66c0,14.14 -11.46,25.6 -25.6,25.6h-243.2c-58.72,0 -106.66,-47.94 -106.66,-106.66v-243.2c0,-14.14 11.46,-25.6 25.6,-25.6h202.66c7.88,0 15.33,3.63 20.18,9.85c4.85,6.21 6.57,14.32 4.66,21.96l-30.18,120.74zM902.4,228.26v243.2c0,14.14 -11.46,25.6 -25.6,25.6h-202.66c-7.88,0 -15.33,-3.63 -20.18,-9.85c-4.85,-6.21 -6.57,-14.32 -4.66,-21.96l30.18,-120.74l-120.74,30.18c-7.65,1.91 -15.75,0.19 -21.96,-4.66c-6.21,-4.85 -9.85,-12.29 -9.85,-20.18v-202.66c0,-14.14 11.46,-25.6 25.6,-25.6h243.2c58.72,0 106.66,47.94 106.66,106.66zM228.26,121.6h243.2c14.14,0 25.6,11.46 25.6,25.6v202.66c0,7.88 -3.63,15.33 -9.85,20.18c-6.21,4.85 -14.32,6.57 -21.96,4.66l-120.74,-30.18l30.18,120.74c1.91,7.65 0.19,15.75 -4.66,21.96c-4.85,6.21 -12.29,9.85 -20.18,9.85h-202.66c-14.14,0 -25.6,-11.46 -25.6,-25.6v-243.2c0,-58.72 47.94,-106.66 106.66,-106.66zM714.66,714.66l-162.13,-40.53v202.66h243.2c44.58,0 81.06,-36.48 81.06,-81.06v-243.2h-202.66zM349.86,552.54h-202.66v243.2c0,44.58 36.48,81.06 81.06,81.06h243.2v-202.66l-162.13,40.53zM795.74,147.2h-243.2v202.66l162.13,-40.53l-40.53,162.13h202.66v-243.2c0,-44.58 -36.48,-81.06 -81.06,-81.06zM147.2,228.26v243.2h202.66l-40.53,-162.13l162.13,40.53v-202.66h-243.2c-44.58,0 -81.06,36.48 -81.06,81.06z" fill="url(#color-0wpIdX1T)"/>
		</mask>
		<mask id="mask-ekDCiqq2">
			<rect fill="url(#color-ENrrK3V5)" x="121.6" y="121.6" width="780.8" height="780.8"/>
		</mask>
		<mask id="mask-ZN6Da3F2">
			<path d="M674.14,526.94h202.66c14.14,0 25.6,11.46 25.6,25.6v243.2c0,58.72 -47.94,106.66 -106.66,106.66h-243.2c-14.14,0 -25.6,-11.46 -25.6,-25.6v-202.66c0,-7.88 3.63,-15.33 9.85,-20.18c6.21,-4.85 14.32,-6.57 21.96,-4.66l120.74,30.18l-30.18,-120.74c-1.91,-7.65 -0.19,-15.75 4.66,-21.96c4.85,-6.21 12.29,-9.85 20.18,-9.85zM465.26,649.3c7.65,-1.91 15.75,-0.19 21.96,4.66c6.21,4.85 9.85,12.29 9.85,20.18v202.66c0,14.14 -11.46,25.6 -25.6,25.6h-243.2c-58.72,0 -106.66,-47.94 -106.66,-106.66v-243.2c0,-14.14 11.46,-25.6 25.6,-25.6h202.66c7.88,0 15.33,3.63 20.18,9.85c4.85,6.21 6.57,14.32 4.66,21.96l-30.18,120.74zM902.4,228.26v243.2c0,14.14 -11.46,25.6 -25.6,25.6h-202.66c-7.88,0 -15.33,-3.63 -20.18,-9.85c-4.85,-6.21 -6.57,-14.32 -4.66,-21.96l30.18,-120.74l-120.74,30.18c-7.65,1.91 -15.75,0.19 -21.96,-4.66c-6.21,-4.85 -9.85,-12.29 -9.85,-20.18v-202.66c0,-14.14 11.46,-25.6 25.6,-25.6h243.2c58.72,0 106.66,47.94 106.66,106.66zM228.26,121.6h243.2c14.14,0 25.6,11.46 25.6,25.6v202.66c0,7.88 -3.63,15.33 -9.85,20.18c-6.21,4.85 -14.32,6.57 -21.96,4.66l-120.74,-30.18l30.18,120.74c1.91,7.65 0.19,15.75 -4.66,21.96c-4.85,6.21 -12.29,9.85 -20.18,9.85h-202.66c-14.14,0 -25.6,-11.46 -25.6,-25.6v-243.2c0,-58.72 47.94,-106.66 106.66,-106.66zM714.66,714.66l-162.13,-40.53v202.66h243.2c44.58,0 81.06,-36.48 81.06,-81.06v-243.2h-202.66zM349.86,552.54h-202.66v243.2c0,44.58 36.48,81.06 81.06,81.06h243.2v-202.66l-162.13,40.53zM795.74,147.2h-243.2v202.66l162.13,-40.53l-40.53,162.13h202.66v-243.2c0,-44.58 -36.48,-81.06 -81.06,-81.06zM147.2,228.26v243.2h202.66l-40.53,-162.13l162.13,40.53v-202.66h-243.2c-44.58,0 -81.06,36.48 -81.06,81.06z" fill="#ffffff"/>
		</mask>
	</defs>
	<g fill="none" fill-rule="nonzero" style="mix-blend-mode: normal">
		<g mask="url(#mask-ZN6Da3F2)">
			<g color="#ff0000" class="teamapps-color-2">
				<rect x="121.6" y="121.6" width="780.8" height="780.8" fill="currentColor"/>
			</g>
			<g color="#bc13e0" class="teamapps-color-3" mask="url(#mask-ekDCiqq2)">
				<rect x="121.6" y="121.6" width="780.8" height="780.8" fill="currentColor"/>
			</g>
		</g>
		<g filter="url(#filter-6OETMhg5)" mask="url(#mask-9s9RTOGZ)">
			<g color="#fff961" class="teamapps-color-1">
				<rect x="121.6" y="121.6" width="780.8" height="780.8" fill="currentColor"/>
			</g>
		</g>
	</g>
</svg>