<svg version="1.1" xmlns="http://www.w3.org/2000/svg" xmlns:xlink="http://www.w3.org/1999/xlink" viewBox="0,0,1024,1024">
	<!-- Color names: teamapps-color-1, teamapps-color-2, teamapps-color-3 -->
	<desc>phonelink_erase icon - Licensed under Apache License v2.0 (http://www.apache.org/licenses/LICENSE-2.0) - Created with Iconfu.com - Derivative work of Material icons (Copyright Google Inc.)</desc>
	<defs>
		<linearGradient x1="0" y1="1024" x2="1024" y2="0" id="color-bCntfrC0" gradientUnits="userSpaceOnUse">
			<stop offset="0.2" stop-color="#000000"/>
			<stop offset="0.8" stop-color="#ffffff"/>
		</linearGradient>
		<radialGradient cx="0" cy="0" r="1448.15" id="color-im9eN5Mb" gradientUnits="userSpaceOnUse">
			<stop offset="0.08" stop-color="#ffffff"/>
			<stop offset="1" stop-color="#000000"/>
		</radialGradient>
		<filter id="filter-IS6abdap" color-interpolation-filters="sRGB">
			<feOffset/>
		</filter>
		<mask id="mask-HrT4NBqa">
			<path d="M902.4,147.2v729.6c0,58.72 -47.94,106.66 -106.66,106.66h-405.34c-58.72,0 -106.66,-47.94 -106.66,-106.66v-121.6c0,-14.14 11.46,-25.6 25.6,-25.6h81.06c14.14,0 25.6,11.46 25.6,25.6v55.46h354.14v-597.33h-354.14v55.46c0,14.14 -11.46,25.6 -25.6,25.6h-81.06c-14.14,0 -25.6,-11.46 -25.6,-25.6v-121.6c0,-58.72 47.94,-106.66 106.66,-106.66h405.34c58.72,0 106.66,47.94 106.66,106.66zM426.6,520.1l144.03,144.03c10,10 10,26.21 0,36.2l-40.54,40.54c-10,10 -26.21,10 -36.2,0l-144.03,-144.03l-144.03,144.03c-10,10 -26.21,10 -36.2,0l-40.54,-40.54c-10,-10 -10,-26.21 0,-36.2l144.03,-144.03l-144.03,-144.03c-10,-10 -10,-26.21 0,-36.2l40.54,-40.54c10,-10 26.21,-10 36.2,0l144.03,144.03l144.03,-144.03c10,-10 26.21,-10 36.2,0l40.54,40.54c10,10 10,26.21 0,36.2zM795.74,66.14h-405.34c-44.58,0 -81.06,36.48 -81.06,81.06v121.6h81.06v-81.06h405.34v648.53h-405.34v-81.06h-81.06v121.6c0,44.58 36.48,81.06 81.06,81.06h405.34c44.58,0 81.06,-36.48 81.06,-81.06v-729.6c0,-44.58 -36.48,-81.06 -81.06,-81.06zM552.54,357.98l-40.54,-40.54l-162.14,162.14l-162.13,-162.14l-40.54,40.54l162.14,162.13l-162.14,162.14l40.54,40.54l162.13,-162.14l162.14,162.14l40.54,-40.54l-162.14,-162.14z" fill="url(#color-im9eN5Mb)"/>
		</mask>
		<mask id="mask-SfkVco2K">
			<rect fill="url(#color-bCntfrC0)" x="121.6" y="40.54" width="780.8" height="942.93"/>
		</mask>
		<mask id="mask-ZcUQCbUl">
			<path d="M902.4,147.2v729.6c0,58.72 -47.94,106.66 -106.66,106.66h-405.34c-58.72,0 -106.66,-47.94 -106.66,-106.66v-121.6c0,-14.14 11.46,-25.6 25.6,-25.6h81.06c14.14,0 25.6,11.46 25.6,25.6v55.46h354.14v-597.33h-354.14v55.46c0,14.14 -11.46,25.6 -25.6,25.6h-81.06c-14.14,0 -25.6,-11.46 -25.6,-25.6v-121.6c0,-58.72 47.94,-106.66 106.66,-106.66h405.34c58.72,0 106.66,47.94 106.66,106.66zM426.6,520.1l144.03,144.03c10,10 10,26.21 0,36.2l-40.54,40.54c-10,10 -26.21,10 -36.2,0l-144.03,-144.03l-144.03,144.03c-10,10 -26.21,10 -36.2,0l-40.54,-40.54c-10,-10 -10,-26.21 0,-36.2l144.03,-144.03l-144.03,-144.03c-10,-10 -10,-26.21 0,-36.2l40.54,-40.54c10,-10 26.21,-10 36.2,0l144.03,144.03l144.03,-144.03c10,-10 26.21,-10 36.2,0l40.54,40.54c10,10 10,26.21 0,36.2zM795.74,66.14h-405.34c-44.58,0 -81.06,36.48 -81.06,81.06v121.6h81.06v-81.06h405.34v648.53h-405.34v-81.06h-81.06v121.6c0,44.58 36.48,81.06 81.06,81.06h405.34c44.58,0 81.06,-36.48 81.06,-81.06v-729.6c0,-44.58 -36.48,-81.06 -81.06,-81.06zM552.54,357.98l-40.54,-40.54l-162.14,162.14l-162.13,-162.14l-40.54,40.54l162.14,162.13l-162.14,162.14l40.54,40.54l162.13,-162.14l162.14,162.14l40.54,-40.54l-162.14,-162.14z" fill="#ffffff"/>
		</mask>
	</defs>
	<g fill="none" fill-rule="nonzero" style="mix-blend-mode: normal">
		<g mask="url(#mask-ZcUQCbUl)">
			<g color="#ff0000" class="teamapps-color-2">
				<rect x="121.6" y="40.54" width="780.8" height="942.93" fill="currentColor"/>
			</g>
			<g color="#bc13e0" class="teamapps-color-3" mask="url(#mask-SfkVco2K)">
				<rect x="121.6" y="40.54" width="780.8" height="942.93" fill="currentColor"/>
			</g>
		</g>
		<g filter="url(#filter-IS6abdap)" mask="url(#mask-HrT4NBqa)">
			<g color="#fff961" class="teamapps-color-1">
				<rect x="121.6" y="40.54" width="780.8" height="942.93" fill="currentColor"/>
			</g>
		</g>
	</g>
</svg>