<svg version="1.1" xmlns="http://www.w3.org/2000/svg" xmlns:xlink="http://www.w3.org/1999/xlink" viewBox="0,0,1024,1024">
	<!-- Color names: teamapps-color-1, teamapps-color-2, teamapps-color-3 -->
	<desc>phonelink_ring icon - Licensed under Apache License v2.0 (http://www.apache.org/licenses/LICENSE-2.0) - Created with Iconfu.com - Derivative work of Material icons (Copyright Google Inc.)</desc>
	<defs>
		<linearGradient x1="0" y1="1024" x2="1024" y2="0" id="color-QCM1H3Z5" gradientUnits="userSpaceOnUse">
			<stop offset="0.2" stop-color="#000000"/>
			<stop offset="0.8" stop-color="#ffffff"/>
		</linearGradient>
		<radialGradient cx="0" cy="0" r="1448.15" id="color-QMUvTyrD" gradientUnits="userSpaceOnUse">
			<stop offset="0.08" stop-color="#ffffff"/>
			<stop offset="1" stop-color="#000000"/>
		</radialGradient>
		<filter id="filter-H2dAhrL3" color-interpolation-filters="sRGB">
			<feOffset/>
		</filter>
		<mask id="mask-Dd4Ukg9t">
			<rect fill="url(#color-QCM1H3Z5)" x="81.06" y="40.54" width="860.86" height="942.93"/>
		</mask>
		<mask id="mask-lO46kPpk">
			<path d="M699.74,147.2v294.88l37.36,-37.36c10.28,-10.28 27.05,-9.95 36.91,0.74c57.3,62.08 58.32,150.74 -0.71,209.76c-10,10 -26.21,10 -36.2,0l-37.36,-37.36v298.94c0,58.73 -47.95,106.66 -106.67,106.66h-405.33c-58.72,0 -106.67,-47.94 -106.67,-106.66v-729.6c0,-58.73 47.95,-106.66 106.67,-106.66h405.33c58.72,0 106.67,47.94 106.67,106.66zM213.34,213.34v597.33h354.13v-597.33zM822.22,700.34l-40.54,-40.54c-9.81,-9.81 -10.02,-25.64 -0.48,-35.71c63.86,-67.41 63.19,-165.05 0.48,-227.76c-10,-10 -10,-26.21 0,-36.2l40.54,-40.54c9.85,-9.85 25.78,-10.02 35.83,-0.37c111.6,107.13 112.2,278.27 -0.4,381.84c-10.1,9.29 -25.73,8.97 -35.43,-0.74zM699.74,488.6v42.74c6.03,-13.77 6.03,-28.97 0,-42.74zM593.06,66.14h-405.33c-44.58,0 -81.07,36.48 -81.07,81.06v729.6c0,44.58 36.49,81.06 81.07,81.06h405.33c44.58,0 81.07,-36.48 81.07,-81.06v-729.6c0,-44.58 -36.49,-81.06 -81.07,-81.06zM593.06,836.26h-405.33v-648.53h405.33zM840.32,337.7l-40.54,40.54c72.96,72.96 72.96,186.45 0,263.46l40.54,40.54c101.34,-93.22 101.34,-247.26 0,-344.54zM755.2,422.82l-40.54,40.54c20.26,28.38 20.26,64.85 0,93.22l40.54,40.54c48.64,-48.64 48.64,-121.6 0,-174.3z" fill="#ffffff"/>
		</mask>
		<mask id="mask-VvD1l7wv">
			<path d="M699.74,147.2v294.88l37.36,-37.36c10.28,-10.28 27.05,-9.95 36.91,0.74c57.3,62.08 58.32,150.74 -0.71,209.76c-10,10 -26.21,10 -36.2,0l-37.36,-37.36v298.94c0,58.73 -47.95,106.66 -106.67,106.66h-405.33c-58.72,0 -106.67,-47.94 -106.67,-106.66v-729.6c0,-58.73 47.95,-106.66 106.67,-106.66h405.33c58.72,0 106.67,47.94 106.67,106.66zM213.34,213.34v597.33h354.13v-597.33zM822.22,700.34l-40.54,-40.54c-9.81,-9.81 -10.02,-25.64 -0.48,-35.71c63.86,-67.41 63.19,-165.05 0.48,-227.76c-10,-10 -10,-26.21 0,-36.2l40.54,-40.54c9.85,-9.85 25.78,-10.02 35.83,-0.37c111.6,107.13 112.2,278.27 -0.4,381.84c-10.1,9.29 -25.73,8.97 -35.43,-0.74zM699.74,488.6v42.74c6.03,-13.77 6.03,-28.97 0,-42.74zM593.06,66.14h-405.33c-44.58,0 -81.07,36.48 -81.07,81.06v729.6c0,44.58 36.49,81.06 81.07,81.06h405.33c44.58,0 81.07,-36.48 81.07,-81.06v-729.6c0,-44.58 -36.49,-81.06 -81.07,-81.06zM593.06,836.26h-405.33v-648.53h405.33zM840.32,337.7l-40.54,40.54c72.96,72.96 72.96,186.45 0,263.46l40.54,40.54c101.34,-93.22 101.34,-247.26 0,-344.54zM755.2,422.82l-40.54,40.54c20.26,28.38 20.26,64.85 0,93.22l40.54,40.54c48.64,-48.64 48.64,-121.6 0,-174.3z" fill="url(#color-QMUvTyrD)"/>
		</mask>
	</defs>
	<g fill="none" fill-rule="nonzero" style="mix-blend-mode: normal">
		<g mask="url(#mask-lO46kPpk)">
			<g color="#ff0000" class="teamapps-color-2">
				<rect x="81.06" y="40.54" width="860.86" height="942.93" fill="currentColor"/>
			</g>
			<g color="#bc13e0" class="teamapps-color-3" mask="url(#mask-Dd4Ukg9t)">
				<rect x="81.06" y="40.54" width="860.86" height="942.93" fill="currentColor"/>
			</g>
		</g>
		<g filter="url(#filter-H2dAhrL3)" mask="url(#mask-VvD1l7wv)">
			<g color="#fff961" class="teamapps-color-1">
				<rect x="81.06" y="40.54" width="860.86" height="942.93" fill="currentColor"/>
			</g>
		</g>
	</g>
</svg>