<svg version="1.1" xmlns="http://www.w3.org/2000/svg" xmlns:xlink="http://www.w3.org/1999/xlink" viewBox="0,0,1024,1024">
	<!-- Color names: teamapps-color-1, teamapps-color-2, teamapps-color-3 -->
	<desc>queue_music icon - Licensed under Apache License v2.0 (http://www.apache.org/licenses/LICENSE-2.0) - Created with Iconfu.com - Derivative work of Material icons (Copyright Google Inc.)</desc>
	<defs>
		<radialGradient cx="0" cy="0" r="1448.15" id="color-i3YiaZyY" gradientUnits="userSpaceOnUse">
			<stop offset="0.08" stop-color="#ffffff"/>
			<stop offset="1" stop-color="#000000"/>
		</radialGradient>
		<linearGradient x1="0" y1="1024" x2="1024" y2="0" id="color-TUv7DrNr" gradientUnits="userSpaceOnUse">
			<stop offset="0.2" stop-color="#000000"/>
			<stop offset="0.8" stop-color="#ffffff"/>
		</linearGradient>
		<filter id="filter-mpCTmExB" color-interpolation-filters="sRGB">
			<feOffset/>
		</filter>
		<mask id="mask-hW2akxX4">
			<rect fill="url(#color-TUv7DrNr)" x="121.6" y="243.2" width="821.34" height="618.66"/>
		</mask>
		<mask id="mask-nio6stX4">
			<path d="M942.94,268.8v81.06c0,14.14 -11.46,25.6 -25.6,25.6h-96v339.2c0,81.43 -65.77,147.2 -147.2,147.2c-81.43,0 -147.2,-65.77 -147.2,-147.2c0,-81.43 65.77,-147.2 147.2,-147.2c5.06,0 10.04,0.29 14.93,0.83v-299.49c0,-14.14 11.46,-25.6 25.6,-25.6h202.67c14.14,0 25.6,11.46 25.6,25.6zM633.6,537.6h-486.4c-14.14,0 -25.6,-11.46 -25.6,-25.6v-81.06c0,-14.14 11.46,-25.6 25.6,-25.6h486.4c14.14,0 25.6,11.46 25.6,25.6v81.06c0,14.14 -11.46,25.6 -25.6,25.6zM633.6,375.46h-486.4c-14.14,0 -25.6,-11.46 -25.6,-25.6v-81.06c0,-14.14 11.46,-25.6 25.6,-25.6h486.4c14.14,0 25.6,11.46 25.6,25.6v81.06c0,14.14 -11.46,25.6 -25.6,25.6zM147.2,567.46h324.26c14.14,0 25.6,11.46 25.6,25.6v81.07c0,14.14 -11.46,25.6 -25.6,25.6h-324.26c-14.14,0 -25.6,-11.46 -25.6,-25.6v-81.07c0,-14.14 11.46,-25.6 25.6,-25.6zM714.66,268.8v331.56c-12.57,-4.46 -26.34,-7.3 -40.53,-7.3c-67.29,0 -121.6,54.31 -121.6,121.6c0,67.29 54.31,121.6 121.6,121.6c67.29,0 121.6,-54.31 121.6,-121.6v-364.8h121.6v-81.06zM633.6,430.94h-486.4v81.06h486.4zM633.6,268.8h-486.4v81.06h486.4zM147.2,674.14h324.26v-81.07h-324.26z" fill="#ffffff"/>
		</mask>
		<mask id="mask-p6fMgAGJ">
			<path d="M942.94,268.8v81.06c0,14.14 -11.46,25.6 -25.6,25.6h-96v339.2c0,81.43 -65.77,147.2 -147.2,147.2c-81.43,0 -147.2,-65.77 -147.2,-147.2c0,-81.43 65.77,-147.2 147.2,-147.2c5.06,0 10.04,0.29 14.93,0.83v-299.49c0,-14.14 11.46,-25.6 25.6,-25.6h202.67c14.14,0 25.6,11.46 25.6,25.6zM633.6,537.6h-486.4c-14.14,0 -25.6,-11.46 -25.6,-25.6v-81.06c0,-14.14 11.46,-25.6 25.6,-25.6h486.4c14.14,0 25.6,11.46 25.6,25.6v81.06c0,14.14 -11.46,25.6 -25.6,25.6zM633.6,375.46h-486.4c-14.14,0 -25.6,-11.46 -25.6,-25.6v-81.06c0,-14.14 11.46,-25.6 25.6,-25.6h486.4c14.14,0 25.6,11.46 25.6,25.6v81.06c0,14.14 -11.46,25.6 -25.6,25.6zM147.2,567.46h324.26c14.14,0 25.6,11.46 25.6,25.6v81.07c0,14.14 -11.46,25.6 -25.6,25.6h-324.26c-14.14,0 -25.6,-11.46 -25.6,-25.6v-81.07c0,-14.14 11.46,-25.6 25.6,-25.6zM714.66,268.8v331.56c-12.57,-4.46 -26.34,-7.3 -40.53,-7.3c-67.29,0 -121.6,54.31 -121.6,121.6c0,67.29 54.31,121.6 121.6,121.6c67.29,0 121.6,-54.31 121.6,-121.6v-364.8h121.6v-81.06zM633.6,430.94h-486.4v81.06h486.4zM633.6,268.8h-486.4v81.06h486.4zM147.2,674.14h324.26v-81.07h-324.26z" fill="url(#color-i3YiaZyY)"/>
		</mask>
	</defs>
	<g fill="none" fill-rule="nonzero" style="mix-blend-mode: normal">
		<g mask="url(#mask-nio6stX4)">
			<g color="#ff0000" class="teamapps-color-2">
				<rect x="121.6" y="243.2" width="821.34" height="618.66" fill="currentColor"/>
			</g>
			<g color="#bc13e0" class="teamapps-color-3" mask="url(#mask-hW2akxX4)">
				<rect x="121.6" y="243.2" width="821.34" height="618.66" fill="currentColor"/>
			</g>
		</g>
		<g filter="url(#filter-mpCTmExB)" mask="url(#mask-p6fMgAGJ)">
			<g color="#fff961" class="teamapps-color-1">
				<rect x="121.6" y="243.2" width="821.34" height="618.66" fill="currentColor"/>
			</g>
		</g>
	</g>
</svg>