<svg version="1.1" xmlns="http://www.w3.org/2000/svg" xmlns:xlink="http://www.w3.org/1999/xlink" viewBox="0,0,1024,1024">
	<!-- Color names: teamapps-color-1, teamapps-color-2, teamapps-color-3 -->
	<desc>replay_30 icon - Licensed under Apache License v2.0 (http://www.apache.org/licenses/LICENSE-2.0) - Created with Iconfu.com - Derivative work of Material icons (Copyright Google Inc.)</desc>
	<defs>
		<radialGradient cx="0" cy="0" r="1448.15" id="color-2ZQjpiUB" gradientUnits="userSpaceOnUse">
			<stop offset="0.08" stop-color="#ffffff"/>
			<stop offset="1" stop-color="#000000"/>
		</radialGradient>
		<linearGradient x1="0" y1="1024" x2="1024" y2="0" id="color-WWWLxknO" gradientUnits="userSpaceOnUse">
			<stop offset="0.2" stop-color="#000000"/>
			<stop offset="0.8" stop-color="#ffffff"/>
		</linearGradient>
		<filter id="filter-LTWW17R6" color-interpolation-filters="sRGB">
			<feOffset/>
		</filter>
		<mask id="mask-gX6hWpJH">
			<rect fill="url(#color-WWWLxknO)" x="162.14" y="40.54" width="699.73" height="861.86"/>
		</mask>
		<mask id="mask-koQb7ZEr">
			<path d="M861.86,552.54c0,192.48 -157.38,349.86 -349.86,349.86c-192.48,0 -349.86,-157.38 -349.86,-349.86c0,-14.14 11.46,-25.6 25.6,-25.6h81.06c14.14,0 25.6,11.46 25.6,25.6c0,119.62 97.98,217.6 217.6,217.6c119.62,0 217.6,-97.98 217.6,-217.6c0,-110.96 -84.31,-203.31 -192,-216.09v135.02c0,10.35 -6.24,19.69 -15.8,23.65c-9.57,3.96 -20.58,1.77 -27.9,-5.55l-202.66,-202.66c-10,-10 -10,-26.21 0,-36.2l202.66,-202.66c7.32,-7.32 18.33,-9.51 27.9,-5.55c9.57,3.96 15.8,13.3 15.8,23.65v137.46c180.64,13.22 324.26,165.06 324.26,348.94zM671.36,601.18c0,9.81 0.61,29.15 -6.76,43.88l-12.15,24.31c-1.23,2.46 -2.85,4.71 -4.8,6.65c0,0 -19.66,19.66 -38.36,19.66c-0.39,0 -1.35,0.11 -5.95,1.26c-3.49,0.87 -10.63,2.79 -18.37,2.79c-7.5,0 -21.53,0.37 -35.78,-6.76c-5.62,-2.81 -9.83,-5.64 -12.87,-7.67c-3.05,-2.03 -4.91,-3.25 -7.39,-4.49c-8.84,-4.43 -14.57,-11.87 -18.28,-19.08l-7.74,10.4c-1.57,2.35 -5.07,7.8 -9.28,12c-8.52,8.52 -23.01,15.61 -38.36,15.61c-0.39,0 -1.34,0.11 -5.96,1.26c-3.49,0.87 -10.62,2.79 -18.36,2.79c-3.02,0 -22.07,1.53 -35.43,-8.94c-0.45,-0.13 -1.01,-0.3 -1.71,-0.5c-3.02,-0.85 -8.82,-2.41 -14.85,-5.43c-17.88,-8.95 -22.15,-24.75 -23.59,-27.64c-7.13,-14.25 -6.76,-28.28 -6.76,-35.78c0,-14.14 11.46,-25.6 25.6,-25.6h14.94v-25.82h-14.94c-14.14,0 -25.6,-11.46 -25.6,-25.6c0,-9.42 0.03,-18.27 6.76,-31.72c5.94,-11.86 12.34,-18.25 16.95,-22.86c6.69,-6.69 20.42,-15.19 33.39,-15.59c0.98,-0.15 3.06,-0.63 6.69,-1.53c2.77,-0.68 9.71,-2.55 14.51,-2.55c7.5,0 21.53,-0.37 35.78,6.76c2.31,1.16 3.88,1.7 6.76,2.65c3.22,1.07 7.72,2.55 13.51,5.45c17.89,8.95 22.16,24.78 23.59,27.65c0.89,1.78 1.66,3.48 2.34,5.11l8.63,-17.26c1.23,-2.46 2.85,-4.71 4.8,-6.65c0,0 19.66,-19.66 38.37,-19.66c0.39,0 1.34,-0.11 5.95,-1.26c3.49,-0.87 10.63,-2.79 18.37,-2.79c7.5,0 21.53,-0.37 35.78,6.76c5.62,2.81 9.83,5.64 12.87,7.67c3.05,2.03 4.91,3.25 7.39,4.49c20.6,10.31 24.27,36.98 24.98,39.11c5.47,16.4 5.37,28.12 5.37,40.52zM512,228.26v-162.13l-202.66,202.66l202.66,202.66v-162.13c133.76,0 243.2,109.44 243.2,243.2c0,133.76 -109.44,243.2 -243.2,243.2c-133.76,0 -243.2,-109.44 -243.2,-243.2h-81.06c0,178.34 145.92,324.26 324.26,324.26c178.34,0 324.26,-145.92 324.26,-324.26c0,-178.34 -145.92,-324.27 -324.26,-324.27zM645.76,572.8c0,-12.16 0,-20.26 -4.06,-32.42c-4.06,-12.16 -4.06,-20.26 -12.16,-24.32c-8.1,-4.06 -12.16,-8.1 -20.26,-12.16c-8.1,-4.06 -16.22,-4.06 -24.32,-4.06c-8.1,0 -16.22,4.06 -24.32,4.06c-8.1,0 -20.26,12.16 -20.26,12.16l-12.16,24.32c-4.06,8.1 -4.06,20.26 -4.06,32.42v28.38c0,12.16 0,20.26 4.06,32.42c4.06,12.16 4.06,20.26 12.16,24.32c8.1,4.06 12.16,8.1 20.26,12.16c8.1,4.06 16.22,4.06 24.32,4.06c8.1,0 16.22,-4.06 24.32,-4.06c8.1,0 20.26,-12.16 20.26,-12.16l12.16,-24.32c4.06,-8.1 4.06,-20.26 4.06,-32.42zM414.72,601.18h24.32c4.06,0 8.1,-0.01 8.1,4.05c0,4.06 4.06,8.11 4.06,8.11v20.26c0,4.06 0,8.1 -4.06,8.1c-4.06,0 -8.1,4.06 -8.1,4.06h-20.26c-4.06,0 -8.11,0 -8.11,-4.06c0,-4.06 -4.05,-8.1 -4.05,-8.1v-8.1h-32.43c0,8.1 0,16.22 4.06,24.32c4.06,8.1 4.06,12.15 12.16,16.21c8.1,4.06 16.21,4.06 20.26,8.11c4.06,4.06 12.17,4.05 20.27,4.05c8.1,0 16.22,-4.05 24.32,-4.05c8.1,0 16.21,-4.06 20.26,-8.11c4.06,-4.06 8.1,-12.15 12.16,-16.21c4.06,-4.06 4.06,-12.17 4.06,-20.27c0,-8.1 -4.06,-16.22 -8.11,-24.32c-4.06,-8.1 -12.16,-12.15 -20.26,-16.21c4.06,-4.06 8.1,-8.11 12.16,-8.11c4.06,0 8.1,-4.05 8.1,-8.1c0,-4.06 4.06,-12.16 4.06,-12.16v-12.16c0,-8.1 0,-12.16 -4.06,-20.26c-4.06,-8.1 -4.06,-12.16 -12.16,-16.22c-8.1,-4.06 -12.16,-4.05 -20.26,-8.1c-8.1,-4.06 -16.22,-4.06 -24.32,-4.06c-4.06,0 -16.21,4.06 -20.26,4.06c-4.06,0 -12.16,4.05 -16.22,8.1c-4.06,4.06 -8.1,8.11 -12.16,16.22c-4.06,8.1 -4.06,12.16 -4.06,20.26h40.54v-8.1c0,-4.06 0,-8.11 4.06,-8.11c4.06,0 8.1,-4.05 8.1,-4.05h20.26c4.06,0 8.11,-0.01 8.11,4.05c0,4.06 4.05,8.11 4.05,8.11v8.1c0,8.1 -4.05,12.16 -8.1,16.22c-4.06,4.06 -12.16,8.1 -20.26,8.1h-16.22zM613.34,629.54c0,4.06 -4.06,12.16 -4.06,12.16l-8.1,8.11c-4.06,4.06 -8.1,4.05 -12.16,4.05c-4.06,0 -8.1,0.01 -12.16,-4.05c-4.06,-4.06 -8.11,-4.06 -8.11,-8.11c0,-4.06 -4.05,-12.16 -4.05,-12.16v-81.06c0,-4.06 4.05,-12.16 4.05,-12.16l8.11,-8.1c4.06,-4.06 8.1,-4.06 12.16,-4.06c4.06,0 8.1,0 12.16,4.06c4.06,4.06 8.1,4.05 8.1,8.1c0,4.06 4.06,8.1 4.06,12.16z" fill="url(#color-2ZQjpiUB)"/>
		</mask>
		<mask id="mask-uO4uYiMM">
			<path d="M861.86,552.54c0,192.48 -157.38,349.86 -349.86,349.86c-192.48,0 -349.86,-157.38 -349.86,-349.86c0,-14.14 11.46,-25.6 25.6,-25.6h81.06c14.14,0 25.6,11.46 25.6,25.6c0,119.62 97.98,217.6 217.6,217.6c119.62,0 217.6,-97.98 217.6,-217.6c0,-110.96 -84.31,-203.31 -192,-216.09v135.02c0,10.35 -6.24,19.69 -15.8,23.65c-9.57,3.96 -20.58,1.77 -27.9,-5.55l-202.66,-202.66c-10,-10 -10,-26.21 0,-36.2l202.66,-202.66c7.32,-7.32 18.33,-9.51 27.9,-5.55c9.57,3.96 15.8,13.3 15.8,23.65v137.46c180.64,13.22 324.26,165.06 324.26,348.94zM671.36,601.18c0,9.81 0.61,29.15 -6.76,43.88l-12.15,24.31c-1.23,2.46 -2.85,4.71 -4.8,6.65c0,0 -19.66,19.66 -38.36,19.66c-0.39,0 -1.35,0.11 -5.95,1.26c-3.49,0.87 -10.63,2.79 -18.37,2.79c-7.5,0 -21.53,0.37 -35.78,-6.76c-5.62,-2.81 -9.83,-5.64 -12.87,-7.67c-3.05,-2.03 -4.91,-3.25 -7.39,-4.49c-8.84,-4.43 -14.57,-11.87 -18.28,-19.08l-7.74,10.4c-1.57,2.35 -5.07,7.8 -9.28,12c-8.52,8.52 -23.01,15.61 -38.36,15.61c-0.39,0 -1.34,0.11 -5.96,1.26c-3.49,0.87 -10.62,2.79 -18.36,2.79c-3.02,0 -22.07,1.53 -35.43,-8.94c-0.45,-0.13 -1.01,-0.3 -1.71,-0.5c-3.02,-0.85 -8.82,-2.41 -14.85,-5.43c-17.88,-8.95 -22.15,-24.75 -23.59,-27.64c-7.13,-14.25 -6.76,-28.28 -6.76,-35.78c0,-14.14 11.46,-25.6 25.6,-25.6h14.94v-25.82h-14.94c-14.14,0 -25.6,-11.46 -25.6,-25.6c0,-9.42 0.03,-18.27 6.76,-31.72c5.94,-11.86 12.34,-18.25 16.95,-22.86c6.69,-6.69 20.42,-15.19 33.39,-15.59c0.98,-0.15 3.06,-0.63 6.69,-1.53c2.77,-0.68 9.71,-2.55 14.51,-2.55c7.5,0 21.53,-0.37 35.78,6.76c2.31,1.16 3.88,1.7 6.76,2.65c3.22,1.07 7.72,2.55 13.51,5.45c17.89,8.95 22.16,24.78 23.59,27.65c0.89,1.78 1.66,3.48 2.34,5.11l8.63,-17.26c1.23,-2.46 2.85,-4.71 4.8,-6.65c0,0 19.66,-19.66 38.37,-19.66c0.39,0 1.34,-0.11 5.95,-1.26c3.49,-0.87 10.63,-2.79 18.37,-2.79c7.5,0 21.53,-0.37 35.78,6.76c5.62,2.81 9.83,5.64 12.87,7.67c3.05,2.03 4.91,3.25 7.39,4.49c20.6,10.31 24.27,36.98 24.98,39.11c5.47,16.4 5.37,28.12 5.37,40.52zM512,228.26v-162.13l-202.66,202.66l202.66,202.66v-162.13c133.76,0 243.2,109.44 243.2,243.2c0,133.76 -109.44,243.2 -243.2,243.2c-133.76,0 -243.2,-109.44 -243.2,-243.2h-81.06c0,178.34 145.92,324.26 324.26,324.26c178.34,0 324.26,-145.92 324.26,-324.26c0,-178.34 -145.92,-324.27 -324.26,-324.27zM645.76,572.8c0,-12.16 0,-20.26 -4.06,-32.42c-4.06,-12.16 -4.06,-20.26 -12.16,-24.32c-8.1,-4.06 -12.16,-8.1 -20.26,-12.16c-8.1,-4.06 -16.22,-4.06 -24.32,-4.06c-8.1,0 -16.22,4.06 -24.32,4.06c-8.1,0 -20.26,12.16 -20.26,12.16l-12.16,24.32c-4.06,8.1 -4.06,20.26 -4.06,32.42v28.38c0,12.16 0,20.26 4.06,32.42c4.06,12.16 4.06,20.26 12.16,24.32c8.1,4.06 12.16,8.1 20.26,12.16c8.1,4.06 16.22,4.06 24.32,4.06c8.1,0 16.22,-4.06 24.32,-4.06c8.1,0 20.26,-12.16 20.26,-12.16l12.16,-24.32c4.06,-8.1 4.06,-20.26 4.06,-32.42zM414.72,601.18h24.32c4.06,0 8.1,-0.01 8.1,4.05c0,4.06 4.06,8.11 4.06,8.11v20.26c0,4.06 0,8.1 -4.06,8.1c-4.06,0 -8.1,4.06 -8.1,4.06h-20.26c-4.06,0 -8.11,0 -8.11,-4.06c0,-4.06 -4.05,-8.1 -4.05,-8.1v-8.1h-32.43c0,8.1 0,16.22 4.06,24.32c4.06,8.1 4.06,12.15 12.16,16.21c8.1,4.06 16.21,4.06 20.26,8.11c4.06,4.06 12.17,4.05 20.27,4.05c8.1,0 16.22,-4.05 24.32,-4.05c8.1,0 16.21,-4.06 20.26,-8.11c4.06,-4.06 8.1,-12.15 12.16,-16.21c4.06,-4.06 4.06,-12.17 4.06,-20.27c0,-8.1 -4.06,-16.22 -8.11,-24.32c-4.06,-8.1 -12.16,-12.15 -20.26,-16.21c4.06,-4.06 8.1,-8.11 12.16,-8.11c4.06,0 8.1,-4.05 8.1,-8.1c0,-4.06 4.06,-12.16 4.06,-12.16v-12.16c0,-8.1 0,-12.16 -4.06,-20.26c-4.06,-8.1 -4.06,-12.16 -12.16,-16.22c-8.1,-4.06 -12.16,-4.05 -20.26,-8.1c-8.1,-4.06 -16.22,-4.06 -24.32,-4.06c-4.06,0 -16.21,4.06 -20.26,4.06c-4.06,0 -12.16,4.05 -16.22,8.1c-4.06,4.06 -8.1,8.11 -12.16,16.22c-4.06,8.1 -4.06,12.16 -4.06,20.26h40.54v-8.1c0,-4.06 0,-8.11 4.06,-8.11c4.06,0 8.1,-4.05 8.1,-4.05h20.26c4.06,0 8.11,-0.01 8.11,4.05c0,4.06 4.05,8.11 4.05,8.11v8.1c0,8.1 -4.05,12.16 -8.1,16.22c-4.06,4.06 -12.16,8.1 -20.26,8.1h-16.22zM613.34,629.54c0,4.06 -4.06,12.16 -4.06,12.16l-8.1,8.11c-4.06,4.06 -8.1,4.05 -12.16,4.05c-4.06,0 -8.1,0.01 -12.16,-4.05c-4.06,-4.06 -8.11,-4.06 -8.11,-8.11c0,-4.06 -4.05,-12.16 -4.05,-12.16v-81.06c0,-4.06 4.05,-12.16 4.05,-12.16l8.11,-8.1c4.06,-4.06 8.1,-4.06 12.16,-4.06c4.06,0 8.1,0 12.16,4.06c4.06,4.06 8.1,4.05 8.1,8.1c0,4.06 4.06,8.1 4.06,12.16z" fill="#ffffff"/>
		</mask>
	</defs>
	<g fill="none" fill-rule="nonzero" style="mix-blend-mode: normal">
		<g mask="url(#mask-uO4uYiMM)">
			<g color="#ff0000" class="teamapps-color-2">
				<rect x="162.14" y="40.54" width="699.73" height="861.86" fill="currentColor"/>
			</g>
			<g color="#bc13e0" class="teamapps-color-3" mask="url(#mask-gX6hWpJH)">
				<rect x="162.14" y="40.54" width="699.73" height="861.86" fill="currentColor"/>
			</g>
		</g>
		<g filter="url(#filter-LTWW17R6)" mask="url(#mask-koQb7ZEr)">
			<g color="#fff961" class="teamapps-color-1">
				<rect x="162.14" y="40.54" width="699.73" height="861.86" fill="currentColor"/>
			</g>
		</g>
	</g>
</svg>