<svg version="1.1" xmlns="http://www.w3.org/2000/svg" xmlns:xlink="http://www.w3.org/1999/xlink" viewBox="0,0,1024,1024">
	<!-- Color names: teamapps-color-1, teamapps-color-2, teamapps-color-3 -->
	<desc>ring_volume icon - Licensed under Apache License v2.0 (http://www.apache.org/licenses/LICENSE-2.0) - Created with Iconfu.com - Derivative work of Material icons (Copyright Google Inc.)</desc>
	<defs>
		<radialGradient cx="0" cy="0" r="1448.15" id="color-4Tk82UBK" gradientUnits="userSpaceOnUse">
			<stop offset="0.08" stop-color="#ffffff"/>
			<stop offset="1" stop-color="#000000"/>
		</radialGradient>
		<linearGradient x1="0" y1="1024" x2="1024" y2="0" id="color-vype2gpq" gradientUnits="userSpaceOnUse">
			<stop offset="0.2" stop-color="#000000"/>
			<stop offset="0.8" stop-color="#ffffff"/>
		</linearGradient>
		<filter id="filter-qIwVBPgh" color-interpolation-filters="sRGB">
			<feOffset/>
		</filter>
		<mask id="mask-9pRX4Y6O">
			<path d="M1024,729.66c0,18.22 -7.21,34.83 -19.25,46.88l-100.53,100.53c-12.04,12.04 -28.66,19.25 -46.88,19.25c-17.09,0 -33.7,-6.3 -46.07,-18.44c-30.27,-27.92 -64.22,-51.9 -101.46,-70.54c-21.97,-10.73 -36.96,-33.72 -36.96,-59.44v-106.72c-51.08,-14.72 -105.15,-22.52 -160.86,-22.52c-55.75,0 -109.82,7.81 -160.86,22.81v106.84c0,26.25 -15.11,48.74 -36.91,59.41c-37.19,18.8 -71.56,42.52 -101.67,70.71c-11.73,11.06 -28.04,18.3 -45.91,18.3c-18.23,0 -34.85,-7.23 -46.88,-19.26l-100.53,-100.52c-12.04,-12.04 -19.25,-28.66 -19.25,-46.88c0,-18.21 7.2,-34.84 19.25,-46.89c0.16,-0.16 0.33,-0.32 0.49,-0.48c128.17,-121.46 301.4,-196.31 492.26,-196.31c190.85,0 364.08,74.85 492.26,196.31c0.17,0.16 0.33,0.32 0.49,0.48c11.95,11.95 19.25,28.54 19.25,46.48zM122.61,261.23l57.56,-57.55c10.01,-10.01 26.23,-9.99 36.23,0.03l143.9,144.3c9.97,10 9.96,26.19 -0.03,36.18l-57.15,57.15c-10.07,10.07 -26.42,9.99 -36.38,-0.18c-1.35,-1.37 -125.86,-128.29 -140.23,-140.52c-5.11,-3.41 -8.91,-8.61 -10.54,-14.73c-2.34,-8.82 0.19,-18.22 6.64,-24.67zM720.88,441.33l-57.15,-57.15c-10.01,-10.01 -10,-26.24 0.03,-36.23l144.31,-143.9c10,-9.97 26.19,-9.96 36.18,0.03l57.15,57.15c6.45,6.45 8.98,15.85 6.64,24.67c-1.62,6.12 -5.43,11.32 -10.54,14.73c-14.37,12.22 -138.88,139.15 -140.23,140.52c-9.97,10.17 -26.32,10.25 -36.38,0.18zM552.54,334.94h-81.07c-14.14,0 -25.6,-11.46 -25.6,-25.6v-202.67c0,-14.14 11.46,-25.6 25.6,-25.6h81.07c14.14,0 25.6,11.46 25.6,25.6v202.67c0,14.14 -11.46,25.6 -25.6,25.6zM986.65,701.29c-123.62,-117.14 -290.62,-189.29 -474.65,-189.29c-184.02,0 -351.02,72.14 -474.65,189.29c-7.3,7.3 -11.75,17.43 -11.75,28.78c0,11.35 4.46,21.48 11.75,28.78l100.53,100.52c7.3,7.3 17.42,11.76 28.78,11.76c10.94,0 21.08,-4.47 28.38,-11.35c32.02,-29.99 68.5,-55.12 107.82,-74.98c13.38,-6.49 22.7,-20.26 22.7,-36.48v-125.66c58.78,-19.46 121.6,-29.59 186.46,-29.59c64.86,0 127.68,10.14 186.46,29.18v125.66c0,15.81 9.32,29.99 22.7,36.48c39.72,19.86 75.79,45.39 107.82,74.98c7.3,7.3 17.43,11.35 28.38,11.35c11.35,0 21.48,-4.46 28.78,-11.75l100.53,-100.53c7.3,-7.3 11.75,-17.42 11.75,-28.78c0,-10.94 -4.46,-21.08 -11.75,-28.38zM285.02,423.23l57.15,-57.15l-143.9,-144.3l-57.56,57.55c4.46,1.22 144.31,143.9 144.31,143.9zM883.29,279.34l-57.15,-57.15l-144.3,143.9l57.15,57.15c0,0 139.85,-142.68 144.3,-143.9zM552.54,106.66h-81.07v202.67h81.07z" fill="#ffffff"/>
		</mask>
		<mask id="mask-dVF9q1Ig">
			<rect fill="url(#color-vype2gpq)" x="0" y="81.06" width="1024" height="815.67"/>
		</mask>
		<mask id="mask-NJoV8UtH">
			<path d="M1024,729.66c0,18.22 -7.21,34.83 -19.25,46.88l-100.53,100.53c-12.04,12.04 -28.66,19.25 -46.88,19.25c-17.09,0 -33.7,-6.3 -46.07,-18.44c-30.27,-27.92 -64.22,-51.9 -101.46,-70.54c-21.97,-10.73 -36.96,-33.72 -36.96,-59.44v-106.72c-51.08,-14.72 -105.15,-22.52 -160.86,-22.52c-55.75,0 -109.82,7.81 -160.86,22.81v106.84c0,26.25 -15.11,48.74 -36.91,59.41c-37.19,18.8 -71.56,42.52 -101.67,70.71c-11.73,11.06 -28.04,18.3 -45.91,18.3c-18.23,0 -34.85,-7.23 -46.88,-19.26l-100.53,-100.52c-12.04,-12.04 -19.25,-28.66 -19.25,-46.88c0,-18.21 7.2,-34.84 19.25,-46.89c0.16,-0.16 0.33,-0.32 0.49,-0.48c128.17,-121.46 301.4,-196.31 492.26,-196.31c190.85,0 364.08,74.85 492.26,196.31c0.17,0.16 0.33,0.32 0.49,0.48c11.95,11.95 19.25,28.54 19.25,46.48zM122.61,261.23l57.56,-57.55c10.01,-10.01 26.23,-9.99 36.23,0.03l143.9,144.3c9.97,10 9.96,26.19 -0.03,36.18l-57.15,57.15c-10.07,10.07 -26.42,9.99 -36.38,-0.18c-1.35,-1.37 -125.86,-128.29 -140.23,-140.52c-5.11,-3.41 -8.91,-8.61 -10.54,-14.73c-2.34,-8.82 0.19,-18.22 6.64,-24.67zM720.88,441.33l-57.15,-57.15c-10.01,-10.01 -10,-26.24 0.03,-36.23l144.31,-143.9c10,-9.97 26.19,-9.96 36.18,0.03l57.15,57.15c6.45,6.45 8.98,15.85 6.64,24.67c-1.62,6.12 -5.43,11.32 -10.54,14.73c-14.37,12.22 -138.88,139.15 -140.23,140.52c-9.97,10.17 -26.32,10.25 -36.38,0.18zM552.54,334.94h-81.07c-14.14,0 -25.6,-11.46 -25.6,-25.6v-202.67c0,-14.14 11.46,-25.6 25.6,-25.6h81.07c14.14,0 25.6,11.46 25.6,25.6v202.67c0,14.14 -11.46,25.6 -25.6,25.6zM986.65,701.29c-123.62,-117.14 -290.62,-189.29 -474.65,-189.29c-184.02,0 -351.02,72.14 -474.65,189.29c-7.3,7.3 -11.75,17.43 -11.75,28.78c0,11.35 4.46,21.48 11.75,28.78l100.53,100.52c7.3,7.3 17.42,11.76 28.78,11.76c10.94,0 21.08,-4.47 28.38,-11.35c32.02,-29.99 68.5,-55.12 107.82,-74.98c13.38,-6.49 22.7,-20.26 22.7,-36.48v-125.66c58.78,-19.46 121.6,-29.59 186.46,-29.59c64.86,0 127.68,10.14 186.46,29.18v125.66c0,15.81 9.32,29.99 22.7,36.48c39.72,19.86 75.79,45.39 107.82,74.98c7.3,7.3 17.43,11.35 28.38,11.35c11.35,0 21.48,-4.46 28.78,-11.75l100.53,-100.53c7.3,-7.3 11.75,-17.42 11.75,-28.78c0,-10.94 -4.46,-21.08 -11.75,-28.38zM285.02,423.23l57.15,-57.15l-143.9,-144.3l-57.56,57.55c4.46,1.22 144.31,143.9 144.31,143.9zM883.29,279.34l-57.15,-57.15l-144.3,143.9l57.15,57.15c0,0 139.85,-142.68 144.3,-143.9zM552.54,106.66h-81.07v202.67h81.07z" fill="url(#color-4Tk82UBK)"/>
		</mask>
	</defs>
	<g fill="none" fill-rule="nonzero" style="mix-blend-mode: normal">
		<g mask="url(#mask-9pRX4Y6O)">
			<g color="#ff0000" class="teamapps-color-2">
				<rect x="0" y="81.06" width="1024" height="815.67" fill="currentColor"/>
			</g>
			<g color="#bc13e0" class="teamapps-color-3" mask="url(#mask-dVF9q1Ig)">
				<rect x="0" y="81.06" width="1024" height="815.67" fill="currentColor"/>
			</g>
		</g>
		<g filter="url(#filter-qIwVBPgh)" mask="url(#mask-NJoV8UtH)">
			<g color="#fff961" class="teamapps-color-1">
				<rect x="0" y="81.06" width="1024" height="815.67" fill="currentColor"/>
			</g>
		</g>
	</g>
</svg>