<svg version="1.1" xmlns="http://www.w3.org/2000/svg" xmlns:xlink="http://www.w3.org/1999/xlink" viewBox="0,0,1024,1024">
	<!-- Color names: teamapps-color-1, teamapps-color-2, teamapps-color-3 -->
	<desc>slow_motion_video icon - Licensed under Apache License v2.0 (http://www.apache.org/licenses/LICENSE-2.0) - Created with Iconfu.com - Derivative work of Material icons (Copyright Google Inc.)</desc>
	<defs>
		<radialGradient cx="0" cy="0" r="1448.15" id="color-1PQm93Mk" gradientUnits="userSpaceOnUse">
			<stop offset="0.08" stop-color="#ffffff"/>
			<stop offset="1" stop-color="#000000"/>
		</radialGradient>
		<linearGradient x1="0" y1="1024" x2="1024" y2="0" id="color-iNEm0lXk" gradientUnits="userSpaceOnUse">
			<stop offset="0.2" stop-color="#000000"/>
			<stop offset="0.8" stop-color="#ffffff"/>
		</linearGradient>
		<filter id="filter-GGs9OzXz" color-interpolation-filters="sRGB">
			<feOffset/>
		</filter>
		<mask id="mask-FKEl5giU">
			<path d="M942.94,512c0,222.39 -168.93,405.93 -385.69,428.76c-7.22,0.76 -14.42,-1.58 -19.81,-6.43c-5.39,-4.85 -8.47,-11.77 -8.47,-19.03v-81.87c0,-12.84 9.51,-23.69 22.23,-25.38c146.36,-19.42 259.47,-144.93 259.47,-296.05c0,-151.12 -113.11,-276.64 -259.47,-296.05c-12.73,-1.69 -22.23,-12.54 -22.23,-25.38v-81.87c0,-7.26 3.08,-14.17 8.47,-19.03c5.39,-4.85 12.59,-7.19 19.81,-6.43c216.77,22.84 385.69,206.37 385.69,428.76zM405.34,694.4v-364.8c0,-9.7 5.48,-18.56 14.15,-22.9c8.67,-4.34 19.05,-3.4 26.81,2.42l243.2,182.4c6.45,4.83 10.24,12.42 10.24,20.48c0,8.06 -3.79,15.65 -10.24,20.48l-243.2,182.4c-7.76,5.82 -18.14,6.75 -26.81,2.42c-8.67,-4.34 -14.15,-13.2 -14.15,-22.9zM329.06,747.53c41.56,32.2 91.18,53.79 145.53,60.49c12.83,1.58 22.47,12.48 22.47,25.41v81.87c0,7.23 -3.06,14.13 -8.42,18.98c-5.36,4.85 -12.53,7.21 -19.72,6.49c-86.26,-8.62 -165.55,-43.12 -229.29,-95.23c-5.59,-4.57 -8.99,-11.29 -9.36,-18.49c-0.37,-7.21 2.31,-14.24 7.4,-19.36l57.55,-57.96c9.11,-9.17 23.63,-10.12 33.84,-2.2zM190.57,497.06h-81.87c-7.23,0 -14.12,-3.06 -18.98,-8.42c-4.85,-5.36 -7.21,-12.52 -6.5,-19.72c8.62,-86.7 43.13,-165.58 95.23,-229.3c4.57,-5.59 11.29,-8.99 18.49,-9.36c7.21,-0.37 14.24,2.31 19.36,7.4l57.96,57.55c9.17,9.11 10.12,23.63 2.2,33.84c-32.2,41.56 -53.79,91.18 -60.49,145.53c-1.58,12.83 -12.48,22.47 -25.41,22.47zM295.22,274.27l-57.55,-57.96c-5.09,-5.12 -7.77,-12.15 -7.4,-19.36c0.37,-7.21 3.77,-13.93 9.36,-18.49c63.72,-52.1 142.6,-86.61 229.3,-95.23c7.19,-0.72 14.36,1.64 19.72,6.5c5.36,4.85 8.42,11.75 8.42,18.98v81.87c0,12.93 -9.64,23.83 -22.47,25.41c-54.35,6.7 -103.98,28.3 -145.53,60.49c-10.22,7.92 -24.74,6.97 -33.84,-2.2zM274.33,728.31l-57.96,57.96c-5.12,5.12 -12.16,7.83 -19.38,7.47c-7.23,-0.36 -13.96,-3.76 -18.54,-9.36c-52.1,-63.72 -86.61,-142.6 -95.23,-229.3c-0.72,-7.19 1.64,-14.36 6.5,-19.72c4.85,-5.36 11.75,-8.42 18.98,-8.42h81.87c12.93,0 23.83,9.64 25.41,22.47c6.7,54.37 28.3,103.95 60.42,145.04c7.97,10.19 7.08,24.72 -2.07,33.87zM554.56,108.7v81.87c158.89,21.08 281.7,157.27 281.7,321.43c0,164.16 -122.82,300.35 -281.7,321.43v81.87c203.88,-21.48 362.78,-194.15 362.78,-403.3c0,-209.15 -158.9,-381.82 -362.78,-403.3zM674.14,512l-243.2,-182.4v364.8zM255.83,825.73c59.99,49.05 134.57,81.47 215.63,89.58v-81.87c-59.18,-7.3 -113.09,-30.81 -158.08,-65.66zM471.46,190.57v-81.87c-81.47,8.1 -155.64,40.53 -215.63,89.58l57.55,57.96c44.99,-34.86 98.9,-58.37 158.08,-65.66zM256.23,313.38l-57.96,-57.55c-49.05,59.99 -81.47,134.16 -89.58,215.63h81.87c7.3,-59.18 30.81,-113.09 65.66,-158.08zM190.57,552.54h-81.87c8.1,81.47 40.53,155.64 89.58,215.63l57.96,-57.96c-34.86,-44.58 -58.37,-98.5 -65.66,-157.67z" fill="url(#color-1PQm93Mk)"/>
		</mask>
		<mask id="mask-qgaYMQpT">
			<path d="M942.94,512c0,222.39 -168.93,405.93 -385.69,428.76c-7.22,0.76 -14.42,-1.58 -19.81,-6.43c-5.39,-4.85 -8.47,-11.77 -8.47,-19.03v-81.87c0,-12.84 9.51,-23.69 22.23,-25.38c146.36,-19.42 259.47,-144.93 259.47,-296.05c0,-151.12 -113.11,-276.64 -259.47,-296.05c-12.73,-1.69 -22.23,-12.54 -22.23,-25.38v-81.87c0,-7.26 3.08,-14.17 8.47,-19.03c5.39,-4.85 12.59,-7.19 19.81,-6.43c216.77,22.84 385.69,206.37 385.69,428.76zM405.34,694.4v-364.8c0,-9.7 5.48,-18.56 14.15,-22.9c8.67,-4.34 19.05,-3.4 26.81,2.42l243.2,182.4c6.45,4.83 10.24,12.42 10.24,20.48c0,8.06 -3.79,15.65 -10.24,20.48l-243.2,182.4c-7.76,5.82 -18.14,6.75 -26.81,2.42c-8.67,-4.34 -14.15,-13.2 -14.15,-22.9zM329.06,747.53c41.56,32.2 91.18,53.79 145.53,60.49c12.83,1.58 22.47,12.48 22.47,25.41v81.87c0,7.23 -3.06,14.13 -8.42,18.98c-5.36,4.85 -12.53,7.21 -19.72,6.49c-86.26,-8.62 -165.55,-43.12 -229.29,-95.23c-5.59,-4.57 -8.99,-11.29 -9.36,-18.49c-0.37,-7.21 2.31,-14.24 7.4,-19.36l57.55,-57.96c9.11,-9.17 23.63,-10.12 33.84,-2.2zM190.57,497.06h-81.87c-7.23,0 -14.12,-3.06 -18.98,-8.42c-4.85,-5.36 -7.21,-12.52 -6.5,-19.72c8.62,-86.7 43.13,-165.58 95.23,-229.3c4.57,-5.59 11.29,-8.99 18.49,-9.36c7.21,-0.37 14.24,2.31 19.36,7.4l57.96,57.55c9.17,9.11 10.12,23.63 2.2,33.84c-32.2,41.56 -53.79,91.18 -60.49,145.53c-1.58,12.83 -12.48,22.47 -25.41,22.47zM295.22,274.27l-57.55,-57.96c-5.09,-5.12 -7.77,-12.15 -7.4,-19.36c0.37,-7.21 3.77,-13.93 9.36,-18.49c63.72,-52.1 142.6,-86.61 229.3,-95.23c7.19,-0.72 14.36,1.64 19.72,6.5c5.36,4.85 8.42,11.75 8.42,18.98v81.87c0,12.93 -9.64,23.83 -22.47,25.41c-54.35,6.7 -103.98,28.3 -145.53,60.49c-10.22,7.92 -24.74,6.97 -33.84,-2.2zM274.33,728.31l-57.96,57.96c-5.12,5.12 -12.16,7.83 -19.38,7.47c-7.23,-0.36 -13.96,-3.76 -18.54,-9.36c-52.1,-63.72 -86.61,-142.6 -95.23,-229.3c-0.72,-7.19 1.64,-14.36 6.5,-19.72c4.85,-5.36 11.75,-8.42 18.98,-8.42h81.87c12.93,0 23.83,9.64 25.41,22.47c6.7,54.37 28.3,103.95 60.42,145.04c7.97,10.19 7.08,24.72 -2.07,33.87zM554.56,108.7v81.87c158.89,21.08 281.7,157.27 281.7,321.43c0,164.16 -122.82,300.35 -281.7,321.43v81.87c203.88,-21.48 362.78,-194.15 362.78,-403.3c0,-209.15 -158.9,-381.82 -362.78,-403.3zM674.14,512l-243.2,-182.4v364.8zM255.83,825.73c59.99,49.05 134.57,81.47 215.63,89.58v-81.87c-59.18,-7.3 -113.09,-30.81 -158.08,-65.66zM471.46,190.57v-81.87c-81.47,8.1 -155.64,40.53 -215.63,89.58l57.55,57.96c44.99,-34.86 98.9,-58.37 158.08,-65.66zM256.23,313.38l-57.96,-57.55c-49.05,59.99 -81.47,134.16 -89.58,215.63h81.87c7.3,-59.18 30.81,-113.09 65.66,-158.08zM190.57,552.54h-81.87c8.1,81.47 40.53,155.64 89.58,215.63l57.96,-57.96c-34.86,-44.58 -58.37,-98.5 -65.66,-157.67z" fill="#ffffff"/>
		</mask>
		<mask id="mask-qjsMbng8">
			<rect fill="url(#color-iNEm0lXk)" x="83.1" y="83.1" width="859.84" height="857.81"/>
		</mask>
	</defs>
	<g fill="none" fill-rule="nonzero" style="mix-blend-mode: normal">
		<g mask="url(#mask-qgaYMQpT)">
			<g color="#ff0000" class="teamapps-color-2">
				<rect x="83.1" y="83.1" width="859.84" height="857.81" fill="currentColor"/>
			</g>
			<g color="#bc13e0" class="teamapps-color-3" mask="url(#mask-qjsMbng8)">
				<rect x="83.1" y="83.1" width="859.84" height="857.81" fill="currentColor"/>
			</g>
		</g>
		<g filter="url(#filter-GGs9OzXz)" mask="url(#mask-FKEl5giU)">
			<g color="#fff961" class="teamapps-color-1">
				<rect x="83.1" y="83.1" width="859.84" height="857.81" fill="currentColor"/>
			</g>
		</g>
	</g>
</svg>