<svg version="1.1" xmlns="http://www.w3.org/2000/svg" xmlns:xlink="http://www.w3.org/1999/xlink" viewBox="0,0,1024,1024">
	<!-- Color names: teamapps-color-1, teamapps-color-2, teamapps-color-3 -->
	<desc>stop_screen_share icon - Licensed under Apache License v2.0 (http://www.apache.org/licenses/LICENSE-2.0) - Created with Iconfu.com - Derivative work of Material icons (Copyright Google Inc.)</desc>
	<defs>
		<linearGradient x1="0" y1="1024" x2="1024" y2="0" id="color-P283AP3G" gradientUnits="userSpaceOnUse">
			<stop offset="0.2" stop-color="#000000"/>
			<stop offset="0.8" stop-color="#ffffff"/>
		</linearGradient>
		<radialGradient cx="0" cy="0" r="1448.15" id="color-Q1AWvnAm" gradientUnits="userSpaceOnUse">
			<stop offset="0.08" stop-color="#ffffff"/>
			<stop offset="1" stop-color="#000000"/>
		</radialGradient>
		<filter id="filter-uSTQtSQ9" color-interpolation-filters="sRGB">
			<feOffset/>
		</filter>
		<mask id="mask-0jKQwBCj">
			<path d="M939.89,913.55l-51.48,51.47c-10,10 -26.21,10 -36.2,0l-102.34,-102.34h-724.27c-14.14,0 -25.6,-11.46 -25.6,-25.6v-81.07c0,-14.14 11.46,-25.6 25.6,-25.6h71.01c-9.86,-16.18 -15.54,-35.18 -15.54,-55.46v-405.34c0,-21.52 6.3,-41.67 17.26,-58.47l-45.83,-45.83c-10.02,-10.02 -9.99,-26.29 0.07,-36.27l51.88,-51.48c10.01,-9.93 26.17,-9.9 36.14,0.07l799.32,799.73c9.99,10 9.99,26.21 -0.01,36.2zM857.07,763.57l-224.55,-224.55c-10.25,-10.25 -9.95,-26.97 0.66,-36.84l43.92,-40.86l-98.97,-92.29v27.46c0,12.6 -9.17,23.32 -21.61,25.29c-7.64,1.21 -14.26,2.32 -20.72,3.76c-8.55,1.9 -17.47,-0.69 -23.67,-6.89l-211.99,-211.99c-7.32,-7.32 -9.51,-18.33 -5.55,-27.9c3.96,-9.57 13.3,-15.8 23.65,-15.8h518.02c58.63,0 106.67,47.44 106.67,106.66l-0.41,405.36c0,20.26 -5.74,39.29 -15.64,55.44h71.52c14.14,0 25.6,11.46 25.6,25.6v81.07c0,14.14 -11.46,25.6 -25.6,25.6h-31.62c-6.79,0 -13.3,-2.7 -18.1,-7.5l-81.06,-81.07c-1.81,-1.81 -3.3,-3.84 -4.47,-6.02c-2.24,-1.21 -4.29,-2.73 -6.08,-4.52zM393.93,506.74c-9.57,11.58 -17.92,24.02 -25.2,37.12c12.99,-8.11 26.73,-15.11 41.29,-21.03zM122.47,95.72l-51.88,51.48l62.42,62.42c-16.22,14.59 -26.35,36.07 -26.35,59.98v405.34c0,44.58 36.08,81.06 81.07,81.06h-162.14v81.07h734.87l109.84,109.84l51.48,-51.47zM916.93,674.94l0.41,-405.34c0,-44.99 -36.49,-81.06 -81.07,-81.06h-518.02l211.99,211.99c7.3,-1.62 14.59,-2.84 22.3,-4.06v-86.34l162.13,151.19l-64.04,59.58l224.55,224.55c24.73,-13.38 41.75,-40.13 41.75,-70.53zM309.34,634.41c12.57,-59.99 37.29,-119.57 83.9,-164.56l64.45,64.45c-62.42,15.4 -109.44,47.82 -148.35,100.11zM885.72,756.01l81.06,81.07h31.62v-81.07z" fill="#ffffff"/>
		</mask>
		<mask id="mask-fNeStilI">
			<rect fill="url(#color-P283AP3G)" x="0" y="70.12" width="1024" height="902.4"/>
		</mask>
		<mask id="mask-S92LPxDe">
			<path d="M939.89,913.55l-51.48,51.47c-10,10 -26.21,10 -36.2,0l-102.34,-102.34h-724.27c-14.14,0 -25.6,-11.46 -25.6,-25.6v-81.07c0,-14.14 11.46,-25.6 25.6,-25.6h71.01c-9.86,-16.18 -15.54,-35.18 -15.54,-55.46v-405.34c0,-21.52 6.3,-41.67 17.26,-58.47l-45.83,-45.83c-10.02,-10.02 -9.99,-26.29 0.07,-36.27l51.88,-51.48c10.01,-9.93 26.17,-9.9 36.14,0.07l799.32,799.73c9.99,10 9.99,26.21 -0.01,36.2zM857.07,763.57l-224.55,-224.55c-10.25,-10.25 -9.95,-26.97 0.66,-36.84l43.92,-40.86l-98.97,-92.29v27.46c0,12.6 -9.17,23.32 -21.61,25.29c-7.64,1.21 -14.26,2.32 -20.72,3.76c-8.55,1.9 -17.47,-0.69 -23.67,-6.89l-211.99,-211.99c-7.32,-7.32 -9.51,-18.33 -5.55,-27.9c3.96,-9.57 13.3,-15.8 23.65,-15.8h518.02c58.63,0 106.67,47.44 106.67,106.66l-0.41,405.36c0,20.26 -5.74,39.29 -15.64,55.44h71.52c14.14,0 25.6,11.46 25.6,25.6v81.07c0,14.14 -11.46,25.6 -25.6,25.6h-31.62c-6.79,0 -13.3,-2.7 -18.1,-7.5l-81.06,-81.07c-1.81,-1.81 -3.3,-3.84 -4.47,-6.02c-2.24,-1.21 -4.29,-2.73 -6.08,-4.52zM393.93,506.74c-9.57,11.58 -17.92,24.02 -25.2,37.12c12.99,-8.11 26.73,-15.11 41.29,-21.03zM122.47,95.72l-51.88,51.48l62.42,62.42c-16.22,14.59 -26.35,36.07 -26.35,59.98v405.34c0,44.58 36.08,81.06 81.07,81.06h-162.14v81.07h734.87l109.84,109.84l51.48,-51.47zM916.93,674.94l0.41,-405.34c0,-44.99 -36.49,-81.06 -81.07,-81.06h-518.02l211.99,211.99c7.3,-1.62 14.59,-2.84 22.3,-4.06v-86.34l162.13,151.19l-64.04,59.58l224.55,224.55c24.73,-13.38 41.75,-40.13 41.75,-70.53zM309.34,634.41c12.57,-59.99 37.29,-119.57 83.9,-164.56l64.45,64.45c-62.42,15.4 -109.44,47.82 -148.35,100.11zM885.72,756.01l81.06,81.07h31.62v-81.07z" fill="url(#color-Q1AWvnAm)"/>
		</mask>
	</defs>
	<g fill="none" fill-rule="nonzero" style="mix-blend-mode: normal">
		<g mask="url(#mask-0jKQwBCj)">
			<g color="#ff0000" class="teamapps-color-2">
				<rect x="0" y="70.12" width="1024" height="902.4" fill="currentColor"/>
			</g>
			<g color="#bc13e0" class="teamapps-color-3" mask="url(#mask-fNeStilI)">
				<rect x="0" y="70.12" width="1024" height="902.4" fill="currentColor"/>
			</g>
		</g>
		<g filter="url(#filter-uSTQtSQ9)" mask="url(#mask-S92LPxDe)">
			<g color="#fff961" class="teamapps-color-1">
				<rect x="0" y="70.12" width="1024" height="902.4" fill="currentColor"/>
			</g>
		</g>
	</g>
</svg>