<svg version="1.1" xmlns="http://www.w3.org/2000/svg" xmlns:xlink="http://www.w3.org/1999/xlink" viewBox="0,0,1024,1024">
	<!-- Color names: teamapps-color-1, teamapps-color-2, teamapps-color-3 -->
	<desc>strikethrough_s icon - Licensed under Apache License v2.0 (http://www.apache.org/licenses/LICENSE-2.0) - Created with Iconfu.com - Derivative work of Material icons (Copyright Google Inc.)</desc>
	<defs>
		<radialGradient cx="0" cy="0" r="1448.15" id="color-Dp3QsUzd" gradientUnits="userSpaceOnUse">
			<stop offset="0.08" stop-color="#ffffff"/>
			<stop offset="1" stop-color="#000000"/>
		</radialGradient>
		<linearGradient x1="0" y1="1024" x2="1024" y2="0" id="color-TZUg7AEr" gradientUnits="userSpaceOnUse">
			<stop offset="0.2" stop-color="#000000"/>
			<stop offset="0.8" stop-color="#ffffff"/>
		</linearGradient>
		<filter id="filter-mAbp05BZ" color-interpolation-filters="sRGB">
			<feOffset/>
		</filter>
		<mask id="mask-5n4tPl7g">
			<path d="M876.8,538.41h-118.51c4.6,16.74 6.71,34.53 6.71,53.04c0,29.49 -6.01,56.58 -18.1,80.76c-11.95,23.88 -29.18,44.43 -51.06,60.6c-21.61,15.97 -47.2,27.67 -75.72,36.01c-29.17,8.53 -61.26,12.38 -95.55,12.38c-21.22,0 -42.13,-2.22 -62.57,-5.62c-0.12,-0.02 -0.24,-0.04 -0.35,-0.06c-20.93,-3.92 -41.25,-9.64 -60.6,-17.12c-19.72,-7.62 -38.14,-17.49 -54.82,-29.19c-17.71,-12.13 -32.44,-26.5 -45.12,-42.34c-0.05,-0.06 -0.1,-0.13 -0.15,-0.19c-13.25,-17.03 -23.05,-35.81 -30.33,-56.27c-7.73,-21.72 -11.21,-48.29 -11.21,-72.63c0,-8.21 3.86,-15.51 9.87,-20.2h-122.09c-14.14,0 -25.6,-11.46 -25.6,-25.6v-81.06c0,-14.14 11.46,-25.6 25.6,-25.6h157.15c-0.32,-0.45 -0.63,-0.9 -0.92,-1.37c-1.36,-2.17 -4.73,-7.29 -7.05,-11.83c-12.74,-23.66 -18.72,-50.15 -18.72,-79.56c0,-28.54 6.12,-54.96 19.14,-79.58c12.42,-23.85 30.01,-44.15 52.3,-60.87c0.06,-0.05 0.13,-0.1 0.19,-0.14c21.99,-16.03 47.81,-28.65 76.55,-37.5c0.1,-0.03 0.2,-0.06 0.3,-0.09c29.27,-8.43 61.4,-12.79 95.58,-12.79c35.14,0 67.56,4.78 97.78,15.13c29.51,9.85 55.58,24.34 77,42.94c21.86,18.64 38.71,41.1 50.38,66.78c11.72,25.78 17.69,53.72 17.69,83.95c0,14.14 -11.46,25.6 -25.6,25.6h-122c-14.14,0 -25.6,-11.46 -25.6,-25.6c0,-9.73 -1.55,-17.92 -4.37,-25.25c-0.14,-0.36 -0.27,-0.73 -0.4,-1.1c-2.17,-6.5 -5.76,-11.94 -11.19,-17.11c-4.8,-4.56 -11.47,-8.61 -21.21,-12.22c-9.26,-3.04 -20.96,-5.06 -34.51,-5.06c-14.28,0 -25.7,1.5 -34.16,4.12c-9.28,2.88 -15.92,6.37 -20.61,10c-5.33,4.55 -8.75,8.97 -10.89,13.45c-2.43,5.1 -3.59,10.27 -3.59,15.74c0,8.68 3.78,17.74 18.58,27.73c14.19,9.34 28.04,17.48 51.28,25.47c11.83,4.07 18.99,16.09 16.93,28.43c-0.67,3.98 -2.23,7.62 -4.46,10.72h344.01c14.14,0 25.6,11.46 25.6,25.6v81.87c0,14.14 -11.46,25.6 -25.6,25.6zM431,557.8c0,14.56 3.66,29.21 7.86,38.52c3.97,8.8 9.43,15.5 16.08,20.55c6.88,5.23 16.16,9.63 27.76,12.61c11.53,2.96 25.49,4.47 41.46,4.47c12.98,0 24.34,-1.69 33.74,-4.24c9.59,-3.01 15.69,-6.21 20.12,-9.71c4.53,-3.58 7.55,-7.57 9.45,-11.7c2.36,-5.57 3.51,-11 3.51,-16.44c0,-7.73 -1.16,-14.06 -2.89,-19.15c-1.46,-3.68 -4.17,-7.71 -9.5,-12.02c-6.16,-4.98 -15.65,-10.75 -29.25,-17.04c-7.15,-2.83 -8.34,-2.85 -16.9,-6.04h-111.3c6.01,4.68 9.87,11.99 9.87,20.2zM876.8,430.94h-729.6v81.06h389.93c7.3,2.84 16.22,5.67 22.3,8.1c15,6.89 26.75,13.78 35.26,20.67c8.51,6.89 14.19,14.59 17.43,23.1c2.84,8.1 4.46,17.43 4.46,27.97c0,9.32 -2.02,18.24 -5.67,26.75c-3.65,8.1 -9.32,15.41 -17.02,21.49c-7.7,6.08 -17.03,10.54 -28.78,14.18c-11.75,3.24 -25.54,5.27 -40.94,5.27c-17.43,0 -33.65,-1.62 -47.83,-5.27c-14.18,-3.65 -26.74,-9.32 -36.88,-17.02c-10.14,-7.7 -18.25,-17.83 -23.92,-30.4c-5.67,-12.57 -10.13,-30.81 -10.13,-49.05h-120.38c0,22.3 3.24,45.81 9.73,64.05c6.49,18.24 14.99,34.45 26.34,49.04c11.35,14.18 24.32,26.76 39.72,37.3c15,10.54 31.63,19.46 49.46,26.34c17.83,6.89 36.48,12.16 55.94,15.81c19.46,3.24 38.91,5.27 58.37,5.27c32.42,0 62.02,-3.65 88.36,-11.35c26.34,-7.7 49.04,-18.24 67.69,-32.02c18.65,-13.78 33.24,-31.21 43.38,-51.47c10.14,-20.26 15.4,-43.37 15.4,-69.31c0,-24.32 -4.06,-46.22 -12.57,-65.26c-2.02,-4.46 -4.46,-9.32 -6.89,-13.38h156.86zM325.14,390.4h186.86c-25.94,-8.92 -41.75,-18.24 -57.15,-28.38c-19.86,-13.38 -29.99,-29.58 -29.99,-49.04c0,-9.32 2.02,-18.24 6.08,-26.75c4.06,-8.51 10.13,-15.81 17.83,-22.3c7.7,-6.08 17.43,-10.94 29.18,-14.59c11.75,-3.65 25.94,-5.27 41.75,-5.27c16.22,0 30.8,2.43 42.96,6.49c12.16,4.46 22.3,10.13 30.4,17.83c8.1,7.7 14.19,16.63 17.84,27.57c4.06,10.54 6.08,21.88 6.08,34.45h122c0,-26.75 -5.26,-51.06 -15.4,-73.36c-10.14,-22.3 -24.73,-41.75 -43.78,-57.97c-18.65,-16.22 -41.75,-29.17 -68.5,-38.09c-27.16,-9.32 -56.74,-13.78 -89.58,-13.78c-32.02,0 -61.61,4.05 -88.36,11.75c-26.34,8.1 -49.46,19.47 -68.91,33.65c-19.46,14.59 -34.46,32.02 -44.99,52.29c-10.94,20.67 -16.21,42.96 -16.21,67.69c0,25.94 5.27,48.23 15.81,67.69c1.62,3.24 4.06,6.9 6.08,10.14z" fill="url(#color-Dp3QsUzd)"/>
		</mask>
		<mask id="mask-HeqMNLzt">
			<path d="M876.8,538.41h-118.51c4.6,16.74 6.71,34.53 6.71,53.04c0,29.49 -6.01,56.58 -18.1,80.76c-11.95,23.88 -29.18,44.43 -51.06,60.6c-21.61,15.97 -47.2,27.67 -75.72,36.01c-29.17,8.53 -61.26,12.38 -95.55,12.38c-21.22,0 -42.13,-2.22 -62.57,-5.62c-0.12,-0.02 -0.24,-0.04 -0.35,-0.06c-20.93,-3.92 -41.25,-9.64 -60.6,-17.12c-19.72,-7.62 -38.14,-17.49 -54.82,-29.19c-17.71,-12.13 -32.44,-26.5 -45.12,-42.34c-0.05,-0.06 -0.1,-0.13 -0.15,-0.19c-13.25,-17.03 -23.05,-35.81 -30.33,-56.27c-7.73,-21.72 -11.21,-48.29 -11.21,-72.63c0,-8.21 3.86,-15.51 9.87,-20.2h-122.09c-14.14,0 -25.6,-11.46 -25.6,-25.6v-81.06c0,-14.14 11.46,-25.6 25.6,-25.6h157.15c-0.32,-0.45 -0.63,-0.9 -0.92,-1.37c-1.36,-2.17 -4.73,-7.29 -7.05,-11.83c-12.74,-23.66 -18.72,-50.15 -18.72,-79.56c0,-28.54 6.12,-54.96 19.14,-79.58c12.42,-23.85 30.01,-44.15 52.3,-60.87c0.06,-0.05 0.13,-0.1 0.19,-0.14c21.99,-16.03 47.81,-28.65 76.55,-37.5c0.1,-0.03 0.2,-0.06 0.3,-0.09c29.27,-8.43 61.4,-12.79 95.58,-12.79c35.14,0 67.56,4.78 97.78,15.13c29.51,9.85 55.58,24.34 77,42.94c21.86,18.64 38.71,41.1 50.38,66.78c11.72,25.78 17.69,53.72 17.69,83.95c0,14.14 -11.46,25.6 -25.6,25.6h-122c-14.14,0 -25.6,-11.46 -25.6,-25.6c0,-9.73 -1.55,-17.92 -4.37,-25.25c-0.14,-0.36 -0.27,-0.73 -0.4,-1.1c-2.17,-6.5 -5.76,-11.94 -11.19,-17.11c-4.8,-4.56 -11.47,-8.61 -21.21,-12.22c-9.26,-3.04 -20.96,-5.06 -34.51,-5.06c-14.28,0 -25.7,1.5 -34.16,4.12c-9.28,2.88 -15.92,6.37 -20.61,10c-5.33,4.55 -8.75,8.97 -10.89,13.45c-2.43,5.1 -3.59,10.27 -3.59,15.74c0,8.68 3.78,17.74 18.58,27.73c14.19,9.34 28.04,17.48 51.28,25.47c11.83,4.07 18.99,16.09 16.93,28.43c-0.67,3.98 -2.23,7.62 -4.46,10.72h344.01c14.14,0 25.6,11.46 25.6,25.6v81.87c0,14.14 -11.46,25.6 -25.6,25.6zM431,557.8c0,14.56 3.66,29.21 7.86,38.52c3.97,8.8 9.43,15.5 16.08,20.55c6.88,5.23 16.16,9.63 27.76,12.61c11.53,2.96 25.49,4.47 41.46,4.47c12.98,0 24.34,-1.69 33.74,-4.24c9.59,-3.01 15.69,-6.21 20.12,-9.71c4.53,-3.58 7.55,-7.57 9.45,-11.7c2.36,-5.57 3.51,-11 3.51,-16.44c0,-7.73 -1.16,-14.06 -2.89,-19.15c-1.46,-3.68 -4.17,-7.71 -9.5,-12.02c-6.16,-4.98 -15.65,-10.75 -29.25,-17.04c-7.15,-2.83 -8.34,-2.85 -16.9,-6.04h-111.3c6.01,4.68 9.87,11.99 9.87,20.2zM876.8,430.94h-729.6v81.06h389.93c7.3,2.84 16.22,5.67 22.3,8.1c15,6.89 26.75,13.78 35.26,20.67c8.51,6.89 14.19,14.59 17.43,23.1c2.84,8.1 4.46,17.43 4.46,27.97c0,9.32 -2.02,18.24 -5.67,26.75c-3.65,8.1 -9.32,15.41 -17.02,21.49c-7.7,6.08 -17.03,10.54 -28.78,14.18c-11.75,3.24 -25.54,5.27 -40.94,5.27c-17.43,0 -33.65,-1.62 -47.83,-5.27c-14.18,-3.65 -26.74,-9.32 -36.88,-17.02c-10.14,-7.7 -18.25,-17.83 -23.92,-30.4c-5.67,-12.57 -10.13,-30.81 -10.13,-49.05h-120.38c0,22.3 3.24,45.81 9.73,64.05c6.49,18.24 14.99,34.45 26.34,49.04c11.35,14.18 24.32,26.76 39.72,37.3c15,10.54 31.63,19.46 49.46,26.34c17.83,6.89 36.48,12.16 55.94,15.81c19.46,3.24 38.91,5.27 58.37,5.27c32.42,0 62.02,-3.65 88.36,-11.35c26.34,-7.7 49.04,-18.24 67.69,-32.02c18.65,-13.78 33.24,-31.21 43.38,-51.47c10.14,-20.26 15.4,-43.37 15.4,-69.31c0,-24.32 -4.06,-46.22 -12.57,-65.26c-2.02,-4.46 -4.46,-9.32 -6.89,-13.38h156.86zM325.14,390.4h186.86c-25.94,-8.92 -41.75,-18.24 -57.15,-28.38c-19.86,-13.38 -29.99,-29.58 -29.99,-49.04c0,-9.32 2.02,-18.24 6.08,-26.75c4.06,-8.51 10.13,-15.81 17.83,-22.3c7.7,-6.08 17.43,-10.94 29.18,-14.59c11.75,-3.65 25.94,-5.27 41.75,-5.27c16.22,0 30.8,2.43 42.96,6.49c12.16,4.46 22.3,10.13 30.4,17.83c8.1,7.7 14.19,16.63 17.84,27.57c4.06,10.54 6.08,21.88 6.08,34.45h122c0,-26.75 -5.26,-51.06 -15.4,-73.36c-10.14,-22.3 -24.73,-41.75 -43.78,-57.97c-18.65,-16.22 -41.75,-29.17 -68.5,-38.09c-27.16,-9.32 -56.74,-13.78 -89.58,-13.78c-32.02,0 -61.61,4.05 -88.36,11.75c-26.34,8.1 -49.46,19.47 -68.91,33.65c-19.46,14.59 -34.46,32.02 -44.99,52.29c-10.94,20.67 -16.21,42.96 -16.21,67.69c0,25.94 5.27,48.23 15.81,67.69c1.62,3.24 4.06,6.9 6.08,10.14z" fill="#ffffff"/>
		</mask>
		<mask id="mask-HwYxSJ5B">
			<rect fill="url(#color-TZUg7AEr)" x="121.6" y="121.6" width="780.8" height="659.61"/>
		</mask>
	</defs>
	<g fill="none" fill-rule="nonzero" style="mix-blend-mode: normal">
		<g mask="url(#mask-HeqMNLzt)">
			<g color="#ff0000" class="teamapps-color-2">
				<rect x="121.6" y="121.6" width="780.8" height="659.61" fill="currentColor"/>
			</g>
			<g color="#bc13e0" class="teamapps-color-3" mask="url(#mask-HwYxSJ5B)">
				<rect x="121.6" y="121.6" width="780.8" height="659.61" fill="currentColor"/>
			</g>
		</g>
		<g filter="url(#filter-mAbp05BZ)" mask="url(#mask-5n4tPl7g)">
			<g color="#fff961" class="teamapps-color-1">
				<rect x="121.6" y="121.6" width="780.8" height="659.61" fill="currentColor"/>
			</g>
		</g>
	</g>
</svg>