<svg version="1.1" xmlns="http://www.w3.org/2000/svg" xmlns:xlink="http://www.w3.org/1999/xlink" viewBox="0,0,1024,1024">
	<!-- Color names: teamapps-color-1, teamapps-color-2, teamapps-color-3 -->
	<desc>sync icon - Licensed under Apache License v2.0 (http://www.apache.org/licenses/LICENSE-2.0) - Created with Iconfu.com - Derivative work of Material icons (Copyright Google Inc.)</desc>
	<defs>
		<linearGradient x1="0" y1="1024" x2="1024" y2="0" id="color-AB0sP72E" gradientUnits="userSpaceOnUse">
			<stop offset="0.2" stop-color="#000000"/>
			<stop offset="0.8" stop-color="#ffffff"/>
		</linearGradient>
		<radialGradient cx="0" cy="0" r="1448.15" id="color-h34GNCCq" gradientUnits="userSpaceOnUse">
			<stop offset="0.08" stop-color="#ffffff"/>
			<stop offset="1" stop-color="#000000"/>
		</radialGradient>
		<filter id="filter-PeFXBSBR" color-interpolation-filters="sRGB">
			<feOffset/>
		</filter>
		<mask id="mask-I2gIhBBV">
			<path d="M530.1,615.5l162.14,162.14c10,10 10,26.21 0,36.2l-162.14,162.13c-7.32,7.32 -18.33,9.51 -27.9,5.55c-9.57,-3.96 -15.8,-13.3 -15.8,-23.65v-96.92c-181.34,-13.1 -324.26,-164.25 -324.26,-348.94c0,-68.72 20.14,-132.62 54.24,-186.38c4.16,-6.56 11.08,-10.88 18.8,-11.73c7.72,-0.85 15.42,1.85 20.91,7.34l59.19,59.18c8.01,8.01 9.81,20.34 4.4,30.31c-16.19,29.86 -25.28,64.59 -25.28,101.29c0,111.37 84,203.41 192,216.11v-94.51c0,-10.35 6.24,-19.69 15.8,-23.65c9.57,-3.96 20.58,-1.77 27.9,5.55zM861.86,512c0,68.72 -20.14,132.62 -54.24,186.38c-4.16,6.56 -11.08,10.88 -18.8,11.73c-7.72,0.85 -15.42,-1.85 -20.91,-7.34l-59.18,-59.18c-8.01,-8.01 -9.81,-20.34 -4.4,-30.31c16.19,-29.86 25.28,-64.59 25.28,-101.29c0,-111.37 -84,-203.41 -192,-216.11v94.51c0,10.35 -6.24,19.69 -15.8,23.65c-9.57,3.96 -20.58,1.77 -27.9,-5.55l-162.14,-162.14c-10,-10 -10,-26.21 0,-36.2l162.14,-162.13c7.32,-7.32 18.33,-9.51 27.9,-5.55c9.57,3.96 15.8,13.3 15.8,23.65v96.92c181.34,13.1 324.26,164.25 324.26,348.94zM512,187.74v-121.6l-162.14,162.13l162.14,162.14v-121.6c134.17,0 243.2,109.03 243.2,243.2c0,40.94 -10.14,79.86 -28.38,113.5l59.19,59.18c31.62,-49.86 50.26,-109.03 50.26,-172.67c0,-179.16 -145.1,-324.26 -324.26,-324.26zM512,755.2c-134.17,0 -243.2,-109.03 -243.2,-243.2c0,-40.94 10.14,-79.86 28.38,-113.5l-59.18,-59.18c-31.62,49.86 -50.25,109.03 -50.25,172.67c0,179.16 145.1,324.26 324.26,324.26v121.6l162.14,-162.13l-162.14,-162.14z" fill="url(#color-h34GNCCq)"/>
		</mask>
		<mask id="mask-loCMkAVM">
			<path d="M530.1,615.5l162.14,162.14c10,10 10,26.21 0,36.2l-162.14,162.13c-7.32,7.32 -18.33,9.51 -27.9,5.55c-9.57,-3.96 -15.8,-13.3 -15.8,-23.65v-96.92c-181.34,-13.1 -324.26,-164.25 -324.26,-348.94c0,-68.72 20.14,-132.62 54.24,-186.38c4.16,-6.56 11.08,-10.88 18.8,-11.73c7.72,-0.85 15.42,1.85 20.91,7.34l59.19,59.18c8.01,8.01 9.81,20.34 4.4,30.31c-16.19,29.86 -25.28,64.59 -25.28,101.29c0,111.37 84,203.41 192,216.11v-94.51c0,-10.35 6.24,-19.69 15.8,-23.65c9.57,-3.96 20.58,-1.77 27.9,5.55zM861.86,512c0,68.72 -20.14,132.62 -54.24,186.38c-4.16,6.56 -11.08,10.88 -18.8,11.73c-7.72,0.85 -15.42,-1.85 -20.91,-7.34l-59.18,-59.18c-8.01,-8.01 -9.81,-20.34 -4.4,-30.31c16.19,-29.86 25.28,-64.59 25.28,-101.29c0,-111.37 -84,-203.41 -192,-216.11v94.51c0,10.35 -6.24,19.69 -15.8,23.65c-9.57,3.96 -20.58,1.77 -27.9,-5.55l-162.14,-162.14c-10,-10 -10,-26.21 0,-36.2l162.14,-162.13c7.32,-7.32 18.33,-9.51 27.9,-5.55c9.57,3.96 15.8,13.3 15.8,23.65v96.92c181.34,13.1 324.26,164.25 324.26,348.94zM512,187.74v-121.6l-162.14,162.13l162.14,162.14v-121.6c134.17,0 243.2,109.03 243.2,243.2c0,40.94 -10.14,79.86 -28.38,113.5l59.19,59.18c31.62,-49.86 50.26,-109.03 50.26,-172.67c0,-179.16 -145.1,-324.26 -324.26,-324.26zM512,755.2c-134.17,0 -243.2,-109.03 -243.2,-243.2c0,-40.94 10.14,-79.86 28.38,-113.5l-59.18,-59.18c-31.62,49.86 -50.25,109.03 -50.25,172.67c0,179.16 145.1,324.26 324.26,324.26v121.6l162.14,-162.13l-162.14,-162.14z" fill="#ffffff"/>
		</mask>
		<mask id="mask-QI9lMnhT">
			<rect fill="url(#color-AB0sP72E)" x="162.14" y="40.54" width="699.73" height="942.93"/>
		</mask>
	</defs>
	<g fill="none" fill-rule="nonzero" style="mix-blend-mode: normal">
		<g mask="url(#mask-loCMkAVM)">
			<g color="#ff0000" class="teamapps-color-2">
				<rect x="162.14" y="40.54" width="699.73" height="942.93" fill="currentColor"/>
			</g>
			<g color="#bc13e0" class="teamapps-color-3" mask="url(#mask-QI9lMnhT)">
				<rect x="162.14" y="40.54" width="699.73" height="942.93" fill="currentColor"/>
			</g>
		</g>
		<g filter="url(#filter-PeFXBSBR)" mask="url(#mask-I2gIhBBV)">
			<g color="#fff961" class="teamapps-color-1">
				<rect x="162.14" y="40.54" width="699.73" height="942.93" fill="currentColor"/>
			</g>
		</g>
	</g>
</svg>