<svg version="1.1" xmlns="http://www.w3.org/2000/svg" xmlns:xlink="http://www.w3.org/1999/xlink" viewBox="0,0,1024,1024">
	<!-- Color names: teamapps-color-1, teamapps-color-2, teamapps-color-3 -->
	<desc>tab_unselected icon - Licensed under Apache License v2.0 (http://www.apache.org/licenses/LICENSE-2.0) - Created with Iconfu.com - Derivative work of Material icons (Copyright Google Inc.)</desc>
	<defs>
		<linearGradient x1="0" y1="1024" x2="1024" y2="0" id="color-C9oq9Vdw" gradientUnits="userSpaceOnUse">
			<stop offset="0.2" stop-color="#000000"/>
			<stop offset="0.8" stop-color="#ffffff"/>
		</linearGradient>
		<radialGradient cx="0" cy="0" r="1448.15" id="color-DnEF4Tfs" gradientUnits="userSpaceOnUse">
			<stop offset="0.08" stop-color="#ffffff"/>
			<stop offset="1" stop-color="#000000"/>
		</radialGradient>
		<filter id="filter-mszKUt02" color-interpolation-filters="sRGB">
			<feOffset/>
		</filter>
		<mask id="mask-5uTICToj">
			<path d="M983.46,228.26v162.14c0,14.14 -11.46,25.6 -25.6,25.6h-405.33c-14.14,0 -25.6,-11.46 -25.6,-25.6v-243.2c0,-14.14 11.46,-25.6 25.6,-25.6h324.26c58.72,0 106.66,47.94 106.66,106.66zM714.66,770.14h81.07c14.14,0 25.6,11.46 25.6,25.6v81.06c0,14.14 -11.46,25.6 -25.6,25.6h-81.07c-14.14,0 -25.6,-11.46 -25.6,-25.6v-81.06c0,-14.14 11.46,-25.6 25.6,-25.6zM876.8,445.86h81.06c14.14,0 25.6,11.46 25.6,25.6v81.07c0,14.14 -11.46,25.6 -25.6,25.6h-81.06c-14.14,0 -25.6,-11.46 -25.6,-25.6v-81.07c0,-14.14 11.46,-25.6 25.6,-25.6zM228.26,770.14h81.07c14.14,0 25.6,11.46 25.6,25.6v81.06c0,14.14 -11.46,25.6 -25.6,25.6h-81.07c-14.14,0 -25.6,-11.46 -25.6,-25.6v-81.06c0,-14.14 11.46,-25.6 25.6,-25.6zM228.26,121.6h81.07c14.14,0 25.6,11.46 25.6,25.6v81.06c0,14.14 -11.46,25.6 -25.6,25.6h-81.07c-14.14,0 -25.6,-11.46 -25.6,-25.6v-81.06c0,-14.14 11.46,-25.6 25.6,-25.6zM66.14,445.86h81.06c14.14,0 25.6,11.46 25.6,25.6v81.07c0,14.14 -11.46,25.6 -25.6,25.6h-81.06c-14.14,0 -25.6,-11.46 -25.6,-25.6v-81.07c0,-14.14 11.46,-25.6 25.6,-25.6zM552.54,770.14h81.06c14.14,0 25.6,11.46 25.6,25.6v81.06c0,14.14 -11.46,25.6 -25.6,25.6h-81.06c-14.14,0 -25.6,-11.46 -25.6,-25.6v-81.06c0,-14.14 11.46,-25.6 25.6,-25.6zM876.8,770.14h81.06c14.14,0 25.6,11.46 25.6,25.6c0,58.72 -47.94,106.66 -106.66,106.66c-14.14,0 -25.6,-11.46 -25.6,-25.6v-81.06c0,-14.14 11.46,-25.6 25.6,-25.6zM876.8,608h81.06c14.14,0 25.6,11.46 25.6,25.6v81.06c0,14.14 -11.46,25.6 -25.6,25.6h-81.06c-14.14,0 -25.6,-11.46 -25.6,-25.6v-81.06c0,-14.14 11.46,-25.6 25.6,-25.6zM390.4,770.14h81.06c14.14,0 25.6,11.46 25.6,25.6v81.06c0,14.14 -11.46,25.6 -25.6,25.6h-81.06c-14.14,0 -25.6,-11.46 -25.6,-25.6v-81.06c0,-14.14 11.46,-25.6 25.6,-25.6zM390.4,121.6h81.06c14.14,0 25.6,11.46 25.6,25.6v81.06c0,14.14 -11.46,25.6 -25.6,25.6h-81.06c-14.14,0 -25.6,-11.46 -25.6,-25.6v-81.06c0,-14.14 11.46,-25.6 25.6,-25.6zM66.14,283.74h81.06c14.14,0 25.6,11.46 25.6,25.6v81.06c0,14.14 -11.46,25.6 -25.6,25.6h-81.06c-14.14,0 -25.6,-11.46 -25.6,-25.6v-81.06c0,-14.14 11.46,-25.6 25.6,-25.6zM66.14,770.14h81.06c14.14,0 25.6,11.46 25.6,25.6v81.06c0,14.14 -11.46,25.6 -25.6,25.6c-58.72,0 -106.66,-47.94 -106.66,-106.66c0,-14.14 11.46,-25.6 25.6,-25.6zM172.8,147.2v81.06c0,14.14 -11.46,25.6 -25.6,25.6h-81.06c-14.14,0 -25.6,-11.46 -25.6,-25.6c0,-58.72 47.94,-106.66 106.66,-106.66c14.14,0 25.6,11.46 25.6,25.6zM66.14,608h81.06c14.14,0 25.6,11.46 25.6,25.6v81.06c0,14.14 -11.46,25.6 -25.6,25.6h-81.06c-14.14,0 -25.6,-11.46 -25.6,-25.6v-81.06c0,-14.14 11.46,-25.6 25.6,-25.6zM876.8,147.2h-324.26v243.2h405.33v-162.14c0,-44.58 -36.48,-81.06 -81.06,-81.06zM552.54,876.8h81.06v-81.06h-81.06zM714.66,876.8h81.07v-81.06h-81.07zM66.14,390.4h81.06v-81.06h-81.06zM147.2,876.8v-81.06h-81.06c0,44.58 36.48,81.06 81.06,81.06zM390.4,876.8h81.06v-81.06h-81.06zM228.26,876.8h81.07v-81.06h-81.07zM66.14,552.54h81.06v-81.07h-81.06zM66.14,228.26h81.06v-81.06c-44.58,0 -81.06,36.48 -81.06,81.06zM390.4,228.26h81.06v-81.06h-81.06zM228.26,228.26h81.07v-81.06h-81.07zM876.8,876.8c44.58,0 81.06,-36.48 81.06,-81.06h-81.06zM66.14,714.66h81.06v-81.06h-81.06zM876.8,552.54h81.06v-81.07h-81.06zM876.8,714.66h81.06v-81.06h-81.06z" fill="url(#color-DnEF4Tfs)"/>
		</mask>
		<mask id="mask-sVp3ziLk">
			<path d="M983.46,228.26v162.14c0,14.14 -11.46,25.6 -25.6,25.6h-405.33c-14.14,0 -25.6,-11.46 -25.6,-25.6v-243.2c0,-14.14 11.46,-25.6 25.6,-25.6h324.26c58.72,0 106.66,47.94 106.66,106.66zM714.66,770.14h81.07c14.14,0 25.6,11.46 25.6,25.6v81.06c0,14.14 -11.46,25.6 -25.6,25.6h-81.07c-14.14,0 -25.6,-11.46 -25.6,-25.6v-81.06c0,-14.14 11.46,-25.6 25.6,-25.6zM876.8,445.86h81.06c14.14,0 25.6,11.46 25.6,25.6v81.07c0,14.14 -11.46,25.6 -25.6,25.6h-81.06c-14.14,0 -25.6,-11.46 -25.6,-25.6v-81.07c0,-14.14 11.46,-25.6 25.6,-25.6zM228.26,770.14h81.07c14.14,0 25.6,11.46 25.6,25.6v81.06c0,14.14 -11.46,25.6 -25.6,25.6h-81.07c-14.14,0 -25.6,-11.46 -25.6,-25.6v-81.06c0,-14.14 11.46,-25.6 25.6,-25.6zM228.26,121.6h81.07c14.14,0 25.6,11.46 25.6,25.6v81.06c0,14.14 -11.46,25.6 -25.6,25.6h-81.07c-14.14,0 -25.6,-11.46 -25.6,-25.6v-81.06c0,-14.14 11.46,-25.6 25.6,-25.6zM66.14,445.86h81.06c14.14,0 25.6,11.46 25.6,25.6v81.07c0,14.14 -11.46,25.6 -25.6,25.6h-81.06c-14.14,0 -25.6,-11.46 -25.6,-25.6v-81.07c0,-14.14 11.46,-25.6 25.6,-25.6zM552.54,770.14h81.06c14.14,0 25.6,11.46 25.6,25.6v81.06c0,14.14 -11.46,25.6 -25.6,25.6h-81.06c-14.14,0 -25.6,-11.46 -25.6,-25.6v-81.06c0,-14.14 11.46,-25.6 25.6,-25.6zM876.8,770.14h81.06c14.14,0 25.6,11.46 25.6,25.6c0,58.72 -47.94,106.66 -106.66,106.66c-14.14,0 -25.6,-11.46 -25.6,-25.6v-81.06c0,-14.14 11.46,-25.6 25.6,-25.6zM876.8,608h81.06c14.14,0 25.6,11.46 25.6,25.6v81.06c0,14.14 -11.46,25.6 -25.6,25.6h-81.06c-14.14,0 -25.6,-11.46 -25.6,-25.6v-81.06c0,-14.14 11.46,-25.6 25.6,-25.6zM390.4,770.14h81.06c14.14,0 25.6,11.46 25.6,25.6v81.06c0,14.14 -11.46,25.6 -25.6,25.6h-81.06c-14.14,0 -25.6,-11.46 -25.6,-25.6v-81.06c0,-14.14 11.46,-25.6 25.6,-25.6zM390.4,121.6h81.06c14.14,0 25.6,11.46 25.6,25.6v81.06c0,14.14 -11.46,25.6 -25.6,25.6h-81.06c-14.14,0 -25.6,-11.46 -25.6,-25.6v-81.06c0,-14.14 11.46,-25.6 25.6,-25.6zM66.14,283.74h81.06c14.14,0 25.6,11.46 25.6,25.6v81.06c0,14.14 -11.46,25.6 -25.6,25.6h-81.06c-14.14,0 -25.6,-11.46 -25.6,-25.6v-81.06c0,-14.14 11.46,-25.6 25.6,-25.6zM66.14,770.14h81.06c14.14,0 25.6,11.46 25.6,25.6v81.06c0,14.14 -11.46,25.6 -25.6,25.6c-58.72,0 -106.66,-47.94 -106.66,-106.66c0,-14.14 11.46,-25.6 25.6,-25.6zM172.8,147.2v81.06c0,14.14 -11.46,25.6 -25.6,25.6h-81.06c-14.14,0 -25.6,-11.46 -25.6,-25.6c0,-58.72 47.94,-106.66 106.66,-106.66c14.14,0 25.6,11.46 25.6,25.6zM66.14,608h81.06c14.14,0 25.6,11.46 25.6,25.6v81.06c0,14.14 -11.46,25.6 -25.6,25.6h-81.06c-14.14,0 -25.6,-11.46 -25.6,-25.6v-81.06c0,-14.14 11.46,-25.6 25.6,-25.6zM876.8,147.2h-324.26v243.2h405.33v-162.14c0,-44.58 -36.48,-81.06 -81.06,-81.06zM552.54,876.8h81.06v-81.06h-81.06zM714.66,876.8h81.07v-81.06h-81.07zM66.14,390.4h81.06v-81.06h-81.06zM147.2,876.8v-81.06h-81.06c0,44.58 36.48,81.06 81.06,81.06zM390.4,876.8h81.06v-81.06h-81.06zM228.26,876.8h81.07v-81.06h-81.07zM66.14,552.54h81.06v-81.07h-81.06zM66.14,228.26h81.06v-81.06c-44.58,0 -81.06,36.48 -81.06,81.06zM390.4,228.26h81.06v-81.06h-81.06zM228.26,228.26h81.07v-81.06h-81.07zM876.8,876.8c44.58,0 81.06,-36.48 81.06,-81.06h-81.06zM66.14,714.66h81.06v-81.06h-81.06zM876.8,552.54h81.06v-81.07h-81.06zM876.8,714.66h81.06v-81.06h-81.06z" fill="#ffffff"/>
		</mask>
		<mask id="mask-TWtb9htc">
			<rect fill="url(#color-C9oq9Vdw)" x="40.54" y="121.6" width="942.93" height="780.8"/>
		</mask>
	</defs>
	<g fill="none" fill-rule="nonzero" style="mix-blend-mode: normal">
		<g mask="url(#mask-sVp3ziLk)">
			<g color="#ff0000" class="teamapps-color-2">
				<rect x="40.54" y="121.6" width="942.93" height="780.8" fill="currentColor"/>
			</g>
			<g color="#bc13e0" class="teamapps-color-3" mask="url(#mask-TWtb9htc)">
				<rect x="40.54" y="121.6" width="942.93" height="780.8" fill="currentColor"/>
			</g>
		</g>
		<g filter="url(#filter-mszKUt02)" mask="url(#mask-5uTICToj)">
			<g color="#fff961" class="teamapps-color-1">
				<rect x="40.54" y="121.6" width="942.93" height="780.8" fill="currentColor"/>
			</g>
		</g>
	</g>
</svg>