<svg version="1.1" xmlns="http://www.w3.org/2000/svg" xmlns:xlink="http://www.w3.org/1999/xlink" viewBox="0,0,1024,1024">
	<!-- Color names: teamapps-color-1, teamapps-color-2, teamapps-color-3 -->
	<desc>tag_faces icon - Licensed under Apache License v2.0 (http://www.apache.org/licenses/LICENSE-2.0) - Created with Iconfu.com - Derivative work of Material icons (Copyright Google Inc.)</desc>
	<defs>
		<linearGradient x1="0" y1="1024" x2="1024" y2="0" id="color-0yTxby03" gradientUnits="userSpaceOnUse">
			<stop offset="0.2" stop-color="#000000"/>
			<stop offset="0.8" stop-color="#ffffff"/>
		</linearGradient>
		<radialGradient cx="0" cy="0" r="1448.15" id="color-jRjE72oG" gradientUnits="userSpaceOnUse">
			<stop offset="0.08" stop-color="#ffffff"/>
			<stop offset="1" stop-color="#000000"/>
		</radialGradient>
		<filter id="filter-HIKRpePh" color-interpolation-filters="sRGB">
			<feOffset/>
		</filter>
		<mask id="mask-2Ttkl5VB">
			<rect fill="url(#color-0yTxby03)" x="81.06" y="81.06" width="861.87" height="861.87"/>
		</mask>
		<mask id="mask-eKtorcjK">
			<path d="M942.94,512c0,237.9 -193.07,430.94 -431.34,430.94c-237.92,0 -430.53,-193.09 -430.53,-430.94c0,-237.85 192.61,-430.94 430.53,-430.94c238.27,0 431.35,193.04 431.35,430.94zM810.66,512c0,-165.02 -133.64,-298.66 -298.66,-298.66c-165.02,0 -298.66,133.64 -298.66,298.66c0,165.02 133.64,298.66 298.66,298.66c165.02,0 298.66,-133.64 298.66,-298.66zM304.87,567.46h414.26c8.46,0 16.38,4.18 21.15,11.18c4.77,6.99 5.77,15.89 2.68,23.77c-36.09,92.03 -125.5,158.13 -230.96,158.13c-105.46,0 -194.88,-66.1 -230.96,-158.13c-3.09,-7.88 -2.09,-16.78 2.68,-23.77c4.77,-6.99 12.69,-11.18 21.15,-11.18zM283.74,410.66c0,-47.78 38.62,-86.4 86.4,-86.4c47.78,0 86.4,38.62 86.4,86.4c0,47.78 -38.62,86.4 -86.4,86.4c-47.78,0 -86.4,-38.62 -86.4,-86.4zM567.46,410.66c0,-47.78 38.62,-86.4 86.4,-86.4c47.78,0 86.4,38.62 86.4,86.4c0,47.78 -38.62,86.4 -86.4,86.4c-47.78,0 -86.4,-38.62 -86.4,-86.4zM511.59,106.66c-223.74,0 -404.93,181.59 -404.93,405.34c0,223.74 181.18,405.34 404.93,405.34c224.15,0 405.75,-181.59 405.75,-405.34c0,-223.74 -181.59,-405.34 -405.74,-405.34zM512,836.26c-179.16,0 -324.26,-145.1 -324.26,-324.26c0,-179.16 145.1,-324.26 324.26,-324.26c179.16,0 324.26,145.1 324.26,324.26c0,179.16 -145.1,324.26 -324.26,324.26zM512,734.94c94.44,0 174.71,-59.19 207.13,-141.87h-414.26c32.42,82.69 112.69,141.87 207.13,141.87zM653.86,471.46c33.64,0 60.8,-27.16 60.8,-60.8c0,-33.64 -27.16,-60.8 -60.8,-60.8c-33.64,0 -60.8,27.16 -60.8,60.8c0,33.64 27.16,60.8 60.8,60.8zM370.14,471.46c33.64,0 60.8,-27.16 60.8,-60.8c0,-33.64 -27.16,-60.8 -60.8,-60.8c-33.64,0 -60.8,27.16 -60.8,60.8c0,33.64 27.16,60.8 60.8,60.8z" fill="#ffffff"/>
		</mask>
		<mask id="mask-sQfUWkUJ">
			<path d="M942.94,512c0,237.9 -193.07,430.94 -431.34,430.94c-237.92,0 -430.53,-193.09 -430.53,-430.94c0,-237.85 192.61,-430.94 430.53,-430.94c238.27,0 431.35,193.04 431.35,430.94zM810.66,512c0,-165.02 -133.64,-298.66 -298.66,-298.66c-165.02,0 -298.66,133.64 -298.66,298.66c0,165.02 133.64,298.66 298.66,298.66c165.02,0 298.66,-133.64 298.66,-298.66zM304.87,567.46h414.26c8.46,0 16.38,4.18 21.15,11.18c4.77,6.99 5.77,15.89 2.68,23.77c-36.09,92.03 -125.5,158.13 -230.96,158.13c-105.46,0 -194.88,-66.1 -230.96,-158.13c-3.09,-7.88 -2.09,-16.78 2.68,-23.77c4.77,-6.99 12.69,-11.18 21.15,-11.18zM283.74,410.66c0,-47.78 38.62,-86.4 86.4,-86.4c47.78,0 86.4,38.62 86.4,86.4c0,47.78 -38.62,86.4 -86.4,86.4c-47.78,0 -86.4,-38.62 -86.4,-86.4zM567.46,410.66c0,-47.78 38.62,-86.4 86.4,-86.4c47.78,0 86.4,38.62 86.4,86.4c0,47.78 -38.62,86.4 -86.4,86.4c-47.78,0 -86.4,-38.62 -86.4,-86.4zM511.59,106.66c-223.74,0 -404.93,181.59 -404.93,405.34c0,223.74 181.18,405.34 404.93,405.34c224.15,0 405.75,-181.59 405.75,-405.34c0,-223.74 -181.59,-405.34 -405.74,-405.34zM512,836.26c-179.16,0 -324.26,-145.1 -324.26,-324.26c0,-179.16 145.1,-324.26 324.26,-324.26c179.16,0 324.26,145.1 324.26,324.26c0,179.16 -145.1,324.26 -324.26,324.26zM512,734.94c94.44,0 174.71,-59.19 207.13,-141.87h-414.26c32.42,82.69 112.69,141.87 207.13,141.87zM653.86,471.46c33.64,0 60.8,-27.16 60.8,-60.8c0,-33.64 -27.16,-60.8 -60.8,-60.8c-33.64,0 -60.8,27.16 -60.8,60.8c0,33.64 27.16,60.8 60.8,60.8zM370.14,471.46c33.64,0 60.8,-27.16 60.8,-60.8c0,-33.64 -27.16,-60.8 -60.8,-60.8c-33.64,0 -60.8,27.16 -60.8,60.8c0,33.64 27.16,60.8 60.8,60.8z" fill="url(#color-jRjE72oG)"/>
		</mask>
	</defs>
	<g fill="none" fill-rule="nonzero" style="mix-blend-mode: normal">
		<g mask="url(#mask-eKtorcjK)">
			<g color="#ff0000" class="teamapps-color-2">
				<rect x="81.06" y="81.06" width="861.87" height="861.87" fill="currentColor"/>
			</g>
			<g color="#bc13e0" class="teamapps-color-3" mask="url(#mask-2Ttkl5VB)">
				<rect x="81.06" y="81.06" width="861.87" height="861.87" fill="currentColor"/>
			</g>
		</g>
		<g filter="url(#filter-HIKRpePh)" mask="url(#mask-sQfUWkUJ)">
			<g color="#fff961" class="teamapps-color-1">
				<rect x="81.06" y="81.06" width="861.87" height="861.87" fill="currentColor"/>
			</g>
		</g>
	</g>
</svg>