<svg version="1.1" xmlns="http://www.w3.org/2000/svg" xmlns:xlink="http://www.w3.org/1999/xlink" viewBox="0,0,1024,1024">
	<!-- Color names: teamapps-color-1, teamapps-color-2, teamapps-color-3 -->
	<desc>timeline icon - Licensed under Apache License v2.0 (http://www.apache.org/licenses/LICENSE-2.0) - Created with Iconfu.com - Derivative work of Material icons (Copyright Google Inc.)</desc>
	<defs>
		<radialGradient cx="0" cy="0" r="1448.15" id="color-hRFY0b9J" gradientUnits="userSpaceOnUse">
			<stop offset="0.08" stop-color="#ffffff"/>
			<stop offset="1" stop-color="#000000"/>
		</radialGradient>
		<linearGradient x1="0" y1="1024" x2="1024" y2="0" id="color-T8i9yva7" gradientUnits="userSpaceOnUse">
			<stop offset="0.2" stop-color="#000000"/>
			<stop offset="0.8" stop-color="#ffffff"/>
		</linearGradient>
		<filter id="filter-zeJ6YYpl" color-interpolation-filters="sRGB">
			<feOffset/>
		</filter>
		<mask id="mask-gwKYJezO">
			<path d="M983.46,349.86c0,58.72 -47.94,106.67 -106.66,106.67c-4.03,0 -8.13,-0.2 -12.27,-0.67l-124.95,124.61c0.49,4.3 0.68,8.54 0.68,12.59c0,58.72 -47.94,106.67 -106.66,106.67c-58.73,0 -106.66,-47.95 -106.66,-106.67c0,-4.06 0.2,-8.3 0.69,-12.61l-84.07,-84.07c-4.31,0.49 -8.55,0.69 -12.61,0.69c-4.05,0 -8.29,-0.2 -12.6,-0.68l-165.14,165.5c0.47,4.14 0.66,8.24 0.66,12.26c0,58.72 -47.94,106.66 -106.66,106.66c-58.72,0 -106.66,-47.94 -106.66,-106.66c0,-58.72 47.94,-106.67 106.66,-106.67c4.02,0 8.12,0.2 12.26,0.67l165.49,-165.13c-0.49,-4.3 -0.69,-8.55 -0.69,-12.61c0,-58.73 47.95,-106.66 106.67,-106.66c58.72,0 106.66,47.94 106.66,106.66c0,4.07 -0.2,8.31 -0.69,12.63l84.06,84.06c4.31,-0.49 8.56,-0.69 12.63,-0.69c4.06,0 8.3,0.2 12.6,0.69l124.6,-124.96c-0.47,-4.14 -0.66,-8.24 -0.66,-12.26c0,-58.72 47.94,-106.66 106.66,-106.66c58.72,0 106.66,47.94 106.66,106.66zM876.8,268.8c-44.58,0 -81.06,36.48 -81.06,81.06c0,7.3 0.81,14.18 2.83,20.67l-143.89,144.31c-6.49,-2.02 -13.78,-2.84 -21.08,-2.84c-7.3,0 -14.59,0.82 -21.08,2.84l-103.36,-103.36c2.02,-6.49 2.84,-13.78 2.84,-21.08c0,-44.58 -36.48,-81.06 -81.06,-81.06c-44.58,0 -81.07,36.48 -81.07,81.06c0,7.3 0.82,14.59 2.84,21.08l-184.83,184.42c-6.49,-2.02 -13.38,-2.84 -20.67,-2.84c-44.58,0 -81.06,36.49 -81.06,81.07c0,44.58 36.48,81.06 81.06,81.06c44.58,0 81.06,-36.48 81.06,-81.06c0,-7.3 -0.81,-14.18 -2.83,-20.67l184.42,-184.83c6.49,2.02 13.78,2.83 21.08,2.83c7.3,0 14.58,-0.81 21.07,-2.83l103.36,103.36c-2.02,6.49 -2.83,13.77 -2.83,21.07c0,44.58 36.48,81.07 81.06,81.07c44.58,0 81.06,-36.49 81.06,-81.07c0,-7.3 -0.81,-14.58 -2.83,-21.07l144.3,-143.9c6.49,2.02 13.38,2.84 20.67,2.84c44.58,0 81.06,-36.49 81.06,-81.07c0,-44.58 -36.48,-81.06 -81.06,-81.06z" fill="url(#color-hRFY0b9J)"/>
		</mask>
		<mask id="mask-h5q3scB5">
			<path d="M983.46,349.86c0,58.72 -47.94,106.67 -106.66,106.67c-4.03,0 -8.13,-0.2 -12.27,-0.67l-124.95,124.61c0.49,4.3 0.68,8.54 0.68,12.59c0,58.72 -47.94,106.67 -106.66,106.67c-58.73,0 -106.66,-47.95 -106.66,-106.67c0,-4.06 0.2,-8.3 0.69,-12.61l-84.07,-84.07c-4.31,0.49 -8.55,0.69 -12.61,0.69c-4.05,0 -8.29,-0.2 -12.6,-0.68l-165.14,165.5c0.47,4.14 0.66,8.24 0.66,12.26c0,58.72 -47.94,106.66 -106.66,106.66c-58.72,0 -106.66,-47.94 -106.66,-106.66c0,-58.72 47.94,-106.67 106.66,-106.67c4.02,0 8.12,0.2 12.26,0.67l165.49,-165.13c-0.49,-4.3 -0.69,-8.55 -0.69,-12.61c0,-58.73 47.95,-106.66 106.67,-106.66c58.72,0 106.66,47.94 106.66,106.66c0,4.07 -0.2,8.31 -0.69,12.63l84.06,84.06c4.31,-0.49 8.56,-0.69 12.63,-0.69c4.06,0 8.3,0.2 12.6,0.69l124.6,-124.96c-0.47,-4.14 -0.66,-8.24 -0.66,-12.26c0,-58.72 47.94,-106.66 106.66,-106.66c58.72,0 106.66,47.94 106.66,106.66zM876.8,268.8c-44.58,0 -81.06,36.48 -81.06,81.06c0,7.3 0.81,14.18 2.83,20.67l-143.89,144.31c-6.49,-2.02 -13.78,-2.84 -21.08,-2.84c-7.3,0 -14.59,0.82 -21.08,2.84l-103.36,-103.36c2.02,-6.49 2.84,-13.78 2.84,-21.08c0,-44.58 -36.48,-81.06 -81.06,-81.06c-44.58,0 -81.07,36.48 -81.07,81.06c0,7.3 0.82,14.59 2.84,21.08l-184.83,184.42c-6.49,-2.02 -13.38,-2.84 -20.67,-2.84c-44.58,0 -81.06,36.49 -81.06,81.07c0,44.58 36.48,81.06 81.06,81.06c44.58,0 81.06,-36.48 81.06,-81.06c0,-7.3 -0.81,-14.18 -2.83,-20.67l184.42,-184.83c6.49,2.02 13.78,2.83 21.08,2.83c7.3,0 14.58,-0.81 21.07,-2.83l103.36,103.36c-2.02,6.49 -2.83,13.77 -2.83,21.07c0,44.58 36.48,81.07 81.06,81.07c44.58,0 81.06,-36.49 81.06,-81.07c0,-7.3 -0.81,-14.58 -2.83,-21.07l144.3,-143.9c6.49,2.02 13.38,2.84 20.67,2.84c44.58,0 81.06,-36.49 81.06,-81.07c0,-44.58 -36.48,-81.06 -81.06,-81.06z" fill="#ffffff"/>
		</mask>
		<mask id="mask-NmhHI0Ww">
			<rect fill="url(#color-T8i9yva7)" x="40.54" y="243.2" width="942.93" height="537.6"/>
		</mask>
	</defs>
	<g fill="none" fill-rule="nonzero" style="mix-blend-mode: normal">
		<g mask="url(#mask-h5q3scB5)">
			<g color="#ff0000" class="teamapps-color-2">
				<rect x="40.54" y="243.2" width="942.93" height="537.6" fill="currentColor"/>
			</g>
			<g color="#bc13e0" class="teamapps-color-3" mask="url(#mask-NmhHI0Ww)">
				<rect x="40.54" y="243.2" width="942.93" height="537.6" fill="currentColor"/>
			</g>
		</g>
		<g filter="url(#filter-zeJ6YYpl)" mask="url(#mask-gwKYJezO)">
			<g color="#fff961" class="teamapps-color-1">
				<rect x="40.54" y="243.2" width="942.93" height="537.6" fill="currentColor"/>
			</g>
		</g>
	</g>
</svg>