<svg version="1.1" xmlns="http://www.w3.org/2000/svg" xmlns:xlink="http://www.w3.org/1999/xlink" viewBox="0,0,1024,1024">
	<!-- Color names: teamapps-color-1, teamapps-color-2, teamapps-color-3 -->
	<desc>timer icon - Licensed under Apache License v2.0 (http://www.apache.org/licenses/LICENSE-2.0) - Created with Iconfu.com - Derivative work of Material icons (Copyright Google Inc.)</desc>
	<defs>
		<radialGradient cx="0" cy="0" r="1448.15" id="color-b8GbVOap" gradientUnits="userSpaceOnUse">
			<stop offset="0.08" stop-color="#ffffff"/>
			<stop offset="1" stop-color="#000000"/>
		</radialGradient>
		<linearGradient x1="0" y1="1024" x2="1024" y2="0" id="color-QpQ8y1DJ" gradientUnits="userSpaceOnUse">
			<stop offset="0.2" stop-color="#000000"/>
			<stop offset="0.8" stop-color="#ffffff"/>
		</linearGradient>
		<filter id="filter-bV53CHPv" color-interpolation-filters="sRGB">
			<feOffset/>
		</filter>
		<mask id="mask-AglL60F7">
			<path d="M902.4,552.54c0,215.57 -174.39,390.4 -390.4,390.4c-216.01,0 -390.4,-174.83 -390.4,-390.4c0,-184.26 127.7,-338.73 299.41,-379.74h-30.61c-14.14,0 -25.6,-11.46 -25.6,-25.6v-81.06c0,-14.14 11.46,-25.6 25.6,-25.6h243.2c14.14,0 25.6,11.46 25.6,25.6v81.06c0,14.14 -11.46,25.6 -25.6,25.6h-30.99c49.1,11.77 94.67,32.88 134.82,61.36l41.82,-41.83c9.32,-9.32 24.2,-10.04 34.38,-1.66c22.08,18.18 42.21,38.79 60.45,60.41c8.57,10.17 7.93,25.2 -1.47,34.6l-41.84,41.85c45,63.61 71.63,141.26 71.63,225zM770.14,552.54c0,-142.73 -115.41,-258.14 -258.14,-258.14c-142.73,0 -258.14,115.41 -258.14,258.14c0,142.72 115.41,258.13 258.14,258.13c142.73,0 258.14,-115.4 258.14,-258.13zM471.46,324.26h81.07c14.14,0 25.6,11.46 25.6,25.6v243.2c0,14.14 -11.46,25.6 -25.6,25.6h-81.07c-14.14,0 -25.6,-11.46 -25.6,-25.6v-243.2c0,-14.14 11.46,-25.6 25.6,-25.6zM796.95,325.14l57.55,-57.56c-17.43,-20.67 -36.48,-40.13 -57.15,-57.15l-57.55,57.56c-62.82,-50.26 -141.87,-80.26 -227.8,-80.26c-201.45,0 -364.8,163.35 -364.8,364.8c0,201.45 162.94,364.8 364.8,364.8c201.86,0 364.8,-163.35 364.8,-364.8c0,-85.93 -29.99,-164.97 -79.85,-227.39zM512,836.26c-156.86,0 -283.74,-126.86 -283.74,-283.73c0,-156.86 126.87,-283.74 283.74,-283.74c156.86,0 283.74,126.87 283.74,283.74c0,156.86 -126.87,283.73 -283.74,283.73zM633.6,66.14h-243.2v81.06h243.2zM471.46,593.06h81.07v-243.2h-81.07z" fill="url(#color-b8GbVOap)"/>
		</mask>
		<mask id="mask-jBfrxONK">
			<rect fill="url(#color-QpQ8y1DJ)" x="121.6" y="40.54" width="780.8" height="902.4"/>
		</mask>
		<mask id="mask-obLrcpSs">
			<path d="M902.4,552.54c0,215.57 -174.39,390.4 -390.4,390.4c-216.01,0 -390.4,-174.83 -390.4,-390.4c0,-184.26 127.7,-338.73 299.41,-379.74h-30.61c-14.14,0 -25.6,-11.46 -25.6,-25.6v-81.06c0,-14.14 11.46,-25.6 25.6,-25.6h243.2c14.14,0 25.6,11.46 25.6,25.6v81.06c0,14.14 -11.46,25.6 -25.6,25.6h-30.99c49.1,11.77 94.67,32.88 134.82,61.36l41.82,-41.83c9.32,-9.32 24.2,-10.04 34.38,-1.66c22.08,18.18 42.21,38.79 60.45,60.41c8.57,10.17 7.93,25.2 -1.47,34.6l-41.84,41.85c45,63.61 71.63,141.26 71.63,225zM770.14,552.54c0,-142.73 -115.41,-258.14 -258.14,-258.14c-142.73,0 -258.14,115.41 -258.14,258.14c0,142.72 115.41,258.13 258.14,258.13c142.73,0 258.14,-115.4 258.14,-258.13zM471.46,324.26h81.07c14.14,0 25.6,11.46 25.6,25.6v243.2c0,14.14 -11.46,25.6 -25.6,25.6h-81.07c-14.14,0 -25.6,-11.46 -25.6,-25.6v-243.2c0,-14.14 11.46,-25.6 25.6,-25.6zM796.95,325.14l57.55,-57.56c-17.43,-20.67 -36.48,-40.13 -57.15,-57.15l-57.55,57.56c-62.82,-50.26 -141.87,-80.26 -227.8,-80.26c-201.45,0 -364.8,163.35 -364.8,364.8c0,201.45 162.94,364.8 364.8,364.8c201.86,0 364.8,-163.35 364.8,-364.8c0,-85.93 -29.99,-164.97 -79.85,-227.39zM512,836.26c-156.86,0 -283.74,-126.86 -283.74,-283.73c0,-156.86 126.87,-283.74 283.74,-283.74c156.86,0 283.74,126.87 283.74,283.74c0,156.86 -126.87,283.73 -283.74,283.73zM633.6,66.14h-243.2v81.06h243.2zM471.46,593.06h81.07v-243.2h-81.07z" fill="#ffffff"/>
		</mask>
	</defs>
	<g fill="none" fill-rule="nonzero" style="mix-blend-mode: normal">
		<g mask="url(#mask-obLrcpSs)">
			<g color="#ff0000" class="teamapps-color-2">
				<rect x="121.6" y="40.54" width="780.8" height="902.4" fill="currentColor"/>
			</g>
			<g color="#bc13e0" class="teamapps-color-3" mask="url(#mask-jBfrxONK)">
				<rect x="121.6" y="40.54" width="780.8" height="902.4" fill="currentColor"/>
			</g>
		</g>
		<g filter="url(#filter-bV53CHPv)" mask="url(#mask-AglL60F7)">
			<g color="#fff961" class="teamapps-color-1">
				<rect x="121.6" y="40.54" width="780.8" height="902.4" fill="currentColor"/>
			</g>
		</g>
	</g>
</svg>