<svg version="1.1" xmlns="http://www.w3.org/2000/svg" xmlns:xlink="http://www.w3.org/1999/xlink" viewBox="0,0,1024,1024">
	<!-- Color names: teamapps-color-1, teamapps-color-2, teamapps-color-3 -->
	<desc>train icon - Licensed under Apache License v2.0 (http://www.apache.org/licenses/LICENSE-2.0) - Created with Iconfu.com - Derivative work of Material icons (Copyright Google Inc.)</desc>
	<defs>
		<linearGradient x1="0" y1="1024" x2="1024" y2="0" id="color-nS0c5DnI" gradientUnits="userSpaceOnUse">
			<stop offset="0.2" stop-color="#000000"/>
			<stop offset="0.8" stop-color="#ffffff"/>
		</linearGradient>
		<radialGradient cx="0" cy="0" r="1448.15" id="color-xRMJb4QS" gradientUnits="userSpaceOnUse">
			<stop offset="0.08" stop-color="#ffffff"/>
			<stop offset="1" stop-color="#000000"/>
		</radialGradient>
		<filter id="filter-m6s1Nc6Y" color-interpolation-filters="sRGB">
			<feOffset/>
		</filter>
		<mask id="mask-f7GMUlTg">
			<path d="M861.86,268.8v385.06c0,73.81 -47.93,136.56 -114.3,158.83l25.74,25.74c4.8,4.8 7.5,11.31 7.5,18.1v20.26c0,14.14 -11.46,25.6 -25.6,25.6h-81.06c-6.79,0 -13.3,-2.7 -18.1,-7.5l-73.58,-73.57h-131.6l-73.57,73.57c-4.8,4.8 -11.31,7.5 -18.1,7.5h-90.39c-14.14,0 -25.6,-11.46 -25.6,-25.6v-20.26c0,-6.79 2.7,-13.3 7.5,-18.1l25.74,-25.74c-66.38,-22.26 -114.3,-85.02 -114.3,-158.83v-385.06c0,-171.66 197.93,-187.74 349.86,-187.74c169.71,0 349.86,16.36 349.86,187.74zM294.4,294.4v110.94h151.46v-110.94zM578.14,294.4v110.94h151.46v-110.94zM364.8,653.86c0,-19.5 -15.7,-35.2 -35.2,-35.2c-19.5,0 -35.2,15.7 -35.2,35.2c0,19.5 15.7,35.2 35.2,35.2c19.5,0 35.2,-15.7 35.2,-35.2zM729.6,653.86c0,-19.5 -15.7,-35.2 -35.2,-35.2c-19.5,0 -35.2,15.7 -35.2,35.2c0,19.5 15.7,35.2 35.2,35.2c19.5,0 35.2,-15.7 35.2,-35.2zM512,106.66c-162.14,0 -324.26,20.27 -324.26,162.14v385.06c0,78.23 63.63,141.87 141.86,141.87l-60.8,60.8v20.26h90.39l81.06,-81.06h152.81l81.07,81.06h81.06v-20.26l-60.8,-60.8c78.23,0 141.86,-63.64 141.86,-141.87v-385.06c0,-141.86 -145.1,-162.14 -324.26,-162.14zM552.54,430.94v-162.14h202.66v162.14zM471.46,430.94h-202.66v-162.14h202.66zM329.6,714.66c-33.64,0 -60.8,-27.16 -60.8,-60.8c0,-33.64 27.16,-60.8 60.8,-60.8c33.64,0 60.8,27.16 60.8,60.8c0,33.64 -27.16,60.8 -60.8,60.8zM694.4,714.66c-33.64,0 -60.8,-27.16 -60.8,-60.8c0,-33.64 27.16,-60.8 60.8,-60.8c33.64,0 60.8,27.16 60.8,60.8c0,33.64 -27.16,60.8 -60.8,60.8z" fill="url(#color-xRMJb4QS)"/>
		</mask>
		<mask id="mask-PVasFJcD">
			<path d="M861.86,268.8v385.06c0,73.81 -47.93,136.56 -114.3,158.83l25.74,25.74c4.8,4.8 7.5,11.31 7.5,18.1v20.26c0,14.14 -11.46,25.6 -25.6,25.6h-81.06c-6.79,0 -13.3,-2.7 -18.1,-7.5l-73.58,-73.57h-131.6l-73.57,73.57c-4.8,4.8 -11.31,7.5 -18.1,7.5h-90.39c-14.14,0 -25.6,-11.46 -25.6,-25.6v-20.26c0,-6.79 2.7,-13.3 7.5,-18.1l25.74,-25.74c-66.38,-22.26 -114.3,-85.02 -114.3,-158.83v-385.06c0,-171.66 197.93,-187.74 349.86,-187.74c169.71,0 349.86,16.36 349.86,187.74zM294.4,294.4v110.94h151.46v-110.94zM578.14,294.4v110.94h151.46v-110.94zM364.8,653.86c0,-19.5 -15.7,-35.2 -35.2,-35.2c-19.5,0 -35.2,15.7 -35.2,35.2c0,19.5 15.7,35.2 35.2,35.2c19.5,0 35.2,-15.7 35.2,-35.2zM729.6,653.86c0,-19.5 -15.7,-35.2 -35.2,-35.2c-19.5,0 -35.2,15.7 -35.2,35.2c0,19.5 15.7,35.2 35.2,35.2c19.5,0 35.2,-15.7 35.2,-35.2zM512,106.66c-162.14,0 -324.26,20.27 -324.26,162.14v385.06c0,78.23 63.63,141.87 141.86,141.87l-60.8,60.8v20.26h90.39l81.06,-81.06h152.81l81.07,81.06h81.06v-20.26l-60.8,-60.8c78.23,0 141.86,-63.64 141.86,-141.87v-385.06c0,-141.86 -145.1,-162.14 -324.26,-162.14zM552.54,430.94v-162.14h202.66v162.14zM471.46,430.94h-202.66v-162.14h202.66zM329.6,714.66c-33.64,0 -60.8,-27.16 -60.8,-60.8c0,-33.64 27.16,-60.8 60.8,-60.8c33.64,0 60.8,27.16 60.8,60.8c0,33.64 -27.16,60.8 -60.8,60.8zM694.4,714.66c-33.64,0 -60.8,-27.16 -60.8,-60.8c0,-33.64 27.16,-60.8 60.8,-60.8c33.64,0 60.8,27.16 60.8,60.8c0,33.64 -27.16,60.8 -60.8,60.8z" fill="#ffffff"/>
		</mask>
		<mask id="mask-ZpBw9Ye8">
			<rect fill="url(#color-nS0c5DnI)" x="162.14" y="81.06" width="699.73" height="821.34"/>
		</mask>
	</defs>
	<g fill="none" fill-rule="nonzero" style="mix-blend-mode: normal">
		<g mask="url(#mask-PVasFJcD)">
			<g color="#ff0000" class="teamapps-color-2">
				<rect x="162.14" y="81.06" width="699.73" height="821.34" fill="currentColor"/>
			</g>
			<g color="#bc13e0" class="teamapps-color-3" mask="url(#mask-ZpBw9Ye8)">
				<rect x="162.14" y="81.06" width="699.73" height="821.34" fill="currentColor"/>
			</g>
		</g>
		<g filter="url(#filter-m6s1Nc6Y)" mask="url(#mask-f7GMUlTg)">
			<g color="#fff961" class="teamapps-color-1">
				<rect x="162.14" y="81.06" width="699.73" height="821.34" fill="currentColor"/>
			</g>
		</g>
	</g>
</svg>