<svg version="1.1" xmlns="http://www.w3.org/2000/svg" xmlns:xlink="http://www.w3.org/1999/xlink" viewBox="0,0,1024,1024">
	<!-- Color names: teamapps-color-1, teamapps-color-2, teamapps-color-3 -->
	<desc>view_day icon - Licensed under Apache License v2.0 (http://www.apache.org/licenses/LICENSE-2.0) - Created with Iconfu.com - Derivative work of Material icons (Copyright Google Inc.)</desc>
	<defs>
		<radialGradient cx="0" cy="0" r="1448.15" id="color-D21bDhia" gradientUnits="userSpaceOnUse">
			<stop offset="0.08" stop-color="#ffffff"/>
			<stop offset="1" stop-color="#000000"/>
		</radialGradient>
		<linearGradient x1="0" y1="1024" x2="1024" y2="0" id="color-JLlC1Ofg" gradientUnits="userSpaceOnUse">
			<stop offset="0.2" stop-color="#000000"/>
			<stop offset="0.8" stop-color="#ffffff"/>
		</linearGradient>
		<filter id="filter-bxoENfNC" color-interpolation-filters="sRGB">
			<feOffset/>
		</filter>
		<mask id="mask-15hBfwze">
			<rect fill="url(#color-JLlC1Ofg)" x="81.06" y="121.6" width="821.34" height="780.8"/>
		</mask>
		<mask id="mask-bJvwG1kv">
			<path d="M902.4,390.4v243.2c0,36.43 -29.7,66.14 -66.14,66.14h-689.06c-36.43,0 -66.14,-29.7 -66.14,-66.14v-243.2c0,-36.43 29.7,-66.14 66.14,-66.14h689.06c36.43,0 66.14,29.7 66.14,66.14zM106.66,729.6h770.14c14.14,0 25.6,11.46 25.6,25.6v121.6c0,14.14 -11.46,25.6 -25.6,25.6h-770.14c-14.14,0 -25.6,-11.46 -25.6,-25.6v-121.6c0,-14.14 11.46,-25.6 25.6,-25.6zM902.4,147.2v121.6c0,14.14 -11.46,25.6 -25.6,25.6h-770.14c-14.14,0 -25.6,-11.46 -25.6,-25.6v-121.6c0,-14.14 11.46,-25.6 25.6,-25.6h770.14c14.14,0 25.6,11.46 25.6,25.6zM836.26,349.86h-689.06c-22.3,0 -40.54,18.24 -40.54,40.54v243.2c0,22.3 18.24,40.54 40.54,40.54h689.06c22.3,0 40.54,-18.24 40.54,-40.54v-243.2c0,-22.3 -18.24,-40.54 -40.54,-40.54zM106.66,876.8h770.14v-121.6h-770.14zM106.66,147.2v121.6h770.14v-121.6z" fill="#ffffff"/>
		</mask>
		<mask id="mask-vmx6BJIL">
			<path d="M902.4,390.4v243.2c0,36.43 -29.7,66.14 -66.14,66.14h-689.06c-36.43,0 -66.14,-29.7 -66.14,-66.14v-243.2c0,-36.43 29.7,-66.14 66.14,-66.14h689.06c36.43,0 66.14,29.7 66.14,66.14zM106.66,729.6h770.14c14.14,0 25.6,11.46 25.6,25.6v121.6c0,14.14 -11.46,25.6 -25.6,25.6h-770.14c-14.14,0 -25.6,-11.46 -25.6,-25.6v-121.6c0,-14.14 11.46,-25.6 25.6,-25.6zM902.4,147.2v121.6c0,14.14 -11.46,25.6 -25.6,25.6h-770.14c-14.14,0 -25.6,-11.46 -25.6,-25.6v-121.6c0,-14.14 11.46,-25.6 25.6,-25.6h770.14c14.14,0 25.6,11.46 25.6,25.6zM836.26,349.86h-689.06c-22.3,0 -40.54,18.24 -40.54,40.54v243.2c0,22.3 18.24,40.54 40.54,40.54h689.06c22.3,0 40.54,-18.24 40.54,-40.54v-243.2c0,-22.3 -18.24,-40.54 -40.54,-40.54zM106.66,876.8h770.14v-121.6h-770.14zM106.66,147.2v121.6h770.14v-121.6z" fill="url(#color-D21bDhia)"/>
		</mask>
	</defs>
	<g fill="none" fill-rule="nonzero" style="mix-blend-mode: normal">
		<g mask="url(#mask-bJvwG1kv)">
			<g color="#ff0000" class="teamapps-color-2">
				<rect x="81.06" y="121.6" width="821.34" height="780.8" fill="currentColor"/>
			</g>
			<g color="#bc13e0" class="teamapps-color-3" mask="url(#mask-15hBfwze)">
				<rect x="81.06" y="121.6" width="821.34" height="780.8" fill="currentColor"/>
			</g>
		</g>
		<g filter="url(#filter-bxoENfNC)" mask="url(#mask-vmx6BJIL)">
			<g color="#fff961" class="teamapps-color-1">
				<rect x="81.06" y="121.6" width="821.34" height="780.8" fill="currentColor"/>
			</g>
		</g>
	</g>
</svg>