<svg version="1.1" xmlns="http://www.w3.org/2000/svg" xmlns:xlink="http://www.w3.org/1999/xlink" viewBox="0,0,1024,1024">
	<!-- Color names: teamapps-color-1, teamapps-color-2, teamapps-color-3 -->
	<desc>web icon - Licensed under Apache License v2.0 (http://www.apache.org/licenses/LICENSE-2.0) - Created with Iconfu.com - Derivative work of Material icons (Copyright Google Inc.)</desc>
	<defs>
		<linearGradient x1="0" y1="1024" x2="1024" y2="0" id="color-50MUIeDY" gradientUnits="userSpaceOnUse">
			<stop offset="0.2" stop-color="#000000"/>
			<stop offset="0.8" stop-color="#ffffff"/>
		</linearGradient>
		<radialGradient cx="0" cy="0" r="1448.15" id="color-k91AQOXc" gradientUnits="userSpaceOnUse">
			<stop offset="0.08" stop-color="#ffffff"/>
			<stop offset="1" stop-color="#000000"/>
		</radialGradient>
		<filter id="filter-912x7AN8" color-interpolation-filters="sRGB">
			<feOffset/>
		</filter>
		<mask id="mask-boh4NJxZ">
			<path d="M942.94,268.8v486.4c0,58.73 -47.95,106.66 -106.67,106.66h-648.53c-58.72,0 -106.67,-47.94 -106.67,-106.66l0.41,-486.42c0,-58.56 47.38,-106.64 106.26,-106.64h648.53c58.72,0 106.67,47.94 106.67,106.66zM608,618.66h-394.66v110.94h394.66zM608,416h-394.66v110.94h394.66zM699.74,416v313.6h110.93v-313.6zM836.26,187.74h-648.53c-44.58,0 -80.66,36.48 -80.66,81.06l-0.41,486.4c0,44.58 36.49,81.06 81.07,81.06h648.53c44.58,0 81.07,-36.48 81.07,-81.06v-486.4c0,-44.58 -36.49,-81.06 -81.07,-81.06zM633.6,755.2h-445.86v-162.14h445.86zM633.6,552.54h-445.86v-162.14h445.86zM836.26,755.2h-162.13v-364.8h162.13z" fill="#ffffff"/>
		</mask>
		<mask id="mask-fSTRWnvV">
			<rect fill="url(#color-50MUIeDY)" x="81.06" y="162.14" width="861.87" height="699.73"/>
		</mask>
		<mask id="mask-nIZtHJnZ">
			<path d="M942.94,268.8v486.4c0,58.73 -47.95,106.66 -106.67,106.66h-648.53c-58.72,0 -106.67,-47.94 -106.67,-106.66l0.41,-486.42c0,-58.56 47.38,-106.64 106.26,-106.64h648.53c58.72,0 106.67,47.94 106.67,106.66zM608,618.66h-394.66v110.94h394.66zM608,416h-394.66v110.94h394.66zM699.74,416v313.6h110.93v-313.6zM836.26,187.74h-648.53c-44.58,0 -80.66,36.48 -80.66,81.06l-0.41,486.4c0,44.58 36.49,81.06 81.07,81.06h648.53c44.58,0 81.07,-36.48 81.07,-81.06v-486.4c0,-44.58 -36.49,-81.06 -81.07,-81.06zM633.6,755.2h-445.86v-162.14h445.86zM633.6,552.54h-445.86v-162.14h445.86zM836.26,755.2h-162.13v-364.8h162.13z" fill="url(#color-k91AQOXc)"/>
		</mask>
	</defs>
	<g fill="none" fill-rule="nonzero" style="mix-blend-mode: normal">
		<g mask="url(#mask-boh4NJxZ)">
			<g color="#ff0000" class="teamapps-color-2">
				<rect x="81.06" y="162.14" width="861.87" height="699.73" fill="currentColor"/>
			</g>
			<g color="#bc13e0" class="teamapps-color-3" mask="url(#mask-fSTRWnvV)">
				<rect x="81.06" y="162.14" width="861.87" height="699.73" fill="currentColor"/>
			</g>
		</g>
		<g filter="url(#filter-912x7AN8)" mask="url(#mask-nIZtHJnZ)">
			<g color="#fff961" class="teamapps-color-1">
				<rect x="81.06" y="162.14" width="861.87" height="699.73" fill="currentColor"/>
			</g>
		</g>
	</g>
</svg>