<svg version="1.1" xmlns="http://www.w3.org/2000/svg" xmlns:xlink="http://www.w3.org/1999/xlink" viewBox="0,0,1024,1024">
	<!-- Color names: teamapps-color-1, teamapps-color-2, teamapps-color-3 -->
	<desc>work icon - Licensed under Apache License v2.0 (http://www.apache.org/licenses/LICENSE-2.0) - Created with Iconfu.com - Derivative work of Material icons (Copyright Google Inc.)</desc>
	<defs>
		<linearGradient x1="0" y1="1024" x2="1024" y2="0" id="color-C1On17pL" gradientUnits="userSpaceOnUse">
			<stop offset="0.2" stop-color="#000000"/>
			<stop offset="0.8" stop-color="#ffffff"/>
		</linearGradient>
		<radialGradient cx="0" cy="0" r="1448.15" id="color-DibcXPjW" gradientUnits="userSpaceOnUse">
			<stop offset="0.08" stop-color="#ffffff"/>
			<stop offset="1" stop-color="#000000"/>
		</radialGradient>
		<filter id="filter-LhNKjY10" color-interpolation-filters="sRGB">
			<feOffset/>
		</filter>
		<mask id="mask-HwwJWKHH">
			<rect fill="url(#color-C1On17pL)" x="81.06" y="81.06" width="861.87" height="821.34"/>
		</mask>
		<mask id="mask-RtqGBJ5y">
			<path d="M942.94,349.86v445.87c0,59.13 -47.55,106.66 -106.67,106.66h-648.53c-59.13,0 -106.67,-47.53 -106.67,-106.66l0.41,-445.9c0,-58.96 46.97,-106.64 106.26,-106.64h136.53v-55.46c0,-59.13 47.54,-106.67 106.67,-106.67h162.13c59.13,0 106.67,47.54 106.67,106.67v55.46h136.53c59.13,0 106.67,47.53 106.67,106.66zM456.54,213.34v29.86h110.93v-29.86zM836.26,268.8h-162.13v-81.06c0,-44.99 -36.08,-81.07 -81.07,-81.07h-162.13c-44.99,0 -81.07,36.08 -81.07,81.07v81.06h-162.13c-44.99,0 -80.66,36.07 -80.66,81.06l-0.41,445.87c0,44.99 36.08,81.06 81.07,81.06h648.53c44.99,0 81.07,-36.07 81.07,-81.06v-445.87c0,-44.99 -36.08,-81.06 -81.07,-81.06zM593.06,268.8h-162.13v-81.06h162.13z" fill="url(#color-DibcXPjW)"/>
		</mask>
		<mask id="mask-TKFORDQa">
			<path d="M942.94,349.86v445.87c0,59.13 -47.55,106.66 -106.67,106.66h-648.53c-59.13,0 -106.67,-47.53 -106.67,-106.66l0.41,-445.9c0,-58.96 46.97,-106.64 106.26,-106.64h136.53v-55.46c0,-59.13 47.54,-106.67 106.67,-106.67h162.13c59.13,0 106.67,47.54 106.67,106.67v55.46h136.53c59.13,0 106.67,47.53 106.67,106.66zM456.54,213.34v29.86h110.93v-29.86zM836.26,268.8h-162.13v-81.06c0,-44.99 -36.08,-81.07 -81.07,-81.07h-162.13c-44.99,0 -81.07,36.08 -81.07,81.07v81.06h-162.13c-44.99,0 -80.66,36.07 -80.66,81.06l-0.41,445.87c0,44.99 36.08,81.06 81.07,81.06h648.53c44.99,0 81.07,-36.07 81.07,-81.06v-445.87c0,-44.99 -36.08,-81.06 -81.07,-81.06zM593.06,268.8h-162.13v-81.06h162.13z" fill="#ffffff"/>
		</mask>
	</defs>
	<g fill="none" fill-rule="nonzero" style="mix-blend-mode: normal">
		<g mask="url(#mask-TKFORDQa)">
			<g color="#ff0000" class="teamapps-color-2">
				<rect x="81.06" y="81.06" width="861.87" height="821.34" fill="currentColor"/>
			</g>
			<g color="#bc13e0" class="teamapps-color-3" mask="url(#mask-HwwJWKHH)">
				<rect x="81.06" y="81.06" width="861.87" height="821.34" fill="currentColor"/>
			</g>
		</g>
		<g filter="url(#filter-LhNKjY10)" mask="url(#mask-RtqGBJ5y)">
			<g color="#fff961" class="teamapps-color-1">
				<rect x="81.06" y="81.06" width="861.87" height="821.34" fill="currentColor"/>
			</g>
		</g>
	</g>
</svg>