<svg version="1.1" xmlns="http://www.w3.org/2000/svg" xmlns:xlink="http://www.w3.org/1999/xlink" viewBox="0,0,1024,1024">
	<!-- Color names: teamapps-color-1, teamapps-color-2, teamapps-color-3 -->
	<desc>add_to_queue icon - Licensed under Apache License v2.0 (http://www.apache.org/licenses/LICENSE-2.0) - Created with Iconfu.com - Derivative work of Material icons (Copyright Google Inc.)</desc>
	<defs>
		<clipPath id="clip-MEUrOX7c">
			<path d="M981.33,213.33l-0.42,512c0,46.93 -37.98,85.34 -84.91,85.34h-213.33v85.33h-341.34v-85.33h-213.33c-47.36,0 -85.33,-38.41 -85.33,-85.34v-512c0,-47.36 37.97,-85.33 85.33,-85.33h768c46.93,0 85.33,37.97 85.33,85.33zM896,213.33h-768v512h768zM682.67,426.67v85.33h-128v128h-85.34v-128h-128v-85.33h128v-128h85.34v128z"/>
		</clipPath>
		<linearGradient x1="0" y1="1024" x2="1024" y2="0" id="color-4wObmL0N" gradientUnits="userSpaceOnUse">
			<stop offset="0.2" stop-color="#000000"/>
			<stop offset="0.8" stop-color="#ffffff"/>
		</linearGradient>
		<radialGradient cx="0" cy="0" r="1448.15" id="color-D1e8KmJR" gradientUnits="userSpaceOnUse">
			<stop offset="0.07" stop-color="#ffffff"/>
			<stop offset="0.75" stop-color="#000000"/>
		</radialGradient>
		<filter id="filter-CvxZ3rAQ" x="0%" y="0%" width="100%" height="100%" color-interpolation-filters="sRGB">
			<feColorMatrix values="1 0 0 0 0 0 1 0 0 0 0 0 1 0 0 0 0 0 0.05 0" in="SourceGraphic"/>
			<feOffset dy="20"/>
			<feGaussianBlur stdDeviation="11" result="blur0"/>
			<feColorMatrix values="1 0 0 0 0 0 1 0 0 0 0 0 1 0 0 0 0 0 0.07 0" in="SourceGraphic"/>
			<feOffset dy="30"/>
			<feGaussianBlur stdDeviation="20" result="blur1"/>
			<feMerge>
				<feMergeNode in="blur0"/>
				<feMergeNode in="blur1"/>
			</feMerge>
		</filter>
		<filter id="filter-yjG43pAH" color-interpolation-filters="sRGB">
			<feOffset/>
		</filter>
		<mask id="mask-bA66hGar">
			<path d="M981.33,213.33l-0.42,512c0,46.93 -37.98,85.34 -84.91,85.34h-213.33v85.33h-341.34v-85.33h-213.33c-47.36,0 -85.33,-38.41 -85.33,-85.34v-512c0,-47.36 37.97,-85.33 85.33,-85.33h768c46.93,0 85.33,37.97 85.33,85.33zM896,213.33h-768v512h768zM682.67,426.67v85.33h-128v128h-85.34v-128h-128v-85.33h128v-128h85.34v128z" fill="url(#color-D1e8KmJR)"/>
		</mask>
		<mask id="mask-IHPeszFt">
			<path d="M981.33,213.33l-0.42,512c0,46.93 -37.98,85.34 -84.91,85.34h-213.33v85.33h-341.34v-85.33h-213.33c-47.36,0 -85.33,-38.41 -85.33,-85.34v-512c0,-47.36 37.97,-85.33 85.33,-85.33h768c46.93,0 85.33,37.97 85.33,85.33zM896,213.33h-768v512h768zM682.67,426.67v85.33h-128v128h-85.34v-128h-128v-85.33h128v-128h85.34v128z" fill="#ffffff"/>
		</mask>
		<mask id="mask-URAV0Ylx">
			<rect fill="url(#color-4wObmL0N)" x="42.67" y="128" width="938.66" height="768"/>
		</mask>
	</defs>
	<g fill="none" fill-rule="nonzero" style="mix-blend-mode: normal">
		<g mask="url(#mask-IHPeszFt)">
			<g color="#ffc107" class="teamapps-color-2">
				<rect x="42.67" y="128" width="938.66" height="768" fill="currentColor"/>
			</g>
			<g color="#e65100" class="teamapps-color-3" mask="url(#mask-URAV0Ylx)">
				<rect x="42.67" y="128" width="938.66" height="768" fill="currentColor"/>
			</g>
		</g>
		<g filter="url(#filter-yjG43pAH)" mask="url(#mask-bA66hGar)">
			<g color="#fff59d" class="teamapps-color-1">
				<rect x="42.67" y="128" width="938.66" height="768" fill="currentColor"/>
			</g>
		</g>
		<g clip-path="url(#clip-MEUrOX7c)">
			<path d="M-50.33,939v-954h1124.66v954zM896,128h-768c-47.36,0 -85.33,37.97 -85.33,85.33v512c0,46.93 37.97,85.34 85.33,85.34h213.33v85.33h341.34v-85.33h213.33c46.93,0 84.91,-38.41 84.91,-85.34l0.42,-512c0,-47.36 -38.4,-85.33 -85.33,-85.33zM896,725.33h-768v-512h768zM554.67,426.67v-128h-85.34v128h-128v85.33h128v128h85.34v-128h128v-85.33z" fill="#000000" filter="url(#filter-CvxZ3rAQ)"/>
		</g>
	</g>
</svg>