<svg version="1.1" xmlns="http://www.w3.org/2000/svg" xmlns:xlink="http://www.w3.org/1999/xlink" viewBox="0,0,1024,1024">
	<!-- Color names: teamapps-color-1, teamapps-color-2, teamapps-color-3 -->
	<desc>add_alarm icon - Licensed under Apache License v2.0 (http://www.apache.org/licenses/LICENSE-2.0) - Created with Iconfu.com - Derivative work of Material icons (Copyright Google Inc.)</desc>
	<defs>
		<clipPath id="clip-IAmsjvF9">
			<path d="M896,554.67c0,212.05 -171.95,384 -384,384c-212.48,0 -384,-171.95 -384,-384c0,-212.05 171.95,-384 384,-384c212.05,0 384,171.95 384,384zM810.67,554.67c0,-165.12 -133.55,-298.67 -298.67,-298.67c-165.12,0 -298.67,133.55 -298.67,298.67c0,165.12 133.55,298.66 298.67,298.66c165.12,0 298.67,-133.54 298.67,-298.66zM554.67,512h128v85.33h-128v128h-85.34v-128h-128v-85.33h128v-128h85.34zM883.63,309.33l-196.27,-164.69l55.04,-65.28l196.27,164.69zM140.37,308.91l-55.04,-65.28l196.27,-164.27l54.61,65.28z"/>
		</clipPath>
		<linearGradient x1="0" y1="1024" x2="1024" y2="0" id="color-Awj4TETX" gradientUnits="userSpaceOnUse">
			<stop offset="0.2" stop-color="#000000"/>
			<stop offset="0.8" stop-color="#ffffff"/>
		</linearGradient>
		<radialGradient cx="0" cy="0" r="1448.15" id="color-qO5uxMrU" gradientUnits="userSpaceOnUse">
			<stop offset="0.07" stop-color="#ffffff"/>
			<stop offset="0.75" stop-color="#000000"/>
		</radialGradient>
		<filter id="filter-20H7c2nz" color-interpolation-filters="sRGB">
			<feOffset/>
		</filter>
		<filter id="filter-kCu233kh" x="0%" y="0%" width="100%" height="100%" color-interpolation-filters="sRGB">
			<feColorMatrix values="1 0 0 0 0 0 1 0 0 0 0 0 1 0 0 0 0 0 0.05 0" in="SourceGraphic"/>
			<feOffset dy="20"/>
			<feGaussianBlur stdDeviation="11" result="blur0"/>
			<feColorMatrix values="1 0 0 0 0 0 1 0 0 0 0 0 1 0 0 0 0 0 0.07 0" in="SourceGraphic"/>
			<feOffset dy="30"/>
			<feGaussianBlur stdDeviation="20" result="blur1"/>
			<feMerge>
				<feMergeNode in="blur0"/>
				<feMergeNode in="blur1"/>
			</feMerge>
		</filter>
		<mask id="mask-DRlmNPEM">
			<rect fill="url(#color-Awj4TETX)" x="85.33" y="79.36" width="853.34" height="859.31"/>
		</mask>
		<mask id="mask-DRM671zq">
			<path d="M896,554.67c0,212.05 -171.95,384 -384,384c-212.48,0 -384,-171.95 -384,-384c0,-212.05 171.95,-384 384,-384c212.05,0 384,171.95 384,384zM810.67,554.67c0,-165.12 -133.55,-298.67 -298.67,-298.67c-165.12,0 -298.67,133.55 -298.67,298.67c0,165.12 133.55,298.66 298.67,298.66c165.12,0 298.67,-133.54 298.67,-298.66zM554.67,512h128v85.33h-128v128h-85.34v-128h-128v-85.33h128v-128h85.34zM883.63,309.33l-196.27,-164.69l55.04,-65.28l196.27,164.69zM140.37,308.91l-55.04,-65.28l196.27,-164.27l54.61,65.28z" fill="url(#color-qO5uxMrU)"/>
		</mask>
		<mask id="mask-wmFivoGn">
			<path d="M896,554.67c0,212.05 -171.95,384 -384,384c-212.48,0 -384,-171.95 -384,-384c0,-212.05 171.95,-384 384,-384c212.05,0 384,171.95 384,384zM810.67,554.67c0,-165.12 -133.55,-298.67 -298.67,-298.67c-165.12,0 -298.67,133.55 -298.67,298.67c0,165.12 133.55,298.66 298.67,298.66c165.12,0 298.67,-133.54 298.67,-298.66zM554.67,512h128v85.33h-128v128h-85.34v-128h-128v-85.33h128v-128h85.34zM883.63,309.33l-196.27,-164.69l55.04,-65.28l196.27,164.69zM140.37,308.91l-55.04,-65.28l196.27,-164.27l54.61,65.28z" fill="#ffffff"/>
		</mask>
	</defs>
	<g fill="none" fill-rule="nonzero" style="mix-blend-mode: normal">
		<g mask="url(#mask-wmFivoGn)">
			<g color="#ffc107" class="teamapps-color-2">
				<rect x="85.33" y="79.36" width="853.34" height="859.31" fill="currentColor"/>
			</g>
			<g color="#e65100" class="teamapps-color-3" mask="url(#mask-DRlmNPEM)">
				<rect x="85.33" y="79.36" width="853.34" height="859.31" fill="currentColor"/>
			</g>
		</g>
		<g filter="url(#filter-20H7c2nz)" mask="url(#mask-DRM671zq)">
			<g color="#fff59d" class="teamapps-color-1">
				<rect x="85.33" y="79.36" width="853.34" height="859.31" fill="currentColor"/>
			</g>
		</g>
		<g clip-path="url(#clip-IAmsjvF9)">
			<path d="M-7.67,981.67v-1045.31h1039.34v1045.31zM512,170.67c-212.05,0 -384,171.95 -384,384c0,212.05 171.52,384 384,384c212.05,0 384,-171.95 384,-384c0,-212.05 -171.95,-384 -384,-384zM512,853.33c-165.12,0 -298.67,-133.54 -298.67,-298.66c0,-165.12 133.55,-298.67 298.67,-298.67c165.12,0 298.67,133.55 298.67,298.67c0,165.12 -133.55,298.66 -298.67,298.66zM554.67,384h-85.34v128h-128v85.33h128v128h85.34v-128h128v-85.33h-128zM938.67,244.05l-196.27,-164.69l-55.04,65.28l196.27,164.69zM336.21,144.64l-54.61,-65.28l-196.27,164.27l55.04,65.28z" fill="#000000" filter="url(#filter-kCu233kh)"/>
		</g>
	</g>
</svg>