<svg version="1.1" xmlns="http://www.w3.org/2000/svg" xmlns:xlink="http://www.w3.org/1999/xlink" viewBox="0,0,1024,1024">
	<!-- Color names: teamapps-color-1, teamapps-color-2, teamapps-color-3 -->
	<desc>av_timer icon - Licensed under Apache License v2.0 (http://www.apache.org/licenses/LICENSE-2.0) - Created with Iconfu.com - Derivative work of Material icons (Copyright Google Inc.)</desc>
	<defs>
		<clipPath id="clip-7aEM0qdc">
			<path d="M512,128c212.05,0 384,171.95 384,384c0,212.05 -171.95,384 -384,384c-212.48,0 -384,-171.95 -384,-384c0,-125.87 60.59,-236.8 154.03,-306.77v-0.86l290.13,290.14l-60.16,60.16l-231.25,-231.26c-42.24,51.2 -67.42,116.91 -67.42,188.59c0,165.12 133.55,298.67 298.67,298.67c165.12,0 298.67,-133.55 298.67,-298.67c0,-150.61 -111.36,-274.34 -256,-295.25v81.92h-85.34v-170.67zM512,682.67c23.47,0 42.67,19.19 42.67,42.66c0,23.47 -19.2,42.67 -42.67,42.67c-23.47,0 -42.67,-19.2 -42.67,-42.67c0,-23.47 19.2,-42.66 42.67,-42.66zM725.33,554.67c-23.47,0 -42.66,-19.2 -42.66,-42.67c0,-23.47 19.19,-42.67 42.66,-42.67c23.47,0 42.67,19.2 42.67,42.67c0,23.47 -19.2,42.67 -42.67,42.67zM298.67,469.33c23.47,0 42.66,19.2 42.66,42.67c0,23.47 -19.19,42.67 -42.66,42.67c-23.47,0 -42.67,-19.2 -42.67,-42.67c0,-23.47 19.2,-42.67 42.67,-42.67z"/>
		</clipPath>
		<linearGradient x1="0" y1="1024" x2="1024" y2="0" id="color-7kKof4Ps" gradientUnits="userSpaceOnUse">
			<stop offset="0.2" stop-color="#000000"/>
			<stop offset="0.8" stop-color="#ffffff"/>
		</linearGradient>
		<radialGradient cx="0" cy="0" r="1448.15" id="color-WYFXYy5b" gradientUnits="userSpaceOnUse">
			<stop offset="0.07" stop-color="#ffffff"/>
			<stop offset="0.75" stop-color="#000000"/>
		</radialGradient>
		<filter id="filter-8k9GhYK9" color-interpolation-filters="sRGB">
			<feOffset/>
		</filter>
		<filter id="filter-iAsjIuCR" x="0%" y="0%" width="100%" height="100%" color-interpolation-filters="sRGB">
			<feColorMatrix values="1 0 0 0 0 0 1 0 0 0 0 0 1 0 0 0 0 0 0.05 0" in="SourceGraphic"/>
			<feOffset dy="20"/>
			<feGaussianBlur stdDeviation="11" result="blur0"/>
			<feColorMatrix values="1 0 0 0 0 0 1 0 0 0 0 0 1 0 0 0 0 0 0.07 0" in="SourceGraphic"/>
			<feOffset dy="30"/>
			<feGaussianBlur stdDeviation="20" result="blur1"/>
			<feMerge>
				<feMergeNode in="blur0"/>
				<feMergeNode in="blur1"/>
			</feMerge>
		</filter>
		<mask id="mask-iWILrE1S">
			<path d="M512,128c212.05,0 384,171.95 384,384c0,212.05 -171.95,384 -384,384c-212.48,0 -384,-171.95 -384,-384c0,-125.87 60.59,-236.8 154.03,-306.77v-0.86l290.13,290.14l-60.16,60.16l-231.25,-231.26c-42.24,51.2 -67.42,116.91 -67.42,188.59c0,165.12 133.55,298.67 298.67,298.67c165.12,0 298.67,-133.55 298.67,-298.67c0,-150.61 -111.36,-274.34 -256,-295.25v81.92h-85.34v-170.67zM512,682.67c23.47,0 42.67,19.19 42.67,42.66c0,23.47 -19.2,42.67 -42.67,42.67c-23.47,0 -42.67,-19.2 -42.67,-42.67c0,-23.47 19.2,-42.66 42.67,-42.66zM725.33,554.67c-23.47,0 -42.66,-19.2 -42.66,-42.67c0,-23.47 19.19,-42.67 42.66,-42.67c23.47,0 42.67,19.2 42.67,42.67c0,23.47 -19.2,42.67 -42.67,42.67zM298.67,469.33c23.47,0 42.66,19.2 42.66,42.67c0,23.47 -19.19,42.67 -42.66,42.67c-23.47,0 -42.67,-19.2 -42.67,-42.67c0,-23.47 19.2,-42.67 42.67,-42.67z" fill="#ffffff"/>
		</mask>
		<mask id="mask-pxkJGAZH">
			<path d="M512,128c212.05,0 384,171.95 384,384c0,212.05 -171.95,384 -384,384c-212.48,0 -384,-171.95 -384,-384c0,-125.87 60.59,-236.8 154.03,-306.77v-0.86l290.13,290.14l-60.16,60.16l-231.25,-231.26c-42.24,51.2 -67.42,116.91 -67.42,188.59c0,165.12 133.55,298.67 298.67,298.67c165.12,0 298.67,-133.55 298.67,-298.67c0,-150.61 -111.36,-274.34 -256,-295.25v81.92h-85.34v-170.67zM512,682.67c23.47,0 42.67,19.19 42.67,42.66c0,23.47 -19.2,42.67 -42.67,42.67c-23.47,0 -42.67,-19.2 -42.67,-42.67c0,-23.47 19.2,-42.66 42.67,-42.66zM725.33,554.67c-23.47,0 -42.66,-19.2 -42.66,-42.67c0,-23.47 19.19,-42.67 42.66,-42.67c23.47,0 42.67,19.2 42.67,42.67c0,23.47 -19.2,42.67 -42.67,42.67zM298.67,469.33c23.47,0 42.66,19.2 42.66,42.67c0,23.47 -19.19,42.67 -42.66,42.67c-23.47,0 -42.67,-19.2 -42.67,-42.67c0,-23.47 19.2,-42.67 42.67,-42.67z" fill="url(#color-WYFXYy5b)"/>
		</mask>
		<mask id="mask-YuCkjeMa">
			<rect fill="url(#color-7kKof4Ps)" x="128" y="128" width="768" height="768"/>
		</mask>
	</defs>
	<g fill="none" fill-rule="nonzero" style="mix-blend-mode: normal">
		<g mask="url(#mask-iWILrE1S)">
			<g color="#ffc107" class="teamapps-color-2">
				<rect x="128" y="128" width="768" height="768" fill="currentColor"/>
			</g>
			<g color="#e65100" class="teamapps-color-3" mask="url(#mask-YuCkjeMa)">
				<rect x="128" y="128" width="768" height="768" fill="currentColor"/>
			</g>
		</g>
		<g filter="url(#filter-8k9GhYK9)" mask="url(#mask-pxkJGAZH)">
			<g color="#fff59d" class="teamapps-color-1">
				<rect x="128" y="128" width="768" height="768" fill="currentColor"/>
			</g>
		</g>
		<g clip-path="url(#clip-7aEM0qdc)">
			<path d="M35,939v-954h954v954zM469.33,128v170.67h85.34v-81.92c144.64,20.91 256,144.64 256,295.25c0,165.12 -133.55,298.67 -298.67,298.67c-165.12,0 -298.67,-133.55 -298.67,-298.67c0,-71.68 25.18,-137.39 67.42,-188.59l231.25,231.26l60.16,-60.16l-290.13,-290.14v0.86c-93.44,69.97 -154.03,180.9 -154.03,306.77c0,212.05 171.52,384 384,384c212.05,0 384,-171.95 384,-384c0,-212.05 -171.95,-384 -384,-384zM469.33,725.33c0,23.47 19.2,42.67 42.67,42.67c23.47,0 42.67,-19.2 42.67,-42.67c0,-23.47 -19.2,-42.66 -42.67,-42.66c-23.47,0 -42.67,19.19 -42.67,42.66zM768,512c0,-23.47 -19.2,-42.67 -42.67,-42.67c-23.47,0 -42.66,19.2 -42.66,42.67c0,23.47 19.19,42.67 42.66,42.67c23.47,0 42.67,-19.2 42.67,-42.67zM256,512c0,23.47 19.2,42.67 42.67,42.67c23.47,0 42.66,-19.2 42.66,-42.67c0,-23.47 -19.19,-42.67 -42.66,-42.67c-23.47,0 -42.67,19.2 -42.67,42.67z" fill="#000000" filter="url(#filter-iAsjIuCR)"/>
		</g>
	</g>
</svg>