<svg version="1.1" xmlns="http://www.w3.org/2000/svg" xmlns:xlink="http://www.w3.org/1999/xlink" viewBox="0,0,1024,1024">
	<!-- Color names: teamapps-color-1, teamapps-color-2, teamapps-color-3 -->
	<desc>backspace icon - Licensed under Apache License v2.0 (http://www.apache.org/licenses/LICENSE-2.0) - Created with Iconfu.com - Derivative work of Material icons (Copyright Google Inc.)</desc>
	<defs>
		<clipPath id="clip-Fz7QDkbZ">
			<path d="M1024,213.33v597.34c0,46.93 -38.4,85.33 -85.33,85.33h-640c-29.44,0 -52.48,-15.36 -67.84,-37.97l-230.83,-346.03l230.83,-346.45c15.36,-22.61 38.4,-37.55 67.84,-37.55h640c46.93,0 85.33,38.4 85.33,85.33zM657.49,512l153.18,-153.17l-60.16,-60.16l-153.18,153.17l-153.17,-153.17l-60.16,60.16l153.17,153.17l-153.17,153.17l60.16,60.16l153.17,-153.17l153.18,153.17l60.16,-60.16z"/>
		</clipPath>
		<linearGradient x1="0" y1="1024" x2="1024" y2="0" id="color-KRxpvaWg" gradientUnits="userSpaceOnUse">
			<stop offset="0.2" stop-color="#000000"/>
			<stop offset="0.8" stop-color="#ffffff"/>
		</linearGradient>
		<radialGradient cx="0" cy="0" r="1448.15" id="color-QbZGOKVQ" gradientUnits="userSpaceOnUse">
			<stop offset="0.07" stop-color="#ffffff"/>
			<stop offset="0.75" stop-color="#000000"/>
		</radialGradient>
		<filter id="filter-8oh9hKSz" x="0%" y="0%" width="100%" height="100%" color-interpolation-filters="sRGB">
			<feColorMatrix values="1 0 0 0 0 0 1 0 0 0 0 0 1 0 0 0 0 0 0.05 0" in="SourceGraphic"/>
			<feOffset dy="20"/>
			<feGaussianBlur stdDeviation="11" result="blur0"/>
			<feColorMatrix values="1 0 0 0 0 0 1 0 0 0 0 0 1 0 0 0 0 0 0.07 0" in="SourceGraphic"/>
			<feOffset dy="30"/>
			<feGaussianBlur stdDeviation="20" result="blur1"/>
			<feMerge>
				<feMergeNode in="blur0"/>
				<feMergeNode in="blur1"/>
			</feMerge>
		</filter>
		<filter id="filter-KxmhgOCW" color-interpolation-filters="sRGB">
			<feOffset/>
		</filter>
		<mask id="mask-1jMvg6OD">
			<rect fill="url(#color-KRxpvaWg)" x="0" y="128" width="1024" height="768"/>
		</mask>
		<mask id="mask-HsmcRFnz">
			<path d="M1024,213.33v597.34c0,46.93 -38.4,85.33 -85.33,85.33h-640c-29.44,0 -52.48,-15.36 -67.84,-37.97l-230.83,-346.03l230.83,-346.45c15.36,-22.61 38.4,-37.55 67.84,-37.55h640c46.93,0 85.33,38.4 85.33,85.33zM657.49,512l153.18,-153.17l-60.16,-60.16l-153.18,153.17l-153.17,-153.17l-60.16,60.16l153.17,153.17l-153.17,153.17l60.16,60.16l153.17,-153.17l153.18,153.17l60.16,-60.16z" fill="url(#color-QbZGOKVQ)"/>
		</mask>
		<mask id="mask-iAA30irE">
			<path d="M1024,213.33v597.34c0,46.93 -38.4,85.33 -85.33,85.33h-640c-29.44,0 -52.48,-15.36 -67.84,-37.97l-230.83,-346.03l230.83,-346.45c15.36,-22.61 38.4,-37.55 67.84,-37.55h640c46.93,0 85.33,38.4 85.33,85.33zM657.49,512l153.18,-153.17l-60.16,-60.16l-153.18,153.17l-153.17,-153.17l-60.16,60.16l153.17,153.17l-153.17,153.17l60.16,60.16l153.17,-153.17l153.18,153.17l60.16,-60.16z" fill="#ffffff"/>
		</mask>
	</defs>
	<g fill="none" fill-rule="nonzero" style="mix-blend-mode: normal">
		<g mask="url(#mask-iAA30irE)">
			<g color="#ffc107" class="teamapps-color-2">
				<rect x="0" y="128" width="1024" height="768" fill="currentColor"/>
			</g>
			<g color="#e65100" class="teamapps-color-3" mask="url(#mask-1jMvg6OD)">
				<rect x="0" y="128" width="1024" height="768" fill="currentColor"/>
			</g>
		</g>
		<g filter="url(#filter-KxmhgOCW)" mask="url(#mask-HsmcRFnz)">
			<g color="#fff59d" class="teamapps-color-1">
				<rect x="0" y="128" width="1024" height="768" fill="currentColor"/>
			</g>
		</g>
		<g clip-path="url(#clip-Fz7QDkbZ)">
			<path d="M-93,939v-954h1210v954zM938.67,128h-640c-29.44,0 -52.48,14.94 -67.84,37.55l-230.83,346.45l230.83,346.03c15.36,22.61 38.4,37.97 67.84,37.97h640c46.93,0 85.33,-38.4 85.33,-85.33v-597.34c0,-46.93 -38.4,-85.33 -85.33,-85.33zM810.67,665.17l-60.16,60.16l-153.18,-153.17l-153.17,153.17l-60.16,-60.16l153.17,-153.17l-153.17,-153.17l60.16,-60.16l153.17,153.17l153.18,-153.17l60.16,60.16l-153.18,153.17z" fill="#000000" filter="url(#filter-8oh9hKSz)"/>
		</g>
	</g>
</svg>