<svg version="1.1" xmlns="http://www.w3.org/2000/svg" xmlns:xlink="http://www.w3.org/1999/xlink" viewBox="0,0,1024,1024">
	<!-- Color names: teamapps-color-1, teamapps-color-2, teamapps-color-3 -->
	<desc>battery_full icon - Licensed under Apache License v2.0 (http://www.apache.org/licenses/LICENSE-2.0) - Created with Iconfu.com - Derivative work of Material icons (Copyright Google Inc.)</desc>
	<defs>
		<clipPath id="clip-d12WE1Xf">
			<path d="M725.33,227.41v654.51c0,31.15 -25.6,56.75 -57.17,56.75h-312.75c-31.15,0 -56.74,-25.61 -56.74,-57.18v-654.08c0,-31.15 25.59,-56.74 56.74,-56.74h71.26v-85.34h170.66v85.34h71.26c31.15,0 56.74,25.59 56.74,56.74z"/>
		</clipPath>
		<radialGradient cx="0" cy="0" r="1448.15" id="color-0al43zT6" gradientUnits="userSpaceOnUse">
			<stop offset="0.07" stop-color="#ffffff"/>
			<stop offset="0.75" stop-color="#000000"/>
		</radialGradient>
		<linearGradient x1="0" y1="1024" x2="1024" y2="0" id="color-VN1315ma" gradientUnits="userSpaceOnUse">
			<stop offset="0.2" stop-color="#000000"/>
			<stop offset="0.8" stop-color="#ffffff"/>
		</linearGradient>
		<filter id="filter-1g4tUOg8" color-interpolation-filters="sRGB">
			<feOffset/>
		</filter>
		<filter id="filter-x6uzrZTz" x="0%" y="0%" width="100%" height="100%" color-interpolation-filters="sRGB">
			<feColorMatrix values="1 0 0 0 0 0 1 0 0 0 0 0 1 0 0 0 0 0 0.05 0" in="SourceGraphic"/>
			<feOffset dy="20"/>
			<feGaussianBlur stdDeviation="11" result="blur0"/>
			<feColorMatrix values="1 0 0 0 0 0 1 0 0 0 0 0 1 0 0 0 0 0 0.07 0" in="SourceGraphic"/>
			<feOffset dy="30"/>
			<feGaussianBlur stdDeviation="20" result="blur1"/>
			<feMerge>
				<feMergeNode in="blur0"/>
				<feMergeNode in="blur1"/>
			</feMerge>
		</filter>
		<mask id="mask-BRj8BzhQ">
			<path d="M725.33,227.41v654.51c0,31.15 -25.6,56.75 -57.17,56.75h-312.75c-31.15,0 -56.74,-25.61 -56.74,-57.18v-654.08c0,-31.15 25.59,-56.74 56.74,-56.74h71.26v-85.34h170.66v85.34h71.26c31.15,0 56.74,25.59 56.74,56.74z" fill="url(#color-0al43zT6)"/>
		</mask>
		<mask id="mask-DzbOZpHM">
			<rect fill="url(#color-VN1315ma)" x="298.67" y="85.33" width="426.66" height="853.34"/>
		</mask>
		<mask id="mask-Ka3dBQl8">
			<path d="M725.33,227.41v654.51c0,31.15 -25.6,56.75 -57.17,56.75h-312.75c-31.15,0 -56.74,-25.61 -56.74,-57.18v-654.08c0,-31.15 25.59,-56.74 56.74,-56.74h71.26v-85.34h170.66v85.34h71.26c31.15,0 56.74,25.59 56.74,56.74z" fill="#ffffff"/>
		</mask>
	</defs>
	<g fill="none" fill-rule="nonzero" style="mix-blend-mode: normal">
		<g mask="url(#mask-Ka3dBQl8)">
			<g color="#ffc107" class="teamapps-color-2">
				<rect x="298.67" y="85.33" width="426.66" height="853.34" fill="currentColor"/>
			</g>
			<g color="#e65100" class="teamapps-color-3" mask="url(#mask-DzbOZpHM)">
				<rect x="298.67" y="85.33" width="426.66" height="853.34" fill="currentColor"/>
			</g>
		</g>
		<g filter="url(#filter-1g4tUOg8)" mask="url(#mask-BRj8BzhQ)">
			<g color="#fff59d" class="teamapps-color-1">
				<rect x="298.67" y="85.33" width="426.66" height="853.34" fill="currentColor"/>
			</g>
		</g>
		<g clip-path="url(#clip-d12WE1Xf)">
			<path d="M205.67,981.67v-1039.34h612.66v1039.34zM668.59,170.67h-71.26v-85.34h-170.66v85.34h-71.26c-31.15,0 -56.74,25.59 -56.74,56.74v654.08c0,31.57 25.59,57.18 56.74,57.18h312.75c31.57,0 57.17,-25.6 57.17,-56.75v-654.51c0,-31.15 -25.59,-56.74 -56.74,-56.74z" fill="#000000" filter="url(#filter-x6uzrZTz)"/>
		</g>
	</g>
</svg>