<svg version="1.1" xmlns="http://www.w3.org/2000/svg" xmlns:xlink="http://www.w3.org/1999/xlink" viewBox="0,0,1024,1024">
	<!-- Color names: teamapps-color-1, teamapps-color-2, teamapps-color-3 -->
	<desc>border_all icon - Licensed under Apache License v2.0 (http://www.apache.org/licenses/LICENSE-2.0) - Created with Iconfu.com - Derivative work of Material icons (Copyright Google Inc.)</desc>
	<defs>
		<clipPath id="clip-85qJ8ZNh">
			<path d="M896,128v768h-768v-768zM469.33,554.67h-256v256h256zM469.33,213.33h-256v256h256zM810.67,554.67h-256v256h256zM810.67,213.33h-256v256h256z"/>
		</clipPath>
		<linearGradient x1="0" y1="1024" x2="1024" y2="0" id="color-byEePVSK" gradientUnits="userSpaceOnUse">
			<stop offset="0.2" stop-color="#000000"/>
			<stop offset="0.8" stop-color="#ffffff"/>
		</linearGradient>
		<radialGradient cx="0" cy="0" r="1448.15" id="color-YFcRTTs6" gradientUnits="userSpaceOnUse">
			<stop offset="0.07" stop-color="#ffffff"/>
			<stop offset="0.75" stop-color="#000000"/>
		</radialGradient>
		<filter id="filter-f88fIkTb" color-interpolation-filters="sRGB">
			<feOffset/>
		</filter>
		<filter id="filter-NPFuym61" x="0%" y="0%" width="100%" height="100%" color-interpolation-filters="sRGB">
			<feColorMatrix values="1 0 0 0 0 0 1 0 0 0 0 0 1 0 0 0 0 0 0.05 0" in="SourceGraphic"/>
			<feOffset dy="20"/>
			<feGaussianBlur stdDeviation="11" result="blur0"/>
			<feColorMatrix values="1 0 0 0 0 0 1 0 0 0 0 0 1 0 0 0 0 0 0.07 0" in="SourceGraphic"/>
			<feOffset dy="30"/>
			<feGaussianBlur stdDeviation="20" result="blur1"/>
			<feMerge>
				<feMergeNode in="blur0"/>
				<feMergeNode in="blur1"/>
			</feMerge>
		</filter>
		<mask id="mask-jyTHX6w5">
			<path d="M896,128v768h-768v-768zM469.33,554.67h-256v256h256zM469.33,213.33h-256v256h256zM810.67,554.67h-256v256h256zM810.67,213.33h-256v256h256z" fill="url(#color-YFcRTTs6)"/>
		</mask>
		<mask id="mask-leT0UENp">
			<path d="M896,128v768h-768v-768zM469.33,554.67h-256v256h256zM469.33,213.33h-256v256h256zM810.67,554.67h-256v256h256zM810.67,213.33h-256v256h256z" fill="#ffffff"/>
		</mask>
		<mask id="mask-UP8Ogxbc">
			<rect fill="url(#color-byEePVSK)" x="128" y="128" width="768" height="768"/>
		</mask>
	</defs>
	<g fill="none" fill-rule="nonzero" style="mix-blend-mode: normal">
		<g mask="url(#mask-leT0UENp)">
			<g color="#ffc107" class="teamapps-color-2">
				<rect x="128" y="128" width="768" height="768" fill="currentColor"/>
			</g>
			<g color="#e65100" class="teamapps-color-3" mask="url(#mask-UP8Ogxbc)">
				<rect x="128" y="128" width="768" height="768" fill="currentColor"/>
			</g>
		</g>
		<g filter="url(#filter-f88fIkTb)" mask="url(#mask-jyTHX6w5)">
			<g color="#fff59d" class="teamapps-color-1">
				<rect x="128" y="128" width="768" height="768" fill="currentColor"/>
			</g>
		</g>
		<g clip-path="url(#clip-85qJ8ZNh)">
			<path d="M35,939v-954h954v954zM128,128v768h768v-768zM469.33,810.67h-256v-256h256zM469.33,469.33h-256v-256h256zM810.67,810.67h-256v-256h256zM810.67,469.33h-256v-256h256z" fill="#000000" filter="url(#filter-NPFuym61)"/>
		</g>
	</g>
</svg>