<svg version="1.1" xmlns="http://www.w3.org/2000/svg" xmlns:xlink="http://www.w3.org/1999/xlink" viewBox="0,0,1024,1024">
	<!-- Color names: teamapps-color-1, teamapps-color-2, teamapps-color-3 -->
	<desc>card_membership icon - Licensed under Apache License v2.0 (http://www.apache.org/licenses/LICENSE-2.0) - Created with Iconfu.com - Derivative work of Material icons (Copyright Google Inc.)</desc>
	<defs>
		<clipPath id="clip-4eFV4m1z">
			<path d="M938.67,170.67v469.33c0,47.36 -37.98,85.33 -85.34,85.33h-170.66v213.34l-170.67,-85.34l-170.67,85.34v-213.34h-170.66c-47.36,0 -85.34,-37.97 -85.34,-85.33v-469.33c0,-47.36 37.98,-85.34 85.34,-85.34h682.66c47.36,0 85.34,37.98 85.34,85.34zM853.33,170.67h-682.66v256h682.66zM853.33,554.67h-682.66v85.33h682.66z"/>
		</clipPath>
		<linearGradient x1="0" y1="1024" x2="1024" y2="0" id="color-Dk8ZzSTF" gradientUnits="userSpaceOnUse">
			<stop offset="0.2" stop-color="#000000"/>
			<stop offset="0.8" stop-color="#ffffff"/>
		</linearGradient>
		<radialGradient cx="0" cy="0" r="1448.15" id="color-K2h0UL2N" gradientUnits="userSpaceOnUse">
			<stop offset="0.07" stop-color="#ffffff"/>
			<stop offset="0.75" stop-color="#000000"/>
		</radialGradient>
		<filter id="filter-eHUR8En7" color-interpolation-filters="sRGB">
			<feOffset/>
		</filter>
		<filter id="filter-XGipa58v" x="0%" y="0%" width="100%" height="100%" color-interpolation-filters="sRGB">
			<feColorMatrix values="1 0 0 0 0 0 1 0 0 0 0 0 1 0 0 0 0 0 0.05 0" in="SourceGraphic"/>
			<feOffset dy="20"/>
			<feGaussianBlur stdDeviation="11" result="blur0"/>
			<feColorMatrix values="1 0 0 0 0 0 1 0 0 0 0 0 1 0 0 0 0 0 0.07 0" in="SourceGraphic"/>
			<feOffset dy="30"/>
			<feGaussianBlur stdDeviation="20" result="blur1"/>
			<feMerge>
				<feMergeNode in="blur0"/>
				<feMergeNode in="blur1"/>
			</feMerge>
		</filter>
		<mask id="mask-1XokGiDa">
			<path d="M938.67,170.67v469.33c0,47.36 -37.98,85.33 -85.34,85.33h-170.66v213.34l-170.67,-85.34l-170.67,85.34v-213.34h-170.66c-47.36,0 -85.34,-37.97 -85.34,-85.33v-469.33c0,-47.36 37.98,-85.34 85.34,-85.34h682.66c47.36,0 85.34,37.98 85.34,85.34zM853.33,170.67h-682.66v256h682.66zM853.33,554.67h-682.66v85.33h682.66z" fill="url(#color-K2h0UL2N)"/>
		</mask>
		<mask id="mask-IdpwnpM5">
			<path d="M938.67,170.67v469.33c0,47.36 -37.98,85.33 -85.34,85.33h-170.66v213.34l-170.67,-85.34l-170.67,85.34v-213.34h-170.66c-47.36,0 -85.34,-37.97 -85.34,-85.33v-469.33c0,-47.36 37.98,-85.34 85.34,-85.34h682.66c47.36,0 85.34,37.98 85.34,85.34zM853.33,170.67h-682.66v256h682.66zM853.33,554.67h-682.66v85.33h682.66z" fill="#ffffff"/>
		</mask>
		<mask id="mask-T575dwwu">
			<rect fill="url(#color-Dk8ZzSTF)" x="85.33" y="85.33" width="853.34" height="853.34"/>
		</mask>
	</defs>
	<g fill="none" fill-rule="nonzero" style="mix-blend-mode: normal">
		<g mask="url(#mask-IdpwnpM5)">
			<g color="#ffc107" class="teamapps-color-2">
				<rect x="85.33" y="85.33" width="853.34" height="853.34" fill="currentColor"/>
			</g>
			<g color="#e65100" class="teamapps-color-3" mask="url(#mask-T575dwwu)">
				<rect x="85.33" y="85.33" width="853.34" height="853.34" fill="currentColor"/>
			</g>
		</g>
		<g filter="url(#filter-eHUR8En7)" mask="url(#mask-1XokGiDa)">
			<g color="#fff59d" class="teamapps-color-1">
				<rect x="85.33" y="85.33" width="853.34" height="853.34" fill="currentColor"/>
			</g>
		</g>
		<g clip-path="url(#clip-4eFV4m1z)">
			<path d="M-7.67,981.67v-1039.34h1039.34v1039.34zM853.33,85.33h-682.66c-47.36,0 -85.34,37.98 -85.34,85.34v469.33c0,47.36 37.98,85.33 85.34,85.33h170.66v213.34l170.67,-85.34l170.67,85.34v-213.34h170.66c47.36,0 85.34,-37.97 85.34,-85.33v-469.33c0,-47.36 -37.98,-85.34 -85.34,-85.34zM853.33,426.67h-682.66v-256h682.66zM853.33,640h-682.66v-85.33h682.66z" fill="#000000" filter="url(#filter-XGipa58v)"/>
		</g>
	</g>
</svg>