<svg version="1.1" xmlns="http://www.w3.org/2000/svg" xmlns:xlink="http://www.w3.org/1999/xlink" viewBox="0,0,1024,1024">
	<!-- Color names: teamapps-color-1, teamapps-color-2, teamapps-color-3 -->
	<desc>cloud_circle icon - Licensed under Apache License v2.0 (http://www.apache.org/licenses/LICENSE-2.0) - Created with Iconfu.com - Derivative work of Material icons (Copyright Google Inc.)</desc>
	<defs>
		<clipPath id="clip-9EkA0T1F">
			<path d="M938.67,512c0,235.52 -191.15,426.67 -426.67,426.67c-235.52,0 -426.67,-191.15 -426.67,-426.67c0,-235.52 191.15,-426.67 426.67,-426.67c235.52,0 426.67,191.15 426.67,426.67zM810.67,576c0,-58.88 -47.79,-106.67 -106.67,-106.67h-21.33c0,-94.29 -76.38,-170.66 -170.67,-170.66c-79.79,0 -145.92,54.61 -164.69,128.42l-5.98,-0.42c-70.83,0 -128,57.17 -128,128c0,70.83 57.17,128 128,128h362.67c58.88,0 106.67,-47.79 106.67,-106.67z"/>
		</clipPath>
		<linearGradient x1="0" y1="1024" x2="1024" y2="0" id="color-vQuyHOl3" gradientUnits="userSpaceOnUse">
			<stop offset="0.2" stop-color="#000000"/>
			<stop offset="0.8" stop-color="#ffffff"/>
		</linearGradient>
		<radialGradient cx="0" cy="0" r="1448.15" id="color-wAVbUkSR" gradientUnits="userSpaceOnUse">
			<stop offset="0.07" stop-color="#ffffff"/>
			<stop offset="0.75" stop-color="#000000"/>
		</radialGradient>
		<filter id="filter-S78AHZJb" color-interpolation-filters="sRGB">
			<feOffset/>
		</filter>
		<filter id="filter-taaAoAQ6" x="0%" y="0%" width="100%" height="100%" color-interpolation-filters="sRGB">
			<feColorMatrix values="1 0 0 0 0 0 1 0 0 0 0 0 1 0 0 0 0 0 0.05 0" in="SourceGraphic"/>
			<feOffset dy="20"/>
			<feGaussianBlur stdDeviation="11" result="blur0"/>
			<feColorMatrix values="1 0 0 0 0 0 1 0 0 0 0 0 1 0 0 0 0 0 0.07 0" in="SourceGraphic"/>
			<feOffset dy="30"/>
			<feGaussianBlur stdDeviation="20" result="blur1"/>
			<feMerge>
				<feMergeNode in="blur0"/>
				<feMergeNode in="blur1"/>
			</feMerge>
		</filter>
		<mask id="mask-3XW4MN0Q">
			<path d="M938.67,512c0,235.52 -191.15,426.67 -426.67,426.67c-235.52,0 -426.67,-191.15 -426.67,-426.67c0,-235.52 191.15,-426.67 426.67,-426.67c235.52,0 426.67,191.15 426.67,426.67zM810.67,576c0,-58.88 -47.79,-106.67 -106.67,-106.67h-21.33c0,-94.29 -76.38,-170.66 -170.67,-170.66c-79.79,0 -145.92,54.61 -164.69,128.42l-5.98,-0.42c-70.83,0 -128,57.17 -128,128c0,70.83 57.17,128 128,128h362.67c58.88,0 106.67,-47.79 106.67,-106.67z" fill="url(#color-wAVbUkSR)"/>
		</mask>
		<mask id="mask-MKdEMSUp">
			<rect fill="url(#color-vQuyHOl3)" x="85.33" y="85.33" width="853.34" height="853.34"/>
		</mask>
		<mask id="mask-U6HcAgL2">
			<path d="M938.67,512c0,235.52 -191.15,426.67 -426.67,426.67c-235.52,0 -426.67,-191.15 -426.67,-426.67c0,-235.52 191.15,-426.67 426.67,-426.67c235.52,0 426.67,191.15 426.67,426.67zM810.67,576c0,-58.88 -47.79,-106.67 -106.67,-106.67h-21.33c0,-94.29 -76.38,-170.66 -170.67,-170.66c-79.79,0 -145.92,54.61 -164.69,128.42l-5.98,-0.42c-70.83,0 -128,57.17 -128,128c0,70.83 57.17,128 128,128h362.67c58.88,0 106.67,-47.79 106.67,-106.67z" fill="#ffffff"/>
		</mask>
	</defs>
	<g fill="none" fill-rule="nonzero" style="mix-blend-mode: normal">
		<g mask="url(#mask-U6HcAgL2)">
			<g color="#ffc107" class="teamapps-color-2">
				<rect x="85.33" y="85.33" width="853.34" height="853.34" fill="currentColor"/>
			</g>
			<g color="#e65100" class="teamapps-color-3" mask="url(#mask-MKdEMSUp)">
				<rect x="85.33" y="85.33" width="853.34" height="853.34" fill="currentColor"/>
			</g>
		</g>
		<g filter="url(#filter-S78AHZJb)" mask="url(#mask-3XW4MN0Q)">
			<g color="#fff59d" class="teamapps-color-1">
				<rect x="85.33" y="85.33" width="853.34" height="853.34" fill="currentColor"/>
			</g>
		</g>
		<g clip-path="url(#clip-9EkA0T1F)">
			<path d="M-7.67,981.67v-1039.34h1039.34v1039.34zM512,85.33c-235.52,0 -426.67,191.15 -426.67,426.67c0,235.52 191.15,426.67 426.67,426.67c235.52,0 426.67,-191.15 426.67,-426.67c0,-235.52 -191.15,-426.67 -426.67,-426.67zM704,682.67h-362.67c-70.83,0 -128,-57.17 -128,-128c0,-70.83 57.17,-128 128,-128l5.98,0.42c18.77,-73.81 84.9,-128.42 164.69,-128.42c94.29,0 170.67,76.37 170.67,170.66h21.33c58.88,0 106.67,47.79 106.67,106.67c0,58.88 -47.79,106.67 -106.67,106.67z" fill="#000000" filter="url(#filter-taaAoAQ6)"/>
		</g>
	</g>
</svg>