<svg version="1.1" xmlns="http://www.w3.org/2000/svg" xmlns:xlink="http://www.w3.org/1999/xlink" viewBox="0,0,1024,1024">
	<!-- Color names: teamapps-color-1, teamapps-color-2, teamapps-color-3 -->
	<desc>device_hub icon - Licensed under Apache License v2.0 (http://www.apache.org/licenses/LICENSE-2.0) - Created with Iconfu.com - Derivative work of Material icons (Copyright Google Inc.)</desc>
	<defs>
		<clipPath id="clip-yUc17LHy">
			<path d="M896,682.67v213.33h-213.33v-130.13l-170.67,-179.2l-170.67,179.2v130.13h-213.33v-213.33h170.67l170.66,-170.67v-135.68c-49.49,-17.92 -85.33,-64.85 -85.33,-120.32c0,-70.83 57.17,-128 128,-128c70.83,0 128,57.17 128,128c0,55.47 -35.84,102.4 -85.33,120.32v135.68l170.66,170.67z"/>
		</clipPath>
		<linearGradient x1="0" y1="1024" x2="1024" y2="0" id="color-Ffzqjnwv" gradientUnits="userSpaceOnUse">
			<stop offset="0.2" stop-color="#000000"/>
			<stop offset="0.8" stop-color="#ffffff"/>
		</linearGradient>
		<radialGradient cx="0" cy="0" r="1448.15" id="color-JjMacZa7" gradientUnits="userSpaceOnUse">
			<stop offset="0.07" stop-color="#ffffff"/>
			<stop offset="0.75" stop-color="#000000"/>
		</radialGradient>
		<filter id="filter-NX0hWWKJ" color-interpolation-filters="sRGB">
			<feOffset/>
		</filter>
		<filter id="filter-Xi4ogwrq" x="0%" y="0%" width="100%" height="100%" color-interpolation-filters="sRGB">
			<feColorMatrix values="1 0 0 0 0 0 1 0 0 0 0 0 1 0 0 0 0 0 0.05 0" in="SourceGraphic"/>
			<feOffset dy="20"/>
			<feGaussianBlur stdDeviation="11" result="blur0"/>
			<feColorMatrix values="1 0 0 0 0 0 1 0 0 0 0 0 1 0 0 0 0 0 0.07 0" in="SourceGraphic"/>
			<feOffset dy="30"/>
			<feGaussianBlur stdDeviation="20" result="blur1"/>
			<feMerge>
				<feMergeNode in="blur0"/>
				<feMergeNode in="blur1"/>
			</feMerge>
		</filter>
		<mask id="mask-4hI6bCCL">
			<path d="M896,682.67v213.33h-213.33v-130.13l-170.67,-179.2l-170.67,179.2v130.13h-213.33v-213.33h170.67l170.66,-170.67v-135.68c-49.49,-17.92 -85.33,-64.85 -85.33,-120.32c0,-70.83 57.17,-128 128,-128c70.83,0 128,57.17 128,128c0,55.47 -35.84,102.4 -85.33,120.32v135.68l170.66,170.67z" fill="#ffffff"/>
		</mask>
		<mask id="mask-fTb8DVmq">
			<rect fill="url(#color-Ffzqjnwv)" x="128" y="128" width="768" height="768"/>
		</mask>
		<mask id="mask-zvFrAIIr">
			<path d="M896,682.67v213.33h-213.33v-130.13l-170.67,-179.2l-170.67,179.2v130.13h-213.33v-213.33h170.67l170.66,-170.67v-135.68c-49.49,-17.92 -85.33,-64.85 -85.33,-120.32c0,-70.83 57.17,-128 128,-128c70.83,0 128,57.17 128,128c0,55.47 -35.84,102.4 -85.33,120.32v135.68l170.66,170.67z" fill="url(#color-JjMacZa7)"/>
		</mask>
	</defs>
	<g fill="none" fill-rule="nonzero" style="mix-blend-mode: normal">
		<g mask="url(#mask-4hI6bCCL)">
			<g color="#ffc107" class="teamapps-color-2">
				<rect x="128" y="128" width="768" height="768" fill="currentColor"/>
			</g>
			<g color="#e65100" class="teamapps-color-3" mask="url(#mask-fTb8DVmq)">
				<rect x="128" y="128" width="768" height="768" fill="currentColor"/>
			</g>
		</g>
		<g filter="url(#filter-NX0hWWKJ)" mask="url(#mask-zvFrAIIr)">
			<g color="#fff59d" class="teamapps-color-1">
				<rect x="128" y="128" width="768" height="768" fill="currentColor"/>
			</g>
		</g>
		<g clip-path="url(#clip-yUc17LHy)">
			<path d="M35,939v-954h954v954zM725.33,682.67l-170.66,-170.67v-135.68c49.49,-17.92 85.33,-64.85 85.33,-120.32c0,-70.83 -57.17,-128 -128,-128c-70.83,0 -128,57.17 -128,128c0,55.47 35.84,102.4 85.33,120.32v135.68l-170.66,170.67h-170.67v213.33h213.33v-130.13l170.67,-179.2l170.67,179.2v130.13h213.33v-213.33z" fill="#000000" filter="url(#filter-Xi4ogwrq)"/>
		</g>
	</g>
</svg>