<svg version="1.1" xmlns="http://www.w3.org/2000/svg" xmlns:xlink="http://www.w3.org/1999/xlink" viewBox="0,0,1024,1024">
	<!-- Color names: teamapps-color-1, teamapps-color-2, teamapps-color-3 -->
	<desc>dialer_sip icon - Licensed under Apache License v2.0 (http://www.apache.org/licenses/LICENSE-2.0) - Created with Iconfu.com - Derivative work of Material icons (Copyright Google Inc.)</desc>
	<defs>
		<clipPath id="clip-QSNTqknw">
			<path d="M896,704v149.33c0,23.47 -19.2,42.67 -42.67,42.67c-400.64,0 -725.33,-324.69 -725.33,-725.33c0,-23.47 19.2,-42.67 42.67,-42.67h149.33c23.47,0 42.67,19.2 42.67,42.67c0,53.33 8.53,104.53 24.32,152.32c4.69,14.93 1.28,31.57 -10.24,42.66l-93.87,94.3c61.44,121.17 160.42,219.73 281.17,281.17l93.87,-93.87c11.52,-11.52 28.16,-14.93 43.09,-10.24c47.79,15.79 98.99,24.32 152.32,24.32c23.47,0 42.67,19.2 42.67,42.67zM640,341.33h-128v-42.66h85.33v-42.67h-85.33v-128h128v42.67h-85.33v42.66h85.33zM896,128v128h-85.33v85.33h-42.67v-213.33zM725.33,341.33h-42.66v-213.33h42.66zM853.33,170.67h-42.66v42.66h42.66z"/>
		</clipPath>
		<linearGradient x1="0" y1="1024" x2="1024" y2="0" id="color-PfAlXjqX" gradientUnits="userSpaceOnUse">
			<stop offset="0.2" stop-color="#000000"/>
			<stop offset="0.8" stop-color="#ffffff"/>
		</linearGradient>
		<radialGradient cx="0" cy="0" r="1448.15" id="color-WCT8ksco" gradientUnits="userSpaceOnUse">
			<stop offset="0.07" stop-color="#ffffff"/>
			<stop offset="0.75" stop-color="#000000"/>
		</radialGradient>
		<filter id="filter-3PUs41PE" x="0%" y="0%" width="100%" height="100%" color-interpolation-filters="sRGB">
			<feColorMatrix values="1 0 0 0 0 0 1 0 0 0 0 0 1 0 0 0 0 0 0.05 0" in="SourceGraphic"/>
			<feOffset dy="20"/>
			<feGaussianBlur stdDeviation="11" result="blur0"/>
			<feColorMatrix values="1 0 0 0 0 0 1 0 0 0 0 0 1 0 0 0 0 0 0.07 0" in="SourceGraphic"/>
			<feOffset dy="30"/>
			<feGaussianBlur stdDeviation="20" result="blur1"/>
			<feMerge>
				<feMergeNode in="blur0"/>
				<feMergeNode in="blur1"/>
			</feMerge>
		</filter>
		<filter id="filter-6g38AgXS" color-interpolation-filters="sRGB">
			<feOffset/>
		</filter>
		<mask id="mask-1ib51Ex0">
			<rect fill="url(#color-PfAlXjqX)" x="128" y="128" width="768" height="768"/>
		</mask>
		<mask id="mask-EyDpjNnA">
			<path d="M896,704v149.33c0,23.47 -19.2,42.67 -42.67,42.67c-400.64,0 -725.33,-324.69 -725.33,-725.33c0,-23.47 19.2,-42.67 42.67,-42.67h149.33c23.47,0 42.67,19.2 42.67,42.67c0,53.33 8.53,104.53 24.32,152.32c4.69,14.93 1.28,31.57 -10.24,42.66l-93.87,94.3c61.44,121.17 160.42,219.73 281.17,281.17l93.87,-93.87c11.52,-11.52 28.16,-14.93 43.09,-10.24c47.79,15.79 98.99,24.32 152.32,24.32c23.47,0 42.67,19.2 42.67,42.67zM640,341.33h-128v-42.66h85.33v-42.67h-85.33v-128h128v42.67h-85.33v42.66h85.33zM896,128v128h-85.33v85.33h-42.67v-213.33zM725.33,341.33h-42.66v-213.33h42.66zM853.33,170.67h-42.66v42.66h42.66z" fill="#ffffff"/>
		</mask>
		<mask id="mask-JQla0F0H">
			<path d="M896,704v149.33c0,23.47 -19.2,42.67 -42.67,42.67c-400.64,0 -725.33,-324.69 -725.33,-725.33c0,-23.47 19.2,-42.67 42.67,-42.67h149.33c23.47,0 42.67,19.2 42.67,42.67c0,53.33 8.53,104.53 24.32,152.32c4.69,14.93 1.28,31.57 -10.24,42.66l-93.87,94.3c61.44,121.17 160.42,219.73 281.17,281.17l93.87,-93.87c11.52,-11.52 28.16,-14.93 43.09,-10.24c47.79,15.79 98.99,24.32 152.32,24.32c23.47,0 42.67,19.2 42.67,42.67zM640,341.33h-128v-42.66h85.33v-42.67h-85.33v-128h128v42.67h-85.33v42.66h85.33zM896,128v128h-85.33v85.33h-42.67v-213.33zM725.33,341.33h-42.66v-213.33h42.66zM853.33,170.67h-42.66v42.66h42.66z" fill="url(#color-WCT8ksco)"/>
		</mask>
	</defs>
	<g fill="none" fill-rule="nonzero" style="mix-blend-mode: normal">
		<g mask="url(#mask-EyDpjNnA)">
			<g color="#ffc107" class="teamapps-color-2">
				<rect x="128" y="128" width="768" height="768" fill="currentColor"/>
			</g>
			<g color="#e65100" class="teamapps-color-3" mask="url(#mask-1ib51Ex0)">
				<rect x="128" y="128" width="768" height="768" fill="currentColor"/>
			</g>
		</g>
		<g filter="url(#filter-6g38AgXS)" mask="url(#mask-JQla0F0H)">
			<g color="#fff59d" class="teamapps-color-1">
				<rect x="128" y="128" width="768" height="768" fill="currentColor"/>
			</g>
		</g>
		<g clip-path="url(#clip-QSNTqknw)">
			<path d="M35,939v-954h954v954zM853.33,661.33c-53.33,0 -104.53,-8.53 -152.32,-24.32c-14.93,-4.69 -31.57,-1.28 -43.09,10.24l-93.87,93.87c-120.75,-61.44 -219.73,-160 -281.17,-281.17l93.87,-94.3c11.52,-11.09 14.93,-27.73 10.24,-42.66c-15.79,-47.79 -24.32,-98.99 -24.32,-152.32c0,-23.47 -19.2,-42.67 -42.67,-42.67h-149.33c-23.47,0 -42.67,19.2 -42.67,42.67c0,400.64 324.69,725.33 725.33,725.33c23.47,0 42.67,-19.2 42.67,-42.67v-149.33c0,-23.47 -19.2,-42.67 -42.67,-42.67zM640,213.33h-85.33v-42.66h85.33v-42.67h-128v128h85.33v42.67h-85.33v42.66h128zM768,128v213.33h42.67v-85.33h85.33v-128zM725.33,128h-42.66v213.33h42.66zM853.33,213.33h-42.66v-42.66h42.66z" fill="#000000" filter="url(#filter-3PUs41PE)"/>
		</g>
	</g>
</svg>