<svg version="1.1" xmlns="http://www.w3.org/2000/svg" xmlns:xlink="http://www.w3.org/1999/xlink" viewBox="0,0,1024,1024">
	<!-- Color names: teamapps-color-1, teamapps-color-2, teamapps-color-3 -->
	<desc>donut_large icon - Licensed under Apache License v2.0 (http://www.apache.org/licenses/LICENSE-2.0) - Created with Iconfu.com - Derivative work of Material icons (Copyright Google Inc.)</desc>
	<defs>
		<clipPath id="clip-KwhnQjBp">
			<path d="M213.33,512c0,150.19 128,274.77 256,295.25v131.42c-213.33,-21.33 -384,-205.23 -384,-426.67c0,-221.44 170.67,-405.34 384,-426.67v131.42c-128,20.48 -256,145.06 -256,295.25zM554.67,216.75v-131.42c213.33,20.05 363.95,170.67 384,384h-129.28c-18.35,-128 -126.72,-234.23 -254.72,-252.58zM809.39,554.67h129.28c-20.05,213.33 -170.67,363.95 -384,384v-131.42c128,-18.35 236.37,-124.58 254.72,-252.58z"/>
		</clipPath>
		<radialGradient cx="0" cy="0" r="1448.15" id="color-HCkaKEsF" gradientUnits="userSpaceOnUse">
			<stop offset="0.07" stop-color="#ffffff"/>
			<stop offset="0.75" stop-color="#000000"/>
		</radialGradient>
		<linearGradient x1="0" y1="1024" x2="1024" y2="0" id="color-RvT3cQZ9" gradientUnits="userSpaceOnUse">
			<stop offset="0.2" stop-color="#000000"/>
			<stop offset="0.8" stop-color="#ffffff"/>
		</linearGradient>
		<filter id="filter-4R6otpO7" color-interpolation-filters="sRGB">
			<feOffset/>
		</filter>
		<filter id="filter-JmUmjHdZ" x="0%" y="0%" width="100%" height="100%" color-interpolation-filters="sRGB">
			<feColorMatrix values="1 0 0 0 0 0 1 0 0 0 0 0 1 0 0 0 0 0 0.05 0" in="SourceGraphic"/>
			<feOffset dy="20"/>
			<feGaussianBlur stdDeviation="11" result="blur0"/>
			<feColorMatrix values="1 0 0 0 0 0 1 0 0 0 0 0 1 0 0 0 0 0 0.07 0" in="SourceGraphic"/>
			<feOffset dy="30"/>
			<feGaussianBlur stdDeviation="20" result="blur1"/>
			<feMerge>
				<feMergeNode in="blur0"/>
				<feMergeNode in="blur1"/>
			</feMerge>
		</filter>
		<mask id="mask-dU8u44cW">
			<rect fill="url(#color-RvT3cQZ9)" x="85.33" y="85.33" width="853.34" height="853.34"/>
		</mask>
		<mask id="mask-F3OZOiVx">
			<path d="M213.33,512c0,150.19 128,274.77 256,295.25v131.42c-213.33,-21.33 -384,-205.23 -384,-426.67c0,-221.44 170.67,-405.34 384,-426.67v131.42c-128,20.48 -256,145.06 -256,295.25zM554.67,216.75v-131.42c213.33,20.05 363.95,170.67 384,384h-129.28c-18.35,-128 -126.72,-234.23 -254.72,-252.58zM809.39,554.67h129.28c-20.05,213.33 -170.67,363.95 -384,384v-131.42c128,-18.35 236.37,-124.58 254.72,-252.58z" fill="url(#color-HCkaKEsF)"/>
		</mask>
		<mask id="mask-kGH9Sn8y">
			<path d="M213.33,512c0,150.19 128,274.77 256,295.25v131.42c-213.33,-21.33 -384,-205.23 -384,-426.67c0,-221.44 170.67,-405.34 384,-426.67v131.42c-128,20.48 -256,145.06 -256,295.25zM554.67,216.75v-131.42c213.33,20.05 363.95,170.67 384,384h-129.28c-18.35,-128 -126.72,-234.23 -254.72,-252.58zM809.39,554.67h129.28c-20.05,213.33 -170.67,363.95 -384,384v-131.42c128,-18.35 236.37,-124.58 254.72,-252.58z" fill="#ffffff"/>
		</mask>
	</defs>
	<g fill="none" fill-rule="nonzero" style="mix-blend-mode: normal">
		<g mask="url(#mask-kGH9Sn8y)">
			<g color="#ffc107" class="teamapps-color-2">
				<rect x="85.33" y="85.33" width="853.34" height="853.34" fill="currentColor"/>
			</g>
			<g color="#e65100" class="teamapps-color-3" mask="url(#mask-dU8u44cW)">
				<rect x="85.33" y="85.33" width="853.34" height="853.34" fill="currentColor"/>
			</g>
		</g>
		<g filter="url(#filter-4R6otpO7)" mask="url(#mask-F3OZOiVx)">
			<g color="#fff59d" class="teamapps-color-1">
				<rect x="85.33" y="85.33" width="853.34" height="853.34" fill="currentColor"/>
			</g>
		</g>
		<g clip-path="url(#clip-KwhnQjBp)">
			<path d="M-7.67,981.67v-1039.34h1039.34v1039.34zM469.33,216.75v-131.42c-213.33,21.33 -384,205.23 -384,426.67c0,221.44 170.67,405.34 384,426.67v-131.42c-128,-20.48 -256,-145.06 -256,-295.25c0,-150.19 128,-274.77 256,-295.25zM809.39,469.33h129.28c-20.05,-213.33 -170.67,-363.95 -384,-384v131.42c128,18.35 236.37,124.58 254.72,252.58zM554.67,807.25v131.42c213.33,-20.05 363.95,-170.67 384,-384h-129.28c-18.35,128 -126.72,234.23 -254.72,252.58z" fill="#000000" filter="url(#filter-JmUmjHdZ)"/>
		</g>
	</g>
</svg>