<svg version="1.1" xmlns="http://www.w3.org/2000/svg" xmlns:xlink="http://www.w3.org/1999/xlink" viewBox="0,0,1024,1024">
	<!-- Color names: teamapps-color-1, teamapps-color-2, teamapps-color-3 -->
	<desc>drive_eta icon - Licensed under Apache License v2.0 (http://www.apache.org/licenses/LICENSE-2.0) - Created with Iconfu.com - Derivative work of Material icons (Copyright Google Inc.)</desc>
	<defs>
		<clipPath id="clip-k04oIkMp">
			<path d="M896,469.33v341.34c0,23.47 -19.2,42.66 -42.67,42.66h-42.66c-23.47,0 -42.67,-19.19 -42.67,-42.66v-42.67h-512v42.67c0,23.47 -19.2,42.66 -42.67,42.66h-42.66c-23.47,0 -42.67,-19.19 -42.67,-42.66v-341.34l88.75,-255.57c8.96,-25.17 32.42,-43.09 60.58,-43.09h469.34c28.16,0 52.05,17.92 60.58,43.09zM810.67,426.67l-64,-192h-469.34l-64,192zM341.33,576c0,-35.41 -28.59,-64 -64,-64c-35.41,0 -64,28.59 -64,64c0,35.41 28.59,64 64,64c35.41,0 64,-28.59 64,-64zM810.67,576c0,-35.41 -28.59,-64 -64,-64c-35.41,0 -64,28.59 -64,64c0,35.41 28.59,64 64,64c35.41,0 64,-28.59 64,-64z"/>
		</clipPath>
		<linearGradient x1="0" y1="1024" x2="1024" y2="0" id="color-HUvi7YCD" gradientUnits="userSpaceOnUse">
			<stop offset="0.2" stop-color="#000000"/>
			<stop offset="0.8" stop-color="#ffffff"/>
		</linearGradient>
		<radialGradient cx="0" cy="0" r="1448.15" id="color-XSRpqGjf" gradientUnits="userSpaceOnUse">
			<stop offset="0.07" stop-color="#ffffff"/>
			<stop offset="0.75" stop-color="#000000"/>
		</radialGradient>
		<filter id="filter-DiQdgpgO" x="0%" y="0%" width="100%" height="100%" color-interpolation-filters="sRGB">
			<feColorMatrix values="1 0 0 0 0 0 1 0 0 0 0 0 1 0 0 0 0 0 0.05 0" in="SourceGraphic"/>
			<feOffset dy="20"/>
			<feGaussianBlur stdDeviation="11" result="blur0"/>
			<feColorMatrix values="1 0 0 0 0 0 1 0 0 0 0 0 1 0 0 0 0 0 0.07 0" in="SourceGraphic"/>
			<feOffset dy="30"/>
			<feGaussianBlur stdDeviation="20" result="blur1"/>
			<feMerge>
				<feMergeNode in="blur0"/>
				<feMergeNode in="blur1"/>
			</feMerge>
		</filter>
		<filter id="filter-GImv4X5l" color-interpolation-filters="sRGB">
			<feOffset/>
		</filter>
		<mask id="mask-Fwvd2Nd7">
			<rect fill="url(#color-HUvi7YCD)" x="128" y="170.67" width="768" height="682.66"/>
		</mask>
		<mask id="mask-rtQxQ4r2">
			<path d="M896,469.33v341.34c0,23.47 -19.2,42.66 -42.67,42.66h-42.66c-23.47,0 -42.67,-19.19 -42.67,-42.66v-42.67h-512v42.67c0,23.47 -19.2,42.66 -42.67,42.66h-42.66c-23.47,0 -42.67,-19.19 -42.67,-42.66v-341.34l88.75,-255.57c8.96,-25.17 32.42,-43.09 60.58,-43.09h469.34c28.16,0 52.05,17.92 60.58,43.09zM810.67,426.67l-64,-192h-469.34l-64,192zM341.33,576c0,-35.41 -28.59,-64 -64,-64c-35.41,0 -64,28.59 -64,64c0,35.41 28.59,64 64,64c35.41,0 64,-28.59 64,-64zM810.67,576c0,-35.41 -28.59,-64 -64,-64c-35.41,0 -64,28.59 -64,64c0,35.41 28.59,64 64,64c35.41,0 64,-28.59 64,-64z" fill="#ffffff"/>
		</mask>
		<mask id="mask-vaUTYbuY">
			<path d="M896,469.33v341.34c0,23.47 -19.2,42.66 -42.67,42.66h-42.66c-23.47,0 -42.67,-19.19 -42.67,-42.66v-42.67h-512v42.67c0,23.47 -19.2,42.66 -42.67,42.66h-42.66c-23.47,0 -42.67,-19.19 -42.67,-42.66v-341.34l88.75,-255.57c8.96,-25.17 32.42,-43.09 60.58,-43.09h469.34c28.16,0 52.05,17.92 60.58,43.09zM810.67,426.67l-64,-192h-469.34l-64,192zM341.33,576c0,-35.41 -28.59,-64 -64,-64c-35.41,0 -64,28.59 -64,64c0,35.41 28.59,64 64,64c35.41,0 64,-28.59 64,-64zM810.67,576c0,-35.41 -28.59,-64 -64,-64c-35.41,0 -64,28.59 -64,64c0,35.41 28.59,64 64,64c35.41,0 64,-28.59 64,-64z" fill="url(#color-XSRpqGjf)"/>
		</mask>
	</defs>
	<g fill="none" fill-rule="nonzero" style="mix-blend-mode: normal">
		<g mask="url(#mask-rtQxQ4r2)">
			<g color="#ffc107" class="teamapps-color-2">
				<rect x="128" y="170.67" width="768" height="682.66" fill="currentColor"/>
			</g>
			<g color="#e65100" class="teamapps-color-3" mask="url(#mask-Fwvd2Nd7)">
				<rect x="128" y="170.67" width="768" height="682.66" fill="currentColor"/>
			</g>
		</g>
		<g filter="url(#filter-GImv4X5l)" mask="url(#mask-vaUTYbuY)">
			<g color="#fff59d" class="teamapps-color-1">
				<rect x="128" y="170.67" width="768" height="682.66" fill="currentColor"/>
			</g>
		</g>
		<g clip-path="url(#clip-k04oIkMp)">
			<path d="M35,896.33v-868.66h954v868.66zM807.25,213.76c-8.53,-25.17 -32.42,-43.09 -60.58,-43.09h-469.34c-28.16,0 -51.62,17.92 -60.58,43.09l-88.75,255.57v341.34c0,23.47 19.2,42.66 42.67,42.66h42.66c23.47,0 42.67,-19.19 42.67,-42.66v-42.67h512v42.67c0,23.47 19.2,42.66 42.67,42.66h42.66c23.47,0 42.67,-19.19 42.67,-42.66v-341.34zM213.33,426.67l64,-192h469.34l64,192zM277.33,640c-35.41,0 -64,-28.59 -64,-64c0,-35.41 28.59,-64 64,-64c35.41,0 64,28.59 64,64c0,35.41 -28.59,64 -64,64zM746.67,640c-35.41,0 -64,-28.59 -64,-64c0,-35.41 28.59,-64 64,-64c35.41,0 64,28.59 64,64c0,35.41 -28.59,64 -64,64z" fill="#000000" filter="url(#filter-DiQdgpgO)"/>
		</g>
	</g>
</svg>