<svg version="1.1" xmlns="http://www.w3.org/2000/svg" xmlns:xlink="http://www.w3.org/1999/xlink" viewBox="0,0,1024,1024">
	<!-- Color names: teamapps-color-1, teamapps-color-2, teamapps-color-3 -->
	<desc>event_seat icon - Licensed under Apache License v2.0 (http://www.apache.org/licenses/LICENSE-2.0) - Created with Iconfu.com - Derivative work of Material icons (Copyright Google Inc.)</desc>
	<defs>
		<clipPath id="clip-YQe5gxLE">
			<path d="M725.33,554.67h-426.66v-341.34c0,-46.93 38.4,-85.33 85.33,-85.33h256c46.93,0 85.33,38.4 85.33,85.33zM170.67,640h682.66v256h-128v-128h-426.66v128h-128zM810.67,426.67h128v128h-128zM85.33,426.67h128v128h-128z"/>
		</clipPath>
		<linearGradient x1="0" y1="1024" x2="1024" y2="0" id="color-0re9bqmO" gradientUnits="userSpaceOnUse">
			<stop offset="0.2" stop-color="#000000"/>
			<stop offset="0.8" stop-color="#ffffff"/>
		</linearGradient>
		<radialGradient cx="0" cy="0" r="1448.15" id="color-CO1yd67Y" gradientUnits="userSpaceOnUse">
			<stop offset="0.07" stop-color="#ffffff"/>
			<stop offset="0.75" stop-color="#000000"/>
		</radialGradient>
		<filter id="filter-NtoNg2U7" x="0%" y="0%" width="100%" height="100%" color-interpolation-filters="sRGB">
			<feColorMatrix values="1 0 0 0 0 0 1 0 0 0 0 0 1 0 0 0 0 0 0.05 0" in="SourceGraphic"/>
			<feOffset dy="20"/>
			<feGaussianBlur stdDeviation="11" result="blur0"/>
			<feColorMatrix values="1 0 0 0 0 0 1 0 0 0 0 0 1 0 0 0 0 0 0.07 0" in="SourceGraphic"/>
			<feOffset dy="30"/>
			<feGaussianBlur stdDeviation="20" result="blur1"/>
			<feMerge>
				<feMergeNode in="blur0"/>
				<feMergeNode in="blur1"/>
			</feMerge>
		</filter>
		<filter id="filter-TMYCTDxp" color-interpolation-filters="sRGB">
			<feOffset/>
		</filter>
		<mask id="mask-0XVF88QT">
			<rect fill="url(#color-0re9bqmO)" x="85.33" y="128" width="853.34" height="768"/>
		</mask>
		<mask id="mask-9NSR1dKK">
			<path d="M725.33,554.67h-426.66v-341.34c0,-46.93 38.4,-85.33 85.33,-85.33h256c46.93,0 85.33,38.4 85.33,85.33zM170.67,640h682.66v256h-128v-128h-426.66v128h-128zM810.67,426.67h128v128h-128zM85.33,426.67h128v128h-128z" fill="#ffffff"/>
		</mask>
		<mask id="mask-n37oF5vy">
			<path d="M725.33,554.67h-426.66v-341.34c0,-46.93 38.4,-85.33 85.33,-85.33h256c46.93,0 85.33,38.4 85.33,85.33zM170.67,640h682.66v256h-128v-128h-426.66v128h-128zM810.67,426.67h128v128h-128zM85.33,426.67h128v128h-128z" fill="url(#color-CO1yd67Y)"/>
		</mask>
	</defs>
	<g fill="none" fill-rule="nonzero" style="mix-blend-mode: normal">
		<g mask="url(#mask-9NSR1dKK)">
			<g color="#ffc107" class="teamapps-color-2">
				<rect x="85.33" y="128" width="853.34" height="768" fill="currentColor"/>
			</g>
			<g color="#e65100" class="teamapps-color-3" mask="url(#mask-0XVF88QT)">
				<rect x="85.33" y="128" width="853.34" height="768" fill="currentColor"/>
			</g>
		</g>
		<g filter="url(#filter-TMYCTDxp)" mask="url(#mask-n37oF5vy)">
			<g color="#fff59d" class="teamapps-color-1">
				<rect x="85.33" y="128" width="853.34" height="768" fill="currentColor"/>
			</g>
		</g>
		<g clip-path="url(#clip-YQe5gxLE)">
			<path d="M-7.67,939v-954h1039.34v954zM725.33,213.33c0,-46.93 -38.4,-85.33 -85.33,-85.33h-256c-46.93,0 -85.33,38.4 -85.33,85.33v341.34h426.66zM170.67,896h128v-128h426.66v128h128v-256h-682.66zM810.67,554.67h128v-128h-128zM85.33,554.67h128v-128h-128z" fill="#000000" filter="url(#filter-NtoNg2U7)"/>
		</g>
	</g>
</svg>