<svg version="1.1" xmlns="http://www.w3.org/2000/svg" xmlns:xlink="http://www.w3.org/1999/xlink" viewBox="0,0,1024,1024">
	<!-- Color names: teamapps-color-1, teamapps-color-2, teamapps-color-3 -->
	<desc>favorite icon - Licensed under Apache License v2.0 (http://www.apache.org/licenses/LICENSE-2.0) - Created with Iconfu.com - Derivative work of Material icons (Copyright Google Inc.)</desc>
	<defs>
		<clipPath id="clip-fbjUZgol">
			<path d="M512,910.93l-61.87,-56.32c-219.73,-199.25 -364.8,-330.66 -364.8,-491.94c0,-131.41 103.26,-234.67 234.67,-234.67c74.24,0 145.49,34.56 192,89.17c46.51,-54.61 117.76,-89.17 192,-89.17c131.41,0 234.67,103.26 234.67,234.67c0,161.28 -145.07,292.69 -364.8,492.37z"/>
		</clipPath>
		<linearGradient x1="0" y1="1024" x2="1024" y2="0" id="color-efy7yiXs" gradientUnits="userSpaceOnUse">
			<stop offset="0.2" stop-color="#000000"/>
			<stop offset="0.8" stop-color="#ffffff"/>
		</linearGradient>
		<radialGradient cx="0" cy="0" r="1448.15" id="color-iV3yjVb1" gradientUnits="userSpaceOnUse">
			<stop offset="0.07" stop-color="#ffffff"/>
			<stop offset="0.75" stop-color="#000000"/>
		</radialGradient>
		<filter id="filter-SANt1RIH" color-interpolation-filters="sRGB">
			<feOffset/>
		</filter>
		<filter id="filter-wsAsY0Lc" x="0%" y="0%" width="100%" height="100%" color-interpolation-filters="sRGB">
			<feColorMatrix values="1 0 0 0 0 0 1 0 0 0 0 0 1 0 0 0 0 0 0.05 0" in="SourceGraphic"/>
			<feOffset dy="20"/>
			<feGaussianBlur stdDeviation="11" result="blur0"/>
			<feColorMatrix values="1 0 0 0 0 0 1 0 0 0 0 0 1 0 0 0 0 0 0.07 0" in="SourceGraphic"/>
			<feOffset dy="30"/>
			<feGaussianBlur stdDeviation="20" result="blur1"/>
			<feMerge>
				<feMergeNode in="blur0"/>
				<feMergeNode in="blur1"/>
			</feMerge>
		</filter>
		<mask id="mask-ciodhUul">
			<path d="M512,910.93l-61.87,-56.32c-219.73,-199.25 -364.8,-330.66 -364.8,-491.94c0,-131.41 103.26,-234.67 234.67,-234.67c74.24,0 145.49,34.56 192,89.17c46.51,-54.61 117.76,-89.17 192,-89.17c131.41,0 234.67,103.26 234.67,234.67c0,161.28 -145.07,292.69 -364.8,492.37z" fill="#ffffff"/>
		</mask>
		<mask id="mask-FlEhd07v">
			<rect fill="url(#color-efy7yiXs)" x="85.33" y="128" width="853.34" height="782.93"/>
		</mask>
		<mask id="mask-On3HHtjB">
			<path d="M512,910.93l-61.87,-56.32c-219.73,-199.25 -364.8,-330.66 -364.8,-491.94c0,-131.41 103.26,-234.67 234.67,-234.67c74.24,0 145.49,34.56 192,89.17c46.51,-54.61 117.76,-89.17 192,-89.17c131.41,0 234.67,103.26 234.67,234.67c0,161.28 -145.07,292.69 -364.8,492.37z" fill="url(#color-iV3yjVb1)"/>
		</mask>
	</defs>
	<g fill="none" fill-rule="nonzero" style="mix-blend-mode: normal">
		<g mask="url(#mask-ciodhUul)">
			<g color="#ffc107" class="teamapps-color-2">
				<rect x="85.33" y="128" width="853.34" height="782.93" fill="currentColor"/>
			</g>
			<g color="#e65100" class="teamapps-color-3" mask="url(#mask-FlEhd07v)">
				<rect x="85.33" y="128" width="853.34" height="782.93" fill="currentColor"/>
			</g>
		</g>
		<g filter="url(#filter-SANt1RIH)" mask="url(#mask-On3HHtjB)">
			<g color="#fff59d" class="teamapps-color-1">
				<rect x="85.33" y="128" width="853.34" height="782.93" fill="currentColor"/>
			</g>
		</g>
		<g clip-path="url(#clip-fbjUZgol)">
			<path d="M-7.67,953.93v-968.93h1039.34v968.93zM573.87,855.04c219.73,-199.68 364.8,-331.09 364.8,-492.37c0,-131.41 -103.26,-234.67 -234.67,-234.67c-74.24,0 -145.49,34.56 -192,89.17c-46.51,-54.61 -117.76,-89.17 -192,-89.17c-131.41,0 -234.67,103.26 -234.67,234.67c0,161.28 145.07,292.69 364.8,491.94l61.87,56.32z" fill="#000000" filter="url(#filter-wsAsY0Lc)"/>
		</g>
	</g>
</svg>