<svg version="1.1" xmlns="http://www.w3.org/2000/svg" xmlns:xlink="http://www.w3.org/1999/xlink" viewBox="0,0,1024,1024">
	<!-- Color names: teamapps-color-1, teamapps-color-2, teamapps-color-3 -->
	<desc>format_underlined icon - Licensed under Apache License v2.0 (http://www.apache.org/licenses/LICENSE-2.0) - Created with Iconfu.com - Derivative work of Material icons (Copyright Google Inc.)</desc>
	<defs>
		<clipPath id="clip-FfnHGkR4">
			<path d="M256,469.33v-341.33h106.67v341.33c0,82.35 66.98,149.34 149.33,149.34c82.35,0 149.33,-66.99 149.33,-149.34v-341.33h106.67v341.33c0,141.23 -114.77,256 -256,256c-141.23,0 -256,-114.77 -256,-256zM810.67,810.67v85.33h-597.34v-85.33z"/>
		</clipPath>
		<linearGradient x1="0" y1="1024" x2="1024" y2="0" id="color-1O5cFPy0" gradientUnits="userSpaceOnUse">
			<stop offset="0.2" stop-color="#000000"/>
			<stop offset="0.8" stop-color="#ffffff"/>
		</linearGradient>
		<radialGradient cx="0" cy="0" r="1448.15" id="color-PqPx3eLG" gradientUnits="userSpaceOnUse">
			<stop offset="0.07" stop-color="#ffffff"/>
			<stop offset="0.75" stop-color="#000000"/>
		</radialGradient>
		<filter id="filter-jNGsySTN" x="0%" y="0%" width="100%" height="100%" color-interpolation-filters="sRGB">
			<feColorMatrix values="1 0 0 0 0 0 1 0 0 0 0 0 1 0 0 0 0 0 0.05 0" in="SourceGraphic"/>
			<feOffset dy="20"/>
			<feGaussianBlur stdDeviation="11" result="blur0"/>
			<feColorMatrix values="1 0 0 0 0 0 1 0 0 0 0 0 1 0 0 0 0 0 0.07 0" in="SourceGraphic"/>
			<feOffset dy="30"/>
			<feGaussianBlur stdDeviation="20" result="blur1"/>
			<feMerge>
				<feMergeNode in="blur0"/>
				<feMergeNode in="blur1"/>
			</feMerge>
		</filter>
		<filter id="filter-TDDjyEuW" color-interpolation-filters="sRGB">
			<feOffset/>
		</filter>
		<mask id="mask-BlBvGsHq">
			<rect fill="url(#color-1O5cFPy0)" x="213.33" y="128" width="597.34" height="768"/>
		</mask>
		<mask id="mask-qoGZR1LH">
			<path d="M256,469.33v-341.33h106.67v341.33c0,82.35 66.98,149.34 149.33,149.34c82.35,0 149.33,-66.99 149.33,-149.34v-341.33h106.67v341.33c0,141.23 -114.77,256 -256,256c-141.23,0 -256,-114.77 -256,-256zM810.67,810.67v85.33h-597.34v-85.33z" fill="#ffffff"/>
		</mask>
		<mask id="mask-SZwuXn5e">
			<path d="M256,469.33v-341.33h106.67v341.33c0,82.35 66.98,149.34 149.33,149.34c82.35,0 149.33,-66.99 149.33,-149.34v-341.33h106.67v341.33c0,141.23 -114.77,256 -256,256c-141.23,0 -256,-114.77 -256,-256zM810.67,810.67v85.33h-597.34v-85.33z" fill="url(#color-PqPx3eLG)"/>
		</mask>
	</defs>
	<g fill="none" fill-rule="nonzero" style="mix-blend-mode: normal">
		<g mask="url(#mask-qoGZR1LH)">
			<g color="#ffc107" class="teamapps-color-2">
				<rect x="213.33" y="128" width="597.34" height="768" fill="currentColor"/>
			</g>
			<g color="#e65100" class="teamapps-color-3" mask="url(#mask-BlBvGsHq)">
				<rect x="213.33" y="128" width="597.34" height="768" fill="currentColor"/>
			</g>
		</g>
		<g filter="url(#filter-TDDjyEuW)" mask="url(#mask-SZwuXn5e)">
			<g color="#fff59d" class="teamapps-color-1">
				<rect x="213.33" y="128" width="597.34" height="768" fill="currentColor"/>
			</g>
		</g>
		<g clip-path="url(#clip-FfnHGkR4)">
			<path d="M120.33,939v-954h783.34v954zM512,725.33c141.23,0 256,-114.77 256,-256v-341.33h-106.67v341.33c0,82.35 -66.98,149.34 -149.33,149.34c-82.35,0 -149.33,-66.99 -149.33,-149.34v-341.33h-106.67v341.33c0,141.23 114.77,256 256,256zM213.33,810.67v85.33h597.34v-85.33z" fill="#000000" filter="url(#filter-jNGsySTN)"/>
		</g>
	</g>
</svg>