<svg version="1.1" xmlns="http://www.w3.org/2000/svg" xmlns:xlink="http://www.w3.org/1999/xlink" viewBox="0,0,1024,1024">
	<!-- Color names: teamapps-color-1, teamapps-color-2, teamapps-color-3 -->
	<desc>headset_mic icon - Licensed under Apache License v2.0 (http://www.apache.org/licenses/LICENSE-2.0) - Created with Iconfu.com - Derivative work of Material icons (Copyright Google Inc.)</desc>
	<defs>
		<clipPath id="clip-x1B2k9Mq">
			<path d="M896,426.67v426.66c0,70.83 -57.17,128 -128,128h-256v-85.33h298.67v-42.67h-170.67v-341.33h170.67v-85.33c0,-165.12 -133.55,-298.67 -298.67,-298.67c-165.12,0 -298.67,133.55 -298.67,298.67v85.33h170.67v341.33h-128c-70.83,0 -128,-57.17 -128,-128v-298.66c0,-212.05 171.95,-384 384,-384c212.05,0 384,171.95 384,384z"/>
		</clipPath>
		<radialGradient cx="0" cy="0" r="1448.15" id="color-pKK0ZNXT" gradientUnits="userSpaceOnUse">
			<stop offset="0.07" stop-color="#ffffff"/>
			<stop offset="0.75" stop-color="#000000"/>
		</radialGradient>
		<linearGradient x1="0" y1="1024" x2="1024" y2="0" id="color-U6kxxsGp" gradientUnits="userSpaceOnUse">
			<stop offset="0.2" stop-color="#000000"/>
			<stop offset="0.8" stop-color="#ffffff"/>
		</linearGradient>
		<filter id="filter-L2Zi0jf4" color-interpolation-filters="sRGB">
			<feOffset/>
		</filter>
		<filter id="filter-o5SZLJgy" x="0%" y="0%" width="100%" height="100%" color-interpolation-filters="sRGB">
			<feColorMatrix values="1 0 0 0 0 0 1 0 0 0 0 0 1 0 0 0 0 0 0.05 0" in="SourceGraphic"/>
			<feOffset dy="20"/>
			<feGaussianBlur stdDeviation="11" result="blur0"/>
			<feColorMatrix values="1 0 0 0 0 0 1 0 0 0 0 0 1 0 0 0 0 0 0.07 0" in="SourceGraphic"/>
			<feOffset dy="30"/>
			<feGaussianBlur stdDeviation="20" result="blur1"/>
			<feMerge>
				<feMergeNode in="blur0"/>
				<feMergeNode in="blur1"/>
			</feMerge>
		</filter>
		<mask id="mask-bQZhoHxj">
			<path d="M896,426.67v426.66c0,70.83 -57.17,128 -128,128h-256v-85.33h298.67v-42.67h-170.67v-341.33h170.67v-85.33c0,-165.12 -133.55,-298.67 -298.67,-298.67c-165.12,0 -298.67,133.55 -298.67,298.67v85.33h170.67v341.33h-128c-70.83,0 -128,-57.17 -128,-128v-298.66c0,-212.05 171.95,-384 384,-384c212.05,0 384,171.95 384,384z" fill="url(#color-pKK0ZNXT)"/>
		</mask>
		<mask id="mask-GzfQWw2H">
			<rect fill="url(#color-U6kxxsGp)" x="128" y="42.67" width="768" height="938.66"/>
		</mask>
		<mask id="mask-OBbq8nZE">
			<path d="M896,426.67v426.66c0,70.83 -57.17,128 -128,128h-256v-85.33h298.67v-42.67h-170.67v-341.33h170.67v-85.33c0,-165.12 -133.55,-298.67 -298.67,-298.67c-165.12,0 -298.67,133.55 -298.67,298.67v85.33h170.67v341.33h-128c-70.83,0 -128,-57.17 -128,-128v-298.66c0,-212.05 171.95,-384 384,-384c212.05,0 384,171.95 384,384z" fill="#ffffff"/>
		</mask>
	</defs>
	<g fill="none" fill-rule="nonzero" style="mix-blend-mode: normal">
		<g mask="url(#mask-OBbq8nZE)">
			<g color="#ffc107" class="teamapps-color-2">
				<rect x="128" y="42.67" width="768" height="938.66" fill="currentColor"/>
			</g>
			<g color="#e65100" class="teamapps-color-3" mask="url(#mask-GzfQWw2H)">
				<rect x="128" y="42.67" width="768" height="938.66" fill="currentColor"/>
			</g>
		</g>
		<g filter="url(#filter-L2Zi0jf4)" mask="url(#mask-bQZhoHxj)">
			<g color="#fff59d" class="teamapps-color-1">
				<rect x="128" y="42.67" width="768" height="938.66" fill="currentColor"/>
			</g>
		</g>
		<g clip-path="url(#clip-x1B2k9Mq)">
			<path d="M35,1024.33v-1124.66h954v1124.66zM512,42.67c-212.05,0 -384,171.95 -384,384v298.66c0,70.83 57.17,128 128,128h128v-341.33h-170.67v-85.33c0,-165.12 133.55,-298.67 298.67,-298.67c165.12,0 298.67,133.55 298.67,298.67v85.33h-170.67v341.33h170.67v42.67h-298.67v85.33h256c70.83,0 128,-57.17 128,-128v-426.66c0,-212.05 -171.95,-384 -384,-384z" fill="#000000" filter="url(#filter-o5SZLJgy)"/>
		</g>
	</g>
</svg>