<svg version="1.1" xmlns="http://www.w3.org/2000/svg" xmlns:xlink="http://www.w3.org/1999/xlink" viewBox="0,0,1024,1024">
	<!-- Color names: teamapps-color-1, teamapps-color-2, teamapps-color-3 -->
	<desc>inbox icon - Licensed under Apache License v2.0 (http://www.apache.org/licenses/LICENSE-2.0) - Created with Iconfu.com - Derivative work of Material icons (Copyright Google Inc.)</desc>
	<defs>
		<clipPath id="clip-9ei7sP5X">
			<path d="M896,213.33v597.34c0,46.93 -38.4,85.33 -85.33,85.33h-597.76c-47.36,0 -84.91,-38.4 -84.91,-85.33l0.43,-597.34c0,-47.36 37.12,-85.33 84.48,-85.33h597.76c46.93,0 85.33,37.97 85.33,85.33zM810.67,213.33h-597.76v426.67h171.09c0,70.83 57.6,128 128,128c70.4,0 128,-57.17 128,-128h170.67z"/>
		</clipPath>
		<radialGradient cx="0" cy="0" r="1448.15" id="color-jojRbLYF" gradientUnits="userSpaceOnUse">
			<stop offset="0.07" stop-color="#ffffff"/>
			<stop offset="0.75" stop-color="#000000"/>
		</radialGradient>
		<linearGradient x1="0" y1="1024" x2="1024" y2="0" id="color-JvXp7tq4" gradientUnits="userSpaceOnUse">
			<stop offset="0.2" stop-color="#000000"/>
			<stop offset="0.8" stop-color="#ffffff"/>
		</linearGradient>
		<filter id="filter-WBfejlNy" x="0%" y="0%" width="100%" height="100%" color-interpolation-filters="sRGB">
			<feColorMatrix values="1 0 0 0 0 0 1 0 0 0 0 0 1 0 0 0 0 0 0.05 0" in="SourceGraphic"/>
			<feOffset dy="20"/>
			<feGaussianBlur stdDeviation="11" result="blur0"/>
			<feColorMatrix values="1 0 0 0 0 0 1 0 0 0 0 0 1 0 0 0 0 0 0.07 0" in="SourceGraphic"/>
			<feOffset dy="30"/>
			<feGaussianBlur stdDeviation="20" result="blur1"/>
			<feMerge>
				<feMergeNode in="blur0"/>
				<feMergeNode in="blur1"/>
			</feMerge>
		</filter>
		<filter id="filter-wGdwTXvE" color-interpolation-filters="sRGB">
			<feOffset/>
		</filter>
		<mask id="mask-7CpTxQNz">
			<path d="M896,213.33v597.34c0,46.93 -38.4,85.33 -85.33,85.33h-597.76c-47.36,0 -84.91,-38.4 -84.91,-85.33l0.43,-597.34c0,-47.36 37.12,-85.33 84.48,-85.33h597.76c46.93,0 85.33,37.97 85.33,85.33zM810.67,213.33h-597.76v426.67h171.09c0,70.83 57.6,128 128,128c70.4,0 128,-57.17 128,-128h170.67z" fill="url(#color-jojRbLYF)"/>
		</mask>
		<mask id="mask-8FA1XJX0">
			<rect fill="url(#color-JvXp7tq4)" x="128" y="128" width="768" height="768"/>
		</mask>
		<mask id="mask-TjvV8vtV">
			<path d="M896,213.33v597.34c0,46.93 -38.4,85.33 -85.33,85.33h-597.76c-47.36,0 -84.91,-38.4 -84.91,-85.33l0.43,-597.34c0,-47.36 37.12,-85.33 84.48,-85.33h597.76c46.93,0 85.33,37.97 85.33,85.33zM810.67,213.33h-597.76v426.67h171.09c0,70.83 57.6,128 128,128c70.4,0 128,-57.17 128,-128h170.67z" fill="#ffffff"/>
		</mask>
	</defs>
	<g fill="none" fill-rule="nonzero" style="mix-blend-mode: normal">
		<g mask="url(#mask-TjvV8vtV)">
			<g color="#ffc107" class="teamapps-color-2">
				<rect x="128" y="128" width="768" height="768" fill="currentColor"/>
			</g>
			<g color="#e65100" class="teamapps-color-3" mask="url(#mask-8FA1XJX0)">
				<rect x="128" y="128" width="768" height="768" fill="currentColor"/>
			</g>
		</g>
		<g filter="url(#filter-wGdwTXvE)" mask="url(#mask-7CpTxQNz)">
			<g color="#fff59d" class="teamapps-color-1">
				<rect x="128" y="128" width="768" height="768" fill="currentColor"/>
			</g>
		</g>
		<g clip-path="url(#clip-9ei7sP5X)">
			<path d="M35,939v-954h954v954zM810.67,128h-597.76c-47.36,0 -84.48,37.97 -84.48,85.33l-0.43,597.34c0,46.93 37.55,85.33 84.91,85.33h597.76c46.93,0 85.33,-38.4 85.33,-85.33v-597.34c0,-47.36 -38.4,-85.33 -85.33,-85.33zM810.67,640h-170.67c0,70.83 -57.6,128 -128,128c-70.4,0 -128,-57.17 -128,-128h-171.09v-426.67h597.76z" fill="#000000" filter="url(#filter-WBfejlNy)"/>
		</g>
	</g>
</svg>