<svg version="1.1" xmlns="http://www.w3.org/2000/svg" xmlns:xlink="http://www.w3.org/1999/xlink" viewBox="0,0,1024,1024">
	<!-- Color names: teamapps-color-1, teamapps-color-2, teamapps-color-3 -->
	<desc>landscape icon - Licensed under Apache License v2.0 (http://www.apache.org/licenses/LICENSE-2.0) - Created with Iconfu.com - Derivative work of Material icons (Copyright Google Inc.)</desc>
	<defs>
		<clipPath id="clip-R7lUBt0n">
			<path d="M981.33,768h-938.66l256,-341.33c0,0 119.89,160 192,256l68.26,-51.2l-121.6,-162.14l160,-213.33z"/>
		</clipPath>
		<linearGradient x1="0" y1="1024" x2="1024" y2="0" id="color-DcjAyMpO" gradientUnits="userSpaceOnUse">
			<stop offset="0.2" stop-color="#000000"/>
			<stop offset="0.8" stop-color="#ffffff"/>
		</linearGradient>
		<radialGradient cx="0" cy="0" r="1448.15" id="color-oHK2FRW8" gradientUnits="userSpaceOnUse">
			<stop offset="0.07" stop-color="#ffffff"/>
			<stop offset="0.75" stop-color="#000000"/>
		</radialGradient>
		<filter id="filter-2XIzyChF" color-interpolation-filters="sRGB">
			<feOffset/>
		</filter>
		<filter id="filter-nv0ofndU" x="0%" y="0%" width="100%" height="100%" color-interpolation-filters="sRGB">
			<feColorMatrix values="1 0 0 0 0 0 1 0 0 0 0 0 1 0 0 0 0 0 0.05 0" in="SourceGraphic"/>
			<feOffset dy="20"/>
			<feGaussianBlur stdDeviation="11" result="blur0"/>
			<feColorMatrix values="1 0 0 0 0 0 1 0 0 0 0 0 1 0 0 0 0 0 0.07 0" in="SourceGraphic"/>
			<feOffset dy="30"/>
			<feGaussianBlur stdDeviation="20" result="blur1"/>
			<feMerge>
				<feMergeNode in="blur0"/>
				<feMergeNode in="blur1"/>
			</feMerge>
		</filter>
		<mask id="mask-AuSpY8uU">
			<rect fill="url(#color-DcjAyMpO)" x="42.67" y="256" width="938.66" height="512"/>
		</mask>
		<mask id="mask-H9fNFcc2">
			<path d="M981.33,768h-938.66l256,-341.33c0,0 119.89,160 192,256l68.26,-51.2l-121.6,-162.14l160,-213.33z" fill="url(#color-oHK2FRW8)"/>
		</mask>
		<mask id="mask-OpjqKLSe">
			<path d="M981.33,768h-938.66l256,-341.33c0,0 119.89,160 192,256l68.26,-51.2l-121.6,-162.14l160,-213.33z" fill="#ffffff"/>
		</mask>
	</defs>
	<g fill="none" fill-rule="nonzero" style="mix-blend-mode: normal">
		<g mask="url(#mask-OpjqKLSe)">
			<g color="#ffc107" class="teamapps-color-2">
				<rect x="42.67" y="256" width="938.66" height="512" fill="currentColor"/>
			</g>
			<g color="#e65100" class="teamapps-color-3" mask="url(#mask-AuSpY8uU)">
				<rect x="42.67" y="256" width="938.66" height="512" fill="currentColor"/>
			</g>
		</g>
		<g filter="url(#filter-2XIzyChF)" mask="url(#mask-H9fNFcc2)">
			<g color="#fff59d" class="teamapps-color-1">
				<rect x="42.67" y="256" width="938.66" height="512" fill="currentColor"/>
			</g>
		</g>
		<g clip-path="url(#clip-R7lUBt0n)">
			<path d="M-50.33,811v-698h1124.66v698zM597.33,256l-160,213.33l121.6,162.14l-68.26,51.2c-72.11,-96 -192,-256 -192,-256l-256,341.33h938.66z" fill="#000000" filter="url(#filter-nv0ofndU)"/>
		</g>
	</g>
</svg>