<svg version="1.1" xmlns="http://www.w3.org/2000/svg" xmlns:xlink="http://www.w3.org/1999/xlink" viewBox="0,0,1024,1024">
	<!-- Color names: teamapps-color-1, teamapps-color-2, teamapps-color-3 -->
	<desc>list icon - Licensed under Apache License v2.0 (http://www.apache.org/licenses/LICENSE-2.0) - Created with Iconfu.com - Derivative work of Material icons (Copyright Google Inc.)</desc>
	<defs>
		<clipPath id="clip-2PqPcn5r">
			<path d="M896,298.67v85.33h-597.33v-85.33zM298.67,469.33h597.33v85.34h-597.33zM298.67,640h597.33v85.33h-597.33zM128,298.67h85.33v85.33h-85.33zM128,469.33h85.33v85.34h-85.33zM128,640h85.33v85.33h-85.33z"/>
		</clipPath>
		<linearGradient x1="0" y1="1024" x2="1024" y2="0" id="color-enPkLbqU" gradientUnits="userSpaceOnUse">
			<stop offset="0.2" stop-color="#000000"/>
			<stop offset="0.8" stop-color="#ffffff"/>
		</linearGradient>
		<radialGradient cx="0" cy="0" r="1448.15" id="color-IkQuyPIh" gradientUnits="userSpaceOnUse">
			<stop offset="0.07" stop-color="#ffffff"/>
			<stop offset="0.75" stop-color="#000000"/>
		</radialGradient>
		<filter id="filter-7jhHHG0O" x="0%" y="0%" width="100%" height="100%" color-interpolation-filters="sRGB">
			<feColorMatrix values="1 0 0 0 0 0 1 0 0 0 0 0 1 0 0 0 0 0 0.05 0" in="SourceGraphic"/>
			<feOffset dy="20"/>
			<feGaussianBlur stdDeviation="11" result="blur0"/>
			<feColorMatrix values="1 0 0 0 0 0 1 0 0 0 0 0 1 0 0 0 0 0 0.07 0" in="SourceGraphic"/>
			<feOffset dy="30"/>
			<feGaussianBlur stdDeviation="20" result="blur1"/>
			<feMerge>
				<feMergeNode in="blur0"/>
				<feMergeNode in="blur1"/>
			</feMerge>
		</filter>
		<filter id="filter-TIWBiqbY" color-interpolation-filters="sRGB">
			<feOffset/>
		</filter>
		<mask id="mask-5E5iSSTF">
			<path d="M896,298.67v85.33h-597.33v-85.33zM298.67,469.33h597.33v85.34h-597.33zM298.67,640h597.33v85.33h-597.33zM128,298.67h85.33v85.33h-85.33zM128,469.33h85.33v85.34h-85.33zM128,640h85.33v85.33h-85.33z" fill="#ffffff"/>
		</mask>
		<mask id="mask-GlT5etY4">
			<path d="M896,298.67v85.33h-597.33v-85.33zM298.67,469.33h597.33v85.34h-597.33zM298.67,640h597.33v85.33h-597.33zM128,298.67h85.33v85.33h-85.33zM128,469.33h85.33v85.34h-85.33zM128,640h85.33v85.33h-85.33z" fill="url(#color-IkQuyPIh)"/>
		</mask>
		<mask id="mask-VZPVcKJh">
			<rect fill="url(#color-enPkLbqU)" x="128" y="298.67" width="768" height="426.66"/>
		</mask>
	</defs>
	<g fill="none" fill-rule="nonzero" style="mix-blend-mode: normal">
		<g mask="url(#mask-5E5iSSTF)">
			<g color="#ffc107" class="teamapps-color-2">
				<rect x="128" y="298.67" width="768" height="426.66" fill="currentColor"/>
			</g>
			<g color="#e65100" class="teamapps-color-3" mask="url(#mask-VZPVcKJh)">
				<rect x="128" y="298.67" width="768" height="426.66" fill="currentColor"/>
			</g>
		</g>
		<g filter="url(#filter-TIWBiqbY)" mask="url(#mask-GlT5etY4)">
			<g color="#fff59d" class="teamapps-color-1">
				<rect x="128" y="298.67" width="768" height="426.66" fill="currentColor"/>
			</g>
		</g>
		<g clip-path="url(#clip-2PqPcn5r)">
			<path d="M35,768.33v-612.66h954v612.66zM298.67,298.67v85.33h597.33v-85.33zM298.67,554.67h597.33v-85.34h-597.33zM298.67,725.33h597.33v-85.33h-597.33zM128,384h85.33v-85.33h-85.33zM128,554.67h85.33v-85.34h-85.33zM128,725.33h85.33v-85.33h-85.33z" fill="#000000" filter="url(#filter-7jhHHG0O)"/>
		</g>
	</g>
</svg>