<svg version="1.1" xmlns="http://www.w3.org/2000/svg" xmlns:xlink="http://www.w3.org/1999/xlink" viewBox="0,0,1024,1024">
	<!-- Color names: teamapps-color-1, teamapps-color-2, teamapps-color-3 -->
	<desc>local_hotel icon - Licensed under Apache License v2.0 (http://www.apache.org/licenses/LICENSE-2.0) - Created with Iconfu.com - Derivative work of Material icons (Copyright Google Inc.)</desc>
	<defs>
		<clipPath id="clip-HdOgQkT1">
			<path d="M981.33,469.33v384h-85.33v-128h-768v128h-85.33v-640h85.33v384h341.33v-298.66h341.34c94.29,0 170.66,76.37 170.66,170.66zM170.67,426.67c0,-70.83 57.17,-128 128,-128c70.83,0 128,57.17 128,128c0,70.83 -57.17,128 -128,128c-70.83,0 -128,-57.17 -128,-128z"/>
		</clipPath>
		<linearGradient x1="0" y1="1024" x2="1024" y2="0" id="color-YXz7ay5q" gradientUnits="userSpaceOnUse">
			<stop offset="0.2" stop-color="#000000"/>
			<stop offset="0.8" stop-color="#ffffff"/>
		</linearGradient>
		<radialGradient cx="0" cy="0" r="1448.15" id="color-ZANbk8Mp" gradientUnits="userSpaceOnUse">
			<stop offset="0.07" stop-color="#ffffff"/>
			<stop offset="0.75" stop-color="#000000"/>
		</radialGradient>
		<filter id="filter-1Z0jTHYA" color-interpolation-filters="sRGB">
			<feOffset/>
		</filter>
		<filter id="filter-WaUF8mOu" x="0%" y="0%" width="100%" height="100%" color-interpolation-filters="sRGB">
			<feColorMatrix values="1 0 0 0 0 0 1 0 0 0 0 0 1 0 0 0 0 0 0.05 0" in="SourceGraphic"/>
			<feOffset dy="20"/>
			<feGaussianBlur stdDeviation="11" result="blur0"/>
			<feColorMatrix values="1 0 0 0 0 0 1 0 0 0 0 0 1 0 0 0 0 0 0.07 0" in="SourceGraphic"/>
			<feOffset dy="30"/>
			<feGaussianBlur stdDeviation="20" result="blur1"/>
			<feMerge>
				<feMergeNode in="blur0"/>
				<feMergeNode in="blur1"/>
			</feMerge>
		</filter>
		<mask id="mask-e5pkmm3G">
			<path d="M981.33,469.33v384h-85.33v-128h-768v128h-85.33v-640h85.33v384h341.33v-298.66h341.34c94.29,0 170.66,76.37 170.66,170.66zM170.67,426.67c0,-70.83 57.17,-128 128,-128c70.83,0 128,57.17 128,128c0,70.83 -57.17,128 -128,128c-70.83,0 -128,-57.17 -128,-128z" fill="url(#color-ZANbk8Mp)"/>
		</mask>
		<mask id="mask-migp4uhc">
			<path d="M981.33,469.33v384h-85.33v-128h-768v128h-85.33v-640h85.33v384h341.33v-298.66h341.34c94.29,0 170.66,76.37 170.66,170.66zM170.67,426.67c0,-70.83 57.17,-128 128,-128c70.83,0 128,57.17 128,128c0,70.83 -57.17,128 -128,128c-70.83,0 -128,-57.17 -128,-128z" fill="#ffffff"/>
		</mask>
		<mask id="mask-p1MHkUWy">
			<rect fill="url(#color-YXz7ay5q)" x="42.67" y="213.33" width="938.66" height="640"/>
		</mask>
	</defs>
	<g fill="none" fill-rule="nonzero" style="mix-blend-mode: normal">
		<g mask="url(#mask-migp4uhc)">
			<g color="#ffc107" class="teamapps-color-2">
				<rect x="42.67" y="213.33" width="938.66" height="640" fill="currentColor"/>
			</g>
			<g color="#e65100" class="teamapps-color-3" mask="url(#mask-p1MHkUWy)">
				<rect x="42.67" y="213.33" width="938.66" height="640" fill="currentColor"/>
			</g>
		</g>
		<g filter="url(#filter-1Z0jTHYA)" mask="url(#mask-e5pkmm3G)">
			<g color="#fff59d" class="teamapps-color-1">
				<rect x="42.67" y="213.33" width="938.66" height="640" fill="currentColor"/>
			</g>
		</g>
		<g clip-path="url(#clip-HdOgQkT1)">
			<path d="M-50.33,896.33v-826h1124.66v826zM810.67,298.67h-341.34v298.66h-341.33v-384h-85.33v640h85.33v-128h768v128h85.33v-384c0,-94.29 -76.37,-170.66 -170.66,-170.66zM298.67,554.67c70.83,0 128,-57.17 128,-128c0,-70.83 -57.17,-128 -128,-128c-70.83,0 -128,57.17 -128,128c0,70.83 57.17,128 128,128z" fill="#000000" filter="url(#filter-WaUF8mOu)"/>
		</g>
	</g>
</svg>