<svg version="1.1" xmlns="http://www.w3.org/2000/svg" xmlns:xlink="http://www.w3.org/1999/xlink" viewBox="0,0,1024,1024">
	<!-- Color names: teamapps-color-1, teamapps-color-2, teamapps-color-3 -->
	<desc>local_movies icon - Licensed under Apache License v2.0 (http://www.apache.org/licenses/LICENSE-2.0) - Created with Iconfu.com - Derivative work of Material icons (Copyright Google Inc.)</desc>
	<defs>
		<clipPath id="clip-TdMW37VQ">
			<path d="M853.33,128v768h-85.33v-85.33h-85.33v85.33h-341.34v-85.33h-85.33v85.33h-85.33v-768h85.33v85.33h85.33v-85.33h341.34v85.33h85.33v-85.33zM768,298.67h-85.33v85.33h85.33zM341.33,298.67h-85.33v85.33h85.33zM768,469.33h-85.33v85.34h85.33zM341.33,469.33h-85.33v85.34h85.33zM768,640h-85.33v85.33h85.33zM341.33,640h-85.33v85.33h85.33z"/>
		</clipPath>
		<linearGradient x1="0" y1="1024" x2="1024" y2="0" id="color-1Ybg6cLM" gradientUnits="userSpaceOnUse">
			<stop offset="0.2" stop-color="#000000"/>
			<stop offset="0.8" stop-color="#ffffff"/>
		</linearGradient>
		<radialGradient cx="0" cy="0" r="1448.15" id="color-d9b6EJJL" gradientUnits="userSpaceOnUse">
			<stop offset="0.07" stop-color="#ffffff"/>
			<stop offset="0.75" stop-color="#000000"/>
		</radialGradient>
		<filter id="filter-KKia9G14" color-interpolation-filters="sRGB">
			<feOffset/>
		</filter>
		<filter id="filter-qQhigOxv" x="0%" y="0%" width="100%" height="100%" color-interpolation-filters="sRGB">
			<feColorMatrix values="1 0 0 0 0 0 1 0 0 0 0 0 1 0 0 0 0 0 0.05 0" in="SourceGraphic"/>
			<feOffset dy="20"/>
			<feGaussianBlur stdDeviation="11" result="blur0"/>
			<feColorMatrix values="1 0 0 0 0 0 1 0 0 0 0 0 1 0 0 0 0 0 0.07 0" in="SourceGraphic"/>
			<feOffset dy="30"/>
			<feGaussianBlur stdDeviation="20" result="blur1"/>
			<feMerge>
				<feMergeNode in="blur0"/>
				<feMergeNode in="blur1"/>
			</feMerge>
		</filter>
		<mask id="mask-DZMyCHVy">
			<path d="M853.33,128v768h-85.33v-85.33h-85.33v85.33h-341.34v-85.33h-85.33v85.33h-85.33v-768h85.33v85.33h85.33v-85.33h341.34v85.33h85.33v-85.33zM768,298.67h-85.33v85.33h85.33zM341.33,298.67h-85.33v85.33h85.33zM768,469.33h-85.33v85.34h85.33zM341.33,469.33h-85.33v85.34h85.33zM768,640h-85.33v85.33h85.33zM341.33,640h-85.33v85.33h85.33z" fill="url(#color-d9b6EJJL)"/>
		</mask>
		<mask id="mask-RT91repG">
			<rect fill="url(#color-1Ybg6cLM)" x="170.67" y="128" width="682.66" height="768"/>
		</mask>
		<mask id="mask-sZFlfDPw">
			<path d="M853.33,128v768h-85.33v-85.33h-85.33v85.33h-341.34v-85.33h-85.33v85.33h-85.33v-768h85.33v85.33h85.33v-85.33h341.34v85.33h85.33v-85.33zM768,298.67h-85.33v85.33h85.33zM341.33,298.67h-85.33v85.33h85.33zM768,469.33h-85.33v85.34h85.33zM341.33,469.33h-85.33v85.34h85.33zM768,640h-85.33v85.33h85.33zM341.33,640h-85.33v85.33h85.33z" fill="#ffffff"/>
		</mask>
	</defs>
	<g fill="none" fill-rule="nonzero" style="mix-blend-mode: normal">
		<g mask="url(#mask-sZFlfDPw)">
			<g color="#ffc107" class="teamapps-color-2">
				<rect x="170.67" y="128" width="682.66" height="768" fill="currentColor"/>
			</g>
			<g color="#e65100" class="teamapps-color-3" mask="url(#mask-RT91repG)">
				<rect x="170.67" y="128" width="682.66" height="768" fill="currentColor"/>
			</g>
		</g>
		<g filter="url(#filter-KKia9G14)" mask="url(#mask-DZMyCHVy)">
			<g color="#fff59d" class="teamapps-color-1">
				<rect x="170.67" y="128" width="682.66" height="768" fill="currentColor"/>
			</g>
		</g>
		<g clip-path="url(#clip-TdMW37VQ)">
			<path d="M77.67,939v-954h868.66v954zM768,128v85.33h-85.33v-85.33h-341.34v85.33h-85.33v-85.33h-85.33v768h85.33v-85.33h85.33v85.33h341.34v-85.33h85.33v85.33h85.33v-768zM768,384h-85.33v-85.33h85.33zM341.33,384h-85.33v-85.33h85.33zM768,554.67h-85.33v-85.34h85.33zM341.33,554.67h-85.33v-85.34h85.33zM768,725.33h-85.33v-85.33h85.33zM341.33,725.33h-85.33v-85.33h85.33z" fill="#000000" filter="url(#filter-qQhigOxv)"/>
		</g>
	</g>
</svg>