<svg version="1.1" xmlns="http://www.w3.org/2000/svg" xmlns:xlink="http://www.w3.org/1999/xlink" viewBox="0,0,1024,1024">
	<!-- Color names: teamapps-color-1, teamapps-color-2, teamapps-color-3 -->
	<desc>local_laundry_service icon - Licensed under Apache License v2.0 (http://www.apache.org/licenses/LICENSE-2.0) - Created with Iconfu.com - Derivative work of Material icons (Copyright Google Inc.)</desc>
	<defs>
		<clipPath id="clip-ke0O43uL">
			<path d="M853.33,170.67v682.66c0,47.36 -37.97,85.34 -85.33,85.34h-512c-47.36,0 -85.33,-37.98 -85.33,-85.34v-682.66c0,-47.36 37.97,-85.34 85.33,-85.34l512,0.43c47.36,0 85.33,37.55 85.33,84.91zM768,597.33c0,-141.23 -114.77,-256 -256,-256c-141.23,0 -256,114.77 -256,256c0,141.23 114.77,256 256,256c141.23,0 256,-114.77 256,-256zM632.75,476.59c66.56,66.56 66.56,174.93 0,241.49c-66.56,66.56 -174.94,66.56 -241.5,0zM384,213.33c0,23.47 19.2,42.67 42.67,42.67c23.47,0 42.66,-19.2 42.66,-42.67c0,-23.47 -19.19,-42.66 -42.66,-42.66c-23.47,0 -42.67,19.19 -42.67,42.66zM256,213.33c0,23.47 19.2,42.67 42.67,42.67c23.47,0 42.66,-19.2 42.66,-42.67c0,-23.47 -19.19,-42.66 -42.66,-42.66c-23.47,0 -42.67,19.19 -42.67,42.66z"/>
		</clipPath>
		<linearGradient x1="0" y1="1024" x2="1024" y2="0" id="color-58EsEuQQ" gradientUnits="userSpaceOnUse">
			<stop offset="0.2" stop-color="#000000"/>
			<stop offset="0.8" stop-color="#ffffff"/>
		</linearGradient>
		<radialGradient cx="0" cy="0" r="1448.15" id="color-fAvm8kn1" gradientUnits="userSpaceOnUse">
			<stop offset="0.07" stop-color="#ffffff"/>
			<stop offset="0.75" stop-color="#000000"/>
		</radialGradient>
		<filter id="filter-5aVSjWxq" x="0%" y="0%" width="100%" height="100%" color-interpolation-filters="sRGB">
			<feColorMatrix values="1 0 0 0 0 0 1 0 0 0 0 0 1 0 0 0 0 0 0.05 0" in="SourceGraphic"/>
			<feOffset dy="20"/>
			<feGaussianBlur stdDeviation="11" result="blur0"/>
			<feColorMatrix values="1 0 0 0 0 0 1 0 0 0 0 0 1 0 0 0 0 0 0.07 0" in="SourceGraphic"/>
			<feOffset dy="30"/>
			<feGaussianBlur stdDeviation="20" result="blur1"/>
			<feMerge>
				<feMergeNode in="blur0"/>
				<feMergeNode in="blur1"/>
			</feMerge>
		</filter>
		<filter id="filter-ozMuT7bC" color-interpolation-filters="sRGB">
			<feOffset/>
		</filter>
		<mask id="mask-2ApnyIGH">
			<path d="M853.33,170.67v682.66c0,47.36 -37.97,85.34 -85.33,85.34h-512c-47.36,0 -85.33,-37.98 -85.33,-85.34v-682.66c0,-47.36 37.97,-85.34 85.33,-85.34l512,0.43c47.36,0 85.33,37.55 85.33,84.91zM768,597.33c0,-141.23 -114.77,-256 -256,-256c-141.23,0 -256,114.77 -256,256c0,141.23 114.77,256 256,256c141.23,0 256,-114.77 256,-256zM632.75,476.59c66.56,66.56 66.56,174.93 0,241.49c-66.56,66.56 -174.94,66.56 -241.5,0zM384,213.33c0,23.47 19.2,42.67 42.67,42.67c23.47,0 42.66,-19.2 42.66,-42.67c0,-23.47 -19.19,-42.66 -42.66,-42.66c-23.47,0 -42.67,19.19 -42.67,42.66zM256,213.33c0,23.47 19.2,42.67 42.67,42.67c23.47,0 42.66,-19.2 42.66,-42.67c0,-23.47 -19.19,-42.66 -42.66,-42.66c-23.47,0 -42.67,19.19 -42.67,42.66z" fill="url(#color-fAvm8kn1)"/>
		</mask>
		<mask id="mask-4BoxmJ0R">
			<rect fill="url(#color-58EsEuQQ)" x="170.67" y="85.33" width="682.66" height="853.34"/>
		</mask>
		<mask id="mask-IxRyh2Hg">
			<path d="M853.33,170.67v682.66c0,47.36 -37.97,85.34 -85.33,85.34h-512c-47.36,0 -85.33,-37.98 -85.33,-85.34v-682.66c0,-47.36 37.97,-85.34 85.33,-85.34l512,0.43c47.36,0 85.33,37.55 85.33,84.91zM768,597.33c0,-141.23 -114.77,-256 -256,-256c-141.23,0 -256,114.77 -256,256c0,141.23 114.77,256 256,256c141.23,0 256,-114.77 256,-256zM632.75,476.59c66.56,66.56 66.56,174.93 0,241.49c-66.56,66.56 -174.94,66.56 -241.5,0zM384,213.33c0,23.47 19.2,42.67 42.67,42.67c23.47,0 42.66,-19.2 42.66,-42.67c0,-23.47 -19.19,-42.66 -42.66,-42.66c-23.47,0 -42.67,19.19 -42.67,42.66zM256,213.33c0,23.47 19.2,42.67 42.67,42.67c23.47,0 42.66,-19.2 42.66,-42.67c0,-23.47 -19.19,-42.66 -42.66,-42.66c-23.47,0 -42.67,19.19 -42.67,42.66z" fill="#ffffff"/>
		</mask>
	</defs>
	<g fill="none" fill-rule="nonzero" style="mix-blend-mode: normal">
		<g mask="url(#mask-IxRyh2Hg)">
			<g color="#ffc107" class="teamapps-color-2">
				<rect x="170.67" y="85.33" width="682.66" height="853.34" fill="currentColor"/>
			</g>
			<g color="#e65100" class="teamapps-color-3" mask="url(#mask-4BoxmJ0R)">
				<rect x="170.67" y="85.33" width="682.66" height="853.34" fill="currentColor"/>
			</g>
		</g>
		<g filter="url(#filter-ozMuT7bC)" mask="url(#mask-2ApnyIGH)">
			<g color="#fff59d" class="teamapps-color-1">
				<rect x="170.67" y="85.33" width="682.66" height="853.34" fill="currentColor"/>
			</g>
		</g>
		<g clip-path="url(#clip-ke0O43uL)">
			<path d="M77.67,981.67v-1039.34h868.66v1039.34zM768,85.76l-512,-0.43c-47.36,0 -85.33,37.98 -85.33,85.34v682.66c0,47.36 37.97,85.34 85.33,85.34h512c47.36,0 85.33,-37.98 85.33,-85.34v-682.66c0,-47.36 -37.97,-84.91 -85.33,-84.91zM512,853.33c-141.23,0 -256,-114.77 -256,-256c0,-141.23 114.77,-256 256,-256c141.23,0 256,114.77 256,256c0,141.23 -114.77,256 -256,256zM391.25,718.08c66.56,66.56 174.94,66.56 241.5,0c66.56,-66.56 66.56,-174.93 0,-241.49zM426.67,170.67c23.47,0 42.66,19.19 42.66,42.66c0,23.47 -19.19,42.67 -42.66,42.67c-23.47,0 -42.67,-19.2 -42.67,-42.67c0,-23.47 19.2,-42.66 42.67,-42.66zM298.67,170.67c23.47,0 42.66,19.19 42.66,42.66c0,23.47 -19.19,42.67 -42.66,42.67c-23.47,0 -42.67,-19.2 -42.67,-42.67c0,-23.47 19.2,-42.66 42.67,-42.66z" fill="#000000" filter="url(#filter-5aVSjWxq)"/>
		</g>
	</g>
</svg>