<svg version="1.1" xmlns="http://www.w3.org/2000/svg" xmlns:xlink="http://www.w3.org/1999/xlink" viewBox="0,0,1024,1024">
	<!-- Color names: teamapps-color-1, teamapps-color-2, teamapps-color-3 -->
	<desc>looks_one icon - Licensed under Apache License v2.0 (http://www.apache.org/licenses/LICENSE-2.0) - Created with Iconfu.com - Derivative work of Material icons (Copyright Google Inc.)</desc>
	<defs>
		<clipPath id="clip-H6wFil6W">
			<path d="M896,213.33v597.34c0,46.93 -38.4,85.33 -85.33,85.33h-597.34c-46.93,0 -85.33,-38.4 -85.33,-85.33v-597.34c0,-46.93 38.4,-85.33 85.33,-85.33h597.34c46.93,0 85.33,38.4 85.33,85.33zM597.33,298.67h-170.66v85.33h85.33v341.33h85.33z"/>
		</clipPath>
		<radialGradient cx="0" cy="0" r="1448.15" id="color-fLkiXszb" gradientUnits="userSpaceOnUse">
			<stop offset="0.07" stop-color="#ffffff"/>
			<stop offset="0.75" stop-color="#000000"/>
		</radialGradient>
		<linearGradient x1="0" y1="1024" x2="1024" y2="0" id="color-O3znjR05" gradientUnits="userSpaceOnUse">
			<stop offset="0.2" stop-color="#000000"/>
			<stop offset="0.8" stop-color="#ffffff"/>
		</linearGradient>
		<filter id="filter-d3d3p8ww" color-interpolation-filters="sRGB">
			<feOffset/>
		</filter>
		<filter id="filter-eOGyIGLT" x="0%" y="0%" width="100%" height="100%" color-interpolation-filters="sRGB">
			<feColorMatrix values="1 0 0 0 0 0 1 0 0 0 0 0 1 0 0 0 0 0 0.05 0" in="SourceGraphic"/>
			<feOffset dy="20"/>
			<feGaussianBlur stdDeviation="11" result="blur0"/>
			<feColorMatrix values="1 0 0 0 0 0 1 0 0 0 0 0 1 0 0 0 0 0 0.07 0" in="SourceGraphic"/>
			<feOffset dy="30"/>
			<feGaussianBlur stdDeviation="20" result="blur1"/>
			<feMerge>
				<feMergeNode in="blur0"/>
				<feMergeNode in="blur1"/>
			</feMerge>
		</filter>
		<mask id="mask-1JXy6Q5j">
			<path d="M896,213.33v597.34c0,46.93 -38.4,85.33 -85.33,85.33h-597.34c-46.93,0 -85.33,-38.4 -85.33,-85.33v-597.34c0,-46.93 38.4,-85.33 85.33,-85.33h597.34c46.93,0 85.33,38.4 85.33,85.33zM597.33,298.67h-170.66v85.33h85.33v341.33h85.33z" fill="#ffffff"/>
		</mask>
		<mask id="mask-6EBmi7Ww">
			<path d="M896,213.33v597.34c0,46.93 -38.4,85.33 -85.33,85.33h-597.34c-46.93,0 -85.33,-38.4 -85.33,-85.33v-597.34c0,-46.93 38.4,-85.33 85.33,-85.33h597.34c46.93,0 85.33,38.4 85.33,85.33zM597.33,298.67h-170.66v85.33h85.33v341.33h85.33z" fill="url(#color-fLkiXszb)"/>
		</mask>
		<mask id="mask-WcsvV9aK">
			<rect fill="url(#color-O3znjR05)" x="128" y="128" width="768" height="768"/>
		</mask>
	</defs>
	<g fill="none" fill-rule="nonzero" style="mix-blend-mode: normal">
		<g mask="url(#mask-1JXy6Q5j)">
			<g color="#ffc107" class="teamapps-color-2">
				<rect x="128" y="128" width="768" height="768" fill="currentColor"/>
			</g>
			<g color="#e65100" class="teamapps-color-3" mask="url(#mask-WcsvV9aK)">
				<rect x="128" y="128" width="768" height="768" fill="currentColor"/>
			</g>
		</g>
		<g filter="url(#filter-d3d3p8ww)" mask="url(#mask-6EBmi7Ww)">
			<g color="#fff59d" class="teamapps-color-1">
				<rect x="128" y="128" width="768" height="768" fill="currentColor"/>
			</g>
		</g>
		<g clip-path="url(#clip-H6wFil6W)">
			<path d="M35,939v-954h954v954zM810.67,128h-597.34c-46.93,0 -85.33,38.4 -85.33,85.33v597.34c0,46.93 38.4,85.33 85.33,85.33h597.34c46.93,0 85.33,-38.4 85.33,-85.33v-597.34c0,-46.93 -38.4,-85.33 -85.33,-85.33zM597.33,725.33h-85.33v-341.33h-85.33v-85.33h170.66z" fill="#000000" filter="url(#filter-eOGyIGLT)"/>
		</g>
	</g>
</svg>