<svg version="1.1" xmlns="http://www.w3.org/2000/svg" xmlns:xlink="http://www.w3.org/1999/xlink" viewBox="0,0,1024,1024">
	<!-- Color names: teamapps-color-1, teamapps-color-2, teamapps-color-3 -->
	<desc>movie icon - Licensed under Apache License v2.0 (http://www.apache.org/licenses/LICENSE-2.0) - Created with Iconfu.com - Derivative work of Material icons (Copyright Google Inc.)</desc>
	<defs>
		<clipPath id="clip-6ZYXXsTF">
			<path d="M938.67,170.67v597.33c0,46.93 -38.41,85.33 -85.34,85.33h-682.66c-46.93,0 -85.34,-38.4 -85.34,-85.33l0.43,-512c0,-46.93 37.98,-85.33 84.91,-85.33h42.66l85.34,170.66h128l-85.34,-170.66h85.34l85.33,170.66h128l-85.33,-170.66h85.33l85.33,170.66h128l-85.33,-170.66z"/>
		</clipPath>
		<radialGradient cx="0" cy="0" r="1448.15" id="color-46zxSb3J" gradientUnits="userSpaceOnUse">
			<stop offset="0.07" stop-color="#ffffff"/>
			<stop offset="0.75" stop-color="#000000"/>
		</radialGradient>
		<linearGradient x1="0" y1="1024" x2="1024" y2="0" id="color-QgojHpyf" gradientUnits="userSpaceOnUse">
			<stop offset="0.2" stop-color="#000000"/>
			<stop offset="0.8" stop-color="#ffffff"/>
		</linearGradient>
		<filter id="filter-DmrT8xXk" x="0%" y="0%" width="100%" height="100%" color-interpolation-filters="sRGB">
			<feColorMatrix values="1 0 0 0 0 0 1 0 0 0 0 0 1 0 0 0 0 0 0.05 0" in="SourceGraphic"/>
			<feOffset dy="20"/>
			<feGaussianBlur stdDeviation="11" result="blur0"/>
			<feColorMatrix values="1 0 0 0 0 0 1 0 0 0 0 0 1 0 0 0 0 0 0.07 0" in="SourceGraphic"/>
			<feOffset dy="30"/>
			<feGaussianBlur stdDeviation="20" result="blur1"/>
			<feMerge>
				<feMergeNode in="blur0"/>
				<feMergeNode in="blur1"/>
			</feMerge>
		</filter>
		<filter id="filter-VNsGzDhf" color-interpolation-filters="sRGB">
			<feOffset/>
		</filter>
		<mask id="mask-gLoQNLGO">
			<rect fill="url(#color-QgojHpyf)" x="85.33" y="170.67" width="853.34" height="682.66"/>
		</mask>
		<mask id="mask-RA4lkJF3">
			<path d="M938.67,170.67v597.33c0,46.93 -38.41,85.33 -85.34,85.33h-682.66c-46.93,0 -85.34,-38.4 -85.34,-85.33l0.43,-512c0,-46.93 37.98,-85.33 84.91,-85.33h42.66l85.34,170.66h128l-85.34,-170.66h85.34l85.33,170.66h128l-85.33,-170.66h85.33l85.33,170.66h128l-85.33,-170.66z" fill="#ffffff"/>
		</mask>
		<mask id="mask-VTXjweD0">
			<path d="M938.67,170.67v597.33c0,46.93 -38.41,85.33 -85.34,85.33h-682.66c-46.93,0 -85.34,-38.4 -85.34,-85.33l0.43,-512c0,-46.93 37.98,-85.33 84.91,-85.33h42.66l85.34,170.66h128l-85.34,-170.66h85.34l85.33,170.66h128l-85.33,-170.66h85.33l85.33,170.66h128l-85.33,-170.66z" fill="url(#color-46zxSb3J)"/>
		</mask>
	</defs>
	<g fill="none" fill-rule="nonzero" style="mix-blend-mode: normal">
		<g mask="url(#mask-RA4lkJF3)">
			<g color="#ffc107" class="teamapps-color-2">
				<rect x="85.33" y="170.67" width="853.34" height="682.66" fill="currentColor"/>
			</g>
			<g color="#e65100" class="teamapps-color-3" mask="url(#mask-gLoQNLGO)">
				<rect x="85.33" y="170.67" width="853.34" height="682.66" fill="currentColor"/>
			</g>
		</g>
		<g filter="url(#filter-VNsGzDhf)" mask="url(#mask-VTXjweD0)">
			<g color="#fff59d" class="teamapps-color-1">
				<rect x="85.33" y="170.67" width="853.34" height="682.66" fill="currentColor"/>
			</g>
		</g>
		<g clip-path="url(#clip-6ZYXXsTF)">
			<path d="M-7.67,896.33v-868.66h1039.34v868.66zM768,170.67l85.33,170.66h-128l-85.33,-170.66h-85.33l85.33,170.66h-128l-85.33,-170.66h-85.34l85.34,170.66h-128l-85.34,-170.66h-42.66c-46.93,0 -84.91,38.4 -84.91,85.33l-0.43,512c0,46.93 38.41,85.33 85.34,85.33h682.66c46.93,0 85.34,-38.4 85.34,-85.33v-597.33z" fill="#000000" filter="url(#filter-DmrT8xXk)"/>
		</g>
	</g>
</svg>