<svg version="1.1" xmlns="http://www.w3.org/2000/svg" xmlns:xlink="http://www.w3.org/1999/xlink" viewBox="0,0,1024,1024">
	<!-- Color names: teamapps-color-1, teamapps-color-2, teamapps-color-3 -->
	<desc>music_video icon - Licensed under Apache License v2.0 (http://www.apache.org/licenses/LICENSE-2.0) - Created with Iconfu.com - Derivative work of Material icons (Copyright Google Inc.)</desc>
	<defs>
		<clipPath id="clip-WVcBfp8u">
			<path d="M981.33,213.33v597.34c0,46.93 -38.4,85.33 -85.33,85.33h-768c-46.93,0 -85.33,-38.4 -85.33,-85.33v-597.34c0,-46.93 38.4,-85.33 85.33,-85.33h768c46.93,0 85.33,38.4 85.33,85.33zM896,213.33h-768v597.34h768zM341.33,640c0,-70.83 57.17,-128 128,-128c14.93,0 29.44,2.99 42.67,7.68v-263.68h213.33v85.33h-128v299.95c-0.85,69.97 -57.6,126.72 -128,126.72c-70.83,0 -128,-57.17 -128,-128z"/>
		</clipPath>
		<linearGradient x1="0" y1="1024" x2="1024" y2="0" id="color-4JObZoMG" gradientUnits="userSpaceOnUse">
			<stop offset="0.2" stop-color="#000000"/>
			<stop offset="0.8" stop-color="#ffffff"/>
		</linearGradient>
		<radialGradient cx="0" cy="0" r="1448.15" id="color-wZWVxkL7" gradientUnits="userSpaceOnUse">
			<stop offset="0.07" stop-color="#ffffff"/>
			<stop offset="0.75" stop-color="#000000"/>
		</radialGradient>
		<filter id="filter-7xss2DMK" x="0%" y="0%" width="100%" height="100%" color-interpolation-filters="sRGB">
			<feColorMatrix values="1 0 0 0 0 0 1 0 0 0 0 0 1 0 0 0 0 0 0.05 0" in="SourceGraphic"/>
			<feOffset dy="20"/>
			<feGaussianBlur stdDeviation="11" result="blur0"/>
			<feColorMatrix values="1 0 0 0 0 0 1 0 0 0 0 0 1 0 0 0 0 0 0.07 0" in="SourceGraphic"/>
			<feOffset dy="30"/>
			<feGaussianBlur stdDeviation="20" result="blur1"/>
			<feMerge>
				<feMergeNode in="blur0"/>
				<feMergeNode in="blur1"/>
			</feMerge>
		</filter>
		<filter id="filter-GeGaaydZ" color-interpolation-filters="sRGB">
			<feOffset/>
		</filter>
		<mask id="mask-c2nhdtd5">
			<path d="M981.33,213.33v597.34c0,46.93 -38.4,85.33 -85.33,85.33h-768c-46.93,0 -85.33,-38.4 -85.33,-85.33v-597.34c0,-46.93 38.4,-85.33 85.33,-85.33h768c46.93,0 85.33,38.4 85.33,85.33zM896,213.33h-768v597.34h768zM341.33,640c0,-70.83 57.17,-128 128,-128c14.93,0 29.44,2.99 42.67,7.68v-263.68h213.33v85.33h-128v299.95c-0.85,69.97 -57.6,126.72 -128,126.72c-70.83,0 -128,-57.17 -128,-128z" fill="#ffffff"/>
		</mask>
		<mask id="mask-giEqQmZt">
			<rect fill="url(#color-4JObZoMG)" x="42.67" y="128" width="938.66" height="768"/>
		</mask>
		<mask id="mask-mKRXf6On">
			<path d="M981.33,213.33v597.34c0,46.93 -38.4,85.33 -85.33,85.33h-768c-46.93,0 -85.33,-38.4 -85.33,-85.33v-597.34c0,-46.93 38.4,-85.33 85.33,-85.33h768c46.93,0 85.33,38.4 85.33,85.33zM896,213.33h-768v597.34h768zM341.33,640c0,-70.83 57.17,-128 128,-128c14.93,0 29.44,2.99 42.67,7.68v-263.68h213.33v85.33h-128v299.95c-0.85,69.97 -57.6,126.72 -128,126.72c-70.83,0 -128,-57.17 -128,-128z" fill="url(#color-wZWVxkL7)"/>
		</mask>
	</defs>
	<g fill="none" fill-rule="nonzero" style="mix-blend-mode: normal">
		<g mask="url(#mask-c2nhdtd5)">
			<g color="#ffc107" class="teamapps-color-2">
				<rect x="42.67" y="128" width="938.66" height="768" fill="currentColor"/>
			</g>
			<g color="#e65100" class="teamapps-color-3" mask="url(#mask-giEqQmZt)">
				<rect x="42.67" y="128" width="938.66" height="768" fill="currentColor"/>
			</g>
		</g>
		<g filter="url(#filter-GeGaaydZ)" mask="url(#mask-mKRXf6On)">
			<g color="#fff59d" class="teamapps-color-1">
				<rect x="42.67" y="128" width="938.66" height="768" fill="currentColor"/>
			</g>
		</g>
		<g clip-path="url(#clip-WVcBfp8u)">
			<path d="M-50.33,939v-954h1124.66v954zM896,128h-768c-46.93,0 -85.33,38.4 -85.33,85.33v597.34c0,46.93 38.4,85.33 85.33,85.33h768c46.93,0 85.33,-38.4 85.33,-85.33v-597.34c0,-46.93 -38.4,-85.33 -85.33,-85.33zM896,810.67h-768v-597.34h768zM469.33,768c70.4,0 127.15,-56.75 128,-126.72v-299.95h128v-85.33h-213.33v263.68c-13.23,-4.69 -27.74,-7.68 -42.67,-7.68c-70.83,0 -128,57.17 -128,128c0,70.83 57.17,128 128,128z" fill="#000000" filter="url(#filter-7xss2DMK)"/>
		</g>
	</g>
</svg>