<svg version="1.1" xmlns="http://www.w3.org/2000/svg" xmlns:xlink="http://www.w3.org/1999/xlink" viewBox="0,0,1024,1024">
	<!-- Color names: teamapps-color-1, teamapps-color-2, teamapps-color-3 -->
	<desc>note icon - Licensed under Apache License v2.0 (http://www.apache.org/licenses/LICENSE-2.0) - Created with Iconfu.com - Derivative work of Material icons (Copyright Google Inc.)</desc>
	<defs>
		<clipPath id="clip-LqKHx91f">
			<path d="M938.67,768c0,46.93 -38.41,84.91 -85.34,84.91l-682.66,0.42c-46.93,0 -85.34,-37.97 -85.34,-84.9v-512.43c0,-46.93 38.41,-85.33 85.34,-85.33h512l256,256zM640,469.33h234.67l-234.67,-234.66z"/>
		</clipPath>
		<linearGradient x1="0" y1="1024" x2="1024" y2="0" id="color-l74rlfy4" gradientUnits="userSpaceOnUse">
			<stop offset="0.2" stop-color="#000000"/>
			<stop offset="0.8" stop-color="#ffffff"/>
		</linearGradient>
		<radialGradient cx="0" cy="0" r="1448.15" id="color-N2HxEU3P" gradientUnits="userSpaceOnUse">
			<stop offset="0.07" stop-color="#ffffff"/>
			<stop offset="0.75" stop-color="#000000"/>
		</radialGradient>
		<filter id="filter-fNwDptrS" color-interpolation-filters="sRGB">
			<feOffset/>
		</filter>
		<filter id="filter-MTC0VyoT" x="0%" y="0%" width="100%" height="100%" color-interpolation-filters="sRGB">
			<feColorMatrix values="1 0 0 0 0 0 1 0 0 0 0 0 1 0 0 0 0 0 0.05 0" in="SourceGraphic"/>
			<feOffset dy="20"/>
			<feGaussianBlur stdDeviation="11" result="blur0"/>
			<feColorMatrix values="1 0 0 0 0 0 1 0 0 0 0 0 1 0 0 0 0 0 0.07 0" in="SourceGraphic"/>
			<feOffset dy="30"/>
			<feGaussianBlur stdDeviation="20" result="blur1"/>
			<feMerge>
				<feMergeNode in="blur0"/>
				<feMergeNode in="blur1"/>
			</feMerge>
		</filter>
		<mask id="mask-DIOkXvx6">
			<rect fill="url(#color-l74rlfy4)" x="85.33" y="170.67" width="853.34" height="682.66"/>
		</mask>
		<mask id="mask-NQaHWlLq">
			<path d="M938.67,768c0,46.93 -38.41,84.91 -85.34,84.91l-682.66,0.42c-46.93,0 -85.34,-37.97 -85.34,-84.9v-512.43c0,-46.93 38.41,-85.33 85.34,-85.33h512l256,256zM640,469.33h234.67l-234.67,-234.66z" fill="#ffffff"/>
		</mask>
		<mask id="mask-XEZFmWOp">
			<path d="M938.67,768c0,46.93 -38.41,84.91 -85.34,84.91l-682.66,0.42c-46.93,0 -85.34,-37.97 -85.34,-84.9v-512.43c0,-46.93 38.41,-85.33 85.34,-85.33h512l256,256zM640,469.33h234.67l-234.67,-234.66z" fill="url(#color-N2HxEU3P)"/>
		</mask>
	</defs>
	<g fill="none" fill-rule="nonzero" style="mix-blend-mode: normal">
		<g mask="url(#mask-NQaHWlLq)">
			<g color="#ffc107" class="teamapps-color-2">
				<rect x="85.33" y="170.67" width="853.34" height="682.66" fill="currentColor"/>
			</g>
			<g color="#e65100" class="teamapps-color-3" mask="url(#mask-DIOkXvx6)">
				<rect x="85.33" y="170.67" width="853.34" height="682.66" fill="currentColor"/>
			</g>
		</g>
		<g filter="url(#filter-fNwDptrS)" mask="url(#mask-XEZFmWOp)">
			<g color="#fff59d" class="teamapps-color-1">
				<rect x="85.33" y="170.67" width="853.34" height="682.66" fill="currentColor"/>
			</g>
		</g>
		<g clip-path="url(#clip-LqKHx91f)">
			<path d="M-7.67,896.33v-868.66h1039.34v868.66zM938.67,426.67l-256,-256h-512c-46.93,0 -85.34,38.4 -85.34,85.33v512.43c0,46.93 38.41,84.9 85.34,84.9l682.66,-0.42c46.93,0 85.34,-37.98 85.34,-84.91zM640,234.67l234.67,234.66h-234.67z" fill="#000000" filter="url(#filter-MTC0VyoT)"/>
		</g>
	</g>
</svg>