<svg version="1.1" xmlns="http://www.w3.org/2000/svg" xmlns:xlink="http://www.w3.org/1999/xlink" viewBox="0,0,1024,1024">
	<!-- Color names: teamapps-color-1, teamapps-color-2, teamapps-color-3 -->
	<desc>opacity icon - Licensed under Apache License v2.0 (http://www.apache.org/licenses/LICENSE-2.0) - Created with Iconfu.com - Derivative work of Material icons (Copyright Google Inc.)</desc>
	<defs>
		<clipPath id="clip-atsoSp4x">
			<path d="M853.33,581.97c0,85.33 -33.28,175.36 -99.84,241.92c-66.56,66.56 -154.02,100.27 -241.49,100.27c-87.47,0 -174.93,-33.71 -241.49,-100.27c-66.56,-66.56 -99.84,-156.59 -99.84,-241.92c0,-85.33 33.28,-174.08 99.84,-240.64l241.49,-241.06l241.49,241.06c66.56,66.56 99.84,155.31 99.84,240.64zM768,597.33c-0.43,-85.33 -26.45,-137.81 -75.09,-185.6l-180.91,-186.88l-180.91,184.75c-48.64,48.21 -74.66,102.4 -75.09,187.73z"/>
		</clipPath>
		<radialGradient cx="0" cy="0" r="1448.15" id="color-50sxcBTj" gradientUnits="userSpaceOnUse">
			<stop offset="0.07" stop-color="#ffffff"/>
			<stop offset="0.75" stop-color="#000000"/>
		</radialGradient>
		<linearGradient x1="0" y1="1024" x2="1024" y2="0" id="color-R8K0c6Dn" gradientUnits="userSpaceOnUse">
			<stop offset="0.2" stop-color="#000000"/>
			<stop offset="0.8" stop-color="#ffffff"/>
		</linearGradient>
		<filter id="filter-mXzWxOGI" color-interpolation-filters="sRGB">
			<feOffset/>
		</filter>
		<filter id="filter-NRGuwah9" x="0%" y="0%" width="100%" height="100%" color-interpolation-filters="sRGB">
			<feColorMatrix values="1 0 0 0 0 0 1 0 0 0 0 0 1 0 0 0 0 0 0.05 0" in="SourceGraphic"/>
			<feOffset dy="20"/>
			<feGaussianBlur stdDeviation="11" result="blur0"/>
			<feColorMatrix values="1 0 0 0 0 0 1 0 0 0 0 0 1 0 0 0 0 0 0.07 0" in="SourceGraphic"/>
			<feOffset dy="30"/>
			<feGaussianBlur stdDeviation="20" result="blur1"/>
			<feMerge>
				<feMergeNode in="blur0"/>
				<feMergeNode in="blur1"/>
			</feMerge>
		</filter>
		<mask id="mask-iQF0eW4c">
			<path d="M853.33,581.97c0,85.33 -33.28,175.36 -99.84,241.92c-66.56,66.56 -154.02,100.27 -241.49,100.27c-87.47,0 -174.93,-33.71 -241.49,-100.27c-66.56,-66.56 -99.84,-156.59 -99.84,-241.92c0,-85.33 33.28,-174.08 99.84,-240.64l241.49,-241.06l241.49,241.06c66.56,66.56 99.84,155.31 99.84,240.64zM768,597.33c-0.43,-85.33 -26.45,-137.81 -75.09,-185.6l-180.91,-186.88l-180.91,184.75c-48.64,48.21 -74.66,102.4 -75.09,187.73z" fill="#ffffff"/>
		</mask>
		<mask id="mask-LbBrgDNu">
			<path d="M853.33,581.97c0,85.33 -33.28,175.36 -99.84,241.92c-66.56,66.56 -154.02,100.27 -241.49,100.27c-87.47,0 -174.93,-33.71 -241.49,-100.27c-66.56,-66.56 -99.84,-156.59 -99.84,-241.92c0,-85.33 33.28,-174.08 99.84,-240.64l241.49,-241.06l241.49,241.06c66.56,66.56 99.84,155.31 99.84,240.64zM768,597.33c-0.43,-85.33 -26.45,-137.81 -75.09,-185.6l-180.91,-186.88l-180.91,184.75c-48.64,48.21 -74.66,102.4 -75.09,187.73z" fill="url(#color-50sxcBTj)"/>
		</mask>
		<mask id="mask-mekHRoIk">
			<rect fill="url(#color-R8K0c6Dn)" x="170.67" y="100.27" width="682.66" height="823.89"/>
		</mask>
	</defs>
	<g fill="none" fill-rule="nonzero" style="mix-blend-mode: normal">
		<g mask="url(#mask-iQF0eW4c)">
			<g color="#ffc107" class="teamapps-color-2">
				<rect x="170.67" y="100.27" width="682.66" height="823.89" fill="currentColor"/>
			</g>
			<g color="#e65100" class="teamapps-color-3" mask="url(#mask-mekHRoIk)">
				<rect x="170.67" y="100.27" width="682.66" height="823.89" fill="currentColor"/>
			</g>
		</g>
		<g filter="url(#filter-mXzWxOGI)" mask="url(#mask-LbBrgDNu)">
			<g color="#fff59d" class="teamapps-color-1">
				<rect x="170.67" y="100.27" width="682.66" height="823.89" fill="currentColor"/>
			</g>
		</g>
		<g clip-path="url(#clip-atsoSp4x)">
			<path d="M77.67,967.16v-1009.89h868.66v1009.89zM753.49,341.33l-241.49,-241.06l-241.49,241.06c-66.56,66.56 -99.84,155.31 -99.84,240.64c0,85.33 33.28,175.36 99.84,241.92c66.56,66.56 154.02,100.27 241.49,100.27c87.47,0 174.93,-33.71 241.49,-100.27c66.56,-66.56 99.84,-156.59 99.84,-241.92c0,-85.33 -33.28,-174.08 -99.84,-240.64zM256,597.33c0.43,-85.33 26.45,-139.52 75.09,-187.73l180.91,-184.75l180.91,186.88c48.64,47.79 74.66,100.27 75.09,185.6z" fill="#000000" filter="url(#filter-NRGuwah9)"/>
		</g>
	</g>
</svg>