<svg version="1.1" xmlns="http://www.w3.org/2000/svg" xmlns:xlink="http://www.w3.org/1999/xlink" viewBox="0,0,1024,1024">
	<!-- Color names: teamapps-color-1, teamapps-color-2, teamapps-color-3 -->
	<desc>panorama icon - Licensed under Apache License v2.0 (http://www.apache.org/licenses/LICENSE-2.0) - Created with Iconfu.com - Derivative work of Material icons (Copyright Google Inc.)</desc>
	<defs>
		<clipPath id="clip-wv2WlbSN">
			<path d="M896,853.33h-768c-46.93,0 -85.33,-38.4 -85.33,-85.33v-512c0,-46.93 38.4,-85.33 85.33,-85.33h768c46.93,0 85.33,38.4 85.33,85.33v512c0,46.93 -38.4,85.33 -85.33,85.33zM213.33,725.33h597.34l-192,-256l-149.34,192.43l-106.66,-128.43z"/>
		</clipPath>
		<radialGradient cx="0" cy="0" r="1448.15" id="color-15KitTxK" gradientUnits="userSpaceOnUse">
			<stop offset="0.07" stop-color="#ffffff"/>
			<stop offset="0.75" stop-color="#000000"/>
		</radialGradient>
		<linearGradient x1="0" y1="1024" x2="1024" y2="0" id="color-EPTIOEmD" gradientUnits="userSpaceOnUse">
			<stop offset="0.2" stop-color="#000000"/>
			<stop offset="0.8" stop-color="#ffffff"/>
		</linearGradient>
		<filter id="filter-PoUYHH3N" x="0%" y="0%" width="100%" height="100%" color-interpolation-filters="sRGB">
			<feColorMatrix values="1 0 0 0 0 0 1 0 0 0 0 0 1 0 0 0 0 0 0.05 0" in="SourceGraphic"/>
			<feOffset dy="20"/>
			<feGaussianBlur stdDeviation="11" result="blur0"/>
			<feColorMatrix values="1 0 0 0 0 0 1 0 0 0 0 0 1 0 0 0 0 0 0.07 0" in="SourceGraphic"/>
			<feOffset dy="30"/>
			<feGaussianBlur stdDeviation="20" result="blur1"/>
			<feMerge>
				<feMergeNode in="blur0"/>
				<feMergeNode in="blur1"/>
			</feMerge>
		</filter>
		<filter id="filter-rFku456u" color-interpolation-filters="sRGB">
			<feOffset/>
		</filter>
		<mask id="mask-3D3ldqQP">
			<rect fill="url(#color-EPTIOEmD)" x="42.67" y="170.67" width="938.66" height="682.66"/>
		</mask>
		<mask id="mask-qy7aUVoz">
			<path d="M896,853.33h-768c-46.93,0 -85.33,-38.4 -85.33,-85.33v-512c0,-46.93 38.4,-85.33 85.33,-85.33h768c46.93,0 85.33,38.4 85.33,85.33v512c0,46.93 -38.4,85.33 -85.33,85.33zM213.33,725.33h597.34l-192,-256l-149.34,192.43l-106.66,-128.43z" fill="#ffffff"/>
		</mask>
		<mask id="mask-yHI7FZBz">
			<path d="M896,853.33h-768c-46.93,0 -85.33,-38.4 -85.33,-85.33v-512c0,-46.93 38.4,-85.33 85.33,-85.33h768c46.93,0 85.33,38.4 85.33,85.33v512c0,46.93 -38.4,85.33 -85.33,85.33zM213.33,725.33h597.34l-192,-256l-149.34,192.43l-106.66,-128.43z" fill="url(#color-15KitTxK)"/>
		</mask>
	</defs>
	<g fill="none" fill-rule="nonzero" style="mix-blend-mode: normal">
		<g mask="url(#mask-qy7aUVoz)">
			<g color="#ffc107" class="teamapps-color-2">
				<rect x="42.67" y="170.67" width="938.66" height="682.66" fill="currentColor"/>
			</g>
			<g color="#e65100" class="teamapps-color-3" mask="url(#mask-3D3ldqQP)">
				<rect x="42.67" y="170.67" width="938.66" height="682.66" fill="currentColor"/>
			</g>
		</g>
		<g filter="url(#filter-rFku456u)" mask="url(#mask-yHI7FZBz)">
			<g color="#fff59d" class="teamapps-color-1">
				<rect x="42.67" y="170.67" width="938.66" height="682.66" fill="currentColor"/>
			</g>
		</g>
		<g clip-path="url(#clip-wv2WlbSN)">
			<path d="M-50.33,896.33v-868.66h1124.66v868.66zM981.33,768v-512c0,-46.93 -38.4,-85.33 -85.33,-85.33h-768c-46.93,0 -85.33,38.4 -85.33,85.33v512c0,46.93 38.4,85.33 85.33,85.33h768c46.93,0 85.33,-38.4 85.33,-85.33zM362.67,533.33l106.66,128.43l149.34,-192.43l192,256h-597.34z" fill="#000000" filter="url(#filter-PoUYHH3N)"/>
		</g>
	</g>
</svg>