<svg version="1.1" xmlns="http://www.w3.org/2000/svg" xmlns:xlink="http://www.w3.org/1999/xlink" viewBox="0,0,1024,1024">
	<!-- Color names: teamapps-color-1, teamapps-color-2, teamapps-color-3 -->
	<desc>picture_as_pdf icon - Licensed under Apache License v2.0 (http://www.apache.org/licenses/LICENSE-2.0) - Created with Iconfu.com - Derivative work of Material icons (Copyright Google Inc.)</desc>
	<defs>
		<clipPath id="clip-GRtaqWev">
			<path d="M938.67,170.67v512c0,46.93 -38.41,85.33 -85.34,85.33h-512c-46.93,0 -85.33,-38.4 -85.33,-85.33v-512c0,-46.93 38.4,-85.34 85.33,-85.34h512c46.93,0 85.34,38.41 85.34,85.34zM170.67,853.33h597.33v85.34h-597.33c-46.93,0 -85.34,-38.41 -85.34,-85.34v-597.33h85.34zM704,362.67c0,-35.41 -28.59,-64 -64,-64h-106.67v256h106.67c35.41,0 64,-28.59 64,-64zM490.67,362.67c0,-35.41 -28.59,-64 -64,-64h-106.67v256h64v-85.34h42.67c35.41,0 64,-28.59 64,-64zM874.67,298.67h-128v256h64v-85.34h64v-64h-64v-42.66h64zM597.33,362.67h42.67v128h-42.67zM384,362.67h42.67v42.66h-42.67z"/>
		</clipPath>
		<linearGradient x1="0" y1="1024" x2="1024" y2="0" id="color-EXP0meYg" gradientUnits="userSpaceOnUse">
			<stop offset="0.2" stop-color="#000000"/>
			<stop offset="0.8" stop-color="#ffffff"/>
		</linearGradient>
		<radialGradient cx="0" cy="0" r="1448.15" id="color-JNfudUDH" gradientUnits="userSpaceOnUse">
			<stop offset="0.07" stop-color="#ffffff"/>
			<stop offset="0.75" stop-color="#000000"/>
		</radialGradient>
		<filter id="filter-2YCTAD8l" x="0%" y="0%" width="100%" height="100%" color-interpolation-filters="sRGB">
			<feColorMatrix values="1 0 0 0 0 0 1 0 0 0 0 0 1 0 0 0 0 0 0.05 0" in="SourceGraphic"/>
			<feOffset dy="20"/>
			<feGaussianBlur stdDeviation="11" result="blur0"/>
			<feColorMatrix values="1 0 0 0 0 0 1 0 0 0 0 0 1 0 0 0 0 0 0.07 0" in="SourceGraphic"/>
			<feOffset dy="30"/>
			<feGaussianBlur stdDeviation="20" result="blur1"/>
			<feMerge>
				<feMergeNode in="blur0"/>
				<feMergeNode in="blur1"/>
			</feMerge>
		</filter>
		<filter id="filter-aqKvnNKe" color-interpolation-filters="sRGB">
			<feOffset/>
		</filter>
		<mask id="mask-8LZUVLjV">
			<path d="M938.67,170.67v512c0,46.93 -38.41,85.33 -85.34,85.33h-512c-46.93,0 -85.33,-38.4 -85.33,-85.33v-512c0,-46.93 38.4,-85.34 85.33,-85.34h512c46.93,0 85.34,38.41 85.34,85.34zM170.67,853.33h597.33v85.34h-597.33c-46.93,0 -85.34,-38.41 -85.34,-85.34v-597.33h85.34zM704,362.67c0,-35.41 -28.59,-64 -64,-64h-106.67v256h106.67c35.41,0 64,-28.59 64,-64zM490.67,362.67c0,-35.41 -28.59,-64 -64,-64h-106.67v256h64v-85.34h42.67c35.41,0 64,-28.59 64,-64zM874.67,298.67h-128v256h64v-85.34h64v-64h-64v-42.66h64zM597.33,362.67h42.67v128h-42.67zM384,362.67h42.67v42.66h-42.67z" fill="#ffffff"/>
		</mask>
		<mask id="mask-HkH8jfYU">
			<path d="M938.67,170.67v512c0,46.93 -38.41,85.33 -85.34,85.33h-512c-46.93,0 -85.33,-38.4 -85.33,-85.33v-512c0,-46.93 38.4,-85.34 85.33,-85.34h512c46.93,0 85.34,38.41 85.34,85.34zM170.67,853.33h597.33v85.34h-597.33c-46.93,0 -85.34,-38.41 -85.34,-85.34v-597.33h85.34zM704,362.67c0,-35.41 -28.59,-64 -64,-64h-106.67v256h106.67c35.41,0 64,-28.59 64,-64zM490.67,362.67c0,-35.41 -28.59,-64 -64,-64h-106.67v256h64v-85.34h42.67c35.41,0 64,-28.59 64,-64zM874.67,298.67h-128v256h64v-85.34h64v-64h-64v-42.66h64zM597.33,362.67h42.67v128h-42.67zM384,362.67h42.67v42.66h-42.67z" fill="url(#color-JNfudUDH)"/>
		</mask>
		<mask id="mask-j75RHK2Q">
			<rect fill="url(#color-EXP0meYg)" x="85.33" y="85.33" width="853.34" height="853.34"/>
		</mask>
	</defs>
	<g fill="none" fill-rule="nonzero" style="mix-blend-mode: normal">
		<g mask="url(#mask-8LZUVLjV)">
			<g color="#ffc107" class="teamapps-color-2">
				<rect x="85.33" y="85.33" width="853.34" height="853.34" fill="currentColor"/>
			</g>
			<g color="#e65100" class="teamapps-color-3" mask="url(#mask-j75RHK2Q)">
				<rect x="85.33" y="85.33" width="853.34" height="853.34" fill="currentColor"/>
			</g>
		</g>
		<g filter="url(#filter-aqKvnNKe)" mask="url(#mask-HkH8jfYU)">
			<g color="#fff59d" class="teamapps-color-1">
				<rect x="85.33" y="85.33" width="853.34" height="853.34" fill="currentColor"/>
			</g>
		</g>
		<g clip-path="url(#clip-GRtaqWev)">
			<path d="M-7.67,981.67v-1039.34h1039.34v1039.34zM853.33,85.33h-512c-46.93,0 -85.33,38.41 -85.33,85.34v512c0,46.93 38.4,85.33 85.33,85.33h512c46.93,0 85.34,-38.4 85.34,-85.33v-512c0,-46.93 -38.41,-85.34 -85.34,-85.34zM170.67,256h-85.34v597.33c0,46.93 38.41,85.34 85.34,85.34h597.33v-85.34h-597.33zM704,490.67c0,35.41 -28.59,64 -64,64h-106.67v-256h106.67c35.41,0 64,28.59 64,64zM490.67,405.33c0,35.41 -28.59,64 -64,64h-42.67v85.34h-64v-256h106.67c35.41,0 64,28.59 64,64zM874.67,362.67h-64v42.66h64v64h-64v85.34h-64v-256h128zM597.33,490.67h42.67v-128h-42.67zM384,405.33h42.67v-42.66h-42.67z" fill="#000000" filter="url(#filter-2YCTAD8l)"/>
		</g>
	</g>
</svg>