<svg version="1.1" xmlns="http://www.w3.org/2000/svg" xmlns:xlink="http://www.w3.org/1999/xlink" viewBox="0,0,1024,1024">
	<!-- Color names: teamapps-color-1, teamapps-color-2, teamapps-color-3 -->
	<desc>playlist_add icon - Licensed under Apache License v2.0 (http://www.apache.org/licenses/LICENSE-2.0) - Created with Iconfu.com - Derivative work of Material icons (Copyright Google Inc.)</desc>
	<defs>
		<clipPath id="clip-AWYVc5hY">
			<path d="M938.67,597.33v85.34h-170.67v170.66h-85.33v-170.66h-170.67v-85.34h170.67v-170.66h85.33v170.66zM597.33,512h-512v-85.33h512zM597.33,341.33h-512v-85.33h512zM85.33,597.33h341.34v85.34h-341.34z"/>
		</clipPath>
		<linearGradient x1="0" y1="1024" x2="1024" y2="0" id="color-GeLT5qxm" gradientUnits="userSpaceOnUse">
			<stop offset="0.2" stop-color="#000000"/>
			<stop offset="0.8" stop-color="#ffffff"/>
		</linearGradient>
		<radialGradient cx="0" cy="0" r="1448.15" id="color-LUphlgRB" gradientUnits="userSpaceOnUse">
			<stop offset="0.07" stop-color="#ffffff"/>
			<stop offset="0.75" stop-color="#000000"/>
		</radialGradient>
		<filter id="filter-LzdeLbVH" x="0%" y="0%" width="100%" height="100%" color-interpolation-filters="sRGB">
			<feColorMatrix values="1 0 0 0 0 0 1 0 0 0 0 0 1 0 0 0 0 0 0.05 0" in="SourceGraphic"/>
			<feOffset dy="20"/>
			<feGaussianBlur stdDeviation="11" result="blur0"/>
			<feColorMatrix values="1 0 0 0 0 0 1 0 0 0 0 0 1 0 0 0 0 0 0.07 0" in="SourceGraphic"/>
			<feOffset dy="30"/>
			<feGaussianBlur stdDeviation="20" result="blur1"/>
			<feMerge>
				<feMergeNode in="blur0"/>
				<feMergeNode in="blur1"/>
			</feMerge>
		</filter>
		<filter id="filter-x3uh4Wn7" color-interpolation-filters="sRGB">
			<feOffset/>
		</filter>
		<mask id="mask-achadutz">
			<path d="M938.67,597.33v85.34h-170.67v170.66h-85.33v-170.66h-170.67v-85.34h170.67v-170.66h85.33v170.66zM597.33,512h-512v-85.33h512zM597.33,341.33h-512v-85.33h512zM85.33,597.33h341.34v85.34h-341.34z" fill="#ffffff"/>
		</mask>
		<mask id="mask-mq3jHBpS">
			<path d="M938.67,597.33v85.34h-170.67v170.66h-85.33v-170.66h-170.67v-85.34h170.67v-170.66h85.33v170.66zM597.33,512h-512v-85.33h512zM597.33,341.33h-512v-85.33h512zM85.33,597.33h341.34v85.34h-341.34z" fill="url(#color-LUphlgRB)"/>
		</mask>
		<mask id="mask-pBWU5S8L">
			<rect fill="url(#color-GeLT5qxm)" x="85.33" y="256" width="853.34" height="597.33"/>
		</mask>
	</defs>
	<g fill="none" fill-rule="nonzero" style="mix-blend-mode: normal">
		<g mask="url(#mask-achadutz)">
			<g color="#ffc107" class="teamapps-color-2">
				<rect x="85.33" y="256" width="853.34" height="597.33" fill="currentColor"/>
			</g>
			<g color="#e65100" class="teamapps-color-3" mask="url(#mask-pBWU5S8L)">
				<rect x="85.33" y="256" width="853.34" height="597.33" fill="currentColor"/>
			</g>
		</g>
		<g filter="url(#filter-x3uh4Wn7)" mask="url(#mask-mq3jHBpS)">
			<g color="#fff59d" class="teamapps-color-1">
				<rect x="85.33" y="256" width="853.34" height="597.33" fill="currentColor"/>
			</g>
		</g>
		<g clip-path="url(#clip-AWYVc5hY)">
			<path d="M-7.67,896.33v-783.33h1039.34v783.33zM768,597.33v-170.66h-85.33v170.66h-170.67v85.34h170.67v170.66h85.33v-170.66h170.67v-85.34zM597.33,426.67h-512v85.33h512zM597.33,256h-512v85.33h512zM85.33,682.67h341.34v-85.34h-341.34z" fill="#000000" filter="url(#filter-LzdeLbVH)"/>
		</g>
	</g>
</svg>