<svg version="1.1" xmlns="http://www.w3.org/2000/svg" xmlns:xlink="http://www.w3.org/1999/xlink" viewBox="0,0,1024,1024">
	<!-- Color names: teamapps-color-1, teamapps-color-2, teamapps-color-3 -->
	<desc>power_settings_new icon - Licensed under Apache License v2.0 (http://www.apache.org/licenses/LICENSE-2.0) - Created with Iconfu.com - Derivative work of Material icons (Copyright Google Inc.)</desc>
	<defs>
		<clipPath id="clip-hw4s7iak">
			<path d="M896,512c0,212.05 -171.95,384 -384,384c-212.05,0 -384,-171.95 -384,-384c0,-116.91 52.48,-221.01 135.25,-291.41l60.16,60.16c-66.99,54.61 -110.08,137.81 -110.08,231.25c0,165.12 133.55,298.67 298.67,298.67c165.12,0 298.67,-133.55 298.67,-298.67c0,-93.44 -43.1,-176.64 -110.51,-230.83l60.59,-60.58c82.77,70.4 135.25,174.5 135.25,291.41zM554.67,554.67h-85.34v-426.67h85.34z"/>
		</clipPath>
		<radialGradient cx="0" cy="0" r="1448.15" id="color-KBb7ZtbQ" gradientUnits="userSpaceOnUse">
			<stop offset="0.07" stop-color="#ffffff"/>
			<stop offset="0.75" stop-color="#000000"/>
		</radialGradient>
		<linearGradient x1="0" y1="1024" x2="1024" y2="0" id="color-KVDwyjEd" gradientUnits="userSpaceOnUse">
			<stop offset="0.2" stop-color="#000000"/>
			<stop offset="0.8" stop-color="#ffffff"/>
		</linearGradient>
		<filter id="filter-CQGPkJop" x="0%" y="0%" width="100%" height="100%" color-interpolation-filters="sRGB">
			<feColorMatrix values="1 0 0 0 0 0 1 0 0 0 0 0 1 0 0 0 0 0 0.05 0" in="SourceGraphic"/>
			<feOffset dy="20"/>
			<feGaussianBlur stdDeviation="11" result="blur0"/>
			<feColorMatrix values="1 0 0 0 0 0 1 0 0 0 0 0 1 0 0 0 0 0 0.07 0" in="SourceGraphic"/>
			<feOffset dy="30"/>
			<feGaussianBlur stdDeviation="20" result="blur1"/>
			<feMerge>
				<feMergeNode in="blur0"/>
				<feMergeNode in="blur1"/>
			</feMerge>
		</filter>
		<filter id="filter-ntQnRuWN" color-interpolation-filters="sRGB">
			<feOffset/>
		</filter>
		<mask id="mask-2QF9dJJA">
			<path d="M896,512c0,212.05 -171.95,384 -384,384c-212.05,0 -384,-171.95 -384,-384c0,-116.91 52.48,-221.01 135.25,-291.41l60.16,60.16c-66.99,54.61 -110.08,137.81 -110.08,231.25c0,165.12 133.55,298.67 298.67,298.67c165.12,0 298.67,-133.55 298.67,-298.67c0,-93.44 -43.1,-176.64 -110.51,-230.83l60.59,-60.58c82.77,70.4 135.25,174.5 135.25,291.41zM554.67,554.67h-85.34v-426.67h85.34z" fill="url(#color-KBb7ZtbQ)"/>
		</mask>
		<mask id="mask-4pjTqwc1">
			<rect fill="url(#color-KVDwyjEd)" x="128" y="128" width="768" height="768"/>
		</mask>
		<mask id="mask-JKKO6xGz">
			<path d="M896,512c0,212.05 -171.95,384 -384,384c-212.05,0 -384,-171.95 -384,-384c0,-116.91 52.48,-221.01 135.25,-291.41l60.16,60.16c-66.99,54.61 -110.08,137.81 -110.08,231.25c0,165.12 133.55,298.67 298.67,298.67c165.12,0 298.67,-133.55 298.67,-298.67c0,-93.44 -43.1,-176.64 -110.51,-230.83l60.59,-60.58c82.77,70.4 135.25,174.5 135.25,291.41zM554.67,554.67h-85.34v-426.67h85.34z" fill="#ffffff"/>
		</mask>
	</defs>
	<g fill="none" fill-rule="nonzero" style="mix-blend-mode: normal">
		<g mask="url(#mask-JKKO6xGz)">
			<g color="#ffc107" class="teamapps-color-2">
				<rect x="128" y="128" width="768" height="768" fill="currentColor"/>
			</g>
			<g color="#e65100" class="teamapps-color-3" mask="url(#mask-4pjTqwc1)">
				<rect x="128" y="128" width="768" height="768" fill="currentColor"/>
			</g>
		</g>
		<g filter="url(#filter-ntQnRuWN)" mask="url(#mask-2QF9dJJA)">
			<g color="#fff59d" class="teamapps-color-1">
				<rect x="128" y="128" width="768" height="768" fill="currentColor"/>
			</g>
		</g>
		<g clip-path="url(#clip-hw4s7iak)">
			<path d="M35,939v-954h954v954zM760.75,220.59l-60.59,60.58c67.41,54.19 110.51,137.39 110.51,230.83c0,165.12 -133.55,298.67 -298.67,298.67c-165.12,0 -298.67,-133.55 -298.67,-298.67c0,-93.44 43.09,-176.64 110.08,-231.25l-60.16,-60.16c-82.77,70.4 -135.25,174.5 -135.25,291.41c0,212.05 171.95,384 384,384c212.05,0 384,-171.95 384,-384c0,-116.91 -52.48,-221.01 -135.25,-291.41zM554.67,128h-85.34v426.67h85.34z" fill="#000000" filter="url(#filter-CQGPkJop)"/>
		</g>
	</g>
</svg>