<svg version="1.1" xmlns="http://www.w3.org/2000/svg" xmlns:xlink="http://www.w3.org/1999/xlink" viewBox="0,0,1024,1024">
	<!-- Color names: teamapps-color-1, teamapps-color-2, teamapps-color-3 -->
	<desc>publish icon - Licensed under Apache License v2.0 (http://www.apache.org/licenses/LICENSE-2.0) - Created with Iconfu.com - Derivative work of Material icons (Copyright Google Inc.)</desc>
	<defs>
		<clipPath id="clip-Rh2wOmli">
			<path d="M512,298.67l298.67,298.66h-170.67v256h-256v-256h-170.67zM810.67,170.67v85.33h-597.34v-85.33z"/>
		</clipPath>
		<linearGradient x1="0" y1="1024" x2="1024" y2="0" id="color-dxAWuiXp" gradientUnits="userSpaceOnUse">
			<stop offset="0.2" stop-color="#000000"/>
			<stop offset="0.8" stop-color="#ffffff"/>
		</linearGradient>
		<radialGradient cx="0" cy="0" r="1448.15" id="color-wf1LzfZl" gradientUnits="userSpaceOnUse">
			<stop offset="0.07" stop-color="#ffffff"/>
			<stop offset="0.75" stop-color="#000000"/>
		</radialGradient>
		<filter id="filter-0CYCCLnW" x="0%" y="0%" width="100%" height="100%" color-interpolation-filters="sRGB">
			<feColorMatrix values="1 0 0 0 0 0 1 0 0 0 0 0 1 0 0 0 0 0 0.05 0" in="SourceGraphic"/>
			<feOffset dy="20"/>
			<feGaussianBlur stdDeviation="11" result="blur0"/>
			<feColorMatrix values="1 0 0 0 0 0 1 0 0 0 0 0 1 0 0 0 0 0 0.07 0" in="SourceGraphic"/>
			<feOffset dy="30"/>
			<feGaussianBlur stdDeviation="20" result="blur1"/>
			<feMerge>
				<feMergeNode in="blur0"/>
				<feMergeNode in="blur1"/>
			</feMerge>
		</filter>
		<filter id="filter-ItYncQNV" color-interpolation-filters="sRGB">
			<feOffset/>
		</filter>
		<mask id="mask-peTp9dS1">
			<path d="M512,298.67l298.67,298.66h-170.67v256h-256v-256h-170.67zM810.67,170.67v85.33h-597.34v-85.33z" fill="url(#color-wf1LzfZl)"/>
		</mask>
		<mask id="mask-UnlG8slq">
			<path d="M512,298.67l298.67,298.66h-170.67v256h-256v-256h-170.67zM810.67,170.67v85.33h-597.34v-85.33z" fill="#ffffff"/>
		</mask>
		<mask id="mask-yDaTtpab">
			<rect fill="url(#color-dxAWuiXp)" x="213.33" y="170.67" width="597.34" height="682.66"/>
		</mask>
	</defs>
	<g fill="none" fill-rule="nonzero" style="mix-blend-mode: normal">
		<g mask="url(#mask-UnlG8slq)">
			<g color="#ffc107" class="teamapps-color-2">
				<rect x="213.33" y="170.67" width="597.34" height="682.66" fill="currentColor"/>
			</g>
			<g color="#e65100" class="teamapps-color-3" mask="url(#mask-yDaTtpab)">
				<rect x="213.33" y="170.67" width="597.34" height="682.66" fill="currentColor"/>
			</g>
		</g>
		<g filter="url(#filter-ItYncQNV)" mask="url(#mask-peTp9dS1)">
			<g color="#fff59d" class="teamapps-color-1">
				<rect x="213.33" y="170.67" width="597.34" height="682.66" fill="currentColor"/>
			</g>
		</g>
		<g clip-path="url(#clip-Rh2wOmli)">
			<path d="M120.33,896.33v-868.66h783.34v868.66zM213.33,597.33h170.67v256h256v-256h170.67l-298.67,-298.66zM213.33,170.67v85.33h597.34v-85.33z" fill="#000000" filter="url(#filter-0CYCCLnW)"/>
		</g>
	</g>
</svg>