<svg version="1.1" xmlns="http://www.w3.org/2000/svg" xmlns:xlink="http://www.w3.org/1999/xlink" viewBox="0,0,1024,1024">
	<!-- Color names: teamapps-color-1, teamapps-color-2, teamapps-color-3 -->
	<desc>redeem icon - Licensed under Apache License v2.0 (http://www.apache.org/licenses/LICENSE-2.0) - Created with Iconfu.com - Derivative work of Material icons (Copyright Google Inc.)</desc>
	<defs>
		<clipPath id="clip-nzN1KX9V">
			<path d="M938.67,341.33v469.34c0,47.36 -37.98,85.33 -85.34,85.33h-682.66c-47.36,0 -85.34,-37.97 -85.34,-85.33l0.43,-469.34c0,-47.36 37.55,-85.33 84.91,-85.33h93.01c-4.69,-13.23 -7.68,-27.74 -7.68,-42.67c0,-70.83 57.17,-128 128,-128c44.8,0 83.63,23.05 106.67,57.18l21.33,29.01l21.33,-28.59c23.04,-34.56 61.87,-57.6 106.67,-57.6c70.83,0 128,57.17 128,128c0,14.93 -2.99,29.44 -7.68,42.67h93.01c47.36,0 85.34,37.97 85.34,85.33zM853.33,341.33h-216.74l88.74,120.75l-69.12,49.92l-101.54,-138.24l-42.67,-58.03l-42.67,58.03l-101.54,138.24l-69.12,-49.92l88.74,-120.75h-216.74v256h682.66zM853.33,725.33h-682.66v85.34h682.66zM597.33,213.33c0,23.47 19.2,42.67 42.67,42.67c23.47,0 42.67,-19.2 42.67,-42.67c0,-23.47 -19.2,-42.66 -42.67,-42.66c-23.47,0 -42.67,19.19 -42.67,42.66zM341.33,213.33c0,23.47 19.2,42.67 42.67,42.67c23.47,0 42.67,-19.2 42.67,-42.67c0,-23.47 -19.2,-42.66 -42.67,-42.66c-23.47,0 -42.67,19.19 -42.67,42.66z"/>
		</clipPath>
		<radialGradient cx="0" cy="0" r="1448.15" id="color-dTI5stXw" gradientUnits="userSpaceOnUse">
			<stop offset="0.07" stop-color="#ffffff"/>
			<stop offset="0.75" stop-color="#000000"/>
		</radialGradient>
		<linearGradient x1="0" y1="1024" x2="1024" y2="0" id="color-QrQg25YH" gradientUnits="userSpaceOnUse">
			<stop offset="0.2" stop-color="#000000"/>
			<stop offset="0.8" stop-color="#ffffff"/>
		</linearGradient>
		<filter id="filter-fmdAyWNY" color-interpolation-filters="sRGB">
			<feOffset/>
		</filter>
		<filter id="filter-QplyoG2G" x="0%" y="0%" width="100%" height="100%" color-interpolation-filters="sRGB">
			<feColorMatrix values="1 0 0 0 0 0 1 0 0 0 0 0 1 0 0 0 0 0 0.05 0" in="SourceGraphic"/>
			<feOffset dy="20"/>
			<feGaussianBlur stdDeviation="11" result="blur0"/>
			<feColorMatrix values="1 0 0 0 0 0 1 0 0 0 0 0 1 0 0 0 0 0 0.07 0" in="SourceGraphic"/>
			<feOffset dy="30"/>
			<feGaussianBlur stdDeviation="20" result="blur1"/>
			<feMerge>
				<feMergeNode in="blur0"/>
				<feMergeNode in="blur1"/>
			</feMerge>
		</filter>
		<mask id="mask-1gBh7Jzy">
			<rect fill="url(#color-QrQg25YH)" x="85.33" y="85.33" width="853.34" height="810.67"/>
		</mask>
		<mask id="mask-hAqghm4j">
			<path d="M938.67,341.33v469.34c0,47.36 -37.98,85.33 -85.34,85.33h-682.66c-47.36,0 -85.34,-37.97 -85.34,-85.33l0.43,-469.34c0,-47.36 37.55,-85.33 84.91,-85.33h93.01c-4.69,-13.23 -7.68,-27.74 -7.68,-42.67c0,-70.83 57.17,-128 128,-128c44.8,0 83.63,23.05 106.67,57.18l21.33,29.01l21.33,-28.59c23.04,-34.56 61.87,-57.6 106.67,-57.6c70.83,0 128,57.17 128,128c0,14.93 -2.99,29.44 -7.68,42.67h93.01c47.36,0 85.34,37.97 85.34,85.33zM853.33,341.33h-216.74l88.74,120.75l-69.12,49.92l-101.54,-138.24l-42.67,-58.03l-42.67,58.03l-101.54,138.24l-69.12,-49.92l88.74,-120.75h-216.74v256h682.66zM853.33,725.33h-682.66v85.34h682.66zM597.33,213.33c0,23.47 19.2,42.67 42.67,42.67c23.47,0 42.67,-19.2 42.67,-42.67c0,-23.47 -19.2,-42.66 -42.67,-42.66c-23.47,0 -42.67,19.19 -42.67,42.66zM341.33,213.33c0,23.47 19.2,42.67 42.67,42.67c23.47,0 42.67,-19.2 42.67,-42.67c0,-23.47 -19.2,-42.66 -42.67,-42.66c-23.47,0 -42.67,19.19 -42.67,42.66z" fill="url(#color-dTI5stXw)"/>
		</mask>
		<mask id="mask-UNC5mxjb">
			<path d="M938.67,341.33v469.34c0,47.36 -37.98,85.33 -85.34,85.33h-682.66c-47.36,0 -85.34,-37.97 -85.34,-85.33l0.43,-469.34c0,-47.36 37.55,-85.33 84.91,-85.33h93.01c-4.69,-13.23 -7.68,-27.74 -7.68,-42.67c0,-70.83 57.17,-128 128,-128c44.8,0 83.63,23.05 106.67,57.18l21.33,29.01l21.33,-28.59c23.04,-34.56 61.87,-57.6 106.67,-57.6c70.83,0 128,57.17 128,128c0,14.93 -2.99,29.44 -7.68,42.67h93.01c47.36,0 85.34,37.97 85.34,85.33zM853.33,341.33h-216.74l88.74,120.75l-69.12,49.92l-101.54,-138.24l-42.67,-58.03l-42.67,58.03l-101.54,138.24l-69.12,-49.92l88.74,-120.75h-216.74v256h682.66zM853.33,725.33h-682.66v85.34h682.66zM597.33,213.33c0,23.47 19.2,42.67 42.67,42.67c23.47,0 42.67,-19.2 42.67,-42.67c0,-23.47 -19.2,-42.66 -42.67,-42.66c-23.47,0 -42.67,19.19 -42.67,42.66zM341.33,213.33c0,23.47 19.2,42.67 42.67,42.67c23.47,0 42.67,-19.2 42.67,-42.67c0,-23.47 -19.2,-42.66 -42.67,-42.66c-23.47,0 -42.67,19.19 -42.67,42.66z" fill="#ffffff"/>
		</mask>
	</defs>
	<g fill="none" fill-rule="nonzero" style="mix-blend-mode: normal">
		<g mask="url(#mask-UNC5mxjb)">
			<g color="#ffc107" class="teamapps-color-2">
				<rect x="85.33" y="85.33" width="853.34" height="810.67" fill="currentColor"/>
			</g>
			<g color="#e65100" class="teamapps-color-3" mask="url(#mask-1gBh7Jzy)">
				<rect x="85.33" y="85.33" width="853.34" height="810.67" fill="currentColor"/>
			</g>
		</g>
		<g filter="url(#filter-fmdAyWNY)" mask="url(#mask-hAqghm4j)">
			<g color="#fff59d" class="teamapps-color-1">
				<rect x="85.33" y="85.33" width="853.34" height="810.67" fill="currentColor"/>
			</g>
		</g>
		<g clip-path="url(#clip-nzN1KX9V)">
			<path d="M-7.67,939v-996.67h1039.34v996.67zM853.33,256h-93.01c4.69,-13.23 7.68,-27.74 7.68,-42.67c0,-70.83 -57.17,-128 -128,-128c-44.8,0 -83.63,23.04 -106.67,57.6l-21.33,28.59l-21.33,-29.01c-23.04,-34.13 -61.87,-57.18 -106.67,-57.18c-70.83,0 -128,57.17 -128,128c0,14.93 2.99,29.44 7.68,42.67h-93.01c-47.36,0 -84.91,37.97 -84.91,85.33l-0.43,469.34c0,47.36 37.98,85.33 85.34,85.33h682.66c47.36,0 85.34,-37.97 85.34,-85.33v-469.34c0,-47.36 -37.98,-85.33 -85.34,-85.33zM853.33,597.33h-682.66v-256h216.74l-88.74,120.75l69.12,49.92l101.54,-138.24l42.67,-58.03l42.67,58.03l101.54,138.24l69.12,-49.92l-88.74,-120.75h216.74zM853.33,810.67h-682.66v-85.34h682.66zM640,170.67c23.47,0 42.67,19.19 42.67,42.66c0,23.47 -19.2,42.67 -42.67,42.67c-23.47,0 -42.67,-19.2 -42.67,-42.67c0,-23.47 19.2,-42.66 42.67,-42.66zM384,170.67c23.47,0 42.67,19.19 42.67,42.66c0,23.47 -19.2,42.67 -42.67,42.67c-23.47,0 -42.67,-19.2 -42.67,-42.67c0,-23.47 19.2,-42.66 42.67,-42.66z" fill="#000000" filter="url(#filter-QplyoG2G)"/>
		</g>
	</g>
</svg>