<svg version="1.1" xmlns="http://www.w3.org/2000/svg" xmlns:xlink="http://www.w3.org/1999/xlink" viewBox="0,0,1024,1024">
	<!-- Color names: teamapps-color-1, teamapps-color-2, teamapps-color-3 -->
	<desc>router icon - Licensed under Apache License v2.0 (http://www.apache.org/licenses/LICENSE-2.0) - Created with Iconfu.com - Derivative work of Material icons (Copyright Google Inc.)</desc>
	<defs>
		<clipPath id="clip-6jf34Ztt">
			<path d="M896,640v170.67c0,46.93 -38.4,85.33 -85.33,85.33h-597.34c-46.93,0 -85.33,-38.4 -85.33,-85.33v-170.67c0,-46.93 38.4,-85.33 85.33,-85.33h426.67v-170.67h85.33v170.67h85.34c46.93,0 85.33,38.4 85.33,85.33zM682.67,179.2c-64,0 -128,25.6 -179.2,72.53l-34.14,-34.13c59.73,-59.73 136.54,-89.6 213.34,-89.6c76.8,0 153.6,29.87 213.33,89.6l-34.13,34.13c-51.2,-46.93 -115.2,-72.53 -179.2,-72.53zM789.33,320c-29.87,-29.87 -68.26,-42.67 -106.66,-42.67c-38.4,0 -76.8,12.8 -106.67,42.67l-34.13,-34.13c38.4,-38.4 89.6,-59.74 140.8,-59.74c51.2,0 102.4,21.34 140.8,59.74zM640,682.67h-85.33v85.33h85.33zM341.33,682.67h-85.33v85.33h85.33zM490.67,682.67h-85.34v85.33h85.34z"/>
		</clipPath>
		<radialGradient cx="0" cy="0" r="1448.15" id="color-iJjmVWcm" gradientUnits="userSpaceOnUse">
			<stop offset="0.07" stop-color="#ffffff"/>
			<stop offset="0.75" stop-color="#000000"/>
		</radialGradient>
		<linearGradient x1="0" y1="1024" x2="1024" y2="0" id="color-wmofbgAQ" gradientUnits="userSpaceOnUse">
			<stop offset="0.2" stop-color="#000000"/>
			<stop offset="0.8" stop-color="#ffffff"/>
		</linearGradient>
		<filter id="filter-6y7U24Zh" x="0%" y="0%" width="100%" height="100%" color-interpolation-filters="sRGB">
			<feColorMatrix values="1 0 0 0 0 0 1 0 0 0 0 0 1 0 0 0 0 0 0.05 0" in="SourceGraphic"/>
			<feOffset dy="20"/>
			<feGaussianBlur stdDeviation="11" result="blur0"/>
			<feColorMatrix values="1 0 0 0 0 0 1 0 0 0 0 0 1 0 0 0 0 0 0.07 0" in="SourceGraphic"/>
			<feOffset dy="30"/>
			<feGaussianBlur stdDeviation="20" result="blur1"/>
			<feMerge>
				<feMergeNode in="blur0"/>
				<feMergeNode in="blur1"/>
			</feMerge>
		</filter>
		<filter id="filter-J7ykI8fc" color-interpolation-filters="sRGB">
			<feOffset/>
		</filter>
		<mask id="mask-0XTpd6VM">
			<path d="M896,640v170.67c0,46.93 -38.4,85.33 -85.33,85.33h-597.34c-46.93,0 -85.33,-38.4 -85.33,-85.33v-170.67c0,-46.93 38.4,-85.33 85.33,-85.33h426.67v-170.67h85.33v170.67h85.34c46.93,0 85.33,38.4 85.33,85.33zM682.67,179.2c-64,0 -128,25.6 -179.2,72.53l-34.14,-34.13c59.73,-59.73 136.54,-89.6 213.34,-89.6c76.8,0 153.6,29.87 213.33,89.6l-34.13,34.13c-51.2,-46.93 -115.2,-72.53 -179.2,-72.53zM789.33,320c-29.87,-29.87 -68.26,-42.67 -106.66,-42.67c-38.4,0 -76.8,12.8 -106.67,42.67l-34.13,-34.13c38.4,-38.4 89.6,-59.74 140.8,-59.74c51.2,0 102.4,21.34 140.8,59.74zM640,682.67h-85.33v85.33h85.33zM341.33,682.67h-85.33v85.33h85.33zM490.67,682.67h-85.34v85.33h85.34z" fill="url(#color-iJjmVWcm)"/>
		</mask>
		<mask id="mask-GPMC8q9e">
			<path d="M896,640v170.67c0,46.93 -38.4,85.33 -85.33,85.33h-597.34c-46.93,0 -85.33,-38.4 -85.33,-85.33v-170.67c0,-46.93 38.4,-85.33 85.33,-85.33h426.67v-170.67h85.33v170.67h85.34c46.93,0 85.33,38.4 85.33,85.33zM682.67,179.2c-64,0 -128,25.6 -179.2,72.53l-34.14,-34.13c59.73,-59.73 136.54,-89.6 213.34,-89.6c76.8,0 153.6,29.87 213.33,89.6l-34.13,34.13c-51.2,-46.93 -115.2,-72.53 -179.2,-72.53zM789.33,320c-29.87,-29.87 -68.26,-42.67 -106.66,-42.67c-38.4,0 -76.8,12.8 -106.67,42.67l-34.13,-34.13c38.4,-38.4 89.6,-59.74 140.8,-59.74c51.2,0 102.4,21.34 140.8,59.74zM640,682.67h-85.33v85.33h85.33zM341.33,682.67h-85.33v85.33h85.33zM490.67,682.67h-85.34v85.33h85.34z" fill="#ffffff"/>
		</mask>
		<mask id="mask-wLlc3X8g">
			<rect fill="url(#color-wmofbgAQ)" x="128" y="128" width="768" height="768"/>
		</mask>
	</defs>
	<g fill="none" fill-rule="nonzero" style="mix-blend-mode: normal">
		<g mask="url(#mask-GPMC8q9e)">
			<g color="#ffc107" class="teamapps-color-2">
				<rect x="128" y="128" width="768" height="768" fill="currentColor"/>
			</g>
			<g color="#e65100" class="teamapps-color-3" mask="url(#mask-wLlc3X8g)">
				<rect x="128" y="128" width="768" height="768" fill="currentColor"/>
			</g>
		</g>
		<g filter="url(#filter-J7ykI8fc)" mask="url(#mask-0XTpd6VM)">
			<g color="#fff59d" class="teamapps-color-1">
				<rect x="128" y="128" width="768" height="768" fill="currentColor"/>
			</g>
		</g>
		<g clip-path="url(#clip-6jf34Ztt)">
			<path d="M35,939v-954h954v954zM810.67,554.67h-85.34v-170.67h-85.33v170.67h-426.67c-46.93,0 -85.33,38.4 -85.33,85.33v170.67c0,46.93 38.4,85.33 85.33,85.33h597.34c46.93,0 85.33,-38.4 85.33,-85.33v-170.67c0,-46.93 -38.4,-85.33 -85.33,-85.33zM861.87,251.73l34.13,-34.13c-59.73,-59.73 -136.53,-89.6 -213.33,-89.6c-76.8,0 -153.61,29.87 -213.34,89.6l34.14,34.13c51.2,-46.93 115.2,-72.53 179.2,-72.53c64,0 128,25.6 179.2,72.53zM823.47,285.87c-38.4,-38.4 -89.6,-59.74 -140.8,-59.74c-51.2,0 -102.4,21.34 -140.8,59.74l34.13,34.13c29.87,-29.87 68.27,-42.67 106.67,-42.67c38.4,0 76.79,12.8 106.66,42.67zM640,768h-85.33v-85.33h85.33zM341.33,768h-85.33v-85.33h85.33zM490.67,768h-85.34v-85.33h85.34z" fill="#000000" filter="url(#filter-6y7U24Zh)"/>
		</g>
	</g>
</svg>