<svg version="1.1" xmlns="http://www.w3.org/2000/svg" xmlns:xlink="http://www.w3.org/1999/xlink" viewBox="0,0,1024,1024">
	<!-- Color names: teamapps-color-1, teamapps-color-2, teamapps-color-3 -->
	<desc>screen_lock_rotation icon - Licensed under Apache License v2.0 (http://www.apache.org/licenses/LICENSE-2.0) - Created with Iconfu.com - Derivative work of Material icons (Copyright Google Inc.)</desc>
	<defs>
		<clipPath id="clip-kgqOKRnP">
			<path d="M992,635.31l-271.36,271.36c-24.75,25.17 -65.28,25.17 -90.45,0l-512.86,-512.86c-25.17,-24.75 -25.17,-65.28 0,-90.45l271.36,-271.36c24.75,-25.17 65.29,-25.17 90.46,0l104.53,104.53l-60.16,60.16l-89.6,-89.6l-241.49,241.5l482.98,482.98l241.5,-241.49l-94.72,-94.72l60.16,-60.16l109.65,109.65c25.17,24.75 25.17,65.29 0,90.46zM418.13,817.07l162.56,162.98l-28.16,1.28c-268.37,0 -488.1,-206.5 -509.86,-469.33h64c15.36,160.43 115.2,296.1 254.72,361.81zM640,341.33v-170.66c0,-23.47 19.2,-42.67 42.67,-42.67v-21.33c0,-58.88 47.78,-106.67 106.66,-106.67c58.88,0 106.67,47.79 106.67,106.67v21.33c23.47,0 42.67,19.2 42.67,42.67v170.66c0,23.47 -19.2,42.67 -42.67,42.67h-213.33c-23.47,0 -42.67,-19.2 -42.67,-42.67zM716.8,128h145.07v-21.33c0,-40.11 -32.43,-72.54 -72.54,-72.54c-40.11,0 -72.53,32.43 -72.53,72.54z"/>
		</clipPath>
		<linearGradient x1="0" y1="1024" x2="1024" y2="0" id="color-6q1EqhBn" gradientUnits="userSpaceOnUse">
			<stop offset="0.2" stop-color="#000000"/>
			<stop offset="0.8" stop-color="#ffffff"/>
		</linearGradient>
		<radialGradient cx="0" cy="0" r="1448.15" id="color-GCXl0EVa" gradientUnits="userSpaceOnUse">
			<stop offset="0.07" stop-color="#ffffff"/>
			<stop offset="0.75" stop-color="#000000"/>
		</radialGradient>
		<filter id="filter-gSqGEiCl" x="0%" y="0%" width="100%" height="100%" color-interpolation-filters="sRGB">
			<feColorMatrix values="1 0 0 0 0 0 1 0 0 0 0 0 1 0 0 0 0 0 0.05 0" in="SourceGraphic"/>
			<feOffset dy="20"/>
			<feGaussianBlur stdDeviation="11" result="blur0"/>
			<feColorMatrix values="1 0 0 0 0 0 1 0 0 0 0 0 1 0 0 0 0 0 0.07 0" in="SourceGraphic"/>
			<feOffset dy="30"/>
			<feGaussianBlur stdDeviation="20" result="blur1"/>
			<feMerge>
				<feMergeNode in="blur0"/>
				<feMergeNode in="blur1"/>
			</feMerge>
		</filter>
		<filter id="filter-WO1Cvtpa" color-interpolation-filters="sRGB">
			<feOffset/>
		</filter>
		<mask id="mask-ONqBZOs6">
			<path d="M992,635.31l-271.36,271.36c-24.75,25.17 -65.28,25.17 -90.45,0l-512.86,-512.86c-25.17,-24.75 -25.17,-65.28 0,-90.45l271.36,-271.36c24.75,-25.17 65.29,-25.17 90.46,0l104.53,104.53l-60.16,60.16l-89.6,-89.6l-241.49,241.5l482.98,482.98l241.5,-241.49l-94.72,-94.72l60.16,-60.16l109.65,109.65c25.17,24.75 25.17,65.29 0,90.46zM418.13,817.07l162.56,162.98l-28.16,1.28c-268.37,0 -488.1,-206.5 -509.86,-469.33h64c15.36,160.43 115.2,296.1 254.72,361.81zM640,341.33v-170.66c0,-23.47 19.2,-42.67 42.67,-42.67v-21.33c0,-58.88 47.78,-106.67 106.66,-106.67c58.88,0 106.67,47.79 106.67,106.67v21.33c23.47,0 42.67,19.2 42.67,42.67v170.66c0,23.47 -19.2,42.67 -42.67,42.67h-213.33c-23.47,0 -42.67,-19.2 -42.67,-42.67zM716.8,128h145.07v-21.33c0,-40.11 -32.43,-72.54 -72.54,-72.54c-40.11,0 -72.53,32.43 -72.53,72.54z" fill="#ffffff"/>
		</mask>
		<mask id="mask-VtbZXuZU">
			<rect fill="url(#color-6q1EqhBn)" x="42.67" y="0" width="968.21" height="981.33"/>
		</mask>
		<mask id="mask-y8FQ3247">
			<path d="M992,635.31l-271.36,271.36c-24.75,25.17 -65.28,25.17 -90.45,0l-512.86,-512.86c-25.17,-24.75 -25.17,-65.28 0,-90.45l271.36,-271.36c24.75,-25.17 65.29,-25.17 90.46,0l104.53,104.53l-60.16,60.16l-89.6,-89.6l-241.49,241.5l482.98,482.98l241.5,-241.49l-94.72,-94.72l60.16,-60.16l109.65,109.65c25.17,24.75 25.17,65.29 0,90.46zM418.13,817.07l162.56,162.98l-28.16,1.28c-268.37,0 -488.1,-206.5 -509.86,-469.33h64c15.36,160.43 115.2,296.1 254.72,361.81zM640,341.33v-170.66c0,-23.47 19.2,-42.67 42.67,-42.67v-21.33c0,-58.88 47.78,-106.67 106.66,-106.67c58.88,0 106.67,47.79 106.67,106.67v21.33c23.47,0 42.67,19.2 42.67,42.67v170.66c0,23.47 -19.2,42.67 -42.67,42.67h-213.33c-23.47,0 -42.67,-19.2 -42.67,-42.67zM716.8,128h145.07v-21.33c0,-40.11 -32.43,-72.54 -72.54,-72.54c-40.11,0 -72.53,32.43 -72.53,72.54z" fill="url(#color-GCXl0EVa)"/>
		</mask>
	</defs>
	<g fill="none" fill-rule="nonzero" style="mix-blend-mode: normal">
		<g mask="url(#mask-ONqBZOs6)">
			<g color="#ffc107" class="teamapps-color-2">
				<rect x="42.67" y="0" width="968.21" height="981.33" fill="currentColor"/>
			</g>
			<g color="#e65100" class="teamapps-color-3" mask="url(#mask-VtbZXuZU)">
				<rect x="42.67" y="0" width="968.21" height="981.33" fill="currentColor"/>
			</g>
		</g>
		<g filter="url(#filter-WO1Cvtpa)" mask="url(#mask-y8FQ3247)">
			<g color="#fff59d" class="teamapps-color-1">
				<rect x="42.67" y="0" width="968.21" height="981.33" fill="currentColor"/>
			</g>
		</g>
		<g clip-path="url(#clip-kgqOKRnP)">
			<path d="M-50.33,1024.33v-1167.33h1154.21v1167.33zM992,544.85l-109.65,-109.65l-60.16,60.16l94.72,94.72l-241.5,241.49l-482.98,-482.98l241.49,-241.5l89.6,89.6l60.16,-60.16l-104.53,-104.53c-25.17,-25.17 -65.71,-25.17 -90.46,0l-271.36,271.36c-25.17,25.17 -25.17,65.7 0,90.45l512.86,512.86c25.17,25.17 65.7,25.17 90.45,0l271.36,-271.36c25.17,-25.17 25.17,-65.71 0,-90.46zM361.39,873.81c-139.52,-65.71 -239.36,-201.38 -254.72,-361.81h-64c21.76,262.83 241.49,469.33 509.86,469.33l28.16,-1.28l-162.56,-162.98zM682.67,384h213.33c23.47,0 42.67,-19.2 42.67,-42.67v-170.66c0,-23.47 -19.2,-42.67 -42.67,-42.67v-21.33c0,-58.88 -47.79,-106.67 -106.67,-106.67c-58.88,0 -106.66,47.79 -106.66,106.67v21.33c-23.47,0 -42.67,19.2 -42.67,42.67v170.66c0,23.47 19.2,42.67 42.67,42.67zM716.8,106.67c0,-40.11 32.42,-72.54 72.53,-72.54c40.11,0 72.54,32.43 72.54,72.54v21.33h-145.07z" fill="#000000" filter="url(#filter-gSqGEiCl)"/>
		</g>
	</g>
</svg>