<svg version="1.1" xmlns="http://www.w3.org/2000/svg" xmlns:xlink="http://www.w3.org/1999/xlink" viewBox="0,0,1024,1024">
	<!-- Color names: teamapps-color-1, teamapps-color-2, teamapps-color-3 -->
	<desc>security icon - Licensed under Apache License v2.0 (http://www.apache.org/licenses/LICENSE-2.0) - Created with Iconfu.com - Derivative work of Material icons (Copyright Google Inc.)</desc>
	<defs>
		<clipPath id="clip-Q5UBrb97">
			<path d="M896,213.33v256c0,236.8 -163.84,458.24 -384,512c-220.16,-53.76 -384,-275.2 -384,-512v-256l384,-170.66zM512,136.11l-298.67,132.69v243.2h298.67v381.01c158.72,-49.07 276.06,-205.65 298.67,-381.44h-298.67z"/>
		</clipPath>
		<radialGradient cx="0" cy="0" r="1448.15" id="color-lrAP91ji" gradientUnits="userSpaceOnUse">
			<stop offset="0.07" stop-color="#ffffff"/>
			<stop offset="0.75" stop-color="#000000"/>
		</radialGradient>
		<linearGradient x1="0" y1="1024" x2="1024" y2="0" id="color-thxCC1Zb" gradientUnits="userSpaceOnUse">
			<stop offset="0.2" stop-color="#000000"/>
			<stop offset="0.8" stop-color="#ffffff"/>
		</linearGradient>
		<filter id="filter-f8zpVAx9" color-interpolation-filters="sRGB">
			<feOffset/>
		</filter>
		<filter id="filter-Te1xO6ww" x="0%" y="0%" width="100%" height="100%" color-interpolation-filters="sRGB">
			<feColorMatrix values="1 0 0 0 0 0 1 0 0 0 0 0 1 0 0 0 0 0 0.05 0" in="SourceGraphic"/>
			<feOffset dy="20"/>
			<feGaussianBlur stdDeviation="11" result="blur0"/>
			<feColorMatrix values="1 0 0 0 0 0 1 0 0 0 0 0 1 0 0 0 0 0 0.07 0" in="SourceGraphic"/>
			<feOffset dy="30"/>
			<feGaussianBlur stdDeviation="20" result="blur1"/>
			<feMerge>
				<feMergeNode in="blur0"/>
				<feMergeNode in="blur1"/>
			</feMerge>
		</filter>
		<mask id="mask-3h9kJQuV">
			<rect fill="url(#color-thxCC1Zb)" x="128" y="42.67" width="768" height="938.66"/>
		</mask>
		<mask id="mask-ejWzNw6J">
			<path d="M896,213.33v256c0,236.8 -163.84,458.24 -384,512c-220.16,-53.76 -384,-275.2 -384,-512v-256l384,-170.66zM512,136.11l-298.67,132.69v243.2h298.67v381.01c158.72,-49.07 276.06,-205.65 298.67,-381.44h-298.67z" fill="url(#color-lrAP91ji)"/>
		</mask>
		<mask id="mask-Y2iWQKdo">
			<path d="M896,213.33v256c0,236.8 -163.84,458.24 -384,512c-220.16,-53.76 -384,-275.2 -384,-512v-256l384,-170.66zM512,136.11l-298.67,132.69v243.2h298.67v381.01c158.72,-49.07 276.06,-205.65 298.67,-381.44h-298.67z" fill="#ffffff"/>
		</mask>
	</defs>
	<g fill="none" fill-rule="nonzero" style="mix-blend-mode: normal">
		<g mask="url(#mask-Y2iWQKdo)">
			<g color="#ffc107" class="teamapps-color-2">
				<rect x="128" y="42.67" width="768" height="938.66" fill="currentColor"/>
			</g>
			<g color="#e65100" class="teamapps-color-3" mask="url(#mask-3h9kJQuV)">
				<rect x="128" y="42.67" width="768" height="938.66" fill="currentColor"/>
			</g>
		</g>
		<g filter="url(#filter-f8zpVAx9)" mask="url(#mask-ejWzNw6J)">
			<g color="#fff59d" class="teamapps-color-1">
				<rect x="128" y="42.67" width="768" height="938.66" fill="currentColor"/>
			</g>
		</g>
		<g clip-path="url(#clip-Q5UBrb97)">
			<path d="M35,1024.33v-1124.66h954v1124.66zM512,42.67l-384,170.66v256c0,236.8 163.84,458.24 384,512c220.16,-53.76 384,-275.2 384,-512v-256zM512,511.57h298.67c-22.61,175.79 -139.95,332.37 -298.67,381.44v-381.01h-298.67v-243.2l298.67,-132.69z" fill="#000000" filter="url(#filter-Te1xO6ww)"/>
		</g>
	</g>
</svg>