<svg version="1.1" xmlns="http://www.w3.org/2000/svg" xmlns:xlink="http://www.w3.org/1999/xlink" viewBox="0,0,1024,1024">
	<!-- Color names: teamapps-color-1, teamapps-color-2, teamapps-color-3 -->
	<desc>settings_brightness icon - Licensed under Apache License v2.0 (http://www.apache.org/licenses/LICENSE-2.0) - Created with Iconfu.com - Derivative work of Material icons (Copyright Google Inc.)</desc>
	<defs>
		<clipPath id="clip-mXtu44We">
			<path d="M981.33,213.33v597.34c0,46.93 -38.4,85.33 -85.33,85.33h-768c-46.93,0 -85.33,-38.4 -85.33,-85.33v-597.34c0,-46.93 38.4,-85.33 85.33,-85.33h768c46.93,0 85.33,38.4 85.33,85.33zM896,212.91h-768v598.18h768zM341.33,576l-64,-64l64,-64v-106.67h106.67l64,-64l64,64h106.67v106.67l64,64l-64,64v106.67h-106.67l-64,64l-64,-64h-106.67zM512,640c70.83,0 128,-57.17 128,-128c0,-70.83 -57.17,-128 -128,-128z"/>
		</clipPath>
		<radialGradient cx="0" cy="0" r="1448.15" id="color-4JHsGD09" gradientUnits="userSpaceOnUse">
			<stop offset="0.07" stop-color="#ffffff"/>
			<stop offset="0.75" stop-color="#000000"/>
		</radialGradient>
		<linearGradient x1="0" y1="1024" x2="1024" y2="0" id="color-OBe6dG06" gradientUnits="userSpaceOnUse">
			<stop offset="0.2" stop-color="#000000"/>
			<stop offset="0.8" stop-color="#ffffff"/>
		</linearGradient>
		<filter id="filter-kXZ8zjFI" x="0%" y="0%" width="100%" height="100%" color-interpolation-filters="sRGB">
			<feColorMatrix values="1 0 0 0 0 0 1 0 0 0 0 0 1 0 0 0 0 0 0.05 0" in="SourceGraphic"/>
			<feOffset dy="20"/>
			<feGaussianBlur stdDeviation="11" result="blur0"/>
			<feColorMatrix values="1 0 0 0 0 0 1 0 0 0 0 0 1 0 0 0 0 0 0.07 0" in="SourceGraphic"/>
			<feOffset dy="30"/>
			<feGaussianBlur stdDeviation="20" result="blur1"/>
			<feMerge>
				<feMergeNode in="blur0"/>
				<feMergeNode in="blur1"/>
			</feMerge>
		</filter>
		<filter id="filter-UKMCALGq" color-interpolation-filters="sRGB">
			<feOffset/>
		</filter>
		<mask id="mask-ll8VCStf">
			<path d="M981.33,213.33v597.34c0,46.93 -38.4,85.33 -85.33,85.33h-768c-46.93,0 -85.33,-38.4 -85.33,-85.33v-597.34c0,-46.93 38.4,-85.33 85.33,-85.33h768c46.93,0 85.33,38.4 85.33,85.33zM896,212.91h-768v598.18h768zM341.33,576l-64,-64l64,-64v-106.67h106.67l64,-64l64,64h106.67v106.67l64,64l-64,64v106.67h-106.67l-64,64l-64,-64h-106.67zM512,640c70.83,0 128,-57.17 128,-128c0,-70.83 -57.17,-128 -128,-128z" fill="url(#color-4JHsGD09)"/>
		</mask>
		<mask id="mask-pX05uato">
			<path d="M981.33,213.33v597.34c0,46.93 -38.4,85.33 -85.33,85.33h-768c-46.93,0 -85.33,-38.4 -85.33,-85.33v-597.34c0,-46.93 38.4,-85.33 85.33,-85.33h768c46.93,0 85.33,38.4 85.33,85.33zM896,212.91h-768v598.18h768zM341.33,576l-64,-64l64,-64v-106.67h106.67l64,-64l64,64h106.67v106.67l64,64l-64,64v106.67h-106.67l-64,64l-64,-64h-106.67zM512,640c70.83,0 128,-57.17 128,-128c0,-70.83 -57.17,-128 -128,-128z" fill="#ffffff"/>
		</mask>
		<mask id="mask-RdJAH5Iy">
			<rect fill="url(#color-OBe6dG06)" x="42.67" y="128" width="938.66" height="768"/>
		</mask>
	</defs>
	<g fill="none" fill-rule="nonzero" style="mix-blend-mode: normal">
		<g mask="url(#mask-pX05uato)">
			<g color="#ffc107" class="teamapps-color-2">
				<rect x="42.67" y="128" width="938.66" height="768" fill="currentColor"/>
			</g>
			<g color="#e65100" class="teamapps-color-3" mask="url(#mask-RdJAH5Iy)">
				<rect x="42.67" y="128" width="938.66" height="768" fill="currentColor"/>
			</g>
		</g>
		<g filter="url(#filter-UKMCALGq)" mask="url(#mask-ll8VCStf)">
			<g color="#fff59d" class="teamapps-color-1">
				<rect x="42.67" y="128" width="938.66" height="768" fill="currentColor"/>
			</g>
		</g>
		<g clip-path="url(#clip-mXtu44We)">
			<path d="M-50.33,939v-954h1124.66v954zM896,128h-768c-46.93,0 -85.33,38.4 -85.33,85.33v597.34c0,46.93 38.4,85.33 85.33,85.33h768c46.93,0 85.33,-38.4 85.33,-85.33v-597.34c0,-46.93 -38.4,-85.33 -85.33,-85.33zM896,811.09h-768v-598.18h768zM341.33,682.67h106.67l64,64l64,-64h106.67v-106.67l64,-64l-64,-64v-106.67h-106.67l-64,-64l-64,64h-106.67v106.67l-64,64l64,64zM512,384c70.83,0 128,57.17 128,128c0,70.83 -57.17,128 -128,128z" fill="#000000" filter="url(#filter-kXZ8zjFI)"/>
		</g>
	</g>
</svg>