<svg version="1.1" xmlns="http://www.w3.org/2000/svg" xmlns:xlink="http://www.w3.org/1999/xlink" viewBox="0,0,1024,1024">
	<!-- Color names: teamapps-color-1, teamapps-color-2, teamapps-color-3 -->
	<desc>settings_applications icon - Licensed under Apache License v2.0 (http://www.apache.org/licenses/LICENSE-2.0) - Created with Iconfu.com - Derivative work of Material icons (Copyright Google Inc.)</desc>
	<defs>
		<clipPath id="clip-OHpMH1Yt">
			<path d="M896,213.33v597.34c0,46.93 -37.97,85.33 -85.33,85.33h-597.34c-47.36,0 -85.33,-38.4 -85.33,-85.33v-597.34c0,-46.93 37.97,-85.33 85.33,-85.33h597.34c47.36,0 85.33,38.4 85.33,85.33zM733.87,482.56l63.14,-49.49c5.55,-4.69 7.26,-12.8 3.42,-19.2l-59.74,-103.26c-3.84,-6.4 -11.51,-8.96 -18.34,-6.4l-74.24,29.87c-15.36,-11.95 -32,-21.76 -50.35,-29.44l-11.09,-78.93c-1.28,-6.83 -7.69,-12.38 -14.94,-12.38h-119.46c-7.25,0 -13.66,5.55 -14.94,12.8l-11.09,78.94c-17.92,7.68 -34.99,17.49 -50.35,29.44l-74.24,-29.87c-6.83,-2.56 -14.5,0 -18.34,6.4l-59.74,103.25c-3.84,6.4 -2.13,14.51 3.42,19.2l63.14,49.5c-1.28,9.39 -2.13,19.2 -2.13,29.01c0,9.81 0.85,19.63 2.13,29.44l-63.14,49.49c-5.55,4.69 -7.26,12.8 -3.42,19.2l59.74,103.26c3.84,6.4 11.51,8.96 18.34,6.4l74.24,-29.87c15.36,11.95 32,21.76 50.35,29.44l11.09,78.93c1.28,6.83 7.69,12.38 14.94,12.38h119.46c7.25,0 13.66,-5.55 14.94,-12.8l11.09,-78.94c17.92,-7.68 34.99,-17.49 50.35,-29.44l74.24,29.87c6.83,2.56 14.5,0 18.34,-6.4l59.74,-103.25c3.84,-6.4 2.13,-14.51 -3.42,-19.2l-63.14,-49.5c1.28,-9.39 2.13,-19.2 2.13,-29.01c0,-9.81 -0.85,-19.63 -2.13,-29.44zM597.33,512c0,46.93 -38.4,85.33 -85.33,85.33c-46.93,0 -85.33,-38.4 -85.33,-85.33c0,-46.93 38.4,-85.33 85.33,-85.33c46.93,0 85.33,38.4 85.33,85.33z"/>
		</clipPath>
		<radialGradient cx="0" cy="0" r="1448.15" id="color-XAB93vTC" gradientUnits="userSpaceOnUse">
			<stop offset="0.07" stop-color="#ffffff"/>
			<stop offset="0.75" stop-color="#000000"/>
		</radialGradient>
		<linearGradient x1="0" y1="1024" x2="1024" y2="0" id="color-yzh3R9CF" gradientUnits="userSpaceOnUse">
			<stop offset="0.2" stop-color="#000000"/>
			<stop offset="0.8" stop-color="#ffffff"/>
		</linearGradient>
		<filter id="filter-1HprLzGe" color-interpolation-filters="sRGB">
			<feOffset/>
		</filter>
		<filter id="filter-63af6EBb" x="0%" y="0%" width="100%" height="100%" color-interpolation-filters="sRGB">
			<feColorMatrix values="1 0 0 0 0 0 1 0 0 0 0 0 1 0 0 0 0 0 0.05 0" in="SourceGraphic"/>
			<feOffset dy="20"/>
			<feGaussianBlur stdDeviation="11" result="blur0"/>
			<feColorMatrix values="1 0 0 0 0 0 1 0 0 0 0 0 1 0 0 0 0 0 0.07 0" in="SourceGraphic"/>
			<feOffset dy="30"/>
			<feGaussianBlur stdDeviation="20" result="blur1"/>
			<feMerge>
				<feMergeNode in="blur0"/>
				<feMergeNode in="blur1"/>
			</feMerge>
		</filter>
		<mask id="mask-eF9MJ51e">
			<rect fill="url(#color-yzh3R9CF)" x="128" y="128" width="768" height="768"/>
		</mask>
		<mask id="mask-N9GrCYtw">
			<path d="M896,213.33v597.34c0,46.93 -37.97,85.33 -85.33,85.33h-597.34c-47.36,0 -85.33,-38.4 -85.33,-85.33v-597.34c0,-46.93 37.97,-85.33 85.33,-85.33h597.34c47.36,0 85.33,38.4 85.33,85.33zM733.87,482.56l63.14,-49.49c5.55,-4.69 7.26,-12.8 3.42,-19.2l-59.74,-103.26c-3.84,-6.4 -11.51,-8.96 -18.34,-6.4l-74.24,29.87c-15.36,-11.95 -32,-21.76 -50.35,-29.44l-11.09,-78.93c-1.28,-6.83 -7.69,-12.38 -14.94,-12.38h-119.46c-7.25,0 -13.66,5.55 -14.94,12.8l-11.09,78.94c-17.92,7.68 -34.99,17.49 -50.35,29.44l-74.24,-29.87c-6.83,-2.56 -14.5,0 -18.34,6.4l-59.74,103.25c-3.84,6.4 -2.13,14.51 3.42,19.2l63.14,49.5c-1.28,9.39 -2.13,19.2 -2.13,29.01c0,9.81 0.85,19.63 2.13,29.44l-63.14,49.49c-5.55,4.69 -7.26,12.8 -3.42,19.2l59.74,103.26c3.84,6.4 11.51,8.96 18.34,6.4l74.24,-29.87c15.36,11.95 32,21.76 50.35,29.44l11.09,78.93c1.28,6.83 7.69,12.38 14.94,12.38h119.46c7.25,0 13.66,-5.55 14.94,-12.8l11.09,-78.94c17.92,-7.68 34.99,-17.49 50.35,-29.44l74.24,29.87c6.83,2.56 14.5,0 18.34,-6.4l59.74,-103.25c3.84,-6.4 2.13,-14.51 -3.42,-19.2l-63.14,-49.5c1.28,-9.39 2.13,-19.2 2.13,-29.01c0,-9.81 -0.85,-19.63 -2.13,-29.44zM597.33,512c0,46.93 -38.4,85.33 -85.33,85.33c-46.93,0 -85.33,-38.4 -85.33,-85.33c0,-46.93 38.4,-85.33 85.33,-85.33c46.93,0 85.33,38.4 85.33,85.33z" fill="#ffffff"/>
		</mask>
		<mask id="mask-uq2UyPXE">
			<path d="M896,213.33v597.34c0,46.93 -37.97,85.33 -85.33,85.33h-597.34c-47.36,0 -85.33,-38.4 -85.33,-85.33v-597.34c0,-46.93 37.97,-85.33 85.33,-85.33h597.34c47.36,0 85.33,38.4 85.33,85.33zM733.87,482.56l63.14,-49.49c5.55,-4.69 7.26,-12.8 3.42,-19.2l-59.74,-103.26c-3.84,-6.4 -11.51,-8.96 -18.34,-6.4l-74.24,29.87c-15.36,-11.95 -32,-21.76 -50.35,-29.44l-11.09,-78.93c-1.28,-6.83 -7.69,-12.38 -14.94,-12.38h-119.46c-7.25,0 -13.66,5.55 -14.94,12.8l-11.09,78.94c-17.92,7.68 -34.99,17.49 -50.35,29.44l-74.24,-29.87c-6.83,-2.56 -14.5,0 -18.34,6.4l-59.74,103.25c-3.84,6.4 -2.13,14.51 3.42,19.2l63.14,49.5c-1.28,9.39 -2.13,19.2 -2.13,29.01c0,9.81 0.85,19.63 2.13,29.44l-63.14,49.49c-5.55,4.69 -7.26,12.8 -3.42,19.2l59.74,103.26c3.84,6.4 11.51,8.96 18.34,6.4l74.24,-29.87c15.36,11.95 32,21.76 50.35,29.44l11.09,78.93c1.28,6.83 7.69,12.38 14.94,12.38h119.46c7.25,0 13.66,-5.55 14.94,-12.8l11.09,-78.94c17.92,-7.68 34.99,-17.49 50.35,-29.44l74.24,29.87c6.83,2.56 14.5,0 18.34,-6.4l59.74,-103.25c3.84,-6.4 2.13,-14.51 -3.42,-19.2l-63.14,-49.5c1.28,-9.39 2.13,-19.2 2.13,-29.01c0,-9.81 -0.85,-19.63 -2.13,-29.44zM597.33,512c0,46.93 -38.4,85.33 -85.33,85.33c-46.93,0 -85.33,-38.4 -85.33,-85.33c0,-46.93 38.4,-85.33 85.33,-85.33c46.93,0 85.33,38.4 85.33,85.33z" fill="url(#color-XAB93vTC)"/>
		</mask>
	</defs>
	<g fill="none" fill-rule="nonzero" style="mix-blend-mode: normal">
		<g mask="url(#mask-N9GrCYtw)">
			<g color="#ffc107" class="teamapps-color-2">
				<rect x="128" y="128" width="768" height="768" fill="currentColor"/>
			</g>
			<g color="#e65100" class="teamapps-color-3" mask="url(#mask-eF9MJ51e)">
				<rect x="128" y="128" width="768" height="768" fill="currentColor"/>
			</g>
		</g>
		<g filter="url(#filter-1HprLzGe)" mask="url(#mask-uq2UyPXE)">
			<g color="#fff59d" class="teamapps-color-1">
				<rect x="128" y="128" width="768" height="768" fill="currentColor"/>
			</g>
		</g>
		<g clip-path="url(#clip-OHpMH1Yt)">
			<path d="M35,939v-954h954v954zM810.67,128h-597.34c-47.36,0 -85.33,38.4 -85.33,85.33v597.34c0,46.93 37.97,85.33 85.33,85.33h597.34c47.36,0 85.33,-38.4 85.33,-85.33v-597.34c0,-46.93 -37.97,-85.33 -85.33,-85.33zM736,512c0,9.81 -0.85,19.62 -2.13,29.01l63.14,49.5c5.55,4.69 7.26,12.8 3.42,19.2l-59.74,103.25c-3.84,6.4 -11.51,8.96 -18.34,6.4l-74.24,-29.87c-15.36,11.95 -32.43,21.76 -50.35,29.44l-11.09,78.94c-1.28,7.25 -7.69,12.8 -14.94,12.8h-119.46c-7.25,0 -13.66,-5.55 -14.94,-12.38l-11.09,-78.93c-18.35,-7.68 -34.99,-17.49 -50.35,-29.44l-74.24,29.87c-6.83,2.56 -14.5,0 -18.34,-6.4l-59.74,-103.26c-3.84,-6.4 -2.13,-14.51 3.42,-19.2l63.14,-49.49c-1.28,-9.81 -2.13,-19.63 -2.13,-29.44c0,-9.81 0.85,-19.62 2.13,-29.01l-63.14,-49.5c-5.55,-4.69 -7.26,-12.8 -3.42,-19.2l59.74,-103.25c3.84,-6.4 11.51,-8.96 18.34,-6.4l74.24,29.87c15.36,-11.95 32.43,-21.76 50.35,-29.44l11.09,-78.94c1.28,-7.25 7.69,-12.8 14.94,-12.8h119.46c7.25,0 13.66,5.55 14.94,12.38l11.09,78.93c18.35,7.68 34.99,17.49 50.35,29.44l74.24,-29.87c6.83,-2.56 14.5,0 18.34,6.4l59.74,103.26c3.84,6.4 2.13,14.51 -3.42,19.2l-63.14,49.49c1.28,9.81 2.13,19.63 2.13,29.44zM512,426.67c-46.93,0 -85.33,38.4 -85.33,85.33c0,46.93 38.4,85.33 85.33,85.33c46.93,0 85.33,-38.4 85.33,-85.33c0,-46.93 -38.4,-85.33 -85.33,-85.33z" fill="#000000" filter="url(#filter-63af6EBb)"/>
		</g>
	</g>
</svg>