<svg version="1.1" xmlns="http://www.w3.org/2000/svg" xmlns:xlink="http://www.w3.org/1999/xlink" viewBox="0,0,1024,1024">
	<!-- Color names: teamapps-color-1, teamapps-color-2, teamapps-color-3 -->
	<desc>settings_backup_restore icon - Licensed under Apache License v2.0 (http://www.apache.org/licenses/LICENSE-2.0) - Created with Iconfu.com - Derivative work of Material icons (Copyright Google Inc.)</desc>
	<defs>
		<clipPath id="clip-UzEq0TX3">
			<path d="M896,512c0,212.05 -171.95,384 -384,384c-87.89,0 -168.96,-29.87 -233.81,-79.36l60.58,-61.44c49.07,34.56 108.8,55.47 173.23,55.47c165.12,0 298.67,-133.55 298.67,-298.67c0,-165.12 -133.55,-298.67 -298.67,-298.67c-165.12,0 -298.67,133.55 -298.67,298.67h128l-170.66,170.67l-170.67,-170.67h128c0,-212.05 171.95,-384 384,-384c212.05,0 384,171.95 384,384zM512,597.33c-46.93,0 -85.33,-38.4 -85.33,-85.33c0,-46.93 38.4,-85.33 85.33,-85.33c46.93,0 85.33,38.4 85.33,85.33c0,46.93 -38.4,85.33 -85.33,85.33z"/>
		</clipPath>
		<linearGradient x1="0" y1="1024" x2="1024" y2="0" id="color-6DsDLf0Z" gradientUnits="userSpaceOnUse">
			<stop offset="0.2" stop-color="#000000"/>
			<stop offset="0.8" stop-color="#ffffff"/>
		</linearGradient>
		<radialGradient cx="0" cy="0" r="1448.15" id="color-8vX76fqL" gradientUnits="userSpaceOnUse">
			<stop offset="0.07" stop-color="#ffffff"/>
			<stop offset="0.75" stop-color="#000000"/>
		</radialGradient>
		<filter id="filter-EfaSwXYL" x="0%" y="0%" width="100%" height="100%" color-interpolation-filters="sRGB">
			<feColorMatrix values="1 0 0 0 0 0 1 0 0 0 0 0 1 0 0 0 0 0 0.05 0" in="SourceGraphic"/>
			<feOffset dy="20"/>
			<feGaussianBlur stdDeviation="11" result="blur0"/>
			<feColorMatrix values="1 0 0 0 0 0 1 0 0 0 0 0 1 0 0 0 0 0 0.07 0" in="SourceGraphic"/>
			<feOffset dy="30"/>
			<feGaussianBlur stdDeviation="20" result="blur1"/>
			<feMerge>
				<feMergeNode in="blur0"/>
				<feMergeNode in="blur1"/>
			</feMerge>
		</filter>
		<filter id="filter-RxpAlG9G" color-interpolation-filters="sRGB">
			<feOffset/>
		</filter>
		<mask id="mask-o0fTSmPA">
			<path d="M896,512c0,212.05 -171.95,384 -384,384c-87.89,0 -168.96,-29.87 -233.81,-79.36l60.58,-61.44c49.07,34.56 108.8,55.47 173.23,55.47c165.12,0 298.67,-133.55 298.67,-298.67c0,-165.12 -133.55,-298.67 -298.67,-298.67c-165.12,0 -298.67,133.55 -298.67,298.67h128l-170.66,170.67l-170.67,-170.67h128c0,-212.05 171.95,-384 384,-384c212.05,0 384,171.95 384,384zM512,597.33c-46.93,0 -85.33,-38.4 -85.33,-85.33c0,-46.93 38.4,-85.33 85.33,-85.33c46.93,0 85.33,38.4 85.33,85.33c0,46.93 -38.4,85.33 -85.33,85.33z" fill="#ffffff"/>
		</mask>
		<mask id="mask-R88G9K4O">
			<path d="M896,512c0,212.05 -171.95,384 -384,384c-87.89,0 -168.96,-29.87 -233.81,-79.36l60.58,-61.44c49.07,34.56 108.8,55.47 173.23,55.47c165.12,0 298.67,-133.55 298.67,-298.67c0,-165.12 -133.55,-298.67 -298.67,-298.67c-165.12,0 -298.67,133.55 -298.67,298.67h128l-170.66,170.67l-170.67,-170.67h128c0,-212.05 171.95,-384 384,-384c212.05,0 384,171.95 384,384zM512,597.33c-46.93,0 -85.33,-38.4 -85.33,-85.33c0,-46.93 38.4,-85.33 85.33,-85.33c46.93,0 85.33,38.4 85.33,85.33c0,46.93 -38.4,85.33 -85.33,85.33z" fill="url(#color-8vX76fqL)"/>
		</mask>
		<mask id="mask-xvuIaOy8">
			<rect fill="url(#color-6DsDLf0Z)" x="0" y="128" width="896" height="768"/>
		</mask>
	</defs>
	<g fill="none" fill-rule="nonzero" style="mix-blend-mode: normal">
		<g mask="url(#mask-o0fTSmPA)">
			<g color="#ffc107" class="teamapps-color-2">
				<rect x="0" y="128" width="896" height="768" fill="currentColor"/>
			</g>
			<g color="#e65100" class="teamapps-color-3" mask="url(#mask-xvuIaOy8)">
				<rect x="0" y="128" width="896" height="768" fill="currentColor"/>
			</g>
		</g>
		<g filter="url(#filter-RxpAlG9G)" mask="url(#mask-R88G9K4O)">
			<g color="#fff59d" class="teamapps-color-1">
				<rect x="0" y="128" width="896" height="768" fill="currentColor"/>
			</g>
		</g>
		<g clip-path="url(#clip-UzEq0TX3)">
			<path d="M-93,939v-954h1082v954zM512,128c-212.05,0 -384,171.95 -384,384h-128l170.67,170.67l170.66,-170.67h-128c0,-165.12 133.55,-298.67 298.67,-298.67c165.12,0 298.67,133.55 298.67,298.67c0,165.12 -133.55,298.67 -298.67,298.67c-64.43,0 -124.16,-20.91 -173.23,-55.47l-60.58,61.44c64.85,49.49 145.92,79.36 233.81,79.36c212.05,0 384,-171.95 384,-384c0,-212.05 -171.95,-384 -384,-384zM597.33,512c0,-46.93 -38.4,-85.33 -85.33,-85.33c-46.93,0 -85.33,38.4 -85.33,85.33c0,46.93 38.4,85.33 85.33,85.33c46.93,0 85.33,-38.4 85.33,-85.33z" fill="#000000" filter="url(#filter-EfaSwXYL)"/>
		</g>
	</g>
</svg>