<svg version="1.1" xmlns="http://www.w3.org/2000/svg" xmlns:xlink="http://www.w3.org/1999/xlink" viewBox="0,0,1024,1024">
	<!-- Color names: teamapps-color-1, teamapps-color-2, teamapps-color-3 -->
	<desc>sim_card_alert icon - Licensed under Apache License v2.0 (http://www.apache.org/licenses/LICENSE-2.0) - Created with Iconfu.com - Derivative work of Material icons (Copyright Google Inc.)</desc>
	<defs>
		<clipPath id="clip-XQ21fv4N">
			<path d="M853.33,170.67v682.66c0,46.93 -38.4,85.34 -85.33,85.34h-512c-46.93,0 -85.33,-38.41 -85.33,-85.34l0.85,-512l255.15,-256h341.33c46.93,0 85.33,38.41 85.33,85.34zM554.67,341.33h-85.34v213.34h85.34zM554.67,640h-85.34v85.33h85.34z"/>
		</clipPath>
		<radialGradient cx="0" cy="0" r="1448.15" id="color-3xKkHQQs" gradientUnits="userSpaceOnUse">
			<stop offset="0.07" stop-color="#ffffff"/>
			<stop offset="0.75" stop-color="#000000"/>
		</radialGradient>
		<linearGradient x1="0" y1="1024" x2="1024" y2="0" id="color-NrS0qvGq" gradientUnits="userSpaceOnUse">
			<stop offset="0.2" stop-color="#000000"/>
			<stop offset="0.8" stop-color="#ffffff"/>
		</linearGradient>
		<filter id="filter-4Is05Svj" x="0%" y="0%" width="100%" height="100%" color-interpolation-filters="sRGB">
			<feColorMatrix values="1 0 0 0 0 0 1 0 0 0 0 0 1 0 0 0 0 0 0.05 0" in="SourceGraphic"/>
			<feOffset dy="20"/>
			<feGaussianBlur stdDeviation="11" result="blur0"/>
			<feColorMatrix values="1 0 0 0 0 0 1 0 0 0 0 0 1 0 0 0 0 0 0.07 0" in="SourceGraphic"/>
			<feOffset dy="30"/>
			<feGaussianBlur stdDeviation="20" result="blur1"/>
			<feMerge>
				<feMergeNode in="blur0"/>
				<feMergeNode in="blur1"/>
			</feMerge>
		</filter>
		<filter id="filter-ejtYdYnx" color-interpolation-filters="sRGB">
			<feOffset/>
		</filter>
		<mask id="mask-Cl6Eo418">
			<path d="M853.33,170.67v682.66c0,46.93 -38.4,85.34 -85.33,85.34h-512c-46.93,0 -85.33,-38.41 -85.33,-85.34l0.85,-512l255.15,-256h341.33c46.93,0 85.33,38.41 85.33,85.34zM554.67,341.33h-85.34v213.34h85.34zM554.67,640h-85.34v85.33h85.34z" fill="url(#color-3xKkHQQs)"/>
		</mask>
		<mask id="mask-JJRLuvC2">
			<path d="M853.33,170.67v682.66c0,46.93 -38.4,85.34 -85.33,85.34h-512c-46.93,0 -85.33,-38.41 -85.33,-85.34l0.85,-512l255.15,-256h341.33c46.93,0 85.33,38.41 85.33,85.34zM554.67,341.33h-85.34v213.34h85.34zM554.67,640h-85.34v85.33h85.34z" fill="#ffffff"/>
		</mask>
		<mask id="mask-x2LL48ym">
			<rect fill="url(#color-NrS0qvGq)" x="170.67" y="85.33" width="682.66" height="853.34"/>
		</mask>
	</defs>
	<g fill="none" fill-rule="nonzero" style="mix-blend-mode: normal">
		<g mask="url(#mask-JJRLuvC2)">
			<g color="#ffc107" class="teamapps-color-2">
				<rect x="170.67" y="85.33" width="682.66" height="853.34" fill="currentColor"/>
			</g>
			<g color="#e65100" class="teamapps-color-3" mask="url(#mask-x2LL48ym)">
				<rect x="170.67" y="85.33" width="682.66" height="853.34" fill="currentColor"/>
			</g>
		</g>
		<g filter="url(#filter-ejtYdYnx)" mask="url(#mask-Cl6Eo418)">
			<g color="#fff59d" class="teamapps-color-1">
				<rect x="170.67" y="85.33" width="682.66" height="853.34" fill="currentColor"/>
			</g>
		</g>
		<g clip-path="url(#clip-XQ21fv4N)">
			<path d="M77.67,981.67v-1039.34h868.66v1039.34zM768,85.33h-341.33l-255.15,256l-0.85,512c0,46.93 38.4,85.34 85.33,85.34h512c46.93,0 85.33,-38.41 85.33,-85.34v-682.66c0,-46.93 -38.4,-85.34 -85.33,-85.34zM554.67,554.67h-85.34v-213.34h85.34zM554.67,725.33h-85.34v-85.33h85.34z" fill="#000000" filter="url(#filter-4Is05Svj)"/>
		</g>
	</g>
</svg>