<svg version="1.1" xmlns="http://www.w3.org/2000/svg" xmlns:xlink="http://www.w3.org/1999/xlink" viewBox="0,0,1024,1024">
	<!-- Color names: teamapps-color-1, teamapps-color-2, teamapps-color-3 -->
	<desc>stars icon - Licensed under Apache License v2.0 (http://www.apache.org/licenses/LICENSE-2.0) - Created with Iconfu.com - Derivative work of Material icons (Copyright Google Inc.)</desc>
	<defs>
		<clipPath id="clip-ePm7QQMj">
			<path d="M938.67,512c0,235.52 -191.15,426.67 -427.1,426.67c-235.52,0 -426.24,-191.15 -426.24,-426.67c0,-235.52 190.72,-426.67 426.24,-426.67c235.95,0 427.1,191.15 427.1,426.67zM644.69,562.35l159.15,-137.82l-209.92,-17.92l-81.92,-193.28l-81.92,193.71l-209.92,17.92l159.15,137.81l-47.79,205.23l180.48,-108.8l180.48,108.8z"/>
		</clipPath>
		<radialGradient cx="0" cy="0" r="1448.15" id="color-vbKlo82j" gradientUnits="userSpaceOnUse">
			<stop offset="0.07" stop-color="#ffffff"/>
			<stop offset="0.75" stop-color="#000000"/>
		</radialGradient>
		<linearGradient x1="0" y1="1024" x2="1024" y2="0" id="color-ZjPNWZIg" gradientUnits="userSpaceOnUse">
			<stop offset="0.2" stop-color="#000000"/>
			<stop offset="0.8" stop-color="#ffffff"/>
		</linearGradient>
		<filter id="filter-5M50rWCQ" color-interpolation-filters="sRGB">
			<feOffset/>
		</filter>
		<filter id="filter-6w4klHRP" x="0%" y="0%" width="100%" height="100%" color-interpolation-filters="sRGB">
			<feColorMatrix values="1 0 0 0 0 0 1 0 0 0 0 0 1 0 0 0 0 0 0.05 0" in="SourceGraphic"/>
			<feOffset dy="20"/>
			<feGaussianBlur stdDeviation="11" result="blur0"/>
			<feColorMatrix values="1 0 0 0 0 0 1 0 0 0 0 0 1 0 0 0 0 0 0.07 0" in="SourceGraphic"/>
			<feOffset dy="30"/>
			<feGaussianBlur stdDeviation="20" result="blur1"/>
			<feMerge>
				<feMergeNode in="blur0"/>
				<feMergeNode in="blur1"/>
			</feMerge>
		</filter>
		<mask id="mask-eHSKCzj7">
			<rect fill="url(#color-ZjPNWZIg)" x="85.33" y="85.33" width="853.34" height="853.34"/>
		</mask>
		<mask id="mask-glHa3RzB">
			<path d="M938.67,512c0,235.52 -191.15,426.67 -427.1,426.67c-235.52,0 -426.24,-191.15 -426.24,-426.67c0,-235.52 190.72,-426.67 426.24,-426.67c235.95,0 427.1,191.15 427.1,426.67zM644.69,562.35l159.15,-137.82l-209.92,-17.92l-81.92,-193.28l-81.92,193.71l-209.92,17.92l159.15,137.81l-47.79,205.23l180.48,-108.8l180.48,108.8z" fill="url(#color-vbKlo82j)"/>
		</mask>
		<mask id="mask-WFs2we24">
			<path d="M938.67,512c0,235.52 -191.15,426.67 -427.1,426.67c-235.52,0 -426.24,-191.15 -426.24,-426.67c0,-235.52 190.72,-426.67 426.24,-426.67c235.95,0 427.1,191.15 427.1,426.67zM644.69,562.35l159.15,-137.82l-209.92,-17.92l-81.92,-193.28l-81.92,193.71l-209.92,17.92l159.15,137.81l-47.79,205.23l180.48,-108.8l180.48,108.8z" fill="#ffffff"/>
		</mask>
	</defs>
	<g fill="none" fill-rule="nonzero" style="mix-blend-mode: normal">
		<g mask="url(#mask-WFs2we24)">
			<g color="#ffc107" class="teamapps-color-2">
				<rect x="85.33" y="85.33" width="853.34" height="853.34" fill="currentColor"/>
			</g>
			<g color="#e65100" class="teamapps-color-3" mask="url(#mask-eHSKCzj7)">
				<rect x="85.33" y="85.33" width="853.34" height="853.34" fill="currentColor"/>
			</g>
		</g>
		<g filter="url(#filter-5M50rWCQ)" mask="url(#mask-glHa3RzB)">
			<g color="#fff59d" class="teamapps-color-1">
				<rect x="85.33" y="85.33" width="853.34" height="853.34" fill="currentColor"/>
			</g>
		</g>
		<g clip-path="url(#clip-ePm7QQMj)">
			<path d="M-7.67,981.67v-1039.34h1039.34v1039.34zM511.57,85.33c-235.52,0 -426.24,191.15 -426.24,426.67c0,235.52 190.72,426.67 426.24,426.67c235.95,0 427.1,-191.15 427.1,-426.67c0,-235.52 -191.15,-426.67 -427.1,-426.67zM692.48,768l-180.48,-108.8l-180.48,108.8l47.79,-205.23l-159.15,-137.81l209.92,-17.92l81.92,-193.71l81.92,193.28l209.92,17.92l-159.15,137.82z" fill="#000000" filter="url(#filter-6w4klHRP)"/>
		</g>
	</g>
</svg>