<svg version="1.1" xmlns="http://www.w3.org/2000/svg" xmlns:xlink="http://www.w3.org/1999/xlink" viewBox="0,0,1024,1024">
	<!-- Color names: teamapps-color-1, teamapps-color-2, teamapps-color-3 -->
	<desc>storage icon - Licensed under Apache License v2.0 (http://www.apache.org/licenses/LICENSE-2.0) - Created with Iconfu.com - Derivative work of Material icons (Copyright Google Inc.)</desc>
	<defs>
		<clipPath id="clip-15JYrx5r">
			<path d="M938.67,170.67v170.66h-853.34v-170.66zM85.33,682.67h853.34v170.66h-853.34zM85.33,426.67h853.34v170.66h-853.34zM170.67,810.67h85.33v-85.34h-85.33zM256,213.33h-85.33v85.34h85.33zM170.67,554.67h85.33v-85.34h-85.33z"/>
		</clipPath>
		<linearGradient x1="0" y1="1024" x2="1024" y2="0" id="color-gCB3bSFc" gradientUnits="userSpaceOnUse">
			<stop offset="0.2" stop-color="#000000"/>
			<stop offset="0.8" stop-color="#ffffff"/>
		</linearGradient>
		<radialGradient cx="0" cy="0" r="1448.15" id="color-yBRlGsab" gradientUnits="userSpaceOnUse">
			<stop offset="0.07" stop-color="#ffffff"/>
			<stop offset="0.75" stop-color="#000000"/>
		</radialGradient>
		<filter id="filter-Or6IGEFr" color-interpolation-filters="sRGB">
			<feOffset/>
		</filter>
		<filter id="filter-uQqiVwrN" x="0%" y="0%" width="100%" height="100%" color-interpolation-filters="sRGB">
			<feColorMatrix values="1 0 0 0 0 0 1 0 0 0 0 0 1 0 0 0 0 0 0.05 0" in="SourceGraphic"/>
			<feOffset dy="20"/>
			<feGaussianBlur stdDeviation="11" result="blur0"/>
			<feColorMatrix values="1 0 0 0 0 0 1 0 0 0 0 0 1 0 0 0 0 0 0.07 0" in="SourceGraphic"/>
			<feOffset dy="30"/>
			<feGaussianBlur stdDeviation="20" result="blur1"/>
			<feMerge>
				<feMergeNode in="blur0"/>
				<feMergeNode in="blur1"/>
			</feMerge>
		</filter>
		<mask id="mask-6oDkoYsA">
			<rect fill="url(#color-gCB3bSFc)" x="85.33" y="170.67" width="853.34" height="682.66"/>
		</mask>
		<mask id="mask-8xPwGmmk">
			<path d="M938.67,170.67v170.66h-853.34v-170.66zM85.33,682.67h853.34v170.66h-853.34zM85.33,426.67h853.34v170.66h-853.34zM170.67,810.67h85.33v-85.34h-85.33zM256,213.33h-85.33v85.34h85.33zM170.67,554.67h85.33v-85.34h-85.33z" fill="url(#color-yBRlGsab)"/>
		</mask>
		<mask id="mask-nWjYJ3rh">
			<path d="M938.67,170.67v170.66h-853.34v-170.66zM85.33,682.67h853.34v170.66h-853.34zM85.33,426.67h853.34v170.66h-853.34zM170.67,810.67h85.33v-85.34h-85.33zM256,213.33h-85.33v85.34h85.33zM170.67,554.67h85.33v-85.34h-85.33z" fill="#ffffff"/>
		</mask>
	</defs>
	<g fill="none" fill-rule="nonzero" style="mix-blend-mode: normal">
		<g mask="url(#mask-nWjYJ3rh)">
			<g color="#ffc107" class="teamapps-color-2">
				<rect x="85.33" y="170.67" width="853.34" height="682.66" fill="currentColor"/>
			</g>
			<g color="#e65100" class="teamapps-color-3" mask="url(#mask-6oDkoYsA)">
				<rect x="85.33" y="170.67" width="853.34" height="682.66" fill="currentColor"/>
			</g>
		</g>
		<g filter="url(#filter-Or6IGEFr)" mask="url(#mask-8xPwGmmk)">
			<g color="#fff59d" class="teamapps-color-1">
				<rect x="85.33" y="170.67" width="853.34" height="682.66" fill="currentColor"/>
			</g>
		</g>
		<g clip-path="url(#clip-15JYrx5r)">
			<path d="M-7.67,896.33v-868.66h1039.34v868.66zM85.33,170.67v170.66h853.34v-170.66zM85.33,853.33h853.34v-170.66h-853.34zM85.33,597.33h853.34v-170.66h-853.34zM170.67,725.33h85.33v85.34h-85.33zM256,298.67h-85.33v-85.34h85.33zM170.67,469.33h85.33v85.34h-85.33z" fill="#000000" filter="url(#filter-uQqiVwrN)"/>
		</g>
	</g>
</svg>