<svg version="1.1" xmlns="http://www.w3.org/2000/svg" xmlns:xlink="http://www.w3.org/1999/xlink" viewBox="0,0,1024,1024">
	<!-- Color names: teamapps-color-1, teamapps-color-2, teamapps-color-3 -->
	<desc>thumb_down icon - Licensed under Apache License v2.0 (http://www.apache.org/licenses/LICENSE-2.0) - Created with Iconfu.com - Derivative work of Material icons (Copyright Google Inc.)</desc>
	<defs>
		<clipPath id="clip-FT6rPCeF">
			<path d="M725.33,213.33v426.67c0,23.47 -9.38,44.8 -24.74,60.16l-281.18,281.17l-45.22,-44.8c-11.52,-11.52 -18.78,-27.73 -18.78,-45.22l1.28,-13.66l40.54,-194.98h-269.23c-46.93,0 -85.33,-38.41 -85.33,-85.34l0.42,-3.41l-0.42,-0.43v-81.49c0,-11.09 2.13,-21.34 5.97,-31.15l128.85,-300.8c12.8,-30.72 43.1,-52.05 78.51,-52.05h384c46.93,0 85.33,38.4 85.33,85.33zM981.33,128v512h-170.66v-512z"/>
		</clipPath>
		<radialGradient cx="0" cy="0" r="1448.15" id="color-aP6Mr7qL" gradientUnits="userSpaceOnUse">
			<stop offset="0.07" stop-color="#ffffff"/>
			<stop offset="0.75" stop-color="#000000"/>
		</radialGradient>
		<linearGradient x1="0" y1="1024" x2="1024" y2="0" id="color-eF1gwxPk" gradientUnits="userSpaceOnUse">
			<stop offset="0.2" stop-color="#000000"/>
			<stop offset="0.8" stop-color="#ffffff"/>
		</linearGradient>
		<filter id="filter-0BBFhtsI" x="0%" y="0%" width="100%" height="100%" color-interpolation-filters="sRGB">
			<feColorMatrix values="1 0 0 0 0 0 1 0 0 0 0 0 1 0 0 0 0 0 0.05 0" in="SourceGraphic"/>
			<feOffset dy="20"/>
			<feGaussianBlur stdDeviation="11" result="blur0"/>
			<feColorMatrix values="1 0 0 0 0 0 1 0 0 0 0 0 1 0 0 0 0 0 0.07 0" in="SourceGraphic"/>
			<feOffset dy="30"/>
			<feGaussianBlur stdDeviation="20" result="blur1"/>
			<feMerge>
				<feMergeNode in="blur0"/>
				<feMergeNode in="blur1"/>
			</feMerge>
		</filter>
		<filter id="filter-iteQnmAl" color-interpolation-filters="sRGB">
			<feOffset/>
		</filter>
		<mask id="mask-2JZtdX3q">
			<path d="M725.33,213.33v426.67c0,23.47 -9.38,44.8 -24.74,60.16l-281.18,281.17l-45.22,-44.8c-11.52,-11.52 -18.78,-27.73 -18.78,-45.22l1.28,-13.66l40.54,-194.98h-269.23c-46.93,0 -85.33,-38.41 -85.33,-85.34l0.42,-3.41l-0.42,-0.43v-81.49c0,-11.09 2.13,-21.34 5.97,-31.15l128.85,-300.8c12.8,-30.72 43.1,-52.05 78.51,-52.05h384c46.93,0 85.33,38.4 85.33,85.33zM981.33,128v512h-170.66v-512z" fill="url(#color-aP6Mr7qL)"/>
		</mask>
		<mask id="mask-B9LJfyAC">
			<path d="M725.33,213.33v426.67c0,23.47 -9.38,44.8 -24.74,60.16l-281.18,281.17l-45.22,-44.8c-11.52,-11.52 -18.78,-27.73 -18.78,-45.22l1.28,-13.66l40.54,-194.98h-269.23c-46.93,0 -85.33,-38.41 -85.33,-85.34l0.42,-3.41l-0.42,-0.43v-81.49c0,-11.09 2.13,-21.34 5.97,-31.15l128.85,-300.8c12.8,-30.72 43.1,-52.05 78.51,-52.05h384c46.93,0 85.33,38.4 85.33,85.33zM981.33,128v512h-170.66v-512z" fill="#ffffff"/>
		</mask>
		<mask id="mask-YiTpTyGc">
			<rect fill="url(#color-eF1gwxPk)" x="42.67" y="128" width="938.66" height="853.33"/>
		</mask>
	</defs>
	<g fill="none" fill-rule="nonzero" style="mix-blend-mode: normal">
		<g mask="url(#mask-B9LJfyAC)">
			<g color="#ffc107" class="teamapps-color-2">
				<rect x="42.67" y="128" width="938.66" height="853.33" fill="currentColor"/>
			</g>
			<g color="#e65100" class="teamapps-color-3" mask="url(#mask-YiTpTyGc)">
				<rect x="42.67" y="128" width="938.66" height="853.33" fill="currentColor"/>
			</g>
		</g>
		<g filter="url(#filter-iteQnmAl)" mask="url(#mask-2JZtdX3q)">
			<g color="#fff59d" class="teamapps-color-1">
				<rect x="42.67" y="128" width="938.66" height="853.33" fill="currentColor"/>
			</g>
		</g>
		<g clip-path="url(#clip-FT6rPCeF)">
			<path d="M-50.33,1024.33v-1039.33h1124.66v1039.33zM640,128h-384c-35.41,0 -65.71,21.33 -78.51,52.05l-128.85,300.8c-3.84,9.81 -5.97,20.06 -5.97,31.15v81.49l0.42,0.43l-0.42,3.41c0,46.93 38.4,85.34 85.33,85.34h269.23l-40.54,194.98l-1.28,13.66c0,17.49 7.26,33.7 18.78,45.22l45.22,44.8l281.18,-281.17c15.36,-15.36 24.74,-36.69 24.74,-60.16v-426.67c0,-46.93 -38.4,-85.33 -85.33,-85.33zM810.67,128v512h170.66v-512z" fill="#000000" filter="url(#filter-0BBFhtsI)"/>
		</g>
	</g>
</svg>