<svg version="1.1" xmlns="http://www.w3.org/2000/svg" xmlns:xlink="http://www.w3.org/1999/xlink" viewBox="0,0,1024,1024">
	<!-- Color names: teamapps-color-1, teamapps-color-2, teamapps-color-3 -->
	<desc>toys icon - Licensed under Apache License v2.0 (http://www.apache.org/licenses/LICENSE-2.0) - Created with Iconfu.com - Derivative work of Material icons (Copyright Google Inc.)</desc>
	<defs>
		<clipPath id="clip-UjZeCDZR">
			<path d="M277.33,277.33c0,-128 106.67,-234.66 234.67,-234.66v469.33c0,-128 106.67,-234.67 234.67,-234.67c128,0 234.66,106.67 234.66,234.67h-469.33c0,128 -106.67,234.67 -234.67,234.67c-128,0 -234.66,-106.67 -234.66,-234.67h469.33c128,0 234.67,106.67 234.67,234.67c0,128 -106.67,234.66 -234.67,234.66v-469.33c-128,0 -234.67,-106.67 -234.67,-234.67z"/>
		</clipPath>
		<radialGradient cx="0" cy="0" r="1448.15" id="color-8uTyDbE5" gradientUnits="userSpaceOnUse">
			<stop offset="0.07" stop-color="#ffffff"/>
			<stop offset="0.75" stop-color="#000000"/>
		</radialGradient>
		<linearGradient x1="0" y1="1024" x2="1024" y2="0" id="color-axl55GyD" gradientUnits="userSpaceOnUse">
			<stop offset="0.2" stop-color="#000000"/>
			<stop offset="0.8" stop-color="#ffffff"/>
		</linearGradient>
		<filter id="filter-FVARjgjL" x="0%" y="0%" width="100%" height="100%" color-interpolation-filters="sRGB">
			<feColorMatrix values="1 0 0 0 0 0 1 0 0 0 0 0 1 0 0 0 0 0 0.05 0" in="SourceGraphic"/>
			<feOffset dy="20"/>
			<feGaussianBlur stdDeviation="11" result="blur0"/>
			<feColorMatrix values="1 0 0 0 0 0 1 0 0 0 0 0 1 0 0 0 0 0 0.07 0" in="SourceGraphic"/>
			<feOffset dy="30"/>
			<feGaussianBlur stdDeviation="20" result="blur1"/>
			<feMerge>
				<feMergeNode in="blur0"/>
				<feMergeNode in="blur1"/>
			</feMerge>
		</filter>
		<filter id="filter-O4kBQvOX" color-interpolation-filters="sRGB">
			<feOffset/>
		</filter>
		<mask id="mask-4fJBSdxy">
			<rect fill="url(#color-axl55GyD)" x="42.67" y="42.67" width="938.66" height="938.66"/>
		</mask>
		<mask id="mask-dYfA8y8I">
			<path d="M277.33,277.33c0,-128 106.67,-234.66 234.67,-234.66v469.33c0,-128 106.67,-234.67 234.67,-234.67c128,0 234.66,106.67 234.66,234.67h-469.33c0,128 -106.67,234.67 -234.67,234.67c-128,0 -234.66,-106.67 -234.66,-234.67h469.33c128,0 234.67,106.67 234.67,234.67c0,128 -106.67,234.66 -234.67,234.66v-469.33c-128,0 -234.67,-106.67 -234.67,-234.67z" fill="#ffffff"/>
		</mask>
		<mask id="mask-M7Gt3EEd">
			<path d="M277.33,277.33c0,-128 106.67,-234.66 234.67,-234.66v469.33c0,-128 106.67,-234.67 234.67,-234.67c128,0 234.66,106.67 234.66,234.67h-469.33c0,128 -106.67,234.67 -234.67,234.67c-128,0 -234.66,-106.67 -234.66,-234.67h469.33c128,0 234.67,106.67 234.67,234.67c0,128 -106.67,234.66 -234.67,234.66v-469.33c-128,0 -234.67,-106.67 -234.67,-234.67z" fill="url(#color-8uTyDbE5)"/>
		</mask>
	</defs>
	<g fill="none" fill-rule="nonzero" style="mix-blend-mode: normal">
		<g mask="url(#mask-dYfA8y8I)">
			<g color="#ffc107" class="teamapps-color-2">
				<rect x="42.67" y="42.67" width="938.66" height="938.66" fill="currentColor"/>
			</g>
			<g color="#e65100" class="teamapps-color-3" mask="url(#mask-4fJBSdxy)">
				<rect x="42.67" y="42.67" width="938.66" height="938.66" fill="currentColor"/>
			</g>
		</g>
		<g filter="url(#filter-O4kBQvOX)" mask="url(#mask-M7Gt3EEd)">
			<g color="#fff59d" class="teamapps-color-1">
				<rect x="42.67" y="42.67" width="938.66" height="938.66" fill="currentColor"/>
			</g>
		</g>
		<g clip-path="url(#clip-UjZeCDZR)">
			<path d="M-50.33,1024.33v-1124.66h1124.66v1124.66zM512,512h469.33c0,-128 -106.66,-234.67 -234.66,-234.67c-128,0 -234.67,106.67 -234.67,234.67v-469.33c-128,0 -234.67,106.66 -234.67,234.66c0,128 106.67,234.67 234.67,234.67zM512,512h-469.33c0,128 106.66,234.67 234.66,234.67c128,0 234.67,-106.67 234.67,-234.67zM512,512v469.33c128,0 234.67,-106.66 234.67,-234.66c0,-128 -106.67,-234.67 -234.67,-234.67z" fill="#000000" filter="url(#filter-FVARjgjL)"/>
		</g>
	</g>
</svg>