<svg version="1.1" xmlns="http://www.w3.org/2000/svg" xmlns:xlink="http://www.w3.org/1999/xlink" viewBox="0,0,1024,1024">
	<!-- Color names: teamapps-color-1, teamapps-color-2, teamapps-color-3 -->
	<desc>wc icon - Licensed under Apache License v2.0 (http://www.apache.org/licenses/LICENSE-2.0) - Created with Iconfu.com - Derivative work of Material icons (Copyright Google Inc.)</desc>
	<defs>
		<clipPath id="clip-3fdLHO5l">
			<path d="M640,938.67v-256h-128l108.37,-325.55c11.52,-34.99 44.38,-58.45 81.07,-58.45h5.12c36.69,0 69.12,23.46 81.07,58.45l108.37,325.55h-128v256zM234.67,938.67v-320h-64v-234.67c0,-46.93 38.4,-85.33 85.33,-85.33h128c46.93,0 85.33,38.4 85.33,85.33v234.67h-64v320zM234.67,170.67c0,-47.36 37.97,-85.34 85.33,-85.34c47.36,0 85.33,37.98 85.33,85.34c0,47.36 -37.97,85.33 -85.33,85.33c-47.36,0 -85.33,-37.97 -85.33,-85.33zM618.67,170.67c0,-47.36 37.97,-85.34 85.33,-85.34c47.36,0 85.33,37.98 85.33,85.34c0,47.36 -37.97,85.33 -85.33,85.33c-47.36,0 -85.33,-37.97 -85.33,-85.33z"/>
		</clipPath>
		<linearGradient x1="0" y1="1024" x2="1024" y2="0" id="color-971ygApk" gradientUnits="userSpaceOnUse">
			<stop offset="0.2" stop-color="#000000"/>
			<stop offset="0.8" stop-color="#ffffff"/>
		</linearGradient>
		<radialGradient cx="0" cy="0" r="1448.15" id="color-WAHXKMIz" gradientUnits="userSpaceOnUse">
			<stop offset="0.07" stop-color="#ffffff"/>
			<stop offset="0.75" stop-color="#000000"/>
		</radialGradient>
		<filter id="filter-pZkKpfIY" x="0%" y="0%" width="100%" height="100%" color-interpolation-filters="sRGB">
			<feColorMatrix values="1 0 0 0 0 0 1 0 0 0 0 0 1 0 0 0 0 0 0.05 0" in="SourceGraphic"/>
			<feOffset dy="20"/>
			<feGaussianBlur stdDeviation="11" result="blur0"/>
			<feColorMatrix values="1 0 0 0 0 0 1 0 0 0 0 0 1 0 0 0 0 0 0.07 0" in="SourceGraphic"/>
			<feOffset dy="30"/>
			<feGaussianBlur stdDeviation="20" result="blur1"/>
			<feMerge>
				<feMergeNode in="blur0"/>
				<feMergeNode in="blur1"/>
			</feMerge>
		</filter>
		<filter id="filter-Y6OEarPs" color-interpolation-filters="sRGB">
			<feOffset/>
		</filter>
		<mask id="mask-77YaOBLf">
			<path d="M640,938.67v-256h-128l108.37,-325.55c11.52,-34.99 44.38,-58.45 81.07,-58.45h5.12c36.69,0 69.12,23.46 81.07,58.45l108.37,325.55h-128v256zM234.67,938.67v-320h-64v-234.67c0,-46.93 38.4,-85.33 85.33,-85.33h128c46.93,0 85.33,38.4 85.33,85.33v234.67h-64v320zM234.67,170.67c0,-47.36 37.97,-85.34 85.33,-85.34c47.36,0 85.33,37.98 85.33,85.34c0,47.36 -37.97,85.33 -85.33,85.33c-47.36,0 -85.33,-37.97 -85.33,-85.33zM618.67,170.67c0,-47.36 37.97,-85.34 85.33,-85.34c47.36,0 85.33,37.98 85.33,85.34c0,47.36 -37.97,85.33 -85.33,85.33c-47.36,0 -85.33,-37.97 -85.33,-85.33z" fill="#ffffff"/>
		</mask>
		<mask id="mask-l0pXDdGK">
			<path d="M640,938.67v-256h-128l108.37,-325.55c11.52,-34.99 44.38,-58.45 81.07,-58.45h5.12c36.69,0 69.12,23.46 81.07,58.45l108.37,325.55h-128v256zM234.67,938.67v-320h-64v-234.67c0,-46.93 38.4,-85.33 85.33,-85.33h128c46.93,0 85.33,38.4 85.33,85.33v234.67h-64v320zM234.67,170.67c0,-47.36 37.97,-85.34 85.33,-85.34c47.36,0 85.33,37.98 85.33,85.34c0,47.36 -37.97,85.33 -85.33,85.33c-47.36,0 -85.33,-37.97 -85.33,-85.33zM618.67,170.67c0,-47.36 37.97,-85.34 85.33,-85.34c47.36,0 85.33,37.98 85.33,85.34c0,47.36 -37.97,85.33 -85.33,85.33c-47.36,0 -85.33,-37.97 -85.33,-85.33z" fill="url(#color-WAHXKMIz)"/>
		</mask>
		<mask id="mask-MTfartld">
			<rect fill="url(#color-971ygApk)" x="170.67" y="85.33" width="725.33" height="853.34"/>
		</mask>
	</defs>
	<g fill="none" fill-rule="nonzero" style="mix-blend-mode: normal">
		<g mask="url(#mask-77YaOBLf)">
			<g color="#ffc107" class="teamapps-color-2">
				<rect x="170.67" y="85.33" width="725.33" height="853.34" fill="currentColor"/>
			</g>
			<g color="#e65100" class="teamapps-color-3" mask="url(#mask-MTfartld)">
				<rect x="170.67" y="85.33" width="725.33" height="853.34" fill="currentColor"/>
			</g>
		</g>
		<g filter="url(#filter-Y6OEarPs)" mask="url(#mask-l0pXDdGK)">
			<g color="#fff59d" class="teamapps-color-1">
				<rect x="170.67" y="85.33" width="725.33" height="853.34" fill="currentColor"/>
			</g>
		</g>
		<g clip-path="url(#clip-3fdLHO5l)">
			<path d="M77.67,981.67v-1039.34h911.33v1039.34zM768,938.67v-256h128l-108.37,-325.55c-11.95,-34.99 -44.38,-58.45 -81.07,-58.45h-5.12c-36.69,0 -69.55,23.46 -81.07,58.45l-108.37,325.55h128v256zM405.33,938.67v-320h64v-234.67c0,-46.93 -38.4,-85.33 -85.33,-85.33h-128c-46.93,0 -85.33,38.4 -85.33,85.33v234.67h64v320zM320,256c47.36,0 85.33,-37.97 85.33,-85.33c0,-47.36 -37.97,-85.34 -85.33,-85.34c-47.36,0 -85.33,37.98 -85.33,85.34c0,47.36 37.97,85.33 85.33,85.33zM704,256c47.36,0 85.33,-37.97 85.33,-85.33c0,-47.36 -37.97,-85.34 -85.33,-85.34c-47.36,0 -85.33,37.98 -85.33,85.34c0,47.36 37.97,85.33 85.33,85.33z" fill="#000000" filter="url(#filter-pZkKpfIY)"/>
		</g>
	</g>
</svg>