<svg version="1.1" xmlns="http://www.w3.org/2000/svg" xmlns:xlink="http://www.w3.org/1999/xlink" viewBox="0,0,1024,1024">
	<!-- Color names: teamapps-color-1, teamapps-color-2, teamapps-color-3 -->
	<desc>zoom_out_map icon - Licensed under Apache License v2.0 (http://www.apache.org/licenses/LICENSE-2.0) - Created with Iconfu.com - Derivative work of Material icons (Copyright Google Inc.)</desc>
	<defs>
		<clipPath id="clip-8J0xdSZZ">
			<path d="M896,896h-256l98.13,-98.13l-123.3,-122.46l60.58,-60.58l122.46,123.3l98.13,-98.13zM896,128v256l-98.13,-98.13l-122.46,123.3l-60.58,-60.58l123.3,-122.46l-98.13,-98.13zM128,896v-256l98.13,98.13l122.46,-123.3l60.58,60.58l-123.3,122.46l98.13,98.13zM128,128h256l-98.13,98.13l123.3,122.46l-60.58,60.58l-122.46,-123.3l-98.13,98.13z"/>
		</clipPath>
		<linearGradient x1="0" y1="1024" x2="1024" y2="0" id="color-4MOctn3x" gradientUnits="userSpaceOnUse">
			<stop offset="0.2" stop-color="#000000"/>
			<stop offset="0.8" stop-color="#ffffff"/>
		</linearGradient>
		<radialGradient cx="0" cy="0" r="1448.15" id="color-tNumN3N4" gradientUnits="userSpaceOnUse">
			<stop offset="0.07" stop-color="#ffffff"/>
			<stop offset="0.75" stop-color="#000000"/>
		</radialGradient>
		<filter id="filter-08FpCPlf" color-interpolation-filters="sRGB">
			<feOffset/>
		</filter>
		<filter id="filter-ePELeF9N" x="0%" y="0%" width="100%" height="100%" color-interpolation-filters="sRGB">
			<feColorMatrix values="1 0 0 0 0 0 1 0 0 0 0 0 1 0 0 0 0 0 0.05 0" in="SourceGraphic"/>
			<feOffset dy="20"/>
			<feGaussianBlur stdDeviation="11" result="blur0"/>
			<feColorMatrix values="1 0 0 0 0 0 1 0 0 0 0 0 1 0 0 0 0 0 0.07 0" in="SourceGraphic"/>
			<feOffset dy="30"/>
			<feGaussianBlur stdDeviation="20" result="blur1"/>
			<feMerge>
				<feMergeNode in="blur0"/>
				<feMergeNode in="blur1"/>
			</feMerge>
		</filter>
		<mask id="mask-CazsIvoe">
			<rect fill="url(#color-4MOctn3x)" x="128" y="128" width="768" height="768"/>
		</mask>
		<mask id="mask-NVTVsz5w">
			<path d="M896,896h-256l98.13,-98.13l-123.3,-122.46l60.58,-60.58l122.46,123.3l98.13,-98.13zM896,128v256l-98.13,-98.13l-122.46,123.3l-60.58,-60.58l123.3,-122.46l-98.13,-98.13zM128,896v-256l98.13,98.13l122.46,-123.3l60.58,60.58l-123.3,122.46l98.13,98.13zM128,128h256l-98.13,98.13l123.3,122.46l-60.58,60.58l-122.46,-123.3l-98.13,98.13z" fill="#ffffff"/>
		</mask>
		<mask id="mask-uQAYp6ay">
			<path d="M896,896h-256l98.13,-98.13l-123.3,-122.46l60.58,-60.58l122.46,123.3l98.13,-98.13zM896,128v256l-98.13,-98.13l-122.46,123.3l-60.58,-60.58l123.3,-122.46l-98.13,-98.13zM128,896v-256l98.13,98.13l122.46,-123.3l60.58,60.58l-123.3,122.46l98.13,98.13zM128,128h256l-98.13,98.13l123.3,122.46l-60.58,60.58l-122.46,-123.3l-98.13,98.13z" fill="url(#color-tNumN3N4)"/>
		</mask>
	</defs>
	<g fill="none" fill-rule="nonzero" style="mix-blend-mode: normal">
		<g mask="url(#mask-NVTVsz5w)">
			<g color="#ffc107" class="teamapps-color-2">
				<rect x="128" y="128" width="768" height="768" fill="currentColor"/>
			</g>
			<g color="#e65100" class="teamapps-color-3" mask="url(#mask-CazsIvoe)">
				<rect x="128" y="128" width="768" height="768" fill="currentColor"/>
			</g>
		</g>
		<g filter="url(#filter-08FpCPlf)" mask="url(#mask-uQAYp6ay)">
			<g color="#fff59d" class="teamapps-color-1">
				<rect x="128" y="128" width="768" height="768" fill="currentColor"/>
			</g>
		</g>
		<g clip-path="url(#clip-8J0xdSZZ)">
			<path d="M35,939v-954h954v954zM896,640l-98.13,98.13l-122.46,-123.3l-60.58,60.58l123.3,122.46l-98.13,98.13h256zM640,128l98.13,98.13l-123.3,122.46l60.58,60.58l122.46,-123.3l98.13,98.13v-256zM384,896l-98.13,-98.13l123.3,-122.46l-60.58,-60.58l-122.46,123.3l-98.13,-98.13v256zM128,384l98.13,-98.13l122.46,123.3l60.58,-60.58l-123.3,-122.46l98.13,-98.13h-256z" fill="#000000" filter="url(#filter-ePELeF9N)"/>
		</g>
	</g>
</svg>