<svg version="1.1" xmlns="http://www.w3.org/2000/svg" xmlns:xlink="http://www.w3.org/1999/xlink" viewBox="0,0,1024,1024">
	<!-- Color names: teamapps-color-1 -->
	<desc>ac_unit icon - Licensed under Apache License v2.0 (http://www.apache.org/licenses/LICENSE-2.0) - Created with Iconfu.com - Derivative work of Material icons (Copyright Google Inc.)</desc>
	<defs>
		<clipPath id="clip-IakxjbNf">
			<path d="M39.26,89.26h945.47v934.74h-945.47z"/>
		</clipPath>
		<filter id="filter-0VqnD7IS" x="-13%" y="-6%" width="143%" height="143%" color-interpolation-filters="sRGB">
			<feColorMatrix values="1 0 0 0 0 0 1 0 0 0 0 0 1 0 0 0 0 0 0.2 0" in="SourceGraphic"/>
			<feOffset dy="20"/>
			<feGaussianBlur stdDeviation="11" result="blur0"/>
			<feColorMatrix values="1 0 0 0 0 0 1 0 0 0 0 0 1 0 0 0 0 0 0.3 0" in="SourceGraphic"/>
			<feOffset dy="30"/>
			<feGaussianBlur stdDeviation="20" result="blur1"/>
			<feMerge>
				<feMergeNode in="blur0"/>
				<feMergeNode in="blur1"/>
			</feMerge>
		</filter>
	</defs>
	<g fill="none" fill-rule="nonzero" style="mix-blend-mode: normal">
		<g clip-path="url(#clip-IakxjbNf)">
			<path d="M891.74,549.98h-158.35l123.03,123.03l-53.54,53.92l-176.96,-176.95h-75.94v75.94l176.95,176.96l-53.92,53.54l-123.03,-123.03v158.35h-75.95v-158.35l-123.03,123.03l-53.92,-53.54l176.95,-176.96v-75.94h-75.94l-176.96,176.95l-53.54,-53.92l123.03,-123.03h-158.35v-75.95h158.35l-123.03,-123.03l53.54,-53.92l176.96,176.95h75.94v-75.94l-176.95,-176.96l53.92,-53.54l123.03,123.03v-158.35h75.95v158.35l123.03,-123.03l53.92,53.54l-176.95,176.96v75.94h75.94l176.96,-176.95l53.54,53.92l-123.03,123.03h158.35z" fill="#000000" filter="url(#filter-0VqnD7IS)"/>
		</g>
		<g>
			<g color="#039be5" class="teamapps-color-1">
				<path d="M891.74,549.98h-158.35l123.03,123.03l-53.54,53.92l-176.96,-176.95h-75.94v75.94l176.95,176.96l-53.92,53.54l-123.03,-123.03v158.35h-75.95v-158.35l-123.03,123.03l-53.92,-53.54l176.95,-176.96v-75.94h-75.94l-176.96,176.95l-53.54,-53.92l123.03,-123.03h-158.35v-75.95h158.35l-123.03,-123.03l53.54,-53.92l176.96,176.95h75.94v-75.94l-176.95,-176.96l53.92,-53.54l123.03,123.03v-158.35h75.95v158.35l123.03,-123.03l53.92,53.54l-176.95,176.96v75.94h75.94l176.96,-176.95l53.54,53.92l-123.03,123.03h158.35z" fill="currentColor"/>
			</g>
		</g>
	</g>
</svg>