<svg version="1.1" xmlns="http://www.w3.org/2000/svg" xmlns:xlink="http://www.w3.org/1999/xlink" viewBox="0,0,1024,1024">
	<!-- Color names: teamapps-color-1 -->
	<desc>add_a_photo icon - Licensed under Apache License v2.0 (http://www.apache.org/licenses/LICENSE-2.0) - Created with Iconfu.com - Derivative work of Material icons (Copyright Google Inc.)</desc>
	<defs>
		<clipPath id="clip-Shlz9SGW">
			<path d="M1022.7,51.3v972.7h-1022.7v-972.7z"/>
		</clipPath>
		<filter id="filter-KmAUXURr" x="-11%" y="-6%" width="129%" height="136%" color-interpolation-filters="sRGB">
			<feColorMatrix values="1 0 0 0 0 0 1 0 0 0 0 0 1 0 0 0 0 0 0.2 0" in="SourceGraphic"/>
			<feOffset dy="20"/>
			<feGaussianBlur stdDeviation="11" result="blur0"/>
			<feColorMatrix values="1 0 0 0 0 0 1 0 0 0 0 0 1 0 0 0 0 0 0.3 0" in="SourceGraphic"/>
			<feOffset dy="30"/>
			<feGaussianBlur stdDeviation="20" result="blur1"/>
			<feMerge>
				<feMergeNode in="blur0"/>
				<feMergeNode in="blur1"/>
			</feMerge>
		</filter>
	</defs>
	<g fill="none" fill-rule="nonzero" style="mix-blend-mode: normal">
		<g clip-path="url(#clip-Shlz9SGW)">
			<path d="M284.16,436.06v-113.92h113.92v-113.92h265.82l69.49,75.94h120.37c41.77,0 75.94,34.18 75.94,75.94v455.68c0,41.77 -34.18,75.95 -75.94,75.95h-607.58c-41.77,0 -75.94,-34.18 -75.94,-75.95v-379.73zM549.98,777.82c104.81,0 189.86,-85.07 189.86,-189.87c0,-104.81 -85.06,-189.86 -189.86,-189.86c-104.81,0 -189.87,85.06 -189.87,189.86c0,104.81 85.07,189.87 189.87,189.87zM170.24,208.22v-113.92h75.94v113.92h113.92v75.94h-113.92v113.92h-75.94v-113.92h-113.92v-75.94zM549.98,466.43c67.21,0 121.51,54.3 121.51,121.51c0,67.21 -54.3,121.52 -121.51,121.52c-67.21,0 -121.52,-54.31 -121.52,-121.52c0,-67.21 54.31,-121.51 121.52,-121.51z" fill="#000000" filter="url(#filter-KmAUXURr)"/>
		</g>
		<g>
			<g color="#039be5" class="teamapps-color-1">
				<path d="M284.16,436.06v-113.92h113.92v-113.92h265.82l69.49,75.94h120.37c41.77,0 75.94,34.18 75.94,75.94v455.68c0,41.77 -34.18,75.95 -75.94,75.95h-607.58c-41.77,0 -75.94,-34.18 -75.94,-75.95v-379.73zM549.98,777.82c104.81,0 189.86,-85.07 189.86,-189.87c0,-104.81 -85.06,-189.86 -189.86,-189.86c-104.81,0 -189.87,85.06 -189.87,189.86c0,104.81 85.07,189.87 189.87,189.87zM170.24,208.22v-113.92h75.94v113.92h113.92v75.94h-113.92v113.92h-75.94v-113.92h-113.92v-75.94zM549.98,466.43c67.21,0 121.51,54.3 121.51,121.51c0,67.21 -54.3,121.52 -121.51,121.52c-67.21,0 -121.52,-54.31 -121.52,-121.52c0,-67.21 54.31,-121.51 121.52,-121.51z" fill="currentColor"/>
			</g>
		</g>
	</g>
</svg>