<svg version="1.1" xmlns="http://www.w3.org/2000/svg" xmlns:xlink="http://www.w3.org/1999/xlink" viewBox="0,0,1024,1024">
	<!-- Color names: teamapps-color-1 -->
	<desc>archive icon - Licensed under Apache License v2.0 (http://www.apache.org/licenses/LICENSE-2.0) - Created with Iconfu.com - Derivative work of Material icons (Copyright Google Inc.)</desc>
	<defs>
		<filter id="filter-dzsvw7jw" x="-14%" y="-7%" width="153%" height="153%" color-interpolation-filters="sRGB">
			<feColorMatrix values="1 0 0 0 0 0 1 0 0 0 0 0 1 0 0 0 0 0 0.2 0" in="SourceGraphic"/>
			<feOffset dy="20"/>
			<feGaussianBlur stdDeviation="11" result="blur0"/>
			<feColorMatrix values="1 0 0 0 0 0 1 0 0 0 0 0 1 0 0 0 0 0 0.3 0" in="SourceGraphic"/>
			<feOffset dy="30"/>
			<feGaussianBlur stdDeviation="20" result="blur1"/>
			<feMerge>
				<feMergeNode in="blur0"/>
				<feMergeNode in="blur1"/>
			</feMerge>
		</filter>
	</defs>
	<g fill="none" fill-rule="nonzero" style="mix-blend-mode: normal">
		<path d="M853.76,303.14v474.67c0,41.77 -34.18,75.94 -75.94,75.94h-531.63c-41.77,0 -75.94,-34.18 -75.94,-75.94v-474.67c0,-18.23 6.46,-35.31 17.47,-48.22l52.4,-63.8c10.64,-12.91 26.2,-20.89 44.05,-20.89h455.68c17.84,0 33.42,7.97 43.67,20.89l52.78,63.8c11.01,12.91 17.47,29.99 17.47,48.22zM720.86,512h-132.91v-75.94h-151.89v75.94h-132.91l208.86,208.86zM772.88,246.18l-35.7,-37.97h-455.68l-30.76,37.97z" fill="#000000" filter="url(#filter-dzsvw7jw)"/>
		<g>
			<g color="#039be5" class="teamapps-color-1">
				<path d="M853.76,303.14v474.67c0,41.77 -34.18,75.94 -75.94,75.94h-531.63c-41.77,0 -75.94,-34.18 -75.94,-75.94v-474.67c0,-18.23 6.46,-35.31 17.47,-48.22l52.4,-63.8c10.64,-12.91 26.2,-20.89 44.05,-20.89h455.68c17.84,0 33.42,7.97 43.67,20.89l52.78,63.8c11.01,12.91 17.47,29.99 17.47,48.22zM720.86,512h-132.91v-75.94h-151.89v75.94h-132.91l208.86,208.86zM772.88,246.18l-35.7,-37.97h-455.68l-30.76,37.97z" fill="currentColor"/>
			</g>
		</g>
	</g>
</svg>