<svg version="1.1" xmlns="http://www.w3.org/2000/svg" xmlns:xlink="http://www.w3.org/1999/xlink" viewBox="0,0,1024,1024">
	<!-- Color names: teamapps-color-1 -->
	<desc>block icon - Licensed under Apache License v2.0 (http://www.apache.org/licenses/LICENSE-2.0) - Created with Iconfu.com - Derivative work of Material icons (Copyright Google Inc.)</desc>
	<defs>
		<clipPath id="clip-8pJkE0n3">
			<path d="M39.26,89.26h945.47v934.74h-945.47z"/>
		</clipPath>
		<filter id="filter-I6QM181x" x="-13%" y="-6%" width="143%" height="143%" color-interpolation-filters="sRGB">
			<feColorMatrix values="1 0 0 0 0 0 1 0 0 0 0 0 1 0 0 0 0 0 0.2 0" in="SourceGraphic"/>
			<feOffset dy="20"/>
			<feGaussianBlur stdDeviation="11" result="blur0"/>
			<feColorMatrix values="1 0 0 0 0 0 1 0 0 0 0 0 1 0 0 0 0 0 0.3 0" in="SourceGraphic"/>
			<feOffset dy="30"/>
			<feGaussianBlur stdDeviation="20" result="blur1"/>
			<feMerge>
				<feMergeNode in="blur0"/>
				<feMergeNode in="blur1"/>
			</feMerge>
		</filter>
	</defs>
	<g fill="none" fill-rule="nonzero" style="mix-blend-mode: normal">
		<g clip-path="url(#clip-8pJkE0n3)">
			<path d="M891.74,512c0,209.61 -170.12,379.74 -379.74,379.74c-209.61,0 -379.74,-170.12 -379.74,-379.74c0,-209.61 170.12,-379.74 379.74,-379.74c209.61,0 379.74,170.12 379.74,379.74zM272.39,698.07l425.69,-425.69c-51.26,-40.25 -115.82,-64.17 -186.07,-64.17c-167.85,0 -303.78,135.94 -303.78,303.78c0,70.25 23.91,134.81 64.17,186.07zM815.78,512c0,-70.25 -23.91,-134.81 -64.17,-186.07l-425.69,425.69c51.26,40.25 115.82,64.17 186.07,64.17c167.85,0 303.78,-135.94 303.78,-303.78z" fill="#000000" filter="url(#filter-I6QM181x)"/>
		</g>
		<g>
			<g color="#039be5" class="teamapps-color-1">
				<path d="M891.74,512c0,209.61 -170.12,379.74 -379.74,379.74c-209.61,0 -379.74,-170.12 -379.74,-379.74c0,-209.61 170.12,-379.74 379.74,-379.74c209.61,0 379.74,170.12 379.74,379.74zM272.39,698.07l425.69,-425.69c-51.26,-40.25 -115.82,-64.17 -186.07,-64.17c-167.85,0 -303.78,135.94 -303.78,303.78c0,70.25 23.91,134.81 64.17,186.07zM815.78,512c0,-70.25 -23.91,-134.81 -64.17,-186.07l-425.69,425.69c51.26,40.25 115.82,64.17 186.07,64.17c167.85,0 303.78,-135.94 303.78,-303.78z" fill="currentColor"/>
			</g>
		</g>
	</g>
</svg>