<svg version="1.1" xmlns="http://www.w3.org/2000/svg" xmlns:xlink="http://www.w3.org/1999/xlink" viewBox="0,0,1024,1024">
	<!-- Color names: teamapps-color-1 -->
	<desc>broken_image icon - Licensed under Apache License v2.0 (http://www.apache.org/licenses/LICENSE-2.0) - Created with Iconfu.com - Derivative work of Material icons (Copyright Google Inc.)</desc>
	<defs>
		<filter id="filter-iQFceVPu" x="-14%" y="-7%" width="153%" height="153%" color-interpolation-filters="sRGB">
			<feColorMatrix values="1 0 0 0 0 0 1 0 0 0 0 0 1 0 0 0 0 0 0.2 0" in="SourceGraphic"/>
			<feOffset dy="20"/>
			<feGaussianBlur stdDeviation="11" result="blur0"/>
			<feColorMatrix values="1 0 0 0 0 0 1 0 0 0 0 0 1 0 0 0 0 0 0.3 0" in="SourceGraphic"/>
			<feOffset dy="30"/>
			<feGaussianBlur stdDeviation="20" result="blur1"/>
			<feMerge>
				<feMergeNode in="blur0"/>
				<feMergeNode in="blur1"/>
			</feMerge>
		</filter>
	</defs>
	<g fill="none" fill-rule="nonzero" style="mix-blend-mode: normal">
		<path d="M853.76,246.18v250.25l-113.92,-114.3l-151.9,152.27l-151.89,-151.89l-151.9,151.89l-113.92,-114.29v-173.92c0,-41.77 34.18,-75.94 75.94,-75.94h531.63c41.77,0 75.94,34.18 75.94,75.94zM739.84,489.97l113.92,114.3v173.54c0,41.77 -34.18,75.94 -75.94,75.94h-531.63c-41.77,0 -75.94,-34.18 -75.94,-75.94v-249.87l113.92,113.54l151.9,-151.89l151.89,151.89z" fill="#000000" filter="url(#filter-iQFceVPu)"/>
		<g>
			<g color="#039be5" class="teamapps-color-1">
				<path d="M853.76,246.18v250.25l-113.92,-114.3l-151.9,152.27l-151.89,-151.89l-151.9,151.89l-113.92,-114.29v-173.92c0,-41.77 34.18,-75.94 75.94,-75.94h531.63c41.77,0 75.94,34.18 75.94,75.94zM739.84,489.97l113.92,114.3v173.54c0,41.77 -34.18,75.94 -75.94,75.94h-531.63c-41.77,0 -75.94,-34.18 -75.94,-75.94v-249.87l113.92,113.54l151.9,-151.89l151.89,151.89z" fill="currentColor"/>
			</g>
		</g>
	</g>
</svg>