<svg version="1.1" xmlns="http://www.w3.org/2000/svg" xmlns:xlink="http://www.w3.org/1999/xlink" viewBox="0,0,1024,1024">
	<!-- Color names: teamapps-color-1 -->
	<desc>done_all icon - Licensed under Apache License v2.0 (http://www.apache.org/licenses/LICENSE-2.0) - Created with Iconfu.com - Derivative work of Material icons (Copyright Google Inc.)</desc>
	<defs>
		<clipPath id="clip-cZq7hvie">
			<path d="M0,225.59h1024v695.22h-1024z"/>
		</clipPath>
		<filter id="filter-GO5THHEr" x="-11%" y="-9%" width="130%" height="190%" color-interpolation-filters="sRGB">
			<feColorMatrix values="1 0 0 0 0 0 1 0 0 0 0 0 1 0 0 0 0 0 0.2 0" in="SourceGraphic"/>
			<feOffset dy="20"/>
			<feGaussianBlur stdDeviation="11" result="blur0"/>
			<feColorMatrix values="1 0 0 0 0 0 1 0 0 0 0 0 1 0 0 0 0 0 0.3 0" in="SourceGraphic"/>
			<feOffset dy="30"/>
			<feGaussianBlur stdDeviation="20" result="blur1"/>
			<feMerge>
				<feMergeNode in="blur0"/>
				<feMergeNode in="blur1"/>
			</feMerge>
		</filter>
	</defs>
	<g fill="none" fill-rule="nonzero" style="mix-blend-mode: normal">
		<g clip-path="url(#clip-cZq7hvie)">
			<path d="M954.77,322.14l-455.68,455.68l-212.26,-212.27l53.54,-53.54l158.72,158.35l401.76,-401.75zM499.09,562.88l-53.54,-53.54l240.75,-240.74l53.54,53.54zM125.81,512l211.89,212.27l-53.54,53.54l-212.27,-212.27z" fill="#000000" filter="url(#filter-GO5THHEr)"/>
		</g>
		<g>
			<g color="#039be5" class="teamapps-color-1">
				<path d="M954.77,322.14l-455.68,455.68l-212.26,-212.27l53.54,-53.54l158.72,158.35l401.76,-401.75zM499.09,562.88l-53.54,-53.54l240.75,-240.74l53.54,53.54zM125.81,512l211.89,212.27l-53.54,53.54l-212.27,-212.27z" fill="currentColor"/>
			</g>
		</g>
	</g>
</svg>