<svg version="1.1" xmlns="http://www.w3.org/2000/svg" xmlns:xlink="http://www.w3.org/1999/xlink" viewBox="0,0,1024,1024">
	<!-- Color names: teamapps-color-1 -->
	<desc>extension icon - Licensed under Apache License v2.0 (http://www.apache.org/licenses/LICENSE-2.0) - Created with Iconfu.com - Derivative work of Material icons (Copyright Google Inc.)</desc>
	<defs>
		<clipPath id="clip-ZvuaslH6">
			<path d="M39.26,51.3h983.44v972.7h-983.44z"/>
		</clipPath>
		<filter id="filter-ZWAZyrG0" x="-12%" y="-6%" width="141%" height="136%" color-interpolation-filters="sRGB">
			<feColorMatrix values="1 0 0 0 0 0 1 0 0 0 0 0 1 0 0 0 0 0 0.2 0" in="SourceGraphic"/>
			<feOffset dy="20"/>
			<feGaussianBlur stdDeviation="11" result="blur0"/>
			<feColorMatrix values="1 0 0 0 0 0 1 0 0 0 0 0 1 0 0 0 0 0 0.3 0" in="SourceGraphic"/>
			<feOffset dy="30"/>
			<feGaussianBlur stdDeviation="20" result="blur1"/>
			<feMerge>
				<feMergeNode in="blur0"/>
				<feMergeNode in="blur1"/>
			</feMerge>
		</filter>
	</defs>
	<g fill="none" fill-rule="nonzero" style="mix-blend-mode: normal">
		<g clip-path="url(#clip-ZvuaslH6)">
			<path d="M929.7,568.96c0,52.4 -42.52,94.94 -94.93,94.94h-56.96v151.89c0,41.77 -34.18,75.95 -75.95,75.95h-144.3v-56.96c0,-56.58 -45.95,-102.53 -102.53,-102.53c-56.58,0 -102.53,45.95 -102.53,102.53v56.96h-144.3c-41.77,0 -75.95,-34.18 -75.95,-75.95v-144.3h56.96c56.58,0 102.53,-45.95 102.53,-102.53c0,-56.58 -45.95,-102.53 -102.53,-102.53h-56.58v-144.3c0,-41.77 33.8,-75.95 75.57,-75.95h151.89v-56.96c0,-52.4 42.53,-94.93 94.94,-94.93c52.4,0 94.94,42.52 94.94,94.93v56.96h151.89c41.77,0 75.95,34.18 75.95,75.95v151.89h56.96c52.4,0 94.93,42.53 94.93,94.94z" fill="#000000" filter="url(#filter-ZWAZyrG0)"/>
		</g>
		<g>
			<g color="#039be5" class="teamapps-color-1">
				<path d="M929.7,568.96c0,52.4 -42.52,94.94 -94.93,94.94h-56.96v151.89c0,41.77 -34.18,75.95 -75.95,75.95h-144.3v-56.96c0,-56.58 -45.95,-102.53 -102.53,-102.53c-56.58,0 -102.53,45.95 -102.53,102.53v56.96h-144.3c-41.77,0 -75.95,-34.18 -75.95,-75.95v-144.3h56.96c56.58,0 102.53,-45.95 102.53,-102.53c0,-56.58 -45.95,-102.53 -102.53,-102.53h-56.58v-144.3c0,-41.77 33.8,-75.95 75.57,-75.95h151.89v-56.96c0,-52.4 42.53,-94.93 94.94,-94.93c52.4,0 94.94,42.52 94.94,94.93v56.96h151.89c41.77,0 75.95,34.18 75.95,75.95v151.89h56.96c52.4,0 94.93,42.53 94.93,94.94z" fill="currentColor"/>
			</g>
		</g>
	</g>
</svg>