<svg version="1.1" xmlns="http://www.w3.org/2000/svg" xmlns:xlink="http://www.w3.org/1999/xlink" viewBox="0,0,1024,1024">
	<!-- Color names: teamapps-color-1 -->
	<desc>folder_shared icon - Licensed under Apache License v2.0 (http://www.apache.org/licenses/LICENSE-2.0) - Created with Iconfu.com - Derivative work of Material icons (Copyright Google Inc.)</desc>
	<defs>
		<filter id="filter-OThnxKxK" x="-13%" y="-8%" width="143%" height="166%" color-interpolation-filters="sRGB">
			<feColorMatrix values="1 0 0 0 0 0 1 0 0 0 0 0 1 0 0 0 0 0 0.2 0" in="SourceGraphic"/>
			<feOffset dy="20"/>
			<feGaussianBlur stdDeviation="11" result="blur0"/>
			<feColorMatrix values="1 0 0 0 0 0 1 0 0 0 0 0 1 0 0 0 0 0 0.3 0" in="SourceGraphic"/>
			<feOffset dy="30"/>
			<feGaussianBlur stdDeviation="20" result="blur1"/>
			<feMerge>
				<feMergeNode in="blur0"/>
				<feMergeNode in="blur1"/>
			</feMerge>
		</filter>
	</defs>
	<g fill="none" fill-rule="nonzero" style="mix-blend-mode: normal">
		<path d="M891.74,360.1v379.74c0,41.77 -34.18,75.94 -75.95,75.94h-607.57c-41.77,0 -75.95,-34.18 -75.95,-75.94l0.38,-455.68c0,-41.77 33.8,-75.94 75.57,-75.94h227.84l75.94,75.94h303.78c41.77,0 75.95,34.18 75.95,75.94zM777.82,663.9c0,-50.51 -101.39,-75.95 -151.9,-75.95c-50.51,0 -151.9,25.45 -151.9,75.95v37.97h303.79zM549.98,474.02c0,41.77 34.18,75.95 75.94,75.95c41.77,0 75.94,-34.18 75.94,-75.95c0,-41.77 -34.18,-75.94 -75.94,-75.94c-41.77,0 -75.94,34.18 -75.94,75.94z" fill="#000000" filter="url(#filter-OThnxKxK)"/>
		<g>
			<g color="#039be5" class="teamapps-color-1">
				<path d="M891.74,360.1v379.74c0,41.77 -34.18,75.94 -75.95,75.94h-607.57c-41.77,0 -75.95,-34.18 -75.95,-75.94l0.38,-455.68c0,-41.77 33.8,-75.94 75.57,-75.94h227.84l75.94,75.94h303.78c41.77,0 75.95,34.18 75.95,75.94zM777.82,663.9c0,-50.51 -101.39,-75.95 -151.9,-75.95c-50.51,0 -151.9,25.45 -151.9,75.95v37.97h303.79zM549.98,474.02c0,41.77 34.18,75.95 75.94,75.95c41.77,0 75.94,-34.18 75.94,-75.95c0,-41.77 -34.18,-75.94 -75.94,-75.94c-41.77,0 -75.94,34.18 -75.94,75.94z" fill="currentColor"/>
			</g>
		</g>
	</g>
</svg>