<svg version="1.1" xmlns="http://www.w3.org/2000/svg" xmlns:xlink="http://www.w3.org/1999/xlink" viewBox="0,0,1024,1024">
	<!-- Color names: teamapps-color-1 -->
	<desc>format_list_numbered icon - Licensed under Apache License v2.0 (http://www.apache.org/licenses/LICENSE-2.0) - Created with Iconfu.com - Derivative work of Material icons (Copyright Google Inc.)</desc>
	<defs>
		<filter id="filter-unttCPFn" x="-13%" y="-8%" width="145%" height="166%" color-interpolation-filters="sRGB">
			<feColorMatrix values="1 0 0 0 0 0 1 0 0 0 0 0 1 0 0 0 0 0 0.2 0" in="SourceGraphic"/>
			<feOffset dy="20"/>
			<feGaussianBlur stdDeviation="11" result="blur0"/>
			<feColorMatrix values="1 0 0 0 0 0 1 0 0 0 0 0 1 0 0 0 0 0 0.3 0" in="SourceGraphic"/>
			<feOffset dy="30"/>
			<feGaussianBlur stdDeviation="20" result="blur1"/>
			<feMerge>
				<feMergeNode in="blur0"/>
				<feMergeNode in="blur1"/>
			</feMerge>
		</filter>
	</defs>
	<g fill="none" fill-rule="nonzero" style="mix-blend-mode: normal">
		<path d="M322.14,701.86h531.62v75.95h-531.62zM853.76,246.18v75.95h-531.62v-75.95zM322.14,474.02h531.62v75.95h-531.62zM132.26,663.9h113.92v151.89h-113.92v-37.97h75.95v-18.99h-37.98v-37.97h37.98v-18.99h-75.95zM132.26,436.06h113.92v34.18l-68.35,79.74h68.35v37.97h-113.92v-34.18l68.35,-79.74h-68.35zM170.24,246.18h-37.98v-37.97h75.95v151.89h-37.98z" fill="#000000" filter="url(#filter-unttCPFn)"/>
		<g>
			<g color="#039be5" class="teamapps-color-1">
				<path d="M322.14,701.86h531.62v75.95h-531.62zM853.76,246.18v75.95h-531.62v-75.95zM322.14,474.02h531.62v75.95h-531.62zM132.26,663.9h113.92v151.89h-113.92v-37.97h75.95v-18.99h-37.98v-37.97h37.98v-18.99h-75.95zM132.26,436.06h113.92v34.18l-68.35,79.74h68.35v37.97h-113.92v-34.18l68.35,-79.74h-68.35zM170.24,246.18h-37.98v-37.97h75.95v151.89h-37.98z" fill="currentColor"/>
			</g>
		</g>
	</g>
</svg>