<svg version="1.1" xmlns="http://www.w3.org/2000/svg" xmlns:xlink="http://www.w3.org/1999/xlink" viewBox="0,0,1024,1024">
	<!-- Color names: teamapps-color-1 -->
	<desc>format_textdirection_r_to_l icon - Licensed under Apache License v2.0 (http://www.apache.org/licenses/LICENSE-2.0) - Created with Iconfu.com - Derivative work of Material icons (Copyright Google Inc.)</desc>
	<defs>
		<clipPath id="clip-6rNTjzpG">
			<path d="M115.22,89.26h793.57v934.74h-793.57z"/>
		</clipPath>
		<filter id="filter-iA9J0Cv9" x="-16%" y="-6%" width="166%" height="143%" color-interpolation-filters="sRGB">
			<feColorMatrix values="1 0 0 0 0 0 1 0 0 0 0 0 1 0 0 0 0 0 0.2 0" in="SourceGraphic"/>
			<feOffset dy="20"/>
			<feGaussianBlur stdDeviation="11" result="blur0"/>
			<feColorMatrix values="1 0 0 0 0 0 1 0 0 0 0 0 1 0 0 0 0 0 0.3 0" in="SourceGraphic"/>
			<feOffset dy="30"/>
			<feGaussianBlur stdDeviation="20" result="blur1"/>
			<feMerge>
				<feMergeNode in="blur0"/>
				<feMergeNode in="blur1"/>
			</feMerge>
		</filter>
	</defs>
	<g fill="none" fill-rule="nonzero" style="mix-blend-mode: normal">
		<g clip-path="url(#clip-6rNTjzpG)">
			<path d="M284.16,284.16c0,-83.92 67.98,-151.9 151.9,-151.9h303.78v75.95h-75.94v417.7h-75.95v-417.7h-75.94v417.7h-75.94v-189.86c-83.92,0 -151.9,-67.98 -151.9,-151.9zM815.78,701.86v75.95h-455.68v113.92l-151.89,-151.9l151.89,-151.9v113.92z" fill="#000000" filter="url(#filter-iA9J0Cv9)"/>
		</g>
		<g>
			<g color="#039be5" class="teamapps-color-1">
				<path d="M284.16,284.16c0,-83.92 67.98,-151.9 151.9,-151.9h303.78v75.95h-75.94v417.7h-75.95v-417.7h-75.94v417.7h-75.94v-189.86c-83.92,0 -151.9,-67.98 -151.9,-151.9zM815.78,701.86v75.95h-455.68v113.92l-151.89,-151.9l151.89,-151.9v113.92z" fill="currentColor"/>
			</g>
		</g>
	</g>
</svg>