<svg version="1.1" xmlns="http://www.w3.org/2000/svg" xmlns:xlink="http://www.w3.org/1999/xlink" viewBox="0,0,1024,1024">
	<!-- Color names: teamapps-color-1 -->
	<desc>hearing icon - Licensed under Apache License v2.0 (http://www.apache.org/licenses/LICENSE-2.0) - Created with Iconfu.com - Derivative work of Material icons (Copyright Google Inc.)</desc>
	<defs>
		<clipPath id="clip-tTbdJ5fJ">
			<path d="M77.24,59.64h869.52v964.36h-869.52z"/>
		</clipPath>
		<filter id="filter-Qa5Xw1Ki" x="-14%" y="-6%" width="153%" height="138%" color-interpolation-filters="sRGB">
			<feColorMatrix values="1 0 0 0 0 0 1 0 0 0 0 0 1 0 0 0 0 0 0.2 0" in="SourceGraphic"/>
			<feOffset dy="20"/>
			<feGaussianBlur stdDeviation="11" result="blur0"/>
			<feColorMatrix values="1 0 0 0 0 0 1 0 0 0 0 0 1 0 0 0 0 0 0.3 0" in="SourceGraphic"/>
			<feOffset dy="30"/>
			<feGaussianBlur stdDeviation="20" result="blur1"/>
			<feMerge>
				<feMergeNode in="blur0"/>
				<feMergeNode in="blur1"/>
			</feMerge>
		</filter>
	</defs>
	<g fill="none" fill-rule="nonzero" style="mix-blend-mode: normal">
		<g clip-path="url(#clip-tTbdJ5fJ)">
			<path d="M777.82,739.84h75.94c0,83.92 -67.98,151.9 -151.9,151.9c-21.64,0 -42.91,-4.57 -62.27,-13.3c-51.65,-26.96 -80.88,-65.69 -103.67,-134.8c-12.15,-37.21 -34.18,-54.31 -64.93,-77.85c-33.04,-25.45 -73.67,-56.96 -108.22,-119.62c-26.2,-47.46 -40.63,-100.25 -40.63,-148.1c0,-149.24 116.57,-265.82 265.81,-265.82c149.24,0 265.82,116.58 265.82,265.82h-75.94c0,-106.33 -83.54,-189.86 -189.87,-189.86c-106.33,0 -189.86,83.54 -189.86,189.86c0,35.32 11.02,75.19 31.14,111.64c26.96,48.99 58.09,72.91 88.09,96.08c34.93,26.96 71.4,54.68 90.76,113.92c18.98,56.96 37.98,76.32 64.93,90.37c7.59,3.42 17.84,5.7 28.85,5.7c41.77,0 75.95,-34.18 75.95,-75.94zM246.18,398.08c0,94.55 38.36,179.99 99.88,241.89l-53.54,53.54c-75.57,-75.57 -122.28,-179.99 -122.28,-295.44c0,-115.44 46.71,-219.87 122.28,-295.44l53.92,53.93c-61.9,61.52 -100.25,146.96 -100.25,241.51zM587.94,303.14c52.4,0 94.94,42.53 94.94,94.94c0,52.4 -42.53,94.94 -94.94,94.94c-52.4,0 -94.93,-42.53 -94.93,-94.94c0,-52.4 42.52,-94.94 94.93,-94.94z" fill="#000000" filter="url(#filter-Qa5Xw1Ki)"/>
		</g>
		<g>
			<g color="#039be5" class="teamapps-color-1">
				<path d="M777.82,739.84h75.94c0,83.92 -67.98,151.9 -151.9,151.9c-21.64,0 -42.91,-4.57 -62.27,-13.3c-51.65,-26.96 -80.88,-65.69 -103.67,-134.8c-12.15,-37.21 -34.18,-54.31 -64.93,-77.85c-33.04,-25.45 -73.67,-56.96 -108.22,-119.62c-26.2,-47.46 -40.63,-100.25 -40.63,-148.1c0,-149.24 116.57,-265.82 265.81,-265.82c149.24,0 265.82,116.58 265.82,265.82h-75.94c0,-106.33 -83.54,-189.86 -189.87,-189.86c-106.33,0 -189.86,83.54 -189.86,189.86c0,35.32 11.02,75.19 31.14,111.64c26.96,48.99 58.09,72.91 88.09,96.08c34.93,26.96 71.4,54.68 90.76,113.92c18.98,56.96 37.98,76.32 64.93,90.37c7.59,3.42 17.84,5.7 28.85,5.7c41.77,0 75.95,-34.18 75.95,-75.94zM246.18,398.08c0,94.55 38.36,179.99 99.88,241.89l-53.54,53.54c-75.57,-75.57 -122.28,-179.99 -122.28,-295.44c0,-115.44 46.71,-219.87 122.28,-295.44l53.92,53.93c-61.9,61.52 -100.25,146.96 -100.25,241.51zM587.94,303.14c52.4,0 94.94,42.53 94.94,94.94c0,52.4 -42.53,94.94 -94.94,94.94c-52.4,0 -94.93,-42.53 -94.93,-94.94c0,-52.4 42.52,-94.94 94.93,-94.94z" fill="currentColor"/>
			</g>
		</g>
	</g>
</svg>