<svg version="1.1" xmlns="http://www.w3.org/2000/svg" xmlns:xlink="http://www.w3.org/1999/xlink" viewBox="0,0,1024,1024">
	<!-- Color names: teamapps-color-1 -->
	<desc>language icon - Licensed under Apache License v2.0 (http://www.apache.org/licenses/LICENSE-2.0) - Created with Iconfu.com - Derivative work of Material icons (Copyright Google Inc.)</desc>
	<defs>
		<clipPath id="clip-dOLFoXo4">
			<path d="M39.26,89.26h945.47v934.74h-945.47z"/>
		</clipPath>
		<filter id="filter-PnfnjeGr" x="-13%" y="-6%" width="143%" height="143%" color-interpolation-filters="sRGB">
			<feColorMatrix values="1 0 0 0 0 0 1 0 0 0 0 0 1 0 0 0 0 0 0.2 0" in="SourceGraphic"/>
			<feOffset dy="20"/>
			<feGaussianBlur stdDeviation="11" result="blur0"/>
			<feColorMatrix values="1 0 0 0 0 0 1 0 0 0 0 0 1 0 0 0 0 0 0.3 0" in="SourceGraphic"/>
			<feOffset dy="30"/>
			<feGaussianBlur stdDeviation="20" result="blur1"/>
			<feMerge>
				<feMergeNode in="blur0"/>
				<feMergeNode in="blur1"/>
			</feMerge>
		</filter>
	</defs>
	<g fill="none" fill-rule="nonzero" style="mix-blend-mode: normal">
		<g clip-path="url(#clip-dOLFoXo4)">
			<path d="M891.74,512c0,209.61 -170.12,379.74 -380.12,379.74c-209.61,0 -379.35,-170.12 -379.35,-379.74c0,-209.61 169.74,-379.74 379.35,-379.74c210,0 380.12,170.12 380.12,379.74zM606.94,512c0,-25.82 -2.66,-51.26 -6.08,-75.94h-177.72c-3.42,24.68 -6.08,50.12 -6.08,75.94c0,25.82 2.66,50.88 6.08,75.94h177.72c3.42,-25.06 6.08,-50.12 6.08,-75.94zM413.65,224.92c-69.87,23.92 -127.96,72.14 -164.42,135.18h112.02c12.15,-47.46 29.62,-93.03 52.4,-135.18zM774.77,663.9h-112.02c-12.15,47.46 -29.62,93.03 -52.4,135.18c69.87,-23.92 127.96,-72.53 164.42,-135.18zM413.65,799.08c-22.78,-42.15 -40.25,-87.72 -52.4,-135.18h-112.02c36.45,63.04 94.54,111.26 164.42,135.18zM610.35,224.92c22.78,42.15 40.25,87.72 52.4,135.18h112.02c-36.45,-62.66 -94.54,-111.26 -164.42,-135.18zM584.53,663.9h-145.05c16.33,54.3 41.01,104.81 72.53,150.37c31.51,-45.57 56.19,-96.08 72.53,-150.37zM439.47,360.1h145.05c-16.33,-54.3 -41.01,-104.81 -72.53,-150.37c-31.51,45.57 -56.19,96.08 -72.53,150.37zM346.43,587.94c-3.03,-25.06 -5.31,-50.12 -5.31,-75.94c0,-25.82 2.28,-50.88 5.31,-75.94h-128.35c-6.08,24.31 -9.87,49.74 -9.87,75.94c0,26.2 3.79,51.64 9.87,75.94zM805.91,587.94c6.08,-24.31 9.87,-49.74 9.87,-75.94c0,-26.2 -3.79,-51.64 -9.87,-75.94h-128.35c3.03,25.06 5.31,50.12 5.31,75.94c0,25.82 -2.28,50.88 -5.31,75.94z" fill="#000000" filter="url(#filter-PnfnjeGr)"/>
		</g>
		<g>
			<g color="#039be5" class="teamapps-color-1">
				<path d="M891.74,512c0,209.61 -170.12,379.74 -380.12,379.74c-209.61,0 -379.35,-170.12 -379.35,-379.74c0,-209.61 169.74,-379.74 379.35,-379.74c210,0 380.12,170.12 380.12,379.74zM606.94,512c0,-25.82 -2.66,-51.26 -6.08,-75.94h-177.72c-3.42,24.68 -6.08,50.12 -6.08,75.94c0,25.82 2.66,50.88 6.08,75.94h177.72c3.42,-25.06 6.08,-50.12 6.08,-75.94zM413.65,224.92c-69.87,23.92 -127.96,72.14 -164.42,135.18h112.02c12.15,-47.46 29.62,-93.03 52.4,-135.18zM774.77,663.9h-112.02c-12.15,47.46 -29.62,93.03 -52.4,135.18c69.87,-23.92 127.96,-72.53 164.42,-135.18zM413.65,799.08c-22.78,-42.15 -40.25,-87.72 -52.4,-135.18h-112.02c36.45,63.04 94.54,111.26 164.42,135.18zM610.35,224.92c22.78,42.15 40.25,87.72 52.4,135.18h112.02c-36.45,-62.66 -94.54,-111.26 -164.42,-135.18zM584.53,663.9h-145.05c16.33,54.3 41.01,104.81 72.53,150.37c31.51,-45.57 56.19,-96.08 72.53,-150.37zM439.47,360.1h145.05c-16.33,-54.3 -41.01,-104.81 -72.53,-150.37c-31.51,45.57 -56.19,96.08 -72.53,150.37zM346.43,587.94c-3.03,-25.06 -5.31,-50.12 -5.31,-75.94c0,-25.82 2.28,-50.88 5.31,-75.94h-128.35c-6.08,24.31 -9.87,49.74 -9.87,75.94c0,26.2 3.79,51.64 9.87,75.94zM805.91,587.94c6.08,-24.31 9.87,-49.74 9.87,-75.94c0,-26.2 -3.79,-51.64 -9.87,-75.94h-128.35c3.03,25.06 5.31,50.12 5.31,75.94c0,25.82 -2.28,50.88 -5.31,75.94z" fill="currentColor"/>
			</g>
		</g>
	</g>
</svg>