<svg version="1.1" xmlns="http://www.w3.org/2000/svg" xmlns:xlink="http://www.w3.org/1999/xlink" viewBox="0,0,1024,1024">
	<!-- Color names: teamapps-color-1 -->
	<desc>leak_add icon - Licensed under Apache License v2.0 (http://www.apache.org/licenses/LICENSE-2.0) - Created with Iconfu.com - Derivative work of Material icons (Copyright Google Inc.)</desc>
	<defs>
		<filter id="filter-YR4q5S78" x="-14%" y="-7%" width="153%" height="153%" color-interpolation-filters="sRGB">
			<feColorMatrix values="1 0 0 0 0 0 1 0 0 0 0 0 1 0 0 0 0 0 0.2 0" in="SourceGraphic"/>
			<feOffset dy="20"/>
			<feGaussianBlur stdDeviation="11" result="blur0"/>
			<feColorMatrix values="1 0 0 0 0 0 1 0 0 0 0 0 1 0 0 0 0 0 0.3 0" in="SourceGraphic"/>
			<feOffset dy="30"/>
			<feGaussianBlur stdDeviation="20" result="blur1"/>
			<feMerge>
				<feMergeNode in="blur0"/>
				<feMergeNode in="blur1"/>
			</feMerge>
		</filter>
	</defs>
	<g fill="none" fill-rule="nonzero" style="mix-blend-mode: normal">
		<path d="M853.76,436.06v75.94c-188.72,0 -341.76,153.04 -341.76,341.76h-75.94c0,-230.5 187.2,-417.7 417.7,-417.7zM170.24,587.94v-75.94c188.72,0 341.76,-153.04 341.76,-341.76h75.94c0,230.5 -186.83,417.7 -417.7,417.7zM853.76,587.94v75.95c-104.81,0 -189.86,85.06 -189.86,189.86h-75.95c0,-146.96 118.86,-265.82 265.82,-265.82zM170.24,436.06v-75.95c104.81,0 189.86,-85.06 189.86,-189.86h75.95c0,146.96 -118.86,265.82 -265.82,265.82zM170.24,284.16v-113.92h113.92c0,63.04 -50.88,113.92 -113.92,113.92zM853.76,739.84v113.92h-113.92c0,-63.04 50.88,-113.92 113.92,-113.92z" fill="#000000" filter="url(#filter-YR4q5S78)"/>
		<g>
			<g color="#039be5" class="teamapps-color-1">
				<path d="M853.76,436.06v75.94c-188.72,0 -341.76,153.04 -341.76,341.76h-75.94c0,-230.5 187.2,-417.7 417.7,-417.7zM170.24,587.94v-75.94c188.72,0 341.76,-153.04 341.76,-341.76h75.94c0,230.5 -186.83,417.7 -417.7,417.7zM853.76,587.94v75.95c-104.81,0 -189.86,85.06 -189.86,189.86h-75.95c0,-146.96 118.86,-265.82 265.82,-265.82zM170.24,436.06v-75.95c104.81,0 189.86,-85.06 189.86,-189.86h75.95c0,146.96 -118.86,265.82 -265.82,265.82zM170.24,284.16v-113.92h113.92c0,63.04 -50.88,113.92 -113.92,113.92zM853.76,739.84v113.92h-113.92c0,-63.04 50.88,-113.92 113.92,-113.92z" fill="currentColor"/>
			</g>
		</g>
	</g>
</svg>