<svg version="1.1" xmlns="http://www.w3.org/2000/svg" xmlns:xlink="http://www.w3.org/1999/xlink" viewBox="0,0,1024,1024">
	<!-- Color names: teamapps-color-1 -->
	<desc>local_offer icon - Licensed under Apache License v2.0 (http://www.apache.org/licenses/LICENSE-2.0) - Created with Iconfu.com - Derivative work of Material icons (Copyright Google Inc.)</desc>
	<defs>
		<clipPath id="clip-K61c5RlN">
			<path d="M39.26,89.26h945.47v934.74h-945.47z"/>
		</clipPath>
		<filter id="filter-xOJ9SPI2" x="-13%" y="-6%" width="143%" height="143%" color-interpolation-filters="sRGB">
			<feColorMatrix values="1 0 0 0 0 0 1 0 0 0 0 0 1 0 0 0 0 0 0.2 0" in="SourceGraphic"/>
			<feOffset dy="20"/>
			<feGaussianBlur stdDeviation="11" result="blur0"/>
			<feColorMatrix values="1 0 0 0 0 0 1 0 0 0 0 0 1 0 0 0 0 0 0.3 0" in="SourceGraphic"/>
			<feOffset dy="30"/>
			<feGaussianBlur stdDeviation="20" result="blur1"/>
			<feMerge>
				<feMergeNode in="blur0"/>
				<feMergeNode in="blur1"/>
			</feMerge>
		</filter>
	</defs>
	<g fill="none" fill-rule="nonzero" style="mix-blend-mode: normal">
		<g clip-path="url(#clip-K61c5RlN)">
			<path d="M891.74,549.98c0,20.89 -8.36,39.87 -22.41,53.54l-265.81,265.81c-13.67,14.05 -32.65,22.41 -53.54,22.41c-20.89,0 -39.87,-8.36 -53.54,-22.03l-341.76,-341.76c-14.05,-14.05 -22.41,-33.04 -22.41,-53.93v-265.81c0,-41.77 34.18,-75.95 75.95,-75.95h265.81c20.89,0 39.87,8.36 53.54,22.03l341.76,341.76c13.67,13.67 22.41,33.04 22.41,53.93zM322.14,265.18c0,-31.51 -25.45,-56.96 -56.96,-56.96c-31.51,0 -56.96,25.45 -56.96,56.96c0,31.51 25.45,56.96 56.96,56.96c31.51,0 56.96,-25.45 56.96,-56.96z" fill="#000000" filter="url(#filter-xOJ9SPI2)"/>
		</g>
		<g>
			<g color="#039be5" class="teamapps-color-1">
				<path d="M891.74,549.98c0,20.89 -8.36,39.87 -22.41,53.54l-265.81,265.81c-13.67,14.05 -32.65,22.41 -53.54,22.41c-20.89,0 -39.87,-8.36 -53.54,-22.03l-341.76,-341.76c-14.05,-14.05 -22.41,-33.04 -22.41,-53.93v-265.81c0,-41.77 34.18,-75.95 75.95,-75.95h265.81c20.89,0 39.87,8.36 53.54,22.03l341.76,341.76c13.67,13.67 22.41,33.04 22.41,53.93zM322.14,265.18c0,-31.51 -25.45,-56.96 -56.96,-56.96c-31.51,0 -56.96,25.45 -56.96,56.96c0,31.51 25.45,56.96 56.96,56.96c31.51,0 56.96,-25.45 56.96,-56.96z" fill="currentColor"/>
			</g>
		</g>
	</g>
</svg>