<svg version="1.1" xmlns="http://www.w3.org/2000/svg" xmlns:xlink="http://www.w3.org/1999/xlink" viewBox="0,0,1024,1024">
	<!-- Color names: teamapps-color-1 -->
	<desc>music_video icon - Licensed under Apache License v2.0 (http://www.apache.org/licenses/LICENSE-2.0) - Created with Iconfu.com - Derivative work of Material icons (Copyright Google Inc.)</desc>
	<defs>
		<filter id="filter-9T5PudHd" x="-12%" y="-7%" width="135%" height="153%" color-interpolation-filters="sRGB">
			<feColorMatrix values="1 0 0 0 0 0 1 0 0 0 0 0 1 0 0 0 0 0 0.2 0" in="SourceGraphic"/>
			<feOffset dy="20"/>
			<feGaussianBlur stdDeviation="11" result="blur0"/>
			<feColorMatrix values="1 0 0 0 0 0 1 0 0 0 0 0 1 0 0 0 0 0 0.3 0" in="SourceGraphic"/>
			<feOffset dy="30"/>
			<feGaussianBlur stdDeviation="20" result="blur1"/>
			<feMerge>
				<feMergeNode in="blur0"/>
				<feMergeNode in="blur1"/>
			</feMerge>
		</filter>
	</defs>
	<g fill="none" fill-rule="nonzero" style="mix-blend-mode: normal">
		<path d="M929.7,246.18v531.63c0,41.77 -34.18,75.94 -75.94,75.94h-683.52c-41.77,0 -75.94,-34.18 -75.94,-75.94v-531.63c0,-41.77 34.18,-75.94 75.94,-75.94h683.52c41.77,0 75.94,34.18 75.94,75.94zM853.76,246.18h-683.52v531.63h683.52zM360.1,625.92c0,-63.04 50.88,-113.92 113.92,-113.92c13.29,0 26.2,2.66 37.98,6.84v-234.68h189.86v75.94h-113.92v266.96c-0.76,62.27 -51.26,112.78 -113.92,112.78c-63.04,0 -113.92,-50.88 -113.92,-113.92z" fill="#000000" filter="url(#filter-9T5PudHd)"/>
		<g>
			<g color="#039be5" class="teamapps-color-1">
				<path d="M929.7,246.18v531.63c0,41.77 -34.18,75.94 -75.94,75.94h-683.52c-41.77,0 -75.94,-34.18 -75.94,-75.94v-531.63c0,-41.77 34.18,-75.94 75.94,-75.94h683.52c41.77,0 75.94,34.18 75.94,75.94zM853.76,246.18h-683.52v531.63h683.52zM360.1,625.92c0,-63.04 50.88,-113.92 113.92,-113.92c13.29,0 26.2,2.66 37.98,6.84v-234.68h189.86v75.94h-113.92v266.96c-0.76,62.27 -51.26,112.78 -113.92,112.78c-63.04,0 -113.92,-50.88 -113.92,-113.92z" fill="currentColor"/>
			</g>
		</g>
	</g>
</svg>