<svg version="1.1" xmlns="http://www.w3.org/2000/svg" xmlns:xlink="http://www.w3.org/1999/xlink" viewBox="0,0,1024,1024">
	<!-- Color names: teamapps-color-1 -->
	<desc>party_mode icon - Licensed under Apache License v2.0 (http://www.apache.org/licenses/LICENSE-2.0) - Created with Iconfu.com - Derivative work of Material icons (Copyright Google Inc.)</desc>
	<defs>
		<filter id="filter-CQvhUnuU" x="-13%" y="-7%" width="143%" height="148%" color-interpolation-filters="sRGB">
			<feColorMatrix values="1 0 0 0 0 0 1 0 0 0 0 0 1 0 0 0 0 0 0.2 0" in="SourceGraphic"/>
			<feOffset dy="20"/>
			<feGaussianBlur stdDeviation="11" result="blur0"/>
			<feColorMatrix values="1 0 0 0 0 0 1 0 0 0 0 0 1 0 0 0 0 0 0.3 0" in="SourceGraphic"/>
			<feOffset dy="30"/>
			<feGaussianBlur stdDeviation="20" result="blur1"/>
			<feMerge>
				<feMergeNode in="blur0"/>
				<feMergeNode in="blur1"/>
			</feMerge>
		</filter>
	</defs>
	<g fill="none" fill-rule="nonzero" style="mix-blend-mode: normal">
		<path d="M891.74,284.16v455.68c0,41.77 -34.18,75.94 -75.95,75.94h-607.57c-41.77,0 -75.95,-34.18 -75.95,-75.94v-455.68c0,-41.77 34.18,-75.94 75.95,-75.94h120.37l69.49,-75.95h227.84l69.49,75.95h120.37c41.77,0 75.95,34.18 75.95,75.94zM322.14,512c0,12.91 1.51,25.83 3.79,37.98h78.99c-4.17,-11.77 -6.84,-24.69 -6.84,-37.98c0,-63.04 50.88,-113.92 113.92,-113.92h151.13c-34.93,-45.95 -89.23,-75.94 -151.13,-75.94c-104.81,0 -189.86,85.06 -189.86,189.86zM701.86,512c0,-12.91 -1.13,-25.83 -3.79,-37.98h-78.99c4.17,11.77 6.84,24.69 6.84,37.98c0,63.04 -50.88,113.92 -113.92,113.92h-151.13c34.93,45.95 89.23,75.94 151.13,75.94c104.81,0 189.86,-85.06 189.86,-189.86z" fill="#000000" filter="url(#filter-CQvhUnuU)"/>
		<g>
			<g color="#039be5" class="teamapps-color-1">
				<path d="M891.74,284.16v455.68c0,41.77 -34.18,75.94 -75.95,75.94h-607.57c-41.77,0 -75.95,-34.18 -75.95,-75.94v-455.68c0,-41.77 34.18,-75.94 75.95,-75.94h120.37l69.49,-75.95h227.84l69.49,75.95h120.37c41.77,0 75.95,34.18 75.95,75.94zM322.14,512c0,12.91 1.51,25.83 3.79,37.98h78.99c-4.17,-11.77 -6.84,-24.69 -6.84,-37.98c0,-63.04 50.88,-113.92 113.92,-113.92h151.13c-34.93,-45.95 -89.23,-75.94 -151.13,-75.94c-104.81,0 -189.86,85.06 -189.86,189.86zM701.86,512c0,-12.91 -1.13,-25.83 -3.79,-37.98h-78.99c4.17,11.77 6.84,24.69 6.84,37.98c0,63.04 -50.88,113.92 -113.92,113.92h-151.13c34.93,45.95 89.23,75.94 151.13,75.94c104.81,0 189.86,-85.06 189.86,-189.86z" fill="currentColor"/>
			</g>
		</g>
	</g>
</svg>