<svg version="1.1" xmlns="http://www.w3.org/2000/svg" xmlns:xlink="http://www.w3.org/1999/xlink" viewBox="0,0,1024,1024">
	<!-- Color names: teamapps-color-1 -->
	<desc>people_outline icon - Licensed under Apache License v2.0 (http://www.apache.org/licenses/LICENSE-2.0) - Created with Iconfu.com - Derivative work of Material icons (Copyright Google Inc.)</desc>
	<defs>
		<filter id="filter-EOBtPhKh" x="-12%" y="-9%" width="135%" height="183%" color-interpolation-filters="sRGB">
			<feColorMatrix values="1 0 0 0 0 0 1 0 0 0 0 0 1 0 0 0 0 0 0.2 0" in="SourceGraphic"/>
			<feOffset dy="20"/>
			<feGaussianBlur stdDeviation="11" result="blur0"/>
			<feColorMatrix values="1 0 0 0 0 0 1 0 0 0 0 0 1 0 0 0 0 0 0.3 0" in="SourceGraphic"/>
			<feOffset dy="30"/>
			<feGaussianBlur stdDeviation="20" result="blur1"/>
			<feMerge>
				<feMergeNode in="blur0"/>
				<feMergeNode in="blur1"/>
			</feMerge>
		</filter>
	</defs>
	<g fill="none" fill-rule="nonzero" style="mix-blend-mode: normal">
		<path d="M929.7,673.38v104.43h-835.41v-104.43c0,-82.41 164.42,-123.41 246.82,-123.41c45.57,0 116.58,12.52 170.88,37.97c54.3,-25.06 125.31,-37.97 170.88,-37.97c82.41,0 246.82,41 246.82,123.41zM208.22,379.1c0,-73.29 59.61,-132.91 132.9,-132.91c73.29,0 132.9,59.62 132.9,132.91c0,73.29 -59.61,132.9 -132.9,132.9c-73.29,0 -132.9,-59.61 -132.9,-132.9zM549.98,379.1c0,-73.29 59.61,-132.91 132.9,-132.91c73.29,0 132.9,59.62 132.9,132.91c0,73.29 -59.61,132.9 -132.9,132.9c-73.29,0 -132.9,-59.61 -132.9,-132.9zM530.98,673.38c0,-20.51 -97.21,-66.45 -189.86,-66.45c-92.66,0 -189.86,45.94 -189.86,66.45v47.47h379.73zM872.74,673.38c0,-20.51 -97.21,-66.45 -189.86,-66.45c-40.25,0 -81.26,8.73 -114.68,20.12c12.15,13.67 19.74,28.85 19.74,46.32v47.47h284.8zM265.18,379.1c0,41.77 34.18,75.94 75.94,75.94c41.77,0 75.94,-34.18 75.94,-75.94c0,-41.77 -34.18,-75.95 -75.94,-75.95c-41.77,0 -75.94,34.18 -75.94,75.95zM606.94,379.1c0,41.77 34.18,75.94 75.94,75.94c41.77,0 75.94,-34.18 75.94,-75.94c0,-41.77 -34.18,-75.95 -75.94,-75.95c-41.77,0 -75.94,34.18 -75.94,75.95z" fill="#000000" filter="url(#filter-EOBtPhKh)"/>
		<g>
			<g color="#039be5" class="teamapps-color-1">
				<path d="M929.7,673.38v104.43h-835.41v-104.43c0,-82.41 164.42,-123.41 246.82,-123.41c45.57,0 116.58,12.52 170.88,37.97c54.3,-25.06 125.31,-37.97 170.88,-37.97c82.41,0 246.82,41 246.82,123.41zM208.22,379.1c0,-73.29 59.61,-132.91 132.9,-132.91c73.29,0 132.9,59.62 132.9,132.91c0,73.29 -59.61,132.9 -132.9,132.9c-73.29,0 -132.9,-59.61 -132.9,-132.9zM549.98,379.1c0,-73.29 59.61,-132.91 132.9,-132.91c73.29,0 132.9,59.62 132.9,132.91c0,73.29 -59.61,132.9 -132.9,132.9c-73.29,0 -132.9,-59.61 -132.9,-132.9zM530.98,673.38c0,-20.51 -97.21,-66.45 -189.86,-66.45c-92.66,0 -189.86,45.94 -189.86,66.45v47.47h379.73zM872.74,673.38c0,-20.51 -97.21,-66.45 -189.86,-66.45c-40.25,0 -81.26,8.73 -114.68,20.12c12.15,13.67 19.74,28.85 19.74,46.32v47.47h284.8zM265.18,379.1c0,41.77 34.18,75.94 75.94,75.94c41.77,0 75.94,-34.18 75.94,-75.94c0,-41.77 -34.18,-75.95 -75.94,-75.95c-41.77,0 -75.94,34.18 -75.94,75.95zM606.94,379.1c0,41.77 34.18,75.94 75.94,75.94c41.77,0 75.94,-34.18 75.94,-75.94c0,-41.77 -34.18,-75.95 -75.94,-75.95c-41.77,0 -75.94,34.18 -75.94,75.95z" fill="currentColor"/>
			</g>
		</g>
	</g>
</svg>