<svg version="1.1" xmlns="http://www.w3.org/2000/svg" xmlns:xlink="http://www.w3.org/1999/xlink" viewBox="0,0,1024,1024">
	<!-- Color names: teamapps-color-1 -->
	<desc>perm_scan_wifi icon - Licensed under Apache License v2.0 (http://www.apache.org/licenses/LICENSE-2.0) - Created with Iconfu.com - Derivative work of Material icons (Copyright Google Inc.)</desc>
	<defs>
		<clipPath id="clip-ZWczM4HA">
			<path d="M0,1024v-896.76h1024v896.76z"/>
		</clipPath>
		<filter id="filter-eTGcuCy4" x="-11%" y="-6%" width="128%" height="150%" color-interpolation-filters="sRGB">
			<feColorMatrix values="1 0 0 0 0 0 1 0 0 0 0 0 1 0 0 0 0 0 0.2 0" in="SourceGraphic"/>
			<feOffset dy="20"/>
			<feGaussianBlur stdDeviation="11" result="blur0"/>
			<feColorMatrix values="1 0 0 0 0 0 1 0 0 0 0 0 1 0 0 0 0 0 0.3 0" in="SourceGraphic"/>
			<feOffset dy="30"/>
			<feGaussianBlur stdDeviation="20" result="blur1"/>
			<feMerge>
				<feMergeNode in="blur0"/>
				<feMergeNode in="blur1"/>
			</feMerge>
		</filter>
	</defs>
	<g fill="none" fill-rule="nonzero" style="mix-blend-mode: normal">
		<g clip-path="url(#clip-ZWczM4HA)">
			<path d="M967.68,331.62l-455.68,560.11l-455.68,-560.87c119.62,-90.38 263.91,-160.63 455.68,-160.63c191.77,0 336.06,71 455.68,161.38zM549.98,436.06h-75.95v227.84h75.95zM549.98,360.1v-75.94h-75.95v75.94z" fill="#000000" filter="url(#filter-eTGcuCy4)"/>
		</g>
		<g>
			<g color="#039be5" class="teamapps-color-1">
				<path d="M967.68,331.62l-455.68,560.11l-455.68,-560.87c119.62,-90.38 263.91,-160.63 455.68,-160.63c191.77,0 336.06,71 455.68,161.38zM549.98,436.06h-75.95v227.84h75.95zM549.98,360.1v-75.94h-75.95v75.94z" fill="currentColor"/>
			</g>
		</g>
	</g>
</svg>