<svg version="1.1" xmlns="http://www.w3.org/2000/svg" xmlns:xlink="http://www.w3.org/1999/xlink" viewBox="0,0,1024,1024">
	<!-- Color names: teamapps-color-1 -->
	<desc>photo_size_select_large icon - Licensed under Apache License v2.0 (http://www.apache.org/licenses/LICENSE-2.0) - Created with Iconfu.com - Derivative work of Material icons (Copyright Google Inc.)</desc>
	<defs>
		<filter id="filter-PRBuemo0" x="-12%" y="-7%" width="135%" height="153%" color-interpolation-filters="sRGB">
			<feColorMatrix values="1 0 0 0 0 0 1 0 0 0 0 0 1 0 0 0 0 0 0.2 0" in="SourceGraphic"/>
			<feOffset dy="20"/>
			<feGaussianBlur stdDeviation="11" result="blur0"/>
			<feColorMatrix values="1 0 0 0 0 0 1 0 0 0 0 0 1 0 0 0 0 0 0.3 0" in="SourceGraphic"/>
			<feOffset dy="30"/>
			<feGaussianBlur stdDeviation="20" result="blur1"/>
			<feMerge>
				<feMergeNode in="blur0"/>
				<feMergeNode in="blur1"/>
			</feMerge>
		</filter>
	</defs>
	<g fill="none" fill-rule="nonzero" style="mix-blend-mode: normal">
		<path d="M625.92,474.02v379.74h-455.68c-41.77,0 -75.94,-34.18 -75.94,-75.94v-303.79zM549.98,777.82l-121.89,-162.53l-94.94,122.28l-67.97,-81.64l-94.94,121.89zM701.86,777.82h75.95v75.94h-75.95zM94.3,322.14h75.94v75.94h-75.94zM549.98,170.24h75.94v75.94h-75.94zM701.86,170.24h75.95v75.94h-75.95zM170.24,246.18h-75.94c0,-37.98 37.97,-75.94 75.94,-75.94zM853.76,853.76v-75.94h75.94c0,37.98 -37.97,75.94 -75.94,75.94zM853.76,322.14h75.94v75.94h-75.94zM398.08,170.24h75.94v75.94h-75.94zM246.18,170.24h75.95v75.94h-75.95zM853.76,474.02h75.94v75.95h-75.94zM929.7,246.18h-75.94v-75.94c37.98,0 75.94,37.97 75.94,75.94zM853.76,625.92h75.94v75.94h-75.94z" fill="#000000" filter="url(#filter-PRBuemo0)"/>
		<g>
			<g color="#039be5" class="teamapps-color-1">
				<path d="M625.92,474.02v379.74h-455.68c-41.77,0 -75.94,-34.18 -75.94,-75.94v-303.79zM549.98,777.82l-121.89,-162.53l-94.94,122.28l-67.97,-81.64l-94.94,121.89zM701.86,777.82h75.95v75.94h-75.95zM94.3,322.14h75.94v75.94h-75.94zM549.98,170.24h75.94v75.94h-75.94zM701.86,170.24h75.95v75.94h-75.95zM170.24,246.18h-75.94c0,-37.98 37.97,-75.94 75.94,-75.94zM853.76,853.76v-75.94h75.94c0,37.98 -37.97,75.94 -75.94,75.94zM853.76,322.14h75.94v75.94h-75.94zM398.08,170.24h75.94v75.94h-75.94zM246.18,170.24h75.95v75.94h-75.95zM853.76,474.02h75.94v75.95h-75.94zM929.7,246.18h-75.94v-75.94c37.98,0 75.94,37.97 75.94,75.94zM853.76,625.92h75.94v75.94h-75.94z" fill="currentColor"/>
			</g>
		</g>
	</g>
</svg>