<svg version="1.1" xmlns="http://www.w3.org/2000/svg" xmlns:xlink="http://www.w3.org/1999/xlink" viewBox="0,0,1024,1024">
	<!-- Color names: teamapps-color-1 -->
	<desc>print icon - Licensed under Apache License v2.0 (http://www.apache.org/licenses/LICENSE-2.0) - Created with Iconfu.com - Derivative work of Material icons (Copyright Google Inc.)</desc>
	<defs>
		<filter id="filter-l9Dsu8I0" x="-13%" y="-7%" width="143%" height="153%" color-interpolation-filters="sRGB">
			<feColorMatrix values="1 0 0 0 0 0 1 0 0 0 0 0 1 0 0 0 0 0 0.2 0" in="SourceGraphic"/>
			<feOffset dy="20"/>
			<feGaussianBlur stdDeviation="11" result="blur0"/>
			<feColorMatrix values="1 0 0 0 0 0 1 0 0 0 0 0 1 0 0 0 0 0 0.3 0" in="SourceGraphic"/>
			<feOffset dy="30"/>
			<feGaussianBlur stdDeviation="20" result="blur1"/>
			<feMerge>
				<feMergeNode in="blur0"/>
				<feMergeNode in="blur1"/>
			</feMerge>
		</filter>
	</defs>
	<g fill="none" fill-rule="nonzero" style="mix-blend-mode: normal">
		<path d="M891.74,474.02v227.84h-151.9v151.9h-455.68v-151.9h-151.9v-227.84c0,-63.04 50.88,-113.92 113.92,-113.92h531.63c63.04,0 113.92,50.88 113.92,113.92zM739.84,322.14h-455.68v-151.9h455.68zM663.9,587.94h-303.79v189.87h303.79zM815.78,474.02c0,-20.89 -17.08,-37.97 -37.97,-37.97c-20.89,0 -37.98,17.08 -37.98,37.97c0,20.89 17.09,37.98 37.98,37.98c20.89,0 37.97,-17.09 37.97,-37.98z" fill="#000000" filter="url(#filter-l9Dsu8I0)"/>
		<g>
			<g color="#039be5" class="teamapps-color-1">
				<path d="M891.74,474.02v227.84h-151.9v151.9h-455.68v-151.9h-151.9v-227.84c0,-63.04 50.88,-113.92 113.92,-113.92h531.63c63.04,0 113.92,50.88 113.92,113.92zM739.84,322.14h-455.68v-151.9h455.68zM663.9,587.94h-303.79v189.87h303.79zM815.78,474.02c0,-20.89 -17.08,-37.97 -37.97,-37.97c-20.89,0 -37.98,17.08 -37.98,37.97c0,20.89 17.09,37.98 37.98,37.98c20.89,0 37.97,-17.09 37.97,-37.98z" fill="currentColor"/>
			</g>
		</g>
	</g>
</svg>