<svg version="1.1" xmlns="http://www.w3.org/2000/svg" xmlns:xlink="http://www.w3.org/1999/xlink" viewBox="0,0,1024,1024">
	<!-- Color names: teamapps-color-1 -->
	<desc>settings_power icon - Licensed under Apache License v2.0 (http://www.apache.org/licenses/LICENSE-2.0) - Created with Iconfu.com - Derivative work of Material icons (Copyright Google Inc.)</desc>
	<defs>
		<clipPath id="clip-kJBK6YFy">
			<path d="M115.22,89.26h793.57v934.74h-793.57z"/>
		</clipPath>
		<filter id="filter-8P3xqmct" x="-16%" y="-6%" width="166%" height="139%" color-interpolation-filters="sRGB">
			<feColorMatrix values="1 0 0 0 0 0 1 0 0 0 0 0 1 0 0 0 0 0 0.2 0" in="SourceGraphic"/>
			<feOffset dy="20"/>
			<feGaussianBlur stdDeviation="11" result="blur0"/>
			<feColorMatrix values="1 0 0 0 0 0 1 0 0 0 0 0 1 0 0 0 0 0 0.3 0" in="SourceGraphic"/>
			<feOffset dy="30"/>
			<feGaussianBlur stdDeviation="20" result="blur1"/>
			<feMerge>
				<feMergeNode in="blur0"/>
				<feMergeNode in="blur1"/>
			</feMerge>
		</filter>
	</defs>
	<g fill="none" fill-rule="nonzero" style="mix-blend-mode: normal">
		<g clip-path="url(#clip-kJBK6YFy)">
			<path d="M815.78,474.02c0,167.85 -135.94,303.79 -303.78,303.79c-167.85,0 -303.78,-135.95 -303.78,-303.79c0,-103.28 51.64,-194.42 130.63,-249.1l54.68,54.68c-65.32,40.25 -109.36,112.02 -109.36,194.42c0,125.69 102.15,227.84 227.84,227.84c125.69,0 227.84,-102.15 227.84,-227.84c0,-82.41 -44.05,-154.17 -109.75,-194.04l55.06,-55.06c78.99,54.68 130.63,145.82 130.63,249.1zM549.98,512h-75.95v-379.74h75.95zM322.14,891.74h75.94v75.94h-75.94zM474.02,891.74h75.95v75.94h-75.95zM625.92,891.74h75.94v75.94h-75.94z" fill="#000000" filter="url(#filter-8P3xqmct)"/>
		</g>
		<g>
			<g color="#039be5" class="teamapps-color-1">
				<path d="M815.78,474.02c0,167.85 -135.94,303.79 -303.78,303.79c-167.85,0 -303.78,-135.95 -303.78,-303.79c0,-103.28 51.64,-194.42 130.63,-249.1l54.68,54.68c-65.32,40.25 -109.36,112.02 -109.36,194.42c0,125.69 102.15,227.84 227.84,227.84c125.69,0 227.84,-102.15 227.84,-227.84c0,-82.41 -44.05,-154.17 -109.75,-194.04l55.06,-55.06c78.99,54.68 130.63,145.82 130.63,249.1zM549.98,512h-75.95v-379.74h75.95zM322.14,891.74h75.94v75.94h-75.94zM474.02,891.74h75.95v75.94h-75.95zM625.92,891.74h75.94v75.94h-75.94z" fill="currentColor"/>
			</g>
		</g>
	</g>
</svg>