<svg version="1.1" xmlns="http://www.w3.org/2000/svg" xmlns:xlink="http://www.w3.org/1999/xlink" viewBox="0,0,1024,1024">
	<!-- Color names: teamapps-color-1 -->
	<desc>shopping_cart icon - Licensed under Apache License v2.0 (http://www.apache.org/licenses/LICENSE-2.0) - Created with Iconfu.com - Derivative work of Material icons (Copyright Google Inc.)</desc>
	<defs>
		<clipPath id="clip-K3DwGACt">
			<path d="M1.3,89.26h945.46v934.74h-945.46z"/>
		</clipPath>
		<filter id="filter-s7bsIIlY" x="-13%" y="-6%" width="138%" height="143%" color-interpolation-filters="sRGB">
			<feColorMatrix values="1 0 0 0 0 0 1 0 0 0 0 0 1 0 0 0 0 0 0.2 0" in="SourceGraphic"/>
			<feOffset dy="20"/>
			<feGaussianBlur stdDeviation="11" result="blur0"/>
			<feColorMatrix values="1 0 0 0 0 0 1 0 0 0 0 0 1 0 0 0 0 0 0.3 0" in="SourceGraphic"/>
			<feOffset dy="30"/>
			<feGaussianBlur stdDeviation="20" result="blur1"/>
			<feMerge>
				<feMergeNode in="blur0"/>
				<feMergeNode in="blur1"/>
			</feMerge>
		</filter>
	</defs>
	<g fill="none" fill-rule="nonzero" style="mix-blend-mode: normal">
		<g clip-path="url(#clip-K3DwGACt)">
			<path d="M218.47,132.26l35.69,75.95h561.63c20.89,0 37.98,17.08 37.98,37.97c0,6.45 -1.52,12.91 -4.56,18.23l-135.95,246.45c-12.91,23.54 -37.97,39.12 -66.45,39.12h-282.9l-34.18,61.89l-1.14,4.56c0,5.31 4.18,9.5 9.5,9.5h439.73v75.94h-455.68c-41.77,0 -75.95,-34.18 -75.95,-75.94c0,-13.29 3.42,-25.82 9.5,-36.45l51.26,-93.03l-136.7,-288.22h-75.94v-75.95zM398.08,815.78c0,41.77 -34.18,75.95 -75.94,75.95c-41.77,0 -75.57,-34.18 -75.57,-75.95c0,-41.77 33.8,-75.94 75.57,-75.94c41.77,0 75.94,34.18 75.94,75.94zM777.82,815.78c0,41.77 -34.18,75.95 -75.95,75.95c-41.77,0 -75.56,-34.18 -75.56,-75.95c0,-41.77 33.79,-75.94 75.56,-75.94c41.77,0 75.95,34.18 75.95,75.94z" fill="#000000" filter="url(#filter-s7bsIIlY)"/>
		</g>
		<g>
			<g color="#039be5" class="teamapps-color-1">
				<path d="M218.47,132.26l35.69,75.95h561.63c20.89,0 37.98,17.08 37.98,37.97c0,6.45 -1.52,12.91 -4.56,18.23l-135.95,246.45c-12.91,23.54 -37.97,39.12 -66.45,39.12h-282.9l-34.18,61.89l-1.14,4.56c0,5.31 4.18,9.5 9.5,9.5h439.73v75.94h-455.68c-41.77,0 -75.95,-34.18 -75.95,-75.94c0,-13.29 3.42,-25.82 9.5,-36.45l51.26,-93.03l-136.7,-288.22h-75.94v-75.95zM398.08,815.78c0,41.77 -34.18,75.95 -75.94,75.95c-41.77,0 -75.57,-34.18 -75.57,-75.95c0,-41.77 33.8,-75.94 75.57,-75.94c41.77,0 75.94,34.18 75.94,75.94zM777.82,815.78c0,41.77 -34.18,75.95 -75.95,75.95c-41.77,0 -75.56,-34.18 -75.56,-75.95c0,-41.77 33.79,-75.94 75.56,-75.94c41.77,0 75.95,34.18 75.95,75.94z" fill="currentColor"/>
			</g>
		</g>
	</g>
</svg>