<svg version="1.1" xmlns="http://www.w3.org/2000/svg" xmlns:xlink="http://www.w3.org/1999/xlink" viewBox="0,0,1024,1024">
	<!-- Color names: teamapps-color-1 -->
	<desc>thumb_up icon - Licensed under Apache License v2.0 (http://www.apache.org/licenses/LICENSE-2.0) - Created with Iconfu.com - Derivative work of Material icons (Copyright Google Inc.)</desc>
	<defs>
		<filter id="filter-53HXJYtD" x="-12%" y="-6%" width="135%" height="138%" color-interpolation-filters="sRGB">
			<feColorMatrix values="1 0 0 0 0 0 1 0 0 0 0 0 1 0 0 0 0 0 0.2 0" in="SourceGraphic"/>
			<feOffset dy="20"/>
			<feGaussianBlur stdDeviation="11" result="blur0"/>
			<feColorMatrix values="1 0 0 0 0 0 1 0 0 0 0 0 1 0 0 0 0 0 0.3 0" in="SourceGraphic"/>
			<feOffset dy="30"/>
			<feGaussianBlur stdDeviation="20" result="blur1"/>
			<feMerge>
				<feMergeNode in="blur0"/>
				<feMergeNode in="blur1"/>
			</feMerge>
		</filter>
	</defs>
	<g fill="none" fill-rule="nonzero" style="mix-blend-mode: normal">
		<path d="M929.33,439.09l0.37,0.38v72.53c0,9.87 -1.9,18.99 -5.31,27.72l-114.68,267.71c-11.39,27.34 -38.36,46.32 -69.87,46.32h-341.76c-41.77,0 -75.94,-34.18 -75.94,-75.94v-379.74c0,-20.89 8.35,-39.87 22.4,-53.54l249.87,-250.24l40.25,39.87c10.25,10.25 16.71,24.68 16.71,40.25l-1.14,12.16l-36.08,173.53h239.61c41.77,0 75.94,34.18 75.94,75.95zM94.3,398.08h151.89v455.68h-151.89z" fill="#000000" filter="url(#filter-53HXJYtD)"/>
		<g>
			<g color="#039be5" class="teamapps-color-1">
				<path d="M929.33,439.09l0.37,0.38v72.53c0,9.87 -1.9,18.99 -5.31,27.72l-114.68,267.71c-11.39,27.34 -38.36,46.32 -69.87,46.32h-341.76c-41.77,0 -75.94,-34.18 -75.94,-75.94v-379.74c0,-20.89 8.35,-39.87 22.4,-53.54l249.87,-250.24l40.25,39.87c10.25,10.25 16.71,24.68 16.71,40.25l-1.14,12.16l-36.08,173.53h239.61c41.77,0 75.94,34.18 75.94,75.95zM94.3,398.08h151.89v455.68h-151.89z" fill="currentColor"/>
			</g>
		</g>
	</g>
</svg>