<svg version="1.1" xmlns="http://www.w3.org/2000/svg" xmlns:xlink="http://www.w3.org/1999/xlink" viewBox="0,0,1024,1024">
	<!-- Color names: teamapps-color-1 -->
	<desc>time_to_leave icon - Licensed under Apache License v2.0 (http://www.apache.org/licenses/LICENSE-2.0) - Created with Iconfu.com - Derivative work of Material icons (Copyright Google Inc.)</desc>
	<defs>
		<filter id="filter-9c5adjnq" x="-14%" y="-8%" width="153%" height="166%" color-interpolation-filters="sRGB">
			<feColorMatrix values="1 0 0 0 0 0 1 0 0 0 0 0 1 0 0 0 0 0 0.2 0" in="SourceGraphic"/>
			<feOffset dy="20"/>
			<feGaussianBlur stdDeviation="11" result="blur0"/>
			<feColorMatrix values="1 0 0 0 0 0 1 0 0 0 0 0 1 0 0 0 0 0 0.3 0" in="SourceGraphic"/>
			<feOffset dy="30"/>
			<feGaussianBlur stdDeviation="20" result="blur1"/>
			<feMerge>
				<feMergeNode in="blur0"/>
				<feMergeNode in="blur1"/>
			</feMerge>
		</filter>
	</defs>
	<g fill="none" fill-rule="nonzero" style="mix-blend-mode: normal">
		<path d="M853.76,474.02v303.79c0,20.89 -17.09,37.97 -37.98,37.97h-37.97c-20.89,0 -37.98,-17.08 -37.98,-37.97v-37.98h-455.68v37.98c0,20.89 -17.09,37.97 -37.98,37.97h-37.97c-20.89,0 -37.98,-17.08 -37.98,-37.97v-303.79l78.99,-227.46c7.97,-22.4 28.85,-38.35 53.92,-38.35h417.71c25.06,0 46.32,15.95 53.92,38.35zM777.82,436.06l-56.96,-170.88h-417.71l-56.96,170.88zM360.1,568.96c0,-31.51 -25.45,-56.96 -56.96,-56.96c-31.51,0 -56.96,25.45 -56.96,56.96c0,31.51 25.45,56.96 56.96,56.96c31.51,0 56.96,-25.45 56.96,-56.96zM777.82,568.96c0,-31.51 -25.45,-56.96 -56.96,-56.96c-31.51,0 -56.96,25.45 -56.96,56.96c0,31.51 25.45,56.96 56.96,56.96c31.51,0 56.96,-25.45 56.96,-56.96z" fill="#000000" filter="url(#filter-9c5adjnq)"/>
		<g>
			<g color="#039be5" class="teamapps-color-1">
				<path d="M853.76,474.02v303.79c0,20.89 -17.09,37.97 -37.98,37.97h-37.97c-20.89,0 -37.98,-17.08 -37.98,-37.97v-37.98h-455.68v37.98c0,20.89 -17.09,37.97 -37.98,37.97h-37.97c-20.89,0 -37.98,-17.08 -37.98,-37.97v-303.79l78.99,-227.46c7.97,-22.4 28.85,-38.35 53.92,-38.35h417.71c25.06,0 46.32,15.95 53.92,38.35zM777.82,436.06l-56.96,-170.88h-417.71l-56.96,170.88zM360.1,568.96c0,-31.51 -25.45,-56.96 -56.96,-56.96c-31.51,0 -56.96,25.45 -56.96,56.96c0,31.51 25.45,56.96 56.96,56.96c31.51,0 56.96,-25.45 56.96,-56.96zM777.82,568.96c0,-31.51 -25.45,-56.96 -56.96,-56.96c-31.51,0 -56.96,25.45 -56.96,56.96c0,31.51 25.45,56.96 56.96,56.96c31.51,0 56.96,-25.45 56.96,-56.96z" fill="currentColor"/>
			</g>
		</g>
	</g>
</svg>