<svg version="1.1" xmlns="http://www.w3.org/2000/svg" xmlns:xlink="http://www.w3.org/1999/xlink" viewBox="0,0,1024,1024">
	<!-- Color names: teamapps-color-1 -->
	<desc>transform icon - Licensed under Apache License v2.0 (http://www.apache.org/licenses/LICENSE-2.0) - Created with Iconfu.com - Derivative work of Material icons (Copyright Google Inc.)</desc>
	<defs>
		<clipPath id="clip-ebYhig4p">
			<path d="M39.26,51.3h945.47v972.7h-945.47z"/>
		</clipPath>
		<filter id="filter-dSRYZOFz" x="-13%" y="-6%" width="143%" height="135%" color-interpolation-filters="sRGB">
			<feColorMatrix values="1 0 0 0 0 0 1 0 0 0 0 0 1 0 0 0 0 0 0.2 0" in="SourceGraphic"/>
			<feOffset dy="20"/>
			<feGaussianBlur stdDeviation="11" result="blur0"/>
			<feColorMatrix values="1 0 0 0 0 0 1 0 0 0 0 0 1 0 0 0 0 0 0.3 0" in="SourceGraphic"/>
			<feOffset dy="30"/>
			<feGaussianBlur stdDeviation="20" result="blur1"/>
			<feMerge>
				<feMergeNode in="blur0"/>
				<feMergeNode in="blur1"/>
			</feMerge>
		</filter>
	</defs>
	<g fill="none" fill-rule="nonzero" style="mix-blend-mode: normal">
		<g clip-path="url(#clip-ebYhig4p)">
			<path d="M739.84,739.84v75.94h75.94l-113.92,113.92l-113.92,-113.92h75.95v-75.94h-303.79c-41.77,0 -75.94,-34.18 -75.94,-75.94v-303.79h-151.9v-75.94h151.9v-75.94h-75.94l113.92,-113.92l113.92,113.92h-75.95v455.68h531.63v75.94zM436.06,284.16h227.84c41.77,0 75.94,34.18 75.94,75.94v227.84h-75.94v-227.84h-227.84z" fill="#000000" filter="url(#filter-dSRYZOFz)"/>
		</g>
		<g>
			<g color="#039be5" class="teamapps-color-1">
				<path d="M739.84,739.84v75.94h75.94l-113.92,113.92l-113.92,-113.92h75.95v-75.94h-303.79c-41.77,0 -75.94,-34.18 -75.94,-75.94v-303.79h-151.9v-75.94h151.9v-75.94h-75.94l113.92,-113.92l113.92,113.92h-75.95v455.68h531.63v75.94zM436.06,284.16h227.84c41.77,0 75.94,34.18 75.94,75.94v227.84h-75.94v-227.84h-227.84z" fill="currentColor"/>
			</g>
		</g>
	</g>
</svg>