<svg version="1.1" xmlns="http://www.w3.org/2000/svg" xmlns:xlink="http://www.w3.org/1999/xlink" viewBox="0,0,1024,1024">
	<!-- Color names: teamapps-color-1 -->
	<desc>tune icon - Licensed under Apache License v2.0 (http://www.apache.org/licenses/LICENSE-2.0) - Created with Iconfu.com - Derivative work of Material icons (Copyright Google Inc.)</desc>
	<defs>
		<filter id="filter-KmHt9Mee" x="-14%" y="-7%" width="153%" height="153%" color-interpolation-filters="sRGB">
			<feColorMatrix values="1 0 0 0 0 0 1 0 0 0 0 0 1 0 0 0 0 0 0.2 0" in="SourceGraphic"/>
			<feOffset dy="20"/>
			<feGaussianBlur stdDeviation="11" result="blur0"/>
			<feColorMatrix values="1 0 0 0 0 0 1 0 0 0 0 0 1 0 0 0 0 0 0.3 0" in="SourceGraphic"/>
			<feOffset dy="30"/>
			<feGaussianBlur stdDeviation="20" result="blur1"/>
			<feMerge>
				<feMergeNode in="blur0"/>
				<feMergeNode in="blur1"/>
			</feMerge>
		</filter>
	</defs>
	<g fill="none" fill-rule="nonzero" style="mix-blend-mode: normal">
		<path d="M474.02,853.76v-227.84h75.95v75.94h303.78v75.95h-303.78v75.94zM398.08,398.08v227.84h-75.94v-75.94h-151.9v-75.95h151.9v-75.94zM625.92,170.24h75.94v75.94h151.9v75.95h-151.9v75.94h-75.94zM474.02,549.98v-75.95h379.74v75.95zM549.98,246.18v75.95h-379.74v-75.95zM398.08,701.86v75.95h-227.84v-75.95z" fill="#000000" filter="url(#filter-KmHt9Mee)"/>
		<g>
			<g color="#039be5" class="teamapps-color-1">
				<path d="M474.02,853.76v-227.84h75.95v75.94h303.78v75.95h-303.78v75.94zM398.08,398.08v227.84h-75.94v-75.94h-151.9v-75.95h151.9v-75.94zM625.92,170.24h75.94v75.94h151.9v75.95h-151.9v75.94h-75.94zM474.02,549.98v-75.95h379.74v75.95zM549.98,246.18v75.95h-379.74v-75.95zM398.08,701.86v75.95h-227.84v-75.95z" fill="currentColor"/>
			</g>
		</g>
	</g>
</svg>