<svg version="1.1" xmlns="http://www.w3.org/2000/svg" xmlns:xlink="http://www.w3.org/1999/xlink" viewBox="0,0,1024,1024">
	<!-- Color names: teamapps-color-1 -->
	<desc>usb icon - Licensed under Apache License v2.0 (http://www.apache.org/licenses/LICENSE-2.0) - Created with Iconfu.com - Derivative work of Material icons (Copyright Google Inc.)</desc>
	<defs>
		<clipPath id="clip-nU2yGCh4">
			<path d="M145.59,51.3h725.22v972.7h-725.22z"/>
		</clipPath>
		<filter id="filter-3iuslUgm" x="-18%" y="-6%" width="180%" height="136%" color-interpolation-filters="sRGB">
			<feColorMatrix values="1 0 0 0 0 0 1 0 0 0 0 0 1 0 0 0 0 0 0.2 0" in="SourceGraphic"/>
			<feOffset dy="20"/>
			<feGaussianBlur stdDeviation="11" result="blur0"/>
			<feColorMatrix values="1 0 0 0 0 0 1 0 0 0 0 0 1 0 0 0 0 0 0.3 0" in="SourceGraphic"/>
			<feOffset dy="30"/>
			<feGaussianBlur stdDeviation="20" result="blur1"/>
			<feMerge>
				<feMergeNode in="blur0"/>
				<feMergeNode in="blur1"/>
			</feMerge>
		</filter>
	</defs>
	<g fill="none" fill-rule="nonzero" style="mix-blend-mode: normal">
		<g clip-path="url(#clip-nU2yGCh4)">
			<path d="M777.82,322.14v151.89h-37.98v75.95c0,42.15 -33.79,75.94 -75.94,75.94h-113.92v115.82c26.96,14.05 45.57,41.77 45.57,74.05c0,46.32 -37.59,83.54 -83.54,83.54c-45.95,0 -83.54,-37.22 -83.54,-83.54c0,-32.28 18.61,-59.99 45.57,-74.05v-115.82h-113.92c-42.15,0 -75.94,-33.79 -75.94,-75.94v-78.6c-26.58,-14.05 -45.57,-41.01 -45.57,-73.29c0,-45.95 37.59,-83.54 83.54,-83.54c45.95,0 83.54,37.59 83.54,83.54c0,32.28 -18.98,59.24 -45.57,73.29v78.6h113.92v-303.79h-75.94l113.92,-151.89l113.92,151.89h-75.94v303.79h113.92v-75.95h-37.98v-151.89z" fill="#000000" filter="url(#filter-3iuslUgm)"/>
		</g>
		<g>
			<g color="#039be5" class="teamapps-color-1">
				<path d="M777.82,322.14v151.89h-37.98v75.95c0,42.15 -33.79,75.94 -75.94,75.94h-113.92v115.82c26.96,14.05 45.57,41.77 45.57,74.05c0,46.32 -37.59,83.54 -83.54,83.54c-45.95,0 -83.54,-37.22 -83.54,-83.54c0,-32.28 18.61,-59.99 45.57,-74.05v-115.82h-113.92c-42.15,0 -75.94,-33.79 -75.94,-75.94v-78.6c-26.58,-14.05 -45.57,-41.01 -45.57,-73.29c0,-45.95 37.59,-83.54 83.54,-83.54c45.95,0 83.54,37.59 83.54,83.54c0,32.28 -18.98,59.24 -45.57,73.29v78.6h113.92v-303.79h-75.94l113.92,-151.89l113.92,151.89h-75.94v303.79h113.92v-75.95h-37.98v-151.89z" fill="currentColor"/>
			</g>
		</g>
	</g>
</svg>