<svg version="1.1" xmlns="http://www.w3.org/2000/svg" xmlns:xlink="http://www.w3.org/1999/xlink" viewBox="0,0,1024,1024">
	<!-- Color names: teamapps-color-1 -->
	<desc>voicemail icon - Licensed under Apache License v2.0 (http://www.apache.org/licenses/LICENSE-2.0) - Created with Iconfu.com - Derivative work of Material icons (Copyright Google Inc.)</desc>
	<defs>
		<clipPath id="clip-AW4eXjOC">
			<path d="M0,241.16h1024v603.7h-1024z"/>
		</clipPath>
		<filter id="filter-qinrKkYh" x="-11%" y="-11%" width="128%" height="214%" color-interpolation-filters="sRGB">
			<feColorMatrix values="1 0 0 0 0 0 1 0 0 0 0 0 1 0 0 0 0 0 0.2 0" in="SourceGraphic"/>
			<feOffset dy="20"/>
			<feGaussianBlur stdDeviation="11" result="blur0"/>
			<feColorMatrix values="1 0 0 0 0 0 1 0 0 0 0 0 1 0 0 0 0 0 0.3 0" in="SourceGraphic"/>
			<feOffset dy="30"/>
			<feGaussianBlur stdDeviation="20" result="blur1"/>
			<feMerge>
				<feMergeNode in="blur0"/>
				<feMergeNode in="blur1"/>
			</feMerge>
		</filter>
	</defs>
	<g fill="none" fill-rule="nonzero" style="mix-blend-mode: normal">
		<g clip-path="url(#clip-AW4eXjOC)">
			<path d="M967.68,493.02c0,115.44 -93.41,208.85 -208.86,208.85h-493.65c-115.44,0 -208.86,-93.41 -208.86,-208.85c0,-115.44 93.41,-208.86 208.86,-208.86c115.44,0 208.85,93.41 208.85,208.86c0,50.51 -17.84,96.83 -47.85,132.9h171.65c-30,-36.07 -47.85,-82.4 -47.85,-132.9c0,-115.44 93.41,-208.86 208.85,-208.86c115.44,0 208.86,93.41 208.86,208.86zM398.08,493.02c0,-73.29 -59.61,-132.91 -132.9,-132.91c-73.29,0 -132.91,59.62 -132.91,132.91c0,73.29 59.62,132.9 132.91,132.9c73.29,0 132.9,-59.61 132.9,-132.9zM891.74,493.02c0,-73.29 -59.62,-132.91 -132.91,-132.91c-73.29,0 -132.9,59.62 -132.9,132.91c0,73.29 59.61,132.9 132.9,132.9c73.29,0 132.91,-59.61 132.91,-132.9z" fill="#000000" filter="url(#filter-qinrKkYh)"/>
		</g>
		<g>
			<g color="#039be5" class="teamapps-color-1">
				<path d="M967.68,493.02c0,115.44 -93.41,208.85 -208.86,208.85h-493.65c-115.44,0 -208.86,-93.41 -208.86,-208.85c0,-115.44 93.41,-208.86 208.86,-208.86c115.44,0 208.85,93.41 208.85,208.86c0,50.51 -17.84,96.83 -47.85,132.9h171.65c-30,-36.07 -47.85,-82.4 -47.85,-132.9c0,-115.44 93.41,-208.86 208.85,-208.86c115.44,0 208.86,93.41 208.86,208.86zM398.08,493.02c0,-73.29 -59.61,-132.91 -132.9,-132.91c-73.29,0 -132.91,59.62 -132.91,132.91c0,73.29 59.62,132.9 132.91,132.9c73.29,0 132.9,-59.61 132.9,-132.9zM891.74,493.02c0,-73.29 -59.62,-132.91 -132.91,-132.91c-73.29,0 -132.9,59.62 -132.9,132.91c0,73.29 59.61,132.9 132.9,132.9c73.29,0 132.91,-59.61 132.91,-132.9z" fill="currentColor"/>
			</g>
		</g>
	</g>
</svg>