<svg version="1.1" xmlns="http://www.w3.org/2000/svg" xmlns:xlink="http://www.w3.org/1999/xlink" viewBox="0,0,1024,1024">
	<!-- Color names: teamapps-color-1 -->
	<desc>ac_unit icon - Licensed under Apache License v2.0 (http://www.apache.org/licenses/LICENSE-2.0) - Created with Iconfu.com - Derivative work of Material icons (Copyright Google Inc.)</desc>
	<g fill="none" fill-rule="nonzero" style="mix-blend-mode: normal">
		<g color="#039be5" class="teamapps-color-1">
			<path d="M895.82,623.96c25.33,25.33 25.4,66.38 0.16,91.8l-52.52,52.89c-15.34,15.44 -36.49,21.57 -56.43,18.39c3.18,19.95 -2.94,41.1 -18.39,56.43l-52.89,52.52c-25.42,25.24 -66.47,25.17 -91.8,-0.16l-9.7,-9.7c-0.87,35.16 -29.64,63.39 -65,63.39h-74.5c-35.36,0 -64.13,-28.23 -65,-63.39l-9.7,9.7c-25.33,25.33 -66.38,25.4 -91.8,0.16l-52.89,-52.52c-15.44,-15.34 -21.57,-36.49 -18.39,-56.43c-19.95,3.18 -41.1,-2.94 -56.43,-18.39l-52.52,-52.89c-25.24,-25.42 -25.17,-66.47 0.16,-91.8l9.7,-9.7c-35.16,-0.87 -63.39,-29.64 -63.39,-65v-74.5c0,-35.36 28.23,-64.13 63.39,-65l-9.7,-9.7c-25.33,-25.33 -25.4,-66.38 -0.16,-91.8l52.52,-52.89c15.34,-15.44 36.49,-21.57 56.43,-18.39c-3.18,-19.95 2.94,-41.1 18.39,-56.43l52.89,-52.52c25.42,-25.24 66.47,-25.17 91.8,0.16l9.7,9.7c0.87,-35.16 29.64,-63.39 65,-63.39h74.5c35.36,0 64.13,28.23 65,63.39l9.7,-9.7c25.33,-25.33 66.38,-25.4 91.8,-0.16l52.89,52.52c15.44,15.34 21.57,36.49 18.39,56.43c19.95,-3.18 41.1,2.94 56.43,18.39l52.52,52.89c25.24,25.42 25.17,66.47 -0.16,91.8l-9.7,9.7c35.16,0.87 63.39,29.64 63.39,65v74.5c0,35.36 -28.23,64.13 -63.39,65zM934.15,549.25v-74.5c0,-27.43 -22.24,-49.66 -49.66,-49.66h-35.42l35.9,-35.9c19.35,-19.35 19.4,-50.7 0.12,-70.11l-52.52,-52.89c-19.37,-19.51 -50.91,-19.57 -70.36,-0.12l-159.03,159.02h-4.26v-4.26l159.02,-159.03c19.44,-19.44 19.39,-50.98 -0.12,-70.36l-52.89,-52.52c-19.41,-19.28 -50.77,-19.23 -70.11,0.12l-35.9,35.9v-35.42c0,-27.43 -22.24,-49.66 -49.66,-49.66h-74.5c-27.43,0 -49.66,22.24 -49.66,49.66v35.42l-35.9,-35.9c-19.35,-19.35 -50.7,-19.4 -70.11,-0.12l-52.89,52.52c-19.51,19.37 -19.57,50.91 -0.12,70.36l159.02,159.03v4.26h-4.26l-159.03,-159.02c-19.44,-19.44 -50.98,-19.39 -70.36,0.12l-52.52,52.89c-19.28,19.41 -19.23,50.77 0.12,70.11l35.9,35.9h-35.42c-27.43,0 -49.66,22.24 -49.66,49.66v74.5c0,27.43 22.24,49.66 49.66,49.66h35.42l-35.9,35.9c-19.35,19.35 -19.4,50.7 -0.12,70.11l52.52,52.89c19.37,19.51 50.91,19.57 70.36,0.12l159.03,-159.02h4.26v4.26l-159.02,159.03c-19.44,19.44 -19.39,50.98 0.12,70.36l52.89,52.52c19.41,19.28 50.77,19.23 70.11,-0.12l35.9,-35.9v35.42c0,27.43 22.24,49.66 49.66,49.66h74.5c27.43,0 49.66,-22.24 49.66,-49.66v-35.42l35.9,35.9c19.35,19.35 50.7,19.4 70.11,0.12l52.89,-52.52c19.51,-19.37 19.57,-50.91 0.12,-70.36l-159.02,-159.03v-4.26h4.26l159.03,159.02c19.44,19.44 50.98,19.39 70.36,-0.12l52.52,-52.89c19.28,-19.41 19.23,-50.77 -0.12,-70.11l-35.9,-35.9h35.42c27.43,0 49.66,-22.24 49.66,-49.66zM884.48,549.25h-155.32l120.68,120.68l-52.52,52.89l-173.58,-173.57h-74.49v74.49l173.57,173.58l-52.89,52.52l-120.68,-120.68v155.32h-74.5v-155.32l-120.68,120.68l-52.89,-52.52l173.57,-173.58v-74.49h-74.49l-173.58,173.57l-52.52,-52.89l120.68,-120.68h-155.32v-74.5h155.32l-120.68,-120.68l52.52,-52.89l173.58,173.57h74.49v-74.49l-173.57,-173.58l52.89,-52.52l120.68,120.68v-155.32h74.5v155.32l120.68,-120.68l52.89,52.52l-173.57,173.58v74.49h74.49l173.58,-173.57l52.52,52.89l-120.68,120.68h155.32z" fill="currentColor"/>
		</g>
	</g>
</svg>