<svg version="1.1" xmlns="http://www.w3.org/2000/svg" xmlns:xlink="http://www.w3.org/1999/xlink" viewBox="0,0,1024,1024">
	<!-- Color names: teamapps-color-1 -->
	<desc>access_alarms icon - Licensed under Apache License v2.0 (http://www.apache.org/licenses/LICENSE-2.0) - Created with Iconfu.com - Derivative work of Material icons (Copyright Google Inc.)</desc>
	<g fill="none" fill-rule="nonzero" style="mix-blend-mode: normal">
		<g color="#039be5" class="teamapps-color-1">
			<path d="M912.26,549.25c0,222.15 -178.11,400.26 -400.26,400.26c-222.15,0 -400.26,-178.11 -400.26,-400.26c0,-59.07 12.6,-115.08 35.32,-165.47c-2.94,-2.38 -5.7,-5.04 -8.25,-7.99l-48.43,-55.87c-23.92,-27.59 -20.43,-69.46 7.72,-92.72l171.34,-141.54c27.22,-22.49 67.42,-19.14 90.55,7.54l48.43,55.87c3.07,3.54 5.69,7.32 7.87,11.28c30.66,-7.44 62.71,-11.37 95.71,-11.37c32.39,0 63.87,3.79 94.01,10.96c2.47,-5.17 5.65,-10.08 9.57,-14.6l48.43,-55.87c23.34,-26.93 64.01,-30.05 91.19,-7.01l171.34,145.27c27.6,23.4 30.79,64.84 7.09,92.19l-48.43,55.87c-2.55,2.94 -5.32,5.61 -8.25,7.99c22.71,50.38 35.32,106.39 35.32,165.47zM857.29,378.12c6.06,-2.86 11.63,-7 16.3,-12.38l48.43,-55.87c18.1,-20.89 15.67,-52.54 -5.41,-70.41l-171.34,-145.27c-20.76,-17.6 -51.82,-15.21 -69.65,5.35l-48.43,55.87c-5.89,6.8 -9.61,14.73 -11.21,22.96c-33.03,-9.14 -67.9,-14.02 -103.97,-14.02c-36.37,0 -71.51,4.96 -104.79,14.25c-1.89,-6.97 -5.35,-13.63 -10.4,-19.46l-48.43,-55.87c-17.66,-20.38 -48.37,-22.94 -69.16,-5.76l-171.34,141.54c-21.5,17.76 -24.17,49.74 -5.9,70.82l48.43,55.87c4.67,5.38 10.24,9.52 16.3,12.38c-25.38,51.46 -39.61,109.53 -39.61,171.13c0,213.67 171.23,384.9 384.9,384.9c213.67,0 384.9,-171.23 384.9,-384.9c0,-61.6 -14.23,-119.67 -39.61,-171.13zM847.23,549.25c0,186.24 -148.99,335.23 -335.23,335.23c-186.24,0 -335.23,-148.99 -335.23,-335.23c0,-186.24 148.99,-335.23 335.23,-335.23c186.24,0 335.23,148.99 335.23,335.23zM772.74,549.25c0,-145.27 -115.47,-260.74 -260.74,-260.74c-145.27,0 -260.74,115.47 -260.74,260.74c0,145.27 115.47,260.73 260.74,260.73c145.27,0 260.74,-115.46 260.74,-260.73zM530.62,560.43l148.99,89.4l-29.8,44.7l-175.07,-108.03v-223.49h55.87zM836.06,333.21l-171.34,-145.27l48.43,-55.87l171.34,145.27zM187.94,333.21l-48.43,-55.87l171.34,-141.54l48.43,55.87z" fill="currentColor"/>
		</g>
	</g>
</svg>