<svg version="1.1" xmlns="http://www.w3.org/2000/svg" xmlns:xlink="http://www.w3.org/1999/xlink" viewBox="0,0,1024,1024">
	<!-- Color names: teamapps-color-1 -->
	<desc>add_alert icon - Licensed under Apache License v2.0 (http://www.apache.org/licenses/LICENSE-2.0) - Created with Iconfu.com - Derivative work of Material icons (Copyright Google Inc.)</desc>
	<g fill="none" fill-rule="nonzero" style="mix-blend-mode: normal">
		<g color="#039be5" class="teamapps-color-1">
			<path d="M912.26,770.5v39.48c0,35.91 -29.11,65.02 -65.02,65.02h-198.78c-12.72,63.76 -68.96,111.74 -136.45,111.74c-67.5,0 -123.73,-47.98 -136.45,-111.74h-198.78c-35.91,0 -65.02,-29.11 -65.02,-65.02v-39.48c0,-17.24 6.85,-33.78 19.04,-45.98l59.92,-59.93v-189.85c0,-134.1 82,-248.75 198.79,-296.9c9.92,-58.73 60.93,-103.36 122.5,-103.36c61.57,0 112.58,44.62 122.5,103.36c116.79,48.15 198.79,162.8 198.79,296.9v189.85l59.92,59.93c12.19,12.19 19.04,28.73 19.04,45.98zM882.35,735.39l-64.42,-64.43v-196.21c0,-130.78 -81.91,-242.16 -197.49,-285.94c-5.01,-55.54 -51.58,-98.95 -108.44,-98.95c-56.86,0 -103.44,43.41 -108.44,98.95c-115.58,43.78 -197.49,155.16 -197.49,285.94v196.21l-64.42,64.43c-9.31,9.31 -14.54,21.95 -14.54,35.12v39.48c0,27.43 22.24,49.66 49.66,49.66h212.02c6.05,62.75 58.88,111.74 123.21,111.74c64.33,0 117.17,-48.99 123.21,-111.74h212.02c27.43,0 49.66,-22.24 49.66,-49.66v-39.48c0,-13.17 -5.23,-25.8 -14.54,-35.12zM847.23,770.5v39.48h-670.46v-39.48l78.96,-78.97v-216.78c0,-121.06 83.81,-222.37 197.04,-249.19v-26.82c0,-32.78 26.44,-59.22 59.22,-59.22c32.78,0 59.22,26.44 59.22,59.22v26.82c113.24,26.82 197.04,128.13 197.04,249.19v216.78zM660.99,474.75h-111.74v-111.74h-74.5v111.74h-111.74v74.87h111.74v111.74h74.5v-111.74h111.74zM586.13,847.61c0,40.97 -33.16,74.12 -74.13,74.12c-40.97,0 -74.13,-33.15 -74.13,-74.12z" fill="currentColor"/>
		</g>
	</g>
</svg>