<svg version="1.1" xmlns="http://www.w3.org/2000/svg" xmlns:xlink="http://www.w3.org/1999/xlink" viewBox="0,0,1024,1024">
	<!-- Color names: teamapps-color-1 -->
	<desc>add_to_photos icon - Licensed under Apache License v2.0 (http://www.apache.org/licenses/LICENSE-2.0) - Created with Iconfu.com - Derivative work of Material icons (Copyright Google Inc.)</desc>
	<g fill="none" fill-rule="nonzero" style="mix-blend-mode: normal">
		<g color="#039be5" class="teamapps-color-1">
			<path d="M800.51,809.98v74.5c0,35.91 -29.11,65.02 -65.02,65.02h-521.47c-76.88,0 -139.53,-62.64 -139.53,-139.53v-521.47c0,-35.91 29.11,-65.02 65.02,-65.02h74.5c3.21,0 6.37,0.23 9.47,0.69v-10.16c0,-76.87 62.63,-139.53 139.52,-139.53h446.98c76.88,0 139.53,62.64 139.53,139.53v446.98c0,76.89 -62.65,139.52 -139.53,139.52h-10.16c0.45,3.09 0.69,6.26 0.69,9.47zM778.51,785.15h31.47c68.39,0 124.17,-55.75 124.17,-124.16v-446.98c0,-68.4 -55.77,-124.17 -124.17,-124.17h-446.98c-68.41,0 -124.16,55.78 -124.16,124.17v31.47c-7.3,-4.22 -15.78,-6.64 -24.83,-6.64h-74.5c-27.43,0 -49.66,22.24 -49.66,49.66v521.47c0,68.4 55.77,124.17 124.17,124.17h521.47c27.43,0 49.66,-22.24 49.66,-49.66v-74.5c0,-9.04 -2.42,-17.52 -6.64,-24.83zM214.02,809.98h521.47v74.5h-521.47c-40.97,0 -74.5,-33.53 -74.5,-74.5v-521.47h74.5zM884.48,214.02v446.98c0,40.97 -33.53,74.49 -74.5,74.49h-446.98c-40.97,0 -74.49,-33.52 -74.49,-74.49v-446.98c0,-40.97 33.52,-74.5 74.49,-74.5h446.98c40.97,0 74.5,33.53 74.5,74.5zM772.74,400.26h-148.99v-148.99h-74.49v148.99h-148.99v74.49h148.99v148.99h74.49v-148.99h148.99z" fill="currentColor"/>
		</g>
	</g>
</svg>