<svg version="1.1" xmlns="http://www.w3.org/2000/svg" xmlns:xlink="http://www.w3.org/1999/xlink" viewBox="0,0,1024,1024">
	<!-- Color names: teamapps-color-1 -->
	<desc>airline_seat_flat icon - Licensed under Apache License v2.0 (http://www.apache.org/licenses/LICENSE-2.0) - Created with Iconfu.com - Derivative work of Material icons (Copyright Google Inc.)</desc>
	<g fill="none" fill-rule="nonzero" style="mix-blend-mode: normal">
		<g color="#039be5" class="teamapps-color-1">
			<path d="M949.51,586.49v74.5c0,35.91 -29.11,65.02 -65.02,65.02h-158.46v9.47c0,35.91 -29.11,65.02 -65.02,65.02h-297.99c-35.91,0 -65.02,-29.11 -65.02,-65.02v-9.47h-158.46c-35.91,0 -65.02,-29.11 -65.02,-65.02v-74.5c0,-22.2 11.12,-41.78 28.06,-53.5c-43.61,-67.81 -36.27,-158.87 22.44,-219.09c59.77,-60.81 152.62,-69.44 221.74,-25.06c11.72,-16.96 31.31,-28.1 53.52,-28.1h335.23c118.22,0 214.02,95.78 214.02,214.01v74.5c0,6.45 -0.94,12.71 -2.71,18.62c1.77,5.91 2.71,12.17 2.71,18.62zM930.54,567.87c2.33,-5.75 3.61,-12.04 3.61,-18.62v-74.5c0,-109.75 -88.92,-198.65 -198.66,-198.65h-335.23c-22.63,0 -41.72,15.14 -47.71,35.84c-64.04,-51.62 -157.78,-47.1 -216.55,12.68c-57.82,59.32 -61.08,151.34 -10.33,214.17c-20.69,6 -35.81,25.09 -35.81,47.71v74.5c0,27.43 22.24,49.66 49.66,49.66h173.82v24.83c0,27.43 22.24,49.66 49.66,49.66h297.99c27.43,0 49.66,-22.24 49.66,-49.66v-24.83h173.82c27.43,0 49.66,-22.24 49.66,-49.66v-74.5c0,-6.58 -1.28,-12.87 -3.61,-18.62zM884.48,586.49v74.5h-223.49v74.49h-297.99v-74.49h-223.49v-74.5zM884.48,474.75v74.5h-484.23v-223.49h335.23c82.32,0 148.99,66.67 148.99,148.99zM173.04,517.21c-43.96,-43.2 -44.69,-113.6 -1.48,-157.93c43.2,-43.96 113.6,-44.7 157.93,-1.49c43.96,43.2 44.7,113.61 1.49,157.93c-43.2,43.96 -113.61,44.69 -157.93,1.48z" fill="currentColor"/>
		</g>
	</g>
</svg>