<svg version="1.1" xmlns="http://www.w3.org/2000/svg" xmlns:xlink="http://www.w3.org/1999/xlink" viewBox="0,0,1024,1024">
	<!-- Color names: teamapps-color-1 -->
	<desc>airport_shuttle icon - Licensed under Apache License v2.0 (http://www.apache.org/licenses/LICENSE-2.0) - Created with Iconfu.com - Derivative work of Material icons (Copyright Google Inc.)</desc>
	<g fill="none" fill-rule="nonzero" style="mix-blend-mode: normal">
		<g color="#039be5" class="teamapps-color-1">
			<path d="M986.75,474.75v186.25c0,35.91 -29.11,65.02 -65.02,65.02h-40.47c-25.87,65.27 -89.54,111.74 -164.38,111.74c-74.85,0 -138.51,-46.48 -164.38,-111.74h-99.59c-25.87,65.27 -89.54,111.74 -164.38,111.74c-74.85,0 -138.51,-46.48 -164.38,-111.74h-21.85c-35.91,0 -65.02,-29.11 -65.02,-65.02v-335.23c0,-77.47 62.85,-139.53 139.52,-139.53h521.47c17.25,0 33.78,6.85 45.98,19.05l223.49,223.49c12.19,12.19 19.05,28.73 19.05,45.98zM956.84,439.63l-223.49,-223.49c-9.31,-9.31 -21.95,-14.55 -35.12,-14.55h-521.47c-68.24,0 -124.16,55.23 -124.16,124.17v335.23c0,27.43 22.24,49.66 49.66,49.66h32.64c20.94,64.68 81.63,111.74 153.59,111.74c71.96,0 132.65,-47.07 153.59,-111.74h121.17c20.94,64.68 81.63,111.74 153.59,111.74c71.96,0 132.65,-47.07 153.59,-111.74h51.26c27.43,0 49.66,-22.24 49.66,-49.66v-186.25c0,-13.17 -5.23,-25.8 -14.55,-35.12zM921.73,474.75v186.25h-93.11c0,61.46 -49.91,111.74 -111.74,111.74c-61.83,0 -111.74,-50.28 -111.74,-111.74h-204.87c0,61.46 -49.91,111.74 -111.74,111.74c-61.83,0 -111.74,-50.28 -111.74,-111.74h-74.49v-335.23c0,-41.35 33.52,-74.5 74.49,-74.5h521.47zM809.98,474.75l-148.99,-148.99h-37.25v148.99zM325.76,474.75v-148.99h-148.99v148.99zM549.25,325.76h-148.99v148.99h148.99zM344.38,660.99c0,-30.91 -24.96,-55.87 -55.87,-55.87c-30.91,0 -55.87,24.96 -55.87,55.87c0,30.91 24.96,55.87 55.87,55.87c30.91,0 55.87,-24.96 55.87,-55.87zM772.74,660.99c0,-30.91 -24.96,-55.87 -55.87,-55.87c-30.91,0 -55.87,24.96 -55.87,55.87c0,30.91 24.96,55.87 55.87,55.87c30.91,0 55.87,-24.96 55.87,-55.87z" fill="currentColor"/>
		</g>
	</g>
</svg>