<svg version="1.1" xmlns="http://www.w3.org/2000/svg" xmlns:xlink="http://www.w3.org/1999/xlink" viewBox="0,0,1024,1024">
	<!-- Color names: teamapps-color-1 -->
	<desc>arrow_downward icon - Licensed under Apache License v2.0 (http://www.apache.org/licenses/LICENSE-2.0) - Created with Iconfu.com - Derivative work of Material icons (Copyright Google Inc.)</desc>
	<g fill="none" fill-rule="nonzero" style="mix-blend-mode: normal">
		<g color="#039be5" class="teamapps-color-1">
			<path d="M466.02,855.96l-297.98,-297.98c-25.39,-25.39 -25.39,-66.56 0,-91.95l52.89,-52.9c25.41,-25.41 66.61,-25.4 92,0.04l96.8,96.97v-296.12c0,-35.91 29.11,-65.02 65.02,-65.02h74.5c35.91,0 65.02,29.11 65.02,65.02v296.52l97.25,-97.08c25.4,-25.36 66.54,-25.34 91.92,0.04l52.52,52.52c25.39,25.39 25.39,66.56 0,91.96l-297.98,297.98c-25.39,25.39 -66.56,25.39 -91.96,0zM547.12,845.1l297.98,-297.98c19.39,-19.39 19.39,-50.84 0,-70.24l-52.52,-52.52c-19.38,-19.38 -50.8,-19.4 -70.2,-0.03l-123.46,123.24v-333.56c0,-27.43 -22.24,-49.66 -49.66,-49.66h-74.5c-27.43,0 -49.66,22.24 -49.66,49.66v333.25l-123.03,-123.25c-19.39,-19.43 -50.86,-19.44 -70.27,-0.03l-52.89,52.9c-19.39,19.4 -19.39,50.84 0,70.23l297.98,297.98c19.39,19.39 50.84,19.39 70.24,0zM512,809.98l-297.98,-297.98l52.89,-52.9l207.84,208.22v-453.31h74.5v453.31l208.21,-207.84l52.52,52.52z" fill="currentColor"/>
		</g>
	</g>
</svg>