<svg version="1.1" xmlns="http://www.w3.org/2000/svg" xmlns:xlink="http://www.w3.org/1999/xlink" viewBox="0,0,1024,1024">
	<!-- Color names: teamapps-color-1 -->
	<desc>arrow_forward icon - Licensed under Apache License v2.0 (http://www.apache.org/licenses/LICENSE-2.0) - Created with Iconfu.com - Derivative work of Material icons (Copyright Google Inc.)</desc>
	<g fill="none" fill-rule="nonzero" style="mix-blend-mode: normal">
		<g color="#039be5" class="teamapps-color-1">
			<path d="M855.96,557.98l-297.98,297.98c-25.39,25.39 -66.56,25.39 -91.96,0l-52.52,-52.52c-25.38,-25.38 -25.4,-66.52 -0.04,-91.92l97.08,-97.25h-296.52c-35.91,0 -65.02,-29.11 -65.02,-65.02v-74.5c0,-35.91 29.11,-65.02 65.02,-65.02h296.52l-97.08,-97.25c-25.36,-25.4 -25.34,-66.54 0.04,-91.92l52.52,-52.52c25.39,-25.39 66.56,-25.39 91.96,0l297.98,297.98c25.39,25.39 25.39,66.56 0,91.96zM845.1,476.88l-297.98,-297.98c-19.39,-19.4 -50.84,-19.4 -70.24,0l-52.52,52.52c-19.38,19.38 -19.4,50.8 -0.03,70.2l123.24,123.46h-333.56c-27.43,0 -49.66,22.24 -49.66,49.66v74.5c0,27.43 22.24,49.66 49.66,49.66h333.56l-123.24,123.46c-19.37,19.4 -19.35,50.82 0.03,70.2l52.52,52.52c19.39,19.39 50.84,19.39 70.24,0l297.98,-297.98c19.39,-19.39 19.39,-50.84 0,-70.24zM809.98,512l-297.98,297.98l-52.52,-52.52l207.84,-208.21h-453.31v-74.5h453.31l-207.84,-208.21l52.52,-52.52z" fill="currentColor"/>
		</g>
	</g>
</svg>