<svg version="1.1" xmlns="http://www.w3.org/2000/svg" xmlns:xlink="http://www.w3.org/1999/xlink" viewBox="0,0,1024,1024">
	<!-- Color names: teamapps-color-1 -->
	<desc>call_received icon - Licensed under Apache License v2.0 (http://www.apache.org/licenses/LICENSE-2.0) - Created with Iconfu.com - Derivative work of Material icons (Copyright Google Inc.)</desc>
	<g fill="none" fill-rule="nonzero" style="mix-blend-mode: normal">
		<g color="#039be5" class="teamapps-color-1">
			<path d="M535.26,633.21h88.48c35.91,0 65.02,29.11 65.02,65.02v74.5c0,35.91 -29.11,65.02 -65.02,65.02h-372.48c-35.91,0 -65.02,-29.11 -65.02,-65.02v-372.48c0,-35.91 29.11,-65.02 65.02,-65.02h74.5c35.91,0 65.02,29.11 65.02,65.02v88.48l320.7,-320.7c25.39,-25.39 66.56,-25.39 91.96,0l52.52,52.52c25.39,25.39 25.39,66.56 0,91.96zM845.1,301.66c19.39,-19.39 19.39,-50.84 0,-70.24l-52.52,-52.52c-19.39,-19.4 -50.84,-19.4 -70.24,0l-346.92,346.92v-125.56c0,-27.43 -22.24,-49.66 -49.66,-49.66h-74.5c-27.43,0 -49.66,22.24 -49.66,49.66v372.48c0,27.43 22.24,49.66 49.66,49.66h372.48c27.43,0 49.66,-22.24 49.66,-49.66v-74.5c0,-27.43 -22.24,-49.66 -49.66,-49.66h-125.56zM378.28,698.24h245.46v74.5h-372.48v-372.48h74.5v245.46l431.7,-431.7l52.52,52.52z" fill="currentColor"/>
		</g>
	</g>
</svg>