<svg version="1.1" xmlns="http://www.w3.org/2000/svg" xmlns:xlink="http://www.w3.org/1999/xlink" viewBox="0,0,1024,1024">
	<!-- Color names: teamapps-color-1 -->
	<desc>call_missed_outgoing icon - Licensed under Apache License v2.0 (http://www.apache.org/licenses/LICENSE-2.0) - Created with Iconfu.com - Derivative work of Material icons (Copyright Google Inc.)</desc>
	<g fill="none" fill-rule="nonzero" style="mix-blend-mode: normal">
		<g color="#039be5" class="teamapps-color-1">
			<path d="M275.27,279.78l236.73,236.73l51.24,-51.24h-13.99c-35.91,0 -65.02,-29.11 -65.02,-65.02v-74.49c0,-35.91 29.11,-65.02 65.02,-65.02h297.98c35.91,0 65.02,29.11 65.02,65.02v297.98c0,35.91 -29.11,65.02 -65.02,65.02h-74.49c-35.91,0 -65.02,-29.11 -65.02,-65.02v-13.99l-149.74,149.74c-25.39,25.39 -66.56,25.39 -91.96,0l-335.23,-335.23c-25.39,-25.39 -25.39,-66.56 0,-91.96l52.52,-52.52c25.39,-25.39 66.56,-25.39 91.96,0zM194.17,290.65l-52.52,52.52c-19.39,19.39 -19.39,50.84 0,70.24l335.23,335.23c19.39,19.39 50.84,19.39 70.24,0l175.96,-175.96v51.07c0,27.43 22.24,49.66 49.66,49.66h74.49c27.43,0 49.66,-22.24 49.66,-49.66v-297.98c0,-27.43 -22.24,-49.66 -49.66,-49.66h-297.98c-27.43,0 -49.66,22.24 -49.66,49.66v74.49c0,27.43 22.24,49.66 49.66,49.66h51.07l-88.32,88.32l-247.59,-247.59c-19.4,-19.39 -50.84,-19.39 -70.24,0zM229.29,325.76l282.71,282.71l208.22,-208.22h-170.97v-74.49h297.98v297.98h-74.49v-170.97l-260.74,260.74l-335.23,-335.23z" fill="currentColor"/>
		</g>
	</g>
</svg>