<svg version="1.1" xmlns="http://www.w3.org/2000/svg" xmlns:xlink="http://www.w3.org/1999/xlink" viewBox="0,0,1024,1024">
	<!-- Color names: teamapps-color-1 -->
	<desc>child_care icon - Licensed under Apache License v2.0 (http://www.apache.org/licenses/LICENSE-2.0) - Created with Iconfu.com - Derivative work of Material icons (Copyright Google Inc.)</desc>
	<g fill="none" fill-rule="nonzero" style="mix-blend-mode: normal">
		<g color="#039be5" class="teamapps-color-1">
			<path d="M861.57,706.52c-22.04,39.35 -50.69,74.77 -83.95,104.34c-70.65,63.07 -163.73,101.4 -265.63,101.4c-101.82,0 -194.96,-38.28 -265.33,-101.47c-33.11,-29.46 -61.81,-64.6 -83.94,-104.26c-63.27,-28.89 -110.24,-87.69 -122.25,-158.55c-2.22,-11.89 -3.24,-23.92 -3.24,-35.98c0,-12.04 1.02,-24.06 3.23,-35.94c12.01,-71.3 59.06,-129.8 122.25,-158.6c22.11,-39.7 50.94,-75.24 84.88,-105.17c70.35,-62.72 163.05,-100.55 264.39,-100.55c101.41,0 194.18,37.89 264.55,100.69c33.5,29.83 62.28,65.07 84.63,104.99c63.32,28.88 110.33,87.7 122.34,158.59c2.22,11.89 3.24,23.92 3.24,35.98c0,12.04 -1.02,24.06 -3.23,35.94c-12,71.26 -59.02,129.76 -121.94,158.57zM968.39,545.26c2.04,-10.93 3,-22.04 3,-33.26c0,-11.23 -0.96,-22.35 -3,-33.29c-11.38,-67.47 -57.01,-123.27 -118.16,-149.32c-21.81,-40.22 -50.38,-75.65 -83.9,-105.49c-67.65,-60.37 -156.8,-96.79 -254.32,-96.79c-97.46,0 -186.56,36.38 -254.2,96.68c-33.95,29.92 -62.56,65.66 -84.11,105.63c-61.04,25.98 -106.7,81.45 -118.09,149.33c-2.04,10.93 -3,22.04 -3,33.26c0,11.23 0.96,22.35 3,33.29c11.38,67.45 56.97,123.22 118.09,149.29c21.57,39.94 50.08,75.29 83.21,104.76c67.64,60.76 157.17,97.56 255.09,97.56c97.97,0 187.46,-36.84 255.41,-97.51c33.25,-29.56 61.71,-65.2 83.21,-104.82c60.77,-26 106.39,-81.47 117.77,-149.31zM558.56,456.13c0,-25.72 20.85,-46.56 46.57,-46.56c25.72,0 46.56,20.84 46.56,46.56c0,25.72 -20.84,46.56 -46.56,46.56c-25.72,0 -46.57,-20.84 -46.57,-46.56zM372.32,456.13c0,-25.72 20.84,-46.56 46.56,-46.56c25.72,0 46.57,20.84 46.57,46.56c0,25.72 -20.85,46.56 -46.57,46.56c-25.72,0 -46.56,-20.84 -46.56,-46.56zM815.2,654.66c-19.37,40.97 -47.31,77.85 -80.83,107.65c-59.22,52.9 -137.07,84.93 -222.37,84.93c-85.3,0 -163.15,-32.03 -222,-84.93c-33.52,-29.8 -61.46,-66.3 -80.83,-107.65c-54.01,-16.02 -95.35,-61.83 -104.66,-118.07c-1.49,-7.82 -2.23,-16.02 -2.23,-24.58c0,-8.56 0.74,-16.76 2.23,-24.58c9.31,-56.61 50.65,-102.05 104.66,-118.07c19.37,-41.35 47.31,-78.22 81.57,-108.39c58.85,-52.52 136.33,-84.18 221.25,-84.18c84.93,0 162.4,31.66 221.25,84.18c33.9,30.17 61.83,66.67 81.57,108.39c54.01,16.02 95.35,61.83 104.66,118.07c1.49,7.82 2.23,16.02 2.23,24.58c0,8.56 -0.74,16.76 -2.23,24.58c-9.31,56.61 -50.65,102.05 -104.29,118.07zM847.23,512c0,-40.97 -33.52,-74.49 -74.49,-74.49c-3.73,0 -7.08,0.74 -10.81,1.12c-7.45,-24.96 -18.25,-48.05 -32.03,-69.28c-46.56,-71.14 -126.65,-118.08 -217.9,-118.08c-91.25,0 -171.34,46.94 -217.9,118.08c-13.78,21.23 -24.58,44.32 -32.03,69.28c-3.73,-0.38 -7.08,-1.12 -10.81,-1.12c-40.97,0 -74.49,33.52 -74.49,74.49c0,40.97 33.52,74.49 74.49,74.49c3.73,0 7.08,-0.74 10.81,-1.12c7.45,24.96 18.25,48.05 32.03,69.28c46.56,71.14 126.65,118.08 217.9,118.08c91.25,0 171.34,-46.94 217.9,-118.08c13.78,-21.23 24.58,-44.32 32.03,-69.28c3.73,0.38 7.08,1.12 10.81,1.12c40.97,0 74.49,-33.52 74.49,-74.49zM679.62,586.49c-28.31,65.93 -92.75,111.74 -167.62,111.74c-74.87,0 -139.3,-45.82 -167.62,-111.74z" fill="currentColor"/>
		</g>
	</g>
</svg>