<svg version="1.1" xmlns="http://www.w3.org/2000/svg" xmlns:xlink="http://www.w3.org/1999/xlink" viewBox="0,0,1024,1024">
	<!-- Color names: teamapps-color-1 -->
	<desc>desktop_windows icon - Licensed under Apache License v2.0 (http://www.apache.org/licenses/LICENSE-2.0) - Created with Iconfu.com - Derivative work of Material icons (Copyright Google Inc.)</desc>
	<g fill="none" fill-rule="nonzero" style="mix-blend-mode: normal">
		<g color="#039be5" class="teamapps-color-1">
			<path d="M986.75,214.02v446.98c0,76.88 -62.64,139.52 -139.52,139.52h-121.9c0.45,3.09 0.69,6.26 0.69,9.47v74.5c0,35.91 -29.11,65.02 -65.02,65.02h-297.99c-35.91,0 -65.02,-29.11 -65.02,-65.02v-74.5c0,-3.21 0.23,-6.37 0.69,-9.47h-121.9c-76.88,0 -139.52,-62.64 -139.52,-139.52v-446.98c0,-76.87 62.63,-139.53 139.52,-139.53h670.46c76.89,0 139.52,62.65 139.52,139.53zM847.23,89.85h-670.46c-68.41,0 -124.16,55.78 -124.16,124.17v446.98c0,68.4 55.76,124.16 124.16,124.16h143.22c-4.22,7.3 -6.64,15.78 -6.64,24.83v74.5c0,27.43 22.24,49.66 49.66,49.66h297.99c27.43,0 49.66,-22.24 49.66,-49.66v-74.5c0,-9.04 -2.42,-17.52 -6.64,-24.83h143.22c68.4,0 124.16,-55.76 124.16,-124.16v-446.98c0,-68.39 -55.75,-124.17 -124.16,-124.17zM921.73,214.02v446.98c0,40.97 -33.52,74.49 -74.49,74.49h-260.74v74.49h74.5v74.5h-297.99v-74.5h74.5v-74.49h-260.74c-40.97,0 -74.49,-33.52 -74.49,-74.49v-446.98c0,-40.97 33.52,-74.5 74.49,-74.5h670.46c40.97,0 74.49,33.53 74.49,74.5zM847.23,214.02h-670.46v446.98h670.46z" fill="currentColor"/>
		</g>
	</g>
</svg>