<svg version="1.1" xmlns="http://www.w3.org/2000/svg" xmlns:xlink="http://www.w3.org/1999/xlink" viewBox="0,0,1024,1024">
	<!-- Color names: teamapps-color-1 -->
	<desc>done_all icon - Licensed under Apache License v2.0 (http://www.apache.org/licenses/LICENSE-2.0) - Created with Iconfu.com - Derivative work of Material icons (Copyright Google Inc.)</desc>
	<g fill="none" fill-rule="nonzero" style="mix-blend-mode: normal">
		<g color="#039be5" class="teamapps-color-1">
			<path d="M992.29,371.74l-446.98,446.98c-25.39,25.39 -66.57,25.39 -91.96,0l-59.95,-59.95c-1.92,2.6 -4.05,5.08 -6.4,7.43l-52.52,52.52c-25.39,25.39 -66.56,25.39 -91.96,0l-208.22,-208.22c-25.46,-25.46 -25.38,-66.75 0.16,-92.12l52.9,-52.52c25.44,-25.26 66.51,-25.16 91.84,0.2l59.65,59.76c1.89,-2.54 3.98,-4.98 6.28,-7.28l52.52,-52.52c25.37,-25.37 66.5,-25.4 91.9,-0.05l4.88,4.87c1.92,-2.6 4.05,-5.08 6.39,-7.42l236.16,-236.15c25.39,-25.39 66.56,-25.39 91.96,0l52.52,52.52c2.28,2.28 4.36,4.7 6.24,7.22l59.74,-59.74c25.33,-25.33 66.38,-25.4 91.8,-0.16l52.89,52.52c25.54,25.37 25.62,66.66 0.16,92.12zM981.3,290.52l-52.89,-52.52c-19.41,-19.28 -50.77,-19.23 -70.11,0.12l-74.83,74.82c-2.17,-8.17 -6.46,-15.9 -12.87,-22.3l-52.52,-52.52c-19.39,-19.39 -50.84,-19.4 -70.23,0l-236.16,236.15c-6.48,6.48 -10.79,14.29 -12.94,22.56l-20.04,-19.99c-19.4,-19.36 -50.82,-19.34 -70.19,0.04l-52.52,52.52c-6.44,6.44 -10.74,14.2 -12.9,22.41l-74.77,-74.9c-19.34,-19.38 -50.71,-19.45 -70.14,-0.16l-52.9,52.52c-19.51,19.37 -19.57,50.92 -0.13,70.36l208.22,208.22c19.39,19.39 50.84,19.39 70.24,0l52.52,-52.52c6.49,-6.49 10.8,-14.32 12.95,-22.6l75.11,75.12c19.39,19.4 50.84,19.4 70.24,0l446.98,-446.98c19.44,-19.44 19.39,-50.98 -0.12,-70.36zM946.31,325.76l-446.98,446.98l-208.21,-208.22l52.52,-52.52l155.69,155.32l394.09,-394.08zM499.33,561.91l-52.52,-52.52l236.16,-236.15l52.52,52.52zM133.19,512l207.84,208.22l-52.52,52.52l-208.22,-208.22z" fill="currentColor"/>
		</g>
	</g>
</svg>