<svg version="1.1" xmlns="http://www.w3.org/2000/svg" xmlns:xlink="http://www.w3.org/1999/xlink" viewBox="0,0,1024,1024">
	<!-- Color names: teamapps-color-1 -->
	<desc>format_textdirection_r_to_l icon - Licensed under Apache License v2.0 (http://www.apache.org/licenses/LICENSE-2.0) - Created with Iconfu.com - Derivative work of Material icons (Copyright Google Inc.)</desc>
	<g fill="none" fill-rule="nonzero" style="mix-blend-mode: normal">
		<g color="#039be5" class="teamapps-color-1">
			<path d="M223.49,288.51c0,-118.23 95.79,-214.02 214.02,-214.02h297.98c35.91,0 65.02,29.11 65.02,65.02v74.5c0,35.91 -29.11,65.02 -65.02,65.02h-9.47v344.7c0,3.21 -0.23,6.37 -0.69,9.47h84.65c35.91,0 65.02,29.11 65.02,65.02v74.5c0,35.91 -29.11,65.02 -65.02,65.02h-381.95v46.72c0,26.3 -15.84,50.01 -40.14,60.07c-24.3,10.06 -52.27,4.5 -70.86,-14.1l-148.99,-148.99c-25.39,-25.39 -25.39,-66.56 0,-91.96l148.99,-148.99c14.76,-14.76 35.41,-21.31 55.46,-18.35v-29.69c-86.42,-27.52 -148.99,-108.39 -148.99,-203.96zM387.84,480.91v62.57c-1.86,-1.08 -3.81,-2.04 -5.83,-2.88c-18.56,-7.69 -39.92,-3.44 -54.12,10.77l-148.99,148.99c-19.39,19.39 -19.39,50.84 0,70.23l148.99,148.99c14.2,14.2 35.57,18.45 54.12,10.77c18.56,-7.69 30.66,-25.8 30.66,-45.88v-62.08h397.31c27.43,0 49.66,-22.24 49.66,-49.66v-74.5c0,-27.43 -22.24,-49.66 -49.66,-49.66h-105.96c4.22,-7.3 6.64,-15.78 6.64,-24.83v-360.06h24.83c27.43,0 49.66,-22.24 49.66,-49.66v-74.5c0,-27.43 -22.24,-49.66 -49.66,-49.66h-297.98c-109.74,0 -198.66,88.92 -198.66,198.66c0,92.59 63.28,170.35 148.99,192.4zM288.51,288.51c0,-82.32 66.68,-148.99 148.99,-148.99h297.98v74.5h-74.49v409.73h-74.5v-409.73h-74.49v409.73h-74.49v-186.24c-82.32,0 -148.99,-66.68 -148.99,-148.99zM809.98,698.24v74.5h-446.98v111.74l-148.99,-148.99l148.99,-148.99v111.74z" fill="currentColor"/>
		</g>
	</g>
</svg>