<svg version="1.1" xmlns="http://www.w3.org/2000/svg" xmlns:xlink="http://www.w3.org/1999/xlink" viewBox="0,0,1024,1024">
	<!-- Color names: teamapps-color-1 -->
	<desc>format_align_center icon - Licensed under Apache License v2.0 (http://www.apache.org/licenses/LICENSE-2.0) - Created with Iconfu.com - Derivative work of Material icons (Copyright Google Inc.)</desc>
	<g fill="none" fill-rule="nonzero" style="mix-blend-mode: normal">
		<g color="#039be5" class="teamapps-color-1">
			<path d="M176.77,409.73h84.66c-0.45,-3.09 -0.69,-6.26 -0.69,-9.47v-74.49c0,-3.22 0.23,-6.38 0.69,-9.48h-84.66c-35.91,0 -65.02,-29.11 -65.02,-65.02v-74.49c0,-35.91 29.11,-65.02 65.02,-65.02h670.46c35.91,0 65.02,29.11 65.02,65.02v74.49c0,35.91 -29.11,65.02 -65.02,65.02h-84.66c0.45,3.1 0.69,6.26 0.69,9.48v74.49c0,3.21 -0.23,6.37 -0.69,9.47h84.66c35.91,0 65.02,29.11 65.02,65.02v74.5c0,35.91 -29.11,65.02 -65.02,65.02h-84.66c0.45,3.09 0.69,6.26 0.69,9.47v74.49c0,3.22 -0.23,6.38 -0.69,9.48h84.66c35.91,0 65.02,29.11 65.02,65.02v74.49c0,35.91 -29.11,65.02 -65.02,65.02h-670.46c-35.91,0 -65.02,-29.11 -65.02,-65.02v-74.49c0,-35.91 29.11,-65.02 65.02,-65.02h84.66c-0.45,-3.1 -0.69,-6.26 -0.69,-9.48v-74.49c0,-3.21 0.23,-6.37 0.69,-9.47h-84.66c-35.91,0 -65.02,-29.11 -65.02,-65.02v-74.5c0,-35.91 29.11,-65.02 65.02,-65.02zM127.1,474.75v74.5c0,27.43 22.24,49.66 49.66,49.66h105.97c-4.22,7.3 -6.64,15.78 -6.64,24.83v74.49c0,9.05 2.42,17.53 6.65,24.84h-105.98c-27.43,0 -49.66,22.24 -49.66,49.66v74.49c0,27.43 22.24,49.66 49.66,49.66h670.46c27.43,0 49.66,-22.24 49.66,-49.66v-74.49c0,-27.43 -22.24,-49.66 -49.66,-49.66h-105.98c4.23,-7.31 6.65,-15.79 6.65,-24.84v-74.49c0,-9.04 -2.42,-17.52 -6.64,-24.83h105.97c27.43,0 49.66,-22.24 49.66,-49.66v-74.5c0,-27.43 -22.24,-49.66 -49.66,-49.66h-105.97c4.22,-7.3 6.64,-15.78 6.64,-24.83v-74.49c0,-9.05 -2.42,-17.53 -6.65,-24.84h105.98c27.43,0 49.66,-22.24 49.66,-49.66v-74.49c0,-27.43 -22.24,-49.66 -49.66,-49.66h-670.46c-27.43,0 -49.66,22.24 -49.66,49.66v74.49c0,27.43 22.24,49.66 49.66,49.66h105.98c-4.23,7.31 -6.65,15.79 -6.65,24.84v74.49c0,9.04 2.42,17.52 6.64,24.83h-105.97c-27.43,0 -49.66,22.24 -49.66,49.66zM176.77,772.74h670.46v74.49h-670.46zM176.77,474.75h670.46v74.5h-670.46zM847.23,176.77v74.49h-670.46v-74.49zM698.24,325.76v74.49h-372.47v-74.49zM698.24,623.74v74.49h-372.47v-74.49z" fill="currentColor"/>
		</g>
	</g>
</svg>