<svg version="1.1" xmlns="http://www.w3.org/2000/svg" xmlns:xlink="http://www.w3.org/1999/xlink" viewBox="0,0,1024,1024">
	<!-- Color names: teamapps-color-1 -->
	<desc>format_shapes icon - Licensed under Apache License v2.0 (http://www.apache.org/licenses/LICENSE-2.0) - Created with Iconfu.com - Derivative work of Material icons (Copyright Google Inc.)</desc>
	<g fill="none" fill-rule="nonzero" style="mix-blend-mode: normal">
		<g color="#039be5" class="teamapps-color-1">
			<path d="M912.26,390.79v242.43h9.47c35.91,0 65.02,29.11 65.02,65.02v223.49c0,35.91 -29.11,65.02 -65.02,65.02h-223.49c-35.91,0 -65.02,-29.11 -65.02,-65.02v-9.47h-242.43v9.47c0,35.91 -29.11,65.02 -65.02,65.02h-223.49c-35.91,0 -65.02,-29.11 -65.02,-65.02v-223.49c0,-35.91 29.11,-65.02 65.02,-65.02h9.47v-242.43h-9.47c-35.91,0 -65.02,-29.11 -65.02,-65.02v-223.49c0,-35.91 29.11,-65.02 65.02,-65.02h223.49c35.91,0 65.02,29.11 65.02,65.02v9.47h242.43v-9.47c0,-35.91 29.11,-65.02 65.02,-65.02h223.49c35.91,0 65.02,29.11 65.02,65.02v223.49c0,35.91 -29.11,65.02 -65.02,65.02zM921.73,375.43c27.43,0 49.66,-22.24 49.66,-49.66v-223.49c0,-27.43 -22.24,-49.66 -49.66,-49.66h-223.49c-27.43,0 -49.66,22.24 -49.66,49.66v24.83h-273.15v-24.83c0,-27.43 -22.24,-49.66 -49.66,-49.66h-223.49c-27.43,0 -49.66,22.24 -49.66,49.66v223.49c0,27.43 22.24,49.66 49.66,49.66h24.83v273.15h-24.83c-27.43,0 -49.66,22.24 -49.66,49.66v223.49c0,27.43 22.24,49.66 49.66,49.66h223.49c27.43,0 49.66,-22.24 49.66,-49.66v-24.83h273.15v24.83c0,27.43 22.24,49.66 49.66,49.66h223.49c27.43,0 49.66,-22.24 49.66,-49.66v-223.49c0,-27.43 -22.24,-49.66 -49.66,-49.66h-24.83v-273.15zM847.23,325.76v372.47h74.49v223.49h-223.49v-74.49h-372.47v74.49h-223.49v-223.49h74.49v-372.47h-74.49v-223.49h223.49v74.49h372.47v-74.49h223.49v223.49zM698.24,698.24h74.5v-372.47h-74.5v-74.5h-372.47v74.5h-74.5v372.47h74.5v74.5h372.47zM576.44,586.49h-129.99l-27.19,74.5h-60.34l126.65,-335.23h52.14l127.01,335.23h-60.71zM463.21,539.56h97.22l-48.43,-142.66zM847.23,772.74h-74.49v74.49h74.49zM251.26,772.74h-74.49v74.49h74.49zM847.23,251.26v-74.49h-74.49v74.49zM176.77,251.26h74.49v-74.49h-74.49z" fill="currentColor"/>
		</g>
	</g>
</svg>