<svg version="1.1" xmlns="http://www.w3.org/2000/svg" xmlns:xlink="http://www.w3.org/1999/xlink" viewBox="0,0,1024,1024">
	<!-- Color names: teamapps-color-1 -->
	<desc>format_color_text icon - Licensed under Apache License v2.0 (http://www.apache.org/licenses/LICENSE-2.0) - Created with Iconfu.com - Derivative work of Material icons (Copyright Google Inc.)</desc>
	<g fill="none" fill-rule="nonzero" style="mix-blend-mode: normal">
		<g color="#039be5" class="teamapps-color-1">
			<path d="M609.79,153.03l204.49,521.47c7.85,20.01 5.3,42.61 -6.82,60.38c-2.51,3.68 -5.36,7.05 -8.49,10.08h160.01c35.91,0 65.02,29.11 65.02,65.02v148.99c0,35.91 -29.11,65.02 -65.02,65.02h-893.95c-35.91,0 -65.02,-29.11 -65.02,-65.02v-148.99c0,-35.91 29.11,-65.02 65.02,-65.02h159.64c-3.14,-3.04 -5.99,-6.42 -8.5,-10.1c-12.11,-17.77 -14.65,-40.38 -6.79,-60.4l204.86,-521.47c9.78,-24.88 33.79,-41.25 60.52,-41.25h74.5c26.75,0 50.77,16.38 60.54,41.29zM609.02,720.98l-25.93,-69.46h-142.54l-25.93,69.46c-3.46,9.27 -8.88,17.39 -15.69,23.98h225.78c-6.81,-6.59 -12.23,-14.71 -15.69,-23.98zM549.25,127.1h-74.5c-20.42,0 -38.76,12.5 -46.22,31.5l-204.86,521.47c-6.01,15.29 -4.06,32.56 5.19,46.13c9.25,13.57 24.61,21.69 41.04,21.69h83.81c20.73,0 39.28,-12.88 46.53,-32.3l29.66,-79.45h163.86l29.66,79.45c7.25,19.42 25.8,32.29 46.53,32.29h83.81c16.42,0 31.78,-8.12 41.03,-21.68c9.25,-13.57 11.2,-30.83 5.21,-46.11l-204.49,-521.47c-7.46,-19.02 -25.81,-31.53 -46.24,-31.53zM15.36,809.98v148.99c0,27.43 22.24,49.66 49.66,49.66h893.95c27.43,0 49.66,-22.24 49.66,-49.66v-148.99c0,-27.43 -22.24,-49.66 -49.66,-49.66h-893.95c-27.43,0 -49.66,22.24 -49.66,49.66zM65.02,809.98h893.95v148.99h-893.95zM549.25,176.77l204.49,521.47h-83.81l-41.72,-111.74h-232.8l-41.71,111.74h-83.81l204.86,-521.47zM600.65,512l-88.65,-235.78l-88.65,235.78z" fill="currentColor"/>
		</g>
	</g>
</svg>