<svg version="1.1" xmlns="http://www.w3.org/2000/svg" xmlns:xlink="http://www.w3.org/1999/xlink" viewBox="0,0,1024,1024">
	<!-- Color names: teamapps-color-1 -->
	<desc>fullscreen_exit icon - Licensed under Apache License v2.0 (http://www.apache.org/licenses/LICENSE-2.0) - Created with Iconfu.com - Derivative work of Material icons (Copyright Google Inc.)</desc>
	<g fill="none" fill-rule="nonzero" style="mix-blend-mode: normal">
		<g color="#039be5" class="teamapps-color-1">
			<path d="M586.49,521.47h186.25c35.91,0 65.02,29.11 65.02,65.02v74.5c0,35.91 -29.11,65.02 -65.02,65.02h-46.72v46.72c0,35.91 -29.11,65.02 -65.02,65.02h-74.5c-35.91,0 -65.02,-29.11 -65.02,-65.02v-186.25c0,-35.91 29.11,-65.02 65.02,-65.02zM251.26,521.47h186.25c35.91,0 65.02,29.11 65.02,65.02v186.25c0,35.91 -29.11,65.02 -65.02,65.02h-74.5c-35.91,0 -65.02,-29.11 -65.02,-65.02v-46.72h-46.72c-35.91,0 -65.02,-29.11 -65.02,-65.02v-74.5c0,-35.91 29.11,-65.02 65.02,-65.02zM837.76,363.01v74.5c0,35.91 -29.11,65.02 -65.02,65.02h-186.25c-35.91,0 -65.02,-29.11 -65.02,-65.02v-186.25c0,-35.91 29.11,-65.02 65.02,-65.02h74.5c35.91,0 65.02,29.11 65.02,65.02v46.72h46.72c35.91,0 65.02,29.11 65.02,65.02zM363.01,186.24h74.5c35.91,0 65.02,29.11 65.02,65.02v186.25c0,35.91 -29.11,65.02 -65.02,65.02h-186.25c-35.91,0 -65.02,-29.11 -65.02,-65.02v-74.5c0,-35.91 29.11,-65.02 65.02,-65.02h46.72v-46.72c0,-35.91 29.11,-65.02 65.02,-65.02zM536.83,586.49v186.25c0,27.43 22.24,49.66 49.66,49.66h74.5c27.43,0 49.66,-22.24 49.66,-49.66v-62.08h62.08c27.43,0 49.66,-22.24 49.66,-49.66v-74.5c0,-27.43 -22.24,-49.66 -49.66,-49.66h-186.25c-27.43,0 -49.66,22.24 -49.66,49.66zM201.6,586.49v74.5c0,27.43 22.24,49.66 49.66,49.66h62.08v62.08c0,27.43 22.24,49.66 49.66,49.66h74.5c27.43,0 49.66,-22.24 49.66,-49.66v-186.25c0,-27.43 -22.24,-49.66 -49.66,-49.66h-186.25c-27.43,0 -49.66,22.24 -49.66,49.66zM772.74,313.34h-62.08v-62.08c0,-27.43 -22.24,-49.66 -49.66,-49.66h-74.5c-27.43,0 -49.66,22.24 -49.66,49.66v186.25c0,27.43 22.24,49.66 49.66,49.66h186.25c27.43,0 49.66,-22.24 49.66,-49.66v-74.5c0,-27.43 -22.24,-49.66 -49.66,-49.66zM313.34,251.26v62.08h-62.08c-27.43,0 -49.66,22.24 -49.66,49.66v74.5c0,27.43 22.24,49.66 49.66,49.66h186.25c27.43,0 49.66,-22.24 49.66,-49.66v-186.25c0,-27.43 -22.24,-49.66 -49.66,-49.66h-74.5c-27.43,0 -49.66,22.24 -49.66,49.66zM586.49,586.49h186.25v74.5h-111.74v111.74h-74.5zM251.26,586.49h186.25v186.25h-74.5v-111.74h-111.74zM772.74,363.01v74.5h-186.25v-186.25h74.5v111.74zM363.01,251.26h74.5v186.25h-186.25v-74.5h111.74z" fill="currentColor"/>
		</g>
	</g>
</svg>