<svg version="1.1" xmlns="http://www.w3.org/2000/svg" xmlns:xlink="http://www.w3.org/1999/xlink" viewBox="0,0,1024,1024">
	<!-- Color names: teamapps-color-1 -->
	<desc>grain icon - Licensed under Apache License v2.0 (http://www.apache.org/licenses/LICENSE-2.0) - Created with Iconfu.com - Derivative work of Material icons (Copyright Google Inc.)</desc>
	<g fill="none" fill-rule="nonzero" style="mix-blend-mode: normal">
		<g color="#039be5" class="teamapps-color-1">
			<path d="M437.51,726.02c-3.3,0 -6.57,-0.12 -9.82,-0.34c0.23,3.24 0.34,6.52 0.34,9.81c0,76.88 -62.64,139.52 -139.52,139.52c-76.88,0 -139.52,-62.64 -139.52,-139.52c0,-76.88 62.64,-139.52 139.52,-139.52c3.3,0 6.57,0.12 9.81,0.34c-0.23,-3.25 -0.34,-6.52 -0.34,-9.82c0,-3.3 0.12,-6.57 0.34,-9.81c-3.24,0.23 -6.52,0.34 -9.81,0.34c-76.88,0 -139.52,-62.64 -139.52,-139.52c0,-76.87 62.63,-139.53 139.52,-139.53c3.3,0 6.57,0.12 9.81,0.34c-0.23,-3.24 -0.34,-6.52 -0.34,-9.81c0,-76.89 62.65,-139.52 139.53,-139.52c76.88,0 139.52,62.64 139.52,139.52c0,3.3 -0.12,6.57 -0.34,9.81c3.24,-0.23 6.52,-0.34 9.81,-0.34c3.3,0 6.57,0.12 9.82,0.34c-0.23,-3.24 -0.34,-6.52 -0.34,-9.81c0,-76.88 62.64,-139.52 139.52,-139.52c76.88,0 139.52,62.64 139.52,139.52c0,76.88 -62.64,139.52 -139.52,139.52c-3.3,0 -6.57,-0.12 -9.81,-0.34c0.23,3.25 0.34,6.52 0.34,9.82c0,3.3 -0.12,6.57 -0.34,9.81c3.24,-0.23 6.52,-0.34 9.81,-0.34c76.88,0 139.52,62.64 139.52,139.52c0,76.87 -62.63,139.53 -139.52,139.53c-3.3,0 -6.57,-0.12 -9.81,-0.34c0.23,3.24 0.34,6.52 0.34,9.81c0,76.89 -62.65,139.52 -139.53,139.52c-76.88,0 -139.52,-62.64 -139.52,-139.52c0,-3.3 0.12,-6.57 0.34,-9.81c-3.24,0.23 -6.52,0.34 -9.81,0.34zM465.53,707.46c-2.09,9.01 -3.2,18.39 -3.2,28.03c0,68.4 55.76,124.16 124.16,124.16c68.39,0 124.17,-55.75 124.17,-124.16c0,-9.63 -1.11,-19.02 -3.2,-28.03c9.01,2.09 18.39,3.2 28.03,3.2c68.41,0 124.16,-55.78 124.16,-124.17c0,-68.4 -55.76,-124.16 -124.16,-124.16c-9.63,0 -19.02,1.11 -28.03,3.2c2.09,-9.01 3.2,-18.39 3.2,-28.03c0,-9.64 -1.11,-19.02 -3.2,-28.04c9.01,2.09 18.4,3.2 28.03,3.2c68.4,0 124.16,-55.76 124.16,-124.16c0,-68.4 -55.76,-124.16 -124.16,-124.16c-68.4,0 -124.16,55.76 -124.16,124.16c0,9.63 1.11,19.02 3.2,28.03c-9.01,-2.09 -18.4,-3.2 -28.04,-3.2c-9.63,0 -19.02,1.11 -28.03,3.2c2.09,-9.01 3.2,-18.39 3.2,-28.03c0,-68.4 -55.76,-124.16 -124.16,-124.16c-68.39,0 -124.17,55.75 -124.17,124.16c0,9.63 1.11,19.02 3.2,28.03c-9.01,-2.09 -18.39,-3.2 -28.03,-3.2c-68.41,0 -124.16,55.78 -124.16,124.17c0,68.4 55.76,124.16 124.16,124.16c9.63,0 19.02,-1.11 28.03,-3.2c-2.09,9.01 -3.2,18.39 -3.2,28.03c0,9.64 1.11,19.02 3.2,28.04c-9.01,-2.09 -18.4,-3.2 -28.03,-3.2c-68.4,0 -124.16,55.76 -124.16,124.16c0,68.4 55.76,124.16 124.16,124.16c68.4,0 124.16,-55.76 124.16,-124.16c0,-9.63 -1.11,-19.02 -3.2,-28.03c9.01,2.09 18.4,3.2 28.04,3.2c9.63,0 19.02,-1.11 28.03,-3.2zM363.01,437.51c0,40.97 -33.52,74.49 -74.49,74.49c-40.97,0 -74.49,-33.52 -74.49,-74.49c0,-40.97 33.52,-74.5 74.49,-74.5c40.97,0 74.49,33.53 74.49,74.5zM512,288.51c0,40.97 -33.52,74.49 -74.49,74.49c-40.97,0 -74.5,-33.52 -74.5,-74.49c0,-40.97 33.53,-74.49 74.5,-74.49c40.97,0 74.49,33.52 74.49,74.49zM512,586.49c0,40.97 -33.52,74.5 -74.49,74.5c-40.97,0 -74.5,-33.53 -74.5,-74.5c0,-40.97 33.53,-74.49 74.5,-74.49c40.97,0 74.49,33.52 74.49,74.49zM660.99,437.51c0,40.97 -33.53,74.49 -74.5,74.49c-40.97,0 -74.49,-33.52 -74.49,-74.49c0,-40.97 33.52,-74.5 74.49,-74.5c40.97,0 74.5,33.53 74.5,74.5zM363.01,735.49c0,40.97 -33.52,74.49 -74.49,74.49c-40.97,0 -74.49,-33.52 -74.49,-74.49c0,-40.97 33.52,-74.49 74.49,-74.49c40.97,0 74.49,33.52 74.49,74.49zM660.99,288.51c0,-40.97 33.52,-74.49 74.49,-74.49c40.97,0 74.49,33.52 74.49,74.49c0,40.97 -33.52,74.49 -74.49,74.49c-40.97,0 -74.49,-33.52 -74.49,-74.49zM660.99,735.49c0,40.97 -33.53,74.49 -74.5,74.49c-40.97,0 -74.49,-33.52 -74.49,-74.49c0,-40.97 33.52,-74.49 74.49,-74.49c40.97,0 74.5,33.52 74.5,74.49zM809.98,586.49c0,40.97 -33.52,74.5 -74.49,74.5c-40.97,0 -74.49,-33.53 -74.49,-74.5c0,-40.97 33.52,-74.49 74.49,-74.49c40.97,0 74.49,33.52 74.49,74.49z" fill="currentColor"/>
		</g>
	</g>
</svg>