<svg version="1.1" xmlns="http://www.w3.org/2000/svg" xmlns:xlink="http://www.w3.org/1999/xlink" viewBox="0,0,1024,1024">
	<!-- Color names: teamapps-color-1 -->
	<desc>group_work icon - Licensed under Apache License v2.0 (http://www.apache.org/licenses/LICENSE-2.0) - Created with Iconfu.com - Derivative work of Material icons (Copyright Google Inc.)</desc>
	<g fill="none" fill-rule="nonzero" style="mix-blend-mode: normal">
		<g color="#039be5" class="teamapps-color-1">
			<path d="M949.51,512c0,241.52 -195.99,437.51 -437.51,437.51c-241.52,0 -437.51,-195.99 -437.51,-437.51c0,-241.52 195.99,-437.51 437.51,-437.51c241.52,0 437.51,195.99 437.51,437.51zM512,89.85c-233.04,0 -422.15,189.11 -422.15,422.15c0,233.04 189.11,422.15 422.15,422.15c233.04,0 422.15,-189.11 422.15,-422.15c0,-233.04 -189.11,-422.15 -422.15,-422.15zM884.48,512c0,205.61 -166.87,372.48 -372.48,372.48c-205.61,0 -372.48,-166.87 -372.48,-372.48c0,-205.61 166.87,-372.48 372.48,-372.48c205.61,0 372.48,166.87 372.48,372.48zM456.13,623.74c0,-51.4 -41.72,-93.12 -93.12,-93.12c-51.4,0 -93.11,41.72 -93.11,93.12c0,51.4 41.71,93.12 93.11,93.12c51.4,0 93.12,-41.72 93.12,-93.12zM512,456.13c51.4,0 93.12,-41.72 93.12,-93.12c0,-51.4 -41.72,-93.11 -93.12,-93.11c-51.4,0 -93.12,41.71 -93.12,93.11c0,51.4 41.72,93.12 93.12,93.12zM754.11,623.74c0,-51.4 -41.71,-93.12 -93.11,-93.12c-51.4,0 -93.12,41.72 -93.12,93.12c0,51.4 41.72,93.12 93.12,93.12c51.4,0 93.11,-41.72 93.11,-93.12z" fill="currentColor"/>
		</g>
	</g>
</svg>