<svg version="1.1" xmlns="http://www.w3.org/2000/svg" xmlns:xlink="http://www.w3.org/1999/xlink" viewBox="0,0,1024,1024">
	<!-- Color names: teamapps-color-1 -->
	<desc>help_outline icon - Licensed under Apache License v2.0 (http://www.apache.org/licenses/LICENSE-2.0) - Created with Iconfu.com - Derivative work of Material icons (Copyright Google Inc.)</desc>
	<g fill="none" fill-rule="nonzero" style="mix-blend-mode: normal">
		<g color="#039be5" class="teamapps-color-1">
			<path d="M949.51,512c0,241.52 -195.99,437.51 -437.51,437.51c-241.52,0 -437.51,-195.99 -437.51,-437.51c0,-241.52 195.99,-437.51 437.51,-437.51c241.52,0 437.51,195.99 437.51,437.51zM512,89.85c-233.04,0 -422.15,189.11 -422.15,422.15c0,233.04 189.11,422.15 422.15,422.15c233.04,0 422.15,-189.11 422.15,-422.15c0,-233.04 -189.11,-422.15 -422.15,-422.15zM884.48,512c0,205.61 -166.87,372.48 -372.48,372.48c-205.61,0 -372.48,-166.87 -372.48,-372.48c0,-205.61 166.87,-372.48 372.48,-372.48c205.61,0 372.48,166.87 372.48,372.48zM809.98,512c0,-164.26 -133.72,-297.98 -297.98,-297.98c-164.26,0 -297.98,133.72 -297.98,297.98c0,164.26 133.72,297.98 297.98,297.98c164.26,0 297.98,-133.72 297.98,-297.98zM660.99,437.51c0,93.12 -111.74,102.43 -111.74,186.24h-74.5c0,-121.06 111.74,-111.74 111.74,-186.24c0,-40.97 -33.52,-74.5 -74.49,-74.5c-40.97,0 -74.49,33.53 -74.49,74.5h-74.5c0,-82.32 66.68,-148.99 148.99,-148.99c82.32,0 148.99,66.68 148.99,148.99zM474.75,660.99h74.5v74.49h-74.5z" fill="currentColor"/>
		</g>
	</g>
</svg>