<svg version="1.1" xmlns="http://www.w3.org/2000/svg" xmlns:xlink="http://www.w3.org/1999/xlink" viewBox="0,0,1024,1024">
	<!-- Color names: teamapps-color-1 -->
	<desc>history icon - Licensed under Apache License v2.0 (http://www.apache.org/licenses/LICENSE-2.0) - Created with Iconfu.com - Derivative work of Material icons (Copyright Google Inc.)</desc>
	<g fill="none" fill-rule="nonzero" style="mix-blend-mode: normal">
		<g color="#039be5" class="teamapps-color-1">
			<path d="M949.51,512c0,221.03 -179.22,400.26 -400.26,400.26c-110.8,0 -210.55,-45.05 -282.88,-117.38c-18.33,-18.33 -23.42,-44.86 -15.31,-67.75c-3.9,0.08 -7.83,-0.2 -11.75,-0.83c-18.83,-3.07 -35.27,-14.23 -45.1,-30.38l-137.93,-137.93c-18.6,-18.6 -24.16,-46.56 -14.1,-70.86c10.06,-24.3 33.77,-40.14 60.07,-40.14h51.98c31.08,-190.13 196.1,-335.23 394.99,-335.23c221.03,0 400.26,179.22 400.26,400.26zM411.4,650.21c35.26,35.54 84.04,57.51 137.85,57.51c27.14,0 52.94,-5.49 76.38,-15.42l-146.82,-87.13c-17.56,-10.42 -29.08,-28.39 -31.4,-48.4l-74.78,74.63c14.17,1.61 27.93,7.88 38.77,18.81zM632.9,363.01v121.31l98.56,58.57c3.55,2.11 6.83,4.51 9.83,7.15c2.41,-12.29 3.68,-25.01 3.68,-38.03c0,-81.5 -49.6,-151.24 -120.31,-180.71c5.25,9.38 8.25,20.2 8.25,31.72zM446.98,363.01c0,-6.91 1.08,-13.58 3.08,-19.83c-39.5,23.23 -70.1,59.92 -85.5,103.8h35.7c17.95,0 34.7,7.38 46.72,19.8zM549.25,127.1c-195.72,0 -357.34,146.13 -381.72,335.23h-65.26c-20.09,0 -38.2,12.1 -45.88,30.66c-7.69,18.56 -3.44,39.92 10.77,54.12l139.32,139.32c7.38,13.14 20.36,22.25 35.31,24.69c15.75,2.57 31.77,-2.59 43.06,-13.86l150.48,-150.11c14.23,-14.19 18.5,-35.57 10.82,-54.14c-7.68,-18.57 -25.8,-30.69 -45.9,-30.69h-56.23c22.28,-92.68 105.61,-161.41 205.22,-161.41c116.72,0 211.07,94.35 211.07,211.07c0,26.52 -4.87,51.89 -13.77,75.26c-3.01,-12.61 -10.92,-24.03 -22.94,-31.17l-106.07,-63.03v-130.05c0,-27.43 -22.24,-49.66 -49.66,-49.66h-55.87c-27.43,0 -49.66,22.24 -49.66,49.66v186.25c0,17.53 9.24,33.76 24.32,42.71l159.42,94.61c4.3,2.55 8.83,4.38 13.45,5.52c-32.08,19.66 -69.83,30.99 -110.27,30.99c-58.08,0 -110.74,-23.73 -148.75,-62.05c-19.37,-19.53 -50.93,-19.59 -70.38,-0.14l-52.89,52.9c-19.39,19.4 -19.39,50.84 0,70.23c69.59,69.59 165.48,112.88 272.02,112.88c212.55,0 384.9,-172.35 384.9,-384.9c0,-212.55 -172.35,-384.9 -384.9,-384.9zM884.48,512c0,185.12 -150.11,335.23 -335.23,335.23c-92.75,0 -176.18,-37.62 -236.9,-98.33l52.89,-52.9c46.93,47.31 112.12,76.74 184.01,76.74c144.15,0 260.73,-116.59 260.73,-260.74c0,-144.15 -116.58,-260.74 -260.73,-260.74c-144.15,0 -260.74,116.59 -260.74,260.74h111.74l-150.48,150.11l-2.61,-5.22l-144.89,-144.89h111.74c0,-185.12 150.11,-335.23 335.23,-335.23c185.12,0 335.23,150.11 335.23,335.23zM567.87,363.01v158.31l130.37,77.47l-26.82,45.07l-159.42,-94.61v-186.25z" fill="currentColor"/>
		</g>
	</g>
</svg>