<svg version="1.1" xmlns="http://www.w3.org/2000/svg" xmlns:xlink="http://www.w3.org/1999/xlink" viewBox="0,0,1024,1024">
	<!-- Color names: teamapps-color-1 -->
	<desc>lock icon - Licensed under Apache License v2.0 (http://www.apache.org/licenses/LICENSE-2.0) - Created with Iconfu.com - Derivative work of Material icons (Copyright Google Inc.)</desc>
	<g fill="none" fill-rule="nonzero" style="mix-blend-mode: normal">
		<g color="#039be5" class="teamapps-color-1">
			<path d="M875.01,437.51v372.47c0,76.87 -62.63,139.53 -139.52,139.53h-446.98c-76.89,0 -139.52,-62.65 -139.52,-139.53v-372.47c0,-67.39 48.1,-123.81 111.74,-136.74v-12.25c0,-138.72 112.54,-251.26 251.26,-251.26c138.72,0 251.26,112.54 251.26,251.26v12.25c63.64,12.93 111.74,69.36 111.74,136.74zM747.9,313.96v-25.45c0,-130.23 -105.67,-235.9 -235.9,-235.9c-130.23,0 -235.9,105.67 -235.9,235.9v25.45c-62.61,6.26 -111.74,59.35 -111.74,123.55v372.47c0,68.39 55.75,124.17 124.16,124.17h446.98c68.41,0 124.16,-55.78 124.16,-124.17v-372.47c0,-64.2 -49.13,-117.29 -111.74,-123.55zM809.98,437.51v372.47c0,40.97 -33.52,74.5 -74.49,74.5h-446.98c-40.97,0 -74.49,-33.53 -74.49,-74.5v-372.47c0,-40.97 33.52,-74.5 74.49,-74.5h37.25v-74.49c0,-102.8 83.43,-186.24 186.24,-186.24c102.8,0 186.24,83.43 186.24,186.24v74.49h37.25c40.97,0 74.49,33.53 74.49,74.5zM627.47,288.51c0,-63.69 -51.78,-115.47 -115.47,-115.47c-63.69,0 -115.47,51.78 -115.47,115.47v74.49h230.94zM586.49,623.74c0,-40.97 -33.52,-74.49 -74.49,-74.49c-40.97,0 -74.49,33.52 -74.49,74.49c0,40.97 33.52,74.49 74.49,74.49c40.97,0 74.49,-33.52 74.49,-74.49z" fill="currentColor"/>
		</g>
	</g>
</svg>