<svg version="1.1" xmlns="http://www.w3.org/2000/svg" xmlns:xlink="http://www.w3.org/1999/xlink" viewBox="0,0,1024,1024">
	<!-- Color names: teamapps-color-1 -->
	<desc>menu icon - Licensed under Apache License v2.0 (http://www.apache.org/licenses/LICENSE-2.0) - Created with Iconfu.com - Derivative work of Material icons (Copyright Google Inc.)</desc>
	<g fill="none" fill-rule="nonzero" style="mix-blend-mode: normal">
		<g color="#039be5" class="teamapps-color-1">
			<path d="M912.26,474.75v74.5c0,23.76 -12.73,44.53 -31.75,55.87c19.01,11.35 31.75,32.12 31.75,55.87v74.49c0,35.91 -29.11,65.02 -65.02,65.02h-670.46c-35.91,0 -65.02,-29.11 -65.02,-65.02v-74.49c0,-23.76 12.73,-44.53 31.75,-55.87c-19.01,-11.35 -31.75,-32.12 -31.75,-55.87v-74.5c0,-23.76 12.73,-44.53 31.75,-55.87c-19.01,-11.35 -31.75,-32.12 -31.75,-55.87v-74.49c0,-35.91 29.11,-65.02 65.02,-65.02h670.46c35.91,0 65.02,29.11 65.02,65.02v74.49c0,23.76 -12.73,44.53 -31.75,55.87c19.01,11.35 31.75,32.12 31.75,55.87zM127.1,474.75v74.5c0,27.43 22.24,49.66 49.66,49.66h670.46c27.43,0 49.66,-22.24 49.66,-49.66v-74.5c0,-27.43 -22.24,-49.66 -49.66,-49.66h-670.46c-27.43,0 -49.66,22.24 -49.66,49.66zM847.23,238.85h-670.46c-27.43,0 -49.66,22.24 -49.66,49.66v74.49c0,27.43 22.24,49.66 49.66,49.66h670.46c27.43,0 49.66,-22.24 49.66,-49.66v-74.49c0,-27.43 -22.24,-49.66 -49.66,-49.66zM127.1,660.99v74.49c0,27.43 22.24,49.66 49.66,49.66h670.46c27.43,0 49.66,-22.24 49.66,-49.66v-74.49c0,-27.43 -22.24,-49.66 -49.66,-49.66h-670.46c-27.43,0 -49.66,22.24 -49.66,49.66zM176.77,660.99h670.46v74.49h-670.46zM176.77,474.75h670.46v74.5h-670.46zM847.23,288.51v74.49h-670.46v-74.49z" fill="currentColor"/>
		</g>
	</g>
</svg>