<svg version="1.1" xmlns="http://www.w3.org/2000/svg" xmlns:xlink="http://www.w3.org/1999/xlink" viewBox="0,0,1024,1024">
	<!-- Color names: teamapps-color-1 -->
	<desc>more_horiz icon - Licensed under Apache License v2.0 (http://www.apache.org/licenses/LICENSE-2.0) - Created with Iconfu.com - Derivative work of Material icons (Copyright Google Inc.)</desc>
	<g fill="none" fill-rule="nonzero" style="mix-blend-mode: normal">
		<g color="#039be5" class="teamapps-color-1">
			<path d="M512,651.52c-45.68,0 -86.3,-22.12 -111.74,-56.11c-25.45,33.99 -66.06,56.11 -111.74,56.11c-76.88,0 -139.52,-62.64 -139.52,-139.52c0,-76.88 62.64,-139.52 139.52,-139.52c45.68,0 86.3,22.12 111.74,56.11c25.45,-33.99 66.06,-56.11 111.74,-56.11c45.68,0 86.3,22.12 111.74,56.11c25.45,-33.99 66.06,-56.11 111.74,-56.11c76.88,0 139.52,62.64 139.52,139.52c0,76.88 -62.64,139.52 -139.52,139.52c-45.68,0 -86.3,-22.12 -111.74,-56.11c-25.45,33.99 -66.06,56.11 -111.74,56.11zM623.74,566.04c20.15,41.44 62.7,70.11 111.74,70.11c68.4,0 124.16,-55.76 124.16,-124.16c0,-68.4 -55.76,-124.16 -124.16,-124.16c-49.05,0 -91.59,28.67 -111.74,70.11c-20.15,-41.44 -62.7,-70.11 -111.74,-70.11c-49.05,0 -91.59,28.67 -111.74,70.11c-20.15,-41.44 -62.7,-70.11 -111.74,-70.11c-68.4,0 -124.16,55.76 -124.16,124.16c0,68.4 55.76,124.16 124.16,124.16c49.05,0 91.59,-28.67 111.74,-70.11c20.15,41.44 62.7,70.11 111.74,70.11c49.05,0 91.59,-28.67 111.74,-70.11zM363.01,512c0,40.97 -33.52,74.49 -74.49,74.49c-40.97,0 -74.49,-33.52 -74.49,-74.49c0,-40.97 33.52,-74.49 74.49,-74.49c40.97,0 74.49,33.52 74.49,74.49zM809.98,512c0,40.97 -33.52,74.49 -74.49,74.49c-40.97,0 -74.49,-33.52 -74.49,-74.49c0,-40.97 33.52,-74.49 74.49,-74.49c40.97,0 74.49,33.52 74.49,74.49zM586.49,512c0,40.97 -33.52,74.49 -74.49,74.49c-40.97,0 -74.49,-33.52 -74.49,-74.49c0,-40.97 33.52,-74.49 74.49,-74.49c40.97,0 74.49,33.52 74.49,74.49z" fill="currentColor"/>
		</g>
	</g>
</svg>