<svg version="1.1" xmlns="http://www.w3.org/2000/svg" xmlns:xlink="http://www.w3.org/1999/xlink" viewBox="0,0,1024,1024">
	<!-- Color names: teamapps-color-1 -->
	<desc>movie_filter icon - Licensed under Apache License v2.0 (http://www.apache.org/licenses/LICENSE-2.0) - Created with Iconfu.com - Derivative work of Material icons (Copyright Google Inc.)</desc>
	<g fill="none" fill-rule="nonzero" style="mix-blend-mode: normal">
		<g color="#039be5" class="teamapps-color-1">
			<path d="M949.51,214.02v521.47c0,76.89 -62.65,139.52 -139.53,139.52h-595.96c-76.87,0 -139.53,-62.63 -139.53,-139.52l0.38,-447.01c0.01,-76.44 61.84,-139.48 139.15,-139.48h37.24c21.74,0 42.04,10.86 54.1,28.95l1.82,2.73c11.69,-19.58 32.87,-31.68 55.82,-31.68h74.5c21.74,0 42.04,10.87 54.1,28.96l1.82,2.72c11.69,-19.58 32.87,-31.68 55.82,-31.68h74.49c21.74,0 42.04,10.87 54.1,28.96l1.82,2.72c11.69,-19.58 32.87,-31.68 55.82,-31.68h148.99c35.91,0 65.02,29.11 65.02,65.02zM884.48,164.35h-148.99c-18.32,0 -35.14,10.08 -43.79,26.23c-4.55,8.5 -6.44,17.97 -5.73,27.24l-20.9,-31.36c-9.21,-13.82 -24.72,-22.12 -41.32,-22.12h-74.49c-18.32,0 -35.14,10.08 -43.79,26.23c-4.55,8.5 -6.44,17.97 -5.73,27.24l-20.9,-31.36c-9.21,-13.82 -24.72,-22.12 -41.32,-22.12h-74.5c-18.32,0 -35.15,10.08 -43.79,26.23c-4.55,8.5 -6.44,17.96 -5.73,27.24l-20.9,-31.35c-9.21,-13.82 -24.72,-22.11 -41.32,-22.11h-37.24c-68.71,0 -123.78,56.06 -123.79,124.13l-0.38,447c0,68.41 55.78,124.16 124.17,124.16h595.96c68.39,0 124.17,-55.75 124.17,-124.16v-521.47c0,-27.43 -22.24,-49.66 -49.66,-49.66zM884.48,214.02v521.47c0,40.97 -33.53,74.49 -74.5,74.49h-595.96c-40.97,0 -74.5,-33.52 -74.5,-74.49l0.38,-446.98c0,-40.97 33.16,-74.49 74.13,-74.49h37.24l74.5,111.74h111.74l-74.5,-111.74h74.5l74.49,111.74h111.74l-74.49,-111.74h74.49l74.49,111.74h111.74l-74.49,-111.74zM586.49,586.49l-102.43,-46.56l-46.56,-102.43l-46.57,102.43l-102.43,46.56l102.43,46.57l46.57,102.43l46.56,-102.43zM772.74,474.75l-76.74,-35.01l-35.01,-76.74l-35.02,76.74l-76.73,35.01l76.73,35.02l35.02,76.73l35.01,-76.73z" fill="currentColor"/>
		</g>
	</g>
</svg>