<svg version="1.1" xmlns="http://www.w3.org/2000/svg" xmlns:xlink="http://www.w3.org/1999/xlink" viewBox="0,0,1024,1024">
	<!-- Color names: teamapps-color-1 -->
	<desc>pan_tool icon - Licensed under Apache License v2.0 (http://www.apache.org/licenses/LICENSE-2.0) - Created with Iconfu.com - Derivative work of Material icons (Copyright Google Inc.)</desc>
	<g fill="none" fill-rule="nonzero" style="mix-blend-mode: normal">
		<g color="#039be5" class="teamapps-color-1">
			<path d="M986.75,269.89v540.09c0,117.86 -96.14,214.02 -214.01,214.02h-271.91c-57.66,0 -112.31,-23.01 -152.44,-63.68l-292.46,-297.31c-25.25,-25.67 -24.83,-66.97 0.92,-92.12l23.88,-23.23l27.21,-25.8c0.08,-0.08 0.17,-0.15 0.25,-0.23c20.28,-17.52 45.51,-26.61 71.93,-26.61c20.55,0 38.77,5.72 53.95,14.16l63.91,36.35v-331.51c0,-66.82 54.07,-120.9 120.9,-120.9c10.51,0 20.72,1.34 30.46,3.87c11.09,-55.36 59.9,-96.99 118.54,-96.99c39.84,0 75.15,19.23 97.15,48.88c15.72,-7.46 33.31,-11.63 51.84,-11.63c64.87,0 117.72,50.95 120.76,115.05c9.07,-2.17 18.52,-3.31 28.23,-3.31c66.82,0 120.9,54.07 120.9,120.9zM865.85,164.35c-15.49,0 -30.2,3.33 -43.45,9.31v-15.52c0,-58.34 -47.19,-105.54 -105.54,-105.54c-20.97,0 -40.5,6.1 -56.92,16.62c-18.07,-32.17 -52.51,-53.87 -92.07,-53.87c-57.31,0 -103.87,45.54 -105.49,102.46c-13.26,-6 -27.99,-9.34 -43.5,-9.34c-58.34,0 -105.54,47.19 -105.54,105.54v357.92c-1.79,-1.02 -3.58,-2.05 -5.38,-3.08l-81.36,-46.26c-13.18,-7.33 -28.85,-12.22 -46.48,-12.22c-22.82,0 -44.47,7.83 -61.89,22.88l-26.87,25.48c-11.99,11.62 -23.77,23.13 -23.79,23.14c-19.67,19.21 -19.99,50.76 -0.71,70.36l292.45,297.29c37.25,37.75 87.97,59.1 141.51,59.1h271.91c109.38,0 198.65,-89.29 198.65,-198.66v-540.09c0,-58.34 -47.19,-105.54 -105.54,-105.54zM921.73,269.89v540.09c0,81.95 -67.04,148.99 -148.99,148.99h-271.91c-40.23,0 -78.22,-16.01 -106.16,-44.32l-292.39,-297.24c0,0 46.92,-45.82 48.42,-46.57c8.2,-7.08 18.25,-10.8 29.43,-10.8c8.2,0 15.64,2.23 22.35,5.96c1.49,0.38 160.54,91.63 160.54,91.63v-443.62c0,-30.91 24.96,-55.87 55.87,-55.87c30.91,0 55.87,24.96 55.87,55.87v260.73h37.25v-353.85c0,-30.91 24.96,-55.87 55.87,-55.87c30.91,0 55.87,24.96 55.87,55.87v353.85h37.25v-316.6c0,-30.91 24.96,-55.87 55.87,-55.87c30.91,0 55.87,24.96 55.87,55.87v316.6h37.24v-204.86c0,-30.91 24.96,-55.87 55.87,-55.87c30.91,0 55.87,24.96 55.87,55.87z" fill="currentColor"/>
		</g>
	</g>
</svg>