<svg version="1.1" xmlns="http://www.w3.org/2000/svg" xmlns:xlink="http://www.w3.org/1999/xlink" viewBox="0,0,1024,1024">
	<!-- Color names: teamapps-color-1 -->
	<desc>perm_contact_calendar icon - Licensed under Apache License v2.0 (http://www.apache.org/licenses/LICENSE-2.0) - Created with Iconfu.com - Derivative work of Material icons (Copyright Google Inc.)</desc>
	<g fill="none" fill-rule="nonzero" style="mix-blend-mode: normal">
		<g color="#039be5" class="teamapps-color-1">
			<path d="M912.26,251.26v521.48c0,76.88 -62.64,139.52 -139.52,139.52h-521.48c-77.48,0 -139.52,-62.86 -139.52,-139.52v-521.48c0,-67.24 47.72,-123.85 111.74,-136.76v-12.23c0,-35.91 29.11,-65.02 65.02,-65.02h74.49c35.91,0 65.02,29.11 65.02,65.02v9.47h167.94v-9.47c0,-35.91 29.11,-65.02 65.02,-65.02h74.49c35.91,0 65.02,29.11 65.02,65.02v12.25c63.63,12.93 111.74,69.34 111.74,136.73zM785.15,127.72v-25.45c0,-27.43 -22.24,-49.66 -49.66,-49.66h-74.49c-27.43,0 -49.66,22.24 -49.66,49.66v24.83h-198.66v-24.83c0,-27.43 -22.24,-49.66 -49.66,-49.66h-74.49c-27.43,0 -49.66,22.24 -49.66,49.66v25.44c-63.04,6.24 -111.74,59.46 -111.74,123.55v521.48c0,68.23 55.22,124.16 124.16,124.16h521.48c68.4,0 124.16,-55.76 124.16,-124.16v-521.48c0,-64.21 -49.14,-117.28 -111.74,-123.54zM847.23,251.26v521.48c0,40.97 -33.52,74.49 -74.49,74.49h-521.48c-41.35,0 -74.49,-33.52 -74.49,-74.49v-521.48c0,-40.97 33.15,-74.49 74.49,-74.49h37.25v-74.49h74.49v74.49h297.99v-74.49h74.49v74.49h37.25c40.97,0 74.49,33.52 74.49,74.49zM735.49,698.24c0,-74.49 -148.99,-115.46 -223.49,-115.46c-74.49,0 -223.49,40.97 -223.49,115.46v37.25h446.98zM400.26,400.26c0,61.83 49.91,111.74 111.74,111.74c61.83,0 111.74,-49.91 111.74,-111.74c0,-61.83 -49.91,-111.74 -111.74,-111.74c-61.83,0 -111.74,49.91 -111.74,111.74z" fill="currentColor"/>
		</g>
	</g>
</svg>