<svg version="1.1" xmlns="http://www.w3.org/2000/svg" xmlns:xlink="http://www.w3.org/1999/xlink" viewBox="0,0,1024,1024">
	<!-- Color names: teamapps-color-1 -->
	<desc>play_for_work icon - Licensed under Apache License v2.0 (http://www.apache.org/licenses/LICENSE-2.0) - Created with Iconfu.com - Derivative work of Material icons (Copyright Google Inc.)</desc>
	<g fill="none" fill-rule="nonzero" style="mix-blend-mode: normal">
		<g color="#039be5" class="teamapps-color-1">
			<path d="M614.27,251.26v143.2h65.34c26.3,0 50.01,15.84 60.07,40.14c10.06,24.3 4.5,52.27 -14.1,70.86l-16.01,16.01h25.9c35.91,0 65.02,29.11 65.02,65.02c0,159.21 -129.31,288.51 -288.51,288.51c-159.21,0 -288.51,-129.31 -288.51,-288.51c0,-35.91 29.11,-65.02 65.02,-65.02h25.9l-16.01,-16.01c-18.6,-18.6 -24.16,-46.56 -14.1,-70.86c10.06,-24.3 33.77,-40.14 60.07,-40.14h65.34v-143.2c0,-35.91 29.11,-65.02 65.02,-65.02h74.5c35.91,0 65.02,29.11 65.02,65.02zM549.25,201.6h-74.5c-27.43,0 -49.66,22.24 -49.66,49.66v158.56h-80.7c-20.09,0 -38.2,12.1 -45.88,30.66c-7.69,18.56 -3.44,39.92 10.77,54.12l42.23,42.23h-62.99c-27.43,0 -49.66,22.24 -49.66,49.66c0,150.72 122.43,273.15 273.15,273.15c150.72,0 273.15,-122.43 273.15,-273.15c0,-27.43 -22.24,-49.66 -49.66,-49.66h-62.99l42.23,-42.23c14.2,-14.2 18.45,-35.57 10.77,-54.12c-7.69,-18.56 -25.8,-30.66 -45.88,-30.66h-80.7v-158.56c0,-27.43 -22.24,-49.66 -49.66,-49.66zM549.25,251.26v208.22h130.37l-167.62,167.62l-167.62,-167.62h130.37v-208.22zM363.01,586.49c0,82.32 66.68,148.99 148.99,148.99c82.32,0 148.99,-66.68 148.99,-148.99h74.49c0,123.29 -100.19,223.49 -223.49,223.49c-123.29,0 -223.49,-100.19 -223.49,-223.49z" fill="currentColor"/>
		</g>
	</g>
</svg>