<svg version="1.1" xmlns="http://www.w3.org/2000/svg" xmlns:xlink="http://www.w3.org/1999/xlink" viewBox="0,0,1024,1024">
	<!-- Color names: teamapps-color-1 -->
	<desc>router icon - Licensed under Apache License v2.0 (http://www.apache.org/licenses/LICENSE-2.0) - Created with Iconfu.com - Derivative work of Material icons (Copyright Google Inc.)</desc>
	<g fill="none" fill-rule="nonzero" style="mix-blend-mode: normal">
		<g color="#039be5" class="teamapps-color-1">
			<path d="M912.26,623.74v148.99c0,76.88 -62.64,139.52 -139.52,139.52h-521.48c-76.88,0 -139.52,-62.64 -139.52,-139.52v-148.99c0,-76.88 62.64,-139.52 139.52,-139.52h307.46v-75.46c-13.46,-1.91 -26.47,-8.04 -36.83,-18.4l-29.8,-29.8c-4.61,-4.61 -8.4,-9.77 -11.35,-15.26c-8.09,-3.18 -15.67,-8.04 -22.17,-14.54l-29.8,-29.8c-25.4,-25.39 -25.4,-66.57 -0.01,-91.96c64.48,-64.48 148.13,-97.27 232.22,-97.27c84.1,0 167.74,32.79 232.22,97.27c25.39,25.39 25.39,66.56 0,91.96l-29.8,29.8c-6.5,6.5 -14.08,11.36 -22.18,14.54c-2.95,5.5 -6.74,10.65 -11.35,15.27l-29.8,29.8c-10.36,10.36 -23.36,16.49 -36.82,18.39v75.46h9.48c76.88,0 139.52,62.64 139.52,139.52zM772.74,499.59h-24.84v-99.33c0,-2.26 -0.15,-4.48 -0.44,-6.65c14.82,1.99 30.37,-2.71 41.76,-14.1l29.8,-29.8c4.98,-4.98 8.68,-10.75 11.1,-16.91c8.23,-2.17 16,-6.47 22.43,-12.9l29.8,-29.8c19.39,-19.39 19.39,-50.84 0,-70.24c-61.56,-61.56 -141.29,-92.77 -221.35,-92.77c-80.07,0 -159.8,31.2 -221.36,92.77c-19.4,19.4 -19.39,50.85 0.01,70.24l29.8,29.8c6.43,6.43 14.2,10.73 22.42,12.9c2.42,6.16 6.12,11.92 11.1,16.9l29.8,29.8c11.39,11.39 26.94,16.09 41.77,14.1c-0.29,2.18 -0.44,4.4 -0.44,6.65v99.33h-322.82c-68.4,0 -124.16,55.76 -124.16,124.16v148.99c0,68.4 55.76,124.16 124.16,124.16h521.48c68.4,0 124.16,-55.76 124.16,-124.16v-148.99c0,-68.4 -55.76,-124.16 -124.16,-124.16zM847.23,623.74v148.99c0,40.97 -33.52,74.49 -74.49,74.49h-521.48c-40.97,0 -74.49,-33.52 -74.49,-74.49v-148.99c0,-40.97 33.52,-74.49 74.49,-74.49h372.48v-148.99h74.49v148.99h74.5c40.97,0 74.49,33.52 74.49,74.49zM660.99,221.47c-55.87,0 -111.74,22.35 -156.44,63.32l-29.8,-29.8c52.14,-52.14 119.2,-78.22 186.25,-78.22c67.05,0 134.09,26.08 186.24,78.22l-29.8,29.8c-44.7,-40.97 -100.57,-63.32 -156.44,-63.32zM754.11,344.38c-26.08,-26.08 -59.59,-37.25 -93.11,-37.25c-33.52,0 -67.05,11.17 -93.12,37.25l-29.8,-29.8c33.52,-33.52 78.22,-52.15 122.92,-52.15c44.7,0 89.4,18.63 122.92,52.15zM623.74,660.99h-74.49v74.49h74.49zM363.01,660.99h-74.49v74.49h74.49zM493.38,660.99h-74.5v74.49h74.5z" fill="currentColor"/>
		</g>
	</g>
</svg>