<svg version="1.1" xmlns="http://www.w3.org/2000/svg" xmlns:xlink="http://www.w3.org/1999/xlink" viewBox="0,0,1024,1024">
	<!-- Color names: teamapps-color-1 -->
	<desc>screen_lock_rotation icon - Licensed under Apache License v2.0 (http://www.apache.org/licenses/LICENSE-2.0) - Created with Iconfu.com - Derivative work of Material icons (Copyright Google Inc.)</desc>
	<g fill="none" fill-rule="nonzero" style="mix-blend-mode: normal">
		<g color="#039be5" class="teamapps-color-1">
			<path d="M977.02,665.63l-236.74,236.74c-28.68,29.01 -68.16,40.19 -105.24,34.05c-0.65,2.61 -1.48,5.19 -2.47,7.74c-9.33,24 -31.93,40.24 -57.66,41.4l-26.87,1.17c-0.22,0.01 -0.45,0.01 -0.67,0.01c-268.48,0 -488.15,-206.58 -509.91,-469.38c-3.14,-37.9 26.77,-70.39 64.8,-70.39h11.97c-40.29,-47.62 -37.26,-118.61 7.23,-163.1l236.74,-236.74c47.34,-47.89 124.04,-47.21 171.09,-0.16l71.65,71.65c17.56,-68.2 79.47,-118.63 153.15,-118.63c78.98,0 144.45,57.94 156.25,133.61c23.77,18.68 39.15,47.73 39.15,80.41v148.99c0,28.71 -11.89,54.67 -30.95,73.23l58.3,58.3c47.89,47.34 47.21,124.04 0.16,171.09zM966.03,505.44l-70.33,-70.33c23.17,-15.63 38.44,-42.12 38.44,-72.1v-148.99c0,-29.91 -15.16,-56.25 -38.14,-71.89c-7.97,-71.3 -68.48,-126.77 -141.9,-126.77c-73.42,0 -133.92,55.48 -141.89,126.77c-1.87,1.27 -3.7,2.62 -5.46,4.03l-88.32,-88.32c-41.14,-41.14 -108.08,-41.64 -149.33,0.12l-236.77,236.77c-41.14,41.14 -41.64,108.07 0.12,149.32l18.27,18.27h-48.46c-29.04,0 -51.89,24.82 -49.49,53.76c21.11,254.93 234.2,455.29 494.6,455.29c0.63,0 1.25,-0.01 1.88,-0.04l24.96,-1.13c19.65,-0.89 36.91,-13.29 44.04,-31.62c2.69,-6.91 3.74,-14.18 3.26,-21.29c36.66,12.17 78.69,3.78 107.86,-25.76l236.77,-236.77c41.14,-41.14 41.64,-108.08 -0.12,-149.33zM931.04,619.65l-236.9,236.9c-21.61,21.97 -56.99,21.97 -78.96,0l-447.73,-447.73c-21.97,-21.61 -21.97,-56.99 0,-78.96l236.9,-236.9c21.61,-21.97 57,-21.97 78.97,0l91.25,91.25l-52.52,52.52l-78.22,-78.22l-210.82,210.83l421.64,421.64l210.83,-210.82l-82.69,-82.69l52.52,-52.52l95.72,95.72c21.97,21.61 21.97,57 0,78.97zM430.05,778.33l141.91,142.28l-24.58,1.12c-234.29,0 -426.11,-180.27 -445.11,-409.73h55.87c13.41,140.06 100.57,258.5 222.37,315.86zM623.74,363.01v-148.99c0,-20.49 16.76,-37.25 37.25,-37.25v-18.62c0,-51.4 41.71,-93.12 93.11,-93.12c51.4,0 93.12,41.72 93.12,93.12v18.62c20.49,0 37.25,16.76 37.25,37.25v148.99c0,20.49 -16.76,37.25 -37.25,37.25h-186.24c-20.49,0 -37.25,-16.76 -37.25,-37.25zM690.79,176.77h126.65v-18.62c0,-35.02 -28.31,-63.33 -63.33,-63.33c-35.02,0 -63.32,28.31 -63.32,63.33z" fill="currentColor"/>
		</g>
	</g>
</svg>