<svg version="1.1" xmlns="http://www.w3.org/2000/svg" xmlns:xlink="http://www.w3.org/1999/xlink" viewBox="0,0,1024,1024">
	<!-- Color names: teamapps-color-1 -->
	<desc>sentiment_dissatisfied icon - Licensed under Apache License v2.0 (http://www.apache.org/licenses/LICENSE-2.0) - Created with Iconfu.com - Derivative work of Material icons (Copyright Google Inc.)</desc>
	<g fill="none" fill-rule="nonzero" style="mix-blend-mode: normal">
		<g color="#039be5" class="teamapps-color-1">
			<path d="M949.51,512c0,241.56 -196.03,437.51 -437.88,437.51c-241.61,0 -437.13,-196.07 -437.13,-437.51c0,-241.43 195.52,-437.51 437.13,-437.51c241.85,0 437.88,195.94 437.88,437.51zM511.62,89.85c-233.1,0 -421.77,189.17 -421.77,422.15c0,232.97 188.67,422.15 421.77,422.15c233.38,0 422.52,-189.08 422.52,-422.15c0,-233.07 -189.14,-422.15 -422.52,-422.15zM586.49,418.88c0,-30.86 25.01,-55.87 55.87,-55.87c30.86,0 55.87,25.01 55.87,55.87c0,30.86 -25.01,55.87 -55.87,55.87c-30.86,0 -55.87,-25.01 -55.87,-55.87zM325.76,418.88c0,-30.86 25.01,-55.87 55.87,-55.87c30.86,0 55.87,25.01 55.87,55.87c0,30.86 -25.01,55.87 -55.87,55.87c-30.86,0 -55.87,-25.01 -55.87,-55.87zM884.48,512c0,205.61 -166.87,372.48 -372.86,372.48c-205.61,0 -372.11,-166.87 -372.11,-372.48c0,-205.61 166.5,-372.48 372.11,-372.48c205.98,0 372.86,166.87 372.86,372.48zM809.98,512c0,-164.64 -133.34,-297.98 -297.98,-297.98c-164.64,0 -297.98,133.34 -297.98,297.98c0,164.64 133.34,297.98 297.98,297.98c164.64,0 297.98,-133.34 297.98,-297.98zM702.71,716.87h-62.2c-26.08,-44.32 -73.38,-74.5 -128.51,-74.5c-55.13,0 -102.8,30.18 -128.51,74.5h-62.2c29.8,-76.36 103.92,-130.37 190.71,-130.37c86.78,0 160.91,54.01 190.71,130.37z" fill="currentColor"/>
		</g>
	</g>
</svg>