<svg version="1.1" xmlns="http://www.w3.org/2000/svg" xmlns:xlink="http://www.w3.org/1999/xlink" viewBox="0,0,1024,1024">
	<!-- Color names: teamapps-color-1 -->
	<desc>settings_input_composite icon - Licensed under Apache License v2.0 (http://www.apache.org/licenses/LICENSE-2.0) - Created with Iconfu.com - Derivative work of Material icons (Copyright Google Inc.)</desc>
	<g fill="none" fill-rule="nonzero" style="mix-blend-mode: normal">
		<g color="#039be5" class="teamapps-color-1">
			<path d="M614.27,223.49h9.47c13.85,0 26.7,4.34 37.25,11.72c10.55,-7.38 23.4,-11.72 37.25,-11.72h9.48v-83.97c0,-56.4 45.87,-102.27 102.27,-102.27c56.38,0 102.27,45.84 102.27,102.27v83.97h9.47c35.91,0 65.02,29.11 65.02,65.02v223.49c0,13.85 -4.34,26.7 -11.72,37.25c7.38,10.55 11.72,23.4 11.72,37.25v74.5c0,59.86 -29.71,112.12 -74.49,143.86v116.87c0,35.91 -29.11,65.02 -65.02,65.02h-74.49c-35.91,0 -65.02,-29.11 -65.02,-65.02v-117.07c-18.41,-13.12 -34.31,-29.68 -46.63,-48.82c-12.33,19.24 -28.28,35.88 -46.81,49.02v116.87c0,35.91 -29.11,65.02 -65.02,65.02h-74.5c-35.91,0 -65.02,-29.11 -65.02,-65.02v-117.07c-18.45,-13.15 -34.38,-29.75 -46.72,-48.95c-12.34,19.2 -28.27,35.81 -46.72,48.95v117.07c0,35.91 -29.11,65.02 -65.02,65.02h-74.49c-35.91,0 -65.02,-29.11 -65.02,-65.02v-117.07c-44.6,-31.78 -74.49,-83.84 -74.49,-143.66v-74.5c0,-13.85 4.34,-26.7 11.72,-37.25c-7.38,-10.55 -11.72,-23.4 -11.72,-37.25v-223.49c0,-35.91 29.11,-65.02 65.02,-65.02h9.47v-83.97c0,-56.42 45.9,-102.27 102.27,-102.27c56.4,0 102.27,45.87 102.27,102.27v83.97h9.48c13.85,0 26.7,4.34 37.25,11.72c10.55,-7.38 23.4,-11.72 37.25,-11.72h9.47v-83.97c0,-56.42 45.9,-102.27 102.27,-102.27c56.38,0 102.27,45.84 102.27,102.27zM598.91,139.52c0,-47.93 -39.01,-86.91 -86.91,-86.91c-47.9,0 -86.91,38.97 -86.91,86.91v99.33h-24.83c-14.83,0 -28.15,6.5 -37.25,16.81c-9.1,-10.31 -22.41,-16.81 -37.25,-16.81h-24.84v-99.33c0,-47.92 -38.99,-86.91 -86.91,-86.91c-47.9,0 -86.91,38.97 -86.91,86.91v99.33h-24.83c-27.43,0 -49.66,22.24 -49.66,49.66v223.49c0,14.83 6.5,28.15 16.81,37.25c-10.31,9.1 -16.81,22.41 -16.81,37.25v74.5c0,57.36 30.12,106.98 74.49,135.52v125.21c0,27.43 22.24,49.66 49.66,49.66h74.49c27.43,0 49.66,-22.24 49.66,-49.66v-125.21c27.34,-17.59 49.27,-43.18 62.08,-73.65c12.81,30.47 34.74,56.06 62.08,73.65v125.21c0,27.43 22.24,49.66 49.66,49.66h74.5c27.43,0 49.66,-22.24 49.66,-49.66v-125.04c27.44,-17.53 49.35,-43.17 62.12,-73.71c12.82,30.42 34.73,55.97 62.04,73.53v125.21c0,27.43 22.24,49.66 49.66,49.66h74.49c27.43,0 49.66,-22.24 49.66,-49.66v-125.04c44.52,-28.45 74.49,-78.24 74.49,-135.69v-74.5c0,-14.83 -6.5,-28.15 -16.81,-37.25c10.31,-9.1 16.81,-22.41 16.81,-37.25v-223.49c0,-27.43 -22.24,-49.66 -49.66,-49.66h-24.83v-99.33c0,-47.93 -39.01,-86.91 -86.91,-86.91c-47.92,0 -86.91,38.99 -86.91,86.91v99.33h-24.84c-14.83,0 -28.15,6.5 -37.25,16.81c-9.1,-10.31 -22.41,-16.81 -37.25,-16.81h-24.83zM921.73,288.51v223.49h-223.49v-223.49h74.5v-148.99c0,-20.49 16.75,-37.24 37.24,-37.24c20.49,0 37.25,16.75 37.25,37.24v148.99zM549.25,288.51h74.49v223.49h-223.49v-223.49h74.49v-148.99c0,-20.49 16.76,-37.24 37.25,-37.24c20.49,0 37.25,16.75 37.25,37.24zM251.26,288.51h74.5v223.49h-223.49v-223.49h74.49v-148.99c0,-20.49 16.76,-37.24 37.25,-37.24c20.49,0 37.24,16.75 37.24,37.24zM400.26,586.49h223.49v74.5c0,48.79 -31.29,89.77 -74.49,105.04v155.69h-74.5v-155.69c-43.2,-15.64 -74.49,-56.61 -74.49,-105.04zM698.24,586.49h223.49v74.5c0,48.79 -31.29,89.77 -74.49,105.04v155.69h-74.49v-155.69c-43.2,-15.64 -74.5,-56.61 -74.5,-105.04zM102.27,586.49h223.49v74.5c0,48.43 -31.3,89.4 -74.5,105.04v155.69h-74.49v-155.69c-43.2,-15.64 -74.49,-56.61 -74.49,-105.04z" fill="currentColor"/>
		</g>
	</g>
</svg>