<svg version="1.1" xmlns="http://www.w3.org/2000/svg" xmlns:xlink="http://www.w3.org/1999/xlink" viewBox="0,0,1024,1024">
	<!-- Color names: teamapps-color-1 -->
	<desc>share icon - Licensed under Apache License v2.0 (http://www.apache.org/licenses/LICENSE-2.0) - Created with Iconfu.com - Derivative work of Material icons (Copyright Google Inc.)</desc>
	<g fill="none" fill-rule="nonzero" style="mix-blend-mode: normal">
		<g color="#039be5" class="teamapps-color-1">
			<path d="M909.28,772.74c0,95.89 -77.92,173.78 -173.79,173.78c-91.98,0 -167.43,-71.7 -173.41,-162.2l-195.21,-114.05c-23.46,11.74 -50.01,18.5 -78.36,18.5c-97.75,0 -176.77,-79.02 -176.77,-176.77c0,-97.75 79.02,-176.77 176.77,-176.77c28.36,0 54.93,6.77 78.4,18.52l192.06,-111.97c4.91,-93.33 81.95,-167.29 176.52,-167.29c97.75,0 176.77,79.02 176.77,176.77c0,97.75 -79.02,176.77 -176.77,176.77c-28.36,0 -54.93,-6.77 -78.4,-18.52l-175.77,102.47l179.17,104.28c22.4,-10.9 47.76,-17.31 75,-17.31c95.88,0 173.79,77.91 173.79,173.79zM735.49,614.31c-27.72,0 -53.31,7.29 -75.43,19.47l-209.25,-121.79l205.94,-120.06c23.14,13.08 49.91,20.74 78.74,20.74c89.26,0 161.41,-72.14 161.41,-161.41c0,-89.26 -72.14,-161.41 -161.41,-161.41c-89.1,0 -161.14,71.87 -161.41,160.9l-206.83,120.57c-23.14,-13.08 -49.91,-20.74 -78.74,-20.74c-89.26,0 -161.41,72.14 -161.41,161.41c0,89.26 72.14,161.41 161.41,161.41c28.82,0 55.58,-7.65 78.71,-20.72l209.85,122.61c1.37,86.23 71.87,155.87 158.41,155.87c87.39,0 158.43,-71.02 158.43,-158.42c0,-87.4 -71.04,-158.43 -158.43,-158.43zM844.26,772.74c0,59.97 -48.8,108.76 -108.77,108.76c-59.97,0 -108.77,-48.79 -108.77,-108.76c0,-8.2 1.13,-16.39 2.99,-24.22l-265.21,-154.95c-20.11,18.62 -46.56,30.17 -75.99,30.17c-61.83,0 -111.74,-49.91 -111.74,-111.74c0,-61.83 49.91,-111.74 111.74,-111.74c29.43,0 55.87,11.55 75.99,30.17l262.6,-153.09c-1.86,-8.56 -3.35,-17.14 -3.35,-26.08c0,-61.83 49.91,-111.74 111.74,-111.74c61.83,0 111.74,49.91 111.74,111.74c0,61.83 -49.91,111.74 -111.74,111.74c-29.43,0 -55.87,-11.55 -75.99,-30.17l-262.6,153.09c1.86,8.56 3.35,17.14 3.35,26.08c0,8.94 -1.49,17.51 -3.35,26.08l265.58,154.57c19.37,-17.5 44.7,-28.68 73.01,-28.68c59.97,0 108.77,48.8 108.77,108.77z" fill="currentColor"/>
		</g>
	</g>
</svg>