<svg version="1.1" xmlns="http://www.w3.org/2000/svg" xmlns:xlink="http://www.w3.org/1999/xlink" viewBox="0,0,1024,1024">
	<!-- Color names: teamapps-color-1 -->
	<desc>shop icon - Licensed under Apache License v2.0 (http://www.apache.org/licenses/LICENSE-2.0) - Created with Iconfu.com - Derivative work of Material icons (Copyright Google Inc.)</desc>
	<g fill="none" fill-rule="nonzero" style="mix-blend-mode: normal">
		<g color="#039be5" class="teamapps-color-1">
			<path d="M949.51,288.51v484.23c0,77.27 -62.28,139.52 -139.53,139.52h-595.96c-77.25,0 -139.53,-62.25 -139.53,-139.52v-484.23c0,-35.91 29.11,-65.02 65.02,-65.02h158.46v-9.47c0,-77.26 62.27,-139.53 139.53,-139.53h148.99c77.26,0 139.53,62.27 139.53,139.53v9.47h158.46c35.91,0 65.02,29.11 65.02,65.02zM884.48,238.85h-173.82v-24.83c0,-68.77 -55.39,-124.17 -124.17,-124.17h-148.99c-68.77,0 -124.17,55.39 -124.17,124.17v24.83h-173.82c-27.43,0 -49.66,22.24 -49.66,49.66v484.23c0,68.78 55.4,124.16 124.17,124.16h595.96c68.77,0 124.17,-55.38 124.17,-124.16v-484.23c0,-27.43 -22.24,-49.66 -49.66,-49.66zM884.48,288.51v484.23c0,41.35 -33.16,74.49 -74.5,74.49h-595.96c-41.35,0 -74.5,-33.15 -74.5,-74.49v-484.23h223.49v-74.49c0,-41.35 33.16,-74.5 74.5,-74.5h148.99c41.35,0 74.5,33.16 74.5,74.5v74.49zM679.62,549.25l-279.36,-148.99v335.23zM437.51,288.51h148.99v-74.49h-148.99z" fill="currentColor"/>
		</g>
	</g>
</svg>