<svg version="1.1" xmlns="http://www.w3.org/2000/svg" xmlns:xlink="http://www.w3.org/1999/xlink" viewBox="0,0,1024,1024">
	<!-- Color names: teamapps-color-1 -->
	<desc>signal_cellular_no_sim icon - Licensed under Apache License v2.0 (http://www.apache.org/licenses/LICENSE-2.0) - Created with Iconfu.com - Derivative work of Material icons (Copyright Google Inc.)</desc>
	<g fill="none" fill-rule="nonzero" style="mix-blend-mode: normal">
		<g color="#039be5" class="teamapps-color-1">
			<path d="M897.68,906.24l-47.31,47.31c-25.39,25.39 -66.56,25.39 -91.96,0l-42.43,-42.43c-5.62,0.74 -11.42,1.14 -17.37,1.14h-372.85c-76.87,0 -139.53,-62.63 -139.53,-139.52v-391.37l-78.54,-78.55c-25.39,-25.39 -25.39,-66.56 0,-91.96l47.3,-47.3c25.39,-25.39 66.56,-25.39 91.96,0l55.92,55.92l88.65,-88.7c12.19,-12.19 28.73,-19.05 45.98,-19.05h260.73c77.32,0 139.15,63.08 139.15,139.52l0.38,435c0.02,18.35 -7.68,35.44 -20.58,47.52l80.5,80.5c25.39,25.39 25.39,66.56 0,91.96zM886.82,825.15l-93.59,-93.59c17.73,-8.03 29.19,-25.72 29.17,-45.28l-0.38,-435.02c0,-68.07 -55.07,-124.16 -123.79,-124.16h-260.73c-13.17,0 -25.8,5.23 -35.12,14.55l-87.16,87.16c-4.36,4.36 -7.73,9.32 -10.13,14.62l-69,-69c-19.4,-19.39 -50.84,-19.39 -70.24,0l-47.3,47.3c-19.39,19.39 -19.4,50.84 0,70.23l83.04,83.05v397.73c0,68.41 55.78,124.16 124.17,124.16h372.85c7.88,0 15.45,-0.79 22.67,-2.2l47.99,47.99c19.39,19.39 50.84,19.39 70.24,0l47.31,-47.31c19.4,-19.4 19.39,-50.84 0,-70.24zM851.7,860.27l-47.31,47.31l-70.02,-70.02c-10.8,5.96 -22.72,9.68 -35.76,9.68h-372.85c-40.97,0 -74.5,-33.52 -74.5,-74.49v-418.3l-97.58,-97.59l47.3,-47.3zM772.74,686.32l-422.39,-422.39l87.16,-87.16h260.73c40.97,0 74.13,33.52 74.13,74.49z" fill="currentColor"/>
		</g>
	</g>
</svg>