<svg version="1.1" xmlns="http://www.w3.org/2000/svg" xmlns:xlink="http://www.w3.org/1999/xlink" viewBox="0,0,1024,1024">
	<!-- Color names: teamapps-color-1 -->
	<desc>space_bar icon - Licensed under Apache License v2.0 (http://www.apache.org/licenses/LICENSE-2.0) - Created with Iconfu.com - Derivative work of Material icons (Copyright Google Inc.)</desc>
	<g fill="none" fill-rule="nonzero" style="mix-blend-mode: normal">
		<g color="#039be5" class="teamapps-color-1">
			<path d="M875.01,400.26v223.49c0,35.91 -29.11,65.02 -65.02,65.02h-595.96c-35.91,0 -65.02,-29.11 -65.02,-65.02v-223.49c0,-35.91 29.11,-65.02 65.02,-65.02h74.49c35.91,0 65.02,29.11 65.02,65.02v83.97h316.93v-83.97c0,-35.91 29.11,-65.02 65.02,-65.02h74.49c35.91,0 65.02,29.11 65.02,65.02zM809.98,350.59h-74.49c-27.43,0 -49.66,22.24 -49.66,49.66v99.33h-347.65v-99.33c0,-27.43 -22.24,-49.66 -49.66,-49.66h-74.49c-27.43,0 -49.66,22.24 -49.66,49.66v223.49c0,27.43 22.24,49.66 49.66,49.66h595.96c27.43,0 49.66,-22.24 49.66,-49.66v-223.49c0,-27.43 -22.24,-49.66 -49.66,-49.66zM809.98,400.26v223.49h-595.96v-223.49h74.49v148.99h446.98v-148.99z" fill="currentColor"/>
		</g>
	</g>
</svg>