<svg version="1.1" xmlns="http://www.w3.org/2000/svg" xmlns:xlink="http://www.w3.org/1999/xlink" viewBox="0,0,1024,1024">
	<!-- Color names: teamapps-color-1 -->
	<desc>speaker_notes_off icon - Licensed under Apache License v2.0 (http://www.apache.org/licenses/LICENSE-2.0) - Created with Iconfu.com - Derivative work of Material icons (Copyright Google Inc.)</desc>
	<g fill="none" fill-rule="nonzero" style="mix-blend-mode: normal">
		<g color="#039be5" class="teamapps-color-1">
			<path d="M930.46,947.59l-47.31,47.31c-25.39,25.39 -66.56,25.39 -91.96,0l-194.39,-194.39h-281.36l-129.95,129.95c-18.6,18.6 -46.58,24.16 -70.88,14.09c-24.3,-10.07 -40.14,-33.8 -40.12,-60.11l0.36,-605.89l-55.81,-55.81c-25.39,-25.39 -25.39,-66.56 0,-91.96l47.31,-47.31c25.39,-25.39 66.56,-25.39 91.96,0l11.4,11.4c12.06,-12.77 29.05,-20.39 47.29,-20.39h592.99c76.88,0 139.53,62.64 139.53,139.53v446.98c0,58.24 -35.55,107.28 -85.42,128.26l66.38,66.38c25.39,25.39 25.39,66.56 0,91.96zM919.6,866.49l-84.29,-84.29c56.05,-11.68 98.84,-60.95 98.84,-121.21v-446.98c0,-68.4 -55.77,-124.17 -124.17,-124.17h-592.99c-19.45,0 -37.05,11.35 -45.12,28.91l-24.42,-24.42c-19.4,-19.39 -50.84,-19.39 -70.24,0l-47.31,47.31c-19.39,19.4 -19.39,50.84 0,70.24l60.31,60.31l-0.36,612.26c-0.01,20.09 12.08,38.21 30.64,45.91c18.56,7.69 39.93,3.45 54.14,-10.76l134.45,-134.45h294.09l198.88,198.88c19.39,19.39 50.84,19.39 70.24,0l47.31,-47.31c19.39,-19.39 19.39,-50.84 0,-70.24zM884.48,901.61l-47.31,47.31l-213.43,-213.43h-335.23l-148.99,148.99l0.38,-632.85l-74.87,-74.87l47.31,-47.31zM884.48,214.02v446.98c0,40.23 -32.04,72.62 -71.89,74.12l-260.36,-260.36h183.26v-74.49h-257.75l-37.25,-37.25h295v-74.49h-297.98v71.52l-220.51,-220.51h592.99c40.97,0 74.5,33.53 74.5,74.5zM363.01,474.75l-74.49,-74.49v74.49zM363.01,512h-74.49v74.49h74.49z" fill="currentColor"/>
		</g>
	</g>
</svg>