<svg version="1.1" xmlns="http://www.w3.org/2000/svg" xmlns:xlink="http://www.w3.org/1999/xlink" viewBox="0,0,1024,1024">
	<!-- Color names: teamapps-color-1 -->
	<desc>sync icon - Licensed under Apache License v2.0 (http://www.apache.org/licenses/LICENSE-2.0) - Created with Iconfu.com - Derivative work of Material icons (Copyright Google Inc.)</desc>
	<g fill="none" fill-rule="nonzero" style="mix-blend-mode: normal">
		<g color="#039be5" class="teamapps-color-1">
			<path d="M557.98,577.77l148.99,148.99c25.39,25.39 25.39,66.57 0,91.96l-148.99,148.99c-18.6,18.6 -46.56,24.16 -70.86,14.09c-24.3,-10.06 -40.14,-33.77 -40.14,-60.07v-52.53c-169.51,-30.64 -297.98,-178.84 -297.98,-357.2c0,-71.37 20.94,-137.75 56.29,-193.5c10.57,-16.67 28.14,-27.64 47.76,-29.81c19.62,-2.17 39.16,4.69 53.12,18.65l54.39,54.38c20.36,20.35 24.91,51.67 11.19,76.98c-11.56,21.32 -18.21,46.43 -18.21,73.3c0,64.19 38.38,119.64 93.44,144.51v-32.77c0,-26.3 15.84,-50.01 40.14,-60.07c24.3,-10.06 52.27,-4.5 70.86,14.1zM875.01,512c0,71.37 -20.94,137.75 -56.29,193.5c-10.57,16.67 -28.14,27.64 -47.76,29.81c-19.62,2.17 -39.16,-4.69 -53.12,-18.65l-54.39,-54.38c-20.36,-20.35 -24.91,-51.67 -11.19,-76.98c11.56,-21.32 18.21,-46.43 18.21,-73.3c0,-64.19 -38.38,-119.64 -93.44,-144.51v32.77c0,26.3 -15.84,50.01 -40.14,60.07c-24.3,10.06 -52.27,4.5 -70.86,-14.1l-148.99,-148.99c-25.39,-25.39 -25.39,-66.57 0,-91.96l148.99,-148.99c18.6,-18.6 46.56,-24.16 70.86,-14.09c24.3,10.06 40.14,33.77 40.14,60.07v52.53c169.51,30.64 297.98,178.84 297.98,357.2zM492.99,577.86c-18.56,7.69 -30.66,25.8 -30.66,45.88v54.86c-71.73,-21.41 -124.16,-88 -124.16,-166.6c0,-29.41 7.28,-57.04 20.07,-80.62c10.48,-19.33 7,-43.25 -8.54,-58.79l-54.39,-54.38c-10.66,-10.66 -25.59,-15.9 -40.58,-14.24c-14.99,1.66 -28.41,10.03 -36.48,22.77c-33.86,53.4 -53.9,116.94 -53.9,185.27c0,175.2 129.45,320.04 297.98,344.13v65.6c0,20.09 12.1,38.2 30.66,45.88c18.56,7.69 39.92,3.44 54.12,-10.76l148.99,-148.99c19.4,-19.39 19.4,-50.84 0,-70.24l-148.99,-148.99c-14.2,-14.2 -35.57,-18.45 -54.12,-10.77zM561.66,167.87v-65.6c0,-20.09 -12.1,-38.2 -30.66,-45.88c-18.56,-7.69 -39.92,-3.44 -54.12,10.76l-148.99,148.99c-19.4,19.39 -19.4,50.84 0,70.24l148.99,148.99c14.2,14.2 35.57,18.45 54.12,10.77c18.56,-7.69 30.66,-25.8 30.66,-45.88v-54.86c71.73,21.41 124.16,88 124.16,166.6c0,29.41 -7.28,57.04 -20.07,80.62c-10.48,19.33 -7,43.25 8.54,58.79l54.39,54.38c10.66,10.66 25.59,15.9 40.58,14.24c14.99,-1.66 28.41,-10.03 36.48,-22.77c33.86,-53.4 53.9,-116.94 53.9,-185.27c0,-175.2 -129.45,-320.04 -297.98,-344.13zM809.98,512c0,58.48 -17.13,112.86 -46.18,158.68l-54.39,-54.38c16.76,-30.91 26.08,-66.68 26.08,-104.3c0,-123.29 -100.19,-223.49 -223.49,-223.49v111.74l-148.99,-148.99l148.99,-148.99v111.74c164.64,0 297.98,133.34 297.98,297.98zM512,623.74l148.99,148.99l-148.99,148.99v-111.74c-164.64,0 -297.98,-133.34 -297.98,-297.98c0,-58.48 17.13,-112.86 46.18,-158.68l54.39,54.38c-16.76,30.91 -26.08,66.68 -26.08,104.3c0,123.29 100.19,223.49 223.49,223.49z" fill="currentColor"/>
		</g>
	</g>
</svg>