<svg version="1.1" xmlns="http://www.w3.org/2000/svg" xmlns:xlink="http://www.w3.org/1999/xlink" viewBox="0,0,1024,1024">
	<!-- Color names: teamapps-color-1 -->
	<desc>sync_problem icon - Licensed under Apache License v2.0 (http://www.apache.org/licenses/LICENSE-2.0) - Created with Iconfu.com - Derivative work of Material icons (Copyright Google Inc.)</desc>
	<g fill="none" fill-rule="nonzero" style="mix-blend-mode: normal">
		<g color="#039be5" class="teamapps-color-1">
			<path d="M465.28,223.7v37.72c3.09,-0.45 6.26,-0.69 9.47,-0.69h74.5c3.21,0 6.37,0.23 9.47,0.69v-47.41c0,-35.91 29.11,-65.02 65.02,-65.02h223.49c26.3,0 50.01,15.84 60.07,40.14c10.06,24.3 4.5,52.27 -14.1,70.86l-45.9,45.9c40.71,58.27 64.94,129.25 64.94,206.1c0,169.45 -115.89,310.92 -272.27,351.26c-19.47,5.02 -40.17,0.75 -56.07,-11.56c-15.9,-12.32 -25.2,-31.29 -25.2,-51.4v-37.72c-3.09,0.45 -6.26,0.69 -9.47,0.69h-74.5c-3.21,0 -6.37,-0.23 -9.47,-0.69v47.41c0,35.91 -29.11,65.02 -65.02,65.02h-223.49c-26.3,0 -50.01,-15.84 -60.07,-40.14c-10.06,-24.3 -4.5,-52.27 14.1,-70.86l45.9,-45.9c-40.71,-58.27 -64.94,-129.25 -64.94,-206.1c0,-169.45 115.89,-310.92 272.27,-351.26c19.47,-5.02 40.17,-0.75 56.07,11.56c15.9,12.32 25.2,31.29 25.2,51.4zM430.67,184.44c-12.14,-9.41 -27.95,-12.67 -42.82,-8.83c-149.8,38.64 -260.75,174.15 -260.75,336.39c0,78.2 26.19,150.03 69.72,207.69l-55.17,55.17c-14.2,14.2 -18.45,35.57 -10.77,54.12c7.69,18.56 25.8,30.66 45.88,30.66h223.49c27.43,0 49.66,-22.24 49.66,-49.66v-68.72c7.3,4.22 15.78,6.64 24.83,6.64h74.5c9.04,0 17.52,-2.42 24.83,-6.64v59.04c0,15.36 7.11,29.85 19.25,39.26c12.14,9.41 27.95,12.67 42.82,8.83c149.8,-38.64 260.75,-174.15 260.75,-336.39c0,-78.2 -26.19,-150.03 -69.72,-207.69l55.17,-55.17c14.2,-14.2 18.45,-35.57 10.77,-54.12c-7.69,-18.56 -25.8,-30.66 -45.88,-30.66h-223.49c-27.43,0 -49.66,22.24 -49.66,49.66v68.72c-7.3,-4.22 -15.78,-6.64 -24.83,-6.64h-74.5c-9.04,0 -17.52,2.42 -24.83,6.64v-59.04c0,-15.36 -7.11,-29.85 -19.25,-39.26zM400.26,223.7v77.85c-86.78,30.55 -148.99,113.24 -148.99,210.45c0,61.83 25.33,117.33 65.56,157.93l83.43,-83.44v223.49h-223.49l87.9,-87.9c-54.01,-53.64 -87.9,-127.76 -87.9,-210.08c0,-138.94 94.98,-255.15 223.49,-288.3zM759.33,301.92c54.01,53.64 87.9,127.76 87.9,210.08c0,138.94 -94.98,255.15 -223.49,288.3v-77.85c86.78,-30.55 148.99,-113.24 148.99,-210.45c0,-61.83 -25.33,-117.33 -65.56,-157.93l-83.43,83.44v-223.49h223.49zM474.75,325.76h74.5v223.49h-74.5zM474.75,623.74h74.5v74.49h-74.5z" fill="currentColor"/>
		</g>
	</g>
</svg>