<svg version="1.1" xmlns="http://www.w3.org/2000/svg" xmlns:xlink="http://www.w3.org/1999/xlink" viewBox="0,0,1024,1024">
	<!-- Color names: teamapps-color-1 -->
	<desc>tab_unselected icon - Licensed under Apache License v2.0 (http://www.apache.org/licenses/LICENSE-2.0) - Created with Iconfu.com - Derivative work of Material icons (Copyright Google Inc.)</desc>
	<g fill="none" fill-rule="nonzero" style="mix-blend-mode: normal">
		<g color="#039be5" class="teamapps-color-1">
			<path d="M986.75,251.26v148.99c0,13.85 -4.34,26.7 -11.72,37.25c7.38,10.55 11.72,23.4 11.72,37.25v74.5c0,13.85 -4.34,26.7 -11.72,37.25c7.38,10.55 11.72,23.4 11.72,37.25v74.49c0,13.85 -4.34,26.7 -11.72,37.25c7.38,10.55 11.72,23.4 11.72,37.25c0,76.88 -62.64,139.52 -139.52,139.52c-13.85,0 -26.7,-4.34 -37.25,-11.72c-10.55,7.38 -23.4,11.72 -37.25,11.72h-74.5c-13.85,0 -26.7,-4.34 -37.25,-11.72c-10.55,7.38 -23.4,11.72 -37.25,11.72h-74.49c-13.85,0 -26.7,-4.34 -37.25,-11.72c-10.55,7.38 -23.4,11.72 -37.25,11.72h-74.49c-13.85,0 -26.7,-4.34 -37.25,-11.72c-10.55,7.38 -23.4,11.72 -37.25,11.72h-74.5c-13.85,0 -26.7,-4.34 -37.25,-11.72c-10.55,7.38 -23.4,11.72 -37.25,11.72c-76.88,0 -139.52,-62.64 -139.52,-139.52c0,-13.85 4.34,-26.7 11.72,-37.25c-7.38,-10.55 -11.72,-23.4 -11.72,-37.25v-74.49c0,-13.85 4.34,-26.7 11.72,-37.25c-7.38,-10.55 -11.72,-23.4 -11.72,-37.25v-74.5c0,-13.85 4.34,-26.7 11.72,-37.25c-7.38,-10.55 -11.72,-23.4 -11.72,-37.25v-74.49c0,-13.85 4.34,-26.7 11.72,-37.25c-7.38,-10.55 -11.72,-23.4 -11.72,-37.25c0,-76.88 62.64,-139.52 139.52,-139.52c13.85,0 26.7,4.34 37.25,11.72c10.55,-7.38 23.4,-11.72 37.25,-11.72h74.5c13.85,0 26.7,4.34 37.25,11.72c10.55,-7.38 23.4,-11.72 37.25,-11.72h74.49c13.85,0 26.7,4.34 37.25,11.72c10.55,-7.38 23.4,-11.72 37.25,-11.72h297.98c76.88,0 139.52,62.64 139.52,139.52zM847.23,127.1h-297.98c-14.83,0 -28.15,6.5 -37.25,16.82c-9.1,-10.31 -22.42,-16.82 -37.25,-16.82h-74.49c-14.83,0 -28.15,6.5 -37.25,16.81c-9.1,-10.31 -22.41,-16.81 -37.25,-16.81h-74.5c-14.83,0 -28.15,6.5 -37.25,16.81c-9.1,-10.31 -22.41,-16.81 -37.25,-16.81c-68.4,0 -124.16,55.76 -124.16,124.16c0,14.83 6.5,28.15 16.82,37.25c-10.31,9.1 -16.82,22.42 -16.82,37.25v74.49c0,14.83 6.5,28.15 16.81,37.25c-10.31,9.1 -16.81,22.41 -16.81,37.25v74.5c0,14.83 6.5,28.15 16.81,37.25c-10.31,9.1 -16.81,22.41 -16.81,37.25v74.49c0,14.83 6.5,28.15 16.82,37.25c-10.31,9.1 -16.82,22.42 -16.82,37.25c0,68.4 55.76,124.16 124.16,124.16c14.83,0 28.15,-6.5 37.25,-16.81c9.1,10.31 22.41,16.81 37.25,16.81h74.5c14.83,0 28.15,-6.5 37.25,-16.81c9.1,10.31 22.41,16.81 37.25,16.81h74.49c14.83,0 28.15,-6.5 37.25,-16.82c9.1,10.31 22.42,16.82 37.25,16.82h74.49c14.83,0 28.15,-6.5 37.25,-16.81c9.1,10.31 22.41,16.81 37.25,16.81h74.5c14.83,0 28.15,-6.5 37.25,-16.81c9.1,10.31 22.41,16.81 37.25,16.81c68.4,0 124.16,-55.76 124.16,-124.16c0,-14.83 -6.5,-28.15 -16.82,-37.25c10.31,-9.1 16.82,-22.42 16.82,-37.25v-74.49c0,-14.83 -6.5,-28.15 -16.81,-37.25c10.31,-9.1 16.81,-22.41 16.81,-37.25v-74.5c0,-14.83 -6.5,-28.15 -16.81,-37.25c10.31,-9.1 16.81,-22.41 16.81,-37.25v-148.99c0,-68.4 -55.76,-124.16 -124.16,-124.16zM921.73,251.26v148.99h-372.47v-223.49h297.98c40.97,0 74.49,33.52 74.49,74.49zM549.25,772.74h74.49v74.49h-74.49zM698.24,772.74h74.5v74.49h-74.5zM102.27,325.76h74.49v74.49h-74.49zM102.27,772.74h74.49v74.49c-40.97,0 -74.49,-33.52 -74.49,-74.49zM400.26,772.74h74.49v74.49h-74.49zM251.26,772.74h74.5v74.49h-74.5zM102.27,474.75h74.49v74.5h-74.49zM176.77,176.77v74.49h-74.49c0,-40.97 33.52,-74.49 74.49,-74.49zM400.26,176.77h74.49v74.49h-74.49zM251.26,176.77h74.5v74.49h-74.5zM847.23,772.74h74.49c0,40.97 -33.52,74.49 -74.49,74.49zM102.27,623.74h74.49v74.49h-74.49zM847.23,474.75h74.49v74.5h-74.49zM847.23,623.74h74.49v74.49h-74.49z" fill="currentColor"/>
		</g>
	</g>
</svg>