<svg version="1.1" xmlns="http://www.w3.org/2000/svg" xmlns:xlink="http://www.w3.org/1999/xlink" viewBox="0,0,1024,1024">
	<!-- Color names: teamapps-color-1 -->
	<desc>text_fields icon - Licensed under Apache License v2.0 (http://www.apache.org/licenses/LICENSE-2.0) - Created with Iconfu.com - Derivative work of Material icons (Copyright Google Inc.)</desc>
	<g fill="none" fill-rule="nonzero" style="mix-blend-mode: normal">
		<g color="#039be5" class="teamapps-color-1">
			<path d="M707.39,214.02v111.74c0,3.21 -0.23,6.37 -0.69,9.47h159.15c35.91,0 65.02,29.11 65.02,65.02v111.74c0,35.91 -29.11,65.02 -65.02,65.02h-46.72v195.71c0,35.91 -29.11,65.02 -65.02,65.02h-111.74c-35.91,0 -65.02,-29.11 -65.02,-65.02v-195.71h-46.72c-3.21,0 -6.37,-0.23 -9.47,-0.69v196.4c0,35.91 -29.11,65.02 -65.02,65.02h-111.74c-35.91,0 -65.02,-29.11 -65.02,-65.02v-381.95h-121.21c-35.91,0 -65.02,-29.11 -65.02,-65.02v-111.74c0,-35.91 29.11,-65.02 65.02,-65.02h484.22c35.91,0 65.02,29.11 65.02,65.02zM642.37,164.35h-484.22c-27.43,0 -49.66,22.24 -49.66,49.66v111.74c0,27.43 22.24,49.66 49.66,49.66h136.57v397.31c0,27.43 22.24,49.66 49.66,49.66h111.74c27.43,0 49.66,-22.24 49.66,-49.66v-217.72c7.3,4.22 15.78,6.64 24.83,6.64h62.08v211.07c0,27.43 22.24,49.66 49.66,49.66h111.74c27.43,0 49.66,-22.24 49.66,-49.66v-211.07h62.08c27.43,0 49.66,-22.24 49.66,-49.66v-111.74c0,-27.43 -22.24,-49.66 -49.66,-49.66h-180.47c4.22,-7.3 6.64,-15.78 6.64,-24.83v-111.74c0,-27.43 -22.24,-49.66 -49.66,-49.66zM642.37,214.02v111.74h-186.24v446.98h-111.74v-446.98h-186.24v-111.74zM865.85,512h-111.74v260.74h-111.74v-260.74h-111.74v-111.74h335.23z" fill="currentColor"/>
		</g>
	</g>
</svg>