<svg version="1.1" xmlns="http://www.w3.org/2000/svg" xmlns:xlink="http://www.w3.org/1999/xlink" viewBox="0,0,1024,1024">
	<!-- Color names: teamapps-color-1 -->
	<desc>timer_10 icon - Licensed under Apache License v2.0 (http://www.apache.org/licenses/LICENSE-2.0) - Created with Iconfu.com - Derivative work of Material icons (Copyright Google Inc.)</desc>
	<g fill="none" fill-rule="nonzero" style="mix-blend-mode: normal">
		<g color="#039be5" class="teamapps-color-1">
			<path d="M671.42,369.17c2.44,8.42 4.48,17.12 6.17,26.06c5.15,-5.66 10.76,-11.01 16.81,-16.02c18.07,-14.96 38.85,-25.48 59.94,-32.68c23.23,-7.93 48.02,-11.31 72.78,-11.31c25.54,0 51.32,3.29 75.79,11.82c21.46,7.49 42.26,17.95 60.82,33.42c17.88,14.9 32.58,33.12 42.9,55.03c10.14,21.55 15.13,44.43 15.13,68.29c0,20.04 -9.07,37.95 -23.29,49.86c3.73,5.31 7.09,10.9 10.07,16.75c11.52,21.92 15.14,44.91 16.12,64.62c0.05,1.08 0.08,2.16 0.08,3.23c0,23.83 -5,47.57 -16.9,69.99c-10.54,19.85 -25.29,37.92 -45.15,52.64c-18.45,13.68 -39.21,23.46 -61.25,30.12c-23.49,7.11 -47.95,9.86 -72.46,9.86c-28.09,0 -55.4,-3.75 -81.38,-13.34c-23.41,-8.64 -44.68,-20.58 -63.01,-36.54c-0.26,-0.23 -0.52,-0.46 -0.78,-0.69c-13.65,-12.33 -25.17,-26.27 -34.25,-41.71c-5.71,10.22 -12.25,19.9 -19.73,28.92c-18.82,22.69 -42.49,41.04 -71.86,52.22c-26.55,10.61 -54.61,14.86 -82.85,14.86c-29.21,0 -56.7,-5.05 -82.06,-14.56c-29.11,-10.92 -53.44,-29.02 -72.74,-52.18c-1.38,-1.63 -2.73,-3.27 -4.04,-4.94v2.56c0,35.91 -29.11,65.02 -65.02,65.02h-74.49c-35.91,0 -65.02,-29.11 -65.02,-65.02v-267.36l-26.16,8.72c-19.83,6.61 -41.63,3.29 -58.58,-8.94c-16.96,-12.22 -27,-31.85 -27,-52.75v-62.58c0,-27.38 17.15,-51.82 42.88,-61.14l176.93,-64.07c7.1,-2.57 14.59,-3.89 22.14,-3.89h9.31c35.91,0 65.02,29.11 65.02,65.02v1.79c1.11,-1.41 2.23,-2.81 3.38,-4.2c19.82,-23.89 44.44,-41.43 73.03,-52.15c26.07,-9.78 53.67,-14.2 82.06,-14.2c28.06,0 56.18,4.32 82.27,14.28c29.06,10.94 53.2,28.98 72.31,51.47c20.3,23.88 33.6,52.77 42.09,83.66zM617.63,295.46c-17.59,-20.7 -39.63,-37.11 -66.05,-47.06c-24.06,-9.19 -50.29,-13.28 -76.83,-13.28c-26.79,0 -52.52,4.17 -76.66,13.22c-26.06,9.77 -48.47,25.72 -66.6,47.57c-12.84,15.47 -22.82,33.12 -30.56,52.6v-60c0,-27.43 -22.24,-49.66 -49.66,-49.66h-9.31c-5.77,0 -11.49,1 -16.91,2.97l-176.93,64.07c-19.66,7.12 -32.75,25.79 -32.75,46.7v62.58c0,15.96 7.67,30.96 20.63,40.29c12.95,9.33 29.6,11.87 44.74,6.83l46.37,-15.46v288.67c0,27.43 22.24,49.66 49.66,49.66h74.49c27.43,0 49.66,-22.24 49.66,-49.66v-60.68c7.73,19.5 17.82,37.47 31.16,53.17c17.74,21.29 39.92,37.76 66.38,47.68c23.59,8.85 49.25,13.59 76.66,13.59c26.75,0 52.85,-4.04 77.27,-13.81c26.65,-10.12 48.25,-26.78 65.62,-47.72c13.53,-16.31 23.87,-35.17 31.61,-55.96c1.86,5.67 4.09,11.25 6.67,16.72c8.94,18.99 21.7,35.88 37.82,50.44c0.19,0.17 0.38,0.34 0.57,0.5c16.73,14.57 36.32,25.62 58.25,33.72c23.89,8.82 49.32,12.39 76.06,12.39c23.38,0 46.29,-2.64 68.01,-9.21c20.62,-6.24 39.73,-15.29 56.55,-27.76c17.9,-13.27 31.19,-29.54 40.73,-47.51c10.59,-19.94 15.11,-41.15 15.11,-62.78c0,-0.82 -0.02,-1.65 -0.06,-2.47c-0.92,-18.56 -4.3,-39.11 -14.42,-58.33c-5.14,-10.14 -11.62,-19.41 -19.24,-27.73c18.05,-7.44 30.75,-25.2 30.75,-45.94c0,-21.65 -4.51,-42.29 -13.67,-61.75c-9.29,-19.73 -22.54,-36.19 -38.84,-49.78c-16.82,-14.02 -35.87,-23.68 -56.05,-30.72c-22.47,-7.84 -46.48,-10.97 -70.73,-10.97c-23.4,0 -46.48,3.2 -67.82,10.48c-19.71,6.73 -38.75,16.44 -55.1,29.98c-15.54,12.86 -27.75,28.1 -36.71,45.37c-1.77,-22.59 -5.24,-43.77 -10.85,-63.08c-8.07,-29.39 -20.51,-56.13 -39.01,-77.89zM608.84,386.85c7.08,24.21 10.43,54 10.43,89.02v71.52c0,35.02 -3.73,64.82 -10.43,89.03c-6.7,24.58 -16.39,44.32 -29.05,59.59c-12.67,15.27 -27.56,26.45 -45.44,33.16c-17.5,7.08 -37.25,10.42 -59.22,10.42c-21.61,0 -41.35,-3.72 -59.22,-10.42c-17.88,-6.7 -33.15,-17.89 -45.82,-33.16c-13.03,-15.27 -22.72,-35.01 -29.8,-59.59c-7.08,-24.21 -10.43,-54.01 -10.43,-89.03v-71.52c0,-35.02 3.73,-64.81 10.43,-89.02c7.08,-24.58 16.75,-43.96 29.42,-59.22c12.67,-15.27 27.94,-26.08 45.82,-32.78c17.88,-6.7 37.62,-10.06 59.22,-10.06c21.61,0 41.72,3.35 59.22,10.06c17.88,6.7 33.15,17.88 45.82,32.78c12.67,14.9 22.35,34.64 29.05,59.22zM959.72,638.27c0,14.53 -2.98,27.57 -9.31,39.49c-6.33,11.92 -14.9,22.35 -26.45,30.91c-11.55,8.56 -25.33,15.27 -41.35,20.11c-16.02,4.85 -33.9,7.08 -53.64,7.08c-22.35,0 -41.71,-2.99 -58.85,-9.31c-17.14,-6.33 -31.29,-14.53 -42.84,-24.58c-11.55,-10.43 -20.11,-21.97 -26.07,-34.64c-5.96,-12.67 -8.94,-25.7 -8.94,-39.11h70.4c0.38,9.68 2.61,18.25 6.7,24.96c4.09,6.7 8.94,12.29 15.27,16.39c5.96,4.09 13.03,7.08 20.86,8.94c7.82,2.23 15.64,2.98 23.84,2.98c19,0 33.52,-3.35 43.58,-10.8c10.06,-7.45 14.9,-16.76 14.9,-28.68c0,-5.21 -0.75,-10.06 -2.61,-14.53c-1.86,-4.47 -5.21,-8.94 -10.06,-12.67c-5.21,-3.73 -12.29,-7.45 -21.23,-10.8c-8.94,-3.35 -20.86,-6.71 -35.38,-9.69c-17.14,-3.73 -33.16,-8.2 -47.31,-13.41c-14.15,-5.59 -26.44,-11.92 -36.5,-19.74c-10.43,-7.82 -18.25,-16.76 -23.84,-27.19c-5.59,-10.06 -8.56,-22.35 -8.56,-35.76c0,-13.41 2.6,-25.7 8.56,-37.62c5.96,-11.92 14.16,-22.35 24.96,-31.29c10.8,-8.94 24.21,-16.02 39.48,-21.23c15.27,-5.21 32.78,-7.82 51.78,-7.82c20.11,0 38.36,2.61 54.38,8.2c16.02,5.59 29.43,12.66 40.6,21.97c11.17,9.31 19.74,20.11 25.7,32.78c5.96,12.67 8.94,26.07 8.94,40.59h-72.63c0,-6.33 -1.49,-12.28 -3.73,-18.25c-2.61,-5.96 -5.95,-11.17 -10.8,-15.64c-4.85,-4.47 -10.8,-8.2 -17.88,-10.81c-7.08,-2.61 -15.27,-4.09 -24.58,-4.09c-8.94,0 -17.14,1.12 -23.84,3.35c-6.7,2.23 -12.29,5.21 -16.76,8.94c-4.47,3.35 -7.82,7.82 -10.06,12.67c-2.23,4.85 -3.35,10.06 -3.35,15.27c0,5.59 1.13,10.43 2.99,14.53c1.86,4.09 5.21,7.82 10.42,11.17c5.21,3.35 11.93,6.34 20.49,9.31c8.56,2.98 19.37,5.95 32.41,8.56c18.62,4.09 35.38,8.94 50.28,14.15c14.9,5.21 27.19,11.93 37.62,19.75c10.43,7.82 18.25,17.13 23.47,27.56c5.59,10.43 8.2,23.09 8.94,37.99zM241.95,288.51h9.31v446.98h-74.49v-357.58l-111.74,37.25v-62.58zM545.9,557.44v-93.49c0,-22.35 -1.87,-41.35 -4.85,-56.61c-2.98,-15.27 -7.82,-27.56 -13.78,-36.88c-5.96,-9.68 -13.41,-16.39 -22.35,-20.49c-8.56,-4.09 -18.62,-6.33 -30.17,-6.33c-11.17,0 -21.23,2.23 -30.17,6.33c-8.94,4.47 -16.39,11.17 -22.35,20.49c-6.33,9.68 -10.8,21.97 -14.15,37.24c-3.35,15.27 -4.85,34.27 -4.85,56.62v93.11c0,22.35 1.49,41.35 4.85,56.99c3.35,15.64 8.19,28.31 14.15,37.99c5.96,9.68 13.41,16.76 22.35,21.23c8.94,4.47 19.37,6.7 30.55,6.7c11.55,0 21.98,-2.23 30.55,-6.7c8.56,-4.47 16.01,-11.55 21.97,-21.23c5.96,-9.68 10.43,-22.35 13.41,-37.99c2.98,-15.64 4.47,-34.64 4.47,-56.99z" fill="currentColor"/>
		</g>
	</g>
</svg>