<svg version="1.1" xmlns="http://www.w3.org/2000/svg" xmlns:xlink="http://www.w3.org/1999/xlink" viewBox="0,0,1024,1024">
	<!-- Color names: teamapps-color-1 -->
	<desc>timeline icon - Licensed under Apache License v2.0 (http://www.apache.org/licenses/LICENSE-2.0) - Created with Iconfu.com - Derivative work of Material icons (Copyright Google Inc.)</desc>
	<g fill="none" fill-rule="nonzero" style="mix-blend-mode: normal">
		<g color="#039be5" class="teamapps-color-1">
			<path d="M986.75,363.01c0,75.07 -59.73,136.59 -134.15,139.42l-89.43,89.19c-2.71,74.51 -64.25,134.4 -139.42,134.4c-75.2,0 -136.75,-59.92 -139.43,-134.47l-46.79,-46.79l-121.35,121.62c-2.85,74.4 -64.34,134.13 -139.41,134.13c-76.88,0 -139.52,-62.64 -139.52,-139.52c0,-75.07 59.72,-136.58 134.14,-139.42l126.69,-126.41c2.69,-74.55 64.27,-134.43 139.43,-134.43c75.19,0 136.76,59.92 139.43,134.48l46.77,46.77l84.11,-84.36c2.84,-74.4 64.33,-134.14 139.41,-134.14c76.88,0 139.52,62.64 139.52,139.52zM847.23,238.85c-68.4,0 -124.16,55.76 -124.16,124.16c0,0.36 0,0.71 0,1.07l-97.98,98.27l-2.76,0l-60.68,-60.68c0,-0.47 0.01,-0.94 0.01,-1.4c0,-68.4 -55.76,-124.16 -124.16,-124.16c-68.39,0 -124.17,55.75 -124.17,124.16c0,0.45 0,0.91 0.01,1.37l-135.51,135.21c-0.36,0 -0.71,0 -1.07,0c-68.41,0 -124.16,55.78 -124.16,124.17c0,68.4 55.76,124.16 124.16,124.16c68.4,0 124.16,-55.76 124.16,-124.16c0,-0.35 0,-0.71 0,-1.06l135.23,-135.53l2.74,0l60.7,60.7c0,0.47 -0.01,0.93 -0.01,1.39c0,68.39 55.75,124.17 124.16,124.17c68.41,0 124.16,-55.78 124.16,-124.17c0,-0.44 0,-0.89 -0.01,-1.34l98.26,-97.99c0.36,0 0.72,0 1.08,0c68.41,0 124.16,-55.78 124.16,-124.17c0,-68.4 -55.76,-124.16 -124.16,-124.16zM921.73,363.01c0,40.97 -33.52,74.5 -74.49,74.5c-6.7,0 -13.03,-0.75 -19,-2.61l-132.6,132.23c1.86,5.96 2.6,12.66 2.6,19.36c0,40.97 -33.52,74.5 -74.49,74.5c-40.97,0 -74.49,-33.53 -74.49,-74.5c0,-6.7 0.74,-13.4 2.6,-19.36l-94.98,-94.98c-5.96,1.86 -12.66,2.6 -19.36,2.6c-6.7,0 -13.41,-0.74 -19.37,-2.6l-169.48,169.85c1.86,5.96 2.6,12.29 2.6,19c0,40.97 -33.52,74.49 -74.49,74.49c-40.97,0 -74.49,-33.52 -74.49,-74.49c0,-40.97 33.52,-74.5 74.49,-74.5c6.7,0 13.03,0.75 19,2.61l169.85,-169.48c-1.86,-5.96 -2.61,-12.67 -2.61,-19.37c0,-40.97 33.53,-74.49 74.5,-74.49c40.97,0 74.49,33.52 74.49,74.49c0,6.7 -0.75,13.41 -2.61,19.37l94.98,94.98c5.96,-1.86 12.67,-2.61 19.37,-2.61c6.7,0 13.41,0.75 19.37,2.61l132.22,-132.61c-1.86,-5.96 -2.6,-12.29 -2.6,-19c0,-40.97 33.52,-74.49 74.49,-74.49c40.97,0 74.49,33.52 74.49,74.49z" fill="currentColor"/>
		</g>
	</g>
</svg>