<svg version="1.1" xmlns="http://www.w3.org/2000/svg" xmlns:xlink="http://www.w3.org/1999/xlink" viewBox="0,0,1024,1024">
	<!-- Color names: teamapps-color-1 -->
	<desc>toll icon - Licensed under Apache License v2.0 (http://www.apache.org/licenses/LICENSE-2.0) - Created with Iconfu.com - Derivative work of Material icons (Copyright Google Inc.)</desc>
	<g fill="none" fill-rule="nonzero" style="mix-blend-mode: normal">
		<g color="#039be5" class="teamapps-color-1">
			<path d="M986.75,512c0,200.55 -162.45,363.01 -363.01,363.01c-88.68,0 -169.93,-31.78 -232.96,-84.55v9.85c0,20.11 -9.3,39.09 -25.2,51.4c-15.9,12.32 -36.6,16.58 -56.07,11.56c-156.38,-40.34 -272.27,-181.81 -272.27,-351.26c0,-169.45 115.89,-310.92 272.27,-351.26c19.47,-5.02 40.17,-0.75 56.07,11.56c15.9,12.32 25.2,31.29 25.2,51.4v9.85c63.03,-52.77 144.28,-84.55 232.96,-84.55c200.55,0 363.01,162.45 363.01,363.01zM623.74,164.35c-97.3,0 -185.23,39.92 -248.32,104.29v-44.95c0,-15.36 -7.11,-29.85 -19.25,-39.26c-12.14,-9.41 -27.95,-12.67 -42.82,-8.83c-149.8,38.64 -260.75,174.15 -260.75,336.39c0,162.24 110.94,297.75 260.75,336.39c14.87,3.84 30.68,0.58 42.82,-8.83c12.14,-9.41 19.25,-23.9 19.25,-39.26v-44.95c63.09,64.37 151.02,104.29 248.32,104.29c192.07,0 347.65,-155.58 347.65,-347.65c0,-192.07 -155.58,-347.65 -347.65,-347.65zM921.73,512c0,164.64 -133.34,297.98 -297.98,297.98c-164.64,0 -297.98,-133.34 -297.98,-297.98c0,-164.64 133.34,-297.98 297.98,-297.98c164.64,0 297.98,133.34 297.98,297.98zM847.23,512c0,-123.29 -100.19,-223.49 -223.49,-223.49c-123.29,0 -223.49,100.19 -223.49,223.49c0,123.29 100.19,223.49 223.49,223.49c123.29,0 223.49,-100.19 223.49,-223.49zM325.76,722.45v77.85c-128.51,-33.15 -223.49,-149.36 -223.49,-288.3c0,-138.94 94.98,-255.15 223.49,-288.3v77.85c-86.78,30.55 -148.99,113.24 -148.99,210.45c0,97.22 62.21,179.91 148.99,210.45z" fill="currentColor"/>
		</g>
	</g>
</svg>