<svg version="1.1" xmlns="http://www.w3.org/2000/svg" xmlns:xlink="http://www.w3.org/1999/xlink" viewBox="0,0,1024,1024">
	<!-- Color names: teamapps-color-1 -->
	<desc>train icon - Licensed under Apache License v2.0 (http://www.apache.org/licenses/LICENSE-2.0) - Created with Iconfu.com - Derivative work of Material icons (Copyright Google Inc.)</desc>
	<g fill="none" fill-rule="nonzero" style="mix-blend-mode: normal">
		<g color="#039be5" class="teamapps-color-1">
			<path d="M875.01,288.51v353.85c0,65.08 -31.91,122.74 -80.84,158.24c4.14,8.67 6.34,18.22 6.34,28.01v18.62c0,35.91 -29.11,65.02 -65.02,65.02h-74.49c-17.24,0 -33.78,-6.85 -45.98,-19.04l-55.46,-55.45h-86.56l-55.45,55.45c-12.19,12.19 -28.73,19.05 -45.98,19.05h-83.07c-35.91,0 -65.02,-29.11 -65.02,-65.02v-18.62c0,-9.79 2.21,-19.34 6.34,-28.01c-48.92,-35.49 -80.84,-93.15 -80.84,-158.24v-353.85c0,-206.13 240.12,-214.02 363.01,-214.02c140.4,0 363.01,8.59 363.01,214.02zM512,89.85c-129.18,0 -347.65,10.47 -347.65,198.66v353.85c0,65.12 34.67,122.21 86.54,153.82c-7.74,8.98 -12.04,20.48 -12.04,32.42v18.62c0,27.43 22.24,49.66 49.66,49.66h83.07c13.17,0 25.8,-5.23 35.12,-14.55l59.95,-59.95h99.28l59.96,59.95c9.31,9.31 21.94,14.54 35.12,14.54h74.49c27.43,0 49.66,-22.24 49.66,-49.66v-18.62c0,-11.94 -4.3,-23.44 -12.04,-32.42c51.86,-31.62 86.54,-88.7 86.54,-153.82v-353.85c0,-187.63 -201.37,-198.66 -347.65,-198.66zM809.98,288.51v353.85c0,71.89 -58.47,130.37 -130.37,130.37l55.87,55.87v18.62h-74.49l-74.5,-74.49h-140.42l-74.49,74.49h-83.07v-18.62l55.87,-55.87c-71.89,0 -130.37,-58.48 -130.37,-130.37v-353.85c0,-130.37 148.99,-148.99 297.98,-148.99c164.64,0 297.98,18.63 297.98,148.99zM735.49,437.51v-148.99h-186.24v148.99zM474.75,288.51h-186.24v148.99h186.24zM400.26,642.37c0,-30.91 -24.96,-55.87 -55.87,-55.87c-30.91,0 -55.87,24.96 -55.87,55.87c0,30.91 24.96,55.87 55.87,55.87c30.91,0 55.87,-24.96 55.87,-55.87zM735.49,642.37c0,-30.91 -24.96,-55.87 -55.87,-55.87c-30.91,0 -55.87,24.96 -55.87,55.87c0,30.91 24.96,55.87 55.87,55.87c30.91,0 55.87,-24.96 55.87,-55.87z" fill="currentColor"/>
		</g>
	</g>
</svg>