<svg version="1.1" xmlns="http://www.w3.org/2000/svg" xmlns:xlink="http://www.w3.org/1999/xlink" viewBox="0,0,1024,1024">
	<!-- Color names: teamapps-color-1 -->
	<desc>trending_up icon - Licensed under Apache License v2.0 (http://www.apache.org/licenses/LICENSE-2.0) - Created with Iconfu.com - Derivative work of Material icons (Copyright Google Inc.)</desc>
	<g fill="none" fill-rule="nonzero" style="mix-blend-mode: normal">
		<g color="#039be5" class="teamapps-color-1">
			<path d="M949.51,288.51v223.49c0,26.3 -15.84,50.01 -40.14,60.07c-24.3,10.06 -52.27,4.5 -70.86,-14.1l-39.36,-39.36l-188.68,188.39c-25.4,25.36 -66.54,25.34 -91.92,-0.04l-103.02,-103.02l-177.51,177.51c-25.39,25.39 -66.56,25.39 -91.96,0l-52.52,-52.52c-25.38,-25.38 -25.4,-66.53 -0.03,-91.93l276.01,-276.38c25.39,-25.42 66.58,-25.44 91.99,-0.03l103.02,103.02l89.81,-89.81l-39.32,-39.32c-18.6,-18.6 -24.16,-46.56 -14.09,-70.86c10.06,-24.3 33.77,-40.14 60.07,-40.14h223.49c35.91,0 65.02,29.11 65.02,65.02zM884.48,238.85h-223.49c-20.09,0 -38.2,12.1 -45.88,30.66c-7.69,18.56 -3.44,39.92 10.76,54.12l50.18,50.18l-111.53,111.53l-113.88,-113.88c-19.4,-19.4 -50.87,-19.39 -70.26,0.02l-276.01,276.38c-19.37,19.4 -19.36,50.83 0.02,70.21l52.52,52.52c19.4,19.39 50.84,19.39 70.24,0l188.37,-188.37l113.88,113.88c19.38,19.38 50.81,19.4 70.21,0.03l199.54,-199.23l50.21,50.21c14.2,14.2 35.57,18.45 54.12,10.77c18.56,-7.69 30.66,-25.8 30.66,-45.88v-223.49c0,-27.43 -22.24,-49.66 -49.66,-49.66zM884.48,288.51v223.49l-85.3,-85.3l-234.66,234.3l-148.99,-148.99l-223.49,223.49l-52.52,-52.52l276.01,-276.38l148.99,148.99l181.77,-181.77l-85.29,-85.3z" fill="currentColor"/>
		</g>
	</g>
</svg>