<svg version="1.1" xmlns="http://www.w3.org/2000/svg" xmlns:xlink="http://www.w3.org/1999/xlink" viewBox="0,0,1024,1024">
	<!-- Color names: teamapps-color-1 -->
	<desc>usb icon - Licensed under Apache License v2.0 (http://www.apache.org/licenses/LICENSE-2.0) - Created with Iconfu.com - Derivative work of Material icons (Copyright Google Inc.)</desc>
	<g fill="none" fill-rule="nonzero" style="mix-blend-mode: normal">
		<g color="#039be5" class="teamapps-color-1">
			<path d="M837.76,325.76v148.99c0,25.99 -15.24,48.4 -37.25,58.81v15.7c0,77.26 -62.26,139.52 -139.52,139.52h-46.72v16.15c27.2,26.35 44.7,63.34 44.7,105.06c0,81.55 -66.19,146.97 -146.97,146.97c-80.79,0 -146.97,-65.42 -146.97,-146.97c0,-41.72 17.5,-78.71 44.7,-105.06v-16.15h-46.72c-77.26,0 -139.52,-62.26 -139.52,-139.52v-44.7c-26.68,-25.75 -44.7,-62.07 -44.7,-104.29c0,-80.98 65.99,-146.97 146.97,-146.97c3.19,0 6.36,0.1 9.51,0.31c-0.52,-14.59 3.88,-29.23 12.96,-41.34l111.74,-148.99c12.28,-16.37 31.55,-26.01 52.02,-26.01c20.47,0 39.74,9.64 52.02,26.01l111.74,148.99c10.57,14.1 14.8,31.6 12.31,48.49h84.66c35.91,0 65.02,29.11 65.02,65.02zM772.74,276.1h-105.99c0.5,-0.86 0.97,-1.73 1.41,-2.63c8.41,-16.83 6.6,-36.96 -4.69,-52.01l-111.74,-148.99c-9.38,-12.51 -24.1,-19.86 -39.73,-19.86c-15.63,0 -30.35,7.36 -39.73,19.86l-111.74,148.99c-10.95,14.6 -12.99,33.98 -5.42,50.49c-9.44,-2.16 -19.26,-3.31 -29.34,-3.31c-72.5,0 -131.61,59.11 -131.61,131.61c0,40.06 18.15,74.23 44.7,97.56v51.43c0,68.77 55.38,124.16 124.16,124.16h62.08v38.23c-27.07,23.85 -44.7,58.73 -44.7,98.35c0,73.02 59.26,131.61 131.61,131.61c72.35,0 131.61,-58.6 131.61,-131.61c0,-39.62 -17.63,-74.5 -44.7,-98.35v-38.23h62.08c68.77,0 124.16,-55.38 124.16,-124.16v-26.4c21.42,-5.51 37.25,-24.96 37.25,-48.1v-148.99c0,-27.43 -22.24,-49.66 -49.66,-49.66zM772.74,325.76v148.99h-37.25v74.5c0,41.35 -33.15,74.49 -74.49,74.49h-111.74v113.6c26.44,13.78 44.7,40.97 44.7,72.63c0,45.44 -36.88,81.95 -81.95,81.95c-45.07,0 -81.95,-36.51 -81.95,-81.95c0,-31.66 18.25,-58.85 44.7,-72.63v-113.6h-111.74c-41.35,0 -74.49,-33.15 -74.49,-74.49v-77.1c-26.08,-13.78 -44.7,-40.23 -44.7,-71.89c0,-45.07 36.88,-81.95 81.95,-81.95c45.07,0 81.94,36.88 81.94,81.95c0,31.66 -18.62,58.11 -44.7,71.89v77.1h111.74v-297.99h-74.49l111.74,-148.99l111.74,148.99h-74.49v297.99h111.74v-74.5h-37.25v-148.99z" fill="currentColor"/>
		</g>
	</g>
</svg>