<svg version="1.1" xmlns="http://www.w3.org/2000/svg" xmlns:xlink="http://www.w3.org/1999/xlink" viewBox="0,0,1024,1024">
	<!-- Color names: teamapps-color-1 -->
	<desc>view_week icon - Licensed under Apache License v2.0 (http://www.apache.org/licenses/LICENSE-2.0) - Created with Iconfu.com - Derivative work of Material icons (Copyright Google Inc.)</desc>
	<g fill="none" fill-rule="nonzero" style="mix-blend-mode: normal">
		<g color="#039be5" class="teamapps-color-1">
			<path d="M288.51,837.76h-111.74c-56.4,0 -102.27,-45.87 -102.27,-102.27v-446.98c0,-56.4 45.87,-102.27 102.27,-102.27h111.74c29.36,0 55.85,12.44 74.5,32.27c18.64,-19.83 45.13,-32.27 74.5,-32.27h111.74c29.37,0 55.85,12.44 74.49,32.27c18.64,-19.82 45.12,-32.27 74.49,-32.27h111.74c56.4,0 102.27,45.87 102.27,102.27v446.98c0,56.4 -45.87,102.27 -102.27,102.27h-111.74c-29.37,0 -55.85,-12.44 -74.49,-32.27c-18.64,19.82 -45.12,32.27 -74.49,32.27h-111.74c-29.36,0 -55.85,-12.44 -74.5,-32.27c-18.64,19.83 -45.13,32.27 -74.5,32.27zM363.01,780.21c15.22,25.26 42.92,42.19 74.5,42.19h111.74c31.58,0 59.28,-16.94 74.49,-42.19c15.22,25.26 42.91,42.19 74.49,42.19h111.74c47.92,0 86.91,-39 86.91,-86.91v-446.98c0,-47.92 -39,-86.91 -86.91,-86.91h-111.74c-31.58,0 -59.28,16.94 -74.49,42.19c-15.22,-25.26 -42.91,-42.19 -74.49,-42.19h-111.74c-31.57,0 -59.27,16.93 -74.5,42.19c-15.22,-25.26 -42.92,-42.19 -74.5,-42.19h-111.74c-47.92,0 -86.91,39 -86.91,86.91v446.98c0,47.92 39,86.91 86.91,86.91h111.74c31.57,0 59.27,-16.93 74.5,-42.19zM847.23,288.51v446.98c0,20.49 -16.76,37.25 -37.25,37.25h-111.74c-20.49,0 -37.24,-16.76 -37.24,-37.25v-446.98c0,-20.49 16.75,-37.25 37.24,-37.25h111.74c20.49,0 37.25,16.76 37.25,37.25zM325.76,288.51v446.98c0,20.49 -16.76,37.25 -37.25,37.25h-111.74c-20.49,0 -37.25,-16.76 -37.25,-37.25v-446.98c0,-20.49 16.76,-37.25 37.25,-37.25h111.74c20.49,0 37.25,16.76 37.25,37.25zM586.49,288.51v446.98c0,20.49 -16.75,37.25 -37.24,37.25h-111.74c-20.49,0 -37.25,-16.76 -37.25,-37.25v-446.98c0,-20.49 16.76,-37.25 37.25,-37.25h111.74c20.49,0 37.24,16.76 37.24,37.25z" fill="currentColor"/>
		</g>
	</g>
</svg>