<svg version="1.1" xmlns="http://www.w3.org/2000/svg" xmlns:xlink="http://www.w3.org/1999/xlink" viewBox="0,0,1024,1024">
	<!-- Color names: teamapps-color-1 -->
	<desc>vpn_key icon - Licensed under Apache License v2.0 (http://www.apache.org/licenses/LICENSE-2.0) - Created with Iconfu.com - Derivative work of Material icons (Copyright Google Inc.)</desc>
	<g fill="none" fill-rule="nonzero" style="mix-blend-mode: normal">
		<g color="#039be5" class="teamapps-color-1">
			<path d="M986.75,437.51v148.99c0,35.91 -29.11,65.02 -65.02,65.02h-9.47v83.97c0,35.91 -29.11,65.02 -65.02,65.02h-148.99c-35.91,0 -65.02,-29.11 -65.02,-65.02v-83.97h-55.15c-49.01,88.74 -143.55,148.99 -252.3,148.99c-159.21,0 -288.51,-129.31 -288.51,-288.51c0,-159.21 129.31,-288.51 288.51,-288.51c108.75,0 203.29,60.26 252.3,148.99h343.66c35.91,0 65.02,29.11 65.02,65.02zM921.73,387.84h-352.89c-45.07,-88.37 -136.93,-148.99 -243.07,-148.99c-150.72,0 -273.15,122.43 -273.15,273.15c0,150.72 122.43,273.15 273.15,273.15c106.14,0 198,-60.63 243.07,-148.99h79.74v99.33c0,27.43 22.24,49.66 49.66,49.66h148.99c27.43,0 49.66,-22.24 49.66,-49.66v-99.33h24.83c27.43,0 49.66,-22.24 49.66,-49.66v-148.99c0,-27.43 -22.24,-49.66 -49.66,-49.66zM921.73,437.51v148.99h-74.49v148.99h-148.99v-148.99h-162.03c-30.55,86.78 -113.23,148.99 -210.45,148.99c-123.29,0 -223.49,-100.19 -223.49,-223.49c0,-123.29 100.19,-223.49 223.49,-223.49c97.22,0 179.9,62.21 210.45,148.99zM400.26,512c0,-40.97 -33.52,-74.49 -74.49,-74.49c-40.97,0 -74.5,33.52 -74.5,74.49c0,40.97 33.53,74.49 74.5,74.49c40.97,0 74.49,-33.52 74.49,-74.49z" fill="currentColor"/>
		</g>
	</g>
</svg>