<svg version="1.1" xmlns="http://www.w3.org/2000/svg" xmlns:xlink="http://www.w3.org/1999/xlink" viewBox="0,0,1024,1024">
	<!-- Color names: teamapps-color-1 -->
	<desc>wc icon - Licensed under Apache License v2.0 (http://www.apache.org/licenses/LICENSE-2.0) - Created with Iconfu.com - Derivative work of Material icons (Copyright Google Inc.)</desc>
	<g fill="none" fill-rule="nonzero" style="mix-blend-mode: normal">
		<g color="#039be5" class="teamapps-color-1">
			<path d="M558.72,884.48v-158.46h-46.72c-9.87,0 -19.45,-2.24 -28.1,-6.38v164.85c0,35.91 -29.11,65.02 -65.02,65.02h-148.99c-35.91,0 -65.02,-29.11 -65.02,-65.02v-214.98c-31.58,-4.45 -55.87,-31.58 -55.87,-64.38v-204.87c0,-52.27 28.94,-97.9 71.54,-121.78c-10.02,-19.28 -15.67,-41.21 -15.67,-64.45c0,-77.25 62.25,-139.53 139.52,-139.53c77.27,0 139.52,62.28 139.52,139.53c0,23.25 -5.65,45.17 -15.67,64.45c36.24,20.32 62.59,56.38 69.66,98.87l7,-21.02c6.34,-19.19 16.56,-36.23 29.61,-50.42c-21.43,-24.52 -34.39,-56.67 -34.39,-91.89c0,-77.25 62.25,-139.53 139.52,-139.53c77.27,0 139.52,62.28 139.52,139.53c0,35.27 -13,67.46 -34.48,91.99c12.92,14.09 23.08,30.94 29.51,49.76l94.77,284.68c6.6,19.83 3.27,41.62 -8.95,58.57c-12.22,16.95 -31.85,26.99 -52.74,26.99h-46.72v158.46c0,35.91 -29.11,65.02 -65.02,65.02h-111.74c-35.91,0 -65.02,-29.11 -65.02,-65.02zM623.74,934.15h111.74c27.43,0 49.66,-22.24 49.66,-49.66v-173.82h62.08c15.96,0 30.95,-7.67 40.28,-20.62c9.33,-12.95 11.88,-29.59 6.84,-44.73l-94.73,-284.57c-7.37,-21.59 -20.23,-40.23 -36.74,-54.48c25.13,-22.69 40.89,-55.56 40.89,-92.24c0,-68.77 -55.38,-124.17 -124.16,-124.17c-68.78,0 -124.16,55.4 -124.16,124.17c0,36.64 15.72,69.48 40.81,92.16c-16.62,14.29 -29.56,33.06 -36.8,54.99l-35.05,105.29v-66.21c0,-52.11 -32.37,-96.89 -78.03,-115.26c13.98,-20.09 22.16,-44.55 22.16,-70.98c0,-68.77 -55.38,-124.17 -124.16,-124.17c-68.78,0 -124.16,55.4 -124.16,124.17c0,26.43 8.18,50.89 22.16,70.98c-45.66,18.37 -78.03,63.14 -78.03,115.26v204.87c0,27.43 22.24,49.66 49.66,49.66h6.21v229.7c0,27.43 22.24,49.66 49.66,49.66h148.99c27.43,0 49.66,-22.24 49.66,-49.66v-199.45c0.95,1.72 2.01,3.39 3.18,5.01c9.33,12.95 24.32,20.62 40.28,20.62h62.08v173.82c0,27.43 22.24,49.66 49.66,49.66zM623.74,884.48v-223.49h-111.74l94.61,-284.21c10.06,-30.55 38.74,-51.03 70.77,-51.03h4.47c32.03,0 60.34,20.48 70.77,51.03l94.61,284.21h-111.74v223.49zM269.89,884.48v-279.36h-55.87v-204.87c0,-40.97 33.52,-74.49 74.49,-74.49h111.74c40.97,0 74.49,33.52 74.49,74.49v204.87h-55.87v279.36zM269.89,214.02c0,-41.35 33.15,-74.5 74.49,-74.5c41.35,0 74.49,33.16 74.49,74.5c0,41.35 -33.15,74.49 -74.49,74.49c-41.35,0 -74.49,-33.15 -74.49,-74.49zM605.12,214.02c0,-41.35 33.15,-74.5 74.49,-74.5c41.35,0 74.49,33.16 74.49,74.5c0,41.35 -33.15,74.49 -74.49,74.49c-41.35,0 -74.49,-33.15 -74.49,-74.49z" fill="currentColor"/>
		</g>
	</g>
</svg>