<svg version="1.1" xmlns="http://www.w3.org/2000/svg" xmlns:xlink="http://www.w3.org/1999/xlink" viewBox="0,0,1024,1024">
	<!-- Color names: teamapps-color-1 -->
	<desc>widgets icon - Licensed under Apache License v2.0 (http://www.apache.org/licenses/LICENSE-2.0) - Created with Iconfu.com - Derivative work of Material icons (Copyright Google Inc.)</desc>
	<g fill="none" fill-rule="nonzero" style="mix-blend-mode: normal">
		<g color="#039be5" class="teamapps-color-1">
			<path d="M942.38,384.4l-99.82,99.83h4.68c35.91,0 65.02,29.11 65.02,65.02v297.98c0,35.91 -29.11,65.02 -65.02,65.02h-297.98c-13.85,0 -26.7,-4.34 -37.25,-11.72c-10.55,7.38 -23.4,11.72 -37.25,11.72h-297.98c-35.91,0 -65.02,-29.11 -65.02,-65.02v-297.98c0,-13.85 4.34,-26.7 11.72,-37.25c-7.38,-10.55 -11.72,-23.4 -11.72,-37.25v-297.98c0,-35.91 29.11,-65.02 65.02,-65.02h297.98c35.91,0 65.02,29.11 65.02,65.02v4.87l99.87,-99.69c25.38,-25.34 66.49,-25.34 91.87,0l210.82,210.45c25.43,25.39 25.45,66.59 0.04,92zM931.49,303.27l-210.82,-210.45c-19.39,-19.35 -50.78,-19.35 -70.17,0l-126.08,125.85v-41.91c0,-27.43 -22.24,-49.66 -49.66,-49.66h-297.98c-27.43,0 -49.66,22.24 -49.66,49.66v297.98c0,14.83 6.5,28.15 16.82,37.25c-10.31,9.1 -16.82,22.42 -16.82,37.25v297.98c0,27.43 22.24,49.66 49.66,49.66h297.98c14.83,0 28.15,-6.5 37.25,-16.82c9.1,10.31 22.42,16.82 37.25,16.82h297.98c27.43,0 49.66,-22.24 49.66,-49.66v-297.98c0,-27.43 -22.24,-49.66 -49.66,-49.66h-41.76l126.04,-126.05c19.41,-19.41 19.39,-50.88 -0.03,-70.27zM896.4,338.42l-210.82,210.83h161.65v297.98h-297.98v-297.98h136.33l-210.83,-210.83v136.33h-297.98v-297.98h297.98v161.65l210.83,-210.45zM176.77,549.25h297.98v297.98h-297.98z" fill="currentColor"/>
		</g>
	</g>
</svg>