<svg version="1.1" xmlns="http://www.w3.org/2000/svg" xmlns:xlink="http://www.w3.org/1999/xlink" viewBox="0,0,1024,1024">
	<!-- Color names: teamapps-color-1 -->
	<desc>account_balance icon - Licensed under Apache License v2.0 (http://www.apache.org/licenses/LICENSE-2.0) - Created with Iconfu.com - Derivative work of Material icons (Copyright Google Inc.)</desc>
	<g fill="none" fill-rule="nonzero" style="mix-blend-mode: normal">
		<g color="#039be5" class="teamapps-color-1">
			<path d="M912.26,288.51v74.49c0,35.91 -29.11,65.02 -65.02,65.02h-10.16c0.45,3.1 0.69,6.26 0.69,9.48v260.73c0,3.22 -0.23,6.38 -0.69,9.48h10.16c35.91,0 65.02,29.11 65.02,65.02v111.74c0,35.91 -29.11,65.02 -65.02,65.02h-707.71c-35.91,0 -65.02,-29.11 -65.02,-65.02v-111.74c0,-35.91 29.11,-65.02 65.02,-65.02h10.17c-0.45,-3.1 -0.69,-6.26 -0.69,-9.48v-260.73c0,-3.22 0.23,-6.38 0.69,-9.48h-10.17c-35.91,0 -65.02,-29.11 -65.02,-65.02v-74.49c0,-24.14 13.38,-46.3 34.74,-57.54l353.86,-186.24c18.96,-9.98 41.61,-9.98 60.57,0l353.85,186.24c21.36,11.24 34.74,33.4 34.74,57.54zM870.36,244.56l-353.85,-186.24c-14.48,-7.62 -31.78,-7.62 -46.26,0l-353.86,186.24c-16.32,8.59 -26.53,25.51 -26.53,43.95v74.49c0,27.43 22.24,49.66 49.66,49.66h31.49c-4.23,7.31 -6.65,15.79 -6.65,24.84v260.73c0,9.05 2.42,17.53 6.65,24.84h-31.49c-27.43,0 -49.66,22.24 -49.66,49.66v111.74c0,27.43 22.24,49.66 49.66,49.66h707.71c27.43,0 49.66,-22.24 49.66,-49.66v-111.74c0,-27.43 -22.24,-49.66 -49.66,-49.66h-31.48c4.23,-7.31 6.65,-15.79 6.65,-24.84v-260.73c0,-9.05 -2.42,-17.53 -6.65,-24.84h31.48c27.43,0 49.66,-22.24 49.66,-49.66v-74.49c0,-18.44 -10.22,-35.36 -26.53,-43.95zM847.23,288.51v74.49h-707.71v-74.49l353.86,-186.24zM139.52,772.74h707.71v111.74h-707.71zM549.25,437.51v260.73h-111.74v-260.73zM772.74,437.51v260.73h-111.74v-260.73zM325.76,437.51v260.73h-111.74v-260.73z" fill="currentColor"/>
		</g>
	</g>
</svg>