<svg version="1.1" xmlns="http://www.w3.org/2000/svg" xmlns:xlink="http://www.w3.org/1999/xlink" viewBox="0,0,1024,1024">
	<!-- Color names: teamapps-color-1 -->
	<desc>add_shopping_cart icon - Licensed under Apache License v2.0 (http://www.apache.org/licenses/LICENSE-2.0) - Created with Iconfu.com - Derivative work of Material icons (Copyright Google Inc.)</desc>
	<g fill="none" fill-rule="nonzero" style="mix-blend-mode: normal">
		<g color="#039be5" class="teamapps-color-1">
			<path d="M772.74,558.72c35.91,0 65.02,29.11 65.02,65.02v74.49c0,17.13 -6.63,32.71 -17.43,44.31c11.1,20 17.43,43.01 17.43,67.44c0,76.88 -62.64,139.53 -139.53,139.53c-77.34,0 -139.14,-63.11 -139.14,-139.53c0,-16.34 2.83,-32.08 8.03,-46.72h-109.91c5.22,14.62 8.06,30.36 8.06,46.72c0,76.87 -62.63,139.53 -139.52,139.53c-77.33,0 -139.15,-63.1 -139.15,-139.53c0,-35.59 13.4,-68.26 35.48,-93c-22.25,-24.71 -35.85,-57.42 -35.85,-93.24c0,-23.98 6.12,-47.23 17.59,-67.51l34.01,-61.72l-102.2,-215.47h-33.37c-35.91,0 -65.02,-29.11 -65.02,-65.02v-74.5c0,-35.91 29.11,-65.02 65.02,-65.02h121.8c25.15,0 48.05,14.5 58.79,37.25l29.25,61.8c11.91,-14.95 30.27,-24.54 50.89,-24.54h46.72v-46.72c0,-35.91 29.11,-65.02 65.02,-65.02h74.5c35.91,0 65.02,29.11 65.02,65.02v46.72h46.72c29.75,0 54.83,19.97 62.56,47.24l7.51,-13.62c17.31,-31.4 56.78,-42.86 88.21,-25.61l65.19,35.76c31.52,17.29 43.03,56.88 25.69,88.38l-143.78,261.11c-3.17,5.76 -6.73,11.27 -10.64,16.47zM718.86,574.08c13.9,-10.44 25.57,-23.78 34.06,-39.24l143.78,-261.11c13.25,-24.05 4.46,-54.29 -19.62,-67.5l-65.19,-35.76c-24.01,-13.17 -54.15,-4.42 -67.38,19.56l-33.86,61.4v-37.42c0,-27.43 -22.24,-49.66 -49.66,-49.66h-62.08v-62.08c0,-27.43 -22.24,-49.66 -49.66,-49.66h-74.5c-27.43,0 -49.66,22.24 -49.66,49.66v62.08h-62.08c-26.79,0 -48.62,21.21 -49.63,47.75l-44.4,-93.8c-8.21,-17.37 -25.69,-28.45 -44.9,-28.45h-121.8c-27.43,0 -49.66,22.24 -49.66,49.66v74.5c0,27.43 22.24,49.66 49.66,49.66h43.08l109.73,231.35l-37.85,68.69c-10.18,17.96 -15.64,38.62 -15.64,60.02c0,37.06 16.37,70.41 42.25,93.19c-25.73,22.83 -41.88,56.18 -41.88,93.05c0,68.06 55.06,124.17 123.79,124.17c68.41,0 124.16,-55.78 124.16,-124.17c0,-22.59 -6.08,-43.8 -16.69,-62.08h157.84c-10.57,18.31 -16.61,39.54 -16.61,62.08c0,68.06 55.04,124.17 123.78,124.17c68.4,0 124.17,-55.77 124.17,-124.17c0,-26.14 -8.15,-50.43 -22.03,-70.47c13.28,-8.91 22.03,-24.07 22.03,-41.27v-74.49c0,-27.43 -22.24,-49.66 -49.66,-49.66zM341.41,623.74h431.33v74.49h-446.98c-40.97,0 -74.5,-33.52 -74.5,-74.49c0,-13.03 3.35,-25.33 9.31,-35.76l50.28,-91.25l-134.09,-282.71h-74.49v-74.5h121.8l35.01,74.5l35.39,74.49l83.43,176.18l4.85,10.06h261.48l102.8,-186.24l40.97,-74.49h0.38l64.81,35.76l-143.78,261.11c-12.67,23.09 -37.24,38.37 -65.18,38.37h-277.5l-33.52,60.71l-1.12,4.47c0,5.21 4.47,9.31 9.31,9.31zM474.75,288.51h-111.74v-74.49h111.74v-111.74h74.5v111.74h111.74v74.49h-111.74v111.74h-74.5zM400.26,809.98c0,40.97 -33.52,74.5 -74.49,74.5c-40.97,0 -74.13,-33.53 -74.13,-74.5c0,-40.97 33.16,-74.49 74.13,-74.49c40.97,0 74.49,33.52 74.49,74.49zM772.74,809.98c0,40.97 -33.53,74.5 -74.5,74.5c-40.97,0 -74.12,-33.53 -74.12,-74.5c0,-40.97 33.15,-74.49 74.12,-74.49c40.97,0 74.5,33.52 74.5,74.49z" fill="currentColor"/>
		</g>
	</g>
</svg>