<svg version="1.1" xmlns="http://www.w3.org/2000/svg" xmlns:xlink="http://www.w3.org/1999/xlink" viewBox="0,0,1024,1024">
	<!-- Color names: teamapps-color-1 -->
	<desc>airline_seat_legroom_normal icon - Licensed under Apache License v2.0 (http://www.apache.org/licenses/LICENSE-2.0) - Created with Iconfu.com - Derivative work of Material icons (Copyright Google Inc.)</desc>
	<g fill="none" fill-rule="nonzero" style="mix-blend-mode: normal">
		<g color="#039be5" class="teamapps-color-1">
			<path d="M949.51,791.36c0,66.82 -54.07,120.9 -120.9,120.9h-167.62c-35.91,0 -65.02,-29.11 -65.02,-65.02v-84.66c-3.1,0.45 -6.26,0.69 -9.48,0.69h-223.49c-138.72,0 -251.26,-112.54 -251.26,-251.26v-335.23c0,-35.91 29.11,-65.02 65.02,-65.02h74.49c6.45,0 12.71,0.94 18.63,2.71c5.92,-1.77 12.17,-2.71 18.63,-2.71h223.49c35.91,0 65.02,29.11 65.02,65.02v158.46h121.21c76.87,0 139.53,62.63 139.53,139.52v196.06c62.54,4.67 111.74,56.81 111.74,120.56zM828.61,685.82h-6.21v-211.07c0,-68.41 -55.78,-124.16 -124.17,-124.16h-136.57v-173.82c0,-27.43 -22.24,-49.66 -49.66,-49.66h-223.49c-6.59,0 -12.87,1.28 -18.63,3.61c-5.75,-2.33 -12.04,-3.61 -18.63,-3.61h-74.49c-27.43,0 -49.66,22.24 -49.66,49.66v335.23c0,130.23 105.67,235.9 235.9,235.9h223.49c9.05,0 17.53,-2.42 24.84,-6.65v105.98c0,27.43 22.24,49.66 49.66,49.66h167.62c58.34,0 105.54,-47.19 105.54,-105.54c0,-58.34 -47.19,-105.54 -105.54,-105.54zM884.48,791.36c0,30.91 -24.96,55.87 -55.87,55.87h-167.62v-260.74h-260.74c-61.46,0 -111.74,-50.28 -111.74,-111.74v-297.98h223.49v223.49h186.24c40.97,0 74.5,33.52 74.5,74.49v260.74h55.87c30.91,0 55.87,24.96 55.87,55.87zM363.01,623.74h223.49v74.49h-223.49c-102.8,0 -186.24,-83.43 -186.24,-186.24v-335.23h74.49v335.23c0,61.83 49.91,111.74 111.74,111.74z" fill="currentColor"/>
		</g>
	</g>
</svg>