<svg version="1.1" xmlns="http://www.w3.org/2000/svg" xmlns:xlink="http://www.w3.org/1999/xlink" viewBox="0,0,1024,1024">
	<!-- Color names: teamapps-color-1 -->
	<desc>airline_seat_recline_extra icon - Licensed under Apache License v2.0 (http://www.apache.org/licenses/LICENSE-2.0) - Created with Iconfu.com - Derivative work of Material icons (Copyright Google Inc.)</desc>
	<g fill="none" fill-rule="nonzero" style="mix-blend-mode: normal">
		<g color="#039be5" class="teamapps-color-1">
			<path d="M930.46,837.34l-55.87,55.87c-23.27,23.27 -60.26,25.49 -86.14,5.16l-62.46,-49.05c-1.1,34.95 -29.78,62.94 -64.99,62.94h-262.97c-123.54,0 -228.62,-89.63 -248.37,-211.35l-73.85,-362.16c-3.9,-19.13 1,-39 13.35,-54.12c12.35,-15.12 30.84,-23.89 50.36,-23.89h36.23c-14.51,-40.92 -9.86,-88.01 16.84,-126.57c0.06,-0.08 0.11,-0.16 0.17,-0.24c44.2,-63.15 131.22,-78.08 194.23,-34.46c0.2,0.14 0.4,0.28 0.59,0.42c58.3,41.46 75.73,119.59 41.92,181.34c5.36,3.11 10.69,6.66 15.9,10.72l61.29,47.46c34.57,27.1 83.35,41.28 122.42,33.85c19.03,-3.62 38.69,1.43 53.61,13.79c14.92,12.35 23.56,30.72 23.56,50.09v79.34c0,17.3 -6.81,33.22 -18.07,44.98c7.69,2.3 14.93,6.02 21.34,11.02l214.92,167.62c14.7,11.46 23.77,28.68 24.91,47.28c1.15,18.6 -5.74,36.8 -18.92,49.98zM934.05,788.31c-0.88,-14.21 -7.8,-27.36 -19.03,-36.11l-214.92,-167.62c-8.73,-6.81 -19.48,-10.5 -30.54,-10.5h-143.04l-4.33,-17.22c39.18,11.48 81.79,16.37 127.43,8.56c23.85,-4.08 41.29,-24.76 41.29,-48.95v-79.34c0,-14.8 -6.6,-28.82 -18,-38.26c-11.4,-9.43 -26.41,-13.3 -40.95,-10.53c-44.17,8.4 -97.35,-7.52 -134.76,-36.85l-61.24,-47.42c-9.21,-7.19 -18.91,-12.62 -28.5,-16.74l1.59,-2.22c39.02,-56.37 25.16,-133.21 -30.39,-172.72c-0.14,-0.1 -0.29,-0.2 -0.43,-0.3c-56.13,-38.86 -133.6,-25.5 -172.9,30.64c-0.04,0.06 -0.08,0.12 -0.12,0.18c-28.37,40.98 -28.79,92.78 -5.56,133.19h-60.13c-14.91,0 -29.03,6.7 -38.47,18.25c-9.43,11.55 -13.18,26.73 -10.2,41.34l73.91,362.46c18.42,114.44 117.16,198.75 233.26,198.75h262.97c27.43,0 49.66,-22.24 49.66,-49.66v-29.48l87.28,68.54c19.77,15.52 48.02,13.83 65.79,-3.94l55.87,-55.87c10.06,-10.06 15.33,-23.96 14.45,-38.17zM884.48,791.36l-55.87,55.87l-142.29,-111.74h-255.15c-53.64,0 -99.44,-37.99 -109.88,-90.89l-50.28,-220.5c-7.82,-45.44 22.72,-89.02 68.53,-97.22h0.75c12.29,-2.23 24.96,-1.12 36.88,2.23c10.06,2.98 19.74,7.45 28.3,14.15l61.09,47.31c46.56,36.5 113.97,58.11 174.69,46.56v79.34c-69.66,11.92 -132.98,-12.29 -191.82,-45.44l38.37,152.71h181.77zM660.99,847.23h-262.97c-92.01,0 -170.23,-67.05 -184.38,-157.93l-74.13,-363.53h74.5l73.38,352.36c8.2,54.38 55.12,94.62 110.25,94.62h263.35zM264.3,275.1c-33.52,-23.84 -41.72,-70.02 -18.25,-103.92c23.47,-33.52 70.02,-41.72 103.92,-18.25c33.52,23.84 41.72,70.02 18.25,103.92c-23.84,33.52 -70.02,41.72 -103.92,18.25z" fill="currentColor"/>
		</g>
	</g>
</svg>