<svg version="1.1" xmlns="http://www.w3.org/2000/svg" xmlns:xlink="http://www.w3.org/1999/xlink" viewBox="0,0,1024,1024">
	<!-- Color names: teamapps-color-1 -->
	<desc>art_track icon - Licensed under Apache License v2.0 (http://www.apache.org/licenses/LICENSE-2.0) - Created with Iconfu.com - Derivative work of Material icons (Copyright Google Inc.)</desc>
	<g fill="none" fill-rule="nonzero" style="mix-blend-mode: normal">
		<g color="#039be5" class="teamapps-color-1">
			<path d="M949.51,474.75v74.5c0,13.85 -4.34,26.7 -11.72,37.25c7.38,10.55 11.72,23.4 11.72,37.25v74.49c0,35.91 -29.11,65.02 -65.02,65.02h-297.99c-24.82,0 -46.38,-13.9 -57.34,-34.33c-24.53,21.39 -56.62,34.33 -91.65,34.33h-223.49c-76.87,0 -139.53,-62.63 -139.53,-139.52v-223.49c0,-76.89 62.65,-139.52 139.53,-139.52h223.49c35.05,0 67.13,13.03 91.64,34.44c10.95,-20.45 32.49,-34.44 57.34,-34.44h297.99c35.91,0 65.02,29.11 65.02,65.02v74.49c0,13.85 -4.34,26.7 -11.72,37.25c7.38,10.55 11.72,23.4 11.72,37.25zM917.34,437.5c10.31,-9.1 16.81,-22.41 16.81,-37.25v-74.49c0,-27.43 -22.24,-49.66 -49.66,-49.66h-297.99c-27.43,0 -49.66,22.36 -49.66,49.79c-22.68,-30.2 -58.78,-49.79 -99.32,-49.79h-223.49c-68.39,0 -124.17,55.75 -124.17,124.16v223.49c0,68.41 55.78,124.16 124.17,124.16h223.49c40.54,0 76.64,-19.47 99.32,-49.66c0,27.43 22.24,49.66 49.66,49.66h297.99c27.43,0 49.66,-22.24 49.66,-49.66v-74.49c0,-14.83 -6.5,-28.15 -16.81,-37.25c10.31,-9.1 16.81,-22.41 16.81,-37.25v-74.5c0,-14.83 -6.5,-28.15 -16.81,-37.25zM512,400.26v223.49c0,40.97 -33.52,74.49 -74.49,74.49h-223.49c-40.97,0 -74.5,-33.52 -74.5,-74.49v-223.49c0,-40.97 33.53,-74.49 74.5,-74.49h223.49c40.97,0 74.49,33.52 74.49,74.49zM456.13,623.74l-83.81,-111.74l-65.19,84.18l-46.56,-56.25l-65.19,83.81zM884.48,400.26h-297.99v-74.49h297.99zM884.48,549.25h-297.99v-74.5h297.99zM586.49,623.74h297.99v74.49h-297.99z" fill="currentColor"/>
		</g>
	</g>
</svg>