<svg version="1.1" xmlns="http://www.w3.org/2000/svg" xmlns:xlink="http://www.w3.org/1999/xlink" viewBox="0,0,1024,1024">
	<!-- Color names: teamapps-color-1 -->
	<desc>av_timer icon - Licensed under Apache License v2.0 (http://www.apache.org/licenses/LICENSE-2.0) - Created with Iconfu.com - Derivative work of Material icons (Copyright Google Inc.)</desc>
	<g fill="none" fill-rule="nonzero" style="mix-blend-mode: normal">
		<g color="#039be5" class="teamapps-color-1">
			<path d="M512,111.74c221.03,0 400.26,179.22 400.26,400.26c0,221.03 -179.22,400.26 -400.26,400.26c-221.45,0 -400.26,-179.27 -400.26,-400.26c0,-128.11 60.26,-241.34 153.31,-314.33c5.96,-6.02 13.16,-10.93 21.3,-14.3c24.3,-10.06 52.27,-4.5 70.86,14.1l52.51,52.51v-73.2c0,-35.91 29.11,-65.02 65.02,-65.02zM474.75,127.1c-27.43,0 -49.66,22.24 -49.66,49.66v110.29l-78.73,-78.73c-14.2,-14.2 -35.57,-18.45 -54.12,-10.77c-6.51,2.7 -12.22,6.68 -16.9,11.57c-89.98,70.21 -148.23,179.35 -148.23,302.87c0,212.51 171.94,384.9 384.9,384.9c212.55,0 384.9,-172.35 384.9,-384.9c0,-212.55 -172.35,-384.9 -384.9,-384.9zM512,176.77c185.12,0 335.23,150.11 335.23,335.23c0,185.12 -150.11,335.23 -335.23,335.23c-185.5,0 -335.23,-150.11 -335.23,-335.23c0,-109.88 52.9,-206.73 134.47,-267.81v-0.75l253.28,253.29l-52.52,52.52l-201.88,-201.89c-36.88,44.7 -58.86,102.06 -58.86,164.64c0,144.15 116.59,260.74 260.74,260.74c144.15,0 260.74,-116.59 260.74,-260.74c0,-131.48 -97.22,-239.5 -223.49,-257.75v71.52h-74.5v-148.99zM512,660.99c20.49,0 37.25,16.75 37.25,37.24c0,20.49 -16.76,37.25 -37.25,37.25c-20.49,0 -37.25,-16.76 -37.25,-37.25c0,-20.49 16.76,-37.24 37.25,-37.24zM698.24,549.25c-20.49,0 -37.24,-16.76 -37.24,-37.25c0,-20.49 16.75,-37.25 37.24,-37.25c20.49,0 37.25,16.76 37.25,37.25c0,20.49 -16.76,37.25 -37.25,37.25zM325.76,474.75c20.49,0 37.24,16.76 37.24,37.25c0,20.49 -16.75,37.25 -37.24,37.25c-20.49,0 -37.25,-16.76 -37.25,-37.25c0,-20.49 16.76,-37.25 37.25,-37.25z" fill="currentColor"/>
		</g>
	</g>
</svg>