<svg version="1.1" xmlns="http://www.w3.org/2000/svg" xmlns:xlink="http://www.w3.org/1999/xlink" viewBox="0,0,1024,1024">
	<!-- Color names: teamapps-color-1 -->
	<desc>brightness_2 icon - Licensed under Apache License v2.0 (http://www.apache.org/licenses/LICENSE-2.0) - Created with Iconfu.com - Derivative work of Material icons (Copyright Google Inc.)</desc>
	<g fill="none" fill-rule="nonzero" style="mix-blend-mode: normal">
		<g color="#039be5" class="teamapps-color-1">
			<path d="M875.01,512c0,241.52 -195.98,437.51 -437.5,437.51c-79.83,0 -154.69,-21.95 -218.8,-59.02c-20.09,-11.62 -32.47,-33.07 -32.47,-56.28c0,-23.21 12.37,-44.67 32.46,-56.29c92.18,-53.33 153.79,-152.32 153.79,-265.92c0,-113.59 -61.61,-212.58 -153.79,-265.92c-20.09,-11.62 -32.46,-33.08 -32.46,-56.29c0,-23.21 12.38,-44.66 32.47,-56.28c64.11,-37.07 138.97,-59.02 218.8,-59.02c241.52,0 437.5,195.99 437.5,437.51zM437.51,89.85c-76.98,0 -149.21,21.16 -211.11,56.96c-15.35,8.88 -24.8,25.26 -24.8,42.99c0,17.73 9.45,34.11 24.79,42.99c96.71,55.96 161.45,159.9 161.45,279.21c0,119.31 -64.74,223.25 -161.45,279.21c-15.35,8.88 -24.79,25.26 -24.79,42.99c0,17.73 9.45,34.11 24.8,42.99c61.9,35.8 134.13,56.96 211.11,56.96c233.04,0 422.14,-189.11 422.14,-422.15c0,-233.04 -189.1,-422.15 -422.14,-422.15zM809.98,512c0,205.61 -166.87,372.48 -372.47,372.48c-67.79,0 -131.49,-18.62 -186.25,-50.28c111.37,-64.44 186.25,-184.38 186.25,-322.2c0,-137.82 -74.88,-257.76 -186.25,-322.2c54.75,-31.66 118.46,-50.28 186.25,-50.28c205.61,0 372.47,166.87 372.47,372.48z" fill="currentColor"/>
		</g>
	</g>
</svg>