<svg version="1.1" xmlns="http://www.w3.org/2000/svg" xmlns:xlink="http://www.w3.org/1999/xlink" viewBox="0,0,1024,1024">
	<!-- Color names: teamapps-color-1 -->
	<desc>cake icon - Licensed under Apache License v2.0 (http://www.apache.org/licenses/LICENSE-2.0) - Created with Iconfu.com - Derivative work of Material icons (Copyright Google Inc.)</desc>
	<g fill="none" fill-rule="nonzero" style="mix-blend-mode: normal">
		<g color="#039be5" class="teamapps-color-1">
			<path d="M911.88,512.18v57.19c0,22.89 -5.61,44.52 -15.52,63.56c10.08,11.63 15.89,26.68 15.89,42.59v171.71c0,56.4 -45.87,102.27 -102.27,102.27h-595.96c-56.4,0 -102.27,-45.87 -102.27,-102.27v-171.71c0,-15.79 5.72,-30.73 15.66,-42.32c-10,-19.1 -15.66,-40.83 -15.66,-63.83v-57.36c0,-97.75 79.02,-176.77 176.77,-176.77h121.21v-9.47c0,-5.19 0.61,-10.25 1.77,-15.11c-24.11,-25.07 -39.01,-59.16 -39.01,-96.63c0,-25.28 6.6,-50.01 20.05,-71.81l63.12,-109.63c11.61,-20.16 33.09,-32.58 56.35,-32.58c23.26,0 44.75,12.42 56.35,32.58l63.12,109.63c13.45,21.8 20.05,46.53 20.05,71.81c0,37.46 -14.82,71.62 -38.98,96.75c1.14,4.82 1.74,9.85 1.74,15v9.47h121.21c97.59,0 176.87,78.91 176.39,176.94zM735.49,350.59h-136.57v-24.83c0,-6.88 -1.4,-13.43 -3.92,-19.38c25.32,-22.78 41.17,-55.81 41.17,-92.36c0,-22.66 -5.92,-44.64 -17.88,-63.94l-63.24,-109.84c-8.86,-15.4 -25.28,-24.88 -43.04,-24.88c-17.76,0 -34.18,9.49 -43.04,24.88l-63.24,109.84c-11.96,19.3 -17.88,41.27 -17.88,63.94c0,36.56 15.93,69.51 41.21,92.26c-2.55,5.98 -3.97,12.57 -3.97,19.48v24.83h-136.57c-89.26,0 -161.41,72.14 -161.41,161.41v57.36c0,24.53 7.23,47.39 19.67,66.57c-12.27,9.29 -19.67,23.89 -19.67,39.58v171.71c0,47.92 39,86.91 86.91,86.91h595.96c47.92,0 86.91,-39 86.91,-86.91v-171.71c0,-15.8 -7.5,-30.49 -19.92,-39.77c12.36,-19.14 19.54,-41.94 19.54,-66.38v-57.23c0.45,-89.48 -71.89,-161.55 -161.03,-161.55zM846.86,512v57.36c0,40.23 -32.77,73 -73,73c-19.37,0 -37.62,-7.45 -51.4,-21.23l-79.34,-79.34l-79.71,79.34c-27.56,27.56 -75.62,27.56 -103.18,0l-79.34,-79.34l-79.7,79.34c-13.41,13.78 -32.03,21.23 -51.4,21.23c-40.23,0 -73.01,-32.77 -73.01,-73v-57.36c0,-61.83 49.91,-111.74 111.74,-111.74h186.24v-74.49h74.5v74.49h186.24c61.83,0 111.74,49.91 111.37,111.74zM774.22,698.24c27.19,0 52.15,-8.56 73.01,-22.72v171.71c0,20.49 -16.76,37.25 -37.25,37.25h-595.96c-20.49,0 -37.25,-16.76 -37.25,-37.25v-171.71c20.86,14.15 45.82,22.72 73.01,22.72c34.27,0 66.67,-13.41 90.88,-37.62l40.6,-39.85l39.85,39.85c48.79,48.79 133.72,48.43 182.14,0l40.23,-39.85l39.86,39.85c24.21,24.21 56.61,37.62 90.88,37.62zM437.51,214.02c0,-14.15 3.72,-27.19 10.8,-38.37l63.69,-110.63l63.69,110.63c7.08,11.17 10.8,24.22 10.8,38.37c0,40.97 -33.15,74.49 -74.49,74.49c-40.97,0 -74.49,-33.52 -74.49,-74.49z" fill="currentColor"/>
		</g>
	</g>
</svg>