<svg version="1.1" xmlns="http://www.w3.org/2000/svg" xmlns:xlink="http://www.w3.org/1999/xlink" viewBox="0,0,1024,1024">
	<!-- Color names: teamapps-color-1 -->
	<desc>cloud_queue icon - Licensed under Apache License v2.0 (http://www.apache.org/licenses/LICENSE-2.0) - Created with Iconfu.com - Derivative work of Material icons (Copyright Google Inc.)</desc>
	<g fill="none" fill-rule="nonzero" style="mix-blend-mode: normal">
		<g color="#039be5" class="teamapps-color-1">
			<path d="M1024,623.74c0,138.72 -112.54,251.26 -251.26,251.26h-484.23c-159.21,0 -288.51,-129.31 -288.51,-288.51c0,-136.84 95.37,-251.61 223.56,-281c61.32,-94.06 167.57,-156.5 288.44,-156.5c151.22,0 279.4,97.31 325.67,232.97c107.08,28.41 186.33,125.24 186.33,241.78zM825.72,394.84c-41.85,-133.75 -166.35,-230.48 -313.72,-230.48c-117.68,0 -220.89,61.96 -278.93,154.79c-124.4,25.53 -217.71,135.66 -217.71,267.34c0,150.72 122.43,273.15 273.15,273.15h484.23c130.23,0 235.9,-105.67 235.9,-235.9c0,-112.21 -78.31,-205.03 -182.92,-228.91zM958.98,623.74c0,102.8 -83.43,186.24 -186.24,186.24h-484.23c-123.29,0 -223.49,-100.19 -223.49,-223.49c0,-115.1 87.16,-210.08 199.28,-222c46.56,-89.4 140.05,-150.48 247.7,-150.48c135.59,0 248.45,96.47 273.77,224.97c96.84,6.7 173.2,86.42 173.2,184.75zM884.48,623.74c0,-61.83 -49.91,-111.74 -111.74,-111.74h-55.87v-18.62c0,-113.24 -91.63,-204.87 -204.87,-204.87c-93.86,0 -172.46,62.95 -197.04,148.99h-26.44c-82.32,0 -148.99,66.67 -148.99,148.99c0,82.32 66.68,148.99 148.99,148.99h484.23c61.83,0 111.74,-49.91 111.74,-111.74z" fill="currentColor"/>
		</g>
	</g>
</svg>