<svg version="1.1" xmlns="http://www.w3.org/2000/svg" xmlns:xlink="http://www.w3.org/1999/xlink" viewBox="0,0,1024,1024">
	<!-- Color names: teamapps-color-1 -->
	<desc>content_cut icon - Licensed under Apache License v2.0 (http://www.apache.org/licenses/LICENSE-2.0) - Created with Iconfu.com - Derivative work of Material icons (Copyright Google Inc.)</desc>
	<g fill="none" fill-rule="nonzero" style="mix-blend-mode: normal">
		<g color="#039be5" class="teamapps-color-1">
			<path d="M949.51,809.98v37.25c0,35.91 -29.11,65.02 -65.02,65.02h-111.74c-17.25,0 -33.78,-6.85 -45.98,-19.05l-214.76,-214.76l-13.91,13.91c2.9,13.88 4.44,28.29 4.44,43.12c0,118.23 -95.79,214.02 -214.02,214.02c-118.23,0 -214.02,-95.79 -214.02,-214.02c0,-118.23 95.79,-214.02 214.02,-214.02c14.83,0 29.24,1.54 43.12,4.44l13.91,-13.91l-13.91,-13.91c-13.88,2.9 -28.29,4.44 -43.12,4.44c-118.23,0 -214.02,-95.79 -214.02,-214.02c0,-118.23 95.79,-214.02 214.02,-214.02c118.23,0 214.02,95.79 214.02,214.02c0,14.83 -1.54,29.24 -4.44,43.12l13.97,13.97l214.7,-214.82c12.19,-12.19 28.73,-19.05 45.98,-19.05h111.74c35.91,0 65.02,29.11 65.02,65.02v37.25c0,17.25 -6.85,33.79 -19.05,45.98l-252.07,251.94l252.07,252.07c12.19,12.19 19.05,28.73 19.05,45.98zM919.6,774.86l-262.93,-262.93l262.93,-262.79c9.31,-9.31 14.55,-21.95 14.55,-35.12v-37.25c0,-27.43 -22.24,-49.66 -49.66,-49.66h-111.74c-13.17,0 -25.8,5.23 -35.12,14.55l-225.55,225.68l-30.86,-30.86c3.88,-15.29 5.96,-31.33 5.96,-47.96c0,-109.74 -88.92,-198.66 -198.66,-198.66c-109.74,0 -198.66,88.92 -198.66,198.66c0,109.74 88.92,198.66 198.66,198.66c16.63,0 32.67,-2.08 47.96,-5.96l30.79,30.79l-30.79,30.79c-15.29,-3.88 -31.33,-5.96 -47.96,-5.96c-109.74,0 -198.66,88.92 -198.66,198.66c0,109.74 88.92,198.66 198.66,198.66c109.74,0 198.66,-88.92 198.66,-198.66c0,-16.63 -2.08,-32.67 -5.96,-47.96l30.79,-30.79l225.62,225.62c9.31,9.31 21.95,14.55 35.12,14.55h111.74c27.43,0 49.66,-22.24 49.66,-49.66v-37.25c0,-13.17 -5.23,-25.8 -14.55,-35.12zM884.48,809.98v37.25h-111.74l-260.74,-260.74l-87.9,87.91c8.56,18.62 13.41,39.11 13.41,61.08c0,82.32 -66.68,148.99 -148.99,148.99c-82.32,0 -148.99,-66.68 -148.99,-148.99c0,-82.32 66.68,-148.99 148.99,-148.99c21.97,0 42.46,4.85 61.08,13.41l87.91,-87.9l-87.91,-87.9c-18.62,8.56 -39.11,13.41 -61.08,13.41c-82.32,0 -148.99,-66.68 -148.99,-148.99c0,-82.32 66.68,-148.99 148.99,-148.99c82.32,0 148.99,66.68 148.99,148.99c0,21.97 -4.85,42.46 -13.41,61.08zM884.48,176.77v37.25l-260.74,260.73l-74.49,-74.49l223.49,-223.49zM363.01,288.51c0,-41.35 -33.52,-74.49 -74.49,-74.49c-40.97,0 -74.49,33.15 -74.49,74.49c0,41.35 33.52,74.49 74.49,74.49c40.97,0 74.49,-33.15 74.49,-74.49zM363.01,735.49c0,-41.35 -33.52,-74.49 -74.49,-74.49c-40.97,0 -74.49,33.15 -74.49,74.49c0,41.35 33.52,74.49 74.49,74.49c40.97,0 74.49,-33.15 74.49,-74.49zM530.62,512c0,-10.43 -8.19,-18.62 -18.62,-18.62c-10.43,0 -18.62,8.19 -18.62,18.62c0,10.43 8.19,18.62 18.62,18.62c10.43,0 18.62,-8.19 18.62,-18.62z" fill="currentColor"/>
		</g>
	</g>
</svg>