<svg version="1.1" xmlns="http://www.w3.org/2000/svg" xmlns:xlink="http://www.w3.org/1999/xlink" viewBox="0,0,1024,1024">
	<!-- Color names: teamapps-color-1 -->
	<desc>dashboard icon - Licensed under Apache License v2.0 (http://www.apache.org/licenses/LICENSE-2.0) - Created with Iconfu.com - Derivative work of Material icons (Copyright Google Inc.)</desc>
	<g fill="none" fill-rule="nonzero" style="mix-blend-mode: normal">
		<g color="#039be5" class="teamapps-color-1">
			<path d="M176.77,111.74h297.98c13.85,0 26.7,4.34 37.25,11.72c10.55,-7.38 23.4,-11.72 37.25,-11.72h297.98c35.91,0 65.02,29.11 65.02,65.02v223.49c0,13.85 -4.34,26.7 -11.72,37.25c7.38,10.55 11.72,23.4 11.72,37.25v372.48c0,35.91 -29.11,65.02 -65.02,65.02h-297.98c-13.85,0 -26.7,-4.34 -37.25,-11.72c-10.55,7.38 -23.4,11.72 -37.25,11.72h-297.98c-35.91,0 -65.02,-29.11 -65.02,-65.02v-223.49c0,-13.85 4.34,-26.7 11.72,-37.25c-7.38,-10.55 -11.72,-23.4 -11.72,-37.25v-372.48c0,-35.91 29.11,-65.02 65.02,-65.02zM127.1,176.77v372.48c0,14.83 6.5,28.15 16.81,37.25c-10.31,9.1 -16.81,22.41 -16.81,37.25v223.49c0,27.43 22.24,49.66 49.66,49.66h297.98c14.83,0 28.15,-6.5 37.25,-16.82c9.1,10.31 22.42,16.82 37.25,16.82h297.98c27.43,0 49.66,-22.24 49.66,-49.66v-372.48c0,-14.83 -6.5,-28.15 -16.81,-37.25c10.31,-9.1 16.81,-22.41 16.81,-37.25v-223.49c0,-27.43 -22.24,-49.66 -49.66,-49.66h-297.98c-14.83,0 -28.15,6.5 -37.25,16.82c-9.1,-10.31 -22.42,-16.82 -37.25,-16.82h-297.98c-27.43,0 -49.66,22.24 -49.66,49.66zM549.25,474.75h297.98v372.48h-297.98zM176.77,176.77h297.98v372.48h-297.98zM847.23,176.77v223.49h-297.98v-223.49zM176.77,623.74h297.98v223.49h-297.98z" fill="currentColor"/>
		</g>
	</g>
</svg>