<svg version="1.1" xmlns="http://www.w3.org/2000/svg" xmlns:xlink="http://www.w3.org/1999/xlink" viewBox="0,0,1024,1024">
	<!-- Color names: teamapps-color-1 -->
	<desc>devices_other icon - Licensed under Apache License v2.0 (http://www.apache.org/licenses/LICENSE-2.0) - Created with Iconfu.com - Derivative work of Material icons (Copyright Google Inc.)</desc>
	<g fill="none" fill-rule="nonzero" style="mix-blend-mode: normal">
		<g color="#039be5" class="teamapps-color-1">
			<path d="M325.76,875.01h-148.99c-76.88,0 -139.52,-62.64 -139.52,-139.52v-446.98c0,-76.88 62.64,-139.52 139.52,-139.52h670.46c35.91,0 65.02,29.11 65.02,65.02v74.49c0,4.53 -0.46,8.96 -1.35,13.24c42.51,12.25 75.84,52.88 75.84,98.51v372.48c0,54.53 -47.73,102.27 -102.27,102.27h-223.49c-23.31,0 -45.13,-8.71 -62.5,-22.56c-11.91,13.8 -29.55,22.56 -49.24,22.56h-148.99c-13.85,0 -26.7,-4.34 -37.25,-11.72c-10.55,7.38 -23.4,11.72 -37.25,11.72zM363.01,842.83c9.1,10.31 22.41,16.81 37.25,16.81h148.99c20.97,0 38.91,-13 46.19,-31.39c16.26,18.92 40.12,31.39 65.55,31.39h223.49c46.05,0 86.91,-40.86 86.91,-86.91v-372.48c0,-44.14 -37.55,-83.55 -81.25,-86.71c4.3,-7.35 6.76,-15.9 6.76,-25.03v-74.49c0,-27.43 -22.24,-49.66 -49.66,-49.66h-670.46c-68.4,0 -124.16,55.76 -124.16,124.16v446.98c0,68.4 55.76,124.16 124.16,124.16h148.99c14.83,0 28.15,-6.5 37.25,-16.81zM176.77,735.49h148.99v74.49h-148.99c-40.97,0 -74.49,-33.52 -74.49,-74.49v-446.98c0,-40.97 33.52,-74.49 74.49,-74.49h670.46v74.49h-670.46zM921.73,400.26v372.48c0,18.62 -18.62,37.24 -37.24,37.24h-223.49c-18.62,0 -37.25,-18.62 -37.25,-37.24v-372.48c0,-18.62 18.63,-37.25 37.25,-37.25h223.49c18.62,0 37.24,18.63 37.24,37.25zM549.25,578.3c22.72,20.49 37.24,49.91 37.24,82.69c0,32.78 -14.52,62.2 -37.24,82.69v66.3h-148.99v-66.3c-22.72,-20.49 -37.25,-49.54 -37.25,-82.69c0,-33.15 14.53,-62.2 37.25,-82.69v-66.3h148.99zM847.23,437.51h-148.99v297.98h148.99zM530.62,660.99c0,-30.91 -24.96,-55.87 -55.87,-55.87c-30.91,0 -55.87,24.96 -55.87,55.87c0,30.91 24.96,55.87 55.87,55.87c30.91,0 55.87,-24.96 55.87,-55.87z" fill="currentColor"/>
		</g>
	</g>
</svg>