<svg version="1.1" xmlns="http://www.w3.org/2000/svg" xmlns:xlink="http://www.w3.org/1999/xlink" viewBox="0,0,1024,1024">
	<!-- Color names: teamapps-color-1 -->
	<desc>directions_walk icon - Licensed under Apache License v2.0 (http://www.apache.org/licenses/LICENSE-2.0) - Created with Iconfu.com - Derivative work of Material icons (Copyright Google Inc.)</desc>
	<g fill="none" fill-rule="nonzero" style="mix-blend-mode: normal">
		<g color="#039be5" class="teamapps-color-1">
			<path d="M288.51,614.27c-35.91,0 -65.02,-29.11 -65.02,-65.02v-175.07c0,-26.12 15.63,-49.71 39.69,-59.89l172.9,-73.14c-5,-14.35 -7.72,-29.76 -7.72,-45.76c0,-76.88 62.64,-139.52 139.52,-139.52c76.88,0 139.52,62.64 139.52,139.52c0,49.01 -25.45,92.18 -63.72,117.06l25.36,40.64c18.07,31.62 55.97,56.63 103.71,56.63c35.91,0 65.02,29.11 65.02,65.02v74.5c0,35.91 -29.11,65.02 -65.02,65.02c-35.01,0 -68.89,-5.47 -100.72,-15.47c10.74,11.9 16.75,27.41 16.75,43.56v279.36c0,35.91 -29.11,65.02 -65.02,65.02h-74.49c-35.91,0 -65.02,-29.11 -65.02,-65.02v-60.42l-16.81,74.69c-6.68,29.67 -33.03,50.75 -63.44,50.75h-78.22c-19.47,0 -37.91,-8.72 -50.26,-23.76c-12.35,-15.04 -17.31,-34.83 -13.52,-53.92l58.54,-294.79zM339.23,598.91l-62.18,313.14c-2.9,14.58 0.89,29.69 10.33,41.19c9.43,11.49 23.52,18.15 38.39,18.15h78.22c23.23,0 43.35,-16.1 48.45,-38.76l47.15,-209.56v198.65c0,27.43 22.24,49.66 49.66,49.66h74.49c27.43,0 49.66,-22.24 49.66,-49.66v-279.36c0,-13.59 -5.57,-26.59 -15.41,-35.96l-58.41,-55.62l0.45,-2.24c49.69,31.55 109.26,50.37 172.7,50.37c27.43,0 49.66,-22.24 49.66,-49.66v-74.5c0,-27.43 -22.24,-49.66 -49.66,-49.66c-53.18,0 -96.21,-27.9 -117.05,-64.37c-0.32,-0.57 -0.66,-1.13 -1.01,-1.69l-32.52,-52.01c41.31,-20.2 69.86,-62.69 69.86,-111.63c0,-68.4 -55.76,-124.16 -124.16,-124.16c-68.4,0 -124.16,55.76 -124.16,124.16c0,19.32 4.45,37.64 12.38,53.97l-186.93,79.08c-18.37,7.77 -30.31,25.79 -30.31,45.74v175.07c0,27.43 22.24,49.66 49.66,49.66zM430.05,396.53l-67.05,26.08v126.65h-74.49v-175.07l193.69,-81.94c11.17,0 18.62,-3.73 29.8,-3.73c26.08,0 48.42,14.9 63.32,37.25l37.25,59.59c29.8,52.14 89.4,89.4 160.17,89.4v74.5c-81.95,0 -156.44,-37.25 -204.87,-93.12l-22.35,111.74l78.22,74.49v279.36h-74.49v-223.49l-78.22,-74.49l-67.05,297.98h-78.22zM493.38,195.39c0,-40.97 33.52,-74.49 74.49,-74.49c40.97,0 74.49,33.52 74.49,74.49c0,40.97 -33.52,74.5 -74.49,74.5c-40.97,0 -74.49,-33.53 -74.49,-74.5z" fill="currentColor"/>
		</g>
	</g>
</svg>