<svg version="1.1" xmlns="http://www.w3.org/2000/svg" xmlns:xlink="http://www.w3.org/1999/xlink" viewBox="0,0,1024,1024">
	<!-- Color names: teamapps-color-1 -->
	<desc>eject icon - Licensed under Apache License v2.0 (http://www.apache.org/licenses/LICENSE-2.0) - Created with Iconfu.com - Derivative work of Material icons (Copyright Google Inc.)</desc>
	<g fill="none" fill-rule="nonzero" style="mix-blend-mode: normal">
		<g color="#039be5" class="teamapps-color-1">
			<path d="M209.46,587.66l248.45,-372.48c12.06,-18.08 32.36,-28.94 54.09,-28.94c21.74,0 42.03,10.86 54.09,28.94l248.45,372.48c12.88,19.31 14.46,43.97 4.29,64.71c11.68,11.74 18.93,27.96 18.93,45.86v74.5c0,35.91 -29.11,65.02 -65.02,65.02h-521.48c-35.91,0 -65.02,-29.11 -65.02,-65.02v-74.5c0,-17.91 7.25,-34.12 18.93,-45.86c-10.17,-20.74 -8.59,-45.4 4.29,-64.71zM225.56,655.73c-14.36,8.7 -23.96,24.48 -23.96,42.51v74.5c0,27.43 22.24,49.66 49.66,49.66h521.48c27.43,0 49.66,-22.24 49.66,-49.66v-74.5c0,-18.02 -9.6,-33.8 -23.96,-42.51c2.2,-2.61 4.15,-5.48 5.8,-8.56c8.64,-16.15 7.69,-35.75 -2.47,-50.99l-248.45,-372.48c-9.21,-13.81 -24.72,-22.11 -41.32,-22.11c-16.6,0 -32.1,8.29 -41.32,22.11l-248.45,372.48c-10.16,15.24 -11.12,34.84 -2.47,50.99c1.65,3.08 3.6,5.95 5.8,8.56zM760.45,623.74h-496.89l248.45,-372.48zM251.26,698.24h521.48v74.5h-521.48z" fill="currentColor"/>
		</g>
	</g>
</svg>