<svg version="1.1" xmlns="http://www.w3.org/2000/svg" xmlns:xlink="http://www.w3.org/1999/xlink" viewBox="0,0,1024,1024">
	<!-- Color names: teamapps-color-1 -->
	<desc>ev_station icon - Licensed under Apache License v2.0 (http://www.apache.org/licenses/LICENSE-2.0) - Created with Iconfu.com - Derivative work of Material icons (Copyright Google Inc.)</desc>
	<g fill="none" fill-rule="nonzero" style="mix-blend-mode: normal">
		<g color="#039be5" class="teamapps-color-1">
			<path d="M893.63,400.26v353.85c0,87.31 -70.83,158.15 -158.15,158.15c-35.07,0 -67.49,-11.44 -93.72,-30.77c-11.46,18.46 -31.92,30.77 -55.27,30.77h-372.47c-35.91,0 -65.02,-29.11 -65.02,-65.02v-595.97c0,-76.88 62.64,-139.52 139.52,-139.52h223.49c39.33,0 74.91,16.4 100.27,42.64l4.98,-4.98c25.39,-25.39 66.56,-25.39 91.96,0l138.56,138.56c2.59,2.59 4.93,5.37 7.01,8.29c24.19,27.79 38.85,64.39 38.85,103.99zM842.68,305.76c-1.69,-2.45 -3.62,-4.77 -5.77,-6.92l-138.56,-138.56c-19.39,-19.4 -50.84,-19.4 -70.24,0l-16.72,16.72c-22.68,-30.25 -58.81,-49.88 -99.4,-49.88h-223.49c-68.4,0 -124.16,55.76 -124.16,124.16v595.97c0,27.43 22.24,49.66 49.66,49.66h372.47c24.46,0 44.8,-17.69 48.91,-40.97c25.77,25.34 61.11,40.97 100.09,40.97c78.83,0 142.79,-63.96 142.79,-142.79v-353.85c0,-36.06 -13.45,-69.34 -35.6,-94.5zM828.61,400.26v353.85c0,51.4 -41.72,93.12 -93.12,93.12c-51.4,0 -93.12,-41.72 -93.12,-93.12v-186.24h-55.87v279.36h-372.47v-595.97c0,-40.97 33.52,-74.49 74.49,-74.49h223.49c40.97,0 74.49,33.52 74.49,74.49v260.74h37.25c40.97,0 74.49,33.52 74.49,74.49v167.62c0,20.49 16.76,37.25 37.25,37.25c20.49,0 37.25,-16.76 37.25,-37.25v-268.55c-11.55,4.85 -23.84,7.82 -37.25,7.82c-51.4,0 -93.12,-41.72 -93.12,-93.12c0,-39.85 24.96,-73.38 59.98,-86.78l-78.6,-78.6l39.49,-39.49l138.56,138.56l-0.38,0.38c16.76,16.76 27.19,40.23 27.19,65.93zM512,474.75h-74.49v-186.24l-148.99,279.36h74.49v167.62zM772.74,400.26c0,-20.49 -16.76,-37.25 -37.25,-37.25c-20.49,0 -37.25,16.76 -37.25,37.25c0,20.49 16.76,37.25 37.25,37.25c20.49,0 37.25,-16.76 37.25,-37.25z" fill="currentColor"/>
		</g>
	</g>
</svg>