<svg version="1.1" xmlns="http://www.w3.org/2000/svg" xmlns:xlink="http://www.w3.org/1999/xlink" viewBox="0,0,1024,1024">
	<!-- Color names: teamapps-color-1 -->
	<desc>exposure_neg_2 icon - Licensed under Apache License v2.0 (http://www.apache.org/licenses/LICENSE-2.0) - Created with Iconfu.com - Derivative work of Material icons (Copyright Google Inc.)</desc>
	<g fill="none" fill-rule="nonzero" style="mix-blend-mode: normal">
		<g color="#039be5" class="teamapps-color-1">
			<path d="M912.26,671.79v63.69c0,35.91 -29.11,65.02 -65.02,65.02h-321.45c-35.91,0 -65.02,-29.11 -65.02,-65.02v-55.5c0,-16.27 6.1,-31.94 17.09,-43.93l155.89,-170.09c11.68,-12.32 21.19,-23.79 28.54,-33.38c0.24,-0.31 0.48,-0.63 0.73,-0.93c6.51,-8.13 11.36,-15.69 15,-22.18c2.3,-4.11 3.61,-7.39 4.46,-10.2c0.83,-3.99 1.04,-6.46 1.04,-8.34c0,-2.89 -0.43,-5.89 -1.39,-9.21c-0.27,-0.69 -0.51,-1.2 -0.69,-1.58c-0.72,-0.09 -1.89,-0.18 -3.65,-0.18c-6.12,0 -9.05,0.99 -9.39,1.12c-1.1,0.49 -1.78,0.86 -2.19,1.13c-0.86,1.3 -1.61,2.79 -2.19,4.53c-1.01,3.57 -1.85,8.57 -2.07,15.61c-1.14,35.07 -29.9,62.91 -64.99,62.91h-79.71c-5.4,0 -10.65,-0.66 -15.67,-1.9c0.65,3.69 0.99,7.5 0.99,11.37v74.5c0,35.91 -29.11,65.02 -65.02,65.02h-297.99c-35.91,0 -65.02,-29.11 -65.02,-65.02v-74.5c0,-35.91 29.11,-65.02 65.02,-65.02h297.99c5.4,0 10.65,0.66 15.67,1.9c-0.72,-4.09 -1.06,-8.3 -0.98,-12.61c0.5,-26.4 5.03,-52.56 14.7,-77.84c10.29,-27.05 25.64,-50.7 45.74,-70.88c20.46,-20.93 45.58,-36.9 73.38,-47.71c28.66,-11.14 59.89,-16.35 92.47,-16.35c29.23,0 57.18,3.65 83.54,11.92c0.61,0.19 1.22,0.39 1.83,0.6c23.86,8.27 48.2,20.59 69.04,39.48c20.35,18.06 35.59,40.13 45.82,65.13c10.28,25.13 14.9,51.88 14.9,79c0,21.16 -3.25,43.04 -10.42,64.53c-6.43,19.28 -15.13,37.96 -25.78,56.03c-10.27,17.42 -22.26,34.69 -36.29,51.8c-12.23,14.91 -26.08,31.25 -41.91,47.54l-4.19,4.49h72.18c35.91,0 65.02,29.11 65.02,65.02zM847.23,622.13h-107.49l28.36,-30.44c15.44,-15.88 29.01,-31.88 41.16,-46.7c13.53,-16.5 25.06,-33.12 34.93,-49.86c10.16,-17.24 18.39,-34.93 24.44,-53.09c6.62,-19.85 9.63,-40.07 9.63,-59.67c0,-25.38 -4.32,-50.13 -13.76,-73.19c-9.4,-22.97 -23.33,-43.08 -41.86,-59.51c-18.92,-17.15 -41.29,-28.59 -63.82,-36.4c-0.46,-0.16 -0.93,-0.31 -1.4,-0.46c-24.62,-7.73 -50.98,-11.22 -78.94,-11.22c-30.96,0 -60.27,4.94 -86.91,15.3c-25.99,10.11 -49.22,24.94 -68.02,44.18c-18.61,18.67 -32.79,40.53 -42.33,65.59c-8.97,23.44 -13.22,47.82 -13.69,72.64c-0.53,27.79 21.86,50.61 49.66,50.61h79.71c26.8,0 48.77,-21.26 49.64,-48.05c0.27,-8.16 1.27,-14.52 2.73,-19.59c1.3,-4.07 3.19,-7.52 5.45,-10.46c1.16,-1.22 3.3,-2.94 7.42,-4.78c2.24,-1 7.32,-2.42 15.59,-2.42c6.31,0 9.34,1.02 10.35,1.46c1.58,0.69 3.22,1.84 4.68,3.49c0.74,0.83 2.22,2.86 3.86,7.2c1.45,4.8 2.21,9.46 2.21,14.18c0,3.3 -0.4,7.03 -1.5,12.12c-1.18,4.05 -2.96,8.56 -5.95,13.91c-4.01,7.16 -9.33,15.43 -16.41,24.28c-0.18,0.23 -0.36,0.45 -0.53,0.68c-7.63,9.96 -17.32,21.66 -29.4,34.41c-0.16,0.17 -0.32,0.34 -0.47,0.51l-155.42,169.58c-8.39,9.16 -13.05,21.13 -13.05,33.55v55.5c0,27.43 22.24,49.66 49.66,49.66h321.45c27.43,0 49.66,-22.24 49.66,-49.66v-63.69c0,-27.43 -22.24,-49.66 -49.66,-49.66zM437.51,425.09h-297.99c-27.43,0 -49.66,22.24 -49.66,49.66v74.5c0,27.43 22.24,49.66 49.66,49.66h297.99c27.43,0 49.66,-22.24 49.66,-49.66v-74.5c0,-27.43 -22.24,-49.66 -49.66,-49.66zM847.23,671.79v63.69h-321.45v-55.5l155.32,-169.48c13.41,-14.15 24.21,-27.19 32.77,-38.36c8.94,-11.17 15.65,-21.61 20.86,-30.92c5.21,-9.31 8.56,-17.87 10.8,-26.07c1.86,-8.2 2.98,-16.02 2.98,-24.22c0,-10.8 -1.86,-20.86 -4.84,-30.17c-3.35,-9.31 -7.82,-17.5 -13.78,-24.21c-5.96,-6.7 -13.41,-12.29 -21.97,-16.02c-8.56,-3.73 -18.62,-5.59 -30.17,-5.59c-13.41,0 -25.7,2.23 -35.76,6.7c-10.06,4.47 -18.63,10.43 -25.33,18.25c-6.33,7.82 -11.54,17.14 -14.89,27.94c-2.98,10.06 -4.47,20.86 -4.85,32.41h-79.71c0.38,-19.74 3.73,-38.37 10.43,-55.87c7.08,-18.62 17.5,-34.64 31.29,-48.43c13.41,-13.78 30.55,-24.95 50.66,-32.77c20.11,-7.82 43.2,-11.93 68.91,-11.93c23.84,0 45.07,2.98 64.07,8.94c18.25,6.33 34.27,14.9 46.93,26.45c12.67,11.17 22.35,24.96 29.05,41.35c6.7,16.39 10.06,34.64 10.06,54.38c0,14.53 -2.23,29.43 -7.08,43.96c-4.85,14.53 -11.55,29.05 -20.11,43.58c-8.56,14.53 -18.63,29.05 -30.55,43.58c-11.92,14.53 -24.58,29.42 -38.74,43.95l-106.53,114.35zM437.51,474.75v74.5h-297.99v-74.5z" fill="currentColor"/>
		</g>
	</g>
</svg>