<svg version="1.1" xmlns="http://www.w3.org/2000/svg" xmlns:xlink="http://www.w3.org/1999/xlink" viewBox="0,0,1024,1024">
	<!-- Color names: teamapps-color-1 -->
	<desc>format_color_fill icon - Licensed under Apache License v2.0 (http://www.apache.org/licenses/LICENSE-2.0) - Created with Iconfu.com - Derivative work of Material icons (Copyright Google Inc.)</desc>
	<g fill="none" fill-rule="nonzero" style="mix-blend-mode: normal">
		<g color="#039be5" class="teamapps-color-1">
			<path d="M352.04,727.83l-204.71,-204.71c-47.89,-47.34 -47.21,-124.03 -0.16,-171.08l145.85,-145.85l-42.67,-42.67c-25.39,-25.39 -25.39,-66.56 0,-91.96l52.52,-52.52c25.39,-25.39 66.56,-25.39 91.96,0l333,333c21.41,21.41 33.21,48.95 35.22,77.04c20.5,-3.07 42.23,3.65 57.5,20.23c0,0 91.7,99.5 91.7,174.43c0,51.82 -28.45,97.16 -70.53,121.21h117.25c35.91,0 65.02,29.11 65.02,65.02v148.99c0,35.91 -29.11,65.02 -65.02,65.02h-893.95c-35.91,0 -65.02,-29.11 -65.02,-65.02v-148.99c0,-35.91 29.11,-65.02 65.02,-65.02h308.6c-7.69,-4.79 -14.95,-10.5 -21.58,-17.13zM522.96,727.83c-6.63,6.63 -13.88,12.34 -21.58,17.13h202.36c-42.08,-24.06 -70.54,-69.38 -70.54,-121.21c0,-2.12 0.07,-4.24 0.2,-6.37zM664.11,564.96c-9.23,19.92 -15.54,40.29 -15.54,58.78c0,68.41 55.78,124.16 124.17,124.16c68.4,0 124.16,-55.76 124.16,-124.16c0,-68.94 -87.64,-164.02 -87.64,-164.02c-16.37,-17.76 -42.45,-20.74 -62.07,-8.95c3.9,-31.26 -6.28,-63.93 -30.21,-87.87l-333,-333c-19.39,-19.39 -50.84,-19.39 -70.24,0l-52.52,52.52c-19.4,19.39 -19.4,50.84 0,70.24l53.53,53.53l-156.71,156.71c-41.14,41.14 -41.64,108.07 0.12,149.32l204.74,204.74c20.44,20.44 47.74,30.93 74.6,30.93c26.87,0 54.16,-10.5 74.59,-30.93zM15.36,809.98v148.99c0,27.43 22.24,49.66 49.66,49.66h893.95c27.43,0 49.66,-22.24 49.66,-49.66v-148.99c0,-27.43 -22.24,-49.66 -49.66,-49.66h-893.95c-27.43,0 -49.66,22.24 -49.66,49.66zM681.85,476.98l-204.87,204.87c-10.8,10.8 -25.33,16.39 -39.48,16.39c-14.15,0 -28.69,-5.59 -39.49,-16.39l-204.87,-204.87c-21.97,-21.61 -21.97,-56.99 0,-78.96l191.83,-191.82l-88.65,-88.65l52.52,-52.52l333,333c21.97,21.97 21.97,57.36 0,78.96zM615.92,437.51l-178.42,-178.42l-178.42,178.42zM847.23,623.74c0,40.97 -33.52,74.49 -74.49,74.49c-40.97,0 -74.5,-33.52 -74.5,-74.49c0,-49.54 74.5,-130.37 74.5,-130.37c0,0 74.49,80.82 74.49,130.37zM65.02,809.98h893.95v148.99h-893.95z" fill="currentColor"/>
		</g>
	</g>
</svg>