<svg version="1.1" xmlns="http://www.w3.org/2000/svg" xmlns:xlink="http://www.w3.org/1999/xlink" viewBox="0,0,1024,1024">
	<!-- Color names: teamapps-color-1 -->
	<desc>forward_10 icon - Licensed under Apache License v2.0 (http://www.apache.org/licenses/LICENSE-2.0) - Created with Iconfu.com - Derivative work of Material icons (Copyright Google Inc.)</desc>
	<g fill="none" fill-rule="nonzero" style="mix-blend-mode: normal">
		<g color="#039be5" class="teamapps-color-1">
			<path d="M446.98,102.27c0,-26.3 15.84,-50.01 40.14,-60.07c24.3,-10.06 52.27,-4.5 70.86,14.1l186.24,186.24c25.39,25.39 25.39,66.56 0,91.96l-115.14,115.14l12.56,7.92c0.01,0 -0.02,0 0.04,0.03c28.23,14.13 38.43,40.53 41.88,52.54c11.86,-15.72 30.71,-25.89 51.93,-25.89h74.49c35.91,0 65.02,29.11 65.02,65.02c0,199.8 -163.21,363.01 -363.01,363.01c-199.8,0 -363.01,-163.21 -363.01,-363.01c0,-177.66 128.99,-326.3 297.98,-357.15zM462.34,205.16c-167.98,24.27 -297.98,169.62 -297.98,344.09c0,191.32 156.33,347.65 347.65,347.65c191.32,0 347.65,-156.33 347.65,-347.65c0,-27.43 -22.24,-49.66 -49.66,-49.66h-74.49c-27.43,0 -49.66,22.24 -49.66,49.66c0,18.85 -3.05,37.03 -8.68,54.07l0,-35.45c0,-11.65 0.19,-26.08 -6.26,-45.44c-0.08,-0.25 -0.22,-0.76 -0.66,-2.43c-1.14,-4.35 -6.87,-34.4 -35.42,-48.69c-0.68,-0.34 -1.18,-0.63 -4,-2.5c-2.8,-1.86 -7.86,-5.29 -14.62,-8.67c-4.73,-2.37 -9.43,-4.11 -13.94,-5.4l131.11,-131.11c19.39,-19.39 19.39,-50.84 0,-70.24l-186.24,-186.24c-14.2,-14.2 -35.57,-18.45 -54.12,-10.77c-18.56,7.69 -30.66,25.8 -30.66,45.88zM512,251.26v-148.99l186.24,186.24l-186.24,186.24v-148.99c-122.92,0 -223.49,100.57 -223.49,223.49c0,122.92 100.57,223.49 223.49,223.49c122.92,0 223.49,-100.57 223.49,-223.49h74.49c0,163.89 -134.09,297.98 -297.98,297.98c-163.89,0 -297.98,-134.09 -297.98,-297.98c0,-163.89 134.09,-297.99 297.98,-297.99zM627.47,593.95c0,11.17 0,22.35 -3.73,29.8l-11.17,22.35c0,0 -11.17,11.17 -18.62,11.17c-7.45,0 -14.9,3.73 -22.35,3.73c-7.45,0 -14.9,0 -22.35,-3.73c-7.45,-3.73 -11.18,-7.45 -18.63,-11.17c-7.45,-3.73 -7.45,-11.17 -11.17,-22.35c-3.73,-11.17 -3.72,-18.62 -3.72,-29.8v-26.08c0,-11.17 -0.01,-22.35 3.72,-29.8l11.17,-22.35c0,0 11.18,-11.17 18.63,-11.17c7.45,0 14.9,-3.73 22.35,-3.73c7.45,0 14.9,0 22.35,3.73c7.45,3.73 11.17,7.45 18.62,11.17c7.45,3.73 7.45,11.17 11.17,22.35c3.73,11.17 3.73,18.62 3.73,29.8zM437.51,660.99v-122.92l-37.25,11.17v-26.08l67.05,-22.35h3.73v160.17zM597.67,545.52c0,0 -3.72,-7.45 -3.72,-11.17c0,-3.73 -3.73,-3.72 -7.46,-7.45c-3.73,-3.73 -7.45,-3.73 -11.17,-3.73c-3.73,0 -7.45,0 -11.17,3.73l-7.45,7.45c0,0 -3.73,7.45 -3.73,11.17v74.49c0,0 3.73,7.45 3.73,11.17c0,3.73 3.72,3.73 7.45,7.46c3.73,3.73 7.45,3.72 11.17,3.72c3.73,0 7.45,0.01 11.17,-3.72l7.46,-7.46c0,0 3.72,-7.45 3.72,-11.17z" fill="currentColor"/>
		</g>
	</g>
</svg>