<svg version="1.1" xmlns="http://www.w3.org/2000/svg" xmlns:xlink="http://www.w3.org/1999/xlink" viewBox="0,0,1024,1024">
	<!-- Color names: teamapps-color-1 -->
	<desc>g_translate icon - Licensed under Apache License v2.0 (http://www.apache.org/licenses/LICENSE-2.0) - Created with Iconfu.com - Derivative work of Material icons (Copyright Google Inc.)</desc>
	<g fill="none" fill-rule="nonzero" style="mix-blend-mode: normal">
		<g color="#039be5" class="teamapps-color-1">
			<path d="M949.51,325.76v484.22c0,76.88 -62.64,139.53 -139.53,139.53h-297.98c-27.99,0 -52.84,-17.91 -61.69,-44.46l-22.43,-67.28h-213.86c-76.88,0 -139.53,-62.64 -139.53,-139.53v-484.22c0,-76.88 62.64,-139.53 139.53,-139.53h223.49c28.86,0 54.27,19.03 62.4,46.72l19.07,65.02h291.01c76.88,0 139.53,62.64 139.53,139.53zM809.98,201.6h-302.51l-22.31,-76.06c-6.2,-21.15 -25.61,-35.69 -47.66,-35.69h-223.49c-68.4,0 -124.17,55.77 -124.17,124.17v484.22c0,68.4 55.77,124.17 124.17,124.17h224.94l25.93,77.79c6.76,20.28 25.74,33.96 47.12,33.96h297.98c68.4,0 124.17,-55.77 124.17,-124.17v-484.22c0,-68.4 -55.77,-124.17 -124.17,-124.17zM884.48,325.76v484.22c0,40.97 -33.53,74.5 -74.5,74.5h-297.98l-37.25,-111.74h-260.73c-40.97,0 -74.5,-33.53 -74.5,-74.5v-484.22c0,-40.97 33.53,-74.5 74.5,-74.5h223.49l32.77,111.74h339.7c40.97,0 74.5,33.53 74.5,74.5zM847.23,325.76c0,-20.49 -16.76,-37.25 -37.25,-37.25h-328.53l43.96,150.48h73.01v-38.74h38.74v38.74h135.59v38.74h-47.31c-11.92,46.93 -37.99,92.37 -71.52,130.74l100.94,99.82l-27.19,27.19l-99.83,-100.19l-34.27,34.27l30.17,103.18l-74.49,74.49h260.73c20.49,0 37.25,-16.76 37.25,-37.25zM478.1,459.48c0,-7.82 -0.37,-14.9 -1.86,-22.72l-0.38,-2.6h-147.13v57.73h82.32c-5.96,21.97 -27.94,54.38 -78.96,54.38c-48.79,0 -88.65,-40.59 -88.65,-90.14c0,-49.54 39.86,-90.14 88.65,-90.14c27.56,0 45.82,11.92 56.61,21.97l2.23,1.86l45.82,-43.95l-2.6,-2.23c-27.94,-26.08 -63.33,-39.86 -102.06,-39.86c-84.18,0 -152.35,68.16 -152.35,152.35c0,84.18 68.54,152.35 152.35,152.35c86.04,0 146.01,-61.46 146.01,-148.99zM627.47,579.79c45.44,-53.26 58.11,-102.05 58.11,-102.05h-148.62l11.54,38.74h36.88c8.94,17.5 22.72,40.23 42.1,63.32zM580.91,627.84l20.11,-19.74c-16.76,-19.37 -32.03,-40.97 -44.32,-63.32z" fill="currentColor"/>
		</g>
	</g>
</svg>