<svg version="1.1" xmlns="http://www.w3.org/2000/svg" xmlns:xlink="http://www.w3.org/1999/xlink" viewBox="0,0,1024,1024">
	<!-- Color names: teamapps-color-1 -->
	<desc>grid_off icon - Licensed under Apache License v2.0 (http://www.apache.org/licenses/LICENSE-2.0) - Created with Iconfu.com - Derivative work of Material icons (Copyright Google Inc.)</desc>
	<g fill="none" fill-rule="nonzero" style="mix-blend-mode: normal">
		<g color="#039be5" class="teamapps-color-1">
			<path d="M957.65,957.64l-47.3,47.31c-25.39,25.4 -66.56,25.4 -91.96,0.01l-55.46,-55.45h-548.92c-76.88,0 -139.53,-62.64 -139.53,-139.53v-548.55l-55.45,-55.45c-25.32,-25.32 -25.4,-66.36 -0.18,-91.78l47.31,-47.67c25.36,-25.56 66.67,-25.64 92.13,-0.18l28.72,28.72c12.07,-12.89 29.14,-20.58 47.47,-20.58h575.48c76.88,0 139.53,62.64 139.53,139.53v575.48c0,18.33 -7.69,35.4 -20.58,47.47l28.72,28.72c25.39,25.39 25.39,66.56 0,91.95zM946.79,876.55l-41.81,-41.81c17.72,-8.02 29.17,-25.69 29.17,-45.24v-575.48c0,-68.4 -55.77,-124.17 -124.17,-124.17h-575.48c-19.55,0 -37.22,11.46 -45.24,29.17l-41.81,-41.81c-19.45,-19.45 -51,-19.39 -70.37,0.14l-47.31,47.67c-19.27,19.42 -19.21,50.76 0.14,70.1l59.95,59.95v554.91c0,68.4 55.77,124.17 124.17,124.17h555.28l59.96,59.95c19.4,19.39 50.84,19.39 70.24,-0.01l47.3,-47.31c19.39,-19.4 19.39,-50.84 0,-70.23zM911.67,911.67l-47.3,47.31l-74.5,-74.49h-575.85c-40.97,0 -74.5,-33.53 -74.5,-74.5v-575.48l-74.49,-74.49l47.31,-47.67zM309,214.02l-74.5,-74.5h575.48c40.97,0 74.5,33.53 74.5,74.5v575.48l-74.5,-74.5v-54h-54l-74.5,-74.5h128.51v-148.99h-148.99v128.51l-74.5,-74.5v-54h-54l-74.5,-74.5h128.51v-148.99h-148.99v128.51l-74.5,-74.5v-54zM660.99,363.01h148.99v-148.99h-148.99zM363.01,660.99h-148.99v148.99h148.99zM363.01,457.99l-20.48,-20.48h-128.51v148.99h148.99zM586.49,681.11l-20.48,-20.11h-128.51v148.99h148.99zM715.37,809.98l-54.38,-54.38v54.38zM214.02,363.01h54l-54,-54zM437.51,586.49h54l-54,-54z" fill="currentColor"/>
		</g>
	</g>
</svg>