<svg version="1.1" xmlns="http://www.w3.org/2000/svg" xmlns:xlink="http://www.w3.org/1999/xlink" viewBox="0,0,1024,1024">
	<!-- Color names: teamapps-color-1 -->
	<desc>high_quality icon - Licensed under Apache License v2.0 (http://www.apache.org/licenses/LICENSE-2.0) - Created with Iconfu.com - Derivative work of Material icons (Copyright Google Inc.)</desc>
	<g fill="none" fill-rule="nonzero" style="mix-blend-mode: normal">
		<g color="#039be5" class="teamapps-color-1">
			<path d="M912.26,288.51v446.98c0,76.88 -62.64,139.52 -139.52,139.52h-521.48c-77.48,0 -139.52,-62.86 -139.52,-139.52v-446.98c0,-76.66 62.04,-139.52 139.52,-139.52h521.48c76.88,0 139.52,62.64 139.52,139.52zM772.74,164.35h-521.48c-68.94,0 -124.16,55.93 -124.16,124.16v446.98c0,68.23 55.22,124.16 124.16,124.16h521.48c68.4,0 124.16,-55.76 124.16,-124.16v-446.98c0,-68.4 -55.76,-124.16 -124.16,-124.16zM847.23,288.51v446.98c0,40.97 -33.52,74.49 -74.49,74.49h-521.48c-41.35,0 -74.49,-33.52 -74.49,-74.49v-446.98c0,-40.97 33.15,-74.49 74.49,-74.49h521.48c40.97,0 74.49,33.52 74.49,74.49zM735.49,437.51c0,-20.49 -16.76,-37.25 -37.25,-37.25h-111.74c-20.49,0 -37.24,16.76 -37.24,37.25v148.99c0,20.49 16.75,37.25 37.24,37.25h27.94v55.87h55.87v-55.87h27.94c20.49,0 37.25,-16.76 37.25,-37.25zM474.75,400.26h-55.87v93.12h-74.49v-93.12h-55.87v223.49h55.87v-74.49h74.49v74.49h55.87zM605.12,456.13h74.49v111.74h-74.49z" fill="currentColor"/>
		</g>
	</g>
</svg>