<svg version="1.1" xmlns="http://www.w3.org/2000/svg" xmlns:xlink="http://www.w3.org/1999/xlink" viewBox="0,0,1024,1024">
	<!-- Color names: teamapps-color-1 -->
	<desc>keyboard_backspace icon - Licensed under Apache License v2.0 (http://www.apache.org/licenses/LICENSE-2.0) - Created with Iconfu.com - Derivative work of Material icons (Copyright Google Inc.)</desc>
	<g fill="none" fill-rule="nonzero" style="mix-blend-mode: normal">
		<g color="#039be5" class="teamapps-color-1">
			<path d="M847.23,614.27h-371.13l22.72,22.78c25.33,25.4 25.31,66.53 -0.06,91.89l-52.52,52.52c-25.39,25.39 -66.56,25.39 -91.96,0l-223.49,-223.49c-25.39,-25.39 -25.39,-66.56 0,-91.96l223.49,-223.49c25.39,-25.39 66.56,-25.39 91.96,0l52.52,52.52c25.37,25.37 25.4,66.49 0.06,91.89l-22.72,22.78h371.13c35.91,0 65.02,29.11 65.02,65.02v74.5c0,35.91 -29.11,65.02 -65.02,65.02zM896.9,549.25v-74.5c0,-27.43 -22.24,-49.66 -49.66,-49.66h-408.14l48.85,-48.98c19.35,-19.4 19.33,-50.81 -0.05,-70.19l-52.52,-52.52c-19.39,-19.4 -50.84,-19.4 -70.24,0l-223.49,223.49c-19.39,19.39 -19.39,50.84 0,70.24l223.49,223.49c19.39,19.39 50.84,19.39 70.24,0l52.52,-52.52c19.38,-19.38 19.4,-50.78 0.05,-70.19l-48.85,-48.98h408.14c27.43,0 49.66,-22.24 49.66,-49.66zM847.23,549.25h-527.81l133.35,133.72l-52.52,52.52l-223.49,-223.49l223.49,-223.49l52.52,52.52l-133.35,133.72h527.81z" fill="currentColor"/>
		</g>
	</g>
</svg>