<svg version="1.1" xmlns="http://www.w3.org/2000/svg" xmlns:xlink="http://www.w3.org/1999/xlink" viewBox="0,0,1024,1024">
	<!-- Color names: teamapps-color-1 -->
	<desc>language icon - Licensed under Apache License v2.0 (http://www.apache.org/licenses/LICENSE-2.0) - Created with Iconfu.com - Derivative work of Material icons (Copyright Google Inc.)</desc>
	<g fill="none" fill-rule="nonzero" style="mix-blend-mode: normal">
		<g color="#039be5" class="teamapps-color-1">
			<path d="M949.51,512c0,241.56 -196.03,437.51 -437.88,437.51c-241.61,0 -437.13,-196.07 -437.13,-437.51c0,-241.43 195.52,-437.51 437.13,-437.51c241.85,0 437.88,195.94 437.88,437.51zM511.62,89.85c-233.1,0 -421.77,189.17 -421.77,422.15c0,232.97 188.67,422.15 421.77,422.15c233.38,0 422.52,-189.08 422.52,-422.15c0,-233.07 -189.14,-422.15 -422.52,-422.15zM884.48,512c0,205.61 -166.87,372.48 -372.86,372.48c-205.61,0 -372.11,-166.87 -372.11,-372.48c0,-205.61 166.5,-372.48 372.11,-372.48c205.98,0 372.86,166.87 372.86,372.48zM605.12,512c0,-25.33 -2.61,-50.28 -5.96,-74.49h-174.32c-3.35,24.21 -5.96,49.17 -5.96,74.49c0,25.33 2.61,49.91 5.96,74.49h174.32c3.35,-24.58 5.96,-49.17 5.96,-74.49zM415.52,230.41c-68.54,23.47 -125.52,70.77 -161.28,132.6h109.88c11.92,-46.56 29.05,-91.25 51.4,-132.6zM769.75,660.99h-109.88c-11.92,46.56 -29.05,91.25 -51.4,132.6c68.54,-23.47 125.52,-71.14 161.28,-132.6zM415.52,793.59c-22.35,-41.35 -39.49,-86.04 -51.4,-132.6h-109.88c35.76,61.83 92.74,109.13 161.28,132.6zM608.48,230.41c22.35,41.35 39.49,86.04 51.4,132.6h109.88c-35.76,-61.46 -92.74,-109.13 -161.28,-132.6zM583.14,660.99h-142.28c16.02,53.26 40.23,102.8 71.14,147.5c30.91,-44.7 55.12,-94.24 71.14,-147.5zM440.86,363.01h142.28c-16.02,-53.26 -40.23,-102.8 -71.14,-147.5c-30.91,44.7 -55.12,94.24 -71.14,147.5zM349.6,586.49c-2.98,-24.58 -5.21,-49.17 -5.21,-74.49c0,-25.33 2.23,-49.91 5.21,-74.49h-125.9c-5.96,23.84 -9.68,48.79 -9.68,74.49c0,25.7 3.72,50.65 9.68,74.49zM800.3,586.49c5.96,-23.84 9.68,-48.79 9.68,-74.49c0,-25.7 -3.72,-50.65 -9.68,-74.49h-125.9c2.98,24.58 5.21,49.17 5.21,74.49c0,25.33 -2.23,49.91 -5.21,74.49z" fill="currentColor"/>
		</g>
	</g>
</svg>