<svg version="1.1" xmlns="http://www.w3.org/2000/svg" xmlns:xlink="http://www.w3.org/1999/xlink" viewBox="0,0,1024,1024">
	<!-- Color names: teamapps-color-1 -->
	<desc>live_help icon - Licensed under Apache License v2.0 (http://www.apache.org/licenses/LICENSE-2.0) - Created with Iconfu.com - Derivative work of Material icons (Copyright Google Inc.)</desc>
	<g fill="none" fill-rule="nonzero" style="mix-blend-mode: normal">
		<g color="#039be5" class="teamapps-color-1">
			<path d="M912.26,214.02v521.47c0,76.88 -62.64,139.52 -139.52,139.52h-122.06l-92.7,92.7c-25.39,25.39 -66.56,25.39 -91.96,0l-92.7,-92.7h-122.06c-77.48,0 -139.52,-62.86 -139.52,-139.52v-521.47c0,-76.65 62.03,-139.53 139.52,-139.53h521.48c76.89,0 139.52,62.65 139.52,139.53zM772.74,89.85h-521.48c-68.95,0 -124.16,55.94 -124.16,124.17v521.47c0,68.23 55.22,124.16 124.16,124.16h128.42l97.2,97.2c19.39,19.39 50.84,19.39 70.24,0l97.2,-97.2h128.42c68.4,0 124.16,-55.76 124.16,-124.16v-521.47c0,-68.39 -55.75,-124.17 -124.16,-124.17zM847.23,214.02v521.47c0,40.97 -33.52,74.49 -74.49,74.49h-148.99l-111.74,111.74l-111.74,-111.74h-148.99c-41.35,0 -74.49,-33.52 -74.49,-74.49v-521.47c0,-40.97 33.15,-74.5 74.49,-74.5h521.48c40.97,0 74.49,33.53 74.49,74.5zM660.99,363.01c0,-82.32 -66.68,-148.99 -148.99,-148.99c-82.32,0 -148.99,66.67 -148.99,148.99h74.5c0,-40.97 33.52,-74.49 74.49,-74.49c40.97,0 74.49,33.52 74.49,74.49c0,20.49 -8.19,39.11 -21.97,52.52l-46.19,46.93c-26.82,27.19 -43.58,64.44 -43.58,105.41v18.62h74.5c0,-55.87 16.76,-78.21 43.58,-105.41l33.52,-34.27c21.23,-21.23 34.64,-51.03 34.64,-83.81zM549.25,660.99h-74.5v74.49h74.5z" fill="currentColor"/>
		</g>
	</g>
</svg>