<svg version="1.1" xmlns="http://www.w3.org/2000/svg" xmlns:xlink="http://www.w3.org/1999/xlink" viewBox="0,0,1024,1024">
	<!-- Color names: teamapps-color-1 -->
	<desc>local_library icon - Licensed under Apache License v2.0 (http://www.apache.org/licenses/LICENSE-2.0) - Created with Iconfu.com - Derivative work of Material icons (Copyright Google Inc.)</desc>
	<g fill="none" fill-rule="nonzero" style="mix-blend-mode: normal">
		<g color="#039be5" class="teamapps-color-1">
			<path d="M912.26,363.01v409.73c0,35.91 -29.11,65.02 -65.02,65.02c-112.33,0 -214.46,43.83 -291,114.86c-24.99,23.19 -63.64,23.14 -88.57,-0.1c-76.4,-71.23 -178.45,-114.76 -290.89,-114.76c-35.91,0 -65.02,-29.11 -65.02,-65.02v-409.73c0,-35.91 29.11,-65.02 65.02,-65.02c61.15,0 119.99,9.9 175.02,28.15c-10.62,-22.74 -16.55,-48.12 -16.55,-74.87c0,-97.75 79.02,-176.77 176.77,-176.77c97.75,0 176.77,79.02 176.77,176.77c0,26.76 -5.93,52.14 -16.55,74.87c55.03,-18.26 113.87,-28.15 175.02,-28.15c35.91,0 65.02,29.11 65.02,65.02zM847.23,313.34c-75.77,0 -147.86,15.62 -213.28,43.76c24.59,-28.32 39.46,-65.31 39.46,-105.84c0,-89.26 -72.14,-161.41 -161.41,-161.41c-89.26,0 -161.41,72.14 -161.41,161.41c0,40.52 14.87,77.52 39.46,105.84c-65.42,-28.14 -137.51,-43.76 -213.28,-43.76c-27.43,0 -49.66,22.24 -49.66,49.66v409.73c0,27.43 22.24,49.66 49.66,49.66c116.5,0 222.25,45.13 301.37,118.89c19.04,17.75 48.56,17.79 67.65,0.08c79.23,-73.52 185.04,-118.96 301.45,-118.96c27.43,0 49.66,-22.24 49.66,-49.66v-409.73c0,-27.43 -22.24,-49.66 -49.66,-49.66zM847.23,363.01v409.73c-129.62,0 -247.33,50.65 -335.23,132.22c-87.9,-81.95 -205.61,-132.22 -335.23,-132.22v-409.73c129.62,0 247.33,50.28 335.23,132.23c87.9,-81.95 205.61,-132.23 335.23,-132.23zM400.26,251.26c0,-61.83 49.91,-111.74 111.74,-111.74c61.83,0 111.74,49.91 111.74,111.74c0,61.83 -49.91,111.74 -111.74,111.74c-61.83,0 -111.74,-49.91 -111.74,-111.74z" fill="currentColor"/>
		</g>
	</g>
</svg>