<svg version="1.1" xmlns="http://www.w3.org/2000/svg" xmlns:xlink="http://www.w3.org/1999/xlink" viewBox="0,0,1024,1024">
	<!-- Color names: teamapps-color-1 -->
	<desc>music_note icon - Licensed under Apache License v2.0 (http://www.apache.org/licenses/LICENSE-2.0) - Created with Iconfu.com - Derivative work of Material icons (Copyright Google Inc.)</desc>
	<g fill="none" fill-rule="nonzero" style="mix-blend-mode: normal">
		<g color="#039be5" class="teamapps-color-1">
			<path d="M800.51,176.77v148.99c0,35.91 -29.11,65.02 -65.02,65.02h-83.97v307.45c0,118.22 -95.78,214.02 -214.01,214.02c-118.23,0 -214.02,-95.79 -214.02,-214.02c0,-118.23 95.8,-214.01 214.02,-214.01c3.18,0 6.33,0.07 9.47,0.22v-307.68c0,-35.91 29.11,-65.02 65.02,-65.02h223.49c35.91,0 65.02,29.11 65.02,65.02zM735.49,127.1h-223.49c-27.43,0 -49.66,22.24 -49.66,49.66v324.43c-8.1,-1.06 -16.39,-1.61 -24.83,-1.61c-109.74,0 -198.66,88.9 -198.66,198.65c0,109.74 88.92,198.66 198.66,198.66c109.75,0 198.65,-88.92 198.65,-198.66v-322.81h99.33c27.43,0 49.66,-22.24 49.66,-49.66v-148.99c0,-27.43 -22.24,-49.66 -49.66,-49.66zM735.49,176.77v148.99h-148.99v372.47c0,82.32 -66.67,148.99 -148.99,148.99c-82.32,0 -148.99,-66.68 -148.99,-148.99c0,-82.32 66.68,-148.99 148.99,-148.99c27.19,0 52.52,7.81 74.49,20.48v-392.96z" fill="currentColor"/>
		</g>
	</g>
</svg>