<svg version="1.1" xmlns="http://www.w3.org/2000/svg" xmlns:xlink="http://www.w3.org/1999/xlink" viewBox="0,0,1024,1024">
	<!-- Color names: teamapps-color-1 -->
	<desc>network_cell icon - Licensed under Apache License v2.0 (http://www.apache.org/licenses/LICENSE-2.0) - Created with Iconfu.com - Derivative work of Material icons (Copyright Google Inc.)</desc>
	<g fill="none" fill-rule="nonzero" style="mix-blend-mode: normal">
		<g color="#039be5" class="teamapps-color-1">
			<path d="M949.51,139.52v744.97c0,35.91 -29.11,65.02 -65.02,65.02h-744.97c-26.3,0 -50.01,-15.84 -60.07,-40.14c-10.06,-24.3 -4.5,-52.27 14.1,-70.86l744.97,-744.97c18.6,-18.6 46.56,-24.16 70.86,-14.1c24.3,10.06 40.14,33.77 40.14,60.07zM903.49,93.63c-18.56,-7.69 -39.92,-3.44 -54.12,10.77l-744.97,744.97c-14.2,14.2 -18.45,35.57 -10.77,54.12c7.69,18.56 25.8,30.66 45.88,30.66h744.97c27.43,0 49.66,-22.24 49.66,-49.66v-744.97c0,-20.09 -12.1,-38.2 -30.66,-45.88zM884.48,139.52v744.97h-744.97z" fill="currentColor"/>
		</g>
	</g>
</svg>