<svg version="1.1" xmlns="http://www.w3.org/2000/svg" xmlns:xlink="http://www.w3.org/1999/xlink" viewBox="0,0,1024,1024">
	<!-- Color names: teamapps-color-1 -->
	<desc>pageview icon - Licensed under Apache License v2.0 (http://www.apache.org/licenses/LICENSE-2.0) - Created with Iconfu.com - Derivative work of Material icons (Copyright Google Inc.)</desc>
	<g fill="none" fill-rule="nonzero" style="mix-blend-mode: normal">
		<g color="#039be5" class="teamapps-color-1">
			<path d="M949.51,288.51v446.98c0,76.89 -62.65,139.52 -139.53,139.52h-595.96c-76.87,0 -139.53,-62.63 -139.53,-139.52v-446.98c0,-76.89 62.65,-139.52 139.53,-139.52h595.96c76.87,0 139.53,62.63 139.53,139.52zM809.98,164.35h-595.96c-68.39,0 -124.17,55.75 -124.17,124.16v446.98c0,68.41 55.78,124.16 124.17,124.16h595.96c68.39,0 124.17,-55.75 124.17,-124.16v-446.98c0,-68.41 -55.78,-124.16 -124.17,-124.16zM884.48,288.51v446.98c0,40.97 -33.53,74.49 -74.5,74.49h-595.96c-40.97,0 -74.5,-33.52 -74.5,-74.49v-446.98c0,-40.97 33.53,-74.49 74.5,-74.49h595.96c40.97,0 74.5,33.52 74.5,74.49zM743.31,690.42l-108.39,-108.02c16.39,-26.08 26.08,-56.24 26.08,-89.02c0,-92.75 -74.87,-167.62 -167.62,-167.62c-92.75,0 -167.62,74.87 -167.62,167.62c0,92.75 74.87,167.62 167.24,167.62c32.78,0 63.32,-9.69 89.02,-26.08l108.39,108.39zM586.49,493.38c0,51.4 -41.71,93.11 -93.11,93.11c-51.4,0 -93.12,-41.71 -93.12,-93.11c0,-51.4 41.72,-93.12 93.12,-93.12c51.4,0 93.11,41.72 93.11,93.12z" fill="currentColor"/>
		</g>
	</g>
</svg>