<svg version="1.1" xmlns="http://www.w3.org/2000/svg" xmlns:xlink="http://www.w3.org/1999/xlink" viewBox="0,0,1024,1024">
	<!-- Color names: teamapps-color-1 -->
	<desc>panorama_horizontal icon - Licensed under Apache License v2.0 (http://www.apache.org/licenses/LICENSE-2.0) - Created with Iconfu.com - Derivative work of Material icons (Copyright Google Inc.)</desc>
	<g fill="none" fill-rule="nonzero" style="mix-blend-mode: normal">
		<g color="#039be5" class="teamapps-color-1">
			<path d="M949.51,237.49v549.03c0,46.64 -34.01,88.49 -86.26,88.49c-12.8,0 -24.13,-2.63 -33.82,-6.17c-0.1,-0.04 -0.19,-0.07 -0.29,-0.11c-102.27,-37.92 -209.75,-57.04 -317.14,-57.04c-107.52,0 -214.89,18.79 -316.92,56.96c-0.15,0.06 -0.3,0.11 -0.45,0.17c-9.61,3.5 -21.01,6.19 -33.89,6.19c-52.67,0 -86.26,-41.91 -86.26,-88.11v-549.41c0,-45.75 32.81,-88.49 86.26,-88.49c12.07,0 23.72,2.49 33.82,6.17c0.1,0.04 0.19,0.07 0.29,0.11c102.27,37.92 209.75,57.04 317.14,57.04c107.52,0 214.89,-18.79 316.92,-56.96c0.15,-0.06 0.3,-0.11 0.45,-0.17c9.61,-3.5 21.01,-6.19 33.89,-6.19c52.24,0 86.26,41.85 86.26,88.49zM863.25,164.35c-10.71,0 -20.31,2.23 -28.62,5.26c-0.11,0.04 -0.22,0.08 -0.33,0.12c-103.8,38.83 -212.99,57.94 -322.3,57.94c-109.21,0 -218.5,-19.45 -322.48,-58c-0.07,-0.03 -0.14,-0.05 -0.21,-0.08c-8.68,-3.17 -18.56,-5.24 -28.56,-5.24c-43.64,0 -70.9,34.48 -70.9,73.13v549.41c0,38.88 27.82,72.75 70.9,72.75c10.71,0 20.31,-2.23 28.62,-5.26c0.11,-0.04 0.22,-0.08 0.33,-0.12c103.8,-38.83 212.99,-57.94 322.3,-57.94c109.21,0 218.5,19.45 322.48,58c0.07,0.03 0.14,0.05 0.21,0.08c8.38,3.05 17.9,5.24 28.56,5.24c42.66,0 70.9,-33.84 70.9,-73.13v-549.03c0,-39.29 -28.23,-73.13 -70.9,-73.13zM884.48,237.49v549.03c0,14.9 -8.94,23.47 -21.23,23.47c-3.73,0 -7.46,-0.74 -11.55,-2.23c-109.51,-40.6 -224.61,-61.08 -339.7,-61.08c-115.1,0 -230.19,20.11 -339.7,61.08c-4.09,1.49 -7.82,2.23 -11.55,2.23c-12.67,0 -21.23,-8.56 -21.23,-23.09v-549.41c0,-14.9 8.56,-23.47 21.23,-23.47c3.35,0 7.46,0.74 11.55,2.23c109.51,40.6 224.61,61.08 339.7,61.08c115.1,0 230.19,-20.11 339.7,-61.08c4.09,-1.49 7.82,-2.23 11.55,-2.23c12.29,0 21.23,8.56 21.23,23.47zM809.98,308.63c-96.84,29.05 -196.67,43.58 -297.98,43.2c-101.31,0 -201.14,-14.53 -297.98,-43.2v406.37c96.84,-28.68 196.67,-43.2 297.98,-43.2c101.31,0 201.14,14.53 297.98,43.2z" fill="currentColor"/>
		</g>
	</g>
</svg>