<svg version="1.1" xmlns="http://www.w3.org/2000/svg" xmlns:xlink="http://www.w3.org/1999/xlink" viewBox="0,0,1024,1024">
	<!-- Color names: teamapps-color-1 -->
	<desc>perm_data_setting icon - Licensed under Apache License v2.0 (http://www.apache.org/licenses/LICENSE-2.0) - Created with Iconfu.com - Derivative work of Material icons (Copyright Google Inc.)</desc>
	<g fill="none" fill-rule="nonzero" style="mix-blend-mode: normal">
		<g color="#039be5" class="teamapps-color-1">
			<path d="M495.61,875.01h-430.59c-26.3,0 -50.01,-15.84 -60.07,-40.14c-10.06,-24.3 -4.5,-52.27 14.1,-70.86l744.96,-744.96c18.6,-18.6 46.59,-24.16 70.89,-14.08c24.3,10.08 40.14,33.81 40.11,60.12l-0.37,430.96c-0.01,16.1 -5.99,31.53 -16.63,43.38c11.99,10.16 21.16,24.46 24.38,42.21c0.13,-0.05 0.36,-0.14 0.49,-0.18c28.36,-9.47 68.39,-2.24 88.66,33.61l37.81,65.44c18.19,33.32 7.53,70.68 -16.13,91.7l-0.49,0.4l0.86,0.69c23.65,21 34.33,58.35 16.13,91.69l-39.15,67.67c-0.11,0.19 -0.22,0.38 -0.34,0.56c-18.62,29.2 -54.77,42 -87.53,30.64c-6.95,35.75 -38.52,60.15 -73.08,60.15h-74.5c-36.69,0 -66.45,-26.07 -73.09,-60.17c-0.13,0.05 -0.42,0.16 -0.55,0.2c-28.44,9.5 -68.44,2.17 -88.67,-33.62l-37.81,-65.44c-0.43,-0.78 -0.84,-1.56 -1.23,-2.35c-11,7.97 -24.34,12.38 -38.16,12.38zM541.21,829.68c0.03,9.26 2.29,18.8 7.28,27.94l37.66,65.18c15.88,28.18 47.5,34.34 70.46,26.67l17.76,-7.07l2.44,16.89c4.63,27.88 28.61,49.35 58.3,49.35h74.5c27.99,0 53.46,-20.17 58.3,-49.35l2.44,-16.84l16.48,6.57c26.2,9.55 55.44,-0.53 70.44,-24.06c0.39,-0.61 0.76,-1.22 1.12,-1.84l37.85,-65.5c14.39,-26.36 6.07,-56.04 -12.85,-72.85l-15.48,-12.13l15.1,-11.93c18.94,-16.82 27.23,-46.51 12.85,-72.86l-37.66,-65.18c-15.91,-28.22 -47.55,-34.31 -70.45,-26.66l-17.76,7.07l-2.16,-15c-2.8,-23.57 -18.53,-40.02 -37,-47.2c4.2,-1.99 8.15,-4.57 11.7,-7.72c10.64,-9.42 16.73,-22.94 16.75,-37.15l0.37,-430.96c0.02,-20.09 -12.08,-38.22 -30.64,-45.92c-18.56,-7.7 -39.93,-3.45 -54.14,10.76l-744.96,744.96c-14.2,14.2 -18.45,35.57 -10.77,54.12c7.69,18.56 25.8,30.66 45.88,30.66h430.59c14.21,0 27.75,-6.09 37.17,-16.73c3.53,-3.98 6.35,-8.46 8.42,-13.24zM493,772.74c0,12.67 1.12,24.95 2.61,37.24h-430.59l744.96,-744.96l-0.37,430.96c-12.29,-1.49 -24.58,-2.6 -37.25,-2.6c-154.21,0 -279.36,125.15 -279.36,279.36zM950.41,821.91c3.35,2.98 4.47,7.82 2.23,11.92l-37.25,64.44c-2.61,4.09 -7.46,5.6 -11.55,4.1l-46.56,-18.63c-9.31,7.45 -20.11,13.41 -31.29,18.25l-7.08,49.17c-0.74,4.47 -4.84,7.82 -9.31,7.82h-74.5c-4.85,0 -8.56,-3.35 -9.31,-7.82l-7.08,-49.17c-11.55,-4.47 -21.98,-10.81 -31.66,-18.25l-46.18,18.63c-4.47,1.49 -9.31,-0.01 -11.55,-4.1l-37.25,-64.44c-2.23,-4.09 -1.12,-8.94 2.23,-11.92l39.49,-30.92c-0.74,-5.96 -1.12,-11.92 -1.12,-18.25c0,-6.33 0.38,-12.29 1.12,-18.25l-39.49,-30.91c-3.73,-2.98 -4.47,-7.83 -2.23,-11.93l37.25,-64.44c2.61,-4.09 7.46,-5.59 11.55,-4.09l46.18,18.62c9.68,-7.45 20.49,-13.41 31.66,-18.25l7.08,-49.17c0.74,-4.47 4.84,-7.82 9.31,-7.82h74.5c4.47,0 8.56,3.35 8.94,7.82l7.07,49.17c11.55,4.47 21.98,10.81 31.66,18.25l46.19,-18.62c4.47,-1.49 9.31,0 11.54,4.09l37.25,64.44c2.23,4.09 1.12,8.95 -2.23,11.93l-39.49,30.91c1.12,5.96 1.49,11.93 1.49,18.25c0,6.33 -0.75,12.28 -1.49,18.25zM828.24,772.74c0,-30.91 -24.96,-55.87 -55.87,-55.87c-30.91,0 -55.87,24.96 -55.87,55.87c0,30.91 24.96,55.87 55.87,55.87c30.91,0 55.87,-24.96 55.87,-55.87z" fill="currentColor"/>
		</g>
	</g>
</svg>