<svg version="1.1" xmlns="http://www.w3.org/2000/svg" xmlns:xlink="http://www.w3.org/1999/xlink" viewBox="0,0,1024,1024">
	<!-- Color names: teamapps-color-1 -->
	<desc>playlist_add_check icon - Licensed under Apache License v2.0 (http://www.apache.org/licenses/LICENSE-2.0) - Created with Iconfu.com - Derivative work of Material icons (Copyright Google Inc.)</desc>
	<g fill="none" fill-rule="nonzero" style="mix-blend-mode: normal">
		<g color="#039be5" class="teamapps-color-1">
			<path d="M911.83,447.4l55.87,55.87c25.38,25.38 25.4,66.53 0.03,91.93l-260.36,260.73c-25.37,25.4 -66.53,25.44 -91.94,0.08l-141.47,-141.16c-10.39,7.05 -22.95,11.17 -36.45,11.17h-297.99c-35.91,0 -65.02,-29.11 -65.02,-65.02v-74.5c0,-13.85 4.34,-26.7 11.72,-37.25c-7.38,-10.55 -11.72,-23.4 -11.72,-37.25v-74.49c0,-13.85 4.34,-26.7 11.72,-37.25c-7.38,-10.55 -11.72,-23.4 -11.72,-37.25v-74.49c0,-35.91 29.11,-65.02 65.02,-65.02h446.98c35.91,0 65.02,29.11 65.02,65.02v74.49c0,13.85 -4.34,26.7 -11.72,37.25c7.38,10.55 11.72,23.4 11.72,37.25v74.49c0,23.01 -11.95,43.21 -29.95,54.76l39.68,39.55l158.59,-158.87c25.39,-25.43 66.59,-25.45 92,-0.04zM830.7,458.29l-169.43,169.74l-67.16,-66.94c23.81,-3.66 42.05,-24.24 42.05,-49.08v-74.49c0,-14.83 -6.5,-28.15 -16.82,-37.25c10.31,-9.1 16.82,-22.42 16.82,-37.25v-74.49c0,-27.43 -22.24,-49.66 -49.66,-49.66h-446.98c-27.43,0 -49.66,22.24 -49.66,49.66v74.49c0,14.83 6.5,28.15 16.82,37.25c-10.31,9.1 -16.82,22.42 -16.82,37.25v74.49c0,14.83 6.5,28.15 16.81,37.25c-10.31,9.1 -16.81,22.41 -16.81,37.25v74.5c0,27.43 22.24,49.66 49.66,49.66h297.99c14.81,0 28.1,-6.48 37.2,-16.76l151.57,151.24c19.41,19.37 50.85,19.34 70.22,-0.06l260.36,-260.73c19.37,-19.4 19.36,-50.83 -0.02,-70.21l-55.87,-55.87c-19.41,-19.41 -50.88,-19.39 -70.27,0.03zM865.85,493.38l55.87,55.87l-260.36,260.73l-167.98,-167.62l55.87,-55.87l112.11,111.74zM586.49,512h-446.98v-74.49h446.98zM586.49,363.01h-446.98v-74.49h446.98zM139.52,586.49h297.99v74.5h-297.99z" fill="currentColor"/>
		</g>
	</g>
</svg>