<svg version="1.1" xmlns="http://www.w3.org/2000/svg" xmlns:xlink="http://www.w3.org/1999/xlink" viewBox="0,0,1024,1024">
	<!-- Color names: teamapps-color-1 -->
	<desc>plus_one icon - Licensed under Apache License v2.0 (http://www.apache.org/licenses/LICENSE-2.0) - Created with Iconfu.com - Derivative work of Material icons (Copyright Google Inc.)</desc>
	<g fill="none" fill-rule="nonzero" style="mix-blend-mode: normal">
		<g color="#039be5" class="teamapps-color-1">
			<path d="M586.49,446.98c18.34,0 34.9,7.59 46.72,19.8v-46.8l-15.33,3.07c-19.1,3.82 -38.91,-1.12 -53.98,-13.47c-15.07,-12.35 -23.8,-30.81 -23.8,-50.29v-67.8c0,-30.07 20.61,-56.21 49.85,-63.23l167.62,-40.23c19.37,-4.65 39.79,-0.16 55.43,12.17c15.64,12.33 24.77,31.15 24.77,51.06v484.23c0,35.91 -29.11,65.02 -65.02,65.02h-74.5c-35.91,0 -65.02,-29.11 -65.02,-65.02v-103.77c-11.82,12.21 -28.38,19.8 -46.72,19.8h-83.96v83.97c0,35.91 -29.11,65.02 -65.02,65.02h-74.5c-35.91,0 -65.02,-29.11 -65.02,-65.02v-83.97h-83.96c-35.91,0 -65.02,-29.11 -65.02,-65.02v-74.49c0,-35.91 29.11,-65.02 65.02,-65.02h83.96v-83.97c0,-35.91 29.11,-65.02 65.02,-65.02h74.5c35.91,0 65.02,29.11 65.02,65.02v83.97zM487.17,462.34v-99.33c0,-27.43 -22.24,-49.66 -49.66,-49.66h-74.5c-27.43,0 -49.66,22.24 -49.66,49.66v99.33h-99.32c-27.43,0 -49.66,22.24 -49.66,49.66v74.49c0,27.43 22.24,49.66 49.66,49.66h99.32v99.33c0,27.43 22.24,49.66 49.66,49.66h74.5c27.43,0 49.66,-22.24 49.66,-49.66v-99.33h99.32c27.43,0 49.66,-22.24 49.66,-49.66v-74.49c0,-27.43 -22.24,-49.66 -49.66,-49.66zM803.49,212.26c-11.95,-9.42 -27.55,-12.84 -42.34,-9.29l-167.62,40.23c-22.33,5.36 -38.07,25.33 -38.07,48.29v67.8c0,14.88 6.67,28.98 18.18,38.41c11.51,9.43 26.64,13.21 41.23,10.29l33.71,-6.74v334.25c0,27.43 22.24,49.66 49.66,49.66h74.5c27.43,0 49.66,-22.24 49.66,-49.66v-484.23c0,-15.21 -6.97,-29.58 -18.92,-39zM437.51,512h148.99v74.49h-148.99v148.99h-74.5v-148.99h-148.99v-74.49h148.99v-148.99h74.5zM772.74,251.26v484.23h-74.5v-394.83l-93.11,18.63v-67.8z" fill="currentColor"/>
		</g>
	</g>
</svg>