<svg version="1.1" xmlns="http://www.w3.org/2000/svg" xmlns:xlink="http://www.w3.org/1999/xlink" viewBox="0,0,1024,1024">
	<!-- Color names: teamapps-color-1 -->
	<desc>recent_actors icon - Licensed under Apache License v2.0 (http://www.apache.org/licenses/LICENSE-2.0) - Created with Iconfu.com - Derivative work of Material icons (Copyright Google Inc.)</desc>
	<g fill="none" fill-rule="nonzero" style="mix-blend-mode: normal">
		<g color="#039be5" class="teamapps-color-1">
			<path d="M586.49,837.76h-446.98c-56.42,0 -102.27,-45.9 -102.27,-102.27v-446.98c0,-56.38 45.84,-102.27 102.27,-102.27h446.98c23.81,0 45.74,8.19 63.12,21.85c11.9,-13.39 29.27,-21.85 48.62,-21.85h74.5c13.85,0 26.7,4.34 37.25,11.72c10.55,-7.38 23.4,-11.72 37.25,-11.72h74.49c35.91,0 65.02,29.11 65.02,65.02v521.48c0,35.91 -29.11,65.02 -65.02,65.02h-74.49c-13.85,0 -26.7,-4.34 -37.25,-11.72c-10.55,7.38 -23.4,11.72 -37.25,11.72h-74.5c-19.36,0 -36.72,-8.46 -48.62,-21.85c-17.38,13.67 -39.32,21.85 -63.12,21.85zM652.45,792.02c7.53,17.85 25.19,30.38 45.78,30.38h74.5c14.83,0 28.15,-6.5 37.25,-16.81c9.1,10.31 22.41,16.81 37.25,16.81h74.49c27.43,0 49.66,-22.24 49.66,-49.66v-521.48c0,-27.43 -22.24,-49.66 -49.66,-49.66h-74.49c-14.83,0 -28.15,6.5 -37.25,16.81c-9.1,-10.31 -22.41,-16.81 -37.25,-16.81h-74.5c-20.59,0 -38.25,12.53 -45.78,30.38c-15.95,-18.59 -39.61,-30.38 -65.96,-30.38h-446.98c-47.93,0 -86.91,39.01 -86.91,86.91v446.98c0,47.9 38.97,86.91 86.91,86.91h446.98c26.35,0 50.01,-11.8 65.96,-30.38zM623.74,288.51v446.98c0,20.49 -16.76,37.25 -37.25,37.25h-446.98c-20.49,0 -37.24,-16.76 -37.24,-37.25v-446.98c0,-20.49 16.75,-37.25 37.24,-37.25h446.98c20.49,0 37.25,16.76 37.25,37.25zM698.24,251.26h74.5v521.48h-74.5zM921.73,251.26v521.48h-74.49v-521.48zM530.62,670.3c0,-55.87 -111.74,-83.81 -167.62,-83.81c-55.87,0 -167.62,27.94 -167.62,83.81v27.94h335.23zM279.2,437.51c0,46.19 37.62,83.81 83.81,83.81c46.19,0 83.81,-37.62 83.81,-83.81c0,-46.19 -37.62,-83.81 -83.81,-83.81c-46.19,0 -83.81,37.62 -83.81,83.81z" fill="currentColor"/>
		</g>
	</g>
</svg>