<svg version="1.1" xmlns="http://www.w3.org/2000/svg" xmlns:xlink="http://www.w3.org/1999/xlink" viewBox="0,0,1024,1024">
	<!-- Color names: teamapps-color-1 -->
	<desc>replay icon - Licensed under Apache License v2.0 (http://www.apache.org/licenses/LICENSE-2.0) - Created with Iconfu.com - Derivative work of Material icons (Copyright Google Inc.)</desc>
	<g fill="none" fill-rule="nonzero" style="mix-blend-mode: normal">
		<g color="#039be5" class="teamapps-color-1">
			<path d="M875.01,549.25c0,200.55 -162.45,363.01 -363.01,363.01c-200.55,0 -363.01,-162.45 -363.01,-363.01c0,-35.91 29.11,-65.02 65.02,-65.02h74.49c35.91,0 65.02,29.11 65.02,65.02c0,87.38 71.08,158.46 158.46,158.46c87.38,0 158.46,-71.08 158.46,-158.46c0,-64.19 -38.38,-119.64 -93.44,-144.51v70.01c0,26.3 -15.84,50.01 -40.14,60.07c-24.3,10.06 -52.27,4.5 -70.86,-14.1l-186.24,-186.24c-25.39,-25.39 -25.39,-66.56 0,-91.96l186.24,-186.24c18.6,-18.6 46.56,-24.16 70.86,-14.1c24.3,10.06 40.14,33.77 40.14,60.07v89.77c169.51,30.64 297.98,178.85 297.98,357.21zM561.66,205.12v-102.84c0,-20.09 -12.1,-38.2 -30.66,-45.88c-18.56,-7.69 -39.92,-3.44 -54.12,10.77l-186.24,186.24c-19.39,19.39 -19.39,50.84 0,70.24l186.24,186.24c14.2,14.2 35.57,18.45 54.12,10.77c18.56,-7.69 30.66,-25.8 30.66,-45.88v-92.1c71.73,21.41 124.16,88 124.16,166.6c0,95.87 -77.96,173.82 -173.82,173.82c-95.87,0 -173.82,-77.96 -173.82,-173.82c0,-27.43 -22.24,-49.66 -49.66,-49.66h-74.49c-27.43,0 -49.66,22.24 -49.66,49.66c0,192.07 155.58,347.65 347.65,347.65c192.07,0 347.65,-155.58 347.65,-347.65c0,-175.2 -129.45,-320.04 -297.98,-344.13zM809.98,549.25c0,164.64 -133.34,297.98 -297.98,297.98c-164.64,0 -297.98,-133.34 -297.98,-297.98h74.49c0,123.29 100.19,223.49 223.49,223.49c123.29,0 223.49,-100.19 223.49,-223.49c0,-123.29 -100.19,-223.49 -223.49,-223.49v148.99l-186.24,-186.24l186.24,-186.24v148.99c164.64,0 297.98,133.35 297.98,297.99z" fill="currentColor"/>
		</g>
	</g>
</svg>