<svg version="1.1" xmlns="http://www.w3.org/2000/svg" xmlns:xlink="http://www.w3.org/1999/xlink" viewBox="0,0,1024,1024">
	<!-- Color names: teamapps-color-1 -->
	<desc>settings_ethernet icon - Licensed under Apache License v2.0 (http://www.apache.org/licenses/LICENSE-2.0) - Created with Iconfu.com - Derivative work of Material icons (Copyright Google Inc.)</desc>
	<g fill="none" fill-rule="nonzero" style="mix-blend-mode: normal">
		<g color="#039be5" class="teamapps-color-1">
			<path d="M978.47,553.52l-201.51,242.86c-22.95,27.65 -63.97,31.45 -91.61,8.48l-57.36,-47.68c-27.6,-22.95 -31.39,-63.92 -8.47,-91.54l42.64,-51.37h-38.43c-13.85,0 -26.7,-4.34 -37.25,-11.72c-10.55,7.38 -23.4,11.72 -37.25,11.72h-74.5c-13.85,0 -26.7,-4.34 -37.25,-11.72c-10.55,7.38 -23.4,11.72 -37.25,11.72h-38.43l42.64,51.37c22.93,27.62 19.14,68.59 -8.47,91.54l-57.36,47.68c-27.63,22.97 -68.66,19.17 -91.61,-8.48l-201.51,-242.86c-19.98,-24.08 -19.98,-58.96 0,-83.04l201.51,-242.86c22.95,-27.65 63.97,-31.45 91.61,-8.48l57.36,47.68c27.6,22.95 31.39,63.92 8.47,91.54l-42.64,51.37h38.43c13.85,0 26.7,4.34 37.25,11.72c10.55,-7.38 23.4,-11.72 37.25,-11.72h74.5c13.85,0 26.7,4.34 37.25,11.72c10.55,-7.38 23.4,-11.72 37.25,-11.72h38.43l-42.64,-51.37c-22.93,-27.62 -19.14,-68.59 8.47,-91.54l57.36,-47.68c27.63,-22.97 68.66,-19.17 91.61,8.48l201.51,242.86c19.98,24.08 19.98,58.96 0,83.04zM966.65,480.29l-201.51,-242.86c-17.53,-21.12 -48.86,-24.02 -69.97,-6.48l-57.36,47.68c-21.08,17.53 -23.98,48.82 -6.47,69.92l63.54,76.54h-71.14c-14.83,0 -28.15,6.5 -37.25,16.81c-9.1,-10.31 -22.41,-16.81 -37.25,-16.81h-74.5c-14.83,0 -28.15,6.5 -37.25,16.81c-9.1,-10.31 -22.41,-16.81 -37.25,-16.81h-71.14l63.54,-76.54c17.51,-21.09 14.62,-52.39 -6.47,-69.92l-57.36,-47.68c-21.11,-17.54 -52.44,-14.64 -69.97,6.48l-201.51,242.86c-15.26,18.39 -15.26,45.04 0,63.43l201.51,242.86c17.53,21.12 48.86,24.02 69.97,6.48l57.36,-47.68c21.08,-17.53 23.98,-48.82 6.47,-69.92l-63.54,-76.54h71.14c14.83,0 28.15,-6.5 37.25,-16.81c9.1,10.31 22.41,16.81 37.25,16.81h74.5c14.83,0 28.15,-6.5 37.25,-16.81c9.1,10.31 22.41,16.81 37.25,16.81h71.14l-63.54,76.54c-17.51,21.09 -14.62,52.39 6.47,69.92l57.36,47.68c21.11,17.54 52.44,14.64 69.97,-6.48l201.51,-242.86c15.26,-18.39 15.26,-45.04 0,-63.43zM928.43,512l-201.51,242.86l-57.36,-47.68l162.03,-195.18l-162.03,-195.18l57.36,-47.68zM192.41,512l162.03,195.18l-57.36,47.68l-201.51,-242.86l201.51,-242.86l57.36,47.68zM325.76,474.75h74.49v74.5h-74.49zM474.75,474.75h74.5v74.5h-74.5zM698.24,549.25h-74.49v-74.5h74.49z" fill="currentColor"/>
		</g>
	</g>
</svg>