<svg version="1.1" xmlns="http://www.w3.org/2000/svg" xmlns:xlink="http://www.w3.org/1999/xlink" viewBox="0,0,1024,1024">
	<!-- Color names: teamapps-color-1 -->
	<desc>shop_two icon - Licensed under Apache License v2.0 (http://www.apache.org/licenses/LICENSE-2.0) - Created with Iconfu.com - Derivative work of Material icons (Copyright Google Inc.)</desc>
	<g fill="none" fill-rule="nonzero" style="mix-blend-mode: normal">
		<g color="#039be5" class="teamapps-color-1">
			<path d="M986.75,251.26v409.73c0,77.26 -62.26,139.52 -139.52,139.52h-10.16c0.45,3.09 0.69,6.26 0.69,9.47c0,77.26 -62.27,139.53 -139.53,139.53h-521.47c-77.27,0 -139.52,-62.28 -139.52,-139.53v-409.73c0,-35.91 29.11,-65.02 65.02,-65.02h74.49c3.21,0 6.37,0.23 9.47,0.69v-84.66c0,-35.91 29.11,-65.02 65.02,-65.02h121.22v-9.47c0,-77.26 62.26,-139.52 139.52,-139.52h148.99c77.26,0 139.52,62.26 139.52,139.52v9.47h121.21c35.91,0 65.02,29.11 65.02,65.02zM921.73,201.6h-136.57v-24.83c0,-68.77 -55.38,-124.16 -124.16,-124.16h-148.99c-68.77,0 -124.16,55.38 -124.16,124.16v24.83h-136.58c-27.43,0 -49.66,22.24 -49.66,49.66v105.97c-7.3,-4.22 -15.78,-6.64 -24.83,-6.64h-74.49c-27.43,0 -49.66,22.24 -49.66,49.66v409.73c0,68.77 55.38,124.17 124.16,124.17h521.47c68.77,0 124.17,-55.39 124.17,-124.17c0,-9.04 -2.42,-17.52 -6.64,-24.83h31.47c68.77,0 124.16,-55.38 124.16,-124.16v-409.73c0,-27.43 -22.24,-49.66 -49.66,-49.66zM921.73,251.26v409.73c0,41.35 -33.15,74.49 -74.49,74.49h-521.47c-41.35,0 -74.5,-33.15 -74.5,-74.49v-409.73h186.25v-74.49c0,-41.35 33.15,-74.49 74.49,-74.49h148.99c41.35,0 74.49,33.15 74.49,74.49v74.49zM176.77,809.98h595.97c0,41.35 -33.16,74.5 -74.5,74.5h-521.47c-41.35,0 -74.49,-33.16 -74.49,-74.5v-409.73h74.49zM716.87,474.75l-204.87,-111.74v260.74zM512,251.26h148.99v-74.49h-148.99z" fill="currentColor"/>
		</g>
	</g>
</svg>