<svg version="1.1" xmlns="http://www.w3.org/2000/svg" xmlns:xlink="http://www.w3.org/1999/xlink" viewBox="0,0,1024,1024">
	<!-- Color names: teamapps-color-1 -->
	<desc>show_chart icon - Licensed under Apache License v2.0 (http://www.apache.org/licenses/LICENSE-2.0) - Created with Iconfu.com - Derivative work of Material icons (Copyright Google Inc.)</desc>
	<g fill="none" fill-rule="nonzero" style="mix-blend-mode: normal">
		<g color="#039be5" class="teamapps-color-1">
			<path d="M93.51,651.92l279.36,-279.74c25.39,-25.42 66.58,-25.44 91.99,-0.03l100.25,100.25l218.27,-245.37c24.86,-27.95 68.11,-29.21 94.56,-2.76l52.52,52.52c24.35,24.35 25.49,63.45 2.62,89.18l-316.61,356.1c-24.86,27.96 -68.12,29.23 -94.57,2.77l-102.98,-102.98l-177.51,177.81c-25.39,25.43 -66.59,25.45 -92,0.04l-55.87,-55.87c-25.38,-25.38 -25.4,-66.53 -0.03,-91.93zM104.4,732.99l55.87,55.87c19.41,19.41 50.87,19.39 70.26,-0.03l188.37,-188.69l113.85,113.85c20.2,20.2 53.25,19.24 72.23,-2.12l316.61,-356.1c17.47,-19.65 16.6,-49.52 -2,-68.12l-52.52,-52.52c-20.2,-20.2 -53.24,-19.24 -72.22,2.11l-229.1,257.53l-111.77,-111.77c-19.4,-19.4 -50.87,-19.39 -70.26,0.02l-279.36,279.74c-19.37,19.4 -19.36,50.83 0.02,70.21zM139.52,697.87l279.36,-279.74l148.99,148.99l264.09,-296.87l52.52,52.52l-316.61,356.1l-148.99,-148.99l-223.49,223.86z" fill="currentColor"/>
		</g>
	</g>
</svg>