<svg version="1.1" xmlns="http://www.w3.org/2000/svg" xmlns:xlink="http://www.w3.org/1999/xlink" viewBox="0,0,1024,1024">
	<!-- Color names: teamapps-color-1 -->
	<desc>signal_wifi_off icon - Licensed under Apache License v2.0 (http://www.apache.org/licenses/LICENSE-2.0) - Created with Iconfu.com - Derivative work of Material icons (Copyright Google Inc.)</desc>
	<g fill="none" fill-rule="nonzero" style="mix-blend-mode: normal">
		<g color="#039be5" class="teamapps-color-1">
			<path d="M874.59,806.79l-47.31,47.31c-25.39,25.39 -66.56,25.39 -91.96,0l-72.38,-72.38l-100.24,124.84c-12.34,15.37 -30.99,24.31 -50.71,24.31c-19.71,0 -38.36,-8.95 -50.7,-24.32l-433.57,-540.09c-22.68,-28.25 -17.9,-69.58 10.62,-91.91c6.31,-4.94 30.47,-24.25 69.52,-47.85l-14.44,-14.52c-25.22,-25.34 -25.25,-66.29 -0.06,-91.67l47.31,-47.67c25.37,-25.57 66.69,-25.64 92.15,-0.16l77.3,77.34c8.67,-9.19 19.98,-15.82 32.73,-18.76c51.08,-11.75 107.77,-19.53 169.16,-19.53c273.06,0 455.01,148.72 472.77,162.14c29.25,22.1 34.45,64 11.5,92.59l-203.37,253.28c-1.98,2.47 -4.13,4.78 -6.42,6.91l88.13,88.18c25.38,25.4 25.38,66.56 -0.01,91.94zM863.74,725.71l-101.27,-101.32c7.11,-3.18 13.46,-8.03 18.45,-14.24l203.37,-253.28c17.53,-21.83 13.56,-53.83 -8.78,-70.72c-17.52,-13.24 -195.91,-159.04 -463.51,-159.04c-60.09,0 -115.62,7.62 -165.72,19.14c-15.15,3.49 -27.64,13.81 -34,27.68l-90.33,-90.38c-19.45,-19.46 -51,-19.4 -70.38,0.13l-47.31,47.67c-19.23,19.38 -19.21,50.66 0.05,70.01l28.42,28.56c-48.22,27.49 -77.92,51.25 -84.92,56.73c-21.78,17.05 -25.43,48.62 -8.11,70.2l433.57,540.09c9.43,11.74 23.67,18.57 38.73,18.57c15.06,0 29.3,-6.83 38.73,-18.57l110.96,-138.2l84.49,84.49c19.39,19.39 50.84,19.39 70.24,0l47.31,-47.31c19.39,-19.39 19.4,-50.83 0.01,-70.23zM828.61,760.81l-47.31,47.31l-123.66,-123.66l-145.27,181.03l-0.38,0.37l-0.38,-0.37l-433.19,-539.72c8.56,-6.7 57.73,-46.19 137.45,-82.69l-76.36,-76.74l47.31,-47.67l512.9,513.28zM742.19,579.05l-384.77,-384.4c46.93,-10.8 98.71,-17.88 154.58,-17.88c249.93,0 416.81,136.33 433.57,148.99z" fill="currentColor"/>
		</g>
	</g>
</svg>