<svg version="1.1" xmlns="http://www.w3.org/2000/svg" xmlns:xlink="http://www.w3.org/1999/xlink" viewBox="0,0,1024,1024">
	<!-- Color names: teamapps-color-1 -->
	<desc>store icon - Licensed under Apache License v2.0 (http://www.apache.org/licenses/LICENSE-2.0) - Created with Iconfu.com - Derivative work of Material icons (Copyright Google Inc.)</desc>
	<g fill="none" fill-rule="nonzero" style="mix-blend-mode: normal">
		<g color="#039be5" class="teamapps-color-1">
			<path d="M875.01,809.98c0,35.91 -29.11,65.02 -65.02,65.02h-74.49c-35.91,0 -65.02,-29.11 -65.02,-65.02v-158.46h-18.95v158.46c0,35.91 -29.11,65.02 -65.02,65.02h-372.47c-35.91,0 -65.02,-29.11 -65.02,-65.02v-164.68c-22.01,-10.41 -37.25,-32.81 -37.25,-58.81l0.16,-76.18c0.01,-3.72 0.38,-7.42 1.11,-11.07l37.25,-186.24c0.4,-1.99 0.88,-3.94 1.45,-5.85c-1.77,-5.92 -2.72,-12.18 -2.72,-18.65v-74.49c0,-35.91 29.11,-65.02 65.02,-65.02h595.96c35.91,0 65.02,29.11 65.02,65.02v74.49c0,6.53 -0.97,12.85 -2.77,18.83l1.51,5.68l37.41,187.84c0.73,3.67 1.1,7.4 1.1,11.14v74.49c0,25.99 -15.24,48.4 -37.25,58.81zM859.65,634.59c21.42,-5.51 37.25,-24.96 37.25,-48.1v-74.49c0,-2.73 -0.27,-5.46 -0.8,-8.14l-37.41,-187.84c-0.62,-3.08 -1.51,-6.05 -2.65,-8.87c2.33,-5.75 3.62,-12.05 3.62,-18.64v-74.49c0,-27.43 -22.24,-49.66 -49.66,-49.66h-595.96c-27.43,0 -49.66,22.24 -49.66,49.66v74.49c0,6.59 1.28,12.88 3.62,18.64c-1.14,2.83 -2.03,5.79 -2.65,8.87l-37.25,186.24c-0.53,2.66 -0.8,5.37 -0.81,8.09l-0.16,76.15c0,23.14 15.83,42.59 37.25,48.1v175.39c0,27.43 22.24,49.66 49.66,49.66h372.47c27.43,0 49.66,-22.24 49.66,-49.66v-173.82h49.67v173.82c0,27.43 22.24,49.66 49.66,49.66h74.49c27.43,0 49.66,-22.24 49.66,-49.66zM809.98,586.49v223.49h-74.49v-223.49h-148.99v223.49h-372.47v-223.49h-37.25v-74.49l37.25,-186.24h595.96l37.25,186.24v74.49zM809.98,288.51h-595.96v-74.49h595.96zM512,586.49h-223.49v148.99h223.49z" fill="currentColor"/>
		</g>
	</g>
</svg>