<svg version="1.1" xmlns="http://www.w3.org/2000/svg" xmlns:xlink="http://www.w3.org/1999/xlink" viewBox="0,0,1024,1024">
	<!-- Color names: teamapps-color-1 -->
	<desc>streetview icon - Licensed under Apache License v2.0 (http://www.apache.org/licenses/LICENSE-2.0) - Created with Iconfu.com - Derivative work of Material icons (Copyright Google Inc.)</desc>
	<g fill="none" fill-rule="nonzero" style="mix-blend-mode: normal">
		<g color="#039be5" class="teamapps-color-1">
			<path d="M244.72,871.24c-25.39,25.39 -66.56,25.39 -91.96,0c-24.73,-24.73 -41.02,-59.57 -41.02,-98.5v-521.48c0,-76.88 62.64,-139.52 139.52,-139.52h269.68c10.36,0 20.38,2.47 29.32,6.99c45.91,-50.06 111.91,-81.48 185.22,-81.48c138.77,0 251.26,112.49 251.26,251.26c0,84.91 -42.12,159.96 -106.55,205.43c19.6,11.52 32.06,32.71 32.06,56.05v222.75c0,76.88 -62.64,139.52 -139.52,139.52h-260.74c-35.91,0 -65.02,-29.11 -65.02,-65.02v-178.25zM462.91,631.32c-0.38,3.64 -0.58,7.32 -0.58,11.04v204.87c0,27.43 22.24,49.66 49.66,49.66h260.74c68.4,0 124.16,-55.76 124.16,-124.16v-222.75c0,-21.09 -13.32,-39.88 -33.21,-46.86c-5.98,-2.1 -12.04,-4.07 -18.16,-5.9c74.86,-39.54 125.87,-118.17 125.87,-208.72c0,-130.29 -105.62,-235.9 -235.9,-235.9c-73.5,0 -139.14,33.61 -182.4,86.3c-8.85,-7.51 -20.2,-11.8 -32.14,-11.8h-269.68c-68.4,0 -124.16,55.76 -124.16,124.16v521.48c0,34.57 14.46,65.57 36.52,87.64c19.4,19.39 50.84,19.39 70.24,0zM735.49,530.62c39.11,0 76.73,7.08 111.74,19.37v222.75c0,40.97 -33.52,74.49 -74.49,74.49h-260.74v-204.87c0,-17.5 8.19,-33.52 20.86,-43.58c56.25,-42.09 127.02,-68.16 202.63,-68.16zM549.25,288.51c0,-102.86 83.38,-186.24 186.24,-186.24c102.86,0 186.24,83.38 186.24,186.24c0,102.86 -83.38,186.24 -186.24,186.24c-102.86,0 -186.24,-83.38 -186.24,-186.24zM564.52,459.48l-365.78,365.78c-13.41,-13.41 -21.97,-32.03 -21.97,-52.52v-521.48c0,-40.97 33.52,-74.49 74.49,-74.49h269.68c-17.5,33.52 -27.56,71.52 -27.56,111.74c0,67.05 27.19,127.39 71.14,170.97z" fill="currentColor"/>
		</g>
	</g>
</svg>