<svg version="1.1" xmlns="http://www.w3.org/2000/svg" xmlns:xlink="http://www.w3.org/1999/xlink" viewBox="0,0,1024,1024">
	<!-- Color names: teamapps-color-1 -->
	<desc>tap_and_play icon - Licensed under Apache License v2.0 (http://www.apache.org/licenses/LICENSE-2.0) - Created with Iconfu.com - Derivative work of Material icons (Copyright Google Inc.)</desc>
	<g fill="none" fill-rule="nonzero" style="mix-blend-mode: normal">
		<g color="#039be5" class="teamapps-color-1">
			<path d="M837.76,176.77v633.21c0,76.88 -62.64,139.53 -139.53,139.53h-77.47c-4.15,0 -8.23,-0.39 -12.19,-1.14c-10.17,22.62 -32.9,38.39 -59.33,38.39h-74.5c-13.85,0 -26.7,-4.34 -37.25,-11.72c-10.55,7.38 -23.4,11.72 -37.25,11.72h-74.49c-13.85,0 -26.7,-4.34 -37.25,-11.72c-10.55,7.38 -23.4,11.72 -37.25,11.72h-111.74c-35.91,0 -65.02,-29.11 -65.02,-65.02v-111.74c0,-13.85 4.34,-26.7 11.72,-37.25c-7.38,-10.55 -11.72,-23.4 -11.72,-37.25v-74.49c0,-13.85 4.34,-26.7 11.72,-37.25c-7.38,-10.55 -11.72,-23.4 -11.72,-37.25v-74.49c0,-35.91 29.11,-65.02 65.02,-65.02c15.76,0 31.35,0.77 46.72,2.27v-272.47c0,-76.89 62.65,-139.52 139.53,-139.52l372.54,0.37c76.41,0.03 139.46,61.85 139.46,139.15zM698.29,52.98l-372.52,-0.37c-68.39,0 -124.17,55.75 -124.17,124.16v274.51c0,5.4 0.87,10.63 2.49,15.55c-21.1,-2.96 -42.65,-4.49 -64.57,-4.49c-27.43,0 -49.66,22.24 -49.66,49.66v74.49c0,14.83 6.5,28.15 16.82,37.25c-10.31,9.1 -16.82,22.42 -16.82,37.25v74.49c0,14.83 6.5,28.15 16.81,37.25c-10.31,9.1 -16.81,22.41 -16.81,37.25v111.74c0,27.43 22.24,49.66 49.66,49.66h111.74c14.83,0 28.15,-6.5 37.25,-16.82c9.1,10.31 22.42,16.82 37.25,16.82h74.49c14.83,0 28.15,-6.5 37.25,-16.81c9.1,10.31 22.41,16.81 37.25,16.81h74.5c25.01,0 45.71,-18.49 49.16,-42.55c6.74,3.4 14.34,5.31 22.36,5.31h77.47c68.4,0 124.17,-55.77 124.17,-124.17v-633.21c0,-68.71 -56.07,-123.77 -124.12,-123.79zM772.74,176.77v633.21c0,40.97 -33.53,74.5 -74.5,74.5h-77.47c-4.09,-52.52 -16.02,-102.44 -35.39,-148.99h112.86v-484.23h-372.47v223.86c-23.84,-10.06 -48.8,-17.88 -74.5,-23.84v-274.51c0,-40.97 33.53,-74.49 74.5,-74.49l372.47,0.37c40.97,0 74.5,33.16 74.5,74.13zM549.25,921.73h-74.5c0,-185.12 -150.11,-335.23 -335.23,-335.23v-74.49c226.46,0 409.73,183.26 409.73,409.73zM400.26,921.73h-74.49c0,-102.8 -83.44,-186.24 -186.25,-186.24v-74.49c144.15,0 260.74,116.58 260.74,260.73zM251.26,921.73h-111.74v-111.74c61.83,0 111.74,49.91 111.74,111.74z" fill="currentColor"/>
		</g>
	</g>
</svg>