<svg version="1.1" xmlns="http://www.w3.org/2000/svg" xmlns:xlink="http://www.w3.org/1999/xlink" viewBox="0,0,1024,1024">
	<!-- Color names: teamapps-color-1 -->
	<desc>timer icon - Licensed under Apache License v2.0 (http://www.apache.org/licenses/LICENSE-2.0) - Created with Iconfu.com - Derivative work of Material icons (Copyright Google Inc.)</desc>
	<g fill="none" fill-rule="nonzero" style="mix-blend-mode: normal">
		<g color="#039be5" class="teamapps-color-1">
			<path d="M912.26,549.25c0,220.98 -178.8,400.26 -400.26,400.26c-221.45,0 -400.26,-179.27 -400.26,-400.26c0,-158.1 91.69,-294.77 224.73,-359.8c-0.81,-4.11 -1.24,-8.35 -1.24,-12.68v-74.49c0,-35.91 29.11,-65.02 65.02,-65.02h223.49c35.91,0 65.02,29.11 65.02,65.02v74.49c0,4.42 -0.44,8.74 -1.29,12.92c8.85,4.35 17.52,9.01 26,13.97l14.76,-14.76c23.68,-23.68 61.47,-25.51 87.32,-4.22c22.58,18.59 42.84,39.38 60.89,60.79c21.77,25.82 20.15,64.01 -3.73,87.89l-14.82,14.82c34.46,59.07 54.35,127.8 54.35,201.06zM838.54,345.83l23.32,-23.32c18.24,-18.24 19.48,-47.41 2.85,-67.13c-17.57,-20.84 -37.18,-40.94 -58.91,-58.84c-19.74,-16.26 -48.61,-14.87 -66.69,3.22l-23.28,23.28c-15.05,-9.44 -30.78,-17.87 -47.1,-25.19c3,-6.4 4.68,-13.54 4.68,-21.08v-74.49c0,-27.43 -22.24,-49.66 -49.66,-49.66h-223.49c-27.43,0 -49.66,22.24 -49.66,49.66v74.49c0,7.46 1.64,14.54 4.59,20.88c-134.4,60.05 -228.08,194.9 -228.08,351.6c0,212.51 171.94,384.9 384.9,384.9c212.96,0 384.9,-172.38 384.9,-384.9c0,-74.66 -21.47,-144.41 -58.35,-203.42zM847.23,549.25c0,185.12 -149.74,335.23 -335.23,335.23c-185.5,0 -335.23,-150.11 -335.23,-335.23c0,-185.12 150.11,-335.23 335.23,-335.23c78.96,0 151.61,27.56 209.34,73.75l52.89,-52.9c19,15.64 36.5,33.52 52.52,52.52l-52.89,52.9c45.82,57.36 73.38,130 73.38,208.96zM772.74,549.25c0,-144.15 -116.59,-260.74 -260.74,-260.74c-144.15,0 -260.74,116.59 -260.74,260.74c0,144.15 116.59,260.73 260.74,260.73c144.15,0 260.74,-116.58 260.74,-260.73zM623.74,176.77h-223.49v-74.49h223.49zM474.75,363.01h74.5v223.49h-74.5z" fill="currentColor"/>
		</g>
	</g>
</svg>