<svg version="1.1" xmlns="http://www.w3.org/2000/svg" xmlns:xlink="http://www.w3.org/1999/xlink" viewBox="0,0,1024,1024">
	<!-- Color names: teamapps-color-1 -->
	<desc>view_array icon - Licensed under Apache License v2.0 (http://www.apache.org/licenses/LICENSE-2.0) - Created with Iconfu.com - Derivative work of Material icons (Copyright Google Inc.)</desc>
	<g fill="none" fill-rule="nonzero" style="mix-blend-mode: normal">
		<g color="#039be5" class="teamapps-color-1">
			<path d="M363.01,186.24h335.23c6.45,0 12.71,0.94 18.63,2.71c5.92,-1.77 12.17,-2.71 18.63,-2.71h111.74c35.91,0 65.02,29.11 65.02,65.02v484.23c0,35.91 -29.11,65.02 -65.02,65.02h-111.74c-6.45,0 -12.71,-0.94 -18.63,-2.71c-5.92,1.77 -12.17,2.71 -18.63,2.71h-335.23c-6.45,0 -12.71,-0.94 -18.62,-2.71c-5.91,1.77 -12.17,2.71 -18.62,2.71h-111.74c-35.91,0 -65.02,-29.11 -65.02,-65.02v-484.23c0,-35.91 29.11,-65.02 65.02,-65.02h111.74c6.45,0 12.71,0.94 18.62,2.71c5.91,-1.77 12.17,-2.71 18.62,-2.71zM344.38,205.21c-5.75,-2.33 -12.04,-3.61 -18.62,-3.61h-111.74c-27.43,0 -49.66,22.24 -49.66,49.66v484.23c0,27.43 22.24,49.66 49.66,49.66h111.74c6.58,0 12.87,-1.28 18.62,-3.61c5.75,2.33 12.04,3.61 18.62,3.61h335.23c6.59,0 12.87,-1.28 18.63,-3.61c5.75,2.33 12.04,3.61 18.63,3.61h111.74c27.43,0 49.66,-22.24 49.66,-49.66v-484.23c0,-27.43 -22.24,-49.66 -49.66,-49.66h-111.74c-6.59,0 -12.87,1.28 -18.63,3.61c-5.75,-2.33 -12.04,-3.61 -18.63,-3.61h-335.23c-6.58,0 -12.87,1.28 -18.62,3.61zM363.01,251.26h335.23v484.23h-335.23zM847.23,251.26v484.23h-111.74v-484.23zM214.02,251.26h111.74v484.23h-111.74z" fill="currentColor"/>
		</g>
	</g>
</svg>