<svg version="1.1" xmlns="http://www.w3.org/2000/svg" xmlns:xlink="http://www.w3.org/1999/xlink" viewBox="0,0,1024,1024">
	<!-- Color names: teamapps-color-1 -->
	<desc>visibility_off icon - Licensed under Apache License v2.0 (http://www.apache.org/licenses/LICENSE-2.0) - Created with Iconfu.com - Derivative work of Material icons (Copyright Google Inc.)</desc>
	<g fill="none" fill-rule="nonzero" style="mix-blend-mode: normal">
		<g color="#039be5" class="teamapps-color-1">
			<path d="M232.8,130.79l83.29,83.29c6.86,-7.27 15.41,-12.97 25.1,-16.49c53.08,-19.26 110.48,-29.98 170.42,-29.98c213.94,0 396.37,133.11 470.23,320.55c6.03,15.29 6.04,32.3 0.03,47.6c-30.76,78.36 -80.53,147.08 -143.58,200.53l54.91,54.91c25.39,25.39 25.39,66.56 0,91.96l-47.31,47.31c-25.37,25.37 -66.49,25.4 -91.89,0.07l-95.93,-95.65c-46.22,13.96 -95.31,21.5 -146.08,21.5c-213.95,0 -396.36,-133.11 -470.22,-320.55c-6.04,-15.32 -6.04,-32.35 0,-47.67c24.29,-61.65 60.33,-117.37 105.49,-164.39l-53.73,-53.72c-25.4,-25.39 -25.4,-66.57 0,-91.96l47.31,-47.31c25.39,-25.39 66.56,-25.39 91.96,0zM151.71,141.65l-47.31,47.31c-19.4,19.4 -19.39,50.84 0,70.24l64.54,64.53c-48.76,47.74 -87.46,105.56 -112.87,170.07c-4.61,11.7 -4.61,24.71 0,36.41c71.63,181.79 248.53,310.82 455.93,310.82c52.45,0 103.03,-8.3 150.36,-23.57l102.5,102.2c19.4,19.35 50.81,19.32 70.18,-0.05l47.31,-47.31c19.39,-19.39 19.39,-50.84 0,-70.24l-68,-68c3.9,-1.79 7.62,-4.12 11.06,-7c62.55,-52.19 111.88,-119.74 142.18,-196.92c4.59,-11.69 4.58,-24.67 -0.02,-36.35c-71.63,-181.79 -248.54,-310.82 -455.94,-310.82c-58.1,0 -113.74,10.39 -165.19,29.06c-12.62,4.58 -22.69,14 -28.18,25.93l-96.32,-96.32c-19.4,-19.39 -50.84,-19.39 -70.24,0zM186.82,176.77l660.41,660.41l-47.31,47.31l-109.13,-108.77l-15.64,-15.64c-50.28,20.11 -105.41,31.29 -163.15,31.29c-186.24,0 -345.29,-115.84 -409.73,-279.36c29.05,-73.75 77.47,-137.82 139.3,-185.87l-102.06,-102.05zM443.84,339.17l-80.46,-80.46c46.19,-16.76 96.1,-26.08 148.24,-26.08c186.24,0 345.3,115.84 409.73,279.36c-27.19,69.28 -71.52,130 -127.76,176.93l-108.77,-108.77c8.56,-21.23 13.41,-43.96 13.41,-68.16c0,-102.8 -83.43,-186.24 -186.24,-186.24c-24.21,0 -46.93,4.85 -68.16,13.41zM325.76,512c0,102.8 83.43,186.24 186.24,186.24c29.43,0 56.99,-7.45 81.95,-19.74l-57.74,-57.73c-7.82,1.86 -16.01,2.98 -24.21,2.98c-61.83,0 -111.74,-49.91 -111.74,-111.74c0,-8.2 1.12,-16.39 2.98,-24.21l-57.73,-57.74c-12.29,24.96 -19.74,52.52 -19.74,81.95zM512.38,400.63c61.83,0 111.74,49.91 111.74,111.74l-0.75,5.95l-117.33,-117.33z" fill="currentColor"/>
		</g>
	</g>
</svg>