<svg version="1.1" xmlns="http://www.w3.org/2000/svg" xmlns:xlink="http://www.w3.org/1999/xlink" viewBox="0,0,1024,1024">
	<!-- Color names: teamapps-color-1 -->
	<desc>wb_auto icon - Licensed under Apache License v2.0 (http://www.apache.org/licenses/LICENSE-2.0) - Created with Iconfu.com - Derivative work of Material icons (Copyright Google Inc.)</desc>
	<g fill="none" fill-rule="nonzero" style="mix-blend-mode: normal">
		<g color="#039be5" class="teamapps-color-1">
			<path d="M1014.93,340.2l-76.36,335.23c-6.74,29.59 -33.05,50.58 -63.4,50.58h-65.19c-23.37,0 -44.38,-12.45 -55.87,-31.75c-11.49,19.29 -32.5,31.75 -55.87,31.75h-42.44c-65.82,90 -172.36,148.99 -292.8,148.99c-200.55,0 -363.01,-162.45 -363.01,-363.01c0,-200.55 162.45,-363.01 363.01,-363.01c103.21,0 195.82,43 261.78,111.75c19.63,0.31 37.42,9.39 49.24,23.79c12.05,-14.68 30.3,-23.79 50.28,-23.79h59.6c19.99,0 38.23,9.11 50.28,23.79c12.03,-14.65 30.24,-23.79 50.28,-23.79h67.05c19.78,0 38.49,9.01 50.83,24.47c12.34,15.46 16.96,35.71 12.57,54.99zM990.35,294.79c-9.42,-11.81 -23.71,-18.69 -38.82,-18.69h-67.05c-23.84,0 -44.32,16.94 -48.78,40.36l-1.31,6.87l-2.17,-9.08c-5.33,-22.36 -25.32,-38.14 -48.31,-38.14h-59.6c-23.02,0 -43.02,15.82 -48.33,38.22l-2.14,9.02l-1.34,-6.95c-4.5,-23.38 -24.96,-40.28 -48.77,-40.28h-5.59c-63.45,-68.62 -153.97,-111.74 -255.14,-111.74c-192.07,0 -347.65,155.58 -347.65,347.65c0,192.07 155.58,347.65 347.65,347.65c118.08,0 222.25,-59.21 284.89,-148.99h50.34c22.86,0 42.77,-15.61 48.23,-37.8l7.64,-31.09l7.64,31.09c5.46,22.2 25.37,37.8 48.23,37.8h65.19c23.18,0 43.28,-16.03 48.42,-38.63l76.36,-335.23c3.36,-14.73 -0.18,-30.19 -9.6,-42zM951.53,325.76l-76.36,335.23h-65.19l-55.87,-227.22l-55.87,227.22h-65.18l-3.73,-16.02c-48.79,97.59 -149.74,165.01 -266.33,165.01c-164.64,0 -297.98,-133.34 -297.98,-297.98c0,-164.64 133.34,-297.98 297.98,-297.98c94.24,0 177.67,43.58 232.43,111.74h28.31l45.07,234.29l55.5,-234.29h59.6l55.87,234.29l44.7,-234.29zM519.45,660.99l-119.19,-335.23h-74.49l-119.2,335.23h70.77l26.08,-74.5h119.19l26.08,74.5zM363.01,400.26l42.84,135.95h-85.67z" fill="currentColor"/>
		</g>
	</g>
</svg>