<svg version="1.1" xmlns="http://www.w3.org/2000/svg" xmlns:xlink="http://www.w3.org/1999/xlink" viewBox="0,0,1024,1024">
	<!-- Color names: teamapps-color-1 -->
	<desc>wifi icon - Licensed under Apache License v2.0 (http://www.apache.org/licenses/LICENSE-2.0) - Created with Iconfu.com - Derivative work of Material icons (Copyright Google Inc.)</desc>
	<g fill="none" fill-rule="nonzero" style="mix-blend-mode: normal">
		<g color="#039be5" class="teamapps-color-1">
			<path d="M967.7,446.23l-74.49,74.49c-15.33,15.33 -36.4,21.4 -56.26,18.23c3.17,19.87 -2.9,40.95 -18.23,56.27l-74.5,74.49c-15.33,15.33 -36.39,21.39 -56.26,18.23c3.17,19.87 -2.91,40.94 -18.23,56.26l-111.74,111.74c-25.39,25.39 -66.56,25.39 -91.96,0l-111.74,-111.74c-15.33,-15.33 -21.4,-36.39 -18.23,-56.26c-19.87,3.17 -40.93,-2.9 -56.26,-18.23l-74.5,-74.49c-15.33,-15.33 -21.4,-36.4 -18.23,-56.27c-19.87,3.17 -40.94,-2.9 -56.26,-18.23l-74.49,-74.49c-25.41,-25.41 -25.39,-66.61 0.04,-92c251.83,-251.42 659.86,-251.48 911.37,0.04c25.39,25.39 25.39,66.56 0,91.96zM956.84,365.14c-245.51,-245.51 -643.82,-245.47 -889.66,-0.03c-19.42,19.39 -19.43,50.86 -0.03,70.26l74.49,74.49c19.4,19.39 50.84,19.39 70.24,0c165.72,-165.72 434.5,-165.72 600.23,0c19.39,19.39 50.84,19.39 70.24,0l74.49,-74.49c19.39,-19.39 19.39,-50.84 0,-70.24zM807.86,514.13c-163.19,-163.19 -428.16,-163.13 -591.67,-0.05c-19.44,19.39 -19.46,50.87 -0.04,70.28l74.5,74.49c19.4,19.39 50.84,19.39 70.23,0c83.41,-83.41 218.83,-83.41 302.24,0c19.39,19.39 50.84,19.4 70.23,0l74.5,-74.49c19.4,-19.39 19.4,-50.84 0,-70.24zM658.97,663.23c-80.94,-81.43 -212.66,-81.28 -293.83,-0.11c-19.39,19.39 -19.39,50.84 0,70.24l111.74,111.74c19.39,19.39 50.84,19.39 70.24,0l111.74,-111.74c19.35,-19.35 19.4,-50.72 0.11,-70.13zM921.73,400.26l-74.49,74.49c-185.12,-185.12 -485.34,-185.12 -670.46,0l-74.49,-74.49c226.46,-226.1 593.35,-226.1 819.45,0zM772.74,549.25l-74.5,74.49c-102.8,-102.8 -269.67,-102.8 -372.47,0l-74.5,-74.49c144.15,-143.77 377.7,-143.77 521.48,0zM623.74,698.24l-111.74,111.74l-111.74,-111.74c61.83,-61.83 162.03,-61.83 223.49,0z" fill="currentColor"/>
		</g>
	</g>
</svg>