<svg version="1.1" xmlns="http://www.w3.org/2000/svg" xmlns:xlink="http://www.w3.org/1999/xlink" viewBox="0,0,1024,1024">
	<!-- Color names: teamapps-color-1 -->
	<desc>wifi_lock icon - Licensed under Apache License v2.0 (http://www.apache.org/licenses/LICENSE-2.0) - Created with Iconfu.com - Derivative work of Material icons (Copyright Google Inc.)</desc>
	<g fill="none" fill-rule="nonzero" style="mix-blend-mode: normal">
		<g color="#039be5" class="teamapps-color-1">
			<path d="M564.03,923.48c-12.28,16.38 -31.55,26.03 -52.02,26.03c-20.47,0 -39.75,-9.63 -52.03,-26.01l-446.98,-595.97c-21.53,-28.71 -15.73,-69.44 12.96,-91c135.29,-101.66 303.85,-162.04 486.04,-162.04c182.19,0 350.75,60.38 486.04,162.04c28.71,21.57 34.49,62.33 12.92,91.04l-100.19,133.35c-1.61,2.14 -3.33,4.16 -5.15,6.05c48.38,27.04 81.14,78.77 81.14,138.15v14.24c22.68,18.71 37.25,47.07 37.25,78.88v148.99c0,56.4 -45.87,102.27 -102.27,102.27h-186.24c-56.4,0 -102.27,-45.87 -102.27,-102.27v-16.06zM648.57,785.06v62.17c0,47.92 39,86.91 86.91,86.91h186.24c47.92,0 86.91,-39 86.91,-86.91v-148.99c0,-29.52 -14.77,-55.57 -37.25,-71.27v-21.84c0,-63.29 -41.22,-117 -98.27,-135.71c9.96,-3 18.9,-9.11 25.37,-17.72l100.19,-133.35c16.48,-21.93 12.06,-53.06 -9.87,-69.54c-132.72,-99.73 -298.07,-158.96 -476.81,-158.96c-178.74,0 -344.09,59.22 -476.81,158.96c-21.91,16.47 -26.34,47.57 -9.9,69.5l446.98,595.97c9.38,12.51 24.11,19.87 39.74,19.87c15.64,0 30.36,-7.37 39.73,-19.88zM642.37,605.12v105.41l-130.37,173.95l-446.98,-595.97c124.41,-93.49 279.36,-148.99 446.98,-148.99c167.62,0 322.56,55.51 446.98,148.99l-100.19,133.35c-9.68,-1.49 -19.74,-2.99 -30.17,-2.99c-102.8,0 -186.25,83.44 -186.25,186.25zM958.98,698.24v148.99c0,20.49 -16.76,37.25 -37.25,37.25h-186.24c-20.49,0 -37.25,-16.76 -37.25,-37.25v-148.99c0,-20.49 16.76,-37.24 37.25,-37.24v-55.87c0,-51.4 41.72,-93.12 93.12,-93.12c51.4,0 93.11,41.72 93.11,93.12v55.87c20.49,0 37.25,16.75 37.25,37.24zM884.48,605.12c0,-30.91 -24.96,-55.87 -55.87,-55.87c-30.91,0 -55.87,24.96 -55.87,55.87v55.87h111.74z" fill="currentColor"/>
		</g>
	</g>
</svg>