<svg version="1.1" xmlns="http://www.w3.org/2000/svg" xmlns:xlink="http://www.w3.org/1999/xlink" viewBox="0,0,1024,1024">
	<!-- Color names: teamapps-color-1, teamapps-color-2, teamapps-color-3 -->
	<desc>ac_unit icon - Licensed under Apache License v2.0 (http://www.apache.org/licenses/LICENSE-2.0) - Created with Iconfu.com - Derivative work of Material icons (Copyright Google Inc.)</desc>
	<defs>
		<clipPath id="clip-vfbR1a7B">
			<path d="M938.67,554.67h-177.92l138.24,138.24l-60.16,60.58l-198.83,-198.82h-85.33v85.33l198.82,198.83l-60.58,60.16l-138.24,-138.24v177.92h-85.34v-177.92l-138.24,138.24l-60.58,-60.16l198.82,-198.83v-85.33h-85.33l-198.83,198.82l-60.16,-60.58l138.24,-138.24h-177.92v-85.34h177.92l-138.24,-138.24l60.16,-60.58l198.83,198.82h85.33v-85.33l-198.82,-198.83l60.58,-60.16l138.24,138.24v-177.92h85.34v177.92l138.24,-138.24l60.58,60.16l-198.82,198.83v85.33h85.33l198.83,-198.82l60.16,60.58l-138.24,138.24h177.92z"/>
		</clipPath>
		<linearGradient x1="0" y1="1024" x2="1024" y2="0" id="color-Jdq8cNzr" gradientUnits="userSpaceOnUse">
			<stop offset="0.2" stop-color="#000000"/>
			<stop offset="0.8" stop-color="#ffffff"/>
		</linearGradient>
		<radialGradient cx="0" cy="0" r="1448.15" id="color-LISkmaYZ" gradientUnits="userSpaceOnUse">
			<stop offset="0.07" stop-color="#ffffff"/>
			<stop offset="0.75" stop-color="#000000"/>
		</radialGradient>
		<filter id="filter-2CfzFV98" x="0%" y="0%" width="100%" height="100%" color-interpolation-filters="sRGB">
			<feColorMatrix values="1 0 0 0 0 0 1 0 0 0 0 0 1 0 0 0 0 0 0.05 0" in="SourceGraphic"/>
			<feOffset dy="20"/>
			<feGaussianBlur stdDeviation="11" result="blur0"/>
			<feColorMatrix values="1 0 0 0 0 0 1 0 0 0 0 0 1 0 0 0 0 0 0.07 0" in="SourceGraphic"/>
			<feOffset dy="30"/>
			<feGaussianBlur stdDeviation="20" result="blur1"/>
			<feMerge>
				<feMergeNode in="blur0"/>
				<feMergeNode in="blur1"/>
			</feMerge>
		</filter>
		<filter id="filter-eMP8er53" color-interpolation-filters="sRGB">
			<feOffset/>
		</filter>
		<mask id="mask-oYTB52tp">
			<rect fill="url(#color-Jdq8cNzr)" x="85.33" y="85.33" width="853.34" height="853.34"/>
		</mask>
		<mask id="mask-Ts1dRT2W">
			<path d="M938.67,554.67h-177.92l138.24,138.24l-60.16,60.58l-198.83,-198.82h-85.33v85.33l198.82,198.83l-60.58,60.16l-138.24,-138.24v177.92h-85.34v-177.92l-138.24,138.24l-60.58,-60.16l198.82,-198.83v-85.33h-85.33l-198.83,198.82l-60.16,-60.58l138.24,-138.24h-177.92v-85.34h177.92l-138.24,-138.24l60.16,-60.58l198.83,198.82h85.33v-85.33l-198.82,-198.83l60.58,-60.16l138.24,138.24v-177.92h85.34v177.92l138.24,-138.24l60.58,60.16l-198.82,198.83v85.33h85.33l198.83,-198.82l60.16,60.58l-138.24,138.24h177.92z" fill="#ffffff"/>
		</mask>
		<mask id="mask-u8ksY2CW">
			<path d="M938.67,554.67h-177.92l138.24,138.24l-60.16,60.58l-198.83,-198.82h-85.33v85.33l198.82,198.83l-60.58,60.16l-138.24,-138.24v177.92h-85.34v-177.92l-138.24,138.24l-60.58,-60.16l198.82,-198.83v-85.33h-85.33l-198.83,198.82l-60.16,-60.58l138.24,-138.24h-177.92v-85.34h177.92l-138.24,-138.24l60.16,-60.58l198.83,198.82h85.33v-85.33l-198.82,-198.83l60.58,-60.16l138.24,138.24v-177.92h85.34v177.92l138.24,-138.24l60.58,60.16l-198.82,198.83v85.33h85.33l198.83,-198.82l60.16,60.58l-138.24,138.24h177.92z" fill="url(#color-LISkmaYZ)"/>
		</mask>
	</defs>
	<g fill="none" fill-rule="nonzero" style="mix-blend-mode: normal">
		<g mask="url(#mask-Ts1dRT2W)">
			<g color="#ffc107" class="teamapps-color-2">
				<rect x="85.33" y="85.33" width="853.34" height="853.34" fill="currentColor"/>
			</g>
			<g color="#e65100" class="teamapps-color-3" mask="url(#mask-oYTB52tp)">
				<rect x="85.33" y="85.33" width="853.34" height="853.34" fill="currentColor"/>
			</g>
		</g>
		<g filter="url(#filter-eMP8er53)" mask="url(#mask-u8ksY2CW)">
			<g color="#fff59d" class="teamapps-color-1">
				<rect x="85.33" y="85.33" width="853.34" height="853.34" fill="currentColor"/>
			</g>
		</g>
		<g clip-path="url(#clip-vfbR1a7B)">
			<path d="M-7.67,981.67v-1039.34h1039.34v1039.34zM938.67,469.33h-177.92l138.24,-138.24l-60.16,-60.58l-198.83,198.82h-85.33v-85.33l198.82,-198.83l-60.58,-60.16l-138.24,138.24v-177.92h-85.34v177.92l-138.24,-138.24l-60.58,60.16l198.82,198.83v85.33h-85.33l-198.83,-198.82l-60.16,60.58l138.24,138.24h-177.92v85.34h177.92l-138.24,138.24l60.16,60.58l198.83,-198.82h85.33v85.33l-198.82,198.83l60.58,60.16l138.24,-138.24v177.92h85.34v-177.92l138.24,138.24l60.58,-60.16l-198.82,-198.83v-85.33h85.33l198.83,198.82l60.16,-60.58l-138.24,-138.24h177.92z" fill="#000000" filter="url(#filter-2CfzFV98)"/>
		</g>
	</g>
</svg>