<svg version="1.1" xmlns="http://www.w3.org/2000/svg" xmlns:xlink="http://www.w3.org/1999/xlink" viewBox="0,0,1024,1024">
	<!-- Color names: teamapps-color-1, teamapps-color-2, teamapps-color-3 -->
	<desc>add icon - Licensed under Apache License v2.0 (http://www.apache.org/licenses/LICENSE-2.0) - Created with Iconfu.com - Derivative work of Material icons (Copyright Google Inc.)</desc>
	<defs>
		<clipPath id="clip-UENMH67H">
			<path d="M810.67,554.67h-256v256h-85.34v-256h-256v-85.34h256v-256h85.34v256h256z"/>
		</clipPath>
		<radialGradient cx="0" cy="0" r="1448.15" id="color-dSQdTkMu" gradientUnits="userSpaceOnUse">
			<stop offset="0.07" stop-color="#ffffff"/>
			<stop offset="0.75" stop-color="#000000"/>
		</radialGradient>
		<linearGradient x1="0" y1="1024" x2="1024" y2="0" id="color-fhlGqYM2" gradientUnits="userSpaceOnUse">
			<stop offset="0.2" stop-color="#000000"/>
			<stop offset="0.8" stop-color="#ffffff"/>
		</linearGradient>
		<filter id="filter-E8otcXYU" color-interpolation-filters="sRGB">
			<feOffset/>
		</filter>
		<filter id="filter-GVDIBRsb" x="0%" y="0%" width="100%" height="100%" color-interpolation-filters="sRGB">
			<feColorMatrix values="1 0 0 0 0 0 1 0 0 0 0 0 1 0 0 0 0 0 0.05 0" in="SourceGraphic"/>
			<feOffset dy="20"/>
			<feGaussianBlur stdDeviation="11" result="blur0"/>
			<feColorMatrix values="1 0 0 0 0 0 1 0 0 0 0 0 1 0 0 0 0 0 0.07 0" in="SourceGraphic"/>
			<feOffset dy="30"/>
			<feGaussianBlur stdDeviation="20" result="blur1"/>
			<feMerge>
				<feMergeNode in="blur0"/>
				<feMergeNode in="blur1"/>
			</feMerge>
		</filter>
		<mask id="mask-BFROsBBh">
			<path d="M810.67,554.67h-256v256h-85.34v-256h-256v-85.34h256v-256h85.34v256h256z" fill="#ffffff"/>
		</mask>
		<mask id="mask-FKMAFO1f">
			<path d="M810.67,554.67h-256v256h-85.34v-256h-256v-85.34h256v-256h85.34v256h256z" fill="url(#color-dSQdTkMu)"/>
		</mask>
		<mask id="mask-pQ2UyHUW">
			<rect fill="url(#color-fhlGqYM2)" x="213.33" y="213.33" width="597.34" height="597.34"/>
		</mask>
	</defs>
	<g fill="none" fill-rule="nonzero" style="mix-blend-mode: normal">
		<g mask="url(#mask-BFROsBBh)">
			<g color="#ffc107" class="teamapps-color-2">
				<rect x="213.33" y="213.33" width="597.34" height="597.34" fill="currentColor"/>
			</g>
			<g color="#e65100" class="teamapps-color-3" mask="url(#mask-pQ2UyHUW)">
				<rect x="213.33" y="213.33" width="597.34" height="597.34" fill="currentColor"/>
			</g>
		</g>
		<g filter="url(#filter-E8otcXYU)" mask="url(#mask-FKMAFO1f)">
			<g color="#fff59d" class="teamapps-color-1">
				<rect x="213.33" y="213.33" width="597.34" height="597.34" fill="currentColor"/>
			</g>
		</g>
		<g clip-path="url(#clip-UENMH67H)">
			<path d="M120.33,853.67v-783.34h783.34v783.34zM810.67,469.33h-256v-256h-85.34v256h-256v85.34h256v256h85.34v-256h256z" fill="#000000" filter="url(#filter-GVDIBRsb)"/>
		</g>
	</g>
</svg>