<svg version="1.1" xmlns="http://www.w3.org/2000/svg" xmlns:xlink="http://www.w3.org/1999/xlink" viewBox="0,0,1024,1024">
	<!-- Color names: teamapps-color-1, teamapps-color-2, teamapps-color-3 -->
	<desc>airline_seat_legroom_normal icon - Licensed under Apache License v2.0 (http://www.apache.org/licenses/LICENSE-2.0) - Created with Iconfu.com - Derivative work of Material icons (Copyright Google Inc.)</desc>
	<defs>
		<clipPath id="clip-wR61RKh4">
			<path d="M938.67,832c0,35.41 -28.59,64 -64,64h-192v-298.67h-298.67c-70.4,0 -128,-57.6 -128,-128v-341.33h256v256h213.33c46.93,0 85.34,38.4 85.34,85.33v298.67h64c35.41,0 64,28.59 64,64zM341.33,640h256v85.33h-256c-117.76,0 -213.33,-95.57 -213.33,-213.33v-384h85.33v384c0,70.83 57.17,128 128,128z"/>
		</clipPath>
		<linearGradient x1="0" y1="1024" x2="1024" y2="0" id="color-cUcRJ1yj" gradientUnits="userSpaceOnUse">
			<stop offset="0.2" stop-color="#000000"/>
			<stop offset="0.8" stop-color="#ffffff"/>
		</linearGradient>
		<radialGradient cx="0" cy="0" r="1448.15" id="color-kahoAtEa" gradientUnits="userSpaceOnUse">
			<stop offset="0.07" stop-color="#ffffff"/>
			<stop offset="0.75" stop-color="#000000"/>
		</radialGradient>
		<filter id="filter-k5Vt2bHg" color-interpolation-filters="sRGB">
			<feOffset/>
		</filter>
		<filter id="filter-XRsIF5XR" x="0%" y="0%" width="100%" height="100%" color-interpolation-filters="sRGB">
			<feColorMatrix values="1 0 0 0 0 0 1 0 0 0 0 0 1 0 0 0 0 0 0.05 0" in="SourceGraphic"/>
			<feOffset dy="20"/>
			<feGaussianBlur stdDeviation="11" result="blur0"/>
			<feColorMatrix values="1 0 0 0 0 0 1 0 0 0 0 0 1 0 0 0 0 0 0.07 0" in="SourceGraphic"/>
			<feOffset dy="30"/>
			<feGaussianBlur stdDeviation="20" result="blur1"/>
			<feMerge>
				<feMergeNode in="blur0"/>
				<feMergeNode in="blur1"/>
			</feMerge>
		</filter>
		<mask id="mask-BH2WSrae">
			<path d="M938.67,832c0,35.41 -28.59,64 -64,64h-192v-298.67h-298.67c-70.4,0 -128,-57.6 -128,-128v-341.33h256v256h213.33c46.93,0 85.34,38.4 85.34,85.33v298.67h64c35.41,0 64,28.59 64,64zM341.33,640h256v85.33h-256c-117.76,0 -213.33,-95.57 -213.33,-213.33v-384h85.33v384c0,70.83 57.17,128 128,128z" fill="#ffffff"/>
		</mask>
		<mask id="mask-EuDJaaQe">
			<path d="M938.67,832c0,35.41 -28.59,64 -64,64h-192v-298.67h-298.67c-70.4,0 -128,-57.6 -128,-128v-341.33h256v256h213.33c46.93,0 85.34,38.4 85.34,85.33v298.67h64c35.41,0 64,28.59 64,64zM341.33,640h256v85.33h-256c-117.76,0 -213.33,-95.57 -213.33,-213.33v-384h85.33v384c0,70.83 57.17,128 128,128z" fill="url(#color-kahoAtEa)"/>
		</mask>
		<mask id="mask-PFESMEdK">
			<rect fill="url(#color-cUcRJ1yj)" x="128" y="128" width="810.67" height="768"/>
		</mask>
	</defs>
	<g fill="none" fill-rule="nonzero" style="mix-blend-mode: normal">
		<g mask="url(#mask-BH2WSrae)">
			<g color="#ffc107" class="teamapps-color-2">
				<rect x="128" y="128" width="810.67" height="768" fill="currentColor"/>
			</g>
			<g color="#e65100" class="teamapps-color-3" mask="url(#mask-PFESMEdK)">
				<rect x="128" y="128" width="810.67" height="768" fill="currentColor"/>
			</g>
		</g>
		<g filter="url(#filter-k5Vt2bHg)" mask="url(#mask-EuDJaaQe)">
			<g color="#fff59d" class="teamapps-color-1">
				<rect x="128" y="128" width="810.67" height="768" fill="currentColor"/>
			</g>
		</g>
		<g clip-path="url(#clip-wR61RKh4)">
			<path d="M35,939v-954h996.67v954zM874.67,768h-64v-298.67c0,-46.93 -38.41,-85.33 -85.34,-85.33h-213.33v-256h-256v341.33c0,70.4 57.6,128 128,128h298.67v298.67h192c35.41,0 64,-28.59 64,-64c0,-35.41 -28.59,-64 -64,-64zM213.33,512v-384h-85.33v384c0,117.76 95.57,213.33 213.33,213.33h256v-85.33h-256c-70.83,0 -128,-57.17 -128,-128z" fill="#000000" filter="url(#filter-XRsIF5XR)"/>
		</g>
	</g>
</svg>