<svg version="1.1" xmlns="http://www.w3.org/2000/svg" xmlns:xlink="http://www.w3.org/1999/xlink" viewBox="0,0,1024,1024">
	<!-- Color names: teamapps-color-1, teamapps-color-2, teamapps-color-3 -->
	<desc>airport_shuttle icon - Licensed under Apache License v2.0 (http://www.apache.org/licenses/LICENSE-2.0) - Created with Iconfu.com - Derivative work of Material icons (Copyright Google Inc.)</desc>
	<defs>
		<clipPath id="clip-WMxBnmbL">
			<path d="M981.33,469.33v213.34h-106.66c0,70.4 -57.17,128 -128,128c-70.83,0 -128,-57.6 -128,-128h-234.67c0,70.4 -57.17,128 -128,128c-70.83,0 -128,-57.6 -128,-128h-85.33v-384c0,-47.36 38.4,-85.34 85.33,-85.34h597.33zM853.33,469.33l-170.66,-170.66h-42.67v170.66zM298.67,469.33v-170.66h-170.67v170.66zM554.67,298.67h-170.67v170.66h170.67zM320,682.67c0,-35.41 -28.59,-64 -64,-64c-35.41,0 -64,28.59 -64,64c0,35.41 28.59,64 64,64c35.41,0 64,-28.59 64,-64zM810.67,682.67c0,-35.41 -28.59,-64 -64,-64c-35.41,0 -64,28.59 -64,64c0,35.41 28.59,64 64,64c35.41,0 64,-28.59 64,-64z"/>
		</clipPath>
		<radialGradient cx="0" cy="0" r="1448.15" id="color-uOgYZ29U" gradientUnits="userSpaceOnUse">
			<stop offset="0.07" stop-color="#ffffff"/>
			<stop offset="0.75" stop-color="#000000"/>
		</radialGradient>
		<linearGradient x1="0" y1="1024" x2="1024" y2="0" id="color-wmM7ZMv6" gradientUnits="userSpaceOnUse">
			<stop offset="0.2" stop-color="#000000"/>
			<stop offset="0.8" stop-color="#ffffff"/>
		</linearGradient>
		<filter id="filter-EJ4T3IR4" color-interpolation-filters="sRGB">
			<feOffset/>
		</filter>
		<filter id="filter-gUxauVCe" x="0%" y="0%" width="100%" height="100%" color-interpolation-filters="sRGB">
			<feColorMatrix values="1 0 0 0 0 0 1 0 0 0 0 0 1 0 0 0 0 0 0.05 0" in="SourceGraphic"/>
			<feOffset dy="20"/>
			<feGaussianBlur stdDeviation="11" result="blur0"/>
			<feColorMatrix values="1 0 0 0 0 0 1 0 0 0 0 0 1 0 0 0 0 0 0.07 0" in="SourceGraphic"/>
			<feOffset dy="30"/>
			<feGaussianBlur stdDeviation="20" result="blur1"/>
			<feMerge>
				<feMergeNode in="blur0"/>
				<feMergeNode in="blur1"/>
			</feMerge>
		</filter>
		<mask id="mask-bbDqMRmE">
			<path d="M981.33,469.33v213.34h-106.66c0,70.4 -57.17,128 -128,128c-70.83,0 -128,-57.6 -128,-128h-234.67c0,70.4 -57.17,128 -128,128c-70.83,0 -128,-57.6 -128,-128h-85.33v-384c0,-47.36 38.4,-85.34 85.33,-85.34h597.33zM853.33,469.33l-170.66,-170.66h-42.67v170.66zM298.67,469.33v-170.66h-170.67v170.66zM554.67,298.67h-170.67v170.66h170.67zM320,682.67c0,-35.41 -28.59,-64 -64,-64c-35.41,0 -64,28.59 -64,64c0,35.41 28.59,64 64,64c35.41,0 64,-28.59 64,-64zM810.67,682.67c0,-35.41 -28.59,-64 -64,-64c-35.41,0 -64,28.59 -64,64c0,35.41 28.59,64 64,64c35.41,0 64,-28.59 64,-64z" fill="url(#color-uOgYZ29U)"/>
		</mask>
		<mask id="mask-tgLHSmPr">
			<path d="M981.33,469.33v213.34h-106.66c0,70.4 -57.17,128 -128,128c-70.83,0 -128,-57.6 -128,-128h-234.67c0,70.4 -57.17,128 -128,128c-70.83,0 -128,-57.6 -128,-128h-85.33v-384c0,-47.36 38.4,-85.34 85.33,-85.34h597.33zM853.33,469.33l-170.66,-170.66h-42.67v170.66zM298.67,469.33v-170.66h-170.67v170.66zM554.67,298.67h-170.67v170.66h170.67zM320,682.67c0,-35.41 -28.59,-64 -64,-64c-35.41,0 -64,28.59 -64,64c0,35.41 28.59,64 64,64c35.41,0 64,-28.59 64,-64zM810.67,682.67c0,-35.41 -28.59,-64 -64,-64c-35.41,0 -64,28.59 -64,64c0,35.41 28.59,64 64,64c35.41,0 64,-28.59 64,-64z" fill="#ffffff"/>
		</mask>
		<mask id="mask-zPrzECju">
			<rect fill="url(#color-wmM7ZMv6)" x="42.67" y="213.33" width="938.66" height="597.34"/>
		</mask>
	</defs>
	<g fill="none" fill-rule="nonzero" style="mix-blend-mode: normal">
		<g mask="url(#mask-tgLHSmPr)">
			<g color="#ffc107" class="teamapps-color-2">
				<rect x="42.67" y="213.33" width="938.66" height="597.34" fill="currentColor"/>
			</g>
			<g color="#e65100" class="teamapps-color-3" mask="url(#mask-zPrzECju)">
				<rect x="42.67" y="213.33" width="938.66" height="597.34" fill="currentColor"/>
			</g>
		</g>
		<g filter="url(#filter-EJ4T3IR4)" mask="url(#mask-bbDqMRmE)">
			<g color="#fff59d" class="teamapps-color-1">
				<rect x="42.67" y="213.33" width="938.66" height="597.34" fill="currentColor"/>
			</g>
		</g>
		<g clip-path="url(#clip-WMxBnmbL)">
			<path d="M-50.33,853.67v-783.34h1124.66v783.34zM725.33,213.33h-597.33c-46.93,0 -85.33,37.98 -85.33,85.34v384h85.33c0,70.4 57.17,128 128,128c70.83,0 128,-57.6 128,-128h234.67c0,70.4 57.17,128 128,128c70.83,0 128,-57.6 128,-128h106.66v-213.34zM640,469.33v-170.66h42.67l170.66,170.66zM128,469.33v-170.66h170.67v170.66zM554.67,469.33h-170.67v-170.66h170.67zM256,746.67c-35.41,0 -64,-28.59 -64,-64c0,-35.41 28.59,-64 64,-64c35.41,0 64,28.59 64,64c0,35.41 -28.59,64 -64,64zM746.67,746.67c-35.41,0 -64,-28.59 -64,-64c0,-35.41 28.59,-64 64,-64c35.41,0 64,28.59 64,64c0,35.41 -28.59,64 -64,64z" fill="#000000" filter="url(#filter-gUxauVCe)"/>
		</g>
	</g>
</svg>