<svg version="1.1" xmlns="http://www.w3.org/2000/svg" xmlns:xlink="http://www.w3.org/1999/xlink" viewBox="0,0,1024,1024">
	<!-- Color names: teamapps-color-1, teamapps-color-2, teamapps-color-3 -->
	<desc>airplanemode_inactive icon - Licensed under Apache License v2.0 (http://www.apache.org/licenses/LICENSE-2.0) - Created with Iconfu.com - Derivative work of Material icons (Copyright Google Inc.)</desc>
	<defs>
		<clipPath id="clip-Ye4YpOns">
			<path d="M182.19,170.67l671.14,671.14l-54.18,54.19l-244.48,-244.48v159.15l85.33,64v64l-149.33,-42.67l-149.34,42.67v-64l85.34,-64v-234.67l-341.34,106.67v-85.34l255.58,-159.57l-212.91,-212.91zM896,597.33v85.34l-135.25,-42.24l-334.08,-334.08v-157.02c0,-35.41 28.59,-64 64,-64c35.41,0 64,28.59 64,64v234.67z"/>
		</clipPath>
		<linearGradient x1="0" y1="1024" x2="1024" y2="0" id="color-3wtqLJmf" gradientUnits="userSpaceOnUse">
			<stop offset="0.2" stop-color="#000000"/>
			<stop offset="0.8" stop-color="#ffffff"/>
		</linearGradient>
		<radialGradient cx="0" cy="0" r="1448.15" id="color-JAjoisvz" gradientUnits="userSpaceOnUse">
			<stop offset="0.07" stop-color="#ffffff"/>
			<stop offset="0.75" stop-color="#000000"/>
		</radialGradient>
		<filter id="filter-RcX6Q2g3" color-interpolation-filters="sRGB">
			<feOffset/>
		</filter>
		<filter id="filter-reOKVPNn" x="0%" y="0%" width="100%" height="100%" color-interpolation-filters="sRGB">
			<feColorMatrix values="1 0 0 0 0 0 1 0 0 0 0 0 1 0 0 0 0 0 0.05 0" in="SourceGraphic"/>
			<feOffset dy="20"/>
			<feGaussianBlur stdDeviation="11" result="blur0"/>
			<feColorMatrix values="1 0 0 0 0 0 1 0 0 0 0 0 1 0 0 0 0 0 0.07 0" in="SourceGraphic"/>
			<feOffset dy="30"/>
			<feGaussianBlur stdDeviation="20" result="blur1"/>
			<feMerge>
				<feMergeNode in="blur0"/>
				<feMergeNode in="blur1"/>
			</feMerge>
		</filter>
		<mask id="mask-KrFgq63e">
			<path d="M182.19,170.67l671.14,671.14l-54.18,54.19l-244.48,-244.48v159.15l85.33,64v64l-149.33,-42.67l-149.34,42.67v-64l85.34,-64v-234.67l-341.34,106.67v-85.34l255.58,-159.57l-212.91,-212.91zM896,597.33v85.34l-135.25,-42.24l-334.08,-334.08v-157.02c0,-35.41 28.59,-64 64,-64c35.41,0 64,28.59 64,64v234.67z" fill="#ffffff"/>
		</mask>
		<mask id="mask-MppIUffc">
			<rect fill="url(#color-3wtqLJmf)" x="85.33" y="85.33" width="810.67" height="853.34"/>
		</mask>
		<mask id="mask-X88ciav2">
			<path d="M182.19,170.67l671.14,671.14l-54.18,54.19l-244.48,-244.48v159.15l85.33,64v64l-149.33,-42.67l-149.34,42.67v-64l85.34,-64v-234.67l-341.34,106.67v-85.34l255.58,-159.57l-212.91,-212.91zM896,597.33v85.34l-135.25,-42.24l-334.08,-334.08v-157.02c0,-35.41 28.59,-64 64,-64c35.41,0 64,28.59 64,64v234.67z" fill="url(#color-JAjoisvz)"/>
		</mask>
	</defs>
	<g fill="none" fill-rule="nonzero" style="mix-blend-mode: normal">
		<g mask="url(#mask-KrFgq63e)">
			<g color="#ffc107" class="teamapps-color-2">
				<rect x="85.33" y="85.33" width="810.67" height="853.34" fill="currentColor"/>
			</g>
			<g color="#e65100" class="teamapps-color-3" mask="url(#mask-MppIUffc)">
				<rect x="85.33" y="85.33" width="810.67" height="853.34" fill="currentColor"/>
			</g>
		</g>
		<g filter="url(#filter-RcX6Q2g3)" mask="url(#mask-X88ciav2)">
			<g color="#fff59d" class="teamapps-color-1">
				<rect x="85.33" y="85.33" width="810.67" height="853.34" fill="currentColor"/>
			</g>
		</g>
		<g clip-path="url(#clip-Ye4YpOns)">
			<path d="M-7.67,981.67v-1039.34h996.67v1039.34zM128,224.85l212.91,212.91l-255.58,159.57v85.34l341.34,-106.67v234.67l-85.34,64v64l149.34,-42.67l149.33,42.67v-64l-85.33,-64v-159.15l244.48,244.48l54.18,-54.19l-671.14,-671.14zM554.67,384v-234.67c0,-35.41 -28.59,-64 -64,-64c-35.41,0 -64,28.59 -64,64v157.02l334.08,334.08l135.25,42.24v-85.34z" fill="#000000" filter="url(#filter-reOKVPNn)"/>
		</g>
	</g>
</svg>