<svg version="1.1" xmlns="http://www.w3.org/2000/svg" xmlns:xlink="http://www.w3.org/1999/xlink" viewBox="0,0,1024,1024">
	<!-- Color names: teamapps-color-1, teamapps-color-2, teamapps-color-3 -->
	<desc>all_inclusive icon - Licensed under Apache License v2.0 (http://www.apache.org/licenses/LICENSE-2.0) - Created with Iconfu.com - Derivative work of Material icons (Copyright Google Inc.)</desc>
	<defs>
		<clipPath id="clip-V8cEvJrE">
			<path d="M1024,511.57c0,126.72 -103.25,229.55 -230.4,229.55c-61.87,0 -119.47,-23.9 -162.99,-66.99l-54.18,-47.78l64.42,-57.18l48.64,43.1c29.01,29.01 65.71,43.94 104.11,43.94c79.79,0 144.64,-64.42 144.64,-144.21c0,-79.79 -64.85,-144.21 -144.64,-144.21c-38.83,0 -75.09,14.93 -102.4,42.24l-114.77,101.97h0.42l-64.42,58.03l-0.43,-0.43l-120.75,106.67c-41.39,41.39 -99.41,65.28 -160.85,65.28c-127.15,0 -230.4,-103.26 -230.4,-229.55c0,-126.29 103.25,-229.55 230.4,-229.55c61.44,0 119.47,23.9 162.99,67.42l53.76,47.36l-64.43,57.17l-48.21,-42.67c-29.01,-29.01 -65.28,-43.94 -104.11,-43.94c-79.79,0 -144.64,64.42 -144.64,144.21c0,79.79 64.85,144.21 144.64,144.21c38.83,0 75.09,-14.93 102.4,-42.24l114.77,-101.97h-0.42l64.85,-57.17l120.75,-107.1c41.39,-41.39 99.41,-65.28 160.85,-65.28c127.15,0 230.4,102.4 230.4,229.12z"/>
		</clipPath>
		<linearGradient x1="0" y1="1024" x2="1024" y2="0" id="color-200hBVpj" gradientUnits="userSpaceOnUse">
			<stop offset="0.2" stop-color="#000000"/>
			<stop offset="0.8" stop-color="#ffffff"/>
		</linearGradient>
		<radialGradient cx="0" cy="0" r="1448.15" id="color-wcvDpkw8" gradientUnits="userSpaceOnUse">
			<stop offset="0.07" stop-color="#ffffff"/>
			<stop offset="0.75" stop-color="#000000"/>
		</radialGradient>
		<filter id="filter-cchD3jd5" x="0%" y="0%" width="100%" height="100%" color-interpolation-filters="sRGB">
			<feColorMatrix values="1 0 0 0 0 0 1 0 0 0 0 0 1 0 0 0 0 0 0.05 0" in="SourceGraphic"/>
			<feOffset dy="20"/>
			<feGaussianBlur stdDeviation="11" result="blur0"/>
			<feColorMatrix values="1 0 0 0 0 0 1 0 0 0 0 0 1 0 0 0 0 0 0.07 0" in="SourceGraphic"/>
			<feOffset dy="30"/>
			<feGaussianBlur stdDeviation="20" result="blur1"/>
			<feMerge>
				<feMergeNode in="blur0"/>
				<feMergeNode in="blur1"/>
			</feMerge>
		</filter>
		<filter id="filter-KzN10nbS" color-interpolation-filters="sRGB">
			<feOffset/>
		</filter>
		<mask id="mask-3v2VViwj">
			<path d="M1024,511.57c0,126.72 -103.25,229.55 -230.4,229.55c-61.87,0 -119.47,-23.9 -162.99,-66.99l-54.18,-47.78l64.42,-57.18l48.64,43.1c29.01,29.01 65.71,43.94 104.11,43.94c79.79,0 144.64,-64.42 144.64,-144.21c0,-79.79 -64.85,-144.21 -144.64,-144.21c-38.83,0 -75.09,14.93 -102.4,42.24l-114.77,101.97h0.42l-64.42,58.03l-0.43,-0.43l-120.75,106.67c-41.39,41.39 -99.41,65.28 -160.85,65.28c-127.15,0 -230.4,-103.26 -230.4,-229.55c0,-126.29 103.25,-229.55 230.4,-229.55c61.44,0 119.47,23.9 162.99,67.42l53.76,47.36l-64.43,57.17l-48.21,-42.67c-29.01,-29.01 -65.28,-43.94 -104.11,-43.94c-79.79,0 -144.64,64.42 -144.64,144.21c0,79.79 64.85,144.21 144.64,144.21c38.83,0 75.09,-14.93 102.4,-42.24l114.77,-101.97h-0.42l64.85,-57.17l120.75,-107.1c41.39,-41.39 99.41,-65.28 160.85,-65.28c127.15,0 230.4,102.4 230.4,229.12z" fill="url(#color-wcvDpkw8)"/>
		</mask>
		<mask id="mask-GkTx6SQQ">
			<rect fill="url(#color-200hBVpj)" x="0" y="282.45" width="1024" height="459.1"/>
		</mask>
		<mask id="mask-JNzDEzqu">
			<path d="M1024,511.57c0,126.72 -103.25,229.55 -230.4,229.55c-61.87,0 -119.47,-23.9 -162.99,-66.99l-54.18,-47.78l64.42,-57.18l48.64,43.1c29.01,29.01 65.71,43.94 104.11,43.94c79.79,0 144.64,-64.42 144.64,-144.21c0,-79.79 -64.85,-144.21 -144.64,-144.21c-38.83,0 -75.09,14.93 -102.4,42.24l-114.77,101.97h0.42l-64.42,58.03l-0.43,-0.43l-120.75,106.67c-41.39,41.39 -99.41,65.28 -160.85,65.28c-127.15,0 -230.4,-103.26 -230.4,-229.55c0,-126.29 103.25,-229.55 230.4,-229.55c61.44,0 119.47,23.9 162.99,67.42l53.76,47.36l-64.43,57.17l-48.21,-42.67c-29.01,-29.01 -65.28,-43.94 -104.11,-43.94c-79.79,0 -144.64,64.42 -144.64,144.21c0,79.79 64.85,144.21 144.64,144.21c38.83,0 75.09,-14.93 102.4,-42.24l114.77,-101.97h-0.42l64.85,-57.17l120.75,-107.1c41.39,-41.39 99.41,-65.28 160.85,-65.28c127.15,0 230.4,102.4 230.4,229.12z" fill="#ffffff"/>
		</mask>
	</defs>
	<g fill="none" fill-rule="nonzero" style="mix-blend-mode: normal">
		<g mask="url(#mask-JNzDEzqu)">
			<g color="#ffc107" class="teamapps-color-2">
				<rect x="0" y="282.45" width="1024" height="459.1" fill="currentColor"/>
			</g>
			<g color="#e65100" class="teamapps-color-3" mask="url(#mask-GkTx6SQQ)">
				<rect x="0" y="282.45" width="1024" height="459.1" fill="currentColor"/>
			</g>
		</g>
		<g filter="url(#filter-KzN10nbS)" mask="url(#mask-3v2VViwj)">
			<g color="#fff59d" class="teamapps-color-1">
				<rect x="0" y="282.45" width="1024" height="459.1" fill="currentColor"/>
			</g>
		</g>
		<g clip-path="url(#clip-V8cEvJrE)">
			<path d="M-93,784.55v-645.1h1210v645.1zM793.6,282.45c-61.44,0 -119.46,23.89 -160.85,65.28l-120.75,107.1l-64.85,57.17h0.42l-114.77,101.97c-27.31,27.31 -63.57,42.24 -102.4,42.24c-79.79,0 -144.64,-64.42 -144.64,-144.21c0,-79.79 64.85,-144.21 144.64,-144.21c38.83,0 75.1,14.93 104.11,43.94l48.21,42.67l64.43,-57.17l-53.76,-47.36c-43.52,-43.52 -101.55,-67.42 -162.99,-67.42c-127.15,0 -230.4,103.26 -230.4,229.55c0,126.29 103.25,229.55 230.4,229.55c61.44,0 119.46,-23.89 160.85,-65.28l120.75,-106.67l0.43,0.43l64.42,-58.03h-0.42l114.77,-101.97c27.31,-27.31 63.57,-42.24 102.4,-42.24c79.79,0 144.64,64.42 144.64,144.21c0,79.79 -64.85,144.21 -144.64,144.21c-38.4,0 -75.1,-14.93 -104.11,-43.94l-48.64,-43.1l-64.42,57.18l54.18,47.78c43.52,43.09 101.12,66.99 162.99,66.99c127.15,0 230.4,-102.83 230.4,-229.55c0,-126.72 -103.25,-229.12 -230.4,-229.12z" fill="#000000" filter="url(#filter-cchD3jd5)"/>
		</g>
	</g>
</svg>