<svg version="1.1" xmlns="http://www.w3.org/2000/svg" xmlns:xlink="http://www.w3.org/1999/xlink" viewBox="0,0,1024,1024">
	<!-- Color names: teamapps-color-1, teamapps-color-2, teamapps-color-3 -->
	<desc>assignment_turned_in icon - Licensed under Apache License v2.0 (http://www.apache.org/licenses/LICENSE-2.0) - Created with Iconfu.com - Derivative work of Material icons (Copyright Google Inc.)</desc>
	<defs>
		<clipPath id="clip-mEkHwum8">
			<path d="M896,213.33v597.34c0,46.93 -38.4,85.33 -85.33,85.33h-597.34c-46.93,0 -85.33,-38.4 -85.33,-85.33v-597.34c0,-46.93 38.4,-85.33 85.33,-85.33h178.35c17.92,-49.49 64.85,-85.33 120.32,-85.33c55.47,0 102.4,35.84 120.32,85.33h178.35c46.93,0 85.33,38.4 85.33,85.33zM768,384l-60.16,-60.59l-281.17,281.18l-110.51,-110.08l-60.16,60.16l170.67,170.66zM469.33,170.67c0,23.47 19.2,42.66 42.67,42.66c23.47,0 42.67,-19.19 42.67,-42.66c0,-23.47 -19.2,-42.67 -42.67,-42.67c-23.47,0 -42.67,19.2 -42.67,42.67z"/>
		</clipPath>
		<radialGradient cx="0" cy="0" r="1448.15" id="color-OT8I3U9k" gradientUnits="userSpaceOnUse">
			<stop offset="0.07" stop-color="#ffffff"/>
			<stop offset="0.75" stop-color="#000000"/>
		</radialGradient>
		<linearGradient x1="0" y1="1024" x2="1024" y2="0" id="color-vQHpMyOm" gradientUnits="userSpaceOnUse">
			<stop offset="0.2" stop-color="#000000"/>
			<stop offset="0.8" stop-color="#ffffff"/>
		</linearGradient>
		<filter id="filter-10IjRJEN" color-interpolation-filters="sRGB">
			<feOffset/>
		</filter>
		<filter id="filter-ZHTfGiju" x="0%" y="0%" width="100%" height="100%" color-interpolation-filters="sRGB">
			<feColorMatrix values="1 0 0 0 0 0 1 0 0 0 0 0 1 0 0 0 0 0 0.05 0" in="SourceGraphic"/>
			<feOffset dy="20"/>
			<feGaussianBlur stdDeviation="11" result="blur0"/>
			<feColorMatrix values="1 0 0 0 0 0 1 0 0 0 0 0 1 0 0 0 0 0 0.07 0" in="SourceGraphic"/>
			<feOffset dy="30"/>
			<feGaussianBlur stdDeviation="20" result="blur1"/>
			<feMerge>
				<feMergeNode in="blur0"/>
				<feMergeNode in="blur1"/>
			</feMerge>
		</filter>
		<mask id="mask-ApGhKoy7">
			<path d="M896,213.33v597.34c0,46.93 -38.4,85.33 -85.33,85.33h-597.34c-46.93,0 -85.33,-38.4 -85.33,-85.33v-597.34c0,-46.93 38.4,-85.33 85.33,-85.33h178.35c17.92,-49.49 64.85,-85.33 120.32,-85.33c55.47,0 102.4,35.84 120.32,85.33h178.35c46.93,0 85.33,38.4 85.33,85.33zM768,384l-60.16,-60.59l-281.17,281.18l-110.51,-110.08l-60.16,60.16l170.67,170.66zM469.33,170.67c0,23.47 19.2,42.66 42.67,42.66c23.47,0 42.67,-19.19 42.67,-42.66c0,-23.47 -19.2,-42.67 -42.67,-42.67c-23.47,0 -42.67,19.2 -42.67,42.67z" fill="#ffffff"/>
		</mask>
		<mask id="mask-d1NDBSTJ">
			<rect fill="url(#color-vQHpMyOm)" x="128" y="42.67" width="768" height="853.33"/>
		</mask>
		<mask id="mask-mwc8l5OJ">
			<path d="M896,213.33v597.34c0,46.93 -38.4,85.33 -85.33,85.33h-597.34c-46.93,0 -85.33,-38.4 -85.33,-85.33v-597.34c0,-46.93 38.4,-85.33 85.33,-85.33h178.35c17.92,-49.49 64.85,-85.33 120.32,-85.33c55.47,0 102.4,35.84 120.32,85.33h178.35c46.93,0 85.33,38.4 85.33,85.33zM768,384l-60.16,-60.59l-281.17,281.18l-110.51,-110.08l-60.16,60.16l170.67,170.66zM469.33,170.67c0,23.47 19.2,42.66 42.67,42.66c23.47,0 42.67,-19.19 42.67,-42.66c0,-23.47 -19.2,-42.67 -42.67,-42.67c-23.47,0 -42.67,19.2 -42.67,42.67z" fill="url(#color-OT8I3U9k)"/>
		</mask>
	</defs>
	<g fill="none" fill-rule="nonzero" style="mix-blend-mode: normal">
		<g mask="url(#mask-ApGhKoy7)">
			<g color="#ffc107" class="teamapps-color-2">
				<rect x="128" y="42.67" width="768" height="853.33" fill="currentColor"/>
			</g>
			<g color="#e65100" class="teamapps-color-3" mask="url(#mask-d1NDBSTJ)">
				<rect x="128" y="42.67" width="768" height="853.33" fill="currentColor"/>
			</g>
		</g>
		<g filter="url(#filter-10IjRJEN)" mask="url(#mask-mwc8l5OJ)">
			<g color="#fff59d" class="teamapps-color-1">
				<rect x="128" y="42.67" width="768" height="853.33" fill="currentColor"/>
			</g>
		</g>
		<g clip-path="url(#clip-mEkHwum8)">
			<path d="M35,939v-1039.33h954v1039.33zM810.67,128h-178.35c-17.92,-49.49 -64.85,-85.33 -120.32,-85.33c-55.47,0 -102.4,35.84 -120.32,85.33h-178.35c-46.93,0 -85.33,38.4 -85.33,85.33v597.34c0,46.93 38.4,85.33 85.33,85.33h597.34c46.93,0 85.33,-38.4 85.33,-85.33v-597.34c0,-46.93 -38.4,-85.33 -85.33,-85.33zM426.67,725.33l-170.67,-170.66l60.16,-60.16l110.51,110.08l281.17,-281.18l60.16,60.59zM512,128c23.47,0 42.67,19.2 42.67,42.67c0,23.47 -19.2,42.66 -42.67,42.66c-23.47,0 -42.67,-19.19 -42.67,-42.66c0,-23.47 19.2,-42.67 42.67,-42.67z" fill="#000000" filter="url(#filter-ZHTfGiju)"/>
		</g>
	</g>
</svg>