<svg version="1.1" xmlns="http://www.w3.org/2000/svg" xmlns:xlink="http://www.w3.org/1999/xlink" viewBox="0,0,1024,1024">
	<!-- Color names: teamapps-color-1, teamapps-color-2, teamapps-color-3 -->
	<desc>border_inner icon - Licensed under Apache License v2.0 (http://www.apache.org/licenses/LICENSE-2.0) - Created with Iconfu.com - Derivative work of Material icons (Copyright Google Inc.)</desc>
	<defs>
		<clipPath id="clip-GUPHlCyY">
			<path d="M554.67,469.33h341.33v85.34h-341.33v341.33h-85.34v-341.33h-341.33v-85.34h341.33v-341.33h85.34zM298.67,810.67h85.33v85.33h-85.33zM810.67,298.67h85.33v85.33h-85.33zM810.67,810.67h85.33v85.33h-85.33zM128,810.67h85.33v85.33h-85.33zM213.33,384h-85.33v-85.33h85.33zM384,213.33h-85.33v-85.33h85.33zM896,128v85.33h-85.33v-85.33zM213.33,213.33h-85.33v-85.33h85.33zM640,810.67h85.33v85.33h-85.33zM810.67,640h85.33v85.33h-85.33zM128,640h85.33v85.33h-85.33zM725.33,213.33h-85.33v-85.33h85.33z"/>
		</clipPath>
		<radialGradient cx="0" cy="0" r="1448.15" id="color-o92oyP54" gradientUnits="userSpaceOnUse">
			<stop offset="0.07" stop-color="#ffffff"/>
			<stop offset="0.75" stop-color="#000000"/>
		</radialGradient>
		<linearGradient x1="0" y1="1024" x2="1024" y2="0" id="color-sBRFSzGl" gradientUnits="userSpaceOnUse">
			<stop offset="0.2" stop-color="#000000"/>
			<stop offset="0.8" stop-color="#ffffff"/>
		</linearGradient>
		<filter id="filter-APaRaSSv" color-interpolation-filters="sRGB">
			<feOffset/>
		</filter>
		<filter id="filter-rZhGH7UD" x="0%" y="0%" width="100%" height="100%" color-interpolation-filters="sRGB">
			<feColorMatrix values="1 0 0 0 0 0 1 0 0 0 0 0 1 0 0 0 0 0 0.05 0" in="SourceGraphic"/>
			<feOffset dy="20"/>
			<feGaussianBlur stdDeviation="11" result="blur0"/>
			<feColorMatrix values="1 0 0 0 0 0 1 0 0 0 0 0 1 0 0 0 0 0 0.07 0" in="SourceGraphic"/>
			<feOffset dy="30"/>
			<feGaussianBlur stdDeviation="20" result="blur1"/>
			<feMerge>
				<feMergeNode in="blur0"/>
				<feMergeNode in="blur1"/>
			</feMerge>
		</filter>
		<mask id="mask-F5oNdkCj">
			<path d="M554.67,469.33h341.33v85.34h-341.33v341.33h-85.34v-341.33h-341.33v-85.34h341.33v-341.33h85.34zM298.67,810.67h85.33v85.33h-85.33zM810.67,298.67h85.33v85.33h-85.33zM810.67,810.67h85.33v85.33h-85.33zM128,810.67h85.33v85.33h-85.33zM213.33,384h-85.33v-85.33h85.33zM384,213.33h-85.33v-85.33h85.33zM896,128v85.33h-85.33v-85.33zM213.33,213.33h-85.33v-85.33h85.33zM640,810.67h85.33v85.33h-85.33zM810.67,640h85.33v85.33h-85.33zM128,640h85.33v85.33h-85.33zM725.33,213.33h-85.33v-85.33h85.33z" fill="url(#color-o92oyP54)"/>
		</mask>
		<mask id="mask-K4c12j3y">
			<rect fill="url(#color-sBRFSzGl)" x="128" y="128" width="768" height="768"/>
		</mask>
		<mask id="mask-rJvDqNXh">
			<path d="M554.67,469.33h341.33v85.34h-341.33v341.33h-85.34v-341.33h-341.33v-85.34h341.33v-341.33h85.34zM298.67,810.67h85.33v85.33h-85.33zM810.67,298.67h85.33v85.33h-85.33zM810.67,810.67h85.33v85.33h-85.33zM128,810.67h85.33v85.33h-85.33zM213.33,384h-85.33v-85.33h85.33zM384,213.33h-85.33v-85.33h85.33zM896,128v85.33h-85.33v-85.33zM213.33,213.33h-85.33v-85.33h85.33zM640,810.67h85.33v85.33h-85.33zM810.67,640h85.33v85.33h-85.33zM128,640h85.33v85.33h-85.33zM725.33,213.33h-85.33v-85.33h85.33z" fill="#ffffff"/>
		</mask>
	</defs>
	<g fill="none" fill-rule="nonzero" style="mix-blend-mode: normal">
		<g mask="url(#mask-rJvDqNXh)">
			<g color="#ffc107" class="teamapps-color-2">
				<rect x="128" y="128" width="768" height="768" fill="currentColor"/>
			</g>
			<g color="#e65100" class="teamapps-color-3" mask="url(#mask-K4c12j3y)">
				<rect x="128" y="128" width="768" height="768" fill="currentColor"/>
			</g>
		</g>
		<g filter="url(#filter-APaRaSSv)" mask="url(#mask-F5oNdkCj)">
			<g color="#fff59d" class="teamapps-color-1">
				<rect x="128" y="128" width="768" height="768" fill="currentColor"/>
			</g>
		</g>
		<g clip-path="url(#clip-GUPHlCyY)">
			<path d="M35,939v-954h954v954zM554.67,128h-85.34v341.33h-341.33v85.34h341.33v341.33h85.34v-341.33h341.33v-85.34h-341.33zM298.67,896h85.33v-85.33h-85.33zM810.67,384h85.33v-85.33h-85.33zM810.67,896h85.33v-85.33h-85.33zM128,896h85.33v-85.33h-85.33zM213.33,298.67h-85.33v85.33h85.33zM384,128h-85.33v85.33h85.33zM810.67,128v85.33h85.33v-85.33zM213.33,128h-85.33v85.33h85.33zM640,896h85.33v-85.33h-85.33zM810.67,725.33h85.33v-85.33h-85.33zM128,725.33h85.33v-85.33h-85.33zM725.33,128h-85.33v85.33h85.33z" fill="#000000" filter="url(#filter-rZhGH7UD)"/>
		</g>
	</g>
</svg>