<svg version="1.1" xmlns="http://www.w3.org/2000/svg" xmlns:xlink="http://www.w3.org/1999/xlink" viewBox="0,0,1024,1024">
	<!-- Color names: teamapps-color-1, teamapps-color-2, teamapps-color-3 -->
	<desc>border_left icon - Licensed under Apache License v2.0 (http://www.apache.org/licenses/LICENSE-2.0) - Created with Iconfu.com - Derivative work of Material icons (Copyright Google Inc.)</desc>
	<defs>
		<clipPath id="clip-hCsUKlD4">
			<path d="M128,128h85.33v768h-85.33zM298.67,810.67h85.33v85.33h-85.33zM810.67,298.67h85.33v85.33h-85.33zM810.67,810.67h85.33v85.33h-85.33zM469.33,810.67h85.34v85.33h-85.34zM469.33,298.67h85.34v85.33h-85.34zM298.67,128h85.33v85.33h-85.33zM298.67,469.33h85.33v85.34h-85.33zM896,128v85.33h-85.33v-85.33zM810.67,469.33h85.33v85.34h-85.33zM469.33,128h85.34v85.33h-85.34zM469.33,469.33h85.34v85.34h-85.34zM640,810.67h85.33v85.33h-85.33zM810.67,640h85.33v85.33h-85.33zM469.33,640h85.34v85.33h-85.34zM640,469.33h85.33v85.34h-85.33zM640,128h85.33v85.33h-85.33z"/>
		</clipPath>
		<linearGradient x1="0" y1="1024" x2="1024" y2="0" id="color-1BZ1jFEr" gradientUnits="userSpaceOnUse">
			<stop offset="0.2" stop-color="#000000"/>
			<stop offset="0.8" stop-color="#ffffff"/>
		</linearGradient>
		<radialGradient cx="0" cy="0" r="1448.15" id="color-Zj8cF9xY" gradientUnits="userSpaceOnUse">
			<stop offset="0.07" stop-color="#ffffff"/>
			<stop offset="0.75" stop-color="#000000"/>
		</radialGradient>
		<filter id="filter-RZcxkVoL" x="0%" y="0%" width="100%" height="100%" color-interpolation-filters="sRGB">
			<feColorMatrix values="1 0 0 0 0 0 1 0 0 0 0 0 1 0 0 0 0 0 0.05 0" in="SourceGraphic"/>
			<feOffset dy="20"/>
			<feGaussianBlur stdDeviation="11" result="blur0"/>
			<feColorMatrix values="1 0 0 0 0 0 1 0 0 0 0 0 1 0 0 0 0 0 0.07 0" in="SourceGraphic"/>
			<feOffset dy="30"/>
			<feGaussianBlur stdDeviation="20" result="blur1"/>
			<feMerge>
				<feMergeNode in="blur0"/>
				<feMergeNode in="blur1"/>
			</feMerge>
		</filter>
		<filter id="filter-TH4b7Vdg" color-interpolation-filters="sRGB">
			<feOffset/>
		</filter>
		<mask id="mask-9JXF4c1r">
			<path d="M128,128h85.33v768h-85.33zM298.67,810.67h85.33v85.33h-85.33zM810.67,298.67h85.33v85.33h-85.33zM810.67,810.67h85.33v85.33h-85.33zM469.33,810.67h85.34v85.33h-85.34zM469.33,298.67h85.34v85.33h-85.34zM298.67,128h85.33v85.33h-85.33zM298.67,469.33h85.33v85.34h-85.33zM896,128v85.33h-85.33v-85.33zM810.67,469.33h85.33v85.34h-85.33zM469.33,128h85.34v85.33h-85.34zM469.33,469.33h85.34v85.34h-85.34zM640,810.67h85.33v85.33h-85.33zM810.67,640h85.33v85.33h-85.33zM469.33,640h85.34v85.33h-85.34zM640,469.33h85.33v85.34h-85.33zM640,128h85.33v85.33h-85.33z" fill="#ffffff"/>
		</mask>
		<mask id="mask-F5THPngh">
			<path d="M128,128h85.33v768h-85.33zM298.67,810.67h85.33v85.33h-85.33zM810.67,298.67h85.33v85.33h-85.33zM810.67,810.67h85.33v85.33h-85.33zM469.33,810.67h85.34v85.33h-85.34zM469.33,298.67h85.34v85.33h-85.34zM298.67,128h85.33v85.33h-85.33zM298.67,469.33h85.33v85.34h-85.33zM896,128v85.33h-85.33v-85.33zM810.67,469.33h85.33v85.34h-85.33zM469.33,128h85.34v85.33h-85.34zM469.33,469.33h85.34v85.34h-85.34zM640,810.67h85.33v85.33h-85.33zM810.67,640h85.33v85.33h-85.33zM469.33,640h85.34v85.33h-85.34zM640,469.33h85.33v85.34h-85.33zM640,128h85.33v85.33h-85.33z" fill="url(#color-Zj8cF9xY)"/>
		</mask>
		<mask id="mask-IpcKGF3V">
			<rect fill="url(#color-1BZ1jFEr)" x="128" y="128" width="768" height="768"/>
		</mask>
	</defs>
	<g fill="none" fill-rule="nonzero" style="mix-blend-mode: normal">
		<g mask="url(#mask-9JXF4c1r)">
			<g color="#ffc107" class="teamapps-color-2">
				<rect x="128" y="128" width="768" height="768" fill="currentColor"/>
			</g>
			<g color="#e65100" class="teamapps-color-3" mask="url(#mask-IpcKGF3V)">
				<rect x="128" y="128" width="768" height="768" fill="currentColor"/>
			</g>
		</g>
		<g filter="url(#filter-TH4b7Vdg)" mask="url(#mask-F5THPngh)">
			<g color="#fff59d" class="teamapps-color-1">
				<rect x="128" y="128" width="768" height="768" fill="currentColor"/>
			</g>
		</g>
		<g clip-path="url(#clip-hCsUKlD4)">
			<path d="M35,939v-954h954v954zM128,896h85.33v-768h-85.33zM298.67,896h85.33v-85.33h-85.33zM810.67,384h85.33v-85.33h-85.33zM810.67,896h85.33v-85.33h-85.33zM469.33,896h85.34v-85.33h-85.34zM469.33,384h85.34v-85.33h-85.34zM298.67,213.33h85.33v-85.33h-85.33zM298.67,554.67h85.33v-85.34h-85.33zM810.67,128v85.33h85.33v-85.33zM810.67,554.67h85.33v-85.34h-85.33zM469.33,213.33h85.34v-85.33h-85.34zM469.33,554.67h85.34v-85.34h-85.34zM640,896h85.33v-85.33h-85.33zM810.67,725.33h85.33v-85.33h-85.33zM469.33,725.33h85.34v-85.33h-85.34zM640,554.67h85.33v-85.34h-85.33zM640,213.33h85.33v-85.33h-85.33z" fill="#000000" filter="url(#filter-RZcxkVoL)"/>
		</g>
	</g>
</svg>