<svg version="1.1" xmlns="http://www.w3.org/2000/svg" xmlns:xlink="http://www.w3.org/1999/xlink" viewBox="0,0,1024,1024">
	<!-- Color names: teamapps-color-1, teamapps-color-2, teamapps-color-3 -->
	<desc>brightness_3 icon - Licensed under Apache License v2.0 (http://www.apache.org/licenses/LICENSE-2.0) - Created with Iconfu.com - Derivative work of Material icons (Copyright Google Inc.)</desc>
	<defs>
		<clipPath id="clip-kmXrpGBV">
			<path d="M810.67,512c0,235.52 -191.15,426.67 -426.67,426.67c-44.8,0 -87.47,-6.83 -128,-19.63c173.23,-54.19 298.67,-215.89 298.67,-407.04c0,-191.15 -125.44,-352.85 -298.67,-407.04c40.53,-12.8 83.2,-19.63 128,-19.63c235.52,0 426.67,191.15 426.67,426.67z"/>
		</clipPath>
		<linearGradient x1="0" y1="1024" x2="1024" y2="0" id="color-GaKJfk68" gradientUnits="userSpaceOnUse">
			<stop offset="0.2" stop-color="#000000"/>
			<stop offset="0.8" stop-color="#ffffff"/>
		</linearGradient>
		<radialGradient cx="0" cy="0" r="1448.15" id="color-V5qHClcg" gradientUnits="userSpaceOnUse">
			<stop offset="0.07" stop-color="#ffffff"/>
			<stop offset="0.75" stop-color="#000000"/>
		</radialGradient>
		<filter id="filter-NrhY4SFk" color-interpolation-filters="sRGB">
			<feOffset/>
		</filter>
		<filter id="filter-UdHdlrxN" x="0%" y="0%" width="100%" height="100%" color-interpolation-filters="sRGB">
			<feColorMatrix values="1 0 0 0 0 0 1 0 0 0 0 0 1 0 0 0 0 0 0.05 0" in="SourceGraphic"/>
			<feOffset dy="20"/>
			<feGaussianBlur stdDeviation="11" result="blur0"/>
			<feColorMatrix values="1 0 0 0 0 0 1 0 0 0 0 0 1 0 0 0 0 0 0.07 0" in="SourceGraphic"/>
			<feOffset dy="30"/>
			<feGaussianBlur stdDeviation="20" result="blur1"/>
			<feMerge>
				<feMergeNode in="blur0"/>
				<feMergeNode in="blur1"/>
			</feMerge>
		</filter>
		<mask id="mask-haayt0el">
			<path d="M810.67,512c0,235.52 -191.15,426.67 -426.67,426.67c-44.8,0 -87.47,-6.83 -128,-19.63c173.23,-54.19 298.67,-215.89 298.67,-407.04c0,-191.15 -125.44,-352.85 -298.67,-407.04c40.53,-12.8 83.2,-19.63 128,-19.63c235.52,0 426.67,191.15 426.67,426.67z" fill="url(#color-V5qHClcg)"/>
		</mask>
		<mask id="mask-MynUe5O8">
			<path d="M810.67,512c0,235.52 -191.15,426.67 -426.67,426.67c-44.8,0 -87.47,-6.83 -128,-19.63c173.23,-54.19 298.67,-215.89 298.67,-407.04c0,-191.15 -125.44,-352.85 -298.67,-407.04c40.53,-12.8 83.2,-19.63 128,-19.63c235.52,0 426.67,191.15 426.67,426.67z" fill="#ffffff"/>
		</mask>
		<mask id="mask-OYdUIuiQ">
			<rect fill="url(#color-GaKJfk68)" x="256" y="85.33" width="554.67" height="853.34"/>
		</mask>
	</defs>
	<g fill="none" fill-rule="nonzero" style="mix-blend-mode: normal">
		<g mask="url(#mask-MynUe5O8)">
			<g color="#ffc107" class="teamapps-color-2">
				<rect x="256" y="85.33" width="554.67" height="853.34" fill="currentColor"/>
			</g>
			<g color="#e65100" class="teamapps-color-3" mask="url(#mask-OYdUIuiQ)">
				<rect x="256" y="85.33" width="554.67" height="853.34" fill="currentColor"/>
			</g>
		</g>
		<g filter="url(#filter-NrhY4SFk)" mask="url(#mask-haayt0el)">
			<g color="#fff59d" class="teamapps-color-1">
				<rect x="256" y="85.33" width="554.67" height="853.34" fill="currentColor"/>
			</g>
		</g>
		<g clip-path="url(#clip-kmXrpGBV)">
			<path d="M163,981.67v-1039.34h740.67v1039.34zM384,85.33c-44.8,0 -87.47,6.83 -128,19.63c173.23,54.19 298.67,215.89 298.67,407.04c0,191.15 -125.44,352.85 -298.67,407.04c40.53,12.8 83.2,19.63 128,19.63c235.52,0 426.67,-191.15 426.67,-426.67c0,-235.52 -191.15,-426.67 -426.67,-426.67z" fill="#000000" filter="url(#filter-UdHdlrxN)"/>
		</g>
	</g>
</svg>