<svg version="1.1" xmlns="http://www.w3.org/2000/svg" xmlns:xlink="http://www.w3.org/1999/xlink" viewBox="0,0,1024,1024">
	<!-- Color names: teamapps-color-1, teamapps-color-2, teamapps-color-3 -->
	<desc>bubble_chart icon - Licensed under Apache License v2.0 (http://www.apache.org/licenses/LICENSE-2.0) - Created with Iconfu.com - Derivative work of Material icons (Copyright Google Inc.)</desc>
	<defs>
		<clipPath id="clip-9QXtwDm0">
			<path d="M170.67,614.4c0,-75.41 61.12,-136.53 136.53,-136.53c75.41,0 136.53,61.12 136.53,136.53c0,75.41 -61.12,136.53 -136.53,136.53c-75.41,0 -136.53,-61.12 -136.53,-136.53zM546.13,768c0,-47.13 38.21,-85.33 85.34,-85.33c47.13,0 85.33,38.2 85.33,85.33c0,47.13 -38.2,85.33 -85.33,85.33c-47.13,0 -85.34,-38.2 -85.34,-85.33zM443.73,375.47c0,-113.11 91.69,-204.8 204.8,-204.8c113.11,0 204.8,91.69 204.8,204.8c0,113.11 -91.69,204.8 -204.8,204.8c-113.11,0 -204.8,-91.69 -204.8,-204.8z"/>
		</clipPath>
		<linearGradient x1="0" y1="1024" x2="1024" y2="0" id="color-0ymbriLy" gradientUnits="userSpaceOnUse">
			<stop offset="0.2" stop-color="#000000"/>
			<stop offset="0.8" stop-color="#ffffff"/>
		</linearGradient>
		<radialGradient cx="0" cy="0" r="1448.15" id="color-pZAUfcv7" gradientUnits="userSpaceOnUse">
			<stop offset="0.07" stop-color="#ffffff"/>
			<stop offset="0.75" stop-color="#000000"/>
		</radialGradient>
		<filter id="filter-2n0hOIn6" x="0%" y="0%" width="100%" height="100%" color-interpolation-filters="sRGB">
			<feColorMatrix values="1 0 0 0 0 0 1 0 0 0 0 0 1 0 0 0 0 0 0.05 0" in="SourceGraphic"/>
			<feOffset dy="20"/>
			<feGaussianBlur stdDeviation="11" result="blur0"/>
			<feColorMatrix values="1 0 0 0 0 0 1 0 0 0 0 0 1 0 0 0 0 0 0.07 0" in="SourceGraphic"/>
			<feOffset dy="30"/>
			<feGaussianBlur stdDeviation="20" result="blur1"/>
			<feMerge>
				<feMergeNode in="blur0"/>
				<feMergeNode in="blur1"/>
			</feMerge>
		</filter>
		<filter id="filter-tA6LAu0T" color-interpolation-filters="sRGB">
			<feOffset/>
		</filter>
		<mask id="mask-Arx4PVhb">
			<path d="M170.67,614.4c0,-75.41 61.12,-136.53 136.53,-136.53c75.41,0 136.53,61.12 136.53,136.53c0,75.41 -61.12,136.53 -136.53,136.53c-75.41,0 -136.53,-61.12 -136.53,-136.53zM546.13,768c0,-47.13 38.21,-85.33 85.34,-85.33c47.13,0 85.33,38.2 85.33,85.33c0,47.13 -38.2,85.33 -85.33,85.33c-47.13,0 -85.34,-38.2 -85.34,-85.33zM443.73,375.47c0,-113.11 91.69,-204.8 204.8,-204.8c113.11,0 204.8,91.69 204.8,204.8c0,113.11 -91.69,204.8 -204.8,204.8c-113.11,0 -204.8,-91.69 -204.8,-204.8z" fill="url(#color-pZAUfcv7)"/>
		</mask>
		<mask id="mask-NRtwQv0S">
			<path d="M170.67,614.4c0,-75.41 61.12,-136.53 136.53,-136.53c75.41,0 136.53,61.12 136.53,136.53c0,75.41 -61.12,136.53 -136.53,136.53c-75.41,0 -136.53,-61.12 -136.53,-136.53zM546.13,768c0,-47.13 38.21,-85.33 85.34,-85.33c47.13,0 85.33,38.2 85.33,85.33c0,47.13 -38.2,85.33 -85.33,85.33c-47.13,0 -85.34,-38.2 -85.34,-85.33zM443.73,375.47c0,-113.11 91.69,-204.8 204.8,-204.8c113.11,0 204.8,91.69 204.8,204.8c0,113.11 -91.69,204.8 -204.8,204.8c-113.11,0 -204.8,-91.69 -204.8,-204.8z" fill="#ffffff"/>
		</mask>
		<mask id="mask-oIyplL6b">
			<rect fill="url(#color-0ymbriLy)" x="170.67" y="170.67" width="682.66" height="682.66"/>
		</mask>
	</defs>
	<g fill="none" fill-rule="nonzero" style="mix-blend-mode: normal">
		<g mask="url(#mask-NRtwQv0S)">
			<g color="#ffc107" class="teamapps-color-2">
				<rect x="170.67" y="170.67" width="682.66" height="682.66" fill="currentColor"/>
			</g>
			<g color="#e65100" class="teamapps-color-3" mask="url(#mask-oIyplL6b)">
				<rect x="170.67" y="170.67" width="682.66" height="682.66" fill="currentColor"/>
			</g>
		</g>
		<g filter="url(#filter-tA6LAu0T)" mask="url(#mask-Arx4PVhb)">
			<g color="#fff59d" class="teamapps-color-1">
				<rect x="170.67" y="170.67" width="682.66" height="682.66" fill="currentColor"/>
			</g>
		</g>
		<g clip-path="url(#clip-9QXtwDm0)">
			<path d="M77.67,896.33v-868.66h868.66v868.66zM307.2,750.93c75.41,0 136.53,-61.12 136.53,-136.53c0,-75.41 -61.12,-136.53 -136.53,-136.53c-75.41,0 -136.53,61.12 -136.53,136.53c0,75.41 61.12,136.53 136.53,136.53zM631.47,853.33c47.13,0 85.33,-38.2 85.33,-85.33c0,-47.13 -38.2,-85.33 -85.33,-85.33c-47.13,0 -85.34,38.2 -85.34,85.33c0,47.13 38.21,85.33 85.34,85.33zM648.53,580.27c113.11,0 204.8,-91.69 204.8,-204.8c0,-113.11 -91.69,-204.8 -204.8,-204.8c-113.11,0 -204.8,91.69 -204.8,204.8c0,113.11 91.69,204.8 204.8,204.8z" fill="#000000" filter="url(#filter-2n0hOIn6)"/>
		</g>
	</g>
</svg>