<svg version="1.1" xmlns="http://www.w3.org/2000/svg" xmlns:xlink="http://www.w3.org/1999/xlink" viewBox="0,0,1024,1024">
	<!-- Color names: teamapps-color-1, teamapps-color-2, teamapps-color-3 -->
	<desc>bug_report icon - Licensed under Apache License v2.0 (http://www.apache.org/licenses/LICENSE-2.0) - Created with Iconfu.com - Derivative work of Material icons (Copyright Google Inc.)</desc>
	<defs>
		<clipPath id="clip-9Lfe9x76">
			<path d="M853.33,426.67h-89.17c2.13,14.08 3.84,28.15 3.84,42.66v42.67h85.33v85.33h-85.33v42.67c0,14.51 -1.71,28.59 -3.84,42.67h89.17v85.33h-119.89c-44.37,76.37 -126.72,128 -221.44,128c-94.72,0 -177.07,-51.63 -221.44,-128h-119.89v-85.33h89.17c-2.13,-14.08 -3.84,-28.16 -3.84,-42.67v-42.67h-85.33v-85.33h85.33v-42.67c0,-14.51 1.71,-28.58 3.84,-42.66h-89.17v-85.34h119.89c19.2,-33.28 45.66,-61.86 77.23,-83.62l-69.12,-69.55l60.16,-60.16l93.01,92.59c19.2,-4.69 39.25,-7.26 60.16,-7.26c20.91,0 40.96,2.57 60.59,7.26l92.58,-92.59l60.16,60.16l-69.54,69.55c32,21.76 58.45,50.34 77.65,83.62h119.89zM597.33,597.33h-170.66v85.34h170.66zM597.33,426.67h-170.66v85.33h170.66z"/>
		</clipPath>
		<linearGradient x1="0" y1="1024" x2="1024" y2="0" id="color-bsY47o23" gradientUnits="userSpaceOnUse">
			<stop offset="0.2" stop-color="#000000"/>
			<stop offset="0.8" stop-color="#ffffff"/>
		</linearGradient>
		<radialGradient cx="0" cy="0" r="1448.15" id="color-DFXN6pBr" gradientUnits="userSpaceOnUse">
			<stop offset="0.07" stop-color="#ffffff"/>
			<stop offset="0.75" stop-color="#000000"/>
		</radialGradient>
		<filter id="filter-bgwX4g0F" x="0%" y="0%" width="100%" height="100%" color-interpolation-filters="sRGB">
			<feColorMatrix values="1 0 0 0 0 0 1 0 0 0 0 0 1 0 0 0 0 0 0.05 0" in="SourceGraphic"/>
			<feOffset dy="20"/>
			<feGaussianBlur stdDeviation="11" result="blur0"/>
			<feColorMatrix values="1 0 0 0 0 0 1 0 0 0 0 0 1 0 0 0 0 0 0.07 0" in="SourceGraphic"/>
			<feOffset dy="30"/>
			<feGaussianBlur stdDeviation="20" result="blur1"/>
			<feMerge>
				<feMergeNode in="blur0"/>
				<feMergeNode in="blur1"/>
			</feMerge>
		</filter>
		<filter id="filter-sJvxWdOv" color-interpolation-filters="sRGB">
			<feOffset/>
		</filter>
		<mask id="mask-0v657ZwF">
			<path d="M853.33,426.67h-89.17c2.13,14.08 3.84,28.15 3.84,42.66v42.67h85.33v85.33h-85.33v42.67c0,14.51 -1.71,28.59 -3.84,42.67h89.17v85.33h-119.89c-44.37,76.37 -126.72,128 -221.44,128c-94.72,0 -177.07,-51.63 -221.44,-128h-119.89v-85.33h89.17c-2.13,-14.08 -3.84,-28.16 -3.84,-42.67v-42.67h-85.33v-85.33h85.33v-42.67c0,-14.51 1.71,-28.58 3.84,-42.66h-89.17v-85.34h119.89c19.2,-33.28 45.66,-61.86 77.23,-83.62l-69.12,-69.55l60.16,-60.16l93.01,92.59c19.2,-4.69 39.25,-7.26 60.16,-7.26c20.91,0 40.96,2.57 60.59,7.26l92.58,-92.59l60.16,60.16l-69.54,69.55c32,21.76 58.45,50.34 77.65,83.62h119.89zM597.33,597.33h-170.66v85.34h170.66zM597.33,426.67h-170.66v85.33h170.66z" fill="url(#color-DFXN6pBr)"/>
		</mask>
		<mask id="mask-svEzMMcS">
			<path d="M853.33,426.67h-89.17c2.13,14.08 3.84,28.15 3.84,42.66v42.67h85.33v85.33h-85.33v42.67c0,14.51 -1.71,28.59 -3.84,42.67h89.17v85.33h-119.89c-44.37,76.37 -126.72,128 -221.44,128c-94.72,0 -177.07,-51.63 -221.44,-128h-119.89v-85.33h89.17c-2.13,-14.08 -3.84,-28.16 -3.84,-42.67v-42.67h-85.33v-85.33h85.33v-42.67c0,-14.51 1.71,-28.58 3.84,-42.66h-89.17v-85.34h119.89c19.2,-33.28 45.66,-61.86 77.23,-83.62l-69.12,-69.55l60.16,-60.16l93.01,92.59c19.2,-4.69 39.25,-7.26 60.16,-7.26c20.91,0 40.96,2.57 60.59,7.26l92.58,-92.59l60.16,60.16l-69.54,69.55c32,21.76 58.45,50.34 77.65,83.62h119.89zM597.33,597.33h-170.66v85.34h170.66zM597.33,426.67h-170.66v85.33h170.66z" fill="#ffffff"/>
		</mask>
		<mask id="mask-wflQNEiz">
			<rect fill="url(#color-bsY47o23)" x="170.67" y="128" width="682.66" height="768"/>
		</mask>
	</defs>
	<g fill="none" fill-rule="nonzero" style="mix-blend-mode: normal">
		<g mask="url(#mask-svEzMMcS)">
			<g color="#ffc107" class="teamapps-color-2">
				<rect x="170.67" y="128" width="682.66" height="768" fill="currentColor"/>
			</g>
			<g color="#e65100" class="teamapps-color-3" mask="url(#mask-wflQNEiz)">
				<rect x="170.67" y="128" width="682.66" height="768" fill="currentColor"/>
			</g>
		</g>
		<g filter="url(#filter-sJvxWdOv)" mask="url(#mask-0v657ZwF)">
			<g color="#fff59d" class="teamapps-color-1">
				<rect x="170.67" y="128" width="682.66" height="768" fill="currentColor"/>
			</g>
		</g>
		<g clip-path="url(#clip-9Lfe9x76)">
			<path d="M77.67,939v-954h868.66v954zM853.33,341.33h-119.89c-19.2,-33.28 -45.65,-61.86 -77.65,-83.62l69.54,-69.55l-60.16,-60.16l-92.58,92.59c-19.63,-4.69 -39.68,-7.26 -60.59,-7.26c-20.91,0 -40.96,2.57 -60.16,7.26l-93.01,-92.59l-60.16,60.16l69.12,69.55c-31.57,21.76 -58.03,50.34 -77.23,83.62h-119.89v85.34h89.17c-2.13,14.08 -3.84,28.15 -3.84,42.66v42.67h-85.33v85.33h85.33v42.67c0,14.51 1.71,28.59 3.84,42.67h-89.17v85.33h119.89c44.37,76.37 126.72,128 221.44,128c94.72,0 177.07,-51.63 221.44,-128h119.89v-85.33h-89.17c2.13,-14.08 3.84,-28.16 3.84,-42.67v-42.67h85.33v-85.33h-85.33v-42.67c0,-14.51 -1.71,-28.58 -3.84,-42.66h89.17zM597.33,682.67h-170.66v-85.34h170.66zM597.33,512h-170.66v-85.33h170.66z" fill="#000000" filter="url(#filter-bgwX4g0F)"/>
		</g>
	</g>
</svg>