<svg version="1.1" xmlns="http://www.w3.org/2000/svg" xmlns:xlink="http://www.w3.org/1999/xlink" viewBox="0,0,1024,1024">
	<!-- Color names: teamapps-color-1, teamapps-color-2, teamapps-color-3 -->
	<desc>call icon - Licensed under Apache License v2.0 (http://www.apache.org/licenses/LICENSE-2.0) - Created with Iconfu.com - Derivative work of Material icons (Copyright Google Inc.)</desc>
	<defs>
		<clipPath id="clip-grL9uuz2">
			<path d="M282.45,460.37c61.44,120.75 160.43,219.31 281.18,281.18l93.86,-93.87c11.52,-11.52 28.59,-15.36 43.52,-10.24c47.79,15.79 99.41,24.32 152.32,24.32c23.47,0 42.67,19.2 42.67,42.67v148.9c0,23.47 -19.2,42.67 -42.67,42.67c-400.64,0 -725.33,-324.69 -725.33,-725.33c0,-23.47 19.2,-42.67 42.67,-42.67h149.33c23.47,0 42.67,19.2 42.67,42.67c0,53.33 8.53,104.53 24.32,152.32c4.69,14.93 1.28,31.57 -10.67,43.52z"/>
		</clipPath>
		<radialGradient cx="0" cy="0" r="1448.15" id="color-qNPOXLoA" gradientUnits="userSpaceOnUse">
			<stop offset="0.07" stop-color="#ffffff"/>
			<stop offset="0.75" stop-color="#000000"/>
		</radialGradient>
		<linearGradient x1="0" y1="1024" x2="1024" y2="0" id="color-vqG8Jo3Z" gradientUnits="userSpaceOnUse">
			<stop offset="0.2" stop-color="#000000"/>
			<stop offset="0.8" stop-color="#ffffff"/>
		</linearGradient>
		<filter id="filter-78W9RrMT" x="0%" y="0%" width="100%" height="100%" color-interpolation-filters="sRGB">
			<feColorMatrix values="1 0 0 0 0 0 1 0 0 0 0 0 1 0 0 0 0 0 0.05 0" in="SourceGraphic"/>
			<feOffset dy="20"/>
			<feGaussianBlur stdDeviation="11" result="blur0"/>
			<feColorMatrix values="1 0 0 0 0 0 1 0 0 0 0 0 1 0 0 0 0 0 0.07 0" in="SourceGraphic"/>
			<feOffset dy="30"/>
			<feGaussianBlur stdDeviation="20" result="blur1"/>
			<feMerge>
				<feMergeNode in="blur0"/>
				<feMergeNode in="blur1"/>
			</feMerge>
		</filter>
		<filter id="filter-EmNpyC9R" color-interpolation-filters="sRGB">
			<feOffset/>
		</filter>
		<mask id="mask-5rotG2zY">
			<path d="M282.45,460.37c61.44,120.75 160.43,219.31 281.18,281.18l93.86,-93.87c11.52,-11.52 28.59,-15.36 43.52,-10.24c47.79,15.79 99.41,24.32 152.32,24.32c23.47,0 42.67,19.2 42.67,42.67v148.9c0,23.47 -19.2,42.67 -42.67,42.67c-400.64,0 -725.33,-324.69 -725.33,-725.33c0,-23.47 19.2,-42.67 42.67,-42.67h149.33c23.47,0 42.67,19.2 42.67,42.67c0,53.33 8.53,104.53 24.32,152.32c4.69,14.93 1.28,31.57 -10.67,43.52z" fill="#ffffff"/>
		</mask>
		<mask id="mask-QWh0okj4">
			<rect fill="url(#color-vqG8Jo3Z)" x="128" y="128" width="768" height="768"/>
		</mask>
		<mask id="mask-wqWtM0Fq">
			<path d="M282.45,460.37c61.44,120.75 160.43,219.31 281.18,281.18l93.86,-93.87c11.52,-11.52 28.59,-15.36 43.52,-10.24c47.79,15.79 99.41,24.32 152.32,24.32c23.47,0 42.67,19.2 42.67,42.67v148.9c0,23.47 -19.2,42.67 -42.67,42.67c-400.64,0 -725.33,-324.69 -725.33,-725.33c0,-23.47 19.2,-42.67 42.67,-42.67h149.33c23.47,0 42.67,19.2 42.67,42.67c0,53.33 8.53,104.53 24.32,152.32c4.69,14.93 1.28,31.57 -10.67,43.52z" fill="url(#color-qNPOXLoA)"/>
		</mask>
	</defs>
	<g fill="none" fill-rule="nonzero" style="mix-blend-mode: normal">
		<g mask="url(#mask-5rotG2zY)">
			<g color="#ffc107" class="teamapps-color-2">
				<rect x="128" y="128" width="768" height="768" fill="currentColor"/>
			</g>
			<g color="#e65100" class="teamapps-color-3" mask="url(#mask-QWh0okj4)">
				<rect x="128" y="128" width="768" height="768" fill="currentColor"/>
			</g>
		</g>
		<g filter="url(#filter-EmNpyC9R)" mask="url(#mask-wqWtM0Fq)">
			<g color="#fff59d" class="teamapps-color-1">
				<rect x="128" y="128" width="768" height="768" fill="currentColor"/>
			</g>
		</g>
		<g clip-path="url(#clip-grL9uuz2)">
			<path d="M35,939v-954h954v954zM376.32,366.51c11.95,-11.95 15.36,-28.59 10.67,-43.52c-15.79,-47.79 -24.32,-98.99 -24.32,-152.32c0,-23.47 -19.2,-42.67 -42.67,-42.67h-149.33c-23.47,0 -42.67,19.2 -42.67,42.67c0,400.64 324.69,725.33 725.33,725.33c23.47,0 42.67,-19.2 42.67,-42.67v-148.9c0,-23.47 -19.2,-42.67 -42.67,-42.67c-52.91,0 -104.53,-8.53 -152.32,-24.32c-14.93,-5.12 -32,-1.28 -43.52,10.24l-93.86,93.87c-120.75,-61.87 -219.74,-160.43 -281.18,-281.18z" fill="#000000" filter="url(#filter-78W9RrMT)"/>
		</g>
	</g>
</svg>