<svg version="1.1" xmlns="http://www.w3.org/2000/svg" xmlns:xlink="http://www.w3.org/1999/xlink" viewBox="0,0,1024,1024">
	<!-- Color names: teamapps-color-1, teamapps-color-2, teamapps-color-3 -->
	<desc>camera_front icon - Licensed under Apache License v2.0 (http://www.apache.org/licenses/LICENSE-2.0) - Created with Iconfu.com - Derivative work of Material icons (Copyright Google Inc.)</desc>
	<defs>
		<clipPath id="clip-vtfuCw2I">
			<path d="M810.67,85.33v597.34c0,46.93 -38.41,85.33 -85.34,85.33h-298.66l128,128l-128,128v-85.33h-213.34v-85.34h213.34v-85.33h-128c-46.93,0 -85.34,-38.4 -85.34,-85.33v-597.34c0,-46.93 38.41,-85.33 85.34,-85.33h426.66c46.93,0 85.34,38.4 85.34,85.33zM298.67,533.33c0,-71.25 142.08,-106.66 213.33,-106.66c71.25,0 213.33,35.41 213.33,106.66v-448h-426.66zM427.09,256c0,-46.93 37.98,-85.33 84.91,-85.33c46.93,0 85.33,38.4 85.33,85.33c0,46.93 -38.4,85.33 -85.33,85.33c-46.93,0 -84.91,-38.4 -84.91,-85.33zM810.67,853.33v85.34h-213.34v-85.34z"/>
		</clipPath>
		<linearGradient x1="0" y1="1024" x2="1024" y2="0" id="color-KxQJvL7z" gradientUnits="userSpaceOnUse">
			<stop offset="0.2" stop-color="#000000"/>
			<stop offset="0.8" stop-color="#ffffff"/>
		</linearGradient>
		<radialGradient cx="0" cy="0" r="1448.15" id="color-oMB4pWaI" gradientUnits="userSpaceOnUse">
			<stop offset="0.07" stop-color="#ffffff"/>
			<stop offset="0.75" stop-color="#000000"/>
		</radialGradient>
		<filter id="filter-j4BQz6Ct" color-interpolation-filters="sRGB">
			<feOffset/>
		</filter>
		<filter id="filter-ZpcXifFR" x="0%" y="0%" width="100%" height="100%" color-interpolation-filters="sRGB">
			<feColorMatrix values="1 0 0 0 0 0 1 0 0 0 0 0 1 0 0 0 0 0 0.05 0" in="SourceGraphic"/>
			<feOffset dy="20"/>
			<feGaussianBlur stdDeviation="11" result="blur0"/>
			<feColorMatrix values="1 0 0 0 0 0 1 0 0 0 0 0 1 0 0 0 0 0 0.07 0" in="SourceGraphic"/>
			<feOffset dy="30"/>
			<feGaussianBlur stdDeviation="20" result="blur1"/>
			<feMerge>
				<feMergeNode in="blur0"/>
				<feMergeNode in="blur1"/>
			</feMerge>
		</filter>
		<mask id="mask-LrCDCSth">
			<rect fill="url(#color-KxQJvL7z)" x="213.33" y="0" width="597.34" height="1024"/>
		</mask>
		<mask id="mask-ovJRXJrd">
			<path d="M810.67,85.33v597.34c0,46.93 -38.41,85.33 -85.34,85.33h-298.66l128,128l-128,128v-85.33h-213.34v-85.34h213.34v-85.33h-128c-46.93,0 -85.34,-38.4 -85.34,-85.33v-597.34c0,-46.93 38.41,-85.33 85.34,-85.33h426.66c46.93,0 85.34,38.4 85.34,85.33zM298.67,533.33c0,-71.25 142.08,-106.66 213.33,-106.66c71.25,0 213.33,35.41 213.33,106.66v-448h-426.66zM427.09,256c0,-46.93 37.98,-85.33 84.91,-85.33c46.93,0 85.33,38.4 85.33,85.33c0,46.93 -38.4,85.33 -85.33,85.33c-46.93,0 -84.91,-38.4 -84.91,-85.33zM810.67,853.33v85.34h-213.34v-85.34z" fill="#ffffff"/>
		</mask>
		<mask id="mask-RXSGTqR2">
			<path d="M810.67,85.33v597.34c0,46.93 -38.41,85.33 -85.34,85.33h-298.66l128,128l-128,128v-85.33h-213.34v-85.34h213.34v-85.33h-128c-46.93,0 -85.34,-38.4 -85.34,-85.33v-597.34c0,-46.93 38.41,-85.33 85.34,-85.33h426.66c46.93,0 85.34,38.4 85.34,85.33zM298.67,533.33c0,-71.25 142.08,-106.66 213.33,-106.66c71.25,0 213.33,35.41 213.33,106.66v-448h-426.66zM427.09,256c0,-46.93 37.98,-85.33 84.91,-85.33c46.93,0 85.33,38.4 85.33,85.33c0,46.93 -38.4,85.33 -85.33,85.33c-46.93,0 -84.91,-38.4 -84.91,-85.33zM810.67,853.33v85.34h-213.34v-85.34z" fill="url(#color-oMB4pWaI)"/>
		</mask>
	</defs>
	<g fill="none" fill-rule="nonzero" style="mix-blend-mode: normal">
		<g mask="url(#mask-ovJRXJrd)">
			<g color="#ffc107" class="teamapps-color-2">
				<rect x="213.33" y="0" width="597.34" height="1024" fill="currentColor"/>
			</g>
			<g color="#e65100" class="teamapps-color-3" mask="url(#mask-LrCDCSth)">
				<rect x="213.33" y="0" width="597.34" height="1024" fill="currentColor"/>
			</g>
		</g>
		<g filter="url(#filter-j4BQz6Ct)" mask="url(#mask-RXSGTqR2)">
			<g color="#fff59d" class="teamapps-color-1">
				<rect x="213.33" y="0" width="597.34" height="1024" fill="currentColor"/>
			</g>
		</g>
		<g clip-path="url(#clip-vtfuCw2I)">
			<path d="M120.33,1067v-1210h783.34v1210zM725.33,0h-426.66c-46.93,0 -85.34,38.4 -85.34,85.33v597.34c0,46.93 38.41,85.33 85.34,85.33h128v85.33h-213.34v85.34h213.34v85.33l128,-128l-128,-128h298.66c46.93,0 85.34,-38.4 85.34,-85.33v-597.34c0,-46.93 -38.41,-85.33 -85.34,-85.33zM298.67,85.33h426.66v448c0,-71.25 -142.08,-106.66 -213.33,-106.66c-71.25,0 -213.33,35.41 -213.33,106.66zM512,341.33c46.93,0 85.33,-38.4 85.33,-85.33c0,-46.93 -38.4,-85.33 -85.33,-85.33c-46.93,0 -84.91,38.4 -84.91,85.33c0,46.93 37.98,85.33 84.91,85.33zM597.33,853.33v85.34h213.34v-85.34z" fill="#000000" filter="url(#filter-ZpcXifFR)"/>
		</g>
	</g>
</svg>