<svg version="1.1" xmlns="http://www.w3.org/2000/svg" xmlns:xlink="http://www.w3.org/1999/xlink" viewBox="0,0,1024,1024">
	<!-- Color names: teamapps-color-1, teamapps-color-2, teamapps-color-3 -->
	<desc>chat_bubble icon - Licensed under Apache License v2.0 (http://www.apache.org/licenses/LICENSE-2.0) - Created with Iconfu.com - Derivative work of Material icons (Copyright Google Inc.)</desc>
	<defs>
		<clipPath id="clip-PkLBY6Z0">
			<path d="M938.67,170.67v512c0,46.93 -38.41,85.33 -85.34,85.33h-597.33l-170.67,170.67v-768c0,-46.93 38.41,-85.34 85.34,-85.34h682.66c46.93,0 85.34,38.41 85.34,85.34z"/>
		</clipPath>
		<radialGradient cx="0" cy="0" r="1448.15" id="color-EgI19jlI" gradientUnits="userSpaceOnUse">
			<stop offset="0.07" stop-color="#ffffff"/>
			<stop offset="0.75" stop-color="#000000"/>
		</radialGradient>
		<linearGradient x1="0" y1="1024" x2="1024" y2="0" id="color-VnJD0hHp" gradientUnits="userSpaceOnUse">
			<stop offset="0.2" stop-color="#000000"/>
			<stop offset="0.8" stop-color="#ffffff"/>
		</linearGradient>
		<filter id="filter-Abrl6eFm" color-interpolation-filters="sRGB">
			<feOffset/>
		</filter>
		<filter id="filter-yjmg5T0s" x="0%" y="0%" width="100%" height="100%" color-interpolation-filters="sRGB">
			<feColorMatrix values="1 0 0 0 0 0 1 0 0 0 0 0 1 0 0 0 0 0 0.05 0" in="SourceGraphic"/>
			<feOffset dy="20"/>
			<feGaussianBlur stdDeviation="11" result="blur0"/>
			<feColorMatrix values="1 0 0 0 0 0 1 0 0 0 0 0 1 0 0 0 0 0 0.07 0" in="SourceGraphic"/>
			<feOffset dy="30"/>
			<feGaussianBlur stdDeviation="20" result="blur1"/>
			<feMerge>
				<feMergeNode in="blur0"/>
				<feMergeNode in="blur1"/>
			</feMerge>
		</filter>
		<mask id="mask-mCq5QqWT">
			<path d="M938.67,170.67v512c0,46.93 -38.41,85.33 -85.34,85.33h-597.33l-170.67,170.67v-768c0,-46.93 38.41,-85.34 85.34,-85.34h682.66c46.93,0 85.34,38.41 85.34,85.34z" fill="url(#color-EgI19jlI)"/>
		</mask>
		<mask id="mask-mFYyKruF">
			<rect fill="url(#color-VnJD0hHp)" x="85.33" y="85.33" width="853.34" height="853.34"/>
		</mask>
		<mask id="mask-YhR6CK89">
			<path d="M938.67,170.67v512c0,46.93 -38.41,85.33 -85.34,85.33h-597.33l-170.67,170.67v-768c0,-46.93 38.41,-85.34 85.34,-85.34h682.66c46.93,0 85.34,38.41 85.34,85.34z" fill="#ffffff"/>
		</mask>
	</defs>
	<g fill="none" fill-rule="nonzero" style="mix-blend-mode: normal">
		<g mask="url(#mask-YhR6CK89)">
			<g color="#ffc107" class="teamapps-color-2">
				<rect x="85.33" y="85.33" width="853.34" height="853.34" fill="currentColor"/>
			</g>
			<g color="#e65100" class="teamapps-color-3" mask="url(#mask-mFYyKruF)">
				<rect x="85.33" y="85.33" width="853.34" height="853.34" fill="currentColor"/>
			</g>
		</g>
		<g filter="url(#filter-Abrl6eFm)" mask="url(#mask-mCq5QqWT)">
			<g color="#fff59d" class="teamapps-color-1">
				<rect x="85.33" y="85.33" width="853.34" height="853.34" fill="currentColor"/>
			</g>
		</g>
		<g clip-path="url(#clip-PkLBY6Z0)">
			<path d="M-7.67,981.67v-1039.34h1039.34v1039.34zM853.33,85.33h-682.66c-46.93,0 -85.34,38.41 -85.34,85.34v768l170.67,-170.67h597.33c46.93,0 85.34,-38.4 85.34,-85.33v-512c0,-46.93 -38.41,-85.34 -85.34,-85.34z" fill="#000000" filter="url(#filter-yjmg5T0s)"/>
		</g>
	</g>
</svg>