<svg version="1.1" xmlns="http://www.w3.org/2000/svg" xmlns:xlink="http://www.w3.org/1999/xlink" viewBox="0,0,1024,1024">
	<!-- Color names: teamapps-color-1, teamapps-color-2, teamapps-color-3 -->
	<desc>clear_all icon - Licensed under Apache License v2.0 (http://www.apache.org/licenses/LICENSE-2.0) - Created with Iconfu.com - Derivative work of Material icons (Copyright Google Inc.)</desc>
	<defs>
		<clipPath id="clip-lWVY49QZ">
			<path d="M896,298.67v85.33h-597.33v-85.33zM213.33,469.33h597.34v85.34h-597.34zM128,640h597.33v85.33h-597.33z"/>
		</clipPath>
		<linearGradient x1="0" y1="1024" x2="1024" y2="0" id="color-DIdIg3Oy" gradientUnits="userSpaceOnUse">
			<stop offset="0.2" stop-color="#000000"/>
			<stop offset="0.8" stop-color="#ffffff"/>
		</linearGradient>
		<radialGradient cx="0" cy="0" r="1448.15" id="color-dIDr6F5f" gradientUnits="userSpaceOnUse">
			<stop offset="0.07" stop-color="#ffffff"/>
			<stop offset="0.75" stop-color="#000000"/>
		</radialGradient>
		<filter id="filter-OhgVfoQ8" x="0%" y="0%" width="100%" height="100%" color-interpolation-filters="sRGB">
			<feColorMatrix values="1 0 0 0 0 0 1 0 0 0 0 0 1 0 0 0 0 0 0.05 0" in="SourceGraphic"/>
			<feOffset dy="20"/>
			<feGaussianBlur stdDeviation="11" result="blur0"/>
			<feColorMatrix values="1 0 0 0 0 0 1 0 0 0 0 0 1 0 0 0 0 0 0.07 0" in="SourceGraphic"/>
			<feOffset dy="30"/>
			<feGaussianBlur stdDeviation="20" result="blur1"/>
			<feMerge>
				<feMergeNode in="blur0"/>
				<feMergeNode in="blur1"/>
			</feMerge>
		</filter>
		<filter id="filter-Yk1xdG15" color-interpolation-filters="sRGB">
			<feOffset/>
		</filter>
		<mask id="mask-ay0AseI9">
			<rect fill="url(#color-DIdIg3Oy)" x="128" y="298.67" width="768" height="426.66"/>
		</mask>
		<mask id="mask-id6T8yxc">
			<path d="M896,298.67v85.33h-597.33v-85.33zM213.33,469.33h597.34v85.34h-597.34zM128,640h597.33v85.33h-597.33z" fill="url(#color-dIDr6F5f)"/>
		</mask>
		<mask id="mask-nPotVwOC">
			<path d="M896,298.67v85.33h-597.33v-85.33zM213.33,469.33h597.34v85.34h-597.34zM128,640h597.33v85.33h-597.33z" fill="#ffffff"/>
		</mask>
	</defs>
	<g fill="none" fill-rule="nonzero" style="mix-blend-mode: normal">
		<g mask="url(#mask-nPotVwOC)">
			<g color="#ffc107" class="teamapps-color-2">
				<rect x="128" y="298.67" width="768" height="426.66" fill="currentColor"/>
			</g>
			<g color="#e65100" class="teamapps-color-3" mask="url(#mask-ay0AseI9)">
				<rect x="128" y="298.67" width="768" height="426.66" fill="currentColor"/>
			</g>
		</g>
		<g filter="url(#filter-Yk1xdG15)" mask="url(#mask-id6T8yxc)">
			<g color="#fff59d" class="teamapps-color-1">
				<rect x="128" y="298.67" width="768" height="426.66" fill="currentColor"/>
			</g>
		</g>
		<g clip-path="url(#clip-lWVY49QZ)">
			<path d="M35,768.33v-612.66h954v612.66zM298.67,298.67v85.33h597.33v-85.33zM213.33,554.67h597.34v-85.34h-597.34zM128,725.33h597.33v-85.33h-597.33z" fill="#000000" filter="url(#filter-OhgVfoQ8)"/>
		</g>
	</g>
</svg>