<svg version="1.1" xmlns="http://www.w3.org/2000/svg" xmlns:xlink="http://www.w3.org/1999/xlink" viewBox="0,0,1024,1024">
	<!-- Color names: teamapps-color-1, teamapps-color-2, teamapps-color-3 -->
	<desc>copyright icon - Licensed under Apache License v2.0 (http://www.apache.org/licenses/LICENSE-2.0) - Created with Iconfu.com - Derivative work of Material icons (Copyright Google Inc.)</desc>
	<defs>
		<clipPath id="clip-I8qjgRJ8">
			<path d="M938.67,512c0,235.52 -191.15,426.67 -426.67,426.67c-235.52,0 -426.67,-191.15 -426.67,-426.67c0,-235.52 191.15,-426.67 426.67,-426.67c235.52,0 426.67,191.15 426.67,426.67zM853.33,512c0,-188.16 -153.17,-341.33 -341.33,-341.33c-188.16,0 -341.33,153.17 -341.33,341.33c0,188.16 153.17,341.33 341.33,341.33c188.16,0 341.33,-153.17 341.33,-341.33zM426.67,506.45v11.52c0,14.08 1.28,28.59 3.41,42.67c2.13,14.08 6.83,26.88 12.8,37.55c5.97,10.67 14.5,19.62 25.17,26.45c9.81,6.4 22.62,9.38 37.98,9.81c8.96,-0.43 17.49,-1.27 25.6,-4.26c8.53,-2.99 15.78,-7.25 22.18,-12.8c6.4,-5.55 11.52,-11.95 15.36,-19.63c3.84,-7.68 5.97,-15.79 6.4,-24.75h76.38c-0.43,17.49 -5.12,33.71 -12.8,49.07c-7.68,15.36 -18.35,28.59 -31.58,40.11c-13.23,11.52 -28.59,20.48 -46.08,26.88c-17.49,6.4 -36.27,9.81 -56.32,9.81c-27.73,0 -52.05,-5.12 -72.53,-14.51c-20.48,-9.39 -37.55,-22.61 -51.2,-38.82c-13.65,-16.21 -23.89,-35.41 -30.29,-57.6c-6.4,-22.19 -9.82,-45.23 -9.82,-69.98v-11.52c0,-24.75 3.84,-47.78 10.24,-69.97c6.4,-22.19 16.65,-41.39 30.3,-58.03c13.65,-16.64 30.72,-29.44 51.2,-39.25c20.48,-9.81 44.8,-14.51 72.53,-14.51c21.76,0 41.39,2.99 59.31,9.82c17.92,6.83 33.28,16.21 46.08,28.16c12.8,11.95 22.61,26.45 29.86,43.09c7.25,16.64 11.1,34.99 11.95,55.04h-76.37c-0.43,-9.39 -2.14,-18.78 -5.98,-27.31c-3.84,-8.53 -8.53,-16.21 -14.5,-22.61c-5.97,-6.4 -13.66,-11.52 -22.19,-15.36c-8.11,-3.41 -17.07,-5.12 -26.88,-5.55c-15.79,0.43 -28.59,3.42 -38.83,9.82c-10.67,6.83 -19.2,15.78 -25.17,26.45c-5.97,10.67 -10.67,23.04 -12.8,37.12c-2.13,14.08 -3.41,28.16 -3.41,43.09z"/>
		</clipPath>
		<linearGradient x1="0" y1="1024" x2="1024" y2="0" id="color-dW2V3qRM" gradientUnits="userSpaceOnUse">
			<stop offset="0.2" stop-color="#000000"/>
			<stop offset="0.8" stop-color="#ffffff"/>
		</linearGradient>
		<radialGradient cx="0" cy="0" r="1448.15" id="color-u8aZ0Q5R" gradientUnits="userSpaceOnUse">
			<stop offset="0.07" stop-color="#ffffff"/>
			<stop offset="0.75" stop-color="#000000"/>
		</radialGradient>
		<filter id="filter-D00HliLJ" color-interpolation-filters="sRGB">
			<feOffset/>
		</filter>
		<filter id="filter-dq1AR67x" x="0%" y="0%" width="100%" height="100%" color-interpolation-filters="sRGB">
			<feColorMatrix values="1 0 0 0 0 0 1 0 0 0 0 0 1 0 0 0 0 0 0.05 0" in="SourceGraphic"/>
			<feOffset dy="20"/>
			<feGaussianBlur stdDeviation="11" result="blur0"/>
			<feColorMatrix values="1 0 0 0 0 0 1 0 0 0 0 0 1 0 0 0 0 0 0.07 0" in="SourceGraphic"/>
			<feOffset dy="30"/>
			<feGaussianBlur stdDeviation="20" result="blur1"/>
			<feMerge>
				<feMergeNode in="blur0"/>
				<feMergeNode in="blur1"/>
			</feMerge>
		</filter>
		<mask id="mask-BKtpC3nE">
			<path d="M938.67,512c0,235.52 -191.15,426.67 -426.67,426.67c-235.52,0 -426.67,-191.15 -426.67,-426.67c0,-235.52 191.15,-426.67 426.67,-426.67c235.52,0 426.67,191.15 426.67,426.67zM853.33,512c0,-188.16 -153.17,-341.33 -341.33,-341.33c-188.16,0 -341.33,153.17 -341.33,341.33c0,188.16 153.17,341.33 341.33,341.33c188.16,0 341.33,-153.17 341.33,-341.33zM426.67,506.45v11.52c0,14.08 1.28,28.59 3.41,42.67c2.13,14.08 6.83,26.88 12.8,37.55c5.97,10.67 14.5,19.62 25.17,26.45c9.81,6.4 22.62,9.38 37.98,9.81c8.96,-0.43 17.49,-1.27 25.6,-4.26c8.53,-2.99 15.78,-7.25 22.18,-12.8c6.4,-5.55 11.52,-11.95 15.36,-19.63c3.84,-7.68 5.97,-15.79 6.4,-24.75h76.38c-0.43,17.49 -5.12,33.71 -12.8,49.07c-7.68,15.36 -18.35,28.59 -31.58,40.11c-13.23,11.52 -28.59,20.48 -46.08,26.88c-17.49,6.4 -36.27,9.81 -56.32,9.81c-27.73,0 -52.05,-5.12 -72.53,-14.51c-20.48,-9.39 -37.55,-22.61 -51.2,-38.82c-13.65,-16.21 -23.89,-35.41 -30.29,-57.6c-6.4,-22.19 -9.82,-45.23 -9.82,-69.98v-11.52c0,-24.75 3.84,-47.78 10.24,-69.97c6.4,-22.19 16.65,-41.39 30.3,-58.03c13.65,-16.64 30.72,-29.44 51.2,-39.25c20.48,-9.81 44.8,-14.51 72.53,-14.51c21.76,0 41.39,2.99 59.31,9.82c17.92,6.83 33.28,16.21 46.08,28.16c12.8,11.95 22.61,26.45 29.86,43.09c7.25,16.64 11.1,34.99 11.95,55.04h-76.37c-0.43,-9.39 -2.14,-18.78 -5.98,-27.31c-3.84,-8.53 -8.53,-16.21 -14.5,-22.61c-5.97,-6.4 -13.66,-11.52 -22.19,-15.36c-8.11,-3.41 -17.07,-5.12 -26.88,-5.55c-15.79,0.43 -28.59,3.42 -38.83,9.82c-10.67,6.83 -19.2,15.78 -25.17,26.45c-5.97,10.67 -10.67,23.04 -12.8,37.12c-2.13,14.08 -3.41,28.16 -3.41,43.09z" fill="#ffffff"/>
		</mask>
		<mask id="mask-GBoprqGq">
			<rect fill="url(#color-dW2V3qRM)" x="85.33" y="85.33" width="853.34" height="853.34"/>
		</mask>
		<mask id="mask-M83GAHuq">
			<path d="M938.67,512c0,235.52 -191.15,426.67 -426.67,426.67c-235.52,0 -426.67,-191.15 -426.67,-426.67c0,-235.52 191.15,-426.67 426.67,-426.67c235.52,0 426.67,191.15 426.67,426.67zM853.33,512c0,-188.16 -153.17,-341.33 -341.33,-341.33c-188.16,0 -341.33,153.17 -341.33,341.33c0,188.16 153.17,341.33 341.33,341.33c188.16,0 341.33,-153.17 341.33,-341.33zM426.67,506.45v11.52c0,14.08 1.28,28.59 3.41,42.67c2.13,14.08 6.83,26.88 12.8,37.55c5.97,10.67 14.5,19.62 25.17,26.45c9.81,6.4 22.62,9.38 37.98,9.81c8.96,-0.43 17.49,-1.27 25.6,-4.26c8.53,-2.99 15.78,-7.25 22.18,-12.8c6.4,-5.55 11.52,-11.95 15.36,-19.63c3.84,-7.68 5.97,-15.79 6.4,-24.75h76.38c-0.43,17.49 -5.12,33.71 -12.8,49.07c-7.68,15.36 -18.35,28.59 -31.58,40.11c-13.23,11.52 -28.59,20.48 -46.08,26.88c-17.49,6.4 -36.27,9.81 -56.32,9.81c-27.73,0 -52.05,-5.12 -72.53,-14.51c-20.48,-9.39 -37.55,-22.61 -51.2,-38.82c-13.65,-16.21 -23.89,-35.41 -30.29,-57.6c-6.4,-22.19 -9.82,-45.23 -9.82,-69.98v-11.52c0,-24.75 3.84,-47.78 10.24,-69.97c6.4,-22.19 16.65,-41.39 30.3,-58.03c13.65,-16.64 30.72,-29.44 51.2,-39.25c20.48,-9.81 44.8,-14.51 72.53,-14.51c21.76,0 41.39,2.99 59.31,9.82c17.92,6.83 33.28,16.21 46.08,28.16c12.8,11.95 22.61,26.45 29.86,43.09c7.25,16.64 11.1,34.99 11.95,55.04h-76.37c-0.43,-9.39 -2.14,-18.78 -5.98,-27.31c-3.84,-8.53 -8.53,-16.21 -14.5,-22.61c-5.97,-6.4 -13.66,-11.52 -22.19,-15.36c-8.11,-3.41 -17.07,-5.12 -26.88,-5.55c-15.79,0.43 -28.59,3.42 -38.83,9.82c-10.67,6.83 -19.2,15.78 -25.17,26.45c-5.97,10.67 -10.67,23.04 -12.8,37.12c-2.13,14.08 -3.41,28.16 -3.41,43.09z" fill="url(#color-u8aZ0Q5R)"/>
		</mask>
	</defs>
	<g fill="none" fill-rule="nonzero" style="mix-blend-mode: normal">
		<g mask="url(#mask-BKtpC3nE)">
			<g color="#ffc107" class="teamapps-color-2">
				<rect x="85.33" y="85.33" width="853.34" height="853.34" fill="currentColor"/>
			</g>
			<g color="#e65100" class="teamapps-color-3" mask="url(#mask-GBoprqGq)">
				<rect x="85.33" y="85.33" width="853.34" height="853.34" fill="currentColor"/>
			</g>
		</g>
		<g filter="url(#filter-D00HliLJ)" mask="url(#mask-M83GAHuq)">
			<g color="#fff59d" class="teamapps-color-1">
				<rect x="85.33" y="85.33" width="853.34" height="853.34" fill="currentColor"/>
			</g>
		</g>
		<g clip-path="url(#clip-I8qjgRJ8)">
			<path d="M-7.67,981.67v-1039.34h1039.34v1039.34zM512,85.33c-235.52,0 -426.67,191.15 -426.67,426.67c0,235.52 191.15,426.67 426.67,426.67c235.52,0 426.67,-191.15 426.67,-426.67c0,-235.52 -191.15,-426.67 -426.67,-426.67zM512,853.33c-188.16,0 -341.33,-153.17 -341.33,-341.33c0,-188.16 153.17,-341.33 341.33,-341.33c188.16,0 341.33,153.17 341.33,341.33c0,188.16 -153.17,341.33 -341.33,341.33zM430.08,463.36c2.13,-14.08 6.83,-26.45 12.8,-37.12c5.97,-10.67 14.5,-19.62 25.17,-26.45c10.24,-6.4 23.04,-9.39 38.83,-9.82c9.81,0.43 18.77,2.14 26.88,5.55c8.53,3.84 16.22,8.96 22.19,15.36c5.97,6.4 10.66,14.08 14.5,22.61c3.84,8.53 5.55,17.92 5.98,27.31h76.37c-0.85,-20.05 -4.7,-38.4 -11.95,-55.04c-7.25,-16.64 -17.06,-31.14 -29.86,-43.09c-12.8,-11.95 -28.16,-21.33 -46.08,-28.16c-17.92,-6.83 -37.55,-9.82 -59.31,-9.82c-27.73,0 -52.05,4.7 -72.53,14.51c-20.48,9.81 -37.55,22.61 -51.2,39.25c-13.65,16.64 -23.9,35.84 -30.3,58.03c-6.4,22.19 -10.24,45.22 -10.24,69.97v11.52c0,24.75 3.42,47.79 9.82,69.98c6.4,22.19 16.64,41.39 30.29,57.6c13.65,16.21 30.72,29.43 51.2,38.82c20.48,9.39 44.8,14.51 72.53,14.51c20.05,0 38.83,-3.41 56.32,-9.81c17.49,-6.4 32.85,-15.36 46.08,-26.88c13.23,-11.52 23.9,-24.75 31.58,-40.11c7.68,-15.36 12.37,-31.58 12.8,-49.07h-76.38c-0.43,8.96 -2.56,17.07 -6.4,24.75c-3.84,7.68 -8.96,14.08 -15.36,19.63c-6.4,5.55 -13.65,9.81 -22.18,12.8c-8.11,2.99 -16.64,3.83 -25.6,4.26c-15.36,-0.43 -28.17,-3.41 -37.98,-9.81c-10.67,-6.83 -19.2,-15.78 -25.17,-26.45c-5.97,-10.67 -10.67,-23.47 -12.8,-37.55c-2.13,-14.08 -3.41,-28.59 -3.41,-42.67v-11.52c0,-14.93 1.28,-29.01 3.41,-43.09z" fill="#000000" filter="url(#filter-dq1AR67x)"/>
		</g>
	</g>
</svg>