<svg version="1.1" xmlns="http://www.w3.org/2000/svg" xmlns:xlink="http://www.w3.org/1999/xlink" viewBox="0,0,1024,1024">
	<!-- Color names: teamapps-color-1, teamapps-color-2, teamapps-color-3 -->
	<desc>create_new_folder icon - Licensed under Apache License v2.0 (http://www.apache.org/licenses/LICENSE-2.0) - Created with Iconfu.com - Derivative work of Material icons (Copyright Google Inc.)</desc>
	<defs>
		<clipPath id="clip-S8FQBY07">
			<path d="M938.67,341.33v426.67c0,47.36 -37.98,85.33 -85.34,85.33h-682.66c-47.36,0 -85.34,-37.97 -85.34,-85.33l0.43,-512c0,-47.36 37.55,-85.33 84.91,-85.33h256l85.33,85.33h341.33c47.36,0 85.34,37.97 85.34,85.33zM810.67,512h-128v-128h-85.34v128h-128v85.33h128v128h85.34v-128h128z"/>
		</clipPath>
		<radialGradient cx="0" cy="0" r="1448.15" id="color-Gfj4FphP" gradientUnits="userSpaceOnUse">
			<stop offset="0.07" stop-color="#ffffff"/>
			<stop offset="0.75" stop-color="#000000"/>
		</radialGradient>
		<linearGradient x1="0" y1="1024" x2="1024" y2="0" id="color-ZI0jyz5T" gradientUnits="userSpaceOnUse">
			<stop offset="0.2" stop-color="#000000"/>
			<stop offset="0.8" stop-color="#ffffff"/>
		</linearGradient>
		<filter id="filter-JxLyfq29" color-interpolation-filters="sRGB">
			<feOffset/>
		</filter>
		<filter id="filter-pyiGYRHt" x="0%" y="0%" width="100%" height="100%" color-interpolation-filters="sRGB">
			<feColorMatrix values="1 0 0 0 0 0 1 0 0 0 0 0 1 0 0 0 0 0 0.05 0" in="SourceGraphic"/>
			<feOffset dy="20"/>
			<feGaussianBlur stdDeviation="11" result="blur0"/>
			<feColorMatrix values="1 0 0 0 0 0 1 0 0 0 0 0 1 0 0 0 0 0 0.07 0" in="SourceGraphic"/>
			<feOffset dy="30"/>
			<feGaussianBlur stdDeviation="20" result="blur1"/>
			<feMerge>
				<feMergeNode in="blur0"/>
				<feMergeNode in="blur1"/>
			</feMerge>
		</filter>
		<mask id="mask-4InBXCQS">
			<path d="M938.67,341.33v426.67c0,47.36 -37.98,85.33 -85.34,85.33h-682.66c-47.36,0 -85.34,-37.97 -85.34,-85.33l0.43,-512c0,-47.36 37.55,-85.33 84.91,-85.33h256l85.33,85.33h341.33c47.36,0 85.34,37.97 85.34,85.33zM810.67,512h-128v-128h-85.34v128h-128v85.33h128v128h85.34v-128h128z" fill="url(#color-Gfj4FphP)"/>
		</mask>
		<mask id="mask-kkvNCIGu">
			<path d="M938.67,341.33v426.67c0,47.36 -37.98,85.33 -85.34,85.33h-682.66c-47.36,0 -85.34,-37.97 -85.34,-85.33l0.43,-512c0,-47.36 37.55,-85.33 84.91,-85.33h256l85.33,85.33h341.33c47.36,0 85.34,37.97 85.34,85.33zM810.67,512h-128v-128h-85.34v128h-128v85.33h128v128h85.34v-128h128z" fill="#ffffff"/>
		</mask>
		<mask id="mask-TuHxU8tz">
			<rect fill="url(#color-ZI0jyz5T)" x="85.33" y="170.67" width="853.34" height="682.66"/>
		</mask>
	</defs>
	<g fill="none" fill-rule="nonzero" style="mix-blend-mode: normal">
		<g mask="url(#mask-kkvNCIGu)">
			<g color="#ffc107" class="teamapps-color-2">
				<rect x="85.33" y="170.67" width="853.34" height="682.66" fill="currentColor"/>
			</g>
			<g color="#e65100" class="teamapps-color-3" mask="url(#mask-TuHxU8tz)">
				<rect x="85.33" y="170.67" width="853.34" height="682.66" fill="currentColor"/>
			</g>
		</g>
		<g filter="url(#filter-JxLyfq29)" mask="url(#mask-4InBXCQS)">
			<g color="#fff59d" class="teamapps-color-1">
				<rect x="85.33" y="170.67" width="853.34" height="682.66" fill="currentColor"/>
			</g>
		</g>
		<g clip-path="url(#clip-S8FQBY07)">
			<path d="M-7.67,896.33v-868.66h1039.34v868.66zM853.33,256h-341.33l-85.33,-85.33h-256c-47.36,0 -84.91,37.97 -84.91,85.33l-0.43,512c0,47.36 37.98,85.33 85.34,85.33h682.66c47.36,0 85.34,-37.97 85.34,-85.33v-426.67c0,-47.36 -37.98,-85.33 -85.34,-85.33zM810.67,597.33h-128v128h-85.34v-128h-128v-85.33h128v-128h85.34v128h128z" fill="#000000" filter="url(#filter-pyiGYRHt)"/>
		</g>
	</g>
</svg>