<svg version="1.1" xmlns="http://www.w3.org/2000/svg" xmlns:xlink="http://www.w3.org/1999/xlink" viewBox="0,0,1024,1024">
	<!-- Color names: teamapps-color-1, teamapps-color-2, teamapps-color-3 -->
	<desc>crop_7_5 icon - Licensed under Apache License v2.0 (http://www.apache.org/licenses/LICENSE-2.0) - Created with Iconfu.com - Derivative work of Material icons (Copyright Google Inc.)</desc>
	<defs>
		<clipPath id="clip-SKLKU4nA">
			<path d="M896,384v256c0,46.93 -38.4,85.33 -85.33,85.33h-597.34c-46.93,0 -85.33,-38.4 -85.33,-85.33v-256c0,-46.93 38.4,-85.33 85.33,-85.33h597.34c46.93,0 85.33,38.4 85.33,85.33zM810.67,384h-597.34v256h597.34z"/>
		</clipPath>
		<linearGradient x1="0" y1="1024" x2="1024" y2="0" id="color-VnvEW0UF" gradientUnits="userSpaceOnUse">
			<stop offset="0.2" stop-color="#000000"/>
			<stop offset="0.8" stop-color="#ffffff"/>
		</linearGradient>
		<radialGradient cx="0" cy="0" r="1448.15" id="color-WCjCwNe1" gradientUnits="userSpaceOnUse">
			<stop offset="0.07" stop-color="#ffffff"/>
			<stop offset="0.75" stop-color="#000000"/>
		</radialGradient>
		<filter id="filter-nLWwMIEU" color-interpolation-filters="sRGB">
			<feOffset/>
		</filter>
		<filter id="filter-WaL3nf5e" x="0%" y="0%" width="100%" height="100%" color-interpolation-filters="sRGB">
			<feColorMatrix values="1 0 0 0 0 0 1 0 0 0 0 0 1 0 0 0 0 0 0.05 0" in="SourceGraphic"/>
			<feOffset dy="20"/>
			<feGaussianBlur stdDeviation="11" result="blur0"/>
			<feColorMatrix values="1 0 0 0 0 0 1 0 0 0 0 0 1 0 0 0 0 0 0.07 0" in="SourceGraphic"/>
			<feOffset dy="30"/>
			<feGaussianBlur stdDeviation="20" result="blur1"/>
			<feMerge>
				<feMergeNode in="blur0"/>
				<feMergeNode in="blur1"/>
			</feMerge>
		</filter>
		<mask id="mask-3zuB0T3X">
			<rect fill="url(#color-VnvEW0UF)" x="128" y="298.67" width="768" height="426.66"/>
		</mask>
		<mask id="mask-sFi0Fy0f">
			<path d="M896,384v256c0,46.93 -38.4,85.33 -85.33,85.33h-597.34c-46.93,0 -85.33,-38.4 -85.33,-85.33v-256c0,-46.93 38.4,-85.33 85.33,-85.33h597.34c46.93,0 85.33,38.4 85.33,85.33zM810.67,384h-597.34v256h597.34z" fill="#ffffff"/>
		</mask>
		<mask id="mask-V62AQ6Xg">
			<path d="M896,384v256c0,46.93 -38.4,85.33 -85.33,85.33h-597.34c-46.93,0 -85.33,-38.4 -85.33,-85.33v-256c0,-46.93 38.4,-85.33 85.33,-85.33h597.34c46.93,0 85.33,38.4 85.33,85.33zM810.67,384h-597.34v256h597.34z" fill="url(#color-WCjCwNe1)"/>
		</mask>
	</defs>
	<g fill="none" fill-rule="nonzero" style="mix-blend-mode: normal">
		<g mask="url(#mask-sFi0Fy0f)">
			<g color="#ffc107" class="teamapps-color-2">
				<rect x="128" y="298.67" width="768" height="426.66" fill="currentColor"/>
			</g>
			<g color="#e65100" class="teamapps-color-3" mask="url(#mask-3zuB0T3X)">
				<rect x="128" y="298.67" width="768" height="426.66" fill="currentColor"/>
			</g>
		</g>
		<g filter="url(#filter-nLWwMIEU)" mask="url(#mask-V62AQ6Xg)">
			<g color="#fff59d" class="teamapps-color-1">
				<rect x="128" y="298.67" width="768" height="426.66" fill="currentColor"/>
			</g>
		</g>
		<g clip-path="url(#clip-SKLKU4nA)">
			<path d="M35,768.33v-612.66h954v612.66zM810.67,298.67h-597.34c-46.93,0 -85.33,38.4 -85.33,85.33v256c0,46.93 38.4,85.33 85.33,85.33h597.34c46.93,0 85.33,-38.4 85.33,-85.33v-256c0,-46.93 -38.4,-85.33 -85.33,-85.33zM810.67,640h-597.34v-256h597.34z" fill="#000000" filter="url(#filter-WaL3nf5e)"/>
		</g>
	</g>
</svg>