<svg version="1.1" xmlns="http://www.w3.org/2000/svg" xmlns:xlink="http://www.w3.org/1999/xlink" viewBox="0,0,1024,1024">
	<!-- Color names: teamapps-color-1, teamapps-color-2, teamapps-color-3 -->
	<desc>crop_square icon - Licensed under Apache License v2.0 (http://www.apache.org/licenses/LICENSE-2.0) - Created with Iconfu.com - Derivative work of Material icons (Copyright Google Inc.)</desc>
	<defs>
		<clipPath id="clip-zwVTBSth">
			<path d="M853.33,256v512c0,46.93 -38.4,85.33 -85.33,85.33h-512c-46.93,0 -85.33,-38.4 -85.33,-85.33v-512c0,-46.93 38.4,-85.33 85.33,-85.33h512c46.93,0 85.33,38.4 85.33,85.33zM768,256h-512v512h512z"/>
		</clipPath>
		<radialGradient cx="0" cy="0" r="1448.15" id="color-4Y1z8tZH" gradientUnits="userSpaceOnUse">
			<stop offset="0.07" stop-color="#ffffff"/>
			<stop offset="0.75" stop-color="#000000"/>
		</radialGradient>
		<linearGradient x1="0" y1="1024" x2="1024" y2="0" id="color-UHsQhvK7" gradientUnits="userSpaceOnUse">
			<stop offset="0.2" stop-color="#000000"/>
			<stop offset="0.8" stop-color="#ffffff"/>
		</linearGradient>
		<filter id="filter-bYMUHd6L" color-interpolation-filters="sRGB">
			<feOffset/>
		</filter>
		<filter id="filter-wzrnf7br" x="0%" y="0%" width="100%" height="100%" color-interpolation-filters="sRGB">
			<feColorMatrix values="1 0 0 0 0 0 1 0 0 0 0 0 1 0 0 0 0 0 0.05 0" in="SourceGraphic"/>
			<feOffset dy="20"/>
			<feGaussianBlur stdDeviation="11" result="blur0"/>
			<feColorMatrix values="1 0 0 0 0 0 1 0 0 0 0 0 1 0 0 0 0 0 0.07 0" in="SourceGraphic"/>
			<feOffset dy="30"/>
			<feGaussianBlur stdDeviation="20" result="blur1"/>
			<feMerge>
				<feMergeNode in="blur0"/>
				<feMergeNode in="blur1"/>
			</feMerge>
		</filter>
		<mask id="mask-Ijq9wTUZ">
			<path d="M853.33,256v512c0,46.93 -38.4,85.33 -85.33,85.33h-512c-46.93,0 -85.33,-38.4 -85.33,-85.33v-512c0,-46.93 38.4,-85.33 85.33,-85.33h512c46.93,0 85.33,38.4 85.33,85.33zM768,256h-512v512h512z" fill="url(#color-4Y1z8tZH)"/>
		</mask>
		<mask id="mask-JlzlNUkK">
			<rect fill="url(#color-UHsQhvK7)" x="170.67" y="170.67" width="682.66" height="682.66"/>
		</mask>
		<mask id="mask-vCdKI2Xl">
			<path d="M853.33,256v512c0,46.93 -38.4,85.33 -85.33,85.33h-512c-46.93,0 -85.33,-38.4 -85.33,-85.33v-512c0,-46.93 38.4,-85.33 85.33,-85.33h512c46.93,0 85.33,38.4 85.33,85.33zM768,256h-512v512h512z" fill="#ffffff"/>
		</mask>
	</defs>
	<g fill="none" fill-rule="nonzero" style="mix-blend-mode: normal">
		<g mask="url(#mask-vCdKI2Xl)">
			<g color="#ffc107" class="teamapps-color-2">
				<rect x="170.67" y="170.67" width="682.66" height="682.66" fill="currentColor"/>
			</g>
			<g color="#e65100" class="teamapps-color-3" mask="url(#mask-JlzlNUkK)">
				<rect x="170.67" y="170.67" width="682.66" height="682.66" fill="currentColor"/>
			</g>
		</g>
		<g filter="url(#filter-bYMUHd6L)" mask="url(#mask-Ijq9wTUZ)">
			<g color="#fff59d" class="teamapps-color-1">
				<rect x="170.67" y="170.67" width="682.66" height="682.66" fill="currentColor"/>
			</g>
		</g>
		<g clip-path="url(#clip-zwVTBSth)">
			<path d="M77.67,896.33v-868.66h868.66v868.66zM768,170.67h-512c-46.93,0 -85.33,38.4 -85.33,85.33v512c0,46.93 38.4,85.33 85.33,85.33h512c46.93,0 85.33,-38.4 85.33,-85.33v-512c0,-46.93 -38.4,-85.33 -85.33,-85.33zM768,768h-512v-512h512z" fill="#000000" filter="url(#filter-wzrnf7br)"/>
		</g>
	</g>
</svg>