<svg version="1.1" xmlns="http://www.w3.org/2000/svg" xmlns:xlink="http://www.w3.org/1999/xlink" viewBox="0,0,1024,1024">
	<!-- Color names: teamapps-color-1, teamapps-color-2, teamapps-color-3 -->
	<desc>dehaze icon - Licensed under Apache License v2.0 (http://www.apache.org/licenses/LICENSE-2.0) - Created with Iconfu.com - Derivative work of Material icons (Copyright Google Inc.)</desc>
	<defs>
		<clipPath id="clip-3he3PNdM">
			<path d="M938.67,661.33v85.34h-853.34v-85.34zM938.67,234.67v85.33h-853.34v-85.33zM938.67,448v85.33h-853.34v-85.33z"/>
		</clipPath>
		<linearGradient x1="0" y1="1024" x2="1024" y2="0" id="color-avtE2nxL" gradientUnits="userSpaceOnUse">
			<stop offset="0.2" stop-color="#000000"/>
			<stop offset="0.8" stop-color="#ffffff"/>
		</linearGradient>
		<radialGradient cx="0" cy="0" r="1448.15" id="color-P9hZrohf" gradientUnits="userSpaceOnUse">
			<stop offset="0.07" stop-color="#ffffff"/>
			<stop offset="0.75" stop-color="#000000"/>
		</radialGradient>
		<filter id="filter-4N5mmbra" color-interpolation-filters="sRGB">
			<feOffset/>
		</filter>
		<filter id="filter-Zl8hBOm4" x="0%" y="0%" width="100%" height="100%" color-interpolation-filters="sRGB">
			<feColorMatrix values="1 0 0 0 0 0 1 0 0 0 0 0 1 0 0 0 0 0 0.05 0" in="SourceGraphic"/>
			<feOffset dy="20"/>
			<feGaussianBlur stdDeviation="11" result="blur0"/>
			<feColorMatrix values="1 0 0 0 0 0 1 0 0 0 0 0 1 0 0 0 0 0 0.07 0" in="SourceGraphic"/>
			<feOffset dy="30"/>
			<feGaussianBlur stdDeviation="20" result="blur1"/>
			<feMerge>
				<feMergeNode in="blur0"/>
				<feMergeNode in="blur1"/>
			</feMerge>
		</filter>
		<mask id="mask-JYM188k1">
			<path d="M938.67,661.33v85.34h-853.34v-85.34zM938.67,234.67v85.33h-853.34v-85.33zM938.67,448v85.33h-853.34v-85.33z" fill="url(#color-P9hZrohf)"/>
		</mask>
		<mask id="mask-q8TYBld8">
			<rect fill="url(#color-avtE2nxL)" x="85.33" y="234.67" width="853.34" height="512"/>
		</mask>
		<mask id="mask-Qn1gC5yl">
			<path d="M938.67,661.33v85.34h-853.34v-85.34zM938.67,234.67v85.33h-853.34v-85.33zM938.67,448v85.33h-853.34v-85.33z" fill="#ffffff"/>
		</mask>
	</defs>
	<g fill="none" fill-rule="nonzero" style="mix-blend-mode: normal">
		<g mask="url(#mask-Qn1gC5yl)">
			<g color="#ffc107" class="teamapps-color-2">
				<rect x="85.33" y="234.67" width="853.34" height="512" fill="currentColor"/>
			</g>
			<g color="#e65100" class="teamapps-color-3" mask="url(#mask-q8TYBld8)">
				<rect x="85.33" y="234.67" width="853.34" height="512" fill="currentColor"/>
			</g>
		</g>
		<g filter="url(#filter-4N5mmbra)" mask="url(#mask-JYM188k1)">
			<g color="#fff59d" class="teamapps-color-1">
				<rect x="85.33" y="234.67" width="853.34" height="512" fill="currentColor"/>
			</g>
		</g>
		<g clip-path="url(#clip-3he3PNdM)">
			<path d="M-7.67,789.67v-698h1039.34v698zM85.33,661.33v85.34h853.34v-85.34zM85.33,234.67v85.33h853.34v-85.33zM85.33,448v85.33h853.34v-85.33z" fill="#000000" filter="url(#filter-Zl8hBOm4)"/>
		</g>
	</g>
</svg>