<svg version="1.1" xmlns="http://www.w3.org/2000/svg" xmlns:xlink="http://www.w3.org/1999/xlink" viewBox="0,0,1024,1024">
	<!-- Color names: teamapps-color-1, teamapps-color-2, teamapps-color-3 -->
	<desc>delete_sweep icon - Licensed under Apache License v2.0 (http://www.apache.org/licenses/LICENSE-2.0) - Created with Iconfu.com - Derivative work of Material icons (Copyright Google Inc.)</desc>
	<defs>
		<clipPath id="clip-VlTHbre3">
			<path d="M128,341.33h426.67v426.67c0,46.93 -38.41,85.33 -85.34,85.33h-256c-46.93,0 -85.33,-38.4 -85.33,-85.33zM597.33,298.67h-512v-85.34h128l42.67,-42.66h170.67l42.66,42.66h128zM640,341.33h298.67v85.34h-298.67zM640,512h256v85.33h-256zM640,682.67h170.67v85.33h-170.67z"/>
		</clipPath>
		<radialGradient cx="0" cy="0" r="1448.15" id="color-DCJvVfdQ" gradientUnits="userSpaceOnUse">
			<stop offset="0.07" stop-color="#ffffff"/>
			<stop offset="0.75" stop-color="#000000"/>
		</radialGradient>
		<linearGradient x1="0" y1="1024" x2="1024" y2="0" id="color-wtM8vzGS" gradientUnits="userSpaceOnUse">
			<stop offset="0.2" stop-color="#000000"/>
			<stop offset="0.8" stop-color="#ffffff"/>
		</linearGradient>
		<filter id="filter-LHGeCTS0" x="0%" y="0%" width="100%" height="100%" color-interpolation-filters="sRGB">
			<feColorMatrix values="1 0 0 0 0 0 1 0 0 0 0 0 1 0 0 0 0 0 0.05 0" in="SourceGraphic"/>
			<feOffset dy="20"/>
			<feGaussianBlur stdDeviation="11" result="blur0"/>
			<feColorMatrix values="1 0 0 0 0 0 1 0 0 0 0 0 1 0 0 0 0 0 0.07 0" in="SourceGraphic"/>
			<feOffset dy="30"/>
			<feGaussianBlur stdDeviation="20" result="blur1"/>
			<feMerge>
				<feMergeNode in="blur0"/>
				<feMergeNode in="blur1"/>
			</feMerge>
		</filter>
		<filter id="filter-QS6uj18j" color-interpolation-filters="sRGB">
			<feOffset/>
		</filter>
		<mask id="mask-gKAEJmlp">
			<path d="M128,341.33h426.67v426.67c0,46.93 -38.41,85.33 -85.34,85.33h-256c-46.93,0 -85.33,-38.4 -85.33,-85.33zM597.33,298.67h-512v-85.34h128l42.67,-42.66h170.67l42.66,42.66h128zM640,341.33h298.67v85.34h-298.67zM640,512h256v85.33h-256zM640,682.67h170.67v85.33h-170.67z" fill="#ffffff"/>
		</mask>
		<mask id="mask-kyc41zQH">
			<rect fill="url(#color-wtM8vzGS)" x="85.33" y="170.67" width="853.34" height="682.66"/>
		</mask>
		<mask id="mask-Vp5bwFpX">
			<path d="M128,341.33h426.67v426.67c0,46.93 -38.41,85.33 -85.34,85.33h-256c-46.93,0 -85.33,-38.4 -85.33,-85.33zM597.33,298.67h-512v-85.34h128l42.67,-42.66h170.67l42.66,42.66h128zM640,341.33h298.67v85.34h-298.67zM640,512h256v85.33h-256zM640,682.67h170.67v85.33h-170.67z" fill="url(#color-DCJvVfdQ)"/>
		</mask>
	</defs>
	<g fill="none" fill-rule="nonzero" style="mix-blend-mode: normal">
		<g mask="url(#mask-gKAEJmlp)">
			<g color="#ffc107" class="teamapps-color-2">
				<rect x="85.33" y="170.67" width="853.34" height="682.66" fill="currentColor"/>
			</g>
			<g color="#e65100" class="teamapps-color-3" mask="url(#mask-kyc41zQH)">
				<rect x="85.33" y="170.67" width="853.34" height="682.66" fill="currentColor"/>
			</g>
		</g>
		<g filter="url(#filter-QS6uj18j)" mask="url(#mask-Vp5bwFpX)">
			<g color="#fff59d" class="teamapps-color-1">
				<rect x="85.33" y="170.67" width="853.34" height="682.66" fill="currentColor"/>
			</g>
		</g>
		<g clip-path="url(#clip-VlTHbre3)">
			<path d="M-7.67,896.33v-868.66h1039.34v868.66zM128,768c0,46.93 38.4,85.33 85.33,85.33h256c46.93,0 85.34,-38.4 85.34,-85.33v-426.67h-426.67zM597.33,213.33h-128l-42.66,-42.66h-170.67l-42.67,42.66h-128v85.34h512zM640,426.67h298.67v-85.34h-298.67zM640,597.33h256v-85.33h-256zM640,768h170.67v-85.33h-170.67z" fill="#000000" filter="url(#filter-LHGeCTS0)"/>
		</g>
	</g>
</svg>