<svg version="1.1" xmlns="http://www.w3.org/2000/svg" xmlns:xlink="http://www.w3.org/1999/xlink" viewBox="0,0,1024,1024">
	<!-- Color names: teamapps-color-1, teamapps-color-2, teamapps-color-3 -->
	<desc>desktop_mac icon - Licensed under Apache License v2.0 (http://www.apache.org/licenses/LICENSE-2.0) - Created with Iconfu.com - Derivative work of Material icons (Copyright Google Inc.)</desc>
	<defs>
		<clipPath id="clip-vLEOMB85">
			<path d="M981.33,170.67v512c0,46.93 -38.4,85.33 -85.33,85.33h-298.67l85.34,128v42.67h-341.34v-42.67l85.34,-128h-298.67c-46.93,0 -85.33,-38.4 -85.33,-85.33v-512c0,-46.93 38.4,-85.34 85.33,-85.34h768c46.93,0 85.33,38.41 85.33,85.34zM896,170.67h-768v426.66h768z"/>
		</clipPath>
		<linearGradient x1="0" y1="1024" x2="1024" y2="0" id="color-22fB8oMa" gradientUnits="userSpaceOnUse">
			<stop offset="0.2" stop-color="#000000"/>
			<stop offset="0.8" stop-color="#ffffff"/>
		</linearGradient>
		<radialGradient cx="0" cy="0" r="1448.15" id="color-Q4jOLBOQ" gradientUnits="userSpaceOnUse">
			<stop offset="0.07" stop-color="#ffffff"/>
			<stop offset="0.75" stop-color="#000000"/>
		</radialGradient>
		<filter id="filter-wv8th8SF" color-interpolation-filters="sRGB">
			<feOffset/>
		</filter>
		<filter id="filter-zobhruds" x="0%" y="0%" width="100%" height="100%" color-interpolation-filters="sRGB">
			<feColorMatrix values="1 0 0 0 0 0 1 0 0 0 0 0 1 0 0 0 0 0 0.05 0" in="SourceGraphic"/>
			<feOffset dy="20"/>
			<feGaussianBlur stdDeviation="11" result="blur0"/>
			<feColorMatrix values="1 0 0 0 0 0 1 0 0 0 0 0 1 0 0 0 0 0 0.07 0" in="SourceGraphic"/>
			<feOffset dy="30"/>
			<feGaussianBlur stdDeviation="20" result="blur1"/>
			<feMerge>
				<feMergeNode in="blur0"/>
				<feMergeNode in="blur1"/>
			</feMerge>
		</filter>
		<mask id="mask-aCAf6BhQ">
			<path d="M981.33,170.67v512c0,46.93 -38.4,85.33 -85.33,85.33h-298.67l85.34,128v42.67h-341.34v-42.67l85.34,-128h-298.67c-46.93,0 -85.33,-38.4 -85.33,-85.33v-512c0,-46.93 38.4,-85.34 85.33,-85.34h768c46.93,0 85.33,38.41 85.33,85.34zM896,170.67h-768v426.66h768z" fill="#ffffff"/>
		</mask>
		<mask id="mask-e1F1XRn2">
			<path d="M981.33,170.67v512c0,46.93 -38.4,85.33 -85.33,85.33h-298.67l85.34,128v42.67h-341.34v-42.67l85.34,-128h-298.67c-46.93,0 -85.33,-38.4 -85.33,-85.33v-512c0,-46.93 38.4,-85.34 85.33,-85.34h768c46.93,0 85.33,38.41 85.33,85.34zM896,170.67h-768v426.66h768z" fill="url(#color-Q4jOLBOQ)"/>
		</mask>
		<mask id="mask-h6qHTsRn">
			<rect fill="url(#color-22fB8oMa)" x="42.67" y="85.33" width="938.66" height="853.34"/>
		</mask>
	</defs>
	<g fill="none" fill-rule="nonzero" style="mix-blend-mode: normal">
		<g mask="url(#mask-aCAf6BhQ)">
			<g color="#ffc107" class="teamapps-color-2">
				<rect x="42.67" y="85.33" width="938.66" height="853.34" fill="currentColor"/>
			</g>
			<g color="#e65100" class="teamapps-color-3" mask="url(#mask-h6qHTsRn)">
				<rect x="42.67" y="85.33" width="938.66" height="853.34" fill="currentColor"/>
			</g>
		</g>
		<g filter="url(#filter-wv8th8SF)" mask="url(#mask-e1F1XRn2)">
			<g color="#fff59d" class="teamapps-color-1">
				<rect x="42.67" y="85.33" width="938.66" height="853.34" fill="currentColor"/>
			</g>
		</g>
		<g clip-path="url(#clip-vLEOMB85)">
			<path d="M-50.33,981.67v-1039.34h1124.66v1039.34zM896,85.33h-768c-46.93,0 -85.33,38.41 -85.33,85.34v512c0,46.93 38.4,85.33 85.33,85.33h298.67l-85.34,128v42.67h341.34v-42.67l-85.34,-128h298.67c46.93,0 85.33,-38.4 85.33,-85.33v-512c0,-46.93 -38.4,-85.34 -85.33,-85.34zM896,597.33h-768v-426.66h768z" fill="#000000" filter="url(#filter-zobhruds)"/>
		</g>
	</g>
</svg>