<svg version="1.1" xmlns="http://www.w3.org/2000/svg" xmlns:xlink="http://www.w3.org/1999/xlink" viewBox="0,0,1024,1024">
	<!-- Color names: teamapps-color-1, teamapps-color-2, teamapps-color-3 -->
	<desc>dialpad icon - Licensed under Apache License v2.0 (http://www.apache.org/licenses/LICENSE-2.0) - Created with Iconfu.com - Derivative work of Material icons (Copyright Google Inc.)</desc>
	<defs>
		<clipPath id="clip-ps1rryMq">
			<path d="M341.33,384c0,46.93 -38.4,85.33 -85.33,85.33c-46.93,0 -85.33,-38.4 -85.33,-85.33c0,-46.93 38.4,-85.33 85.33,-85.33c46.93,0 85.33,38.4 85.33,85.33zM341.33,128c0,46.93 -38.4,85.33 -85.33,85.33c-46.93,0 -85.33,-38.4 -85.33,-85.33c0,-46.93 38.4,-85.33 85.33,-85.33c46.93,0 85.33,38.4 85.33,85.33zM853.33,384c0,46.93 -38.4,85.33 -85.33,85.33c-46.93,0 -85.33,-38.4 -85.33,-85.33c0,-46.93 38.4,-85.33 85.33,-85.33c46.93,0 85.33,38.4 85.33,85.33zM597.33,384c0,46.93 -38.4,85.33 -85.33,85.33c-46.93,0 -85.33,-38.4 -85.33,-85.33c0,-46.93 38.4,-85.33 85.33,-85.33c46.93,0 85.33,38.4 85.33,85.33zM341.33,640c0,46.93 -38.4,85.33 -85.33,85.33c-46.93,0 -85.33,-38.4 -85.33,-85.33c0,-46.93 38.4,-85.33 85.33,-85.33c46.93,0 85.33,38.4 85.33,85.33zM682.67,128c0,-46.93 38.4,-85.33 85.33,-85.33c46.93,0 85.33,38.4 85.33,85.33c0,46.93 -38.4,85.33 -85.33,85.33c-46.93,0 -85.33,-38.4 -85.33,-85.33zM597.33,128c0,46.93 -38.4,85.33 -85.33,85.33c-46.93,0 -85.33,-38.4 -85.33,-85.33c0,-46.93 38.4,-85.33 85.33,-85.33c46.93,0 85.33,38.4 85.33,85.33zM597.33,896c0,46.93 -38.4,85.33 -85.33,85.33c-46.93,0 -85.33,-38.4 -85.33,-85.33c0,-46.93 38.4,-85.33 85.33,-85.33c46.93,0 85.33,38.4 85.33,85.33zM597.33,640c0,46.93 -38.4,85.33 -85.33,85.33c-46.93,0 -85.33,-38.4 -85.33,-85.33c0,-46.93 38.4,-85.33 85.33,-85.33c46.93,0 85.33,38.4 85.33,85.33zM853.33,640c0,46.93 -38.4,85.33 -85.33,85.33c-46.93,0 -85.33,-38.4 -85.33,-85.33c0,-46.93 38.4,-85.33 85.33,-85.33c46.93,0 85.33,38.4 85.33,85.33z"/>
		</clipPath>
		<radialGradient cx="0" cy="0" r="1448.15" id="color-bbl53VHk" gradientUnits="userSpaceOnUse">
			<stop offset="0.07" stop-color="#ffffff"/>
			<stop offset="0.75" stop-color="#000000"/>
		</radialGradient>
		<linearGradient x1="0" y1="1024" x2="1024" y2="0" id="color-qY1t3jlT" gradientUnits="userSpaceOnUse">
			<stop offset="0.2" stop-color="#000000"/>
			<stop offset="0.8" stop-color="#ffffff"/>
		</linearGradient>
		<filter id="filter-5uwoeJEH" color-interpolation-filters="sRGB">
			<feOffset/>
		</filter>
		<filter id="filter-PubUPvNB" x="0%" y="0%" width="100%" height="100%" color-interpolation-filters="sRGB">
			<feColorMatrix values="1 0 0 0 0 0 1 0 0 0 0 0 1 0 0 0 0 0 0.05 0" in="SourceGraphic"/>
			<feOffset dy="20"/>
			<feGaussianBlur stdDeviation="11" result="blur0"/>
			<feColorMatrix values="1 0 0 0 0 0 1 0 0 0 0 0 1 0 0 0 0 0 0.07 0" in="SourceGraphic"/>
			<feOffset dy="30"/>
			<feGaussianBlur stdDeviation="20" result="blur1"/>
			<feMerge>
				<feMergeNode in="blur0"/>
				<feMergeNode in="blur1"/>
			</feMerge>
		</filter>
		<mask id="mask-65Qb8SGq">
			<path d="M341.33,384c0,46.93 -38.4,85.33 -85.33,85.33c-46.93,0 -85.33,-38.4 -85.33,-85.33c0,-46.93 38.4,-85.33 85.33,-85.33c46.93,0 85.33,38.4 85.33,85.33zM341.33,128c0,46.93 -38.4,85.33 -85.33,85.33c-46.93,0 -85.33,-38.4 -85.33,-85.33c0,-46.93 38.4,-85.33 85.33,-85.33c46.93,0 85.33,38.4 85.33,85.33zM853.33,384c0,46.93 -38.4,85.33 -85.33,85.33c-46.93,0 -85.33,-38.4 -85.33,-85.33c0,-46.93 38.4,-85.33 85.33,-85.33c46.93,0 85.33,38.4 85.33,85.33zM597.33,384c0,46.93 -38.4,85.33 -85.33,85.33c-46.93,0 -85.33,-38.4 -85.33,-85.33c0,-46.93 38.4,-85.33 85.33,-85.33c46.93,0 85.33,38.4 85.33,85.33zM341.33,640c0,46.93 -38.4,85.33 -85.33,85.33c-46.93,0 -85.33,-38.4 -85.33,-85.33c0,-46.93 38.4,-85.33 85.33,-85.33c46.93,0 85.33,38.4 85.33,85.33zM682.67,128c0,-46.93 38.4,-85.33 85.33,-85.33c46.93,0 85.33,38.4 85.33,85.33c0,46.93 -38.4,85.33 -85.33,85.33c-46.93,0 -85.33,-38.4 -85.33,-85.33zM597.33,128c0,46.93 -38.4,85.33 -85.33,85.33c-46.93,0 -85.33,-38.4 -85.33,-85.33c0,-46.93 38.4,-85.33 85.33,-85.33c46.93,0 85.33,38.4 85.33,85.33zM597.33,896c0,46.93 -38.4,85.33 -85.33,85.33c-46.93,0 -85.33,-38.4 -85.33,-85.33c0,-46.93 38.4,-85.33 85.33,-85.33c46.93,0 85.33,38.4 85.33,85.33zM597.33,640c0,46.93 -38.4,85.33 -85.33,85.33c-46.93,0 -85.33,-38.4 -85.33,-85.33c0,-46.93 38.4,-85.33 85.33,-85.33c46.93,0 85.33,38.4 85.33,85.33zM853.33,640c0,46.93 -38.4,85.33 -85.33,85.33c-46.93,0 -85.33,-38.4 -85.33,-85.33c0,-46.93 38.4,-85.33 85.33,-85.33c46.93,0 85.33,38.4 85.33,85.33z" fill="#ffffff"/>
		</mask>
		<mask id="mask-6dGwLQCh">
			<rect fill="url(#color-qY1t3jlT)" x="170.67" y="42.67" width="682.66" height="938.66"/>
		</mask>
		<mask id="mask-dwwR1IqF">
			<path d="M341.33,384c0,46.93 -38.4,85.33 -85.33,85.33c-46.93,0 -85.33,-38.4 -85.33,-85.33c0,-46.93 38.4,-85.33 85.33,-85.33c46.93,0 85.33,38.4 85.33,85.33zM341.33,128c0,46.93 -38.4,85.33 -85.33,85.33c-46.93,0 -85.33,-38.4 -85.33,-85.33c0,-46.93 38.4,-85.33 85.33,-85.33c46.93,0 85.33,38.4 85.33,85.33zM853.33,384c0,46.93 -38.4,85.33 -85.33,85.33c-46.93,0 -85.33,-38.4 -85.33,-85.33c0,-46.93 38.4,-85.33 85.33,-85.33c46.93,0 85.33,38.4 85.33,85.33zM597.33,384c0,46.93 -38.4,85.33 -85.33,85.33c-46.93,0 -85.33,-38.4 -85.33,-85.33c0,-46.93 38.4,-85.33 85.33,-85.33c46.93,0 85.33,38.4 85.33,85.33zM341.33,640c0,46.93 -38.4,85.33 -85.33,85.33c-46.93,0 -85.33,-38.4 -85.33,-85.33c0,-46.93 38.4,-85.33 85.33,-85.33c46.93,0 85.33,38.4 85.33,85.33zM682.67,128c0,-46.93 38.4,-85.33 85.33,-85.33c46.93,0 85.33,38.4 85.33,85.33c0,46.93 -38.4,85.33 -85.33,85.33c-46.93,0 -85.33,-38.4 -85.33,-85.33zM597.33,128c0,46.93 -38.4,85.33 -85.33,85.33c-46.93,0 -85.33,-38.4 -85.33,-85.33c0,-46.93 38.4,-85.33 85.33,-85.33c46.93,0 85.33,38.4 85.33,85.33zM597.33,896c0,46.93 -38.4,85.33 -85.33,85.33c-46.93,0 -85.33,-38.4 -85.33,-85.33c0,-46.93 38.4,-85.33 85.33,-85.33c46.93,0 85.33,38.4 85.33,85.33zM597.33,640c0,46.93 -38.4,85.33 -85.33,85.33c-46.93,0 -85.33,-38.4 -85.33,-85.33c0,-46.93 38.4,-85.33 85.33,-85.33c46.93,0 85.33,38.4 85.33,85.33zM853.33,640c0,46.93 -38.4,85.33 -85.33,85.33c-46.93,0 -85.33,-38.4 -85.33,-85.33c0,-46.93 38.4,-85.33 85.33,-85.33c46.93,0 85.33,38.4 85.33,85.33z" fill="url(#color-bbl53VHk)"/>
		</mask>
	</defs>
	<g fill="none" fill-rule="nonzero" style="mix-blend-mode: normal">
		<g mask="url(#mask-65Qb8SGq)">
			<g color="#ffc107" class="teamapps-color-2">
				<rect x="170.67" y="42.67" width="682.66" height="938.66" fill="currentColor"/>
			</g>
			<g color="#e65100" class="teamapps-color-3" mask="url(#mask-6dGwLQCh)">
				<rect x="170.67" y="42.67" width="682.66" height="938.66" fill="currentColor"/>
			</g>
		</g>
		<g filter="url(#filter-5uwoeJEH)" mask="url(#mask-dwwR1IqF)">
			<g color="#fff59d" class="teamapps-color-1">
				<rect x="170.67" y="42.67" width="682.66" height="938.66" fill="currentColor"/>
			</g>
		</g>
		<g clip-path="url(#clip-ps1rryMq)">
			<path d="M77.67,1024.33v-1124.66h868.66v1124.66zM256,298.67c-46.93,0 -85.33,38.4 -85.33,85.33c0,46.93 38.4,85.33 85.33,85.33c46.93,0 85.33,-38.4 85.33,-85.33c0,-46.93 -38.4,-85.33 -85.33,-85.33zM256,42.67c-46.93,0 -85.33,38.4 -85.33,85.33c0,46.93 38.4,85.33 85.33,85.33c46.93,0 85.33,-38.4 85.33,-85.33c0,-46.93 -38.4,-85.33 -85.33,-85.33zM768,298.67c-46.93,0 -85.33,38.4 -85.33,85.33c0,46.93 38.4,85.33 85.33,85.33c46.93,0 85.33,-38.4 85.33,-85.33c0,-46.93 -38.4,-85.33 -85.33,-85.33zM512,298.67c-46.93,0 -85.33,38.4 -85.33,85.33c0,46.93 38.4,85.33 85.33,85.33c46.93,0 85.33,-38.4 85.33,-85.33c0,-46.93 -38.4,-85.33 -85.33,-85.33zM256,554.67c-46.93,0 -85.33,38.4 -85.33,85.33c0,46.93 38.4,85.33 85.33,85.33c46.93,0 85.33,-38.4 85.33,-85.33c0,-46.93 -38.4,-85.33 -85.33,-85.33zM768,213.33c46.93,0 85.33,-38.4 85.33,-85.33c0,-46.93 -38.4,-85.33 -85.33,-85.33c-46.93,0 -85.33,38.4 -85.33,85.33c0,46.93 38.4,85.33 85.33,85.33zM512,42.67c-46.93,0 -85.33,38.4 -85.33,85.33c0,46.93 38.4,85.33 85.33,85.33c46.93,0 85.33,-38.4 85.33,-85.33c0,-46.93 -38.4,-85.33 -85.33,-85.33zM512,810.67c-46.93,0 -85.33,38.4 -85.33,85.33c0,46.93 38.4,85.33 85.33,85.33c46.93,0 85.33,-38.4 85.33,-85.33c0,-46.93 -38.4,-85.33 -85.33,-85.33zM512,554.67c-46.93,0 -85.33,38.4 -85.33,85.33c0,46.93 38.4,85.33 85.33,85.33c46.93,0 85.33,-38.4 85.33,-85.33c0,-46.93 -38.4,-85.33 -85.33,-85.33zM768,554.67c-46.93,0 -85.33,38.4 -85.33,85.33c0,46.93 38.4,85.33 85.33,85.33c46.93,0 85.33,-38.4 85.33,-85.33c0,-46.93 -38.4,-85.33 -85.33,-85.33z" fill="#000000" filter="url(#filter-PubUPvNB)"/>
		</g>
	</g>
</svg>