<svg version="1.1" xmlns="http://www.w3.org/2000/svg" xmlns:xlink="http://www.w3.org/1999/xlink" viewBox="0,0,1024,1024">
	<!-- Color names: teamapps-color-1, teamapps-color-2, teamapps-color-3 -->
	<desc>directions_bike icon - Licensed under Apache License v2.0 (http://www.apache.org/licenses/LICENSE-2.0) - Created with Iconfu.com - Derivative work of Material icons (Copyright Google Inc.)</desc>
	<defs>
		<clipPath id="clip-5gc99y1N">
			<path d="M554.67,546.13v264.54h-85.34v-213.34l-136.53,-119.46c-17.07,-12.8 -25.6,-34.14 -25.6,-59.74c0,-21.33 8.53,-42.66 25.6,-59.73l119.47,-119.47c12.8,-17.07 34.13,-25.6 59.73,-25.6c25.6,0 46.94,8.53 68.27,25.6l81.06,81.07c38.4,38.4 89.6,64 153.6,64v85.33c-89.6,0 -162.13,-34.13 -217.6,-89.6l-34.13,-34.13l-102.4,102.4zM1024,725.33c0,119.47 -93.86,213.34 -213.33,213.34c-119.47,0 -213.34,-93.87 -213.34,-213.34c0,-119.47 93.87,-213.33 213.34,-213.33c119.47,0 213.33,93.86 213.33,213.33zM426.67,725.33c0,119.47 -93.87,213.34 -213.34,213.34c-119.47,0 -213.33,-93.87 -213.33,-213.34c0,-119.47 93.86,-213.33 213.33,-213.33c119.47,0 213.34,93.86 213.34,213.33zM960,725.33c0,-81.07 -68.26,-149.33 -149.33,-149.33c-81.07,0 -149.34,68.26 -149.34,149.33c0,81.07 68.27,149.34 149.34,149.34c81.07,0 149.33,-68.27 149.33,-149.34zM362.67,725.33c0,-81.07 -68.27,-149.33 -149.34,-149.33c-81.07,0 -149.33,68.26 -149.33,149.33c0,81.07 68.26,149.34 149.33,149.34c81.07,0 149.34,-68.27 149.34,-149.34zM576,149.33c0,-46.93 38.4,-85.33 85.33,-85.33c46.93,0 85.34,38.4 85.34,85.33c0,46.93 -38.41,85.34 -85.34,85.34c-46.93,0 -85.33,-38.41 -85.33,-85.34z"/>
		</clipPath>
		<linearGradient x1="0" y1="1024" x2="1024" y2="0" id="color-p8u73VgB" gradientUnits="userSpaceOnUse">
			<stop offset="0.2" stop-color="#000000"/>
			<stop offset="0.8" stop-color="#ffffff"/>
		</linearGradient>
		<radialGradient cx="0" cy="0" r="1448.15" id="color-x2GNjAgd" gradientUnits="userSpaceOnUse">
			<stop offset="0.07" stop-color="#ffffff"/>
			<stop offset="0.75" stop-color="#000000"/>
		</radialGradient>
		<filter id="filter-oomK0wYY" x="0%" y="0%" width="100%" height="100%" color-interpolation-filters="sRGB">
			<feColorMatrix values="1 0 0 0 0 0 1 0 0 0 0 0 1 0 0 0 0 0 0.05 0" in="SourceGraphic"/>
			<feOffset dy="20"/>
			<feGaussianBlur stdDeviation="11" result="blur0"/>
			<feColorMatrix values="1 0 0 0 0 0 1 0 0 0 0 0 1 0 0 0 0 0 0.07 0" in="SourceGraphic"/>
			<feOffset dy="30"/>
			<feGaussianBlur stdDeviation="20" result="blur1"/>
			<feMerge>
				<feMergeNode in="blur0"/>
				<feMergeNode in="blur1"/>
			</feMerge>
		</filter>
		<filter id="filter-WPYL0gvg" color-interpolation-filters="sRGB">
			<feOffset/>
		</filter>
		<mask id="mask-DVZEkxbd">
			<path d="M554.67,546.13v264.54h-85.34v-213.34l-136.53,-119.46c-17.07,-12.8 -25.6,-34.14 -25.6,-59.74c0,-21.33 8.53,-42.66 25.6,-59.73l119.47,-119.47c12.8,-17.07 34.13,-25.6 59.73,-25.6c25.6,0 46.94,8.53 68.27,25.6l81.06,81.07c38.4,38.4 89.6,64 153.6,64v85.33c-89.6,0 -162.13,-34.13 -217.6,-89.6l-34.13,-34.13l-102.4,102.4zM1024,725.33c0,119.47 -93.86,213.34 -213.33,213.34c-119.47,0 -213.34,-93.87 -213.34,-213.34c0,-119.47 93.87,-213.33 213.34,-213.33c119.47,0 213.33,93.86 213.33,213.33zM426.67,725.33c0,119.47 -93.87,213.34 -213.34,213.34c-119.47,0 -213.33,-93.87 -213.33,-213.34c0,-119.47 93.86,-213.33 213.33,-213.33c119.47,0 213.34,93.86 213.34,213.33zM960,725.33c0,-81.07 -68.26,-149.33 -149.33,-149.33c-81.07,0 -149.34,68.26 -149.34,149.33c0,81.07 68.27,149.34 149.34,149.34c81.07,0 149.33,-68.27 149.33,-149.34zM362.67,725.33c0,-81.07 -68.27,-149.33 -149.34,-149.33c-81.07,0 -149.33,68.26 -149.33,149.33c0,81.07 68.26,149.34 149.33,149.34c81.07,0 149.34,-68.27 149.34,-149.34zM576,149.33c0,-46.93 38.4,-85.33 85.33,-85.33c46.93,0 85.34,38.4 85.34,85.33c0,46.93 -38.41,85.34 -85.34,85.34c-46.93,0 -85.33,-38.41 -85.33,-85.34z" fill="url(#color-x2GNjAgd)"/>
		</mask>
		<mask id="mask-PGyMh9S8">
			<rect fill="url(#color-p8u73VgB)" x="0" y="64" width="1024" height="874.67"/>
		</mask>
		<mask id="mask-tNWmwdQ0">
			<path d="M554.67,546.13v264.54h-85.34v-213.34l-136.53,-119.46c-17.07,-12.8 -25.6,-34.14 -25.6,-59.74c0,-21.33 8.53,-42.66 25.6,-59.73l119.47,-119.47c12.8,-17.07 34.13,-25.6 59.73,-25.6c25.6,0 46.94,8.53 68.27,25.6l81.06,81.07c38.4,38.4 89.6,64 153.6,64v85.33c-89.6,0 -162.13,-34.13 -217.6,-89.6l-34.13,-34.13l-102.4,102.4zM1024,725.33c0,119.47 -93.86,213.34 -213.33,213.34c-119.47,0 -213.34,-93.87 -213.34,-213.34c0,-119.47 93.87,-213.33 213.34,-213.33c119.47,0 213.33,93.86 213.33,213.33zM426.67,725.33c0,119.47 -93.87,213.34 -213.34,213.34c-119.47,0 -213.33,-93.87 -213.33,-213.34c0,-119.47 93.86,-213.33 213.33,-213.33c119.47,0 213.34,93.86 213.34,213.33zM960,725.33c0,-81.07 -68.26,-149.33 -149.33,-149.33c-81.07,0 -149.34,68.26 -149.34,149.33c0,81.07 68.27,149.34 149.34,149.34c81.07,0 149.33,-68.27 149.33,-149.34zM362.67,725.33c0,-81.07 -68.27,-149.33 -149.34,-149.33c-81.07,0 -149.33,68.26 -149.33,149.33c0,81.07 68.26,149.34 149.33,149.34c81.07,0 149.34,-68.27 149.34,-149.34zM576,149.33c0,-46.93 38.4,-85.33 85.33,-85.33c46.93,0 85.34,38.4 85.34,85.33c0,46.93 -38.41,85.34 -85.34,85.34c-46.93,0 -85.33,-38.41 -85.33,-85.34z" fill="#ffffff"/>
		</mask>
	</defs>
	<g fill="none" fill-rule="nonzero" style="mix-blend-mode: normal">
		<g mask="url(#mask-tNWmwdQ0)">
			<g color="#ffc107" class="teamapps-color-2">
				<rect x="0" y="64" width="1024" height="874.67" fill="currentColor"/>
			</g>
			<g color="#e65100" class="teamapps-color-3" mask="url(#mask-PGyMh9S8)">
				<rect x="0" y="64" width="1024" height="874.67" fill="currentColor"/>
			</g>
		</g>
		<g filter="url(#filter-WPYL0gvg)" mask="url(#mask-DVZEkxbd)">
			<g color="#fff59d" class="teamapps-color-1">
				<rect x="0" y="64" width="1024" height="874.67" fill="currentColor"/>
			</g>
		</g>
		<g clip-path="url(#clip-5gc99y1N)">
			<path d="M-93,981.67v-1060.67h1210v1060.67zM460.8,448l102.4,-102.4l34.13,34.13c55.47,55.47 128,89.6 217.6,89.6v-85.33c-64,0 -115.2,-25.6 -153.6,-64l-81.06,-81.07c-21.33,-17.07 -42.67,-25.6 -68.27,-25.6c-25.6,0 -46.93,8.53 -59.73,25.6l-119.47,119.47c-17.07,17.07 -25.6,38.4 -25.6,59.73c0,25.6 8.53,46.94 25.6,59.74l136.53,119.46v213.34h85.34v-264.54zM810.67,512c-119.47,0 -213.34,93.86 -213.34,213.33c0,119.47 93.87,213.34 213.34,213.34c119.47,0 213.33,-93.87 213.33,-213.34c0,-119.47 -93.86,-213.33 -213.33,-213.33zM213.33,512c-119.47,0 -213.33,93.86 -213.33,213.33c0,119.47 93.86,213.34 213.33,213.34c119.47,0 213.34,-93.87 213.34,-213.34c0,-119.47 -93.87,-213.33 -213.34,-213.33zM810.67,874.67c-81.07,0 -149.34,-68.27 -149.34,-149.34c0,-81.07 68.27,-149.33 149.34,-149.33c81.07,0 149.33,68.26 149.33,149.33c0,81.07 -68.26,149.34 -149.33,149.34zM213.33,874.67c-81.07,0 -149.33,-68.27 -149.33,-149.34c0,-81.07 68.26,-149.33 149.33,-149.33c81.07,0 149.34,68.26 149.34,149.33c0,81.07 -68.27,149.34 -149.34,149.34zM661.33,234.67c46.93,0 85.34,-38.41 85.34,-85.34c0,-46.93 -38.41,-85.33 -85.34,-85.33c-46.93,0 -85.33,38.4 -85.33,85.33c0,46.93 38.4,85.34 85.33,85.34z" fill="#000000" filter="url(#filter-oomK0wYY)"/>
		</g>
	</g>
</svg>