<svg version="1.1" xmlns="http://www.w3.org/2000/svg" xmlns:xlink="http://www.w3.org/1999/xlink" viewBox="0,0,1024,1024">
	<!-- Color names: teamapps-color-1, teamapps-color-2, teamapps-color-3 -->
	<desc>done icon - Licensed under Apache License v2.0 (http://www.apache.org/licenses/LICENSE-2.0) - Created with Iconfu.com - Derivative work of Material icons (Copyright Google Inc.)</desc>
	<defs>
		<clipPath id="clip-k8DgkxjU">
			<path d="M836.27,238.93l59.73,59.74l-512,512l-238.93,-238.94l59.73,-59.73l179.2,179.2z"/>
		</clipPath>
		<linearGradient x1="0" y1="1024" x2="1024" y2="0" id="color-KNynhRkx" gradientUnits="userSpaceOnUse">
			<stop offset="0.2" stop-color="#000000"/>
			<stop offset="0.8" stop-color="#ffffff"/>
		</linearGradient>
		<radialGradient cx="0" cy="0" r="1448.15" id="color-VClZAdYG" gradientUnits="userSpaceOnUse">
			<stop offset="0.07" stop-color="#ffffff"/>
			<stop offset="0.75" stop-color="#000000"/>
		</radialGradient>
		<filter id="filter-1E1wngZR" x="0%" y="0%" width="100%" height="100%" color-interpolation-filters="sRGB">
			<feColorMatrix values="1 0 0 0 0 0 1 0 0 0 0 0 1 0 0 0 0 0 0.05 0" in="SourceGraphic"/>
			<feOffset dy="20"/>
			<feGaussianBlur stdDeviation="11" result="blur0"/>
			<feColorMatrix values="1 0 0 0 0 0 1 0 0 0 0 0 1 0 0 0 0 0 0.07 0" in="SourceGraphic"/>
			<feOffset dy="30"/>
			<feGaussianBlur stdDeviation="20" result="blur1"/>
			<feMerge>
				<feMergeNode in="blur0"/>
				<feMergeNode in="blur1"/>
			</feMerge>
		</filter>
		<filter id="filter-7DduEGM4" color-interpolation-filters="sRGB">
			<feOffset/>
		</filter>
		<mask id="mask-8AejcJm2">
			<path d="M836.27,238.93l59.73,59.74l-512,512l-238.93,-238.94l59.73,-59.73l179.2,179.2z" fill="#ffffff"/>
		</mask>
		<mask id="mask-SyU7bAmn">
			<path d="M836.27,238.93l59.73,59.74l-512,512l-238.93,-238.94l59.73,-59.73l179.2,179.2z" fill="url(#color-VClZAdYG)"/>
		</mask>
		<mask id="mask-Zgt7uvB7">
			<rect fill="url(#color-KNynhRkx)" x="145.07" y="238.93" width="750.93" height="571.74"/>
		</mask>
	</defs>
	<g fill="none" fill-rule="nonzero" style="mix-blend-mode: normal">
		<g mask="url(#mask-8AejcJm2)">
			<g color="#ffc107" class="teamapps-color-2">
				<rect x="145.07" y="238.93" width="750.93" height="571.74" fill="currentColor"/>
			</g>
			<g color="#e65100" class="teamapps-color-3" mask="url(#mask-Zgt7uvB7)">
				<rect x="145.07" y="238.93" width="750.93" height="571.74" fill="currentColor"/>
			</g>
		</g>
		<g filter="url(#filter-7DduEGM4)" mask="url(#mask-SyU7bAmn)">
			<g color="#fff59d" class="teamapps-color-1">
				<rect x="145.07" y="238.93" width="750.93" height="571.74" fill="currentColor"/>
			</g>
		</g>
		<g clip-path="url(#clip-k8DgkxjU)">
			<path d="M52.07,853.67v-757.74h936.93v757.74zM384,691.2l-179.2,-179.2l-59.73,59.73l238.93,238.94l512,-512l-59.73,-59.74z" fill="#000000" filter="url(#filter-1E1wngZR)"/>
		</g>
	</g>
</svg>