<svg version="1.1" xmlns="http://www.w3.org/2000/svg" xmlns:xlink="http://www.w3.org/1999/xlink" viewBox="0,0,1024,1024">
	<!-- Color names: teamapps-color-1, teamapps-color-2, teamapps-color-3 -->
	<desc>eject icon - Licensed under Apache License v2.0 (http://www.apache.org/licenses/LICENSE-2.0) - Created with Iconfu.com - Derivative work of Material icons (Copyright Google Inc.)</desc>
	<defs>
		<clipPath id="clip-qv8fV1Pl">
			<path d="M796.59,640h-569.18l284.59,-426.67zM213.33,725.33h597.34v85.34h-597.34z"/>
		</clipPath>
		<linearGradient x1="0" y1="1024" x2="1024" y2="0" id="color-M44pz3pO" gradientUnits="userSpaceOnUse">
			<stop offset="0.2" stop-color="#000000"/>
			<stop offset="0.8" stop-color="#ffffff"/>
		</linearGradient>
		<radialGradient cx="0" cy="0" r="1448.15" id="color-qrMdHRdU" gradientUnits="userSpaceOnUse">
			<stop offset="0.07" stop-color="#ffffff"/>
			<stop offset="0.75" stop-color="#000000"/>
		</radialGradient>
		<filter id="filter-Jd8BgfUM" color-interpolation-filters="sRGB">
			<feOffset/>
		</filter>
		<filter id="filter-kUlOsNyW" x="0%" y="0%" width="100%" height="100%" color-interpolation-filters="sRGB">
			<feColorMatrix values="1 0 0 0 0 0 1 0 0 0 0 0 1 0 0 0 0 0 0.05 0" in="SourceGraphic"/>
			<feOffset dy="20"/>
			<feGaussianBlur stdDeviation="11" result="blur0"/>
			<feColorMatrix values="1 0 0 0 0 0 1 0 0 0 0 0 1 0 0 0 0 0 0.07 0" in="SourceGraphic"/>
			<feOffset dy="30"/>
			<feGaussianBlur stdDeviation="20" result="blur1"/>
			<feMerge>
				<feMergeNode in="blur0"/>
				<feMergeNode in="blur1"/>
			</feMerge>
		</filter>
		<mask id="mask-crlSbpBR">
			<rect fill="url(#color-M44pz3pO)" x="213.33" y="213.33" width="597.34" height="597.34"/>
		</mask>
		<mask id="mask-HCXgNOYf">
			<path d="M796.59,640h-569.18l284.59,-426.67zM213.33,725.33h597.34v85.34h-597.34z" fill="url(#color-qrMdHRdU)"/>
		</mask>
		<mask id="mask-V5zFYIHH">
			<path d="M796.59,640h-569.18l284.59,-426.67zM213.33,725.33h597.34v85.34h-597.34z" fill="#ffffff"/>
		</mask>
	</defs>
	<g fill="none" fill-rule="nonzero" style="mix-blend-mode: normal">
		<g mask="url(#mask-V5zFYIHH)">
			<g color="#ffc107" class="teamapps-color-2">
				<rect x="213.33" y="213.33" width="597.34" height="597.34" fill="currentColor"/>
			</g>
			<g color="#e65100" class="teamapps-color-3" mask="url(#mask-crlSbpBR)">
				<rect x="213.33" y="213.33" width="597.34" height="597.34" fill="currentColor"/>
			</g>
		</g>
		<g filter="url(#filter-Jd8BgfUM)" mask="url(#mask-HCXgNOYf)">
			<g color="#fff59d" class="teamapps-color-1">
				<rect x="213.33" y="213.33" width="597.34" height="597.34" fill="currentColor"/>
			</g>
		</g>
		<g clip-path="url(#clip-qv8fV1Pl)">
			<path d="M120.33,853.67v-783.34h783.34v783.34zM512,213.33l-284.59,426.67h569.18zM213.33,810.67h597.34v-85.34h-597.34z" fill="#000000" filter="url(#filter-kUlOsNyW)"/>
		</g>
	</g>
</svg>