<svg version="1.1" xmlns="http://www.w3.org/2000/svg" xmlns:xlink="http://www.w3.org/1999/xlink" viewBox="0,0,1024,1024">
	<!-- Color names: teamapps-color-1, teamapps-color-2, teamapps-color-3 -->
	<desc>error icon - Licensed under Apache License v2.0 (http://www.apache.org/licenses/LICENSE-2.0) - Created with Iconfu.com - Derivative work of Material icons (Copyright Google Inc.)</desc>
	<defs>
		<clipPath id="clip-uPTzKu8H">
			<path d="M938.67,512c0,235.52 -191.15,426.67 -426.67,426.67c-235.52,0 -426.67,-191.15 -426.67,-426.67c0,-235.52 191.15,-426.67 426.67,-426.67c235.52,0 426.67,191.15 426.67,426.67zM554.67,298.67h-85.34v256h85.34zM554.67,640h-85.34v85.33h85.34z"/>
		</clipPath>
		<linearGradient x1="0" y1="1024" x2="1024" y2="0" id="color-6UvghIIa" gradientUnits="userSpaceOnUse">
			<stop offset="0.2" stop-color="#000000"/>
			<stop offset="0.8" stop-color="#ffffff"/>
		</linearGradient>
		<radialGradient cx="0" cy="0" r="1448.15" id="color-Ra5nYuVS" gradientUnits="userSpaceOnUse">
			<stop offset="0.07" stop-color="#ffffff"/>
			<stop offset="0.75" stop-color="#000000"/>
		</radialGradient>
		<filter id="filter-dAmH6iYD" x="0%" y="0%" width="100%" height="100%" color-interpolation-filters="sRGB">
			<feColorMatrix values="1 0 0 0 0 0 1 0 0 0 0 0 1 0 0 0 0 0 0.05 0" in="SourceGraphic"/>
			<feOffset dy="20"/>
			<feGaussianBlur stdDeviation="11" result="blur0"/>
			<feColorMatrix values="1 0 0 0 0 0 1 0 0 0 0 0 1 0 0 0 0 0 0.07 0" in="SourceGraphic"/>
			<feOffset dy="30"/>
			<feGaussianBlur stdDeviation="20" result="blur1"/>
			<feMerge>
				<feMergeNode in="blur0"/>
				<feMergeNode in="blur1"/>
			</feMerge>
		</filter>
		<filter id="filter-X65ylPfI" color-interpolation-filters="sRGB">
			<feOffset/>
		</filter>
		<mask id="mask-5EbJ6Eia">
			<rect fill="url(#color-6UvghIIa)" x="85.33" y="85.33" width="853.34" height="853.34"/>
		</mask>
		<mask id="mask-JGXoT8z0">
			<path d="M938.67,512c0,235.52 -191.15,426.67 -426.67,426.67c-235.52,0 -426.67,-191.15 -426.67,-426.67c0,-235.52 191.15,-426.67 426.67,-426.67c235.52,0 426.67,191.15 426.67,426.67zM554.67,298.67h-85.34v256h85.34zM554.67,640h-85.34v85.33h85.34z" fill="#ffffff"/>
		</mask>
		<mask id="mask-K7X8kZ9z">
			<path d="M938.67,512c0,235.52 -191.15,426.67 -426.67,426.67c-235.52,0 -426.67,-191.15 -426.67,-426.67c0,-235.52 191.15,-426.67 426.67,-426.67c235.52,0 426.67,191.15 426.67,426.67zM554.67,298.67h-85.34v256h85.34zM554.67,640h-85.34v85.33h85.34z" fill="url(#color-Ra5nYuVS)"/>
		</mask>
	</defs>
	<g fill="none" fill-rule="nonzero" style="mix-blend-mode: normal">
		<g mask="url(#mask-JGXoT8z0)">
			<g color="#ffc107" class="teamapps-color-2">
				<rect x="85.33" y="85.33" width="853.34" height="853.34" fill="currentColor"/>
			</g>
			<g color="#e65100" class="teamapps-color-3" mask="url(#mask-5EbJ6Eia)">
				<rect x="85.33" y="85.33" width="853.34" height="853.34" fill="currentColor"/>
			</g>
		</g>
		<g filter="url(#filter-X65ylPfI)" mask="url(#mask-K7X8kZ9z)">
			<g color="#fff59d" class="teamapps-color-1">
				<rect x="85.33" y="85.33" width="853.34" height="853.34" fill="currentColor"/>
			</g>
		</g>
		<g clip-path="url(#clip-uPTzKu8H)">
			<path d="M-7.67,981.67v-1039.34h1039.34v1039.34zM512,85.33c-235.52,0 -426.67,191.15 -426.67,426.67c0,235.52 191.15,426.67 426.67,426.67c235.52,0 426.67,-191.15 426.67,-426.67c0,-235.52 -191.15,-426.67 -426.67,-426.67zM554.67,554.67h-85.34v-256h85.34zM554.67,725.33h-85.34v-85.33h85.34z" fill="#000000" filter="url(#filter-dAmH6iYD)"/>
		</g>
	</g>
</svg>