<svg version="1.1" xmlns="http://www.w3.org/2000/svg" xmlns:xlink="http://www.w3.org/1999/xlink" viewBox="0,0,1024,1024">
	<!-- Color names: teamapps-color-1, teamapps-color-2, teamapps-color-3 -->
	<desc>expand_more icon - Licensed under Apache License v2.0 (http://www.apache.org/licenses/LICENSE-2.0) - Created with Iconfu.com - Derivative work of Material icons (Copyright Google Inc.)</desc>
	<defs>
		<clipPath id="clip-fkkN3IvU">
			<path d="M768,426.67l-256,256l-256,-256l60.16,-60.16l195.84,195.41l195.84,-195.41z"/>
		</clipPath>
		<linearGradient x1="0" y1="1024" x2="1024" y2="0" id="color-n534jCiu" gradientUnits="userSpaceOnUse">
			<stop offset="0.2" stop-color="#000000"/>
			<stop offset="0.8" stop-color="#ffffff"/>
		</linearGradient>
		<radialGradient cx="0" cy="0" r="1448.15" id="color-siyYuh79" gradientUnits="userSpaceOnUse">
			<stop offset="0.07" stop-color="#ffffff"/>
			<stop offset="0.75" stop-color="#000000"/>
		</radialGradient>
		<filter id="filter-iW6NXKev" color-interpolation-filters="sRGB">
			<feOffset/>
		</filter>
		<filter id="filter-z87xKGFa" x="0%" y="0%" width="100%" height="100%" color-interpolation-filters="sRGB">
			<feColorMatrix values="1 0 0 0 0 0 1 0 0 0 0 0 1 0 0 0 0 0 0.05 0" in="SourceGraphic"/>
			<feOffset dy="20"/>
			<feGaussianBlur stdDeviation="11" result="blur0"/>
			<feColorMatrix values="1 0 0 0 0 0 1 0 0 0 0 0 1 0 0 0 0 0 0.07 0" in="SourceGraphic"/>
			<feOffset dy="30"/>
			<feGaussianBlur stdDeviation="20" result="blur1"/>
			<feMerge>
				<feMergeNode in="blur0"/>
				<feMergeNode in="blur1"/>
			</feMerge>
		</filter>
		<mask id="mask-aZx87CXS">
			<rect fill="url(#color-n534jCiu)" x="256" y="366.51" width="512" height="316.16"/>
		</mask>
		<mask id="mask-JRbGxqte">
			<path d="M768,426.67l-256,256l-256,-256l60.16,-60.16l195.84,195.41l195.84,-195.41z" fill="#ffffff"/>
		</mask>
		<mask id="mask-K9wjzMu3">
			<path d="M768,426.67l-256,256l-256,-256l60.16,-60.16l195.84,195.41l195.84,-195.41z" fill="url(#color-siyYuh79)"/>
		</mask>
	</defs>
	<g fill="none" fill-rule="nonzero" style="mix-blend-mode: normal">
		<g mask="url(#mask-JRbGxqte)">
			<g color="#ffc107" class="teamapps-color-2">
				<rect x="256" y="366.51" width="512" height="316.16" fill="currentColor"/>
			</g>
			<g color="#e65100" class="teamapps-color-3" mask="url(#mask-aZx87CXS)">
				<rect x="256" y="366.51" width="512" height="316.16" fill="currentColor"/>
			</g>
		</g>
		<g filter="url(#filter-iW6NXKev)" mask="url(#mask-K9wjzMu3)">
			<g color="#fff59d" class="teamapps-color-1">
				<rect x="256" y="366.51" width="512" height="316.16" fill="currentColor"/>
			</g>
		</g>
		<g clip-path="url(#clip-fkkN3IvU)">
			<path d="M163,725.67v-502.16h698v502.16zM707.84,366.51l-195.84,195.41l-195.84,-195.41l-60.16,60.16l256,256l256,-256z" fill="#000000" filter="url(#filter-z87xKGFa)"/>
		</g>
	</g>
</svg>