<svg version="1.1" xmlns="http://www.w3.org/2000/svg" xmlns:xlink="http://www.w3.org/1999/xlink" viewBox="0,0,1024,1024">
	<!-- Color names: teamapps-color-1, teamapps-color-2, teamapps-color-3 -->
	<desc>exposure icon - Licensed under Apache License v2.0 (http://www.apache.org/licenses/LICENSE-2.0) - Created with Iconfu.com - Derivative work of Material icons (Copyright Google Inc.)</desc>
	<defs>
		<clipPath id="clip-Cl49csRG">
			<path d="M938.67,170.67v682.66c0,46.93 -38.41,85.34 -85.34,85.34h-682.66c-46.93,0 -85.34,-38.41 -85.34,-85.34v-682.66c0,-46.93 38.41,-85.34 85.34,-85.34h682.66c46.93,0 85.34,38.41 85.34,85.34zM853.33,170.67l-682.66,682.66h682.66zM554.67,725.33v-85.33h85.33v-85.33h85.33v85.33h85.34v85.33h-85.34v85.34h-85.33v-85.34zM213.33,298.67h256v-85.34h-256z"/>
		</clipPath>
		<radialGradient cx="0" cy="0" r="1448.15" id="color-Muew5GXy" gradientUnits="userSpaceOnUse">
			<stop offset="0.07" stop-color="#ffffff"/>
			<stop offset="0.75" stop-color="#000000"/>
		</radialGradient>
		<linearGradient x1="0" y1="1024" x2="1024" y2="0" id="color-Zj7MQ33O" gradientUnits="userSpaceOnUse">
			<stop offset="0.2" stop-color="#000000"/>
			<stop offset="0.8" stop-color="#ffffff"/>
		</linearGradient>
		<filter id="filter-THmfHOoK" x="0%" y="0%" width="100%" height="100%" color-interpolation-filters="sRGB">
			<feColorMatrix values="1 0 0 0 0 0 1 0 0 0 0 0 1 0 0 0 0 0 0.05 0" in="SourceGraphic"/>
			<feOffset dy="20"/>
			<feGaussianBlur stdDeviation="11" result="blur0"/>
			<feColorMatrix values="1 0 0 0 0 0 1 0 0 0 0 0 1 0 0 0 0 0 0.07 0" in="SourceGraphic"/>
			<feOffset dy="30"/>
			<feGaussianBlur stdDeviation="20" result="blur1"/>
			<feMerge>
				<feMergeNode in="blur0"/>
				<feMergeNode in="blur1"/>
			</feMerge>
		</filter>
		<filter id="filter-UBeKS9wK" color-interpolation-filters="sRGB">
			<feOffset/>
		</filter>
		<mask id="mask-1oMTKX7C">
			<path d="M938.67,170.67v682.66c0,46.93 -38.41,85.34 -85.34,85.34h-682.66c-46.93,0 -85.34,-38.41 -85.34,-85.34v-682.66c0,-46.93 38.41,-85.34 85.34,-85.34h682.66c46.93,0 85.34,38.41 85.34,85.34zM853.33,170.67l-682.66,682.66h682.66zM554.67,725.33v-85.33h85.33v-85.33h85.33v85.33h85.34v85.33h-85.34v85.34h-85.33v-85.34zM213.33,298.67h256v-85.34h-256z" fill="#ffffff"/>
		</mask>
		<mask id="mask-9isdPeVk">
			<rect fill="url(#color-Zj7MQ33O)" x="85.33" y="85.33" width="853.34" height="853.34"/>
		</mask>
		<mask id="mask-lgN1xiux">
			<path d="M938.67,170.67v682.66c0,46.93 -38.41,85.34 -85.34,85.34h-682.66c-46.93,0 -85.34,-38.41 -85.34,-85.34v-682.66c0,-46.93 38.41,-85.34 85.34,-85.34h682.66c46.93,0 85.34,38.41 85.34,85.34zM853.33,170.67l-682.66,682.66h682.66zM554.67,725.33v-85.33h85.33v-85.33h85.33v85.33h85.34v85.33h-85.34v85.34h-85.33v-85.34zM213.33,298.67h256v-85.34h-256z" fill="url(#color-Muew5GXy)"/>
		</mask>
	</defs>
	<g fill="none" fill-rule="nonzero" style="mix-blend-mode: normal">
		<g mask="url(#mask-1oMTKX7C)">
			<g color="#ffc107" class="teamapps-color-2">
				<rect x="85.33" y="85.33" width="853.34" height="853.34" fill="currentColor"/>
			</g>
			<g color="#e65100" class="teamapps-color-3" mask="url(#mask-9isdPeVk)">
				<rect x="85.33" y="85.33" width="853.34" height="853.34" fill="currentColor"/>
			</g>
		</g>
		<g filter="url(#filter-UBeKS9wK)" mask="url(#mask-lgN1xiux)">
			<g color="#fff59d" class="teamapps-color-1">
				<rect x="85.33" y="85.33" width="853.34" height="853.34" fill="currentColor"/>
			</g>
		</g>
		<g clip-path="url(#clip-Cl49csRG)">
			<path d="M-7.67,981.67v-1039.34h1039.34v1039.34zM853.33,85.33h-682.66c-46.93,0 -85.34,38.41 -85.34,85.34v682.66c0,46.93 38.41,85.34 85.34,85.34h682.66c46.93,0 85.34,-38.41 85.34,-85.34v-682.66c0,-46.93 -38.41,-85.34 -85.34,-85.34zM853.33,853.33h-682.66l682.66,-682.66zM640,725.33v85.34h85.33v-85.34h85.34v-85.33h-85.34v-85.33h-85.33v85.33h-85.33v85.33zM213.33,213.33h256v85.34h-256z" fill="#000000" filter="url(#filter-THmfHOoK)"/>
		</g>
	</g>
</svg>