<svg version="1.1" xmlns="http://www.w3.org/2000/svg" xmlns:xlink="http://www.w3.org/1999/xlink" viewBox="0,0,1024,1024">
	<!-- Color names: teamapps-color-1, teamapps-color-2, teamapps-color-3 -->
	<desc>fast_rewind icon - Licensed under Apache License v2.0 (http://www.apache.org/licenses/LICENSE-2.0) - Created with Iconfu.com - Derivative work of Material icons (Copyright Google Inc.)</desc>
	<defs>
		<clipPath id="clip-aRbBaxfA">
			<path d="M106.67,512l362.66,-256v512zM853.33,256v512l-362.66,-256z"/>
		</clipPath>
		<radialGradient cx="0" cy="0" r="1448.15" id="color-B2yyQTCU" gradientUnits="userSpaceOnUse">
			<stop offset="0.07" stop-color="#ffffff"/>
			<stop offset="0.75" stop-color="#000000"/>
		</radialGradient>
		<linearGradient x1="0" y1="1024" x2="1024" y2="0" id="color-pswNg2Lt" gradientUnits="userSpaceOnUse">
			<stop offset="0.2" stop-color="#000000"/>
			<stop offset="0.8" stop-color="#ffffff"/>
		</linearGradient>
		<filter id="filter-8E0ogT7p" x="0%" y="0%" width="100%" height="100%" color-interpolation-filters="sRGB">
			<feColorMatrix values="1 0 0 0 0 0 1 0 0 0 0 0 1 0 0 0 0 0 0.05 0" in="SourceGraphic"/>
			<feOffset dy="20"/>
			<feGaussianBlur stdDeviation="11" result="blur0"/>
			<feColorMatrix values="1 0 0 0 0 0 1 0 0 0 0 0 1 0 0 0 0 0 0.07 0" in="SourceGraphic"/>
			<feOffset dy="30"/>
			<feGaussianBlur stdDeviation="20" result="blur1"/>
			<feMerge>
				<feMergeNode in="blur0"/>
				<feMergeNode in="blur1"/>
			</feMerge>
		</filter>
		<filter id="filter-ztmu5dK5" color-interpolation-filters="sRGB">
			<feOffset/>
		</filter>
		<mask id="mask-gp8HhJTV">
			<rect fill="url(#color-pswNg2Lt)" x="106.67" y="256" width="746.66" height="512"/>
		</mask>
		<mask id="mask-HOS1xcqF">
			<path d="M106.67,512l362.66,-256v512zM853.33,256v512l-362.66,-256z" fill="url(#color-B2yyQTCU)"/>
		</mask>
		<mask id="mask-SnQoB1f3">
			<path d="M106.67,512l362.66,-256v512zM853.33,256v512l-362.66,-256z" fill="#ffffff"/>
		</mask>
	</defs>
	<g fill="none" fill-rule="nonzero" style="mix-blend-mode: normal">
		<g mask="url(#mask-SnQoB1f3)">
			<g color="#ffc107" class="teamapps-color-2">
				<rect x="106.67" y="256" width="746.66" height="512" fill="currentColor"/>
			</g>
			<g color="#e65100" class="teamapps-color-3" mask="url(#mask-gp8HhJTV)">
				<rect x="106.67" y="256" width="746.66" height="512" fill="currentColor"/>
			</g>
		</g>
		<g filter="url(#filter-ztmu5dK5)" mask="url(#mask-HOS1xcqF)">
			<g color="#fff59d" class="teamapps-color-1">
				<rect x="106.67" y="256" width="746.66" height="512" fill="currentColor"/>
			</g>
		</g>
		<g clip-path="url(#clip-aRbBaxfA)">
			<path d="M13.67,811v-698h932.66v698zM469.33,768v-512l-362.66,256zM490.67,512l362.66,256v-512z" fill="#000000" filter="url(#filter-8E0ogT7p)"/>
		</g>
	</g>
</svg>