<svg version="1.1" xmlns="http://www.w3.org/2000/svg" xmlns:xlink="http://www.w3.org/1999/xlink" viewBox="0,0,1024,1024">
	<!-- Color names: teamapps-color-1, teamapps-color-2, teamapps-color-3 -->
	<desc>first_page icon - Licensed under Apache License v2.0 (http://www.apache.org/licenses/LICENSE-2.0) - Created with Iconfu.com - Derivative work of Material icons (Copyright Google Inc.)</desc>
	<defs>
		<clipPath id="clip-TPrYQyIs">
			<path d="M725.33,768l-256,-256l256,-256l60.16,60.16l-195.84,195.84l195.84,195.84zM256,256h85.33v512h-85.33z"/>
		</clipPath>
		<linearGradient x1="0" y1="1024" x2="1024" y2="0" id="color-RGZfGRnB" gradientUnits="userSpaceOnUse">
			<stop offset="0.2" stop-color="#000000"/>
			<stop offset="0.8" stop-color="#ffffff"/>
		</linearGradient>
		<radialGradient cx="0" cy="0" r="1448.15" id="color-yQHVj11v" gradientUnits="userSpaceOnUse">
			<stop offset="0.07" stop-color="#ffffff"/>
			<stop offset="0.75" stop-color="#000000"/>
		</radialGradient>
		<filter id="filter-0k6xHNBj" color-interpolation-filters="sRGB">
			<feOffset/>
		</filter>
		<filter id="filter-Q1VsBQYM" x="0%" y="0%" width="100%" height="100%" color-interpolation-filters="sRGB">
			<feColorMatrix values="1 0 0 0 0 0 1 0 0 0 0 0 1 0 0 0 0 0 0.05 0" in="SourceGraphic"/>
			<feOffset dy="20"/>
			<feGaussianBlur stdDeviation="11" result="blur0"/>
			<feColorMatrix values="1 0 0 0 0 0 1 0 0 0 0 0 1 0 0 0 0 0 0.07 0" in="SourceGraphic"/>
			<feOffset dy="30"/>
			<feGaussianBlur stdDeviation="20" result="blur1"/>
			<feMerge>
				<feMergeNode in="blur0"/>
				<feMergeNode in="blur1"/>
			</feMerge>
		</filter>
		<mask id="mask-cnXfRnsd">
			<rect fill="url(#color-RGZfGRnB)" x="256" y="256" width="529.49" height="512"/>
		</mask>
		<mask id="mask-spHqRO0V">
			<path d="M725.33,768l-256,-256l256,-256l60.16,60.16l-195.84,195.84l195.84,195.84zM256,256h85.33v512h-85.33z" fill="url(#color-yQHVj11v)"/>
		</mask>
		<mask id="mask-uAsdnoyf">
			<path d="M725.33,768l-256,-256l256,-256l60.16,60.16l-195.84,195.84l195.84,195.84zM256,256h85.33v512h-85.33z" fill="#ffffff"/>
		</mask>
	</defs>
	<g fill="none" fill-rule="nonzero" style="mix-blend-mode: normal">
		<g mask="url(#mask-uAsdnoyf)">
			<g color="#ffc107" class="teamapps-color-2">
				<rect x="256" y="256" width="529.49" height="512" fill="currentColor"/>
			</g>
			<g color="#e65100" class="teamapps-color-3" mask="url(#mask-cnXfRnsd)">
				<rect x="256" y="256" width="529.49" height="512" fill="currentColor"/>
			</g>
		</g>
		<g filter="url(#filter-0k6xHNBj)" mask="url(#mask-spHqRO0V)">
			<g color="#fff59d" class="teamapps-color-1">
				<rect x="256" y="256" width="529.49" height="512" fill="currentColor"/>
			</g>
		</g>
		<g clip-path="url(#clip-TPrYQyIs)">
			<path d="M163,811v-698h715.49v698zM785.49,707.84l-195.84,-195.84l195.84,-195.84l-60.16,-60.16l-256,256l256,256zM256,768h85.33v-512h-85.33z" fill="#000000" filter="url(#filter-Q1VsBQYM)"/>
		</g>
	</g>
</svg>