<svg version="1.1" xmlns="http://www.w3.org/2000/svg" xmlns:xlink="http://www.w3.org/1999/xlink" viewBox="0,0,1024,1024">
	<!-- Color names: teamapps-color-1, teamapps-color-2, teamapps-color-3 -->
	<desc>flip icon - Licensed under Apache License v2.0 (http://www.apache.org/licenses/LICENSE-2.0) - Created with Iconfu.com - Derivative work of Material icons (Copyright Google Inc.)</desc>
	<defs>
		<clipPath id="clip-cRg3MLxY">
			<path d="M213.33,128h170.67v85.33h-170.67v597.34h170.67v85.33h-170.67c-46.93,0 -85.33,-38.4 -85.33,-85.33v-597.34c0,-46.93 38.4,-85.33 85.33,-85.33zM469.33,42.67h85.34v938.66h-85.34zM810.67,298.67h85.33v85.33h-85.33zM810.67,810.67h85.33c0,46.93 -38.4,85.33 -85.33,85.33zM896,213.33h-85.33v-85.33c46.93,0 85.33,38.4 85.33,85.33zM810.67,469.33h85.33v85.34h-85.33zM640,810.67h85.33v85.33h-85.33zM810.67,640h85.33v85.33h-85.33zM640,128h85.33v85.33h-85.33z"/>
		</clipPath>
		<radialGradient cx="0" cy="0" r="1448.15" id="color-ofYbqYUK" gradientUnits="userSpaceOnUse">
			<stop offset="0.07" stop-color="#ffffff"/>
			<stop offset="0.75" stop-color="#000000"/>
		</radialGradient>
		<linearGradient x1="0" y1="1024" x2="1024" y2="0" id="color-rQg8W7KB" gradientUnits="userSpaceOnUse">
			<stop offset="0.2" stop-color="#000000"/>
			<stop offset="0.8" stop-color="#ffffff"/>
		</linearGradient>
		<filter id="filter-n4J1vUjT" color-interpolation-filters="sRGB">
			<feOffset/>
		</filter>
		<filter id="filter-oSNMOtlU" x="0%" y="0%" width="100%" height="100%" color-interpolation-filters="sRGB">
			<feColorMatrix values="1 0 0 0 0 0 1 0 0 0 0 0 1 0 0 0 0 0 0.05 0" in="SourceGraphic"/>
			<feOffset dy="20"/>
			<feGaussianBlur stdDeviation="11" result="blur0"/>
			<feColorMatrix values="1 0 0 0 0 0 1 0 0 0 0 0 1 0 0 0 0 0 0.07 0" in="SourceGraphic"/>
			<feOffset dy="30"/>
			<feGaussianBlur stdDeviation="20" result="blur1"/>
			<feMerge>
				<feMergeNode in="blur0"/>
				<feMergeNode in="blur1"/>
			</feMerge>
		</filter>
		<mask id="mask-2XT9hn71">
			<path d="M213.33,128h170.67v85.33h-170.67v597.34h170.67v85.33h-170.67c-46.93,0 -85.33,-38.4 -85.33,-85.33v-597.34c0,-46.93 38.4,-85.33 85.33,-85.33zM469.33,42.67h85.34v938.66h-85.34zM810.67,298.67h85.33v85.33h-85.33zM810.67,810.67h85.33c0,46.93 -38.4,85.33 -85.33,85.33zM896,213.33h-85.33v-85.33c46.93,0 85.33,38.4 85.33,85.33zM810.67,469.33h85.33v85.34h-85.33zM640,810.67h85.33v85.33h-85.33zM810.67,640h85.33v85.33h-85.33zM640,128h85.33v85.33h-85.33z" fill="#ffffff"/>
		</mask>
		<mask id="mask-kRWYPT4A">
			<rect fill="url(#color-rQg8W7KB)" x="128" y="42.67" width="768" height="938.66"/>
		</mask>
		<mask id="mask-NyZMfnTw">
			<path d="M213.33,128h170.67v85.33h-170.67v597.34h170.67v85.33h-170.67c-46.93,0 -85.33,-38.4 -85.33,-85.33v-597.34c0,-46.93 38.4,-85.33 85.33,-85.33zM469.33,42.67h85.34v938.66h-85.34zM810.67,298.67h85.33v85.33h-85.33zM810.67,810.67h85.33c0,46.93 -38.4,85.33 -85.33,85.33zM896,213.33h-85.33v-85.33c46.93,0 85.33,38.4 85.33,85.33zM810.67,469.33h85.33v85.34h-85.33zM640,810.67h85.33v85.33h-85.33zM810.67,640h85.33v85.33h-85.33zM640,128h85.33v85.33h-85.33z" fill="url(#color-ofYbqYUK)"/>
		</mask>
	</defs>
	<g fill="none" fill-rule="nonzero" style="mix-blend-mode: normal">
		<g mask="url(#mask-2XT9hn71)">
			<g color="#ffc107" class="teamapps-color-2">
				<rect x="128" y="42.67" width="768" height="938.66" fill="currentColor"/>
			</g>
			<g color="#e65100" class="teamapps-color-3" mask="url(#mask-kRWYPT4A)">
				<rect x="128" y="42.67" width="768" height="938.66" fill="currentColor"/>
			</g>
		</g>
		<g filter="url(#filter-n4J1vUjT)" mask="url(#mask-NyZMfnTw)">
			<g color="#fff59d" class="teamapps-color-1">
				<rect x="128" y="42.67" width="768" height="938.66" fill="currentColor"/>
			</g>
		</g>
		<g clip-path="url(#clip-cRg3MLxY)">
			<path d="M35,1024.33v-1124.66h954v1124.66zM128,213.33v597.34c0,46.93 38.4,85.33 85.33,85.33h170.67v-85.33h-170.67v-597.34h170.67v-85.33h-170.67c-46.93,0 -85.33,38.4 -85.33,85.33zM469.33,981.33h85.34v-938.66h-85.34zM810.67,384h85.33v-85.33h-85.33zM810.67,896c46.93,0 85.33,-38.4 85.33,-85.33h-85.33zM810.67,128v85.33h85.33c0,-46.93 -38.4,-85.33 -85.33,-85.33zM810.67,554.67h85.33v-85.34h-85.33zM640,896h85.33v-85.33h-85.33zM810.67,725.33h85.33v-85.33h-85.33zM640,213.33h85.33v-85.33h-85.33z" fill="#000000" filter="url(#filter-oSNMOtlU)"/>
		</g>
	</g>
</svg>