<svg version="1.1" xmlns="http://www.w3.org/2000/svg" xmlns:xlink="http://www.w3.org/1999/xlink" viewBox="0,0,1024,1024">
	<!-- Color names: teamapps-color-1, teamapps-color-2, teamapps-color-3 -->
	<desc>format_align_right icon - Licensed under Apache License v2.0 (http://www.apache.org/licenses/LICENSE-2.0) - Created with Iconfu.com - Derivative work of Material icons (Copyright Google Inc.)</desc>
	<defs>
		<clipPath id="clip-uhh600i6">
			<path d="M128,810.67h768v85.33h-768zM128,469.33h768v85.34h-768zM896,128v85.33h-768v-85.33zM384,298.67h512v85.33h-512zM384,640h512v85.33h-512z"/>
		</clipPath>
		<radialGradient cx="0" cy="0" r="1448.15" id="color-0fYB4bVh" gradientUnits="userSpaceOnUse">
			<stop offset="0.07" stop-color="#ffffff"/>
			<stop offset="0.75" stop-color="#000000"/>
		</radialGradient>
		<linearGradient x1="0" y1="1024" x2="1024" y2="0" id="color-XiPniGWi" gradientUnits="userSpaceOnUse">
			<stop offset="0.2" stop-color="#000000"/>
			<stop offset="0.8" stop-color="#ffffff"/>
		</linearGradient>
		<filter id="filter-KKBdTLnj" color-interpolation-filters="sRGB">
			<feOffset/>
		</filter>
		<filter id="filter-LRj0M58R" x="0%" y="0%" width="100%" height="100%" color-interpolation-filters="sRGB">
			<feColorMatrix values="1 0 0 0 0 0 1 0 0 0 0 0 1 0 0 0 0 0 0.05 0" in="SourceGraphic"/>
			<feOffset dy="20"/>
			<feGaussianBlur stdDeviation="11" result="blur0"/>
			<feColorMatrix values="1 0 0 0 0 0 1 0 0 0 0 0 1 0 0 0 0 0 0.07 0" in="SourceGraphic"/>
			<feOffset dy="30"/>
			<feGaussianBlur stdDeviation="20" result="blur1"/>
			<feMerge>
				<feMergeNode in="blur0"/>
				<feMergeNode in="blur1"/>
			</feMerge>
		</filter>
		<mask id="mask-2ypveg4m">
			<rect fill="url(#color-XiPniGWi)" x="128" y="128" width="768" height="768"/>
		</mask>
		<mask id="mask-MhFPxGTP">
			<path d="M128,810.67h768v85.33h-768zM128,469.33h768v85.34h-768zM896,128v85.33h-768v-85.33zM384,298.67h512v85.33h-512zM384,640h512v85.33h-512z" fill="#ffffff"/>
		</mask>
		<mask id="mask-tChrcr3K">
			<path d="M128,810.67h768v85.33h-768zM128,469.33h768v85.34h-768zM896,128v85.33h-768v-85.33zM384,298.67h512v85.33h-512zM384,640h512v85.33h-512z" fill="url(#color-0fYB4bVh)"/>
		</mask>
	</defs>
	<g fill="none" fill-rule="nonzero" style="mix-blend-mode: normal">
		<g mask="url(#mask-MhFPxGTP)">
			<g color="#ffc107" class="teamapps-color-2">
				<rect x="128" y="128" width="768" height="768" fill="currentColor"/>
			</g>
			<g color="#e65100" class="teamapps-color-3" mask="url(#mask-2ypveg4m)">
				<rect x="128" y="128" width="768" height="768" fill="currentColor"/>
			</g>
		</g>
		<g filter="url(#filter-KKBdTLnj)" mask="url(#mask-tChrcr3K)">
			<g color="#fff59d" class="teamapps-color-1">
				<rect x="128" y="128" width="768" height="768" fill="currentColor"/>
			</g>
		</g>
		<g clip-path="url(#clip-uhh600i6)">
			<path d="M35,939v-954h954v954zM128,896h768v-85.33h-768zM128,554.67h768v-85.34h-768zM128,128v85.33h768v-85.33zM384,384h512v-85.33h-512zM384,725.33h512v-85.33h-512z" fill="#000000" filter="url(#filter-LRj0M58R)"/>
		</g>
	</g>
</svg>