<svg version="1.1" xmlns="http://www.w3.org/2000/svg" xmlns:xlink="http://www.w3.org/1999/xlink" viewBox="0,0,1024,1024">
	<!-- Color names: teamapps-color-1, teamapps-color-2, teamapps-color-3 -->
	<desc>format_paint icon - Licensed under Apache License v2.0 (http://www.apache.org/licenses/LICENSE-2.0) - Created with Iconfu.com - Derivative work of Material icons (Copyright Google Inc.)</desc>
	<defs>
		<clipPath id="clip-vOoQPlQ9">
			<path d="M896,170.67v341.33h-341.33v384c0,23.47 -19.2,42.67 -42.67,42.67h-85.33c-23.47,0 -42.67,-19.2 -42.67,-42.67v-469.33h426.67v-170.67h-42.67v42.67c0,23.47 -19.2,42.66 -42.67,42.66h-512c-23.47,0 -42.66,-19.19 -42.66,-42.66v-170.67c0,-23.47 19.19,-42.67 42.66,-42.67h512c23.47,0 42.67,19.2 42.67,42.67v42.67z"/>
		</clipPath>
		<radialGradient cx="0" cy="0" r="1448.15" id="color-69Tx8ioV" gradientUnits="userSpaceOnUse">
			<stop offset="0.07" stop-color="#ffffff"/>
			<stop offset="0.75" stop-color="#000000"/>
		</radialGradient>
		<linearGradient x1="0" y1="1024" x2="1024" y2="0" id="color-MjlYptRN" gradientUnits="userSpaceOnUse">
			<stop offset="0.2" stop-color="#000000"/>
			<stop offset="0.8" stop-color="#ffffff"/>
		</linearGradient>
		<filter id="filter-jIusogjX" color-interpolation-filters="sRGB">
			<feOffset/>
		</filter>
		<filter id="filter-K2cTn75k" x="0%" y="0%" width="100%" height="100%" color-interpolation-filters="sRGB">
			<feColorMatrix values="1 0 0 0 0 0 1 0 0 0 0 0 1 0 0 0 0 0 0.05 0" in="SourceGraphic"/>
			<feOffset dy="20"/>
			<feGaussianBlur stdDeviation="11" result="blur0"/>
			<feColorMatrix values="1 0 0 0 0 0 1 0 0 0 0 0 1 0 0 0 0 0 0.07 0" in="SourceGraphic"/>
			<feOffset dy="30"/>
			<feGaussianBlur stdDeviation="20" result="blur1"/>
			<feMerge>
				<feMergeNode in="blur0"/>
				<feMergeNode in="blur1"/>
			</feMerge>
		</filter>
		<mask id="mask-ohMH160W">
			<rect fill="url(#color-MjlYptRN)" x="170.67" y="85.33" width="725.33" height="853.34"/>
		</mask>
		<mask id="mask-RQKuN9XS">
			<path d="M896,170.67v341.33h-341.33v384c0,23.47 -19.2,42.67 -42.67,42.67h-85.33c-23.47,0 -42.67,-19.2 -42.67,-42.67v-469.33h426.67v-170.67h-42.67v42.67c0,23.47 -19.2,42.66 -42.67,42.66h-512c-23.47,0 -42.66,-19.19 -42.66,-42.66v-170.67c0,-23.47 19.19,-42.67 42.66,-42.67h512c23.47,0 42.67,19.2 42.67,42.67v42.67z" fill="#ffffff"/>
		</mask>
		<mask id="mask-v0aGVIHY">
			<path d="M896,170.67v341.33h-341.33v384c0,23.47 -19.2,42.67 -42.67,42.67h-85.33c-23.47,0 -42.67,-19.2 -42.67,-42.67v-469.33h426.67v-170.67h-42.67v42.67c0,23.47 -19.2,42.66 -42.67,42.66h-512c-23.47,0 -42.66,-19.19 -42.66,-42.66v-170.67c0,-23.47 19.19,-42.67 42.66,-42.67h512c23.47,0 42.67,19.2 42.67,42.67v42.67z" fill="url(#color-69Tx8ioV)"/>
		</mask>
	</defs>
	<g fill="none" fill-rule="nonzero" style="mix-blend-mode: normal">
		<g mask="url(#mask-RQKuN9XS)">
			<g color="#ffc107" class="teamapps-color-2">
				<rect x="170.67" y="85.33" width="725.33" height="853.34" fill="currentColor"/>
			</g>
			<g color="#e65100" class="teamapps-color-3" mask="url(#mask-ohMH160W)">
				<rect x="170.67" y="85.33" width="725.33" height="853.34" fill="currentColor"/>
			</g>
		</g>
		<g filter="url(#filter-jIusogjX)" mask="url(#mask-v0aGVIHY)">
			<g color="#fff59d" class="teamapps-color-1">
				<rect x="170.67" y="85.33" width="725.33" height="853.34" fill="currentColor"/>
			</g>
		</g>
		<g clip-path="url(#clip-vOoQPlQ9)">
			<path d="M77.67,981.67v-1039.34h911.33v1039.34zM768,170.67v-42.67c0,-23.47 -19.2,-42.67 -42.67,-42.67h-512c-23.47,0 -42.66,19.2 -42.66,42.67v170.67c0,23.47 19.19,42.66 42.66,42.66h512c23.47,0 42.67,-19.19 42.67,-42.66v-42.67h42.67v170.67h-426.67v469.33c0,23.47 19.2,42.67 42.67,42.67h85.33c23.47,0 42.67,-19.2 42.67,-42.67v-384h341.33v-341.33z" fill="#000000" filter="url(#filter-K2cTn75k)"/>
		</g>
	</g>
</svg>