<svg version="1.1" xmlns="http://www.w3.org/2000/svg" xmlns:xlink="http://www.w3.org/1999/xlink" viewBox="0,0,1024,1024">
	<!-- Color names: teamapps-color-1, teamapps-color-2, teamapps-color-3 -->
	<desc>format_textdirection_r_to_l icon - Licensed under Apache License v2.0 (http://www.apache.org/licenses/LICENSE-2.0) - Created with Iconfu.com - Derivative work of Material icons (Copyright Google Inc.)</desc>
	<defs>
		<clipPath id="clip-glRVjo84">
			<path d="M256,256c0,-94.29 76.38,-170.67 170.67,-170.67h341.33v85.34h-85.33v469.33h-85.34v-469.33h-85.33v469.33h-85.33v-213.33c-94.29,0 -170.67,-76.38 -170.67,-170.67zM853.33,725.33v85.34h-512v128l-170.66,-170.67l170.66,-170.67v128z"/>
		</clipPath>
		<linearGradient x1="0" y1="1024" x2="1024" y2="0" id="color-54AKndO1" gradientUnits="userSpaceOnUse">
			<stop offset="0.2" stop-color="#000000"/>
			<stop offset="0.8" stop-color="#ffffff"/>
		</linearGradient>
		<radialGradient cx="0" cy="0" r="1448.15" id="color-SxyCf2Mm" gradientUnits="userSpaceOnUse">
			<stop offset="0.07" stop-color="#ffffff"/>
			<stop offset="0.75" stop-color="#000000"/>
		</radialGradient>
		<filter id="filter-QmxHKtD4" x="0%" y="0%" width="100%" height="100%" color-interpolation-filters="sRGB">
			<feColorMatrix values="1 0 0 0 0 0 1 0 0 0 0 0 1 0 0 0 0 0 0.05 0" in="SourceGraphic"/>
			<feOffset dy="20"/>
			<feGaussianBlur stdDeviation="11" result="blur0"/>
			<feColorMatrix values="1 0 0 0 0 0 1 0 0 0 0 0 1 0 0 0 0 0 0.07 0" in="SourceGraphic"/>
			<feOffset dy="30"/>
			<feGaussianBlur stdDeviation="20" result="blur1"/>
			<feMerge>
				<feMergeNode in="blur0"/>
				<feMergeNode in="blur1"/>
			</feMerge>
		</filter>
		<filter id="filter-xExe9sVa" color-interpolation-filters="sRGB">
			<feOffset/>
		</filter>
		<mask id="mask-17mrGbGW">
			<path d="M256,256c0,-94.29 76.38,-170.67 170.67,-170.67h341.33v85.34h-85.33v469.33h-85.34v-469.33h-85.33v469.33h-85.33v-213.33c-94.29,0 -170.67,-76.38 -170.67,-170.67zM853.33,725.33v85.34h-512v128l-170.66,-170.67l170.66,-170.67v128z" fill="url(#color-SxyCf2Mm)"/>
		</mask>
		<mask id="mask-4szWYJDc">
			<path d="M256,256c0,-94.29 76.38,-170.67 170.67,-170.67h341.33v85.34h-85.33v469.33h-85.34v-469.33h-85.33v469.33h-85.33v-213.33c-94.29,0 -170.67,-76.38 -170.67,-170.67zM853.33,725.33v85.34h-512v128l-170.66,-170.67l170.66,-170.67v128z" fill="#ffffff"/>
		</mask>
		<mask id="mask-QOD5VVOw">
			<rect fill="url(#color-54AKndO1)" x="170.67" y="85.33" width="682.66" height="853.34"/>
		</mask>
	</defs>
	<g fill="none" fill-rule="nonzero" style="mix-blend-mode: normal">
		<g mask="url(#mask-4szWYJDc)">
			<g color="#ffc107" class="teamapps-color-2">
				<rect x="170.67" y="85.33" width="682.66" height="853.34" fill="currentColor"/>
			</g>
			<g color="#e65100" class="teamapps-color-3" mask="url(#mask-QOD5VVOw)">
				<rect x="170.67" y="85.33" width="682.66" height="853.34" fill="currentColor"/>
			</g>
		</g>
		<g filter="url(#filter-xExe9sVa)" mask="url(#mask-17mrGbGW)">
			<g color="#fff59d" class="teamapps-color-1">
				<rect x="170.67" y="85.33" width="682.66" height="853.34" fill="currentColor"/>
			</g>
		</g>
		<g clip-path="url(#clip-glRVjo84)">
			<path d="M77.67,981.67v-1039.34h868.66v1039.34zM426.67,426.67v213.33h85.33v-469.33h85.33v469.33h85.34v-469.33h85.33v-85.34h-341.33c-94.29,0 -170.67,76.38 -170.67,170.67c0,94.29 76.38,170.67 170.67,170.67zM341.33,725.33v-128l-170.66,170.67l170.66,170.67v-128h512v-85.34z" fill="#000000" filter="url(#filter-QmxHKtD4)"/>
		</g>
	</g>
</svg>