<svg version="1.1" xmlns="http://www.w3.org/2000/svg" xmlns:xlink="http://www.w3.org/1999/xlink" viewBox="0,0,1024,1024">
	<!-- Color names: teamapps-color-1, teamapps-color-2, teamapps-color-3 -->
	<desc>format_indent_decrease icon - Licensed under Apache License v2.0 (http://www.apache.org/licenses/LICENSE-2.0) - Created with Iconfu.com - Derivative work of Material icons (Copyright Google Inc.)</desc>
	<defs>
		<clipPath id="clip-8PqcM9Rj">
			<path d="M128,810.67h768v85.33h-768zM896,128v85.33h-768v-85.33zM298.67,341.33v341.34l-170.67,-170.67zM469.33,298.67h426.67v85.33h-426.67zM469.33,469.33h426.67v85.34h-426.67zM469.33,640h426.67v85.33h-426.67z"/>
		</clipPath>
		<radialGradient cx="0" cy="0" r="1448.15" id="color-2SQd3329" gradientUnits="userSpaceOnUse">
			<stop offset="0.07" stop-color="#ffffff"/>
			<stop offset="0.75" stop-color="#000000"/>
		</radialGradient>
		<linearGradient x1="0" y1="1024" x2="1024" y2="0" id="color-MYkkrwdv" gradientUnits="userSpaceOnUse">
			<stop offset="0.2" stop-color="#000000"/>
			<stop offset="0.8" stop-color="#ffffff"/>
		</linearGradient>
		<filter id="filter-hHg08rD0" x="0%" y="0%" width="100%" height="100%" color-interpolation-filters="sRGB">
			<feColorMatrix values="1 0 0 0 0 0 1 0 0 0 0 0 1 0 0 0 0 0 0.05 0" in="SourceGraphic"/>
			<feOffset dy="20"/>
			<feGaussianBlur stdDeviation="11" result="blur0"/>
			<feColorMatrix values="1 0 0 0 0 0 1 0 0 0 0 0 1 0 0 0 0 0 0.07 0" in="SourceGraphic"/>
			<feOffset dy="30"/>
			<feGaussianBlur stdDeviation="20" result="blur1"/>
			<feMerge>
				<feMergeNode in="blur0"/>
				<feMergeNode in="blur1"/>
			</feMerge>
		</filter>
		<filter id="filter-KXEB2rri" color-interpolation-filters="sRGB">
			<feOffset/>
		</filter>
		<mask id="mask-nlUkXSDk">
			<rect fill="url(#color-MYkkrwdv)" x="128" y="128" width="768" height="768"/>
		</mask>
		<mask id="mask-OPAaaJHd">
			<path d="M128,810.67h768v85.33h-768zM896,128v85.33h-768v-85.33zM298.67,341.33v341.34l-170.67,-170.67zM469.33,298.67h426.67v85.33h-426.67zM469.33,469.33h426.67v85.34h-426.67zM469.33,640h426.67v85.33h-426.67z" fill="#ffffff"/>
		</mask>
		<mask id="mask-uyZr1428">
			<path d="M128,810.67h768v85.33h-768zM896,128v85.33h-768v-85.33zM298.67,341.33v341.34l-170.67,-170.67zM469.33,298.67h426.67v85.33h-426.67zM469.33,469.33h426.67v85.34h-426.67zM469.33,640h426.67v85.33h-426.67z" fill="url(#color-2SQd3329)"/>
		</mask>
	</defs>
	<g fill="none" fill-rule="nonzero" style="mix-blend-mode: normal">
		<g mask="url(#mask-OPAaaJHd)">
			<g color="#ffc107" class="teamapps-color-2">
				<rect x="128" y="128" width="768" height="768" fill="currentColor"/>
			</g>
			<g color="#e65100" class="teamapps-color-3" mask="url(#mask-nlUkXSDk)">
				<rect x="128" y="128" width="768" height="768" fill="currentColor"/>
			</g>
		</g>
		<g filter="url(#filter-KXEB2rri)" mask="url(#mask-uyZr1428)">
			<g color="#fff59d" class="teamapps-color-1">
				<rect x="128" y="128" width="768" height="768" fill="currentColor"/>
			</g>
		</g>
		<g clip-path="url(#clip-8PqcM9Rj)">
			<path d="M35,939v-954h954v954zM128,896h768v-85.33h-768zM128,128v85.33h768v-85.33zM128,512l170.67,170.67v-341.34zM469.33,384h426.67v-85.33h-426.67zM469.33,554.67h426.67v-85.34h-426.67zM469.33,725.33h426.67v-85.33h-426.67z" fill="#000000" filter="url(#filter-hHg08rD0)"/>
		</g>
	</g>
</svg>