<svg version="1.1" xmlns="http://www.w3.org/2000/svg" xmlns:xlink="http://www.w3.org/1999/xlink" viewBox="0,0,1024,1024">
	<!-- Color names: teamapps-color-1, teamapps-color-2, teamapps-color-3 -->
	<desc>forward_5 icon - Licensed under Apache License v2.0 (http://www.apache.org/licenses/LICENSE-2.0) - Created with Iconfu.com - Derivative work of Material icons (Copyright Google Inc.)</desc>
	<defs>
		<clipPath id="clip-Me65WjzA">
			<path d="M512,213.33v-170.66l213.33,213.33l-213.33,213.33v-170.66c-140.8,0 -256,115.2 -256,256c0,140.8 115.2,256 256,256c140.8,0 256,-115.2 256,-256h85.33c0,187.73 -153.6,341.33 -341.33,341.33c-187.73,0 -341.33,-153.6 -341.33,-341.33c0,-187.73 153.6,-341.34 341.33,-341.34zM456.53,593.07l8.54,-93.87h102.4v29.87h-72.54l-4.26,38.4c0,0 4.26,0 4.26,-4.27c0,-4.27 4.27,0 4.27,-4.27c0,-4.27 4.26,0 8.53,0h8.54c8.53,0 17.06,0 21.33,4.27c4.27,4.27 12.8,8.53 17.07,12.8c4.27,4.27 8.53,12.8 12.8,21.33c4.27,8.53 4.26,17.07 4.26,25.6c0,8.53 0.01,17.07 -4.26,21.34c-4.27,4.27 -4.27,12.8 -12.8,21.33c-8.53,8.53 -12.81,8.53 -21.34,12.8c-8.53,4.27 -17.07,4.27 -25.6,4.27c-8.53,0 -17.06,0 -21.33,-4.27c-4.27,-4.27 -12.8,-4.26 -21.33,-8.53c-8.53,-4.27 -8.53,-8.54 -12.8,-17.07c-4.27,-8.53 -4.27,-12.8 -4.27,-21.33h34.13c0,8.53 4.27,12.79 8.54,17.06c4.27,4.27 8.53,4.27 17.06,4.27c4.27,0 8.53,0 12.8,-4.27l8.54,-8.53c0,0 4.26,-8.53 4.26,-12.8v-25.6l-4.26,-8.53l-8.54,-8.54c0,0 -8.53,-4.26 -12.8,-4.26h-8.53c0,0 -4.26,-0.01 -8.53,4.26c-4.27,4.27 -4.27,0 -4.27,4.27c0,4.27 -4.27,4.27 -4.27,4.27z"/>
		</clipPath>
		<radialGradient cx="0" cy="0" r="1448.15" id="color-saQmoFUC" gradientUnits="userSpaceOnUse">
			<stop offset="0.07" stop-color="#ffffff"/>
			<stop offset="0.75" stop-color="#000000"/>
		</radialGradient>
		<linearGradient x1="0" y1="1024" x2="1024" y2="0" id="color-upfqpTFd" gradientUnits="userSpaceOnUse">
			<stop offset="0.2" stop-color="#000000"/>
			<stop offset="0.8" stop-color="#ffffff"/>
		</linearGradient>
		<filter id="filter-VcQomMky" x="0%" y="0%" width="100%" height="100%" color-interpolation-filters="sRGB">
			<feColorMatrix values="1 0 0 0 0 0 1 0 0 0 0 0 1 0 0 0 0 0 0.05 0" in="SourceGraphic"/>
			<feOffset dy="20"/>
			<feGaussianBlur stdDeviation="11" result="blur0"/>
			<feColorMatrix values="1 0 0 0 0 0 1 0 0 0 0 0 1 0 0 0 0 0 0.07 0" in="SourceGraphic"/>
			<feOffset dy="30"/>
			<feGaussianBlur stdDeviation="20" result="blur1"/>
			<feMerge>
				<feMergeNode in="blur0"/>
				<feMergeNode in="blur1"/>
			</feMerge>
		</filter>
		<filter id="filter-YVTKwy3s" color-interpolation-filters="sRGB">
			<feOffset/>
		</filter>
		<mask id="mask-8RDsqay6">
			<rect fill="url(#color-upfqpTFd)" x="170.67" y="42.67" width="682.66" height="853.33"/>
		</mask>
		<mask id="mask-JNIwovUu">
			<path d="M512,213.33v-170.66l213.33,213.33l-213.33,213.33v-170.66c-140.8,0 -256,115.2 -256,256c0,140.8 115.2,256 256,256c140.8,0 256,-115.2 256,-256h85.33c0,187.73 -153.6,341.33 -341.33,341.33c-187.73,0 -341.33,-153.6 -341.33,-341.33c0,-187.73 153.6,-341.34 341.33,-341.34zM456.53,593.07l8.54,-93.87h102.4v29.87h-72.54l-4.26,38.4c0,0 4.26,0 4.26,-4.27c0,-4.27 4.27,0 4.27,-4.27c0,-4.27 4.26,0 8.53,0h8.54c8.53,0 17.06,0 21.33,4.27c4.27,4.27 12.8,8.53 17.07,12.8c4.27,4.27 8.53,12.8 12.8,21.33c4.27,8.53 4.26,17.07 4.26,25.6c0,8.53 0.01,17.07 -4.26,21.34c-4.27,4.27 -4.27,12.8 -12.8,21.33c-8.53,8.53 -12.81,8.53 -21.34,12.8c-8.53,4.27 -17.07,4.27 -25.6,4.27c-8.53,0 -17.06,0 -21.33,-4.27c-4.27,-4.27 -12.8,-4.26 -21.33,-8.53c-8.53,-4.27 -8.53,-8.54 -12.8,-17.07c-4.27,-8.53 -4.27,-12.8 -4.27,-21.33h34.13c0,8.53 4.27,12.79 8.54,17.06c4.27,4.27 8.53,4.27 17.06,4.27c4.27,0 8.53,0 12.8,-4.27l8.54,-8.53c0,0 4.26,-8.53 4.26,-12.8v-25.6l-4.26,-8.53l-8.54,-8.54c0,0 -8.53,-4.26 -12.8,-4.26h-8.53c0,0 -4.26,-0.01 -8.53,4.26c-4.27,4.27 -4.27,0 -4.27,4.27c0,4.27 -4.27,4.27 -4.27,4.27z" fill="#ffffff"/>
		</mask>
		<mask id="mask-U6Y8cdWn">
			<path d="M512,213.33v-170.66l213.33,213.33l-213.33,213.33v-170.66c-140.8,0 -256,115.2 -256,256c0,140.8 115.2,256 256,256c140.8,0 256,-115.2 256,-256h85.33c0,187.73 -153.6,341.33 -341.33,341.33c-187.73,0 -341.33,-153.6 -341.33,-341.33c0,-187.73 153.6,-341.34 341.33,-341.34zM456.53,593.07l8.54,-93.87h102.4v29.87h-72.54l-4.26,38.4c0,0 4.26,0 4.26,-4.27c0,-4.27 4.27,0 4.27,-4.27c0,-4.27 4.26,0 8.53,0h8.54c8.53,0 17.06,0 21.33,4.27c4.27,4.27 12.8,8.53 17.07,12.8c4.27,4.27 8.53,12.8 12.8,21.33c4.27,8.53 4.26,17.07 4.26,25.6c0,8.53 0.01,17.07 -4.26,21.34c-4.27,4.27 -4.27,12.8 -12.8,21.33c-8.53,8.53 -12.81,8.53 -21.34,12.8c-8.53,4.27 -17.07,4.27 -25.6,4.27c-8.53,0 -17.06,0 -21.33,-4.27c-4.27,-4.27 -12.8,-4.26 -21.33,-8.53c-8.53,-4.27 -8.53,-8.54 -12.8,-17.07c-4.27,-8.53 -4.27,-12.8 -4.27,-21.33h34.13c0,8.53 4.27,12.79 8.54,17.06c4.27,4.27 8.53,4.27 17.06,4.27c4.27,0 8.53,0 12.8,-4.27l8.54,-8.53c0,0 4.26,-8.53 4.26,-12.8v-25.6l-4.26,-8.53l-8.54,-8.54c0,0 -8.53,-4.26 -12.8,-4.26h-8.53c0,0 -4.26,-0.01 -8.53,4.26c-4.27,4.27 -4.27,0 -4.27,4.27c0,4.27 -4.27,4.27 -4.27,4.27z" fill="url(#color-saQmoFUC)"/>
		</mask>
	</defs>
	<g fill="none" fill-rule="nonzero" style="mix-blend-mode: normal">
		<g mask="url(#mask-JNIwovUu)">
			<g color="#ffc107" class="teamapps-color-2">
				<rect x="170.67" y="42.67" width="682.66" height="853.33" fill="currentColor"/>
			</g>
			<g color="#e65100" class="teamapps-color-3" mask="url(#mask-8RDsqay6)">
				<rect x="170.67" y="42.67" width="682.66" height="853.33" fill="currentColor"/>
			</g>
		</g>
		<g filter="url(#filter-YVTKwy3s)" mask="url(#mask-U6Y8cdWn)">
			<g color="#fff59d" class="teamapps-color-1">
				<rect x="170.67" y="42.67" width="682.66" height="853.33" fill="currentColor"/>
			</g>
		</g>
		<g clip-path="url(#clip-Me65WjzA)">
			<path d="M77.67,939v-1039.33h868.66v1039.33zM170.67,554.67c0,187.73 153.6,341.33 341.33,341.33c187.73,0 341.33,-153.6 341.33,-341.33h-85.33c0,140.8 -115.2,256 -256,256c-140.8,0 -256,-115.2 -256,-256c0,-140.8 115.2,-256 256,-256v170.66l213.33,-213.33l-213.33,-213.33v170.66c-187.73,0 -341.33,153.61 -341.33,341.34zM482.13,593.07c0,0 4.27,0 4.27,-4.27c0,-4.27 0,0 4.27,-4.27c4.27,-4.27 8.53,-4.26 8.53,-4.26h8.53c4.27,0 12.8,4.26 12.8,4.26l8.54,8.54l4.26,8.53v25.6c0,4.27 -4.26,12.8 -4.26,12.8l-8.54,8.53c-4.27,4.27 -8.53,4.27 -12.8,4.27c-8.53,0 -12.79,0 -17.06,-4.27c-4.27,-4.27 -8.54,-8.53 -8.54,-17.06h-34.13c0,8.53 0,12.8 4.27,21.33c4.27,8.53 4.27,12.8 12.8,17.07c8.53,4.27 17.06,4.26 21.33,8.53c4.27,4.27 12.8,4.27 21.33,4.27c8.53,0 17.07,0 25.6,-4.27c8.53,-4.27 12.81,-4.27 21.34,-12.8c8.53,-8.53 8.53,-17.06 12.8,-21.33c4.27,-4.27 4.26,-12.81 4.26,-21.34c0,-8.53 0.01,-17.07 -4.26,-25.6c-4.27,-8.53 -8.53,-17.06 -12.8,-21.33c-4.27,-4.27 -12.8,-8.53 -17.07,-12.8c-4.27,-4.27 -12.8,-4.27 -21.33,-4.27h-8.54c-4.27,0 -8.53,-4.27 -8.53,0c0,4.27 -4.27,0 -4.27,4.27c0,4.27 -4.26,4.27 -4.26,4.27l4.26,-38.4h72.54v-29.87h-102.4l-8.54,93.87z" fill="#000000" filter="url(#filter-VcQomMky)"/>
		</g>
	</g>
</svg>