<svg version="1.1" xmlns="http://www.w3.org/2000/svg" xmlns:xlink="http://www.w3.org/1999/xlink" viewBox="0,0,1024,1024">
	<!-- Color names: teamapps-color-1, teamapps-color-2, teamapps-color-3 -->
	<desc>functions icon - Licensed under Apache License v2.0 (http://www.apache.org/licenses/LICENSE-2.0) - Created with Iconfu.com - Derivative work of Material icons (Copyright Google Inc.)</desc>
	<defs>
		<clipPath id="clip-542BfHWK">
			<path d="M768,298.67h-298.67l213.34,213.33l-213.34,213.33h298.67v128h-512v-85.33l277.33,-256l-277.33,-256v-85.33h512z"/>
		</clipPath>
		<radialGradient cx="0" cy="0" r="1448.15" id="color-7isZ7mWS" gradientUnits="userSpaceOnUse">
			<stop offset="0.07" stop-color="#ffffff"/>
			<stop offset="0.75" stop-color="#000000"/>
		</radialGradient>
		<linearGradient x1="0" y1="1024" x2="1024" y2="0" id="color-PSvfaNgG" gradientUnits="userSpaceOnUse">
			<stop offset="0.2" stop-color="#000000"/>
			<stop offset="0.8" stop-color="#ffffff"/>
		</linearGradient>
		<filter id="filter-nDDotuSf" color-interpolation-filters="sRGB">
			<feOffset/>
		</filter>
		<filter id="filter-T9N2XN2z" x="0%" y="0%" width="100%" height="100%" color-interpolation-filters="sRGB">
			<feColorMatrix values="1 0 0 0 0 0 1 0 0 0 0 0 1 0 0 0 0 0 0.05 0" in="SourceGraphic"/>
			<feOffset dy="20"/>
			<feGaussianBlur stdDeviation="11" result="blur0"/>
			<feColorMatrix values="1 0 0 0 0 0 1 0 0 0 0 0 1 0 0 0 0 0 0.07 0" in="SourceGraphic"/>
			<feOffset dy="30"/>
			<feGaussianBlur stdDeviation="20" result="blur1"/>
			<feMerge>
				<feMergeNode in="blur0"/>
				<feMergeNode in="blur1"/>
			</feMerge>
		</filter>
		<mask id="mask-5lot8AeA">
			<rect fill="url(#color-PSvfaNgG)" x="256" y="170.67" width="512" height="682.66"/>
		</mask>
		<mask id="mask-iwOjKKnY">
			<path d="M768,298.67h-298.67l213.34,213.33l-213.34,213.33h298.67v128h-512v-85.33l277.33,-256l-277.33,-256v-85.33h512z" fill="#ffffff"/>
		</mask>
		<mask id="mask-rBENEDvQ">
			<path d="M768,298.67h-298.67l213.34,213.33l-213.34,213.33h298.67v128h-512v-85.33l277.33,-256l-277.33,-256v-85.33h512z" fill="url(#color-7isZ7mWS)"/>
		</mask>
	</defs>
	<g fill="none" fill-rule="nonzero" style="mix-blend-mode: normal">
		<g mask="url(#mask-iwOjKKnY)">
			<g color="#ffc107" class="teamapps-color-2">
				<rect x="256" y="170.67" width="512" height="682.66" fill="currentColor"/>
			</g>
			<g color="#e65100" class="teamapps-color-3" mask="url(#mask-5lot8AeA)">
				<rect x="256" y="170.67" width="512" height="682.66" fill="currentColor"/>
			</g>
		</g>
		<g filter="url(#filter-nDDotuSf)" mask="url(#mask-rBENEDvQ)">
			<g color="#fff59d" class="teamapps-color-1">
				<rect x="256" y="170.67" width="512" height="682.66" fill="currentColor"/>
			</g>
		</g>
		<g clip-path="url(#clip-542BfHWK)">
			<path d="M163,896.33v-868.66h698v868.66zM768,170.67h-512v85.33l277.33,256l-277.33,256v85.33h512v-128h-298.67l213.34,-213.33l-213.34,-213.33h298.67z" fill="#000000" filter="url(#filter-T9N2XN2z)"/>
		</g>
	</g>
</svg>