<svg version="1.1" xmlns="http://www.w3.org/2000/svg" xmlns:xlink="http://www.w3.org/1999/xlink" viewBox="0,0,1024,1024">
	<!-- Color names: teamapps-color-1, teamapps-color-2, teamapps-color-3 -->
	<desc>games icon - Licensed under Apache License v2.0 (http://www.apache.org/licenses/LICENSE-2.0) - Created with Iconfu.com - Derivative work of Material icons (Copyright Google Inc.)</desc>
	<defs>
		<clipPath id="clip-2NVq2MiJ">
			<path d="M512,448l-128,-128v-234.67h256v234.67zM448,512l-128,128h-234.67v-256h234.67zM512,576l128,128v234.67h-256v-234.67zM938.67,384v256h-234.67l-128,-128l128,-128z"/>
		</clipPath>
		<linearGradient x1="0" y1="1024" x2="1024" y2="0" id="color-QGUxts7E" gradientUnits="userSpaceOnUse">
			<stop offset="0.2" stop-color="#000000"/>
			<stop offset="0.8" stop-color="#ffffff"/>
		</linearGradient>
		<radialGradient cx="0" cy="0" r="1448.15" id="color-sKCTersj" gradientUnits="userSpaceOnUse">
			<stop offset="0.07" stop-color="#ffffff"/>
			<stop offset="0.75" stop-color="#000000"/>
		</radialGradient>
		<filter id="filter-3qZsDsjk" color-interpolation-filters="sRGB">
			<feOffset/>
		</filter>
		<filter id="filter-xelkUWIJ" x="0%" y="0%" width="100%" height="100%" color-interpolation-filters="sRGB">
			<feColorMatrix values="1 0 0 0 0 0 1 0 0 0 0 0 1 0 0 0 0 0 0.05 0" in="SourceGraphic"/>
			<feOffset dy="20"/>
			<feGaussianBlur stdDeviation="11" result="blur0"/>
			<feColorMatrix values="1 0 0 0 0 0 1 0 0 0 0 0 1 0 0 0 0 0 0.07 0" in="SourceGraphic"/>
			<feOffset dy="30"/>
			<feGaussianBlur stdDeviation="20" result="blur1"/>
			<feMerge>
				<feMergeNode in="blur0"/>
				<feMergeNode in="blur1"/>
			</feMerge>
		</filter>
		<mask id="mask-1z7GsQdf">
			<rect fill="url(#color-QGUxts7E)" x="85.33" y="85.33" width="853.34" height="853.34"/>
		</mask>
		<mask id="mask-J0kslam6">
			<path d="M512,448l-128,-128v-234.67h256v234.67zM448,512l-128,128h-234.67v-256h234.67zM512,576l128,128v234.67h-256v-234.67zM938.67,384v256h-234.67l-128,-128l128,-128z" fill="url(#color-sKCTersj)"/>
		</mask>
		<mask id="mask-KINVaxtJ">
			<path d="M512,448l-128,-128v-234.67h256v234.67zM448,512l-128,128h-234.67v-256h234.67zM512,576l128,128v234.67h-256v-234.67zM938.67,384v256h-234.67l-128,-128l128,-128z" fill="#ffffff"/>
		</mask>
	</defs>
	<g fill="none" fill-rule="nonzero" style="mix-blend-mode: normal">
		<g mask="url(#mask-KINVaxtJ)">
			<g color="#ffc107" class="teamapps-color-2">
				<rect x="85.33" y="85.33" width="853.34" height="853.34" fill="currentColor"/>
			</g>
			<g color="#e65100" class="teamapps-color-3" mask="url(#mask-1z7GsQdf)">
				<rect x="85.33" y="85.33" width="853.34" height="853.34" fill="currentColor"/>
			</g>
		</g>
		<g filter="url(#filter-3qZsDsjk)" mask="url(#mask-J0kslam6)">
			<g color="#fff59d" class="teamapps-color-1">
				<rect x="85.33" y="85.33" width="853.34" height="853.34" fill="currentColor"/>
			</g>
		</g>
		<g clip-path="url(#clip-2NVq2MiJ)">
			<path d="M-7.67,981.67v-1039.34h1039.34v1039.34zM640,320v-234.67h-256v234.67l128,128zM320,384h-234.67v256h234.67l128,-128zM384,704v234.67h256v-234.67l-128,-128zM704,384l-128,128l128,128h234.67v-256z" fill="#000000" filter="url(#filter-xelkUWIJ)"/>
		</g>
	</g>
</svg>