<svg version="1.1" xmlns="http://www.w3.org/2000/svg" xmlns:xlink="http://www.w3.org/1999/xlink" viewBox="0,0,1024,1024">
	<!-- Color names: teamapps-color-1, teamapps-color-2, teamapps-color-3 -->
	<desc>grain icon - Licensed under Apache License v2.0 (http://www.apache.org/licenses/LICENSE-2.0) - Created with Iconfu.com - Derivative work of Material icons (Copyright Google Inc.)</desc>
	<defs>
		<clipPath id="clip-SOlXgOD5">
			<path d="M341.33,426.67c0,46.93 -38.4,85.33 -85.33,85.33c-46.93,0 -85.33,-38.4 -85.33,-85.33c0,-46.93 38.4,-85.34 85.33,-85.34c46.93,0 85.33,38.41 85.33,85.34zM512,256c0,46.93 -38.4,85.33 -85.33,85.33c-46.93,0 -85.34,-38.4 -85.34,-85.33c0,-46.93 38.41,-85.33 85.34,-85.33c46.93,0 85.33,38.4 85.33,85.33zM512,597.33c0,46.93 -38.4,85.34 -85.33,85.34c-46.93,0 -85.34,-38.41 -85.34,-85.34c0,-46.93 38.41,-85.33 85.34,-85.33c46.93,0 85.33,38.4 85.33,85.33zM682.67,426.67c0,46.93 -38.41,85.33 -85.34,85.33c-46.93,0 -85.33,-38.4 -85.33,-85.33c0,-46.93 38.4,-85.34 85.33,-85.34c46.93,0 85.34,38.41 85.34,85.34zM341.33,768c0,46.93 -38.4,85.33 -85.33,85.33c-46.93,0 -85.33,-38.4 -85.33,-85.33c0,-46.93 38.4,-85.33 85.33,-85.33c46.93,0 85.33,38.4 85.33,85.33zM682.67,256c0,-46.93 38.4,-85.33 85.33,-85.33c46.93,0 85.33,38.4 85.33,85.33c0,46.93 -38.4,85.33 -85.33,85.33c-46.93,0 -85.33,-38.4 -85.33,-85.33zM682.67,768c0,46.93 -38.41,85.33 -85.34,85.33c-46.93,0 -85.33,-38.4 -85.33,-85.33c0,-46.93 38.4,-85.33 85.33,-85.33c46.93,0 85.34,38.4 85.34,85.33zM853.33,597.33c0,46.93 -38.4,85.34 -85.33,85.34c-46.93,0 -85.33,-38.41 -85.33,-85.34c0,-46.93 38.4,-85.33 85.33,-85.33c46.93,0 85.33,38.4 85.33,85.33z"/>
		</clipPath>
		<radialGradient cx="0" cy="0" r="1448.15" id="color-Bnmu6ig3" gradientUnits="userSpaceOnUse">
			<stop offset="0.07" stop-color="#ffffff"/>
			<stop offset="0.75" stop-color="#000000"/>
		</radialGradient>
		<linearGradient x1="0" y1="1024" x2="1024" y2="0" id="color-ebsirZV2" gradientUnits="userSpaceOnUse">
			<stop offset="0.2" stop-color="#000000"/>
			<stop offset="0.8" stop-color="#ffffff"/>
		</linearGradient>
		<filter id="filter-uMzpmqp4" x="0%" y="0%" width="100%" height="100%" color-interpolation-filters="sRGB">
			<feColorMatrix values="1 0 0 0 0 0 1 0 0 0 0 0 1 0 0 0 0 0 0.05 0" in="SourceGraphic"/>
			<feOffset dy="20"/>
			<feGaussianBlur stdDeviation="11" result="blur0"/>
			<feColorMatrix values="1 0 0 0 0 0 1 0 0 0 0 0 1 0 0 0 0 0 0.07 0" in="SourceGraphic"/>
			<feOffset dy="30"/>
			<feGaussianBlur stdDeviation="20" result="blur1"/>
			<feMerge>
				<feMergeNode in="blur0"/>
				<feMergeNode in="blur1"/>
			</feMerge>
		</filter>
		<filter id="filter-ws1OGbFz" color-interpolation-filters="sRGB">
			<feOffset/>
		</filter>
		<mask id="mask-Tb8BvYSC">
			<rect fill="url(#color-ebsirZV2)" x="170.67" y="170.67" width="682.66" height="682.66"/>
		</mask>
		<mask id="mask-XdksJw0s">
			<path d="M341.33,426.67c0,46.93 -38.4,85.33 -85.33,85.33c-46.93,0 -85.33,-38.4 -85.33,-85.33c0,-46.93 38.4,-85.34 85.33,-85.34c46.93,0 85.33,38.41 85.33,85.34zM512,256c0,46.93 -38.4,85.33 -85.33,85.33c-46.93,0 -85.34,-38.4 -85.34,-85.33c0,-46.93 38.41,-85.33 85.34,-85.33c46.93,0 85.33,38.4 85.33,85.33zM512,597.33c0,46.93 -38.4,85.34 -85.33,85.34c-46.93,0 -85.34,-38.41 -85.34,-85.34c0,-46.93 38.41,-85.33 85.34,-85.33c46.93,0 85.33,38.4 85.33,85.33zM682.67,426.67c0,46.93 -38.41,85.33 -85.34,85.33c-46.93,0 -85.33,-38.4 -85.33,-85.33c0,-46.93 38.4,-85.34 85.33,-85.34c46.93,0 85.34,38.41 85.34,85.34zM341.33,768c0,46.93 -38.4,85.33 -85.33,85.33c-46.93,0 -85.33,-38.4 -85.33,-85.33c0,-46.93 38.4,-85.33 85.33,-85.33c46.93,0 85.33,38.4 85.33,85.33zM682.67,256c0,-46.93 38.4,-85.33 85.33,-85.33c46.93,0 85.33,38.4 85.33,85.33c0,46.93 -38.4,85.33 -85.33,85.33c-46.93,0 -85.33,-38.4 -85.33,-85.33zM682.67,768c0,46.93 -38.41,85.33 -85.34,85.33c-46.93,0 -85.33,-38.4 -85.33,-85.33c0,-46.93 38.4,-85.33 85.33,-85.33c46.93,0 85.34,38.4 85.34,85.33zM853.33,597.33c0,46.93 -38.4,85.34 -85.33,85.34c-46.93,0 -85.33,-38.41 -85.33,-85.34c0,-46.93 38.4,-85.33 85.33,-85.33c46.93,0 85.33,38.4 85.33,85.33z" fill="#ffffff"/>
		</mask>
		<mask id="mask-ZTNkoM0x">
			<path d="M341.33,426.67c0,46.93 -38.4,85.33 -85.33,85.33c-46.93,0 -85.33,-38.4 -85.33,-85.33c0,-46.93 38.4,-85.34 85.33,-85.34c46.93,0 85.33,38.41 85.33,85.34zM512,256c0,46.93 -38.4,85.33 -85.33,85.33c-46.93,0 -85.34,-38.4 -85.34,-85.33c0,-46.93 38.41,-85.33 85.34,-85.33c46.93,0 85.33,38.4 85.33,85.33zM512,597.33c0,46.93 -38.4,85.34 -85.33,85.34c-46.93,0 -85.34,-38.41 -85.34,-85.34c0,-46.93 38.41,-85.33 85.34,-85.33c46.93,0 85.33,38.4 85.33,85.33zM682.67,426.67c0,46.93 -38.41,85.33 -85.34,85.33c-46.93,0 -85.33,-38.4 -85.33,-85.33c0,-46.93 38.4,-85.34 85.33,-85.34c46.93,0 85.34,38.41 85.34,85.34zM341.33,768c0,46.93 -38.4,85.33 -85.33,85.33c-46.93,0 -85.33,-38.4 -85.33,-85.33c0,-46.93 38.4,-85.33 85.33,-85.33c46.93,0 85.33,38.4 85.33,85.33zM682.67,256c0,-46.93 38.4,-85.33 85.33,-85.33c46.93,0 85.33,38.4 85.33,85.33c0,46.93 -38.4,85.33 -85.33,85.33c-46.93,0 -85.33,-38.4 -85.33,-85.33zM682.67,768c0,46.93 -38.41,85.33 -85.34,85.33c-46.93,0 -85.33,-38.4 -85.33,-85.33c0,-46.93 38.4,-85.33 85.33,-85.33c46.93,0 85.34,38.4 85.34,85.33zM853.33,597.33c0,46.93 -38.4,85.34 -85.33,85.34c-46.93,0 -85.33,-38.41 -85.33,-85.34c0,-46.93 38.4,-85.33 85.33,-85.33c46.93,0 85.33,38.4 85.33,85.33z" fill="url(#color-Bnmu6ig3)"/>
		</mask>
	</defs>
	<g fill="none" fill-rule="nonzero" style="mix-blend-mode: normal">
		<g mask="url(#mask-XdksJw0s)">
			<g color="#ffc107" class="teamapps-color-2">
				<rect x="170.67" y="170.67" width="682.66" height="682.66" fill="currentColor"/>
			</g>
			<g color="#e65100" class="teamapps-color-3" mask="url(#mask-Tb8BvYSC)">
				<rect x="170.67" y="170.67" width="682.66" height="682.66" fill="currentColor"/>
			</g>
		</g>
		<g filter="url(#filter-ws1OGbFz)" mask="url(#mask-ZTNkoM0x)">
			<g color="#fff59d" class="teamapps-color-1">
				<rect x="170.67" y="170.67" width="682.66" height="682.66" fill="currentColor"/>
			</g>
		</g>
		<g clip-path="url(#clip-SOlXgOD5)">
			<path d="M77.67,896.33v-868.66h868.66v868.66zM256,341.33c-46.93,0 -85.33,38.41 -85.33,85.34c0,46.93 38.4,85.33 85.33,85.33c46.93,0 85.33,-38.4 85.33,-85.33c0,-46.93 -38.4,-85.34 -85.33,-85.34zM426.67,170.67c-46.93,0 -85.34,38.4 -85.34,85.33c0,46.93 38.41,85.33 85.34,85.33c46.93,0 85.33,-38.4 85.33,-85.33c0,-46.93 -38.4,-85.33 -85.33,-85.33zM426.67,512c-46.93,0 -85.34,38.4 -85.34,85.33c0,46.93 38.41,85.34 85.34,85.34c46.93,0 85.33,-38.41 85.33,-85.34c0,-46.93 -38.4,-85.33 -85.33,-85.33zM597.33,341.33c-46.93,0 -85.33,38.41 -85.33,85.34c0,46.93 38.4,85.33 85.33,85.33c46.93,0 85.34,-38.4 85.34,-85.33c0,-46.93 -38.41,-85.34 -85.34,-85.34zM256,682.67c-46.93,0 -85.33,38.4 -85.33,85.33c0,46.93 38.4,85.33 85.33,85.33c46.93,0 85.33,-38.4 85.33,-85.33c0,-46.93 -38.4,-85.33 -85.33,-85.33zM768,341.33c46.93,0 85.33,-38.4 85.33,-85.33c0,-46.93 -38.4,-85.33 -85.33,-85.33c-46.93,0 -85.33,38.4 -85.33,85.33c0,46.93 38.4,85.33 85.33,85.33zM597.33,682.67c-46.93,0 -85.33,38.4 -85.33,85.33c0,46.93 38.4,85.33 85.33,85.33c46.93,0 85.34,-38.4 85.34,-85.33c0,-46.93 -38.41,-85.33 -85.34,-85.33zM768,512c-46.93,0 -85.33,38.4 -85.33,85.33c0,46.93 38.4,85.34 85.33,85.34c46.93,0 85.33,-38.41 85.33,-85.34c0,-46.93 -38.4,-85.33 -85.33,-85.33z" fill="#000000" filter="url(#filter-uMzpmqp4)"/>
		</g>
	</g>
</svg>