<svg version="1.1" xmlns="http://www.w3.org/2000/svg" xmlns:xlink="http://www.w3.org/1999/xlink" viewBox="0,0,1024,1024">
	<!-- Color names: teamapps-color-1, teamapps-color-2, teamapps-color-3 -->
	<desc>group_work icon - Licensed under Apache License v2.0 (http://www.apache.org/licenses/LICENSE-2.0) - Created with Iconfu.com - Derivative work of Material icons (Copyright Google Inc.)</desc>
	<defs>
		<clipPath id="clip-7QpJ93nn">
			<path d="M938.67,512c0,235.52 -191.15,426.67 -426.67,426.67c-235.52,0 -426.67,-191.15 -426.67,-426.67c0,-235.52 191.15,-426.67 426.67,-426.67c235.52,0 426.67,191.15 426.67,426.67zM448,640c0,-58.88 -47.79,-106.67 -106.67,-106.67c-58.88,0 -106.66,47.79 -106.66,106.67c0,58.88 47.78,106.67 106.66,106.67c58.88,0 106.67,-47.79 106.67,-106.67zM512,448c58.88,0 106.67,-47.79 106.67,-106.67c0,-58.88 -47.79,-106.66 -106.67,-106.66c-58.88,0 -106.67,47.78 -106.67,106.66c0,58.88 47.79,106.67 106.67,106.67zM789.33,640c0,-58.88 -47.78,-106.67 -106.66,-106.67c-58.88,0 -106.67,47.79 -106.67,106.67c0,58.88 47.79,106.67 106.67,106.67c58.88,0 106.66,-47.79 106.66,-106.67z"/>
		</clipPath>
		<linearGradient x1="0" y1="1024" x2="1024" y2="0" id="color-OCd52TIV" gradientUnits="userSpaceOnUse">
			<stop offset="0.2" stop-color="#000000"/>
			<stop offset="0.8" stop-color="#ffffff"/>
		</linearGradient>
		<radialGradient cx="0" cy="0" r="1448.15" id="color-RoQH2sdJ" gradientUnits="userSpaceOnUse">
			<stop offset="0.07" stop-color="#ffffff"/>
			<stop offset="0.75" stop-color="#000000"/>
		</radialGradient>
		<filter id="filter-CgxHmw5R" x="0%" y="0%" width="100%" height="100%" color-interpolation-filters="sRGB">
			<feColorMatrix values="1 0 0 0 0 0 1 0 0 0 0 0 1 0 0 0 0 0 0.05 0" in="SourceGraphic"/>
			<feOffset dy="20"/>
			<feGaussianBlur stdDeviation="11" result="blur0"/>
			<feColorMatrix values="1 0 0 0 0 0 1 0 0 0 0 0 1 0 0 0 0 0 0.07 0" in="SourceGraphic"/>
			<feOffset dy="30"/>
			<feGaussianBlur stdDeviation="20" result="blur1"/>
			<feMerge>
				<feMergeNode in="blur0"/>
				<feMergeNode in="blur1"/>
			</feMerge>
		</filter>
		<filter id="filter-sw3mmlX8" color-interpolation-filters="sRGB">
			<feOffset/>
		</filter>
		<mask id="mask-AEpz0PYn">
			<path d="M938.67,512c0,235.52 -191.15,426.67 -426.67,426.67c-235.52,0 -426.67,-191.15 -426.67,-426.67c0,-235.52 191.15,-426.67 426.67,-426.67c235.52,0 426.67,191.15 426.67,426.67zM448,640c0,-58.88 -47.79,-106.67 -106.67,-106.67c-58.88,0 -106.66,47.79 -106.66,106.67c0,58.88 47.78,106.67 106.66,106.67c58.88,0 106.67,-47.79 106.67,-106.67zM512,448c58.88,0 106.67,-47.79 106.67,-106.67c0,-58.88 -47.79,-106.66 -106.67,-106.66c-58.88,0 -106.67,47.78 -106.67,106.66c0,58.88 47.79,106.67 106.67,106.67zM789.33,640c0,-58.88 -47.78,-106.67 -106.66,-106.67c-58.88,0 -106.67,47.79 -106.67,106.67c0,58.88 47.79,106.67 106.67,106.67c58.88,0 106.66,-47.79 106.66,-106.67z" fill="url(#color-RoQH2sdJ)"/>
		</mask>
		<mask id="mask-alNJoLbK">
			<path d="M938.67,512c0,235.52 -191.15,426.67 -426.67,426.67c-235.52,0 -426.67,-191.15 -426.67,-426.67c0,-235.52 191.15,-426.67 426.67,-426.67c235.52,0 426.67,191.15 426.67,426.67zM448,640c0,-58.88 -47.79,-106.67 -106.67,-106.67c-58.88,0 -106.66,47.79 -106.66,106.67c0,58.88 47.78,106.67 106.66,106.67c58.88,0 106.67,-47.79 106.67,-106.67zM512,448c58.88,0 106.67,-47.79 106.67,-106.67c0,-58.88 -47.79,-106.66 -106.67,-106.66c-58.88,0 -106.67,47.78 -106.67,106.66c0,58.88 47.79,106.67 106.67,106.67zM789.33,640c0,-58.88 -47.78,-106.67 -106.66,-106.67c-58.88,0 -106.67,47.79 -106.67,106.67c0,58.88 47.79,106.67 106.67,106.67c58.88,0 106.66,-47.79 106.66,-106.67z" fill="#ffffff"/>
		</mask>
		<mask id="mask-Xz2n9bfo">
			<rect fill="url(#color-OCd52TIV)" x="85.33" y="85.33" width="853.34" height="853.34"/>
		</mask>
	</defs>
	<g fill="none" fill-rule="nonzero" style="mix-blend-mode: normal">
		<g mask="url(#mask-alNJoLbK)">
			<g color="#ffc107" class="teamapps-color-2">
				<rect x="85.33" y="85.33" width="853.34" height="853.34" fill="currentColor"/>
			</g>
			<g color="#e65100" class="teamapps-color-3" mask="url(#mask-Xz2n9bfo)">
				<rect x="85.33" y="85.33" width="853.34" height="853.34" fill="currentColor"/>
			</g>
		</g>
		<g filter="url(#filter-sw3mmlX8)" mask="url(#mask-AEpz0PYn)">
			<g color="#fff59d" class="teamapps-color-1">
				<rect x="85.33" y="85.33" width="853.34" height="853.34" fill="currentColor"/>
			</g>
		</g>
		<g clip-path="url(#clip-7QpJ93nn)">
			<path d="M-7.67,981.67v-1039.34h1039.34v1039.34zM512,85.33c-235.52,0 -426.67,191.15 -426.67,426.67c0,235.52 191.15,426.67 426.67,426.67c235.52,0 426.67,-191.15 426.67,-426.67c0,-235.52 -191.15,-426.67 -426.67,-426.67zM341.33,746.67c-58.88,0 -106.66,-47.79 -106.66,-106.67c0,-58.88 47.78,-106.67 106.66,-106.67c58.88,0 106.67,47.79 106.67,106.67c0,58.88 -47.79,106.67 -106.67,106.67zM405.33,341.33c0,-58.88 47.79,-106.66 106.67,-106.66c58.88,0 106.67,47.78 106.67,106.66c0,58.88 -47.79,106.67 -106.67,106.67c-58.88,0 -106.67,-47.79 -106.67,-106.67zM682.67,746.67c-58.88,0 -106.67,-47.79 -106.67,-106.67c0,-58.88 47.79,-106.67 106.67,-106.67c58.88,0 106.66,47.79 106.66,106.67c0,58.88 -47.78,106.67 -106.66,106.67z" fill="#000000" filter="url(#filter-CgxHmw5R)"/>
		</g>
	</g>
</svg>