<svg version="1.1" xmlns="http://www.w3.org/2000/svg" xmlns:xlink="http://www.w3.org/1999/xlink" viewBox="0,0,1024,1024">
	<!-- Color names: teamapps-color-1, teamapps-color-2, teamapps-color-3 -->
	<desc>headset icon - Licensed under Apache License v2.0 (http://www.apache.org/licenses/LICENSE-2.0) - Created with Iconfu.com - Derivative work of Material icons (Copyright Google Inc.)</desc>
	<defs>
		<clipPath id="clip-fzbWPOk4">
			<path d="M896,426.67v298.66c0,70.83 -57.17,128 -128,128h-128v-341.33h170.67v-85.33c0,-165.12 -133.55,-298.67 -298.67,-298.67c-165.12,0 -298.67,133.55 -298.67,298.67v85.33h170.67v341.33h-128c-70.83,0 -128,-57.17 -128,-128v-298.66c0,-212.05 171.95,-384 384,-384c212.05,0 384,171.95 384,384z"/>
		</clipPath>
		<linearGradient x1="0" y1="1024" x2="1024" y2="0" id="color-t2SRwOAh" gradientUnits="userSpaceOnUse">
			<stop offset="0.2" stop-color="#000000"/>
			<stop offset="0.8" stop-color="#ffffff"/>
		</linearGradient>
		<radialGradient cx="0" cy="0" r="1448.15" id="color-TWmmchVZ" gradientUnits="userSpaceOnUse">
			<stop offset="0.07" stop-color="#ffffff"/>
			<stop offset="0.75" stop-color="#000000"/>
		</radialGradient>
		<filter id="filter-FksEG97O" x="0%" y="0%" width="100%" height="100%" color-interpolation-filters="sRGB">
			<feColorMatrix values="1 0 0 0 0 0 1 0 0 0 0 0 1 0 0 0 0 0 0.05 0" in="SourceGraphic"/>
			<feOffset dy="20"/>
			<feGaussianBlur stdDeviation="11" result="blur0"/>
			<feColorMatrix values="1 0 0 0 0 0 1 0 0 0 0 0 1 0 0 0 0 0 0.07 0" in="SourceGraphic"/>
			<feOffset dy="30"/>
			<feGaussianBlur stdDeviation="20" result="blur1"/>
			<feMerge>
				<feMergeNode in="blur0"/>
				<feMergeNode in="blur1"/>
			</feMerge>
		</filter>
		<filter id="filter-P1UeneWI" color-interpolation-filters="sRGB">
			<feOffset/>
		</filter>
		<mask id="mask-1ie8WESN">
			<rect fill="url(#color-t2SRwOAh)" x="128" y="42.67" width="768" height="810.66"/>
		</mask>
		<mask id="mask-jz7YHpQN">
			<path d="M896,426.67v298.66c0,70.83 -57.17,128 -128,128h-128v-341.33h170.67v-85.33c0,-165.12 -133.55,-298.67 -298.67,-298.67c-165.12,0 -298.67,133.55 -298.67,298.67v85.33h170.67v341.33h-128c-70.83,0 -128,-57.17 -128,-128v-298.66c0,-212.05 171.95,-384 384,-384c212.05,0 384,171.95 384,384z" fill="url(#color-TWmmchVZ)"/>
		</mask>
		<mask id="mask-mQjhajEz">
			<path d="M896,426.67v298.66c0,70.83 -57.17,128 -128,128h-128v-341.33h170.67v-85.33c0,-165.12 -133.55,-298.67 -298.67,-298.67c-165.12,0 -298.67,133.55 -298.67,298.67v85.33h170.67v341.33h-128c-70.83,0 -128,-57.17 -128,-128v-298.66c0,-212.05 171.95,-384 384,-384c212.05,0 384,171.95 384,384z" fill="#ffffff"/>
		</mask>
	</defs>
	<g fill="none" fill-rule="nonzero" style="mix-blend-mode: normal">
		<g mask="url(#mask-mQjhajEz)">
			<g color="#ffc107" class="teamapps-color-2">
				<rect x="128" y="42.67" width="768" height="810.66" fill="currentColor"/>
			</g>
			<g color="#e65100" class="teamapps-color-3" mask="url(#mask-1ie8WESN)">
				<rect x="128" y="42.67" width="768" height="810.66" fill="currentColor"/>
			</g>
		</g>
		<g filter="url(#filter-P1UeneWI)" mask="url(#mask-jz7YHpQN)">
			<g color="#fff59d" class="teamapps-color-1">
				<rect x="128" y="42.67" width="768" height="810.66" fill="currentColor"/>
			</g>
		</g>
		<g clip-path="url(#clip-fzbWPOk4)">
			<path d="M35,896.33v-996.66h954v996.66zM512,42.67c-212.05,0 -384,171.95 -384,384v298.66c0,70.83 57.17,128 128,128h128v-341.33h-170.67v-85.33c0,-165.12 133.55,-298.67 298.67,-298.67c165.12,0 298.67,133.55 298.67,298.67v85.33h-170.67v341.33h128c70.83,0 128,-57.17 128,-128v-298.66c0,-212.05 -171.95,-384 -384,-384z" fill="#000000" filter="url(#filter-FksEG97O)"/>
		</g>
	</g>
</svg>