<svg version="1.1" xmlns="http://www.w3.org/2000/svg" xmlns:xlink="http://www.w3.org/1999/xlink" viewBox="0,0,1024,1024">
	<!-- Color names: teamapps-color-1, teamapps-color-2, teamapps-color-3 -->
	<desc>highlight icon - Licensed under Apache License v2.0 (http://www.apache.org/licenses/LICENSE-2.0) - Created with Iconfu.com - Derivative work of Material icons (Copyright Google Inc.)</desc>
	<defs>
		<clipPath id="clip-OuZ8DIo3">
			<path d="M256,384h512v213.33l-128,128v213.34h-256v-213.34l-128,-128zM723.63,280.96l90.58,-90.45l60.33,60.33l-90.54,90.49zM149.33,250.67l60.33,-60.38l90.46,90.54l-60.33,60.38zM469.33,85.33h85.34v128h-85.34z"/>
		</clipPath>
		<radialGradient cx="0" cy="0" r="1448.15" id="color-AAkV7r3d" gradientUnits="userSpaceOnUse">
			<stop offset="0.07" stop-color="#ffffff"/>
			<stop offset="0.75" stop-color="#000000"/>
		</radialGradient>
		<linearGradient x1="0" y1="1024" x2="1024" y2="0" id="color-QqnieXsB" gradientUnits="userSpaceOnUse">
			<stop offset="0.2" stop-color="#000000"/>
			<stop offset="0.8" stop-color="#ffffff"/>
		</linearGradient>
		<filter id="filter-cO59G8hQ" x="0%" y="0%" width="100%" height="100%" color-interpolation-filters="sRGB">
			<feColorMatrix values="1 0 0 0 0 0 1 0 0 0 0 0 1 0 0 0 0 0 0.05 0" in="SourceGraphic"/>
			<feOffset dy="20"/>
			<feGaussianBlur stdDeviation="11" result="blur0"/>
			<feColorMatrix values="1 0 0 0 0 0 1 0 0 0 0 0 1 0 0 0 0 0 0.07 0" in="SourceGraphic"/>
			<feOffset dy="30"/>
			<feGaussianBlur stdDeviation="20" result="blur1"/>
			<feMerge>
				<feMergeNode in="blur0"/>
				<feMergeNode in="blur1"/>
			</feMerge>
		</filter>
		<filter id="filter-ZJuaBkIE" color-interpolation-filters="sRGB">
			<feOffset/>
		</filter>
		<mask id="mask-5P9FYigE">
			<path d="M256,384h512v213.33l-128,128v213.34h-256v-213.34l-128,-128zM723.63,280.96l90.58,-90.45l60.33,60.33l-90.54,90.49zM149.33,250.67l60.33,-60.38l90.46,90.54l-60.33,60.38zM469.33,85.33h85.34v128h-85.34z" fill="url(#color-AAkV7r3d)"/>
		</mask>
		<mask id="mask-e6pcdX4I">
			<path d="M256,384h512v213.33l-128,128v213.34h-256v-213.34l-128,-128zM723.63,280.96l90.58,-90.45l60.33,60.33l-90.54,90.49zM149.33,250.67l60.33,-60.38l90.46,90.54l-60.33,60.38zM469.33,85.33h85.34v128h-85.34z" fill="#ffffff"/>
		</mask>
		<mask id="mask-umEGSVza">
			<rect fill="url(#color-QqnieXsB)" x="149.33" y="85.33" width="725.21" height="853.34"/>
		</mask>
	</defs>
	<g fill="none" fill-rule="nonzero" style="mix-blend-mode: normal">
		<g mask="url(#mask-e6pcdX4I)">
			<g color="#ffc107" class="teamapps-color-2">
				<rect x="149.33" y="85.33" width="725.21" height="853.34" fill="currentColor"/>
			</g>
			<g color="#e65100" class="teamapps-color-3" mask="url(#mask-umEGSVza)">
				<rect x="149.33" y="85.33" width="725.21" height="853.34" fill="currentColor"/>
			</g>
		</g>
		<g filter="url(#filter-ZJuaBkIE)" mask="url(#mask-5P9FYigE)">
			<g color="#fff59d" class="teamapps-color-1">
				<rect x="149.33" y="85.33" width="725.21" height="853.34" fill="currentColor"/>
			</g>
		</g>
		<g clip-path="url(#clip-OuZ8DIo3)">
			<path d="M56.33,981.67v-1039.34h911.21v1039.34zM256,597.33l128,128v213.34h256v-213.34l128,-128v-213.33h-512zM784,341.33l90.54,-90.49l-60.33,-60.33l-90.58,90.45zM239.79,341.21l60.33,-60.38l-90.46,-90.54l-60.33,60.38zM469.33,213.33h85.34v-128h-85.34z" fill="#000000" filter="url(#filter-cO59G8hQ)"/>
		</g>
	</g>
</svg>