<svg version="1.1" xmlns="http://www.w3.org/2000/svg" xmlns:xlink="http://www.w3.org/1999/xlink" viewBox="0,0,1024,1024">
	<!-- Color names: teamapps-color-1, teamapps-color-2, teamapps-color-3 -->
	<desc>hot_tub icon - Licensed under Apache License v2.0 (http://www.apache.org/licenses/LICENSE-2.0) - Created with Iconfu.com - Derivative work of Material icons (Copyright Google Inc.)</desc>
	<defs>
		<clipPath id="clip-A6iYBM0j">
			<path d="M213.33,256c0,-47.13 38.21,-85.33 85.34,-85.33c47.13,0 85.33,38.2 85.33,85.33c0,47.13 -38.2,85.33 -85.33,85.33c-47.13,0 -85.34,-38.2 -85.34,-85.33zM938.67,512v341.33c0,46.93 -38.41,85.34 -85.34,85.34h-682.66c-46.93,0 -85.34,-38.41 -85.34,-85.34v-341.33h128v-32c0,-52.91 43.09,-96 96,-96h1.28c14.51,0 28.59,3.84 40.96,9.81c11.09,5.12 21.33,12.38 29.44,21.34l59.74,66.13c9.81,11.09 21.75,21.33 34.98,30.72zM851.2,408.32l-2.56,18.35h-81.49l4.69,-25.18c6.4,-33.71 -4.27,-67.41 -28.59,-93.86l-2.98,-2.56c-43.95,-43.09 -64,-100.69 -55.47,-158.72l2.56,-18.35h80.64l-3.84,25.17c-6.4,33.71 4.27,67.42 28.59,93.87l2.98,2.99c43.95,42.67 64.43,100.26 55.47,158.29zM680.53,408.32l-2.56,18.35h-81.49l4.69,-25.18c6.4,-33.71 -4.26,-67.41 -28.58,-93.86l-2.99,-2.56c-43.95,-43.09 -64,-100.69 -55.47,-158.72l2.56,-18.35h80.64l-3.84,25.17c-6.4,33.71 4.27,67.42 28.59,93.87l2.99,2.99c43.95,42.67 64.42,100.26 55.46,158.29zM640,597.33h-85.33v256h85.33zM810.67,597.33h-85.34v256h85.34zM298.67,597.33h-85.34v256h85.34zM469.33,597.33h-85.33v256h85.33z"/>
		</clipPath>
		<radialGradient cx="0" cy="0" r="1448.15" id="color-NsThuI4b" gradientUnits="userSpaceOnUse">
			<stop offset="0.07" stop-color="#ffffff"/>
			<stop offset="0.75" stop-color="#000000"/>
		</radialGradient>
		<linearGradient x1="0" y1="1024" x2="1024" y2="0" id="color-zGnrBM8E" gradientUnits="userSpaceOnUse">
			<stop offset="0.2" stop-color="#000000"/>
			<stop offset="0.8" stop-color="#ffffff"/>
		</linearGradient>
		<filter id="filter-170VZFpQ" color-interpolation-filters="sRGB">
			<feOffset/>
		</filter>
		<filter id="filter-maCLd5LX" x="0%" y="0%" width="100%" height="100%" color-interpolation-filters="sRGB">
			<feColorMatrix values="1 0 0 0 0 0 1 0 0 0 0 0 1 0 0 0 0 0 0.05 0" in="SourceGraphic"/>
			<feOffset dy="20"/>
			<feGaussianBlur stdDeviation="11" result="blur0"/>
			<feColorMatrix values="1 0 0 0 0 0 1 0 0 0 0 0 1 0 0 0 0 0 0.07 0" in="SourceGraphic"/>
			<feOffset dy="30"/>
			<feGaussianBlur stdDeviation="20" result="blur1"/>
			<feMerge>
				<feMergeNode in="blur0"/>
				<feMergeNode in="blur1"/>
			</feMerge>
		</filter>
		<mask id="mask-7UWwEyja">
			<path d="M213.33,256c0,-47.13 38.21,-85.33 85.34,-85.33c47.13,0 85.33,38.2 85.33,85.33c0,47.13 -38.2,85.33 -85.33,85.33c-47.13,0 -85.34,-38.2 -85.34,-85.33zM938.67,512v341.33c0,46.93 -38.41,85.34 -85.34,85.34h-682.66c-46.93,0 -85.34,-38.41 -85.34,-85.34v-341.33h128v-32c0,-52.91 43.09,-96 96,-96h1.28c14.51,0 28.59,3.84 40.96,9.81c11.09,5.12 21.33,12.38 29.44,21.34l59.74,66.13c9.81,11.09 21.75,21.33 34.98,30.72zM851.2,408.32l-2.56,18.35h-81.49l4.69,-25.18c6.4,-33.71 -4.27,-67.41 -28.59,-93.86l-2.98,-2.56c-43.95,-43.09 -64,-100.69 -55.47,-158.72l2.56,-18.35h80.64l-3.84,25.17c-6.4,33.71 4.27,67.42 28.59,93.87l2.98,2.99c43.95,42.67 64.43,100.26 55.47,158.29zM680.53,408.32l-2.56,18.35h-81.49l4.69,-25.18c6.4,-33.71 -4.26,-67.41 -28.58,-93.86l-2.99,-2.56c-43.95,-43.09 -64,-100.69 -55.47,-158.72l2.56,-18.35h80.64l-3.84,25.17c-6.4,33.71 4.27,67.42 28.59,93.87l2.99,2.99c43.95,42.67 64.42,100.26 55.46,158.29zM640,597.33h-85.33v256h85.33zM810.67,597.33h-85.34v256h85.34zM298.67,597.33h-85.34v256h85.34zM469.33,597.33h-85.33v256h85.33z" fill="#ffffff"/>
		</mask>
		<mask id="mask-Dhf41NzR">
			<rect fill="url(#color-zGnrBM8E)" x="85.33" y="128" width="853.34" height="810.67"/>
		</mask>
		<mask id="mask-uRKQFsSL">
			<path d="M213.33,256c0,-47.13 38.21,-85.33 85.34,-85.33c47.13,0 85.33,38.2 85.33,85.33c0,47.13 -38.2,85.33 -85.33,85.33c-47.13,0 -85.34,-38.2 -85.34,-85.33zM938.67,512v341.33c0,46.93 -38.41,85.34 -85.34,85.34h-682.66c-46.93,0 -85.34,-38.41 -85.34,-85.34v-341.33h128v-32c0,-52.91 43.09,-96 96,-96h1.28c14.51,0 28.59,3.84 40.96,9.81c11.09,5.12 21.33,12.38 29.44,21.34l59.74,66.13c9.81,11.09 21.75,21.33 34.98,30.72zM851.2,408.32l-2.56,18.35h-81.49l4.69,-25.18c6.4,-33.71 -4.27,-67.41 -28.59,-93.86l-2.98,-2.56c-43.95,-43.09 -64,-100.69 -55.47,-158.72l2.56,-18.35h80.64l-3.84,25.17c-6.4,33.71 4.27,67.42 28.59,93.87l2.98,2.99c43.95,42.67 64.43,100.26 55.47,158.29zM680.53,408.32l-2.56,18.35h-81.49l4.69,-25.18c6.4,-33.71 -4.26,-67.41 -28.58,-93.86l-2.99,-2.56c-43.95,-43.09 -64,-100.69 -55.47,-158.72l2.56,-18.35h80.64l-3.84,25.17c-6.4,33.71 4.27,67.42 28.59,93.87l2.99,2.99c43.95,42.67 64.42,100.26 55.46,158.29zM640,597.33h-85.33v256h85.33zM810.67,597.33h-85.34v256h85.34zM298.67,597.33h-85.34v256h85.34zM469.33,597.33h-85.33v256h85.33z" fill="url(#color-NsThuI4b)"/>
		</mask>
	</defs>
	<g fill="none" fill-rule="nonzero" style="mix-blend-mode: normal">
		<g mask="url(#mask-7UWwEyja)">
			<g color="#ffc107" class="teamapps-color-2">
				<rect x="85.33" y="128" width="853.34" height="810.67" fill="currentColor"/>
			</g>
			<g color="#e65100" class="teamapps-color-3" mask="url(#mask-Dhf41NzR)">
				<rect x="85.33" y="128" width="853.34" height="810.67" fill="currentColor"/>
			</g>
		</g>
		<g filter="url(#filter-170VZFpQ)" mask="url(#mask-uRKQFsSL)">
			<g color="#fff59d" class="teamapps-color-1">
				<rect x="85.33" y="128" width="853.34" height="810.67" fill="currentColor"/>
			</g>
		</g>
		<g clip-path="url(#clip-A6iYBM0j)">
			<path d="M-7.67,981.67v-996.67h1039.34v996.67zM298.67,341.33c47.13,0 85.33,-38.2 85.33,-85.33c0,-47.13 -38.2,-85.33 -85.33,-85.33c-47.13,0 -85.34,38.2 -85.34,85.33c0,47.13 38.21,85.33 85.34,85.33zM475.73,512c-13.23,-9.39 -25.17,-19.63 -34.98,-30.72l-59.74,-66.13c-8.11,-8.96 -18.35,-16.22 -29.44,-21.34c-12.37,-5.97 -26.45,-9.81 -40.96,-9.81h-1.28c-52.91,0 -96,43.09 -96,96v32h-128v341.33c0,46.93 38.41,85.34 85.34,85.34h682.66c46.93,0 85.34,-38.41 85.34,-85.34v-341.33zM795.73,250.03l-2.98,-2.99c-24.32,-26.45 -34.99,-60.16 -28.59,-93.87l3.84,-25.17h-80.64l-2.56,18.35c-8.53,58.03 11.52,115.63 55.47,158.72l2.98,2.56c24.32,26.45 34.99,60.15 28.59,93.86l-4.69,25.18h81.49l2.56,-18.35c8.96,-58.03 -11.52,-115.62 -55.47,-158.29zM625.07,250.03l-2.99,-2.99c-24.32,-26.45 -34.99,-60.16 -28.59,-93.87l3.84,-25.17h-80.64l-2.56,18.35c-8.53,58.03 11.52,115.63 55.47,158.72l2.99,2.56c24.32,26.45 34.98,60.15 28.58,93.86l-4.69,25.18h81.49l2.56,-18.35c8.96,-58.03 -11.51,-115.62 -55.46,-158.29zM640,853.33h-85.33v-256h85.33zM810.67,853.33h-85.34v-256h85.34zM298.67,853.33h-85.34v-256h85.34zM469.33,853.33h-85.33v-256h85.33z" fill="#000000" filter="url(#filter-maCLd5LX)"/>
		</g>
	</g>
</svg>