<svg version="1.1" xmlns="http://www.w3.org/2000/svg" xmlns:xlink="http://www.w3.org/1999/xlink" viewBox="0,0,1024,1024">
	<!-- Color names: teamapps-color-1, teamapps-color-2, teamapps-color-3 -->
	<desc>indeterminate_check_box icon - Licensed under Apache License v2.0 (http://www.apache.org/licenses/LICENSE-2.0) - Created with Iconfu.com - Derivative work of Material icons (Copyright Google Inc.)</desc>
	<defs>
		<clipPath id="clip-pedabpfu">
			<path d="M896,213.33v597.34c0,46.93 -38.4,85.33 -85.33,85.33h-597.34c-46.93,0 -85.33,-38.4 -85.33,-85.33v-597.34c0,-46.93 38.4,-85.33 85.33,-85.33h597.34c46.93,0 85.33,38.4 85.33,85.33zM725.33,469.33h-426.66v85.34h426.66z"/>
		</clipPath>
		<linearGradient x1="0" y1="1024" x2="1024" y2="0" id="color-Fpel6a6a" gradientUnits="userSpaceOnUse">
			<stop offset="0.2" stop-color="#000000"/>
			<stop offset="0.8" stop-color="#ffffff"/>
		</linearGradient>
		<radialGradient cx="0" cy="0" r="1448.15" id="color-KGlXxyON" gradientUnits="userSpaceOnUse">
			<stop offset="0.07" stop-color="#ffffff"/>
			<stop offset="0.75" stop-color="#000000"/>
		</radialGradient>
		<filter id="filter-l2e0amuc" x="0%" y="0%" width="100%" height="100%" color-interpolation-filters="sRGB">
			<feColorMatrix values="1 0 0 0 0 0 1 0 0 0 0 0 1 0 0 0 0 0 0.05 0" in="SourceGraphic"/>
			<feOffset dy="20"/>
			<feGaussianBlur stdDeviation="11" result="blur0"/>
			<feColorMatrix values="1 0 0 0 0 0 1 0 0 0 0 0 1 0 0 0 0 0 0.07 0" in="SourceGraphic"/>
			<feOffset dy="30"/>
			<feGaussianBlur stdDeviation="20" result="blur1"/>
			<feMerge>
				<feMergeNode in="blur0"/>
				<feMergeNode in="blur1"/>
			</feMerge>
		</filter>
		<filter id="filter-pXGEjf2M" color-interpolation-filters="sRGB">
			<feOffset/>
		</filter>
		<mask id="mask-hlLDkpZi">
			<rect fill="url(#color-Fpel6a6a)" x="128" y="128" width="768" height="768"/>
		</mask>
		<mask id="mask-KLK4FB6a">
			<path d="M896,213.33v597.34c0,46.93 -38.4,85.33 -85.33,85.33h-597.34c-46.93,0 -85.33,-38.4 -85.33,-85.33v-597.34c0,-46.93 38.4,-85.33 85.33,-85.33h597.34c46.93,0 85.33,38.4 85.33,85.33zM725.33,469.33h-426.66v85.34h426.66z" fill="#ffffff"/>
		</mask>
		<mask id="mask-wd0RFiVx">
			<path d="M896,213.33v597.34c0,46.93 -38.4,85.33 -85.33,85.33h-597.34c-46.93,0 -85.33,-38.4 -85.33,-85.33v-597.34c0,-46.93 38.4,-85.33 85.33,-85.33h597.34c46.93,0 85.33,38.4 85.33,85.33zM725.33,469.33h-426.66v85.34h426.66z" fill="url(#color-KGlXxyON)"/>
		</mask>
	</defs>
	<g fill="none" fill-rule="nonzero" style="mix-blend-mode: normal">
		<g mask="url(#mask-KLK4FB6a)">
			<g color="#ffc107" class="teamapps-color-2">
				<rect x="128" y="128" width="768" height="768" fill="currentColor"/>
			</g>
			<g color="#e65100" class="teamapps-color-3" mask="url(#mask-hlLDkpZi)">
				<rect x="128" y="128" width="768" height="768" fill="currentColor"/>
			</g>
		</g>
		<g filter="url(#filter-pXGEjf2M)" mask="url(#mask-wd0RFiVx)">
			<g color="#fff59d" class="teamapps-color-1">
				<rect x="128" y="128" width="768" height="768" fill="currentColor"/>
			</g>
		</g>
		<g clip-path="url(#clip-pedabpfu)">
			<path d="M35,939v-954h954v954zM810.67,128h-597.34c-46.93,0 -85.33,38.4 -85.33,85.33v597.34c0,46.93 38.4,85.33 85.33,85.33h597.34c46.93,0 85.33,-38.4 85.33,-85.33v-597.34c0,-46.93 -38.4,-85.33 -85.33,-85.33zM725.33,554.67h-426.66v-85.34h426.66z" fill="#000000" filter="url(#filter-l2e0amuc)"/>
		</g>
	</g>
</svg>