<svg version="1.1" xmlns="http://www.w3.org/2000/svg" xmlns:xlink="http://www.w3.org/1999/xlink" viewBox="0,0,1024,1024">
	<!-- Color names: teamapps-color-1, teamapps-color-2, teamapps-color-3 -->
	<desc>keyboard_hide icon - Licensed under Apache License v2.0 (http://www.apache.org/licenses/LICENSE-2.0) - Created with Iconfu.com - Derivative work of Material icons (Copyright Google Inc.)</desc>
	<defs>
		<clipPath id="clip-9oC9hRMT">
			<path d="M938.67,213.33v426.67c0,46.93 -38.41,85.33 -85.34,85.33h-682.66c-46.93,0 -85.34,-38.4 -85.34,-85.33l0.43,-426.67c0,-46.93 37.98,-85.33 84.91,-85.33h682.66c46.93,0 85.34,38.4 85.34,85.33zM341.33,810.67h341.34l-170.67,170.66zM682.67,554.67h-341.34v85.33h341.34zM682.67,384h-85.34v85.33h85.34zM682.67,256h-85.34v85.33h85.34zM810.67,384h-85.34v85.33h85.34zM810.67,256h-85.34v85.33h85.34zM469.33,341.33h85.34v-85.33h-85.34zM469.33,469.33h85.34v-85.33h-85.34zM341.33,341.33h85.34v-85.33h-85.34zM341.33,469.33h85.34v-85.33h-85.34zM298.67,384h-85.34v85.33h85.34zM298.67,256h-85.34v85.33h85.34z"/>
		</clipPath>
		<radialGradient cx="0" cy="0" r="1448.15" id="color-PI3XU8Jt" gradientUnits="userSpaceOnUse">
			<stop offset="0.07" stop-color="#ffffff"/>
			<stop offset="0.75" stop-color="#000000"/>
		</radialGradient>
		<linearGradient x1="0" y1="1024" x2="1024" y2="0" id="color-Ybz1Dnf3" gradientUnits="userSpaceOnUse">
			<stop offset="0.2" stop-color="#000000"/>
			<stop offset="0.8" stop-color="#ffffff"/>
		</linearGradient>
		<filter id="filter-og2W2K1j" color-interpolation-filters="sRGB">
			<feOffset/>
		</filter>
		<filter id="filter-Xelq8jYX" x="0%" y="0%" width="100%" height="100%" color-interpolation-filters="sRGB">
			<feColorMatrix values="1 0 0 0 0 0 1 0 0 0 0 0 1 0 0 0 0 0 0.05 0" in="SourceGraphic"/>
			<feOffset dy="20"/>
			<feGaussianBlur stdDeviation="11" result="blur0"/>
			<feColorMatrix values="1 0 0 0 0 0 1 0 0 0 0 0 1 0 0 0 0 0 0.07 0" in="SourceGraphic"/>
			<feOffset dy="30"/>
			<feGaussianBlur stdDeviation="20" result="blur1"/>
			<feMerge>
				<feMergeNode in="blur0"/>
				<feMergeNode in="blur1"/>
			</feMerge>
		</filter>
		<mask id="mask-6QU9wlk8">
			<path d="M938.67,213.33v426.67c0,46.93 -38.41,85.33 -85.34,85.33h-682.66c-46.93,0 -85.34,-38.4 -85.34,-85.33l0.43,-426.67c0,-46.93 37.98,-85.33 84.91,-85.33h682.66c46.93,0 85.34,38.4 85.34,85.33zM341.33,810.67h341.34l-170.67,170.66zM682.67,554.67h-341.34v85.33h341.34zM682.67,384h-85.34v85.33h85.34zM682.67,256h-85.34v85.33h85.34zM810.67,384h-85.34v85.33h85.34zM810.67,256h-85.34v85.33h85.34zM469.33,341.33h85.34v-85.33h-85.34zM469.33,469.33h85.34v-85.33h-85.34zM341.33,341.33h85.34v-85.33h-85.34zM341.33,469.33h85.34v-85.33h-85.34zM298.67,384h-85.34v85.33h85.34zM298.67,256h-85.34v85.33h85.34z" fill="#ffffff"/>
		</mask>
		<mask id="mask-GsfDEV2W">
			<path d="M938.67,213.33v426.67c0,46.93 -38.41,85.33 -85.34,85.33h-682.66c-46.93,0 -85.34,-38.4 -85.34,-85.33l0.43,-426.67c0,-46.93 37.98,-85.33 84.91,-85.33h682.66c46.93,0 85.34,38.4 85.34,85.33zM341.33,810.67h341.34l-170.67,170.66zM682.67,554.67h-341.34v85.33h341.34zM682.67,384h-85.34v85.33h85.34zM682.67,256h-85.34v85.33h85.34zM810.67,384h-85.34v85.33h85.34zM810.67,256h-85.34v85.33h85.34zM469.33,341.33h85.34v-85.33h-85.34zM469.33,469.33h85.34v-85.33h-85.34zM341.33,341.33h85.34v-85.33h-85.34zM341.33,469.33h85.34v-85.33h-85.34zM298.67,384h-85.34v85.33h85.34zM298.67,256h-85.34v85.33h85.34z" fill="url(#color-PI3XU8Jt)"/>
		</mask>
		<mask id="mask-yDbXIzJd">
			<rect fill="url(#color-Ybz1Dnf3)" x="85.33" y="128" width="853.34" height="853.33"/>
		</mask>
	</defs>
	<g fill="none" fill-rule="nonzero" style="mix-blend-mode: normal">
		<g mask="url(#mask-6QU9wlk8)">
			<g color="#ffc107" class="teamapps-color-2">
				<rect x="85.33" y="128" width="853.34" height="853.33" fill="currentColor"/>
			</g>
			<g color="#e65100" class="teamapps-color-3" mask="url(#mask-yDbXIzJd)">
				<rect x="85.33" y="128" width="853.34" height="853.33" fill="currentColor"/>
			</g>
		</g>
		<g filter="url(#filter-og2W2K1j)" mask="url(#mask-GsfDEV2W)">
			<g color="#fff59d" class="teamapps-color-1">
				<rect x="85.33" y="128" width="853.34" height="853.33" fill="currentColor"/>
			</g>
		</g>
		<g clip-path="url(#clip-9oC9hRMT)">
			<path d="M-7.67,1024.33v-1039.33h1039.34v1039.33zM853.33,128h-682.66c-46.93,0 -84.91,38.4 -84.91,85.33l-0.43,426.67c0,46.93 38.41,85.33 85.34,85.33h682.66c46.93,0 85.34,-38.4 85.34,-85.33v-426.67c0,-46.93 -38.41,-85.33 -85.34,-85.33zM512,981.33l170.67,-170.66h-341.34zM682.67,640h-341.34v-85.33h341.34zM682.67,469.33h-85.34v-85.33h85.34zM682.67,341.33h-85.34v-85.33h85.34zM810.67,469.33h-85.34v-85.33h85.34zM810.67,341.33h-85.34v-85.33h85.34zM469.33,256h85.34v85.33h-85.34zM469.33,384h85.34v85.33h-85.34zM341.33,256h85.34v85.33h-85.34zM341.33,384h85.34v85.33h-85.34zM298.67,469.33h-85.34v-85.33h85.34zM298.67,341.33h-85.34v-85.33h85.34z" fill="#000000" filter="url(#filter-Xelq8jYX)"/>
		</g>
	</g>
</svg>