<svg version="1.1" xmlns="http://www.w3.org/2000/svg" xmlns:xlink="http://www.w3.org/1999/xlink" viewBox="0,0,1024,1024">
	<!-- Color names: teamapps-color-1, teamapps-color-2, teamapps-color-3 -->
	<desc>kitchen icon - Licensed under Apache License v2.0 (http://www.apache.org/licenses/LICENSE-2.0) - Created with Iconfu.com - Derivative work of Material icons (Copyright Google Inc.)</desc>
	<defs>
		<clipPath id="clip-1XNnEC8H">
			<path d="M853.33,170.67v682.66c0,46.93 -38.4,85.34 -85.33,85.34h-512c-46.93,0 -85.33,-38.41 -85.33,-85.34v-682.66c0,-47.36 38.4,-85.34 85.33,-85.34l512,0.43c46.93,0 85.33,37.55 85.33,84.91zM768,468.48h-512v384.85h512zM768,170.67h-512v213.33h512zM341.33,512h85.34v213.33h-85.34zM341.33,213.33h85.34v128h-85.34z"/>
		</clipPath>
		<linearGradient x1="0" y1="1024" x2="1024" y2="0" id="color-1HpSQHUh" gradientUnits="userSpaceOnUse">
			<stop offset="0.2" stop-color="#000000"/>
			<stop offset="0.8" stop-color="#ffffff"/>
		</linearGradient>
		<radialGradient cx="0" cy="0" r="1448.15" id="color-2iN6XkK1" gradientUnits="userSpaceOnUse">
			<stop offset="0.07" stop-color="#ffffff"/>
			<stop offset="0.75" stop-color="#000000"/>
		</radialGradient>
		<filter id="filter-oAYL5Cpb" x="0%" y="0%" width="100%" height="100%" color-interpolation-filters="sRGB">
			<feColorMatrix values="1 0 0 0 0 0 1 0 0 0 0 0 1 0 0 0 0 0 0.05 0" in="SourceGraphic"/>
			<feOffset dy="20"/>
			<feGaussianBlur stdDeviation="11" result="blur0"/>
			<feColorMatrix values="1 0 0 0 0 0 1 0 0 0 0 0 1 0 0 0 0 0 0.07 0" in="SourceGraphic"/>
			<feOffset dy="30"/>
			<feGaussianBlur stdDeviation="20" result="blur1"/>
			<feMerge>
				<feMergeNode in="blur0"/>
				<feMergeNode in="blur1"/>
			</feMerge>
		</filter>
		<filter id="filter-piU5jel2" color-interpolation-filters="sRGB">
			<feOffset/>
		</filter>
		<mask id="mask-H1mnJvbc">
			<path d="M853.33,170.67v682.66c0,46.93 -38.4,85.34 -85.33,85.34h-512c-46.93,0 -85.33,-38.41 -85.33,-85.34v-682.66c0,-47.36 38.4,-85.34 85.33,-85.34l512,0.43c46.93,0 85.33,37.55 85.33,84.91zM768,468.48h-512v384.85h512zM768,170.67h-512v213.33h512zM341.33,512h85.34v213.33h-85.34zM341.33,213.33h85.34v128h-85.34z" fill="#ffffff"/>
		</mask>
		<mask id="mask-PqVF99wE">
			<path d="M853.33,170.67v682.66c0,46.93 -38.4,85.34 -85.33,85.34h-512c-46.93,0 -85.33,-38.41 -85.33,-85.34v-682.66c0,-47.36 38.4,-85.34 85.33,-85.34l512,0.43c46.93,0 85.33,37.55 85.33,84.91zM768,468.48h-512v384.85h512zM768,170.67h-512v213.33h512zM341.33,512h85.34v213.33h-85.34zM341.33,213.33h85.34v128h-85.34z" fill="url(#color-2iN6XkK1)"/>
		</mask>
		<mask id="mask-Q6kLLWh0">
			<rect fill="url(#color-1HpSQHUh)" x="170.67" y="85.33" width="682.66" height="853.34"/>
		</mask>
	</defs>
	<g fill="none" fill-rule="nonzero" style="mix-blend-mode: normal">
		<g mask="url(#mask-H1mnJvbc)">
			<g color="#ffc107" class="teamapps-color-2">
				<rect x="170.67" y="85.33" width="682.66" height="853.34" fill="currentColor"/>
			</g>
			<g color="#e65100" class="teamapps-color-3" mask="url(#mask-Q6kLLWh0)">
				<rect x="170.67" y="85.33" width="682.66" height="853.34" fill="currentColor"/>
			</g>
		</g>
		<g filter="url(#filter-piU5jel2)" mask="url(#mask-PqVF99wE)">
			<g color="#fff59d" class="teamapps-color-1">
				<rect x="170.67" y="85.33" width="682.66" height="853.34" fill="currentColor"/>
			</g>
		</g>
		<g clip-path="url(#clip-1XNnEC8H)">
			<path d="M77.67,981.67v-1039.34h868.66v1039.34zM768,85.76l-512,-0.43c-46.93,0 -85.33,37.98 -85.33,85.34v682.66c0,46.93 38.4,85.34 85.33,85.34h512c46.93,0 85.33,-38.41 85.33,-85.34v-682.66c0,-47.36 -38.4,-84.91 -85.33,-84.91zM768,853.33h-512v-384.85h512zM768,384h-512v-213.33h512zM341.33,725.33h85.34v-213.33h-85.34zM341.33,341.33h85.34v-128h-85.34z" fill="#000000" filter="url(#filter-oAYL5Cpb)"/>
		</g>
	</g>
</svg>