<svg version="1.1" xmlns="http://www.w3.org/2000/svg" xmlns:xlink="http://www.w3.org/1999/xlink" viewBox="0,0,1024,1024">
	<!-- Color names: teamapps-color-1, teamapps-color-2, teamapps-color-3 -->
	<desc>layers icon - Licensed under Apache License v2.0 (http://www.apache.org/licenses/LICENSE-2.0) - Created with Iconfu.com - Derivative work of Material icons (Copyright Google Inc.)</desc>
	<defs>
		<clipPath id="clip-5xTeKXWS">
			<path d="M197.55,438.19l-69.55,-54.19l384,-298.67l384,298.67l-69.97,54.19l-314.03,244.48zM826.45,546.13l69.55,54.19l-384,298.67l-384,-298.67l69.12,-53.76l314.45,244.48z"/>
		</clipPath>
		<radialGradient cx="0" cy="0" r="1448.15" id="color-4CCIKjIJ" gradientUnits="userSpaceOnUse">
			<stop offset="0.07" stop-color="#ffffff"/>
			<stop offset="0.75" stop-color="#000000"/>
		</radialGradient>
		<linearGradient x1="0" y1="1024" x2="1024" y2="0" id="color-VgulCaGw" gradientUnits="userSpaceOnUse">
			<stop offset="0.2" stop-color="#000000"/>
			<stop offset="0.8" stop-color="#ffffff"/>
		</linearGradient>
		<filter id="filter-17oBgDwN" x="0%" y="0%" width="100%" height="100%" color-interpolation-filters="sRGB">
			<feColorMatrix values="1 0 0 0 0 0 1 0 0 0 0 0 1 0 0 0 0 0 0.05 0" in="SourceGraphic"/>
			<feOffset dy="20"/>
			<feGaussianBlur stdDeviation="11" result="blur0"/>
			<feColorMatrix values="1 0 0 0 0 0 1 0 0 0 0 0 1 0 0 0 0 0 0.07 0" in="SourceGraphic"/>
			<feOffset dy="30"/>
			<feGaussianBlur stdDeviation="20" result="blur1"/>
			<feMerge>
				<feMergeNode in="blur0"/>
				<feMergeNode in="blur1"/>
			</feMerge>
		</filter>
		<filter id="filter-TCf4CEFM" color-interpolation-filters="sRGB">
			<feOffset/>
		</filter>
		<mask id="mask-0wovpA9X">
			<rect fill="url(#color-VgulCaGw)" x="128" y="85.33" width="768" height="813.66"/>
		</mask>
		<mask id="mask-dFkdZhKy">
			<path d="M197.55,438.19l-69.55,-54.19l384,-298.67l384,298.67l-69.97,54.19l-314.03,244.48zM826.45,546.13l69.55,54.19l-384,298.67l-384,-298.67l69.12,-53.76l314.45,244.48z" fill="url(#color-4CCIKjIJ)"/>
		</mask>
		<mask id="mask-fxoNzH8b">
			<path d="M197.55,438.19l-69.55,-54.19l384,-298.67l384,298.67l-69.97,54.19l-314.03,244.48zM826.45,546.13l69.55,54.19l-384,298.67l-384,-298.67l69.12,-53.76l314.45,244.48z" fill="#ffffff"/>
		</mask>
	</defs>
	<g fill="none" fill-rule="nonzero" style="mix-blend-mode: normal">
		<g mask="url(#mask-fxoNzH8b)">
			<g color="#ffc107" class="teamapps-color-2">
				<rect x="128" y="85.33" width="768" height="813.66" fill="currentColor"/>
			</g>
			<g color="#e65100" class="teamapps-color-3" mask="url(#mask-0wovpA9X)">
				<rect x="128" y="85.33" width="768" height="813.66" fill="currentColor"/>
			</g>
		</g>
		<g filter="url(#filter-TCf4CEFM)" mask="url(#mask-dFkdZhKy)">
			<g color="#fff59d" class="teamapps-color-1">
				<rect x="128" y="85.33" width="768" height="813.66" fill="currentColor"/>
			</g>
		</g>
		<g clip-path="url(#clip-5xTeKXWS)">
			<path d="M35,941.99v-999.66h954v999.66zM512,682.67l314.03,-244.48l69.97,-54.19l-384,-298.67l-384,298.67l69.55,54.19zM511.57,791.04l-314.45,-244.48l-69.12,53.76l384,298.67l384,-298.67l-69.55,-54.19z" fill="#000000" filter="url(#filter-17oBgDwN)"/>
		</g>
	</g>
</svg>