<svg version="1.1" xmlns="http://www.w3.org/2000/svg" xmlns:xlink="http://www.w3.org/1999/xlink" viewBox="0,0,1024,1024">
	<!-- Color names: teamapps-color-1, teamapps-color-2, teamapps-color-3 -->
	<desc>line_weight icon - Licensed under Apache License v2.0 (http://www.apache.org/licenses/LICENSE-2.0) - Created with Iconfu.com - Derivative work of Material icons (Copyright Google Inc.)</desc>
	<defs>
		<clipPath id="clip-ZHjxtkAL">
			<path d="M896,170.67v170.66h-768v-170.66zM128,426.67h768v128h-768zM128,640h768v85.33h-768zM128,810.67h768v42.66h-768z"/>
		</clipPath>
		<radialGradient cx="0" cy="0" r="1448.15" id="color-HZUtaYHa" gradientUnits="userSpaceOnUse">
			<stop offset="0.07" stop-color="#ffffff"/>
			<stop offset="0.75" stop-color="#000000"/>
		</radialGradient>
		<linearGradient x1="0" y1="1024" x2="1024" y2="0" id="color-UBbfs6Hj" gradientUnits="userSpaceOnUse">
			<stop offset="0.2" stop-color="#000000"/>
			<stop offset="0.8" stop-color="#ffffff"/>
		</linearGradient>
		<filter id="filter-JwxtBPMN" x="0%" y="0%" width="100%" height="100%" color-interpolation-filters="sRGB">
			<feColorMatrix values="1 0 0 0 0 0 1 0 0 0 0 0 1 0 0 0 0 0 0.05 0" in="SourceGraphic"/>
			<feOffset dy="20"/>
			<feGaussianBlur stdDeviation="11" result="blur0"/>
			<feColorMatrix values="1 0 0 0 0 0 1 0 0 0 0 0 1 0 0 0 0 0 0.07 0" in="SourceGraphic"/>
			<feOffset dy="30"/>
			<feGaussianBlur stdDeviation="20" result="blur1"/>
			<feMerge>
				<feMergeNode in="blur0"/>
				<feMergeNode in="blur1"/>
			</feMerge>
		</filter>
		<filter id="filter-VsCKyPlO" color-interpolation-filters="sRGB">
			<feOffset/>
		</filter>
		<mask id="mask-9wxTYlyt">
			<rect fill="url(#color-UBbfs6Hj)" x="128" y="170.67" width="768" height="682.66"/>
		</mask>
		<mask id="mask-DuoyHfSe">
			<path d="M896,170.67v170.66h-768v-170.66zM128,426.67h768v128h-768zM128,640h768v85.33h-768zM128,810.67h768v42.66h-768z" fill="#ffffff"/>
		</mask>
		<mask id="mask-HO0ceJlC">
			<path d="M896,170.67v170.66h-768v-170.66zM128,426.67h768v128h-768zM128,640h768v85.33h-768zM128,810.67h768v42.66h-768z" fill="url(#color-HZUtaYHa)"/>
		</mask>
	</defs>
	<g fill="none" fill-rule="nonzero" style="mix-blend-mode: normal">
		<g mask="url(#mask-DuoyHfSe)">
			<g color="#ffc107" class="teamapps-color-2">
				<rect x="128" y="170.67" width="768" height="682.66" fill="currentColor"/>
			</g>
			<g color="#e65100" class="teamapps-color-3" mask="url(#mask-9wxTYlyt)">
				<rect x="128" y="170.67" width="768" height="682.66" fill="currentColor"/>
			</g>
		</g>
		<g filter="url(#filter-VsCKyPlO)" mask="url(#mask-HO0ceJlC)">
			<g color="#fff59d" class="teamapps-color-1">
				<rect x="128" y="170.67" width="768" height="682.66" fill="currentColor"/>
			</g>
		</g>
		<g clip-path="url(#clip-ZHjxtkAL)">
			<path d="M35,896.33v-868.66h954v868.66zM128,170.67v170.66h768v-170.66zM128,554.67h768v-128h-768zM128,725.33h768v-85.33h-768zM128,853.33h768v-42.66h-768z" fill="#000000" filter="url(#filter-JwxtBPMN)"/>
		</g>
	</g>
</svg>