<svg version="1.1" xmlns="http://www.w3.org/2000/svg" xmlns:xlink="http://www.w3.org/1999/xlink" viewBox="0,0,1024,1024">
	<!-- Color names: teamapps-color-1, teamapps-color-2, teamapps-color-3 -->
	<desc>live_help icon - Licensed under Apache License v2.0 (http://www.apache.org/licenses/LICENSE-2.0) - Created with Iconfu.com - Derivative work of Material icons (Copyright Google Inc.)</desc>
	<defs>
		<clipPath id="clip-hYuOV5Zg">
			<path d="M896,170.67v597.33c0,46.93 -38.4,85.33 -85.33,85.33h-170.67l-128,128l-128,-128h-170.67c-47.36,0 -85.33,-38.4 -85.33,-85.33v-597.33c0,-46.93 37.97,-85.34 85.33,-85.34h597.34c46.93,0 85.33,38.41 85.33,85.34zM682.67,341.33c0,-94.29 -76.38,-170.66 -170.67,-170.66c-94.29,0 -170.67,76.37 -170.67,170.66h85.34c0,-46.93 38.4,-85.33 85.33,-85.33c46.93,0 85.33,38.4 85.33,85.33c0,23.47 -9.38,44.8 -25.17,60.16l-52.91,53.76c-30.72,31.15 -49.92,73.82 -49.92,120.75v21.33h85.34c0,-64 19.2,-89.59 49.92,-120.74l38.4,-39.26c24.32,-24.32 39.68,-58.45 39.68,-96zM554.67,682.67h-85.34v85.33h85.34z"/>
		</clipPath>
		<radialGradient cx="0" cy="0" r="1448.15" id="color-MRdn0egL" gradientUnits="userSpaceOnUse">
			<stop offset="0.07" stop-color="#ffffff"/>
			<stop offset="0.75" stop-color="#000000"/>
		</radialGradient>
		<linearGradient x1="0" y1="1024" x2="1024" y2="0" id="color-qfKDxgIt" gradientUnits="userSpaceOnUse">
			<stop offset="0.2" stop-color="#000000"/>
			<stop offset="0.8" stop-color="#ffffff"/>
		</linearGradient>
		<filter id="filter-jnI0ydls" color-interpolation-filters="sRGB">
			<feOffset/>
		</filter>
		<filter id="filter-LpjQOkMf" x="0%" y="0%" width="100%" height="100%" color-interpolation-filters="sRGB">
			<feColorMatrix values="1 0 0 0 0 0 1 0 0 0 0 0 1 0 0 0 0 0 0.05 0" in="SourceGraphic"/>
			<feOffset dy="20"/>
			<feGaussianBlur stdDeviation="11" result="blur0"/>
			<feColorMatrix values="1 0 0 0 0 0 1 0 0 0 0 0 1 0 0 0 0 0 0.07 0" in="SourceGraphic"/>
			<feOffset dy="30"/>
			<feGaussianBlur stdDeviation="20" result="blur1"/>
			<feMerge>
				<feMergeNode in="blur0"/>
				<feMergeNode in="blur1"/>
			</feMerge>
		</filter>
		<mask id="mask-ApDUyaoL">
			<path d="M896,170.67v597.33c0,46.93 -38.4,85.33 -85.33,85.33h-170.67l-128,128l-128,-128h-170.67c-47.36,0 -85.33,-38.4 -85.33,-85.33v-597.33c0,-46.93 37.97,-85.34 85.33,-85.34h597.34c46.93,0 85.33,38.41 85.33,85.34zM682.67,341.33c0,-94.29 -76.38,-170.66 -170.67,-170.66c-94.29,0 -170.67,76.37 -170.67,170.66h85.34c0,-46.93 38.4,-85.33 85.33,-85.33c46.93,0 85.33,38.4 85.33,85.33c0,23.47 -9.38,44.8 -25.17,60.16l-52.91,53.76c-30.72,31.15 -49.92,73.82 -49.92,120.75v21.33h85.34c0,-64 19.2,-89.59 49.92,-120.74l38.4,-39.26c24.32,-24.32 39.68,-58.45 39.68,-96zM554.67,682.67h-85.34v85.33h85.34z" fill="url(#color-MRdn0egL)"/>
		</mask>
		<mask id="mask-cZ0Eg9IK">
			<path d="M896,170.67v597.33c0,46.93 -38.4,85.33 -85.33,85.33h-170.67l-128,128l-128,-128h-170.67c-47.36,0 -85.33,-38.4 -85.33,-85.33v-597.33c0,-46.93 37.97,-85.34 85.33,-85.34h597.34c46.93,0 85.33,38.41 85.33,85.34zM682.67,341.33c0,-94.29 -76.38,-170.66 -170.67,-170.66c-94.29,0 -170.67,76.37 -170.67,170.66h85.34c0,-46.93 38.4,-85.33 85.33,-85.33c46.93,0 85.33,38.4 85.33,85.33c0,23.47 -9.38,44.8 -25.17,60.16l-52.91,53.76c-30.72,31.15 -49.92,73.82 -49.92,120.75v21.33h85.34c0,-64 19.2,-89.59 49.92,-120.74l38.4,-39.26c24.32,-24.32 39.68,-58.45 39.68,-96zM554.67,682.67h-85.34v85.33h85.34z" fill="#ffffff"/>
		</mask>
		<mask id="mask-RiwC9Nal">
			<rect fill="url(#color-qfKDxgIt)" x="128" y="85.33" width="768" height="896"/>
		</mask>
	</defs>
	<g fill="none" fill-rule="nonzero" style="mix-blend-mode: normal">
		<g mask="url(#mask-cZ0Eg9IK)">
			<g color="#ffc107" class="teamapps-color-2">
				<rect x="128" y="85.33" width="768" height="896" fill="currentColor"/>
			</g>
			<g color="#e65100" class="teamapps-color-3" mask="url(#mask-RiwC9Nal)">
				<rect x="128" y="85.33" width="768" height="896" fill="currentColor"/>
			</g>
		</g>
		<g filter="url(#filter-jnI0ydls)" mask="url(#mask-ApDUyaoL)">
			<g color="#fff59d" class="teamapps-color-1">
				<rect x="128" y="85.33" width="768" height="896" fill="currentColor"/>
			</g>
		</g>
		<g clip-path="url(#clip-hYuOV5Zg)">
			<path d="M35,1024.33v-1082h954v1082zM810.67,85.33h-597.34c-47.36,0 -85.33,38.41 -85.33,85.34v597.33c0,46.93 37.97,85.33 85.33,85.33h170.67l128,128l128,-128h170.67c46.93,0 85.33,-38.4 85.33,-85.33v-597.33c0,-46.93 -38.4,-85.34 -85.33,-85.34zM642.99,437.33l-38.4,39.26c-30.72,31.15 -49.92,56.74 -49.92,120.74h-85.34v-21.33c0,-46.93 19.2,-89.6 49.92,-120.75l52.91,-53.76c15.79,-15.36 25.17,-36.69 25.17,-60.16c0,-46.93 -38.4,-85.33 -85.33,-85.33c-46.93,0 -85.33,38.4 -85.33,85.33h-85.34c0,-94.29 76.38,-170.66 170.67,-170.66c94.29,0 170.67,76.37 170.67,170.66c0,37.55 -15.36,71.68 -39.68,96zM554.67,768h-85.34v-85.33h85.34z" fill="#000000" filter="url(#filter-LpjQOkMf)"/>
		</g>
	</g>
</svg>