<svg version="1.1" xmlns="http://www.w3.org/2000/svg" xmlns:xlink="http://www.w3.org/1999/xlink" viewBox="0,0,1024,1024">
	<!-- Color names: teamapps-color-1, teamapps-color-2, teamapps-color-3 -->
	<desc>local_hospital icon - Licensed under Apache License v2.0 (http://www.apache.org/licenses/LICENSE-2.0) - Created with Iconfu.com - Derivative work of Material icons (Copyright Google Inc.)</desc>
	<defs>
		<clipPath id="clip-gKdfuW0E">
			<path d="M896,213.33v597.34c0,46.93 -38.4,85.33 -85.33,85.33h-597.34c-46.93,0 -85.33,-38.4 -85.33,-85.33l0.43,-597.34c0,-46.93 37.97,-85.33 84.9,-85.33h597.34c46.93,0 85.33,38.4 85.33,85.33zM768,426.67h-170.67v-170.67h-170.66v170.67h-170.67v170.66h170.67v170.67h170.66v-170.67h170.67z"/>
		</clipPath>
		<radialGradient cx="0" cy="0" r="1448.15" id="color-87eB5Skh" gradientUnits="userSpaceOnUse">
			<stop offset="0.07" stop-color="#ffffff"/>
			<stop offset="0.75" stop-color="#000000"/>
		</radialGradient>
		<linearGradient x1="0" y1="1024" x2="1024" y2="0" id="color-BGaFGutl" gradientUnits="userSpaceOnUse">
			<stop offset="0.2" stop-color="#000000"/>
			<stop offset="0.8" stop-color="#ffffff"/>
		</linearGradient>
		<filter id="filter-azAE0w1D" color-interpolation-filters="sRGB">
			<feOffset/>
		</filter>
		<filter id="filter-sCyPPJTr" x="0%" y="0%" width="100%" height="100%" color-interpolation-filters="sRGB">
			<feColorMatrix values="1 0 0 0 0 0 1 0 0 0 0 0 1 0 0 0 0 0 0.05 0" in="SourceGraphic"/>
			<feOffset dy="20"/>
			<feGaussianBlur stdDeviation="11" result="blur0"/>
			<feColorMatrix values="1 0 0 0 0 0 1 0 0 0 0 0 1 0 0 0 0 0 0.07 0" in="SourceGraphic"/>
			<feOffset dy="30"/>
			<feGaussianBlur stdDeviation="20" result="blur1"/>
			<feMerge>
				<feMergeNode in="blur0"/>
				<feMergeNode in="blur1"/>
			</feMerge>
		</filter>
		<mask id="mask-AL8o89A6">
			<path d="M896,213.33v597.34c0,46.93 -38.4,85.33 -85.33,85.33h-597.34c-46.93,0 -85.33,-38.4 -85.33,-85.33l0.43,-597.34c0,-46.93 37.97,-85.33 84.9,-85.33h597.34c46.93,0 85.33,38.4 85.33,85.33zM768,426.67h-170.67v-170.67h-170.66v170.67h-170.67v170.66h170.67v170.67h170.66v-170.67h170.67z" fill="url(#color-87eB5Skh)"/>
		</mask>
		<mask id="mask-oEKLgEKO">
			<path d="M896,213.33v597.34c0,46.93 -38.4,85.33 -85.33,85.33h-597.34c-46.93,0 -85.33,-38.4 -85.33,-85.33l0.43,-597.34c0,-46.93 37.97,-85.33 84.9,-85.33h597.34c46.93,0 85.33,38.4 85.33,85.33zM768,426.67h-170.67v-170.67h-170.66v170.67h-170.67v170.66h170.67v170.67h170.66v-170.67h170.67z" fill="#ffffff"/>
		</mask>
		<mask id="mask-XOV7yV5n">
			<rect fill="url(#color-BGaFGutl)" x="128" y="128" width="768" height="768"/>
		</mask>
	</defs>
	<g fill="none" fill-rule="nonzero" style="mix-blend-mode: normal">
		<g mask="url(#mask-oEKLgEKO)">
			<g color="#ffc107" class="teamapps-color-2">
				<rect x="128" y="128" width="768" height="768" fill="currentColor"/>
			</g>
			<g color="#e65100" class="teamapps-color-3" mask="url(#mask-XOV7yV5n)">
				<rect x="128" y="128" width="768" height="768" fill="currentColor"/>
			</g>
		</g>
		<g filter="url(#filter-azAE0w1D)" mask="url(#mask-AL8o89A6)">
			<g color="#fff59d" class="teamapps-color-1">
				<rect x="128" y="128" width="768" height="768" fill="currentColor"/>
			</g>
		</g>
		<g clip-path="url(#clip-gKdfuW0E)">
			<path d="M35,939v-954h954v954zM810.67,128h-597.34c-46.93,0 -84.9,38.4 -84.9,85.33l-0.43,597.34c0,46.93 38.4,85.33 85.33,85.33h597.34c46.93,0 85.33,-38.4 85.33,-85.33v-597.34c0,-46.93 -38.4,-85.33 -85.33,-85.33zM768,597.33h-170.67v170.67h-170.66v-170.67h-170.67v-170.66h170.67v-170.67h170.66v170.67h170.67z" fill="#000000" filter="url(#filter-sCyPPJTr)"/>
		</g>
	</g>
</svg>