<svg version="1.1" xmlns="http://www.w3.org/2000/svg" xmlns:xlink="http://www.w3.org/1999/xlink" viewBox="0,0,1024,1024">
	<!-- Color names: teamapps-color-1, teamapps-color-2, teamapps-color-3 -->
	<desc>local_bar icon - Licensed under Apache License v2.0 (http://www.apache.org/licenses/LICENSE-2.0) - Created with Iconfu.com - Derivative work of Material icons (Copyright Google Inc.)</desc>
	<defs>
		<clipPath id="clip-0ZE1Ar9v">
			<path d="M554.67,597.33v213.34h213.33v85.33h-512v-85.33h213.33v-213.34l-341.33,-384v-85.33h768v85.33zM706.99,298.67l75.94,-85.34h-541.44l75.52,85.34z"/>
		</clipPath>
		<radialGradient cx="0" cy="0" r="1448.15" id="color-EXAq18Gp" gradientUnits="userSpaceOnUse">
			<stop offset="0.07" stop-color="#ffffff"/>
			<stop offset="0.75" stop-color="#000000"/>
		</radialGradient>
		<linearGradient x1="0" y1="1024" x2="1024" y2="0" id="color-oXB2xa13" gradientUnits="userSpaceOnUse">
			<stop offset="0.2" stop-color="#000000"/>
			<stop offset="0.8" stop-color="#ffffff"/>
		</linearGradient>
		<filter id="filter-2Xpe7MqL" color-interpolation-filters="sRGB">
			<feOffset/>
		</filter>
		<filter id="filter-qem3YkqY" x="0%" y="0%" width="100%" height="100%" color-interpolation-filters="sRGB">
			<feColorMatrix values="1 0 0 0 0 0 1 0 0 0 0 0 1 0 0 0 0 0 0.05 0" in="SourceGraphic"/>
			<feOffset dy="20"/>
			<feGaussianBlur stdDeviation="11" result="blur0"/>
			<feColorMatrix values="1 0 0 0 0 0 1 0 0 0 0 0 1 0 0 0 0 0 0.07 0" in="SourceGraphic"/>
			<feOffset dy="30"/>
			<feGaussianBlur stdDeviation="20" result="blur1"/>
			<feMerge>
				<feMergeNode in="blur0"/>
				<feMergeNode in="blur1"/>
			</feMerge>
		</filter>
		<mask id="mask-3l1J2mjG">
			<path d="M554.67,597.33v213.34h213.33v85.33h-512v-85.33h213.33v-213.34l-341.33,-384v-85.33h768v85.33zM706.99,298.67l75.94,-85.34h-541.44l75.52,85.34z" fill="#ffffff"/>
		</mask>
		<mask id="mask-FCqc2XhC">
			<path d="M554.67,597.33v213.34h213.33v85.33h-512v-85.33h213.33v-213.34l-341.33,-384v-85.33h768v85.33zM706.99,298.67l75.94,-85.34h-541.44l75.52,85.34z" fill="url(#color-EXAq18Gp)"/>
		</mask>
		<mask id="mask-Q2ct04MY">
			<rect fill="url(#color-oXB2xa13)" x="128" y="128" width="768" height="768"/>
		</mask>
	</defs>
	<g fill="none" fill-rule="nonzero" style="mix-blend-mode: normal">
		<g mask="url(#mask-3l1J2mjG)">
			<g color="#ffc107" class="teamapps-color-2">
				<rect x="128" y="128" width="768" height="768" fill="currentColor"/>
			</g>
			<g color="#e65100" class="teamapps-color-3" mask="url(#mask-Q2ct04MY)">
				<rect x="128" y="128" width="768" height="768" fill="currentColor"/>
			</g>
		</g>
		<g filter="url(#filter-2Xpe7MqL)" mask="url(#mask-FCqc2XhC)">
			<g color="#fff59d" class="teamapps-color-1">
				<rect x="128" y="128" width="768" height="768" fill="currentColor"/>
			</g>
		</g>
		<g clip-path="url(#clip-0ZE1Ar9v)">
			<path d="M35,939v-954h954v954zM896,213.33v-85.33h-768v85.33l341.33,384v213.34h-213.33v85.33h512v-85.33h-213.33v-213.34zM317.01,298.67l-75.52,-85.34h541.44l-75.94,85.34z" fill="#000000" filter="url(#filter-qem3YkqY)"/>
		</g>
	</g>
</svg>