<svg version="1.1" xmlns="http://www.w3.org/2000/svg" xmlns:xlink="http://www.w3.org/1999/xlink" viewBox="0,0,1024,1024">
	<!-- Color names: teamapps-color-1, teamapps-color-2, teamapps-color-3 -->
	<desc>local_florist icon - Licensed under Apache License v2.0 (http://www.apache.org/licenses/LICENSE-2.0) - Created with Iconfu.com - Derivative work of Material icons (Copyright Google Inc.)</desc>
	<defs>
		<clipPath id="clip-kAolH8Q4">
			<path d="M299.95,341.33c-35.84,-17.07 -61.02,-53.33 -61.02,-96c0,-58.88 47.79,-106.66 106.67,-106.66c22.61,0 43.52,6.82 60.59,18.77l-0.86,-8.11c0,-58.88 47.79,-106.66 106.67,-106.66c58.88,0 106.67,47.78 106.67,106.66l-0.86,8.11c17.49,-11.95 37.98,-18.77 60.59,-18.77c58.88,0 106.67,47.78 106.67,106.66c0,42.67 -25.18,78.93 -61.02,96c35.84,17.07 61.02,53.33 61.02,96c0,58.88 -47.79,106.67 -106.67,106.67c-22.61,0 -43.52,-6.82 -60.59,-18.77l0.86,8.1c0,58.88 -47.79,106.67 -106.67,106.67c-58.88,0 -106.67,-47.79 -106.67,-106.67l0.86,-8.1c-17.49,11.95 -37.98,18.77 -60.59,18.77c-58.88,0 -106.67,-47.79 -106.67,-106.67c0,-42.67 25.18,-78.93 61.02,-96zM896,554.67c0,212.05 -171.95,384 -384,384c-212.05,0 -384,-171.95 -384,-384c212.05,0 384,171.95 384,384c0,-212.05 171.95,-384 384,-384zM405.33,341.33c0,58.88 47.79,106.67 106.67,106.67c58.88,0 106.67,-47.79 106.67,-106.67c0,-58.88 -47.79,-106.66 -106.67,-106.66c-58.88,0 -106.67,47.78 -106.67,106.66z"/>
		</clipPath>
		<linearGradient x1="0" y1="1024" x2="1024" y2="0" id="color-ixUdO9mS" gradientUnits="userSpaceOnUse">
			<stop offset="0.2" stop-color="#000000"/>
			<stop offset="0.8" stop-color="#ffffff"/>
		</linearGradient>
		<radialGradient cx="0" cy="0" r="1448.15" id="color-pMwkyzV0" gradientUnits="userSpaceOnUse">
			<stop offset="0.07" stop-color="#ffffff"/>
			<stop offset="0.75" stop-color="#000000"/>
		</radialGradient>
		<filter id="filter-5DCYoMbg" color-interpolation-filters="sRGB">
			<feOffset/>
		</filter>
		<filter id="filter-daqElPcB" x="0%" y="0%" width="100%" height="100%" color-interpolation-filters="sRGB">
			<feColorMatrix values="1 0 0 0 0 0 1 0 0 0 0 0 1 0 0 0 0 0 0.05 0" in="SourceGraphic"/>
			<feOffset dy="20"/>
			<feGaussianBlur stdDeviation="11" result="blur0"/>
			<feColorMatrix values="1 0 0 0 0 0 1 0 0 0 0 0 1 0 0 0 0 0 0.07 0" in="SourceGraphic"/>
			<feOffset dy="30"/>
			<feGaussianBlur stdDeviation="20" result="blur1"/>
			<feMerge>
				<feMergeNode in="blur0"/>
				<feMergeNode in="blur1"/>
			</feMerge>
		</filter>
		<mask id="mask-4i1nX4xk">
			<path d="M299.95,341.33c-35.84,-17.07 -61.02,-53.33 -61.02,-96c0,-58.88 47.79,-106.66 106.67,-106.66c22.61,0 43.52,6.82 60.59,18.77l-0.86,-8.11c0,-58.88 47.79,-106.66 106.67,-106.66c58.88,0 106.67,47.78 106.67,106.66l-0.86,8.11c17.49,-11.95 37.98,-18.77 60.59,-18.77c58.88,0 106.67,47.78 106.67,106.66c0,42.67 -25.18,78.93 -61.02,96c35.84,17.07 61.02,53.33 61.02,96c0,58.88 -47.79,106.67 -106.67,106.67c-22.61,0 -43.52,-6.82 -60.59,-18.77l0.86,8.1c0,58.88 -47.79,106.67 -106.67,106.67c-58.88,0 -106.67,-47.79 -106.67,-106.67l0.86,-8.1c-17.49,11.95 -37.98,18.77 -60.59,18.77c-58.88,0 -106.67,-47.79 -106.67,-106.67c0,-42.67 25.18,-78.93 61.02,-96zM896,554.67c0,212.05 -171.95,384 -384,384c-212.05,0 -384,-171.95 -384,-384c212.05,0 384,171.95 384,384c0,-212.05 171.95,-384 384,-384zM405.33,341.33c0,58.88 47.79,106.67 106.67,106.67c58.88,0 106.67,-47.79 106.67,-106.67c0,-58.88 -47.79,-106.66 -106.67,-106.66c-58.88,0 -106.67,47.78 -106.67,106.66z" fill="url(#color-pMwkyzV0)"/>
		</mask>
		<mask id="mask-fLLYVStl">
			<path d="M299.95,341.33c-35.84,-17.07 -61.02,-53.33 -61.02,-96c0,-58.88 47.79,-106.66 106.67,-106.66c22.61,0 43.52,6.82 60.59,18.77l-0.86,-8.11c0,-58.88 47.79,-106.66 106.67,-106.66c58.88,0 106.67,47.78 106.67,106.66l-0.86,8.11c17.49,-11.95 37.98,-18.77 60.59,-18.77c58.88,0 106.67,47.78 106.67,106.66c0,42.67 -25.18,78.93 -61.02,96c35.84,17.07 61.02,53.33 61.02,96c0,58.88 -47.79,106.67 -106.67,106.67c-22.61,0 -43.52,-6.82 -60.59,-18.77l0.86,8.1c0,58.88 -47.79,106.67 -106.67,106.67c-58.88,0 -106.67,-47.79 -106.67,-106.67l0.86,-8.1c-17.49,11.95 -37.98,18.77 -60.59,18.77c-58.88,0 -106.67,-47.79 -106.67,-106.67c0,-42.67 25.18,-78.93 61.02,-96zM896,554.67c0,212.05 -171.95,384 -384,384c-212.05,0 -384,-171.95 -384,-384c212.05,0 384,171.95 384,384c0,-212.05 171.95,-384 384,-384zM405.33,341.33c0,58.88 47.79,106.67 106.67,106.67c58.88,0 106.67,-47.79 106.67,-106.67c0,-58.88 -47.79,-106.66 -106.67,-106.66c-58.88,0 -106.67,47.78 -106.67,106.66z" fill="#ffffff"/>
		</mask>
		<mask id="mask-GGzb53mg">
			<rect fill="url(#color-ixUdO9mS)" x="128" y="42.67" width="768" height="896"/>
		</mask>
	</defs>
	<g fill="none" fill-rule="nonzero" style="mix-blend-mode: normal">
		<g mask="url(#mask-fLLYVStl)">
			<g color="#ffc107" class="teamapps-color-2">
				<rect x="128" y="42.67" width="768" height="896" fill="currentColor"/>
			</g>
			<g color="#e65100" class="teamapps-color-3" mask="url(#mask-GGzb53mg)">
				<rect x="128" y="42.67" width="768" height="896" fill="currentColor"/>
			</g>
		</g>
		<g filter="url(#filter-5DCYoMbg)" mask="url(#mask-4i1nX4xk)">
			<g color="#fff59d" class="teamapps-color-1">
				<rect x="128" y="42.67" width="768" height="896" fill="currentColor"/>
			</g>
		</g>
		<g clip-path="url(#clip-kAolH8Q4)">
			<path d="M35,981.67v-1082h954v1082zM238.93,437.33c0,58.88 47.79,106.67 106.67,106.67c22.61,0 43.1,-6.82 60.59,-18.77l-0.86,8.1c0,58.88 47.79,106.67 106.67,106.67c58.88,0 106.67,-47.79 106.67,-106.67l-0.86,-8.1c17.07,11.95 37.98,18.77 60.59,18.77c58.88,0 106.67,-47.79 106.67,-106.67c0,-42.67 -25.18,-78.93 -61.02,-96c35.84,-17.07 61.02,-53.33 61.02,-96c0,-58.88 -47.79,-106.66 -106.67,-106.66c-22.61,0 -43.1,6.82 -60.59,18.77l0.86,-8.11c0,-58.88 -47.79,-106.66 -106.67,-106.66c-58.88,0 -106.67,47.78 -106.67,106.66l0.86,8.11c-17.07,-11.95 -37.98,-18.77 -60.59,-18.77c-58.88,0 -106.67,47.78 -106.67,106.66c0,42.67 25.18,78.93 61.02,96c-35.84,17.07 -61.02,53.33 -61.02,96zM512,938.67c0,-212.05 -171.95,-384 -384,-384c0,212.05 171.95,384 384,384c212.05,0 384,-171.95 384,-384c-212.05,0 -384,171.95 -384,384zM512,234.67c58.88,0 106.67,47.78 106.67,106.66c0,58.88 -47.79,106.67 -106.67,106.67c-58.88,0 -106.67,-47.79 -106.67,-106.67c0,-58.88 47.79,-106.66 106.67,-106.66z" fill="#000000" filter="url(#filter-daqElPcB)"/>
		</g>
	</g>
</svg>