<svg version="1.1" xmlns="http://www.w3.org/2000/svg" xmlns:xlink="http://www.w3.org/1999/xlink" viewBox="0,0,1024,1024">
	<!-- Color names: teamapps-color-1, teamapps-color-2, teamapps-color-3 -->
	<desc>local_shipping icon - Licensed under Apache License v2.0 (http://www.apache.org/licenses/LICENSE-2.0) - Created with Iconfu.com - Derivative work of Material icons (Copyright Google Inc.)</desc>
	<defs>
		<clipPath id="clip-AyC3n3X1">
			<path d="M981.33,512v213.33h-85.33c0,70.83 -57.17,128 -128,128c-70.83,0 -128,-57.17 -128,-128h-256c0,70.83 -57.17,128 -128,128c-70.83,0 -128,-57.17 -128,-128h-85.33v-469.33c0,-46.93 38.4,-85.33 85.33,-85.33h597.33v170.66h128zM725.33,405.33v106.67h190.3l-83.63,-106.67zM320,725.33c0,-35.41 -28.59,-64 -64,-64c-35.41,0 -64,28.59 -64,64c0,35.41 28.59,64 64,64c35.41,0 64,-28.59 64,-64zM832,725.33c0,-35.41 -28.59,-64 -64,-64c-35.41,0 -64,28.59 -64,64c0,35.41 28.59,64 64,64c35.41,0 64,-28.59 64,-64z"/>
		</clipPath>
		<linearGradient x1="0" y1="1024" x2="1024" y2="0" id="color-qoaPVbWN" gradientUnits="userSpaceOnUse">
			<stop offset="0.2" stop-color="#000000"/>
			<stop offset="0.8" stop-color="#ffffff"/>
		</linearGradient>
		<radialGradient cx="0" cy="0" r="1448.15" id="color-RUzPDn43" gradientUnits="userSpaceOnUse">
			<stop offset="0.07" stop-color="#ffffff"/>
			<stop offset="0.75" stop-color="#000000"/>
		</radialGradient>
		<filter id="filter-9uKQw9kV" x="0%" y="0%" width="100%" height="100%" color-interpolation-filters="sRGB">
			<feColorMatrix values="1 0 0 0 0 0 1 0 0 0 0 0 1 0 0 0 0 0 0.05 0" in="SourceGraphic"/>
			<feOffset dy="20"/>
			<feGaussianBlur stdDeviation="11" result="blur0"/>
			<feColorMatrix values="1 0 0 0 0 0 1 0 0 0 0 0 1 0 0 0 0 0 0.07 0" in="SourceGraphic"/>
			<feOffset dy="30"/>
			<feGaussianBlur stdDeviation="20" result="blur1"/>
			<feMerge>
				<feMergeNode in="blur0"/>
				<feMergeNode in="blur1"/>
			</feMerge>
		</filter>
		<filter id="filter-Msqu2UzS" color-interpolation-filters="sRGB">
			<feOffset/>
		</filter>
		<mask id="mask-AtXg5heA">
			<path d="M981.33,512v213.33h-85.33c0,70.83 -57.17,128 -128,128c-70.83,0 -128,-57.17 -128,-128h-256c0,70.83 -57.17,128 -128,128c-70.83,0 -128,-57.17 -128,-128h-85.33v-469.33c0,-46.93 38.4,-85.33 85.33,-85.33h597.33v170.66h128zM725.33,405.33v106.67h190.3l-83.63,-106.67zM320,725.33c0,-35.41 -28.59,-64 -64,-64c-35.41,0 -64,28.59 -64,64c0,35.41 28.59,64 64,64c35.41,0 64,-28.59 64,-64zM832,725.33c0,-35.41 -28.59,-64 -64,-64c-35.41,0 -64,28.59 -64,64c0,35.41 28.59,64 64,64c35.41,0 64,-28.59 64,-64z" fill="url(#color-RUzPDn43)"/>
		</mask>
		<mask id="mask-gnYfYAw2">
			<rect fill="url(#color-qoaPVbWN)" x="42.67" y="170.67" width="938.66" height="682.66"/>
		</mask>
		<mask id="mask-iKJ2D1tl">
			<path d="M981.33,512v213.33h-85.33c0,70.83 -57.17,128 -128,128c-70.83,0 -128,-57.17 -128,-128h-256c0,70.83 -57.17,128 -128,128c-70.83,0 -128,-57.17 -128,-128h-85.33v-469.33c0,-46.93 38.4,-85.33 85.33,-85.33h597.33v170.66h128zM725.33,405.33v106.67h190.3l-83.63,-106.67zM320,725.33c0,-35.41 -28.59,-64 -64,-64c-35.41,0 -64,28.59 -64,64c0,35.41 28.59,64 64,64c35.41,0 64,-28.59 64,-64zM832,725.33c0,-35.41 -28.59,-64 -64,-64c-35.41,0 -64,28.59 -64,64c0,35.41 28.59,64 64,64c35.41,0 64,-28.59 64,-64z" fill="#ffffff"/>
		</mask>
	</defs>
	<g fill="none" fill-rule="nonzero" style="mix-blend-mode: normal">
		<g mask="url(#mask-iKJ2D1tl)">
			<g color="#ffc107" class="teamapps-color-2">
				<rect x="42.67" y="170.67" width="938.66" height="682.66" fill="currentColor"/>
			</g>
			<g color="#e65100" class="teamapps-color-3" mask="url(#mask-gnYfYAw2)">
				<rect x="42.67" y="170.67" width="938.66" height="682.66" fill="currentColor"/>
			</g>
		</g>
		<g filter="url(#filter-Msqu2UzS)" mask="url(#mask-AtXg5heA)">
			<g color="#fff59d" class="teamapps-color-1">
				<rect x="42.67" y="170.67" width="938.66" height="682.66" fill="currentColor"/>
			</g>
		</g>
		<g clip-path="url(#clip-AyC3n3X1)">
			<path d="M-50.33,896.33v-868.66h1124.66v868.66zM853.33,341.33h-128v-170.66h-597.33c-46.93,0 -85.33,38.4 -85.33,85.33v469.33h85.33c0,70.83 57.17,128 128,128c70.83,0 128,-57.17 128,-128h256c0,70.83 57.17,128 128,128c70.83,0 128,-57.17 128,-128h85.33v-213.33zM832,405.33l83.63,106.67h-190.3v-106.67zM256,789.33c-35.41,0 -64,-28.59 -64,-64c0,-35.41 28.59,-64 64,-64c35.41,0 64,28.59 64,64c0,35.41 -28.59,64 -64,64zM768,789.33c-35.41,0 -64,-28.59 -64,-64c0,-35.41 28.59,-64 64,-64c35.41,0 64,28.59 64,64c0,35.41 -28.59,64 -64,64z" fill="#000000" filter="url(#filter-9uKQw9kV)"/>
		</g>
	</g>
</svg>