<svg version="1.1" xmlns="http://www.w3.org/2000/svg" xmlns:xlink="http://www.w3.org/1999/xlink" viewBox="0,0,1024,1024">
	<!-- Color names: teamapps-color-1, teamapps-color-2, teamapps-color-3 -->
	<desc>looks_6 icon - Licensed under Apache License v2.0 (http://www.apache.org/licenses/LICENSE-2.0) - Created with Iconfu.com - Derivative work of Material icons (Copyright Google Inc.)</desc>
	<defs>
		<clipPath id="clip-SyD4NCF2">
			<path d="M896,213.33v597.34c0,46.93 -38.4,85.33 -85.33,85.33h-597.34c-46.93,0 -85.33,-38.4 -85.33,-85.33v-597.34c0,-46.93 38.4,-85.33 85.33,-85.33h597.34c46.93,0 85.33,38.4 85.33,85.33zM640,298.67h-170.67c-46.93,0 -85.33,37.97 -85.33,85.33v256c0,47.36 38.4,85.33 85.33,85.33h85.34c46.93,0 85.33,-37.97 85.33,-85.33v-85.33c0,-47.36 -38.4,-85.34 -85.33,-85.34h-85.34v-85.33h170.67zM469.33,554.67h85.34v85.33h-85.34z"/>
		</clipPath>
		<radialGradient cx="0" cy="0" r="1448.15" id="color-eXYANjK7" gradientUnits="userSpaceOnUse">
			<stop offset="0.07" stop-color="#ffffff"/>
			<stop offset="0.75" stop-color="#000000"/>
		</radialGradient>
		<linearGradient x1="0" y1="1024" x2="1024" y2="0" id="color-LJAYw032" gradientUnits="userSpaceOnUse">
			<stop offset="0.2" stop-color="#000000"/>
			<stop offset="0.8" stop-color="#ffffff"/>
		</linearGradient>
		<filter id="filter-KFhWGV3k" x="0%" y="0%" width="100%" height="100%" color-interpolation-filters="sRGB">
			<feColorMatrix values="1 0 0 0 0 0 1 0 0 0 0 0 1 0 0 0 0 0 0.05 0" in="SourceGraphic"/>
			<feOffset dy="20"/>
			<feGaussianBlur stdDeviation="11" result="blur0"/>
			<feColorMatrix values="1 0 0 0 0 0 1 0 0 0 0 0 1 0 0 0 0 0 0.07 0" in="SourceGraphic"/>
			<feOffset dy="30"/>
			<feGaussianBlur stdDeviation="20" result="blur1"/>
			<feMerge>
				<feMergeNode in="blur0"/>
				<feMergeNode in="blur1"/>
			</feMerge>
		</filter>
		<filter id="filter-wMI5Uhc9" color-interpolation-filters="sRGB">
			<feOffset/>
		</filter>
		<mask id="mask-e2mJQ6Wx">
			<path d="M896,213.33v597.34c0,46.93 -38.4,85.33 -85.33,85.33h-597.34c-46.93,0 -85.33,-38.4 -85.33,-85.33v-597.34c0,-46.93 38.4,-85.33 85.33,-85.33h597.34c46.93,0 85.33,38.4 85.33,85.33zM640,298.67h-170.67c-46.93,0 -85.33,37.97 -85.33,85.33v256c0,47.36 38.4,85.33 85.33,85.33h85.34c46.93,0 85.33,-37.97 85.33,-85.33v-85.33c0,-47.36 -38.4,-85.34 -85.33,-85.34h-85.34v-85.33h170.67zM469.33,554.67h85.34v85.33h-85.34z" fill="url(#color-eXYANjK7)"/>
		</mask>
		<mask id="mask-grHdV5X9">
			<rect fill="url(#color-LJAYw032)" x="128" y="128" width="768" height="768"/>
		</mask>
		<mask id="mask-qPKQUtVm">
			<path d="M896,213.33v597.34c0,46.93 -38.4,85.33 -85.33,85.33h-597.34c-46.93,0 -85.33,-38.4 -85.33,-85.33v-597.34c0,-46.93 38.4,-85.33 85.33,-85.33h597.34c46.93,0 85.33,38.4 85.33,85.33zM640,298.67h-170.67c-46.93,0 -85.33,37.97 -85.33,85.33v256c0,47.36 38.4,85.33 85.33,85.33h85.34c46.93,0 85.33,-37.97 85.33,-85.33v-85.33c0,-47.36 -38.4,-85.34 -85.33,-85.34h-85.34v-85.33h170.67zM469.33,554.67h85.34v85.33h-85.34z" fill="#ffffff"/>
		</mask>
	</defs>
	<g fill="none" fill-rule="nonzero" style="mix-blend-mode: normal">
		<g mask="url(#mask-qPKQUtVm)">
			<g color="#ffc107" class="teamapps-color-2">
				<rect x="128" y="128" width="768" height="768" fill="currentColor"/>
			</g>
			<g color="#e65100" class="teamapps-color-3" mask="url(#mask-grHdV5X9)">
				<rect x="128" y="128" width="768" height="768" fill="currentColor"/>
			</g>
		</g>
		<g filter="url(#filter-wMI5Uhc9)" mask="url(#mask-e2mJQ6Wx)">
			<g color="#fff59d" class="teamapps-color-1">
				<rect x="128" y="128" width="768" height="768" fill="currentColor"/>
			</g>
		</g>
		<g clip-path="url(#clip-SyD4NCF2)">
			<path d="M35,939v-954h954v954zM810.67,128h-597.34c-46.93,0 -85.33,38.4 -85.33,85.33v597.34c0,46.93 38.4,85.33 85.33,85.33h597.34c46.93,0 85.33,-38.4 85.33,-85.33v-597.34c0,-46.93 -38.4,-85.33 -85.33,-85.33zM640,384h-170.67v85.33h85.34c46.93,0 85.33,37.98 85.33,85.34v85.33c0,47.36 -38.4,85.33 -85.33,85.33h-85.34c-46.93,0 -85.33,-37.97 -85.33,-85.33v-256c0,-47.36 38.4,-85.33 85.33,-85.33h170.67zM469.33,640h85.34v-85.33h-85.34z" fill="#000000" filter="url(#filter-KFhWGV3k)"/>
		</g>
	</g>
</svg>