<svg version="1.1" xmlns="http://www.w3.org/2000/svg" xmlns:xlink="http://www.w3.org/1999/xlink" viewBox="0,0,1024,1024">
	<!-- Color names: teamapps-color-1, teamapps-color-2, teamapps-color-3 -->
	<desc>loupe icon - Licensed under Apache License v2.0 (http://www.apache.org/licenses/LICENSE-2.0) - Created with Iconfu.com - Derivative work of Material icons (Copyright Google Inc.)</desc>
	<defs>
		<clipPath id="clip-LorZJTPM">
			<path d="M938.67,512v341.33c0,46.93 -38.41,85.34 -85.34,85.34h-341.33c-235.09,0 -426.67,-191.58 -426.67,-426.67c0,-235.09 191.58,-426.67 426.67,-426.67c235.09,0 426.67,191.58 426.67,426.67zM853.33,512c0,-188.16 -153.17,-341.33 -341.33,-341.33c-188.16,0 -341.33,153.17 -341.33,341.33c0,188.16 153.17,341.33 341.33,341.33c188.16,0 341.33,-153.17 341.33,-341.33zM554.67,469.33h170.66v85.34h-170.66v170.66h-85.34v-170.66h-170.66v-85.34h170.66v-170.66h85.34z"/>
		</clipPath>
		<linearGradient x1="0" y1="1024" x2="1024" y2="0" id="color-CilXdVz5" gradientUnits="userSpaceOnUse">
			<stop offset="0.2" stop-color="#000000"/>
			<stop offset="0.8" stop-color="#ffffff"/>
		</linearGradient>
		<radialGradient cx="0" cy="0" r="1448.15" id="color-GVqOrfJ0" gradientUnits="userSpaceOnUse">
			<stop offset="0.07" stop-color="#ffffff"/>
			<stop offset="0.75" stop-color="#000000"/>
		</radialGradient>
		<filter id="filter-2pxOmtR5" x="0%" y="0%" width="100%" height="100%" color-interpolation-filters="sRGB">
			<feColorMatrix values="1 0 0 0 0 0 1 0 0 0 0 0 1 0 0 0 0 0 0.05 0" in="SourceGraphic"/>
			<feOffset dy="20"/>
			<feGaussianBlur stdDeviation="11" result="blur0"/>
			<feColorMatrix values="1 0 0 0 0 0 1 0 0 0 0 0 1 0 0 0 0 0 0.07 0" in="SourceGraphic"/>
			<feOffset dy="30"/>
			<feGaussianBlur stdDeviation="20" result="blur1"/>
			<feMerge>
				<feMergeNode in="blur0"/>
				<feMergeNode in="blur1"/>
			</feMerge>
		</filter>
		<filter id="filter-NcRlHCED" color-interpolation-filters="sRGB">
			<feOffset/>
		</filter>
		<mask id="mask-7FPtWpzT">
			<path d="M938.67,512v341.33c0,46.93 -38.41,85.34 -85.34,85.34h-341.33c-235.09,0 -426.67,-191.58 -426.67,-426.67c0,-235.09 191.58,-426.67 426.67,-426.67c235.09,0 426.67,191.58 426.67,426.67zM853.33,512c0,-188.16 -153.17,-341.33 -341.33,-341.33c-188.16,0 -341.33,153.17 -341.33,341.33c0,188.16 153.17,341.33 341.33,341.33c188.16,0 341.33,-153.17 341.33,-341.33zM554.67,469.33h170.66v85.34h-170.66v170.66h-85.34v-170.66h-170.66v-85.34h170.66v-170.66h85.34z" fill="url(#color-GVqOrfJ0)"/>
		</mask>
		<mask id="mask-D5LNLp2Q">
			<path d="M938.67,512v341.33c0,46.93 -38.41,85.34 -85.34,85.34h-341.33c-235.09,0 -426.67,-191.58 -426.67,-426.67c0,-235.09 191.58,-426.67 426.67,-426.67c235.09,0 426.67,191.58 426.67,426.67zM853.33,512c0,-188.16 -153.17,-341.33 -341.33,-341.33c-188.16,0 -341.33,153.17 -341.33,341.33c0,188.16 153.17,341.33 341.33,341.33c188.16,0 341.33,-153.17 341.33,-341.33zM554.67,469.33h170.66v85.34h-170.66v170.66h-85.34v-170.66h-170.66v-85.34h170.66v-170.66h85.34z" fill="#ffffff"/>
		</mask>
		<mask id="mask-sMhvTdxb">
			<rect fill="url(#color-CilXdVz5)" x="85.33" y="85.33" width="853.34" height="853.34"/>
		</mask>
	</defs>
	<g fill="none" fill-rule="nonzero" style="mix-blend-mode: normal">
		<g mask="url(#mask-D5LNLp2Q)">
			<g color="#ffc107" class="teamapps-color-2">
				<rect x="85.33" y="85.33" width="853.34" height="853.34" fill="currentColor"/>
			</g>
			<g color="#e65100" class="teamapps-color-3" mask="url(#mask-sMhvTdxb)">
				<rect x="85.33" y="85.33" width="853.34" height="853.34" fill="currentColor"/>
			</g>
		</g>
		<g filter="url(#filter-NcRlHCED)" mask="url(#mask-7FPtWpzT)">
			<g color="#fff59d" class="teamapps-color-1">
				<rect x="85.33" y="85.33" width="853.34" height="853.34" fill="currentColor"/>
			</g>
		</g>
		<g clip-path="url(#clip-LorZJTPM)">
			<path d="M-7.67,981.67v-1039.34h1039.34v1039.34zM512,85.33c-235.09,0 -426.67,191.58 -426.67,426.67c0,235.09 191.58,426.67 426.67,426.67h341.33c46.93,0 85.34,-38.41 85.34,-85.34v-341.33c0,-235.09 -191.58,-426.67 -426.67,-426.67zM512,853.33c-188.16,0 -341.33,-153.17 -341.33,-341.33c0,-188.16 153.17,-341.33 341.33,-341.33c188.16,0 341.33,153.17 341.33,341.33c0,188.16 -153.17,341.33 -341.33,341.33zM554.67,298.67h-85.34v170.66h-170.66v85.34h170.66v170.66h85.34v-170.66h170.66v-85.34h-170.66z" fill="#000000" filter="url(#filter-2pxOmtR5)"/>
		</g>
	</g>
</svg>