<svg version="1.1" xmlns="http://www.w3.org/2000/svg" xmlns:xlink="http://www.w3.org/1999/xlink" viewBox="0,0,1024,1024">
	<!-- Color names: teamapps-color-1, teamapps-color-2, teamapps-color-3 -->
	<desc>message icon - Licensed under Apache License v2.0 (http://www.apache.org/licenses/LICENSE-2.0) - Created with Iconfu.com - Derivative work of Material icons (Copyright Google Inc.)</desc>
	<defs>
		<clipPath id="clip-lObHYmVO">
			<path d="M938.67,170.67v512c0,46.93 -38.41,85.33 -85.34,85.33h-597.33l-170.67,170.67l0.43,-768c0,-46.93 37.98,-85.34 84.91,-85.34h682.66c46.93,0 85.34,38.41 85.34,85.34zM768,384h-512v85.33h512zM768,256h-512v85.33h512zM768,512h-512v85.33h512z"/>
		</clipPath>
		<radialGradient cx="0" cy="0" r="1448.15" id="color-sgd0osPh" gradientUnits="userSpaceOnUse">
			<stop offset="0.07" stop-color="#ffffff"/>
			<stop offset="0.75" stop-color="#000000"/>
		</radialGradient>
		<linearGradient x1="0" y1="1024" x2="1024" y2="0" id="color-XgHh9iXm" gradientUnits="userSpaceOnUse">
			<stop offset="0.2" stop-color="#000000"/>
			<stop offset="0.8" stop-color="#ffffff"/>
		</linearGradient>
		<filter id="filter-ISfbeeRz" x="0%" y="0%" width="100%" height="100%" color-interpolation-filters="sRGB">
			<feColorMatrix values="1 0 0 0 0 0 1 0 0 0 0 0 1 0 0 0 0 0 0.05 0" in="SourceGraphic"/>
			<feOffset dy="20"/>
			<feGaussianBlur stdDeviation="11" result="blur0"/>
			<feColorMatrix values="1 0 0 0 0 0 1 0 0 0 0 0 1 0 0 0 0 0 0.07 0" in="SourceGraphic"/>
			<feOffset dy="30"/>
			<feGaussianBlur stdDeviation="20" result="blur1"/>
			<feMerge>
				<feMergeNode in="blur0"/>
				<feMergeNode in="blur1"/>
			</feMerge>
		</filter>
		<filter id="filter-jMy5rEHP" color-interpolation-filters="sRGB">
			<feOffset/>
		</filter>
		<mask id="mask-CPw0i58g">
			<rect fill="url(#color-XgHh9iXm)" x="85.33" y="85.33" width="853.34" height="853.34"/>
		</mask>
		<mask id="mask-j4Gwg2A7">
			<path d="M938.67,170.67v512c0,46.93 -38.41,85.33 -85.34,85.33h-597.33l-170.67,170.67l0.43,-768c0,-46.93 37.98,-85.34 84.91,-85.34h682.66c46.93,0 85.34,38.41 85.34,85.34zM768,384h-512v85.33h512zM768,256h-512v85.33h512zM768,512h-512v85.33h512z" fill="url(#color-sgd0osPh)"/>
		</mask>
		<mask id="mask-LVVfNEIn">
			<path d="M938.67,170.67v512c0,46.93 -38.41,85.33 -85.34,85.33h-597.33l-170.67,170.67l0.43,-768c0,-46.93 37.98,-85.34 84.91,-85.34h682.66c46.93,0 85.34,38.41 85.34,85.34zM768,384h-512v85.33h512zM768,256h-512v85.33h512zM768,512h-512v85.33h512z" fill="#ffffff"/>
		</mask>
	</defs>
	<g fill="none" fill-rule="nonzero" style="mix-blend-mode: normal">
		<g mask="url(#mask-LVVfNEIn)">
			<g color="#ffc107" class="teamapps-color-2">
				<rect x="85.33" y="85.33" width="853.34" height="853.34" fill="currentColor"/>
			</g>
			<g color="#e65100" class="teamapps-color-3" mask="url(#mask-CPw0i58g)">
				<rect x="85.33" y="85.33" width="853.34" height="853.34" fill="currentColor"/>
			</g>
		</g>
		<g filter="url(#filter-jMy5rEHP)" mask="url(#mask-j4Gwg2A7)">
			<g color="#fff59d" class="teamapps-color-1">
				<rect x="85.33" y="85.33" width="853.34" height="853.34" fill="currentColor"/>
			</g>
		</g>
		<g clip-path="url(#clip-lObHYmVO)">
			<path d="M-7.67,981.67v-1039.34h1039.34v1039.34zM853.33,85.33h-682.66c-46.93,0 -84.91,38.41 -84.91,85.34l-0.43,768l170.67,-170.67h597.33c46.93,0 85.34,-38.4 85.34,-85.33v-512c0,-46.93 -38.41,-85.34 -85.34,-85.34zM768,469.33h-512v-85.33h512zM768,341.33h-512v-85.33h512zM768,597.33h-512v-85.33h512z" fill="#000000" filter="url(#filter-ISfbeeRz)"/>
		</g>
	</g>
</svg>