<svg version="1.1" xmlns="http://www.w3.org/2000/svg" xmlns:xlink="http://www.w3.org/1999/xlink" viewBox="0,0,1024,1024">
	<!-- Color names: teamapps-color-1, teamapps-color-2, teamapps-color-3 -->
	<desc>monochrome_photos icon - Licensed under Apache License v2.0 (http://www.apache.org/licenses/LICENSE-2.0) - Created with Iconfu.com - Derivative work of Material icons (Copyright Google Inc.)</desc>
	<defs>
		<clipPath id="clip-EhT3bYQH">
			<path d="M938.67,298.67v512c0,46.93 -38.41,85.33 -85.34,85.33h-682.66c-46.93,0 -85.34,-38.4 -85.34,-85.33v-512c0,-46.93 38.41,-85.34 85.34,-85.34h136.53l76.8,-85.33h256l76.8,85.33h136.53c46.93,0 85.34,38.41 85.34,85.34zM853.33,298.67h-341.33v42.66c119.47,0 213.33,93.87 213.33,213.34c0,119.47 -93.86,213.33 -213.33,213.33v42.67h341.33zM298.67,554.67c0,119.47 93.86,213.33 213.33,213.33v-76.8c-76.8,0 -136.53,-59.73 -136.53,-136.53c0,-76.8 59.73,-136.54 136.53,-136.54v-76.8c-119.47,0 -213.33,93.87 -213.33,213.34zM648.53,554.67c0,-76.8 -59.73,-136.54 -136.53,-136.54v273.07c76.8,0 136.53,-59.73 136.53,-136.53z"/>
		</clipPath>
		<radialGradient cx="0" cy="0" r="1448.15" id="color-OwpDI74s" gradientUnits="userSpaceOnUse">
			<stop offset="0.07" stop-color="#ffffff"/>
			<stop offset="0.75" stop-color="#000000"/>
		</radialGradient>
		<linearGradient x1="0" y1="1024" x2="1024" y2="0" id="color-VBGU1cJ7" gradientUnits="userSpaceOnUse">
			<stop offset="0.2" stop-color="#000000"/>
			<stop offset="0.8" stop-color="#ffffff"/>
		</linearGradient>
		<filter id="filter-3YfqwewH" color-interpolation-filters="sRGB">
			<feOffset/>
		</filter>
		<filter id="filter-fhXWRdXz" x="0%" y="0%" width="100%" height="100%" color-interpolation-filters="sRGB">
			<feColorMatrix values="1 0 0 0 0 0 1 0 0 0 0 0 1 0 0 0 0 0 0.05 0" in="SourceGraphic"/>
			<feOffset dy="20"/>
			<feGaussianBlur stdDeviation="11" result="blur0"/>
			<feColorMatrix values="1 0 0 0 0 0 1 0 0 0 0 0 1 0 0 0 0 0 0.07 0" in="SourceGraphic"/>
			<feOffset dy="30"/>
			<feGaussianBlur stdDeviation="20" result="blur1"/>
			<feMerge>
				<feMergeNode in="blur0"/>
				<feMergeNode in="blur1"/>
			</feMerge>
		</filter>
		<mask id="mask-7x27eGxp">
			<path d="M938.67,298.67v512c0,46.93 -38.41,85.33 -85.34,85.33h-682.66c-46.93,0 -85.34,-38.4 -85.34,-85.33v-512c0,-46.93 38.41,-85.34 85.34,-85.34h136.53l76.8,-85.33h256l76.8,85.33h136.53c46.93,0 85.34,38.41 85.34,85.34zM853.33,298.67h-341.33v42.66c119.47,0 213.33,93.87 213.33,213.34c0,119.47 -93.86,213.33 -213.33,213.33v42.67h341.33zM298.67,554.67c0,119.47 93.86,213.33 213.33,213.33v-76.8c-76.8,0 -136.53,-59.73 -136.53,-136.53c0,-76.8 59.73,-136.54 136.53,-136.54v-76.8c-119.47,0 -213.33,93.87 -213.33,213.34zM648.53,554.67c0,-76.8 -59.73,-136.54 -136.53,-136.54v273.07c76.8,0 136.53,-59.73 136.53,-136.53z" fill="#ffffff"/>
		</mask>
		<mask id="mask-RBWAcuy2">
			<path d="M938.67,298.67v512c0,46.93 -38.41,85.33 -85.34,85.33h-682.66c-46.93,0 -85.34,-38.4 -85.34,-85.33v-512c0,-46.93 38.41,-85.34 85.34,-85.34h136.53l76.8,-85.33h256l76.8,85.33h136.53c46.93,0 85.34,38.41 85.34,85.34zM853.33,298.67h-341.33v42.66c119.47,0 213.33,93.87 213.33,213.34c0,119.47 -93.86,213.33 -213.33,213.33v42.67h341.33zM298.67,554.67c0,119.47 93.86,213.33 213.33,213.33v-76.8c-76.8,0 -136.53,-59.73 -136.53,-136.53c0,-76.8 59.73,-136.54 136.53,-136.54v-76.8c-119.47,0 -213.33,93.87 -213.33,213.34zM648.53,554.67c0,-76.8 -59.73,-136.54 -136.53,-136.54v273.07c76.8,0 136.53,-59.73 136.53,-136.53z" fill="url(#color-OwpDI74s)"/>
		</mask>
		<mask id="mask-XAkRh89H">
			<rect fill="url(#color-VBGU1cJ7)" x="85.33" y="128" width="853.34" height="768"/>
		</mask>
	</defs>
	<g fill="none" fill-rule="nonzero" style="mix-blend-mode: normal">
		<g mask="url(#mask-7x27eGxp)">
			<g color="#ffc107" class="teamapps-color-2">
				<rect x="85.33" y="128" width="853.34" height="768" fill="currentColor"/>
			</g>
			<g color="#e65100" class="teamapps-color-3" mask="url(#mask-XAkRh89H)">
				<rect x="85.33" y="128" width="853.34" height="768" fill="currentColor"/>
			</g>
		</g>
		<g filter="url(#filter-3YfqwewH)" mask="url(#mask-RBWAcuy2)">
			<g color="#fff59d" class="teamapps-color-1">
				<rect x="85.33" y="128" width="853.34" height="768" fill="currentColor"/>
			</g>
		</g>
		<g clip-path="url(#clip-EhT3bYQH)">
			<path d="M-7.67,939v-954h1039.34v954zM853.33,213.33h-136.53l-76.8,-85.33h-256l-76.8,85.33h-136.53c-46.93,0 -85.34,38.41 -85.34,85.34v512c0,46.93 38.41,85.33 85.34,85.33h682.66c46.93,0 85.34,-38.4 85.34,-85.33v-512c0,-46.93 -38.41,-85.34 -85.34,-85.34zM853.33,810.67h-341.33v-42.67c119.47,0 213.33,-93.86 213.33,-213.33c0,-119.47 -93.86,-213.34 -213.33,-213.34v-42.66h341.33zM512,341.33v76.8c-76.8,0 -136.53,59.74 -136.53,136.54c0,76.8 59.73,136.53 136.53,136.53v76.8c-119.47,0 -213.33,-93.86 -213.33,-213.33c0,-119.47 93.86,-213.34 213.33,-213.34zM512,691.2v-273.07c76.8,0 136.53,59.74 136.53,136.54c0,76.8 -59.73,136.53 -136.53,136.53z" fill="#000000" filter="url(#filter-fhXWRdXz)"/>
		</g>
	</g>
</svg>