<svg version="1.1" xmlns="http://www.w3.org/2000/svg" xmlns:xlink="http://www.w3.org/1999/xlink" viewBox="0,0,1024,1024">
	<!-- Color names: teamapps-color-1, teamapps-color-2, teamapps-color-3 -->
	<desc>mouse icon - Licensed under Apache License v2.0 (http://www.apache.org/licenses/LICENSE-2.0) - Created with Iconfu.com - Derivative work of Material icons (Copyright Google Inc.)</desc>
	<defs>
		<clipPath id="clip-kuwTNPnI">
			<path d="M170.67,469.33h682.66v170.67c0,188.59 -152.74,341.33 -341.33,341.33c-188.59,0 -341.33,-152.74 -341.33,-341.33zM853.33,384h-298.66v-338.35c168.53,20.91 298.66,164.27 298.66,338.35zM469.33,384h-298.66c0,-174.08 130.13,-317.44 298.66,-338.35z"/>
		</clipPath>
		<radialGradient cx="0" cy="0" r="1448.15" id="color-imHUZz1i" gradientUnits="userSpaceOnUse">
			<stop offset="0.07" stop-color="#ffffff"/>
			<stop offset="0.75" stop-color="#000000"/>
		</radialGradient>
		<linearGradient x1="0" y1="1024" x2="1024" y2="0" id="color-SQQrhsOe" gradientUnits="userSpaceOnUse">
			<stop offset="0.2" stop-color="#000000"/>
			<stop offset="0.8" stop-color="#ffffff"/>
		</linearGradient>
		<filter id="filter-e0gjCI9C" color-interpolation-filters="sRGB">
			<feOffset/>
		</filter>
		<filter id="filter-nJPq5hes" x="0%" y="0%" width="100%" height="100%" color-interpolation-filters="sRGB">
			<feColorMatrix values="1 0 0 0 0 0 1 0 0 0 0 0 1 0 0 0 0 0 0.05 0" in="SourceGraphic"/>
			<feOffset dy="20"/>
			<feGaussianBlur stdDeviation="11" result="blur0"/>
			<feColorMatrix values="1 0 0 0 0 0 1 0 0 0 0 0 1 0 0 0 0 0 0.07 0" in="SourceGraphic"/>
			<feOffset dy="30"/>
			<feGaussianBlur stdDeviation="20" result="blur1"/>
			<feMerge>
				<feMergeNode in="blur0"/>
				<feMergeNode in="blur1"/>
			</feMerge>
		</filter>
		<mask id="mask-iu1fB4Ac">
			<path d="M170.67,469.33h682.66v170.67c0,188.59 -152.74,341.33 -341.33,341.33c-188.59,0 -341.33,-152.74 -341.33,-341.33zM853.33,384h-298.66v-338.35c168.53,20.91 298.66,164.27 298.66,338.35zM469.33,384h-298.66c0,-174.08 130.13,-317.44 298.66,-338.35z" fill="url(#color-imHUZz1i)"/>
		</mask>
		<mask id="mask-LWaJfHUe">
			<rect fill="url(#color-SQQrhsOe)" x="170.67" y="45.65" width="682.66" height="935.68"/>
		</mask>
		<mask id="mask-UeIHk5Vn">
			<path d="M170.67,469.33h682.66v170.67c0,188.59 -152.74,341.33 -341.33,341.33c-188.59,0 -341.33,-152.74 -341.33,-341.33zM853.33,384h-298.66v-338.35c168.53,20.91 298.66,164.27 298.66,338.35zM469.33,384h-298.66c0,-174.08 130.13,-317.44 298.66,-338.35z" fill="#ffffff"/>
		</mask>
	</defs>
	<g fill="none" fill-rule="nonzero" style="mix-blend-mode: normal">
		<g mask="url(#mask-UeIHk5Vn)">
			<g color="#ffc107" class="teamapps-color-2">
				<rect x="170.67" y="45.65" width="682.66" height="935.68" fill="currentColor"/>
			</g>
			<g color="#e65100" class="teamapps-color-3" mask="url(#mask-LWaJfHUe)">
				<rect x="170.67" y="45.65" width="682.66" height="935.68" fill="currentColor"/>
			</g>
		</g>
		<g filter="url(#filter-e0gjCI9C)" mask="url(#mask-iu1fB4Ac)">
			<g color="#fff59d" class="teamapps-color-1">
				<rect x="170.67" y="45.65" width="682.66" height="935.68" fill="currentColor"/>
			</g>
		</g>
		<g clip-path="url(#clip-kuwTNPnI)">
			<path d="M77.67,1024.33v-1121.68h868.66v1121.68zM170.67,640c0,188.59 152.74,341.33 341.33,341.33c188.59,0 341.33,-152.74 341.33,-341.33v-170.67h-682.66zM554.67,45.65v338.35h298.66c0,-174.08 -130.13,-317.44 -298.66,-338.35zM469.33,45.65c-168.53,20.91 -298.66,164.27 -298.66,338.35h298.66z" fill="#000000" filter="url(#filter-nJPq5hes)"/>
		</g>
	</g>
</svg>