<svg version="1.1" xmlns="http://www.w3.org/2000/svg" xmlns:xlink="http://www.w3.org/1999/xlink" viewBox="0,0,1024,1024">
	<!-- Color names: teamapps-color-1, teamapps-color-2, teamapps-color-3 -->
	<desc>navigate_next icon - Licensed under Apache License v2.0 (http://www.apache.org/licenses/LICENSE-2.0) - Created with Iconfu.com - Derivative work of Material icons (Copyright Google Inc.)</desc>
	<defs>
		<clipPath id="clip-yMbw3PJv">
			<path d="M682.67,512l-256,256l-60.16,-60.16l195.41,-195.84l-195.41,-195.84l60.16,-60.16z"/>
		</clipPath>
		<radialGradient cx="0" cy="0" r="1448.15" id="color-aujlPVX8" gradientUnits="userSpaceOnUse">
			<stop offset="0.07" stop-color="#ffffff"/>
			<stop offset="0.75" stop-color="#000000"/>
		</radialGradient>
		<linearGradient x1="0" y1="1024" x2="1024" y2="0" id="color-UbOyTf6V" gradientUnits="userSpaceOnUse">
			<stop offset="0.2" stop-color="#000000"/>
			<stop offset="0.8" stop-color="#ffffff"/>
		</linearGradient>
		<filter id="filter-cKxPyXNE" color-interpolation-filters="sRGB">
			<feOffset/>
		</filter>
		<filter id="filter-W5q8tstj" x="0%" y="0%" width="100%" height="100%" color-interpolation-filters="sRGB">
			<feColorMatrix values="1 0 0 0 0 0 1 0 0 0 0 0 1 0 0 0 0 0 0.05 0" in="SourceGraphic"/>
			<feOffset dy="20"/>
			<feGaussianBlur stdDeviation="11" result="blur0"/>
			<feColorMatrix values="1 0 0 0 0 0 1 0 0 0 0 0 1 0 0 0 0 0 0.07 0" in="SourceGraphic"/>
			<feOffset dy="30"/>
			<feGaussianBlur stdDeviation="20" result="blur1"/>
			<feMerge>
				<feMergeNode in="blur0"/>
				<feMergeNode in="blur1"/>
			</feMerge>
		</filter>
		<mask id="mask-33IEANk6">
			<path d="M682.67,512l-256,256l-60.16,-60.16l195.41,-195.84l-195.41,-195.84l60.16,-60.16z" fill="url(#color-aujlPVX8)"/>
		</mask>
		<mask id="mask-lKxhnUam">
			<rect fill="url(#color-UbOyTf6V)" x="366.51" y="256" width="316.16" height="512"/>
		</mask>
		<mask id="mask-VF4ztpC3">
			<path d="M682.67,512l-256,256l-60.16,-60.16l195.41,-195.84l-195.41,-195.84l60.16,-60.16z" fill="#ffffff"/>
		</mask>
	</defs>
	<g fill="none" fill-rule="nonzero" style="mix-blend-mode: normal">
		<g mask="url(#mask-VF4ztpC3)">
			<g color="#ffc107" class="teamapps-color-2">
				<rect x="366.51" y="256" width="316.16" height="512" fill="currentColor"/>
			</g>
			<g color="#e65100" class="teamapps-color-3" mask="url(#mask-lKxhnUam)">
				<rect x="366.51" y="256" width="316.16" height="512" fill="currentColor"/>
			</g>
		</g>
		<g filter="url(#filter-cKxPyXNE)" mask="url(#mask-33IEANk6)">
			<g color="#fff59d" class="teamapps-color-1">
				<rect x="366.51" y="256" width="316.16" height="512" fill="currentColor"/>
			</g>
		</g>
		<g clip-path="url(#clip-yMbw3PJv)">
			<path d="M273.51,811v-698h502.16v698zM426.67,256l-60.16,60.16l195.41,195.84l-195.41,195.84l60.16,60.16l256,-256z" fill="#000000" filter="url(#filter-W5q8tstj)"/>
		</g>
	</g>
</svg>