<svg version="1.1" xmlns="http://www.w3.org/2000/svg" xmlns:xlink="http://www.w3.org/1999/xlink" viewBox="0,0,1024,1024">
	<!-- Color names: teamapps-color-1, teamapps-color-2, teamapps-color-3 -->
	<desc>no_encryption icon - Licensed under Apache License v2.0 (http://www.apache.org/licenses/LICENSE-2.0) - Created with Iconfu.com - Derivative work of Material icons (Copyright Google Inc.)</desc>
	<defs>
		<clipPath id="clip-0bqBY3BG">
			<path d="M843.95,981.33l-47.79,-47.78c-8.96,2.99 -18.35,5.12 -28.16,5.12h-512c-46.93,0 -85.33,-38.41 -85.33,-85.34v-426.66c0,-32 17.92,-59.73 44.37,-74.24l-87.04,-87.04l52.05,-52.06l715.95,715.95zM379.73,308.91l-78.5,-78.51c12.8,-105.39 101.54,-187.73 210.77,-187.73c117.76,0 213.33,95.57 213.33,213.33v85.33h42.67c46.93,0 85.33,38.41 85.33,85.34v355.84l-441.17,-441.18h232.11v-85.33c0,-72.96 -59.31,-132.27 -132.27,-132.27c-72.96,0 -132.27,59.31 -132.27,132.27z"/>
		</clipPath>
		<radialGradient cx="0" cy="0" r="1448.15" id="color-0Soyu4jv" gradientUnits="userSpaceOnUse">
			<stop offset="0.07" stop-color="#ffffff"/>
			<stop offset="0.75" stop-color="#000000"/>
		</radialGradient>
		<linearGradient x1="0" y1="1024" x2="1024" y2="0" id="color-O72Cth9m" gradientUnits="userSpaceOnUse">
			<stop offset="0.2" stop-color="#000000"/>
			<stop offset="0.8" stop-color="#ffffff"/>
		</linearGradient>
		<filter id="filter-EvWh8sLe" x="0%" y="0%" width="100%" height="100%" color-interpolation-filters="sRGB">
			<feColorMatrix values="1 0 0 0 0 0 1 0 0 0 0 0 1 0 0 0 0 0 0.05 0" in="SourceGraphic"/>
			<feOffset dy="20"/>
			<feGaussianBlur stdDeviation="11" result="blur0"/>
			<feColorMatrix values="1 0 0 0 0 0 1 0 0 0 0 0 1 0 0 0 0 0 0.07 0" in="SourceGraphic"/>
			<feOffset dy="30"/>
			<feGaussianBlur stdDeviation="20" result="blur1"/>
			<feMerge>
				<feMergeNode in="blur0"/>
				<feMergeNode in="blur1"/>
			</feMerge>
		</filter>
		<filter id="filter-ox2LaXoc" color-interpolation-filters="sRGB">
			<feOffset/>
		</filter>
		<mask id="mask-1MabL71b">
			<rect fill="url(#color-O72Cth9m)" x="128" y="42.67" width="768" height="938.66"/>
		</mask>
		<mask id="mask-DgefnPWC">
			<path d="M843.95,981.33l-47.79,-47.78c-8.96,2.99 -18.35,5.12 -28.16,5.12h-512c-46.93,0 -85.33,-38.41 -85.33,-85.34v-426.66c0,-32 17.92,-59.73 44.37,-74.24l-87.04,-87.04l52.05,-52.06l715.95,715.95zM379.73,308.91l-78.5,-78.51c12.8,-105.39 101.54,-187.73 210.77,-187.73c117.76,0 213.33,95.57 213.33,213.33v85.33h42.67c46.93,0 85.33,38.41 85.33,85.34v355.84l-441.17,-441.18h232.11v-85.33c0,-72.96 -59.31,-132.27 -132.27,-132.27c-72.96,0 -132.27,59.31 -132.27,132.27z" fill="url(#color-0Soyu4jv)"/>
		</mask>
		<mask id="mask-nVdI8ZVx">
			<path d="M843.95,981.33l-47.79,-47.78c-8.96,2.99 -18.35,5.12 -28.16,5.12h-512c-46.93,0 -85.33,-38.41 -85.33,-85.34v-426.66c0,-32 17.92,-59.73 44.37,-74.24l-87.04,-87.04l52.05,-52.06l715.95,715.95zM379.73,308.91l-78.5,-78.51c12.8,-105.39 101.54,-187.73 210.77,-187.73c117.76,0 213.33,95.57 213.33,213.33v85.33h42.67c46.93,0 85.33,38.41 85.33,85.34v355.84l-441.17,-441.18h232.11v-85.33c0,-72.96 -59.31,-132.27 -132.27,-132.27c-72.96,0 -132.27,59.31 -132.27,132.27z" fill="#ffffff"/>
		</mask>
	</defs>
	<g fill="none" fill-rule="nonzero" style="mix-blend-mode: normal">
		<g mask="url(#mask-nVdI8ZVx)">
			<g color="#ffc107" class="teamapps-color-2">
				<rect x="128" y="42.67" width="768" height="938.66" fill="currentColor"/>
			</g>
			<g color="#e65100" class="teamapps-color-3" mask="url(#mask-1MabL71b)">
				<rect x="128" y="42.67" width="768" height="938.66" fill="currentColor"/>
			</g>
		</g>
		<g filter="url(#filter-ox2LaXoc)" mask="url(#mask-DgefnPWC)">
			<g color="#fff59d" class="teamapps-color-1">
				<rect x="128" y="42.67" width="768" height="938.66" fill="currentColor"/>
			</g>
		</g>
		<g clip-path="url(#clip-0bqBY3BG)">
			<path d="M35,1024.33v-1124.66h954v1124.66zM896,929.28l-715.95,-715.95l-52.05,52.06l87.04,87.04c-26.45,14.51 -44.37,42.24 -44.37,74.24v426.66c0,46.93 38.4,85.34 85.33,85.34h512c9.81,0 19.2,-2.13 28.16,-5.12l47.79,47.78zM379.73,256c0,-72.96 59.31,-132.27 132.27,-132.27c72.96,0 132.27,59.31 132.27,132.27v85.33h-232.11l441.17,441.18v-355.84c0,-46.93 -38.4,-85.34 -85.33,-85.34h-42.67v-85.33c0,-117.76 -95.57,-213.33 -213.33,-213.33c-109.23,0 -197.97,82.34 -210.77,187.73l78.5,78.51z" fill="#000000" filter="url(#filter-EvWh8sLe)"/>
		</g>
	</g>
</svg>