<svg version="1.1" xmlns="http://www.w3.org/2000/svg" xmlns:xlink="http://www.w3.org/1999/xlink" viewBox="0,0,1024,1024">
	<!-- Color names: teamapps-color-1, teamapps-color-2, teamapps-color-3 -->
	<desc>palette icon - Licensed under Apache License v2.0 (http://www.apache.org/licenses/LICENSE-2.0) - Created with Iconfu.com - Derivative work of Material icons (Copyright Google Inc.)</desc>
	<defs>
		<clipPath id="clip-fIp6AXnk">
			<path d="M896,469.33c0,117.76 -95.57,213.34 -213.33,213.34h-75.52c-35.41,0 -64,28.59 -64,64c0,16.21 6.4,31.15 16.21,42.24c10.24,11.52 16.64,26.45 16.64,43.09c0,35.41 -28.59,64 -64,64c-212.05,0 -384,-171.95 -384,-384c0,-212.05 171.95,-384 384,-384c212.05,0 384,152.74 384,341.33zM341.33,448c0,-35.41 -28.59,-64 -64,-64c-35.41,0 -64,28.59 -64,64c0,35.41 28.59,64 64,64c35.41,0 64,-28.59 64,-64zM469.33,277.33c0,-35.41 -28.59,-64 -64,-64c-35.41,0 -64,28.59 -64,64c0,35.41 28.59,64 64,64c35.41,0 64,-28.59 64,-64zM682.67,277.33c0,-35.41 -28.59,-64 -64,-64c-35.41,0 -64,28.59 -64,64c0,35.41 28.59,64 64,64c35.41,0 64,-28.59 64,-64zM810.67,448c0,-35.41 -28.59,-64 -64,-64c-35.41,0 -64,28.59 -64,64c0,35.41 28.59,64 64,64c35.41,0 64,-28.59 64,-64z"/>
		</clipPath>
		<linearGradient x1="0" y1="1024" x2="1024" y2="0" id="color-1OLMYbZC" gradientUnits="userSpaceOnUse">
			<stop offset="0.2" stop-color="#000000"/>
			<stop offset="0.8" stop-color="#ffffff"/>
		</linearGradient>
		<radialGradient cx="0" cy="0" r="1448.15" id="color-bzveSexh" gradientUnits="userSpaceOnUse">
			<stop offset="0.07" stop-color="#ffffff"/>
			<stop offset="0.75" stop-color="#000000"/>
		</radialGradient>
		<filter id="filter-KQpNaH7D" x="0%" y="0%" width="100%" height="100%" color-interpolation-filters="sRGB">
			<feColorMatrix values="1 0 0 0 0 0 1 0 0 0 0 0 1 0 0 0 0 0 0.05 0" in="SourceGraphic"/>
			<feOffset dy="20"/>
			<feGaussianBlur stdDeviation="11" result="blur0"/>
			<feColorMatrix values="1 0 0 0 0 0 1 0 0 0 0 0 1 0 0 0 0 0 0.07 0" in="SourceGraphic"/>
			<feOffset dy="30"/>
			<feGaussianBlur stdDeviation="20" result="blur1"/>
			<feMerge>
				<feMergeNode in="blur0"/>
				<feMergeNode in="blur1"/>
			</feMerge>
		</filter>
		<filter id="filter-vumxYp7b" color-interpolation-filters="sRGB">
			<feOffset/>
		</filter>
		<mask id="mask-ytZ83JPJ">
			<path d="M896,469.33c0,117.76 -95.57,213.34 -213.33,213.34h-75.52c-35.41,0 -64,28.59 -64,64c0,16.21 6.4,31.15 16.21,42.24c10.24,11.52 16.64,26.45 16.64,43.09c0,35.41 -28.59,64 -64,64c-212.05,0 -384,-171.95 -384,-384c0,-212.05 171.95,-384 384,-384c212.05,0 384,152.74 384,341.33zM341.33,448c0,-35.41 -28.59,-64 -64,-64c-35.41,0 -64,28.59 -64,64c0,35.41 28.59,64 64,64c35.41,0 64,-28.59 64,-64zM469.33,277.33c0,-35.41 -28.59,-64 -64,-64c-35.41,0 -64,28.59 -64,64c0,35.41 28.59,64 64,64c35.41,0 64,-28.59 64,-64zM682.67,277.33c0,-35.41 -28.59,-64 -64,-64c-35.41,0 -64,28.59 -64,64c0,35.41 28.59,64 64,64c35.41,0 64,-28.59 64,-64zM810.67,448c0,-35.41 -28.59,-64 -64,-64c-35.41,0 -64,28.59 -64,64c0,35.41 28.59,64 64,64c35.41,0 64,-28.59 64,-64z" fill="#ffffff"/>
		</mask>
		<mask id="mask-yvIkZI7q">
			<path d="M896,469.33c0,117.76 -95.57,213.34 -213.33,213.34h-75.52c-35.41,0 -64,28.59 -64,64c0,16.21 6.4,31.15 16.21,42.24c10.24,11.52 16.64,26.45 16.64,43.09c0,35.41 -28.59,64 -64,64c-212.05,0 -384,-171.95 -384,-384c0,-212.05 171.95,-384 384,-384c212.05,0 384,152.74 384,341.33zM341.33,448c0,-35.41 -28.59,-64 -64,-64c-35.41,0 -64,28.59 -64,64c0,35.41 28.59,64 64,64c35.41,0 64,-28.59 64,-64zM469.33,277.33c0,-35.41 -28.59,-64 -64,-64c-35.41,0 -64,28.59 -64,64c0,35.41 28.59,64 64,64c35.41,0 64,-28.59 64,-64zM682.67,277.33c0,-35.41 -28.59,-64 -64,-64c-35.41,0 -64,28.59 -64,64c0,35.41 28.59,64 64,64c35.41,0 64,-28.59 64,-64zM810.67,448c0,-35.41 -28.59,-64 -64,-64c-35.41,0 -64,28.59 -64,64c0,35.41 28.59,64 64,64c35.41,0 64,-28.59 64,-64z" fill="url(#color-bzveSexh)"/>
		</mask>
		<mask id="mask-ZYBUvUeN">
			<rect fill="url(#color-1OLMYbZC)" x="128" y="128" width="768" height="768"/>
		</mask>
	</defs>
	<g fill="none" fill-rule="nonzero" style="mix-blend-mode: normal">
		<g mask="url(#mask-ytZ83JPJ)">
			<g color="#ffc107" class="teamapps-color-2">
				<rect x="128" y="128" width="768" height="768" fill="currentColor"/>
			</g>
			<g color="#e65100" class="teamapps-color-3" mask="url(#mask-ZYBUvUeN)">
				<rect x="128" y="128" width="768" height="768" fill="currentColor"/>
			</g>
		</g>
		<g filter="url(#filter-vumxYp7b)" mask="url(#mask-yvIkZI7q)">
			<g color="#fff59d" class="teamapps-color-1">
				<rect x="128" y="128" width="768" height="768" fill="currentColor"/>
			</g>
		</g>
		<g clip-path="url(#clip-fIp6AXnk)">
			<path d="M35,939v-954h954v954zM512,128c-212.05,0 -384,171.95 -384,384c0,212.05 171.95,384 384,384c35.41,0 64,-28.59 64,-64c0,-16.64 -6.4,-31.57 -16.64,-43.09c-9.81,-11.09 -16.21,-26.03 -16.21,-42.24c0,-35.41 28.59,-64 64,-64h75.52c117.76,0 213.33,-95.58 213.33,-213.34c0,-188.59 -171.95,-341.33 -384,-341.33zM277.33,512c-35.41,0 -64,-28.59 -64,-64c0,-35.41 28.59,-64 64,-64c35.41,0 64,28.59 64,64c0,35.41 -28.59,64 -64,64zM405.33,341.33c-35.41,0 -64,-28.59 -64,-64c0,-35.41 28.59,-64 64,-64c35.41,0 64,28.59 64,64c0,35.41 -28.59,64 -64,64zM618.67,341.33c-35.41,0 -64,-28.59 -64,-64c0,-35.41 28.59,-64 64,-64c35.41,0 64,28.59 64,64c0,35.41 -28.59,64 -64,64zM746.67,512c-35.41,0 -64,-28.59 -64,-64c0,-35.41 28.59,-64 64,-64c35.41,0 64,28.59 64,64c0,35.41 -28.59,64 -64,64z" fill="#000000" filter="url(#filter-KQpNaH7D)"/>
		</g>
	</g>
</svg>