<svg version="1.1" xmlns="http://www.w3.org/2000/svg" xmlns:xlink="http://www.w3.org/1999/xlink" viewBox="0,0,1024,1024">
	<!-- Color names: teamapps-color-1, teamapps-color-2, teamapps-color-3 -->
	<desc>payment icon - Licensed under Apache License v2.0 (http://www.apache.org/licenses/LICENSE-2.0) - Created with Iconfu.com - Derivative work of Material icons (Copyright Google Inc.)</desc>
	<defs>
		<clipPath id="clip-PQujNbc4">
			<path d="M938.67,256v512c0,47.36 -37.98,85.33 -85.34,85.33h-682.66c-47.36,0 -85.34,-37.97 -85.34,-85.33l0.43,-512c0,-47.36 37.55,-85.33 84.91,-85.33h682.66c47.36,0 85.34,37.97 85.34,85.33zM853.33,512h-682.66v256h682.66zM853.33,256h-682.66v85.33h682.66z"/>
		</clipPath>
		<radialGradient cx="0" cy="0" r="1448.15" id="color-QxgiaZhB" gradientUnits="userSpaceOnUse">
			<stop offset="0.07" stop-color="#ffffff"/>
			<stop offset="0.75" stop-color="#000000"/>
		</radialGradient>
		<linearGradient x1="0" y1="1024" x2="1024" y2="0" id="color-RRb68Wzf" gradientUnits="userSpaceOnUse">
			<stop offset="0.2" stop-color="#000000"/>
			<stop offset="0.8" stop-color="#ffffff"/>
		</linearGradient>
		<filter id="filter-SDZlsGdy" x="0%" y="0%" width="100%" height="100%" color-interpolation-filters="sRGB">
			<feColorMatrix values="1 0 0 0 0 0 1 0 0 0 0 0 1 0 0 0 0 0 0.05 0" in="SourceGraphic"/>
			<feOffset dy="20"/>
			<feGaussianBlur stdDeviation="11" result="blur0"/>
			<feColorMatrix values="1 0 0 0 0 0 1 0 0 0 0 0 1 0 0 0 0 0 0.07 0" in="SourceGraphic"/>
			<feOffset dy="30"/>
			<feGaussianBlur stdDeviation="20" result="blur1"/>
			<feMerge>
				<feMergeNode in="blur0"/>
				<feMergeNode in="blur1"/>
			</feMerge>
		</filter>
		<filter id="filter-sRVR4eNk" color-interpolation-filters="sRGB">
			<feOffset/>
		</filter>
		<mask id="mask-h3T5q3ZM">
			<path d="M938.67,256v512c0,47.36 -37.98,85.33 -85.34,85.33h-682.66c-47.36,0 -85.34,-37.97 -85.34,-85.33l0.43,-512c0,-47.36 37.55,-85.33 84.91,-85.33h682.66c47.36,0 85.34,37.97 85.34,85.33zM853.33,512h-682.66v256h682.66zM853.33,256h-682.66v85.33h682.66z" fill="url(#color-QxgiaZhB)"/>
		</mask>
		<mask id="mask-o8O4CMvb">
			<rect fill="url(#color-RRb68Wzf)" x="85.33" y="170.67" width="853.34" height="682.66"/>
		</mask>
		<mask id="mask-ta2cgira">
			<path d="M938.67,256v512c0,47.36 -37.98,85.33 -85.34,85.33h-682.66c-47.36,0 -85.34,-37.97 -85.34,-85.33l0.43,-512c0,-47.36 37.55,-85.33 84.91,-85.33h682.66c47.36,0 85.34,37.97 85.34,85.33zM853.33,512h-682.66v256h682.66zM853.33,256h-682.66v85.33h682.66z" fill="#ffffff"/>
		</mask>
	</defs>
	<g fill="none" fill-rule="nonzero" style="mix-blend-mode: normal">
		<g mask="url(#mask-ta2cgira)">
			<g color="#ffc107" class="teamapps-color-2">
				<rect x="85.33" y="170.67" width="853.34" height="682.66" fill="currentColor"/>
			</g>
			<g color="#e65100" class="teamapps-color-3" mask="url(#mask-o8O4CMvb)">
				<rect x="85.33" y="170.67" width="853.34" height="682.66" fill="currentColor"/>
			</g>
		</g>
		<g filter="url(#filter-sRVR4eNk)" mask="url(#mask-h3T5q3ZM)">
			<g color="#fff59d" class="teamapps-color-1">
				<rect x="85.33" y="170.67" width="853.34" height="682.66" fill="currentColor"/>
			</g>
		</g>
		<g clip-path="url(#clip-PQujNbc4)">
			<path d="M-7.67,896.33v-868.66h1039.34v868.66zM853.33,170.67h-682.66c-47.36,0 -84.91,37.97 -84.91,85.33l-0.43,512c0,47.36 37.98,85.33 85.34,85.33h682.66c47.36,0 85.34,-37.97 85.34,-85.33v-512c0,-47.36 -37.98,-85.33 -85.34,-85.33zM853.33,768h-682.66v-256h682.66zM853.33,341.33h-682.66v-85.33h682.66z" fill="#000000" filter="url(#filter-SDZlsGdy)"/>
		</g>
	</g>
</svg>