<svg version="1.1" xmlns="http://www.w3.org/2000/svg" xmlns:xlink="http://www.w3.org/1999/xlink" viewBox="0,0,1024,1024">
	<!-- Color names: teamapps-color-1, teamapps-color-2, teamapps-color-3 -->
	<desc>perm_media icon - Licensed under Apache License v2.0 (http://www.apache.org/licenses/LICENSE-2.0) - Created with Iconfu.com - Derivative work of Material icons (Copyright Google Inc.)</desc>
	<defs>
		<clipPath id="clip-Jds93RLT">
			<path d="M1024,256v426.67c0,46.93 -38.4,85.33 -85.33,85.33h-682.67c-46.93,0 -85.33,-38.4 -85.33,-85.33l0.42,-512c0,-46.93 37.98,-85.34 84.91,-85.34h256l85.33,85.34h341.34c46.93,0 85.33,38.4 85.33,85.33zM85.33,853.33h768v85.34h-768c-46.93,0 -85.33,-38.41 -85.33,-85.34l0.43,-384h-0.43v-213.33h85.33zM896,640l-149.33,-192l-106.67,128.43l-149.33,-192.43l-192,256z"/>
		</clipPath>
		<linearGradient x1="0" y1="1024" x2="1024" y2="0" id="color-bVKeO9cy" gradientUnits="userSpaceOnUse">
			<stop offset="0.2" stop-color="#000000"/>
			<stop offset="0.8" stop-color="#ffffff"/>
		</linearGradient>
		<radialGradient cx="0" cy="0" r="1448.15" id="color-kbYMTm3L" gradientUnits="userSpaceOnUse">
			<stop offset="0.07" stop-color="#ffffff"/>
			<stop offset="0.75" stop-color="#000000"/>
		</radialGradient>
		<filter id="filter-61t3mW5M" color-interpolation-filters="sRGB">
			<feOffset/>
		</filter>
		<filter id="filter-dbQIZwZv" x="0%" y="0%" width="100%" height="100%" color-interpolation-filters="sRGB">
			<feColorMatrix values="1 0 0 0 0 0 1 0 0 0 0 0 1 0 0 0 0 0 0.05 0" in="SourceGraphic"/>
			<feOffset dy="20"/>
			<feGaussianBlur stdDeviation="11" result="blur0"/>
			<feColorMatrix values="1 0 0 0 0 0 1 0 0 0 0 0 1 0 0 0 0 0 0.07 0" in="SourceGraphic"/>
			<feOffset dy="30"/>
			<feGaussianBlur stdDeviation="20" result="blur1"/>
			<feMerge>
				<feMergeNode in="blur0"/>
				<feMergeNode in="blur1"/>
			</feMerge>
		</filter>
		<mask id="mask-AK5Z4L3u">
			<path d="M1024,256v426.67c0,46.93 -38.4,85.33 -85.33,85.33h-682.67c-46.93,0 -85.33,-38.4 -85.33,-85.33l0.42,-512c0,-46.93 37.98,-85.34 84.91,-85.34h256l85.33,85.34h341.34c46.93,0 85.33,38.4 85.33,85.33zM85.33,853.33h768v85.34h-768c-46.93,0 -85.33,-38.41 -85.33,-85.34l0.43,-384h-0.43v-213.33h85.33zM896,640l-149.33,-192l-106.67,128.43l-149.33,-192.43l-192,256z" fill="#ffffff"/>
		</mask>
		<mask id="mask-IJJ0GsEl">
			<path d="M1024,256v426.67c0,46.93 -38.4,85.33 -85.33,85.33h-682.67c-46.93,0 -85.33,-38.4 -85.33,-85.33l0.42,-512c0,-46.93 37.98,-85.34 84.91,-85.34h256l85.33,85.34h341.34c46.93,0 85.33,38.4 85.33,85.33zM85.33,853.33h768v85.34h-768c-46.93,0 -85.33,-38.41 -85.33,-85.34l0.43,-384h-0.43v-213.33h85.33zM896,640l-149.33,-192l-106.67,128.43l-149.33,-192.43l-192,256z" fill="url(#color-kbYMTm3L)"/>
		</mask>
		<mask id="mask-r9xXvoLE">
			<rect fill="url(#color-bVKeO9cy)" x="0" y="85.33" width="1024" height="853.34"/>
		</mask>
	</defs>
	<g fill="none" fill-rule="nonzero" style="mix-blend-mode: normal">
		<g mask="url(#mask-AK5Z4L3u)">
			<g color="#ffc107" class="teamapps-color-2">
				<rect x="0" y="85.33" width="1024" height="853.34" fill="currentColor"/>
			</g>
			<g color="#e65100" class="teamapps-color-3" mask="url(#mask-r9xXvoLE)">
				<rect x="0" y="85.33" width="1024" height="853.34" fill="currentColor"/>
			</g>
		</g>
		<g filter="url(#filter-61t3mW5M)" mask="url(#mask-IJJ0GsEl)">
			<g color="#fff59d" class="teamapps-color-1">
				<rect x="0" y="85.33" width="1024" height="853.34" fill="currentColor"/>
			</g>
		</g>
		<g clip-path="url(#clip-Jds93RLT)">
			<path d="M-93,981.67v-1039.34h1210v1039.34zM938.67,170.67h-341.34l-85.33,-85.34h-256c-46.93,0 -84.91,38.41 -84.91,85.34l-0.42,512c0,46.93 38.4,85.33 85.33,85.33h682.67c46.93,0 85.33,-38.4 85.33,-85.33v-426.67c0,-46.93 -38.4,-85.33 -85.33,-85.33zM85.33,256h-85.33v213.33h0.43l-0.43,384c0,46.93 38.4,85.34 85.33,85.34h768v-85.34h-768zM298.67,640l192,-256l149.33,192.43l106.67,-128.43l149.33,192z" fill="#000000" filter="url(#filter-dbQIZwZv)"/>
		</g>
	</g>
</svg>