<svg version="1.1" xmlns="http://www.w3.org/2000/svg" xmlns:xlink="http://www.w3.org/1999/xlink" viewBox="0,0,1024,1024">
	<!-- Color names: teamapps-color-1, teamapps-color-2, teamapps-color-3 -->
	<desc>pets icon - Licensed under Apache License v2.0 (http://www.apache.org/licenses/LICENSE-2.0) - Created with Iconfu.com - Derivative work of Material icons (Copyright Google Inc.)</desc>
	<defs>
		<clipPath id="clip-8oswZBzJ">
			<path d="M85.33,405.33c0,-58.91 47.76,-106.66 106.67,-106.66c58.91,0 106.67,47.75 106.67,106.66c0,58.91 -47.76,106.67 -106.67,106.67c-58.91,0 -106.67,-47.76 -106.67,-106.67zM277.33,234.67c0,-58.91 47.76,-106.67 106.67,-106.67c58.91,0 106.67,47.76 106.67,106.67c0,58.91 -47.76,106.66 -106.67,106.66c-58.91,0 -106.67,-47.75 -106.67,-106.66zM533.33,234.67c0,-58.91 47.76,-106.67 106.67,-106.67c58.91,0 106.67,47.76 106.67,106.67c0,58.91 -47.76,106.66 -106.67,106.66c-58.91,0 -106.67,-47.75 -106.67,-106.66zM725.33,405.33c0,-58.91 47.76,-106.66 106.67,-106.66c58.91,0 106.67,47.75 106.67,106.66c0,58.91 -47.76,106.67 -106.67,106.67c-58.91,0 -106.67,-47.76 -106.67,-106.67zM851.2,838.83c-12.37,43.09 -43.52,86.61 -99.41,98.98c-31.15,5.97 -130.57,-18.77 -236.38,-18.77h-7.68c-105.81,0 -205.22,25.17 -236.37,18.77c-55.89,-12.37 -87.04,-55.46 -99.41,-98.98c-12.8,-86.61 55.89,-148.49 111.78,-204.38c37.55,-43.52 68.7,-80.64 105.82,-124.16c20.05,-23.04 44.79,-46.08 74.66,-56.32c4.69,-1.71 9.39,-2.99 14.08,-3.84c11.09,-2.13 22.62,-2.13 33.71,-2.13c11.09,0 22.61,0 33.28,1.71c4.69,0.85 9.39,2.13 14.08,3.84c29.87,10.24 55.04,33.28 74.67,56.32c37.55,43.52 68.69,80.64 105.81,124.16c55.89,55.89 124.59,117.76 111.36,204.8z"/>
		</clipPath>
		<radialGradient cx="0" cy="0" r="1448.15" id="color-FdpUAz4C" gradientUnits="userSpaceOnUse">
			<stop offset="0.07" stop-color="#ffffff"/>
			<stop offset="0.75" stop-color="#000000"/>
		</radialGradient>
		<linearGradient x1="0" y1="1024" x2="1024" y2="0" id="color-XYjhj77Q" gradientUnits="userSpaceOnUse">
			<stop offset="0.2" stop-color="#000000"/>
			<stop offset="0.8" stop-color="#ffffff"/>
		</linearGradient>
		<filter id="filter-SMKPMYQf" color-interpolation-filters="sRGB">
			<feOffset/>
		</filter>
		<filter id="filter-wCblLUqD" x="0%" y="0%" width="100%" height="100%" color-interpolation-filters="sRGB">
			<feColorMatrix values="1 0 0 0 0 0 1 0 0 0 0 0 1 0 0 0 0 0 0.05 0" in="SourceGraphic"/>
			<feOffset dy="20"/>
			<feGaussianBlur stdDeviation="11" result="blur0"/>
			<feColorMatrix values="1 0 0 0 0 0 1 0 0 0 0 0 1 0 0 0 0 0 0.07 0" in="SourceGraphic"/>
			<feOffset dy="30"/>
			<feGaussianBlur stdDeviation="20" result="blur1"/>
			<feMerge>
				<feMergeNode in="blur0"/>
				<feMergeNode in="blur1"/>
			</feMerge>
		</filter>
		<mask id="mask-MLDZP1zA">
			<path d="M85.33,405.33c0,-58.91 47.76,-106.66 106.67,-106.66c58.91,0 106.67,47.75 106.67,106.66c0,58.91 -47.76,106.67 -106.67,106.67c-58.91,0 -106.67,-47.76 -106.67,-106.67zM277.33,234.67c0,-58.91 47.76,-106.67 106.67,-106.67c58.91,0 106.67,47.76 106.67,106.67c0,58.91 -47.76,106.66 -106.67,106.66c-58.91,0 -106.67,-47.75 -106.67,-106.66zM533.33,234.67c0,-58.91 47.76,-106.67 106.67,-106.67c58.91,0 106.67,47.76 106.67,106.67c0,58.91 -47.76,106.66 -106.67,106.66c-58.91,0 -106.67,-47.75 -106.67,-106.66zM725.33,405.33c0,-58.91 47.76,-106.66 106.67,-106.66c58.91,0 106.67,47.75 106.67,106.66c0,58.91 -47.76,106.67 -106.67,106.67c-58.91,0 -106.67,-47.76 -106.67,-106.67zM851.2,838.83c-12.37,43.09 -43.52,86.61 -99.41,98.98c-31.15,5.97 -130.57,-18.77 -236.38,-18.77h-7.68c-105.81,0 -205.22,25.17 -236.37,18.77c-55.89,-12.37 -87.04,-55.46 -99.41,-98.98c-12.8,-86.61 55.89,-148.49 111.78,-204.38c37.55,-43.52 68.7,-80.64 105.82,-124.16c20.05,-23.04 44.79,-46.08 74.66,-56.32c4.69,-1.71 9.39,-2.99 14.08,-3.84c11.09,-2.13 22.62,-2.13 33.71,-2.13c11.09,0 22.61,0 33.28,1.71c4.69,0.85 9.39,2.13 14.08,3.84c29.87,10.24 55.04,33.28 74.67,56.32c37.55,43.52 68.69,80.64 105.81,124.16c55.89,55.89 124.59,117.76 111.36,204.8z" fill="url(#color-FdpUAz4C)"/>
		</mask>
		<mask id="mask-pT4CiZmQ">
			<rect fill="url(#color-XYjhj77Q)" x="85.33" y="128" width="853.34" height="810.85"/>
		</mask>
		<mask id="mask-sXMriScE">
			<path d="M85.33,405.33c0,-58.91 47.76,-106.66 106.67,-106.66c58.91,0 106.67,47.75 106.67,106.66c0,58.91 -47.76,106.67 -106.67,106.67c-58.91,0 -106.67,-47.76 -106.67,-106.67zM277.33,234.67c0,-58.91 47.76,-106.67 106.67,-106.67c58.91,0 106.67,47.76 106.67,106.67c0,58.91 -47.76,106.66 -106.67,106.66c-58.91,0 -106.67,-47.75 -106.67,-106.66zM533.33,234.67c0,-58.91 47.76,-106.67 106.67,-106.67c58.91,0 106.67,47.76 106.67,106.67c0,58.91 -47.76,106.66 -106.67,106.66c-58.91,0 -106.67,-47.75 -106.67,-106.66zM725.33,405.33c0,-58.91 47.76,-106.66 106.67,-106.66c58.91,0 106.67,47.75 106.67,106.66c0,58.91 -47.76,106.67 -106.67,106.67c-58.91,0 -106.67,-47.76 -106.67,-106.67zM851.2,838.83c-12.37,43.09 -43.52,86.61 -99.41,98.98c-31.15,5.97 -130.57,-18.77 -236.38,-18.77h-7.68c-105.81,0 -205.22,25.17 -236.37,18.77c-55.89,-12.37 -87.04,-55.46 -99.41,-98.98c-12.8,-86.61 55.89,-148.49 111.78,-204.38c37.55,-43.52 68.7,-80.64 105.82,-124.16c20.05,-23.04 44.79,-46.08 74.66,-56.32c4.69,-1.71 9.39,-2.99 14.08,-3.84c11.09,-2.13 22.62,-2.13 33.71,-2.13c11.09,0 22.61,0 33.28,1.71c4.69,0.85 9.39,2.13 14.08,3.84c29.87,10.24 55.04,33.28 74.67,56.32c37.55,43.52 68.69,80.64 105.81,124.16c55.89,55.89 124.59,117.76 111.36,204.8z" fill="#ffffff"/>
		</mask>
	</defs>
	<g fill="none" fill-rule="nonzero" style="mix-blend-mode: normal">
		<g mask="url(#mask-sXMriScE)">
			<g color="#ffc107" class="teamapps-color-2">
				<rect x="85.33" y="128" width="853.34" height="810.85" fill="currentColor"/>
			</g>
			<g color="#e65100" class="teamapps-color-3" mask="url(#mask-pT4CiZmQ)">
				<rect x="85.33" y="128" width="853.34" height="810.85" fill="currentColor"/>
			</g>
		</g>
		<g filter="url(#filter-SMKPMYQf)" mask="url(#mask-MLDZP1zA)">
			<g color="#fff59d" class="teamapps-color-1">
				<rect x="85.33" y="128" width="853.34" height="810.85" fill="currentColor"/>
			</g>
		</g>
		<g clip-path="url(#clip-8oswZBzJ)">
			<path d="M-7.67,981.85v-996.85h1039.34v996.85zM192,512c58.91,0 106.67,-47.76 106.67,-106.67c0,-58.91 -47.76,-106.66 -106.67,-106.66c-58.91,0 -106.67,47.75 -106.67,106.66c0,58.91 47.76,106.67 106.67,106.67zM384,341.33c58.91,0 106.67,-47.75 106.67,-106.66c0,-58.91 -47.76,-106.67 -106.67,-106.67c-58.91,0 -106.67,47.76 -106.67,106.67c0,58.91 47.76,106.66 106.67,106.66zM640,341.33c58.91,0 106.67,-47.75 106.67,-106.66c0,-58.91 -47.76,-106.67 -106.67,-106.67c-58.91,0 -106.67,47.76 -106.67,106.67c0,58.91 47.76,106.66 106.67,106.66zM832,512c58.91,0 106.67,-47.76 106.67,-106.67c0,-58.91 -47.76,-106.66 -106.67,-106.66c-58.91,0 -106.67,47.75 -106.67,106.66c0,58.91 47.76,106.67 106.67,106.67zM739.84,634.03c-37.12,-43.52 -68.26,-80.64 -105.81,-124.16c-19.63,-23.04 -44.8,-46.08 -74.67,-56.32c-4.69,-1.71 -9.39,-2.99 -14.08,-3.84c-10.67,-1.71 -22.19,-1.71 -33.28,-1.71c-11.09,0 -22.62,0 -33.71,2.13c-4.69,0.85 -9.39,2.13 -14.08,3.84c-29.87,10.24 -54.61,33.28 -74.66,56.32c-37.12,43.52 -68.27,80.64 -105.82,124.16c-55.89,55.89 -124.58,117.77 -111.78,204.38c12.37,43.52 43.52,86.61 99.41,98.98c31.15,6.4 130.56,-18.77 236.37,-18.77h7.68c105.81,0 205.23,24.74 236.38,18.77c55.89,-12.37 87.04,-55.89 99.41,-98.98c13.23,-87.04 -55.47,-148.91 -111.36,-204.8z" fill="#000000" filter="url(#filter-wCblLUqD)"/>
		</g>
	</g>
</svg>