<svg version="1.1" xmlns="http://www.w3.org/2000/svg" xmlns:xlink="http://www.w3.org/1999/xlink" viewBox="0,0,1024,1024">
	<!-- Color names: teamapps-color-1, teamapps-color-2, teamapps-color-3 -->
	<desc>phone_locked icon - Licensed under Apache License v2.0 (http://www.apache.org/licenses/LICENSE-2.0) - Created with Iconfu.com - Derivative work of Material icons (Copyright Google Inc.)</desc>
	<defs>
		<clipPath id="clip-rsE7Wb5K">
			<path d="M896,704v149.33c0,23.47 -19.2,42.67 -42.67,42.67c-400.64,0 -725.33,-324.69 -725.33,-725.33c0,-23.47 19.2,-42.67 42.67,-42.67h149.33c23.47,0 42.67,19.2 42.67,42.67c0,53.33 8.53,104.53 24.32,152.32c4.69,14.93 1.28,31.57 -10.67,42.66l-93.87,94.3c61.44,121.17 160.43,219.73 281.18,281.17l93.86,-93.87c11.95,-11.52 28.59,-14.93 43.52,-10.24c47.79,15.79 98.99,24.32 152.32,24.32c23.47,0 42.67,19.2 42.67,42.67zM896,213.33v170.67c0,23.47 -19.2,42.67 -42.67,42.67h-213.33c-23.47,0 -42.67,-19.2 -42.67,-42.67v-170.67c0,-23.47 19.2,-42.66 42.67,-42.66v-21.34c0,-58.88 47.79,-106.66 106.67,-106.66c58.88,0 106.66,47.78 106.66,106.66v21.34c23.47,0 42.67,19.19 42.67,42.66zM819.2,149.33c0,-40.11 -32.42,-72.53 -72.53,-72.53c-40.11,0 -72.54,32.42 -72.54,72.53v21.34h145.07z"/>
		</clipPath>
		<linearGradient x1="0" y1="1024" x2="1024" y2="0" id="color-B1MzVJOV" gradientUnits="userSpaceOnUse">
			<stop offset="0.2" stop-color="#000000"/>
			<stop offset="0.8" stop-color="#ffffff"/>
		</linearGradient>
		<radialGradient cx="0" cy="0" r="1448.15" id="color-WKWVEIYt" gradientUnits="userSpaceOnUse">
			<stop offset="0.07" stop-color="#ffffff"/>
			<stop offset="0.75" stop-color="#000000"/>
		</radialGradient>
		<filter id="filter-J8mKY9Ue" x="0%" y="0%" width="100%" height="100%" color-interpolation-filters="sRGB">
			<feColorMatrix values="1 0 0 0 0 0 1 0 0 0 0 0 1 0 0 0 0 0 0.05 0" in="SourceGraphic"/>
			<feOffset dy="20"/>
			<feGaussianBlur stdDeviation="11" result="blur0"/>
			<feColorMatrix values="1 0 0 0 0 0 1 0 0 0 0 0 1 0 0 0 0 0 0.07 0" in="SourceGraphic"/>
			<feOffset dy="30"/>
			<feGaussianBlur stdDeviation="20" result="blur1"/>
			<feMerge>
				<feMergeNode in="blur0"/>
				<feMergeNode in="blur1"/>
			</feMerge>
		</filter>
		<filter id="filter-tOuCiFzy" color-interpolation-filters="sRGB">
			<feOffset/>
		</filter>
		<mask id="mask-8TLw2ZfW">
			<path d="M896,704v149.33c0,23.47 -19.2,42.67 -42.67,42.67c-400.64,0 -725.33,-324.69 -725.33,-725.33c0,-23.47 19.2,-42.67 42.67,-42.67h149.33c23.47,0 42.67,19.2 42.67,42.67c0,53.33 8.53,104.53 24.32,152.32c4.69,14.93 1.28,31.57 -10.67,42.66l-93.87,94.3c61.44,121.17 160.43,219.73 281.18,281.17l93.86,-93.87c11.95,-11.52 28.59,-14.93 43.52,-10.24c47.79,15.79 98.99,24.32 152.32,24.32c23.47,0 42.67,19.2 42.67,42.67zM896,213.33v170.67c0,23.47 -19.2,42.67 -42.67,42.67h-213.33c-23.47,0 -42.67,-19.2 -42.67,-42.67v-170.67c0,-23.47 19.2,-42.66 42.67,-42.66v-21.34c0,-58.88 47.79,-106.66 106.67,-106.66c58.88,0 106.66,47.78 106.66,106.66v21.34c23.47,0 42.67,19.19 42.67,42.66zM819.2,149.33c0,-40.11 -32.42,-72.53 -72.53,-72.53c-40.11,0 -72.54,32.42 -72.54,72.53v21.34h145.07z" fill="#ffffff"/>
		</mask>
		<mask id="mask-8wJKf5Wl">
			<path d="M896,704v149.33c0,23.47 -19.2,42.67 -42.67,42.67c-400.64,0 -725.33,-324.69 -725.33,-725.33c0,-23.47 19.2,-42.67 42.67,-42.67h149.33c23.47,0 42.67,19.2 42.67,42.67c0,53.33 8.53,104.53 24.32,152.32c4.69,14.93 1.28,31.57 -10.67,42.66l-93.87,94.3c61.44,121.17 160.43,219.73 281.18,281.17l93.86,-93.87c11.95,-11.52 28.59,-14.93 43.52,-10.24c47.79,15.79 98.99,24.32 152.32,24.32c23.47,0 42.67,19.2 42.67,42.67zM896,213.33v170.67c0,23.47 -19.2,42.67 -42.67,42.67h-213.33c-23.47,0 -42.67,-19.2 -42.67,-42.67v-170.67c0,-23.47 19.2,-42.66 42.67,-42.66v-21.34c0,-58.88 47.79,-106.66 106.67,-106.66c58.88,0 106.66,47.78 106.66,106.66v21.34c23.47,0 42.67,19.19 42.67,42.66zM819.2,149.33c0,-40.11 -32.42,-72.53 -72.53,-72.53c-40.11,0 -72.54,32.42 -72.54,72.53v21.34h145.07z" fill="url(#color-WKWVEIYt)"/>
		</mask>
		<mask id="mask-XASOcyJV">
			<rect fill="url(#color-B1MzVJOV)" x="128" y="42.67" width="768" height="853.33"/>
		</mask>
	</defs>
	<g fill="none" fill-rule="nonzero" style="mix-blend-mode: normal">
		<g mask="url(#mask-8TLw2ZfW)">
			<g color="#ffc107" class="teamapps-color-2">
				<rect x="128" y="42.67" width="768" height="853.33" fill="currentColor"/>
			</g>
			<g color="#e65100" class="teamapps-color-3" mask="url(#mask-XASOcyJV)">
				<rect x="128" y="42.67" width="768" height="853.33" fill="currentColor"/>
			</g>
		</g>
		<g filter="url(#filter-tOuCiFzy)" mask="url(#mask-8wJKf5Wl)">
			<g color="#fff59d" class="teamapps-color-1">
				<rect x="128" y="42.67" width="768" height="853.33" fill="currentColor"/>
			</g>
		</g>
		<g clip-path="url(#clip-rsE7Wb5K)">
			<path d="M35,939v-1039.33h954v1039.33zM853.33,661.33c-53.33,0 -104.53,-8.53 -152.32,-24.32c-14.93,-4.69 -31.57,-1.28 -43.52,10.24l-93.86,93.87c-120.75,-61.44 -219.74,-160 -281.18,-281.17l93.87,-94.3c11.95,-11.09 15.36,-27.73 10.67,-42.66c-15.79,-47.79 -24.32,-98.99 -24.32,-152.32c0,-23.47 -19.2,-42.67 -42.67,-42.67h-149.33c-23.47,0 -42.67,19.2 -42.67,42.67c0,400.64 324.69,725.33 725.33,725.33c23.47,0 42.67,-19.2 42.67,-42.67v-149.33c0,-23.47 -19.2,-42.67 -42.67,-42.67zM853.33,170.67v-21.34c0,-58.88 -47.78,-106.66 -106.66,-106.66c-58.88,0 -106.67,47.78 -106.67,106.66v21.34c-23.47,0 -42.67,19.19 -42.67,42.66v170.67c0,23.47 19.2,42.67 42.67,42.67h213.33c23.47,0 42.67,-19.2 42.67,-42.67v-170.67c0,-23.47 -19.2,-42.66 -42.67,-42.66zM819.2,170.67h-145.07v-21.34c0,-40.11 32.43,-72.53 72.54,-72.53c40.11,0 72.53,32.42 72.53,72.53z" fill="#000000" filter="url(#filter-J8mKY9Ue)"/>
		</g>
	</g>
</svg>