<svg version="1.1" xmlns="http://www.w3.org/2000/svg" xmlns:xlink="http://www.w3.org/1999/xlink" viewBox="0,0,1024,1024">
	<!-- Color names: teamapps-color-1, teamapps-color-2, teamapps-color-3 -->
	<desc>photo_size_select_actual icon - Licensed under Apache License v2.0 (http://www.apache.org/licenses/LICENSE-2.0) - Created with Iconfu.com - Derivative work of Material icons (Copyright Google Inc.)</desc>
	<defs>
		<clipPath id="clip-pS8Trb4N">
			<path d="M981.33,213.33v597.34c0,42.67 -42.66,85.33 -85.33,85.33h-768c-46.93,0 -85.33,-38.4 -85.33,-85.33v-597.34c0,-42.67 42.66,-85.33 85.33,-85.33h768c42.67,0 85.33,42.66 85.33,85.33zM810.67,725.33l-192,-256l-149.34,192.43l-106.66,-128.43l-149.34,192z"/>
		</clipPath>
		<linearGradient x1="0" y1="1024" x2="1024" y2="0" id="color-irrVfGff" gradientUnits="userSpaceOnUse">
			<stop offset="0.2" stop-color="#000000"/>
			<stop offset="0.8" stop-color="#ffffff"/>
		</linearGradient>
		<radialGradient cx="0" cy="0" r="1448.15" id="color-JvHV1MdV" gradientUnits="userSpaceOnUse">
			<stop offset="0.07" stop-color="#ffffff"/>
			<stop offset="0.75" stop-color="#000000"/>
		</radialGradient>
		<filter id="filter-LYFydtba" color-interpolation-filters="sRGB">
			<feOffset/>
		</filter>
		<filter id="filter-Oc2TuN2L" x="0%" y="0%" width="100%" height="100%" color-interpolation-filters="sRGB">
			<feColorMatrix values="1 0 0 0 0 0 1 0 0 0 0 0 1 0 0 0 0 0 0.05 0" in="SourceGraphic"/>
			<feOffset dy="20"/>
			<feGaussianBlur stdDeviation="11" result="blur0"/>
			<feColorMatrix values="1 0 0 0 0 0 1 0 0 0 0 0 1 0 0 0 0 0 0.07 0" in="SourceGraphic"/>
			<feOffset dy="30"/>
			<feGaussianBlur stdDeviation="20" result="blur1"/>
			<feMerge>
				<feMergeNode in="blur0"/>
				<feMergeNode in="blur1"/>
			</feMerge>
		</filter>
		<mask id="mask-4Zi2cqff">
			<path d="M981.33,213.33v597.34c0,42.67 -42.66,85.33 -85.33,85.33h-768c-46.93,0 -85.33,-38.4 -85.33,-85.33v-597.34c0,-42.67 42.66,-85.33 85.33,-85.33h768c42.67,0 85.33,42.66 85.33,85.33zM810.67,725.33l-192,-256l-149.34,192.43l-106.66,-128.43l-149.34,192z" fill="url(#color-JvHV1MdV)"/>
		</mask>
		<mask id="mask-h8tmuRkN">
			<path d="M981.33,213.33v597.34c0,42.67 -42.66,85.33 -85.33,85.33h-768c-46.93,0 -85.33,-38.4 -85.33,-85.33v-597.34c0,-42.67 42.66,-85.33 85.33,-85.33h768c42.67,0 85.33,42.66 85.33,85.33zM810.67,725.33l-192,-256l-149.34,192.43l-106.66,-128.43l-149.34,192z" fill="#ffffff"/>
		</mask>
		<mask id="mask-XHlD4SQT">
			<rect fill="url(#color-irrVfGff)" x="42.67" y="128" width="938.66" height="768"/>
		</mask>
	</defs>
	<g fill="none" fill-rule="nonzero" style="mix-blend-mode: normal">
		<g mask="url(#mask-h8tmuRkN)">
			<g color="#ffc107" class="teamapps-color-2">
				<rect x="42.67" y="128" width="938.66" height="768" fill="currentColor"/>
			</g>
			<g color="#e65100" class="teamapps-color-3" mask="url(#mask-XHlD4SQT)">
				<rect x="42.67" y="128" width="938.66" height="768" fill="currentColor"/>
			</g>
		</g>
		<g filter="url(#filter-LYFydtba)" mask="url(#mask-4Zi2cqff)">
			<g color="#fff59d" class="teamapps-color-1">
				<rect x="42.67" y="128" width="938.66" height="768" fill="currentColor"/>
			</g>
		</g>
		<g clip-path="url(#clip-pS8Trb4N)">
			<path d="M-50.33,939v-954h1124.66v954zM896,128h-768c-42.67,0 -85.33,42.66 -85.33,85.33v597.34c0,46.93 38.4,85.33 85.33,85.33h768c42.67,0 85.33,-42.66 85.33,-85.33v-597.34c0,-42.67 -42.66,-85.33 -85.33,-85.33zM213.33,725.33l149.34,-192l106.66,128.43l149.34,-192.43l192,256z" fill="#000000" filter="url(#filter-Oc2TuN2L)"/>
		</g>
	</g>
</svg>