<svg version="1.1" xmlns="http://www.w3.org/2000/svg" xmlns:xlink="http://www.w3.org/1999/xlink" viewBox="0,0,1024,1024">
	<!-- Color names: teamapps-color-1, teamapps-color-2, teamapps-color-3 -->
	<desc>picture_in_picture icon - Licensed under Apache License v2.0 (http://www.apache.org/licenses/LICENSE-2.0) - Created with Iconfu.com - Derivative work of Material icons (Copyright Google Inc.)</desc>
	<defs>
		<clipPath id="clip-lBCjXDzu">
			<path d="M981.33,213.33v597.34c0,46.93 -38.4,84.48 -85.33,84.48h-768c-46.93,0 -85.33,-37.55 -85.33,-84.48v-597.34c0,-46.93 38.4,-85.33 85.33,-85.33h768c46.93,0 85.33,38.4 85.33,85.33zM896,212.48h-768v598.61h768zM810.67,554.67h-341.34v-256h341.34z"/>
		</clipPath>
		<linearGradient x1="0" y1="1024" x2="1024" y2="0" id="color-DrJKiyur" gradientUnits="userSpaceOnUse">
			<stop offset="0.2" stop-color="#000000"/>
			<stop offset="0.8" stop-color="#ffffff"/>
		</linearGradient>
		<radialGradient cx="0" cy="0" r="1448.15" id="color-kuNY3Cns" gradientUnits="userSpaceOnUse">
			<stop offset="0.07" stop-color="#ffffff"/>
			<stop offset="0.75" stop-color="#000000"/>
		</radialGradient>
		<filter id="filter-b0ZzFE82" x="0%" y="0%" width="100%" height="100%" color-interpolation-filters="sRGB">
			<feColorMatrix values="1 0 0 0 0 0 1 0 0 0 0 0 1 0 0 0 0 0 0.05 0" in="SourceGraphic"/>
			<feOffset dy="20"/>
			<feGaussianBlur stdDeviation="11" result="blur0"/>
			<feColorMatrix values="1 0 0 0 0 0 1 0 0 0 0 0 1 0 0 0 0 0 0.07 0" in="SourceGraphic"/>
			<feOffset dy="30"/>
			<feGaussianBlur stdDeviation="20" result="blur1"/>
			<feMerge>
				<feMergeNode in="blur0"/>
				<feMergeNode in="blur1"/>
			</feMerge>
		</filter>
		<filter id="filter-OvVs7vK3" color-interpolation-filters="sRGB">
			<feOffset/>
		</filter>
		<mask id="mask-7AXxL5D8">
			<path d="M981.33,213.33v597.34c0,46.93 -38.4,84.48 -85.33,84.48h-768c-46.93,0 -85.33,-37.55 -85.33,-84.48v-597.34c0,-46.93 38.4,-85.33 85.33,-85.33h768c46.93,0 85.33,38.4 85.33,85.33zM896,212.48h-768v598.61h768zM810.67,554.67h-341.34v-256h341.34z" fill="url(#color-kuNY3Cns)"/>
		</mask>
		<mask id="mask-9zP4eWa8">
			<rect fill="url(#color-DrJKiyur)" x="42.67" y="128" width="938.66" height="767.15"/>
		</mask>
		<mask id="mask-p129Hv65">
			<path d="M981.33,213.33v597.34c0,46.93 -38.4,84.48 -85.33,84.48h-768c-46.93,0 -85.33,-37.55 -85.33,-84.48v-597.34c0,-46.93 38.4,-85.33 85.33,-85.33h768c46.93,0 85.33,38.4 85.33,85.33zM896,212.48h-768v598.61h768zM810.67,554.67h-341.34v-256h341.34z" fill="#ffffff"/>
		</mask>
	</defs>
	<g fill="none" fill-rule="nonzero" style="mix-blend-mode: normal">
		<g mask="url(#mask-p129Hv65)">
			<g color="#ffc107" class="teamapps-color-2">
				<rect x="42.67" y="128" width="938.66" height="767.15" fill="currentColor"/>
			</g>
			<g color="#e65100" class="teamapps-color-3" mask="url(#mask-9zP4eWa8)">
				<rect x="42.67" y="128" width="938.66" height="767.15" fill="currentColor"/>
			</g>
		</g>
		<g filter="url(#filter-OvVs7vK3)" mask="url(#mask-7AXxL5D8)">
			<g color="#fff59d" class="teamapps-color-1">
				<rect x="42.67" y="128" width="938.66" height="767.15" fill="currentColor"/>
			</g>
		</g>
		<g clip-path="url(#clip-lBCjXDzu)">
			<path d="M-50.33,938.15v-953.15h1124.66v953.15zM896,128h-768c-46.93,0 -85.33,38.4 -85.33,85.33v597.34c0,46.93 38.4,84.48 85.33,84.48h768c46.93,0 85.33,-37.55 85.33,-84.48v-597.34c0,-46.93 -38.4,-85.33 -85.33,-85.33zM896,811.09h-768v-598.61h768zM810.67,298.67h-341.34v256h341.34z" fill="#000000" filter="url(#filter-b0ZzFE82)"/>
		</g>
	</g>
</svg>