<svg version="1.1" xmlns="http://www.w3.org/2000/svg" xmlns:xlink="http://www.w3.org/1999/xlink" viewBox="0,0,1024,1024">
	<!-- Color names: teamapps-color-1, teamapps-color-2, teamapps-color-3 -->
	<desc>public icon - Licensed under Apache License v2.0 (http://www.apache.org/licenses/LICENSE-2.0) - Created with Iconfu.com - Derivative work of Material icons (Copyright Google Inc.)</desc>
	<defs>
		<clipPath id="clip-CqjrHHx1">
			<path d="M938.67,512c0,235.52 -191.15,426.67 -426.67,426.67c-235.52,0 -426.67,-191.15 -426.67,-426.67c0,-235.52 191.15,-426.67 426.67,-426.67c235.52,0 426.67,191.15 426.67,426.67zM853.33,512c0,-142.93 -88.32,-265.39 -213.33,-316.16v17.49c0,46.93 -38.4,85.34 -85.33,85.34h-85.34v85.33c0,23.47 -19.19,42.67 -42.66,42.67h-85.34v85.33h256c23.47,0 42.67,19.2 42.67,42.67v128h42.67c38.4,0 69.97,24.74 81.06,59.3c55.47,-60.59 89.6,-141.22 89.6,-229.97zM469.33,768c-46.93,0 -85.33,-38.4 -85.33,-85.33v-42.67l-204.37,-204.37c-5.55,24.75 -8.96,49.92 -8.96,76.37c0,174.08 130.13,317.44 298.66,338.35z"/>
		</clipPath>
		<linearGradient x1="0" y1="1024" x2="1024" y2="0" id="color-i6GmBvVa" gradientUnits="userSpaceOnUse">
			<stop offset="0.2" stop-color="#000000"/>
			<stop offset="0.8" stop-color="#ffffff"/>
		</linearGradient>
		<radialGradient cx="0" cy="0" r="1448.15" id="color-sZHABDKi" gradientUnits="userSpaceOnUse">
			<stop offset="0.07" stop-color="#ffffff"/>
			<stop offset="0.75" stop-color="#000000"/>
		</radialGradient>
		<filter id="filter-I6FbO8D3" x="0%" y="0%" width="100%" height="100%" color-interpolation-filters="sRGB">
			<feColorMatrix values="1 0 0 0 0 0 1 0 0 0 0 0 1 0 0 0 0 0 0.05 0" in="SourceGraphic"/>
			<feOffset dy="20"/>
			<feGaussianBlur stdDeviation="11" result="blur0"/>
			<feColorMatrix values="1 0 0 0 0 0 1 0 0 0 0 0 1 0 0 0 0 0 0.07 0" in="SourceGraphic"/>
			<feOffset dy="30"/>
			<feGaussianBlur stdDeviation="20" result="blur1"/>
			<feMerge>
				<feMergeNode in="blur0"/>
				<feMergeNode in="blur1"/>
			</feMerge>
		</filter>
		<filter id="filter-kPMWoT2D" color-interpolation-filters="sRGB">
			<feOffset/>
		</filter>
		<mask id="mask-9RkZZSuj">
			<path d="M938.67,512c0,235.52 -191.15,426.67 -426.67,426.67c-235.52,0 -426.67,-191.15 -426.67,-426.67c0,-235.52 191.15,-426.67 426.67,-426.67c235.52,0 426.67,191.15 426.67,426.67zM853.33,512c0,-142.93 -88.32,-265.39 -213.33,-316.16v17.49c0,46.93 -38.4,85.34 -85.33,85.34h-85.34v85.33c0,23.47 -19.19,42.67 -42.66,42.67h-85.34v85.33h256c23.47,0 42.67,19.2 42.67,42.67v128h42.67c38.4,0 69.97,24.74 81.06,59.3c55.47,-60.59 89.6,-141.22 89.6,-229.97zM469.33,768c-46.93,0 -85.33,-38.4 -85.33,-85.33v-42.67l-204.37,-204.37c-5.55,24.75 -8.96,49.92 -8.96,76.37c0,174.08 130.13,317.44 298.66,338.35z" fill="url(#color-sZHABDKi)"/>
		</mask>
		<mask id="mask-nT9EoFMT">
			<rect fill="url(#color-i6GmBvVa)" x="85.33" y="85.33" width="853.34" height="853.34"/>
		</mask>
		<mask id="mask-OKI3yt3n">
			<path d="M938.67,512c0,235.52 -191.15,426.67 -426.67,426.67c-235.52,0 -426.67,-191.15 -426.67,-426.67c0,-235.52 191.15,-426.67 426.67,-426.67c235.52,0 426.67,191.15 426.67,426.67zM853.33,512c0,-142.93 -88.32,-265.39 -213.33,-316.16v17.49c0,46.93 -38.4,85.34 -85.33,85.34h-85.34v85.33c0,23.47 -19.19,42.67 -42.66,42.67h-85.34v85.33h256c23.47,0 42.67,19.2 42.67,42.67v128h42.67c38.4,0 69.97,24.74 81.06,59.3c55.47,-60.59 89.6,-141.22 89.6,-229.97zM469.33,768c-46.93,0 -85.33,-38.4 -85.33,-85.33v-42.67l-204.37,-204.37c-5.55,24.75 -8.96,49.92 -8.96,76.37c0,174.08 130.13,317.44 298.66,338.35z" fill="#ffffff"/>
		</mask>
	</defs>
	<g fill="none" fill-rule="nonzero" style="mix-blend-mode: normal">
		<g mask="url(#mask-OKI3yt3n)">
			<g color="#ffc107" class="teamapps-color-2">
				<rect x="85.33" y="85.33" width="853.34" height="853.34" fill="currentColor"/>
			</g>
			<g color="#e65100" class="teamapps-color-3" mask="url(#mask-nT9EoFMT)">
				<rect x="85.33" y="85.33" width="853.34" height="853.34" fill="currentColor"/>
			</g>
		</g>
		<g filter="url(#filter-kPMWoT2D)" mask="url(#mask-9RkZZSuj)">
			<g color="#fff59d" class="teamapps-color-1">
				<rect x="85.33" y="85.33" width="853.34" height="853.34" fill="currentColor"/>
			</g>
		</g>
		<g clip-path="url(#clip-CqjrHHx1)">
			<path d="M-7.67,981.67v-1039.34h1039.34v1039.34zM512,85.33c-235.52,0 -426.67,191.15 -426.67,426.67c0,235.52 191.15,426.67 426.67,426.67c235.52,0 426.67,-191.15 426.67,-426.67c0,-235.52 -191.15,-426.67 -426.67,-426.67zM763.73,741.97c-11.09,-34.56 -42.66,-59.3 -81.06,-59.3h-42.67v-128c0,-23.47 -19.2,-42.67 -42.67,-42.67h-256v-85.33h85.34c23.47,0 42.66,-19.2 42.66,-42.67v-85.33h85.34c46.93,0 85.33,-38.41 85.33,-85.34v-17.49c125.01,50.77 213.33,173.23 213.33,316.16c0,88.75 -34.13,169.38 -89.6,229.97zM469.33,850.35c-168.53,-20.91 -298.66,-164.27 -298.66,-338.35c0,-26.45 3.41,-51.62 8.96,-76.37l204.37,204.37v42.67c0,46.93 38.4,85.33 85.33,85.33z" fill="#000000" filter="url(#filter-I6FbO8D3)"/>
		</g>
	</g>
</svg>