<svg version="1.1" xmlns="http://www.w3.org/2000/svg" xmlns:xlink="http://www.w3.org/1999/xlink" viewBox="0,0,1024,1024">
	<!-- Color names: teamapps-color-1, teamapps-color-2, teamapps-color-3 -->
	<desc>queue_music icon - Licensed under Apache License v2.0 (http://www.apache.org/licenses/LICENSE-2.0) - Created with Iconfu.com - Derivative work of Material icons (Copyright Google Inc.)</desc>
	<defs>
		<clipPath id="clip-8mOk8MlM">
			<path d="M938.67,256v85.33h-128v384c0,70.83 -57.17,128 -128,128c-70.83,0 -128,-57.17 -128,-128c0,-70.83 57.17,-128 128,-128c14.93,0 29.43,2.99 42.66,7.68v-349.01zM640,512h-512v-85.33h512zM640,341.33h-512v-85.33h512zM128,597.33h341.33v85.34h-341.33z"/>
		</clipPath>
		<linearGradient x1="0" y1="1024" x2="1024" y2="0" id="color-TCV89SFG" gradientUnits="userSpaceOnUse">
			<stop offset="0.2" stop-color="#000000"/>
			<stop offset="0.8" stop-color="#ffffff"/>
		</linearGradient>
		<radialGradient cx="0" cy="0" r="1448.15" id="color-W0hMedky" gradientUnits="userSpaceOnUse">
			<stop offset="0.07" stop-color="#ffffff"/>
			<stop offset="0.75" stop-color="#000000"/>
		</radialGradient>
		<filter id="filter-MKiRLSEv" x="0%" y="0%" width="100%" height="100%" color-interpolation-filters="sRGB">
			<feColorMatrix values="1 0 0 0 0 0 1 0 0 0 0 0 1 0 0 0 0 0 0.05 0" in="SourceGraphic"/>
			<feOffset dy="20"/>
			<feGaussianBlur stdDeviation="11" result="blur0"/>
			<feColorMatrix values="1 0 0 0 0 0 1 0 0 0 0 0 1 0 0 0 0 0 0.07 0" in="SourceGraphic"/>
			<feOffset dy="30"/>
			<feGaussianBlur stdDeviation="20" result="blur1"/>
			<feMerge>
				<feMergeNode in="blur0"/>
				<feMergeNode in="blur1"/>
			</feMerge>
		</filter>
		<filter id="filter-vW5Z6nnJ" color-interpolation-filters="sRGB">
			<feOffset/>
		</filter>
		<mask id="mask-G2szmkdL">
			<rect fill="url(#color-TCV89SFG)" x="128" y="256" width="810.67" height="597.33"/>
		</mask>
		<mask id="mask-loKTKlH0">
			<path d="M938.67,256v85.33h-128v384c0,70.83 -57.17,128 -128,128c-70.83,0 -128,-57.17 -128,-128c0,-70.83 57.17,-128 128,-128c14.93,0 29.43,2.99 42.66,7.68v-349.01zM640,512h-512v-85.33h512zM640,341.33h-512v-85.33h512zM128,597.33h341.33v85.34h-341.33z" fill="#ffffff"/>
		</mask>
		<mask id="mask-VAmg7t6a">
			<path d="M938.67,256v85.33h-128v384c0,70.83 -57.17,128 -128,128c-70.83,0 -128,-57.17 -128,-128c0,-70.83 57.17,-128 128,-128c14.93,0 29.43,2.99 42.66,7.68v-349.01zM640,512h-512v-85.33h512zM640,341.33h-512v-85.33h512zM128,597.33h341.33v85.34h-341.33z" fill="url(#color-W0hMedky)"/>
		</mask>
	</defs>
	<g fill="none" fill-rule="nonzero" style="mix-blend-mode: normal">
		<g mask="url(#mask-loKTKlH0)">
			<g color="#ffc107" class="teamapps-color-2">
				<rect x="128" y="256" width="810.67" height="597.33" fill="currentColor"/>
			</g>
			<g color="#e65100" class="teamapps-color-3" mask="url(#mask-G2szmkdL)">
				<rect x="128" y="256" width="810.67" height="597.33" fill="currentColor"/>
			</g>
		</g>
		<g filter="url(#filter-vW5Z6nnJ)" mask="url(#mask-VAmg7t6a)">
			<g color="#fff59d" class="teamapps-color-1">
				<rect x="128" y="256" width="810.67" height="597.33" fill="currentColor"/>
			</g>
		</g>
		<g clip-path="url(#clip-8mOk8MlM)">
			<path d="M35,896.33v-783.33h996.67v783.33zM725.33,256v349.01c-13.23,-4.69 -27.73,-7.68 -42.66,-7.68c-70.83,0 -128,57.17 -128,128c0,70.83 57.17,128 128,128c70.83,0 128,-57.17 128,-128v-384h128v-85.33zM640,426.67h-512v85.33h512zM640,256h-512v85.33h512zM128,682.67h341.33v-85.34h-341.33z" fill="#000000" filter="url(#filter-MKiRLSEv)"/>
		</g>
	</g>
</svg>