<svg version="1.1" xmlns="http://www.w3.org/2000/svg" xmlns:xlink="http://www.w3.org/1999/xlink" viewBox="0,0,1024,1024">
	<!-- Color names: teamapps-color-1, teamapps-color-2, teamapps-color-3 -->
	<desc>queue_play_next icon - Licensed under Apache License v2.0 (http://www.apache.org/licenses/LICENSE-2.0) - Created with Iconfu.com - Derivative work of Material icons (Copyright Google Inc.)</desc>
	<defs>
		<clipPath id="clip-RqbT8qtN">
			<path d="M981.33,213.33v341.34h-85.33v-341.34h-768v512h640v85.34h-85.33v85.33h-341.34v-85.33h-213.33c-47.36,0 -85.33,-38.41 -85.33,-85.34v-512c0,-47.36 37.97,-85.33 85.33,-85.33h768c46.93,0 85.33,37.97 85.33,85.33zM682.67,426.67v85.33h-128v128h-85.34v-128h-128v-85.33h128v-128h85.34v128zM1024,768l-192,192l-64,-64l128,-128l-128,-128l64,-64z"/>
		</clipPath>
		<radialGradient cx="0" cy="0" r="1448.15" id="color-PzGB9njp" gradientUnits="userSpaceOnUse">
			<stop offset="0.07" stop-color="#ffffff"/>
			<stop offset="0.75" stop-color="#000000"/>
		</radialGradient>
		<linearGradient x1="0" y1="1024" x2="1024" y2="0" id="color-yfSzpDKV" gradientUnits="userSpaceOnUse">
			<stop offset="0.2" stop-color="#000000"/>
			<stop offset="0.8" stop-color="#ffffff"/>
		</linearGradient>
		<filter id="filter-ANuNledS" color-interpolation-filters="sRGB">
			<feOffset/>
		</filter>
		<filter id="filter-laWEUOpK" x="0%" y="0%" width="100%" height="100%" color-interpolation-filters="sRGB">
			<feColorMatrix values="1 0 0 0 0 0 1 0 0 0 0 0 1 0 0 0 0 0 0.05 0" in="SourceGraphic"/>
			<feOffset dy="20"/>
			<feGaussianBlur stdDeviation="11" result="blur0"/>
			<feColorMatrix values="1 0 0 0 0 0 1 0 0 0 0 0 1 0 0 0 0 0 0.07 0" in="SourceGraphic"/>
			<feOffset dy="30"/>
			<feGaussianBlur stdDeviation="20" result="blur1"/>
			<feMerge>
				<feMergeNode in="blur0"/>
				<feMergeNode in="blur1"/>
			</feMerge>
		</filter>
		<mask id="mask-ixGhgDsW">
			<path d="M981.33,213.33v341.34h-85.33v-341.34h-768v512h640v85.34h-85.33v85.33h-341.34v-85.33h-213.33c-47.36,0 -85.33,-38.41 -85.33,-85.34v-512c0,-47.36 37.97,-85.33 85.33,-85.33h768c46.93,0 85.33,37.97 85.33,85.33zM682.67,426.67v85.33h-128v128h-85.34v-128h-128v-85.33h128v-128h85.34v128zM1024,768l-192,192l-64,-64l128,-128l-128,-128l64,-64z" fill="#ffffff"/>
		</mask>
		<mask id="mask-lW4ICAek">
			<path d="M981.33,213.33v341.34h-85.33v-341.34h-768v512h640v85.34h-85.33v85.33h-341.34v-85.33h-213.33c-47.36,0 -85.33,-38.41 -85.33,-85.34v-512c0,-47.36 37.97,-85.33 85.33,-85.33h768c46.93,0 85.33,37.97 85.33,85.33zM682.67,426.67v85.33h-128v128h-85.34v-128h-128v-85.33h128v-128h85.34v128zM1024,768l-192,192l-64,-64l128,-128l-128,-128l64,-64z" fill="url(#color-PzGB9njp)"/>
		</mask>
		<mask id="mask-xUKFUf9w">
			<rect fill="url(#color-yfSzpDKV)" x="42.67" y="128" width="981.33" height="832"/>
		</mask>
	</defs>
	<g fill="none" fill-rule="nonzero" style="mix-blend-mode: normal">
		<g mask="url(#mask-ixGhgDsW)">
			<g color="#ffc107" class="teamapps-color-2">
				<rect x="42.67" y="128" width="981.33" height="832" fill="currentColor"/>
			</g>
			<g color="#e65100" class="teamapps-color-3" mask="url(#mask-xUKFUf9w)">
				<rect x="42.67" y="128" width="981.33" height="832" fill="currentColor"/>
			</g>
		</g>
		<g filter="url(#filter-ANuNledS)" mask="url(#mask-lW4ICAek)">
			<g color="#fff59d" class="teamapps-color-1">
				<rect x="42.67" y="128" width="981.33" height="832" fill="currentColor"/>
			</g>
		</g>
		<g clip-path="url(#clip-RqbT8qtN)">
			<path d="M-50.33,1003v-1018h1167.33v1018zM896,128h-768c-47.36,0 -85.33,37.97 -85.33,85.33v512c0,46.93 37.97,85.34 85.33,85.34h213.33v85.33h341.34v-85.33h85.33v-85.34h-640v-512h768v341.34h85.33v-341.34c0,-47.36 -38.4,-85.33 -85.33,-85.33zM554.67,426.67v-128h-85.34v128h-128v85.33h128v128h85.34v-128h128v-85.33zM832,576l-64,64l128,128l-128,128l64,64l192,-192z" fill="#000000" filter="url(#filter-laWEUOpK)"/>
		</g>
	</g>
</svg>