<svg version="1.1" xmlns="http://www.w3.org/2000/svg" xmlns:xlink="http://www.w3.org/1999/xlink" viewBox="0,0,1024,1024">
	<!-- Color names: teamapps-color-1, teamapps-color-2, teamapps-color-3 -->
	<desc>recent_actors icon - Licensed under Apache License v2.0 (http://www.apache.org/licenses/LICENSE-2.0) - Created with Iconfu.com - Derivative work of Material icons (Copyright Google Inc.)</desc>
	<defs>
		<clipPath id="clip-6W2TxPud">
			<path d="M640,256v512c0,23.47 -19.2,42.67 -42.67,42.67h-512c-23.47,0 -42.66,-19.2 -42.66,-42.67v-512c0,-23.47 19.19,-42.67 42.66,-42.67h512c23.47,0 42.67,19.2 42.67,42.67zM725.33,213.33h85.34v597.34h-85.34zM981.33,213.33v597.34h-85.33v-597.34zM533.33,693.33c0,-64 -128,-96 -192,-96c-64,0 -192,32 -192,96v32h384zM245.33,426.67c0,52.91 43.09,96 96,96c52.91,0 96,-43.09 96,-96c0,-52.91 -43.09,-96 -96,-96c-52.91,0 -96,43.09 -96,96z"/>
		</clipPath>
		<radialGradient cx="0" cy="0" r="1448.15" id="color-ikeIOKai" gradientUnits="userSpaceOnUse">
			<stop offset="0.07" stop-color="#ffffff"/>
			<stop offset="0.75" stop-color="#000000"/>
		</radialGradient>
		<linearGradient x1="0" y1="1024" x2="1024" y2="0" id="color-tDOU6Z8b" gradientUnits="userSpaceOnUse">
			<stop offset="0.2" stop-color="#000000"/>
			<stop offset="0.8" stop-color="#ffffff"/>
		</linearGradient>
		<filter id="filter-uakXwbtk" color-interpolation-filters="sRGB">
			<feOffset/>
		</filter>
		<filter id="filter-xDOUFrFc" x="0%" y="0%" width="100%" height="100%" color-interpolation-filters="sRGB">
			<feColorMatrix values="1 0 0 0 0 0 1 0 0 0 0 0 1 0 0 0 0 0 0.05 0" in="SourceGraphic"/>
			<feOffset dy="20"/>
			<feGaussianBlur stdDeviation="11" result="blur0"/>
			<feColorMatrix values="1 0 0 0 0 0 1 0 0 0 0 0 1 0 0 0 0 0 0.07 0" in="SourceGraphic"/>
			<feOffset dy="30"/>
			<feGaussianBlur stdDeviation="20" result="blur1"/>
			<feMerge>
				<feMergeNode in="blur0"/>
				<feMergeNode in="blur1"/>
			</feMerge>
		</filter>
		<mask id="mask-99YaRs2G">
			<rect fill="url(#color-tDOU6Z8b)" x="42.67" y="213.33" width="938.66" height="597.34"/>
		</mask>
		<mask id="mask-w54wVraQ">
			<path d="M640,256v512c0,23.47 -19.2,42.67 -42.67,42.67h-512c-23.47,0 -42.66,-19.2 -42.66,-42.67v-512c0,-23.47 19.19,-42.67 42.66,-42.67h512c23.47,0 42.67,19.2 42.67,42.67zM725.33,213.33h85.34v597.34h-85.34zM981.33,213.33v597.34h-85.33v-597.34zM533.33,693.33c0,-64 -128,-96 -192,-96c-64,0 -192,32 -192,96v32h384zM245.33,426.67c0,52.91 43.09,96 96,96c52.91,0 96,-43.09 96,-96c0,-52.91 -43.09,-96 -96,-96c-52.91,0 -96,43.09 -96,96z" fill="#ffffff"/>
		</mask>
		<mask id="mask-yuDD18CX">
			<path d="M640,256v512c0,23.47 -19.2,42.67 -42.67,42.67h-512c-23.47,0 -42.66,-19.2 -42.66,-42.67v-512c0,-23.47 19.19,-42.67 42.66,-42.67h512c23.47,0 42.67,19.2 42.67,42.67zM725.33,213.33h85.34v597.34h-85.34zM981.33,213.33v597.34h-85.33v-597.34zM533.33,693.33c0,-64 -128,-96 -192,-96c-64,0 -192,32 -192,96v32h384zM245.33,426.67c0,52.91 43.09,96 96,96c52.91,0 96,-43.09 96,-96c0,-52.91 -43.09,-96 -96,-96c-52.91,0 -96,43.09 -96,96z" fill="url(#color-ikeIOKai)"/>
		</mask>
	</defs>
	<g fill="none" fill-rule="nonzero" style="mix-blend-mode: normal">
		<g mask="url(#mask-w54wVraQ)">
			<g color="#ffc107" class="teamapps-color-2">
				<rect x="42.67" y="213.33" width="938.66" height="597.34" fill="currentColor"/>
			</g>
			<g color="#e65100" class="teamapps-color-3" mask="url(#mask-99YaRs2G)">
				<rect x="42.67" y="213.33" width="938.66" height="597.34" fill="currentColor"/>
			</g>
		</g>
		<g filter="url(#filter-uakXwbtk)" mask="url(#mask-yuDD18CX)">
			<g color="#fff59d" class="teamapps-color-1">
				<rect x="42.67" y="213.33" width="938.66" height="597.34" fill="currentColor"/>
			</g>
		</g>
		<g clip-path="url(#clip-6W2TxPud)">
			<path d="M-50.33,853.67v-783.34h1124.66v783.34zM597.33,213.33h-512c-23.47,0 -42.66,19.2 -42.66,42.67v512c0,23.47 19.19,42.67 42.66,42.67h512c23.47,0 42.67,-19.2 42.67,-42.67v-512c0,-23.47 -19.2,-42.67 -42.67,-42.67zM725.33,810.67h85.34v-597.34h-85.34zM896,213.33v597.34h85.33v-597.34zM533.33,725.33h-384v-32c0,-64 128,-96 192,-96c64,0 192,32 192,96zM341.33,330.67c52.91,0 96,43.09 96,96c0,52.91 -43.09,96 -96,96c-52.91,0 -96,-43.09 -96,-96c0,-52.91 43.09,-96 96,-96z" fill="#000000" filter="url(#filter-xDOUFrFc)"/>
		</g>
	</g>
</svg>