<svg version="1.1" xmlns="http://www.w3.org/2000/svg" xmlns:xlink="http://www.w3.org/1999/xlink" viewBox="0,0,1024,1024">
	<!-- Color names: teamapps-color-1, teamapps-color-2, teamapps-color-3 -->
	<desc>record_voice_over icon - Licensed under Apache License v2.0 (http://www.apache.org/licenses/LICENSE-2.0) - Created with Iconfu.com - Derivative work of Material icons (Copyright Google Inc.)</desc>
	<defs>
		<clipPath id="clip-AUUmVfgZ">
			<path d="M213.33,384c0,-94.26 76.41,-170.67 170.67,-170.67c94.26,0 170.67,76.41 170.67,170.67c0,94.26 -76.41,170.67 -170.67,170.67c-94.26,0 -170.67,-76.41 -170.67,-170.67zM725.33,810.67v85.33h-682.66v-85.33c0,-113.49 227.41,-170.67 341.33,-170.67c113.92,0 341.33,57.18 341.33,170.67zM856.32,682.67l-69.55,-69.55c118.19,-135.68 118.19,-329.39 0,-458.24l69.55,-69.55c166.83,172.8 166.4,431.37 0,597.34zM715.09,538.88l-71.68,-72.11c35.84,-50.35 35.84,-115.62 0,-165.97l71.68,-72.11c86.19,93.87 86.19,224 0,310.19z"/>
		</clipPath>
		<radialGradient cx="0" cy="0" r="1448.15" id="color-CN2zZ7Xe" gradientUnits="userSpaceOnUse">
			<stop offset="0.07" stop-color="#ffffff"/>
			<stop offset="0.75" stop-color="#000000"/>
		</radialGradient>
		<linearGradient x1="0" y1="1024" x2="1024" y2="0" id="color-VG1RD2bm" gradientUnits="userSpaceOnUse">
			<stop offset="0.2" stop-color="#000000"/>
			<stop offset="0.8" stop-color="#ffffff"/>
		</linearGradient>
		<filter id="filter-6miFsAmS" color-interpolation-filters="sRGB">
			<feOffset/>
		</filter>
		<filter id="filter-HThVOEqM" x="0%" y="0%" width="100%" height="100%" color-interpolation-filters="sRGB">
			<feColorMatrix values="1 0 0 0 0 0 1 0 0 0 0 0 1 0 0 0 0 0 0.05 0" in="SourceGraphic"/>
			<feOffset dy="20"/>
			<feGaussianBlur stdDeviation="11" result="blur0"/>
			<feColorMatrix values="1 0 0 0 0 0 1 0 0 0 0 0 1 0 0 0 0 0 0.07 0" in="SourceGraphic"/>
			<feOffset dy="30"/>
			<feGaussianBlur stdDeviation="20" result="blur1"/>
			<feMerge>
				<feMergeNode in="blur0"/>
				<feMergeNode in="blur1"/>
			</feMerge>
		</filter>
		<mask id="mask-5L7wttNU">
			<path d="M213.33,384c0,-94.26 76.41,-170.67 170.67,-170.67c94.26,0 170.67,76.41 170.67,170.67c0,94.26 -76.41,170.67 -170.67,170.67c-94.26,0 -170.67,-76.41 -170.67,-170.67zM725.33,810.67v85.33h-682.66v-85.33c0,-113.49 227.41,-170.67 341.33,-170.67c113.92,0 341.33,57.18 341.33,170.67zM856.32,682.67l-69.55,-69.55c118.19,-135.68 118.19,-329.39 0,-458.24l69.55,-69.55c166.83,172.8 166.4,431.37 0,597.34zM715.09,538.88l-71.68,-72.11c35.84,-50.35 35.84,-115.62 0,-165.97l71.68,-72.11c86.19,93.87 86.19,224 0,310.19z" fill="url(#color-CN2zZ7Xe)"/>
		</mask>
		<mask id="mask-dwRRdtZO">
			<path d="M213.33,384c0,-94.26 76.41,-170.67 170.67,-170.67c94.26,0 170.67,76.41 170.67,170.67c0,94.26 -76.41,170.67 -170.67,170.67c-94.26,0 -170.67,-76.41 -170.67,-170.67zM725.33,810.67v85.33h-682.66v-85.33c0,-113.49 227.41,-170.67 341.33,-170.67c113.92,0 341.33,57.18 341.33,170.67zM856.32,682.67l-69.55,-69.55c118.19,-135.68 118.19,-329.39 0,-458.24l69.55,-69.55c166.83,172.8 166.4,431.37 0,597.34zM715.09,538.88l-71.68,-72.11c35.84,-50.35 35.84,-115.62 0,-165.97l71.68,-72.11c86.19,93.87 86.19,224 0,310.19z" fill="#ffffff"/>
		</mask>
		<mask id="mask-fpwPPmS2">
			<rect fill="url(#color-VG1RD2bm)" x="42.67" y="85.33" width="938.61" height="810.67"/>
		</mask>
	</defs>
	<g fill="none" fill-rule="nonzero" style="mix-blend-mode: normal">
		<g mask="url(#mask-dwRRdtZO)">
			<g color="#ffc107" class="teamapps-color-2">
				<rect x="42.67" y="85.33" width="938.61" height="810.67" fill="currentColor"/>
			</g>
			<g color="#e65100" class="teamapps-color-3" mask="url(#mask-fpwPPmS2)">
				<rect x="42.67" y="85.33" width="938.61" height="810.67" fill="currentColor"/>
			</g>
		</g>
		<g filter="url(#filter-6miFsAmS)" mask="url(#mask-5L7wttNU)">
			<g color="#fff59d" class="teamapps-color-1">
				<rect x="42.67" y="85.33" width="938.61" height="810.67" fill="currentColor"/>
			</g>
		</g>
		<g clip-path="url(#clip-AUUmVfgZ)">
			<path d="M-50.33,939v-996.67h1124.61v996.67zM384,554.67c94.26,0 170.67,-76.41 170.67,-170.67c0,-94.26 -76.41,-170.67 -170.67,-170.67c-94.26,0 -170.67,76.41 -170.67,170.67c0,94.26 76.41,170.67 170.67,170.67zM384,640c-113.92,0 -341.33,57.18 -341.33,170.67v85.33h682.66v-85.33c0,-113.49 -227.41,-170.67 -341.33,-170.67zM856.32,85.33l-69.55,69.55c118.19,128.85 118.19,322.56 0,458.24l69.55,69.55c166.4,-165.97 166.83,-424.54 0,-597.34zM715.09,228.69l-71.68,72.11c35.84,50.35 35.84,115.62 0,165.97l71.68,72.11c86.19,-86.19 86.19,-216.32 0,-310.19z" fill="#000000" filter="url(#filter-HThVOEqM)"/>
		</g>
	</g>
</svg>