<svg version="1.1" xmlns="http://www.w3.org/2000/svg" xmlns:xlink="http://www.w3.org/1999/xlink" viewBox="0,0,1024,1024">
	<!-- Color names: teamapps-color-1, teamapps-color-2, teamapps-color-3 -->
	<desc>repeat icon - Licensed under Apache License v2.0 (http://www.apache.org/licenses/LICENSE-2.0) - Created with Iconfu.com - Derivative work of Material icons (Copyright Google Inc.)</desc>
	<defs>
		<clipPath id="clip-Oi7J0wDW">
			<path d="M298.67,469.33h-85.34v-256h512v-128l170.67,170.67l-170.67,170.67v-128h-426.66zM725.33,554.67h85.34v256h-512v128l-170.67,-170.67l170.67,-170.67v128h426.66z"/>
		</clipPath>
		<radialGradient cx="0" cy="0" r="1448.15" id="color-5V4G6MLr" gradientUnits="userSpaceOnUse">
			<stop offset="0.07" stop-color="#ffffff"/>
			<stop offset="0.75" stop-color="#000000"/>
		</radialGradient>
		<linearGradient x1="0" y1="1024" x2="1024" y2="0" id="color-op1kdlwd" gradientUnits="userSpaceOnUse">
			<stop offset="0.2" stop-color="#000000"/>
			<stop offset="0.8" stop-color="#ffffff"/>
		</linearGradient>
		<filter id="filter-62VgfnRv" x="0%" y="0%" width="100%" height="100%" color-interpolation-filters="sRGB">
			<feColorMatrix values="1 0 0 0 0 0 1 0 0 0 0 0 1 0 0 0 0 0 0.05 0" in="SourceGraphic"/>
			<feOffset dy="20"/>
			<feGaussianBlur stdDeviation="11" result="blur0"/>
			<feColorMatrix values="1 0 0 0 0 0 1 0 0 0 0 0 1 0 0 0 0 0 0.07 0" in="SourceGraphic"/>
			<feOffset dy="30"/>
			<feGaussianBlur stdDeviation="20" result="blur1"/>
			<feMerge>
				<feMergeNode in="blur0"/>
				<feMergeNode in="blur1"/>
			</feMerge>
		</filter>
		<filter id="filter-fX06VDRz" color-interpolation-filters="sRGB">
			<feOffset/>
		</filter>
		<mask id="mask-J6DPoXgw">
			<path d="M298.67,469.33h-85.34v-256h512v-128l170.67,170.67l-170.67,170.67v-128h-426.66zM725.33,554.67h85.34v256h-512v128l-170.67,-170.67l170.67,-170.67v128h426.66z" fill="#ffffff"/>
		</mask>
		<mask id="mask-LjWGDi7U">
			<rect fill="url(#color-op1kdlwd)" x="128" y="85.33" width="768" height="853.34"/>
		</mask>
		<mask id="mask-zpPEGMBf">
			<path d="M298.67,469.33h-85.34v-256h512v-128l170.67,170.67l-170.67,170.67v-128h-426.66zM725.33,554.67h85.34v256h-512v128l-170.67,-170.67l170.67,-170.67v128h426.66z" fill="url(#color-5V4G6MLr)"/>
		</mask>
	</defs>
	<g fill="none" fill-rule="nonzero" style="mix-blend-mode: normal">
		<g mask="url(#mask-J6DPoXgw)">
			<g color="#ffc107" class="teamapps-color-2">
				<rect x="128" y="85.33" width="768" height="853.34" fill="currentColor"/>
			</g>
			<g color="#e65100" class="teamapps-color-3" mask="url(#mask-LjWGDi7U)">
				<rect x="128" y="85.33" width="768" height="853.34" fill="currentColor"/>
			</g>
		</g>
		<g filter="url(#filter-fX06VDRz)" mask="url(#mask-zpPEGMBf)">
			<g color="#fff59d" class="teamapps-color-1">
				<rect x="128" y="85.33" width="768" height="853.34" fill="currentColor"/>
			</g>
		</g>
		<g clip-path="url(#clip-Oi7J0wDW)">
			<path d="M35,981.67v-1039.34h954v1039.34zM298.67,298.67h426.66v128l170.67,-170.67l-170.67,-170.67v128h-512v256h85.34zM725.33,725.33h-426.66v-128l-170.67,170.67l170.67,170.67v-128h512v-256h-85.34z" fill="#000000" filter="url(#filter-62VgfnRv)"/>
		</g>
	</g>
</svg>