<svg version="1.1" xmlns="http://www.w3.org/2000/svg" xmlns:xlink="http://www.w3.org/1999/xlink" viewBox="0,0,1024,1024">
	<!-- Color names: teamapps-color-1, teamapps-color-2, teamapps-color-3 -->
	<desc>replay icon - Licensed under Apache License v2.0 (http://www.apache.org/licenses/LICENSE-2.0) - Created with Iconfu.com - Derivative work of Material icons (Copyright Google Inc.)</desc>
	<defs>
		<clipPath id="clip-5GCi8TM0">
			<path d="M853.33,554.67c0,188.59 -152.74,341.33 -341.33,341.33c-188.59,0 -341.33,-152.74 -341.33,-341.33h85.33c0,141.23 114.77,256 256,256c141.23,0 256,-114.77 256,-256c0,-141.23 -114.77,-256 -256,-256v170.66l-213.33,-213.33l213.33,-213.33v170.66c188.59,0 341.33,152.75 341.33,341.34z"/>
		</clipPath>
		<radialGradient cx="0" cy="0" r="1448.15" id="color-djIf00e2" gradientUnits="userSpaceOnUse">
			<stop offset="0.07" stop-color="#ffffff"/>
			<stop offset="0.75" stop-color="#000000"/>
		</radialGradient>
		<linearGradient x1="0" y1="1024" x2="1024" y2="0" id="color-Lr6qOyc8" gradientUnits="userSpaceOnUse">
			<stop offset="0.2" stop-color="#000000"/>
			<stop offset="0.8" stop-color="#ffffff"/>
		</linearGradient>
		<filter id="filter-JlAtdS1W" color-interpolation-filters="sRGB">
			<feOffset/>
		</filter>
		<filter id="filter-OuZtS7ZW" x="0%" y="0%" width="100%" height="100%" color-interpolation-filters="sRGB">
			<feColorMatrix values="1 0 0 0 0 0 1 0 0 0 0 0 1 0 0 0 0 0 0.05 0" in="SourceGraphic"/>
			<feOffset dy="20"/>
			<feGaussianBlur stdDeviation="11" result="blur0"/>
			<feColorMatrix values="1 0 0 0 0 0 1 0 0 0 0 0 1 0 0 0 0 0 0.07 0" in="SourceGraphic"/>
			<feOffset dy="30"/>
			<feGaussianBlur stdDeviation="20" result="blur1"/>
			<feMerge>
				<feMergeNode in="blur0"/>
				<feMergeNode in="blur1"/>
			</feMerge>
		</filter>
		<mask id="mask-1E3DiVUk">
			<path d="M853.33,554.67c0,188.59 -152.74,341.33 -341.33,341.33c-188.59,0 -341.33,-152.74 -341.33,-341.33h85.33c0,141.23 114.77,256 256,256c141.23,0 256,-114.77 256,-256c0,-141.23 -114.77,-256 -256,-256v170.66l-213.33,-213.33l213.33,-213.33v170.66c188.59,0 341.33,152.75 341.33,341.34z" fill="url(#color-djIf00e2)"/>
		</mask>
		<mask id="mask-Dc2mWN9o">
			<rect fill="url(#color-Lr6qOyc8)" x="170.67" y="42.67" width="682.66" height="853.33"/>
		</mask>
		<mask id="mask-sbdf6eUC">
			<path d="M853.33,554.67c0,188.59 -152.74,341.33 -341.33,341.33c-188.59,0 -341.33,-152.74 -341.33,-341.33h85.33c0,141.23 114.77,256 256,256c141.23,0 256,-114.77 256,-256c0,-141.23 -114.77,-256 -256,-256v170.66l-213.33,-213.33l213.33,-213.33v170.66c188.59,0 341.33,152.75 341.33,341.34z" fill="#ffffff"/>
		</mask>
	</defs>
	<g fill="none" fill-rule="nonzero" style="mix-blend-mode: normal">
		<g mask="url(#mask-sbdf6eUC)">
			<g color="#ffc107" class="teamapps-color-2">
				<rect x="170.67" y="42.67" width="682.66" height="853.33" fill="currentColor"/>
			</g>
			<g color="#e65100" class="teamapps-color-3" mask="url(#mask-Dc2mWN9o)">
				<rect x="170.67" y="42.67" width="682.66" height="853.33" fill="currentColor"/>
			</g>
		</g>
		<g filter="url(#filter-JlAtdS1W)" mask="url(#mask-1E3DiVUk)">
			<g color="#fff59d" class="teamapps-color-1">
				<rect x="170.67" y="42.67" width="682.66" height="853.33" fill="currentColor"/>
			</g>
		</g>
		<g clip-path="url(#clip-5GCi8TM0)">
			<path d="M77.67,939v-1039.33h868.66v1039.33zM512,213.33v-170.66l-213.33,213.33l213.33,213.33v-170.66c141.23,0 256,114.77 256,256c0,141.23 -114.77,256 -256,256c-141.23,0 -256,-114.77 -256,-256h-85.33c0,188.59 152.74,341.33 341.33,341.33c188.59,0 341.33,-152.74 341.33,-341.33c0,-188.59 -152.74,-341.34 -341.33,-341.34z" fill="#000000" filter="url(#filter-OuZtS7ZW)"/>
		</g>
	</g>
</svg>