<svg version="1.1" xmlns="http://www.w3.org/2000/svg" xmlns:xlink="http://www.w3.org/1999/xlink" viewBox="0,0,1024,1024">
	<!-- Color names: teamapps-color-1, teamapps-color-2, teamapps-color-3 -->
	<desc>ring_volume icon - Licensed under Apache License v2.0 (http://www.apache.org/licenses/LICENSE-2.0) - Created with Iconfu.com - Derivative work of Material icons (Copyright Google Inc.)</desc>
	<defs>
		<clipPath id="clip-SmKkkhTP">
			<path d="M1024,741.12c0,11.95 -4.69,22.61 -12.37,30.29l-105.82,105.82c-7.68,7.68 -18.34,12.37 -30.29,12.37c-11.52,0 -22.19,-4.27 -29.87,-11.95c-33.71,-31.15 -71.68,-58.02 -113.49,-78.93c-14.08,-6.83 -23.89,-21.76 -23.89,-38.4v-132.27c-61.87,-20.05 -128,-30.72 -196.27,-30.72c-68.27,0 -134.4,10.67 -196.27,31.15v132.27c0,17.07 -9.81,31.57 -23.89,38.4c-41.39,20.91 -79.78,47.36 -113.49,78.93c-7.68,7.25 -18.35,11.95 -29.87,11.95c-11.95,0 -22.61,-4.7 -30.29,-12.38l-105.82,-105.81c-7.68,-7.68 -12.37,-18.34 -12.37,-30.29c0,-11.95 4.69,-22.62 12.37,-30.3c130.13,-123.31 305.92,-199.25 499.63,-199.25c193.71,0 369.5,75.94 499.63,199.25c7.68,7.68 12.37,18.35 12.37,29.87zM121.17,267.09l60.59,-60.58l151.47,151.89l-60.16,60.16c0,0 -147.21,-150.19 -151.9,-151.47zM750.93,418.56l-60.16,-60.16l151.9,-151.47l60.16,60.16c-4.69,1.28 -151.9,151.47 -151.9,151.47zM554.67,298.67h-85.34v-213.34h85.34z"/>
		</clipPath>
		<radialGradient cx="0" cy="0" r="1448.15" id="color-I3Xb16KG" gradientUnits="userSpaceOnUse">
			<stop offset="0.07" stop-color="#ffffff"/>
			<stop offset="0.75" stop-color="#000000"/>
		</radialGradient>
		<linearGradient x1="0" y1="1024" x2="1024" y2="0" id="color-nDtWoPpa" gradientUnits="userSpaceOnUse">
			<stop offset="0.2" stop-color="#000000"/>
			<stop offset="0.8" stop-color="#ffffff"/>
		</linearGradient>
		<filter id="filter-44STL7Lf" x="0%" y="0%" width="100%" height="100%" color-interpolation-filters="sRGB">
			<feColorMatrix values="1 0 0 0 0 0 1 0 0 0 0 0 1 0 0 0 0 0 0.05 0" in="SourceGraphic"/>
			<feOffset dy="20"/>
			<feGaussianBlur stdDeviation="11" result="blur0"/>
			<feColorMatrix values="1 0 0 0 0 0 1 0 0 0 0 0 1 0 0 0 0 0 0.07 0" in="SourceGraphic"/>
			<feOffset dy="30"/>
			<feGaussianBlur stdDeviation="20" result="blur1"/>
			<feMerge>
				<feMergeNode in="blur0"/>
				<feMergeNode in="blur1"/>
			</feMerge>
		</filter>
		<filter id="filter-kUlMvc3U" color-interpolation-filters="sRGB">
			<feOffset/>
		</filter>
		<mask id="mask-BvdK4v2a">
			<path d="M1024,741.12c0,11.95 -4.69,22.61 -12.37,30.29l-105.82,105.82c-7.68,7.68 -18.34,12.37 -30.29,12.37c-11.52,0 -22.19,-4.27 -29.87,-11.95c-33.71,-31.15 -71.68,-58.02 -113.49,-78.93c-14.08,-6.83 -23.89,-21.76 -23.89,-38.4v-132.27c-61.87,-20.05 -128,-30.72 -196.27,-30.72c-68.27,0 -134.4,10.67 -196.27,31.15v132.27c0,17.07 -9.81,31.57 -23.89,38.4c-41.39,20.91 -79.78,47.36 -113.49,78.93c-7.68,7.25 -18.35,11.95 -29.87,11.95c-11.95,0 -22.61,-4.7 -30.29,-12.38l-105.82,-105.81c-7.68,-7.68 -12.37,-18.34 -12.37,-30.29c0,-11.95 4.69,-22.62 12.37,-30.3c130.13,-123.31 305.92,-199.25 499.63,-199.25c193.71,0 369.5,75.94 499.63,199.25c7.68,7.68 12.37,18.35 12.37,29.87zM121.17,267.09l60.59,-60.58l151.47,151.89l-60.16,60.16c0,0 -147.21,-150.19 -151.9,-151.47zM750.93,418.56l-60.16,-60.16l151.9,-151.47l60.16,60.16c-4.69,1.28 -151.9,151.47 -151.9,151.47zM554.67,298.67h-85.34v-213.34h85.34z" fill="url(#color-I3Xb16KG)"/>
		</mask>
		<mask id="mask-cboTpxYL">
			<path d="M1024,741.12c0,11.95 -4.69,22.61 -12.37,30.29l-105.82,105.82c-7.68,7.68 -18.34,12.37 -30.29,12.37c-11.52,0 -22.19,-4.27 -29.87,-11.95c-33.71,-31.15 -71.68,-58.02 -113.49,-78.93c-14.08,-6.83 -23.89,-21.76 -23.89,-38.4v-132.27c-61.87,-20.05 -128,-30.72 -196.27,-30.72c-68.27,0 -134.4,10.67 -196.27,31.15v132.27c0,17.07 -9.81,31.57 -23.89,38.4c-41.39,20.91 -79.78,47.36 -113.49,78.93c-7.68,7.25 -18.35,11.95 -29.87,11.95c-11.95,0 -22.61,-4.7 -30.29,-12.38l-105.82,-105.81c-7.68,-7.68 -12.37,-18.34 -12.37,-30.29c0,-11.95 4.69,-22.62 12.37,-30.3c130.13,-123.31 305.92,-199.25 499.63,-199.25c193.71,0 369.5,75.94 499.63,199.25c7.68,7.68 12.37,18.35 12.37,29.87zM121.17,267.09l60.59,-60.58l151.47,151.89l-60.16,60.16c0,0 -147.21,-150.19 -151.9,-151.47zM750.93,418.56l-60.16,-60.16l151.9,-151.47l60.16,60.16c-4.69,1.28 -151.9,151.47 -151.9,151.47zM554.67,298.67h-85.34v-213.34h85.34z" fill="#ffffff"/>
		</mask>
		<mask id="mask-foNY4eVU">
			<rect fill="url(#color-nDtWoPpa)" x="0" y="85.33" width="1024" height="804.7"/>
		</mask>
	</defs>
	<g fill="none" fill-rule="nonzero" style="mix-blend-mode: normal">
		<g mask="url(#mask-cboTpxYL)">
			<g color="#ffc107" class="teamapps-color-2">
				<rect x="0" y="85.33" width="1024" height="804.7" fill="currentColor"/>
			</g>
			<g color="#e65100" class="teamapps-color-3" mask="url(#mask-foNY4eVU)">
				<rect x="0" y="85.33" width="1024" height="804.7" fill="currentColor"/>
			</g>
		</g>
		<g filter="url(#filter-kUlMvc3U)" mask="url(#mask-BvdK4v2a)">
			<g color="#fff59d" class="teamapps-color-1">
				<rect x="0" y="85.33" width="1024" height="804.7" fill="currentColor"/>
			</g>
		</g>
		<g clip-path="url(#clip-SmKkkhTP)">
			<path d="M-93,933.03v-990.7h1210v990.7zM1011.63,711.25c-130.13,-123.31 -305.92,-199.25 -499.63,-199.25c-193.71,0 -369.5,75.94 -499.63,199.25c-7.68,7.68 -12.37,18.35 -12.37,30.3c0,11.95 4.69,22.61 12.37,30.29l105.82,105.81c7.68,7.68 18.34,12.38 30.29,12.38c11.52,0 22.19,-4.7 29.87,-11.95c33.71,-31.57 72.1,-58.02 113.49,-78.93c14.08,-6.83 23.89,-21.33 23.89,-38.4v-132.27c61.87,-20.48 128,-31.15 196.27,-31.15c68.27,0 134.4,10.67 196.27,30.72v132.27c0,16.64 9.81,31.57 23.89,38.4c41.81,20.91 79.78,47.78 113.49,78.93c7.68,7.68 18.35,11.95 29.87,11.95c11.95,0 22.61,-4.69 30.29,-12.37l105.82,-105.82c7.68,-7.68 12.37,-18.34 12.37,-30.29c0,-11.52 -4.69,-22.19 -12.37,-29.87zM273.07,418.56l60.16,-60.16l-151.47,-151.89l-60.59,60.58c4.69,1.28 151.9,151.47 151.9,151.47zM902.83,267.09l-60.16,-60.16l-151.9,151.47l60.16,60.16c0,0 147.21,-150.19 151.9,-151.47zM554.67,85.33h-85.34v213.34h85.34z" fill="#000000" filter="url(#filter-44STL7Lf)"/>
		</g>
	</g>
</svg>