<svg version="1.1" xmlns="http://www.w3.org/2000/svg" xmlns:xlink="http://www.w3.org/1999/xlink" viewBox="0,0,1024,1024">
	<!-- Color names: teamapps-color-1, teamapps-color-2, teamapps-color-3 -->
	<desc>rounded_corner icon - Licensed under Apache License v2.0 (http://www.apache.org/licenses/LICENSE-2.0) - Created with Iconfu.com - Derivative work of Material icons (Copyright Google Inc.)</desc>
	<defs>
		<clipPath id="clip-u0uav07P">
			<path d="M896,554.67h-85.33v-213.34c0,-70.4 -57.6,-128 -128,-128h-213.34v-85.33h213.34c117.76,0 213.33,95.57 213.33,213.33zM810.67,810.67h85.33v85.33h-85.33zM298.67,810.67h85.33v85.33h-85.33zM128,298.67h85.33v85.33h-85.33zM298.67,128h85.33v85.33h-85.33zM469.33,810.67h85.34v85.33h-85.34zM128,810.67h85.33v85.33h-85.33zM810.67,640h85.33v85.33h-85.33zM128,469.33h85.33v85.34h-85.33zM128,128h85.33v85.33h-85.33zM640,810.67h85.33v85.33h-85.33zM128,640h85.33v85.33h-85.33z"/>
		</clipPath>
		<radialGradient cx="0" cy="0" r="1448.15" id="color-N03XXx8S" gradientUnits="userSpaceOnUse">
			<stop offset="0.07" stop-color="#ffffff"/>
			<stop offset="0.75" stop-color="#000000"/>
		</radialGradient>
		<linearGradient x1="0" y1="1024" x2="1024" y2="0" id="color-tnCMkpRU" gradientUnits="userSpaceOnUse">
			<stop offset="0.2" stop-color="#000000"/>
			<stop offset="0.8" stop-color="#ffffff"/>
		</linearGradient>
		<filter id="filter-fv9Kju5d" color-interpolation-filters="sRGB">
			<feOffset/>
		</filter>
		<filter id="filter-juVfHtSB" x="0%" y="0%" width="100%" height="100%" color-interpolation-filters="sRGB">
			<feColorMatrix values="1 0 0 0 0 0 1 0 0 0 0 0 1 0 0 0 0 0 0.05 0" in="SourceGraphic"/>
			<feOffset dy="20"/>
			<feGaussianBlur stdDeviation="11" result="blur0"/>
			<feColorMatrix values="1 0 0 0 0 0 1 0 0 0 0 0 1 0 0 0 0 0 0.07 0" in="SourceGraphic"/>
			<feOffset dy="30"/>
			<feGaussianBlur stdDeviation="20" result="blur1"/>
			<feMerge>
				<feMergeNode in="blur0"/>
				<feMergeNode in="blur1"/>
			</feMerge>
		</filter>
		<mask id="mask-09D3NoM4">
			<path d="M896,554.67h-85.33v-213.34c0,-70.4 -57.6,-128 -128,-128h-213.34v-85.33h213.34c117.76,0 213.33,95.57 213.33,213.33zM810.67,810.67h85.33v85.33h-85.33zM298.67,810.67h85.33v85.33h-85.33zM128,298.67h85.33v85.33h-85.33zM298.67,128h85.33v85.33h-85.33zM469.33,810.67h85.34v85.33h-85.34zM128,810.67h85.33v85.33h-85.33zM810.67,640h85.33v85.33h-85.33zM128,469.33h85.33v85.34h-85.33zM128,128h85.33v85.33h-85.33zM640,810.67h85.33v85.33h-85.33zM128,640h85.33v85.33h-85.33z" fill="#ffffff"/>
		</mask>
		<mask id="mask-afOM6Qpj">
			<rect fill="url(#color-tnCMkpRU)" x="128" y="128" width="768" height="768"/>
		</mask>
		<mask id="mask-O5Nzu1sw">
			<path d="M896,554.67h-85.33v-213.34c0,-70.4 -57.6,-128 -128,-128h-213.34v-85.33h213.34c117.76,0 213.33,95.57 213.33,213.33zM810.67,810.67h85.33v85.33h-85.33zM298.67,810.67h85.33v85.33h-85.33zM128,298.67h85.33v85.33h-85.33zM298.67,128h85.33v85.33h-85.33zM469.33,810.67h85.34v85.33h-85.34zM128,810.67h85.33v85.33h-85.33zM810.67,640h85.33v85.33h-85.33zM128,469.33h85.33v85.34h-85.33zM128,128h85.33v85.33h-85.33zM640,810.67h85.33v85.33h-85.33zM128,640h85.33v85.33h-85.33z" fill="url(#color-N03XXx8S)"/>
		</mask>
	</defs>
	<g fill="none" fill-rule="nonzero" style="mix-blend-mode: normal">
		<g mask="url(#mask-09D3NoM4)">
			<g color="#ffc107" class="teamapps-color-2">
				<rect x="128" y="128" width="768" height="768" fill="currentColor"/>
			</g>
			<g color="#e65100" class="teamapps-color-3" mask="url(#mask-afOM6Qpj)">
				<rect x="128" y="128" width="768" height="768" fill="currentColor"/>
			</g>
		</g>
		<g filter="url(#filter-fv9Kju5d)" mask="url(#mask-O5Nzu1sw)">
			<g color="#fff59d" class="teamapps-color-1">
				<rect x="128" y="128" width="768" height="768" fill="currentColor"/>
			</g>
		</g>
		<g clip-path="url(#clip-u0uav07P)">
			<path d="M35,939v-954h954v954zM896,341.33c0,-117.76 -95.57,-213.33 -213.33,-213.33h-213.34v85.33h213.34c70.4,0 128,57.6 128,128v213.34h85.33zM810.67,896h85.33v-85.33h-85.33zM298.67,896h85.33v-85.33h-85.33zM128,384h85.33v-85.33h-85.33zM298.67,213.33h85.33v-85.33h-85.33zM469.33,896h85.34v-85.33h-85.34zM128,896h85.33v-85.33h-85.33zM810.67,725.33h85.33v-85.33h-85.33zM128,554.67h85.33v-85.34h-85.33zM128,213.33h85.33v-85.33h-85.33zM640,896h85.33v-85.33h-85.33zM128,725.33h85.33v-85.33h-85.33z" fill="#000000" filter="url(#filter-juVfHtSB)"/>
		</g>
	</g>
</svg>