<svg version="1.1" xmlns="http://www.w3.org/2000/svg" xmlns:xlink="http://www.w3.org/1999/xlink" viewBox="0,0,1024,1024">
	<!-- Color names: teamapps-color-1, teamapps-color-2, teamapps-color-3 -->
	<desc>scanner icon - Licensed under Apache License v2.0 (http://www.apache.org/licenses/LICENSE-2.0) - Created with Iconfu.com - Derivative work of Material icons (Copyright Google Inc.)</desc>
	<defs>
		<clipPath id="clip-cvM08C2U">
			<path d="M896,533.33v234.67c0,46.93 -38.4,85.33 -85.33,85.33h-597.34c-46.93,0 -85.33,-38.4 -85.33,-85.33v-170.67c0,-46.93 38.4,-85.33 85.33,-85.33h537.6l-601.6,-217.6l29.87,-81.07l665.6,243.2c29.87,8.53 51.2,42.67 51.2,76.8zM810.67,640h-426.67v85.33h426.67zM298.67,640h-85.34v85.33h85.34z"/>
		</clipPath>
		<linearGradient x1="0" y1="1024" x2="1024" y2="0" id="color-eLYmyGXx" gradientUnits="userSpaceOnUse">
			<stop offset="0.2" stop-color="#000000"/>
			<stop offset="0.8" stop-color="#ffffff"/>
		</linearGradient>
		<radialGradient cx="0" cy="0" r="1448.15" id="color-SQhmW5uE" gradientUnits="userSpaceOnUse">
			<stop offset="0.07" stop-color="#ffffff"/>
			<stop offset="0.75" stop-color="#000000"/>
		</radialGradient>
		<filter id="filter-49KtIREv" x="0%" y="0%" width="100%" height="100%" color-interpolation-filters="sRGB">
			<feColorMatrix values="1 0 0 0 0 0 1 0 0 0 0 0 1 0 0 0 0 0 0.05 0" in="SourceGraphic"/>
			<feOffset dy="20"/>
			<feGaussianBlur stdDeviation="11" result="blur0"/>
			<feColorMatrix values="1 0 0 0 0 0 1 0 0 0 0 0 1 0 0 0 0 0 0.07 0" in="SourceGraphic"/>
			<feOffset dy="30"/>
			<feGaussianBlur stdDeviation="20" result="blur1"/>
			<feMerge>
				<feMergeNode in="blur0"/>
				<feMergeNode in="blur1"/>
			</feMerge>
		</filter>
		<filter id="filter-7l6UZras" color-interpolation-filters="sRGB">
			<feOffset/>
		</filter>
		<mask id="mask-1uDMaHY3">
			<rect fill="url(#color-eLYmyGXx)" x="128" y="213.33" width="768" height="640"/>
		</mask>
		<mask id="mask-DPZ9tcbZ">
			<path d="M896,533.33v234.67c0,46.93 -38.4,85.33 -85.33,85.33h-597.34c-46.93,0 -85.33,-38.4 -85.33,-85.33v-170.67c0,-46.93 38.4,-85.33 85.33,-85.33h537.6l-601.6,-217.6l29.87,-81.07l665.6,243.2c29.87,8.53 51.2,42.67 51.2,76.8zM810.67,640h-426.67v85.33h426.67zM298.67,640h-85.34v85.33h85.34z" fill="url(#color-SQhmW5uE)"/>
		</mask>
		<mask id="mask-tSMfmDyH">
			<path d="M896,533.33v234.67c0,46.93 -38.4,85.33 -85.33,85.33h-597.34c-46.93,0 -85.33,-38.4 -85.33,-85.33v-170.67c0,-46.93 38.4,-85.33 85.33,-85.33h537.6l-601.6,-217.6l29.87,-81.07l665.6,243.2c29.87,8.53 51.2,42.67 51.2,76.8zM810.67,640h-426.67v85.33h426.67zM298.67,640h-85.34v85.33h85.34z" fill="#ffffff"/>
		</mask>
	</defs>
	<g fill="none" fill-rule="nonzero" style="mix-blend-mode: normal">
		<g mask="url(#mask-tSMfmDyH)">
			<g color="#ffc107" class="teamapps-color-2">
				<rect x="128" y="213.33" width="768" height="640" fill="currentColor"/>
			</g>
			<g color="#e65100" class="teamapps-color-3" mask="url(#mask-1uDMaHY3)">
				<rect x="128" y="213.33" width="768" height="640" fill="currentColor"/>
			</g>
		</g>
		<g filter="url(#filter-7l6UZras)" mask="url(#mask-DPZ9tcbZ)">
			<g color="#fff59d" class="teamapps-color-1">
				<rect x="128" y="213.33" width="768" height="640" fill="currentColor"/>
			</g>
		</g>
		<g clip-path="url(#clip-cvM08C2U)">
			<path d="M35,896.33v-826h954v826zM844.8,456.53l-665.6,-243.2l-29.87,81.07l601.6,217.6h-537.6c-46.93,0 -85.33,38.4 -85.33,85.33v170.67c0,46.93 38.4,85.33 85.33,85.33h597.34c46.93,0 85.33,-38.4 85.33,-85.33v-234.67c0,-34.13 -21.33,-68.27 -51.2,-76.8zM810.67,725.33h-426.67v-85.33h426.67zM298.67,725.33h-85.34v-85.33h85.34z" fill="#000000" filter="url(#filter-49KtIREv)"/>
		</g>
	</g>
</svg>