<svg version="1.1" xmlns="http://www.w3.org/2000/svg" xmlns:xlink="http://www.w3.org/1999/xlink" viewBox="0,0,1024,1024">
	<!-- Color names: teamapps-color-1, teamapps-color-2, teamapps-color-3 -->
	<desc>screen_lock_portrait icon - Licensed under Apache License v2.0 (http://www.apache.org/licenses/LICENSE-2.0) - Created with Iconfu.com - Derivative work of Material icons (Copyright Google Inc.)</desc>
	<defs>
		<clipPath id="clip-5JWts391">
			<path d="M810.67,128v768c0,46.93 -38.41,85.33 -85.34,85.33h-426.66c-46.93,0 -85.34,-38.4 -85.34,-85.33v-768c0,-46.93 38.41,-85.33 85.34,-85.33h426.66c46.93,0 85.34,38.4 85.34,85.33zM725.33,213.33h-426.66v597.34h426.66zM384,640v-128c0,-23.47 19.2,-42.67 42.67,-42.67v-42.66c0,-46.93 37.97,-85.34 85.33,-85.34c46.93,0 85.33,37.98 85.33,85.34v42.66c23.47,0 42.67,19.2 42.67,42.67v128c0,23.47 -19.2,42.67 -42.67,42.67h-170.66c-23.47,0 -42.67,-19.2 -42.67,-42.67zM460.8,469.33h102.4v-42.66c0,-28.16 -23.04,-51.2 -51.2,-51.2c-28.16,0 -51.2,23.04 -51.2,51.2z"/>
		</clipPath>
		<radialGradient cx="0" cy="0" r="1448.15" id="color-084lTmY0" gradientUnits="userSpaceOnUse">
			<stop offset="0.07" stop-color="#ffffff"/>
			<stop offset="0.75" stop-color="#000000"/>
		</radialGradient>
		<linearGradient x1="0" y1="1024" x2="1024" y2="0" id="color-90COmB15" gradientUnits="userSpaceOnUse">
			<stop offset="0.2" stop-color="#000000"/>
			<stop offset="0.8" stop-color="#ffffff"/>
		</linearGradient>
		<filter id="filter-7ExQtkya" x="0%" y="0%" width="100%" height="100%" color-interpolation-filters="sRGB">
			<feColorMatrix values="1 0 0 0 0 0 1 0 0 0 0 0 1 0 0 0 0 0 0.05 0" in="SourceGraphic"/>
			<feOffset dy="20"/>
			<feGaussianBlur stdDeviation="11" result="blur0"/>
			<feColorMatrix values="1 0 0 0 0 0 1 0 0 0 0 0 1 0 0 0 0 0 0.07 0" in="SourceGraphic"/>
			<feOffset dy="30"/>
			<feGaussianBlur stdDeviation="20" result="blur1"/>
			<feMerge>
				<feMergeNode in="blur0"/>
				<feMergeNode in="blur1"/>
			</feMerge>
		</filter>
		<filter id="filter-NmVv6Y0I" color-interpolation-filters="sRGB">
			<feOffset/>
		</filter>
		<mask id="mask-dxZQdclq">
			<path d="M810.67,128v768c0,46.93 -38.41,85.33 -85.34,85.33h-426.66c-46.93,0 -85.34,-38.4 -85.34,-85.33v-768c0,-46.93 38.41,-85.33 85.34,-85.33h426.66c46.93,0 85.34,38.4 85.34,85.33zM725.33,213.33h-426.66v597.34h426.66zM384,640v-128c0,-23.47 19.2,-42.67 42.67,-42.67v-42.66c0,-46.93 37.97,-85.34 85.33,-85.34c46.93,0 85.33,37.98 85.33,85.34v42.66c23.47,0 42.67,19.2 42.67,42.67v128c0,23.47 -19.2,42.67 -42.67,42.67h-170.66c-23.47,0 -42.67,-19.2 -42.67,-42.67zM460.8,469.33h102.4v-42.66c0,-28.16 -23.04,-51.2 -51.2,-51.2c-28.16,0 -51.2,23.04 -51.2,51.2z" fill="url(#color-084lTmY0)"/>
		</mask>
		<mask id="mask-nf75hm7C">
			<rect fill="url(#color-90COmB15)" x="213.33" y="42.67" width="597.34" height="938.66"/>
		</mask>
		<mask id="mask-wQzOR45T">
			<path d="M810.67,128v768c0,46.93 -38.41,85.33 -85.34,85.33h-426.66c-46.93,0 -85.34,-38.4 -85.34,-85.33v-768c0,-46.93 38.41,-85.33 85.34,-85.33h426.66c46.93,0 85.34,38.4 85.34,85.33zM725.33,213.33h-426.66v597.34h426.66zM384,640v-128c0,-23.47 19.2,-42.67 42.67,-42.67v-42.66c0,-46.93 37.97,-85.34 85.33,-85.34c46.93,0 85.33,37.98 85.33,85.34v42.66c23.47,0 42.67,19.2 42.67,42.67v128c0,23.47 -19.2,42.67 -42.67,42.67h-170.66c-23.47,0 -42.67,-19.2 -42.67,-42.67zM460.8,469.33h102.4v-42.66c0,-28.16 -23.04,-51.2 -51.2,-51.2c-28.16,0 -51.2,23.04 -51.2,51.2z" fill="#ffffff"/>
		</mask>
	</defs>
	<g fill="none" fill-rule="nonzero" style="mix-blend-mode: normal">
		<g mask="url(#mask-wQzOR45T)">
			<g color="#ffc107" class="teamapps-color-2">
				<rect x="213.33" y="42.67" width="597.34" height="938.66" fill="currentColor"/>
			</g>
			<g color="#e65100" class="teamapps-color-3" mask="url(#mask-nf75hm7C)">
				<rect x="213.33" y="42.67" width="597.34" height="938.66" fill="currentColor"/>
			</g>
		</g>
		<g filter="url(#filter-NmVv6Y0I)" mask="url(#mask-dxZQdclq)">
			<g color="#fff59d" class="teamapps-color-1">
				<rect x="213.33" y="42.67" width="597.34" height="938.66" fill="currentColor"/>
			</g>
		</g>
		<g clip-path="url(#clip-5JWts391)">
			<path d="M120.33,1024.33v-1124.66h783.34v1124.66zM725.33,42.67h-426.66c-46.93,0 -85.34,38.4 -85.34,85.33v768c0,46.93 38.41,85.33 85.34,85.33h426.66c46.93,0 85.34,-38.4 85.34,-85.33v-768c0,-46.93 -38.41,-85.33 -85.34,-85.33zM725.33,810.67h-426.66v-597.34h426.66zM426.67,682.67h170.66c23.47,0 42.67,-19.2 42.67,-42.67v-128c0,-23.47 -19.2,-42.67 -42.67,-42.67v-42.66c0,-47.36 -38.4,-85.34 -85.33,-85.34c-47.36,0 -85.33,38.41 -85.33,85.34v42.66c-23.47,0 -42.67,19.2 -42.67,42.67v128c0,23.47 19.2,42.67 42.67,42.67zM460.8,426.67c0,-28.16 23.04,-51.2 51.2,-51.2c28.16,0 51.2,23.04 51.2,51.2v42.66h-102.4z" fill="#000000" filter="url(#filter-7ExQtkya)"/>
		</g>
	</g>
</svg>