<svg version="1.1" xmlns="http://www.w3.org/2000/svg" xmlns:xlink="http://www.w3.org/1999/xlink" viewBox="0,0,1024,1024">
	<!-- Color names: teamapps-color-1, teamapps-color-2, teamapps-color-3 -->
	<desc>sentiment_dissatisfied icon - Licensed under Apache License v2.0 (http://www.apache.org/licenses/LICENSE-2.0) - Created with Iconfu.com - Derivative work of Material icons (Copyright Google Inc.)</desc>
	<defs>
		<clipPath id="clip-1ps7YEIr">
			<path d="M597.33,405.33c0,-35.35 28.65,-64 64,-64c35.35,0 64,28.65 64,64c0,35.35 -28.65,64 -64,64c-35.35,0 -64,-28.65 -64,-64zM298.67,405.33c0,-35.35 28.65,-64 64,-64c35.35,0 64,28.65 64,64c0,35.35 -28.65,64 -64,64c-35.35,0 -64,-28.65 -64,-64zM938.67,512c0,235.52 -191.15,426.67 -427.1,426.67c-235.52,0 -426.24,-191.15 -426.24,-426.67c0,-235.52 190.72,-426.67 426.24,-426.67c235.95,0 427.1,191.15 427.1,426.67zM853.33,512c0,-188.59 -152.74,-341.33 -341.33,-341.33c-188.59,0 -341.33,152.74 -341.33,341.33c0,188.59 152.74,341.33 341.33,341.33c188.59,0 341.33,-152.74 341.33,-341.33zM730.45,746.67h-71.25c-29.87,-50.77 -84.05,-85.34 -147.2,-85.34c-63.15,0 -117.76,34.57 -147.2,85.34h-71.25c34.13,-87.47 119.04,-149.34 218.45,-149.34c99.41,0 184.32,61.87 218.45,149.34z"/>
		</clipPath>
		<radialGradient cx="0" cy="0" r="1448.15" id="color-qxX9RFKe" gradientUnits="userSpaceOnUse">
			<stop offset="0.07" stop-color="#ffffff"/>
			<stop offset="0.75" stop-color="#000000"/>
		</radialGradient>
		<linearGradient x1="0" y1="1024" x2="1024" y2="0" id="color-WEBMtG28" gradientUnits="userSpaceOnUse">
			<stop offset="0.2" stop-color="#000000"/>
			<stop offset="0.8" stop-color="#ffffff"/>
		</linearGradient>
		<filter id="filter-wrDNr9la" color-interpolation-filters="sRGB">
			<feOffset/>
		</filter>
		<filter id="filter-ZQTVraRb" x="0%" y="0%" width="100%" height="100%" color-interpolation-filters="sRGB">
			<feColorMatrix values="1 0 0 0 0 0 1 0 0 0 0 0 1 0 0 0 0 0 0.05 0" in="SourceGraphic"/>
			<feOffset dy="20"/>
			<feGaussianBlur stdDeviation="11" result="blur0"/>
			<feColorMatrix values="1 0 0 0 0 0 1 0 0 0 0 0 1 0 0 0 0 0 0.07 0" in="SourceGraphic"/>
			<feOffset dy="30"/>
			<feGaussianBlur stdDeviation="20" result="blur1"/>
			<feMerge>
				<feMergeNode in="blur0"/>
				<feMergeNode in="blur1"/>
			</feMerge>
		</filter>
		<mask id="mask-gchtCHlm">
			<path d="M597.33,405.33c0,-35.35 28.65,-64 64,-64c35.35,0 64,28.65 64,64c0,35.35 -28.65,64 -64,64c-35.35,0 -64,-28.65 -64,-64zM298.67,405.33c0,-35.35 28.65,-64 64,-64c35.35,0 64,28.65 64,64c0,35.35 -28.65,64 -64,64c-35.35,0 -64,-28.65 -64,-64zM938.67,512c0,235.52 -191.15,426.67 -427.1,426.67c-235.52,0 -426.24,-191.15 -426.24,-426.67c0,-235.52 190.72,-426.67 426.24,-426.67c235.95,0 427.1,191.15 427.1,426.67zM853.33,512c0,-188.59 -152.74,-341.33 -341.33,-341.33c-188.59,0 -341.33,152.74 -341.33,341.33c0,188.59 152.74,341.33 341.33,341.33c188.59,0 341.33,-152.74 341.33,-341.33zM730.45,746.67h-71.25c-29.87,-50.77 -84.05,-85.34 -147.2,-85.34c-63.15,0 -117.76,34.57 -147.2,85.34h-71.25c34.13,-87.47 119.04,-149.34 218.45,-149.34c99.41,0 184.32,61.87 218.45,149.34z" fill="#ffffff"/>
		</mask>
		<mask id="mask-obN6mcr1">
			<path d="M597.33,405.33c0,-35.35 28.65,-64 64,-64c35.35,0 64,28.65 64,64c0,35.35 -28.65,64 -64,64c-35.35,0 -64,-28.65 -64,-64zM298.67,405.33c0,-35.35 28.65,-64 64,-64c35.35,0 64,28.65 64,64c0,35.35 -28.65,64 -64,64c-35.35,0 -64,-28.65 -64,-64zM938.67,512c0,235.52 -191.15,426.67 -427.1,426.67c-235.52,0 -426.24,-191.15 -426.24,-426.67c0,-235.52 190.72,-426.67 426.24,-426.67c235.95,0 427.1,191.15 427.1,426.67zM853.33,512c0,-188.59 -152.74,-341.33 -341.33,-341.33c-188.59,0 -341.33,152.74 -341.33,341.33c0,188.59 152.74,341.33 341.33,341.33c188.59,0 341.33,-152.74 341.33,-341.33zM730.45,746.67h-71.25c-29.87,-50.77 -84.05,-85.34 -147.2,-85.34c-63.15,0 -117.76,34.57 -147.2,85.34h-71.25c34.13,-87.47 119.04,-149.34 218.45,-149.34c99.41,0 184.32,61.87 218.45,149.34z" fill="url(#color-qxX9RFKe)"/>
		</mask>
		<mask id="mask-vfDRShV3">
			<rect fill="url(#color-WEBMtG28)" x="85.33" y="85.33" width="853.34" height="853.34"/>
		</mask>
	</defs>
	<g fill="none" fill-rule="nonzero" style="mix-blend-mode: normal">
		<g mask="url(#mask-gchtCHlm)">
			<g color="#ffc107" class="teamapps-color-2">
				<rect x="85.33" y="85.33" width="853.34" height="853.34" fill="currentColor"/>
			</g>
			<g color="#e65100" class="teamapps-color-3" mask="url(#mask-vfDRShV3)">
				<rect x="85.33" y="85.33" width="853.34" height="853.34" fill="currentColor"/>
			</g>
		</g>
		<g filter="url(#filter-wrDNr9la)" mask="url(#mask-obN6mcr1)">
			<g color="#fff59d" class="teamapps-color-1">
				<rect x="85.33" y="85.33" width="853.34" height="853.34" fill="currentColor"/>
			</g>
		</g>
		<g clip-path="url(#clip-1ps7YEIr)">
			<path d="M-7.67,981.67v-1039.34h1039.34v1039.34zM661.33,469.33c35.35,0 64,-28.65 64,-64c0,-35.35 -28.65,-64 -64,-64c-35.35,0 -64,28.65 -64,64c0,35.35 28.65,64 64,64zM362.67,469.33c35.35,0 64,-28.65 64,-64c0,-35.35 -28.65,-64 -64,-64c-35.35,0 -64,28.65 -64,64c0,35.35 28.65,64 64,64zM511.57,85.33c-235.52,0 -426.24,191.15 -426.24,426.67c0,235.52 190.72,426.67 426.24,426.67c235.95,0 427.1,-191.15 427.1,-426.67c0,-235.52 -191.15,-426.67 -427.1,-426.67zM512,853.33c-188.59,0 -341.33,-152.74 -341.33,-341.33c0,-188.59 152.74,-341.33 341.33,-341.33c188.59,0 341.33,152.74 341.33,341.33c0,188.59 -152.74,341.33 -341.33,341.33zM512,597.33c-99.41,0 -184.32,61.87 -218.45,149.34h71.25c29.44,-50.77 84.05,-85.34 147.2,-85.34c63.15,0 117.33,34.57 147.2,85.34h71.25c-34.13,-87.47 -119.04,-149.34 -218.45,-149.34z" fill="#000000" filter="url(#filter-ZQTVraRb)"/>
		</g>
	</g>
</svg>