<svg version="1.1" xmlns="http://www.w3.org/2000/svg" xmlns:xlink="http://www.w3.org/1999/xlink" viewBox="0,0,1024,1024">
	<!-- Color names: teamapps-color-1, teamapps-color-2, teamapps-color-3 -->
	<desc>settings_input_composite icon - Licensed under Apache License v2.0 (http://www.apache.org/licenses/LICENSE-2.0) - Created with Iconfu.com - Derivative work of Material icons (Copyright Google Inc.)</desc>
	<defs>
		<clipPath id="clip-mDk7BO5t">
			<path d="M981.33,256v256h-256v-256h85.34v-170.67c0,-23.47 19.19,-42.66 42.66,-42.66c23.47,0 42.67,19.19 42.67,42.66v170.67zM554.67,256h85.33v256h-256v-256h85.33v-170.67c0,-23.47 19.2,-42.66 42.67,-42.66c23.47,0 42.67,19.19 42.67,42.66zM213.33,256h85.34v256h-256v-256h85.33v-170.67c0,-23.47 19.2,-42.66 42.67,-42.66c23.47,0 42.66,19.19 42.66,42.66zM384,597.33h256v85.34c0,55.89 -35.84,102.83 -85.33,120.32v178.34h-85.34v-178.34c-49.49,-17.92 -85.33,-64.85 -85.33,-120.32zM725.33,597.33h256v85.34c0,55.89 -35.84,102.83 -85.33,120.32v178.34h-85.33v-178.34c-49.49,-17.92 -85.34,-64.85 -85.34,-120.32zM42.67,597.33h256v85.34c0,55.47 -35.85,102.4 -85.34,120.32v178.34h-85.33v-178.34c-49.49,-17.92 -85.33,-64.85 -85.33,-120.32z"/>
		</clipPath>
		<radialGradient cx="0" cy="0" r="1448.15" id="color-7PAOntCt" gradientUnits="userSpaceOnUse">
			<stop offset="0.07" stop-color="#ffffff"/>
			<stop offset="0.75" stop-color="#000000"/>
		</radialGradient>
		<linearGradient x1="0" y1="1024" x2="1024" y2="0" id="color-fikGoGeb" gradientUnits="userSpaceOnUse">
			<stop offset="0.2" stop-color="#000000"/>
			<stop offset="0.8" stop-color="#ffffff"/>
		</linearGradient>
		<filter id="filter-Iogzxn7g" x="0%" y="0%" width="100%" height="100%" color-interpolation-filters="sRGB">
			<feColorMatrix values="1 0 0 0 0 0 1 0 0 0 0 0 1 0 0 0 0 0 0.05 0" in="SourceGraphic"/>
			<feOffset dy="20"/>
			<feGaussianBlur stdDeviation="11" result="blur0"/>
			<feColorMatrix values="1 0 0 0 0 0 1 0 0 0 0 0 1 0 0 0 0 0 0.07 0" in="SourceGraphic"/>
			<feOffset dy="30"/>
			<feGaussianBlur stdDeviation="20" result="blur1"/>
			<feMerge>
				<feMergeNode in="blur0"/>
				<feMergeNode in="blur1"/>
			</feMerge>
		</filter>
		<filter id="filter-uK4nolkH" color-interpolation-filters="sRGB">
			<feOffset/>
		</filter>
		<mask id="mask-AJd53Gno">
			<path d="M981.33,256v256h-256v-256h85.34v-170.67c0,-23.47 19.19,-42.66 42.66,-42.66c23.47,0 42.67,19.19 42.67,42.66v170.67zM554.67,256h85.33v256h-256v-256h85.33v-170.67c0,-23.47 19.2,-42.66 42.67,-42.66c23.47,0 42.67,19.19 42.67,42.66zM213.33,256h85.34v256h-256v-256h85.33v-170.67c0,-23.47 19.2,-42.66 42.67,-42.66c23.47,0 42.66,19.19 42.66,42.66zM384,597.33h256v85.34c0,55.89 -35.84,102.83 -85.33,120.32v178.34h-85.34v-178.34c-49.49,-17.92 -85.33,-64.85 -85.33,-120.32zM725.33,597.33h256v85.34c0,55.89 -35.84,102.83 -85.33,120.32v178.34h-85.33v-178.34c-49.49,-17.92 -85.34,-64.85 -85.34,-120.32zM42.67,597.33h256v85.34c0,55.47 -35.85,102.4 -85.34,120.32v178.34h-85.33v-178.34c-49.49,-17.92 -85.33,-64.85 -85.33,-120.32z" fill="#ffffff"/>
		</mask>
		<mask id="mask-ROYp4VLG">
			<path d="M981.33,256v256h-256v-256h85.34v-170.67c0,-23.47 19.19,-42.66 42.66,-42.66c23.47,0 42.67,19.19 42.67,42.66v170.67zM554.67,256h85.33v256h-256v-256h85.33v-170.67c0,-23.47 19.2,-42.66 42.67,-42.66c23.47,0 42.67,19.19 42.67,42.66zM213.33,256h85.34v256h-256v-256h85.33v-170.67c0,-23.47 19.2,-42.66 42.67,-42.66c23.47,0 42.66,19.19 42.66,42.66zM384,597.33h256v85.34c0,55.89 -35.84,102.83 -85.33,120.32v178.34h-85.34v-178.34c-49.49,-17.92 -85.33,-64.85 -85.33,-120.32zM725.33,597.33h256v85.34c0,55.89 -35.84,102.83 -85.33,120.32v178.34h-85.33v-178.34c-49.49,-17.92 -85.34,-64.85 -85.34,-120.32zM42.67,597.33h256v85.34c0,55.47 -35.85,102.4 -85.34,120.32v178.34h-85.33v-178.34c-49.49,-17.92 -85.33,-64.85 -85.33,-120.32z" fill="url(#color-7PAOntCt)"/>
		</mask>
		<mask id="mask-zJdlyKsn">
			<rect fill="url(#color-fikGoGeb)" x="42.67" y="42.67" width="938.66" height="938.66"/>
		</mask>
	</defs>
	<g fill="none" fill-rule="nonzero" style="mix-blend-mode: normal">
		<g mask="url(#mask-AJd53Gno)">
			<g color="#ffc107" class="teamapps-color-2">
				<rect x="42.67" y="42.67" width="938.66" height="938.66" fill="currentColor"/>
			</g>
			<g color="#e65100" class="teamapps-color-3" mask="url(#mask-zJdlyKsn)">
				<rect x="42.67" y="42.67" width="938.66" height="938.66" fill="currentColor"/>
			</g>
		</g>
		<g filter="url(#filter-uK4nolkH)" mask="url(#mask-ROYp4VLG)">
			<g color="#fff59d" class="teamapps-color-1">
				<rect x="42.67" y="42.67" width="938.66" height="938.66" fill="currentColor"/>
			</g>
		</g>
		<g clip-path="url(#clip-mDk7BO5t)">
			<path d="M-50.33,1024.33v-1124.66h1124.66v1124.66zM896,256v-170.67c0,-23.47 -19.2,-42.66 -42.67,-42.66c-23.47,0 -42.66,19.19 -42.66,42.66v170.67h-85.34v256h256v-256zM554.67,85.33c0,-23.47 -19.2,-42.66 -42.67,-42.66c-23.47,0 -42.67,19.19 -42.67,42.66v170.67h-85.33v256h256v-256h-85.33zM213.33,85.33c0,-23.47 -19.19,-42.66 -42.66,-42.66c-23.47,0 -42.67,19.19 -42.67,42.66v170.67h-85.33v256h256v-256h-85.34zM384,682.67c0,55.47 35.84,102.4 85.33,120.32v178.34h85.34v-178.34c49.49,-17.49 85.33,-64.43 85.33,-120.32v-85.34h-256zM725.33,682.67c0,55.47 35.85,102.4 85.34,120.32v178.34h85.33v-178.34c49.49,-17.49 85.33,-64.43 85.33,-120.32v-85.34h-256zM42.67,682.67c0,55.47 35.84,102.4 85.33,120.32v178.34h85.33v-178.34c49.49,-17.92 85.34,-64.85 85.34,-120.32v-85.34h-256z" fill="#000000" filter="url(#filter-Iogzxn7g)"/>
		</g>
	</g>
</svg>