<svg version="1.1" xmlns="http://www.w3.org/2000/svg" xmlns:xlink="http://www.w3.org/1999/xlink" viewBox="0,0,1024,1024">
	<!-- Color names: teamapps-color-1, teamapps-color-2, teamapps-color-3 -->
	<desc>shopping_cart icon - Licensed under Apache License v2.0 (http://www.apache.org/licenses/LICENSE-2.0) - Created with Iconfu.com - Derivative work of Material icons (Copyright Google Inc.)</desc>
	<defs>
		<clipPath id="clip-PgXtEMtS">
			<path d="M182.19,85.33l40.1,85.34h631.04c23.47,0 42.67,19.19 42.67,42.66c0,7.25 -1.71,14.51 -5.12,20.48l-152.75,276.91c-14.51,26.45 -42.66,43.95 -74.66,43.95h-317.87l-38.4,69.54l-1.28,5.12c0,5.97 4.7,10.67 10.67,10.67h494.08v85.33h-512c-46.93,0 -85.34,-38.4 -85.34,-85.33c0,-14.93 3.84,-29.01 10.67,-40.96l57.6,-104.53l-153.6,-323.84h-85.33v-85.34zM384,853.33c0,46.93 -38.4,85.34 -85.33,85.34c-46.93,0 -84.91,-38.41 -84.91,-85.34c0,-46.93 37.98,-85.33 84.91,-85.33c46.93,0 85.33,38.4 85.33,85.33zM810.67,853.33c0,46.93 -38.41,85.34 -85.34,85.34c-46.93,0 -84.9,-38.41 -84.9,-85.34c0,-46.93 37.97,-85.33 84.9,-85.33c46.93,0 85.34,38.4 85.34,85.33z"/>
		</clipPath>
		<linearGradient x1="0" y1="1024" x2="1024" y2="0" id="color-ctaUrT03" gradientUnits="userSpaceOnUse">
			<stop offset="0.2" stop-color="#000000"/>
			<stop offset="0.8" stop-color="#ffffff"/>
		</linearGradient>
		<radialGradient cx="0" cy="0" r="1448.15" id="color-HuhQGOEG" gradientUnits="userSpaceOnUse">
			<stop offset="0.07" stop-color="#ffffff"/>
			<stop offset="0.75" stop-color="#000000"/>
		</radialGradient>
		<filter id="filter-0TFJuaKj" color-interpolation-filters="sRGB">
			<feOffset/>
		</filter>
		<filter id="filter-b7nxxpdD" x="0%" y="0%" width="100%" height="100%" color-interpolation-filters="sRGB">
			<feColorMatrix values="1 0 0 0 0 0 1 0 0 0 0 0 1 0 0 0 0 0 0.05 0" in="SourceGraphic"/>
			<feOffset dy="20"/>
			<feGaussianBlur stdDeviation="11" result="blur0"/>
			<feColorMatrix values="1 0 0 0 0 0 1 0 0 0 0 0 1 0 0 0 0 0 0.07 0" in="SourceGraphic"/>
			<feOffset dy="30"/>
			<feGaussianBlur stdDeviation="20" result="blur1"/>
			<feMerge>
				<feMergeNode in="blur0"/>
				<feMergeNode in="blur1"/>
			</feMerge>
		</filter>
		<mask id="mask-ekfyVCQo">
			<path d="M182.19,85.33l40.1,85.34h631.04c23.47,0 42.67,19.19 42.67,42.66c0,7.25 -1.71,14.51 -5.12,20.48l-152.75,276.91c-14.51,26.45 -42.66,43.95 -74.66,43.95h-317.87l-38.4,69.54l-1.28,5.12c0,5.97 4.7,10.67 10.67,10.67h494.08v85.33h-512c-46.93,0 -85.34,-38.4 -85.34,-85.33c0,-14.93 3.84,-29.01 10.67,-40.96l57.6,-104.53l-153.6,-323.84h-85.33v-85.34zM384,853.33c0,46.93 -38.4,85.34 -85.33,85.34c-46.93,0 -84.91,-38.41 -84.91,-85.34c0,-46.93 37.98,-85.33 84.91,-85.33c46.93,0 85.33,38.4 85.33,85.33zM810.67,853.33c0,46.93 -38.41,85.34 -85.34,85.34c-46.93,0 -84.9,-38.41 -84.9,-85.34c0,-46.93 37.97,-85.33 84.9,-85.33c46.93,0 85.34,38.4 85.34,85.33z" fill="url(#color-HuhQGOEG)"/>
		</mask>
		<mask id="mask-n3iIHmm1">
			<path d="M182.19,85.33l40.1,85.34h631.04c23.47,0 42.67,19.19 42.67,42.66c0,7.25 -1.71,14.51 -5.12,20.48l-152.75,276.91c-14.51,26.45 -42.66,43.95 -74.66,43.95h-317.87l-38.4,69.54l-1.28,5.12c0,5.97 4.7,10.67 10.67,10.67h494.08v85.33h-512c-46.93,0 -85.34,-38.4 -85.34,-85.33c0,-14.93 3.84,-29.01 10.67,-40.96l57.6,-104.53l-153.6,-323.84h-85.33v-85.34zM384,853.33c0,46.93 -38.4,85.34 -85.33,85.34c-46.93,0 -84.91,-38.41 -84.91,-85.34c0,-46.93 37.98,-85.33 84.91,-85.33c46.93,0 85.33,38.4 85.33,85.33zM810.67,853.33c0,46.93 -38.41,85.34 -85.34,85.34c-46.93,0 -84.9,-38.41 -84.9,-85.34c0,-46.93 37.97,-85.33 84.9,-85.33c46.93,0 85.34,38.4 85.34,85.33z" fill="#ffffff"/>
		</mask>
		<mask id="mask-UIm1VhHa">
			<rect fill="url(#color-ctaUrT03)" x="42.67" y="85.33" width="853.33" height="853.34"/>
		</mask>
	</defs>
	<g fill="none" fill-rule="nonzero" style="mix-blend-mode: normal">
		<g mask="url(#mask-n3iIHmm1)">
			<g color="#ffc107" class="teamapps-color-2">
				<rect x="42.67" y="85.33" width="853.33" height="853.34" fill="currentColor"/>
			</g>
			<g color="#e65100" class="teamapps-color-3" mask="url(#mask-UIm1VhHa)">
				<rect x="42.67" y="85.33" width="853.33" height="853.34" fill="currentColor"/>
			</g>
		</g>
		<g filter="url(#filter-0TFJuaKj)" mask="url(#mask-ekfyVCQo)">
			<g color="#fff59d" class="teamapps-color-1">
				<rect x="42.67" y="85.33" width="853.33" height="853.34" fill="currentColor"/>
			</g>
		</g>
		<g clip-path="url(#clip-PgXtEMtS)">
			<path d="M-50.33,981.67v-1039.34h1039.33v1039.34zM42.67,85.33v85.34h85.33l153.6,323.84l-57.6,104.53c-6.83,11.95 -10.67,26.03 -10.67,40.96c0,46.93 38.41,85.33 85.34,85.33h512v-85.33h-494.08c-5.97,0 -10.67,-4.7 -10.67,-10.67l1.28,-5.12l38.4,-69.54h317.87c32,0 60.15,-17.5 74.66,-43.95l152.75,-276.91c3.41,-5.97 5.12,-13.23 5.12,-20.48c0,-23.47 -19.2,-42.66 -42.67,-42.66h-631.04l-40.1,-85.34zM298.67,768c-46.93,0 -84.91,38.4 -84.91,85.33c0,46.93 37.98,85.34 84.91,85.34c46.93,0 85.33,-38.41 85.33,-85.34c0,-46.93 -38.4,-85.33 -85.33,-85.33zM725.33,768c-46.93,0 -84.9,38.4 -84.9,85.33c0,46.93 37.97,85.34 84.9,85.34c46.93,0 85.34,-38.41 85.34,-85.34c0,-46.93 -38.41,-85.33 -85.34,-85.33z" fill="#000000" filter="url(#filter-b7nxxpdD)"/>
		</g>
	</g>
</svg>