<svg version="1.1" xmlns="http://www.w3.org/2000/svg" xmlns:xlink="http://www.w3.org/1999/xlink" viewBox="0,0,1024,1024">
	<!-- Color names: teamapps-color-1, teamapps-color-2, teamapps-color-3 -->
	<desc>shop_two icon - Licensed under Apache License v2.0 (http://www.apache.org/licenses/LICENSE-2.0) - Created with Iconfu.com - Derivative work of Material icons (Copyright Google Inc.)</desc>
	<defs>
		<clipPath id="clip-fjzzgAB2">
			<path d="M981.33,213.33v469.34c0,47.36 -37.97,85.33 -85.33,85.33h-597.33c-47.36,0 -85.34,-37.97 -85.34,-85.33v-469.34h213.34v-85.33c0,-47.36 37.97,-85.33 85.33,-85.33h170.67c47.36,0 85.33,37.97 85.33,85.33v85.33zM128,853.33h682.67c0,47.36 -37.98,85.34 -85.34,85.34h-597.33c-47.36,0 -85.33,-37.98 -85.33,-85.34v-469.33h85.33zM746.67,469.33l-234.67,-128v298.67zM512,213.33h170.67v-85.33h-170.67z"/>
		</clipPath>
		<linearGradient x1="0" y1="1024" x2="1024" y2="0" id="color-BlIhzBy6" gradientUnits="userSpaceOnUse">
			<stop offset="0.2" stop-color="#000000"/>
			<stop offset="0.8" stop-color="#ffffff"/>
		</linearGradient>
		<radialGradient cx="0" cy="0" r="1448.15" id="color-Z7gwZdnU" gradientUnits="userSpaceOnUse">
			<stop offset="0.07" stop-color="#ffffff"/>
			<stop offset="0.75" stop-color="#000000"/>
		</radialGradient>
		<filter id="filter-upQwuYQ0" x="0%" y="0%" width="100%" height="100%" color-interpolation-filters="sRGB">
			<feColorMatrix values="1 0 0 0 0 0 1 0 0 0 0 0 1 0 0 0 0 0 0.05 0" in="SourceGraphic"/>
			<feOffset dy="20"/>
			<feGaussianBlur stdDeviation="11" result="blur0"/>
			<feColorMatrix values="1 0 0 0 0 0 1 0 0 0 0 0 1 0 0 0 0 0 0.07 0" in="SourceGraphic"/>
			<feOffset dy="30"/>
			<feGaussianBlur stdDeviation="20" result="blur1"/>
			<feMerge>
				<feMergeNode in="blur0"/>
				<feMergeNode in="blur1"/>
			</feMerge>
		</filter>
		<filter id="filter-w8wef2WK" color-interpolation-filters="sRGB">
			<feOffset/>
		</filter>
		<mask id="mask-SuLt11Ox">
			<rect fill="url(#color-BlIhzBy6)" x="42.67" y="42.67" width="938.66" height="896"/>
		</mask>
		<mask id="mask-vYSb04MV">
			<path d="M981.33,213.33v469.34c0,47.36 -37.97,85.33 -85.33,85.33h-597.33c-47.36,0 -85.34,-37.97 -85.34,-85.33v-469.34h213.34v-85.33c0,-47.36 37.97,-85.33 85.33,-85.33h170.67c47.36,0 85.33,37.97 85.33,85.33v85.33zM128,853.33h682.67c0,47.36 -37.98,85.34 -85.34,85.34h-597.33c-47.36,0 -85.33,-37.98 -85.33,-85.34v-469.33h85.33zM746.67,469.33l-234.67,-128v298.67zM512,213.33h170.67v-85.33h-170.67z" fill="#ffffff"/>
		</mask>
		<mask id="mask-zSdfB5Ri">
			<path d="M981.33,213.33v469.34c0,47.36 -37.97,85.33 -85.33,85.33h-597.33c-47.36,0 -85.34,-37.97 -85.34,-85.33v-469.34h213.34v-85.33c0,-47.36 37.97,-85.33 85.33,-85.33h170.67c47.36,0 85.33,37.97 85.33,85.33v85.33zM128,853.33h682.67c0,47.36 -37.98,85.34 -85.34,85.34h-597.33c-47.36,0 -85.33,-37.98 -85.33,-85.34v-469.33h85.33zM746.67,469.33l-234.67,-128v298.67zM512,213.33h170.67v-85.33h-170.67z" fill="url(#color-Z7gwZdnU)"/>
		</mask>
	</defs>
	<g fill="none" fill-rule="nonzero" style="mix-blend-mode: normal">
		<g mask="url(#mask-vYSb04MV)">
			<g color="#ffc107" class="teamapps-color-2">
				<rect x="42.67" y="42.67" width="938.66" height="896" fill="currentColor"/>
			</g>
			<g color="#e65100" class="teamapps-color-3" mask="url(#mask-SuLt11Ox)">
				<rect x="42.67" y="42.67" width="938.66" height="896" fill="currentColor"/>
			</g>
		</g>
		<g filter="url(#filter-w8wef2WK)" mask="url(#mask-zSdfB5Ri)">
			<g color="#fff59d" class="teamapps-color-1">
				<rect x="42.67" y="42.67" width="938.66" height="896" fill="currentColor"/>
			</g>
		</g>
		<g clip-path="url(#clip-fjzzgAB2)">
			<path d="M-50.33,981.67v-1082h1124.66v1082zM768,213.33v-85.33c0,-47.36 -37.97,-85.33 -85.33,-85.33h-170.67c-47.36,0 -85.33,37.97 -85.33,85.33v85.33h-213.34v469.34c0,47.36 37.98,85.33 85.34,85.33h597.33c47.36,0 85.33,-37.97 85.33,-85.33v-469.34zM128,384h-85.33v469.33c0,47.36 37.97,85.34 85.33,85.34h597.33c47.36,0 85.34,-37.98 85.34,-85.34h-682.67zM512,640v-298.67l234.67,128zM512,128h170.67v85.33h-170.67z" fill="#000000" filter="url(#filter-upQwuYQ0)"/>
		</g>
	</g>
</svg>