<svg version="1.1" xmlns="http://www.w3.org/2000/svg" xmlns:xlink="http://www.w3.org/1999/xlink" viewBox="0,0,1024,1024">
	<!-- Color names: teamapps-color-1, teamapps-color-2, teamapps-color-3 -->
	<desc>speaker_group icon - Licensed under Apache License v2.0 (http://www.apache.org/licenses/LICENSE-2.0) - Created with Iconfu.com - Derivative work of Material icons (Copyright Google Inc.)</desc>
	<defs>
		<clipPath id="clip-QavdsQj4">
			<path d="M853.33,119.47v614.4c0,42.24 -34.56,76.8 -76.8,76.8l-358.4,-0.43c-42.24,0 -76.8,-34.13 -76.8,-76.37v-614.4c0,-42.24 34.56,-76.8 76.8,-76.8h358.4c42.24,0 76.8,34.56 76.8,76.8zM768,533.33c0,-94.29 -76.38,-170.66 -170.67,-170.66c-94.29,0 -170.66,76.37 -170.66,170.66c0,94.29 76.37,170.67 170.66,170.67c94.29,0 170.67,-76.38 170.67,-170.67zM512,213.33c0,47.36 38.4,85.34 85.33,85.34c46.93,0 85.34,-37.98 85.34,-85.34c0,-47.36 -38.41,-85.33 -85.34,-85.33c-46.93,0 -85.33,37.97 -85.33,85.33zM490.67,533.33c0,-58.91 47.75,-106.66 106.66,-106.66c58.91,0 106.67,47.75 106.67,106.66c0,58.91 -47.76,106.67 -106.67,106.67c-58.91,0 -106.66,-47.76 -106.66,-106.67zM256,896h426.67v85.33h-426.67c-47.36,0 -85.33,-38.4 -85.33,-85.33v-682.67h85.33z"/>
		</clipPath>
		<radialGradient cx="0" cy="0" r="1448.15" id="color-Rl7mRYem" gradientUnits="userSpaceOnUse">
			<stop offset="0.07" stop-color="#ffffff"/>
			<stop offset="0.75" stop-color="#000000"/>
		</radialGradient>
		<linearGradient x1="0" y1="1024" x2="1024" y2="0" id="color-VW5EtyvV" gradientUnits="userSpaceOnUse">
			<stop offset="0.2" stop-color="#000000"/>
			<stop offset="0.8" stop-color="#ffffff"/>
		</linearGradient>
		<filter id="filter-qehft4PG" color-interpolation-filters="sRGB">
			<feOffset/>
		</filter>
		<filter id="filter-VM9KxRzI" x="0%" y="0%" width="100%" height="100%" color-interpolation-filters="sRGB">
			<feColorMatrix values="1 0 0 0 0 0 1 0 0 0 0 0 1 0 0 0 0 0 0.05 0" in="SourceGraphic"/>
			<feOffset dy="20"/>
			<feGaussianBlur stdDeviation="11" result="blur0"/>
			<feColorMatrix values="1 0 0 0 0 0 1 0 0 0 0 0 1 0 0 0 0 0 0.07 0" in="SourceGraphic"/>
			<feOffset dy="30"/>
			<feGaussianBlur stdDeviation="20" result="blur1"/>
			<feMerge>
				<feMergeNode in="blur0"/>
				<feMergeNode in="blur1"/>
			</feMerge>
		</filter>
		<mask id="mask-fWHHl41L">
			<path d="M853.33,119.47v614.4c0,42.24 -34.56,76.8 -76.8,76.8l-358.4,-0.43c-42.24,0 -76.8,-34.13 -76.8,-76.37v-614.4c0,-42.24 34.56,-76.8 76.8,-76.8h358.4c42.24,0 76.8,34.56 76.8,76.8zM768,533.33c0,-94.29 -76.38,-170.66 -170.67,-170.66c-94.29,0 -170.66,76.37 -170.66,170.66c0,94.29 76.37,170.67 170.66,170.67c94.29,0 170.67,-76.38 170.67,-170.67zM512,213.33c0,47.36 38.4,85.34 85.33,85.34c46.93,0 85.34,-37.98 85.34,-85.34c0,-47.36 -38.41,-85.33 -85.34,-85.33c-46.93,0 -85.33,37.97 -85.33,85.33zM490.67,533.33c0,-58.91 47.75,-106.66 106.66,-106.66c58.91,0 106.67,47.75 106.67,106.66c0,58.91 -47.76,106.67 -106.67,106.67c-58.91,0 -106.66,-47.76 -106.66,-106.67zM256,896h426.67v85.33h-426.67c-47.36,0 -85.33,-38.4 -85.33,-85.33v-682.67h85.33z" fill="#ffffff"/>
		</mask>
		<mask id="mask-gS6GwM6d">
			<rect fill="url(#color-VW5EtyvV)" x="170.67" y="42.67" width="682.66" height="938.66"/>
		</mask>
		<mask id="mask-qOQd35mX">
			<path d="M853.33,119.47v614.4c0,42.24 -34.56,76.8 -76.8,76.8l-358.4,-0.43c-42.24,0 -76.8,-34.13 -76.8,-76.37v-614.4c0,-42.24 34.56,-76.8 76.8,-76.8h358.4c42.24,0 76.8,34.56 76.8,76.8zM768,533.33c0,-94.29 -76.38,-170.66 -170.67,-170.66c-94.29,0 -170.66,76.37 -170.66,170.66c0,94.29 76.37,170.67 170.66,170.67c94.29,0 170.67,-76.38 170.67,-170.67zM512,213.33c0,47.36 38.4,85.34 85.33,85.34c46.93,0 85.34,-37.98 85.34,-85.34c0,-47.36 -38.41,-85.33 -85.34,-85.33c-46.93,0 -85.33,37.97 -85.33,85.33zM490.67,533.33c0,-58.91 47.75,-106.66 106.66,-106.66c58.91,0 106.67,47.75 106.67,106.66c0,58.91 -47.76,106.67 -106.67,106.67c-58.91,0 -106.66,-47.76 -106.66,-106.67zM256,896h426.67v85.33h-426.67c-47.36,0 -85.33,-38.4 -85.33,-85.33v-682.67h85.33z" fill="url(#color-Rl7mRYem)"/>
		</mask>
	</defs>
	<g fill="none" fill-rule="nonzero" style="mix-blend-mode: normal">
		<g mask="url(#mask-fWHHl41L)">
			<g color="#ffc107" class="teamapps-color-2">
				<rect x="170.67" y="42.67" width="682.66" height="938.66" fill="currentColor"/>
			</g>
			<g color="#e65100" class="teamapps-color-3" mask="url(#mask-gS6GwM6d)">
				<rect x="170.67" y="42.67" width="682.66" height="938.66" fill="currentColor"/>
			</g>
		</g>
		<g filter="url(#filter-qehft4PG)" mask="url(#mask-qOQd35mX)">
			<g color="#fff59d" class="teamapps-color-1">
				<rect x="170.67" y="42.67" width="682.66" height="938.66" fill="currentColor"/>
			</g>
		</g>
		<g clip-path="url(#clip-QavdsQj4)">
			<path d="M77.67,1024.33v-1124.66h868.66v1124.66zM776.53,42.67h-358.4c-42.24,0 -76.8,34.56 -76.8,76.8v614.4c0,42.24 34.56,76.37 76.8,76.37l358.4,0.43c42.24,0 76.8,-34.56 76.8,-76.8v-614.4c0,-42.24 -34.56,-76.8 -76.8,-76.8zM597.33,704c-94.29,0 -170.66,-76.38 -170.66,-170.67c0,-94.29 76.37,-170.66 170.66,-170.66c94.29,0 170.67,76.37 170.67,170.66c0,94.29 -76.38,170.67 -170.67,170.67zM597.33,128c46.93,0 85.34,37.97 85.34,85.33c0,47.36 -38.41,85.34 -85.34,85.34c-46.93,0 -85.33,-37.98 -85.33,-85.34c0,-47.36 38.4,-85.33 85.33,-85.33zM597.33,640c58.91,0 106.67,-47.76 106.67,-106.67c0,-58.91 -47.76,-106.66 -106.67,-106.66c-58.91,0 -106.66,47.75 -106.66,106.66c0,58.91 47.75,106.67 106.66,106.67zM256,213.33h-85.33v682.67c0,46.93 37.97,85.33 85.33,85.33h426.67v-85.33h-426.67z" fill="#000000" filter="url(#filter-VM9KxRzI)"/>
		</g>
	</g>
</svg>