<svg version="1.1" xmlns="http://www.w3.org/2000/svg" xmlns:xlink="http://www.w3.org/1999/xlink" viewBox="0,0,1024,1024">
	<!-- Color names: teamapps-color-1, teamapps-color-2, teamapps-color-3 -->
	<desc>star_border icon - Licensed under Apache License v2.0 (http://www.apache.org/licenses/LICENSE-2.0) - Created with Iconfu.com - Derivative work of Material icons (Copyright Google Inc.)</desc>
	<defs>
		<clipPath id="clip-qoIr2vtB">
			<path d="M706.13,596.05l69.55,299.95l-263.68,-159.15l-263.68,159.15l69.97,-299.95l-232.96,-201.81l306.78,-26.03l119.89,-282.88l119.89,282.46l306.78,26.45zM672.85,754.35l-42.66,-182.62l141.65,-122.88l-186.88,-16.21l-72.96,-172.37l-72.53,171.94l-186.88,16.22l141.65,122.88l-42.67,182.61l160.43,-96.85z"/>
		</clipPath>
		<radialGradient cx="0" cy="0" r="1448.15" id="color-Rwf3MrOg" gradientUnits="userSpaceOnUse">
			<stop offset="0.07" stop-color="#ffffff"/>
			<stop offset="0.75" stop-color="#000000"/>
		</radialGradient>
		<linearGradient x1="0" y1="1024" x2="1024" y2="0" id="color-vhJY29Sp" gradientUnits="userSpaceOnUse">
			<stop offset="0.2" stop-color="#000000"/>
			<stop offset="0.8" stop-color="#ffffff"/>
		</linearGradient>
		<filter id="filter-1bwDsmNl" x="0%" y="0%" width="100%" height="100%" color-interpolation-filters="sRGB">
			<feColorMatrix values="1 0 0 0 0 0 1 0 0 0 0 0 1 0 0 0 0 0 0.05 0" in="SourceGraphic"/>
			<feOffset dy="20"/>
			<feGaussianBlur stdDeviation="11" result="blur0"/>
			<feColorMatrix values="1 0 0 0 0 0 1 0 0 0 0 0 1 0 0 0 0 0 0.07 0" in="SourceGraphic"/>
			<feOffset dy="30"/>
			<feGaussianBlur stdDeviation="20" result="blur1"/>
			<feMerge>
				<feMergeNode in="blur0"/>
				<feMergeNode in="blur1"/>
			</feMerge>
		</filter>
		<filter id="filter-Zeyx6TMV" color-interpolation-filters="sRGB">
			<feOffset/>
		</filter>
		<mask id="mask-CR635Ldt">
			<rect fill="url(#color-vhJY29Sp)" x="85.33" y="85.33" width="853.34" height="810.67"/>
		</mask>
		<mask id="mask-HuRwuzGp">
			<path d="M706.13,596.05l69.55,299.95l-263.68,-159.15l-263.68,159.15l69.97,-299.95l-232.96,-201.81l306.78,-26.03l119.89,-282.88l119.89,282.46l306.78,26.45zM672.85,754.35l-42.66,-182.62l141.65,-122.88l-186.88,-16.21l-72.96,-172.37l-72.53,171.94l-186.88,16.22l141.65,122.88l-42.67,182.61l160.43,-96.85z" fill="#ffffff"/>
		</mask>
		<mask id="mask-wCcJvaIi">
			<path d="M706.13,596.05l69.55,299.95l-263.68,-159.15l-263.68,159.15l69.97,-299.95l-232.96,-201.81l306.78,-26.03l119.89,-282.88l119.89,282.46l306.78,26.45zM672.85,754.35l-42.66,-182.62l141.65,-122.88l-186.88,-16.21l-72.96,-172.37l-72.53,171.94l-186.88,16.22l141.65,122.88l-42.67,182.61l160.43,-96.85z" fill="url(#color-Rwf3MrOg)"/>
		</mask>
	</defs>
	<g fill="none" fill-rule="nonzero" style="mix-blend-mode: normal">
		<g mask="url(#mask-HuRwuzGp)">
			<g color="#ffc107" class="teamapps-color-2">
				<rect x="85.33" y="85.33" width="853.34" height="810.67" fill="currentColor"/>
			</g>
			<g color="#e65100" class="teamapps-color-3" mask="url(#mask-CR635Ldt)">
				<rect x="85.33" y="85.33" width="853.34" height="810.67" fill="currentColor"/>
			</g>
		</g>
		<g filter="url(#filter-Zeyx6TMV)" mask="url(#mask-wCcJvaIi)">
			<g color="#fff59d" class="teamapps-color-1">
				<rect x="85.33" y="85.33" width="853.34" height="810.67" fill="currentColor"/>
			</g>
		</g>
		<g clip-path="url(#clip-qoIr2vtB)">
			<path d="M-7.67,939v-996.67h1039.34v996.67zM938.67,394.24l-306.78,-26.45l-119.89,-282.46l-119.89,282.88l-306.78,26.03l232.96,201.81l-69.97,299.95l263.68,-159.15l263.68,159.15l-69.55,-299.95zM512,657.07l-160.43,96.85l42.67,-182.61l-141.65,-122.88l186.88,-16.22l72.53,-171.94l72.96,172.37l186.88,16.21l-141.65,122.88l42.66,182.62z" fill="#000000" filter="url(#filter-1bwDsmNl)"/>
		</g>
	</g>
</svg>