<svg version="1.1" xmlns="http://www.w3.org/2000/svg" xmlns:xlink="http://www.w3.org/1999/xlink" viewBox="0,0,1024,1024">
	<!-- Color names: teamapps-color-1, teamapps-color-2, teamapps-color-3 -->
	<desc>stay_primary_portrait icon - Licensed under Apache License v2.0 (http://www.apache.org/licenses/LICENSE-2.0) - Created with Iconfu.com - Derivative work of Material icons (Copyright Google Inc.)</desc>
	<defs>
		<clipPath id="clip-hNf2g4M7">
			<path d="M810.67,128v768c0,46.93 -38.41,85.33 -85.34,85.33h-426.66c-46.93,0 -84.91,-38.4 -84.91,-85.33v-768c0,-46.93 37.98,-85.33 84.91,-85.33l426.66,0.42c46.93,0 85.34,37.98 85.34,84.91zM725.33,213.33h-426.66v597.34h426.66z"/>
		</clipPath>
		<radialGradient cx="0" cy="0" r="1448.15" id="color-vCveroAk" gradientUnits="userSpaceOnUse">
			<stop offset="0.07" stop-color="#ffffff"/>
			<stop offset="0.75" stop-color="#000000"/>
		</radialGradient>
		<linearGradient x1="0" y1="1024" x2="1024" y2="0" id="color-xD2m2U6B" gradientUnits="userSpaceOnUse">
			<stop offset="0.2" stop-color="#000000"/>
			<stop offset="0.8" stop-color="#ffffff"/>
		</linearGradient>
		<filter id="filter-EaG09ve7" color-interpolation-filters="sRGB">
			<feOffset/>
		</filter>
		<filter id="filter-jE2Okq9B" x="0%" y="0%" width="100%" height="100%" color-interpolation-filters="sRGB">
			<feColorMatrix values="1 0 0 0 0 0 1 0 0 0 0 0 1 0 0 0 0 0 0.05 0" in="SourceGraphic"/>
			<feOffset dy="20"/>
			<feGaussianBlur stdDeviation="11" result="blur0"/>
			<feColorMatrix values="1 0 0 0 0 0 1 0 0 0 0 0 1 0 0 0 0 0 0.07 0" in="SourceGraphic"/>
			<feOffset dy="30"/>
			<feGaussianBlur stdDeviation="20" result="blur1"/>
			<feMerge>
				<feMergeNode in="blur0"/>
				<feMergeNode in="blur1"/>
			</feMerge>
		</filter>
		<mask id="mask-3piznFTJ">
			<path d="M810.67,128v768c0,46.93 -38.41,85.33 -85.34,85.33h-426.66c-46.93,0 -84.91,-38.4 -84.91,-85.33v-768c0,-46.93 37.98,-85.33 84.91,-85.33l426.66,0.42c46.93,0 85.34,37.98 85.34,84.91zM725.33,213.33h-426.66v597.34h426.66z" fill="url(#color-vCveroAk)"/>
		</mask>
		<mask id="mask-QvuPBSsz">
			<path d="M810.67,128v768c0,46.93 -38.41,85.33 -85.34,85.33h-426.66c-46.93,0 -84.91,-38.4 -84.91,-85.33v-768c0,-46.93 37.98,-85.33 84.91,-85.33l426.66,0.42c46.93,0 85.34,37.98 85.34,84.91zM725.33,213.33h-426.66v597.34h426.66z" fill="#ffffff"/>
		</mask>
		<mask id="mask-YgIx7yAE">
			<rect fill="url(#color-xD2m2U6B)" x="213.76" y="42.67" width="596.91" height="938.66"/>
		</mask>
	</defs>
	<g fill="none" fill-rule="nonzero" style="mix-blend-mode: normal">
		<g mask="url(#mask-QvuPBSsz)">
			<g color="#ffc107" class="teamapps-color-2">
				<rect x="213.76" y="42.67" width="596.91" height="938.66" fill="currentColor"/>
			</g>
			<g color="#e65100" class="teamapps-color-3" mask="url(#mask-YgIx7yAE)">
				<rect x="213.76" y="42.67" width="596.91" height="938.66" fill="currentColor"/>
			</g>
		</g>
		<g filter="url(#filter-EaG09ve7)" mask="url(#mask-3piznFTJ)">
			<g color="#fff59d" class="teamapps-color-1">
				<rect x="213.76" y="42.67" width="596.91" height="938.66" fill="currentColor"/>
			</g>
		</g>
		<g clip-path="url(#clip-hNf2g4M7)">
			<path d="M120.76,1024.33v-1124.66h782.91v1124.66zM725.33,43.09l-426.66,-0.42c-46.93,0 -84.91,38.4 -84.91,85.33v768c0,46.93 37.98,85.33 84.91,85.33h426.66c46.93,0 85.34,-38.4 85.34,-85.33v-768c0,-46.93 -38.41,-84.91 -85.34,-84.91zM725.33,810.67h-426.66v-597.34h426.66z" fill="#000000" filter="url(#filter-jE2Okq9B)"/>
		</g>
	</g>
</svg>