<svg version="1.1" xmlns="http://www.w3.org/2000/svg" xmlns:xlink="http://www.w3.org/1999/xlink" viewBox="0,0,1024,1024">
	<!-- Color names: teamapps-color-1, teamapps-color-2, teamapps-color-3 -->
	<desc>stay_current_landscape icon - Licensed under Apache License v2.0 (http://www.apache.org/licenses/LICENSE-2.0) - Created with Iconfu.com - Derivative work of Material icons (Copyright Google Inc.)</desc>
	<defs>
		<clipPath id="clip-7EtEWSNr">
			<path d="M128,213.33h768c46.93,0 85.33,38.41 85.33,85.34v426.66c0,46.93 -38.4,85.34 -85.33,85.34h-768c-46.93,0 -85.33,-38.41 -85.33,-85.34l0.42,-426.66c0,-46.93 37.98,-85.34 84.91,-85.34zM213.33,298.67v426.66h597.34v-426.66z"/>
		</clipPath>
		<radialGradient cx="0" cy="0" r="1448.15" id="color-xkWgvk7U" gradientUnits="userSpaceOnUse">
			<stop offset="0.07" stop-color="#ffffff"/>
			<stop offset="0.75" stop-color="#000000"/>
		</radialGradient>
		<linearGradient x1="0" y1="1024" x2="1024" y2="0" id="color-xQS1i7tz" gradientUnits="userSpaceOnUse">
			<stop offset="0.2" stop-color="#000000"/>
			<stop offset="0.8" stop-color="#ffffff"/>
		</linearGradient>
		<filter id="filter-CTjQs3bi" color-interpolation-filters="sRGB">
			<feOffset/>
		</filter>
		<filter id="filter-ox2fLpEY" x="0%" y="0%" width="100%" height="100%" color-interpolation-filters="sRGB">
			<feColorMatrix values="1 0 0 0 0 0 1 0 0 0 0 0 1 0 0 0 0 0 0.05 0" in="SourceGraphic"/>
			<feOffset dy="20"/>
			<feGaussianBlur stdDeviation="11" result="blur0"/>
			<feColorMatrix values="1 0 0 0 0 0 1 0 0 0 0 0 1 0 0 0 0 0 0.07 0" in="SourceGraphic"/>
			<feOffset dy="30"/>
			<feGaussianBlur stdDeviation="20" result="blur1"/>
			<feMerge>
				<feMergeNode in="blur0"/>
				<feMergeNode in="blur1"/>
			</feMerge>
		</filter>
		<mask id="mask-8dBvhgpZ">
			<rect fill="url(#color-xQS1i7tz)" x="42.67" y="213.33" width="938.66" height="597.34"/>
		</mask>
		<mask id="mask-cngO3FzQ">
			<path d="M128,213.33h768c46.93,0 85.33,38.41 85.33,85.34v426.66c0,46.93 -38.4,85.34 -85.33,85.34h-768c-46.93,0 -85.33,-38.41 -85.33,-85.34l0.42,-426.66c0,-46.93 37.98,-85.34 84.91,-85.34zM213.33,298.67v426.66h597.34v-426.66z" fill="#ffffff"/>
		</mask>
		<mask id="mask-R5diY7id">
			<path d="M128,213.33h768c46.93,0 85.33,38.41 85.33,85.34v426.66c0,46.93 -38.4,85.34 -85.33,85.34h-768c-46.93,0 -85.33,-38.41 -85.33,-85.34l0.42,-426.66c0,-46.93 37.98,-85.34 84.91,-85.34zM213.33,298.67v426.66h597.34v-426.66z" fill="url(#color-xkWgvk7U)"/>
		</mask>
	</defs>
	<g fill="none" fill-rule="nonzero" style="mix-blend-mode: normal">
		<g mask="url(#mask-cngO3FzQ)">
			<g color="#ffc107" class="teamapps-color-2">
				<rect x="42.67" y="213.33" width="938.66" height="597.34" fill="currentColor"/>
			</g>
			<g color="#e65100" class="teamapps-color-3" mask="url(#mask-8dBvhgpZ)">
				<rect x="42.67" y="213.33" width="938.66" height="597.34" fill="currentColor"/>
			</g>
		</g>
		<g filter="url(#filter-CTjQs3bi)" mask="url(#mask-R5diY7id)">
			<g color="#fff59d" class="teamapps-color-1">
				<rect x="42.67" y="213.33" width="938.66" height="597.34" fill="currentColor"/>
			</g>
		</g>
		<g clip-path="url(#clip-7EtEWSNr)">
			<path d="M-50.33,853.67v-783.34h1124.66v783.34zM43.09,298.67l-0.42,426.66c0,46.93 38.4,85.34 85.33,85.34h768c46.93,0 85.33,-38.41 85.33,-85.34v-426.66c0,-46.93 -38.4,-85.34 -85.33,-85.34h-768c-46.93,0 -84.91,38.41 -84.91,85.34zM810.67,298.67v426.66h-597.34v-426.66z" fill="#000000" filter="url(#filter-ox2fLpEY)"/>
		</g>
	</g>
</svg>