<svg version="1.1" xmlns="http://www.w3.org/2000/svg" xmlns:xlink="http://www.w3.org/1999/xlink" viewBox="0,0,1024,1024">
	<!-- Color names: teamapps-color-1, teamapps-color-2, teamapps-color-3 -->
	<desc>subdirectory_arrow_right icon - Licensed under Apache License v2.0 (http://www.apache.org/licenses/LICENSE-2.0) - Created with Iconfu.com - Derivative work of Material icons (Copyright Google Inc.)</desc>
	<defs>
		<clipPath id="clip-0uL2M7be">
			<path d="M810.67,640l-256,256l-60.59,-60.59l153.17,-152.74h-476.58v-512h85.33v426.66h391.25l-153.17,-152.74l60.59,-60.59z"/>
		</clipPath>
		<linearGradient x1="0" y1="1024" x2="1024" y2="0" id="color-5esyibT3" gradientUnits="userSpaceOnUse">
			<stop offset="0.2" stop-color="#000000"/>
			<stop offset="0.8" stop-color="#ffffff"/>
		</linearGradient>
		<radialGradient cx="0" cy="0" r="1448.15" id="color-ymrtuIna" gradientUnits="userSpaceOnUse">
			<stop offset="0.07" stop-color="#ffffff"/>
			<stop offset="0.75" stop-color="#000000"/>
		</radialGradient>
		<filter id="filter-b9LSPDMo" x="0%" y="0%" width="100%" height="100%" color-interpolation-filters="sRGB">
			<feColorMatrix values="1 0 0 0 0 0 1 0 0 0 0 0 1 0 0 0 0 0 0.05 0" in="SourceGraphic"/>
			<feOffset dy="20"/>
			<feGaussianBlur stdDeviation="11" result="blur0"/>
			<feColorMatrix values="1 0 0 0 0 0 1 0 0 0 0 0 1 0 0 0 0 0 0.07 0" in="SourceGraphic"/>
			<feOffset dy="30"/>
			<feGaussianBlur stdDeviation="20" result="blur1"/>
			<feMerge>
				<feMergeNode in="blur0"/>
				<feMergeNode in="blur1"/>
			</feMerge>
		</filter>
		<filter id="filter-cLopy7AT" color-interpolation-filters="sRGB">
			<feOffset/>
		</filter>
		<mask id="mask-86NR9jwF">
			<path d="M810.67,640l-256,256l-60.59,-60.59l153.17,-152.74h-476.58v-512h85.33v426.66h391.25l-153.17,-152.74l60.59,-60.59z" fill="#ffffff"/>
		</mask>
		<mask id="mask-jaOxzdux">
			<rect fill="url(#color-5esyibT3)" x="170.67" y="170.67" width="640" height="725.33"/>
		</mask>
		<mask id="mask-MYqOTgdT">
			<path d="M810.67,640l-256,256l-60.59,-60.59l153.17,-152.74h-476.58v-512h85.33v426.66h391.25l-153.17,-152.74l60.59,-60.59z" fill="url(#color-ymrtuIna)"/>
		</mask>
	</defs>
	<g fill="none" fill-rule="nonzero" style="mix-blend-mode: normal">
		<g mask="url(#mask-86NR9jwF)">
			<g color="#ffc107" class="teamapps-color-2">
				<rect x="170.67" y="170.67" width="640" height="725.33" fill="currentColor"/>
			</g>
			<g color="#e65100" class="teamapps-color-3" mask="url(#mask-jaOxzdux)">
				<rect x="170.67" y="170.67" width="640" height="725.33" fill="currentColor"/>
			</g>
		</g>
		<g filter="url(#filter-cLopy7AT)" mask="url(#mask-MYqOTgdT)">
			<g color="#fff59d" class="teamapps-color-1">
				<rect x="170.67" y="170.67" width="640" height="725.33" fill="currentColor"/>
			</g>
		</g>
		<g clip-path="url(#clip-0uL2M7be)">
			<path d="M77.67,939v-911.33h826v911.33zM554.67,384l-60.59,60.59l153.17,152.74h-391.25v-426.66h-85.33v512h476.58l-153.17,152.74l60.59,60.59l256,-256z" fill="#000000" filter="url(#filter-b9LSPDMo)"/>
		</g>
	</g>
</svg>