<svg version="1.1" xmlns="http://www.w3.org/2000/svg" xmlns:xlink="http://www.w3.org/1999/xlink" viewBox="0,0,1024,1024">
	<!-- Color names: teamapps-color-1, teamapps-color-2, teamapps-color-3 -->
	<desc>swap_horiz icon - Licensed under Apache License v2.0 (http://www.apache.org/licenses/LICENSE-2.0) - Created with Iconfu.com - Derivative work of Material icons (Copyright Google Inc.)</desc>
	<defs>
		<clipPath id="clip-1Z6KrBTX">
			<path d="M725.76,554.67v-128h-299.09v-85.34h299.09v-128l170.24,170.67zM298.24,597.33h299.09v85.34h-299.09v128l-170.24,-170.67l170.24,-170.67z"/>
		</clipPath>
		<linearGradient x1="0" y1="1024" x2="1024" y2="0" id="color-fg4L6EsV" gradientUnits="userSpaceOnUse">
			<stop offset="0.2" stop-color="#000000"/>
			<stop offset="0.8" stop-color="#ffffff"/>
		</linearGradient>
		<radialGradient cx="0" cy="0" r="1448.15" id="color-nECJ9GYd" gradientUnits="userSpaceOnUse">
			<stop offset="0.07" stop-color="#ffffff"/>
			<stop offset="0.75" stop-color="#000000"/>
		</radialGradient>
		<filter id="filter-0mkM91NT" x="0%" y="0%" width="100%" height="100%" color-interpolation-filters="sRGB">
			<feColorMatrix values="1 0 0 0 0 0 1 0 0 0 0 0 1 0 0 0 0 0 0.05 0" in="SourceGraphic"/>
			<feOffset dy="20"/>
			<feGaussianBlur stdDeviation="11" result="blur0"/>
			<feColorMatrix values="1 0 0 0 0 0 1 0 0 0 0 0 1 0 0 0 0 0 0.07 0" in="SourceGraphic"/>
			<feOffset dy="30"/>
			<feGaussianBlur stdDeviation="20" result="blur1"/>
			<feMerge>
				<feMergeNode in="blur0"/>
				<feMergeNode in="blur1"/>
			</feMerge>
		</filter>
		<filter id="filter-8GyviFAR" color-interpolation-filters="sRGB">
			<feOffset/>
		</filter>
		<mask id="mask-Hgh8NAPj">
			<path d="M725.76,554.67v-128h-299.09v-85.34h299.09v-128l170.24,170.67zM298.24,597.33h299.09v85.34h-299.09v128l-170.24,-170.67l170.24,-170.67z" fill="#ffffff"/>
		</mask>
		<mask id="mask-J8EcJWVr">
			<path d="M725.76,554.67v-128h-299.09v-85.34h299.09v-128l170.24,170.67zM298.24,597.33h299.09v85.34h-299.09v128l-170.24,-170.67l170.24,-170.67z" fill="url(#color-nECJ9GYd)"/>
		</mask>
		<mask id="mask-lcKA1Hl8">
			<rect fill="url(#color-fg4L6EsV)" x="128" y="213.33" width="768" height="597.34"/>
		</mask>
	</defs>
	<g fill="none" fill-rule="nonzero" style="mix-blend-mode: normal">
		<g mask="url(#mask-Hgh8NAPj)">
			<g color="#ffc107" class="teamapps-color-2">
				<rect x="128" y="213.33" width="768" height="597.34" fill="currentColor"/>
			</g>
			<g color="#e65100" class="teamapps-color-3" mask="url(#mask-lcKA1Hl8)">
				<rect x="128" y="213.33" width="768" height="597.34" fill="currentColor"/>
			</g>
		</g>
		<g filter="url(#filter-8GyviFAR)" mask="url(#mask-J8EcJWVr)">
			<g color="#fff59d" class="teamapps-color-1">
				<rect x="128" y="213.33" width="768" height="597.34" fill="currentColor"/>
			</g>
		</g>
		<g clip-path="url(#clip-1Z6KrBTX)">
			<path d="M35,853.67v-783.34h954v783.34zM896,384l-170.24,-170.67v128h-299.09v85.34h299.09v128zM298.24,469.33l-170.24,170.67l170.24,170.67v-128h299.09v-85.34h-299.09z" fill="#000000" filter="url(#filter-0mkM91NT)"/>
		</g>
	</g>
</svg>