<svg version="1.1" xmlns="http://www.w3.org/2000/svg" xmlns:xlink="http://www.w3.org/1999/xlink" viewBox="0,0,1024,1024">
	<!-- Color names: teamapps-color-1, teamapps-color-2, teamapps-color-3 -->
	<desc>swap_vert icon - Licensed under Apache License v2.0 (http://www.apache.org/licenses/LICENSE-2.0) - Created with Iconfu.com - Derivative work of Material icons (Copyright Google Inc.)</desc>
	<defs>
		<clipPath id="clip-Amyp9soC">
			<path d="M810.67,725.76l-170.67,170.24l-170.67,-170.24h128v-299.09h85.34v299.09zM554.67,298.24h-128v299.09h-85.34v-299.09h-128l170.67,-170.24z"/>
		</clipPath>
		<radialGradient cx="0" cy="0" r="1448.15" id="color-T7YeEn0k" gradientUnits="userSpaceOnUse">
			<stop offset="0.07" stop-color="#ffffff"/>
			<stop offset="0.75" stop-color="#000000"/>
		</radialGradient>
		<linearGradient x1="0" y1="1024" x2="1024" y2="0" id="color-xYIhqNwv" gradientUnits="userSpaceOnUse">
			<stop offset="0.2" stop-color="#000000"/>
			<stop offset="0.8" stop-color="#ffffff"/>
		</linearGradient>
		<filter id="filter-LAqpDqGW" x="0%" y="0%" width="100%" height="100%" color-interpolation-filters="sRGB">
			<feColorMatrix values="1 0 0 0 0 0 1 0 0 0 0 0 1 0 0 0 0 0 0.05 0" in="SourceGraphic"/>
			<feOffset dy="20"/>
			<feGaussianBlur stdDeviation="11" result="blur0"/>
			<feColorMatrix values="1 0 0 0 0 0 1 0 0 0 0 0 1 0 0 0 0 0 0.07 0" in="SourceGraphic"/>
			<feOffset dy="30"/>
			<feGaussianBlur stdDeviation="20" result="blur1"/>
			<feMerge>
				<feMergeNode in="blur0"/>
				<feMergeNode in="blur1"/>
			</feMerge>
		</filter>
		<filter id="filter-lZfxe7Vt" color-interpolation-filters="sRGB">
			<feOffset/>
		</filter>
		<mask id="mask-SfYbjFrU">
			<path d="M810.67,725.76l-170.67,170.24l-170.67,-170.24h128v-299.09h85.34v299.09zM554.67,298.24h-128v299.09h-85.34v-299.09h-128l170.67,-170.24z" fill="#ffffff"/>
		</mask>
		<mask id="mask-vGWa1ujK">
			<rect fill="url(#color-xYIhqNwv)" x="213.33" y="128" width="597.34" height="768"/>
		</mask>
		<mask id="mask-z1BwS9CA">
			<path d="M810.67,725.76l-170.67,170.24l-170.67,-170.24h128v-299.09h85.34v299.09zM554.67,298.24h-128v299.09h-85.34v-299.09h-128l170.67,-170.24z" fill="url(#color-T7YeEn0k)"/>
		</mask>
	</defs>
	<g fill="none" fill-rule="nonzero" style="mix-blend-mode: normal">
		<g mask="url(#mask-SfYbjFrU)">
			<g color="#ffc107" class="teamapps-color-2">
				<rect x="213.33" y="128" width="597.34" height="768" fill="currentColor"/>
			</g>
			<g color="#e65100" class="teamapps-color-3" mask="url(#mask-vGWa1ujK)">
				<rect x="213.33" y="128" width="597.34" height="768" fill="currentColor"/>
			</g>
		</g>
		<g filter="url(#filter-lZfxe7Vt)" mask="url(#mask-z1BwS9CA)">
			<g color="#fff59d" class="teamapps-color-1">
				<rect x="213.33" y="128" width="597.34" height="768" fill="currentColor"/>
			</g>
		</g>
		<g clip-path="url(#clip-Amyp9soC)">
			<path d="M120.33,939v-954h783.34v954zM682.67,725.76v-299.09h-85.34v299.09h-128l170.67,170.24l170.67,-170.24zM384,128l-170.67,170.24h128v299.09h85.34v-299.09h128z" fill="#000000" filter="url(#filter-LAqpDqGW)"/>
		</g>
	</g>
</svg>