<svg version="1.1" xmlns="http://www.w3.org/2000/svg" xmlns:xlink="http://www.w3.org/1999/xlink" viewBox="0,0,1024,1024">
	<!-- Color names: teamapps-color-1, teamapps-color-2, teamapps-color-3 -->
	<desc>switch_video icon - Licensed under Apache License v2.0 (http://www.apache.org/licenses/LICENSE-2.0) - Created with Iconfu.com - Derivative work of Material icons (Copyright Google Inc.)</desc>
	<defs>
		<clipPath id="clip-QJd9P9zF">
			<path d="M938.67,234.67v554.66l-170.67,-170.66v149.33c0,23.47 -19.2,42.67 -42.67,42.67h-597.33c-23.47,0 -42.67,-19.2 -42.67,-42.67v-512c0,-23.47 19.2,-42.67 42.67,-42.67h597.33c23.47,0 42.67,19.2 42.67,42.67v149.33zM704,512l-149.33,-149.33v106.66h-256v-106.66l-149.34,149.33l149.34,149.33v-106.66h256v106.66z"/>
		</clipPath>
		<linearGradient x1="0" y1="1024" x2="1024" y2="0" id="color-9DTupG3N" gradientUnits="userSpaceOnUse">
			<stop offset="0.2" stop-color="#000000"/>
			<stop offset="0.8" stop-color="#ffffff"/>
		</linearGradient>
		<radialGradient cx="0" cy="0" r="1448.15" id="color-uVHaQcw3" gradientUnits="userSpaceOnUse">
			<stop offset="0.07" stop-color="#ffffff"/>
			<stop offset="0.75" stop-color="#000000"/>
		</radialGradient>
		<filter id="filter-OgNvdOWw" x="0%" y="0%" width="100%" height="100%" color-interpolation-filters="sRGB">
			<feColorMatrix values="1 0 0 0 0 0 1 0 0 0 0 0 1 0 0 0 0 0 0.05 0" in="SourceGraphic"/>
			<feOffset dy="20"/>
			<feGaussianBlur stdDeviation="11" result="blur0"/>
			<feColorMatrix values="1 0 0 0 0 0 1 0 0 0 0 0 1 0 0 0 0 0 0.07 0" in="SourceGraphic"/>
			<feOffset dy="30"/>
			<feGaussianBlur stdDeviation="20" result="blur1"/>
			<feMerge>
				<feMergeNode in="blur0"/>
				<feMergeNode in="blur1"/>
			</feMerge>
		</filter>
		<filter id="filter-SP9zqvIK" color-interpolation-filters="sRGB">
			<feOffset/>
		</filter>
		<mask id="mask-kLI4FnOp">
			<rect fill="url(#color-9DTupG3N)" x="85.33" y="213.33" width="853.34" height="597.34"/>
		</mask>
		<mask id="mask-odQkywPq">
			<path d="M938.67,234.67v554.66l-170.67,-170.66v149.33c0,23.47 -19.2,42.67 -42.67,42.67h-597.33c-23.47,0 -42.67,-19.2 -42.67,-42.67v-512c0,-23.47 19.2,-42.67 42.67,-42.67h597.33c23.47,0 42.67,19.2 42.67,42.67v149.33zM704,512l-149.33,-149.33v106.66h-256v-106.66l-149.34,149.33l149.34,149.33v-106.66h256v106.66z" fill="#ffffff"/>
		</mask>
		<mask id="mask-TeztyQxC">
			<path d="M938.67,234.67v554.66l-170.67,-170.66v149.33c0,23.47 -19.2,42.67 -42.67,42.67h-597.33c-23.47,0 -42.67,-19.2 -42.67,-42.67v-512c0,-23.47 19.2,-42.67 42.67,-42.67h597.33c23.47,0 42.67,19.2 42.67,42.67v149.33zM704,512l-149.33,-149.33v106.66h-256v-106.66l-149.34,149.33l149.34,149.33v-106.66h256v106.66z" fill="url(#color-uVHaQcw3)"/>
		</mask>
	</defs>
	<g fill="none" fill-rule="nonzero" style="mix-blend-mode: normal">
		<g mask="url(#mask-odQkywPq)">
			<g color="#ffc107" class="teamapps-color-2">
				<rect x="85.33" y="213.33" width="853.34" height="597.34" fill="currentColor"/>
			</g>
			<g color="#e65100" class="teamapps-color-3" mask="url(#mask-kLI4FnOp)">
				<rect x="85.33" y="213.33" width="853.34" height="597.34" fill="currentColor"/>
			</g>
		</g>
		<g filter="url(#filter-SP9zqvIK)" mask="url(#mask-TeztyQxC)">
			<g color="#fff59d" class="teamapps-color-1">
				<rect x="85.33" y="213.33" width="853.34" height="597.34" fill="currentColor"/>
			</g>
		</g>
		<g clip-path="url(#clip-QJd9P9zF)">
			<path d="M-7.67,853.67v-783.34h1039.34v783.34zM768,405.33v-149.33c0,-23.47 -19.2,-42.67 -42.67,-42.67h-597.33c-23.47,0 -42.67,19.2 -42.67,42.67v512c0,23.47 19.2,42.67 42.67,42.67h597.33c23.47,0 42.67,-19.2 42.67,-42.67v-149.33l170.67,170.66v-554.66zM554.67,661.33v-106.66h-256v106.66l-149.34,-149.33l149.34,-149.33v106.66h256v-106.66l149.33,149.33z" fill="#000000" filter="url(#filter-OgNvdOWw)"/>
		</g>
	</g>
</svg>