<svg version="1.1" xmlns="http://www.w3.org/2000/svg" xmlns:xlink="http://www.w3.org/1999/xlink" viewBox="0,0,1024,1024">
	<!-- Color names: teamapps-color-1, teamapps-color-2, teamapps-color-3 -->
	<desc>text_format icon - Licensed under Apache License v2.0 (http://www.apache.org/licenses/LICENSE-2.0) - Created with Iconfu.com - Derivative work of Material icons (Copyright Google Inc.)</desc>
	<defs>
		<clipPath id="clip-et3nXVLZ">
			<path d="M366.93,640h-89.6l202.67,-469.33h64l202.67,469.33h-89.6l-38.4,-93.87h-213.34zM810.67,725.33v85.34h-597.34v-85.34zM432.21,469.33h159.58l-79.79,-214.18z"/>
		</clipPath>
		<radialGradient cx="0" cy="0" r="1448.15" id="color-1kV4Ym8c" gradientUnits="userSpaceOnUse">
			<stop offset="0.07" stop-color="#ffffff"/>
			<stop offset="0.75" stop-color="#000000"/>
		</radialGradient>
		<linearGradient x1="0" y1="1024" x2="1024" y2="0" id="color-CAo0DJsl" gradientUnits="userSpaceOnUse">
			<stop offset="0.2" stop-color="#000000"/>
			<stop offset="0.8" stop-color="#ffffff"/>
		</linearGradient>
		<filter id="filter-0QN49CXD" color-interpolation-filters="sRGB">
			<feOffset/>
		</filter>
		<filter id="filter-GHFT16wF" x="0%" y="0%" width="100%" height="100%" color-interpolation-filters="sRGB">
			<feColorMatrix values="1 0 0 0 0 0 1 0 0 0 0 0 1 0 0 0 0 0 0.05 0" in="SourceGraphic"/>
			<feOffset dy="20"/>
			<feGaussianBlur stdDeviation="11" result="blur0"/>
			<feColorMatrix values="1 0 0 0 0 0 1 0 0 0 0 0 1 0 0 0 0 0 0.07 0" in="SourceGraphic"/>
			<feOffset dy="30"/>
			<feGaussianBlur stdDeviation="20" result="blur1"/>
			<feMerge>
				<feMergeNode in="blur0"/>
				<feMergeNode in="blur1"/>
			</feMerge>
		</filter>
		<mask id="mask-4ir2RaSv">
			<rect fill="url(#color-CAo0DJsl)" x="213.33" y="170.67" width="597.34" height="640"/>
		</mask>
		<mask id="mask-hCTXoyDH">
			<path d="M366.93,640h-89.6l202.67,-469.33h64l202.67,469.33h-89.6l-38.4,-93.87h-213.34zM810.67,725.33v85.34h-597.34v-85.34zM432.21,469.33h159.58l-79.79,-214.18z" fill="url(#color-1kV4Ym8c)"/>
		</mask>
		<mask id="mask-yG80nb9f">
			<path d="M366.93,640h-89.6l202.67,-469.33h64l202.67,469.33h-89.6l-38.4,-93.87h-213.34zM810.67,725.33v85.34h-597.34v-85.34zM432.21,469.33h159.58l-79.79,-214.18z" fill="#ffffff"/>
		</mask>
	</defs>
	<g fill="none" fill-rule="nonzero" style="mix-blend-mode: normal">
		<g mask="url(#mask-yG80nb9f)">
			<g color="#ffc107" class="teamapps-color-2">
				<rect x="213.33" y="170.67" width="597.34" height="640" fill="currentColor"/>
			</g>
			<g color="#e65100" class="teamapps-color-3" mask="url(#mask-4ir2RaSv)">
				<rect x="213.33" y="170.67" width="597.34" height="640" fill="currentColor"/>
			</g>
		</g>
		<g filter="url(#filter-0QN49CXD)" mask="url(#mask-hCTXoyDH)">
			<g color="#fff59d" class="teamapps-color-1">
				<rect x="213.33" y="170.67" width="597.34" height="640" fill="currentColor"/>
			</g>
		</g>
		<g clip-path="url(#clip-et3nXVLZ)">
			<path d="M120.33,853.67v-826h783.34v826zM405.33,546.13h213.34l38.4,93.87h89.6l-202.67,-469.33h-64l-202.67,469.33h89.6zM213.33,725.33v85.34h597.34v-85.34zM512,255.15l79.79,214.18h-159.58z" fill="#000000" filter="url(#filter-GHFT16wF)"/>
		</g>
	</g>
</svg>