<svg version="1.1" xmlns="http://www.w3.org/2000/svg" xmlns:xlink="http://www.w3.org/1999/xlink" viewBox="0,0,1024,1024">
	<!-- Color names: teamapps-color-1, teamapps-color-2, teamapps-color-3 -->
	<desc>tram icon - Licensed under Apache License v2.0 (http://www.apache.org/licenses/LICENSE-2.0) - Created with Iconfu.com - Derivative work of Material icons (Copyright Google Inc.)</desc>
	<defs>
		<clipPath id="clip-bTrVrYok">
			<path d="M700.59,853.33h3.41l64,64v21.34h-85.33l-85.34,-85.34h-160.85l-85.33,85.34h-95.15v-21.34l67.84,-67.84c-59.73,-13.23 -110.51,-64.85 -110.51,-126.72v-360.1c0,-118.19 122.03,-144.64 255.58,-148.48l32.42,-64.86h-202.66v-64h426.66v64h-138.66l-32.43,64.43c145.07,3.84 256.43,29.87 256.43,148.91v360.1c0,72.11 -37.97,130.56 -110.08,130.56zM725.33,384h-426.66v213.33h426.66zM576,725.33c0,-35.41 -28.59,-64 -64,-64c-35.41,0 -64,28.59 -64,64c0,35.41 28.59,64 64,64c35.41,0 64,-28.59 64,-64z"/>
		</clipPath>
		<radialGradient cx="0" cy="0" r="1448.15" id="color-e6Q2CZpB" gradientUnits="userSpaceOnUse">
			<stop offset="0.07" stop-color="#ffffff"/>
			<stop offset="0.75" stop-color="#000000"/>
		</radialGradient>
		<linearGradient x1="0" y1="1024" x2="1024" y2="0" id="color-YVBvJbD0" gradientUnits="userSpaceOnUse">
			<stop offset="0.2" stop-color="#000000"/>
			<stop offset="0.8" stop-color="#ffffff"/>
		</linearGradient>
		<filter id="filter-RahIsMZv" color-interpolation-filters="sRGB">
			<feOffset/>
		</filter>
		<filter id="filter-ZI5kOI1v" x="0%" y="0%" width="100%" height="100%" color-interpolation-filters="sRGB">
			<feColorMatrix values="1 0 0 0 0 0 1 0 0 0 0 0 1 0 0 0 0 0 0.05 0" in="SourceGraphic"/>
			<feOffset dy="20"/>
			<feGaussianBlur stdDeviation="11" result="blur0"/>
			<feColorMatrix values="1 0 0 0 0 0 1 0 0 0 0 0 1 0 0 0 0 0 0.07 0" in="SourceGraphic"/>
			<feOffset dy="30"/>
			<feGaussianBlur stdDeviation="20" result="blur1"/>
			<feMerge>
				<feMergeNode in="blur0"/>
				<feMergeNode in="blur1"/>
			</feMerge>
		</filter>
		<mask id="mask-71nE4yIX">
			<rect fill="url(#color-YVBvJbD0)" x="213.33" y="85.33" width="597.34" height="853.34"/>
		</mask>
		<mask id="mask-UrrNSFXI">
			<path d="M700.59,853.33h3.41l64,64v21.34h-85.33l-85.34,-85.34h-160.85l-85.33,85.34h-95.15v-21.34l67.84,-67.84c-59.73,-13.23 -110.51,-64.85 -110.51,-126.72v-360.1c0,-118.19 122.03,-144.64 255.58,-148.48l32.42,-64.86h-202.66v-64h426.66v64h-138.66l-32.43,64.43c145.07,3.84 256.43,29.87 256.43,148.91v360.1c0,72.11 -37.97,130.56 -110.08,130.56zM725.33,384h-426.66v213.33h426.66zM576,725.33c0,-35.41 -28.59,-64 -64,-64c-35.41,0 -64,28.59 -64,64c0,35.41 28.59,64 64,64c35.41,0 64,-28.59 64,-64z" fill="#ffffff"/>
		</mask>
		<mask id="mask-xEoTdmxx">
			<path d="M700.59,853.33h3.41l64,64v21.34h-85.33l-85.34,-85.34h-160.85l-85.33,85.34h-95.15v-21.34l67.84,-67.84c-59.73,-13.23 -110.51,-64.85 -110.51,-126.72v-360.1c0,-118.19 122.03,-144.64 255.58,-148.48l32.42,-64.86h-202.66v-64h426.66v64h-138.66l-32.43,64.43c145.07,3.84 256.43,29.87 256.43,148.91v360.1c0,72.11 -37.97,130.56 -110.08,130.56zM725.33,384h-426.66v213.33h426.66zM576,725.33c0,-35.41 -28.59,-64 -64,-64c-35.41,0 -64,28.59 -64,64c0,35.41 28.59,64 64,64c35.41,0 64,-28.59 64,-64z" fill="url(#color-e6Q2CZpB)"/>
		</mask>
	</defs>
	<g fill="none" fill-rule="nonzero" style="mix-blend-mode: normal">
		<g mask="url(#mask-UrrNSFXI)">
			<g color="#ffc107" class="teamapps-color-2">
				<rect x="213.33" y="85.33" width="597.34" height="853.34" fill="currentColor"/>
			</g>
			<g color="#e65100" class="teamapps-color-3" mask="url(#mask-71nE4yIX)">
				<rect x="213.33" y="85.33" width="597.34" height="853.34" fill="currentColor"/>
			</g>
		</g>
		<g filter="url(#filter-RahIsMZv)" mask="url(#mask-xEoTdmxx)">
			<g color="#fff59d" class="teamapps-color-1">
				<rect x="213.33" y="85.33" width="597.34" height="853.34" fill="currentColor"/>
			</g>
		</g>
		<g clip-path="url(#clip-bTrVrYok)">
			<path d="M120.33,981.67v-1039.34h783.34v1039.34zM810.67,722.77v-360.1c0,-119.04 -111.36,-145.07 -256.43,-148.91l32.43,-64.43h138.66v-64h-426.66v64h202.66l-32.42,64.86c-133.55,3.84 -255.58,30.29 -255.58,148.48v360.1c0,61.87 50.78,113.49 110.51,126.72l-67.84,67.84v21.34h95.15l85.33,-85.34h160.85l85.34,85.34h85.33v-21.34l-64,-64h-3.41c72.11,0 110.08,-58.45 110.08,-130.56zM725.33,597.33h-426.66v-213.33h426.66zM512,789.33c-35.41,0 -64,-28.59 -64,-64c0,-35.41 28.59,-64 64,-64c35.41,0 64,28.59 64,64c0,35.41 -28.59,64 -64,64z" fill="#000000" filter="url(#filter-ZI5kOI1v)"/>
		</g>
	</g>
</svg>