<svg version="1.1" xmlns="http://www.w3.org/2000/svg" xmlns:xlink="http://www.w3.org/1999/xlink" viewBox="0,0,1024,1024">
	<!-- Color names: teamapps-color-1, teamapps-color-2, teamapps-color-3 -->
	<desc>unfold_less icon - Licensed under Apache License v2.0 (http://www.apache.org/licenses/LICENSE-2.0) - Created with Iconfu.com - Derivative work of Material icons (Copyright Google Inc.)</desc>
	<defs>
		<clipPath id="clip-BbU4dscA">
			<path d="M512,426.67l-195.84,-195.84l60.59,-60.16l135.25,135.25l135.25,-135.25l60.59,60.16zM512,597.33l195.41,195.84l-60.16,60.16l-135.25,-135.25l-135.25,135.25l-60.59,-60.16z"/>
		</clipPath>
		<radialGradient cx="0" cy="0" r="1448.15" id="color-9vDJv7eF" gradientUnits="userSpaceOnUse">
			<stop offset="0.07" stop-color="#ffffff"/>
			<stop offset="0.75" stop-color="#000000"/>
		</radialGradient>
		<linearGradient x1="0" y1="1024" x2="1024" y2="0" id="color-nWphEU5c" gradientUnits="userSpaceOnUse">
			<stop offset="0.2" stop-color="#000000"/>
			<stop offset="0.8" stop-color="#ffffff"/>
		</linearGradient>
		<filter id="filter-HCe7dKKg" color-interpolation-filters="sRGB">
			<feOffset/>
		</filter>
		<filter id="filter-VmWzf3Mm" x="0%" y="0%" width="100%" height="100%" color-interpolation-filters="sRGB">
			<feColorMatrix values="1 0 0 0 0 0 1 0 0 0 0 0 1 0 0 0 0 0 0.05 0" in="SourceGraphic"/>
			<feOffset dy="20"/>
			<feGaussianBlur stdDeviation="11" result="blur0"/>
			<feColorMatrix values="1 0 0 0 0 0 1 0 0 0 0 0 1 0 0 0 0 0 0.07 0" in="SourceGraphic"/>
			<feOffset dy="30"/>
			<feGaussianBlur stdDeviation="20" result="blur1"/>
			<feMerge>
				<feMergeNode in="blur0"/>
				<feMergeNode in="blur1"/>
			</feMerge>
		</filter>
		<mask id="mask-62beGyoR">
			<rect fill="url(#color-nWphEU5c)" x="316.16" y="170.67" width="391.68" height="682.66"/>
		</mask>
		<mask id="mask-EIofCOVT">
			<path d="M512,426.67l-195.84,-195.84l60.59,-60.16l135.25,135.25l135.25,-135.25l60.59,60.16zM512,597.33l195.41,195.84l-60.16,60.16l-135.25,-135.25l-135.25,135.25l-60.59,-60.16z" fill="url(#color-9vDJv7eF)"/>
		</mask>
		<mask id="mask-jQHkGca4">
			<path d="M512,426.67l-195.84,-195.84l60.59,-60.16l135.25,135.25l135.25,-135.25l60.59,60.16zM512,597.33l195.41,195.84l-60.16,60.16l-135.25,-135.25l-135.25,135.25l-60.59,-60.16z" fill="#ffffff"/>
		</mask>
	</defs>
	<g fill="none" fill-rule="nonzero" style="mix-blend-mode: normal">
		<g mask="url(#mask-jQHkGca4)">
			<g color="#ffc107" class="teamapps-color-2">
				<rect x="316.16" y="170.67" width="391.68" height="682.66" fill="currentColor"/>
			</g>
			<g color="#e65100" class="teamapps-color-3" mask="url(#mask-62beGyoR)">
				<rect x="316.16" y="170.67" width="391.68" height="682.66" fill="currentColor"/>
			</g>
		</g>
		<g filter="url(#filter-HCe7dKKg)" mask="url(#mask-EIofCOVT)">
			<g color="#fff59d" class="teamapps-color-1">
				<rect x="316.16" y="170.67" width="391.68" height="682.66" fill="currentColor"/>
			</g>
		</g>
		<g clip-path="url(#clip-BbU4dscA)">
			<path d="M223.16,896.33v-868.66h577.68v868.66zM707.84,230.83l-60.59,-60.16l-135.25,135.25l-135.25,-135.25l-60.59,60.16l195.84,195.84zM316.16,793.17l60.59,60.16l135.25,-135.25l135.25,135.25l60.16,-60.16l-195.41,-195.84z" fill="#000000" filter="url(#filter-VmWzf3Mm)"/>
		</g>
	</g>
</svg>