<svg version="1.1" xmlns="http://www.w3.org/2000/svg" xmlns:xlink="http://www.w3.org/1999/xlink" viewBox="0,0,1024,1024">
	<!-- Color names: teamapps-color-1, teamapps-color-2, teamapps-color-3 -->
	<desc>vertical_align_center icon - Licensed under Apache License v2.0 (http://www.apache.org/licenses/LICENSE-2.0) - Created with Iconfu.com - Derivative work of Material icons (Copyright Google Inc.)</desc>
	<defs>
		<clipPath id="clip-3IhmvmaG">
			<path d="M512,384l-170.67,-170.67h128v-170.66h85.34v170.66h128zM512,640l170.67,170.67h-128v170.66h-85.34v-170.66h-128zM853.33,469.33v85.34h-682.66v-85.34z"/>
		</clipPath>
		<linearGradient x1="0" y1="1024" x2="1024" y2="0" id="color-ahDwc4Dz" gradientUnits="userSpaceOnUse">
			<stop offset="0.2" stop-color="#000000"/>
			<stop offset="0.8" stop-color="#ffffff"/>
		</linearGradient>
		<radialGradient cx="0" cy="0" r="1448.15" id="color-MOFbnXgC" gradientUnits="userSpaceOnUse">
			<stop offset="0.07" stop-color="#ffffff"/>
			<stop offset="0.75" stop-color="#000000"/>
		</radialGradient>
		<filter id="filter-G5SzFhsZ" x="0%" y="0%" width="100%" height="100%" color-interpolation-filters="sRGB">
			<feColorMatrix values="1 0 0 0 0 0 1 0 0 0 0 0 1 0 0 0 0 0 0.05 0" in="SourceGraphic"/>
			<feOffset dy="20"/>
			<feGaussianBlur stdDeviation="11" result="blur0"/>
			<feColorMatrix values="1 0 0 0 0 0 1 0 0 0 0 0 1 0 0 0 0 0 0.07 0" in="SourceGraphic"/>
			<feOffset dy="30"/>
			<feGaussianBlur stdDeviation="20" result="blur1"/>
			<feMerge>
				<feMergeNode in="blur0"/>
				<feMergeNode in="blur1"/>
			</feMerge>
		</filter>
		<filter id="filter-ZIQIIcpy" color-interpolation-filters="sRGB">
			<feOffset/>
		</filter>
		<mask id="mask-C9t5Ibrg">
			<path d="M512,384l-170.67,-170.67h128v-170.66h85.34v170.66h128zM512,640l170.67,170.67h-128v170.66h-85.34v-170.66h-128zM853.33,469.33v85.34h-682.66v-85.34z" fill="#ffffff"/>
		</mask>
		<mask id="mask-RsVjIUKu">
			<path d="M512,384l-170.67,-170.67h128v-170.66h85.34v170.66h128zM512,640l170.67,170.67h-128v170.66h-85.34v-170.66h-128zM853.33,469.33v85.34h-682.66v-85.34z" fill="url(#color-MOFbnXgC)"/>
		</mask>
		<mask id="mask-XnvLbHLC">
			<rect fill="url(#color-ahDwc4Dz)" x="170.67" y="42.67" width="682.66" height="938.66"/>
		</mask>
	</defs>
	<g fill="none" fill-rule="nonzero" style="mix-blend-mode: normal">
		<g mask="url(#mask-C9t5Ibrg)">
			<g color="#ffc107" class="teamapps-color-2">
				<rect x="170.67" y="42.67" width="682.66" height="938.66" fill="currentColor"/>
			</g>
			<g color="#e65100" class="teamapps-color-3" mask="url(#mask-XnvLbHLC)">
				<rect x="170.67" y="42.67" width="682.66" height="938.66" fill="currentColor"/>
			</g>
		</g>
		<g filter="url(#filter-ZIQIIcpy)" mask="url(#mask-RsVjIUKu)">
			<g color="#fff59d" class="teamapps-color-1">
				<rect x="170.67" y="42.67" width="682.66" height="938.66" fill="currentColor"/>
			</g>
		</g>
		<g clip-path="url(#clip-3IhmvmaG)">
			<path d="M77.67,1024.33v-1124.66h868.66v1124.66zM682.67,213.33h-128v-170.66h-85.34v170.66h-128l170.67,170.67zM341.33,810.67h128v170.66h85.34v-170.66h128l-170.67,-170.67zM170.67,469.33v85.34h682.66v-85.34z" fill="#000000" filter="url(#filter-G5SzFhsZ)"/>
		</g>
	</g>
</svg>