<svg version="1.1" xmlns="http://www.w3.org/2000/svg" xmlns:xlink="http://www.w3.org/1999/xlink" viewBox="0,0,1024,1024">
	<!-- Color names: teamapps-color-1, teamapps-color-2, teamapps-color-3 -->
	<desc>view_agenda icon - Licensed under Apache License v2.0 (http://www.apache.org/licenses/LICENSE-2.0) - Created with Iconfu.com - Derivative work of Material icons (Copyright Google Inc.)</desc>
	<defs>
		<clipPath id="clip-VgvwYS71">
			<path d="M896,597.33v256c0,23.47 -19.2,42.67 -42.67,42.67h-725.33c-23.47,0 -42.67,-19.2 -42.67,-42.67v-256c0,-23.47 19.2,-42.66 42.67,-42.66h725.33c23.47,0 42.67,19.19 42.67,42.66zM896,170.67v256c0,23.47 -19.2,42.66 -42.67,42.66h-725.33c-23.47,0 -42.67,-19.19 -42.67,-42.66v-256c0,-23.47 19.2,-42.67 42.67,-42.67h725.33c23.47,0 42.67,19.2 42.67,42.67z"/>
		</clipPath>
		<radialGradient cx="0" cy="0" r="1448.15" id="color-4fgigVd4" gradientUnits="userSpaceOnUse">
			<stop offset="0.07" stop-color="#ffffff"/>
			<stop offset="0.75" stop-color="#000000"/>
		</radialGradient>
		<linearGradient x1="0" y1="1024" x2="1024" y2="0" id="color-xkVIj0Fw" gradientUnits="userSpaceOnUse">
			<stop offset="0.2" stop-color="#000000"/>
			<stop offset="0.8" stop-color="#ffffff"/>
		</linearGradient>
		<filter id="filter-gGYNmsYj" color-interpolation-filters="sRGB">
			<feOffset/>
		</filter>
		<filter id="filter-tAPz5wl0" x="0%" y="0%" width="100%" height="100%" color-interpolation-filters="sRGB">
			<feColorMatrix values="1 0 0 0 0 0 1 0 0 0 0 0 1 0 0 0 0 0 0.05 0" in="SourceGraphic"/>
			<feOffset dy="20"/>
			<feGaussianBlur stdDeviation="11" result="blur0"/>
			<feColorMatrix values="1 0 0 0 0 0 1 0 0 0 0 0 1 0 0 0 0 0 0.07 0" in="SourceGraphic"/>
			<feOffset dy="30"/>
			<feGaussianBlur stdDeviation="20" result="blur1"/>
			<feMerge>
				<feMergeNode in="blur0"/>
				<feMergeNode in="blur1"/>
			</feMerge>
		</filter>
		<mask id="mask-GyPvT1C5">
			<path d="M896,597.33v256c0,23.47 -19.2,42.67 -42.67,42.67h-725.33c-23.47,0 -42.67,-19.2 -42.67,-42.67v-256c0,-23.47 19.2,-42.66 42.67,-42.66h725.33c23.47,0 42.67,19.19 42.67,42.66zM896,170.67v256c0,23.47 -19.2,42.66 -42.67,42.66h-725.33c-23.47,0 -42.67,-19.19 -42.67,-42.66v-256c0,-23.47 19.2,-42.67 42.67,-42.67h725.33c23.47,0 42.67,19.2 42.67,42.67z" fill="#ffffff"/>
		</mask>
		<mask id="mask-iTM3XnBV">
			<rect fill="url(#color-xkVIj0Fw)" x="85.33" y="128" width="810.67" height="768"/>
		</mask>
		<mask id="mask-WeasbOuA">
			<path d="M896,597.33v256c0,23.47 -19.2,42.67 -42.67,42.67h-725.33c-23.47,0 -42.67,-19.2 -42.67,-42.67v-256c0,-23.47 19.2,-42.66 42.67,-42.66h725.33c23.47,0 42.67,19.19 42.67,42.66zM896,170.67v256c0,23.47 -19.2,42.66 -42.67,42.66h-725.33c-23.47,0 -42.67,-19.19 -42.67,-42.66v-256c0,-23.47 19.2,-42.67 42.67,-42.67h725.33c23.47,0 42.67,19.2 42.67,42.67z" fill="url(#color-4fgigVd4)"/>
		</mask>
	</defs>
	<g fill="none" fill-rule="nonzero" style="mix-blend-mode: normal">
		<g mask="url(#mask-GyPvT1C5)">
			<g color="#ffc107" class="teamapps-color-2">
				<rect x="85.33" y="128" width="810.67" height="768" fill="currentColor"/>
			</g>
			<g color="#e65100" class="teamapps-color-3" mask="url(#mask-iTM3XnBV)">
				<rect x="85.33" y="128" width="810.67" height="768" fill="currentColor"/>
			</g>
		</g>
		<g filter="url(#filter-gGYNmsYj)" mask="url(#mask-WeasbOuA)">
			<g color="#fff59d" class="teamapps-color-1">
				<rect x="85.33" y="128" width="810.67" height="768" fill="currentColor"/>
			</g>
		</g>
		<g clip-path="url(#clip-VgvwYS71)">
			<path d="M-7.67,939v-954h996.67v954zM853.33,554.67h-725.33c-23.47,0 -42.67,19.19 -42.67,42.66v256c0,23.47 19.2,42.67 42.67,42.67h725.33c23.47,0 42.67,-19.2 42.67,-42.67v-256c0,-23.47 -19.2,-42.66 -42.67,-42.66zM853.33,128h-725.33c-23.47,0 -42.67,19.2 -42.67,42.67v256c0,23.47 19.2,42.66 42.67,42.66h725.33c23.47,0 42.67,-19.19 42.67,-42.66v-256c0,-23.47 -19.2,-42.67 -42.67,-42.67z" fill="#000000" filter="url(#filter-tAPz5wl0)"/>
		</g>
	</g>
</svg>