<svg version="1.1" xmlns="http://www.w3.org/2000/svg" xmlns:xlink="http://www.w3.org/1999/xlink" viewBox="0,0,1024,1024">
	<!-- Color names: teamapps-color-1, teamapps-color-2, teamapps-color-3 -->
	<desc>view_module icon - Licensed under Apache License v2.0 (http://www.apache.org/licenses/LICENSE-2.0) - Created with Iconfu.com - Derivative work of Material icons (Copyright Google Inc.)</desc>
	<defs>
		<clipPath id="clip-nrp914TO">
			<path d="M426.67,512h213.33v256h-213.33zM682.67,512h213.33v256h-213.33zM426.67,213.33h213.33v256h-213.33zM896,213.33v256h-213.33v-256zM170.67,213.33h213.33v256h-213.33zM170.67,512h213.33v256h-213.33z"/>
		</clipPath>
		<linearGradient x1="0" y1="1024" x2="1024" y2="0" id="color-OLoZs9dN" gradientUnits="userSpaceOnUse">
			<stop offset="0.2" stop-color="#000000"/>
			<stop offset="0.8" stop-color="#ffffff"/>
		</linearGradient>
		<radialGradient cx="0" cy="0" r="1448.15" id="color-rintnQ7L" gradientUnits="userSpaceOnUse">
			<stop offset="0.07" stop-color="#ffffff"/>
			<stop offset="0.75" stop-color="#000000"/>
		</radialGradient>
		<filter id="filter-AUkP0K4M" color-interpolation-filters="sRGB">
			<feOffset/>
		</filter>
		<filter id="filter-QLBPnkwS" x="0%" y="0%" width="100%" height="100%" color-interpolation-filters="sRGB">
			<feColorMatrix values="1 0 0 0 0 0 1 0 0 0 0 0 1 0 0 0 0 0 0.05 0" in="SourceGraphic"/>
			<feOffset dy="20"/>
			<feGaussianBlur stdDeviation="11" result="blur0"/>
			<feColorMatrix values="1 0 0 0 0 0 1 0 0 0 0 0 1 0 0 0 0 0 0.07 0" in="SourceGraphic"/>
			<feOffset dy="30"/>
			<feGaussianBlur stdDeviation="20" result="blur1"/>
			<feMerge>
				<feMergeNode in="blur0"/>
				<feMergeNode in="blur1"/>
			</feMerge>
		</filter>
		<mask id="mask-2iutPMsT">
			<path d="M426.67,512h213.33v256h-213.33zM682.67,512h213.33v256h-213.33zM426.67,213.33h213.33v256h-213.33zM896,213.33v256h-213.33v-256zM170.67,213.33h213.33v256h-213.33zM170.67,512h213.33v256h-213.33z" fill="#ffffff"/>
		</mask>
		<mask id="mask-3ekJYuZz">
			<path d="M426.67,512h213.33v256h-213.33zM682.67,512h213.33v256h-213.33zM426.67,213.33h213.33v256h-213.33zM896,213.33v256h-213.33v-256zM170.67,213.33h213.33v256h-213.33zM170.67,512h213.33v256h-213.33z" fill="url(#color-rintnQ7L)"/>
		</mask>
		<mask id="mask-dyxCKUD2">
			<rect fill="url(#color-OLoZs9dN)" x="170.67" y="213.33" width="725.33" height="554.67"/>
		</mask>
	</defs>
	<g fill="none" fill-rule="nonzero" style="mix-blend-mode: normal">
		<g mask="url(#mask-2iutPMsT)">
			<g color="#ffc107" class="teamapps-color-2">
				<rect x="170.67" y="213.33" width="725.33" height="554.67" fill="currentColor"/>
			</g>
			<g color="#e65100" class="teamapps-color-3" mask="url(#mask-dyxCKUD2)">
				<rect x="170.67" y="213.33" width="725.33" height="554.67" fill="currentColor"/>
			</g>
		</g>
		<g filter="url(#filter-AUkP0K4M)" mask="url(#mask-3ekJYuZz)">
			<g color="#fff59d" class="teamapps-color-1">
				<rect x="170.67" y="213.33" width="725.33" height="554.67" fill="currentColor"/>
			</g>
		</g>
		<g clip-path="url(#clip-nrp914TO)">
			<path d="M77.67,811v-740.67h911.33v740.67zM426.67,768h213.33v-256h-213.33zM682.67,768h213.33v-256h-213.33zM426.67,469.33h213.33v-256h-213.33zM682.67,213.33v256h213.33v-256zM170.67,469.33h213.33v-256h-213.33zM170.67,768h213.33v-256h-213.33z" fill="#000000" filter="url(#filter-QLBPnkwS)"/>
		</g>
	</g>
</svg>