<svg version="1.1" xmlns="http://www.w3.org/2000/svg" xmlns:xlink="http://www.w3.org/1999/xlink" viewBox="0,0,1024,1024">
	<!-- Color names: teamapps-color-1, teamapps-color-2, teamapps-color-3 -->
	<desc>volume_down icon - Licensed under Apache License v2.0 (http://www.apache.org/licenses/LICENSE-2.0) - Created with Iconfu.com - Derivative work of Material icons (Copyright Google Inc.)</desc>
	<defs>
		<clipPath id="clip-Y90NrEI0">
			<path d="M384,384l213.33,-213.33v682.66l-213.33,-213.33h-170.67v-256zM682.67,683.52v-343.47c63.15,31.57 106.66,96.43 106.66,171.95c0,75.52 -43.51,140.37 -106.66,171.52z"/>
		</clipPath>
		<linearGradient x1="0" y1="1024" x2="1024" y2="0" id="color-BWgJgCrU" gradientUnits="userSpaceOnUse">
			<stop offset="0.2" stop-color="#000000"/>
			<stop offset="0.8" stop-color="#ffffff"/>
		</linearGradient>
		<radialGradient cx="0" cy="0" r="1448.15" id="color-KVk0Oars" gradientUnits="userSpaceOnUse">
			<stop offset="0.07" stop-color="#ffffff"/>
			<stop offset="0.75" stop-color="#000000"/>
		</radialGradient>
		<filter id="filter-FN1dDrFr" color-interpolation-filters="sRGB">
			<feOffset/>
		</filter>
		<filter id="filter-ZDhjYe1Q" x="0%" y="0%" width="100%" height="100%" color-interpolation-filters="sRGB">
			<feColorMatrix values="1 0 0 0 0 0 1 0 0 0 0 0 1 0 0 0 0 0 0.05 0" in="SourceGraphic"/>
			<feOffset dy="20"/>
			<feGaussianBlur stdDeviation="11" result="blur0"/>
			<feColorMatrix values="1 0 0 0 0 0 1 0 0 0 0 0 1 0 0 0 0 0 0.07 0" in="SourceGraphic"/>
			<feOffset dy="30"/>
			<feGaussianBlur stdDeviation="20" result="blur1"/>
			<feMerge>
				<feMergeNode in="blur0"/>
				<feMergeNode in="blur1"/>
			</feMerge>
		</filter>
		<mask id="mask-dQ2h2ZSw">
			<path d="M384,384l213.33,-213.33v682.66l-213.33,-213.33h-170.67v-256zM682.67,683.52v-343.47c63.15,31.57 106.66,96.43 106.66,171.95c0,75.52 -43.51,140.37 -106.66,171.52z" fill="#ffffff"/>
		</mask>
		<mask id="mask-Qt9QK0DT">
			<path d="M384,384l213.33,-213.33v682.66l-213.33,-213.33h-170.67v-256zM682.67,683.52v-343.47c63.15,31.57 106.66,96.43 106.66,171.95c0,75.52 -43.51,140.37 -106.66,171.52z" fill="url(#color-KVk0Oars)"/>
		</mask>
		<mask id="mask-s9fdreiB">
			<rect fill="url(#color-BWgJgCrU)" x="213.33" y="170.67" width="576" height="682.66"/>
		</mask>
	</defs>
	<g fill="none" fill-rule="nonzero" style="mix-blend-mode: normal">
		<g mask="url(#mask-dQ2h2ZSw)">
			<g color="#ffc107" class="teamapps-color-2">
				<rect x="213.33" y="170.67" width="576" height="682.66" fill="currentColor"/>
			</g>
			<g color="#e65100" class="teamapps-color-3" mask="url(#mask-s9fdreiB)">
				<rect x="213.33" y="170.67" width="576" height="682.66" fill="currentColor"/>
			</g>
		</g>
		<g filter="url(#filter-FN1dDrFr)" mask="url(#mask-Qt9QK0DT)">
			<g color="#fff59d" class="teamapps-color-1">
				<rect x="213.33" y="170.67" width="576" height="682.66" fill="currentColor"/>
			</g>
		</g>
		<g clip-path="url(#clip-Y90NrEI0)">
			<path d="M120.33,896.33v-868.66h762v868.66zM213.33,384v256h170.67l213.33,213.33v-682.66l-213.33,213.33zM789.33,512c0,-75.52 -43.51,-140.38 -106.66,-171.95v343.47c63.15,-31.15 106.66,-96 106.66,-171.52z" fill="#000000" filter="url(#filter-ZDhjYe1Q)"/>
		</g>
	</g>
</svg>