<svg version="1.1" xmlns="http://www.w3.org/2000/svg" xmlns:xlink="http://www.w3.org/1999/xlink" viewBox="0,0,1024,1024">
	<!-- Color names: teamapps-color-1, teamapps-color-2, teamapps-color-3 -->
	<desc>wb_auto icon - Licensed under Apache License v2.0 (http://www.apache.org/licenses/LICENSE-2.0) - Created with Iconfu.com - Derivative work of Material icons (Copyright Google Inc.)</desc>
	<defs>
		<clipPath id="clip-VzdyktdV">
			<path d="M1015.47,298.67l-87.47,384h-74.67l-64,-260.27l-64,260.27h-74.66l-4.27,-18.35c-55.89,111.79 -171.52,189.01 -305.07,189.01c-188.59,0 -341.33,-152.74 -341.33,-341.33c0,-188.59 152.74,-341.33 341.33,-341.33c107.95,0 203.52,49.92 266.24,128h32.43l51.63,268.37l63.57,-268.37h68.27l64,268.37l51.2,-268.37zM520.53,682.67l-136.53,-384h-85.33l-136.54,384h81.07l29.87,-85.34h136.53l29.87,85.34zM341.33,384l49.07,155.73h-98.13z"/>
		</clipPath>
		<linearGradient x1="0" y1="1024" x2="1024" y2="0" id="color-ge595bpa" gradientUnits="userSpaceOnUse">
			<stop offset="0.2" stop-color="#000000"/>
			<stop offset="0.8" stop-color="#ffffff"/>
		</linearGradient>
		<radialGradient cx="0" cy="0" r="1448.15" id="color-mres1Z7J" gradientUnits="userSpaceOnUse">
			<stop offset="0.07" stop-color="#ffffff"/>
			<stop offset="0.75" stop-color="#000000"/>
		</radialGradient>
		<filter id="filter-DQVY3O70" x="0%" y="0%" width="100%" height="100%" color-interpolation-filters="sRGB">
			<feColorMatrix values="1 0 0 0 0 0 1 0 0 0 0 0 1 0 0 0 0 0 0.05 0" in="SourceGraphic"/>
			<feOffset dy="20"/>
			<feGaussianBlur stdDeviation="11" result="blur0"/>
			<feColorMatrix values="1 0 0 0 0 0 1 0 0 0 0 0 1 0 0 0 0 0 0.07 0" in="SourceGraphic"/>
			<feOffset dy="30"/>
			<feGaussianBlur stdDeviation="20" result="blur1"/>
			<feMerge>
				<feMergeNode in="blur0"/>
				<feMergeNode in="blur1"/>
			</feMerge>
		</filter>
		<filter id="filter-GeCQmHlP" color-interpolation-filters="sRGB">
			<feOffset/>
		</filter>
		<mask id="mask-6LQkCStb">
			<path d="M1015.47,298.67l-87.47,384h-74.67l-64,-260.27l-64,260.27h-74.66l-4.27,-18.35c-55.89,111.79 -171.52,189.01 -305.07,189.01c-188.59,0 -341.33,-152.74 -341.33,-341.33c0,-188.59 152.74,-341.33 341.33,-341.33c107.95,0 203.52,49.92 266.24,128h32.43l51.63,268.37l63.57,-268.37h68.27l64,268.37l51.2,-268.37zM520.53,682.67l-136.53,-384h-85.33l-136.54,384h81.07l29.87,-85.34h136.53l29.87,85.34zM341.33,384l49.07,155.73h-98.13z" fill="url(#color-mres1Z7J)"/>
		</mask>
		<mask id="mask-jXNt9DWa">
			<path d="M1015.47,298.67l-87.47,384h-74.67l-64,-260.27l-64,260.27h-74.66l-4.27,-18.35c-55.89,111.79 -171.52,189.01 -305.07,189.01c-188.59,0 -341.33,-152.74 -341.33,-341.33c0,-188.59 152.74,-341.33 341.33,-341.33c107.95,0 203.52,49.92 266.24,128h32.43l51.63,268.37l63.57,-268.37h68.27l64,268.37l51.2,-268.37zM520.53,682.67l-136.53,-384h-85.33l-136.54,384h81.07l29.87,-85.34h136.53l29.87,85.34zM341.33,384l49.07,155.73h-98.13z" fill="#ffffff"/>
		</mask>
		<mask id="mask-o6UKAiWo">
			<rect fill="url(#color-ge595bpa)" x="0" y="170.67" width="1015.47" height="682.66"/>
		</mask>
	</defs>
	<g fill="none" fill-rule="nonzero" style="mix-blend-mode: normal">
		<g mask="url(#mask-jXNt9DWa)">
			<g color="#ffc107" class="teamapps-color-2">
				<rect x="0" y="170.67" width="1015.47" height="682.66" fill="currentColor"/>
			</g>
			<g color="#e65100" class="teamapps-color-3" mask="url(#mask-o6UKAiWo)">
				<rect x="0" y="170.67" width="1015.47" height="682.66" fill="currentColor"/>
			</g>
		</g>
		<g filter="url(#filter-GeCQmHlP)" mask="url(#mask-6LQkCStb)">
			<g color="#fff59d" class="teamapps-color-1">
				<rect x="0" y="170.67" width="1015.47" height="682.66" fill="currentColor"/>
			</g>
		</g>
		<g clip-path="url(#clip-VzdyktdV)">
			<path d="M-93,896.33v-868.66h1201.47v868.66zM938.67,298.67l-51.2,268.37l-64,-268.37h-68.27l-63.57,268.37l-51.63,-268.37h-32.43c-62.72,-78.08 -158.29,-128 -266.24,-128c-188.59,0 -341.33,152.74 -341.33,341.33c0,188.59 152.74,341.33 341.33,341.33c133.55,0 249.18,-77.22 305.07,-189.01l4.27,18.35h74.66l64,-260.27l64,260.27h74.67l87.47,-384zM439.47,682.67l-29.87,-85.34h-136.53l-29.87,85.34h-81.07l136.54,-384h85.33l136.53,384zM292.27,539.73h98.13l-49.07,-155.73z" fill="#000000" filter="url(#filter-DQVY3O70)"/>
		</g>
	</g>
</svg>