<svg version="1.1" xmlns="http://www.w3.org/2000/svg" xmlns:xlink="http://www.w3.org/1999/xlink" viewBox="0,0,1024,1024">
	<!-- Color names: teamapps-color-1, teamapps-color-2, teamapps-color-3 -->
	<desc>wifi_tethering icon - Licensed under Apache License v2.0 (http://www.apache.org/licenses/LICENSE-2.0) - Created with Iconfu.com - Derivative work of Material icons (Copyright Google Inc.)</desc>
	<defs>
		<clipPath id="clip-Twga2gxA">
			<path d="M938.67,554.67c0,157.87 -85.77,295.25 -213.34,369.06l-42.66,-73.81c101.97,-59.31 170.66,-168.96 170.66,-295.25c0,-188.59 -152.74,-341.34 -341.33,-341.34c-188.59,0 -341.33,152.75 -341.33,341.34c0,126.29 68.69,235.94 170.24,295.25l-42.67,73.81c-127.15,-73.81 -212.91,-211.19 -212.91,-369.06c0,-235.52 191.15,-426.67 426.67,-426.67c235.52,0 426.67,191.15 426.67,426.67zM640,776.11l-42.67,-74.24c50.77,-29.87 85.34,-84.05 85.34,-147.2c0,-94.29 -76.38,-170.67 -170.67,-170.67c-94.29,0 -170.67,76.38 -170.67,170.67c0,63.15 34.57,117.33 85.34,147.2l-42.67,74.24c-76.37,-44.37 -128,-126.72 -128,-221.44c0,-141.23 114.77,-256 256,-256c141.23,0 256,114.77 256,256c0,94.72 -51.63,177.07 -128,221.44zM597.33,554.67c0,46.93 -38.4,85.33 -85.33,85.33c-46.93,0 -85.33,-38.4 -85.33,-85.33c0,-46.93 38.4,-85.34 85.33,-85.34c46.93,0 85.33,38.41 85.33,85.34z"/>
		</clipPath>
		<linearGradient x1="0" y1="1024" x2="1024" y2="0" id="color-mVQaUlfJ" gradientUnits="userSpaceOnUse">
			<stop offset="0.2" stop-color="#000000"/>
			<stop offset="0.8" stop-color="#ffffff"/>
		</linearGradient>
		<radialGradient cx="0" cy="0" r="1448.15" id="color-vjsEYMja" gradientUnits="userSpaceOnUse">
			<stop offset="0.07" stop-color="#ffffff"/>
			<stop offset="0.75" stop-color="#000000"/>
		</radialGradient>
		<filter id="filter-KGulLd2B" x="0%" y="0%" width="100%" height="100%" color-interpolation-filters="sRGB">
			<feColorMatrix values="1 0 0 0 0 0 1 0 0 0 0 0 1 0 0 0 0 0 0.05 0" in="SourceGraphic"/>
			<feOffset dy="20"/>
			<feGaussianBlur stdDeviation="11" result="blur0"/>
			<feColorMatrix values="1 0 0 0 0 0 1 0 0 0 0 0 1 0 0 0 0 0 0.07 0" in="SourceGraphic"/>
			<feOffset dy="30"/>
			<feGaussianBlur stdDeviation="20" result="blur1"/>
			<feMerge>
				<feMergeNode in="blur0"/>
				<feMergeNode in="blur1"/>
			</feMerge>
		</filter>
		<filter id="filter-O0wgJj9v" color-interpolation-filters="sRGB">
			<feOffset/>
		</filter>
		<mask id="mask-fSjMWDpq">
			<path d="M938.67,554.67c0,157.87 -85.77,295.25 -213.34,369.06l-42.66,-73.81c101.97,-59.31 170.66,-168.96 170.66,-295.25c0,-188.59 -152.74,-341.34 -341.33,-341.34c-188.59,0 -341.33,152.75 -341.33,341.34c0,126.29 68.69,235.94 170.24,295.25l-42.67,73.81c-127.15,-73.81 -212.91,-211.19 -212.91,-369.06c0,-235.52 191.15,-426.67 426.67,-426.67c235.52,0 426.67,191.15 426.67,426.67zM640,776.11l-42.67,-74.24c50.77,-29.87 85.34,-84.05 85.34,-147.2c0,-94.29 -76.38,-170.67 -170.67,-170.67c-94.29,0 -170.67,76.38 -170.67,170.67c0,63.15 34.57,117.33 85.34,147.2l-42.67,74.24c-76.37,-44.37 -128,-126.72 -128,-221.44c0,-141.23 114.77,-256 256,-256c141.23,0 256,114.77 256,256c0,94.72 -51.63,177.07 -128,221.44zM597.33,554.67c0,46.93 -38.4,85.33 -85.33,85.33c-46.93,0 -85.33,-38.4 -85.33,-85.33c0,-46.93 38.4,-85.34 85.33,-85.34c46.93,0 85.33,38.41 85.33,85.34z" fill="#ffffff"/>
		</mask>
		<mask id="mask-ijehP7l8">
			<rect fill="url(#color-mVQaUlfJ)" x="85.33" y="128" width="853.34" height="795.73"/>
		</mask>
		<mask id="mask-kuCdxFvv">
			<path d="M938.67,554.67c0,157.87 -85.77,295.25 -213.34,369.06l-42.66,-73.81c101.97,-59.31 170.66,-168.96 170.66,-295.25c0,-188.59 -152.74,-341.34 -341.33,-341.34c-188.59,0 -341.33,152.75 -341.33,341.34c0,126.29 68.69,235.94 170.24,295.25l-42.67,73.81c-127.15,-73.81 -212.91,-211.19 -212.91,-369.06c0,-235.52 191.15,-426.67 426.67,-426.67c235.52,0 426.67,191.15 426.67,426.67zM640,776.11l-42.67,-74.24c50.77,-29.87 85.34,-84.05 85.34,-147.2c0,-94.29 -76.38,-170.67 -170.67,-170.67c-94.29,0 -170.67,76.38 -170.67,170.67c0,63.15 34.57,117.33 85.34,147.2l-42.67,74.24c-76.37,-44.37 -128,-126.72 -128,-221.44c0,-141.23 114.77,-256 256,-256c141.23,0 256,114.77 256,256c0,94.72 -51.63,177.07 -128,221.44zM597.33,554.67c0,46.93 -38.4,85.33 -85.33,85.33c-46.93,0 -85.33,-38.4 -85.33,-85.33c0,-46.93 38.4,-85.34 85.33,-85.34c46.93,0 85.33,38.41 85.33,85.34z" fill="url(#color-vjsEYMja)"/>
		</mask>
	</defs>
	<g fill="none" fill-rule="nonzero" style="mix-blend-mode: normal">
		<g mask="url(#mask-fSjMWDpq)">
			<g color="#ffc107" class="teamapps-color-2">
				<rect x="85.33" y="128" width="853.34" height="795.73" fill="currentColor"/>
			</g>
			<g color="#e65100" class="teamapps-color-3" mask="url(#mask-ijehP7l8)">
				<rect x="85.33" y="128" width="853.34" height="795.73" fill="currentColor"/>
			</g>
		</g>
		<g filter="url(#filter-O0wgJj9v)" mask="url(#mask-kuCdxFvv)">
			<g color="#fff59d" class="teamapps-color-1">
				<rect x="85.33" y="128" width="853.34" height="795.73" fill="currentColor"/>
			</g>
		</g>
		<g clip-path="url(#clip-Twga2gxA)">
			<path d="M-7.67,966.73v-981.73h1039.34v981.73zM512,128c-235.52,0 -426.67,191.15 -426.67,426.67c0,157.87 85.76,295.25 212.91,369.06l42.67,-73.81c-101.55,-59.31 -170.24,-168.96 -170.24,-295.25c0,-188.59 152.74,-341.34 341.33,-341.34c188.59,0 341.33,152.75 341.33,341.34c0,126.29 -68.69,235.94 -170.66,295.25l42.66,73.81c127.57,-73.81 213.34,-211.19 213.34,-369.06c0,-235.52 -191.15,-426.67 -426.67,-426.67zM768,554.67c0,-141.23 -114.77,-256 -256,-256c-141.23,0 -256,114.77 -256,256c0,94.72 51.63,177.07 128,221.44l42.67,-74.24c-50.77,-29.87 -85.34,-84.05 -85.34,-147.2c0,-94.29 76.38,-170.67 170.67,-170.67c94.29,0 170.67,76.38 170.67,170.67c0,63.15 -34.57,117.33 -85.34,147.2l42.67,74.24c76.37,-44.37 128,-126.72 128,-221.44zM512,469.33c-46.93,0 -85.33,38.41 -85.33,85.34c0,46.93 38.4,85.33 85.33,85.33c46.93,0 85.33,-38.4 85.33,-85.33c0,-46.93 -38.4,-85.34 -85.33,-85.34z" fill="#000000" filter="url(#filter-KGulLd2B)"/>
		</g>
	</g>
</svg>