<svg version="1.1" xmlns="http://www.w3.org/2000/svg" xmlns:xlink="http://www.w3.org/1999/xlink" viewBox="0,0,1024,1024">
	<!-- Color names: teamapps-color-1, teamapps-color-2, teamapps-color-3 -->
	<desc>wifi_lock icon - Licensed under Apache License v2.0 (http://www.apache.org/licenses/LICENSE-2.0) - Created with Iconfu.com - Derivative work of Material icons (Copyright Google Inc.)</desc>
	<defs>
		<clipPath id="clip-bJ8zl4b2">
			<path d="M661.33,618.67v120.74l-149.33,199.26l-512,-682.67c142.51,-107.09 320,-170.67 512,-170.67c192,0 369.49,63.58 512,170.67l-114.77,152.75c-11.09,-1.71 -22.61,-3.42 -34.56,-3.42c-117.76,0 -213.34,95.58 -213.34,213.34zM1024,725.33v170.67c0,23.47 -19.2,42.67 -42.67,42.67h-213.33c-23.47,0 -42.67,-19.2 -42.67,-42.67v-170.67c0,-23.47 19.2,-42.66 42.67,-42.66v-64c0,-58.88 47.79,-106.67 106.67,-106.67c58.88,0 106.66,47.79 106.66,106.67v64c23.47,0 42.67,19.19 42.67,42.66zM938.67,618.67c0,-35.41 -28.59,-64 -64,-64c-35.41,0 -64,28.59 -64,64v64h128z"/>
		</clipPath>
		<radialGradient cx="0" cy="0" r="1448.15" id="color-87o7dUiz" gradientUnits="userSpaceOnUse">
			<stop offset="0.07" stop-color="#ffffff"/>
			<stop offset="0.75" stop-color="#000000"/>
		</radialGradient>
		<linearGradient x1="0" y1="1024" x2="1024" y2="0" id="color-Mz1WIaZb" gradientUnits="userSpaceOnUse">
			<stop offset="0.2" stop-color="#000000"/>
			<stop offset="0.8" stop-color="#ffffff"/>
		</linearGradient>
		<filter id="filter-DLttZb8e" x="0%" y="0%" width="100%" height="100%" color-interpolation-filters="sRGB">
			<feColorMatrix values="1 0 0 0 0 0 1 0 0 0 0 0 1 0 0 0 0 0 0.05 0" in="SourceGraphic"/>
			<feOffset dy="20"/>
			<feGaussianBlur stdDeviation="11" result="blur0"/>
			<feColorMatrix values="1 0 0 0 0 0 1 0 0 0 0 0 1 0 0 0 0 0 0.07 0" in="SourceGraphic"/>
			<feOffset dy="30"/>
			<feGaussianBlur stdDeviation="20" result="blur1"/>
			<feMerge>
				<feMergeNode in="blur0"/>
				<feMergeNode in="blur1"/>
			</feMerge>
		</filter>
		<filter id="filter-vIafAOZE" color-interpolation-filters="sRGB">
			<feOffset/>
		</filter>
		<mask id="mask-O6OaPAAT">
			<path d="M661.33,618.67v120.74l-149.33,199.26l-512,-682.67c142.51,-107.09 320,-170.67 512,-170.67c192,0 369.49,63.58 512,170.67l-114.77,152.75c-11.09,-1.71 -22.61,-3.42 -34.56,-3.42c-117.76,0 -213.34,95.58 -213.34,213.34zM1024,725.33v170.67c0,23.47 -19.2,42.67 -42.67,42.67h-213.33c-23.47,0 -42.67,-19.2 -42.67,-42.67v-170.67c0,-23.47 19.2,-42.66 42.67,-42.66v-64c0,-58.88 47.79,-106.67 106.67,-106.67c58.88,0 106.66,47.79 106.66,106.67v64c23.47,0 42.67,19.19 42.67,42.66zM938.67,618.67c0,-35.41 -28.59,-64 -64,-64c-35.41,0 -64,28.59 -64,64v64h128z" fill="url(#color-87o7dUiz)"/>
		</mask>
		<mask id="mask-rHfZznmn">
			<path d="M661.33,618.67v120.74l-149.33,199.26l-512,-682.67c142.51,-107.09 320,-170.67 512,-170.67c192,0 369.49,63.58 512,170.67l-114.77,152.75c-11.09,-1.71 -22.61,-3.42 -34.56,-3.42c-117.76,0 -213.34,95.58 -213.34,213.34zM1024,725.33v170.67c0,23.47 -19.2,42.67 -42.67,42.67h-213.33c-23.47,0 -42.67,-19.2 -42.67,-42.67v-170.67c0,-23.47 19.2,-42.66 42.67,-42.66v-64c0,-58.88 47.79,-106.67 106.67,-106.67c58.88,0 106.66,47.79 106.66,106.67v64c23.47,0 42.67,19.19 42.67,42.66zM938.67,618.67c0,-35.41 -28.59,-64 -64,-64c-35.41,0 -64,28.59 -64,64v64h128z" fill="#ffffff"/>
		</mask>
		<mask id="mask-VveyDQdY">
			<rect fill="url(#color-Mz1WIaZb)" x="0" y="85.33" width="1024" height="853.34"/>
		</mask>
	</defs>
	<g fill="none" fill-rule="nonzero" style="mix-blend-mode: normal">
		<g mask="url(#mask-rHfZznmn)">
			<g color="#ffc107" class="teamapps-color-2">
				<rect x="0" y="85.33" width="1024" height="853.34" fill="currentColor"/>
			</g>
			<g color="#e65100" class="teamapps-color-3" mask="url(#mask-VveyDQdY)">
				<rect x="0" y="85.33" width="1024" height="853.34" fill="currentColor"/>
			</g>
		</g>
		<g filter="url(#filter-vIafAOZE)" mask="url(#mask-O6OaPAAT)">
			<g color="#fff59d" class="teamapps-color-1">
				<rect x="0" y="85.33" width="1024" height="853.34" fill="currentColor"/>
			</g>
		</g>
		<g clip-path="url(#clip-bJ8zl4b2)">
			<path d="M-93,981.67v-1039.34h1210v1039.34zM874.67,405.33c11.95,0 23.47,1.71 34.56,3.42l114.77,-152.75c-142.51,-107.09 -320,-170.67 -512,-170.67c-192,0 -369.49,63.58 -512,170.67l512,682.67l149.33,-199.26v-120.74c0,-117.76 95.58,-213.34 213.34,-213.34zM981.33,682.67v-64c0,-58.88 -47.78,-106.67 -106.66,-106.67c-58.88,0 -106.67,47.79 -106.67,106.67v64c-23.47,0 -42.67,19.19 -42.67,42.66v170.67c0,23.47 19.2,42.67 42.67,42.67h213.33c23.47,0 42.67,-19.2 42.67,-42.67v-170.67c0,-23.47 -19.2,-42.66 -42.67,-42.66zM938.67,682.67h-128v-64c0,-35.41 28.59,-64 64,-64c35.41,0 64,28.59 64,64z" fill="#000000" filter="url(#filter-DLttZb8e)"/>
		</g>
	</g>
</svg>