<svg version="1.1" xmlns="http://www.w3.org/2000/svg" xmlns:xlink="http://www.w3.org/1999/xlink" viewBox="0,0,1024,1024">
	<!-- Color names: teamapps-color-1, teamapps-color-2, teamapps-color-3 -->
	<desc>youtube_searched_for icon - Licensed under Apache License v2.0 (http://www.apache.org/licenses/LICENSE-2.0) - Created with Iconfu.com - Derivative work of Material icons (Copyright Google Inc.)</desc>
	<defs>
		<clipPath id="clip-SAZJbdbh">
			<path d="M938.67,810.67l-63.58,63.14l-213.76,-212.9v-33.71l-11.52,-11.52c-48.64,41.81 -111.36,66.99 -180.05,66.99c-51.63,0 -99.41,-14.08 -140.8,-38.4l63.15,-63.15c23.89,10.24 49.92,16.21 77.65,16.21c105.81,0 192,-86.19 192,-192c0,-106.24 -86.19,-192 -192,-192c-105.81,0 -192,85.33 -192,192h148.91l-177.5,170.67l-163.84,-170.67h107.1c0,-149.33 124.16,-277.33 277.33,-277.33c153.17,0 277.33,124.16 277.33,277.33c0,69.12 -25.17,131.84 -66.98,180.48l11.52,11.52h34.13z"/>
		</clipPath>
		<linearGradient x1="0" y1="1024" x2="1024" y2="0" id="color-6r4l3KQj" gradientUnits="userSpaceOnUse">
			<stop offset="0.2" stop-color="#000000"/>
			<stop offset="0.8" stop-color="#ffffff"/>
		</linearGradient>
		<radialGradient cx="0" cy="0" r="1448.15" id="color-QQfrbUFC" gradientUnits="userSpaceOnUse">
			<stop offset="0.07" stop-color="#ffffff"/>
			<stop offset="0.75" stop-color="#000000"/>
		</radialGradient>
		<filter id="filter-CJmJGl6R" x="0%" y="0%" width="100%" height="100%" color-interpolation-filters="sRGB">
			<feColorMatrix values="1 0 0 0 0 0 1 0 0 0 0 0 1 0 0 0 0 0 0.05 0" in="SourceGraphic"/>
			<feOffset dy="20"/>
			<feGaussianBlur stdDeviation="11" result="blur0"/>
			<feColorMatrix values="1 0 0 0 0 0 1 0 0 0 0 0 1 0 0 0 0 0 0.07 0" in="SourceGraphic"/>
			<feOffset dy="30"/>
			<feGaussianBlur stdDeviation="20" result="blur1"/>
			<feMerge>
				<feMergeNode in="blur0"/>
				<feMergeNode in="blur1"/>
			</feMerge>
		</filter>
		<filter id="filter-ZzM5Js3Q" color-interpolation-filters="sRGB">
			<feOffset/>
		</filter>
		<mask id="mask-ADUdXrLE">
			<path d="M938.67,810.67l-63.58,63.14l-213.76,-212.9v-33.71l-11.52,-11.52c-48.64,41.81 -111.36,66.99 -180.05,66.99c-51.63,0 -99.41,-14.08 -140.8,-38.4l63.15,-63.15c23.89,10.24 49.92,16.21 77.65,16.21c105.81,0 192,-86.19 192,-192c0,-106.24 -86.19,-192 -192,-192c-105.81,0 -192,85.33 -192,192h148.91l-177.5,170.67l-163.84,-170.67h107.1c0,-149.33 124.16,-277.33 277.33,-277.33c153.17,0 277.33,124.16 277.33,277.33c0,69.12 -25.17,131.84 -66.98,180.48l11.52,11.52h34.13z" fill="#ffffff"/>
		</mask>
		<mask id="mask-f5RM8UrK">
			<rect fill="url(#color-6r4l3KQj)" x="85.33" y="128" width="853.34" height="745.81"/>
		</mask>
		<mask id="mask-xEMs2REk">
			<path d="M938.67,810.67l-63.58,63.14l-213.76,-212.9v-33.71l-11.52,-11.52c-48.64,41.81 -111.36,66.99 -180.05,66.99c-51.63,0 -99.41,-14.08 -140.8,-38.4l63.15,-63.15c23.89,10.24 49.92,16.21 77.65,16.21c105.81,0 192,-86.19 192,-192c0,-106.24 -86.19,-192 -192,-192c-105.81,0 -192,85.33 -192,192h148.91l-177.5,170.67l-163.84,-170.67h107.1c0,-149.33 124.16,-277.33 277.33,-277.33c153.17,0 277.33,124.16 277.33,277.33c0,69.12 -25.17,131.84 -66.98,180.48l11.52,11.52h34.13z" fill="url(#color-QQfrbUFC)"/>
		</mask>
	</defs>
	<g fill="none" fill-rule="nonzero" style="mix-blend-mode: normal">
		<g mask="url(#mask-ADUdXrLE)">
			<g color="#ffc107" class="teamapps-color-2">
				<rect x="85.33" y="128" width="853.34" height="745.81" fill="currentColor"/>
			</g>
			<g color="#e65100" class="teamapps-color-3" mask="url(#mask-f5RM8UrK)">
				<rect x="85.33" y="128" width="853.34" height="745.81" fill="currentColor"/>
			</g>
		</g>
		<g filter="url(#filter-ZzM5Js3Q)" mask="url(#mask-xEMs2REk)">
			<g color="#fff59d" class="teamapps-color-1">
				<rect x="85.33" y="128" width="853.34" height="745.81" fill="currentColor"/>
			</g>
		</g>
		<g clip-path="url(#clip-SAZJbdbh)">
			<path d="M-7.67,916.81v-931.81h1039.34v931.81zM725.76,597.33h-34.13l-11.52,-11.52c41.81,-48.64 66.98,-111.36 66.98,-180.48c0,-153.17 -124.16,-277.33 -277.33,-277.33c-153.17,0 -277.33,128 -277.33,277.33h-107.1l163.84,170.67l177.5,-170.67h-148.91c0,-106.67 86.19,-192 192,-192c105.81,0 192,85.76 192,192c0,105.81 -86.19,192 -192,192c-27.73,0 -53.76,-5.97 -77.65,-16.21l-63.15,63.15c41.39,24.32 89.17,38.4 140.8,38.4c68.69,0 131.41,-25.18 180.05,-66.99l11.52,11.52v33.71l213.76,212.9l63.58,-63.14z" fill="#000000" filter="url(#filter-CJmJGl6R)"/>
		</g>
	</g>
</svg>