<svg version="1.1" xmlns="http://www.w3.org/2000/svg" xmlns:xlink="http://www.w3.org/1999/xlink" viewBox="0,0,1024,1024">
	<!-- Color names: teamapps-color-1 -->
	<desc>add_a_photo icon - Licensed under Apache License v2.0 (http://www.apache.org/licenses/LICENSE-2.0) - Created with Iconfu.com - Derivative work of Material icons (Copyright Google Inc.)</desc>
	<g fill="none" fill-rule="nonzero" style="mix-blend-mode: normal">
		<g color="#039be5" class="teamapps-color-1">
			<path d="M399.36,150.19h262.83c17.24,0 33.69,7.24 45.33,19.96l50.44,55.13h91.96c75.23,0 136.53,61.3 136.53,136.53v450.56c0,75.22 -61.29,136.54 -136.53,136.54h-600.75c-75.24,0 -136.53,-61.32 -136.53,-136.54v-375.46c0,-6.55 1.02,-12.86 2.92,-18.77c-1.9,-5.92 -2.92,-12.23 -2.92,-18.77v-51.2h-51.2c-33.93,0 -61.44,-27.51 -61.44,-61.44v-75.09c0,-33.93 27.51,-61.44 61.44,-61.44h51.2v-51.2c0,-33.93 27.51,-61.44 61.44,-61.44h75.09c33.93,0 61.44,27.51 61.44,61.44v51.2h51.2c6.55,0 12.86,1.02 18.77,2.92c5.92,-1.9 12.23,-2.92 18.77,-2.92zM174.08,436.91v375.46c0,41.3 33.79,75.1 75.09,75.1h600.75c41.3,0 75.09,-33.8 75.09,-75.1v-450.56c0,-41.3 -33.79,-75.09 -75.09,-75.09h-119.02l-68.71,-75.09h-262.83v112.64h-112.64v112.64zM361.81,587.09c0,-103.63 84.11,-187.73 187.74,-187.73c103.63,0 187.73,84.1 187.73,187.73c0,103.63 -84.1,187.74 -187.73,187.74c-103.63,0 -187.74,-84.11 -187.74,-187.74zM61.44,211.63v75.09h112.64v112.64h75.09v-112.64h112.64v-75.09h-112.64v-112.64h-75.09v112.64zM429.39,587.09c0,66.46 53.7,120.16 120.16,120.16c66.46,0 120.15,-53.7 120.15,-120.16c0,-66.46 -53.69,-120.15 -120.15,-120.15c-66.46,0 -120.16,53.69 -120.16,120.15z" fill="currentColor"/>
		</g>
	</g>
</svg>