<svg version="1.1" xmlns="http://www.w3.org/2000/svg" xmlns:xlink="http://www.w3.org/1999/xlink" viewBox="0,0,1024,1024">
	<!-- Color names: teamapps-color-1 -->
	<desc>add_alarm icon - Licensed under Apache License v2.0 (http://www.apache.org/licenses/LICENSE-2.0) - Created with Iconfu.com - Derivative work of Material icons (Copyright Google Inc.)</desc>
	<g fill="none" fill-rule="nonzero" style="mix-blend-mode: normal">
		<g color="#039be5" class="teamapps-color-1">
			<path d="M911.36,549.55c0,220.54 -178.82,399.36 -399.36,399.36c-220.96,0 -399.36,-178.87 -399.36,-399.36c0,-59.42 12.98,-115.82 36.27,-166.5c-3.95,-2.87 -7.63,-6.26 -10.91,-10.16l-48.44,-57.45c-21.93,-26.01 -18.55,-64.89 7.54,-86.72l172.72,-144.56c26.03,-21.78 64.78,-18.34 86.56,7.69l48.06,57.45c3.47,4.14 6.29,8.61 8.49,13.28c31.68,-8.09 64.88,-12.39 99.08,-12.39c34.08,0 67.16,4.27 98.74,12.3c2.23,-4.71 5.09,-9.21 8.6,-13.37l48.44,-57.45c21.84,-25.9 60.51,-29.24 86.47,-7.46l172.72,144.93c26.04,21.85 29.39,60.68 7.48,86.67l-48.44,57.45c-3.25,3.86 -6.88,7.22 -10.79,10.07c23.2,50.61 36.14,106.91 36.14,166.23zM610.99,450.56h51.2c10.6,0 20.58,2.69 29.28,7.41c-19.28,-37.77 -50.13,-68.62 -87.9,-87.9c4.73,8.71 7.41,18.68 7.41,29.28zM662.19,648.53h-51.2v51.2c0,10.6 -2.69,20.58 -7.42,29.29c37.78,-19.28 68.63,-50.13 87.91,-87.9c-8.71,4.73 -18.68,7.42 -29.29,7.42zM413.01,699.73v-51.2h-51.2c-10.61,0 -20.58,-2.69 -29.29,-7.42c19.28,37.78 50.13,68.63 87.91,87.9c-4.73,-8.71 -7.42,-18.68 -7.42,-29.29zM361.81,450.56h51.2v-51.2c0,-10.6 2.69,-20.58 7.41,-29.28c-37.77,19.28 -68.62,50.13 -87.9,87.9c8.71,-4.73 18.68,-7.41 29.28,-7.41zM512,211.63c-186.6,0 -337.92,151.32 -337.92,337.92c0,186.6 150.94,337.92 337.92,337.92c186.6,0 337.92,-151.32 337.92,-337.92c0,-186.6 -151.32,-337.92 -337.92,-337.92zM512,812.37c-145.31,0 -262.83,-117.52 -262.83,-262.82c0,-145.31 117.52,-262.83 262.83,-262.83c145.31,0 262.83,117.52 262.83,262.83c0,145.31 -117.52,262.82 -262.83,262.82zM549.55,399.36h-75.1v112.64h-112.64v75.09h112.64v112.64h75.1v-112.64h112.64v-75.09h-112.64zM887.47,276.2l-172.72,-144.93l-48.44,57.45l172.72,144.93zM357.3,188.72l-48.06,-57.45l-172.72,144.56l48.44,57.45z" fill="currentColor"/>
		</g>
	</g>
</svg>