<svg version="1.1" xmlns="http://www.w3.org/2000/svg" xmlns:xlink="http://www.w3.org/1999/xlink" viewBox="0,0,1024,1024">
	<!-- Color names: teamapps-color-1 -->
	<desc>all_out icon - Licensed under Apache License v2.0 (http://www.apache.org/licenses/LICENSE-2.0) - Created with Iconfu.com - Derivative work of Material icons (Copyright Google Inc.)</desc>
	<g fill="none" fill-rule="nonzero" style="mix-blend-mode: normal">
		<g color="#039be5" class="teamapps-color-1">
			<path d="M208.3,428.23c-4.16,-0.77 -8.28,-1.98 -12.3,-3.65c-22.96,-9.51 -37.93,-31.91 -37.93,-56.76v-150.19c0,-33.93 27.51,-61.44 61.44,-61.44h150.18c24.85,0 47.25,14.97 56.76,37.93c1.66,4.02 2.88,8.14 3.65,12.31c58.58,-16.79 120.98,-16.79 179.55,0c0.77,-4.17 1.99,-8.29 3.65,-12.31c9.51,-22.96 31.91,-37.93 56.76,-37.93h150.18c33.93,0 61.44,27.51 61.44,61.44v150.19c0,24.85 -14.97,47.25 -37.93,56.76c-4.03,1.67 -8.17,2.89 -12.35,3.66c16.82,58.59 16.86,120.97 0.08,179.54c4.15,0.77 8.27,1.98 12.27,3.64c22.96,9.51 37.93,31.91 37.93,56.76v150.19c0,33.93 -27.51,61.44 -61.44,61.44h-150.18c-24.85,0 -47.25,-14.97 -56.76,-37.93c-1.66,-4.02 -2.88,-8.14 -3.65,-12.3c-58.58,16.79 -120.98,16.79 -179.56,0c-0.77,4.16 -1.98,8.28 -3.65,12.3c-9.51,22.96 -31.91,37.93 -56.76,37.93h-150.18c-33.93,0 -61.44,-27.51 -61.44,-61.44v-150.19c0,-24.85 14.97,-47.25 37.93,-56.76c4.01,-1.66 8.14,-2.87 12.3,-3.65c-16.78,-58.58 -16.78,-120.97 0,-179.55zM621,416.9c-55.98,-55.98 -146.25,-55.98 -202.23,0c-55.98,55.98 -55.98,146.24 0,202.22c55.98,55.98 146.25,55.98 202.23,0c55.98,-55.98 55.98,-146.24 0,-202.22zM705.74,332.15c-102.5,-102.5 -269.21,-102.5 -371.71,0c-102.5,102.5 -102.5,269.21 0,371.71c102.5,102.5 269.21,102.5 371.71,0c102.5,-102.5 102.5,-268.83 0,-371.71zM664.44,662.56c-79.97,79.97 -209.14,79.97 -289.12,0c-79.97,-79.97 -79.97,-209.13 0,-289.11c79.97,-79.97 209.14,-79.97 289.12,0c79.97,79.97 79.97,209.13 0,289.11zM369.7,818.38l-150.18,-150.19v150.19zM219.51,367.82l150.18,-150.19h-150.18zM670.07,217.63l150.18,150.19v-150.19zM820.26,668.19l-150.18,150.19h150.18z" fill="currentColor"/>
		</g>
	</g>
</svg>