<svg version="1.1" xmlns="http://www.w3.org/2000/svg" xmlns:xlink="http://www.w3.org/1999/xlink" viewBox="0,0,1024,1024">
	<!-- Color names: teamapps-color-1 -->
	<desc>art_track icon - Licensed under Apache License v2.0 (http://www.apache.org/licenses/LICENSE-2.0) - Created with Iconfu.com - Derivative work of Material icons (Copyright Google Inc.)</desc>
	<g fill="none" fill-rule="nonzero" style="mix-blend-mode: normal">
		<g color="#039be5" class="teamapps-color-1">
			<path d="M948.91,474.45v75.1c0,14.14 -4.78,27.16 -12.8,37.55c8.03,10.38 12.8,23.41 12.8,37.55v75.09c0,33.93 -27.51,61.44 -61.44,61.44h-300.38c-25.37,0 -47.15,-15.37 -56.52,-37.31c-24.47,23.12 -57.45,37.31 -93.66,37.31h-225.28c-75.22,0 -136.54,-61.29 -136.54,-136.53v-225.28c0,-75.24 61.32,-136.53 136.54,-136.53h225.28c36.21,0 69.19,14.2 93.66,37.31c9.38,-21.94 31.15,-37.31 56.52,-37.31h300.38c33.93,0 61.44,27.51 61.44,61.44v75.09c0,14.14 -4.78,27.16 -12.8,37.55c8.03,10.38 12.8,23.41 12.8,37.55zM436.91,324.27h-225.28c-41.3,0 -75.1,33.79 -75.1,75.09v225.28c0,41.3 33.8,75.09 75.1,75.09h225.28c41.3,0 75.09,-33.79 75.09,-75.09v-225.28c0,-41.3 -33.79,-75.09 -75.09,-75.09zM192.85,624.64l65.71,-84.48l46.93,56.7l65.71,-84.86l84.48,112.64zM887.47,324.27h-300.38v75.09h300.38zM887.47,474.45h-300.38v75.1h300.38zM587.09,699.73h300.38v-75.09h-300.38z" fill="currentColor"/>
		</g>
	</g>
</svg>