<svg version="1.1" xmlns="http://www.w3.org/2000/svg" xmlns:xlink="http://www.w3.org/1999/xlink" viewBox="0,0,1024,1024">
	<!-- Color names: teamapps-color-1 -->
	<desc>aspect_ratio icon - Licensed under Apache License v2.0 (http://www.apache.org/licenses/LICENSE-2.0) - Created with Iconfu.com - Derivative work of Material icons (Copyright Google Inc.)</desc>
	<g fill="none" fill-rule="nonzero" style="mix-blend-mode: normal">
		<g color="#039be5" class="teamapps-color-1">
			<path d="M986.45,249.17v525.66c0,75.23 -61.3,136.53 -136.53,136.53h-675.84c-75.23,0 -136.53,-61.3 -136.53,-136.53v-525.66c0,-75.23 61.3,-136.53 136.53,-136.53h675.84c75.23,0 136.53,61.3 136.53,136.53zM235.52,713.76h291.74c-1.05,-4.51 -1.61,-9.2 -1.61,-14.03v-75.09c0,-33.93 27.51,-61.44 61.44,-61.44h51.2v-51.2c0,-33.93 27.51,-61.44 61.44,-61.44h75.1c4.69,0 9.26,0.53 13.65,1.52v-141.84h-291.74c1.05,4.51 1.61,9.2 1.61,14.03v75.09c0,33.93 -27.51,61.44 -61.44,61.44h-51.2v51.2c0,33.93 -27.51,61.44 -61.44,61.44h-75.1c-4.69,0 -9.26,-0.53 -13.65,-1.52zM849.92,174.08h-675.84c-41.3,0 -75.09,33.79 -75.09,75.09v525.66c0,41.3 33.79,75.09 75.09,75.09h675.84c41.3,0 75.09,-33.79 75.09,-75.09v-525.66c0,-41.3 -33.79,-75.09 -75.09,-75.09zM849.92,775.2h-675.84v-526.4h675.84zM324.27,399.36h112.64v-75.09h-187.74v187.73h75.1zM774.83,512h-75.1v112.64h-112.64v75.09h187.74z" fill="currentColor"/>
		</g>
	</g>
</svg>