<svg version="1.1" xmlns="http://www.w3.org/2000/svg" xmlns:xlink="http://www.w3.org/1999/xlink" viewBox="0,0,1024,1024">
	<!-- Color names: teamapps-color-1 -->
	<desc>bluetooth_connected icon - Licensed under Apache License v2.0 (http://www.apache.org/licenses/LICENSE-2.0) - Created with Iconfu.com - Derivative work of Material icons (Copyright Google Inc.)</desc>
	<g fill="none" fill-rule="nonzero" style="mix-blend-mode: normal">
		<g color="#039be5" class="teamapps-color-1">
			<path d="M769.84,716.52l-214.39,214.39c-11.52,11.52 -27.15,18 -43.44,18h-37.55c-33.93,0 -61.44,-27.51 -61.44,-61.44v-136.65l-67.45,67.45c-23.99,23.99 -62.9,23.99 -86.89,0l-52.94,-52.94c-23.99,-23.99 -23.99,-62.9 0,-86.89l31.15,-31.15c-11.41,-2.32 -22.3,-7.91 -31.15,-16.76l-75.09,-75.09c-23.99,-23.99 -23.99,-62.9 0,-86.89l75.09,-75.09c8.85,-8.85 19.74,-14.44 31.15,-16.76l-31.15,-31.15c-23.99,-23.99 -23.99,-62.9 0,-86.89l52.94,-52.94c23.99,-23.99 62.9,-23.99 86.89,0l67.45,67.45v-136.65c0,-33.93 27.51,-61.44 61.44,-61.44h37.55c16.29,0 31.92,6.47 43.44,18l214.39,214.39c18.52,18.52 22.74,45.9 12.69,68.47c13.07,1.64 25.71,7.48 35.75,17.51l75.09,75.09c23.99,23.99 23.99,62.9 0,86.89l-75.09,75.09c-10.04,10.04 -22.68,15.87 -35.75,17.51c10.06,22.57 5.83,49.96 -12.69,68.47zM726.39,350.92l-214.39,-214.39h-37.55v284.98l-172.34,-172.34l-52.94,52.94l209.89,209.89l-209.89,209.89l52.94,52.94l172.34,-172.34v284.98h37.55l214.39,-214.39l-161.45,-161.08zM774.83,436.91l-75.1,75.09l75.1,75.09l75.09,-75.09zM324.27,512l-75.1,-75.09l-75.09,75.09l75.09,75.09zM549.55,280.34l70.58,70.58l-70.58,70.58zM620.13,673.08l-70.58,70.58v-141.17z" fill="currentColor"/>
		</g>
	</g>
</svg>