<svg version="1.1" xmlns="http://www.w3.org/2000/svg" xmlns:xlink="http://www.w3.org/1999/xlink" viewBox="0,0,1024,1024">
	<!-- Color names: teamapps-color-1 -->
	<desc>call_missed icon - Licensed under Apache License v2.0 (http://www.apache.org/licenses/LICENSE-2.0) - Created with Iconfu.com - Derivative work of Material icons (Copyright Google Inc.)</desc>
	<g fill="none" fill-rule="nonzero" style="mix-blend-mode: normal">
		<g color="#039be5" class="teamapps-color-1">
			<path d="M893.36,420.66l-337.92,337.92c-23.99,23.99 -62.9,23.99 -86.89,0l-157.94,-157.94v24.01c0,33.93 -27.51,61.44 -61.44,61.44h-75.09c-33.93,0 -61.44,-27.51 -61.44,-61.44v-300.37c0,-33.93 27.51,-61.44 61.44,-61.44h300.37c33.93,0 61.44,27.51 61.44,61.44v75.09c0,33.93 -27.51,61.44 -61.44,61.44h-24.01l61.56,61.56l241.53,-241.53c23.99,-23.99 62.9,-23.99 86.89,0l52.94,52.94c23.99,23.99 23.99,62.9 0,86.89zM796.98,324.27l-284.98,284.98l-209.89,-209.89h172.34v-75.09h-300.37v300.37h75.09v-172.34l262.83,262.83l337.92,-337.92z" fill="currentColor"/>
		</g>
	</g>
</svg>