<svg version="1.1" xmlns="http://www.w3.org/2000/svg" xmlns:xlink="http://www.w3.org/1999/xlink" viewBox="0,0,1024,1024">
	<!-- Color names: teamapps-color-1 -->
	<desc>call_missed_outgoing icon - Licensed under Apache License v2.0 (http://www.apache.org/licenses/LICENSE-2.0) - Created with Iconfu.com - Derivative work of Material icons (Copyright Google Inc.)</desc>
	<g fill="none" fill-rule="nonzero" style="mix-blend-mode: normal">
		<g color="#039be5" class="teamapps-color-1">
			<path d="M270.47,280.82l241.53,241.53l61.56,-61.56h-24.01c-33.93,0 -61.44,-27.51 -61.44,-61.44v-75.09c0,-33.93 27.51,-61.44 61.44,-61.44h300.37c33.93,0 61.44,27.51 61.44,61.44v300.37c0,33.93 -27.51,61.44 -61.44,61.44h-75.09c-33.93,0 -61.44,-27.51 -61.44,-61.44v-24.01l-157.94,157.94c-23.99,23.99 -62.9,23.99 -86.89,0l-337.92,-337.92c-23.99,-23.99 -23.99,-62.9 0,-86.89l52.94,-52.94c23.99,-23.99 62.9,-23.99 86.89,0zM174.08,377.21l337.92,337.92l262.83,-262.83v172.34h75.09v-300.37h-300.37v75.09h172.34l-209.89,209.89l-284.98,-284.98z" fill="currentColor"/>
		</g>
	</g>
</svg>