<svg version="1.1" xmlns="http://www.w3.org/2000/svg" xmlns:xlink="http://www.w3.org/1999/xlink" viewBox="0,0,1024,1024">
	<!-- Color names: teamapps-color-1 -->
	<desc>card_travel icon - Licensed under Apache License v2.0 (http://www.apache.org/licenses/LICENSE-2.0) - Created with Iconfu.com - Derivative work of Material icons (Copyright Google Inc.)</desc>
	<g fill="none" fill-rule="nonzero" style="mix-blend-mode: normal">
		<g color="#039be5" class="teamapps-color-1">
			<path d="M948.91,361.81v413.02c0,75.62 -60.94,136.53 -136.54,136.53h-600.74c-75.6,0 -136.54,-60.91 -136.54,-136.53v-413.02c0,-75.62 60.94,-136.53 136.54,-136.53h51.2v-13.65c0,-75.6 60.91,-136.54 136.53,-136.54h225.28c75.62,0 136.53,60.94 136.53,136.54v13.65h51.2c75.6,0 136.54,60.91 136.54,136.53zM699.73,498.35h-75.09c-33.93,0 -61.44,-27.51 -61.44,-61.44v-13.66h-102.4v13.66c0,33.93 -27.51,61.44 -61.44,61.44h-75.09c-21.37,0 -40.19,-10.91 -51.2,-27.47v54.77h477.86v-54.77c-11.01,16.55 -29.83,27.47 -51.2,27.47zM812.37,286.72h-112.64v-75.09c0,-41.68 -33.41,-75.1 -75.09,-75.1h-225.28c-41.68,0 -75.09,33.42 -75.09,75.1v75.09h-112.64c-41.68,0 -75.1,33.41 -75.1,75.09v413.02c0,41.68 33.42,75.09 75.1,75.09h600.74c41.68,0 75.1,-33.41 75.1,-75.09v-413.02c0,-41.68 -33.42,-75.09 -75.1,-75.09zM812.37,587.09h-600.74v-225.28h112.64v75.1h75.09v-75.1h225.28v75.1h75.09v-75.1h112.64zM812.37,774.83h-600.74v-75.1h600.74zM399.36,211.63h225.28v75.09h-225.28z" fill="currentColor"/>
		</g>
	</g>
</svg>