<svg version="1.1" xmlns="http://www.w3.org/2000/svg" xmlns:xlink="http://www.w3.org/1999/xlink" viewBox="0,0,1024,1024">
	<!-- Color names: teamapps-color-1 -->
	<desc>child_friendly icon - Licensed under Apache License v2.0 (http://www.apache.org/licenses/LICENSE-2.0) - Created with Iconfu.com - Derivative work of Material icons (Copyright Google Inc.)</desc>
	<g fill="none" fill-rule="nonzero" style="mix-blend-mode: normal">
		<g color="#039be5" class="teamapps-color-1">
			<path d="M892.59,756.05c0,106.4 -86.46,192.86 -192.86,192.86c-72.75,0 -136.18,-40.29 -168.96,-99.99c-32.78,59.7 -96.22,99.99 -168.96,99.99c-106.41,0 -192.85,-86.46 -192.85,-192.86c0,-51.43 20.14,-98.3 53.1,-132.9c-13.37,-27.75 -29.5,-62.04 -41.31,-87.26h-44.22c-33.93,0 -61.44,-27.51 -61.44,-61.44v-75.09c0,-33.93 27.51,-61.44 61.44,-61.44h131.04c23.72,0 45.32,13.65 55.5,35.08l19,40.01h146.04v-276.48c0,-33.93 27.51,-61.44 61.44,-61.44c199.89,0 361.81,161.93 361.81,361.82c0,6.55 -1.02,12.85 -2.92,18.77c1.9,5.92 2.92,12.22 2.92,18.77c0,65.37 -17.58,126.85 -48.08,179.77c18.45,29.41 29.31,64.29 29.31,101.83zM786.84,658.05c39.42,-50.69 63.08,-114.51 63.08,-183.6h-546.68l-35.67,-75.09h-131.04v75.09h83.35c0,0 70.97,152.82 79.6,165.96c-41.3,22.15 -69.09,65.7 -69.09,115.64c0,72.47 58.94,131.42 131.41,131.42c66.08,0 120.9,-48.81 129.91,-112.64h78.1c9.01,63.83 63.83,112.64 129.91,112.64c72.47,0 131.42,-58.95 131.42,-131.42c0,-39.05 -17.27,-73.96 -44.31,-98zM549.55,136.53v300.38h300.37c0,-165.96 -134.41,-300.38 -300.37,-300.38zM361.81,812.37c-31.16,0 -56.32,-25.16 -56.32,-56.32c0,-31.16 25.16,-56.32 56.32,-56.32c31.16,0 56.32,25.16 56.32,56.32c0,31.16 -25.16,56.32 -56.32,56.32zM699.73,812.37c-31.16,0 -56.32,-25.16 -56.32,-56.32c0,-31.16 25.16,-56.32 56.32,-56.32c31.16,0 56.32,25.16 56.32,56.32c0,31.16 -25.16,56.32 -56.32,56.32z" fill="currentColor"/>
		</g>
	</g>
</svg>