<svg version="1.1" xmlns="http://www.w3.org/2000/svg" xmlns:xlink="http://www.w3.org/1999/xlink" viewBox="0,0,1024,1024">
	<!-- Color names: teamapps-color-1 -->
	<desc>cloud_circle icon - Licensed under Apache License v2.0 (http://www.apache.org/licenses/LICENSE-2.0) - Created with Iconfu.com - Derivative work of Material icons (Copyright Google Inc.)</desc>
	<g fill="none" fill-rule="nonzero" style="mix-blend-mode: normal">
		<g color="#039be5" class="teamapps-color-1">
			<path d="M948.91,512c0,241.19 -195.72,436.91 -436.91,436.91c-241.19,0 -436.91,-195.72 -436.91,-436.91c0,-241.19 195.72,-436.91 436.91,-436.91c241.19,0 436.91,195.72 436.91,436.91zM713.39,568.32c0,-17.88 -14.55,-32.43 -32.43,-32.43h-18.77c-33.93,0 -61.44,-27.51 -61.44,-61.44c0,-49.04 -39.7,-88.74 -88.75,-88.74c-41.14,0 -75.55,28.04 -85.38,66.71c-7.32,28.8 -34.21,48.23 -63.85,46.15l-2.7,-0.19c-27.58,0.91 -49.45,23.36 -49.45,51.17c0,28.4 22.8,51.2 51.2,51.2h319.15c17.88,0 32.43,-14.55 32.43,-32.43zM512,136.53c-207.26,0 -375.47,168.21 -375.47,375.47c0,207.26 168.21,375.47 375.47,375.47c207.26,0 375.47,-168.21 375.47,-375.47c0,-207.26 -168.21,-375.47 -375.47,-375.47zM680.96,662.19h-319.15c-62.33,0 -112.64,-50.31 -112.64,-112.64c0,-62.33 50.31,-112.64 112.64,-112.64l5.26,0.37c16.52,-64.95 74.71,-113.01 144.93,-113.01c82.98,0 150.19,67.21 150.19,150.18h18.77c51.81,0 93.87,42.06 93.87,93.87c0,51.81 -42.06,93.87 -93.87,93.87z" fill="currentColor"/>
		</g>
	</g>
</svg>