<svg version="1.1" xmlns="http://www.w3.org/2000/svg" xmlns:xlink="http://www.w3.org/1999/xlink" viewBox="0,0,1024,1024">
	<!-- Color names: teamapps-color-1 -->
	<desc>contact_phone icon - Licensed under Apache License v2.0 (http://www.apache.org/licenses/LICENSE-2.0) - Created with Iconfu.com - Derivative work of Material icons (Copyright Google Inc.)</desc>
	<g fill="none" fill-rule="nonzero" style="mix-blend-mode: normal">
		<g color="#039be5" class="teamapps-color-1">
			<path d="M1023.62,774.87c-0.02,74.8 -60.52,136.49 -136.15,136.49h-750.94c-75.23,0 -136.53,-61.3 -136.53,-136.53v-525.66c0,-75.23 61.3,-136.53 136.53,-136.53h750.94c75.23,0 136.53,61.3 136.53,136.53zM361.81,644.78c-46.29,0 -97.03,15.07 -129.77,31.06h259.54c-32.74,-15.98 -83.48,-31.06 -129.77,-31.06zM310.61,399.36c0,28.4 22.8,51.2 51.2,51.2c28.4,0 51.2,-22.8 51.2,-51.2c0,-28.4 -22.8,-51.2 -51.2,-51.2c-28.4,0 -51.2,22.8 -51.2,51.2zM887.47,174.08h-750.94c-41.3,0 -75.09,33.79 -75.09,75.09v525.66c0,41.3 33.79,75.09 75.09,75.09h750.94c41.3,0 74.71,-33.79 74.71,-75.09l0.38,-525.66c0,-41.3 -33.79,-75.09 -75.09,-75.09zM731.65,587.09h61.57l56.7,75.1l-74.72,74.71c-49.18,-36.79 -85.61,-89.36 -102.5,-149.81c-6.76,-24.03 -10.51,-49.18 -10.51,-75.09c0,-25.91 3.75,-51.06 10.51,-75.09c16.9,-60.83 53.32,-113.02 102.5,-149.81l74.72,74.71l-56.7,75.1h-61.57c-8.26,23.65 -13.14,48.8 -13.14,75.09c0,26.29 4.88,51.44 13.14,75.09zM587.09,737.28h-450.56v-37.55c0,-75.09 150.19,-116.39 225.28,-116.39c75.09,0 225.28,41.3 225.28,116.39zM361.81,286.72c62.33,0 112.64,50.31 112.64,112.64c0,62.33 -50.31,112.64 -112.64,112.64c-62.33,0 -112.64,-50.31 -112.64,-112.64c0,-62.33 50.31,-112.64 112.64,-112.64z" fill="currentColor"/>
		</g>
	</g>
</svg>