<svg version="1.1" xmlns="http://www.w3.org/2000/svg" xmlns:xlink="http://www.w3.org/1999/xlink" viewBox="0,0,1024,1024">
	<!-- Color names: teamapps-color-1 -->
	<desc>crop_free icon - Licensed under Apache License v2.0 (http://www.apache.org/licenses/LICENSE-2.0) - Created with Iconfu.com - Derivative work of Material icons (Copyright Google Inc.)</desc>
	<g fill="none" fill-rule="nonzero" style="mix-blend-mode: normal">
		<g color="#039be5" class="teamapps-color-1">
			<path d="M249.17,112.64h150.19c33.93,0 61.44,27.51 61.44,61.44v75.09c0,33.93 -27.51,61.44 -61.44,61.44h-88.75v88.75c0,33.93 -27.51,61.44 -61.44,61.44h-75.09c-33.93,0 -61.44,-27.51 -61.44,-61.44v-150.19c0,-75.23 61.3,-136.53 136.53,-136.53zM399.36,713.39c33.93,0 61.44,27.51 61.44,61.44v75.09c0,33.93 -27.51,61.44 -61.44,61.44h-150.19c-75.23,0 -136.53,-61.3 -136.53,-136.53v-150.19c0,-33.93 27.51,-61.44 61.44,-61.44h75.09c33.93,0 61.44,27.51 61.44,61.44v88.75zM911.36,249.17v150.19c0,33.93 -27.51,61.44 -61.44,61.44h-75.09c-33.93,0 -61.44,-27.51 -61.44,-61.44v-88.75h-88.75c-33.93,0 -61.44,-27.51 -61.44,-61.44v-75.09c0,-33.93 27.51,-61.44 61.44,-61.44h150.19c75.23,0 136.53,61.3 136.53,136.53zM774.83,563.2h75.09c33.93,0 61.44,27.51 61.44,61.44v150.19c0,75.23 -61.3,136.53 -136.53,136.53h-150.19c-33.93,0 -61.44,-27.51 -61.44,-61.44v-75.09c0,-33.93 27.51,-61.44 61.44,-61.44h88.75v-88.75c0,-33.93 27.51,-61.44 61.44,-61.44zM174.08,249.17v150.19h75.09v-150.19h150.19v-75.09h-150.19c-41.3,0 -75.09,33.79 -75.09,75.09zM249.17,624.64h-75.09v150.19c0,41.3 33.79,75.09 75.09,75.09h150.19v-75.09h-150.19zM774.83,774.83h-150.19v75.09h150.19c41.3,0 75.09,-33.79 75.09,-75.09v-150.19h-75.09zM774.83,174.08h-150.19v75.09h150.19v150.19h75.09v-150.19c0,-41.3 -33.79,-75.09 -75.09,-75.09z" fill="currentColor"/>
		</g>
	</g>
</svg>