<svg version="1.1" xmlns="http://www.w3.org/2000/svg" xmlns:xlink="http://www.w3.org/1999/xlink" viewBox="0,0,1024,1024">
	<!-- Color names: teamapps-color-1 -->
	<desc>crop_original icon - Licensed under Apache License v2.0 (http://www.apache.org/licenses/LICENSE-2.0) - Created with Iconfu.com - Derivative work of Material icons (Copyright Google Inc.)</desc>
	<g fill="none" fill-rule="nonzero" style="mix-blend-mode: normal">
		<g color="#039be5" class="teamapps-color-1">
			<path d="M911.36,249.17v525.66c0,75.23 -61.3,136.53 -136.53,136.53h-525.66c-75.23,0 -136.53,-61.3 -136.53,-136.53v-525.66c0,-75.23 61.3,-136.53 136.53,-136.53h525.66c75.23,0 136.53,61.3 136.53,136.53zM310.61,310.61v282.58l49.67,-63.76c11.44,-14.68 28.91,-23.38 47.51,-23.67c18.6,-0.29 36.34,7.87 48.22,22.18l24.72,29.77l56.34,-72.52c11.74,-15.12 29.87,-23.9 49.01,-23.74c19.14,0.15 37.12,9.22 48.62,24.52l78.68,104.69v-280.05zM774.83,174.08h-525.66c-41.3,0 -75.09,33.79 -75.09,75.09v525.66c0,41.3 33.79,75.09 75.09,75.09h525.66c41.3,0 75.09,-33.79 75.09,-75.09v-525.66c0,-41.3 -33.79,-75.09 -75.09,-75.09zM774.83,774.83h-525.66v-525.66h525.66zM585.59,522.89l-103.26,132.92l-73.59,-88.61l-103.26,132.54h413.02z" fill="currentColor"/>
		</g>
	</g>
</svg>