<svg version="1.1" xmlns="http://www.w3.org/2000/svg" xmlns:xlink="http://www.w3.org/1999/xlink" viewBox="0,0,1024,1024">
	<!-- Color names: teamapps-color-1 -->
	<desc>crop_16_9 icon - Licensed under Apache License v2.0 (http://www.apache.org/licenses/LICENSE-2.0) - Created with Iconfu.com - Derivative work of Material icons (Copyright Google Inc.)</desc>
	<g fill="none" fill-rule="nonzero" style="mix-blend-mode: normal">
		<g color="#039be5" class="teamapps-color-1">
			<path d="M911.36,361.81v300.38c0,75.23 -61.3,136.53 -136.53,136.53h-525.66c-75.23,0 -136.53,-61.3 -136.53,-136.53v-300.38c0,-75.23 61.3,-136.53 136.53,-136.53h525.66c75.23,0 136.53,61.3 136.53,136.53zM310.61,423.25v177.5h402.78v-177.5zM774.83,286.72h-525.66c-41.3,0 -75.09,33.79 -75.09,75.09v300.38c0,41.3 33.79,75.09 75.09,75.09h525.66c41.3,0 75.09,-33.79 75.09,-75.09v-300.38c0,-41.3 -33.79,-75.09 -75.09,-75.09zM774.83,662.19h-525.66v-300.38h525.66z" fill="currentColor"/>
		</g>
	</g>
</svg>