<svg version="1.1" xmlns="http://www.w3.org/2000/svg" xmlns:xlink="http://www.w3.org/1999/xlink" viewBox="0,0,1024,1024">
	<!-- Color names: teamapps-color-1 -->
	<desc>euro_symbol icon - Licensed under Apache License v2.0 (http://www.apache.org/licenses/LICENSE-2.0) - Created with Iconfu.com - Derivative work of Material icons (Copyright Google Inc.)</desc>
	<g fill="none" fill-rule="nonzero" style="mix-blend-mode: normal">
		<g color="#039be5" class="teamapps-color-1">
			<path d="M826.41,653.54l66.84,66.46c25.02,24.88 23.99,65.66 -2.24,89.25c-70.53,63.43 -163.87,102.11 -266.36,102.11c-158.43,0 -294.5,-92.3 -359.15,-225.28h-91.41c-33.93,0 -61.44,-27.51 -61.44,-61.44v-75.09c0,-14.14 4.78,-27.17 12.81,-37.55c-8.03,-10.38 -12.81,-23.41 -12.81,-37.55v-75.09c0,-33.93 27.51,-61.44 61.44,-61.44h91.41c64.65,-132.98 200.73,-225.28 359.15,-225.28c102.08,0 195.81,38.66 266.36,102.11c26.18,23.54 27.26,64.23 2.36,89.13l-66.46,66.46c-22.72,22.72 -59.12,24.1 -83.49,3.15c-32.1,-27.59 -73.59,-44.09 -118.77,-44.09c-19.21,0 -37.76,2.99 -55.2,8.53h55.2c33.93,0 61.44,27.51 61.44,61.44v75.09c0,14.14 -4.78,27.17 -12.81,37.55c8.03,10.38 12.81,23.41 12.81,37.55v75.09c0,33.93 -27.51,61.44 -61.44,61.44h-55.35c17.45,5.54 36.04,8.53 55.35,8.53c45.55,0 86.57,-16.49 118.19,-43.92c24.31,-21.08 60.76,-19.84 83.58,2.85zM624.64,756.05c-94.24,0 -175.72,-53.31 -216.27,-131.41h216.27v-75.09h-241.05c-1.87,-12.39 -3,-24.78 -3,-37.55c0,-12.77 1.13,-25.16 3,-37.55h241.05v-75.09h-216.27c40.55,-78.1 122.4,-131.41 216.27,-131.41c60.45,0 116.02,22.15 158.82,58.94l66.46,-66.46c-59.7,-53.69 -138.93,-86.35 -225.28,-86.35c-147.18,0 -271.83,94.24 -318.39,225.28h-132.17v75.09h114.89c-1.5,12.39 -2.25,24.78 -2.25,37.55c0,12.77 0.75,25.16 2.25,37.55h-114.89v75.09h132.17c46.56,131.04 171.21,225.28 318.39,225.28c86.73,0 165.58,-32.67 225.28,-86.35l-66.84,-66.46c-42.42,36.79 -97.62,58.94 -158.44,58.94z" fill="currentColor"/>
		</g>
	</g>
</svg>