<svg version="1.1" xmlns="http://www.w3.org/2000/svg" xmlns:xlink="http://www.w3.org/1999/xlink" viewBox="0,0,1024,1024">
	<!-- Color names: teamapps-color-1 -->
	<desc>event_busy icon - Licensed under Apache License v2.0 (http://www.apache.org/licenses/LICENSE-2.0) - Created with Iconfu.com - Derivative work of Material icons (Copyright Google Inc.)</desc>
	<g fill="none" fill-rule="nonzero" style="mix-blend-mode: normal">
		<g color="#039be5" class="teamapps-color-1">
			<path d="M911.36,249.17v525.66c0,75.23 -61.3,136.53 -136.53,136.53h-525.66c-75.82,0 -136.53,-61.51 -136.53,-136.53l0.38,-525.69c0.01,-66.61 47.78,-123.09 112.26,-134.43v-15.72c0,-33.93 27.51,-61.44 61.44,-61.44h75.09c33.93,0 61.44,27.51 61.44,61.44v13.65h177.5v-13.65c0,-33.93 27.51,-61.44 61.44,-61.44h75.09c33.93,0 61.44,27.51 61.44,61.44v15.75c63.9,11.34 112.64,67.35 112.64,134.43zM310.61,423.25v43.24c2.04,-12.17 7.76,-23.84 17.15,-33.23l10.01,-10zM310.61,713.39h27.16l-10.01,-10c-9.39,-9.39 -15.11,-21.06 -17.15,-33.23zM713.39,713.39v-290.14h-45.93l10.01,10c24,23.99 24,62.9 0,86.89l-48.17,48.17l48.17,48.17c24,24 23.99,62.9 0,86.89l-10.01,10zM327.76,616.49l48.17,-48.17l-48.17,-48.17c-9.39,-9.39 -15.1,-21.06 -17.14,-33.23v162.8c2.04,-12.17 7.76,-23.84 17.14,-33.23zM502.61,441.63l18.38,-18.38h-36.76zM502.61,695.01l-18.38,18.38h36.76zM774.83,174.08h-37.55v-75.09h-75.09v75.09h-300.38v-75.09h-75.09v75.09h-37.55c-41.68,0 -74.71,33.79 -74.71,75.09l-0.38,525.66c0,41.3 33.41,75.09 75.09,75.09h525.66c41.3,0 75.09,-33.79 75.09,-75.09v-525.66c0,-41.3 -33.79,-75.09 -75.09,-75.09zM774.83,774.83h-525.66v-413.02h525.66zM411,699.73l91.61,-91.61l91.62,91.61l39.8,-39.79l-91.62,-91.62l91.62,-91.62l-39.8,-39.79l-91.62,91.61l-91.61,-91.61l-39.8,39.79l91.62,91.62l-91.62,91.62z" fill="currentColor"/>
		</g>
	</g>
</svg>