<svg version="1.1" xmlns="http://www.w3.org/2000/svg" xmlns:xlink="http://www.w3.org/1999/xlink" viewBox="0,0,1024,1024">
	<!-- Color names: teamapps-color-1 -->
	<desc>exposure_plus_2 icon - Licensed under Apache License v2.0 (http://www.apache.org/licenses/LICENSE-2.0) - Created with Iconfu.com - Derivative work of Material icons (Copyright Google Inc.)</desc>
	<g fill="none" fill-rule="nonzero" style="mix-blend-mode: normal">
		<g color="#039be5" class="teamapps-color-1">
			<path d="M948.91,673.08v64.2c0,33.93 -27.51,61.44 -61.44,61.44h-324.03c-33.93,0 -61.44,-27.51 -61.44,-61.44v-55.94c0,-15.37 5.76,-30.18 16.14,-41.51l156.66,-170.94c0.2,-0.22 0.4,-0.44 0.61,-0.65c11.89,-12.55 21.4,-24.03 28.88,-33.78c0.23,-0.29 0.45,-0.59 0.69,-0.88c6.7,-8.37 11.71,-16.17 15.48,-22.92c2.51,-4.49 3.96,-8.13 4.9,-11.27c0.91,-4.33 1.17,-7.16 1.17,-9.42c0,-3.36 -0.52,-6.83 -1.63,-10.61c-0.88,-2.26 -1.54,-3.24 -1.68,-3.45c-0.3,-0.32 -0.54,-0.48 -0.64,-0.54c-1.13,-0.36 -3.08,-0.56 -5.95,-0.56c-7.15,0 -10.62,1.25 -11.09,1.46l-3.54,1.98c-1.29,1.8 -2.38,3.87 -3.17,6.29c-1.13,3.97 -2.02,9.36 -2.26,16.8c-1.08,33.14 -28.25,59.44 -61.41,59.44h-63.24c1,4.39 1.52,8.96 1.52,13.65v75.1c0,33.93 -27.51,61.44 -61.44,61.44h-88.75v88.74c0,33.93 -27.51,61.44 -61.44,61.44h-75.09c-33.93,0 -61.44,-27.51 -61.44,-61.44v-88.74h-88.75c-33.93,0 -61.44,-27.51 -61.44,-61.44v-75.1c0,-33.93 27.51,-61.44 61.44,-61.44h88.75v-88.74c0,-33.93 27.51,-61.44 61.44,-61.44h75.09c33.93,0 61.44,27.51 61.44,61.44v88.74h71.63c-1.08,-4.76 -1.61,-9.72 -1.51,-14.82c0.5,-26.19 4.98,-52.08 14.55,-77.07c10.17,-26.73 25.34,-50.11 45.2,-70.05c20.17,-20.64 44.98,-36.43 72.53,-47.15c28.35,-11.02 59.33,-16.2 91.74,-16.2c29.13,0 56.87,3.64 82.97,11.83c0.58,0.18 1.15,0.37 1.73,0.57c23.7,8.22 47.7,20.4 68.2,38.97c20.03,17.77 35.04,39.49 45.13,64.15c10.14,24.78 14.71,51.21 14.71,78.08c0,20.89 -3.2,42.5 -10.28,63.75c-6.38,19.13 -15.02,37.7 -25.63,55.69c-10.24,17.38 -22.21,34.62 -36.22,51.69c-12.31,15 -26.19,31.38 -42.05,47.7l-10.68,11.47h82.2c33.93,0 61.44,27.51 61.44,61.44zM664.06,673.08l107.39,-115.27c14.26,-14.64 27.03,-29.66 39.05,-44.3c12.01,-14.64 22.16,-29.29 30.79,-43.93c8.63,-14.64 15.39,-29.29 20.28,-43.93c4.88,-14.64 7.13,-29.66 7.13,-44.31c0,-19.9 -3.38,-38.3 -10.14,-54.82c-6.76,-16.52 -16.52,-30.41 -29.29,-41.68c-12.77,-11.64 -28.91,-20.28 -47.31,-26.66c-19.15,-6.01 -40.54,-9.01 -64.57,-9.01c-25.91,0 -49.19,4.14 -69.47,12.02c-20.28,7.88 -37.54,19.14 -51.06,33.04c-13.9,13.9 -24.4,30.04 -31.54,48.81c-6.76,17.64 -10.14,36.42 -10.52,56.32h80.35c0.38,-11.64 1.87,-22.53 4.88,-32.67c3.38,-10.89 8.64,-20.28 15.02,-28.16c6.76,-7.88 15.39,-13.9 25.53,-18.4c10.14,-4.51 22.53,-6.76 36.04,-6.76c11.64,0 21.78,1.87 30.41,5.63c8.63,3.76 16.15,9.39 22.16,16.15c6.01,6.76 10.51,15.01 13.89,24.4c3,9.39 4.88,19.53 4.88,30.41c0,8.26 -1.13,16.15 -3,24.41c-2.25,8.26 -5.64,16.89 -10.89,26.28c-5.25,9.39 -12.01,19.91 -21.02,31.17c-8.63,11.26 -19.53,24.4 -33.04,38.67l-156.57,170.84v55.94h324.03v-64.2zM361.81,324.27h-75.09v150.18h-150.19v75.1h150.19v150.18h75.09v-150.18h150.19v-75.1h-150.19z" fill="currentColor"/>
		</g>
	</g>
</svg>