<svg version="1.1" xmlns="http://www.w3.org/2000/svg" xmlns:xlink="http://www.w3.org/1999/xlink" viewBox="0,0,1024,1024">
	<!-- Color names: teamapps-color-1 -->
	<desc>filter_frames icon - Licensed under Apache License v2.0 (http://www.apache.org/licenses/LICENSE-2.0) - Created with Iconfu.com - Derivative work of Material icons (Copyright Google Inc.)</desc>
	<g fill="none" fill-rule="nonzero" style="mix-blend-mode: normal">
		<g color="#039be5" class="teamapps-color-1">
			<path d="M948.91,286.72v525.65c0,75.23 -61.31,136.54 -136.54,136.54h-600.74c-75.23,0 -136.54,-61.31 -136.54,-136.54v-525.65c0,-75.24 61.32,-136.53 136.54,-136.53h124.73l132.19,-132.19c23.99,-23.99 62.9,-23.99 86.89,0l132.19,132.19h124.73c75.22,0 136.54,61.29 136.54,136.53zM513.26,242.2l-58.51,58.17h116.35zM812.37,211.63h-150.18l-150.19,-150.19l-150.19,150.19h-150.18c-41.3,0 -75.1,33.79 -75.1,75.09v525.65c0,41.3 33.8,75.1 75.1,75.1h600.74c41.3,0 75.1,-33.8 75.1,-75.1v-525.65c0,-41.3 -33.8,-75.09 -75.1,-75.09zM812.37,812.37h-600.74v-525.65h169.71l132.17,-131.41l130.66,131.41h168.2zM737.28,361.81h-450.56v375.47h450.56" fill="currentColor"/>
		</g>
	</g>
</svg>