<svg version="1.1" xmlns="http://www.w3.org/2000/svg" xmlns:xlink="http://www.w3.org/1999/xlink" viewBox="0,0,1024,1024">
	<!-- Color names: teamapps-color-1 -->
	<desc>flip icon - Licensed under Apache License v2.0 (http://www.apache.org/licenses/LICENSE-2.0) - Created with Iconfu.com - Derivative work of Material icons (Copyright Google Inc.)</desc>
	<g fill="none" fill-rule="nonzero" style="mix-blend-mode: normal">
		<g color="#039be5" class="teamapps-color-1">
			<path d="M249.17,112.64h150.19c4.69,0 9.26,0.53 13.65,1.52v-15.17c0,-33.93 27.51,-61.44 61.44,-61.44h75.1c33.93,0 61.44,27.51 61.44,61.44v15.17c4.39,-1 8.96,-1.52 13.65,-1.52h75.09c14.14,0 27.17,4.78 37.55,12.81c10.38,-8.03 23.41,-12.81 37.55,-12.81c75.23,0 136.53,61.3 136.53,136.53c0,14.14 -4.78,27.17 -12.81,37.55c8.03,10.38 12.81,23.41 12.81,37.55v75.09c0,14.14 -4.78,27.16 -12.8,37.55c8.03,10.38 12.8,23.41 12.8,37.55v75.1c0,14.14 -4.78,27.16 -12.8,37.55c8.03,10.38 12.8,23.41 12.8,37.55v75.09c0,14.14 -4.78,27.17 -12.81,37.55c8.03,10.38 12.81,23.41 12.81,37.55c0,75.23 -61.3,136.53 -136.53,136.53c-14.14,0 -27.17,-4.78 -37.55,-12.81c-10.38,8.03 -23.41,12.81 -37.55,12.81h-75.09c-4.69,0 -9.26,-0.53 -13.65,-1.52v15.17c0,33.93 -27.51,61.44 -61.44,61.44h-75.1c-33.93,0 -61.44,-27.51 -61.44,-61.44v-15.17c-4.39,1 -8.96,1.52 -13.65,1.52h-150.19c-75.23,0 -136.53,-61.3 -136.53,-136.53v-525.66c0,-75.23 61.3,-136.53 136.53,-136.53zM610.99,714.91c4.39,-1 8.96,-1.52 13.65,-1.52h75.09c5.42,0 10.67,0.7 15.68,2.02c-1.32,-5 -2.02,-10.26 -2.02,-15.68v-75.09c0,-14.14 4.78,-27.16 12.8,-37.55c-8.03,-10.38 -12.8,-23.41 -12.8,-37.55v-75.1c0,-14.14 4.78,-27.16 12.8,-37.55c-8.03,-10.38 -12.8,-23.41 -12.8,-37.55v-75.09c0,-5.42 0.7,-10.67 2.02,-15.68c-5,1.32 -10.26,2.02 -15.68,2.02h-75.09c-4.69,0 -9.26,-0.53 -13.65,-1.52zM399.36,310.61h-88.75v402.78h88.75c4.69,0 9.26,0.53 13.65,1.52v-405.82c-4.39,1 -8.96,1.52 -13.65,1.52zM174.08,249.17v525.66c0,41.3 33.79,75.09 75.09,75.09h150.19v-75.09h-150.19v-525.66h150.19v-75.09h-150.19c-41.3,0 -75.09,33.79 -75.09,75.09zM474.45,925.01h75.1v-826.02h-75.1zM774.83,399.36h75.09v-75.09h-75.09zM774.83,849.92c41.3,0 75.09,-33.79 75.09,-75.09h-75.09zM774.83,174.08v75.09h75.09c0,-41.3 -33.79,-75.09 -75.09,-75.09zM774.83,549.55h75.09v-75.1h-75.09zM624.64,849.92h75.09v-75.09h-75.09zM774.83,699.73h75.09v-75.09h-75.09zM624.64,249.17h75.09v-75.09h-75.09z" fill="currentColor"/>
		</g>
	</g>
</svg>