<svg version="1.1" xmlns="http://www.w3.org/2000/svg" xmlns:xlink="http://www.w3.org/1999/xlink" viewBox="0,0,1024,1024">
	<!-- Color names: teamapps-color-1 -->
	<desc>format_textdirection_r_to_l icon - Licensed under Apache License v2.0 (http://www.apache.org/licenses/LICENSE-2.0) - Created with Iconfu.com - Derivative work of Material icons (Copyright Google Inc.)</desc>
	<g fill="none" fill-rule="nonzero" style="mix-blend-mode: normal">
		<g color="#039be5" class="teamapps-color-1">
			<path d="M225.28,286.72c0,-116.91 94.72,-211.63 211.63,-211.63h300.37c33.93,0 61.44,27.51 61.44,61.44v75.1c0,33.93 -27.51,61.44 -61.44,61.44h-13.65v351.57c0,4.69 -0.53,9.26 -1.52,13.65h90.26c33.93,0 61.44,27.51 61.44,61.44v75.1c0,33.93 -27.51,61.44 -61.44,61.44h-389.12v51.2c0,24.85 -14.97,47.25 -37.93,56.76c-22.96,9.51 -49.39,4.25 -66.96,-13.32l-150.18,-150.19c-23.99,-23.99 -23.99,-62.89 0,-86.89l150.18,-150.19c15.1,-15.1 36.74,-21.11 57.11,-16.46v-37.89c-86.94,-26.32 -150.19,-107.03 -150.19,-202.57zM436.91,436.91v187.73h75.09v-413.01h75.09v413.01h75.1v-413.01h75.09v-75.1h-300.37c-82.98,0 -150.19,67.21 -150.19,150.19c0,82.98 67.21,150.19 150.19,150.19zM361.81,699.73v-112.64l-150.18,150.19l150.18,150.19v-112.64h450.56v-75.1z" fill="currentColor"/>
		</g>
	</g>
</svg>