<svg version="1.1" xmlns="http://www.w3.org/2000/svg" xmlns:xlink="http://www.w3.org/1999/xlink" viewBox="0,0,1024,1024">
	<!-- Color names: teamapps-color-1 -->
	<desc>group icon - Licensed under Apache License v2.0 (http://www.apache.org/licenses/LICENSE-2.0) - Created with Iconfu.com - Derivative work of Material icons (Copyright Google Inc.)</desc>
	<g fill="none" fill-rule="nonzero" style="mix-blend-mode: normal">
		<g color="#039be5" class="teamapps-color-1">
			<path d="M624.64,836.27h-525.65c-33.93,0 -61.44,-27.51 -61.44,-61.44v-93.87c0,-108.44 121.94,-158.93 219.69,-179.89c-42.23,-31.74 -69.51,-82.27 -69.51,-139.26c0,-96.26 77.82,-174.08 174.08,-174.08c64.3,0 120.01,34.64 150.05,86.15c30.19,-51.57 86.16,-86.15 150.33,-86.15c96.54,0 173.7,78.09 173.7,174.08c0,56.86 -27.08,107.45 -69.23,139.24c97.76,20.95 219.79,71.43 219.79,179.91v93.87c0,33.93 -27.51,61.44 -61.44,61.44h-225.28c-14.14,0 -27.16,-4.78 -37.55,-12.8c-10.38,8.03 -23.41,12.8 -37.55,12.8zM466.29,501.05c32.72,7.01 68.17,17.33 100.84,32.03c2.22,-7.1 5.66,-13.59 10.05,-19.26c-27.07,-15.15 -49.67,-37.33 -65.32,-64.07c-11.66,19.99 -27.18,37.44 -45.57,51.31zM361.81,549.55c-87.48,0 -262.82,43.93 -262.82,131.41v93.87h525.65v-93.87c0,-87.48 -175.35,-131.41 -262.83,-131.41zM662.19,549.55c-10.89,0 -23.28,0.75 -36.42,1.87c43.55,31.54 73.96,73.96 73.96,129.54v93.87h225.28v-93.87c0,-87.48 -175.34,-131.41 -262.82,-131.41zM662.19,474.45c62.33,0 112.26,-50.31 112.26,-112.64c0,-62.33 -49.93,-112.64 -112.26,-112.64c-62.33,0 -112.64,50.31 -112.64,112.64c0,62.33 50.31,112.64 112.64,112.64zM361.81,474.45c62.33,0 112.27,-50.31 112.27,-112.64c0,-62.33 -49.94,-112.64 -112.27,-112.64c-62.33,0 -112.64,50.31 -112.64,112.64c0,62.33 50.31,112.64 112.64,112.64z" fill="currentColor"/>
		</g>
	</g>
</svg>