<svg version="1.1" xmlns="http://www.w3.org/2000/svg" xmlns:xlink="http://www.w3.org/1999/xlink" viewBox="0,0,1024,1024">
	<!-- Color names: teamapps-color-1 -->
	<desc>layers_clear icon - Licensed under Apache License v2.0 (http://www.apache.org/licenses/LICENSE-2.0) - Created with Iconfu.com - Derivative work of Material icons (Copyright Google Inc.)</desc>
	<g fill="none" fill-rule="nonzero" style="mix-blend-mode: normal">
		<g color="#039be5" class="teamapps-color-1">
			<path d="M930.91,845.68l-47.69,47.69c-23.99,23.99 -62.9,23.99 -86.89,0l-103.57,-103.57l-143.04,111.26c-22.19,17.26 -53.25,17.26 -75.44,0l-337.92,-262.83c-14.99,-11.66 -23.75,-29.6 -23.72,-48.59c0.03,-18.99 8.84,-36.9 23.87,-48.52l60.06,-46.43l-60.21,-46.83c-14.96,-11.63 -23.71,-29.52 -23.72,-48.47c-0.01,-18.95 8.72,-36.84 23.67,-48.49l66.07,-51.5l-109.29,-109.29c-24,-24 -23.99,-62.9 0,-86.89l47.69,-47.68c23.99,-23.99 62.89,-23.99 86.89,0l127.43,127.43c2.89,-3.55 6.18,-6.79 9.85,-9.65l109.26,-85.24c22.19,-17.31 53.3,-17.33 75.51,-0.05l337.92,262.83c14.98,11.65 23.74,29.58 23.72,48.56c-0.02,18.98 -8.81,36.89 -23.82,48.51l-52.38,40.56c1.56,1.28 3.06,2.64 4.51,4.09l53.69,53.69c12.48,12.48 18.99,29.73 17.87,47.35c-1.12,17.62 -9.77,33.9 -23.74,44.7l-43.45,33.59l86.87,86.87c23.99,23.99 23.99,62.9 0,86.89zM184.22,98.99l-47.69,47.68l158.45,158.45l-120.9,94.24l61.2,47.69l276.72,215.14l78.85,-61.2l53.69,53.69l-132.54,102.88l-276.72,-215.14l-61.2,47.31l337.92,262.83l185.86,-144.56l141.93,141.93l47.69,-47.69zM788.35,447.05l61.57,-47.69l-337.92,-262.83l-109.26,85.24l295.5,295.86zM805.24,624.26l44.68,-34.54l-53.69,-53.69l-44.69,34.54z" fill="currentColor"/>
		</g>
	</g>
</svg>