<svg version="1.1" xmlns="http://www.w3.org/2000/svg" xmlns:xlink="http://www.w3.org/1999/xlink" viewBox="0,0,1024,1024">
	<!-- Color names: teamapps-color-1 -->
	<desc>linked_camera icon - Licensed under Apache License v2.0 (http://www.apache.org/licenses/LICENSE-2.0) - Created with Iconfu.com - Derivative work of Material icons (Copyright Google Inc.)</desc>
	<g fill="none" fill-rule="nonzero" style="mix-blend-mode: normal">
		<g color="#039be5" class="teamapps-color-1">
			<path d="M948.91,399.36v413.01c0,75.23 -61.31,136.54 -136.54,136.54h-600.74c-75.23,0 -136.54,-61.31 -136.54,-136.54v-450.56c0,-75.24 61.32,-136.53 136.54,-136.53h91.96l50.44,-55.13c11.64,-12.72 28.09,-19.96 45.33,-19.96h201.39v-13.66c0,-33.93 27.51,-61.44 61.44,-61.44c158.21,0 286.72,128.51 286.72,286.72c0,6.55 -1.02,12.86 -2.92,18.77c1.9,5.92 2.92,12.23 2.92,18.77zM512,707.25c66.36,0 120.15,-53.79 120.15,-120.16c0,-66.36 -53.79,-120.15 -120.15,-120.15c-66.36,0 -120.15,53.79 -120.15,120.15c0,66.36 53.79,120.16 120.15,120.16zM662.19,186.47c96.87,0 175.34,78.47 175.34,175.34h49.94c0,-124.28 -101,-225.28 -225.28,-225.28zM662.19,286.72c41.68,0 75.09,33.41 75.09,75.09h49.94c0,-69.09 -55.94,-125.03 -125.03,-125.03zM699.73,399.36c0,-41.68 -33.41,-75.09 -75.09,-75.09v-112.64h-225.28l-68.71,75.09h-119.02c-41.3,0 -75.1,33.79 -75.1,75.09v450.56c0,41.3 33.8,75.1 75.1,75.1h600.74c41.3,0 75.1,-33.8 75.1,-75.1v-413.01zM512,774.83c-103.63,0 -187.73,-84.11 -187.73,-187.74c0,-103.63 84.1,-187.73 187.73,-187.73c103.63,0 187.73,84.1 187.73,187.73c0,103.63 -84.1,187.74 -187.73,187.74z" fill="currentColor"/>
		</g>
	</g>
</svg>