<svg version="1.1" xmlns="http://www.w3.org/2000/svg" xmlns:xlink="http://www.w3.org/1999/xlink" viewBox="0,0,1024,1024">
	<!-- Color names: teamapps-color-1 -->
	<desc>local_florist icon - Licensed under Apache License v2.0 (http://www.apache.org/licenses/LICENSE-2.0) - Created with Iconfu.com - Derivative work of Material icons (Copyright Google Inc.)</desc>
	<g fill="none" fill-rule="nonzero" style="mix-blend-mode: normal">
		<g color="#039be5" class="teamapps-color-1">
			<path d="M210.26,277.33c0,-85.75 69.57,-155.3 155.31,-155.3c2.71,0 5.4,0.07 8.09,0.2c25.72,-50.27 78.02,-84.68 138.34,-84.68c60.33,0 112.62,34.41 138.34,84.69c2.68,-0.14 5.38,-0.21 8.09,-0.21c85.74,0 155.31,69.55 155.31,155.3c0,31.4 -9.34,60.34 -25.15,84.48c15.81,24.14 25.15,53.08 25.15,84.48c0,15.3 -2.22,30.09 -6.34,44.06c13.97,-1.48 28.16,-2.24 42.52,-2.24c33.93,0 61.44,27.51 61.44,61.44c0,220.54 -178.82,399.36 -399.36,399.36h0c-220.54,0 -399.36,-178.82 -399.36,-399.36c0,-33.93 27.51,-61.44 61.44,-61.44c14.36,0 28.55,0.76 42.52,2.24c-4.13,-13.97 -6.34,-28.75 -6.34,-44.06c0,-31.4 9.34,-60.34 25.15,-84.48c-15.81,-24.14 -25.15,-53.08 -25.15,-84.48zM479.57,361.81c0,17.88 14.55,32.43 32.43,32.43c17.88,0 32.43,-14.55 32.43,-32.43c0,-17.87 -14.54,-32.42 -32.43,-32.42c-17.89,0 -32.43,14.55 -32.43,32.42zM271.7,446.29c0,51.81 42.06,93.87 93.87,93.87c19.9,0 37.93,-6 53.32,-16.52l-0.76,7.13c0,51.81 42.06,93.87 93.87,93.87c51.81,0 93.87,-42.06 93.87,-93.87l-0.76,-7.13c15.02,10.52 33.42,16.52 53.32,16.52c51.81,0 93.87,-42.06 93.87,-93.87c0,-37.55 -22.16,-69.46 -53.7,-84.48c31.54,-15.02 53.7,-46.93 53.7,-84.48c0,-51.81 -42.06,-93.86 -93.87,-93.86c-19.9,0 -37.93,6 -53.32,16.52l0.76,-7.14c0,-51.81 -42.06,-93.86 -93.87,-93.86c-51.81,0 -93.87,42.05 -93.87,93.86l0.76,7.14c-15.02,-10.52 -33.42,-16.52 -53.32,-16.52c-51.81,0 -93.87,42.05 -93.87,93.86c0,37.55 22.16,69.46 53.7,84.48c-31.54,15.02 -53.7,46.93 -53.7,84.48zM512,887.47c0,-186.6 -151.32,-337.92 -337.92,-337.92c0,186.6 151.32,337.92 337.92,337.92c186.6,0 337.92,-151.32 337.92,-337.92c-186.6,0 -337.92,151.32 -337.92,337.92zM512,267.95c51.81,0 93.87,42.05 93.87,93.86c0,51.81 -42.06,93.87 -93.87,93.87c-51.81,0 -93.87,-42.06 -93.87,-93.87c0,-51.81 42.06,-93.86 93.87,-93.86z" fill="currentColor"/>
		</g>
	</g>
</svg>