<svg version="1.1" xmlns="http://www.w3.org/2000/svg" xmlns:xlink="http://www.w3.org/1999/xlink" viewBox="0,0,1024,1024">
	<!-- Color names: teamapps-color-1 -->
	<desc>local_shipping icon - Licensed under Apache License v2.0 (http://www.apache.org/licenses/LICENSE-2.0) - Created with Iconfu.com - Derivative work of Material icons (Copyright Google Inc.)</desc>
	<g fill="none" fill-rule="nonzero" style="mix-blend-mode: normal">
		<g color="#039be5" class="teamapps-color-1">
			<path d="M986.45,512v187.73c0,33.93 -27.51,61.44 -61.44,61.44h-24.78c-24.8,65.89 -88.33,112.64 -162.95,112.64c-74.62,0 -138.15,-46.75 -162.95,-112.64h-124.66c-24.8,65.89 -88.33,112.64 -162.95,112.64c-74.62,0 -138.15,-46.75 -162.95,-112.64h-24.78c-33.93,0 -61.44,-27.51 -61.44,-61.44v-413.01c0,-75.23 61.3,-136.53 136.53,-136.53h525.65c33.93,0 61.44,27.51 61.44,61.44v88.74h51.2c19.34,0 37.55,9.11 49.15,24.58l112.64,150.19c7.98,10.63 12.29,23.57 12.29,36.86zM812.37,361.81h-112.64v-150.18h-525.65c-41.3,0 -75.09,33.79 -75.09,75.09v413.01h75.09c0,62.33 50.31,112.64 112.64,112.64c62.33,0 112.64,-50.31 112.64,-112.64h225.28c0,62.33 50.31,112.64 112.64,112.64c62.33,0 112.64,-50.31 112.64,-112.64h75.09v-187.73zM793.6,418.13l73.59,93.87h-167.46v-93.87zM286.72,756.05c-31.16,0 -56.32,-25.16 -56.32,-56.32c0,-31.16 25.16,-56.32 56.32,-56.32c31.16,0 56.32,25.16 56.32,56.32c0,31.16 -25.16,56.32 -56.32,56.32zM737.28,756.05c-31.16,0 -56.32,-25.16 -56.32,-56.32c0,-31.16 25.16,-56.32 56.32,-56.32c31.16,0 56.32,25.16 56.32,56.32c0,31.16 -25.16,56.32 -56.32,56.32z" fill="currentColor"/>
		</g>
	</g>
</svg>