<svg version="1.1" xmlns="http://www.w3.org/2000/svg" xmlns:xlink="http://www.w3.org/1999/xlink" viewBox="0,0,1024,1024">
	<!-- Color names: teamapps-color-1 -->
	<desc>markunread_mailbox icon - Licensed under Apache License v2.0 (http://www.apache.org/licenses/LICENSE-2.0) - Created with Iconfu.com - Derivative work of Material icons (Copyright Google Inc.)</desc>
	<g fill="none" fill-rule="nonzero" style="mix-blend-mode: normal">
		<g color="#039be5" class="teamapps-color-1">
			<path d="M948.91,361.81v450.56c0,75.23 -61.31,136.54 -136.54,136.54h-600.74c-75.23,0 -136.54,-61.31 -136.54,-136.54v-450.56c0,-75.24 61.32,-136.53 136.54,-136.53h13.65v-163.84c0,-33.93 27.51,-61.44 61.44,-61.44h300.37c33.93,0 61.44,27.51 61.44,61.44v150.19c0,4.69 -0.53,9.26 -1.52,13.65h165.36c75.22,0 136.54,61.29 136.54,136.53zM812.37,286.72h-375.46v225.28h-75.1v-300.37h225.28v-150.19h-300.37v225.28h-75.09c-41.3,0 -75.1,33.79 -75.1,75.09v450.56c0,41.3 33.8,75.1 75.1,75.1h600.74c41.3,0 75.1,-33.8 75.1,-75.1v-450.56c0,-41.3 -33.8,-75.09 -75.1,-75.09z" fill="currentColor"/>
		</g>
	</g>
</svg>