<svg version="1.1" xmlns="http://www.w3.org/2000/svg" xmlns:xlink="http://www.w3.org/1999/xlink" viewBox="0,0,1024,1024">
	<!-- Color names: teamapps-color-1 -->
	<desc>mic_off icon - Licensed under Apache License v2.0 (http://www.apache.org/licenses/LICENSE-2.0) - Created with Iconfu.com - Derivative work of Material icons (Copyright Google Inc.)</desc>
	<g fill="none" fill-rule="nonzero" style="mix-blend-mode: normal">
		<g color="#039be5" class="teamapps-color-1">
			<path d="M893.36,845.68l-47.69,47.69c-23.97,23.97 -62.84,24 -86.84,0.05l-126.31,-126.02c-7.05,2.86 -14.23,5.49 -21.54,7.87v74.65c0,33.93 -27.51,61.44 -61.44,61.44h-75.1c-33.93,0 -61.44,-27.51 -61.44,-61.44v-74.77c-126.12,-41.13 -225.28,-158.27 -225.28,-300.7c0,-33.93 27.51,-61.44 61.44,-61.44h29.27l-147.8,-147.8c-23.99,-23.99 -23.99,-62.9 0,-86.89l47.69,-47.69c23.99,-23.99 62.9,-23.99 86.89,0l77.55,77.55c18.39,-76.43 87.1,-133.09 169.24,-133.09c96.26,0 174.08,77.82 174.08,174.08v169.1c7.61,-3.38 16.05,-5.26 24.91,-5.26h63.84c33.93,0 61.44,27.51 61.44,61.44c0,56.66 -16.24,108.75 -41.89,153.64c-3.8,6.65 -8.76,12.45 -14.55,17.16l113.54,113.54c23.99,23.99 23.99,62.9 0,86.89zM221.77,174.08l-47.69,47.69l225.66,225.65v27.03c0,62.33 49.93,112.64 112.26,112.64c8.26,0 16.52,-1.13 24.4,-3l62.33,62.33c-26.66,12.39 -56.32,19.52 -86.73,19.52c-103.63,0 -198.99,-78.85 -198.99,-191.49h-63.84c0,128.03 102.12,233.91 225.28,252.31v123.16h75.1v-123.16c34.17,-4.88 66.46,-16.9 95.37,-33.79l157.32,156.95l47.69,-47.69zM623.89,480.84c0,-2.25 0.75,-4.14 0.75,-6.39v-225.28c0,-62.33 -50.31,-112.64 -112.64,-112.64c-62.33,0 -112.64,50.31 -112.64,112.64v6.76zM774.83,474.45h-63.84c0,27.78 -6,53.7 -16.14,76.97l46.18,46.18c21.02,-36.79 33.79,-78.48 33.79,-123.16z" fill="currentColor"/>
		</g>
	</g>
</svg>