<svg version="1.1" xmlns="http://www.w3.org/2000/svg" xmlns:xlink="http://www.w3.org/1999/xlink" viewBox="0,0,1024,1024">
	<!-- Color names: teamapps-color-1 -->
	<desc>music_video icon - Licensed under Apache License v2.0 (http://www.apache.org/licenses/LICENSE-2.0) - Created with Iconfu.com - Derivative work of Material icons (Copyright Google Inc.)</desc>
	<g fill="none" fill-rule="nonzero" style="mix-blend-mode: normal">
		<g color="#039be5" class="teamapps-color-1">
			<path d="M986.45,249.17v525.66c0,75.23 -61.3,136.53 -136.53,136.53h-675.84c-75.23,0 -136.53,-61.3 -136.53,-136.53v-525.66c0,-75.23 61.3,-136.53 136.53,-136.53h675.84c75.23,0 136.53,61.3 136.53,136.53zM235.52,310.61v402.78h89.08c-15.4,-25.98 -24.23,-56.32 -24.23,-88.75c0,-88.16 65.26,-160.84 150.19,-172.46v-141.57zM788.48,713.39v-402.78h-27.31v51.2c0,33.93 -27.51,61.44 -61.44,61.44h-51.2l0,203.26c-0.38,31.66 -9.21,61.35 -24.36,86.88zM849.92,174.08h-675.84c-41.3,0 -75.09,33.79 -75.09,75.09v525.66c0,41.3 33.79,75.09 75.09,75.09h675.84c41.3,0 75.09,-33.79 75.09,-75.09v-525.66c0,-41.3 -33.79,-75.09 -75.09,-75.09zM849.92,774.83h-675.84v-525.66h675.84zM474.45,737.28c61.95,0 111.89,-49.94 112.64,-111.51v-263.96h112.64v-75.09h-187.73v232.04c-11.64,-4.13 -24.41,-6.76 -37.55,-6.76c-62.33,0 -112.64,50.31 -112.64,112.64c0,62.33 50.31,112.64 112.64,112.64z" fill="currentColor"/>
		</g>
	</g>
</svg>