<svg version="1.1" xmlns="http://www.w3.org/2000/svg" xmlns:xlink="http://www.w3.org/1999/xlink" viewBox="0,0,1024,1024">
	<!-- Color names: teamapps-color-1 -->
	<desc>offline_pin icon - Licensed under Apache License v2.0 (http://www.apache.org/licenses/LICENSE-2.0) - Created with Iconfu.com - Derivative work of Material icons (Copyright Google Inc.)</desc>
	<g fill="none" fill-rule="nonzero" style="mix-blend-mode: normal">
		<g color="#039be5" class="teamapps-color-1">
			<path d="M948.91,512c0,240.44 -196.47,436.91 -436.91,436.91c-240.44,0 -436.91,-196.47 -436.91,-436.91c0,-240.44 196.47,-436.91 436.91,-436.91c240.44,0 436.91,196.47 436.91,436.91zM512,136.53c-206.51,0 -375.47,168.96 -375.47,375.47c0,206.51 168.96,375.47 375.47,375.47c206.51,0 375.47,-168.96 375.47,-375.47c0,-206.51 -168.96,-375.47 -375.47,-375.47zM448.17,587.09l-123.9,-123.9l52.56,-52.56l71.34,71.34l198.99,-199l52.56,52.57zM699.73,737.28h-375.46v-75.09h375.46z" fill="currentColor"/>
		</g>
	</g>
</svg>