<svg version="1.1" xmlns="http://www.w3.org/2000/svg" xmlns:xlink="http://www.w3.org/1999/xlink" viewBox="0,0,1024,1024">
	<!-- Color names: teamapps-color-1 -->
	<desc>pages icon - Licensed under Apache License v2.0 (http://www.apache.org/licenses/LICENSE-2.0) - Created with Iconfu.com - Derivative work of Material icons (Copyright Google Inc.)</desc>
	<g fill="none" fill-rule="nonzero" style="mix-blend-mode: normal">
		<g color="#039be5" class="teamapps-color-1">
			<path d="M911.36,549.55v225.28c0,75.23 -61.3,136.53 -136.53,136.53h-225.28c-14.14,0 -27.17,-4.78 -37.55,-12.81c-10.38,8.03 -23.41,12.81 -37.55,12.81h-225.28c-75.23,0 -136.53,-61.3 -136.53,-136.53v-225.28c0,-14.14 4.78,-27.17 12.81,-37.55c-8.03,-10.38 -12.81,-23.41 -12.81,-37.55v-225.28c0,-75.23 61.3,-136.53 136.53,-136.53h225.28c14.14,0 27.17,4.78 37.55,12.81c10.38,-8.03 23.41,-12.81 37.55,-12.81h225.28c75.23,0 136.53,61.3 136.53,136.53v225.28c0,14.14 -4.78,27.17 -12.81,37.55c8.03,10.38 12.81,23.41 12.81,37.55zM564.45,602.58l50.84,12.71l-12.71,-50.84c-4.56,-18.25 -0.51,-37.57 10.98,-52.45c-11.49,-14.88 -15.54,-34.2 -10.98,-52.45l12.71,-50.84l-50.84,12.71c-18.25,4.56 -37.57,0.51 -52.45,-10.98c-14.88,11.49 -34.2,15.54 -52.45,10.98l-50.84,-12.71l12.71,50.84c4.56,18.25 0.51,37.57 -10.98,52.45c11.49,14.88 15.54,34.2 10.98,52.45l-12.71,50.84l50.84,-12.71c18.25,-4.56 37.57,-0.51 52.45,10.98c14.88,-11.49 34.2,-15.54 52.45,-10.98zM699.73,699.73l-150.18,-37.54v187.73h225.28c41.3,0 75.09,-33.79 75.09,-75.09v-225.28h-187.73zM361.81,549.55h-187.73v225.28c0,41.3 33.79,75.09 75.09,75.09h225.28v-187.73l-150.18,37.54zM774.83,174.08h-225.28v187.73l150.18,-37.54l-37.54,150.18h187.73v-225.28c0,-41.3 -33.79,-75.09 -75.09,-75.09zM174.08,249.17v225.28h187.73l-37.54,-150.18l150.18,37.54v-187.73h-225.28c-41.3,0 -75.09,33.79 -75.09,75.09z" fill="currentColor"/>
		</g>
	</g>
</svg>