<svg version="1.1" xmlns="http://www.w3.org/2000/svg" xmlns:xlink="http://www.w3.org/1999/xlink" viewBox="0,0,1024,1024">
	<!-- Color names: teamapps-color-1 -->
	<desc>perm_media icon - Licensed under Apache License v2.0 (http://www.apache.org/licenses/LICENSE-2.0) - Created with Iconfu.com - Derivative work of Material icons (Copyright Google Inc.)</desc>
	<g fill="none" fill-rule="nonzero" style="mix-blend-mode: normal">
		<g color="#039be5" class="teamapps-color-1">
			<path d="M1024,286.72v375.47c0,75.23 -61.3,136.53 -136.53,136.53h-15.18c1,4.39 1.52,8.96 1.52,13.65v75.1c0,33.93 -27.51,61.44 -61.44,61.44h-675.84c-75.24,0 -136.53,-61.32 -136.53,-136.54l0.37,-331.17c-0.25,-2.23 -0.37,-4.48 -0.37,-6.75v-187.73c0,-33.93 27.51,-61.44 61.44,-61.44h75.09c4.82,0 9.51,0.56 14.02,1.61l0.01,-15.29c0.01,-74.81 60.53,-136.51 136.16,-136.51h225.28c16.3,0 31.92,6.47 43.45,18l57.09,57.1h274.93c75.23,0 136.53,61.3 136.53,136.53zM494.06,500.65l-46.91,62.55h95.45zM716.94,553.73l-7.86,9.47h15.22zM887.47,211.63h-300.38l-75.09,-75.1h-225.28c-41.3,0 -74.72,33.8 -74.72,75.1l-0.37,450.56c0,41.3 33.79,75.09 75.09,75.09h600.75c41.3,0 75.09,-33.79 75.09,-75.09v-375.47c0,-41.3 -33.79,-75.09 -75.09,-75.09zM136.53,286.72h-75.09v187.73h0.38l-0.38,337.92c0,41.3 33.79,75.1 75.09,75.1h675.84v-75.1h-675.84zM324.27,624.64l168.96,-225.28l131.41,169.34l93.87,-113.02l131.41,168.96z" fill="currentColor"/>
		</g>
	</g>
</svg>