<svg version="1.1" xmlns="http://www.w3.org/2000/svg" xmlns:xlink="http://www.w3.org/1999/xlink" viewBox="0,0,1024,1024">
	<!-- Color names: teamapps-color-1 -->
	<desc>perm_device_information icon - Licensed under Apache License v2.0 (http://www.apache.org/licenses/LICENSE-2.0) - Created with Iconfu.com - Derivative work of Material icons (Copyright Google Inc.)</desc>
	<g fill="none" fill-rule="nonzero" style="mix-blend-mode: normal">
		<g color="#039be5" class="teamapps-color-1">
			<path d="M836.27,174.08v675.84c0,75.24 -61.32,136.53 -136.54,136.53h-375.46c-75.22,0 -136.54,-61.29 -136.54,-136.53v-675.84c0,-75.24 61.32,-136.53 136.54,-136.53l375.52,0.37c74.8,0.03 136.48,60.54 136.48,136.16zM385.71,310.61v402.78h28.82c-1,-4.39 -1.52,-8.96 -1.52,-13.66v-225.28c0,-14.14 4.78,-27.16 12.8,-37.55c-8.03,-10.38 -12.8,-23.41 -12.8,-37.55v-75.09c0,-4.69 0.53,-9.27 1.52,-13.66zM610.99,474.45v225.28c0,4.69 -0.53,9.27 -1.52,13.66h28.82v-402.78h-28.82c1,4.39 1.52,8.96 1.52,13.66v75.09c0,14.14 -4.78,27.16 -12.8,37.55c8.03,10.38 12.8,23.41 12.8,37.55zM699.73,99.36l-375.46,-0.37c-41.3,0 -75.1,33.79 -75.1,75.09v675.84c0,41.3 33.8,75.09 75.1,75.09h375.46c41.3,0 75.1,-33.79 75.1,-75.09v-675.84c0,-41.3 -33.8,-74.72 -75.1,-74.72zM699.73,774.83h-375.46v-525.66h375.46zM549.55,474.45h-75.1v225.28h75.1zM549.55,324.27h-75.1v75.09h75.1z" fill="currentColor"/>
		</g>
	</g>
</svg>