<svg version="1.1" xmlns="http://www.w3.org/2000/svg" xmlns:xlink="http://www.w3.org/1999/xlink" viewBox="0,0,1024,1024">
	<!-- Color names: teamapps-color-1 -->
	<desc>phone_in_talk icon - Licensed under Apache License v2.0 (http://www.apache.org/licenses/LICENSE-2.0) - Created with Iconfu.com - Derivative work of Material icons (Copyright Google Inc.)</desc>
	<g fill="none" fill-rule="nonzero" style="mix-blend-mode: normal">
		<g color="#039be5" class="teamapps-color-1">
			<path d="M911.36,680.96v131.41c0,54.59 -44.4,98.99 -98.99,98.99c-386.5,0 -699.73,-313.23 -699.73,-699.73c0,-54.59 44.4,-98.99 98.99,-98.99h131.41c54.59,0 98.99,44.4 98.99,98.99c0,32.22 4.11,63.3 11.81,92.79c2.2,-6.45 5.44,-12.41 9.53,-17.7c-8.03,-10.38 -12.81,-23.41 -12.81,-37.55v-75.09c0,-33.93 27.51,-61.44 61.44,-61.44c220.54,0 399.36,178.82 399.36,399.36c0,33.93 -27.51,61.44 -61.44,61.44h-75.09c-14.14,0 -27.17,-4.78 -37.55,-12.81c-5.28,4.08 -11.24,7.32 -17.69,9.52c29.49,7.69 60.6,11.81 92.78,11.81c54.59,0 98.99,44.4 98.99,98.99zM435.49,427.21l-49.16,49.39c40.55,65.04 95.66,120.03 160.64,160.6l50.42,-50.42c5.67,-5.47 11.82,-10.13 18.3,-13.99c-29.69,-4.33 -52.49,-29.9 -52.49,-60.79c0,-28.4 -22.8,-51.2 -51.2,-51.2c-31.07,0 -56.75,-23.06 -60.86,-53c-4.2,6.9 -9.4,13.44 -15.64,19.41zM812.37,643.41c-46.93,0 -91.99,-7.51 -134.04,-21.4c-13.14,-4.13 -27.78,-1.13 -38.3,9.01l-82.6,82.61c-106.26,-54.07 -193.37,-140.8 -247.44,-247.43l82.61,-82.98c10.52,-9.76 13.52,-24.4 9.39,-37.54c-13.9,-42.06 -21.4,-87.11 -21.4,-134.04c0,-20.65 -16.9,-37.55 -37.55,-37.55h-131.41c-20.65,0 -37.55,16.9 -37.55,37.55c0,352.56 285.73,638.29 638.29,638.29c20.65,0 37.55,-16.9 37.55,-37.55v-131.41c0,-20.65 -16.9,-37.55 -37.55,-37.55zM774.83,512h75.09c0,-186.6 -151.32,-337.92 -337.92,-337.92v75.09c145.31,0 262.83,117.52 262.83,262.83zM624.64,512h75.09c0,-103.63 -84.1,-187.73 -187.73,-187.73v75.09c62.33,0 112.64,50.31 112.64,112.64z" fill="currentColor"/>
		</g>
	</g>
</svg>