<svg version="1.1" xmlns="http://www.w3.org/2000/svg" xmlns:xlink="http://www.w3.org/1999/xlink" viewBox="0,0,1024,1024">
	<!-- Color names: teamapps-color-1 -->
	<desc>phonelink_erase icon - Licensed under Apache License v2.0 (http://www.apache.org/licenses/LICENSE-2.0) - Created with Iconfu.com - Derivative work of Material icons (Copyright Google Inc.)</desc>
	<g fill="none" fill-rule="nonzero" style="mix-blend-mode: normal">
		<g color="#039be5" class="teamapps-color-1">
			<path d="M911.36,174.08v675.84c0,75.23 -61.3,136.53 -136.53,136.53h-375.47c-75.23,0 -136.53,-61.3 -136.53,-136.53v-106.99l-7.75,7.75c-23.99,24 -62.9,24 -86.89,0l-37.55,-37.55c-23.99,-23.99 -23.99,-62.9 0,-86.89l106.74,-106.74l-106.74,-106.74c-24,-23.99 -24,-62.9 0,-86.89l37.55,-37.55c23.99,-23.99 62.9,-23.99 86.89,0l8.6,8.6c-0.56,-3.32 -0.84,-6.73 -0.84,-10.21v-112.64c0,-75.23 61.3,-136.53 136.53,-136.53h375.47c75.23,0 136.53,61.3 136.53,136.53zM460.8,750.93h8l-8,-8zM713.39,750.93v-477.86h-183.23c9.25,2.85 17.96,7.94 25.28,15.26l37.55,37.55c23.99,23.99 23.99,62.9 0,86.89l-106.74,106.74l106.74,106.74c23.99,23.99 23.99,62.9 0,86.89l-37.79,37.79zM460.8,273.07v13.65c0,3.48 -0.29,6.89 -0.84,10.21l8.6,-8.6c7.32,-7.32 16.03,-12.41 25.28,-15.26zM399.36,348.16h-75.09c-3.48,0 -6.89,-0.29 -10.22,-0.85l47.76,47.76l47.76,-47.76c-3.32,0.56 -6.73,0.84 -10.21,0.84zM361.81,643.95l-31.89,31.89h63.79zM774.83,98.99h-375.47c-41.3,0 -75.09,33.79 -75.09,75.09v112.64h75.09v-75.09h375.47v600.74h-375.47v-75.09h-75.09v112.64c0,41.3 33.79,75.09 75.09,75.09h375.47c41.3,0 75.09,-33.79 75.09,-75.09v-675.84c0,-41.3 -33.79,-75.09 -75.09,-75.09zM549.55,369.33l-37.55,-37.55l-150.19,150.19l-150.18,-150.19l-37.55,37.55l150.19,150.18l-150.19,150.19l37.55,37.55l150.18,-150.19l150.19,150.19l37.55,-37.55l-150.19,-150.19z" fill="currentColor"/>
		</g>
	</g>
</svg>