<svg version="1.1" xmlns="http://www.w3.org/2000/svg" xmlns:xlink="http://www.w3.org/1999/xlink" viewBox="0,0,1024,1024">
	<!-- Color names: teamapps-color-1 -->
	<desc>phonelink_ring icon - Licensed under Apache License v2.0 (http://www.apache.org/licenses/LICENSE-2.0) - Created with Iconfu.com - Derivative work of Material icons (Copyright Google Inc.)</desc>
	<g fill="none" fill-rule="nonzero" style="mix-blend-mode: normal">
		<g color="#039be5" class="teamapps-color-1">
			<path d="M723.63,174.08v186.49c2.88,-5.74 6.71,-11.13 11.5,-15.92l37.55,-37.55c23.65,-23.65 61.87,-24.04 85.99,-0.88c118.5,113.76 119.93,297.48 -0.95,408.69c-24.24,22.3 -61.75,21.52 -85.04,-1.77l-37.55,-37.55c-4.79,-4.79 -8.62,-10.18 -11.5,-15.92v190.25c0,75.24 -61.32,136.53 -136.54,136.53h-375.46c-75.22,0 -136.54,-61.29 -136.54,-136.53v-675.84c0,-75.24 61.32,-136.53 136.54,-136.53h375.46c75.22,0 136.54,61.29 136.54,136.53zM273.07,273.07v477.86h252.58v-477.86zM587.09,98.99h-375.46c-41.3,0 -75.1,33.79 -75.1,75.09v675.84c0,41.3 33.8,75.09 75.1,75.09h375.46c41.3,0 75.1,-33.79 75.1,-75.09v-675.84c0,-41.3 -33.8,-75.09 -75.1,-75.09zM587.09,812.37h-375.46v-600.74h375.46zM816.13,350.55l-37.55,37.55c67.58,67.58 67.58,172.71 0,244.05l37.55,37.55c93.87,-86.35 93.87,-229.04 0,-319.15zM737.28,429.39l-37.55,37.55c18.77,26.29 18.77,60.07 0,86.35l37.55,37.55c45.06,-45.06 45.06,-112.64 0,-161.45z" fill="currentColor"/>
		</g>
	</g>
</svg>