<svg version="1.1" xmlns="http://www.w3.org/2000/svg" xmlns:xlink="http://www.w3.org/1999/xlink" viewBox="0,0,1024,1024">
	<!-- Color names: teamapps-color-1 -->
	<desc>present_to_all icon - Licensed under Apache License v2.0 (http://www.apache.org/licenses/LICENSE-2.0) - Created with Iconfu.com - Derivative work of Material icons (Copyright Google Inc.)</desc>
	<g fill="none" fill-rule="nonzero" style="mix-blend-mode: normal">
		<g color="#039be5" class="teamapps-color-1">
			<path d="M986.45,249.17v525.66c0,75.61 -60.92,136.53 -136.53,136.53h-675.84c-75.61,0 -136.53,-60.92 -136.53,-136.53v-525.66c0,-75.61 60.92,-136.53 136.53,-136.53h675.84c75.61,0 136.53,60.92 136.53,136.53zM235.52,309.86v404.28h168.57c-17.2,-10.89 -28.62,-30.09 -28.62,-51.95v-88.75h-13.66c-24.85,0 -47.25,-14.97 -56.76,-37.93c-9.51,-22.96 -4.25,-49.38 13.32,-66.96l150.19,-150.19c3.28,-3.28 6.85,-6.12 10.61,-8.5zM788.48,714.14v-404.28h-243.65c3.77,2.38 7.33,5.22 10.61,8.5l150.19,150.19c17.57,17.57 22.83,44 13.32,66.96c-9.51,22.96 -31.91,37.93 -56.76,37.93h-13.66v88.75c0,21.86 -11.42,41.06 -28.62,51.95zM849.92,174.08h-675.84c-41.68,0 -75.09,33.41 -75.09,75.09v525.66c0,41.68 33.41,75.09 75.09,75.09h675.84c41.68,0 75.09,-33.41 75.09,-75.09v-525.66c0,-41.68 -33.41,-75.09 -75.09,-75.09zM849.92,775.58h-675.84v-527.16h675.84zM436.91,662.19h150.18v-150.19h75.1l-150.19,-150.19l-150.19,150.19h75.1z" fill="currentColor"/>
		</g>
	</g>
</svg>