<svg version="1.1" xmlns="http://www.w3.org/2000/svg" xmlns:xlink="http://www.w3.org/1999/xlink" viewBox="0,0,1024,1024">
	<!-- Color names: teamapps-color-1 -->
	<desc>replay_5 icon - Licensed under Apache License v2.0 (http://www.apache.org/licenses/LICENSE-2.0) - Created with Iconfu.com - Derivative work of Material icons (Copyright Google Inc.)</desc>
	<g fill="none" fill-rule="nonzero" style="mix-blend-mode: normal">
		<g color="#039be5" class="teamapps-color-1">
			<path d="M873.81,549.55c0,199.13 -162.68,361.81 -361.81,361.81c-199.13,0 -361.81,-162.68 -361.81,-361.81c0,-33.93 27.51,-61.44 61.44,-61.44h75.09c33.93,0 61.44,27.51 61.44,61.44c0,56.63 29.27,106.89 73.4,136.35c-9.29,-11.03 -12.85,-21.27 -13.54,-22.95c-9.98,-20.16 -10.02,-35.31 -10.02,-45.81c0,-8.3 1.65,-16.21 4.63,-23.44c-0.89,-5.21 -1.11,-10.56 -0.63,-15.92l7.52,-82.61c0.91,-9.96 4.15,-19.18 9.17,-27.15l-137.86,-137.86c-23.99,-23.99 -23.99,-62.9 0,-86.89l187.73,-187.73c17.57,-17.57 44,-22.83 66.96,-13.32c22.96,9.51 37.93,31.91 37.93,56.76v93.99c170.1,29.36 300.37,178.35 300.37,356.57zM675.84,549.55c0,-68.27 -42.55,-127.3 -102.4,-151.78v42.83c27.88,5.82 48.81,30.54 48.81,60.14v26.29c0,10.87 -2.82,21.08 -7.78,29.94c0.59,1.21 1.02,2.11 1.28,2.62c11.14,22.26 10.25,44 10.25,50.03c0,11.63 1.66,33.28 -15.14,54.78c-2.64,5.88 -8.29,16.63 -17.86,26.21c-0.96,0.96 -1.9,1.87 -2.82,2.73c50.89,-27.91 85.67,-82.06 85.67,-143.8zM512,249.17v-150.18l-187.73,187.73l187.73,187.73v-150.18c123.9,0 225.28,101.38 225.28,225.28c0,123.9 -101.38,225.28 -225.28,225.28c-123.9,0 -225.28,-101.38 -225.28,-225.28h-75.09c0,165.2 135.17,300.37 300.37,300.37c165.2,0 300.37,-135.17 300.37,-300.37c0,-165.2 -135.17,-300.38 -300.37,-300.38zM489.47,583.34c0,0 3.76,0 3.76,-3.76c0,-3.76 -0.01,0 3.75,-3.76c3.76,-3.76 7.52,-3.75 7.52,-3.75h7.51c3.76,0 11.26,3.75 11.26,3.75l7.51,7.52l3.76,7.51v22.53c0,3.76 -3.76,11.26 -3.76,11.26l-7.51,7.51c-3.76,3.76 -7.51,3.76 -11.26,3.76c-7.51,0 -11.26,0 -15.02,-3.76c-3.76,-3.76 -7.51,-7.51 -7.51,-15.01h-30.03c0,7.51 -0.01,11.26 3.75,18.77c3.76,7.51 3.76,11.26 11.26,15.02c7.51,3.76 15.02,3.75 18.78,7.51c3.76,3.76 11.26,3.76 18.77,3.76c7.51,0 18.77,0 22.53,-3.76c3.76,-3.76 7.52,-3.76 15.02,-11.26c7.51,-7.51 7.51,-15.01 11.26,-18.77c3.76,-3.76 3.75,-11.27 3.75,-18.78c0,-7.51 0.01,-15.02 -3.75,-22.53c-3.76,-7.51 -7.51,-15.01 -11.26,-18.77c-3.76,-3.76 -11.26,-7.51 -15.02,-11.26c-3.76,-3.76 -11.26,-3.76 -18.77,-3.76h-7.52c-3.76,0 -7.51,-3.76 -7.51,0c0,3.76 -3.76,0 -3.76,3.76c0,3.76 -3.75,3.76 -3.75,3.76l3.75,-33.79h63.84v-26.29h-90.11l-7.52,82.61z" fill="currentColor"/>
		</g>
	</g>
</svg>