<svg version="1.1" xmlns="http://www.w3.org/2000/svg" xmlns:xlink="http://www.w3.org/1999/xlink" viewBox="0,0,1024,1024">
	<!-- Color names: teamapps-color-1 -->
	<desc>rotate_left icon - Licensed under Apache License v2.0 (http://www.apache.org/licenses/LICENSE-2.0) - Created with Iconfu.com - Derivative work of Material icons (Copyright Google Inc.)</desc>
	<g fill="none" fill-rule="nonzero" style="mix-blend-mode: normal">
		<g color="#039be5" class="teamapps-color-1">
			<path d="M873.81,512c0,184.6 -138.02,336.55 -316.7,358.72c-16.13,2 -32.34,-2.47 -45.11,-12.34c-12.75,9.84 -28.91,14.32 -45,12.36c-63.03,-7.7 -124.19,-32.21 -176.64,-72.9c-13.04,-10.12 -21.42,-25.02 -23.35,-41.32c-15.96,-2.12 -30.53,-10.43 -40.47,-23.24c-40.46,-52.14 -65.52,-112.85 -73.27,-176.26c-1.97,-16.1 2.51,-32.26 12.36,-45c-9.84,-12.75 -14.32,-28.91 -12.36,-45c7.79,-63.69 33.37,-124.35 73.65,-176.26c10.83,-13.96 27.16,-22.58 44.8,-23.66c17.64,-1.08 34.89,5.49 47.34,18.04l0.18,0.18c-5.27,-20.37 0.05,-42.93 16.03,-58.91l170.84,-170.83c17.57,-17.57 44,-22.83 66.96,-13.32c22.96,9.51 37.93,31.91 37.93,56.76v65.18c151.8,42.97 262.82,182.26 262.82,347.83zM417.99,644.99c20.33,14.63 43.1,23.88 66.9,27.98c10.28,1.77 19.59,6.03 27.36,12.1c7.72,-5.91 16.93,-10.04 27.07,-11.76c77.7,-13.13 136.53,-80.42 136.53,-161.32c0,-53.15 -25.39,-100.43 -64.85,-130.33v55.24c0,24.73 -14.82,47.04 -37.61,56.63c-22.79,9.59 -49.11,4.58 -66.79,-12.71l-119.32,-116.69c5.24,17.59 2.5,37.18 -8.7,53.03c-14.69,20.79 -24.11,43.97 -27.82,67.04c-1.68,10.43 -5.92,19.9 -12.02,27.79c6.12,7.92 10.38,17.43 12.04,27.9c3.7,23.29 13.08,46.24 27.73,67.37c5.64,8.13 9.07,17.23 10.37,26.51c10.22,1.13 20.27,4.84 29.11,11.21zM549.55,214.25v-115.26l-170.84,170.83l170.84,167.09v-146.81c106.63,18.02 187.73,110.39 187.73,221.9c0,111.51 -81.1,203.88 -187.73,221.9v75.85c148.31,-18.4 262.82,-144.56 262.82,-297.75c0,-153.19 -114.51,-279.35 -262.82,-297.75zM328.02,749.29c43.55,33.79 94.24,54.08 146.43,60.46v-76.23c-32.67,-5.63 -64.2,-18.39 -92.36,-38.67zM328.4,381.72l-52.94,-53.32c-33.79,43.55 -54.82,93.86 -61.2,146.05h75.85c5.25,-32.67 18.4,-64.57 38.3,-92.73zM290.1,549.55h-75.85c6.38,52.19 27.03,102.5 60.83,146.05l52.94,-53.32c-19.53,-28.16 -32.67,-59.69 -37.92,-92.73z" fill="currentColor"/>
		</g>
	</g>
</svg>