<svg version="1.1" xmlns="http://www.w3.org/2000/svg" xmlns:xlink="http://www.w3.org/1999/xlink" viewBox="0,0,1024,1024">
	<!-- Color names: teamapps-color-1 -->
	<desc>sentiment_satisfied icon - Licensed under Apache License v2.0 (http://www.apache.org/licenses/LICENSE-2.0) - Created with Iconfu.com - Derivative work of Material icons (Copyright Google Inc.)</desc>
	<g fill="none" fill-rule="nonzero" style="mix-blend-mode: normal">
		<g color="#039be5" class="teamapps-color-1">
			<path d="M948.91,512c0,241.23 -195.76,436.91 -437.29,436.91c-241.27,0 -436.53,-195.8 -436.53,-436.91c0,-241.11 195.26,-436.91 436.53,-436.91c241.53,0 437.29,195.68 437.29,436.91zM750.93,512c0,-13.35 -1.09,-26.44 -3.19,-39.19c-12.25,23.32 -32.08,42.03 -56.22,52.84h12.72c16.95,0 32.98,6.99 44.48,19.05c1.46,-10.69 2.22,-21.61 2.22,-32.7zM512,273.07c-41.12,0 -79.81,10.37 -113.58,28.64c56.58,8.59 99.93,57.44 99.93,116.42c0,54.87 -37.53,100.98 -88.32,114.05c10.4,5.22 19.29,13.38 25.39,23.75c16.09,27.36 44.4,44.81 76.58,44.81c32.18,0 60.49,-17.46 76.58,-44.81c6.1,-10.37 14.99,-18.53 25.39,-23.75c-50.79,-13.07 -88.32,-59.18 -88.32,-114.05c0,-58.98 43.35,-107.83 99.93,-116.42c-33.78,-18.27 -72.46,-28.64 -113.58,-28.64zM273.07,512c0,11.09 0.75,22.01 2.22,32.7c11.5,-12.06 27.53,-19.05 44.48,-19.05h12.72c-24.14,-10.82 -43.98,-29.53 -56.22,-52.84c-2.1,12.75 -3.19,25.84 -3.19,39.19zM643.41,474.45c31.11,0 56.32,-25.21 56.32,-56.32c0,-31.11 -25.21,-56.32 -56.32,-56.32c-31.11,0 -56.32,25.21 -56.32,56.32c0,31.11 25.21,56.32 56.32,56.32zM380.59,474.45c31.11,0 56.32,-25.21 56.32,-56.32c0,-31.11 -25.21,-56.32 -56.32,-56.32c-31.11,0 -56.32,25.21 -56.32,56.32c0,31.11 25.21,56.32 56.32,56.32zM511.62,136.53c-207.26,0 -375.09,168.21 -375.09,375.47c0,207.26 167.83,375.47 375.09,375.47c207.64,0 375.85,-168.21 375.85,-375.47c0,-207.26 -168.21,-375.47 -375.85,-375.47zM512,812.37c-165.96,0 -300.37,-134.41 -300.37,-300.37c0,-165.96 134.41,-300.37 300.37,-300.37c165.96,0 300.37,134.41 300.37,300.37c0,165.96 -134.41,300.37 -300.37,300.37zM512,662.19c-55.57,0 -103.25,-30.42 -129.54,-75.1h-62.7c30.03,76.97 104.76,131.42 192.24,131.42c87.48,0 162.2,-54.45 192.24,-131.42h-62.7c-26.29,44.68 -73.96,75.1 -129.54,75.1z" fill="currentColor"/>
		</g>
	</g>
</svg>