<svg version="1.1" xmlns="http://www.w3.org/2000/svg" xmlns:xlink="http://www.w3.org/1999/xlink" viewBox="0,0,1024,1024">
	<!-- Color names: teamapps-color-1 -->
	<desc>sentiment_dissatisfied icon - Licensed under Apache License v2.0 (http://www.apache.org/licenses/LICENSE-2.0) - Created with Iconfu.com - Derivative work of Material icons (Copyright Google Inc.)</desc>
	<g fill="none" fill-rule="nonzero" style="mix-blend-mode: normal">
		<g color="#039be5" class="teamapps-color-1">
			<path d="M948.91,512c0,241.23 -195.76,436.91 -437.29,436.91c-241.27,0 -436.53,-195.8 -436.53,-436.91c0,-241.11 195.26,-436.91 436.53,-436.91c241.53,0 437.29,195.68 437.29,436.91zM750.93,512c0,-13.35 -1.09,-26.44 -3.19,-39.19c-19.7,37.5 -59.02,63.08 -104.33,63.08c-65.04,0 -117.76,-52.72 -117.76,-117.76c0,-58.98 43.35,-107.83 99.93,-116.42c-33.78,-18.27 -72.46,-28.64 -113.58,-28.64c-41.12,0 -79.81,10.37 -113.58,28.64c56.58,8.59 99.93,57.44 99.93,116.42c0,65.04 -52.72,117.76 -117.76,117.76c-45.3,0 -84.63,-25.58 -104.33,-63.08c-2.1,12.75 -3.19,25.84 -3.19,39.19c0,41.64 10.64,80.79 29.34,114.86c49.01,-61.65 124.61,-101.21 209.59,-101.21c84.98,0 160.58,39.57 209.59,101.21c18.7,-34.08 29.34,-73.22 29.34,-114.86zM512,750.93c24.5,0 48.14,-3.68 70.39,-10.52c-16.64,-21.98 -42.01,-35.56 -70.39,-35.56c-28.65,0 -54.18,13.79 -70.47,35.53c22.27,6.86 45.94,10.55 70.47,10.55zM643.41,474.45c31.11,0 56.32,-25.21 56.32,-56.32c0,-31.11 -25.21,-56.32 -56.32,-56.32c-31.11,0 -56.32,25.21 -56.32,56.32c0,31.11 25.21,56.32 56.32,56.32zM380.59,474.45c31.11,0 56.32,-25.21 56.32,-56.32c0,-31.11 -25.21,-56.32 -56.32,-56.32c-31.11,0 -56.32,25.21 -56.32,56.32c0,31.11 25.21,56.32 56.32,56.32zM511.62,136.53c-207.26,0 -375.09,168.21 -375.09,375.47c0,207.26 167.83,375.47 375.09,375.47c207.64,0 375.85,-168.21 375.85,-375.47c0,-207.26 -168.21,-375.47 -375.85,-375.47zM512,812.37c-165.96,0 -300.37,-134.41 -300.37,-300.37c0,-165.96 134.41,-300.37 300.37,-300.37c165.96,0 300.37,134.41 300.37,300.37c0,165.96 -134.41,300.37 -300.37,300.37zM512,587.09c-87.48,0 -162.2,54.45 -192.24,131.42h62.7c25.91,-44.68 73.96,-75.1 129.54,-75.1c55.57,0 103.25,30.42 129.54,75.1h62.7c-30.03,-76.97 -104.76,-131.42 -192.24,-131.42z" fill="currentColor"/>
		</g>
	</g>
</svg>