<svg version="1.1" xmlns="http://www.w3.org/2000/svg" xmlns:xlink="http://www.w3.org/1999/xlink" viewBox="0,0,1024,1024">
	<!-- Color names: teamapps-color-1 -->
	<desc>settings_input_svideo icon - Licensed under Apache License v2.0 (http://www.apache.org/licenses/LICENSE-2.0) - Created with Iconfu.com - Derivative work of Material icons (Copyright Google Inc.)</desc>
	<g fill="none" fill-rule="nonzero" style="mix-blend-mode: normal">
		<g color="#039be5" class="teamapps-color-1">
			<path d="M986.45,512c0,261.84 -212.61,474.45 -474.45,474.45c-261.84,0 -474.45,-212.61 -474.45,-474.45c0,-261.84 212.61,-474.45 474.45,-474.45c261.84,0 474.45,212.61 474.45,474.45zM685.79,297.22c0.19,2.73 0.29,5.49 0.29,8.27c0,65.09 -52.67,117.76 -117.76,117.76h-112.64c-65.09,0 -117.76,-52.67 -117.76,-117.76c0,-2.78 0.1,-5.54 0.29,-8.27c-28.47,23.09 -52.28,51.71 -69.79,84.19c11.65,-3.86 24.12,-5.94 37.08,-5.94c65.09,0 117.76,52.67 117.76,117.76c0,26.87 -8.97,51.62 -24.09,71.42c56.25,8.89 99.19,57.53 99.19,116.31c0,41.62 -21.54,78.17 -54.08,99.11c21.69,5.49 44.38,8.41 67.73,8.41c23.35,0 46.05,-2.92 67.73,-8.41c-32.55,-20.94 -54.08,-57.48 -54.08,-99.11c0,-58.77 42.94,-107.42 99.19,-116.31c-15.12,-19.8 -24.09,-44.55 -24.09,-71.42c0,-65.09 52.67,-117.76 117.76,-117.76c12.96,0 25.42,2.09 37.08,5.94c-17.51,-32.49 -41.32,-61.1 -69.79,-84.19zM248.74,596.46c5.28,16.39 12.05,32.12 20.16,47.03c4.14,-12.36 10.27,-23.81 18.02,-33.95c-13.65,-2.16 -26.52,-6.66 -38.18,-13.07zM775.26,596.46c-11.66,6.42 -24.53,10.91 -38.18,13.07c7.74,10.15 13.88,21.59 18.02,33.95c8.11,-14.91 14.88,-30.64 20.16,-47.03zM512,98.99c-227.91,0 -413.01,185.1 -413.01,413.01c0,227.91 185.1,413.01 413.01,413.01c227.91,0 413.01,-185.1 413.01,-413.01c0,-227.91 -185.1,-413.01 -413.01,-413.01zM512,849.92c-186.23,0 -337.92,-151.69 -337.92,-337.92c0,-186.23 151.69,-337.92 337.92,-337.92c186.23,0 337.92,151.69 337.92,337.92c0,186.23 -151.69,337.92 -337.92,337.92zM624.64,305.49c0,-31.16 -25.16,-56.32 -56.32,-56.32h-112.64c-31.16,0 -56.32,25.16 -56.32,56.32c0,31.16 25.16,56.32 56.32,56.32h112.64c31.16,0 56.32,-25.16 56.32,-56.32zM361.81,493.23c0,-31.16 -25.16,-56.32 -56.32,-56.32c-31.16,0 -56.32,25.16 -56.32,56.32c0,31.16 25.16,56.32 56.32,56.32c31.16,0 56.32,-25.16 56.32,-56.32zM380.59,624.64c-31.16,0 -56.32,25.16 -56.32,56.32c0,31.16 25.16,56.32 56.32,56.32c31.16,0 56.32,-25.16 56.32,-56.32c0,-31.16 -25.16,-56.32 -56.32,-56.32zM718.51,436.91c-31.16,0 -56.32,25.16 -56.32,56.32c0,31.16 25.16,56.32 56.32,56.32c31.16,0 56.32,-25.16 56.32,-56.32c0,-31.16 -25.16,-56.32 -56.32,-56.32zM643.41,624.64c-31.16,0 -56.32,25.16 -56.32,56.32c0,31.16 25.16,56.32 56.32,56.32c31.16,0 56.32,-25.16 56.32,-56.32c0,-31.16 -25.16,-56.32 -56.32,-56.32z" fill="currentColor"/>
		</g>
	</g>
</svg>