<svg version="1.1" xmlns="http://www.w3.org/2000/svg" xmlns:xlink="http://www.w3.org/1999/xlink" viewBox="0,0,1024,1024">
	<!-- Color names: teamapps-color-1 -->
	<desc>signal_wifi_4_bar_lock icon - Licensed under Apache License v2.0 (http://www.apache.org/licenses/LICENSE-2.0) - Created with Iconfu.com - Derivative work of Material icons (Copyright Google Inc.)</desc>
	<g fill="none" fill-rule="nonzero" style="mix-blend-mode: normal">
		<g color="#039be5" class="teamapps-color-1">
			<path d="M560.08,906.94c-11.64,14.63 -29.3,23.17 -48,23.19c-18.69,0.03 -36.38,-8.46 -48.06,-23.06l-435.54,-544.42c-21.67,-27.09 -16.63,-66.73 11.12,-87.54c15.48,-11.61 198.83,-162.47 472.4,-162.47c273.57,0 456.91,150.86 472.4,162.47c27.84,20.88 32.8,60.69 10.94,87.76l-78.85,97.62c-2.86,3.54 -6.06,6.71 -9.53,9.47c47.63,26.37 79.49,77.05 79.49,135.91v17.59c22.16,18.09 37.55,45.45 37.55,76.27v150.19c0,52.7 -46.29,98.99 -98.99,98.99h-187.73c-52.7,0 -98.99,-46.29 -98.99,-98.99v-41.3zM643.41,605.87c0,-105.13 82.61,-187.74 187.74,-187.74c15.02,0 26.28,0 37.54,3.76l78.85,-97.62c-15.02,-11.26 -183.97,-150.19 -435.54,-150.19c-251.57,0 -420.52,138.93 -435.54,150.19l435.54,544.42l131.41,-165.2zM925.01,662.19v-56.32c0,-52.56 -41.3,-93.87 -93.86,-93.87c-52.56,0 -93.87,41.31 -93.87,93.87v56.32c-18.77,0 -37.55,18.77 -37.55,37.54v150.19c0,18.77 18.78,37.55 37.55,37.55h187.73c18.77,0 37.55,-18.78 37.55,-37.55v-150.19c0,-18.77 -18.78,-37.54 -37.55,-37.54zM887.47,662.19h-112.64v-56.32c0,-30.03 26.29,-56.32 56.32,-56.32c30.03,0 56.32,26.29 56.32,56.32z" fill="currentColor"/>
		</g>
	</g>
</svg>