<svg version="1.1" xmlns="http://www.w3.org/2000/svg" xmlns:xlink="http://www.w3.org/1999/xlink" viewBox="0,0,1024,1024">
	<!-- Color names: teamapps-color-1 -->
	<desc>speaker_notes_off icon - Licensed under Apache License v2.0 (http://www.apache.org/licenses/LICENSE-2.0) - Created with Iconfu.com - Derivative work of Material icons (Copyright Google Inc.)</desc>
	<g fill="none" fill-rule="nonzero" style="mix-blend-mode: normal">
		<g color="#039be5" class="teamapps-color-1">
			<path d="M930.91,948.18l-47.69,47.69c-23.99,23.99 -62.9,23.99 -86.89,0l-197.15,-197.15h-287.02l-132.19,132.19c-17.58,17.58 -44.01,22.83 -66.97,13.31c-22.96,-9.52 -37.93,-31.94 -37.91,-56.79l0.36,-612.45l-57.46,-57.46c-23.99,-23.99 -23.99,-62.9 0,-86.89l47.69,-47.69c23.99,-23.99 62.9,-23.99 86.89,0l14.58,14.58c11.48,-13.97 28.79,-22.44 47.48,-22.44h597.74c75.23,0 136.54,61.31 136.54,136.54v450.56c0,59.17 -37.5,108.67 -89.33,127.77l71.34,71.34c23.99,23.99 23.99,62.9 0,86.89zM109.13,126.39l-47.69,47.69l75.47,75.47l-0.38,637.92l150.19,-150.19h337.92l215.14,215.14l47.69,-47.69zM812.37,136.53h-597.74l222.28,222.28v-72.09h300.37v75.09h-297.37l37.55,37.55h259.82v75.09h-184.73l262.45,262.45c40.17,-1.5 72.47,-34.16 72.47,-74.71v-450.56c0,-41.3 -33.8,-75.1 -75.1,-75.1zM286.72,474.45v-75.09l75.09,75.09zM361.81,587.09h-75.09v-75.09h75.09z" fill="currentColor"/>
		</g>
	</g>
</svg>