<svg version="1.1" xmlns="http://www.w3.org/2000/svg" xmlns:xlink="http://www.w3.org/1999/xlink" viewBox="0,0,1024,1024">
	<!-- Color names: teamapps-color-1 -->
	<desc>tab_unselected icon - Licensed under Apache License v2.0 (http://www.apache.org/licenses/LICENSE-2.0) - Created with Iconfu.com - Derivative work of Material icons (Copyright Google Inc.)</desc>
	<g fill="none" fill-rule="nonzero" style="mix-blend-mode: normal">
		<g color="#039be5" class="teamapps-color-1">
			<path d="M986.45,249.17v150.19c0,14.14 -4.78,27.16 -12.8,37.55c8.03,10.38 12.8,23.41 12.8,37.55v75.1c0,14.14 -4.78,27.16 -12.8,37.55c8.03,10.38 12.8,23.41 12.8,37.55v75.09c0,14.14 -4.78,27.17 -12.81,37.55c8.03,10.38 12.81,23.41 12.81,37.55c0,75.23 -61.3,136.53 -136.53,136.53c-14.14,0 -27.16,-4.78 -37.55,-12.8c-10.38,8.03 -23.41,12.8 -37.55,12.8h-75.1c-14.14,0 -27.16,-4.78 -37.55,-12.8c-10.38,8.03 -23.41,12.8 -37.55,12.8h-75.09c-14.14,0 -27.17,-4.78 -37.55,-12.81c-10.38,8.03 -23.41,12.81 -37.55,12.81h-75.09c-14.14,0 -27.16,-4.78 -37.55,-12.8c-10.38,8.03 -23.41,12.8 -37.55,12.8h-75.1c-14.14,0 -27.16,-4.78 -37.55,-12.8c-10.38,8.03 -23.41,12.8 -37.55,12.8c-75.23,0 -136.53,-61.3 -136.53,-136.53c0,-14.14 4.78,-27.17 12.81,-37.55c-8.03,-10.38 -12.81,-23.41 -12.81,-37.55v-75.09c0,-14.14 4.78,-27.16 12.8,-37.55c-8.03,-10.38 -12.8,-23.41 -12.8,-37.55v-75.1c0,-14.14 4.78,-27.16 12.8,-37.55c-8.03,-10.38 -12.8,-23.41 -12.8,-37.55v-75.09c0,-14.14 4.78,-27.17 12.81,-37.55c-8.03,-10.38 -12.81,-23.41 -12.81,-37.55c0,-75.23 61.3,-136.53 136.53,-136.53c14.14,0 27.16,4.78 37.55,12.8c10.38,-8.03 23.41,-12.8 37.55,-12.8h75.1c14.14,0 27.16,4.78 37.55,12.8c10.38,-8.03 23.41,-12.8 37.55,-12.8h75.09c14.14,0 27.17,4.78 37.55,12.81c10.38,-8.03 23.41,-12.81 37.55,-12.81h300.37c75.23,0 136.53,61.3 136.53,136.53zM324.27,310.61h-75.1c-5.41,0 -10.67,-0.7 -15.67,-2.02c1.32,5 2.02,10.26 2.02,15.67v75.09c0,14.14 -4.78,27.16 -12.8,37.55c8.03,10.38 12.8,23.41 12.8,37.55v75.1c0,14.14 -4.78,27.16 -12.8,37.55c8.03,10.38 12.8,23.41 12.8,37.55v75.09c0,5.42 -0.7,10.67 -2.02,15.67c5,-1.32 10.25,-2.02 15.67,-2.02h75.1c14.14,0 27.16,4.78 37.55,12.8c10.38,-8.03 23.41,-12.8 37.55,-12.8h75.09c14.14,0 27.17,4.78 37.55,12.81c10.38,-8.03 23.41,-12.81 37.55,-12.81h75.09c14.14,0 27.16,4.78 37.55,12.8c10.38,-8.03 23.41,-12.8 37.55,-12.8h75.1c5.41,0 10.67,0.7 15.67,2.02c-1.32,-5 -2.02,-10.26 -2.02,-15.67v-75.09c0,-14.14 4.78,-27.16 12.8,-37.55c-8.03,-10.38 -12.8,-23.41 -12.8,-37.55v-75.1c0,-4.69 0.53,-9.26 1.52,-13.65h-240.45c-33.93,0 -61.44,-27.51 -61.44,-61.44v-90.27c-4.39,1 -8.96,1.52 -13.66,1.52h-75.09c-14.14,0 -27.16,-4.78 -37.55,-12.8c-10.38,8.03 -23.41,12.8 -37.55,12.8zM849.92,174.08h-300.37v225.28h375.46v-150.19c0,-41.3 -33.79,-75.09 -75.09,-75.09zM549.55,849.92h75.09v-75.09h-75.09zM699.73,849.92h75.1v-75.09h-75.1zM98.99,399.36h75.09v-75.09h-75.09zM174.08,849.92v-75.09h-75.09c0,41.3 33.79,75.09 75.09,75.09zM399.36,849.92h75.09v-75.09h-75.09zM249.17,849.92h75.1v-75.09h-75.1zM98.99,549.55h75.09v-75.1h-75.09zM98.99,249.17h75.09v-75.09c-41.3,0 -75.09,33.79 -75.09,75.09zM399.36,249.17h75.09v-75.09h-75.09zM249.17,249.17h75.1v-75.09h-75.1zM849.92,849.92c41.3,0 75.09,-33.79 75.09,-75.09h-75.09zM98.99,699.73h75.09v-75.09h-75.09zM849.92,549.55h75.09v-75.1h-75.09zM849.92,699.73h75.09v-75.09h-75.09z" fill="currentColor"/>
		</g>
	</g>
</svg>