<svg version="1.1" xmlns="http://www.w3.org/2000/svg" xmlns:xlink="http://www.w3.org/1999/xlink" viewBox="0,0,1024,1024">
	<!-- Color names: teamapps-color-1 -->
	<desc>track_changes icon - Licensed under Apache License v2.0 (http://www.apache.org/licenses/LICENSE-2.0) - Created with Iconfu.com - Derivative work of Material icons (Copyright Google Inc.)</desc>
	<g fill="none" fill-rule="nonzero" style="mix-blend-mode: normal">
		<g color="#039be5" class="teamapps-color-1">
			<path d="M948.91,512c0,241.19 -195.72,436.91 -436.91,436.91c-241.19,0 -436.91,-195.72 -436.91,-436.91c0,-241.19 195.72,-436.91 436.91,-436.91h37.55c33.93,0 61.44,27.51 61.44,61.44v189.59l16.77,-16.77c10.04,-10.04 22.7,-15.89 35.79,-17.52c1.63,-13.09 7.47,-25.75 17.52,-35.79l52.94,-52.94c23.99,-23.99 62.9,-23.99 86.89,0c79,79 128.01,188.3 128.01,308.9zM777.45,246.55l-52.94,52.94c54.07,54.45 87.86,129.54 87.86,212.51c0,165.96 -134.41,300.37 -300.37,300.37c-165.96,0 -300.37,-134.41 -300.37,-300.37c0,-153.19 114.51,-279.35 262.82,-297.75v75.85c-106.63,18.02 -187.73,110.39 -187.73,221.9c0,124.28 101,225.28 225.28,225.28c124.28,0 225.28,-101 225.28,-225.28c0,-62.33 -25.15,-118.65 -66.08,-159.2l-52.94,52.94c27.03,27.41 43.93,64.96 43.93,106.26c0,82.98 -67.21,150.19 -150.19,150.19c-82.98,0 -150.19,-67.21 -150.19,-150.19c0,-69.84 48.06,-128.03 112.64,-144.93v80.34c-22.53,13.14 -37.54,36.8 -37.54,64.58c0,41.3 33.79,75.09 75.09,75.09c41.3,0 75.09,-33.79 75.09,-75.09c0,-27.78 -15.01,-51.81 -37.54,-64.58v-310.89h-37.55c-207.26,0 -375.47,168.21 -375.47,375.47c0,207.26 168.21,375.47 375.47,375.47c207.26,0 375.47,-168.21 375.47,-375.47c0,-103.63 -42.06,-197.49 -110.02,-265.45z" fill="currentColor"/>
		</g>
	</g>
</svg>