<svg version="1.1" xmlns="http://www.w3.org/2000/svg" xmlns:xlink="http://www.w3.org/1999/xlink" viewBox="0,0,1024,1024">
	<!-- Color names: teamapps-color-1 -->
	<desc>tram icon - Licensed under Apache License v2.0 (http://www.apache.org/licenses/LICENSE-2.0) - Created with Iconfu.com - Derivative work of Material icons (Copyright Google Inc.)</desc>
	<g fill="none" fill-rule="nonzero" style="mix-blend-mode: normal">
		<g color="#039be5" class="teamapps-color-1">
			<path d="M798.72,868.69v18.78c0,33.93 -27.51,61.44 -61.44,61.44h-75.09c-16.29,0 -31.92,-6.47 -43.44,-18l-57.1,-57.1h-90.65l-57.09,57.1c-11.52,11.52 -27.15,18 -43.45,18h-83.73c-33.93,0 -61.44,-27.51 -61.44,-61.44v-18.78c0,-16.29 6.47,-31.92 18,-43.44l2.02,-2.02c-33.93,-30.82 -57.57,-74.38 -57.57,-125.74v-316.89c0,-77.02 37.35,-123.03 87.58,-150.61c-7.83,-10.31 -12.48,-23.18 -12.48,-37.13v-56.32c0,-33.93 27.51,-61.44 61.44,-61.44h375.46c33.93,0 61.44,27.51 61.44,61.44v56.32c0,13.27 -4.21,25.56 -11.37,35.61c50.09,27.47 86.47,73.77 86.47,152.13v316.89c0,47.03 -15.2,98.52 -50.33,133.7c8.24,10.69 12.78,23.87 12.78,37.51zM638.29,460.8h-252.58v64.85h252.58zM774.83,697.48v-316.89c0,-104.76 -98,-127.66 -225.66,-131.04l28.54,-56.7h122.02v-56.32h-375.46v56.32h178.34l-28.53,57.08c-117.52,3.38 -224.91,26.66 -224.91,130.66v316.89c0,54.45 44.69,99.87 97.25,111.51l-59.7,59.7v18.78h83.73l75.09,-75.1h141.55l75.1,75.1h75.09v-18.78l-56.32,-56.32h-3c63.46,0 96.87,-51.44 96.87,-114.89zM699.73,587.09h-375.46v-187.73h375.46zM512,756.05c-31.16,0 -56.32,-25.16 -56.32,-56.32c0,-31.16 25.16,-56.32 56.32,-56.32c31.16,0 56.32,25.16 56.32,56.32c0,31.16 -25.16,56.32 -56.32,56.32z" fill="currentColor"/>
		</g>
	</g>
</svg>