<svg version="1.1" xmlns="http://www.w3.org/2000/svg" xmlns:xlink="http://www.w3.org/1999/xlink" viewBox="0,0,1024,1024">
	<!-- Color names: teamapps-color-1 -->
	<desc>vertical_align_top icon - Licensed under Apache License v2.0 (http://www.apache.org/licenses/LICENSE-2.0) - Created with Iconfu.com - Derivative work of Material icons (Copyright Google Inc.)</desc>
	<g fill="none" fill-rule="nonzero" style="mix-blend-mode: normal">
		<g color="#039be5" class="teamapps-color-1">
			<path d="M705.63,431c17.57,17.57 22.83,44 13.32,66.96c-9.51,22.96 -31.91,37.93 -56.76,37.93h-51.2v314.03c0,33.93 -27.51,61.44 -61.44,61.44h-75.1c-33.93,0 -61.44,-27.51 -61.44,-61.44v-314.03h-51.2c-24.85,0 -47.25,-14.97 -56.76,-37.93c-9.51,-22.96 -4.25,-49.39 13.32,-66.96l120.4,-120.39h-227.14c-33.93,0 -61.44,-27.51 -61.44,-61.44v-75.09c0,-33.93 27.51,-61.44 61.44,-61.44h600.74c33.93,0 61.44,27.51 61.44,61.44v75.09c0,33.93 -27.51,61.44 -61.44,61.44h-227.14zM361.81,474.45h112.64v375.47h75.1v-375.47h112.64l-150.19,-150.18zM211.63,174.08v75.09h600.74v-75.09z" fill="currentColor"/>
		</g>
	</g>
</svg>