<svg version="1.1" xmlns="http://www.w3.org/2000/svg" xmlns:xlink="http://www.w3.org/1999/xlink" viewBox="0,0,1024,1024">
	<!-- Color names: teamapps-color-1 -->
	<desc>vpn_lock icon - Licensed under Apache License v2.0 (http://www.apache.org/licenses/LICENSE-2.0) - Created with Iconfu.com - Derivative work of Material icons (Copyright Google Inc.)</desc>
	<g fill="none" fill-rule="nonzero" style="mix-blend-mode: normal">
		<g color="#039be5" class="teamapps-color-1">
			<path d="M909.23,506.44c1.24,13.61 2.13,27.95 2.13,43.11c0,241.19 -195.72,436.9 -436.91,436.9c-241.19,0 -436.9,-195.71 -436.9,-436.9c0,-241.19 195.71,-436.91 436.9,-436.91c45.77,0 89.56,6.99 131.14,20.13c15.68,4.95 28.29,15.8 35.68,29.63c14.16,-71.18 77,-124.84 152.32,-124.84c78.11,0 142.79,57.71 153.69,132.82c23.76,18.07 39.16,46.62 39.16,78.8v150.19c0,47.72 -33.95,87.69 -78.99,96.96c0.86,3.27 1.46,6.65 1.77,10.12zM512,423.25h-13.65v13.66c0,18.73 -5.23,36.26 -14.3,51.2h65.5c54.59,0 98.98,44.39 98.98,98.98v53.26c14.46,2.53 28.08,7.33 40.52,14c15.59,-31.63 24.34,-67.16 24.34,-104.8c0,-8.45 -0.99,-17.18 -2.56,-30.14c-0.86,-7.11 -0.47,-14.23 1.09,-21.06h-12.19c-54.61,0 -98.98,-44.42 -98.98,-98.99v-9c-23.89,20.49 -54.91,32.9 -88.75,32.9zM300.37,699.73v-12.09l-46.79,-46.79c11.29,27.28 27.5,52 47.52,73.06c-0.48,-4.66 -0.73,-9.39 -0.73,-14.18zM771.82,512c1.5,12.39 3.01,24.78 3.01,37.55c0,78.1 -30.03,149.05 -78.85,202.37c-9.76,-30.41 -37.55,-52.19 -71.34,-52.19h-37.55v-112.64c0,-20.65 -16.89,-37.54 -37.54,-37.54h-225.28v-75.1h75.09c20.65,0 37.55,-16.89 37.55,-37.54v-75.1h75.09c41.3,0 75.09,-33.79 75.09,-75.09v-95.37c-35.67,-11.26 -73.22,-17.27 -112.64,-17.27c-207.26,0 -375.46,168.21 -375.46,375.47c0,207.26 168.2,375.46 375.46,375.46c207.26,0 375.47,-168.2 375.47,-375.46c0,-12.77 -0.75,-25.16 -1.87,-37.55zM436.91,847.29c-148.31,-18.4 -262.83,-144.55 -262.83,-297.74c0,-23.28 3,-45.43 7.88,-67.21l179.85,179.85v37.54c0,41.3 33.8,75.1 75.1,75.1zM887.47,211.63v-18.78c0,-51.81 -42.06,-93.86 -93.87,-93.86c-51.81,0 -93.87,42.05 -93.87,93.86v18.78c-20.65,0 -37.54,16.89 -37.54,37.54v150.19c0,20.65 16.89,37.55 37.54,37.55h187.74c20.65,0 37.54,-16.9 37.54,-37.55v-150.19c0,-20.65 -16.89,-37.54 -37.54,-37.54zM857.43,211.63h-127.65v-18.78c0,-35.3 28.53,-63.83 63.83,-63.83c35.3,0 63.83,28.53 63.83,63.83z" fill="currentColor"/>
		</g>
	</g>
</svg>