<svg version="1.1" xmlns="http://www.w3.org/2000/svg" xmlns:xlink="http://www.w3.org/1999/xlink" viewBox="0,0,1024,1024">
	<!-- Color names: teamapps-color-1 -->
	<desc>ac_unit icon - Licensed under Apache License v2.0 (http://www.apache.org/licenses/LICENSE-2.0) - Created with Iconfu.com - Derivative work of Material icons (Copyright Google Inc.)</desc>
	<g fill="none" fill-rule="nonzero" style="mix-blend-mode: normal">
		<g color="#039be5" class="teamapps-color-1">
			<path d="M887.47,610.99h-8.24l16.77,16.77c23.93,23.93 24,62.72 0.15,86.74l-52.94,53.31c-16.02,16.14 -38.77,21.51 -59.28,16.12c5.39,20.51 0.01,43.26 -16.12,59.28l-53.31,52.94c-24.02,23.85 -62.8,23.78 -86.74,-0.15l-16.77,-16.77v8.24c0,33.93 -27.51,61.44 -61.44,61.44h-75.1c-33.93,0 -61.44,-27.51 -61.44,-61.44v-8.24l-16.77,16.77c-23.93,23.93 -62.72,24 -86.74,0.15l-53.31,-52.94c-16.14,-16.02 -21.51,-38.77 -16.12,-59.28c-20.51,5.39 -43.26,0.01 -59.28,-16.12l-52.94,-53.31c-23.85,-24.02 -23.78,-62.8 0.15,-86.74l16.77,-16.77h-8.24c-33.93,0 -61.44,-27.51 -61.44,-61.44v-75.1c0,-33.93 27.51,-61.44 61.44,-61.44h8.24l-16.77,-16.77c-23.93,-23.93 -24,-62.72 -0.15,-86.74l52.94,-53.31c16.02,-16.14 38.77,-21.51 59.28,-16.12c-5.39,-20.51 -0.01,-43.26 16.12,-59.28l53.31,-52.94c24.02,-23.85 62.8,-23.78 86.74,0.15l16.77,16.77v-8.24c0,-33.93 27.51,-61.44 61.44,-61.44h75.1c33.93,0 61.44,27.51 61.44,61.44v8.24l16.77,-16.77c23.93,-23.93 62.72,-24 86.74,-0.15l53.31,52.94c16.14,16.02 21.51,38.77 16.12,59.28c20.51,-5.39 43.26,-0.01 59.28,16.12l52.94,53.31c23.85,24.02 23.78,62.8 -0.15,86.74l-16.77,16.77h8.24c33.93,0 61.44,27.51 61.44,61.44v75.1c0,33.93 -27.51,61.44 -61.44,61.44zM887.47,474.45h-156.57l121.65,-121.65l-52.94,-53.31l-174.97,174.96h-75.09v-75.09l174.96,-174.97l-53.31,-52.94l-121.65,121.65v-156.57h-75.1v156.57l-121.65,-121.65l-53.31,52.94l174.96,174.97v75.09h-75.09l-174.97,-174.96l-52.94,53.31l121.65,121.65h-156.57v75.1h156.57l-121.65,121.65l52.94,53.31l174.97,-174.96h75.09v75.09l-174.96,174.97l53.31,52.94l121.65,-121.65v156.57h75.1v-156.57l121.65,121.65l53.31,-52.94l-174.96,-174.97v-75.09h75.09l174.97,174.96l52.94,-53.31l-121.65,-121.65h156.57z" fill="currentColor"/>
		</g>
	</g>
</svg>