<svg version="1.1" xmlns="http://www.w3.org/2000/svg" xmlns:xlink="http://www.w3.org/1999/xlink" viewBox="0,0,1024,1024">
	<!-- Color names: teamapps-color-1 -->
	<desc>account_circle icon - Licensed under Apache License v2.0 (http://www.apache.org/licenses/LICENSE-2.0) - Created with Iconfu.com - Derivative work of Material icons (Copyright Google Inc.)</desc>
	<g fill="none" fill-rule="nonzero" style="mix-blend-mode: normal">
		<g color="#039be5" class="teamapps-color-1">
			<path d="M948.91,512c0,241.19 -195.72,436.91 -436.91,436.91c-241.19,0 -436.91,-195.72 -436.91,-436.91c0,-241.19 195.72,-436.91 436.91,-436.91c241.19,0 436.91,195.72 436.91,436.91zM512,607.23c-60.81,0 -128.74,25.77 -154.22,45.61c38.29,41.88 93.33,68.05 154.22,68.05c60.88,0 115.9,-26.16 154.2,-68.03c-25.58,-19.88 -93.71,-45.64 -154.2,-45.64zM460.8,361.81c0,28.4 22.8,51.2 51.2,51.2c28.4,0 51.2,-22.8 51.2,-51.2c0,-28.4 -22.8,-51.2 -51.2,-51.2c-28.4,0 -51.2,22.8 -51.2,51.2zM512,136.53c-207.26,0 -375.47,168.21 -375.47,375.47c0,207.26 168.21,375.47 375.47,375.47c207.26,0 375.47,-168.21 375.47,-375.47c0,-207.26 -168.21,-375.47 -375.47,-375.47zM512,782.34c-93.87,0 -176.84,-48.07 -225.28,-120.9c1.13,-74.72 150.19,-115.64 225.28,-115.64c74.72,0 224.15,40.92 225.28,115.64c-48.44,72.84 -131.41,120.9 -225.28,120.9zM512,249.17c62.33,0 112.64,50.31 112.64,112.64c0,62.33 -50.31,112.64 -112.64,112.64c-62.33,0 -112.64,-50.31 -112.64,-112.64c0,-62.33 50.31,-112.64 112.64,-112.64z" fill="currentColor"/>
		</g>
	</g>
</svg>