<svg version="1.1" xmlns="http://www.w3.org/2000/svg" xmlns:xlink="http://www.w3.org/1999/xlink" viewBox="0,0,1024,1024">
	<!-- Color names: teamapps-color-1 -->
	<desc>adjust icon - Licensed under Apache License v2.0 (http://www.apache.org/licenses/LICENSE-2.0) - Created with Iconfu.com - Derivative work of Material icons (Copyright Google Inc.)</desc>
	<g fill="none" fill-rule="nonzero" style="mix-blend-mode: normal">
		<g color="#039be5" class="teamapps-color-1">
			<path d="M948.91,512c0,240.81 -196.1,436.91 -436.91,436.91c-240.81,0 -436.91,-196.1 -436.91,-436.91c0,-240.81 196.1,-436.91 436.91,-436.91c240.81,0 436.91,196.1 436.91,436.91zM750.93,512c0,-131.65 -107.28,-238.93 -238.93,-238.93c-131.65,0 -238.93,107.28 -238.93,238.93c0,131.65 107.28,238.93 238.93,238.93c131.65,0 238.93,-107.28 238.93,-238.93zM686.08,512c0,96.26 -77.82,174.08 -174.08,174.08c-96.26,0 -174.08,-77.82 -174.08,-174.08c0,-96.26 77.82,-174.08 174.08,-174.08c96.26,0 174.08,77.82 174.08,174.08zM512,136.53c-206.88,0 -375.47,168.59 -375.47,375.47c0,206.88 168.59,375.47 375.47,375.47c206.88,0 375.47,-168.59 375.47,-375.47c0,-206.88 -168.59,-375.47 -375.47,-375.47zM512,812.37c-165.58,0 -300.37,-134.79 -300.37,-300.37c0,-165.58 134.79,-300.37 300.37,-300.37c165.58,0 300.37,134.79 300.37,300.37c0,165.58 -134.79,300.37 -300.37,300.37zM512,399.36c-62.33,0 -112.64,50.31 -112.64,112.64c0,62.33 50.31,112.64 112.64,112.64c62.33,0 112.64,-50.31 112.64,-112.64c0,-62.33 -50.31,-112.64 -112.64,-112.64z" fill="currentColor"/>
		</g>
	</g>
</svg>