<svg version="1.1" xmlns="http://www.w3.org/2000/svg" xmlns:xlink="http://www.w3.org/1999/xlink" viewBox="0,0,1024,1024">
	<!-- Color names: teamapps-color-1 -->
	<desc>airplay icon - Licensed under Apache License v2.0 (http://www.apache.org/licenses/LICENSE-2.0) - Created with Iconfu.com - Derivative work of Material icons (Copyright Google Inc.)</desc>
	<g fill="none" fill-rule="nonzero" style="mix-blend-mode: normal">
		<g color="#039be5" class="teamapps-color-1">
			<path d="M986.45,249.17v450.56c0,75.22 -61.29,136.54 -136.53,136.54h-76.95l7.76,7.76c17.57,17.57 22.83,44 13.32,66.96c-9.51,22.96 -31.91,37.93 -56.76,37.93h-450.56c-24.85,0 -47.25,-14.97 -56.76,-37.93c-9.51,-22.96 -4.25,-49.38 13.32,-66.96l7.76,-7.76h-76.95c-75.24,0 -136.53,-61.32 -136.53,-136.54v-450.56c0,-75.23 61.3,-136.53 136.53,-136.53h675.84c75.23,0 136.53,61.3 136.53,136.53zM638.29,699.73c0,-33.93 27.51,-61.44 61.44,-61.44h88.75v-327.68h-552.96v327.68h88.75c33.93,0 61.44,27.51 61.44,61.44v1.86l82.85,-82.85c23.99,-23.99 62.9,-23.99 86.89,0l82.85,82.85zM849.92,174.08h-675.84c-41.3,0 -75.09,33.79 -75.09,75.09v450.56c0,41.3 33.79,75.1 75.09,75.1h150.19v-75.1h-150.19v-450.56h675.84v450.56h-150.19v75.1h150.19c41.3,0 75.09,-33.8 75.09,-75.1v-450.56c0,-41.3 -33.79,-75.09 -75.09,-75.09zM286.72,887.47h450.56l-225.28,-225.28z" fill="currentColor"/>
		</g>
	</g>
</svg>