<svg version="1.1" xmlns="http://www.w3.org/2000/svg" xmlns:xlink="http://www.w3.org/1999/xlink" viewBox="0,0,1024,1024">
	<!-- Color names: teamapps-color-1 -->
	<desc>alarm_on icon - Licensed under Apache License v2.0 (http://www.apache.org/licenses/LICENSE-2.0) - Created with Iconfu.com - Derivative work of Material icons (Copyright Google Inc.)</desc>
	<g fill="none" fill-rule="nonzero" style="mix-blend-mode: normal">
		<g color="#039be5" class="teamapps-color-1">
			<path d="M911.36,549.55c0,220.54 -178.82,399.36 -399.36,399.36c-220.96,0 -399.36,-178.87 -399.36,-399.36c0,-59.42 12.98,-115.82 36.27,-166.5c-3.95,-2.87 -7.63,-6.26 -10.91,-10.16l-48.44,-57.45c-21.93,-26.01 -18.55,-64.89 7.54,-86.72l172.72,-144.56c26.03,-21.78 64.78,-18.34 86.56,7.69l48.06,57.45c3.47,4.14 6.29,8.61 8.49,13.28c31.68,-8.09 64.88,-12.39 99.08,-12.39c34.08,0 67.16,4.27 98.74,12.3c2.23,-4.71 5.09,-9.21 8.6,-13.37l48.44,-57.45c21.84,-25.9 60.51,-29.24 86.47,-7.46l172.72,144.93c26.04,21.85 29.39,60.68 7.48,86.67l-48.44,57.45c-3.25,3.86 -6.88,7.22 -10.79,10.07c23.2,50.61 36.14,106.91 36.14,166.23zM713.39,549.55c0,-10.44 -0.79,-20.7 -2.32,-30.71l-210.82,210.82c-8.82,8.82 -19.66,14.4 -31.03,16.74c13.78,2.97 28.1,4.54 42.78,4.54c111.38,0 201.39,-90.01 201.39,-201.38zM512,348.16c-94.56,0 -173.73,64.89 -195.47,152.65l17.24,-17.24c23.99,-23.99 62.89,-23.99 86.88,0l36.44,36.44l141.65,-142.23c2.34,-2.35 4.82,-4.47 7.42,-6.36c-28.09,-14.86 -60.13,-23.26 -94.17,-23.26zM343.1,659.39c15.34,23.56 35.48,43.7 59.04,59.04zM512,211.63c-186.6,0 -337.92,151.32 -337.92,337.92c0,186.6 150.94,337.92 337.92,337.92c186.6,0 337.92,-151.32 337.92,-337.92c0,-186.6 -151.32,-337.92 -337.92,-337.92zM512,812.37c-145.31,0 -262.83,-117.52 -262.83,-262.82c0,-145.31 117.52,-262.83 262.83,-262.83c145.31,0 262.83,117.52 262.83,262.83c0,145.31 -117.52,262.82 -262.83,262.82zM457.18,607l-79.97,-79.97l-39.8,39.79l119.4,119.4l225.28,-225.28l-39.8,-39.79zM887.47,276.2l-172.72,-144.93l-48.44,57.45l172.72,144.93zM357.3,188.72l-48.06,-57.45l-172.72,144.56l48.44,57.45z" fill="currentColor"/>
		</g>
	</g>
</svg>