<svg version="1.1" xmlns="http://www.w3.org/2000/svg" xmlns:xlink="http://www.w3.org/1999/xlink" viewBox="0,0,1024,1024">
	<!-- Color names: teamapps-color-1 -->
	<desc>album icon - Licensed under Apache License v2.0 (http://www.apache.org/licenses/LICENSE-2.0) - Created with Iconfu.com - Derivative work of Material icons (Copyright Google Inc.)</desc>
	<g fill="none" fill-rule="nonzero" style="mix-blend-mode: normal">
		<g color="#039be5" class="teamapps-color-1">
			<path d="M948.91,512c0,241.19 -195.72,436.91 -436.91,436.91c-241.19,0 -436.91,-195.72 -436.91,-436.91c0,-241.19 195.72,-436.91 436.91,-436.91c241.19,0 436.91,195.72 436.91,436.91zM619.52,512c0,-59.56 -47.96,-107.52 -107.52,-107.52c-59.56,0 -107.52,47.96 -107.52,107.52c0,59.56 47.96,107.52 107.52,107.52c59.56,0 107.52,-47.96 107.52,-107.52zM610.99,512c0,54.59 -44.4,98.99 -98.99,98.99c-54.59,0 -98.99,-44.4 -98.99,-98.99c0,-54.59 44.4,-98.99 98.99,-98.99c54.59,0 98.99,44.4 98.99,98.99zM512,136.53c-207.26,0 -375.47,168.21 -375.47,375.47c0,207.26 168.21,375.47 375.47,375.47c207.26,0 375.47,-168.21 375.47,-375.47c0,-207.26 -168.21,-375.47 -375.47,-375.47zM512,680.96c-93.49,0 -168.96,-75.47 -168.96,-168.96c0,-93.49 75.47,-168.96 168.96,-168.96c93.49,0 168.96,75.47 168.96,168.96c0,93.49 -75.47,168.96 -168.96,168.96zM512,474.45c-20.65,0 -37.55,16.9 -37.55,37.55c0,20.65 16.9,37.55 37.55,37.55c20.65,0 37.55,-16.9 37.55,-37.55c0,-20.65 -16.9,-37.55 -37.55,-37.55z" fill="currentColor"/>
		</g>
	</g>
</svg>