<svg version="1.1" xmlns="http://www.w3.org/2000/svg" xmlns:xlink="http://www.w3.org/1999/xlink" viewBox="0,0,1024,1024">
	<!-- Color names: teamapps-color-1 -->
	<desc>apps icon - Licensed under Apache License v2.0 (http://www.apache.org/licenses/LICENSE-2.0) - Created with Iconfu.com - Derivative work of Material icons (Copyright Google Inc.)</desc>
	<g fill="none" fill-rule="nonzero" style="mix-blend-mode: normal">
		<g color="#039be5" class="teamapps-color-1">
			<path d="M873.81,662.19v150.18c0,33.93 -27.51,61.44 -61.44,61.44h-150.18c-14.14,0 -27.17,-4.78 -37.55,-12.81c-10.38,8.03 -23.41,12.81 -37.55,12.81h-150.18c-14.14,0 -27.17,-4.78 -37.55,-12.81c-10.38,8.03 -23.41,12.81 -37.55,12.81h-150.18c-33.93,0 -61.44,-27.51 -61.44,-61.44v-150.18c0,-14.14 4.78,-27.17 12.81,-37.55c-8.03,-10.38 -12.81,-23.41 -12.81,-37.55v-150.18c0,-14.14 4.78,-27.17 12.81,-37.55c-8.03,-10.38 -12.81,-23.41 -12.81,-37.55v-150.18c0,-33.93 27.51,-61.44 61.44,-61.44h150.18c14.14,0 27.17,4.78 37.55,12.81c10.38,-8.03 23.41,-12.81 37.55,-12.81h150.18c14.14,0 27.17,4.78 37.55,12.81c10.38,-8.03 23.41,-12.81 37.55,-12.81h150.18c33.93,0 61.44,27.51 61.44,61.44v150.18c0,14.14 -4.78,27.17 -12.81,37.55c8.03,10.38 12.81,23.41 12.81,37.55v150.18c0,14.14 -4.78,27.17 -12.81,37.55c8.03,10.38 12.81,23.41 12.81,37.55zM211.63,361.81h150.18v-150.18h-150.18zM211.63,812.37h150.18v-150.18h-150.18zM211.63,587.09h150.18v-150.18h-150.18zM662.19,211.63v150.18h150.18v-150.18zM436.91,361.81h150.18v-150.18h-150.18zM436.91,812.37h150.18v-150.18h-150.18zM436.91,587.09h150.18v-150.18h-150.18zM662.19,587.09h150.18v-150.18h-150.18zM662.19,812.37h150.18v-150.18h-150.18z" fill="currentColor"/>
		</g>
	</g>
</svg>