<svg version="1.1" xmlns="http://www.w3.org/2000/svg" xmlns:xlink="http://www.w3.org/1999/xlink" viewBox="0,0,1024,1024">
	<!-- Color names: teamapps-color-1 -->
	<desc>assistant icon - Licensed under Apache License v2.0 (http://www.apache.org/licenses/LICENSE-2.0) - Created with Iconfu.com - Derivative work of Material icons (Copyright Google Inc.)</desc>
	<g fill="none" fill-rule="nonzero" style="mix-blend-mode: normal">
		<g color="#039be5" class="teamapps-color-1">
			<path d="M911.36,211.63v525.65c0,75.23 -61.3,136.53 -136.53,136.53h-124.74l-94.64,94.64c-23.99,23.99 -62.9,23.99 -86.89,0l-94.64,-94.64h-124.74c-75.23,0 -136.53,-61.3 -136.53,-136.53v-525.65c0,-75.22 61.29,-136.54 136.53,-136.54h525.66c75.24,0 136.53,61.32 136.53,136.54zM557.08,459.76c-13.46,-6.14 -24.25,-16.93 -30.39,-30.39l-14.69,-32.19l-14.69,32.19c-6.14,13.46 -16.93,24.25 -30.39,30.39l-32.2,14.69l32.2,14.7c13.46,6.14 24.25,16.93 30.39,30.39l14.69,32.19l14.69,-32.19c6.14,-13.46 16.93,-24.25 30.39,-30.39l32.2,-14.7zM774.83,136.53h-525.66c-41.3,0 -75.09,33.8 -75.09,75.1v525.65c0,41.3 33.79,75.09 75.09,75.09h150.19l112.64,112.64l112.64,-112.64h150.19c41.3,0 75.09,-33.79 75.09,-75.09v-525.65c0,-41.3 -33.79,-75.1 -75.09,-75.1zM582.58,545.04l-70.58,154.69l-70.58,-154.69l-154.7,-70.59l154.7,-70.58l70.58,-154.7l70.58,154.7l154.7,70.58z" fill="currentColor"/>
		</g>
	</g>
</svg>