<svg version="1.1" xmlns="http://www.w3.org/2000/svg" xmlns:xlink="http://www.w3.org/1999/xlink" viewBox="0,0,1024,1024">
	<!-- Color names: teamapps-color-1 -->
	<desc>assignment_ind icon - Licensed under Apache License v2.0 (http://www.apache.org/licenses/LICENSE-2.0) - Created with Iconfu.com - Derivative work of Material icons (Copyright Google Inc.)</desc>
	<g fill="none" fill-rule="nonzero" style="mix-blend-mode: normal">
		<g color="#039be5" class="teamapps-color-1">
			<path d="M911.36,249.17v525.66c0,75.23 -61.3,136.53 -136.53,136.53h-525.66c-75.23,0 -136.53,-61.3 -136.53,-136.53v-525.66c0,-75.23 61.3,-136.53 136.53,-136.53h120.15c31.21,-44.92 83.03,-75.09 142.68,-75.09c59.65,0 111.47,30.17 142.68,75.09h120.15c75.23,0 136.53,61.3 136.53,136.53zM512,667.31c-60.96,0 -129.64,26.14 -154.77,46.08h309.53c-25.13,-19.94 -93.81,-46.08 -154.77,-46.08zM460.8,436.91c0,28.4 22.8,51.2 51.2,51.2c28.4,0 51.2,-22.8 51.2,-51.2c0,-28.4 -22.8,-51.2 -51.2,-51.2c-28.4,0 -51.2,22.8 -51.2,51.2zM774.83,174.08h-156.95c-15.77,-43.55 -57.07,-75.09 -105.88,-75.09c-48.81,0 -90.11,31.54 -105.88,75.09h-156.95c-41.3,0 -75.09,33.79 -75.09,75.09v525.66c0,41.3 33.79,75.09 75.09,75.09h525.66c41.3,0 75.09,-33.79 75.09,-75.09v-525.66c0,-41.3 -33.79,-75.09 -75.09,-75.09zM737.28,774.83h-450.56v-52.57c0,-75.09 150.19,-116.39 225.28,-116.39c75.09,0 225.28,41.3 225.28,116.39zM512,324.27c62.33,0 112.64,50.31 112.64,112.64c0,62.33 -50.31,112.64 -112.64,112.64c-62.33,0 -112.64,-50.31 -112.64,-112.64c0,-62.33 50.31,-112.64 112.64,-112.64zM512,174.08c20.65,0 37.55,16.9 37.55,37.55c0,20.65 -16.9,37.54 -37.55,37.54c-20.65,0 -37.55,-16.89 -37.55,-37.54c0,-20.65 16.9,-37.55 37.55,-37.55z" fill="currentColor"/>
		</g>
	</g>
</svg>