<svg version="1.1" xmlns="http://www.w3.org/2000/svg" xmlns:xlink="http://www.w3.org/1999/xlink" viewBox="0,0,1024,1024">
	<!-- Color names: teamapps-color-1 -->
	<desc>bluetooth_audio icon - Licensed under Apache License v2.0 (http://www.apache.org/licenses/LICENSE-2.0) - Created with Iconfu.com - Derivative work of Material icons (Copyright Google Inc.)</desc>
	<g fill="none" fill-rule="nonzero" style="mix-blend-mode: normal">
		<g color="#039be5" class="teamapps-color-1">
			<path d="M694.74,716.52l-214.39,214.39c-11.52,11.52 -27.15,18 -43.45,18h-37.55c-33.93,0 -61.44,-27.51 -61.44,-61.44v-136.65l-67.45,67.45c-23.99,23.99 -62.9,23.99 -86.89,0l-52.94,-52.94c-23.99,-23.99 -23.99,-62.9 0,-86.89l166.44,-166.44l-166.44,-166.44c-23.99,-23.99 -23.99,-62.9 0,-86.89l52.94,-52.94c23.99,-23.99 62.9,-23.99 86.89,0l67.45,67.45v-136.65c0,-33.93 27.51,-61.44 61.44,-61.44h37.55c16.3,0 31.92,6.47 43.45,18l214.39,214.39c3.26,3.26 6.08,6.8 8.46,10.54l48.08,-48.1c13.31,-13.31 31.99,-19.79 50.69,-17.57c18.69,2.22 35.34,12.89 45.17,28.94c40.55,66.27 64.16,144.03 64.6,226.61c0,0.09 0,0.19 0,0.28c0,85.36 -24.98,165.01 -67.28,232.16c-9.96,15.81 -26.57,26.23 -45.14,28.31c-18.57,2.08 -37.08,-4.4 -50.29,-17.61l-45.54,-45.54c-2.44,3.91 -5.35,7.61 -8.75,11zM651.3,350.92l-214.39,-214.39h-37.55v284.98l-172.34,-172.34l-52.94,52.94l209.89,209.89l-209.89,209.89l52.94,52.94l172.34,-172.34v284.98h37.55l214.39,-214.39l-161.44,-161.08zM794.73,313.38l-47.31,47.31c23.65,45.43 36.79,96.49 36.79,150.94c0,54.45 -13.52,105.88 -36.79,150.94l45.06,45.06c36.42,-57.82 57.82,-126.16 57.82,-199.37c-0.38,-70.96 -20.65,-137.8 -55.57,-194.87zM596.1,512.38l87.11,87.1c10.52,-27.03 16.52,-56.69 16.52,-87.48c0,-30.79 -6,-59.7 -16.14,-86.73zM474.45,280.34l70.59,70.58l-70.59,70.58zM545.04,673.08l-70.59,70.58v-141.17z" fill="currentColor"/>
		</g>
	</g>
</svg>