<svg version="1.1" xmlns="http://www.w3.org/2000/svg" xmlns:xlink="http://www.w3.org/1999/xlink" viewBox="0,0,1024,1024">
	<!-- Color names: teamapps-color-1 -->
	<desc>blur_linear icon - Licensed under Apache License v2.0 (http://www.apache.org/licenses/LICENSE-2.0) - Created with Iconfu.com - Derivative work of Material icons (Copyright Google Inc.)</desc>
	<g fill="none" fill-rule="nonzero" style="mix-blend-mode: normal">
		<g color="#039be5" class="teamapps-color-1">
			<path d="M849.92,713.39c33.93,0 61.44,27.51 61.44,61.44v75.09c0,33.93 -27.51,61.44 -61.44,61.44h-675.84c-33.93,0 -61.44,-27.51 -61.44,-61.44v-75.09c0,-24.01 13.77,-44.8 33.84,-54.91c-9.6,-17.05 -15.07,-36.75 -15.07,-57.73c0,-28.56 10.14,-54.72 27.01,-75.09c-16.87,-20.38 -27.01,-46.54 -27.01,-75.09c0,-28.56 10.14,-54.72 27.01,-75.09c-16.87,-20.38 -27.01,-46.54 -27.01,-75.09c0,-20.98 5.47,-40.68 15.07,-57.73c-20.07,-10.11 -33.84,-30.9 -33.84,-54.91v-75.09c0,-33.93 27.51,-61.44 61.44,-61.44h675.84c33.93,0 61.44,27.51 61.44,61.44v75.09c0,33.93 -27.51,61.44 -61.44,61.44h-88.34c11.48,13.86 18.37,31.69 18.37,51.2c0,34.45 -21.49,63.69 -51.85,75.1c30.35,11.4 51.85,40.61 51.85,75.09c0,34.48 -21.51,63.69 -51.85,75.09c30.36,11.41 51.85,40.65 51.85,75.1c0,19.51 -6.89,37.34 -18.37,51.2zM635.79,410.37c-5.69,10.07 -13.09,19.05 -21.81,26.54c8.72,7.49 16.12,16.47 21.81,26.54c9.03,-11.9 21.33,-21.18 35.58,-26.54c-14.25,-5.36 -26.54,-14.64 -35.58,-26.54zM613.98,587.09c8.72,7.49 16.12,16.47 21.81,26.54c9.03,-11.9 21.32,-21.19 35.58,-26.54c-14.25,-5.35 -26.54,-14.63 -35.58,-26.54c-5.69,10.07 -13.09,19.05 -21.81,26.54zM634.24,310.61c0.53,0.87 1.05,1.76 1.55,2.65c0.68,-0.9 1.38,-1.78 2.1,-2.65zM634.24,713.39h3.65c-0.72,-0.87 -1.42,-1.75 -2.1,-2.65c-0.5,0.89 -1.02,1.77 -1.55,2.65zM474.45,576.43c-3.28,3.82 -6.85,7.38 -10.66,10.66c3.82,3.28 7.38,6.85 10.66,10.66c3.28,-3.82 6.85,-7.38 10.66,-10.66c-3.82,-3.28 -7.38,-6.85 -10.66,-10.66zM463.79,436.91c3.82,3.28 7.38,6.85 10.66,10.66c3.28,-3.82 6.85,-7.38 10.66,-10.66c-3.82,-3.28 -7.38,-6.85 -10.66,-10.66c-3.28,3.82 -6.85,7.38 -10.66,10.66zM174.08,849.92h675.84v-75.09h-675.84zM174.08,174.08v75.09h675.84v-75.09zM249.17,718.51c31.16,0 56.32,-25.16 56.32,-56.32c0,-31.16 -25.16,-56.32 -56.32,-56.32c-31.16,0 -56.32,25.16 -56.32,56.32c0,31.16 25.16,56.32 56.32,56.32zM249.17,418.13c31.16,0 56.32,-25.16 56.32,-56.32c0,-31.16 -25.16,-56.32 -56.32,-56.32c-31.16,0 -56.32,25.16 -56.32,56.32c0,31.16 25.16,56.32 56.32,56.32zM249.17,568.32c31.16,0 56.32,-25.16 56.32,-56.32c0,-31.16 -25.16,-56.32 -56.32,-56.32c-31.16,0 -56.32,25.16 -56.32,56.32c0,31.16 25.16,56.32 56.32,56.32zM399.36,399.36c20.65,0 37.55,-16.9 37.55,-37.55c0,-20.65 -16.9,-37.54 -37.55,-37.54c-20.65,0 -37.55,16.89 -37.55,37.54c0,20.65 16.9,37.55 37.55,37.55zM399.36,549.55c20.65,0 37.55,-16.9 37.55,-37.55c0,-20.65 -16.9,-37.55 -37.55,-37.55c-20.65,0 -37.55,16.9 -37.55,37.55c0,20.65 16.9,37.55 37.55,37.55zM549.55,399.36c20.65,0 37.54,-16.9 37.54,-37.55c0,-20.65 -16.89,-37.54 -37.54,-37.54c-20.65,0 -37.55,16.89 -37.55,37.54c0,20.65 16.9,37.55 37.55,37.55zM399.36,699.73c20.65,0 37.55,-16.89 37.55,-37.54c0,-20.65 -16.9,-37.55 -37.55,-37.55c-20.65,0 -37.55,16.9 -37.55,37.55c0,20.65 16.9,37.54 37.55,37.54zM549.55,549.55c20.65,0 37.54,-16.9 37.54,-37.55c0,-20.65 -16.89,-37.55 -37.54,-37.55c-20.65,0 -37.55,16.9 -37.55,37.55c0,20.65 16.9,37.55 37.55,37.55zM549.55,699.73c20.65,0 37.54,-16.89 37.54,-37.54c0,-20.65 -16.89,-37.55 -37.54,-37.55c-20.65,0 -37.55,16.9 -37.55,37.55c0,20.65 16.9,37.54 37.55,37.54zM699.73,680.96c10.52,0 18.78,-8.25 18.78,-18.77c0,-10.52 -8.26,-18.78 -18.78,-18.78c-10.52,0 -18.77,8.26 -18.77,18.78c0,10.52 8.25,18.77 18.77,18.77zM699.73,380.59c10.52,0 18.78,-8.26 18.78,-18.78c0,-10.52 -8.26,-18.77 -18.78,-18.77c-10.52,0 -18.77,8.25 -18.77,18.77c0,10.52 8.25,18.78 18.77,18.78zM699.73,530.77c10.52,0 18.78,-8.25 18.78,-18.77c0,-10.52 -8.26,-18.77 -18.78,-18.77c-10.52,0 -18.77,8.25 -18.77,18.77c0,10.52 8.25,18.77 18.77,18.77z" fill="currentColor"/>
		</g>
	</g>
</svg>