<svg version="1.1" xmlns="http://www.w3.org/2000/svg" xmlns:xlink="http://www.w3.org/1999/xlink" viewBox="0,0,1024,1024">
	<!-- Color names: teamapps-color-1 -->
	<desc>border_bottom icon - Licensed under Apache License v2.0 (http://www.apache.org/licenses/LICENSE-2.0) - Created with Iconfu.com - Derivative work of Material icons (Copyright Google Inc.)</desc>
	<g fill="none" fill-rule="nonzero" style="mix-blend-mode: normal">
		<g color="#039be5" class="teamapps-color-1">
			<path d="M414.53,713.39c-1,-4.39 -1.52,-8.96 -1.52,-13.66v-75.09c0,-5.41 0.7,-10.66 2.02,-15.67c-5,1.31 -10.25,2.02 -15.67,2.02h-75.09c-5.42,0 -10.67,-0.7 -15.67,-2.02c1.32,5 2.02,10.25 2.02,15.67v75.09c0,4.69 -0.53,9.27 -1.52,13.66zM112.64,549.55v-75.1c0,-14.14 4.78,-27.16 12.8,-37.55c-8.03,-10.38 -12.8,-23.41 -12.8,-37.55v-75.09c0,-14.14 4.78,-27.17 12.81,-37.55c-8.03,-10.38 -12.81,-23.41 -12.81,-37.55v-75.09c0,-33.93 27.51,-61.44 61.44,-61.44h75.09c14.14,0 27.17,4.78 37.55,12.81c10.38,-8.03 23.41,-12.81 37.55,-12.81h75.09c14.14,0 27.16,4.78 37.55,12.8c10.38,-8.03 23.41,-12.8 37.55,-12.8h75.1c14.14,0 27.16,4.78 37.55,12.8c10.38,-8.03 23.41,-12.8 37.55,-12.8h75.09c14.14,0 27.17,4.78 37.55,12.81c10.38,-8.03 23.41,-12.81 37.55,-12.81h75.09c33.93,0 61.44,27.51 61.44,61.44v75.09c0,14.14 -4.78,27.17 -12.81,37.55c8.03,10.38 12.81,23.41 12.81,37.55v75.09c0,14.14 -4.78,27.16 -12.8,37.55c8.03,10.38 12.8,23.41 12.8,37.55v75.1c0,14.14 -4.78,27.16 -12.8,37.55c8.03,10.38 12.8,23.41 12.8,37.55v75.09c0,14.14 -4.78,27.17 -12.81,37.55c8.03,10.38 12.81,23.41 12.81,37.55v75.09c0,33.93 -27.51,61.44 -61.44,61.44h-675.84c-33.93,0 -61.44,-27.51 -61.44,-61.44v-75.09c0,-14.14 4.78,-27.17 12.81,-37.55c-8.03,-10.38 -12.81,-23.41 -12.81,-37.55v-75.09c0,-14.14 4.78,-27.16 12.8,-37.55c-8.03,-10.38 -12.8,-23.41 -12.8,-37.55zM324.27,413.01h75.09c5.41,0 10.66,0.7 15.67,2.02c-1.31,-5 -2.02,-10.25 -2.02,-15.67v-75.09c0,-5.42 0.7,-10.67 2.02,-15.67c-5,1.32 -10.25,2.02 -15.67,2.02h-75.09c-5.42,0 -10.67,-0.7 -15.68,-2.02c1.32,5 2.02,10.26 2.02,15.68v75.09c0,5.41 -0.7,10.67 -2.02,15.67c5,-1.32 10.26,-2.02 15.67,-2.02zM699.73,310.61h-75.09c-5.41,0 -10.67,-0.7 -15.67,-2.02c1.32,5 2.02,10.26 2.02,15.67v75.09c0,5.41 -0.7,10.66 -2.02,15.67c5,-1.31 10.25,-2.02 15.67,-2.02h75.09c5.42,0 10.67,0.7 15.67,2.02c-1.32,-5 -2.02,-10.25 -2.02,-15.67v-75.09c0,-5.42 0.7,-10.67 2.02,-15.68c-5,1.32 -10.26,2.02 -15.68,2.02zM699.73,610.99h-75.09c-5.41,0 -10.66,-0.7 -15.67,-2.02c1.31,5 2.02,10.25 2.02,15.67v75.09c0,4.69 -0.53,9.27 -1.52,13.66h105.45c-1,-4.39 -1.52,-8.96 -1.52,-13.66v-75.09c0,-5.41 0.7,-10.67 2.02,-15.67c-5,1.32 -10.26,2.02 -15.67,2.02zM174.08,849.92h675.84v-75.09h-675.84zM774.83,399.36h75.09v-75.09h-75.09zM399.36,474.45h-75.09v75.1h75.09zM399.36,174.08h-75.09v75.09h75.09zM549.55,324.27h-75.1v75.09h75.1zM774.83,549.55h75.09v-75.1h-75.09zM249.17,324.27h-75.09v75.09h75.09zM774.83,174.08v75.09h75.09v-75.09zM549.55,474.45h-75.1v75.1h75.1zM249.17,174.08h-75.09v75.09h75.09zM549.55,174.08h-75.1v75.09h75.1zM774.83,699.73h75.09v-75.09h-75.09zM249.17,474.45h-75.09v75.1h75.09zM549.55,624.64h-75.1v75.09h75.1zM699.73,474.45h-75.09v75.1h75.09zM699.73,174.08h-75.09v75.09h75.09zM249.17,624.64h-75.09v75.09h75.09z" fill="currentColor"/>
		</g>
	</g>
</svg>