<svg version="1.1" xmlns="http://www.w3.org/2000/svg" xmlns:xlink="http://www.w3.org/1999/xlink" viewBox="0,0,1024,1024">
	<!-- Color names: teamapps-color-1 -->
	<desc>brightness_5 icon - Licensed under Apache License v2.0 (http://www.apache.org/licenses/LICENSE-2.0) - Created with Iconfu.com - Derivative work of Material icons (Copyright Google Inc.)</desc>
	<g fill="none" fill-rule="nonzero" style="mix-blend-mode: normal">
		<g color="#039be5" class="teamapps-color-1">
			<path d="M812.37,873.81h-150.64l-106.29,106.29c-23.99,23.99 -62.9,23.99 -86.89,0l-106.29,-106.29h-150.64c-33.93,0 -61.44,-27.51 -61.44,-61.44v-150.64l-106.29,-106.29c-23.99,-23.99 -23.99,-62.9 0,-86.89l106.29,-106.29v-150.64c0,-33.93 27.51,-61.44 61.44,-61.44h150.64l106.29,-106.29c23.99,-23.99 62.9,-23.99 86.89,0l106.29,106.29h150.64c33.93,0 61.44,27.51 61.44,61.44v150.64l106.29,106.29c23.99,23.99 23.99,62.9 0,86.89l-106.29,106.29v150.64c0,33.93 -27.51,61.44 -61.44,61.44zM675.84,512c0,-90.35 -73.49,-163.84 -163.84,-163.84c-90.35,0 -163.84,73.49 -163.84,163.84c0,90.35 73.49,163.84 163.84,163.84c90.35,0 163.84,-73.49 163.84,-163.84zM812.37,636.28l124.28,-124.28l-124.28,-124.28v-176.09h-176.09l-124.28,-124.28l-124.28,124.28h-176.09v176.09l-124.28,124.28l124.28,124.28v176.09h176.09l124.28,124.28l124.28,-124.28h176.09zM512,737.28c-124.28,0 -225.28,-101 -225.28,-225.28c0,-124.28 101,-225.28 225.28,-225.28c124.28,0 225.28,101 225.28,225.28c0,124.28 -101,225.28 -225.28,225.28z" fill="currentColor"/>
		</g>
	</g>
</svg>