<svg version="1.1" xmlns="http://www.w3.org/2000/svg" xmlns:xlink="http://www.w3.org/1999/xlink" viewBox="0,0,1024,1024">
	<!-- Color names: teamapps-color-1 -->
	<desc>brush icon - Licensed under Apache License v2.0 (http://www.apache.org/licenses/LICENSE-2.0) - Created with Iconfu.com - Derivative work of Material icons (Copyright Google Inc.)</desc>
	<g fill="none" fill-rule="nonzero" style="mix-blend-mode: normal">
		<g color="#039be5" class="teamapps-color-1">
			<path d="M546.05,668.09c-13.22,13.22 -30.96,19.15 -48.24,17.81c0.36,4.56 0.54,9.18 0.54,13.84c0,116.91 -94.72,211.63 -211.63,211.63c-76.03,0 -153.13,-38.38 -199.25,-99.54c-14.03,-18.6 -16.33,-43.54 -5.93,-64.4c10.39,-20.85 31.68,-34.03 54.97,-34.03c1.31,-0.04 5.85,-1.18 9.62,-4.49c2.65,-2.33 4.06,-4.79 4.06,-9.17c0,-96.26 77.82,-174.08 174.08,-174.08c4.66,0 9.27,0.18 13.84,0.54c-1.35,-17.28 4.59,-35.03 17.81,-48.24l336.42,-336.42c38.64,-38.64 101.19,-38.64 139.83,0l50.32,50.32c38.64,38.64 38.64,101.19 0,139.83zM839.03,235.28l-50.32,-50.32c-14.64,-14.64 -38.3,-14.64 -52.94,0l-336.42,336.42l103.25,103.25l336.42,-336.42c14.64,-14.64 14.64,-38.3 0,-52.94zM324.27,587.09c-62.33,0 -112.64,50.31 -112.64,112.64c0,49.18 -43.56,75.1 -75.1,75.1c34.54,45.8 93.49,75.09 150.19,75.09c82.98,0 150.19,-67.21 150.19,-150.19c0,-62.33 -50.31,-112.64 -112.64,-112.64z" fill="currentColor"/>
		</g>
	</g>
</svg>