<svg version="1.1" xmlns="http://www.w3.org/2000/svg" xmlns:xlink="http://www.w3.org/1999/xlink" viewBox="0,0,1024,1024">
	<!-- Color names: teamapps-color-1 -->
	<desc>bug_report icon - Licensed under Apache License v2.0 (http://www.apache.org/licenses/LICENSE-2.0) - Created with Iconfu.com - Derivative work of Material icons (Copyright Google Inc.)</desc>
	<g fill="none" fill-rule="nonzero" style="mix-blend-mode: normal">
		<g color="#039be5" class="teamapps-color-1">
			<path d="M873.81,512v75.09c0,14.14 -4.78,27.17 -12.81,37.55c8.03,10.38 12.81,23.41 12.81,37.55v75.09c0,33.93 -27.51,61.44 -61.44,61.44h-72.85c-52.23,68.17 -134.45,112.64 -227.52,112.64c-93.07,0 -175.28,-44.47 -227.52,-112.64h-72.85c-33.93,0 -61.44,-27.51 -61.44,-61.44v-75.09c0,-14.14 4.78,-27.17 12.81,-37.55c-8.03,-10.38 -12.81,-23.41 -12.81,-37.55v-75.09c0,-14.14 4.78,-27.16 12.8,-37.55c-8.03,-10.38 -12.8,-23.41 -12.8,-37.55v-75.1c0,-33.93 27.51,-61.44 61.44,-61.44h72.76c3.78,-4.95 7.71,-9.77 11.79,-14.46l-15.48,-15.58c-23.87,-24.02 -23.81,-62.81 0.13,-86.75l52.94,-52.94c23.96,-23.96 62.78,-24 86.79,-0.1l59.29,59.02c10.51,-1.2 21.23,-1.82 32.16,-1.82c11.03,0 21.82,0.64 32.41,1.85l58.94,-58.94c23.99,-24 62.9,-24 86.89,0l52.94,52.94c23.99,23.99 23.99,62.89 0,86.89l-15.41,15.41c4.1,4.7 8.05,9.54 11.84,14.5h72.76c33.93,0 61.44,27.51 61.44,61.44v75.1c0,14.14 -4.78,27.16 -12.8,37.55c8.03,10.38 12.8,23.41 12.8,37.55zM812.37,361.81h-105.5c-16.9,-29.29 -40.17,-54.44 -68.33,-73.59l61.2,-61.2l-52.94,-52.94l-81.47,81.48c-17.27,-4.13 -34.92,-6.39 -53.32,-6.39c-18.4,0 -36.04,2.26 -52.94,6.39l-81.85,-81.48l-52.94,52.94l60.83,61.2c-27.78,19.15 -51.07,44.3 -67.96,73.59h-105.5v75.1h78.47c-1.87,12.39 -3.38,24.77 -3.38,37.54v37.55h-75.09v75.09h75.09v37.55c0,12.77 1.5,25.16 3.38,37.55h-78.47v75.09h105.5c39.05,67.21 111.51,112.64 194.87,112.64c83.35,0 155.82,-45.43 194.87,-112.64h105.5v-75.09h-78.47c1.87,-12.39 3.38,-24.78 3.38,-37.55v-37.55h75.09v-75.09h-75.09v-37.55c0,-12.77 -1.5,-25.15 -3.38,-37.54h78.47zM587.09,662.19h-150.18v-75.1h150.18zM587.09,512h-150.18v-75.09h150.18z" fill="currentColor"/>
		</g>
	</g>
</svg>