<svg version="1.1" xmlns="http://www.w3.org/2000/svg" xmlns:xlink="http://www.w3.org/1999/xlink" viewBox="0,0,1024,1024">
	<!-- Color names: teamapps-color-1 -->
	<desc>burst_mode icon - Licensed under Apache License v2.0 (http://www.apache.org/licenses/LICENSE-2.0) - Created with Iconfu.com - Derivative work of Material icons (Copyright Google Inc.)</desc>
	<g fill="none" fill-rule="nonzero" style="mix-blend-mode: normal">
		<g color="#039be5" class="teamapps-color-1">
			<path d="M986.45,286.72v450.56c0,54.57 -44.38,98.99 -98.98,98.99h-450.56c-24.46,0 -46.88,-8.92 -64.17,-23.67c-11.24,14.41 -28.77,23.67 -48.47,23.67h-75.1c-14.14,0 -27.16,-4.78 -37.55,-12.8c-10.38,8.03 -23.41,12.8 -37.55,12.8h-75.09c-33.93,0 -61.44,-27.51 -61.44,-61.44v-525.66c0,-33.93 27.51,-61.44 61.44,-61.44h75.09c14.14,0 27.16,4.78 37.55,12.8c10.38,-8.03 23.41,-12.8 37.55,-12.8h75.1c19.69,0 37.22,9.27 48.47,23.67c17.29,-14.76 39.71,-23.67 64.17,-23.67h450.56c54.61,0 98.98,44.42 98.98,98.99zM887.47,249.17h-450.56c-20.65,0 -37.55,16.9 -37.55,37.55v450.56c0,20.65 16.9,37.55 37.55,37.55h450.56c20.65,0 37.54,-16.9 37.54,-37.55v-450.56c0,-20.65 -16.89,-37.55 -37.54,-37.55zM474.45,699.73l93.87,-118.27l67.21,80.73l93.87,-120.9l120.52,158.44zM98.99,774.83h75.09v-525.66h-75.09zM249.17,774.83h75.1v-525.66h-75.1z" fill="currentColor"/>
		</g>
	</g>
</svg>