<svg version="1.1" xmlns="http://www.w3.org/2000/svg" xmlns:xlink="http://www.w3.org/1999/xlink" viewBox="0,0,1024,1024">
	<!-- Color names: teamapps-color-1 -->
	<desc>cake icon - Licensed under Apache License v2.0 (http://www.apache.org/licenses/LICENSE-2.0) - Created with Iconfu.com - Derivative work of Material icons (Copyright Google Inc.)</desc>
	<g fill="none" fill-rule="nonzero" style="mix-blend-mode: normal">
		<g color="#039be5" class="teamapps-color-1">
			<path d="M910.98,512.17v57.66c0,23.43 -5.99,45.47 -16.52,64.69c10.68,11.24 16.89,26.32 16.89,42.32v173.09c0,54.59 -44.4,98.99 -98.99,98.99h-600.74c-54.59,0 -98.99,-44.4 -98.99,-98.99v-173.09c0,-15.88 6.12,-30.85 16.66,-42.07c-10.61,-19.28 -16.66,-41.41 -16.66,-64.94v-57.82c0,-96.26 77.82,-174.08 174.08,-174.08h126.29v-13.65c0,-5.7 0.78,-11.21 2.23,-16.45c-24.56,-24.71 -39.77,-58.72 -39.77,-96.19c0,-24.79 6.47,-48.98 19.63,-70.28l63.66,-110.56c10.97,-19.05 31.27,-30.78 53.25,-30.78c21.98,0 42.28,11.74 53.25,30.78l63.66,110.56c13.16,21.3 19.63,45.49 19.63,70.28c0,37.46 -15.14,71.55 -39.74,96.3c1.43,5.2 2.2,10.68 2.2,16.34v13.65h126.29c96.12,0 174.18,77.71 173.7,174.25zM737.28,399.36h-187.73v-75.09h-75.1v75.09h-187.73c-62.33,0 -112.64,50.31 -112.64,112.64v57.82c0,40.55 33.04,73.59 73.59,73.59c19.53,0 38.3,-7.51 51.81,-21.4l80.34,-79.97l79.97,79.97c27.78,27.78 76.23,27.78 104.01,0l80.35,-79.97l79.97,79.97c13.9,13.9 32.29,21.4 51.81,21.4c40.55,0 73.59,-33.04 73.59,-73.59v-57.82c0.38,-62.33 -49.93,-112.64 -112.26,-112.64zM684.72,661.81l-40.18,-40.17l-40.55,40.17c-48.81,48.81 -134.42,49.18 -183.6,0l-40.17,-40.17l-40.93,40.17c-24.4,24.4 -57.07,37.92 -91.61,37.92c-27.41,0 -52.57,-8.63 -73.59,-22.9v173.09c0,20.65 16.9,37.55 37.55,37.55h600.74c20.65,0 37.55,-16.9 37.55,-37.55v-173.09c-21.02,14.26 -46.18,22.9 -73.59,22.9c-34.54,0 -67.21,-13.52 -91.61,-37.92zM512,286.72c41.68,0 75.09,-33.79 75.09,-75.09c0,-14.26 -3.75,-27.41 -10.89,-38.68l-64.2,-111.51l-64.2,111.51c-7.14,11.26 -10.89,24.41 -10.89,38.68c0,41.3 33.79,75.09 75.09,75.09z" fill="currentColor"/>
		</g>
	</g>
</svg>