<svg version="1.1" xmlns="http://www.w3.org/2000/svg" xmlns:xlink="http://www.w3.org/1999/xlink" viewBox="0,0,1024,1024">
	<!-- Color names: teamapps-color-1 -->
	<desc>call_split icon - Licensed under Apache License v2.0 (http://www.apache.org/licenses/LICENSE-2.0) - Created with Iconfu.com - Derivative work of Material icons (Copyright Google Inc.)</desc>
	<g fill="none" fill-rule="nonzero" style="mix-blend-mode: normal">
		<g color="#039be5" class="teamapps-color-1">
			<path d="M437.77,297.65l75.18,75.32c2.39,-3.79 5.24,-7.37 8.54,-10.68l64.69,-64.69l-42.54,-42.53c-17.57,-17.57 -22.83,-44 -13.32,-66.96c9.51,-22.96 31.91,-37.93 56.76,-37.93h225.28c33.93,0 61.44,27.51 61.44,61.44v225.28c0,24.85 -14.97,47.25 -37.93,56.76c-22.96,9.51 -49.39,4.25 -66.96,-13.32l-42.53,-42.54l-64.69,64.69c-13.85,13.85 -32.67,19.7 -50.72,17.57v292.3c0,33.93 -27.51,61.44 -61.44,61.44h-75.1c-33.93,0 -61.44,-27.51 -61.44,-61.44v-259.49l-115.36,-115.11l-42.58,42.58c-17.57,17.57 -44,22.83 -66.96,13.32c-22.96,-9.51 -37.93,-31.91 -37.93,-56.76v-225.28c0,-33.93 27.51,-61.44 61.44,-61.44h225.28c24.85,0 47.25,14.97 56.76,37.93c9.51,22.96 4.25,49.39 -13.32,66.96zM436.91,211.63h-225.28v225.28l85.98,-85.98l176.84,176.47v284.98h75.1v-315.76l-198.62,-199zM587.09,211.63l85.98,85.98l-108.13,108.13l53.32,53.32l108.13,-108.13l85.98,85.98v-225.28z" fill="currentColor"/>
		</g>
	</g>
</svg>