<svg version="1.1" xmlns="http://www.w3.org/2000/svg" xmlns:xlink="http://www.w3.org/1999/xlink" viewBox="0,0,1024,1024">
	<!-- Color names: teamapps-color-1 -->
	<desc>camera_roll icon - Licensed under Apache License v2.0 (http://www.apache.org/licenses/LICENSE-2.0) - Created with Iconfu.com - Derivative work of Material icons (Copyright Google Inc.)</desc>
	<g fill="none" fill-rule="nonzero" style="mix-blend-mode: normal">
		<g color="#039be5" class="teamapps-color-1">
			<path d="M948.91,249.17v563.2c0,33.93 -27.51,61.44 -61.44,61.44h-253.59c-22.53,44.48 -68.67,75.1 -121.88,75.1h-300.37c-75.23,0 -136.54,-61.31 -136.54,-136.54v-563.2c0,-67.97 50.03,-124.55 115.15,-134.85c10.11,-43.93 49.54,-76.77 96.48,-76.77h150.19c46.95,0 86.36,32.84 96.47,76.76c43.99,6.95 81.05,35.02 100.5,73.42h253.59c33.93,0 61.44,27.51 61.44,61.44zM587.09,249.17c0,-41.3 -33.79,-75.09 -75.09,-75.09h-37.55v-37.55c0,-20.65 -16.89,-37.54 -37.54,-37.54h-150.19c-20.65,0 -37.55,16.89 -37.55,37.54v37.55h-37.54c-41.3,0 -75.1,33.79 -75.1,75.09v563.2c0,41.3 33.8,75.1 75.1,75.1h300.37c41.3,0 75.09,-33.8 75.09,-75.1h300.38v-563.2zM512,737.28h-75.09v-75.09h75.09zM512,399.36h-75.09v-75.09h75.09zM662.19,737.28h-75.1v-75.09h75.1zM662.19,399.36h-75.1v-75.09h75.1zM812.37,737.28h-75.09v-75.09h75.09zM812.37,399.36h-75.09v-75.09h75.09z" fill="currentColor"/>
		</g>
	</g>
</svg>