<svg version="1.1" xmlns="http://www.w3.org/2000/svg" xmlns:xlink="http://www.w3.org/1999/xlink" viewBox="0,0,1024,1024">
	<!-- Color names: teamapps-color-1 -->
	<desc>casino icon - Licensed under Apache License v2.0 (http://www.apache.org/licenses/LICENSE-2.0) - Created with Iconfu.com - Derivative work of Material icons (Copyright Google Inc.)</desc>
	<g fill="none" fill-rule="nonzero" style="mix-blend-mode: normal">
		<g color="#039be5" class="teamapps-color-1">
			<path d="M911.36,249.17v525.66c0,75.23 -61.3,136.53 -136.53,136.53h-525.66c-75.23,0 -136.53,-61.3 -136.53,-136.53v-525.66c0,-75.23 61.3,-136.53 136.53,-136.53h525.66c75.23,0 136.53,61.3 136.53,136.53zM774.83,174.08h-525.66c-41.3,0 -75.09,33.79 -75.09,75.09v525.66c0,41.3 33.79,75.09 75.09,75.09h525.66c41.3,0 75.09,-33.79 75.09,-75.09v-525.66c0,-41.3 -33.79,-75.09 -75.09,-75.09zM343.04,737.28c-31.16,0 -56.32,-25.16 -56.32,-56.32c0,-31.16 25.16,-56.32 56.32,-56.32c31.16,0 56.32,25.16 56.32,56.32c0,31.16 -25.16,56.32 -56.32,56.32zM343.04,399.36c-31.16,0 -56.32,-25.16 -56.32,-56.32c0,-31.16 25.16,-56.32 56.32,-56.32c31.16,0 56.32,25.16 56.32,56.32c0,31.16 -25.16,56.32 -56.32,56.32zM512,568.32c-31.16,0 -56.32,-25.16 -56.32,-56.32c0,-31.16 25.16,-56.32 56.32,-56.32c31.16,0 56.32,25.16 56.32,56.32c0,31.16 -25.16,56.32 -56.32,56.32zM680.96,737.28c-31.16,0 -56.32,-25.16 -56.32,-56.32c0,-31.16 25.16,-56.32 56.32,-56.32c31.16,0 56.32,25.16 56.32,56.32c0,31.16 -25.16,56.32 -56.32,56.32zM680.96,399.36c-31.16,0 -56.32,-25.16 -56.32,-56.32c0,-31.16 25.16,-56.32 56.32,-56.32c31.16,0 56.32,25.16 56.32,56.32c0,31.16 -25.16,56.32 -56.32,56.32z" fill="currentColor"/>
		</g>
	</g>
</svg>