<svg version="1.1" xmlns="http://www.w3.org/2000/svg" xmlns:xlink="http://www.w3.org/1999/xlink" viewBox="0,0,1024,1024">
	<!-- Color names: teamapps-color-1 -->
	<desc>child_care icon - Licensed under Apache License v2.0 (http://www.apache.org/licenses/LICENSE-2.0) - Created with Iconfu.com - Derivative work of Material icons (Copyright Google Inc.)</desc>
	<g fill="none" fill-rule="nonzero" style="mix-blend-mode: normal">
		<g color="#039be5" class="teamapps-color-1">
			<path d="M861.45,704.9c-22.08,39.74 -50.91,75.49 -84.42,105.29c-70.49,62.93 -163.36,101.17 -265.03,101.17c-101.6,0 -194.52,-38.19 -264.72,-101.24c-33.38,-29.69 -62.26,-65.16 -84.42,-105.22c-63.22,-28.39 -110.18,-86.86 -122.12,-157.36c-2.19,-11.73 -3.2,-23.62 -3.2,-35.55c0,-11.92 1.01,-23.79 3.19,-35.51c11.94,-70.95 58.99,-129.11 122.12,-157.4c22.14,-40.09 51.14,-75.96 85.36,-106.12c70.19,-62.58 162.67,-100.32 263.78,-100.32c101.19,0 193.73,37.8 263.94,100.46c33.77,30.07 62.73,65.64 85.11,105.95c63.26,28.37 110.27,86.86 122.2,157.4c2.19,11.73 3.2,23.62 3.2,35.55c0,11.92 -1.01,23.79 -3.19,35.51c-11.93,70.91 -58.94,129.08 -121.81,157.38zM788.48,512c0,-6.91 -5.52,-12.86 -12.28,-13.58c-1.45,0.21 -3.53,0.49 -6.11,0.74c-23,2.32 -44.75,-8.44 -57.13,-26.81c-3.14,20.33 -11.92,38.79 -24.7,53.73c12.54,1.5 24.24,6.82 33.57,15.13c12.61,-11.85 30.04,-18.22 48.26,-16.38c2.58,0.26 4.66,0.54 6.11,0.74c6.76,-0.72 12.28,-6.67 12.28,-13.58zM512,310.61c-45.02,0 -86.55,14.78 -120.08,39.89c8.39,-2.08 17.17,-3.19 26.21,-3.19c40.1,0 75.13,21.78 93.87,54.16c18.74,-32.39 53.77,-54.16 93.87,-54.16c9.04,0 17.82,1.11 26.21,3.19c-33.53,-25.11 -75.06,-39.89 -120.08,-39.89zM253.91,499.17c-2.58,-0.26 -4.66,-0.54 -6.11,-0.74c-6.76,0.72 -12.28,6.67 -12.28,13.58c0,6.91 5.52,12.86 12.28,13.58c1.45,-0.21 3.53,-0.49 6.11,-0.74c18.22,-1.83 35.65,4.53 48.26,16.38c9.33,-8.31 21.03,-13.63 33.57,-15.13c-12.78,-14.94 -21.57,-33.4 -24.7,-53.73c-12.37,18.38 -34.12,29.13 -57.13,26.81zM523.1,525.65c-4.15,-4.9 -7.87,-10.17 -11.1,-15.76c-3.24,5.59 -6.96,10.86 -11.1,15.76zM605.87,502.61c25.92,0 46.93,-21.01 46.93,-46.93c0,-25.92 -21.01,-46.93 -46.93,-46.93c-25.92,0 -46.94,21.01 -46.94,46.93c0,25.92 21.01,46.93 46.94,46.93zM418.13,502.61c25.92,0 46.94,-21.01 46.94,-46.93c0,-25.92 -21.01,-46.93 -46.94,-46.93c-25.92,0 -46.93,21.01 -46.93,46.93c0,25.92 21.01,46.93 46.93,46.93zM922.76,536.78c1.5,-7.88 2.25,-16.15 2.25,-24.78c0,-8.63 -0.75,-16.9 -2.25,-24.78c-9.39,-56.7 -51.06,-102.87 -105.5,-119.02c-19.9,-42.06 -48.06,-78.85 -82.23,-109.26c-59.32,-52.94 -137.42,-84.86 -223.03,-84.86c-85.61,0 -163.71,31.92 -223.03,84.86c-34.54,30.41 -62.7,67.58 -82.23,109.26c-54.45,16.15 -96.11,61.95 -105.5,119.02c-1.5,7.88 -2.25,16.15 -2.25,24.78c0,8.63 0.75,16.9 2.25,24.78c9.39,56.7 51.06,102.87 105.5,119.02c19.53,41.68 47.69,78.48 81.48,108.51c59.32,53.32 137.79,85.61 223.78,85.61c85.98,0 164.45,-32.29 224.15,-85.61c33.79,-30.03 61.95,-67.21 81.48,-108.51c54.07,-16.15 95.74,-61.95 105.12,-119.02zM774.83,587.09c-3.76,0 -7.14,-0.75 -10.89,-1.13c-7.51,25.16 -18.39,48.44 -32.29,69.84c-46.93,71.71 -127.66,119.03 -219.65,119.03c-91.99,0 -172.72,-47.32 -219.65,-119.03c-13.9,-21.4 -24.78,-44.68 -32.29,-69.84c-3.76,0.38 -7.14,1.13 -10.89,1.13c-41.3,0 -75.09,-33.79 -75.09,-75.09c0,-41.3 33.79,-75.09 75.09,-75.09c3.76,0 7.14,0.75 10.89,1.13c7.51,-25.16 18.39,-48.44 32.29,-69.84c46.93,-71.71 127.66,-119.03 219.65,-119.03c91.99,0 172.72,47.32 219.65,119.03c13.9,21.4 24.78,44.68 32.29,69.84c3.76,-0.38 7.14,-1.13 10.89,-1.13c41.3,0 75.09,33.79 75.09,75.09c0,41.3 -33.79,75.09 -75.09,75.09zM343.04,587.09c28.54,66.46 93.49,112.64 168.96,112.64c75.47,0 140.42,-46.18 168.96,-112.64z" fill="currentColor"/>
		</g>
	</g>
</svg>