<svg version="1.1" xmlns="http://www.w3.org/2000/svg" xmlns:xlink="http://www.w3.org/1999/xlink" viewBox="0,0,1024,1024">
	<!-- Color names: teamapps-color-1 -->
	<desc>clear icon - Licensed under Apache License v2.0 (http://www.apache.org/licenses/LICENSE-2.0) - Created with Iconfu.com - Derivative work of Material icons (Copyright Google Inc.)</desc>
	<g fill="none" fill-rule="nonzero" style="mix-blend-mode: normal">
		<g color="#039be5" class="teamapps-color-1">
			<path d="M651.83,512l166.44,166.44c23.99,23.99 23.99,62.9 0,86.89l-52.94,52.94c-23.99,23.99 -62.9,23.99 -86.89,0l-166.44,-166.44l-166.44,166.44c-23.99,23.99 -62.9,23.99 -86.89,0l-52.94,-52.94c-23.99,-23.99 -23.99,-62.9 0,-86.89l166.44,-166.44l-166.44,-166.44c-23.99,-23.99 -23.99,-62.9 0,-86.89l52.94,-52.94c23.99,-23.99 62.9,-23.99 86.89,0l166.44,166.44l166.44,-166.44c23.99,-23.99 62.9,-23.99 86.89,0l52.94,52.94c23.99,23.99 23.99,62.9 0,86.89zM774.83,302.11l-52.94,-52.94l-209.89,209.89l-209.89,-209.89l-52.94,52.94l209.89,209.89l-209.89,209.89l52.94,52.94l209.89,-209.89l209.89,209.89l52.94,-52.94l-209.89,-209.89z" fill="currentColor"/>
		</g>
	</g>
</svg>