<svg version="1.1" xmlns="http://www.w3.org/2000/svg" xmlns:xlink="http://www.w3.org/1999/xlink" viewBox="0,0,1024,1024">
	<!-- Color names: teamapps-color-1 -->
	<desc>closed_caption icon - Licensed under Apache License v2.0 (http://www.apache.org/licenses/LICENSE-2.0) - Created with Iconfu.com - Derivative work of Material icons (Copyright Google Inc.)</desc>
	<g fill="none" fill-rule="nonzero" style="mix-blend-mode: normal">
		<g color="#039be5" class="teamapps-color-1">
			<path d="M911.36,286.72v450.56c0,75.23 -61.3,136.53 -136.53,136.53h-525.66c-75.82,0 -136.53,-61.51 -136.53,-136.53v-450.56c0,-75.02 60.71,-136.53 136.53,-136.53h525.66c75.23,0 136.53,61.3 136.53,136.53zM774.83,211.63h-525.66c-41.68,0 -75.09,33.79 -75.09,75.09v450.56c0,41.3 33.41,75.09 75.09,75.09h525.66c41.3,0 75.09,-33.79 75.09,-75.09v-450.56c0,-41.3 -33.79,-75.09 -75.09,-75.09zM737.28,474.45h-56.32v-18.77h-75.09v112.64h75.09v-18.77h56.32v37.54c0,20.65 -16.9,37.55 -37.55,37.55h-112.64c-20.65,0 -37.54,-16.9 -37.54,-37.55v-150.18c0,-20.65 16.89,-37.55 37.54,-37.55h112.64c20.65,0 37.55,16.9 37.55,37.55zM474.45,474.45h-56.32v-18.77h-75.09v112.64h75.09v-18.77h56.32v37.54c0,20.65 -16.89,37.55 -37.54,37.55h-112.64c-20.65,0 -37.55,-16.9 -37.55,-37.55v-150.18c0,-20.65 16.9,-37.55 37.55,-37.55h112.64c20.65,0 37.54,16.9 37.54,37.55z" fill="currentColor"/>
		</g>
	</g>
</svg>