<svg version="1.1" xmlns="http://www.w3.org/2000/svg" xmlns:xlink="http://www.w3.org/1999/xlink" viewBox="0,0,1024,1024">
	<!-- Color names: teamapps-color-1 -->
	<desc>control_point_duplicate icon - Licensed under Apache License v2.0 (http://www.apache.org/licenses/LICENSE-2.0) - Created with Iconfu.com - Derivative work of Material icons (Copyright Google Inc.)</desc>
	<g fill="none" fill-rule="nonzero" style="mix-blend-mode: normal">
		<g color="#039be5" class="teamapps-color-1">
			<path d="M1024,512c0,220.17 -179.19,399.36 -399.36,399.36c-107,0 -204.32,-42.32 -276.1,-111.11v30.14c0,19.96 -9.7,38.68 -26.01,50.19c-16.31,11.51 -37.19,14.38 -56,7.7c-154.51,-54.9 -266.53,-202.39 -266.53,-376.29c0,-173.89 112.02,-321.39 266.53,-376.29c18.81,-6.68 39.7,-3.81 56,7.7c16.31,11.51 26.01,30.23 26.01,50.19v30.14c71.78,-68.78 169.1,-111.11 276.1,-111.11c220.17,0 399.36,179.19 399.36,399.36zM225.28,512c0,-46.35 7.94,-90.88 22.54,-132.31c-31.07,35.4 -49.85,81.73 -49.85,132.31c0,50.59 18.77,96.91 49.85,132.31c-14.59,-41.43 -22.54,-85.96 -22.54,-132.31zM723.63,413.01h51.2c10.52,0 20.41,2.64 29.07,7.3c-19.29,-37.54 -50.03,-68.28 -87.57,-87.57c4.66,8.65 7.3,18.55 7.3,29.07zM774.83,610.99h-51.2v51.2c0,10.52 -2.64,20.41 -7.3,29.07c37.54,-19.29 68.28,-50.03 87.57,-87.57c-8.65,4.66 -18.55,7.3 -29.07,7.3zM525.65,662.19v-51.2h-51.2c-10.52,0 -20.41,-2.64 -29.07,-7.3c19.29,37.54 50.03,68.28 87.57,87.57c-4.66,-8.65 -7.3,-18.55 -7.3,-29.07zM474.45,413.01h51.2v-51.2c0,-10.52 2.64,-20.41 7.3,-29.07c-37.54,19.29 -68.28,50.03 -87.57,87.57c8.65,-4.66 18.55,-7.3 29.07,-7.3zM624.64,174.08c-186.23,0 -337.92,151.69 -337.92,337.92c0,186.23 151.69,337.92 337.92,337.92c186.23,0 337.92,-151.69 337.92,-337.92c0,-186.23 -151.69,-337.92 -337.92,-337.92zM624.64,774.83c-144.93,0 -262.83,-117.9 -262.83,-262.83c0,-144.93 117.9,-262.83 262.83,-262.83c144.93,0 262.83,117.9 262.83,262.83c0,144.93 -117.9,262.83 -262.83,262.83zM136.53,512c0,-104.76 61.58,-195.24 150.57,-237.29v-81.1c-131.04,46.56 -225.66,171.58 -225.66,318.39c0,146.81 94.62,271.83 225.66,318.39v-81.1c-88.99,-42.06 -150.57,-132.54 -150.57,-237.29zM662.19,361.81h-75.1v112.64h-112.64v75.1h112.64v112.64h75.1v-112.64h112.64v-75.1h-112.64z" fill="currentColor"/>
		</g>
	</g>
</svg>