<svg version="1.1" xmlns="http://www.w3.org/2000/svg" xmlns:xlink="http://www.w3.org/1999/xlink" viewBox="0,0,1024,1024">
	<!-- Color names: teamapps-color-1 -->
	<desc>content_cut icon - Licensed under Apache License v2.0 (http://www.apache.org/licenses/LICENSE-2.0) - Created with Iconfu.com - Derivative work of Material icons (Copyright Google Inc.)</desc>
	<g fill="none" fill-rule="nonzero" style="mix-blend-mode: normal">
		<g color="#039be5" class="teamapps-color-1">
			<path d="M948.91,812.37v37.55c0,33.93 -27.51,61.44 -61.44,61.44h-112.64c-16.29,0 -31.92,-6.47 -43.44,-18l-219.38,-219.38l-18.51,18.51c3.17,14.38 4.85,29.35 4.85,44.79c0,116.91 -94.72,211.63 -211.63,211.63c-116.91,0 -211.63,-94.72 -211.63,-211.63c0,-116.91 94.72,-211.63 211.63,-211.63c15.44,0 30.41,1.69 44.79,4.85l18.51,-18.5l-18.51,-18.5c-14.38,3.17 -29.35,4.85 -44.79,4.85c-116.91,0 -211.63,-94.72 -211.63,-211.63c0,-116.91 94.72,-211.63 211.63,-211.63c116.91,0 211.63,94.72 211.63,211.63c0,15.44 -1.69,30.41 -4.85,44.79l18.51,18.51l219.38,-219.38c11.52,-11.52 27.15,-18 43.44,-18h112.64c33.93,0 61.44,27.51 61.44,61.44v37.55c0,16.3 -6.47,31.92 -18,43.45l-256.93,256.92l256.93,256.93c11.52,11.52 18,27.15 18,43.44zM300.37,737.28c0,-7.55 -6.09,-13.65 -13.65,-13.65c-7.56,0 -13.65,6.1 -13.65,13.65c0,7.55 6.09,13.65 13.65,13.65c7.56,0 13.65,-6.1 13.65,-13.65zM300.37,286.72c0,-7.55 -6.09,-13.65 -13.65,-13.65c-7.56,0 -13.65,6.1 -13.65,13.65c0,7.55 6.09,13.65 13.65,13.65c7.56,0 13.65,-6.1 13.65,-13.65zM423.39,348.29c8.63,-18.77 13.52,-39.42 13.52,-61.57c0,-82.98 -67.21,-150.19 -150.19,-150.19c-82.98,0 -150.19,67.21 -150.19,150.19c0,82.98 67.21,150.19 150.19,150.19c22.15,0 42.8,-4.88 61.57,-13.52l88.62,88.61l-88.62,88.61c-18.77,-8.63 -39.42,-13.52 -61.57,-13.52c-82.98,0 -150.19,67.21 -150.19,150.19c0,82.98 67.21,150.19 150.19,150.19c82.98,0 150.19,-67.21 150.19,-150.19c0,-22.15 -4.88,-42.8 -13.52,-61.57l88.61,-88.62l262.83,262.83h112.64v-37.55zM774.83,174.08l-225.28,225.28l75.09,75.09l262.83,-262.82v-37.55zM286.72,361.81c-41.3,0 -75.09,-33.41 -75.09,-75.09c0,-41.68 33.79,-75.09 75.09,-75.09c41.3,0 75.09,33.41 75.09,75.09c0,41.68 -33.79,75.09 -75.09,75.09zM286.72,812.37c-41.3,0 -75.09,-33.41 -75.09,-75.09c0,-41.68 33.79,-75.09 75.09,-75.09c41.3,0 75.09,33.41 75.09,75.09c0,41.68 -33.79,75.09 -75.09,75.09zM512,530.77c-10.52,0 -18.77,-8.25 -18.77,-18.77c0,-10.52 8.25,-18.77 18.77,-18.77c10.52,0 18.77,8.25 18.77,18.77c0,10.52 -8.25,18.77 -18.77,18.77z" fill="currentColor"/>
		</g>
	</g>
</svg>