<svg version="1.1" xmlns="http://www.w3.org/2000/svg" xmlns:xlink="http://www.w3.org/1999/xlink" viewBox="0,0,1024,1024">
	<!-- Color names: teamapps-color-1 -->
	<desc>create_new_folder icon - Licensed under Apache License v2.0 (http://www.apache.org/licenses/LICENSE-2.0) - Created with Iconfu.com - Derivative work of Material icons (Copyright Google Inc.)</desc>
	<g fill="none" fill-rule="nonzero" style="mix-blend-mode: normal">
		<g color="#039be5" class="teamapps-color-1">
			<path d="M948.91,361.81v375.47c0,75.62 -60.94,136.53 -136.54,136.53h-600.74c-75.6,0 -136.54,-60.91 -136.54,-136.53l0.38,-450.59c0.01,-75.2 60.16,-136.5 136.16,-136.5h225.28c16.29,0 31.92,6.47 43.44,18l57.1,57.1h274.92c75.6,0 136.54,60.91 136.54,136.53zM812.37,286.72h-300.37l-75.09,-75.09h-225.28c-41.68,0 -74.72,33.41 -74.72,75.09l-0.38,450.56c0,41.68 33.42,75.09 75.1,75.09h600.74c41.68,0 75.1,-33.41 75.1,-75.09v-375.47c0,-41.68 -33.42,-75.09 -75.1,-75.09zM774.83,587.09h-112.64v112.64h-75.1v-112.64h-112.64v-75.09h112.64v-112.64h75.1v112.64h112.64z" fill="currentColor"/>
		</g>
	</g>
</svg>