<svg version="1.1" xmlns="http://www.w3.org/2000/svg" xmlns:xlink="http://www.w3.org/1999/xlink" viewBox="0,0,1024,1024">
	<!-- Color names: teamapps-color-1 -->
	<desc>crop_square icon - Licensed under Apache License v2.0 (http://www.apache.org/licenses/LICENSE-2.0) - Created with Iconfu.com - Derivative work of Material icons (Copyright Google Inc.)</desc>
	<g fill="none" fill-rule="nonzero" style="mix-blend-mode: normal">
		<g color="#039be5" class="teamapps-color-1">
			<path d="M873.81,286.72v450.56c0,75.23 -61.3,136.53 -136.53,136.53h-450.56c-75.23,0 -136.53,-61.3 -136.53,-136.53v-450.56c0,-75.23 61.3,-136.53 136.53,-136.53h450.56c75.23,0 136.53,61.3 136.53,136.53zM348.16,348.16v327.68h327.68v-327.68zM737.28,211.63h-450.56c-41.3,0 -75.09,33.79 -75.09,75.09v450.56c0,41.3 33.79,75.09 75.09,75.09h450.56c41.3,0 75.09,-33.79 75.09,-75.09v-450.56c0,-41.3 -33.79,-75.09 -75.09,-75.09zM737.28,737.28h-450.56v-450.56h450.56z" fill="currentColor"/>
		</g>
	</g>
</svg>