<svg version="1.1" xmlns="http://www.w3.org/2000/svg" xmlns:xlink="http://www.w3.org/1999/xlink" viewBox="0,0,1024,1024">
	<!-- Color names: teamapps-color-1 -->
	<desc>delete_sweep icon - Licensed under Apache License v2.0 (http://www.apache.org/licenses/LICENSE-2.0) - Created with Iconfu.com - Derivative work of Material icons (Copyright Google Inc.)</desc>
	<g fill="none" fill-rule="nonzero" style="mix-blend-mode: normal">
		<g color="#039be5" class="teamapps-color-1">
			<path d="M474.45,873.81h-225.28c-75.23,0 -136.53,-61.3 -136.53,-136.53v-356.39c-22.06,-9.32 -37.55,-31.16 -37.55,-56.62v-75.1c0,-33.93 27.51,-61.44 61.44,-61.44h87.19l19.56,-19.55c11.52,-11.52 27.15,-17.99 43.44,-17.99h150.19c16.29,0 31.92,6.47 43.44,18l19.55,19.55h87.19c33.93,0 61.44,27.51 61.44,61.44v51.2h238.94c33.93,0 61.44,27.51 61.44,61.44v75.1c0,26.42 -16.67,48.94 -40.07,57.62c1.64,5.54 2.52,11.4 2.52,17.47v75.09c0,33.93 -27.51,61.44 -61.44,61.44h-15.17c1,4.39 1.52,8.96 1.52,13.66v75.09c0,33.93 -27.51,61.44 -61.44,61.44h-150.19c-9.15,0 -17.82,-2 -25.62,-5.58c-21.41,47.5 -69.22,80.67 -124.57,80.67zM174.08,737.28c0,41.3 33.79,75.09 75.09,75.09h225.28c41.3,0 75.1,-33.79 75.1,-75.09v-375.47h-375.47zM587.09,249.17h-112.64l-37.54,-37.54h-150.19l-37.55,37.54h-112.64v75.1h450.56zM624.64,436.91h262.83v-75.1h-262.83zM624.64,587.09h225.28v-75.09h-225.28zM624.64,737.28h150.19v-75.09h-150.19z" fill="currentColor"/>
		</g>
	</g>
</svg>