<svg version="1.1" xmlns="http://www.w3.org/2000/svg" xmlns:xlink="http://www.w3.org/1999/xlink" viewBox="0,0,1024,1024">
	<!-- Color names: teamapps-color-1 -->
	<desc>developer_mode icon - Licensed under Apache License v2.0 (http://www.apache.org/licenses/LICENSE-2.0) - Created with Iconfu.com - Derivative work of Material icons (Copyright Google Inc.)</desc>
	<g fill="none" fill-rule="nonzero" style="mix-blend-mode: normal">
		<g color="#039be5" class="teamapps-color-1">
			<path d="M249.17,385.71c-33.93,0 -61.44,-27.51 -61.44,-61.44v-150.19c0,-75.24 61.32,-136.53 136.54,-136.53l375.52,0.37c74.8,0.03 136.48,60.54 136.48,136.16v150.19c0,33.93 -27.51,61.44 -61.44,61.44h-1.86l82.85,82.85c23.99,23.99 23.99,62.9 0,86.89l-82.85,82.85h1.86c33.93,0 61.44,27.51 61.44,61.44v150.19c0,75.24 -61.32,136.53 -136.54,136.53h-375.46c-75.22,0 -136.54,-61.29 -136.54,-136.53v-150.19c0,-33.93 27.51,-61.44 61.44,-61.44h1.86l-82.85,-82.85c-23.99,-23.99 -23.99,-62.9 0,-86.89l82.85,-82.85zM441.71,310.61l38.8,39.08c23.85,24.02 23.78,62.8 -0.16,86.74l-75.58,75.57l75.58,75.57c23.93,23.93 24,62.72 0.16,86.74l-38.8,39.08h140.59l-38.8,-39.08c-23.85,-24.02 -23.78,-62.8 0.16,-86.74l75.58,-75.57l-75.58,-75.57c-23.93,-23.93 -24,-62.72 -0.16,-86.74l38.8,-39.08zM699.73,774.83h-375.46v-75.1h-75.1v150.19c0,41.3 33.8,75.09 75.1,75.09h375.46c41.3,0 75.1,-33.79 75.1,-75.09v-150.19h-75.1zM324.27,249.17h375.46v75.1h75.1v-150.19c0,-41.3 -33.8,-74.72 -75.1,-74.72l-375.46,-0.37c-41.3,0 -75.1,33.79 -75.1,75.09v150.19h75.1zM640.03,684.34l172.34,-172.34l-172.34,-172.34l-52.94,53.32l119.03,119.02l-119.03,119.02zM436.91,631.02l-119.03,-119.02l119.03,-119.02l-52.94,-53.32l-172.34,172.34l172.34,172.34z" fill="currentColor"/>
		</g>
	</g>
</svg>