<svg version="1.1" xmlns="http://www.w3.org/2000/svg" xmlns:xlink="http://www.w3.org/1999/xlink" viewBox="0,0,1024,1024">
	<!-- Color names: teamapps-color-1 -->
	<desc>developer_board icon - Licensed under Apache License v2.0 (http://www.apache.org/licenses/LICENSE-2.0) - Created with Iconfu.com - Derivative work of Material icons (Copyright Google Inc.)</desc>
	<g fill="none" fill-rule="nonzero" style="mix-blend-mode: normal">
		<g color="#039be5" class="teamapps-color-1">
			<path d="M948.91,474.45v75.1c0,14.14 -4.78,27.16 -12.8,37.55c8.03,10.38 12.8,23.41 12.8,37.55v75.09c0,33.93 -27.51,61.44 -61.44,61.44h-13.66v13.66c0,75.23 -61.3,136.53 -136.53,136.53h-525.65c-75.22,0 -136.54,-61.29 -136.54,-136.53v-525.66c0,-75.24 61.32,-136.53 136.54,-136.53h525.65c75.23,0 136.53,61.3 136.53,136.53v13.66h13.66c33.93,0 61.44,27.51 61.44,61.44v75.09c0,14.14 -4.78,27.16 -12.8,37.55c8.03,10.38 12.8,23.41 12.8,37.55zM887.47,399.36v-75.09h-75.1v-75.1c0,-41.3 -33.79,-75.09 -75.09,-75.09h-525.65c-41.3,0 -75.1,33.79 -75.1,75.09v525.66c0,41.3 33.8,75.09 75.1,75.09h525.65c41.3,0 75.09,-33.79 75.09,-75.09v-75.1h75.1v-75.09h-75.1v-75.09h75.1v-75.1h-75.1v-75.09zM737.28,774.83h-525.65v-525.66h525.65zM286.72,512h187.73v-187.73h-187.73zM512,699.73h150.19v-225.28h-150.19zM286.72,699.73h187.73v-150.18h-187.73zM512,436.91h150.19v-112.64h-150.19z" fill="currentColor"/>
		</g>
	</g>
</svg>