<svg version="1.1" xmlns="http://www.w3.org/2000/svg" xmlns:xlink="http://www.w3.org/1999/xlink" viewBox="0,0,1024,1024">
	<!-- Color names: teamapps-color-1 -->
	<desc>device_hub icon - Licensed under Apache License v2.0 (http://www.apache.org/licenses/LICENSE-2.0) - Created with Iconfu.com - Derivative work of Material icons (Copyright Google Inc.)</desc>
	<g fill="none" fill-rule="nonzero" style="mix-blend-mode: normal">
		<g color="#039be5" class="teamapps-color-1">
			<path d="M911.36,662.19v187.73c0,33.93 -27.51,61.44 -61.44,61.44h-187.73c-33.93,0 -61.44,-27.51 -61.44,-61.44v-89.94l-88.75,-93.19l-88.75,93.19v89.94c0,33.93 -27.51,61.44 -61.44,61.44h-187.73c-33.93,0 -61.44,-27.51 -61.44,-61.44v-187.73c0,-33.93 27.51,-61.44 61.44,-61.44h124.74l114.19,-114.2v-57.15c-44.92,-31.21 -75.09,-83.03 -75.09,-142.68c0,-96.26 77.82,-174.08 174.08,-174.08c96.26,0 174.08,77.82 174.08,174.08c0,59.65 -30.17,111.47 -75.09,142.68v57.15l114.19,114.2h124.74c33.93,0 61.44,27.51 61.44,61.44zM699.73,662.19l-150.18,-150.19v-119.4c43.55,-15.77 75.09,-57.07 75.09,-105.88c0,-62.33 -50.31,-112.64 -112.64,-112.64c-62.33,0 -112.64,50.31 -112.64,112.64c0,48.81 31.54,90.11 75.09,105.88v119.4l-150.18,150.19h-150.19v187.73h187.73v-114.51l150.19,-157.7l150.19,157.7v114.51h187.73v-187.73z" fill="currentColor"/>
		</g>
	</g>
</svg>