<svg version="1.1" xmlns="http://www.w3.org/2000/svg" xmlns:xlink="http://www.w3.org/1999/xlink" viewBox="0,0,1024,1024">
	<!-- Color names: teamapps-color-1 -->
	<desc>directions_subway icon - Licensed under Apache License v2.0 (http://www.apache.org/licenses/LICENSE-2.0) - Created with Iconfu.com - Derivative work of Material icons (Copyright Google Inc.)</desc>
	<g fill="none" fill-rule="nonzero" style="mix-blend-mode: normal">
		<g color="#039be5" class="teamapps-color-1">
			<path d="M873.81,286.72v356.69c0,65.47 -32.71,123.35 -82.65,158.22c4.92,8.97 7.56,19.11 7.56,29.52v18.77c0,33.93 -27.51,61.44 -61.44,61.44h-450.56c-33.93,0 -61.44,-27.51 -61.44,-61.44v-18.77c0,-10.41 2.64,-20.55 7.56,-29.52c-49.94,-34.87 -82.65,-92.74 -82.65,-158.22v-356.69c0,-202.26 218.57,-211.63 361.81,-211.63c143.24,0 361.81,9.37 361.81,211.63zM610.99,348.16v64.85h64.85v-64.85zM348.16,348.16v64.85h64.85v-64.85zM512,136.53c-165.96,0 -300.37,18.78 -300.37,150.19v356.69c0,72.47 58.94,131.42 131.41,131.42l-56.32,56.32v18.77h450.56v-18.77l-56.32,-56.32c72.47,0 131.41,-58.95 131.41,-131.42v-356.69c0,-131.41 -134.41,-150.19 -300.37,-150.19zM737.28,474.45h-187.73v-187.73h187.73zM474.45,474.45h-187.73v-187.73h187.73zM343.04,699.73c-31.16,0 -56.32,-25.16 -56.32,-56.32c0,-31.16 25.16,-56.32 56.32,-56.32c31.16,0 56.32,25.16 56.32,56.32c0,31.16 -25.16,56.32 -56.32,56.32zM680.96,699.73c-31.16,0 -56.32,-25.16 -56.32,-56.32c0,-31.16 25.16,-56.32 56.32,-56.32c31.16,0 56.32,25.16 56.32,56.32c0,31.16 -25.16,56.32 -56.32,56.32z" fill="currentColor"/>
		</g>
	</g>
</svg>