<svg version="1.1" xmlns="http://www.w3.org/2000/svg" xmlns:xlink="http://www.w3.org/1999/xlink" viewBox="0,0,1024,1024">
	<!-- Color names: teamapps-color-1 -->
	<desc>do_not_disturb_off icon - Licensed under Apache License v2.0 (http://www.apache.org/licenses/LICENSE-2.0) - Created with Iconfu.com - Derivative work of Material icons (Copyright Google Inc.)</desc>
	<g fill="none" fill-rule="nonzero" style="mix-blend-mode: normal">
		<g color="#039be5" class="teamapps-color-1">
			<path d="M920.77,920.78l-47.69,47.68c-23.99,23.99 -62.89,23.99 -86.89,0l-70.27,-70.27c-60.84,32.32 -130.34,50.72 -203.93,50.72c-241.19,0 -436.91,-195.72 -436.91,-436.91c0,-73.6 18.4,-143.09 50.72,-203.93l-70.27,-70.27c-23.99,-23.99 -23.99,-62.89 0,-86.89l47.68,-47.69c23.99,-24 62.9,-24 86.89,0l61.14,61.14c3.55,-4.32 7.7,-8.18 12.39,-11.43c70.38,-48.96 156.14,-77.84 248.36,-77.84c241.19,0 436.91,195.72 436.91,436.91c0,92.22 -28.88,177.98 -77.84,248.36c-3.26,4.68 -7.12,8.84 -11.43,12.39l61.14,61.14c24,24 23.99,62.9 0,86.89zM146.67,146.67l-47.68,47.69l104.38,104.38c-42.06,60.45 -66.84,134.04 -66.84,213.27c0,207.26 168.21,375.47 375.47,375.47c79.23,0 152.82,-24.78 213.27,-66.84l104.38,104.38l47.69,-47.68zM699.73,474.45v75.1h-54.82l175.72,175.72c42.06,-60.45 66.84,-134.04 66.84,-213.27c0,-207.26 -168.21,-375.47 -375.47,-375.47c-79.23,0 -152.82,24.78 -213.27,66.84l271.09,271.08zM324.27,549.55v-75.1h54.82l75.09,75.1z" fill="currentColor"/>
		</g>
	</g>
</svg>