<svg version="1.1" xmlns="http://www.w3.org/2000/svg" xmlns:xlink="http://www.w3.org/1999/xlink" viewBox="0,0,1024,1024">
	<!-- Color names: teamapps-color-1 -->
	<desc>donut_large icon - Licensed under Apache License v2.0 (http://www.apache.org/licenses/LICENSE-2.0) - Created with Iconfu.com - Derivative work of Material icons (Copyright Google Inc.)</desc>
	<g fill="none" fill-rule="nonzero" style="mix-blend-mode: normal">
		<g color="#039be5" class="teamapps-color-1">
			<path d="M310.61,512c0,98.34 86.96,185.3 173.55,199.15c10.45,1.67 19.93,5.92 27.84,12.03c8.16,-6.31 18,-10.63 28.83,-12.18c86.23,-12.36 159.86,-85.13 172.05,-170.17c1.55,-10.83 5.87,-20.67 12.18,-28.83c-6.31,-8.16 -10.63,-18 -12.18,-28.83c-12.19,-85.04 -85.82,-157.81 -172.05,-170.17c-10.83,-1.55 -20.67,-5.87 -28.83,-12.18c-7.91,6.11 -17.39,10.36 -27.84,12.03c-86.58,13.85 -173.55,100.82 -173.55,199.15zM468.34,948.6c-218.93,-21.89 -393.25,-209.96 -393.25,-436.6c0,-226.64 174.32,-414.71 393.25,-436.6c15.68,-1.57 31.29,2.95 43.66,12.5c12.27,-9.48 27.74,-14 43.3,-12.54c217.12,20.41 372.94,176.22 393.34,393.34c1.46,15.56 -3.06,31.03 -12.54,43.3c9.48,12.27 14,27.74 12.54,43.3c-20.41,217.12 -176.22,372.94 -393.34,393.34c-15.56,1.46 -31.03,-3.06 -43.3,-12.54c-12.37,9.56 -27.99,14.07 -43.66,12.5zM474.45,252.18v-115.65c-187.73,18.77 -337.92,180.6 -337.92,375.47c0,194.87 150.19,356.7 337.92,375.47v-115.65c-112.64,-18.02 -225.28,-127.65 -225.28,-259.82c0,-132.17 112.64,-241.8 225.28,-259.82zM773.7,474.45h113.77c-17.64,-187.73 -150.19,-320.28 -337.92,-337.92v115.65c112.64,16.15 208.01,109.63 224.15,222.27zM549.55,771.82v115.65c187.73,-17.64 320.28,-150.19 337.92,-337.92h-113.77c-16.15,112.64 -111.51,206.12 -224.15,222.27z" fill="currentColor"/>
		</g>
	</g>
</svg>