<svg version="1.1" xmlns="http://www.w3.org/2000/svg" xmlns:xlink="http://www.w3.org/1999/xlink" viewBox="0,0,1024,1024">
	<!-- Color names: teamapps-color-1 -->
	<desc>drive_eta icon - Licensed under Apache License v2.0 (http://www.apache.org/licenses/LICENSE-2.0) - Created with Iconfu.com - Derivative work of Material icons (Copyright Google Inc.)</desc>
	<g fill="none" fill-rule="nonzero" style="mix-blend-mode: normal">
		<g color="#039be5" class="teamapps-color-1">
			<path d="M911.36,474.45v300.38c0,54.61 -44.42,98.98 -98.99,98.98h-37.54c-46.34,0 -85.36,-32 -96.08,-75.09h-333.51c-10.72,43.09 -49.74,75.09 -96.08,75.09h-37.54c-54.57,0 -98.99,-44.38 -98.99,-98.98v-300.38c0,-6.86 1.15,-13.67 3.4,-20.16l78.12,-224.96c0.05,-0.13 0.09,-0.26 0.14,-0.39c16.13,-45.32 59.06,-78.75 111.19,-78.75h413.02c51.38,0 95.49,32.77 111.41,79.38l78.04,224.72c2.25,6.48 3.4,13.29 3.4,20.16zM674.23,329.39h-324.45l-15.36,46.08h355.17zM771.82,249.55c-7.51,-22.15 -28.53,-37.92 -53.31,-37.92h-413.02c-24.78,0 -45.43,15.77 -53.31,37.92l-78.1,224.9v300.38c0,20.65 16.9,37.54 37.55,37.54h37.54c20.65,0 37.55,-16.89 37.55,-37.54v-37.55h450.56v37.55c0,20.65 16.9,37.54 37.55,37.54h37.54c20.65,0 37.55,-16.89 37.55,-37.54v-300.38zM249.17,436.91l56.32,-168.96h413.02l56.32,168.96zM305.49,624.64c-31.16,0 -56.32,-25.16 -56.32,-56.32c0,-31.16 25.16,-56.32 56.32,-56.32c31.16,0 56.32,25.16 56.32,56.32c0,31.16 -25.16,56.32 -56.32,56.32zM718.51,624.64c-31.16,0 -56.32,-25.16 -56.32,-56.32c0,-31.16 25.16,-56.32 56.32,-56.32c31.16,0 56.32,25.16 56.32,56.32c0,31.16 -25.16,56.32 -56.32,56.32z" fill="currentColor"/>
		</g>
	</g>
</svg>