<svg version="1.1" xmlns="http://www.w3.org/2000/svg" xmlns:xlink="http://www.w3.org/1999/xlink" viewBox="0,0,1024,1024">
	<!-- Color names: teamapps-color-1 -->
	<desc>error_outline icon - Licensed under Apache License v2.0 (http://www.apache.org/licenses/LICENSE-2.0) - Created with Iconfu.com - Derivative work of Material icons (Copyright Google Inc.)</desc>
	<g fill="none" fill-rule="nonzero" style="mix-blend-mode: normal">
		<g color="#039be5" class="teamapps-color-1">
			<path d="M948.91,512c0,241.23 -195.76,436.91 -437.29,436.91c-241.27,0 -436.53,-195.8 -436.53,-436.91c0,-241.11 195.26,-436.91 436.53,-436.91c241.53,0 437.29,195.68 437.29,436.91zM750.93,512c0,-100.74 -62.24,-186.85 -150.38,-222.01c6.59,9.79 10.44,21.58 10.44,34.27v225.28c0,14.14 -4.78,27.16 -12.8,37.55c8.03,10.38 12.8,23.41 12.8,37.55v75.09c0,12.69 -3.85,24.48 -10.44,34.27c88.15,-35.16 150.38,-121.27 150.38,-222.01zM413.01,549.55v-225.28c0,-12.69 3.85,-24.48 10.44,-34.27c-88.15,35.16 -150.38,121.27 -150.38,222.01c0,100.74 62.24,186.85 150.38,222.01c-6.59,-9.79 -10.44,-21.58 -10.44,-34.27v-75.09c0,-14.14 4.78,-27.16 12.8,-37.55c-8.03,-10.38 -12.8,-23.41 -12.8,-37.55zM511.62,136.53c-207.26,0 -375.09,168.21 -375.09,375.47c0,207.26 167.83,375.47 375.09,375.47c207.64,0 375.85,-168.21 375.85,-375.47c0,-207.26 -168.21,-375.47 -375.85,-375.47zM512,812.37c-165.96,0 -300.37,-134.41 -300.37,-300.37c0,-165.96 134.41,-300.37 300.37,-300.37c165.96,0 300.37,134.41 300.37,300.37c0,165.96 -134.41,300.37 -300.37,300.37zM474.45,549.55h75.1v-225.28h-75.1zM474.45,699.73h75.1v-75.09h-75.1z" fill="currentColor"/>
		</g>
	</g>
</svg>