<svg version="1.1" xmlns="http://www.w3.org/2000/svg" xmlns:xlink="http://www.w3.org/1999/xlink" viewBox="0,0,1024,1024">
	<!-- Color names: teamapps-color-1 -->
	<desc>event_seat icon - Licensed under Apache License v2.0 (http://www.apache.org/licenses/LICENSE-2.0) - Created with Iconfu.com - Derivative work of Material icons (Copyright Google Inc.)</desc>
	<g fill="none" fill-rule="nonzero" style="mix-blend-mode: normal">
		<g color="#039be5" class="teamapps-color-1">
			<path d="M262.83,249.17c0,-75.23 61.3,-136.53 136.53,-136.53h225.28c75.23,0 136.53,61.3 136.53,136.53v127.82c4.39,-1 8.96,-1.52 13.66,-1.52h112.64c33.93,0 61.44,27.51 61.44,61.44v112.64c0,33.93 -27.51,61.44 -61.44,61.44h-15.18c1,4.39 1.52,8.96 1.52,13.65v225.28c0,33.93 -27.51,61.44 -61.44,61.44h-112.64c-33.93,0 -61.44,-27.51 -61.44,-61.44v-51.2h-252.58v51.2c0,33.93 -27.51,61.44 -61.44,61.44h-112.64c-33.93,0 -61.44,-27.51 -61.44,-61.44v-225.28c0,-4.69 0.53,-9.26 1.52,-13.65h-15.18c-33.93,0 -61.44,-27.51 -61.44,-61.44v-112.64c0,-33.93 27.51,-61.44 61.44,-61.44h112.64c4.69,0 9.27,0.53 13.66,1.52zM699.73,249.17c0,-41.3 -33.79,-75.09 -75.09,-75.09h-225.28c-41.3,0 -75.09,33.79 -75.09,75.09v300.38h375.46zM211.63,849.92h112.64v-112.64h375.46v112.64h112.64v-225.28h-600.74zM774.83,549.55h112.64v-112.64h-112.64zM136.53,549.55h112.64v-112.64h-112.64z" fill="currentColor"/>
		</g>
	</g>
</svg>