<svg version="1.1" xmlns="http://www.w3.org/2000/svg" xmlns:xlink="http://www.w3.org/1999/xlink" viewBox="0,0,1024,1024">
	<!-- Color names: teamapps-color-1 -->
	<desc>exit_to_app icon - Licensed under Apache License v2.0 (http://www.apache.org/licenses/LICENSE-2.0) - Created with Iconfu.com - Derivative work of Material icons (Copyright Google Inc.)</desc>
	<g fill="none" fill-rule="nonzero" style="mix-blend-mode: normal">
		<g color="#039be5" class="teamapps-color-1">
			<path d="M911.36,249.17v525.66c0,75.23 -61.3,136.53 -136.53,136.53h-525.66c-75.82,0 -136.53,-61.51 -136.53,-136.53v-150.19c0,-14.14 4.78,-27.16 12.8,-37.55c-8.03,-10.38 -12.8,-23.41 -12.8,-37.55v-75.1c0,-14.14 4.78,-27.16 12.8,-37.55c-8.03,-10.38 -12.8,-23.41 -12.8,-37.55v-150.19c0,-75.02 60.71,-136.53 136.53,-136.53h525.66c75.23,0 136.53,61.3 136.53,136.53zM310.61,624.64v88.75h109.39l-23.16,-23.16c-21.58,-21.58 -23.76,-55.23 -6.5,-79.24h-81.26c1,4.39 1.52,8.96 1.52,13.65zM713.39,713.39v-146.93l-146.93,146.93zM713.39,310.61h-146.93l146.93,146.93zM310.61,310.61v88.75c0,4.69 -0.53,9.26 -1.52,13.65h81.26c-17.26,-24.01 -15.08,-57.66 6.5,-79.24l23.16,-23.16zM774.83,174.08h-525.66c-41.68,0 -75.09,33.79 -75.09,75.09v150.19h75.09v-150.19h525.66v525.66h-525.66v-150.19h-75.09v150.19c0,41.3 33.41,75.09 75.09,75.09h525.66c41.3,0 75.09,-33.79 75.09,-75.09v-525.66c0,-41.3 -33.79,-75.09 -75.09,-75.09zM440.29,646.79l52.94,52.94l187.73,-187.73l-187.73,-187.73l-52.94,52.94l96.87,97.24h-363.08v75.1h363.08z" fill="currentColor"/>
		</g>
	</g>
</svg>