<svg version="1.1" xmlns="http://www.w3.org/2000/svg" xmlns:xlink="http://www.w3.org/1999/xlink" viewBox="0,0,1024,1024">
	<!-- Color names: teamapps-color-1 -->
	<desc>face icon - Licensed under Apache License v2.0 (http://www.apache.org/licenses/LICENSE-2.0) - Created with Iconfu.com - Derivative work of Material icons (Copyright Google Inc.)</desc>
	<g fill="none" fill-rule="nonzero" style="mix-blend-mode: normal">
		<g color="#039be5" class="teamapps-color-1">
			<path d="M948.91,512c0,241.19 -195.72,436.91 -436.91,436.91c-241.19,0 -436.91,-195.72 -436.91,-436.91c0,-241.19 195.72,-436.91 436.91,-436.91c241.19,0 436.91,195.72 436.91,436.91zM750.93,512c0,-5.05 -0.17,-10.07 -0.49,-15.05c-9.99,0.81 -20.08,1.27 -30.28,1.38c8.2,15.26 12.85,32.7 12.85,51.22c0,59.84 -48.53,108.37 -108.37,108.37c-59.84,0 -108.37,-48.53 -108.37,-108.37c0,-32.81 14.6,-62.24 37.65,-82.12c-49.33,-19.69 -94.22,-48.12 -132.76,-83.35c-15.08,21.86 -32.09,42.28 -50.8,61.01c9.23,-2.56 18.95,-3.92 29,-3.92c59.86,0 108.37,48.56 108.37,108.38c0,59.84 -48.53,108.37 -108.37,108.37c-59.84,0 -108.37,-48.53 -108.37,-108.37c0,-17.63 4.21,-34.28 11.68,-48.99c-9.58,6.36 -19.42,12.36 -29.52,17.98c3.48,128.65 109.38,232.4 238.84,232.4c131.65,0 238.93,-107.28 238.93,-238.93zM512,136.53c-207.26,0 -375.47,168.21 -375.47,375.47c0,207.26 168.21,375.47 375.47,375.47c207.26,0 375.47,-168.21 375.47,-375.47c0,-207.26 -168.21,-375.47 -375.47,-375.47zM512,812.37c-165.58,0 -300.37,-134.79 -300.37,-300.37c0,-10.89 0.75,-21.77 1.87,-32.29c88.61,-39.42 158.82,-111.89 195.62,-201.63c67.96,96.12 179.85,158.82 306.38,158.82c29.29,0 57.45,-3.39 84.48,-9.77c7.88,26.66 12.39,55.19 12.39,84.86c0,165.58 -134.79,300.37 -300.37,300.37zM399.36,502.61c-25.91,0 -46.93,21.03 -46.93,46.94c0,25.91 21.02,46.93 46.93,46.93c25.91,0 46.93,-21.02 46.93,-46.93c0,-25.91 -21.02,-46.94 -46.93,-46.94zM624.64,502.61c-25.91,0 -46.93,21.03 -46.93,46.94c0,25.91 21.02,46.93 46.93,46.93c25.91,0 46.93,-21.02 46.93,-46.93c0,-25.91 -21.02,-46.94 -46.93,-46.94z" fill="currentColor"/>
		</g>
	</g>
</svg>