<svg version="1.1" xmlns="http://www.w3.org/2000/svg" xmlns:xlink="http://www.w3.org/1999/xlink" viewBox="0,0,1024,1024">
	<!-- Color names: teamapps-color-1 -->
	<desc>filter_drama icon - Licensed under Apache License v2.0 (http://www.apache.org/licenses/LICENSE-2.0) - Created with Iconfu.com - Derivative work of Material icons (Copyright Google Inc.)</desc>
	<g fill="none" fill-rule="nonzero" style="mix-blend-mode: normal">
		<g color="#039be5" class="teamapps-color-1">
			<path d="M1024,624.64c0,137.56 -111.61,249.17 -249.17,249.17h-488.11c-158.21,0 -286.72,-128.51 -286.72,-286.72c0,-137.08 96.05,-251.09 224.15,-279.62c60.87,-94.42 166.8,-157.28 287.85,-157.28c151.39,0 279.61,97.91 325.1,234.15c107.29,27.46 186.9,123.99 186.9,240.3zM826.03,624.64c0,-28.02 -23.18,-51.2 -51.2,-51.2h-56.32c-33.93,0 -61.44,-27.51 -61.44,-61.44v-18.77c0,-79.83 -65.24,-145.07 -145.07,-145.07c-18.53,0 -36.28,3.56 -52.66,10.08c69.31,52.25 114.1,135.22 114.1,228.85c0,33.93 -27.51,61.44 -61.44,61.44h-75.09c-33.93,0 -61.44,-27.51 -61.44,-61.44c0,-49.04 -39.7,-88.74 -88.75,-88.74c-49.05,0 -88.75,39.7 -88.75,88.74c0,49.04 39.71,88.75 88.75,88.75h488.11c28.02,0 51.2,-23.18 51.2,-51.2zM787.97,438.41c-25.53,-129.54 -139.3,-226.78 -275.97,-226.78c-108.51,0 -202.38,61.57 -249.31,151.69c-113.02,12.01 -201.25,107.38 -201.25,223.78c0,124.28 101,225.28 225.28,225.28h488.11c103.63,0 187.73,-84.1 187.73,-187.73c0,-99.12 -76.97,-179.48 -174.59,-186.23zM774.83,737.28h-488.11c-82.98,0 -150.19,-67.21 -150.19,-150.19c0,-82.98 67.21,-150.18 150.19,-150.18c82.98,0 150.19,67.21 150.19,150.18h75.09c0,-103.63 -69.84,-190.73 -165.2,-217.02c37.92,-50.31 97.62,-83.35 165.2,-83.35c113.77,0 206.51,92.74 206.51,206.51v18.77h56.32c61.95,0 112.64,50.69 112.64,112.64c0,61.95 -50.69,112.64 -112.64,112.64z" fill="currentColor"/>
		</g>
	</g>
</svg>