<svg version="1.1" xmlns="http://www.w3.org/2000/svg" xmlns:xlink="http://www.w3.org/1999/xlink" viewBox="0,0,1024,1024">
	<!-- Color names: teamapps-color-1 -->
	<desc>filter_tilt_shift icon - Licensed under Apache License v2.0 (http://www.apache.org/licenses/LICENSE-2.0) - Created with Iconfu.com - Derivative work of Material icons (Copyright Google Inc.)</desc>
	<g fill="none" fill-rule="nonzero" style="mix-blend-mode: normal">
		<g color="#039be5" class="teamapps-color-1">
			<path d="M512,686.08c-96.26,0 -174.08,-77.82 -174.08,-174.08c0,-96.26 77.82,-174.08 174.08,-174.08c96.26,0 174.08,77.82 174.08,174.08c0,96.26 -77.82,174.08 -174.08,174.08zM946.72,556.03c-8.75,87.57 -43.76,167.97 -96.54,232.53c-10.03,12.27 -24.36,20.14 -39.97,22.08c-2.03,15.44 -9.87,29.6 -22.02,39.54c-64.52,52.75 -144.52,87.79 -232.55,96.55c-15.67,1.56 -31.27,-2.96 -43.63,-12.51c-12.37,9.55 -27.99,14.07 -43.66,12.5c-87.57,-8.75 -167.96,-43.76 -232.52,-96.54c-12.25,-10.02 -20.12,-24.33 -22.07,-39.92c-15.59,-1.95 -29.9,-9.82 -39.92,-22.07c-52.75,-64.52 -87.79,-144.52 -96.55,-232.55c-1.56,-15.67 2.96,-31.27 12.51,-43.63c-9.55,-12.36 -14.07,-27.97 -12.51,-43.63c8.76,-88.03 43.8,-168.03 96.55,-232.55c10.02,-12.25 24.33,-20.12 39.92,-22.07c1.95,-15.59 9.82,-29.91 22.07,-39.92c64.52,-52.75 144.52,-87.79 232.55,-96.55c15.67,-1.56 31.27,2.96 43.63,12.51c12.36,-9.55 27.97,-14.07 43.63,-12.51c88.03,8.76 168.03,43.8 232.55,96.55c12.25,10.02 20.12,24.33 22.07,39.92c15.59,1.95 29.91,9.82 39.92,22.07c52.75,64.52 87.79,144.52 96.55,232.55c1.57,15.74 -3,31.42 -12.65,43.82c9.65,12.4 14.22,28.09 12.65,43.85zM700.35,658.35c25.93,-33.47 43.1,-73.14 48.42,-116c1.41,-11.36 5.86,-21.67 12.48,-30.17c-6.63,-8.51 -11.08,-18.84 -12.49,-30.22c-5.33,-43.24 -22.52,-82.89 -48.42,-116.32c-6.89,-8.89 -10.98,-19.15 -12.35,-29.64c-10.5,-1.37 -20.75,-5.46 -29.64,-12.35c-33.43,-25.9 -73.08,-43.09 -116.32,-48.42c-11.3,-1.39 -21.56,-5.79 -30.03,-12.34c-8.47,6.55 -18.74,10.95 -30.03,12.34c-43.24,5.33 -82.89,22.52 -116.32,48.42c-8.89,6.89 -19.15,10.98 -29.64,12.35c-1.37,10.5 -5.46,20.75 -12.35,29.64c-25.9,33.43 -43.09,73.08 -48.42,116.32c-1.39,11.3 -5.79,21.56 -12.34,30.03c6.55,8.47 10.95,18.74 12.34,30.03c5.34,43.27 22.52,82.82 48.25,115.73c7.07,9.05 11.24,19.52 12.57,30.24c10.48,1.38 20.71,5.47 29.6,12.35c33.43,25.9 73.08,43.09 116.32,48.42c11.3,1.39 21.56,5.79 30.03,12.34c8.47,-6.55 18.74,-10.95 30.03,-12.34c43.27,-5.34 82.82,-22.52 115.73,-48.25c9.05,-7.07 19.52,-11.24 30.24,-12.57c1.38,-10.48 5.47,-20.72 12.35,-29.6zM624.64,512c0,-62.33 -50.31,-112.64 -112.64,-112.64c-62.33,0 -112.64,50.31 -112.64,112.64c0,62.33 50.31,112.64 112.64,112.64c62.33,0 112.64,-50.31 112.64,-112.64zM809.75,474.45h75.84c-7.51,-75.47 -37.54,-144.17 -82.98,-199.74l-53.69,53.31c32.29,41.68 54.07,91.62 60.83,146.43zM748.92,695.98l53.69,53.69c45.43,-55.57 75.47,-124.66 82.98,-199.75h-75.84c-6.76,54.45 -28.54,104.39 -60.83,146.06zM549.55,809.75v75.84c75.47,-7.51 144.17,-37.54 199.74,-82.98l-53.69,-53.69c-41.3,32.29 -91.24,54.07 -146.05,60.83zM274.71,802.61c55.57,45.43 124.65,75.47 199.74,82.98v-75.84c-54.82,-6.76 -104.76,-28.54 -146.43,-60.83zM474.45,214.25v-75.84c-75.47,7.51 -144.17,37.54 -199.74,82.98l53.31,53.69c41.68,-32.29 91.62,-54.07 146.43,-60.83zM749.29,221.39c-55.57,-45.43 -124.27,-75.47 -199.74,-82.98v75.84c54.82,6.76 104.76,28.54 146.43,60.83zM275.08,328.02l-53.69,-53.31c-45.43,55.57 -75.47,124.27 -82.98,199.74h75.84c6.76,-54.82 28.54,-104.76 60.83,-146.43zM214.25,549.55h-75.84c7.51,75.47 37.54,144.17 82.98,199.74l53.69,-53.69c-32.29,-41.3 -54.07,-91.24 -60.83,-146.05z" fill="currentColor"/>
		</g>
	</g>
</svg>