<svg version="1.1" xmlns="http://www.w3.org/2000/svg" xmlns:xlink="http://www.w3.org/1999/xlink" viewBox="0,0,1024,1024">
	<!-- Color names: teamapps-color-1 -->
	<desc>filter_none icon - Licensed under Apache License v2.0 (http://www.apache.org/licenses/LICENSE-2.0) - Created with Iconfu.com - Derivative work of Material icons (Copyright Google Inc.)</desc>
	<g fill="none" fill-rule="nonzero" style="mix-blend-mode: normal">
		<g color="#039be5" class="teamapps-color-1">
			<path d="M836.27,849.92v75.09c0,33.93 -27.51,61.44 -61.44,61.44h-600.75c-75.23,0 -136.53,-61.3 -136.53,-136.53v-600.75c0,-33.93 27.51,-61.44 61.44,-61.44h75.09c4.69,0 9.26,0.53 13.65,1.52v-15.17c0,-75.24 61.32,-136.53 136.54,-136.53h525.65c75.23,0 136.53,61.3 136.53,136.53v525.65c0,75.22 -61.29,136.54 -136.53,136.54h-15.17c1,4.39 1.52,8.96 1.52,13.65zM385.71,235.52v402.77h402.77v-402.77zM174.08,249.17h-75.09v600.75c0,41.3 33.79,75.09 75.09,75.09h600.75v-75.09h-600.75zM849.92,98.99h-525.65c-41.3,0 -75.1,33.79 -75.1,75.09v525.65c0,41.3 33.8,75.1 75.1,75.1h525.65c41.3,0 75.09,-33.8 75.09,-75.1v-525.65c0,-41.3 -33.79,-75.09 -75.09,-75.09zM849.92,699.73h-525.65v-525.65h525.65z" fill="currentColor"/>
		</g>
	</g>
</svg>