<svg version="1.1" xmlns="http://www.w3.org/2000/svg" xmlns:xlink="http://www.w3.org/1999/xlink" viewBox="0,0,1024,1024">
	<!-- Color names: teamapps-color-1 -->
	<desc>flare icon - Licensed under Apache License v2.0 (http://www.apache.org/licenses/LICENSE-2.0) - Created with Iconfu.com - Derivative work of Material icons (Copyright Google Inc.)</desc>
	<g fill="none" fill-rule="nonzero" style="mix-blend-mode: normal">
		<g color="#039be5" class="teamapps-color-1">
			<path d="M794.24,654.41c23.99,23.99 23.99,62.9 0,86.89l-52.94,52.94c-23.99,23.99 -62.9,23.99 -86.89,0l-43.42,-43.42v174.19c0,33.93 -27.51,61.44 -61.44,61.44h-75.1c-33.93,0 -61.44,-27.51 -61.44,-61.44v-174.19l-43.42,43.42c-23.99,23.99 -62.9,23.99 -86.89,0l-52.94,-52.94c-23.99,-23.99 -23.99,-62.9 0,-86.89l43.42,-43.42h-174.19c-33.93,0 -61.44,-27.51 -61.44,-61.44v-75.1c0,-33.93 27.51,-61.44 61.44,-61.44h174.19l-43.42,-43.42c-23.99,-23.99 -23.99,-62.9 0,-86.89l52.94,-52.94c23.99,-23.99 62.9,-23.99 86.89,0l43.42,43.42v-174.19c0,-33.93 27.51,-61.44 61.44,-61.44h75.1c33.93,0 61.44,27.51 61.44,61.44v174.19l43.42,-43.42c23.99,-23.99 62.9,-23.99 86.89,0l52.94,52.94c23.99,23.99 23.99,62.9 0,86.89l-43.42,43.42h174.19c33.93,0 61.44,27.51 61.44,61.44v75.1c0,33.93 -27.51,61.44 -61.44,61.44h-174.19zM512,399.36c-62.33,0 -112.64,50.31 -112.64,112.64c0,62.33 50.31,112.64 112.64,112.64c62.33,0 112.64,-50.31 112.64,-112.64c0,-62.33 -50.31,-112.64 -112.64,-112.64zM273.2,697.86l52.94,52.94l79.6,-79.6l-52.94,-52.94zM405.74,352.8l-79.6,-79.6l-52.94,52.94l79.6,79.6zM750.8,326.14l-52.94,-52.94l-79.6,79.6l52.94,52.94zM618.26,671.2l79.6,79.6l52.94,-52.94l-79.6,-79.6zM699.73,474.45v75.1h225.28v-75.1zM474.45,925.01h75.1v-225.28h-75.1zM324.27,474.45h-225.28v75.1h225.28zM549.55,98.99h-75.1v225.28h75.1z" fill="currentColor"/>
		</g>
	</g>
</svg>