<svg version="1.1" xmlns="http://www.w3.org/2000/svg" xmlns:xlink="http://www.w3.org/1999/xlink" viewBox="0,0,1024,1024">
	<!-- Color names: teamapps-color-1 -->
	<desc>flash_auto icon - Licensed under Apache License v2.0 (http://www.apache.org/licenses/LICENSE-2.0) - Created with Iconfu.com - Derivative work of Material icons (Copyright Google Inc.)</desc>
	<g fill="none" fill-rule="nonzero" style="mix-blend-mode: normal">
		<g color="#039be5" class="teamapps-color-1">
			<path d="M605.69,161.48l-111.79,251.53h42.32l105.62,-297.06c8.71,-24.5 31.89,-40.86 57.89,-40.86h75.1c26,0 49.18,16.36 57.89,40.86l120.15,337.92c6.69,18.81 3.82,39.7 -7.69,56.01c-11.51,16.31 -30.23,26.01 -50.2,26.01h-71.34c-26.11,0 -49.37,-16.5 -57.99,-41.15l-11.88,-33.94h-32.97l-11.88,33.94c-8.62,24.64 -31.88,41.15 -57.99,41.15h-66.09l-245.05,420.08c-13.99,23.98 -42.31,35.6 -69.11,28.35c-26.79,-7.24 -45.41,-31.55 -45.41,-59.31v-276.48h-51.2c-33.93,0 -61.44,-27.51 -61.44,-61.44v-450.56c0,-33.93 27.51,-61.44 61.44,-61.44h375.47c20.8,0 40.18,10.52 51.52,27.96c11.33,17.44 13.07,39.43 4.63,58.43zM174.08,136.53v450.56h112.64v337.92l262.83,-450.56h-150.19l150.19,-337.92zM774.83,136.53h-75.1l-120.15,337.92h71.34l26.28,-75.09h120.16l26.28,75.09h71.34zM694.1,348.67l43.18,-137.04l43.18,137.04z" fill="currentColor"/>
		</g>
	</g>
</svg>