<svg version="1.1" xmlns="http://www.w3.org/2000/svg" xmlns:xlink="http://www.w3.org/1999/xlink" viewBox="0,0,1024,1024">
	<!-- Color names: teamapps-color-1 -->
	<desc>flight_land icon - Licensed under Apache License v2.0 (http://www.apache.org/licenses/LICENSE-2.0) - Created with Iconfu.com - Derivative work of Material icons (Copyright Google Inc.)</desc>
	<g fill="none" fill-rule="nonzero" style="mix-blend-mode: normal">
		<g color="#039be5" class="teamapps-color-1">
			<path d="M104.01,489.85v-194.12c0,-19.11 8.89,-37.13 24.06,-48.76c15.17,-11.63 34.88,-15.53 53.34,-10.57l54.44,14.64c18.66,5.02 33.88,18.53 41.07,36.47l23.48,58.57l79.59,21.29v-230.85c0,-19.06 8.85,-37.05 23.95,-48.68c15.1,-11.63 34.75,-15.59 53.18,-10.72l72.46,19.15c20.55,5.43 36.83,21.1 43.05,41.42l93.66,306.1l166.89,44.63c62.57,17.21 99.34,81.44 82.93,143.93c-0.05,0.2 -0.11,0.4 -0.16,0.61c-10.74,39.02 -39.81,68.1 -75.38,80.43h28.13c33.93,0 61.44,27.51 61.44,61.44v75.09c0,33.93 -27.51,61.44 -61.44,61.44h-713.38c-33.93,0 -61.44,-27.51 -61.44,-61.44v-75.09c0,-33.93 27.51,-61.44 61.44,-61.44h606.96l-353.34,-94.37l-259.46,-69.84c-26.83,-7.22 -45.47,-31.55 -45.47,-59.33zM424.89,559.69l163.33,43.55l199.37,53.32c30.03,7.88 60.83,-9.77 69.09,-39.8c7.88,-30.03 -9.77,-60.83 -39.8,-69.09l-199.37,-53.31l-103.63,-338.68l-72.46,-19.15v310.89l-186.61,-49.93l-34.92,-87.11l-54.44,-14.64v194.12l60.07,16.14zM155.31,849.92h713.38v-75.09h-713.38z" fill="currentColor"/>
		</g>
	</g>
</svg>