<svg version="1.1" xmlns="http://www.w3.org/2000/svg" xmlns:xlink="http://www.w3.org/1999/xlink" viewBox="0,0,1024,1024">
	<!-- Color names: teamapps-color-1 -->
	<desc>folder_shared icon - Licensed under Apache License v2.0 (http://www.apache.org/licenses/LICENSE-2.0) - Created with Iconfu.com - Derivative work of Material icons (Copyright Google Inc.)</desc>
	<g fill="none" fill-rule="nonzero" style="mix-blend-mode: normal">
		<g color="#039be5" class="teamapps-color-1">
			<path d="M948.91,361.81v375.47c0,75.24 -61.32,136.53 -136.54,136.53h-600.74c-75.22,0 -136.54,-61.29 -136.54,-136.53l0.38,-450.59c0.01,-74.82 60.54,-136.5 136.16,-136.5h225.28c16.29,0 31.92,6.47 43.44,18l57.1,57.1h274.92c75.22,0 136.54,61.29 136.54,136.53zM610.99,474.45c0,7.38 6.29,13.66 13.65,13.66c7.36,0 13.65,-6.28 13.65,-13.66c0,-7.37 -6.28,-13.65 -13.65,-13.65c-7.37,0 -13.65,6.28 -13.65,13.65zM812.37,286.72h-300.37l-75.09,-75.09h-225.28c-41.3,0 -74.72,33.79 -74.72,75.09l-0.38,450.56c0,41.3 33.8,75.09 75.1,75.09h600.74c41.3,0 75.1,-33.79 75.1,-75.09v-375.47c0,-41.3 -33.8,-75.09 -75.1,-75.09zM774.83,699.73h-300.38v-37.54c0,-49.94 100.25,-75.1 150.19,-75.1c49.94,0 150.19,25.16 150.19,75.1zM624.64,399.36c41.3,0 75.09,33.79 75.09,75.09c0,41.3 -33.79,75.1 -75.09,75.1c-41.3,0 -75.09,-33.8 -75.09,-75.1c0,-41.3 33.79,-75.09 75.09,-75.09z" fill="currentColor"/>
		</g>
	</g>
</svg>