<svg version="1.1" xmlns="http://www.w3.org/2000/svg" xmlns:xlink="http://www.w3.org/1999/xlink" viewBox="0,0,1024,1024">
	<!-- Color names: teamapps-color-1 -->
	<desc>format_textdirection_l_to_r icon - Licensed under Apache License v2.0 (http://www.apache.org/licenses/LICENSE-2.0) - Created with Iconfu.com - Derivative work of Material icons (Copyright Google Inc.)</desc>
	<g fill="none" fill-rule="nonzero" style="mix-blend-mode: normal">
		<g color="#039be5" class="teamapps-color-1">
			<path d="M187.73,286.72c0,-116.91 94.72,-211.63 211.63,-211.63h300.37c33.93,0 61.44,27.51 61.44,61.44v75.1c0,33.93 -27.51,61.44 -61.44,61.44h-13.65v254.11c20.36,-4.64 42,1.36 57.1,16.46l150.19,150.19c23.99,23.99 23.99,62.9 0,86.89l-150.19,150.19c-17.57,17.57 -44,22.83 -66.96,13.32c-22.96,-9.51 -37.93,-31.91 -37.93,-56.76v-51.2h-389.12c-33.93,0 -61.44,-27.51 -61.44,-61.44v-75.1c0,-33.93 27.51,-61.44 61.44,-61.44h90.27c-1,-4.39 -1.52,-8.96 -1.52,-13.65v-135.35c-86.94,-26.32 -150.19,-107.03 -150.19,-202.57zM399.36,436.91v187.73h75.09v-413.01h75.1v413.01h75.09v-413.01h75.09v-75.1h-300.37c-82.98,0 -150.19,67.21 -150.19,150.19c0,82.98 67.21,150.19 150.19,150.19zM849.92,737.28l-150.19,-150.19v112.64h-450.56v75.1h450.56v112.64z" fill="currentColor"/>
		</g>
	</g>
</svg>