<svg version="1.1" xmlns="http://www.w3.org/2000/svg" xmlns:xlink="http://www.w3.org/1999/xlink" viewBox="0,0,1024,1024">
	<!-- Color names: teamapps-color-1 -->
	<desc>format_indent_increase icon - Licensed under Apache License v2.0 (http://www.apache.org/licenses/LICENSE-2.0) - Created with Iconfu.com - Derivative work of Material icons (Copyright Google Inc.)</desc>
	<g fill="none" fill-rule="nonzero" style="mix-blend-mode: normal">
		<g color="#039be5" class="teamapps-color-1">
			<path d="M911.36,774.83v75.09c0,33.93 -27.51,61.44 -61.44,61.44h-675.84c-33.93,0 -61.44,-27.51 -61.44,-61.44v-75.09c0,-25.2 15.17,-46.85 36.87,-56.33c-22.36,-9.75 -36.87,-31.85 -36.87,-56.31v-300.38c0,-24.46 14.51,-46.56 36.87,-56.31c-21.7,-9.48 -36.87,-31.13 -36.87,-56.33v-75.09c0,-33.93 27.51,-61.44 61.44,-61.44h675.84c33.93,0 61.44,27.51 61.44,61.44v75.09c0,14.14 -4.78,27.17 -12.81,37.55c8.03,10.38 12.81,23.41 12.81,37.55v75.09c0,14.14 -4.78,27.16 -12.8,37.55c8.03,10.38 12.8,23.41 12.8,37.55v75.1c0,14.14 -4.78,27.16 -12.8,37.55c8.03,10.38 12.8,23.41 12.8,37.55v75.09c0,14.14 -4.78,27.17 -12.81,37.55c8.03,10.38 12.81,23.41 12.81,37.55zM208.05,310.61c3.37,2.23 6.55,4.82 9.48,7.76l150.19,150.19c23.99,23.99 23.99,62.9 0,86.89l-150.19,150.19c-2.93,2.93 -6.11,5.52 -9.48,7.76h206.49c-1,-4.39 -1.52,-8.96 -1.52,-13.66v-75.09c0,-14.14 4.78,-27.16 12.8,-37.55c-8.03,-10.38 -12.8,-23.41 -12.8,-37.55v-75.1c0,-14.14 4.78,-27.16 12.8,-37.55c-8.03,-10.38 -12.8,-23.41 -12.8,-37.55v-75.09c0,-4.69 0.53,-9.27 1.52,-13.66zM174.08,849.92h675.84v-75.09h-675.84zM174.08,174.08v75.09h675.84v-75.09zM174.08,361.81v300.38l150.19,-150.19zM474.45,399.36h375.47v-75.09h-375.47zM474.45,549.55h375.47v-75.1h-375.47zM474.45,699.73h375.47v-75.09h-375.47z" fill="currentColor"/>
		</g>
	</g>
</svg>