<svg version="1.1" xmlns="http://www.w3.org/2000/svg" xmlns:xlink="http://www.w3.org/1999/xlink" viewBox="0,0,1024,1024">
	<!-- Color names: teamapps-color-1 -->
	<desc>format_align_center icon - Licensed under Apache License v2.0 (http://www.apache.org/licenses/LICENSE-2.0) - Created with Iconfu.com - Derivative work of Material icons (Copyright Google Inc.)</desc>
	<g fill="none" fill-rule="nonzero" style="mix-blend-mode: normal">
		<g color="#039be5" class="teamapps-color-1">
			<path d="M174.08,413.01h90.27c-1,-4.39 -1.52,-8.96 -1.52,-13.65v-75.09c0,-4.69 0.53,-9.27 1.52,-13.66h-90.27c-33.93,0 -61.44,-27.51 -61.44,-61.44v-75.09c0,-33.93 27.51,-61.44 61.44,-61.44h675.84c33.93,0 61.44,27.51 61.44,61.44v75.09c0,33.93 -27.51,61.44 -61.44,61.44h-90.27c1,4.39 1.52,8.96 1.52,13.66v75.09c0,4.69 -0.53,9.26 -1.52,13.65h90.27c33.93,0 61.44,27.51 61.44,61.44v75.1c0,33.93 -27.51,61.44 -61.44,61.44h-90.27c1,4.39 1.52,8.96 1.52,13.65v75.09c0,4.69 -0.53,9.27 -1.52,13.66h90.27c33.93,0 61.44,27.51 61.44,61.44v75.09c0,33.93 -27.51,61.44 -61.44,61.44h-675.84c-33.93,0 -61.44,-27.51 -61.44,-61.44v-75.09c0,-33.93 27.51,-61.44 61.44,-61.44h90.27c-1,-4.39 -1.52,-8.96 -1.52,-13.66v-75.09c0,-4.69 0.53,-9.26 1.52,-13.65h-90.27c-33.93,0 -61.44,-27.51 -61.44,-61.44v-75.1c0,-33.93 27.51,-61.44 61.44,-61.44zM174.08,849.92h675.84v-75.09h-675.84zM174.08,549.55h675.84v-75.1h-675.84zM174.08,174.08v75.09h675.84v-75.09zM324.27,324.27v75.09h375.46v-75.09zM324.27,624.64v75.09h375.46v-75.09z" fill="currentColor"/>
		</g>
	</g>
</svg>