<svg version="1.1" xmlns="http://www.w3.org/2000/svg" xmlns:xlink="http://www.w3.org/1999/xlink" viewBox="0,0,1024,1024">
	<!-- Color names: teamapps-color-1 -->
	<desc>forward_10 icon - Licensed under Apache License v2.0 (http://www.apache.org/licenses/LICENSE-2.0) - Created with Iconfu.com - Derivative work of Material icons (Copyright Google Inc.)</desc>
	<g fill="none" fill-rule="nonzero" style="mix-blend-mode: normal">
		<g color="#039be5" class="teamapps-color-1">
			<path d="M450.56,98.99c0,-24.85 14.97,-47.25 37.93,-56.76c22.96,-9.51 49.38,-4.25 66.96,13.32l187.73,187.73c23.99,23.99 23.99,62.9 0,86.89l-119.95,119.95c6.95,3.57 12.16,7.09 14.84,8.88c1.33,0.89 2.47,1.65 2.82,1.82c34.06,17.05 40.7,52.86 41.61,56.35l0.85,2.95c10.43,-19.07 30.67,-32 53.94,-32h75.09c33.93,0 61.44,27.51 61.44,61.44c0,199.13 -162.68,361.81 -361.81,361.81c-199.13,0 -361.81,-162.68 -361.81,-361.81c0,-178.22 130.27,-327.21 300.37,-356.57zM450.56,397.77c-34.54,14.13 -63.31,39.76 -81.47,72.03c3.41,-1.93 7.03,-3.55 10.84,-4.82l70.63,-23.46zM512,713.39c3.2,0 6.38,-0.09 9.53,-0.28c-3.71,-1.88 -6.94,-3.76 -9.58,-5.39c-2.21,2 -4.56,3.85 -7.05,5.51c2.35,0.1 4.72,0.15 7.09,0.15zM375.47,606.16c-4.49,-1.9 -8.79,-4.34 -12.79,-7.31c-3.44,-2.56 -6.57,-5.44 -9.35,-8.6c4.62,17.82 12.18,34.5 22.14,49.48zM211.63,549.55c0,165.2 135.17,300.37 300.37,300.37c165.2,0 300.37,-135.17 300.37,-300.37h-75.09c0,123.9 -101.38,225.28 -225.28,225.28c-123.9,0 -225.28,-101.38 -225.28,-225.28c0,-123.9 101.38,-225.28 225.28,-225.28v150.18l187.73,-187.73l-187.73,-187.73v150.18c-165.2,0 -300.37,135.18 -300.37,300.38zM628.4,568.32c0,-11.26 0,-18.77 -3.76,-30.03c-3.76,-11.26 -3.76,-18.77 -11.26,-22.53c-7.51,-3.76 -11.26,-7.51 -18.77,-11.26c-7.51,-3.76 -15.02,-3.76 -22.53,-3.76c-7.51,0 -15.02,3.76 -22.53,3.76c-7.51,0 -18.78,11.26 -18.78,11.26l-11.26,22.53c-3.76,7.51 -3.75,18.77 -3.75,30.03v26.29c0,11.26 -0.01,18.77 3.75,30.03c3.76,11.26 3.76,18.77 11.26,22.53c7.51,3.76 11.27,7.51 18.78,11.26c7.51,3.76 15.02,3.76 22.53,3.76c7.51,0 15.02,-3.76 22.53,-3.76c7.51,0 18.77,-11.26 18.77,-11.26l11.26,-22.53c3.76,-7.51 3.76,-18.77 3.76,-30.03zM470.7,662.19v-161.45h-3.76l-67.58,22.53v26.29l37.55,-11.26v123.9zM598.35,620.88c0,3.76 -3.75,11.26 -3.75,11.26l-7.52,7.52c-3.76,3.76 -7.51,3.75 -11.26,3.75c-3.76,0 -7.51,0.01 -11.26,-3.75c-3.76,-3.76 -7.51,-3.76 -7.51,-7.52c0,-3.76 -3.76,-11.26 -3.76,-11.26v-75.09c0,-3.76 3.76,-11.26 3.76,-11.26l7.51,-7.51c3.76,-3.76 7.51,-3.76 11.26,-3.76c3.76,0 7.51,0 11.26,3.76c3.76,3.76 7.52,3.75 7.52,7.51c0,3.76 3.75,11.26 3.75,11.26z" fill="currentColor"/>
		</g>
	</g>
</svg>