<svg version="1.1" xmlns="http://www.w3.org/2000/svg" xmlns:xlink="http://www.w3.org/1999/xlink" viewBox="0,0,1024,1024">
	<!-- Color names: teamapps-color-1 -->
	<desc>gavel icon - Licensed under Apache License v2.0 (http://www.apache.org/licenses/LICENSE-2.0) - Created with Iconfu.com - Derivative work of Material icons (Copyright Google Inc.)</desc>
	<g fill="none" fill-rule="nonzero" style="mix-blend-mode: normal">
		<g color="#039be5" class="teamapps-color-1">
			<path d="M214.95,320.98l106.25,-106.15c10,-9.99 22.59,-15.82 35.6,-17.48c1.65,-13.06 7.49,-25.69 17.52,-35.72l106.15,-106.1c23.99,-23.98 62.89,-23.98 86.88,0.01l212.4,212.36c24,23.99 24,62.9 0,86.89l-106.26,106.26c-3.31,3.31 -6.9,6.16 -10.69,8.55l276.19,276.23c23.99,23.99 23.99,62.89 0,86.89l-106.18,106.18c-23.99,23.99 -62.9,23.99 -86.89,0l-276.34,-276.36c-2.42,3.86 -5.31,7.51 -8.67,10.87l-106.19,106.18c-3.46,3.46 -7.23,6.42 -11.22,8.88h206.05c33.93,0 61.44,27.51 61.44,61.44v75.09c0,33.93 -27.51,61.44 -61.44,61.44h-450.56c-33.93,0 -61.44,-27.51 -61.44,-61.44v-75.09c0,-33.93 27.51,-61.44 61.44,-61.44h180.06c-3.99,-2.46 -7.76,-5.42 -11.22,-8.88l-212.4,-212.41c-23.99,-23.99 -23.99,-62.89 0,-86.89l106.18,-106.18c10.05,-10.05 22.73,-15.9 35.82,-17.52c1.67,-13.03 7.51,-25.62 17.52,-35.62zM789.36,895.46l106.18,-106.18l-530.91,-530.98l-106.25,106.15zM98.88,523.75l212.4,212.41l106.19,-106.18l-212.41,-212.41zM417.76,205.09l212.28,212.52l106.26,-106.26l-212.4,-212.36zM98.99,925.01h450.56v-75.09h-450.56z" fill="currentColor"/>
		</g>
	</g>
</svg>