<svg version="1.1" xmlns="http://www.w3.org/2000/svg" xmlns:xlink="http://www.w3.org/1999/xlink" viewBox="0,0,1024,1024">
	<!-- Color names: teamapps-color-1 -->
	<desc>get_app icon - Licensed under Apache License v2.0 (http://www.apache.org/licenses/LICENSE-2.0) - Created with Iconfu.com - Derivative work of Material icons (Copyright Google Inc.)</desc>
	<g fill="none" fill-rule="nonzero" style="mix-blend-mode: normal">
		<g color="#039be5" class="teamapps-color-1">
			<path d="M205.73,442.8c-17.57,-17.57 -22.83,-44 -13.32,-66.96c9.51,-22.96 31.91,-37.93 56.76,-37.93h88.75v-163.84c0,-33.93 27.51,-61.44 61.44,-61.44h225.28c33.93,0 61.44,27.51 61.44,61.44v163.84h88.75c24.85,0 47.25,14.97 56.76,37.93c9.51,22.96 4.25,49.38 -13.32,66.96l-233.04,233.04h189.59c33.93,0 61.44,27.51 61.44,61.44v75.09c0,33.93 -27.51,61.44 -61.44,61.44h-525.66c-33.93,0 -61.44,-27.51 -61.44,-61.44v-75.09c0,-33.93 27.51,-61.44 61.44,-61.44h189.59zM774.83,399.36h-150.19v-225.28h-225.28v225.28h-150.19l262.83,262.83zM249.17,737.28v75.09h525.66v-75.09z" fill="currentColor"/>
		</g>
	</g>
</svg>