<svg version="1.1" xmlns="http://www.w3.org/2000/svg" xmlns:xlink="http://www.w3.org/1999/xlink" viewBox="0,0,1024,1024">
	<!-- Color names: teamapps-color-1 -->
	<desc>gps_not_fixed icon - Licensed under Apache License v2.0 (http://www.apache.org/licenses/LICENSE-2.0) - Created with Iconfu.com - Derivative work of Material icons (Copyright Google Inc.)</desc>
	<g fill="none" fill-rule="nonzero" style="mix-blend-mode: normal">
		<g color="#039be5" class="teamapps-color-1">
			<path d="M986.45,474.45v75.1c0,33.93 -27.51,61.44 -61.44,61.44h-26.21c-35.94,140.99 -146.83,251.87 -287.81,287.81v26.21c0,33.93 -27.51,61.44 -61.44,61.44h-75.1c-33.93,0 -61.44,-27.51 -61.44,-61.44v-26.21c-140.99,-35.94 -251.87,-146.83 -287.81,-287.81h-26.21c-33.93,0 -61.44,-27.51 -61.44,-61.44v-75.1c0,-33.93 27.51,-61.44 61.44,-61.44h26.21c35.94,-140.99 146.83,-251.87 287.81,-287.81v-26.21c0,-33.93 27.51,-61.44 61.44,-61.44h75.1c33.93,0 61.44,27.51 61.44,61.44v26.21c140.99,35.94 251.87,146.83 287.81,287.81h26.21c33.93,0 61.44,27.51 61.44,61.44zM713.39,512c0,-111.37 -90.02,-201.39 -201.39,-201.39c-111.37,0 -201.39,90.02 -201.39,201.39c0,111.37 90.02,201.39 201.39,201.39c111.37,0 201.39,-90.02 201.39,-201.39zM847.67,474.45c-17.27,-156.57 -141.55,-280.84 -298.12,-298.12v-77.34h-75.1v77.34c-156.57,17.27 -280.84,141.55 -298.12,298.12h-77.34v75.1h77.34c17.27,156.57 141.55,280.84 298.12,298.12v77.34h75.1v-77.34c156.57,-17.27 280.84,-141.55 298.12,-298.12h77.34v-75.1zM512,774.83c-145.31,0 -262.83,-117.52 -262.83,-262.83c0,-145.31 117.52,-262.83 262.83,-262.83c145.31,0 262.83,117.52 262.83,262.83c0,145.31 -117.52,262.83 -262.83,262.83z" fill="currentColor"/>
		</g>
	</g>
</svg>