<svg version="1.1" xmlns="http://www.w3.org/2000/svg" xmlns:xlink="http://www.w3.org/1999/xlink" viewBox="0,0,1024,1024">
	<!-- Color names: teamapps-color-1 -->
	<desc>gradient icon - Licensed under Apache License v2.0 (http://www.apache.org/licenses/LICENSE-2.0) - Created with Iconfu.com - Derivative work of Material icons (Copyright Google Inc.)</desc>
	<g fill="none" fill-rule="nonzero" style="mix-blend-mode: normal">
		<g color="#039be5" class="teamapps-color-1">
			<path d="M911.36,249.17v525.66c0,75.23 -61.3,136.53 -136.53,136.53h-525.66c-75.23,0 -136.53,-61.3 -136.53,-136.53v-525.66c0,-75.23 61.3,-136.53 136.53,-136.53h525.66c75.23,0 136.53,61.3 136.53,136.53zM310.61,310.61v28.83c4.39,-1 8.96,-1.52 13.66,-1.52h75.09c14.14,0 27.16,4.78 37.55,12.8c10.38,-8.03 23.41,-12.8 37.55,-12.8h75.1c14.14,0 27.16,4.78 37.55,12.8c10.38,-8.03 23.41,-12.8 37.55,-12.8h75.09c4.69,0 9.27,0.53 13.66,1.52v-28.83zM774.83,174.08h-525.66c-41.3,0 -75.09,33.79 -75.09,75.09v525.66c0,41.3 33.79,75.09 75.09,75.09h525.66c41.3,0 75.09,-33.79 75.09,-75.09v-525.66c0,-41.3 -33.79,-75.09 -75.09,-75.09zM774.83,474.45h-75.1v-75.09h-75.09v75.09h-75.09v-75.09h-75.1v75.09h-75.09v-75.09h-75.09v75.09h-75.1v-225.28h525.66zM324.27,549.55v75.09h-75.1v-75.09zM399.36,549.55h75.09v75.09h-75.09zM549.55,549.55h75.09v75.09h-75.09zM699.73,549.55h75.1v75.09h-75.1zM399.36,737.28h-75.09v-75.09h75.09zM549.55,737.28h-75.1v-75.09h75.1zM699.73,737.28h-75.09v-75.09h75.09zM399.36,474.45v75.1h-75.09v-75.1zM474.45,474.45h75.1v75.1h-75.1zM624.64,474.45h75.09v75.1h-75.09z" fill="currentColor"/>
		</g>
	</g>
</svg>