<svg version="1.1" xmlns="http://www.w3.org/2000/svg" xmlns:xlink="http://www.w3.org/1999/xlink" viewBox="0,0,1024,1024">
	<!-- Color names: teamapps-color-1 -->
	<desc>grid_off icon - Licensed under Apache License v2.0 (http://www.apache.org/licenses/LICENSE-2.0) - Created with Iconfu.com - Derivative work of Material icons (Copyright Google Inc.)</desc>
	<g fill="none" fill-rule="nonzero" style="mix-blend-mode: normal">
		<g color="#039be5" class="teamapps-color-1">
			<path d="M958.32,958.31l-47.68,47.69c-23.99,24 -62.89,24 -86.89,0.01l-57.1,-57.1h-555.02c-75.23,0 -136.54,-61.31 -136.54,-136.54v-554.65l-57.1,-57.1c-23.93,-23.93 -24,-62.7 -0.17,-86.72l47.69,-48.06c23.97,-24.15 63,-24.23 87.06,-0.17l32.05,32.05c11.48,-14.09 28.86,-22.65 47.65,-22.65h580.1c75.23,0 136.54,61.31 136.54,136.54v580.1c0,18.79 -8.55,36.17 -22.65,47.65l32.05,32.05c23.99,23.99 23.99,62.89 0,86.89zM723.63,498.35v27.3h27.3v-27.3zM498.35,273.07v27.3h27.3v-27.3zM273.07,723.63v27.3h27.3v-27.3zM723.63,273.07v27.3h27.3v-27.3zM273.07,498.35v27.3h27.3v-27.3zM498.35,723.63v27.3h27.3v-27.3zM109.13,109.13l-47.69,48.06l75.09,75.09v580.1c0,41.3 33.8,75.1 75.1,75.1h580.47l75.1,75.09l47.68,-47.69zM361.81,211.63v54.44l75.1,75.1v-129.54h150.18v150.18h-129.54l75.1,75.1h54.44v54.44l75.1,75.1v-129.54h150.18v150.18h-129.54l75.1,75.1h54.44v54.44l75.1,75.1v-580.1c0,-41.3 -33.8,-75.1 -75.1,-75.1h-580.1l75.1,75.1zM662.19,211.63h150.18v150.18h-150.18zM361.81,812.37h-150.18v-150.18h150.18zM361.81,587.09h-150.18v-150.18h129.54l20.64,20.64zM587.09,812.37h-150.18v-150.18h129.54l20.64,20.28zM662.19,812.37v-54.82l54.82,54.82zM211.63,307.37l54.44,54.44h-54.44zM436.91,532.65l54.44,54.44h-54.44z" fill="currentColor"/>
		</g>
	</g>
</svg>