<svg version="1.1" xmlns="http://www.w3.org/2000/svg" xmlns:xlink="http://www.w3.org/1999/xlink" viewBox="0,0,1024,1024">
	<!-- Color names: teamapps-color-1 -->
	<desc>hdr_weak icon - Licensed under Apache License v2.0 (http://www.apache.org/licenses/LICENSE-2.0) - Created with Iconfu.com - Derivative work of Material icons (Copyright Google Inc.)</desc>
	<g fill="none" fill-rule="nonzero" style="mix-blend-mode: normal">
		<g color="#039be5" class="teamapps-color-1">
			<path d="M986.45,512c0,158.21 -128.51,286.72 -286.72,286.72c-121.13,0 -224.84,-75.32 -266.81,-181.63c-36.48,63.66 -105.09,106.54 -183.75,106.54c-116.91,0 -211.62,-94.73 -211.62,-211.63c0,-116.9 94.71,-211.63 211.62,-211.63c78.66,0 147.27,42.88 183.75,106.54c41.97,-106.31 145.68,-181.63 266.81,-181.63c158.21,0 286.72,128.51 286.72,286.72zM788.48,512c0,-49.04 -39.71,-88.75 -88.75,-88.75c-49.04,0 -88.74,39.7 -88.74,88.75c0,49.05 39.7,88.75 88.74,88.75c49.04,0 88.75,-39.71 88.75,-88.75zM699.73,286.72c-124.28,0 -225.28,101 -225.28,225.28c0,124.28 101,225.28 225.28,225.28c124.28,0 225.28,-101 225.28,-225.28c0,-124.28 -101,-225.28 -225.28,-225.28zM699.73,662.19c-82.98,0 -150.18,-67.21 -150.18,-150.19c0,-82.98 67.21,-150.19 150.18,-150.19c82.98,0 150.19,67.21 150.19,150.19c0,82.98 -67.21,150.19 -150.19,150.19zM249.17,361.81c-82.98,0 -150.18,67.21 -150.18,150.19c0,82.98 67.21,150.19 150.18,150.19c82.98,0 150.19,-67.21 150.19,-150.19c0,-82.98 -67.21,-150.19 -150.19,-150.19z" fill="currentColor"/>
		</g>
	</g>
</svg>