<svg version="1.1" xmlns="http://www.w3.org/2000/svg" xmlns:xlink="http://www.w3.org/1999/xlink" viewBox="0,0,1024,1024">
	<!-- Color names: teamapps-color-1 -->
	<desc>hdr_on icon - Licensed under Apache License v2.0 (http://www.apache.org/licenses/LICENSE-2.0) - Created with Iconfu.com - Derivative work of Material icons (Copyright Google Inc.)</desc>
	<g fill="none" fill-rule="nonzero" style="mix-blend-mode: normal">
		<g color="#039be5" class="teamapps-color-1">
			<path d="M549.55,686.08h-131.42c-10.15,0 -19.72,-2.46 -28.16,-6.82c-8.44,4.36 -18.01,6.82 -28.16,6.82h-56.32c-14.14,0 -27.16,-4.78 -37.55,-12.8c-10.38,8.03 -23.41,12.8 -37.55,12.8h-56.32c-33.93,0 -61.44,-27.51 -61.44,-61.44v-225.28c0,-33.93 27.51,-61.44 61.44,-61.44h56.32c14.14,0 27.16,4.78 37.55,12.8c10.38,-8.03 23.41,-12.8 37.55,-12.8h56.32c10.15,0 19.72,2.46 28.16,6.82c8.44,-4.36 18.01,-6.82 28.16,-6.82h131.42c24.4,0 47.32,7.83 66.33,21.06c11.26,-12.9 27.83,-21.06 46.31,-21.06h131.41c63.97,0 117.76,53.79 117.76,117.76v37.55c0,26.77 -9.19,49.35 -22.08,67.29l17.11,39.92c8.14,18.98 6.19,40.78 -5.18,58.02c-11.37,17.24 -30.64,27.62 -51.29,27.62h-56.32c-13.87,0 -27,-4.67 -37.54,-12.8c-10.38,8.03 -23.41,12.8 -37.55,12.8h-56.32c-18.47,0 -35.04,-8.15 -46.31,-21.06c-19.02,13.23 -41.94,21.06 -66.33,21.06zM849.92,493.23v-37.55c0,-30.03 -26.29,-56.32 -56.32,-56.32h-131.41v225.28h56.32v-75.09h41.3l33.79,75.09h56.32l-33.79,-78.85c18.77,-11.26 33.79,-30.03 33.79,-52.56zM305.49,474.45h-75.09v-75.09h-56.32v225.28h56.32v-93.87h75.09v93.87h56.32v-225.28h-56.32zM549.55,399.36h-131.42v225.28h131.42c30.03,0 56.32,-26.29 56.32,-56.32v-112.64c0,-30.03 -26.29,-56.32 -56.32,-56.32zM549.55,568.32h-75.1v-112.64h75.1zM793.6,493.23h-75.09v-37.55h75.09z" fill="currentColor"/>
		</g>
	</g>
</svg>