<svg version="1.1" xmlns="http://www.w3.org/2000/svg" xmlns:xlink="http://www.w3.org/1999/xlink" viewBox="0,0,1024,1024">
	<!-- Color names: teamapps-color-1 -->
	<desc>headset icon - Licensed under Apache License v2.0 (http://www.apache.org/licenses/LICENSE-2.0) - Created with Iconfu.com - Derivative work of Material icons (Copyright Google Inc.)</desc>
	<g fill="none" fill-rule="nonzero" style="mix-blend-mode: normal">
		<g color="#039be5" class="teamapps-color-1">
			<path d="M911.36,436.91v262.82c0,96.26 -77.82,174.08 -174.08,174.08h-112.64c-33.93,0 -61.44,-27.51 -61.44,-61.44v-300.37c0,-33.93 27.51,-61.44 61.44,-61.44h88.75v-13.65c0,-111.37 -90.02,-201.39 -201.39,-201.39c-111.37,0 -201.39,90.02 -201.39,201.39v13.65h88.75c33.93,0 61.44,27.51 61.44,61.44v300.37c0,33.93 -27.51,61.44 -61.44,61.44h-112.64c-96.26,0 -174.08,-77.82 -174.08,-174.08v-262.82c0,-220.54 178.82,-399.36 399.36,-399.36c220.54,0 399.36,178.82 399.36,399.36zM512,98.99c-186.6,0 -337.92,151.32 -337.92,337.92v262.82c0,62.33 50.31,112.64 112.64,112.64h112.64v-300.37h-150.19v-75.09c0,-145.31 117.52,-262.83 262.83,-262.83c145.31,0 262.83,117.52 262.83,262.83v75.09h-150.19v300.37h112.64c62.33,0 112.64,-50.31 112.64,-112.64v-262.82c0,-186.6 -151.32,-337.92 -337.92,-337.92z" fill="currentColor"/>
		</g>
	</g>
</svg>