<svg version="1.1" xmlns="http://www.w3.org/2000/svg" xmlns:xlink="http://www.w3.org/1999/xlink" viewBox="0,0,1024,1024">
	<!-- Color names: teamapps-color-1 -->
	<desc>highlight_off icon - Licensed under Apache License v2.0 (http://www.apache.org/licenses/LICENSE-2.0) - Created with Iconfu.com - Derivative work of Material icons (Copyright Google Inc.)</desc>
	<g fill="none" fill-rule="nonzero" style="mix-blend-mode: normal">
		<g color="#039be5" class="teamapps-color-1">
			<path d="M948.91,512c0,241.57 -195.34,436.91 -436.91,436.91c-241.57,0 -436.91,-195.34 -436.91,-436.91c0,-241.57 195.34,-436.91 436.91,-436.91c241.57,0 436.91,195.34 436.91,436.91zM750.93,512c0,-42.19 -11.02,-81.88 -30.33,-116.33c6.94,21.29 1.95,45.61 -14.97,62.53l-53.8,53.8l53.8,53.8c16.92,16.92 21.91,41.24 14.97,62.53c19.31,-34.46 30.33,-74.14 30.33,-116.33zM512,273.07c-42.19,0 -81.88,11.02 -116.33,30.33c21.29,-6.94 45.61,-1.95 62.53,14.97l53.8,53.8l53.8,-53.8c16.92,-16.92 41.24,-21.91 62.53,-14.97c-34.46,-19.31 -74.14,-30.33 -116.33,-30.33zM273.07,512c0,42.19 11.02,81.88 30.33,116.33c-6.94,-21.29 -1.95,-45.61 14.97,-62.53l53.8,-53.8l-53.8,-53.8c-16.92,-16.92 -21.91,-41.24 -14.97,-62.53c-19.31,34.46 -30.33,74.14 -30.33,116.33zM512,750.93c42.19,0 81.88,-11.02 116.33,-30.33c-21.29,6.94 -45.61,1.95 -62.53,-14.97l-53.8,-53.8l-53.8,53.8c-16.92,16.92 -41.24,21.91 -62.53,14.97c34.46,19.31 74.14,30.33 116.33,30.33zM702.97,368.65c-13.56,-18.01 -29.61,-34.06 -47.62,-47.62zM368.65,321.03c-18.01,13.56 -34.06,29.61 -47.62,47.62zM321.03,655.35c13.56,18.01 29.61,34.06 47.62,47.62zM655.35,702.97c18.01,-13.56 34.06,-29.61 47.62,-47.62zM512,136.53c-207.64,0 -375.47,167.83 -375.47,375.47c0,207.64 167.83,375.47 375.47,375.47c207.64,0 375.47,-167.83 375.47,-375.47c0,-207.64 -167.83,-375.47 -375.47,-375.47zM512,812.37c-165.58,0 -300.37,-134.79 -300.37,-300.37c0,-165.58 134.79,-300.37 300.37,-300.37c165.58,0 300.37,134.79 300.37,300.37c0,165.58 -134.79,300.37 -300.37,300.37zM609.25,361.81l-97.25,97.25l-97.25,-97.25l-52.94,52.94l97.25,97.25l-97.25,97.25l52.94,52.94l97.25,-97.25l97.25,97.25l52.94,-52.94l-97.25,-97.25l97.25,-97.25z" fill="currentColor"/>
		</g>
	</g>
</svg>