<svg version="1.1" xmlns="http://www.w3.org/2000/svg" xmlns:xlink="http://www.w3.org/1999/xlink" viewBox="0,0,1024,1024">
	<!-- Color names: teamapps-color-1 -->
	<desc>https icon - Licensed under Apache License v2.0 (http://www.apache.org/licenses/LICENSE-2.0) - Created with Iconfu.com - Derivative work of Material icons (Copyright Google Inc.)</desc>
	<g fill="none" fill-rule="nonzero" style="mix-blend-mode: normal">
		<g color="#039be5" class="teamapps-color-1">
			<path d="M873.81,436.91v375.46c0,75.22 -61.29,136.54 -136.53,136.54h-450.56c-75.24,0 -136.53,-61.32 -136.53,-136.54v-375.46c0,-67.08 48.74,-123.1 112.64,-134.44v-15.75c0,-137.56 111.61,-249.17 249.17,-249.17c137.56,0 249.17,111.61 249.17,249.17v15.75c63.9,11.35 112.64,67.37 112.64,134.44zM566.96,286.72c0,-30.27 -24.69,-54.96 -54.96,-54.96c-30.27,0 -54.96,24.69 -54.96,54.96v13.65h109.92zM525.65,624.64c0,-7.37 -6.28,-13.65 -13.65,-13.65c-7.37,0 -13.65,6.28 -13.65,13.65c0,7.37 6.28,13.65 13.65,13.65c7.37,0 13.65,-6.28 13.65,-13.65zM737.28,361.81h-37.55v-75.09c0,-103.63 -84.1,-187.73 -187.73,-187.73c-103.63,0 -187.73,84.1 -187.73,187.73v75.09h-37.55c-41.3,0 -75.09,33.8 -75.09,75.1v375.46c0,41.3 33.79,75.1 75.09,75.1h450.56c41.3,0 75.09,-33.8 75.09,-75.1v-375.46c0,-41.3 -33.79,-75.1 -75.09,-75.1zM628.4,361.81h-232.8v-75.09c0,-64.2 52.19,-116.4 116.4,-116.4c64.2,0 116.4,52.19 116.4,116.4zM512,699.73c-41.3,0 -75.09,-33.79 -75.09,-75.09c0,-41.3 33.79,-75.09 75.09,-75.09c41.3,0 75.09,33.79 75.09,75.09c0,41.3 -33.79,75.09 -75.09,75.09z" fill="currentColor"/>
		</g>
	</g>
</svg>