<svg version="1.1" xmlns="http://www.w3.org/2000/svg" xmlns:xlink="http://www.w3.org/1999/xlink" viewBox="0,0,1024,1024">
	<!-- Color names: teamapps-color-1 -->
	<desc>image_aspect_ratio icon - Licensed under Apache License v2.0 (http://www.apache.org/licenses/LICENSE-2.0) - Created with Iconfu.com - Derivative work of Material icons (Copyright Google Inc.)</desc>
	<g fill="none" fill-rule="nonzero" style="mix-blend-mode: normal">
		<g color="#039be5" class="teamapps-color-1">
			<path d="M948.91,286.72v450.56c0,75.24 -61.32,136.53 -136.54,136.53h-600.74c-75.22,0 -136.54,-61.29 -136.54,-136.53v-450.56c0,-75.24 61.32,-136.53 136.54,-136.53h600.74c75.22,0 136.54,61.29 136.54,136.53zM273.07,348.16v28.83c4.39,-1 8.96,-1.52 13.65,-1.52h75.09c14.14,0 27.17,4.78 37.55,12.81c10.38,-8.03 23.41,-12.81 37.55,-12.81h75.09c14.14,0 27.16,4.78 37.55,12.8c10.38,-8.03 23.41,-12.8 37.55,-12.8h75.1c33.93,0 61.44,27.51 61.44,61.44v75.09c0,14.14 -4.78,27.16 -12.8,37.55c8.03,10.38 12.8,23.41 12.8,37.55v75.1c0,4.69 -0.53,9.26 -1.52,13.65h28.82v-327.68zM273.07,675.84h254.1c-1,-4.39 -1.52,-8.96 -1.52,-13.65v-75.1c0,-5.41 0.7,-10.66 2.02,-15.67c-5,1.31 -10.25,2.02 -15.67,2.02h-75.09c-14.14,0 -27.17,-4.78 -37.55,-12.81c-10.38,8.03 -23.41,12.81 -37.55,12.81h-75.09c-4.69,0 -9.26,-0.53 -13.65,-1.52zM812.37,211.63h-600.74c-41.3,0 -75.1,33.79 -75.1,75.09v450.56c0,41.3 33.8,75.09 75.1,75.09h600.74c41.3,0 75.1,-33.79 75.1,-75.09v-450.56c0,-41.3 -33.8,-75.09 -75.1,-75.09zM812.37,737.28h-600.74v-450.56h600.74zM662.19,436.91h-75.1v75.09h75.1zM662.19,587.09h-75.1v75.1h75.1zM512,436.91h-75.09v75.09h75.09zM361.81,436.91h-75.09v75.09h75.09z" fill="currentColor"/>
		</g>
	</g>
</svg>