<svg version="1.1" xmlns="http://www.w3.org/2000/svg" xmlns:xlink="http://www.w3.org/1999/xlink" viewBox="0,0,1024,1024">
	<!-- Color names: teamapps-color-1 -->
	<desc>insert_comment icon - Licensed under Apache License v2.0 (http://www.apache.org/licenses/LICENSE-2.0) - Created with Iconfu.com - Derivative work of Material icons (Copyright Google Inc.)</desc>
	<g fill="none" fill-rule="nonzero" style="mix-blend-mode: normal">
		<g color="#039be5" class="teamapps-color-1">
			<path d="M948.91,211.63v675.84c0,24.85 -14.97,47.25 -37.93,56.76c-22.96,9.51 -49.38,4.25 -66.96,-13.32l-132.19,-132.19h-500.2c-75.22,0 -136.54,-61.29 -136.54,-136.53v-450.56c0,-75.23 61.31,-136.54 136.54,-136.54h600.74c75.23,0 136.54,61.31 136.54,136.54zM812.37,136.53h-600.74c-41.3,0 -75.1,33.8 -75.1,75.1v450.56c0,41.3 33.8,75.09 75.1,75.09h525.65l150.19,150.19v-675.84c0,-41.3 -33.8,-75.1 -75.1,-75.1zM737.28,474.45h-450.56v-75.09h450.56zM737.28,361.81h-450.56v-75.09h450.56zM737.28,587.09h-450.56v-75.09h450.56z" fill="currentColor"/>
		</g>
	</g>
</svg>