<svg version="1.1" xmlns="http://www.w3.org/2000/svg" xmlns:xlink="http://www.w3.org/1999/xlink" viewBox="0,0,1024,1024">
	<!-- Color names: teamapps-color-1 -->
	<desc>invert_colors_off icon - Licensed under Apache License v2.0 (http://www.apache.org/licenses/LICENSE-2.0) - Created with Iconfu.com - Derivative work of Material icons (Copyright Google Inc.)</desc>
	<g fill="none" fill-rule="nonzero" style="mix-blend-mode: normal">
		<g color="#039be5" class="teamapps-color-1">
			<path d="M893.36,902l-47.69,47.69c-23.99,23.99 -62.9,23.99 -86.89,0l-65.25,-65.25c-55.98,32.58 -118.75,48.7 -181.54,48.7c-92.54,0 -185.35,-35.25 -255.96,-105.85c-118.33,-118.73 -137.6,-299.01 -57.12,-437.46l-68.29,-68.29c-23.99,-23.99 -23.99,-62.9 0,-86.89l47.69,-47.69c23.97,-23.97 62.83,-24 86.84,-0.05l60.17,60.02c1.34,-1.65 2.77,-3.24 4.31,-4.77l138.93,-138.93c24.01,-24.01 62.94,-23.99 86.93,0.04l212.14,212.52c110.42,110.45 134.22,273.81 72.34,407.5c-3.91,8.45 -9.62,15.76 -16.59,21.53l57.46,57.4l13.14,13.52c23.41,24.09 23.14,62.51 -0.61,86.27zM350.86,542c-1.79,9.68 -2.7,19.61 -2.7,29.7c0,43.75 16.78,84.45 48.08,115.76c0.06,0.06 0.11,0.11 0.17,0.17c15.71,15.85 34.09,28.01 54.15,36.12v-82.25zM836.78,845.04l-88.24,-88.23l-236.54,-236.17l-133.66,-134.04l-53.32,-52.94l-103.25,-103.25l-47.69,47.69l104.38,104.38c-95.74,117.89 -88.61,291.37 21.03,401.38c58.57,58.57 135.54,87.86 212.51,87.86c67.21,0 134.04,-22.16 188.86,-66.84l101.38,101.38l47.69,-47.69zM512,252.93v171.96l272.21,272.59c51.44,-111.14 31.55,-246.67 -60.07,-338.29l-212.14,-212.52l-138.93,138.93l52.94,52.94zM512,796.98c-60.08,0 -116.78,-23.28 -159.2,-66.08c-42.8,-42.8 -66.08,-99.12 -66.08,-159.2c0,-49.56 16.15,-96.49 45.43,-135.17l179.85,179.48z" fill="currentColor"/>
		</g>
	</g>
</svg>