<svg version="1.1" xmlns="http://www.w3.org/2000/svg" xmlns:xlink="http://www.w3.org/1999/xlink" viewBox="0,0,1024,1024">
	<!-- Color names: teamapps-color-1 -->
	<desc>language icon - Licensed under Apache License v2.0 (http://www.apache.org/licenses/LICENSE-2.0) - Created with Iconfu.com - Derivative work of Material icons (Copyright Google Inc.)</desc>
	<g fill="none" fill-rule="nonzero" style="mix-blend-mode: normal">
		<g color="#039be5" class="teamapps-color-1">
			<path d="M948.91,512c0,241.23 -195.76,436.91 -437.29,436.91c-241.27,0 -436.53,-195.8 -436.53,-436.91c0,-241.11 195.26,-436.91 436.53,-436.91c241.53,0 437.29,195.68 437.29,436.91zM544.43,512c0,-4.52 -0.1,-9.07 -0.28,-13.65h-64.29c-0.19,4.58 -0.28,9.13 -0.28,13.65c0,4.53 0.1,9.08 0.29,13.65h64.29c0.19,-4.57 0.29,-9.12 0.29,-13.65zM750.93,512c0,-4.54 -0.15,-9.1 -0.44,-13.65h-8.27v27.3h8.27c0.29,-4.56 0.44,-9.11 0.44,-13.65zM281.78,498.35h-8.27c-0.29,4.56 -0.44,9.11 -0.44,13.65c0,4.54 0.15,9.1 0.44,13.65h8.27zM511.62,136.53c-207.26,0 -375.09,168.21 -375.09,375.47c0,207.26 167.83,375.47 375.09,375.47c207.64,0 375.85,-168.21 375.85,-375.47c0,-207.26 -168.21,-375.47 -375.85,-375.47zM599.86,587.09h-175.72c-3.38,-24.78 -6.01,-49.56 -6.01,-75.09c0,-25.53 2.63,-50.69 6.01,-75.09h175.72c3.38,24.4 6.01,49.56 6.01,75.09c0,25.53 -2.63,50.31 -6.01,75.09zM362.94,361.81h-110.76c36.04,-62.33 93.48,-110.01 162.57,-133.66c-22.53,41.68 -39.8,86.73 -51.81,133.66zM609.25,795.85c22.53,-41.68 39.8,-86.73 51.81,-133.66h110.76c-36.04,61.95 -93.48,110.01 -162.57,133.66zM252.18,662.19h110.76c12.01,46.93 29.29,91.99 51.81,133.66c-69.09,-23.65 -126.53,-71.33 -162.57,-133.66zM771.82,361.81h-110.76c-12.01,-46.93 -29.29,-91.99 -51.81,-133.66c69.09,23.65 126.53,71.71 162.57,133.66zM512,810.87c-31.16,-45.06 -55.56,-95 -71.71,-148.68h143.42c-16.15,53.69 -40.55,103.63 -71.71,148.68zM512,213.13c31.16,45.06 55.56,95 71.71,148.68h-143.42c16.15,-53.69 40.55,-103.63 71.71,-148.68zM221.39,587.09c-6.01,-24.03 -9.76,-49.18 -9.76,-75.09c0,-25.91 3.75,-51.06 9.76,-75.09h126.9c-3,24.78 -5.25,49.56 -5.25,75.09c0,25.53 2.25,50.31 5.25,75.09zM675.71,587.09c3,-24.78 5.25,-49.56 5.25,-75.09c0,-25.53 -2.25,-50.31 -5.25,-75.09h126.9c6.01,24.03 9.76,49.18 9.76,75.09c0,25.91 -3.75,51.06 -9.76,75.09z" fill="currentColor"/>
		</g>
	</g>
</svg>