<svg version="1.1" xmlns="http://www.w3.org/2000/svg" xmlns:xlink="http://www.w3.org/1999/xlink" viewBox="0,0,1024,1024">
	<!-- Color names: teamapps-color-1 -->
	<desc>leak_add icon - Licensed under Apache License v2.0 (http://www.apache.org/licenses/LICENSE-2.0) - Created with Iconfu.com - Derivative work of Material icons (Copyright Google Inc.)</desc>
	<g fill="none" fill-rule="nonzero" style="mix-blend-mode: normal">
		<g color="#039be5" class="teamapps-color-1">
			<path d="M911.36,436.91v75.09c0,14.14 -4.78,27.16 -12.8,37.55c8.03,10.38 12.8,23.41 12.8,37.55v75.1c0,14.14 -4.78,27.16 -12.8,37.55c8.03,10.38 12.8,23.41 12.8,37.55v112.64c0,33.93 -27.51,61.44 -61.44,61.44h-112.64c-14.14,0 -27.16,-4.78 -37.55,-12.8c-10.38,8.03 -23.41,12.8 -37.55,12.8h-75.1c-14.14,0 -27.16,-4.78 -37.55,-12.8c-10.38,8.03 -23.41,12.8 -37.55,12.8h-75.09c-33.93,0 -61.44,-27.51 -61.44,-61.44c0,-261.84 212.61,-474.45 474.45,-474.45c33.93,0 61.44,27.51 61.44,61.44zM112.64,587.09v-75.09c0,-14.14 4.78,-27.16 12.8,-37.55c-8.03,-10.38 -12.8,-23.41 -12.8,-37.55v-75.1c0,-14.14 4.78,-27.16 12.8,-37.55c-8.03,-10.38 -12.8,-23.41 -12.8,-37.55v-112.64c0,-33.93 27.51,-61.44 61.44,-61.44h112.64c14.14,0 27.16,4.78 37.55,12.8c10.38,-8.03 23.41,-12.8 37.55,-12.8h75.1c14.14,0 27.16,4.78 37.55,12.8c10.38,-8.03 23.41,-12.8 37.55,-12.8h75.09c33.93,0 61.44,27.51 61.44,61.44c0,261.81 -212.2,474.45 -474.45,474.45c-33.93,0 -61.44,-27.51 -61.44,-61.44zM436.91,849.92h75.09c0,-186.6 151.32,-337.92 337.92,-337.92v-75.09c-227.91,0 -413.01,185.1 -413.01,413.01zM587.09,174.08h-75.09c0,186.6 -151.32,337.92 -337.92,337.92v75.09c228.28,0 413.01,-185.1 413.01,-413.01zM587.09,849.92h75.1c0,-103.63 84.1,-187.73 187.73,-187.73v-75.1c-145.31,0 -262.83,117.52 -262.83,262.83zM436.91,174.08h-75.1c0,103.63 -84.1,187.73 -187.73,187.73v75.1c145.31,0 262.83,-117.52 262.83,-262.83zM286.72,174.08h-112.64v112.64c62.33,0 112.64,-50.31 112.64,-112.64zM737.28,849.92h112.64v-112.64c-62.33,0 -112.64,50.31 -112.64,112.64z" fill="currentColor"/>
		</g>
	</g>
</svg>