<svg version="1.1" xmlns="http://www.w3.org/2000/svg" xmlns:xlink="http://www.w3.org/1999/xlink" viewBox="0,0,1024,1024">
	<!-- Color names: teamapps-color-1 -->
	<desc>live_help icon - Licensed under Apache License v2.0 (http://www.apache.org/licenses/LICENSE-2.0) - Created with Iconfu.com - Derivative work of Material icons (Copyright Google Inc.)</desc>
	<g fill="none" fill-rule="nonzero" style="mix-blend-mode: normal">
		<g color="#039be5" class="teamapps-color-1">
			<path d="M911.36,211.63v525.65c0,75.23 -61.3,136.53 -136.53,136.53h-124.74l-94.64,94.64c-23.99,23.99 -62.9,23.99 -86.89,0l-94.64,-94.64h-124.74c-75.82,0 -136.53,-61.51 -136.53,-136.53v-525.65c0,-75.01 60.71,-136.54 136.53,-136.54h525.66c75.24,0 136.53,61.32 136.53,136.54zM774.83,136.53h-525.66c-41.68,0 -75.09,33.8 -75.09,75.1v525.65c0,41.3 33.41,75.09 75.09,75.09h150.19l112.64,112.64l112.64,-112.64h150.19c41.3,0 75.09,-33.79 75.09,-75.09v-525.65c0,-41.3 -33.79,-75.1 -75.09,-75.1zM627.27,446.29l-33.79,34.55c-27.03,27.41 -43.93,49.93 -43.93,106.25h-75.1v-18.77c0,-41.3 16.9,-78.85 43.93,-106.26l46.56,-47.31c13.9,-13.52 22.15,-32.29 22.15,-52.94c0,-41.3 -33.79,-75.09 -75.09,-75.09c-41.3,0 -75.09,33.79 -75.09,75.09h-75.1c0,-82.98 67.21,-150.18 150.19,-150.18c82.98,0 150.19,67.21 150.19,150.18c0,33.04 -13.52,63.08 -34.92,84.48zM549.55,737.28h-75.1v-75.09h75.1z" fill="currentColor"/>
		</g>
	</g>
</svg>