<svg version="1.1" xmlns="http://www.w3.org/2000/svg" xmlns:xlink="http://www.w3.org/1999/xlink" viewBox="0,0,1024,1024">
	<!-- Color names: teamapps-color-1 -->
	<desc>local_parking icon - Licensed under Apache License v2.0 (http://www.apache.org/licenses/LICENSE-2.0) - Created with Iconfu.com - Derivative work of Material icons (Copyright Google Inc.)</desc>
	<g fill="none" fill-rule="nonzero" style="mix-blend-mode: normal">
		<g color="#039be5" class="teamapps-color-1">
			<path d="M836.27,399.36c0,158.21 -128.51,286.72 -286.72,286.72h-51.2v163.84c0,33.93 -27.51,61.44 -61.44,61.44h-150.19c-33.93,0 -61.44,-27.51 -61.44,-61.44v-675.84c0,-33.93 27.51,-61.44 61.44,-61.44h262.83c158.21,0 286.72,128.51 286.72,286.72zM570.71,399.36c0,-7.37 -6.28,-13.65 -13.65,-13.65h-58.71v27.3h58.71c7.37,0 13.65,-6.28 13.65,-13.65zM549.55,174.08h-262.83v675.84h150.19v-225.28h112.64c124.28,0 225.28,-101 225.28,-225.28c0,-124.28 -101,-225.28 -225.28,-225.28zM557.06,474.45h-120.15v-150.18h120.15c41.3,0 75.09,33.79 75.09,75.09c0,41.3 -33.79,75.09 -75.09,75.09z" fill="currentColor"/>
		</g>
	</g>
</svg>