<svg version="1.1" xmlns="http://www.w3.org/2000/svg" xmlns:xlink="http://www.w3.org/1999/xlink" viewBox="0,0,1024,1024">
	<!-- Color names: teamapps-color-1 -->
	<desc>local_cafe icon - Licensed under Apache License v2.0 (http://www.apache.org/licenses/LICENSE-2.0) - Created with Iconfu.com - Derivative work of Material icons (Copyright Google Inc.)</desc>
	<g fill="none" fill-rule="nonzero" style="mix-blend-mode: normal">
		<g color="#039be5" class="teamapps-color-1">
			<path d="M948.91,249.17v112.64c0,75.61 -60.93,136.54 -136.54,136.54h-13.65v51.2c0,66.06 -30.25,125.04 -77.65,163.84h91.3c33.93,0 61.44,27.51 61.44,61.44v75.09c0,33.93 -27.51,61.44 -61.44,61.44h-675.84c-33.93,0 -61.44,-27.51 -61.44,-61.44v-75.09c0,-33.93 27.51,-61.44 61.44,-61.44h91.3c-47.4,-38.8 -77.64,-97.78 -77.64,-163.84v-375.47c0,-33.93 27.51,-61.44 61.44,-61.44h600.74c75.6,0 136.54,60.91 136.54,136.53zM812.37,174.08h-600.74v375.47c0,82.98 67.21,150.18 150.18,150.18h225.28c82.98,0 150.19,-67.21 150.19,-150.18v-112.64h75.09c41.68,0 75.1,-33.42 75.1,-75.1v-112.64c0,-41.68 -33.42,-75.09 -75.1,-75.09zM136.53,849.92h675.84v-75.09h-675.84zM812.37,361.81h-75.09v-112.64h75.09z" fill="currentColor"/>
		</g>
	</g>
</svg>