<svg version="1.1" xmlns="http://www.w3.org/2000/svg" xmlns:xlink="http://www.w3.org/1999/xlink" viewBox="0,0,1024,1024">
	<!-- Color names: teamapps-color-1 -->
	<desc>location_off icon - Licensed under Apache License v2.0 (http://www.apache.org/licenses/LICENSE-2.0) - Created with Iconfu.com - Derivative work of Material icons (Copyright Google Inc.)</desc>
	<g fill="none" fill-rule="nonzero" style="mix-blend-mode: normal">
		<g color="#039be5" class="teamapps-color-1">
			<path d="M855.82,845.67l-47.68,47.69c-23.99,24 -62.9,24 -86.89,0.01l-74.59,-74.58c-48.87,65.31 -88.39,109.12 -89.06,109.85c-11.65,12.9 -28.22,20.27 -45.6,20.27c-17.38,0 -33.95,-7.36 -45.6,-20.26c0,0 -278.67,-308.53 -278.67,-529.29c0,-12.74 0.85,-25.17 2.31,-37.19l-96.96,-96.96c-23.99,-23.99 -23.99,-62.9 0,-86.89l47.69,-47.69c23.99,-23.99 62.9,-23.99 86.89,0l47.62,47.62c1.06,-1.29 2.19,-2.55 3.37,-3.77c58.9,-60.75 141.36,-99.4 233.34,-99.4c179.24,0 324.27,145.03 324.27,324.27c0,78.3 -32.76,161.96 -70.92,234.39c-3.91,7.42 -9.23,13.85 -15.57,19.01l106.03,106.03c23.99,23.99 23.99,62.89 0,86.89zM533.09,423.61c7.55,-6.95 11.34,-15.48 11.34,-24.25c0,-17.88 -14.55,-32.43 -32.43,-32.43c-9.2,0 -17.16,3.71 -23.44,10.81c-2.19,2.48 -4.54,4.74 -7.02,6.78l45.5,45.5c1.83,-2.25 3.85,-4.39 6.05,-6.41zM184.22,174.08l-47.69,47.69l119.4,119.4c-4.13,18.77 -6.76,38.3 -6.76,58.19c0,197.12 262.83,488.11 262.83,488.11c0,0 62.7,-69.46 126.9,-163.33l125.79,125.78l47.68,-47.69zM512,305.49c51.81,0 93.87,42.06 93.87,93.87c0,27.78 -12.4,52.18 -31.17,69.46l136.29,136.29c36.79,-69.84 63.84,-142.67 63.84,-205.75c0,-145.31 -117.52,-262.83 -262.83,-262.83c-74.34,0 -141.18,31.17 -189.24,80.73l119.78,119.77c17.27,-19.53 41.68,-31.54 69.46,-31.54z" fill="currentColor"/>
		</g>
	</g>
</svg>