<svg version="1.1" xmlns="http://www.w3.org/2000/svg" xmlns:xlink="http://www.w3.org/1999/xlink" viewBox="0,0,1024,1024">
	<!-- Color names: teamapps-color-1 -->
	<desc>local_dining icon - Licensed under Apache License v2.0 (http://www.apache.org/licenses/LICENSE-2.0) - Created with Iconfu.com - Derivative work of Material icons (Copyright Google Inc.)</desc>
	<g fill="none" fill-rule="nonzero" style="mix-blend-mode: normal">
		<g color="#039be5" class="teamapps-color-1">
			<path d="M866.71,764.42c23.99,23.99 23.99,62.9 0,86.89l-52.94,52.94c-23.99,23.99 -62.89,23.99 -86.89,0l-214.94,-214.93l-215.25,214.63c-24,23.93 -62.86,23.91 -86.83,-0.06l-52.94,-52.94c-23.99,-23.99 -23.99,-62.89 0,-86.89l161.74,-161.75l-154,-153.63c-82.3,-82.83 -82.51,-216.62 0.14,-299.27c23.98,-23.98 62.86,-24 86.86,-0.03l241.84,241.5c-1.97,-68.03 29.16,-138.64 81.68,-191.16c84.39,-83.95 227.7,-119.38 316.67,-30.41c89.39,89.39 53.62,232.64 -30.41,316.67c-52.61,52.61 -123.38,83.76 -191.51,81.67zM620.13,494.36c57.45,26.66 138.17,7.88 197.87,-51.81c71.71,-71.71 85.61,-174.59 30.41,-229.79c-54.82,-54.82 -157.7,-41.3 -229.79,30.41c-59.7,59.7 -78.47,140.42 -51.81,197.87l-366.45,366.46l52.94,52.94l258.69,-257.95l258.32,258.32l52.94,-52.94l-258.32,-258.32zM365.57,562.31l106.26,-106.25l-263.58,-263.21c-58.57,58.57 -58.57,153.57 0,212.52z" fill="currentColor"/>
		</g>
	</g>
</svg>