<svg version="1.1" xmlns="http://www.w3.org/2000/svg" xmlns:xlink="http://www.w3.org/1999/xlink" viewBox="0,0,1024,1024">
	<!-- Color names: teamapps-color-1 -->
	<desc>local_pizza icon - Licensed under Apache License v2.0 (http://www.apache.org/licenses/LICENSE-2.0) - Created with Iconfu.com - Derivative work of Material icons (Copyright Google Inc.)</desc>
	<g fill="none" fill-rule="nonzero" style="mix-blend-mode: normal">
		<g color="#039be5" class="teamapps-color-1">
			<path d="M903.11,316.82l-337.54,600.75c-10.88,19.36 -31.36,31.34 -53.56,31.34c-22.21,0 -42.69,-11.98 -53.56,-31.34l-337.54,-600.75c-12.92,-23 -9.72,-51.68 7.95,-71.26c94.5,-104.72 230.99,-170.47 383.15,-170.47c152.19,0 289.06,66.15 383.16,170.48c17.66,19.58 20.86,48.26 7.94,71.25zM525.65,549.55c0,-7.38 -6.29,-13.66 -13.65,-13.66c-7.36,0 -13.65,6.28 -13.65,13.66c0,7.37 6.28,13.65 13.65,13.65c7.37,0 13.65,-6.28 13.65,-13.65zM399.36,337.92c7.37,0 13.65,-6.28 13.65,-13.65c0,-7.38 -6.29,-13.66 -13.65,-13.66c-7.36,0 -13.65,6.28 -13.65,13.66c0,7.37 6.28,13.65 13.65,13.65zM512,136.53c-134.04,0 -254.19,57.82 -337.54,150.19l337.54,600.75l337.54,-600.75c-82.98,-91.99 -203.5,-150.19 -337.54,-150.19zM324.27,324.27c0,-41.3 33.79,-75.1 75.09,-75.1c41.3,0 75.09,33.8 75.09,75.1c0,41.3 -33.79,75.09 -75.09,75.09c-41.3,0 -75.09,-33.79 -75.09,-75.09zM512,624.64c-41.3,0 -75.09,-33.79 -75.09,-75.09c0,-41.3 33.79,-75.1 75.09,-75.1c41.3,0 75.09,33.8 75.09,75.1c0,41.3 -33.79,75.09 -75.09,75.09z" fill="currentColor"/>
		</g>
	</g>
</svg>