<svg version="1.1" xmlns="http://www.w3.org/2000/svg" xmlns:xlink="http://www.w3.org/1999/xlink" viewBox="0,0,1024,1024">
	<!-- Color names: teamapps-color-1 -->
	<desc>looks icon - Licensed under Apache License v2.0 (http://www.apache.org/licenses/LICENSE-2.0) - Created with Iconfu.com - Derivative work of Material icons (Copyright Google Inc.)</desc>
	<g fill="none" fill-rule="nonzero" style="mix-blend-mode: normal">
		<g color="#039be5" class="teamapps-color-1">
			<path d="M925.01,761.17h-75.09c-14.14,0 -27.16,-4.78 -37.55,-12.8c-10.38,8.03 -23.41,12.8 -37.55,12.8h-75.1c-33.93,0 -61.44,-27.51 -61.44,-61.44c0,-69.7 -56.59,-126.29 -126.29,-126.29c-69.7,0 -126.29,56.59 -126.29,126.29c0,33.93 -27.51,61.44 -61.44,61.44h-75.1c-14.14,0 -27.16,-4.78 -37.55,-12.8c-10.38,8.03 -23.41,12.8 -37.55,12.8h-75.09c-33.93,0 -61.44,-27.51 -61.44,-61.44c0,-261.84 212.61,-474.45 474.45,-474.45c261.84,0 474.45,212.61 474.45,474.45c0,33.93 -27.51,61.44 -61.44,61.44zM512,286.72c-227.91,0 -413.01,185.1 -413.01,413.01h75.09c0,-186.23 151.69,-337.92 337.92,-337.92c186.23,0 337.92,151.69 337.92,337.92h75.09c0,-227.91 -185.1,-413.01 -413.01,-413.01zM512,436.91c-144.93,0 -262.83,117.89 -262.83,262.82h75.1c0,-103.63 84.1,-187.73 187.73,-187.73c103.63,0 187.73,84.1 187.73,187.73h75.1c0,-144.93 -117.9,-262.82 -262.83,-262.82z" fill="currentColor"/>
		</g>
	</g>
</svg>