<svg version="1.1" xmlns="http://www.w3.org/2000/svg" xmlns:xlink="http://www.w3.org/1999/xlink" viewBox="0,0,1024,1024">
	<!-- Color names: teamapps-color-1 -->
	<desc>loupe icon - Licensed under Apache License v2.0 (http://www.apache.org/licenses/LICENSE-2.0) - Created with Iconfu.com - Derivative work of Material icons (Copyright Google Inc.)</desc>
	<g fill="none" fill-rule="nonzero" style="mix-blend-mode: normal">
		<g color="#039be5" class="teamapps-color-1">
			<path d="M948.91,512v300.37c0,75.23 -61.31,136.54 -136.54,136.54h-300.37c-240.81,0 -436.91,-196.1 -436.91,-436.91c0,-240.81 196.1,-436.91 436.91,-436.91c240.81,0 436.91,196.1 436.91,436.91zM610.99,413.01h88.74c12.63,0 24.36,3.81 34.12,10.34c-24.3,-60.52 -72.69,-108.9 -133.2,-133.2c6.53,9.76 10.34,21.5 10.34,34.12zM699.73,610.99h-88.74v88.74c0,12.63 -3.81,24.36 -10.34,34.12c60.52,-24.3 108.9,-72.69 133.2,-133.2c-9.76,6.53 -21.5,10.34 -34.12,10.34zM413.01,699.73v-88.74h-88.74c-12.63,0 -24.36,-3.81 -34.12,-10.34c24.3,60.52 72.69,108.9 133.2,133.2c-6.53,-9.76 -10.34,-21.5 -10.34,-34.12zM324.27,413.01h88.74v-88.74c0,-12.63 3.81,-24.36 10.34,-34.12c-60.52,24.3 -108.9,72.69 -133.2,133.2c9.76,-6.53 21.5,-10.34 34.12,-10.34zM512,136.53c-206.88,0 -375.47,168.59 -375.47,375.47c0,206.88 168.59,375.47 375.47,375.47h300.37c41.3,0 75.1,-33.8 75.1,-75.1v-300.37c0,-206.88 -168.59,-375.47 -375.47,-375.47zM512,812.37c-165.58,0 -300.37,-134.79 -300.37,-300.37c0,-165.58 134.79,-300.37 300.37,-300.37c165.58,0 300.37,134.79 300.37,300.37c0,165.58 -134.79,300.37 -300.37,300.37zM549.55,324.27h-75.1v150.18h-150.18v75.1h150.18v150.18h75.1v-150.18h150.18v-75.1h-150.18z" fill="currentColor"/>
		</g>
	</g>
</svg>