<svg version="1.1" xmlns="http://www.w3.org/2000/svg" xmlns:xlink="http://www.w3.org/1999/xlink" viewBox="0,0,1024,1024">
	<!-- Color names: teamapps-color-1 -->
	<desc>map icon - Licensed under Apache License v2.0 (http://www.apache.org/licenses/LICENSE-2.0) - Created with Iconfu.com - Derivative work of Material icons (Copyright Google Inc.)</desc>
	<g fill="none" fill-rule="nonzero" style="mix-blend-mode: normal">
		<g color="#039be5" class="teamapps-color-1">
			<path d="M911.36,192.85v567.71c0,38.47 -25.91,66.38 -55.4,76.27l-211.71,71.32c-12.96,4.37 -27,4.28 -39.91,-0.23l-203.92,-71.37l-180.81,69.96c-3.36,1.3 -6.84,2.26 -10.39,2.85l-7.48,1.26c-2.94,0.5 -5.91,0.75 -8.89,0.75c-44.45,0 -80.21,-35.76 -80.21,-80.21v-567.71c0,-38.47 25.91,-66.38 55.4,-76.27l211.71,-71.32c12.96,-4.37 27,-4.28 39.91,0.23l203.92,71.37l180.81,-69.96c3.36,-1.3 6.84,-2.26 10.39,-2.85l7.48,-1.26c2.94,-0.5 5.91,-0.75 8.89,-0.75c44.45,0 80.21,35.76 80.21,80.21zM460.8,335.91v316.18l102.4,36.01v-316.18zM831.15,174.08l-6.01,1.13l-200.5,77.72l-225.28,-78.85l-211.76,71.34c-7.88,2.63 -13.52,9.39 -13.52,18.02v567.71c0,10.52 8.25,18.77 18.77,18.77l6.01,-1.13l200.5,-77.72l225.28,78.85l211.76,-71.34c7.88,-2.63 13.52,-9.39 13.52,-18.02v-567.71c0,-10.52 -8.25,-18.77 -18.77,-18.77zM624.64,774.83l-225.28,-79.23v-446.43l225.28,79.23z" fill="currentColor"/>
		</g>
	</g>
</svg>