<svg version="1.1" xmlns="http://www.w3.org/2000/svg" xmlns:xlink="http://www.w3.org/1999/xlink" viewBox="0,0,1024,1024">
	<!-- Color names: teamapps-color-1 -->
	<desc>money_off icon - Licensed under Apache License v2.0 (http://www.apache.org/licenses/LICENSE-2.0) - Created with Iconfu.com - Derivative work of Material icons (Copyright Google Inc.)</desc>
	<g fill="none" fill-rule="nonzero" style="mix-blend-mode: normal">
		<g color="#039be5" class="teamapps-color-1">
			<path d="M853.57,806.25l-47.68,47.69c-23.99,24 -62.9,24 -86.89,0l-48.03,-48.03c-7.32,3.62 -14.82,6.86 -22.43,9.75v34.26c0,33.93 -27.51,61.44 -61.44,61.44h-112.64c-33.93,0 -61.44,-27.51 -61.44,-61.44v-36.27c-70.51,-28.7 -132.73,-88.06 -138.08,-185.65c-1.93,-35.2 26.09,-64.8 61.35,-64.8h54.35c-54.26,-29.9 -98.23,-75.19 -107.31,-145.31l-112.88,-112.89c-23.99,-23.99 -23.99,-62.89 0,-86.89l47.68,-47.68c24,-24 62.91,-23.99 86.9,0.01l66.2,66.24c5.09,-6.27 11.44,-11.55 18.76,-15.45c7.5,-4 15.19,-7.62 23.04,-10.87v-36.29c0,-33.93 27.51,-61.44 61.44,-61.44h112.64c33.93,0 61.44,27.51 61.44,61.44v39.03c76.74,36.36 117.39,108.04 120.47,183.75c1.42,34.88 -26.48,63.94 -61.39,63.94h-82.98c-32.79,0 -59.8,-25.74 -61.37,-58.49c-0.37,-7.8 -1.35,-13.26 -3.29,-15.07c-3.59,-3.36 -12.66,-5.28 -29.21,-5.28c-5.07,0 -9.61,0.27 -13.66,0.74l336.46,336.69c23.98,23.99 23.97,62.88 -0.01,86.87zM480.06,618.94c0.83,8.93 3.38,11.92 5.66,13.74c2.21,1.77 7.84,5.19 19.76,7.37l-26.09,-26.09c0.29,1.64 0.51,3.3 0.67,4.98zM261.56,213.88l-47.68,47.68l129.16,129.17c0,78.1 58.57,120.52 146.81,146.8l131.79,131.79c-12.77,18.02 -39.43,34.17 -90.87,34.17c-77.34,0 -107.76,-34.54 -111.88,-78.85h-82.61c4.51,82.23 66.08,128.41 138.17,143.8v81.48h112.64v-80.72c36.04,-6.76 68.34,-20.65 92,-42.06l83.35,83.35l47.68,-47.69zM530.77,320.51c66.84,0 91.62,31.92 93.87,78.85h82.98c-2.63,-64.58 -42.06,-123.9 -120.52,-143.05v-82.23h-112.64v81.1c-19.9,4.51 -38.67,11.26 -55.56,20.28l55.19,55.19c15.39,-6.38 34.16,-10.14 56.69,-10.14z" fill="currentColor"/>
		</g>
	</g>
</svg>