<svg version="1.1" xmlns="http://www.w3.org/2000/svg" xmlns:xlink="http://www.w3.org/1999/xlink" viewBox="0,0,1024,1024">
	<!-- Color names: teamapps-color-1 -->
	<desc>motorcycle icon - Licensed under Apache License v2.0 (http://www.apache.org/licenses/LICENSE-2.0) - Created with Iconfu.com - Derivative work of Material icons (Copyright Google Inc.)</desc>
	<g fill="none" fill-rule="nonzero" style="mix-blend-mode: normal">
		<g color="#039be5" class="teamapps-color-1">
			<path d="M1024,587.09c0,139.06 -110.1,249.18 -249.17,249.18c-110.69,0 -203.03,-69.76 -236.11,-168.35l-0.17,0.17c-11.52,11.52 -27.15,18 -43.44,18h-16.81c-37.82,89.24 -125.56,150.19 -229.12,150.19c-139.07,0 -249.17,-110.12 -249.17,-249.18c0,-139.07 110.1,-249.17 249.17,-249.17h165.36c-1,-4.39 -1.52,-8.96 -1.52,-13.65v-75.1c0,-33.93 27.51,-61.44 61.44,-61.44h165.58c16.29,0 31.92,6.47 43.44,18l136.49,136.49c117.59,20.43 204.03,121.79 204.03,244.87zM826.03,587.09c0,-28.4 -22.8,-51.2 -51.2,-51.2c-28.4,0 -51.2,22.8 -51.2,51.2c0,28.4 22.8,51.2 51.2,51.2c28.4,0 51.2,-22.8 51.2,-51.2zM791.35,400.49l-151.32,-151.32h-165.58v75.1h134.8l75.09,75.09h-435.17c-105.13,0 -187.73,82.6 -187.73,187.73c0,105.13 82.6,187.74 187.73,187.74c92.36,0 167.09,-63.46 183.98,-150.19h61.95l104.01,-104.01c-7.88,20.28 -12.02,42.8 -12.02,66.46c0,105.13 82.61,187.74 187.74,187.74c105.13,0 187.73,-82.61 187.73,-187.74c0,-99.5 -73.96,-179.1 -171.21,-186.6zM774.83,699.73c-62.33,0 -112.64,-50.31 -112.64,-112.64c0,-62.33 50.31,-112.64 112.64,-112.64c62.33,0 112.64,50.31 112.64,112.64c0,62.33 -50.31,112.64 -112.64,112.64zM355.05,624.64c-15.77,43.18 -57.82,75.09 -105.88,75.09c-61.2,0 -112.64,-51.44 -112.64,-112.64c0,-61.2 51.44,-112.64 112.64,-112.64c48.06,0 90.11,31.92 105.88,75.1h-105.88v75.09z" fill="currentColor"/>
		</g>
	</g>
</svg>