<svg version="1.1" xmlns="http://www.w3.org/2000/svg" xmlns:xlink="http://www.w3.org/1999/xlink" viewBox="0,0,1024,1024">
	<!-- Color names: teamapps-color-1 -->
	<desc>movie_filter icon - Licensed under Apache License v2.0 (http://www.apache.org/licenses/LICENSE-2.0) - Created with Iconfu.com - Derivative work of Material icons (Copyright Google Inc.)</desc>
	<g fill="none" fill-rule="nonzero" style="mix-blend-mode: normal">
		<g color="#039be5" class="teamapps-color-1">
			<path d="M948.91,211.63v525.65c0,75.24 -61.32,136.53 -136.54,136.53h-600.74c-75.22,0 -136.54,-61.29 -136.54,-136.53l0.38,-450.59c0.01,-74.82 60.54,-136.5 136.16,-136.5h37.54c20.54,0 39.72,10.27 51.12,27.36l5.66,8.49c0.53,-1.15 1.09,-2.28 1.69,-3.4c10.69,-19.98 31.51,-32.45 54.17,-32.45h75.1c20.54,0 39.73,10.27 51.12,27.36l5.66,8.49c0.53,-1.15 1.09,-2.28 1.69,-3.4c10.69,-19.98 31.51,-32.45 54.17,-32.45h75.09c20.54,0 39.73,10.27 51.12,27.36l5.66,8.49c0.53,-1.15 1.09,-2.28 1.69,-3.4c10.69,-19.98 31.51,-32.45 54.17,-32.45h150.19c33.93,0 61.44,27.51 61.44,61.44zM436.91,579.81c-2.22,2.63 -4.66,5.07 -7.29,7.29c2.63,2.22 5.07,4.66 7.29,7.29c2.22,-2.63 4.66,-5.07 7.29,-7.29c-2.63,-2.22 -5.07,-4.66 -7.29,-7.29zM737.28,211.63l75.09,112.64h-112.64l-75.09,-112.64h-75.09l75.09,112.64h-112.64l-75.09,-112.64h-75.1l75.1,112.64h-112.64l-75.1,-112.64h-37.54c-41.3,0 -74.72,33.79 -74.72,75.09l-0.38,450.56c0,41.3 33.8,75.09 75.1,75.09h600.74c41.3,0 75.1,-33.79 75.1,-75.09v-525.65zM483.84,634.03l-46.93,103.25l-46.94,-103.25l-103.25,-46.94l103.25,-46.93l46.94,-103.25l46.93,103.25l103.25,46.93zM697.48,509.75l-35.29,77.34l-35.3,-77.34l-77.34,-35.3l77.34,-35.29l35.3,-77.35l35.29,77.35l77.35,35.29z" fill="currentColor"/>
		</g>
	</g>
</svg>