<svg version="1.1" xmlns="http://www.w3.org/2000/svg" xmlns:xlink="http://www.w3.org/1999/xlink" viewBox="0,0,1024,1024">
	<!-- Color names: teamapps-color-1 -->
	<desc>music_note icon - Licensed under Apache License v2.0 (http://www.apache.org/licenses/LICENSE-2.0) - Created with Iconfu.com - Derivative work of Material icons (Copyright Google Inc.)</desc>
	<g fill="none" fill-rule="nonzero" style="mix-blend-mode: normal">
		<g color="#039be5" class="teamapps-color-1">
			<path d="M798.72,174.08v150.19c0,33.93 -27.51,61.44 -61.44,61.44h-88.75v314.02c0,116.9 -94.71,211.63 -211.62,211.63c-116.91,0 -211.63,-94.72 -211.63,-211.63c0,-116.91 94.73,-211.62 211.63,-211.62c4.6,0 9.15,0.15 13.65,0.46v-314.49c0,-33.93 27.51,-61.44 61.44,-61.44h225.28c33.93,0 61.44,27.51 61.44,61.44zM512,174.08v396.11c-22.15,-12.77 -47.68,-20.64 -75.09,-20.64c-82.98,0 -150.19,67.21 -150.19,150.18c0,82.98 67.21,150.19 150.19,150.19c82.98,0 150.18,-67.21 150.18,-150.19v-375.46h150.19v-150.19z" fill="currentColor"/>
		</g>
	</g>
</svg>