<svg version="1.1" xmlns="http://www.w3.org/2000/svg" xmlns:xlink="http://www.w3.org/1999/xlink" viewBox="0,0,1024,1024">
	<!-- Color names: teamapps-color-1 -->
	<desc>no_encryption icon - Licensed under Apache License v2.0 (http://www.apache.org/licenses/LICENSE-2.0) - Created with Iconfu.com - Derivative work of Material icons (Copyright Google Inc.)</desc>
	<g fill="none" fill-rule="nonzero" style="mix-blend-mode: normal">
		<g color="#039be5" class="teamapps-color-1">
			<path d="M760.68,968.46l-19.61,-19.61l-454.34,0.06c-75.24,0 -136.53,-61.32 -136.53,-136.54v-375.46c0,-22.93 5.71,-44.43 15.69,-63.24l-35.24,-35.24c-23.99,-23.99 -23.99,-62.89 0,-86.89l45.8,-45.81c23.99,-24 62.9,-24 86.89,0l10.56,10.56c30.24,-102.73 124.45,-178.73 238.11,-178.73c137.56,0 249.17,111.61 249.17,249.17v15.75c63.9,11.35 112.64,67.37 112.64,134.44v313.14c0,17.77 -7.66,34.29 -20.42,45.74l39.97,39.97c23.99,23.99 23.99,62.9 0,86.89l-45.8,45.8c-23.99,23.99 -62.89,23.99 -86.88,0zM566.96,300.37v-13.65c0,-30.27 -24.69,-54.96 -54.96,-54.96c-30.27,0 -54.96,24.69 -54.96,54.96v13.65zM849.92,879.21l-630.04,-630.04l-45.8,45.81l76.6,76.6c-23.28,12.77 -39.05,37.17 -39.05,65.33v375.46c0,41.3 33.79,75.1 75.09,75.1h450.56c8.63,0 16.9,-1.87 24.78,-4.51l42.06,42.05zM395.6,286.72c0,-64.2 52.19,-116.4 116.4,-116.4c64.2,0 116.4,52.19 116.4,116.4v75.09h-204.26l388.23,388.24v-313.14c0,-41.3 -33.79,-75.1 -75.09,-75.1h-37.55v-75.09c0,-103.63 -84.1,-187.73 -187.73,-187.73c-96.12,0 -174.21,72.46 -185.48,165.2l69.08,69.09z" fill="currentColor"/>
		</g>
	</g>
</svg>