<svg version="1.1" xmlns="http://www.w3.org/2000/svg" xmlns:xlink="http://www.w3.org/1999/xlink" viewBox="0,0,1024,1024">
	<!-- Color names: teamapps-color-1 -->
	<desc>notifications_off icon - Licensed under Apache License v2.0 (http://www.apache.org/licenses/LICENSE-2.0) - Created with Iconfu.com - Derivative work of Material icons (Copyright Google Inc.)</desc>
	<g fill="none" fill-rule="nonzero" style="mix-blend-mode: normal">
		<g color="#039be5" class="teamapps-color-1">
			<path d="M893.36,845.31l-47.69,47.68c-23.99,23.99 -62.89,23.99 -86.89,0l-57.1,-57.1h-55.17c-11.09,64.33 -66.93,113.02 -134.53,113.02c-67.59,0 -123.43,-48.69 -134.53,-113.02h-165.84c-33.93,0 -61.44,-27.51 -61.44,-61.44v-37.55c0,-16.29 6.47,-31.92 18,-43.44l57.1,-57.1v-162.28c0,-40 6.31,-78.76 18.76,-114.61l-75.86,-75.86c-23.99,-23.99 -23.99,-62.89 0,-86.89l47.68,-47.68c24.26,-24.26 63.69,-23.95 87.57,0.69l59.07,60.95c4.06,-3.38 8.42,-6.16 12.86,-8.27l20.36,-9.55c8.98,-56.15 57.57,-98.98 116.27,-98.98c58.53,0 107.01,42.58 116.19,98.49c111.89,47.63 170.53,160.67 170.53,282.09v138.18c0,13.25 -4.25,25.79 -11.7,36.06l107.01,110.41c23.36,24.1 23.06,62.48 -0.67,86.21zM812.37,763.19l-456.56,-471.21l-96.5,-99.49l-47.68,47.68l105.12,105.13v0.38c-19.53,37.17 -30.03,81.1 -30.03,128.41v187.73l-75.09,75.09v37.55h515.51l75.09,75.09l47.69,-47.68zM737.28,612.63v-138.18c0,-115.64 -61.57,-211.76 -168.96,-237.29v-25.53c0,-31.16 -25.16,-56.32 -56.32,-56.32c-31.16,0 -56.32,25.16 -56.32,56.32v25.53c-5.63,1.13 -10.89,3 -15.77,4.51c-3.76,1.13 -7.51,2.62 -11.26,4.13h-0.38c-0.38,0 -0.37,0 -0.75,0.38c-8.63,3.38 -17.27,7.52 -25.53,11.64c0,0 -0.38,-0.01 -0.38,0.37zM512,887.47c41.68,0 75.09,-33.42 75.09,-75.1h-150.18c0,41.68 33.41,75.1 75.09,75.1z" fill="currentColor"/>
		</g>
	</g>
</svg>