<svg version="1.1" xmlns="http://www.w3.org/2000/svg" xmlns:xlink="http://www.w3.org/1999/xlink" viewBox="0,0,1024,1024">
	<!-- Color names: teamapps-color-1 -->
	<desc>opacity icon - Licensed under Apache License v2.0 (http://www.apache.org/licenses/LICENSE-2.0) - Created with Iconfu.com - Derivative work of Material icons (Copyright Google Inc.)</desc>
	<g fill="none" fill-rule="nonzero" style="mix-blend-mode: normal">
		<g color="#039be5" class="teamapps-color-1">
			<path d="M873.81,573.57c0,90.37 -35.06,185.54 -105.85,256.33c-70.46,70.46 -163.22,106.23 -255.96,106.23c-92.74,0 -185.49,-35.77 -255.96,-106.23c-70.8,-70.8 -105.85,-165.97 -105.85,-256.33c0,-90.61 35.22,-184.58 105.85,-255.21l212.55,-212.17c23.98,-23.94 62.83,-23.94 86.81,0l212.52,212.14c70.63,70.63 105.89,164.63 105.89,255.24zM511.75,347.38l-115.7,118.14c-18.23,18.06 -31.3,36.45 -39.14,60.13h309.98c-7.79,-22.71 -20.69,-40.32 -38.75,-58.06zM724.51,361.81l-212.51,-212.13l-212.51,212.13c-58.57,58.57 -87.86,136.67 -87.86,211.76c0,75.09 29.29,154.32 87.86,212.89c58.57,58.57 135.54,88.24 212.51,88.24c76.97,0 153.94,-29.66 212.51,-88.24c58.57,-58.57 87.86,-137.8 87.86,-212.89c0,-75.09 -29.29,-153.19 -87.86,-211.76zM286.72,587.09c0.38,-75.09 23.28,-122.78 66.08,-165.2l159.2,-162.58l159.2,164.45c42.8,42.06 65.7,88.24 66.08,163.33z" fill="currentColor"/>
		</g>
	</g>
</svg>