<svg version="1.1" xmlns="http://www.w3.org/2000/svg" xmlns:xlink="http://www.w3.org/1999/xlink" viewBox="0,0,1024,1024">
	<!-- Color names: teamapps-color-1 -->
	<desc>pageview icon - Licensed under Apache License v2.0 (http://www.apache.org/licenses/LICENSE-2.0) - Created with Iconfu.com - Derivative work of Material icons (Copyright Google Inc.)</desc>
	<g fill="none" fill-rule="nonzero" style="mix-blend-mode: normal">
		<g color="#039be5" class="teamapps-color-1">
			<path d="M948.91,286.72v450.56c0,75.24 -61.32,136.53 -136.54,136.53h-600.74c-75.22,0 -136.54,-61.29 -136.54,-136.53v-450.56c0,-75.24 61.32,-136.53 136.54,-136.53h600.74c75.22,0 136.54,61.29 136.54,136.53zM812.37,211.63h-600.74c-41.3,0 -75.1,33.79 -75.1,75.09v450.56c0,41.3 33.8,75.09 75.1,75.09h600.74c41.3,0 75.1,-33.79 75.1,-75.09v-450.56c0,-41.3 -33.8,-75.09 -75.1,-75.09zM691.85,745.16l-109.26,-109.26c-25.91,16.52 -56.69,26.29 -89.73,26.29c-93.11,0 -168.58,-75.47 -168.58,-168.96c0,-93.49 75.47,-168.96 168.96,-168.96c93.49,0 168.96,75.47 168.96,168.96c0,33.04 -9.77,63.45 -26.29,89.73l109.26,108.88zM493.23,399.36c-51.81,0 -93.87,42.06 -93.87,93.87c0,51.81 42.06,93.86 93.87,93.86c51.81,0 93.86,-42.05 93.86,-93.86c0,-51.81 -42.05,-93.87 -93.86,-93.87z" fill="currentColor"/>
		</g>
	</g>
</svg>