<svg version="1.1" xmlns="http://www.w3.org/2000/svg" xmlns:xlink="http://www.w3.org/1999/xlink" viewBox="0,0,1024,1024">
	<!-- Color names: teamapps-color-1 -->
	<desc>people_outline icon - Licensed under Apache License v2.0 (http://www.apache.org/licenses/LICENSE-2.0) - Created with Iconfu.com - Derivative work of Material icons (Copyright Google Inc.)</desc>
	<g fill="none" fill-rule="nonzero" style="mix-blend-mode: normal">
		<g color="#039be5" class="teamapps-color-1">
			<path d="M986.45,671.57v103.26c0,33.93 -27.51,61.44 -61.44,61.44h-826.02c-33.93,0 -61.44,-27.51 -61.44,-61.44v-103.26c0,-88.11 82.68,-135.75 163.82,-160.21c-31.76,-34.39 -51.18,-80.34 -51.18,-130.77c0,-106.39 86.44,-192.86 192.85,-192.86c72.71,0 136.11,40.38 168.96,99.9c32.85,-59.52 96.25,-99.9 168.96,-99.9c106.41,0 192.85,86.46 192.85,192.86c0,50.43 -19.42,96.38 -51.18,130.77c81.14,24.46 163.82,72.1 163.82,160.21zM484.92,511.13c9.2,2.85 18.31,5.97 27.23,9.37c8.85,-3.34 17.9,-6.42 27.05,-9.24c-10.5,-11.39 -19.66,-24.04 -27.2,-37.71c-7.51,13.61 -16.63,26.22 -27.08,37.58zM667.31,380.59c0,7.37 6.28,13.65 13.65,13.65c7.37,0 13.65,-6.28 13.65,-13.65c0,-7.38 -6.29,-13.66 -13.65,-13.66c-7.36,0 -13.65,6.28 -13.65,13.66zM329.39,380.59c0,7.37 6.28,13.65 13.65,13.65c7.37,0 13.65,-6.28 13.65,-13.65c0,-7.38 -6.29,-13.66 -13.65,-13.66c-7.36,0 -13.65,6.28 -13.65,13.66zM680.96,549.55c-45.06,0 -115.27,12.76 -168.96,37.54c-53.69,-25.16 -123.9,-37.54 -168.96,-37.54c-81.48,0 -244.05,40.54 -244.05,122.02v103.26h826.02v-103.26c0,-81.48 -162.57,-122.02 -244.05,-122.02zM343.04,512c72.47,0 131.41,-58.94 131.41,-131.41c0,-72.47 -58.94,-131.42 -131.41,-131.42c-72.47,0 -131.41,58.95 -131.41,131.42c0,72.47 58.94,131.41 131.41,131.41zM680.96,512c72.47,0 131.41,-58.94 131.41,-131.41c0,-72.47 -58.94,-131.42 -131.41,-131.42c-72.47,0 -131.41,58.95 -131.41,131.42c0,72.47 58.94,131.41 131.41,131.41zM530.77,718.51h-375.46v-46.94c0,-20.28 96.11,-65.7 187.73,-65.7c91.62,0 187.73,45.43 187.73,65.7zM868.69,718.51h-281.6v-46.94c0,-17.27 -7.51,-32.29 -19.52,-45.8c33.04,-11.26 73.59,-19.9 113.39,-19.9c91.62,0 187.73,45.43 187.73,65.7zM343.04,305.49c41.3,0 75.09,33.8 75.09,75.1c0,41.3 -33.79,75.09 -75.09,75.09c-41.3,0 -75.09,-33.79 -75.09,-75.09c0,-41.3 33.79,-75.1 75.09,-75.1zM680.96,305.49c41.3,0 75.09,33.8 75.09,75.1c0,41.3 -33.79,75.09 -75.09,75.09c-41.3,0 -75.09,-33.79 -75.09,-75.09c0,-41.3 33.79,-75.1 75.09,-75.1z" fill="currentColor"/>
		</g>
	</g>
</svg>