<svg version="1.1" xmlns="http://www.w3.org/2000/svg" xmlns:xlink="http://www.w3.org/1999/xlink" viewBox="0,0,1024,1024">
	<!-- Color names: teamapps-color-1 -->
	<desc>person icon - Licensed under Apache License v2.0 (http://www.apache.org/licenses/LICENSE-2.0) - Created with Iconfu.com - Derivative work of Material icons (Copyright Google Inc.)</desc>
	<g fill="none" fill-rule="nonzero" style="mix-blend-mode: normal">
		<g color="#039be5" class="teamapps-color-1">
			<path d="M873.81,737.28v75.09c0,33.93 -27.51,61.44 -61.44,61.44h-600.74c-33.93,0 -61.44,-27.51 -61.44,-61.44v-75.09c0,-118.41 136.99,-174.52 246.94,-197.68c-58.24,-37.7 -96.76,-103.23 -96.76,-177.79c0,-116.91 94.73,-211.62 211.63,-211.62c116.9,0 211.63,94.71 211.63,211.62c0,74.56 -38.52,140.09 -96.76,177.79c109.95,23.16 246.94,79.27 246.94,197.68zM512,587.09c-100.25,0 -300.37,50.32 -300.37,150.19v75.09h600.74v-75.09c0,-99.87 -200.12,-150.19 -300.37,-150.19zM512,512c82.98,0 150.19,-67.21 150.19,-150.19c0,-82.98 -67.21,-150.18 -150.19,-150.18c-82.98,0 -150.19,67.21 -150.19,150.18c0,82.98 67.21,150.19 150.19,150.19z" fill="currentColor"/>
		</g>
	</g>
</svg>