<svg version="1.1" xmlns="http://www.w3.org/2000/svg" xmlns:xlink="http://www.w3.org/1999/xlink" viewBox="0,0,1024,1024">
	<!-- Color names: teamapps-color-1 -->
	<desc>person_pin icon - Licensed under Apache License v2.0 (http://www.apache.org/licenses/LICENSE-2.0) - Created with Iconfu.com - Derivative work of Material icons (Copyright Google Inc.)</desc>
	<g fill="none" fill-rule="nonzero" style="mix-blend-mode: normal">
		<g color="#039be5" class="teamapps-color-1">
			<path d="M911.36,211.63v525.65c0,75.23 -61.3,136.53 -136.53,136.53h-124.74l-94.64,94.64c-23.99,23.99 -62.9,23.99 -86.89,0l-94.64,-94.64h-124.74c-75.82,0 -136.53,-61.51 -136.53,-136.53v-525.65c0,-75.01 60.71,-136.54 136.53,-136.54h525.66c75.24,0 136.53,61.32 136.53,136.54zM512,573.44c-42.64,0 -89.06,12.8 -121.71,27.31h243.42c-32.65,-14.51 -79.07,-27.31 -121.71,-27.31zM472.06,361.81c0,22.01 17.93,39.94 39.94,39.94c22.01,0 39.94,-17.93 39.94,-39.94c0,-22.01 -17.93,-39.94 -39.94,-39.94c-22.01,0 -39.94,17.93 -39.94,39.94zM774.83,136.53h-525.66c-41.68,0 -75.09,33.8 -75.09,75.1v525.65c0,41.3 33.41,75.09 75.09,75.09h150.19l112.64,112.64l112.64,-112.64h150.19c41.3,0 75.09,-33.79 75.09,-75.09v-525.65c0,-41.3 -33.79,-75.1 -75.09,-75.1zM737.28,662.19h-450.56v-33.79c0,-75.09 150.19,-116.4 225.28,-116.4c75.09,0 225.28,41.31 225.28,116.4zM512,260.43c55.94,0 101.38,45.43 101.38,101.38c0,55.94 -45.43,101.38 -101.38,101.38c-55.94,0 -101.38,-45.43 -101.38,-101.38c0,-55.94 45.43,-101.38 101.38,-101.38z" fill="currentColor"/>
		</g>
	</g>
</svg>