<svg version="1.1" xmlns="http://www.w3.org/2000/svg" xmlns:xlink="http://www.w3.org/1999/xlink" viewBox="0,0,1024,1024">
	<!-- Color names: teamapps-color-1 -->
	<desc>phonelink_off icon - Licensed under Apache License v2.0 (http://www.apache.org/licenses/LICENSE-2.0) - Created with Iconfu.com - Derivative work of Material icons (Copyright Google Inc.)</desc>
	<g fill="none" fill-rule="nonzero" style="mix-blend-mode: normal">
		<g color="#039be5" class="teamapps-color-1">
			<path d="M906.51,896.36l-47.68,47.69c-23.99,24 -62.9,24 -86.89,0l-70.24,-70.24h-640.25c-33.93,0 -61.44,-27.51 -61.44,-61.44v-112.64c0,-33.93 27.51,-61.44 61.44,-61.44h13.65v-351.57c0,-12.1 1.64,-23.79 4.65,-34.86l-37.34,-37.33c-24,-23.99 -24,-62.9 0,-86.89l47.69,-47.69c23.99,-23.99 62.9,-23.99 86.89,0l92.89,92.89c11.48,-14.09 28.86,-22.65 47.65,-22.65h569.96c33.93,0 61.44,27.51 61.44,61.44v75.09c0,5.56 -0.74,10.94 -2.12,16.06c44.14,9.95 77.21,49.47 77.21,96.58v375.47c0,54.61 -44.42,98.98 -98.99,98.98h-4.16c-2.97,8.23 -7.75,15.95 -14.35,22.55zM600.75,503.72v-104.36c0,-18.72 5.22,-36.25 14.29,-51.2h-169.86zM805.61,638.29h20.42v-139.94h-27.31v133.05c0,2.47 -0.15,4.92 -0.44,7.33c2.41,-0.29 4.86,-0.44 7.33,-0.44zM273.07,445.19v193.1h193.1zM133.53,123.39l-47.69,47.69l68.34,68.33c-10.89,12.77 -17.65,29.29 -17.65,47.31v413.01h-75.09v112.64h665.7l88.24,88.24l47.68,-47.69zM211.63,296.86l402.87,402.87h-402.87zM925.01,361.81h-225.28c-20.65,0 -37.54,16.9 -37.54,37.55v156.95l75.09,75.09v-194.49h150.19v262.82h-81.86l112.64,112.64h6.76c20.65,0 37.55,-16.89 37.55,-37.54v-375.47c0,-20.65 -16.9,-37.55 -37.55,-37.55zM887.47,286.72v-75.09h-569.96l75.09,75.09z" fill="currentColor"/>
		</g>
	</g>
</svg>