<svg version="1.1" xmlns="http://www.w3.org/2000/svg" xmlns:xlink="http://www.w3.org/1999/xlink" viewBox="0,0,1024,1024">
	<!-- Color names: teamapps-color-1 -->
	<desc>phonelink_setup icon - Licensed under Apache License v2.0 (http://www.apache.org/licenses/LICENSE-2.0) - Created with Iconfu.com - Derivative work of Material icons (Copyright Google Inc.)</desc>
	<g fill="none" fill-rule="nonzero" style="mix-blend-mode: normal">
		<g color="#039be5" class="teamapps-color-1">
			<path d="M911.36,174.08v675.84c0,75.23 -61.3,136.53 -136.53,136.53h-375.47c-75.23,0 -136.53,-61.3 -136.53,-136.53v-112.64c0,-3.27 0.25,-6.47 0.75,-9.6c-1.61,-2.72 -3.09,-5.66 -4.4,-8.83c-3.3,-7.96 -4.86,-16.19 -4.89,-24.26l-6.59,1.88c-22.53,10.98 -44.91,5.66 -58.14,-1.03c-12.47,-6.31 -20.69,-15.27 -22.37,-17.11c-3.26,-3.42 -6.12,-7.2 -8.51,-11.27l-37.55,-63.83c-5.56,-9.44 -8.48,-20.2 -8.48,-31.15c0,-10.18 1.02,-24.06 10.26,-42.52c4.19,-8.38 10.25,-15.68 17.69,-21.36c-1.77,-1.3 -3.46,-2.7 -5.06,-4.21c-1.54,-1.4 -11.42,-10.27 -17.96,-23.96c-7.85,-16.44 -11.6,-42.94 5.76,-66.76l35.34,-60.07c2.64,-4.48 5.83,-8.62 9.51,-12.29c22.86,-22.86 50.04,-21.74 54.71,-21.74c7.54,0 15.02,1.39 22.05,4.09l6.8,2.62l0.53,-3.43c1.51,-9.8 5.36,-19.04 11.17,-26.97c-0.41,-2.86 -0.62,-5.77 -0.62,-8.74v-112.64c0,-75.23 61.3,-136.53 136.53,-136.53h375.47c75.23,0 136.53,61.3 136.53,136.53zM460.8,737.28v13.65h252.59v-477.86h-252.59v13.65c0,2.12 -0.11,4.21 -0.32,6.27c5.91,8.41 10.1,18.95 11.27,32.07l0.57,3.74l2.74,-0.84c22.68,-11.47 45.41,-6.24 58.88,0.55c12.55,6.32 20.81,15.34 22.49,17.18c3.26,3.41 6.12,7.2 8.51,11.27l37.55,63.83c5.56,9.44 8.48,20.2 8.48,31.15c0,4.79 1.07,31.89 -21.75,54.71c-1.95,1.95 -4.04,3.74 -6.26,5.36l-2.36,1.72l7.48,6.3c1.54,1.4 11.42,10.27 17.96,23.96c7.85,16.44 11.6,42.94 -5.76,66.76l-35.34,60.07c-2.64,4.48 -5.83,8.62 -9.51,12.29c-22.86,22.86 -50.04,21.74 -54.71,21.74c-7.54,0 -15.01,-1.39 -22.05,-4.09l-6.81,-2.62l-0.53,3.42c-1.51,9.8 -5.36,19.05 -11.17,26.98c0.41,2.86 0.62,5.77 0.62,8.74zM375.47,512c0,-7.36 -6.28,-13.65 -13.66,-13.65c-7.37,0 -13.65,6.28 -13.65,13.65c0,7.37 6.28,13.65 13.65,13.65c7.38,0 13.66,-6.29 13.66,-13.65zM774.83,98.99h-375.47c-41.3,0 -75.09,33.79 -75.09,75.09v112.64h75.09v-75.09h375.47v600.74h-375.47v-75.09h-75.09v112.64c0,41.3 33.79,75.09 75.09,75.09h375.47c41.3,0 75.09,-33.79 75.09,-75.09v-675.84c0,-41.3 -33.79,-75.09 -75.09,-75.09zM504.49,530.77v-37.54l41.3,-30.04c3.76,-3.76 3.76,-7.51 3.76,-11.26l-37.55,-63.83c-3.76,-3.76 -7.51,-7.52 -11.26,-3.76l-48.81,15.02c-11.26,-7.51 -22.53,-15.01 -33.79,-18.77l-7.51,-48.81c0,-3.76 -3.76,-7.51 -11.26,-7.51h-75.09c-3.76,0 -7.51,3.75 -11.26,7.51l-7.52,48.81c-11.26,3.76 -22.53,11.26 -33.79,18.77l-48.8,-18.77c-3.76,0 -7.51,-0.01 -11.26,3.75l-37.55,63.84c-3.76,3.76 0,7.51 3.76,11.26l41.3,30.03v37.55l-41.3,30.03c-3.76,7.51 -3.76,11.26 -3.76,15.02l37.55,63.83c3.76,3.76 7.51,7.52 11.26,3.76l52.56,-15.02c11.26,7.51 22.53,15.01 33.79,18.77l7.51,48.81c-3.76,3.76 3.76,7.51 7.52,7.51h75.09c3.76,0 7.51,-3.75 11.26,-7.51l7.51,-48.81c11.26,-3.76 22.53,-11.26 33.79,-18.77l48.81,18.77c3.76,0 7.51,0.01 11.26,-3.75l37.55,-63.84c3.76,-3.76 0,-7.51 -3.76,-11.26zM361.81,587.09c-41.3,0 -75.09,-33.79 -75.09,-75.09c0,-41.3 33.79,-75.09 75.09,-75.09c41.3,0 75.1,33.79 75.1,75.09c0,41.3 -33.8,75.09 -75.1,75.09z" fill="currentColor"/>
		</g>
	</g>
</svg>