<svg version="1.1" xmlns="http://www.w3.org/2000/svg" xmlns:xlink="http://www.w3.org/1999/xlink" viewBox="0,0,1024,1024">
	<!-- Color names: teamapps-color-1 -->
	<desc>phonelink_lock icon - Licensed under Apache License v2.0 (http://www.apache.org/licenses/LICENSE-2.0) - Created with Iconfu.com - Derivative work of Material icons (Copyright Google Inc.)</desc>
	<g fill="none" fill-rule="nonzero" style="mix-blend-mode: normal">
		<g color="#039be5" class="teamapps-color-1">
			<path d="M911.36,174.08v675.84c0,75.23 -61.3,136.53 -136.53,136.53h-375.47c-75.23,0 -136.53,-61.3 -136.53,-136.53v-88.75h-6.14c-59.65,0 -106.5,-53.31 -106.5,-110.24v-131.42c0,-34.91 18.66,-66.08 45.06,-85.53v-15.85c0,-54.13 28.93,-96.91 68.06,-123.75c-0.31,-2.51 -0.47,-5.07 -0.47,-7.66v-112.64c0,-75.23 61.3,-136.53 136.53,-136.53h375.47c75.23,0 136.53,61.3 136.53,136.53zM713.39,750.93v-477.86h-252.59v13.65c0,2.6 -0.16,5.15 -0.47,7.66c39.13,26.84 68.06,69.62 68.06,123.75v15.96c27.16,20.43 45.06,53.47 45.06,89.17v131.41c0,42.98 -27.68,79.3 -64.44,96.26zM774.83,98.99h-375.47c-41.3,0 -75.09,33.79 -75.09,75.09v112.64h75.09v-75.09h375.47v600.74h-375.47v-75.09h-75.09v112.64c0,41.3 33.79,75.09 75.09,75.09h375.47c41.3,0 75.09,-33.79 75.09,-75.09v-675.84c0,-41.3 -33.79,-75.09 -75.09,-75.09zM466.94,474.45v-56.32c0,-52.56 -52.57,-93.86 -105.13,-93.86c-52.56,0 -105.12,41.3 -105.12,93.86v56.32c-22.53,0 -45.06,22.53 -45.06,45.06v131.42c0,26.29 22.53,48.8 45.06,48.8h206.5c26.29,0 48.81,-22.53 48.81,-45.06v-131.41c0,-26.29 -22.53,-48.81 -45.06,-48.81zM418.13,474.45h-112.64v-56.32c0,-30.03 26.29,-48.8 56.32,-48.8c30.03,0 56.32,18.77 56.32,48.8z" fill="currentColor"/>
		</g>
	</g>
</svg>