<svg version="1.1" xmlns="http://www.w3.org/2000/svg" xmlns:xlink="http://www.w3.org/1999/xlink" viewBox="0,0,1024,1024">
	<!-- Color names: teamapps-color-1 -->
	<desc>phone_locked icon - Licensed under Apache License v2.0 (http://www.apache.org/licenses/LICENSE-2.0) - Created with Iconfu.com - Derivative work of Material icons (Copyright Google Inc.)</desc>
	<g fill="none" fill-rule="nonzero" style="mix-blend-mode: normal">
		<g color="#039be5" class="teamapps-color-1">
			<path d="M911.36,680.96v131.41c0,54.59 -44.4,98.99 -98.99,98.99c-386.5,0 -699.73,-313.23 -699.73,-699.73c0,-54.59 44.4,-98.99 98.99,-98.99h131.41c54.59,0 98.99,44.4 98.99,98.99c0,40.34 6.45,78.89 18.3,114.77c0.08,0.25 0.16,0.5 0.24,0.75c10.27,32.68 3.85,72.39 -25.08,100.07l-49.16,49.39c40.55,65.04 95.66,120.03 160.64,160.6l50.42,-50.42c27.27,-26.29 65.53,-34.02 99.35,-23.39c0.25,0.08 0.5,0.16 0.75,0.24c35.89,11.86 74.55,18.34 114.88,18.34c54.59,0 98.99,44.4 98.99,98.99zM911.36,249.17v150.19c0,54.59 -44.4,98.99 -98.99,98.99h-187.73c-54.59,0 -98.99,-44.4 -98.99,-98.99v-150.19c0,-32.19 15.4,-60.74 39.17,-78.8c10.9,-75.11 75.59,-132.82 153.69,-132.82c78.11,0 142.79,57.72 153.68,132.82c23.76,18.06 39.17,46.61 39.17,78.8zM812.37,643.41c-46.93,0 -91.99,-7.51 -134.04,-21.4c-13.14,-4.13 -27.78,-1.13 -38.3,9.01l-82.6,82.61c-106.26,-54.07 -193.37,-140.8 -247.44,-247.43l82.61,-82.98c10.52,-9.76 13.52,-24.4 9.39,-37.54c-13.9,-42.06 -21.4,-87.11 -21.4,-134.04c0,-20.65 -16.9,-37.55 -37.55,-37.55h-131.41c-20.65,0 -37.55,16.9 -37.55,37.55c0,352.56 285.73,638.29 638.29,638.29c20.65,0 37.55,-16.9 37.55,-37.55v-131.41c0,-20.65 -16.9,-37.55 -37.55,-37.55zM812.37,211.63v-18.78c0,-51.81 -42.05,-93.86 -93.86,-93.86c-51.81,0 -93.87,42.05 -93.87,93.86v18.78c-20.65,0 -37.55,16.89 -37.55,37.54v150.19c0,20.65 16.9,37.55 37.55,37.55h187.73c20.65,0 37.55,-16.9 37.55,-37.55v-150.19c0,-20.65 -16.9,-37.54 -37.55,-37.54zM782.34,211.63h-127.66v-18.78c0,-35.3 28.54,-63.83 63.84,-63.83c35.3,0 63.83,28.53 63.83,63.83z" fill="currentColor"/>
		</g>
	</g>
</svg>