<svg version="1.1" xmlns="http://www.w3.org/2000/svg" xmlns:xlink="http://www.w3.org/1999/xlink" viewBox="0,0,1024,1024">
	<!-- Color names: teamapps-color-1 -->
	<desc>phonelink icon - Licensed under Apache License v2.0 (http://www.apache.org/licenses/LICENSE-2.0) - Created with Iconfu.com - Derivative work of Material icons (Copyright Google Inc.)</desc>
	<g fill="none" fill-rule="nonzero" style="mix-blend-mode: normal">
		<g color="#039be5" class="teamapps-color-1">
			<path d="M587.09,638.29c4.69,0 9.27,0.53 13.66,1.52v-240.45c0,-18.72 5.22,-36.25 14.29,-51.2h-341.97v290.13zM587.09,873.81h-525.65c-33.93,0 -61.44,-27.51 -61.44,-61.44v-112.64c0,-33.93 27.51,-61.44 61.44,-61.44h13.65v-351.57c0,-75.24 61.32,-136.53 136.54,-136.53h675.84c33.93,0 61.44,27.51 61.44,61.44v75.09c0,5.56 -0.74,10.94 -2.12,16.06c44.14,9.95 77.21,49.47 77.21,96.58v375.47c0,54.61 -44.42,98.98 -98.99,98.98h-225.28c-24.46,0 -46.88,-8.92 -64.17,-23.67c-11.24,14.41 -28.77,23.67 -48.47,23.67zM798.72,498.35v139.94h27.31v-139.94zM211.63,286.72h675.84v-75.09h-675.84c-41.3,0 -75.1,33.79 -75.1,75.09v413.01h-75.09v112.64h525.65v-112.64h-375.46zM925.01,361.81h-225.28c-20.65,0 -37.54,16.9 -37.54,37.55v375.47c0,20.65 16.89,37.54 37.54,37.54h225.28c20.65,0 37.55,-16.89 37.55,-37.54v-375.47c0,-20.65 -16.9,-37.55 -37.55,-37.55zM887.47,699.73h-150.19v-262.82h150.19z" fill="currentColor"/>
		</g>
	</g>
</svg>