<svg version="1.1" xmlns="http://www.w3.org/2000/svg" xmlns:xlink="http://www.w3.org/1999/xlink" viewBox="0,0,1024,1024">
	<!-- Color names: teamapps-color-1 -->
	<desc>pin_drop icon - Licensed under Apache License v2.0 (http://www.apache.org/licenses/LICENSE-2.0) - Created with Iconfu.com - Derivative work of Material icons (Copyright Google Inc.)</desc>
	<g fill="none" fill-rule="nonzero" style="mix-blend-mode: normal">
		<g color="#039be5" class="teamapps-color-1">
			<path d="M225.28,361.81c0,-158.21 128.51,-286.72 286.72,-286.72c158.21,0 286.72,128.51 286.72,286.72c0,133.17 -115.04,299.08 -186.35,389.12h162.46c33.93,0 61.44,27.51 61.44,61.44v75.1c0,33.93 -27.51,61.44 -61.44,61.44h-525.66c-33.93,0 -61.44,-27.51 -61.44,-61.44v-75.1c0,-33.93 27.51,-61.44 61.44,-61.44h162.46c-71.31,-90.04 -186.35,-255.95 -186.35,-389.12zM512,375.47c7.54,0 13.65,-6.09 13.65,-13.66c0,-7.37 -6.28,-13.65 -13.65,-13.65c-7.37,0 -13.65,6.28 -13.65,13.65c0,7.38 6.29,13.66 13.65,13.66zM737.28,361.81c0,-124.28 -101,-225.28 -225.28,-225.28c-124.28,0 -225.28,101 -225.28,225.28c0,168.96 225.28,413.02 225.28,413.02c0,0 225.28,-244.06 225.28,-413.02zM249.17,812.37v75.1h525.66v-75.1zM436.91,361.81c0,-41.3 33.79,-75.09 75.09,-75.09c41.3,0 75.09,33.79 75.09,75.09c0,41.3 -33.41,75.1 -75.09,75.1c-41.3,0 -75.09,-33.8 -75.09,-75.1z" fill="currentColor"/>
		</g>
	</g>
</svg>