<svg version="1.1" xmlns="http://www.w3.org/2000/svg" xmlns:xlink="http://www.w3.org/1999/xlink" viewBox="0,0,1024,1024">
	<!-- Color names: teamapps-color-1 -->
	<desc>play_circle_outline icon - Licensed under Apache License v2.0 (http://www.apache.org/licenses/LICENSE-2.0) - Created with Iconfu.com - Derivative work of Material icons (Copyright Google Inc.)</desc>
	<g fill="none" fill-rule="nonzero" style="mix-blend-mode: normal">
		<g color="#039be5" class="teamapps-color-1">
			<path d="M948.91,512c0,241.19 -195.72,436.91 -436.91,436.91c-241.19,0 -436.91,-195.72 -436.91,-436.91c0,-241.19 195.72,-436.91 436.91,-436.91c241.19,0 436.91,195.72 436.91,436.91zM750.93,512c0,-131.65 -107.28,-238.93 -238.93,-238.93c-22.81,0 -44.9,3.22 -65.82,9.23c9.83,1.5 19.33,5.39 27.59,11.58l225.28,168.96c15.47,11.6 24.58,29.81 24.58,49.15c0,19.34 -9.11,37.55 -24.58,49.15l-225.28,168.96c-8.26,6.2 -17.76,10.08 -27.59,11.58c20.92,6.01 43,9.23 65.82,9.23c131.65,0 238.93,-107.28 238.93,-238.93zM273.07,512c0,85.23 44.96,160.25 112.4,202.55c-6.4,-9.81 -10,-21.43 -10,-33.59v-337.92c0,-12.17 3.59,-23.78 10,-33.59c-67.43,42.31 -112.4,117.32 -112.4,202.55zM512,136.53c-207.26,0 -375.47,168.21 -375.47,375.47c0,207.26 168.21,375.47 375.47,375.47c207.26,0 375.47,-168.21 375.47,-375.47c0,-207.26 -168.21,-375.47 -375.47,-375.47zM512,812.37c-165.58,0 -300.37,-134.79 -300.37,-300.37c0,-165.58 134.79,-300.37 300.37,-300.37c165.58,0 300.37,134.79 300.37,300.37c0,165.58 -134.79,300.37 -300.37,300.37zM436.91,680.96l225.28,-168.96l-225.28,-168.96z" fill="currentColor"/>
		</g>
	</g>
</svg>