<svg version="1.1" xmlns="http://www.w3.org/2000/svg" xmlns:xlink="http://www.w3.org/1999/xlink" viewBox="0,0,1024,1024">
	<!-- Color names: teamapps-color-1 -->
	<desc>polymer icon - Licensed under Apache License v2.0 (http://www.apache.org/licenses/LICENSE-2.0) - Created with Iconfu.com - Derivative work of Material icons (Copyright Google Inc.)</desc>
	<g fill="none" fill-rule="nonzero" style="mix-blend-mode: normal">
		<g color="#039be5" class="teamapps-color-1">
			<path d="M997.34,542.12l-168.96,300.37c-10.88,19.35 -31.35,31.32 -53.55,31.32h-150.19c-21.83,0 -42.02,-11.58 -53.04,-30.42c-11.02,-18.84 -11.22,-42.12 -0.51,-61.14l152,-270.22l-30.2,-53.57l-241.42,386.46c-11.23,17.97 -30.92,28.89 -52.11,28.89h-150.19c-22.2,0 -42.67,-11.97 -53.55,-31.32l-168.96,-300.37c-10.52,-18.7 -10.52,-41.54 0,-60.24l168.96,-300.37c10.88,-19.35 31.35,-31.32 53.55,-31.32h150.19c21.83,0 42.02,11.58 53.04,30.42c11.02,18.84 11.22,42.12 0.51,61.14l-152,270.22l30.2,53.57l241.42,-386.46c11.23,-17.97 30.92,-28.89 52.11,-28.89h150.19c22.2,0 42.67,11.97 53.55,31.32l168.96,300.37c10.52,18.7 10.52,41.54 0,60.24zM774.83,211.63h-150.19l-296.24,474.21l-98,-173.84l168.96,-300.37h-150.19l-168.96,300.37l168.96,300.37h150.19l296.24,-474.21l98,173.84l-168.96,300.37h150.19l168.96,-300.37z" fill="currentColor"/>
		</g>
	</g>
</svg>