<svg version="1.1" xmlns="http://www.w3.org/2000/svg" xmlns:xlink="http://www.w3.org/1999/xlink" viewBox="0,0,1024,1024">
	<!-- Color names: teamapps-color-1 -->
	<desc>portable_wifi_off icon - Licensed under Apache License v2.0 (http://www.apache.org/licenses/LICENSE-2.0) - Created with Iconfu.com - Derivative work of Material icons (Copyright Google Inc.)</desc>
	<g fill="none" fill-rule="nonzero" style="mix-blend-mode: normal">
		<g color="#039be5" class="teamapps-color-1">
			<path d="M893.36,864.46l-47.69,47.68c-23.99,23.99 -62.89,23.99 -86.89,0l-261.15,-261.15c-1.13,7.26 -3.58,14.43 -7.46,21.17l-37.55,65.33c-7.14,12.41 -17.94,21.39 -30.26,26.36c1.71,12.95 -0.69,26.55 -7.73,38.73l-37.55,64.96c-17,29.42 -54.65,39.45 -84.04,22.39c-129.97,-75.45 -217.96,-216.12 -217.96,-377.92c0,-81.41 22.48,-157.39 61.03,-222.53l-43.04,-43.04c-24,-24 -23.99,-62.9 0,-86.89l47.69,-47.68c23.99,-23.99 62.89,-23.99 86.89,0l41.07,41.07c4.4,-5.4 9.73,-10.08 15.84,-13.78c65.98,-39.94 143.73,-64.07 227.43,-64.07c241.19,0 436.91,195.72 436.91,436.91c0,83.5 -23.65,161.48 -64.76,227.93c-3.6,5.82 -8.09,10.92 -13.26,15.16l22.47,22.47c24,24 23.99,62.9 0,86.89zM545.63,429.84l48.53,48.53c-9,-21.98 -26.55,-39.53 -48.53,-48.53zM184.22,155.31l-47.69,47.68l78.85,78.85c-49.18,63.83 -78.85,143.43 -78.85,230.16c0,138.93 75.47,259.83 187.36,324.78l37.55,-64.96c-89.36,-52.19 -149.81,-148.68 -149.81,-259.82c0,-66.08 21.4,-126.91 57.45,-176.1l53.69,54.07c-22.53,34.92 -36.04,76.97 -36.04,122.03c0,83.35 45.43,155.82 112.64,194.87l37.55,-65.33c-44.68,-26.29 -75.1,-73.96 -75.1,-129.54c0,-24.4 6.39,-46.93 16.53,-67.21l59.32,59.32l-0.75,7.88c0,41.3 33.79,75.09 75.09,75.09l7.88,-0.75l282.35,282.35l47.69,-47.68zM512,211.63c165.96,0 300.37,134.41 300.37,300.37c0,50.69 -13.14,98.37 -35.67,140.42l55.19,55.19c35.3,-57.07 55.57,-123.9 55.57,-195.62c0,-207.26 -168.21,-375.47 -375.47,-375.47c-71.71,0 -138.55,20.65 -195.62,55.19l54.82,54.82c42.06,-22.15 90.11,-34.92 140.8,-34.92zM720.76,596.1c10.52,-25.91 16.52,-54.44 16.52,-84.1c0,-124.28 -101,-225.28 -225.28,-225.28c-29.66,0 -58.19,6 -84.1,16.52l60.83,60.83c7.51,-1.13 15.39,-2.25 23.28,-2.25c82.98,0 150.19,67.21 150.19,150.19c0,7.88 -0.76,15.77 -1.88,23.65z" fill="currentColor"/>
		</g>
	</g>
</svg>