<svg version="1.1" xmlns="http://www.w3.org/2000/svg" xmlns:xlink="http://www.w3.org/1999/xlink" viewBox="0,0,1024,1024">
	<!-- Color names: teamapps-color-1 -->
	<desc>radio_button_unchecked icon - Licensed under Apache License v2.0 (http://www.apache.org/licenses/LICENSE-2.0) - Created with Iconfu.com - Derivative work of Material icons (Copyright Google Inc.)</desc>
	<g fill="none" fill-rule="nonzero" style="mix-blend-mode: normal">
		<g color="#039be5" class="teamapps-color-1">
			<path d="M948.91,512c0,241.19 -195.72,436.91 -436.91,436.91c-241.19,0 -436.91,-195.72 -436.91,-436.91c0,-241.19 195.72,-436.91 436.91,-436.91c241.19,0 436.91,195.72 436.91,436.91zM750.93,512c0,-132.03 -106.9,-238.93 -238.93,-238.93c-132.03,0 -238.93,106.9 -238.93,238.93c0,132.03 106.9,238.93 238.93,238.93c132.03,0 238.93,-106.9 238.93,-238.93zM512,136.53c-207.26,0 -375.47,168.21 -375.47,375.47c0,207.26 168.21,375.47 375.47,375.47c207.26,0 375.47,-168.21 375.47,-375.47c0,-207.26 -168.21,-375.47 -375.47,-375.47zM512,812.37c-165.96,0 -300.37,-134.41 -300.37,-300.37c0,-165.96 134.41,-300.37 300.37,-300.37c165.96,0 300.37,134.41 300.37,300.37c0,165.96 -134.41,300.37 -300.37,300.37z" fill="currentColor"/>
		</g>
	</g>
</svg>