<svg version="1.1" xmlns="http://www.w3.org/2000/svg" xmlns:xlink="http://www.w3.org/1999/xlink" viewBox="0,0,1024,1024">
	<!-- Color names: teamapps-color-1 -->
	<desc>rate_review icon - Licensed under Apache License v2.0 (http://www.apache.org/licenses/LICENSE-2.0) - Created with Iconfu.com - Derivative work of Material icons (Copyright Google Inc.)</desc>
	<g fill="none" fill-rule="nonzero" style="mix-blend-mode: normal">
		<g color="#039be5" class="teamapps-color-1">
			<path d="M948.91,211.63v450.56c0,75.24 -61.32,136.53 -136.54,136.53h-500.2l-132.19,132.19c-17.58,17.58 -44.01,22.83 -66.97,13.31c-22.96,-9.52 -37.93,-31.93 -37.91,-56.79l0.38,-675.83c0.01,-74.81 60.53,-136.52 136.16,-136.52h600.74c75.23,0 136.54,61.31 136.54,136.54zM558.37,309.59l-210.21,210.21v5.85h5.91l210.49,-209.88zM812.37,136.53h-600.74c-41.3,0 -74.72,33.8 -74.72,75.1l-0.38,675.84l150.19,-150.19h525.65c41.3,0 75.1,-33.79 75.1,-75.09v-450.56c0,-41.3 -33.8,-75.1 -75.1,-75.1zM286.72,587.09v-92.73l258.32,-258.32c7.51,-7.51 19.15,-7.51 26.66,0l66.46,66.46c7.51,7.51 7.51,19.15 0,26.66l-258.69,257.95zM737.28,587.09h-281.6l75.09,-75.09h206.51z" fill="currentColor"/>
		</g>
	</g>
</svg>