<svg version="1.1" xmlns="http://www.w3.org/2000/svg" xmlns:xlink="http://www.w3.org/1999/xlink" viewBox="0,0,1024,1024">
	<!-- Color names: teamapps-color-1 -->
	<desc>recent_actors icon - Licensed under Apache License v2.0 (http://www.apache.org/licenses/LICENSE-2.0) - Created with Iconfu.com - Derivative work of Material icons (Copyright Google Inc.)</desc>
	<g fill="none" fill-rule="nonzero" style="mix-blend-mode: normal">
		<g color="#039be5" class="teamapps-color-1">
			<path d="M587.09,836.27h-450.56c-54.61,0 -98.98,-44.42 -98.98,-98.99v-450.56c0,-54.57 44.38,-98.99 98.98,-98.99h450.56c24.46,0 46.88,8.92 64.17,23.67c11.24,-14.41 28.77,-23.67 48.47,-23.67h75.1c14.14,0 27.16,4.78 37.55,12.8c10.38,-8.03 23.41,-12.8 37.55,-12.8h75.09c33.93,0 61.44,27.51 61.44,61.44v525.66c0,33.93 -27.51,61.44 -61.44,61.44h-75.09c-14.14,0 -27.16,-4.78 -37.55,-12.8c-10.38,8.03 -23.41,12.8 -37.55,12.8h-75.1c-19.69,0 -37.22,-9.27 -48.47,-23.67c-17.29,14.76 -39.71,23.67 -64.17,23.67zM338.77,436.91c0,12.63 10.41,23.04 23.04,23.04c12.63,0 23.04,-10.41 23.04,-23.04c0,-12.63 -10.41,-23.04 -23.04,-23.04c-12.63,0 -23.04,10.41 -23.04,23.04zM587.09,249.17h-450.56c-20.65,0 -37.54,16.9 -37.54,37.55v450.56c0,20.65 16.89,37.55 37.54,37.55h450.56c20.65,0 37.55,-16.9 37.55,-37.55v-450.56c0,-20.65 -16.9,-37.55 -37.55,-37.55zM699.73,774.83h75.1v-525.66h-75.1zM849.92,249.17v525.66h75.09v-525.66zM530.77,699.73h-337.92v-28.16c0,-56.32 112.64,-84.48 168.96,-84.48c56.32,0 168.96,28.16 168.96,84.48zM361.81,352.43c46.56,0 84.48,37.92 84.48,84.48c0,46.56 -37.92,84.48 -84.48,84.48c-46.56,0 -84.48,-37.92 -84.48,-84.48c0,-46.56 37.92,-84.48 84.48,-84.48z" fill="currentColor"/>
		</g>
	</g>
</svg>