<svg version="1.1" xmlns="http://www.w3.org/2000/svg" xmlns:xlink="http://www.w3.org/1999/xlink" viewBox="0,0,1024,1024">
	<!-- Color names: teamapps-color-1 -->
	<desc>replay icon - Licensed under Apache License v2.0 (http://www.apache.org/licenses/LICENSE-2.0) - Created with Iconfu.com - Derivative work of Material icons (Copyright Google Inc.)</desc>
	<g fill="none" fill-rule="nonzero" style="mix-blend-mode: normal">
		<g color="#039be5" class="teamapps-color-1">
			<path d="M873.81,549.55c0,199.89 -161.92,361.81 -361.81,361.81c-199.89,0 -361.81,-161.92 -361.81,-361.81c0,-33.93 27.51,-61.44 61.44,-61.44h75.09c33.93,0 61.44,27.51 61.44,61.44c0,90.35 73.49,163.84 163.84,163.84c90.35,0 163.84,-73.49 163.84,-163.84c0,-68.63 -42.41,-127.54 -102.4,-151.9v76.8c0,24.85 -14.97,47.25 -37.93,56.76c-22.96,9.51 -49.38,4.25 -66.96,-13.32l-187.73,-187.73c-23.99,-23.99 -23.99,-62.9 0,-86.89l187.73,-187.73c17.57,-17.57 44,-22.83 66.96,-13.32c22.96,9.51 37.93,31.91 37.93,56.76v93.93c170.62,29.17 300.37,177.68 300.37,356.63zM512,249.17v-150.18l-187.73,187.73l187.73,187.73v-150.18c124.28,0 225.28,101 225.28,225.28c0,124.28 -101,225.28 -225.28,225.28c-124.28,0 -225.28,-101 -225.28,-225.28h-75.09c0,165.96 134.41,300.37 300.37,300.37c165.96,0 300.37,-134.41 300.37,-300.37c0,-165.96 -134.41,-300.38 -300.37,-300.38z" fill="currentColor"/>
		</g>
	</g>
</svg>