<svg version="1.1" xmlns="http://www.w3.org/2000/svg" xmlns:xlink="http://www.w3.org/1999/xlink" viewBox="0,0,1024,1024">
	<!-- Color names: teamapps-color-1 -->
	<desc>room icon - Licensed under Apache License v2.0 (http://www.apache.org/licenses/LICENSE-2.0) - Created with Iconfu.com - Derivative work of Material icons (Copyright Google Inc.)</desc>
	<g fill="none" fill-rule="nonzero" style="mix-blend-mode: normal">
		<g color="#039be5" class="teamapps-color-1">
			<path d="M836.27,399.36c0,220.76 -278.67,529.29 -278.67,529.29c-11.65,12.9 -28.22,20.26 -45.59,20.26c-17.38,0 -33.95,-7.36 -45.59,-20.26c0,0 -278.67,-308.53 -278.67,-529.29c0,-179.24 145.03,-324.27 324.27,-324.27c179.24,0 324.27,145.03 324.27,324.27zM544.43,399.36c0,-17.88 -14.55,-32.43 -32.43,-32.43c-17.88,0 -32.43,14.55 -32.43,32.43c0,17.88 14.55,32.43 32.43,32.43c17.88,0 32.43,-14.55 32.43,-32.43zM512,136.53c-145.31,0 -262.83,117.52 -262.83,262.83c0,197.12 262.83,488.11 262.83,488.11c0,0 262.83,-290.99 262.83,-488.11c0,-145.31 -117.52,-262.83 -262.83,-262.83zM512,493.23c-51.81,0 -93.87,-42.06 -93.87,-93.87c0,-51.81 42.06,-93.87 93.87,-93.87c51.81,0 93.87,42.06 93.87,93.87c0,51.81 -42.06,93.87 -93.87,93.87z" fill="currentColor"/>
		</g>
	</g>
</svg>