<svg version="1.1" xmlns="http://www.w3.org/2000/svg" xmlns:xlink="http://www.w3.org/1999/xlink" viewBox="0,0,1024,1024">
	<!-- Color names: teamapps-color-1 -->
	<desc>router icon - Licensed under Apache License v2.0 (http://www.apache.org/licenses/LICENSE-2.0) - Created with Iconfu.com - Derivative work of Material icons (Copyright Google Inc.)</desc>
	<g fill="none" fill-rule="nonzero" style="mix-blend-mode: normal">
		<g color="#039be5" class="teamapps-color-1">
			<path d="M911.36,624.64v150.19c0,75.23 -61.3,136.53 -136.53,136.53h-525.66c-75.23,0 -136.53,-61.3 -136.53,-136.53v-150.19c0,-75.23 61.3,-136.53 136.53,-136.53h314.03v-83.84c-13.98,-1.16 -27.63,-7.09 -38.32,-17.78l-30.03,-30.03c-4.75,-4.75 -8.56,-10.08 -11.43,-15.76c-8.17,-2.98 -15.82,-7.74 -22.36,-14.27l-30.04,-30.03c-24,-23.99 -24,-62.9 -0.01,-86.9c64.22,-64.22 147.49,-96.84 231.18,-96.84c83.69,0 166.96,32.63 231.18,96.84c23.99,23.99 23.99,62.9 0,86.89l-30.03,30.03c-6.54,6.54 -14.2,11.3 -22.37,14.28c-2.87,5.69 -6.68,11.02 -11.43,15.77l-30.04,30.03c-10.69,10.69 -24.34,16.62 -38.32,17.78v83.84h13.66c75.23,0 136.53,61.3 136.53,136.53zM774.83,549.55h-75.1v-150.19h-75.09v150.19h-375.47c-41.3,0 -75.09,33.79 -75.09,75.09v150.19c0,41.3 33.79,75.09 75.09,75.09h525.66c41.3,0 75.09,-33.79 75.09,-75.09v-150.19c0,-41.3 -33.79,-75.09 -75.09,-75.09zM819.89,282.96l30.03,-30.03c-52.56,-52.56 -120.15,-78.85 -187.73,-78.85c-67.58,0 -135.18,26.29 -187.74,78.85l30.04,30.03c45.06,-41.3 101.38,-63.83 157.7,-63.83c56.32,0 112.64,22.53 157.7,63.83zM786.09,313.01c-33.79,-33.79 -78.85,-52.57 -123.9,-52.57c-45.06,0 -90.11,18.78 -123.9,52.57l30.03,30.03c26.29,-26.29 60.08,-37.55 93.87,-37.55c33.79,0 67.58,11.26 93.86,37.55zM624.64,737.28h-75.09v-75.09h75.09zM361.81,737.28h-75.09v-75.09h75.09zM493.23,737.28h-75.1v-75.09h75.1z" fill="currentColor"/>
		</g>
	</g>
</svg>