<svg version="1.1" xmlns="http://www.w3.org/2000/svg" xmlns:xlink="http://www.w3.org/1999/xlink" viewBox="0,0,1024,1024">
	<!-- Color names: teamapps-color-1 -->
	<desc>rowing icon - Licensed under Apache License v2.0 (http://www.apache.org/licenses/LICENSE-2.0) - Created with Iconfu.com - Derivative work of Material icons (Copyright Google Inc.)</desc>
	<g fill="none" fill-rule="nonzero" style="mix-blend-mode: normal">
		<g color="#039be5" class="teamapps-color-1">
			<path d="M893.29,893.82l-112.64,112.26c-24.06,23.98 -63.02,23.88 -86.96,-0.22l-112.26,-113.02c-11.43,-11.51 -17.85,-27.08 -17.85,-43.3v-30.47l-63.56,-63.47c-7.87,3.6 -16.56,5.57 -25.56,5.57h-49.64l-113.41,113.42c-23.99,24 -62.9,24 -86.89,0l-56.32,-56.32c-23.99,-23.99 -23.99,-62.9 0,-86.89l141.63,-141.63c-26.96,-6.5 -46.99,-30.78 -46.99,-59.73v-81.1c0,-34.37 28.19,-62.05 62.55,-61.43c43.73,0.79 100.18,-24.96 128.67,-56.39l52.57,-58.2c3.97,-4.38 8.18,-8.45 12.59,-12.21c-19.42,-23.59 -31.1,-53.78 -31.1,-86.61c0,-75.23 61.3,-136.53 136.53,-136.53c75.23,0 136.53,61.3 136.53,136.53c0,37.77 -15.45,72.03 -40.36,96.78c24.97,26.2 40.36,61.63 40.36,100.72v215.89c0,32.09 -8.79,62.37 -24.15,88.37h0.26c16.33,0 31.99,6.5 43.52,18.07l112.64,113.02c23.95,24.03 23.89,62.94 -0.15,86.89zM737.28,737.28h-56.32l-236.17,-236.17c32.29,-13.9 62.32,-32.67 85.98,-52.19v85.23l134.42,134.42c21.4,-20.65 34.54,-49.56 34.54,-81.1v-215.89c0,-46.56 -37.92,-84.48 -84.48,-84.86h-1.13c-12.77,0 -25.16,3.38 -36.04,8.63c-9.76,4.51 -18.77,10.89 -25.91,18.78l-52.56,58.19c-39.8,43.93 -113.01,77.72 -175.34,76.6v81.1c11.26,0 22.52,-0.76 34.16,-2.63l266.59,266.21v55.94l112.26,113.02l112.64,-112.26zM380.59,605.87l-168.96,168.96l56.32,56.32l131.41,-131.42h75.09zM624.64,98.99c-41.3,0 -75.09,33.79 -75.09,75.09c0,41.3 33.79,75.09 75.09,75.09c41.3,0 75.09,-33.79 75.09,-75.09c0,-41.3 -33.79,-75.09 -75.09,-75.09z" fill="currentColor"/>
		</g>
	</g>
</svg>