<svg version="1.1" xmlns="http://www.w3.org/2000/svg" xmlns:xlink="http://www.w3.org/1999/xlink" viewBox="0,0,1024,1024">
	<!-- Color names: teamapps-color-1 -->
	<desc>screen_lock_portrait icon - Licensed under Apache License v2.0 (http://www.apache.org/licenses/LICENSE-2.0) - Created with Iconfu.com - Derivative work of Material icons (Copyright Google Inc.)</desc>
	<g fill="none" fill-rule="nonzero" style="mix-blend-mode: normal">
		<g color="#039be5" class="teamapps-color-1">
			<path d="M836.27,174.08v675.84c0,75.24 -61.32,136.53 -136.54,136.53h-375.46c-75.22,0 -136.54,-61.29 -136.54,-136.53v-675.84c0,-75.24 61.32,-136.53 136.54,-136.53h375.46c75.22,0 136.54,61.29 136.54,136.53zM385.71,310.61v74.35c13.81,-33.55 40.61,-60.48 74.27,-74.35zM385.71,713.39h7.37c-2.52,-1.25 -4.98,-2.6 -7.37,-4.05zM638.29,713.39v-4.05c-2.39,1.45 -4.85,2.81 -7.37,4.05zM638.29,310.61h-74.34c33.55,13.81 60.47,40.62 74.34,74.28zM699.73,98.99h-375.46c-41.3,0 -75.1,33.79 -75.1,75.09v675.84c0,41.3 33.8,75.09 75.1,75.09h375.46c41.3,0 75.1,-33.79 75.1,-75.09v-675.84c0,-41.3 -33.8,-75.09 -75.1,-75.09zM699.73,774.83h-375.46v-525.66h375.46zM436.91,662.19h150.18c20.65,0 37.55,-16.9 37.55,-37.55v-112.64c0,-20.65 -16.9,-37.55 -37.55,-37.55v-37.54c0,-41.68 -33.79,-75.1 -75.09,-75.1c-41.68,0 -75.09,33.8 -75.09,75.1v37.54c-20.65,0 -37.55,16.9 -37.55,37.55v112.64c0,20.65 16.9,37.55 37.55,37.55zM466.94,436.91c0,-24.78 20.28,-45.06 45.06,-45.06c24.78,0 45.06,20.28 45.06,45.06v37.54h-90.11z" fill="currentColor"/>
		</g>
	</g>
</svg>