<svg version="1.1" xmlns="http://www.w3.org/2000/svg" xmlns:xlink="http://www.w3.org/1999/xlink" viewBox="0,0,1024,1024">
	<!-- Color names: teamapps-color-1 -->
	<desc>screen_share icon - Licensed under Apache License v2.0 (http://www.apache.org/licenses/LICENSE-2.0) - Created with Iconfu.com - Derivative work of Material icons (Copyright Google Inc.)</desc>
	<g fill="none" fill-rule="nonzero" style="mix-blend-mode: normal">
		<g color="#039be5" class="teamapps-color-1">
			<path d="M1024,737.28v75.09c0,33.93 -27.51,61.44 -61.44,61.44h-901.12c-33.93,0 -61.44,-27.51 -61.44,-61.44v-75.09c0,-33.93 27.51,-61.44 61.44,-61.44h14.33c-0.45,-4.49 -0.68,-9.05 -0.68,-13.65v-375.47c0,-75.62 60.94,-136.53 136.54,-136.53h600.74c75.01,0 136.54,60.71 136.54,136.53l-0.38,375.53c0,4.58 -0.23,9.12 -0.68,13.59h14.71c33.93,0 61.44,27.51 61.44,61.44zM566.26,463.37c10.48,2.95 19.82,8.61 27.22,16.18l16.23,-15.18l-17.29,-16.12c-7.19,7.01 -16.12,12.29 -26.17,15.12zM812.37,737.28c41.3,0 74.72,-33.79 74.72,-75.09l0.38,-375.47c0,-41.68 -33.8,-75.09 -75.1,-75.09h-600.74c-41.68,0 -75.1,33.41 -75.1,75.09v375.47c0,41.3 33.42,75.09 75.1,75.09h-150.19v75.09h901.12v-75.09zM549.55,604.74v-82.23c-104.38,0 -173.09,31.91 -225.28,102.12c21.02,-100.25 79.23,-200.12 225.28,-220.4v-79.97l150.18,140.04z" fill="currentColor"/>
		</g>
	</g>
</svg>