<svg version="1.1" xmlns="http://www.w3.org/2000/svg" xmlns:xlink="http://www.w3.org/1999/xlink" viewBox="0,0,1024,1024">
	<!-- Color names: teamapps-color-1 -->
	<desc>screen_lock_landscape icon - Licensed under Apache License v2.0 (http://www.apache.org/licenses/LICENSE-2.0) - Created with Iconfu.com - Derivative work of Material icons (Copyright Google Inc.)</desc>
	<g fill="none" fill-rule="nonzero" style="mix-blend-mode: normal">
		<g color="#039be5" class="teamapps-color-1">
			<path d="M986.45,324.27v375.46c0,75.22 -61.29,136.54 -136.53,136.54h-675.84c-75.24,0 -136.53,-61.32 -136.53,-136.54v-375.46c0,-75.22 61.29,-136.54 136.53,-136.54h675.84c75.24,0 136.53,61.32 136.53,136.54zM310.61,385.71v252.58h28.25c-0.62,-4.46 -0.94,-9.02 -0.94,-13.65v-112.64c0,-31.46 14.71,-59.45 37.57,-77.57c0.31,-17.18 3.8,-33.61 9.91,-48.72zM713.39,638.29v-252.58h-74.76c6.09,15.07 9.58,31.49 9.88,48.72c22.86,18.12 37.57,46.11 37.57,77.57v112.64c0,4.63 -0.32,9.19 -0.94,13.65zM849.92,249.17h-675.84c-41.3,0 -75.09,33.8 -75.09,75.1v375.46c0,41.3 33.79,75.1 75.09,75.1h675.84c41.3,0 75.09,-33.8 75.09,-75.1v-375.46c0,-41.3 -33.79,-75.1 -75.09,-75.1zM774.83,699.73h-525.66v-375.46h525.66zM436.91,662.19h150.18c20.65,0 37.55,-16.9 37.55,-37.55v-112.64c0,-20.65 -16.9,-37.55 -37.55,-37.55v-37.54c0,-41.68 -33.79,-75.1 -75.09,-75.1c-41.68,0 -75.09,33.8 -75.09,75.1v37.54c-20.65,0 -37.55,16.9 -37.55,37.55v112.64c0,20.65 16.9,37.55 37.55,37.55zM466.94,436.91c0,-24.78 20.28,-45.06 45.06,-45.06c24.78,0 45.06,20.28 45.06,45.06v37.54h-90.11z" fill="currentColor"/>
		</g>
	</g>
</svg>