<svg version="1.1" xmlns="http://www.w3.org/2000/svg" xmlns:xlink="http://www.w3.org/1999/xlink" viewBox="0,0,1024,1024">
	<!-- Color names: teamapps-color-1 -->
	<desc>screen_rotation icon - Licensed under Apache License v2.0 (http://www.apache.org/licenses/LICENSE-2.0) - Created with Iconfu.com - Derivative work of Material icons (Copyright Google Inc.)</desc>
	<g fill="none" fill-rule="nonzero" style="mix-blend-mode: normal">
		<g color="#039be5" class="teamapps-color-1">
			<path d="M940.3,701.5l-238.65,238.65c-28.44,28.78 -67.78,39.56 -104.52,32.81c-0.69,3.61 -1.71,7.19 -3.07,10.69c-8.8,22.7 -30.17,38.05 -54.49,39.16l-25.16,1.14c-0.8,0.04 -1.61,0.05 -2.41,0.05c-268.47,0 -488.16,-206.57 -509.92,-469.38c-2.96,-35.81 25.3,-66.51 61.23,-66.51h19.51c-45.59,-46.16 -44.64,-120.09 0.88,-165.61l238.65,-238.65c28.44,-28.78 67.78,-39.56 104.52,-32.81c0.69,-3.61 1.71,-7.19 3.07,-10.69c8.8,-22.7 30.17,-38.05 54.49,-39.16l25.16,-1.14c0.8,-0.04 1.61,-0.05 2.41,-0.05c268.47,0 488.16,206.57 509.92,469.38c2.96,35.81 -25.3,66.51 -61.23,66.51h-19.51c45.59,46.16 44.64,120.09 -0.88,165.61zM405.74,253.83l-151.91,151.91l364.43,364.43l151.91,-151.91zM690.86,232.05l-17.31,17.18c-3.28,3.26 -6.84,6.07 -10.6,8.44l171.21,171.21c-21.28,-82.21 -73.27,-152.07 -143.29,-196.83zM333.07,792.02l17.38,-17.25c3.28,-3.26 6.84,-6.07 10.6,-8.44l-171.21,-171.21c21.28,82.33 73.3,152.32 143.23,196.9zM445.54,127.15c-22.15,-22.15 -57.82,-22.15 -79.6,0l-238.8,238.8c-22.15,22.15 -22.15,57.82 0,79.6l451.31,451.31c22.15,22.15 57.82,22.15 79.6,0l238.8,-238.8c22.15,-22.15 22.15,-57.82 0,-79.6zM618.26,857.06l-451.32,-451.32l238.8,-238.8l451.32,451.32zM343.79,867.94c-122.78,-57.82 -210.64,-177.21 -224.15,-318.39h-56.32c19.15,231.29 212.52,413.01 448.69,413.01l24.78,-1.13l-143.05,-143.05zM680.21,156.06c122.78,58.19 210.64,177.21 224.15,318.39h56.32c-19.15,-231.29 -212.52,-413.01 -448.69,-413.01l-24.78,1.13l143.05,143.05z" fill="currentColor"/>
		</g>
	</g>
</svg>