<svg version="1.1" xmlns="http://www.w3.org/2000/svg" xmlns:xlink="http://www.w3.org/1999/xlink" viewBox="0,0,1024,1024">
	<!-- Color names: teamapps-color-1 -->
	<desc>settings_backup_restore icon - Licensed under Apache License v2.0 (http://www.apache.org/licenses/LICENSE-2.0) - Created with Iconfu.com - Derivative work of Material icons (Copyright Google Inc.)</desc>
	<g fill="none" fill-rule="nonzero" style="mix-blend-mode: normal">
		<g color="#039be5" class="teamapps-color-1">
			<path d="M911.36,512c0,220.54 -178.82,399.36 -399.36,399.36c-91.49,0 -175.81,-31.14 -243.03,-82.43c-14.03,-10.71 -22.78,-26.92 -24.01,-44.53c-1.24,-17.6 5.15,-34.89 17.54,-47.45l53.31,-54.07c21.09,-21.39 54.57,-24.39 79.13,-7.09c33.54,23.62 73.88,37.61 117.06,37.61c111.37,0 201.39,-90.02 201.39,-201.39c0,-111.37 -90.02,-201.39 -201.39,-201.39c-89.94,0 -165.96,58.71 -191.88,139.95h41.69c9.03,0 17.74,1.98 25.62,5.6c21.4,-47.5 69.21,-80.69 124.56,-80.69c75.23,0 136.53,61.3 136.53,136.53c0,75.23 -61.3,136.53 -136.53,136.53c-53.91,0 -100.66,-31.47 -122.83,-77l-134.09,134.1c-23.99,24 -62.9,24 -86.89,0l-150.19,-150.19c-17.57,-17.57 -22.83,-44 -13.32,-66.96c9.51,-22.96 31.91,-37.93 56.76,-37.93h55.9c29.57,-191.38 195.02,-337.92 394.66,-337.92c220.54,0 399.36,178.82 399.36,399.36zM512,174.08c-186.6,0 -337.92,151.32 -337.92,337.92h-112.64l150.19,150.19l150.18,-150.19h-112.64c0,-145.31 117.52,-262.83 262.83,-262.83c145.31,0 262.83,117.52 262.83,262.83c0,145.31 -117.52,262.83 -262.83,262.83c-56.7,0 -109.26,-18.4 -152.44,-48.81l-53.31,54.07c57.07,43.55 128.41,69.84 205.75,69.84c186.6,0 337.92,-151.32 337.92,-337.92c0,-186.6 -151.32,-337.92 -337.92,-337.92zM587.09,512c0,-41.3 -33.79,-75.09 -75.09,-75.09c-41.3,0 -75.09,33.79 -75.09,75.09c0,41.3 33.79,75.09 75.09,75.09c41.3,0 75.09,-33.79 75.09,-75.09z" fill="currentColor"/>
		</g>
	</g>
</svg>