<svg version="1.1" xmlns="http://www.w3.org/2000/svg" xmlns:xlink="http://www.w3.org/1999/xlink" viewBox="0,0,1024,1024">
	<!-- Color names: teamapps-color-1 -->
	<desc>settings_applications icon - Licensed under Apache License v2.0 (http://www.apache.org/licenses/LICENSE-2.0) - Created with Iconfu.com - Derivative work of Material icons (Copyright Google Inc.)</desc>
	<g fill="none" fill-rule="nonzero" style="mix-blend-mode: normal">
		<g color="#039be5" class="teamapps-color-1">
			<path d="M911.36,249.17v525.66c0,75.02 -60.71,136.53 -136.53,136.53h-525.66c-75.82,0 -136.53,-61.51 -136.53,-136.53v-525.66c0,-75.02 60.71,-136.53 136.53,-136.53h525.66c75.82,0 136.53,61.51 136.53,136.53zM669.34,437.74l22.35,-17.52l-10.64,-18.39l-26.35,10.6c-17.64,7.1 -37.41,5.58 -53.61,-3.77c22.49,19.42 38.6,46.03 44.72,76.2c0.36,-18.28 8.88,-35.65 23.53,-47.13zM526.63,338.07l-3.86,-27.46h-21.48l-3.91,27.84c-2.63,18.7 -13.67,35 -29.71,44.42c13.91,-4.79 28.83,-7.4 44.33,-7.4c16.17,0 31.7,2.83 46.11,8.03c-16.99,-9.24 -28.76,-26.03 -31.48,-45.42zM369.29,412.81l-26.35,-10.6l-10.64,18.38l22.36,17.53c14.55,11.41 23.05,28.63 23.51,46.78c6,-29.64 21.65,-55.85 43.52,-75.18c-15.97,8.73 -35.2,10.01 -52.4,3.09zM354.66,586.26l-22.35,17.52l10.64,18.39l26.35,-10.6c17.64,-7.1 37.41,-5.58 53.61,3.77c-22.49,-19.42 -38.6,-46.03 -44.72,-76.2c-0.36,18.28 -8.88,35.65 -23.53,47.13zM497.37,685.93l3.86,27.46h21.48l3.91,-27.84c2.63,-18.7 13.67,-35 29.71,-44.42c-13.91,4.79 -28.83,7.4 -44.33,7.4c-16.17,0 -31.7,-2.83 -46.11,-8.03c16.99,9.24 28.76,26.03 31.48,45.42zM654.71,611.19l26.35,10.6l10.64,-18.38l-22.36,-17.53c-14.55,-11.41 -23.05,-28.63 -23.51,-46.78c-6,29.64 -21.65,55.85 -43.52,75.18c15.97,-8.73 35.2,-10.01 52.4,-3.09zM774.83,174.08h-525.66c-41.68,0 -75.09,33.79 -75.09,75.09v525.66c0,41.3 33.41,75.09 75.09,75.09h525.66c41.68,0 75.09,-33.79 75.09,-75.09v-525.66c0,-41.3 -33.41,-75.09 -75.09,-75.09zM709.12,512c0,8.63 -0.75,17.27 -1.87,25.53l55.56,43.56c4.88,4.13 6.39,11.26 3.01,16.9l-52.57,90.86c-3.38,5.63 -10.13,7.88 -16.14,5.63l-65.33,-26.29c-13.52,10.52 -28.54,19.15 -44.31,25.91l-9.76,69.47c-1.13,6.38 -6.77,11.26 -13.15,11.26h-105.12c-6.38,0 -12.02,-4.88 -13.15,-10.89l-9.76,-69.46c-16.15,-6.76 -30.79,-15.39 -44.31,-25.91l-65.33,26.29c-6.01,2.25 -12.76,0 -16.14,-5.63l-52.57,-90.87c-3.38,-5.63 -1.87,-12.77 3.01,-16.9l55.56,-43.55c-1.13,-8.63 -1.87,-17.27 -1.87,-25.91c0,-8.63 0.75,-17.27 1.87,-25.53l-55.56,-43.56c-4.88,-4.13 -6.39,-11.26 -3.01,-16.9l52.57,-90.86c3.38,-5.63 10.13,-7.88 16.14,-5.63l65.33,26.29c13.52,-10.52 28.54,-19.15 44.31,-25.91l9.76,-69.47c1.13,-6.38 6.77,-11.26 13.15,-11.26h105.12c6.38,0 12.02,4.88 13.15,10.89l9.76,69.46c16.15,6.76 30.79,15.39 44.31,25.91l65.33,-26.29c6.01,-2.25 12.76,0 16.14,5.63l52.57,90.87c3.38,5.63 1.87,12.77 -3.01,16.9l-55.56,43.55c1.13,8.63 1.87,17.27 1.87,25.91zM512,436.91c-41.3,0 -75.09,33.79 -75.09,75.09c0,41.3 33.79,75.09 75.09,75.09c41.3,0 75.09,-33.79 75.09,-75.09c0,-41.3 -33.79,-75.09 -75.09,-75.09z" fill="currentColor"/>
		</g>
	</g>
</svg>