<svg version="1.1" xmlns="http://www.w3.org/2000/svg" xmlns:xlink="http://www.w3.org/1999/xlink" viewBox="0,0,1024,1024">
	<!-- Color names: teamapps-color-1 -->
	<desc>settings_voice icon - Licensed under Apache License v2.0 (http://www.apache.org/licenses/LICENSE-2.0) - Created with Iconfu.com - Derivative work of Material icons (Copyright Google Inc.)</desc>
	<g fill="none" fill-rule="nonzero" style="mix-blend-mode: normal">
		<g color="#039be5" class="teamapps-color-1">
			<path d="M610.99,737.61v74.76c0,5.42 -0.7,10.67 -2.02,15.67c5,-1.32 10.25,-2.02 15.67,-2.02h75.09c33.93,0 61.44,27.51 61.44,61.44v75.09c0,33.93 -27.51,61.44 -61.44,61.44h-75.09c-14.14,0 -27.16,-4.78 -37.55,-12.8c-10.38,8.03 -23.41,12.8 -37.55,12.8h-75.1c-14.14,0 -27.16,-4.78 -37.55,-12.8c-10.38,8.03 -23.41,12.8 -37.55,12.8h-75.09c-33.93,0 -61.44,-27.51 -61.44,-61.44v-75.09c0,-33.93 27.51,-61.44 61.44,-61.44h75.09c5.41,0 10.67,0.7 15.67,2.02c-1.32,-5 -2.02,-10.26 -2.02,-15.67v-74.76c-126.12,-41.13 -225.28,-158.27 -225.28,-300.7c0,-33.93 27.51,-61.44 61.44,-61.44h63.84c8.87,0 17.3,1.88 24.91,5.26v-169.1c0,-96.26 77.82,-174.08 174.08,-174.08c96.26,0 174.08,77.82 174.08,174.08l-0.28,169.23c7.69,-3.46 16.22,-5.39 25.2,-5.39h63.84c33.93,0 61.44,27.51 61.44,61.44c0,142.43 -99.16,259.57 -225.28,300.7zM774.83,436.91h-63.84c0,112.64 -95.37,191.49 -198.99,191.49c-103.63,0 -198.99,-78.85 -198.99,-191.49h-63.84c0,128.03 102.12,233.91 225.28,252.31v123.15h75.1v-123.15c123.16,-18.4 225.28,-124.28 225.28,-252.31zM512,549.55c62.33,0 112.26,-50.31 112.26,-112.64l0.38,-225.28c0,-62.33 -50.31,-112.64 -112.64,-112.64c-62.33,0 -112.64,50.31 -112.64,112.64v225.28c0,62.33 50.31,112.64 112.64,112.64zM324.27,962.56h75.09v-75.09h-75.09zM474.45,962.56h75.1v-75.09h-75.1zM624.64,962.56h75.09v-75.09h-75.09z" fill="currentColor"/>
		</g>
	</g>
</svg>