<svg version="1.1" xmlns="http://www.w3.org/2000/svg" xmlns:xlink="http://www.w3.org/1999/xlink" viewBox="0,0,1024,1024">
	<!-- Color names: teamapps-color-1 -->
	<desc>settings_brightness icon - Licensed under Apache License v2.0 (http://www.apache.org/licenses/LICENSE-2.0) - Created with Iconfu.com - Derivative work of Material icons (Copyright Google Inc.)</desc>
	<g fill="none" fill-rule="nonzero" style="mix-blend-mode: normal">
		<g color="#039be5" class="teamapps-color-1">
			<path d="M986.45,249.17v525.66c0,75.23 -61.3,136.53 -136.53,136.53h-675.84c-75.23,0 -136.53,-61.3 -136.53,-136.53v-525.66c0,-75.23 61.3,-136.53 136.53,-136.53h675.84c75.23,0 136.53,61.3 136.53,136.53zM235.52,310.24v403.52h92.88c-16.87,-10.95 -28.03,-29.96 -28.03,-51.57v-68.42l-38.32,-38.32c-23.99,-23.99 -23.99,-62.9 0,-86.89l38.32,-38.32v-68.42c0,-21.61 11.16,-40.62 28.03,-51.57zM788.48,713.76v-403.52h-92.88c16.87,10.95 28.03,29.96 28.03,51.57v68.42l38.32,38.32c23.99,23.99 23.99,62.9 0,86.89l-38.32,38.32v68.42c0,21.61 -11.16,40.62 -28.03,51.57zM849.92,174.08h-675.84c-41.3,0 -75.09,33.79 -75.09,75.09v525.66c0,41.3 33.79,75.09 75.09,75.09h675.84c41.3,0 75.09,-33.79 75.09,-75.09v-525.66c0,-41.3 -33.79,-75.09 -75.09,-75.09zM849.92,775.2h-675.84v-526.4h675.84zM361.81,662.19h93.87l56.32,56.32l56.32,-56.32h93.87v-93.87l56.32,-56.32l-56.32,-56.32v-93.87h-93.87l-56.32,-56.32l-56.32,56.32h-93.87v93.87l-56.32,56.32l56.32,56.32zM512,399.36c62.33,0 112.64,50.31 112.64,112.64c0,62.33 -50.31,112.64 -112.64,112.64z" fill="currentColor"/>
		</g>
	</g>
</svg>