<svg version="1.1" xmlns="http://www.w3.org/2000/svg" xmlns:xlink="http://www.w3.org/1999/xlink" viewBox="0,0,1024,1024">
	<!-- Color names: teamapps-color-1 -->
	<desc>shopping_basket icon - Licensed under Apache License v2.0 (http://www.apache.org/licenses/LICENSE-2.0) - Created with Iconfu.com - Derivative work of Material icons (Copyright Google Inc.)</desc>
	<g fill="none" fill-rule="nonzero" style="mix-blend-mode: normal">
		<g color="#039be5" class="teamapps-color-1">
			<path d="M887.47,337.92c54.61,0 98.98,44.42 98.98,98.99l-1.48,16.69c-0.3,2.85 -0.84,5.67 -1.59,8.44l-95.76,349.86c-16.24,56.83 -68.49,99.46 -131.57,99.46h-488.1c-62.89,0 -115.58,-42.43 -131.35,-100.03l-95.06,-346.9c-3.24,-10.57 -3.99,-20.12 -3.99,-27.52c0,-54.57 44.38,-98.99 98.98,-98.99h147.03l146.09,-218.47c20.27,-30.69 53.16,-43.6 82.35,-43.6c29.06,0 61.68,12.78 82,42.71l146.47,219.36zM525.65,624.64c0,-7.37 -6.28,-13.65 -13.65,-13.65c-7.37,0 -13.65,6.28 -13.65,13.65c0,7.37 6.28,13.65 13.65,13.65c7.37,0 13.65,-6.28 13.65,-13.65zM707.62,399.36l-164.45,-246.3c-7.14,-10.52 -19.15,-15.77 -31.16,-15.77c-12.01,0 -24.02,5.25 -31.16,16.14l-164.45,245.93h-179.85c-20.65,0 -37.54,16.9 -37.54,37.55c0,3.38 0.37,6.76 1.5,10.14l95.37,348.06c8.63,31.54 37.55,54.82 72.09,54.82h488.1c34.54,0 63.46,-23.28 72.47,-54.82l95.37,-348.06l1.13,-10.14c0,-20.65 -16.89,-37.55 -37.54,-37.55zM399.36,399.36l112.64,-165.2l112.64,165.2zM512,699.73c-41.3,0 -75.09,-33.79 -75.09,-75.09c0,-41.3 33.79,-75.09 75.09,-75.09c41.3,0 75.09,33.79 75.09,75.09c0,41.3 -33.79,75.09 -75.09,75.09z" fill="currentColor"/>
		</g>
	</g>
</svg>