<svg version="1.1" xmlns="http://www.w3.org/2000/svg" xmlns:xlink="http://www.w3.org/1999/xlink" viewBox="0,0,1024,1024">
	<!-- Color names: teamapps-color-1 -->
	<desc>storage icon - Licensed under Apache License v2.0 (http://www.apache.org/licenses/LICENSE-2.0) - Created with Iconfu.com - Derivative work of Material icons (Copyright Google Inc.)</desc>
	<g fill="none" fill-rule="nonzero" style="mix-blend-mode: normal">
		<g color="#039be5" class="teamapps-color-1">
			<path d="M948.91,662.19v150.18c0,33.93 -27.51,61.44 -61.44,61.44h-750.94c-33.93,0 -61.44,-27.51 -61.44,-61.44v-150.18c0,-14.14 4.78,-27.17 12.81,-37.55c-8.03,-10.38 -12.81,-23.41 -12.81,-37.55v-150.18c0,-14.14 4.78,-27.17 12.81,-37.55c-8.03,-10.38 -12.81,-23.41 -12.81,-37.55v-150.18c0,-33.93 27.51,-61.44 61.44,-61.44h750.94c33.93,0 61.44,27.51 61.44,61.44v150.18c0,14.14 -4.78,27.17 -12.81,37.55c8.03,10.38 12.81,23.41 12.81,37.55v150.18c0,14.14 -4.78,27.17 -12.81,37.55c8.03,10.38 12.81,23.41 12.81,37.55zM136.53,211.63v150.18h750.94v-150.18zM136.53,812.37h750.94v-150.18h-750.94zM136.53,587.09h750.94v-150.18h-750.94zM211.63,699.73h75.09v75.1h-75.09zM286.72,324.27h-75.09v-75.1h75.09zM211.63,474.45h75.09v75.1h-75.09z" fill="currentColor"/>
		</g>
	</g>
</svg>