<svg version="1.1" xmlns="http://www.w3.org/2000/svg" xmlns:xlink="http://www.w3.org/1999/xlink" viewBox="0,0,1024,1024">
	<!-- Color names: teamapps-color-1 -->
	<desc>strikethrough_s icon - Licensed under Apache License v2.0 (http://www.apache.org/licenses/LICENSE-2.0) - Created with Iconfu.com - Derivative work of Material icons (Copyright Google Inc.)</desc>
	<g fill="none" fill-rule="nonzero" style="mix-blend-mode: normal">
		<g color="#039be5" class="teamapps-color-1">
			<path d="M849.92,574.19h-66.1c0.17,3.8 0.25,7.6 0.25,11.41c0,32.54 -6.66,63.51 -20.76,91.69c-13.74,27.46 -33.58,51.1 -58.61,69.6c-24.38,18.02 -52.36,30.57 -81.97,39.23c-31.19,9.12 -64.6,12.99 -99.1,12.99c-22.25,0 -43.76,-2.32 -64.16,-5.72c-0.36,-0.06 -0.71,-0.12 -1.07,-0.19c-21.56,-4.04 -42.62,-9.96 -62.79,-17.75c-21.04,-8.13 -40.76,-18.67 -58.68,-31.22c-19.8,-13.59 -36.06,-29.54 -49.75,-46.65c-0.15,-0.19 -0.31,-0.39 -0.46,-0.58c-15.06,-19.35 -25.96,-40.42 -33.86,-62.65c-6.81,-19.15 -10.52,-40.54 -11.91,-60.91h-66.87c-33.93,0 -61.44,-27.51 -61.44,-61.44v-75.09c0,-33.93 27.51,-61.44 61.44,-61.44h88.54c-3.69,-15.55 -5.42,-31.66 -5.42,-48.2c0,-32.06 6.94,-62.62 22.05,-91.24c14.28,-27.38 34.38,-50.41 59.22,-69.04c0.19,-0.15 0.39,-0.29 0.58,-0.43c24.1,-17.57 51.87,-31.03 82.05,-40.31c0.31,-0.09 0.61,-0.19 0.92,-0.27c30.83,-8.88 64.14,-13.33 98.99,-13.33c35.96,0 70.16,4.89 102.66,16.01c31.41,10.51 59.94,26.19 83.84,46.92c24.41,20.84 43.33,46.08 56.41,74.84c13.19,29.01 19.77,60.24 19.77,93.38c0,11.59 -3.21,22.43 -8.79,31.68h75.01c33.93,0 61.44,27.51 61.44,61.44v75.84c0,33.93 -27.51,61.44 -61.44,61.44zM478.64,574.59c1.17,2.59 2.32,3.75 3.33,4.52c1.58,1.2 5.33,3.39 12.29,5.18c6.76,1.74 16.37,2.95 29,2.95c8.41,0 15.37,-1.05 20.69,-2.43c0.94,-0.3 1.77,-0.59 2.51,-0.86c-3.1,-2.01 -7.86,-4.72 -14.8,-7.96c-6.05,-2.38 -3.7,-1.26 -7.44,-2.54h-46.07c0.16,0.42 0.32,0.8 0.48,1.15zM547.81,343.79c0,-4.83 -0.74,-7.77 -1.53,-9.83c-0.31,-0.8 -0.6,-1.61 -0.88,-2.42l-1.98,-1.53c-0.96,-0.54 -2.46,-1.28 -4.73,-2.15c-4.45,-1.38 -11.06,-2.6 -19.55,-2.6c-8.87,0 -14.81,0.78 -18.34,1.57c8.62,5.25 17.63,9.78 31.18,14.44c5.88,2.02 11.28,4.86 16.1,8.36c-0.18,-1.92 -0.27,-3.87 -0.27,-5.83zM849.92,436.91h-675.84v75.09h361.2c6.76,2.63 15.02,5.25 20.65,7.51c13.9,6.38 24.78,12.77 32.67,19.15c7.88,6.38 13.15,13.52 16.15,21.4c2.63,7.51 4.13,16.15 4.13,25.91c0,8.63 -1.87,16.9 -5.25,24.78c-3.38,7.51 -8.63,14.27 -15.77,19.91c-7.14,5.63 -15.78,9.76 -26.66,13.14c-10.89,3 -23.65,4.88 -37.92,4.88c-16.15,0 -31.17,-1.5 -44.31,-4.88c-13.14,-3.38 -24.77,-8.63 -34.16,-15.77c-9.39,-7.14 -16.9,-16.52 -22.16,-28.16c-5.25,-11.64 -9.38,-28.54 -9.38,-45.43h-111.51c0,20.65 3,42.43 9.01,59.33c6.01,16.9 13.89,31.91 24.4,45.43c10.52,13.14 22.53,24.79 36.79,34.55c13.9,9.76 29.3,18.02 45.81,24.4c16.52,6.38 33.79,11.26 51.81,14.64c18.02,3 36.04,4.88 54.07,4.88c30.03,0 57.45,-3.38 81.85,-10.52c24.4,-7.14 45.43,-16.9 62.7,-29.66c17.27,-12.77 30.79,-28.91 40.18,-47.68c9.39,-18.77 14.26,-40.17 14.26,-64.2c0,-22.53 -3.76,-42.81 -11.64,-60.46c-1.87,-4.13 -4.13,-8.63 -6.38,-12.39h145.31zM338.91,399.36h173.09c-24.03,-8.26 -38.68,-16.9 -52.94,-26.29c-18.4,-12.39 -27.78,-27.4 -27.78,-45.43c0,-8.63 1.87,-16.9 5.63,-24.78c3.76,-7.88 9.38,-14.64 16.52,-20.65c7.14,-5.63 16.15,-10.14 27.03,-13.52c10.89,-3.38 24.03,-4.88 38.68,-4.88c15.02,0 28.53,2.25 39.79,6.01c11.26,4.13 20.65,9.38 28.16,16.52c7.51,7.14 13.15,15.4 16.53,25.54c3.76,9.76 5.63,20.27 5.63,31.91h113.01c0,-24.78 -4.88,-47.3 -14.26,-67.95c-9.39,-20.65 -22.91,-38.68 -40.55,-53.7c-17.27,-15.02 -38.68,-27.02 -63.46,-35.29c-25.16,-8.63 -52.56,-12.77 -82.98,-12.77c-29.66,0 -57.07,3.75 -81.85,10.89c-24.4,7.51 -45.81,18.03 -63.84,31.17c-18.02,13.52 -31.92,29.66 -41.68,48.44c-10.14,19.15 -15.01,39.79 -15.01,62.7c0,24.03 4.88,44.68 14.64,62.7c1.5,3 3.76,6.39 5.63,9.39z" fill="currentColor"/>
		</g>
	</g>
</svg>