<svg version="1.1" xmlns="http://www.w3.org/2000/svg" xmlns:xlink="http://www.w3.org/1999/xlink" viewBox="0,0,1024,1024">
	<!-- Color names: teamapps-color-1 -->
	<desc>surround_sound icon - Licensed under Apache License v2.0 (http://www.apache.org/licenses/LICENSE-2.0) - Created with Iconfu.com - Derivative work of Material icons (Copyright Google Inc.)</desc>
	<g fill="none" fill-rule="nonzero" style="mix-blend-mode: normal">
		<g color="#039be5" class="teamapps-color-1">
			<path d="M948.91,286.72v450.56c0,75.24 -61.32,136.53 -136.54,136.53h-600.74c-75.22,0 -136.54,-61.29 -136.54,-136.53v-450.56c0,-75.24 61.32,-136.53 136.54,-136.53h600.74c75.22,0 136.54,61.29 136.54,136.53zM812.37,211.63h-600.74c-41.3,0 -75.1,33.79 -75.1,75.09v450.56c0,41.3 33.8,75.09 75.1,75.09h600.74c41.3,0 75.1,-33.79 75.1,-75.09v-450.56c0,-41.3 -33.8,-75.09 -75.1,-75.09zM512,662.19c-82.98,0 -150.19,-67.21 -150.19,-150.19c0,-82.98 67.21,-150.19 150.19,-150.19c82.98,0 150.19,67.21 150.19,150.19c0,82.98 -67.21,150.19 -150.19,150.19zM724.51,724.51l-52.94,-52.94c43.55,-44.31 65.71,-101.75 65.71,-159.57c0,-57.82 -22.15,-115.27 -66.08,-159.2l52.94,-52.94c58.95,58.19 88.23,135.17 88.23,212.14c0,76.97 -29.29,153.94 -87.86,212.51zM352.8,671.2l-52.94,52.94c-58.95,-58.19 -88.23,-135.17 -88.23,-212.14c0,-76.97 29.29,-153.94 87.86,-212.51l52.94,52.94c-43.55,44.31 -65.71,101.75 -65.71,159.57c0,57.82 22.15,115.27 66.08,159.2zM512,436.91c-41.3,0 -75.09,33.79 -75.09,75.09c0,41.3 33.79,75.09 75.09,75.09c41.3,0 75.09,-33.79 75.09,-75.09c0,-41.3 -33.79,-75.09 -75.09,-75.09z" fill="currentColor"/>
		</g>
	</g>
</svg>