<svg version="1.1" xmlns="http://www.w3.org/2000/svg" xmlns:xlink="http://www.w3.org/1999/xlink" viewBox="0,0,1024,1024">
	<!-- Color names: teamapps-color-1 -->
	<desc>swap_calls icon - Licensed under Apache License v2.0 (http://www.apache.org/licenses/LICENSE-2.0) - Created with Iconfu.com - Derivative work of Material icons (Copyright Google Inc.)</desc>
	<g fill="none" fill-rule="nonzero" style="mix-blend-mode: normal">
		<g color="#039be5" class="teamapps-color-1">
			<path d="M887.47,423.25h-51.2v201.39c0,116.91 -94.72,211.63 -211.63,211.63c-84.52,0 -157.44,-49.51 -191.36,-121.11l-103.12,103.12c-23.99,23.99 -62.9,23.99 -86.89,0l-150.19,-150.19c-17.57,-17.57 -22.83,-44 -13.32,-66.96c9.51,-22.96 31.91,-37.93 56.76,-37.93h51.2v-201.39c0,-116.91 94.73,-211.62 211.63,-211.62c84.52,0 157.44,49.5 191.36,121.1l103.12,-103.11c23.99,-23.99 62.89,-23.99 86.89,0l150.19,150.18c17.57,17.57 22.83,44 13.32,66.96c-9.51,22.96 -31.91,37.93 -56.76,37.93zM413.01,361.81c0,-7.37 -6.28,-13.65 -13.65,-13.65c-7.37,0 -13.65,6.28 -13.65,13.65v201.39h27.3zM610.99,624.64c0,7.37 6.28,13.65 13.65,13.65c7.37,0 13.65,-6.28 13.65,-13.65v-201.39h-27.3zM737.28,211.63l-150.19,150.18h112.64v262.83c0,41.3 -33.79,75.09 -75.09,75.09c-41.3,0 -75.09,-33.79 -75.09,-75.09v-262.83c0,-82.98 -67.21,-150.18 -150.19,-150.18c-82.98,0 -150.19,67.21 -150.19,150.18v262.83h-112.64l150.19,150.19l150.19,-150.19h-112.64v-262.83c0,-41.3 33.79,-75.09 75.09,-75.09c41.3,0 75.09,33.79 75.09,75.09v262.83c0,82.98 67.21,150.19 150.19,150.19c82.98,0 150.19,-67.21 150.19,-150.19v-262.83h112.64z" fill="currentColor"/>
		</g>
	</g>
</svg>