<svg version="1.1" xmlns="http://www.w3.org/2000/svg" xmlns:xlink="http://www.w3.org/1999/xlink" viewBox="0,0,1024,1024">
	<!-- Color names: teamapps-color-1 -->
	<desc>system_update_alt icon - Licensed under Apache License v2.0 (http://www.apache.org/licenses/LICENSE-2.0) - Created with Iconfu.com - Derivative work of Material icons (Copyright Google Inc.)</desc>
	<g fill="none" fill-rule="nonzero" style="mix-blend-mode: normal">
		<g color="#039be5" class="teamapps-color-1">
			<path d="M986.45,267.95v525.65c0,75.23 -61.3,136.53 -136.53,136.53h-675.84c-75.23,0 -136.53,-61.3 -136.53,-136.53v-525.65c0,-75.22 61.29,-136.54 136.53,-136.54h225.28c14.14,0 27.16,4.78 37.55,12.8c10.38,-8.03 23.41,-12.8 37.55,-12.8h75.1c14.14,0 27.16,4.78 37.55,12.8c10.38,-8.03 23.41,-12.8 37.55,-12.8h225.28c75.24,0 136.53,61.32 136.53,136.54zM399.36,329.01h-163.84v403.9h243.65c-3.77,-2.38 -7.33,-5.22 -10.61,-8.5l-150.19,-150.19c-17.57,-17.57 -22.83,-44 -13.32,-66.96c9.51,-22.96 31.91,-37.93 56.76,-37.93h51.2v-141.84c-4.39,1 -8.96,1.52 -13.65,1.52zM788.48,732.91v-403.9h-163.84c-4.69,0 -9.26,-0.53 -13.65,-1.52v141.84h51.2c24.85,0 47.25,14.97 56.76,37.93c9.51,22.96 4.25,49.38 -13.32,66.96l-150.19,150.19c-3.28,3.28 -6.85,6.12 -10.61,8.5zM849.92,192.85h-225.28v74.72h225.28v526.78h-675.84v-526.78h225.28v-74.72h-225.28c-41.3,0 -75.09,33.8 -75.09,75.1v525.65c0,41.3 33.79,75.09 75.09,75.09h675.84c41.3,0 75.09,-33.79 75.09,-75.09v-525.65c0,-41.3 -33.79,-75.1 -75.09,-75.1zM512,680.96l150.19,-150.19h-112.64v-337.92h-75.1v337.92h-112.64z" fill="currentColor"/>
		</g>
	</g>
</svg>