<svg version="1.1" xmlns="http://www.w3.org/2000/svg" xmlns:xlink="http://www.w3.org/1999/xlink" viewBox="0,0,1024,1024">
	<!-- Color names: teamapps-color-1 -->
	<desc>thumb_up icon - Licensed under Apache License v2.0 (http://www.apache.org/licenses/LICENSE-2.0) - Created with Iconfu.com - Derivative work of Material icons (Copyright Google Inc.)</desc>
	<g fill="none" fill-rule="nonzero" style="mix-blend-mode: normal">
		<g color="#039be5" class="teamapps-color-1">
			<path d="M976.97,561.81l-114.02,266.26c-20.68,49.26 -69.3,83.29 -125.67,83.29h-337.92c-36.21,0 -69.19,-14.2 -93.66,-37.32c-9.38,21.94 -31.15,37.32 -56.52,37.32h-150.18c-33.93,0 -61.44,-27.51 -61.44,-61.44v-450.56c0,-33.93 27.51,-61.44 61.44,-61.44h150.18c9.13,0 17.8,1.99 25.6,5.57c6.85,-15.21 16.48,-29.03 28.44,-40.75l246.79,-247.16c23.91,-23.95 62.68,-24.05 86.72,-0.23l39.82,39.45c0.06,0.06 0.12,0.12 0.18,0.18c21.13,21.13 34.52,50.82 34.52,83.24l-1.38,17.61c-0.18,2.02 -0.48,4.03 -0.9,6.02l-20.46,98.53h161.41c75.24,0 136.53,61.32 136.53,136.54l0,74.97c0,17.97 -3.51,34.68 -9.48,49.92zM925.01,436.91c0,-41.3 -33.79,-75.1 -75.09,-75.1h-236.92l35.68,-171.58l1.13,-12.02c0,-15.39 -6.39,-29.66 -16.53,-39.79l-39.79,-39.42l-247.06,247.43c-13.9,13.52 -22.15,32.29 -22.15,52.94v375.47c0,41.3 33.79,75.09 75.09,75.09h337.92c31.16,0 57.82,-18.77 69.09,-45.8l113.39,-264.7c3.38,-8.63 5.25,-17.65 5.25,-27.41v-71.71l-0.37,-0.38zM98.99,849.92h150.18v-450.56h-150.18z" fill="currentColor"/>
		</g>
	</g>
</svg>