<svg version="1.1" xmlns="http://www.w3.org/2000/svg" xmlns:xlink="http://www.w3.org/1999/xlink" viewBox="0,0,1024,1024">
	<!-- Color names: teamapps-color-1 -->
	<desc>thumbs_up_down icon - Licensed under Apache License v2.0 (http://www.apache.org/licenses/LICENSE-2.0) - Created with Iconfu.com - Derivative work of Material icons (Copyright Google Inc.)</desc>
	<g fill="none" fill-rule="nonzero" style="mix-blend-mode: normal">
		<g color="#039be5" class="teamapps-color-1">
			<path d="M1024,493.23v244.05c0,32.38 -13.35,62.09 -34.51,83.25l-185.49,185.48c-23.89,23.89 -62.58,24.01 -86.61,0.27l-29.83,-29.47c-0.39,-0.39 -0.77,-0.78 -1.15,-1.17c-16.97,-17.83 -29.33,-43.05 -29.33,-72.4l0.95,-13.94c0.18,-2.2 0.49,-4.4 0.94,-6.56l9.62,-46.46h-119.02c-54.59,0 -98.99,-44.4 -98.99,-98.99v-46.93c0,-15.51 3.2,-30.59 8.77,-44.08l85.16,-199.34c0.04,-0.09 0.08,-0.18 0.12,-0.28c17.83,-41.1 59.1,-71.19 108.2,-71.19h253.44c65.09,0 117.76,52.67 117.76,117.76zM573.44,333.65c0,15.51 -3.2,30.59 -8.77,44.08l-85.16,199.34c-0.04,0.09 -0.08,0.18 -0.12,0.28c-17.83,41.1 -59.1,71.19 -108.2,71.19h-253.44c-65.09,0 -117.76,-52.67 -117.76,-117.76v-244.05c0,-32.38 13.35,-62.09 34.51,-83.25l185.49,-185.48c24,-24 62.9,-23.99 86.89,0.01l29.79,29.81c0.31,0.31 0.61,0.62 0.91,0.93c16.97,17.83 29.33,43.05 29.33,72.4l-0.96,13.77c-0.18,2.15 -0.49,4.28 -0.92,6.39l-9.61,46.43h119.02c54.59,0 98.99,44.4 98.99,98.99zM906.24,436.91h-253.44c-23.28,0 -43.18,14.26 -51.81,34.16l-84.86,198.62c-2.63,6.38 -4.13,13.52 -4.13,20.65v46.93c0,20.65 16.9,37.55 37.55,37.55h194.49l-24.78,119.4l-0.75,9.01c0,11.64 4.88,22.15 12.39,30.03l29.66,29.29l185.49,-185.48c10.14,-10.14 16.52,-24.41 16.52,-39.8v-244.05c0,-31.16 -25.16,-56.32 -56.32,-56.32zM512,286.72c0,-20.65 -16.9,-37.55 -37.55,-37.55h-194.49l24.78,-119.4l0.75,-8.63c0,-11.64 -4.88,-22.15 -12.39,-30.03l-29.66,-29.66l-185.49,185.48c-10.14,10.14 -16.52,24.41 -16.52,39.8v244.05c0,31.16 25.16,56.32 56.32,56.32h253.44c23.28,0 43.18,-14.26 51.81,-34.16l84.86,-198.62c2.63,-6.38 4.13,-13.52 4.13,-20.65z" fill="currentColor"/>
		</g>
	</g>
</svg>