<svg version="1.1" xmlns="http://www.w3.org/2000/svg" xmlns:xlink="http://www.w3.org/1999/xlink" viewBox="0,0,1024,1024">
	<!-- Color names: teamapps-color-1 -->
	<desc>timeline icon - Licensed under Apache License v2.0 (http://www.apache.org/licenses/LICENSE-2.0) - Created with Iconfu.com - Derivative work of Material icons (Copyright Google Inc.)</desc>
	<g fill="none" fill-rule="nonzero" style="mix-blend-mode: normal">
		<g color="#039be5" class="teamapps-color-1">
			<path d="M986.45,361.81c0,74 -59.31,134.54 -132.87,136.49l-92.45,92.2c-1.82,73.66 -62.39,133.13 -136.49,133.13c-74.12,0 -134.7,-59.51 -136.49,-133.19l-51.22,-51.22l-126.37,126.65c-1.96,73.54 -62.48,132.85 -136.48,132.85c-75.23,0 -136.53,-61.3 -136.53,-136.53c0,-73.99 59.31,-134.53 132.86,-136.49l130,-129.72c1.8,-73.69 62.41,-133.15 136.5,-133.15c74.12,0 134.71,59.5 136.49,133.2l51.21,51.21l88.83,-89.09c1.95,-73.55 62.48,-132.86 136.48,-132.86c75.23,0 136.53,61.3 136.53,136.53zM849.92,286.72c-41.3,0 -75.09,33.79 -75.09,75.09c0,6.76 0.75,13.14 2.62,19.15l-133.28,133.67c-6.01,-1.87 -12.77,-2.63 -19.53,-2.63c-6.76,0 -13.52,0.76 -19.53,2.63l-95.74,-95.74c1.87,-6.01 2.63,-12.77 2.63,-19.53c0,-41.3 -33.79,-75.09 -75.09,-75.09c-41.3,0 -75.1,33.79 -75.1,75.09c0,6.76 0.76,13.52 2.63,19.53l-171.21,170.83c-6.01,-1.87 -12.39,-2.63 -19.15,-2.63c-41.3,0 -75.09,33.8 -75.09,75.1c0,41.3 33.79,75.09 75.09,75.09c41.3,0 75.09,-33.79 75.09,-75.09c0,-6.76 -0.75,-13.14 -2.62,-19.15l170.83,-171.21c6.01,1.87 12.77,2.62 19.53,2.62c6.76,0 13.51,-0.75 19.52,-2.62l95.74,95.74c-1.87,6.01 -2.62,12.76 -2.62,19.52c0,41.3 33.79,75.1 75.09,75.1c41.3,0 75.09,-33.8 75.09,-75.1c0,-6.76 -0.75,-13.51 -2.62,-19.52l133.66,-133.29c6.01,1.87 12.39,2.63 19.15,2.63c41.3,0 75.09,-33.8 75.09,-75.1c0,-41.3 -33.79,-75.09 -75.09,-75.09z" fill="currentColor"/>
		</g>
	</g>
</svg>