<svg version="1.1" xmlns="http://www.w3.org/2000/svg" xmlns:xlink="http://www.w3.org/1999/xlink" viewBox="0,0,1024,1024">
	<!-- Color names: teamapps-color-1 -->
	<desc>toll icon - Licensed under Apache License v2.0 (http://www.apache.org/licenses/LICENSE-2.0) - Created with Iconfu.com - Derivative work of Material icons (Copyright Google Inc.)</desc>
	<g fill="none" fill-rule="nonzero" style="mix-blend-mode: normal">
		<g color="#039be5" class="teamapps-color-1">
			<path d="M986.45,512c0,199.89 -161.92,361.81 -361.81,361.81c-91.59,0 -175.21,-33.99 -238.93,-90.06v18.86c0,19 -8.79,36.93 -23.81,48.57c-15.02,11.64 -34.58,15.67 -52.98,10.92c-155.88,-40.21 -271.37,-181.23 -271.37,-350.1c0,-168.88 115.49,-309.89 271.37,-350.1c18.4,-4.75 37.96,-0.71 52.98,10.92c15.02,11.64 23.81,29.57 23.81,48.57v18.86c63.72,-56.07 147.34,-90.06 238.93,-90.06c199.89,0 361.81,161.92 361.81,361.81zM262.83,512c0,-39.42 6.3,-77.36 17.94,-112.87c-28.05,29.36 -45.25,69.14 -45.25,112.87c0,43.73 17.2,83.51 45.25,112.87c-11.64,-35.51 -17.94,-73.45 -17.94,-112.87zM788.48,512c0,-90.35 -73.49,-163.84 -163.84,-163.84c-90.35,0 -163.84,73.49 -163.84,163.84c0,90.35 73.49,163.84 163.84,163.84c90.35,0 163.84,-73.49 163.84,-163.84zM624.64,211.63c-165.96,0 -300.37,134.41 -300.37,300.37c0,165.96 134.41,300.37 300.37,300.37c165.96,0 300.37,-134.41 300.37,-300.37c0,-165.96 -134.41,-300.37 -300.37,-300.37zM624.64,737.28c-124.28,0 -225.28,-101 -225.28,-225.28c0,-124.28 101,-225.28 225.28,-225.28c124.28,0 225.28,101 225.28,225.28c0,124.28 -101,225.28 -225.28,225.28zM174.08,512c0,-98 62.71,-181.35 150.19,-212.14v-78.47c-129.54,33.41 -225.28,150.56 -225.28,290.61c0,140.05 95.74,257.2 225.28,290.61v-78.47c-87.48,-30.79 -150.19,-114.14 -150.19,-212.14z" fill="currentColor"/>
		</g>
	</g>
</svg>