<svg version="1.1" xmlns="http://www.w3.org/2000/svg" xmlns:xlink="http://www.w3.org/1999/xlink" viewBox="0,0,1024,1024">
	<!-- Color names: teamapps-color-1 -->
	<desc>traffic icon - Licensed under Apache License v2.0 (http://www.apache.org/licenses/LICENSE-2.0) - Created with Iconfu.com - Derivative work of Material icons (Copyright Google Inc.)</desc>
	<g fill="none" fill-rule="nonzero" style="mix-blend-mode: normal">
		<g color="#039be5" class="teamapps-color-1">
			<path d="M873.81,624.64c0,81.39 -46.05,151.1 -112.64,186.46v1.27c0,54.57 -44.38,98.99 -98.98,98.99h-300.38c-54.61,0 -98.98,-44.42 -98.98,-98.99v-1.27c-66.59,-35.36 -112.64,-105.06 -112.64,-186.46c0,-27.9 18.59,-51.45 44.06,-58.95c-27.55,-35.49 -44.06,-80.04 -44.06,-128.78c0,-27.9 18.59,-51.45 44.07,-58.95c-27.55,-35.5 -44.07,-80.05 -44.07,-128.79c0,-33.93 27.51,-61.44 61.44,-61.44h54.12c10.71,-43.07 49.7,-75.09 96.06,-75.09h300.38c46.36,0 85.35,32.02 96.06,75.09h54.12c33.93,0 61.44,27.51 61.44,61.44c0,48.74 -16.51,93.29 -44.07,128.79c25.47,7.5 44.07,31.05 44.07,58.95c0,48.74 -16.51,93.29 -44.06,128.78c25.47,7.5 44.06,31.05 44.06,58.95zM525.65,324.27c0,-7.56 -6.1,-13.66 -13.65,-13.66c-7.74,0 -13.65,5.91 -13.65,13.66c0,7.56 6.1,13.65 13.65,13.65c7.55,0 13.65,-6.09 13.65,-13.65zM525.65,699.73c0,-7.37 -6.28,-13.65 -13.65,-13.65c-7.55,0 -13.65,6.09 -13.65,13.65c0,7.57 6.11,13.66 13.65,13.66c7.54,0 13.65,-6.09 13.65,-13.66zM525.65,512c0,-7.37 -6.28,-13.65 -13.65,-13.65c-7.55,0 -13.65,6.09 -13.65,13.65c0,7.56 6.1,13.65 13.65,13.65c7.55,0 13.65,-6.09 13.65,-13.65zM812.37,436.91h-112.64v-42.8c64.58,-16.9 112.64,-75.1 112.64,-144.94h-112.64v-37.54c0,-20.65 -16.89,-37.55 -37.54,-37.55h-300.38c-20.65,0 -37.54,16.9 -37.54,37.55v37.54h-112.64c0,69.84 48.06,128.04 112.64,144.94v42.8h-112.64c0,69.84 48.06,128.03 112.64,144.93v42.8h-112.64c0,69.84 48.06,128.03 112.64,144.93v42.8c0,20.65 16.89,37.55 37.54,37.55h300.38c20.65,0 37.54,-16.9 37.54,-37.55v-42.8c64.58,-16.9 112.64,-75.09 112.64,-144.93h-112.64v-42.8c64.58,-16.9 112.64,-75.09 112.64,-144.93zM512,399.36c-41.68,0 -75.09,-33.79 -75.09,-75.09c0,-41.68 33.41,-75.1 75.09,-75.1c41.3,0 75.09,33.42 75.09,75.1c0,41.3 -33.41,75.09 -75.09,75.09zM512,774.83c-41.68,0 -75.09,-33.8 -75.09,-75.1c0,-41.3 33.41,-75.09 75.09,-75.09c41.3,0 75.09,33.79 75.09,75.09c0,41.3 -33.41,75.1 -75.09,75.1zM512,587.09c-41.68,0 -75.09,-33.79 -75.09,-75.09c0,-41.3 33.41,-75.09 75.09,-75.09c41.3,0 75.09,33.79 75.09,75.09c0,41.3 -33.41,75.09 -75.09,75.09z" fill="currentColor"/>
		</g>
	</g>
</svg>