<svg version="1.1" xmlns="http://www.w3.org/2000/svg" xmlns:xlink="http://www.w3.org/1999/xlink" viewBox="0,0,1024,1024">
	<!-- Color names: teamapps-color-1 -->
	<desc>trending_down icon - Licensed under Apache License v2.0 (http://www.apache.org/licenses/LICENSE-2.0) - Created with Iconfu.com - Derivative work of Material icons (Copyright Google Inc.)</desc>
	<g fill="none" fill-rule="nonzero" style="mix-blend-mode: normal">
		<g color="#039be5" class="teamapps-color-1">
			<path d="M618.74,693.84l42.54,-42.54l-96.34,-96.34l-106.74,106.74c-24.01,24.01 -62.93,23.99 -86.92,-0.03l-278.22,-278.6c-23.97,-24 -23.95,-62.88 0.03,-86.86l52.94,-52.94c23.99,-23.99 62.9,-23.99 86.89,0l181.84,181.84l106.74,-106.74c23.98,-23.98 62.86,-24 86.86,-0.03l193.1,192.8l42.57,-42.57c17.57,-17.57 44,-22.83 66.96,-13.32c22.96,9.51 37.93,31.91 37.93,56.76v225.28c0,33.93 -27.51,61.44 -61.44,61.44h-225.28c-24.85,0 -47.25,-14.97 -56.76,-37.93c-9.51,-22.96 -4.25,-49.38 13.32,-66.96zM887.47,737.28v-225.28l-85.98,85.98l-236.54,-236.17l-150.19,150.19l-225.28,-225.28l-52.94,52.94l278.22,278.6l150.19,-150.19l183.22,183.22l-85.98,85.98z" fill="currentColor"/>
		</g>
	</g>
</svg>