<svg version="1.1" xmlns="http://www.w3.org/2000/svg" xmlns:xlink="http://www.w3.org/1999/xlink" viewBox="0,0,1024,1024">
	<!-- Color names: teamapps-color-1 -->
	<desc>usb icon - Licensed under Apache License v2.0 (http://www.apache.org/licenses/LICENSE-2.0) - Created with Iconfu.com - Derivative work of Material icons (Copyright Google Inc.)</desc>
	<g fill="none" fill-rule="nonzero" style="mix-blend-mode: normal">
		<g color="#039be5" class="teamapps-color-1">
			<path d="M836.27,324.27v150.18c0,25.46 -15.48,47.3 -37.55,56.62v18.48c0,75.61 -60.92,136.53 -136.53,136.53h-51.2v22.14c27.39,25.92 45.06,62.63 45.06,104.15c0,79.92 -64.86,144.05 -144.05,144.05c-79.18,0 -144.05,-64.13 -144.05,-144.05c0,-41.51 17.66,-78.22 45.06,-104.15v-22.14h-51.2c-75.61,0 -136.53,-60.92 -136.53,-136.53v-46.82c-26.87,-25.34 -45.06,-61.35 -45.06,-103.37c0,-79.37 64.68,-144.05 144.05,-144.05c4.73,0 9.41,0.23 14.03,0.68c-1.71,-15.29 2.36,-30.96 11.91,-43.69l112.64,-150.18c11.6,-15.47 29.81,-24.58 49.15,-24.58c19.34,0 37.55,9.1 49.15,24.58l112.64,150.18c10.98,14.64 14.71,33.16 10.75,50.52h90.29c33.93,0 61.44,27.51 61.44,61.44zM624.64,324.27v150.18h37.55v75.1h-112.64v-300.38h75.09l-112.64,-150.18l-112.64,150.18h75.09v300.38h-112.64v-77.72c26.29,-13.9 45.06,-40.55 45.06,-72.47c0,-45.43 -37.16,-82.61 -82.6,-82.61c-45.43,0 -82.61,37.17 -82.61,82.61c0,31.92 18.77,58.57 45.06,72.47v77.72c0,41.68 33.41,75.09 75.09,75.09h112.64v114.51c-26.66,13.9 -45.06,41.3 -45.06,73.22c0,45.8 37.17,82.61 82.61,82.61c45.43,0 82.61,-36.8 82.61,-82.61c0,-31.92 -18.4,-59.32 -45.06,-73.22v-114.51h112.64c41.68,0 75.09,-33.41 75.09,-75.09v-75.1h37.55v-150.18z" fill="currentColor"/>
		</g>
	</g>
</svg>