<svg version="1.1" xmlns="http://www.w3.org/2000/svg" xmlns:xlink="http://www.w3.org/1999/xlink" viewBox="0,0,1024,1024">
	<!-- Color names: teamapps-color-1 -->
	<desc>verified_user icon - Licensed under Apache License v2.0 (http://www.apache.org/licenses/LICENSE-2.0) - Created with Iconfu.com - Derivative work of Material icons (Copyright Google Inc.)</desc>
	<g fill="none" fill-rule="nonzero" style="mix-blend-mode: normal">
		<g color="#039be5" class="teamapps-color-1">
			<path d="M911.36,249.17v225.28c0,234.15 -161.13,455.63 -384.79,510.25c-9.58,2.34 -19.57,2.34 -29.15,0c-223.66,-54.61 -384.79,-276.1 -384.79,-510.25v-225.28c0,-24.28 14.3,-46.28 36.49,-56.14l337.92,-150.18c15.89,-7.06 34.02,-7.06 49.9,0l337.92,150.18c22.19,9.86 36.49,31.86 36.49,56.14zM512,98.99l-337.92,150.18v225.28c0,208.38 144.18,403.25 337.92,450.56c193.74,-47.31 337.92,-242.18 337.92,-450.56v-225.28zM436.91,699.73l-150.19,-150.18l52.94,-52.94l97.25,96.87l247.43,-247.44l52.94,53.32z" fill="currentColor"/>
		</g>
	</g>
</svg>