<svg version="1.1" xmlns="http://www.w3.org/2000/svg" xmlns:xlink="http://www.w3.org/1999/xlink" viewBox="0,0,1024,1024">
	<!-- Color names: teamapps-color-1 -->
	<desc>vertical_align_center icon - Licensed under Apache License v2.0 (http://www.apache.org/licenses/LICENSE-2.0) - Created with Iconfu.com - Derivative work of Material icons (Copyright Google Inc.)</desc>
	<g fill="none" fill-rule="nonzero" style="mix-blend-mode: normal">
		<g color="#039be5" class="teamapps-color-1">
			<path d="M318.37,292.62c-17.57,-17.57 -22.83,-44 -13.32,-66.96c9.51,-22.96 31.91,-37.93 56.76,-37.93h51.2v-88.74c0,-33.93 27.51,-61.44 61.44,-61.44h75.1c33.93,0 61.44,27.51 61.44,61.44v88.74h51.2c24.85,0 47.25,14.97 56.76,37.93c9.51,22.96 4.25,49.38 -13.32,66.96l-120.4,120.4h227.13c33.93,0 61.44,27.51 61.44,61.44v75.1c0,33.93 -27.51,61.44 -61.44,61.44h-227.13l120.4,120.4c17.57,17.57 22.83,44 13.32,66.96c-9.51,22.96 -31.91,37.93 -56.76,37.93h-51.2v88.74c0,33.93 -27.51,61.44 -61.44,61.44h-75.1c-33.93,0 -61.44,-27.51 -61.44,-61.44v-88.74h-51.2c-24.85,0 -47.25,-14.97 -56.76,-37.93c-9.51,-22.96 -4.25,-49.38 13.32,-66.96l120.4,-120.4h-227.13c-33.93,0 -61.44,-27.51 -61.44,-61.44v-75.1c0,-33.93 27.51,-61.44 61.44,-61.44h227.13zM662.19,249.17h-112.64v-150.18h-75.1v150.18h-112.64l150.19,150.19zM361.81,774.83h112.64v150.18h75.1v-150.18h112.64l-150.19,-150.19zM211.63,474.45v75.1h600.74v-75.1z" fill="currentColor"/>
		</g>
	</g>
</svg>