<svg version="1.1" xmlns="http://www.w3.org/2000/svg" xmlns:xlink="http://www.w3.org/1999/xlink" viewBox="0,0,1024,1024">
	<!-- Color names: teamapps-color-1 -->
	<desc>wc icon - Licensed under Apache License v2.0 (http://www.apache.org/licenses/LICENSE-2.0) - Created with Iconfu.com - Derivative work of Material icons (Copyright Google Inc.)</desc>
	<g fill="none" fill-rule="nonzero" style="mix-blend-mode: normal">
		<g color="#039be5" class="teamapps-color-1">
			<path d="M563.2,887.47v-163.84h-51.2c-11.62,0 -22.82,-3.29 -32.43,-9.26v173.1c0,33.93 -27.51,61.44 -61.44,61.44h-150.18c-33.93,0 -61.44,-27.51 -61.44,-61.44v-220.37c-31.54,-2.6 -56.32,-29.02 -56.32,-61.23v-206.51c0,-52.54 29.9,-98.29 73.56,-121.1c-10.99,-19.69 -17.24,-42.41 -17.24,-66.63c0,-75.6 60.91,-136.54 136.53,-136.54c75.62,0 136.53,60.94 136.53,136.54c0,24.22 -6.25,46.94 -17.24,66.63c42.73,22.33 72.28,66.62 73.52,117.76l13.19,-39.63c6.61,-20.03 17.55,-37.66 31.53,-52.06c-22.45,-24.32 -36.14,-56.86 -36.14,-92.7c0,-75.6 60.91,-136.54 136.53,-136.54c75.62,0 136.53,60.94 136.53,136.54c0,35.89 -13.73,68.47 -36.23,92.79c13.86,14.32 24.73,31.77 31.44,51.42l95.52,286.94c6.24,18.73 3.09,39.32 -8.46,55.34c-11.55,16.02 -30.09,25.51 -49.84,25.51h-51.2v163.84c0,33.93 -27.51,61.44 -61.44,61.44h-112.64c-33.93,0 -61.44,-27.51 -61.44,-61.44zM737.28,887.47v-225.28h112.64l-95.37,-286.48c-10.52,-30.79 -39.05,-51.44 -71.34,-51.44h-4.51c-32.29,0 -61.2,20.64 -71.34,51.44l-95.37,286.48h112.64v225.28zM418.13,887.47v-281.6h56.32v-206.51c0,-41.3 -33.79,-75.09 -75.09,-75.09h-112.64c-41.3,0 -75.09,33.79 -75.09,75.09v206.51h56.32v281.6zM343.04,286.72c41.68,0 75.09,-33.41 75.09,-75.09c0,-41.68 -33.41,-75.1 -75.09,-75.1c-41.68,0 -75.09,33.42 -75.09,75.1c0,41.68 33.41,75.09 75.09,75.09zM680.96,286.72c41.68,0 75.09,-33.41 75.09,-75.09c0,-41.68 -33.41,-75.1 -75.09,-75.1c-41.68,0 -75.09,33.42 -75.09,75.1c0,41.68 33.41,75.09 75.09,75.09z" fill="currentColor"/>
		</g>
	</g>
</svg>