<svg version="1.1" xmlns="http://www.w3.org/2000/svg" xmlns:xlink="http://www.w3.org/1999/xlink" viewBox="0,0,1024,1024">
	<!-- Color names: teamapps-color-1 -->
	<desc>whatshot icon - Licensed under Apache License v2.0 (http://www.apache.org/licenses/LICENSE-2.0) - Created with Iconfu.com - Derivative work of Material icons (Copyright Google Inc.)</desc>
	<g fill="none" fill-rule="nonzero" style="mix-blend-mode: normal">
		<g color="#039be5" class="teamapps-color-1">
			<path d="M873.81,587.09c0,199.89 -161.92,361.82 -361.81,361.82c-199.89,0 -361.81,-161.93 -361.81,-361.82c0,-141.78 50.79,-272.47 135.71,-373.35c17.23,-20.47 45.72,-27.43 70.44,-17.23c24.73,10.21 40.01,35.24 37.79,61.9l-0.89,10.65c1.07,44.52 33.95,76.37 74.83,76.37c36.47,0 66.59,-27.81 66.59,-78.6c0,-70.53 -24.88,-161.4 -25.53,-163.74c-7.15,-25.68 3.07,-53.05 25.31,-67.75c22.25,-14.71 51.45,-13.38 72.27,3.29c160.17,128.22 267.09,325.94 267.09,548.46zM619.9,594.61c0,-12.88 -0.52,-25.67 -1.54,-38.33c-38.67,21.59 -81,35.7 -120.4,43.72c-42.88,8.79 -56.31,30.53 -56.31,56.94c0,29.93 25.07,56.46 59.46,56.46c65.57,0 118.78,-53.21 118.78,-118.78zM568.32,86.6c0,0 27.78,99.5 27.78,180.22c0,77.34 -50.69,140.04 -128.03,140.04c-77.72,0 -136.29,-62.7 -136.29,-140.04l1.13,-13.52c-75.85,90.11 -121.27,206.88 -121.27,333.78c0,165.96 134.41,300.38 300.37,300.38c165.96,0 300.37,-134.42 300.37,-300.38c0,-202.37 -97.24,-382.97 -244.05,-500.49zM501.11,774.83c-66.84,0 -120.9,-52.57 -120.9,-117.9c0,-60.83 39.42,-103.63 105.5,-117.15c66.46,-13.52 135.17,-45.43 173.47,-96.87c14.64,48.44 22.16,99.5 22.16,151.69c0,99.5 -80.72,180.22 -180.22,180.22z" fill="currentColor"/>
		</g>
	</g>
</svg>