<svg version="1.1" xmlns="http://www.w3.org/2000/svg" xmlns:xlink="http://www.w3.org/1999/xlink" viewBox="0,0,1024,1024">
	<!-- Color names: teamapps-color-1, teamapps-effect-color-1 -->
	<desc>account_balance icon - Licensed under Apache License v2.0 (http://www.apache.org/licenses/LICENSE-2.0) - Created with Iconfu.com - Derivative work of Material icons (Copyright Google Inc.)</desc>
	<defs>
		<clipPath id="clip-BydO9csQ">
			<path d="M60.37,26.97h940.56v997.03h-940.56z"/>
		</clipPath>
		<filter id="filter-MoQ92b5V" x="-8%" y="-8%" width="141%" height="134%" color-interpolation-filters="sRGB">
			<feColorMatrix values="1 0 0 0 0 0 1 0 0 0 0 0 1 0 0 0 0 0 0.17 0" in="SourceGraphic"/>
			<feOffset dx="14.14" dy="14.14"/>
			<feGaussianBlur stdDeviation="11" result="blur0"/>
			<feColorMatrix values="1 0 0 0 0 0 1 0 0 0 0 0 1 0 0 0 0 0 0.25 0" in="SourceGraphic"/>
			<feOffset dx="21.21" dy="21.21"/>
			<feGaussianBlur stdDeviation="20" result="blur1"/>
			<feMerge>
				<feMergeNode in="blur0"/>
				<feMergeNode in="blur1"/>
			</feMerge>
		</filter>
	</defs>
	<g fill="none" fill-rule="nonzero" style="mix-blend-mode: normal">
		<g clip-path="url(#clip-BydO9csQ)">
			<path d="M872.58,311.55v66.81c0,33.08 -26.82,59.9 -59.9,59.9h-7.3c0.26,2.27 0.4,4.58 0.4,6.92v233.85c0,2.34 -0.13,4.65 -0.4,6.92h7.3c33.08,0 59.9,26.82 59.9,59.9v100.22c0,33.08 -26.82,59.9 -59.9,59.9h-634.75c-33.08,0 -59.9,-26.82 -59.9,-59.9v-100.22c0,-33.08 26.82,-59.9 59.9,-59.9h7.31c-0.26,-2.27 -0.4,-4.58 -0.4,-6.92v-233.85c0,-2.34 0.13,-4.65 0.4,-6.92h-7.31c-33.08,0 -59.9,-26.82 -59.9,-59.9v-66.81c0,-22.24 12.32,-42.65 32,-53.01l317.38,-167.04c17.46,-9.19 38.34,-9.19 55.8,0l317.37,167.04c19.68,10.36 32,30.77 32,53.01z" fill="#000000" filter="url(#filter-MoQ92b5V)"/>
		</g>
		<g color="#ffffff" class="teamapps-effect-color-1">
			<path d="M872.58,311.55v66.81c0,33.08 -26.82,59.9 -59.9,59.9h-7.3c0.26,2.27 0.4,4.58 0.4,6.92v233.85c0,2.34 -0.13,4.65 -0.4,6.92h7.3c33.08,0 59.9,26.82 59.9,59.9v100.22c0,33.08 -26.82,59.9 -59.9,59.9h-634.75c-33.08,0 -59.9,-26.82 -59.9,-59.9v-100.22c0,-33.08 26.82,-59.9 59.9,-59.9h7.31c-0.26,-2.27 -0.4,-4.58 -0.4,-6.92v-233.85c0,-2.34 0.13,-4.65 0.4,-6.92h-7.31c-33.08,0 -59.9,-26.82 -59.9,-59.9v-66.81c0,-22.24 12.32,-42.65 32,-53.01l317.38,-167.04c17.46,-9.19 38.34,-9.19 55.8,0l317.37,167.04c19.68,10.36 32,30.77 32,53.01z" fill="currentColor"/>
		</g>
		<g>
			<g color="#1565c0" class="teamapps-color-1">
				<path d="M812.67,311.55v66.81h-634.75v-66.81l317.38,-167.04zM177.92,745.86h634.75v100.22h-634.75zM545.41,445.19v233.85h-100.22v-233.85zM745.86,445.19v233.85h-100.22v-233.85zM344.96,445.19v233.85h-100.22v-233.85z" fill="currentColor"/>
			</g>
		</g>
	</g>
</svg>