<svg version="1.1" xmlns="http://www.w3.org/2000/svg" xmlns:xlink="http://www.w3.org/1999/xlink" viewBox="0,0,1024,1024">
	<!-- Color names: teamapps-color-1, teamapps-effect-color-1 -->
	<desc>account_circle icon - Licensed under Apache License v2.0 (http://www.apache.org/licenses/LICENSE-2.0) - Created with Iconfu.com - Derivative work of Material icons (Copyright Google Inc.)</desc>
	<defs>
		<clipPath id="clip-LDeEORAN">
			<path d="M60.37,60.37h963.63v963.63h-963.63z"/>
		</clipPath>
		<filter id="filter-ERd8Lw4v" x="-8%" y="-8%" width="140%" height="140%" color-interpolation-filters="sRGB">
			<feColorMatrix values="1 0 0 0 0 0 1 0 0 0 0 0 1 0 0 0 0 0 0.17 0" in="SourceGraphic"/>
			<feOffset dx="14.14" dy="14.14"/>
			<feGaussianBlur stdDeviation="11" result="blur0"/>
			<feColorMatrix values="1 0 0 0 0 0 1 0 0 0 0 0 1 0 0 0 0 0 0.25 0" in="SourceGraphic"/>
			<feOffset dx="21.21" dy="21.21"/>
			<feGaussianBlur stdDeviation="20" result="blur1"/>
			<feMerge>
				<feMergeNode in="blur0"/>
				<feMergeNode in="blur1"/>
			</feMerge>
		</filter>
	</defs>
	<g fill="none" fill-rule="nonzero" style="mix-blend-mode: normal">
		<g clip-path="url(#clip-LDeEORAN)">
			<path d="M905.99,512c0,217.5 -176.49,393.99 -393.99,393.99c-217.5,0 -393.99,-176.49 -393.99,-393.99c0,-217.5 176.49,-393.99 393.99,-393.99c217.5,0 393.99,176.49 393.99,393.99z" fill="#000000" filter="url(#filter-ERd8Lw4v)"/>
		</g>
		<g color="#ffffff" class="teamapps-effect-color-1">
			<path d="M905.99,512c0,217.5 -176.49,393.99 -393.99,393.99c-217.5,0 -393.99,-176.49 -393.99,-393.99c0,-217.5 176.49,-393.99 393.99,-393.99c217.5,0 393.99,176.49 393.99,393.99z" fill="currentColor"/>
		</g>
		<g>
			<g color="#1565c0" class="teamapps-color-1">
				<path d="M846.08,512c0,184.41 -149.67,334.08 -334.08,334.08c-184.41,0 -334.08,-149.67 -334.08,-334.08c0,-184.41 149.67,-334.08 334.08,-334.08c184.41,0 334.08,149.67 334.08,334.08zM712.45,644.96c-1,-66.48 -133.96,-102.89 -200.45,-102.89c-66.81,0 -199.45,36.41 -200.45,102.89c43.1,64.81 116.93,107.58 200.45,107.58c83.52,0 157.35,-42.77 200.45,-107.58zM411.78,378.37c0,55.46 44.76,100.22 100.22,100.22c55.46,0 100.22,-44.76 100.22,-100.22c0,-55.46 -44.76,-100.22 -100.22,-100.22c-55.46,0 -100.22,44.76 -100.22,100.22z" fill="currentColor"/>
			</g>
		</g>
	</g>
</svg>