<svg version="1.1" xmlns="http://www.w3.org/2000/svg" xmlns:xlink="http://www.w3.org/1999/xlink" viewBox="0,0,1024,1024">
	<!-- Color names: teamapps-color-1, teamapps-effect-color-1 -->
	<desc>alarm_add icon - Licensed under Apache License v2.0 (http://www.apache.org/licenses/LICENSE-2.0) - Created with Iconfu.com - Derivative work of Material icons (Copyright Google Inc.)</desc>
	<defs>
		<clipPath id="clip-1mdR57lX">
			<path d="M60.37,55.69h963.63v968.31h-963.63z"/>
		</clipPath>
		<filter id="filter-mNuo34Hg" x="-8%" y="-8%" width="140%" height="139%" color-interpolation-filters="sRGB">
			<feColorMatrix values="1 0 0 0 0 0 1 0 0 0 0 0 1 0 0 0 0 0 0.17 0" in="SourceGraphic"/>
			<feOffset dx="14.14" dy="14.14"/>
			<feGaussianBlur stdDeviation="11" result="blur0"/>
			<feColorMatrix values="1 0 0 0 0 0 1 0 0 0 0 0 1 0 0 0 0 0 0.25 0" in="SourceGraphic"/>
			<feOffset dx="21.21" dy="21.21"/>
			<feGaussianBlur stdDeviation="20" result="blur1"/>
			<feMerge>
				<feMergeNode in="blur0"/>
				<feMergeNode in="blur1"/>
			</feMerge>
		</filter>
	</defs>
	<g fill="none" fill-rule="nonzero" style="mix-blend-mode: normal">
		<g clip-path="url(#clip-1mdR57lX)">
			<path d="M872.58,545.41c0,199.12 -161.46,360.58 -360.58,360.58c-199.5,0 -360.58,-161.5 -360.58,-360.58c0,-52.18 11.09,-101.78 31.04,-146.57c-2.58,-2.17 -5,-4.59 -7.25,-7.25l-43.1,-51.11c-21.38,-25.36 -18.09,-63.26 7.35,-84.55l153.68,-128.62c25.37,-21.24 63.16,-17.88 84.39,7.5l42.76,51.11c2.41,2.88 4.51,5.93 6.29,9.09c27.38,-6.65 55.98,-10.18 85.41,-10.18c29.32,0 57.82,3.5 85.11,10.11c1.81,-3.2 3.94,-6.28 6.4,-9.2l43.1,-51.11c21.29,-25.25 59,-28.51 84.3,-7.28l153.68,128.95c25.39,21.3 28.65,59.17 7.29,84.5l-43.1,51.11c-2.21,2.63 -4.61,5.01 -7.14,7.16c19.88,44.72 30.93,94.23 30.93,146.33z" fill="#000000" filter="url(#filter-mNuo34Hg)"/>
		</g>
		<g color="#ffffff" class="teamapps-effect-color-1">
			<path d="M872.58,545.41c0,199.12 -161.46,360.58 -360.58,360.58c-199.5,0 -360.58,-161.5 -360.58,-360.58c0,-52.18 11.09,-101.78 31.04,-146.57c-2.58,-2.17 -5,-4.59 -7.25,-7.25l-43.1,-51.11c-21.38,-25.36 -18.09,-63.26 7.35,-84.55l153.68,-128.62c25.37,-21.24 63.16,-17.88 84.39,7.5l42.76,51.11c2.41,2.88 4.51,5.93 6.29,9.09c27.38,-6.65 55.98,-10.18 85.41,-10.18c29.32,0 57.82,3.5 85.11,10.11c1.81,-3.2 3.94,-6.28 6.4,-9.2l43.1,-51.11c21.29,-25.25 59,-28.51 84.3,-7.28l153.68,128.95c25.39,21.3 28.65,59.17 7.29,84.5l-43.1,51.11c-2.21,2.63 -4.61,5.01 -7.14,7.16c19.88,44.72 30.93,94.23 30.93,146.33z" fill="currentColor"/>
		</g>
		<g>
			<g color="#1565c0" class="teamapps-color-1">
				<path d="M812.67,545.41c0,166.04 -134.64,300.67 -300.67,300.67c-166.37,0 -300.67,-134.64 -300.67,-300.67c0,-166.04 134.64,-300.67 300.67,-300.67c166.04,0 300.67,134.64 300.67,300.67zM745.86,545.41c0,-129.29 -104.57,-233.86 -233.86,-233.86c-129.29,0 -233.86,104.57 -233.86,233.86c0,129.29 104.57,233.85 233.86,233.85c129.29,0 233.86,-104.56 233.86,-233.85zM545.41,512h100.22v66.81h-100.22v100.22h-66.82v-100.22h-100.22v-66.81h100.22v-100.22h66.82zM802.99,353.31l-153.68,-128.95l43.1,-51.11l153.68,128.95zM221.01,352.98l-43.1,-51.11l153.68,-128.62l42.76,51.11z" fill="currentColor"/>
			</g>
		</g>
	</g>
</svg>