<svg version="1.1" xmlns="http://www.w3.org/2000/svg" xmlns:xlink="http://www.w3.org/1999/xlink" viewBox="0,0,1024,1024">
	<!-- Color names: teamapps-color-1, teamapps-effect-color-1 -->
	<desc>android icon - Licensed under Apache License v2.0 (http://www.apache.org/licenses/LICENSE-2.0) - Created with Iconfu.com - Derivative work of Material icons (Copyright Google Inc.)</desc>
	<defs>
		<clipPath id="clip-AbUXZEPz">
			<path d="M1024,0v1024h-963.63v-1024z"/>
		</clipPath>
		<filter id="filter-kXCrmQBy" x="-8%" y="-7%" width="140%" height="127%" color-interpolation-filters="sRGB">
			<feColorMatrix values="1 0 0 0 0 0 1 0 0 0 0 0 1 0 0 0 0 0 0.17 0" in="SourceGraphic"/>
			<feOffset dx="14.14" dy="14.14"/>
			<feGaussianBlur stdDeviation="11" result="blur0"/>
			<feColorMatrix values="1 0 0 0 0 0 1 0 0 0 0 0 1 0 0 0 0 0 0.25 0" in="SourceGraphic"/>
			<feOffset dx="21.21" dy="21.21"/>
			<feGaussianBlur stdDeviation="20" result="blur1"/>
			<feMerge>
				<feMergeNode in="blur0"/>
				<feMergeNode in="blur1"/>
			</feMerge>
		</filter>
	</defs>
	<g fill="none" fill-rule="nonzero" style="mix-blend-mode: normal">
		<g clip-path="url(#clip-AbUXZEPz)">
			<path d="M705.54,801.93v60.85c0,60.81 -49.21,110.02 -110.02,110.02c-33.43,0 -63.35,-14.87 -83.52,-38.37c-20.17,23.5 -50.09,38.37 -83.52,38.37c-60.81,0 -110.02,-49.21 -110.02,-110.02v-60.85c-20.83,-6.18 -38.64,-19.44 -50.62,-36.99c-12.34,4.79 -25.77,7.41 -39.81,7.41c-60.81,0 -110.02,-49.21 -110.02,-110.02v-233.86c0,-60.81 49.21,-110.02 110.02,-110.02c8.49,0 16.75,0.96 24.69,2.77c4.72,-52.14 24.85,-99.61 55.52,-138.09l-0.96,-0.96c-30.07,-30.07 -30.07,-78.36 0,-108.43c30.04,-30.04 78.26,-30.07 108.34,-0.1l22.04,21.89c23.48,-7.08 48.42,-10.94 74.34,-10.94c25.56,0 50.3,3.82 73.6,10.84l21.69,-21.69c30.07,-30.07 78.36,-30.07 108.43,0c30.07,30.07 30.07,78.36 0,108.43l-0.42,0.42c31.04,38.66 51.25,86.4 55.98,138.63c7.94,-1.82 16.2,-2.77 24.69,-2.77c60.81,0 110.02,49.21 110.02,110.02v233.86c0,60.81 -49.21,110.02 -110.02,110.02c-14.04,0 -27.47,-2.62 -39.81,-7.41c-11.98,17.55 -29.79,30.81 -50.62,36.99z" fill="#000000" filter="url(#filter-kXCrmQBy)"/>
		</g>
		<g color="#ffffff" class="teamapps-effect-color-1">
			<path d="M705.54,801.93v60.85c0,60.81 -49.21,110.02 -110.02,110.02c-33.43,0 -63.35,-14.87 -83.52,-38.37c-20.17,23.5 -50.09,38.37 -83.52,38.37c-60.81,0 -110.02,-49.21 -110.02,-110.02v-60.85c-20.83,-6.18 -38.64,-19.44 -50.62,-36.99c-12.34,4.79 -25.77,7.41 -39.81,7.41c-60.81,0 -110.02,-49.21 -110.02,-110.02v-233.86c0,-60.81 49.21,-110.02 110.02,-110.02c8.49,0 16.75,0.96 24.69,2.77c4.72,-52.14 24.85,-99.61 55.52,-138.09l-0.96,-0.96c-30.07,-30.07 -30.07,-78.36 0,-108.43c30.04,-30.04 78.26,-30.07 108.34,-0.1l22.04,21.89c23.48,-7.08 48.42,-10.94 74.34,-10.94c25.56,0 50.3,3.82 73.6,10.84l21.69,-21.69c30.07,-30.07 78.36,-30.07 108.43,0c30.07,30.07 30.07,78.36 0,108.43l-0.42,0.42c31.04,38.66 51.25,86.4 55.98,138.63c7.94,-1.82 16.2,-2.77 24.69,-2.77c60.81,0 110.02,49.21 110.02,110.02v233.86c0,60.81 -49.21,110.02 -110.02,110.02c-14.04,0 -27.47,-2.62 -39.81,-7.41c-11.98,17.55 -29.79,30.81 -50.62,36.99z" fill="currentColor"/>
		</g>
		<g>
			<g color="#1565c0" class="teamapps-color-1">
				<path d="M311.55,378.37h400.9v334.08c0,18.38 -15.03,33.41 -33.41,33.41h-33.4v116.93c0,27.73 -22.39,50.11 -50.11,50.11c-27.73,0 -50.11,-22.39 -50.11,-50.11v-116.93h-66.82v116.93c0,27.73 -22.39,50.11 -50.11,50.11c-27.73,0 -50.11,-22.39 -50.11,-50.11v-116.93h-33.4c-18.38,0 -33.41,-15.03 -33.41,-33.41zM712.45,344.96h-400.9c0,-66.48 32.4,-124.94 81.85,-161.36l-43.76,-43.77c-6.68,-6.68 -6.68,-17.04 0,-23.72c6.68,-6.68 17.04,-6.68 23.72,0l49.78,49.45c26.72,-13.37 56.79,-21.05 88.86,-21.05c31.73,0 61.8,7.68 88.2,21.05l49.45,-49.45c6.68,-6.68 17.04,-6.68 23.72,0c6.68,6.68 6.68,17.04 0,23.72l-43.43,43.43c50.11,36.42 82.52,95.21 82.52,161.7zM846.08,428.48v233.86c0,27.73 -22.39,50.11 -50.11,50.11c-27.73,0 -50.11,-22.39 -50.11,-50.11v-233.86c0,-27.73 22.39,-50.11 50.11,-50.11c27.73,0 50.11,22.39 50.11,50.11zM278.14,428.48v233.86c0,27.73 -22.39,50.11 -50.11,50.11c-27.73,0 -50.11,-22.39 -50.11,-50.11v-233.86c0,-27.73 22.39,-50.11 50.11,-50.11c27.73,0 50.11,22.39 50.11,50.11zM612.22,244.74h-33.41v33.4h33.41zM445.19,244.74h-33.41v33.4h33.41z" fill="currentColor"/>
			</g>
		</g>
	</g>
</svg>