<svg version="1.1" xmlns="http://www.w3.org/2000/svg" xmlns:xlink="http://www.w3.org/1999/xlink" viewBox="0,0,1024,1024">
	<!-- Color names: teamapps-color-1, teamapps-effect-color-1 -->
	<desc>archive icon - Licensed under Apache License v2.0 (http://www.apache.org/licenses/LICENSE-2.0) - Created with Iconfu.com - Derivative work of Material icons (Copyright Google Inc.)</desc>
	<defs>
		<filter id="filter-hVfJBvnX" x="-8%" y="-8%" width="147%" height="147%" color-interpolation-filters="sRGB">
			<feColorMatrix values="1 0 0 0 0 0 1 0 0 0 0 0 1 0 0 0 0 0 0.17 0" in="SourceGraphic"/>
			<feOffset dx="14.14" dy="14.14"/>
			<feGaussianBlur stdDeviation="11" result="blur0"/>
			<feColorMatrix values="1 0 0 0 0 0 1 0 0 0 0 0 1 0 0 0 0 0 0.25 0" in="SourceGraphic"/>
			<feOffset dx="21.21" dy="21.21"/>
			<feGaussianBlur stdDeviation="20" result="blur1"/>
			<feMerge>
				<feMergeNode in="blur0"/>
				<feMergeNode in="blur1"/>
			</feMerge>
		</filter>
	</defs>
	<g fill="none" fill-rule="nonzero" style="mix-blend-mode: normal">
		<path d="M872.58,328.25v417.61c0,69.83 -56.89,126.72 -126.72,126.72h-467.72c-69.83,0 -126.72,-56.89 -126.72,-126.72v-417.61c0,-29.92 10.51,-58.56 29.27,-80.8l45.86,-55.83c20.16,-24.48 50.51,-40.2 84.99,-40.2h400.9c34.03,0 64.69,15.37 84.89,40.47l45.89,55.47c18.81,22.26 29.35,50.93 29.35,80.89z" fill="#000000" filter="url(#filter-hVfJBvnX)"/>
		<g color="#ffffff" class="teamapps-effect-color-1">
			<path d="M872.58,328.25v417.61c0,69.83 -56.89,126.72 -126.72,126.72h-467.72c-69.83,0 -126.72,-56.89 -126.72,-126.72v-417.61c0,-29.92 10.51,-58.56 29.27,-80.8l45.86,-55.83c20.16,-24.48 50.51,-40.2 84.99,-40.2h400.9c34.03,0 64.69,15.37 84.89,40.47l45.89,55.47c18.81,22.26 29.35,50.93 29.35,80.89z" fill="currentColor"/>
		</g>
		<g>
			<g color="#1565c0" class="teamapps-color-1">
				<path d="M812.67,328.25v417.61c0,36.75 -30.07,66.81 -66.81,66.81h-467.72c-36.75,0 -66.81,-30.07 -66.81,-66.81v-417.61c0,-16.04 5.68,-31.06 15.37,-42.42l46.1,-56.13c9.36,-11.36 23.05,-18.38 38.75,-18.38h400.9c15.7,0 29.4,7.02 38.42,18.38l46.43,56.13c9.69,11.36 15.37,26.39 15.37,42.42zM695.75,512h-116.93v-66.81h-133.63v66.81h-116.93l183.75,183.75zM741.51,278.14l-31.41,-33.4h-400.9l-27.06,33.4z" fill="currentColor"/>
			</g>
		</g>
	</g>
</svg>