<svg version="1.1" xmlns="http://www.w3.org/2000/svg" xmlns:xlink="http://www.w3.org/1999/xlink" viewBox="0,0,1024,1024">
	<!-- Color names: teamapps-color-1, teamapps-effect-color-1 -->
	<desc>arrow_drop_down_circle icon - Licensed under Apache License v2.0 (http://www.apache.org/licenses/LICENSE-2.0) - Created with Iconfu.com - Derivative work of Material icons (Copyright Google Inc.)</desc>
	<defs>
		<clipPath id="clip-yfy4w8tL">
			<path d="M60.37,60.37h963.63v963.63h-963.63z"/>
		</clipPath>
		<filter id="filter-aJjSCkLs" x="-8%" y="-8%" width="140%" height="140%" color-interpolation-filters="sRGB">
			<feColorMatrix values="1 0 0 0 0 0 1 0 0 0 0 0 1 0 0 0 0 0 0.17 0" in="SourceGraphic"/>
			<feOffset dx="14.14" dy="14.14"/>
			<feGaussianBlur stdDeviation="11" result="blur0"/>
			<feColorMatrix values="1 0 0 0 0 0 1 0 0 0 0 0 1 0 0 0 0 0 0.25 0" in="SourceGraphic"/>
			<feOffset dx="21.21" dy="21.21"/>
			<feGaussianBlur stdDeviation="20" result="blur1"/>
			<feMerge>
				<feMergeNode in="blur0"/>
				<feMergeNode in="blur1"/>
			</feMerge>
		</filter>
	</defs>
	<g fill="none" fill-rule="nonzero" style="mix-blend-mode: normal">
		<g clip-path="url(#clip-yfy4w8tL)">
			<path d="M905.99,512c0,217.5 -176.49,393.99 -393.99,393.99c-217.5,0 -393.99,-176.49 -393.99,-393.99c0,-217.5 176.49,-393.99 393.99,-393.99c217.5,0 393.99,176.49 393.99,393.99z" fill="#000000" filter="url(#filter-aJjSCkLs)"/>
		</g>
		<g color="#ffffff" class="teamapps-effect-color-1">
			<path d="M905.99,512c0,217.5 -176.49,393.99 -393.99,393.99c-217.5,0 -393.99,-176.49 -393.99,-393.99c0,-217.5 176.49,-393.99 393.99,-393.99c217.5,0 393.99,176.49 393.99,393.99z" fill="currentColor"/>
		</g>
		<g>
			<g color="#1565c0" class="teamapps-color-1">
				<path d="M846.08,512c0,184.41 -149.67,334.08 -334.08,334.08c-184.41,0 -334.08,-149.67 -334.08,-334.08c0,-184.41 149.67,-334.08 334.08,-334.08c184.41,0 334.08,149.67 334.08,334.08zM645.63,445.19h-267.27l133.63,133.63z" fill="currentColor"/>
			</g>
		</g>
	</g>
</svg>