<svg version="1.1" xmlns="http://www.w3.org/2000/svg" xmlns:xlink="http://www.w3.org/1999/xlink" viewBox="0,0,1024,1024">
	<!-- Color names: teamapps-color-1, teamapps-effect-color-1 -->
	<desc>call_missed icon - Licensed under Apache License v2.0 (http://www.apache.org/licenses/LICENSE-2.0) - Created with Iconfu.com - Derivative work of Material icons (Copyright Google Inc.)</desc>
	<defs>
		<filter id="filter-xsc5ApFl" x="-8%" y="-13%" width="147%" height="202%" color-interpolation-filters="sRGB">
			<feColorMatrix values="1 0 0 0 0 0 1 0 0 0 0 0 1 0 0 0 0 0 0.17 0" in="SourceGraphic"/>
			<feOffset dx="14.14" dy="14.14"/>
			<feGaussianBlur stdDeviation="11" result="blur0"/>
			<feColorMatrix values="1 0 0 0 0 0 1 0 0 0 0 0 1 0 0 0 0 0 0.25 0" in="SourceGraphic"/>
			<feOffset dx="21.21" dy="21.21"/>
			<feGaussianBlur stdDeviation="20" result="blur1"/>
			<feMerge>
				<feMergeNode in="blur0"/>
				<feMergeNode in="blur1"/>
			</feMerge>
		</filter>
	</defs>
	<g fill="none" fill-rule="nonzero" style="mix-blend-mode: normal">
		<path d="M855.03,434.43l-300.67,300.67c-23.39,23.39 -61.32,23.39 -84.72,0l-131.6,-131.6v8.72c0,33.08 -26.82,59.9 -59.9,59.9h-66.81c-33.08,0 -59.9,-26.82 -59.9,-59.9v-267.26c0,-33.08 26.82,-59.9 59.9,-59.9h267.26c33.08,0 59.9,26.82 59.9,59.9v66.81c0,33.08 -26.82,59.9 -59.9,59.9h-8.72l42.13,42.13l211.21,-211.21c23.39,-23.39 61.32,-23.39 84.72,0l47.11,47.11c23.39,23.39 23.39,61.32 0,84.72z" fill="#000000" filter="url(#filter-xsc5ApFl)"/>
		<g color="#ffffff" class="teamapps-effect-color-1">
			<path d="M855.03,434.43l-300.67,300.67c-23.39,23.39 -61.32,23.39 -84.72,0l-131.6,-131.6v8.72c0,33.08 -26.82,59.9 -59.9,59.9h-66.81c-33.08,0 -59.9,-26.82 -59.9,-59.9v-267.26c0,-33.08 26.82,-59.9 59.9,-59.9h267.26c33.08,0 59.9,26.82 59.9,59.9v66.81c0,33.08 -26.82,59.9 -59.9,59.9h-8.72l42.13,42.13l211.21,-211.21c23.39,-23.39 61.32,-23.39 84.72,0l47.11,47.11c23.39,23.39 23.39,61.32 0,84.72z" fill="currentColor"/>
		</g>
		<g>
			<g color="#1565c0" class="teamapps-color-1">
				<path d="M812.67,392.07l-300.67,300.67l-233.86,-233.86v153.34h-66.81v-267.26h267.26v66.81h-153.34l186.75,186.75l253.57,-253.57z" fill="currentColor"/>
			</g>
		</g>
	</g>
</svg>