<svg version="1.1" xmlns="http://www.w3.org/2000/svg" xmlns:xlink="http://www.w3.org/1999/xlink" viewBox="0,0,1024,1024">
	<!-- Color names: teamapps-color-1, teamapps-effect-color-1 -->
	<desc>card_membership icon - Licensed under Apache License v2.0 (http://www.apache.org/licenses/LICENSE-2.0) - Created with Iconfu.com - Derivative work of Material icons (Copyright Google Inc.)</desc>
	<defs>
		<clipPath id="clip-VJ0gUyfj">
			<path d="M60.37,60.37h963.63v963.63h-963.63z"/>
		</clipPath>
		<filter id="filter-mgAJgMSs" x="-8%" y="-8%" width="140%" height="140%" color-interpolation-filters="sRGB">
			<feColorMatrix values="1 0 0 0 0 0 1 0 0 0 0 0 1 0 0 0 0 0 0.17 0" in="SourceGraphic"/>
			<feOffset dx="14.14" dy="14.14"/>
			<feGaussianBlur stdDeviation="11" result="blur0"/>
			<feColorMatrix values="1 0 0 0 0 0 1 0 0 0 0 0 1 0 0 0 0 0 0.25 0" in="SourceGraphic"/>
			<feOffset dx="21.21" dy="21.21"/>
			<feGaussianBlur stdDeviation="20" result="blur1"/>
			<feMerge>
				<feMergeNode in="blur0"/>
				<feMergeNode in="blur1"/>
			</feMerge>
		</filter>
	</defs>
	<g fill="none" fill-rule="nonzero" style="mix-blend-mode: normal">
		<g clip-path="url(#clip-VJ0gUyfj)">
			<path d="M905.99,244.74v367.49c0,70.18 -56.57,126.72 -126.73,126.72h-73.72v107.14c0,20.76 -10.75,40.04 -28.41,50.96c-17.66,10.91 -39.71,11.91 -58.28,2.62l-106.84,-53.42l-106.84,53.42c-18.57,9.29 -40.62,8.29 -58.28,-2.62c-17.66,-10.91 -28.41,-30.2 -28.41,-50.96v-107.14h-73.72c-70.16,0 -126.73,-56.54 -126.73,-126.72v-367.49c0,-70.17 56.56,-126.73 126.73,-126.73h534.52c70.17,0 126.73,56.56 126.73,126.73z" fill="#000000" filter="url(#filter-mgAJgMSs)"/>
		</g>
		<g color="#ffffff" class="teamapps-effect-color-1">
			<path d="M905.99,244.74v367.49c0,70.18 -56.57,126.72 -126.73,126.72h-73.72v107.14c0,20.76 -10.75,40.04 -28.41,50.96c-17.66,10.91 -39.71,11.91 -58.28,2.62l-106.84,-53.42l-106.84,53.42c-18.57,9.29 -40.62,8.29 -58.28,-2.62c-17.66,-10.91 -28.41,-30.2 -28.41,-50.96v-107.14h-73.72c-70.16,0 -126.73,-56.54 -126.73,-126.72v-367.49c0,-70.17 56.56,-126.73 126.73,-126.73h534.52c70.17,0 126.73,56.56 126.73,126.73z" fill="currentColor"/>
		</g>
		<g>
			<g color="#1565c0" class="teamapps-color-1">
				<path d="M846.08,244.74v367.49c0,37.08 -29.74,66.81 -66.82,66.81h-133.63v167.05l-133.63,-66.82l-133.63,66.82v-167.05h-133.63c-37.08,0 -66.82,-29.73 -66.82,-66.81v-367.49c0,-37.08 29.74,-66.82 66.82,-66.82h534.52c37.08,0 66.82,29.74 66.82,66.82zM779.26,244.74h-534.52v200.45h534.52zM779.26,545.41h-534.52v66.81h534.52z" fill="currentColor"/>
			</g>
		</g>
	</g>
</svg>