<svg version="1.1" xmlns="http://www.w3.org/2000/svg" xmlns:xlink="http://www.w3.org/1999/xlink" viewBox="0,0,1024,1024">
	<!-- Color names: teamapps-color-1, teamapps-effect-color-1 -->
	<desc>computer icon - Licensed under Apache License v2.0 (http://www.apache.org/licenses/LICENSE-2.0) - Created with Iconfu.com - Derivative work of Material icons (Copyright Google Inc.)</desc>
	<defs>
		<clipPath id="clip-M3cLxEIo">
			<path d="M0,127.19h1024v840.33h-1024z"/>
		</clipPath>
		<filter id="filter-3VRUNrdp" x="-7%" y="-9%" width="127%" height="157%" color-interpolation-filters="sRGB">
			<feColorMatrix values="1 0 0 0 0 0 1 0 0 0 0 0 1 0 0 0 0 0 0.17 0" in="SourceGraphic"/>
			<feOffset dx="14.14" dy="14.14"/>
			<feGaussianBlur stdDeviation="11" result="blur0"/>
			<feColorMatrix values="1 0 0 0 0 0 1 0 0 0 0 0 1 0 0 0 0 0 0.25 0" in="SourceGraphic"/>
			<feOffset dx="21.21" dy="21.21"/>
			<feGaussianBlur stdDeviation="20" result="blur1"/>
			<feMerge>
				<feMergeNode in="blur0"/>
				<feMergeNode in="blur1"/>
			</feMerge>
		</filter>
	</defs>
	<g fill="none" fill-rule="nonzero" style="mix-blend-mode: normal">
		<g clip-path="url(#clip-M3cLxEIo)">
			<path d="M972.8,712.45v66.81c0,33.08 -26.82,59.9 -59.9,59.9h-801.79c-33.08,0 -59.9,-26.82 -59.9,-59.9v-66.81c0,-33.08 26.82,-59.9 59.9,-59.9h7.1l-0.19,-340.99c0,-69.84 56.9,-126.72 126.73,-126.72h534.52c69.82,0 126.73,56.88 126.73,126.72l-0.34,334.14c0,2.3 -0.06,4.58 -0.19,6.85h7.43c33.08,0 59.9,26.82 59.9,59.9z" fill="#000000" filter="url(#filter-3VRUNrdp)"/>
		</g>
		<g color="#ffffff" class="teamapps-effect-color-1">
			<path d="M972.8,712.45v66.81c0,33.08 -26.82,59.9 -59.9,59.9h-801.79c-33.08,0 -59.9,-26.82 -59.9,-59.9v-66.81c0,-33.08 26.82,-59.9 59.9,-59.9h7.1l-0.19,-340.99c0,-69.84 56.9,-126.72 126.73,-126.72h534.52c69.82,0 126.73,56.88 126.73,126.72l-0.34,334.14c0,2.3 -0.06,4.58 -0.19,6.85h7.43c33.08,0 59.9,26.82 59.9,59.9z" fill="currentColor"/>
		</g>
		<g>
			<g color="#1565c0" class="teamapps-color-1">
				<path d="M912.9,712.45v66.81h-801.79v-66.81h133.63c-36.75,0 -66.82,-30.07 -66.82,-66.81v-334.08c0,-36.75 30.08,-66.81 66.82,-66.81h534.52c36.75,0 66.82,30.07 66.82,66.81l-0.34,334.08c0,36.75 -29.74,66.81 -66.48,66.81zM244.74,645.63h534.52v-334.08h-534.52z" fill="currentColor"/>
			</g>
		</g>
	</g>
</svg>