<svg version="1.1" xmlns="http://www.w3.org/2000/svg" xmlns:xlink="http://www.w3.org/1999/xlink" viewBox="0,0,1024,1024">
	<!-- Color names: teamapps-color-1, teamapps-effect-color-1 -->
	<desc>delete_sweep icon - Licensed under Apache License v2.0 (http://www.apache.org/licenses/LICENSE-2.0) - Created with Iconfu.com - Derivative work of Material icons (Copyright Google Inc.)</desc>
	<defs>
		<clipPath id="clip-MxpLgyOt">
			<path d="M60.37,967.52v-840.33h963.63v840.33z"/>
		</clipPath>
		<filter id="filter-jPWSP4g1" x="-8%" y="-9%" width="140%" height="157%" color-interpolation-filters="sRGB">
			<feColorMatrix values="1 0 0 0 0 0 1 0 0 0 0 0 1 0 0 0 0 0 0.17 0" in="SourceGraphic"/>
			<feOffset dx="14.14" dy="14.14"/>
			<feGaussianBlur stdDeviation="11" result="blur0"/>
			<feColorMatrix values="1 0 0 0 0 0 1 0 0 0 0 0 1 0 0 0 0 0 0.25 0" in="SourceGraphic"/>
			<feOffset dx="21.21" dy="21.21"/>
			<feGaussianBlur stdDeviation="20" result="blur1"/>
			<feMerge>
				<feMergeNode in="blur0"/>
				<feMergeNode in="blur1"/>
			</feMerge>
		</filter>
	</defs>
	<g fill="none" fill-rule="nonzero" style="mix-blend-mode: normal">
		<g clip-path="url(#clip-MxpLgyOt)">
			<path d="M478.59,839.17h-200.45c-69.83,0 -126.72,-56.89 -126.72,-126.72v-313.74c-19.8,-9.78 -33.41,-30.17 -33.41,-53.74v-66.82c0,-33.08 26.82,-59.9 59.9,-59.9h75.42l15.87,-15.86c11.23,-11.23 26.47,-17.54 42.35,-17.54h133.63c15.89,0 31.12,6.31 42.36,17.55l15.86,15.86h75.41c33.08,0 59.9,26.82 59.9,59.9v40.32h207.37c33.08,0 59.9,26.82 59.9,59.9v66.82c0,24.08 -14.21,44.85 -34.71,54.36c0.85,4.02 1.3,8.18 1.3,12.45v66.81c0,33.08 -26.82,59.9 -59.9,59.9h-7.3c0.26,2.27 0.4,4.58 0.4,6.92v66.81c0,33.08 -26.82,59.9 -59.9,59.9h-133.63c-7.09,0 -13.88,-1.23 -20.19,-3.49c-20.81,41.63 -63.87,70.3 -113.44,70.3z" fill="#000000" filter="url(#filter-jPWSP4g1)"/>
		</g>
		<g color="#ffffff" class="teamapps-effect-color-1">
			<path d="M478.59,839.17h-200.45c-69.83,0 -126.72,-56.89 -126.72,-126.72v-313.74c-19.8,-9.78 -33.41,-30.17 -33.41,-53.74v-66.82c0,-33.08 26.82,-59.9 59.9,-59.9h75.42l15.87,-15.86c11.23,-11.23 26.47,-17.54 42.35,-17.54h133.63c15.89,0 31.12,6.31 42.36,17.55l15.86,15.86h75.41c33.08,0 59.9,26.82 59.9,59.9v40.32h207.37c33.08,0 59.9,26.82 59.9,59.9v66.82c0,24.08 -14.21,44.85 -34.71,54.36c0.85,4.02 1.3,8.18 1.3,12.45v66.81c0,33.08 -26.82,59.9 -59.9,59.9h-7.3c0.26,2.27 0.4,4.58 0.4,6.92v66.81c0,33.08 -26.82,59.9 -59.9,59.9h-133.63c-7.09,0 -13.88,-1.23 -20.19,-3.49c-20.81,41.63 -63.87,70.3 -113.44,70.3z" fill="currentColor"/>
		</g>
		<g>
			<g color="#1565c0" class="teamapps-color-1">
				<path d="M211.33,378.37h334.08v334.08c0,36.75 -30.08,66.81 -66.82,66.81h-200.45c-36.75,0 -66.81,-30.07 -66.81,-66.81zM578.81,344.96h-400.9v-66.82h100.22l33.41,-33.4h133.63l33.4,33.4h100.22zM612.22,378.37h233.86v66.82h-233.86zM612.22,512h200.45v66.81h-200.45zM612.22,645.63h133.63v66.81h-133.63z" fill="currentColor"/>
			</g>
		</g>
	</g>
</svg>