<svg version="1.1" xmlns="http://www.w3.org/2000/svg" xmlns:xlink="http://www.w3.org/1999/xlink" viewBox="0,0,1024,1024">
	<!-- Color names: teamapps-color-1, teamapps-effect-color-1 -->
	<desc>details icon - Licensed under Apache License v2.0 (http://www.apache.org/licenses/LICENSE-2.0) - Created with Iconfu.com - Derivative work of Material icons (Copyright Google Inc.)</desc>
	<defs>
		<filter id="filter-sXnRsfcl" x="-8%" y="-9%" width="147%" height="157%" color-interpolation-filters="sRGB">
			<feColorMatrix values="1 0 0 0 0 0 1 0 0 0 0 0 1 0 0 0 0 0 0.17 0" in="SourceGraphic"/>
			<feOffset dx="14.14" dy="14.14"/>
			<feGaussianBlur stdDeviation="11" result="blur0"/>
			<feColorMatrix values="1 0 0 0 0 0 1 0 0 0 0 0 1 0 0 0 0 0 0.25 0" in="SourceGraphic"/>
			<feOffset dx="21.21" dy="21.21"/>
			<feGaussianBlur stdDeviation="20" result="blur1"/>
			<feMerge>
				<feMergeNode in="blur0"/>
				<feMergeNode in="blur1"/>
			</feMerge>
		</filter>
	</defs>
	<g fill="none" fill-rule="nonzero" style="mix-blend-mode: normal">
		<path d="M864.88,274.11l-300.67,534.52c-10.61,18.86 -30.57,30.54 -52.21,30.54c-21.64,0 -41.6,-11.67 -52.21,-30.54l-300.67,-534.52c-10.43,-18.55 -10.24,-41.24 0.5,-59.61c10.74,-18.37 30.43,-29.66 51.71,-29.66h601.34c21.28,0 40.97,11.29 51.71,29.66c10.74,18.37 10.93,41.06 0.5,59.61z" fill="#000000" filter="url(#filter-sXnRsfcl)"/>
		<g color="#ffffff" class="teamapps-effect-color-1">
			<path d="M864.88,274.11l-300.67,534.52c-10.61,18.86 -30.57,30.54 -52.21,30.54c-21.64,0 -41.6,-11.67 -52.21,-30.54l-300.67,-534.52c-10.43,-18.55 -10.24,-41.24 0.5,-59.61c10.74,-18.37 30.43,-29.66 51.71,-29.66h601.34c21.28,0 40.97,11.29 51.71,29.66c10.74,18.37 10.93,41.06 0.5,59.61z" fill="currentColor"/>
		</g>
		<g>
			<g color="#1565c0" class="teamapps-color-1">
				<path d="M812.67,244.74l-300.67,534.52l-300.67,-534.52zM512,645.63l188.08,-334.08h-375.84z" fill="currentColor"/>
			</g>
		</g>
	</g>
</svg>