<svg version="1.1" xmlns="http://www.w3.org/2000/svg" xmlns:xlink="http://www.w3.org/1999/xlink" viewBox="0,0,1024,1024">
	<!-- Color names: teamapps-color-1, teamapps-effect-color-1 -->
	<desc>donut_small icon - Licensed under Apache License v2.0 (http://www.apache.org/licenses/LICENSE-2.0) - Created with Iconfu.com - Derivative work of Material icons (Copyright Google Inc.)</desc>
	<defs>
		<clipPath id="clip-iI6LlW07">
			<path d="M60.37,60.37h963.63v963.63h-963.63z"/>
		</clipPath>
		<filter id="filter-7p3nxNO4" x="-8%" y="-8%" width="140%" height="140%" color-interpolation-filters="sRGB">
			<feColorMatrix values="1 0 0 0 0 0 1 0 0 0 0 0 1 0 0 0 0 0 0.17 0" in="SourceGraphic"/>
			<feOffset dx="14.14" dy="14.14"/>
			<feGaussianBlur stdDeviation="11" result="blur0"/>
			<feColorMatrix values="1 0 0 0 0 0 1 0 0 0 0 0 1 0 0 0 0 0 0.25 0" in="SourceGraphic"/>
			<feOffset dx="21.21" dy="21.21"/>
			<feGaussianBlur stdDeviation="20" result="blur1"/>
			<feMerge>
				<feMergeNode in="blur0"/>
				<feMergeNode in="blur1"/>
			</feMerge>
		</filter>
	</defs>
	<g fill="none" fill-rule="nonzero" style="mix-blend-mode: normal">
		<g clip-path="url(#clip-iI6LlW07)">
			<path d="M905.68,551.43c-18.77,185.73 -157.72,335.78 -354.67,354.29c-13.85,1.3 -27.62,-2.26 -39.02,-9.92c-11.5,7.73 -25.41,11.28 -39.37,9.88c-197.38,-19.74 -354.62,-188.58 -354.62,-393.69c0,-205.11 157.23,-373.95 354.62,-393.69c13.96,-1.4 27.87,2.16 39.37,9.88c11.4,-7.66 25.17,-11.22 39.02,-9.92c196.95,18.51 335.9,168.56 354.67,354.29c1.41,13.98 -2.14,27.92 -9.88,39.43c7.74,11.52 11.29,25.45 9.88,39.43z" fill="#000000" filter="url(#filter-7p3nxNO4)"/>
		</g>
		<g color="#ffffff" class="teamapps-effect-color-1">
			<path d="M905.68,551.43c-18.77,185.73 -157.72,335.78 -354.67,354.29c-13.85,1.3 -27.62,-2.26 -39.02,-9.92c-11.5,7.73 -25.41,11.28 -39.37,9.88c-197.38,-19.74 -354.62,-188.58 -354.62,-393.69c0,-205.11 157.23,-373.95 354.62,-393.69c13.96,-1.4 27.87,2.16 39.37,9.88c11.4,-7.66 25.17,-11.22 39.02,-9.92c196.95,18.51 335.9,168.56 354.67,354.29c1.41,13.98 -2.14,27.92 -9.88,39.43c7.74,11.52 11.29,25.45 9.88,39.43z" fill="currentColor"/>
		</g>
		<g>
			<g color="#1565c0" class="teamapps-color-1">
				<path d="M411.78,512c0,44.1 33.4,81.18 66.81,94.88v239.21c-167.04,-16.7 -300.67,-160.03 -300.67,-334.08c0,-174.05 133.63,-317.38 300.67,-334.08v239.21c-33.41,13.69 -66.81,50.78 -66.81,94.88zM545.41,417.12v-239.21c167.04,15.7 284.64,141.98 300.67,300.67h-238.53c-11.36,-28.73 -28.73,-51.44 -62.14,-61.47zM607.55,545.41h238.53c-16.04,158.69 -133.63,284.97 -300.67,300.67v-239.21c33.41,-10.02 50.78,-32.74 62.14,-61.47z" fill="currentColor"/>
			</g>
		</g>
	</g>
</svg>