<svg version="1.1" xmlns="http://www.w3.org/2000/svg" xmlns:xlink="http://www.w3.org/1999/xlink" viewBox="0,0,1024,1024">
	<!-- Color names: teamapps-color-1, teamapps-effect-color-1 -->
	<desc>extension icon - Licensed under Apache License v2.0 (http://www.apache.org/licenses/LICENSE-2.0) - Created with Iconfu.com - Derivative work of Material icons (Copyright Google Inc.)</desc>
	<defs>
		<clipPath id="clip-kVQBPQ7W">
			<path d="M60.37,26.97h963.63v997.03h-963.63z"/>
		</clipPath>
		<filter id="filter-2hTg9CoH" x="-8%" y="-8%" width="138%" height="134%" color-interpolation-filters="sRGB">
			<feColorMatrix values="1 0 0 0 0 0 1 0 0 0 0 0 1 0 0 0 0 0 0.17 0" in="SourceGraphic"/>
			<feOffset dx="14.14" dy="14.14"/>
			<feGaussianBlur stdDeviation="11" result="blur0"/>
			<feColorMatrix values="1 0 0 0 0 0 1 0 0 0 0 0 1 0 0 0 0 0 0.25 0" in="SourceGraphic"/>
			<feOffset dx="21.21" dy="21.21"/>
			<feGaussianBlur stdDeviation="20" result="blur1"/>
			<feMerge>
				<feMergeNode in="blur0"/>
				<feMergeNode in="blur1"/>
			</feMerge>
		</filter>
	</defs>
	<g fill="none" fill-rule="nonzero" style="mix-blend-mode: normal">
		<g clip-path="url(#clip-kVQBPQ7W)">
			<path d="M939.39,562.11c0,75.89 -59,138.06 -133.63,143.1v74.05c0,69.83 -56.89,126.73 -126.73,126.73h-126.95c-33.08,0 -59.9,-26.82 -59.9,-59.9v-50.11c0,-16.69 -13.61,-30.3 -30.3,-30.3c-16.69,0 -30.3,13.61 -30.3,30.3v50.11c0,33.08 -26.82,59.9 -59.9,59.9h-126.95c-69.83,0 -126.73,-56.89 -126.73,-126.73v-126.95c0,-33.08 26.82,-59.9 59.9,-59.9h50.11c16.69,0 30.3,-13.61 30.3,-30.3c0,-16.69 -13.61,-30.3 -30.3,-30.3h-49.78c-33.08,0 -59.9,-26.82 -59.9,-59.9v-126.95c0,-69.42 56.15,-126.73 126.39,-126.73h74.05c5.04,-74.63 67.21,-133.63 143.1,-133.63c75.89,0 138.06,59 143.1,133.63h74.05c69.83,0 126.73,56.89 126.73,126.73v74.05c74.63,5.04 133.63,67.21 133.63,143.1z" fill="#000000" filter="url(#filter-2hTg9CoH)"/>
		</g>
		<g color="#ffffff" class="teamapps-effect-color-1">
			<path d="M939.39,562.11c0,75.89 -59,138.06 -133.63,143.1v74.05c0,69.83 -56.89,126.73 -126.73,126.73h-126.95c-33.08,0 -59.9,-26.82 -59.9,-59.9v-50.11c0,-16.69 -13.61,-30.3 -30.3,-30.3c-16.69,0 -30.3,13.61 -30.3,30.3v50.11c0,33.08 -26.82,59.9 -59.9,59.9h-126.95c-69.83,0 -126.73,-56.89 -126.73,-126.73v-126.95c0,-33.08 26.82,-59.9 59.9,-59.9h50.11c16.69,0 30.3,-13.61 30.3,-30.3c0,-16.69 -13.61,-30.3 -30.3,-30.3h-49.78c-33.08,0 -59.9,-26.82 -59.9,-59.9v-126.95c0,-69.42 56.15,-126.73 126.39,-126.73h74.05c5.04,-74.63 67.21,-133.63 143.1,-133.63c75.89,0 138.06,59 143.1,133.63h74.05c69.83,0 126.73,56.89 126.73,126.73v74.05c74.63,5.04 133.63,67.21 133.63,143.1z" fill="currentColor"/>
		</g>
		<g>
			<g color="#1565c0" class="teamapps-color-1">
				<path d="M879.49,562.11c0,46.1 -37.41,83.52 -83.51,83.52h-50.11v133.63c0,36.75 -30.08,66.82 -66.82,66.82h-126.95v-50.11c0,-49.78 -40.43,-90.2 -90.2,-90.2c-49.78,0 -90.2,40.43 -90.2,90.2v50.11h-126.95c-36.75,0 -66.82,-30.08 -66.82,-66.82v-126.95h50.11c49.78,0 90.2,-40.43 90.2,-90.2c0,-49.78 -40.43,-90.2 -90.2,-90.2h-49.78v-126.95c0,-36.75 29.74,-66.82 66.48,-66.82h133.63v-50.11c0,-46.1 37.42,-83.51 83.52,-83.51c46.1,0 83.52,37.41 83.52,83.51v50.11h133.63c36.75,0 66.82,30.08 66.82,66.82v133.63h50.11c46.1,0 83.51,37.42 83.51,83.52z" fill="currentColor"/>
			</g>
		</g>
	</g>
</svg>