<svg version="1.1" xmlns="http://www.w3.org/2000/svg" xmlns:xlink="http://www.w3.org/1999/xlink" viewBox="0,0,1024,1024">
	<!-- Color names: teamapps-color-1, teamapps-effect-color-1 -->
	<desc>fiber_dvr icon - Licensed under Apache License v2.0 (http://www.apache.org/licenses/LICENSE-2.0) - Created with Iconfu.com - Derivative work of Material icons (Copyright Google Inc.)</desc>
	<defs>
		<clipPath id="clip-JJ50i9Qd">
			<path d="M26.97,1000.93v-907.15h997.03v907.15z"/>
		</clipPath>
		<filter id="filter-gVI68nMq" x="-7%" y="-8%" width="132%" height="147%" color-interpolation-filters="sRGB">
			<feColorMatrix values="1 0 0 0 0 0 1 0 0 0 0 0 1 0 0 0 0 0 0.17 0" in="SourceGraphic"/>
			<feOffset dx="14.14" dy="14.14"/>
			<feGaussianBlur stdDeviation="11" result="blur0"/>
			<feColorMatrix values="1 0 0 0 0 0 1 0 0 0 0 0 1 0 0 0 0 0 0.25 0" in="SourceGraphic"/>
			<feOffset dx="21.21" dy="21.21"/>
			<feGaussianBlur stdDeviation="20" result="blur1"/>
			<feMerge>
				<feMergeNode in="blur0"/>
				<feMergeNode in="blur1"/>
			</feMerge>
		</filter>
	</defs>
	<g fill="none" fill-rule="nonzero" style="mix-blend-mode: normal">
		<g clip-path="url(#clip-JJ50i9Qd)">
			<path d="M939.39,278.14v467.72c0,69.63 -56.35,126.72 -126.72,126.72h-601.34c-70.37,0 -126.72,-57.09 -126.72,-126.72v-467.72c0,-70.17 56.55,-126.72 126.72,-126.72h601.34c70.17,0 126.72,56.55 126.72,126.72z" fill="#000000" filter="url(#filter-gVI68nMq)"/>
		</g>
		<g color="#ffffff" class="teamapps-effect-color-1">
			<path d="M939.39,278.14v467.72c0,69.63 -56.35,126.72 -126.72,126.72h-601.34c-70.37,0 -126.72,-57.09 -126.72,-126.72v-467.72c0,-70.17 56.55,-126.72 126.72,-126.72h601.34c70.17,0 126.72,56.55 126.72,126.72z" fill="currentColor"/>
		</g>
		<g>
			<g color="#1565c0" class="teamapps-color-1">
				<path d="M879.49,278.14v467.72c0,36.75 -29.73,66.81 -66.81,66.81h-601.34c-37.08,0 -66.81,-30.07 -66.81,-66.81v-467.72c0,-37.08 29.73,-66.81 66.81,-66.81h601.34c37.08,0 66.81,29.73 66.81,66.81zM812.67,461.89c0,-28.4 -21.71,-50.11 -50.11,-50.11h-116.93v200.45h50.11v-66.81h38.41l28.4,66.81h50.11l-30.07,-70.16c16.7,-8.35 30.07,-26.72 30.07,-46.77zM378.37,461.89c0,-28.4 -21.71,-50.11 -50.11,-50.11h-116.93v200.45h116.93c28.4,0 50.11,-21.71 50.11,-50.11zM591.18,411.78h-50.11l-33.41,114.59l-33.4,-114.59h-50.11l58.46,200.45h50.11zM261.44,461.89h66.81v100.22h-66.81zM695.75,461.89h66.81v33.41h-66.81z" fill="currentColor"/>
			</g>
		</g>
	</g>
</svg>