<svg version="1.1" xmlns="http://www.w3.org/2000/svg" xmlns:xlink="http://www.w3.org/1999/xlink" viewBox="0,0,1024,1024">
	<!-- Color names: teamapps-color-1, teamapps-effect-color-1 -->
	<desc>find_replace icon - Licensed under Apache License v2.0 (http://www.apache.org/licenses/LICENSE-2.0) - Created with Iconfu.com - Derivative work of Material icons (Copyright Google Inc.)</desc>
	<defs>
		<filter id="filter-gkGW8mqc" x="-9%" y="-9%" width="154%" height="154%" color-interpolation-filters="sRGB">
			<feColorMatrix values="1 0 0 0 0 0 1 0 0 0 0 0 1 0 0 0 0 0 0.17 0" in="SourceGraphic"/>
			<feOffset dx="14.14" dy="14.14"/>
			<feGaussianBlur stdDeviation="11" result="blur0"/>
			<feColorMatrix values="1 0 0 0 0 0 1 0 0 0 0 0 1 0 0 0 0 0 0.25 0" in="SourceGraphic"/>
			<feOffset dx="21.21" dy="21.21"/>
			<feGaussianBlur stdDeviation="20" result="blur1"/>
			<feMerge>
				<feMergeNode in="blur0"/>
				<feMergeNode in="blur1"/>
			</feMerge>
		</filter>
	</defs>
	<g fill="none" fill-rule="nonzero" style="mix-blend-mode: normal">
		<path d="M871.4,821.62l-49.78,49.78c-23.38,23.38 -61.27,23.4 -84.67,0.04l-129.32,-129.06c-38.88,19.09 -82.68,29.96 -129.04,29.96c-59.35,0 -114.72,-17.63 -161.02,-48.02l-30.47,30.47c-17.13,17.13 -42.9,22.26 -65.28,12.99c-22.39,-9.27 -36.98,-31.12 -36.98,-55.34v-200.45c0,-13.24 4.3,-25.48 11.57,-35.39c-7.31,-11.86 -10.31,-26 -8.28,-39.99c20.54,-142.06 142.11,-251.78 290.47,-251.78c59.35,0 114.72,17.62 161.03,48.02l30.48,-30.47c17.13,-17.13 42.9,-22.25 65.28,-12.98c22.38,9.27 36.98,31.12 36.98,55.34v200.45c0,13.24 -4.3,25.48 -11.57,35.39c7.22,11.73 10.24,25.69 8.35,39.54c-4.27,31.21 -13.56,60.62 -26.74,87.5l129.06,129.32c23.35,23.4 23.33,61.3 -0.04,84.67z" fill="#000000" filter="url(#filter-gkGW8mqc)"/>
		<g color="#ffffff" class="teamapps-effect-color-1">
			<path d="M871.4,821.62l-49.78,49.78c-23.38,23.38 -61.27,23.4 -84.67,0.04l-129.32,-129.06c-38.88,19.09 -82.68,29.96 -129.04,29.96c-59.35,0 -114.72,-17.63 -161.02,-48.02l-30.47,30.47c-17.13,17.13 -42.9,22.26 -65.28,12.99c-22.39,-9.27 -36.98,-31.12 -36.98,-55.34v-200.45c0,-13.24 4.3,-25.48 11.57,-35.39c-7.31,-11.86 -10.31,-26 -8.28,-39.99c20.54,-142.06 142.11,-251.78 290.47,-251.78c59.35,0 114.72,17.62 161.03,48.02l30.48,-30.47c17.13,-17.13 42.9,-22.25 65.28,-12.98c22.38,9.27 36.98,31.12 36.98,55.34v200.45c0,13.24 -4.3,25.48 -11.57,35.39c7.22,11.73 10.24,25.69 8.35,39.54c-4.27,31.21 -13.56,60.62 -26.74,87.5l129.06,129.32c23.35,23.4 23.33,61.3 -0.04,84.67z" fill="currentColor"/>
		</g>
		<g>
			<g color="#1565c0" class="teamapps-color-1">
				<path d="M829.04,779.26l-49.78,49.78l-162.36,-162.03c-38.75,28.4 -86.53,45.44 -138.31,45.44c-64.48,0 -122.94,-26.06 -165.37,-68.49l-68.48,68.49v-200.45h200.45l-84.86,84.85c30.4,30.07 72.16,48.78 118.26,48.78c80.84,0 148.33,-57.46 163.7,-133.63h67.49c-5.35,39.09 -20.72,74.83 -42.77,104.9zM314.9,445.19h-67.49c16.37,-113.25 113.25,-200.45 231.18,-200.45c64.48,0 122.94,26.05 165.37,68.48l68.49,-68.48v200.45h-200.45l84.85,-84.86c-30.4,-30.07 -72.16,-48.77 -118.26,-48.77c-80.84,0 -148.32,57.46 -163.69,133.63z" fill="currentColor"/>
			</g>
		</g>
	</g>
</svg>