<svg version="1.1" xmlns="http://www.w3.org/2000/svg" xmlns:xlink="http://www.w3.org/1999/xlink" viewBox="0,0,1024,1024">
	<!-- Color names: teamapps-color-1, teamapps-effect-color-1 -->
	<desc>fitness_center icon - Licensed under Apache License v2.0 (http://www.apache.org/licenses/LICENSE-2.0) - Created with Iconfu.com - Derivative work of Material icons (Copyright Google Inc.)</desc>
	<defs>
		<clipPath id="clip-97Z1KuST">
			<path d="M60.37,60.37h963.63v963.63h-963.63z"/>
		</clipPath>
		<filter id="filter-hsyN9yK0" x="-8%" y="-8%" width="140%" height="140%" color-interpolation-filters="sRGB">
			<feColorMatrix values="1 0 0 0 0 0 1 0 0 0 0 0 1 0 0 0 0 0 0.17 0" in="SourceGraphic"/>
			<feOffset dx="14.14" dy="14.14"/>
			<feGaussianBlur stdDeviation="11" result="blur0"/>
			<feColorMatrix values="1 0 0 0 0 0 1 0 0 0 0 0 1 0 0 0 0 0 0.25 0" in="SourceGraphic"/>
			<feOffset dx="21.21" dy="21.21"/>
			<feGaussianBlur stdDeviation="20" result="blur1"/>
			<feMerge>
				<feMergeNode in="blur0"/>
				<feMergeNode in="blur1"/>
			</feMerge>
		</filter>
	</defs>
	<g fill="none" fill-rule="nonzero" style="mix-blend-mode: normal">
		<g clip-path="url(#clip-97Z1KuST)">
			<path d="M888.44,697.68l-29.14,29.14l5.41,5.41c23.39,23.39 23.39,61.32 0,84.72l-47.77,47.77c-23.39,23.39 -61.32,23.39 -84.72,0l-5.41,-5.41l-29.14,29.14c-23.4,23.4 -61.33,23.39 -84.72,0l-5.41,-5.41l-5.42,5.42c-23.4,23.4 -61.33,23.39 -84.72,0l-47.77,-47.78c-23.39,-23.39 -23.39,-61.32 0,-84.71l76.91,-76.91l-201.59,-201.59l-76.91,76.91c-23.39,23.39 -61.32,23.39 -84.71,0l-47.78,-47.77c-23.4,-23.39 -23.4,-61.33 0,-84.72l5.42,-5.42l-5.41,-5.41c-23.4,-23.39 -23.4,-61.33 0,-84.72l29.14,-29.14l-5.41,-5.41c-23.39,-23.39 -23.39,-61.32 0,-84.72l47.77,-47.77c23.39,-23.39 61.32,-23.39 84.72,0l5.41,5.41l29.14,-29.14c23.4,-23.4 61.33,-23.39 84.72,0l5.41,5.41l5.42,-5.42c23.4,-23.4 61.33,-23.39 84.72,0l47.77,47.78c23.39,23.39 23.39,61.32 0,84.71l-76.91,76.91l201.59,201.59l76.91,-76.91c23.39,-23.39 61.32,-23.39 84.71,0l47.78,47.77c23.4,23.39 23.4,61.33 0,84.72l-5.42,5.42l5.41,5.41c23.4,23.39 23.4,61.33 0,84.72z" fill="#000000" filter="url(#filter-hsyN9yK0)"/>
		</g>
		<g color="#ffffff" class="teamapps-effect-color-1">
			<path d="M888.44,697.68l-29.14,29.14l5.41,5.41c23.39,23.39 23.39,61.32 0,84.72l-47.77,47.77c-23.39,23.39 -61.32,23.39 -84.72,0l-5.41,-5.41l-29.14,29.14c-23.4,23.4 -61.33,23.39 -84.72,0l-5.41,-5.41l-5.42,5.42c-23.4,23.4 -61.33,23.39 -84.72,0l-47.77,-47.78c-23.39,-23.39 -23.39,-61.32 0,-84.71l76.91,-76.91l-201.59,-201.59l-76.91,76.91c-23.39,23.39 -61.32,23.39 -84.71,0l-47.78,-47.77c-23.4,-23.39 -23.4,-61.33 0,-84.72l5.42,-5.42l-5.41,-5.41c-23.4,-23.39 -23.4,-61.33 0,-84.72l29.14,-29.14l-5.41,-5.41c-23.39,-23.39 -23.39,-61.32 0,-84.72l47.77,-47.77c23.39,-23.39 61.32,-23.39 84.72,0l5.41,5.41l29.14,-29.14c23.4,-23.4 61.33,-23.39 84.72,0l5.41,5.41l5.42,-5.42c23.4,-23.4 61.33,-23.39 84.72,0l47.77,47.78c23.39,23.39 23.39,61.32 0,84.71l-76.91,76.91l201.59,201.59l76.91,-76.91c23.39,-23.39 61.32,-23.39 84.71,0l47.78,47.77c23.4,23.39 23.4,61.33 0,84.72l-5.42,5.42l5.41,5.41c23.4,23.39 23.4,61.33 0,84.72z" fill="currentColor"/>
		</g>
		<g>
			<g color="#1565c0" class="teamapps-color-1">
				<path d="M846.08,655.32l-71.5,71.5l47.77,47.77l-47.77,47.77l-47.77,-47.77l-71.5,71.5l-47.77,-47.78l-47.78,47.78l-47.77,-47.78l119.27,-119.27l-286.3,-286.3l-119.27,119.27l-47.78,-47.77l47.78,-47.78l-47.78,-47.77l71.5,-71.5l-47.77,-47.77l47.77,-47.77l47.77,47.77l71.5,-71.5l47.77,47.78l47.78,-47.78l47.77,47.78l-119.27,119.27l286.3,286.3l119.27,-119.27l47.78,47.77l-47.78,47.78z" fill="currentColor"/>
			</g>
		</g>
	</g>
</svg>