<svg version="1.1" xmlns="http://www.w3.org/2000/svg" xmlns:xlink="http://www.w3.org/1999/xlink" viewBox="0,0,1024,1024">
	<!-- Color names: teamapps-color-1, teamapps-effect-color-1 -->
	<desc>format_quote icon - Licensed under Apache License v2.0 (http://www.apache.org/licenses/LICENSE-2.0) - Created with Iconfu.com - Derivative work of Material icons (Copyright Google Inc.)</desc>
	<defs>
		<filter id="filter-Vw3Ic7Hh" x="-10%" y="-13%" width="169%" height="205%" color-interpolation-filters="sRGB">
			<feColorMatrix values="1 0 0 0 0 0 1 0 0 0 0 0 1 0 0 0 0 0 0.17 0" in="SourceGraphic"/>
			<feOffset dx="14.14" dy="14.14"/>
			<feGaussianBlur stdDeviation="11" result="blur0"/>
			<feColorMatrix values="1 0 0 0 0 0 1 0 0 0 0 0 1 0 0 0 0 0 0.25 0" in="SourceGraphic"/>
			<feOffset dx="21.21" dy="21.21"/>
			<feGaussianBlur stdDeviation="20" result="blur1"/>
			<feMerge>
				<feMergeNode in="blur0"/>
				<feMergeNode in="blur1"/>
			</feMerge>
		</filter>
	</defs>
	<g fill="none" fill-rule="nonzero" style="mix-blend-mode: normal">
		<path d="M545.41,605.31c-9.58,0 -18.64,-2.25 -26.67,-6.25l-53.38,106.76c-10.15,20.29 -30.89,33.11 -53.58,33.11h-100.22c-20.76,0 -40.04,-10.75 -50.96,-28.41c-10.91,-17.66 -11.91,-39.71 -2.62,-58.28l23.47,-46.93h-3.3c-33.08,0 -59.9,-26.82 -59.9,-59.9v-200.45c0,-33.08 26.82,-59.9 59.9,-59.9h200.45c12.37,0 23.87,3.75 33.41,10.18c9.54,-6.43 21.04,-10.18 33.41,-10.18h200.45c33.08,0 59.9,26.82 59.9,59.9v200.45c0,9.3 -2.17,18.47 -6.33,26.79l-66.82,133.63c-10.15,20.29 -30.89,33.11 -53.58,33.11h-100.22c-20.76,0 -40.04,-10.75 -50.96,-28.41c-10.91,-17.66 -11.91,-39.72 -2.62,-58.28l23.47,-46.93z" fill="#000000" filter="url(#filter-Vw3Ic7Hh)"/>
		<g color="#ffffff" class="teamapps-effect-color-1">
			<path d="M545.41,605.31c-9.58,0 -18.64,-2.25 -26.67,-6.25l-53.38,106.76c-10.15,20.29 -30.89,33.11 -53.58,33.11h-100.22c-20.76,0 -40.04,-10.75 -50.96,-28.41c-10.91,-17.66 -11.91,-39.71 -2.62,-58.28l23.47,-46.93h-3.3c-33.08,0 -59.9,-26.82 -59.9,-59.9v-200.45c0,-33.08 26.82,-59.9 59.9,-59.9h200.45c12.37,0 23.87,3.75 33.41,10.18c9.54,-6.43 21.04,-10.18 33.41,-10.18h200.45c33.08,0 59.9,26.82 59.9,59.9v200.45c0,9.3 -2.17,18.47 -6.33,26.79l-66.82,133.63c-10.15,20.29 -30.89,33.11 -53.58,33.11h-100.22c-20.76,0 -40.04,-10.75 -50.96,-28.41c-10.91,-17.66 -11.91,-39.72 -2.62,-58.28l23.47,-46.93z" fill="currentColor"/>
		</g>
		<g>
			<g color="#1565c0" class="teamapps-color-1">
				<path d="M378.37,545.41h-100.22v-200.45h200.45v200.45l-66.81,133.63h-100.22zM645.63,545.41h-100.22v-200.45h200.45v200.45l-66.82,133.63h-100.22z" fill="currentColor"/>
			</g>
		</g>
	</g>
</svg>