<svg version="1.1" xmlns="http://www.w3.org/2000/svg" xmlns:xlink="http://www.w3.org/1999/xlink" viewBox="0,0,1024,1024">
	<!-- Color names: teamapps-color-1, teamapps-effect-color-1 -->
	<desc>format_textdirection_l_to_r icon - Licensed under Apache License v2.0 (http://www.apache.org/licenses/LICENSE-2.0) - Created with Iconfu.com - Derivative work of Material icons (Copyright Google Inc.)</desc>
	<defs>
		<clipPath id="clip-ChORmiLc">
			<path d="M160.59,60.37h840.34v963.63h-840.34z"/>
		</clipPath>
		<filter id="filter-g7GcfOO9" x="-9%" y="-8%" width="162%" height="140%" color-interpolation-filters="sRGB">
			<feColorMatrix values="1 0 0 0 0 0 1 0 0 0 0 0 1 0 0 0 0 0 0.17 0" in="SourceGraphic"/>
			<feOffset dx="14.14" dy="14.14"/>
			<feGaussianBlur stdDeviation="11" result="blur0"/>
			<feColorMatrix values="1 0 0 0 0 0 1 0 0 0 0 0 1 0 0 0 0 0 0.25 0" in="SourceGraphic"/>
			<feOffset dx="21.21" dy="21.21"/>
			<feGaussianBlur stdDeviation="20" result="blur1"/>
			<feMerge>
				<feMergeNode in="blur0"/>
				<feMergeNode in="blur1"/>
			</feMerge>
		</filter>
	</defs>
	<g fill="none" fill-rule="nonzero" style="mix-blend-mode: normal">
		<g clip-path="url(#clip-ChORmiLc)">
			<path d="M218.24,311.55c0,-106.91 86.63,-193.54 193.54,-193.54h267.26c33.08,0 59.9,26.82 59.9,59.9v66.82c0,33.08 -26.82,59.9 -59.9,59.9h-6.91v214.66c17.89,-2.08 36.12,4 49.27,17.15l133.63,133.63c23.39,23.39 23.39,61.32 0,84.72l-133.63,133.63c-17.13,17.13 -42.9,22.26 -65.28,12.99c-22.38,-9.27 -36.98,-31.12 -36.98,-55.34v-40.32h-340.99c-33.08,0 -59.9,-26.82 -59.9,-59.9v-66.82c0,-33.08 26.82,-59.9 59.9,-59.9h74.12c-0.26,-2.27 -0.39,-4.57 -0.39,-6.91v-116.58c-77.59,-25.22 -133.63,-98.08 -133.63,-184.09z" fill="#000000" filter="url(#filter-g7GcfOO9)"/>
		</g>
		<g color="#ffffff" class="teamapps-effect-color-1">
			<path d="M218.24,311.55c0,-106.91 86.63,-193.54 193.54,-193.54h267.26c33.08,0 59.9,26.82 59.9,59.9v66.82c0,33.08 -26.82,59.9 -59.9,59.9h-6.91v214.66c17.89,-2.08 36.12,4 49.27,17.15l133.63,133.63c23.39,23.39 23.39,61.32 0,84.72l-133.63,133.63c-17.13,17.13 -42.9,22.26 -65.28,12.99c-22.38,-9.27 -36.98,-31.12 -36.98,-55.34v-40.32h-340.99c-33.08,0 -59.9,-26.82 -59.9,-59.9v-66.82c0,-33.08 26.82,-59.9 59.9,-59.9h74.12c-0.26,-2.27 -0.39,-4.57 -0.39,-6.91v-116.58c-77.59,-25.22 -133.63,-98.08 -133.63,-184.09z" fill="currentColor"/>
		</g>
		<g>
			<g color="#1565c0" class="teamapps-color-1">
				<path d="M278.14,311.55c0,-73.83 59.81,-133.63 133.63,-133.63h267.26v66.82h-66.81v367.49h-66.81v-367.49h-66.82v367.49h-66.81v-167.04c-73.83,0 -133.63,-59.81 -133.63,-133.63zM679.04,846.08v-100.22h-400.9v-66.82h400.9v-100.22l133.63,133.63z" fill="currentColor"/>
			</g>
		</g>
	</g>
</svg>