<svg version="1.1" xmlns="http://www.w3.org/2000/svg" xmlns:xlink="http://www.w3.org/1999/xlink" viewBox="0,0,1024,1024">
	<!-- Color names: teamapps-color-1, teamapps-effect-color-1 -->
	<desc>format_list_bulleted icon - Licensed under Apache License v2.0 (http://www.apache.org/licenses/LICENSE-2.0) - Created with Iconfu.com - Derivative work of Material icons (Copyright Google Inc.)</desc>
	<defs>
		<filter id="filter-LwakF5Y7" x="-8%" y="-10%" width="144%" height="164%" color-interpolation-filters="sRGB">
			<feColorMatrix values="1 0 0 0 0 0 1 0 0 0 0 0 1 0 0 0 0 0 0.17 0" in="SourceGraphic"/>
			<feOffset dx="14.14" dy="14.14"/>
			<feGaussianBlur stdDeviation="11" result="blur0"/>
			<feColorMatrix values="1 0 0 0 0 0 1 0 0 0 0 0 1 0 0 0 0 0 0.25 0" in="SourceGraphic"/>
			<feOffset dx="21.21" dy="21.21"/>
			<feGaussianBlur stdDeviation="20" result="blur1"/>
			<feMerge>
				<feMergeNode in="blur0"/>
				<feMergeNode in="blur1"/>
			</feMerge>
		</filter>
	</defs>
	<g fill="none" fill-rule="nonzero" style="mix-blend-mode: normal">
		<path d="M344.96,619.13h467.71c33.08,0 59.9,26.82 59.9,59.9v66.82c0,33.08 -26.82,59.9 -59.9,59.9h-467.71c-11.16,0 -21.6,-3.05 -30.54,-8.36c-19.01,15.64 -43.31,25.06 -69.68,25.06c-60.48,0 -110.02,-49.53 -110.02,-110.02c0,-44.21 26.38,-82.81 64.58,-100.2c-38.11,-17.28 -64.58,-55.64 -64.58,-100.24c0,-44.59 26.45,-82.94 64.54,-100.22c-38.09,-17.29 -64.54,-55.64 -64.54,-100.22c0,-60.81 49.21,-110.02 110.02,-110.02c26.53,0 50.85,9.36 69.84,24.97c8.91,-5.25 19.3,-8.27 30.39,-8.27h467.71c33.08,0 59.9,26.82 59.9,59.9v66.82c0,33.08 -26.82,59.9 -59.9,59.9h-467.71c-11.09,0 -21.48,-3.01 -30.39,-8.27c-7.38,6.06 -15.56,11.18 -24.36,15.18c8.8,4 16.98,9.12 24.36,15.18c8.91,-5.25 19.3,-8.27 30.39,-8.27h467.71c33.08,0 59.9,26.82 59.9,59.9v66.82c0,33.08 -26.82,59.9 -59.9,59.9h-467.71c-11.09,0 -21.48,-3.01 -30.39,-8.27c-7.39,6.07 -15.59,11.2 -24.4,15.2c8.8,4.01 16.97,9.14 24.33,15.2c8.92,-5.28 19.34,-8.31 30.46,-8.31z" fill="#000000" filter="url(#filter-LwakF5Y7)"/>
		<g color="#ffffff" class="teamapps-effect-color-1">
			<path d="M344.96,619.13h467.71c33.08,0 59.9,26.82 59.9,59.9v66.82c0,33.08 -26.82,59.9 -59.9,59.9h-467.71c-11.16,0 -21.6,-3.05 -30.54,-8.36c-19.01,15.64 -43.31,25.06 -69.68,25.06c-60.48,0 -110.02,-49.53 -110.02,-110.02c0,-44.21 26.38,-82.81 64.58,-100.2c-38.11,-17.28 -64.58,-55.64 -64.58,-100.24c0,-44.59 26.45,-82.94 64.54,-100.22c-38.09,-17.29 -64.54,-55.64 -64.54,-100.22c0,-60.81 49.21,-110.02 110.02,-110.02c26.53,0 50.85,9.36 69.84,24.97c8.91,-5.25 19.3,-8.27 30.39,-8.27h467.71c33.08,0 59.9,26.82 59.9,59.9v66.82c0,33.08 -26.82,59.9 -59.9,59.9h-467.71c-11.09,0 -21.48,-3.01 -30.39,-8.27c-7.38,6.06 -15.56,11.18 -24.36,15.18c8.8,4 16.98,9.12 24.36,15.18c8.91,-5.25 19.3,-8.27 30.39,-8.27h467.71c33.08,0 59.9,26.82 59.9,59.9v66.82c0,33.08 -26.82,59.9 -59.9,59.9h-467.71c-11.09,0 -21.48,-3.01 -30.39,-8.27c-7.39,6.07 -15.59,11.2 -24.4,15.2c8.8,4.01 16.97,9.14 24.33,15.2c8.92,-5.28 19.34,-8.31 30.46,-8.31z" fill="currentColor"/>
		</g>
		<g>
			<g color="#1565c0" class="teamapps-color-1">
				<path d="M344.96,679.04h467.71v66.82h-467.71zM344.96,478.59h467.71v66.82h-467.71zM812.67,278.14v66.82h-467.71v-66.82zM294.85,512c0,27.73 -22.39,50.11 -50.11,50.11c-27.73,0 -50.11,-22.39 -50.11,-50.11c0,-27.73 22.39,-50.11 50.11,-50.11c27.73,0 50.11,22.39 50.11,50.11zM294.85,311.55c0,27.73 -22.39,50.11 -50.11,50.11c-27.73,0 -50.11,-22.39 -50.11,-50.11c0,-27.73 22.39,-50.11 50.11,-50.11c27.73,0 50.11,22.39 50.11,50.11zM294.85,712.45c0,27.4 -22.71,50.11 -50.11,50.11c-27.4,0 -50.11,-22.71 -50.11,-50.11c0,-27.4 22.39,-50.11 50.11,-50.11c27.73,0 50.11,22.71 50.11,50.11z" fill="currentColor"/>
			</g>
		</g>
	</g>
</svg>