<svg version="1.1" xmlns="http://www.w3.org/2000/svg" xmlns:xlink="http://www.w3.org/1999/xlink" viewBox="0,0,1024,1024">
	<!-- Color names: teamapps-color-1, teamapps-effect-color-1 -->
	<desc>hotel icon - Licensed under Apache License v2.0 (http://www.apache.org/licenses/LICENSE-2.0) - Created with Iconfu.com - Derivative work of Material icons (Copyright Google Inc.)</desc>
	<defs>
		<clipPath id="clip-1BHZ1RoC">
			<path d="M26.97,967.52v-806.93h997.03v806.93z"/>
		</clipPath>
		<filter id="filter-fthElEZD" x="-7%" y="-10%" width="132%" height="166%" color-interpolation-filters="sRGB">
			<feColorMatrix values="1 0 0 0 0 0 1 0 0 0 0 0 1 0 0 0 0 0 0.17 0" in="SourceGraphic"/>
			<feOffset dx="14.14" dy="14.14"/>
			<feGaussianBlur stdDeviation="11" result="blur0"/>
			<feColorMatrix values="1 0 0 0 0 0 1 0 0 0 0 0 1 0 0 0 0 0 0.25 0" in="SourceGraphic"/>
			<feOffset dx="21.21" dy="21.21"/>
			<feGaussianBlur stdDeviation="20" result="blur1"/>
			<feMerge>
				<feMergeNode in="blur0"/>
				<feMergeNode in="blur1"/>
			</feMerge>
		</filter>
	</defs>
	<g fill="none" fill-rule="nonzero" style="mix-blend-mode: normal">
		<g clip-path="url(#clip-1BHZ1RoC)">
			<path d="M939.39,478.59v300.67c0,33.08 -26.82,59.9 -59.9,59.9h-66.81c-33.08,0 -59.9,-26.82 -59.9,-59.9v-40.32h-481.54v40.32c0,33.08 -26.82,59.9 -59.9,59.9h-66.81c-33.08,0 -59.9,-26.82 -59.9,-59.9v-501.12c0,-33.08 26.82,-59.9 59.9,-59.9h66.81c33.08,0 59.9,26.82 59.9,59.9v24.82c22.06,-11.44 47.13,-17.9 73.73,-17.9c31.37,0 60.6,8.98 85.28,24.52c10.9,-14.87 28.49,-24.52 48.34,-24.52h267.27c106.91,0 193.53,86.62 193.53,193.53z" fill="#000000" filter="url(#filter-fthElEZD)"/>
		</g>
		<g color="#ffffff" class="teamapps-effect-color-1">
			<path d="M939.39,478.59v300.67c0,33.08 -26.82,59.9 -59.9,59.9h-66.81c-33.08,0 -59.9,-26.82 -59.9,-59.9v-40.32h-481.54v40.32c0,33.08 -26.82,59.9 -59.9,59.9h-66.81c-33.08,0 -59.9,-26.82 -59.9,-59.9v-501.12c0,-33.08 26.82,-59.9 59.9,-59.9h66.81c33.08,0 59.9,26.82 59.9,59.9v24.82c22.06,-11.44 47.13,-17.9 73.73,-17.9c31.37,0 60.6,8.98 85.28,24.52c10.9,-14.87 28.49,-24.52 48.34,-24.52h267.27c106.91,0 193.53,86.62 193.53,193.53z" fill="currentColor"/>
		</g>
		<g>
			<g color="#1565c0" class="teamapps-color-1">
				<path d="M879.49,478.59v300.67h-66.81v-100.22h-601.34v100.22h-66.81v-501.12h66.81v300.67h267.26v-233.85h267.27c73.83,0 133.63,59.8 133.63,133.63zM244.74,445.19c0,-55.46 44.76,-100.22 100.22,-100.22c55.46,0 100.22,44.76 100.22,100.22c0,55.46 -44.76,100.22 -100.22,100.22c-55.46,0 -100.22,-44.76 -100.22,-100.22z" fill="currentColor"/>
			</g>
		</g>
	</g>
</svg>