<svg version="1.1" xmlns="http://www.w3.org/2000/svg" xmlns:xlink="http://www.w3.org/1999/xlink" viewBox="0,0,1024,1024">
	<!-- Color names: teamapps-color-1, teamapps-effect-color-1 -->
	<desc>line_style icon - Licensed under Apache License v2.0 (http://www.apache.org/licenses/LICENSE-2.0) - Created with Iconfu.com - Derivative work of Material icons (Copyright Google Inc.)</desc>
	<defs>
		<filter id="filter-dW9fRHJh" x="-8%" y="-9%" width="147%" height="157%" color-interpolation-filters="sRGB">
			<feColorMatrix values="1 0 0 0 0 0 1 0 0 0 0 0 1 0 0 0 0 0 0.17 0" in="SourceGraphic"/>
			<feOffset dx="14.14" dy="14.14"/>
			<feGaussianBlur stdDeviation="11" result="blur0"/>
			<feColorMatrix values="1 0 0 0 0 0 1 0 0 0 0 0 1 0 0 0 0 0 0.25 0" in="SourceGraphic"/>
			<feOffset dx="21.21" dy="21.21"/>
			<feGaussianBlur stdDeviation="20" result="blur1"/>
			<feMerge>
				<feMergeNode in="blur0"/>
				<feMergeNode in="blur1"/>
			</feMerge>
		</filter>
	</defs>
	<g fill="none" fill-rule="nonzero" style="mix-blend-mode: normal">
		<path d="M872.58,244.74v133.63c0,12.37 -3.75,23.87 -10.18,33.41c6.43,9.54 10.18,21.04 10.18,33.41v66.81c0,12.37 -3.75,23.86 -10.17,33.41c6.42,9.54 10.17,21.04 10.17,33.41v66.82c0,12.37 -3.75,23.86 -10.17,33.41c6.42,9.54 10.17,21.04 10.17,33.41v66.81c0,33.08 -26.82,59.9 -59.9,59.9h-66.81c-12.37,0 -23.87,-3.75 -33.41,-10.18c-9.54,6.43 -21.04,10.18 -33.41,10.18h-66.81c-12.37,0 -23.86,-3.75 -33.41,-10.17c-9.54,6.42 -21.04,10.17 -33.41,10.17h-66.82c-12.37,0 -23.86,-3.75 -33.41,-10.17c-9.54,6.42 -21.04,10.17 -33.41,10.17h-66.81c-12.37,0 -23.87,-3.75 -33.41,-10.18c-9.54,6.43 -21.04,10.18 -33.41,10.18h-66.81c-33.08,0 -59.9,-26.82 -59.9,-59.9v-66.81c0,-12.37 3.75,-23.86 10.17,-33.41c-6.42,-9.54 -10.17,-21.04 -10.17,-33.41v-66.82c0,-12.37 3.75,-23.86 10.17,-33.41c-6.42,-9.54 -10.17,-21.04 -10.17,-33.41v-66.81c0,-12.37 3.75,-23.87 10.18,-33.41c-6.43,-9.54 -10.18,-21.04 -10.18,-33.41v-133.63c0,-33.08 26.82,-59.9 59.9,-59.9h601.34c33.08,0 59.9,26.82 59.9,59.9z" fill="#000000" filter="url(#filter-dW9fRHJh)"/>
		<g color="#ffffff" class="teamapps-effect-color-1">
			<path d="M872.58,244.74v133.63c0,12.37 -3.75,23.87 -10.18,33.41c6.43,9.54 10.18,21.04 10.18,33.41v66.81c0,12.37 -3.75,23.86 -10.17,33.41c6.42,9.54 10.17,21.04 10.17,33.41v66.82c0,12.37 -3.75,23.86 -10.17,33.41c6.42,9.54 10.17,21.04 10.17,33.41v66.81c0,33.08 -26.82,59.9 -59.9,59.9h-66.81c-12.37,0 -23.87,-3.75 -33.41,-10.18c-9.54,6.43 -21.04,10.18 -33.41,10.18h-66.81c-12.37,0 -23.86,-3.75 -33.41,-10.17c-9.54,6.42 -21.04,10.17 -33.41,10.17h-66.82c-12.37,0 -23.86,-3.75 -33.41,-10.17c-9.54,6.42 -21.04,10.17 -33.41,10.17h-66.81c-12.37,0 -23.87,-3.75 -33.41,-10.18c-9.54,6.43 -21.04,10.18 -33.41,10.18h-66.81c-33.08,0 -59.9,-26.82 -59.9,-59.9v-66.81c0,-12.37 3.75,-23.86 10.17,-33.41c-6.42,-9.54 -10.17,-21.04 -10.17,-33.41v-66.82c0,-12.37 3.75,-23.86 10.17,-33.41c-6.42,-9.54 -10.17,-21.04 -10.17,-33.41v-66.81c0,-12.37 3.75,-23.87 10.18,-33.41c-6.43,-9.54 -10.18,-21.04 -10.18,-33.41v-133.63c0,-33.08 26.82,-59.9 59.9,-59.9h601.34c33.08,0 59.9,26.82 59.9,59.9z" fill="currentColor"/>
		</g>
		<g>
			<g color="#1565c0" class="teamapps-color-1">
				<path d="M812.67,244.74v133.63h-601.34v-133.63zM545.41,445.19h267.26v66.81h-267.26zM211.33,445.19h267.26v66.81h-267.26zM645.63,578.81h167.04v66.82h-167.04zM211.33,578.81h167.04v66.82h-167.04zM428.48,578.81h167.05v66.82h-167.05zM344.96,712.45h66.81v66.81h-66.81zM745.86,712.45h66.81v66.81h-66.81zM211.33,712.45h66.81v66.81h-66.81zM478.59,712.45h66.82v66.81h-66.82zM612.22,712.45h66.81v66.81h-66.81z" fill="currentColor"/>
			</g>
		</g>
	</g>
</svg>