<svg version="1.1" xmlns="http://www.w3.org/2000/svg" xmlns:xlink="http://www.w3.org/1999/xlink" viewBox="0,0,1024,1024">
	<!-- Color names: teamapps-color-1, teamapps-effect-color-1 -->
	<desc>local_dining icon - Licensed under Apache License v2.0 (http://www.apache.org/licenses/LICENSE-2.0) - Created with Iconfu.com - Derivative work of Material icons (Copyright Google Inc.)</desc>
	<defs>
		<clipPath id="clip-EimyEcFv">
			<path d="M85.1,1010.62v-912.64h938.9v912.64z"/>
		</clipPath>
		<filter id="filter-Bd6eRIjY" x="-8%" y="-8%" width="144%" height="148%" color-interpolation-filters="sRGB">
			<feColorMatrix values="1 0 0 0 0 0 1 0 0 0 0 0 1 0 0 0 0 0 0.17 0" in="SourceGraphic"/>
			<feOffset dx="14.14" dy="14.14"/>
			<feGaussianBlur stdDeviation="11" result="blur0"/>
			<feColorMatrix values="1 0 0 0 0 0 1 0 0 0 0 0 1 0 0 0 0 0 0.25 0" in="SourceGraphic"/>
			<feOffset dx="21.21" dy="21.21"/>
			<feGaussianBlur stdDeviation="20" result="blur1"/>
			<feMerge>
				<feMergeNode in="blur0"/>
				<feMergeNode in="blur1"/>
			</feMerge>
		</filter>
	</defs>
	<g fill="none" fill-rule="nonzero" style="mix-blend-mode: normal">
		<g clip-path="url(#clip-EimyEcFv)">
			<path d="M831.31,732.89c23.39,23.39 23.39,61.32 0,84.72l-47.11,47.11c-23.39,23.39 -61.32,23.39 -84.72,0l-187.55,-187.55l-187.82,187.28c-23.4,23.34 -61.29,23.31 -84.66,-0.06l-47.11,-47.11c-23.39,-23.39 -23.39,-61.32 0,-84.72l140.21,-140.21l-133.33,-133.01c-75.25,-75.74 -75.45,-198.09 0.14,-273.67c23.38,-23.38 61.29,-23.4 84.69,-0.03l206.29,206c2.11,-58.13 29.87,-116.91 74.16,-161.2c76.12,-75.72 207.09,-109.15 289.17,-27.06c82.46,82.46 48.75,213.37 -27.06,289.17c-44.36,44.36 -103.26,72.14 -161.49,74.17z" fill="#000000" filter="url(#filter-Bd6eRIjY)"/>
		</g>
		<g color="#ffffff" class="teamapps-effect-color-1">
			<path d="M831.31,732.89c23.39,23.39 23.39,61.32 0,84.72l-47.11,47.11c-23.39,23.39 -61.32,23.39 -84.72,0l-187.55,-187.55l-187.82,187.28c-23.4,23.34 -61.29,23.31 -84.66,-0.06l-47.11,-47.11c-23.39,-23.39 -23.39,-61.32 0,-84.72l140.21,-140.21l-133.33,-133.01c-75.25,-75.74 -75.45,-198.09 0.14,-273.67c23.38,-23.38 61.29,-23.4 84.69,-0.03l206.29,206c2.11,-58.13 29.87,-116.91 74.16,-161.2c76.12,-75.72 207.09,-109.15 289.17,-27.06c82.46,82.46 48.75,213.37 -27.06,289.17c-44.36,44.36 -103.26,72.14 -161.49,74.17z" fill="currentColor"/>
		</g>
		<g>
			<g color="#1565c0" class="teamapps-color-1">
				<path d="M559.11,545.41l229.85,229.84l-47.11,47.11l-229.85,-229.84l-230.18,229.51l-47.11,-47.11l326.06,-326.06c-23.72,-51.11 -7.02,-122.94 46.1,-176.06c64.14,-63.81 155.68,-75.83 204.46,-27.06c49.11,49.11 36.75,140.65 -27.06,204.46c-53.12,53.12 -124.94,69.82 -176.06,46.1zM241.73,417.12c-52.12,-52.45 -52.12,-136.98 0,-189.09l234.52,234.2l-94.55,94.54z" fill="currentColor"/>
			</g>
		</g>
	</g>
</svg>