<svg version="1.1" xmlns="http://www.w3.org/2000/svg" xmlns:xlink="http://www.w3.org/1999/xlink" viewBox="0,0,1024,1024">
	<!-- Color names: teamapps-color-1, teamapps-effect-color-1 -->
	<desc>movie_creation icon - Licensed under Apache License v2.0 (http://www.apache.org/licenses/LICENSE-2.0) - Created with Iconfu.com - Derivative work of Material icons (Copyright Google Inc.)</desc>
	<defs>
		<clipPath id="clip-z2tyYYhv">
			<path d="M60.37,967.52v-840.33h963.63v840.33z"/>
		</clipPath>
		<filter id="filter-6mznZnys" x="-8%" y="-9%" width="140%" height="157%" color-interpolation-filters="sRGB">
			<feColorMatrix values="1 0 0 0 0 0 1 0 0 0 0 0 1 0 0 0 0 0 0.17 0" in="SourceGraphic"/>
			<feOffset dx="14.14" dy="14.14"/>
			<feGaussianBlur stdDeviation="11" result="blur0"/>
			<feColorMatrix values="1 0 0 0 0 0 1 0 0 0 0 0 1 0 0 0 0 0 0.25 0" in="SourceGraphic"/>
			<feOffset dx="21.21" dy="21.21"/>
			<feGaussianBlur stdDeviation="20" result="blur1"/>
			<feMerge>
				<feMergeNode in="blur0"/>
				<feMergeNode in="blur1"/>
			</feMerge>
		</filter>
	</defs>
	<g fill="none" fill-rule="nonzero" style="mix-blend-mode: normal">
		<g clip-path="url(#clip-z2tyYYhv)">
			<path d="M905.99,244.74v467.71c0,69.84 -56.9,126.72 -126.73,126.72h-534.52c-69.82,0 -126.73,-56.88 -126.73,-126.72l0.34,-400.93c0.01,-69.43 56.18,-126.69 126.39,-126.69h33.4c20.35,0 39.13,10.31 50.11,27.08c11.05,-16.87 29.88,-27.08 50.11,-27.08h66.82c20.35,0 39.13,10.31 50.11,27.08c11.05,-16.87 29.88,-27.08 50.11,-27.08h66.81c20.35,0 39.13,10.31 50.11,27.08c11.05,-16.87 29.88,-27.08 50.11,-27.08h133.63c33.08,0 59.9,26.82 59.9,59.9z" fill="#000000" filter="url(#filter-6mznZnys)"/>
		</g>
		<g color="#ffffff" class="teamapps-effect-color-1">
			<path d="M905.99,244.74v467.71c0,69.84 -56.9,126.72 -126.73,126.72h-534.52c-69.82,0 -126.73,-56.88 -126.73,-126.72l0.34,-400.93c0.01,-69.43 56.18,-126.69 126.39,-126.69h33.4c20.35,0 39.13,10.31 50.11,27.08c11.05,-16.87 29.88,-27.08 50.11,-27.08h66.82c20.35,0 39.13,10.31 50.11,27.08c11.05,-16.87 29.88,-27.08 50.11,-27.08h66.81c20.35,0 39.13,10.31 50.11,27.08c11.05,-16.87 29.88,-27.08 50.11,-27.08h133.63c33.08,0 59.9,26.82 59.9,59.9z" fill="currentColor"/>
		</g>
		<g>
			<g color="#1565c0" class="teamapps-color-1">
				<path d="M846.08,244.74v467.71c0,36.75 -30.08,66.81 -66.82,66.81h-534.52c-36.75,0 -66.82,-30.07 -66.82,-66.81l0.34,-400.9c0,-36.75 29.74,-66.81 66.48,-66.81h33.4l66.82,133.63h100.22l-66.82,-133.63h66.82l66.81,133.63h100.22l-66.81,-133.63h66.81l66.81,133.63h100.22l-66.81,-133.63z" fill="currentColor"/>
			</g>
		</g>
	</g>
</svg>