<svg version="1.1" xmlns="http://www.w3.org/2000/svg" xmlns:xlink="http://www.w3.org/1999/xlink" viewBox="0,0,1024,1024">
	<!-- Color names: teamapps-color-1, teamapps-effect-color-1 -->
	<desc>pages icon - Licensed under Apache License v2.0 (http://www.apache.org/licenses/LICENSE-2.0) - Created with Iconfu.com - Derivative work of Material icons (Copyright Google Inc.)</desc>
	<defs>
		<filter id="filter-1ZbB8aVW" x="-8%" y="-8%" width="147%" height="147%" color-interpolation-filters="sRGB">
			<feColorMatrix values="1 0 0 0 0 0 1 0 0 0 0 0 1 0 0 0 0 0 0.17 0" in="SourceGraphic"/>
			<feOffset dx="14.14" dy="14.14"/>
			<feGaussianBlur stdDeviation="11" result="blur0"/>
			<feColorMatrix values="1 0 0 0 0 0 1 0 0 0 0 0 1 0 0 0 0 0 0.25 0" in="SourceGraphic"/>
			<feOffset dx="21.21" dy="21.21"/>
			<feGaussianBlur stdDeviation="20" result="blur1"/>
			<feMerge>
				<feMergeNode in="blur0"/>
				<feMergeNode in="blur1"/>
			</feMerge>
		</filter>
	</defs>
	<g fill="none" fill-rule="nonzero" style="mix-blend-mode: normal">
		<path d="M872.58,545.41v200.45c0,69.83 -56.89,126.72 -126.72,126.72h-200.45c-12.37,0 -23.87,-3.75 -33.41,-10.18c-9.54,6.43 -21.04,10.18 -33.41,10.18h-200.45c-69.83,0 -126.72,-56.89 -126.72,-126.72v-200.45c0,-12.37 3.75,-23.87 10.18,-33.41c-6.43,-9.54 -10.18,-21.04 -10.18,-33.41v-200.45c0,-69.83 56.89,-126.72 126.72,-126.72h200.45c12.37,0 23.87,3.75 33.41,10.18c9.54,-6.43 21.04,-10.18 33.41,-10.18h200.45c69.83,0 126.72,56.89 126.72,126.72v200.45c0,12.37 -3.75,23.87 -10.18,33.41c6.43,9.54 10.18,21.04 10.18,33.41z" fill="#000000" filter="url(#filter-1ZbB8aVW)"/>
		<g color="#ffffff" class="teamapps-effect-color-1">
			<path d="M872.58,545.41v200.45c0,69.83 -56.89,126.72 -126.72,126.72h-200.45c-12.37,0 -23.87,-3.75 -33.41,-10.18c-9.54,6.43 -21.04,10.18 -33.41,10.18h-200.45c-69.83,0 -126.72,-56.89 -126.72,-126.72v-200.45c0,-12.37 3.75,-23.87 10.18,-33.41c-6.43,-9.54 -10.18,-21.04 -10.18,-33.41v-200.45c0,-69.83 56.89,-126.72 126.72,-126.72h200.45c12.37,0 23.87,3.75 33.41,10.18c9.54,-6.43 21.04,-10.18 33.41,-10.18h200.45c69.83,0 126.72,56.89 126.72,126.72v200.45c0,12.37 -3.75,23.87 -10.18,33.41c6.43,9.54 10.18,21.04 10.18,33.41z" fill="currentColor"/>
		</g>
		<g>
			<g color="#1565c0" class="teamapps-color-1">
				<path d="M645.63,545.41h167.04v200.45c0,36.75 -30.07,66.81 -66.81,66.81h-200.45v-167.04l133.63,33.4zM344.96,679.04l133.63,-33.4v167.04h-200.45c-36.75,0 -66.81,-30.07 -66.81,-66.81v-200.45h167.04zM812.67,278.14v200.45h-167.04l33.4,-133.63l-133.63,33.4v-167.04h200.45c36.75,0 66.81,30.07 66.81,66.81zM278.14,211.33h200.45v167.04l-133.63,-33.4l33.4,133.63h-167.04v-200.45c0,-36.75 30.07,-66.81 66.81,-66.81z" fill="currentColor"/>
			</g>
		</g>
	</g>
</svg>