<svg version="1.1" xmlns="http://www.w3.org/2000/svg" xmlns:xlink="http://www.w3.org/1999/xlink" viewBox="0,0,1024,1024">
	<!-- Color names: teamapps-color-1, teamapps-effect-color-1 -->
	<desc>panorama_horizontal icon - Licensed under Apache License v2.0 (http://www.apache.org/licenses/LICENSE-2.0) - Created with Iconfu.com - Derivative work of Material icons (Copyright Google Inc.)</desc>
	<defs>
		<clipPath id="clip-meY0W7Rz">
			<path d="M60.37,967.52v-840.33h963.63v840.33z"/>
		</clipPath>
		<filter id="filter-5pjXzL2Z" x="-8%" y="-9%" width="140%" height="157%" color-interpolation-filters="sRGB">
			<feColorMatrix values="1 0 0 0 0 0 1 0 0 0 0 0 1 0 0 0 0 0 0.17 0" in="SourceGraphic"/>
			<feOffset dx="14.14" dy="14.14"/>
			<feGaussianBlur stdDeviation="11" result="blur0"/>
			<feColorMatrix values="1 0 0 0 0 0 1 0 0 0 0 0 1 0 0 0 0 0 0.25 0" in="SourceGraphic"/>
			<feOffset dx="21.21" dy="21.21"/>
			<feGaussianBlur stdDeviation="20" result="blur1"/>
			<feMerge>
				<feMergeNode in="blur0"/>
				<feMergeNode in="blur1"/>
			</feMerge>
		</filter>
	</defs>
	<g fill="none" fill-rule="nonzero" style="mix-blend-mode: normal">
		<g clip-path="url(#clip-meY0W7Rz)">
			<path d="M905.99,265.79v492.43c0,42.76 -31.26,80.95 -78.95,80.95c-11.7,0 -22.04,-2.41 -30.88,-5.63c-0.09,-0.03 -0.18,-0.06 -0.26,-0.1c-91.55,-33.94 -187.77,-51.07 -283.9,-51.07c-96.25,0 -192.36,16.82 -283.69,50.99c-0.14,0.05 -0.27,0.1 -0.41,0.15c-8.75,3.19 -19.16,5.65 -30.94,5.65c-48.07,0 -78.95,-38.24 -78.95,-80.61v-492.77c0,-41.97 30.19,-80.95 78.95,-80.95c11.03,0 21.67,2.27 30.88,5.63c0.09,0.03 0.18,0.06 0.26,0.1c91.55,33.94 187.77,51.07 283.9,51.07c96.25,0 192.36,-16.82 283.69,-50.99c0.14,-0.05 0.27,-0.1 0.41,-0.15c8.75,-3.19 19.16,-5.65 30.94,-5.65c47.68,0 78.95,38.19 78.95,80.95z" fill="#000000" filter="url(#filter-5pjXzL2Z)"/>
		</g>
		<g color="#ffffff" class="teamapps-effect-color-1">
			<path d="M905.99,265.79v492.43c0,42.76 -31.26,80.95 -78.95,80.95c-11.7,0 -22.04,-2.41 -30.88,-5.63c-0.09,-0.03 -0.18,-0.06 -0.26,-0.1c-91.55,-33.94 -187.77,-51.07 -283.9,-51.07c-96.25,0 -192.36,16.82 -283.69,50.99c-0.14,0.05 -0.27,0.1 -0.41,0.15c-8.75,3.19 -19.16,5.65 -30.94,5.65c-48.07,0 -78.95,-38.24 -78.95,-80.61v-492.77c0,-41.97 30.19,-80.95 78.95,-80.95c11.03,0 21.67,2.27 30.88,5.63c0.09,0.03 0.18,0.06 0.26,0.1c91.55,33.94 187.77,51.07 283.9,51.07c96.25,0 192.36,-16.82 283.69,-50.99c0.14,-0.05 0.27,-0.1 0.41,-0.15c8.75,-3.19 19.16,-5.65 30.94,-5.65c47.68,0 78.95,38.19 78.95,80.95z" fill="currentColor"/>
		</g>
		<g>
			<g color="#1565c0" class="teamapps-color-1">
				<path d="M846.08,265.79v492.43c0,13.37 -8.02,21.05 -19.04,21.05c-3.34,0 -6.69,-0.67 -10.36,-2c-98.22,-36.42 -201.45,-54.79 -304.68,-54.79c-103.23,0 -206.46,18.04 -304.68,54.79c-3.67,1.34 -7.02,2 -10.36,2c-11.36,0 -19.04,-7.68 -19.04,-20.71v-492.77c0,-13.37 7.68,-21.05 19.04,-21.05c3.01,0 6.69,0.67 10.36,2c98.22,36.42 201.45,54.79 304.68,54.79c103.23,0 206.46,-18.04 304.68,-54.79c3.67,-1.34 7.02,-2 10.36,-2c11.02,0 19.04,7.68 19.04,21.05zM779.26,329.59c-86.86,26.06 -176.39,39.09 -267.26,38.75c-90.87,0 -180.4,-13.03 -267.26,-38.75v364.48c86.86,-25.72 176.39,-38.75 267.26,-38.75c90.87,0 180.4,13.03 267.26,38.75z" fill="currentColor"/>
			</g>
		</g>
	</g>
</svg>