<svg version="1.1" xmlns="http://www.w3.org/2000/svg" xmlns:xlink="http://www.w3.org/1999/xlink" viewBox="0,0,1024,1024">
	<!-- Color names: teamapps-color-1, teamapps-effect-color-1 -->
	<desc>people_outline icon - Licensed under Apache License v2.0 (http://www.apache.org/licenses/LICENSE-2.0) - Created with Iconfu.com - Derivative work of Material icons (Copyright Google Inc.)</desc>
	<defs>
		<clipPath id="clip-uV88CP18">
			<path d="M26.97,934.12v-773.53h997.03v773.53z"/>
		</clipPath>
		<filter id="filter-RDy4vMID" x="-7%" y="-10%" width="132%" height="169%" color-interpolation-filters="sRGB">
			<feColorMatrix values="1 0 0 0 0 0 1 0 0 0 0 0 1 0 0 0 0 0 0.17 0" in="SourceGraphic"/>
			<feOffset dx="14.14" dy="14.14"/>
			<feGaussianBlur stdDeviation="11" result="blur0"/>
			<feColorMatrix values="1 0 0 0 0 0 1 0 0 0 0 0 1 0 0 0 0 0 0.25 0" in="SourceGraphic"/>
			<feOffset dx="21.21" dy="21.21"/>
			<feGaussianBlur stdDeviation="20" result="blur1"/>
			<feMerge>
				<feMergeNode in="blur0"/>
				<feMergeNode in="blur1"/>
			</feMerge>
		</filter>
	</defs>
	<g fill="none" fill-rule="nonzero" style="mix-blend-mode: normal">
		<g clip-path="url(#clip-uV88CP18)">
			<path d="M939.39,653.98v91.88c0,33.08 -26.82,59.9 -59.9,59.9h-734.97c-33.08,0 -59.9,-26.82 -59.9,-59.9v-91.88c0,-78.91 70.54,-122.26 141.74,-145.14c-25.9,-30.76 -41.52,-70.46 -41.52,-113.77c0,-97.56 79.26,-176.84 176.83,-176.84c63.43,0 119.13,33.51 150.34,83.77c31.21,-50.26 86.9,-83.77 150.34,-83.77c97.57,0 176.83,79.28 176.83,176.84c0,43.31 -15.62,83 -41.52,113.77c71.2,22.88 141.74,66.23 141.74,145.14z" fill="#000000" filter="url(#filter-RDy4vMID)"/>
		</g>
		<g color="#ffffff" class="teamapps-effect-color-1">
			<path d="M939.39,653.98v91.88c0,33.08 -26.82,59.9 -59.9,59.9h-734.97c-33.08,0 -59.9,-26.82 -59.9,-59.9v-91.88c0,-78.91 70.54,-122.26 141.74,-145.14c-25.9,-30.76 -41.52,-70.46 -41.52,-113.77c0,-97.56 79.26,-176.84 176.83,-176.84c63.43,0 119.13,33.51 150.34,83.77c31.21,-50.26 86.9,-83.77 150.34,-83.77c97.57,0 176.83,79.28 176.83,176.84c0,43.31 -15.62,83 -41.52,113.77c71.2,22.88 141.74,66.23 141.74,145.14z" fill="currentColor"/>
		</g>
		<g>
			<g color="#1565c0" class="teamapps-color-1">
				<path d="M879.49,653.98v91.88h-734.97v-91.88c0,-72.5 144.65,-108.57 217.15,-108.57c40.09,0 102.57,11.02 150.34,33.4c47.77,-22.05 110.25,-33.4 150.34,-33.4c72.5,0 217.15,36.07 217.15,108.57zM244.74,395.07c0,-64.48 52.45,-116.93 116.93,-116.93c64.48,0 116.93,52.45 116.93,116.93c0,64.48 -52.45,116.93 -116.93,116.93c-64.48,0 -116.93,-52.45 -116.93,-116.93zM545.41,395.07c0,-64.48 52.45,-116.93 116.93,-116.93c64.48,0 116.93,52.45 116.93,116.93c0,64.48 -52.45,116.93 -116.93,116.93c-64.48,0 -116.93,-52.45 -116.93,-116.93zM528.7,653.98c0,-18.04 -85.52,-58.46 -167.04,-58.46c-81.52,0 -167.04,40.42 -167.04,58.46v41.77h334.07zM829.37,653.98c0,-18.04 -85.52,-58.46 -167.04,-58.46c-35.42,0 -71.49,7.68 -100.89,17.7c10.69,12.03 17.37,25.38 17.37,40.76v41.77h250.56zM294.85,395.07c0,36.75 30.07,66.81 66.81,66.81c36.75,0 66.81,-30.07 66.81,-66.81c0,-36.75 -30.07,-66.82 -66.81,-66.82c-36.75,0 -66.81,30.08 -66.81,66.82zM595.52,395.07c0,36.75 30.07,66.81 66.81,66.81c36.75,0 66.81,-30.07 66.81,-66.81c0,-36.75 -30.07,-66.82 -66.81,-66.82c-36.75,0 -66.81,30.08 -66.81,66.82z" fill="currentColor"/>
			</g>
		</g>
	</g>
</svg>