<svg version="1.1" xmlns="http://www.w3.org/2000/svg" xmlns:xlink="http://www.w3.org/1999/xlink" viewBox="0,0,1024,1024">
	<!-- Color names: teamapps-color-1, teamapps-effect-color-1 -->
	<desc>person icon - Licensed under Apache License v2.0 (http://www.apache.org/licenses/LICENSE-2.0) - Created with Iconfu.com - Derivative work of Material icons (Copyright Google Inc.)</desc>
	<defs>
		<filter id="filter-ocPR4MHd" x="-9%" y="-9%" width="157%" height="157%" color-interpolation-filters="sRGB">
			<feColorMatrix values="1 0 0 0 0 0 1 0 0 0 0 0 1 0 0 0 0 0 0.17 0" in="SourceGraphic"/>
			<feOffset dx="14.14" dy="14.14"/>
			<feGaussianBlur stdDeviation="11" result="blur0"/>
			<feColorMatrix values="1 0 0 0 0 0 1 0 0 0 0 0 1 0 0 0 0 0 0.25 0" in="SourceGraphic"/>
			<feOffset dx="21.21" dy="21.21"/>
			<feGaussianBlur stdDeviation="20" result="blur1"/>
			<feMerge>
				<feMergeNode in="blur0"/>
				<feMergeNode in="blur1"/>
			</feMerge>
		</filter>
	</defs>
	<g fill="none" fill-rule="nonzero" style="mix-blend-mode: normal">
		<path d="M839.17,712.45v66.81c0,33.08 -26.82,59.9 -59.9,59.9h-534.52c-33.08,0 -59.9,-26.82 -59.9,-59.9v-66.81c0,-105 115.16,-156.05 212.15,-178.39c-47.64,-35.25 -78.53,-91.85 -78.53,-155.69c0,-106.92 86.63,-193.53 193.54,-193.53c106.91,0 193.54,86.61 193.54,193.53c0,63.84 -30.88,120.44 -78.53,155.69c97,22.35 212.15,73.4 212.15,178.39z" fill="#000000" filter="url(#filter-ocPR4MHd)"/>
		<g color="#ffffff" class="teamapps-effect-color-1">
			<path d="M839.17,712.45v66.81c0,33.08 -26.82,59.9 -59.9,59.9h-534.52c-33.08,0 -59.9,-26.82 -59.9,-59.9v-66.81c0,-105 115.16,-156.05 212.15,-178.39c-47.64,-35.25 -78.53,-91.85 -78.53,-155.69c0,-106.92 86.63,-193.53 193.54,-193.53c106.91,0 193.54,86.61 193.54,193.53c0,63.84 -30.88,120.44 -78.53,155.69c97,22.35 212.15,73.4 212.15,178.39z" fill="currentColor"/>
		</g>
		<g>
			<g color="#1565c0" class="teamapps-color-1">
				<path d="M779.26,712.45v66.81h-534.52v-66.81c0,-88.86 178.06,-133.63 267.26,-133.63c89.2,0 267.26,44.77 267.26,133.63zM378.37,378.37c0,-73.83 59.81,-133.63 133.63,-133.63c73.83,0 133.63,59.8 133.63,133.63c0,73.83 -59.81,133.63 -133.63,133.63c-73.83,0 -133.63,-59.81 -133.63,-133.63z" fill="currentColor"/>
			</g>
		</g>
	</g>
</svg>