<svg version="1.1" xmlns="http://www.w3.org/2000/svg" xmlns:xlink="http://www.w3.org/1999/xlink" viewBox="0,0,1024,1024">
	<!-- Color names: teamapps-color-1, teamapps-effect-color-1 -->
	<desc>phonelink_ring icon - Licensed under Apache License v2.0 (http://www.apache.org/licenses/LICENSE-2.0) - Created with Iconfu.com - Derivative work of Material icons (Copyright Google Inc.)</desc>
	<defs>
		<clipPath id="clip-vxThhKdB">
			<path d="M60.37,26.97h963.63v997.03h-963.63z"/>
		</clipPath>
		<filter id="filter-im0ZdBsw" x="-8%" y="-7%" width="140%" height="132%" color-interpolation-filters="sRGB">
			<feColorMatrix values="1 0 0 0 0 0 1 0 0 0 0 0 1 0 0 0 0 0 0.17 0" in="SourceGraphic"/>
			<feOffset dx="14.14" dy="14.14"/>
			<feGaussianBlur stdDeviation="11" result="blur0"/>
			<feColorMatrix values="1 0 0 0 0 0 1 0 0 0 0 0 1 0 0 0 0 0 0.25 0" in="SourceGraphic"/>
			<feOffset dx="21.21" dy="21.21"/>
			<feGaussianBlur stdDeviation="20" result="blur1"/>
			<feMerge>
				<feMergeNode in="blur0"/>
				<feMergeNode in="blur1"/>
			</feMerge>
		</filter>
	</defs>
	<g fill="none" fill-rule="nonzero" style="mix-blend-mode: normal">
		<g clip-path="url(#clip-vxThhKdB)">
			<path d="M705.54,211.33v149.4l34.71,-34.75c23.06,-23.06 60.32,-23.44 83.84,-0.86c107.54,103.23 108.94,270.2 -0.93,371.27c-23.63,21.74 -60.21,20.98 -82.92,-1.73l-34.71,-34.75v152.75c0,69.84 -56.9,126.72 -126.73,126.72h-334.07c-69.82,0 -126.73,-56.88 -126.73,-126.72v-601.34c0,-69.84 56.9,-126.72 126.73,-126.72h334.07c69.82,0 126.73,56.88 126.73,126.72z" fill="#000000" filter="url(#filter-im0ZdBsw)"/>
		</g>
		<g color="#ffffff" class="teamapps-effect-color-1">
			<path d="M705.54,211.33v149.4l34.71,-34.75c23.06,-23.06 60.32,-23.44 83.84,-0.86c107.54,103.23 108.94,270.2 -0.93,371.27c-23.63,21.74 -60.21,20.98 -82.92,-1.73l-34.71,-34.75v152.75c0,69.84 -56.9,126.72 -126.73,126.72h-334.07c-69.82,0 -126.73,-56.88 -126.73,-126.72v-601.34c0,-69.84 56.9,-126.72 126.73,-126.72h334.07c69.82,0 126.73,56.88 126.73,126.72z" fill="currentColor"/>
		</g>
		<g>
			<g color="#1565c0" class="teamapps-color-1">
				<path d="M645.63,211.33v601.34c0,36.75 -30.08,66.81 -66.82,66.81h-334.07c-36.75,0 -66.82,-30.07 -66.82,-66.81v-601.34c0,-36.75 30.08,-66.81 66.82,-66.81h334.07c36.75,0 66.82,30.07 66.82,66.81zM578.81,244.74h-334.07v534.52h334.07zM782.6,652.31l-33.41,-33.41c60.13,-63.48 60.13,-157.01 0,-217.15l33.41,-33.41c83.52,80.18 83.52,207.13 0,283.97zM712.45,582.16l-33.41,-33.41c16.7,-23.39 16.7,-53.45 0,-76.84l33.41,-33.41c40.09,43.43 40.09,103.57 0,143.66z" fill="currentColor"/>
			</g>
		</g>
	</g>
</svg>