<svg version="1.1" xmlns="http://www.w3.org/2000/svg" xmlns:xlink="http://www.w3.org/1999/xlink" viewBox="0,0,1024,1024">
	<!-- Color names: teamapps-color-1, teamapps-effect-color-1 -->
	<desc>phone_in_talk icon - Licensed under Apache License v2.0 (http://www.apache.org/licenses/LICENSE-2.0) - Created with Iconfu.com - Derivative work of Material icons (Copyright Google Inc.)</desc>
	<defs>
		<filter id="filter-4fu0RLeb" x="-8%" y="-8%" width="147%" height="147%" color-interpolation-filters="sRGB">
			<feColorMatrix values="1 0 0 0 0 0 1 0 0 0 0 0 1 0 0 0 0 0 0.17 0" in="SourceGraphic"/>
			<feOffset dx="14.14" dy="14.14"/>
			<feGaussianBlur stdDeviation="11" result="blur0"/>
			<feColorMatrix values="1 0 0 0 0 0 1 0 0 0 0 0 1 0 0 0 0 0 0.25 0" in="SourceGraphic"/>
			<feOffset dx="21.21" dy="21.21"/>
			<feGaussianBlur stdDeviation="20" result="blur1"/>
			<feMerge>
				<feMergeNode in="blur0"/>
				<feMergeNode in="blur1"/>
			</feMerge>
		</filter>
	</defs>
	<g fill="none" fill-rule="nonzero" style="mix-blend-mode: normal">
		<path d="M872.58,662.34v116.93c0,51.46 -41.85,93.31 -93.31,93.31c-346.79,0 -627.84,-281.05 -627.84,-627.84c0,-51.46 41.85,-93.31 93.31,-93.31h116.93c43.5,0 80.14,29.91 90.43,70.25v-10.35c0,-33.08 26.82,-59.9 59.9,-59.9c199.12,0 360.58,161.46 360.58,360.58c0,33.08 -26.82,59.9 -59.9,59.9h-10.35c40.34,10.29 70.25,46.93 70.25,90.43z" fill="#000000" filter="url(#filter-4fu0RLeb)"/>
		<g color="#ffffff" class="teamapps-effect-color-1">
			<path d="M872.58,662.34v116.93c0,51.46 -41.85,93.31 -93.31,93.31c-346.79,0 -627.84,-281.05 -627.84,-627.84c0,-51.46 41.85,-93.31 93.31,-93.31h116.93c43.5,0 80.14,29.91 90.43,70.25v-10.35c0,-33.08 26.82,-59.9 59.9,-59.9c199.12,0 360.58,161.46 360.58,360.58c0,33.08 -26.82,59.9 -59.9,59.9h-10.35c40.34,10.29 70.25,46.93 70.25,90.43z" fill="currentColor"/>
		</g>
		<g>
			<g color="#1565c0" class="teamapps-color-1">
				<path d="M812.67,662.34v116.93c0,18.38 -15.03,33.41 -33.41,33.41c-313.7,0 -567.93,-254.23 -567.93,-567.93c0,-18.38 15.03,-33.41 33.41,-33.41h116.93c18.38,0 33.41,15.03 33.41,33.41c0,41.76 6.68,81.85 19.04,119.27c3.67,11.69 1,24.72 -8.35,33.4l-73.5,73.84c48.11,94.88 125.62,172.05 220.16,220.16l73.49,-73.5c9.36,-9.02 22.39,-11.69 34.08,-8.02c37.42,12.36 77.51,19.04 119.27,19.04c18.38,0 33.41,15.03 33.41,33.41zM512,278.14v-66.81c166.04,0 300.67,134.64 300.67,300.67h-66.81c0,-129.29 -104.57,-233.86 -233.86,-233.86zM512,411.78v-66.81c92.21,0 167.04,74.83 167.04,167.04h-66.81c0,-55.46 -44.76,-100.22 -100.22,-100.22z" fill="currentColor"/>
			</g>
		</g>
	</g>
</svg>