<svg version="1.1" xmlns="http://www.w3.org/2000/svg" xmlns:xlink="http://www.w3.org/1999/xlink" viewBox="0,0,1024,1024">
	<!-- Color names: teamapps-color-1, teamapps-effect-color-1 -->
	<desc>pin_drop icon - Licensed under Apache License v2.0 (http://www.apache.org/licenses/LICENSE-2.0) - Created with Iconfu.com - Derivative work of Material icons (Copyright Google Inc.)</desc>
	<defs>
		<clipPath id="clip-h9PK7gTU">
			<path d="M160.59,60.37h773.53v963.63h-773.53z"/>
		</clipPath>
		<filter id="filter-lVHS6NZS" x="-10%" y="-8%" width="169%" height="140%" color-interpolation-filters="sRGB">
			<feColorMatrix values="1 0 0 0 0 0 1 0 0 0 0 0 1 0 0 0 0 0 0.17 0" in="SourceGraphic"/>
			<feOffset dx="14.14" dy="14.14"/>
			<feGaussianBlur stdDeviation="11" result="blur0"/>
			<feColorMatrix values="1 0 0 0 0 0 1 0 0 0 0 0 1 0 0 0 0 0 0.25 0" in="SourceGraphic"/>
			<feOffset dx="21.21" dy="21.21"/>
			<feGaussianBlur stdDeviation="20" result="blur1"/>
			<feMerge>
				<feMergeNode in="blur0"/>
				<feMergeNode in="blur1"/>
			</feMerge>
		</filter>
	</defs>
	<g fill="none" fill-rule="nonzero" style="mix-blend-mode: normal">
		<g clip-path="url(#clip-h9PK7gTU)">
			<path d="M251.65,378.37c0,-143.67 116.68,-260.35 260.35,-260.35c143.67,0 260.35,116.68 260.35,260.35c0,115.87 -96.2,258.69 -160.3,340.99h133.8c33.08,0 59.9,26.82 59.9,59.9v66.82c0,33.08 -26.82,59.9 -59.9,59.9h-467.72c-33.08,0 -59.9,-26.82 -59.9,-59.9v-66.82c0,-33.08 26.82,-59.9 59.9,-59.9h133.8c-64.1,-82.3 -160.3,-225.12 -160.3,-340.99z" fill="#000000" filter="url(#filter-lVHS6NZS)"/>
		</g>
		<g color="#ffffff" class="teamapps-effect-color-1">
			<path d="M251.65,378.37c0,-143.67 116.68,-260.35 260.35,-260.35c143.67,0 260.35,116.68 260.35,260.35c0,115.87 -96.2,258.69 -160.3,340.99h133.8c33.08,0 59.9,26.82 59.9,59.9v66.82c0,33.08 -26.82,59.9 -59.9,59.9h-467.72c-33.08,0 -59.9,-26.82 -59.9,-59.9v-66.82c0,-33.08 26.82,-59.9 59.9,-59.9h133.8c-64.1,-82.3 -160.3,-225.12 -160.3,-340.99z" fill="currentColor"/>
		</g>
		<g>
			<g color="#1565c0" class="teamapps-color-1">
				<path d="M512,745.86c0,0 -200.45,-217.16 -200.45,-367.49c0,-110.58 89.86,-200.45 200.45,-200.45c110.58,0 200.45,89.86 200.45,200.45c0,150.34 -200.45,367.49 -200.45,367.49zM745.86,779.26v66.82h-467.72v-66.82zM512,445.19c37.08,0 66.81,-30.08 66.81,-66.82c0,-36.75 -30.07,-66.81 -66.81,-66.81c-36.75,0 -66.81,30.07 -66.81,66.81c0,36.75 30.07,66.82 66.81,66.82z" fill="currentColor"/>
			</g>
		</g>
	</g>
</svg>