<svg version="1.1" xmlns="http://www.w3.org/2000/svg" xmlns:xlink="http://www.w3.org/1999/xlink" viewBox="0,0,1024,1024">
	<!-- Color names: teamapps-color-1, teamapps-effect-color-1 -->
	<desc>playlist_add_check icon - Licensed under Apache License v2.0 (http://www.apache.org/licenses/LICENSE-2.0) - Created with Iconfu.com - Derivative work of Material icons (Copyright Google Inc.)</desc>
	<defs>
		<clipPath id="clip-uFHj7IH6">
			<path d="M60.37,967.52v-773.52h963.63v773.52z"/>
		</clipPath>
		<filter id="filter-jymQFG9m" x="-8%" y="-10%" width="138%" height="175%" color-interpolation-filters="sRGB">
			<feColorMatrix values="1 0 0 0 0 0 1 0 0 0 0 0 1 0 0 0 0 0 0.17 0" in="SourceGraphic"/>
			<feOffset dx="14.14" dy="14.14"/>
			<feGaussianBlur stdDeviation="11" result="blur0"/>
			<feColorMatrix values="1 0 0 0 0 0 1 0 0 0 0 0 1 0 0 0 0 0 0.25 0" in="SourceGraphic"/>
			<feOffset dx="21.21" dy="21.21"/>
			<feGaussianBlur stdDeviation="20" result="blur1"/>
			<feMerge>
				<feMergeNode in="blur0"/>
				<feMergeNode in="blur1"/>
			</feMerge>
		</filter>
	</defs>
	<g fill="none" fill-rule="nonzero" style="mix-blend-mode: normal">
		<g clip-path="url(#clip-uFHj7IH6)">
			<path d="M871.73,452.94l50.11,50.11c23.38,23.38 23.4,61.29 0.03,84.69l-233.52,233.85c-23.37,23.4 -61.29,23.44 -84.7,0.08l-125.97,-125.7c-9.36,6.05 -20.52,9.57 -32.49,9.57h-267.27c-33.08,0 -59.9,-26.82 -59.9,-59.9v-66.82c0,-12.37 3.75,-23.86 10.17,-33.41c-6.42,-9.54 -10.17,-21.04 -10.17,-33.41v-66.81c0,-12.37 3.75,-23.87 10.18,-33.41c-6.43,-9.54 -10.18,-21.04 -10.18,-33.41v-66.81c0,-33.08 26.82,-59.9 59.9,-59.9h400.9c33.08,0 59.9,26.82 59.9,59.9v66.81c0,12.37 -3.75,23.87 -10.18,33.41c6.43,9.54 10.18,21.04 10.18,33.41v66.81c0,20.48 -10.28,38.56 -25.96,49.36l33.1,32.99l141.12,-141.37c23.39,-23.43 61.35,-23.45 84.75,-0.04z" fill="#000000" filter="url(#filter-jymQFG9m)"/>
		</g>
		<g color="#ffffff" class="teamapps-effect-color-1">
			<path d="M871.73,452.94l50.11,50.11c23.38,23.38 23.4,61.29 0.03,84.69l-233.52,233.85c-23.37,23.4 -61.29,23.44 -84.7,0.08l-125.97,-125.7c-9.36,6.05 -20.52,9.57 -32.49,9.57h-267.27c-33.08,0 -59.9,-26.82 -59.9,-59.9v-66.82c0,-12.37 3.75,-23.86 10.17,-33.41c-6.42,-9.54 -10.17,-21.04 -10.17,-33.41v-66.81c0,-12.37 3.75,-23.87 10.18,-33.41c-6.43,-9.54 -10.18,-21.04 -10.18,-33.41v-66.81c0,-33.08 26.82,-59.9 59.9,-59.9h400.9c33.08,0 59.9,26.82 59.9,59.9v66.81c0,12.37 -3.75,23.87 -10.18,33.41c6.43,9.54 10.18,21.04 10.18,33.41v66.81c0,20.48 -10.28,38.56 -25.96,49.36l33.1,32.99l141.12,-141.37c23.39,-23.43 61.35,-23.45 84.75,-0.04z" fill="currentColor"/>
		</g>
		<g>
			<g color="#1565c0" class="teamapps-color-1">
				<path d="M829.37,495.3l50.11,50.11l-233.52,233.85l-150.66,-150.34l50.11,-50.11l100.55,100.22zM578.81,512h-400.9v-66.81h400.9zM578.81,378.37h-400.9v-66.81h400.9zM177.92,578.81h267.27v66.82h-267.27z" fill="currentColor"/>
			</g>
		</g>
	</g>
</svg>