<svg version="1.1" xmlns="http://www.w3.org/2000/svg" xmlns:xlink="http://www.w3.org/1999/xlink" viewBox="0,0,1024,1024">
	<!-- Color names: teamapps-color-1, teamapps-effect-color-1 -->
	<desc>record_voice_over icon - Licensed under Apache License v2.0 (http://www.apache.org/licenses/LICENSE-2.0) - Created with Iconfu.com - Derivative work of Material icons (Copyright Google Inc.)</desc>
	<defs>
		<clipPath id="clip-uAG2Fj3w">
			<path d="M26.97,1000.93v-940.56h997.03v940.56z"/>
		</clipPath>
		<filter id="filter-zKga2yFy" x="-7%" y="-8%" width="132%" height="141%" color-interpolation-filters="sRGB">
			<feColorMatrix values="1 0 0 0 0 0 1 0 0 0 0 0 1 0 0 0 0 0 0.17 0" in="SourceGraphic"/>
			<feOffset dx="14.14" dy="14.14"/>
			<feGaussianBlur stdDeviation="11" result="blur0"/>
			<feColorMatrix values="1 0 0 0 0 0 1 0 0 0 0 0 1 0 0 0 0 0 0.25 0" in="SourceGraphic"/>
			<feOffset dx="21.21" dy="21.21"/>
			<feGaussianBlur stdDeviation="20" result="blur1"/>
			<feMerge>
				<feMergeNode in="blur0"/>
				<feMergeNode in="blur1"/>
			</feMerge>
		</filter>
	</defs>
	<g fill="none" fill-rule="nonzero" style="mix-blend-mode: normal">
		<g clip-path="url(#clip-uAG2Fj3w)">
			<path d="M738.94,745.86v66.81c0,33.08 -26.82,59.9 -59.9,59.9h-534.52c-33.08,0 -59.9,-26.82 -59.9,-59.9v-66.81c0,-105 115.17,-156.05 212.17,-178.4c-47.65,-35.25 -78.54,-91.86 -78.54,-155.69c0,-106.89 86.65,-193.54 193.54,-193.54c67.06,0 126.15,34.1 160.88,85.91l55.88,-56.21c10.78,-10.85 24.64,-16.68 38.74,-17.56c0.49,-14.68 6.35,-29.2 17.51,-40.36l54.46,-54.46c23.69,-23.69 62.19,-23.35 85.45,0.75c152.64,158.1 153.36,397.98 -0.79,551.74c-23.4,23.34 -61.29,23.32 -84.66,-0.05l-54.46,-54.46c-11.23,-11.23 -17.11,-25.89 -17.52,-40.7c-14.11,-0.88 -27.97,-6.73 -38.73,-17.56l-55.74,-56.08c-12.45,18.62 -28.04,34.96 -46.02,48.26c97,22.34 212.17,73.39 212.17,178.4z" fill="#000000" filter="url(#filter-zKga2yFy)"/>
		</g>
		<g color="#ffffff" class="teamapps-effect-color-1">
			<path d="M738.94,745.86v66.81c0,33.08 -26.82,59.9 -59.9,59.9h-534.52c-33.08,0 -59.9,-26.82 -59.9,-59.9v-66.81c0,-105 115.17,-156.05 212.17,-178.4c-47.65,-35.25 -78.54,-91.86 -78.54,-155.69c0,-106.89 86.65,-193.54 193.54,-193.54c67.06,0 126.15,34.1 160.88,85.91l55.88,-56.21c10.78,-10.85 24.64,-16.68 38.74,-17.56c0.49,-14.68 6.35,-29.2 17.51,-40.36l54.46,-54.46c23.69,-23.69 62.19,-23.35 85.45,0.75c152.64,158.1 153.36,397.98 -0.79,551.74c-23.4,23.34 -61.29,23.32 -84.66,-0.05l-54.46,-54.46c-11.23,-11.23 -17.11,-25.89 -17.52,-40.7c-14.11,-0.88 -27.97,-6.73 -38.73,-17.56l-55.74,-56.08c-12.45,18.62 -28.04,34.96 -46.02,48.26c97,22.34 212.17,73.39 212.17,178.4z" fill="currentColor"/>
		</g>
		<g>
			<g color="#1565c0" class="teamapps-color-1">
				<path d="M278.14,411.78c0,-73.81 59.83,-133.63 133.63,-133.63c73.81,0 133.63,59.83 133.63,133.63c0,73.81 -59.83,133.63 -133.63,133.63c-73.81,0 -133.63,-59.83 -133.63,-133.63z" fill="currentColor"/>
			</g>
			<g color="#1565c0" class="teamapps-color-1">
				<path d="M679.04,745.86v66.81h-534.52v-66.81c0,-88.86 178.06,-133.63 267.26,-133.63c89.2,0 267.26,44.77 267.26,133.63zM781.6,645.63l-54.46,-54.46c92.54,-106.24 92.54,-257.91 0,-358.8l54.46,-54.46c130.63,135.3 130.29,337.76 0,467.72zM671.02,533.05l-56.13,-56.46c28.06,-39.42 28.06,-90.53 0,-129.95l56.13,-56.46c67.49,73.5 67.49,175.39 0,242.88z" fill="currentColor"/>
			</g>
		</g>
	</g>
</svg>