<svg version="1.1" xmlns="http://www.w3.org/2000/svg" xmlns:xlink="http://www.w3.org/1999/xlink" viewBox="0,0,1024,1024">
	<!-- Color names: teamapps-color-1, teamapps-effect-color-1 -->
	<desc>rv_hookup icon - Licensed under Apache License v2.0 (http://www.apache.org/licenses/LICENSE-2.0) - Created with Iconfu.com - Derivative work of Material icons (Copyright Google Inc.)</desc>
	<defs>
		<clipPath id="clip-MDs1AnYm">
			<path d="M127.19,60.37h896.81v963.63h-896.81z"/>
		</clipPath>
		<filter id="filter-DAAiZN3U" x="-8%" y="-8%" width="152%" height="140%" color-interpolation-filters="sRGB">
			<feColorMatrix values="1 0 0 0 0 0 1 0 0 0 0 0 1 0 0 0 0 0 0.17 0" in="SourceGraphic"/>
			<feOffset dx="14.14" dy="14.14"/>
			<feGaussianBlur stdDeviation="11" result="blur0"/>
			<feColorMatrix values="1 0 0 0 0 0 1 0 0 0 0 0 1 0 0 0 0 0 0.25 0" in="SourceGraphic"/>
			<feOffset dx="21.21" dy="21.21"/>
			<feGaussianBlur stdDeviation="20" result="blur1"/>
			<feMerge>
				<feMergeNode in="blur0"/>
				<feMergeNode in="blur1"/>
			</feMerge>
		</filter>
	</defs>
	<g fill="none" fill-rule="nonzero" style="mix-blend-mode: normal">
		<g clip-path="url(#clip-MDs1AnYm)">
			<path d="M905.99,679.04v66.82c0,33.08 -26.82,59.9 -59.9,59.9h-218.92c-23.69,58.82 -81.22,100.22 -148.57,100.22c-67.35,0 -124.88,-41.4 -148.57,-100.22h-18.47c-69.84,0 -126.72,-56.9 -126.72,-126.73v-100.22c0,-29.63 21.51,-54.23 49.76,-59.05l-32.22,-32.22c-23.39,-23.39 -23.39,-61.32 0,-84.72l100.22,-100.22c13.15,-13.15 31.38,-19.22 49.27,-17.15v-40.72c0,-33.08 26.82,-59.9 59.9,-59.9h207.36v-6.92c0,-24.23 14.6,-46.07 36.98,-55.34c22.38,-9.27 48.15,-4.15 65.28,12.99l100.22,100.22c23.39,23.39 23.39,61.32 0,84.72l-47.46,47.46c38.74,21.71 65,63.18 65,110.63v140.54h6.92c33.08,0 59.9,26.82 59.9,59.9z" fill="#000000" filter="url(#filter-DAAiZN3U)"/>
		</g>
		<g color="#ffffff" class="teamapps-effect-color-1">
			<path d="M905.99,679.04v66.82c0,33.08 -26.82,59.9 -59.9,59.9h-218.92c-23.69,58.82 -81.22,100.22 -148.57,100.22c-67.35,0 -124.88,-41.4 -148.57,-100.22h-18.47c-69.84,0 -126.72,-56.9 -126.72,-126.73v-100.22c0,-29.63 21.51,-54.23 49.76,-59.05l-32.22,-32.22c-23.39,-23.39 -23.39,-61.32 0,-84.72l100.22,-100.22c13.15,-13.15 31.38,-19.22 49.27,-17.15v-40.72c0,-33.08 26.82,-59.9 59.9,-59.9h207.36v-6.92c0,-24.23 14.6,-46.07 36.98,-55.34c22.38,-9.27 48.15,-4.15 65.28,12.99l100.22,100.22c23.39,23.39 23.39,61.32 0,84.72l-47.46,47.46c38.74,21.71 65,63.18 65,110.63v140.54h6.92c33.08,0 59.9,26.82 59.9,59.9z" fill="currentColor"/>
		</g>
		<g>
			<g color="#1565c0" class="teamapps-color-1">
				<path d="M846.08,679.04v66.82h-267.27c0,55.46 -44.76,100.22 -100.22,100.22c-55.46,0 -100.22,-44.76 -100.22,-100.22h-66.81c-36.75,0 -66.81,-30.08 -66.81,-66.82v-100.22h233.85v-100.22h-133.63v66.82l-100.22,-100.22l100.22,-100.22v66.81h367.49c36.75,0 66.81,30.07 66.81,66.81v200.45zM779.26,278.14l-100.22,100.22v-66.81h-267.26v-66.81h267.26v-66.82zM712.45,478.59h-133.63v100.22h133.63zM512,745.86c0,-18.38 -15.03,-33.41 -33.41,-33.41c-18.38,0 -33.4,15.03 -33.4,33.41c0,18.38 15.03,33.4 33.4,33.4c18.38,0 33.41,-15.03 33.41,-33.4z" fill="currentColor"/>
			</g>
		</g>
	</g>
</svg>