<svg version="1.1" xmlns="http://www.w3.org/2000/svg" xmlns:xlink="http://www.w3.org/1999/xlink" viewBox="0,0,1024,1024">
	<!-- Color names: teamapps-color-1, teamapps-effect-color-1 -->
	<desc>settings icon - Licensed under Apache License v2.0 (http://www.apache.org/licenses/LICENSE-2.0) - Created with Iconfu.com - Derivative work of Material icons (Copyright Google Inc.)</desc>
	<defs>
		<clipPath id="clip-Xhc8kXpe">
			<path d="M69.38,60.37h954.62v963.63h-954.62z"/>
		</clipPath>
		<filter id="filter-OFrjZ6zD" x="-8%" y="-8%" width="142%" height="140%" color-interpolation-filters="sRGB">
			<feColorMatrix values="1 0 0 0 0 0 1 0 0 0 0 0 1 0 0 0 0 0 0.17 0" in="SourceGraphic"/>
			<feOffset dx="14.14" dy="14.14"/>
			<feGaussianBlur stdDeviation="11" result="blur0"/>
			<feColorMatrix values="1 0 0 0 0 0 1 0 0 0 0 0 1 0 0 0 0 0 0.25 0" in="SourceGraphic"/>
			<feOffset dx="21.21" dy="21.21"/>
			<feGaussianBlur stdDeviation="20" result="blur1"/>
			<feMerge>
				<feMergeNode in="blur0"/>
				<feMergeNode in="blur1"/>
			</feMerge>
		</filter>
	</defs>
	<g fill="none" fill-rule="nonzero" style="mix-blend-mode: normal">
		<g clip-path="url(#clip-Xhc8kXpe)">
			<path d="M867.82,552.84c30.75,24.27 36.56,65.79 19.49,97.09l-67.3,116.47c-19.07,33.94 -59.64,47.15 -94.32,33.57l-54.18,-21.76c-2.9,1.76 -5.84,3.48 -8.82,5.16l-8.15,56.84c-5.28,39.24 -39.06,65.78 -75.72,65.78h-133.63c-36.65,0 -70.44,-26.53 -75.72,-65.78l-8.13,-56.73c-3.03,-1.69 -6.02,-3.43 -8.98,-5.22l-55.43,22.22c-31.32,11.37 -72.79,1.77 -92.94,-34.1l-67.3,-116.47c-17.06,-31.3 -11.26,-72.82 19.49,-97.09l45.42,-35.51v-10.64l-45.42,-35.51c-28.82,-22.75 -38.63,-64.4 -18.67,-98.55l66.48,-115.01c19.08,-33.94 59.64,-47.14 94.32,-33.57l54.18,21.76c2.9,-1.76 5.84,-3.48 8.82,-5.16l8.15,-56.84c5.28,-39.24 39.06,-65.78 75.72,-65.78h133.63c36.65,0 70.44,26.53 75.72,65.78l8.13,56.73c3.03,1.69 6.02,3.43 8.98,5.22l55.43,-22.22c31.32,-11.37 72.79,-1.77 92.94,34.1l67.3,116.47c17.06,31.3 11.26,72.82 -19.49,97.09l-45.41,35.51v10.65z" fill="#000000" filter="url(#filter-OFrjZ6zD)"/>
		</g>
		<g color="#ffffff" class="teamapps-effect-color-1">
			<path d="M867.82,552.84c30.75,24.27 36.56,65.79 19.49,97.09l-67.3,116.47c-19.07,33.94 -59.64,47.15 -94.32,33.57l-54.18,-21.76c-2.9,1.76 -5.84,3.48 -8.82,5.16l-8.15,56.84c-5.28,39.24 -39.06,65.78 -75.72,65.78h-133.63c-36.65,0 -70.44,-26.53 -75.72,-65.78l-8.13,-56.73c-3.03,-1.69 -6.02,-3.43 -8.98,-5.22l-55.43,22.22c-31.32,11.37 -72.79,1.77 -92.94,-34.1l-67.3,-116.47c-17.06,-31.3 -11.26,-72.82 19.49,-97.09l45.42,-35.51v-10.64l-45.42,-35.51c-28.82,-22.75 -38.63,-64.4 -18.67,-98.55l66.48,-115.01c19.08,-33.94 59.64,-47.14 94.32,-33.57l54.18,21.76c2.9,-1.76 5.84,-3.48 8.82,-5.16l8.15,-56.84c5.28,-39.24 39.06,-65.78 75.72,-65.78h133.63c36.65,0 70.44,26.53 75.72,65.78l8.13,56.73c3.03,1.69 6.02,3.43 8.98,5.22l55.43,-22.22c31.32,-11.37 72.79,-1.77 92.94,34.1l67.3,116.47c17.06,31.3 11.26,72.82 -19.49,97.09l-45.41,35.51v10.65z" fill="currentColor"/>
		</g>
		<g>
			<g color="#1565c0" class="teamapps-color-1">
				<path d="M830.71,599.86c6.35,5.01 8.02,14.03 4.01,21.38l-66.81,115.59c-4.01,7.35 -12.7,10.35 -20.38,7.34l-83.19,-33.4c-17.37,13.03 -36.08,24.38 -56.46,32.74l-12.69,88.53c-1,8.02 -8.02,14.03 -16.37,14.03h-133.63c-8.35,0 -15.37,-6.01 -16.37,-14.03l-12.69,-88.53c-20.38,-8.35 -39.09,-19.37 -56.46,-32.74l-83.19,33.4c-7.35,2.67 -16.37,0.01 -20.38,-7.34l-66.81,-115.59c-4.01,-7.35 -2.34,-16.37 4.01,-21.38l70.49,-55.12c-1.34,-10.69 -2.34,-21.71 -2.34,-32.74c0,-11.02 1,-22.05 2.34,-32.74l-70.49,-55.12c-6.35,-5.01 -8.35,-14.03 -4.01,-21.38l66.81,-115.59c4.01,-7.35 12.7,-10.35 20.38,-7.34l83.19,33.4c17.37,-13.03 36.08,-24.38 56.46,-32.74l12.69,-88.53c1,-8.02 8.02,-14.03 16.37,-14.03h133.63c8.35,0 15.37,6.01 16.37,14.03l12.69,88.53c20.38,8.35 39.09,19.37 56.46,32.74l83.19,-33.4c7.35,-2.67 16.37,-0.01 20.38,7.34l66.81,115.59c4.01,7.35 2.34,16.37 -4.01,21.38l-70.49,55.12c1.34,10.69 2.34,21.38 2.34,32.74c0,11.36 -1,22.05 -2.34,32.74zM628.93,512c0,-64.48 -52.45,-116.93 -116.93,-116.93c-64.48,0 -116.93,52.45 -116.93,116.93c0,64.48 52.45,116.93 116.93,116.93c64.48,0 116.93,-52.45 116.93,-116.93z" fill="currentColor"/>
			</g>
		</g>
	</g>
</svg>