<svg version="1.1" xmlns="http://www.w3.org/2000/svg" xmlns:xlink="http://www.w3.org/1999/xlink" viewBox="0,0,1024,1024">
	<!-- Color names: teamapps-color-1, teamapps-effect-color-1 -->
	<desc>settings_input_svideo icon - Licensed under Apache License v2.0 (http://www.apache.org/licenses/LICENSE-2.0) - Created with Iconfu.com - Derivative work of Material icons (Copyright Google Inc.)</desc>
	<defs>
		<clipPath id="clip-ZaSU5yNW">
			<path d="M26.97,26.97h997.03v997.03h-997.03z"/>
		</clipPath>
		<filter id="filter-q2X4Oo9Q" x="-7%" y="-7%" width="132%" height="132%" color-interpolation-filters="sRGB">
			<feColorMatrix values="1 0 0 0 0 0 1 0 0 0 0 0 1 0 0 0 0 0 0.17 0" in="SourceGraphic"/>
			<feOffset dx="14.14" dy="14.14"/>
			<feGaussianBlur stdDeviation="11" result="blur0"/>
			<feColorMatrix values="1 0 0 0 0 0 1 0 0 0 0 0 1 0 0 0 0 0 0.25 0" in="SourceGraphic"/>
			<feOffset dx="21.21" dy="21.21"/>
			<feGaussianBlur stdDeviation="20" result="blur1"/>
			<feMerge>
				<feMergeNode in="blur0"/>
				<feMergeNode in="blur1"/>
			</feMerge>
		</filter>
	</defs>
	<g fill="none" fill-rule="nonzero" style="mix-blend-mode: normal">
		<g clip-path="url(#clip-ZaSU5yNW)">
			<path d="M939.39,512c0,235.87 -191.52,427.39 -427.39,427.39c-235.87,0 -427.39,-191.52 -427.39,-427.39c0,-235.87 191.52,-427.39 427.39,-427.39c235.87,0 427.39,191.52 427.39,427.39z" fill="#000000" filter="url(#filter-q2X4Oo9Q)"/>
		</g>
		<g color="#ffffff" class="teamapps-effect-color-1">
			<path d="M939.39,512c0,235.87 -191.52,427.39 -427.39,427.39c-235.87,0 -427.39,-191.52 -427.39,-427.39c0,-235.87 191.52,-427.39 427.39,-427.39c235.87,0 427.39,191.52 427.39,427.39z" fill="currentColor"/>
		</g>
		<g>
			<g color="#1565c0" class="teamapps-color-1">
				<path d="M879.49,512c0,202.79 -164.7,367.49 -367.49,367.49c-202.79,0 -367.49,-164.7 -367.49,-367.49c0,-202.79 164.7,-367.49 367.49,-367.49c202.79,0 367.49,164.7 367.49,367.49zM812.67,512c0,-165.71 -134.97,-300.67 -300.67,-300.67c-165.71,0 -300.67,134.97 -300.67,300.67c0,165.71 134.97,300.67 300.67,300.67c165.71,0 300.67,-134.97 300.67,-300.67zM562.11,378.37h-100.22c-27.73,0 -50.11,-22.39 -50.11,-50.11c0,-27.73 22.39,-50.11 50.11,-50.11h100.22c27.73,0 50.11,22.39 50.11,50.11c0,27.73 -22.39,50.11 -50.11,50.11zM328.25,545.41c-27.73,0 -50.11,-22.39 -50.11,-50.11c0,-27.73 22.39,-50.11 50.11,-50.11c27.73,0 50.11,22.39 50.11,50.11c0,27.73 -22.39,50.11 -50.11,50.11zM445.19,662.34c0,27.73 -22.39,50.11 -50.11,50.11c-27.73,0 -50.11,-22.39 -50.11,-50.11c0,-27.73 22.39,-50.11 50.11,-50.11c27.73,0 50.11,22.39 50.11,50.11zM745.86,495.3c0,27.73 -22.39,50.11 -50.11,50.11c-27.73,0 -50.11,-22.39 -50.11,-50.11c0,-27.73 22.39,-50.11 50.11,-50.11c27.73,0 50.11,22.39 50.11,50.11zM679.04,662.34c0,27.73 -22.39,50.11 -50.11,50.11c-27.73,0 -50.11,-22.39 -50.11,-50.11c0,-27.73 22.39,-50.11 50.11,-50.11c27.73,0 50.11,22.39 50.11,50.11z" fill="currentColor"/>
			</g>
		</g>
	</g>
</svg>