<svg version="1.1" xmlns="http://www.w3.org/2000/svg" xmlns:xlink="http://www.w3.org/1999/xlink" viewBox="0,0,1024,1024">
	<!-- Color names: teamapps-color-1, teamapps-effect-color-1 -->
	<desc>skip_previous icon - Licensed under Apache License v2.0 (http://www.apache.org/licenses/LICENSE-2.0) - Created with Iconfu.com - Derivative work of Material icons (Copyright Google Inc.)</desc>
	<defs>
		<filter id="filter-0ERcE0P6" x="-12%" y="-12%" width="185%" height="185%" color-interpolation-filters="sRGB">
			<feColorMatrix values="1 0 0 0 0 0 1 0 0 0 0 0 1 0 0 0 0 0 0.17 0" in="SourceGraphic"/>
			<feOffset dx="14.14" dy="14.14"/>
			<feGaussianBlur stdDeviation="11" result="blur0"/>
			<feColorMatrix values="1 0 0 0 0 0 1 0 0 0 0 0 1 0 0 0 0 0 0.25 0" in="SourceGraphic"/>
			<feOffset dx="21.21" dy="21.21"/>
			<feGaussianBlur stdDeviation="20" result="blur1"/>
			<feMerge>
				<feMergeNode in="blur0"/>
				<feMergeNode in="blur1"/>
			</feMerge>
		</filter>
	</defs>
	<g fill="none" fill-rule="nonzero" style="mix-blend-mode: normal">
		<path d="M772.35,311.55v400.9c0,22.38 -12.47,42.89 -32.34,53.19c-19.87,10.3 -43.82,8.66 -62.11,-4.25l-239.63,-169.15v120.21c0,33.08 -26.82,59.9 -59.9,59.9h-66.81c-33.08,0 -59.9,-26.82 -59.9,-59.9v-400.9c0,-33.08 26.82,-59.9 59.9,-59.9h66.81c33.08,0 59.9,26.82 59.9,59.9v120.21l239.63,-169.15c18.28,-12.91 42.24,-14.54 62.11,-4.25c19.87,10.3 32.34,30.81 32.34,53.19z" fill="#000000" filter="url(#filter-0ERcE0P6)"/>
		<g color="#ffffff" class="teamapps-effect-color-1">
			<path d="M772.35,311.55v400.9c0,22.38 -12.47,42.89 -32.34,53.19c-19.87,10.3 -43.82,8.66 -62.11,-4.25l-239.63,-169.15v120.21c0,33.08 -26.82,59.9 -59.9,59.9h-66.81c-33.08,0 -59.9,-26.82 -59.9,-59.9v-400.9c0,-33.08 26.82,-59.9 59.9,-59.9h66.81c33.08,0 59.9,26.82 59.9,59.9v120.21l239.63,-169.15c18.28,-12.91 42.24,-14.54 62.11,-4.25c19.87,10.3 32.34,30.81 32.34,53.19z" fill="currentColor"/>
		</g>
		<g>
			<g color="#1565c0" class="teamapps-color-1">
				<path d="M712.45,311.55v400.9l-283.97,-200.45zM311.55,311.55h66.81v400.9h-66.81z" fill="currentColor"/>
			</g>
		</g>
	</g>
</svg>