<svg version="1.1" xmlns="http://www.w3.org/2000/svg" xmlns:xlink="http://www.w3.org/1999/xlink" viewBox="0,0,1024,1024">
	<!-- Color names: teamapps-color-1, teamapps-effect-color-1 -->
	<desc>slow_motion_video icon - Licensed under Apache License v2.0 (http://www.apache.org/licenses/LICENSE-2.0) - Created with Iconfu.com - Derivative work of Material icons (Copyright Google Inc.)</desc>
	<defs>
		<clipPath id="clip-HjnI6kPv">
			<path d="M62.04,62.04h961.96v961.96h-961.96z"/>
		</clipPath>
		<filter id="filter-iuvTwUUK" x="-8%" y="-8%" width="140%" height="140%" color-interpolation-filters="sRGB">
			<feColorMatrix values="1 0 0 0 0 0 1 0 0 0 0 0 1 0 0 0 0 0 0.17 0" in="SourceGraphic"/>
			<feOffset dx="14.14" dy="14.14"/>
			<feGaussianBlur stdDeviation="11" result="blur0"/>
			<feColorMatrix values="1 0 0 0 0 0 1 0 0 0 0 0 1 0 0 0 0 0 0.25 0" in="SourceGraphic"/>
			<feOffset dx="21.21" dy="21.21"/>
			<feGaussianBlur stdDeviation="20" result="blur1"/>
			<feMerge>
				<feMergeNode in="blur0"/>
				<feMergeNode in="blur1"/>
			</feMerge>
		</filter>
	</defs>
	<g fill="none" fill-rule="nonzero" style="mix-blend-mode: normal">
		<g clip-path="url(#clip-HjnI6kPv)">
			<path d="M905.99,512c0,203.37 -154.44,371.1 -352.63,391.98c-14.4,1.52 -28.77,-2.24 -40.52,-10.42c-11.66,8.12 -25.9,11.89 -40.2,10.46c-78.98,-7.9 -151.47,-39.47 -209.68,-87.06c-10.91,-8.92 -18.26,-21.34 -20.9,-35c-13.67,-2.64 -26.08,-9.99 -35,-20.9c-47.56,-58.17 -79.17,-130.32 -87.06,-209.71c-1.39,-13.95 2.17,-27.85 9.89,-39.34c-7.72,-11.49 -11.28,-25.39 -9.89,-39.34c7.9,-79.39 39.5,-151.54 87.06,-209.71c8.92,-10.91 21.34,-18.26 35,-20.9c2.64,-13.67 9.99,-26.08 20.9,-35c58.17,-47.56 130.32,-79.17 209.71,-87.06c14.29,-1.42 28.53,2.34 40.17,10.46c11.75,-8.18 26.12,-11.94 40.52,-10.42c198.2,20.88 352.63,188.61 352.63,391.98z" fill="#000000" filter="url(#filter-iuvTwUUK)"/>
		</g>
		<g color="#ffffff" class="teamapps-effect-color-1">
			<path d="M905.99,512c0,203.37 -154.44,371.1 -352.63,391.98c-14.4,1.52 -28.77,-2.24 -40.52,-10.42c-11.66,8.12 -25.9,11.89 -40.2,10.46c-78.98,-7.9 -151.47,-39.47 -209.68,-87.06c-10.91,-8.92 -18.26,-21.34 -20.9,-35c-13.67,-2.64 -26.08,-9.99 -35,-20.9c-47.56,-58.17 -79.17,-130.32 -87.06,-209.71c-1.39,-13.95 2.17,-27.85 9.89,-39.34c-7.72,-11.49 -11.28,-25.39 -9.89,-39.34c7.9,-79.39 39.5,-151.54 87.06,-209.71c8.92,-10.91 21.34,-18.26 35,-20.9c2.64,-13.67 9.99,-26.08 20.9,-35c58.17,-47.56 130.32,-79.17 209.71,-87.06c14.29,-1.42 28.53,2.34 40.17,10.46c11.75,-8.18 26.12,-11.94 40.52,-10.42c198.2,20.88 352.63,188.61 352.63,391.98z" fill="currentColor"/>
		</g>
		<g>
			<g color="#1565c0" class="teamapps-color-1">
				<path d="M846.08,512c0,172.39 -130.96,314.7 -299,332.41v-67.48c130.96,-17.37 232.18,-129.63 232.18,-264.93c0,-135.3 -101.23,-247.55 -232.18,-264.93v-67.48c168.04,17.7 299,160.02 299,332.41zM445.19,662.34v-300.67l200.45,150.34zM348.3,722.81c37.08,28.73 81.52,48.11 130.29,54.12v67.48c-66.81,-6.68 -128.28,-33.4 -177.73,-73.83zM348.3,301.19l-47.43,-47.77c49.45,-40.43 110.58,-67.15 177.73,-73.83v67.48c-48.77,6.01 -93.21,25.39 -130.29,54.12zM247.07,478.59h-67.48c6.68,-67.15 33.4,-128.28 73.83,-177.73l47.77,47.43c-28.73,37.08 -48.11,81.52 -54.12,130.29zM301.19,675.37l-47.77,47.77c-40.43,-49.45 -67.15,-110.58 -73.83,-177.73h67.48c6.01,48.77 25.39,93.21 54.12,129.95z" fill="currentColor"/>
			</g>
		</g>
	</g>
</svg>