<svg version="1.1" xmlns="http://www.w3.org/2000/svg" xmlns:xlink="http://www.w3.org/1999/xlink" viewBox="0,0,1024,1024">
	<!-- Color names: teamapps-color-1, teamapps-effect-color-1 -->
	<desc>sort_by_alpha icon - Licensed under Apache License v2.0 (http://www.apache.org/licenses/LICENSE-2.0) - Created with Iconfu.com - Derivative work of Material icons (Copyright Google Inc.)</desc>
	<defs>
		<clipPath id="clip-lYCBB3oX">
			<path d="M47.01,70.39h976.99v953.61h-976.99z"/>
		</clipPath>
		<filter id="filter-6JIDp2qq" x="-8%" y="-8%" width="138%" height="142%" color-interpolation-filters="sRGB">
			<feColorMatrix values="1 0 0 0 0 0 1 0 0 0 0 0 1 0 0 0 0 0 0.17 0" in="SourceGraphic"/>
			<feOffset dx="14.14" dy="14.14"/>
			<feGaussianBlur stdDeviation="11" result="blur0"/>
			<feColorMatrix values="1 0 0 0 0 0 1 0 0 0 0 0 1 0 0 0 0 0 0.25 0" in="SourceGraphic"/>
			<feOffset dx="21.21" dy="21.21"/>
			<feGaussianBlur stdDeviation="20" result="blur1"/>
			<feMerge>
				<feMergeNode in="blur0"/>
				<feMergeNode in="blur1"/>
			</feMerge>
		</filter>
	</defs>
	<g fill="none" fill-rule="nonzero" style="mix-blend-mode: normal">
		<g clip-path="url(#clip-lYCBB3oX)">
			<path d="M834.72,261c33.08,0 59.9,26.82 59.9,59.9v42.09c0,12.15 -3.69,24.01 -10.59,34.01l-133.35,193.4h90.39c33.08,0 59.9,26.82 59.9,59.9v53.12c0,33.08 -26.82,59.9 -59.9,59.9h-172.17c-1.18,13.78 -7.13,27.04 -17.33,37.24l-77.84,77.85c-23.39,23.4 -61.32,23.4 -84.72,0l-77.85,-77.85c-17.13,-17.13 -22.26,-42.9 -12.99,-65.28c1.31,-3.16 2.87,-6.17 4.65,-9l-16.86,-44.8h-87.73l-16.15,43.01c-8.78,23.37 -31.12,38.84 -56.08,38.84h-61.47c-19.81,0 -38.34,-9.79 -49.5,-26.16c-11.16,-16.37 -13.5,-37.2 -6.26,-55.64l150.34,-382.86c9,-22.93 31.13,-38.01 55.76,-38.01h54.79c8.05,0 15.82,1.61 22.96,4.57c0.39,-15.05 6.45,-29.74 17.53,-40.81l78.85,-78.85c23.39,-23.39 61.33,-23.39 84.72,0l78.84,78.85c10.03,10.03 15.95,23.03 17.26,36.57z" fill="#000000" filter="url(#filter-6JIDp2qq)"/>
		</g>
		<g color="#ffffff" class="teamapps-effect-color-1">
			<path d="M834.72,261c33.08,0 59.9,26.82 59.9,59.9v42.09c0,12.15 -3.69,24.01 -10.59,34.01l-133.35,193.4h90.39c33.08,0 59.9,26.82 59.9,59.9v53.12c0,33.08 -26.82,59.9 -59.9,59.9h-172.17c-1.18,13.78 -7.13,27.04 -17.33,37.24l-77.84,77.85c-23.39,23.4 -61.32,23.4 -84.72,0l-77.85,-77.85c-17.13,-17.13 -22.26,-42.9 -12.99,-65.28c1.31,-3.16 2.87,-6.17 4.65,-9l-16.86,-44.8h-87.73l-16.15,43.01c-8.78,23.37 -31.12,38.84 -56.08,38.84h-61.47c-19.81,0 -38.34,-9.79 -49.5,-26.16c-11.16,-16.37 -13.5,-37.2 -6.26,-55.64l150.34,-382.86c9,-22.93 31.13,-38.01 55.76,-38.01h54.79c8.05,0 15.82,1.61 22.96,4.57c0.39,-15.05 6.45,-29.74 17.53,-40.81l78.85,-78.85c23.39,-23.39 61.33,-23.39 84.72,0l78.84,78.85c10.03,10.03 15.95,23.03 17.26,36.57z" fill="currentColor"/>
		</g>
		<g>
			<g color="#1565c0" class="teamapps-color-1">
				<path d="M369.68,320.57l150,382.86h-61.47l-30.74,-81.85h-170.71l-30.74,81.85h-61.47l150.34,-382.86zM636.61,650.31h204.46v53.12h-284.97v-43.1l197.78,-285.98h-196.44v-53.45h277.28v42.09zM406.76,566.79l-64.81,-173.05l-64.82,173.05zM610.22,266.79h-157.69l78.85,-78.85zM453.53,758.21h155.68l-77.84,77.85z" fill="currentColor"/>
			</g>
		</g>
	</g>
</svg>