<svg version="1.1" xmlns="http://www.w3.org/2000/svg" xmlns:xlink="http://www.w3.org/1999/xlink" viewBox="0,0,1024,1024">
	<!-- Color names: teamapps-color-1, teamapps-effect-color-1 -->
	<desc>spellcheck icon - Licensed under Apache License v2.0 (http://www.apache.org/licenses/LICENSE-2.0) - Created with Iconfu.com - Derivative work of Material icons (Copyright Google Inc.)</desc>
	<defs>
		<clipPath id="clip-QlwG6rW7">
			<path d="M75.74,93.78h948.26v930.22h-948.26z"/>
		</clipPath>
		<filter id="filter-BZ6ztM67" x="-8%" y="-8%" width="141%" height="145%" color-interpolation-filters="sRGB">
			<feColorMatrix values="1 0 0 0 0 0 1 0 0 0 0 0 1 0 0 0 0 0 0.17 0" in="SourceGraphic"/>
			<feOffset dx="14.14" dy="14.14"/>
			<feGaussianBlur stdDeviation="11" result="blur0"/>
			<feColorMatrix values="1 0 0 0 0 0 1 0 0 0 0 0 1 0 0 0 0 0 0.25 0" in="SourceGraphic"/>
			<feOffset dx="21.21" dy="21.21"/>
			<feGaussianBlur stdDeviation="20" result="blur1"/>
			<feMerge>
				<feMergeNode in="blur0"/>
				<feMergeNode in="blur1"/>
			</feMerge>
		</filter>
	</defs>
	<g fill="none" fill-rule="nonzero" style="mix-blend-mode: normal">
		<g clip-path="url(#clip-QlwG6rW7)">
			<path d="M921.87,587.75l-317.04,317.37c-23.39,23.41 -61.34,23.43 -84.74,0.02l-170.05,-170.04c-23.39,-23.39 -23.4,-61.32 0,-84.72l45.07,-45.07h-53l-22.88,61.27c-8.75,23.42 -31.12,38.95 -56.12,38.95h-69.82c-19.81,0 -38.35,-9.8 -49.5,-26.17c-11.16,-16.37 -13.5,-37.21 -6.25,-55.65l170.72,-434.31c9.01,-22.92 31.13,-37.99 55.75,-37.99h62.14c24.63,0 46.74,15.07 55.75,37.99l162.14,412.51l145.98,-145.98c23.39,-23.39 61.32,-23.39 84.72,0l47.11,47.11c23.39,23.39 23.4,61.3 0.02,84.69z" fill="#000000" filter="url(#filter-BZ6ztM67)"/>
		</g>
		<g color="#ffffff" class="teamapps-effect-color-1">
			<path d="M921.87,587.75l-317.04,317.37c-23.39,23.41 -61.34,23.43 -84.74,0.02l-170.05,-170.04c-23.39,-23.39 -23.4,-61.32 0,-84.72l45.07,-45.07h-53l-22.88,61.27c-8.75,23.42 -31.12,38.95 -56.12,38.95h-69.82c-19.81,0 -38.35,-9.8 -49.5,-26.17c-11.16,-16.37 -13.5,-37.21 -6.25,-55.65l170.72,-434.31c9.01,-22.92 31.13,-37.99 55.75,-37.99h62.14c24.63,0 46.74,15.07 55.75,37.99l162.14,412.51l145.98,-145.98c23.39,-23.39 61.32,-23.39 84.72,0l47.11,47.11c23.39,23.39 23.4,61.3 0.02,84.69z" fill="currentColor"/>
		</g>
		<g>
			<g color="#1565c0" class="teamapps-color-1">
				<path d="M879.49,545.41l-317.04,317.37l-170.05,-170.04l47.11,-47.11l122.61,122.94l270.27,-270.27zM488.95,545.41h-188.42l-37.42,100.22h-69.82l170.72,-434.31h62.14l170.71,434.31h-69.82zM464.23,478.59l-69.15,-184.41l-69.15,184.41z" fill="currentColor"/>
			</g>
		</g>
	</g>
</svg>