<svg version="1.1" xmlns="http://www.w3.org/2000/svg" xmlns:xlink="http://www.w3.org/1999/xlink" viewBox="0,0,1024,1024">
	<!-- Color names: teamapps-color-1, teamapps-effect-color-1 -->
	<desc>subway icon - Licensed under Apache License v2.0 (http://www.apache.org/licenses/LICENSE-2.0) - Created with Iconfu.com - Derivative work of Material icons (Copyright Google Inc.)</desc>
	<defs>
		<clipPath id="clip-x8quiSDQ">
			<path d="M60.37,60.37h963.63v963.63h-963.63z"/>
		</clipPath>
		<filter id="filter-yLnIxQ9j" x="-8%" y="-8%" width="140%" height="140%" color-interpolation-filters="sRGB">
			<feColorMatrix values="1 0 0 0 0 0 1 0 0 0 0 0 1 0 0 0 0 0 0.17 0" in="SourceGraphic"/>
			<feOffset dx="14.14" dy="14.14"/>
			<feGaussianBlur stdDeviation="11" result="blur0"/>
			<feColorMatrix values="1 0 0 0 0 0 1 0 0 0 0 0 1 0 0 0 0 0 0.25 0" in="SourceGraphic"/>
			<feOffset dx="21.21" dy="21.21"/>
			<feGaussianBlur stdDeviation="20" result="blur1"/>
			<feMerge>
				<feMergeNode in="blur0"/>
				<feMergeNode in="blur1"/>
			</feMerge>
		</filter>
	</defs>
	<g fill="none" fill-rule="nonzero" style="mix-blend-mode: normal">
		<g clip-path="url(#clip-x8quiSDQ)">
			<path d="M905.99,407.1v438.98c0,33.08 -26.82,59.9 -59.9,59.9h-668.17c-33.08,0 -59.9,-26.82 -59.9,-59.9v-438.98c0,-119.13 66.79,-214.72 178.36,-258.23c71.7,-28.25 153.42,-30.86 215.63,-30.86c62.21,0 143.93,2.62 215.63,30.86c111.57,43.51 178.36,139.1 178.36,258.23z" fill="#000000" filter="url(#filter-yLnIxQ9j)"/>
		</g>
		<g color="#ffffff" class="teamapps-effect-color-1">
			<path d="M905.99,407.1v438.98c0,33.08 -26.82,59.9 -59.9,59.9h-668.17c-33.08,0 -59.9,-26.82 -59.9,-59.9v-438.98c0,-119.13 66.79,-214.72 178.36,-258.23c71.7,-28.25 153.42,-30.86 215.63,-30.86c62.21,0 143.93,2.62 215.63,30.86c111.57,43.51 178.36,139.1 178.36,258.23z" fill="currentColor"/>
		</g>
		<g>
			<g color="#1565c0" class="teamapps-color-1">
				<path d="M595.52,645.63c0,-18.45 14.96,-33.41 33.4,-33.41c18.45,0 33.41,14.96 33.41,33.41c0,18.45 -14.96,33.4 -33.41,33.4c-18.45,0 -33.4,-14.96 -33.4,-33.4z" fill="currentColor"/>
			</g>
			<g color="#1565c0" class="teamapps-color-1">
				<path d="M361.66,645.63c0,-18.45 14.96,-33.41 33.41,-33.41c18.45,0 33.4,14.96 33.4,33.41c0,18.45 -14.96,33.4 -33.4,33.4c-18.45,0 -33.41,-14.96 -33.41,-33.4z" fill="currentColor"/>
			</g>
			<g color="#1565c0" class="teamapps-color-1">
				<path d="M846.08,407.1v438.98h-668.17v-438.98c0,-93.87 51.11,-167.71 140.31,-202.45c60.13,-23.72 131.63,-26.73 193.77,-26.73c62.14,0 133.63,3.01 193.77,26.73c89.2,34.74 140.31,108.58 140.31,202.45zM712.45,411.78c0,-87.53 -89.54,-100.22 -200.45,-100.22c-100.22,0 -200.45,12.36 -200.45,100.22v229.85c0,48.11 39.42,87.52 87.53,87.52l-37.42,37.42v12.69h55.79l50.11,-50.11h94.55l50.11,50.11h50.11v-12.69l-37.75,-37.42c48.44,0 87.86,-39.08 87.86,-87.52zM345.29,411.78h334.08v167.04h-334.08z" fill="currentColor"/>
			</g>
		</g>
	</g>
</svg>