<svg version="1.1" xmlns="http://www.w3.org/2000/svg" xmlns:xlink="http://www.w3.org/1999/xlink" viewBox="0,0,1024,1024">
	<!-- Color names: teamapps-color-1, teamapps-effect-color-1 -->
	<desc>texture icon - Licensed under Apache License v2.0 (http://www.apache.org/licenses/LICENSE-2.0) - Created with Iconfu.com - Derivative work of Material icons (Copyright Google Inc.)</desc>
	<defs>
		<filter id="filter-khDZXtfA" x="-8%" y="-8%" width="147%" height="147%" color-interpolation-filters="sRGB">
			<feColorMatrix values="1 0 0 0 0 0 1 0 0 0 0 0 1 0 0 0 0 0 0.17 0" in="SourceGraphic"/>
			<feOffset dx="14.14" dy="14.14"/>
			<feGaussianBlur stdDeviation="11" result="blur0"/>
			<feColorMatrix values="1 0 0 0 0 0 1 0 0 0 0 0 1 0 0 0 0 0 0.25 0" in="SourceGraphic"/>
			<feOffset dx="21.21" dy="21.21"/>
			<feGaussianBlur stdDeviation="20" result="blur1"/>
			<feMerge>
				<feMergeNode in="blur0"/>
				<feMergeNode in="blur1"/>
			</feMerge>
		</filter>
	</defs>
	<g fill="none" fill-rule="nonzero" style="mix-blend-mode: normal">
		<path d="M852.68,303.47l-62.51,62.47c14.3,-5.79 30.6,-5.96 45.42,0.18c22.38,9.27 36.98,31.12 36.98,55.34v94.55c0,15.89 -6.31,31.12 -17.55,42.36l-65.35,65.35c14.42,-5.99 30.93,-6.24 45.92,-0.03c22.38,9.27 36.98,31.12 36.98,55.34v66.82c0,34.39 -13.74,66.29 -37.25,89.47c-23.17,23.51 -55.08,37.25 -89.47,37.25h-66.82c-24.23,0 -46.07,-14.6 -55.34,-36.98c-6.21,-14.99 -5.96,-31.5 0.03,-45.92l-65.35,65.35c-11.23,11.23 -26.47,17.55 -42.36,17.55h-94.55c-24.23,0 -46.07,-14.6 -55.34,-36.98c-6.2,-14.97 -5.96,-31.45 0,-45.85l-62.67,62.63c-15.09,15.08 -37.05,21 -57.67,15.54c-21.7,-5.74 -40.93,-17.05 -56.22,-31.73c-0.59,-0.57 -1.17,-1.15 -1.74,-1.74c-14.67,-15.29 -25.99,-34.52 -31.73,-56.22c-5.46,-20.63 0.47,-42.6 15.55,-57.68l62.68,-62.68c-14.42,5.99 -30.93,6.24 -45.92,0.03c-22.38,-9.27 -36.98,-31.12 -36.98,-55.34v-94.55c0,-15.89 6.31,-31.12 17.55,-42.36l65.35,-65.35c-14.42,5.99 -30.93,6.24 -45.92,0.03c-22.38,-9.27 -36.98,-31.12 -36.98,-55.34v-66.82c0,-69.83 56.89,-126.72 126.72,-126.72h66.82c24.23,0 46.07,14.6 55.34,36.98c6.21,14.99 5.96,31.5 -0.03,45.92l65.35,-65.35c11.23,-11.23 26.47,-17.55 42.36,-17.55h94.55c24.23,0 46.07,14.6 55.34,36.98c6.21,14.99 5.96,31.5 -0.03,45.92l62.68,-62.68c15.03,-15.03 36.91,-20.97 57.48,-15.61c44.14,11.52 78.14,45.88 90.07,89.16c5.73,20.78 -0.16,43.04 -15.41,58.28z" fill="#000000" filter="url(#filter-khDZXtfA)"/>
		<g color="#ffffff" class="teamapps-effect-color-1">
			<path d="M852.68,303.47l-62.51,62.47c14.3,-5.79 30.6,-5.96 45.42,0.18c22.38,9.27 36.98,31.12 36.98,55.34v94.55c0,15.89 -6.31,31.12 -17.55,42.36l-65.35,65.35c14.42,-5.99 30.93,-6.24 45.92,-0.03c22.38,9.27 36.98,31.12 36.98,55.34v66.82c0,34.39 -13.74,66.29 -37.25,89.47c-23.17,23.51 -55.08,37.25 -89.47,37.25h-66.82c-24.23,0 -46.07,-14.6 -55.34,-36.98c-6.21,-14.99 -5.96,-31.5 0.03,-45.92l-65.35,65.35c-11.23,11.23 -26.47,17.55 -42.36,17.55h-94.55c-24.23,0 -46.07,-14.6 -55.34,-36.98c-6.2,-14.97 -5.96,-31.45 0,-45.85l-62.67,62.63c-15.09,15.08 -37.05,21 -57.67,15.54c-21.7,-5.74 -40.93,-17.05 -56.22,-31.73c-0.59,-0.57 -1.17,-1.15 -1.74,-1.74c-14.67,-15.29 -25.99,-34.52 -31.73,-56.22c-5.46,-20.63 0.47,-42.6 15.55,-57.68l62.68,-62.68c-14.42,5.99 -30.93,6.24 -45.92,0.03c-22.38,-9.27 -36.98,-31.12 -36.98,-55.34v-94.55c0,-15.89 6.31,-31.12 17.55,-42.36l65.35,-65.35c-14.42,5.99 -30.93,6.24 -45.92,0.03c-22.38,-9.27 -36.98,-31.12 -36.98,-55.34v-66.82c0,-69.83 56.89,-126.72 126.72,-126.72h66.82c24.23,0 46.07,14.6 55.34,36.98c6.21,14.99 5.96,31.5 -0.03,45.92l65.35,-65.35c11.23,-11.23 26.47,-17.55 42.36,-17.55h94.55c24.23,0 46.07,14.6 55.34,36.98c6.21,14.99 5.96,31.5 -0.03,45.92l62.68,-62.68c15.03,-15.03 36.91,-20.97 57.48,-15.61c44.14,11.52 78.14,45.88 90.07,89.16c5.73,20.78 -0.16,43.04 -15.41,58.28z" fill="currentColor"/>
		</g>
		<g>
			<g color="#1565c0" class="teamapps-color-1">
				<path d="M810.33,261.1l-549.23,548.9c-11.36,-3.01 -21.71,-9.02 -30.07,-17.04c-8.02,-8.35 -14.03,-18.71 -17.04,-30.07l548.9,-548.9c23.05,6.01 41.08,24.05 47.43,47.11zM812.67,421.46v94.55l-296.66,296.66h-94.55zM602.54,211.33l-391.21,391.21v-94.55l296.66,-296.66zM679.04,812.67l133.63,-133.63v66.82c0,18.38 -7.34,35.08 -19.71,47.11c-12.03,12.36 -28.73,19.71 -47.11,19.71zM344.96,211.33l-133.63,133.63v-66.82c0,-36.75 30.07,-66.81 66.81,-66.81z" fill="currentColor"/>
			</g>
		</g>
	</g>
</svg>