<svg version="1.1" xmlns="http://www.w3.org/2000/svg" xmlns:xlink="http://www.w3.org/1999/xlink" viewBox="0,0,1024,1024">
	<!-- Color names: teamapps-color-1, teamapps-effect-color-1 -->
	<desc>text_fields icon - Licensed under Apache License v2.0 (http://www.apache.org/licenses/LICENSE-2.0) - Created with Iconfu.com - Derivative work of Material icons (Copyright Google Inc.)</desc>
	<defs>
		<filter id="filter-ZTrgU64w" x="-8%" y="-10%" width="143%" height="161%" color-interpolation-filters="sRGB">
			<feColorMatrix values="1 0 0 0 0 0 1 0 0 0 0 0 1 0 0 0 0 0 0.17 0" in="SourceGraphic"/>
			<feOffset dx="14.14" dy="14.14"/>
			<feGaussianBlur stdDeviation="11" result="blur0"/>
			<feColorMatrix values="1 0 0 0 0 0 1 0 0 0 0 0 1 0 0 0 0 0 0.25 0" in="SourceGraphic"/>
			<feOffset dx="21.21" dy="21.21"/>
			<feGaussianBlur stdDeviation="20" result="blur1"/>
			<feMerge>
				<feMergeNode in="blur0"/>
				<feMergeNode in="blur1"/>
			</feMerge>
		</filter>
	</defs>
	<g fill="none" fill-rule="nonzero" style="mix-blend-mode: normal">
		<path d="M688.83,244.74v100.22c0,2.34 -0.13,4.64 -0.39,6.91h140.94c33.08,0 59.9,26.82 59.9,59.9v100.22c0,33.08 -26.82,59.9 -59.9,59.9h-40.32v173.95c0,33.08 -26.82,59.9 -59.9,59.9h-100.22c-33.08,0 -59.9,-26.82 -59.9,-59.9v-173.95h-40.32c-2.34,0 -4.64,-0.13 -6.91,-0.39v174.35c0,33.08 -26.82,59.9 -59.9,59.9h-100.22c-33.08,0 -59.9,-26.82 -59.9,-59.9v-340.99h-107.13c-33.08,0 -59.9,-26.82 -59.9,-59.9v-100.22c0,-33.08 26.82,-59.9 59.9,-59.9h434.3c33.08,0 59.9,26.82 59.9,59.9z" fill="#000000" filter="url(#filter-ZTrgU64w)"/>
		<g color="#ffffff" class="teamapps-effect-color-1">
			<path d="M688.83,244.74v100.22c0,2.34 -0.13,4.64 -0.39,6.91h140.94c33.08,0 59.9,26.82 59.9,59.9v100.22c0,33.08 -26.82,59.9 -59.9,59.9h-40.32v173.95c0,33.08 -26.82,59.9 -59.9,59.9h-100.22c-33.08,0 -59.9,-26.82 -59.9,-59.9v-173.95h-40.32c-2.34,0 -4.64,-0.13 -6.91,-0.39v174.35c0,33.08 -26.82,59.9 -59.9,59.9h-100.22c-33.08,0 -59.9,-26.82 -59.9,-59.9v-340.99h-107.13c-33.08,0 -59.9,-26.82 -59.9,-59.9v-100.22c0,-33.08 26.82,-59.9 59.9,-59.9h434.3c33.08,0 59.9,26.82 59.9,59.9z" fill="currentColor"/>
		</g>
		<g>
			<g color="#1565c0" class="teamapps-color-1">
				<path d="M628.93,244.74v100.22h-167.04v400.9h-100.22v-400.9h-167.04v-100.22zM829.37,512h-100.22v233.86h-100.22v-233.86h-100.22v-100.22h300.67z" fill="currentColor"/>
			</g>
		</g>
	</g>
</svg>