<svg version="1.1" xmlns="http://www.w3.org/2000/svg" xmlns:xlink="http://www.w3.org/1999/xlink" viewBox="0,0,1024,1024">
	<!-- Color names: teamapps-color-1, teamapps-effect-color-1 -->
	<desc>tonality icon - Licensed under Apache License v2.0 (http://www.apache.org/licenses/LICENSE-2.0) - Created with Iconfu.com - Derivative work of Material icons (Copyright Google Inc.)</desc>
	<defs>
		<clipPath id="clip-3OFtiLfk">
			<path d="M60.37,60.37h963.63v963.63h-963.63z"/>
		</clipPath>
		<filter id="filter-UjxtvOku" x="-8%" y="-8%" width="140%" height="140%" color-interpolation-filters="sRGB">
			<feColorMatrix values="1 0 0 0 0 0 1 0 0 0 0 0 1 0 0 0 0 0 0.17 0" in="SourceGraphic"/>
			<feOffset dx="14.14" dy="14.14"/>
			<feGaussianBlur stdDeviation="11" result="blur0"/>
			<feColorMatrix values="1 0 0 0 0 0 1 0 0 0 0 0 1 0 0 0 0 0 0.25 0" in="SourceGraphic"/>
			<feOffset dx="21.21" dy="21.21"/>
			<feGaussianBlur stdDeviation="20" result="blur1"/>
			<feMerge>
				<feMergeNode in="blur0"/>
				<feMergeNode in="blur1"/>
			</feMerge>
		</filter>
	</defs>
	<g fill="none" fill-rule="nonzero" style="mix-blend-mode: normal">
		<g clip-path="url(#clip-3OFtiLfk)">
			<path d="M905.99,512c0,217.5 -176.49,393.99 -393.99,393.99c-217.5,0 -393.99,-176.49 -393.99,-393.99c0,-217.5 176.49,-393.99 393.99,-393.99c217.5,0 393.99,176.49 393.99,393.99z" fill="#000000" filter="url(#filter-UjxtvOku)"/>
		</g>
		<g color="#ffffff" class="teamapps-effect-color-1">
			<path d="M905.99,512c0,217.5 -176.49,393.99 -393.99,393.99c-217.5,0 -393.99,-176.49 -393.99,-393.99c0,-217.5 176.49,-393.99 393.99,-393.99c217.5,0 393.99,176.49 393.99,393.99z" fill="currentColor"/>
		</g>
		<g>
			<g color="#1565c0" class="teamapps-color-1">
				<path d="M846.08,512c0,184.41 -149.67,334.08 -334.08,334.08c-184.41,0 -334.08,-149.67 -334.08,-334.08c0,-184.41 149.67,-334.08 334.08,-334.08c184.41,0 334.08,149.67 334.08,334.08zM478.59,247.07c-131.96,16.37 -233.85,128.62 -233.85,264.93c0,136.3 102.22,248.56 233.85,264.93zM545.41,478.59h231.52c-1.34,-11.36 -3.68,-22.38 -6.35,-33.4h-225.17zM776.93,545.41h-231.52v33.4h225.17c2.67,-11.02 5.01,-22.04 6.35,-33.4zM545.41,378.37h197.77c-6.68,-11.69 -14.36,-23.04 -22.71,-33.4h-175.06zM743.18,645.63h-197.77v33.4h175.06c8.35,-10.36 16.04,-21.71 22.71,-33.4zM545.41,278.14h95.88c-29.06,-16.04 -61.47,-26.72 -95.88,-31.07zM641.29,745.86h-95.88v31.07c34.41,-4.35 66.81,-15.03 95.88,-31.07z" fill="currentColor"/>
			</g>
		</g>
	</g>
</svg>