<svg version="1.1" xmlns="http://www.w3.org/2000/svg" xmlns:xlink="http://www.w3.org/1999/xlink" viewBox="0,0,1024,1024">
	<!-- Color names: teamapps-color-1, teamapps-effect-color-1 -->
	<desc>tune icon - Licensed under Apache License v2.0 (http://www.apache.org/licenses/LICENSE-2.0) - Created with Iconfu.com - Derivative work of Material icons (Copyright Google Inc.)</desc>
	<defs>
		<filter id="filter-EQFzvL8M" x="-8%" y="-8%" width="147%" height="147%" color-interpolation-filters="sRGB">
			<feColorMatrix values="1 0 0 0 0 0 1 0 0 0 0 0 1 0 0 0 0 0 0.17 0" in="SourceGraphic"/>
			<feOffset dx="14.14" dy="14.14"/>
			<feGaussianBlur stdDeviation="11" result="blur0"/>
			<feColorMatrix values="1 0 0 0 0 0 1 0 0 0 0 0 1 0 0 0 0 0 0.25 0" in="SourceGraphic"/>
			<feOffset dx="21.21" dy="21.21"/>
			<feGaussianBlur stdDeviation="20" result="blur1"/>
			<feMerge>
				<feMergeNode in="blur0"/>
				<feMergeNode in="blur1"/>
			</feMerge>
		</filter>
	</defs>
	<g fill="none" fill-rule="nonzero" style="mix-blend-mode: normal">
		<path d="M418.69,812.67v-7.3c-2.27,0.26 -4.57,0.39 -6.91,0.39h-200.45c-33.08,0 -59.9,-26.82 -59.9,-59.9v-66.82c0,-33.08 26.82,-59.9 59.9,-59.9h74.12l-0.39,-13.82h-73.73c-33.08,0 -59.9,-26.82 -59.9,-59.9v-66.82c0,-33.08 26.82,-59.9 59.9,-59.9h73.73l0.39,-13.82h-74.12c-33.08,0 -59.9,-26.82 -59.9,-59.9v-66.82c0,-33.08 26.82,-59.9 59.9,-59.9h334.08c2.34,0 4.64,0.13 6.91,0.39v-7.3c0,-33.08 26.82,-59.9 59.9,-59.9h66.81c33.08,0 59.9,26.82 59.9,59.9v6.91h73.73c33.08,0 59.9,26.82 59.9,59.9v66.82c0,33.08 -26.82,59.9 -59.9,59.9h-73.73l-0.39,13.82h74.12c33.08,0 59.9,26.82 59.9,59.9v66.82c0,33.08 -26.82,59.9 -59.9,59.9h-207.75l0.39,13.82h207.36c33.08,0 59.9,26.82 59.9,59.9v66.82c0,33.08 -26.82,59.9 -59.9,59.9h-207.36v6.91c0,33.08 -26.82,59.9 -59.9,59.9h-66.82c-33.08,0 -59.9,-26.82 -59.9,-59.9z" fill="#000000" filter="url(#filter-EQFzvL8M)"/>
		<g color="#ffffff" class="teamapps-effect-color-1">
			<path d="M418.69,812.67v-7.3c-2.27,0.26 -4.57,0.39 -6.91,0.39h-200.45c-33.08,0 -59.9,-26.82 -59.9,-59.9v-66.82c0,-33.08 26.82,-59.9 59.9,-59.9h74.12l-0.39,-13.82h-73.73c-33.08,0 -59.9,-26.82 -59.9,-59.9v-66.82c0,-33.08 26.82,-59.9 59.9,-59.9h73.73l0.39,-13.82h-74.12c-33.08,0 -59.9,-26.82 -59.9,-59.9v-66.82c0,-33.08 26.82,-59.9 59.9,-59.9h334.08c2.34,0 4.64,0.13 6.91,0.39v-7.3c0,-33.08 26.82,-59.9 59.9,-59.9h66.81c33.08,0 59.9,26.82 59.9,59.9v6.91h73.73c33.08,0 59.9,26.82 59.9,59.9v66.82c0,33.08 -26.82,59.9 -59.9,59.9h-73.73l-0.39,13.82h74.12c33.08,0 59.9,26.82 59.9,59.9v66.82c0,33.08 -26.82,59.9 -59.9,59.9h-207.75l0.39,13.82h207.36c33.08,0 59.9,26.82 59.9,59.9v66.82c0,33.08 -26.82,59.9 -59.9,59.9h-207.36v6.91c0,33.08 -26.82,59.9 -59.9,59.9h-66.82c-33.08,0 -59.9,-26.82 -59.9,-59.9z" fill="currentColor"/>
		</g>
		<g>
			<g color="#1565c0" class="teamapps-color-1">
				<path d="M478.59,812.67v-200.45h66.82v66.81h267.26v66.82h-267.26v66.81zM411.78,411.78v200.45h-66.81v-66.81h-133.63v-66.82h133.63v-66.81zM612.22,211.33h66.81v66.81h133.63v66.82h-133.63v66.81h-66.81zM478.59,545.41v-66.82h334.08v66.82zM545.41,278.14v66.82h-334.08v-66.82zM411.78,679.04v66.82h-200.45v-66.82z" fill="currentColor"/>
			</g>
		</g>
	</g>
</svg>