<svg version="1.1" xmlns="http://www.w3.org/2000/svg" xmlns:xlink="http://www.w3.org/1999/xlink" viewBox="0,0,1024,1024">
	<!-- Color names: teamapps-color-1, teamapps-effect-color-1 -->
	<desc>view_comfy icon - Licensed under Apache License v2.0 (http://www.apache.org/licenses/LICENSE-2.0) - Created with Iconfu.com - Derivative work of Material icons (Copyright Google Inc.)</desc>
	<defs>
		<clipPath id="clip-JKM6xW1R">
			<path d="M93.78,934.12v-773.53h930.22v773.53z"/>
		</clipPath>
		<filter id="filter-nL7BnGIm" x="-8%" y="-10%" width="146%" height="169%" color-interpolation-filters="sRGB">
			<feColorMatrix values="1 0 0 0 0 0 1 0 0 0 0 0 1 0 0 0 0 0 0.17 0" in="SourceGraphic"/>
			<feOffset dx="14.14" dy="14.14"/>
			<feGaussianBlur stdDeviation="11" result="blur0"/>
			<feColorMatrix values="1 0 0 0 0 0 1 0 0 0 0 0 1 0 0 0 0 0 0.25 0" in="SourceGraphic"/>
			<feOffset dx="21.21" dy="21.21"/>
			<feGaussianBlur stdDeviation="20" result="blur1"/>
			<feMerge>
				<feMergeNode in="blur0"/>
				<feMergeNode in="blur1"/>
			</feMerge>
		</filter>
	</defs>
	<g fill="none" fill-rule="nonzero" style="mix-blend-mode: normal">
		<g clip-path="url(#clip-JKM6xW1R)">
			<path d="M905.99,612.22v133.63c0,33.08 -26.82,59.9 -59.9,59.9h-133.63c-5.8,0 -11.4,-0.82 -16.71,-2.36c-5.3,1.54 -10.91,2.36 -16.71,2.36h-133.63c-5.8,0 -11.4,-0.82 -16.71,-2.36c-5.3,1.54 -10.91,2.36 -16.71,2.36h-133.63c-5.8,0 -11.4,-0.82 -16.7,-2.36c-5.3,1.54 -10.91,2.36 -16.7,2.36h-133.63c-33.08,0 -59.9,-26.82 -59.9,-59.9v-133.63c0,-5.8 0.82,-11.4 2.36,-16.71c-1.54,-5.3 -2.36,-10.91 -2.36,-16.71v-133.63c0,-5.8 0.82,-11.4 2.36,-16.71c-1.54,-5.3 -2.36,-10.91 -2.36,-16.71v-133.63c0,-33.08 26.82,-59.9 59.9,-59.9h133.63c5.8,0 11.4,0.82 16.7,2.36c5.3,-1.54 10.91,-2.36 16.7,-2.36h133.63c5.8,0 11.4,0.82 16.71,2.36c5.3,-1.54 10.91,-2.36 16.71,-2.36h133.63c5.8,0 11.4,0.82 16.71,2.36c5.3,-1.54 10.91,-2.36 16.71,-2.36h133.63c33.08,0 59.9,26.82 59.9,59.9v133.63c0,5.8 -0.82,11.4 -2.36,16.71c1.54,5.3 2.36,10.91 2.36,16.71v133.63c0,5.8 -0.82,11.4 -2.36,16.71c1.54,5.3 2.36,10.91 2.36,16.71z" fill="#000000" filter="url(#filter-nL7BnGIm)"/>
		</g>
		<g color="#ffffff" class="teamapps-effect-color-1">
			<path d="M905.99,612.22v133.63c0,33.08 -26.82,59.9 -59.9,59.9h-133.63c-5.8,0 -11.4,-0.82 -16.71,-2.36c-5.3,1.54 -10.91,2.36 -16.71,2.36h-133.63c-5.8,0 -11.4,-0.82 -16.71,-2.36c-5.3,1.54 -10.91,2.36 -16.71,2.36h-133.63c-5.8,0 -11.4,-0.82 -16.7,-2.36c-5.3,1.54 -10.91,2.36 -16.7,2.36h-133.63c-33.08,0 -59.9,-26.82 -59.9,-59.9v-133.63c0,-5.8 0.82,-11.4 2.36,-16.71c-1.54,-5.3 -2.36,-10.91 -2.36,-16.71v-133.63c0,-5.8 0.82,-11.4 2.36,-16.71c-1.54,-5.3 -2.36,-10.91 -2.36,-16.71v-133.63c0,-33.08 26.82,-59.9 59.9,-59.9h133.63c5.8,0 11.4,0.82 16.7,2.36c5.3,-1.54 10.91,-2.36 16.7,-2.36h133.63c5.8,0 11.4,0.82 16.71,2.36c5.3,-1.54 10.91,-2.36 16.71,-2.36h133.63c5.8,0 11.4,0.82 16.71,2.36c5.3,-1.54 10.91,-2.36 16.71,-2.36h133.63c33.08,0 59.9,26.82 59.9,59.9v133.63c0,5.8 -0.82,11.4 -2.36,16.71c1.54,5.3 2.36,10.91 2.36,16.71v133.63c0,5.8 -0.82,11.4 -2.36,16.71c1.54,5.3 2.36,10.91 2.36,16.71z" fill="currentColor"/>
		</g>
		<g>
			<g color="#1565c0" class="teamapps-color-1">
				<path d="M378.37,278.14h133.63v133.63h-133.63zM211.33,278.14h133.63v133.63h-133.63zM378.37,445.19h133.63v133.63h-133.63zM679.04,278.14v133.63h-133.63v-133.63zM378.37,612.22h133.63v133.63h-133.63zM846.08,278.14v133.63h-133.63v-133.63zM211.33,445.19h133.63v133.63h-133.63zM545.41,445.19h133.63v133.63h-133.63zM712.45,445.19h133.63v133.63h-133.63zM211.33,612.22h133.63v133.63h-133.63zM545.41,612.22h133.63v133.63h-133.63zM712.45,612.22h133.63v133.63h-133.63z" fill="currentColor"/>
			</g>
		</g>
	</g>
</svg>