<svg version="1.1" xmlns="http://www.w3.org/2000/svg" xmlns:xlink="http://www.w3.org/1999/xlink" viewBox="0,0,1024,1024">
	<!-- Color names: teamapps-color-1, teamapps-effect-color-1 -->
	<desc>wc icon - Licensed under Apache License v2.0 (http://www.apache.org/licenses/LICENSE-2.0) - Created with Iconfu.com - Derivative work of Material icons (Copyright Google Inc.)</desc>
	<defs>
		<clipPath id="clip-8VegkI4c">
			<path d="M127.19,60.37h873.74v963.63h-873.74z"/>
		</clipPath>
		<filter id="filter-Y8VwbhOG" x="-9%" y="-8%" width="155%" height="140%" color-interpolation-filters="sRGB">
			<feColorMatrix values="1 0 0 0 0 0 1 0 0 0 0 0 1 0 0 0 0 0 0.17 0" in="SourceGraphic"/>
			<feOffset dx="14.14" dy="14.14"/>
			<feGaussianBlur stdDeviation="11" result="blur0"/>
			<feColorMatrix values="1 0 0 0 0 0 1 0 0 0 0 0 1 0 0 0 0 0 0.25 0" in="SourceGraphic"/>
			<feOffset dx="21.21" dy="21.21"/>
			<feGaussianBlur stdDeviation="20" result="blur1"/>
			<feMerge>
				<feMergeNode in="blur0"/>
				<feMergeNode in="blur1"/>
			</feMerge>
		</filter>
	</defs>
	<g fill="none" fill-rule="nonzero" style="mix-blend-mode: normal">
		<g clip-path="url(#clip-8VegkI4c)">
			<path d="M552.32,846.08v-140.54h-40.32c-8.23,0 -16.25,-1.69 -23.62,-4.85v145.4c0,33.08 -26.82,59.9 -59.9,59.9h-133.63c-33.08,0 -59.9,-26.82 -59.9,-59.9v-191.45c-28.43,-4.67 -50.11,-29.36 -50.11,-59.11v-183.75c0,-46.89 25.65,-87.94 63.64,-109.86c-8.66,-17.16 -13.53,-36.59 -13.53,-57.18c0,-70.16 56.54,-126.73 126.72,-126.73c70.18,0 126.72,56.57 126.72,126.73c0,20.6 -4.87,40.02 -13.53,57.18c30.54,17.62 53.11,47.6 60.78,83.05l4.35,-13.08c5.6,-16.97 14.55,-32.09 25.94,-44.76c-18.91,-22.13 -30.31,-50.89 -30.31,-82.39c0,-70.16 56.54,-126.73 126.72,-126.73c70.18,0 126.72,56.57 126.72,126.73c0,31.55 -11.43,60.34 -30.39,82.49c11.28,12.58 20.17,27.51 25.85,44.14l85,255.35c6.08,18.27 3.01,38.34 -8.25,53.96c-11.26,15.62 -29.34,24.87 -48.59,24.87h-40.32v140.54c0,33.08 -26.82,59.9 -59.9,59.9h-100.22c-33.08,0 -59.9,-26.82 -59.9,-59.9z" fill="#000000" filter="url(#filter-Y8VwbhOG)"/>
		</g>
		<g color="#ffffff" class="teamapps-effect-color-1">
			<path d="M552.32,846.08v-140.54h-40.32c-8.23,0 -16.25,-1.69 -23.62,-4.85v145.4c0,33.08 -26.82,59.9 -59.9,59.9h-133.63c-33.08,0 -59.9,-26.82 -59.9,-59.9v-191.45c-28.43,-4.67 -50.11,-29.36 -50.11,-59.11v-183.75c0,-46.89 25.65,-87.94 63.64,-109.86c-8.66,-17.16 -13.53,-36.59 -13.53,-57.18c0,-70.16 56.54,-126.73 126.72,-126.73c70.18,0 126.72,56.57 126.72,126.73c0,20.6 -4.87,40.02 -13.53,57.18c30.54,17.62 53.11,47.6 60.78,83.05l4.35,-13.08c5.6,-16.97 14.55,-32.09 25.94,-44.76c-18.91,-22.13 -30.31,-50.89 -30.31,-82.39c0,-70.16 56.54,-126.73 126.72,-126.73c70.18,0 126.72,56.57 126.72,126.73c0,31.55 -11.43,60.34 -30.39,82.49c11.28,12.58 20.17,27.51 25.85,44.14l85,255.35c6.08,18.27 3.01,38.34 -8.25,53.96c-11.26,15.62 -29.34,24.87 -48.59,24.87h-40.32v140.54c0,33.08 -26.82,59.9 -59.9,59.9h-100.22c-33.08,0 -59.9,-26.82 -59.9,-59.9z" fill="currentColor"/>
		</g>
		<g>
			<g color="#1565c0" class="teamapps-color-1">
				<path d="M612.22,846.08v-200.45h-100.22l84.85,-254.91c9.02,-27.4 34.75,-45.77 63.48,-45.77h4.01c28.73,0 54.12,18.37 63.48,45.77l84.85,254.91h-100.22v200.45zM294.85,846.08v-250.56h-50.11v-183.75c0,-36.75 30.07,-66.81 66.81,-66.81h100.22c36.75,0 66.81,30.07 66.81,66.81v183.75h-50.11v250.56zM294.85,244.74c0,-37.08 29.73,-66.82 66.81,-66.82c37.08,0 66.81,29.74 66.81,66.82c0,37.08 -29.73,66.81 -66.81,66.81c-37.08,0 -66.81,-29.73 -66.81,-66.81zM595.52,244.74c0,-37.08 29.73,-66.82 66.81,-66.82c37.08,0 66.81,29.74 66.81,66.82c0,37.08 -29.73,66.81 -66.81,66.81c-37.08,0 -66.81,-29.73 -66.81,-66.81z" fill="currentColor"/>
			</g>
		</g>
	</g>
</svg>