<svg version="1.1" xmlns="http://www.w3.org/2000/svg" xmlns:xlink="http://www.w3.org/1999/xlink" viewBox="0,0,1024,1024">
	<!-- Color names: teamapps-color-1, teamapps-effect-color-1 -->
	<desc>zoom_out_map icon - Licensed under Apache License v2.0 (http://www.apache.org/licenses/LICENSE-2.0) - Created with Iconfu.com - Derivative work of Material icons (Copyright Google Inc.)</desc>
	<defs>
		<filter id="filter-Rzwlr6SW" x="-8%" y="-8%" width="147%" height="147%" color-interpolation-filters="sRGB">
			<feColorMatrix values="1 0 0 0 0 0 1 0 0 0 0 0 1 0 0 0 0 0 0.17 0" in="SourceGraphic"/>
			<feOffset dx="14.14" dy="14.14"/>
			<feGaussianBlur stdDeviation="11" result="blur0"/>
			<feColorMatrix values="1 0 0 0 0 0 1 0 0 0 0 0 1 0 0 0 0 0 0.25 0" in="SourceGraphic"/>
			<feOffset dx="21.21" dy="21.21"/>
			<feGaussianBlur stdDeviation="20" result="blur1"/>
			<feMerge>
				<feMergeNode in="blur0"/>
				<feMergeNode in="blur1"/>
			</feMerge>
		</filter>
	</defs>
	<g fill="none" fill-rule="nonzero" style="mix-blend-mode: normal">
		<path d="M872.58,211.33v200.45c0,24.23 -14.6,46.07 -36.98,55.34c-22.38,9.27 -48.15,4.15 -65.28,-12.99l-34.33,-34.33l-53.53,53.9c-23.37,23.53 -61.41,23.6 -84.86,0.15l-47.43,-47.43c-23.45,-23.45 -23.39,-61.49 0.15,-84.86l53.9,-53.53l-34.33,-34.33c-17.13,-17.13 -22.26,-42.9 -12.99,-65.28c9.27,-22.38 31.12,-36.98 55.34,-36.98h200.45c33.08,0 59.9,26.82 59.9,59.9zM812.67,872.58h-200.45c-24.23,0 -46.07,-14.6 -55.34,-36.98c-9.27,-22.38 -4.15,-48.15 12.99,-65.28l34.33,-34.33l-53.9,-53.53c-23.53,-23.37 -23.6,-61.41 -0.15,-84.86l47.43,-47.43c23.45,-23.45 61.49,-23.39 84.86,0.15l53.53,53.9l34.33,-34.33c17.13,-17.13 42.9,-22.26 65.28,-12.99c22.38,9.27 36.98,31.12 36.98,55.34v200.45c0,33.08 -26.82,59.9 -59.9,59.9zM211.33,151.42h200.45c24.23,0 46.07,14.6 55.34,36.98c9.27,22.38 4.15,48.15 -12.99,65.28l-34.33,34.33l53.9,53.53c23.53,23.37 23.6,61.41 0.15,84.86l-47.43,47.43c-23.45,23.45 -61.49,23.39 -84.86,-0.15l-53.53,-53.9l-34.33,34.33c-17.13,17.13 -42.9,22.26 -65.28,12.99c-22.38,-9.27 -36.98,-31.12 -36.98,-55.34v-200.45c0,-33.08 26.82,-59.9 59.9,-59.9zM151.42,812.67v-200.45c0,-24.23 14.6,-46.07 36.98,-55.34c22.38,-9.27 48.15,-4.15 65.28,12.99l34.33,34.33l53.53,-53.9c23.37,-23.53 61.41,-23.6 84.86,-0.15l47.43,47.43c23.45,23.45 23.39,61.49 -0.15,84.86l-53.9,53.53l34.33,34.33c17.13,17.13 22.26,42.9 12.99,65.28c-9.27,22.38 -31.12,36.98 -55.34,36.98h-200.45c-33.08,0 -59.9,-26.82 -59.9,-59.9z" fill="#000000" filter="url(#filter-Rzwlr6SW)"/>
		<g color="#ffffff" class="teamapps-effect-color-1">
			<path d="M872.58,211.33v200.45c0,24.23 -14.6,46.07 -36.98,55.34c-22.38,9.27 -48.15,4.15 -65.28,-12.99l-34.33,-34.33l-53.53,53.9c-23.37,23.53 -61.41,23.6 -84.86,0.15l-47.43,-47.43c-23.45,-23.45 -23.39,-61.49 0.15,-84.86l53.9,-53.53l-34.33,-34.33c-17.13,-17.13 -22.26,-42.9 -12.99,-65.28c9.27,-22.38 31.12,-36.98 55.34,-36.98h200.45c33.08,0 59.9,26.82 59.9,59.9zM812.67,872.58h-200.45c-24.23,0 -46.07,-14.6 -55.34,-36.98c-9.27,-22.38 -4.15,-48.15 12.99,-65.28l34.33,-34.33l-53.9,-53.53c-23.53,-23.37 -23.6,-61.41 -0.15,-84.86l47.43,-47.43c23.45,-23.45 61.49,-23.39 84.86,0.15l53.53,53.9l34.33,-34.33c17.13,-17.13 42.9,-22.26 65.28,-12.99c22.38,9.27 36.98,31.12 36.98,55.34v200.45c0,33.08 -26.82,59.9 -59.9,59.9zM211.33,151.42h200.45c24.23,0 46.07,14.6 55.34,36.98c9.27,22.38 4.15,48.15 -12.99,65.28l-34.33,34.33l53.9,53.53c23.53,23.37 23.6,61.41 0.15,84.86l-47.43,47.43c-23.45,23.45 -61.49,23.39 -84.86,-0.15l-53.53,-53.9l-34.33,34.33c-17.13,17.13 -42.9,22.26 -65.28,12.99c-22.38,-9.27 -36.98,-31.12 -36.98,-55.34v-200.45c0,-33.08 26.82,-59.9 59.9,-59.9zM151.42,812.67v-200.45c0,-24.23 14.6,-46.07 36.98,-55.34c22.38,-9.27 48.15,-4.15 65.28,12.99l34.33,34.33l53.53,-53.9c23.37,-23.53 61.41,-23.6 84.86,-0.15l47.43,47.43c23.45,23.45 23.39,61.49 -0.15,84.86l-53.9,53.53l34.33,34.33c17.13,17.13 22.26,42.9 12.99,65.28c-9.27,22.38 -31.12,36.98 -55.34,36.98h-200.45c-33.08,0 -59.9,-26.82 -59.9,-59.9z" fill="currentColor"/>
		</g>
		<g>
			<g color="#1565c0" class="teamapps-color-1">
				<path d="M812.67,812.67h-200.45l76.84,-76.84l-96.54,-95.89l47.43,-47.43l95.89,96.54l76.84,-76.84zM812.67,211.33v200.45l-76.84,-76.84l-95.89,96.54l-47.43,-47.43l96.54,-95.89l-76.84,-76.84zM211.33,812.67v-200.45l76.84,76.84l95.89,-96.54l47.43,47.43l-96.54,95.89l76.84,76.84zM211.33,211.33h200.45l-76.84,76.84l96.54,95.89l-47.43,47.43l-95.89,-96.54l-76.84,76.84z" fill="currentColor"/>
			</g>
		</g>
	</g>
</svg>