<svg version="1.1" xmlns="http://www.w3.org/2000/svg" xmlns:xlink="http://www.w3.org/1999/xlink" viewBox="0,0,1024,1024">
	<!-- Color names: teamapps-color-1, teamapps-effect-color-1 -->
	<desc>3d_rotation icon - Licensed under Apache License v2.0 (http://www.apache.org/licenses/LICENSE-2.0) - Created with Iconfu.com - Derivative work of Material icons (Copyright Google Inc.)</desc>
	<defs>
		<clipPath id="clip-44MBzN1D">
			<path d="M0,1024v-1024h1024v1024z"/>
		</clipPath>
		<filter id="filter-unJ2GUuK" x="-7%" y="-7%" width="127%" height="127%" color-interpolation-filters="sRGB">
			<feColorMatrix values="1 0 0 0 0 0 1 0 0 0 0 0 1 0 0 0 0 0 0.17 0" in="SourceGraphic"/>
			<feOffset dx="14.14" dy="14.14"/>
			<feGaussianBlur stdDeviation="11" result="blur0"/>
			<feColorMatrix values="1 0 0 0 0 0 1 0 0 0 0 0 1 0 0 0 0 0 0.25 0" in="SourceGraphic"/>
			<feOffset dx="21.21" dy="21.21"/>
			<feGaussianBlur stdDeviation="20" result="blur1"/>
			<feMerge>
				<feMergeNode in="blur0"/>
				<feMergeNode in="blur1"/>
			</feMerge>
		</filter>
	</defs>
	<g fill="none" fill-rule="nonzero" style="mix-blend-mode: normal">
		<g clip-path="url(#clip-44MBzN1D)">
			<path d="M449.12,742.25l127.28,127.28c16.78,16.78 22.07,41.89 13.49,64.02c-8.58,22.13 -29.42,37.1 -53.13,38.18l-22.43,1.01c-0.78,0.04 -1.56,0.05 -2.34,0.05c-241.63,0 -439.35,-185.92 -458.93,-422.45c-2.89,-34.91 24.67,-64.85 59.7,-64.85h50.11c30.87,0 56.69,23.46 59.63,54.19c8.59,89.74 57.97,167.66 129.58,214.76l12.47,-12.37c23.42,-23.24 61.22,-23.17 84.56,0.16zM910.89,538.16h-50.11c-30.93,0 -56.78,-23.55 -59.65,-54.35c-8.33,-89.49 -57.51,-167.15 -129.15,-214.45l-12.39,12.39c-23.39,23.39 -61.32,23.39 -84.72,0l-127.28,-127.28c-16.78,-16.78 -22.07,-41.89 -13.49,-64.02c8.58,-22.13 29.42,-37.1 53.13,-38.18l22.43,-1.01c0.78,-0.04 1.56,-0.05 2.34,-0.05c241.59,0 439.39,185.9 458.6,422.21c2.84,34.88 -24.71,64.76 -59.71,64.76zM771.35,505.65v13.37c0,25.69 -4.01,50.02 -12.25,72.82c-0.04,0.11 -0.08,0.22 -0.12,0.33c-8.42,22.81 -21.16,43.45 -37.93,60.75c-17.28,17.82 -37.68,30.58 -59.51,39.32c-23.12,9.25 -47.87,13.3 -72.7,13.3h-76.84c-16.9,0 -32.17,-7 -43.06,-18.26c-7.98,4.24 -16.36,7.72 -24.99,10.43c-17.13,5.49 -35.06,7.82 -52.55,7.82c-16.92,0 -33.67,-2.44 -49.91,-7.72c-17.19,-5.14 -32.29,-13.07 -45.49,-22.97c-0.76,-0.57 -1.5,-1.15 -2.23,-1.75c-13.55,-11.2 -25.16,-25.11 -33.73,-41.66c-9.88,-19.07 -13.73,-39.57 -13.73,-59.3c0,-31.59 24.45,-57.47 55.46,-59.74v-3.34c-29.89,-3.37 -53.12,-28.73 -53.12,-59.52c0,-18.45 3.65,-36.44 11.53,-53.5c0.26,-0.57 0.54,-1.14 0.82,-1.7c7.77,-15.53 18.05,-28.8 30.41,-39.99c0.3,-0.27 0.6,-0.54 0.9,-0.8c13.72,-11.85 29.48,-20.35 45.08,-26.07c0.17,-0.06 0.34,-0.12 0.51,-0.19c17.74,-6.29 35.74,-8.82 53.5,-8.82c17.84,0 34.82,2.43 50.77,7.06c0.76,0.22 1.51,0.45 2.26,0.7c7.63,2.54 16.01,5.95 24.41,10.6c10.9,-11.32 26.21,-18.36 43.16,-18.36h78.84c24.58,0 48.92,4.09 71.69,13.57c22.33,9.17 41.86,22.54 58.19,39.39c16.84,17.37 29.35,37.82 37.99,60.36c0.12,0.3 0.23,0.61 0.34,0.92c8.23,22.75 12.31,47.2 12.31,72.96z" fill="#000000" filter="url(#filter-unJ2GUuK)"/>
		</g>
		<g color="#ffffff" class="teamapps-effect-color-1">
			<path d="M449.12,742.25l127.28,127.28c16.78,16.78 22.07,41.89 13.49,64.02c-8.58,22.13 -29.42,37.1 -53.13,38.18l-22.43,1.01c-0.78,0.04 -1.56,0.05 -2.34,0.05c-241.63,0 -439.35,-185.92 -458.93,-422.45c-2.89,-34.91 24.67,-64.85 59.7,-64.85h50.11c30.87,0 56.69,23.46 59.63,54.19c8.59,89.74 57.97,167.66 129.58,214.76l12.47,-12.37c23.42,-23.24 61.22,-23.17 84.56,0.16zM910.89,538.16h-50.11c-30.93,0 -56.78,-23.55 -59.65,-54.35c-8.33,-89.49 -57.51,-167.15 -129.15,-214.45l-12.39,12.39c-23.39,23.39 -61.32,23.39 -84.72,0l-127.28,-127.28c-16.78,-16.78 -22.07,-41.89 -13.49,-64.02c8.58,-22.13 29.42,-37.1 53.13,-38.18l22.43,-1.01c0.78,-0.04 1.56,-0.05 2.34,-0.05c241.59,0 439.39,185.9 458.6,422.21c2.84,34.88 -24.71,64.76 -59.71,64.76zM771.35,505.65v13.37c0,25.69 -4.01,50.02 -12.25,72.82c-0.04,0.11 -0.08,0.22 -0.12,0.33c-8.42,22.81 -21.16,43.45 -37.93,60.75c-17.28,17.82 -37.68,30.58 -59.51,39.32c-23.12,9.25 -47.87,13.3 -72.7,13.3h-76.84c-16.9,0 -32.17,-7 -43.06,-18.26c-7.98,4.24 -16.36,7.72 -24.99,10.43c-17.13,5.49 -35.06,7.82 -52.55,7.82c-16.92,0 -33.67,-2.44 -49.91,-7.72c-17.19,-5.14 -32.29,-13.07 -45.49,-22.97c-0.76,-0.57 -1.5,-1.15 -2.23,-1.75c-13.55,-11.2 -25.16,-25.11 -33.73,-41.66c-9.88,-19.07 -13.73,-39.57 -13.73,-59.3c0,-31.59 24.45,-57.47 55.46,-59.74v-3.34c-29.89,-3.37 -53.12,-28.73 -53.12,-59.52c0,-18.45 3.65,-36.44 11.53,-53.5c0.26,-0.57 0.54,-1.14 0.82,-1.7c7.77,-15.53 18.05,-28.8 30.41,-39.99c0.3,-0.27 0.6,-0.54 0.9,-0.8c13.72,-11.85 29.48,-20.35 45.08,-26.07c0.17,-0.06 0.34,-0.12 0.51,-0.19c17.74,-6.29 35.74,-8.82 53.5,-8.82c17.84,0 34.82,2.43 50.77,7.06c0.76,0.22 1.51,0.45 2.26,0.7c7.63,2.54 16.01,5.95 24.41,10.6c10.9,-11.32 26.21,-18.36 43.16,-18.36h78.84c24.58,0 48.92,4.09 71.69,13.57c22.33,9.17 41.86,22.54 58.19,39.39c16.84,17.37 29.35,37.82 37.99,60.36c0.12,0.3 0.23,0.61 0.34,0.92c8.23,22.75 12.31,47.2 12.31,72.96z" fill="currentColor"/>
		</g>
		<g>
			<g color="#1565c0" class="teamapps-color-1">
				<path d="M406.76,784.61l127.28,127.28l-22.05,1c-210.13,0 -382.19,-161.69 -399.23,-367.49h50.11c12.03,125.62 90.2,231.85 199.45,283.3zM910.89,478.26h-50.11c-11.69,-125.62 -89.86,-231.53 -199.11,-283.31l-44.44,44.44l-127.28,-127.28l22.05,-1c210.13,0 382.19,161.7 398.89,367.16zM702.76,453.2c5.68,15.7 8.68,33.07 8.68,52.45v13.37c0,19.38 -3.01,36.75 -8.68,52.45c-5.68,15.37 -14.04,28.73 -24.73,39.75c-10.69,11.02 -23.72,19.38 -38.75,25.39c-15.03,6.01 -32.07,9.02 -50.45,9.02h-76.84v-267.27h78.84c18.04,0 34.41,3.01 48.78,9.02c14.7,6.01 27.4,14.7 38.09,25.73c10.69,11.02 19.04,24.39 25.06,40.09zM423.8,599.86c7.68,-7.02 11.69,-17.37 11.69,-31.07c0,-7.35 -0.99,-13.69 -3.34,-19.04c-2.34,-5.35 -5.68,-9.69 -9.69,-13.36c-4.01,-3.34 -9.02,-6.02 -15.03,-7.69c-6.01,-1.67 -12.69,-2.33 -20.04,-2.33h-25.72v-34.41h25.72c7.35,0 14.03,-1 19.38,-3.01c5.35,-2 10.02,-4.67 13.69,-8.02c3.67,-3.34 6.69,-7.35 8.35,-12.36c1.67,-5.01 2.67,-10.35 2.67,-16.36c0,-12.36 -3.34,-22.06 -9.69,-28.74c-6.35,-7.02 -16.36,-10.35 -29.73,-10.35c-6.01,0 -11.02,1 -16.04,2.67c-5.01,1.67 -9.03,4.35 -12.7,7.35c-3.67,3.01 -6.34,7.01 -8.35,11.35c-2,4.35 -3.01,9.36 -3.01,15.03h-43.43c0,-10.36 2,-19.71 6.01,-28.39c4.35,-8.68 10.02,-16.04 17.04,-22.39c7.35,-6.35 16.37,-11.36 26.39,-15.03c10.36,-3.67 21.38,-5.35 33.4,-5.35c12.36,0 23.72,1.68 34.08,4.68c10.02,3.34 19.05,8.01 25.73,14.36c7.35,6.01 13.03,13.69 17.04,23.05c4.01,9.36 6.01,20.04 6.01,32.07c0,5.35 -0.67,10.69 -2.34,16.04c-1.67,5.35 -4.01,10.36 -7.35,15.37c-3.34,5.01 -7.34,9.69 -12.36,14.03c-5.01,4.35 -10.7,8.02 -17.37,11.02c8.02,2.67 14.7,6.01 20.38,10.36c5.35,4.35 10.01,9.01 13.36,14.36c3.67,5.35 6.02,11.02 7.69,17.04c1.67,6.01 2.33,12.36 2.33,18.71c0,12.03 -2.33,22.71 -6.68,32.4c-4.35,9.69 -10.7,17.7 -18.38,24.05c-7.68,6.35 -17.04,11.36 -27.73,14.7c-10.36,3.34 -22.05,5.01 -34.41,5.01c-11.36,0 -22.05,-1.67 -32.07,-5.01c-10.36,-3.01 -19.37,-7.69 -27.39,-13.7c-7.68,-6.35 -14.04,-14.03 -18.71,-23.05c-4.67,-9.02 -7.02,-19.71 -7.02,-31.73h43.43c0,5.68 1,11.02 3.01,15.7c2,5.01 5.01,9.02 8.68,12.36c3.67,3.67 8.02,6.01 13.37,8.02c5.01,1.67 11.02,2.67 17.37,2.67c13.37,0 24.05,-3.34 31.73,-11.02zM664.68,505.32c0,-29.06 -6.35,-51.11 -19.04,-66.48c-12.36,-15.37 -30.74,-23.05 -54.79,-23.05h-32.4v192.77h30.4c12.36,0 23.39,-2 33.07,-6.01c9.36,-4.01 17.37,-10.03 23.72,-17.71c6.35,-7.68 11.02,-17.37 14.36,-28.39c3.01,-11.36 4.68,-23.72 4.68,-37.76z" fill="currentColor"/>
			</g>
		</g>
	</g>
</svg>