<svg version="1.1" xmlns="http://www.w3.org/2000/svg" xmlns:xlink="http://www.w3.org/1999/xlink" viewBox="0,0,1024,1024">
	<!-- Color names: teamapps-color-1, teamapps-effect-color-1 -->
	<desc>accessible icon - Licensed under Apache License v2.0 (http://www.apache.org/licenses/LICENSE-2.0) - Created with Iconfu.com - Derivative work of Material icons (Copyright Google Inc.)</desc>
	<defs>
		<clipPath id="clip-hzc6nGsy">
			<path d="M160.59,60.37h773.53v963.63h-773.53z"/>
		</clipPath>
		<filter id="filter-inRFbsHy" x="-10%" y="-8%" width="169%" height="140%" color-interpolation-filters="sRGB">
			<feColorMatrix values="1 0 0 0 0 0 1 0 0 0 0 0 1 0 0 0 0 0 0.17 0" in="SourceGraphic"/>
			<feOffset dx="14.14" dy="14.14"/>
			<feGaussianBlur stdDeviation="11" result="blur0"/>
			<feColorMatrix values="1 0 0 0 0 0 1 0 0 0 0 0 1 0 0 0 0 0 0.25 0" in="SourceGraphic"/>
			<feOffset dx="21.21" dy="21.21"/>
			<feGaussianBlur stdDeviation="20" result="blur1"/>
			<feMerge>
				<feMergeNode in="blur0"/>
				<feMergeNode in="blur1"/>
			</feMerge>
		</filter>
	</defs>
	<g fill="none" fill-rule="nonzero" style="mix-blend-mode: normal">
		<g clip-path="url(#clip-hzc6nGsy)">
			<path d="M805.76,662.34v183.75c0,33.08 -26.82,59.9 -59.9,59.9h-66.82c-33.08,0 -59.9,-26.82 -59.9,-59.9v-21.26c-41.62,49.61 -104.1,81.16 -173.95,81.16c-125.29,0 -226.95,-101.66 -226.95,-226.95c0,-104.63 70.8,-192.72 167.05,-218.95v-45.31c0,-31.36 11.52,-62.28 31.86,-86.02c-19.83,-22.36 -31.86,-51.79 -31.86,-84.03c0,-69.98 56.72,-126.73 126.72,-126.73c70,0 126.72,56.75 126.72,126.73c0,31.26 -11.32,59.88 -30.09,81.98l45.67,50.54c22.58,24.85 58.46,41.85 90.79,41.43c33.38,-0.43 60.68,26.51 60.68,59.9v66.82c0,18.57 -8.44,35.15 -21.69,46.13c13.69,20.23 21.69,44.6 21.69,70.79z" fill="#000000" filter="url(#filter-inRFbsHy)"/>
		</g>
		<g color="#ffffff" class="teamapps-effect-color-1">
			<path d="M805.76,662.34v183.75c0,33.08 -26.82,59.9 -59.9,59.9h-66.82c-33.08,0 -59.9,-26.82 -59.9,-59.9v-21.26c-41.62,49.61 -104.1,81.16 -173.95,81.16c-125.29,0 -226.95,-101.66 -226.95,-226.95c0,-104.63 70.8,-192.72 167.05,-218.95v-45.31c0,-31.36 11.52,-62.28 31.86,-86.02c-19.83,-22.36 -31.86,-51.79 -31.86,-84.03c0,-69.98 56.72,-126.73 126.72,-126.73c70,0 126.72,56.75 126.72,126.73c0,31.26 -11.32,59.88 -30.09,81.98l45.67,50.54c22.58,24.85 58.46,41.85 90.79,41.43c33.38,-0.43 60.68,26.51 60.68,59.9v66.82c0,18.57 -8.44,35.15 -21.69,46.13c13.69,20.23 21.69,44.6 21.69,70.79z" fill="currentColor"/>
		</g>
		<g>
			<g color="#1565c0" class="teamapps-color-1">
				<path d="M445.19,244.74c0,-36.9 29.91,-66.82 66.81,-66.82c36.9,0 66.81,29.92 66.81,66.82c0,36.9 -29.91,66.81 -66.81,66.81c-36.9,0 -66.81,-29.91 -66.81,-66.81z" fill="currentColor"/>
			</g>
			<g color="#1565c0" class="teamapps-color-1">
				<path d="M578.81,480.27v115.26h100.22c36.75,0 66.82,30.07 66.82,66.81v183.75h-66.82v-167.05h-167.04c-36.75,0 -66.81,-30.07 -66.81,-66.81v-197.44c0,-35.08 25.38,-66.15 60.46,-69.15c14.7,-1.34 28.07,2 39.76,8.68h0.33c0.34,0 0.34,0.34 0.67,0.34c7.68,3.67 14.7,8.68 20.37,15.03l43.1,47.77c32.74,36.08 84.52,61.8 135.98,61.14v66.82c-58.47,-0.34 -123.95,-29.4 -167.05,-65.15zM608.88,712.45c-15.37,76.17 -82.85,133.63 -163.69,133.63c-92.21,0 -167.05,-74.84 -167.05,-167.05c0,-80.84 57.46,-148.32 133.63,-163.69v69.15c-38.75,14.03 -66.81,50.78 -66.81,94.54c0,55.46 44.76,100.22 100.22,100.22c43.76,0 80.84,-28.06 94.54,-66.81z" fill="currentColor"/>
			</g>
		</g>
	</g>
</svg>