<svg version="1.1" xmlns="http://www.w3.org/2000/svg" xmlns:xlink="http://www.w3.org/1999/xlink" viewBox="0,0,1024,1024">
	<!-- Color names: teamapps-color-1, teamapps-effect-color-1 -->
	<desc>add_alert icon - Licensed under Apache License v2.0 (http://www.apache.org/licenses/LICENSE-2.0) - Created with Iconfu.com - Derivative work of Material icons (Copyright Google Inc.)</desc>
	<defs>
		<clipPath id="clip-ETxub8NW">
			<path d="M93.78,60.37h907.15v963.63h-907.15z"/>
		</clipPath>
		<filter id="filter-OxhBdcqt" x="-8%" y="-8%" width="147%" height="138%" color-interpolation-filters="sRGB">
			<feColorMatrix values="1 0 0 0 0 0 1 0 0 0 0 0 1 0 0 0 0 0 0.17 0" in="SourceGraphic"/>
			<feOffset dx="14.14" dy="14.14"/>
			<feGaussianBlur stdDeviation="11" result="blur0"/>
			<feColorMatrix values="1 0 0 0 0 0 1 0 0 0 0 0 1 0 0 0 0 0 0.25 0" in="SourceGraphic"/>
			<feOffset dx="21.21" dy="21.21"/>
			<feGaussianBlur stdDeviation="20" result="blur1"/>
			<feMerge>
				<feMergeNode in="blur0"/>
				<feMergeNode in="blur1"/>
			</feMerge>
		</filter>
	</defs>
	<g fill="none" fill-rule="nonzero" style="mix-blend-mode: normal">
		<g clip-path="url(#clip-ETxub8NW)">
			<path d="M872.58,743.85v35.41c0,33.08 -26.82,59.9 -59.9,59.9h-176.99c-12.04,57.27 -62.83,100.22 -123.68,100.22c-60.85,0 -111.64,-42.95 -123.68,-100.22h-176.99c-33.08,0 -59.9,-26.82 -59.9,-59.9v-35.41c0,-15.89 6.31,-31.12 17.54,-42.36l53.28,-53.29v-169.62c0,-120.62 73.56,-223.8 178.47,-267.42c9.37,-52.99 55.58,-93.16 111.29,-93.16c55.71,0 101.92,40.17 111.29,93.16c104.9,43.62 178.47,146.8 178.47,267.42v169.62l53.28,53.29c11.23,11.23 17.54,26.47 17.54,42.36z" fill="#000000" filter="url(#filter-OxhBdcqt)"/>
		</g>
		<g color="#ffffff" class="teamapps-effect-color-1">
			<path d="M872.58,743.85v35.41c0,33.08 -26.82,59.9 -59.9,59.9h-176.99c-12.04,57.27 -62.83,100.22 -123.68,100.22c-60.85,0 -111.64,-42.95 -123.68,-100.22h-176.99c-33.08,0 -59.9,-26.82 -59.9,-59.9v-35.41c0,-15.89 6.31,-31.12 17.54,-42.36l53.28,-53.29v-169.62c0,-120.62 73.56,-223.8 178.47,-267.42c9.37,-52.99 55.58,-93.16 111.29,-93.16c55.71,0 101.92,40.17 111.29,93.16c104.9,43.62 178.47,146.8 178.47,267.42v169.62l53.28,53.29c11.23,11.23 17.54,26.47 17.54,42.36z" fill="currentColor"/>
		</g>
		<g>
			<g color="#1565c0" class="teamapps-color-1">
				<path d="M812.67,743.85v35.41h-601.34v-35.41l70.82,-70.83v-194.43c0,-108.58 75.17,-199.45 176.73,-223.5v-24.05c0,-29.4 23.72,-53.12 53.12,-53.12c29.4,0 53.12,23.72 53.12,53.12v24.05c101.56,24.05 176.73,114.92 176.73,223.5v194.43zM645.63,478.59h-100.22v-100.22h-66.82v100.22h-100.22v67.15h100.22v100.22h66.82v-100.22h100.22zM578.48,813.01c0,36.75 -29.74,66.48 -66.48,66.48c-36.75,0 -66.48,-29.73 -66.48,-66.48z" fill="currentColor"/>
			</g>
		</g>
	</g>
</svg>