<svg version="1.1" xmlns="http://www.w3.org/2000/svg" xmlns:xlink="http://www.w3.org/1999/xlink" viewBox="0,0,1024,1024">
	<!-- Color names: teamapps-color-1, teamapps-effect-color-1 -->
	<desc>add_shopping_cart icon - Licensed under Apache License v2.0 (http://www.apache.org/licenses/LICENSE-2.0) - Created with Iconfu.com - Derivative work of Material icons (Copyright Google Inc.)</desc>
	<defs>
		<clipPath id="clip-e1BSHdkX">
			<path d="M26.97,26.97h979.32v997.03h-979.32z"/>
		</clipPath>
		<filter id="filter-GrrAtU7O" x="-8%" y="-8%" width="135%" height="134%" color-interpolation-filters="sRGB">
			<feColorMatrix values="1 0 0 0 0 0 1 0 0 0 0 0 1 0 0 0 0 0 0.17 0" in="SourceGraphic"/>
			<feOffset dx="14.14" dy="14.14"/>
			<feGaussianBlur stdDeviation="11" result="blur0"/>
			<feColorMatrix values="1 0 0 0 0 0 1 0 0 0 0 0 1 0 0 0 0 0 0.25 0" in="SourceGraphic"/>
			<feOffset dx="21.21" dy="21.21"/>
			<feGaussianBlur stdDeviation="20" result="blur1"/>
			<feMerge>
				<feMergeNode in="blur0"/>
				<feMergeNode in="blur1"/>
			</feMerge>
		</filter>
	</defs>
	<g fill="none" fill-rule="nonzero" style="mix-blend-mode: normal">
		<g clip-path="url(#clip-e1BSHdkX)">
			<path d="M745.87,552.32c33.08,0 59.89,26.82 59.89,59.9v66.81c0,15.36 -5.78,29.37 -15.28,39.97c9.74,17.93 15.28,38.46 15.28,60.25c0,69.83 -56.89,126.73 -126.73,126.73c-70.24,0 -126.38,-57.31 -126.38,-126.73c0,-14.06 2.3,-27.63 6.56,-40.32h-94.12c4.27,12.67 6.58,26.23 6.58,40.32c0,69.82 -56.88,126.73 -126.72,126.73c-70.23,0 -126.39,-57.3 -126.39,-126.73c0,-31.79 11.78,-61.04 31.29,-83.41c-19.67,-22.34 -31.62,-51.62 -31.62,-83.63c0,-21.78 5.56,-42.89 15.98,-61.32l30.11,-54.64l-90.89,-191.62h-28.93c-33.08,0 -59.9,-26.82 -59.9,-59.9v-66.82c0,-33.08 26.82,-59.9 59.9,-59.9h109.24c23.17,0 44.26,13.36 54.16,34.31l25.17,53.18c10.98,-12.66 27.19,-20.67 45.27,-20.67h40.32v-40.32c0,-33.08 26.82,-59.9 59.9,-59.9h66.82c33.08,0 59.9,26.82 59.9,59.9v40.32h40.32c26.09,0 48.29,16.68 56.51,39.97l4.96,-8.99c15.95,-28.93 52.31,-39.48 81.27,-23.59l58.47,32.07c29.04,15.93 39.64,52.4 23.66,81.42l-128.96,234.19c-2.37,4.31 -4.98,8.45 -7.81,12.42z" fill="#000000" filter="url(#filter-GrrAtU7O)"/>
		</g>
		<g color="#ffffff" class="teamapps-effect-color-1">
			<path d="M745.87,552.32c33.08,0 59.89,26.82 59.89,59.9v66.81c0,15.36 -5.78,29.37 -15.28,39.97c9.74,17.93 15.28,38.46 15.28,60.25c0,69.83 -56.89,126.73 -126.73,126.73c-70.24,0 -126.38,-57.31 -126.38,-126.73c0,-14.06 2.3,-27.63 6.56,-40.32h-94.12c4.27,12.67 6.58,26.23 6.58,40.32c0,69.82 -56.88,126.73 -126.72,126.73c-70.23,0 -126.39,-57.3 -126.39,-126.73c0,-31.79 11.78,-61.04 31.29,-83.41c-19.67,-22.34 -31.62,-51.62 -31.62,-83.63c0,-21.78 5.56,-42.89 15.98,-61.32l30.11,-54.64l-90.89,-191.62h-28.93c-33.08,0 -59.9,-26.82 -59.9,-59.9v-66.82c0,-33.08 26.82,-59.9 59.9,-59.9h109.24c23.17,0 44.26,13.36 54.16,34.31l25.17,53.18c10.98,-12.66 27.19,-20.67 45.27,-20.67h40.32v-40.32c0,-33.08 26.82,-59.9 59.9,-59.9h66.82c33.08,0 59.9,26.82 59.9,59.9v40.32h40.32c26.09,0 48.29,16.68 56.51,39.97l4.96,-8.99c15.95,-28.93 52.31,-39.48 81.27,-23.59l58.47,32.07c29.04,15.93 39.64,52.4 23.66,81.42l-128.96,234.19c-2.37,4.31 -4.98,8.45 -7.81,12.42z" fill="currentColor"/>
		</g>
		<g>
			<g color="#1565c0" class="teamapps-color-1">
				<path d="M358.99,612.22h386.86v66.81h-400.9c-36.75,0 -66.82,-30.07 -66.82,-66.81c0,-11.69 3.01,-22.71 8.35,-32.07l45.1,-81.85l-120.27,-253.57h-66.81v-66.82h109.24l31.4,66.82l31.74,66.81l74.83,158.02l4.35,9.02h234.52l92.21,-167.04l36.75,-66.81h0.34l58.13,32.07l-128.96,234.19c-11.36,20.71 -33.4,34.41 -58.46,34.41h-248.89l-30.07,54.45l-1,4.01c0,4.67 4.01,8.35 8.35,8.35zM478.59,311.55h-100.22v-66.81h100.22v-100.22h66.82v100.22h100.22v66.81h-100.22v100.22h-66.82zM411.78,779.26c0,36.75 -30.07,66.82 -66.81,66.82c-36.75,0 -66.48,-30.08 -66.48,-66.82c0,-36.75 29.74,-66.81 66.48,-66.81c36.75,0 66.81,30.07 66.81,66.81zM745.86,779.26c0,36.75 -30.08,66.82 -66.82,66.82c-36.75,0 -66.48,-30.08 -66.48,-66.82c0,-36.75 29.73,-66.81 66.48,-66.81c36.75,0 66.82,30.07 66.82,66.81z" fill="currentColor"/>
			</g>
		</g>
	</g>
</svg>