<svg version="1.1" xmlns="http://www.w3.org/2000/svg" xmlns:xlink="http://www.w3.org/1999/xlink" viewBox="0,0,1024,1024">
	<!-- Color names: teamapps-color-1, teamapps-effect-color-1 -->
	<desc>add_location icon - Licensed under Apache License v2.0 (http://www.apache.org/licenses/LICENSE-2.0) - Created with Iconfu.com - Derivative work of Material icons (Copyright Google Inc.)</desc>
	<defs>
		<clipPath id="clip-G5Dm0ZDC">
			<path d="M160.59,60.37h773.53v963.63h-773.53z"/>
		</clipPath>
		<filter id="filter-zjyNzYff" x="-10%" y="-8%" width="169%" height="140%" color-interpolation-filters="sRGB">
			<feColorMatrix values="1 0 0 0 0 0 1 0 0 0 0 0 1 0 0 0 0 0 0.17 0" in="SourceGraphic"/>
			<feOffset dx="14.14" dy="14.14"/>
			<feGaussianBlur stdDeviation="11" result="blur0"/>
			<feColorMatrix values="1 0 0 0 0 0 1 0 0 0 0 0 1 0 0 0 0 0 0.25 0" in="SourceGraphic"/>
			<feOffset dx="21.21" dy="21.21"/>
			<feGaussianBlur stdDeviation="20" result="blur1"/>
			<feMerge>
				<feMergeNode in="blur0"/>
				<feMergeNode in="blur1"/>
			</feMerge>
		</filter>
	</defs>
	<g fill="none" fill-rule="nonzero" style="mix-blend-mode: normal">
		<g clip-path="url(#clip-G5Dm0ZDC)">
			<path d="M805.76,411.78c0,198.44 -249.31,474.46 -249.31,474.46c-11.36,12.57 -27.51,19.75 -44.45,19.75c-16.94,0 -33.1,-7.18 -44.45,-19.75c0,0 -249.31,-276.02 -249.31,-474.46c0,-162.04 131.73,-293.76 293.76,-293.76c162.04,0 293.76,131.73 293.76,293.76z" fill="#000000" filter="url(#filter-zjyNzYff)"/>
		</g>
		<g color="#ffffff" class="teamapps-effect-color-1">
			<path d="M805.76,411.78c0,198.44 -249.31,474.46 -249.31,474.46c-11.36,12.57 -27.51,19.75 -44.45,19.75c-16.94,0 -33.1,-7.18 -44.45,-19.75c0,0 -249.31,-276.02 -249.31,-474.46c0,-162.04 131.73,-293.76 293.76,-293.76c162.04,0 293.76,131.73 293.76,293.76z" fill="currentColor"/>
		</g>
		<g>
			<g color="#1565c0" class="teamapps-color-1">
				<path d="M745.86,411.78c0,175.39 -233.86,434.31 -233.86,434.31c0,0 -233.86,-258.91 -233.86,-434.31c0,-128.95 104.91,-233.86 233.86,-233.86c128.95,0 233.86,104.91 233.86,233.86zM645.63,378.37h-100.22v-100.22h-66.82v100.22h-100.22v66.82h100.22v100.22h66.82v-100.22h100.22z" fill="currentColor"/>
			</g>
		</g>
	</g>
</svg>