<svg version="1.1" xmlns="http://www.w3.org/2000/svg" xmlns:xlink="http://www.w3.org/1999/xlink" viewBox="0,0,1024,1024">
	<!-- Color names: teamapps-color-1, teamapps-effect-color-1 -->
	<desc>airline_seat_recline_normal icon - Licensed under Apache License v2.0 (http://www.apache.org/licenses/LICENSE-2.0) - Created with Iconfu.com - Derivative work of Material icons (Copyright Google Inc.)</desc>
	<defs>
		<filter id="filter-6vZCXW1K" x="-9%" y="-8%" width="157%" height="140%" color-interpolation-filters="sRGB">
			<feColorMatrix values="1 0 0 0 0 0 1 0 0 0 0 0 1 0 0 0 0 0 0.17 0" in="SourceGraphic"/>
			<feOffset dx="14.14" dy="14.14"/>
			<feGaussianBlur stdDeviation="11" result="blur0"/>
			<feColorMatrix values="1 0 0 0 0 0 1 0 0 0 0 0 1 0 0 0 0 0 0.25 0" in="SourceGraphic"/>
			<feOffset dx="21.21" dy="21.21"/>
			<feGaussianBlur stdDeviation="20" result="blur1"/>
			<feMerge>
				<feMergeNode in="blur0"/>
				<feMergeNode in="blur1"/>
			</feMerge>
		</filter>
	</defs>
	<g fill="none" fill-rule="nonzero" style="mix-blend-mode: normal">
		<path d="M689.13,871.73l-26.57,-26.57c-10.67,16.5 -29.23,27.42 -50.34,27.42h-200.45c-125.29,0 -226.94,-101.65 -226.94,-226.94v-300.67c0,-33.08 26.82,-59.9 59.9,-59.9h47.08c-14.83,-44.19 -4.67,-94.96 30.49,-130.12c49.45,-49.45 129.81,-49.45 179.26,0c45.34,45.34 49.11,116.67 11.3,166.34l7.83,7.92l46.77,51.79c24.23,26.69 73.04,48.86 110.84,48.4c33.36,-0.4 60.62,26.53 60.62,59.9v72.16c0,25.72 -16.21,47.66 -38.97,56.15l121.65,121.65c23.39,23.39 23.39,61.32 0,84.72l-47.77,47.77c-23.39,23.39 -61.32,23.39 -84.72,0z" fill="#000000" filter="url(#filter-6vZCXW1K)"/>
		<g color="#ffffff" class="teamapps-effect-color-1">
			<path d="M689.13,871.73l-26.57,-26.57c-10.67,16.5 -29.23,27.42 -50.34,27.42h-200.45c-125.29,0 -226.94,-101.65 -226.94,-226.94v-300.67c0,-33.08 26.82,-59.9 59.9,-59.9h47.08c-14.83,-44.19 -4.67,-94.96 30.49,-130.12c49.45,-49.45 129.81,-49.45 179.26,0c45.34,45.34 49.11,116.67 11.3,166.34l7.83,7.92l46.77,51.79c24.23,26.69 73.04,48.86 110.84,48.4c33.36,-0.4 60.62,26.53 60.62,59.9v72.16c0,25.72 -16.21,47.66 -38.97,56.15l121.65,121.65c23.39,23.39 23.39,61.32 0,84.72l-47.77,47.77c-23.39,23.39 -61.32,23.39 -84.72,0z" fill="currentColor"/>
		</g>
		<g>
			<g color="#1565c0" class="teamapps-color-1">
				<path d="M731.49,829.37l-116.93,-116.93h-169.38c-55.46,0 -100.22,-44.76 -100.22,-100.22v-192.09c0,-41.43 33.74,-75.17 75.17,-75.17h1c11.36,0 22.39,3.01 32.07,7.68c8.68,4.01 16.7,9.69 23.05,16.7l46.77,51.79c35.42,39.09 100.55,68.82 156.01,68.15v72.16c-63.48,0 -136.97,-33.74 -183.74,-72.16v122.94h114.58l169.38,169.38zM411.78,745.86h200.45v66.81h-200.45c-92.21,0 -167.04,-74.83 -167.04,-167.04v-300.67h66.81v300.67c0,55.46 44.76,100.22 100.22,100.22zM364.67,291.84c-26.06,-26.06 -26.06,-68.49 0,-94.55c26.06,-26.06 68.49,-26.06 94.55,0c26.06,26.06 26.06,68.49 0,94.55c-26.39,26.39 -68.49,26.39 -94.55,0z" fill="currentColor"/>
			</g>
		</g>
	</g>
</svg>