<svg version="1.1" xmlns="http://www.w3.org/2000/svg" xmlns:xlink="http://www.w3.org/1999/xlink" viewBox="0,0,1024,1024">
	<!-- Color names: teamapps-color-1, teamapps-effect-color-1 -->
	<desc>airplay icon - Licensed under Apache License v2.0 (http://www.apache.org/licenses/LICENSE-2.0) - Created with Iconfu.com - Derivative work of Material icons (Copyright Google Inc.)</desc>
	<defs>
		<clipPath id="clip-pV12xzZb">
			<path d="M26.97,93.78h997.03v930.22h-997.03z"/>
		</clipPath>
		<filter id="filter-Yv0vtYPl" x="-7%" y="-8%" width="132%" height="146%" color-interpolation-filters="sRGB">
			<feColorMatrix values="1 0 0 0 0 0 1 0 0 0 0 0 1 0 0 0 0 0 0.17 0" in="SourceGraphic"/>
			<feOffset dx="14.14" dy="14.14"/>
			<feGaussianBlur stdDeviation="11" result="blur0"/>
			<feColorMatrix values="1 0 0 0 0 0 1 0 0 0 0 0 1 0 0 0 0 0 0.25 0" in="SourceGraphic"/>
			<feOffset dx="21.21" dy="21.21"/>
			<feGaussianBlur stdDeviation="20" result="blur1"/>
			<feMerge>
				<feMergeNode in="blur0"/>
				<feMergeNode in="blur1"/>
			</feMerge>
		</filter>
	</defs>
	<g fill="none" fill-rule="nonzero" style="mix-blend-mode: normal">
		<g clip-path="url(#clip-pV12xzZb)">
			<path d="M939.39,278.14v400.9c0,69.82 -56.88,126.73 -126.72,126.73h-55.92c15.56,17.09 19.95,41.73 11.04,63.24c-9.27,22.38 -31.12,36.98 -55.34,36.98h-400.9c-24.23,0 -46.07,-14.6 -55.34,-36.98c-8.91,-21.51 -4.52,-46.15 11.04,-63.24h-55.92c-69.84,0 -126.72,-56.9 -126.72,-126.73v-400.9c0,-69.83 56.89,-126.72 126.72,-126.72h601.34c69.83,0 126.72,56.89 126.72,126.72z" fill="#000000" filter="url(#filter-Yv0vtYPl)"/>
		</g>
		<g color="#ffffff" class="teamapps-effect-color-1">
			<path d="M939.39,278.14v400.9c0,69.82 -56.88,126.73 -126.72,126.73h-55.92c15.56,17.09 19.95,41.73 11.04,63.24c-9.27,22.38 -31.12,36.98 -55.34,36.98h-400.9c-24.23,0 -46.07,-14.6 -55.34,-36.98c-8.91,-21.51 -4.52,-46.15 11.04,-63.24h-55.92c-69.84,0 -126.72,-56.9 -126.72,-126.73v-400.9c0,-69.83 56.89,-126.72 126.72,-126.72h601.34c69.83,0 126.72,56.89 126.72,126.72z" fill="currentColor"/>
		</g>
		<g>
			<g color="#1565c0" class="teamapps-color-1">
				<path d="M879.49,278.14v400.9c0,36.75 -30.07,66.82 -66.81,66.82h-133.63v-66.82h133.63v-400.9h-601.34v400.9h133.63v66.82h-133.63c-36.75,0 -66.81,-30.08 -66.81,-66.82v-400.9c0,-36.75 30.07,-66.81 66.81,-66.81h601.34c36.75,0 66.81,30.07 66.81,66.81zM512,645.63l200.45,200.45h-400.9z" fill="currentColor"/>
			</g>
		</g>
	</g>
</svg>