<svg version="1.1" xmlns="http://www.w3.org/2000/svg" xmlns:xlink="http://www.w3.org/1999/xlink" viewBox="0,0,1024,1024">
	<!-- Color names: teamapps-color-1, teamapps-effect-color-1 -->
	<desc>alarm_off icon - Licensed under Apache License v2.0 (http://www.apache.org/licenses/LICENSE-2.0) - Created with Iconfu.com - Derivative work of Material icons (Copyright Google Inc.)</desc>
	<defs>
		<clipPath id="clip-wg6GHrja">
			<path d="M48.68,55.69h975.32v968.31h-975.32z"/>
		</clipPath>
		<filter id="filter-HXnUpM1A" x="-8%" y="-8%" width="138%" height="139%" color-interpolation-filters="sRGB">
			<feColorMatrix values="1 0 0 0 0 0 1 0 0 0 0 0 1 0 0 0 0 0 0.17 0" in="SourceGraphic"/>
			<feOffset dx="14.14" dy="14.14"/>
			<feGaussianBlur stdDeviation="11" result="blur0"/>
			<feColorMatrix values="1 0 0 0 0 0 1 0 0 0 0 0 1 0 0 0 0 0 0.25 0" in="SourceGraphic"/>
			<feOffset dx="21.21" dy="21.21"/>
			<feGaussianBlur stdDeviation="20" result="blur1"/>
			<feMerge>
				<feMergeNode in="blur0"/>
				<feMergeNode in="blur1"/>
			</feMerge>
		</filter>
	</defs>
	<g fill="none" fill-rule="nonzero" style="mix-blend-mode: normal">
		<g clip-path="url(#clip-wg6GHrja)">
			<path d="M512,184.83c29.32,0 57.82,3.5 85.11,10.11c1.81,-3.2 3.94,-6.28 6.4,-9.2l43.1,-51.11c21.29,-25.25 59,-28.51 84.3,-7.28l153.68,128.95c25.39,21.3 28.65,59.17 7.29,84.5l-43.1,51.11c-2.21,2.63 -4.61,5.01 -7.14,7.16c19.88,44.72 30.93,94.23 30.93,146.33c0,56.65 -13.3,109.69 -36.46,157.21c-2.97,6.08 -6.9,11.54 -11.57,16.19l42.5,42.47c23.41,23.39 23.41,61.33 0.01,84.73l-42.43,42.43c-23.39,23.39 -61.33,23.39 -84.72,0l-37.14,-37.14c-55.35,34.62 -120.79,54.69 -190.77,54.69c-199.5,0 -360.58,-161.5 -360.58,-360.58c0,-52.03 11.09,-101.54 31.01,-146.27c-1.3,-1.09 -2.56,-2.25 -3.78,-3.47l-47.43,-47.43c-11.88,-11.88 -18.23,-28.21 -17.49,-44.99c0.49,-11.04 4.01,-21.61 10.02,-30.62c-23.22,-23.34 -23.25,-61.06 -0.05,-84.44l42.43,-42.76c23.45,-23.63 61.68,-23.61 85.1,0.06l9.15,9.25c1.38,-1.38 2.82,-2.7 4.34,-3.96l28.73,-23.72c23.81,-19.66 58.66,-18 80.5,3.84l47.44,47.44c4.57,4.57 8.32,9.79 11.16,15.45c25.49,-5.83 52.05,-8.94 79.44,-8.94z" fill="#000000" filter="url(#filter-HXnUpM1A)"/>
		</g>
		<g color="#ffffff" class="teamapps-effect-color-1">
			<path d="M512,184.83c29.32,0 57.82,3.5 85.11,10.11c1.81,-3.2 3.94,-6.28 6.4,-9.2l43.1,-51.11c21.29,-25.25 59,-28.51 84.3,-7.28l153.68,128.95c25.39,21.3 28.65,59.17 7.29,84.5l-43.1,51.11c-2.21,2.63 -4.61,5.01 -7.14,7.16c19.88,44.72 30.93,94.23 30.93,146.33c0,56.65 -13.3,109.69 -36.46,157.21c-2.97,6.08 -6.9,11.54 -11.57,16.19l42.5,42.47c23.41,23.39 23.41,61.33 0.01,84.73l-42.43,42.43c-23.39,23.39 -61.33,23.39 -84.72,0l-37.14,-37.14c-55.35,34.62 -120.79,54.69 -190.77,54.69c-199.5,0 -360.58,-161.5 -360.58,-360.58c0,-52.03 11.09,-101.54 31.01,-146.27c-1.3,-1.09 -2.56,-2.25 -3.78,-3.47l-47.43,-47.43c-11.88,-11.88 -18.23,-28.21 -17.49,-44.99c0.49,-11.04 4.01,-21.61 10.02,-30.62c-23.22,-23.34 -23.25,-61.06 -0.05,-84.44l42.43,-42.76c23.45,-23.63 61.68,-23.61 85.1,0.06l9.15,9.25c1.38,-1.38 2.82,-2.7 4.34,-3.96l28.73,-23.72c23.81,-19.66 58.66,-18 80.5,3.84l47.44,47.44c4.57,4.57 8.32,9.79 11.16,15.45c25.49,-5.83 52.05,-8.94 79.44,-8.94z" fill="currentColor"/>
		</g>
		<g>
			<g color="#1565c0" class="teamapps-color-1">
				<path d="M241.06,220.35l583.64,583.3l-42.43,42.43l-73.49,-73.5c-52.78,45.77 -121.61,73.5 -196.78,73.5c-166.37,0 -300.67,-134.64 -300.67,-300.67c0,-75.17 27.73,-143.99 73.5,-196.78l-26.73,-26.72l-37.08,31.4l-47.43,-47.43l37.08,-31.07l-44.44,-44.44l42.43,-42.76zM431.82,325.92l-50.78,-50.79c39.75,-19.38 83.85,-30.4 130.96,-30.4c166.04,0 300.67,134.64 300.67,300.67c0,47.11 -11.02,91.2 -30.4,130.96l-50.78,-50.78c9.02,-25.06 14.37,-52.12 14.37,-80.18c0,-129.29 -104.57,-233.86 -233.86,-233.86c-28.06,0 -55.12,5.35 -80.18,14.37zM331.93,396.08c-33.41,40.43 -53.79,92.54 -53.79,149.33c0,129.29 104.57,233.85 233.86,233.85c56.79,0 108.91,-20.37 149.33,-53.78zM802.99,353.31l-153.68,-128.95l43.1,-51.11l153.68,128.95zM350.3,244.4l-47.43,-47.44l28.73,-23.72l47.44,47.44z" fill="currentColor"/>
			</g>
		</g>
	</g>
</svg>