<svg version="1.1" xmlns="http://www.w3.org/2000/svg" xmlns:xlink="http://www.w3.org/1999/xlink" viewBox="0,0,1024,1024">
	<!-- Color names: teamapps-color-1, teamapps-effect-color-1 -->
	<desc>all_out icon - Licensed under Apache License v2.0 (http://www.apache.org/licenses/LICENSE-2.0) - Created with Iconfu.com - Derivative work of Material icons (Copyright Google Inc.)</desc>
	<defs>
		<filter id="filter-mhHDud87" x="-9%" y="-9%" width="158%" height="158%" color-interpolation-filters="sRGB">
			<feColorMatrix values="1 0 0 0 0 0 1 0 0 0 0 0 1 0 0 0 0 0 0.17 0" in="SourceGraphic"/>
			<feOffset dx="14.14" dy="14.14"/>
			<feGaussianBlur stdDeviation="11" result="blur0"/>
			<feColorMatrix values="1 0 0 0 0 0 1 0 0 0 0 0 1 0 0 0 0 0 0.25 0" in="SourceGraphic"/>
			<feOffset dx="21.21" dy="21.21"/>
			<feGaussianBlur stdDeviation="20" result="blur1"/>
			<feMerge>
				<feMergeNode in="blur0"/>
				<feMergeNode in="blur1"/>
			</feMerge>
		</filter>
	</defs>
	<g fill="none" fill-rule="nonzero" style="mix-blend-mode: normal">
		<path d="M235.28,441.31c-2.17,-0.62 -4.33,-1.37 -6.45,-2.25c-22.39,-9.27 -36.98,-31.12 -36.98,-55.34v-133.63c0,-33.08 26.82,-59.9 59.9,-59.9h133.63c24.23,0 46.07,14.59 55.34,36.98c0.88,2.13 1.63,4.28 2.25,6.46c49.75,-13.26 102.32,-13.26 152.07,0c0.62,-2.18 1.37,-4.33 2.25,-6.46c9.27,-22.38 31.12,-36.98 55.34,-36.98h133.63c33.08,0 59.9,26.82 59.9,59.9v133.63c0,24.23 -14.6,46.07 -36.98,55.34c-2.14,0.89 -4.31,1.64 -6.5,2.26c13.28,49.76 13.31,102.32 0.07,152.06c2.17,0.62 4.31,1.37 6.43,2.25c22.39,9.27 36.98,31.12 36.98,55.34v133.63c0,33.08 -26.82,59.9 -59.9,59.9h-133.63c-24.23,0 -46.07,-14.59 -55.34,-36.98c-0.88,-2.12 -1.63,-4.28 -2.25,-6.45c-49.75,13.26 -102.32,13.26 -152.08,0c-0.62,2.17 -1.37,4.33 -2.25,6.45c-9.27,22.38 -31.12,36.98 -55.34,36.98h-133.63c-33.08,0 -59.9,-26.82 -59.9,-59.9v-133.63c0,-24.23 14.6,-46.07 36.98,-55.34c2.12,-0.88 4.28,-1.63 6.45,-2.25c-13.25,-49.75 -13.25,-102.32 0,-152.07z" fill="#000000" filter="url(#filter-mhHDud87)"/>
		<g color="#ffffff" class="teamapps-effect-color-1">
			<path d="M235.28,441.31c-2.17,-0.62 -4.33,-1.37 -6.45,-2.25c-22.39,-9.27 -36.98,-31.12 -36.98,-55.34v-133.63c0,-33.08 26.82,-59.9 59.9,-59.9h133.63c24.23,0 46.07,14.59 55.34,36.98c0.88,2.13 1.63,4.28 2.25,6.46c49.75,-13.26 102.32,-13.26 152.07,0c0.62,-2.18 1.37,-4.33 2.25,-6.46c9.27,-22.38 31.12,-36.98 55.34,-36.98h133.63c33.08,0 59.9,26.82 59.9,59.9v133.63c0,24.23 -14.6,46.07 -36.98,55.34c-2.14,0.89 -4.31,1.64 -6.5,2.26c13.28,49.76 13.31,102.32 0.07,152.06c2.17,0.62 4.31,1.37 6.43,2.25c22.39,9.27 36.98,31.12 36.98,55.34v133.63c0,33.08 -26.82,59.9 -59.9,59.9h-133.63c-24.23,0 -46.07,-14.59 -55.34,-36.98c-0.88,-2.12 -1.63,-4.28 -2.25,-6.45c-49.75,13.26 -102.32,13.26 -152.08,0c-0.62,2.17 -1.37,4.33 -2.25,6.45c-9.27,22.38 -31.12,36.98 -55.34,36.98h-133.63c-33.08,0 -59.9,-26.82 -59.9,-59.9v-133.63c0,-24.23 14.6,-46.07 36.98,-55.34c2.12,-0.88 4.28,-1.63 6.45,-2.25c-13.25,-49.75 -13.25,-102.32 0,-152.07z" fill="currentColor"/>
		</g>
		<g>
			<g color="#1565c0" class="teamapps-color-1">
				<path d="M684.39,682.72c-91.2,91.2 -239.54,91.2 -330.74,0c-91.2,-91.2 -91.2,-239.54 0,-330.74c91.2,-91.2 239.54,-91.2 330.74,0c91.2,91.54 91.2,239.54 0,330.74zM647.64,388.72c-71.16,-71.16 -186.09,-71.16 -257.25,0c-71.16,71.16 -71.16,186.08 0,257.24c71.16,71.16 186.09,71.16 257.25,0c71.16,-71.16 71.16,-186.08 0,-257.24zM251.75,784.61v-133.63l133.63,133.63zM251.75,250.08h133.63l-133.63,133.63zM786.28,250.08v133.63l-133.63,-133.63zM786.28,784.61h-133.63l133.63,-133.63z" fill="currentColor"/>
			</g>
		</g>
	</g>
</svg>