<svg version="1.1" xmlns="http://www.w3.org/2000/svg" xmlns:xlink="http://www.w3.org/1999/xlink" viewBox="0,0,1024,1024">
	<!-- Color names: teamapps-color-1, teamapps-effect-color-1 -->
	<desc>all_inclusive icon - Licensed under Apache License v2.0 (http://www.apache.org/licenses/LICENSE-2.0) - Created with Iconfu.com - Derivative work of Material icons (Copyright Google Inc.)</desc>
	<defs>
		<clipPath id="clip-DufM7vH9">
			<path d="M0,214.71h1024v665.28h-1024z"/>
		</clipPath>
		<filter id="filter-VCyjzkIH" x="-7%" y="-13%" width="127%" height="197%" color-interpolation-filters="sRGB">
			<feColorMatrix values="1 0 0 0 0 0 1 0 0 0 0 0 1 0 0 0 0 0 0.17 0" in="SourceGraphic"/>
			<feOffset dx="14.14" dy="14.14"/>
			<feGaussianBlur stdDeviation="11" result="blur0"/>
			<feColorMatrix values="1 0 0 0 0 0 1 0 0 0 0 0 1 0 0 0 0 0 0.25 0" in="SourceGraphic"/>
			<feOffset dx="21.21" dy="21.21"/>
			<feGaussianBlur stdDeviation="20" result="blur1"/>
			<feMerge>
				<feMergeNode in="blur0"/>
				<feMergeNode in="blur1"/>
			</feMerge>
		</filter>
	</defs>
	<g fill="none" fill-rule="nonzero" style="mix-blend-mode: normal">
		<g clip-path="url(#clip-DufM7vH9)">
			<path d="M972.8,511.66c0,132.52 -107.88,239.64 -240.31,239.64c-63.66,0 -123.35,-24.5 -168.45,-68.49l-41.22,-36.35c-3.61,-3.18 -6.78,-6.75 -9.48,-10.62l-54.95,48.54c-43.88,43.12 -104.08,67.26 -166.89,67.26c-132.5,0 -240.31,-107.53 -240.31,-239.64c0,-132.11 107.81,-239.64 240.31,-239.64c63.24,0 123.33,24.45 168.54,68.91l40.77,35.92c3.75,3.31 7.04,7.03 9.81,11.08l54.95,-48.63c43.88,-43.13 104.09,-67.28 166.91,-67.28c132.28,0 240.31,106.63 240.31,239.3z" fill="#000000" filter="url(#filter-VCyjzkIH)"/>
		</g>
		<g color="#ffffff" class="teamapps-effect-color-1">
			<path d="M972.8,511.66c0,132.52 -107.88,239.64 -240.31,239.64c-63.66,0 -123.35,-24.5 -168.45,-68.49l-41.22,-36.35c-3.61,-3.18 -6.78,-6.75 -9.48,-10.62l-54.95,48.54c-43.88,43.12 -104.08,67.26 -166.89,67.26c-132.5,0 -240.31,-107.53 -240.31,-239.64c0,-132.11 107.81,-239.64 240.31,-239.64c63.24,0 123.33,24.45 168.54,68.91l40.77,35.92c3.75,3.31 7.04,7.03 9.81,11.08l54.95,-48.63c43.88,-43.13 104.09,-67.28 166.91,-67.28c132.28,0 240.31,106.63 240.31,239.3z" fill="currentColor"/>
		</g>
		<g>
			<g color="#1565c0" class="teamapps-color-1">
				<path d="M912.9,511.66c0,99.22 -80.84,179.74 -180.4,179.74c-48.44,0 -93.55,-18.71 -127.62,-52.45l-42.42,-37.41l50.44,-44.77l38.09,33.75c22.71,22.71 51.45,34.41 81.52,34.41c62.48,0 113.25,-50.44 113.25,-112.92c0,-62.48 -50.78,-112.92 -113.25,-112.92c-30.4,0 -58.8,11.69 -80.18,33.07l-89.86,79.84h0.33l-50.44,45.44l-0.34,-0.34l-94.55,83.52c-32.41,32.41 -77.84,51.11 -125.95,51.11c-99.56,0 -180.4,-80.85 -180.4,-179.74c0,-98.89 80.84,-179.74 180.4,-179.74c48.11,0 93.55,18.71 127.62,52.79l42.09,37.08l-50.45,44.76l-37.75,-33.41c-22.71,-22.71 -51.11,-34.41 -81.52,-34.41c-62.48,0 -113.25,50.44 -113.25,112.92c0,62.48 50.78,112.92 113.25,112.92c30.4,0 58.8,-11.69 80.18,-33.07l89.86,-79.84h-0.33l50.78,-44.76l94.55,-83.86c32.41,-32.41 77.84,-51.11 125.95,-51.11c99.56,0 180.4,80.18 180.4,179.4z" fill="currentColor"/>
			</g>
		</g>
	</g>
</svg>