<svg version="1.1" xmlns="http://www.w3.org/2000/svg" xmlns:xlink="http://www.w3.org/1999/xlink" viewBox="0,0,1024,1024">
	<!-- Color names: teamapps-color-1, teamapps-effect-color-1 -->
	<desc>arrow_drop_up icon - Licensed under Apache License v2.0 (http://www.apache.org/licenses/LICENSE-2.0) - Created with Iconfu.com - Derivative work of Material icons (Copyright Google Inc.)</desc>
	<defs>
		<filter id="filter-JDtos6iN" x="-13%" y="-21%" width="205%" height="289%" color-interpolation-filters="sRGB">
			<feColorMatrix values="1 0 0 0 0 0 1 0 0 0 0 0 1 0 0 0 0 0 0.17 0" in="SourceGraphic"/>
			<feOffset dx="14.14" dy="14.14"/>
			<feGaussianBlur stdDeviation="11" result="blur0"/>
			<feColorMatrix values="1 0 0 0 0 0 1 0 0 0 0 0 1 0 0 0 0 0 0.25 0" in="SourceGraphic"/>
			<feOffset dx="21.21" dy="21.21"/>
			<feGaussianBlur stdDeviation="20" result="blur1"/>
			<feMerge>
				<feMergeNode in="blur0"/>
				<feMergeNode in="blur1"/>
			</feMerge>
		</filter>
	</defs>
	<g fill="none" fill-rule="nonzero" style="mix-blend-mode: normal">
		<path d="M302.6,536.45l167.04,-167.04c23.39,-23.39 61.32,-23.39 84.72,0l167.04,167.04c17.13,17.13 22.26,42.9 12.99,65.28c-9.27,22.38 -31.12,36.98 -55.34,36.98h-334.07c-24.23,0 -46.07,-14.6 -55.34,-36.98c-9.27,-22.38 -4.15,-48.15 12.99,-65.28z" fill="#000000" filter="url(#filter-JDtos6iN)"/>
		<g color="#ffffff" class="teamapps-effect-color-1">
			<path d="M302.6,536.45l167.04,-167.04c23.39,-23.39 61.32,-23.39 84.72,0l167.04,167.04c17.13,17.13 22.26,42.9 12.99,65.28c-9.27,22.38 -31.12,36.98 -55.34,36.98h-334.07c-24.23,0 -46.07,-14.6 -55.34,-36.98c-9.27,-22.38 -4.15,-48.15 12.99,-65.28z" fill="currentColor"/>
		</g>
		<g>
			<g color="#1565c0" class="teamapps-color-1">
				<path d="M344.96,578.81l167.04,-167.04l167.04,167.04z" fill="currentColor"/>
			</g>
		</g>
	</g>
</svg>