<svg version="1.1" xmlns="http://www.w3.org/2000/svg" xmlns:xlink="http://www.w3.org/1999/xlink" viewBox="0,0,1024,1024">
	<!-- Color names: teamapps-color-1, teamapps-effect-color-1 -->
	<desc>attach_file icon - Licensed under Apache License v2.0 (http://www.apache.org/licenses/LICENSE-2.0) - Created with Iconfu.com - Derivative work of Material icons (Copyright Google Inc.)</desc>
	<defs>
		<clipPath id="clip-ml1PMXER">
			<path d="M227.41,26.97h673.29v997.03h-673.29z"/>
		</clipPath>
		<filter id="filter-pHSnzVxl" x="-12%" y="-7%" width="197%" height="132%" color-interpolation-filters="sRGB">
			<feColorMatrix values="1 0 0 0 0 0 1 0 0 0 0 0 1 0 0 0 0 0 0.17 0" in="SourceGraphic"/>
			<feOffset dx="14.14" dy="14.14"/>
			<feGaussianBlur stdDeviation="11" result="blur0"/>
			<feColorMatrix values="1 0 0 0 0 0 1 0 0 0 0 0 1 0 0 0 0 0 0.25 0" in="SourceGraphic"/>
			<feOffset dx="21.21" dy="21.21"/>
			<feGaussianBlur stdDeviation="20" result="blur1"/>
			<feMerge>
				<feMergeNode in="blur0"/>
				<feMergeNode in="blur1"/>
			</feMerge>
		</filter>
	</defs>
	<g fill="none" fill-rule="nonzero" style="mix-blend-mode: normal">
		<g clip-path="url(#clip-ml1PMXER)">
			<path d="M772.35,311.55v384.19c0,134.65 -109.01,243.64 -243.65,243.64c-134.65,0 -243.64,-109 -243.64,-243.64v-417.61c0,-106.91 86.62,-193.53 193.53,-193.53c97.92,0 178.83,72.66 191.74,167.04h42.12c33.08,0 59.9,26.82 59.9,59.9z" fill="#000000" filter="url(#filter-pHSnzVxl)"/>
		</g>
		<g color="#ffffff" class="teamapps-effect-color-1">
			<path d="M772.35,311.55v384.19c0,134.65 -109.01,243.64 -243.65,243.64c-134.65,0 -243.64,-109 -243.64,-243.64v-417.61c0,-106.91 86.62,-193.53 193.53,-193.53c97.92,0 178.83,72.66 191.74,167.04h42.12c33.08,0 59.9,26.82 59.9,59.9z" fill="currentColor"/>
		</g>
		<g>
			<g color="#1565c0" class="teamapps-color-1">
				<path d="M712.45,311.55v384.19c0,101.56 -82.18,183.74 -183.75,183.74c-101.56,0 -183.74,-82.18 -183.74,-183.74v-417.61c0,-73.83 59.8,-133.63 133.63,-133.63c73.83,0 133.63,59.8 133.63,133.63v350.78c0,46.1 -37.42,83.52 -83.52,83.52c-46.1,0 -83.51,-37.42 -83.51,-83.52v-317.37h50.11v317.37c0,18.38 15.03,33.41 33.4,33.41c18.38,0 33.41,-15.03 33.41,-33.41v-350.78c0,-46.1 -37.42,-83.51 -83.52,-83.51c-46.1,0 -83.51,37.41 -83.51,83.51v417.61c0,73.83 59.8,133.63 133.63,133.63c73.83,0 133.63,-59.8 133.63,-133.63v-384.19z" fill="currentColor"/>
			</g>
		</g>
	</g>
</svg>