<svg version="1.1" xmlns="http://www.w3.org/2000/svg" xmlns:xlink="http://www.w3.org/1999/xlink" viewBox="0,0,1024,1024">
	<!-- Color names: teamapps-color-1, teamapps-effect-color-1 -->
	<desc>border_outer icon - Licensed under Apache License v2.0 (http://www.apache.org/licenses/LICENSE-2.0) - Created with Iconfu.com - Derivative work of Material icons (Copyright Google Inc.)</desc>
	<defs>
		<filter id="filter-1wJD3q1B" x="-8%" y="-8%" width="147%" height="147%" color-interpolation-filters="sRGB">
			<feColorMatrix values="1 0 0 0 0 0 1 0 0 0 0 0 1 0 0 0 0 0 0.17 0" in="SourceGraphic"/>
			<feOffset dx="14.14" dy="14.14"/>
			<feGaussianBlur stdDeviation="11" result="blur0"/>
			<feColorMatrix values="1 0 0 0 0 0 1 0 0 0 0 0 1 0 0 0 0 0 0.25 0" in="SourceGraphic"/>
			<feOffset dx="21.21" dy="21.21"/>
			<feGaussianBlur stdDeviation="20" result="blur1"/>
			<feMerge>
				<feMergeNode in="blur0"/>
				<feMergeNode in="blur1"/>
			</feMerge>
		</filter>
	</defs>
	<g fill="none" fill-rule="nonzero" style="mix-blend-mode: normal">
		<path d="M872.58,211.33v601.34c0,33.08 -26.82,59.9 -59.9,59.9h-601.34c-33.08,0 -59.9,-26.82 -59.9,-59.9v-601.34c0,-33.08 26.82,-59.9 59.9,-59.9h601.34c33.08,0 59.9,26.82 59.9,59.9z" fill="#000000" filter="url(#filter-1wJD3q1B)"/>
		<g color="#ffffff" class="teamapps-effect-color-1">
			<path d="M872.58,211.33v601.34c0,33.08 -26.82,59.9 -59.9,59.9h-601.34c-33.08,0 -59.9,-26.82 -59.9,-59.9v-601.34c0,-33.08 26.82,-59.9 59.9,-59.9h601.34c33.08,0 59.9,26.82 59.9,59.9z" fill="currentColor"/>
		</g>
		<g>
			<g color="#1565c0" class="teamapps-color-1">
				<path d="M812.67,211.33v601.34h-601.34v-601.34zM745.86,278.14h-467.72v467.72h467.72zM545.41,411.78h-66.82v-66.81h66.82zM411.78,545.41h-66.81v-66.82h66.81zM545.41,545.41h-66.82v-66.82h66.82zM679.04,545.41h-66.81v-66.82h66.81zM545.41,679.04h-66.82v-66.81h66.82z" fill="currentColor"/>
			</g>
		</g>
	</g>
</svg>