<svg version="1.1" xmlns="http://www.w3.org/2000/svg" xmlns:xlink="http://www.w3.org/1999/xlink" viewBox="0,0,1024,1024">
	<!-- Color names: teamapps-color-1, teamapps-effect-color-1 -->
	<desc>cached icon - Licensed under Apache License v2.0 (http://www.apache.org/licenses/LICENSE-2.0) - Created with Iconfu.com - Derivative work of Material icons (Copyright Google Inc.)</desc>
	<defs>
		<clipPath id="clip-H2qAXSS5">
			<path d="M26.96,967.52v-840.33h997.04v840.33z"/>
		</clipPath>
		<filter id="filter-Yxq2tpa2" x="-7%" y="-9%" width="132%" height="157%" color-interpolation-filters="sRGB">
			<feColorMatrix values="1 0 0 0 0 0 1 0 0 0 0 0 1 0 0 0 0 0 0.17 0" in="SourceGraphic"/>
			<feOffset dx="14.14" dy="14.14"/>
			<feGaussianBlur stdDeviation="11" result="blur0"/>
			<feColorMatrix values="1 0 0 0 0 0 1 0 0 0 0 0 1 0 0 0 0 0 0.25 0" in="SourceGraphic"/>
			<feOffset dx="21.21" dy="21.21"/>
			<feGaussianBlur stdDeviation="20" result="blur1"/>
			<feMerge>
				<feMergeNode in="blur0"/>
				<feMergeNode in="blur1"/>
			</feMerge>
		</filter>
	</defs>
	<g fill="none" fill-rule="nonzero" style="mix-blend-mode: normal">
		<g clip-path="url(#clip-H2qAXSS5)">
			<path d="M454.13,554.36l-133.63,133.63c-23.39,23.39 -61.32,23.39 -84.72,0l-133.63,-133.63c-17.13,-17.13 -22.26,-42.9 -12.98,-65.28c9.27,-22.38 31.12,-36.98 55.34,-36.98h45.79c28.13,-152.13 161.41,-267.26 321.7,-267.26c64.33,0 124.16,18.88 174.4,50.74c15.36,9.74 25.46,25.93 27.46,44c2,18.08 -4.32,36.08 -17.18,48.94l-48.77,48.78c-18.75,18.75 -47.6,22.95 -70.92,10.31c-18.89,-10.24 -41.15,-16.15 -64.99,-16.15c-56.08,0 -104.61,33.02 -127.14,80.64h26.91c24.23,0 46.07,14.6 55.34,36.98c9.27,22.38 4.15,48.15 -12.99,65.28zM879.49,571.9h-45.79c-28.13,152.13 -161.41,267.26 -321.7,267.26c-64.33,0 -124.16,-18.88 -174.4,-50.74c-15.36,-9.74 -25.46,-25.93 -27.46,-44c-2,-18.08 4.32,-36.08 17.18,-48.94l48.77,-48.78c18.75,-18.75 47.6,-22.95 70.92,-10.31c18.89,10.24 41.15,16.15 64.99,16.15c56.08,0 104.61,-33.02 127.14,-80.64h-26.91c-24.23,0 -46.07,-14.6 -55.34,-36.98c-9.27,-22.38 -4.15,-48.15 12.99,-65.28l133.63,-133.63c23.39,-23.39 61.32,-23.39 84.72,0l133.63,133.63c17.13,17.13 22.26,42.9 12.98,65.28c-9.27,22.38 -31.12,36.98 -55.34,36.98z" fill="#000000" filter="url(#filter-Yxq2tpa2)"/>
		</g>
		<g color="#ffffff" class="teamapps-effect-color-1">
			<path d="M454.13,554.36l-133.63,133.63c-23.39,23.39 -61.32,23.39 -84.72,0l-133.63,-133.63c-17.13,-17.13 -22.26,-42.9 -12.98,-65.28c9.27,-22.38 31.12,-36.98 55.34,-36.98h45.79c28.13,-152.13 161.41,-267.26 321.7,-267.26c64.33,0 124.16,18.88 174.4,50.74c15.36,9.74 25.46,25.93 27.46,44c2,18.08 -4.32,36.08 -17.18,48.94l-48.77,48.78c-18.75,18.75 -47.6,22.95 -70.92,10.31c-18.89,-10.24 -41.15,-16.15 -64.99,-16.15c-56.08,0 -104.61,33.02 -127.14,80.64h26.91c24.23,0 46.07,14.6 55.34,36.98c9.27,22.38 4.15,48.15 -12.99,65.28zM879.49,571.9h-45.79c-28.13,152.13 -161.41,267.26 -321.7,267.26c-64.33,0 -124.16,-18.88 -174.4,-50.74c-15.36,-9.74 -25.46,-25.93 -27.46,-44c-2,-18.08 4.32,-36.08 17.18,-48.94l48.77,-48.78c18.75,-18.75 47.6,-22.95 70.92,-10.31c18.89,10.24 41.15,16.15 64.99,16.15c56.08,0 104.61,-33.02 127.14,-80.64h-26.91c-24.23,0 -46.07,-14.6 -55.34,-36.98c-9.27,-22.38 -4.15,-48.15 12.99,-65.28l133.63,-133.63c23.39,-23.39 61.32,-23.39 84.72,0l133.63,133.63c17.13,17.13 22.26,42.9 12.98,65.28c-9.27,22.38 -31.12,36.98 -55.34,36.98z" fill="currentColor"/>
		</g>
		<g>
			<g color="#1565c0" class="teamapps-color-1">
				<path d="M411.78,512l-133.63,133.63l-133.63,-133.63h100.22c0,-147.67 119.6,-267.26 267.26,-267.26c52.45,0 101.23,15.36 142.32,41.42l-48.77,48.78c-27.73,-15.03 -59.81,-23.39 -93.55,-23.39c-110.58,0 -200.45,89.86 -200.45,200.45zM879.49,512h-100.22c0,147.67 -119.6,267.26 -267.26,267.26c-52.45,0 -101.23,-15.36 -142.32,-41.42l48.77,-48.78c27.73,15.03 59.81,23.39 93.55,23.39c110.58,0 200.45,-89.86 200.45,-200.45h-100.22l133.63,-133.63z" fill="currentColor"/>
			</g>
		</g>
	</g>
</svg>