<svg version="1.1" xmlns="http://www.w3.org/2000/svg" xmlns:xlink="http://www.w3.org/1999/xlink" viewBox="0,0,1024,1024">
	<!-- Color names: teamapps-color-1, teamapps-effect-color-1 -->
	<desc>call_split icon - Licensed under Apache License v2.0 (http://www.apache.org/licenses/LICENSE-2.0) - Created with Iconfu.com - Derivative work of Material icons (Copyright Google Inc.)</desc>
	<defs>
		<filter id="filter-9xjJu8Wm" x="-9%" y="-9%" width="157%" height="157%" color-interpolation-filters="sRGB">
			<feColorMatrix values="1 0 0 0 0 0 1 0 0 0 0 0 1 0 0 0 0 0 0.17 0" in="SourceGraphic"/>
			<feOffset dx="14.14" dy="14.14"/>
			<feGaussianBlur stdDeviation="11" result="blur0"/>
			<feColorMatrix values="1 0 0 0 0 0 1 0 0 0 0 0 1 0 0 0 0 0 0.25 0" in="SourceGraphic"/>
			<feOffset dx="21.21" dy="21.21"/>
			<feGaussianBlur stdDeviation="20" result="blur1"/>
			<feMerge>
				<feMergeNode in="blur0"/>
				<feMergeNode in="blur1"/>
			</feMerge>
		</filter>
	</defs>
	<g fill="none" fill-rule="nonzero" style="mix-blend-mode: normal">
		<path d="M453.36,321.28l58.82,58.93c1.41,-1.77 2.93,-3.48 4.57,-5.12l53.85,-53.85l-34.14,-34.14c-17.13,-17.13 -22.26,-42.9 -12.99,-65.28c9.27,-22.39 31.12,-36.98 55.34,-36.98h200.45c33.08,0 59.9,26.82 59.9,59.9v200.45c0,24.23 -14.6,46.07 -36.98,55.34c-22.39,9.27 -48.15,4.15 -65.28,-12.99l-34.14,-34.14l-53.85,53.85c-12.01,12.01 -27.85,17.85 -43.59,17.53v254.48c0,33.08 -26.82,59.9 -59.9,59.9h-66.82c-33.08,0 -59.9,-26.82 -59.9,-59.9v-228.72l-97.4,-97.19l-34.19,34.19c-17.13,17.13 -42.9,22.26 -65.28,12.99c-22.39,-9.27 -36.98,-31.12 -36.98,-55.34v-200.45c0,-33.08 26.82,-59.9 59.9,-59.9h200.45c24.23,0 46.07,14.6 55.34,36.98c9.27,22.39 4.15,48.15 -12.99,65.28z" fill="#000000" filter="url(#filter-9xjJu8Wm)"/>
		<g color="#ffffff" class="teamapps-effect-color-1">
			<path d="M453.36,321.28l58.82,58.93c1.41,-1.77 2.93,-3.48 4.57,-5.12l53.85,-53.85l-34.14,-34.14c-17.13,-17.13 -22.26,-42.9 -12.99,-65.28c9.27,-22.39 31.12,-36.98 55.34,-36.98h200.45c33.08,0 59.9,26.82 59.9,59.9v200.45c0,24.23 -14.6,46.07 -36.98,55.34c-22.39,9.27 -48.15,4.15 -65.28,-12.99l-34.14,-34.14l-53.85,53.85c-12.01,12.01 -27.85,17.85 -43.59,17.53v254.48c0,33.08 -26.82,59.9 -59.9,59.9h-66.82c-33.08,0 -59.9,-26.82 -59.9,-59.9v-228.72l-97.4,-97.19l-34.19,34.19c-17.13,17.13 -42.9,22.26 -65.28,12.99c-22.39,-9.27 -36.98,-31.12 -36.98,-55.34v-200.45c0,-33.08 26.82,-59.9 59.9,-59.9h200.45c24.23,0 46.07,14.6 55.34,36.98c9.27,22.39 4.15,48.15 -12.99,65.28z" fill="currentColor"/>
		</g>
		<g>
			<g color="#1565c0" class="teamapps-color-1">
				<path d="M368.68,321.24l176.73,177.07v280.96h-66.82v-253.57l-157.35,-157.01l-76.5,76.51v-200.45h200.45zM779.26,244.74v200.45l-76.5,-76.51l-96.22,96.22l-47.44,-47.44l96.22,-96.22l-76.51,-76.5z" fill="currentColor"/>
			</g>
		</g>
	</g>
</svg>