<svg version="1.1" xmlns="http://www.w3.org/2000/svg" xmlns:xlink="http://www.w3.org/1999/xlink" viewBox="0,0,1024,1024">
	<!-- Color names: teamapps-color-1, teamapps-effect-color-1 -->
	<desc>camera_enhance icon - Licensed under Apache License v2.0 (http://www.apache.org/licenses/LICENSE-2.0) - Created with Iconfu.com - Derivative work of Material icons (Copyright Google Inc.)</desc>
	<defs>
		<clipPath id="clip-HvevqVQJ">
			<path d="M60.37,1000.93v-907.15h963.63v907.15z"/>
		</clipPath>
		<filter id="filter-W397s13Z" x="-8%" y="-8%" width="140%" height="147%" color-interpolation-filters="sRGB">
			<feColorMatrix values="1 0 0 0 0 0 1 0 0 0 0 0 1 0 0 0 0 0 0.17 0" in="SourceGraphic"/>
			<feOffset dx="14.14" dy="14.14"/>
			<feGaussianBlur stdDeviation="11" result="blur0"/>
			<feColorMatrix values="1 0 0 0 0 0 1 0 0 0 0 0 1 0 0 0 0 0 0.25 0" in="SourceGraphic"/>
			<feOffset dx="21.21" dy="21.21"/>
			<feGaussianBlur stdDeviation="20" result="blur1"/>
			<feMerge>
				<feMergeNode in="blur0"/>
				<feMergeNode in="blur1"/>
			</feMerge>
		</filter>
	</defs>
	<g fill="none" fill-rule="nonzero" style="mix-blend-mode: normal">
		<g clip-path="url(#clip-HvevqVQJ)">
			<path d="M656.42,170.89l43.33,47.35h79.52c69.83,0 126.73,56.89 126.73,126.73v400.9c0,69.84 -56.9,126.72 -126.73,126.72h-534.52c-69.82,0 -126.73,-56.88 -126.73,-126.72v-400.9c0,-69.83 56.89,-126.73 126.73,-126.73h79.52l43.33,-47.35c11.35,-12.4 27.38,-19.46 44.19,-19.46h200.45c16.81,0 32.85,7.06 44.19,19.46z" fill="#000000" filter="url(#filter-W397s13Z)"/>
		</g>
		<g color="#ffffff" class="teamapps-effect-color-1">
			<path d="M656.42,170.89l43.33,47.35h79.52c69.83,0 126.73,56.89 126.73,126.73v400.9c0,69.84 -56.9,126.72 -126.73,126.72h-534.52c-69.82,0 -126.73,-56.88 -126.73,-126.72v-400.9c0,-69.83 56.89,-126.73 126.73,-126.73h79.52l43.33,-47.35c11.35,-12.4 27.38,-19.46 44.19,-19.46h200.45c16.81,0 32.85,7.06 44.19,19.46z" fill="currentColor"/>
		</g>
		<g>
			<g color="#1565c0" class="teamapps-color-1">
				<path d="M612.22,211.33l61.14,66.81h105.9c36.75,0 66.82,30.08 66.82,66.82v400.9c0,36.75 -30.08,66.81 -66.82,66.81h-534.52c-36.75,0 -66.82,-30.07 -66.82,-66.81v-400.9c0,-36.75 30.08,-66.82 66.82,-66.82h105.9l61.14,-66.81zM679.04,545.41c0,-92.21 -74.83,-167.05 -167.04,-167.05c-92.21,0 -167.04,74.84 -167.04,167.05c0,92.21 74.83,167.04 167.04,167.04c92.21,0 167.04,-74.83 167.04,-167.04zM470.24,587.17l-91.88,-41.76l91.88,-41.77l41.76,-91.87l41.76,91.87l91.88,41.77l-91.88,41.76l-41.76,91.87z" fill="currentColor"/>
			</g>
		</g>
	</g>
</svg>