<svg version="1.1" xmlns="http://www.w3.org/2000/svg" xmlns:xlink="http://www.w3.org/1999/xlink" viewBox="0,0,1024,1024">
	<!-- Color names: teamapps-color-1, teamapps-effect-color-1 -->
	<desc>camera_roll icon - Licensed under Apache License v2.0 (http://www.apache.org/licenses/LICENSE-2.0) - Created with Iconfu.com - Derivative work of Material icons (Copyright Google Inc.)</desc>
	<defs>
		<clipPath id="clip-l61zkP0g">
			<path d="M60.37,26.97h963.63v997.03h-963.63z"/>
		</clipPath>
		<filter id="filter-kNmML3uI" x="-8%" y="-8%" width="140%" height="134%" color-interpolation-filters="sRGB">
			<feColorMatrix values="1 0 0 0 0 0 1 0 0 0 0 0 1 0 0 0 0 0 0.17 0" in="SourceGraphic"/>
			<feOffset dx="14.14" dy="14.14"/>
			<feGaussianBlur stdDeviation="11" result="blur0"/>
			<feColorMatrix values="1 0 0 0 0 0 1 0 0 0 0 0 1 0 0 0 0 0 0.25 0" in="SourceGraphic"/>
			<feOffset dx="21.21" dy="21.21"/>
			<feGaussianBlur stdDeviation="20" result="blur1"/>
			<feMerge>
				<feMergeNode in="blur0"/>
				<feMergeNode in="blur1"/>
			</feMerge>
		</filter>
	</defs>
	<g fill="none" fill-rule="nonzero" style="mix-blend-mode: normal">
		<g clip-path="url(#clip-l61zkP0g)">
			<path d="M905.99,278.14v501.12c0,33.08 -26.82,59.9 -59.9,59.9h-222.47c-21.41,39.72 -63.38,66.82 -111.61,66.82h-267.26c-69.83,0 -126.73,-56.89 -126.73,-126.73v-501.12c0,-61.89 44.68,-113.6 103.44,-124.57c10.73,-39.7 47.07,-68.96 90.1,-68.96h133.63c43.04,0 79.35,29.27 90.09,68.96c38.23,7.13 70.46,31.5 88.34,64.67h222.47c33.08,0 59.9,26.82 59.9,59.9z" fill="#000000" filter="url(#filter-kNmML3uI)"/>
		</g>
		<g color="#ffffff" class="teamapps-effect-color-1">
			<path d="M905.99,278.14v501.12c0,33.08 -26.82,59.9 -59.9,59.9h-222.47c-21.41,39.72 -63.38,66.82 -111.61,66.82h-267.26c-69.83,0 -126.73,-56.89 -126.73,-126.73v-501.12c0,-61.89 44.68,-113.6 103.44,-124.57c10.73,-39.7 47.07,-68.96 90.1,-68.96h133.63c43.04,0 79.35,29.27 90.09,68.96c38.23,7.13 70.46,31.5 88.34,64.67h222.47c33.08,0 59.9,26.82 59.9,59.9z" fill="currentColor"/>
		</g>
		<g>
			<g color="#1565c0" class="teamapps-color-1">
				<path d="M846.08,278.14v501.12h-267.27c0,36.75 -30.07,66.82 -66.81,66.82h-267.26c-36.75,0 -66.82,-30.08 -66.82,-66.82v-501.12c0,-36.75 30.08,-66.81 66.82,-66.81h33.4v-33.41c0,-18.38 15.03,-33.4 33.41,-33.4h133.63c18.38,0 33.4,15.03 33.4,33.4v33.41h33.41c36.75,0 66.81,30.07 66.81,66.81zM512,645.63h-66.81v66.81h66.81zM512,344.96h-66.81v66.81h66.81zM645.63,645.63h-66.82v66.81h66.82zM645.63,344.96h-66.82v66.81h66.82zM779.26,645.63h-66.81v66.81h66.81zM779.26,344.96h-66.81v66.81h66.81z" fill="currentColor"/>
			</g>
		</g>
	</g>
</svg>