<svg version="1.1" xmlns="http://www.w3.org/2000/svg" xmlns:xlink="http://www.w3.org/1999/xlink" viewBox="0,0,1024,1024">
	<!-- Color names: teamapps-color-1, teamapps-effect-color-1 -->
	<desc>change_history icon - Licensed under Apache License v2.0 (http://www.apache.org/licenses/LICENSE-2.0) - Created with Iconfu.com - Derivative work of Material icons (Copyright Google Inc.)</desc>
	<defs>
		<clipPath id="clip-GuLVNp5X">
			<path d="M60.37,967.52v-840.33h963.63v840.33z"/>
		</clipPath>
		<filter id="filter-KFGa8Yfy" x="-8%" y="-9%" width="140%" height="157%" color-interpolation-filters="sRGB">
			<feColorMatrix values="1 0 0 0 0 0 1 0 0 0 0 0 1 0 0 0 0 0 0.17 0" in="SourceGraphic"/>
			<feOffset dx="14.14" dy="14.14"/>
			<feGaussianBlur stdDeviation="11" result="blur0"/>
			<feColorMatrix values="1 0 0 0 0 0 1 0 0 0 0 0 1 0 0 0 0 0 0.25 0" in="SourceGraphic"/>
			<feOffset dx="21.21" dy="21.21"/>
			<feGaussianBlur stdDeviation="20" result="blur1"/>
			<feMerge>
				<feMergeNode in="blur0"/>
				<feMergeNode in="blur1"/>
			</feMerge>
		</filter>
	</defs>
	<g fill="none" fill-rule="nonzero" style="mix-blend-mode: normal">
		<g clip-path="url(#clip-GuLVNp5X)">
			<path d="M846.08,839.17h-668.17c-21.78,0 -41.84,-11.82 -52.39,-30.86c-10.56,-19.05 -9.95,-42.32 1.6,-60.79l334.08,-534.52c10.95,-17.51 30.14,-28.15 50.8,-28.15c20.65,0 39.85,10.64 50.8,28.15l334.08,534.52c11.54,18.47 12.15,41.74 1.6,60.79c-10.56,19.05 -30.62,30.86 -52.39,30.86z" fill="#000000" filter="url(#filter-KFGa8Yfy)"/>
		</g>
		<g color="#ffffff" class="teamapps-effect-color-1">
			<path d="M846.08,839.17h-668.17c-21.78,0 -41.84,-11.82 -52.39,-30.86c-10.56,-19.05 -9.95,-42.32 1.6,-60.79l334.08,-534.52c10.95,-17.51 30.14,-28.15 50.8,-28.15c20.65,0 39.85,10.64 50.8,28.15l334.08,534.52c11.54,18.47 12.15,41.74 1.6,60.79c-10.56,19.05 -30.62,30.86 -52.39,30.86z" fill="currentColor"/>
		</g>
		<g>
			<g color="#1565c0" class="teamapps-color-1">
				<path d="M846.08,779.26h-668.17l334.08,-534.52zM512,370.68l-213.48,341.76h426.95z" fill="currentColor"/>
			</g>
		</g>
	</g>
</svg>