<svg version="1.1" xmlns="http://www.w3.org/2000/svg" xmlns:xlink="http://www.w3.org/1999/xlink" viewBox="0,0,1024,1024">
	<!-- Color names: teamapps-color-1, teamapps-effect-color-1 -->
	<desc>check_box icon - Licensed under Apache License v2.0 (http://www.apache.org/licenses/LICENSE-2.0) - Created with Iconfu.com - Derivative work of Material icons (Copyright Google Inc.)</desc>
	<defs>
		<filter id="filter-BG5dYQwk" x="-8%" y="-8%" width="147%" height="147%" color-interpolation-filters="sRGB">
			<feColorMatrix values="1 0 0 0 0 0 1 0 0 0 0 0 1 0 0 0 0 0 0.17 0" in="SourceGraphic"/>
			<feOffset dx="14.14" dy="14.14"/>
			<feGaussianBlur stdDeviation="11" result="blur0"/>
			<feColorMatrix values="1 0 0 0 0 0 1 0 0 0 0 0 1 0 0 0 0 0 0.25 0" in="SourceGraphic"/>
			<feOffset dx="21.21" dy="21.21"/>
			<feGaussianBlur stdDeviation="20" result="blur1"/>
			<feMerge>
				<feMergeNode in="blur0"/>
				<feMergeNode in="blur1"/>
			</feMerge>
		</filter>
	</defs>
	<g fill="none" fill-rule="nonzero" style="mix-blend-mode: normal">
		<path d="M872.58,278.14v467.72c0,69.63 -56.35,126.72 -126.72,126.72h-467.72c-70.37,0 -126.72,-57.09 -126.72,-126.72v-467.72c0,-69.63 56.35,-126.72 126.72,-126.72h467.72c70.37,0 126.72,57.09 126.72,126.72z" fill="#000000" filter="url(#filter-BG5dYQwk)"/>
		<g color="#ffffff" class="teamapps-effect-color-1">
			<path d="M872.58,278.14v467.72c0,69.63 -56.35,126.72 -126.72,126.72h-467.72c-70.37,0 -126.72,-57.09 -126.72,-126.72v-467.72c0,-69.63 56.35,-126.72 126.72,-126.72h467.72c70.37,0 126.72,57.09 126.72,126.72z" fill="currentColor"/>
		</g>
		<g>
			<g color="#1565c0" class="teamapps-color-1">
				<path d="M812.67,278.14v467.72c0,36.75 -29.73,66.81 -66.81,66.81h-467.72c-37.08,0 -66.81,-30.07 -66.81,-66.81v-467.72c0,-36.75 29.73,-66.81 66.81,-66.81h467.72c37.08,0 66.81,30.07 66.81,66.81zM745.86,378.37l-47.11,-47.43l-253.57,253.57l-119.94,-119.6l-47.11,47.11l167.05,167.04z" fill="currentColor"/>
			</g>
		</g>
	</g>
</svg>