<svg version="1.1" xmlns="http://www.w3.org/2000/svg" xmlns:xlink="http://www.w3.org/1999/xlink" viewBox="0,0,1024,1024">
	<!-- Color names: teamapps-color-1, teamapps-effect-color-1 -->
	<desc>content_cut icon - Licensed under Apache License v2.0 (http://www.apache.org/licenses/LICENSE-2.0) - Created with Iconfu.com - Derivative work of Material icons (Copyright Google Inc.)</desc>
	<defs>
		<clipPath id="clip-K5ScpXBw">
			<path d="M60.37,60.37h963.63v963.63h-963.63z"/>
		</clipPath>
		<filter id="filter-dwjj3XGC" x="-8%" y="-8%" width="140%" height="140%" color-interpolation-filters="sRGB">
			<feColorMatrix values="1 0 0 0 0 0 1 0 0 0 0 0 1 0 0 0 0 0 0.17 0" in="SourceGraphic"/>
			<feOffset dx="14.14" dy="14.14"/>
			<feGaussianBlur stdDeviation="11" result="blur0"/>
			<feColorMatrix values="1 0 0 0 0 0 1 0 0 0 0 0 1 0 0 0 0 0 0.25 0" in="SourceGraphic"/>
			<feOffset dx="21.21" dy="21.21"/>
			<feGaussianBlur stdDeviation="20" result="blur1"/>
			<feMerge>
				<feMergeNode in="blur0"/>
				<feMergeNode in="blur1"/>
			</feMerge>
		</filter>
	</defs>
	<g fill="none" fill-rule="nonzero" style="mix-blend-mode: normal">
		<g clip-path="url(#clip-K5ScpXBw)">
			<path d="M905.99,779.26v33.41c0,33.08 -26.82,59.9 -59.9,59.9h-100.22c-15.89,0 -31.12,-6.31 -42.36,-17.55l-191.5,-191.5l-10.75,10.75c2.51,12.29 3.84,25.04 3.84,38.16c0,106.91 -86.63,193.54 -193.54,193.54c-106.91,0 -193.54,-86.63 -193.54,-193.54c0,-106.91 86.63,-193.54 193.54,-193.54c13.12,0 25.87,1.33 38.16,3.84l10.75,-10.75l-10.75,-10.75c-12.29,2.51 -25.04,3.84 -38.16,3.84c-106.91,0 -193.54,-86.63 -193.54,-193.54c0,-106.91 86.63,-193.54 193.54,-193.54c106.91,0 193.54,86.63 193.54,193.54c0,13.12 -1.33,25.87 -3.84,38.16l10.76,10.76l191.5,-191.5c11.23,-11.23 26.47,-17.55 42.36,-17.55h100.22c33.08,0 59.9,26.82 59.9,59.9v33.41c0,15.89 -6.31,31.12 -17.55,42.36l-224.91,224.9l224.91,224.91c11.23,11.23 17.55,26.47 17.55,42.36z" fill="#000000" filter="url(#filter-dwjj3XGC)"/>
		</g>
		<g color="#ffffff" class="teamapps-effect-color-1">
			<path d="M905.99,779.26v33.41c0,33.08 -26.82,59.9 -59.9,59.9h-100.22c-15.89,0 -31.12,-6.31 -42.36,-17.55l-191.5,-191.5l-10.75,10.75c2.51,12.29 3.84,25.04 3.84,38.16c0,106.91 -86.63,193.54 -193.54,193.54c-106.91,0 -193.54,-86.63 -193.54,-193.54c0,-106.91 86.63,-193.54 193.54,-193.54c13.12,0 25.87,1.33 38.16,3.84l10.75,-10.75l-10.75,-10.75c-12.29,2.51 -25.04,3.84 -38.16,3.84c-106.91,0 -193.54,-86.63 -193.54,-193.54c0,-106.91 86.63,-193.54 193.54,-193.54c106.91,0 193.54,86.63 193.54,193.54c0,13.12 -1.33,25.87 -3.84,38.16l10.76,10.76l191.5,-191.5c11.23,-11.23 26.47,-17.55 42.36,-17.55h100.22c33.08,0 59.9,26.82 59.9,59.9v33.41c0,15.89 -6.31,31.12 -17.55,42.36l-224.91,224.9l224.91,224.91c11.23,11.23 17.55,26.47 17.55,42.36z" fill="currentColor"/>
		</g>
		<g>
			<g color="#1565c0" class="teamapps-color-1">
				<path d="M846.08,779.26v33.41h-100.22l-233.86,-233.86l-78.84,78.85c7.68,16.7 12.03,35.08 12.03,54.79c0,73.83 -59.81,133.63 -133.63,133.63c-73.83,0 -133.63,-59.81 -133.63,-133.63c0,-73.83 59.81,-133.63 133.63,-133.63c19.71,0 38.09,4.35 54.79,12.03l78.85,-78.84l-78.85,-78.84c-16.7,7.68 -35.08,12.03 -54.79,12.03c-73.83,0 -133.63,-59.81 -133.63,-133.63c0,-73.83 59.81,-133.63 133.63,-133.63c73.83,0 133.63,59.81 133.63,133.63c0,19.71 -4.35,38.09 -12.03,54.79zM846.08,211.33v33.41l-233.86,233.85l-66.81,-66.81l200.45,-200.45zM378.37,311.55c0,-37.08 -30.07,-66.81 -66.81,-66.81c-36.75,0 -66.81,29.73 -66.81,66.81c0,37.08 30.07,66.81 66.81,66.81c36.75,0 66.81,-29.73 66.81,-66.81zM378.37,712.45c0,-37.08 -30.07,-66.81 -66.81,-66.81c-36.75,0 -66.81,29.73 -66.81,66.81c0,37.08 30.07,66.81 66.81,66.81c36.75,0 66.81,-29.73 66.81,-66.81zM528.7,512c0,-9.36 -7.34,-16.7 -16.7,-16.7c-9.36,0 -16.7,7.34 -16.7,16.7c0,9.36 7.34,16.7 16.7,16.7c9.36,0 16.7,-7.34 16.7,-16.7z" fill="currentColor"/>
			</g>
		</g>
	</g>
</svg>