<svg version="1.1" xmlns="http://www.w3.org/2000/svg" xmlns:xlink="http://www.w3.org/1999/xlink" viewBox="0,0,1024,1024">
	<!-- Color names: teamapps-color-1, teamapps-effect-color-1 -->
	<desc>crop_free icon - Licensed under Apache License v2.0 (http://www.apache.org/licenses/LICENSE-2.0) - Created with Iconfu.com - Derivative work of Material icons (Copyright Google Inc.)</desc>
	<defs>
		<filter id="filter-96hMqqkJ" x="-8%" y="-8%" width="147%" height="147%" color-interpolation-filters="sRGB">
			<feColorMatrix values="1 0 0 0 0 0 1 0 0 0 0 0 1 0 0 0 0 0 0.17 0" in="SourceGraphic"/>
			<feOffset dx="14.14" dy="14.14"/>
			<feGaussianBlur stdDeviation="11" result="blur0"/>
			<feColorMatrix values="1 0 0 0 0 0 1 0 0 0 0 0 1 0 0 0 0 0 0.25 0" in="SourceGraphic"/>
			<feOffset dx="21.21" dy="21.21"/>
			<feGaussianBlur stdDeviation="20" result="blur1"/>
			<feMerge>
				<feMergeNode in="blur0"/>
				<feMergeNode in="blur1"/>
			</feMerge>
		</filter>
	</defs>
	<g fill="none" fill-rule="nonzero" style="mix-blend-mode: normal">
		<path d="M745.86,552.32h66.81c33.08,0 59.9,26.82 59.9,59.9v133.63c0,69.83 -56.89,126.72 -126.72,126.72h-133.63c-33.08,0 -59.9,-26.82 -59.9,-59.9v-66.81c0,-33.08 26.82,-59.9 59.9,-59.9h73.73v-73.73c0,-33.08 26.82,-59.9 59.9,-59.9zM411.78,685.95c33.08,0 59.9,26.82 59.9,59.9v66.81c0,33.08 -26.82,59.9 -59.9,59.9h-133.63c-69.83,0 -126.72,-56.89 -126.72,-126.72v-133.63c0,-33.08 26.82,-59.9 59.9,-59.9h66.81c33.08,0 59.9,26.82 59.9,59.9v73.73zM872.58,278.14v133.63c0,33.08 -26.82,59.9 -59.9,59.9h-66.81c-33.08,0 -59.9,-26.82 -59.9,-59.9v-73.73h-73.73c-33.08,0 -59.9,-26.82 -59.9,-59.9v-66.81c0,-33.08 26.82,-59.9 59.9,-59.9h133.63c69.83,0 126.72,56.89 126.72,126.72zM278.14,151.42h133.63c33.08,0 59.9,26.82 59.9,59.9v66.81c0,33.08 -26.82,59.9 -59.9,59.9h-73.73v73.73c0,33.08 -26.82,59.9 -59.9,59.9h-66.81c-33.08,0 -59.9,-26.82 -59.9,-59.9v-133.63c0,-69.83 56.89,-126.72 126.72,-126.72z" fill="#000000" filter="url(#filter-96hMqqkJ)"/>
		<g color="#ffffff" class="teamapps-effect-color-1">
			<path d="M745.86,552.32h66.81c33.08,0 59.9,26.82 59.9,59.9v133.63c0,69.83 -56.89,126.72 -126.72,126.72h-133.63c-33.08,0 -59.9,-26.82 -59.9,-59.9v-66.81c0,-33.08 26.82,-59.9 59.9,-59.9h73.73v-73.73c0,-33.08 26.82,-59.9 59.9,-59.9zM411.78,685.95c33.08,0 59.9,26.82 59.9,59.9v66.81c0,33.08 -26.82,59.9 -59.9,59.9h-133.63c-69.83,0 -126.72,-56.89 -126.72,-126.72v-133.63c0,-33.08 26.82,-59.9 59.9,-59.9h66.81c33.08,0 59.9,26.82 59.9,59.9v73.73zM872.58,278.14v133.63c0,33.08 -26.82,59.9 -59.9,59.9h-66.81c-33.08,0 -59.9,-26.82 -59.9,-59.9v-73.73h-73.73c-33.08,0 -59.9,-26.82 -59.9,-59.9v-66.81c0,-33.08 26.82,-59.9 59.9,-59.9h133.63c69.83,0 126.72,56.89 126.72,126.72zM278.14,151.42h133.63c33.08,0 59.9,26.82 59.9,59.9v66.81c0,33.08 -26.82,59.9 -59.9,59.9h-73.73v73.73c0,33.08 -26.82,59.9 -59.9,59.9h-66.81c-33.08,0 -59.9,-26.82 -59.9,-59.9v-133.63c0,-69.83 56.89,-126.72 126.72,-126.72z" fill="currentColor"/>
		</g>
		<g>
			<g color="#1565c0" class="teamapps-color-1">
				<path d="M278.14,211.33h133.63v66.81h-133.63v133.63h-66.81v-133.63c0,-36.75 30.07,-66.81 66.81,-66.81zM278.14,745.86h133.63v66.81h-133.63c-36.75,0 -66.81,-30.07 -66.81,-66.81v-133.63h66.81zM745.86,612.22h66.81v133.63c0,36.75 -30.07,66.81 -66.81,66.81h-133.63v-66.81h133.63zM812.67,278.14v133.63h-66.81v-133.63h-133.63v-66.81h133.63c36.75,0 66.81,30.07 66.81,66.81z" fill="currentColor"/>
			</g>
		</g>
	</g>
</svg>