<svg version="1.1" xmlns="http://www.w3.org/2000/svg" xmlns:xlink="http://www.w3.org/1999/xlink" viewBox="0,0,1024,1024">
	<!-- Color names: teamapps-color-1, teamapps-effect-color-1 -->
	<desc>developer_mode icon - Licensed under Apache License v2.0 (http://www.apache.org/licenses/LICENSE-2.0) - Created with Iconfu.com - Derivative work of Material icons (Copyright Google Inc.)</desc>
	<defs>
		<clipPath id="clip-JvXyLtNU">
			<path d="M127.19,26.97h840.33v997.03h-840.33z"/>
		</clipPath>
		<filter id="filter-ZvK8g44F" x="-9%" y="-7%" width="157%" height="132%" color-interpolation-filters="sRGB">
			<feColorMatrix values="1 0 0 0 0 0 1 0 0 0 0 0 1 0 0 0 0 0 0.17 0" in="SourceGraphic"/>
			<feOffset dx="14.14" dy="14.14"/>
			<feGaussianBlur stdDeviation="11" result="blur0"/>
			<feColorMatrix values="1 0 0 0 0 0 1 0 0 0 0 0 1 0 0 0 0 0 0.25 0" in="SourceGraphic"/>
			<feOffset dx="21.21" dy="21.21"/>
			<feGaussianBlur stdDeviation="20" result="blur1"/>
			<feMerge>
				<feMergeNode in="blur0"/>
				<feMergeNode in="blur1"/>
			</feMerge>
		</filter>
	</defs>
	<g fill="none" fill-rule="nonzero" style="mix-blend-mode: normal">
		<g clip-path="url(#clip-JvXyLtNU)">
			<path d="M805.76,679.04v133.63c0,69.84 -56.9,126.72 -126.73,126.72h-334.07c-69.82,0 -126.73,-56.88 -126.73,-126.72v-133.63c0,-29.63 21.51,-54.24 49.77,-59.05l-65.63,-65.63c-23.39,-23.39 -23.39,-61.32 0,-84.72l65.63,-65.63c-28.26,-4.81 -49.77,-29.42 -49.77,-59.05v-133.63c0,-69.84 56.9,-126.72 126.73,-126.72l334.13,0.33c69.41,0.03 126.67,56.18 126.67,126.39v133.63c0,29.63 -21.51,54.24 -49.77,59.05l65.63,65.63c23.39,23.39 23.39,61.32 0,84.72l-65.63,65.63c28.26,4.81 49.77,29.42 49.77,59.05z" fill="#000000" filter="url(#filter-ZvK8g44F)"/>
		</g>
		<g color="#ffffff" class="teamapps-effect-color-1">
			<path d="M805.76,679.04v133.63c0,69.84 -56.9,126.72 -126.73,126.72h-334.07c-69.82,0 -126.73,-56.88 -126.73,-126.72v-133.63c0,-29.63 21.51,-54.24 49.77,-59.05l-65.63,-65.63c-23.39,-23.39 -23.39,-61.32 0,-84.72l65.63,-65.63c-28.26,-4.81 -49.77,-29.42 -49.77,-59.05v-133.63c0,-69.84 56.9,-126.72 126.73,-126.72l334.13,0.33c69.41,0.03 126.67,56.18 126.67,126.39v133.63c0,29.63 -21.51,54.24 -49.77,59.05l65.63,65.63c23.39,23.39 23.39,61.32 0,84.72l-65.63,65.63c28.26,4.81 49.77,29.42 49.77,59.05z" fill="currentColor"/>
		</g>
		<g>
			<g color="#1565c0" class="teamapps-color-1">
				<path d="M679.04,679.04h66.82v133.63c0,36.75 -30.08,66.81 -66.82,66.81h-334.07c-36.75,0 -66.82,-30.07 -66.82,-66.81v-133.63h66.82v66.82h334.07zM344.96,344.96h-66.82v-133.63c0,-36.75 30.08,-66.81 66.82,-66.81l334.07,0.33c36.75,0 66.82,29.74 66.82,66.48v133.63h-66.82v-66.82h-334.07zM578.81,617.9l105.91,-105.9l-105.91,-105.9l47.11,-47.44l153.34,153.34l-153.34,153.34zM398.08,665.34l-153.34,-153.34l153.34,-153.34l47.11,47.44l-105.91,105.9l105.91,105.9z" fill="currentColor"/>
			</g>
		</g>
	</g>
</svg>