<svg version="1.1" xmlns="http://www.w3.org/2000/svg" xmlns:xlink="http://www.w3.org/1999/xlink" viewBox="0,0,1024,1024">
	<!-- Color names: teamapps-color-1, teamapps-effect-color-1 -->
	<desc>device_hub icon - Licensed under Apache License v2.0 (http://www.apache.org/licenses/LICENSE-2.0) - Created with Iconfu.com - Derivative work of Material icons (Copyright Google Inc.)</desc>
	<defs>
		<filter id="filter-OYDkNaN2" x="-8%" y="-8%" width="147%" height="147%" color-interpolation-filters="sRGB">
			<feColorMatrix values="1 0 0 0 0 0 1 0 0 0 0 0 1 0 0 0 0 0 0.17 0" in="SourceGraphic"/>
			<feOffset dx="14.14" dy="14.14"/>
			<feGaussianBlur stdDeviation="11" result="blur0"/>
			<feColorMatrix values="1 0 0 0 0 0 1 0 0 0 0 0 1 0 0 0 0 0 0.25 0" in="SourceGraphic"/>
			<feOffset dx="21.21" dy="21.21"/>
			<feGaussianBlur stdDeviation="20" result="blur1"/>
			<feMerge>
				<feMergeNode in="blur0"/>
				<feMergeNode in="blur1"/>
			</feMerge>
		</filter>
	</defs>
	<g fill="none" fill-rule="nonzero" style="mix-blend-mode: normal">
		<path d="M872.58,645.63v167.04c0,33.08 -26.82,59.9 -59.9,59.9h-167.04c-33.08,0 -59.9,-26.82 -59.9,-59.9v-77.93l-73.73,-77.42l-73.73,77.42v77.93c0,33.08 -26.82,59.9 -59.9,59.9h-167.04c-33.08,0 -59.9,-26.82 -59.9,-59.9v-167.04c0,-33.08 26.82,-59.9 59.9,-59.9h108.82l98.54,-98.54v-45.97c-40.05,-28.85 -66.81,-75.76 -66.81,-129.66c0,-88.54 71.58,-160.13 160.13,-160.13c88.54,0 160.13,71.58 160.13,160.13c0,53.9 -26.76,100.81 -66.81,129.66v45.97l98.54,98.54h108.82c33.08,0 59.9,26.82 59.9,59.9z" fill="#000000" filter="url(#filter-OYDkNaN2)"/>
		<g color="#ffffff" class="teamapps-effect-color-1">
			<path d="M872.58,645.63v167.04c0,33.08 -26.82,59.9 -59.9,59.9h-167.04c-33.08,0 -59.9,-26.82 -59.9,-59.9v-77.93l-73.73,-77.42l-73.73,77.42v77.93c0,33.08 -26.82,59.9 -59.9,59.9h-167.04c-33.08,0 -59.9,-26.82 -59.9,-59.9v-167.04c0,-33.08 26.82,-59.9 59.9,-59.9h108.82l98.54,-98.54v-45.97c-40.05,-28.85 -66.81,-75.76 -66.81,-129.66c0,-88.54 71.58,-160.13 160.13,-160.13c88.54,0 160.13,71.58 160.13,160.13c0,53.9 -26.76,100.81 -66.81,129.66v45.97l98.54,98.54h108.82c33.08,0 59.9,26.82 59.9,59.9z" fill="currentColor"/>
		</g>
		<g>
			<g color="#1565c0" class="teamapps-color-1">
				<path d="M812.67,645.63v167.04h-167.04v-101.89l-133.63,-140.31l-133.63,140.31v101.89h-167.04v-167.04h133.63l133.63,-133.63v-106.24c-38.75,-14.03 -66.81,-50.78 -66.81,-94.21c0,-55.46 44.76,-100.22 100.22,-100.22c55.46,0 100.22,44.76 100.22,100.22c0,43.43 -28.06,80.18 -66.81,94.21v106.24l133.63,133.63z" fill="currentColor"/>
			</g>
		</g>
	</g>
</svg>