<svg version="1.1" xmlns="http://www.w3.org/2000/svg" xmlns:xlink="http://www.w3.org/1999/xlink" viewBox="0,0,1024,1024">
	<!-- Color names: teamapps-color-1, teamapps-effect-color-1 -->
	<desc>devices_other icon - Licensed under Apache License v2.0 (http://www.apache.org/licenses/LICENSE-2.0) - Created with Iconfu.com - Derivative work of Material icons (Copyright Google Inc.)</desc>
	<defs>
		<clipPath id="clip-41Qs9BdF">
			<path d="M26.97,967.52v-840.33h997.03v840.33z"/>
		</clipPath>
		<filter id="filter-0E0ZDQm6" x="-7%" y="-9%" width="132%" height="157%" color-interpolation-filters="sRGB">
			<feColorMatrix values="1 0 0 0 0 0 1 0 0 0 0 0 1 0 0 0 0 0 0.17 0" in="SourceGraphic"/>
			<feOffset dx="14.14" dy="14.14"/>
			<feGaussianBlur stdDeviation="11" result="blur0"/>
			<feColorMatrix values="1 0 0 0 0 0 1 0 0 0 0 0 1 0 0 0 0 0 0.25 0" in="SourceGraphic"/>
			<feOffset dx="21.21" dy="21.21"/>
			<feGaussianBlur stdDeviation="20" result="blur1"/>
			<feMerge>
				<feMergeNode in="blur0"/>
				<feMergeNode in="blur1"/>
			</feMerge>
		</filter>
	</defs>
	<g fill="none" fill-rule="nonzero" style="mix-blend-mode: normal">
		<g clip-path="url(#clip-41Qs9BdF)">
			<path d="M344.96,839.17h-133.63c-69.83,0 -126.72,-56.89 -126.72,-126.72v-400.9c0,-69.83 56.89,-126.72 126.72,-126.72h601.34c33.08,0 59.9,26.82 59.9,59.9v66.81c0,3.67 -0.33,7.27 -0.96,10.76c38.25,11.69 67.78,48.46 67.78,89.46v334.08c0,49.79 -43.52,93.31 -93.31,93.31h-200.45c-20.56,0 -40.06,-7.42 -55.86,-19.65c-10.96,12.07 -26.78,19.65 -44.36,19.65h-133.63c-12.37,0 -23.86,-3.75 -33.41,-10.17c-9.54,6.42 -21.04,10.17 -33.41,10.17z" fill="#000000" filter="url(#filter-0E0ZDQm6)"/>
		</g>
		<g color="#ffffff" class="teamapps-effect-color-1">
			<path d="M344.96,839.17h-133.63c-69.83,0 -126.72,-56.89 -126.72,-126.72v-400.9c0,-69.83 56.89,-126.72 126.72,-126.72h601.34c33.08,0 59.9,26.82 59.9,59.9v66.81c0,3.67 -0.33,7.27 -0.96,10.76c38.25,11.69 67.78,48.46 67.78,89.46v334.08c0,49.79 -43.52,93.31 -93.31,93.31h-200.45c-20.56,0 -40.06,-7.42 -55.86,-19.65c-10.96,12.07 -26.78,19.65 -44.36,19.65h-133.63c-12.37,0 -23.86,-3.75 -33.41,-10.17c-9.54,6.42 -21.04,10.17 -33.41,10.17z" fill="currentColor"/>
		</g>
		<g>
			<g color="#1565c0" class="teamapps-color-1">
				<path d="M211.33,712.45h133.63v66.81h-133.63c-36.75,0 -66.81,-30.07 -66.81,-66.81v-400.9c0,-36.75 30.07,-66.81 66.81,-66.81h601.34v66.81h-601.34zM879.49,411.78v334.08c0,16.7 -16.7,33.4 -33.4,33.4h-200.45c-16.7,0 -33.41,-16.7 -33.41,-33.4v-334.08c0,-16.7 16.71,-33.41 33.41,-33.41h200.45c16.7,0 33.4,16.71 33.4,33.41zM545.41,571.47c20.38,18.38 33.4,44.76 33.4,74.17c0,29.4 -13.02,55.79 -33.4,74.17v59.46h-133.63v-59.46c-20.38,-18.38 -33.41,-44.44 -33.41,-74.17c0,-29.73 13.03,-55.79 33.41,-74.17v-59.47h133.63zM812.67,445.19h-133.63v267.26h133.63zM528.7,645.63c0,-27.73 -22.39,-50.11 -50.11,-50.11c-27.73,0 -50.11,22.39 -50.11,50.11c0,27.73 22.39,50.11 50.11,50.11c27.73,0 50.11,-22.39 50.11,-50.11z" fill="currentColor"/>
			</g>
		</g>
	</g>
</svg>