<svg version="1.1" xmlns="http://www.w3.org/2000/svg" xmlns:xlink="http://www.w3.org/1999/xlink" viewBox="0,0,1024,1024">
	<!-- Color names: teamapps-color-1, teamapps-effect-color-1 -->
	<desc>directions_boat icon - Licensed under Apache License v2.0 (http://www.apache.org/licenses/LICENSE-2.0) - Created with Iconfu.com - Derivative work of Material icons (Copyright Google Inc.)</desc>
	<defs>
		<clipPath id="clip-hu7Kb13u">
			<path d="M60.29,26.97h963.71v997.03h-963.71z"/>
		</clipPath>
		<filter id="filter-i2l5oTOZ" x="-8%" y="-7%" width="140%" height="132%" color-interpolation-filters="sRGB">
			<feColorMatrix values="1 0 0 0 0 0 1 0 0 0 0 0 1 0 0 0 0 0 0.17 0" in="SourceGraphic"/>
			<feOffset dx="14.14" dy="14.14"/>
			<feGaussianBlur stdDeviation="11" result="blur0"/>
			<feColorMatrix values="1 0 0 0 0 0 1 0 0 0 0 0 1 0 0 0 0 0 0.25 0" in="SourceGraphic"/>
			<feOffset dx="21.21" dy="21.21"/>
			<feGaussianBlur stdDeviation="20" result="blur1"/>
			<feMerge>
				<feMergeNode in="blur0"/>
				<feMergeNode in="blur1"/>
			</feMerge>
		</filter>
	</defs>
	<g fill="none" fill-rule="nonzero" style="mix-blend-mode: normal">
		<g clip-path="url(#clip-hu7Kb13u)">
			<path d="M128.02,469.84c11.64,-23.28 32.23,-39.69 55.43,-46.99l1.39,-0.45v-110.85c0,-69.83 56.89,-126.72 126.72,-126.72h40.32v-40.32c0,-33.08 26.82,-59.9 59.9,-59.9h200.45c33.08,0 59.9,26.82 59.9,59.9v40.32h40.32c69.83,0 126.72,56.89 126.72,126.72v110.95l1.14,0.37c23.17,7.31 43.72,23.71 55.35,46.96c11.05,22.1 12.65,47.08 5.93,69.65l-60.34,213.28h4.85c33.08,0 59.9,26.82 59.9,59.9v66.81c0,33.08 -26.82,59.9 -59.9,59.9h-66.82c-46.06,0 -91.28,-9.34 -133.79,-27.04c-85.72,35.07 -181.38,35.05 -267.09,-0.06c-42.23,17.45 -87.38,27.1 -133.64,27.1h-66.82c-33.08,0 -59.9,-26.82 -59.9,-59.9v-66.81c0,-33.08 26.82,-59.9 59.9,-59.9h4.83l-60.43,-212.49c-7.98,-24.87 -4.46,-50.11 5.7,-70.44z" fill="#000000" filter="url(#filter-i2l5oTOZ)"/>
		</g>
		<g color="#ffffff" class="teamapps-effect-color-1">
			<path d="M128.02,469.84c11.64,-23.28 32.23,-39.69 55.43,-46.99l1.39,-0.45v-110.85c0,-69.83 56.89,-126.72 126.72,-126.72h40.32v-40.32c0,-33.08 26.82,-59.9 59.9,-59.9h200.45c33.08,0 59.9,26.82 59.9,59.9v40.32h40.32c69.83,0 126.72,56.89 126.72,126.72v110.95l1.14,0.37c23.17,7.31 43.72,23.71 55.35,46.96c11.05,22.1 12.65,47.08 5.93,69.65l-60.34,213.28h4.85c33.08,0 59.9,26.82 59.9,59.9v66.81c0,33.08 -26.82,59.9 -59.9,59.9h-66.82c-46.06,0 -91.28,-9.34 -133.79,-27.04c-85.72,35.07 -181.38,35.05 -267.09,-0.06c-42.23,17.45 -87.38,27.1 -133.64,27.1h-66.82c-33.08,0 -59.9,-26.82 -59.9,-59.9v-66.81c0,-33.08 26.82,-59.9 59.9,-59.9h4.83l-60.43,-212.49c-7.98,-24.87 -4.46,-50.11 5.7,-70.44z" fill="currentColor"/>
		</g>
		<g>
			<g color="#1565c0" class="teamapps-color-1">
				<path d="M179.59,522.69c-3.01,-8.68 -2,-18.04 2,-26.06c4.01,-8.02 11.36,-14.03 20.04,-16.7l43.1,-14.03v-154.34c0,-36.75 30.07,-66.81 66.81,-66.81h100.22v-100.22h200.45v100.22h100.22c36.75,0 66.81,30.07 66.81,66.81v154.34l42.77,14.03c8.68,2.67 16.04,8.68 20.04,16.7c4.01,8.02 4.67,17.37 2,26.06l-63.14,223.17h-1.68c-53.46,0 -100.89,-29.4 -133.63,-66.82c-32.74,37.42 -80.18,66.82 -133.63,66.82c-53.46,0 -100.9,-29.4 -133.63,-66.82c-32.74,37.42 -80.17,66.82 -133.63,66.82h-1.68zM846.08,812.67v66.81h-66.82c-46.1,0 -91.53,-11.36 -133.63,-33.07c-84.19,43.1 -183.08,43.1 -267.27,0c-42.09,21.38 -87.52,33.07 -133.63,33.07h-66.82v-66.81h66.82c46.44,0 92.87,-15.7 133.63,-44.1c81.52,57.13 185.75,57.13 267.27,0c40.76,28.4 87.19,44.1 133.63,44.1zM311.55,444.18l200.45,-65.82l200.45,65.82v-132.63h-400.9z" fill="currentColor"/>
			</g>
		</g>
	</g>
</svg>