<svg version="1.1" xmlns="http://www.w3.org/2000/svg" xmlns:xlink="http://www.w3.org/1999/xlink" viewBox="0,0,1024,1024">
	<!-- Color names: teamapps-color-1, teamapps-effect-color-1 -->
	<desc>directions_walk icon - Licensed under Apache License v2.0 (http://www.apache.org/licenses/LICENSE-2.0) - Created with Iconfu.com - Derivative work of Material icons (Copyright Google Inc.)</desc>
	<defs>
		<clipPath id="clip-GrjN4Qek">
			<path d="M194,43.67h740.11v980.33h-740.11z"/>
		</clipPath>
		<filter id="filter-fKreiBU4" x="-11%" y="-7%" width="180%" height="135%" color-interpolation-filters="sRGB">
			<feColorMatrix values="1 0 0 0 0 0 1 0 0 0 0 0 1 0 0 0 0 0 0.17 0" in="SourceGraphic"/>
			<feOffset dx="14.14" dy="14.14"/>
			<feGaussianBlur stdDeviation="11" result="blur0"/>
			<feColorMatrix values="1 0 0 0 0 0 1 0 0 0 0 0 1 0 0 0 0 0 0.25 0" in="SourceGraphic"/>
			<feOffset dx="21.21" dy="21.21"/>
			<feGaussianBlur stdDeviation="20" result="blur1"/>
			<feMerge>
				<feMergeNode in="blur0"/>
				<feMergeNode in="blur1"/>
			</feMerge>
		</filter>
	</defs>
	<g fill="none" fill-rule="nonzero" style="mix-blend-mode: normal">
		<g clip-path="url(#clip-GrjN4Qek)">
			<path d="M311.55,605.31c-33.08,0 -59.9,-26.82 -59.9,-59.9v-157.02c0,-24.07 14.4,-45.79 36.56,-55.17l153.71,-65.03c-4.24,-12.63 -6.53,-26.13 -6.53,-40.16c0,-69.83 56.89,-126.72 126.72,-126.72c69.83,0 126.72,56.89 126.72,126.72c0,43.91 -22.5,82.71 -56.57,105.46l20.73,33.16c0.42,0.67 0.82,1.35 1.22,2.03c15.92,27.86 49.38,49.99 91.65,49.99c33.08,0 59.9,26.82 59.9,59.9v66.82c0,33.08 -26.82,59.9 -59.9,59.9c-29.72,0 -58.55,-4.37 -85.77,-12.41c7.76,10.31 12.04,22.94 12.04,36.02v250.56c0,33.08 -26.82,59.9 -59.9,59.9h-66.81c-33.08,0 -59.9,-26.82 -59.9,-59.9v-39.94l-11.94,53.09c-6.15,27.33 -30.43,46.75 -58.44,46.75h-70.16c-17.93,0 -34.92,-8.03 -46.3,-21.89c-11.38,-13.86 -15.95,-32.09 -12.46,-49.68l52.13,-262.5z" fill="#000000" filter="url(#filter-fKreiBU4)"/>
		</g>
		<g color="#ffffff" class="teamapps-effect-color-1">
			<path d="M311.55,605.31c-33.08,0 -59.9,-26.82 -59.9,-59.9v-157.02c0,-24.07 14.4,-45.79 36.56,-55.17l153.71,-65.03c-4.24,-12.63 -6.53,-26.13 -6.53,-40.16c0,-69.83 56.89,-126.72 126.72,-126.72c69.83,0 126.72,56.89 126.72,126.72c0,43.91 -22.5,82.71 -56.57,105.46l20.73,33.16c0.42,0.67 0.82,1.35 1.22,2.03c15.92,27.86 49.38,49.99 91.65,49.99c33.08,0 59.9,26.82 59.9,59.9v66.82c0,33.08 -26.82,59.9 -59.9,59.9c-29.72,0 -58.55,-4.37 -85.77,-12.41c7.76,10.31 12.04,22.94 12.04,36.02v250.56c0,33.08 -26.82,59.9 -59.9,59.9h-66.81c-33.08,0 -59.9,-26.82 -59.9,-59.9v-39.94l-11.94,53.09c-6.15,27.33 -30.43,46.75 -58.44,46.75h-70.16c-17.93,0 -34.92,-8.03 -46.3,-21.89c-11.38,-13.86 -15.95,-32.09 -12.46,-49.68l52.13,-262.5z" fill="currentColor"/>
		</g>
		<g>
			<g color="#1565c0" class="teamapps-color-1">
				<path d="M438.5,408.43l-60.13,23.39v113.59h-66.81v-157.02l173.72,-73.49c10.02,0 16.7,-3.34 26.72,-3.34c23.39,0 43.43,13.37 56.79,33.41l33.41,53.45c26.72,46.77 80.18,80.18 143.66,80.18v66.82c-73.5,0 -140.31,-33.41 -183.75,-83.52l-20.04,100.22l70.16,66.81v250.56h-66.81v-200.45l-70.16,-66.81l-60.13,267.26h-70.16zM495.3,228.03c0,-36.75 30.07,-66.81 66.81,-66.81c36.75,0 66.81,30.07 66.81,66.81c0,36.75 -30.07,66.82 -66.81,66.82c-36.75,0 -66.81,-30.08 -66.81,-66.82z" fill="currentColor"/>
			</g>
		</g>
	</g>
</svg>