<svg version="1.1" xmlns="http://www.w3.org/2000/svg" xmlns:xlink="http://www.w3.org/1999/xlink" viewBox="0,0,1024,1024">
	<!-- Color names: teamapps-color-1, teamapps-effect-color-1 -->
	<desc>flag icon - Licensed under Apache License v2.0 (http://www.apache.org/licenses/LICENSE-2.0) - Created with Iconfu.com - Derivative work of Material icons (Copyright Google Inc.)</desc>
	<defs>
		<filter id="filter-FCdXLkB8" x="-10%" y="-9%" width="166%" height="155%" color-interpolation-filters="sRGB">
			<feColorMatrix values="1 0 0 0 0 0 1 0 0 0 0 0 1 0 0 0 0 0 0.17 0" in="SourceGraphic"/>
			<feOffset dx="14.14" dy="14.14"/>
			<feGaussianBlur stdDeviation="11" result="blur0"/>
			<feColorMatrix values="1 0 0 0 0 0 1 0 0 0 0 0 1 0 0 0 0 0 0.25 0" in="SourceGraphic"/>
			<feOffset dx="21.21" dy="21.21"/>
			<feGaussianBlur stdDeviation="20" result="blur1"/>
			<feMerge>
				<feMergeNode in="blur0"/>
				<feMergeNode in="blur1"/>
			</feMerge>
		</filter>
	</defs>
	<g fill="none" fill-rule="nonzero" style="mix-blend-mode: normal">
		<path d="M839.17,311.55v334.08c0,33.08 -26.82,59.9 -59.9,59.9h-233.85c-28.55,0 -53.14,-20.15 -58.74,-48.15l-3.73,-18.67h-78.07v173.95c0,33.08 -26.82,59.9 -59.9,59.9h-66.82c-33.08,0 -59.9,-26.82 -59.9,-59.9v-567.93c0,-33.08 26.82,-59.9 59.9,-59.9h300.67c28.55,0 53.14,20.15 58.74,48.15l3.73,18.66h137.97c33.08,0 59.9,26.82 59.9,59.9z" fill="#000000" filter="url(#filter-FCdXLkB8)"/>
		<g color="#ffffff" class="teamapps-effect-color-1">
			<path d="M839.17,311.55v334.08c0,33.08 -26.82,59.9 -59.9,59.9h-233.85c-28.55,0 -53.14,-20.15 -58.74,-48.15l-3.73,-18.67h-78.07v173.95c0,33.08 -26.82,59.9 -59.9,59.9h-66.82c-33.08,0 -59.9,-26.82 -59.9,-59.9v-567.93c0,-33.08 26.82,-59.9 59.9,-59.9h300.67c28.55,0 53.14,20.15 58.74,48.15l3.73,18.66h137.97c33.08,0 59.9,26.82 59.9,59.9z" fill="currentColor"/>
		</g>
		<g>
			<g color="#1565c0" class="teamapps-color-1">
				<path d="M779.26,311.55v334.08h-233.85l-13.37,-66.82h-187.08v233.86h-66.82v-567.93h300.67l13.37,66.81z" fill="currentColor"/>
			</g>
		</g>
	</g>
</svg>