<svg version="1.1" xmlns="http://www.w3.org/2000/svg" xmlns:xlink="http://www.w3.org/1999/xlink" viewBox="0,0,1024,1024">
	<!-- Color names: teamapps-color-1, teamapps-effect-color-1 -->
	<desc>flip icon - Licensed under Apache License v2.0 (http://www.apache.org/licenses/LICENSE-2.0) - Created with Iconfu.com - Derivative work of Material icons (Copyright Google Inc.)</desc>
	<defs>
		<clipPath id="clip-bsKSe8GA">
			<path d="M93.78,26.97h907.15v997.03h-907.15z"/>
		</clipPath>
		<filter id="filter-c1xNJW5E" x="-8%" y="-7%" width="147%" height="132%" color-interpolation-filters="sRGB">
			<feColorMatrix values="1 0 0 0 0 0 1 0 0 0 0 0 1 0 0 0 0 0 0.17 0" in="SourceGraphic"/>
			<feOffset dx="14.14" dy="14.14"/>
			<feGaussianBlur stdDeviation="11" result="blur0"/>
			<feColorMatrix values="1 0 0 0 0 0 1 0 0 0 0 0 1 0 0 0 0 0 0.25 0" in="SourceGraphic"/>
			<feOffset dx="21.21" dy="21.21"/>
			<feGaussianBlur stdDeviation="20" result="blur1"/>
			<feMerge>
				<feMergeNode in="blur0"/>
				<feMergeNode in="blur1"/>
			</feMerge>
		</filter>
	</defs>
	<g fill="none" fill-rule="nonzero" style="mix-blend-mode: normal">
		<g clip-path="url(#clip-bsKSe8GA)">
			<path d="M278.14,151.42h133.63c2.34,0 4.64,0.13 6.91,0.39v-7.3c0,-33.08 26.82,-59.9 59.9,-59.9h66.82c33.08,0 59.9,26.82 59.9,59.9v7.3c2.27,-0.26 4.57,-0.39 6.91,-0.39h66.81c12.37,0 23.87,3.75 33.41,10.18c9.54,-6.43 21.04,-10.18 33.41,-10.18c69.83,0 126.72,56.89 126.72,126.72c0,12.37 -3.75,23.87 -10.18,33.41c6.43,9.54 10.18,21.04 10.18,33.41v66.81c0,12.37 -3.75,23.86 -10.17,33.41c6.42,9.54 10.17,21.04 10.17,33.41v66.82c0,12.37 -3.75,23.86 -10.17,33.41c6.42,9.54 10.17,21.04 10.17,33.41v66.81c0,12.37 -3.75,23.87 -10.18,33.41c6.43,9.54 10.18,21.04 10.18,33.41c0,69.83 -56.89,126.72 -126.72,126.72c-12.37,0 -23.87,-3.75 -33.41,-10.18c-9.54,6.43 -21.04,10.18 -33.41,10.18h-66.81c-2.34,0 -4.64,-0.13 -6.91,-0.39v7.3c0,33.08 -26.82,59.9 -59.9,59.9h-66.82c-33.08,0 -59.9,-26.82 -59.9,-59.9v-7.3c-2.27,0.26 -4.57,0.39 -6.91,0.39h-133.63c-69.83,0 -126.72,-56.89 -126.72,-126.72v-467.72c0,-69.83 56.89,-126.72 126.72,-126.72z" fill="#000000" filter="url(#filter-c1xNJW5E)"/>
		</g>
		<g color="#ffffff" class="teamapps-effect-color-1">
			<path d="M278.14,151.42h133.63c2.34,0 4.64,0.13 6.91,0.39v-7.3c0,-33.08 26.82,-59.9 59.9,-59.9h66.82c33.08,0 59.9,26.82 59.9,59.9v7.3c2.27,-0.26 4.57,-0.39 6.91,-0.39h66.81c12.37,0 23.87,3.75 33.41,10.18c9.54,-6.43 21.04,-10.18 33.41,-10.18c69.83,0 126.72,56.89 126.72,126.72c0,12.37 -3.75,23.87 -10.18,33.41c6.43,9.54 10.18,21.04 10.18,33.41v66.81c0,12.37 -3.75,23.86 -10.17,33.41c6.42,9.54 10.17,21.04 10.17,33.41v66.82c0,12.37 -3.75,23.86 -10.17,33.41c6.42,9.54 10.17,21.04 10.17,33.41v66.81c0,12.37 -3.75,23.87 -10.18,33.41c6.43,9.54 10.18,21.04 10.18,33.41c0,69.83 -56.89,126.72 -126.72,126.72c-12.37,0 -23.87,-3.75 -33.41,-10.18c-9.54,6.43 -21.04,10.18 -33.41,10.18h-66.81c-2.34,0 -4.64,-0.13 -6.91,-0.39v7.3c0,33.08 -26.82,59.9 -59.9,59.9h-66.82c-33.08,0 -59.9,-26.82 -59.9,-59.9v-7.3c-2.27,0.26 -4.57,0.39 -6.91,0.39h-133.63c-69.83,0 -126.72,-56.89 -126.72,-126.72v-467.72c0,-69.83 56.89,-126.72 126.72,-126.72z" fill="currentColor"/>
		</g>
		<g>
			<g color="#1565c0" class="teamapps-color-1">
				<path d="M278.14,211.33h133.63v66.81h-133.63v467.72h133.63v66.81h-133.63c-36.75,0 -66.81,-30.07 -66.81,-66.81v-467.72c0,-36.75 30.07,-66.81 66.81,-66.81zM478.59,144.51h66.82v734.97h-66.82zM745.86,344.96h66.81v66.81h-66.81zM745.86,745.86h66.81c0,36.75 -30.07,66.81 -66.81,66.81zM812.67,278.14h-66.81v-66.81c36.75,0 66.81,30.07 66.81,66.81zM745.86,478.59h66.81v66.82h-66.81zM612.22,745.86h66.81v66.81h-66.81zM745.86,612.22h66.81v66.81h-66.81zM612.22,211.33h66.81v66.81h-66.81z" fill="currentColor"/>
			</g>
		</g>
	</g>
</svg>