<svg version="1.1" xmlns="http://www.w3.org/2000/svg" xmlns:xlink="http://www.w3.org/1999/xlink" viewBox="0,0,1024,1024">
	<!-- Color names: teamapps-color-1, teamapps-effect-color-1 -->
	<desc>flip_to_back icon - Licensed under Apache License v2.0 (http://www.apache.org/licenses/LICENSE-2.0) - Created with Iconfu.com - Derivative work of Material icons (Copyright Google Inc.)</desc>
	<defs>
		<filter id="filter-7hgCFLrP" x="-8%" y="-8%" width="147%" height="147%" color-interpolation-filters="sRGB">
			<feColorMatrix values="1 0 0 0 0 0 1 0 0 0 0 0 1 0 0 0 0 0 0.17 0" in="SourceGraphic"/>
			<feOffset dx="14.14" dy="14.14"/>
			<feGaussianBlur stdDeviation="11" result="blur0"/>
			<feColorMatrix values="1 0 0 0 0 0 1 0 0 0 0 0 1 0 0 0 0 0 0.25 0" in="SourceGraphic"/>
			<feOffset dx="21.21" dy="21.21"/>
			<feGaussianBlur stdDeviation="20" result="blur1"/>
			<feMerge>
				<feMergeNode in="blur0"/>
				<feMergeNode in="blur1"/>
			</feMerge>
		</filter>
	</defs>
	<g fill="none" fill-rule="nonzero" style="mix-blend-mode: normal">
		<path d="M478.59,151.42h66.82c12.37,0 23.86,3.75 33.41,10.17c9.54,-6.42 21.04,-10.17 33.41,-10.17h66.81c12.37,0 23.87,3.75 33.41,10.18c9.54,-6.43 21.04,-10.18 33.41,-10.18c69.83,0 126.72,56.89 126.72,126.72c0,12.37 -3.75,23.87 -10.18,33.41c6.43,9.54 10.18,21.04 10.18,33.41v66.81c0,12.37 -3.75,23.86 -10.17,33.41c6.42,9.54 10.17,21.04 10.17,33.41v66.82c0,12.37 -3.75,23.86 -10.17,33.41c6.42,9.54 10.17,21.04 10.17,33.41c0,69.83 -56.89,126.72 -126.72,126.72c-2.49,0 -4.95,-0.15 -7.37,-0.45c0.3,2.41 0.45,4.87 0.45,7.37v66.81c0,33.08 -26.82,59.9 -59.9,59.9h-400.9c-70.37,0 -126.72,-57.09 -126.72,-126.72v-400.9c0,-33.08 26.82,-59.9 59.9,-59.9h66.81c2.49,0 4.95,0.15 7.37,0.45c-0.3,-2.41 -0.45,-4.87 -0.45,-7.37c0,-69.63 56.35,-126.72 126.72,-126.72c12.37,0 23.86,3.75 33.41,10.17c9.54,-6.42 21.04,-10.17 33.41,-10.17z" fill="#000000" filter="url(#filter-7hgCFLrP)"/>
		<g color="#ffffff" class="teamapps-effect-color-1">
			<path d="M478.59,151.42h66.82c12.37,0 23.86,3.75 33.41,10.17c9.54,-6.42 21.04,-10.17 33.41,-10.17h66.81c12.37,0 23.87,3.75 33.41,10.18c9.54,-6.43 21.04,-10.18 33.41,-10.18c69.83,0 126.72,56.89 126.72,126.72c0,12.37 -3.75,23.87 -10.18,33.41c6.43,9.54 10.18,21.04 10.18,33.41v66.81c0,12.37 -3.75,23.86 -10.17,33.41c6.42,9.54 10.17,21.04 10.17,33.41v66.82c0,12.37 -3.75,23.86 -10.17,33.41c6.42,9.54 10.17,21.04 10.17,33.41c0,69.83 -56.89,126.72 -126.72,126.72c-2.49,0 -4.95,-0.15 -7.37,-0.45c0.3,2.41 0.45,4.87 0.45,7.37v66.81c0,33.08 -26.82,59.9 -59.9,59.9h-400.9c-70.37,0 -126.72,-57.09 -126.72,-126.72v-400.9c0,-33.08 26.82,-59.9 59.9,-59.9h66.81c2.49,0 4.95,0.15 7.37,0.45c-0.3,-2.41 -0.45,-4.87 -0.45,-7.37c0,-69.63 56.35,-126.72 126.72,-126.72c12.37,0 23.86,3.75 33.41,10.17c9.54,-6.42 21.04,-10.17 33.41,-10.17z" fill="currentColor"/>
		</g>
		<g>
			<g color="#1565c0" class="teamapps-color-1">
				<path d="M278.14,745.86h400.9v66.81h-400.9c-37.08,0 -66.81,-30.07 -66.81,-66.81v-400.9h66.81zM411.78,411.78h-66.81v-66.81h66.81zM745.86,344.96h66.81v66.81h-66.81zM411.78,545.41h-66.81v-66.82h66.81zM411.78,278.14h-66.81c0,-36.75 29.73,-66.81 66.81,-66.81zM812.67,278.14h-66.81v-66.81c36.75,0 66.81,30.07 66.81,66.81zM745.86,478.59h66.81v66.82h-66.81zM545.41,278.14h-66.82v-66.81h66.82zM344.96,612.22h66.81v66.81c-37.08,0 -66.81,-30.07 -66.81,-66.81zM745.86,612.22h66.81c0,36.75 -30.07,66.81 -66.81,66.81zM545.41,679.04h-66.82v-66.81h66.82zM612.22,211.33h66.81v66.81h-66.81zM612.22,612.22h66.81v66.81h-66.81z" fill="currentColor"/>
			</g>
		</g>
	</g>
</svg>