<svg version="1.1" xmlns="http://www.w3.org/2000/svg" xmlns:xlink="http://www.w3.org/1999/xlink" viewBox="0,0,1024,1024">
	<!-- Color names: teamapps-color-1, teamapps-effect-color-1 -->
	<desc>font_download icon - Licensed under Apache License v2.0 (http://www.apache.org/licenses/LICENSE-2.0) - Created with Iconfu.com - Derivative work of Material icons (Copyright Google Inc.)</desc>
	<defs>
		<clipPath id="clip-mnYacIE4">
			<path d="M60.37,60.37h963.63v963.63h-963.63z"/>
		</clipPath>
		<filter id="filter-Iy9Ronp7" x="-8%" y="-8%" width="140%" height="140%" color-interpolation-filters="sRGB">
			<feColorMatrix values="1 0 0 0 0 0 1 0 0 0 0 0 1 0 0 0 0 0 0.17 0" in="SourceGraphic"/>
			<feOffset dx="14.14" dy="14.14"/>
			<feGaussianBlur stdDeviation="11" result="blur0"/>
			<feColorMatrix values="1 0 0 0 0 0 1 0 0 0 0 0 1 0 0 0 0 0 0.25 0" in="SourceGraphic"/>
			<feOffset dx="21.21" dy="21.21"/>
			<feGaussianBlur stdDeviation="20" result="blur1"/>
			<feMerge>
				<feMergeNode in="blur0"/>
				<feMergeNode in="blur1"/>
			</feMerge>
		</filter>
	</defs>
	<g fill="none" fill-rule="nonzero" style="mix-blend-mode: normal">
		<g clip-path="url(#clip-mnYacIE4)">
			<path d="M905.99,244.74v534.52c0,69.83 -56.89,126.73 -126.73,126.73h-534.52c-69.83,0 -126.73,-56.89 -126.73,-126.73v-534.52c0,-69.83 56.89,-126.73 126.73,-126.73h534.52c69.83,0 126.73,56.89 126.73,126.73z" fill="#000000" filter="url(#filter-Iy9Ronp7)"/>
		</g>
		<g color="#ffffff" class="teamapps-effect-color-1">
			<path d="M905.99,244.74v534.52c0,69.83 -56.89,126.73 -126.73,126.73h-534.52c-69.83,0 -126.73,-56.89 -126.73,-126.73v-534.52c0,-69.83 56.89,-126.73 126.73,-126.73h534.52c69.83,0 126.73,56.89 126.73,126.73z" fill="currentColor"/>
		</g>
		<g>
			<g color="#1565c0" class="teamapps-color-1">
				<path d="M846.08,244.74v534.52c0,36.75 -30.08,66.82 -66.82,66.82h-534.52c-36.75,0 -66.82,-30.08 -66.82,-66.82v-534.52c0,-36.75 30.08,-66.82 66.82,-66.82h534.52c36.75,0 66.82,30.08 66.82,66.82zM713.79,729.15l-170.72,-434.3h-62.14l-170.72,434.3h69.83l37.41,-100.22h188.42l38.09,100.22zM512,377.7l69.15,184.41h-138.31z" fill="currentColor"/>
			</g>
		</g>
	</g>
</svg>