<svg version="1.1" xmlns="http://www.w3.org/2000/svg" xmlns:xlink="http://www.w3.org/1999/xlink" viewBox="0,0,1024,1024">
	<!-- Color names: teamapps-color-1, teamapps-effect-color-1 -->
	<desc>format_line_spacing icon - Licensed under Apache License v2.0 (http://www.apache.org/licenses/LICENSE-2.0) - Created with Iconfu.com - Derivative work of Material icons (Copyright Google Inc.)</desc>
	<defs>
		<clipPath id="clip-x2JY2sjM">
			<path d="M43.67,984.23v-873.75h980.33v873.75z"/>
		</clipPath>
		<filter id="filter-YwyUzahm" x="-8%" y="-9%" width="137%" height="153%" color-interpolation-filters="sRGB">
			<feColorMatrix values="1 0 0 0 0 0 1 0 0 0 0 0 1 0 0 0 0 0 0.17 0" in="SourceGraphic"/>
			<feOffset dx="14.14" dy="14.14"/>
			<feGaussianBlur stdDeviation="11" result="blur0"/>
			<feColorMatrix values="1 0 0 0 0 0 1 0 0 0 0 0 1 0 0 0 0 0 0.25 0" in="SourceGraphic"/>
			<feOffset dx="21.21" dy="21.21"/>
			<feGaussianBlur stdDeviation="20" result="blur1"/>
			<feMerge>
				<feMergeNode in="blur0"/>
				<feMergeNode in="blur1"/>
			</feMerge>
		</filter>
	</defs>
	<g fill="none" fill-rule="nonzero" style="mix-blend-mode: normal">
		<g clip-path="url(#clip-x2JY2sjM)">
			<path d="M371.46,619.13h23.62c8.83,0 17.34,1.94 25.04,5.48c7.63,-3.52 16.12,-5.48 25.07,-5.48h400.9c33.08,0 59.9,26.82 59.9,59.9v66.82c0,33.08 -26.82,59.9 -59.9,59.9h-400.9c-24.9,0 -46.26,-15.2 -55.3,-36.82l-69.39,69.39c-23.39,23.39 -61.32,23.39 -84.72,0l-116.93,-116.93c-17.13,-17.13 -22.26,-42.9 -12.98,-65.28c9.27,-22.38 31.12,-36.98 55.34,-36.98h23.62v-214.27h-23.62c-24.23,0 -46.07,-14.59 -55.34,-36.98c-9.27,-22.38 -4.15,-48.15 12.98,-65.28l116.93,-116.93c23.39,-23.4 61.32,-23.4 84.72,0l69.39,69.39c9.04,-21.63 30.39,-36.82 55.3,-36.82h400.9c33.08,0 59.9,26.82 59.9,59.9v66.82c0,33.08 -26.82,59.9 -59.9,59.9h-400.9c-8.95,0 -17.44,-1.96 -25.07,-5.48c-7.7,3.55 -16.21,5.48 -25.04,5.48h-23.62zM445.19,418.69h400.9c33.08,0 59.9,26.82 59.9,59.9v66.82c0,33.08 -26.82,59.9 -59.9,59.9h-400.9c-33.08,0 -59.9,-26.82 -59.9,-59.9v-66.82c0,-33.08 26.82,-59.9 59.9,-59.9z" fill="#000000" filter="url(#filter-YwyUzahm)"/>
		</g>
		<g color="#ffffff" class="teamapps-effect-color-1">
			<path d="M371.46,619.13h23.62c8.83,0 17.34,1.94 25.04,5.48c7.63,-3.52 16.12,-5.48 25.07,-5.48h400.9c33.08,0 59.9,26.82 59.9,59.9v66.82c0,33.08 -26.82,59.9 -59.9,59.9h-400.9c-24.9,0 -46.26,-15.2 -55.3,-36.82l-69.39,69.39c-23.39,23.39 -61.32,23.39 -84.72,0l-116.93,-116.93c-17.13,-17.13 -22.26,-42.9 -12.98,-65.28c9.27,-22.38 31.12,-36.98 55.34,-36.98h23.62v-214.27h-23.62c-24.23,0 -46.07,-14.59 -55.34,-36.98c-9.27,-22.38 -4.15,-48.15 12.98,-65.28l116.93,-116.93c23.39,-23.4 61.32,-23.4 84.72,0l69.39,69.39c9.04,-21.63 30.39,-36.82 55.3,-36.82h400.9c33.08,0 59.9,26.82 59.9,59.9v66.82c0,33.08 -26.82,59.9 -59.9,59.9h-400.9c-8.95,0 -17.44,-1.96 -25.07,-5.48c-7.7,3.55 -16.21,5.48 -25.04,5.48h-23.62zM445.19,418.69h400.9c33.08,0 59.9,26.82 59.9,59.9v66.82c0,33.08 -26.82,59.9 -59.9,59.9h-400.9c-33.08,0 -59.9,-26.82 -59.9,-59.9v-66.82c0,-33.08 26.82,-59.9 59.9,-59.9z" fill="currentColor"/>
		</g>
		<g>
			<g color="#1565c0" class="teamapps-color-1">
				<path d="M311.55,679.04h83.52l-116.93,116.93l-116.93,-116.93h83.52v-334.07h-83.52l116.93,-116.93l116.93,116.93h-83.52zM445.19,679.04h400.9v66.82h-400.9zM846.08,278.14v66.82h-400.9v-66.82zM445.19,478.59h400.9v66.82h-400.9z" fill="currentColor"/>
			</g>
		</g>
	</g>
</svg>