<svg version="1.1" xmlns="http://www.w3.org/2000/svg" xmlns:xlink="http://www.w3.org/1999/xlink" viewBox="0,0,1024,1024">
	<!-- Color names: teamapps-color-1, teamapps-effect-color-1 -->
	<desc>format_list_numbered icon - Licensed under Apache License v2.0 (http://www.apache.org/licenses/LICENSE-2.0) - Created with Iconfu.com - Derivative work of Material icons (Copyright Google Inc.)</desc>
	<defs>
		<filter id="filter-YOplanqN" x="-8%" y="-9%" width="141%" height="157%" color-interpolation-filters="sRGB">
			<feColorMatrix values="1 0 0 0 0 0 1 0 0 0 0 0 1 0 0 0 0 0 0.17 0" in="SourceGraphic"/>
			<feOffset dx="14.14" dy="14.14"/>
			<feGaussianBlur stdDeviation="11" result="blur0"/>
			<feColorMatrix values="1 0 0 0 0 0 1 0 0 0 0 0 1 0 0 0 0 0 0.25 0" in="SourceGraphic"/>
			<feOffset dx="21.21" dy="21.21"/>
			<feGaussianBlur stdDeviation="20" result="blur1"/>
			<feMerge>
				<feMergeNode in="blur0"/>
				<feMergeNode in="blur1"/>
			</feMerge>
		</filter>
	</defs>
	<g fill="none" fill-rule="nonzero" style="mix-blend-mode: normal">
		<path d="M344.96,619.13h467.71c33.08,0 59.9,26.82 59.9,59.9v66.82c0,33.08 -26.82,59.9 -59.9,59.9h-467.71c-4.27,0 -8.44,-0.45 -12.46,-1.3c-9.52,20.49 -30.28,34.7 -54.36,34.7h-100.22c-33.08,0 -59.9,-26.82 -59.9,-59.9v-33.4c0,-12.37 3.75,-23.87 10.18,-33.41c-6.43,-9.54 -10.18,-21.04 -10.18,-33.41v-33.4c0,-12.37 3.75,-23.87 10.18,-33.41c-6.43,-9.54 -10.18,-21.04 -10.18,-33.41v-30.07c0,-12.63 3.99,-24.9 11.34,-35.07c-7.14,-9.86 -11.34,-21.98 -11.34,-35.08v-33.4c0,-24.08 14.21,-44.85 34.71,-54.36c-0.85,-4.02 -1.3,-8.19 -1.3,-12.46v-46.48c-19.8,-9.78 -33.41,-30.17 -33.41,-53.74v-33.4c0,-33.08 26.82,-59.9 59.9,-59.9h66.82c29.64,0 54.25,21.52 59.05,49.79c10.73,-10.16 25.22,-16.39 41.17,-16.39h467.71c33.08,0 59.9,26.82 59.9,59.9v66.82c0,33.08 -26.82,59.9 -59.9,59.9h-467.71c-15.95,0 -30.44,-6.23 -41.17,-16.39c-0.13,0.79 -0.28,1.57 -0.45,2.35c12.83,5.96 23.2,16.33 29.16,29.16c4.02,-0.85 8.19,-1.3 12.46,-1.3h467.71c33.08,0 59.9,26.82 59.9,59.9v66.82c0,33.08 -26.82,59.9 -59.9,59.9h-467.71c-4.27,0 -8.44,-0.45 -12.46,-1.3c-1.33,2.87 -2.88,5.61 -4.63,8.21c1.75,2.6 3.3,5.34 4.63,8.21c4.02,-0.85 8.19,-1.3 12.46,-1.3z" fill="#000000" filter="url(#filter-YOplanqN)"/>
		<g color="#ffffff" class="teamapps-effect-color-1">
			<path d="M344.96,619.13h467.71c33.08,0 59.9,26.82 59.9,59.9v66.82c0,33.08 -26.82,59.9 -59.9,59.9h-467.71c-4.27,0 -8.44,-0.45 -12.46,-1.3c-9.52,20.49 -30.28,34.7 -54.36,34.7h-100.22c-33.08,0 -59.9,-26.82 -59.9,-59.9v-33.4c0,-12.37 3.75,-23.87 10.18,-33.41c-6.43,-9.54 -10.18,-21.04 -10.18,-33.41v-33.4c0,-12.37 3.75,-23.87 10.18,-33.41c-6.43,-9.54 -10.18,-21.04 -10.18,-33.41v-30.07c0,-12.63 3.99,-24.9 11.34,-35.07c-7.14,-9.86 -11.34,-21.98 -11.34,-35.08v-33.4c0,-24.08 14.21,-44.85 34.71,-54.36c-0.85,-4.02 -1.3,-8.19 -1.3,-12.46v-46.48c-19.8,-9.78 -33.41,-30.17 -33.41,-53.74v-33.4c0,-33.08 26.82,-59.9 59.9,-59.9h66.82c29.64,0 54.25,21.52 59.05,49.79c10.73,-10.16 25.22,-16.39 41.17,-16.39h467.71c33.08,0 59.9,26.82 59.9,59.9v66.82c0,33.08 -26.82,59.9 -59.9,59.9h-467.71c-15.95,0 -30.44,-6.23 -41.17,-16.39c-0.13,0.79 -0.28,1.57 -0.45,2.35c12.83,5.96 23.2,16.33 29.16,29.16c4.02,-0.85 8.19,-1.3 12.46,-1.3h467.71c33.08,0 59.9,26.82 59.9,59.9v66.82c0,33.08 -26.82,59.9 -59.9,59.9h-467.71c-4.27,0 -8.44,-0.45 -12.46,-1.3c-1.33,2.87 -2.88,5.61 -4.63,8.21c1.75,2.6 3.3,5.34 4.63,8.21c4.02,-0.85 8.19,-1.3 12.46,-1.3z" fill="currentColor"/>
		</g>
		<g>
			<g color="#1565c0" class="teamapps-color-1">
				<path d="M344.96,679.04h467.71v66.82h-467.71zM812.67,278.14v66.82h-467.71v-66.82zM344.96,478.59h467.71v66.82h-467.71zM177.92,645.63h100.22v133.63h-100.22v-33.4h66.82v-16.71h-33.41v-33.4h33.41v-16.71h-66.82zM177.92,445.19h100.22v30.07l-60.13,70.16h60.13v33.4h-100.22v-30.07l60.13,-70.16h-60.13zM211.33,278.14h-33.41v-33.4h66.82v133.63h-33.41z" fill="currentColor"/>
			</g>
		</g>
	</g>
</svg>