<svg version="1.1" xmlns="http://www.w3.org/2000/svg" xmlns:xlink="http://www.w3.org/1999/xlink" viewBox="0,0,1024,1024">
	<!-- Color names: teamapps-color-1, teamapps-effect-color-1 -->
	<desc>format_clear icon - Licensed under Apache License v2.0 (http://www.apache.org/licenses/LICENSE-2.0) - Created with Iconfu.com - Derivative work of Material icons (Copyright Google Inc.)</desc>
	<defs>
		<filter id="filter-A3lNW1G0" x="-8%" y="-9%" width="143%" height="162%" color-interpolation-filters="sRGB">
			<feColorMatrix values="1 0 0 0 0 0 1 0 0 0 0 0 1 0 0 0 0 0 0.17 0" in="SourceGraphic"/>
			<feOffset dx="14.14" dy="14.14"/>
			<feGaussianBlur stdDeviation="11" result="blur0"/>
			<feColorMatrix values="1 0 0 0 0 0 1 0 0 0 0 0 1 0 0 0 0 0 0.25 0" in="SourceGraphic"/>
			<feOffset dx="21.21" dy="21.21"/>
			<feGaussianBlur stdDeviation="20" result="blur1"/>
			<feMerge>
				<feMergeNode in="blur0"/>
				<feMergeNode in="blur1"/>
			</feMerge>
		</filter>
	</defs>
	<g fill="none" fill-rule="nonzero" style="mix-blend-mode: normal">
		<path d="M754.82,727.9c23.38,23.4 23.37,61.31 -0.01,84.7l-42.43,42.43c-23.39,23.39 -61.32,23.39 -84.72,0l-126.55,-126.55l-17.58,40.99c-9.44,22.02 -31.1,36.29 -55.05,36.29h-100.22c-20.14,0 -38.93,-10.12 -50.01,-26.93c-11.08,-16.81 -12.98,-38.07 -5.04,-56.58l66.53,-155.15l-204.17,-204.17c-23.39,-23.39 -23.39,-61.32 0,-84.72l42.43,-42.43c23.09,-23.09 60.42,-23.43 83.93,-0.77l4.21,4.06c10.99,-12.76 27.26,-20.84 45.42,-20.84h467.71c33.08,0 59.9,26.82 59.9,59.9v100.22c0,33.08 -26.82,59.9 -59.9,59.9h-153.83l-38.27,89.85c-3.08,7.23 -7.5,13.68 -12.93,19.06z" fill="#000000" filter="url(#filter-A3lNW1G0)"/>
		<g color="#ffffff" class="teamapps-effect-color-1">
			<path d="M754.82,727.9c23.38,23.4 23.37,61.31 -0.01,84.7l-42.43,42.43c-23.39,23.39 -61.32,23.39 -84.72,0l-126.55,-126.55l-17.58,40.99c-9.44,22.02 -31.1,36.29 -55.05,36.29h-100.22c-20.14,0 -38.93,-10.12 -50.01,-26.93c-11.08,-16.81 -12.98,-38.07 -5.04,-56.58l66.53,-155.15l-204.17,-204.17c-23.39,-23.39 -23.39,-61.32 0,-84.72l42.43,-42.43c23.09,-23.09 60.42,-23.43 83.93,-0.77l4.21,4.06c10.99,-12.76 27.26,-20.84 45.42,-20.84h467.71c33.08,0 59.9,26.82 59.9,59.9v100.22c0,33.08 -26.82,59.9 -59.9,59.9h-153.83l-38.27,89.85c-3.08,7.23 -7.5,13.68 -12.93,19.06z" fill="currentColor"/>
		</g>
		<g>
			<g color="#1565c0" class="teamapps-color-1">
				<path d="M229.71,287.16l482.74,483.08l-42.43,42.43l-189.09,-189.09l-52.45,122.27h-100.22l82.52,-192.43l-232.86,-232.86l42.43,-42.43zM779.26,278.14v100.22h-193.43l-53.78,126.28l-70.16,-70.16l24.05,-56.13h-80.18l-94.21,-94.21v-6.01z" fill="currentColor"/>
			</g>
		</g>
	</g>
</svg>