<svg version="1.1" xmlns="http://www.w3.org/2000/svg" xmlns:xlink="http://www.w3.org/1999/xlink" viewBox="0,0,1024,1024">
	<!-- Color names: teamapps-color-1, teamapps-effect-color-1 -->
	<desc>format_paint icon - Licensed under Apache License v2.0 (http://www.apache.org/licenses/LICENSE-2.0) - Created with Iconfu.com - Derivative work of Material icons (Copyright Google Inc.)</desc>
	<defs>
		<clipPath id="clip-Wo8N0cTC">
			<path d="M127.19,60.37h873.74v963.63h-873.74z"/>
		</clipPath>
		<filter id="filter-LelO4Ent" x="-9%" y="-8%" width="155%" height="140%" color-interpolation-filters="sRGB">
			<feColorMatrix values="1 0 0 0 0 0 1 0 0 0 0 0 1 0 0 0 0 0 0.17 0" in="SourceGraphic"/>
			<feOffset dx="14.14" dy="14.14"/>
			<feGaussianBlur stdDeviation="11" result="blur0"/>
			<feColorMatrix values="1 0 0 0 0 0 1 0 0 0 0 0 1 0 0 0 0 0 0.25 0" in="SourceGraphic"/>
			<feOffset dx="21.21" dy="21.21"/>
			<feGaussianBlur stdDeviation="20" result="blur1"/>
			<feMerge>
				<feMergeNode in="blur0"/>
				<feMergeNode in="blur1"/>
			</feMerge>
		</filter>
	</defs>
	<g fill="none" fill-rule="nonzero" style="mix-blend-mode: normal">
		<g clip-path="url(#clip-Wo8N0cTC)">
			<path d="M872.58,244.74v267.26c0,33.08 -26.82,59.9 -59.9,59.9h-207.36v240.77c0,51.46 -41.85,93.31 -93.31,93.31h-66.81c-51.46,0 -93.31,-41.85 -93.31,-93.31v-367.49c0,-2.34 0.13,-4.65 0.4,-6.92h-74.13c-51.46,0 -93.31,-41.85 -93.31,-93.31v-133.63c0,-51.44 41.83,-93.31 93.31,-93.31h400.9c42.26,0 78.04,28.23 89.49,66.82h44.15c33.08,0 59.9,26.82 59.9,59.9z" fill="#000000" filter="url(#filter-LelO4Ent)"/>
		</g>
		<g color="#ffffff" class="teamapps-effect-color-1">
			<path d="M872.58,244.74v267.26c0,33.08 -26.82,59.9 -59.9,59.9h-207.36v240.77c0,51.46 -41.85,93.31 -93.31,93.31h-66.81c-51.46,0 -93.31,-41.85 -93.31,-93.31v-367.49c0,-2.34 0.13,-4.65 0.4,-6.92h-74.13c-51.46,0 -93.31,-41.85 -93.31,-93.31v-133.63c0,-51.44 41.83,-93.31 93.31,-93.31h400.9c42.26,0 78.04,28.23 89.49,66.82h44.15c33.08,0 59.9,26.82 59.9,59.9z" fill="currentColor"/>
		</g>
		<g>
			<g color="#1565c0" class="teamapps-color-1">
				<path d="M812.67,244.74v267.26h-267.26v300.67c0,18.38 -15.03,33.41 -33.41,33.41h-66.81c-18.38,0 -33.41,-15.03 -33.41,-33.41v-367.49h334.08v-133.63h-33.41v33.41c0,18.38 -15.03,33.4 -33.41,33.4h-400.9c-18.38,0 -33.4,-15.03 -33.4,-33.4v-133.63c0,-18.38 15.03,-33.41 33.4,-33.41h400.9c18.38,0 33.41,15.03 33.41,33.41v33.41z" fill="currentColor"/>
			</g>
		</g>
	</g>
</svg>