<svg version="1.1" xmlns="http://www.w3.org/2000/svg" xmlns:xlink="http://www.w3.org/1999/xlink" viewBox="0,0,1024,1024">
	<!-- Color names: teamapps-color-1, teamapps-effect-color-1 -->
	<desc>format_color_reset icon - Licensed under Apache License v2.0 (http://www.apache.org/licenses/LICENSE-2.0) - Created with Iconfu.com - Derivative work of Material icons (Copyright Google Inc.)</desc>
	<defs>
		<filter id="filter-GSX1NfZD" x="-9%" y="-9%" width="158%" height="149%" color-interpolation-filters="sRGB">
			<feColorMatrix values="1 0 0 0 0 0 1 0 0 0 0 0 1 0 0 0 0 0 0.17 0" in="SourceGraphic"/>
			<feOffset dx="14.14" dy="14.14"/>
			<feGaussianBlur stdDeviation="11" result="blur0"/>
			<feColorMatrix values="1 0 0 0 0 0 1 0 0 0 0 0 1 0 0 0 0 0 0.25 0" in="SourceGraphic"/>
			<feOffset dx="21.21" dy="21.21"/>
			<feGaussianBlur stdDeviation="20" result="blur1"/>
			<feMerge>
				<feMergeNode in="blur0"/>
				<feMergeNode in="blur1"/>
			</feMerge>
		</filter>
	</defs>
	<g fill="none" fill-rule="nonzero" style="mix-blend-mode: normal">
		<path d="M816.95,816.95l-42.43,42.43c-23.39,23.39 -61.33,23.39 -84.72,0l-52.5,-52.5c-37.08,20.48 -79.73,32.29 -125.3,32.29c-143.67,0 -260.35,-116.68 -260.35,-260.35c0,-41.56 13.53,-85.4 31.44,-125.82l-80.7,-80.7c-23.33,-23.33 -23.4,-61.12 -0.17,-84.55l42.42,-42.77c23.37,-23.56 61.43,-23.63 84.89,-0.17l48.08,48.08c46.36,-65.53 88.8,-113.73 89.45,-114.47c11.37,-12.9 27.73,-20.3 44.93,-20.31c17.2,-0.01 33.57,7.38 44.94,20.27c0,0 215.43,244.16 215.43,400.44c0,19.45 -2.16,38.36 -6,56.32c-2.49,11.61 -8.3,21.98 -16.45,30.04l67.05,67.05c23.39,23.39 23.39,61.32 0,84.72z" fill="#000000" filter="url(#filter-GSX1NfZD)"/>
		<g color="#ffffff" class="teamapps-effect-color-1">
			<path d="M816.95,816.95l-42.43,42.43c-23.39,23.39 -61.33,23.39 -84.72,0l-52.5,-52.5c-37.08,20.48 -79.73,32.29 -125.3,32.29c-143.67,0 -260.35,-116.68 -260.35,-260.35c0,-41.56 13.53,-85.4 31.44,-125.82l-80.7,-80.7c-23.33,-23.33 -23.4,-61.12 -0.17,-84.55l42.42,-42.77c23.37,-23.56 61.43,-23.63 84.89,-0.17l48.08,48.08c46.36,-65.53 88.8,-113.73 89.45,-114.47c11.37,-12.9 27.73,-20.3 44.93,-20.31c17.2,-0.01 33.57,7.38 44.94,20.27c0,0 215.43,244.16 215.43,400.44c0,19.45 -2.16,38.36 -6,56.32c-2.49,11.61 -8.3,21.98 -16.45,30.04l67.05,67.05c23.39,23.39 23.39,61.32 0,84.72z" fill="currentColor"/>
		</g>
		<g>
			<g color="#1565c0" class="teamapps-color-1">
				<path d="M774.59,774.59l-42.43,42.43l-87.86,-87.87c-35.42,31.07 -81.52,50.11 -132.3,50.11c-110.58,0 -200.45,-89.86 -200.45,-200.45c0,-40.43 18.38,-89.53 44.1,-137.97l-110.91,-110.91l42.42,-42.77zM707.77,622.58l-286.98,-286.98c46.77,-67.15 91.2,-117.6 91.2,-117.6c0,0 200.45,227.17 200.45,360.81c0,15.03 -1.67,29.74 -4.67,43.77z" fill="currentColor"/>
			</g>
		</g>
	</g>
</svg>