<svg version="1.1" xmlns="http://www.w3.org/2000/svg" xmlns:xlink="http://www.w3.org/1999/xlink" viewBox="0,0,1024,1024">
	<!-- Color names: teamapps-color-1, teamapps-effect-color-1 -->
	<desc>format_align_center icon - Licensed under Apache License v2.0 (http://www.apache.org/licenses/LICENSE-2.0) - Created with Iconfu.com - Derivative work of Material icons (Copyright Google Inc.)</desc>
	<defs>
		<filter id="filter-bqh2JRtF" x="-8%" y="-8%" width="147%" height="147%" color-interpolation-filters="sRGB">
			<feColorMatrix values="1 0 0 0 0 0 1 0 0 0 0 0 1 0 0 0 0 0 0.17 0" in="SourceGraphic"/>
			<feOffset dx="14.14" dy="14.14"/>
			<feGaussianBlur stdDeviation="11" result="blur0"/>
			<feColorMatrix values="1 0 0 0 0 0 1 0 0 0 0 0 1 0 0 0 0 0 0.25 0" in="SourceGraphic"/>
			<feOffset dx="21.21" dy="21.21"/>
			<feGaussianBlur stdDeviation="20" result="blur1"/>
			<feMerge>
				<feMergeNode in="blur0"/>
				<feMergeNode in="blur1"/>
			</feMerge>
		</filter>
	</defs>
	<g fill="none" fill-rule="nonzero" style="mix-blend-mode: normal">
		<path d="M211.33,418.69h74.12c-0.26,-2.27 -0.39,-4.57 -0.39,-6.91v-66.81c0,-2.34 0.13,-4.65 0.4,-6.92h-74.13c-33.08,0 -59.9,-26.82 -59.9,-59.9v-66.81c0,-33.08 26.82,-59.9 59.9,-59.9h601.34c33.08,0 59.9,26.82 59.9,59.9v66.81c0,33.08 -26.82,59.9 -59.9,59.9h-74.13c0.26,2.27 0.4,4.58 0.4,6.92v66.81c0,2.34 -0.13,4.64 -0.39,6.91h74.12c33.08,0 59.9,26.82 59.9,59.9v66.82c0,33.08 -26.82,59.9 -59.9,59.9h-74.12c0.26,2.27 0.39,4.57 0.39,6.91v66.81c0,2.34 -0.13,4.65 -0.4,6.92h74.13c33.08,0 59.9,26.82 59.9,59.9v66.81c0,33.08 -26.82,59.9 -59.9,59.9h-601.34c-33.08,0 -59.9,-26.82 -59.9,-59.9v-66.81c0,-33.08 26.82,-59.9 59.9,-59.9h74.13c-0.26,-2.27 -0.4,-4.58 -0.4,-6.92v-66.81c0,-2.34 0.13,-4.64 0.39,-6.91h-74.12c-33.08,0 -59.9,-26.82 -59.9,-59.9v-66.82c0,-33.08 26.82,-59.9 59.9,-59.9z" fill="#000000" filter="url(#filter-bqh2JRtF)"/>
		<g color="#ffffff" class="teamapps-effect-color-1">
			<path d="M211.33,418.69h74.12c-0.26,-2.27 -0.39,-4.57 -0.39,-6.91v-66.81c0,-2.34 0.13,-4.65 0.4,-6.92h-74.13c-33.08,0 -59.9,-26.82 -59.9,-59.9v-66.81c0,-33.08 26.82,-59.9 59.9,-59.9h601.34c33.08,0 59.9,26.82 59.9,59.9v66.81c0,33.08 -26.82,59.9 -59.9,59.9h-74.13c0.26,2.27 0.4,4.58 0.4,6.92v66.81c0,2.34 -0.13,4.64 -0.39,6.91h74.12c33.08,0 59.9,26.82 59.9,59.9v66.82c0,33.08 -26.82,59.9 -59.9,59.9h-74.12c0.26,2.27 0.39,4.57 0.39,6.91v66.81c0,2.34 -0.13,4.65 -0.4,6.92h74.13c33.08,0 59.9,26.82 59.9,59.9v66.81c0,33.08 -26.82,59.9 -59.9,59.9h-601.34c-33.08,0 -59.9,-26.82 -59.9,-59.9v-66.81c0,-33.08 26.82,-59.9 59.9,-59.9h74.13c-0.26,-2.27 -0.4,-4.58 -0.4,-6.92v-66.81c0,-2.34 0.13,-4.64 0.39,-6.91h-74.12c-33.08,0 -59.9,-26.82 -59.9,-59.9v-66.82c0,-33.08 26.82,-59.9 59.9,-59.9z" fill="currentColor"/>
		</g>
		<g>
			<g color="#1565c0" class="teamapps-color-1">
				<path d="M211.33,745.86h601.34v66.81h-601.34zM211.33,478.59h601.34v66.82h-601.34zM812.67,211.33v66.81h-601.34v-66.81zM679.04,344.96v66.81h-334.07v-66.81zM679.04,612.22v66.81h-334.07v-66.81z" fill="currentColor"/>
			</g>
		</g>
	</g>
</svg>