<svg version="1.1" xmlns="http://www.w3.org/2000/svg" xmlns:xlink="http://www.w3.org/1999/xlink" viewBox="0,0,1024,1024">
	<!-- Color names: teamapps-color-1, teamapps-effect-color-1 -->
	<desc>forward_10 icon - Licensed under Apache License v2.0 (http://www.apache.org/licenses/LICENSE-2.0) - Created with Iconfu.com - Derivative work of Material icons (Copyright Google Inc.)</desc>
	<defs>
		<filter id="filter-t8vf5aEh" x="-9%" y="-8%" width="157%" height="136%" color-interpolation-filters="sRGB">
			<feColorMatrix values="1 0 0 0 0 0 1 0 0 0 0 0 1 0 0 0 0 0 0.17 0" in="SourceGraphic"/>
			<feOffset dx="14.14" dy="14.14"/>
			<feGaussianBlur stdDeviation="11" result="blur0"/>
			<feColorMatrix values="1 0 0 0 0 0 1 0 0 0 0 0 1 0 0 0 0 0 0.25 0" in="SourceGraphic"/>
			<feOffset dx="21.21" dy="21.21"/>
			<feGaussianBlur stdDeviation="20" result="blur1"/>
			<feMerge>
				<feMergeNode in="blur0"/>
				<feMergeNode in="blur1"/>
			</feMerge>
		</filter>
	</defs>
	<g fill="none" fill-rule="nonzero" style="mix-blend-mode: normal">
		<path d="M452.1,144.51c0,-24.23 14.6,-46.07 36.98,-55.34c22.38,-9.27 48.15,-4.15 65.28,12.99l167.04,167.04c23.39,23.39 23.39,61.32 0,84.72l-101.81,101.81l9.55,6.11c23.6,11.87 33.45,33.17 37.38,45.13c10.99,-13.12 27.49,-21.46 45.94,-21.46h66.81c33.08,0 59.9,26.82 59.9,59.9c0,180.08 -147.09,327.17 -327.17,327.17c-180.08,0 -327.17,-147.09 -327.17,-327.17c0,-159.64 115.58,-293.33 267.26,-321.65z" fill="#000000" filter="url(#filter-t8vf5aEh)"/>
		<g color="#ffffff" class="teamapps-effect-color-1">
			<path d="M452.1,144.51c0,-24.23 14.6,-46.07 36.98,-55.34c22.38,-9.27 48.15,-4.15 65.28,12.99l167.04,167.04c23.39,23.39 23.39,61.32 0,84.72l-101.81,101.81l9.55,6.11c23.6,11.87 33.45,33.17 37.38,45.13c10.99,-13.12 27.49,-21.46 45.94,-21.46h66.81c33.08,0 59.9,26.82 59.9,59.9c0,180.08 -147.09,327.17 -327.17,327.17c-180.08,0 -327.17,-147.09 -327.17,-327.17c0,-159.64 115.58,-293.33 267.26,-321.65z" fill="currentColor"/>
		</g>
		<g>
			<g color="#1565c0" class="teamapps-color-1">
				<path d="M512,278.14v-133.63l167.04,167.04l-167.04,167.04v-133.63c-110.25,0 -200.45,90.2 -200.45,200.45c0,110.25 90.2,200.45 200.45,200.45c110.25,0 200.45,-90.2 200.45,-200.45h66.81c0,146.99 -120.27,267.26 -267.26,267.26c-146.99,0 -267.26,-120.27 -267.26,-267.26c0,-146.99 120.27,-267.27 267.26,-267.27zM615.57,585.5c0,10.02 0,20.04 -3.34,26.72l-10.02,20.04c0,0 -10.02,10.02 -16.7,10.02c-6.68,0 -13.37,3.34 -20.04,3.34c-6.68,0 -13.37,0 -20.04,-3.34c-6.68,-3.34 -10.03,-6.68 -16.71,-10.02c-6.68,-3.34 -6.68,-10.02 -10.02,-20.04c-3.34,-10.02 -3.34,-16.7 -3.34,-26.72v-23.39c0,-10.02 -0.01,-20.04 3.34,-26.72l10.02,-20.04c0,0 10.03,-10.02 16.71,-10.02c6.68,0 13.37,-3.34 20.04,-3.34c6.68,0 13.37,0 20.04,3.34c6.68,3.34 10.02,6.68 16.7,10.02c6.68,3.34 6.68,10.02 10.02,20.04c3.34,10.02 3.34,16.7 3.34,26.72zM445.19,645.63v-110.25l-33.41,10.02v-23.39l60.13,-20.04h3.34v143.66zM588.84,542.07c0,0 -3.34,-6.68 -3.34,-10.02c0,-3.34 -3.34,-3.34 -6.69,-6.68c-3.34,-3.34 -6.68,-3.34 -10.02,-3.34c-3.34,0 -6.68,0 -10.02,3.34l-6.68,6.68c0,0 -3.34,6.68 -3.34,10.02v66.81c0,0 3.34,6.68 3.34,10.02c0,3.34 3.34,3.34 6.68,6.69c3.34,3.34 6.68,3.34 10.02,3.34c3.34,0 6.68,0.01 10.02,-3.34l6.69,-6.69c0,0 3.34,-6.68 3.34,-10.02z" fill="currentColor"/>
			</g>
		</g>
	</g>
</svg>