<svg version="1.1" xmlns="http://www.w3.org/2000/svg" xmlns:xlink="http://www.w3.org/1999/xlink" viewBox="0,0,1024,1024">
	<!-- Color names: teamapps-color-1, teamapps-effect-color-1 -->
	<desc>free_breakfast icon - Licensed under Apache License v2.0 (http://www.apache.org/licenses/LICENSE-2.0) - Created with Iconfu.com - Derivative work of Material icons (Copyright Google Inc.)</desc>
	<defs>
		<clipPath id="clip-YbNHfToP">
			<path d="M127.19,1000.93v-907.15h896.81v907.15z"/>
		</clipPath>
		<filter id="filter-JWsHYSqP" x="-8%" y="-8%" width="152%" height="147%" color-interpolation-filters="sRGB">
			<feColorMatrix values="1 0 0 0 0 0 1 0 0 0 0 0 1 0 0 0 0 0 0.17 0" in="SourceGraphic"/>
			<feOffset dx="14.14" dy="14.14"/>
			<feGaussianBlur stdDeviation="11" result="blur0"/>
			<feColorMatrix values="1 0 0 0 0 0 1 0 0 0 0 0 1 0 0 0 0 0 0.25 0" in="SourceGraphic"/>
			<feOffset dx="21.21" dy="21.21"/>
			<feGaussianBlur stdDeviation="20" result="blur1"/>
			<feMerge>
				<feMergeNode in="blur0"/>
				<feMergeNode in="blur1"/>
			</feMerge>
		</filter>
	</defs>
	<g fill="none" fill-rule="nonzero" style="mix-blend-mode: normal">
		<g clip-path="url(#clip-YbNHfToP)">
			<path d="M905.99,278.14v100.22c0,69.63 -56.36,126.73 -126.73,126.73h-6.91v40.32c0,55.36 -23.23,105.28 -60.46,140.54h67.37c33.08,0 59.9,26.82 59.9,59.9v66.81c0,33.08 -26.82,59.9 -59.9,59.9h-534.52c-33.08,0 -59.9,-26.82 -59.9,-59.9v-66.81c0,-33.08 26.82,-59.9 59.9,-59.9h0.56c-37.24,-35.27 -60.46,-85.19 -60.46,-140.54v-334.08c0,-33.08 26.82,-59.9 59.9,-59.9h534.52c70.16,0 126.73,56.54 126.73,126.72z" fill="#000000" filter="url(#filter-JWsHYSqP)"/>
		</g>
		<g color="#ffffff" class="teamapps-effect-color-1">
			<path d="M905.99,278.14v100.22c0,69.63 -56.36,126.73 -126.73,126.73h-6.91v40.32c0,55.36 -23.23,105.28 -60.46,140.54h67.37c33.08,0 59.9,26.82 59.9,59.9v66.81c0,33.08 -26.82,59.9 -59.9,59.9h-534.52c-33.08,0 -59.9,-26.82 -59.9,-59.9v-66.81c0,-33.08 26.82,-59.9 59.9,-59.9h0.56c-37.24,-35.27 -60.46,-85.19 -60.46,-140.54v-334.08c0,-33.08 26.82,-59.9 59.9,-59.9h534.52c70.16,0 126.73,56.54 126.73,126.72z" fill="currentColor"/>
		</g>
		<g>
			<g color="#1565c0" class="teamapps-color-1">
				<path d="M846.08,278.14v100.22c0,36.75 -29.74,66.82 -66.82,66.82h-66.81v100.22c0,73.83 -59.81,133.63 -133.63,133.63h-200.45c-73.83,0 -133.63,-59.8 -133.63,-133.63v-334.08h534.52c37.08,0 66.82,29.73 66.82,66.81zM244.74,745.86h534.52v66.81h-534.52zM779.26,278.14h-66.81v100.22h66.81z" fill="currentColor"/>
			</g>
		</g>
	</g>
</svg>