<svg version="1.1" xmlns="http://www.w3.org/2000/svg" xmlns:xlink="http://www.w3.org/1999/xlink" viewBox="0,0,1024,1024">
	<!-- Color names: teamapps-color-1, teamapps-effect-color-1 -->
	<desc>gps_not_fixed icon - Licensed under Apache License v2.0 (http://www.apache.org/licenses/LICENSE-2.0) - Created with Iconfu.com - Derivative work of Material icons (Copyright Google Inc.)</desc>
	<defs>
		<clipPath id="clip-NJiUCJ2F">
			<path d="M26.97,26.97h997.03v997.03h-997.03z"/>
		</clipPath>
		<filter id="filter-lPTE3Am9" x="-7%" y="-7%" width="132%" height="132%" color-interpolation-filters="sRGB">
			<feColorMatrix values="1 0 0 0 0 0 1 0 0 0 0 0 1 0 0 0 0 0 0.17 0" in="SourceGraphic"/>
			<feOffset dx="14.14" dy="14.14"/>
			<feGaussianBlur stdDeviation="11" result="blur0"/>
			<feColorMatrix values="1 0 0 0 0 0 1 0 0 0 0 0 1 0 0 0 0 0 0.25 0" in="SourceGraphic"/>
			<feOffset dx="21.21" dy="21.21"/>
			<feGaussianBlur stdDeviation="20" result="blur1"/>
			<feMerge>
				<feMergeNode in="blur0"/>
				<feMergeNode in="blur1"/>
			</feMerge>
		</filter>
	</defs>
	<g fill="none" fill-rule="nonzero" style="mix-blend-mode: normal">
		<g clip-path="url(#clip-NJiUCJ2F)">
			<path d="M939.39,478.59v66.82c0,33.08 -26.82,59.9 -59.9,59.9h-19.27c-33.15,124.11 -130.78,221.75 -254.9,254.9v19.27c0,33.08 -26.82,59.9 -59.9,59.9h-66.82c-33.08,0 -59.9,-26.82 -59.9,-59.9v-19.27c-124.11,-33.15 -221.75,-130.78 -254.9,-254.9h-19.27c-33.08,0 -59.9,-26.82 -59.9,-59.9v-66.82c0,-33.08 26.82,-59.9 59.9,-59.9h19.27c33.15,-124.11 130.78,-221.75 254.9,-254.9v-19.27c0,-33.08 26.82,-59.9 59.9,-59.9h66.82c33.08,0 59.9,26.82 59.9,59.9v19.27c124.11,33.15 221.75,130.78 254.9,254.9h19.27c33.08,0 59.9,26.82 59.9,59.9z" fill="#000000" filter="url(#filter-lPTE3Am9)"/>
		</g>
		<g color="#ffffff" class="teamapps-effect-color-1">
			<path d="M939.39,478.59v66.82c0,33.08 -26.82,59.9 -59.9,59.9h-19.27c-33.15,124.11 -130.78,221.75 -254.9,254.9v19.27c0,33.08 -26.82,59.9 -59.9,59.9h-66.82c-33.08,0 -59.9,-26.82 -59.9,-59.9v-19.27c-124.11,-33.15 -221.75,-130.78 -254.9,-254.9h-19.27c-33.08,0 -59.9,-26.82 -59.9,-59.9v-66.82c0,-33.08 26.82,-59.9 59.9,-59.9h19.27c33.15,-124.11 130.78,-221.75 254.9,-254.9v-19.27c0,-33.08 26.82,-59.9 59.9,-59.9h66.82c33.08,0 59.9,26.82 59.9,59.9v19.27c124.11,33.15 221.75,130.78 254.9,254.9h19.27c33.08,0 59.9,26.82 59.9,59.9z" fill="currentColor"/>
		</g>
		<g>
			<g color="#1565c0" class="teamapps-color-1">
				<path d="M879.49,478.59v66.82h-68.82c-15.37,139.31 -125.95,249.89 -265.26,265.26v68.82h-66.82v-68.82c-139.31,-15.37 -249.89,-125.95 -265.26,-265.26h-68.82v-66.82h68.82c15.37,-139.31 125.95,-249.89 265.26,-265.26v-68.82h66.82v68.82c139.31,15.37 249.89,125.95 265.26,265.26zM745.86,512c0,-129.29 -104.57,-233.86 -233.86,-233.86c-129.29,0 -233.86,104.57 -233.86,233.86c0,129.29 104.57,233.86 233.86,233.86c129.29,0 233.86,-104.57 233.86,-233.86z" fill="currentColor"/>
			</g>
		</g>
	</g>
</svg>