<svg version="1.1" xmlns="http://www.w3.org/2000/svg" xmlns:xlink="http://www.w3.org/1999/xlink" viewBox="0,0,1024,1024">
	<!-- Color names: teamapps-color-1, teamapps-effect-color-1 -->
	<desc>hdr_off icon - Licensed under Apache License v2.0 (http://www.apache.org/licenses/LICENSE-2.0) - Created with Iconfu.com - Derivative work of Material icons (Copyright Google Inc.)</desc>
	<defs>
		<clipPath id="clip-1T39N7wV">
			<path d="M40.32,77.08h980.65v946.92h-980.65z"/>
		</clipPath>
		<filter id="filter-CEcciQ0y" x="-8%" y="-8%" width="137%" height="142%" color-interpolation-filters="sRGB">
			<feColorMatrix values="1 0 0 0 0 0 1 0 0 0 0 0 1 0 0 0 0 0 0.17 0" in="SourceGraphic"/>
			<feOffset dx="14.14" dy="14.14"/>
			<feGaussianBlur stdDeviation="11" result="blur0"/>
			<feColorMatrix values="1 0 0 0 0 0 1 0 0 0 0 0 1 0 0 0 0 0 0.25 0" in="SourceGraphic"/>
			<feOffset dx="21.21" dy="21.21"/>
			<feGaussianBlur stdDeviation="20" result="blur1"/>
			<feMerge>
				<feMergeNode in="blur0"/>
				<feMergeNode in="blur1"/>
			</feMerge>
		</filter>
	</defs>
	<g fill="none" fill-rule="nonzero" style="mix-blend-mode: normal">
		<g clip-path="url(#clip-1T39N7wV)">
			<path d="M875.08,871.73l-36.75,36.75c-23.39,23.4 -61.33,23.4 -84.72,0l-236.36,-236.36h-88.78c-8.95,0 -17.43,-1.96 -25.06,-5.48c-7.62,3.52 -16.11,5.48 -25.06,5.48h-50.11c-12.37,0 -23.86,-3.75 -33.41,-10.17c-9.54,6.42 -21.04,10.17 -33.41,10.17h-50.11c-33.08,0 -59.9,-26.82 -59.9,-59.9v-200.45c0,-28.64 20.1,-52.59 46.97,-58.5l-82.88,-82.88c-24.19,-24.19 -23.24,-63.68 2.07,-86.69l36.75,-33.4c23.66,-21.5 60.04,-20.64 82.65,1.97l210.5,210.5c9.88,-6.94 21.84,-10.9 34.45,-10.9h63.48c21.23,0 41.25,6.33 58.25,17.17c10.81,-10.62 25.63,-17.17 41.98,-17.17h116.93c59.81,0 110.02,50.21 110.02,110.02v33.41c0,21.85 -6.84,43.27 -18.59,61.26l13.74,32.07c7.93,18.51 6.03,39.76 -5.05,56.57c-11.08,16.81 -29.87,26.93 -50.01,26.93l-53.54,-0.1l115.77,114.81c23.56,23.36 23.64,61.42 0.18,84.89z" fill="#000000" filter="url(#filter-CEcciQ0y)"/>
		</g>
		<g color="#ffffff" class="teamapps-effect-color-1">
			<path d="M875.08,871.73l-36.75,36.75c-23.39,23.4 -61.33,23.4 -84.72,0l-236.36,-236.36h-88.78c-8.95,0 -17.43,-1.96 -25.06,-5.48c-7.62,3.52 -16.11,5.48 -25.06,5.48h-50.11c-12.37,0 -23.86,-3.75 -33.41,-10.17c-9.54,6.42 -21.04,10.17 -33.41,10.17h-50.11c-33.08,0 -59.9,-26.82 -59.9,-59.9v-200.45c0,-28.64 20.1,-52.59 46.97,-58.5l-82.88,-82.88c-24.19,-24.19 -23.24,-63.68 2.07,-86.69l36.75,-33.4c23.66,-21.5 60.04,-20.64 82.65,1.97l210.5,210.5c9.88,-6.94 21.84,-10.9 34.45,-10.9h63.48c21.23,0 41.25,6.33 58.25,17.17c10.81,-10.62 25.63,-17.17 41.98,-17.17h116.93c59.81,0 110.02,50.21 110.02,110.02v33.41c0,21.85 -6.84,43.27 -18.59,61.26l13.74,32.07c7.93,18.51 6.03,39.76 -5.05,56.57c-11.08,16.81 -29.87,26.93 -50.01,26.93l-53.54,-0.1l115.77,114.81c23.56,23.36 23.64,61.42 0.18,84.89z" fill="currentColor"/>
		</g>
		<g>
			<g color="#1565c0" class="teamapps-color-1">
				<path d="M832.72,829.37l-36.75,36.75l-253.9,-253.9h-113.59v-113.59l-50.11,-50.11v163.7h-50.11v-83.52h-66.81v83.52h-50.11v-200.45h50.11v66.81h66.81v-66.81h13.37l-183.75,-183.75l36.75,-33.4l233.85,233.85zM682.38,612.22l-36.75,-36.75v-163.7h116.93c26.72,0 50.11,23.39 50.11,50.11v33.41c0,20.04 -13.37,40.09 -30.07,46.77l30.07,70.16h-50.11l-30.07,-66.81h-36.75v66.81zM532.04,461.89l-50.11,-50.11h63.48c26.72,0 50.11,23.39 50.11,50.11v63.48l-50.11,-50.11v-13.37zM695.75,495.3h66.81v-33.41h-66.81z" fill="currentColor"/>
			</g>
		</g>
	</g>
</svg>