<svg version="1.1" xmlns="http://www.w3.org/2000/svg" xmlns:xlink="http://www.w3.org/1999/xlink" viewBox="0,0,1024,1024">
	<!-- Color names: teamapps-color-1, teamapps-effect-color-1 -->
	<desc>headset_mic icon - Licensed under Apache License v2.0 (http://www.apache.org/licenses/LICENSE-2.0) - Created with Iconfu.com - Derivative work of Material icons (Copyright Google Inc.)</desc>
	<defs>
		<clipPath id="clip-SmLb3hAH">
			<path d="M93.78,26.97h907.15v997.03h-907.15z"/>
		</clipPath>
		<filter id="filter-egUik6N7" x="-8%" y="-7%" width="147%" height="132%" color-interpolation-filters="sRGB">
			<feColorMatrix values="1 0 0 0 0 0 1 0 0 0 0 0 1 0 0 0 0 0 0.17 0" in="SourceGraphic"/>
			<feOffset dx="14.14" dy="14.14"/>
			<feGaussianBlur stdDeviation="11" result="blur0"/>
			<feColorMatrix values="1 0 0 0 0 0 1 0 0 0 0 0 1 0 0 0 0 0 0.25 0" in="SourceGraphic"/>
			<feOffset dx="21.21" dy="21.21"/>
			<feGaussianBlur stdDeviation="20" result="blur1"/>
			<feMerge>
				<feMergeNode in="blur0"/>
				<feMergeNode in="blur1"/>
			</feMerge>
		</filter>
	</defs>
	<g fill="none" fill-rule="nonzero" style="mix-blend-mode: normal">
		<g clip-path="url(#clip-SmLb3hAH)">
			<path d="M872.58,445.19v334.07c0,88.54 -71.58,160.13 -160.13,160.13h-200.45c-33.08,0 -59.9,-26.82 -59.9,-59.9v-55.92c-10.64,9.69 -24.79,15.6 -40.32,15.6h-100.22c-88.54,0 -160.13,-71.58 -160.13,-160.13v-233.85c0,-199.12 161.46,-360.58 360.58,-360.58c199.12,0 360.58,161.46 360.58,360.58z" fill="#000000" filter="url(#filter-egUik6N7)"/>
		</g>
		<g color="#ffffff" class="teamapps-effect-color-1">
			<path d="M872.58,445.19v334.07c0,88.54 -71.58,160.13 -160.13,160.13h-200.45c-33.08,0 -59.9,-26.82 -59.9,-59.9v-55.92c-10.64,9.69 -24.79,15.6 -40.32,15.6h-100.22c-88.54,0 -160.13,-71.58 -160.13,-160.13v-233.85c0,-199.12 161.46,-360.58 360.58,-360.58c199.12,0 360.58,161.46 360.58,360.58z" fill="currentColor"/>
		</g>
		<g>
			<g color="#1565c0" class="teamapps-color-1">
				<path d="M812.67,445.19v334.07c0,55.46 -44.76,100.22 -100.22,100.22h-200.45v-66.81h233.86v-33.41h-133.63v-267.26h133.63v-66.81c0,-129.29 -104.57,-233.86 -233.86,-233.86c-129.29,0 -233.86,104.57 -233.86,233.86v66.81h133.63v267.26h-100.22c-55.46,0 -100.22,-44.76 -100.22,-100.22v-233.85c0,-166.04 134.64,-300.67 300.67,-300.67c166.04,0 300.67,134.64 300.67,300.67z" fill="currentColor"/>
			</g>
		</g>
	</g>
</svg>