<svg version="1.1" xmlns="http://www.w3.org/2000/svg" xmlns:xlink="http://www.w3.org/1999/xlink" viewBox="0,0,1024,1024">
	<!-- Color names: teamapps-color-1, teamapps-effect-color-1 -->
	<desc>http icon - Licensed under Apache License v2.0 (http://www.apache.org/licenses/LICENSE-2.0) - Created with Iconfu.com - Derivative work of Material icons (Copyright Google Inc.)</desc>
	<defs>
		<clipPath id="clip-C9eSwp65">
			<path d="M26.97,800.48v-506.26h997.03v506.26z"/>
		</clipPath>
		<filter id="filter-rpIUM084" x="-7%" y="-18%" width="132%" height="268%" color-interpolation-filters="sRGB">
			<feColorMatrix values="1 0 0 0 0 0 1 0 0 0 0 0 1 0 0 0 0 0 0.17 0" in="SourceGraphic"/>
			<feOffset dx="14.14" dy="14.14"/>
			<feGaussianBlur stdDeviation="11" result="blur0"/>
			<feColorMatrix values="1 0 0 0 0 0 1 0 0 0 0 0 1 0 0 0 0 0 0.25 0" in="SourceGraphic"/>
			<feOffset dx="21.21" dy="21.21"/>
			<feGaussianBlur stdDeviation="20" result="blur1"/>
			<feMerge>
				<feMergeNode in="blur0"/>
				<feMergeNode in="blur1"/>
			</feMerge>
		</filter>
	</defs>
	<g fill="none" fill-rule="nonzero" style="mix-blend-mode: normal">
		<g clip-path="url(#clip-C9eSwp65)">
			<path d="M939.39,461.89v33.41c0,59.81 -50.21,110.02 -110.02,110.02h-6.91v6.91c0,33.08 -26.82,59.9 -59.9,59.9h-50.11c-16.24,0 -30.97,-6.46 -41.76,-16.96c-10.79,10.49 -25.52,16.96 -41.76,16.96h-50.11c-33.08,0 -59.9,-26.82 -59.9,-59.9v-91.23c-2.35,-0.39 -4.66,-0.91 -6.91,-1.56c-2.25,0.65 -4.56,1.18 -6.91,1.56v91.23c0,33.08 -26.82,59.9 -59.9,59.9h-50.11c-16.24,0 -30.97,-6.46 -41.76,-16.96c-10.79,10.49 -25.52,16.96 -41.76,16.96h-50.11c-12.37,0 -23.86,-3.75 -33.41,-10.17c-9.54,6.42 -21.04,10.17 -33.41,10.17h-50.11c-33.08,0 -59.9,-26.82 -59.9,-59.9v-200.45c0,-33.08 26.82,-59.9 59.9,-59.9h50.11c12.37,0 23.86,3.75 33.41,10.17c9.54,-6.42 21.04,-10.17 33.41,-10.17h50.11c5.8,0 11.4,0.82 16.71,2.36c5.3,-1.54 10.91,-2.36 16.71,-2.36h150.34c5.8,0 11.4,0.82 16.7,2.36c5.3,-1.54 10.91,-2.36 16.7,-2.36h150.34c5.8,0 11.4,0.82 16.71,2.36c5.3,-1.54 10.91,-2.36 16.71,-2.36h116.93c59.81,0 110.02,50.21 110.02,110.02z" fill="#000000" filter="url(#filter-rpIUM084)"/>
		</g>
		<g color="#ffffff" class="teamapps-effect-color-1">
			<path d="M939.39,461.89v33.41c0,59.81 -50.21,110.02 -110.02,110.02h-6.91v6.91c0,33.08 -26.82,59.9 -59.9,59.9h-50.11c-16.24,0 -30.97,-6.46 -41.76,-16.96c-10.79,10.49 -25.52,16.96 -41.76,16.96h-50.11c-33.08,0 -59.9,-26.82 -59.9,-59.9v-91.23c-2.35,-0.39 -4.66,-0.91 -6.91,-1.56c-2.25,0.65 -4.56,1.18 -6.91,1.56v91.23c0,33.08 -26.82,59.9 -59.9,59.9h-50.11c-16.24,0 -30.97,-6.46 -41.76,-16.96c-10.79,10.49 -25.52,16.96 -41.76,16.96h-50.11c-12.37,0 -23.86,-3.75 -33.41,-10.17c-9.54,6.42 -21.04,10.17 -33.41,10.17h-50.11c-33.08,0 -59.9,-26.82 -59.9,-59.9v-200.45c0,-33.08 26.82,-59.9 59.9,-59.9h50.11c12.37,0 23.86,3.75 33.41,10.17c9.54,-6.42 21.04,-10.17 33.41,-10.17h50.11c5.8,0 11.4,0.82 16.71,2.36c5.3,-1.54 10.91,-2.36 16.71,-2.36h150.34c5.8,0 11.4,0.82 16.7,2.36c5.3,-1.54 10.91,-2.36 16.7,-2.36h150.34c5.8,0 11.4,0.82 16.71,2.36c5.3,-1.54 10.91,-2.36 16.71,-2.36h116.93c59.81,0 110.02,50.21 110.02,110.02z" fill="currentColor"/>
		</g>
		<g>
			<g color="#1565c0" class="teamapps-color-1">
				<path d="M261.44,411.78h50.11v200.45h-50.11v-83.52h-66.81v83.52h-50.11v-200.45h50.11v66.81h66.81zM879.49,461.89v33.41c0,26.72 -23.39,50.11 -50.11,50.11h-66.81v66.81h-50.11v-200.45h116.93c26.72,0 50.11,23.39 50.11,50.11zM344.96,411.78h150.34v50.11h-50.11v150.34h-50.11v-150.34h-50.11zM528.7,411.78h150.34v50.11h-50.11v150.34h-50.11v-150.34h-50.11zM829.37,461.89h-66.81v33.41h66.81z" fill="currentColor"/>
			</g>
		</g>
	</g>
</svg>