<svg version="1.1" xmlns="http://www.w3.org/2000/svg" xmlns:xlink="http://www.w3.org/1999/xlink" viewBox="0,0,1024,1024">
	<!-- Color names: teamapps-color-1, teamapps-effect-color-1 -->
	<desc>https icon - Licensed under Apache License v2.0 (http://www.apache.org/licenses/LICENSE-2.0) - Created with Iconfu.com - Derivative work of Material icons (Copyright Google Inc.)</desc>
	<defs>
		<clipPath id="clip-7Robmzj2">
			<path d="M127.19,26.97h840.33v997.03h-840.33z"/>
		</clipPath>
		<filter id="filter-IlSFw0xm" x="-9%" y="-8%" width="157%" height="134%" color-interpolation-filters="sRGB">
			<feColorMatrix values="1 0 0 0 0 0 1 0 0 0 0 0 1 0 0 0 0 0 0.17 0" in="SourceGraphic"/>
			<feOffset dx="14.14" dy="14.14"/>
			<feGaussianBlur stdDeviation="11" result="blur0"/>
			<feColorMatrix values="1 0 0 0 0 0 1 0 0 0 0 0 1 0 0 0 0 0 0.25 0" in="SourceGraphic"/>
			<feOffset dx="21.21" dy="21.21"/>
			<feGaussianBlur stdDeviation="20" result="blur1"/>
			<feMerge>
				<feMergeNode in="blur0"/>
				<feMergeNode in="blur1"/>
			</feMerge>
		</filter>
	</defs>
	<g fill="none" fill-rule="nonzero" style="mix-blend-mode: normal">
		<g clip-path="url(#clip-7Robmzj2)">
			<path d="M839.17,445.19v334.07c0,69.82 -56.88,126.73 -126.72,126.73h-400.9c-69.84,0 -126.72,-56.9 -126.72,-126.73v-334.07c0,-60.74 43.05,-111.71 100.22,-123.93v-9.7c0,-125.29 101.65,-226.94 226.94,-226.94c125.29,0 226.94,101.65 226.94,226.94v9.7c57.18,12.23 100.22,63.19 100.22,123.93z" fill="#000000" filter="url(#filter-IlSFw0xm)"/>
		</g>
		<g color="#ffffff" class="teamapps-effect-color-1">
			<path d="M839.17,445.19v334.07c0,69.82 -56.88,126.73 -126.72,126.73h-400.9c-69.84,0 -126.72,-56.9 -126.72,-126.73v-334.07c0,-60.74 43.05,-111.71 100.22,-123.93v-9.7c0,-125.29 101.65,-226.94 226.94,-226.94c125.29,0 226.94,101.65 226.94,226.94v9.7c57.18,12.23 100.22,63.19 100.22,123.93z" fill="currentColor"/>
		</g>
		<g>
			<g color="#1565c0" class="teamapps-color-1">
				<path d="M779.26,445.19v334.07c0,36.75 -30.07,66.82 -66.81,66.82h-400.9c-36.75,0 -66.81,-30.08 -66.81,-66.82v-334.07c0,-36.75 30.07,-66.82 66.81,-66.82h33.41v-66.81c0,-92.21 74.83,-167.04 167.04,-167.04c92.21,0 167.04,74.83 167.04,167.04v66.81h33.41c36.75,0 66.81,30.08 66.81,66.82zM615.57,311.55c0,-57.13 -46.44,-103.57 -103.57,-103.57c-57.13,0 -103.57,46.44 -103.57,103.57v66.81h207.13zM578.81,612.22c0,-36.75 -30.07,-66.81 -66.81,-66.81c-36.75,0 -66.81,30.07 -66.81,66.81c0,36.75 30.07,66.81 66.81,66.81c36.75,0 66.81,-30.07 66.81,-66.81z" fill="currentColor"/>
			</g>
		</g>
	</g>
</svg>