<svg version="1.1" xmlns="http://www.w3.org/2000/svg" xmlns:xlink="http://www.w3.org/1999/xlink" viewBox="0,0,1024,1024">
	<!-- Color names: teamapps-color-1, teamapps-effect-color-1 -->
	<desc>insert_comment icon - Licensed under Apache License v2.0 (http://www.apache.org/licenses/LICENSE-2.0) - Created with Iconfu.com - Derivative work of Material icons (Copyright Google Inc.)</desc>
	<defs>
		<clipPath id="clip-SA4rxjAK">
			<path d="M60.37,60.37h963.63v963.63h-963.63z"/>
		</clipPath>
		<filter id="filter-jV7HYlNX" x="-8%" y="-8%" width="140%" height="140%" color-interpolation-filters="sRGB">
			<feColorMatrix values="1 0 0 0 0 0 1 0 0 0 0 0 1 0 0 0 0 0 0.17 0" in="SourceGraphic"/>
			<feOffset dx="14.14" dy="14.14"/>
			<feGaussianBlur stdDeviation="11" result="blur0"/>
			<feColorMatrix values="1 0 0 0 0 0 1 0 0 0 0 0 1 0 0 0 0 0 0.25 0" in="SourceGraphic"/>
			<feOffset dx="21.21" dy="21.21"/>
			<feGaussianBlur stdDeviation="20" result="blur1"/>
			<feMerge>
				<feMergeNode in="blur0"/>
				<feMergeNode in="blur1"/>
			</feMerge>
		</filter>
	</defs>
	<g fill="none" fill-rule="nonzero" style="mix-blend-mode: normal">
		<g clip-path="url(#clip-SA4rxjAK)">
			<path d="M905.99,244.74v601.34c0,24.23 -14.6,46.07 -36.98,55.34c-22.38,9.27 -48.15,4.15 -65.28,-12.99l-116.09,-116.09h-442.9c-69.82,0 -126.73,-56.88 -126.73,-126.72v-400.9c0,-69.83 56.89,-126.73 126.73,-126.73h534.52c69.83,0 126.73,56.89 126.73,126.73z" fill="#000000" filter="url(#filter-jV7HYlNX)"/>
		</g>
		<g color="#ffffff" class="teamapps-effect-color-1">
			<path d="M905.99,244.74v601.34c0,24.23 -14.6,46.07 -36.98,55.34c-22.38,9.27 -48.15,4.15 -65.28,-12.99l-116.09,-116.09h-442.9c-69.82,0 -126.73,-56.88 -126.73,-126.72v-400.9c0,-69.83 56.89,-126.73 126.73,-126.73h534.52c69.83,0 126.73,56.89 126.73,126.73z" fill="currentColor"/>
		</g>
		<g>
			<g color="#1565c0" class="teamapps-color-1">
				<path d="M846.08,244.74v601.34l-133.63,-133.63h-467.71c-36.75,0 -66.82,-30.07 -66.82,-66.81v-400.9c0,-36.75 30.08,-66.82 66.82,-66.82h534.52c36.75,0 66.82,30.08 66.82,66.82zM712.45,411.78h-400.9v66.81h400.9zM712.45,311.55h-400.9v66.81h400.9zM712.45,512h-400.9v66.81h400.9z" fill="currentColor"/>
			</g>
		</g>
	</g>
</svg>