<svg version="1.1" xmlns="http://www.w3.org/2000/svg" xmlns:xlink="http://www.w3.org/1999/xlink" viewBox="0,0,1024,1024">
	<!-- Color names: teamapps-color-1, teamapps-effect-color-1 -->
	<desc>keyboard_tab icon - Licensed under Apache License v2.0 (http://www.apache.org/licenses/LICENSE-2.0) - Created with Iconfu.com - Derivative work of Material icons (Copyright Google Inc.)</desc>
	<defs>
		<clipPath id="clip-JpymeF9T">
			<path d="M26.97,900.71v-706.7h997.03v706.7z"/>
		</clipPath>
		<filter id="filter-C5HgVvSm" x="-8%" y="-12%" width="134%" height="185%" color-interpolation-filters="sRGB">
			<feColorMatrix values="1 0 0 0 0 0 1 0 0 0 0 0 1 0 0 0 0 0 0.17 0" in="SourceGraphic"/>
			<feOffset dx="14.14" dy="14.14"/>
			<feGaussianBlur stdDeviation="11" result="blur0"/>
			<feColorMatrix values="1 0 0 0 0 0 1 0 0 0 0 0 1 0 0 0 0 0 0.25 0" in="SourceGraphic"/>
			<feOffset dx="21.21" dy="21.21"/>
			<feGaussianBlur stdDeviation="20" result="blur1"/>
			<feMerge>
				<feMergeNode in="blur0"/>
				<feMergeNode in="blur1"/>
			</feMerge>
		</filter>
	</defs>
	<g fill="none" fill-rule="nonzero" style="mix-blend-mode: normal">
		<g clip-path="url(#clip-JpymeF9T)">
			<path d="M587.77,269.19l131.59,131.59v-89.23c0,-33.08 26.82,-59.9 59.9,-59.9h66.82c33.08,0 59.9,26.82 59.9,59.9v400.9c0,33.08 -26.82,59.9 -59.9,59.9h-66.82c-33.08,0 -59.9,-26.82 -59.9,-59.9v-89.23l-131.59,131.59c-23.34,23.34 -61.15,23.4 -84.57,0.15l-47.44,-47.11c-23.54,-23.37 -23.6,-61.41 -0.15,-84.87l17.67,-17.67h-328.77c-33.08,0 -59.9,-26.82 -59.9,-59.9v-66.82c0,-33.08 26.82,-59.9 59.9,-59.9h329.05l-17.68,-17.73c-23.34,-23.4 -23.31,-61.29 0.06,-84.66l47.11,-47.11c23.39,-23.39 61.32,-23.39 84.72,0z" fill="#000000" filter="url(#filter-C5HgVvSm)"/>
		</g>
		<g color="#ffffff" class="teamapps-effect-color-1">
			<path d="M587.77,269.19l131.59,131.59v-89.23c0,-33.08 26.82,-59.9 59.9,-59.9h66.82c33.08,0 59.9,26.82 59.9,59.9v400.9c0,33.08 -26.82,59.9 -59.9,59.9h-66.82c-33.08,0 -59.9,-26.82 -59.9,-59.9v-89.23l-131.59,131.59c-23.34,23.34 -61.15,23.4 -84.57,0.15l-47.44,-47.11c-23.54,-23.37 -23.6,-61.41 -0.15,-84.87l17.67,-17.67h-328.77c-33.08,0 -59.9,-26.82 -59.9,-59.9v-66.82c0,-33.08 26.82,-59.9 59.9,-59.9h329.05l-17.68,-17.73c-23.34,-23.4 -23.31,-61.29 0.06,-84.66l47.11,-47.11c23.39,-23.39 61.32,-23.39 84.72,0z" fill="currentColor"/>
		</g>
		<g>
			<g color="#1565c0" class="teamapps-color-1">
				<path d="M545.41,311.55l200.45,200.45l-200.45,200.45l-47.44,-47.11l119.93,-119.93h-473.39v-66.82h473.39l-119.6,-119.93zM846.08,311.55v400.9h-66.82v-400.9z" fill="currentColor"/>
			</g>
		</g>
	</g>
</svg>