<svg version="1.1" xmlns="http://www.w3.org/2000/svg" xmlns:xlink="http://www.w3.org/1999/xlink" viewBox="0,0,1024,1024">
	<!-- Color names: teamapps-color-1, teamapps-effect-color-1 -->
	<desc>label_outline icon - Licensed under Apache License v2.0 (http://www.apache.org/licenses/LICENSE-2.0) - Created with Iconfu.com - Derivative work of Material icons (Copyright Google Inc.)</desc>
	<defs>
		<clipPath id="clip-RQvLikA8">
			<path d="M93.78,934.12v-773.53h930.22v773.53z"/>
		</clipPath>
		<filter id="filter-kWD3WyLe" x="-8%" y="-10%" width="146%" height="169%" color-interpolation-filters="sRGB">
			<feColorMatrix values="1 0 0 0 0 0 1 0 0 0 0 0 1 0 0 0 0 0 0.17 0" in="SourceGraphic"/>
			<feOffset dx="14.14" dy="14.14"/>
			<feGaussianBlur stdDeviation="11" result="blur0"/>
			<feColorMatrix values="1 0 0 0 0 0 1 0 0 0 0 0 1 0 0 0 0 0 0.25 0" in="SourceGraphic"/>
			<feOffset dx="21.21" dy="21.21"/>
			<feGaussianBlur stdDeviation="20" result="blur1"/>
			<feMerge>
				<feMergeNode in="blur0"/>
				<feMergeNode in="blur1"/>
			</feMerge>
		</filter>
	</defs>
	<g fill="none" fill-rule="nonzero" style="mix-blend-mode: normal">
		<g clip-path="url(#clip-RQvLikA8)">
			<path d="M894.94,546.66l-145.96,205.75c-22.98,32.51 -61.05,53.35 -103.34,53.35l-367.55,-0.34c-69.41,-0.03 -126.66,-56.18 -126.66,-126.39v-334.07c0,-70.22 57.27,-126.37 126.69,-126.39l367.52,-0.34c42.29,0 80.36,20.84 103.34,53.35l145.96,205.75c14.73,20.76 14.73,48.56 0,69.32z" fill="#000000" filter="url(#filter-kWD3WyLe)"/>
		</g>
		<g color="#ffffff" class="teamapps-effect-color-1">
			<path d="M894.94,546.66l-145.96,205.75c-22.98,32.51 -61.05,53.35 -103.34,53.35l-367.55,-0.34c-69.41,-0.03 -126.66,-56.18 -126.66,-126.39v-334.07c0,-70.22 57.27,-126.37 126.69,-126.39l367.52,-0.34c42.29,0 80.36,20.84 103.34,53.35l145.96,205.75c14.73,20.76 14.73,48.56 0,69.32z" fill="currentColor"/>
		</g>
		<g>
			<g color="#1565c0" class="teamapps-color-1">
				<path d="M846.08,512l-146,205.8c-12.03,17.04 -32.06,28.06 -54.45,28.06l-367.49,-0.34c-36.75,0 -66.81,-29.74 -66.81,-66.48v-334.07c0,-36.75 30.07,-66.48 66.81,-66.48l367.49,-0.34c22.39,0 42.42,11.02 54.45,28.06zM764.23,512l-118.59,-167.04h-367.49v334.07h367.49z" fill="currentColor"/>
			</g>
		</g>
	</g>
</svg>