<svg version="1.1" xmlns="http://www.w3.org/2000/svg" xmlns:xlink="http://www.w3.org/1999/xlink" viewBox="0,0,1024,1024">
	<!-- Color names: teamapps-color-1, teamapps-effect-color-1 -->
	<desc>link icon - Licensed under Apache License v2.0 (http://www.apache.org/licenses/LICENSE-2.0) - Created with Iconfu.com - Derivative work of Material icons (Copyright Google Inc.)</desc>
	<defs>
		<clipPath id="clip-yWx0hp9l">
			<path d="M60.37,867.3v-639.88h963.63v639.88z"/>
		</clipPath>
		<filter id="filter-FNGkwlhC" x="-8%" y="-13%" width="140%" height="205%" color-interpolation-filters="sRGB">
			<feColorMatrix values="1 0 0 0 0 0 1 0 0 0 0 0 1 0 0 0 0 0 0.17 0" in="SourceGraphic"/>
			<feOffset dx="14.14" dy="14.14"/>
			<feGaussianBlur stdDeviation="11" result="blur0"/>
			<feColorMatrix values="1 0 0 0 0 0 1 0 0 0 0 0 1 0 0 0 0 0 0.25 0" in="SourceGraphic"/>
			<feOffset dx="21.21" dy="21.21"/>
			<feGaussianBlur stdDeviation="20" result="blur1"/>
			<feMerge>
				<feMergeNode in="blur0"/>
				<feMergeNode in="blur1"/>
			</feMerge>
		</filter>
	</defs>
	<g fill="none" fill-rule="nonzero" style="mix-blend-mode: normal">
		<g clip-path="url(#clip-yWx0hp9l)">
			<path d="M478.59,738.94h-133.63c-125.29,0 -226.95,-101.65 -226.95,-226.94c0,-125.29 101.66,-226.94 226.95,-226.94h133.63c12.37,0 23.87,3.75 33.41,10.18c9.54,-6.43 21.04,-10.18 33.41,-10.18h133.63c125.29,0 226.95,101.65 226.95,226.94c0,125.29 -101.66,226.94 -226.95,226.94h-133.63c-12.37,0 -23.87,-3.75 -33.41,-10.18c-9.54,6.43 -21.04,10.18 -33.41,10.18z" fill="#000000" filter="url(#filter-FNGkwlhC)"/>
		</g>
		<g color="#ffffff" class="teamapps-effect-color-1">
			<path d="M478.59,738.94h-133.63c-125.29,0 -226.95,-101.65 -226.95,-226.94c0,-125.29 101.66,-226.94 226.95,-226.94h133.63c12.37,0 23.87,3.75 33.41,10.18c9.54,-6.43 21.04,-10.18 33.41,-10.18h133.63c125.29,0 226.95,101.65 226.95,226.94c0,125.29 -101.66,226.94 -226.95,226.94h-133.63c-12.37,0 -23.87,-3.75 -33.41,-10.18c-9.54,6.43 -21.04,10.18 -33.41,10.18z" fill="currentColor"/>
		</g>
		<g>
			<g color="#1565c0" class="teamapps-color-1">
				<path d="M344.96,615.57h133.63v63.47h-133.63c-92.21,0 -167.05,-74.83 -167.05,-167.04c0,-92.21 74.84,-167.04 167.05,-167.04h133.63v63.47h-133.63c-57.13,0 -103.57,46.44 -103.57,103.57c0,57.13 46.44,103.57 103.57,103.57zM846.08,512c0,92.21 -74.84,167.04 -167.05,167.04h-133.63v-63.47h133.63c57.13,0 103.57,-46.44 103.57,-103.57c0,-57.13 -46.44,-103.57 -103.57,-103.57h-133.63v-63.47h133.63c92.21,0 167.05,74.83 167.05,167.04zM378.37,478.59h267.27v66.82h-267.27z" fill="currentColor"/>
			</g>
		</g>
	</g>
</svg>