<svg version="1.1" xmlns="http://www.w3.org/2000/svg" xmlns:xlink="http://www.w3.org/1999/xlink" viewBox="0,0,1024,1024">
	<!-- Color names: teamapps-color-1, teamapps-effect-color-1 -->
	<desc>local_bar icon - Licensed under Apache License v2.0 (http://www.apache.org/licenses/LICENSE-2.0) - Created with Iconfu.com - Derivative work of Material icons (Copyright Google Inc.)</desc>
	<defs>
		<filter id="filter-wzNDFCRa" x="-8%" y="-8%" width="147%" height="147%" color-interpolation-filters="sRGB">
			<feColorMatrix values="1 0 0 0 0 0 1 0 0 0 0 0 1 0 0 0 0 0 0.17 0" in="SourceGraphic"/>
			<feOffset dx="14.14" dy="14.14"/>
			<feGaussianBlur stdDeviation="11" result="blur0"/>
			<feColorMatrix values="1 0 0 0 0 0 1 0 0 0 0 0 1 0 0 0 0 0 0.25 0" in="SourceGraphic"/>
			<feOffset dx="21.21" dy="21.21"/>
			<feGaussianBlur stdDeviation="20" result="blur1"/>
			<feMerge>
				<feMergeNode in="blur0"/>
				<feMergeNode in="blur1"/>
			</feMerge>
		</filter>
	</defs>
	<g fill="none" fill-rule="nonzero" style="mix-blend-mode: normal">
		<path d="M605.31,601.59v84.37h107.13c33.08,0 59.9,26.82 59.9,59.9v66.81c0,33.08 -26.82,59.9 -59.9,59.9h-400.9c-33.08,0 -59.9,-26.82 -59.9,-59.9v-66.81c0,-33.08 26.82,-59.9 59.9,-59.9h107.13v-84.37l-252.13,-283.65c-9.75,-10.97 -15.13,-25.13 -15.13,-39.8v-66.81c0,-33.08 26.82,-59.9 59.9,-59.9h601.34c33.08,0 59.9,26.82 59.9,59.9v66.81c0,14.67 -5.38,28.83 -15.13,39.8z" fill="#000000" filter="url(#filter-wzNDFCRa)"/>
		<g color="#ffffff" class="teamapps-effect-color-1">
			<path d="M605.31,601.59v84.37h107.13c33.08,0 59.9,26.82 59.9,59.9v66.81c0,33.08 -26.82,59.9 -59.9,59.9h-400.9c-33.08,0 -59.9,-26.82 -59.9,-59.9v-66.81c0,-33.08 26.82,-59.9 59.9,-59.9h107.13v-84.37l-252.13,-283.65c-9.75,-10.97 -15.13,-25.13 -15.13,-39.8v-66.81c0,-33.08 26.82,-59.9 59.9,-59.9h601.34c33.08,0 59.9,26.82 59.9,59.9v66.81c0,14.67 -5.38,28.83 -15.13,39.8z" fill="currentColor"/>
		</g>
		<g>
			<g color="#1565c0" class="teamapps-color-1">
				<path d="M545.41,578.81v167.05h167.04v66.81h-400.9v-66.81h167.04v-167.05l-267.26,-300.67v-66.81h601.34v66.81zM664.68,344.96l59.46,-66.82h-423.95l59.13,66.82z" fill="currentColor"/>
			</g>
		</g>
	</g>
</svg>