<svg version="1.1" xmlns="http://www.w3.org/2000/svg" xmlns:xlink="http://www.w3.org/1999/xlink" viewBox="0,0,1024,1024">
	<!-- Color names: teamapps-color-1, teamapps-effect-color-1 -->
	<desc>local_taxi icon - Licensed under Apache License v2.0 (http://www.apache.org/licenses/LICENSE-2.0) - Created with Iconfu.com - Derivative work of Material icons (Copyright Google Inc.)</desc>
	<defs>
		<filter id="filter-6HNXZAsH" x="-8%" y="-8%" width="147%" height="147%" color-interpolation-filters="sRGB">
			<feColorMatrix values="1 0 0 0 0 0 1 0 0 0 0 0 1 0 0 0 0 0 0.17 0" in="SourceGraphic"/>
			<feOffset dx="14.14" dy="14.14"/>
			<feGaussianBlur stdDeviation="11" result="blur0"/>
			<feColorMatrix values="1 0 0 0 0 0 1 0 0 0 0 0 1 0 0 0 0 0 0.25 0" in="SourceGraphic"/>
			<feOffset dx="21.21" dy="21.21"/>
			<feGaussianBlur stdDeviation="20" result="blur1"/>
			<feMerge>
				<feMergeNode in="blur0"/>
				<feMergeNode in="blur1"/>
			</feMerge>
		</filter>
	</defs>
	<g fill="none" fill-rule="nonzero" style="mix-blend-mode: normal">
		<path d="M872.58,512v267.26c0,51.46 -41.85,93.31 -93.31,93.31h-33.4c-42.26,0 -78.04,-28.22 -89.48,-66.81h-288.75c-11.45,38.59 -47.23,66.81 -89.48,66.81h-33.4c-51.46,0 -93.31,-41.85 -93.31,-93.31v-267.26c0,-6.69 1.12,-13.33 3.31,-19.65l69.51,-200.17c0.04,-0.13 0.09,-0.25 0.13,-0.38c15.05,-42.28 55.13,-73.56 103.87,-73.56h23.62v-6.91c0,-33.08 26.82,-59.9 59.9,-59.9h200.45c33.08,0 59.9,26.82 59.9,59.9v6.91h23.62c48,0 89.21,30.63 104.08,74.17l69.43,199.94c2.19,6.32 3.31,12.96 3.31,19.65z" fill="#000000" filter="url(#filter-6HNXZAsH)"/>
		<g color="#ffffff" class="teamapps-effect-color-1">
			<path d="M872.58,512v267.26c0,51.46 -41.85,93.31 -93.31,93.31h-33.4c-42.26,0 -78.04,-28.22 -89.48,-66.81h-288.75c-11.45,38.59 -47.23,66.81 -89.48,66.81h-33.4c-51.46,0 -93.31,-41.85 -93.31,-93.31v-267.26c0,-6.69 1.12,-13.33 3.31,-19.65l69.51,-200.17c0.04,-0.13 0.09,-0.25 0.13,-0.38c15.05,-42.28 55.13,-73.56 103.87,-73.56h23.62v-6.91c0,-33.08 26.82,-59.9 59.9,-59.9h200.45c33.08,0 59.9,26.82 59.9,59.9v6.91h23.62c48,0 89.21,30.63 104.08,74.17l69.43,199.94c2.19,6.32 3.31,12.96 3.31,19.65z" fill="currentColor"/>
		</g>
		<g>
			<g color="#1565c0" class="teamapps-color-1">
				<path d="M812.67,512v267.26c0,18.38 -15.03,33.41 -33.41,33.41h-33.4c-18.38,0 -33.41,-15.03 -33.41,-33.41v-33.4h-400.9v33.4c0,18.38 -15.03,33.41 -33.41,33.41h-33.4c-18.38,0 -33.41,-15.03 -33.41,-33.41v-267.26l69.49,-200.11c7.02,-19.71 25.38,-33.75 47.43,-33.75h83.52v-66.81h200.45v66.81h83.52c22.05,0 40.76,14.04 47.43,33.75zM745.86,478.59l-50.11,-150.34h-367.49l-50.11,150.34zM378.37,595.52c0,-27.73 -22.39,-50.11 -50.11,-50.11c-27.73,0 -50.11,22.39 -50.11,50.11c0,27.73 22.39,50.11 50.11,50.11c27.73,0 50.11,-22.39 50.11,-50.11zM745.86,595.52c0,-27.73 -22.39,-50.11 -50.11,-50.11c-27.73,0 -50.11,22.39 -50.11,50.11c0,27.73 22.39,50.11 50.11,50.11c27.73,0 50.11,-22.39 50.11,-50.11z" fill="currentColor"/>
			</g>
		</g>
	</g>
</svg>