<svg version="1.1" xmlns="http://www.w3.org/2000/svg" xmlns:xlink="http://www.w3.org/1999/xlink" viewBox="0,0,1024,1024">
	<!-- Color names: teamapps-color-1, teamapps-effect-color-1 -->
	<desc>looks_3 icon - Licensed under Apache License v2.0 (http://www.apache.org/licenses/LICENSE-2.0) - Created with Iconfu.com - Derivative work of Material icons (Copyright Google Inc.)</desc>
	<defs>
		<filter id="filter-Gv6j9Mgn" x="-8%" y="-8%" width="147%" height="147%" color-interpolation-filters="sRGB">
			<feColorMatrix values="1 0 0 0 0 0 1 0 0 0 0 0 1 0 0 0 0 0 0.17 0" in="SourceGraphic"/>
			<feOffset dx="14.14" dy="14.14"/>
			<feGaussianBlur stdDeviation="11" result="blur0"/>
			<feColorMatrix values="1 0 0 0 0 0 1 0 0 0 0 0 1 0 0 0 0 0 0.25 0" in="SourceGraphic"/>
			<feOffset dx="21.21" dy="21.21"/>
			<feGaussianBlur stdDeviation="20" result="blur1"/>
			<feMerge>
				<feMergeNode in="blur0"/>
				<feMergeNode in="blur1"/>
			</feMerge>
		</filter>
	</defs>
	<g fill="none" fill-rule="nonzero" style="mix-blend-mode: normal">
		<path d="M872.91,278.14v467.72c0,69.84 -56.9,126.72 -126.73,126.72h-467.71c-69.83,0 -126.72,-56.89 -126.72,-126.72v-467.72c0,-69.83 56.89,-126.72 126.72,-126.72h467.71c69.82,0 126.73,56.88 126.73,126.72z" fill="#000000" filter="url(#filter-Gv6j9Mgn)"/>
		<g color="#ffffff" class="teamapps-effect-color-1">
			<path d="M872.91,278.14v467.72c0,69.84 -56.9,126.72 -126.73,126.72h-467.71c-69.83,0 -126.72,-56.89 -126.72,-126.72v-467.72c0,-69.83 56.89,-126.72 126.72,-126.72h467.71c69.82,0 126.73,56.88 126.73,126.72z" fill="currentColor"/>
		</g>
		<g>
			<g color="#1565c0" class="teamapps-color-1">
				<path d="M813.01,278.14v467.72c0,36.75 -30.08,66.81 -66.82,66.81h-467.71c-36.75,0 -66.81,-30.07 -66.81,-66.81v-467.72c0,-36.75 30.07,-66.81 66.81,-66.81h467.71c36.75,0 66.82,30.07 66.82,66.81zM612.56,411.78c0,-37.08 -30.08,-66.81 -66.82,-66.81h-133.63v66.81h133.63v66.81h-66.81v66.82h66.81v66.81h-133.63v66.81h133.63c36.75,0 66.82,-29.73 66.82,-66.81v-50.11c0,-27.73 -22.39,-50.11 -50.11,-50.11c27.73,0 50.11,-22.39 50.11,-50.11z" fill="currentColor"/>
			</g>
		</g>
	</g>
</svg>