<svg version="1.1" xmlns="http://www.w3.org/2000/svg" xmlns:xlink="http://www.w3.org/1999/xlink" viewBox="0,0,1024,1024">
	<!-- Color names: teamapps-color-1, teamapps-effect-color-1 -->
	<desc>memory icon - Licensed under Apache License v2.0 (http://www.apache.org/licenses/LICENSE-2.0) - Created with Iconfu.com - Derivative work of Material icons (Copyright Google Inc.)</desc>
	<defs>
		<filter id="filter-oT30z73K" x="-8%" y="-8%" width="147%" height="147%" color-interpolation-filters="sRGB">
			<feColorMatrix values="1 0 0 0 0 0 1 0 0 0 0 0 1 0 0 0 0 0 0.17 0" in="SourceGraphic"/>
			<feOffset dx="14.14" dy="14.14"/>
			<feGaussianBlur stdDeviation="11" result="blur0"/>
			<feColorMatrix values="1 0 0 0 0 0 1 0 0 0 0 0 1 0 0 0 0 0 0.25 0" in="SourceGraphic"/>
			<feOffset dx="21.21" dy="21.21"/>
			<feGaussianBlur stdDeviation="20" result="blur1"/>
			<feMerge>
				<feMergeNode in="blur0"/>
				<feMergeNode in="blur1"/>
			</feMerge>
		</filter>
	</defs>
	<g fill="none" fill-rule="nonzero" style="mix-blend-mode: normal">
		<path d="M872.58,545.41v66.81c0,33.08 -26.82,59.9 -59.9,59.9h-6.91v6.91c0,69.83 -56.89,126.73 -126.73,126.73h-6.91v6.91c0,33.08 -26.82,59.9 -59.9,59.9h-66.81c-12.37,0 -23.87,-3.75 -33.41,-10.18c-9.54,6.43 -21.04,10.18 -33.41,10.18h-66.81c-33.08,0 -59.9,-26.82 -59.9,-59.9v-6.91h-6.91c-69.83,0 -126.73,-56.89 -126.73,-126.73v-6.91h-6.91c-33.08,0 -59.9,-26.82 -59.9,-59.9v-66.81c0,-12.37 3.75,-23.87 10.18,-33.41c-6.43,-9.54 -10.18,-21.04 -10.18,-33.41v-66.81c0,-33.08 26.82,-59.9 59.9,-59.9h6.91v-6.91c0,-69.83 56.89,-126.73 126.73,-126.73h6.91v-6.91c0,-33.08 26.82,-59.9 59.9,-59.9h66.81c12.37,0 23.87,3.75 33.41,10.18c9.54,-6.43 21.04,-10.18 33.41,-10.18h66.81c33.08,0 59.9,26.82 59.9,59.9v6.91h6.91c69.83,0 126.73,56.89 126.73,126.73v6.91h6.91c33.08,0 59.9,26.82 59.9,59.9v66.81c0,12.37 -3.75,23.87 -10.18,33.41c6.43,9.54 10.18,21.04 10.18,33.41z" fill="#000000" filter="url(#filter-oT30z73K)"/>
		<g color="#ffffff" class="teamapps-effect-color-1">
			<path d="M872.58,545.41v66.81c0,33.08 -26.82,59.9 -59.9,59.9h-6.91v6.91c0,69.83 -56.89,126.73 -126.73,126.73h-6.91v6.91c0,33.08 -26.82,59.9 -59.9,59.9h-66.81c-12.37,0 -23.87,-3.75 -33.41,-10.18c-9.54,6.43 -21.04,10.18 -33.41,10.18h-66.81c-33.08,0 -59.9,-26.82 -59.9,-59.9v-6.91h-6.91c-69.83,0 -126.73,-56.89 -126.73,-126.73v-6.91h-6.91c-33.08,0 -59.9,-26.82 -59.9,-59.9v-66.81c0,-12.37 3.75,-23.87 10.18,-33.41c-6.43,-9.54 -10.18,-21.04 -10.18,-33.41v-66.81c0,-33.08 26.82,-59.9 59.9,-59.9h6.91v-6.91c0,-69.83 56.89,-126.73 126.73,-126.73h6.91v-6.91c0,-33.08 26.82,-59.9 59.9,-59.9h66.81c12.37,0 23.87,3.75 33.41,10.18c9.54,-6.43 21.04,-10.18 33.41,-10.18h66.81c33.08,0 59.9,26.82 59.9,59.9v6.91h6.91c69.83,0 126.73,56.89 126.73,126.73v6.91h6.91c33.08,0 59.9,26.82 59.9,59.9v66.81c0,12.37 -3.75,23.87 -10.18,33.41c6.43,9.54 10.18,21.04 10.18,33.41z" fill="currentColor"/>
		</g>
		<g>
			<g color="#1565c0" class="teamapps-color-1">
				<path d="M745.86,478.59v66.82h66.81v66.81h-66.81v66.81c0,36.75 -30.08,66.82 -66.82,66.82h-66.81v66.81h-66.81v-66.81h-66.82v66.81h-66.81v-66.81h-66.81c-36.75,0 -66.82,-30.08 -66.82,-66.82v-66.81h-66.81v-66.81h66.81v-66.82h-66.81v-66.81h66.81v-66.81c0,-36.75 30.08,-66.82 66.82,-66.82h66.81v-66.81h66.81v66.81h66.82v-66.81h66.81v66.81h66.81c36.75,0 66.82,30.08 66.82,66.82v66.81h66.81v66.81zM679.04,344.96h-334.07v334.07h334.07zM612.22,612.22h-200.45v-200.45h200.45zM545.41,478.59h-66.82v66.82h66.82z" fill="currentColor"/>
			</g>
		</g>
	</g>
</svg>