<svg version="1.1" xmlns="http://www.w3.org/2000/svg" xmlns:xlink="http://www.w3.org/1999/xlink" viewBox="0,0,1024,1024">
	<!-- Color names: teamapps-color-1, teamapps-effect-color-1 -->
	<desc>money_off icon - Licensed under Apache License v2.0 (http://www.apache.org/licenses/LICENSE-2.0) - Created with Iconfu.com - Derivative work of Material icons (Copyright Google Inc.)</desc>
	<defs>
		<filter id="filter-lCcEbnbr" x="-9%" y="-8%" width="158%" height="147%" color-interpolation-filters="sRGB">
			<feColorMatrix values="1 0 0 0 0 0 1 0 0 0 0 0 1 0 0 0 0 0 0.17 0" in="SourceGraphic"/>
			<feOffset dx="14.14" dy="14.14"/>
			<feGaussianBlur stdDeviation="11" result="blur0"/>
			<feColorMatrix values="1 0 0 0 0 0 1 0 0 0 0 0 1 0 0 0 0 0 0.25 0" in="SourceGraphic"/>
			<feOffset dx="21.21" dy="21.21"/>
			<feGaussianBlur stdDeviation="20" result="blur1"/>
			<feMerge>
				<feMergeNode in="blur0"/>
				<feMergeNode in="blur1"/>
			</feMerge>
		</filter>
	</defs>
	<g fill="none" fill-rule="nonzero" style="mix-blend-mode: normal">
		<path d="M819.62,777.52l-42.42,42.43c-23.39,23.4 -61.33,23.4 -84.72,0l-40.11,-40.11c-4.49,2.13 -9.05,4.1 -13.65,5.92v26.9c0,33.08 -26.82,59.9 -59.9,59.9h-100.22c-33.08,0 -59.9,-26.82 -59.9,-59.9v-28.79c-62.76,-26.61 -118.03,-80.49 -122.85,-168.39c-1.88,-34.32 25.44,-63.18 59.81,-63.18h29.43c-41.23,-26.77 -73.68,-65.32 -81.51,-121.61l-99.19,-99.19c-23.39,-23.39 -23.39,-61.32 0,-84.72l42.42,-42.42c23.4,-23.4 61.34,-23.39 84.73,0.01l54.99,55.03c4.19,-4.24 9.04,-7.88 14.43,-10.76c5.79,-3.09 11.71,-5.93 17.72,-8.52v-28.82c0,-33.08 26.82,-59.9 59.9,-59.9h100.22c33.08,0 59.9,26.82 59.9,59.9v31.45c68.2,33.65 104.41,98.37 107.19,166.56c1.39,34.01 -25.81,62.34 -59.85,62.34h-73.83c-5.41,0 -10.66,-0.72 -15.65,-2.07l223.06,223.21c23.38,23.39 23.37,61.31 -0.01,84.7z" fill="#000000" filter="url(#filter-lCcEbnbr)"/>
		<g color="#ffffff" class="teamapps-effect-color-1">
			<path d="M819.62,777.52l-42.42,42.43c-23.39,23.4 -61.33,23.4 -84.72,0l-40.11,-40.11c-4.49,2.13 -9.05,4.1 -13.65,5.92v26.9c0,33.08 -26.82,59.9 -59.9,59.9h-100.22c-33.08,0 -59.9,-26.82 -59.9,-59.9v-28.79c-62.76,-26.61 -118.03,-80.49 -122.85,-168.39c-1.88,-34.32 25.44,-63.18 59.81,-63.18h29.43c-41.23,-26.77 -73.68,-65.32 -81.51,-121.61l-99.19,-99.19c-23.39,-23.39 -23.39,-61.32 0,-84.72l42.42,-42.42c23.4,-23.4 61.34,-23.39 84.73,0.01l54.99,55.03c4.19,-4.24 9.04,-7.88 14.43,-10.76c5.79,-3.09 11.71,-5.93 17.72,-8.52v-28.82c0,-33.08 26.82,-59.9 59.9,-59.9h100.22c33.08,0 59.9,26.82 59.9,59.9v31.45c68.2,33.65 104.41,98.37 107.19,166.56c1.39,34.01 -25.81,62.34 -59.85,62.34h-73.83c-5.41,0 -10.66,-0.72 -15.65,-2.07l223.06,223.21c23.38,23.39 23.37,61.31 -0.01,84.7z" fill="currentColor"/>
		</g>
		<g>
			<g color="#1565c0" class="teamapps-color-1">
				<path d="M777.26,735.16l-42.42,42.43l-74.17,-74.17c-21.05,19.04 -49.78,31.41 -81.85,37.42v71.82h-100.22v-72.5c-64.14,-13.69 -118.93,-54.79 -122.94,-127.95h73.5c3.67,39.42 30.73,70.16 99.55,70.16c45.77,0 69.49,-14.37 80.85,-30.4l-117.26,-117.26c-78.51,-23.39 -130.63,-61.13 -130.63,-130.62l-114.92,-114.93l42.42,-42.42zM478.26,350.64l-49.11,-49.11c15.03,-8.02 31.73,-14.03 49.44,-18.04v-72.16h100.22v73.16c69.82,17.04 104.9,69.82 107.24,127.28h-73.83c-2,-41.76 -24.05,-70.16 -83.52,-70.16c-20.04,0 -36.75,3.34 -50.44,9.02z" fill="currentColor"/>
			</g>
		</g>
	</g>
</svg>