<svg version="1.1" xmlns="http://www.w3.org/2000/svg" xmlns:xlink="http://www.w3.org/1999/xlink" viewBox="0,0,1024,1024">
	<!-- Color names: teamapps-color-1, teamapps-effect-color-1 -->
	<desc>more_horiz icon - Licensed under Apache License v2.0 (http://www.apache.org/licenses/LICENSE-2.0) - Created with Iconfu.com - Derivative work of Material icons (Copyright Google Inc.)</desc>
	<defs>
		<filter id="filter-4dlOV3L1" x="-9%" y="-23%" width="157%" height="326%" color-interpolation-filters="sRGB">
			<feColorMatrix values="1 0 0 0 0 0 1 0 0 0 0 0 1 0 0 0 0 0 0.17 0" in="SourceGraphic"/>
			<feOffset dx="14.14" dy="14.14"/>
			<feGaussianBlur stdDeviation="11" result="blur0"/>
			<feColorMatrix values="1 0 0 0 0 0 1 0 0 0 0 0 1 0 0 0 0 0 0.25 0" in="SourceGraphic"/>
			<feOffset dx="21.21" dy="21.21"/>
			<feGaussianBlur stdDeviation="20" result="blur1"/>
			<feMerge>
				<feMergeNode in="blur0"/>
				<feMergeNode in="blur1"/>
			</feMerge>
		</filter>
	</defs>
	<g fill="none" fill-rule="nonzero" style="mix-blend-mode: normal">
		<path d="M839.17,512c0,69.83 -56.89,126.72 -126.72,126.72c-40.71,0 -77.02,-19.33 -100.22,-49.29c-23.21,29.96 -59.52,49.29 -100.22,49.29c-40.71,0 -77.02,-19.33 -100.22,-49.29c-23.21,29.96 -59.52,49.29 -100.22,49.29c-69.83,0 -126.72,-56.89 -126.72,-126.72c0,-69.83 56.89,-126.72 126.72,-126.72c40.71,0 77.02,19.33 100.22,49.29c23.21,-29.96 59.52,-49.29 100.22,-49.29c40.71,0 77.02,19.33 100.22,49.29c23.21,-29.96 59.52,-49.29 100.22,-49.29c69.83,0 126.72,56.89 126.72,126.72z" fill="#000000" filter="url(#filter-4dlOV3L1)"/>
		<g color="#ffffff" class="teamapps-effect-color-1">
			<path d="M839.17,512c0,69.83 -56.89,126.72 -126.72,126.72c-40.71,0 -77.02,-19.33 -100.22,-49.29c-23.21,29.96 -59.52,49.29 -100.22,49.29c-40.71,0 -77.02,-19.33 -100.22,-49.29c-23.21,29.96 -59.52,49.29 -100.22,49.29c-69.83,0 -126.72,-56.89 -126.72,-126.72c0,-69.83 56.89,-126.72 126.72,-126.72c40.71,0 77.02,19.33 100.22,49.29c23.21,-29.96 59.52,-49.29 100.22,-49.29c40.71,0 77.02,19.33 100.22,49.29c23.21,-29.96 59.52,-49.29 100.22,-49.29c69.83,0 126.72,56.89 126.72,126.72z" fill="currentColor"/>
		</g>
		<g>
			<g color="#1565c0" class="teamapps-color-1">
				<path d="M378.37,512c0,36.75 -30.07,66.81 -66.81,66.81c-36.75,0 -66.81,-30.07 -66.81,-66.81c0,-36.75 30.07,-66.81 66.81,-66.81c36.75,0 66.81,30.07 66.81,66.81zM779.26,512c0,36.75 -30.07,66.81 -66.81,66.81c-36.75,0 -66.81,-30.07 -66.81,-66.81c0,-36.75 30.07,-66.81 66.81,-66.81c36.75,0 66.81,30.07 66.81,66.81zM578.81,512c0,36.75 -30.07,66.81 -66.81,66.81c-36.75,0 -66.81,-30.07 -66.81,-66.81c0,-36.75 30.07,-66.81 66.81,-66.81c36.75,0 66.81,30.07 66.81,66.81z" fill="currentColor"/>
			</g>
		</g>
	</g>
</svg>