<svg version="1.1" xmlns="http://www.w3.org/2000/svg" xmlns:xlink="http://www.w3.org/1999/xlink" viewBox="0,0,1024,1024">
	<!-- Color names: teamapps-color-1, teamapps-effect-color-1 -->
	<desc>nature icon - Licensed under Apache License v2.0 (http://www.apache.org/licenses/LICENSE-2.0) - Created with Iconfu.com - Derivative work of Material icons (Copyright Google Inc.)</desc>
	<defs>
		<clipPath id="clip-O8CWQaui">
			<path d="M160.59,66.05h779.2v957.95h-779.2z"/>
		</clipPath>
		<filter id="filter-zrTudEM9" x="-10%" y="-8%" width="169%" height="141%" color-interpolation-filters="sRGB">
			<feColorMatrix values="1 0 0 0 0 0 1 0 0 0 0 0 1 0 0 0 0 0 0.17 0" in="SourceGraphic"/>
			<feOffset dx="14.14" dy="14.14"/>
			<feGaussianBlur stdDeviation="11" result="blur0"/>
			<feColorMatrix values="1 0 0 0 0 0 1 0 0 0 0 0 1 0 0 0 0 0 0.25 0" in="SourceGraphic"/>
			<feOffset dx="21.21" dy="21.21"/>
			<feGaussianBlur stdDeviation="20" result="blur1"/>
			<feMerge>
				<feMergeNode in="blur0"/>
				<feMergeNode in="blur1"/>
			</feMerge>
		</filter>
	</defs>
	<g fill="none" fill-rule="nonzero" style="mix-blend-mode: normal">
		<g clip-path="url(#clip-O8CWQaui)">
			<path d="M745.86,719.36c33.08,0 59.9,26.82 59.9,59.9v66.82c0,33.08 -26.82,59.9 -59.9,59.9h-467.72c-33.08,0 -59.9,-26.82 -59.9,-59.9v-66.82c0,-33.08 26.82,-59.9 59.9,-59.9h140.54v-25.59c-113.56,-40.43 -194.76,-148.7 -194.76,-276.32c0,-162.37 131.38,-293.75 293.75,-293.75c162.37,0 293.76,131.38 293.76,293.75c0,131.91 -86.82,243.16 -206.12,280.41v21.49z" fill="#000000" filter="url(#filter-zrTudEM9)"/>
		</g>
		<g color="#ffffff" class="teamapps-effect-color-1">
			<path d="M745.86,719.36c33.08,0 59.9,26.82 59.9,59.9v66.82c0,33.08 -26.82,59.9 -59.9,59.9h-467.72c-33.08,0 -59.9,-26.82 -59.9,-59.9v-66.82c0,-33.08 26.82,-59.9 59.9,-59.9h140.54v-25.59c-113.56,-40.43 -194.76,-148.7 -194.76,-276.32c0,-162.37 131.38,-293.75 293.75,-293.75c162.37,0 293.76,131.38 293.76,293.75c0,131.91 -86.82,243.16 -206.12,280.41v21.49z" fill="currentColor"/>
		</g>
		<g>
			<g color="#1565c0" class="teamapps-color-1">
				<path d="M545.41,779.26h200.45v66.82h-467.72v-66.82h200.45v-131.62c-110.58,-18.38 -194.76,-114.26 -194.76,-230.19c0,-129.29 104.56,-233.85 233.85,-233.85c129.29,0 233.86,104.56 233.86,233.85c0,119.93 -90.2,218.5 -206.12,232.19z" fill="currentColor"/>
			</g>
		</g>
	</g>
</svg>