<svg version="1.1" xmlns="http://www.w3.org/2000/svg" xmlns:xlink="http://www.w3.org/1999/xlink" viewBox="0,0,1024,1024">
	<!-- Color names: teamapps-color-1, teamapps-effect-color-1 -->
	<desc>no_encryption icon - Licensed under Apache License v2.0 (http://www.apache.org/licenses/LICENSE-2.0) - Created with Iconfu.com - Derivative work of Material icons (Copyright Google Inc.)</desc>
	<defs>
		<clipPath id="clip-aTNX04ra">
			<path d="M93.78,26.97h907.15v997.03h-907.15z"/>
		</clipPath>
		<filter id="filter-57fjBFUS" x="-8%" y="-7%" width="147%" height="132%" color-interpolation-filters="sRGB">
			<feColorMatrix values="1 0 0 0 0 0 1 0 0 0 0 0 1 0 0 0 0 0 0.17 0" in="SourceGraphic"/>
			<feOffset dx="14.14" dy="14.14"/>
			<feGaussianBlur stdDeviation="11" result="blur0"/>
			<feColorMatrix values="1 0 0 0 0 0 1 0 0 0 0 0 1 0 0 0 0 0 0.25 0" in="SourceGraphic"/>
			<feOffset dx="21.21" dy="21.21"/>
			<feGaussianBlur stdDeviation="20" result="blur1"/>
			<feMerge>
				<feMergeNode in="blur0"/>
				<feMergeNode in="blur1"/>
			</feMerge>
		</filter>
	</defs>
	<g fill="none" fill-rule="nonzero" style="mix-blend-mode: normal">
		<g clip-path="url(#clip-aTNX04ra)">
			<path d="M729.56,921.85l-15.87,-15.87l-402.14,0.01c-69.84,0 -126.72,-56.9 -126.72,-126.73v-334.07c0,-19.9 4.63,-38.63 12.8,-55.26l-28.66,-28.66c-23.39,-23.39 -23.39,-61.32 0,-84.71l40.76,-40.76c23.39,-23.4 61.33,-23.4 84.72,0l3.29,3.29c30.06,-89.3 113.81,-154.47 214.26,-154.47c125.29,0 226.94,101.65 226.94,226.94v9.7c57.18,12.23 100.22,63.19 100.22,123.93v278.62c0,15.42 -5.91,29.87 -15.97,40.73l31.84,31.84c23.39,23.39 23.39,61.32 0,84.72l-40.76,40.76c-23.39,23.39 -61.32,23.39 -84.71,0z" fill="#000000" filter="url(#filter-57fjBFUS)"/>
		</g>
		<g color="#ffffff" class="teamapps-effect-color-1">
			<path d="M729.56,921.85l-15.87,-15.87l-402.14,0.01c-69.84,0 -126.72,-56.9 -126.72,-126.73v-334.07c0,-19.9 4.63,-38.63 12.8,-55.26l-28.66,-28.66c-23.39,-23.39 -23.39,-61.32 0,-84.71l40.76,-40.76c23.39,-23.4 61.33,-23.4 84.72,0l3.29,3.29c30.06,-89.3 113.81,-154.47 214.26,-154.47c125.29,0 226.94,101.65 226.94,226.94v9.7c57.18,12.23 100.22,63.19 100.22,123.93v278.62c0,15.42 -5.91,29.87 -15.97,40.73l31.84,31.84c23.39,23.39 23.39,61.32 0,84.72l-40.76,40.76c-23.39,23.39 -61.32,23.39 -84.71,0z" fill="currentColor"/>
		</g>
		<g>
			<g color="#1565c0" class="teamapps-color-1">
				<path d="M771.92,879.49l-37.42,-37.41c-7.02,2.34 -14.37,4.01 -22.05,4.01h-400.9c-36.75,0 -66.81,-30.08 -66.81,-66.82v-334.07c0,-25.06 14.03,-46.77 34.74,-58.13l-68.15,-68.15l40.76,-40.76l560.59,560.59zM408.43,352.98l-61.47,-61.47c10.02,-82.52 79.51,-146.99 165.03,-146.99c92.21,0 167.04,74.83 167.04,167.04v66.81h33.41c36.75,0 66.81,30.08 66.81,66.82v278.62l-345.44,-345.44h181.74v-66.81c0,-57.13 -46.44,-103.57 -103.57,-103.57c-57.13,0 -103.57,46.44 -103.57,103.57z" fill="currentColor"/>
			</g>
		</g>
	</g>
</svg>