<svg version="1.1" xmlns="http://www.w3.org/2000/svg" xmlns:xlink="http://www.w3.org/1999/xlink" viewBox="0,0,1024,1024">
	<!-- Color names: teamapps-color-1, teamapps-effect-color-1 -->
	<desc>notifications_active icon - Licensed under Apache License v2.0 (http://www.apache.org/licenses/LICENSE-2.0) - Created with Iconfu.com - Derivative work of Material icons (Copyright Google Inc.)</desc>
	<defs>
		<clipPath id="clip-TK1Bd3x6">
			<path d="M61.37,77.08h962.63v946.92h-962.63z"/>
		</clipPath>
		<filter id="filter-1Vc3439I" x="-8%" y="-8%" width="140%" height="143%" color-interpolation-filters="sRGB">
			<feColorMatrix values="1 0 0 0 0 0 1 0 0 0 0 0 1 0 0 0 0 0 0.17 0" in="SourceGraphic"/>
			<feOffset dx="14.14" dy="14.14"/>
			<feGaussianBlur stdDeviation="11" result="blur0"/>
			<feColorMatrix values="1 0 0 0 0 0 1 0 0 0 0 0 1 0 0 0 0 0 0.25 0" in="SourceGraphic"/>
			<feOffset dx="21.21" dy="21.21"/>
			<feGaussianBlur stdDeviation="20" result="blur1"/>
			<feMerge>
				<feMergeNode in="blur0"/>
				<feMergeNode in="blur1"/>
			</feMerge>
		</filter>
	</defs>
	<g fill="none" fill-rule="nonzero" style="mix-blend-mode: normal">
		<g clip-path="url(#clip-TK1Bd3x6)">
			<path d="M772.35,620.82l49.27,49.27c11.23,11.23 17.55,26.47 17.55,42.36v33.41c0,33.08 -26.82,59.9 -59.9,59.9h-143.53c-1.58,7.65 -3.88,15.21 -6.97,22.61c-0.09,0.22 -0.18,0.44 -0.28,0.66c-16.24,37.48 -49.49,65.31 -90.11,74.19c-9.95,2.25 -18.94,2.77 -26.38,2.77c-61.43,0 -111.8,-43.36 -124.15,-100.22h-143.11c-33.08,0 -59.9,-26.82 -59.9,-59.9v-33.41c0,-15.89 6.31,-31.12 17.55,-42.36l49.27,-49.27v-99.32c-1.94,0.19 -3.91,0.29 -5.91,0.29h-66.82c-34.11,0 -61.34,-28.44 -59.85,-62.52c5.49,-125.45 67.51,-235.85 161.17,-307.27c23.85,-18.19 57.47,-15.93 78.68,5.28l49.68,49.77c15.37,-42.22 55.84,-72.32 103.4,-72.32c47.66,0 88.2,30.23 103.5,72.58l49.44,-49.88c21.22,-21.37 55.01,-23.66 78.92,-5.35c93.26,71.41 155.19,181.71 161.06,307.01c1.6,34.15 -25.65,62.71 -59.84,62.71h-66.82c-1.99,0 -3.96,-0.1 -5.91,-0.29z" fill="#000000" filter="url(#filter-1Vc3439I)"/>
		</g>
		<g color="#ffffff" class="teamapps-effect-color-1">
			<path d="M772.35,620.82l49.27,49.27c11.23,11.23 17.55,26.47 17.55,42.36v33.41c0,33.08 -26.82,59.9 -59.9,59.9h-143.53c-1.58,7.65 -3.88,15.21 -6.97,22.61c-0.09,0.22 -0.18,0.44 -0.28,0.66c-16.24,37.48 -49.49,65.31 -90.11,74.19c-9.95,2.25 -18.94,2.77 -26.38,2.77c-61.43,0 -111.8,-43.36 -124.15,-100.22h-143.11c-33.08,0 -59.9,-26.82 -59.9,-59.9v-33.41c0,-15.89 6.31,-31.12 17.55,-42.36l49.27,-49.27v-99.32c-1.94,0.19 -3.91,0.29 -5.91,0.29h-66.82c-34.11,0 -61.34,-28.44 -59.85,-62.52c5.49,-125.45 67.51,-235.85 161.17,-307.27c23.85,-18.19 57.47,-15.93 78.68,5.28l49.68,49.77c15.37,-42.22 55.84,-72.32 103.4,-72.32c47.66,0 88.2,30.23 103.5,72.58l49.44,-49.88c21.22,-21.37 55.01,-23.66 78.92,-5.35c93.26,71.41 155.19,181.71 161.06,307.01c1.6,34.15 -25.65,62.71 -59.84,62.71h-66.82c-1.99,0 -3.96,-0.1 -5.91,-0.29z" fill="currentColor"/>
		</g>
		<g>
			<g color="#1565c0" class="teamapps-color-1">
				<path d="M712.45,645.63l66.81,66.81v33.41h-534.52v-33.41l66.81,-66.81v-167.05c0,-102.89 54.46,-188.42 150.34,-211.14v-22.71c0,-27.73 22.39,-50.11 50.11,-50.11c27.73,0 50.11,22.39 50.11,50.11v22.71c95.55,22.71 150.34,108.57 150.34,211.14zM245.74,461.89h-66.82c4.67,-106.9 57.46,-201.11 137.64,-262.25l47.77,47.77c-68.15,48.44 -113.58,125.95 -118.59,214.48zM659.99,247.41l47.44,-47.77c79.84,61.14 132.63,155.35 137.64,262.25h-66.82c-5.01,-88.53 -50.78,-166.04 -118.26,-214.48zM444.85,779.26h133.63c0,9.36 -1.67,18.04 -5.01,26.06c-8.68,20.04 -26.39,34.75 -48.11,39.42c-4.35,1 -8.69,1.34 -13.37,1.34c-37.08,0 -66.81,-30.08 -67.15,-66.82z" fill="currentColor"/>
			</g>
		</g>
	</g>
</svg>