<svg version="1.1" xmlns="http://www.w3.org/2000/svg" xmlns:xlink="http://www.w3.org/1999/xlink" viewBox="0,0,1024,1024">
	<!-- Color names: teamapps-color-1, teamapps-effect-color-1 -->
	<desc>panorama_vertical icon - Licensed under Apache License v2.0 (http://www.apache.org/licenses/LICENSE-2.0) - Created with Iconfu.com - Derivative work of Material icons (Copyright Google Inc.)</desc>
	<defs>
		<clipPath id="clip-gDvge8x7">
			<path d="M127.19,60.37h840.67v963.63h-840.67z"/>
		</clipPath>
		<filter id="filter-GsfrD1tu" x="-9%" y="-8%" width="157%" height="140%" color-interpolation-filters="sRGB">
			<feColorMatrix values="1 0 0 0 0 0 1 0 0 0 0 0 1 0 0 0 0 0 0.17 0" in="SourceGraphic"/>
			<feOffset dx="14.14" dy="14.14"/>
			<feGaussianBlur stdDeviation="11" result="blur0"/>
			<feColorMatrix values="1 0 0 0 0 0 1 0 0 0 0 0 1 0 0 0 0 0 0.25 0" in="SourceGraphic"/>
			<feOffset dx="21.21" dy="21.21"/>
			<feGaussianBlur stdDeviation="20" result="blur1"/>
			<feMerge>
				<feMergeNode in="blur0"/>
				<feMergeNode in="blur1"/>
			</feMerge>
		</filter>
	</defs>
	<g fill="none" fill-rule="nonzero" style="mix-blend-mode: normal">
		<g clip-path="url(#clip-gDvge8x7)">
			<path d="M839.5,827.04c0,48.36 -39.26,78.95 -80.95,78.95h-492.77c-42.76,0 -80.95,-31.26 -80.95,-78.95c0,-10.52 2.07,-21.73 6.59,-32.58c33.6,-91.13 50.54,-186.82 50.54,-282.46c0,-96.12 -17.11,-192.24 -51.33,-283.69c-0.05,-0.14 -0.1,-0.27 -0.15,-0.41c-3.19,-8.75 -5.65,-19.16 -5.65,-30.94c0,-48.75 38.98,-78.95 80.95,-78.95h492.43c41.97,0 80.95,30.19 80.95,78.95c0,11.03 -2.27,21.67 -5.63,30.88c-0.03,0.09 -0.06,0.18 -0.1,0.26c-33.94,91.55 -51.07,187.77 -51.07,283.9c0,96.25 16.82,192.36 50.99,283.69c0.05,0.14 0.1,0.27 0.15,0.41c3.26,8.94 4.92,17.3 5.69,24.94c0.2,1.99 0.3,4 0.3,6z" fill="#000000" filter="url(#filter-GsfrD1tu)"/>
		</g>
		<g color="#ffffff" class="teamapps-effect-color-1">
			<path d="M839.5,827.04c0,48.36 -39.26,78.95 -80.95,78.95h-492.77c-42.76,0 -80.95,-31.26 -80.95,-78.95c0,-10.52 2.07,-21.73 6.59,-32.58c33.6,-91.13 50.54,-186.82 50.54,-282.46c0,-96.12 -17.11,-192.24 -51.33,-283.69c-0.05,-0.14 -0.1,-0.27 -0.15,-0.41c-3.19,-8.75 -5.65,-19.16 -5.65,-30.94c0,-48.75 38.98,-78.95 80.95,-78.95h492.43c41.97,0 80.95,30.19 80.95,78.95c0,11.03 -2.27,21.67 -5.63,30.88c-0.03,0.09 -0.06,0.18 -0.1,0.26c-33.94,91.55 -51.07,187.77 -51.07,283.9c0,96.25 16.82,192.36 50.99,283.69c0.05,0.14 0.1,0.27 0.15,0.41c3.26,8.94 4.92,17.3 5.69,24.94c0.2,1.99 0.3,4 0.3,6z" fill="currentColor"/>
		</g>
		<g>
			<g color="#1565c0" class="teamapps-color-1">
				<path d="M779.6,827.04c0,11.02 -8.02,19.04 -21.05,19.04h-492.77c-13.37,0 -21.05,-8.02 -21.05,-19.04c0,-3.01 0.67,-6.69 2.33,-10.36c36.42,-98.22 54.79,-201.45 54.79,-304.68c0,-103.23 -18.38,-206.46 -55.12,-304.68c-1.34,-3.67 -2,-7.02 -2,-10.36c0,-11.36 7.68,-19.04 21.05,-19.04h492.43c13.37,0 21.05,7.68 21.05,19.04c0,3.01 -0.67,6.69 -2,10.36c-36.42,98.22 -54.79,201.45 -54.79,304.68c0,103.23 18.04,206.46 54.79,304.68c1.34,3.67 2,7.02 2.34,10.36zM694.07,779.26c-25.72,-86.86 -38.75,-176.39 -38.75,-267.26c0,-90.87 13.03,-180.4 38.75,-267.26h-364.48c25.72,86.86 38.75,176.39 38.75,267.26c0,90.87 -13.03,180.4 -38.75,267.26z" fill="currentColor"/>
			</g>
		</g>
	</g>
</svg>