<svg version="1.1" xmlns="http://www.w3.org/2000/svg" xmlns:xlink="http://www.w3.org/1999/xlink" viewBox="0,0,1024,1024">
	<!-- Color names: teamapps-color-1, teamapps-effect-color-1 -->
	<desc>perm_scan_wifi icon - Licensed under Apache License v2.0 (http://www.apache.org/licenses/LICENSE-2.0) - Created with Iconfu.com - Derivative work of Material icons (Copyright Google Inc.)</desc>
	<defs>
		<clipPath id="clip-IepgOisk">
			<path d="M0,1024v-930.22h1024v930.22z"/>
		</clipPath>
		<filter id="filter-od9iegJ0" x="-7%" y="-8%" width="127%" height="146%" color-interpolation-filters="sRGB">
			<feColorMatrix values="1 0 0 0 0 0 1 0 0 0 0 0 1 0 0 0 0 0 0.17 0" in="SourceGraphic"/>
			<feOffset dx="14.14" dy="14.14"/>
			<feGaussianBlur stdDeviation="11" result="blur0"/>
			<feColorMatrix values="1 0 0 0 0 0 1 0 0 0 0 0 1 0 0 0 0 0 0.25 0" in="SourceGraphic"/>
			<feOffset dx="21.21" dy="21.21"/>
			<feGaussianBlur stdDeviation="20" result="blur1"/>
			<feMerge>
				<feMergeNode in="blur0"/>
				<feMergeNode in="blur1"/>
			</feMerge>
		</filter>
	</defs>
	<g fill="none" fill-rule="nonzero" style="mix-blend-mode: normal">
		<g clip-path="url(#clip-IepgOisk)">
			<path d="M959.36,391.11l-400.9,492.77c-11.38,13.99 -28.46,22.11 -46.49,22.1c-18.03,-0.01 -35.1,-8.13 -46.47,-22.13l-400.9,-493.44c-21.38,-26.32 -16.68,-65.13 10.38,-85.57c112.5,-85 251.81,-153.42 437.01,-153.42c185.36,0 324.68,69.22 437.01,154.09c27.07,20.45 31.77,59.28 10.36,85.6z" fill="#000000" filter="url(#filter-od9iegJ0)"/>
		</g>
		<g color="#ffffff" class="teamapps-effect-color-1">
			<path d="M959.36,391.11l-400.9,492.77c-11.38,13.99 -28.46,22.11 -46.49,22.1c-18.03,-0.01 -35.1,-8.13 -46.47,-22.13l-400.9,-493.44c-21.38,-26.32 -16.68,-65.13 10.38,-85.57c112.5,-85 251.81,-153.42 437.01,-153.42c185.36,0 324.68,69.22 437.01,154.09c27.07,20.45 31.77,59.28 10.36,85.6z" fill="currentColor"/>
		</g>
		<g>
			<g color="#1565c0" class="teamapps-color-1">
				<path d="M912.9,353.31l-400.9,492.77l-400.9,-493.44c105.24,-79.51 232.18,-141.32 400.9,-141.32c168.71,0 295.66,62.47 400.9,141.98zM545.41,445.19h-66.82v200.45h66.82zM545.41,378.37v-66.81h-66.82v66.81z" fill="currentColor"/>
			</g>
		</g>
	</g>
</svg>