<svg version="1.1" xmlns="http://www.w3.org/2000/svg" xmlns:xlink="http://www.w3.org/1999/xlink" viewBox="0,0,1024,1024">
	<!-- Color names: teamapps-color-1, teamapps-effect-color-1 -->
	<desc>person_pin_circle icon - Licensed under Apache License v2.0 (http://www.apache.org/licenses/LICENSE-2.0) - Created with Iconfu.com - Derivative work of Material icons (Copyright Google Inc.)</desc>
	<defs>
		<clipPath id="clip-jPhqJXZu">
			<path d="M160.59,60.37h773.53v963.63h-773.53z"/>
		</clipPath>
		<filter id="filter-o8SvcDTn" x="-10%" y="-8%" width="169%" height="140%" color-interpolation-filters="sRGB">
			<feColorMatrix values="1 0 0 0 0 0 1 0 0 0 0 0 1 0 0 0 0 0 0.17 0" in="SourceGraphic"/>
			<feOffset dx="14.14" dy="14.14"/>
			<feGaussianBlur stdDeviation="11" result="blur0"/>
			<feColorMatrix values="1 0 0 0 0 0 1 0 0 0 0 0 1 0 0 0 0 0 0.25 0" in="SourceGraphic"/>
			<feOffset dx="21.21" dy="21.21"/>
			<feGaussianBlur stdDeviation="20" result="blur1"/>
			<feMerge>
				<feMergeNode in="blur0"/>
				<feMergeNode in="blur1"/>
			</feMerge>
		</filter>
	</defs>
	<g fill="none" fill-rule="nonzero" style="mix-blend-mode: normal">
		<g clip-path="url(#clip-jPhqJXZu)">
			<path d="M805.76,411.78c0,198.44 -249.31,474.46 -249.31,474.46c-11.36,12.57 -27.51,19.75 -44.45,19.75c-16.94,0 -33.1,-7.18 -44.45,-19.75c0,0 -249.31,-276.02 -249.31,-474.46c0,-162.04 131.73,-293.76 293.76,-293.76c162.04,0 293.76,131.73 293.76,293.76z" fill="#000000" filter="url(#filter-o8SvcDTn)"/>
		</g>
		<g color="#ffffff" class="teamapps-effect-color-1">
			<path d="M805.76,411.78c0,198.44 -249.31,474.46 -249.31,474.46c-11.36,12.57 -27.51,19.75 -44.45,19.75c-16.94,0 -33.1,-7.18 -44.45,-19.75c0,0 -249.31,-276.02 -249.31,-474.46c0,-162.04 131.73,-293.76 293.76,-293.76c162.04,0 293.76,131.73 293.76,293.76z" fill="currentColor"/>
		</g>
		<g>
			<g color="#1565c0" class="teamapps-color-1">
				<path d="M745.86,411.78c0,175.39 -233.86,434.31 -233.86,434.31c0,0 -233.86,-258.91 -233.86,-434.31c0,-128.95 104.91,-233.86 233.86,-233.86c128.95,0 233.86,104.91 233.86,233.86zM645.63,506.99c-0.67,-44.1 -89.2,-68.49 -133.63,-68.49c-44.44,0 -132.97,24.39 -133.63,68.49c28.73,43.43 77.85,71.82 133.63,71.82c55.79,0 104.91,-28.39 133.63,-71.82zM445.19,311.55c0,37.08 30.07,66.81 66.81,66.81c36.75,0 66.81,-29.73 66.81,-66.81c0,-36.75 -30.07,-66.81 -66.81,-66.81c-36.75,0 -66.81,30.07 -66.81,66.81z" fill="currentColor"/>
			</g>
		</g>
	</g>
</svg>