<svg version="1.1" xmlns="http://www.w3.org/2000/svg" xmlns:xlink="http://www.w3.org/1999/xlink" viewBox="0,0,1024,1024">
	<!-- Color names: teamapps-color-1, teamapps-effect-color-1 -->
	<desc>person_add icon - Licensed under Apache License v2.0 (http://www.apache.org/licenses/LICENSE-2.0) - Created with Iconfu.com - Derivative work of Material icons (Copyright Google Inc.)</desc>
	<defs>
		<clipPath id="clip-FJF6kJZf">
			<path d="M26.97,967.52v-840.33h997.03v840.33z"/>
		</clipPath>
		<filter id="filter-jqKXbhlO" x="-7%" y="-9%" width="132%" height="157%" color-interpolation-filters="sRGB">
			<feColorMatrix values="1 0 0 0 0 0 1 0 0 0 0 0 1 0 0 0 0 0 0.17 0" in="SourceGraphic"/>
			<feOffset dx="14.14" dy="14.14"/>
			<feGaussianBlur stdDeviation="11" result="blur0"/>
			<feColorMatrix values="1 0 0 0 0 0 1 0 0 0 0 0 1 0 0 0 0 0 0.25 0" in="SourceGraphic"/>
			<feOffset dx="21.21" dy="21.21"/>
			<feGaussianBlur stdDeviation="20" result="blur1"/>
			<feMerge>
				<feMergeNode in="blur0"/>
				<feMergeNode in="blur1"/>
			</feMerge>
		</filter>
	</defs>
	<g fill="none" fill-rule="nonzero" style="mix-blend-mode: normal">
		<g clip-path="url(#clip-FJF6kJZf)">
			<path d="M939.39,712.45v66.81c0,33.08 -26.82,59.9 -59.9,59.9h-534.52c-33.08,0 -59.9,-26.82 -59.9,-59.9v-66.81c0,-14.44 2.18,-27.86 6.19,-40.32h-46.51c-33.08,0 -59.9,-26.82 -59.9,-59.9v-40.32h-40.32c-33.08,0 -59.9,-26.82 -59.9,-59.9v-66.81c0,-33.08 26.82,-59.9 59.9,-59.9h40.32v-40.32c0,-33.08 26.82,-59.9 59.9,-59.9h66.81c33.08,0 59.9,26.82 59.9,59.9v40.32h40.32c2.38,0 4.73,0.14 7.05,0.41c-0.09,-2.43 -0.14,-4.87 -0.14,-7.33c0,-106.92 86.63,-193.53 193.54,-193.53c106.91,0 193.54,86.61 193.54,193.53c0,63.84 -30.88,120.44 -78.53,155.69c97,22.35 212.15,73.4 212.15,178.39z" fill="#000000" filter="url(#filter-jqKXbhlO)"/>
		</g>
		<g color="#ffffff" class="teamapps-effect-color-1">
			<path d="M939.39,712.45v66.81c0,33.08 -26.82,59.9 -59.9,59.9h-534.52c-33.08,0 -59.9,-26.82 -59.9,-59.9v-66.81c0,-14.44 2.18,-27.86 6.19,-40.32h-46.51c-33.08,0 -59.9,-26.82 -59.9,-59.9v-40.32h-40.32c-33.08,0 -59.9,-26.82 -59.9,-59.9v-66.81c0,-33.08 26.82,-59.9 59.9,-59.9h40.32v-40.32c0,-33.08 26.82,-59.9 59.9,-59.9h66.81c33.08,0 59.9,26.82 59.9,59.9v40.32h40.32c2.38,0 4.73,0.14 7.05,0.41c-0.09,-2.43 -0.14,-4.87 -0.14,-7.33c0,-106.92 86.63,-193.53 193.54,-193.53c106.91,0 193.54,86.61 193.54,193.53c0,63.84 -30.88,120.44 -78.53,155.69c97,22.35 212.15,73.4 212.15,178.39z" fill="currentColor"/>
		</g>
		<g>
			<g color="#1565c0" class="teamapps-color-1">
				<path d="M879.49,712.45v66.81h-534.52v-66.81c0,-88.86 178.06,-133.63 267.26,-133.63c89.2,0 267.26,44.77 267.26,133.63zM478.59,378.37c0,-73.83 59.81,-133.63 133.63,-133.63c73.83,0 133.63,59.8 133.63,133.63c0,73.83 -59.81,133.63 -133.63,133.63c-73.83,0 -133.63,-59.81 -133.63,-133.63zM411.78,445.19v66.81h-100.22v100.22h-66.81v-100.22h-100.22v-66.81h100.22v-100.22h66.81v100.22z" fill="currentColor"/>
			</g>
		</g>
	</g>
</svg>