<svg version="1.1" xmlns="http://www.w3.org/2000/svg" xmlns:xlink="http://www.w3.org/1999/xlink" viewBox="0,0,1024,1024">
	<!-- Color names: teamapps-color-1, teamapps-effect-color-1 -->
	<desc>phonelink icon - Licensed under Apache License v2.0 (http://www.apache.org/licenses/LICENSE-2.0) - Created with Iconfu.com - Derivative work of Material icons (Copyright Google Inc.)</desc>
	<defs>
		<clipPath id="clip-U8oss3XN">
			<path d="M0,127.19h1024v840.33h-1024z"/>
		</clipPath>
		<filter id="filter-I7M1vIhz" x="-7%" y="-9%" width="127%" height="157%" color-interpolation-filters="sRGB">
			<feColorMatrix values="1 0 0 0 0 0 1 0 0 0 0 0 1 0 0 0 0 0 0.17 0" in="SourceGraphic"/>
			<feOffset dx="14.14" dy="14.14"/>
			<feGaussianBlur stdDeviation="11" result="blur0"/>
			<feColorMatrix values="1 0 0 0 0 0 1 0 0 0 0 0 1 0 0 0 0 0 0.25 0" in="SourceGraphic"/>
			<feOffset dx="21.21" dy="21.21"/>
			<feGaussianBlur stdDeviation="20" result="blur1"/>
			<feMerge>
				<feMergeNode in="blur0"/>
				<feMergeNode in="blur1"/>
			</feMerge>
		</filter>
	</defs>
	<g fill="none" fill-rule="nonzero" style="mix-blend-mode: normal">
		<g clip-path="url(#clip-U8oss3XN)">
			<path d="M578.81,839.17h-467.71c-33.08,0 -59.9,-26.82 -59.9,-59.9v-100.22c0,-33.08 26.82,-59.9 59.9,-59.9h6.91v-307.58c0,-69.84 56.9,-126.72 126.73,-126.72h601.34c33.08,0 59.9,26.82 59.9,59.9v66.81c0,3.57 -0.31,7.07 -0.91,10.47c39.06,11.15 67.73,47.16 67.73,89.75v334.08c0,51.48 -41.87,93.31 -93.31,93.31h-200.45c-21.19,0 -40.75,-7.09 -56.43,-19.03c-10.93,11.71 -26.51,19.03 -43.8,19.03z" fill="#000000" filter="url(#filter-I7M1vIhz)"/>
		</g>
		<g color="#ffffff" class="teamapps-effect-color-1">
			<path d="M578.81,839.17h-467.71c-33.08,0 -59.9,-26.82 -59.9,-59.9v-100.22c0,-33.08 26.82,-59.9 59.9,-59.9h6.91v-307.58c0,-69.84 56.9,-126.72 126.73,-126.72h601.34c33.08,0 59.9,26.82 59.9,59.9v66.81c0,3.57 -0.31,7.07 -0.91,10.47c39.06,11.15 67.73,47.16 67.73,89.75v334.08c0,51.48 -41.87,93.31 -93.31,93.31h-200.45c-21.19,0 -40.75,-7.09 -56.43,-19.03c-10.93,11.71 -26.51,19.03 -43.8,19.03z" fill="currentColor"/>
		</g>
		<g>
			<g color="#1565c0" class="teamapps-color-1">
				<path d="M244.74,679.04h334.07v100.22h-467.71v-100.22h66.81v-367.49c0,-36.75 30.08,-66.81 66.82,-66.81h601.34v66.81h-601.34zM912.9,411.78v334.08c0,18.38 -15.03,33.4 -33.41,33.4h-200.45c-18.38,0 -33.4,-15.03 -33.4,-33.4v-334.08c0,-18.38 15.03,-33.41 33.4,-33.41h200.45c18.38,0 33.41,15.03 33.41,33.41zM846.08,445.19h-133.63v233.85h133.63z" fill="currentColor"/>
			</g>
		</g>
	</g>
</svg>