<svg version="1.1" xmlns="http://www.w3.org/2000/svg" xmlns:xlink="http://www.w3.org/1999/xlink" viewBox="0,0,1024,1024">
	<!-- Color names: teamapps-color-1, teamapps-effect-color-1 -->
	<desc>phone_android icon - Licensed under Apache License v2.0 (http://www.apache.org/licenses/LICENSE-2.0) - Created with Iconfu.com - Derivative work of Material icons (Copyright Google Inc.)</desc>
	<defs>
		<clipPath id="clip-ao0EaUDt">
			<path d="M160.59,26.97h773.53v997.03h-773.53z"/>
		</clipPath>
		<filter id="filter-kOwfcdp9" x="-10%" y="-7%" width="169%" height="132%" color-interpolation-filters="sRGB">
			<feColorMatrix values="1 0 0 0 0 0 1 0 0 0 0 0 1 0 0 0 0 0 0.17 0" in="SourceGraphic"/>
			<feOffset dx="14.14" dy="14.14"/>
			<feGaussianBlur stdDeviation="11" result="blur0"/>
			<feColorMatrix values="1 0 0 0 0 0 1 0 0 0 0 0 1 0 0 0 0 0 0.25 0" in="SourceGraphic"/>
			<feOffset dx="21.21" dy="21.21"/>
			<feGaussianBlur stdDeviation="20" result="blur1"/>
			<feMerge>
				<feMergeNode in="blur0"/>
				<feMergeNode in="blur1"/>
			</feMerge>
		</filter>
	</defs>
	<g fill="none" fill-rule="nonzero" style="mix-blend-mode: normal">
		<g clip-path="url(#clip-ao0EaUDt)">
			<path d="M805.76,244.74v534.52c0,88.54 -71.58,160.13 -160.13,160.13h-267.27c-88.54,0 -160.13,-71.58 -160.13,-160.13v-534.52c0,-88.54 71.58,-160.13 160.13,-160.13h267.27c88.54,0 160.13,71.58 160.13,160.13z" fill="#000000" filter="url(#filter-kOwfcdp9)"/>
		</g>
		<g color="#ffffff" class="teamapps-effect-color-1">
			<path d="M805.76,244.74v534.52c0,88.54 -71.58,160.13 -160.13,160.13h-267.27c-88.54,0 -160.13,-71.58 -160.13,-160.13v-534.52c0,-88.54 71.58,-160.13 160.13,-160.13h267.27c88.54,0 160.13,71.58 160.13,160.13z" fill="currentColor"/>
		</g>
		<g>
			<g color="#1565c0" class="teamapps-color-1">
				<path d="M745.86,244.74v534.52c0,55.46 -44.76,100.22 -100.22,100.22h-267.27c-55.46,0 -100.22,-44.76 -100.22,-100.22v-534.52c0,-55.46 44.76,-100.22 100.22,-100.22h267.27c55.46,0 100.22,44.76 100.22,100.22zM687.39,244.74h-350.78v467.71h350.78zM578.81,779.26h-133.63v33.41h133.63z" fill="currentColor"/>
			</g>
		</g>
	</g>
</svg>