<svg version="1.1" xmlns="http://www.w3.org/2000/svg" xmlns:xlink="http://www.w3.org/1999/xlink" viewBox="0,0,1024,1024">
	<!-- Color names: teamapps-color-1, teamapps-effect-color-1 -->
	<desc>phonelink_setup icon - Licensed under Apache License v2.0 (http://www.apache.org/licenses/LICENSE-2.0) - Created with Iconfu.com - Derivative work of Material icons (Copyright Google Inc.)</desc>
	<defs>
		<clipPath id="clip-GJjpPAMF">
			<path d="M92.29,26.97h908.64v997.03h-908.64z"/>
		</clipPath>
		<filter id="filter-H7dncSEj" x="-8%" y="-7%" width="147%" height="132%" color-interpolation-filters="sRGB">
			<feColorMatrix values="1 0 0 0 0 0 1 0 0 0 0 0 1 0 0 0 0 0 0.17 0" in="SourceGraphic"/>
			<feOffset dx="14.14" dy="14.14"/>
			<feGaussianBlur stdDeviation="11" result="blur0"/>
			<feColorMatrix values="1 0 0 0 0 0 1 0 0 0 0 0 1 0 0 0 0 0 0.25 0" in="SourceGraphic"/>
			<feOffset dx="21.21" dy="21.21"/>
			<feGaussianBlur stdDeviation="20" result="blur1"/>
			<feMerge>
				<feMergeNode in="blur0"/>
				<feMergeNode in="blur1"/>
			</feMerge>
		</filter>
	</defs>
	<g fill="none" fill-rule="nonzero" style="mix-blend-mode: normal">
		<g clip-path="url(#clip-GJjpPAMF)">
			<path d="M872.58,211.33v601.34c0,69.83 -56.89,126.72 -126.72,126.72h-334.08c-69.83,0 -126.72,-56.89 -126.72,-126.72v-100.22c0,-2.54 0.16,-5.04 0.46,-7.49c-1.2,-2.16 -2.31,-4.46 -3.32,-6.9c-2.26,-5.45 -3.68,-11.03 -4.33,-16.6c-21.88,10.11 -43.3,4.55 -55.63,-1.81c-11.64,-6.01 -19.29,-14.3 -21.17,-16.38c-3.04,-3.24 -5.72,-6.81 -7.97,-10.64l-33.41,-56.79c-5.42,-9.21 -8.27,-19.69 -8.27,-30.38c0,-9.6 0.99,-22.82 9.68,-40.18c3.12,-6.22 7.28,-11.84 12.3,-16.61c-2.49,-2.26 -10.99,-10.33 -16.88,-22.44c-7.6,-15.63 -11.73,-41.54 5.29,-65l31.29,-53.19c2.57,-4.37 5.69,-8.4 9.27,-11.99c21.97,-21.97 48.14,-20.88 52.38,-20.88c7.35,0 14.64,1.35 21.5,3.99c1.62,-7.62 4.78,-14.8 9.13,-21.2c-0.22,-2.11 -0.34,-4.25 -0.34,-6.41v-100.22c0,-69.83 56.89,-126.72 126.72,-126.72h334.08c69.83,0 126.72,56.89 126.72,126.72z" fill="#000000" filter="url(#filter-H7dncSEj)"/>
		</g>
		<g color="#ffffff" class="teamapps-effect-color-1">
			<path d="M872.58,211.33v601.34c0,69.83 -56.89,126.72 -126.72,126.72h-334.08c-69.83,0 -126.72,-56.89 -126.72,-126.72v-100.22c0,-2.54 0.16,-5.04 0.46,-7.49c-1.2,-2.16 -2.31,-4.46 -3.32,-6.9c-2.26,-5.45 -3.68,-11.03 -4.33,-16.6c-21.88,10.11 -43.3,4.55 -55.63,-1.81c-11.64,-6.01 -19.29,-14.3 -21.17,-16.38c-3.04,-3.24 -5.72,-6.81 -7.97,-10.64l-33.41,-56.79c-5.42,-9.21 -8.27,-19.69 -8.27,-30.38c0,-9.6 0.99,-22.82 9.68,-40.18c3.12,-6.22 7.28,-11.84 12.3,-16.61c-2.49,-2.26 -10.99,-10.33 -16.88,-22.44c-7.6,-15.63 -11.73,-41.54 5.29,-65l31.29,-53.19c2.57,-4.37 5.69,-8.4 9.27,-11.99c21.97,-21.97 48.14,-20.88 52.38,-20.88c7.35,0 14.64,1.35 21.5,3.99c1.62,-7.62 4.78,-14.8 9.13,-21.2c-0.22,-2.11 -0.34,-4.25 -0.34,-6.41v-100.22c0,-69.83 56.89,-126.72 126.72,-126.72h334.08c69.83,0 126.72,56.89 126.72,126.72z" fill="currentColor"/>
		</g>
		<g>
			<g color="#1565c0" class="teamapps-color-1">
				<path d="M812.67,211.33v601.34c0,36.75 -30.07,66.81 -66.81,66.81h-334.08c-36.75,0 -66.81,-30.07 -66.81,-66.81v-100.22h66.81v66.81h334.08v-534.52h-334.08v66.81h-66.81v-100.22c0,-36.75 30.07,-66.81 66.81,-66.81h334.08c36.75,0 66.81,30.07 66.81,66.81zM542.07,558.77c3.34,3.34 6.69,6.68 3.34,10.02l-33.41,56.8c-3.34,3.34 -6.68,3.34 -10.02,3.34l-43.43,-16.7c-10.02,6.68 -20.04,13.36 -30.07,16.7l-6.68,43.43c-3.34,3.34 -6.68,6.68 -10.02,6.68h-66.81c-3.34,0 -10.03,-3.34 -6.69,-6.68l-6.68,-43.43c-10.02,-3.34 -20.04,-10.02 -30.07,-16.7l-46.77,13.37c-3.34,3.34 -6.68,0 -10.02,-3.34l-33.41,-56.79c0,-3.34 0,-6.69 3.34,-13.37l36.75,-26.72v-33.41l-36.75,-26.72c-3.34,-3.34 -6.69,-6.68 -3.34,-10.02l33.41,-56.8c3.34,-3.34 6.68,-3.34 10.02,-3.34l43.43,16.7c10.02,-6.68 20.04,-13.36 30.07,-16.7l6.69,-43.43c3.34,-3.34 6.68,-6.68 10.02,-6.68h66.81c6.68,0 10.02,3.34 10.02,6.68l6.68,43.43c10.02,3.34 20.04,10.02 30.07,16.7l43.43,-13.37c3.34,-3.34 6.68,0 10.02,3.34l33.41,56.79c0,3.34 0,6.68 -3.34,10.02l-36.75,26.73v33.4zM445.19,512c0,-36.75 -30.08,-66.81 -66.82,-66.81c-36.75,0 -66.81,30.07 -66.81,66.81c0,36.75 30.07,66.81 66.81,66.81c36.75,0 66.82,-30.07 66.82,-66.81z" fill="currentColor"/>
			</g>
		</g>
	</g>
</svg>