<svg version="1.1" xmlns="http://www.w3.org/2000/svg" xmlns:xlink="http://www.w3.org/1999/xlink" viewBox="0,0,1024,1024">
	<!-- Color names: teamapps-color-1, teamapps-effect-color-1 -->
	<desc>photo_size_select_large icon - Licensed under Apache License v2.0 (http://www.apache.org/licenses/LICENSE-2.0) - Created with Iconfu.com - Derivative work of Material icons (Copyright Google Inc.)</desc>
	<defs>
		<clipPath id="clip-Nb4p6AMh">
			<path d="M26.97,1000.93v-907.15h997.03v907.15z"/>
		</clipPath>
		<filter id="filter-DC3yWN5P" x="-7%" y="-8%" width="132%" height="147%" color-interpolation-filters="sRGB">
			<feColorMatrix values="1 0 0 0 0 0 1 0 0 0 0 0 1 0 0 0 0 0 0.17 0" in="SourceGraphic"/>
			<feOffset dx="14.14" dy="14.14"/>
			<feGaussianBlur stdDeviation="11" result="blur0"/>
			<feColorMatrix values="1 0 0 0 0 0 1 0 0 0 0 0 1 0 0 0 0 0 0.25 0" in="SourceGraphic"/>
			<feOffset dx="21.21" dy="21.21"/>
			<feGaussianBlur stdDeviation="20" result="blur1"/>
			<feMerge>
				<feMergeNode in="blur0"/>
				<feMergeNode in="blur1"/>
			</feMerge>
		</filter>
	</defs>
	<g fill="none" fill-rule="nonzero" style="mix-blend-mode: normal">
		<g clip-path="url(#clip-Nb4p6AMh)">
			<path d="M84.61,278.14c0,-66.49 60.22,-126.72 126.72,-126.72c12.37,0 23.86,3.75 33.41,10.17c9.54,-6.42 21.04,-10.17 33.41,-10.17h66.82c12.37,0 23.86,3.75 33.41,10.17c9.54,-6.42 21.04,-10.17 33.41,-10.17h66.81c12.37,0 23.87,3.75 33.41,10.18c9.54,-6.43 21.04,-10.18 33.41,-10.18h66.81c12.37,0 23.86,3.75 33.41,10.17c9.54,-6.42 21.04,-10.17 33.41,-10.17h66.82c12.37,0 23.86,3.75 33.41,10.17c9.54,-6.42 21.04,-10.17 33.41,-10.17c66.49,0 126.72,60.22 126.72,126.72c0,12.37 -3.75,23.87 -10.18,33.41c6.43,9.54 10.18,21.04 10.18,33.41v66.81c0,12.37 -3.75,23.86 -10.17,33.41c6.42,9.54 10.17,21.04 10.17,33.41v66.82c0,12.37 -3.75,23.86 -10.17,33.41c6.42,9.54 10.17,21.04 10.17,33.41v66.81c0,12.37 -3.75,23.87 -10.18,33.41c6.43,9.54 10.18,21.04 10.18,33.41c0,66.49 -60.22,126.72 -126.72,126.72c-12.37,0 -23.86,-3.75 -33.41,-10.17c-9.54,6.42 -21.04,10.17 -33.41,10.17h-66.82c-12.37,0 -23.86,-3.75 -33.41,-10.17c-9.54,6.42 -21.04,10.17 -33.41,10.17h-400.9c-69.83,0 -126.72,-56.89 -126.72,-126.72v-267.27c0,-12.37 3.75,-23.86 10.17,-33.41c-6.42,-9.54 -10.17,-21.04 -10.17,-33.41v-66.81c0,-12.37 3.75,-23.87 10.18,-33.41c-6.43,-9.54 -10.18,-21.04 -10.18,-33.41z" fill="#000000" filter="url(#filter-DC3yWN5P)"/>
		</g>
		<g color="#ffffff" class="teamapps-effect-color-1">
			<path d="M84.61,278.14c0,-66.49 60.22,-126.72 126.72,-126.72c12.37,0 23.86,3.75 33.41,10.17c9.54,-6.42 21.04,-10.17 33.41,-10.17h66.82c12.37,0 23.86,3.75 33.41,10.17c9.54,-6.42 21.04,-10.17 33.41,-10.17h66.81c12.37,0 23.87,3.75 33.41,10.18c9.54,-6.43 21.04,-10.18 33.41,-10.18h66.81c12.37,0 23.86,3.75 33.41,10.17c9.54,-6.42 21.04,-10.17 33.41,-10.17h66.82c12.37,0 23.86,3.75 33.41,10.17c9.54,-6.42 21.04,-10.17 33.41,-10.17c66.49,0 126.72,60.22 126.72,126.72c0,12.37 -3.75,23.87 -10.18,33.41c6.43,9.54 10.18,21.04 10.18,33.41v66.81c0,12.37 -3.75,23.86 -10.17,33.41c6.42,9.54 10.17,21.04 10.17,33.41v66.82c0,12.37 -3.75,23.86 -10.17,33.41c6.42,9.54 10.17,21.04 10.17,33.41v66.81c0,12.37 -3.75,23.87 -10.18,33.41c6.43,9.54 10.18,21.04 10.18,33.41c0,66.49 -60.22,126.72 -126.72,126.72c-12.37,0 -23.86,-3.75 -33.41,-10.17c-9.54,6.42 -21.04,10.17 -33.41,10.17h-66.82c-12.37,0 -23.86,-3.75 -33.41,-10.17c-9.54,6.42 -21.04,10.17 -33.41,10.17h-400.9c-69.83,0 -126.72,-56.89 -126.72,-126.72v-267.27c0,-12.37 3.75,-23.86 10.17,-33.41c-6.42,-9.54 -10.17,-21.04 -10.17,-33.41v-66.81c0,-12.37 3.75,-23.87 10.18,-33.41c-6.43,-9.54 -10.18,-21.04 -10.18,-33.41z" fill="currentColor"/>
		</g>
		<g>
			<g color="#1565c0" class="teamapps-color-1">
				<path d="M612.22,478.59v334.08h-400.9c-36.75,0 -66.81,-30.07 -66.81,-66.81v-267.27zM545.41,745.86l-107.24,-142.99l-83.52,107.58l-59.8,-71.82l-83.52,107.24zM679.04,745.86h66.82v66.81h-66.82zM144.51,344.96h66.81v66.81h-66.81zM545.41,211.33h66.81v66.81h-66.81zM679.04,211.33h66.82v66.81h-66.82zM211.33,278.14h-66.81c0,-33.41 33.4,-66.81 66.81,-66.81zM812.67,812.67v-66.81h66.81c0,33.41 -33.4,66.81 -66.81,66.81zM812.67,344.96h66.81v66.81h-66.81zM411.78,211.33h66.81v66.81h-66.81zM278.14,211.33h66.82v66.81h-66.82zM812.67,478.59h66.81v66.82h-66.81zM879.49,278.14h-66.81v-66.81c33.41,0 66.81,33.4 66.81,66.81zM812.67,612.22h66.81v66.81h-66.81z" fill="currentColor"/>
			</g>
		</g>
	</g>
</svg>