<svg version="1.1" xmlns="http://www.w3.org/2000/svg" xmlns:xlink="http://www.w3.org/1999/xlink" viewBox="0,0,1024,1024">
	<!-- Color names: teamapps-color-1, teamapps-effect-color-1 -->
	<desc>photo_filter icon - Licensed under Apache License v2.0 (http://www.apache.org/licenses/LICENSE-2.0) - Created with Iconfu.com - Derivative work of Material icons (Copyright Google Inc.)</desc>
	<defs>
		<filter id="filter-xEqDn1qW" x="-8%" y="-8%" width="147%" height="147%" color-interpolation-filters="sRGB">
			<feColorMatrix values="1 0 0 0 0 0 1 0 0 0 0 0 1 0 0 0 0 0 0.17 0" in="SourceGraphic"/>
			<feOffset dx="14.14" dy="14.14"/>
			<feGaussianBlur stdDeviation="11" result="blur0"/>
			<feColorMatrix values="1 0 0 0 0 0 1 0 0 0 0 0 1 0 0 0 0 0 0.25 0" in="SourceGraphic"/>
			<feOffset dx="21.21" dy="21.21"/>
			<feGaussianBlur stdDeviation="20" result="blur1"/>
			<feMerge>
				<feMergeNode in="blur0"/>
				<feMergeNode in="blur1"/>
			</feMerge>
		</filter>
	</defs>
	<g fill="none" fill-rule="nonzero" style="mix-blend-mode: normal">
		<path d="M873.24,445.19v300.67c0,69.83 -56.89,126.72 -126.72,126.72h-467.71c-69.82,0 -126.73,-56.88 -126.73,-126.72v-467.72c0,-69.84 56.9,-126.72 126.73,-126.72h300c29.64,0 54.25,21.53 59.05,49.8c10.92,-10.33 25.57,-16.39 41.17,-16.39c23.46,0 44.76,13.69 54.5,35.03l22.12,48.48l48.48,22.12c21.34,9.74 35.03,31.04 35.03,54.5c0,15.55 -6.02,30.16 -16.3,41.07c28.55,4.57 50.37,29.31 50.37,59.15z" fill="#000000" filter="url(#filter-xEqDn1qW)"/>
		<g color="#ffffff" class="teamapps-effect-color-1">
			<path d="M873.24,445.19v300.67c0,69.83 -56.89,126.72 -126.72,126.72h-467.71c-69.82,0 -126.73,-56.88 -126.73,-126.72v-467.72c0,-69.84 56.9,-126.72 126.73,-126.72h300c29.64,0 54.25,21.53 59.05,49.8c10.92,-10.33 25.57,-16.39 41.17,-16.39c23.46,0 44.76,13.69 54.5,35.03l22.12,48.48l48.48,22.12c21.34,9.74 35.03,31.04 35.03,54.5c0,15.55 -6.02,30.16 -16.3,41.07c28.55,4.57 50.37,29.31 50.37,59.15z" fill="currentColor"/>
		</g>
		<g>
			<g color="#1565c0" class="teamapps-color-1">
				<path d="M813.34,445.19v300.67c0,36.75 -30.07,66.81 -66.81,66.81h-467.71c-36.75,0 -66.82,-30.07 -66.82,-66.81v-467.72c0,-36.75 30.08,-66.81 66.82,-66.81h300v66.81h-300.67v467.72h468.38v-300.67zM645.63,512l-91.88,41.76l-41.76,91.88l-41.76,-91.88l-91.88,-41.76l91.88,-41.76l41.76,-91.88l41.76,91.88zM647.64,376.36l-68.83,-31.4l68.83,-31.41l31.4,-68.82l31.41,68.82l68.82,31.41l-68.82,31.4l-31.41,68.83z" fill="currentColor"/>
			</g>
		</g>
	</g>
</svg>