<svg version="1.1" xmlns="http://www.w3.org/2000/svg" xmlns:xlink="http://www.w3.org/1999/xlink" viewBox="0,0,1024,1024">
	<!-- Color names: teamapps-color-1, teamapps-effect-color-1 -->
	<desc>play_for_work icon - Licensed under Apache License v2.0 (http://www.apache.org/licenses/LICENSE-2.0) - Created with Iconfu.com - Derivative work of Material icons (Copyright Google Inc.)</desc>
	<defs>
		<filter id="filter-MpUmtoul" x="-12%" y="-10%" width="185%" height="166%" color-interpolation-filters="sRGB">
			<feColorMatrix values="1 0 0 0 0 0 1 0 0 0 0 0 1 0 0 0 0 0 0.17 0" in="SourceGraphic"/>
			<feOffset dx="14.14" dy="14.14"/>
			<feGaussianBlur stdDeviation="11" result="blur0"/>
			<feColorMatrix values="1 0 0 0 0 0 1 0 0 0 0 0 1 0 0 0 0 0 0.25 0" in="SourceGraphic"/>
			<feOffset dx="21.21" dy="21.21"/>
			<feGaussianBlur stdDeviation="20" result="blur1"/>
			<feMerge>
				<feMergeNode in="blur0"/>
				<feMergeNode in="blur1"/>
			</feMerge>
		</filter>
	</defs>
	<g fill="none" fill-rule="nonzero" style="mix-blend-mode: normal">
		<path d="M605.31,278.14v126.85h57.02c24.23,0 46.07,14.6 55.34,36.98c9.27,22.38 4.15,48.15 -12.99,65.28l-11.66,11.66h19.41c33.08,0 59.9,26.82 59.9,59.9c0,143.67 -116.68,260.35 -260.35,260.35c-143.67,0 -260.35,-116.68 -260.35,-260.35c0,-33.08 26.82,-59.9 59.9,-59.9h19.41l-11.66,-11.66c-17.13,-17.13 -22.26,-42.9 -12.99,-65.28c9.27,-22.38 31.12,-36.98 55.34,-36.98h57.02v-126.85c0,-33.08 26.82,-59.9 59.9,-59.9h66.82c33.08,0 59.9,26.82 59.9,59.9z" fill="#000000" filter="url(#filter-MpUmtoul)"/>
		<g color="#ffffff" class="teamapps-effect-color-1">
			<path d="M605.31,278.14v126.85h57.02c24.23,0 46.07,14.6 55.34,36.98c9.27,22.38 4.15,48.15 -12.99,65.28l-11.66,11.66h19.41c33.08,0 59.9,26.82 59.9,59.9c0,143.67 -116.68,260.35 -260.35,260.35c-143.67,0 -260.35,-116.68 -260.35,-260.35c0,-33.08 26.82,-59.9 59.9,-59.9h19.41l-11.66,-11.66c-17.13,-17.13 -22.26,-42.9 -12.99,-65.28c9.27,-22.38 31.12,-36.98 55.34,-36.98h57.02v-126.85c0,-33.08 26.82,-59.9 59.9,-59.9h66.82c33.08,0 59.9,26.82 59.9,59.9z" fill="currentColor"/>
		</g>
		<g>
			<g color="#1565c0" class="teamapps-color-1">
				<path d="M545.41,278.14v186.75h116.93l-150.34,150.34l-150.34,-150.34h116.93v-186.75zM378.37,578.81c0,73.83 59.81,133.63 133.63,133.63c73.83,0 133.63,-59.81 133.63,-133.63h66.81c0,110.58 -89.86,200.45 -200.45,200.45c-110.58,0 -200.45,-89.86 -200.45,-200.45z" fill="currentColor"/>
			</g>
		</g>
	</g>
</svg>