<svg version="1.1" xmlns="http://www.w3.org/2000/svg" xmlns:xlink="http://www.w3.org/1999/xlink" viewBox="0,0,1024,1024">
	<!-- Color names: teamapps-color-1, teamapps-effect-color-1 -->
	<desc>playlist_play icon - Licensed under Apache License v2.0 (http://www.apache.org/licenses/LICENSE-2.0) - Created with Iconfu.com - Derivative work of Material icons (Copyright Google Inc.)</desc>
	<defs>
		<clipPath id="clip-BsXSIZs4">
			<path d="M60.37,934.12v-773.53h963.63v773.53z"/>
		</clipPath>
		<filter id="filter-2OsqUHD0" x="-8%" y="-10%" width="140%" height="169%" color-interpolation-filters="sRGB">
			<feColorMatrix values="1 0 0 0 0 0 1 0 0 0 0 0 1 0 0 0 0 0 0.17 0" in="SourceGraphic"/>
			<feOffset dx="14.14" dy="14.14"/>
			<feGaussianBlur stdDeviation="11" result="blur0"/>
			<feColorMatrix values="1 0 0 0 0 0 1 0 0 0 0 0 1 0 0 0 0 0 0.25 0" in="SourceGraphic"/>
			<feOffset dx="21.21" dy="21.21"/>
			<feGaussianBlur stdDeviation="20" result="blur1"/>
			<feMerge>
				<feMergeNode in="blur0"/>
				<feMergeNode in="blur1"/>
			</feMerge>
		</filter>
	</defs>
	<g fill="none" fill-rule="nonzero" style="mix-blend-mode: normal">
		<g clip-path="url(#clip-BsXSIZs4)">
			<path d="M118.01,344.96v-66.82c0,-33.08 26.82,-59.9 59.9,-59.9h567.94c33.08,0 59.9,26.82 59.9,59.9v66.82c0,12.37 -3.75,23.86 -10.17,33.41c6.42,9.54 10.17,21.04 10.17,33.41v66.81c0,23.29 -13.29,43.47 -32.69,53.38l103.83,62.3c18.04,10.83 29.08,30.33 29.08,51.37c0,21.04 -11.04,40.54 -29.08,51.37l-167.05,100.22c-18.51,11.1 -41.55,11.39 -60.33,0.76c-18.78,-10.63 -30.39,-30.55 -30.39,-52.13v-74.12c-2.27,0.26 -4.57,0.39 -6.91,0.39h-434.31c-33.08,0 -59.9,-26.82 -59.9,-59.9v-66.81c0,-12.37 3.75,-23.87 10.18,-33.41c-6.43,-9.54 -10.18,-21.04 -10.18,-33.41v-66.81c0,-12.37 3.75,-23.86 10.17,-33.41c-6.42,-9.54 -10.17,-21.04 -10.17,-33.41z" fill="#000000" filter="url(#filter-2OsqUHD0)"/>
		</g>
		<g color="#ffffff" class="teamapps-effect-color-1">
			<path d="M118.01,344.96v-66.82c0,-33.08 26.82,-59.9 59.9,-59.9h567.94c33.08,0 59.9,26.82 59.9,59.9v66.82c0,12.37 -3.75,23.86 -10.17,33.41c6.42,9.54 10.17,21.04 10.17,33.41v66.81c0,23.29 -13.29,43.47 -32.69,53.38l103.83,62.3c18.04,10.83 29.08,30.33 29.08,51.37c0,21.04 -11.04,40.54 -29.08,51.37l-167.05,100.22c-18.51,11.1 -41.55,11.39 -60.33,0.76c-18.78,-10.63 -30.39,-30.55 -30.39,-52.13v-74.12c-2.27,0.26 -4.57,0.39 -6.91,0.39h-434.31c-33.08,0 -59.9,-26.82 -59.9,-59.9v-66.81c0,-12.37 3.75,-23.87 10.18,-33.41c-6.43,-9.54 -10.18,-21.04 -10.18,-33.41v-66.81c0,-12.37 3.75,-23.86 10.17,-33.41c-6.42,-9.54 -10.17,-21.04 -10.17,-33.41z" fill="currentColor"/>
		</g>
		<g>
			<g color="#1565c0" class="teamapps-color-1">
				<path d="M745.86,478.59h-567.94v-66.81h567.94zM745.86,344.96h-567.94v-66.82h567.94zM846.08,645.63l-167.05,100.22v-200.45zM177.92,545.41h434.31v66.81h-434.31z" fill="currentColor"/>
			</g>
		</g>
	</g>
</svg>