<svg version="1.1" xmlns="http://www.w3.org/2000/svg" xmlns:xlink="http://www.w3.org/1999/xlink" viewBox="0,0,1024,1024">
	<!-- Color names: teamapps-color-1, teamapps-effect-color-1 -->
	<desc>pool icon - Licensed under Apache License v2.0 (http://www.apache.org/licenses/LICENSE-2.0) - Created with Iconfu.com - Derivative work of Material icons (Copyright Google Inc.)</desc>
	<defs>
		<clipPath id="clip-xroxzbRC">
			<path d="M60.37,1000.93v-907.16h963.63v907.16z"/>
		</clipPath>
		<filter id="filter-7xDlwciU" x="-8%" y="-8%" width="140%" height="147%" color-interpolation-filters="sRGB">
			<feColorMatrix values="1 0 0 0 0 0 1 0 0 0 0 0 1 0 0 0 0 0 0.17 0" in="SourceGraphic"/>
			<feOffset dx="14.14" dy="14.14"/>
			<feGaussianBlur stdDeviation="11" result="blur0"/>
			<feColorMatrix values="1 0 0 0 0 0 1 0 0 0 0 0 1 0 0 0 0 0 0.25 0" in="SourceGraphic"/>
			<feOffset dx="21.21" dy="21.21"/>
			<feGaussianBlur stdDeviation="20" result="blur1"/>
			<feMerge>
				<feMergeNode in="blur0"/>
				<feMergeNode in="blur1"/>
			</feMerge>
		</filter>
	</defs>
	<g fill="none" fill-rule="nonzero" style="mix-blend-mode: normal">
		<g clip-path="url(#clip-xroxzbRC)">
			<path d="M278,499.32c-4.18,-19.82 1.93,-40.41 16.25,-54.73l65.91,-65.91c-20.25,-17.45 -40.33,-24.15 -81.69,-23.92c-33.21,0.18 -60.24,-26.69 -60.24,-59.9v-83.52c0,-32.99 26.67,-59.77 59.66,-59.9c95.03,-0.38 159.8,18.48 225.68,84.36l20.56,20.53c16.83,-60.5 72.33,-104.89 138.19,-104.89c79.21,0 143.43,64.22 143.43,143.43c0,65.79 -44.3,121.22 -104.69,138.13l16.95,16.92c13.44,13.42 19.72,32.41 16.93,51.2c-0.06,0.37 -0.11,0.74 -0.18,1.11c52.89,0.15 84.77,18.96 102.93,29.86c3.45,2.05 5.12,3.02 6.03,3.52c0.41,0.02 0.96,0.03 1.66,0.03c33.08,0 59.9,26.82 59.9,59.9v66.81c0,16.07 -6.33,30.66 -16.62,41.42c10.69,10.82 17.3,25.69 17.3,42.11v66.81c0,33.08 -26.82,59.9 -59.9,59.9c-53.26,0 -85.32,-18.92 -103.55,-29.86c-3.45,-2.05 -5.12,-3.02 -6.03,-3.52c-0.41,-0.02 -0.96,-0.03 -1.66,-0.03l-0.66,-0.67l-7.45,4.46c-17.84,10.47 -49.65,29.62 -103.15,29.62c-53.26,0 -85.32,-18.92 -103.55,-29.86c-3.45,-2.05 -5.12,-3.02 -6.03,-3.52c-0.41,-0.02 -0.96,-0.03 -1.66,-0.03l-0.66,-0.67l-7.45,4.46c-18.05,10.59 -50.12,29.62 -103.48,29.62c-53.37,0 -85.44,-19 -103.65,-29.92l-5.69,-3.45c-0.47,-0.02 -1.09,-0.04 -1.91,-0.04l-0.78,-0.57l-7.32,4.36c-18.05,10.59 -50.12,29.62 -103.48,29.62c-33.08,0 -59.9,-26.82 -59.9,-59.9v-66.81c0,-16.24 6.46,-30.97 16.96,-41.76c-10.49,-10.79 -16.96,-25.52 -16.96,-41.76v-66.81c0,-33.08 26.82,-59.9 59.9,-59.9l0.66,0.67l6.84,-4.1c16.96,-10.17 46.12,-27.47 93.33,-29.74c-0.28,-1.04 -0.53,-2.08 -0.75,-3.14z" fill="#000000" filter="url(#filter-7xDlwciU)"/>
		</g>
		<g color="#ffffff" class="teamapps-effect-color-1">
			<path d="M278,499.32c-4.18,-19.82 1.93,-40.41 16.25,-54.73l65.91,-65.91c-20.25,-17.45 -40.33,-24.15 -81.69,-23.92c-33.21,0.18 -60.24,-26.69 -60.24,-59.9v-83.52c0,-32.99 26.67,-59.77 59.66,-59.9c95.03,-0.38 159.8,18.48 225.68,84.36l20.56,20.53c16.83,-60.5 72.33,-104.89 138.19,-104.89c79.21,0 143.43,64.22 143.43,143.43c0,65.79 -44.3,121.22 -104.69,138.13l16.95,16.92c13.44,13.42 19.72,32.41 16.93,51.2c-0.06,0.37 -0.11,0.74 -0.18,1.11c52.89,0.15 84.77,18.96 102.93,29.86c3.45,2.05 5.12,3.02 6.03,3.52c0.41,0.02 0.96,0.03 1.66,0.03c33.08,0 59.9,26.82 59.9,59.9v66.81c0,16.07 -6.33,30.66 -16.62,41.42c10.69,10.82 17.3,25.69 17.3,42.11v66.81c0,33.08 -26.82,59.9 -59.9,59.9c-53.26,0 -85.32,-18.92 -103.55,-29.86c-3.45,-2.05 -5.12,-3.02 -6.03,-3.52c-0.41,-0.02 -0.96,-0.03 -1.66,-0.03l-0.66,-0.67l-7.45,4.46c-17.84,10.47 -49.65,29.62 -103.15,29.62c-53.26,0 -85.32,-18.92 -103.55,-29.86c-3.45,-2.05 -5.12,-3.02 -6.03,-3.52c-0.41,-0.02 -0.96,-0.03 -1.66,-0.03l-0.66,-0.67l-7.45,4.46c-18.05,10.59 -50.12,29.62 -103.48,29.62c-53.37,0 -85.44,-19 -103.65,-29.92l-5.69,-3.45c-0.47,-0.02 -1.09,-0.04 -1.91,-0.04l-0.78,-0.57l-7.32,4.36c-18.05,10.59 -50.12,29.62 -103.48,29.62c-33.08,0 -59.9,-26.82 -59.9,-59.9v-66.81c0,-16.24 6.46,-30.97 16.96,-41.76c-10.49,-10.79 -16.96,-25.52 -16.96,-41.76v-66.81c0,-33.08 26.82,-59.9 59.9,-59.9l0.66,0.67l6.84,-4.1c16.96,-10.17 46.12,-27.47 93.33,-29.74c-0.28,-1.04 -0.53,-2.08 -0.75,-3.14z" fill="currentColor"/>
		</g>
		<g>
			<g color="#1565c0" class="teamapps-color-1">
				<path d="M362.33,499.97c-7.02,-4.01 -15.36,-9.02 -25.72,-13.03l108.58,-108.58l-33.41,-33.4c-37.08,-37.08 -72.83,-50.45 -133.63,-50.11v-83.52c83.52,-0.34 131.3,15.03 183.08,66.81l214.48,214.15c-5.01,2.67 -9.69,5.34 -13.7,7.68c-12.36,7.68 -20.04,12.03 -38.41,12.03c-18.38,0 -26.06,-4.67 -38.42,-12.03c-15.03,-9.02 -35.74,-21.38 -72.83,-21.38c-37.08,0 -57.79,12.36 -73.16,21.38c-12.36,7.68 -19.72,12.03 -38.42,12.03c-18.71,0 -26.06,-4.35 -38.42,-12.03zM846.08,812.67c-37.08,0 -57.8,-12.36 -72.83,-21.38c-12.36,-7.35 -20.04,-12.03 -38.41,-12.03c-18.71,0 -26.06,4.35 -38.42,12.03c-15.37,9.02 -35.74,21.38 -72.83,21.38c-37.08,0 -57.8,-12.36 -72.83,-21.38c-12.36,-7.35 -20.04,-12.03 -38.41,-12.03c-18.71,0 -26.06,4.35 -38.42,12.03c-15.37,9.02 -36.08,21.38 -73.16,21.38c-37.08,0 -57.79,-12.36 -72.83,-21.38c-12.36,-7.68 -20.04,-12.03 -38.42,-12.03c-18.38,0 -26.06,4.35 -38.42,12.03c-15.37,9.02 -36.08,21.38 -73.16,21.38v-66.81c18.71,0 26.06,-4.35 38.42,-12.03c15.37,-9.02 36.08,-21.38 73.16,-21.38c37.08,0 57.79,12.36 72.83,21.38c12.36,7.68 19.72,12.03 38.42,12.03c18.71,0 26.06,-4.35 38.42,-12.03c15.37,-9.02 36.08,-21.38 73.16,-21.38c37.08,0 57.79,12.36 72.83,21.38c12.36,7.35 20.04,12.03 38.42,12.03c18.38,0 26.05,-4.35 38.41,-12.03c15.03,-9.02 35.75,-21.38 72.83,-21.38c37.08,0 57.79,12.36 72.83,21.38c12.36,7.68 19.72,12.03 38.42,12.03zM773.25,640.95c-12.36,-7.35 -20.04,-12.03 -38.41,-12.03c-18.71,0 -26.06,4.35 -38.42,12.03c-15.03,9.02 -35.74,21.38 -72.83,21.38c-37.08,0 -57.8,-12.36 -72.83,-21.38c-12.36,-7.35 -20.04,-12.03 -38.41,-12.03c-18.71,0 -26.06,4.35 -38.42,12.03c-15.03,9.02 -35.74,21.38 -72.83,21.38c-37.08,0 -57.8,-12.36 -72.83,-21.38c-12.36,-7.35 -20.04,-12.03 -38.41,-12.03c-18.38,0 -26.06,4.35 -38.42,12.03c-15.7,9.02 -36.42,21.38 -73.5,21.38v-66.81c18.71,0 26.06,-4.35 38.42,-12.03c15.03,-9.02 35.74,-21.38 72.83,-21.38c37.08,0 57.8,12.36 72.83,21.38c12.36,7.35 20.04,12.03 38.41,12.03c18.71,0 26.06,-4.35 38.42,-12.03c15.03,-9.02 35.74,-21.38 72.83,-21.38c37.08,0 57.8,12.36 72.83,21.38c12.36,7.35 20.04,12.03 38.41,12.03c18.38,0 26.06,-4.35 38.42,-12.03c15.03,-9.02 35.74,-21.38 72.83,-21.38c37.08,0 57.8,12.36 72.83,21.38c12.36,7.35 20.04,12.03 38.41,12.03v66.81c-36.66,-0.15 -57.22,-12.42 -72.16,-21.38z" fill="currentColor"/>
			</g>
			<g color="#1565c0" class="teamapps-color-1">
				<path d="M578.81,294.85c0,-46.13 37.4,-83.52 83.52,-83.52c46.13,0 83.52,37.4 83.52,83.52c0,46.13 -37.4,83.51 -83.52,83.51c-46.13,0 -83.52,-37.39 -83.52,-83.51z" fill="currentColor"/>
			</g>
		</g>
	</g>
</svg>