<svg version="1.1" xmlns="http://www.w3.org/2000/svg" xmlns:xlink="http://www.w3.org/1999/xlink" viewBox="0,0,1024,1024">
	<!-- Color names: teamapps-color-1, teamapps-effect-color-1 -->
	<desc>queue_music icon - Licensed under Apache License v2.0 (http://www.apache.org/licenses/LICENSE-2.0) - Created with Iconfu.com - Derivative work of Material icons (Copyright Google Inc.)</desc>
	<defs>
		<clipPath id="clip-wa6O9kjH">
			<path d="M93.78,967.52v-773.52h930.22v773.52z"/>
		</clipPath>
		<filter id="filter-0lc7WRTO" x="-8%" y="-10%" width="146%" height="175%" color-interpolation-filters="sRGB">
			<feColorMatrix values="1 0 0 0 0 0 1 0 0 0 0 0 1 0 0 0 0 0 0.17 0" in="SourceGraphic"/>
			<feOffset dx="14.14" dy="14.14"/>
			<feGaussianBlur stdDeviation="11" result="blur0"/>
			<feColorMatrix values="1 0 0 0 0 0 1 0 0 0 0 0 1 0 0 0 0 0 0.25 0" in="SourceGraphic"/>
			<feOffset dx="21.21" dy="21.21"/>
			<feGaussianBlur stdDeviation="20" result="blur1"/>
			<feMerge>
				<feMergeNode in="blur0"/>
				<feMergeNode in="blur1"/>
			</feMerge>
		</filter>
	</defs>
	<g fill="none" fill-rule="nonzero" style="mix-blend-mode: normal">
		<g clip-path="url(#clip-wa6O9kjH)">
			<path d="M905.99,311.55v66.81c0,33.08 -26.82,59.9 -59.9,59.9h-40.32v240.77c0,88.54 -71.58,160.13 -160.13,160.13c-79.75,0 -145.74,-58.07 -158.06,-134.3c-2.93,0.44 -5.93,0.67 -8.98,0.67h-267.26c-33.08,0 -59.9,-26.82 -59.9,-59.9v-66.82c0,-12.37 3.75,-23.86 10.17,-33.41c-6.42,-9.54 -10.17,-21.04 -10.17,-33.41v-66.81c0,-12.37 3.75,-23.87 10.18,-33.41c-6.43,-9.54 -10.18,-21.04 -10.18,-33.41v-66.81c0,-33.08 26.82,-59.9 59.9,-59.9h400.9c12.37,0 23.86,3.75 33.41,10.17c9.54,-6.42 21.04,-10.17 33.41,-10.17h167.05c33.08,0 59.9,26.82 59.9,59.9z" fill="#000000" filter="url(#filter-0lc7WRTO)"/>
		</g>
		<g color="#ffffff" class="teamapps-effect-color-1">
			<path d="M905.99,311.55v66.81c0,33.08 -26.82,59.9 -59.9,59.9h-40.32v240.77c0,88.54 -71.58,160.13 -160.13,160.13c-79.75,0 -145.74,-58.07 -158.06,-134.3c-2.93,0.44 -5.93,0.67 -8.98,0.67h-267.26c-33.08,0 -59.9,-26.82 -59.9,-59.9v-66.82c0,-12.37 3.75,-23.86 10.17,-33.41c-6.42,-9.54 -10.17,-21.04 -10.17,-33.41v-66.81c0,-12.37 3.75,-23.87 10.18,-33.41c-6.43,-9.54 -10.18,-21.04 -10.18,-33.41v-66.81c0,-33.08 26.82,-59.9 59.9,-59.9h400.9c12.37,0 23.86,3.75 33.41,10.17c9.54,-6.42 21.04,-10.17 33.41,-10.17h167.05c33.08,0 59.9,26.82 59.9,59.9z" fill="currentColor"/>
		</g>
		<g>
			<g color="#1565c0" class="teamapps-color-1">
				<path d="M846.08,311.55v66.81h-100.22v300.67c0,55.46 -44.76,100.22 -100.22,100.22c-55.46,0 -100.22,-44.76 -100.22,-100.22c0,-55.46 44.76,-100.22 100.22,-100.22c11.69,0 23.04,2.34 33.4,6.01v-273.27zM612.22,512h-400.9v-66.81h400.9zM612.22,378.37h-400.9v-66.81h400.9zM211.33,578.81h267.26v66.82h-267.26z" fill="currentColor"/>
			</g>
		</g>
	</g>
</svg>