<svg version="1.1" xmlns="http://www.w3.org/2000/svg" xmlns:xlink="http://www.w3.org/1999/xlink" viewBox="0,0,1024,1024">
	<!-- Color names: teamapps-color-1, teamapps-effect-color-1 -->
	<desc>report icon - Licensed under Apache License v2.0 (http://www.apache.org/licenses/LICENSE-2.0) - Created with Iconfu.com - Derivative work of Material icons (Copyright Google Inc.)</desc>
	<defs>
		<filter id="filter-5PE2vl5l" x="-8%" y="-8%" width="147%" height="147%" color-interpolation-filters="sRGB">
			<feColorMatrix values="1 0 0 0 0 0 1 0 0 0 0 0 1 0 0 0 0 0 0.17 0" in="SourceGraphic"/>
			<feOffset dx="14.14" dy="14.14"/>
			<feGaussianBlur stdDeviation="11" result="blur0"/>
			<feColorMatrix values="1 0 0 0 0 0 1 0 0 0 0 0 1 0 0 0 0 0 0.25 0" in="SourceGraphic"/>
			<feOffset dx="21.21" dy="21.21"/>
			<feGaussianBlur stdDeviation="20" result="blur1"/>
			<feMerge>
				<feMergeNode in="blur0"/>
				<feMergeNode in="blur1"/>
			</feMerge>
		</filter>
	</defs>
	<g fill="none" fill-rule="nonzero" style="mix-blend-mode: normal">
		<path d="M872.58,387.39v249.23c0,15.89 -6.31,31.12 -17.55,42.36l-176.06,176.06c-11.23,11.23 -26.47,17.55 -42.36,17.55h-249.23c-15.89,0 -31.12,-6.31 -42.36,-17.55l-176.06,-176.06c-11.23,-11.23 -17.55,-26.47 -17.55,-42.36v-249.23c0,-15.89 6.31,-31.12 17.55,-42.36l176.06,-176.06c11.23,-11.23 26.47,-17.55 42.36,-17.55h249.23c15.89,0 31.12,6.31 42.36,17.55l176.06,176.06c11.23,11.23 17.55,26.47 17.55,42.36z" fill="#000000" filter="url(#filter-5PE2vl5l)"/>
		<g color="#ffffff" class="teamapps-effect-color-1">
			<path d="M872.58,387.39v249.23c0,15.89 -6.31,31.12 -17.55,42.36l-176.06,176.06c-11.23,11.23 -26.47,17.55 -42.36,17.55h-249.23c-15.89,0 -31.12,-6.31 -42.36,-17.55l-176.06,-176.06c-11.23,-11.23 -17.55,-26.47 -17.55,-42.36v-249.23c0,-15.89 6.31,-31.12 17.55,-42.36l176.06,-176.06c11.23,-11.23 26.47,-17.55 42.36,-17.55h249.23c15.89,0 31.12,6.31 42.36,17.55l176.06,176.06c11.23,11.23 17.55,26.47 17.55,42.36z" fill="currentColor"/>
		</g>
		<g>
			<g color="#1565c0" class="teamapps-color-1">
				<path d="M812.67,387.39v249.23l-176.06,176.06h-249.23l-176.06,-176.06v-249.23l176.06,-176.06h249.23zM545.41,344.96h-66.82v200.45h66.82zM555.43,645.63c0,-24.05 -19.38,-43.43 -43.43,-43.43c-24.05,0 -43.43,19.38 -43.43,43.43c0,24.05 19.38,43.43 43.43,43.43c24.05,0 43.43,-19.37 43.43,-43.43z" fill="currentColor"/>
			</g>
		</g>
	</g>
</svg>