<svg version="1.1" xmlns="http://www.w3.org/2000/svg" xmlns:xlink="http://www.w3.org/1999/xlink" viewBox="0,0,1024,1024">
	<!-- Color names: teamapps-color-1, teamapps-effect-color-1 -->
	<desc>rowing icon - Licensed under Apache License v2.0 (http://www.apache.org/licenses/LICENSE-2.0) - Created with Iconfu.com - Derivative work of Material icons (Copyright Google Inc.)</desc>
	<defs>
		<clipPath id="clip-lV1fBWqJ">
			<path d="M127.19,26.97h873.74v997.03h-873.74z"/>
		</clipPath>
		<filter id="filter-yOV6UQKE" x="-9%" y="-7%" width="155%" height="131%" color-interpolation-filters="sRGB">
			<feColorMatrix values="1 0 0 0 0 0 1 0 0 0 0 0 1 0 0 0 0 0 0.17 0" in="SourceGraphic"/>
			<feOffset dx="14.14" dy="14.14"/>
			<feGaussianBlur stdDeviation="11" result="blur0"/>
			<feColorMatrix values="1 0 0 0 0 0 1 0 0 0 0 0 1 0 0 0 0 0 0.25 0" in="SourceGraphic"/>
			<feOffset dx="21.21" dy="21.21"/>
			<feGaussianBlur stdDeviation="20" result="blur1"/>
			<feMerge>
				<feMergeNode in="blur0"/>
				<feMergeNode in="blur1"/>
			</feMerge>
		</filter>
	</defs>
	<g fill="none" fill-rule="nonzero" style="mix-blend-mode: normal">
		<g clip-path="url(#clip-lV1fBWqJ)">
			<path d="M854.96,855.44l-100.22,99.89c-23.46,23.38 -61.44,23.29 -84.79,-0.21l-99.89,-100.56c-11.15,-11.22 -17.4,-26.4 -17.4,-42.22v-24.94l-52.53,-52.46c-6.75,2.6 -14.03,4 -21.53,4h-42l-99.38,99.39c-23.39,23.4 -61.32,23.4 -84.72,0l-50.11,-50.11c-23.39,-23.39 -23.39,-61.32 0,-84.72l119.97,-119.97c-21.88,-8.92 -37.3,-30.41 -37.3,-55.49v-72.16c0,-33.51 27.48,-60.5 60.99,-59.89c37.32,0.67 86.13,-21.56 110.51,-48.45l46.77,-51.78c2.53,-2.8 5.18,-5.46 7.91,-7.98c-16.14,-21.27 -25.73,-47.76 -25.73,-76.43c0,-69.83 56.89,-126.72 126.72,-126.72c69.83,0 126.72,56.89 126.72,126.72c0,33.25 -12.9,63.57 -33.95,86.21c21.1,23.84 33.95,55.15 33.95,89.52v192.09c0,26.56 -6.55,51.77 -18.15,73.98c12.84,1.81 24.83,7.74 34.09,17.03l100.22,100.56c23.35,23.43 23.29,61.36 -0.14,84.72z" fill="#000000" filter="url(#filter-yOV6UQKE)"/>
		</g>
		<g color="#ffffff" class="teamapps-effect-color-1">
			<path d="M854.96,855.44l-100.22,99.89c-23.46,23.38 -61.44,23.29 -84.79,-0.21l-99.89,-100.56c-11.15,-11.22 -17.4,-26.4 -17.4,-42.22v-24.94l-52.53,-52.46c-6.75,2.6 -14.03,4 -21.53,4h-42l-99.38,99.39c-23.39,23.4 -61.32,23.4 -84.72,0l-50.11,-50.11c-23.39,-23.39 -23.39,-61.32 0,-84.72l119.97,-119.97c-21.88,-8.92 -37.3,-30.41 -37.3,-55.49v-72.16c0,-33.51 27.48,-60.5 60.99,-59.89c37.32,0.67 86.13,-21.56 110.51,-48.45l46.77,-51.78c2.53,-2.8 5.18,-5.46 7.91,-7.98c-16.14,-21.27 -25.73,-47.76 -25.73,-76.43c0,-69.83 56.89,-126.72 126.72,-126.72c69.83,0 126.72,56.89 126.72,126.72c0,33.25 -12.9,63.57 -33.95,86.21c21.1,23.84 33.95,55.15 33.95,89.52v192.09c0,26.56 -6.55,51.77 -18.15,73.98c12.84,1.81 24.83,7.74 34.09,17.03l100.22,100.56c23.35,23.43 23.29,61.36 -0.14,84.72z" fill="currentColor"/>
		</g>
		<g>
			<g color="#1565c0" class="teamapps-color-1">
				<path d="M812.67,813.01l-100.22,99.89l-99.89,-100.56v-49.78l-237.2,-236.87c-10.36,1.67 -20.37,2.34 -30.4,2.34v-72.16c55.46,1 120.6,-29.06 156.01,-68.15l46.77,-51.78c6.35,-7.02 14.37,-12.7 23.05,-16.71c9.69,-4.67 20.71,-7.68 32.07,-7.68h1c41.43,0.34 75.17,34.08 75.17,75.5v192.09c0,28.06 -11.69,53.78 -30.73,72.16l-119.6,-119.6v-75.83c-21.05,17.37 -47.77,34.08 -76.5,46.44l210.13,210.13h50.11zM478.59,679.04h-66.81l-116.93,116.93l-50.11,-50.11l150.34,-150.34zM679.04,211.33c0,36.75 -30.07,66.81 -66.81,66.81c-36.75,0 -66.81,-30.07 -66.81,-66.81c0,-36.75 30.07,-66.81 66.81,-66.81c36.75,0 66.81,30.07 66.81,66.81z" fill="currentColor"/>
			</g>
		</g>
	</g>
</svg>