<svg version="1.1" xmlns="http://www.w3.org/2000/svg" xmlns:xlink="http://www.w3.org/1999/xlink" viewBox="0,0,1024,1024">
	<!-- Color names: teamapps-color-1, teamapps-effect-color-1 -->
	<desc>screen_lock_rotation icon - Licensed under Apache License v2.0 (http://www.apache.org/licenses/LICENSE-2.0) - Created with Iconfu.com - Derivative work of Material icons (Copyright Google Inc.)</desc>
	<defs>
		<clipPath id="clip-T0Zu18W4">
			<path d="M1024,0v1024h-997.04v-1024z"/>
		</clipPath>
		<filter id="filter-iSlfouwk" x="-7%" y="-7%" width="132%" height="128%" color-interpolation-filters="sRGB">
			<feColorMatrix values="1 0 0 0 0 0 1 0 0 0 0 0 1 0 0 0 0 0 0.17 0" in="SourceGraphic"/>
			<feOffset dx="14.14" dy="14.14"/>
			<feGaussianBlur stdDeviation="11" result="blur0"/>
			<feColorMatrix values="1 0 0 0 0 0 1 0 0 0 0 0 1 0 0 0 0 0 0.25 0" in="SourceGraphic"/>
			<feOffset dx="21.21" dy="21.21"/>
			<feGaussianBlur stdDeviation="20" result="blur1"/>
			<feMerge>
				<feMergeNode in="blur0"/>
				<feMergeNode in="blur1"/>
			</feMerge>
		</filter>
	</defs>
	<g fill="none" fill-rule="nonzero" style="mix-blend-mode: normal">
		<g clip-path="url(#clip-T0Zu18W4)">
			<path d="M930.2,650.91l-212.33,212.33c-25.73,26.03 -60.99,36.29 -94.35,31.21c-0.53,1.93 -1.17,3.84 -1.9,5.73c-8.59,22.11 -29.42,37.07 -53.12,38.14l-22.43,1.01c-0.78,0.04 -1.56,0.05 -2.34,0.05c-241.64,0 -439.34,-185.92 -458.92,-422.45c-2.89,-34.91 24.67,-64.85 59.7,-64.85h7.39c-34.4,-43.28 -30.98,-106.13 8.71,-145.82l212.33,-212.33c43.08,-43.58 112.87,-42.97 155.69,-0.14l62.32,62.32c16.83,-60.5 72.33,-104.93 138.19,-104.93c71.41,0 130.66,52.24 141.61,120.57c21.43,17.08 35.22,43.39 35.22,72.97v133.63c0,25.6 -10.35,48.82 -27.1,65.69l51.16,51.16c43.58,43.08 42.97,112.87 0.14,155.69z" fill="#000000" filter="url(#filter-iSlfouwk)"/>
		</g>
		<g color="#ffffff" class="teamapps-effect-color-1">
			<path d="M930.2,650.91l-212.33,212.33c-25.73,26.03 -60.99,36.29 -94.35,31.21c-0.53,1.93 -1.17,3.84 -1.9,5.73c-8.59,22.11 -29.42,37.07 -53.12,38.14l-22.43,1.01c-0.78,0.04 -1.56,0.05 -2.34,0.05c-241.64,0 -439.34,-185.92 -458.92,-422.45c-2.89,-34.91 24.67,-64.85 59.7,-64.85h7.39c-34.4,-43.28 -30.98,-106.13 8.71,-145.82l212.33,-212.33c43.08,-43.58 112.87,-42.97 155.69,-0.14l62.32,62.32c16.83,-60.5 72.33,-104.93 138.19,-104.93c71.41,0 130.66,52.24 141.61,120.57c21.43,17.08 35.22,43.39 35.22,72.97v133.63c0,25.6 -10.35,48.82 -27.1,65.69l51.16,51.16c43.58,43.08 42.97,112.87 0.14,155.69z" fill="currentColor"/>
		</g>
		<g>
			<g color="#1565c0" class="teamapps-color-1">
				<path d="M887.84,608.55l-212.47,212.47c-19.38,19.71 -51.11,19.71 -70.82,0l-401.57,-401.57c-19.71,-19.38 -19.71,-51.11 0,-70.82l212.47,-212.47c19.38,-19.71 51.12,-19.71 70.83,0l81.85,81.85l-47.11,47.11l-70.16,-70.16l-189.09,189.09l378.17,378.17l189.09,-189.09l-74.17,-74.17l47.11,-47.11l85.86,85.86c19.71,19.38 19.71,51.12 0,70.83zM438.5,750.87l127.28,127.61l-22.05,1c-210.13,0 -382.18,-161.69 -399.22,-367.49h50.11c12.03,125.62 90.2,231.85 199.45,283.3zM612.22,378.37v-133.63c0,-18.38 15.03,-33.41 33.41,-33.41v-16.7c0,-46.1 37.41,-83.52 83.51,-83.52c46.1,0 83.52,37.42 83.52,83.52v16.7c18.38,0 33.41,15.03 33.41,33.41v133.63c0,18.38 -15.03,33.41 -33.41,33.41h-167.04c-18.38,0 -33.41,-15.03 -33.41,-33.41zM672.36,211.33h113.59v-16.7c0,-31.41 -25.39,-56.8 -56.8,-56.8c-31.41,0 -56.79,25.39 -56.79,56.8z" fill="currentColor"/>
			</g>
		</g>
	</g>
</svg>