<svg version="1.1" xmlns="http://www.w3.org/2000/svg" xmlns:xlink="http://www.w3.org/1999/xlink" viewBox="0,0,1024,1024">
	<!-- Color names: teamapps-color-1, teamapps-effect-color-1 -->
	<desc>sentiment_very_satisfied icon - Licensed under Apache License v2.0 (http://www.apache.org/licenses/LICENSE-2.0) - Created with Iconfu.com - Derivative work of Material icons (Copyright Google Inc.)</desc>
	<defs>
		<clipPath id="clip-zM6UgB3T">
			<path d="M60.37,60.37h963.63v963.63h-963.63z"/>
		</clipPath>
		<filter id="filter-k1B82w09" x="-8%" y="-8%" width="140%" height="140%" color-interpolation-filters="sRGB">
			<feColorMatrix values="1 0 0 0 0 0 1 0 0 0 0 0 1 0 0 0 0 0 0.17 0" in="SourceGraphic"/>
			<feOffset dx="14.14" dy="14.14"/>
			<feGaussianBlur stdDeviation="11" result="blur0"/>
			<feColorMatrix values="1 0 0 0 0 0 1 0 0 0 0 0 1 0 0 0 0 0 0.25 0" in="SourceGraphic"/>
			<feOffset dx="21.21" dy="21.21"/>
			<feGaussianBlur stdDeviation="20" result="blur1"/>
			<feMerge>
				<feMergeNode in="blur0"/>
				<feMergeNode in="blur1"/>
			</feMerge>
		</filter>
	</defs>
	<g fill="none" fill-rule="nonzero" style="mix-blend-mode: normal">
		<g clip-path="url(#clip-zM6UgB3T)">
			<path d="M905.99,512c0,217.95 -176.95,393.99 -394.32,393.99c-217.54,0 -393.65,-176.19 -393.65,-393.99c0,-217.79 176.11,-393.99 393.65,-393.99c217.75,0 394.32,176.07 394.32,393.99z" fill="#000000" filter="url(#filter-k1B82w09)"/>
		</g>
		<g color="#ffffff" class="teamapps-effect-color-1">
			<path d="M905.99,512c0,217.95 -176.95,393.99 -394.32,393.99c-217.54,0 -393.65,-176.19 -393.65,-393.99c0,-217.79 176.11,-393.99 393.65,-393.99c217.75,0 394.32,176.07 394.32,393.99z" fill="currentColor"/>
		</g>
		<g>
			<g color="#1565c0" class="teamapps-color-1">
				<path d="M846.08,512c0,184.75 -150.01,334.08 -334.42,334.08c-184.41,0 -333.75,-149.33 -333.75,-334.08c0,-184.75 149.33,-334.08 333.75,-334.08c184.75,0 334.42,149.33 334.42,334.08zM779.26,512c0,-147.67 -119.6,-267.26 -267.26,-267.26c-147.67,0 -267.26,119.6 -267.26,267.26c0,147.67 119.6,267.26 267.26,267.26c147.67,0 267.26,-119.6 267.26,-267.26zM341.28,578.81h341.43c-26.72,68.15 -92.88,116.93 -170.72,116.93c-77.84,0 -143.99,-48.78 -170.72,-116.93zM372.35,478.59l-35.41,-35.41l70.82,-70.83l70.82,70.83l-35.41,35.41l-35.42,-35.41zM616.23,372.35l70.82,70.83l-35.41,35.41l-35.42,-35.41l-35.42,35.41l-35.41,-35.41z" fill="currentColor"/>
			</g>
		</g>
	</g>
</svg>