<svg version="1.1" xmlns="http://www.w3.org/2000/svg" xmlns:xlink="http://www.w3.org/1999/xlink" viewBox="0,0,1024,1024">
	<!-- Color names: teamapps-color-1, teamapps-effect-color-1 -->
	<desc>settings_phone icon - Licensed under Apache License v2.0 (http://www.apache.org/licenses/LICENSE-2.0) - Created with Iconfu.com - Derivative work of Material icons (Copyright Google Inc.)</desc>
	<defs>
		<filter id="filter-4hPUtXVs" x="-8%" y="-8%" width="147%" height="147%" color-interpolation-filters="sRGB">
			<feColorMatrix values="1 0 0 0 0 0 1 0 0 0 0 0 1 0 0 0 0 0 0.17 0" in="SourceGraphic"/>
			<feOffset dx="14.14" dy="14.14"/>
			<feGaussianBlur stdDeviation="11" result="blur0"/>
			<feColorMatrix values="1 0 0 0 0 0 1 0 0 0 0 0 1 0 0 0 0 0 0.25 0" in="SourceGraphic"/>
			<feOffset dx="21.21" dy="21.21"/>
			<feGaussianBlur stdDeviation="20" result="blur1"/>
			<feMerge>
				<feMergeNode in="blur0"/>
				<feMergeNode in="blur1"/>
			</feMerge>
		</filter>
	</defs>
	<g fill="none" fill-rule="nonzero" style="mix-blend-mode: normal">
		<path d="M872.58,662.34v116.93c0,51.46 -41.85,93.31 -93.31,93.31c-346.79,0 -627.84,-281.05 -627.84,-627.84c0,-51.46 41.85,-93.31 93.31,-93.31h116.93c51.46,0 93.31,41.85 93.31,93.31c0,35.33 5.65,69.08 16.02,100.47l1.95,6.92c1.86,-0.17 3.74,-0.26 5.64,-0.26h66.82c12.37,0 23.86,3.75 33.41,10.17c9.54,-6.42 21.04,-10.17 33.41,-10.17h66.81c12.37,0 23.87,3.75 33.41,10.18c9.54,-6.43 21.04,-10.18 33.41,-10.18h66.81c33.08,0 59.9,26.82 59.9,59.9v66.81c0,33.08 -26.82,59.9 -59.9,59.9h-66.81c-12.37,0 -23.87,-3.75 -33.41,-10.18c-9.54,6.43 -21.04,10.18 -33.41,10.18h-66.81c-12.37,0 -23.86,-3.75 -33.41,-10.17c-9.54,6.42 -21.04,10.17 -33.41,10.17h-66.82c-33.08,0 -59.9,-26.82 -59.9,-59.9v-8.92l-11.8,11.85c34.69,54.29 81.06,100.53 135.48,135.22l41.98,-41.97c25.7,-24.77 61.75,-32.05 93.6,-22.04c0.24,0.08 0.49,0.15 0.73,0.23c31.41,10.38 65.27,16.05 100.59,16.05c51.46,0 93.31,41.85 93.31,93.31z" fill="#000000" filter="url(#filter-4hPUtXVs)"/>
		<g color="#ffffff" class="teamapps-effect-color-1">
			<path d="M872.58,662.34v116.93c0,51.46 -41.85,93.31 -93.31,93.31c-346.79,0 -627.84,-281.05 -627.84,-627.84c0,-51.46 41.85,-93.31 93.31,-93.31h116.93c51.46,0 93.31,41.85 93.31,93.31c0,35.33 5.65,69.08 16.02,100.47l1.95,6.92c1.86,-0.17 3.74,-0.26 5.64,-0.26h66.82c12.37,0 23.86,3.75 33.41,10.17c9.54,-6.42 21.04,-10.17 33.41,-10.17h66.81c12.37,0 23.87,3.75 33.41,10.18c9.54,-6.43 21.04,-10.18 33.41,-10.18h66.81c33.08,0 59.9,26.82 59.9,59.9v66.81c0,33.08 -26.82,59.9 -59.9,59.9h-66.81c-12.37,0 -23.87,-3.75 -33.41,-10.18c-9.54,6.43 -21.04,10.18 -33.41,10.18h-66.81c-12.37,0 -23.86,-3.75 -33.41,-10.17c-9.54,6.42 -21.04,10.17 -33.41,10.17h-66.82c-33.08,0 -59.9,-26.82 -59.9,-59.9v-8.92l-11.8,11.85c34.69,54.29 81.06,100.53 135.48,135.22l41.98,-41.97c25.7,-24.77 61.75,-32.05 93.6,-22.04c0.24,0.08 0.49,0.15 0.73,0.23c31.41,10.38 65.27,16.05 100.59,16.05c51.46,0 93.31,41.85 93.31,93.31z" fill="currentColor"/>
		</g>
		<g>
			<g color="#1565c0" class="teamapps-color-1">
				<path d="M812.67,662.34v116.93c0,18.38 -15.03,33.41 -33.41,33.41c-313.7,0 -567.93,-254.23 -567.93,-567.93c0,-18.38 15.03,-33.41 33.41,-33.41h116.93c18.38,0 33.41,15.03 33.41,33.41c0,41.76 6.68,81.85 19.04,119.27c3.67,11.69 1,24.72 -8.35,33.74l-73.5,73.83c48.11,94.55 125.62,171.72 220.16,219.83l73.49,-73.5c9.36,-9.02 22.39,-11.69 34.08,-8.02c37.42,12.36 77.51,19.04 119.27,19.04c18.38,0 33.41,15.03 33.41,33.41zM812.67,411.78v66.81h-66.81v-66.81zM545.41,478.59h-66.82v-66.81h66.82zM679.04,478.59h-66.81v-66.81h66.81z" fill="currentColor"/>
			</g>
		</g>
	</g>
</svg>