<svg version="1.1" xmlns="http://www.w3.org/2000/svg" xmlns:xlink="http://www.w3.org/1999/xlink" viewBox="0,0,1024,1024">
	<!-- Color names: teamapps-color-1, teamapps-effect-color-1 -->
	<desc>settings_bluetooth icon - Licensed under Apache License v2.0 (http://www.apache.org/licenses/LICENSE-2.0) - Created with Iconfu.com - Derivative work of Material icons (Copyright Google Inc.)</desc>
	<defs>
		<clipPath id="clip-SvCKwEt6">
			<path d="M160.59,1024v-1024h730.43v1024z"/>
		</clipPath>
		<filter id="filter-qdz9KRNR" x="-11%" y="-7%" width="175%" height="127%" color-interpolation-filters="sRGB">
			<feColorMatrix values="1 0 0 0 0 0 1 0 0 0 0 0 1 0 0 0 0 0 0.17 0" in="SourceGraphic"/>
			<feOffset dx="14.14" dy="14.14"/>
			<feGaussianBlur stdDeviation="11" result="blur0"/>
			<feColorMatrix values="1 0 0 0 0 0 1 0 0 0 0 0 1 0 0 0 0 0 0.25 0" in="SourceGraphic"/>
			<feOffset dx="21.21" dy="21.21"/>
			<feGaussianBlur stdDeviation="20" result="blur1"/>
			<feMerge>
				<feMergeNode in="blur0"/>
				<feMergeNode in="blur1"/>
			</feMerge>
		</filter>
	</defs>
	<g fill="none" fill-rule="nonzero" style="mix-blend-mode: normal">
		<g clip-path="url(#clip-SvCKwEt6)">
			<path d="M643.92,445.19l101.15,100.91c23.44,23.39 23.46,61.35 0.05,84.77l-164.04,164.04c9.08,-5.54 19.74,-8.72 31.15,-8.72h66.81c33.08,0 59.9,26.82 59.9,59.9v66.81c0,33.08 -26.82,59.9 -59.9,59.9h-66.81c-12.37,0 -23.86,-3.75 -33.41,-10.17c-9.54,6.42 -21.04,10.17 -33.41,10.17h-66.82c-12.37,0 -23.86,-3.75 -33.41,-10.17c-9.54,6.42 -21.04,10.17 -33.41,10.17h-66.81c-33.08,0 -59.9,-26.82 -59.9,-59.9v-66.81c0,-33.08 26.82,-59.9 59.9,-59.9h66.81c2.49,0 4.95,0.15 7.36,0.45c-0.3,-2.41 -0.45,-4.87 -0.45,-7.36v-108.95l-51.08,51.08c-23.39,23.39 -61.32,23.39 -84.72,0l-47.11,-47.11c-23.39,-23.39 -23.39,-61.32 0,-84.72l144.39,-144.39l-144.39,-144.39c-23.39,-23.39 -23.39,-61.32 0,-84.72l47.11,-47.11c23.39,-23.39 61.32,-23.39 84.72,0l51.08,51.08v-108.95c0,-33.08 26.82,-59.9 59.9,-59.9h33.41c15.89,0 31.12,6.31 42.36,17.55l190.76,190.76c23.41,23.41 23.39,61.38 -0.05,84.77z" fill="#000000" filter="url(#filter-qdz9KRNR)"/>
		</g>
		<g color="#ffffff" class="teamapps-effect-color-1">
			<path d="M643.92,445.19l101.15,100.91c23.44,23.39 23.46,61.35 0.05,84.77l-164.04,164.04c9.08,-5.54 19.74,-8.72 31.15,-8.72h66.81c33.08,0 59.9,26.82 59.9,59.9v66.81c0,33.08 -26.82,59.9 -59.9,59.9h-66.81c-12.37,0 -23.86,-3.75 -33.41,-10.17c-9.54,6.42 -21.04,10.17 -33.41,10.17h-66.82c-12.37,0 -23.86,-3.75 -33.41,-10.17c-9.54,6.42 -21.04,10.17 -33.41,10.17h-66.81c-33.08,0 -59.9,-26.82 -59.9,-59.9v-66.81c0,-33.08 26.82,-59.9 59.9,-59.9h66.81c2.49,0 4.95,0.15 7.36,0.45c-0.3,-2.41 -0.45,-4.87 -0.45,-7.36v-108.95l-51.08,51.08c-23.39,23.39 -61.32,23.39 -84.72,0l-47.11,-47.11c-23.39,-23.39 -23.39,-61.32 0,-84.72l144.39,-144.39l-144.39,-144.39c-23.39,-23.39 -23.39,-61.32 0,-84.72l47.11,-47.11c23.39,-23.39 61.32,-23.39 84.72,0l51.08,51.08v-108.95c0,-33.08 26.82,-59.9 59.9,-59.9h33.41c15.89,0 31.12,6.31 42.36,17.55l190.76,190.76c23.41,23.41 23.39,61.38 -0.05,84.77z" fill="currentColor"/>
		</g>
		<g>
			<g color="#1565c0" class="teamapps-color-1">
				<path d="M559.11,445.19l143.66,143.32l-190.76,190.75h-33.41v-253.57l-153.34,153.34l-47.11,-47.11l186.75,-186.75l-186.75,-186.75l47.11,-47.11l153.34,153.34v-253.57h33.41l190.76,190.76zM545.41,525.69v125.62l62.8,-62.8zM545.41,364.67l62.8,-62.8l-62.8,-62.81zM344.96,846.08h66.81v66.81h-66.81zM478.59,846.08h66.82v66.81h-66.82zM612.22,846.08h66.81v66.81h-66.81z" fill="currentColor"/>
			</g>
		</g>
	</g>
</svg>