<svg version="1.1" xmlns="http://www.w3.org/2000/svg" xmlns:xlink="http://www.w3.org/1999/xlink" viewBox="0,0,1024,1024">
	<!-- Color names: teamapps-color-1, teamapps-effect-color-1 -->
	<desc>settings_voice icon - Licensed under Apache License v2.0 (http://www.apache.org/licenses/LICENSE-2.0) - Created with Iconfu.com - Derivative work of Material icons (Copyright Google Inc.)</desc>
	<defs>
		<clipPath id="clip-LH4nruXv">
			<path d="M160.59,26.97h773.53v997.03h-773.53z"/>
		</clipPath>
		<filter id="filter-1ZqwdhCX" x="-10%" y="-7%" width="169%" height="131%" color-interpolation-filters="sRGB">
			<feColorMatrix values="1 0 0 0 0 0 1 0 0 0 0 0 1 0 0 0 0 0 0.17 0" in="SourceGraphic"/>
			<feOffset dx="14.14" dy="14.14"/>
			<feGaussianBlur stdDeviation="11" result="blur0"/>
			<feColorMatrix values="1 0 0 0 0 0 1 0 0 0 0 0 1 0 0 0 0 0 0.25 0" in="SourceGraphic"/>
			<feOffset dx="21.21" dy="21.21"/>
			<feGaussianBlur stdDeviation="20" result="blur1"/>
			<feMerge>
				<feMergeNode in="blur0"/>
				<feMergeNode in="blur1"/>
			</feMerge>
		</filter>
	</defs>
	<g fill="none" fill-rule="nonzero" style="mix-blend-mode: normal">
		<g clip-path="url(#clip-LH4nruXv)">
			<path d="M605.31,716.51v62.75c0,2.49 -0.15,4.95 -0.45,7.36c2.41,-0.3 4.87,-0.45 7.36,-0.45h66.81c33.08,0 59.9,26.82 59.9,59.9v66.81c0,33.08 -26.82,59.9 -59.9,59.9h-66.81c-12.37,0 -23.86,-3.75 -33.41,-10.17c-9.54,6.42 -21.04,10.17 -33.41,10.17h-66.82c-12.37,0 -23.86,-3.75 -33.41,-10.17c-9.54,6.42 -21.04,10.17 -33.41,10.17h-66.81c-33.08,0 -59.9,-26.82 -59.9,-59.9v-66.81c0,-33.08 26.82,-59.9 59.9,-59.9h66.81c2.49,0 4.95,0.15 7.36,0.45c-0.3,-2.41 -0.45,-4.87 -0.45,-7.36v-62.75c-112.42,-38.28 -200.45,-143.44 -200.45,-271.33c0,-33.08 26.82,-59.9 59.9,-59.9h56.8c5.88,0 11.56,0.85 16.93,2.43v-142.97c0,-88.54 71.58,-160.13 160.13,-160.13c88.54,0 160.13,71.58 160.13,160.13l-0.24,143.04c5.44,-1.62 11.2,-2.5 17.17,-2.5h56.8c33.08,0 59.9,26.82 59.9,59.9c0,127.88 -88.02,233.05 -200.45,271.33z" fill="#000000" filter="url(#filter-1ZqwdhCX)"/>
		</g>
		<g color="#ffffff" class="teamapps-effect-color-1">
			<path d="M605.31,716.51v62.75c0,2.49 -0.15,4.95 -0.45,7.36c2.41,-0.3 4.87,-0.45 7.36,-0.45h66.81c33.08,0 59.9,26.82 59.9,59.9v66.81c0,33.08 -26.82,59.9 -59.9,59.9h-66.81c-12.37,0 -23.86,-3.75 -33.41,-10.17c-9.54,6.42 -21.04,10.17 -33.41,10.17h-66.82c-12.37,0 -23.86,-3.75 -33.41,-10.17c-9.54,6.42 -21.04,10.17 -33.41,10.17h-66.81c-33.08,0 -59.9,-26.82 -59.9,-59.9v-66.81c0,-33.08 26.82,-59.9 59.9,-59.9h66.81c2.49,0 4.95,0.15 7.36,0.45c-0.3,-2.41 -0.45,-4.87 -0.45,-7.36v-62.75c-112.42,-38.28 -200.45,-143.44 -200.45,-271.33c0,-33.08 26.82,-59.9 59.9,-59.9h56.8c5.88,0 11.56,0.85 16.93,2.43v-142.97c0,-88.54 71.58,-160.13 160.13,-160.13c88.54,0 160.13,71.58 160.13,160.13l-0.24,143.04c5.44,-1.62 11.2,-2.5 17.17,-2.5h56.8c33.08,0 59.9,26.82 59.9,59.9c0,127.88 -88.02,233.05 -200.45,271.33z" fill="currentColor"/>
		</g>
		<g>
			<g color="#1565c0" class="teamapps-color-1">
				<path d="M545.41,669.69v109.57h-66.82v-109.57c-109.58,-16.37 -200.45,-110.58 -200.45,-224.5h56.8c0,100.22 84.85,170.38 177.06,170.38c92.21,0 177.06,-70.16 177.06,-170.38h56.8c0,113.92 -90.87,208.13 -200.45,224.5zM411.78,445.19v-200.45c0,-55.46 44.76,-100.22 100.22,-100.22c55.46,0 100.22,44.76 100.22,100.22l-0.34,200.45c0,55.46 -44.43,100.22 -99.89,100.22c-55.46,0 -100.22,-44.76 -100.22,-100.22zM344.96,846.08h66.81v66.81h-66.81zM478.59,846.08h66.82v66.81h-66.82zM612.22,846.08h66.81v66.81h-66.81z" fill="currentColor"/>
			</g>
		</g>
	</g>
</svg>