<svg version="1.1" xmlns="http://www.w3.org/2000/svg" xmlns:xlink="http://www.w3.org/1999/xlink" viewBox="0,0,1024,1024">
	<!-- Color names: teamapps-color-1, teamapps-effect-color-1 -->
	<desc>shop icon - Licensed under Apache License v2.0 (http://www.apache.org/licenses/LICENSE-2.0) - Created with Iconfu.com - Derivative work of Material icons (Copyright Google Inc.)</desc>
	<defs>
		<clipPath id="clip-p7YnLePI">
			<path d="M60.37,1000.93v-940.56h963.63v940.56z"/>
		</clipPath>
		<filter id="filter-Bj6Er2Ad" x="-8%" y="-8%" width="140%" height="141%" color-interpolation-filters="sRGB">
			<feColorMatrix values="1 0 0 0 0 0 1 0 0 0 0 0 1 0 0 0 0 0 0.17 0" in="SourceGraphic"/>
			<feOffset dx="14.14" dy="14.14"/>
			<feGaussianBlur stdDeviation="11" result="blur0"/>
			<feColorMatrix values="1 0 0 0 0 0 1 0 0 0 0 0 1 0 0 0 0 0 0.25 0" in="SourceGraphic"/>
			<feOffset dx="21.21" dy="21.21"/>
			<feGaussianBlur stdDeviation="20" result="blur1"/>
			<feMerge>
				<feMergeNode in="blur0"/>
				<feMergeNode in="blur1"/>
			</feMerge>
		</filter>
	</defs>
	<g fill="none" fill-rule="nonzero" style="mix-blend-mode: normal">
		<g clip-path="url(#clip-p7YnLePI)">
			<path d="M905.99,311.55v434.31c0,70.18 -56.57,126.72 -126.73,126.72h-534.52c-70.16,0 -126.73,-56.54 -126.73,-126.72v-434.31c0,-33.08 26.82,-59.9 59.9,-59.9h140.54v-6.91c0,-70.17 56.56,-126.73 126.73,-126.73h133.63c70.17,0 126.73,56.56 126.73,126.73v6.91h140.54c33.08,0 59.9,26.82 59.9,59.9z" fill="#000000" filter="url(#filter-Bj6Er2Ad)"/>
		</g>
		<g color="#ffffff" class="teamapps-effect-color-1">
			<path d="M905.99,311.55v434.31c0,70.18 -56.57,126.72 -126.73,126.72h-534.52c-70.16,0 -126.73,-56.54 -126.73,-126.72v-434.31c0,-33.08 26.82,-59.9 59.9,-59.9h140.54v-6.91c0,-70.17 56.56,-126.73 126.73,-126.73h133.63c70.17,0 126.73,56.56 126.73,126.73v6.91h140.54c33.08,0 59.9,26.82 59.9,59.9z" fill="currentColor"/>
		</g>
		<g>
			<g color="#1565c0" class="teamapps-color-1">
				<path d="M846.08,311.55v434.31c0,37.08 -29.74,66.81 -66.82,66.81h-534.52c-37.08,0 -66.82,-29.73 -66.82,-66.81v-434.31h200.45v-66.81c0,-37.08 29.74,-66.82 66.82,-66.82h133.63c37.08,0 66.82,29.74 66.82,66.82v66.81zM662.34,545.41l-250.56,-133.63v300.67zM445.19,311.55h133.63v-66.81h-133.63z" fill="currentColor"/>
			</g>
		</g>
	</g>
</svg>