<svg version="1.1" xmlns="http://www.w3.org/2000/svg" xmlns:xlink="http://www.w3.org/1999/xlink" viewBox="0,0,1024,1024">
	<!-- Color names: teamapps-color-1, teamapps-effect-color-1 -->
	<desc>signal_wifi_4_bar icon - Licensed under Apache License v2.0 (http://www.apache.org/licenses/LICENSE-2.0) - Created with Iconfu.com - Derivative work of Material icons (Copyright Google Inc.)</desc>
	<defs>
		<clipPath id="clip-bxRT5Y21">
			<path d="M5.58,1017.63v-923.85h1018.42v923.85z"/>
		</clipPath>
		<filter id="filter-aqhWduJu" x="-7%" y="-8%" width="129%" height="146%" color-interpolation-filters="sRGB">
			<feColorMatrix values="1 0 0 0 0 0 1 0 0 0 0 0 1 0 0 0 0 0 0.17 0" in="SourceGraphic"/>
			<feOffset dx="14.14" dy="14.14"/>
			<feGaussianBlur stdDeviation="11" result="blur0"/>
			<feColorMatrix values="1 0 0 0 0 0 1 0 0 0 0 0 1 0 0 0 0 0 0.25 0" in="SourceGraphic"/>
			<feOffset dx="21.21" dy="21.21"/>
			<feGaussianBlur stdDeviation="20" result="blur1"/>
			<feMerge>
				<feMergeNode in="blur0"/>
				<feMergeNode in="blur1"/>
			</feMerge>
		</filter>
	</defs>
	<g fill="none" fill-rule="nonzero" style="mix-blend-mode: normal">
		<g clip-path="url(#clip-bxRT5Y21)">
			<path d="M465.29,866.87l-388.87,-484.41c-21.14,-26.34 -16.35,-64.93 10.6,-85.29c15.93,-12.04 179.16,-145.75 424.99,-145.75c245.48,0 409.04,133.69 424.99,145.75c26.94,20.36 31.74,58.96 10.6,85.29l-388.87,484.41c-11.37,14.16 -28.55,22.4 -46.71,22.4c-18.16,0 -35.34,-8.24 -46.71,-22.4z" fill="#000000" filter="url(#filter-aqhWduJu)"/>
		</g>
		<g color="#ffffff" class="teamapps-effect-color-1">
			<path d="M465.29,866.87l-388.87,-484.41c-21.14,-26.34 -16.35,-64.93 10.6,-85.29c15.93,-12.04 179.16,-145.75 424.99,-145.75c245.48,0 409.04,133.69 424.99,145.75c26.94,20.36 31.74,58.96 10.6,85.29l-388.87,484.41c-11.37,14.16 -28.55,22.4 -46.71,22.4c-18.16,0 -35.34,-8.24 -46.71,-22.4z" fill="currentColor"/>
		</g>
		<g>
			<g color="#1565c0" class="teamapps-color-1">
				<path d="M512,829.37l-0.34,-0.33l-388.53,-484.08c15.03,-11.36 164.37,-133.63 388.87,-133.63c224.17,0 373.84,122.27 388.87,133.63l-388.53,484.08z" fill="currentColor"/>
			</g>
		</g>
	</g>
</svg>