<svg version="1.1" xmlns="http://www.w3.org/2000/svg" xmlns:xlink="http://www.w3.org/1999/xlink" viewBox="0,0,1024,1024">
	<!-- Color names: teamapps-color-1, teamapps-effect-color-1 -->
	<desc>signal_cellular_off icon - Licensed under Apache License v2.0 (http://www.apache.org/licenses/LICENSE-2.0) - Created with Iconfu.com - Derivative work of Material icons (Copyright Google Inc.)</desc>
	<defs>
		<clipPath id="clip-SjypUONO">
			<path d="M26.96,26.96h997.04v997.04h-997.04z"/>
		</clipPath>
		<filter id="filter-HaH18Rn3" x="-8%" y="-7%" width="134%" height="132%" color-interpolation-filters="sRGB">
			<feColorMatrix values="1 0 0 0 0 0 1 0 0 0 0 0 1 0 0 0 0 0 0.17 0" in="SourceGraphic"/>
			<feOffset dx="14.14" dy="14.14"/>
			<feGaussianBlur stdDeviation="11" result="blur0"/>
			<feColorMatrix values="1 0 0 0 0 0 1 0 0 0 0 0 1 0 0 0 0 0 0.25 0" in="SourceGraphic"/>
			<feOffset dx="21.21" dy="21.21"/>
			<feGaussianBlur stdDeviation="20" result="blur1"/>
			<feMerge>
				<feMergeNode in="blur0"/>
				<feMergeNode in="blur1"/>
			</feMerge>
		</filter>
	</defs>
	<g fill="none" fill-rule="nonzero" style="mix-blend-mode: normal">
		<g clip-path="url(#clip-SjypUONO)">
			<path d="M888.44,879.42l-42.43,42.42c-23.39,23.39 -61.32,23.39 -84.71,0l-49.27,-49.27h-567.51c-24.22,0 -46.06,-14.59 -55.34,-36.96c-9.28,-22.38 -4.16,-48.14 12.95,-65.27l253.68,-253.97l-170.14,-170.14c-23.39,-23.39 -23.39,-61.32 0,-84.72l42.43,-42.43c23.39,-23.39 61.32,-23.39 84.72,0l170.28,170.28l287.21,-287.21c17.13,-17.13 42.9,-22.26 65.28,-12.98c22.38,9.27 36.98,31.12 36.98,55.34v573.95c0,16.32 -6.62,31.55 -17.78,42.6l33.65,33.65c23.4,23.4 23.39,61.33 0,84.72z" fill="#000000" filter="url(#filter-HaH18Rn3)"/>
		</g>
		<g color="#ffffff" class="teamapps-effect-color-1">
			<path d="M888.44,879.42l-42.43,42.42c-23.39,23.39 -61.32,23.39 -84.71,0l-49.27,-49.27h-567.51c-24.22,0 -46.06,-14.59 -55.34,-36.96c-9.28,-22.38 -4.16,-48.14 12.95,-65.27l253.68,-253.97l-170.14,-170.14c-23.39,-23.39 -23.39,-61.32 0,-84.72l42.43,-42.43c23.39,-23.39 61.32,-23.39 84.72,0l170.28,170.28l287.21,-287.21c17.13,-17.13 42.9,-22.26 65.28,-12.98c22.38,9.27 36.98,31.12 36.98,55.34v573.95c0,16.32 -6.62,31.55 -17.78,42.6l33.65,33.65c23.4,23.4 23.39,61.33 0,84.72z" fill="currentColor"/>
		</g>
		<g>
			<g color="#1565c0" class="teamapps-color-1">
				<path d="M846.08,837.06l-42.43,42.42l-66.81,-66.81h-592.32l295.99,-296.33l-212.47,-212.47l42.43,-42.43zM812.67,718.46l-286.98,-286.98l286.98,-286.97z" fill="currentColor"/>
			</g>
		</g>
	</g>
</svg>