<svg version="1.1" xmlns="http://www.w3.org/2000/svg" xmlns:xlink="http://www.w3.org/1999/xlink" viewBox="0,0,1024,1024">
	<!-- Color names: teamapps-color-1, teamapps-effect-color-1 -->
	<desc>speaker_phone icon - Licensed under Apache License v2.0 (http://www.apache.org/licenses/LICENSE-2.0) - Created with Iconfu.com - Derivative work of Material icons (Copyright Google Inc.)</desc>
	<defs>
		<clipPath id="clip-TzrpZSK2">
			<path d="M135.54,26.97h823.64v997.03h-823.64z"/>
		</clipPath>
		<filter id="filter-8wM18VFc" x="-10%" y="-8%" width="161%" height="134%" color-interpolation-filters="sRGB">
			<feColorMatrix values="1 0 0 0 0 0 1 0 0 0 0 0 1 0 0 0 0 0 0.17 0" in="SourceGraphic"/>
			<feOffset dx="14.14" dy="14.14"/>
			<feGaussianBlur stdDeviation="11" result="blur0"/>
			<feColorMatrix values="1 0 0 0 0 0 1 0 0 0 0 0 1 0 0 0 0 0 0.25 0" in="SourceGraphic"/>
			<feOffset dx="21.21" dy="21.21"/>
			<feGaussianBlur stdDeviation="20" result="blur1"/>
			<feMerge>
				<feMergeNode in="blur0"/>
				<feMergeNode in="blur1"/>
			</feMerge>
		</filter>
	</defs>
	<g fill="none" fill-rule="nonzero" style="mix-blend-mode: normal">
		<g clip-path="url(#clip-TzrpZSK2)">
			<path d="M705.2,483.64v324.02c0,54.13 -43.86,97.99 -97.99,97.99h-190.76c-54.13,0 -97.99,-43.86 -97.99,-97.99v-324.39c0,-21.9 7.18,-42.12 19.32,-58.44l-35.18,-35.18c-9.21,-9.21 -14.79,-20.68 -16.75,-32.62c-10.27,-2.52 -20,-7.79 -28.02,-15.81l-47.11,-47.11c-23.44,-23.44 -23.39,-61.45 0.11,-84.82c77.15,-76.76 183.67,-124.68 301.17,-124.68c117.49,0 224.01,47.91 301.17,124.68c23.5,23.38 23.54,61.39 0.11,84.82l-47.11,47.11c-8.02,8.02 -17.75,13.29 -28.02,15.81c-1.96,11.94 -7.54,23.41 -16.75,32.62l-35.24,35.25c12.1,16.2 19.27,36.42 19.05,58.74z" fill="#000000" filter="url(#filter-8wM18VFc)"/>
		</g>
		<g color="#ffffff" class="teamapps-effect-color-1">
			<path d="M705.2,483.64v324.02c0,54.13 -43.86,97.99 -97.99,97.99h-190.76c-54.13,0 -97.99,-43.86 -97.99,-97.99v-324.39c0,-21.9 7.18,-42.12 19.32,-58.44l-35.18,-35.18c-9.21,-9.21 -14.79,-20.68 -16.75,-32.62c-10.27,-2.52 -20,-7.79 -28.02,-15.81l-47.11,-47.11c-23.44,-23.44 -23.39,-61.45 0.11,-84.82c77.15,-76.76 183.67,-124.68 301.17,-124.68c117.49,0 224.01,47.91 301.17,124.68c23.5,23.38 23.54,61.39 0.11,84.82l-47.11,47.11c-8.02,8.02 -17.75,13.29 -28.02,15.81c-1.96,11.94 -7.54,23.41 -16.75,32.62l-35.24,35.25c12.1,16.2 19.27,36.42 19.05,58.74z" fill="currentColor"/>
		</g>
		<g>
			<g color="#1565c0" class="teamapps-color-1">
				<path d="M645.3,483.27v324.39c0,21.05 -17.04,38.09 -38.09,38.09h-190.76c-21.05,0 -38.09,-17.04 -38.09,-38.09v-324.39c0,-21.05 17.04,-38.09 38.09,-38.09l191.1,0.33c21.05,0 38.09,16.71 37.75,37.76zM770.91,251.75l-47.11,47.11c-54.12,-54.12 -129.29,-87.53 -211.81,-87.53c-82.52,0 -157.69,33.41 -211.81,87.53l-47.11,-47.11c66.48,-66.15 158.03,-107.24 258.91,-107.24c100.89,0 192.43,41.09 258.91,107.24zM612.22,512h-200.45v267.26h200.45zM512,278.14c65.15,0 124.28,26.39 167.04,69.15l-47.77,47.78c-30.4,-30.4 -72.83,-49.45 -119.27,-49.45c-46.44,0 -88.86,19.04 -119.27,49.45l-47.77,-47.78c42.76,-42.76 101.89,-69.15 167.04,-69.15z" fill="currentColor"/>
			</g>
		</g>
	</g>
</svg>