<svg version="1.1" xmlns="http://www.w3.org/2000/svg" xmlns:xlink="http://www.w3.org/1999/xlink" viewBox="0,0,1024,1024">
	<!-- Color names: teamapps-color-1, teamapps-effect-color-1 -->
	<desc>speaker_notes_off icon - Licensed under Apache License v2.0 (http://www.apache.org/licenses/LICENSE-2.0) - Created with Iconfu.com - Derivative work of Material icons (Copyright Google Inc.)</desc>
	<defs>
		<clipPath id="clip-u3cgT6XO">
			<path d="M0,1024v-972.65h1024v972.65z"/>
		</clipPath>
		<filter id="filter-sCqrTI8z" x="-7%" y="-7%" width="129%" height="135%" color-interpolation-filters="sRGB">
			<feColorMatrix values="1 0 0 0 0 0 1 0 0 0 0 0 1 0 0 0 0 0 0.17 0" in="SourceGraphic"/>
			<feOffset dx="14.14" dy="14.14"/>
			<feGaussianBlur stdDeviation="11" result="blur0"/>
			<feColorMatrix values="1 0 0 0 0 0 1 0 0 0 0 0 1 0 0 0 0 0 0.25 0" in="SourceGraphic"/>
			<feOffset dx="21.21" dy="21.21"/>
			<feGaussianBlur stdDeviation="20" result="blur1"/>
			<feMerge>
				<feMergeNode in="blur0"/>
				<feMergeNode in="blur1"/>
			</feMerge>
		</filter>
	</defs>
	<g fill="none" fill-rule="nonzero" style="mix-blend-mode: normal">
		<g clip-path="url(#clip-u3cgT6XO)">
			<path d="M888.44,903.8l-42.43,42.43c-23.39,23.39 -61.32,23.39 -84.72,0l-173.88,-173.88h-251.05l-116.09,116.09c-17.14,17.14 -42.91,22.26 -65.3,12.98c-22.39,-9.28 -36.98,-31.14 -36.96,-55.37l0.32,-542.77l-49.59,-49.59c-23.39,-23.39 -23.39,-61.32 0,-84.72l42.43,-42.43c23.39,-23.39 61.32,-23.39 84.72,0l9.09,9.09c11.03,-11.06 26.19,-17.61 42.43,-17.61h531.85c69.83,0 126.73,56.89 126.73,126.73v400.9c0,52.05 -31.25,96.01 -75.43,115.57l57.89,57.89c23.39,23.39 23.39,61.32 0,84.72z" fill="#000000" filter="url(#filter-sCqrTI8z)"/>
		</g>
		<g color="#ffffff" class="teamapps-effect-color-1">
			<path d="M888.44,903.8l-42.43,42.43c-23.39,23.39 -61.32,23.39 -84.72,0l-173.88,-173.88h-251.05l-116.09,116.09c-17.14,17.14 -42.91,22.26 -65.3,12.98c-22.39,-9.28 -36.98,-31.14 -36.96,-55.37l0.32,-542.77l-49.59,-49.59c-23.39,-23.39 -23.39,-61.32 0,-84.72l42.43,-42.43c23.39,-23.39 61.32,-23.39 84.72,0l9.09,9.09c11.03,-11.06 26.19,-17.61 42.43,-17.61h531.85c69.83,0 126.73,56.89 126.73,126.73v400.9c0,52.05 -31.25,96.01 -75.43,115.57l57.89,57.89c23.39,23.39 23.39,61.32 0,84.72z" fill="currentColor"/>
		</g>
		<g>
			<g color="#1565c0" class="teamapps-color-1">
				<path d="M697.08,712.45l149,149l-42.43,42.43l-191.43,-191.43h-300.67l-133.63,133.63l0.34,-567.6l-67.15,-67.15l42.43,-42.43l37.08,37.08l120.93,120.94l51.45,51.44l100.22,100.22zM846.08,244.74v400.9c0,36.08 -28.74,65.14 -64.48,66.48l-233.52,-233.52h164.37v-66.81h-231.18l-33.41,-33.41h264.59v-66.81h-267.26v64.14l-197.78,-197.78h531.85c36.75,0 66.82,30.08 66.82,66.82zM378.37,478.59l-66.81,-66.81v66.81zM378.37,512h-66.81v66.81h66.81z" fill="currentColor"/>
			</g>
		</g>
	</g>
</svg>