<svg version="1.1" xmlns="http://www.w3.org/2000/svg" xmlns:xlink="http://www.w3.org/1999/xlink" viewBox="0,0,1024,1024">
	<!-- Color names: teamapps-color-1, teamapps-effect-color-1 -->
	<desc>speaker icon - Licensed under Apache License v2.0 (http://www.apache.org/licenses/LICENSE-2.0) - Created with Iconfu.com - Derivative work of Material icons (Copyright Google Inc.)</desc>
	<defs>
		<clipPath id="clip-vBIvET7x">
			<path d="M160.59,60.37h773.53v963.63h-773.53z"/>
		</clipPath>
		<filter id="filter-gZYlXmEE" x="-10%" y="-8%" width="169%" height="140%" color-interpolation-filters="sRGB">
			<feColorMatrix values="1 0 0 0 0 0 1 0 0 0 0 0 1 0 0 0 0 0 0.17 0" in="SourceGraphic"/>
			<feOffset dx="14.14" dy="14.14"/>
			<feGaussianBlur stdDeviation="11" result="blur0"/>
			<feColorMatrix values="1 0 0 0 0 0 1 0 0 0 0 0 1 0 0 0 0 0 0.25 0" in="SourceGraphic"/>
			<feOffset dx="21.21" dy="21.21"/>
			<feGaussianBlur stdDeviation="20" result="blur1"/>
			<feMerge>
				<feMergeNode in="blur0"/>
				<feMergeNode in="blur1"/>
			</feMerge>
		</filter>
	</defs>
	<g fill="none" fill-rule="nonzero" style="mix-blend-mode: normal">
		<g clip-path="url(#clip-vBIvET7x)">
			<path d="M805.76,244.74v534.52c0,69.83 -56.89,126.73 -126.73,126.73l-334.14,-0.34c-69.4,-0.03 -126.66,-56.17 -126.66,-126.39v-534.52c0,-69.83 56.89,-126.73 126.73,-126.73h334.07c69.83,0 126.73,56.89 126.73,126.73z" fill="#000000" filter="url(#filter-gZYlXmEE)"/>
		</g>
		<g color="#ffffff" class="teamapps-effect-color-1">
			<path d="M805.76,244.74v534.52c0,69.83 -56.89,126.73 -126.73,126.73l-334.14,-0.34c-69.4,-0.03 -126.66,-56.17 -126.66,-126.39v-534.52c0,-69.83 56.89,-126.73 126.73,-126.73h334.07c69.83,0 126.73,56.89 126.73,126.73z" fill="currentColor"/>
		</g>
		<g>
			<g color="#1565c0" class="teamapps-color-1">
				<path d="M745.86,244.74v534.52c0,36.75 -30.08,66.82 -66.82,66.82l-334.07,-0.34c-36.75,0 -66.82,-29.74 -66.82,-66.48v-534.52c0,-36.75 30.08,-66.82 66.82,-66.82h334.07c36.75,0 66.82,30.08 66.82,66.82zM679.04,612.22c0,-92.21 -74.83,-167.04 -167.04,-167.04c-92.21,0 -167.04,74.83 -167.04,167.04c0,92.21 74.83,167.04 167.04,167.04c92.21,0 167.04,-74.83 167.04,-167.04zM612.22,612.22c0,55.46 -44.76,100.22 -100.22,100.22c-55.46,0 -100.22,-44.76 -100.22,-100.22c0,-55.46 44.76,-100.22 100.22,-100.22c55.46,0 100.22,44.76 100.22,100.22zM445.19,311.55c0,36.75 29.73,66.81 66.81,66.81c36.75,0 66.81,-30.07 66.81,-66.81c0,-36.75 -30.07,-66.81 -66.81,-66.81c-37.08,0 -66.81,30.07 -66.81,66.81z" fill="currentColor"/>
			</g>
		</g>
	</g>
</svg>