<svg version="1.1" xmlns="http://www.w3.org/2000/svg" xmlns:xlink="http://www.w3.org/1999/xlink" viewBox="0,0,1024,1024">
	<!-- Color names: teamapps-color-1, teamapps-effect-color-1 -->
	<desc>stop icon - Licensed under Apache License v2.0 (http://www.apache.org/licenses/LICENSE-2.0) - Created with Iconfu.com - Derivative work of Material icons (Copyright Google Inc.)</desc>
	<defs>
		<filter id="filter-PZeP4eIY" x="-12%" y="-12%" width="185%" height="185%" color-interpolation-filters="sRGB">
			<feColorMatrix values="1 0 0 0 0 0 1 0 0 0 0 0 1 0 0 0 0 0 0.17 0" in="SourceGraphic"/>
			<feOffset dx="14.14" dy="14.14"/>
			<feGaussianBlur stdDeviation="11" result="blur0"/>
			<feColorMatrix values="1 0 0 0 0 0 1 0 0 0 0 0 1 0 0 0 0 0 0.25 0" in="SourceGraphic"/>
			<feOffset dx="21.21" dy="21.21"/>
			<feGaussianBlur stdDeviation="20" result="blur1"/>
			<feMerge>
				<feMergeNode in="blur0"/>
				<feMergeNode in="blur1"/>
			</feMerge>
		</filter>
	</defs>
	<g fill="none" fill-rule="nonzero" style="mix-blend-mode: normal">
		<path d="M311.55,251.65h400.9c33.08,0 59.9,26.82 59.9,59.9v400.9c0,33.08 -26.82,59.9 -59.9,59.9h-400.9c-33.08,0 -59.9,-26.82 -59.9,-59.9v-400.9c0,-33.08 26.82,-59.9 59.9,-59.9z" fill="#000000" filter="url(#filter-PZeP4eIY)"/>
		<g color="#ffffff" class="teamapps-effect-color-1">
			<path d="M311.55,251.65h400.9c33.08,0 59.9,26.82 59.9,59.9v400.9c0,33.08 -26.82,59.9 -59.9,59.9h-400.9c-33.08,0 -59.9,-26.82 -59.9,-59.9v-400.9c0,-33.08 26.82,-59.9 59.9,-59.9z" fill="currentColor"/>
		</g>
		<g>
			<g color="#1565c0" class="teamapps-color-1">
				<path d="M311.55,311.55h400.9v400.9h-400.9z" fill="currentColor"/>
			</g>
		</g>
	</g>
</svg>