<svg version="1.1" xmlns="http://www.w3.org/2000/svg" xmlns:xlink="http://www.w3.org/1999/xlink" viewBox="0,0,1024,1024">
	<!-- Color names: teamapps-color-1, teamapps-effect-color-1 -->
	<desc>surround_sound icon - Licensed under Apache License v2.0 (http://www.apache.org/licenses/LICENSE-2.0) - Created with Iconfu.com - Derivative work of Material icons (Copyright Google Inc.)</desc>
	<defs>
		<clipPath id="clip-NLR8DaGL">
			<path d="M60.37,967.52v-840.33h963.63v840.33z"/>
		</clipPath>
		<filter id="filter-SyFTIFDq" x="-8%" y="-9%" width="140%" height="157%" color-interpolation-filters="sRGB">
			<feColorMatrix values="1 0 0 0 0 0 1 0 0 0 0 0 1 0 0 0 0 0 0.17 0" in="SourceGraphic"/>
			<feOffset dx="14.14" dy="14.14"/>
			<feGaussianBlur stdDeviation="11" result="blur0"/>
			<feColorMatrix values="1 0 0 0 0 0 1 0 0 0 0 0 1 0 0 0 0 0 0.25 0" in="SourceGraphic"/>
			<feOffset dx="21.21" dy="21.21"/>
			<feGaussianBlur stdDeviation="20" result="blur1"/>
			<feMerge>
				<feMergeNode in="blur0"/>
				<feMergeNode in="blur1"/>
			</feMerge>
		</filter>
	</defs>
	<g fill="none" fill-rule="nonzero" style="mix-blend-mode: normal">
		<g clip-path="url(#clip-NLR8DaGL)">
			<path d="M905.99,311.55v400.9c0,69.84 -56.9,126.72 -126.73,126.72h-534.52c-69.82,0 -126.73,-56.88 -126.73,-126.72v-400.9c0,-69.84 56.9,-126.72 126.73,-126.72h534.52c69.82,0 126.73,56.88 126.73,126.72z" fill="#000000" filter="url(#filter-SyFTIFDq)"/>
		</g>
		<g color="#ffffff" class="teamapps-effect-color-1">
			<path d="M905.99,311.55v400.9c0,69.84 -56.9,126.72 -126.73,126.72h-534.52c-69.82,0 -126.73,-56.88 -126.73,-126.72v-400.9c0,-69.84 56.9,-126.72 126.73,-126.72h534.52c69.82,0 126.73,56.88 126.73,126.72z" fill="currentColor"/>
		</g>
		<g>
			<g color="#1565c0" class="teamapps-color-1">
				<path d="M846.08,311.55v400.9c0,36.75 -30.08,66.81 -66.82,66.81h-534.52c-36.75,0 -66.82,-30.07 -66.82,-66.81v-400.9c0,-36.75 30.08,-66.81 66.82,-66.81h534.52c36.75,0 66.82,30.07 66.82,66.81zM645.63,512c0,-73.83 -59.81,-133.63 -133.63,-133.63c-73.83,0 -133.63,59.81 -133.63,133.63c0,73.83 59.81,133.63 133.63,133.63c73.83,0 133.63,-59.81 133.63,-133.63zM779.26,512c0,-68.49 -26.05,-136.98 -78.5,-188.76l-47.11,47.11c39.09,39.09 58.8,90.2 58.8,141.65c0,51.45 -19.72,102.56 -58.47,141.98l47.11,47.11c52.12,-52.12 78.17,-120.6 78.17,-189.09zM311.55,512c0,-51.45 19.72,-102.56 58.47,-141.98l-47.11,-47.11c-52.12,52.12 -78.17,120.6 -78.17,189.09c0,68.49 26.05,136.98 78.5,188.76l47.11,-47.11c-39.09,-39.09 -58.8,-90.2 -58.8,-141.65zM578.81,512c0,36.75 -30.07,66.81 -66.81,66.81c-36.75,0 -66.81,-30.07 -66.81,-66.81c0,-36.75 30.07,-66.81 66.81,-66.81c36.75,0 66.81,30.07 66.81,66.81z" fill="currentColor"/>
			</g>
		</g>
	</g>
</svg>