<svg version="1.1" xmlns="http://www.w3.org/2000/svg" xmlns:xlink="http://www.w3.org/1999/xlink" viewBox="0,0,1024,1024">
	<!-- Color names: teamapps-color-1, teamapps-effect-color-1 -->
	<desc>swap_calls icon - Licensed under Apache License v2.0 (http://www.apache.org/licenses/LICENSE-2.0) - Created with Iconfu.com - Derivative work of Material icons (Copyright Google Inc.)</desc>
	<defs>
		<clipPath id="clip-Zj10zVfS">
			<path d="M60.37,934.12v-806.93h963.63v806.93z"/>
		</clipPath>
		<filter id="filter-8pWnPWKg" x="-8%" y="-10%" width="140%" height="161%" color-interpolation-filters="sRGB">
			<feColorMatrix values="1 0 0 0 0 0 1 0 0 0 0 0 1 0 0 0 0 0 0.17 0" in="SourceGraphic"/>
			<feOffset dx="14.14" dy="14.14"/>
			<feGaussianBlur stdDeviation="11" result="blur0"/>
			<feColorMatrix values="1 0 0 0 0 0 1 0 0 0 0 0 1 0 0 0 0 0 0.25 0" in="SourceGraphic"/>
			<feOffset dx="21.21" dy="21.21"/>
			<feGaussianBlur stdDeviation="20" result="blur1"/>
			<feMerge>
				<feMergeNode in="blur0"/>
				<feMergeNode in="blur1"/>
			</feMerge>
		</filter>
	</defs>
	<g fill="none" fill-rule="nonzero" style="mix-blend-mode: normal">
		<g clip-path="url(#clip-Zj10zVfS)">
			<path d="M846.08,438.27h-40.32v173.95c0,106.91 -86.63,193.54 -193.54,193.54c-74.66,0 -139.43,-42.25 -171.71,-104.15l-86.6,86.6c-23.39,23.39 -61.32,23.39 -84.72,0l-133.63,-133.63c-17.13,-17.13 -22.26,-42.9 -12.99,-65.28c9.27,-22.38 31.12,-36.98 55.34,-36.98h40.32v-173.95c0,-106.92 86.63,-193.53 193.54,-193.53c74.66,0 139.43,42.24 171.71,104.14l86.6,-86.6c23.39,-23.39 61.32,-23.39 84.71,0l133.63,133.63c17.13,17.13 22.26,42.9 12.99,65.28c-9.27,22.39 -31.12,36.98 -55.34,36.98z" fill="#000000" filter="url(#filter-8pWnPWKg)"/>
		</g>
		<g color="#ffffff" class="teamapps-effect-color-1">
			<path d="M846.08,438.27h-40.32v173.95c0,106.91 -86.63,193.54 -193.54,193.54c-74.66,0 -139.43,-42.25 -171.71,-104.15l-86.6,86.6c-23.39,23.39 -61.32,23.39 -84.72,0l-133.63,-133.63c-17.13,-17.13 -22.26,-42.9 -12.99,-65.28c9.27,-22.38 31.12,-36.98 55.34,-36.98h40.32v-173.95c0,-106.92 86.63,-193.53 193.54,-193.53c74.66,0 139.43,42.24 171.71,104.14l86.6,-86.6c23.39,-23.39 61.32,-23.39 84.71,0l133.63,133.63c17.13,17.13 22.26,42.9 12.99,65.28c-9.27,22.39 -31.12,36.98 -55.34,36.98z" fill="currentColor"/>
		</g>
		<g>
			<g color="#1565c0" class="teamapps-color-1">
				<path d="M846.08,378.37h-100.22v233.86c0,73.83 -59.81,133.63 -133.63,133.63c-73.83,0 -133.63,-59.81 -133.63,-133.63v-233.86c0,-36.75 -30.07,-66.81 -66.81,-66.81c-36.75,0 -66.81,30.07 -66.81,66.81v233.86h100.22l-133.63,133.63l-133.63,-133.63h100.22v-233.86c0,-73.83 59.81,-133.63 133.63,-133.63c73.83,0 133.63,59.8 133.63,133.63v233.86c0,36.75 30.07,66.81 66.81,66.81c36.75,0 66.81,-30.07 66.81,-66.81v-233.86h-100.22l133.63,-133.63z" fill="currentColor"/>
			</g>
		</g>
	</g>
</svg>