<svg version="1.1" xmlns="http://www.w3.org/2000/svg" xmlns:xlink="http://www.w3.org/1999/xlink" viewBox="0,0,1024,1024">
	<!-- Color names: teamapps-color-1, teamapps-effect-color-1 -->
	<desc>sync icon - Licensed under Apache License v2.0 (http://www.apache.org/licenses/LICENSE-2.0) - Created with Iconfu.com - Derivative work of Material icons (Copyright Google Inc.)</desc>
	<defs>
		<clipPath id="clip-rV37Jd0p">
			<path d="M127.19,26.96h840.33v997.04h-840.33z"/>
		</clipPath>
		<filter id="filter-WDgN4SgH" x="-9%" y="-7%" width="157%" height="132%" color-interpolation-filters="sRGB">
			<feColorMatrix values="1 0 0 0 0 0 1 0 0 0 0 0 1 0 0 0 0 0 0.17 0" in="SourceGraphic"/>
			<feOffset dx="14.14" dy="14.14"/>
			<feGaussianBlur stdDeviation="11" result="blur0"/>
			<feColorMatrix values="1 0 0 0 0 0 1 0 0 0 0 0 1 0 0 0 0 0 0.25 0" in="SourceGraphic"/>
			<feOffset dx="21.21" dy="21.21"/>
			<feGaussianBlur stdDeviation="20" result="blur1"/>
			<feMerge>
				<feMergeNode in="blur0"/>
				<feMergeNode in="blur1"/>
			</feMerge>
		</filter>
	</defs>
	<g fill="none" fill-rule="nonzero" style="mix-blend-mode: normal">
		<g clip-path="url(#clip-rV37Jd0p)">
			<path d="M554.36,569.87l133.63,133.63c23.39,23.39 23.39,61.32 0,84.72l-133.63,133.63c-17.13,17.13 -42.9,22.26 -65.28,12.98c-22.38,-9.27 -36.98,-31.12 -36.98,-55.34v-45.79c-152.13,-28.13 -267.26,-161.41 -267.26,-321.7c0,-64.33 18.88,-124.16 50.74,-174.4c9.74,-15.36 25.93,-25.46 44,-27.46c18.08,-2 36.08,4.32 48.94,17.18l48.78,48.77c18.75,18.75 22.95,47.6 10.31,70.92c-10.24,18.89 -16.15,41.15 -16.15,64.99c0,56.08 33.02,104.61 80.64,127.14v-26.91c0,-24.23 14.6,-46.07 36.98,-55.34c22.38,-9.27 48.15,-4.15 65.28,12.99zM839.17,512c0,64.33 -18.88,124.16 -50.74,174.4c-9.74,15.36 -25.93,25.46 -44,27.46c-18.08,2 -36.08,-4.32 -48.94,-17.18l-48.78,-48.77c-18.75,-18.75 -22.95,-47.6 -10.31,-70.92c10.24,-18.89 16.15,-41.15 16.15,-64.99c0,-56.08 -33.02,-104.61 -80.64,-127.14v26.91c0,24.23 -14.6,46.07 -36.98,55.34c-22.38,9.27 -48.15,4.15 -65.28,-12.99l-133.63,-133.63c-23.39,-23.39 -23.39,-61.32 0,-84.72l133.63,-133.63c17.13,-17.13 42.9,-22.26 65.28,-12.98c22.38,9.27 36.98,31.12 36.98,55.34v45.79c152.13,28.13 267.26,161.41 267.26,321.7z" fill="#000000" filter="url(#filter-WDgN4SgH)"/>
		</g>
		<g color="#ffffff" class="teamapps-effect-color-1">
			<path d="M554.36,569.87l133.63,133.63c23.39,23.39 23.39,61.32 0,84.72l-133.63,133.63c-17.13,17.13 -42.9,22.26 -65.28,12.98c-22.38,-9.27 -36.98,-31.12 -36.98,-55.34v-45.79c-152.13,-28.13 -267.26,-161.41 -267.26,-321.7c0,-64.33 18.88,-124.16 50.74,-174.4c9.74,-15.36 25.93,-25.46 44,-27.46c18.08,-2 36.08,4.32 48.94,17.18l48.78,48.77c18.75,18.75 22.95,47.6 10.31,70.92c-10.24,18.89 -16.15,41.15 -16.15,64.99c0,56.08 33.02,104.61 80.64,127.14v-26.91c0,-24.23 14.6,-46.07 36.98,-55.34c22.38,-9.27 48.15,-4.15 65.28,12.99zM839.17,512c0,64.33 -18.88,124.16 -50.74,174.4c-9.74,15.36 -25.93,25.46 -44,27.46c-18.08,2 -36.08,-4.32 -48.94,-17.18l-48.78,-48.77c-18.75,-18.75 -22.95,-47.6 -10.31,-70.92c10.24,-18.89 16.15,-41.15 16.15,-64.99c0,-56.08 -33.02,-104.61 -80.64,-127.14v26.91c0,24.23 -14.6,46.07 -36.98,55.34c-22.38,9.27 -48.15,4.15 -65.28,-12.99l-133.63,-133.63c-23.39,-23.39 -23.39,-61.32 0,-84.72l133.63,-133.63c17.13,-17.13 42.9,-22.26 65.28,-12.98c22.38,9.27 36.98,31.12 36.98,55.34v45.79c152.13,28.13 267.26,161.41 267.26,321.7z" fill="currentColor"/>
		</g>
		<g>
			<g color="#1565c0" class="teamapps-color-1">
				<path d="M779.26,512c0,52.45 -15.36,101.23 -41.42,142.32l-48.78,-48.77c15.03,-27.73 23.39,-59.81 23.39,-93.55c0,-110.58 -89.86,-200.45 -200.45,-200.45v100.22l-133.63,-133.63l133.63,-133.63v100.22c147.67,0 267.26,119.6 267.26,267.26zM512,612.22l133.63,133.63l-133.63,133.63v-100.22c-147.67,0 -267.26,-119.6 -267.26,-267.26c0,-52.45 15.36,-101.23 41.42,-142.32l48.78,48.77c-15.03,27.73 -23.39,59.81 -23.39,93.55c0,110.58 89.86,200.45 200.45,200.45z" fill="currentColor"/>
			</g>
		</g>
	</g>
</svg>