<svg version="1.1" xmlns="http://www.w3.org/2000/svg" xmlns:xlink="http://www.w3.org/1999/xlink" viewBox="0,0,1024,1024">
	<!-- Color names: teamapps-color-1, teamapps-effect-color-1 -->
	<desc>sync_disabled icon - Licensed under Apache License v2.0 (http://www.apache.org/licenses/LICENSE-2.0) - Created with Iconfu.com - Derivative work of Material icons (Copyright Google Inc.)</desc>
	<defs>
		<filter id="filter-RalBrnQY" x="-9%" y="-9%" width="149%" height="155%" color-interpolation-filters="sRGB">
			<feColorMatrix values="1 0 0 0 0 0 1 0 0 0 0 0 1 0 0 0 0 0 0.17 0" in="SourceGraphic"/>
			<feOffset dx="14.14" dy="14.14"/>
			<feGaussianBlur stdDeviation="11" result="blur0"/>
			<feColorMatrix values="1 0 0 0 0 0 1 0 0 0 0 0 1 0 0 0 0 0 0.25 0" in="SourceGraphic"/>
			<feOffset dx="21.21" dy="21.21"/>
			<feGaussianBlur stdDeviation="20" result="blur1"/>
			<feMerge>
				<feMergeNode in="blur0"/>
				<feMergeNode in="blur1"/>
			</feMerge>
		</filter>
	</defs>
	<g fill="none" fill-rule="nonzero" style="mix-blend-mode: normal">
		<path d="M291.8,207.08l36.27,36.31c3.31,-3.35 7.04,-6.34 11.14,-8.87c27.52,-17 58.04,-30.46 90.77,-39.05c17.96,-4.72 37.09,-0.83 51.8,10.51c14.7,11.34 23.32,28.86 23.32,47.43v69.82c0,25.67 -16.35,48.47 -40.63,56.72l54.45,54.52v-189.75c0,-33.08 26.82,-59.9 59.9,-59.9h200.45c24.23,0 46.07,14.6 55.34,36.98c9.27,22.38 4.15,48.15 -12.99,65.28l-40.23,40.23c36.23,52.31 57.78,115.87 57.78,184.67c0,63.8 -18.44,123.28 -50,173.29c-2.54,4.02 -5.52,7.68 -8.85,10.93l36.32,36.37c23.37,23.4 23.36,61.31 -0.03,84.69l-42.42,42.42c-23.39,23.39 -61.32,23.39 -84.71,0l-47.83,-47.82c-15.34,6.68 -31.36,12.28 -47.95,16.64c-17.96,4.72 -37.09,0.83 -51.8,-10.51c-14.7,-11.34 -23.32,-28.86 -23.32,-47.43v-69.82c0,-3.81 0.36,-7.57 1.06,-11.21l-14.55,-14.55v104.26c0,33.08 -26.82,59.9 -59.9,59.9h-200.45c-24.23,0 -46.07,-14.6 -55.34,-36.98c-9.27,-22.38 -4.15,-48.15 12.99,-65.28l40.23,-40.23c-36.23,-52.31 -57.78,-115.87 -57.78,-184.67c0,-46.31 9.71,-90.35 27.12,-130.14l-47.66,-47.66c-23.46,-23.46 -23.38,-61.51 0.16,-84.88l42.76,-42.43c23.43,-23.25 61.25,-23.17 84.58,0.19z" fill="#000000" filter="url(#filter-RalBrnQY)"/>
		<g color="#ffffff" class="teamapps-effect-color-1">
			<path d="M291.8,207.08l36.27,36.31c3.31,-3.35 7.04,-6.34 11.14,-8.87c27.52,-17 58.04,-30.46 90.77,-39.05c17.96,-4.72 37.09,-0.83 51.8,10.51c14.7,11.34 23.32,28.86 23.32,47.43v69.82c0,25.67 -16.35,48.47 -40.63,56.72l54.45,54.52v-189.75c0,-33.08 26.82,-59.9 59.9,-59.9h200.45c24.23,0 46.07,14.6 55.34,36.98c9.27,22.38 4.15,48.15 -12.99,65.28l-40.23,40.23c36.23,52.31 57.78,115.87 57.78,184.67c0,63.8 -18.44,123.28 -50,173.29c-2.54,4.02 -5.52,7.68 -8.85,10.93l36.32,36.37c23.37,23.4 23.36,61.31 -0.03,84.69l-42.42,42.42c-23.39,23.39 -61.32,23.39 -84.71,0l-47.83,-47.82c-15.34,6.68 -31.36,12.28 -47.95,16.64c-17.96,4.72 -37.09,0.83 -51.8,-10.51c-14.7,-11.34 -23.32,-28.86 -23.32,-47.43v-69.82c0,-3.81 0.36,-7.57 1.06,-11.21l-14.55,-14.55v104.26c0,33.08 -26.82,59.9 -59.9,59.9h-200.45c-24.23,0 -46.07,-14.6 -55.34,-36.98c-9.27,-22.38 -4.15,-48.15 12.99,-65.28l40.23,-40.23c-36.23,-52.31 -57.78,-115.87 -57.78,-184.67c0,-46.31 9.71,-90.35 27.12,-130.14l-47.66,-47.66c-23.46,-23.46 -23.38,-61.51 0.16,-84.88l42.76,-42.43c23.43,-23.25 61.25,-23.17 84.58,0.19z" fill="currentColor"/>
		</g>
		<g>
			<g color="#1565c0" class="teamapps-color-1">
				<path d="M249.41,249.41l524.84,525.51l-42.42,42.42l-78.85,-78.84c-22.71,14.03 -47.77,25.06 -74.49,32.07v-69.82c9.02,-3.01 17.37,-7.02 25.72,-11.36l-269.94,-269.94c-14.37,27.73 -22.71,59.13 -22.71,92.54c0,55.46 22.71,105.24 58.8,141.65l74.84,-74.84v200.45h-200.45l78.84,-78.84c-48.44,-48.11 -78.84,-114.59 -78.84,-188.42c0,-52.12 15.03,-100.56 40.76,-141.32l-78.84,-78.84zM700.42,323.58c48.44,48.11 78.84,114.59 78.84,188.42c0,52.12 -15.03,100.56 -40.76,141.32l-48.77,-48.77c14.37,-27.73 22.71,-59.13 22.71,-92.54c0,-55.46 -22.71,-105.24 -58.8,-141.65l-74.84,74.84v-200.45h200.45zM419.46,334.27l-48.77,-48.77c22.71,-14.03 47.78,-25.06 74.5,-32.07v69.82c-9.02,3.01 -17.37,7.02 -25.73,11.02z" fill="currentColor"/>
			</g>
		</g>
	</g>
</svg>