<svg version="1.1" xmlns="http://www.w3.org/2000/svg" xmlns:xlink="http://www.w3.org/1999/xlink" viewBox="0,0,1024,1024">
	<!-- Color names: teamapps-color-1, teamapps-effect-color-1 -->
	<desc>thumbs_up_down icon - Licensed under Apache License v2.0 (http://www.apache.org/licenses/LICENSE-2.0) - Created with Iconfu.com - Derivative work of Material icons (Copyright Google Inc.)</desc>
	<defs>
		<clipPath id="clip-shS6Dx5T">
			<path d="M0,1024v-1024h1024v1024z"/>
		</clipPath>
		<filter id="filter-aOPQDUTM" x="-7%" y="-7%" width="127%" height="127%" color-interpolation-filters="sRGB">
			<feColorMatrix values="1 0 0 0 0 0 1 0 0 0 0 0 1 0 0 0 0 0 0.17 0" in="SourceGraphic"/>
			<feOffset dx="14.14" dy="14.14"/>
			<feGaussianBlur stdDeviation="11" result="blur0"/>
			<feColorMatrix values="1 0 0 0 0 0 1 0 0 0 0 0 1 0 0 0 0 0 0.25 0" in="SourceGraphic"/>
			<feOffset dx="21.21" dy="21.21"/>
			<feGaussianBlur stdDeviation="20" result="blur1"/>
			<feMerge>
				<feMergeNode in="blur0"/>
				<feMergeNode in="blur1"/>
			</feMerge>
		</filter>
	</defs>
	<g fill="none" fill-rule="nonzero" style="mix-blend-mode: normal">
		<g clip-path="url(#clip-shS6Dx5T)">
			<path d="M972.8,495.3v217.15c0,30.26 -12.48,58.01 -32.24,77.77l-165.04,165.03c-23.29,23.29 -61.01,23.41 -84.45,0.26l-26.56,-26.24c-0.38,-0.37 -0.75,-0.75 -1.12,-1.14c-15.91,-16.71 -27.54,-40.4 -27.54,-68.03l0.86,-12.81c0.17,-2.15 0.48,-4.28 0.91,-6.39l7.27,-35.15h-99.48c-51.46,0 -93.31,-41.85 -93.31,-93.31v-41.76c0,-14.51 3,-28.61 8.2,-41.22l15.49,-36.27c-19.82,27.21 -52.05,45.51 -89.06,45.51h-225.5c-60.81,0 -110.02,-49.21 -110.02,-110.02v-217.15c0,-30.26 12.48,-58.01 32.24,-77.77l165.04,-165.03c23.4,-23.4 61.33,-23.39 84.72,0.01l26.53,26.54c0.3,0.3 0.59,0.6 0.88,0.91c15.91,16.71 27.54,40.4 27.54,68.03l-0.87,12.67c-0.17,2.09 -0.47,4.17 -0.9,6.22l-7.27,35.12h99.47c51.46,0 93.31,41.85 93.31,93.31v41.76c0,14.51 -3,28.61 -8.2,41.22l-15.49,36.27c19.82,-27.21 52.05,-45.51 89.06,-45.51h225.5c60.81,0 110.02,49.21 110.02,110.02z" fill="#000000" filter="url(#filter-aOPQDUTM)"/>
		</g>
		<g color="#ffffff" class="teamapps-effect-color-1">
			<path d="M972.8,495.3v217.15c0,30.26 -12.48,58.01 -32.24,77.77l-165.04,165.03c-23.29,23.29 -61.01,23.41 -84.45,0.26l-26.56,-26.24c-0.38,-0.37 -0.75,-0.75 -1.12,-1.14c-15.91,-16.71 -27.54,-40.4 -27.54,-68.03l0.86,-12.81c0.17,-2.15 0.48,-4.28 0.91,-6.39l7.27,-35.15h-99.48c-51.46,0 -93.31,-41.85 -93.31,-93.31v-41.76c0,-14.51 3,-28.61 8.2,-41.22l15.49,-36.27c-19.82,27.21 -52.05,45.51 -89.06,45.51h-225.5c-60.81,0 -110.02,-49.21 -110.02,-110.02v-217.15c0,-30.26 12.48,-58.01 32.24,-77.77l165.04,-165.03c23.4,-23.4 61.33,-23.39 84.72,0.01l26.53,26.54c0.3,0.3 0.59,0.6 0.88,0.91c15.91,16.71 27.54,40.4 27.54,68.03l-0.87,12.67c-0.17,2.09 -0.47,4.17 -0.9,6.22l-7.27,35.12h99.47c51.46,0 93.31,41.85 93.31,93.31v41.76c0,14.51 -3,28.61 -8.2,41.22l-15.49,36.27c19.82,-27.21 52.05,-45.51 89.06,-45.51h225.5c60.81,0 110.02,49.21 110.02,110.02z" fill="currentColor"/>
		</g>
		<g>
			<g color="#1565c0" class="teamapps-color-1">
				<path d="M912.9,495.3v217.15c0,13.69 -5.68,26.39 -14.7,35.42l-165.04,165.03l-26.39,-26.06c-6.68,-7.02 -11.02,-16.36 -11.02,-26.72l0.67,-8.02l22.05,-106.24h-173.05c-18.38,0 -33.41,-15.03 -33.41,-33.41v-41.76c0,-6.35 1.33,-12.7 3.67,-18.38l75.5,-176.73c7.68,-17.7 25.39,-30.4 46.1,-30.4h225.5c27.73,0 50.11,22.39 50.11,50.11zM512,353.31c0,6.35 -1.33,12.7 -3.67,18.38l-75.5,176.73c-7.68,17.7 -25.39,30.4 -46.1,30.4h-225.5c-27.73,0 -50.11,-22.39 -50.11,-50.11v-217.15c0,-13.69 5.68,-26.39 14.7,-35.42l165.04,-165.03l26.39,26.39c6.68,7.02 11.02,16.36 11.02,26.72l-0.67,7.68l-22.05,106.24h173.05c18.38,0 33.41,15.03 33.41,33.41z" fill="currentColor"/>
			</g>
		</g>
	</g>
</svg>