<svg version="1.1" xmlns="http://www.w3.org/2000/svg" xmlns:xlink="http://www.w3.org/1999/xlink" viewBox="0,0,1024,1024">
	<!-- Color names: teamapps-color-1, teamapps-effect-color-1 -->
	<desc>transfer_within_a_station icon - Licensed under Apache License v2.0 (http://www.apache.org/licenses/LICENSE-2.0) - Created with Iconfu.com - Derivative work of Material icons (Copyright Google Inc.)</desc>
	<defs>
		<clipPath id="clip-yuSEYwEj">
			<path d="M60.37,43.67h963.63v980.33h-963.63z"/>
		</clipPath>
		<filter id="filter-YkOj6Z5q" x="-8%" y="-7%" width="140%" height="135%" color-interpolation-filters="sRGB">
			<feColorMatrix values="1 0 0 0 0 0 1 0 0 0 0 0 1 0 0 0 0 0 0.17 0" in="SourceGraphic"/>
			<feOffset dx="14.14" dy="14.14"/>
			<feGaussianBlur stdDeviation="11" result="blur0"/>
			<feColorMatrix values="1 0 0 0 0 0 1 0 0 0 0 0 1 0 0 0 0 0 0.25 0" in="SourceGraphic"/>
			<feOffset dx="21.21" dy="21.21"/>
			<feGaussianBlur stdDeviation="20" result="blur1"/>
			<feMerge>
				<feMergeNode in="blur0"/>
				<feMergeNode in="blur1"/>
			</feMerge>
		</filter>
	</defs>
	<g fill="none" fill-rule="nonzero" style="mix-blend-mode: normal">
		<g clip-path="url(#clip-yuSEYwEj)">
			<path d="M177.92,605.31c-33.08,0 -59.9,-26.82 -59.9,-59.9v-157.02c0,-24.32 14.7,-46.22 37.2,-55.44l153.7,-62.94c-4.63,-13.15 -7.16,-27.28 -7.16,-41.98c0,-69.83 56.89,-126.72 126.72,-126.72c69.82,0 126.73,56.88 126.73,126.72c0,43.8 -22.38,82.51 -56.3,105.28l19.17,32.29c20.05,31.98 54.84,53.08 94.15,53.08c33.08,0 59.9,26.82 59.9,59.9v32.83c4.31,0.74 8.58,1.96 12.74,3.68c21.97,9.07 36.45,30.25 37.02,53.92h124.2c33.08,0 59.9,26.82 59.9,59.9v50.11c0,24.88 -15.17,46.22 -36.77,55.27l19.31,19.39c23.28,23.38 23.28,61.17 0,84.55l-83.19,83.51c-17.11,17.18 -42.9,22.35 -65.31,13.09c-21.97,-9.07 -36.45,-30.25 -37.02,-53.92h-124.2c-15.53,0 -29.68,-5.91 -40.32,-15.6v14.15c0,33.08 -26.82,59.9 -59.9,59.9h-66.81c-33.08,0 -59.9,-26.82 -59.9,-59.9v-41.44l-11.87,54.25c-6.02,27.5 -30.37,47.1 -58.52,47.1h-70.16c-17.9,0 -34.86,-8 -46.24,-21.81c-11.38,-13.81 -15.99,-31.99 -12.56,-49.56l51.24,-262.7z" fill="#000000" filter="url(#filter-YkOj6Z5q)"/>
		</g>
		<g color="#ffffff" class="teamapps-effect-color-1">
			<path d="M177.92,605.31c-33.08,0 -59.9,-26.82 -59.9,-59.9v-157.02c0,-24.32 14.7,-46.22 37.2,-55.44l153.7,-62.94c-4.63,-13.15 -7.16,-27.28 -7.16,-41.98c0,-69.83 56.89,-126.72 126.72,-126.72c69.82,0 126.73,56.88 126.73,126.72c0,43.8 -22.38,82.51 -56.3,105.28l19.17,32.29c20.05,31.98 54.84,53.08 94.15,53.08c33.08,0 59.9,26.82 59.9,59.9v32.83c4.31,0.74 8.58,1.96 12.74,3.68c21.97,9.07 36.45,30.25 37.02,53.92h124.2c33.08,0 59.9,26.82 59.9,59.9v50.11c0,24.88 -15.17,46.22 -36.77,55.27l19.31,19.39c23.28,23.38 23.28,61.17 0,84.55l-83.19,83.51c-17.11,17.18 -42.9,22.35 -65.31,13.09c-21.97,-9.07 -36.45,-30.25 -37.02,-53.92h-124.2c-15.53,0 -29.68,-5.91 -40.32,-15.6v14.15c0,33.08 -26.82,59.9 -59.9,59.9h-66.81c-33.08,0 -59.9,-26.82 -59.9,-59.9v-41.44l-11.87,54.25c-6.02,27.5 -30.37,47.1 -58.52,47.1h-70.16c-17.9,0 -34.86,-8 -46.24,-21.81c-11.38,-13.81 -15.99,-31.99 -12.56,-49.56l51.24,-262.7z" fill="currentColor"/>
		</g>
		<g>
			<g color="#1565c0" class="teamapps-color-1">
				<path d="M303.2,408.43l-58.46,25.06v111.92h-66.82v-157.02l175.39,-71.82c8.35,-3.34 16.7,-5.01 25.06,-5.01c23.39,0 45.11,11.69 56.8,31.73l31.73,53.46c30.07,48.44 83.52,81.85 145.32,81.85v66.82c-73.5,0 -138.64,-33.41 -182.07,-86.87l-20.04,100.22l68.48,68.49v252.23h-66.81v-200.45l-71.82,-66.81l-58.47,267.26h-70.16zM846.08,628.93v50.11h-184.08v58.47l-83.19,-83.52l83.19,-83.51v58.46zM762.9,712.45l83.19,83.52l-83.19,83.51v-58.46h-184.08v-50.11h184.08zM361.66,228.03c0,-36.75 30.07,-66.81 66.81,-66.81c36.75,0 66.82,30.07 66.82,66.81c0,36.75 -30.08,66.82 -66.82,66.82c-36.75,0 -66.81,-30.08 -66.81,-66.82z" fill="currentColor"/>
			</g>
		</g>
	</g>
</svg>