<svg version="1.1" xmlns="http://www.w3.org/2000/svg" xmlns:xlink="http://www.w3.org/1999/xlink" viewBox="0,0,1024,1024">
	<!-- Color names: teamapps-color-1, teamapps-effect-color-1 -->
	<desc>translate icon - Licensed under Apache License v2.0 (http://www.apache.org/licenses/LICENSE-2.0) - Created with Iconfu.com - Derivative work of Material icons (Copyright Google Inc.)</desc>
	<defs>
		<clipPath id="clip-ISHVGMsZ">
			<path d="M26.97,60.37h997.03v963.63h-997.03z"/>
		</clipPath>
		<filter id="filter-69WqWymN" x="-7%" y="-8%" width="132%" height="140%" color-interpolation-filters="sRGB">
			<feColorMatrix values="1 0 0 0 0 0 1 0 0 0 0 0 1 0 0 0 0 0 0.17 0" in="SourceGraphic"/>
			<feOffset dx="14.14" dy="14.14"/>
			<feGaussianBlur stdDeviation="11" result="blur0"/>
			<feColorMatrix values="1 0 0 0 0 0 1 0 0 0 0 0 1 0 0 0 0 0 0.25 0" in="SourceGraphic"/>
			<feOffset dx="21.21" dy="21.21"/>
			<feGaussianBlur stdDeviation="20" result="blur1"/>
			<feMerge>
				<feMergeNode in="blur0"/>
				<feMergeNode in="blur1"/>
			</feMerge>
		</filter>
	</defs>
	<g fill="none" fill-rule="nonzero" style="mix-blend-mode: normal">
		<g clip-path="url(#clip-ISHVGMsZ)">
			<path d="M473.31,725.07l-61.54,-61.54l-124.68,124.68c-23.39,23.39 -61.32,23.4 -84.72,0l-47.44,-47.44c-23.51,-23.51 -23.38,-61.66 0.29,-85.01l131.08,-129.28c-29.28,-38.84 -53.79,-80.32 -73.19,-123.64c-4.52,-10.1 -6.09,-21.08 -4.79,-31.73h-63.81c-33.08,0 -59.9,-26.82 -59.9,-59.9v-66.48c0,-33.08 26.82,-59.9 59.9,-59.9h173.95v-6.92c0,-33.08 26.82,-59.9 59.9,-59.9h66.82c33.08,0 59.9,26.82 59.9,59.9v6.92h173.95c33.08,0 59.9,26.82 59.9,59.9v66.81c0,33.08 -26.82,59.9 -59.9,59.9h-55.34c-21.17,54.64 -50.02,106.87 -86.42,155.15l22.29,22.02l46.68,-124.48c8.77,-23.38 31.12,-38.87 56.09,-38.87h66.81c24.97,0 47.32,15.49 56.09,38.87l150.34,400.9c6.9,18.4 4.34,39.01 -6.85,55.15c-11.19,16.15 -29.59,25.78 -49.24,25.78h-66.81c-24.94,0 -47.27,-15.45 -56.06,-38.79l-23.14,-61.43h-75.66l-22.88,61.27c-8.75,23.42 -31.12,38.95 -56.12,38.95h-66.81c-19.65,0 -38.05,-9.63 -49.24,-25.78c-11.19,-16.15 -13.75,-36.76 -6.85,-55.15l33.23,-88.62c-5.78,-2.86 -11.14,-6.66 -15.83,-11.35z" fill="#000000" filter="url(#filter-69WqWymN)"/>
		</g>
		<g color="#ffffff" class="teamapps-effect-color-1">
			<path d="M473.31,725.07l-61.54,-61.54l-124.68,124.68c-23.39,23.39 -61.32,23.4 -84.72,0l-47.44,-47.44c-23.51,-23.51 -23.38,-61.66 0.29,-85.01l131.08,-129.28c-29.28,-38.84 -53.79,-80.32 -73.19,-123.64c-4.52,-10.1 -6.09,-21.08 -4.79,-31.73h-63.81c-33.08,0 -59.9,-26.82 -59.9,-59.9v-66.48c0,-33.08 26.82,-59.9 59.9,-59.9h173.95v-6.92c0,-33.08 26.82,-59.9 59.9,-59.9h66.82c33.08,0 59.9,26.82 59.9,59.9v6.92h173.95c33.08,0 59.9,26.82 59.9,59.9v66.81c0,33.08 -26.82,59.9 -59.9,59.9h-55.34c-21.17,54.64 -50.02,106.87 -86.42,155.15l22.29,22.02l46.68,-124.48c8.77,-23.38 31.12,-38.87 56.09,-38.87h66.81c24.97,0 47.32,15.49 56.09,38.87l150.34,400.9c6.9,18.4 4.34,39.01 -6.85,55.15c-11.19,16.15 -29.59,25.78 -49.24,25.78h-66.81c-24.94,0 -47.27,-15.45 -56.06,-38.79l-23.14,-61.43h-75.66l-22.88,61.27c-8.75,23.42 -31.12,38.95 -56.12,38.95h-66.81c-19.65,0 -38.05,-9.63 -49.24,-25.78c-11.19,-16.15 -13.75,-36.76 -6.85,-55.15l33.23,-88.62c-5.78,-2.86 -11.14,-6.66 -15.83,-11.35z" fill="currentColor"/>
		</g>
		<g>
			<g color="#1565c0" class="teamapps-color-1">
				<path d="M515.67,682.72l-103.9,-103.9l-167.04,167.05l-47.44,-47.44l170.04,-167.71c-41.76,-46.44 -75.16,-97.88 -99.55,-152.34h66.81c20.38,39.75 46.1,77.51 77.17,111.92c48.11,-53.46 83.51,-114.59 105.9,-179.07h-373.16v-66.48h233.85v-66.82h66.82v66.82h233.85v66.81h-97.88c-24.39,78.84 -65.81,153.34 -123.94,218.15l-1,1l84.85,83.86zM879.49,846.08h-66.81l-37.75,-100.22h-158.69l-37.42,100.22h-66.81l150.34,-400.9h66.81zM749.87,679.04l-54.12,-144.65l-54.12,144.65z" fill="currentColor"/>
			</g>
		</g>
	</g>
</svg>