<svg version="1.1" xmlns="http://www.w3.org/2000/svg" xmlns:xlink="http://www.w3.org/1999/xlink" viewBox="0,0,1024,1024">
	<!-- Color names: teamapps-color-1, teamapps-effect-color-1 -->
	<desc>unfold_less icon - Licensed under Apache License v2.0 (http://www.apache.org/licenses/LICENSE-2.0) - Created with Iconfu.com - Derivative work of Material icons (Copyright Google Inc.)</desc>
	<defs>
		<filter id="filter-dIY3683U" x="-14%" y="-9%" width="215%" height="157%" color-interpolation-filters="sRGB">
			<feColorMatrix values="1 0 0 0 0 0 1 0 0 0 0 0 1 0 0 0 0 0 0.17 0" in="SourceGraphic"/>
			<feOffset dx="14.14" dy="14.14"/>
			<feGaussianBlur stdDeviation="11" result="blur0"/>
			<feColorMatrix values="1 0 0 0 0 0 1 0 0 0 0 0 1 0 0 0 0 0 0.25 0" in="SourceGraphic"/>
			<feOffset dx="21.21" dy="21.21"/>
			<feGaussianBlur stdDeviation="20" result="blur1"/>
			<feMerge>
				<feMergeNode in="blur0"/>
				<feMergeNode in="blur1"/>
			</feMerge>
		</filter>
	</defs>
	<g fill="none" fill-rule="nonzero" style="mix-blend-mode: normal">
		<path d="M469.64,487.55l-153.34,-153.34c-23.45,-23.45 -23.39,-61.5 0.15,-84.87l47.44,-47.11c23.42,-23.25 61.23,-23.18 84.57,0.15l63.54,63.54l63.54,-63.54c23.34,-23.34 61.15,-23.4 84.57,-0.15l47.44,47.11c23.54,23.37 23.6,61.41 0.15,84.87l-153.34,153.34c-23.39,23.39 -61.32,23.39 -84.72,0zM554.41,536.5l153.01,153.34c23.35,23.4 23.33,61.29 -0.05,84.67l-47.11,47.11c-23.39,23.39 -61.32,23.39 -84.72,0l-63.54,-63.54l-63.54,63.54c-23.34,23.34 -61.15,23.4 -84.57,0.15l-47.44,-47.11c-23.54,-23.37 -23.6,-61.41 -0.15,-84.87l153.34,-153.34c23.41,-23.41 61.38,-23.39 84.76,0.05z" fill="#000000" filter="url(#filter-dIY3683U)"/>
		<g color="#ffffff" class="teamapps-effect-color-1">
			<path d="M469.64,487.55l-153.34,-153.34c-23.45,-23.45 -23.39,-61.5 0.15,-84.87l47.44,-47.11c23.42,-23.25 61.23,-23.18 84.57,0.15l63.54,63.54l63.54,-63.54c23.34,-23.34 61.15,-23.4 84.57,-0.15l47.44,47.11c23.54,23.37 23.6,61.41 0.15,84.87l-153.34,153.34c-23.39,23.39 -61.32,23.39 -84.72,0zM554.41,536.5l153.01,153.34c23.35,23.4 23.33,61.29 -0.05,84.67l-47.11,47.11c-23.39,23.39 -61.32,23.39 -84.72,0l-63.54,-63.54l-63.54,63.54c-23.34,23.34 -61.15,23.4 -84.57,0.15l-47.44,-47.11c-23.54,-23.37 -23.6,-61.41 -0.15,-84.87l153.34,-153.34c23.41,-23.41 61.38,-23.39 84.76,0.05z" fill="currentColor"/>
		</g>
		<g>
			<g color="#1565c0" class="teamapps-color-1">
				<path d="M512,445.19l-153.34,-153.34l47.44,-47.11l105.9,105.9l105.9,-105.9l47.44,47.11zM512,578.81l153.01,153.34l-47.11,47.11l-105.9,-105.9l-105.9,105.9l-47.44,-47.11z" fill="currentColor"/>
			</g>
		</g>
	</g>
</svg>