<svg version="1.1" xmlns="http://www.w3.org/2000/svg" xmlns:xlink="http://www.w3.org/1999/xlink" viewBox="0,0,1024,1024">
	<!-- Color names: teamapps-color-1, teamapps-effect-color-1 -->
	<desc>vibration icon - Licensed under Apache License v2.0 (http://www.apache.org/licenses/LICENSE-2.0) - Created with Iconfu.com - Derivative work of Material icons (Copyright Google Inc.)</desc>
	<defs>
		<clipPath id="clip-YXjQwVT7">
			<path d="M0,93.78h1024v907.15h-1024z"/>
		</clipPath>
		<filter id="filter-EBXIGCzi" x="-7%" y="-8%" width="127%" height="147%" color-interpolation-filters="sRGB">
			<feColorMatrix values="1 0 0 0 0 0 1 0 0 0 0 0 1 0 0 0 0 0 0.17 0" in="SourceGraphic"/>
			<feOffset dx="14.14" dy="14.14"/>
			<feGaussianBlur stdDeviation="11" result="blur0"/>
			<feColorMatrix values="1 0 0 0 0 0 1 0 0 0 0 0 1 0 0 0 0 0 0.25 0" in="SourceGraphic"/>
			<feOffset dx="21.21" dy="21.21"/>
			<feGaussianBlur stdDeviation="20" result="blur1"/>
			<feMerge>
				<feMergeNode in="blur0"/>
				<feMergeNode in="blur1"/>
			</feMerge>
		</filter>
	</defs>
	<g fill="none" fill-rule="nonzero" style="mix-blend-mode: normal">
		<g clip-path="url(#clip-YXjQwVT7)">
			<path d="M772.35,261.44v23.62h40.32c33.08,0 59.9,26.82 59.9,59.9v6.91h40.32c33.08,0 59.9,26.82 59.9,59.9v200.45c0,33.08 -26.82,59.9 -59.9,59.9h-40.32v6.91c0,33.08 -26.82,59.9 -59.9,59.9h-40.32v23.62c0,60.81 -49.21,110.02 -110.02,110.02h-300.67c-60.81,0 -110.02,-49.21 -110.02,-110.02v-23.62h-40.32c-33.08,0 -59.9,-26.82 -59.9,-59.9v-6.91h-40.32c-33.08,0 -59.9,-26.82 -59.9,-59.9v-200.45c0,-33.08 26.82,-59.9 59.9,-59.9h40.32v-6.91c0,-33.08 26.82,-59.9 59.9,-59.9h40.32v-23.62c0,-60.81 49.21,-110.02 110.02,-110.02h300.67c60.81,0 110.02,49.21 110.02,110.02z" fill="#000000" filter="url(#filter-EBXIGCzi)"/>
		</g>
		<g color="#ffffff" class="teamapps-effect-color-1">
			<path d="M772.35,261.44v23.62h40.32c33.08,0 59.9,26.82 59.9,59.9v6.91h40.32c33.08,0 59.9,26.82 59.9,59.9v200.45c0,33.08 -26.82,59.9 -59.9,59.9h-40.32v6.91c0,33.08 -26.82,59.9 -59.9,59.9h-40.32v23.62c0,60.81 -49.21,110.02 -110.02,110.02h-300.67c-60.81,0 -110.02,-49.21 -110.02,-110.02v-23.62h-40.32c-33.08,0 -59.9,-26.82 -59.9,-59.9v-6.91h-40.32c-33.08,0 -59.9,-26.82 -59.9,-59.9v-200.45c0,-33.08 26.82,-59.9 59.9,-59.9h40.32v-6.91c0,-33.08 26.82,-59.9 59.9,-59.9h40.32v-23.62c0,-60.81 49.21,-110.02 110.02,-110.02h300.67c60.81,0 110.02,49.21 110.02,110.02z" fill="currentColor"/>
		</g>
		<g>
			<g color="#1565c0" class="teamapps-color-1">
				<path d="M712.45,261.44v501.12c0,27.73 -22.39,50.11 -50.11,50.11h-300.67c-27.73,0 -50.11,-22.39 -50.11,-50.11v-501.12c0,-27.73 22.39,-50.11 50.11,-50.11h300.67c27.73,0 50.11,22.39 50.11,50.11zM645.63,278.14h-267.27v467.72h267.27zM745.86,344.96h66.81v334.07h-66.81zM211.33,344.96h66.81v334.07h-66.81zM912.9,411.78v200.45h-66.81v-200.45zM111.1,411.78h66.81v200.45h-66.81z" fill="currentColor"/>
			</g>
		</g>
	</g>
</svg>