<svg version="1.1" xmlns="http://www.w3.org/2000/svg" xmlns:xlink="http://www.w3.org/1999/xlink" viewBox="0,0,1024,1024">
	<!-- Color names: teamapps-color-1, teamapps-effect-color-1 -->
	<desc>view_agenda icon - Licensed under Apache License v2.0 (http://www.apache.org/licenses/LICENSE-2.0) - Created with Iconfu.com - Derivative work of Material icons (Copyright Google Inc.)</desc>
	<defs>
		<filter id="filter-go25Rlhx" x="-8%" y="-8%" width="141%" height="147%" color-interpolation-filters="sRGB">
			<feColorMatrix values="1 0 0 0 0 0 1 0 0 0 0 0 1 0 0 0 0 0 0.17 0" in="SourceGraphic"/>
			<feOffset dx="14.14" dy="14.14"/>
			<feGaussianBlur stdDeviation="11" result="blur0"/>
			<feColorMatrix values="1 0 0 0 0 0 1 0 0 0 0 0 1 0 0 0 0 0 0.25 0" in="SourceGraphic"/>
			<feOffset dx="21.21" dy="21.21"/>
			<feGaussianBlur stdDeviation="20" result="blur1"/>
			<feMerge>
				<feMergeNode in="blur0"/>
				<feMergeNode in="blur1"/>
			</feMerge>
		</filter>
	</defs>
	<g fill="none" fill-rule="nonzero" style="mix-blend-mode: normal">
		<path d="M872.58,244.74v200.45c0,26.18 -10.83,49.86 -28.23,66.81c17.41,16.96 28.23,40.64 28.23,66.81v200.45c0,51.46 -41.85,93.31 -93.31,93.31h-567.93c-51.46,0 -93.31,-41.85 -93.31,-93.31v-200.45c0,-26.18 10.83,-49.86 28.23,-66.81c-17.41,-16.96 -28.23,-40.64 -28.23,-66.81v-200.45c0,-51.46 41.85,-93.31 93.31,-93.31h567.93c51.46,0 93.31,41.85 93.31,93.31z" fill="#000000" filter="url(#filter-go25Rlhx)"/>
		<g color="#ffffff" class="teamapps-effect-color-1">
			<path d="M872.58,244.74v200.45c0,26.18 -10.83,49.86 -28.23,66.81c17.41,16.96 28.23,40.64 28.23,66.81v200.45c0,51.46 -41.85,93.31 -93.31,93.31h-567.93c-51.46,0 -93.31,-41.85 -93.31,-93.31v-200.45c0,-26.18 10.83,-49.86 28.23,-66.81c-17.41,-16.96 -28.23,-40.64 -28.23,-66.81v-200.45c0,-51.46 41.85,-93.31 93.31,-93.31h567.93c51.46,0 93.31,41.85 93.31,93.31z" fill="currentColor"/>
		</g>
		<g>
			<g color="#1565c0" class="teamapps-color-1">
				<path d="M812.67,578.81v200.45c0,18.38 -15.03,33.41 -33.41,33.41h-567.93c-18.38,0 -33.41,-15.03 -33.41,-33.41v-200.45c0,-18.38 15.03,-33.4 33.41,-33.4h567.93c18.38,0 33.41,15.03 33.41,33.4zM812.67,244.74v200.45c0,18.38 -15.03,33.4 -33.41,33.4h-567.93c-18.38,0 -33.41,-15.03 -33.41,-33.4v-200.45c0,-18.38 15.03,-33.41 33.41,-33.41h567.93c18.38,0 33.41,15.03 33.41,33.41z" fill="currentColor"/>
			</g>
		</g>
	</g>
</svg>