<svg version="1.1" xmlns="http://www.w3.org/2000/svg" xmlns:xlink="http://www.w3.org/1999/xlink" viewBox="0,0,1024,1024">
	<!-- Color names: teamapps-color-1, teamapps-effect-color-1 -->
	<desc>wb_sunny icon - Licensed under Apache License v2.0 (http://www.apache.org/licenses/LICENSE-2.0) - Created with Iconfu.com - Derivative work of Material icons (Copyright Google Inc.)</desc>
	<defs>
		<clipPath id="clip-S5NX2m3U">
			<path d="M26.97,11.93h997.03v1012.07h-997.03z"/>
		</clipPath>
		<filter id="filter-r0ffimkL" x="-7%" y="-7%" width="132%" height="131%" color-interpolation-filters="sRGB">
			<feColorMatrix values="1 0 0 0 0 0 1 0 0 0 0 0 1 0 0 0 0 0 0.17 0" in="SourceGraphic"/>
			<feOffset dx="14.14" dy="14.14"/>
			<feGaussianBlur stdDeviation="11" result="blur0"/>
			<feColorMatrix values="1 0 0 0 0 0 1 0 0 0 0 0 1 0 0 0 0 0 0.25 0" in="SourceGraphic"/>
			<feOffset dx="21.21" dy="21.21"/>
			<feGaussianBlur stdDeviation="20" result="blur1"/>
			<feMerge>
				<feMergeNode in="blur0"/>
				<feMergeNode in="blur1"/>
			</feMerge>
		</filter>
	</defs>
	<g fill="none" fill-rule="nonzero" style="mix-blend-mode: normal">
		<g clip-path="url(#clip-S5NX2m3U)">
			<path d="M744.69,612.1c11.49,2.11 22.48,7.59 31.38,16.44l60.13,59.81c23.5,23.37 23.56,61.39 0.12,84.83l-47.11,47.11c-23.44,23.44 -61.46,23.39 -84.83,-0.12l-59.81,-60.13c-8.93,-8.98 -14.43,-20.09 -16.5,-31.68c-8.78,4.39 -17.84,8.29 -27.15,11.68c2.82,6.95 4.38,14.56 4.38,22.53v98.56c0,33.08 -26.82,59.9 -59.9,59.9h-66.82c-33.08,0 -59.9,-26.82 -59.9,-59.9v-98.56c0,-7.97 1.56,-15.57 4.38,-22.53c-9.44,-3.44 -18.62,-7.4 -27.51,-11.86c-2.09,11.54 -7.57,22.58 -16.47,31.53l-59.8,60.13c-23.37,23.51 -61.4,23.56 -84.84,0.12l-47.11,-47.11c-23.35,-23.35 -23.4,-61.18 -0.12,-84.6l59.8,-60.13c9.02,-9.07 20.22,-14.65 31.92,-16.73c-4.39,-8.78 -8.29,-17.85 -11.68,-27.16c-6.95,2.82 -14.56,4.38 -22.52,4.38h-100.22c-33.08,0 -59.9,-26.82 -59.9,-59.9v-66.81c0,-33.08 26.82,-59.9 59.9,-59.9h100.22c7.97,0 15.57,1.56 22.53,4.38c3.43,-9.42 7.39,-18.58 11.83,-27.46c-11.71,-2.05 -22.92,-7.6 -31.96,-16.64l-59.8,-59.81c-23.39,-23.39 -23.39,-61.32 0,-84.71l47.11,-47.11c23.35,-23.35 61.19,-23.4 84.6,-0.12l60.13,59.81c9.07,9.02 14.65,20.22 16.73,31.92c8.78,-4.39 17.84,-8.29 27.15,-11.68c-2.83,-6.96 -4.38,-14.56 -4.38,-22.53v-98.55c0,-33.08 26.82,-59.9 59.9,-59.9h66.82c33.08,0 59.9,26.82 59.9,59.9v98.55c0,7.97 -1.56,15.58 -4.38,22.53c9.42,3.43 18.58,7.39 27.46,11.84c2.05,-11.7 7.6,-22.91 16.64,-31.95l59.8,-59.81c23.39,-23.4 61.32,-23.4 84.72,0l47.11,47.11c23.39,23.39 23.39,61.32 0,84.71l-59.8,59.81c-9.04,9.04 -20.25,14.59 -31.96,16.64c4.45,8.88 8.41,18.04 11.83,27.46c6.95,-2.82 14.56,-4.38 22.53,-4.38h100.22c33.08,0 59.9,26.82 59.9,59.9v66.81c0,33.08 -26.82,59.9 -59.9,59.9h-100.22c-7.97,0 -15.57,-1.56 -22.52,-4.38c-3.48,9.57 -7.51,18.87 -12.04,27.88z" fill="#000000" filter="url(#filter-r0ffimkL)"/>
		</g>
		<g color="#ffffff" class="teamapps-effect-color-1">
			<path d="M744.69,612.1c11.49,2.11 22.48,7.59 31.38,16.44l60.13,59.81c23.5,23.37 23.56,61.39 0.12,84.83l-47.11,47.11c-23.44,23.44 -61.46,23.39 -84.83,-0.12l-59.81,-60.13c-8.93,-8.98 -14.43,-20.09 -16.5,-31.68c-8.78,4.39 -17.84,8.29 -27.15,11.68c2.82,6.95 4.38,14.56 4.38,22.53v98.56c0,33.08 -26.82,59.9 -59.9,59.9h-66.82c-33.08,0 -59.9,-26.82 -59.9,-59.9v-98.56c0,-7.97 1.56,-15.57 4.38,-22.53c-9.44,-3.44 -18.62,-7.4 -27.51,-11.86c-2.09,11.54 -7.57,22.58 -16.47,31.53l-59.8,60.13c-23.37,23.51 -61.4,23.56 -84.84,0.12l-47.11,-47.11c-23.35,-23.35 -23.4,-61.18 -0.12,-84.6l59.8,-60.13c9.02,-9.07 20.22,-14.65 31.92,-16.73c-4.39,-8.78 -8.29,-17.85 -11.68,-27.16c-6.95,2.82 -14.56,4.38 -22.52,4.38h-100.22c-33.08,0 -59.9,-26.82 -59.9,-59.9v-66.81c0,-33.08 26.82,-59.9 59.9,-59.9h100.22c7.97,0 15.57,1.56 22.53,4.38c3.43,-9.42 7.39,-18.58 11.83,-27.46c-11.71,-2.05 -22.92,-7.6 -31.96,-16.64l-59.8,-59.81c-23.39,-23.39 -23.39,-61.32 0,-84.71l47.11,-47.11c23.35,-23.35 61.19,-23.4 84.6,-0.12l60.13,59.81c9.07,9.02 14.65,20.22 16.73,31.92c8.78,-4.39 17.84,-8.29 27.15,-11.68c-2.83,-6.96 -4.38,-14.56 -4.38,-22.53v-98.55c0,-33.08 26.82,-59.9 59.9,-59.9h66.82c33.08,0 59.9,26.82 59.9,59.9v98.55c0,7.97 -1.56,15.58 -4.38,22.53c9.42,3.43 18.58,7.39 27.46,11.84c2.05,-11.7 7.6,-22.91 16.64,-31.95l59.8,-59.81c23.39,-23.4 61.32,-23.4 84.72,0l47.11,47.11c23.39,23.39 23.39,61.32 0,84.71l-59.8,59.81c-9.04,9.04 -20.25,14.59 -31.96,16.64c4.45,8.88 8.41,18.04 11.83,27.46c6.95,-2.82 14.56,-4.38 22.53,-4.38h100.22c33.08,0 59.9,26.82 59.9,59.9v66.81c0,33.08 -26.82,59.9 -59.9,59.9h-100.22c-7.97,0 -15.57,-1.56 -22.52,-4.38c-3.48,9.57 -7.51,18.87 -12.04,27.88z" fill="currentColor"/>
		</g>
		<g>
			<g color="#1565c0" class="teamapps-color-1">
				<path d="M712.45,495.3c0,110.58 -89.86,200.45 -200.45,200.45c-110.58,0 -200.45,-89.86 -200.45,-200.45c0,-110.58 89.86,-200.45 200.45,-200.45c110.58,0 200.45,89.86 200.45,200.45zM289.5,670.35l47.11,47.11l-59.8,60.13l-47.11,-47.11zM289.5,319.91l-59.8,-59.81l47.11,-47.11l60.13,59.81zM734.5,319.91l-47.11,-47.11l59.8,-59.81l47.11,47.11zM733.83,671.02l60.13,59.81l-47.11,47.11l-59.81,-60.13zM244.74,528.7h-100.22v-66.81h100.22zM879.49,461.89v66.81h-100.22v-66.81zM545.41,228.03h-66.82v-98.55h66.82zM478.59,762.56h66.82v98.56h-66.82z" fill="currentColor"/>
			</g>
		</g>
	</g>
</svg>